<?xml version="1.0" encoding="UTF-8"?>
<svg id="Layer_1" xmlns="http://www.w3.org/2000/svg" width="280" height="280" xmlns:xlink="http://www.w3.org/1999/xlink" viewBox="0 0 280 280">
  <a xlink:href="https://www.notion.so/congruence/hypothesis-f8e01f142f324c2b8a2aaf7e4944f125?pvs=4">
    <g>
      <rect width="280" height="280" fill="none"/>
      <path d="M50.60546875,93.49755859375l.412109375.1025390625c5.357421875-5.4248046875,9.59765625-9.220703125,12.72412109375-11.384765625,3.12451171875-2.1630859375,6.21533203125-3.7939453125,9.2724609375-4.8935546875,3.05517578125-1.09765625,6.3359375-1.6484375,9.8388671875-1.6484375,3.7763671875,0,7.142578125.447265625,10.0966796875,1.33984375,2.9521484375.892578125,5.5458984375,2.25,7.7783203125,4.0693359375,2.2314453125,1.8203125,4.05224609375,4.0537109375,5.4609375,6.6962890625,1.40673828125,2.6455078125,2.45458984375,5.8056640625,3.14208984375,9.478515625.685546875,3.67578125,1.0302734375,8.3291015625,1.0302734375,13.9609375v38.84130859375c0,5.9755859375.25732421875,10.044921875.77294921875,12.208984375.5146484375,2.1630859375,1.4423828125,3.84765625,2.78125,5.0478515625,1.33984375,1.203125,4.0341796875,2.353515625,8.087890625,3.451171875v5.048828125h-40.5927734375v-5.048828125c2.6787109375-.82421875,4.6005859375-1.544921875,5.76953125-2.1630859375,1.1669921875-.6181640625,2.14599609375-1.4765625,2.9365234375-2.5751953125.78857421875-1.0986328125,1.40673828125-2.7978515625,1.8544921875-5.1005859375.44580078125-2.2998046875.66943359375-5.78515625.66943359375-10.45703125v-26.99365234375c0-9.1337890625-.46337890625-16.1240234375-1.39111328125-20.9658203125-.9267578125-4.8427734375-2.74755859375-8.46484375-5.4599609375-10.8701171875-2.71435546875-2.4033203125-6.5087890625-3.60546875-11.384765625-3.60546875-2.748046875,0-5.220703125.4814453125-7.41796875,1.4423828125-2.19921875.962890625-4.7392578125,2.6787109375-7.6240234375,5.1513671875s-5.06591796875,5.0146484375-6.5419921875,7.6240234375c-1.47802734375,2.611328125-2.21533203125,5.392578125-2.21533203125,8.3447265625v39.46044921875c0,4.671875.119140625,8.001953125.36083984375,9.9931640625.23974609375,1.9931640625.703125,3.658203125,1.390625,4.9970703125.685546875,1.33984375,1.73388671875,2.439453125,3.142578125,3.296875,1.40673828125.8603515625,3.587890625,1.666015625,6.5419921875,2.4208984375v5.048828125H21.24267578125v-5.048828125c3.021484375-.82421875,5.18505859375-1.6123046875,6.49072265625-2.369140625,1.3037109375-.7548828125,2.31787109375-1.7158203125,3.03955078125-2.884765625.720703125-1.1669921875,1.251953125-2.849609375,1.5966796875-5.048828125.3427734375-2.197265625.51513671875-5.666015625.51513671875-10.4052734375V63.8251953125c0-6.59375-.05126953125-11.1943359375-.15478515625-13.8056640625-.1025390625-2.609375-.3779296875-4.82470703125-.82421875-6.64501953125-.447265625-1.8193359375-1.0654296875-3.24560546875-1.8544921875-4.27587890625-.7900390625-1.0302734375-1.8544921875-1.8544921875-3.193359375-2.47265625-1.33984375-.6181640625-3.7607421875-1.236328125-7.263671875-1.8544921875v-5.357421875l24.82958984375-1.0302734375h6.181640625v65.11376953125Z"/>
    </g>
  </a>
  <a xlink:href="https://www.notion.so/congruence/hypothesis-f8e01f142f324c2b8a2aaf7e4944f125?pvs=4">
    <path d="M182.123046875,192.0166015625v-2.8349609375c1.927734375-.3857421875,3.365234375-.810546875,4.310546875-1.2734375.943359375-.462890625,1.6484375-1.1083984375,2.111328125-1.9384765625.462890625-.8291015625.6953125-1.9384765625.6953125-3.3271484375,0-1.310546875-.15625-2.728515625-.462890625-4.2529296875-.310546875-1.5234375-.75390625-3.2294921875-1.33203125-5.1201171875l-2.140625-7.46484375h-26.962890625l-1.96875,5.6708984375c-1.00390625,2.85546875-1.658203125,5.0146484375-1.966796875,6.48046875-.30859375,1.466796875-.462890625,2.796875-.462890625,3.9921875,0,2.314453125.587890625,4.0126953125,1.765625,5.091796875,1.17578125,1.0810546875,2.978515625,1.7939453125,5.41015625,2.1416015625v2.8349609375h-24.70751953125v-2.8349609375c2.1591796875-.34765625,4.0400390625-1.6005859375,5.64111328125-3.76171875,1.599609375-2.1591796875,3.154296875-5.2451171875,4.658203125-9.2578125l24.12890625-64.0537109375h9.140625l19.673828125,64.5166015625c.92578125,3.0087890625,1.74609375,5.3046875,2.458984375,6.8857421875.712890625,1.58203125,1.572265625,2.81640625,2.576171875,3.703125,1.001953125.8876953125,2.37109375,1.5439453125,4.107421875,1.9677734375v2.8349609375h-26.673828125ZM159.90234375,160.7705078125h24.1875l-10.994140625-37.3212890625-13.193359375,37.3212890625Z"/>
  </a>
</svg>