<?xml version="1.0" encoding="UTF-8"?>
<svg id="Layer_1" xmlns="http://www.w3.org/2000/svg" width="280" height="280" xmlns:xlink="http://www.w3.org/1999/xlink" viewBox="0 0 280 280">
  <a xlink:href="https://www.notion.so/congruence/hypothesis-f8e01f142f324c2b8a2aaf7e4944f125?pvs=4">
    <g>
      <rect width="280" height="280" fill="none"/>
      <path d="M50.60546875,93.49755859375l.412109375.1025390625c5.357421875-5.4248046875,9.59765625-9.220703125,12.7236328125-11.384765625,3.125-2.1630859375,6.2158203125-3.7939453125,9.2724609375-4.8935546875,3.0556640625-1.09765625,6.3359375-1.6484375,9.8388671875-1.6484375,3.7763671875,0,7.142578125.447265625,10.0966796875,1.33984375,2.9521484375.892578125,5.5458984375,2.25,7.7783203125,4.0693359375,2.2314453125,1.8203125,4.052734375,4.0537109375,5.4609375,6.6962890625,1.4072265625,2.6455078125,2.455078125,5.8056640625,3.142578125,9.478515625.685546875,3.67578125,1.0302734375,8.3291015625,1.0302734375,13.9609375v38.84130859375c0,5.9755859375.2568359375,10.044921875.7724609375,12.208984375.5146484375,2.1630859375,1.4423828125,3.84765625,2.78125,5.0478515625,1.33984375,1.203125,4.0341796875,2.353515625,8.087890625,3.451171875v5.048828125h-40.5927734375v-5.048828125c2.6787109375-.82421875,4.6005859375-1.544921875,5.76953125-2.1630859375,1.1669921875-.6181640625,2.146484375-1.4765625,2.9365234375-2.5751953125.7890625-1.0986328125,1.4072265625-2.7978515625,1.8544921875-5.1005859375.4462890625-2.2998046875.669921875-5.78515625.669921875-10.45703125v-26.99365234375c0-9.1337890625-.4638671875-16.1240234375-1.3916015625-20.9658203125-.9267578125-4.8427734375-2.7470703125-8.46484375-5.4599609375-10.8701171875-2.7138671875-2.4033203125-6.5087890625-3.60546875-11.384765625-3.60546875-2.748046875,0-5.220703125.4814453125-7.41796875,1.4423828125-2.19921875.962890625-4.7392578125,2.6787109375-7.6240234375,5.1513671875s-5.0654296875,5.0146484375-6.5419921875,7.6240234375c-1.4775390625,2.611328125-2.21484375,5.392578125-2.21484375,8.3447265625v39.46044921875c0,4.671875.119140625,8.001953125.3603515625,9.9931640625.240234375,1.9931640625.703125,3.658203125,1.390625,4.9970703125.685546875,1.33984375,1.734375,2.439453125,3.142578125,3.296875,1.4072265625.8603515625,3.587890625,1.666015625,6.5419921875,2.4208984375v5.048828125H21.2421875v-5.048828125c3.021484375-.82421875,5.185546875-1.6123046875,6.4912109375-2.369140625,1.3037109375-.7548828125,2.3173828125-1.7158203125,3.0390625-2.884765625.720703125-1.1669921875,1.251953125-2.849609375,1.5966796875-5.048828125.3427734375-2.197265625.515625-5.666015625.515625-10.4052734375V63.8251953125c0-6.59375-.0517578125-11.1943359375-.1552734375-13.8056640625-.1025390625-2.609375-.3779296875-4.82470703125-.82421875-6.64501953125-.447265625-1.8193359375-1.0654296875-3.24560546875-1.8544921875-4.27587890625-.7900390625-1.0302734375-1.8544921875-1.8544921875-3.193359375-2.47265625-1.33984375-.6181640625-3.7607421875-1.236328125-7.263671875-1.8544921875v-5.357421875l24.830078125-1.0302734375h6.181640625v65.11376953125Z"/>
      <path d="M161.9775390625,132.95654296875v-3.5029296875c0-2.8154296875.1708984375-5.08203125.515625-6.7998046875.3427734375-1.7158203125.943359375-3.5546875,1.802734375-5.51171875.8583984375-1.9580078125,2.197265625-4.275390625,4.017578125-6.955078125,1.8193359375-2.677734375,4.4130859375-6.1123046875,7.779296875-10.302734375,3.982421875-5.08203125,6.8505859375-9.203125,8.6025390625-12.36328125,1.7509765625-3.158203125,3.0732421875-6.4384765625,3.9658203125-9.8388671875.892578125-3.3994140625,1.33984375-7.19384765625,1.33984375-11.38427734375,0-5.2880859375-.720703125-9.77001953125-2.1640625-13.44482421875-1.44140625-3.673828125-3.46875-6.439453125-6.078125-8.2939453125-2.611328125-1.8544921875-5.6328125-2.78173828125-9.06640625-2.78173828125-5.4267578125,0-9.771484375,1.61474609375-13.033203125,4.84228515625-3.2626953125,3.2294921875-5.51171875,8.07177734375-6.748046875,14.52685546875h-14.01171875v-16.896484375c7.830078125-3.982421875,14.4755859375-6.76416015625,19.935546875-8.34521484375,5.4609375-1.5791015625,10.833984375-2.36962890625,16.1240234375-2.36962890625,8.2421875,0,15.0576171875,1.236328125,20.451171875,3.708984375,5.390625,2.47265625,9.3056640625,5.8388671875,11.7451171875,10.0966796875,2.4365234375,4.259765625,3.6572265625,9.16943359375,3.6572265625,14.73291015625,0,2.8173828125-.2578125,5.4091796875-.7724609375,7.7783203125-.515625,2.3701171875-1.2880859375,4.6884765625-2.318359375,6.9541015625-1.0302734375,2.267578125-2.3359375,4.5849609375-3.9150390625,6.955078125-1.5810546875,2.369140625-3.3486328125,4.7568359375-5.3056640625,7.16015625-1.9580078125,2.4052734375-5.375,6.45703125-10.251953125,12.1572265625-3.640625,4.259765625-6.2841796875,7.67578125-7.9326171875,10.2509765625-1.6484375,2.576171875-2.8173828125,5.083984375-3.5029296875,7.521484375-.6875,2.4384765625-1.0302734375,5.615234375-1.0302734375,9.529296875v2.576171875h-13.8056640625ZM179.3896484375,151.9140625v23.90234375h-20.60546875v-23.90234375h20.60546875Z"/>
    </g>
  </a>
</svg>