<?xml version="1.0" encoding="UTF-8"?>
<svg id="Layer_1" xmlns="http://www.w3.org/2000/svg" width="280" height="280" viewBox="0 0 280 280">
  <rect width="280" height="280" fill="none"/>
  <path d="M91.9189453125,91.02490234375v.82421875c14.6298828125,8.654296875,21.9443359375,21.9443359375,21.9443359375,39.87109375,0,14.01220703125-4.2236328125,25.13916015625-12.671875,33.38134765625s-19.64453125,12.36328125-33.5869140625,12.36328125c-13.462890625,0-24.2119140625-4.2578125-32.248046875-12.775390625-8.0361328125-8.515625-12.0537109375-19.642578125-12.0537109375-33.38134765625,0-13.8056640625,2.9365234375-24.845703125,8.80859375-33.123046875,5.873046875-8.2763671875,13.2724609375-13.857421875,22.2021484375-16.7421875,8.927734375-2.884765625,19.9873046875-4.3271484375,33.1748046875-4.3271484375h41.5205078125v13.9091796875h-37.08984375ZM78.6279296875,91.43701171875c-24.041015625,0-36.0595703125,13.359375-36.0595703125,40.0771484375,0,12.02099609375,2.2314453125,21.32763671875,6.697265625,27.92138671875,4.4638671875,6.59375,10.6455078125,9.890625,18.544921875,9.890625,17.9267578125,0,26.8896484375-12.328125,26.8896484375-36.98779296875,0-16.896484375-5.357421875-30.5302734375-16.072265625-40.9013671875Z"/>
</svg>