<?xml version="1.0" encoding="UTF-8"?>
<svg id="Layer_1" xmlns="http://www.w3.org/2000/svg" width="280" height="280" viewBox="0 0 280 280">
  <path d="M63.905603590636019,112.835475398545896c21.710772113947314-2.088991362614252,43.550113080036681-2.157287910144078,65.333548362523288-1.489339797524735,10.907270198516926.334450946256766,21.807903236087441.850205543858465,32.707035842791811,1.38152740692567,10.801529579686758.526563812678432,21.620665978814941.920489778167394,32.4076145767649,1.699952413538995,12.321824114493211.89037241715414,24.606305657131088,2.039578705684107,36.805987436529904-.660717097980523,3.835119046771069-.848870983343659,6.441538227280034-5.507745608916593,5.238295660075892-9.225889843221012-1.30369193047045-4.028543177164465-5.116917783132521-6.14778167879922-9.225889843222831-5.238295660075892-1.554438149978523.34406166401277-3.117910092572856.623925394160324-4.694123781977396.847654987044734l1.99379709157256-.267907248351548c-10.175220084729517,1.362837144832156-20.418667476134942.235005999307759-30.596065938210813-.489162860170836-10.381492402584627-.738691085043683-20.792196496755423-1.122022095838474-31.186920827196445-1.629399890496643-21.044962476878936-1.027227496440901-42.109616229105086-2.012233047053087-63.185892812507518-1.757310073004192-11.88449778730137.143746050636764-23.76500723144818.690386626571126-35.597385767143351,1.828887663315982-2.033499871617096.195661565852788-3.812189401554861.705587683756676-5.303300858900911,2.196699141100908-1.300817085273593,1.300817085273593-2.280378464398382,3.435046911590689-2.196699141099089,5.303300858899092.167578633179801,3.741419392337775,3.317790938261169,7.902408470816226,7.5,7.5h0Z"/>
  <path d="M193.484691670792017,69.672790265945878c8.310500101326397,16.247620434560304,20.147167581084432,30.859120400842585,34.379145925549892,42.287186156203461l1.517907248351548-11.779330997505895c-11.607868120479907,6.87512241145123-23.754326079328166,14.186023244259559-32.321331533628836,24.833168923831181-2.634245148223272,3.273861794350523-5.025580911233192,6.674426729479819-6.880402162387327,10.452948685124284-.896996902967658,1.827304108091994-1.311423716371792,3.762474598968765-.75606261303983,5.779190702120104.479074757749913,1.739692918303263,1.824216171715307,3.625001307284037,3.446699141099089,4.482233047034242,3.377534294784709,1.784505387246099,8.415720088823946,1.069311660930907,10.261423749154346-2.690636528059258.911723127024743-1.857303419821619,1.937644235742482-3.652593274415267,3.087440451703515-5.37312581434162.57087249142387-.854242416187844,1.201470475212773-1.662262096682753,1.789896637148559-2.502961262598546-1.407022190101998,2.010247773063384-.338914145278977.449323619530333.021416658086309.011264700820902.244427422285298-.297153646895822.49209918060842-.591655647656808.742744564942768-.883584102988607,2.655885119707818-3.093328219849354,5.646063606789539-5.886835256162158,8.808471968797676-8.454986802982603.355491658883693-.288690247791237.715279653959442-.571832505822385,1.07286825639676-.857882743561277.606788623575994-.474297172999286.411372655558807-.324700204064357-.586247904049742.448790906806607.208328814695051-.159838944171497.417283048638637-.318856065854561.626862701828941-.477051365047373.840482961490125-.634511999558526,1.690853648828124-1.255887712459298,2.549154760572492-1.866066105882055,1.670050868957333-1.187262770850793,3.370479617095043-2.331362657423597,5.090102583042608-3.445464095135321,3.483837628275069-2.257092739095242,7.046594920146163-4.388649766517119,10.617749961427762-6.503777867927056,2.037298202827515-1.206653486040523,3.270035253906826-3.167479726091187,3.580652765278501-5.479131592819613.28835961049117-2.146005963875723-.258635917030915-4.851526378459312-2.062745516926952-6.300199404686282-6.833222849221784-5.486975749394333-13.089016450765484-11.672061435365322-18.635331365097954-18.458343430620516-.665174553399993-.813884924522426-1.299464666495624-1.653116807641709-1.964853705630958-2.46638816635641,1.515567653355902,1.85240166605945.208379113268165.26103220180994-.102408336106237-.153484786782428-.336295285929737-.448538412616472-.669586344500203-.899329292749826-.999840290722204-1.352334331306338-1.279724761052421-1.755381794384448-2.513674841222382-3.544050524067643-3.700341698993725-5.363628424653143-2.412306466098016-3.698914742928537-4.620084916370615-7.525882210920827-6.630911969583394-11.457192519781529-1.789968408389541-3.499515905754379-6.988937250882373-4.800451810117011-10.261423749152527-2.690636528059258-3.571072502778406,2.3023176241295-4.605177438381361,6.518359717139901-2.690636528061077,10.261423749154346h0Z"/>
</svg>