<?xml version="1.0" encoding="UTF-8"?>
<svg id="Layer_1" xmlns="http://www.w3.org/2000/svg" width="280" height="280" xmlns:xlink="http://www.w3.org/1999/xlink" viewBox="0 0 280 280">
  <a xlink:href="https://www.notion.so/congruence/Variance-c780d1bfa767424b9ea919e93cbce82e?pvs=4">
    <g>
      <rect width="280" height="280" fill="none"/>
      <path d="M91.9189453125,91.02490234375v.82421875c14.6298828125,8.654296875,21.94482421875,21.9443359375,21.94482421875,39.87109375,0,14.01220703125-4.22412109375,25.13916015625-12.67236328125,33.38134765625s-19.64453125,12.36328125-33.5869140625,12.36328125c-13.462890625,0-24.21142578125-4.2578125-32.24755859375-12.775390625-8.0361328125-8.515625-12.05419921875-19.642578125-12.05419921875-33.38134765625,0-13.8056640625,2.9365234375-24.845703125,8.80859375-33.123046875,5.873046875-8.2763671875,13.27294921875-13.857421875,22.20263671875-16.7421875,8.927734375-2.884765625,19.9873046875-4.3271484375,33.1748046875-4.3271484375h41.52001953125v13.9091796875h-37.08984375ZM78.62841796875,91.43701171875c-24.041015625,0-36.0595703125,13.359375-36.0595703125,40.0771484375,0,12.02099609375,2.23095703125,21.32763671875,6.69677734375,27.92138671875,4.4638671875,6.59375,10.6455078125,9.890625,18.544921875,9.890625,17.9267578125,0,26.89013671875-12.328125,26.89013671875-36.98779296875,0-16.896484375-5.357421875-30.5302734375-16.072265625-40.9013671875Z"/>
      <path d="M175.81103515625,95.94287109375c1.9609375,0,3.54296875-.1201171875,4.7451171875-.3603515625,1.201171875-.240234375,2.162109375-.640625,2.8828125-1.201171875s1.291015625-1.2919921875,1.7119140625-2.1923828125c.419921875-.9013671875.9501953125-2.2919921875,1.591796875-4.1748046875h5.10546875l-1.021484375,17.5390625h-49.43310546875v-2.8828125c1.72119140625-4.205078125,4.0439453125-8.5087890625,6.96728515625-12.9140625,2.9228515625-4.404296875,7.06689453125-9.58984375,12.43359375-15.556640625,4.64453125-5.12548828125,7.98828125-9.01025390625,10.03125-11.65283203125,2.2412109375-2.88330078125,3.9130859375-5.3759765625,5.0146484375-7.47802734375,1.1015625-2.1025390625,1.892578125-4.08447265625,2.373046875-5.94677734375.48046875-1.86181640625.720703125-3.7333984375.720703125-5.61572265625,0-3.00341796875-.48046875-5.65576171875-1.44140625-7.958984375-.9609375-2.30224609375-2.4326171875-4.1142578125-4.4150390625-5.435546875-1.982421875-1.32177734375-4.474609375-1.982421875-7.47802734375-1.982421875-7.48828125,0-12.53369140625,4.1650390625-15.13623046875,12.49365234375h-7.26806640625v-11.53271484375c4.8447265625-2.2822265625,9.37939453125-3.93408203125,13.60498046875-4.955078125,4.22412109375-1.02099609375,8.0185546875-1.53173828125,11.3818359375-1.53173828125,7.4482421875,0,13.07421875,1.63232421875,16.87890625,4.8955078125,3.8037109375,3.26416015625,5.7060546875,7.99853515625,5.7060546875,14.205078125,0,2.123046875-.2109375,4.0751953125-.630859375,5.8564453125-.4208984375,1.7822265625-1.0810546875,3.5439453125-1.982421875,5.28564453125-.900390625,1.74169921875-2.1123046875,3.6142578125-3.6337890625,5.6162109375-1.5224609375,2.0029296875-3.2041015625,4.03466796875-5.0458984375,6.0966796875-1.841796875,2.0625-5.025390625,5.49560546875-9.5498046875,10.30078125-7.6083984375,8.048828125-13.19482421875,15.076171875-16.75830078125,21.0830078125h22.64501953125Z"/>
    </g>
  </a>
</svg>