<?xml version="1.0" encoding="UTF-8"?>
<svg id="Layer_1" xmlns="http://www.w3.org/2000/svg" width="280" height="280" viewBox="0 0 280 280">
  <rect y="-.000000000000909" width="280" height="280.000000000004547" fill="none"/>
  <path d="M66.57421875,116.36865234375l13.3935546875-16.9990234375c1.4423828125-1.8544921875,2.609375-3.6572265625,3.5029296875-5.4091796875.8916015625-1.7509765625,1.3388671875-3.5546875,1.3388671875-5.408203125,0-1.580078125-.583984375-2.884765625-1.7509765625-3.916015625-1.1689453125-1.029296875-2.98828125-1.78515625-5.4609375-2.265625v-5.048828125h33.6904296875v5.048828125c-2.611328125.755859375-5.2724609375,2.232421875-7.984375,4.4296875-2.71484375,2.19921875-6.02734375,5.7353515625-9.9423828125,10.611328125l-21.3271484375,26.169921875,23.490234375,31.62939453125c3.3642578125,4.533203125,6.3876953125,8.001953125,9.06640625,10.40625s5.357421875,4.12109375,8.0361328125,5.150390625v5.048828125h-41.4169921875v-5.048828125c5.7001953125-.685546875,8.5517578125-2.8154296875,8.5517578125-6.38671875,0-1.443359375-.2421875-2.81640625-.7216796875-4.12109375-.4814453125-1.3046875-1.375-2.81640625-2.6787109375-4.533203125l-14.9384765625-20.81298828125-15.8662109375,20.60595703125c-1.1689453125,1.51171875-2.078125,2.9033203125-2.73046875,4.1728515625-.6533203125,1.2724609375-.978515625,2.6962890625-.978515625,4.2763671875,0,1.853515625.6337890625,3.3837890625,1.90625,4.583984375,1.26953125,1.203125,3.2783203125,1.94140625,6.0263671875,2.21484375v5.048828125H15.369140625v-5.048828125c2.2666015625-.82421875,4.3095703125-1.853515625,6.130859375-3.08984375,1.818359375-1.236328125,3.6728515625-2.833984375,5.5634765625-4.791015625,1.8876953125-1.9580078125,4.3779296875-4.8251953125,7.46875-8.603515625l21.4296875-26.58056640625-21.9443359375-30.083984375c-3.0234375-4.12109375-5.4267578125-7.109375-7.2119140625-8.9638671875-1.787109375-1.8544921875-3.435546875-3.26171875-4.9453125-4.2236328125-1.51171875-.9619140625-3.0234375-1.6484375-4.533203125-2.060546875v-5.048828125h40.38671875v5.048828125c-5.4267578125.82421875-8.1396484375,2.953125-8.1396484375,6.38671875,0,1.5810546875.361328125,3.16015625,1.08203125,4.740234375.7216796875,1.580078125,1.8369140625,3.33203125,3.3486328125,5.25390625l12.5693359375,17.6171875Z"/>
</svg>