<?xml version="1.0" encoding="UTF-8"?><svg id="uuid-b6daa604-c095-4221-9014-a8d71dfe9764" xmlns="http://www.w3.org/2000/svg" width="280" height="280" xmlns:xlink="http://www.w3.org/1999/xlink" viewBox="0 0 280 280"><defs><linearGradient id="uuid-05d96d36-4eac-4cc0-abbb-17715f11a744" x1="147.1002" y1="24.869" x2="131.2178" y2="293.4686" gradientUnits="userSpaceOnUse"><stop offset="0" stop-color="#6a70a0"/><stop offset=".5" stop-color="#52789c"/><stop offset=".7189" stop-color="#4f789b"/><stop offset=".8416" stop-color="#47799a"/><stop offset=".9402" stop-color="#397c99"/><stop offset="1" stop-color="#2d7f98"/></linearGradient></defs><path d="M140.1436,243.9873c-17.9683,0-35.7349-4.7744-51.3794-13.8066-23.811-13.7471-40.8433-35.9434-47.959-62.501-7.1162-26.5581-3.4644-54.2974,10.2827-78.1084,18.334-31.7554,52.5254-51.4824,89.231-51.4824,17.9683,0,35.7349,4.7739,51.3789,13.8062,23.811,13.7476,40.8433,35.9443,47.9595,62.502s3.4639,54.2964-10.2832,78.1079c-18.334,31.7549-52.5254,51.4824-89.2305,51.4824Z" fill="url(#uuid-05d96d36-4eac-4cc0-abbb-17715f11a744)" stroke-width="0"/><path d="M140.3193,46.5889c16.022-.0007,32.2558,4.0807,47.1285,12.6674,45.1668,26.0771,60.6421,83.8316,34.565,128.9984-17.4902,30.2941-49.2348,47.2325-81.8699,47.2325-16.0221,0-32.2558-4.0807-47.1286-12.6675-45.1667-26.077-60.6422-83.8316-34.565-128.9984,17.4903-30.2941,49.2349-47.2311,81.8699-47.2325M140.3231,29.5889v17l-.0012-17c-19.2267.0008-38.2363,4.9989-54.9772,14.4542-17.2657,9.7516-31.6569,24.0254-41.6178,41.2782-14.8825,25.7771-18.836,55.8071-11.1323,84.5578,7.7037,28.7508,26.1425,52.7807,51.9197,67.6631,16.9344,9.7771,36.1705,14.945,55.6286,14.945,19.2233,0,38.2333-4.9981,54.9746-14.4538,17.2656-9.7518,31.6567-24.0257,41.6176-41.2786,14.8825-25.7772,18.836-55.8071,11.1323-84.5578-7.7038-28.7507-26.1425-52.7806-51.9197-67.6631-16.9344-9.7771-36.1691-14.945-55.6247-14.945h0Z" stroke-width="0"/></svg>