<?xml version="1.0" encoding="UTF-8"?><svg id="uuid-81fce477-6ff3-4572-aa66-d70c3b2a515f" xmlns="http://www.w3.org/2000/svg" width="280" height="280" xmlns:xlink="http://www.w3.org/1999/xlink" viewBox="0 0 280 280"><defs><linearGradient id="uuid-a823e9e2-31aa-4426-8de0-f2a34764442f" x1="66.2846" y1="233.4541" x2="205.1124" y2="59.5688" gradientUnits="userSpaceOnUse"><stop offset="0" stop-color="#7d67a2"/><stop offset=".3852" stop-color="#895ea4"/><stop offset=".4893" stop-color="#8e5ba6"/><stop offset=".8419" stop-color="#9a5c9d"/><stop offset="1" stop-color="#a25d99"/></linearGradient></defs><path d="M140.0493,243.9971c-44.7148,0-84.0483-28.5938-97.8765-71.1504-8.4966-26.1489-6.3013-54.0415,6.1812-78.5391,12.4819-24.498,33.7573-42.6685,59.9062-51.165,10.3403-3.3599,21.0488-5.0635,31.8271-5.0635,44.7153,0,84.0483,28.5933,97.8765,71.1509,8.4966,26.1484,6.3013,54.0415-6.1812,78.5386-12.4819,24.498-33.7573,42.6689-59.9062,51.165-10.3403,3.3594-21.0483,5.0635-31.8271,5.0635Z" fill="url(#uuid-a823e9e2-31aa-4426-8de0-f2a34764442f)" stroke-width="0"/><path d="M140.0874,46.5791c39.8081-.0012,76.8257,25.3697,89.7925,65.2774,16.1165,49.6015-11.0284,102.8765-60.63,118.9931-9.6938,3.1497-19.531,4.6474-29.2007,4.6474-39.8082,0-76.8256-25.3697-89.7924-65.2774-16.1165-49.6015,11.0286-102.8765,60.63-118.9931,9.6938-3.1497,19.5309-4.6471,29.2006-4.6474M140.0902,29.5791v17l-.0006-17c-11.6754.0004-23.2672,1.8439-34.4561,5.4795-28.3081,9.1979-51.3401,28.869-64.853,55.3897-13.5129,26.5208-15.8894,56.7164-6.6917,85.0245,7.418,22.8303,21.6345,42.2572,41.1125,56.1807,19.0759,13.6359,41.4998,20.8434,64.8478,20.8434,11.6719,0,23.2639-1.8435,34.454-5.4795,28.3081-9.1979,51.3401-28.869,64.853-55.3897,13.5131-26.5208,15.8895-56.7164,6.6917-85.0245-7.4177-22.8291-21.6339-42.2557-41.1118-56.1796-19.0759-13.6366-41.4993-20.8445-64.8458-20.8445h0Z" stroke-width="0"/></svg>