<?xml version="1.0" encoding="UTF-8"?><svg id="uuid-77c90006-7c60-48f7-94be-62865baf9c0f" xmlns="http://www.w3.org/2000/svg" width="280" height="280" xmlns:xlink="http://www.w3.org/1999/xlink" viewBox="0 0 280 280"><defs><linearGradient id="uuid-3f760275-d7b5-4ec7-a6e4-5461564dfadd" x1="140" y1="38.1045" x2="140" y2="243.9717" gradientUnits="userSpaceOnUse"><stop offset="0" stop-color="#008c8d"/><stop offset="1" stop-color="#f1666a"/></linearGradient></defs><circle cx="140" cy="141.0381" r="102.9336" fill="url(#uuid-3f760275-d7b5-4ec7-a6e4-5461564dfadd)" stroke-width="0"/><path d="M140,46.6046c52.1543,0,94.4336,42.2793,94.4336,94.4334s-42.2793,94.4334-94.4336,94.4334-94.4336-42.2793-94.4336-94.4334,42.2793-94.4334,94.4336-94.4334M140,29.6046c-29.7651,0-57.7485,11.5911-78.7954,32.6381-21.0469,21.047-32.6382,49.0304-32.6382,78.7953s11.5913,57.7483,32.6382,78.7953,49.0303,32.6381,78.7954,32.6381,57.7485-11.5911,78.7954-32.6381,32.6382-49.0304,32.6382-78.7953-11.5913-57.7483-32.6382-78.7953c-21.0469-21.047-49.0303-32.6381-78.7954-32.6381h0Z" stroke-width="0"/></svg>