<?xml version="1.0" encoding="UTF-8"?><svg id="uuid-85f74cde-fe44-4067-b188-f24542ce90eb" xmlns="http://www.w3.org/2000/svg" width="280" height="280" xmlns:xlink="http://www.w3.org/1999/xlink" viewBox="0 0 280 280"><defs><linearGradient id="uuid-63592272-1953-4f61-a718-eb2fe7b0c8f6" x1="-9268.9806" y1="-2434.968" x2="-9268.9806" y2="-2229.1008" gradientTransform="translate(-2192.0187 9410.0187) rotate(90)" gradientUnits="userSpaceOnUse"><stop offset="0" stop-color="#91a23d"/><stop offset="1" stop-color="#8e5ba6"/></linearGradient></defs><circle cx="140.0156" cy="141.0381" r="102.9336" fill="url(#uuid-63592272-1953-4f61-a718-eb2fe7b0c8f6)" stroke-width="0"/><path d="M140.0156,46.6046c52.1543,0,94.4336,42.2793,94.4336,94.4334s-42.2793,94.4334-94.4336,94.4334-94.4336-42.2793-94.4336-94.4334,42.2793-94.4334,94.4336-94.4334M140.0156,29.6046c-29.7651,0-57.7485,11.5911-78.7954,32.6381-21.0469,21.047-32.6382,49.0304-32.6382,78.7953s11.5913,57.7483,32.6382,78.7953,49.0303,32.6381,78.7954,32.6381,57.7485-11.5911,78.7954-32.6381,32.6382-49.0304,32.6382-78.7953-11.5913-57.7483-32.6382-78.7953c-21.0469-21.047-49.0303-32.6381-78.7954-32.6381h0Z" stroke-width="0"/></svg>