<?xml version="1.0" encoding="UTF-8"?><svg id="uuid-b6828494-d452-4828-a1fd-9b43daf6f6f5" xmlns="http://www.w3.org/2000/svg" width="280" height="280" xmlns:xlink="http://www.w3.org/1999/xlink" viewBox="0 0 280 280"><defs><linearGradient id="uuid-bf8f70f1-0639-4587-bff7-33cf8e08537b" x1="32.955" y1="253.089" x2="215.0577" y2="62.5815" gradientUnits="userSpaceOnUse"><stop offset="0" stop-color="#2d7f98"/><stop offset="1" stop-color="#1f9276"/></linearGradient></defs><circle cx="140.0625" cy="141.0381" r="102.9336" fill="url(#uuid-bf8f70f1-0639-4587-bff7-33cf8e08537b)" stroke-width="0"/><path d="M140.0625,46.6046c52.1543,0,94.4336,42.2793,94.4336,94.4334s-42.2793,94.4334-94.4336,94.4334-94.4331-42.2793-94.4331-94.4334,42.2793-94.4334,94.4331-94.4334M140.0625,29.6046c-29.7646,0-57.748,11.5911-78.7949,32.6381-21.0474,21.0471-32.6382,49.0304-32.6382,78.7953s11.5908,57.7483,32.6382,78.7953c21.0469,21.047,49.0303,32.6381,78.7949,32.6381s57.7485-11.5911,78.7954-32.6381,32.6382-49.0304,32.6382-78.7953-11.5913-57.7483-32.6382-78.7953c-21.0469-21.047-49.0303-32.6381-78.7954-32.6381h0Z" stroke-width="0"/></svg>