<?xml version="1.0" encoding="UTF-8"?><svg id="uuid-a7674ac7-f817-443d-bc88-695ba64173de" xmlns="http://www.w3.org/2000/svg" width="280" height="280" xmlns:xlink="http://www.w3.org/1999/xlink" viewBox="0 0 280 280"><defs><linearGradient id="uuid-4950ff90-2c90-4f5e-b47f-04db02f3db04" x1="83.4876" y1="245.5102" x2="195.8852" y2="38.5725" gradientUnits="userSpaceOnUse"><stop offset="0" stop-color="#2d7f98"/><stop offset=".5" stop-color="#008693"/><stop offset="1" stop-color="#008c8d"/></linearGradient></defs><path d="M140.3188,243.9873c-36.7056,0-70.897-19.7275-89.2305-51.4824-13.7471-23.8115-17.3994-51.5503-10.2832-78.1079s24.1484-48.7544,47.9595-62.502c15.644-9.0322,33.4106-13.8062,51.3784-13.8062,36.7061,0,70.8975,19.7271,89.2314,51.4824,13.7471,23.811,17.3989,51.5503,10.2827,78.1084-7.1162,26.5576-24.1484,48.7539-47.9595,62.501-15.644,9.0322-33.4106,13.8066-51.3789,13.8066Z" fill="url(#uuid-4950ff90-2c90-4f5e-b47f-04db02f3db04)" stroke-width="0"/><path d="M140.1431,46.5889c32.6382-.0018,64.378,16.9356,81.8699,47.2325,26.0771,45.1668,10.6018,102.9214-34.565,128.9984-14.87,8.5852-31.1094,12.6675-47.1285,12.6675-32.6382,0-64.378-16.9357-81.8699-47.2325-26.0771-45.1668-10.6018-102.9214,34.565-128.9984,14.87-8.5852,31.1094-12.6666,47.1285-12.6674M140.1482,29.5889v17l-.0014-17c-19.4639.0011-38.6996,5.1689-55.6322,14.945-25.7772,14.8825-44.2159,38.9124-51.9197,67.6631-7.7037,28.7507-3.7502,58.7806,11.1323,84.5578,9.9618,17.2543,24.3527,31.5286,41.6171,41.2796,16.7403,9.4551,35.7504,14.4528,54.9753,14.4528,19.4581,0,38.6941-5.1679,55.6285-14.945,25.7772-14.8824,44.2159-38.9123,51.9197-67.6631,7.7037-28.7507,3.7502-58.7806-11.1323-84.5578-9.9613-17.2535-24.3513-31.5274-41.6143-41.2786-16.7399-9.4557-35.7493-14.4538-54.9729-14.4538h0Z" stroke-width="0"/></svg>