<?xml version="1.0" encoding="UTF-8"?><svg id="uuid-e589ae36-53df-4cc1-968d-987df04a7651" xmlns="http://www.w3.org/2000/svg" width="280" height="280" xmlns:xlink="http://www.w3.org/1999/xlink" viewBox="0 0 280 280"><defs><linearGradient id="uuid-e4f242be-8564-4906-b827-2927628a37aa" x1="90.064" y1="210.2048" x2="186.3721" y2="77.4748" gradientUnits="userSpaceOnUse"><stop offset="0" stop-color="#4b9669"/><stop offset=".2551" stop-color="#5b9860"/><stop offset=".5043" stop-color="#679a5a"/><stop offset=".7387" stop-color="#699a58"/><stop offset=".8934" stop-color="#729c52"/><stop offset="1" stop-color="#7e9e4c"/></linearGradient></defs><circle cx="140.251" cy="141.0381" r="102.9336" fill="url(#uuid-e4f242be-8564-4906-b827-2927628a37aa)" stroke-width="0"/><path d="M140.2509,46.6046c52.1498,0,94.4333,42.2824,94.4333,94.4333.0001,52.1541-42.2792,94.4335-94.4333,94.4335-.0032,0,.0031,0-.0001,0-52.1497,0-94.4332-42.2824-94.4333-94.4333,0-52.1541,42.2793-94.4335,94.4333-94.4335.0032,0-.0031,0,.0001,0M140.2509,29.6046c-.0006,0,.0005,0-.0001,0-29.7649,0-57.7483,11.5911-78.7953,32.6381-21.047,21.047-32.6381,49.0304-32.6381,78.7953.0001,29.7633,11.5918,57.7463,32.6398,78.7941,21.048,21.0477,49.0308,32.6392,78.7936,32.6392s57.7484-11.5911,78.7954-32.6381c21.047-21.047,32.6381-49.0304,32.6381-78.7954s-11.5917-57.7462-32.6398-78.7941c-21.0479-21.0477-49.0306-32.6392-78.7936-32.6392h0Z" stroke-width="0"/></svg>