<?xml version="1.0" encoding="UTF-8"?>
<svg id="Pattern" xmlns="http://www.w3.org/2000/svg" xmlns:xlink="http://www.w3.org/1999/xlink" viewBox="0 0 280 280">
  <defs>
    <linearGradient id="C4-3" data-name="C4" x1="62.91056873224079" y1="279.470014458831429" x2="222.361741300565797" y2="92.645250033304848" gradientUnits="userSpaceOnUse">
      <stop offset="0" stop-color="#7e9e4c"/>
      <stop offset=".487868088942308" stop-color="#91a23d"/>
      <stop offset=".713373248351595" stop-color="#9d9c43"/>
      <stop offset="1" stop-color="#b4924e"/>
    </linearGradient>
  </defs>
  <a xlink:href="https://www.notion.so/dmmnotes/C4-e79a94b0498c4e109a681b7f3dcdb088?pvs=4#0d316056d3b34c31a30288010404af14">
    <g id="C4">
      <g id="C4-2" data-name="C4">
        <path d="M137.2744140625,259.388671875c-36.970703125,0-67.048828125-30.078125-67.048828125-67.048828125s30.078125-67.048828125,67.048828125-67.048828125,67.048828125,30.078125,67.048828125,67.048828125-30.078125,67.048828125-67.048828125,67.048828125Z" fill="url(#C4-3)" stroke-width="0"/>
        <path d="M137.2744140625,133.791000366210938c32.3330078125,0,58.548828125,26.21502685546875,58.548828125,58.548660278320312,0,32.335556030273438-26.213134765619543,58.548721313476562-58.548583984369543,58.548782348632812-.001953125,0,.001953125,0-.000244140630457,0-32.332763671869543,0-58.548583984369543-26.215087890625-58.548583984369543-58.548660278320312,0-32.335556030273438,26.213134765619543-58.548721313476562,58.548583984369543-58.548782348632812.001953125,0-.001953125,0,0,0M137.2744140625,116.791000366210938h0c-41.65771484375.000053405761719-75.548583984369543,33.89111328125-75.548583984369543,75.548782348632812,0,41.65765380859375,33.890869140619543,75.548675537109375,75.548583984369543,75.548675537109375,41.65771484375-.00006103515625,75.548828125-33.891128540039062,75.548828125-75.548797607421875,0-41.65765380859375-33.89111328125-75.548660278320312-75.548828125-75.548660278320312h0Z" fill="#000" stroke-width="0"/>
      </g>
      <a xlink:href="https://www.notion.so/dmmnotes/C4-e79a94b0498c4e109a681b7f3dcdb088?pvs=4#0d316056d3b34c31a30288010404af14">
        <g>
          <g>
            <path d="M120.17578125,87.92919921875c.1025390625-3.0341796875-.392578125-5.310546875-1.4921875-6.8291015625-1.0986328125-1.5166015625-2.4873046875-2.4580078125-4.16015625-2.826171875-1.67578125-.365234375-3.48046875-.181640625-5.416015625.5498046875-1.9384765625.7333984375-3.689453125,1.7802734375-5.259765625,3.1396484375-3.6650390625,3.1396484375-6.62109375,7.1435546875-8.87109375,12.0107421875-2.251953125,4.8662109375-3.767578125,9.96875-4.552734375,15.3076171875-.78515625,5.337890625-.8388671875,10.6513671875-.15625,15.935546875.6787109375,5.2861328125,2.169921875,9.8662109375,4.474609375,13.7373046875,1.4638671875,2.51171875,3.2177734375,4.37109375,5.2587890625,5.5732421875,2.041015625,1.2041015625,4.2119140625,1.8837890625,6.515625,2.041015625,2.30078125.1572265625,4.5771484375-.208984375,6.8291015625-1.0986328125,2.25-.888671875,4.263671875-2.22265625,6.044921875-4.00390625,2.720703125-2.720703125,4.91796875-4.65625,6.59375-5.80859375,1.673828125-1.1513671875,3.556640625-1.779296875,5.65234375-1.884765625,5.9658203125,0,9.916015625,1.67578125,11.853515625,5.0244140625,1.935546875,3.3505859375,2.0654296875,7.4326171875.392578125,12.24658203125-1.361328125,3.767578125-3.4296875,7.064453125-6.201171875,9.890625-2.775390625,2.826171875-5.994140625,5.1025390625-9.65625,6.830078125-3.6650390625,1.7265625-7.58984375,2.9306640625-11.775390625,3.6103515625-4.1875.6796875-8.3203125.8642578125-12.40234375.5498046875s-7.955078125-1.177734375-11.6181640625-2.5908203125c-3.6650390625-1.4130859375-6.8056640625-3.3212890625-9.419921875-5.73046875-2.931640625-2.720703125-5.4951171875-5.8330078125-7.6923828125-9.3408203125-2.19921875-3.505859375-4.03125-7.22314453125-5.49609375-11.14794921875-1.466796875-3.9248046875-2.5654296875-8.0068359375-3.296875-12.24609375-.7333984375-4.2392578125-1.0986328125-8.501953125-1.0986328125-12.794921875.2080078125-9.62890625,2.2490234375-18.943359375,6.123046875-27.9462890625,3.87109375-9.0009765625,9.0009765625-16.8505859375,15.3857421875-23.5498046875,2.9296875-3.03515625,6.41015625-5.625,10.4404296875-7.771484375,4.0283203125-2.14453125,8.1640625-3.533203125,12.4033203125-4.1611328125,4.23828125-.6279296875,8.3994140625-.4169921875,12.4814453125.6279296875,4.08203125,1.0478515625,7.6923828125,3.24609375,10.8330078125,6.5947265625,2.40625,2.51171875,4.341796875,5.3916015625,5.80859375,8.634765625,1.46484375,3.2451171875,2.564453125,6.4912109375,3.296875,9.7333984375.41796875,2.095703125.6015625,4.08203125.5498046875,5.966796875-.0537109375,1.8837890625-.498046875,3.6650390625-1.3349609375,5.337890625-1.15234375,2.0947265625-2.9306640625,3.5859375-5.337890625,4.474609375-2.408203125.890625-4.7880859375,1.1767578125-7.142578125.86328125-2.35546875-.314453125-4.396484375-1.2294921875-6.123046875-2.748046875-1.7275390625-1.515625-2.5390625-3.583984375-2.43359375-6.201171875Z" fill="none" stroke="#000" stroke-linecap="round" stroke-linejoin="round" stroke-width="33"/>
            <path d="M226.93359375,165.48828125c-.2109375,1.15234375-.5771484375,2.251953125-1.099609375,3.296875-.525390625.8388671875-1.310546875,1.6240234375-2.35546875,2.3544921875-1.046875.7333984375-2.4599609375,1.2021484375-4.23828125,1.4130859375-1.78125.208984375-3.638671875.3388671875-5.57421875.392578125-1.9375.0517578125-3.7421875-.1328125-5.416015625-.5498046875-1.67578125-.4189453125-3.140625-1.1767578125-4.396484375-2.2763671875-1.255859375-1.0986328125-2.041015625-2.7470703125-2.3544921875-4.9453125-.2109375-1.150390625-.3134765625-3.505859375-.3134765625-7.0654296875,0-3.556640625.05078125-7.9521484375.15625-13.18798828125-7.2216796875,0-14.470703125-.1298828125-21.744140625-.392578125-7.275390625-.259765625-14.6796875-.4951171875-22.2158203125-.7060546875-.3134765625.10546875-.681640625,0-1.0986328125-.314453125-.314453125-.208984375-.6279296875-.6796875-.94140625-1.4130859375-.314453125-.73046875-.5771484375-1.830078125-.78515625-3.296875-.10546875-.7314453125-.263671875-1.908203125-.4716796875-3.5322265625-.2109375-1.6220703125-.392578125-3.3486328125-.5498046875-5.181640625-.15625-1.830078125-.234375-3.556640625-.234375-5.1806640625,0-1.62109375.259765625-2.8505859375.7841796875-3.689453125.4169921875-.7314453125,1.46484375-2.013671875,3.1396484375-3.8466796875,1.673828125-1.830078125,3.71484375-4.1064453125,6.123046875-6.8291015625,6.0693359375-6.5947265625,12.03515625-13.345703125,17.8984375-20.2529296875,5.8603515625-6.908203125,11.669921875-14.287109375,17.4267578125-22.1376953125,1.0458984375-1.4638671875,2.0146484375-2.58984375,2.9052734375-3.375.8876953125-.78515625,2.484375-1.2802734375,4.7880859375-1.4912109375,2.1982421875-.208984375,4.9453125-.4443359375,8.2421875-.70703125,3.2978515625-.259765625,6.0966796875-.078125,8.3994140625.5498046875.5234375.3134765625,1.021484375.7060546875,1.4921875,1.177734375.470703125.470703125.7578125,1.07421875.86328125,1.8046875.4169921875,2.6181640625.65234375,5.078125.7060546875,7.37890625.0517578125,2.3037109375.1298828125,4.501953125.2353515625,6.5947265625l.62890625,85.40869140625ZM188.7822265625,119.64306640625c2.1982421875-.1025390625,4.3955078125-.181640625,6.59375-.2353515625,2.1982421875-.0517578125,4.3955078125-.078125,6.5947265625-.078125,0-2.826171875.05078125-5.65234375.15625-8.478515625.103515625-2.826171875.259765625-5.7548828125.470703125-8.7919921875-2.197265625,3.037109375-4.44921875,5.9931640625-6.75,8.87109375-2.3046875,2.8798828125-4.6591796875,5.7841796875-7.0654296875,8.712890625Z" fill="none" stroke="#000" stroke-linecap="round" stroke-linejoin="round" stroke-width="33"/>
          </g>
          <g>
            <path d="M120.17578125,87.92919921875c.1025390625-3.0341796875-.392578125-5.310546875-1.4921875-6.8291015625-1.0986328125-1.5166015625-2.4873046875-2.4580078125-4.16015625-2.826171875-1.67578125-.365234375-3.48046875-.181640625-5.416015625.5498046875-1.9384765625.7333984375-3.689453125,1.7802734375-5.259765625,3.1396484375-3.6650390625,3.1396484375-6.62109375,7.1435546875-8.87109375,12.0107421875-2.251953125,4.8662109375-3.767578125,9.96875-4.552734375,15.3076171875-.78515625,5.337890625-.8388671875,10.6513671875-.15625,15.935546875.6787109375,5.2861328125,2.169921875,9.8662109375,4.474609375,13.7373046875,1.4638671875,2.51171875,3.2177734375,4.37109375,5.2587890625,5.5732421875,2.041015625,1.2041015625,4.2119140625,1.8837890625,6.515625,2.041015625,2.30078125.1572265625,4.5771484375-.208984375,6.8291015625-1.0986328125,2.25-.888671875,4.263671875-2.22265625,6.044921875-4.00390625,2.720703125-2.720703125,4.91796875-4.65625,6.59375-5.80859375,1.673828125-1.1513671875,3.556640625-1.779296875,5.65234375-1.884765625,5.9658203125,0,9.916015625,1.67578125,11.853515625,5.0244140625,1.935546875,3.3505859375,2.0654296875,7.4326171875.392578125,12.24658203125-1.361328125,3.767578125-3.4296875,7.064453125-6.201171875,9.890625-2.775390625,2.826171875-5.994140625,5.1025390625-9.65625,6.830078125-3.6650390625,1.7265625-7.58984375,2.9306640625-11.775390625,3.6103515625-4.1875.6796875-8.3203125.8642578125-12.40234375.5498046875s-7.955078125-1.177734375-11.6181640625-2.5908203125c-3.6650390625-1.4130859375-6.8056640625-3.3212890625-9.419921875-5.73046875-2.931640625-2.720703125-5.4951171875-5.8330078125-7.6923828125-9.3408203125-2.19921875-3.505859375-4.03125-7.22314453125-5.49609375-11.14794921875-1.466796875-3.9248046875-2.5654296875-8.0068359375-3.296875-12.24609375-.7333984375-4.2392578125-1.0986328125-8.501953125-1.0986328125-12.794921875.2080078125-9.62890625,2.2490234375-18.943359375,6.123046875-27.9462890625,3.87109375-9.0009765625,9.0009765625-16.8505859375,15.3857421875-23.5498046875,2.9296875-3.03515625,6.41015625-5.625,10.4404296875-7.771484375,4.0283203125-2.14453125,8.1640625-3.533203125,12.4033203125-4.1611328125,4.23828125-.6279296875,8.3994140625-.4169921875,12.4814453125.6279296875,4.08203125,1.0478515625,7.6923828125,3.24609375,10.8330078125,6.5947265625,2.40625,2.51171875,4.341796875,5.3916015625,5.80859375,8.634765625,1.46484375,3.2451171875,2.564453125,6.4912109375,3.296875,9.7333984375.41796875,2.095703125.6015625,4.08203125.5498046875,5.966796875-.0537109375,1.8837890625-.498046875,3.6650390625-1.3349609375,5.337890625-1.15234375,2.0947265625-2.9306640625,3.5859375-5.337890625,4.474609375-2.408203125.890625-4.7880859375,1.1767578125-7.142578125.86328125-2.35546875-.314453125-4.396484375-1.2294921875-6.123046875-2.748046875-1.7275390625-1.515625-2.5390625-3.583984375-2.43359375-6.201171875Z" fill="#fff" stroke-width="0"/>
            <path d="M226.93359375,165.48828125c-.2109375,1.15234375-.5771484375,2.251953125-1.099609375,3.296875-.525390625.8388671875-1.310546875,1.6240234375-2.35546875,2.3544921875-1.046875.7333984375-2.4599609375,1.2021484375-4.23828125,1.4130859375-1.78125.208984375-3.638671875.3388671875-5.57421875.392578125-1.9375.0517578125-3.7421875-.1328125-5.416015625-.5498046875-1.67578125-.4189453125-3.140625-1.1767578125-4.396484375-2.2763671875-1.255859375-1.0986328125-2.041015625-2.7470703125-2.3544921875-4.9453125-.2109375-1.150390625-.3134765625-3.505859375-.3134765625-7.0654296875,0-3.556640625.05078125-7.9521484375.15625-13.18798828125-7.2216796875,0-14.470703125-.1298828125-21.744140625-.392578125-7.275390625-.259765625-14.6796875-.4951171875-22.2158203125-.7060546875-.3134765625.10546875-.681640625,0-1.0986328125-.314453125-.314453125-.208984375-.6279296875-.6796875-.94140625-1.4130859375-.314453125-.73046875-.5771484375-1.830078125-.78515625-3.296875-.10546875-.7314453125-.263671875-1.908203125-.4716796875-3.5322265625-.2109375-1.6220703125-.392578125-3.3486328125-.5498046875-5.181640625-.15625-1.830078125-.234375-3.556640625-.234375-5.1806640625,0-1.62109375.259765625-2.8505859375.7841796875-3.689453125.4169921875-.7314453125,1.46484375-2.013671875,3.1396484375-3.8466796875,1.673828125-1.830078125,3.71484375-4.1064453125,6.123046875-6.8291015625,6.0693359375-6.5947265625,12.03515625-13.345703125,17.8984375-20.2529296875,5.8603515625-6.908203125,11.669921875-14.287109375,17.4267578125-22.1376953125,1.0458984375-1.4638671875,2.0146484375-2.58984375,2.9052734375-3.375.8876953125-.78515625,2.484375-1.2802734375,4.7880859375-1.4912109375,2.1982421875-.208984375,4.9453125-.4443359375,8.2421875-.70703125,3.2978515625-.259765625,6.0966796875-.078125,8.3994140625.5498046875.5234375.3134765625,1.021484375.7060546875,1.4921875,1.177734375.470703125.470703125.7578125,1.07421875.86328125,1.8046875.4169921875,2.6181640625.65234375,5.078125.7060546875,7.37890625.0517578125,2.3037109375.1298828125,4.501953125.2353515625,6.5947265625l.62890625,85.40869140625ZM188.7822265625,119.64306640625c2.1982421875-.1025390625,4.3955078125-.181640625,6.59375-.2353515625,2.1982421875-.0517578125,4.3955078125-.078125,6.5947265625-.078125,0-2.826171875.05078125-5.65234375.15625-8.478515625.103515625-2.826171875.259765625-5.7548828125.470703125-8.7919921875-2.197265625,3.037109375-4.44921875,5.9931640625-6.75,8.87109375-2.3046875,2.8798828125-4.6591796875,5.7841796875-7.0654296875,8.712890625Z" fill="#fff" stroke-width="0"/>
          </g>
        </g>
      </a>
    </g>
  </a>
</svg>