<?xml version="1.0" encoding="UTF-8"?><svg id="uuid-4ff5b953-a495-40cf-b3fc-3655f17800ee" xmlns="http://www.w3.org/2000/svg" width="280" height="280" xmlns:xlink="http://www.w3.org/1999/xlink" viewBox="0 0 280 280"><defs><linearGradient id="uuid-bdcf134c-c3eb-4431-86dc-93f9a8e734ce" x1="33.2394" y1="300.9503" x2="243.3701" y2="-13.1951" gradientUnits="userSpaceOnUse"><stop offset="0" stop-color="#91a23d"/><stop offset=".0356" stop-color="#979f40"/><stop offset=".159" stop-color="#a79747"/><stop offset=".2975" stop-color="#b0934c"/><stop offset=".4808" stop-color="#b4924e"/><stop offset=".7483" stop-color="#b7904f"/><stop offset=".9565" stop-color="#c08b55"/><stop offset="1" stop-color="#c48a57"/></linearGradient></defs><path d="M140.2041,243.9717c-56.7578,0-102.9336-46.1758-102.9336-102.9336s46.1758-102.9336,102.9336-102.9336,102.9326,46.1758,102.9336,102.9336c0,56.7578-46.1758,102.9336-102.9336,102.9336Z" fill="url(#uuid-bdcf134c-c3eb-4431-86dc-93f9a8e734ce)" stroke-width="0"/><path d="M140.2041,46.6046c52.1494,0,94.4331,42.2824,94.4331,94.4333s-42.2793,94.4335-94.4333,94.4335c-.0032,0,.0032,0,0,0-52.1497,0-94.4333-42.2824-94.4333-94.4333-.0002-52.1541,42.2791-94.4335,94.4333-94.4335.0032,0-.0029,0,.0002,0M140.2041,29.6046c-.0007,0,.0002,0-.0002,0-29.7649,0-57.7485,11.5911-78.7954,32.6381-21.0471,21.047-32.6382,49.0304-32.6379,78.7954,0,29.7632,11.5916,57.7462,32.6396,78.7941,21.0479,21.0477,49.0308,32.6392,78.7937,32.6392s57.7483-11.5911,78.7952-32.6381c21.0471-21.047,32.6382-49.0304,32.6382-78.7953s-11.5916-57.7463-32.6396-78.7941c-21.0479-21.0477-49.0308-32.6392-78.7935-32.6392h0Z" stroke-width="0"/></svg>