<?xml version="1.0" encoding="UTF-8"?><svg id="uuid-e254df3d-23ed-4223-8957-10ecf0ade5ab" xmlns="http://www.w3.org/2000/svg" width="280" height="280" xmlns:xlink="http://www.w3.org/1999/xlink" viewBox="0 0 280 280"><defs><linearGradient id="uuid-56b89d2d-82e5-4cfa-8a9f-ab80d7afc4a8" x1="228.8314" y1="30.6969" x2="80.3453" y2="215.6041" gradientUnits="userSpaceOnUse"><stop offset="0" stop-color="#b4924e"/><stop offset=".2496" stop-color="#bf8c54"/><stop offset=".5" stop-color="#c48a57"/><stop offset=".7702" stop-color="#c68858"/><stop offset=".9604" stop-color="#d0815d"/><stop offset="1" stop-color="#d3805f"/></linearGradient></defs><path d="M140.1885,243.9717c-56.7578,0-102.9336-46.1758-102.9336-102.9336s46.1758-102.9336,102.9336-102.9336,102.9326,46.1758,102.9326,102.9336c.001,27.4941-10.7061,53.3438-30.1475,72.7852s-45.29,30.1484-72.7852,30.1484Z" fill="url(#uuid-56b89d2d-82e5-4cfa-8a9f-ab80d7afc4a8)" stroke-width="0"/><path d="M140.1882,46.6046c52.1497,0,94.4333,42.2824,94.4333,94.4333s-42.2793,94.4335-94.4333,94.4335c-.0032,0,.0032,0,0,0-52.1497,0-94.4336-42.2824-94.4336-94.4333s42.2793-94.4335,94.4333-94.4335c.0032,0-.0032,0,.0002,0M140.1882,29.6046c-.0007,0,.0002,0-.0002,0-29.7649,0-57.7483,11.5911-78.7952,32.6381-21.0471,21.047-32.6382,49.0304-32.6382,78.7953s11.5918,57.7463,32.6399,78.7941c21.0479,21.0477,49.0308,32.6392,78.7937,32.6392s57.7483-11.5911,78.7952-32.6381c21.0471-21.047,32.6382-49.0304,32.6382-78.7953s-11.5916-57.7463-32.6399-78.7941c-21.0479-21.0477-49.0305-32.6392-78.7935-32.6392h0Z" stroke-width="0"/></svg>