<?xml version="1.0" encoding="UTF-8"?><svg id="uuid-c6ce391d-eb75-403e-a07d-4381ccf64c0b" xmlns="http://www.w3.org/2000/svg" width="280" height="280" xmlns:xlink="http://www.w3.org/1999/xlink" viewBox="0 0 280 280"><defs><linearGradient id="uuid-243fd775-c862-4764-b189-604af745b35e" x1="235.6614" y1="10.1522" x2="73.1641" y2="232.8857" gradientTransform="translate(64.6431 -42.9058) rotate(22.5001)" gradientUnits="userSpaceOnUse"><stop offset="0" stop-color="#c48a57"/><stop offset=".515" stop-color="#d3805f"/><stop offset=".7999" stop-color="#d97a61"/><stop offset="1" stop-color="#e17465"/></linearGradient></defs><circle cx="140.1724" cy="141.0381" r="102.933" transform="translate(-43.303 64.3777) rotate(-22.5001)" fill="url(#uuid-243fd775-c862-4764-b189-604af745b35e)" stroke-width="0"/><path d="M140.1726,46.6046c52.1497,0,94.4331,42.2823,94.4333,94.4333,0,52.1542-42.2793,94.4335-94.4333,94.4335-.0032,0,.0032,0,0,0-52.1501,0-94.4336-42.2823-94.4336-94.4333s42.2793-94.4335,94.4333-94.4335c.0032,0-.0032,0,.0002,0M140.1726,29.6046c-.0007,0,.0002,0-.0002,0-29.7649,0-57.7483,11.5912-78.7952,32.6382-21.0471,21.047-32.6382,49.0304-32.6382,78.7953s11.5918,57.7463,32.6396,78.7941c21.0481,21.0477,49.0308,32.6391,78.7939,32.6391,29.7649,0,57.7483-11.5911,78.7952-32.6381,21.0471-21.047,32.6382-49.0305,32.6382-78.7954-.0002-29.7633-11.592-57.7463-32.6399-78.7941-21.0479-21.0477-49.0308-32.6391-78.7935-32.6391h0Z" stroke-width="0"/></svg>