<?xml version="1.0" encoding="UTF-8"?>
<svg id="Genral_2" data-name="Genral 2" xmlns="http://www.w3.org/2000/svg" xmlns:xlink="http://www.w3.org/1999/xlink" viewBox="0 0 280 280">
  <defs>
    <linearGradient id="linear-gradient" x1="111.955276927933483" y1="722.873334869648716" x2="136.158965647141287" y2="722.873334869648716" gradientTransform="translate(-131.127903517206505 760.068203895388933) rotate(12.565238464849202) scale(1 -1)" gradientUnits="userSpaceOnUse">
      <stop offset="0" stop-color="#67656e"/>
      <stop offset="1" stop-color="#a49fac"/>
    </linearGradient>
    <linearGradient id="linear-gradient-2" x1="134.428844202167966" y1="739.673879378139645" x2="129.715549380818373" y2="729.533101298200222" gradientTransform="translate(-131.127903517206505 760.068203895388933) rotate(12.565238464849202) scale(1 -1)" gradientUnits="userSpaceOnUse">
      <stop offset="0" stop-color="#696576"/>
      <stop offset="1" stop-color="#696576" stop-opacity="0"/>
    </linearGradient>
    <linearGradient id="linear-gradient-3" x1="59.977890227843091" y1="689.55571482544201" x2="85.117563388484271" y2="713.658287492277054" gradientTransform="translate(-131.127903517206505 760.068203895388933) rotate(12.565238464849202) scale(1 -1)" gradientUnits="userSpaceOnUse">
      <stop offset="0" stop-color="#948c9d"/>
      <stop offset="1" stop-color="#a19da8"/>
    </linearGradient>
    <linearGradient id="linear-gradient-4" x1="195.796386263490604" y1="708.863475840692445" x2="180.902723627668308" y2="692.365680276468083" gradientTransform="translate(-131.127903517206505 760.068203895388933) rotate(12.565238464849202) scale(1 -1)" gradientUnits="userSpaceOnUse">
      <stop offset="0" stop-color="#b7b6be"/>
      <stop offset="1" stop-color="#9993a0"/>
    </linearGradient>
    <linearGradient id="linear-gradient-5" x1="168.956512782264326" y1="713.534756783895318" x2="175.14289047237574" y2="707.348001797442748" gradientTransform="translate(-131.127903517206505 760.068203895388933) rotate(12.565238464849202) scale(1 -1)" gradientUnits="userSpaceOnUse">
      <stop offset="0" stop-color="#74717e"/>
      <stop offset="1" stop-color="#74717e" stop-opacity="0"/>
    </linearGradient>
    <linearGradient id="linear-gradient-6" x1="202.078513884598578" y1="681.13654773305916" x2="199.44397432523192" y2="683.657441483720731" gradientTransform="translate(-131.127903517206505 760.068203895388933) rotate(12.565238464849202) scale(1 -1)" gradientUnits="userSpaceOnUse">
      <stop offset="0" stop-color="#918a9d"/>
      <stop offset="1" stop-color="#918a9d" stop-opacity="0"/>
    </linearGradient>
    <linearGradient id="linear-gradient-7" x1="126.620256291244004" y1="719.207109695988947" x2="126.620256291244019" y2="557.893202054817266" gradientTransform="translate(-131.127903517206505 760.068203895388933) rotate(12.565238464849202) scale(1 -1)" gradientUnits="userSpaceOnUse">
      <stop offset=".37388599395752" stop-color="#4c2350"/>
      <stop offset="1" stop-color="#262f63"/>
    </linearGradient>
    <linearGradient id="linear-gradient-8" x1="186.743182851430902" y1="713.411606583810681" x2="87.008676764859899" y2="588.704589810113248" gradientTransform="translate(-131.127903517206505 760.068203895388933) rotate(12.565238464849202) scale(1 -1)" gradientUnits="userSpaceOnUse">
      <stop offset="0" stop-color="#5d3860"/>
      <stop offset="1" stop-color="#403f6a"/>
    </linearGradient>
    <linearGradient id="linear-gradient-9" x1="126.620438103251217" y1="708.895851395061072" x2="126.620438103251232" y2="568.204096731723439" gradientTransform="translate(-131.127903517206505 760.068203895388933) rotate(12.565238464849202) scale(1 -1)" gradientUnits="userSpaceOnUse">
      <stop offset="0" stop-color="#3a1d41"/>
      <stop offset="1" stop-color="#2f2a44"/>
    </linearGradient>
    <linearGradient id="linear-gradient-10" x1="126.547333598588011" y1="763.201811779942545" x2="126.547333598588011" y2="733.872010390637115" gradientTransform="translate(-131.127903517206505 760.068203895388933) rotate(12.565238464849202) scale(1 -1)" gradientUnits="userSpaceOnUse">
      <stop offset="0" stop-color="#4d234f"/>
      <stop offset="1" stop-color="#212153"/>
    </linearGradient>
    <linearGradient id="linear-gradient-11" x1="155.877610152863781" y1="748.536911085288921" x2="146.15698914111303" y2="748.536911085288921" gradientTransform="translate(-131.127903517206505 760.068203895388933) rotate(12.565238464849202) scale(1 -1)" gradientUnits="userSpaceOnUse">
      <stop offset="0" stop-color="#5d385f"/>
      <stop offset="1" stop-color="#5d385f" stop-opacity="0"/>
    </linearGradient>
    <linearGradient id="linear-gradient-12" x1="70.651153574843192" y1="612.565347549320904" x2="194.037963023203531" y2="669.850116167786496" gradientTransform="translate(-131.127903517206505 760.068203895388933) rotate(12.565238464849202) scale(1 -1)" gradientUnits="userSpaceOnUse">
      <stop offset="0" stop-color="#938d9c"/>
      <stop offset="1" stop-color="#897c91"/>
    </linearGradient>
    <radialGradient id="radial-gradient" cx="4814.570506950467461" cy="1067.03176098032327" fx="4814.570506950467461" fy="1067.03176098032327" r="7.332450347315495" gradientTransform="translate(-39445.123923976068909 69767.678897611403954) rotate(-43.197261257779992) scale(15.877200423760085 -22.157700090371907)" gradientUnits="userSpaceOnUse">
      <stop offset=".455460014343262" stop-color="#e4ddea"/>
      <stop offset="1" stop-color="#d2c2da"/>
    </radialGradient>
    <radialGradient id="radial-gradient-2" cx="4746.012060185693372" cy="991.784750146559418" fx="4746.012060185693372" fy="991.784750146559418" r="7.332450347315827" gradientTransform="translate(-79498.324866965427645 35190.563819782422797) rotate(-11.944859912174396) scale(17.928000159243076 -17.928000159243076)" gradientUnits="userSpaceOnUse">
      <stop offset=".809954986572266" stop-color="#ad98b6" stop-opacity="0"/>
      <stop offset="1" stop-color="#ad98b6"/>
    </radialGradient>
    <linearGradient id="linear-gradient-13" x1="149.267947679405552" y1="662.868353110400676" x2="113.762017920847313" y2="628.917650314970956" gradientTransform="translate(-131.127903517206505 760.068203895388933) rotate(12.565238464849202) scale(1 -1)" gradientUnits="userSpaceOnUse">
      <stop offset="0" stop-color="#b7a1ac"/>
      <stop offset="1" stop-color="#bb9cc0"/>
    </linearGradient>
    <radialGradient id="radial-gradient-3" cx="7614.262270930730665" cy="2517.416953013794227" fx="7614.262270930730665" fy="2517.416953013794227" r="7.332450347328074" gradientTransform="translate(11297.874385331533631 5386.112186625712638) rotate(-133.415765998669713) scale(1.508119978001525 -1.78161001539098)" gradientUnits="userSpaceOnUse">
      <stop offset="0" stop-color="#aba4b3"/>
      <stop offset="1" stop-color="#aba4b3" stop-opacity="0"/>
    </radialGradient>
    <radialGradient id="radial-gradient-4" cx="5936.193704140148839" cy="-2766.059603826720377" fx="5936.193704140148839" fy="-2766.059603826720377" r="7.332450347328592" gradientTransform="translate(8974.684875355160329 -7828.536641217930992) rotate(121.01724098167243) scale(1.927210021707148 -1.245190103787388)" xlink:href="#radial-gradient-3"/>
    <linearGradient id="linear-gradient-14" x1="174.281111872974179" y1="649.09055324968449" x2="174.281111872974179" y2="641.529327453021438" gradientTransform="translate(-131.127903517206505 760.068203895388933) rotate(12.565238464849202) scale(1 -1)" gradientUnits="userSpaceOnUse">
      <stop offset="0" stop-color="#86808e"/>
      <stop offset="1" stop-color="#86808e" stop-opacity="0"/>
    </linearGradient>
    <radialGradient id="radial-gradient-5" cx="7655.334547490061595" cy="-2582.486787888257822" fx="7655.334547490061595" fy="-2582.486787888257822" r="7.332450347327529" gradientTransform="translate(10540.924512165429405 -3335.83425536215691) rotate(148.935233187737765) scale(1.404000004606251 -.931237987397657)" xlink:href="#radial-gradient-3"/>
    <radialGradient id="radial-gradient-6" cx="4668.735419550480401" cy="-3266.353175821380319" fx="4668.735419550480401" fy="-3266.353175821380319" r="7.332450347326878" gradientTransform="translate(4291.980272270895512 -8351.726221396816982) rotate(92.24793947116693) scale(1.86354985290668 -1.162339971198335)" xlink:href="#radial-gradient-3"/>
    <radialGradient id="radial-gradient-7" cx="9407.390649123541152" cy="954.432267858662271" fx="9407.390649123541152" fy="954.432267858662271" r="7.332450347319833" gradientTransform="translate(10628.20623926924236 1085.100880877169402) rotate(-169.038765429587528) scale(1.116689984568871 -1.113600061063174)" gradientUnits="userSpaceOnUse">
      <stop offset="0" stop-color="#a69faf"/>
      <stop offset="1" stop-color="#a69faf" stop-opacity="0"/>
    </radialGradient>
    <linearGradient id="linear-gradient-15" x1="168.032399867162894" y1="680.036426783654861" x2="152.48717033865762" y2="664.491213814920911" gradientTransform="translate(-131.127903517206505 760.068203895388933) rotate(12.565238464849202) scale(1 -1)" gradientUnits="userSpaceOnUse">
      <stop offset="0" stop-color="#9b9b9b"/>
      <stop offset="1" stop-color="#d3d3d3"/>
    </linearGradient>
    <radialGradient id="radial-gradient-8" cx="7424.868115921319259" cy="-1706.082078526416808" fx="7424.868115921319259" fy="-1706.082078526416808" r="7.332450347330469" gradientTransform="translate(12273.3453937648992 -3315.763577847390479) rotate(155.789239935238669) scale(1.688549974178534 -1.053190012538554)" xlink:href="#radial-gradient-3"/>
    <linearGradient id="linear-gradient-16" x1="128.054618117111204" y1="639.985635780277335" x2="168.61261363147139" y2="680.542880614879664" gradientTransform="translate(-131.127903517206505 760.068203895388933) rotate(12.565238464849202) scale(1 -1)" gradientUnits="userSpaceOnUse">
      <stop offset="0" stop-color="#ca2b7c"/>
      <stop offset="1" stop-color="#d82145"/>
    </linearGradient>
    <linearGradient id="linear-gradient-17" x1="121.466252243765666" y1="634.91648140837151" x2="127.427525674884421" y2="640.4884041874991" gradientTransform="translate(-131.127903517206505 760.068203895388933) rotate(12.565238464849202) scale(1 -1)" gradientUnits="userSpaceOnUse">
      <stop offset="0" stop-color="#a0356c"/>
      <stop offset="1" stop-color="#a0356c" stop-opacity="0"/>
    </linearGradient>
    <radialGradient id="radial-gradient-9" cx="8735.923829180697794" cy="-2216.994147533499017" fx="8735.923829180697794" fy="-2216.994147533499017" r="7.332450347327333" gradientTransform="translate(8879.242290669961221 -2249.730250835877541) rotate(150.427237094183994) scale(1.000979994434934 -1.000979994434934)" gradientUnits="userSpaceOnUse">
      <stop offset="0" stop-color="#e05661"/>
      <stop offset="1" stop-color="#e05661" stop-opacity="0"/>
    </radialGradient>
    <linearGradient id="linear-gradient-18" x1="165.039607405706192" y1="677.540973209713229" x2="121.239208569461113" y2="632.834290211651705" gradientTransform="translate(-131.127903517206505 760.068203895388933) rotate(12.565238464849202) scale(1 -1)" gradientUnits="userSpaceOnUse">
      <stop offset="0" stop-color="#e24f60"/>
      <stop offset="1" stop-color="#e24f60" stop-opacity="0"/>
    </linearGradient>
  </defs>
  <a xlink:href="https://www.notion.so/dmmnotes/timeline-4fcb082531f646b9965f2f24f9dd8758?pvs=4">
    <g>
      <g>
        <path d="M166.427922933732589,74.509940061488123l-28.62732810398029-6.380732352652558-4.785548123528315,21.470490959020026,28.62732810397938,6.380732352652558,4.785548123529225-21.470490959020026Z" fill="none" stroke="#000" stroke-width="23"/>
        <path d="M166.427922933732589,74.509940061488123l-28.62732810398029-6.380732352652558-4.785548123528315,21.470490959020026,28.62732810397938,6.380732352652558,4.785548123529225-21.470490959020026Z" fill="none" stroke="#000" stroke-width="23"/>
        <path d="M105.40323810076552,99.896678692271053l-21.442430248100209,13.626035588187733c-4.376006513756693,2.780823805915134-10.101472134556388,1.504677335385168-12.810725999203896-2.855376986185547l-5.728498967710038-9.014571841946236c-2.780823805915134-4.376006513758512-1.504677335383349-10.101472134551841,2.855378507470959-12.810732824487786l21.4424808205722-13.62624641138882c4.376006513757602-2.780823805915134,10.101472134551841-1.504677335386077,12.810725999202987,2.855376986188276l5.784113304148377,9.10209321475395c2.741158249018554,4.216914439040011,1.449012426474837,10.014161584942485-2.91104341638038,12.72342227487843Z" fill="none" stroke="#000" stroke-width="23"/>
        <path d="M182.196024154729457,117.012988417204724l13.626042413470714,21.442431769385621c2.780823805915134,4.376006513758512,8.506282601423663,5.652151463004884,12.810719173918187,2.855375464901044l9.10210004003784-5.784111782859327c4.37600651376124-2.780823805915134,5.652152984292115-8.506289426711191,2.855376986186457-12.810725999203896l-13.625978519507953-21.442718431366302c-2.780823045275611-4.376009926400911-8.506281840788688-5.652154875648193-12.810719173920006-2.855375464901954l-9.10210004003784,5.784111782860236c-4.360054321577081,2.709253864649327-5.652215356970373,8.506569263406163-2.855440880147398,12.811012661184577Z" fill="none" stroke="#000" stroke-width="23"/>
        <path d="M182.196024154729457,117.012988417204724l13.626042413470714,21.442431769385621c2.780823805915134,4.376006513758512,8.506282601423663,5.652151463004884,12.810719173918187,2.855375464901044l9.10210004003784-5.784111782859327c4.37600651376124-2.780823805915134,5.652152984292115-8.506289426711191,2.855376986186457-12.810725999203896l-13.625978519507953-21.442718431366302c-2.780823045275611-4.376009926400911-8.506281840788688-5.652154875648193-12.810719173920006-2.855375464901954l-9.10210004003784,5.784111782860236c-4.360054321577081,2.709253864649327-5.652215356970373,8.506569263406163-2.855440880147398,12.811012661184577Z" fill="none" stroke="#000" stroke-width="23"/>
        <path d="M182.196024154729457,117.012988417204724l13.626042413470714,21.442431769385621c2.780823805915134,4.376006513758512,8.506282601423663,5.652151463004884,12.810719173918187,2.855375464901044l9.10210004003784-5.784111782859327c4.37600651376124-2.780823805915134,5.652152984292115-8.506289426711191,2.855376986186457-12.810725999203896l-13.625978519507953-21.442718431366302c-2.780823045275611-4.376009926400911-8.506281840788688-5.652154875648193-12.810719173920006-2.855375464901954l-9.10210004003784,5.784111782860236c-4.360054321577081,2.709253864649327-5.652215356970373,8.506569263406163-2.855440880147398,12.811012661184577Z" fill="none" stroke="#000" stroke-width="23"/>
        <path d="M113.829870480883073,243.083500796687076c43.478466307196868,9.690895902071134,86.581255747170871-17.699662726946372,96.27215012796114-61.178122208859349,9.690894380786631-43.478459481912978-17.699664248233603-86.581248921890619-61.178130555427742-96.272144823962662-43.478602812903773-9.690926327767556-86.581102178259243,17.699696955854051-96.271996559046784,61.178156437767939-9.69089438078845,43.478459481912978,17.699374173610522,86.581184267288336,61.177976986513386,96.272110595054073Z" fill="none" stroke="#000" stroke-width="23"/>
        <path d="M116.755016601859097,235.7535816846339c39.958018295099464,8.906224819775161,79.571215677475266-16.266191105103644,88.477598710866914-56.224919229870466,8.906224819774252-39.958018295099464-16.2669800415797-79.571018976258529-56.224998336676435-88.477243796032781-39.958734950049802-8.906384554677061-79.571154865936478,16.266577206277361-88.47737968571073,56.224595501375006-8.906383033390739,39.958728124765003,16.266044361472268,79.571182969851179,56.224779311520251,88.47756752452824Z" fill="none" stroke="#000" stroke-width="23"/>
        <path d="M116.073017056975914,233.019563074481084c37.920472710898139,8.452077196148821,75.512990154793442-15.436865177139225,83.96506582965776-53.357331062748017,8.452075674866137-37.920465885608792-15.43694580522606-75.512628414675419-53.35741851612147-83.964705610826059-37.920465885613339-8.452075674866137-75.512402564235344,15.43662359802147-83.964478239101481,53.357089483629352-8.452075674865227,37.920465885610611,15.43636503995549,75.512871515076768,53.356830925565191,83.964947189944724Z" fill="none" stroke="#000" stroke-width="23"/>
        <g>
          <path d="M171.652405790956436,75.674422707998019l-39.147863759692882-8.725649837857418c-5.009779858717593-1.116627591233737-8.17991653953959-6.105275758659445-7.063288948306763-11.1150556173734l2.328966814299747-10.448972539735223c1.188191087537234-4.99383089413368,6.105273106657478-8.179920712821513,11.11505296537598-7.063293121587776l39.076293818428894,8.70969764567235c5.009786684000574,1.116629112516421,8.179923745139604,6.105275573618201,7.063295773585196,11.115057138655175l-2.328966814300657,10.448972539735223c-1.045057649966111,5.025732050900842-6.033703165388033,8.195872905005672-11.043489849389516,7.07924379249107Z" fill="none" stroke="#000" stroke-width="23"/>
          <path d="M171.652405790956436,75.674422707998019l-39.147863759692882-8.725649837857418c-5.009779858717593-1.116627591233737-8.17991653953959-6.105275758659445-7.063288948306763-11.1150556173734l2.328966814299747-10.448972539735223c1.188191087537234-4.99383089413368,6.105273106657478-8.179920712821513,11.11505296537598-7.063293121587776l39.076293818428894,8.70969764567235c5.009786684000574,1.116629112516421,8.179923745139604,6.105275573618201,7.063295773585196,11.115057138655175l-2.328966814300657,10.448972539735223c-1.045057649966111,5.025732050900842-6.033703165388033,8.195872905005672-11.043489849389516,7.07924379249107Z" fill="none" stroke="#000" stroke-width="23"/>
        </g>
        <path d="M117.02023589656892,228.769840157340695c35.573748529567638,7.92901689334667,70.839108700866745-14.481085280908701,78.768124072929822-50.054826985197906,7.929015372062167-35.573741704288295-14.481086802198661-70.839101875582855-50.054835331766299-78.768118768929526-35.573025049337048-7.928855637160268-70.838955131952389,14.481119509815471-78.767970504015466,50.054861214103767s14.481656713513985,70.839228902864306,50.054681762851942,78.768084540023665Z" fill="none" stroke="#000" stroke-width="23"/>
        <g>
          <path d="M117.418234420304543,226.984209026899407c34.587535760813807,7.709200370569306,68.876163612748314-14.080217059010465,76.585362462034936-48.667745994543111,7.709360105472115-34.588252415771422-14.080215537728691-68.876170438036752-48.667751298542498-76.585370808606967-34.587528935530827-7.709198849285713-68.875933733638703,14.079523202833116-76.58529383910809,48.667775618602718-7.709198849287532,34.587528935531736,14.080153740082096,68.876142335261648,48.667682675615652,76.58534118454736Z" fill="none" stroke="#000" stroke-width="23"/>
          <path d="M117.418234420304543,226.984209026899407c34.587535760813807,7.709200370569306,68.876163612748314-14.080217059010465,76.585362462034936-48.667745994543111,7.709360105472115-34.588252415771422-14.080215537728691-68.876170438036752-48.667751298542498-76.585370808606967-34.587528935530827-7.709198849285713-68.875933733638703,14.079523202833116-76.58529383910809,48.667775618602718-7.709198849287532,34.587528935531736,14.080153740082096,68.876142335261648,48.667682675615652,76.58534118454736Z" fill="none" stroke="#000" stroke-width="23"/>
        </g>
        <path d="M121.488983880998603,168.949398972958079c-2.169045999341506-3.413281260211988-1.164082232132387-7.922078355356462,2.249207374651633-10.091129658694626l43.322454470322555-27.530149313763104c3.413294910778859-2.169042956769772,7.922092005926061-1.164079189559743,10.091143309262407,2.249210417221548,2.169039174053978,3.413279738925667,1.164073885557627,7.92208365935403-2.249207374653452,10.091129658692807l-43.322468120890335,27.530146271195008c-3.413289606777653,2.169051303341803-7.922093527208744,1.164086014845452-10.091129658692807-2.249207374651633Z" fill="none" stroke="#000" stroke-width="23"/>
        <g>
          <path d="M133.791146194526846,119.82220265439264l1.595182707842469-7.156830319674555c.877350793570258-3.936258040876965,4.815761811926677-6.438996884116023,8.752013027520661-5.561647611831177,3.936258040873327.877350793571168,6.439005230684415,4.815756507924561,5.561654437114157,8.752014548801526l-1.595182707842469,7.156830319672736c-.877350793570258,3.936258040878784-4.815761811923949,6.438996884117842-8.752019852799094,5.561646090547583-4.00782115686161-.893301464472643-6.438998405405073-4.815754986639149-5.561647611835724-8.752013027516114Z" fill="none" stroke="#000" stroke-width="23"/>
          <path d="M133.791146194526846,119.82220265439264l1.595182707842469-7.156830319674555c.877350793570258-3.936258040876965,4.815761811926677-6.438996884116023,8.752013027520661-5.561647611831177,3.936258040873327.877350793571168,6.439005230684415,4.815756507924561,5.561654437114157,8.752014548801526l-1.595182707842469,7.156830319672736c-.877350793570258,3.936258040878784-4.815761811923949,6.438996884117842-8.752019852799094,5.561646090547583-4.00782115686161-.893301464472643-6.438998405405073-4.815754986639149-5.561647611835724-8.752013027516114Z" fill="none" stroke="#000" stroke-width="23"/>
        </g>
        <g>
          <path d="M113.053770992575664,212.860996810150027l1.595182707844288-7.156830319673645c.877349272283027-3.936251215592165,4.815761811924858-6.438996884116023,8.752013027517933-5.561647611832996,3.936258040876055.877350793571168,6.439003709399913,4.815763333210271,5.561654437114157,8.752014548803345l-1.595182707841559,7.156830319672736c-.877349272286665,3.936251215592165-4.815761811925768,6.438996884116023-8.752019852801823,5.561646090545764-4.0078211568607-.893301464470824-6.438996884117842-4.81576181192213-5.561647611832996-8.752013027515204Z" fill="none" stroke="#000" stroke-width="23"/>
          <path d="M113.053770992575664,212.860996810150027l1.595182707844288-7.156830319673645c.877349272283027-3.936251215592165,4.815761811924858-6.438996884116023,8.752013027517933-5.561647611832996,3.936258040876055.877350793571168,6.439003709399913,4.815763333210271,5.561654437114157,8.752014548803345l-1.595182707841559,7.156830319672736c-.877349272286665,3.936251215592165-4.815761811925768,6.438996884116023-8.752019852801823,5.561646090545764-4.0078211568607-.893301464470824-6.438996884117842-4.81576181192213-5.561647611832996-8.752013027515204Z" fill="none" stroke="#000" stroke-width="23"/>
        </g>
        <g>
          <path d="M175.913051718315728,166.772634728941739l7.156830319677283,1.595182707843378c3.936251215592165.877349272285755,6.438996884115113,4.81576181192213,5.561647611828448,8.752013027514295s-4.815761811920311,6.438996884118751-8.752013027514295,5.561647611832996l-7.156830319675464-1.595182707841559c-3.936264866161764-.87735231485749-6.438996884116932-4.815761811924858-5.561647611830267-8.752013027517023.877349272284846-3.936251215593074,4.744178220088543-6.454952118873734,8.752013027514295-5.561647611832086Z" fill="none" stroke="#000" stroke-width="23"/>
          <path d="M175.913051718315728,166.772634728941739l7.156830319677283,1.595182707843378c3.936251215592165.877349272285755,6.438996884115113,4.81576181192213,5.561647611828448,8.752013027514295s-4.815761811920311,6.438996884118751-8.752013027514295,5.561647611832996l-7.156830319675464-1.595182707841559c-3.936264866161764-.87735231485749-6.438996884116932-4.815761811924858-5.561647611830267-8.752013027517023.877349272284846-3.936251215593074,4.744178220088543-6.454952118873734,8.752013027514295-5.561647611832086Z" fill="none" stroke="#000" stroke-width="23"/>
        </g>
        <g>
          <path d="M82.874394068261608,146.035289952686071l7.156830319677283,1.595182707842469c3.936114709887079.877318846589333,6.438853553127956,4.815729864943023,5.561504280841291,8.751981080535188-.877349272284846,3.936251215593074-4.815754986639149,6.438998405401435-8.751869696525318,5.561679558812102l-7.156830319677283-1.595182707841559c-3.936251215590346-.877349272287574-6.438993471472713-4.815761051283516-5.561644199187867-8.752012266872953.877349272285755-3.936251215593984,4.744188458017561-6.45494983694789,8.752009614871895-5.561648372475247Z" fill="none" stroke="#000" stroke-width="23"/>
          <path d="M82.874394068261608,146.035289952686071l7.156830319677283,1.595182707842469c3.936114709887079.877318846589333,6.438853553127956,4.815729864943023,5.561504280841291,8.751981080535188-.877349272284846,3.936251215593074-4.815754986639149,6.438998405401435-8.751869696525318,5.561679558812102l-7.156830319677283-1.595182707841559c-3.936251215590346-.877349272287574-6.438993471472713-4.815761051283516-5.561644199187867-8.752012266872953.877349272285755-3.936251215593984,4.744188458017561-6.45494983694789,8.752009614871895-5.561648372475247Z" fill="none" stroke="#000" stroke-width="23"/>
        </g>
        <g>
          <path d="M161.156082524663361,197.590417093426368l3.948778363127531,6.213924279395542c2.169036131486791,3.413293389498904,1.164072364274944,7.922090484643377-2.249210417221548,10.091143309266045-3.413293389495266,2.169036131485882-7.922090484638829,1.164072364276763-10.091129658693717-2.249207374652542l-3.948775320559434-6.213937929967869c-2.169039174053978-3.413279738926576-1.164072364274944-7.922090484638829,2.249207374653452-10.091129658693717,3.341723448231278-2.18498832367186,7.850520543375751-1.180024556460012,10.091129658693717,2.249207374652542Z" fill="none" stroke="#000" stroke-width="23"/>
          <path d="M161.156082524663361,197.590417093426368l3.948778363127531,6.213924279395542c2.169036131486791,3.413293389498904,1.164072364274944,7.922090484643377-2.249210417221548,10.091143309266045-3.413293389495266,2.169036131485882-7.922090484638829,1.164072364276763-10.091129658693717-2.249207374652542l-3.948775320559434-6.213937929967869c-2.169039174053978-3.413279738926576-1.164072364274944-7.922090484638829,2.249207374653452-10.091129658693717,3.341723448231278-2.18498832367186,7.850520543375751-1.180024556460012,10.091129658693717,2.249207374652542Z" fill="none" stroke="#000" stroke-width="23"/>
        </g>
        <g>
          <path d="M109.97313309933179,117.142752195903995l3.948770016557319,6.213929583398567c2.169045999339687,3.413281260211988,1.164080710845155,7.922085180640352-2.249207374653452,10.091129658694626-3.413279738923848,2.169039174053978-7.922083659352211,1.164073885559446-10.091129658693717-2.249207374651633l-3.9487700165555-6.213929583399477c-2.169037652770385-3.413286564211376-1.164072364275853-7.922090484639739,2.249207374651633-10.091129658693717,3.429240277680037-2.240614419320082,7.938044198110219-1.23564913082464,10.091129658693717,2.249207374651633Z" fill="none" stroke="#000" stroke-width="23"/>
          <path d="M109.97313309933179,117.142752195903995l3.948770016557319,6.213929583398567c2.169045999339687,3.413281260211988,1.164080710845155,7.922085180640352-2.249207374653452,10.091129658694626-3.413279738923848,2.169039174053978-7.922083659352211,1.164073885559446-10.091129658693717-2.249207374651633l-3.9487700165555-6.213929583399477c-2.169037652770385-3.413286564211376-1.164072364275853-7.922090484639739,2.249207374651633-10.091129658693717,3.429240277680037-2.240614419320082,7.938044198110219-1.23564913082464,10.091129658693717,2.249207374651633Z" fill="none" stroke="#000" stroke-width="23"/>
        </g>
        <path d="M164.536803218979912,134.562336440720173l6.213936408687005-3.948768495274635c3.41328126020926-2.169045999338778,7.922092005922423-1.164079189560653,10.091129658692807,2.249207374651633s1.164072364274944,7.922090484639739-2.249207374651633,10.091129658695536l-6.213936408682457,3.948768495274635c-3.413281260212898,2.169045999338778-7.922078355356462,1.164082232128749-10.091129658698264-2.249207374653452-2.184989844953634-3.341716622944659-1.164073885555808-7.92208365935403,2.249207374652542-10.091129658693717Z" fill="none" stroke="#000" stroke-width="23"/>
        <g>
          <path d="M84.105647433699232,185.674592314641814l6.213928062111336-3.948763191276157c3.41328960678311-2.169051303337255,7.922093527211473-1.164086014840905,10.091129658694626,2.249207374653452,2.169045999339687,3.413281260211079,1.164082232129658,7.922078355354643-2.249207374653452,10.091129658693717l-6.213928062111336,3.948763191276157c-3.41328278149922,2.169052824624487-7.922086701926673,1.164087536129045-10.091129658695536-2.249207374652542-2.184991366239956-3.341709797661679-1.180024556459102-7.850520543374842,2.249207374654361-10.091129658694626Z" fill="none" stroke="#000" stroke-width="23"/>
          <path d="M84.105647433699232,185.674592314641814l6.213928062111336-3.948763191276157c3.41328960678311-2.169051303337255,7.922093527211473-1.164086014840905,10.091129658694626,2.249207374653452,2.169045999339687,3.413281260211079,1.164082232129658,7.922078355354643-2.249207374653452,10.091129658693717l-6.213928062111336,3.948763191276157c-3.41328278149922,2.169052824624487-7.922086701926673,1.164087536129045-10.091129658695536-2.249207374652542-2.184991366239956-3.341709797661679-1.180024556459102-7.850520543374842,2.249207374654361-10.091129658694626Z" fill="none" stroke="#000" stroke-width="23"/>
        </g>
        <g>
          <path d="M125.16311041865174,168.30642064188487c-2.169039174054888-3.413279738926576-1.164072364274944-7.922090484641558,2.249207374651633-10.091129658696445l43.322469642174838-27.530153096478898c3.413281260211988-2.169045999338778,7.922092005925151-1.164079189559743,10.091129658695536,2.249207374651633,2.169039174053978,3.413279738929305,1.164073885559446,7.922083659354939-2.249207374654361,10.091129658695536l-43.322469642173928,27.530153096479808c-3.413279738928395,2.169039174053978-7.922083659356758,1.164073885557627-10.091129658693717-2.249207374651633Z" fill="none" stroke="#000" stroke-width="23"/>
          <path d="M125.16311041865174,168.30642064188487c-2.169039174054888-3.413279738926576-1.164072364274944-7.922090484641558,2.249207374651633-10.091129658696445l43.322469642174838-27.530153096478898c3.413281260211988-2.169045999338778,7.922092005925151-1.164079189559743,10.091129658695536,2.249207374651633,2.169039174053978,3.413279738929305,1.164073885559446,7.922083659354939-2.249207374654361,10.091129658695536l-43.322469642173928,27.530153096479808c-3.413279738928395,2.169039174053978-7.922083659356758,1.164073885557627-10.091129658693717-2.249207374651633Z" fill="none" stroke="#000" stroke-width="23"/>
          <path d="M125.16311041865174,168.30642064188487c-2.169039174054888-3.413279738926576-1.164072364274944-7.922090484641558,2.249207374651633-10.091129658696445l43.322469642174838-27.530153096478898c3.413281260211988-2.169045999338778,7.922092005925151-1.164079189559743,10.091129658695536,2.249207374651633,2.169039174053978,3.413279738929305,1.164073885559446,7.922083659354939-2.249207374654361,10.091129658695536l-43.322469642173928,27.530153096479808c-3.413279738928395,2.169039174053978-7.922083659356758,1.164073885557627-10.091129658693717-2.249207374651633Z" fill="none" stroke="#000" stroke-width="23"/>
        </g>
        <path d="M175.547706608858789,136.210474876961598l-44.208103221855708,27.984833519257336" fill="none" stroke="#000" stroke-width="23"/>
      </g>
      <g>
        <path d="M166.427922933732589,74.509940061488123l-28.62732810398029-6.380732352652558-4.785548123528315,21.470490959020026,28.62732810397938,6.380732352652558,4.785548123529225-21.470490959020026Z" fill="url(#linear-gradient)" stroke-width="0"/>
        <path d="M166.427922933732589,74.509940061488123l-28.62732810398029-6.380732352652558-4.785548123528315,21.470490959020026,28.62732810397938,6.380732352652558,4.785548123529225-21.470490959020026Z" fill="url(#linear-gradient-2)" stroke-width="0"/>
        <path d="M105.40323810076552,99.896678692271053l-21.442430248100209,13.626035588187733c-4.376006513756693,2.780823805915134-10.101472134556388,1.504677335385168-12.810725999203896-2.855376986185547l-5.728498967710038-9.014571841946236c-2.780823805915134-4.376006513758512-1.504677335383349-10.101472134551841,2.855378507470959-12.810732824487786l21.4424808205722-13.62624641138882c4.376006513757602-2.780823805915134,10.101472134551841-1.504677335386077,12.810725999202987,2.855376986188276l5.784113304148377,9.10209321475395c2.741158249018554,4.216914439040011,1.449012426474837,10.014161584942485-2.91104341638038,12.72342227487843Z" fill="url(#linear-gradient-3)" stroke-width="0"/>
        <path d="M182.196024154729457,117.012988417204724l13.626042413470714,21.442431769385621c2.780823805915134,4.376006513758512,8.506282601423663,5.652151463004884,12.810719173918187,2.855375464901044l9.10210004003784-5.784111782859327c4.37600651376124-2.780823805915134,5.652152984292115-8.506289426711191,2.855376986186457-12.810725999203896l-13.625978519507953-21.442718431366302c-2.780823045275611-4.376009926400911-8.506281840788688-5.652154875648193-12.810719173920006-2.855375464901954l-9.10210004003784,5.784111782860236c-4.360054321577081,2.709253864649327-5.652215356970373,8.506569263406163-2.855440880147398,12.811012661184577Z" fill="url(#linear-gradient-4)" stroke-width="0"/>
        <path d="M182.196024154729457,117.012988417204724l13.626042413470714,21.442431769385621c2.780823805915134,4.376006513758512,8.506282601423663,5.652151463004884,12.810719173918187,2.855375464901044l9.10210004003784-5.784111782859327c4.37600651376124-2.780823805915134,5.652152984292115-8.506289426711191,2.855376986186457-12.810725999203896l-13.625978519507953-21.442718431366302c-2.780823045275611-4.376009926400911-8.506281840788688-5.652154875648193-12.810719173920006-2.855375464901954l-9.10210004003784,5.784111782860236c-4.360054321577081,2.709253864649327-5.652215356970373,8.506569263406163-2.855440880147398,12.811012661184577Z" fill="url(#linear-gradient-5)" stroke-width="0"/>
        <path d="M182.196024154729457,117.012988417204724l13.626042413470714,21.442431769385621c2.780823805915134,4.376006513758512,8.506282601423663,5.652151463004884,12.810719173918187,2.855375464901044l9.10210004003784-5.784111782859327c4.37600651376124-2.780823805915134,5.652152984292115-8.506289426711191,2.855376986186457-12.810725999203896l-13.625978519507953-21.442718431366302c-2.780823045275611-4.376009926400911-8.506281840788688-5.652154875648193-12.810719173920006-2.855375464901954l-9.10210004003784,5.784111782860236c-4.360054321577081,2.709253864649327-5.652215356970373,8.506569263406163-2.855440880147398,12.811012661184577Z" fill="url(#linear-gradient-6)" stroke-width="0"/>
        <path d="M113.829870480883073,243.083500796687076c43.478466307196868,9.690895902071134,86.581255747170871-17.699662726946372,96.27215012796114-61.178122208859349,9.690894380786631-43.478459481912978-17.699664248233603-86.581248921890619-61.178130555427742-96.272144823962662-43.478602812903773-9.690926327767556-86.581102178259243,17.699696955854051-96.271996559046784,61.178156437767939-9.69089438078845,43.478459481912978,17.699374173610522,86.581184267288336,61.177976986513386,96.272110595054073Z" fill="url(#linear-gradient-7)" stroke-width="0"/>
        <path d="M116.755016601859097,235.7535816846339c39.958018295099464,8.906224819775161,79.571215677475266-16.266191105103644,88.477598710866914-56.224919229870466,8.906224819774252-39.958018295099464-16.2669800415797-79.571018976258529-56.224998336676435-88.477243796032781-39.958734950049802-8.906384554677061-79.571154865936478,16.266577206277361-88.47737968571073,56.224595501375006-8.906383033390739,39.958728124765003,16.266044361472268,79.571182969851179,56.224779311520251,88.47756752452824Z" fill="none" stroke="url(#linear-gradient-8)" stroke-width="3.666225268569519"/>
        <path d="M116.073017056975914,233.019563074481084c37.920472710898139,8.452077196148821,75.512990154793442-15.436865177139225,83.96506582965776-53.357331062748017,8.452075674866137-37.920465885608792-15.43694580522606-75.512628414675419-53.35741851612147-83.964705610826059-37.920465885613339-8.452075674866137-75.512402564235344,15.43662359802147-83.964478239101481,53.357089483629352-8.452075674865227,37.920465885610611,15.43636503995549,75.512871515076768,53.356830925565191,83.964947189944724Z" fill="url(#linear-gradient-9)" stroke-width="0"/>
        <g>
          <path d="M171.652405790956436,75.674422707998019l-39.147863759692882-8.725649837857418c-5.009779858717593-1.116627591233737-8.17991653953959-6.105275758659445-7.063288948306763-11.1150556173734l2.328966814299747-10.448972539735223c1.188191087537234-4.99383089413368,6.105273106657478-8.179920712821513,11.11505296537598-7.063293121587776l39.076293818428894,8.70969764567235c5.009786684000574,1.116629112516421,8.179923745139604,6.105275573618201,7.063295773585196,11.115057138655175l-2.328966814300657,10.448972539735223c-1.045057649966111,5.025732050900842-6.033703165388033,8.195872905005672-11.043489849389516,7.07924379249107Z" fill="url(#linear-gradient-10)" stroke-width="0"/>
          <path d="M171.652405790956436,75.674422707998019l-39.147863759692882-8.725649837857418c-5.009779858717593-1.116627591233737-8.17991653953959-6.105275758659445-7.063288948306763-11.1150556173734l2.328966814299747-10.448972539735223c1.188191087537234-4.99383089413368,6.105273106657478-8.179920712821513,11.11505296537598-7.063293121587776l39.076293818428894,8.70969764567235c5.009786684000574,1.116629112516421,8.179923745139604,6.105275573618201,7.063295773585196,11.115057138655175l-2.328966814300657,10.448972539735223c-1.045057649966111,5.025732050900842-6.033703165388033,8.195872905005672-11.043489849389516,7.07924379249107Z" fill="url(#linear-gradient-11)" stroke-width="0"/>
        </g>
        <path d="M117.02023589656892,228.769840157340695c35.573748529567638,7.92901689334667,70.839108700866745-14.481085280908701,78.768124072929822-50.054826985197906,7.929015372062167-35.573741704288295-14.481086802198661-70.839101875582855-50.054835331766299-78.768118768929526-35.573025049337048-7.928855637160268-70.838955131952389,14.481119509815471-78.767970504015466,50.054861214103767s14.481656713513985,70.839228902864306,50.054681762851942,78.768084540023665Z" fill="url(#linear-gradient-12)" stroke-width="0"/>
        <g>
          <path d="M117.418234420304543,226.984209026899407c34.587535760813807,7.709200370569306,68.876163612748314-14.080217059010465,76.585362462034936-48.667745994543111,7.709360105472115-34.588252415771422-14.080215537728691-68.876170438036752-48.667751298542498-76.585370808606967-34.587528935530827-7.709198849285713-68.875933733638703,14.079523202833116-76.58529383910809,48.667775618602718-7.709198849287532,34.587528935531736,14.080153740082096,68.876142335261648,48.667682675615652,76.58534118454736Z" fill="url(#radial-gradient)" stroke-width="0"/>
          <path d="M117.418234420304543,226.984209026899407c34.587535760813807,7.709200370569306,68.876163612748314-14.080217059010465,76.585362462034936-48.667745994543111,7.709360105472115-34.588252415771422-14.080215537728691-68.876170438036752-48.667751298542498-76.585370808606967-34.587528935530827-7.709198849285713-68.875933733638703,14.079523202833116-76.58529383910809,48.667775618602718-7.709198849287532,34.587528935531736,14.080153740082096,68.876142335261648,48.667682675615652,76.58534118454736Z" fill="url(#radial-gradient-2)" stroke-width="0"/>
        </g>
        <path d="M121.488983880998603,168.949398972958079c-2.169045999341506-3.413281260211988-1.164082232132387-7.922078355356462,2.249207374651633-10.091129658694626l43.322454470322555-27.530149313763104c3.413294910778859-2.169042956769772,7.922092005926061-1.164079189559743,10.091143309262407,2.249210417221548,2.169039174053978,3.413279738925667,1.164073885557627,7.92208365935403-2.249207374653452,10.091129658692807l-43.322468120890335,27.530146271195008c-3.413289606777653,2.169051303341803-7.922093527208744,1.164086014845452-10.091129658692807-2.249207374651633Z" fill="url(#linear-gradient-13)" stroke-width="0"/>
        <g>
          <path d="M133.791146194526846,119.82220265439264l1.595182707842469-7.156830319674555c.877350793570258-3.936258040876965,4.815761811926677-6.438996884116023,8.752013027520661-5.561647611831177,3.936258040873327.877350793571168,6.439005230684415,4.815756507924561,5.561654437114157,8.752014548801526l-1.595182707842469,7.156830319672736c-.877350793570258,3.936258040878784-4.815761811923949,6.438996884117842-8.752019852799094,5.561646090547583-4.00782115686161-.893301464472643-6.438998405405073-4.815754986639149-5.561647611835724-8.752013027516114Z" fill="#9b93a5" stroke-width="0"/>
          <path d="M133.791146194526846,119.82220265439264l1.595182707842469-7.156830319674555c.877350793570258-3.936258040876965,4.815761811926677-6.438996884116023,8.752013027520661-5.561647611831177,3.936258040873327.877350793571168,6.439005230684415,4.815756507924561,5.561654437114157,8.752014548801526l-1.595182707842469,7.156830319672736c-.877350793570258,3.936258040878784-4.815761811923949,6.438996884117842-8.752019852799094,5.561646090547583-4.00782115686161-.893301464472643-6.438998405405073-4.815754986639149-5.561647611835724-8.752013027516114Z" fill="url(#radial-gradient-3)" stroke-width="0"/>
        </g>
        <g>
          <path d="M113.053770992575664,212.860996810150027l1.595182707844288-7.156830319673645c.877349272283027-3.936251215592165,4.815761811924858-6.438996884116023,8.752013027517933-5.561647611832996,3.936258040876055.877350793571168,6.439003709399913,4.815763333210271,5.561654437114157,8.752014548803345l-1.595182707841559,7.156830319672736c-.877349272286665,3.936251215592165-4.815761811925768,6.438996884116023-8.752019852801823,5.561646090545764-4.0078211568607-.893301464470824-6.438996884117842-4.81576181192213-5.561647611832996-8.752013027515204Z" fill="#9b93a5" stroke-width="0"/>
          <path d="M113.053770992575664,212.860996810150027l1.595182707844288-7.156830319673645c.877349272283027-3.936251215592165,4.815761811924858-6.438996884116023,8.752013027517933-5.561647611832996,3.936258040876055.877350793571168,6.439003709399913,4.815763333210271,5.561654437114157,8.752014548803345l-1.595182707841559,7.156830319672736c-.877349272286665,3.936251215592165-4.815761811925768,6.438996884116023-8.752019852801823,5.561646090545764-4.0078211568607-.893301464470824-6.438996884117842-4.81576181192213-5.561647611832996-8.752013027515204Z" fill="url(#radial-gradient-4)" stroke-width="0"/>
        </g>
        <g>
          <path d="M175.913051718315728,166.772634728941739l7.156830319677283,1.595182707843378c3.936251215592165.877349272285755,6.438996884115113,4.81576181192213,5.561647611828448,8.752013027514295s-4.815761811920311,6.438996884118751-8.752013027514295,5.561647611832996l-7.156830319675464-1.595182707841559c-3.936264866161764-.87735231485749-6.438996884116932-4.815761811924858-5.561647611830267-8.752013027517023.877349272284846-3.936251215593074,4.744178220088543-6.454952118873734,8.752013027514295-5.561647611832086Z" fill="#9b93a5" stroke-width="0"/>
          <path d="M175.913051718315728,166.772634728941739l7.156830319677283,1.595182707843378c3.936251215592165.877349272285755,6.438996884115113,4.81576181192213,5.561647611828448,8.752013027514295s-4.815761811920311,6.438996884118751-8.752013027514295,5.561647611832996l-7.156830319675464-1.595182707841559c-3.936264866161764-.87735231485749-6.438996884116932-4.815761811924858-5.561647611830267-8.752013027517023.877349272284846-3.936251215593074,4.744178220088543-6.454952118873734,8.752013027514295-5.561647611832086Z" fill="url(#linear-gradient-14)" stroke-width="0"/>
        </g>
        <g>
          <path d="M82.874394068261608,146.035289952686071l7.156830319677283,1.595182707842469c3.936114709887079.877318846589333,6.438853553127956,4.815729864943023,5.561504280841291,8.751981080535188-.877349272284846,3.936251215593074-4.815754986639149,6.438998405401435-8.751869696525318,5.561679558812102l-7.156830319677283-1.595182707841559c-3.936251215590346-.877349272287574-6.438993471472713-4.815761051283516-5.561644199187867-8.752012266872953.877349272285755-3.936251215593984,4.744188458017561-6.45494983694789,8.752009614871895-5.561648372475247Z" fill="#9b93a5" stroke-width="0"/>
          <path d="M82.874394068261608,146.035289952686071l7.156830319677283,1.595182707842469c3.936114709887079.877318846589333,6.438853553127956,4.815729864943023,5.561504280841291,8.751981080535188-.877349272284846,3.936251215593074-4.815754986639149,6.438998405401435-8.751869696525318,5.561679558812102l-7.156830319677283-1.595182707841559c-3.936251215590346-.877349272287574-6.438993471472713-4.815761051283516-5.561644199187867-8.752012266872953.877349272285755-3.936251215593984,4.744188458017561-6.45494983694789,8.752009614871895-5.561648372475247Z" fill="url(#radial-gradient-5)" stroke-width="0"/>
        </g>
        <g>
          <path d="M161.156082524663361,197.590417093426368l3.948778363127531,6.213924279395542c2.169036131486791,3.413293389498904,1.164072364274944,7.922090484643377-2.249210417221548,10.091143309266045-3.413293389495266,2.169036131485882-7.922090484638829,1.164072364276763-10.091129658693717-2.249207374652542l-3.948775320559434-6.213937929967869c-2.169039174053978-3.413279738926576-1.164072364274944-7.922090484638829,2.249207374653452-10.091129658693717,3.341723448231278-2.18498832367186,7.850520543375751-1.180024556460012,10.091129658693717,2.249207374652542Z" fill="#9b93a5" stroke-width="0"/>
          <path d="M161.156082524663361,197.590417093426368l3.948778363127531,6.213924279395542c2.169036131486791,3.413293389498904,1.164072364274944,7.922090484643377-2.249210417221548,10.091143309266045-3.413293389495266,2.169036131485882-7.922090484638829,1.164072364276763-10.091129658693717-2.249207374652542l-3.948775320559434-6.213937929967869c-2.169039174053978-3.413279738926576-1.164072364274944-7.922090484638829,2.249207374653452-10.091129658693717,3.341723448231278-2.18498832367186,7.850520543375751-1.180024556460012,10.091129658693717,2.249207374652542Z" fill="url(#radial-gradient-6)" stroke-width="0"/>
        </g>
        <g>
          <path d="M109.97313309933179,117.142752195903995l3.948770016557319,6.213929583398567c2.169045999339687,3.413281260211988,1.164080710845155,7.922085180640352-2.249207374653452,10.091129658694626-3.413279738923848,2.169039174053978-7.922083659352211,1.164073885559446-10.091129658693717-2.249207374651633l-3.9487700165555-6.213929583399477c-2.169037652770385-3.413286564211376-1.164072364275853-7.922090484639739,2.249207374651633-10.091129658693717,3.429240277680037-2.240614419320082,7.938044198110219-1.23564913082464,10.091129658693717,2.249207374651633Z" fill="#9b93a5" stroke-width="0"/>
          <path d="M109.97313309933179,117.142752195903995l3.948770016557319,6.213929583398567c2.169045999339687,3.413281260211988,1.164080710845155,7.922085180640352-2.249207374653452,10.091129658694626-3.413279738923848,2.169039174053978-7.922083659352211,1.164073885559446-10.091129658693717-2.249207374651633l-3.9487700165555-6.213929583399477c-2.169037652770385-3.413286564211376-1.164072364275853-7.922090484639739,2.249207374651633-10.091129658693717,3.429240277680037-2.240614419320082,7.938044198110219-1.23564913082464,10.091129658693717,2.249207374651633Z" fill="url(#radial-gradient-7)" stroke-width="0"/>
        </g>
        <path d="M164.536803218979912,134.562336440720173l6.213936408687005-3.948768495274635c3.41328126020926-2.169045999338778,7.922092005922423-1.164079189560653,10.091129658692807,2.249207374651633s1.164072364274944,7.922090484639739-2.249207374651633,10.091129658695536l-6.213936408682457,3.948768495274635c-3.413281260212898,2.169045999338778-7.922078355356462,1.164082232128749-10.091129658698264-2.249207374653452-2.184989844953634-3.341716622944659-1.164073885555808-7.92208365935403,2.249207374652542-10.091129658693717Z" fill="url(#linear-gradient-15)" stroke-width="0"/>
        <g>
          <path d="M84.105647433699232,185.674592314641814l6.213928062111336-3.948763191276157c3.41328960678311-2.169051303337255,7.922093527211473-1.164086014840905,10.091129658694626,2.249207374653452,2.169045999339687,3.413281260211079,1.164082232129658,7.922078355354643-2.249207374653452,10.091129658693717l-6.213928062111336,3.948763191276157c-3.41328278149922,2.169052824624487-7.922086701926673,1.164087536129045-10.091129658695536-2.249207374652542-2.184991366239956-3.341709797661679-1.180024556459102-7.850520543374842,2.249207374654361-10.091129658694626Z" fill="#9b93a5" stroke-width="0"/>
          <path d="M84.105647433699232,185.674592314641814l6.213928062111336-3.948763191276157c3.41328960678311-2.169051303337255,7.922093527211473-1.164086014840905,10.091129658694626,2.249207374653452,2.169045999339687,3.413281260211079,1.164082232129658,7.922078355354643-2.249207374653452,10.091129658693717l-6.213928062111336,3.948763191276157c-3.41328278149922,2.169052824624487-7.922086701926673,1.164087536129045-10.091129658695536-2.249207374652542-2.184991366239956-3.341709797661679-1.180024556459102-7.850520543374842,2.249207374654361-10.091129658694626Z" fill="url(#radial-gradient-8)" stroke-width="0"/>
        </g>
        <g>
          <path d="M125.16311041865174,168.30642064188487c-2.169039174054888-3.413279738926576-1.164072364274944-7.922090484641558,2.249207374651633-10.091129658696445l43.322469642174838-27.530153096478898c3.413281260211988-2.169045999338778,7.922092005925151-1.164079189559743,10.091129658695536,2.249207374651633,2.169039174053978,3.413279738929305,1.164073885559446,7.922083659354939-2.249207374654361,10.091129658695536l-43.322469642173928,27.530153096479808c-3.413279738928395,2.169039174053978-7.922083659356758,1.164073885557627-10.091129658693717-2.249207374651633Z" fill="url(#linear-gradient-16)" stroke-width="0"/>
          <path d="M125.16311041865174,168.30642064188487c-2.169039174054888-3.413279738926576-1.164072364274944-7.922090484641558,2.249207374651633-10.091129658696445l43.322469642174838-27.530153096478898c3.413281260211988-2.169045999338778,7.922092005925151-1.164079189559743,10.091129658695536,2.249207374651633,2.169039174053978,3.413279738929305,1.164073885559446,7.922083659354939-2.249207374654361,10.091129658695536l-43.322469642173928,27.530153096479808c-3.413279738928395,2.169039174053978-7.922083659356758,1.164073885557627-10.091129658693717-2.249207374651633Z" fill="url(#linear-gradient-17)" stroke-width="0"/>
          <path d="M125.16311041865174,168.30642064188487c-2.169039174054888-3.413279738926576-1.164072364274944-7.922090484641558,2.249207374651633-10.091129658696445l43.322469642174838-27.530153096478898c3.413281260211988-2.169045999338778,7.922092005925151-1.164079189559743,10.091129658695536,2.249207374651633,2.169039174053978,3.413279738929305,1.164073885559446,7.922083659354939-2.249207374654361,10.091129658695536l-43.322469642173928,27.530153096479808c-3.413279738928395,2.169039174053978-7.922083659356758,1.164073885557627-10.091129658693717-2.249207374651633Z" fill="url(#radial-gradient-9)" stroke-width="0"/>
        </g>
        <path d="M175.547706608858789,136.210474876961598l-44.208103221855708,27.984833519257336" fill="none" stroke="url(#linear-gradient-18)" stroke-width="3.666225268569519"/>
      </g>
    </g>
  </a>
  <circle cx="220.893248030524774" cy="54.778159412020386" r="4.672136546174556" fill="#000" stroke-width="0"/>
  <circle cx="37.397297604687992" cy="27.7172393297501" r="5.851534946819583" fill="#000" stroke-width="0"/>
  <circle cx="248.45423734213" cy="149.149188116853566" r="5.851534946819583" fill="#000" stroke-width="0"/>
  <circle cx="24.475757192634774" cy="237.544895753803758" r="12.921540412052307" fill="#000" stroke-width="0"/>
</svg>