<?xml version="1.0" encoding="UTF-8"?><svg id="uuid-70197c6b-74a4-4f95-ab89-5df20fa17b32" xmlns="http://www.w3.org/2000/svg" width="280" height="280" xmlns:xlink="http://www.w3.org/1999/xlink" viewBox="0 0 280 280"><defs><linearGradient id="uuid-fcf458f1-e1f2-4238-8dff-5741c93b1a57" x1="833.0567" y1="-159.8724" x2="833.0567" y2="-361.3566" gradientTransform="translate(-610.0676 507.3747) rotate(-6.6231) skewX(1)" gradientUnits="userSpaceOnUse"><stop offset="0" stop-color="#7e9e4c"/><stop offset=".5" stop-color="#91a23d"/><stop offset="1" stop-color="#b4924e"/></linearGradient></defs><path d="M208.0923,108.1626c.0879-5.2246-.8359-9.1436-2.7808-11.7568-1.9448-2.6113-4.373-4.2324-7.2759-4.8643-2.9072-.6299-6.0225-.3115-9.3467.9482-3.3281,1.2637-6.3247,3.0674-8.998,5.4072-6.2422,5.4082-11.2329,12.3018-14.9766,20.6826-3.7485,8.3809-6.2178,17.165-7.416,26.3555-1.1982,9.1919-1.1338,18.3403.2021,27.438,1.3315,9.0996,4.0454,16.9844,8.1426,23.6484,2.6064,4.3242,5.6934,7.5254,9.2568,9.5938,3.564,2.0723,7.3374,3.2422,11.3232,3.5117,3.9824.2695,7.9067-.3613,11.7729-1.8945,3.8623-1.5293,7.3037-3.8281,10.3296-6.8945,4.6216-4.6855,8.3638-8.0195,11.2256-10.0059,2.8579-1.9805,6.0962-3.0625,9.7144-3.2441,10.313-.0039,17.1899,2.8809,20.6387,8.6445,3.4453,5.7676,3.792,12.7949,1.0425,21.084-2.2412,6.4863-5.7183,12.1641-10.4258,17.0312-4.7119,4.8672-10.208,8.7871-16.4878,11.7617-6.2837,2.9746-13.0327,5.0508-20.2471,6.2227-7.2178,1.1699-14.3574,1.4883-21.4229.9512-7.0659-.5391-13.7871-2.0254-20.1602-4.457-6.377-2.4297-11.8618-5.7148-16.4536-9.8613-5.1479-4.6836-9.6714-10.041-13.5757-16.0801-3.9033-6.0352-7.1812-12.4336-9.8296-19.1895-2.6523-6.7578-4.6733-13.7852-6.063-21.084-1.3936-7.2969-2.1519-14.6367-2.2793-22.0273.0742-16.5786,3.3252-32.6157,9.7539-48.1177,6.4238-15.4971,15.0576-29.0137,25.8965-40.5527,4.9727-5.2246,10.9131-9.6865,17.8164-13.3838,6.8994-3.6924,14.0073-6.0859,21.3164-7.167,7.3086-1.083,14.5068-.7217,21.5938,1.0752,7.0874,1.8018,13.3945,5.585,18.9219,11.3486,4.2344,4.3242,7.666,9.2812,10.2979,14.8643,2.6279,5.5869,4.6245,11.1758,5.9883,16.7578.7832,3.6064,1.1602,7.0283,1.1274,10.2715-.0376,3.2441-.752,6.3096-2.1484,9.1914-1.9307,3.6064-4.9609,6.1758-9.0942,7.7061-4.1377,1.5332-8.2427,2.0283-12.3228,1.4883-4.0801-.5391-7.6353-2.1133-10.666-4.7275-3.0298-2.6094-4.4951-6.1699-4.3906-10.6758Z" fill="none" stroke="#000" stroke-miterlimit="10" stroke-width="41"/><path d="M208.0923,108.1626c.0879-5.2246-.8359-9.1436-2.7808-11.7568-1.9448-2.6113-4.373-4.2324-7.2759-4.8643-2.9072-.6299-6.0225-.3115-9.3467.9482-3.3281,1.2637-6.3247,3.0674-8.998,5.4072-6.2422,5.4082-11.2329,12.3018-14.9766,20.6826-3.7485,8.3809-6.2178,17.165-7.416,26.3555-1.1982,9.1919-1.1338,18.3403.2021,27.438,1.3315,9.0996,4.0454,16.9844,8.1426,23.6484,2.6064,4.3242,5.6934,7.5254,9.2568,9.5938,3.564,2.0723,7.3374,3.2422,11.3232,3.5117,3.9824.2695,7.9067-.3613,11.7729-1.8945,3.8623-1.5293,7.3037-3.8281,10.3296-6.8945,4.6216-4.6855,8.3638-8.0195,11.2256-10.0059,2.8579-1.9805,6.0962-3.0625,9.7144-3.2441,10.313-.0039,17.1899,2.8809,20.6387,8.6445,3.4453,5.7676,3.792,12.7949,1.0425,21.084-2.2412,6.4863-5.7183,12.1641-10.4258,17.0312-4.7119,4.8672-10.208,8.7871-16.4878,11.7617-6.2837,2.9746-13.0327,5.0508-20.2471,6.2227-7.2178,1.1699-14.3574,1.4883-21.4229.9512-7.0659-.5391-13.7871-2.0254-20.1602-4.457-6.377-2.4297-11.8618-5.7148-16.4536-9.8613-5.1479-4.6836-9.6714-10.041-13.5757-16.0801-3.9033-6.0352-7.1812-12.4336-9.8296-19.1895-2.6523-6.7578-4.6733-13.7852-6.063-21.084-1.3936-7.2969-2.1519-14.6367-2.2793-22.0273.0742-16.5786,3.3252-32.6157,9.7539-48.1177,6.4238-15.4971,15.0576-29.0137,25.8965-40.5527,4.9727-5.2246,10.9131-9.6865,17.8164-13.3838,6.8994-3.6924,14.0073-6.0859,21.3164-7.167,7.3086-1.083,14.5068-.7217,21.5938,1.0752,7.0874,1.8018,13.3945,5.585,18.9219,11.3486,4.2344,4.3242,7.666,9.2812,10.2979,14.8643,2.6279,5.5869,4.6245,11.1758,5.9883,16.7578.7832,3.6064,1.1602,7.0283,1.1274,10.2715-.0376,3.2441-.752,6.3096-2.1484,9.1914-1.9307,3.6064-4.9609,6.1758-9.0942,7.7061-4.1377,1.5332-8.2427,2.0283-12.3228,1.4883-4.0801-.5391-7.6353-2.1133-10.666-4.7275-3.0298-2.6094-4.4951-6.1699-4.3906-10.6758Z" fill="url(#uuid-fcf458f1-e1f2-4238-8dff-5741c93b1a57)" stroke-width="0"/><path d="M140.1895,69.6577c.1113,2.0386.2256,4.1357.3398,6.2861.1113,2.1528.0264,4.1357-.2549,5.9463-.2842,1.813-.7646,3.3711-1.4443,4.6719-.6797,1.3037-1.7578,2.124-3.2275,2.4634-.7939.2285-2.6924.3398-5.6924.3398-3.002,0-6.5986-.1113-10.7881-.3398.1113,2.9468.1963,5.9199.2549,8.9194.0557,3.0024.1406,6.0312.2549,9.0894-.2285.9082-.624,1.6436-1.1895,2.209-.5674.5679-1.3877,1.0776-2.4629,1.5288-1.0781.4541-2.6338.7939-4.6719,1.0195-1.9277.228-3.9375.4248-6.0312.5947-2.0977.1699-4.0508.1699-5.8613,0-1.8135-.1699-3.3984-.5947-4.7578-1.2744-1.3584-.6797-2.208-1.7549-2.5479-3.228-.2285-1.0195-.3691-3.3979-.4248-7.1353-.0586-3.7378.0264-8.1553.2549-13.252-2.7188-.2256-5.2666-.3955-7.6455-.5098-2.3779-.1113-4.417-.2256-6.1162-.3398-2.0381-.1113-3.9072-.2256-5.6064-.3398-.5684.1143-1.0771-.0557-1.5293-.5093-.3389-.3398-.6787-.876-1.0186-1.6143-.3398-.7354-.5098-1.8955-.5098-3.4829-.1143-1.5845-.1992-3.4243-.2549-5.5215-.0586-2.0942-.0586-4.0771,0-5.9463.0557-1.8687.2549-3.4829.5947-4.8418.3398-1.3594.9053-2.0947,1.6982-2.2085l21.917-.3398c.2256-2.6045.4512-4.9829.6797-7.1357.2256-2.1504.4512-4.019.6787-5.6064.2256-1.9243.3955-3.6792.5098-5.2666-.1143-.4512.0557-.9053.5098-1.3594.3398-.3398.9053-.6792,1.6992-1.019.791-.3398,1.9805-.5098,3.5674-.5098,1.585,0,3.4248.0293,5.5215.085,2.0947.0581,4.0781.1699,5.9463.3398,1.8691.1699,3.4834.4536,4.8428.8491,1.3584.3984,2.0381.9932,2.0381,1.7842-.1143,2.9463-.1992,5.8906-.2549,8.8345-.0576,2.9463-.085,5.8906-.085,8.8345l16.3105-.1699c.791.228,1.5283.6235,2.208,1.189.5654.5684,1.0752,1.3887,1.5293,2.4639.4512,1.0776.791,2.5776,1.0195,4.502Z" fill="none" stroke="#000" stroke-miterlimit="10" stroke-width="41"/><path d="M140.1895,69.6577c.1113,2.0386.2256,4.1357.3398,6.2861.1113,2.1528.0264,4.1357-.2549,5.9463-.2842,1.813-.7646,3.3711-1.4443,4.6719-.6797,1.3037-1.7578,2.124-3.2275,2.4634-.7939.2285-2.6924.3398-5.6924.3398-3.002,0-6.5986-.1113-10.7881-.3398.1113,2.9468.1963,5.9199.2549,8.9194.0557,3.0024.1406,6.0312.2549,9.0894-.2285.9082-.624,1.6436-1.1895,2.209-.5674.5679-1.3877,1.0776-2.4629,1.5288-1.0781.4541-2.6338.7939-4.6719,1.0195-1.9277.228-3.9375.4248-6.0312.5947-2.0977.1699-4.0508.1699-5.8613,0-1.8135-.1699-3.3984-.5947-4.7578-1.2744-1.3584-.6797-2.208-1.7549-2.5479-3.228-.2285-1.0195-.3691-3.3979-.4248-7.1353-.0586-3.7378.0264-8.1553.2549-13.252-2.7188-.2256-5.2666-.3955-7.6455-.5098-2.3779-.1113-4.417-.2256-6.1162-.3398-2.0381-.1113-3.9072-.2256-5.6064-.3398-.5684.1143-1.0771-.0557-1.5293-.5093-.3389-.3398-.6787-.876-1.0186-1.6143-.3398-.7354-.5098-1.8955-.5098-3.4829-.1143-1.5845-.1992-3.4243-.2549-5.5215-.0586-2.0942-.0586-4.0771,0-5.9463.0557-1.8687.2549-3.4829.5947-4.8418.3398-1.3594.9053-2.0947,1.6982-2.2085l21.917-.3398c.2256-2.6045.4512-4.9829.6797-7.1357.2256-2.1504.4512-4.019.6787-5.6064.2256-1.9243.3955-3.6792.5098-5.2666-.1143-.4512.0557-.9053.5098-1.3594.3398-.3398.9053-.6792,1.6992-1.019.791-.3398,1.9805-.5098,3.5674-.5098,1.585,0,3.4248.0293,5.5215.085,2.0947.0581,4.0781.1699,5.9463.3398,1.8691.1699,3.4834.4536,4.8428.8491,1.3584.3984,2.0381.9932,2.0381,1.7842-.1143,2.9463-.1992,5.8906-.2549,8.8345-.0576,2.9463-.085,5.8906-.085,8.8345l16.3105-.1699c.791.228,1.5283.6235,2.208,1.189.5654.5684,1.0752,1.3887,1.5293,2.4639.4512,1.0776.791,2.5776,1.0195,4.502Z" fill="#f05356" stroke-width="0"/></svg>