<?xml version="1.0" encoding="UTF-8"?><svg id="uuid-f5b600c8-288e-4c70-ba1f-50ae1be33a91" xmlns="http://www.w3.org/2000/svg" width="280" height="280" xmlns:xlink="http://www.w3.org/1999/xlink" viewBox="0 0 280 280"><defs><linearGradient id="uuid-544c249c-703d-42a1-8380-6a9faa67c141" x1="98.4704" y1="237.6946" x2="98.4704" y2="51.7598" gradientUnits="userSpaceOnUse"><stop offset="0" stop-color="#7d67a2"/><stop offset=".5" stop-color="#8e5ba6"/><stop offset="1" stop-color="#a25d99"/></linearGradient><linearGradient id="uuid-658b672c-7aed-4d00-9da2-39619e0ca770" x1="839.0843" y1="-138.9893" x2="839.0843" y2="-322.5122" gradientTransform="translate(-612.0697 472.7735) rotate(-6.6231) skewX(1)" gradientUnits="userSpaceOnUse"><stop offset="0" stop-color="#7e9e4c"/><stop offset=".5" stop-color="#91a23d"/><stop offset="1" stop-color="#b4924e"/></linearGradient></defs><path d="M126.2517,58.356c6.1877,3.5845,11.4824,7.9819,15.8799,13.1924,4.3975,5.2144,8.1001,10.9136,11.1157,17.1016,3.012,6.1914,5.4131,12.7456,7.207,19.6665,1.7903,6.9243,3.176,13.8872,4.1533,20.8877,2.2788,13.8452,3.5806,27.8506,3.9087,42.0205.3245,14.1689.0803,28.4229-.7329,42.7529-.3281,4.0732-.6526,7.4131-.9771,10.0166-.3284,2.6074-.9392,4.7256-1.8323,6.3516-.8972,1.6299-2.1606,2.9316-3.7869,3.9092-1.6299.9766-3.9089,1.8701-6.8406,2.6875-2.7712.3242-5.6609.5684-8.6726.7324-3.0156.1602-5.8252-.6523-8.4287-2.4434-2.4429-1.626-4.4814-4.3975-6.1074-8.3057-1.6301-3.9092-2.5271-9.5283-2.6875-16.8574v-2.4424c-4.073-.4893-8.917-.8936-14.5361-1.2217-5.6189-.3252-11.3601-.5273-17.2234-.6113-5.8633-.0801-11.5244-.1221-16.9792-.1221h-13.8032c-.1641,1.4658-.3665,3.9092-.6106,7.3291-.2444,3.4209-.7749,6.8408-1.5881,10.2607-.8169,3.4209-1.9163,6.5166-3.2981,9.2842-1.3855,2.7705-3.2981,4.2334-5.741,4.3975-2.2827.1602-4.8862.3242-7.8179.4883-2.9316.1602-5.7832-.1641-8.5505-.9775-2.7715-.6484-5.0923-1.9541-6.9629-3.9082-1.8743-1.9551-2.8933-5.0469-3.0537-9.2842,0-5.0459.0801-10.8291.2444-17.3457.1602-6.5117.4885-13.5967.9771-21.2539.3245-6.3525.8552-13.3145,1.5881-20.8887.7329-7.5732,1.7903-15.3481,3.176-23.3301,1.3818-7.978,3.1758-15.96,5.3745-23.9419,2.1987-7.978,4.9663-15.5518,8.3064-22.7202,3.3364-7.165,7.2871-13.7612,11.8489-19.7891,4.5576-6.0234,10.0164-11.0737,16.3684-15.1465,7.4893-4.7222,15.7156-7.085,24.6746-7.085s17.4258,2.1987,25.4077,6.5962ZM66.8857,169.5137c10.2607-.8125,20.4797-1.4238,30.6602-1.832,10.177-.4043,20.3994-.4463,30.6604-.1221.4885-11.5625,0-21.9028-1.4658-31.0264-1.4658-9.1191-3.5044-16.8149-6.1077-23.0864-2.6072-6.2681-5.7031-11.0742-9.2837-14.4141-3.5842-3.3364-7.249-5.0083-10.9937-5.0083-3.26,0-6.6382,1.6719-10.1387,5.0083-3.5042,3.3398-6.7603,8.2261-9.7722,14.6582-3.0156,6.436-5.741,14.376-8.1841,23.8198-2.4431,9.4478-4.2371,20.1162-5.3748,32.0029Z" fill="none" stroke="#000" stroke-miterlimit="10" stroke-width="41"/><path d="M126.2517,58.356c6.1877,3.5845,11.4824,7.9819,15.8799,13.1924,4.3975,5.2144,8.1001,10.9136,11.1157,17.1016,3.012,6.1914,5.4131,12.7456,7.207,19.6665,1.7903,6.9243,3.176,13.8872,4.1533,20.8877,2.2788,13.8452,3.5806,27.8506,3.9087,42.0205.3245,14.1689.0803,28.4229-.7329,42.7529-.3281,4.0732-.6526,7.4131-.9771,10.0166-.3284,2.6074-.9392,4.7256-1.8323,6.3516-.8972,1.6299-2.1606,2.9316-3.7869,3.9092-1.6299.9766-3.9089,1.8701-6.8406,2.6875-2.7712.3242-5.6609.5684-8.6726.7324-3.0156.1602-5.8252-.6523-8.4287-2.4434-2.4429-1.626-4.4814-4.3975-6.1074-8.3057-1.6301-3.9092-2.5271-9.5283-2.6875-16.8574v-2.4424c-4.073-.4893-8.917-.8936-14.5361-1.2217-5.6189-.3252-11.3601-.5273-17.2234-.6113-5.8633-.0801-11.5244-.1221-16.9792-.1221h-13.8032c-.1641,1.4658-.3665,3.9092-.6106,7.3291-.2444,3.4209-.7749,6.8408-1.5881,10.2607-.8169,3.4209-1.9163,6.5166-3.2981,9.2842-1.3855,2.7705-3.2981,4.2334-5.741,4.3975-2.2827.1602-4.8862.3242-7.8179.4883-2.9316.1602-5.7832-.1641-8.5505-.9775-2.7715-.6484-5.0923-1.9541-6.9629-3.9082-1.8743-1.9551-2.8933-5.0469-3.0537-9.2842,0-5.0459.0801-10.8291.2444-17.3457.1602-6.5117.4885-13.5967.9771-21.2539.3245-6.3525.8552-13.3145,1.5881-20.8887.7329-7.5732,1.7903-15.3481,3.176-23.3301,1.3818-7.978,3.1758-15.96,5.3745-23.9419,2.1987-7.978,4.9663-15.5518,8.3064-22.7202,3.3364-7.165,7.2871-13.7612,11.8489-19.7891,4.5576-6.0234,10.0164-11.0737,16.3684-15.1465,7.4893-4.7222,15.7156-7.085,24.6746-7.085s17.4258,2.1987,25.4077,6.5962ZM66.8857,169.5137c10.2607-.8125,20.4797-1.4238,30.6602-1.832,10.177-.4043,20.3994-.4463,30.6604-.1221.4885-11.5625,0-21.9028-1.4658-31.0264-1.4658-9.1191-3.5044-16.8149-6.1077-23.0864-2.6072-6.2681-5.7031-11.0742-9.2837-14.4141-3.5842-3.3364-7.249-5.0083-10.9937-5.0083-3.26,0-6.6382,1.6719-10.1387,5.0083-3.5042,3.3398-6.7603,8.2261-9.7722,14.6582-3.0156,6.436-5.741,14.376-8.1841,23.8198-2.4431,9.4478-4.2371,20.1162-5.3748,32.0029Z" fill="url(#uuid-544c249c-703d-42a1-8380-6a9faa67c141)" stroke-width="0"/><path d="M213.79,106.4629c.0801-4.7583-.762-8.3286-2.5332-10.7095-1.7715-2.377-3.9829-3.8535-6.6272-4.4302-2.6479-.5723-5.4856-.2832-8.5134.8638-3.0315,1.1509-5.761,2.7944-8.196,4.9258-5.6855,4.9258-10.2317,11.2051-13.6416,18.8384-3.4141,7.6333-5.6628,15.6362-6.7546,24.0068-1.0916,8.3716-1.0327,16.7041.1841,24.9902,1.2129,8.2891,3.6853,15.4717,7.4167,21.541,2.3738,3.9385,5.1858,6.8545,8.4319,8.7393,3.2461,1.8867,6.6826,2.9531,10.3137,3.1982,3.6274.2451,7.2017-.3291,10.7234-1.7266,3.5178-1.3926,6.6526-3.4863,9.4087-6.2803,4.2097-4.2666,7.6182-7.3027,10.2251-9.1123,2.603-1.8047,5.5525-2.79,8.8479-2.957,9.3936-.002,15.6575,2.625,18.7993,7.875,3.1382,5.2539,3.4534,11.6553.9495,19.2041-2.0417,5.9092-5.2087,11.0801-9.4968,15.5137-4.2917,4.4326-9.2976,8.0039-15.0176,10.7139-5.7236,2.71-11.8711,4.5996-18.4421,5.666-6.5747,1.0684-13.0779,1.3574-19.5137.8672-6.4353-.4912-12.5576-1.8438-18.3625-4.0586-5.8086-2.2148-10.8042-5.2061-14.9868-8.9834-4.689-4.2646-8.8096-9.1455-12.3652-14.6465-3.5557-5.4971-6.5413-11.3242-8.9534-17.4785-2.416-6.1543-4.2571-12.5557-5.5227-19.2031-1.2693-6.6475-1.9604-13.333-2.0764-20.0654.0676-15.0991,3.0293-29.7075,8.8845-43.8276,5.8513-14.1152,13.7153-26.4277,23.5881-36.936,4.5295-4.7603,9.9402-8.8242,16.2283-12.1919,6.2842-3.3638,12.7585-5.5425,19.4158-6.5288,6.6575-.9858,13.2139-.6572,19.6692.9805,6.4553,1.6411,12.2004,5.0864,17.2351,10.3369,3.8567,3.9385,6.9822,8.4541,9.3799,13.5391,2.3933,5.0889,4.2117,10.1792,5.4541,15.2642.7136,3.2852,1.0569,6.4014,1.0269,9.3555-.0342,2.9546-.6848,5.7476-1.9568,8.3721-1.7588,3.2852-4.5186,5.625-8.2837,7.019-3.7686,1.3965-7.5073,1.8477-11.2239,1.3564-3.7166-.4917-6.9548-1.9258-9.7151-4.3071-2.7603-2.3765-4.0947-5.6191-3.9993-9.7241Z" fill="none" stroke="#000" stroke-miterlimit="10" stroke-width="41"/><path d="M213.79,106.4629c.0801-4.7583-.762-8.3286-2.5332-10.7095-1.7715-2.377-3.9829-3.8535-6.6272-4.4302-2.6479-.5723-5.4856-.2832-8.5134.8638-3.0315,1.1509-5.761,2.7944-8.196,4.9258-5.6855,4.9258-10.2317,11.2051-13.6416,18.8384-3.4141,7.6333-5.6628,15.6362-6.7546,24.0068-1.0916,8.3716-1.0327,16.7041.1841,24.9902,1.2129,8.2891,3.6853,15.4717,7.4167,21.541,2.3738,3.9385,5.1858,6.8545,8.4319,8.7393,3.2461,1.8867,6.6826,2.9531,10.3137,3.1982,3.6274.2451,7.2017-.3291,10.7234-1.7266,3.5178-1.3926,6.6526-3.4863,9.4087-6.2803,4.2097-4.2666,7.6182-7.3027,10.2251-9.1123,2.603-1.8047,5.5525-2.79,8.8479-2.957,9.3936-.002,15.6575,2.625,18.7993,7.875,3.1382,5.2539,3.4534,11.6553.9495,19.2041-2.0417,5.9092-5.2087,11.0801-9.4968,15.5137-4.2917,4.4326-9.2976,8.0039-15.0176,10.7139-5.7236,2.71-11.8711,4.5996-18.4421,5.666-6.5747,1.0684-13.0779,1.3574-19.5137.8672-6.4353-.4912-12.5576-1.8438-18.3625-4.0586-5.8086-2.2148-10.8042-5.2061-14.9868-8.9834-4.689-4.2646-8.8096-9.1455-12.3652-14.6465-3.5557-5.4971-6.5413-11.3242-8.9534-17.4785-2.416-6.1543-4.2571-12.5557-5.5227-19.2031-1.2693-6.6475-1.9604-13.333-2.0764-20.0654.0676-15.0991,3.0293-29.7075,8.8845-43.8276,5.8513-14.1152,13.7153-26.4277,23.5881-36.936,4.5295-4.7603,9.9402-8.8242,16.2283-12.1919,6.2842-3.3638,12.7585-5.5425,19.4158-6.5288,6.6575-.9858,13.2139-.6572,19.6692.9805,6.4553,1.6411,12.2004,5.0864,17.2351,10.3369,3.8567,3.9385,6.9822,8.4541,9.3799,13.5391,2.3933,5.0889,4.2117,10.1792,5.4541,15.2642.7136,3.2852,1.0569,6.4014,1.0269,9.3555-.0342,2.9546-.6848,5.7476-1.9568,8.3721-1.7588,3.2852-4.5186,5.625-8.2837,7.019-3.7686,1.3965-7.5073,1.8477-11.2239,1.3564-3.7166-.4917-6.9548-1.9258-9.7151-4.3071-2.7603-2.3765-4.0947-5.6191-3.9993-9.7241Z" fill="url(#uuid-658b672c-7aed-4d00-9da2-39619e0ca770)" stroke-width="0"/></svg>