<?xml version="1.0" encoding="UTF-8"?><svg id="uuid-b40d6fe9-11cf-437c-96c1-ea097a1ace2a" xmlns="http://www.w3.org/2000/svg" width="280" height="280" xmlns:xlink="http://www.w3.org/1999/xlink" viewBox="0 0 280 280"><defs><linearGradient id="uuid-bcffe35a-1e16-4157-8d91-88ad8c5d838f" x1="175.9589" y1="247.4707" x2="175.9589" y2="41.0042" gradientUnits="userSpaceOnUse"><stop offset="0" stop-color="#2d7f98"/><stop offset=".5" stop-color="#008c8d"/><stop offset="1" stop-color="#1f9276"/></linearGradient></defs><path d="M222.2886,139.7427c7.9888,6.1758,13.9341,13.8491,17.8413,23.0171,3.9028,9.1719,5.1289,18.6582,3.6772,28.4648-1.6343,11.0781-5.9927,20.3867-13.0747,27.9199-7.082,7.5371-15.4365,13.4824-25.0596,17.8418-9.6274,4.3574-20.021,7.2656-31.189,8.7168s-21.6548,1.6328-31.4609.5449c-.9106.3613-1.728.5859-2.4512.6797-.728.0898-1.5449.2266-2.4517.4082-3.2686.1797-6.6309.1797-10.0786,0-3.4517-.1816-6.584-.7734-9.3975-1.7695-2.8174-.9961-5.2222-2.6309-7.2183-4.9023-2-2.2695-3.1792-5.4922-3.541-9.6699-.3657-1.9961-.4551-6.0352-.2725-12.123.1787-6.082.3618-13.4824.5449-22.1992.3618-8.8945.6812-18.5645.9536-29.0098.272-10.4395.4976-20.9263.6807-31.4604.1787-13.7979.3618-27.6904.5449-41.6758.1787-13.9814-.3662-28.0557-1.6343-42.2197-.3662-1.6348-.1831-3.0859.5444-4.3584.3618-1.0898,1.1792-2.1328,2.4517-3.1328,1.2686-.9961,3.1753-1.6768,5.7202-2.043,1.813-.1787,3.8135-.4512,5.9927-.8174,2.1792-.3613,4.4478-.6338,6.8096-.8164,2.3579-.1787,4.6309-.1787,6.8101,0,2.1787.1826,4.0854.5439,5.7197,1.0889,9.2617-1.2676,18.9736-1.3145,29.146-.1357,10.1675,1.1826,19.748,3.5879,28.7368,7.2178,8.9893,3.6348,16.7949,8.4912,23.4258,14.5732,6.6265,6.0859,11.0317,13.4834,13.2109,22.2002.9062,3.8135,1.4512,7.8096,1.6343,11.9844.1787,4.1797-.2725,8.4912-1.3618,12.9385-1.0898,4.4521-2.8604,9.083-5.312,13.8926-2.4512,4.8135-5.7666,9.7627-9.9419,14.8447ZM151.4673,123.6714c8.7163.3662,16.0708-.5439,22.0635-2.7236,5.9927-2.1787,10.4868-5.0391,13.4834-8.5801,2.9961-3.541,4.4473-7.3975,4.3579-11.5762-.0933-4.1758-1.6812-7.8994-4.7666-11.168-3.0898-3.2695-7.7207-5.7627-13.8921-7.4912-6.1753-1.7236-13.9854-1.9492-23.4253-.6807.5449,7.082.9531,14.0742,1.2256,20.9736.2725,6.9033.5874,13.9854.9536,21.2461ZM152.2842,202.6641c9.8062,1.0898,18.0674.6387,24.7876-1.3613,6.7163-1.9961,11.7554-4.7207,15.1177-8.1719,3.3579-3.4473,5.0815-7.1719,5.1753-11.168.0894-3.9922-1.498-7.4434-4.7666-10.3496-3.269-2.9043-8.2656-4.8574-14.9814-5.8574-6.7207-.9961-15.1646-.3145-25.3325,2.043v34.8652Z" fill="none" stroke="#000" stroke-miterlimit="10" stroke-width="41"/><path d="M222.2886,139.7427c7.9888,6.1758,13.9341,13.8491,17.8413,23.0171,3.9028,9.1719,5.1289,18.6582,3.6772,28.4648-1.6343,11.0781-5.9927,20.3867-13.0747,27.9199-7.082,7.5371-15.4365,13.4824-25.0596,17.8418-9.6274,4.3574-20.021,7.2656-31.189,8.7168s-21.6548,1.6328-31.4609.5449c-.9106.3613-1.728.5859-2.4512.6797-.728.0898-1.5449.2266-2.4517.4082-3.2686.1797-6.6309.1797-10.0786,0-3.4517-.1816-6.584-.7734-9.3975-1.7695-2.8174-.9961-5.2222-2.6309-7.2183-4.9023-2-2.2695-3.1792-5.4922-3.541-9.6699-.3657-1.9961-.4551-6.0352-.2725-12.123.1787-6.082.3618-13.4824.5449-22.1992.3618-8.8945.6812-18.5645.9536-29.0098.272-10.4395.4976-20.9263.6807-31.4604.1787-13.7979.3618-27.6904.5449-41.6758.1787-13.9814-.3662-28.0557-1.6343-42.2197-.3662-1.6348-.1831-3.0859.5444-4.3584.3618-1.0898,1.1792-2.1328,2.4517-3.1328,1.2686-.9961,3.1753-1.6768,5.7202-2.043,1.813-.1787,3.8135-.4512,5.9927-.8174,2.1792-.3613,4.4478-.6338,6.8096-.8164,2.3579-.1787,4.6309-.1787,6.8101,0,2.1787.1826,4.0854.5439,5.7197,1.0889,9.2617-1.2676,18.9736-1.3145,29.146-.1357,10.1675,1.1826,19.748,3.5879,28.7368,7.2178,8.9893,3.6348,16.7949,8.4912,23.4258,14.5732,6.6265,6.0859,11.0317,13.4834,13.2109,22.2002.9062,3.8135,1.4512,7.8096,1.6343,11.9844.1787,4.1797-.2725,8.4912-1.3618,12.9385-1.0898,4.4521-2.8604,9.083-5.312,13.8926-2.4512,4.8135-5.7666,9.7627-9.9419,14.8447ZM151.4673,123.6714c8.7163.3662,16.0708-.5439,22.0635-2.7236,5.9927-2.1787,10.4868-5.0391,13.4834-8.5801,2.9961-3.541,4.4473-7.3975,4.3579-11.5762-.0933-4.1758-1.6812-7.8994-4.7666-11.168-3.0898-3.2695-7.7207-5.7627-13.8921-7.4912-6.1753-1.7236-13.9854-1.9492-23.4253-.6807.5449,7.082.9531,14.0742,1.2256,20.9736.2725,6.9033.5874,13.9854.9536,21.2461ZM152.2842,202.6641c9.8062,1.0898,18.0674.6387,24.7876-1.3613,6.7163-1.9961,11.7554-4.7207,15.1177-8.1719,3.3579-3.4473,5.0815-7.1719,5.1753-11.168.0894-3.9922-1.498-7.4434-4.7666-10.3496-3.269-2.9043-8.2656-4.8574-14.9814-5.8574-6.7207-.9961-15.1646-.3145-25.3325,2.043v34.8652Z" fill="url(#uuid-bcffe35a-1e16-4157-8d91-88ad8c5d838f)" stroke-width="0"/></svg>