<?xml version="1.0" encoding="UTF-8"?><svg id="uuid-f3b51134-8b69-4725-b6c4-45a18f1d1889" xmlns="http://www.w3.org/2000/svg" width="280" height="280" xmlns:xlink="http://www.w3.org/1999/xlink" viewBox="0 0 280 280"><defs><linearGradient id="uuid-c13edd56-709e-4dc2-a125-7de74bbd46b8" x1="167.1404" y1="252.6488" x2="167.1404" y2="47.6484" gradientUnits="userSpaceOnUse"><stop offset="0" stop-color="#7d67a2"/><stop offset=".5" stop-color="#8e5ba6"/><stop offset="1" stop-color="#a25d99"/></linearGradient></defs><path d="M197.77,54.9209c6.8223,3.9512,12.6597,8.7998,17.5083,14.5449,4.8481,5.749,8.9307,12.0322,12.2554,18.8545,3.3208,6.8262,5.9683,14.0527,7.9463,21.6836,1.9736,7.6338,3.5015,15.3105,4.5786,23.0293,2.5127,15.2646,3.9478,30.7061,4.3101,46.3291.3574,15.6221.0884,31.3379-.8081,47.1367-.3623,4.4912-.7197,8.1738-1.0776,11.0439-.3618,2.874-1.0352,5.21-2.02,7.0029-.9893,1.7969-2.3823,3.2324-4.1748,4.3096-1.7974,1.0781-4.3101,2.0625-7.542,2.9629-3.0557.3584-6.2417.627-9.562.8086-3.3252.1768-6.4229-.7197-9.293-2.6934-2.6934-1.793-4.9409-4.8486-6.7339-9.1582-1.7969-4.3096-2.7861-10.5049-2.9629-18.5859v-2.6934c-4.4907-.5391-9.8315-.9844-16.0264-1.3467-6.1953-.3574-12.5254-.5811-18.9897-.6738-6.4644-.0879-12.7061-.1348-18.7202-.1348h-15.2183c-.1812,1.6162-.4043,4.3105-.6733,8.0811-.2695,3.7705-.8545,7.542-1.751,11.3125-.9004,3.7715-2.1128,7.1846-3.6362,10.2363-1.5278,3.0547-3.6362,4.667-6.3301,4.8477-2.5166.1768-5.3867.3584-8.6191.5391-3.2324.1768-6.376-.1807-9.4272-1.0771-3.0557-.7158-5.6143-2.1553-7.6768-4.3096-2.0664-2.1553-3.1899-5.5645-3.3667-10.2363,0-5.5635.0884-11.9395.269-19.124.1768-7.1797.5386-14.9912,1.0776-23.4336.3574-7.0029.9424-14.6797,1.7505-23.0293.8081-8.3506,1.9741-16.9238,3.502-25.7236,1.5234-8.7959,3.5015-17.5967,5.9258-26.3965,2.4238-8.7969,5.4751-17.1465,9.1577-25.0508,3.6787-7.8994,8.0347-15.1719,13.064-21.8174,5.0249-6.6416,11.0435-12.209,18.0469-16.7002,8.2573-5.2061,17.3267-7.8105,27.2046-7.8105s19.2124,2.4238,28.0127,7.2725ZM132.3169,177.4766c11.313-.8965,22.5796-1.5693,33.8042-2.0195,11.2202-.4463,22.4912-.4932,33.8037-.1348.5391-12.748,0-24.1494-1.6157-34.208-1.6162-10.0547-3.8638-18.5391-6.7339-25.4541-2.8745-6.9111-6.2881-12.21-10.2358-15.8916-3.9517-3.6787-7.9922-5.5225-12.1206-5.5225-3.5942,0-7.3188,1.8438-11.1782,5.5225-3.8638,3.6816-7.4536,9.0693-10.7744,16.1611-3.3247,7.0957-6.3296,15.8496-9.0234,26.2617-2.6934,10.416-4.6714,22.1797-5.9258,35.2852Z" fill="none" stroke="#000" stroke-miterlimit="10" stroke-width="41"/><path d="M197.77,54.9209c6.8223,3.9512,12.6597,8.7998,17.5083,14.5449,4.8481,5.749,8.9307,12.0322,12.2554,18.8545,3.3208,6.8262,5.9683,14.0527,7.9463,21.6836,1.9736,7.6338,3.5015,15.3105,4.5786,23.0293,2.5127,15.2646,3.9478,30.7061,4.3101,46.3291.3574,15.6221.0884,31.3379-.8081,47.1367-.3623,4.4912-.7197,8.1738-1.0776,11.0439-.3618,2.874-1.0352,5.21-2.02,7.0029-.9893,1.7969-2.3823,3.2324-4.1748,4.3096-1.7974,1.0781-4.3101,2.0625-7.542,2.9629-3.0557.3584-6.2417.627-9.562.8086-3.3252.1768-6.4229-.7197-9.293-2.6934-2.6934-1.793-4.9409-4.8486-6.7339-9.1582-1.7969-4.3096-2.7861-10.5049-2.9629-18.5859v-2.6934c-4.4907-.5391-9.8315-.9844-16.0264-1.3467-6.1953-.3574-12.5254-.5811-18.9897-.6738-6.4644-.0879-12.7061-.1348-18.7202-.1348h-15.2183c-.1812,1.6162-.4043,4.3105-.6733,8.0811-.2695,3.7705-.8545,7.542-1.751,11.3125-.9004,3.7715-2.1128,7.1846-3.6362,10.2363-1.5278,3.0547-3.6362,4.667-6.3301,4.8477-2.5166.1768-5.3867.3584-8.6191.5391-3.2324.1768-6.376-.1807-9.4272-1.0771-3.0557-.7158-5.6143-2.1553-7.6768-4.3096-2.0664-2.1553-3.1899-5.5645-3.3667-10.2363,0-5.5635.0884-11.9395.269-19.124.1768-7.1797.5386-14.9912,1.0776-23.4336.3574-7.0029.9424-14.6797,1.7505-23.0293.8081-8.3506,1.9741-16.9238,3.502-25.7236,1.5234-8.7959,3.5015-17.5967,5.9258-26.3965,2.4238-8.7969,5.4751-17.1465,9.1577-25.0508,3.6787-7.8994,8.0347-15.1719,13.064-21.8174,5.0249-6.6416,11.0435-12.209,18.0469-16.7002,8.2573-5.2061,17.3267-7.8105,27.2046-7.8105s19.2124,2.4238,28.0127,7.2725ZM132.3169,177.4766c11.313-.8965,22.5796-1.5693,33.8042-2.0195,11.2202-.4463,22.4912-.4932,33.8037-.1348.5391-12.748,0-24.1494-1.6157-34.208-1.6162-10.0547-3.8638-18.5391-6.7339-25.4541-2.8745-6.9111-6.2881-12.21-10.2358-15.8916-3.9517-3.6787-7.9922-5.5225-12.1206-5.5225-3.5942,0-7.3188,1.8438-11.1782,5.5225-3.8638,3.6816-7.4536,9.0693-10.7744,16.1611-3.3247,7.0957-6.3296,15.8496-9.0234,26.2617-2.6934,10.416-4.6714,22.1797-5.9258,35.2852Z" fill="url(#uuid-c13edd56-709e-4dc2-a125-7de74bbd46b8)" stroke-width="0"/><path d="M123.0565,82.6523c.1392,2.5449.2817,5.1631.4242,7.8477.1392,2.6875.0331,5.1631-.3181,7.4229-.3546,2.2637-.9545,4.209-1.8027,5.832-.8484,1.6279-2.1938,2.6514-4.0297,3.0762-.9908.2842-3.3602.4238-7.105.4238-3.7479,0-8.2383-.1396-13.4675-.4238.1392,3.6777.2452,7.3896.3181,11.1338.0696,3.748.1757,7.5293.3181,11.3467-.2849,1.1338-.7787,2.0518-1.4845,2.7578-.7092.709-1.7332,1.3447-3.0753,1.9082-1.3455.5664-3.2874.9912-5.8324,1.2725-2.4059.2852-4.9144.5303-7.5291.7422-2.618.2129-5.057.2129-7.317,0-2.2634-.2119-4.2417-.7422-5.9385-1.5898-1.6967-.8486-2.7571-2.1904-3.1813-4.0303-.285-1.2725-.4607-4.2412-.5303-8.9072-.0729-4.666.0332-10.1807.3181-16.543-3.3933-.2812-6.5746-.4941-9.5438-.6367-2.9692-.1387-5.5143-.2812-7.6351-.4238-2.545-.1387-4.8781-.2812-6.9989-.4238-.7092.1426-1.3455-.0703-1.9088-.6367-.4242-.4238-.8484-1.0938-1.2725-2.0146-.4242-.918-.6364-2.3662-.6364-4.3477-.1425-1.9785-.2485-4.2754-.3181-6.8926-.0729-2.6152-.0729-5.0908,0-7.4238.0696-2.333.3181-4.3472.7423-6.0439s1.13-2.6147,2.1208-2.7573l27.3593-.4243c.2817-3.2505.5634-6.2197.8484-8.9072.2816-2.6846.5634-5.0176.8484-6.999.2816-2.4028.4937-4.5933.6362-6.5747-.1426-.5635.0696-1.1299.6362-1.6968.4242-.4243,1.13-.8481,2.1208-1.2725.9875-.4243,2.4722-.6362,4.4539-.6362,1.9784,0,4.2749.0361,6.8928.106,2.6146.0728,5.0901.2119,7.4231.4243,2.3329.2119,4.3478.5664,6.0444,1.0601,1.6967.4971,2.545,1.2397,2.545,2.2271-.1425,3.6782-.2485,7.3535-.3181,11.0288-.0729,3.6782-.1061,7.353-.1061,11.0283l20.3604-.2119c.9875.2847,1.9088.7788,2.7572,1.4844.7058.7095,1.342,1.7334,1.9088,3.0752.5634,1.3457.9874,3.2178,1.2725,5.6201Z" fill="none" stroke="#000" stroke-miterlimit="10" stroke-width="41"/><path d="M123.0565,82.6523c.1392,2.5449.2817,5.1631.4242,7.8477.1392,2.6875.0331,5.1631-.3181,7.4229-.3546,2.2637-.9545,4.209-1.8027,5.832-.8484,1.6279-2.1938,2.6514-4.0297,3.0762-.9908.2842-3.3602.4238-7.105.4238-3.7479,0-8.2383-.1396-13.4675-.4238.1392,3.6777.2452,7.3896.3181,11.1338.0696,3.748.1757,7.5293.3181,11.3467-.2849,1.1338-.7787,2.0518-1.4845,2.7578-.7092.709-1.7332,1.3447-3.0753,1.9082-1.3455.5664-3.2874.9912-5.8324,1.2725-2.4059.2852-4.9144.5303-7.5291.7422-2.618.2129-5.057.2129-7.317,0-2.2634-.2119-4.2417-.7422-5.9385-1.5898-1.6967-.8486-2.7571-2.1904-3.1813-4.0303-.285-1.2725-.4607-4.2412-.5303-8.9072-.0729-4.666.0332-10.1807.3181-16.543-3.3933-.2812-6.5746-.4941-9.5438-.6367-2.9692-.1387-5.5143-.2812-7.6351-.4238-2.545-.1387-4.8781-.2812-6.9989-.4238-.7092.1426-1.3455-.0703-1.9088-.6367-.4242-.4238-.8484-1.0938-1.2725-2.0146-.4242-.918-.6364-2.3662-.6364-4.3477-.1425-1.9785-.2485-4.2754-.3181-6.8926-.0729-2.6152-.0729-5.0908,0-7.4238.0696-2.333.3181-4.3472.7423-6.0439s1.13-2.6147,2.1208-2.7573l27.3593-.4243c.2817-3.2505.5634-6.2197.8484-8.9072.2816-2.6846.5634-5.0176.8484-6.999.2816-2.4028.4937-4.5933.6362-6.5747-.1426-.5635.0696-1.1299.6362-1.6968.4242-.4243,1.13-.8481,2.1208-1.2725.9875-.4243,2.4722-.6362,4.4539-.6362,1.9784,0,4.2749.0361,6.8928.106,2.6146.0728,5.0901.2119,7.4231.4243,2.3329.2119,4.3478.5664,6.0444,1.0601,1.6967.4971,2.545,1.2397,2.545,2.2271-.1425,3.6782-.2485,7.3535-.3181,11.0288-.0729,3.6782-.1061,7.353-.1061,11.0283l20.3604-.2119c.9875.2847,1.9088.7788,2.7572,1.4844.7058.7095,1.342,1.7334,1.9088,3.0752.5634,1.3457.9874,3.2178,1.2725,5.6201Z" fill="#f05356" stroke-width="0"/></svg>