<?xml version="1.0" encoding="UTF-8"?>
<svg id="General" xmlns="http://www.w3.org/2000/svg" xmlns:xlink="http://www.w3.org/1999/xlink" viewBox="0 0 280 280">
  <a xlink:href="https://www.notion.so/dmmnotes/strategy-classes-8a7c14fe23ed4c538323c8563b9ca532?pvs=4">
    <g>
      <g>
        <path d="M101.808843005019298,159.219597556038934c5.302931452841221-5.387707348352706,10.22876542143058-11.120309466516119,15.289103048449761-16.729992742999457,8.588747365971358-9.521131027509909,17.185991635771643-19.034589199198308,25.775835635260592-28.55473447991244,9.424004211719875-10.444645878475058,18.845506909930918-20.891566827602219,28.264558282960934-31.340691034998599,5.545305151479624-6.151738881418169,11.097064179430163-12.297739825388817,16.618602168469806-18.470791987531811,2.155702972078871-2.410073562629805,4.903086984018955-3.393362337322287,8.027445025980342-3.616826776461494,4.288347706038621-.306710908232162,8.613530044569416-.057175109899617,12.86921456627897-.85427818093558l1.956851624199771.297232622317097c.272065930201279.482565725964378,1.249634522369888.082792798409173,1.205137522800214.963562086315505-2.11080611386933,3.206066122133961-4.902597917380263,5.841417924571033-7.45351418736027,8.660764758290497-8.573849298079949,9.476022368408849-17.114260245240075,18.982732202774969-25.663927570109081,28.480192755543612-6.565190083179914,7.292991660599-13.222887399580941,14.502610893312522-19.715982719901149,21.860071712911122-3.506352014799631,3.832898958689839-6.828284661369253,7.837385774600989-10.581404232798377,11.443829609124805-2.022193917620825,1.090905956421921-3.369947138091447,2.927949602818444-4.911882988581056,4.530698217624376-11.228918059779971,11.671722428397516-22.472765619149868,23.329109610212072-33.688783339310248,35.013281850860039-.64411860843029.671001729234376-1.296541097719455,1.353090920062641-2.377494235619452,1.076637670415039-2.432444295620371-1.503430956241573-3.308361089000755-4.100458996260386-4.498249127360396-6.4655937769503-.707210811639015-1.40572819177487-1.075677875329347-2.936101767148102-1.379725484419396-4.475824932947035-.124902866429693-.632522146799602-.346852879010839-1.288099123710708.264216011059034-1.817537370665377Z" fill="none" stroke="#0e1900" stroke-linecap="round" stroke-linejoin="round" stroke-width="32.364997721507699"/>
        <path d="M158.663358364670785,119.762599863992364c2.956453561089802-3.861240532195552,6.417056501550178-7.275777427263165,9.658816187269622-10.883245464235188,13.961617899019984-15.536655437307672,27.951266241620033-31.04808784699253,41.935742697889509-46.56416539377733.43627693515009-.484053929630136.927660889070467-.918380762605011,1.393350651620494-1.375894904946108,1.464833571699273.201571486742068,1.368566150878905,1.436368113206299,1.439863099389186,2.398921609113131.357670056529969,4.829258627418312.835555784869939,9.662199016926934.203627441960634,14.506818338811172-.027047662919358.207433022183068.030654812719149.382864708486522.118195031969663.558870218205811l-.297409381069883,1.958015327688372c-1.929883616250663,4.69348612171234-5.807363730009456,7.873278996975387-9.056216386850792,11.518152569075937-7.257513019880207,8.142178052439704-14.641325969960235,16.171663718927448-21.973679203909342,24.247054375956395-1.458924587630463-.175231846282259-1.967172895929252-1.604670062753939-3.028359570640532-2.323287796737532-1.133947243539296-.767883502648147-2.105004129918598-1.783070799591769-3.085117292659561-2.746478973883313-1.363563960359897-1.340304940850729-2.721738301110236-1.335958242561901-4.242341318400577-.359872497898323-3.597157476839129,2.309035614736786-6.909420747258991,4.99683380256829-10.254251020898664,7.644185637540431-.828683238940357.655872672233272-1.474313307749981,1.746698466460657-2.812220935669757,1.420926955086543Z" fill="none" stroke="#0e1900" stroke-linecap="round" stroke-linejoin="round" stroke-width="32.364997721507699"/>
        <path d="M89.323199855740313,218.331906166496992c-1.15118562473981,1.341546564472083-2.83667939129009,1.521173812292545-4.377319226470718,2.015811480303455l-3.130962598699625-.475572195703535c-4.754064006549015-3.534352197339103-8.875620953889666-7.791366188153006-13.299196728010429-11.702688910941106-.854849295648819-.755842685476637-1.644971498359155-1.713824596546146-1.747487074919263-2.989471375813991,1.015197533130049-.670952592760841,1.918041285900472-.12792133063067,2.767655446379649.335560819363309,1.445696518499972.788674052263559,2.895185996150758,1.573290385927066,4.316044682680513,2.407843556174157.802227043519451.471188469025037,1.649868360398614.823794488243948,2.575700540119215.967637749376991,1.729801960920668.268736288170658,2.019476573939755-.030840969201563,1.664009790179989-1.743016415955935-.080338233619841-.386957300165705-.19958975758891-.766314984981364-.254881098509941-1.15853989358493-.242695859849846-1.72167561835704.185841969039757-2.3321221963688,1.899503727119736-2.5097205914808,1.636714884551111-.169613669484534,3.291438834710789-.176129104367647,4.897536642711202-.601378901177668,1.110068155339832-.053775915504957,1.713936458309036.6030075647177,2.133984982929178,1.519901949885025.12149032456.788992068968582.526044567490317,1.459320858995852.872762128099566,2.162642596981641,1.841631701519873,3.735845246807003,2.556207634361272,7.641911085524953,1.682648786390928,11.770990132573388Z" fill="none" stroke="#0e1900" stroke-linecap="round" stroke-linejoin="round" stroke-width="32.364997721507699"/>
        <path d="M101.808843005019298,159.219597556038934c.471818326810535,4.803480611850318,2.43835606931134,8.933676261026449,5.628180387269822,12.512850884205363.813342730611112.412930336080535,1.467618483729893,1.033110438289441,2.137754554030835,1.634890112596622.824154777730655.788385634840779,1.702750195971021,1.505128031209097,2.685912463020941,2.09168343023066,3.077047530678101,2.075571128099909,6.410713387238502,3.473831334410534,10.111952951669082,3.959927033934036.818831823449727.107539164921036,1.719105065389158.095292492290355,2.318504278700857.848047632992348,2.564975842029526.141465783318381,5.079547485298463-.162298713376003,7.565445290529169-.801072048729111,2.478878314879694-.636966321226282,3.217532396660317-.072927179378894,3.333573044639706,2.509390459694259.12025744210041,2.675989582872717.215861450529701,5.353112848339151.32225175711028,8.029734842521066-1.158916951389983-.665678588914489-2.330328862170063.832730589458151-3.491434358260449-.020419238899194-.701814828958959-1.421463259699522-.459339385839485-2.967658999520609-.519784092019108-4.455134074129091-.056866076671213-1.399255270877802-.572361246209766-1.806900765466708-1.949852415489659-1.652614116726909-3.729541735739986.417753156438266-7.404268047090227.421651351040964-11.119730909591453-.601220725821804-4.660351222210011-1.282998407942614-7.969731777158813-4.452539800348859-11.499748969999928-7.376096618806514-1.059678396459276-.877614350571093-1.965758177610041-1.940836767134897-3.183410016208654-2.626183884836792-2.273025593160128-1.856391634750253-3.347652019279849-4.474493590984821-4.457048480091544-7.066026848638103-.335002638659716-.782579564266598-.711222569309029-1.549399831313167-.979606975430215-2.360691898436926-.754290348839277-2.989278625687803-1.368008241939606-6.004607381047208-1.098080510619184-9.108091887533192.107766908069607-1.239047985177422-.479896470889798-1.387657539191423-1.499198883449935-1.401193293560027-1.934303145189915-.02569273381323-3.889702077300171.650683669608952-5.807039725199502-.136637296321169-.616274790460011-1.065785950682766-1.137393043649354-2.139199321910382-.250987982421066-3.318151088449667,3.133265522330476-.198332819903953,6.264502046131383-.445170695404158,9.400548122181135-.577009160026137,1.914187319969642-.080456575842618,2.55158253153968.732832396888625,2.267287201510044,2.713233463435245-.345734211021409,2.408398603721253-.484285962880676,4.806806769196555.084513268118826,7.200784321305036Z" fill="none" stroke="#0e1900" stroke-linecap="round" stroke-linejoin="round" stroke-width="32.364997721507699"/>
        <path d="M99.129299687829189,164.001678606883615c1.586414577550386,2.987123284109657,2.511596936830756,6.354861490020994,5.053899899090538,8.791758915058381,1.862376689559824,1.926380916293965,3.874827166040632,3.697257978690686,5.78398523271062,5.573218987955443,1.703965852930196,1.674307369034068,1.706349380599931,2.414849514960224.112114164568993,4.130672107678038-1.20018755638921,1.291738676396562-2.232614182199541,2.728803268038973-3.501979778959139,3.956861214628589-1.924018415709725-.320623185696604-3.183405376990777-1.73945624301814-4.586000600060288-2.874000143712692-2.250674374090522-1.820547502746194-4.130553365679589-4.040186361288761-6.195149644190678-6.062597040147011-1.052266101500209-1.030762454030992-2.210027662298671-1.618211568696097-3.699274974758737-1.445418623728074-.917027611199956-1.125773290132202-1.525851561449599-2.41390348143068-1.988046070340715-3.779273131410264,3.613558982880932-1.003144380607409,4.738280402179953-4.615271539708374,7.172273715819756-6.855274116618602.577625716739931-.531595906846633.735829467290387-1.594660644127543,1.84817805611965-1.435948169703806Z" fill="none" stroke="#0e1900" stroke-linecap="round" stroke-linejoin="round" stroke-width="32.364997721507699"/>
        <path d="M84.782685644999219,203.056824588919881c-1.281547570579278,1.246405765125928-2.958987075349796.732424386910679-4.444712680029625.899528966976504-2.303719187859315.259119185256168-2.372253114190244.24127562981721-1.97369877689016,2.378667837780995.188844314510789,1.012782969226464,1.41175188005036,2.224741270179948.22726025638076,3.029999663772287-1.09823151836099.746603393894475-2.586470699039637.178391243208353-3.751127657420511-.346918682294927-1.659595852330312-.74855073931667-3.215762633639315-1.732633652713957-4.793153058690223-2.655396599787309-1.0261693534394-.600289295372932-2.058245120779247-1.141761507693445-3.279004435449679-1.182730549209737-.927659390950794-2.983468749691383-.089745118038991-6.013627778153023,2.200126183950488-7.956385409042014,2.285296103980727-1.93887986162099,5.56203748786902-2.282384750170422,8.265096898228876-.851091021212596.518507866010623.274553039737839,1.008459608659905.603089002701381,1.511586907510718.906715716933832,1.039425593640772.242709227746673,1.612228771340597,1.126185095963592,2.387113543720261,1.732785958969544,1.022299336760625.988039569615466,2.112465803540545,1.903235271778613,3.136814119770861,2.890485682581129.267558156319865.341204345271763.709330389538081.607292874223276.513698698918233,1.154338434532292Z" fill="none" stroke="#0e1900" stroke-linecap="round" stroke-linejoin="round" stroke-width="32.364997721507699"/>
        <path d="M99.129299687829189,164.001678606883615c-1.780279839918876,2.401530150903454-4.119453603019792,4.360273949646398-5.601083277109865,6.992655292090603-.804529835359062,1.4293891192101-2.112109535390118,1.311190235332106-3.419314426009805,1.298562980424322-.576205773069887-.777903356153729-1.036382412039529-1.603631122246952-1.072365917809293-2.604284996834394,1.578499568398911-.713903540996398,1.89343772653956-1.868555084383843,1.505593797770416-3.519576394229261-.83045477953965-3.535133329650307-1.390888288380665-7.12225922944981-1.452215763951244-10.772198334917448.25399154887964-.881696843257487-.12940658783009-2.114324483026394,1.290494652250345-2.352095236771675,2.284703729101238-.07027152743558,4.57169019839057-.101059294372135,6.852797679899595-.233510855882741.738024909811429-.042857637016823,1.188399381930139-.008352864211702,1.028056298709998.869742314675022-.642699740548778,3.519661709422508.372656259780342,6.89796670184478.868036956249853,10.320705231445572Z" fill="none" stroke="#0e1900" stroke-linecap="round" stroke-linejoin="round" stroke-width="32.364997721507699"/>
        <path d="M89.55387694808087,155.745108308849922c.187925414358688,3.733699951118069.907347301379559,7.390506605283008,1.564001871909568,11.058747773618052.457816693509812,2.557473156377455.416329389759994,2.564914099886664-2.081346909690183,2.884742942236699-2.450323873390516-5.75194570509484-2.864203053550227-11.779264834372952-2.401220723899314-17.921140164435201.049278392398264-.653724081466862.158531207949636-1.324307537472123.944241888659235-1.555802788031542,1.287538509159276.65587173908807.999748567850475,2.009757406740391,1.369679299339623,3.075159418488511.278699839860565.802698690471516.232252386349501,1.681526942793425.604644573681071,2.458292818123482Z" fill="none" stroke="#0e1900" stroke-linecap="round" stroke-linejoin="round" stroke-width="32.364997721507699"/>
        <path d="M92.096893986230498,176.072174024616288c1.094885240299845-1.147468424697763,2.137138438758484-.532778583933577,3.004522627219558.236656601918185,1.409836029119106,1.250621739717644,2.725018235190873,2.611478690732838,4.040618650640681,3.964292995218784,2.237527450419293,2.300824879226639,4.682446424760201,4.342649490314216,7.380440527629617,6.080511372121691.717644979909892-.021842552860107,1.264420752338992.127916801466199,1.048930951299553,1.044524193002871-.85164059087947.405587582010412-1.530406066420255-.114240373693065-2.224974341479538-.448718529325561-2.92102484049974-1.406569867647704-5.598976032510109-3.210540451796987-8.229016126209899-5.090569488131223-.643660306410311-.460112242720243-1.293951626810667-.911120376163126-2.03469736812076-1.21057787069094-.375817284839286-.205623874741832-.648539858178992-.492153254737786-.722751198489277-.931695312940974-.690454311590656-1.2545454273004-1.765570283279885-2.269913133156479-2.263073722489935-3.644423961172834Z" fill="none" stroke="#0e1900" stroke-linecap="round" stroke-linejoin="round" stroke-width="32.364997721507699"/>
        <path d="M94.359972509879299,179.716586488555549c.223850632030008.167808227663045.447703079300481.335604504552066.671549554730518.503399874362003.645459820550968.565374535255614,1.41837123355981,1.032049024342996,1.548066609870148,1.999009221495726-1.427871699430398,2.485942721032188-3.164679031069682,4.681775102135362-5.74377554404964,6.085709311239953-1.035389458189456-.434749131726676-2.473592737471336-.53591373519248-1.912151368080231-2.298829031897185,1.812101484469167-2.096426034908291,3.624202968940153-4.192852069823857,5.436310747529205-6.289289375200497Z" fill="none" stroke="#0e1900" stroke-linecap="round" stroke-linejoin="round" stroke-width="32.364997721507699"/>
        <path d="M88.923661762350093,186.005875863756046c.126589239400346,1.298193350034126,1.213878151780591,1.577944222844053,2.143800859759722,2.024525631153665.403186407909743.840387268804079-.332990133789281,1.18427311589312-.724612011490535,1.6802138396788-.992545538359991.946188381229149-1.606819888238533,2.334405957755735-3.112561991449184,2.688054280364668-.975752892709352-.439408871246997-1.9281531769102-.904259670369356-2.171723050649234-2.101514501488055,1.069726148818518-1.627573242502876,2.46438351506913-2.962154142569489,3.865096193829231-4.291279249709078Z" fill="none" stroke="#0e1900" stroke-linecap="round" stroke-linejoin="round" stroke-width="32.364997721507699"/>
        <path d="M85.058564075559843,190.297154886698991c.7182551388305.655268129506112,1.436513585860666,1.310524535003424,2.154773525850032,1.965781167280511.260144048230359,1.528640743068536-1.208987989839443,2.013428273747195-1.816104336359786,3.020960629807632-.365763753479769.344506259408263-.758068998129602.643508755373659-1.271462415450515.731612523111835-1.203392874449492-.137231357108249-1.989294855249682-.84578741588939-2.544597682399399-1.868310237302467,1.032364893779231-1.39797362023819,2.169895179549712-2.700843413374969,3.477390908359666-3.850044082897512Z" fill="none" stroke="#0e1900" stroke-linecap="round" stroke-linejoin="round" stroke-width="32.364997721507699"/>
        <path d="M81.581173167200177,194.147198969596502c1.085681750890217.236432795070868,1.547670101479525,1.475019001963119,2.665190224230173,1.660290460384203-.538144509881022,1.685490047987514-1.53850612270071,2.939980623093106-3.270974250670406,3.511826961428596-.853485652129166-.559595850730148-1.636718854020728-1.196074794919696-2.23032836521088-2.040101651800796.945368699180108-1.044001499849401,1.890740706550787-2.088014723703964,2.836112391651113-3.132015770012003Z" fill="none" stroke="#0e1900" stroke-linecap="round" stroke-linejoin="round" stroke-width="32.364997721507699"/>
        <path d="M89.55387694808087,155.745108308849922c-1.061258062271008-.946212654609553-1.070021056080805-2.299757952626351-1.295608021211592-3.540619736956614-.130082362678877-.715532092292051-.416440686558417-1.341620740114195-.678712865888883-1.992832046110379.78246967205996-.435497636169202,1.618824388639041-.464458888309309,2.476949125230021-.329078184610808-.210980689740609,1.086910534480921.325948325058562,2.097069147406728.323734710809731,3.16237023089252-.900982934759668.708303577907827-.536604432030799,1.804406614269283-.826362948939277,2.700159736785281Z" fill="none" stroke="#0e1900" stroke-linecap="round" stroke-linejoin="round" stroke-width="32.364997721507699"/>
        <path d="M158.663352392839442,119.762598956911461c3.381527844871016-2.554578319897701,6.764169291111102-5.107679255675976,10.142366986399793-7.666639203535851.257924577490485-.195370057798755.462982689201453-.463705120089799.728761440541348-.645099375507925,4.05944746960995-2.770553481946081,4.640521183819146-2.73294667731534,8.303587884249282.636601229058215,1.437803179249386,1.322598460667905,2.832911722969584,2.691658752591138,4.247526433880921,4.039614034416445-6.612895784481225,7.407237162143247-13.224113510510506,14.815976313129795-19.842720589260352,22.21809725915773-.434513555290323.485959553113389-.925477600860177.921383306628741-1.390179200359853,1.380315757151948-1.209882461851521-2.508183568000277-3.460980011670472-4.03104949876888-5.43708042866092-5.828499794599338-1.031824879790292-.938550835222486-1.853392324728702-.887982832526177-2.952851247629951-.113267638093021-4.659907895200377,3.283526202667417-8.661617850959374,7.314861599844335-12.828464799840731,11.158476889062513-6.691944782309292,6.172849099166342-13.00275278000845,12.737306530279966-19.540536101858379,19.068570623665437-.528446091509977.511764186438995-.999672191501304,1.323027015972002-1.983877436179682.876074321045962-.262906582760479-.868633711164875.38788614529949-1.341995107966795.850569821848694-1.860385876084365,9.100422062099824-10.196117230506388,18.176388723381024-20.414527239467134,27.507172408380939-30.402037781411309.539532086278996-.577509447647572,1.175756395599819-1.050247141362888,1.72442659185981-1.617125337205835,3.490431057469323-3.748233996529052,6.980868086779083-7.49646708597902,10.471298236629082-11.244695107120606Z" fill="none" stroke="#0e1900" stroke-linecap="round" stroke-linejoin="round" stroke-width="32.364997721507699"/>
        <path d="M118.151411388109409,164.869272232340336c2.816596530150491-1.758667408066685,4.811830366001232-4.403120581466283,7.13998154086039-6.68201451821551,7.124842427960175-6.97405765286112,14.212384151151127-13.982898442884107,21.665128023170837-20.614887803975762,1.879825283469472-1.672797947591789,3.94348050697954-3.071621155533649,5.883224492039517-4.645159641169812.877836363659299-.712112822657218,1.524389849550062-.705738933520479,2.358601690339128.147562592683244,1.144456693371467,1.170631293661245,2.427817264670011,2.212818828048512,3.705356938660771,3.24341179291514,1.110267237760127.895666528182119,1.970737178489799,1.88597469389606,1.9489954317105,3.407316860939318-6.623084663549889,7.51803885145182-13.238584811300825,15.042939515580656-20.135754207010905,22.313372998599334-1.597940631780148-1.941441956735616-3.585310575159383-3.469053445396639-5.421563768410124-5.159859782072999-1.101605456120524-1.014353962541463-1.870993914919381-.938786014475227-3.030070744069235.014642099269622-6.48511389919986,5.334465974101477-12.185564611359951,11.485748900538965-18.22604872617012,17.282422584370579-.653436477910873.627062639234282-1.122196309799619,1.729372897412759-2.375216681180973,1.407722676331105-.976412234518648-.456124834803632-1.745401897989723-1.174631962489912-2.467432057499536-1.952555098185258,2.444226922110829-2.459711137149498,4.69639087250107-5.09728182071467,7.066026144229909-7.625738574305615.506133404040156-.540058715039777.902194204989428-1.357102232140278,1.888771923329841-1.136236187183385Z" fill="none" stroke="#0e1900" stroke-linecap="round" stroke-linejoin="round" stroke-width="32.364997721507699"/>
        <path d="M111.664045378049195,175.583802092014594c1.686494851541283-1.046358516836335,2.886595286830925-2.618904233151625,4.284071414840582-3.976507409890473,4.313620197539421-4.190592294788075,8.599531849569757-8.409834105758819,12.928548952819256-12.584381807071622,1.271261613361276-1.225899299845878,2.899042024861046-2.035276771038298,4.075252679491314-3.394773145603722.313213965038813-.362037116195097.8845562637689-.540556888205174,1.252332944130103-.184154475058676,2.218442242239689,2.14989972463809,5.278802851449655,3.473329485570503,6.512526901749879,6.594460414961759-5.341653525520087,6.076523248333615-10.683468106000873,12.152618558987342-16.025454580631049,18.228638854067867-4.768342107940043-.375885021688191-9.222897035338974-1.624653314694115-13.027278312400085-4.683282431405132Z" fill="none" stroke="#0e1900" stroke-linecap="round" stroke-linejoin="round" stroke-width="32.364997721507699"/>
        <path d="M96.395163361199593,182.025203499552845c-.581024098550188-.506069855371607-1.058606563199646-1.09035159672294-1.363551074458883-1.805227885502973,2.775045038430108.951101570361061,4.75601640909008,3.18582669947773,7.303833050918911,4.519386369723179,1.731826351910058.906484601291595,3.354546307960845,2.021853339921108,5.254292631871067,2.584187846170607.988920306519503-.539608794774722,1.769395011209781.103285765901092,2.564951884909533.493756525191202,6.092011060120058,2.990110272771744,12.487070977100302,4.211533319099544,19.257311269599086,3.458217277810036,1.281105947609831-.142542128996865,2.439331168339777-.417149805960435,3.395749252680616-1.312155875801182.578015118930125.09313959609608,1.010094067049067-.214652286288583,1.431021660830083-.534542736309959.851634094999099-.647245347907301,1.293014488410336-.129998434304071,1.673647272769813.576335160885719.062077997690722.587510393599587.13653198683096,1.174149654619214.183866434910669,1.762954060622178.130816180490001,1.627324778635739-.494907198981309,2.477928041041196-2.23053721946053,2.805571051366314-10.040126454479832,1.895335676687864-19.446661773150481.253939508114854-28.290736105480391-4.800831309590649-2.552927432539946-.677540593273079-4.28839709012027-2.589327933171262-6.261274901589786-4.143849461612263-1.080494901549173-1.113214235887426-2.521313908919183-1.936518692442405-2.918574157500188-3.603801022952211Z" fill="none" stroke="#0e1900" stroke-linecap="round" stroke-linejoin="round" stroke-width="32.364997721507699"/>
        <path d="M99.467478293849126,185.219966529425619c2.03591281934132,1.517623195098167,4.071827453941296,3.035234439417763,6.107636292241295,4.55287851999401-2.030270328859842,2.159449077529644-4.060439662600402,4.318876816040756-6.090610811590523,6.478316505329531-2.225315572930413-1.379989531987121-4.56082089479969-2.646149349825464-5.514978871209678-5.342297780124682,1.009474853850406-2.180400800263669,2.738130977410037-3.784082554149791,4.397881302480528-5.438113480255197.278218219369592-.277267880478576.686481508690122-.372035841999605,1.100072088078377-.250783764943662Z" fill="none" stroke="#0e1900" stroke-linecap="round" stroke-linejoin="round" stroke-width="32.364997721507699"/>
        <path d="M94.217533796019779,190.8986190053256c.830529145430773,1.980483974615709,2.793645306999679,2.844767330328978,4.200899360659605,4.256667899304375.36000947013963.361201384728702.908946268409636.535729758550588,1.066018568069921,1.095915650112147-.842566306389926,1.280329277175042-1.893231486828881,2.374983601894201-3.027330696018907,3.395172125146928-.593430138920667.382782979672811-1.153717233530188.188154142035273-1.618331394460256-.196846538571663-1.592802772520372-1.319812089643165-3.361932998739576-2.452370020594572-4.563277018189183-4.199373547149662.117840928649457-1.595852081057274,1.500677898719005-2.360211601539049,2.302640852649347-3.508365403971766.523298718570004-.323499889572304.828666701509064-1.078649226160451,1.639380327289473-.84317018487036Z" fill="none" stroke="#0e1900" stroke-linecap="round" stroke-linejoin="round" stroke-width="32.364997721507699"/>
        <path d="M90.377790284939692,195.130342526554159c1.399149829019734,1.182376377319997,2.804166458139662,2.357904507462081,4.194565210051223,3.550481244743423.555401159639587.476379987274413,1.110450523208783.928388029915368,1.884762547819264.965550455055563-1.158914172150617,1.294193158222697-2.317828344299414,2.588386316450851-3.476739530529812,3.882579928214-1.915142076280972-.045963740742991-2.70723822221953-1.795348958524301-4.034426555690516-2.722998451082276-.803873780339927-.56189024680134-1.795046726119836-1.167354160118521-1.770865836349913-2.4178634236996.07208750089012-.398149094025939.291107767150606-.718141660529.541425523560974-1.02150841659568.902306545998727-.72518295122336,1.135258089068884-2.253556342975571,2.661278641138779-2.23624133663543Z" fill="none" stroke="#0e1900" stroke-linecap="round" stroke-linejoin="round" stroke-width="32.364997721507699"/>
        <path d="M87.482486364109718,198.308313393254139c1.235226182980114,2.3700406473763,3.590966324010878,3.558762493637005,5.497887347000869,5.220652258550217-1.063957597300032,1.181240743816488-2.127925967601186,2.362492077779279-3.191895830859721,3.54374318497139-1.745956590841161.02701427530701-2.573127295359882-1.134505415418062-3.238111753231351-2.505821021813972-.51128809958027-.594646569624274-.988065396539241-1.229741611822647-1.767779813459128-1.509821557309806-.239139387980686-.292040921931402-.478371813269405-.583851445597247-.717602745609838-.875661742491502.461598337418764-1.889549786455973,1.532184426949243-3.241162562070713,3.41750279615917-3.873091121906327Z" fill="none" stroke="#0e1900" stroke-linecap="round" stroke-linejoin="round" stroke-width="32.364997721507699"/>
        <path d="M86.550366127019515,204.566887814961774c1.061126287320803.858870973448575,1.982261317989469,1.898826795612877,3.238099487271029,2.505831385201418.835765138208444,1.517515902361993,1.996787334799592,2.858355950147597,2.156485951480136,4.718617747760618.227672545419409,2.652104482701361-.473313405720546,4.871085335190401-2.621754577490719,6.540507650524887-.510194197309829-1.012003173321318-.055543573560499-2.056901242328422-.101107255899478-3.085126086129094-.148762460390572-3.35743511907549-.733174510200115-6.585711916163746-2.601753113351151-9.475883989759495-.205012708909635-.317068990865664-.592828374779856-.775500938108962-.069970492009816-1.203946707598334Z" fill="none" stroke="#0e1900" stroke-linecap="round" stroke-linejoin="round" stroke-width="32.364997721507699"/>
        <path d="M118.151408402191009,164.869271778794428c-2.657045440320871,2.326687976417816-4.765812277710211,5.16932718519729-7.220614829380793,7.686657122880206-.494769811290098.507379396518445-.857172981719486,1.198063723541054-1.734309580520858,1.075163956561482-.644106827319774-.579229500059228-1.353713692189558-1.097971147564749-1.759440869240279-1.898653647526771.89873862631066.062334185139662,1.403349604061077-.508668745083924,1.971388923371705-1.101300497498414,12.214591998548713-12.7434081064157,24.445266362708935-25.471382752875797,36.684845950769159-38.190772780665611.588992366230741-.612080377404709,1.253255032310335-1.169617061457757,2.098582192760659-1.43316246318318-3.070584150509603,4.023640530243938-6.694744521550092,7.557337870832271-10.045668351480344,11.332600232406548-6.410398968389927,7.222172884830798-12.893883241560616,14.379399095105327-19.339815083510985,21.570052857046903-.256210124438439.285807024965834-.438330769478853.638094846412059-.654968352768265.959415219978837Z" fill="none" stroke="#0e1900" stroke-linecap="round" stroke-linejoin="round" stroke-width="32.364997721507699"/>
        <path d="M132.807750376719923,189.963367757143715c-.017063561450414,1.237982243078477-.693792388579823,1.589271674298288-1.872247746419816,1.751061462227881-7.78872415170008,1.069298765331041-15.128763554899706-.240420991293831-22.065986590669127-3.913067189341746-.399134978430084-.211293086896148-.852101729820788-.320822167595907-1.279897625310696-.477769227209137-.355629724959726-.32324530481128-.711377189891209-.646459587534991-1.067131560410417-.969809410664311.627041801939413-1.734819131483164,1.961574098810161-2.985452278793673,3.246593971229231-4.144718096172255,1.564212167970254-1.411150245518911,1.033966906541536-2.43512438610378-.118985111959773-3.570018106330281-1.538977174599495-1.514853004882752-3.119075083599455-2.988256395391545-4.641329170719473-4.51944699210253-.357795813859411-.359887025176249-.554698429439668-.879918929499581-.825592539669742-1.326215467666771,2.463295086159633,1.309191823638685,4.330768707639436,3.382135719726648,6.358452350239531,5.202374171073643,5.72978633285129,5.143539072282692,12.413015472409825,6.42567901806251,19.738376610219348,5.292368528875159,1.738860424920858-.269027550958526,2.118957452290488.176849115102414,2.131396160990334,1.85560299305871.011817974980659,1.595274860347672-.159424329569447,3.25159407137653.396351252480599,4.819637334251638Z" fill="none" stroke="#0e1900" stroke-linecap="round" stroke-linejoin="round" stroke-width="32.364997721507699"/>
        <path d="M87.482484871150518,198.308313166481639c-1.319036226639582,1.132152393475735-2.404225970800326,2.47082433120795-3.417200929190585,3.873295917976975-1.030472048640149-.95432538519708-2.060654496270217-1.908435610945162-3.090363471970704-2.862425013490792,1.090967571120927-1.170486893963243,2.181468286720701-2.341118059151995,3.271702814819946-3.511716297423845.301977428600367-.228641041874653.604217736510691-.457303286648312.906457722130654-.685953353876357,1.74305398127035-.108663577469997,2.513240744990981.918035378266723,2.852866632780206,2.447207062769849-.17448897506074.246526275395809-.348976779439909.493064955108821-.523462768569516.739591684044171Z" fill="none" stroke="#0e1900" stroke-linecap="round" stroke-linejoin="round" stroke-width="32.364997721507699"/>
        <path d="M94.217530810099561,190.898618551786058c-.44775008912984.338924378720549-.895501993489233.677860708214212-1.343253897870454,1.016797037715151-1.039386400878357-.712420964687226-1.911565033669831-1.619288894744386-2.847873184118725-2.451583721584939.315582965818976-.500655910249407.966115605579034-.757855607203055,1.040957168939713-1.433494730359598,1.846648444919992-1.938873068853354,3.868437783539775-3.722190512865382,5.327608497889742-6.005224232678302,1.024476313890773,1.065446095966763,2.048760476780444,2.130789646486846,3.072775276330503,3.195493184003681-2.17699580892986,1.497276340515782-3.562737840180489,3.727274257467798-5.250213861170778,5.678012462904007Z" fill="none" stroke="#0e1900" stroke-linecap="round" stroke-linejoin="round" stroke-width="32.364997721507699"/>
        <path d="M90.026405221069581,189.463832094687859c1.463101177410863.219533188190326,2.292422602529768,1.176145524233107,2.847832466570253,2.451479724861201-.832119218130174,1.071754805388082-1.664285125660172,2.14340470697698-2.49644473905937,3.215043338092983-.790618490131237.812841241944625-1.581239966180874,1.625682030346979-2.371851721451094,2.438438709768889-.874322104138628-.904943832898425-1.517931709458935-2.079088220820267-2.852682065018598-2.44704453666418.357801932388611-1.190371156060792,1.712030510299883-1.661825422951551,2.06007516417958-2.858972718744553.937695252740014-.932866639219355,1.875383073758712-1.865905578268212,2.81307089477923-2.798944517314339Z" fill="none" stroke="#0e1900" stroke-linecap="round" stroke-linejoin="round" stroke-width="32.364997721507699"/>
      </g>
      <g>
        <path d="M101.808843005019298,159.219597556038934c5.302931452841221-5.387707348352706,10.22876542143058-11.120309466516119,15.289103048449761-16.729992742999457,8.588747365971358-9.521131027509909,17.185991635771643-19.034589199198308,25.775835635260592-28.55473447991244,9.424004211719875-10.444645878475058,18.845506909930918-20.891566827602219,28.264558282960934-31.340691034998599,5.545305151479624-6.151738881418169,11.097064179430163-12.297739825388817,16.618602168469806-18.470791987531811,2.155702972078871-2.410073562629805,4.903086984018955-3.393362337322287,8.027445025980342-3.616826776461494,4.288347706038621-.306710908232162,8.613530044569416-.057175109899617,12.86921456627897-.85427818093558l1.956851624199771.297232622317097c.272065930201279.482565725964378,1.249634522369888.082792798409173,1.205137522800214.963562086315505-2.11080611386933,3.206066122133961-4.902597917380263,5.841417924571033-7.45351418736027,8.660764758290497-8.573849298079949,9.476022368408849-17.114260245240075,18.982732202774969-25.663927570109081,28.480192755543612-6.565190083179914,7.292991660599-13.222887399580941,14.502610893312522-19.715982719901149,21.860071712911122-3.506352014799631,3.832898958689839-6.828284661369253,7.837385774600989-10.581404232798377,11.443829609124805-2.022193917620825,1.090905956421921-3.369947138091447,2.927949602818444-4.911882988581056,4.530698217624376-11.228918059779971,11.671722428397516-22.472765619149868,23.329109610212072-33.688783339310248,35.013281850860039-.64411860843029.671001729234376-1.296541097719455,1.353090920062641-2.377494235619452,1.076637670415039-2.432444295620371-1.503430956241573-3.308361089000755-4.100458996260386-4.498249127360396-6.4655937769503-.707210811639015-1.40572819177487-1.075677875329347-2.936101767148102-1.379725484419396-4.475824932947035-.124902866429693-.632522146799602-.346852879010839-1.288099123710708.264216011059034-1.817537370665377Z" fill="#bbc15a" stroke-width="0"/>
        <path d="M158.663358364670785,119.762599863992364c2.956453561089802-3.861240532195552,6.417056501550178-7.275777427263165,9.658816187269622-10.883245464235188,13.961617899019984-15.536655437307672,27.951266241620033-31.04808784699253,41.935742697889509-46.56416539377733.43627693515009-.484053929630136.927660889070467-.918380762605011,1.393350651620494-1.375894904946108,1.464833571699273.201571486742068,1.368566150878905,1.436368113206299,1.439863099389186,2.398921609113131.357670056529969,4.829258627418312.835555784869939,9.662199016926934.203627441960634,14.506818338811172-.027047662919358.207433022183068.030654812719149.382864708486522.118195031969663.558870218205811l-.297409381069883,1.958015327688372c-1.929883616250663,4.69348612171234-5.807363730009456,7.873278996975387-9.056216386850792,11.518152569075937-7.257513019880207,8.142178052439704-14.641325969960235,16.171663718927448-21.973679203909342,24.247054375956395-1.458924587630463-.175231846282259-1.967172895929252-1.604670062753939-3.028359570640532-2.323287796737532-1.133947243539296-.767883502648147-2.105004129918598-1.783070799591769-3.085117292659561-2.746478973883313-1.363563960359897-1.340304940850729-2.721738301110236-1.335958242561901-4.242341318400577-.359872497898323-3.597157476839129,2.309035614736786-6.909420747258991,4.99683380256829-10.254251020898664,7.644185637540431-.828683238940357.655872672233272-1.474313307749981,1.746698466460657-2.812220935669757,1.420926955086543Z" fill="#848b43" stroke-width="0"/>
        <path d="M89.323199855740313,218.331906166496992c-1.15118562473981,1.341546564472083-2.83667939129009,1.521173812292545-4.377319226470718,2.015811480303455l-3.130962598699625-.475572195703535c-4.754064006549015-3.534352197339103-8.875620953889666-7.791366188153006-13.299196728010429-11.702688910941106-.854849295648819-.755842685476637-1.644971498359155-1.713824596546146-1.747487074919263-2.989471375813991,1.015197533130049-.670952592760841,1.918041285900472-.12792133063067,2.767655446379649.335560819363309,1.445696518499972.788674052263559,2.895185996150758,1.573290385927066,4.316044682680513,2.407843556174157.802227043519451.471188469025037,1.649868360398614.823794488243948,2.575700540119215.967637749376991,1.729801960920668.268736288170658,2.019476573939755-.030840969201563,1.664009790179989-1.743016415955935-.080338233619841-.386957300165705-.19958975758891-.766314984981364-.254881098509941-1.15853989358493-.242695859849846-1.72167561835704.185841969039757-2.3321221963688,1.899503727119736-2.5097205914808,1.636714884551111-.169613669484534,3.291438834710789-.176129104367647,4.897536642711202-.601378901177668,1.110068155339832-.053775915504957,1.713936458309036.6030075647177,2.133984982929178,1.519901949885025.12149032456.788992068968582.526044567490317,1.459320858995852.872762128099566,2.162642596981641,1.841631701519873,3.735845246807003,2.556207634361272,7.641911085524953,1.682648786390928,11.770990132573388Z" fill="#475453" stroke-width="0"/>
        <path d="M101.808843005019298,159.219597556038934c.471818326810535,4.803480611850318,2.43835606931134,8.933676261026449,5.628180387269822,12.512850884205363.813342730611112.412930336080535,1.467618483729893,1.033110438289441,2.137754554030835,1.634890112596622.824154777730655.788385634840779,1.702750195971021,1.505128031209097,2.685912463020941,2.09168343023066,3.077047530678101,2.075571128099909,6.410713387238502,3.473831334410534,10.111952951669082,3.959927033934036.818831823449727.107539164921036,1.719105065389158.095292492290355,2.318504278700857.848047632992348,2.564975842029526.141465783318381,5.079547485298463-.162298713376003,7.565445290529169-.801072048729111,2.478878314879694-.636966321226282,3.217532396660317-.072927179378894,3.333573044639706,2.509390459694259.12025744210041,2.675989582872717.215861450529701,5.353112848339151.32225175711028,8.029734842521066-1.158916951389983-.665678588914489-2.330328862170063.832730589458151-3.491434358260449-.020419238899194-.701814828958959-1.421463259699522-.459339385839485-2.967658999520609-.519784092019108-4.455134074129091-.056866076671213-1.399255270877802-.572361246209766-1.806900765466708-1.949852415489659-1.652614116726909-3.729541735739986.417753156438266-7.404268047090227.421651351040964-11.119730909591453-.601220725821804-4.660351222210011-1.282998407942614-7.969731777158813-4.452539800348859-11.499748969999928-7.376096618806514-1.059678396459276-.877614350571093-1.965758177610041-1.940836767134897-3.183410016208654-2.626183884836792-2.273025593160128-1.856391634750253-3.347652019279849-4.474493590984821-4.457048480091544-7.066026848638103-.335002638659716-.782579564266598-.711222569309029-1.549399831313167-.979606975430215-2.360691898436926-.754290348839277-2.989278625687803-1.368008241939606-6.004607381047208-1.098080510619184-9.108091887533192.107766908069607-1.239047985177422-.479896470889798-1.387657539191423-1.499198883449935-1.401193293560027-1.934303145189915-.02569273381323-3.889702077300171.650683669608952-5.807039725199502-.136637296321169-.616274790460011-1.065785950682766-1.137393043649354-2.139199321910382-.250987982421066-3.318151088449667,3.133265522330476-.198332819903953,6.264502046131383-.445170695404158,9.400548122181135-.577009160026137,1.914187319969642-.080456575842618,2.55158253153968.732832396888625,2.267287201510044,2.713233463435245-.345734211021409,2.408398603721253-.484285962880676,4.806806769196555.084513268118826,7.200784321305036Z" fill="#2e3c2a" stroke-width="0"/>
        <path d="M99.129299687829189,164.001678606883615c1.586414577550386,2.987123284109657,2.511596936830756,6.354861490020994,5.053899899090538,8.791758915058381,1.862376689559824,1.926380916293965,3.874827166040632,3.697257978690686,5.78398523271062,5.573218987955443,1.703965852930196,1.674307369034068,1.706349380599931,2.414849514960224.112114164568993,4.130672107678038-1.20018755638921,1.291738676396562-2.232614182199541,2.728803268038973-3.501979778959139,3.956861214628589-1.924018415709725-.320623185696604-3.183405376990777-1.73945624301814-4.586000600060288-2.874000143712692-2.250674374090522-1.820547502746194-4.130553365679589-4.040186361288761-6.195149644190678-6.062597040147011-1.052266101500209-1.030762454030992-2.210027662298671-1.618211568696097-3.699274974758737-1.445418623728074-.917027611199956-1.125773290132202-1.525851561449599-2.41390348143068-1.988046070340715-3.779273131410264,3.613558982880932-1.003144380607409,4.738280402179953-4.615271539708374,7.172273715819756-6.855274116618602.577625716739931-.531595906846633.735829467290387-1.594660644127543,1.84817805611965-1.435948169703806Z" fill="#434c34" stroke-width="0"/>
        <path d="M84.782685644999219,203.056824588919881c-1.281547570579278,1.246405765125928-2.958987075349796.732424386910679-4.444712680029625.899528966976504-2.303719187859315.259119185256168-2.372253114190244.24127562981721-1.97369877689016,2.378667837780995.188844314510789,1.012782969226464,1.41175188005036,2.224741270179948.22726025638076,3.029999663772287-1.09823151836099.746603393894475-2.586470699039637.178391243208353-3.751127657420511-.346918682294927-1.659595852330312-.74855073931667-3.215762633639315-1.732633652713957-4.793153058690223-2.655396599787309-1.0261693534394-.600289295372932-2.058245120779247-1.141761507693445-3.279004435449679-1.182730549209737-.927659390950794-2.983468749691383-.089745118038991-6.013627778153023,2.200126183950488-7.956385409042014,2.285296103980727-1.93887986162099,5.56203748786902-2.282384750170422,8.265096898228876-.851091021212596.518507866010623.274553039737839,1.008459608659905.603089002701381,1.511586907510718.906715716933832,1.039425593640772.242709227746673,1.612228771340597,1.126185095963592,2.387113543720261,1.732785958969544,1.022299336760625.988039569615466,2.112465803540545,1.903235271778613,3.136814119770861,2.890485682581129.267558156319865.341204345271763.709330389538081.607292874223276.513698698918233,1.154338434532292Z" fill="#4b6156" stroke-width="0"/>
        <path d="M99.129299687829189,164.001678606883615c-1.780279839918876,2.401530150903454-4.119453603019792,4.360273949646398-5.601083277109865,6.992655292090603-.804529835359062,1.4293891192101-2.112109535390118,1.311190235332106-3.419314426009805,1.298562980424322-.576205773069887-.777903356153729-1.036382412039529-1.603631122246952-1.072365917809293-2.604284996834394,1.578499568398911-.713903540996398,1.89343772653956-1.868555084383843,1.505593797770416-3.519576394229261-.83045477953965-3.535133329650307-1.390888288380665-7.12225922944981-1.452215763951244-10.772198334917448.25399154887964-.881696843257487-.12940658783009-2.114324483026394,1.290494652250345-2.352095236771675,2.284703729101238-.07027152743558,4.57169019839057-.101059294372135,6.852797679899595-.233510855882741.738024909811429-.042857637016823,1.188399381930139-.008352864211702,1.028056298709998.869742314675022-.642699740548778,3.519661709422508.372656259780342,6.89796670184478.868036956249853,10.320705231445572Z" fill="#494f37" stroke-width="0"/>
        <path d="M89.55387694808087,155.745108308849922c.187925414358688,3.733699951118069.907347301379559,7.390506605283008,1.564001871909568,11.058747773618052.457816693509812,2.557473156377455.416329389759994,2.564914099886664-2.081346909690183,2.884742942236699-2.450323873390516-5.75194570509484-2.864203053550227-11.779264834372952-2.401220723899314-17.921140164435201.049278392398264-.653724081466862.158531207949636-1.324307537472123.944241888659235-1.555802788031542,1.287538509159276.65587173908807.999748567850475,2.009757406740391,1.369679299339623,3.075159418488511.278699839860565.802698690471516.232252386349501,1.681526942793425.604644573681071,2.458292818123482Z" fill="#525839" stroke-width="0"/>
        <path d="M92.096893986230498,176.072174024616288c1.094885240299845-1.147468424697763,2.137138438758484-.532778583933577,3.004522627219558.236656601918185,1.409836029119106,1.250621739717644,2.725018235190873,2.611478690732838,4.040618650640681,3.964292995218784,2.237527450419293,2.300824879226639,4.682446424760201,4.342649490314216,7.380440527629617,6.080511372121691.717644979909892-.021842552860107,1.264420752338992.127916801466199,1.048930951299553,1.044524193002871-.85164059087947.405587582010412-1.530406066420255-.114240373693065-2.224974341479538-.448718529325561-2.92102484049974-1.406569867647704-5.598976032510109-3.210540451796987-8.229016126209899-5.090569488131223-.643660306410311-.460112242720243-1.293951626810667-.911120376163126-2.03469736812076-1.21057787069094-.375817284839286-.205623874741832-.648539858178992-.492153254737786-.722751198489277-.931695312940974-.690454311590656-1.2545454273004-1.765570283279885-2.269913133156479-2.263073722489935-3.644423961172834Z" fill="#373d31" stroke-width="0"/>
        <path d="M94.359972509879299,179.716586488555549c.223850632030008.167808227663045.447703079300481.335604504552066.671549554730518.503399874362003.645459820550968.565374535255614,1.41837123355981,1.032049024342996,1.548066609870148,1.999009221495726-1.427871699430398,2.485942721032188-3.164679031069682,4.681775102135362-5.74377554404964,6.085709311239953-1.035389458189456-.434749131726676-2.473592737471336-.53591373519248-1.912151368080231-2.298829031897185,1.812101484469167-2.096426034908291,3.624202968940153-4.192852069823857,5.436310747529205-6.289289375200497Z" fill="#071e0e" stroke-width="0"/>
        <path d="M88.923661762350093,186.005875863756046c.126589239400346,1.298193350034126,1.213878151780591,1.577944222844053,2.143800859759722,2.024525631153665.403186407909743.840387268804079-.332990133789281,1.18427311589312-.724612011490535,1.6802138396788-.992545538359991.946188381229149-1.606819888238533,2.334405957755735-3.112561991449184,2.688054280364668-.975752892709352-.439408871246997-1.9281531769102-.904259670369356-2.171723050649234-2.101514501488055,1.069726148818518-1.627573242502876,2.46438351506913-2.962154142569489,3.865096193829231-4.291279249709078Z" fill="#19271d" stroke-width="0"/>
        <path d="M85.058564075559843,190.297154886698991c.7182551388305.655268129506112,1.436513585860666,1.310524535003424,2.154773525850032,1.965781167280511.260144048230359,1.528640743068536-1.208987989839443,2.013428273747195-1.816104336359786,3.020960629807632-.365763753479769.344506259408263-.758068998129602.643508755373659-1.271462415450515.731612523111835-1.203392874449492-.137231357108249-1.989294855249682-.84578741588939-2.544597682399399-1.868310237302467,1.032364893779231-1.39797362023819,2.169895179549712-2.700843413374969,3.477390908359666-3.850044082897512Z" fill="#242e27" stroke-width="0"/>
        <path d="M81.581173167200177,194.147198969596502c1.085681750890217.236432795070868,1.547670101479525,1.475019001963119,2.665190224230173,1.660290460384203-.538144509881022,1.685490047987514-1.53850612270071,2.939980623093106-3.270974250670406,3.511826961428596-.853485652129166-.559595850730148-1.636718854020728-1.196074794919696-2.23032836521088-2.040101651800796.945368699180108-1.044001499849401,1.890740706550787-2.088014723703964,2.836112391651113-3.132015770012003Z" fill="#2d3430" stroke-width="0"/>
        <path d="M89.55387694808087,155.745108308849922c-1.061258062271008-.946212654609553-1.070021056080805-2.299757952626351-1.295608021211592-3.540619736956614-.130082362678877-.715532092292051-.416440686558417-1.341620740114195-.678712865888883-1.992832046110379.78246967205996-.435497636169202,1.618824388639041-.464458888309309,2.476949125230021-.329078184610808-.210980689740609,1.086910534480921.325948325058562,2.097069147406728.323734710809731,3.16237023089252-.900982934759668.708303577907827-.536604432030799,1.804406614269283-.826362948939277,2.700159736785281Z" fill="#475034" stroke-width="0"/>
        <path d="M158.663352392839442,119.762598956911461c3.381527844871016-2.554578319897701,6.764169291111102-5.107679255675976,10.142366986399793-7.666639203535851.257924577490485-.195370057798755.462982689201453-.463705120089799.728761440541348-.645099375507925,4.05944746960995-2.770553481946081,4.640521183819146-2.73294667731534,8.303587884249282.636601229058215,1.437803179249386,1.322598460667905,2.832911722969584,2.691658752591138,4.247526433880921,4.039614034416445-6.612895784481225,7.407237162143247-13.224113510510506,14.815976313129795-19.842720589260352,22.21809725915773-.434513555290323.485959553113389-.925477600860177.921383306628741-1.390179200359853,1.380315757151948-1.209882461851521-2.508183568000277-3.460980011670472-4.03104949876888-5.43708042866092-5.828499794599338-1.031824879790292-.938550835222486-1.853392324728702-.887982832526177-2.952851247629951-.113267638093021-4.659907895200377,3.283526202667417-8.661617850959374,7.314861599844335-12.828464799840731,11.158476889062513-6.691944782309292,6.172849099166342-13.00275278000845,12.737306530279966-19.540536101858379,19.068570623665437-.528446091509977.511764186438995-.999672191501304,1.323027015972002-1.983877436179682.876074321045962-.262906582760479-.868633711164875.38788614529949-1.341995107966795.850569821848694-1.860385876084365,9.100422062099824-10.196117230506388,18.176388723381024-20.414527239467134,27.507172408380939-30.402037781411309.539532086278996-.577509447647572,1.175756395599819-1.050247141362888,1.72442659185981-1.617125337205835,3.490431057469323-3.748233996529052,6.980868086779083-7.49646708597902,10.471298236629082-11.244695107120606Z" fill="#818645" stroke-width="0"/>
        <path d="M118.151411388109409,164.869272232340336c2.816596530150491-1.758667408066685,4.811830366001232-4.403120581466283,7.13998154086039-6.68201451821551,7.124842427960175-6.97405765286112,14.212384151151127-13.982898442884107,21.665128023170837-20.614887803975762,1.879825283469472-1.672797947591789,3.94348050697954-3.071621155533649,5.883224492039517-4.645159641169812.877836363659299-.712112822657218,1.524389849550062-.705738933520479,2.358601690339128.147562592683244,1.144456693371467,1.170631293661245,2.427817264670011,2.212818828048512,3.705356938660771,3.24341179291514,1.110267237760127.895666528182119,1.970737178489799,1.88597469389606,1.9489954317105,3.407316860939318-6.623084663549889,7.51803885145182-13.238584811300825,15.042939515580656-20.135754207010905,22.313372998599334-1.597940631780148-1.941441956735616-3.585310575159383-3.469053445396639-5.421563768410124-5.159859782072999-1.101605456120524-1.014353962541463-1.870993914919381-.938786014475227-3.030070744069235.014642099269622-6.48511389919986,5.334465974101477-12.185564611359951,11.485748900538965-18.22604872617012,17.282422584370579-.653436477910873.627062639234282-1.122196309799619,1.729372897412759-2.375216681180973,1.407722676331105-.976412234518648-.456124834803632-1.745401897989723-1.174631962489912-2.467432057499536-1.952555098185258,2.444226922110829-2.459711137149498,4.69639087250107-5.09728182071467,7.066026144229909-7.625738574305615.506133404040156-.540058715039777.902194204989428-1.357102232140278,1.888771923329841-1.136236187183385Z" fill="#7b7c49" stroke-width="0"/>
        <path d="M111.664045378049195,175.583802092014594c1.686494851541283-1.046358516836335,2.886595286830925-2.618904233151625,4.284071414840582-3.976507409890473,4.313620197539421-4.190592294788075,8.599531849569757-8.409834105758819,12.928548952819256-12.584381807071622,1.271261613361276-1.225899299845878,2.899042024861046-2.035276771038298,4.075252679491314-3.394773145603722.313213965038813-.362037116195097.8845562637689-.540556888205174,1.252332944130103-.184154475058676,2.218442242239689,2.14989972463809,5.278802851449655,3.473329485570503,6.512526901749879,6.594460414961759-5.341653525520087,6.076523248333615-10.683468106000873,12.152618558987342-16.025454580631049,18.228638854067867-4.768342107940043-.375885021688191-9.222897035338974-1.624653314694115-13.027278312400085-4.683282431405132Z" fill="#78774a" stroke-width="0"/>
        <path d="M96.395163361199593,182.025203499552845c-.581024098550188-.506069855371607-1.058606563199646-1.09035159672294-1.363551074458883-1.805227885502973,2.775045038430108.951101570361061,4.75601640909008,3.18582669947773,7.303833050918911,4.519386369723179,1.731826351910058.906484601291595,3.354546307960845,2.021853339921108,5.254292631871067,2.584187846170607.988920306519503-.539608794774722,1.769395011209781.103285765901092,2.564951884909533.493756525191202,6.092011060120058,2.990110272771744,12.487070977100302,4.211533319099544,19.257311269599086,3.458217277810036,1.281105947609831-.142542128996865,2.439331168339777-.417149805960435,3.395749252680616-1.312155875801182.578015118930125.09313959609608,1.010094067049067-.214652286288583,1.431021660830083-.534542736309959.851634094999099-.647245347907301,1.293014488410336-.129998434304071,1.673647272769813.576335160885719.062077997690722.587510393599587.13653198683096,1.174149654619214.183866434910669,1.762954060622178.130816180490001,1.627324778635739-.494907198981309,2.477928041041196-2.23053721946053,2.805571051366314-10.040126454479832,1.895335676687864-19.446661773150481.253939508114854-28.290736105480391-4.800831309590649-2.552927432539946-.677540593273079-4.28839709012027-2.589327933171262-6.261274901589786-4.143849461612263-1.080494901549173-1.113214235887426-2.521313908919183-1.936518692442405-2.918574157500188-3.603801022952211Z" fill="#2d332d" stroke-width="0"/>
        <path d="M99.467478293849126,185.219966529425619c2.03591281934132,1.517623195098167,4.071827453941296,3.035234439417763,6.107636292241295,4.55287851999401-2.030270328859842,2.159449077529644-4.060439662600402,4.318876816040756-6.090610811590523,6.478316505329531-2.225315572930413-1.379989531987121-4.56082089479969-2.646149349825464-5.514978871209678-5.342297780124682,1.009474853850406-2.180400800263669,2.738130977410037-3.784082554149791,4.397881302480528-5.438113480255197.278218219369592-.277267880478576.686481508690122-.372035841999605,1.100072088078377-.250783764943662Z" fill="#061d0e" stroke-width="0"/>
        <path d="M94.217533796019779,190.8986190053256c.830529145430773,1.980483974615709,2.793645306999679,2.844767330328978,4.200899360659605,4.256667899304375.36000947013963.361201384728702.908946268409636.535729758550588,1.066018568069921,1.095915650112147-.842566306389926,1.280329277175042-1.893231486828881,2.374983601894201-3.027330696018907,3.395172125146928-.593430138920667.382782979672811-1.153717233530188.188154142035273-1.618331394460256-.196846538571663-1.592802772520372-1.319812089643165-3.361932998739576-2.452370020594572-4.563277018189183-4.199373547149662.117840928649457-1.595852081057274,1.500677898719005-2.360211601539049,2.302640852649347-3.508365403971766.523298718570004-.323499889572304.828666701509064-1.078649226160451,1.639380327289473-.84317018487036Z" fill="#19271e" stroke-width="0"/>
        <path d="M90.377790284939692,195.130342526554159c1.399149829019734,1.182376377319997,2.804166458139662,2.357904507462081,4.194565210051223,3.550481244743423.555401159639587.476379987274413,1.110450523208783.928388029915368,1.884762547819264.965550455055563-1.158914172150617,1.294193158222697-2.317828344299414,2.588386316450851-3.476739530529812,3.882579928214-1.915142076280972-.045963740742991-2.70723822221953-1.795348958524301-4.034426555690516-2.722998451082276-.803873780339927-.56189024680134-1.795046726119836-1.167354160118521-1.770865836349913-2.4178634236996.07208750089012-.398149094025939.291107767150606-.718141660529.541425523560974-1.02150841659568.902306545998727-.72518295122336,1.135258089068884-2.253556342975571,2.661278641138779-2.23624133663543Z" fill="#222d27" stroke-width="0"/>
        <path d="M87.482486364109718,198.308313393254139c1.235226182980114,2.3700406473763,3.590966324010878,3.558762493637005,5.497887347000869,5.220652258550217-1.063957597300032,1.181240743816488-2.127925967601186,2.362492077779279-3.191895830859721,3.54374318497139-1.745956590841161.02701427530701-2.573127295359882-1.134505415418062-3.238111753231351-2.505821021813972-.51128809958027-.594646569624274-.988065396539241-1.229741611822647-1.767779813459128-1.509821557309806-.239139387980686-.292040921931402-.478371813269405-.583851445597247-.717602745609838-.875661742491502.461598337418764-1.889549786455973,1.532184426949243-3.241162562070713,3.41750279615917-3.873091121906327Z" fill="#2c3330" stroke-width="0"/>
        <path d="M86.550366127019515,204.566887814961774c1.061126287320803.858870973448575,1.982261317989469,1.898826795612877,3.238099487271029,2.505831385201418.835765138208444,1.517515902361993,1.996787334799592,2.858355950147597,2.156485951480136,4.718617747760618.227672545419409,2.652104482701361-.473313405720546,4.871085335190401-2.621754577490719,6.540507650524887-.510194197309829-1.012003173321318-.055543573560499-2.056901242328422-.101107255899478-3.085126086129094-.148762460390572-3.35743511907549-.733174510200115-6.585711916163746-2.601753113351151-9.475883989759495-.205012708909635-.317068990865664-.592828374779856-.775500938108962-.069970492009816-1.203946707598334Z" fill="#4b5e4e" stroke-width="0"/>
        <path d="M118.151408402191009,164.869271778794428c-2.657045440320871,2.326687976417816-4.765812277710211,5.16932718519729-7.220614829380793,7.686657122880206-.494769811290098.507379396518445-.857172981719486,1.198063723541054-1.734309580520858,1.075163956561482-.644106827319774-.579229500059228-1.353713692189558-1.097971147564749-1.759440869240279-1.898653647526771.89873862631066.062334185139662,1.403349604061077-.508668745083924,1.971388923371705-1.101300497498414,12.214591998548713-12.7434081064157,24.445266362708935-25.471382752875797,36.684845950769159-38.190772780665611.588992366230741-.612080377404709,1.253255032310335-1.169617061457757,2.098582192760659-1.43316246318318-3.070584150509603,4.023640530243938-6.694744521550092,7.557337870832271-10.045668351480344,11.332600232406548-6.410398968389927,7.222172884830798-12.893883241560616,14.379399095105327-19.339815083510985,21.570052857046903-.256210124438439.285807024965834-.438330769478853.638094846412059-.654968352768265.959415219978837Z" fill="#acb155" stroke-width="0"/>
        <path d="M132.807750376719923,189.963367757143715c-.017063561450414,1.237982243078477-.693792388579823,1.589271674298288-1.872247746419816,1.751061462227881-7.78872415170008,1.069298765331041-15.128763554899706-.240420991293831-22.065986590669127-3.913067189341746-.399134978430084-.211293086896148-.852101729820788-.320822167595907-1.279897625310696-.477769227209137-.355629724959726-.32324530481128-.711377189891209-.646459587534991-1.067131560410417-.969809410664311.627041801939413-1.734819131483164,1.961574098810161-2.985452278793673,3.246593971229231-4.144718096172255,1.564212167970254-1.411150245518911,1.033966906541536-2.43512438610378-.118985111959773-3.570018106330281-1.538977174599495-1.514853004882752-3.119075083599455-2.988256395391545-4.641329170719473-4.51944699210253-.357795813859411-.359887025176249-.554698429439668-.879918929499581-.825592539669742-1.326215467666771,2.463295086159633,1.309191823638685,4.330768707639436,3.382135719726648,6.358452350239531,5.202374171073643,5.72978633285129,5.143539072282692,12.413015472409825,6.42567901806251,19.738376610219348,5.292368528875159,1.738860424920858-.269027550958526,2.118957452290488.176849115102414,2.131396160990334,1.85560299305871.011817974980659,1.595274860347672-.159424329569447,3.25159407137653.396351252480599,4.819637334251638Z" fill="#3b492f" stroke-width="0"/>
        <path d="M87.482484871150518,198.308313166481639c-1.319036226639582,1.132152393475735-2.404225970800326,2.47082433120795-3.417200929190585,3.873295917976975-1.030472048640149-.95432538519708-2.060654496270217-1.908435610945162-3.090363471970704-2.862425013490792,1.090967571120927-1.170486893963243,2.181468286720701-2.341118059151995,3.271702814819946-3.511716297423845.301977428600367-.228641041874653.604217736510691-.457303286648312.906457722130654-.685953353876357,1.74305398127035-.108663577469997,2.513240744990981.918035378266723,2.852866632780206,2.447207062769849-.17448897506074.246526275395809-.348976779439909.493064955108821-.523462768569516.739591684044171Z" fill="#444c34" stroke-width="0"/>
        <path d="M94.217530810099561,190.898618551786058c-.44775008912984.338924378720549-.895501993489233.677860708214212-1.343253897870454,1.016797037715151-1.039386400878357-.712420964687226-1.911565033669831-1.619288894744386-2.847873184118725-2.451583721584939.315582965818976-.500655910249407.966115605579034-.757855607203055,1.040957168939713-1.433494730359598,1.846648444919992-1.938873068853354,3.868437783539775-3.722190512865382,5.327608497889742-6.005224232678302,1.024476313890773,1.065446095966763,2.048760476780444,2.130789646486846,3.072775276330503,3.195493184003681-2.17699580892986,1.497276340515782-3.562737840180489,3.727274257467798-5.250213861170778,5.678012462904007Z" fill="#36462c" stroke-width="0"/>
        <path d="M90.026405221069581,189.463832094687859c1.463101177410863.219533188190326,2.292422602529768,1.176145524233107,2.847832466570253,2.451479724861201-.832119218130174,1.071754805388082-1.664285125660172,2.14340470697698-2.49644473905937,3.215043338092983-.790618490131237.812841241944625-1.581239966180874,1.625682030346979-2.371851721451094,2.438438709768889-.874322104138628-.904943832898425-1.517931709458935-2.079088220820267-2.852682065018598-2.44704453666418.357801932388611-1.190371156060792,1.712030510299883-1.661825422951551,2.06007516417958-2.858972718744553.937695252740014-.932866639219355,1.875383073758712-1.865905578268212,2.81307089477923-2.798944517314339Z" fill="#3e4a30" stroke-width="0"/>
      </g>
    </g>
  </a>
</svg>