<?xml version="1.0" encoding="UTF-8"?>
<svg id="General" xmlns="http://www.w3.org/2000/svg" width="280" height="280" xmlns:xlink="http://www.w3.org/1999/xlink" viewBox="0 0 280 280">
  <a xlink:href="https://www.notion.so/dmmnotes/strategy-classes-8a7c14fe23ed4c538323c8563b9ca532?pvs=4">
    <g id="white_flag" data-name="white flag">
      <g>
        <g>
          <path d="M73.952788621119907,92.459775161172729c12.285545873310184,23.279449357170961,24.571091746609454,46.558898714340103,36.856636324089777,69.838345616095467-.184380649079685,1.099819521958125-1.043774688039775,1.55812336645613-1.914382301019941,1.926107551153109-2.089569050740465.883205437816287-3.991572055319921,2.049662182453176-5.67497040383023,3.570041876242612-.639431564879487.577502571697551-1.308662548039138.779534258999774-2.089133783008947.264966004402595-12.621870904580646-23.793761074261056-25.148940239600051-47.635961318374029-37.732483459900322-71.445044412712377-.055181418360007-.104558863464263-.112195040910592-.211442715146404-.168187000470425-.318859462870023-1.79060505266898-3.435156096616993-1.679377846559873-4.065961483624051,1.165263031749419-6.609733383591447l2.215562592571587-1.169245691706237c.728254540628768.215421319568122,1.286293398208727.667799138300325,1.631572695749128,1.337676365166772.920257027819389,1.785390159058807,2.433699437580799,2.409739372769764,4.309714170589359,2.342291295808536.490438490851375-.017633178022152.942756765860395.123143300492302,1.400408133480596.263454242010994Z" fill="none" stroke="#181818" stroke-linecap="round" stroke-linejoin="round" stroke-width="39"/>
          <path d="M118.962044961599531,177.746234093272506c9.05846841264065,17.164573624995683,18.116931641990959,34.329137428345348,27.17540005462979,51.493711053342849,1.09103309305101,2.489464255802886.504390529000375,4.444955656072125-1.759952297439668,5.866449514778651-.738521065419263.389748670098925-1.477041527150504.779497021605494-2.215562592560673,1.169245691708056-.059029595569882-.004020004420454-.123174389249471-.025155590828945-.176356600228246-.009621073721064-3.825524108700847,1.117102796279141-4.434087938299854.845221329622291-6.399049518311585-2.865194343688927-9.514597628618503-18.030197410949768-19.030079783278779-36.056788747844621-28.540165376180084-54.081782867928268-.46680101676975-1.019868692666932.204972072840974-1.421342602952791.962899750480574-1.396601959278996,3.164680030840827.103252605824309,6.304680639090293.020361583394333,9.413175841131306-.59061670128176.551042822939053-.108303764633092,1.018751038118353.301225988110673,1.539610738478586.414410686069459Z" fill="none" stroke="#181818" stroke-linecap="round" stroke-linejoin="round" stroke-width="39"/>
          <path d="M117.093736207849361,174.206041458353866l.67938500136006,1.287342776333389c-.176218075779616.850278105897814-.688946493968615,1.329351845957717-1.532263895869619,1.520124891016167-2.772635604520474.627210667214968-5.549085290720541.542073912769411-8.277513949880813-.241088852759276-1.588796445188564-.456048130716226-2.722467906958627-1.682897263741324-3.790183529059505-2.9204444590614-.310533555570146-.633380543235035-.757238921909448-1.20229361265956-.901459879720278-1.914089286436138.189499999880354-4.482902310321151,3.484807670080045-6.121744264912195,6.870808601481258-7.686167934085461.695950541279672-.321549491083715,1.257347176890107.064705911208875,1.85584014143933.299252042492299l.84923125171008,1.609178470416737c-.110965653559106.79025030577759-.756466802500654,1.013537331311454-1.350318816970685,1.281575563903971-.995396868209355.449273393549447-1.822129859468987,1.135342003803089-2.539871987639344,1.933958488998542-1.341792763409103,1.492988884376246-1.043178212299608,3.087293493392281.810187964350916,3.943722117453945,1.485873727629951.68661609386254,3.08191466704011.970550884347176,4.716445332229341.64804575180824.893570395150164-.176307325453308,1.765467876450202-.1790774711626,2.609713766569257.238590429918986Z" fill="none" stroke="#181818" stroke-linecap="round" stroke-linejoin="round" stroke-width="39"/>
          <path d="M117.093736207849361,174.206041458353866c-2.745784023109081.868087004724657-5.504302413630285,1.160747795207499-8.160586835640061-.324130710825557-2.06224336969899-1.152793895051218-2.372069395969447-3.024614085512439-.877729179959715-4.83207237976967,1.252004285301155-1.514360067300004,2.822621368210093-2.546427118402789,4.79215975706029-2.889689261488456l.679385001370974,1.287342776333389c-.111932113361036.781097666829737-.615872862390461,1.240823153240854-1.24016886282152,1.638682634586075-.722013803830123.460127922102401-1.413180908379218,1.051980879021357-1.113288084519809,2.021956753567792.316589810820005,1.023974733754585,1.286854989630228,1.215561453414921,2.188926016569894,1.23376018626368,1.05809351113021.021335206081858,2.140189170921076-.245599536236114,3.05191718657079.576807224999357l.679385001369155,1.287342776333389Z" fill="none" stroke="#181818" stroke-linecap="round" stroke-linejoin="round" stroke-width="39"/>
          <path d="M104.428341991999332,173.881376375346008c3.32872772805058,2.487599043121008,7.028980275650611,3.106122623183182,11.003917593490769,2.402054499527367.827117374330555-.146498688163774,1.617499851099637-.360405427416481,2.34086162371932-.790046640186119l1.18892375239011,2.25284985858525c-3.271326359359591,1.011102084443337-6.626922303339597,1.260712535615312-10.04094588326916,1.01073368706966-.64891221202015-.047514672067337-1.301295572980962-.03543486025228-1.952079699729438-.050857733016528-.218153765601528-.070414626719867-.373732889740495-.211398225226731-.466783672900419-.422964032066375-.644412033290791-1.489271121427009-1.76567022719064-2.754754622774271-2.073893713701182-4.401769639913255Z" fill="none" stroke="#181818" stroke-linecap="round" stroke-linejoin="round" stroke-width="39"/>
          <path d="M111.998348697599795,164.550970635853446c-3.591601636670021,1.133927304304962-6.810553300059837,2.715866227194056-8.059415524669021,6.711161227784032-.083192353451523.266145759880601-.33812732576007.475444314970446-.513178352650357.711184128387686-1.001881637221231-.871863808468333-1.277143198491103-2.18588119215201-1.967224110660027-3.247459782836813-.120184156470714-.192750944881482-.145654221239965-.39630210672658-.076418405429649-.610636595070901,2.737602190600228-2.598361521799234,6.011565310869628-4.32318743923679,9.427312641018943-5.817098836849254l1.18892375239011,2.25284985858525Z" fill="none" stroke="#181818" stroke-linecap="round" stroke-linejoin="round" stroke-width="39"/>
          <path d="M116.414351206480205,172.918698682020477c-1.416922775100829.038507729364937-2.806130170820325.660106353179799-4.252260758479679.118257156836989-.912996527889845-.342094160483612-1.932042840180657-.646466834557941-2.086898038010986-1.765251223772793-.162392253620055-1.173285133952959.439655486430638-2.095873533920894,1.415784676921248-2.710319483794592.653558671168867-.411400226044861,1.355627634678967-.745307670402326,2.03598786377006-1.113893248686509l2.887386255799356,5.471206799416905Z" fill="none" stroke="#181818" stroke-linecap="round" stroke-linejoin="round" stroke-width="39"/>
          <path d="M73.952788621119907,92.459775161172729c-2.710202497679347,1.276901582379651-4.961259137809975.510254174947477-6.413881448819666-2.187262332727187-.313892416919771-.582896429217726-.618779155980519-1.170645500138562-.927813550999417-1.756159570259115l.316508941788925-.167035098815177c2.262976567810256-.965484737052975,4.185733329870345-.587620078413238,5.666416055300942,1.535771449136519.452923388229465.858228619863439.905846776469843,1.716457239728697,1.358770002729216,2.57468555266496Z" fill="none" stroke="#181818" stroke-linecap="round" stroke-linejoin="round" stroke-width="39"/>
        </g>
        <g>
          <path d="M137.893522316669987,58.795875093972427l6.742756712659684-3.55843669818023c1.788959982030065-.54430189509003,3.378897114120264-1.561129780007832,5.133489484540405-2.180381347903676,6.794988119560003-2.398169382464403,13.859606004409216-3.317636446732649,21.002252483680422-3.763416752390185,1.691299234238613-.105558452052719,3.051010753390074.570344576637581,3.974078272180122,2.055533135076985.319792147329281.514522636440233.60478484747,1.0443140485404.886068625470216,1.577142630911112,11.139994171049693,21.102136924306251,22.277117324329083,42.205789005613042,33.413751833859351,63.309702092436055,1.508381142570215,2.858392092100985.743963371460268,4.474929431291457-2.528429301930373,4.846848666420556-5.536144821089692.629194453464152-11.017299089489825,1.451417622185545-16.417931789839713,2.893009946530583-9.708091367720044,2.59138584086395-17.990174765280244,7.549203288795979-25.166674322339531,14.514809100603088-5.857875468140264,5.68574543325667-11.336511022511331,11.753809382978943-17.465628651320003,17.166662773943244-4.256194743580636,3.758797397891612-9.149058758270257,6.431931933104352-14.187425625730612,8.972109020372955-4.333547890139016,2.184828423456565-8.87644031013042,3.46747124200192-13.582060482820452,4.366759585680484-.822540110058981.100182788844904-1.610322481079493.390829595971809-2.432848311518683.472289083430951-.556578495430585.055122669658886-1.249483720550415.263171411177609-1.310816273969976-.682791174813246.281817997829421-1.428092414234925-.433988153321479-2.574971909119995-1.052691548411531-3.747506311721736-10.590976859759394-20.071461090425146-21.183689313449577-40.142006234838846-31.776254141190293-60.21262772386217-1.06932430364941-2.026139012312342-2.070948512378891-4.091986131023077-3.460004299249704-5.930001166814691.034795745741576-1.281255898586096,1.137645094120671-1.086348056400311,1.853880983981071-1.196690915774525,3.176895369218983-.489429912930063,6.292685650620115-1.224438315011867,9.287420414930239-2.369847643289177,6.82413074222859-2.610052393831211,13.023441960349373-6.28251281037592,18.557854883789332-11.078334312163861,4.20459833807945-3.643477973193512,8.108694096450563-7.591637225179511,11.983387797059549-11.571996530225078,5.048048187951281-5.185712668999258,10.155405620060264-10.296869455936758,16.545823256170479-13.882835458267436Z" fill="none" stroke="#181818" stroke-linecap="round" stroke-linejoin="round" stroke-width="39"/>
          <path d="M66.500062301620346,106.311898511165055c.245812757439126-.997808546635497-.013453445661071-2.150615281978389.907070423209007-2.941369034888339.036394970840774-.048270703440721.063266889330407-.110426151772117.110544336561361-.142830386987043,3.146108100068886-2.15638206789481,3.937361678919842-1.988941328028886,5.698128466900016,1.343530273505166,11.368696577388619,21.516690343110895,22.723583217628402,43.040673463130588,34.076365588029148,64.565767094971307.365192539869895.692411873158562.765965610569765,1.375347986968336.858505980650079,2.176351409192648-1.091645848930057,2.4456135400942-3.960763347589818,3.198395080406044-6.453561682050349,1.692210325458291-11.732350177078843-22.231218262877519-23.464701645189052-44.462438972062955-35.197053113299262-66.693659681252029Z" fill="none" stroke="#181818" stroke-linecap="round" stroke-linejoin="round" stroke-width="39"/>
          <path d="M116.064976914529325,169.108749761100626c-2.693606205319156.868582408520524-5.387211185809065,1.737164170644974-8.080994030598958,2.605595843757328-11.725592184309789-22.224657459459195-23.450951585200528-44.449203195939845-35.176493230219421-66.673655100239557q-1.862295807241026-3.529773671316434-5.400323481921077-1.670153658633353c1.574313942299341-1.980876306010032,4.070772451539597-2.204046262391785,6.176845575009793-3.110287660070753,1.910423024381089-.822053878906445,4.033343587831041-1.149979239702589,6.062581157550085-1.695639978921463.914212216381202.52787028007333,1.52723854864962,1.289385551264786,2.023976685009984,2.232577811622832,11.494444589470731,21.825367959088908,23.01045141502982,43.639380857235665,34.528617495740036,65.452247970235476.525537026411257.995248963750782,1.08837178388967,1.959248351226051-.134210170570441,2.85931477224949Z" fill="none" stroke="#181818" stroke-linecap="round" stroke-linejoin="round" stroke-width="39"/>
        </g>
      </g>
      <g>
        <g>
          <path d="M73.952788621119907,92.459775161172729c12.285545873310184,23.279449357170961,24.571091746609454,46.558898714340103,36.856636324089777,69.838345616095467-.184380649079685,1.099819521958125-1.043774688039775,1.55812336645613-1.914382301019941,1.926107551153109-2.089569050740465.883205437816287-3.991572055319921,2.049662182453176-5.67497040383023,3.570041876242612-.639431564879487.577502571697551-1.308662548039138.779534258999774-2.089133783008947.264966004402595-12.621870904580646-23.793761074261056-25.148940239600051-47.635961318374029-37.732483459900322-71.445044412712377-.055181418360007-.104558863464263-.112195040910592-.211442715146404-.168187000470425-.318859462870023-1.79060505266898-3.435156096616993-1.679377846559873-4.065961483624051,1.165263031749419-6.609733383591447l2.215562592571587-1.169245691706237c.728254540628768.215421319568122,1.286293398208727.667799138300325,1.631572695749128,1.337676365166772.920257027819389,1.785390159058807,2.433699437580799,2.409739372769764,4.309714170589359,2.342291295808536.490438490851375-.017633178022152.942756765860395.123143300492302,1.400408133480596.263454242010994Z" fill="#8e9a4e" stroke-width="0"/>
          <path d="M118.962044961599531,177.746234093272506c9.05846841264065,17.164573624995683,18.116931641990959,34.329137428345348,27.17540005462979,51.493711053342849,1.09103309305101,2.489464255802886.504390529000375,4.444955656072125-1.759952297439668,5.866449514778651-.738521065419263.389748670098925-1.477041527150504.779497021605494-2.215562592560673,1.169245691708056-.059029595569882-.004020004420454-.123174389249471-.025155590828945-.176356600228246-.009621073721064-3.825524108700847,1.117102796279141-4.434087938299854.845221329622291-6.399049518311585-2.865194343688927-9.514597628618503-18.030197410949768-19.030079783278779-36.056788747844621-28.540165376180084-54.081782867928268-.46680101676975-1.019868692666932.204972072840974-1.421342602952791.962899750480574-1.396601959278996,3.164680030840827.103252605824309,6.304680639090293.020361583394333,9.413175841131306-.59061670128176.551042822939053-.108303764633092,1.018751038118353.301225988110673,1.539610738478586.414410686069459Z" fill="#8e9a4e" stroke-width="0"/>
          <path d="M117.093736207849361,174.206041458353866l.67938500136006,1.287342776333389c-.176218075779616.850278105897814-.688946493968615,1.329351845957717-1.532263895869619,1.520124891016167-2.772635604520474.627210667214968-5.549085290720541.542073912769411-8.277513949880813-.241088852759276-1.588796445188564-.456048130716226-2.722467906958627-1.682897263741324-3.790183529059505-2.9204444590614-.310533555570146-.633380543235035-.757238921909448-1.20229361265956-.901459879720278-1.914089286436138.189499999880354-4.482902310321151,3.484807670080045-6.121744264912195,6.870808601481258-7.686167934085461.695950541279672-.321549491083715,1.257347176890107.064705911208875,1.85584014143933.299252042492299l.84923125171008,1.609178470416737c-.110965653559106.79025030577759-.756466802500654,1.013537331311454-1.350318816970685,1.281575563903971-.995396868209355.449273393549447-1.822129859468987,1.135342003803089-2.539871987639344,1.933958488998542-1.341792763409103,1.492988884376246-1.043178212299608,3.087293493392281.810187964350916,3.943722117453945,1.485873727629951.68661609386254,3.08191466704011.970550884347176,4.716445332229341.64804575180824.893570395150164-.176307325453308,1.765467876450202-.1790774711626,2.609713766569257.238590429918986Z" fill="#737e40" stroke-width="0"/>
          <path d="M117.093736207849361,174.206041458353866c-2.745784023109081.868087004724657-5.504302413630285,1.160747795207499-8.160586835640061-.324130710825557-2.06224336969899-1.152793895051218-2.372069395969447-3.024614085512439-.877729179959715-4.83207237976967,1.252004285301155-1.514360067300004,2.822621368210093-2.546427118402789,4.79215975706029-2.889689261488456l.679385001370974,1.287342776333389c-.111932113361036.781097666829737-.615872862390461,1.240823153240854-1.24016886282152,1.638682634586075-.722013803830123.460127922102401-1.413180908379218,1.051980879021357-1.113288084519809,2.021956753567792.316589810820005,1.023974733754585,1.286854989630228,1.215561453414921,2.188926016569894,1.23376018626368,1.05809351113021.021335206081858,2.140189170921076-.245599536236114,3.05191718657079.576807224999357l.679385001369155,1.287342776333389Z" fill="#6b763c" stroke-width="0"/>
          <path d="M104.428341991999332,173.881376375346008c3.32872772805058,2.487599043121008,7.028980275650611,3.106122623183182,11.003917593490769,2.402054499527367.827117374330555-.146498688163774,1.617499851099637-.360405427416481,2.34086162371932-.790046640186119l1.18892375239011,2.25284985858525c-3.271326359359591,1.011102084443337-6.626922303339597,1.260712535615312-10.04094588326916,1.01073368706966-.64891221202015-.047514672067337-1.301295572980962-.03543486025228-1.952079699729438-.050857733016528-.218153765601528-.070414626719867-.373732889740495-.211398225226731-.466783672900419-.422964032066375-.644412033290791-1.489271121427009-1.76567022719064-2.754754622774271-2.073893713701182-4.401769639913255Z" fill="#7d8845" stroke-width="0"/>
          <path d="M111.998348697599795,164.550970635853446c-3.591601636670021,1.133927304304962-6.810553300059837,2.715866227194056-8.059415524669021,6.711161227784032-.083192353451523.266145759880601-.33812732576007.475444314970446-.513178352650357.711184128387686-1.001881637221231-.871863808468333-1.277143198491103-2.18588119215201-1.967224110660027-3.247459782836813-.120184156470714-.192750944881482-.145654221239965-.39630210672658-.076418405429649-.610636595070901,2.737602190600228-2.598361521799234,6.011565310869628-4.32318743923679,9.427312641018943-5.817098836849254l1.18892375239011,2.25284985858525Z" fill="#7f8a46" stroke-width="0"/>
          <path d="M116.414351206480205,172.918698682020477c-1.416922775100829.038507729364937-2.806130170820325.660106353179799-4.252260758479679.118257156836989-.912996527889845-.342094160483612-1.932042840180657-.646466834557941-2.086898038010986-1.765251223772793-.162392253620055-1.173285133952959.439655486430638-2.095873533920894,1.415784676921248-2.710319483794592.653558671168867-.411400226044861,1.355627634678967-.745307670402326,2.03598786377006-1.113893248686509l2.887386255799356,5.471206799416905Z" fill="#626d38" stroke-width="0"/>
          <path d="M73.952788621119907,92.459775161172729c-2.710202497679347,1.276901582379651-4.961259137809975.510254174947477-6.413881448819666-2.187262332727187-.313892416919771-.582896429217726-.618779155980519-1.170645500138562-.927813550999417-1.756159570259115l.316508941788925-.167035098815177c2.262976567810256-.965484737052975,4.185733329870345-.587620078413238,5.666416055300942,1.535771449136519.452923388229465.858228619863439.905846776469843,1.716457239728697,1.358770002729216,2.57468555266496Z" fill="#99a655" stroke-width="0"/>
        </g>
        <g>
          <path d="M137.893522316669987,58.795875093972427l6.742756712659684-3.55843669818023c1.788959982030065-.54430189509003,3.378897114120264-1.561129780007832,5.133489484540405-2.180381347903676,6.794988119560003-2.398169382464403,13.859606004409216-3.317636446732649,21.002252483680422-3.763416752390185,1.691299234238613-.105558452052719,3.051010753390074.570344576637581,3.974078272180122,2.055533135076985.319792147329281.514522636440233.60478484747,1.0443140485404.886068625470216,1.577142630911112,11.139994171049693,21.102136924306251,22.277117324329083,42.205789005613042,33.413751833859351,63.309702092436055,1.508381142570215,2.858392092100985.743963371460268,4.474929431291457-2.528429301930373,4.846848666420556-5.536144821089692.629194453464152-11.017299089489825,1.451417622185545-16.417931789839713,2.893009946530583-9.708091367720044,2.59138584086395-17.990174765280244,7.549203288795979-25.166674322339531,14.514809100603088-5.857875468140264,5.68574543325667-11.336511022511331,11.753809382978943-17.465628651320003,17.166662773943244-4.256194743580636,3.758797397891612-9.149058758270257,6.431931933104352-14.187425625730612,8.972109020372955-4.333547890139016,2.184828423456565-8.87644031013042,3.46747124200192-13.582060482820452,4.366759585680484-.822540110058981.100182788844904-1.610322481079493.390829595971809-2.432848311518683.472289083430951-.556578495430585.055122669658886-1.249483720550415.263171411177609-1.310816273969976-.682791174813246.281817997829421-1.428092414234925-.433988153321479-2.574971909119995-1.052691548411531-3.747506311721736-10.590976859759394-20.071461090425146-21.183689313449577-40.142006234838846-31.776254141190293-60.21262772386217-1.06932430364941-2.026139012312342-2.070948512378891-4.091986131023077-3.460004299249704-5.930001166814691.034795745741576-1.281255898586096,1.137645094120671-1.086348056400311,1.853880983981071-1.196690915774525,3.176895369218983-.489429912930063,6.292685650620115-1.224438315011867,9.287420414930239-2.369847643289177,6.82413074222859-2.610052393831211,13.023441960349373-6.28251281037592,18.557854883789332-11.078334312163861,4.20459833807945-3.643477973193512,8.108694096450563-7.591637225179511,11.983387797059549-11.571996530225078,5.048048187951281-5.185712668999258,10.155405620060264-10.296869455936758,16.545823256170479-13.882835458267436Z" fill="#99a655" stroke-width="0"/>
          <path d="M66.500062301620346,106.311898511165055c.245812757439126-.997808546635497-.013453445661071-2.150615281978389.907070423209007-2.941369034888339.036394970840774-.048270703440721.063266889330407-.110426151772117.110544336561361-.142830386987043,3.146108100068886-2.15638206789481,3.937361678919842-1.988941328028886,5.698128466900016,1.343530273505166,11.368696577388619,21.516690343110895,22.723583217628402,43.040673463130588,34.076365588029148,64.565767094971307.365192539869895.692411873158562.765965610569765,1.375347986968336.858505980650079,2.176351409192648-1.091645848930057,2.4456135400942-3.960763347589818,3.198395080406044-6.453561682050349,1.692210325458291-11.732350177078843-22.231218262877519-23.464701645189052-44.462438972062955-35.197053113299262-66.693659681252029Z" fill="#7d8845" stroke-width="0"/>
          <path d="M116.064976914529325,169.108749761100626c-2.693606205319156.868582408520524-5.387211185809065,1.737164170644974-8.080994030598958,2.605595843757328-11.725592184309789-22.224657459459195-23.450951585200528-44.449203195939845-35.176493230219421-66.673655100239557q-1.862295807241026-3.529773671316434-5.400323481921077-1.670153658633353c1.574313942299341-1.980876306010032,4.070772451539597-2.204046262391785,6.176845575009793-3.110287660070753,1.910423024381089-.822053878906445,4.033343587831041-1.149979239702589,6.062581157550085-1.695639978921463.914212216381202.52787028007333,1.52723854864962,1.289385551264786,2.023976685009984,2.232577811622832,11.494444589470731,21.825367959088908,23.01045141502982,43.639380857235665,34.528617495740036,65.452247970235476.525537026411257.995248963750782,1.08837178388967,1.959248351226051-.134210170570441,2.85931477224949Z" fill="#8e9a4e" stroke-width="0"/>
        </g>
      </g>
    </g>
  </a>
</svg>