<?xml version="1.0" encoding="UTF-8"?>
<svg id="Pattern" xmlns="http://www.w3.org/2000/svg" xmlns:xlink="http://www.w3.org/1999/xlink" viewBox="0 0 280 280">
  <defs>
    <linearGradient id="linear-gradient" x1="65.636154669742609" y1="279.470014458833248" x2="225.087327238067786" y2="92.645250033306468" gradientUnits="userSpaceOnUse">
      <stop offset="0" stop-color="#7e9e4c"/>
      <stop offset=".487868088942308" stop-color="#b4924e"/>
      <stop offset=".736550595908419" stop-color="#c08a54"/>
      <stop offset="1" stop-color="#d3805f"/>
    </linearGradient>
  </defs>
  <g id="C_" data-name="C+">
    <a xlink:href="https://www.notion.so/dmmnotes/Obsessive-Type-C-4f91ef2e75d349c38ffb6a298f2b2eb3?pvs=4">
      <g id="C_-2" data-name="C+">
        <path d="M140,259.388671875c-36.970703125,0-67.048828125-30.078125-67.048828125-67.048828125s30.078125-67.048828125,67.048828125-67.048828125,67.048828125,30.078125,67.048828125,67.048828125-30.078125,67.048828125-67.048828125,67.048828125Z" fill="url(#linear-gradient)" stroke-width="0"/>
        <path d="M140.00006103515625,133.791015625c32.332824707030341,0,58.548645019530341,26.215087890625,58.548645019530341,58.54864501953125.000061035157159,32.3355712890625-26.213073730467841,58.548706054689319-58.548645019530341,58.548767089849207-.001953125,0,.00189208984375,0-.0001220703125,0-32.332824707032159,0-58.548645019532159-26.215087890630457-58.548645019532159-58.548645019536707-.000061035155341-32.3355712890625,26.213073730469659-58.54876708984375,58.548645019532159-58.54876708984375.001953125,0-.00189208984375,0,.0001220703125,0M140.00006103515625,116.791015625c-20.1798095703125,0-39.15185546875,7.8583984375-53.421142578125,22.127685546875-14.269226074219659,14.26934814453125-22.127685546875,33.24127197265625-22.127624511719659,53.421142578125,0,41.6575927734375,33.890991210938409,75.548583984380457,75.548645019532159,75.548583984380457,20.179870605467841-.000061035159888,39.15185546875-7.858459472659888,53.421142578125-22.127746582040345,14.269226074217841-14.269287109371362,22.127685546875-33.241210937496362,22.127624511717841-53.421081542965112,0-41.6575927734375-33.890991210936591-75.548583984375-75.548645019530341-75.548583984375h0Z" fill="#181818" stroke-width="0"/>
      </g>
    </a>
    <a xlink:href="https://www.notion.so/dmmnotes/Obsessive-Type-C-4f91ef2e75d349c38ffb6a298f2b2eb3?pvs=4">
      <g id="C_-3" data-name="C+">
        <g>
          <path d="M115.1953125,87.9296875c.10302734375-3.03515625-.39208984375-5.310546875-1.4912109375-6.830078125-1.09912109375-1.515625-2.48779296875-2.45703125-4.16064453125-2.826171875-1.67529296875-.365234375-3.48095703125-.181640625-5.41650390625.55078125-1.93798828125.732421875-3.689453125,1.779296875-5.25927734375,3.138671875-3.6650390625,3.140625-6.62109375,7.14453125-8.87060546875,12.01171875-2.251953125,4.865234375-3.76806640625,9.96875-4.55322265625,15.306640625-.78466796875,5.337890625-.8388671875,10.65234375-.15673828125,15.935546875.67919921875,5.287109375,2.1708984375,9.8671875,4.474609375,13.73828125,1.46435546875,2.51171875,3.21826171875,4.37109375,5.25927734375,5.572265625,2.041015625,1.205078125,4.2119140625,1.884765625,6.515625,2.041015625,2.30078125.158203125,4.57763671875-.208984375,6.82958984375-1.09765625,2.24951171875-.888671875,4.26318359375-2.22265625,6.04443359375-4.00390625,2.72021484375-2.720703125,4.91845703125-4.65625,6.59375-5.80859375,1.67333984375-1.15234375,3.55712890625-1.779296875,5.65234375-1.884765625,5.9658203125,0,9.91552734375,1.67578125,11.853515625,5.0234375,1.93505859375,3.3515625,2.0654296875,7.43359375.39208984375,12.24609375-1.361328125,3.767578125-3.42919921875,7.064453125-6.201171875,9.890625-2.7744140625,2.826171875-5.9931640625,5.103515625-9.65576171875,6.830078125-3.6650390625,1.7265625-7.58984375,2.931640625-11.77490234375,3.611328125-4.1875.6796875-8.32080078125.86328125-12.40283203125.548828125s-7.95556640625-1.177734375-11.6181640625-2.58984375c-3.6650390625-1.4140625-6.80517578125-3.322265625-9.419921875-5.73046875-2.931640625-2.720703125-5.4951171875-5.833984375-7.69287109375-9.341796875-2.1982421875-3.505859375-4.03076171875-7.22265625-5.4951171875-11.146484375-1.46728515625-3.92578125-2.56591796875-8.0078125-3.296875-12.24609375-.73388671875-4.240234375-1.09912109375-8.501953125-1.09912109375-12.794921875.20849609375-9.62890625,2.24951171875-18.943359375,6.123046875-27.947265625,3.87109375-9,9.00048828125-16.849609375,15.3857421875-23.548828125,2.92919921875-3.03515625,6.41015625-5.625,10.4404296875-7.771484375,4.0283203125-2.14453125,8.1640625-3.533203125,12.4033203125-4.162109375,4.23876953125-.626953125,8.3994140625-.416015625,12.4814453125.62890625,4.08203125,1.046875,7.69287109375,3.24609375,10.8330078125,6.59375,2.40625,2.51171875,4.341796875,5.392578125,5.80908203125,8.634765625,1.46435546875,3.24609375,2.5634765625,6.4921875,3.296875,9.734375.4169921875,2.095703125.60107421875,4.08203125.54931640625,5.966796875-.0537109375,1.8828125-.498046875,3.6640625-1.33447265625,5.337890625-1.15283203125,2.09375-2.93115234375,3.5859375-5.337890625,4.474609375-2.4091796875.890625-4.78857421875,1.17578125-7.1435546875.86328125-2.35498046875-.314453125-4.39599609375-1.23046875-6.123046875-2.748046875-1.72705078125-1.515625-2.5390625-3.583984375-2.43359375-6.201171875Z" fill="none" stroke="#181818" stroke-linecap="round" stroke-linejoin="round" stroke-width="33"/>
          <path d="M215.9873046875,117.2890625c.10302734375,1.8828125.20849609375,3.8203125.31396484375,5.80859375.10302734375,1.98828125.0244140625,3.822265625-.23583984375,5.494140625-.26220703125,1.67578125-.70654296875,3.115234375-1.33447265625,4.318359375-.6279296875,1.205078125-1.6240234375,1.962890625-2.98291015625,2.275390625-.7333984375.2109375-2.4873046875.314453125-5.25927734375.314453125-2.77490234375,0-6.0986328125-.103515625-9.9697265625-.314453125.10302734375,2.724609375.181640625,5.470703125.2353515625,8.244140625.0517578125,2.7734375.13037109375,5.572265625.23583984375,8.3984375-.2109375.83984375-.57666015625,1.51953125-1.09912109375,2.041015625-.52490234375.525390625-1.283203125.99609375-2.2763671875,1.4140625-.99609375.41796875-2.43359375.732421875-4.31787109375.94140625-1.78076171875.2109375-3.6376953125.392578125-5.5732421875.548828125-1.93798828125.158203125-3.74365234375.158203125-5.41650390625,0-1.67529296875-.15625-3.14013671875-.548828125-4.39599609375-1.177734375-1.255859375-.626953125-2.041015625-1.62109375-2.35498046875-2.982421875-.2109375-.94140625-.3408203125-3.140625-.392578125-6.59375-.0537109375-3.455078125.0244140625-7.537109375.2353515625-12.24609375-2.51171875-.208984375-4.86669921875-.365234375-7.06494140625-.470703125-2.19775390625-.103515625-4.08203125-.208984375-5.65185546875-.314453125-1.88427734375-.103515625-3.61083984375-.208984375-5.18115234375-.314453125-.52490234375.10546875-.99609375-.05078125-1.4130859375-.470703125-.31396484375-.314453125-.6279296875-.80859375-.94189453125-1.4921875-.31396484375-.677734375-.470703125-1.75-.470703125-3.216796875-.10546875-1.46484375-.18408203125-3.166015625-.23583984375-5.103515625-.0537109375-1.935546875-.0537109375-3.767578125,0-5.494140625.0517578125-1.728515625.23583984375-3.21875.5498046875-4.474609375s.83642578125-1.935546875,1.56982421875-2.041015625l20.2529296875-.314453125c.20849609375-2.40625.4169921875-4.60546875.6279296875-6.59375.20849609375-1.98828125.4169921875-3.71484375.6279296875-5.181640625.20849609375-1.77734375.36572265625-3.400390625.47119140625-4.8671875-.10546875-.416015625.0517578125-.8359375.47119140625-1.255859375.31396484375-.314453125.83642578125-.626953125,1.56982421875-.94140625.73095703125-.314453125,1.830078125-.470703125,3.296875-.470703125,1.46484375,0,3.16455078125.02734375,5.1025390625.078125,1.935546875.0546875,3.76806640625.15625,5.4951171875.314453125,1.72705078125.15625,3.21826171875.41796875,4.474609375.78515625,1.255859375.3671875,1.8837890625.916015625,1.8837890625,1.6484375-.10546875,2.72265625-.18408203125,5.443359375-.2353515625,8.1640625-.05419921875,2.72265625-.07861328125,5.443359375-.07861328125,8.1640625l15.072265625-.158203125c.73095703125.2109375,1.41259765625.576171875,2.041015625,1.099609375.5224609375.525390625.9931640625,1.283203125,1.41259765625,2.275390625.4169921875.99609375.73095703125,2.3828125.9423828125,4.162109375Z" fill="none" stroke="#181818" stroke-linecap="round" stroke-linejoin="round" stroke-width="33"/>
        </g>
        <g>
          <path d="M115.1953125,87.9296875c.10302734375-3.03515625-.39208984375-5.310546875-1.4912109375-6.830078125-1.09912109375-1.515625-2.48779296875-2.45703125-4.16064453125-2.826171875-1.67529296875-.365234375-3.48095703125-.181640625-5.41650390625.55078125-1.93798828125.732421875-3.689453125,1.779296875-5.25927734375,3.138671875-3.6650390625,3.140625-6.62109375,7.14453125-8.87060546875,12.01171875-2.251953125,4.865234375-3.76806640625,9.96875-4.55322265625,15.306640625-.78466796875,5.337890625-.8388671875,10.65234375-.15673828125,15.935546875.67919921875,5.287109375,2.1708984375,9.8671875,4.474609375,13.73828125,1.46435546875,2.51171875,3.21826171875,4.37109375,5.25927734375,5.572265625,2.041015625,1.205078125,4.2119140625,1.884765625,6.515625,2.041015625,2.30078125.158203125,4.57763671875-.208984375,6.82958984375-1.09765625,2.24951171875-.888671875,4.26318359375-2.22265625,6.04443359375-4.00390625,2.72021484375-2.720703125,4.91845703125-4.65625,6.59375-5.80859375,1.67333984375-1.15234375,3.55712890625-1.779296875,5.65234375-1.884765625,5.9658203125,0,9.91552734375,1.67578125,11.853515625,5.0234375,1.93505859375,3.3515625,2.0654296875,7.43359375.39208984375,12.24609375-1.361328125,3.767578125-3.42919921875,7.064453125-6.201171875,9.890625-2.7744140625,2.826171875-5.9931640625,5.103515625-9.65576171875,6.830078125-3.6650390625,1.7265625-7.58984375,2.931640625-11.77490234375,3.611328125-4.1875.6796875-8.32080078125.86328125-12.40283203125.548828125s-7.95556640625-1.177734375-11.6181640625-2.58984375c-3.6650390625-1.4140625-6.80517578125-3.322265625-9.419921875-5.73046875-2.931640625-2.720703125-5.4951171875-5.833984375-7.69287109375-9.341796875-2.1982421875-3.505859375-4.03076171875-7.22265625-5.4951171875-11.146484375-1.46728515625-3.92578125-2.56591796875-8.0078125-3.296875-12.24609375-.73388671875-4.240234375-1.09912109375-8.501953125-1.09912109375-12.794921875.20849609375-9.62890625,2.24951171875-18.943359375,6.123046875-27.947265625,3.87109375-9,9.00048828125-16.849609375,15.3857421875-23.548828125,2.92919921875-3.03515625,6.41015625-5.625,10.4404296875-7.771484375,4.0283203125-2.14453125,8.1640625-3.533203125,12.4033203125-4.162109375,4.23876953125-.626953125,8.3994140625-.416015625,12.4814453125.62890625,4.08203125,1.046875,7.69287109375,3.24609375,10.8330078125,6.59375,2.40625,2.51171875,4.341796875,5.392578125,5.80908203125,8.634765625,1.46435546875,3.24609375,2.5634765625,6.4921875,3.296875,9.734375.4169921875,2.095703125.60107421875,4.08203125.54931640625,5.966796875-.0537109375,1.8828125-.498046875,3.6640625-1.33447265625,5.337890625-1.15283203125,2.09375-2.93115234375,3.5859375-5.337890625,4.474609375-2.4091796875.890625-4.78857421875,1.17578125-7.1435546875.86328125-2.35498046875-.314453125-4.39599609375-1.23046875-6.123046875-2.748046875-1.72705078125-1.515625-2.5390625-3.583984375-2.43359375-6.201171875Z" fill="#fff" stroke-width="0"/>
          <path d="M215.9873046875,117.2890625c.10302734375,1.8828125.20849609375,3.8203125.31396484375,5.80859375.10302734375,1.98828125.0244140625,3.822265625-.23583984375,5.494140625-.26220703125,1.67578125-.70654296875,3.115234375-1.33447265625,4.318359375-.6279296875,1.205078125-1.6240234375,1.962890625-2.98291015625,2.275390625-.7333984375.2109375-2.4873046875.314453125-5.25927734375.314453125-2.77490234375,0-6.0986328125-.103515625-9.9697265625-.314453125.10302734375,2.724609375.181640625,5.470703125.2353515625,8.244140625.0517578125,2.7734375.13037109375,5.572265625.23583984375,8.3984375-.2109375.83984375-.57666015625,1.51953125-1.09912109375,2.041015625-.52490234375.525390625-1.283203125.99609375-2.2763671875,1.4140625-.99609375.41796875-2.43359375.732421875-4.31787109375.94140625-1.78076171875.2109375-3.6376953125.392578125-5.5732421875.548828125-1.93798828125.158203125-3.74365234375.158203125-5.41650390625,0-1.67529296875-.15625-3.14013671875-.548828125-4.39599609375-1.177734375-1.255859375-.626953125-2.041015625-1.62109375-2.35498046875-2.982421875-.2109375-.94140625-.3408203125-3.140625-.392578125-6.59375-.0537109375-3.455078125.0244140625-7.537109375.2353515625-12.24609375-2.51171875-.208984375-4.86669921875-.365234375-7.06494140625-.470703125-2.19775390625-.103515625-4.08203125-.208984375-5.65185546875-.314453125-1.88427734375-.103515625-3.61083984375-.208984375-5.18115234375-.314453125-.52490234375.10546875-.99609375-.05078125-1.4130859375-.470703125-.31396484375-.314453125-.6279296875-.80859375-.94189453125-1.4921875-.31396484375-.677734375-.470703125-1.75-.470703125-3.216796875-.10546875-1.46484375-.18408203125-3.166015625-.23583984375-5.103515625-.0537109375-1.935546875-.0537109375-3.767578125,0-5.494140625.0517578125-1.728515625.23583984375-3.21875.5498046875-4.474609375s.83642578125-1.935546875,1.56982421875-2.041015625l20.2529296875-.314453125c.20849609375-2.40625.4169921875-4.60546875.6279296875-6.59375.20849609375-1.98828125.4169921875-3.71484375.6279296875-5.181640625.20849609375-1.77734375.36572265625-3.400390625.47119140625-4.8671875-.10546875-.416015625.0517578125-.8359375.47119140625-1.255859375.31396484375-.314453125.83642578125-.626953125,1.56982421875-.94140625.73095703125-.314453125,1.830078125-.470703125,3.296875-.470703125,1.46484375,0,3.16455078125.02734375,5.1025390625.078125,1.935546875.0546875,3.76806640625.15625,5.4951171875.314453125,1.72705078125.15625,3.21826171875.41796875,4.474609375.78515625,1.255859375.3671875,1.8837890625.916015625,1.8837890625,1.6484375-.10546875,2.72265625-.18408203125,5.443359375-.2353515625,8.1640625-.05419921875,2.72265625-.07861328125,5.443359375-.07861328125,8.1640625l15.072265625-.158203125c.73095703125.2109375,1.41259765625.576171875,2.041015625,1.099609375.5224609375.525390625.9931640625,1.283203125,1.41259765625,2.275390625.4169921875.99609375.73095703125,2.3828125.9423828125,4.162109375Z" fill="#fff" stroke-width="0"/>
        </g>
      </g>
    </a>
  </g>
</svg>