<?xml version="1.0" encoding="UTF-8"?>
<svg id="Pattern" xmlns="http://www.w3.org/2000/svg" xmlns:xlink="http://www.w3.org/1999/xlink" viewBox="0 0 280 280">
  <defs>
    <linearGradient id="A6" x1="90.073896191652238" y1="253.433538992938338" x2="194.156742396480951" y2="126.069003505465417" gradientUnits="userSpaceOnUse">
      <stop offset=".017956120092377" stop-color="#a25d99"/>
      <stop offset=".399476200618371" stop-color="#ae5e92"/>
      <stop offset=".570512820512821" stop-color="#b6608e"/>
      <stop offset=".965646651270213" stop-color="#c96282"/>
    </linearGradient>
  </defs>
  <a xlink:href="https://www.notion.so/dmmnotes/A6-b321873a73fa41aaaadd7192fde856a2?pvs=4#6240fd0dc246443faceeffc774f1175c">
    <g id="A6-">
      <g id="A6--2" data-name="A6-">
        <path d="M139.95654296875,259.4013671875c-10.224609375,0-20.09912109375-2.287109375-29.3486328125-6.798828125-16.0966796875-7.8505859375-28.1728515625-21.5-34.00390625-38.43359375-5.83056640625-16.9345703125-4.7177734375-35.125,3.13330078125-51.2216796875,11.33251953125-23.2353515625,34.43994140625-37.669921875,60.30517578125-37.669921875,10.22509765625,0,20.099609375,2.2880859375,29.35009765625,6.7998046875,16.09619140625,7.8505859375,28.17236328125,21.5,34.00341796875,38.43359375,5.83056640625,16.93359375,4.7177734375,35.1240234375-3.13330078125,51.2216796875-11.33251953125,23.2353515625-34.4404296875,37.6689453125-60.30615234375,37.6689453125Z" fill="url(#A6)" stroke-width="0"/>
        <path d="M140.043060302734375,133.7777099609375c8.615142822265625-.000732421875,17.358551025390625,1.907958984375,25.62298583984375,5.93878173828125,29.063018798828125,14.17498779296875,41.132186889648438,49.22625732421875,26.957183837890625,78.289306640625-10.14410400390625,20.79852294921875-30.98504638671875,32.895935058595569-52.666290283203125,32.895935058595569-8.615142822265625,0-17.358551025390625-1.907958984378638-25.62298583984375-5.938781738279431-29.063018798828125-14.174987792972388-41.1322021484375-49.226318359378638-26.957183837890625-78.289306640628638,10.14410400390625-20.79852294921875,30.98504638671875-32.8939208984375,52.666290283203125-32.89593505859375M140.048248291015625,116.7777099609375v17l-.001251220703125-17c-13.952880859375.00128173828125-27.62310791015625,3.85675048828125-39.538238525390625,11.149658203125-12.262420654296875,7.50537109375-22.086944580078125,18.32666015625-28.411529541015625,31.29400634765625-8.846221923828125,18.13739013671875-10.099884033203125,38.6341552734375-3.529937744140625,57.714599609375,6.56988525390625,19.080322265625,20.1768798828125,34.460205078126819,38.314361572265625,43.306457519536707,10.4202880859375,5.082397460930224,21.54840087890625,7.659301757808862,33.075286865234375,7.659301757808862,13.947662353515625,0,27.61846923828125-3.855346679689319,39.534576416015625-11.149047851558862,12.262130737304688-7.505554199220569,22.0865478515625-18.327087402349207,28.4112548828125-31.294616699224207,18.261459350585938-37.441650390625,2.65728759765625-82.759521484375-34.784423828125-101.02105712890625-10.4202880859375-5.08233642578125-21.54669189453125-7.6593017578125-33.070098876953125-7.6593017578125h0Z" fill="#181818" stroke-width="0"/>
      </g>
      <a xlink:href="https://www.notion.so/dmmnotes/A6-b321873a73fa41aaaadd7192fde856a2?pvs=4#6240fd0dc246443faceeffc774f1175c">
        <g id="A6--3" data-name="A6-">
          <g>
            <path d="M113.7822265625,57.78515625c3.9765625,2.302734375,7.37890625,5.12890625,10.205078125,8.478515625,2.82568359375,3.3515625,5.20556640625,7.013671875,7.1435546875,10.990234375,1.935546875,3.978515625,3.478515625,8.189453125,4.63134765625,12.638671875,1.150390625,4.44921875,2.041015625,8.923828125,2.6689453125,13.421875,1.46435546875,8.8984375,2.30126953125,17.8984375,2.51220703125,27.00390625.20849609375,9.107421875.05126953125,18.267578125-.47119140625,27.4765625-.2109375,2.6171875-.41943359375,4.763671875-.6279296875,6.435546875-.2109375,1.67578125-.603515625,3.037109375-1.177734375,4.08203125-.576171875,1.048828125-1.38818359375,1.884765625-2.43310546875,2.513671875-1.0478515625.626953125-2.51220703125,1.201171875-4.39599609375,1.7265625-1.78125.208984375-3.63818359375.365234375-5.57373046875.470703125-1.93798828125.103515625-3.74365234375-.419921875-5.41650390625-1.5703125-1.56982421875-1.044921875-2.8798828125-2.826171875-3.9248046875-5.337890625-1.0478515625-2.51171875-1.6240234375-6.123046875-1.72705078125-10.83203125v-1.5703125c-2.61767578125-.314453125-5.73046875-.57421875-9.341796875-.78515625-3.61083984375-.208984375-7.30029296875-.33984375-11.068359375-.392578125s-7.40576171875-.078125-10.91162109375-.078125h-8.8701171875c-.10546875.94140625-.23583984375,2.51171875-.392578125,4.708984375-.1572265625,2.19921875-.498046875,4.396484375-1.0205078125,6.59375-.52490234375,2.19921875-1.2314453125,4.1875-2.11962890625,5.966796875-.890625,1.78125-2.11962890625,2.720703125-3.689453125,2.826171875-1.466796875.103515625-3.14013671875.208984375-5.02392578125.314453125-1.88427734375.1015625-3.716796875-.10546875-5.4951171875-.62890625-1.78076171875-.41796875-3.2724609375-1.255859375-4.474609375-2.51171875-1.20458984375-1.255859375-1.859375-3.244140625-1.96240234375-5.966796875,0-3.2421875.0517578125-6.958984375.1572265625-11.146484375.10302734375-4.185546875.31396484375-8.73828125.6279296875-13.658203125.20849609375-4.08203125.54931640625-8.556640625,1.0205078125-13.423828125.470703125-4.8671875,1.150390625-9.865234375,2.041015625-14.994140625.8876953125-5.126953125,2.041015625-10.255859375,3.45361328125-15.38671875,1.4130859375-5.126953125,3.19189453125-9.9921875,5.33837890625-14.599609375,2.14404296875-4.60546875,4.68310546875-8.84375,7.6142578125-12.716796875,2.92919921875-3.87109375,6.43701171875-7.1171875,10.51904296875-9.734375,4.81298828125-3.03515625,10.099609375-4.552734375,15.85693359375-4.552734375,5.75537109375,0,11.19873046875,1.412109375,16.328125,4.23828125ZM75.63134765625,129.220703125c6.59375-.5234375,13.16064453125-.916015625,19.703125-1.177734375,6.5400390625-.259765625,13.10986328125-.287109375,19.70361328125-.078125.31396484375-7.431640625,0-14.076171875-.94189453125-19.939453125-.94189453125-5.861328125-2.251953125-10.806640625-3.9248046875-14.8359375-1.67578125-4.029296875-3.6650390625-7.1171875-5.96630859375-9.263671875-2.30322265625-2.14453125-4.658203125-3.21875-7.06494140625-3.21875-2.0947265625,0-4.26611328125,1.07421875-6.515625,3.21875-2.251953125,2.146484375-4.34423828125,5.287109375-6.27978515625,9.419921875-1.93798828125,4.13671875-3.689453125,9.23828125-5.25927734375,15.306640625-1.5703125,6.072265625-2.72314453125,12.9296875-3.4541015625,20.568359375Z" fill="none" stroke="#181818" stroke-linecap="round" stroke-linejoin="round" stroke-width="33"/>
            <path d="M181.9189453125,99.232421875c6.697265625-.94140625,12.84716796875-.8359375,18.44775390625.314453125,5.59765625,1.154296875,10.38623046875,3.24609375,14.365234375,6.28125,3.9765625,3.037109375,7.01123046875,6.90625,9.10595703125,11.6171875,2.0927734375,4.7109375,3.03466796875,10.1015625,2.826171875,16.171875-.2109375,4.5-1.0205078125,8.869140625-2.43359375,13.109375-1.4130859375,4.23828125-3.42919921875,8.083984375-6.04443359375,11.5390625-2.61767578125,3.453125-5.78466796875,6.4375-9.49853515625,8.94921875-3.71630859375,2.51171875-7.9287109375,4.29296875-12.638671875,5.337890625-1.78076171875.314453125-3.5078125.548828125-5.1806640625.70703125-1.67578125.15625-3.40283203125.12890625-5.18115234375-.080078125-4.7099609375-.3125-9.21142578125-1.412109375-13.501953125-3.296875-4.29296875-1.8828125-8.1123046875-4.39453125-11.4609375-7.53515625-3.35107421875-3.140625-6.123046875-6.830078125-8.3212890625-11.068359375-2.19775390625-4.240234375-3.5078125-8.87109375-3.9248046875-13.89453125-.52490234375-5.65234375-.18408203125-11.486328125,1.0205078125-17.505859375,1.2021484375-6.017578125,2.98291015625-11.904296875,5.337890625-17.662109375,2.35498046875-5.755859375,5.154296875-11.2265625,8.3994140625-16.40625,3.2431640625-5.181640625,6.6455078125-9.70703125,10.205078125-13.58203125,1.46435546875-1.671875,3.0078125-3.216796875,4.63134765625-4.630859375,1.62158203125-1.412109375,3.27001953125-2.58984375,4.94580078125-3.533203125.83642578125-.521484375,1.7783203125-.705078125,2.826171875-.548828125,1.044921875.15625,1.93505859375.603515625,2.6689453125,1.333984375,1.150390625.943359375,2.35498046875,2.12109375,3.61083984375,3.533203125s2.30078125,2.958984375,3.14013671875,4.630859375c.4169921875.734375.7578125,1.4921875,1.0205078125,2.27734375.259765625.78515625.33837890625,1.59765625.2353515625,2.43359375,0,1.78125-.7333984375,3.40234375-2.1982421875,4.8671875-4.8154296875,4.919921875-8.94873046875,10.466796875-12.40283203125,16.640625ZM192.9091796875,121.52734375c-3.35107421875-.8359375-6.35888671875-.8359375-9.02783203125,0-2.6689453125.83984375-4.86669921875,2.119140625-6.59375,3.845703125-1.72705078125,1.728515625-2.95849609375,3.794921875-3.689453125,6.203125-.7333984375,2.408203125-.83935546875,4.736328125-.31396484375,6.986328125.5224609375,2.251953125,1.75146484375,4.29296875,3.689453125,6.123046875,1.935546875,1.83203125,4.63134765625,3.115234375,8.08544921875,3.845703125,2.09228515625.314453125,4.13330078125.236328125,6.123046875-.236328125,1.98681640625-.470703125,3.76806640625-1.490234375,5.337890625-3.060546875,1.7783203125-1.779296875,2.98291015625-3.8984375,3.61083984375-6.359375.6279296875-2.45703125.78515625-4.865234375.47119140625-7.220703125s-1.1259765625-4.474609375-2.43359375-6.359375c-1.31005859375-1.8828125-3.0615234375-3.138671875-5.25927734375-3.767578125Z" fill="none" stroke="#181818" stroke-linecap="round" stroke-linejoin="round" stroke-width="33"/>
          </g>
          <g>
            <path d="M113.7822265625,57.78515625c3.9765625,2.302734375,7.37890625,5.12890625,10.205078125,8.478515625,2.82568359375,3.3515625,5.20556640625,7.013671875,7.1435546875,10.990234375,1.935546875,3.978515625,3.478515625,8.189453125,4.63134765625,12.638671875,1.150390625,4.44921875,2.041015625,8.923828125,2.6689453125,13.421875,1.46435546875,8.8984375,2.30126953125,17.8984375,2.51220703125,27.00390625.20849609375,9.107421875.05126953125,18.267578125-.47119140625,27.4765625-.2109375,2.6171875-.41943359375,4.763671875-.6279296875,6.435546875-.2109375,1.67578125-.603515625,3.037109375-1.177734375,4.08203125-.576171875,1.048828125-1.38818359375,1.884765625-2.43310546875,2.513671875-1.0478515625.626953125-2.51220703125,1.201171875-4.39599609375,1.7265625-1.78125.208984375-3.63818359375.365234375-5.57373046875.470703125-1.93798828125.103515625-3.74365234375-.419921875-5.41650390625-1.5703125-1.56982421875-1.044921875-2.8798828125-2.826171875-3.9248046875-5.337890625-1.0478515625-2.51171875-1.6240234375-6.123046875-1.72705078125-10.83203125v-1.5703125c-2.61767578125-.314453125-5.73046875-.57421875-9.341796875-.78515625-3.61083984375-.208984375-7.30029296875-.33984375-11.068359375-.392578125s-7.40576171875-.078125-10.91162109375-.078125h-8.8701171875c-.10546875.94140625-.23583984375,2.51171875-.392578125,4.708984375-.1572265625,2.19921875-.498046875,4.396484375-1.0205078125,6.59375-.52490234375,2.19921875-1.2314453125,4.1875-2.11962890625,5.966796875-.890625,1.78125-2.11962890625,2.720703125-3.689453125,2.826171875-1.466796875.103515625-3.14013671875.208984375-5.02392578125.314453125-1.88427734375.1015625-3.716796875-.10546875-5.4951171875-.62890625-1.78076171875-.41796875-3.2724609375-1.255859375-4.474609375-2.51171875-1.20458984375-1.255859375-1.859375-3.244140625-1.96240234375-5.966796875,0-3.2421875.0517578125-6.958984375.1572265625-11.146484375.10302734375-4.185546875.31396484375-8.73828125.6279296875-13.658203125.20849609375-4.08203125.54931640625-8.556640625,1.0205078125-13.423828125.470703125-4.8671875,1.150390625-9.865234375,2.041015625-14.994140625.8876953125-5.126953125,2.041015625-10.255859375,3.45361328125-15.38671875,1.4130859375-5.126953125,3.19189453125-9.9921875,5.33837890625-14.599609375,2.14404296875-4.60546875,4.68310546875-8.84375,7.6142578125-12.716796875,2.92919921875-3.87109375,6.43701171875-7.1171875,10.51904296875-9.734375,4.81298828125-3.03515625,10.099609375-4.552734375,15.85693359375-4.552734375,5.75537109375,0,11.19873046875,1.412109375,16.328125,4.23828125ZM75.63134765625,129.220703125c6.59375-.5234375,13.16064453125-.916015625,19.703125-1.177734375,6.5400390625-.259765625,13.10986328125-.287109375,19.70361328125-.078125.31396484375-7.431640625,0-14.076171875-.94189453125-19.939453125-.94189453125-5.861328125-2.251953125-10.806640625-3.9248046875-14.8359375-1.67578125-4.029296875-3.6650390625-7.1171875-5.96630859375-9.263671875-2.30322265625-2.14453125-4.658203125-3.21875-7.06494140625-3.21875-2.0947265625,0-4.26611328125,1.07421875-6.515625,3.21875-2.251953125,2.146484375-4.34423828125,5.287109375-6.27978515625,9.419921875-1.93798828125,4.13671875-3.689453125,9.23828125-5.25927734375,15.306640625-1.5703125,6.072265625-2.72314453125,12.9296875-3.4541015625,20.568359375Z" fill="#fff" stroke-width="0"/>
            <path d="M181.9189453125,99.232421875c6.697265625-.94140625,12.84716796875-.8359375,18.44775390625.314453125,5.59765625,1.154296875,10.38623046875,3.24609375,14.365234375,6.28125,3.9765625,3.037109375,7.01123046875,6.90625,9.10595703125,11.6171875,2.0927734375,4.7109375,3.03466796875,10.1015625,2.826171875,16.171875-.2109375,4.5-1.0205078125,8.869140625-2.43359375,13.109375-1.4130859375,4.23828125-3.42919921875,8.083984375-6.04443359375,11.5390625-2.61767578125,3.453125-5.78466796875,6.4375-9.49853515625,8.94921875-3.71630859375,2.51171875-7.9287109375,4.29296875-12.638671875,5.337890625-1.78076171875.314453125-3.5078125.548828125-5.1806640625.70703125-1.67578125.15625-3.40283203125.12890625-5.18115234375-.080078125-4.7099609375-.3125-9.21142578125-1.412109375-13.501953125-3.296875-4.29296875-1.8828125-8.1123046875-4.39453125-11.4609375-7.53515625-3.35107421875-3.140625-6.123046875-6.830078125-8.3212890625-11.068359375-2.19775390625-4.240234375-3.5078125-8.87109375-3.9248046875-13.89453125-.52490234375-5.65234375-.18408203125-11.486328125,1.0205078125-17.505859375,1.2021484375-6.017578125,2.98291015625-11.904296875,5.337890625-17.662109375,2.35498046875-5.755859375,5.154296875-11.2265625,8.3994140625-16.40625,3.2431640625-5.181640625,6.6455078125-9.70703125,10.205078125-13.58203125,1.46435546875-1.671875,3.0078125-3.216796875,4.63134765625-4.630859375,1.62158203125-1.412109375,3.27001953125-2.58984375,4.94580078125-3.533203125.83642578125-.521484375,1.7783203125-.705078125,2.826171875-.548828125,1.044921875.15625,1.93505859375.603515625,2.6689453125,1.333984375,1.150390625.943359375,2.35498046875,2.12109375,3.61083984375,3.533203125s2.30078125,2.958984375,3.14013671875,4.630859375c.4169921875.734375.7578125,1.4921875,1.0205078125,2.27734375.259765625.78515625.33837890625,1.59765625.2353515625,2.43359375,0,1.78125-.7333984375,3.40234375-2.1982421875,4.8671875-4.8154296875,4.919921875-8.94873046875,10.466796875-12.40283203125,16.640625ZM192.9091796875,121.52734375c-3.35107421875-.8359375-6.35888671875-.8359375-9.02783203125,0-2.6689453125.83984375-4.86669921875,2.119140625-6.59375,3.845703125-1.72705078125,1.728515625-2.95849609375,3.794921875-3.689453125,6.203125-.7333984375,2.408203125-.83935546875,4.736328125-.31396484375,6.986328125.5224609375,2.251953125,1.75146484375,4.29296875,3.689453125,6.123046875,1.935546875,1.83203125,4.63134765625,3.115234375,8.08544921875,3.845703125,2.09228515625.314453125,4.13330078125.236328125,6.123046875-.236328125,1.98681640625-.470703125,3.76806640625-1.490234375,5.337890625-3.060546875,1.7783203125-1.779296875,2.98291015625-3.8984375,3.61083984375-6.359375.6279296875-2.45703125.78515625-4.865234375.47119140625-7.220703125s-1.1259765625-4.474609375-2.43359375-6.359375c-1.31005859375-1.8828125-3.0615234375-3.138671875-5.25927734375-3.767578125Z" fill="#fff" stroke-width="0"/>
          </g>
        </g>
      </a>
      <a xlink:href="https://www.notion.so/dmmnotes/A6-b321873a73fa41aaaadd7192fde856a2?pvs=4#6240fd0dc246443faceeffc774f1175c">
        <g id="A6--4" data-name="A6-">
          <path d="M117.4853515625,204.1083984375c14.37939453125-.419921875,28.7998046875-.419921875,43.26416015625,0,.50439453125.0849609375.96533203125.3369140625,1.38720703125.7568359375.419921875.421875.7568359375.9892578125,1.00927734375,1.703125.25244140625.7158203125.419921875,1.74609375.50439453125,3.08984375.0830078125,1.26171875.1259765625,2.5859375.1259765625,3.9736328125s-.1259765625,2.6708984375-.3779296875,3.8466796875c-.25244140625,1.1787109375-.630859375,2.166015625-1.13525390625,2.96484375-.5048828125.7998046875-1.22021484375,1.32421875-2.14453125,1.576171875-.50439453125.0849609375-1.47216796875.1064453125-2.90087890625.0634765625-1.43115234375-.0419921875-3.1533203125-.1259765625-5.171875-.251953125-2.01806640625-.126953125-4.2470703125-.2724609375-6.68505859375-.4423828125-2.43994140625-.1669921875-4.9189453125-.3349609375-7.44189453125-.50390625-2.43994140625-.16796875-4.814453125-.3154296875-7.12646484375-.44140625-2.31396484375-.1259765625-4.39501953125-.2724609375-6.24365234375-.44140625-2.1875-.0830078125-4.20556640625-.16796875-6.0546875-.2529296875-.3369140625.0849609375-.673828125,0-1.0087890625-.251953125-.25244140625-.16796875-.48486328125-.5244140625-.69384765625-1.072265625-.2109375-.5458984375-.3583984375-1.32421875-.44140625-2.3330078125-.0849609375-1.009765625-.16943359375-2.185546875-.25244140625-3.5322265625-.08447265625-1.34375-.1259765625-2.6484375-.1259765625-3.91015625,0-1.2607421875.1259765625-2.3330078125.37841796875-3.2158203125.25244140625-.8837890625.630859375-1.3251953125,1.13525390625-1.3251953125Z" fill="#fff" stroke="#000"/>
          <path d="M117.4853515625,204.1083984375c14.37939453125-.419921875,28.7998046875-.419921875,43.26416015625,0,.50439453125.0849609375.96533203125.3369140625,1.38720703125.7568359375.419921875.421875.7568359375.9892578125,1.00927734375,1.703125.25244140625.7158203125.419921875,1.74609375.50439453125,3.08984375.0830078125,1.26171875.1259765625,2.5859375.1259765625,3.9736328125s-.1259765625,2.6708984375-.3779296875,3.8466796875c-.25244140625,1.1787109375-.630859375,2.166015625-1.13525390625,2.96484375-.5048828125.7998046875-1.22021484375,1.32421875-2.14453125,1.576171875-.50439453125.0849609375-1.47216796875.1064453125-2.90087890625.0634765625-1.43115234375-.0419921875-3.1533203125-.1259765625-5.171875-.251953125-2.01806640625-.126953125-4.2470703125-.2724609375-6.68505859375-.4423828125-2.43994140625-.1669921875-4.9189453125-.3349609375-7.44189453125-.50390625-2.43994140625-.16796875-4.814453125-.3154296875-7.12646484375-.44140625-2.31396484375-.1259765625-4.39501953125-.2724609375-6.24365234375-.44140625-2.1875-.0830078125-4.20556640625-.16796875-6.0546875-.2529296875-.3369140625.0849609375-.673828125,0-1.0087890625-.251953125-.25244140625-.16796875-.48486328125-.5244140625-.69384765625-1.072265625-.2109375-.5458984375-.3583984375-1.32421875-.44140625-2.3330078125-.0849609375-1.009765625-.16943359375-2.185546875-.25244140625-3.5322265625-.08447265625-1.34375-.1259765625-2.6484375-.1259765625-3.91015625,0-1.2607421875.1259765625-2.3330078125.37841796875-3.2158203125.25244140625-.8837890625.630859375-1.3251953125,1.13525390625-1.3251953125Z" fill="none" stroke="#181818" stroke-linecap="round" stroke-linejoin="round" stroke-width="22"/>
          <path d="M117.4853515625,204.1083984375c14.37939453125-.419921875,28.7998046875-.419921875,43.26416015625,0,.50439453125.0849609375.96533203125.3369140625,1.38720703125.7568359375.419921875.421875.7568359375.9892578125,1.00927734375,1.703125.25244140625.7158203125.419921875,1.74609375.50439453125,3.08984375.0830078125,1.26171875.1259765625,2.5859375.1259765625,3.9736328125s-.1259765625,2.6708984375-.3779296875,3.8466796875c-.25244140625,1.1787109375-.630859375,2.166015625-1.13525390625,2.96484375-.5048828125.7998046875-1.22021484375,1.32421875-2.14453125,1.576171875-.50439453125.0849609375-1.47216796875.1064453125-2.90087890625.0634765625-1.43115234375-.0419921875-3.1533203125-.1259765625-5.171875-.251953125-2.01806640625-.126953125-4.2470703125-.2724609375-6.68505859375-.4423828125-2.43994140625-.1669921875-4.9189453125-.3349609375-7.44189453125-.50390625-2.43994140625-.16796875-4.814453125-.3154296875-7.12646484375-.44140625-2.31396484375-.1259765625-4.39501953125-.2724609375-6.24365234375-.44140625-2.1875-.0830078125-4.20556640625-.16796875-6.0546875-.2529296875-.3369140625.0849609375-.673828125,0-1.0087890625-.251953125-.25244140625-.16796875-.48486328125-.5244140625-.69384765625-1.072265625-.2109375-.5458984375-.3583984375-1.32421875-.44140625-2.3330078125-.0849609375-1.009765625-.16943359375-2.185546875-.25244140625-3.5322265625-.08447265625-1.34375-.1259765625-2.6484375-.1259765625-3.91015625,0-1.2607421875.1259765625-2.3330078125.37841796875-3.2158203125.25244140625-.8837890625.630859375-1.3251953125,1.13525390625-1.3251953125Z" fill="#fff" stroke-width="0"/>
        </g>
      </a>
    </g>
  </a>
</svg>