<?xml version="1.0" encoding="UTF-8"?>
<svg id="Pattern" xmlns="http://www.w3.org/2000/svg" width="280" height="280" xmlns:xlink="http://www.w3.org/1999/xlink" viewBox="0 0 280 280">
  <defs>
    <linearGradient id="A5-2" data-name="A5" x1="104.853426422796474" y1="245.387153556388512" x2="178.341754042842751" y2="134.469988266520147" gradientUnits="userSpaceOnUse">
      <stop offset="0" stop-color="#8e5ba6"/>
      <stop offset=".438390020007055" stop-color="#a25d99"/>
      <stop offset="1" stop-color="#b6608e"/>
    </linearGradient>
  </defs>
  <a xlink:href="https://www.notion.so/dmmnotes/A5-8e85f49046ef412aa229745abf7d38d3?pvs=4#cc754bc8687c4e66850f6931f541d7fa">
    <g id="A5">
      <g>
        <path d="M139.99365234375,259.388671875c-17.46484375,0-34.00341796875-6.68310546875-46.56982421875-18.818359375-12.8828125-12.4404296875-20.14990234375-29.15380859375-20.46240234375-47.060546875-.3125-17.90625,6.3671875-34.86328125,18.80810546875-47.74609375,12.7490234375-13.2021484375,29.8798828125-20.47265625,48.23681640625-20.47265625,17.46484375,0,34.00341796875,6.68310546875,46.56982421875,18.81787109375,12.8828125,12.44091796875,20.14990234375,29.154296875,20.46240234375,47.060546875.3125,17.90673828125-6.3671875,34.86376953125-18.80810546875,47.74658203125-12.7490234375,13.20166015625-29.8798828125,20.47265625-48.23681640625,20.47265625Z" fill="url(#A5-2)" stroke-width="0"/>
        <path d="M140.006399586331099,133.79095458984375c14.642293498385698-.00054931640625,29.300317332614213,5.45758056640625,40.66495280014351,16.43231201171875,23.260234832763672,22.46221923828125,23.907238006591797,59.52752685546875,1.445060729980469,82.787811279296875-11.487462997436523,11.895599365234375-26.796446800231934,17.877410888671875-42.122840046416968,17.877410888671875-14.642293811310083,0-29.300289988983423-5.4576416015625-40.664925456512719-16.432342529296875-23.260234832763672-22.462188720703125-23.907238006591797-59.527557373046875-1.445060729980469-82.787811279296875,11.487462997436523-11.8956298828125,26.796419143676758-17.8768310546875,42.122812702786177-17.87738037109375M140.008529411628842,116.7908935546875v17l-.000529411248863-17h-.002176471054554c-20.684175885282457.00079345703125-39.986353314481676,8.1932373046875-54.351000226102769,23.06817626953125-28.937881469726562,29.96612548828125-28.101409912109375,77.887939453125,1.864646911621094,106.825836181640625,14.159118652344659,13.67333984375,32.794824600219727,21.203582763671875,52.474118020385504,21.203582763671875,20.683764670044184,0,39.986174795776606-8.192474365234375,54.35158846154809-23.06817626953125,28.937820434570312-29.966064453125,28.101356506347656-77.88787841796875-1.864589691162109-106.8258056640625-14.159175872801825-13.67340087890625-32.794116973876953-21.20361328125-52.472057593986392-21.20361328125h0Z" fill="#181818" stroke-width="0"/>
      </g>
      <a xlink:href="https://www.notion.so/dmmnotes/A5-8e85f49046ef412aa229745abf7d38d3?pvs=4#cc754bc8687c4e66850f6931f541d7fa">
        <g>
          <g>
            <path d="M118.8056640625,57.78564453125c3.9765625,2.302734375,7.37890625,5.12890625,10.205078125,8.4775390625,2.826171875,3.3515625,5.2060546875,7.013671875,7.1435546875,10.990234375,1.935546875,3.978515625,3.478515625,8.1904296875,4.6318359375,12.638671875,1.150390625,4.44921875,2.041015625,8.923828125,2.6689453125,13.4228515625,1.4638671875,8.8974609375,2.30078125,17.8984375,2.51171875,27.00390625.208984375,9.1064453125.0517578125,18.2666015625-.470703125,27.4755859375-.2109375,2.6171875-.419921875,4.763671875-.6279296875,6.4365234375-.2109375,1.67578125-.603515625,3.037109375-1.177734375,4.08203125-.576171875,1.0478515625-1.388671875,1.884765625-2.43359375,2.5126953125-1.0478515625.6279296875-2.51171875,1.2021484375-4.3955078125,1.7265625-1.78125.208984375-3.638671875.365234375-5.57421875.470703125-1.9375.103515625-3.7431640625-.4189453125-5.416015625-1.5693359375-1.5703125-1.044921875-2.8798828125-2.826171875-3.9248046875-5.337890625-1.0478515625-2.5126953125-1.6240234375-6.123046875-1.7275390625-10.8330078125v-1.5703125c-2.6171875-.314453125-5.73046875-.57421875-9.341796875-.78515625-3.6103515625-.2080078125-7.2998046875-.3388671875-11.068359375-.392578125-3.767578125-.0517578125-7.4052734375-.078125-10.9111328125-.078125h-8.8701171875c-.10546875.94140625-.236328125,2.51171875-.392578125,4.7099609375-.1572265625,2.1982421875-.498046875,4.3955078125-1.0205078125,6.59375-.525390625,2.1982421875-1.2314453125,4.1875-2.1201171875,5.9658203125-.890625,1.78125-2.119140625,2.720703125-3.689453125,2.826171875-1.466796875.103515625-3.1396484375.208984375-5.0234375.314453125-1.884765625.1025390625-3.716796875-.10546875-5.4951171875-.6279296875-1.78125-.41796875-3.2724609375-1.2568359375-4.474609375-2.5126953125-1.205078125-1.255859375-1.859375-3.2431640625-1.962890625-5.9658203125,0-3.2431640625.0517578125-6.958984375.1572265625-11.146484375.103515625-4.185546875.314453125-8.73828125.6279296875-13.6591796875.208984375-4.08203125.5498046875-8.556640625,1.0205078125-13.423828125s1.150390625-9.8642578125,2.041015625-14.9931640625c.8876953125-5.126953125,2.041015625-10.2568359375,3.4541015625-15.38671875,1.4130859375-5.126953125,3.19140625-9.9931640625,5.337890625-14.6005859375,2.14453125-4.6044921875,4.68359375-8.84375,7.6142578125-12.716796875,2.9296875-3.87109375,6.4375-7.1162109375,10.51953125-9.734375,4.8125-3.0341796875,10.099609375-4.552734375,15.8564453125-4.552734375,5.755859375,0,11.19921875,1.4130859375,16.328125,4.2392578125ZM80.6552734375,129.22021484375c6.59375-.5224609375,13.16015625-.9150390625,19.703125-1.177734375,6.5400390625-.259765625,13.109375-.287109375,19.703125-.078125.314453125-7.4306640625,0-14.076171875-.94140625-19.939453125-.9423828125-5.8603515625-2.251953125-10.8056640625-3.9248046875-14.8359375-1.67578125-4.0283203125-3.6650390625-7.1162109375-5.966796875-9.2626953125-2.302734375-2.14453125-4.658203125-3.21875-7.064453125-3.21875-2.0947265625,0-4.2666015625,1.07421875-6.515625,3.21875-2.251953125,2.146484375-4.3447265625,5.2861328125-6.2802734375,9.419921875-1.9375,4.1357421875-3.689453125,9.23828125-5.2587890625,15.306640625-1.5703125,6.072265625-2.7236328125,12.9287109375-3.4541015625,20.5673828125Z" fill="none" stroke="#181818" stroke-linecap="round" stroke-linejoin="round" stroke-width="33"/>
            <path d="M214.103515625,109.90966796875c3.2431640625,4.3955078125,5.44140625,9.2109375,6.59375,14.443359375,1.1513671875,5.2353515625,1.28125,10.4404296875.392578125,15.6220703125-.890625,5.1806640625-2.6689453125,10.1533203125-5.337890625,14.9150390625-2.6689453125,4.763671875-6.201171875,8.767578125-10.59765625,12.009765625-5.9658203125,4.396484375-12.037109375,6.830078125-18.2119140625,7.30078125-6.1767578125.470703125-12.037109375-.8115234375-17.583984375-3.8466796875-3.6650390625-1.8837890625-6.8046875-4.2900390625-9.419921875-7.2216796875-2.6171875-2.9287109375-4.0302734375-6.59375-4.2392578125-10.990234375-.10546875-2.40625.392578125-4.7099609375,1.4921875-6.908203125,1.0986328125-2.197265625,2.5361328125-3.9248046875,4.3173828125-5.1806640625,1.7783203125-1.255859375,3.7138671875-1.8564453125,5.80859375-1.8056640625,2.0927734375.0546875,4.1337890625,1.1259765625,6.123046875,3.21875,1.46484375,1.8837890625,3.3486328125,3.5322265625,5.65234375,4.9453125,2.30078125,1.4130859375,4.8125,1.859375,7.5361328125,1.3349609375,5.232421875-.8369140625,8.73828125-4.4482421875,10.5185546875-10.8330078125.4169921875-1.7783203125.57421875-3.6357421875.4716796875-5.57421875-.10546875-1.9345703125-.498046875-3.740234375-1.177734375-5.416015625-.6826171875-1.6728515625-1.703125-3.1650390625-3.0615234375-4.474609375-1.361328125-1.3076171875-3.140625-2.22265625-5.337890625-2.7470703125-3.037109375-.8369140625-6.2802734375-1.1240234375-9.734375-.8642578125-3.4541015625.2626953125-6.4912109375.8125-9.10546875,1.6484375-.9423828125.2119140625-2.43359375.2626953125-4.474609375.1572265625-2.041015625-.1025390625-3.638671875-.1572265625-4.7890625-.1572265625-1.255859375-.1025390625-2.330078125-.73046875-3.21875-1.8837890625-.8896484375-1.150390625-1.5693359375-2.51171875-2.041015625-4.08203125-.470703125-1.5693359375-.759765625-3.1396484375-.86328125-4.7099609375-.10546875-1.5693359375.0517578125-2.9287109375.4716796875-4.08203125.3134765625-1.044921875.548828125-3.0615234375.7060546875-6.0439453125.1572265625-2.9833984375.287109375-6.33203125.392578125-10.0478515625.1025390625-3.71484375.181640625-7.4580078125.2353515625-11.2255859375.0517578125-3.7685546875.1298828125-6.908203125.2353515625-9.419921875.103515625-1.9873046875.392578125-3.3486328125.86328125-4.08203125.4716796875-.7314453125,1.177734375-1.1513671875,2.1201171875-1.2568359375.94140625-.1025390625,2.0927734375-.0244140625,3.4541015625.236328125,1.3583984375.26171875,2.9287109375.4462890625,4.7099609375.548828125,7.2216796875.525390625,14.46875.890625,21.744140625,1.099609375,7.2734375.2109375,14.7314453125.10546875,22.373046875-.314453125,1.255859375-.1025390625,2.37890625-.1025390625,3.375,0,.9931640625.10546875,1.7001953125.2626953125,2.119140625.470703125.5234375.314453125,1.0205078125.8125,1.4921875,1.4921875.470703125.681640625.8095703125,1.75390625,1.0205078125,3.2177734375.2080078125,1.884765625.287109375,3.92578125.2353515625,6.123046875-.0537109375,2.1982421875-.2900390625,4.2666015625-.70703125,6.2021484375-.4189453125,1.9375-1.046875,3.6376953125-1.8837890625,5.1025390625-.8388671875,1.466796875-1.8837890625,2.3544921875-3.1396484375,2.6689453125-.6279296875.2109375-1.9384765625.3408203125-3.9248046875.392578125-1.990234375.0537109375-4.396484375.0263671875-7.22265625-.0791015625-10.0478515625-.3134765625-20.095703125-1.255859375-30.1435546875-2.8251953125v9.576171875c8.7919921875-1.4638671875,16.8232421875-1.044921875,24.099609375,1.2568359375,7.2734375,2.302734375,13.1611328125,6.3330078125,17.662109375,12.0888671875Z" fill="none" stroke="#181818" stroke-linecap="round" stroke-linejoin="round" stroke-width="33"/>
          </g>
          <g>
            <path d="M118.8056640625,57.78564453125c3.9765625,2.302734375,7.37890625,5.12890625,10.205078125,8.4775390625,2.826171875,3.3515625,5.2060546875,7.013671875,7.1435546875,10.990234375,1.935546875,3.978515625,3.478515625,8.1904296875,4.6318359375,12.638671875,1.150390625,4.44921875,2.041015625,8.923828125,2.6689453125,13.4228515625,1.4638671875,8.8974609375,2.30078125,17.8984375,2.51171875,27.00390625.208984375,9.1064453125.0517578125,18.2666015625-.470703125,27.4755859375-.2109375,2.6171875-.419921875,4.763671875-.6279296875,6.4365234375-.2109375,1.67578125-.603515625,3.037109375-1.177734375,4.08203125-.576171875,1.0478515625-1.388671875,1.884765625-2.43359375,2.5126953125-1.0478515625.6279296875-2.51171875,1.2021484375-4.3955078125,1.7265625-1.78125.208984375-3.638671875.365234375-5.57421875.470703125-1.9375.103515625-3.7431640625-.4189453125-5.416015625-1.5693359375-1.5703125-1.044921875-2.8798828125-2.826171875-3.9248046875-5.337890625-1.0478515625-2.5126953125-1.6240234375-6.123046875-1.7275390625-10.8330078125v-1.5703125c-2.6171875-.314453125-5.73046875-.57421875-9.341796875-.78515625-3.6103515625-.2080078125-7.2998046875-.3388671875-11.068359375-.392578125-3.767578125-.0517578125-7.4052734375-.078125-10.9111328125-.078125h-8.8701171875c-.10546875.94140625-.236328125,2.51171875-.392578125,4.7099609375-.1572265625,2.1982421875-.498046875,4.3955078125-1.0205078125,6.59375-.525390625,2.1982421875-1.2314453125,4.1875-2.1201171875,5.9658203125-.890625,1.78125-2.119140625,2.720703125-3.689453125,2.826171875-1.466796875.103515625-3.1396484375.208984375-5.0234375.314453125-1.884765625.1025390625-3.716796875-.10546875-5.4951171875-.6279296875-1.78125-.41796875-3.2724609375-1.2568359375-4.474609375-2.5126953125-1.205078125-1.255859375-1.859375-3.2431640625-1.962890625-5.9658203125,0-3.2431640625.0517578125-6.958984375.1572265625-11.146484375.103515625-4.185546875.314453125-8.73828125.6279296875-13.6591796875.208984375-4.08203125.5498046875-8.556640625,1.0205078125-13.423828125s1.150390625-9.8642578125,2.041015625-14.9931640625c.8876953125-5.126953125,2.041015625-10.2568359375,3.4541015625-15.38671875,1.4130859375-5.126953125,3.19140625-9.9931640625,5.337890625-14.6005859375,2.14453125-4.6044921875,4.68359375-8.84375,7.6142578125-12.716796875,2.9296875-3.87109375,6.4375-7.1162109375,10.51953125-9.734375,4.8125-3.0341796875,10.099609375-4.552734375,15.8564453125-4.552734375,5.755859375,0,11.19921875,1.4130859375,16.328125,4.2392578125ZM80.6552734375,129.22021484375c6.59375-.5224609375,13.16015625-.9150390625,19.703125-1.177734375,6.5400390625-.259765625,13.109375-.287109375,19.703125-.078125.314453125-7.4306640625,0-14.076171875-.94140625-19.939453125-.9423828125-5.8603515625-2.251953125-10.8056640625-3.9248046875-14.8359375-1.67578125-4.0283203125-3.6650390625-7.1162109375-5.966796875-9.2626953125-2.302734375-2.14453125-4.658203125-3.21875-7.064453125-3.21875-2.0947265625,0-4.2666015625,1.07421875-6.515625,3.21875-2.251953125,2.146484375-4.3447265625,5.2861328125-6.2802734375,9.419921875-1.9375,4.1357421875-3.689453125,9.23828125-5.2587890625,15.306640625-1.5703125,6.072265625-2.7236328125,12.9287109375-3.4541015625,20.5673828125Z" fill="#fff" stroke-width="0"/>
            <path d="M214.103515625,109.90966796875c3.2431640625,4.3955078125,5.44140625,9.2109375,6.59375,14.443359375,1.1513671875,5.2353515625,1.28125,10.4404296875.392578125,15.6220703125-.890625,5.1806640625-2.6689453125,10.1533203125-5.337890625,14.9150390625-2.6689453125,4.763671875-6.201171875,8.767578125-10.59765625,12.009765625-5.9658203125,4.396484375-12.037109375,6.830078125-18.2119140625,7.30078125-6.1767578125.470703125-12.037109375-.8115234375-17.583984375-3.8466796875-3.6650390625-1.8837890625-6.8046875-4.2900390625-9.419921875-7.2216796875-2.6171875-2.9287109375-4.0302734375-6.59375-4.2392578125-10.990234375-.10546875-2.40625.392578125-4.7099609375,1.4921875-6.908203125,1.0986328125-2.197265625,2.5361328125-3.9248046875,4.3173828125-5.1806640625,1.7783203125-1.255859375,3.7138671875-1.8564453125,5.80859375-1.8056640625,2.0927734375.0546875,4.1337890625,1.1259765625,6.123046875,3.21875,1.46484375,1.8837890625,3.3486328125,3.5322265625,5.65234375,4.9453125,2.30078125,1.4130859375,4.8125,1.859375,7.5361328125,1.3349609375,5.232421875-.8369140625,8.73828125-4.4482421875,10.5185546875-10.8330078125.4169921875-1.7783203125.57421875-3.6357421875.4716796875-5.57421875-.10546875-1.9345703125-.498046875-3.740234375-1.177734375-5.416015625-.6826171875-1.6728515625-1.703125-3.1650390625-3.0615234375-4.474609375-1.361328125-1.3076171875-3.140625-2.22265625-5.337890625-2.7470703125-3.037109375-.8369140625-6.2802734375-1.1240234375-9.734375-.8642578125-3.4541015625.2626953125-6.4912109375.8125-9.10546875,1.6484375-.9423828125.2119140625-2.43359375.2626953125-4.474609375.1572265625-2.041015625-.1025390625-3.638671875-.1572265625-4.7890625-.1572265625-1.255859375-.1025390625-2.330078125-.73046875-3.21875-1.8837890625-.8896484375-1.150390625-1.5693359375-2.51171875-2.041015625-4.08203125-.470703125-1.5693359375-.759765625-3.1396484375-.86328125-4.7099609375-.10546875-1.5693359375.0517578125-2.9287109375.4716796875-4.08203125.3134765625-1.044921875.548828125-3.0615234375.7060546875-6.0439453125.1572265625-2.9833984375.287109375-6.33203125.392578125-10.0478515625.1025390625-3.71484375.181640625-7.4580078125.2353515625-11.2255859375.0517578125-3.7685546875.1298828125-6.908203125.2353515625-9.419921875.103515625-1.9873046875.392578125-3.3486328125.86328125-4.08203125.4716796875-.7314453125,1.177734375-1.1513671875,2.1201171875-1.2568359375.94140625-.1025390625,2.0927734375-.0244140625,3.4541015625.236328125,1.3583984375.26171875,2.9287109375.4462890625,4.7099609375.548828125,7.2216796875.525390625,14.46875.890625,21.744140625,1.099609375,7.2734375.2109375,14.7314453125.10546875,22.373046875-.314453125,1.255859375-.1025390625,2.37890625-.1025390625,3.375,0,.9931640625.10546875,1.7001953125.2626953125,2.119140625.470703125.5234375.314453125,1.0205078125.8125,1.4921875,1.4921875.470703125.681640625.8095703125,1.75390625,1.0205078125,3.2177734375.2080078125,1.884765625.287109375,3.92578125.2353515625,6.123046875-.0537109375,2.1982421875-.2900390625,4.2666015625-.70703125,6.2021484375-.4189453125,1.9375-1.046875,3.6376953125-1.8837890625,5.1025390625-.8388671875,1.466796875-1.8837890625,2.3544921875-3.1396484375,2.6689453125-.6279296875.2109375-1.9384765625.3408203125-3.9248046875.392578125-1.990234375.0537109375-4.396484375.0263671875-7.22265625-.0791015625-10.0478515625-.3134765625-20.095703125-1.255859375-30.1435546875-2.8251953125v9.576171875c8.7919921875-1.4638671875,16.8232421875-1.044921875,24.099609375,1.2568359375,7.2734375,2.302734375,13.1611328125,6.3330078125,17.662109375,12.0888671875Z" fill="#fff" stroke-width="0"/>
          </g>
        </g>
      </a>
    </g>
  </a>
</svg>