<?xml version="1.0" encoding="UTF-8"?>
<svg xmlns="http://www.w3.org/2000/svg" width="280" height="280" xmlns:xlink="http://www.w3.org/1999/xlink" viewBox="0 0 280 280">
  <defs>
    <linearGradient id="linear-gradient" x1="91.923151719524867" y1="252.524515800208974" x2="182.352171497140773" y2="139.259884967653363" gradientUnits="userSpaceOnUse">
      <stop offset="0" stop-color="#7d67a2"/>
      <stop offset=".206039270413564" stop-color="#89639e"/>
      <stop offset=".489316239316239" stop-color="#a25d99"/>
      <stop offset=".695423804837873" stop-color="#ae5e91"/>
      <stop offset="1" stop-color="#c96282"/>
    </linearGradient>
  </defs>
  <g id="General">
    <a xlink:href="https://www.notion.so/dmmnotes/major-strategies-3fa9d56be0d24b57bb3cf996db249b1b?pvs=4"/>
  </g>
  <g id="Pattern">
    <a xlink:href="https://www.notion.so/dmmnotes/Compulsive-Type-A-e4331303bb644ca4a481c9e5d536687c?pvs=4">
      <g id="A_" data-name="A+">
        <a xlink:href="https://www.notion.so/dmmnotes/Compulsive-Type-A-e4331303bb644ca4a481c9e5d536687c?pvs=4">
          <g id="A_-2" data-name="A+">
            <path d="M139.98828125,259.404296875c-29.126953125,0-54.74853515625-18.625-63.75537109375-46.345703125-5.5341796875-17.03271484375-4.1044921875-35.201171875,4.0263671875-51.158203125,8.13037109375-15.95751953125,21.98876953125-27.79345703125,39.021484375-33.32763671875,6.73388671875-2.18798828125,13.708984375-3.29736328125,20.73095703125-3.29736328125,29.12744140625,0,54.74853515625,18.62451171875,63.75537109375,46.34521484375,11.4248046875,35.1611328125-7.88623046875,73.06201171875-43.0478515625,84.486328125-6.73388671875,2.18798828125-13.70849609375,3.29736328125-20.73095703125,3.29736328125Z" fill="url(#linear-gradient)" stroke-width="0"/>
            <path d="M140.01190185546875,133.775146484375c24.6810302734375-.00079345703125,47.63189697265625,15.729248046875,55.6712646484375,40.472045898436591,9.9921875,30.7529296875-6.837646484375,63.783416748047784-37.59063720703125,73.775634765625-6.01019287109375,1.952850341797784-12.109252929688409,2.881408691407159-18.10443115234375,2.881408691407159-24.681091308594659,0-47.63189697265625-15.729217529296875-55.6712646484375-40.471984863282159-9.9921875-30.7529296875,6.837646484375-63.783447265625,37.59063720703125-73.775695800780341,6.01019287109375-1.952819824219659,12.10919189453125-2.8812255859375,18.10443115234375-2.88140869140625M140.01373291015625,116.775146484375h-.00250244140625c-7.91595458984375.00030517578125-15.7744140625,1.24969482421875-23.357055664063409,3.71343994140625-39.618774414061591,12.8729248046875-61.378173828125,55.57806396484375-48.505310058592841,95.1968994140625,5.029052734375,15.477935791015625,14.66876220703125,28.649658203125,27.876953125,38.091247558592841,12.929443359375,9.242279052735284,28.13134765625,14.127502441407159,43.96221923828125,14.127502441407159,7.91546630859375,0,15.77410888671875-1.2493896484375,23.357788085936591-3.713470458984375,39.618774414063409-12.87286376953125,61.378173828125-55.577972412109375,48.505310058594659-95.196807861328125-5.02880859375-15.4771728515625-14.66827392578125-28.648620605469659-27.87628173828125-38.0904541015625-12.92950439453125-9.242919921875-28.131103515625-14.12835693359375-43.96112060546875-14.12835693359375h0Z" fill="#181818" stroke-width="0"/>
          </g>
        </a>
        <a xlink:href="https://www.notion.so/dmmnotes/Compulsive-Type-A-e4331303bb644ca4a481c9e5d536687c?pvs=4">
          <g>
            <g>
              <path d="M117.62841796875,57.78515625c3.9765625,2.302734375,7.37890625,5.12890625,10.205078125,8.4775390625,2.82568359375,3.3515625,5.20556640625,7.013671875,7.1435546875,10.990234375,1.935546875,3.978515625,3.478515625,8.1904296875,4.63134765625,12.638671875,1.150390625,4.44921875,2.041015625,8.923828125,2.6689453125,13.4228515625,1.46435546875,8.8974609375,2.30126953125,17.8984375,2.51220703125,27.00390625.20849609375,9.1064453125.05126953125,18.2666015625-.47119140625,27.4755859375-.2109375,2.6171875-.41943359375,4.763671875-.6279296875,6.4365234375-.2109375,1.67578125-.603515625,3.037109375-1.177734375,4.08203125-.576171875,1.0478515625-1.38818359375,1.884765625-2.43310546875,2.5126953125-1.0478515625.6279296875-2.51220703125,1.2021484375-4.39599609375,1.7265625-1.78125.208984375-3.63818359375.365234375-5.57373046875.470703125-1.93798828125.103515625-3.74365234375-.4189453125-5.41650390625-1.5693359375-1.56982421875-1.044921875-2.8798828125-2.826171875-3.9248046875-5.337890625-1.0478515625-2.5126953125-1.6240234375-6.123046875-1.72705078125-10.8330078125v-1.5703125c-2.61767578125-.314453125-5.73046875-.57421875-9.341796875-.78515625-3.61083984375-.2080078125-7.30029296875-.3388671875-11.068359375-.392578125-3.76806640625-.0517578125-7.40576171875-.078125-10.91162109375-.078125h-8.8701171875c-.10546875.94140625-.23583984375,2.51171875-.392578125,4.7099609375-.1572265625,2.1982421875-.498046875,4.3955078125-1.0205078125,6.59375-.52490234375,2.1982421875-1.2314453125,4.1875-2.11962890625,5.9658203125-.890625,1.78125-2.11962890625,2.720703125-3.689453125,2.826171875-1.466796875.103515625-3.14013671875.208984375-5.02392578125.314453125-1.88427734375.1025390625-3.716796875-.10546875-5.4951171875-.6279296875-1.78076171875-.41796875-3.2724609375-1.2568359375-4.474609375-2.5126953125-1.20458984375-1.255859375-1.859375-3.2431640625-1.96240234375-5.9658203125,0-3.2431640625.0517578125-6.958984375.1572265625-11.146484375.10302734375-4.185546875.31396484375-8.73828125.6279296875-13.6591796875.20849609375-4.08203125.54931640625-8.556640625,1.0205078125-13.423828125.470703125-4.8671875,1.150390625-9.8642578125,2.041015625-14.9931640625.8876953125-5.126953125,2.041015625-10.2568359375,3.45361328125-15.38671875,1.4130859375-5.126953125,3.19189453125-9.9931640625,5.33837890625-14.6005859375,2.14404296875-4.6044921875,4.68310546875-8.84375,7.6142578125-12.716796875,2.92919921875-3.87109375,6.43701171875-7.1162109375,10.51904296875-9.734375,4.81298828125-3.0341796875,10.099609375-4.552734375,15.85693359375-4.552734375,5.75537109375,0,11.19873046875,1.4130859375,16.328125,4.2392578125ZM79.4775390625,129.2197265625c6.59375-.5224609375,13.16064453125-.9150390625,19.703125-1.177734375,6.5400390625-.259765625,13.10986328125-.287109375,19.70361328125-.078125.31396484375-7.4306640625,0-14.076171875-.94189453125-19.939453125-.94189453125-5.8603515625-2.251953125-10.8056640625-3.9248046875-14.8359375-1.67578125-4.0283203125-3.6650390625-7.1162109375-5.96630859375-9.2626953125-2.30322265625-2.14453125-4.658203125-3.21875-7.06494140625-3.21875-2.0947265625,0-4.26611328125,1.07421875-6.515625,3.21875-2.251953125,2.146484375-4.34423828125,5.2861328125-6.27978515625,9.419921875-1.93798828125,4.1357421875-3.689453125,9.23828125-5.25927734375,15.306640625-1.5703125,6.072265625-2.72314453125,12.9287109375-3.4541015625,20.5673828125Z" fill="none" stroke="#181818" stroke-linecap="round" stroke-linejoin="round" stroke-width="33"/>
              <path d="M220.46240234375,117.2880859375c.10302734375,1.8837890625.20849609375,3.8212890625.31396484375,5.80859375.10302734375,1.9892578125.0244140625,3.822265625-.23583984375,5.4951171875-.26220703125,1.67578125-.70654296875,3.115234375-1.33447265625,4.3173828125-.6279296875,1.205078125-1.6240234375,1.962890625-2.98291015625,2.2763671875-.7333984375.2109375-2.4873046875.314453125-5.25927734375.314453125-2.77490234375,0-6.0986328125-.103515625-9.9697265625-.314453125.10302734375,2.7236328125.181640625,5.470703125.2353515625,8.2431640625.0517578125,2.7744140625.13037109375,5.5732421875.23583984375,8.3994140625-.2109375.8388671875-.57666015625,1.5185546875-1.09912109375,2.041015625-.52490234375.5244140625-1.283203125.99609375-2.2763671875,1.4130859375-.99609375.4189453125-2.43359375.7333984375-4.31787109375.94140625-1.78076171875.2109375-3.6376953125.392578125-5.5732421875.5498046875-1.93798828125.1572265625-3.74365234375.1572265625-5.41650390625,0-1.67529296875-.1572265625-3.14013671875-.5498046875-4.39599609375-1.177734375s-2.041015625-1.62109375-2.35498046875-2.982421875c-.2109375-.9423828125-.3408203125-3.140625-.392578125-6.5947265625-.0537109375-3.4541015625.0244140625-7.5361328125.2353515625-12.24609375-2.51171875-.2080078125-4.86669921875-.365234375-7.06494140625-.470703125-2.19775390625-.1025390625-4.08203125-.2080078125-5.65185546875-.3134765625-1.88427734375-.103515625-3.61083984375-.208984375-5.18115234375-.314453125-.52490234375.10546875-.99609375-.0517578125-1.4130859375-.470703125-.31396484375-.314453125-.6279296875-.8095703125-.94189453125-1.4921875-.31396484375-.6787109375-.470703125-1.7509765625-.470703125-3.2177734375-.10546875-1.46484375-.18408203125-3.1650390625-.23583984375-5.1025390625-.0537109375-1.935546875-.0537109375-3.7685546875,0-5.4951171875.0517578125-1.7275390625.23583984375-3.21875.5498046875-4.474609375s.83642578125-1.935546875,1.56982421875-2.041015625l20.2529296875-.314453125c.20849609375-2.40625.4169921875-4.6044921875.6279296875-6.59375.20849609375-1.9873046875.4169921875-3.7138671875.6279296875-5.1806640625.20849609375-1.7783203125.36572265625-3.400390625.47119140625-4.8671875-.10546875-.4169921875.0517578125-.8369140625.47119140625-1.255859375.31396484375-.314453125.83642578125-.6279296875,1.56982421875-.9423828125.73095703125-.3134765625,1.830078125-.470703125,3.296875-.470703125,1.46484375,0,3.16455078125.02734375,5.1025390625.078125,1.935546875.0546875,3.76806640625.1572265625,5.4951171875.314453125s3.21826171875.4189453125,4.474609375.78515625c1.255859375.3681640625,1.8837890625.9169921875,1.8837890625,1.6484375-.10546875,2.72265625-.18408203125,5.443359375-.2353515625,8.1640625-.05419921875,2.72265625-.07861328125,5.443359375-.07861328125,8.1640625l15.072265625-.1572265625c.73095703125.2109375,1.41259765625.576171875,2.041015625,1.0986328125.5224609375.525390625.9931640625,1.283203125,1.41259765625,2.2763671875.4169921875.99609375.73095703125,2.3828125.9423828125,4.1611328125Z" fill="none" stroke="#181818" stroke-linecap="round" stroke-linejoin="round" stroke-width="33"/>
            </g>
            <g>
              <path d="M117.62841796875,57.78515625c3.9765625,2.302734375,7.37890625,5.12890625,10.205078125,8.4775390625,2.82568359375,3.3515625,5.20556640625,7.013671875,7.1435546875,10.990234375,1.935546875,3.978515625,3.478515625,8.1904296875,4.63134765625,12.638671875,1.150390625,4.44921875,2.041015625,8.923828125,2.6689453125,13.4228515625,1.46435546875,8.8974609375,2.30126953125,17.8984375,2.51220703125,27.00390625.20849609375,9.1064453125.05126953125,18.2666015625-.47119140625,27.4755859375-.2109375,2.6171875-.41943359375,4.763671875-.6279296875,6.4365234375-.2109375,1.67578125-.603515625,3.037109375-1.177734375,4.08203125-.576171875,1.0478515625-1.38818359375,1.884765625-2.43310546875,2.5126953125-1.0478515625.6279296875-2.51220703125,1.2021484375-4.39599609375,1.7265625-1.78125.208984375-3.63818359375.365234375-5.57373046875.470703125-1.93798828125.103515625-3.74365234375-.4189453125-5.41650390625-1.5693359375-1.56982421875-1.044921875-2.8798828125-2.826171875-3.9248046875-5.337890625-1.0478515625-2.5126953125-1.6240234375-6.123046875-1.72705078125-10.8330078125v-1.5703125c-2.61767578125-.314453125-5.73046875-.57421875-9.341796875-.78515625-3.61083984375-.2080078125-7.30029296875-.3388671875-11.068359375-.392578125-3.76806640625-.0517578125-7.40576171875-.078125-10.91162109375-.078125h-8.8701171875c-.10546875.94140625-.23583984375,2.51171875-.392578125,4.7099609375-.1572265625,2.1982421875-.498046875,4.3955078125-1.0205078125,6.59375-.52490234375,2.1982421875-1.2314453125,4.1875-2.11962890625,5.9658203125-.890625,1.78125-2.11962890625,2.720703125-3.689453125,2.826171875-1.466796875.103515625-3.14013671875.208984375-5.02392578125.314453125-1.88427734375.1025390625-3.716796875-.10546875-5.4951171875-.6279296875-1.78076171875-.41796875-3.2724609375-1.2568359375-4.474609375-2.5126953125-1.20458984375-1.255859375-1.859375-3.2431640625-1.96240234375-5.9658203125,0-3.2431640625.0517578125-6.958984375.1572265625-11.146484375.10302734375-4.185546875.31396484375-8.73828125.6279296875-13.6591796875.20849609375-4.08203125.54931640625-8.556640625,1.0205078125-13.423828125.470703125-4.8671875,1.150390625-9.8642578125,2.041015625-14.9931640625.8876953125-5.126953125,2.041015625-10.2568359375,3.45361328125-15.38671875,1.4130859375-5.126953125,3.19189453125-9.9931640625,5.33837890625-14.6005859375,2.14404296875-4.6044921875,4.68310546875-8.84375,7.6142578125-12.716796875,2.92919921875-3.87109375,6.43701171875-7.1162109375,10.51904296875-9.734375,4.81298828125-3.0341796875,10.099609375-4.552734375,15.85693359375-4.552734375,5.75537109375,0,11.19873046875,1.4130859375,16.328125,4.2392578125ZM79.4775390625,129.2197265625c6.59375-.5224609375,13.16064453125-.9150390625,19.703125-1.177734375,6.5400390625-.259765625,13.10986328125-.287109375,19.70361328125-.078125.31396484375-7.4306640625,0-14.076171875-.94189453125-19.939453125-.94189453125-5.8603515625-2.251953125-10.8056640625-3.9248046875-14.8359375-1.67578125-4.0283203125-3.6650390625-7.1162109375-5.96630859375-9.2626953125-2.30322265625-2.14453125-4.658203125-3.21875-7.06494140625-3.21875-2.0947265625,0-4.26611328125,1.07421875-6.515625,3.21875-2.251953125,2.146484375-4.34423828125,5.2861328125-6.27978515625,9.419921875-1.93798828125,4.1357421875-3.689453125,9.23828125-5.25927734375,15.306640625-1.5703125,6.072265625-2.72314453125,12.9287109375-3.4541015625,20.5673828125Z" fill="#fff" stroke-width="0"/>
              <path d="M220.46240234375,117.2880859375c.10302734375,1.8837890625.20849609375,3.8212890625.31396484375,5.80859375.10302734375,1.9892578125.0244140625,3.822265625-.23583984375,5.4951171875-.26220703125,1.67578125-.70654296875,3.115234375-1.33447265625,4.3173828125-.6279296875,1.205078125-1.6240234375,1.962890625-2.98291015625,2.2763671875-.7333984375.2109375-2.4873046875.314453125-5.25927734375.314453125-2.77490234375,0-6.0986328125-.103515625-9.9697265625-.314453125.10302734375,2.7236328125.181640625,5.470703125.2353515625,8.2431640625.0517578125,2.7744140625.13037109375,5.5732421875.23583984375,8.3994140625-.2109375.8388671875-.57666015625,1.5185546875-1.09912109375,2.041015625-.52490234375.5244140625-1.283203125.99609375-2.2763671875,1.4130859375-.99609375.4189453125-2.43359375.7333984375-4.31787109375.94140625-1.78076171875.2109375-3.6376953125.392578125-5.5732421875.5498046875-1.93798828125.1572265625-3.74365234375.1572265625-5.41650390625,0-1.67529296875-.1572265625-3.14013671875-.5498046875-4.39599609375-1.177734375s-2.041015625-1.62109375-2.35498046875-2.982421875c-.2109375-.9423828125-.3408203125-3.140625-.392578125-6.5947265625-.0537109375-3.4541015625.0244140625-7.5361328125.2353515625-12.24609375-2.51171875-.2080078125-4.86669921875-.365234375-7.06494140625-.470703125-2.19775390625-.1025390625-4.08203125-.2080078125-5.65185546875-.3134765625-1.88427734375-.103515625-3.61083984375-.208984375-5.18115234375-.314453125-.52490234375.10546875-.99609375-.0517578125-1.4130859375-.470703125-.31396484375-.314453125-.6279296875-.8095703125-.94189453125-1.4921875-.31396484375-.6787109375-.470703125-1.7509765625-.470703125-3.2177734375-.10546875-1.46484375-.18408203125-3.1650390625-.23583984375-5.1025390625-.0537109375-1.935546875-.0537109375-3.7685546875,0-5.4951171875.0517578125-1.7275390625.23583984375-3.21875.5498046875-4.474609375s.83642578125-1.935546875,1.56982421875-2.041015625l20.2529296875-.314453125c.20849609375-2.40625.4169921875-4.6044921875.6279296875-6.59375.20849609375-1.9873046875.4169921875-3.7138671875.6279296875-5.1806640625.20849609375-1.7783203125.36572265625-3.400390625.47119140625-4.8671875-.10546875-.4169921875.0517578125-.8369140625.47119140625-1.255859375.31396484375-.314453125.83642578125-.6279296875,1.56982421875-.9423828125.73095703125-.3134765625,1.830078125-.470703125,3.296875-.470703125,1.46484375,0,3.16455078125.02734375,5.1025390625.078125,1.935546875.0546875,3.76806640625.1572265625,5.4951171875.314453125s3.21826171875.4189453125,4.474609375.78515625c1.255859375.3681640625,1.8837890625.9169921875,1.8837890625,1.6484375-.10546875,2.72265625-.18408203125,5.443359375-.2353515625,8.1640625-.05419921875,2.72265625-.07861328125,5.443359375-.07861328125,8.1640625l15.072265625-.1572265625c.73095703125.2109375,1.41259765625.576171875,2.041015625,1.0986328125.5224609375.525390625.9931640625,1.283203125,1.41259765625,2.2763671875.4169921875.99609375.73095703125,2.3828125.9423828125,4.1611328125Z" fill="#fff" stroke-width="0"/>
            </g>
          </g>
        </a>
      </g>
    </a>
  </g>
</svg>