<?xml version="1.0" encoding="UTF-8"?>
<svg id="Pattern" xmlns="http://www.w3.org/2000/svg" xmlns:xlink="http://www.w3.org/1999/xlink" viewBox="0 0 280 280">
  <defs>
    <linearGradient id="A2-3" data-name="A2" x1="60.927087424203819" y1="276.293573771746196" x2="208.853568385817937" y2="119.235828553259012" gradientUnits="userSpaceOnUse">
      <stop offset="0" stop-color="#52789c"/>
      <stop offset=".485042735042735" stop-color="#6a70a0"/>
      <stop offset="1" stop-color="#7d67a2"/>
    </linearGradient>
  </defs>
  <a xlink:href="https://www.notion.so/dmmnotes/A2-9ac690cdca654729a17a5a255944e2d1?pvs=4#c26ff2ac121240588e7e04cafdb00fbb">
    <g id="A2">
      <g id="A2-2" data-name="A2">
        <path d="M140.03662109375,259.4033203125c-5.84521484375,0-11.6962890625-.77392578125-17.39013671875-2.29931640625-17.298828125-4.63525390625-31.7578125-15.72998046875-40.71240234375-31.23974609375-8.95458984375-15.51025390625-11.33349609375-33.5791015625-6.6982421875-50.87841796875,7.8427734375-29.26806640625,34.45947265625-49.70947265625,64.7275390625-49.70947265625,5.84521484375,0,11.6962890625.77392578125,17.39013671875,2.29931640625,17.298828125,4.63525390625,31.7578125,15.72998046875,40.71240234375,31.23974609375s11.33349609375,33.57861328125,6.6982421875,50.87744140625c-7.8427734375,29.2685546875-34.45947265625,49.71044921875-64.7275390625,49.71044921875Z" fill="url(#A2-3)" stroke-width="0"/>
        <path d="M139.9632568359375,133.7764892578125c5.016998291015625-.000244140625,10.1136474609375.64923095703125,15.190277099609375,2.009521484375,31.2337646484375,8.3690185546875,49.76922607421875,40.47344970703125,41.400177001953125,71.70721435546875-7.0087890625,26.15716552734375-30.667205810546875,43.409729003905341-56.5169677734375,43.409729003905341-5.016998291015625,0-10.1136474609375-.649261474608466-15.190277099609375-2.009521484375-31.2337646484375-8.369049072264716-49.76922607421875-40.473510742186591-41.400177001953125-71.707214355467841,7.0087890625-26.15716552734375,30.667205810546875-43.40838623046875,56.5169677734375-43.40972900390625M139.96600341796875,116.7764892578125v17l-.000640869140625-17h-.002899169921875c-34.1082763671875.001708984375-64.101058959960938,23.03375244140625-72.936935424804688,56.009765625-5.222885131835938,19.4921875-2.542526245117188,39.8515625,7.547348022460938,57.3277587890625,10.089889526367188,17.476226806640625,26.3814697265625,29.97723388671875,45.8736572265625,35.200164794921875,6.410888671875,1.7177734375,13.001922607421875,2.588775634764716,19.590179443359375,2.588775634764716,34.1082763671875,0,64.101409912109375-23.032043457030341,72.937744140625-56.009765624999091,5.222900390625-19.49224853515625,2.54254150390625-39.85162353515625-7.547332763671875-57.32781982421875-10.089874267578125-17.47625732421875-26.3814697265625-29.97723388671875-45.87371826171875-35.20013427734375-6.41082763671875-1.7177734375-13.001007080078125-2.5887451171875-19.58740234375-2.5887451171875h0Z" fill="#181818" stroke-width="0"/>
      </g>
      <a xlink:href="https://www.notion.so/dmmnotes/A2-9ac690cdca654729a17a5a255944e2d1?pvs=4#c26ff2ac121240588e7e04cafdb00fbb">
        <g>
          <g>
            <path d="M118.09912109375,57.7861328125c3.9765625,2.302734375,7.37890625,5.12890625,10.205078125,8.4775390625,2.82568359375,3.3515625,5.20556640625,7.013671875,7.1435546875,10.990234375,1.935546875,3.978515625,3.478515625,8.1904296875,4.63134765625,12.638671875,1.150390625,4.44921875,2.041015625,8.923828125,2.6689453125,13.4228515625,1.46435546875,8.8974609375,2.30126953125,17.8984375,2.51220703125,27.00390625.20849609375,9.1064453125.05126953125,18.2666015625-.47119140625,27.4755859375-.2109375,2.6171875-.41943359375,4.763671875-.6279296875,6.4365234375-.2109375,1.67578125-.603515625,3.037109375-1.177734375,4.08203125-.576171875,1.0478515625-1.38818359375,1.884765625-2.43310546875,2.5126953125-1.0478515625.6279296875-2.51220703125,1.2021484375-4.39599609375,1.7265625-1.78125.208984375-3.63818359375.365234375-5.57373046875.470703125-1.93798828125.103515625-3.74365234375-.4189453125-5.41650390625-1.5693359375-1.56982421875-1.044921875-2.8798828125-2.826171875-3.9248046875-5.337890625-1.0478515625-2.5126953125-1.6240234375-6.123046875-1.72705078125-10.8330078125v-1.5703125c-2.61767578125-.314453125-5.73046875-.57421875-9.341796875-.78515625-3.61083984375-.2080078125-7.30029296875-.3388671875-11.068359375-.392578125-3.76806640625-.0517578125-7.40576171875-.078125-10.91162109375-.078125h-8.8701171875c-.10546875.94140625-.23583984375,2.51171875-.392578125,4.7099609375-.1572265625,2.1982421875-.498046875,4.3955078125-1.0205078125,6.59375-.52490234375,2.1982421875-1.2314453125,4.1875-2.11962890625,5.9658203125-.890625,1.78125-2.11962890625,2.720703125-3.689453125,2.826171875-1.466796875.103515625-3.14013671875.208984375-5.02392578125.314453125-1.88427734375.1025390625-3.716796875-.10546875-5.4951171875-.6279296875-1.78076171875-.41796875-3.2724609375-1.2568359375-4.474609375-2.5126953125-1.20458984375-1.255859375-1.859375-3.2431640625-1.96240234375-5.9658203125,0-3.2431640625.0517578125-6.958984375.1572265625-11.146484375.10302734375-4.185546875.31396484375-8.73828125.6279296875-13.6591796875.20849609375-4.08203125.54931640625-8.556640625,1.0205078125-13.423828125.470703125-4.8671875,1.150390625-9.8642578125,2.041015625-14.9931640625.8876953125-5.126953125,2.041015625-10.2568359375,3.45361328125-15.38671875,1.4130859375-5.126953125,3.19189453125-9.9931640625,5.33837890625-14.6005859375,2.14404296875-4.6044921875,4.68310546875-8.84375,7.6142578125-12.716796875,2.92919921875-3.87109375,6.43701171875-7.1162109375,10.51904296875-9.734375,4.81298828125-3.0341796875,10.099609375-4.552734375,15.85693359375-4.552734375,5.75537109375,0,11.19873046875,1.4130859375,16.328125,4.2392578125ZM79.9482421875,129.220703125c6.59375-.5224609375,13.16064453125-.9150390625,19.703125-1.177734375,6.5400390625-.259765625,13.10986328125-.287109375,19.70361328125-.078125.31396484375-7.4306640625,0-14.076171875-.94189453125-19.939453125-.94189453125-5.8603515625-2.251953125-10.8056640625-3.9248046875-14.8359375-1.67578125-4.0283203125-3.6650390625-7.1162109375-5.96630859375-9.2626953125-2.30322265625-2.14453125-4.658203125-3.21875-7.06494140625-3.21875-2.0947265625,0-4.26611328125,1.07421875-6.515625,3.21875-2.251953125,2.146484375-4.34423828125,5.2861328125-6.27978515625,9.419921875-1.93798828125,4.1357421875-3.689453125,9.23828125-5.25927734375,15.306640625-1.5703125,6.072265625-2.72314453125,12.9287109375-3.4541015625,20.5673828125Z" fill="none" stroke="#181818" stroke-linecap="round" stroke-linejoin="round" stroke-width="33"/>
            <path d="M218.73486328125,147.9033203125c.73095703125,0,1.3076171875.341796875,1.72705078125,1.0205078125.4169921875.6826171875.7578125,1.4677734375,1.0205078125,2.35546875.259765625.890625.4169921875,1.8056640625.47119140625,2.7470703125.05126953125.9423828125.078125,1.6240234375.078125,2.041015625,0,1.884765625-.0537109375,3.8466796875-.15673828125,5.8876953125-.10546875,2.041015625-.31396484375,3.9248046875-.6279296875,5.65234375-.31396484375,1.7265625-.78515625,3.1943359375-1.4130859375,4.3955078125-.6279296875,1.2021484375-1.5185546875,1.9091796875-2.6689453125,2.1201171875-.52490234375.2080078125-1.6484375.259765625-3.37548828125.1572265625-1.72705078125-.10546875-3.794921875-.2626953125-6.20166015625-.4716796875-2.51220703125-.2109375-5.2080078125-.392578125-8.08544921875-.548828125-2.8798828125-.1572265625-5.8359375-.2900390625-8.87060546875-.392578125-3.037109375-.10546875-5.9658203125-.1572265625-8.7919921875-.1572265625s-5.337890625.0517578125-7.5361328125.1572265625c-1.8837890625.2080078125-4.21435546875.3134765625-6.986328125.3134765625-2.7744140625,0-5.15625-.1572265625-7.1435546875-.470703125-1.56982421875-.314453125-2.7744140625-1.54296875-3.61083984375-3.689453125-.8388671875-2.14453125-1.33447265625-4.68359375-1.49169921875-7.6142578125-.15673828125-2.9296875.07861328125-5.9912109375.70654296875-9.1845703125.6279296875-3.19140625,1.56982421875-5.9912109375,2.826171875-8.3994140625,1.98681640625-3.4541015625,4.23876953125-6.5673828125,6.7509765625-9.341796875,2.51171875-2.7724609375,5.126953125-5.44140625,7.85009765625-8.0068359375,2.72021484375-2.5634765625,5.49462890625-5.154296875,8.32080078125-7.771484375,2.826171875-2.615234375,5.59814453125-5.44140625,8.32080078125-8.478515625,1.15087890625-1.255859375,2.4580078125-3.0859375,3.92529296875-5.4951171875,1.46435546875-2.40625,2.5634765625-4.8125,3.296875-7.2216796875.94189453125-3.1396484375.88818359375-5.546875-.15673828125-7.2216796875-1.0478515625-1.673828125-2.5390625-2.6943359375-4.474609375-3.0615234375-1.93798828125-.3662109375-4.0576171875-.103515625-6.3583984375.78515625-2.3037109375.8896484375-4.29296875,2.330078125-5.96630859375,4.3173828125-1.466796875,1.8837890625-2.5390625,4.08203125-3.21826171875,6.59375-.68212890625,2.51171875-.5498046875,5.078125.392578125,7.693359375.20849609375.5244140625.44384765625,1.1259765625.7060546875,1.8046875.26025390625.6826171875.4443359375,1.3349609375.5498046875,1.962890625.10302734375,1.466796875-.86376953125,2.9580078125-2.90478515625,4.474609375-2.041015625,1.5185546875-4.4228515625,2.6171875-7.14306640625,3.296875-2.72314453125.681640625-5.39208984375.7333984375-8.00732421875.1572265625-2.6171875-.57421875-4.44970703125-2.22265625-5.4951171875-4.9453125-1.15283203125-3.7685546875-1.6484375-7.509765625-1.4912109375-11.2255859375.15673828125-3.71484375.78515625-7.3251953125,1.8837890625-10.8330078125,1.09912109375-3.505859375,2.6689453125-6.830078125,4.7099609375-9.9697265625s4.4208984375-5.912109375,7.1435546875-8.3212890625c2.92919921875-2.615234375,6.3046875-4.7099609375,10.12646484375-6.2802734375,3.81982421875-1.5693359375,7.771484375-2.51171875,11.853515625-2.8251953125,4.08203125-.314453125,8.08544921875.0537109375,12.0107421875,1.0986328125,3.9248046875,1.0478515625,7.45751953125,2.931640625,10.59716796875,5.65234375,2.51220703125,2.0947265625,4.49951171875,4.474609375,5.96630859375,7.1435546875,1.46435546875,2.6689453125,2.51171875,5.494140625,3.14013671875,8.4775390625.6279296875,2.9833984375.86328125,6.044921875.7060546875,9.1845703125-.15673828125,3.1396484375-.60302734375,6.2802734375-1.33447265625,9.419921875-1.15283203125,4.607421875-2.904296875,8.7919921875-5.25927734375,12.560546875-2.35498046875,3.767578125-4.99951171875,7.353515625-7.9287109375,10.75390625-2.93115234375,3.40234375-6.04443359375,6.69921875-9.34130859375,9.890625-3.296875,3.1943359375-6.515625,6.46484375-9.6552734375,9.8125,10.15087890625-.4169921875,20.35595703125-.4169921875,30.61474609375,0Z" fill="none" stroke="#181818" stroke-linecap="round" stroke-linejoin="round" stroke-width="33"/>
          </g>
          <g>
            <path d="M118.09912109375,57.7861328125c3.9765625,2.302734375,7.37890625,5.12890625,10.205078125,8.4775390625,2.82568359375,3.3515625,5.20556640625,7.013671875,7.1435546875,10.990234375,1.935546875,3.978515625,3.478515625,8.1904296875,4.63134765625,12.638671875,1.150390625,4.44921875,2.041015625,8.923828125,2.6689453125,13.4228515625,1.46435546875,8.8974609375,2.30126953125,17.8984375,2.51220703125,27.00390625.20849609375,9.1064453125.05126953125,18.2666015625-.47119140625,27.4755859375-.2109375,2.6171875-.41943359375,4.763671875-.6279296875,6.4365234375-.2109375,1.67578125-.603515625,3.037109375-1.177734375,4.08203125-.576171875,1.0478515625-1.38818359375,1.884765625-2.43310546875,2.5126953125-1.0478515625.6279296875-2.51220703125,1.2021484375-4.39599609375,1.7265625-1.78125.208984375-3.63818359375.365234375-5.57373046875.470703125-1.93798828125.103515625-3.74365234375-.4189453125-5.41650390625-1.5693359375-1.56982421875-1.044921875-2.8798828125-2.826171875-3.9248046875-5.337890625-1.0478515625-2.5126953125-1.6240234375-6.123046875-1.72705078125-10.8330078125v-1.5703125c-2.61767578125-.314453125-5.73046875-.57421875-9.341796875-.78515625-3.61083984375-.2080078125-7.30029296875-.3388671875-11.068359375-.392578125-3.76806640625-.0517578125-7.40576171875-.078125-10.91162109375-.078125h-8.8701171875c-.10546875.94140625-.23583984375,2.51171875-.392578125,4.7099609375-.1572265625,2.1982421875-.498046875,4.3955078125-1.0205078125,6.59375-.52490234375,2.1982421875-1.2314453125,4.1875-2.11962890625,5.9658203125-.890625,1.78125-2.11962890625,2.720703125-3.689453125,2.826171875-1.466796875.103515625-3.14013671875.208984375-5.02392578125.314453125-1.88427734375.1025390625-3.716796875-.10546875-5.4951171875-.6279296875-1.78076171875-.41796875-3.2724609375-1.2568359375-4.474609375-2.5126953125-1.20458984375-1.255859375-1.859375-3.2431640625-1.96240234375-5.9658203125,0-3.2431640625.0517578125-6.958984375.1572265625-11.146484375.10302734375-4.185546875.31396484375-8.73828125.6279296875-13.6591796875.20849609375-4.08203125.54931640625-8.556640625,1.0205078125-13.423828125.470703125-4.8671875,1.150390625-9.8642578125,2.041015625-14.9931640625.8876953125-5.126953125,2.041015625-10.2568359375,3.45361328125-15.38671875,1.4130859375-5.126953125,3.19189453125-9.9931640625,5.33837890625-14.6005859375,2.14404296875-4.6044921875,4.68310546875-8.84375,7.6142578125-12.716796875,2.92919921875-3.87109375,6.43701171875-7.1162109375,10.51904296875-9.734375,4.81298828125-3.0341796875,10.099609375-4.552734375,15.85693359375-4.552734375,5.75537109375,0,11.19873046875,1.4130859375,16.328125,4.2392578125ZM79.9482421875,129.220703125c6.59375-.5224609375,13.16064453125-.9150390625,19.703125-1.177734375,6.5400390625-.259765625,13.10986328125-.287109375,19.70361328125-.078125.31396484375-7.4306640625,0-14.076171875-.94189453125-19.939453125-.94189453125-5.8603515625-2.251953125-10.8056640625-3.9248046875-14.8359375-1.67578125-4.0283203125-3.6650390625-7.1162109375-5.96630859375-9.2626953125-2.30322265625-2.14453125-4.658203125-3.21875-7.06494140625-3.21875-2.0947265625,0-4.26611328125,1.07421875-6.515625,3.21875-2.251953125,2.146484375-4.34423828125,5.2861328125-6.27978515625,9.419921875-1.93798828125,4.1357421875-3.689453125,9.23828125-5.25927734375,15.306640625-1.5703125,6.072265625-2.72314453125,12.9287109375-3.4541015625,20.5673828125Z" fill="#fff" stroke-width="0"/>
            <path d="M218.73486328125,147.9033203125c.73095703125,0,1.3076171875.341796875,1.72705078125,1.0205078125.4169921875.6826171875.7578125,1.4677734375,1.0205078125,2.35546875.259765625.890625.4169921875,1.8056640625.47119140625,2.7470703125.05126953125.9423828125.078125,1.6240234375.078125,2.041015625,0,1.884765625-.0537109375,3.8466796875-.15673828125,5.8876953125-.10546875,2.041015625-.31396484375,3.9248046875-.6279296875,5.65234375-.31396484375,1.7265625-.78515625,3.1943359375-1.4130859375,4.3955078125-.6279296875,1.2021484375-1.5185546875,1.9091796875-2.6689453125,2.1201171875-.52490234375.2080078125-1.6484375.259765625-3.37548828125.1572265625-1.72705078125-.10546875-3.794921875-.2626953125-6.20166015625-.4716796875-2.51220703125-.2109375-5.2080078125-.392578125-8.08544921875-.548828125-2.8798828125-.1572265625-5.8359375-.2900390625-8.87060546875-.392578125-3.037109375-.10546875-5.9658203125-.1572265625-8.7919921875-.1572265625s-5.337890625.0517578125-7.5361328125.1572265625c-1.8837890625.2080078125-4.21435546875.3134765625-6.986328125.3134765625-2.7744140625,0-5.15625-.1572265625-7.1435546875-.470703125-1.56982421875-.314453125-2.7744140625-1.54296875-3.61083984375-3.689453125-.8388671875-2.14453125-1.33447265625-4.68359375-1.49169921875-7.6142578125-.15673828125-2.9296875.07861328125-5.9912109375.70654296875-9.1845703125.6279296875-3.19140625,1.56982421875-5.9912109375,2.826171875-8.3994140625,1.98681640625-3.4541015625,4.23876953125-6.5673828125,6.7509765625-9.341796875,2.51171875-2.7724609375,5.126953125-5.44140625,7.85009765625-8.0068359375,2.72021484375-2.5634765625,5.49462890625-5.154296875,8.32080078125-7.771484375,2.826171875-2.615234375,5.59814453125-5.44140625,8.32080078125-8.478515625,1.15087890625-1.255859375,2.4580078125-3.0859375,3.92529296875-5.4951171875,1.46435546875-2.40625,2.5634765625-4.8125,3.296875-7.2216796875.94189453125-3.1396484375.88818359375-5.546875-.15673828125-7.2216796875-1.0478515625-1.673828125-2.5390625-2.6943359375-4.474609375-3.0615234375-1.93798828125-.3662109375-4.0576171875-.103515625-6.3583984375.78515625-2.3037109375.8896484375-4.29296875,2.330078125-5.96630859375,4.3173828125-1.466796875,1.8837890625-2.5390625,4.08203125-3.21826171875,6.59375-.68212890625,2.51171875-.5498046875,5.078125.392578125,7.693359375.20849609375.5244140625.44384765625,1.1259765625.7060546875,1.8046875.26025390625.6826171875.4443359375,1.3349609375.5498046875,1.962890625.10302734375,1.466796875-.86376953125,2.9580078125-2.90478515625,4.474609375-2.041015625,1.5185546875-4.4228515625,2.6171875-7.14306640625,3.296875-2.72314453125.681640625-5.39208984375.7333984375-8.00732421875.1572265625-2.6171875-.57421875-4.44970703125-2.22265625-5.4951171875-4.9453125-1.15283203125-3.7685546875-1.6484375-7.509765625-1.4912109375-11.2255859375.15673828125-3.71484375.78515625-7.3251953125,1.8837890625-10.8330078125,1.09912109375-3.505859375,2.6689453125-6.830078125,4.7099609375-9.9697265625s4.4208984375-5.912109375,7.1435546875-8.3212890625c2.92919921875-2.615234375,6.3046875-4.7099609375,10.12646484375-6.2802734375,3.81982421875-1.5693359375,7.771484375-2.51171875,11.853515625-2.8251953125,4.08203125-.314453125,8.08544921875.0537109375,12.0107421875,1.0986328125,3.9248046875,1.0478515625,7.45751953125,2.931640625,10.59716796875,5.65234375,2.51220703125,2.0947265625,4.49951171875,4.474609375,5.96630859375,7.1435546875,1.46435546875,2.6689453125,2.51171875,5.494140625,3.14013671875,8.4775390625.6279296875,2.9833984375.86328125,6.044921875.7060546875,9.1845703125-.15673828125,3.1396484375-.60302734375,6.2802734375-1.33447265625,9.419921875-1.15283203125,4.607421875-2.904296875,8.7919921875-5.25927734375,12.560546875-2.35498046875,3.767578125-4.99951171875,7.353515625-7.9287109375,10.75390625-2.93115234375,3.40234375-6.04443359375,6.69921875-9.34130859375,9.890625-3.296875,3.1943359375-6.515625,6.46484375-9.6552734375,9.8125,10.15087890625-.4169921875,20.35595703125-.4169921875,30.61474609375,0Z" fill="#fff" stroke-width="0"/>
          </g>
        </g>
      </a>
    </g>
  </a>
</svg>