<?xml version="1.0" encoding="UTF-8"?>
<svg id="General" xmlns="http://www.w3.org/2000/svg" width="280" height="280" xmlns:xlink="http://www.w3.org/1999/xlink" viewBox="0 0 280 280">
  <a xlink:href="https://www.notion.so/dmmnotes/strategy-classes-8a7c14fe23ed4c538323c8563b9ca532?pvs=4">
    <g>
      <g>
        <path d="M216.246906691880213,144.190118476071802c-2.416109972289632,8.468104623854742-9.506660889330306,10.746037620503557-16.833533424050984,12.711009607442975-14.890500432058616-15.042849496949202-29.262833261338528-30.586366603369243-44.104589588549061-45.675446091640879-10.298261363090205-10.469859940561037-20.032916551659582-21.496010764421044-30.931033670100078-31.374259120127135,1.948910842260375-5.915331612788577,4.001336697869192-11.789557699387842,6.88303797728986-17.334525503712939,1.640323546640502-.688965546332838,2.87302526062922.135528481420806,3.913745230600398,1.208609467377755,9.164472649879826,9.449388601383362,18.45277673766941,18.779684529795304,27.410025935228987,28.428826373573429,1.232576144620907,4.376571925552525,2.501963779621292,8.743193326754408,3.688439237621424,13.132227534772028,1.490035166019879,5.511877233045197,4.952385157090248,9.24964817568889,10.16755731548983,11.389577135974832,9.522999204809821,3.907546807661674,18.72683701880851,8.483974422714709,27.970514737889971,12.996272170035809,4.848887823209225,2.366980406636685,9.115286494479733,5.085338097882413,11.51147111436876,10.100556550857618.108121546430993,1.472381711802882.216243587790814,2.944770163645444.324365134210893,4.417151875446507Z" fill="none" stroke="#181818" stroke-linecap="round" stroke-linejoin="round" stroke-width="37"/>
        <path d="M124.37775000918009,79.851422871746763c5.64272215731944,1.589410804052932,8.379233956360622,6.681700486336922,12.150000610539792,10.408417831799852,9.057649678879898,8.951841754383167,17.732631319600841,18.291149202959787,26.550780009160007,27.484907060066689,10.237160388480333,10.673203150605332,20.491828105719833,21.329934807349673,30.668199565840041,32.060864255277011,2.077472487229898,2.19069124302041,5.105303214639207,3.677067694922698,5.666648022530353,7.095583465011259-5.638311695829543,2.177626494688411-11.175138600599894,4.651463966381016-17.141114088281029,5.872819132142467-5.148492952419474-2.060412005412218-8.736598060870165-6.21043944468056-12.410270459438834-9.983488103240234-15.22060753022015-15.632257715900778-30.423473749160621-31.284629473156201-45.482440107991351-47.074601724993954-2.027767732019129-2.126204676029374-4.056044140099402-4.310276199596046-7.156548776938507-4.895359431284305,2.146663464918674-7.070997957848704,4.325056478768602-14.131176341555147,7.154745224579528-20.969142484778786Z" fill="none" stroke="#181818" stroke-linecap="round" stroke-linejoin="round" stroke-width="37"/>
        <path d="M117.223004784600562,100.820565356525549c1.828869009619666-1.367133827658108,3.168923032988459-.57635119983388,4.555718034738675.849927398662658,7.750951525291384,7.971625550188946,15.583851577461246,15.863604566165122,23.327776555241144,23.841976982565939,11.103999400180328,11.440170522802873,21.551945139310192,23.529446828731125,33.689689910290326,33.945195433169829,1.21349510077016,1.041332452211464,2.319672322659244,2.207743149539056,3.475876219048587,3.316228503093043-4.659770087999277,2.754275879798115-10.518871702559409,2.756314589420981-14.774888185329473,6.437550167291192-22.158986255159107-15.043860428027074-43.926865779540094-30.647452036017057-65.843001027469654-46.038674542191075-2.51257503125089-1.764524177905514-5.367429984489718-3.10310412151739-7.33973448397046-5.585374124324517,2.139580354250938-1.380714112033274,4.614531933460967-1.823856479361893,7.00834244554062-2.4780269987059,7.69817204148967-2.103702399208487,13.604182421329824-6.182842881746183,15.900220531910236-14.28880281956117Z" fill="none" stroke="#181818" stroke-linecap="round" stroke-linejoin="round" stroke-width="37"/>
        <path d="M94.314441807149706,117.587395174792618c4.691554160770465,1.524323267909494,8.206489489080923,4.972316736816538,12.146344238070014,7.661770658341993,13.420633323070433,9.161303213374595,26.642088506450818,18.614108967464745,39.953801536610626,27.935330287737997,6.597183702069742,4.619527578247471,13.223393452050004,9.197647762352062,19.842258077269435,13.786112749336098.795215426780487.551276137374771,1.102160600510615,1.34149569888541,1.24025435843032,2.240705119873383-2.872553623150452,3.134177687297779-4.474733587730952,6.921310415213156-5.624537019839408,10.940993514215734-2.370436277280533,1.415339386448977-3.913355103361027-.53609640450486-5.484740924970538-1.56847504720281-22.870936397999685-15.026010532451437-45.978515159580638-29.69910425407943-68.29837429266081-45.55085657800737-2.521633328038661-1.790889994868849-5.29137505620929-3.222681401776754-7.699779049269637-5.155136991946165-1.373360840460009-1.101958020754864-3.466638987199985-2.025097636205828-2.454200887739717-4.512216277246807,5.327938803440702-2.299429334092565,10.670776002370985-4.556638057024429,16.378973964099714-5.778227435102053Z" fill="none" stroke="#181818" stroke-linecap="round" stroke-linejoin="round" stroke-width="37"/>
        <path d="M77.935467843049992,123.365622609894672c.980975978209244,3.366362121225393,4.166542480939825,4.346445633784242,6.64946302170938,6.026897617301074,17.44010207024985,11.80354778471883,34.792967514371412,23.743371024070257,52.440356359100406,35.229998931374212,8.177421138019781,5.32266258348227,15.872759301659244,11.468141831475805,24.847478970379598,15.529786977143885-1.330204556808894,3.693067749367401-2.660218407629145,7.386148600137858-3.990219767900271,11.079214980924917-1.772956992528634,1.219185732240476-3.058399240118888-.008099750852125-4.373467123028604-.909054627333717-28.342289471731419-19.417249853530848-56.790699127601329-38.681299325835425-84.753242113991291-58.647335776433465-.843324290110104-.602150941682339-1.712954060358243-1.175217219893966-1.966354810620032-2.282573182137639,2.740545966200443-3.811622845737475,7.215778554760618-4.415326781754629,11.145985464350815-6.026934920839267Z" fill="none" stroke="#181818" stroke-linecap="round" stroke-linejoin="round" stroke-width="37"/>
        <path d="M66.789482378699176,129.392557530733939c10.476406275291083,7.242600366267652,20.94655311472161,14.494273166335915,31.430884381001306,21.725381597761952,11.573604187318779,7.982385549664286,23.153860579270258,15.955141265352722,34.743482687219512,23.914246004950655,7.120415882449379,4.889911614508492,14.279866081880755,9.723179434960912,21.380162100309462,14.641972210211861,1.107493916830208.767225649678039,2.099874691561126,1.616495943797418,3.537604350531183,1.557242365822276-.864193893230549,2.391514257495146-1.729332785360384,4.782894617665988-2.594457207171217,7.174287468003968-1.513434471378787,1.362503903390461-3.091690884439231.781950515944118-4.472868976839891-.080403290964568-12.448050070359386-7.772317392898003-25.203610739308715-15.057247600138908-37.260012170600021-23.451312774972394-1.986777166928732-6.538506156176481-6.505872435169294-10.445344175866012-12.677206763259164-13.113061522803036-9.996995941150089-4.321471907966952-19.907800679649881-8.869403936614617-29.675547837690829-13.685635102293418-8.005061918200227-3.947095877664651-9.689715733609773-11.882567117659164-4.412040563500341-18.682716955717297Z" fill="none" stroke="#181818" stroke-linecap="round" stroke-linejoin="round" stroke-width="37"/>
        <path d="M113.55427754314951,174.873971111547689c7.241435872039801,2.589278782447764,13.078459323160132,7.59991598418037,19.602960426311256,11.423087210010635,6.062263874198834,3.552312984435048,11.935977683910096,7.425414872883266,17.921967746329756,11.109735546337106,1.2591268472097.774983332821648,2.665331573209187,1.25852911523998,4.208073308909661.998870920316222-1.768213788989669,5.674011736193279-3.798317803821192,11.246472614047889-6.426764222800557,16.58714056210556-1.704455564089585.82334784289651-2.729760578709829-.588709358164124-3.946653048458757-1.250701081542502-6.466188632750345-3.517623462263145-12.596186643750116-7.587394619418774-18.755061366831796-11.602189475113846-2.128808643808952-1.387701189682957-4.333662668699617-2.461533318450165-6.822531980929853-2.9492233731944-2.194365264109365-8.042080368731149-4.660969502368971-16.019431699856796-5.78199086252971-24.316720308918775Z" fill="none" stroke="#181818" stroke-linecap="round" stroke-linejoin="round" stroke-width="37"/>
        <path d="M162.584559152299335,92.154333208985008c-5.463669408998612-2.62718573085931-8.564687545329434-7.847491359466403-12.779885550478866-11.827573409682373-5.414495292081483-5.112484741334811-10.282003229751354-10.801229747302386-15.474760323810187-16.154819196549397-.771682393600713-.795574223267067-2.033996752470557-1.115271514353481-3.069236785289831-1.655085023220636,1.104962061950573-3.720053904256019,2.685030795149942-7.153828372192038,5.898828528159356-9.566499646732154,6.262922318379424-4.701718962524865,13.696617610010435-1.959232628567406,16.472207930701188,6.544426964571358,2.866895761169872,8.783431467471928,5.167466678269193,17.752808076308611,7.660175331699065,26.656410570831213.550814430089304,1.967475884151099.867938210409193,4.000370414614736,1.292670869019275,6.00313974078199Z" fill="none" stroke="#181818" stroke-linecap="round" stroke-linejoin="round" stroke-width="37"/>
        <path d="M119.33626840567922,199.190691420466464c2.376363321760437-2.14163377506884,4.172634958660637.047114452549067,5.839324320801097,1.052517881281346,7.962870719049533,4.803517038245445,15.801529833450331,9.812955062897345,23.684635638510372,14.749386685464742-.748631538090194,3.173073212612508-2.225639309990584,6.039536301356748-3.852270982801201,8.818552982431356-2.1663823817089,3.701140733195643-5.323575308198997,5.787042499721792-9.766016048630263,5.494594368101389-4.376280610838876-.288104145262878-6.849142725519414-3.097786305026602-8.408499790259157-6.768877699318182-3.205525227189355-7.546539970279809-5.24614865914009-15.483762856034446-7.497173137620848-23.346174217960652Z" fill="none" stroke="#181818" stroke-linecap="round" stroke-linejoin="round" stroke-width="37"/>
      </g>
      <g>
        <path d="M216.246906691880213,144.190118476071802c-2.416109972289632,8.468104623854742-9.506660889330306,10.746037620503557-16.833533424050984,12.711009607442975-14.890500432058616-15.042849496949202-29.262833261338528-30.586366603369243-44.104589588549061-45.675446091640879-10.298261363090205-10.469859940561037-20.032916551659582-21.496010764421044-30.931033670100078-31.374259120127135,1.948910842260375-5.915331612788577,4.001336697869192-11.789557699387842,6.88303797728986-17.334525503712939,1.640323546640502-.688965546332838,2.87302526062922.135528481420806,3.913745230600398,1.208609467377755,9.164472649879826,9.449388601383362,18.45277673766941,18.779684529795304,27.410025935228987,28.428826373573429,1.232576144620907,4.376571925552525,2.501963779621292,8.743193326754408,3.688439237621424,13.132227534772028,1.490035166019879,5.511877233045197,4.952385157090248,9.24964817568889,10.16755731548983,11.389577135974832,9.522999204809821,3.907546807661674,18.72683701880851,8.483974422714709,27.970514737889971,12.996272170035809,4.848887823209225,2.366980406636685,9.115286494479733,5.085338097882413,11.51147111436876,10.100556550857618.108121546430993,1.472381711802882.216243587790814,2.944770163645444.324365134210893,4.417151875446507Z" fill="#ffc95c" stroke-width="0"/>
        <path d="M124.37775000918009,79.851422871746763c5.64272215731944,1.589410804052932,8.379233956360622,6.681700486336922,12.150000610539792,10.408417831799852,9.057649678879898,8.951841754383167,17.732631319600841,18.291149202959787,26.550780009160007,27.484907060066689,10.237160388480333,10.673203150605332,20.491828105719833,21.329934807349673,30.668199565840041,32.060864255277011,2.077472487229898,2.19069124302041,5.105303214639207,3.677067694922698,5.666648022530353,7.095583465011259-5.638311695829543,2.177626494688411-11.175138600599894,4.651463966381016-17.141114088281029,5.872819132142467-5.148492952419474-2.060412005412218-8.736598060870165-6.21043944468056-12.410270459438834-9.983488103240234-15.22060753022015-15.632257715900778-30.423473749160621-31.284629473156201-45.482440107991351-47.074601724993954-2.027767732019129-2.126204676029374-4.056044140099402-4.310276199596046-7.156548776938507-4.895359431284305,2.146663464918674-7.070997957848704,4.325056478768602-14.131176341555147,7.154745224579528-20.969142484778786Z" fill="#fec25b" stroke-width="0"/>
        <path d="M117.223004784600562,100.820565356525549c1.828869009619666-1.367133827658108,3.168923032988459-.57635119983388,4.555718034738675.849927398662658,7.750951525291384,7.971625550188946,15.583851577461246,15.863604566165122,23.327776555241144,23.841976982565939,11.103999400180328,11.440170522802873,21.551945139310192,23.529446828731125,33.689689910290326,33.945195433169829,1.21349510077016,1.041332452211464,2.319672322659244,2.207743149539056,3.475876219048587,3.316228503093043-4.659770087999277,2.754275879798115-10.518871702559409,2.756314589420981-14.774888185329473,6.437550167291192-22.158986255159107-15.043860428027074-43.926865779540094-30.647452036017057-65.843001027469654-46.038674542191075-2.51257503125089-1.764524177905514-5.367429984489718-3.10310412151739-7.33973448397046-5.585374124324517,2.139580354250938-1.380714112033274,4.614531933460967-1.823856479361893,7.00834244554062-2.4780269987059,7.69817204148967-2.103702399208487,13.604182421329824-6.182842881746183,15.900220531910236-14.28880281956117Z" fill="#fdba5b" stroke-width="0"/>
        <path d="M94.314441807149706,117.587395174792618c4.691554160770465,1.524323267909494,8.206489489080923,4.972316736816538,12.146344238070014,7.661770658341993,13.420633323070433,9.161303213374595,26.642088506450818,18.614108967464745,39.953801536610626,27.935330287737997,6.597183702069742,4.619527578247471,13.223393452050004,9.197647762352062,19.842258077269435,13.786112749336098.795215426780487.551276137374771,1.102160600510615,1.34149569888541,1.24025435843032,2.240705119873383-2.872553623150452,3.134177687297779-4.474733587730952,6.921310415213156-5.624537019839408,10.940993514215734-2.370436277280533,1.415339386448977-3.913355103361027-.53609640450486-5.484740924970538-1.56847504720281-22.870936397999685-15.026010532451437-45.978515159580638-29.69910425407943-68.29837429266081-45.55085657800737-2.521633328038661-1.790889994868849-5.29137505620929-3.222681401776754-7.699779049269637-5.155136991946165-1.373360840460009-1.101958020754864-3.466638987199985-2.025097636205828-2.454200887739717-4.512216277246807,5.327938803440702-2.299429334092565,10.670776002370985-4.556638057024429,16.378973964099714-5.778227435102053Z" fill="#faaa5f" stroke-width="0"/>
        <path d="M77.935467843049992,123.365622609894672c.980975978209244,3.366362121225393,4.166542480939825,4.346445633784242,6.64946302170938,6.026897617301074,17.44010207024985,11.80354778471883,34.792967514371412,23.743371024070257,52.440356359100406,35.229998931374212,8.177421138019781,5.32266258348227,15.872759301659244,11.468141831475805,24.847478970379598,15.529786977143885-1.330204556808894,3.693067749367401-2.660218407629145,7.386148600137858-3.990219767900271,11.079214980924917-1.772956992528634,1.219185732240476-3.058399240118888-.008099750852125-4.373467123028604-.909054627333717-28.342289471731419-19.417249853530848-56.790699127601329-38.681299325835425-84.753242113991291-58.647335776433465-.843324290110104-.602150941682339-1.712954060358243-1.175217219893966-1.966354810620032-2.282573182137639,2.740545966200443-3.811622845737475,7.215778554760618-4.415326781754629,11.145985464350815-6.026934920839267Z" fill="#f9a463" stroke-width="0"/>
        <path d="M66.789482378699176,129.392557530733939c10.476406275291083,7.242600366267652,20.94655311472161,14.494273166335915,31.430884381001306,21.725381597761952,11.573604187318779,7.982385549664286,23.153860579270258,15.955141265352722,34.743482687219512,23.914246004950655,7.120415882449379,4.889911614508492,14.279866081880755,9.723179434960912,21.380162100309462,14.641972210211861,1.107493916830208.767225649678039,2.099874691561126,1.616495943797418,3.537604350531183,1.557242365822276-.864193893230549,2.391514257495146-1.729332785360384,4.782894617665988-2.594457207171217,7.174287468003968-1.513434471378787,1.362503903390461-3.091690884439231.781950515944118-4.472868976839891-.080403290964568-12.448050070359386-7.772317392898003-25.203610739308715-15.057247600138908-37.260012170600021-23.451312774972394-1.986777166928732-6.538506156176481-6.505872435169294-10.445344175866012-12.677206763259164-13.113061522803036-9.996995941150089-4.321471907966952-19.907800679649881-8.869403936614617-29.675547837690829-13.685635102293418-8.005061918200227-3.947095877664651-9.689715733609773-11.882567117659164-4.412040563500341-18.682716955717297Z" fill="#f89c63" stroke-width="0"/>
        <path d="M113.55427754314951,174.873971111547689c7.241435872039801,2.589278782447764,13.078459323160132,7.59991598418037,19.602960426311256,11.423087210010635,6.062263874198834,3.552312984435048,11.935977683910096,7.425414872883266,17.921967746329756,11.109735546337106,1.2591268472097.774983332821648,2.665331573209187,1.25852911523998,4.208073308909661.998870920316222-1.768213788989669,5.674011736193279-3.798317803821192,11.246472614047889-6.426764222800557,16.58714056210556-1.704455564089585.82334784289651-2.729760578709829-.588709358164124-3.946653048458757-1.250701081542502-6.466188632750345-3.517623462263145-12.596186643750116-7.587394619418774-18.755061366831796-11.602189475113846-2.128808643808952-1.387701189682957-4.333662668699617-2.461533318450165-6.822531980929853-2.9492233731944-2.194365264109365-8.042080368731149-4.660969502368971-16.019431699856796-5.78199086252971-24.316720308918775Z" fill="#f79867" stroke-width="0"/>
        <path d="M162.584559152299335,92.154333208985008c-5.463669408998612-2.62718573085931-8.564687545329434-7.847491359466403-12.779885550478866-11.827573409682373-5.414495292081483-5.112484741334811-10.282003229751354-10.801229747302386-15.474760323810187-16.154819196549397-.771682393600713-.795574223267067-2.033996752470557-1.115271514353481-3.069236785289831-1.655085023220636,1.104962061950573-3.720053904256019,2.685030795149942-7.153828372192038,5.898828528159356-9.566499646732154,6.262922318379424-4.701718962524865,13.696617610010435-1.959232628567406,16.472207930701188,6.544426964571358,2.866895761169872,8.783431467471928,5.167466678269193,17.752808076308611,7.660175331699065,26.656410570831213.550814430089304,1.967475884151099.867938210409193,4.000370414614736,1.292670869019275,6.00313974078199Z" fill="#ffcf5c" stroke-width="0"/>
        <path d="M119.33626840567922,199.190691420466464c2.376363321760437-2.14163377506884,4.172634958660637.047114452549067,5.839324320801097,1.052517881281346,7.962870719049533,4.803517038245445,15.801529833450331,9.812955062897345,23.684635638510372,14.749386685464742-.748631538090194,3.173073212612508-2.225639309990584,6.039536301356748-3.852270982801201,8.818552982431356-2.1663823817089,3.701140733195643-5.323575308198997,5.787042499721792-9.766016048630263,5.494594368101389-4.376280610838876-.288104145262878-6.849142725519414-3.097786305026602-8.408499790259157-6.768877699318182-3.205525227189355-7.546539970279809-5.24614865914009-15.483762856034446-7.497173137620848-23.346174217960652Z" fill="#f6906b" stroke-width="0"/>
      </g>
    </g>
  </a>
</svg>