<?xml version="1.0" encoding="UTF-8"?>
<svg id="Pattern" xmlns="http://www.w3.org/2000/svg" xmlns:xlink="http://www.w3.org/1999/xlink" viewBox="0 0 280 280">
  <defs>
    <linearGradient id="B1-3" data-name="B1" x1="97.717068052591458" y1="266.601219584224964" x2="179.206152620150476" y2="123.481734923577704" gradientUnits="userSpaceOnUse">
      <stop offset="0" stop-color="#52789c"/>
      <stop offset=".5" stop-color="#2d7f98"/>
      <stop offset="1" stop-color="#008693"/>
    </linearGradient>
  </defs>
  <a xlink:href="https://www.notion.so/dmmnotes/B1-2eabab7e9c77429f8e577f4e3e203653?pvs=4#2ad70543dd8a4e99a4d56f18bb81192e">
    <g id="B1">
      <a xlink:href="https://www.notion.so/dmmnotes/B1-2eabab7e9c77429f8e577f4e3e203653?pvs=4#2ad70543dd8a4e99a4d56f18bb81192e">
        <g id="B1-2" data-name="B1">
          <path d="M140,259.38818359375c-17.90966796875,0-34.7470703125-6.97412109375-47.41064453125-19.63818359375-26.14208984375-26.14208984375-26.14208984375-68.6787109375,0-94.82080078125,12.66357421875-12.6640625,29.5009765625-19.63818359375,47.41064453125-19.63818359375s34.7470703125,6.97412109375,47.41064453125,19.63818359375c26.14208984375,26.14208984375,26.14208984375,68.6787109375,0,94.82080078125-12.66357421875,12.6640625-29.5009765625,19.63818359375-47.41064453125,19.63818359375Z" fill="url(#B1-3)" stroke-width="0"/>
          <path d="M140,133.790992736816406c14.983917236328125,0,29.967864990234375,5.716176629066467,41.400238037109375,17.148530006408691,22.864654541015625,22.864706993103027,22.864654541015625,59.93564510345459,0,82.800353050231934-11.432373046875,11.432350158691406-26.41632080078125,17.148529052734375-41.400238037109375,17.148529052734375s-29.967864990234375-5.716178894042969-41.400238037109375-17.148529052734375c-22.864639282226562-22.864707946777344-22.864639282226562-59.935646057128906,0-82.800353050231934,11.432373046875-11.432353377342224,26.41632080078125-17.148530006408691,41.400238037109375-17.148530006408691M140,116.790992736816406c-20.179779052734375,0-39.151702880859375,7.85841178894043-53.421005249023438,22.127706050872803-29.456405639648438,29.456470966339111-29.456405639648438,77.385530948638916-.00006103515625,106.841997623443604,14.269363403320312,14.269294738769531,33.241287231445312,22.127708435058594,53.421066284179688,22.127708435058594,20.1798095703125,0,39.151763916015625-7.858413696289062,53.421051025390625-22.127708435058594,29.45635986328125-29.456466674804688,29.45635986328125-77.385526657104492,0-106.841997623443604-14.269287109375-14.269294261932373-33.241241455078125-22.127706050872803-53.421051025390625-22.127706050872803h0Z" fill="#181818" stroke-width="0"/>
        </g>
      </a>
      <a xlink:href="https://www.notion.so/dmmnotes/B1-2eabab7e9c77429f8e577f4e3e203653?pvs=4#2ad70543dd8a4e99a4d56f18bb81192e">
        <g>
          <g>
            <path d="M139.451171875,111.47900390625c4.6044921875,3.5595703125,8.0322265625,7.982421875,10.2841796875,13.2666015625,2.2490234375,5.287109375,2.9560546875,10.7548828125,2.119140625,16.40625-.9423828125,6.3857421875-3.4541015625,11.7509765625-7.5361328125,16.0927734375-4.08203125,4.3447265625-8.8974609375,7.771484375-14.4443359375,10.283203125-5.548828125,2.5126953125-11.5390625,4.1875-17.9765625,5.0244140625-6.4365234375.8369140625-12.4814453125.9423828125-18.1328125.314453125-.525390625.2080078125-.99609375.337890625-1.4130859375.392578125-.419921875.05078125-.890625.1298828125-1.4130859375.2353515625-1.8837890625.1025390625-3.822265625.1025390625-5.80859375,0-1.990234375-.10546875-3.7958984375-.447265625-5.4169921875-1.0205078125-1.6240234375-.57421875-3.009765625-1.5166015625-4.16015625-2.826171875-1.1533203125-1.3076171875-1.8330078125-3.1650390625-2.041015625-5.5732421875-.2109375-1.1513671875-.2626953125-3.478515625-.1572265625-6.9873046875.1025390625-3.5048828125.2080078125-7.771484375.3134765625-12.794921875.208984375-5.126953125.392578125-10.701171875.5498046875-16.720703125.1572265625-6.017578125.287109375-12.0615234375.392578125-18.1337890625.103515625-7.953125.208984375-15.9599609375.314453125-24.0205078125.1025390625-8.05859375-.2109375-16.1708984375-.9423828125-24.3349609375-.2109375-.9423828125-.10546875-1.7783203125.314453125-2.51171875.2080078125-.62890625.6787109375-1.2294921875,1.412109375-1.8056640625.7314453125-.57421875,1.830078125-.966796875,3.2978515625-1.177734375,1.044921875-.103515625,2.197265625-.259765625,3.453125-.470703125,1.2568359375-.208984375,2.564453125-.3662109375,3.92578125-.4716796875,1.3583984375-.1025390625,2.6689453125-.1025390625,3.9248046875,0,1.255859375.10546875,2.3544921875.314453125,3.296875.6279296875,5.337890625-.73046875,10.9365234375-.7578125,16.798828125-.078125,5.8603515625.681640625,11.3828125,2.068359375,16.5634765625,4.16015625,5.181640625,2.095703125,9.6806640625,4.89453125,13.501953125,8.3994140625,3.8193359375,3.5087890625,6.3583984375,7.771484375,7.615234375,12.7958984375.5224609375,2.1982421875.8359375,4.501953125.94140625,6.908203125.103515625,2.4091796875-.1572265625,4.8935546875-.78515625,7.45703125-.6279296875,2.56640625-1.6484375,5.2353515625-3.0615234375,8.0068359375-1.4130859375,2.775390625-3.3232421875,5.6279296875-5.73046875,8.556640625ZM98.6318359375,102.21630859375c5.0234375.2109375,9.2626953125-.314453125,12.716796875-1.5703125s6.0439453125-2.904296875,7.771484375-4.9453125c1.7265625-2.041015625,2.5634765625-4.263671875,2.51171875-6.6728515625-.0537109375-2.40625-.96875-4.552734375-2.7470703125-6.4365234375-1.78125-1.8837890625-4.4501953125-3.3212890625-8.0068359375-4.3173828125-3.5595703125-.9931640625-8.0615234375-1.1240234375-13.5029296875-.392578125.314453125,4.08203125.5498046875,8.1123046875.70703125,12.0888671875.1572265625,3.9794921875.3388671875,8.0615234375.5498046875,12.24609375ZM99.1025390625,147.74658203125c5.65234375.6279296875,10.4130859375.3681640625,14.287109375-.78515625,3.87109375-1.150390625,6.775390625-2.720703125,8.712890625-4.7099609375,1.935546875-1.9873046875,2.9296875-4.1337890625,2.9833984375-6.4375.0517578125-2.30078125-.86328125-4.2900390625-2.7470703125-5.9658203125-1.884765625-1.6728515625-4.7646484375-2.798828125-8.6357421875-3.375-3.873046875-.57421875-8.740234375-.181640625-14.6005859375,1.1767578125v20.0966796875Z" fill="none" stroke="#181818" stroke-linecap="round" stroke-linejoin="round" stroke-width="33"/>
            <path d="M206.6474609375,69.56005859375c-2.51171875,31.8193359375-3.611328125,63.7958984375-3.296875,95.927734375-.10546875,1.15234375-.419921875,2.197265625-.9423828125,3.1396484375-.5244140625.8388671875-1.3095703125,1.6484375-2.3544921875,2.43359375-1.0478515625.78515625-2.4609375,1.2802734375-4.2392578125,1.4912109375-1.8837890625.208984375-3.794921875.3388671875-5.73046875.392578125-1.9384765625.0517578125-3.7431640625-.1328125-5.4169921875-.5498046875-1.6748046875-.4189453125-3.115234375-1.150390625-4.3173828125-2.197265625-1.2041015625-1.0458984375-1.9619140625-2.669921875-2.2763671875-4.8671875-.2109375-1.150390625-.3408203125-3.400390625-.392578125-6.7509765625-.0537109375-3.3486328125.0244140625-7.37890625.2353515625-12.0888671875.208984375-4.8134765625.4716796875-10.0732421875.78515625-15.779296875.314453125-5.703125.6279296875-11.43359375.9423828125-17.19140625.1025390625-.2080078125.1572265625-.5224609375.1572265625-.94140625-.6279296875-.103515625-1.388671875-.314453125-2.27734375-.6279296875-.8896484375-.314453125-2.0673828125-.9423828125-3.5322265625-1.884765625-1.5693359375-1.044921875-3.1669921875-2.119140625-4.7880859375-3.2177734375-1.6240234375-1.099609375-3.0888671875-2.22265625-4.396484375-3.3759765625-1.3095703125-1.150390625-2.330078125-2.2490234375-3.0615234375-3.296875-.7333984375-1.044921875-.94140625-2.041015625-.6279296875-2.9833984375.314453125-.94140625,1.7275390625-3.0341796875,4.2392578125-6.279296875,1.150390625-1.46484375,2.40625-3.140625,3.767578125-5.0244140625,1.359375-1.8837890625,2.7724609375-3.8193359375,4.2392578125-5.80859375,1.46484375-1.8837890625,2.798828125-3.7138671875,4.00390625-5.4951171875,1.2021484375-1.7783203125,2.328125-3.400390625,3.375-4.8671875,1.150390625-1.6728515625,2.25-3.296875,3.296875-4.8671875.4169921875-.8359375,1.8056640625-1.333984375,4.1611328125-1.4912109375,2.3544921875-.1572265625,4.8671875,0,7.5361328125.470703125,2.6689453125.4716796875,5.1025390625,1.205078125,7.2998046875,2.1982421875,2.1982421875.99609375,3.400390625,2.173828125,3.611328125,3.5322265625Z" fill="none" stroke="#181818" stroke-linecap="round" stroke-linejoin="round" stroke-width="33"/>
          </g>
          <g>
            <path d="M139.451171875,111.47900390625c4.6044921875,3.5595703125,8.0322265625,7.982421875,10.2841796875,13.2666015625,2.2490234375,5.287109375,2.9560546875,10.7548828125,2.119140625,16.40625-.9423828125,6.3857421875-3.4541015625,11.7509765625-7.5361328125,16.0927734375-4.08203125,4.3447265625-8.8974609375,7.771484375-14.4443359375,10.283203125-5.548828125,2.5126953125-11.5390625,4.1875-17.9765625,5.0244140625-6.4365234375.8369140625-12.4814453125.9423828125-18.1328125.314453125-.525390625.2080078125-.99609375.337890625-1.4130859375.392578125-.419921875.05078125-.890625.1298828125-1.4130859375.2353515625-1.8837890625.1025390625-3.822265625.1025390625-5.80859375,0-1.990234375-.10546875-3.7958984375-.447265625-5.4169921875-1.0205078125-1.6240234375-.57421875-3.009765625-1.5166015625-4.16015625-2.826171875-1.1533203125-1.3076171875-1.8330078125-3.1650390625-2.041015625-5.5732421875-.2109375-1.1513671875-.2626953125-3.478515625-.1572265625-6.9873046875.1025390625-3.5048828125.2080078125-7.771484375.3134765625-12.794921875.208984375-5.126953125.392578125-10.701171875.5498046875-16.720703125.1572265625-6.017578125.287109375-12.0615234375.392578125-18.1337890625.103515625-7.953125.208984375-15.9599609375.314453125-24.0205078125.1025390625-8.05859375-.2109375-16.1708984375-.9423828125-24.3349609375-.2109375-.9423828125-.10546875-1.7783203125.314453125-2.51171875.2080078125-.62890625.6787109375-1.2294921875,1.412109375-1.8056640625.7314453125-.57421875,1.830078125-.966796875,3.2978515625-1.177734375,1.044921875-.103515625,2.197265625-.259765625,3.453125-.470703125,1.2568359375-.208984375,2.564453125-.3662109375,3.92578125-.4716796875,1.3583984375-.1025390625,2.6689453125-.1025390625,3.9248046875,0,1.255859375.10546875,2.3544921875.314453125,3.296875.6279296875,5.337890625-.73046875,10.9365234375-.7578125,16.798828125-.078125,5.8603515625.681640625,11.3828125,2.068359375,16.5634765625,4.16015625,5.181640625,2.095703125,9.6806640625,4.89453125,13.501953125,8.3994140625,3.8193359375,3.5087890625,6.3583984375,7.771484375,7.615234375,12.7958984375.5224609375,2.1982421875.8359375,4.501953125.94140625,6.908203125.103515625,2.4091796875-.1572265625,4.8935546875-.78515625,7.45703125-.6279296875,2.56640625-1.6484375,5.2353515625-3.0615234375,8.0068359375-1.4130859375,2.775390625-3.3232421875,5.6279296875-5.73046875,8.556640625ZM98.6318359375,102.21630859375c5.0234375.2109375,9.2626953125-.314453125,12.716796875-1.5703125s6.0439453125-2.904296875,7.771484375-4.9453125c1.7265625-2.041015625,2.5634765625-4.263671875,2.51171875-6.6728515625-.0537109375-2.40625-.96875-4.552734375-2.7470703125-6.4365234375-1.78125-1.8837890625-4.4501953125-3.3212890625-8.0068359375-4.3173828125-3.5595703125-.9931640625-8.0615234375-1.1240234375-13.5029296875-.392578125.314453125,4.08203125.5498046875,8.1123046875.70703125,12.0888671875.1572265625,3.9794921875.3388671875,8.0615234375.5498046875,12.24609375ZM99.1025390625,147.74658203125c5.65234375.6279296875,10.4130859375.3681640625,14.287109375-.78515625,3.87109375-1.150390625,6.775390625-2.720703125,8.712890625-4.7099609375,1.935546875-1.9873046875,2.9296875-4.1337890625,2.9833984375-6.4375.0517578125-2.30078125-.86328125-4.2900390625-2.7470703125-5.9658203125-1.884765625-1.6728515625-4.7646484375-2.798828125-8.6357421875-3.375-3.873046875-.57421875-8.740234375-.181640625-14.6005859375,1.1767578125v20.0966796875Z" fill="#fff" stroke-width="0"/>
            <path d="M206.6474609375,69.56005859375c-2.51171875,31.8193359375-3.611328125,63.7958984375-3.296875,95.927734375-.10546875,1.15234375-.419921875,2.197265625-.9423828125,3.1396484375-.5244140625.8388671875-1.3095703125,1.6484375-2.3544921875,2.43359375-1.0478515625.78515625-2.4609375,1.2802734375-4.2392578125,1.4912109375-1.8837890625.208984375-3.794921875.3388671875-5.73046875.392578125-1.9384765625.0517578125-3.7431640625-.1328125-5.4169921875-.5498046875-1.6748046875-.4189453125-3.115234375-1.150390625-4.3173828125-2.197265625-1.2041015625-1.0458984375-1.9619140625-2.669921875-2.2763671875-4.8671875-.2109375-1.150390625-.3408203125-3.400390625-.392578125-6.7509765625-.0537109375-3.3486328125.0244140625-7.37890625.2353515625-12.0888671875.208984375-4.8134765625.4716796875-10.0732421875.78515625-15.779296875.314453125-5.703125.6279296875-11.43359375.9423828125-17.19140625.1025390625-.2080078125.1572265625-.5224609375.1572265625-.94140625-.6279296875-.103515625-1.388671875-.314453125-2.27734375-.6279296875-.8896484375-.314453125-2.0673828125-.9423828125-3.5322265625-1.884765625-1.5693359375-1.044921875-3.1669921875-2.119140625-4.7880859375-3.2177734375-1.6240234375-1.099609375-3.0888671875-2.22265625-4.396484375-3.3759765625-1.3095703125-1.150390625-2.330078125-2.2490234375-3.0615234375-3.296875-.7333984375-1.044921875-.94140625-2.041015625-.6279296875-2.9833984375.314453125-.94140625,1.7275390625-3.0341796875,4.2392578125-6.279296875,1.150390625-1.46484375,2.40625-3.140625,3.767578125-5.0244140625,1.359375-1.8837890625,2.7724609375-3.8193359375,4.2392578125-5.80859375,1.46484375-1.8837890625,2.798828125-3.7138671875,4.00390625-5.4951171875,1.2021484375-1.7783203125,2.328125-3.400390625,3.375-4.8671875,1.150390625-1.6728515625,2.25-3.296875,3.296875-4.8671875.4169921875-.8359375,1.8056640625-1.333984375,4.1611328125-1.4912109375,2.3544921875-.1572265625,4.8671875,0,7.5361328125.470703125,2.6689453125.4716796875,5.1025390625,1.205078125,7.2998046875,2.1982421875,2.1982421875.99609375,3.400390625,2.173828125,3.611328125,3.5322265625Z" fill="#fff" stroke-width="0"/>
          </g>
        </g>
      </a>
    </g>
  </a>
</svg>