<?xml version="1.0" encoding="UTF-8"?>
<svg id="General" xmlns="http://www.w3.org/2000/svg" xmlns:xlink="http://www.w3.org/1999/xlink" viewBox="0 0 280 280">
  <a xlink:href="https://www.notion.so/dmmnotes/expressive-procedures-f61e0487b91d4fd498d3237712c01298?pvs=4">
    <g>
      <g>
        <path d="M246.772088696969149,78.334405262265136c-1.036320948869616,1.475042789690633-2.292273703778847,2.36065756168864-4.217584186759268,2.680408243359125-6.824294792719229,1.133358172377484-13.604040394640833,2.532209396149483-20.41003381524024,3.779329484777918-5.063021671048773.927733758049726-6.374722276988905,2.750908261714358-5.936839321650041,7.940659993842928,1.052275204530815,12.471592084293661,2.015359983670351,24.950716647970694,3.006487435270174,37.427440329727688.032782927250082.412614186428982-.020587126060491.832070502807255-.033810749499025,1.248343541237773.45530991151827,3.768671256566449.036572062979758,4.238822233082828-3.636956665170146,4.500364951602023-4.420678793179832.314753318816656-8.828302709869604.830306276473493-13.259919372560034.965668459471999-1.297403138360096.039641398638196-2.804957573151114.156018972189486-3.132587417499963-1.715219193210942-1.219472735720046-15.161055411066627-2.440464193850858-30.321988093344771-3.657727878789956-45.483223762317721-.548580944599962-6.832756539222828-1.030338103000759-13.671522953802196-1.652354645530068-20.497542833125408-.527825071611005-5.792144895731326,1.303754159369419-8.483019603569119,6.949044799468538-9.554018128004827,13.043800570900203-2.474602612301169,26.097127673301657-4.899261319475045,39.151482597930226-7.317658940804904,3.06522670924096-.567851721410989,4.810422850199757.722000997209761,5.10431864821112,3.912077928112922.483107133870362,5.243601864473021.802514400300424,10.502114317911037,1.241425177879137,15.750118118849059.079541168841388.951073321844888-.256541362879943,1.998408201778147.485055393939547,2.844371986953774v3.518879819528593Z" fill="none" stroke="#181818" stroke-linecap="round" stroke-linejoin="round" stroke-width="28"/>
        <path d="M162.913905372650333,178.361420644972895c-6.725194320069932-15.917095429491383,1.852710949409811-36.326056841990066,21.173161146880375-41.138129904349626,3.91287324429868-.974566296628836,7.898246308059242-1.263094007485051,11.902810500509077-.463301176014284.652621100260149,1.512478905409807-.587377398989702,2.157932614982201-1.452052033850123,2.775595924545996-6.924116275000415,4.946077558135585-9.686810411289116,11.79945253380356-9.446023875869287,20.103128942480907.055318313368844,1.907535204558371.176018393689446,3.842040060351792-.549163888559633,5.683631552819861-1.174555369780137,3.144641391107143-3.27820068165056,5.191949344494788-6.53862924294117,6.320409871163065-3.937418253010037,1.362780465822652-7.52500876942031,3.484929968451979-10.79684308943979,6.106769732845351-1.286810433039136,1.03118262080352-2.669699234540531,1.765269527211785-4.293259516729449.611895056508729Z" fill="none" stroke="#181818" stroke-linecap="round" stroke-linejoin="round" stroke-width="28"/>
        <path d="M199.150844603860605,135.161401073073648c1.872646098679979,1.967227418987022,4.226220961709259.890312983427066,6.331799193008919.844059571314574,3.286239172010028-.072179868646344,6.557689976270922-.684650216348018,9.845984792760646-.832277607634751,3.705759392700202-.16637421370433,3.710867822630462-.052712014596182,3.851740831980351-3.76178310332034.40065124524881,4.233360802001698.864613272338829,8.46270223618194,1.188438640339882,12.70275175714778.611370144999455,8.005123289922267,1.285207337159591,16.010062486664538,1.641125304038724,24.028041617166309.158729503191353,3.575672566339563-.578080976938509,7.139823967674602-2.298686087298847,10.393057324823531-.742946732310884-.375458045757114-1.03087502506969-1.098545384507815-1.220163064090229-1.810218945944143-.555944447220099-2.090240017661927-1.73840024168021-2.542020028669867-3.746197294549347-1.834734021418626-4.376620502560399,1.54176506253134-8.831355495320167,1.483208089390246-13.281841133461057.257346928068728-2.264353756379933-.623692361288704-4.409986373770153-1.500973081503616-6.207892920929226-3.075215249649773-3.160399980501097-6.764235522578019-4.352673778439566-13.739771665948865-1.430958666989682-20.846474201864112,2.150020037688591-5.229650094166573,6.562967153138743-7.57511996829453,12.014751080849237-8.187774409181657.640824155449081-.072003446013696,1.341798922860107.167294679615225,2.140723615641036-.53359408954384-1.96559497852104-2.059297021898601-4.406902907050608-3.108160258772841-7.020915653090924-3.916030178626897-.878358477209986-.271453068178744-2.09020691959995-.055688187712803-2.434312601040801-1.3395156898805,1.082879762261655-.433593138686774.289002136891213-1.430350334358081.626403962831318-2.087639701456283Z" fill="none" stroke="#181818" stroke-linecap="round" stroke-linejoin="round" stroke-width="28"/>
        <path d="M216.580730846300867,184.391086016539703c-1.322500409771237,2.178742815156511-2.942164171830882,4.085411247644515-5.064509712210565,5.531831382726523-5.164407897640558,3.332761612000468-10.649066796389889,5.174644585340502-16.95581473988932,5.426069849370833-4.95066689369196.197363232762655-9.794194824380611.805116192665082-14.636572207780773-.665036621863692-1.928900190510831-.585600413605789-3.655679904630233-1.642249257993171-5.578873380609366-2.219979688043168-1.917179948850389-1.053442554790308-3.589998995390488-2.401403519421365-4.959411053041549-4.115050250033164.781712505420728-1.482947290714947,1.680052153791621-.409545966718724,2.415152153620511-.023303128687985,3.708566728069854,1.948626337005408,3.673659123500329,1.952799115808375,6.540232338820715-.984622386724368,4.9816166156088-5.104781222569727,10.962161393388669-7.142247861240321,18.013543538540034-5.68907764279902,4.505757929618994.928581353744448,9.018710614918746,1.86682759956966,12.857549976699374,4.650224472725313,1.355850940350138.983088276869239,2.477205003759082.320552254068389,3.673498046890018-.407950492472082,1.136970825200478-.692359118369495,1.992395059900446-2.176441650375637,3.695205038960921-1.50310549419919Z" fill="none" stroke="#181818" stroke-linecap="round" stroke-linejoin="round" stroke-width="28"/>
        <path d="M216.580730846300867,184.391086016539703c-1.431418885911626.352553785629425-2.407405135261797,1.410629352178148-3.54164532824143,2.239263448911515-1.520103070490222,1.110526782471425-2.782238099469396,1.22650548745878-4.661296581669376.002853444328139-6.17425091836958-4.020687152888058-19.021737441500591-7.647169437605044-26.820238970429273-1.335473310413363-1.308494414170127,1.059026714659922-2.713627129820452,2.090240017660108-3.591394992759888,3.441637388363233-1.507393358171612,2.320786046571811-3.140955731400027,1.861672990458828-5.142470796110501.955643051574953-1.111628103710245-.503188032229446-1.866970065409987-2.015436821162439-3.438065391490454-1.346027986213812-1.464102099060256-1.258675771105118-2.684433910078951-2.712030082728234-3.553112449490072-4.446417978571844.945036527429693-.626929333082444,1.567589992020658.064540001569185,2.194139690849624.578021910923781.773413224360411.633832827426886,1.468804002290199,1.359405424143915,2.289765510709913,1.941431361787181,3.072137663240937,2.178067806822582,3.896957340210065,2.115307372680036,6.50937466069081-.587472027627882,2.625633273599306-2.716463660208319,5.936325410530117-4.288604097853749,9.406207269559673-5.537430883694469,2.868345058130217-1.032317862098353,2.981804360879323-1.174269046920017,3.12040695693031-4.275165295535771.075077045379658-1.679497445253219-.632816346360414-3.530308937943119.821690188360662-4.999756061941298,1.869639335098327-.345634950184831,3.653723974239256-.137425560751581,5.324426013779885.811421384167261,6.478455620028399,3.763969209863717,13.246051442638418,4.713429798726793,20.347628130588419,1.999190597805864,1.536134029311143-.587119182362585,2.365770664231604-.131964129674088,2.806108120441422,1.370527720586324.327675866239588,1.1180899440551.704180959170117,2.221866643165413,1.058963719409803,3.33197921597457-.731379896949875,2.118743778753924-1.588077403979696,4.170554344564152-3.130485751129527,5.85577401957562Z" fill="none" stroke="#181818" stroke-linecap="round" stroke-linejoin="round" stroke-width="28"/>
        <path d="M195.49851662699075,171.833614462597325c-1.886606072381255.318327794780998-3.670445261430359-.507728997396043-5.529468880271452-.496576018756969-2.935659744518489-1.085528462392176-4.776228584938508-3.265590612025335-6.029420026368825-6.032756602922746.843351158539008-2.515403222696477.421606546429757-5.11444611465231.493462059430385-7.678580336872983.212866588008183-7.597211150197836,3.135011237109211-13.809182466306083,9.342766092358943-18.336187235530815.943893650459358-.688339750551677,1.997687577410034-1.227364588978162,2.214021147899984-2.529524703904826.902596673309745-.136259637265539,1.703147472930141.256342086113364,2.534548280360468.489051209920945,2.878147720990455.786162265414532,5.799970216849033,1.461761233626021,8.263337971950023,3.290796036933898.466861406239332.346632121592847,1.011177655580468.618269282951587,1.396595654799967,1.037694917136832.467306284519509.50855741671694,1.46575121683054.899479289804731,1.028742677430273,1.764088262623773-.336128553610251.665028951314525-1.225056725201284.348212254739337-1.857550918310153.328230473885924-8.483767490781247-.268047344301522-14.56496214489016,6.383806960895527-14.437926384200182,14.509534297021673.074325354489702,4.754682012708145.995284762439042,9.240120075426603,2.580892324920569,13.654229700465294Z" fill="none" stroke="#181818" stroke-linecap="round" stroke-linejoin="round" stroke-width="28"/>
        <path d="M183.939627720350472,165.304281840917611c1.857397512019816,2.163217623434321,3.780560306739062,4.260706310155001,6.029420026368825,6.032710579629565-.000015340629034,1.999282644394043-.076166230139279,4.002293175735758.022596748640353,5.996635986399269.088484756390244,1.786578313091013-.615956993498912,2.744921398008955-2.351994778089647,3.249321377021261-4.701044155150157,1.365802662236092-9.006767934120944,3.412351231245339-11.915136697080015,7.61576620888809-.574698367929159.830597757347277-1.355628501200044.785617656416434-2.226577453910068.532873057911274-2.047245484049199-.594099382196873-3.755417013449915-1.712879675684235-5.273717559859506-3.184121708211023-.697032225391013-.675407204478688-1.227633951109965-1.633428126329818-2.391703999990568-1.64488792694101-1.362731213099323-1.641666296245603-2.31346678474074-3.500332431389324-2.918600963470453-5.541112747347142,1.667403803990965.240502401868071,2.990993398520004-.300685531454292,4.317766173870041-1.390409784298754,3.627230705469628-2.979133949471361,7.804008815261113-5.009896528081299,12.210029636060426-6.595759578372963,2.398768360309987-.863397026032544,3.493736539359816-2.940574098285651,4.497918867460612-5.071015464678567Z" fill="none" stroke="#181818" stroke-linecap="round" stroke-linejoin="round" stroke-width="28"/>
        <path d="M174.344960805810842,192.463970938730199c1.394593702529164-.165729887567068,2.600374925579672.455446533560462,3.862747734328877.887988806996873,4.68700747829098,1.606059606527197,9.386210757780646,2.336940223338388,14.410712105789571,1.403986656510824,3.977733429810542-.738612530478349,8.157855797040611-.206736643975091,12.034985372411029-1.871475952430046,2.289236258950041-.98293486588409,4.288810733900391-2.643930946294859,6.862815115749981-2.96152236834314-3.821857283879581,4.146161997878153-8.775024700340509,6.197788470504747-14.135163701790589,7.213415217383954-8.262662984208873,1.565666494063407-16.048692580599891.291419507933824-23.03609662648887-4.672392360118465Z" fill="none" stroke="#181818" stroke-linecap="round" stroke-linejoin="round" stroke-width="28"/>
        <path d="M199.017319756500001,157.1553510932481c.013024195239268-4.418175016153327,3.14231337720048-7.250003737412044,7.637716381270366-7.498782661941732,4.021546270349063-.222553316572885,7.712747404759284,3.519033230513742,7.915964736219394,7.739100970627987.186450022391,3.871218829779536-4.280987012380137,8.486734067049838-8.240955992139789,8.298782598243633-4.3550515761508-.20672130287312-7.616500289370379-3.968212925321495-7.312725125349971-8.539100906929889Z" fill="none" stroke="#181818" stroke-linecap="round" stroke-linejoin="round" stroke-width="28"/>
      </g>
      <g>
        <path d="M246.772088696969149,78.334405262265136c-1.036320948869616,1.475042789690633-2.292273703778847,2.36065756168864-4.217584186759268,2.680408243359125-6.824294792719229,1.133358172377484-13.604040394640833,2.532209396149483-20.41003381524024,3.779329484777918-5.063021671048773.927733758049726-6.374722276988905,2.750908261714358-5.936839321650041,7.940659993842928,1.052275204530815,12.471592084293661,2.015359983670351,24.950716647970694,3.006487435270174,37.427440329727688.032782927250082.412614186428982-.020587126060491.832070502807255-.033810749499025,1.248343541237773.45530991151827,3.768671256566449.036572062979758,4.238822233082828-3.636956665170146,4.500364951602023-4.420678793179832.314753318816656-8.828302709869604.830306276473493-13.259919372560034.965668459471999-1.297403138360096.039641398638196-2.804957573151114.156018972189486-3.132587417499963-1.715219193210942-1.219472735720046-15.161055411066627-2.440464193850858-30.321988093344771-3.657727878789956-45.483223762317721-.548580944599962-6.832756539222828-1.030338103000759-13.671522953802196-1.652354645530068-20.497542833125408-.527825071611005-5.792144895731326,1.303754159369419-8.483019603569119,6.949044799468538-9.554018128004827,13.043800570900203-2.474602612301169,26.097127673301657-4.899261319475045,39.151482597930226-7.317658940804904,3.06522670924096-.567851721410989,4.810422850199757.722000997209761,5.10431864821112,3.912077928112922.483107133870362,5.243601864473021.802514400300424,10.502114317911037,1.241425177879137,15.750118118849059.079541168841388.951073321844888-.256541362879943,1.998408201778147.485055393939547,2.844371986953774v3.518879819528593Z" fill="#483c54" stroke-width="0"/>
        <path d="M162.913905372650333,178.361420644972895c-6.725194320069932-15.917095429491383,1.852710949409811-36.326056841990066,21.173161146880375-41.138129904349626,3.91287324429868-.974566296628836,7.898246308059242-1.263094007485051,11.902810500509077-.463301176014284.652621100260149,1.512478905409807-.587377398989702,2.157932614982201-1.452052033850123,2.775595924545996-6.924116275000415,4.946077558135585-9.686810411289116,11.79945253380356-9.446023875869287,20.103128942480907.055318313368844,1.907535204558371.176018393689446,3.842040060351792-.549163888559633,5.683631552819861-1.174555369780137,3.144641391107143-3.27820068165056,5.191949344494788-6.53862924294117,6.320409871163065-3.937418253010037,1.362780465822652-7.52500876942031,3.484929968451979-10.79684308943979,6.106769732845351-1.286810433039136,1.03118262080352-2.669699234540531,1.765269527211785-4.293259516729449.611895056508729Z" fill="#2e2a32" stroke-width="0"/>
        <path d="M199.150844603860605,135.161401073073648c1.872646098679979,1.967227418987022,4.226220961709259.890312983427066,6.331799193008919.844059571314574,3.286239172010028-.072179868646344,6.557689976270922-.684650216348018,9.845984792760646-.832277607634751,3.705759392700202-.16637421370433,3.710867822630462-.052712014596182,3.851740831980351-3.76178310332034.40065124524881,4.233360802001698.864613272338829,8.46270223618194,1.188438640339882,12.70275175714778.611370144999455,8.005123289922267,1.285207337159591,16.010062486664538,1.641125304038724,24.028041617166309.158729503191353,3.575672566339563-.578080976938509,7.139823967674602-2.298686087298847,10.393057324823531-.742946732310884-.375458045757114-1.03087502506969-1.098545384507815-1.220163064090229-1.810218945944143-.555944447220099-2.090240017661927-1.73840024168021-2.542020028669867-3.746197294549347-1.834734021418626-4.376620502560399,1.54176506253134-8.831355495320167,1.483208089390246-13.281841133461057.257346928068728-2.264353756379933-.623692361288704-4.409986373770153-1.500973081503616-6.207892920929226-3.075215249649773-3.160399980501097-6.764235522578019-4.352673778439566-13.739771665948865-1.430958666989682-20.846474201864112,2.150020037688591-5.229650094166573,6.562967153138743-7.57511996829453,12.014751080849237-8.187774409181657.640824155449081-.072003446013696,1.341798922860107.167294679615225,2.140723615641036-.53359408954384-1.96559497852104-2.059297021898601-4.406902907050608-3.108160258772841-7.020915653090924-3.916030178626897-.878358477209986-.271453068178744-2.09020691959995-.055688187712803-2.434312601040801-1.3395156898805,1.082879762261655-.433593138686774.289002136891213-1.430350334358081.626403962831318-2.087639701456283Z" fill="#48444d" stroke-width="0"/>
        <path d="M216.580730846300867,184.391086016539703c-1.322500409771237,2.178742815156511-2.942164171830882,4.085411247644515-5.064509712210565,5.531831382726523-5.164407897640558,3.332761612000468-10.649066796389889,5.174644585340502-16.95581473988932,5.426069849370833-4.95066689369196.197363232762655-9.794194824380611.805116192665082-14.636572207780773-.665036621863692-1.928900190510831-.585600413605789-3.655679904630233-1.642249257993171-5.578873380609366-2.219979688043168-1.917179948850389-1.053442554790308-3.589998995390488-2.401403519421365-4.959411053041549-4.115050250033164.781712505420728-1.482947290714947,1.680052153791621-.409545966718724,2.415152153620511-.023303128687985,3.708566728069854,1.948626337005408,3.673659123500329,1.952799115808375,6.540232338820715-.984622386724368,4.9816166156088-5.104781222569727,10.962161393388669-7.142247861240321,18.013543538540034-5.68907764279902,4.505757929618994.928581353744448,9.018710614918746,1.86682759956966,12.857549976699374,4.650224472725313,1.355850940350138.983088276869239,2.477205003759082.320552254068389,3.673498046890018-.407950492472082,1.136970825200478-.692359118369495,1.992395059900446-2.176441650375637,3.695205038960921-1.50310549419919Z" fill="#3f2e4f" stroke-width="0"/>
        <path d="M216.580730846300867,184.391086016539703c-1.431418885911626.352553785629425-2.407405135261797,1.410629352178148-3.54164532824143,2.239263448911515-1.520103070490222,1.110526782471425-2.782238099469396,1.22650548745878-4.661296581669376.002853444328139-6.17425091836958-4.020687152888058-19.021737441500591-7.647169437605044-26.820238970429273-1.335473310413363-1.308494414170127,1.059026714659922-2.713627129820452,2.090240017660108-3.591394992759888,3.441637388363233-1.507393358171612,2.320786046571811-3.140955731400027,1.861672990458828-5.142470796110501.955643051574953-1.111628103710245-.503188032229446-1.866970065409987-2.015436821162439-3.438065391490454-1.346027986213812-1.464102099060256-1.258675771105118-2.684433910078951-2.712030082728234-3.553112449490072-4.446417978571844.945036527429693-.626929333082444,1.567589992020658.064540001569185,2.194139690849624.578021910923781.773413224360411.633832827426886,1.468804002290199,1.359405424143915,2.289765510709913,1.941431361787181,3.072137663240937,2.178067806822582,3.896957340210065,2.115307372680036,6.50937466069081-.587472027627882,2.625633273599306-2.716463660208319,5.936325410530117-4.288604097853749,9.406207269559673-5.537430883694469,2.868345058130217-1.032317862098353,2.981804360879323-1.174269046920017,3.12040695693031-4.275165295535771.075077045379658-1.679497445253219-.632816346360414-3.530308937943119.821690188360662-4.999756061941298,1.869639335098327-.345634950184831,3.653723974239256-.137425560751581,5.324426013779885.811421384167261,6.478455620028399,3.763969209863717,13.246051442638418,4.713429798726793,20.347628130588419,1.999190597805864,1.536134029311143-.587119182362585,2.365770664231604-.131964129674088,2.806108120441422,1.370527720586324.327675866239588,1.1180899440551.704180959170117,2.221866643165413,1.058963719409803,3.33197921597457-.731379896949875,2.118743778753924-1.588077403979696,4.170554344564152-3.130485751129527,5.85577401957562Z" fill="#40354b" stroke-width="0"/>
        <path d="M195.49851662699075,171.833614462597325c-1.886606072381255.318327794780998-3.670445261430359-.507728997396043-5.529468880271452-.496576018756969-2.935659744518489-1.085528462392176-4.776228584938508-3.265590612025335-6.029420026368825-6.032756602922746.843351158539008-2.515403222696477.421606546429757-5.11444611465231.493462059430385-7.678580336872983.212866588008183-7.597211150197836,3.135011237109211-13.809182466306083,9.342766092358943-18.336187235530815.943893650459358-.688339750551677,1.997687577410034-1.227364588978162,2.214021147899984-2.529524703904826.902596673309745-.136259637265539,1.703147472930141.256342086113364,2.534548280360468.489051209920945,2.878147720990455.786162265414532,5.799970216849033,1.461761233626021,8.263337971950023,3.290796036933898.466861406239332.346632121592847,1.011177655580468.618269282951587,1.396595654799967,1.037694917136832.467306284519509.50855741671694,1.46575121683054.899479289804731,1.028742677430273,1.764088262623773-.336128553610251.665028951314525-1.225056725201284.348212254739337-1.857550918310153.328230473885924-8.483767490781247-.268047344301522-14.56496214489016,6.383806960895527-14.437926384200182,14.509534297021673.074325354489702,4.754682012708145.995284762439042,9.240120075426603,2.580892324920569,13.654229700465294Z" fill="#403d44" stroke-width="0"/>
        <path d="M183.939627720350472,165.304281840917611c1.857397512019816,2.163217623434321,3.780560306739062,4.260706310155001,6.029420026368825,6.032710579629565-.000015340629034,1.999282644394043-.076166230139279,4.002293175735758.022596748640353,5.996635986399269.088484756390244,1.786578313091013-.615956993498912,2.744921398008955-2.351994778089647,3.249321377021261-4.701044155150157,1.365802662236092-9.006767934120944,3.412351231245339-11.915136697080015,7.61576620888809-.574698367929159.830597757347277-1.355628501200044.785617656416434-2.226577453910068.532873057911274-2.047245484049199-.594099382196873-3.755417013449915-1.712879675684235-5.273717559859506-3.184121708211023-.697032225391013-.675407204478688-1.227633951109965-1.633428126329818-2.391703999990568-1.64488792694101-1.362731213099323-1.641666296245603-2.31346678474074-3.500332431389324-2.918600963470453-5.541112747347142,1.667403803990965.240502401868071,2.990993398520004-.300685531454292,4.317766173870041-1.390409784298754,3.627230705469628-2.979133949471361,7.804008815261113-5.009896528081299,12.210029636060426-6.595759578372963,2.398768360309987-.863397026032544,3.493736539359816-2.940574098285651,4.497918867460612-5.071015464678567Z" fill="#382d42" stroke-width="0"/>
        <path d="M174.344960805810842,192.463970938730199c1.394593702529164-.165729887567068,2.600374925579672.455446533560462,3.862747734328877.887988806996873,4.68700747829098,1.606059606527197,9.386210757780646,2.336940223338388,14.410712105789571,1.403986656510824,3.977733429810542-.738612530478349,8.157855797040611-.206736643975091,12.034985372411029-1.871475952430046,2.289236258950041-.98293486588409,4.288810733900391-2.643930946294859,6.862815115749981-2.96152236834314-3.821857283879581,4.146161997878153-8.775024700340509,6.197788470504747-14.135163701790589,7.213415217383954-8.262662984208873,1.565666494063407-16.048692580599891.291419507933824-23.03609662648887-4.672392360118465Z" fill="#503963" stroke-width="0"/>
        <path d="M199.017319756500001,157.1553510932481c.013024195239268-4.418175016153327,3.14231337720048-7.250003737412044,7.637716381270366-7.498782661941732,4.021546270349063-.222553316572885,7.712747404759284,3.519033230513742,7.915964736219394,7.739100970627987.186450022391,3.871218829779536-4.280987012380137,8.486734067049838-8.240955992139789,8.298782598243633-4.3550515761508-.20672130287312-7.616500289370379-3.968212925321495-7.312725125349971-8.539100906929889Z" fill="#545257" stroke-width="0"/>
      </g>
    </g>
  </a>
  <a xlink:href="https://www.notion.so/dmmnotes/expressive-procedures-f61e0487b91d4fd498d3237712c01298?pvs=4">
    <g>
      <g>
        <path d="M80.97874950438927,85.119067361154521c-.889599324158553-6.8709961449822-1.450801772458362-13.776908630246908-1.688857675659165-20.692818717670889-.121244672700414-3.522472513044704,2.429560840759223-6.086460994829395,6.199854430580672-6.80039449184369,7.547041749880009-1.42908852900473,15.125420572599978-2.696124719406725,22.660496630749549-4.183867541645668,5.859100676880189-1.156835566356676,11.823790913109406-1.794018745880749,17.57042942822045-3.511855514034323h2.010727113289249c2.077251757189515,1.05978454095748,2.784500842459238,2.839471464787493,2.935552360100701,5.080054727584866.415692733398828,6.166088487412708.944031716138852,12.324649768939707,1.438368191498739,18.485341545529081.280211955650884,3.492186308063538-.651562596758595,4.829652043654278-3.976582882529328,5.445062129365397-6.727940292910716,1.245236968783502-13.458825986859665,2.476254656852689-20.19861308164036,3.655269856135419-5.262561086368805.920588641400172-6.678075573659953,2.932976419227998-6.216629409958841,8.267302664031376,1.007304146389288,11.644538120710422,1.859522189328345,23.302488196823106,2.77509320082936,34.95496533603-1.518373414399321.523453623405658-2.800086922979972-.178639421990738-4.033358555790983-.869280337323289-4.227478893399166-2.367407645049752-8.206428068158857-5.18009067532148-12.932005726539501-6.622307349403854-1.889482440590655-.576656553153953-2.895908335889544-2.217095561516544-3.123049380530574-4.210448871324843-.832792969638831-7.30853769890382-1.885670293919247-14.588755729897457-2.523990091449377-21.925321615843131-.203240342409117-2.335916205011017-.012372218450764-4.795711780761849-.897434551170591-7.071701819586451Z" fill="none" stroke="#181818" stroke-linecap="round" stroke-linejoin="round" stroke-width="28"/>
        <path d="M80.97874950438927,85.119067361154521c.637291975290282.492656368078315.95360810468992,1.179496526247021.986440888991638,1.947023192205961.389030717698915,9.093999947073826,2.317501370549508,18.013310805032233,3.062503747329174,27.067412390069876.148294039328903,1.802241574703658,1.098450502169726,3.219229812229969,2.906953589810655,3.676939157825473,4.212671349860102,1.066206348779815,7.741802558808558,3.482229935110809,11.351257308759159,5.69443168619182,1.66377574488979,1.019715149641343,3.409021742909317,1.67791731210491,5.2026827705904,2.313238226091926.374215503848973,5.033230338962312.748427172529773,10.066453007375458,1.122642676369651,15.099668005243075-1.360794458500095.148762632576108-1.574477935089817-.96246984042773-1.956045436068962-1.833437698593116-.500361507960406-1.142106433821027-.779242663931655-2.375377345739253-1.479266312251639-3.440847321788169,1.196116625871582,3.300100413202017,2.684330360831154,6.488003702203059,3.858191567091126,9.796633766194645.366549023779953,5.728580971548581-.331737298150983,11.237308659872724-3.358094684999742,16.265353707529357-1.53584639248038-1.909468182973797-3.500839251260913-1.986135322944392-5.821945669960769-1.857561576051012-6.415961726770547.35539188886105-12.651536815339568-.627527635926526-18.458809172270776-3.598162616804984-1.75063055929968-.938368974613695-2.890128753369936-2.356177960913556-3.362670028029243-4.295538274398496.821297084699836-2.59460164392658,2.512219992739119-4.846276041560486,2.932729684100195-7.617331000938066.261576924820474-1.723741173454982.605230057670269-3.394770332311964.518448111259204-5.183918279406498-.395105607349251-8.146046621144706,6.579588726221118-14.410331083287019,14.537575284390186-13.073630484988826,1.375383398049962.231021602969122,1.869769730459666-.055887621994771,1.752613335780552-1.403833245525675,1.344518049609178-1.25336008045997,1.436527315840067.752012980057771,2.166449852900769.761677872138534-1.218253155600905-1.369776006758912-2.878178402250342-2.253569023301679-4.759499627440164-2.762763095612172-2.136945985410421-.40650842920877-3.77889968350064-1.985084457694029-5.884128915460678-2.468106615888246-1.135087762819239-.872486626920363-3.026924990170301-.155650785820399-3.794800246940213-1.798506017206819.531591196380759-.067631232926942.960933255721102-.217429389655081.905603436869569-.898635529385501-.340477622339677-4.191771083847925-.623937956488589-8.388773482301985-1.016999424819005-12.575531862201387-.61915167980078-6.595019370368391-1.200619100909535-13.191170146754303-1.411832736001088-19.8145743847017Z" fill="none" stroke="#181818" stroke-linecap="round" stroke-linejoin="round" stroke-width="28"/>
        <path d="M82.501978228339794,118.40780913744311c1.224715396170723.785533280375603,2.92523962129053.206798008370242,4.008441536790997,1.398088004121746.716913682439554,1.001497595121691.229392282159097,1.713025416120217-.582901770059834,2.318945114746384-.537677591510146.401077680324306-1.177236144951166.621628983535629-1.780353030781043.903874514542622-6.571078511480664,3.075038827015305-9.707395619760064,8.414354764121526-9.980130935649868,15.493849861768467-.124690561809985,3.23664962962539-.264949945940316,6.497967745708593.334851446130415,9.728082067353171.18148541085975.977350706016296.212358429618689,2.003654857480797-.493759284139742,2.865418056517228-2.309301803579729.616290281242982-4.44119688641149-.065521831878868-6.552798232740315-.894669855413667-1.112477591119386-1.405083545054367-.776552300860203-3.041464832853308-.561980985290575-4.574769279535758.268050670871162-1.915489564151358.413207551269807-3.824842688885838.33564915891111-5.745962436199989-.175207257860166-4.339973766329422.438987480718424-8.495325082236377,2.571315936358587-12.358136990014827.328814908050845-.595664174250487.982082232370885-1.385861148581171.190685953970387-2.010366588094257-.572757778169034-.451971774740741-1.30182507507925.010700416234613-1.874235771500025.323490074440997-1.624628373579981.887751019967254-3.081907727259022,1.990292760647208-4.232012049700643,3.47260339577042-3.280589026049711,4.228183181243367-5.555299625559201,8.916929152412195-6.601223809089788,14.186427750044459-.382348914348768,1.926328050270968-.281127599530009,3.812025201052165.199318893750387,5.709274199032734.347152714170079,1.370888236404426.971121351920374,2.682314374853377.953196784039392,4.139619019349993-.490864698938822,1.780372838727999-.775474621579633,3.672804731768338-2.536544479889926,4.780217271234505-.699601780988814-.230737792644504-1.100138930300091-.783592631409192-1.309588392889054-1.422894560466375-1.359301623400825-4.149007771658944-2.435433905249738-8.325054229499074-1.588878951910374-12.766923572353335,2.11030314548043-11.072721684149656,7.52682663412088-19.878128720696623,17.424337728160026-25.65025540046372,4.034098741209164-.958787976773237,8.058611505970475-.805284944746745,12.076610255529886.104089353619202Z" fill="none" stroke="#181818" stroke-linecap="round" stroke-linejoin="round" stroke-width="28"/>
        <path d="M78.467783608190075,155.501128011441324c4.368351902750874,2.230449987800966,8.984247888620303,3.305722925817463,13.900973637459174,3.62174188526842,2.253960479260058.144865993544954,4.442765465870252.09511481096888,6.64607885372061-.130307291032295,2.127511497679734-.217667176684699,3.387621563440916.529513357332689,3.661114322960202,2.713004242488751-.866277730739967,1.467920684690398-1.381243518890187,3.154152872208215-2.697128281779442,4.342949939446044-1.556276277071447,1.120375767737642-2.890113412729988,2.524945385992396-4.554966836911262,3.510350168740842-2.647432309458964,1.566985828534598-4.21811343851914,1.469416441797875-6.585314616539108-.469383921588815-5.308931977040629-4.348150571853694-13.693679533460454-4.652840130025652-19.420162377760789-.749128853529328-1.227070182949319.836481068636203-2.201894379530131,1.766895683655093-2.378677887169033,3.332431778380851-.133425133270066,1.181563739277408-.700667954799428,2.041209866712961-1.945126742350112,2.310998425702564-.690742566910558.104235094053365-1.296827864731313-.103422015832621-1.85056326115955-.501937732697115-3.192205901341367-2.892334013913569-5.419928149811312-6.413860172944624-6.801705714391574-10.486231486827819-.006235966278837-.390055101021062.090329467200718-.744979086375679.359686009231154-1.039298061932641.080430925409019-.018654775829418.189562252799078-.080510085155765.23942984840869-.048884410509345,3.471647949110775,2.200864679258302,6.428056855091199.766126790716953,9.710334309291284-.856248074109317,3.865148542989118-1.910450013281661,8.063434216659516-3.152150858846653,11.716028736989756-5.550056607800798Z" fill="none" stroke="#181818" stroke-linecap="round" stroke-linejoin="round" stroke-width="28"/>
        <path d="M64.906758341310706,173.593107969807534c.557190873440049-.333009226085778,1.334592661720308-.469591026419948,1.440690379429725-1.25646665291606.790801828969052-5.865070725292753,5.634745874260261-6.543154951466931,9.933460902690058-7.167330557358582,5.045393369098747-.73258347875344,9.99278503819005.054292147744491,13.797595046498827,4.155029152834686,1.234341641780702,1.330357054050182,2.720975291800642.779304794366908,4.166404008459722.171360070733499,2.08275520836105-.87599206793675,3.454533558271578-2.914379172520057,5.733886616060772-3.447137172192015-.979223122369149,1.649789407925709-2.252388064629486,3.016013950367778-3.889494123510303,4.031057735506693-8.272120482879473,6.366977775791383-17.764438546259044,6.886135891605591-27.600904477829317,5.76510812718152-1.271784285530885-.623891795570671-3.137640237649975-.309905531677941-3.581638351799484-2.25162070378974Z" fill="none" stroke="#181818" stroke-linecap="round" stroke-linejoin="round" stroke-width="28"/>
        <path d="M56.861232393110186,162.031595874412233c-.004139093849517.335686247781268-.008278187700853.671364825015189-.012416322761055,1.007051072794638-1.877362383749642.109435726461015-2.552867869468173-1.421191698525945-3.333840189479815-2.619638316751661-4.475265550248878-6.867550150716852-4.749844138759727-14.214279514446389-2.502898642169384-21.902026157700675,1.819230982260706-6.224359253183138,5.063205758620825-11.588466405533836,9.280376707150936-16.430186140829392,3.12552880992007-1.9363381170715,6.412233953569739-3.440939368379986,10.132914026959043-3.783076548101235-2.366677679010536,2.824426641212995-5.731850147369187,4.522548180098966-8.134189039419653,7.33715651824059-5.432957139000791,6.365328607698757-8.617804331679508,13.652549850176001-8.891396805300246,22.018403731253784-.116860128760891,3.573317707712704.906175834150417,7.066784997507057,2.450005107199104,10.343988821130552,1.135832742180355,1.142229162611329,1.670320441360673,2.435453087637143,1.011445157821072,4.028327019963399Z" fill="none" stroke="#181818" stroke-linecap="round" stroke-linejoin="round" stroke-width="28"/>
        <path d="M52.304270794840704,166.55504917932376c-10.534450714219929-11.762541850706839-7.959018125671719-33.551059220288153,5.005481363239596-42.34705449287685.891278164410323,1.237313291383543-.179499758010934,2.039100465664887-.7301593580396,2.862265460766139-3.096537894751236,4.628861993003738-5.20707642303023,9.660665609802891-6.241226672700577,15.123814894350289-1.370053008369723,7.237646482535638-.160019554319661,14.240305688128501,2.066122609210652,21.138246555066871.325249170258758,1.007825798267731.994731540949942,1.96257139557747.598203090128663,3.114848977735164-.19587588100876.275111920182098-.428904851369225.310756962648156-.698421031838734.107878604958387Z" fill="none" stroke="#181818" stroke-linecap="round" stroke-linejoin="round" stroke-width="28"/>
        <path d="M52.848117716770503,166.54656555182919c-1.940164048410224-5.163468595048471-3.406690925870862-10.398472732607843-3.575850619570701-15.994261155163258-.264612452068832-8.753362359741004,2.331411966599262-16.59017078699253,7.002788301249893-23.85102068107517.500742147360143-.778322964057224,1.06770500238963-1.504332782082201,1.034658408050745-2.493235335299687.774798675049169-1.015795498964508,1.895363654790344-1.545224480252728,2.982797666709303-2.121206025070933-.571118248299172,2.277232667807766-2.370313408418951,3.782739043930633-3.575597019769702,5.660144330946423-4.247973975669083,6.616807565575073-6.930013309220158,13.750165260211361-6.332396998199329,21.695090079449074.394538962809747,5.24515227424672,2.125774171279772,10.104798083188143,6.464352307319132,13.596562511043885,1.664259933540961,3.681978708695169,3.772161311570017,7.075498741478441,6.531660761560488,10.045305303034183-1.873532020081257.740668237685895-3.13518094283063-.696762013651096-4.525596241150197-1.404669335395738-2.382646316500541-1.213066685135345-4.352866495100898-3.013106812195474-6.006816566199632-5.132709692468779Z" fill="none" stroke="#181818" stroke-linecap="round" stroke-linejoin="round" stroke-width="28"/>
        <path d="M68.413189252369193,175.112758838786249c3.689277802870492.828618755635034,7.392446546611609.392862522054202,11.114528370100743.26962747745165,6.063836730769253-.200768956638058,11.317312328750631-2.678747569438201,16.561583548469571-5.302781110922297-2.984730586138539,3.58705566145909-7.05914066898913,5.403464740664276-11.353339799339665,6.706169464590857-6.101965867730542,1.851125985211183-12.243675473779149,1.997633476303236-18.313782687240746-.285528526092094-.137979382929188-1.61291707757664,1.379045973581015-.850794313580991,1.991010568010097-1.387487305028117Z" fill="none" stroke="#181818" stroke-linecap="round" stroke-linejoin="round" stroke-width="28"/>
        <path d="M68.413189252369193,175.112758838786249c-.492313429718706.708306190306757-1.668665570849043.435088895796071-1.990928112119946,1.387510316675616-5.784875036488302-1.783387364592272-10.499185960599789-5.086486962558411-14.117917956809833-9.945127929546288.181083678109644-.002861114880943.362239744810722-.005622512617265.543584693030425-.008483627492751,3.30785124392969,2.506497714990473,6.371717431000434,5.405888634231815,10.532694691441066,6.537379027864517.508564910089262.16963419714375,1.01721994638865.339352770331971,1.526005378049376.509079014069357.935262628250712,1.045764334967316,2.284010856708846,1.137097565147997,3.506561306408912,1.519643198429549Z" fill="none" stroke="#181818" stroke-linecap="round" stroke-linejoin="round" stroke-width="28"/>
        <path d="M106.034110305010472,145.440128764596011c-2.35297657844967-3.00253679530033-3.15131065696005-6.73044675303754-4.71049781865986-10.103333008277332-.178630136020729-.38641159011604-.338337604391199-.883271419195808.070981097058393-1.134689012676972.580320708981162-.356481106855426.937193630110414.155482033740554,1.13566303645166.596553957964716.544600051009184,1.210251593554858,1.056087351198585,2.437946016150818,1.518277535469679,3.681925014852823.347672378020434.935753317311537.550682610970398,1.938002626264279,1.56269249575962,2.437194302323405.569099037820706,1.467414428436314.468989918710577,2.997405197836997.422883653920508,4.52234874581336Z" fill="none" stroke="#181818" stroke-linecap="round" stroke-linejoin="round" stroke-width="28"/>
        <path d="M90.699585434000255,147.956199325079069c-5.811134360650613.240118874404288-8.932166448270436-4.742378451675904-9.158245154250835-9.54530821930166-.238619671368724-5.06941231987912,4.601406760421014-9.68091585988077,9.623952178049876-9.552380465733222,4.550728987760522.116454279044774,9.428596919691699,4.464121606293702,9.411948500510334,8.45909707802457-.021273619269778,5.105272137725478-3.97490691864914,11.273797462754374-9.877655524309375,10.638591607010312Z" fill="none" stroke="#181818" stroke-linecap="round" stroke-linejoin="round" stroke-width="28"/>
        <path d="M73.942021496470261,150.967787368519566c-.357043585639985-3.977409913899464-.617448869810687-7.955671258765506-.509985835980842-11.956384301352955.21548408308081-8.02208287436406,3.76290132351096-13.829601468471083,11.25651932789151-16.98049435723442,1.107466957699216-.46565603464478,1.994504396578122-.83750125169172,1.821880117378896-2.225019238916502,2.296538399050405.150519188360704,3.869041227970229,2.034935357411086,6.02713427244089,2.517021708592438.836662643669115.672668818389866,2.075295826809452.842533132014069,2.515499052498853,2.01111830192167-.131269774688917,1.006913002909641,1.371214581729873,1.908087484101998.587331377100782,2.705924325509841-.710961517839678.723616606652286-1.87232011028027-.161549438213115-2.797429158770683-.368117330101086-5.594160318840295-1.249095255065185-12.473581667049075,2.969906278698545-13.365006526239085,9.331852174169398-.520407876800164,3.714041604651356-.222895525170316,7.512850449305915-1.564030965761049,11.157465912501721-.640578705359076,1.74082348668162-1.895131627748924,3.084005699114641-2.460449200159928,4.810508270307764-.913946822260186.282912868789936-1.262010386359179-.286241887177312-1.511462460399343-1.003875465397869Z" fill="none" stroke="#181818" stroke-linecap="round" stroke-linejoin="round" stroke-width="28"/>
        <path d="M73.942021496470261,150.967787368519566c.503815067399046.334673735276738,1.007630134788997.669347470557113,1.511452872498921,1.003952170889534.684656171781171,1.449810517860897,1.510593797200272,2.779009318972385,3.014328414999909,3.529327107640711-2.642444686978706,3.185149561812068-6.551653438178619,4.025880114746542-10.128994495878942,5.4863526960944-1.075859506250708.439230992400553-2.288091464410172.74858424453123-3.153400817849615,1.462321183720633-2.965748473550775,2.446253221014558-5.650773956700505,1.690489342361616-8.324269997279771-.418152322999958-.337066249650888-1.342706638379241-.674227419451199-2.685428617856815-1.01136941346158-4.028234973373401.80423255092137-1.446872697490107,1.595663345731737-2.899329554849828,2.007520921521063-4.520377414653922,3.216743239740026-1.085850625462626,6.247177399129214-2.677504940458675,9.553823444779482-3.519278688090708l6.530909070670532,1.004090240772712Z" fill="none" stroke="#181818" stroke-linecap="round" stroke-linejoin="round" stroke-width="28"/>
        <path d="M95.053068430699568,124.334029481529797c-.82158280395015-.691492346300947-1.957614015538638-.989692619790731-2.515414679039168-2.01116432521485,2.754490734159845.80106614264696,4.023460013999284,1.778110026691138,5.715197893030563,4.714664757157152-1.066595683050764-.901166810646828-2.133187530940631-1.802333621295475-3.199783213991395-2.703500431942302Z" fill="none" stroke="#181818" stroke-linecap="round" stroke-linejoin="round" stroke-width="28"/>
        <path d="M67.411112425799729,149.963697127746855c-2.93742966974969,1.844130444274924-5.965892558129781,3.441115791012635-9.55380618657,3.519309370287374-.025374361539434-.332372570495863.026304387260097-.694000615911136-.08725750594931-.992822203892501-3.731017740719835-9.817796811637891,1.036335330709335-17.433332904045528,6.583607012609718-24.733525045343413,1.149542471850509-1.512793397929272,2.931163022220062-2.706461263958772,4.98882671192041-3.157052339829534.656170538630249-.143707740608079,1.341518956360233-.516381376977733,1.844720398528807.117428438801653.469893098330431.591851911260164.159740067210805,1.265326137323427-.146819421219334,1.879675769599999-1.226053866179427,2.457015001640684-2.491753674159554,4.873046258520844-2.888918761140303,7.675841950784161-.177606148939958,1.253375421558303-.305433869680201,2.495505817885714-.213067933789716,3.723967295411057.301978392670208,4.016207552114793-.703118620509485,7.964408014388027-.527284314390272,11.967176764181204Z" fill="none" stroke="#181818" stroke-linecap="round" stroke-linejoin="round" stroke-width="28"/>
      </g>
      <g>
        <path d="M80.97874950438927,85.119067361154521c-.889599324158553-6.8709961449822-1.450801772458362-13.776908630246908-1.688857675659165-20.692818717670889-.121244672700414-3.522472513044704,2.429560840759223-6.086460994829395,6.199854430580672-6.80039449184369,7.547041749880009-1.42908852900473,15.125420572599978-2.696124719406725,22.660496630749549-4.183867541645668,5.859100676880189-1.156835566356676,11.823790913109406-1.794018745880749,17.57042942822045-3.511855514034323h2.010727113289249c2.077251757189515,1.05978454095748,2.784500842459238,2.839471464787493,2.935552360100701,5.080054727584866.415692733398828,6.166088487412708.944031716138852,12.324649768939707,1.438368191498739,18.485341545529081.280211955650884,3.492186308063538-.651562596758595,4.829652043654278-3.976582882529328,5.445062129365397-6.727940292910716,1.245236968783502-13.458825986859665,2.476254656852689-20.19861308164036,3.655269856135419-5.262561086368805.920588641400172-6.678075573659953,2.932976419227998-6.216629409958841,8.267302664031376,1.007304146389288,11.644538120710422,1.859522189328345,23.302488196823106,2.77509320082936,34.95496533603-1.518373414399321.523453623405658-2.800086922979972-.178639421990738-4.033358555790983-.869280337323289-4.227478893399166-2.367407645049752-8.206428068158857-5.18009067532148-12.932005726539501-6.622307349403854-1.889482440590655-.576656553153953-2.895908335889544-2.217095561516544-3.123049380530574-4.210448871324843-.832792969638831-7.30853769890382-1.885670293919247-14.588755729897457-2.523990091449377-21.925321615843131-.203240342409117-2.335916205011017-.012372218450764-4.795711780761849-.897434551170591-7.071701819586451Z" fill="#473d52" stroke-width="0"/>
        <path d="M80.97874950438927,85.119067361154521c.637291975290282.492656368078315.95360810468992,1.179496526247021.986440888991638,1.947023192205961.389030717698915,9.093999947073826,2.317501370549508,18.013310805032233,3.062503747329174,27.067412390069876.148294039328903,1.802241574703658,1.098450502169726,3.219229812229969,2.906953589810655,3.676939157825473,4.212671349860102,1.066206348779815,7.741802558808558,3.482229935110809,11.351257308759159,5.69443168619182,1.66377574488979,1.019715149641343,3.409021742909317,1.67791731210491,5.2026827705904,2.313238226091926.374215503848973,5.033230338962312.748427172529773,10.066453007375458,1.122642676369651,15.099668005243075-1.360794458500095.148762632576108-1.574477935089817-.96246984042773-1.956045436068962-1.833437698593116-.500361507960406-1.142106433821027-.779242663931655-2.375377345739253-1.479266312251639-3.440847321788169,1.196116625871582,3.300100413202017,2.684330360831154,6.488003702203059,3.858191567091126,9.796633766194645.366549023779953,5.728580971548581-.331737298150983,11.237308659872724-3.358094684999742,16.265353707529357-1.53584639248038-1.909468182973797-3.500839251260913-1.986135322944392-5.821945669960769-1.857561576051012-6.415961726770547.35539188886105-12.651536815339568-.627527635926526-18.458809172270776-3.598162616804984-1.75063055929968-.938368974613695-2.890128753369936-2.356177960913556-3.362670028029243-4.295538274398496.821297084699836-2.59460164392658,2.512219992739119-4.846276041560486,2.932729684100195-7.617331000938066.261576924820474-1.723741173454982.605230057670269-3.394770332311964.518448111259204-5.183918279406498-.395105607349251-8.146046621144706,6.579588726221118-14.410331083287019,14.537575284390186-13.073630484988826,1.375383398049962.231021602969122,1.869769730459666-.055887621994771,1.752613335780552-1.403833245525675,1.344518049609178-1.25336008045997,1.436527315840067.752012980057771,2.166449852900769.761677872138534-1.218253155600905-1.369776006758912-2.878178402250342-2.253569023301679-4.759499627440164-2.762763095612172-2.136945985410421-.40650842920877-3.77889968350064-1.985084457694029-5.884128915460678-2.468106615888246-1.135087762819239-.872486626920363-3.026924990170301-.155650785820399-3.794800246940213-1.798506017206819.531591196380759-.067631232926942.960933255721102-.217429389655081.905603436869569-.898635529385501-.340477622339677-4.191771083847925-.623937956488589-8.388773482301985-1.016999424819005-12.575531862201387-.61915167980078-6.595019370368391-1.200619100909535-13.191170146754303-1.411832736001088-19.8145743847017Z" fill="#47424d" stroke-width="0"/>
        <path d="M82.501978228339794,118.40780913744311c1.224715396170723.785533280375603,2.92523962129053.206798008370242,4.008441536790997,1.398088004121746.716913682439554,1.001497595121691.229392282159097,1.713025416120217-.582901770059834,2.318945114746384-.537677591510146.401077680324306-1.177236144951166.621628983535629-1.780353030781043.903874514542622-6.571078511480664,3.075038827015305-9.707395619760064,8.414354764121526-9.980130935649868,15.493849861768467-.124690561809985,3.23664962962539-.264949945940316,6.497967745708593.334851446130415,9.728082067353171.18148541085975.977350706016296.212358429618689,2.003654857480797-.493759284139742,2.865418056517228-2.309301803579729.616290281242982-4.44119688641149-.065521831878868-6.552798232740315-.894669855413667-1.112477591119386-1.405083545054367-.776552300860203-3.041464832853308-.561980985290575-4.574769279535758.268050670871162-1.915489564151358.413207551269807-3.824842688885838.33564915891111-5.745962436199989-.175207257860166-4.339973766329422.438987480718424-8.495325082236377,2.571315936358587-12.358136990014827.328814908050845-.595664174250487.982082232370885-1.385861148581171.190685953970387-2.010366588094257-.572757778169034-.451971774740741-1.30182507507925.010700416234613-1.874235771500025.323490074440997-1.624628373579981.887751019967254-3.081907727259022,1.990292760647208-4.232012049700643,3.47260339577042-3.280589026049711,4.228183181243367-5.555299625559201,8.916929152412195-6.601223809089788,14.186427750044459-.382348914348768,1.926328050270968-.281127599530009,3.812025201052165.199318893750387,5.709274199032734.347152714170079,1.370888236404426.971121351920374,2.682314374853377.953196784039392,4.139619019349993-.490864698938822,1.780372838727999-.775474621579633,3.672804731768338-2.536544479889926,4.780217271234505-.699601780988814-.230737792644504-1.100138930300091-.783592631409192-1.309588392889054-1.422894560466375-1.359301623400825-4.149007771658944-2.435433905249738-8.325054229499074-1.588878951910374-12.766923572353335,2.11030314548043-11.072721684149656,7.52682663412088-19.878128720696623,17.424337728160026-25.65025540046372,4.034098741209164-.958787976773237,8.058611505970475-.805284944746745,12.076610255529886.104089353619202Z" fill="#3c393f" stroke-width="0"/>
        <path d="M78.467783608190075,155.501128011441324c4.368351902750874,2.230449987800966,8.984247888620303,3.305722925817463,13.900973637459174,3.62174188526842,2.253960479260058.144865993544954,4.442765465870252.09511481096888,6.64607885372061-.130307291032295,2.127511497679734-.217667176684699,3.387621563440916.529513357332689,3.661114322960202,2.713004242488751-.866277730739967,1.467920684690398-1.381243518890187,3.154152872208215-2.697128281779442,4.342949939446044-1.556276277071447,1.120375767737642-2.890113412729988,2.524945385992396-4.554966836911262,3.510350168740842-2.647432309458964,1.566985828534598-4.21811343851914,1.469416441797875-6.585314616539108-.469383921588815-5.308931977040629-4.348150571853694-13.693679533460454-4.652840130025652-19.420162377760789-.749128853529328-1.227070182949319.836481068636203-2.201894379530131,1.766895683655093-2.378677887169033,3.332431778380851-.133425133270066,1.181563739277408-.700667954799428,2.041209866712961-1.945126742350112,2.310998425702564-.690742566910558.104235094053365-1.296827864731313-.103422015832621-1.85056326115955-.501937732697115-3.192205901341367-2.892334013913569-5.419928149811312-6.413860172944624-6.801705714391574-10.486231486827819-.006235966278837-.390055101021062.090329467200718-.744979086375679.359686009231154-1.039298061932641.080430925409019-.018654775829418.189562252799078-.080510085155765.23942984840869-.048884410509345,3.471647949110775,2.200864679258302,6.428056855091199.766126790716953,9.710334309291284-.856248074109317,3.865148542989118-1.910450013281661,8.063434216659516-3.152150858846653,11.716028736989756-5.550056607800798Z" fill="#3f324c" stroke-width="0"/>
        <path d="M64.906758341310706,173.593107969807534c.557190873440049-.333009226085778,1.334592661720308-.469591026419948,1.440690379429725-1.25646665291606.790801828969052-5.865070725292753,5.634745874260261-6.543154951466931,9.933460902690058-7.167330557358582,5.045393369098747-.73258347875344,9.99278503819005.054292147744491,13.797595046498827,4.155029152834686,1.234341641780702,1.330357054050182,2.720975291800642.779304794366908,4.166404008459722.171360070733499,2.08275520836105-.87599206793675,3.454533558271578-2.914379172520057,5.733886616060772-3.447137172192015-.979223122369149,1.649789407925709-2.252388064629486,3.016013950367778-3.889494123510303,4.031057735506693-8.272120482879473,6.366977775791383-17.764438546259044,6.886135891605591-27.600904477829317,5.76510812718152-1.271784285530885-.623891795570671-3.137640237649975-.309905531677941-3.581638351799484-2.25162070378974Z" fill="#412e51" stroke-width="0"/>
        <path d="M56.861232393110186,162.031595874412233c-.004139093849517.335686247781268-.008278187700853.671364825015189-.012416322761055,1.007051072794638-1.877362383749642.109435726461015-2.552867869468173-1.421191698525945-3.333840189479815-2.619638316751661-4.475265550248878-6.867550150716852-4.749844138759727-14.214279514446389-2.502898642169384-21.902026157700675,1.819230982260706-6.224359253183138,5.063205758620825-11.588466405533836,9.280376707150936-16.430186140829392,3.12552880992007-1.9363381170715,6.412233953569739-3.440939368379986,10.132914026959043-3.783076548101235-2.366677679010536,2.824426641212995-5.731850147369187,4.522548180098966-8.134189039419653,7.33715651824059-5.432957139000791,6.365328607698757-8.617804331679508,13.652549850176001-8.891396805300246,22.018403731253784-.116860128760891,3.573317707712704.906175834150417,7.066784997507057,2.450005107199104,10.343988821130552,1.135832742180355,1.142229162611329,1.670320441360673,2.435453087637143,1.011445157821072,4.028327019963399Z" fill="#464348" stroke-width="0"/>
        <path d="M52.304270794840704,166.55504917932376c-10.534450714219929-11.762541850706839-7.959018125671719-33.551059220288153,5.005481363239596-42.34705449287685.891278164410323,1.237313291383543-.179499758010934,2.039100465664887-.7301593580396,2.862265460766139-3.096537894751236,4.628861993003738-5.20707642303023,9.660665609802891-6.241226672700577,15.123814894350289-1.370053008369723,7.237646482535638-.160019554319661,14.240305688128501,2.066122609210652,21.138246555066871.325249170258758,1.007825798267731.994731540949942,1.96257139557747.598203090128663,3.114848977735164-.19587588100876.275111920182098-.428904851369225.310756962648156-.698421031838734.107878604958387Z" fill="#5b595c" stroke-width="0"/>
        <path d="M52.848117716770503,166.54656555182919c-1.940164048410224-5.163468595048471-3.406690925870862-10.398472732607843-3.575850619570701-15.994261155163258-.264612452068832-8.753362359741004,2.331411966599262-16.59017078699253,7.002788301249893-23.85102068107517.500742147360143-.778322964057224,1.06770500238963-1.504332782082201,1.034658408050745-2.493235335299687.774798675049169-1.015795498964508,1.895363654790344-1.545224480252728,2.982797666709303-2.121206025070933-.571118248299172,2.277232667807766-2.370313408418951,3.782739043930633-3.575597019769702,5.660144330946423-4.247973975669083,6.616807565575073-6.930013309220158,13.750165260211361-6.332396998199329,21.695090079449074.394538962809747,5.24515227424672,2.125774171279772,10.104798083188143,6.464352307319132,13.596562511043885,1.664259933540961,3.681978708695169,3.772161311570017,7.075498741478441,6.531660761560488,10.045305303034183-1.873532020081257.740668237685895-3.13518094283063-.696762013651096-4.525596241150197-1.404669335395738-2.382646316500541-1.213066685135345-4.352866495100898-3.013106812195474-6.006816566199632-5.132709692468779Z" fill="#4d4654" stroke-width="0"/>
        <path d="M68.413189252369193,175.112758838786249c3.689277802870492.828618755635034,7.392446546611609.392862522054202,11.114528370100743.26962747745165,6.063836730769253-.200768956638058,11.317312328750631-2.678747569438201,16.561583548469571-5.302781110922297-2.984730586138539,3.58705566145909-7.05914066898913,5.403464740664276-11.353339799339665,6.706169464590857-6.101965867730542,1.851125985211183-12.243675473779149,1.997633476303236-18.313782687240746-.285528526092094-.137979382929188-1.61291707757664,1.379045973581015-.850794313580991,1.991010568010097-1.387487305028117Z" fill="#513a64" stroke-width="0"/>
        <path d="M68.413189252369193,175.112758838786249c-.492313429718706.708306190306757-1.668665570849043.435088895796071-1.990928112119946,1.387510316675616-5.784875036488302-1.783387364592272-10.499185960599789-5.086486962558411-14.117917956809833-9.945127929546288.181083678109644-.002861114880943.362239744810722-.005622512617265.543584693030425-.008483627492751,3.30785124392969,2.506497714990473,6.371717431000434,5.405888634231815,10.532694691441066,6.537379027864517.508564910089262.16963419714375,1.01721994638865.339352770331971,1.526005378049376.509079014069357.935262628250712,1.045764334967316,2.284010856708846,1.137097565147997,3.506561306408912,1.519643198429549Z" fill="#554563" stroke-width="0"/>
        <path d="M106.034110305010472,145.440128764596011c-2.35297657844967-3.00253679530033-3.15131065696005-6.73044675303754-4.71049781865986-10.103333008277332-.178630136020729-.38641159011604-.338337604391199-.883271419195808.070981097058393-1.134689012676972.580320708981162-.356481106855426.937193630110414.155482033740554,1.13566303645166.596553957964716.544600051009184,1.210251593554858,1.056087351198585,2.437946016150818,1.518277535469679,3.681925014852823.347672378020434.935753317311537.550682610970398,1.938002626264279,1.56269249575962,2.437194302323405.569099037820706,1.467414428436314.468989918710577,2.997405197836997.422883653920508,4.52234874581336Z" fill="#535156" stroke-width="0"/>
        <path d="M90.699585434000255,147.956199325079069c-5.811134360650613.240118874404288-8.932166448270436-4.742378451675904-9.158245154250835-9.54530821930166-.238619671368724-5.06941231987912,4.601406760421014-9.68091585988077,9.623952178049876-9.552380465733222,4.550728987760522.116454279044774,9.428596919691699,4.464121606293702,9.411948500510334,8.45909707802457-.021273619269778,5.105272137725478-3.97490691864914,11.273797462754374-9.877655524309375,10.638591607010312Z" fill="#535156" stroke-width="0"/>
        <path d="M73.942021496470261,150.967787368519566c-.357043585639985-3.977409913899464-.617448869810687-7.955671258765506-.509985835980842-11.956384301352955.21548408308081-8.02208287436406,3.76290132351096-13.829601468471083,11.25651932789151-16.98049435723442,1.107466957699216-.46565603464478,1.994504396578122-.83750125169172,1.821880117378896-2.225019238916502,2.296538399050405.150519188360704,3.869041227970229,2.034935357411086,6.02713427244089,2.517021708592438.836662643669115.672668818389866,2.075295826809452.842533132014069,2.515499052498853,2.01111830192167-.131269774688917,1.006913002909641,1.371214581729873,1.908087484101998.587331377100782,2.705924325509841-.710961517839678.723616606652286-1.87232011028027-.161549438213115-2.797429158770683-.368117330101086-5.594160318840295-1.249095255065185-12.473581667049075,2.969906278698545-13.365006526239085,9.331852174169398-.520407876800164,3.714041604651356-.222895525170316,7.512850449305915-1.564030965761049,11.157465912501721-.640578705359076,1.74082348668162-1.895131627748924,3.084005699114641-2.460449200159928,4.810508270307764-.913946822260186.282912868789936-1.262010386359179-.286241887177312-1.511462460399343-1.003875465397869Z" fill="#444147" stroke-width="0"/>
        <path d="M73.942021496470261,150.967787368519566c.503815067399046.334673735276738,1.007630134788997.669347470557113,1.511452872498921,1.003952170889534.684656171781171,1.449810517860897,1.510593797200272,2.779009318972385,3.014328414999909,3.529327107640711-2.642444686978706,3.185149561812068-6.551653438178619,4.025880114746542-10.128994495878942,5.4863526960944-1.075859506250708.439230992400553-2.288091464410172.74858424453123-3.153400817849615,1.462321183720633-2.965748473550775,2.446253221014558-5.650773956700505,1.690489342361616-8.324269997279771-.418152322999958-.337066249650888-1.342706638379241-.674227419451199-2.685428617856815-1.01136941346158-4.028234973373401.80423255092137-1.446872697490107,1.595663345731737-2.899329554849828,2.007520921521063-4.520377414653922,3.216743239740026-1.085850625462626,6.247177399129214-2.677504940458675,9.553823444779482-3.519278688090708l6.530909070670532,1.004090240772712Z" fill="#3a2f44" stroke-width="0"/>
        <path d="M95.053068430699568,124.334029481529797c-.82158280395015-.691492346300947-1.957614015538638-.989692619790731-2.515414679039168-2.01116432521485,2.754490734159845.80106614264696,4.023460013999284,1.778110026691138,5.715197893030563,4.714664757157152-1.066595683050764-.901166810646828-2.133187530940631-1.802333621295475-3.199783213991395-2.703500431942302Z" fill="#535156" stroke-width="0"/>
        <path d="M67.411112425799729,149.963697127746855c-2.93742966974969,1.844130444274924-5.965892558129781,3.441115791012635-9.55380618657,3.519309370287374-.025374361539434-.332372570495863.026304387260097-.694000615911136-.08725750594931-.992822203892501-3.731017740719835-9.817796811637891,1.036335330709335-17.433332904045528,6.583607012609718-24.733525045343413,1.149542471850509-1.512793397929272,2.931163022220062-2.706461263958772,4.98882671192041-3.157052339829534.656170538630249-.143707740608079,1.341518956360233-.516381376977733,1.844720398528807.117428438801653.469893098330431.591851911260164.159740067210805,1.265326137323427-.146819421219334,1.879675769599999-1.226053866179427,2.457015001640684-2.491753674159554,4.873046258520844-2.888918761140303,7.675841950784161-.177606148939958,1.253375421558303-.305433869680201,2.495505817885714-.213067933789716,3.723967295411057.301978392670208,4.016207552114793-.703118620509485,7.964408014388027-.527284314390272,11.967176764181204Z" fill="#332f36" stroke-width="0"/>
      </g>
    </g>
  </a>
  <a xlink:href="https://www.notion.so/dmmnotes/expressive-procedures-f61e0487b91d4fd498d3237712c01298?pvs=4">
    <g>
      <g>
        <path d="M127.444193228679069,178.909573881235701c-1.212707517699528-14.992410714774451-2.42014552882938-29.985243309762154-3.640377625759356-44.97704038059419-.589847240500603-7.246874153310273-1.154129320349966-14.496379305017399-1.823264609280159-21.736069988935924-.48915901258988-5.292452716326807,1.668032769839556-8.285604594593678,6.849775579879861-9.245439601345424,13.053917716670185-2.418021764417063,26.107014709610667-4.84050011796171,39.158961155269935-7.269153263669068,3.188388960730663-.593282468698817,4.885254445491228.487018514366355,5.189765959759825,3.664884889643872.661487984651103,6.903260392855373,1.245022555720425,13.815568198577239,1.729218874361322,20.733356611752242.162526309210079,2.322097710499293-1.129200795890938,3.675136578745878-3.501184415441458,4.100230748839749-7.070304812808899,1.267105704755522-14.120620784138737,2.645465056149988-21.188869952458845,3.924391077332984-4.600593707009466.832431018621719-6.13477947624051,2.515947831694575-5.780748406910789,7.112240672489861,1.046085260160908,13.58139783513252,2.267567618460816,27.149510278926755,3.27224084673071,40.733776899485747.368995854340028,4.989278091636152,1.189320726589358,9.974137946894189.644713005269296,15.007981929798916-.977911498470348.628586171724237-1.586988219220075-.125045294229494-2.159922414648463-.663993427162495-5.05248265793125-4.752825739786203-10.518495020380215-8.788347734967829-17.472326096551114-10.317318321312996-.597617269810144-.131396509024853-1.088686190880253-.428860409783738-1.277981900220766-1.067847846323275Z" fill="none" stroke="#181818" stroke-linecap="round" stroke-linejoin="round" stroke-width="28"/>
        <path d="M149.477143019619689,200.449273973537856c.508656953879836,4.067354774660998,1.217463113131089,8.125919099855309.538402436310207,12.245494973958557-1.915469468560332-.706595657817161-1.900834507119725-2.60703560429647-2.482566554099321-4.106060366286329-1.04417535166067-2.690598568064161-1.44886885304004-2.792371415804155-3.415576027271527-.63999994904043-4.833433795849487,5.289718165513477-12.031756169688379,5.900201840957379-17.301055627978712,1.467299370200635-4.996320609890972-4.203261566659421-5.651089398410477-11.83094780911415-1.175690576439592-17.178409869546158,2.928564702939184-3.499212531198282,6.862255182750232-4.908185044734637,11.481733205830096-4.008076769887339,1.752306523179868.341446830281711,3.375805442839919,1.316603759205464,5.351770687550015.529114488766936,1.045878161639848-.416817647430435,1.941111332329456.686590865318067,2.710344234899821,1.487304162699729,2.324673115279438,2.419858860968816,3.054296510039421,5.511703861438946,3.713115224998546,8.640183405233984.115683694160907.549334056649968-.042493546328842,1.201208015960219.579522996200467,1.563150553900414Z" fill="none" stroke="#181818" stroke-linecap="round" stroke-linejoin="round" stroke-width="28"/>
        <path d="M113.752181988769735,179.895270144857932c4.202581050200024-.985512170440416,8.395888689290587-.874764780051919,12.581825155461047.106513247188559.716706583929408.371530724529293,1.636269994509348-.313832852905762,2.282417348718809.435855950721816.928123482370211,1.242951145099141.503318414481328,2.157096525113957-.69964013255958,2.886519737563503-.500357672810424.303400905897433-1.033268163420871.547646535807871-1.535244272739874.84609226687644-6.151861268239372,3.657594032560155-9.487988170449171,8.909435025771018-9.465153642029691,16.223181027631654.012471932550397,3.994975471729049.380056448879259,8.007715935576925-.263298910591402,11.992995833030363-.449840976769337.928550671544144-1.305456969348597,1.336025589960627-2.18915398595891,1.707832454261734-4.977493821179451,1.371755008471155-9.882491658039726,2.920975844894201-14.197024794049867,5.897962040569837-.347365565410655.239673982547174-.749800158950165.349623635807802-1.183771253519808.244460405292557-2.730083791120705-3.973774073545428-3.392074181419957-8.49711232021582-2.812209856199843-13.081799619963931,1.492604990429754-11.80124744233035,7.576998165988698-20.787295914229617,17.481254343469118-27.259613343172532Z" fill="none" stroke="#181818" stroke-linecap="round" stroke-linejoin="round" stroke-width="28"/>
        <path d="M128.325113591170521,180.40870603091571c-.677411559050597-.068682098180943-1.431902115760749.239796711333838-1.991144798521418-.406937979967552.804639077621687.077641299729294,1.129377213130283-.332502969833513,1.110216765711812-1.092209510808971,7.852201405788946,1.706206297818426,14.235453073310055,5.920267997851624,19.795887016120105,11.557968301629444.265024731519588.26869934098977.738137444659515.332165465662911,1.114351065618393.491206634265836.275042163189937.483582108290648.683800931630685.901289539435311.616647321870914,1.536073514971577-.283410477090001,2.678985356466001.43787528501889,5.296268814592622.506064387340302,7.954451641433479-1.481122528541164-.445060609847133-1.274867752250429-1.87526520377105-1.485302850340304-2.894942000662923-.517807639929742-2.50906734900127-1.387859165759437-4.810937821068364-3.1449366249999-6.682306385808261-.858277591969454-.914099356719817-1.569009000340884-2.926038407413216-3.293150126020919-.732905641820253-.429951849399004.54689482197864-1.207629769020059-.248909323869157-1.787942807690342-.497174321601051-7.380461679078508-3.157290126859152-14.474199304879221,1.145980061204682-16.168871079478777,7.779394365954431-1.639000626730194,6.415540023230278,3.128744589570488,14.033929559969692,10.508469918389892,14.220247201783422,4.579201197850125.115595177521755,7.848573346689591-1.630436612114863,10.393277124399901-5.234981125911872,1.208274075490408-1.711498976817893,2.043210898240432-1.612533550112857,3.007208444900243.332993884985626.956933186329479,1.931306236749151,1.112487179008895,4.204964428598032,2.509658107459472,5.955168997039436-.12072309126961,3.892374204671796-1.139624754270699,7.529810033747708-3.093998061629463,10.901737470328953-.488629760830008-.412399411048682-.537712107930929-1.00048508261898-.648594184771355-1.572999539164812-.614530314869626-3.172861341881799-.757451298379237-3.262959613628482-3.941828684248321-2.272814431426013-6.759588013521352,2.101868570354782-13.152044059290347,1.176585552797405-19.212490510730277-2.34798581429277-1.362823256889897-.792567174057695-2.706869582110812-1.657498309943549-3.479254984231375-3.130412522210463.355335022921281-3.478778187938588,1.896753899411124-6.691603091521756,2.215601232830522-10.208335157258261.159043986110191-1.754116548572711-.119564873659328-3.478870234530405.133816319350444-5.228154337059095,1.040693028549867-7.184527928826355,6.120528030560308-11.611033161490923,13.349876829470304-11.553841546119656.803473189709621.006335873698845,1.640212536529361.311040772970955,2.690899985820579-.240256944292923-1.700278775040715-2.516998696943119-4.282904591191254-3.639660288363302-6.781202961810777-4.849229203029608-1.038483977759824-.502773822570816-2.262374815050862-.67144920105784-2.923256844809657-1.783755550957721Z" fill="none" stroke="#181818" stroke-linecap="round" stroke-linejoin="round" stroke-width="28"/>
        <path d="M145.162237873330014,226.709767591864875c-1.168265711299682,2.54033250782777-3.391928445429585,4.132232280400785-5.354539671339808,5.958728131899989-5.501180757730253,3.879871209361227-11.600086169679344,5.573144961108483-18.343190675790538,5.903239378467333-4.339618901929498.212474214828035-8.496553906248664.32236250369715-12.562089434390145-1.3302113136142-1.598025802819393-1.398924093991809-3.332985908120463-2.711232345605822-3.432634808308649-5.119677429256626,3.78200999631008-5.229274237251957,9.153447372078517-7.462677386522046,15.352933627529637-8.13902039801178,5.838874055649285.374154052378799,11.430288401648795,1.549573681690163,16.230517402909754,5.170103620170266,1.694272918210117,1.277913508680285,2.93847475019902.201873515734405,4.286762759738849-.664100814854464,1.186797192880476-.762268504431631,1.992563806841645-2.388302221263075,3.822240799650899-1.779061174800518Z" fill="none" stroke="#181818" stroke-linecap="round" stroke-linejoin="round" stroke-width="28"/>
        <path d="M145.162237873330014,226.709767591864875c-2.085336269430627.586812360390468-3.214652120050232,2.606866852211169-5.15730518573946,3.427876422971167-1.041421708499911.440105435016449-1.951573642299991.8184629483967-2.995626268921114-.077365159957481-4.66244712894877-4.000498267207149-10.3495103057503-5.000630504559012-16.220055092950133-5.423845390079805-3.441793164689443-2.936178873551398-6.056526920359829-6.361247875487607-6.532147826579603-11.050837607073845.670025045499642-.338102470801459,1.340050090990189-.676204941604738,2.010067466180772-1.014307412404378,1.636745554049412-.577791794446966,2.672698327789476.245856445257232,3.520191456560497,1.50914988702425,7.094021427459666,6.110236821117724,15.063908479689417,7.751933799561812,23.880214816548687,4.481809892913589,2.056864059341024-.762897489474199,2.786180641491228.063803628843743,3.077031324350173,1.807887098964784.176095096850986,1.055973836051635.125578400800805,2.149732797814067.176900479949836,3.226432457997362-.304404129859904,1.197050578255585-.999664512439267,2.173312066273866-1.759271169399653,3.113199809644357Z" fill="none" stroke="#181818" stroke-linecap="round" stroke-linejoin="round" stroke-width="28"/>
        <path d="M113.752181988769735,179.895270144857932c-1.00550929263045,2.484337498146488-3.560199820749403,3.356647702432383-5.364606960059973,4.977327375872846-6.090598460568799,5.470436306355623-9.460359695020088,12.332340932811348-11.206460933179187,20.154874467871196-1.176331047759959,5.269912807292712.102103401059139,10.216742079259348,1.995605086818614,15.081327721933121,1.479546278760608,1.687444134300677,1.782868894180865,3.71854421707576,1.713256948391063,5.859348495534505-1.243055119870405.814320851794037-1.990431459209503-.181255079291077-2.783384811600627-.817926009947769-2.346859502049483-1.884331793009551-3.604442198939068-4.560770527117711-5.056590111738842-7.094889890036939-2.01356896507059-5.983519347148103-1.031450298700292-11.881864915179904.535660298619405-17.754207321182548,1.466061864599396-5.493678070650276,4.189591371368806-10.351528971064909,7.609838620599476-14.84803563638161,3.681195208200734-2.9921738832345,7.820779959491119-4.948670203792062,12.556681862150072-5.557819203662802Z" fill="none" stroke="#181818" stroke-linecap="round" stroke-linejoin="round" stroke-width="28"/>
        <path d="M101.195500126619663,185.453089348520734c-.319633540730138,2.332230506086489-2.100638548310599,3.888723023217608-3.119436662049338,5.851217713307051-4.392459703491113,8.461229490721962-6.976934065620298,17.204673830250613-4.426795869580019,26.805225345409781.886910878680283,2.511061691810028,1.713272289009183,5.041499191082039,2.250620056978732,7.653535993502373.212513753511303,1.033023552628947.671328999080288,2.123085309644011-.333413262029353,3.035128959156282-10.835378753108671-12.149076169611362-7.915282078169184-34.634647033713918,5.629025736679978-43.345108011375487Z" fill="none" stroke="#181818" stroke-linecap="round" stroke-linejoin="round" stroke-width="28"/>
        <path d="M95.566474389939685,228.798197359896221c.165521567310861-2.716617071193468-1.090584593899621-5.154317629769139-1.561844925920013-7.748466711289439-.178756696219352-.983993401681801-.373126319080257-1.942229098911412-.355407890920105-2.940274946860882,1.984421767230742,2.992802868275248,3.455764643860675,6.434240822356514,7.02918425290045,8.037109480386789,2.174400134619646,1.596839606301728,3.456608378530291,3.938750345569133,5.036831379720752,6.03179778426238.493243455448464,1.849246700639924,2.080573003690006,2.967183233708056,3.019929662699724,4.518245001952891-1.281878420360954.780570434997571-2.329793050690569-.103813213840112-3.437371227961194-.498462973873757-1.459660986549352-.520078581726921-2.760814909059263-1.383214809084166-4.184904808769716-1.983650064981703-2.217254185768979-1.428102863419554-4.106694439618877-3.191930327369846-5.546416441749898-5.416297569596281Z" fill="none" stroke="#181818" stroke-linecap="round" stroke-linejoin="round" stroke-width="28"/>
        <path d="M101.112890831689583,234.214494929492503c2.741639121000844.210326461034128,4.947249768260008,2.066691431396976,7.622160982000423,2.482205085449095,8.834346918260053,2.584944422394983,17.437732974900428,1.503964595718571,25.894600670200816-1.672624633107262,1.774297316909724-.666478685127004,3.102381716158561-2.334040755713431,5.178038047788505-2.355533634772655-4.628275874649262,4.784228968501338-10.460936974968718,6.91303650789996-16.914786223769624,7.672129404935731-2.238819277010407-.000628985041658-4.477684575909734-.00127331117983-6.716588226388922-.001902296219669-5.6023522154901-.611833692115397-10.709765835890721-2.441014235857438-15.063425249831198-6.124273926285241Z" fill="none" stroke="#181818" stroke-linecap="round" stroke-linejoin="round" stroke-width="28"/>
        <path d="M119.787362421880971,214.080438332344784c-1.185838403480375-.474024603896396-2.202899190830067-1.341763160817209-3.520206797200444-1.50910386373107-.000391186071283-4.168253179781459.00869046714979-8.336506359562918-.003275224589743-12.504682833850893-.022335957930409-7.779777893418213,3.733449230639962-13.21853483128325,10.429902879579458-16.819458845822737,1.168725930210712-.628478784035906,2.58722033496997-1.02710188859237,1.631384003709172-2.838548122419525,3.307915482821045,1.156289279426346,6.562621988950923,2.415517330080547,9.165428404459817,4.889254129131587.421944040301241.401031657027488.858193218500674.812464578866638,1.171955132931544,1.294512577305795.298244866729874.458192590200269.82619266338952,1.008263019579317.392282931339651,1.567538108083681-.354713727390845.457195418795891-.906661940380218.042080633304067-1.386271410510744-.028043528138369-5.582509110028695-.81634587679946-10.243652285389544.633142477990987-13.37295680797979,5.625688223619363-1.498250342419851,2.390357928466983-1.624749181040897,5.020343816184322-1.654256883699418,7.813436263619224-.045577013041111,4.313794181665799-.908464464460849,8.566868295294626-2.853986228039503,12.509407892202944Z" fill="none" stroke="#181818" stroke-linecap="round" stroke-linejoin="round" stroke-width="28"/>
        <path d="M100.09274274245945,207.643957709602546c1.047159104280581-7.06977651172383,3.477709415710706-13.494674605068212,8.781095754840862-18.576751001794037.179815199719087-.172295877742727.366978561429278-.373831889308349.58988559206955-.458069861411786,1.117146895510814-.422156349721263,2.24463721110078-1.822430460386386,3.392242928361156-.841505278409386,1.056010648038864.902639556104987-.00066731743027,2.220485944293614-.427516524310704,3.212916950176805-1.208983579659616,2.810964827236603-1.835560124591211,5.709910854622649-1.677766399860047,8.749366003567047.186733824049952,3.596889305623336-.281105547379411,7.152971289122434-.542348813491117,10.720835236303174-.185713672130078,2.536374504406922-4.127515510279409,5.752421038685497-6.760055902739623,5.570705726440792-1.057537040780517-.072992946872546-1.571409808999306-.913761852552852-1.905198916469089-1.784660675773921-.80676375494113-2.104952131163373-1.50659181023002-4.243731384614875-1.450337718400988-6.592837099098688Z" fill="none" stroke="#181818" stroke-linecap="round" stroke-linejoin="round" stroke-width="28"/>
        <path d="M105.715241040879846,232.178362966395071c-2.33890538516971-1.459444727744994-3.533836947339296-3.874179661799644-5.036777687519134-6.031782443164047-.500633804160316-2.012552694637634-1.001210080950841-4.025074707073145-1.501767181951436-6.037688766104111,4.456226869071543-3.493628371328668,9.680428709019907-5.211631973928888,15.080368976150567-6.523357263797152,1.32606710635082,4.18696932000239,3.910303688700878,7.630110136025905,6.532201518790316,11.050944994763995-5.048785565999424.538119713613924-9.601136825429421,2.173956392412947-13.219021251799859,5.919961175881326-.568554445440896.588714656611046-1.234234257361095,1.083633836724402-1.855004373670454,1.621922302419989Z" fill="none" stroke="#181818" stroke-linecap="round" stroke-linejoin="round" stroke-width="28"/>
      </g>
      <g>
        <path d="M127.444193228679069,178.909573881235701c-1.212707517699528-14.992410714774451-2.42014552882938-29.985243309762154-3.640377625759356-44.97704038059419-.589847240500603-7.246874153310273-1.154129320349966-14.496379305017399-1.823264609280159-21.736069988935924-.48915901258988-5.292452716326807,1.668032769839556-8.285604594593678,6.849775579879861-9.245439601345424,13.053917716670185-2.418021764417063,26.107014709610667-4.84050011796171,39.158961155269935-7.269153263669068,3.188388960730663-.593282468698817,4.885254445491228.487018514366355,5.189765959759825,3.664884889643872.661487984651103,6.903260392855373,1.245022555720425,13.815568198577239,1.729218874361322,20.733356611752242.162526309210079,2.322097710499293-1.129200795890938,3.675136578745878-3.501184415441458,4.100230748839749-7.070304812808899,1.267105704755522-14.120620784138737,2.645465056149988-21.188869952458845,3.924391077332984-4.600593707009466.832431018621719-6.13477947624051,2.515947831694575-5.780748406910789,7.112240672489861,1.046085260160908,13.58139783513252,2.267567618460816,27.149510278926755,3.27224084673071,40.733776899485747.368995854340028,4.989278091636152,1.189320726589358,9.974137946894189.644713005269296,15.007981929798916-.977911498470348.628586171724237-1.586988219220075-.125045294229494-2.159922414648463-.663993427162495-5.05248265793125-4.752825739786203-10.518495020380215-8.788347734967829-17.472326096551114-10.317318321312996-.597617269810144-.131396509024853-1.088686190880253-.428860409783738-1.277981900220766-1.067847846323275Z" fill="#463e4f" stroke-width="0"/>
        <path d="M149.477143019619689,200.449273973537856c.508656953879836,4.067354774660998,1.217463113131089,8.125919099855309.538402436310207,12.245494973958557-1.915469468560332-.706595657817161-1.900834507119725-2.60703560429647-2.482566554099321-4.106060366286329-1.04417535166067-2.690598568064161-1.44886885304004-2.792371415804155-3.415576027271527-.63999994904043-4.833433795849487,5.289718165513477-12.031756169688379,5.900201840957379-17.301055627978712,1.467299370200635-4.996320609890972-4.203261566659421-5.651089398410477-11.83094780911415-1.175690576439592-17.178409869546158,2.928564702939184-3.499212531198282,6.862255182750232-4.908185044734637,11.481733205830096-4.008076769887339,1.752306523179868.341446830281711,3.375805442839919,1.316603759205464,5.351770687550015.529114488766936,1.045878161639848-.416817647430435,1.941111332329456.686590865318067,2.710344234899821,1.487304162699729,2.324673115279438,2.419858860968816,3.054296510039421,5.511703861438946,3.713115224998546,8.640183405233984.115683694160907.549334056649968-.042493546328842,1.201208015960219.579522996200467,1.563150553900414Z" fill="#4f4c51" stroke-width="0"/>
        <path d="M113.752181988769735,179.895270144857932c4.202581050200024-.985512170440416,8.395888689290587-.874764780051919,12.581825155461047.106513247188559.716706583929408.371530724529293,1.636269994509348-.313832852905762,2.282417348718809.435855950721816.928123482370211,1.242951145099141.503318414481328,2.157096525113957-.69964013255958,2.886519737563503-.500357672810424.303400905897433-1.033268163420871.547646535807871-1.535244272739874.84609226687644-6.151861268239372,3.657594032560155-9.487988170449171,8.909435025771018-9.465153642029691,16.223181027631654.012471932550397,3.994975471729049.380056448879259,8.007715935576925-.263298910591402,11.992995833030363-.449840976769337.928550671544144-1.305456969348597,1.336025589960627-2.18915398595891,1.707832454261734-4.977493821179451,1.371755008471155-9.882491658039726,2.920975844894201-14.197024794049867,5.897962040569837-.347365565410655.239673982547174-.749800158950165.349623635807802-1.183771253519808.244460405292557-2.730083791120705-3.973774073545428-3.392074181419957-8.49711232021582-2.812209856199843-13.081799619963931,1.492604990429754-11.80124744233035,7.576998165988698-20.787295914229617,17.481254343469118-27.259613343172532Z" fill="#3a373d" stroke-width="0"/>
        <path d="M128.325113591170521,180.40870603091571c-.677411559050597-.068682098180943-1.431902115760749.239796711333838-1.991144798521418-.406937979967552.804639077621687.077641299729294,1.129377213130283-.332502969833513,1.110216765711812-1.092209510808971,7.852201405788946,1.706206297818426,14.235453073310055,5.920267997851624,19.795887016120105,11.557968301629444.265024731519588.26869934098977.738137444659515.332165465662911,1.114351065618393.491206634265836.275042163189937.483582108290648.683800931630685.901289539435311.616647321870914,1.536073514971577-.283410477090001,2.678985356466001.43787528501889,5.296268814592622.506064387340302,7.954451641433479-1.481122528541164-.445060609847133-1.274867752250429-1.87526520377105-1.485302850340304-2.894942000662923-.517807639929742-2.50906734900127-1.387859165759437-4.810937821068364-3.1449366249999-6.682306385808261-.858277591969454-.914099356719817-1.569009000340884-2.926038407413216-3.293150126020919-.732905641820253-.429951849399004.54689482197864-1.207629769020059-.248909323869157-1.787942807690342-.497174321601051-7.380461679078508-3.157290126859152-14.474199304879221,1.145980061204682-16.168871079478777,7.779394365954431-1.639000626730194,6.415540023230278,3.128744589570488,14.033929559969692,10.508469918389892,14.220247201783422,4.579201197850125.115595177521755,7.848573346689591-1.630436612114863,10.393277124399901-5.234981125911872,1.208274075490408-1.711498976817893,2.043210898240432-1.612533550112857,3.007208444900243.332993884985626.956933186329479,1.931306236749151,1.112487179008895,4.204964428598032,2.509658107459472,5.955168997039436-.12072309126961,3.892374204671796-1.139624754270699,7.529810033747708-3.093998061629463,10.901737470328953-.488629760830008-.412399411048682-.537712107930929-1.00048508261898-.648594184771355-1.572999539164812-.614530314869626-3.172861341881799-.757451298379237-3.262959613628482-3.941828684248321-2.272814431426013-6.759588013521352,2.101868570354782-13.152044059290347,1.176585552797405-19.212490510730277-2.34798581429277-1.362823256889897-.792567174057695-2.706869582110812-1.657498309943549-3.479254984231375-3.130412522210463.355335022921281-3.478778187938588,1.896753899411124-6.691603091521756,2.215601232830522-10.208335157258261.159043986110191-1.754116548572711-.119564873659328-3.478870234530405.133816319350444-5.228154337059095,1.040693028549867-7.184527928826355,6.120528030560308-11.611033161490923,13.349876829470304-11.553841546119656.803473189709621.006335873698845,1.640212536529361.311040772970955,2.690899985820579-.240256944292923-1.700278775040715-2.516998696943119-4.282904591191254-3.639660288363302-6.781202961810777-4.849229203029608-1.038483977759824-.502773822570816-2.262374815050862-.67144920105784-2.923256844809657-1.783755550957721Z" fill="#47424d" stroke-width="0"/>
        <path d="M145.162237873330014,226.709767591864875c-1.168265711299682,2.54033250782777-3.391928445429585,4.132232280400785-5.354539671339808,5.958728131899989-5.501180757730253,3.879871209361227-11.600086169679344,5.573144961108483-18.343190675790538,5.903239378467333-4.339618901929498.212474214828035-8.496553906248664.32236250369715-12.562089434390145-1.3302113136142-1.598025802819393-1.398924093991809-3.332985908120463-2.711232345605822-3.432634808308649-5.119677429256626,3.78200999631008-5.229274237251957,9.153447372078517-7.462677386522046,15.352933627529637-8.13902039801178,5.838874055649285.374154052378799,11.430288401648795,1.549573681690163,16.230517402909754,5.170103620170266,1.694272918210117,1.277913508680285,2.93847475019902.201873515734405,4.286762759738849-.664100814854464,1.186797192880476-.762268504431631,1.992563806841645-2.388302221263075,3.822240799650899-1.779061174800518Z" fill="#402e50" stroke-width="0"/>
        <path d="M145.162237873330014,226.709767591864875c-2.085336269430627.586812360390468-3.214652120050232,2.606866852211169-5.15730518573946,3.427876422971167-1.041421708499911.440105435016449-1.951573642299991.8184629483967-2.995626268921114-.077365159957481-4.66244712894877-4.000498267207149-10.3495103057503-5.000630504559012-16.220055092950133-5.423845390079805-3.441793164689443-2.936178873551398-6.056526920359829-6.361247875487607-6.532147826579603-11.050837607073845.670025045499642-.338102470801459,1.340050090990189-.676204941604738,2.010067466180772-1.014307412404378,1.636745554049412-.577791794446966,2.672698327789476.245856445257232,3.520191456560497,1.50914988702425,7.094021427459666,6.110236821117724,15.063908479689417,7.751933799561812,23.880214816548687,4.481809892913589,2.056864059341024-.762897489474199,2.786180641491228.063803628843743,3.077031324350173,1.807887098964784.176095096850986,1.055973836051635.125578400800805,2.149732797814067.176900479949836,3.226432457997362-.304404129859904,1.197050578255585-.999664512439267,2.173312066273866-1.759271169399653,3.113199809644357Z" fill="#3e3349" stroke-width="0"/>
        <path d="M113.752181988769735,179.895270144857932c-1.00550929263045,2.484337498146488-3.560199820749403,3.356647702432383-5.364606960059973,4.977327375872846-6.090598460568799,5.470436306355623-9.460359695020088,12.332340932811348-11.206460933179187,20.154874467871196-1.176331047759959,5.269912807292712.102103401059139,10.216742079259348,1.995605086818614,15.081327721933121,1.479546278760608,1.687444134300677,1.782868894180865,3.71854421707576,1.713256948391063,5.859348495534505-1.243055119870405.814320851794037-1.990431459209503-.181255079291077-2.783384811600627-.817926009947769-2.346859502049483-1.884331793009551-3.604442198939068-4.560770527117711-5.056590111738842-7.094889890036939-2.01356896507059-5.983519347148103-1.031450298700292-11.881864915179904.535660298619405-17.754207321182548,1.466061864599396-5.493678070650276,4.189591371368806-10.351528971064909,7.609838620599476-14.84803563638161,3.681195208200734-2.9921738832345,7.820779959491119-4.948670203792062,12.556681862150072-5.557819203662802Z" fill="#474449" stroke-width="0"/>
        <path d="M101.195500126619663,185.453089348520734c-.319633540730138,2.332230506086489-2.100638548310599,3.888723023217608-3.119436662049338,5.851217713307051-4.392459703491113,8.461229490721962-6.976934065620298,17.204673830250613-4.426795869580019,26.805225345409781.886910878680283,2.511061691810028,1.713272289009183,5.041499191082039,2.250620056978732,7.653535993502373.212513753511303,1.033023552628947.671328999080288,2.123085309644011-.333413262029353,3.035128959156282-10.835378753108671-12.149076169611362-7.915282078169184-34.634647033713918,5.629025736679978-43.345108011375487Z" fill="#5a585c" stroke-width="0"/>
        <path d="M95.566474389939685,228.798197359896221c.165521567310861-2.716617071193468-1.090584593899621-5.154317629769139-1.561844925920013-7.748466711289439-.178756696219352-.983993401681801-.373126319080257-1.942229098911412-.355407890920105-2.940274946860882,1.984421767230742,2.992802868275248,3.455764643860675,6.434240822356514,7.02918425290045,8.037109480386789,2.174400134619646,1.596839606301728,3.456608378530291,3.938750345569133,5.036831379720752,6.03179778426238.493243455448464,1.849246700639924,2.080573003690006,2.967183233708056,3.019929662699724,4.518245001952891-1.281878420360954.780570434997571-2.329793050690569-.103813213840112-3.437371227961194-.498462973873757-1.459660986549352-.520078581726921-2.760814909059263-1.383214809084166-4.184904808769716-1.983650064981703-2.217254185768979-1.428102863419554-4.106694439618877-3.191930327369846-5.546416441749898-5.416297569596281Z" fill="#4d4456" stroke-width="0"/>
        <path d="M101.112890831689583,234.214494929492503c2.741639121000844.210326461034128,4.947249768260008,2.066691431396976,7.622160982000423,2.482205085449095,8.834346918260053,2.584944422394983,17.437732974900428,1.503964595718571,25.894600670200816-1.672624633107262,1.774297316909724-.666478685127004,3.102381716158561-2.334040755713431,5.178038047788505-2.355533634772655-4.628275874649262,4.784228968501338-10.460936974968718,6.91303650789996-16.914786223769624,7.672129404935731-2.238819277010407-.000628985041658-4.477684575909734-.00127331117983-6.716588226388922-.001902296219669-5.6023522154901-.611833692115397-10.709765835890721-2.441014235857438-15.063425249831198-6.124273926285241Z" fill="#523c64" stroke-width="0"/>
        <path d="M119.787362421880971,214.080438332344784c-1.185838403480375-.474024603896396-2.202899190830067-1.341763160817209-3.520206797200444-1.50910386373107-.000391186071283-4.168253179781459.00869046714979-8.336506359562918-.003275224589743-12.504682833850893-.022335957930409-7.779777893418213,3.733449230639962-13.21853483128325,10.429902879579458-16.819458845822737,1.168725930210712-.628478784035906,2.58722033496997-1.02710188859237,1.631384003709172-2.838548122419525,3.307915482821045,1.156289279426346,6.562621988950923,2.415517330080547,9.165428404459817,4.889254129131587.421944040301241.401031657027488.858193218500674.812464578866638,1.171955132931544,1.294512577305795.298244866729874.458192590200269.82619266338952,1.008263019579317.392282931339651,1.567538108083681-.354713727390845.457195418795891-.906661940380218.042080633304067-1.386271410510744-.028043528138369-5.582509110028695-.81634587679946-10.243652285389544.633142477990987-13.37295680797979,5.625688223619363-1.498250342419851,2.390357928466983-1.624749181040897,5.020343816184322-1.654256883699418,7.813436263619224-.045577013041111,4.313794181665799-.908464464460849,8.566868295294626-2.853986228039503,12.509407892202944Z" fill="#434046" stroke-width="0"/>
        <path d="M100.09274274245945,207.643957709602546c1.047159104280581-7.06977651172383,3.477709415710706-13.494674605068212,8.781095754840862-18.576751001794037.179815199719087-.172295877742727.366978561429278-.373831889308349.58988559206955-.458069861411786,1.117146895510814-.422156349721263,2.24463721110078-1.822430460386386,3.392242928361156-.841505278409386,1.056010648038864.902639556104987-.00066731743027,2.220485944293614-.427516524310704,3.212916950176805-1.208983579659616,2.810964827236603-1.835560124591211,5.709910854622649-1.677766399860047,8.749366003567047.186733824049952,3.596889305623336-.281105547379411,7.152971289122434-.542348813491117,10.720835236303174-.185713672130078,2.536374504406922-4.127515510279409,5.752421038685497-6.760055902739623,5.570705726440792-1.057537040780517-.072992946872546-1.571409808999306-.913761852552852-1.905198916469089-1.784660675773921-.80676375494113-2.104952131163373-1.50659181023002-4.243731384614875-1.450337718400988-6.592837099098688Z" fill="#332f36" stroke-width="0"/>
        <path d="M105.715241040879846,232.178362966395071c-2.33890538516971-1.459444727744994-3.533836947339296-3.874179661799644-5.036777687519134-6.031782443164047-.500633804160316-2.012552694637634-1.001210080950841-4.025074707073145-1.501767181951436-6.037688766104111,4.456226869071543-3.493628371328668,9.680428709019907-5.211631973928888,15.080368976150567-6.523357263797152,1.32606710635082,4.18696932000239,3.910303688700878,7.630110136025905,6.532201518790316,11.050944994763995-5.048785565999424.538119713613924-9.601136825429421,2.173956392412947-13.219021251799859,5.919961175881326-.568554445440896.588714656611046-1.234234257361095,1.083633836724402-1.855004373670454,1.621922302419989Z" fill="#3b2f46" stroke-width="0"/>
      </g>
    </g>
  </a>
</svg>