<?xml version="1.0" encoding="UTF-8"?>
<svg id="Pattern" xmlns="http://www.w3.org/2000/svg" xmlns:xlink="http://www.w3.org/1999/xlink" viewBox="0 0 280 280">
  <defs>
    <style>
      .cls-1 {
        fill: #181818;
      }

      .cls-2 {
        fill: #ee994b;
      }

      .cls-3 {
        fill: #fbb64b;
      }

      .cls-4 {
        fill: #de925b;
      }

      .cls-5 {
        fill: #f8b138;
      }

      .cls-6 {
        fill: #fccc5f;
      }

      .cls-7 {
        fill: #fce26d;
      }

      .cls-8 {
        fill: #fbd864;
      }

      .cls-9 {
        fill: #cb7a79;
      }

      .cls-10 {
        fill: #fff;
      }

      .cls-11 {
        fill: #e79354;
      }

      .cls-12 {
        fill: #fbce56;
      }

      .cls-13 {
        fill: #db865a;
      }

      .cls-14 {
        fill: #d07e5c;
      }

      .cls-15 {
        fill: #fde976;
      }

      .cls-16 {
        fill: #e09646;
      }

      .cls-17 {
        fill: #fbbb4d;
      }

      .cls-18 {
        fill: #f8c251;
      }

      .cls-19 {
        fill: #ea9e49;
      }

      .cls-20 {
        fill: #ebae43;
      }

      .cls-21 {
        fill: #c97793;
      }

      .cls-22 {
        fill: #fac249;
      }

      .cls-23 {
        fill: #f5a53f;
      }

      .cls-24 {
        fill: #d07e68;
      }

      .cls-25 {
        fill: #e08d53;
      }

      .cls-26 {
        fill: #faaf3e;
      }

      .cls-27 {
        fill: none;
        stroke: url(#linear-gradient);
        stroke-linecap: round;
        stroke-linejoin: round;
        stroke-width: 41.625417947769201px;
      }

      .cls-28 {
        fill: #533152;
      }

      .cls-29 {
        fill: #dd8965;
      }

      .cls-30 {
        fill: #f8cd5a;
      }

      .cls-31 {
        fill: #fbb040;
      }

      .cls-32 {
        fill: #d58276;
      }

      .cls-33 {
        fill: #e2a039;
      }

      .cls-34 {
        fill: #d17d86;
      }

      .cls-35 {
        fill: #fbba41;
      }

      .cls-36 {
        fill: #faaf4b;
      }
    </style>
    <linearGradient id="linear-gradient" x1="710.587964831309364" y1="322.699299543065536" x2="691.148264062913313" y2="184.378641283410929" gradientTransform="translate(-525.099340524567197 -300.969486286007509) rotate(12.984226099107799)" gradientUnits="userSpaceOnUse">
      <stop offset="0" stop-color="#ad3e65"/>
      <stop offset=".190105825728805" stop-color="#9e3a51"/>
      <stop offset=".484505563071855" stop-color="#8b373a"/>
      <stop offset=".761190209252379" stop-color="#80342c"/>
      <stop offset="1" stop-color="#7d3428"/>
    </linearGradient>
  </defs>
  <a xlink:href="https://www.notion.so/dmmnotes/anger-bb2d95b14cb3441fbdead904882a39b2?pvs=4">
    <g>
      <g>
        <path class="cls-27" d="M117.007657289537747,35.191465125931245c.302349042831338,1.323141886809026,1.584124363012961.802056002051359,2.351805219079324,1.249001355336077-.132720762354438,2.323352132832952-2.171277066734547,2.251671462242484-3.628730673020982,2.773163241236944-11.252662485307155,4.026323866072744-15.464040535918684,15.990142929610556-9.303202885523206,26.481769829149925.957559025426235,1.630681768695467,2.463896338147606,2.592775098206403,3.922895696736305,3.670185427414253,5.366099010288963,3.962655887345136,11.176871074356313,7.298305527013326,16.314118279171453,11.589569557293544-.137522901735792,1.439063198274198-1.044019794453561,1.891462032031995-2.348772395067499,1.841645313554181-10.219828160856196-4.738350701906711-20.876936158349054-7.480305348832189-32.227639734455806-7.346438776053219-3.190757816913901.03762910297246-5.304193502501221-2.125926182563489-7.132531979095802-4.506829421632574-2.832402303341951-11.440269718425952,1.925320631935392-29.28017495892982,12.857905041148115-35.39863158191838,1.003512030465572-.561616306466931,1.83745153198106-1.215066055966417,2.501358282228466-2.12382992251969,5.56426292699507.590131434260002,11.128532221795467,1.180263543874389,16.692795148799632,1.770394978138938Z"/>
        <path class="cls-27" d="M100.314862140738114,33.421070147792307c-.086274519791914,1.302054439168387-.471644833503888,2.318172075392795-1.734737785582183,3.076522399640453-8.035012789025131,4.824113598087933-11.417090694560102,12.481267754516921-12.648179286064988,21.33775074155983-.590442088870986,4.24767356223856-1.149017479987378,8.520168640183329-.538954367915721,12.829039422706046.408055208032238,3.046213300731324.430926680086486,5.950897155312305-2.810078472726673,7.657806333415465-1.901603552001689-.028351272140753-2.425979982222998-1.570503391715647-3.166384376629139-2.875969425171206-.1587598495571-.371774649227518-.272750149013518-.763641399321386-.387500243279646-1.155994417724287-.616641344402524-2.108384730866419-1.178115821468964-4.853535566015125-4.040058641376163-4.017019394617819-3.091910872683002.903730989692122-2.103707037027561,3.573850399040566-1.291843711362162,5.811943951232934.218608869670788,1.916298271537926,2.509698033836685,3.508244191188169.905856137509545,5.713773725079591-2.183589093292539.484338003362609-4.367533350596204.982589444422956-6.50329792953562-.190831800238811-.051541299630117-14.688684495095913,3.761730913103747-28.077837047538196,13.091001552853413-39.702229574055309,2.435710744786775-3.034931747597511,5.438797022581639-5.1648676437635,8.821127534933112-6.898303864115405,2.929852838722582-1.837485029747768,6.595032291426833.48173943724305,9.468409831739336-1.675007846618428l.834639757436889.088519748906947Z"/>
        <path class="cls-27" d="M33.189734126277472,85.384319747683548c2.220440768180197-3.606414180004322,2.000053253579608-8.148107622334464,4.46776812137432-11.659770957258843,1.86427187130721,1.961332159403355,1.403539002903926,4.389219072410015,1.356754991338676,6.736749160957515-.464959023967822,23.330956697079273,6.04466499436603,44.380189594474359,20.598910372576938,62.776775294785693,4.44154014920241,5.614106169672596,10.375134655625516,9.246414810215356,16.668482466422574,12.411521462732708,1.33273254195592.670271139351826,3.434517680681893.81253318672043,3.161711816363095,3.177433356912843-1.652900576527827.988347952988079-3.232804062126888.283014670409102-4.746563176107884-.314989491446795-4.862979391453337-1.921078646840215-9.701041086967962-3.908159306191919-14.175811529541534-6.658307972524199-12.846921399624989-8.204445285417023-18.428692738683822-21.29082860915787-23.195585845094683-34.846488293844232-2.831016809430366-8.05058691593058-4.049664469501295-16.470525104420631-4.843830156914919-24.945757843732281l.708162939583417-6.677164716582411Z"/>
        <path class="cls-27" d="M32.481571186694055,92.061484464265959c2.337112472647277,3.983499605580619,1.85952302548867,8.590707436525918,2.785145635973095,12.884079941073651,2.936636369637199,13.621205988259135,7.606481858050756,26.436974989388546,16.239670488903357,37.575268588265317,2.597587739188384,3.351356462147123,5.93514792374117,5.842962144043668,9.3521155667313,8.254910545961138.29670056298346.415169386552407.23688940032298.770286135800234-.177796383166424,1.066489794942754-2.459256370329967.561497535250055-4.268711467773755-.927935488589355-6.062033242778853-2.12300943163882-5.638425009614366-3.757392619962047-11.084688774935785-7.785481903998516-16.234093218028647-12.200884233437137-4.064459456771147-7.387519412451184-5.744746232534453-15.432050538153817-6.653390347895765-23.714140793653314-.18543683849748-1.690212829566008.306322305015783-3.572222896996209-1.020025848703881-5.049802620056653.590135557868052-5.564301807871743,1.180271791097766-11.128609983584283,1.770407348965819-16.692911791456936Z"/>
        <path class="cls-27" d="M57.174186057192856,159.736916526781897c-2.493040936080433-1.058778180388799-4.285585078765507-2.979883960505504-6.060230224571569-4.923020478750004,2.138472671216732-1.454917431339709,4.020865854517979-.158338181774525,5.843112477641625.680249371102946,5.913951721311605,2.721526416155939,11.884353265213576,5.283017414608366,18.062761208901065,7.356923853001717,2.502392384008999.84000383757666,5.006315260157862,1.60082288155354,7.646036217021901,1.857692977091574,9.602817583439901,2.310284542978479,19.082892086449647,5.268485294832317,29.161539647246173,4.778817907971643,2.023239456439114-.098288368690191,4.311036814222462.032560393941822,5.222442542206409,2.562773637078863-3.88939056840718,1.828281231501023-8.302373569202246.385071569718093-12.232652360155043,1.957838447464383l-5.007838544637707-.531118493442591c-1.896483638616701-1.806830185158105-4.486919302105889-1.457245923350456-6.71202707298653-1.827820000847169-11.503551734333087-1.915898844436015-22.396796692934004-5.557486674734719-32.818852346577842-10.714986593508002-.996935356122776-.493349686162219-2.128542276135704-.64473809330957-3.104291544088483-1.19735062716336Z"/>
        <path class="cls-27" d="M57.174186057192856,159.736916526781897c2.738479964596991-.137247495967131,5.206661346886904.932339751311702,7.556022301900157,2.046494798221829,10.210273727938329,4.842068876284429,21.140851873255087,7.226639719984632,32.061315595712585,9.670694602629737,1.284975671800566.287595817330839,2.96612904354879-.07883277543533,3.017833066040112,2.022967820666963-5.56426292699507-.590131434260002-11.128532221793648-1.180263543876208-16.692795148790537-1.77039497813621-5.231417955532379-2.36527404912249-11.010025876335931-3.243573196948091-16.11360679434074-5.971521483294964-3.393286402391823-1.81377324422283-6.998233852702469-3.267129759346972-9.828769020521577-5.998240760087356Z"/>
        <path class="cls-27" d="M169.537304949057216,89.690259151422651c1.130545039932258,3.919349281736686,1.471510807303275,7.908065803475438,1.051003679252972,11.963676226750067-5.194431323467143,2.715788541770962-9.183988930621126-.184139484000298-13.23042749650449-2.826919137579353-7.960828155191848-5.355525182911151-14.70398249446589-12.15165268493547-21.824683547256427-18.503425787634114-.468429674991057-3.130350488781914-2.490670667599261-4.606380174875994-5.446460687502622-5.0918199822936-3.509347510373118-2.334687597851371-6.464948741306216-5.336718741818913-9.065648646832415-8.549122818587421-3.536877968239423-4.368789198016202-4.820947155385511-9.682107816648568-2.226299372399808-14.816088164483517,2.817507597463191-5.574943105679267,7.789438036385036-8.488853567117985,14.266186471102628-8.443895129445991,2.526617510698998.017539712535836,4.824518225790598,1.228958592900199,7.337688975398123,1.214148245590877,5.528284054526011,2.834529172610928,10.157201384457949,6.757626997946318,14.032063838218164,11.59339957879547.582115896240794,2.59339167097005-1.249793660639625,1.594943396550661-2.213717078404443,1.337929903625081-2.031262535787391-.541605594793509-3.727541678161288-1.89576152900645-5.694306419634813-2.639072015324018-4.092644286614814-1.546761449641963-7.877370418864302-1.396176711278713-11.348674638409648,1.657113928890794-4.595391287113671,4.042016975605293-4.925928538237713,6.958968921722771-1.084873501829861,11.759226682015651,5.710999707240262,7.137161731761807,11.928660866737118,13.604974134312215,20.31541254669537,17.79528367736475,4.855320921447856,2.425893366264063,9.726682726432045,3.899326388627742,15.132735878107269,3.549564792315323Z"/>
        <path class="cls-27" d="M140.398664324315178,44.6368126037396c-1.751017713933834,1.00719720539746-3.581422537385151.321275799333307-5.282890099999349.016889340881789-5.663427640974987-1.013164876533665-10.045228474024043,1.255375786841796-13.832053249479941,5.08597389231636-3.915190996694946,3.960435922454963-3.407149366246813,12.405382644260499,1.061881739922683,17.009917362106535,2.690567962306886,2.772154573428452,5.597275293472194,5.334532530132492,8.406852520078246,7.991182843475144-.058124351544393,2.308395680235662-1.71733238005254,3.795043229159091-2.845235100934588,5.558179276807095-.443588212538089.426795920981931-.952216847648742.688221756082385-1.589103899052134.612835100051598-6.092461393744088-2.516980207372399-10.752008193852816-7.269247736920079-16.372144725959515-10.494056441149041-3.147850990109873-1.806214606187496-5.05907863174798-4.275542527156176-5.869807958697493-7.676087542284222-1.296724298967092-5.438985968815359-1.798472017040694-11.007640645387255.181784990834785-16.290324127257918,1.363948112271828-3.638561483065132,4.855322454241104-5.527297498618282,8.284616345139511-7.229592568555745,2.21490586697837-1.099473109205064,4.97165953989861-.825020334781584,6.816921875437401-2.781309787587816,7.62352020030994,1.165106803215167,14.285943400678661,4.797305315142694,21.039177562710393,8.19639265119622Z"/>
        <path class="cls-27" d="M169.537304949057216,89.690259151422651c-4.189745046678581,2.352268328560967-8.060303993364869.703843631928976-11.97369896568307-.891748491657381-11.388612131981063-4.643421781770485-19.427675588591228-13.186773139411343-26.65447438004594-22.709745015900808-1.282715151546654-1.690268035043118-1.008452030706394-3.465266326614255-.379514854672379-5.163067004443292,2.372446933217361-6.404328652365621,9.715422178123845-9.68106193643689,16.046290996189782-7.163724027156604,1.669451338329964.663821869035019,3.135794145922773,1.874541698066423,4.828097741150486,2.429632357337141.852480365103474.279622739876686,2.042252466493665,2.189650381907086,3.026759724974909.038377321380722,8.932337335309057,9.394195819641936,13.448254722488855,20.78213738991235,15.106539738086212,33.460274860440222Z"/>
        <path class="cls-27" d="M157.639853529442917,97.743808104016352c3.754567814317852,3.163216841129724,8.08845567424396,4.408002761693751,12.948519452187611,3.910127659836689.059577336449365.265210954768918.096128350085564.533569254326721.109683914939524.80502665736185-.565615160572634,4.741968005282615-1.1313241977914,9.483971130518512-1.697033235002891,14.225974255755318-5.52729613862175,1.657363902399084-11.214138718703907-1.658032922829989-13.508611136701802-7.871350771939433.30363688736179-3.769928887999413-.468431577481169-7.749937458841487,2.147441004577558-11.069777801014425Z"/>
        <path class="cls-27" d="M156.40226181165599,109.420165251764047c2.928700823071267,4.626586040433722,6.999621152732288,7.272045880066798,12.599380587254927,7.264766212758332-.010635135231496.861174665430553-.020652208469983,1.722350486261348-.030537969838406,2.583623946758962-1.749143274257221,6.060979511747973-2.562107144227411,12.432552480125196-5.95532525696035,17.947936798165756-.390849400280786.212771238337155-.808594326235834.310102363439-1.253378620693184.296749764830565-7.075714281218097-.460958717970243-10.693710014093085-4.438791783089073-11.674577998635868-11.275675787896944-.355279872765095-2.476460810627941-1.41443552002238-4.771301405619852-2.664384196832543-6.952790274186555,1.167859733848672-4.70181205004792,1.940662611272273-9.464963566777442,2.178572781698676-14.310608738033807,4.105503504326407-1.33513808166299,4.982057420789715,2.275720733661728,6.800250674006747,4.44599807760369Z"/>
        <path class="cls-27" d="M148.983154169738555,156.785291917068207c-2.157650884097166,2.413780720743489-4.626558387881232,4.43145457168157-7.519887054391802,5.908984778528065-4.558771676303877,1.623514900861665-9.236024469610129,2.683541830077047-14.08028726908924,2.969347511510023-6.53828105496541-.313955498660107-13.083894790701379-.255676111086359-19.60402663991772-1.119749387574302-9.100291363609358-1.205976718772035-17.655669758516524-3.950531020875133-25.714057019393294-8.28758229153209-1.960042837088622-1.05489885406314-3.969887694007411-2.142588985902876-4.643598026488689-4.549519781902745.756871182817122-2.699852198523331,2.337749921598515-4.473777744650761,5.299673184941639-4.691582390694748,13.790943465646706,11.662155505285227,29.850831595873387,14.406520395377811,47.21835645380088,11.987905094911184,4.403225303803993-.368062449171703,8.621521207140177-1.605077988843732,12.881717029891661-2.671163748148501,2.058227939884091-.515074781956173,4.249736024174126-1.555924894073542,6.162109340646566.453360214903114Z"/>
        <path class="cls-27" d="M148.983154169738555,156.785291917068207c-4.579230921906856-.743987132232178-8.554778852758318,1.828110480352734-12.907961761045954,2.365738224373672-2.036076754297028.251448330500352-4.001171982043161,1.109333856957164-6.113840761732718.638393342689596.02428103492457-1.981398872968384,1.837281500393146-2.195125101248777,3.023255361700649-2.939444554907823,5.364600088794759-3.366795072333844,10.678834279866351-6.782436862177747,14.888627548034492-11.623551548605064,3.066860649674709-2.385262888394209,6.436209350315039-4.342378807280511,9.487773604441827-6.763013239195971,1.250762002828196-.992174190047081,2.695582829326668-2.024182080072933,4.542321574601374-1.449101494275055.370556878466232.067331311066482.74110034597652.134667639265899,1.112059360521016.202093115587559-3.38322392946975,7.450898830577898-7.654596353859233,14.265103567266124-14.032234926520687,19.568886154333086Z"/>
        <path class="cls-27" d="M60.764798469492234,151.6181333566592c.031240881326084-.280783082103881.06248494654028-.561565826535116.093715793685988-.842375730706408,5.901702459126682,3.307210475354623,11.882774876123221,6.427284987540588,18.572602712714797,7.876016010887724,1.756824485360994-.964498631670722,3.205305727498853.246754524708194,4.769875936739481.665850032275557,14.312134192419762,5.116475594077201,29.088382925932819,6.933020021958328,44.217056048164523,6.249920425298114,1.905645041235402-.086045455576823,3.951076114961324-.726179603374476,5.213039096568536,1.46091079339385-1.814717829051006,1.661793119946196-4.260482876865353,1.73897962754836-6.412504233299842,2.553780893731528-4.157220702285485-.067389299931165-8.305507369806946.193976433359239-12.471892221843518.156164039188297-14.395248733080734-.130620880300739-27.98295169386256-3.69472566622062-41.312373563328947-8.672693592550786-2.946226724081498-2.499196357423898-6.694018810483612-3.69415404513984-9.787846560193429-5.948695569981282-1.234483526028271-.899592461388238-3.11535741649277-1.356278310306152-2.881673009207589-3.498877301536595Z"/>
        <path class="cls-27" d="M73.412273136082149,159.708903570484836c6.541055235191379,2.937096188673422,13.449460743015152,4.72397621345408,20.39012029510377,6.353792620135209,10.00751532499271,2.34999889136634,20.144797775639745,3.322951566512529,30.428852305683904,2.457792631650591,1.055579797735845-.088804744365007,2.266664510558257-.057506011135047,2.987276724888943,1.061779088144249-3.210402362083187,1.562864900389286-6.611168737270418,2.341291447547519-10.169452758973421,2.467591221650764-1.756296112815107-1.425118694207413-3.916841437712719-1.652895414992599-5.974627411351321-1.505557483462326-10.080109086416996.721783959680579-19.471400909033036-2.478333130233295-29.012037344060445-4.859554084266165-5.749616018518282-1.595890862721717-11.289130338522227-3.797604500359739-16.697338766056419-6.262186226338599-1.590095572846622-.724625042147636-4.367414036334594-.775485111738817-4.113847837532376-3.762649505122681,1.562791608646876-.887326149549153,2.895136370922046-.185104864536697,4.27722475668088.539559720718898,2.550401733078616,1.337238298789089,5.149191528458687,2.579616465977779,7.883830035616484,3.509432016890059Z"/>
        <path class="cls-27" d="M133.63108805736556,167.028454887808039c-3.665008994690652-1.624293509589734-7.423178876493694-.144263858020167-11.113430386547407-.164613239135178-13.184738601567005-.072775207605446-25.994921240942858-1.997586860133197-38.444267203441996-6.322793930965418-.226047048172404-.07852913464194-.368264786640793-.398353723974651-.549597492430621-.605592086592878.583691320429352-.564809894285645,1.308975324249332-.74889261642511,2.090083624058025-.787022105453616,5.090554296777555.785324962895174,9.905438974490608,2.659214450931358,14.911821595385845,3.82585696757269,6.83743520189455,1.593329770692435,13.74269805732547,1.996485775675865,20.662549563869106,1.772349294856213,2.180163781302326-.070621010171635,4.407585108090643.749480057034816,6.562548059926485-.120440163932471,4.642234461525732-.136766714846999,9.000142626468005-2.291745025730052,13.712400865631935-1.931866003679716-2.261248764547418,2.076080592595645-4.939845937660721,3.398153099562478-7.832108626451372,4.334121267330374Z"/>
        <path class="cls-27" d="M90.011812551561889,35.007558245503787c-.328881508374252.59217525776603-.512200986468088,1.381294490138316-1.007941513937112,1.747702657685295-12.174827090813778,8.998515544129077-17.808329780245913,21.395310613860602-19.093346407644276,36.163422804545917-.247294125751068,2.842081914621303.162856061058847,5.897716182178556-1.698527990734874,8.447240789028911-3.523469845491491,2.671079849700618-6.74511518755935,5.973102046695203-11.72707081021872,5.605966446319144-.957099848972575-1.301663233361069-1.246433716520187-2.84884374341982-1.15004282449263-4.353782306515313.646688418126359-10.096598892323527.975413451153145-20.261268282120909,5.303413862966408-29.696595913120291,3.553465196615434-6.27936749440596,8.946434176896219-10.535870038667781,15.207342203262669-13.884677365220341,1.56672012582203-.837998528710159,3.418192624176299-1.256305784334472,4.58752041743719-2.768382192947684,3.093439899757868-1.175767514336258,6.245209964821697-1.908414336952774,9.578653063361344-1.260894919775637Z"/>
        <path class="cls-27" d="M85.189691941233832,160.103507710707163c-.55532332565781-.056037042179923-1.110640283528483-.112073409010918-1.665934471633591-.168081603068458-1.364135990823343-.427845885883471-2.728308837697114-.855708559559389-4.092560413784668-1.283618219860728-3.274625980518977-1.794233800183974-6.610858290299802-3.485337284619163-9.812612585932584-5.401185637342678-11.445200742487941-6.848498221063892-17.947929481628307-17.78604479014939-23.127141062292139-29.427842352737571-6.352172885415712-14.27836373280843-9.613901573746261-29.323678739171555-8.423939072381472-45.117994277615253.123553756919137-1.639920290660484-.260804199271661-3.3181120037234-.409749568709231-4.979392235833075,1.342583700887189-4.597037491946139,3.602403561819301-8.711699041129577,6.546074026329734-12.467254327460068,1.623886435094391.891929045617871,1.656007991974548,2.461468910830263,1.502360440315897,3.962511519553118-.280258518150731,2.737962682847865-.012501504883403,5.49084088084328-.330359049417893,8.219377777557384-4.585954000041966,19.608021235559136-2.096974110418159,38.193909148491002,7.63338737299091,55.907725077385294,6.826075558261437,12.42668294735995,16.39646015082144,21.761343187095008,29.211876837964155,27.820100852480209,1.246001443470959.589079419582049,3.135216944398053.802207786973668,2.968597546550882,2.935653426941826Z"/>
        <path class="cls-27" d="M44.525747166211659,73.929558000750148c-1.094332451490118-4.198709991427677.917607716728526-8.476351592379615-.321936994298085-12.671395160977227,3.304867868491783-5.732462749221668,7.742450947933321-10.409226604868309,13.185877404484927-14.148575352761327,1.478755233543779,1.723070758630456.536378505325047,3.43191305790242-.108054522639577,5.082440221568504-.862221831155694,2.208323710926379-1.535715744894333,4.476607434478865-2.30355604001852,6.712218098942685-.858018578936026,2.740154322561466-1.730494711446227,5.47735863136495-3.075261085778038,8.033207732993105-2.858173297656322,2.552641133221186-3.193809262105788,7.046855382554895-6.878486494739263,8.969845783745768-1.147930422705031-.411789809788388-1.217757900350989-1.09560037715346-.498582267011443-1.977741323511509Z"/>
        <path class="cls-27" d="M53.731600507220719,58.861842859852914c.906596428747434-4.014488977265501,3.388053231839876-7.538737745719118,3.658087649115259-11.751820647305976,6.737481136504357-5.61988347697843,14.367704042366313-9.341678484957811,23.043418158769782-10.841401625992148.660326836426975,2.012539676970846-1.100121671694069,2.054865166291165-2.164525701369712,2.58446135534723-6.430594403253053,3.19954711792343-12.132201198521216,7.27586943516053-16.238490584726605,13.306206872317489-1.524817717534461,1.792616549315426-3.13365130861348,3.508980253756818-4.844107667504431,5.122739307548727-.955559088703012.901535244589468-1.740275592143007,2.291215978157197-3.454381854284293,1.579814738084679Z"/>
        <path class="cls-27" d="M73.412273136082149,159.708903570484836c-4.519312527969305.120375134725691-7.829261688573752-3.623251300170523-12.245369272157404-3.832629839712354-1.828486412601706.513656951960911-3.210613336650567-.629435414110048-4.567477638556738-1.435923485169951-4.366819264663718-2.595601803668615-8.80144738711715-5.091126597595576-12.942671145061468-8.052119623493127-2.198409727669059-2.694373532365717-4.129518257754171-5.547618852884625-5.271897805614572-8.869848670341526,5.277455992267278,1.520366009077406,8.537849903535971,6.040758505672784,12.997441688732579,8.808280911615839,3.065784631702627,1.902548226682484,5.909346419281064,4.129928997543175,9.382571288317195,5.291400832711588,3.574964883600842,3.698684006948497,8.675252372770046,5.013000276230741,12.647402884340408,8.09083987438953Z"/>
        <path class="cls-27" d="M43.656755080306539,146.388230622109404c6.583927156680147,1.783607947197197,11.460670405635028,6.717846481597917,17.510094174882397,9.488011559132246,5.883590553314207,4.041797183806011,12.531482137954299,6.419210855229721,19.186787022628778,8.768832407203263.671951845328294.237236311973902,1.325846910360269.381400471869711,1.708830996805773,1.039692465095868-8.90489734755829-1.413803297791674-16.90564733431529-5.368535159989733-25.048799047601278-8.920319579093302-1.908443774400439-.832403469633391-3.709852327048793-1.974179157195977-5.899590682571215-1.95049988116898-3.009541622199322-2.345105000348667-5.566645470536969-5.090489796596557-7.457322464144454-8.425716971169095Z"/>
        <path class="cls-27" d="M82.09553766514,77.907986330339554c3.201404729135902-1.457535761661347,1.458486054993045-5.165858796182874,3.297450189818846-7.243607140235326,2.974287871084016,2.605194265077444,6.169680009388685,3.756289674668551,10.383926004082241,3.805849386620139,9.616525244873628.113098209766576,18.964424461413728,2.152596836920566,27.502338450238312,6.939292019287677.56661144966165.317665599745851.994982825446641.881886795436913,1.48765050990005,1.33142722714274-1.108189158112509,3.258738862597056-4.845241256947702,5.503038650519557-9.598574804589589,5.545935374731016-2.403103564052799.021688802108656-4.779828330820237-.150395901139746-6.727766704545502,1.625439343270955-3.579167341287757,1.793027390328461-7.170141223999963,3.516138571456395-11.123373631326103.945410739087492-1.043582227528532-3.050908133402118-3.248267332404794-4.387206778074869-6.352215634578897-5.200271560267538-4.072522517453763-1.0667851200933-8.289403538270562-2.465116322331596-8.869434378999358-7.749475389637155Z"/>
        <path class="cls-27" d="M107.757847694754673,89.111895295650356c1.512736933769702-1.749367281316154,3.459324206061865-1.909490339427066,5.630956161705399-1.797298216611125,4.45370632356753.230092681140377,8.382553312731034-1.067364965477282,11.377993411613716-4.573686208231265.75710796868043-.406307844722505,1.403652662953391-.906316162591793,1.551349213552385-1.8292234947412.338175229215267-.26001141859706.67638070520843-.520125880503656,1.014586518867873-.780243526332924,3.203440981376843-1.315017238160181,5.766093844520583-.889831092012173,7.188855457407044,2.642189266823152-.049367374071153,2.010162879745621-1.250116568549856,3.486206396360103-2.335115334961301,5.018456150661223-6.111149507780283,6.16826205212783-13.229613504632653,9.431690943990361-22.102822183076569,7.623501900383417-3.670238522587169-1.03327361535321-3.683200114583087-3.416703762635734-2.325803245108546-6.303695871951277Z"/>
        <path class="cls-27" d="M57.638403023327555,87.21853968407413c3.269624088281489-2.411391057068613,6.597786310505398-4.717019548561439,10.573588743629443-5.852599605384057,2.176320003049113-.16847068765037,4.352635133811418-.336925793376395,6.528950264562809-.50538089910242.422226195991243.015879897493505.926891336144763.044617877141718,1.147458940047727.381490408821264,4.166725507726369,6.363826459933989,10.482062882012542,9.258998160410556,17.565648749083266,10.934077473667458,4.430552349373102,4.821504566776639,4.540209128019342,10.627933657208814,3.116081948151987,16.412479629832887-1.608921178492892,6.535139658857588-5.224807654059987,11.888285933889165-11.354044304080162,15.209364048782845-5.523006456834992,2.783096413220846-11.264413401893762,3.962713769929906-17.38434584735478,2.347497567212486-8.870565480036021-2.816837979306911-14.701650359553241-8.532086759691083-16.963521340749139-17.704874588483108-1.030004795953573-4.177089670100941.002765303244814-8.262689239841166.347283165101544-12.383470523261167,1.018089599159794-3.758305839752211,3.052650701334642-6.784803641823601,6.422899681607305-8.838583512086188Z"/>
        <path class="cls-27" d="M93.760218447236184,93.002720053676057c-8.335164958718451-.917246715895999-14.748053159879419-4.846478689521064-19.017698160600048-12.13928247275544-.809251341230265-1.483487695953045-1.85440786851359-2.873531233423819-1.788148289833771-4.687443541702123-.622896677254175-2.404078780278724,1.226882351580571-2.370505390964354,2.651344968382546-2.554366547077734,1.701525022837814-.219621497933076,3.248620020140152.357232484940141,4.603120500270961,1.416305871807708.628907093683665.956699019585358,1.257814187369149,1.913398039177082,1.886710571534422,2.870076604537644,2.237307854134997,4.306598110264531,5.972843048873983,6.485095083628948,10.596967532239432,7.222423116771097,3.180820544639573.507190601937509,5.266469002768645,1.806246442861266,4.967664286356012,5.407419986177047-.214528162885472,2.53908665029212-1.716947545424773,3.040413916102807-3.899961408349554,2.464866982241801Z"/>
        <path class="cls-27" d="M80.208837465455872,75.037933363948468c-2.350083451623505.813207082674126-5.30865647290193-2.252394127114712-7.254446702945643,1.13806588524676-1.184572012820354-1.373540215116918-1.214911219258283-2.9952149387791-.823808892988382-4.611644051174153.383849191184709-1.586443466379933,1.37922395224814-2.678073322385899,3.122162702729838-2.835447194529479,1.86108412842259-.168041857062235,3.254799853812074.591859500015744,3.908108793044448,2.340090707964919.476616896352425,1.275409461072741.707535899802679,2.642638499785789,1.047984100159738,3.968934652491953Z"/>
        <path class="cls-27" d="M131.760375151936387,86.989675034507854l2.07206376574868-3.619175629975871c1.003613984757976-.842176496184948.078155677607356-2.997631716032629,2.128796016091655-3.127017623602114,3.044248861933738.785859680277099,4.720692516684721,3.382474160461243,6.820440134888486,5.341000411671303,4.696071718164603,4.380253474959318,9.579269092413597,8.50419968931601,14.858185214345212,12.159262233011759-.412553663660219,3.89221533876389-.825100573754753,7.784366999124359-1.237629345392634,11.676469067466314-2.059896719236349-1.622921570269682-4.119837048097907-3.245796249922932-6.179763966016253-4.868675946714575-1.507575886913401-.556972925925038-1.777592890108281-2.017573854278453-2.381388652062014-3.242009293725459-2.997606650671514-6.078762326132164-7.122013793228689-10.906602147380909-14.01523427075881-12.708730211731563-.86121930819354-.225154053963706-2.027178385498701-.248360211840918-2.065468896844322-1.611123006399794Z"/>
        <path class="cls-27" d="M135.961234933776723,80.243481780929869c-.709602933256974,1.042359147578281-1.419206204191141,2.084721479077416-2.128799730548053,3.127052646724223-.867972287478551-3.685641385882263-4.129121399912037-2.568820948685243-6.499723332188296-3.239073500453742,1.044971910381719-1.857209339269502,1.750895253482668-3.929474977600876,3.419771246819437-5.390765640550853,4.139390861848369-.440511792519828,5.799419335036873,1.465889329875608,5.208751815916912,5.502786494280372Z"/>
        <path class="cls-27" d="M158.262753135248204,81.778911250787132c-8.596898149256958-.979727072456626-13.553605565872203-6.179104241491586-16.993175033021544-13.047062458217624-1.637305625328736-3.269283791376438,2.616809309292876-7.475357719198655,7.182145206959831-7.408977034497184,7.025162392688799.102147844056162,15.582620269209656,10.278632792992539,14.572234901634147,17.313123052287665-.455676555311584,3.172526134697364-2.429092979689813,3.756048188197383-4.761205075572434,3.142916440427143Z"/>
        <path class="cls-27" d="M131.760381519734437,86.989675709858602c9.935432109179601,1.878660783350824,15.538865531701958,8.311411740337462,18.462033158788472,17.561869169369857.582206703851625,5.187067324191048.021435005419335,10.20249226733813-2.246856258427215,14.961486745470211-.38377618911727,4.318507818741637-3.730708154465901,6.466323414482758-6.652457608537588,8.838179126670184-1.480560724901807,1.201902714955395-3.352773600759974,1.885470345880094-5.135055975557407,2.638520774044082-9.140702103693911,3.267272765615417-17.366299702383913,1.629408238526594-24.399505055140253-4.988697706782659-7.285151759915607-6.855165487647355-8.430200622464326-15.430892638511978-5.94413046869704-24.66678625188797.701993269647573-2.607947056257217,1.616925356462161-5.430405107837032,4.688284927544373-6.501623275842576,8.363908205039479.87188323708051,15.356165174764101-1.968830817167145,21.227687280026657-7.842948581041128Z"/>
        <path class="cls-27" d="M136.475294176720126,130.095018895322028c4.778617088946703-2.500049794314691,8.824961959742723-5.795904749731562,11.500197863988433-10.581968552781291,1.725573761996202.318258048674579,1.899206775651692,1.661664311109234,2.1847666674621,3.07006685437409,1.38781898144407,6.845213104717914,3.08743661241715,13.48324469513409,11.743222503964716,14.431224394366836-5.00744232031866,2.144316048252222-8.632311167884836,6.44706328241864-13.573947393089838,8.693913808469006-6.571646574846454,2.246237999560435-13.16531315424254,3.057964493053078-19.813861893313515.312491338341715-1.884131465601968-2.206660309252584.07814418914495-3.622051960972385,1.222725589601396-4.993026417460896,2.78185355113601-3.332090196414356,5.382379349955954-6.737464435374932,6.736896661386709-10.93270142530946Z"/>
        <path class="cls-27" d="M128.122774647396,145.249124828754248c5.474143731902586,1.613258084589688,10.961968130603054,1.679249508951216,16.517693601550491.352978718577106,1.155418644952078-.275830459181634,2.455646059948776.054904602749957,3.689093742714249.106129082465486-3.72978324183714,5.480069013474349-9.486896678305129,8.448488650707077-14.816718849344397,11.942133427523004-1.154996633527844.757096593383721-2.3662620062114,1.42835031884988-3.551554208377638,2.139102291367635-8.825595241822157,2.598358831299265-17.620927080013644.937785712960249-26.315918863581828-.555280178227804-6.787546555780864-1.165545272267991-12.68747009976687-4.679480037469148-18.218186399577462-8.747358308897674-1.251492823404988-.920483004279049-2.516402573668529-1.754168274025687-3.067860165347156-3.293525820974537,1.030196790581613-3.943637538828625,4.818784907221925-3.717704339713237,7.593695754119835-5.034790913107827,1.121944890035593-.194212207722558,2.245907913727933-.177459497962445,3.371747770199363-.05138452657684,2.463853330098573.27679043471926,4.937466940296872.4713279521402,7.388303160916621.833696389447141,4.405466058935417,1.181845837302717,8.209675448117196,3.297036780934832,10.792443713909961,7.19976568916627,1.33452706148455,2.016554786167944,2.649780616533462,4.14258416506982,5.539773239594069,3.348906404862646,3.056758486736726-.839497025632227,2.575142244546441-3.518252075164128,2.690766568108302-5.828795193681799.020900218287352-.417829815786718.137297909917834-.816116913928454.283413716657378-1.212462804927782,2.438174779905239-2.182847245581797,5.043023112999435-3.239424623295236,8.103307218458212-1.199114257015026Z"/>
        <path class="cls-27" d="M44.52574637023281,73.929557916329941c-.048551182449955.688883671931762.03129953259122,1.329006201464836.667541344582787,1.757835070454348,1.683869163551208,4.053890339575446.259340744978545,8.246654081514862.442401786653136,12.367372104014976.930503110668724,20.945733862427005,8.449059156937437,39.115597795209396,22.12635528481951,54.863596716263601,1.117111919762465,1.286236743596419,2.472850566942725,2.252123909730471,3.905469510456896,3.131672062329926,1.594971097068992,2.173339642823521,4.093194014638357,3.250440340068053,6.06291373708882,4.970532136938346,3.957645504269749,5.426745364451563,10.257104934071322,6.861004768667044,15.988397439234177,9.061601603648342,10.938477421048447,4.199947419295313,22.542786719419382,4.091866809961175,34.03205582789451,4.544015322395353-8.971443553764402,1.170084330049576-17.923317613587642,1.340958531282013-26.802919259094779-.704037353260901-5.266541672937819-1.212908772088667-10.506368218968419-2.541766616653149-15.758239998131103-3.818557402207261-6.965160440786349-4.006994160824433-14.291458671132204-7.415001366524848-20.174398635233956-13.135395593300018-10.793515451814528-10.495302403762253-17.190814853835036-23.343668033894573-21.027305544796036-37.731560311226531-2.985617025145984-11.196873525148476-1.91845635295067-22.360339891699368-.439553930205875-33.564997283253433.0809116759483-.613010815909547.6405050311987-1.162838589826606.977282436731912-1.742077072796747Z"/>
        <path class="cls-27" d="M77.730428033833959,151.020566006331137c-3.093592950084712.095669928833559-5.138556444482674-1.377193068926317-6.281400072337419-4.199434605880924-1.379823088011108-3.209195747513149.842397054446337-5.054864465691935,2.666350643981787-7.058141804180195.61344063274737-.4286153682433,1.287430660888276-.589740147764132,2.02767692047928-.467571943818257,4.6661022755452.893194499732999,9.673119750152182.537884781337198,13.710503199914456,3.735320612773648-2.288067766936365,1.765687289151174-5.684802861398566,1.535309462099576-7.494276128647471,4.162587194608932-1.530228052140956,1.291095668761955-2.654601811718749,3.073113017439937-4.628854563390632,3.827240546496796Z"/>
        <path class="cls-27" d="M57.638403023327555,87.21853968407413c-1.671352818710147,2.947028383954603-4.56114339188025,5.131072915683035-5.389165575119478,8.606199279935936-1.574190310515405.000162469270435-2.205028134181703-1.151097314740582-2.474247600150193-2.363146820097427-1.982828671136303-8.926898057518883-2.01186591575788-17.770052356911037,1.391063398399638-26.422201283171489.855145580391763-2.725815677212267,1.7102895688422-5.451631523261312,2.565490577861055-8.177499277059724,3.211846115957087-1.682640414923299,4.810109917734735-5.362940702199012,8.298615261206578-6.702722624979288-4.244754255676526,10.690087138101262-5.648120302366806,21.82758138470308-5.178242797579514,33.247714462274416.025248430598367.613635104215973.513674741137947,1.208206147533019.786486735381914,1.811656263097575Z"/>
        <path class="cls-27" d="M51.166053246457523,67.03939086074115c-.725614403172585,7.96331031164209-2.401217097421977,15.902088057560832-.775283608983955,23.930944273337445.343335291365293,1.695400290461293.084608773882792,3.683043543308486,1.858492365327038,4.854399994660525-1.848772319335694,8.454266181401181-1.05418938387993,16.273258443498889,5.170757714055071,22.951470766367493,2.944346531437986,3.158726793390997,6.754826576923733,4.7606038408112,10.522131778343464,6.506061134312404-1.662026130825325,2.743120144703425-.498509651508357,4.963944302636264,1.15105019578732,7.242853030890728,1.848509990788443,2.55376251020698,4.577883575146188,4.521409505471638,5.33723526214817,7.818561245404453-1.081582432329014,2.118767794879204-3.044750019924322,3.831761414750872-2.981411693068367,6.477475566096473-5.728967197879683-2.280354158172486-8.455733064121887-7.651910233782473-11.559442264191603-12.225360186429498-8.715141275783026-12.842149243412678-14.005615282603685-27.082223370516658-15.084670900263518-42.722516643308154-.373399814847289-5.412216657092358-.465900911744029-10.807894340950043.388343973108931-16.185922608925466,2.255067318194051-2.700218264955765,2.559379150841778-6.747761490224548,5.972797177737448-8.647966572406403Z"/>
        <path class="cls-27" d="M128.122774647396,145.249124828754248c-2.778142446555648-.303503358975831-5.415352661941142.039935252049872-7.7674538914398,1.692142225640964-2.445028018108133-.361456218780404-2.724517215117885-2.98611321590397-4.38209148763417-4.172972015927371-1.077828979690821-1.199162356892884-2.589145744510461-1.872957595978733-3.693020280785277-3.041719022115103-4.232937324110026-3.145023426758598-9.004544886842268-4.681248058599522-14.244573035346548-4.989323640723342-2.051225088694991-.120595047616916-4.146630811776049-.204701827169629-6.085616514259527-1.060635256094429-3.192006397306614-3.013799729669699-4.812260606006021-7.0620121820657-7.018726674947175-10.726991697963058,10.987951293651349-8.121587611842187,13.89749646646851-17.998275207060942,8.825753072906082-29.947956627754138,1.783492571339593-.060576332571145,2.903028045295287-1.167709749558526,3.903134695052358-2.463822090222493,3.57123983488782.978315987919814,6.934178426547078.481577360247684,10.097764417236249-1.426018367104916-.525447996027651,2.611145439333995-.177816057712334,4.798455111118528,2.775687286399261,5.720573462380344-6.192717437208557,8.631947969981411-6.544030347116859,19.033972767088926-1.10156249638203,26.917110090187634,5.373677100138593,7.783486715557046,16.284481089456676,12.199614908943659,25.798764946421215,8.349659602981774.356935946145313-.144432725144725.827065802972356-.009100913172006,1.244458816743645-.004146228879108,1.100797404982586,3.59813616473366-1.632080442228471,5.740938087344148-3.236403232891462,8.255008761421777-1.537694011452913,2.409637778339857-4.062015402811085,4.110640134340429-5.116115621072822,6.899090804171465Z"/>
        <path class="cls-27" d="M76.68513741733841,115.206607543256723c-6.587823282388854-.69002150499-11.114390058592107-6.230493037195629-10.418584194216237-12.752229694870039.698106437805109-6.543322584810085,6.308159421729215-11.081958155382381,12.853759181094574-10.398914320830954,6.557975575216915.684333930726098,11.019509944993843,6.228894348005269,10.324883516017508,12.831205747480453-.709149369316947,6.740304510207352-6.009434145289561,11.027016493808333-12.760058502895845,10.31993826822054Z"/>
        <path class="cls-27" d="M84.931292762983503,122.949625421571909c3.481949371573137,2.463330475376097,4.791013422578544,6.350206759003413,6.524462512919854,9.959049923084422-2.687394242793744,2.059662676216249-6.214058170506178,2.041858639037855-9.07033930297257,3.678026209380732-1.417804013037312.470106200896225-2.658005831748596,1.248927485551576-3.791232793448216,2.21314660515327-.92700267618784.596837830076765-1.774996961179568,1.467052037493886-3.046246598183643.924170414686159-.372514991420758.20659557063027-.745023615056198.413191816610379-1.117515933432514.619725397212278-2.410450800200124-2.888235601954875-5.070426697400762-5.610678464907323-7.139426778234338-8.725662759279658-1.276468468207895-1.921783734056589-3.555807668426496-4.662920038877928.650946138090148-6.335611230862014,5.90084543845478.952695861165921,11.5918954907429.379094349228581,16.98935275526128-2.332844559375189Z"/>
        <path class="cls-27" d="M122.454551910825103,120.069086013093511c-6.562662695256222-.722556309559877-11.067114276091161-6.302905332791852-10.3643385110081-12.839872972464036.686296690762902-6.383705723179446,6.499651864018233-11.001210688566971,12.956084234516311-10.290931192381322,6.59381443464008.72540367800957,10.950128681837668,6.231227326354201,10.199960420097341,12.891454031867397-.759939936448063,6.746929113533952-6.050185418855108,10.981601583554948-12.791706143605552,10.239350132977961Z"/>
        <path class="cls-27" d="M75.547936581298927,139.724018573876492c.857354173718704-.588370603346448,1.714709698155275-1.176753942371761,2.572063871875798-1.765124545717299,5.682301088552776.508859420113367,11.331957852431515,1.089695024131288,16.955647628614315,2.23576983212206,5.438791224143642,1.108402237244263,11.117575533078707.245565519942829,16.634236406331183,1.199526836289806,1.640929289818814.283754825764845,3.340476711671727.238365532688476,4.897186492893525.952765596673999,1.761366443410225,1.113741532818494,2.433061071724296,3.116485019048923,3.74823839005694,4.594296674761608.949723751880811,3.137526432725281,1.340797934184593,6.324270310903557-2.381303847487288,7.782676478533176-3.564018347949968,1.396456044681145-5.56861119822679-.764007449875862-7.19721844722153-3.825568447457954-2.00869277356469-3.776084097959028-5.814550497469099-5.427099886800534-9.567154933940401-6.997113124695716-2.708495927206968-.695041815170953-5.46270291431756-.966063118759848-8.254343785236415-.889833149075457-1.03398738418764.006402908920791-2.067974768377098.012805817845219-3.101845216580841.019259765500465-4.727574803204334-1.278908578066876-9.687145430940291-1.554695966387044-14.305506559305286-3.306655916934687Z"/>
        <path class="cls-27" d="M92.955288357185054,143.011414725310715c2.866301981399374-.767933947157871,5.619794249661936-.489505784038556,8.254460721220312.889884187809002-2.751565764870975-.296653597972181-5.5030132430511-.593268892891501-8.254460721220312-.889884187809002Z"/>
        <path class="cls-27" d="M81.651483802192161,135.997865120465576c2.925411452173648-2.117192092504411,6.465105274195594-2.284782881581123,9.804218505274548-3.089176075102841,6.138070894219709.564229093137328,12.4117448410816.528321551917543,17.98748224560768,3.725194240867495,1.379473697314097.790939170643469,3.087124323674288,1.223850692185806,3.831897933318032,2.886722994751835-1.147899465013325,1.988476540872398-3.061224309178215,1.652823926294332-4.832399305440049,1.490155971825516-7.349677667983997-.675001142620204-14.691683021685094-1.434183105610828-22.018022964668489-2.329778689040722-1.926039062274867-.23544421618044-3.964691337292606-.400451797784626-4.773176414091722-2.683118443301282Z"/>
        <path class="cls-27" d="M81.651483802192161,135.997865120465576c1.163338184358508.818894622875632,2.441882202967463,1.231796489497356,3.873154520242679,1.376896509465041,8.032433784521345.814312126435652,16.060101486013082,1.676234472557553,24.086690446210923,2.546870919550202,1.264254120913392.137135852242864,2.495696998794301.223899628867002,3.663760760900914-.401031960987893.943268946888566,1.139435067136219,2.906668490839365,1.07622532291407,3.331970066588838,2.826341618365404-.943116038590233.177336262479912-1.901103457701538.565262866713965-2.827111746386436.499932725099825-11.138947055031167-.786010591963532-22.251399333465088-1.842540836710214-33.301044491479843-3.49184703345145-.995251209595153-.148543669384708-1.916517260850014-.347749661021226-2.358852251796634-1.395973950978259.987320938220364-.995624779312493,2.133756091448959-1.704631476105533,3.531432695719559-1.96118882706287Z"/>
      </g>
      <g>
        <path class="cls-22" d="M117.007657289537747,35.191465125931245c.302349042831338,1.323141886809026,1.584124363012961.802056002051359,2.351805219079324,1.249001355336077-.132720762354438,2.323352132832952-2.171277066734547,2.251671462242484-3.628730673020982,2.773163241236944-11.252662485307155,4.026323866072744-15.464040535918684,15.990142929610556-9.303202885523206,26.481769829149925.957559025426235,1.630681768695467,2.463896338147606,2.592775098206403,3.922895696736305,3.670185427414253,5.366099010288963,3.962655887345136,11.176871074356313,7.298305527013326,16.314118279171453,11.589569557293544-.137522901735792,1.439063198274198-1.044019794453561,1.891462032031995-2.348772395067499,1.841645313554181-10.219828160856196-4.738350701906711-20.876936158349054-7.480305348832189-32.227639734455806-7.346438776053219-3.190757816913901.03762910297246-5.304193502501221-2.125926182563489-7.132531979095802-4.506829421632574-2.832402303341951-11.440269718425952,1.925320631935392-29.28017495892982,12.857905041148115-35.39863158191838,1.003512030465572-.561616306466931,1.83745153198106-1.215066055966417,2.501358282228466-2.12382992251969,5.56426292699507.590131434260002,11.128532221795467,1.180263543874389,16.692795148799632,1.770394978138938Z"/>
        <path class="cls-35" d="M100.314862140738114,33.421070147792307c-.086274519791914,1.302054439168387-.471644833503888,2.318172075392795-1.734737785582183,3.076522399640453-8.035012789025131,4.824113598087933-11.417090694560102,12.481267754516921-12.648179286064988,21.33775074155983-.590442088870986,4.24767356223856-1.149017479987378,8.520168640183329-.538954367915721,12.829039422706046.408055208032238,3.046213300731324.430926680086486,5.950897155312305-2.810078472726673,7.657806333415465-1.901603552001689-.028351272140753-2.425979982222998-1.570503391715647-3.166384376629139-2.875969425171206-.1587598495571-.371774649227518-.272750149013518-.763641399321386-.387500243279646-1.155994417724287-.616641344402524-2.108384730866419-1.178115821468964-4.853535566015125-4.040058641376163-4.017019394617819-3.091910872683002.903730989692122-2.103707037027561,3.573850399040566-1.291843711362162,5.811943951232934.218608869670788,1.916298271537926,2.509698033836685,3.508244191188169.905856137509545,5.713773725079591-2.183589093292539.484338003362609-4.367533350596204.982589444422956-6.50329792953562-.190831800238811-.051541299630117-14.688684495095913,3.761730913103747-28.077837047538196,13.091001552853413-39.702229574055309,2.435710744786775-3.034931747597511,5.438797022581639-5.1648676437635,8.821127534933112-6.898303864115405,2.929852838722582-1.837485029747768,6.595032291426833.48173943724305,9.468409831739336-1.675007846618428l.834639757436889.088519748906947Z"/>
        <path class="cls-13" d="M33.189734126277472,85.384319747683548c2.220440768180197-3.606414180004322,2.000053253579608-8.148107622334464,4.46776812137432-11.659770957258843,1.86427187130721,1.961332159403355,1.403539002903926,4.389219072410015,1.356754991338676,6.736749160957515-.464959023967822,23.330956697079273,6.04466499436603,44.380189594474359,20.598910372576938,62.776775294785693,4.44154014920241,5.614106169672596,10.375134655625516,9.246414810215356,16.668482466422574,12.411521462732708,1.33273254195592.670271139351826,3.434517680681893.81253318672043,3.161711816363095,3.177433356912843-1.652900576527827.988347952988079-3.232804062126888.283014670409102-4.746563176107884-.314989491446795-4.862979391453337-1.921078646840215-9.701041086967962-3.908159306191919-14.175811529541534-6.658307972524199-12.846921399624989-8.204445285417023-18.428692738683822-21.29082860915787-23.195585845094683-34.846488293844232-2.831016809430366-8.05058691593058-4.049664469501295-16.470525104420631-4.843830156914919-24.945757843732281l.708162939583417-6.677164716582411Z"/>
        <path class="cls-14" d="M32.481571186694055,92.061484464265959c2.337112472647277,3.983499605580619,1.85952302548867,8.590707436525918,2.785145635973095,12.884079941073651,2.936636369637199,13.621205988259135,7.606481858050756,26.436974989388546,16.239670488903357,37.575268588265317,2.597587739188384,3.351356462147123,5.93514792374117,5.842962144043668,9.3521155667313,8.254910545961138.29670056298346.415169386552407.23688940032298.770286135800234-.177796383166424,1.066489794942754-2.459256370329967.561497535250055-4.268711467773755-.927935488589355-6.062033242778853-2.12300943163882-5.638425009614366-3.757392619962047-11.084688774935785-7.785481903998516-16.234093218028647-12.200884233437137-4.064459456771147-7.387519412451184-5.744746232534453-15.432050538153817-6.653390347895765-23.714140793653314-.18543683849748-1.690212829566008.306322305015783-3.572222896996209-1.020025848703881-5.049802620056653.590135557868052-5.564301807871743,1.180271791097766-11.128609983584283,1.770407348965819-16.692911791456936Z"/>
        <path class="cls-34" d="M57.174186057192856,159.736916526781897c-2.493040936080433-1.058778180388799-4.285585078765507-2.979883960505504-6.060230224571569-4.923020478750004,2.138472671216732-1.454917431339709,4.020865854517979-.158338181774525,5.843112477641625.680249371102946,5.913951721311605,2.721526416155939,11.884353265213576,5.283017414608366,18.062761208901065,7.356923853001717,2.502392384008999.84000383757666,5.006315260157862,1.60082288155354,7.646036217021901,1.857692977091574,9.602817583439901,2.310284542978479,19.082892086449647,5.268485294832317,29.161539647246173,4.778817907971643,2.023239456439114-.098288368690191,4.311036814222462.032560393941822,5.222442542206409,2.562773637078863-3.88939056840718,1.828281231501023-8.302373569202246.385071569718093-12.232652360155043,1.957838447464383l-5.007838544637707-.531118493442591c-1.896483638616701-1.806830185158105-4.486919302105889-1.457245923350456-6.71202707298653-1.827820000847169-11.503551734333087-1.915898844436015-22.396796692934004-5.557486674734719-32.818852346577842-10.714986593508002-.996935356122776-.493349686162219-2.128542276135704-.64473809330957-3.104291544088483-1.19735062716336Z"/>
        <path class="cls-21" d="M57.174186057192856,159.736916526781897c2.738479964596991-.137247495967131,5.206661346886904.932339751311702,7.556022301900157,2.046494798221829,10.210273727938329,4.842068876284429,21.140851873255087,7.226639719984632,32.061315595712585,9.670694602629737,1.284975671800566.287595817330839,2.96612904354879-.07883277543533,3.017833066040112,2.022967820666963-5.56426292699507-.590131434260002-11.128532221793648-1.180263543876208-16.692795148790537-1.77039497813621-5.231417955532379-2.36527404912249-11.010025876335931-3.243573196948091-16.11360679434074-5.971521483294964-3.393286402391823-1.81377324422283-6.998233852702469-3.267129759346972-9.828769020521577-5.998240760087356Z"/>
        <path class="cls-8" d="M169.537304949057216,89.690259151422651c1.130545039932258,3.919349281736686,1.471510807303275,7.908065803475438,1.051003679252972,11.963676226750067-5.194431323467143,2.715788541770962-9.183988930621126-.184139484000298-13.23042749650449-2.826919137579353-7.960828155191848-5.355525182911151-14.70398249446589-12.15165268493547-21.824683547256427-18.503425787634114-.468429674991057-3.130350488781914-2.490670667599261-4.606380174875994-5.446460687502622-5.0918199822936-3.509347510373118-2.334687597851371-6.464948741306216-5.336718741818913-9.065648646832415-8.549122818587421-3.536877968239423-4.368789198016202-4.820947155385511-9.682107816648568-2.226299372399808-14.816088164483517,2.817507597463191-5.574943105679267,7.789438036385036-8.488853567117985,14.266186471102628-8.443895129445991,2.526617510698998.017539712535836,4.824518225790598,1.228958592900199,7.337688975398123,1.214148245590877,5.528284054526011,2.834529172610928,10.157201384457949,6.757626997946318,14.032063838218164,11.59339957879547.582115896240794,2.59339167097005-1.249793660639625,1.594943396550661-2.213717078404443,1.337929903625081-2.031262535787391-.541605594793509-3.727541678161288-1.89576152900645-5.694306419634813-2.639072015324018-4.092644286614814-1.546761449641963-7.877370418864302-1.396176711278713-11.348674638409648,1.657113928890794-4.595391287113671,4.042016975605293-4.925928538237713,6.958968921722771-1.084873501829861,11.759226682015651,5.710999707240262,7.137161731761807,11.928660866737118,13.604974134312215,20.31541254669537,17.79528367736475,4.855320921447856,2.425893366264063,9.726682726432045,3.899326388627742,15.132735878107269,3.549564792315323Z"/>
        <path class="cls-12" d="M140.398664324315178,44.6368126037396c-1.751017713933834,1.00719720539746-3.581422537385151.321275799333307-5.282890099999349.016889340881789-5.663427640974987-1.013164876533665-10.045228474024043,1.255375786841796-13.832053249479941,5.08597389231636-3.915190996694946,3.960435922454963-3.407149366246813,12.405382644260499,1.061881739922683,17.009917362106535,2.690567962306886,2.772154573428452,5.597275293472194,5.334532530132492,8.406852520078246,7.991182843475144-.058124351544393,2.308395680235662-1.71733238005254,3.795043229159091-2.845235100934588,5.558179276807095-.443588212538089.426795920981931-.952216847648742.688221756082385-1.589103899052134.612835100051598-6.092461393744088-2.516980207372399-10.752008193852816-7.269247736920079-16.372144725959515-10.494056441149041-3.147850990109873-1.806214606187496-5.05907863174798-4.275542527156176-5.869807958697493-7.676087542284222-1.296724298967092-5.438985968815359-1.798472017040694-11.007640645387255.181784990834785-16.290324127257918,1.363948112271828-3.638561483065132,4.855322454241104-5.527297498618282,8.284616345139511-7.229592568555745,2.21490586697837-1.099473109205064,4.97165953989861-.825020334781584,6.816921875437401-2.781309787587816,7.62352020030994,1.165106803215167,14.285943400678661,4.797305315142694,21.039177562710393,8.19639265119622Z"/>
        <path class="cls-7" d="M169.537304949057216,89.690259151422651c-4.189745046678581,2.352268328560967-8.060303993364869.703843631928976-11.97369896568307-.891748491657381-11.388612131981063-4.643421781770485-19.427675588591228-13.186773139411343-26.65447438004594-22.709745015900808-1.282715151546654-1.690268035043118-1.008452030706394-3.465266326614255-.379514854672379-5.163067004443292,2.372446933217361-6.404328652365621,9.715422178123845-9.68106193643689,16.046290996189782-7.163724027156604,1.669451338329964.663821869035019,3.135794145922773,1.874541698066423,4.828097741150486,2.429632357337141.852480365103474.279622739876686,2.042252466493665,2.189650381907086,3.026759724974909.038377321380722,8.932337335309057,9.394195819641936,13.448254722488855,20.78213738991235,15.106539738086212,33.460274860440222Z"/>
        <path class="cls-30" d="M157.639853529442917,97.743808104016352c3.754567814317852,3.163216841129724,8.08845567424396,4.408002761693751,12.948519452187611,3.910127659836689.059577336449365.265210954768918.096128350085564.533569254326721.109683914939524.80502665736185-.565615160572634,4.741968005282615-1.1313241977914,9.483971130518512-1.697033235002891,14.225974255755318-5.52729613862175,1.657363902399084-11.214138718703907-1.658032922829989-13.508611136701802-7.871350771939433.30363688736179-3.769928887999413-.468431577481169-7.749937458841487,2.147441004577558-11.069777801014425Z"/>
        <path class="cls-18" d="M156.40226181165599,109.420165251764047c2.928700823071267,4.626586040433722,6.999621152732288,7.272045880066798,12.599380587254927,7.264766212758332-.010635135231496.861174665430553-.020652208469983,1.722350486261348-.030537969838406,2.583623946758962-1.749143274257221,6.060979511747973-2.562107144227411,12.432552480125196-5.95532525696035,17.947936798165756-.390849400280786.212771238337155-.808594326235834.310102363439-1.253378620693184.296749764830565-7.075714281218097-.460958717970243-10.693710014093085-4.438791783089073-11.674577998635868-11.275675787896944-.355279872765095-2.476460810627941-1.41443552002238-4.771301405619852-2.664384196832543-6.952790274186555,1.167859733848672-4.70181205004792,1.940662611272273-9.464963566777442,2.178572781698676-14.310608738033807,4.105503504326407-1.33513808166299,4.982057420789715,2.275720733661728,6.800250674006747,4.44599807760369Z"/>
        <path class="cls-19" d="M148.983154169738555,156.785291917068207c-2.157650884097166,2.413780720743489-4.626558387881232,4.43145457168157-7.519887054391802,5.908984778528065-4.558771676303877,1.623514900861665-9.236024469610129,2.683541830077047-14.08028726908924,2.969347511510023-6.53828105496541-.313955498660107-13.083894790701379-.255676111086359-19.60402663991772-1.119749387574302-9.100291363609358-1.205976718772035-17.655669758516524-3.950531020875133-25.714057019393294-8.28758229153209-1.960042837088622-1.05489885406314-3.969887694007411-2.142588985902876-4.643598026488689-4.549519781902745.756871182817122-2.699852198523331,2.337749921598515-4.473777744650761,5.299673184941639-4.691582390694748,13.790943465646706,11.662155505285227,29.850831595873387,14.406520395377811,47.21835645380088,11.987905094911184,4.403225303803993-.368062449171703,8.621521207140177-1.605077988843732,12.881717029891661-2.671163748148501,2.058227939884091-.515074781956173,4.249736024174126-1.555924894073542,6.162109340646566.453360214903114Z"/>
        <path class="cls-20" d="M148.983154169738555,156.785291917068207c-4.579230921906856-.743987132232178-8.554778852758318,1.828110480352734-12.907961761045954,2.365738224373672-2.036076754297028.251448330500352-4.001171982043161,1.109333856957164-6.113840761732718.638393342689596.02428103492457-1.981398872968384,1.837281500393146-2.195125101248777,3.023255361700649-2.939444554907823,5.364600088794759-3.366795072333844,10.678834279866351-6.782436862177747,14.888627548034492-11.623551548605064,3.066860649674709-2.385262888394209,6.436209350315039-4.342378807280511,9.487773604441827-6.763013239195971,1.250762002828196-.992174190047081,2.695582829326668-2.024182080072933,4.542321574601374-1.449101494275055.370556878466232.067331311066482.74110034597652.134667639265899,1.112059360521016.202093115587559-3.38322392946975,7.450898830577898-7.654596353859233,14.265103567266124-14.032234926520687,19.568886154333086Z"/>
        <path class="cls-29" d="M60.764798469492234,151.6181333566592c.031240881326084-.280783082103881.06248494654028-.561565826535116.093715793685988-.842375730706408,5.901702459126682,3.307210475354623,11.882774876123221,6.427284987540588,18.572602712714797,7.876016010887724,1.756824485360994-.964498631670722,3.205305727498853.246754524708194,4.769875936739481.665850032275557,14.312134192419762,5.116475594077201,29.088382925932819,6.933020021958328,44.217056048164523,6.249920425298114,1.905645041235402-.086045455576823,3.951076114961324-.726179603374476,5.213039096568536,1.46091079339385-1.814717829051006,1.661793119946196-4.260482876865353,1.73897962754836-6.412504233299842,2.553780893731528-4.157220702285485-.067389299931165-8.305507369806946.193976433359239-12.471892221843518.156164039188297-14.395248733080734-.130620880300739-27.98295169386256-3.69472566622062-41.312373563328947-8.672693592550786-2.946226724081498-2.499196357423898-6.694018810483612-3.69415404513984-9.787846560193429-5.948695569981282-1.234483526028271-.899592461388238-3.11535741649277-1.356278310306152-2.881673009207589-3.498877301536595Z"/>
        <path class="cls-32" d="M73.412273136082149,159.708903570484836c6.541055235191379,2.937096188673422,13.449460743015152,4.72397621345408,20.39012029510377,6.353792620135209,10.00751532499271,2.34999889136634,20.144797775639745,3.322951566512529,30.428852305683904,2.457792631650591,1.055579797735845-.088804744365007,2.266664510558257-.057506011135047,2.987276724888943,1.061779088144249-3.210402362083187,1.562864900389286-6.611168737270418,2.341291447547519-10.169452758973421,2.467591221650764-1.756296112815107-1.425118694207413-3.916841437712719-1.652895414992599-5.974627411351321-1.505557483462326-10.080109086416996.721783959680579-19.471400909033036-2.478333130233295-29.012037344060445-4.859554084266165-5.749616018518282-1.595890862721717-11.289130338522227-3.797604500359739-16.697338766056419-6.262186226338599-1.590095572846622-.724625042147636-4.367414036334594-.775485111738817-4.113847837532376-3.762649505122681,1.562791608646876-.887326149549153,2.895136370922046-.185104864536697,4.27722475668088.539559720718898,2.550401733078616,1.337238298789089,5.149191528458687,2.579616465977779,7.883830035616484,3.509432016890059Z"/>
        <path class="cls-4" d="M133.63108805736556,167.028454887808039c-3.665008994690652-1.624293509589734-7.423178876493694-.144263858020167-11.113430386547407-.164613239135178-13.184738601567005-.072775207605446-25.994921240942858-1.997586860133197-38.444267203441996-6.322793930965418-.226047048172404-.07852913464194-.368264786640793-.398353723974651-.549597492430621-.605592086592878.583691320429352-.564809894285645,1.308975324249332-.74889261642511,2.090083624058025-.787022105453616,5.090554296777555.785324962895174,9.905438974490608,2.659214450931358,14.911821595385845,3.82585696757269,6.83743520189455,1.593329770692435,13.74269805732547,1.996485775675865,20.662549563869106,1.772349294856213,2.180163781302326-.070621010171635,4.407585108090643.749480057034816,6.562548059926485-.120440163932471,4.642234461525732-.136766714846999,9.000142626468005-2.291745025730052,13.712400865631935-1.931866003679716-2.261248764547418,2.076080592595645-4.939845937660721,3.398153099562478-7.832108626451372,4.334121267330374Z"/>
        <path class="cls-5" d="M90.011812551561889,35.007558245503787c-.328881508374252.59217525776603-.512200986468088,1.381294490138316-1.007941513937112,1.747702657685295-12.174827090813778,8.998515544129077-17.808329780245913,21.395310613860602-19.093346407644276,36.163422804545917-.247294125751068,2.842081914621303.162856061058847,5.897716182178556-1.698527990734874,8.447240789028911-3.523469845491491,2.671079849700618-6.74511518755935,5.973102046695203-11.72707081021872,5.605966446319144-.957099848972575-1.301663233361069-1.246433716520187-2.84884374341982-1.15004282449263-4.353782306515313.646688418126359-10.096598892323527.975413451153145-20.261268282120909,5.303413862966408-29.696595913120291,3.553465196615434-6.27936749440596,8.946434176896219-10.535870038667781,15.207342203262669-13.884677365220341,1.56672012582203-.837998528710159,3.418192624176299-1.256305784334472,4.58752041743719-2.768382192947684,3.093439899757868-1.175767514336258,6.245209964821697-1.908414336952774,9.578653063361344-1.260894919775637Z"/>
        <path class="cls-25" d="M85.189691941233832,160.103507710707163c-.55532332565781-.056037042179923-1.110640283528483-.112073409010918-1.665934471633591-.168081603068458-1.364135990823343-.427845885883471-2.728308837697114-.855708559559389-4.092560413784668-1.283618219860728-3.274625980518977-1.794233800183974-6.610858290299802-3.485337284619163-9.812612585932584-5.401185637342678-11.445200742487941-6.848498221063892-17.947929481628307-17.78604479014939-23.127141062292139-29.427842352737571-6.352172885415712-14.27836373280843-9.613901573746261-29.323678739171555-8.423939072381472-45.117994277615253.123553756919137-1.639920290660484-.260804199271661-3.3181120037234-.409749568709231-4.979392235833075,1.342583700887189-4.597037491946139,3.602403561819301-8.711699041129577,6.546074026329734-12.467254327460068,1.623886435094391.891929045617871,1.656007991974548,2.461468910830263,1.502360440315897,3.962511519553118-.280258518150731,2.737962682847865-.012501504883403,5.49084088084328-.330359049417893,8.219377777557384-4.585954000041966,19.608021235559136-2.096974110418159,38.193909148491002,7.63338737299091,55.907725077385294,6.826075558261437,12.42668294735995,16.39646015082144,21.761343187095008,29.211876837964155,27.820100852480209,1.246001443470959.589079419582049,3.135216944398053.802207786973668,2.968597546550882,2.935653426941826Z"/>
        <path class="cls-16" d="M44.525747166211659,73.929558000750148c-1.094332451490118-4.198709991427677.917607716728526-8.476351592379615-.321936994298085-12.671395160977227,3.304867868491783-5.732462749221668,7.742450947933321-10.409226604868309,13.185877404484927-14.148575352761327,1.478755233543779,1.723070758630456.536378505325047,3.43191305790242-.108054522639577,5.082440221568504-.862221831155694,2.208323710926379-1.535715744894333,4.476607434478865-2.30355604001852,6.712218098942685-.858018578936026,2.740154322561466-1.730494711446227,5.47735863136495-3.075261085778038,8.033207732993105-2.858173297656322,2.552641133221186-3.193809262105788,7.046855382554895-6.878486494739263,8.969845783745768-1.147930422705031-.411789809788388-1.217757900350989-1.09560037715346-.498582267011443-1.977741323511509Z"/>
        <path class="cls-33" d="M53.731600507220719,58.861842859852914c.906596428747434-4.014488977265501,3.388053231839876-7.538737745719118,3.658087649115259-11.751820647305976,6.737481136504357-5.61988347697843,14.367704042366313-9.341678484957811,23.043418158769782-10.841401625992148.660326836426975,2.012539676970846-1.100121671694069,2.054865166291165-2.164525701369712,2.58446135534723-6.430594403253053,3.19954711792343-12.132201198521216,7.27586943516053-16.238490584726605,13.306206872317489-1.524817717534461,1.792616549315426-3.13365130861348,3.508980253756818-4.844107667504431,5.122739307548727-.955559088703012.901535244589468-1.740275592143007,2.291215978157197-3.454381854284293,1.579814738084679Z"/>
        <path class="cls-24" d="M73.412273136082149,159.708903570484836c-4.519312527969305.120375134725691-7.829261688573752-3.623251300170523-12.245369272157404-3.832629839712354-1.828486412601706.513656951960911-3.210613336650567-.629435414110048-4.567477638556738-1.435923485169951-4.366819264663718-2.595601803668615-8.80144738711715-5.091126597595576-12.942671145061468-8.052119623493127-2.198409727669059-2.694373532365717-4.129518257754171-5.547618852884625-5.271897805614572-8.869848670341526,5.277455992267278,1.520366009077406,8.537849903535971,6.040758505672784,12.997441688732579,8.808280911615839,3.065784631702627,1.902548226682484,5.909346419281064,4.129928997543175,9.382571288317195,5.291400832711588,3.574964883600842,3.698684006948497,8.675252372770046,5.013000276230741,12.647402884340408,8.09083987438953Z"/>
        <path class="cls-9" d="M43.656755080306539,146.388230622109404c6.583927156680147,1.783607947197197,11.460670405635028,6.717846481597917,17.510094174882397,9.488011559132246,5.883590553314207,4.041797183806011,12.531482137954299,6.419210855229721,19.186787022628778,8.768832407203263.671951845328294.237236311973902,1.325846910360269.381400471869711,1.708830996805773,1.039692465095868-8.90489734755829-1.413803297791674-16.90564733431529-5.368535159989733-25.048799047601278-8.920319579093302-1.908443774400439-.832403469633391-3.709852327048793-1.974179157195977-5.899590682571215-1.95049988116898-3.009541622199322-2.345105000348667-5.566645470536969-5.090489796596557-7.457322464144454-8.425716971169095Z"/>
        <path class="cls-17" d="M82.09553766514,77.907986330339554c3.201404729135902-1.457535761661347,1.458486054993045-5.165858796182874,3.297450189818846-7.243607140235326,2.974287871084016,2.605194265077444,6.169680009388685,3.756289674668551,10.383926004082241,3.805849386620139,9.616525244873628.113098209766576,18.964424461413728,2.152596836920566,27.502338450238312,6.939292019287677.56661144966165.317665599745851.994982825446641.881886795436913,1.48765050990005,1.33142722714274-1.108189158112509,3.258738862597056-4.845241256947702,5.503038650519557-9.598574804589589,5.545935374731016-2.403103564052799.021688802108656-4.779828330820237-.150395901139746-6.727766704545502,1.625439343270955-3.579167341287757,1.793027390328461-7.170141223999963,3.516138571456395-11.123373631326103.945410739087492-1.043582227528532-3.050908133402118-3.248267332404794-4.387206778074869-6.352215634578897-5.200271560267538-4.072522517453763-1.0667851200933-8.289403538270562-2.465116322331596-8.869434378999358-7.749475389637155Z"/>
        <path class="cls-1" d="M107.757847694754673,89.111895295650356c1.512736933769702-1.749367281316154,3.459324206061865-1.909490339427066,5.630956161705399-1.797298216611125,4.45370632356753.230092681140377,8.382553312731034-1.067364965477282,11.377993411613716-4.573686208231265.75710796868043-.406307844722505,1.403652662953391-.906316162591793,1.551349213552385-1.8292234947412.338175229215267-.26001141859706.67638070520843-.520125880503656,1.014586518867873-.780243526332924,3.203440981376843-1.315017238160181,5.766093844520583-.889831092012173,7.188855457407044,2.642189266823152-.049367374071153,2.010162879745621-1.250116568549856,3.486206396360103-2.335115334961301,5.018456150661223-6.111149507780283,6.16826205212783-13.229613504632653,9.431690943990361-22.102822183076569,7.623501900383417-3.670238522587169-1.03327361535321-3.683200114583087-3.416703762635734-2.325803245108546-6.303695871951277Z"/>
        <path class="cls-10" d="M57.638403023327555,87.21853968407413c3.269624088281489-2.411391057068613,6.597786310505398-4.717019548561439,10.573588743629443-5.852599605384057,2.176320003049113-.16847068765037,4.352635133811418-.336925793376395,6.528950264562809-.50538089910242.422226195991243.015879897493505.926891336144763.044617877141718,1.147458940047727.381490408821264,4.166725507726369,6.363826459933989,10.482062882012542,9.258998160410556,17.565648749083266,10.934077473667458,4.430552349373102,4.821504566776639,4.540209128019342,10.627933657208814,3.116081948151987,16.412479629832887-1.608921178492892,6.535139658857588-5.224807654059987,11.888285933889165-11.354044304080162,15.209364048782845-5.523006456834992,2.783096413220846-11.264413401893762,3.962713769929906-17.38434584735478,2.347497567212486-8.870565480036021-2.816837979306911-14.701650359553241-8.532086759691083-16.963521340749139-17.704874588483108-1.030004795953573-4.177089670100941.002765303244814-8.262689239841166.347283165101544-12.383470523261167,1.018089599159794-3.758305839752211,3.052650701334642-6.784803641823601,6.422899681607305-8.838583512086188Z"/>
        <path class="cls-1" d="M93.760218447236184,93.002720053676057c-8.335164958718451-.917246715895999-14.748053159879419-4.846478689521064-19.017698160600048-12.13928247275544-.809251341230265-1.483487695953045-1.85440786851359-2.873531233423819-1.788148289833771-4.687443541702123-.622896677254175-2.404078780278724,1.226882351580571-2.370505390964354,2.651344968382546-2.554366547077734,1.701525022837814-.219621497933076,3.248620020140152.357232484940141,4.603120500270961,1.416305871807708.628907093683665.956699019585358,1.257814187369149,1.913398039177082,1.886710571534422,2.870076604537644,2.237307854134997,4.306598110264531,5.972843048873983,6.485095083628948,10.596967532239432,7.222423116771097,3.180820544639573.507190601937509,5.266469002768645,1.806246442861266,4.967664286356012,5.407419986177047-.214528162885472,2.53908665029212-1.716947545424773,3.040413916102807-3.899961408349554,2.464866982241801Z"/>
        <path class="cls-1" d="M80.208837465455872,75.037933363948468c-2.350083451623505.813207082674126-5.30865647290193-2.252394127114712-7.254446702945643,1.13806588524676-1.184572012820354-1.373540215116918-1.214911219258283-2.9952149387791-.823808892988382-4.611644051174153.383849191184709-1.586443466379933,1.37922395224814-2.678073322385899,3.122162702729838-2.835447194529479,1.86108412842259-.168041857062235,3.254799853812074.591859500015744,3.908108793044448,2.340090707964919.476616896352425,1.275409461072741.707535899802679,2.642638499785789,1.047984100159738,3.968934652491953Z"/>
        <path class="cls-6" d="M131.760375151936387,86.989675034507854l2.07206376574868-3.619175629975871c1.003613984757976-.842176496184948.078155677607356-2.997631716032629,2.128796016091655-3.127017623602114,3.044248861933738.785859680277099,4.720692516684721,3.382474160461243,6.820440134888486,5.341000411671303,4.696071718164603,4.380253474959318,9.579269092413597,8.50419968931601,14.858185214345212,12.159262233011759-.412553663660219,3.89221533876389-.825100573754753,7.784366999124359-1.237629345392634,11.676469067466314-2.059896719236349-1.622921570269682-4.119837048097907-3.245796249922932-6.179763966016253-4.868675946714575-1.507575886913401-.556972925925038-1.777592890108281-2.017573854278453-2.381388652062014-3.242009293725459-2.997606650671514-6.078762326132164-7.122013793228689-10.906602147380909-14.01523427075881-12.708730211731563-.86121930819354-.225154053963706-2.027178385498701-.248360211840918-2.065468896844322-1.611123006399794Z"/>
        <path class="cls-1" d="M135.961234933776723,80.243481780929869c-.709602933256974,1.042359147578281-1.419206204191141,2.084721479077416-2.128799730548053,3.127052646724223-.867972287478551-3.685641385882263-4.129121399912037-2.568820948685243-6.499723332188296-3.239073500453742,1.044971910381719-1.857209339269502,1.750895253482668-3.929474977600876,3.419771246819437-5.390765640550853,4.139390861848369-.440511792519828,5.799419335036873,1.465889329875608,5.208751815916912,5.502786494280372Z"/>
        <path class="cls-15" d="M158.262753135248204,81.778911250787132c-8.596898149256958-.979727072456626-13.553605565872203-6.179104241491586-16.993175033021544-13.047062458217624-1.637305625328736-3.269283791376438,2.616809309292876-7.475357719198655,7.182145206959831-7.408977034497184,7.025162392688799.102147844056162,15.582620269209656,10.278632792992539,14.572234901634147,17.313123052287665-.455676555311584,3.172526134697364-2.429092979689813,3.756048188197383-4.761205075572434,3.142916440427143Z"/>
        <path class="cls-10" d="M131.760381519734437,86.989675709858602c9.935432109179601,1.878660783350824,15.538865531701958,8.311411740337462,18.462033158788472,17.561869169369857.582206703851625,5.187067324191048.021435005419335,10.20249226733813-2.246856258427215,14.961486745470211-.38377618911727,4.318507818741637-3.730708154465901,6.466323414482758-6.652457608537588,8.838179126670184-1.480560724901807,1.201902714955395-3.352773600759974,1.885470345880094-5.135055975557407,2.638520774044082-9.140702103693911,3.267272765615417-17.366299702383913,1.629408238526594-24.399505055140253-4.988697706782659-7.285151759915607-6.855165487647355-8.430200622464326-15.430892638511978-5.94413046869704-24.66678625188797.701993269647573-2.607947056257217,1.616925356462161-5.430405107837032,4.688284927544373-6.501623275842576,8.363908205039479.87188323708051,15.356165174764101-1.968830817167145,21.227687280026657-7.842948581041128Z"/>
        <path class="cls-3" d="M136.475294176720126,130.095018895322028c4.778617088946703-2.500049794314691,8.824961959742723-5.795904749731562,11.500197863988433-10.581968552781291,1.725573761996202.318258048674579,1.899206775651692,1.661664311109234,2.1847666674621,3.07006685437409,1.38781898144407,6.845213104717914,3.08743661241715,13.48324469513409,11.743222503964716,14.431224394366836-5.00744232031866,2.144316048252222-8.632311167884836,6.44706328241864-13.573947393089838,8.693913808469006-6.571646574846454,2.246237999560435-13.16531315424254,3.057964493053078-19.813861893313515.312491338341715-1.884131465601968-2.206660309252584.07814418914495-3.622051960972385,1.222725589601396-4.993026417460896,2.78185355113601-3.332090196414356,5.382379349955954-6.737464435374932,6.736896661386709-10.93270142530946Z"/>
        <path class="cls-31" d="M128.122774647396,145.249124828754248c5.474143731902586,1.613258084589688,10.961968130603054,1.679249508951216,16.517693601550491.352978718577106,1.155418644952078-.275830459181634,2.455646059948776.054904602749957,3.689093742714249.106129082465486-3.72978324183714,5.480069013474349-9.486896678305129,8.448488650707077-14.816718849344397,11.942133427523004-1.154996633527844.757096593383721-2.3662620062114,1.42835031884988-3.551554208377638,2.139102291367635-8.825595241822157,2.598358831299265-17.620927080013644.937785712960249-26.315918863581828-.555280178227804-6.787546555780864-1.165545272267991-12.68747009976687-4.679480037469148-18.218186399577462-8.747358308897674-1.251492823404988-.920483004279049-2.516402573668529-1.754168274025687-3.067860165347156-3.293525820974537,1.030196790581613-3.943637538828625,4.818784907221925-3.717704339713237,7.593695754119835-5.034790913107827,1.121944890035593-.194212207722558,2.245907913727933-.177459497962445,3.371747770199363-.05138452657684,2.463853330098573.27679043471926,4.937466940296872.4713279521402,7.388303160916621.833696389447141,4.405466058935417,1.181845837302717,8.209675448117196,3.297036780934832,10.792443713909961,7.19976568916627,1.33452706148455,2.016554786167944,2.649780616533462,4.14258416506982,5.539773239594069,3.348906404862646,3.056758486736726-.839497025632227,2.575142244546441-3.518252075164128,2.690766568108302-5.828795193681799.020900218287352-.417829815786718.137297909917834-.816116913928454.283413716657378-1.212462804927782,2.438174779905239-2.182847245581797,5.043023112999435-3.239424623295236,8.103307218458212-1.199114257015026Z"/>
        <path class="cls-11" d="M44.52574637023281,73.929557916329941c-.048551182449955.688883671931762.03129953259122,1.329006201464836.667541344582787,1.757835070454348,1.683869163551208,4.053890339575446.259340744978545,8.246654081514862.442401786653136,12.367372104014976.930503110668724,20.945733862427005,8.449059156937437,39.115597795209396,22.12635528481951,54.863596716263601,1.117111919762465,1.286236743596419,2.472850566942725,2.252123909730471,3.905469510456896,3.131672062329926,1.594971097068992,2.173339642823521,4.093194014638357,3.250440340068053,6.06291373708882,4.970532136938346,3.957645504269749,5.426745364451563,10.257104934071322,6.861004768667044,15.988397439234177,9.061601603648342,10.938477421048447,4.199947419295313,22.542786719419382,4.091866809961175,34.03205582789451,4.544015322395353-8.971443553764402,1.170084330049576-17.923317613587642,1.340958531282013-26.802919259094779-.704037353260901-5.266541672937819-1.212908772088667-10.506368218968419-2.541766616653149-15.758239998131103-3.818557402207261-6.965160440786349-4.006994160824433-14.291458671132204-7.415001366524848-20.174398635233956-13.135395593300018-10.793515451814528-10.495302403762253-17.190814853835036-23.343668033894573-21.027305544796036-37.731560311226531-2.985617025145984-11.196873525148476-1.91845635295067-22.360339891699368-.439553930205875-33.564997283253433.0809116759483-.613010815909547.6405050311987-1.162838589826606.977282436731912-1.742077072796747Z"/>
        <path class="cls-1" d="M77.730428033833959,151.020566006331137c-3.093592950084712.095669928833559-5.138556444482674-1.377193068926317-6.281400072337419-4.199434605880924-1.379823088011108-3.209195747513149.842397054446337-5.054864465691935,2.666350643981787-7.058141804180195.61344063274737-.4286153682433,1.287430660888276-.589740147764132,2.02767692047928-.467571943818257,4.6661022755452.893194499732999,9.673119750152182.537884781337198,13.710503199914456,3.735320612773648-2.288067766936365,1.765687289151174-5.684802861398566,1.535309462099576-7.494276128647471,4.162587194608932-1.530228052140956,1.291095668761955-2.654601811718749,3.073113017439937-4.628854563390632,3.827240546496796Z"/>
        <path class="cls-23" d="M57.638403023327555,87.21853968407413c-1.671352818710147,2.947028383954603-4.56114339188025,5.131072915683035-5.389165575119478,8.606199279935936-1.574190310515405.000162469270435-2.205028134181703-1.151097314740582-2.474247600150193-2.363146820097427-1.982828671136303-8.926898057518883-2.01186591575788-17.770052356911037,1.391063398399638-26.422201283171489.855145580391763-2.725815677212267,1.7102895688422-5.451631523261312,2.565490577861055-8.177499277059724,3.211846115957087-1.682640414923299,4.810109917734735-5.362940702199012,8.298615261206578-6.702722624979288-4.244754255676526,10.690087138101262-5.648120302366806,21.82758138470308-5.178242797579514,33.247714462274416.025248430598367.613635104215973.513674741137947,1.208206147533019.786486735381914,1.811656263097575Z"/>
        <path class="cls-2" d="M51.166053246457523,67.03939086074115c-.725614403172585,7.96331031164209-2.401217097421977,15.902088057560832-.775283608983955,23.930944273337445.343335291365293,1.695400290461293.084608773882792,3.683043543308486,1.858492365327038,4.854399994660525-1.848772319335694,8.454266181401181-1.05418938387993,16.273258443498889,5.170757714055071,22.951470766367493,2.944346531437986,3.158726793390997,6.754826576923733,4.7606038408112,10.522131778343464,6.506061134312404-1.662026130825325,2.743120144703425-.498509651508357,4.963944302636264,1.15105019578732,7.242853030890728,1.848509990788443,2.55376251020698,4.577883575146188,4.521409505471638,5.33723526214817,7.818561245404453-1.081582432329014,2.118767794879204-3.044750019924322,3.831761414750872-2.981411693068367,6.477475566096473-5.728967197879683-2.280354158172486-8.455733064121887-7.651910233782473-11.559442264191603-12.225360186429498-8.715141275783026-12.842149243412678-14.005615282603685-27.082223370516658-15.084670900263518-42.722516643308154-.373399814847289-5.412216657092358-.465900911744029-10.807894340950043.388343973108931-16.185922608925466,2.255067318194051-2.700218264955765,2.559379150841778-6.747761490224548,5.972797177737448-8.647966572406403Z"/>
        <path class="cls-36" d="M128.122774647396,145.249124828754248c-2.778142446555648-.303503358975831-5.415352661941142.039935252049872-7.7674538914398,1.692142225640964-2.445028018108133-.361456218780404-2.724517215117885-2.98611321590397-4.38209148763417-4.172972015927371-1.077828979690821-1.199162356892884-2.589145744510461-1.872957595978733-3.693020280785277-3.041719022115103-4.232937324110026-3.145023426758598-9.004544886842268-4.681248058599522-14.244573035346548-4.989323640723342-2.051225088694991-.120595047616916-4.146630811776049-.204701827169629-6.085616514259527-1.060635256094429-3.192006397306614-3.013799729669699-4.812260606006021-7.0620121820657-7.018726674947175-10.726991697963058,10.987951293651349-8.121587611842187,13.89749646646851-17.998275207060942,8.825753072906082-29.947956627754138,1.783492571339593-.060576332571145,2.903028045295287-1.167709749558526,3.903134695052358-2.463822090222493,3.57123983488782.978315987919814,6.934178426547078.481577360247684,10.097764417236249-1.426018367104916-.525447996027651,2.611145439333995-.177816057712334,4.798455111118528,2.775687286399261,5.720573462380344-6.192717437208557,8.631947969981411-6.544030347116859,19.033972767088926-1.10156249638203,26.917110090187634,5.373677100138593,7.783486715557046,16.284481089456676,12.199614908943659,25.798764946421215,8.349659602981774.356935946145313-.144432725144725.827065802972356-.009100913172006,1.244458816743645-.004146228879108,1.100797404982586,3.59813616473366-1.632080442228471,5.740938087344148-3.236403232891462,8.255008761421777-1.537694011452913,2.409637778339857-4.062015402811085,4.110640134340429-5.116115621072822,6.899090804171465Z"/>
        <path class="cls-1" d="M76.68513741733841,115.206607543256723c-6.587823282388854-.69002150499-11.114390058592107-6.230493037195629-10.418584194216237-12.752229694870039.698106437805109-6.543322584810085,6.308159421729215-11.081958155382381,12.853759181094574-10.398914320830954,6.557975575216915.684333930726098,11.019509944993843,6.228894348005269,10.324883516017508,12.831205747480453-.709149369316947,6.740304510207352-6.009434145289561,11.027016493808333-12.760058502895845,10.31993826822054Z"/>
        <path class="cls-26" d="M84.931292762983503,122.949625421571909c3.481949371573137,2.463330475376097,4.791013422578544,6.350206759003413,6.524462512919854,9.959049923084422-2.687394242793744,2.059662676216249-6.214058170506178,2.041858639037855-9.07033930297257,3.678026209380732-1.417804013037312.470106200896225-2.658005831748596,1.248927485551576-3.791232793448216,2.21314660515327-.92700267618784.596837830076765-1.774996961179568,1.467052037493886-3.046246598183643.924170414686159-.372514991420758.20659557063027-.745023615056198.413191816610379-1.117515933432514.619725397212278-2.410450800200124-2.888235601954875-5.070426697400762-5.610678464907323-7.139426778234338-8.725662759279658-1.276468468207895-1.921783734056589-3.555807668426496-4.662920038877928.650946138090148-6.335611230862014,5.90084543845478.952695861165921,11.5918954907429.379094349228581,16.98935275526128-2.332844559375189Z"/>
        <path class="cls-1" d="M122.454551910825103,120.069086013093511c-6.562662695256222-.722556309559877-11.067114276091161-6.302905332791852-10.3643385110081-12.839872972464036.686296690762902-6.383705723179446,6.499651864018233-11.001210688566971,12.956084234516311-10.290931192381322,6.59381443464008.72540367800957,10.950128681837668,6.231227326354201,10.199960420097341,12.891454031867397-.759939936448063,6.746929113533952-6.050185418855108,10.981601583554948-12.791706143605552,10.239350132977961Z"/>
        <path class="cls-1" d="M75.547936581298927,139.724018573876492c.857354173718704-.588370603346448,1.714709698155275-1.176753942371761,2.572063871875798-1.765124545717299,5.682301088552776.508859420113367,11.331957852431515,1.089695024131288,16.955647628614315,2.23576983212206,5.438791224143642,1.108402237244263,11.117575533078707.245565519942829,16.634236406331183,1.199526836289806,1.640929289818814.283754825764845,3.340476711671727.238365532688476,4.897186492893525.952765596673999,1.761366443410225,1.113741532818494,2.433061071724296,3.116485019048923,3.74823839005694,4.594296674761608.949723751880811,3.137526432725281,1.340797934184593,6.324270310903557-2.381303847487288,7.782676478533176-3.564018347949968,1.396456044681145-5.56861119822679-.764007449875862-7.19721844722153-3.825568447457954-2.00869277356469-3.776084097959028-5.814550497469099-5.427099886800534-9.567154933940401-6.997113124695716-2.708495927206968-.695041815170953-5.46270291431756-.966063118759848-8.254343785236415-.889833149075457-1.03398738418764.006402908920791-2.067974768377098.012805817845219-3.101845216580841.019259765500465-4.727574803204334-1.278908578066876-9.687145430940291-1.554695966387044-14.305506559305286-3.306655916934687Z"/>
        <path class="cls-28" d="M92.955288357185054,143.011414725310715c2.866301981399374-.767933947157871,5.619794249661936-.489505784038556,8.254460721220312.889884187809002-2.751565764870975-.296653597972181-5.5030132430511-.593268892891501-8.254460721220312-.889884187809002Z"/>
        <path class="cls-1" d="M81.651483802192161,135.997865120465576c2.925411452173648-2.117192092504411,6.465105274195594-2.284782881581123,9.804218505274548-3.089176075102841,6.138070894219709.564229093137328,12.4117448410816.528321551917543,17.98748224560768,3.725194240867495,1.379473697314097.790939170643469,3.087124323674288,1.223850692185806,3.831897933318032,2.886722994751835-1.147899465013325,1.988476540872398-3.061224309178215,1.652823926294332-4.832399305440049,1.490155971825516-7.349677667983997-.675001142620204-14.691683021685094-1.434183105610828-22.018022964668489-2.329778689040722-1.926039062274867-.23544421618044-3.964691337292606-.400451797784626-4.773176414091722-2.683118443301282Z"/>
        <path class="cls-1" d="M81.651483802192161,135.997865120465576c1.163338184358508.818894622875632,2.441882202967463,1.231796489497356,3.873154520242679,1.376896509465041,8.032433784521345.814312126435652,16.060101486013082,1.676234472557553,24.086690446210923,2.546870919550202,1.264254120913392.137135852242864,2.495696998794301.223899628867002,3.663760760900914-.401031960987893.943268946888566,1.139435067136219,2.906668490839365,1.07622532291407,3.331970066588838,2.826341618365404-.943116038590233.177336262479912-1.901103457701538.565262866713965-2.827111746386436.499932725099825-11.138947055031167-.786010591963532-22.251399333465088-1.842540836710214-33.301044491479843-3.49184703345145-.995251209595153-.148543669384708-1.916517260850014-.347749661021226-2.358852251796634-1.395973950978259.987320938220364-.995624779312493,2.133756091448959-1.704631476105533,3.531432695719559-1.96118882706287Z"/>
      </g>
    </g>
  </a>
  <path class="cls-10" d="M129.833024028994259,106.379681649304985c3.21726140048122,0,3.222590251863949-5,0-5-3.21726140048122,0-3.222590251863949,5,0,5h0Z"/>
  <path class="cls-10" d="M85.241740827445028,102.496288718080905c3.21726140048122,0,3.222590251863949-5,0-5-3.21726140048122,0-3.222590251863949,5,0,5h0Z"/>
</svg>