<?xml version="1.0" encoding="UTF-8"?>
<svg xmlns="http://www.w3.org/2000/svg" width="280" height="280" xmlns:xlink="http://www.w3.org/1999/xlink" viewBox="0 0 280 280">
  <defs>
    <linearGradient id="linear-gradient" x1="35.656081742257811" y1="117.233514517898584" x2="216.999226718646241" y2="117.233514517898584" gradientUnits="userSpaceOnUse">
      <stop offset="0" stop-color="#a43e3f"/>
      <stop offset=".141267109143523" stop-color="#b1494a"/>
      <stop offset=".45346736321989" stop-color="#c85d5d"/>
      <stop offset=".746844825638982" stop-color="#d66969"/>
      <stop offset="1" stop-color="#db6e6e"/>
    </linearGradient>
    <linearGradient id="C4" x1="111.334910234712879" y1="-30.618435162676178" x2="141.624715086911237" y2="-30.618435162676178" gradientTransform="translate(-7.783560723682285 82.072259120658032) rotate(6.099742424194556)" gradientUnits="userSpaceOnUse">
      <stop offset="0" stop-color="#7e9e4c"/>
      <stop offset=".487868088942308" stop-color="#91a23d"/>
      <stop offset=".713373248351595" stop-color="#9d9c43"/>
      <stop offset="1" stop-color="#b4924e"/>
    </linearGradient>
    <linearGradient id="AC78" x1="72.955531811030596" y1="-5.01297149882339" x2="102.691850979266746" y2="-5.01297149882339" gradientTransform="translate(-7.783560723682285 82.072259120658032) rotate(6.099742424194556)" gradientUnits="userSpaceOnUse">
      <stop offset="0" stop-color="#dc6476"/>
      <stop offset=".5" stop-color="#f1666a"/>
      <stop offset="1" stop-color="#e17465"/>
    </linearGradient>
  </defs>
  <g id="Layer_8" data-name="Layer 8">
    <rect x="-5168.910876699139408" y="-1706.198710516209758" width="6875.234042553200197" height="4669.27659574468089" fill="#181818" stroke="#181818" stroke-miterlimit="10"/>
  </g>
  <g id="Pattern">
    <a xlink:href="https://www.notion.so/dmmnotes/images-d907be08547d4f08987667c1222a60f1?pvs=4">
      <g>
        <g>
          <path d="M216.61008673608012,122.802960581911066c-.163429815709605,1.529316345414372-.326860206911078,3.05863807595324-.490290022620684,4.587954421366703-.525922634329618,1.017468614392783-.493098815450139,2.174898011471669-.635579901389065,3.247215513130868-.821003225741151,6.178511746060394-4.311973452649909,10.903468500924646-8.317391697530184,15.274963091251266-3.965031134021046,4.327422738992027-8.867860254100378,7.359791320048316-14.426585061570222,9.290673409499504-.824766071940758.286480460556049-1.650047140179595.704594353472203-2.556069189460686.26014733863849-.486270563858852-.845483724184305-1.249896114428338-1.364985931579213-2.070647416439897-1.855756255874439-11.961043319239252-7.151960297756887-23.932733699919481-14.286147712326056-35.91131391359886-21.408565958342479-13.044598475920793-7.756288922424574-26.071315724720989-15.542589635610966-39.118497344679781-23.29458488749242-6.2439245566311-3.709825779396851-12.508391894600209-7.386498267735988-18.71004048271061-11.167857448056566-1.265089796359462-.771364436986914-2.293111082110045-1.67802101563575-2.338878649939943-3.300384889406814.390858486009165-1.723541701288013,1.267682919049548-3.274208555802943,1.76071489485912-4.961510172083763,1.971066414571396-4.602391566540973,1.053822450450753-8.790957597329907-1.969938833928609-12.57136232058383-3.682093742019788-4.603472395693643-9.913580381849897-6.298616389972267-15.13782818854088-4.276192605459073-.675474960618885.26148940549956-1.287706017470555.584274389844722-1.778749720249834,1.118599361029737-1.288057978370489.969590849386805-2.63392515059968,1.852617222188201-4.05323920912997,2.622952661987256-1.825293222400433.597473491206074-2.634277547300371,2.456065466766631-4.19367903048078,3.384083040558835-1.001238545199158.423362553511652-1.982018028109451.315839504582073-2.883366062429559-.228565550483836-5.141607126739473-3.105474702480933-10.373546762770275-6.059905569632974-15.46398155757015-9.250600767642027-.250595568310018-.157071209366222-.460599372107026-.366140915022697-.624051520544526-.617018295393791.304007022939913-.518852396213333.168378359330745-1.674858147800478.573486328125-2.288841247558594,7.565673828125-11.064567565917969,17.289465443289373-19.633288387411994,29.437983661129692-25.384806747459152.744223217940089-.352342550422691,1.493126538111028-.727378048752144,2.35467969254023-.712074570884397,3.802793539151025-.877562115308137,6.458804542800863,1.590796516790761,9.3421364283804,3.279498821670131,5.386512824150486,3.154755120271147,10.732679014789028,6.379045298192977,16.100472076919687,9.566307022442743,1.034946379979374.614526224548172,2.016749919919675,1.198851298048794,3.275462945930485.523152048582233.412220844769763-.221287255218158.930344521018924-.094786619991282,1.282612623928799.320327100539544.227384020750833.802969053386732-.453350082520046,1.174479243079986-.845683030849614,1.629352892267889-5.107859021200056,5.921999843531012-4.358353457279009,16.292611279909579,3.299662961480863,20.866963116330226,2.331292785029291,1.392547881077007,4.837933552269533,2.099591263581715,7.58204016532909,1.600916441437221,4.840683864060338.24830000928614,8.786545234290315-1.540269611452459,11.908818773150415-5.217892133457099.265340101950642-.312535089194171.573291338250783-.585974068195355.923430907379952-.808205255489156.580711662410977-.238982803944964,1.017222996159035-.77197849271306,1.683355685459901-.840435734682615,1.567598967880258.02207151179482,2.789212864079673.932112368487651,4.038802333250715,1.680575813192263,12.158227737159905,7.28239236985246,24.369279723849104,14.47609698449196,36.518873396418712,21.772716462038261.962745717941289.578199413801485,2.218435186900024,1.101277126814239,1.74177239735036,2.678726710900264-.668117221999637.854233811774975-1.690046757379605.747792581395515-2.594267553020472.924333330213813-6.760261299579724,1.319833233963436-11.496535938338639,5.119831831857482-13.720758077799474,11.65781182921728-2.278652604989475,6.6979694240963-1.259639176789278,12.957623648984736,3.420837429230232,18.39406516449526,4.691244878460566,5.448932133387643,13.555771871009711,7.525996943796599,20.84693271785909,5.027745452618547,6.766259310910755-2.318402605251322,11.304637976110826-8.446439506796196,11.843546729171067-15.938272691006205.170617944990227-2.371941525063448-.459914320070311-4.67869699610128-.48446523560051-7.033156383938149.82226502633057-1.696873156989568,1.509934111139955-1.971855195211901,3.188238882879887-1.233162768964576,1.841500055050346.810511319561556,3.45948654294989,2.014451805329372,5.184344072540625,3.027639800515317,3.198683674880158,1.878906901529263,6.361530450629289,3.821898056939972,9.585590545189916,5.656621370158973,1.601165074069286.911178788306643,2.714293854720381,1.996799646582076,2.431506051580072,3.995904470176356Z" fill="none" stroke="url(#linear-gradient)" stroke-linecap="round" stroke-linejoin="round" stroke-width="43.134372174739802"/>
          <path d="M109.930258679960389,54.995198444998096c-.058917642980305-.002208520674685-.138186928639698-.030597905840295-.173851624000235-.002886865559958-2.239188861349248,1.740176367643471-4.017910821279656.196639249356849-5.815119240040076-.864569171701987-5.780574191579944-3.41329746336487-11.598913471820197-6.769952567650762-17.267461524099417-10.36184214567038-2.127785227121421-1.348274248622147-4.184391088450866-2.289361288348118-6.711565202691418-1.965747541609744.173512528470383-1.427073952778301,1.44848652597102-1.608429217813864,2.422334413760836-2.001737514779961,5.553799412569788-2.243011822917651,11.313830194569164-3.736476220006807,17.205713770219518-4.828258945536618,6.751535860301374-1.251079273645701,13.509294644090915-1.127970020609609,20.281975813761164-.483719085267694,6.702362580379486.637561912213641,13.429002479959308,1.2058517774949,20.012679486690104,2.659370088663309,9.418110604248795,2.079295714698674,18.195958805248665,5.877799747305289,26.584721628758416,10.566147347362858,10.124892307931077,5.658648388138317,19.269812405691482,12.614226295664594,27.234981797801083,21.074757450895959,9.815287163988614,10.425718973865514,17.493770825079991,22.139614462194913,21.576726798199161,35.999349037260799,1.396616302530674,4.740839780543865,2.08072452865963,9.56767274723552,1.524122598540998,14.518851268682738-.026560488360701.236208489928686-.047170832200209.468319723839159.10628627621918.674691647180225l-.301716936999583,2.823356566993425c-.067997953679878-1.545741685788926-1.102208280090053-2.301921293551459-2.313869331030219-3.010386539164756-5.138673628060133-3.004632882059013-10.258570680800403-6.041845272807222-15.361703601989575-9.106465520473648-1.076901071459361-.646716671505601-1.752352019610043-.510227436601781-2.157106501710587.696992617929936-1.00595873400016.060635871354862-1.219073197469697-.765613557042343-1.523242520459462-1.424235121965467-2.963775842710675-6.417545882564809-7.93653468149023-9.96716626820853-14.986335492050785-10.670017697507319-1.21309209184983-.120943818478736-2.659272369399332.223399612654248-3.510058468549687-1.128358238442161-.231610819449998-.971630189284042-1.050333630439127-1.380359112159567-1.801141619440386-1.827135358881605-6.286071956190426-3.740620697874874-12.579273332608864-7.46926907240686-18.871092696939741-11.200247972507896-6.494972852069623-3.85142793842806-12.987337402259072-7.707283024514254-19.491570901860541-11.543003973676605-.65605788702851-.38689318213801-1.386144059408252-.64825508906597-2.081876969839868-.967871235469829-.329946143059715-.649224777676864.110947704730279-1.120066394287278.377077136910884-1.631738286204381,2.508427169810602-4.822883408050075,2.589147494609279-9.70724253363278-.314625473800334-14.293418247783848-2.84014146033951-4.485666596642659-7.245005820519509-6.408545063507518-12.519094564930128-6.253635892017883-1.099367647999316.032291832844749-2.226233425290047.245088735518038-3.150290504388977.972401903359241-1.980381417350145.892316204926829-4.122334790270543,1.4041865785548-6.004801276640137,2.534576744192236-1.082723743929819.081801963974613-1.870458997020251,1.009873219507426-2.97009526940019,1.044780681701013Z" fill="none" stroke="url(#linear-gradient)" stroke-linecap="round" stroke-linejoin="round" stroke-width="43.134372174739802"/>
          <path d="M37.275248273970647,96.806171267271566c.314721672370069-2.35333387312312.670880714649684-4.697337595998761,1.55780576449979-6.921903337589356,1.066399228559021-.865985286332034,2.00789230970986-.2388424251385,2.936844146070143.270952582975042,3.678879788640188,2.018926591703348,7.239312226958646,4.240560298666423,10.841745330279082,6.389356674560986,11.976479805300187,7.143767863049106,23.95977718469112,14.275971253950956,35.945921096150414,21.403506071012089,8.988340017860537,5.344887894079875,17.975208944699261,10.69268502970408,26.949066613560717,16.062130940288625,10.089493888419383,6.036990454056649,20.226616513318731,11.994255911229629,30.287842993129743,18.078628634802953.303458996289919.183496585717876.622175739139493.344201024214271.910881639500076.549029525071091,1.448013663370148,1.027443053577372,1.396224031788734,1.710753963658135-.173747009450381,2.5285461533731-.209378497040234.109062768264266-.355481769429389.309429912296764-.523905173960884.475124238659191-.470103343148367.238139520306504-.943238292558817.470497552229062-1.409819328979211.715331565985252-3.65284694275033,1.916840568628686-5.155241808979554,5.133793514472927-4.21471708809986,9.142581619873454.55354642418024,2.359448893939771,1.574091718750424,4.559250047101159,2.445635983449392,6.809871187810131,1.063184935939717,2.745479884613815,2.083692449219598,5.507531962382927,2.159142660120779,8.506227048872461-.680686869980491.346245626720702-1.261823003569589.036375821477122-1.824844914041023-.297734687514094-7.097293303279002-4.211696134538215-14.147785405610193-8.502203521475167-21.291018670010089-12.636521422169608-.206264234439004-.119373514880863-.377161539869121-.281307430439483-.532308390098478-.462081057543401-.111303194071297-.152395478298786-.183817742301471-.322181772568001-.223919117570404-.505563070664721-.223584222600039-.877008803447097-.067323756429687-1.754199072018309-.008814391690976-2.634340921080366.155821349590042-2.34388223161659-.371405279778628-4.559341984906496-1.308098733039515-6.690095190208012-1.428369769100755-2.390768798828503-3.156677457540354-4.49597593747967-5.62498635106931-5.897201940502782-4.409081900081219-1.895543221995467-8.803131264321564-2.385569172187388-13.227681246749853-.008124404972477-1.015016299490526.545408730711642-1.807200273651688,1.567201208508777-3.108060751501398,1.543119895919517-2.205663967539294-.746557177650175-4.02559816278881-2.190847815742018-6.006913848899785-3.343844088110927-2.445559604699156-1.423119530172698-4.922595742998965-2.794363130939018-7.29130493304001-4.346230869428837-.637827564220061-.417878015610768-1.331241348660114-.781979449740902-1.670269063210071-1.530072340090555-.160851909618941-1.220141577148752.790681770049559-1.748946552070265,1.534970197350049-2.362001116049214,1.702078625710783-1.401942600256007,3.060128772831376-3.040638802542162,3.813405281331143-5.138517331222829.948629022019304-2.404246299552142,1.022181511480085-4.924959395602855,1.002626474610224-7.457060301066122.551687899989702-3.39825577888314-1.022066004421504-6.090258196925788-3.115558480911204-8.442154091420889-4.130383898738728-4.640199559487883-11.532142834539627-5.750336103531481-16.93110661189894-2.676569544487393-1.226596005360989.698337579528015-2.33150204624144,1.591967112508428-3.009858630430244,2.892922650725268-.716056054940054,1.218446397914704-1.757048188919725,2.145719794857541-2.77532961101133,3.094505132841732-1.187656660418725.90031474326679-1.89212611001858,2.129073414444065-2.385599273979096,3.501632860557947-.213483942319726.593776598727345-.321376949599653,1.238553912839961-.818661380310004,1.696664577281808-1.341481913110329.981980851181106-2.557033647350181.42537108727447-3.777558747409785-.291639451640549-5.244713890670027-3.081106453983011-10.458058083910146-6.215102433136053-15.679517000000487-9.335041840218764-1.362143141079287-.813909212201906-.552694400528708,8.328237519609502-2.234252698388445,9.194704114161141-1.13150159729048-1.103314111586769-2.912994376030838-12.648777207447893-2.834707772151887-13.939605177706653.174603533771005-2.87893396153504.034061155600284-5.778245217332369.502882640170355-8.638640739770381.02984748974086-1.213809400064747.468492007390523-2.404335911877752.209739823720156-3.635113856928001l.226287702749687-2.117517425245751c.566419888389646-1.117367481240763.200948194409648-2.412774373160573.677760871210921-3.547261269140108Z" fill="none" stroke="url(#linear-gradient)" stroke-linecap="round" stroke-linejoin="round" stroke-width="43.134372174739802"/>
          <path d="M115.568048201790589,199.814823752858501c-.026415869340781-.090284804929979-.036392946010892-.182353189855348-.029926995530332-.276193809013421,1.560947773748921-1.055488509258794,4.784459505410268-.71757776933373,6.112952107339879.640807344696441-.019884685500074.0945308143273-.047570200960763.186724727758701-.083055395391057.27657097005067l-5.999969716418491-.64118450573369Z" fill="none" stroke="url(#linear-gradient)" stroke-linecap="round" stroke-linejoin="round" stroke-width="43.134372174739802"/>
          <path d="M146.007703673749347,155.641542750425288c.060877246611199-.226228605635697.055607737900573-.593142531404737.192585802849862-.657556718080741,1.978196844431295-.930234847704924.81686851448103-1.337901884460734-.241010347588599-1.956191416382353-4.635924565340247-2.709490644854668-9.237496491170532-5.477739408390335-13.851771923980778-8.224262936280866-10.850655080750585-6.458549559729363-21.705472929570533-12.91010388415998-32.550792188409105-19.377603931477097-7.501176171750558-4.473239301575632-14.981065581461735-8.982210341347127-22.485399296259857-13.450138923820305-9.024325887970917-5.372889286551981-18.065142522051246-10.718074616391277-27.097409276331746-16.077629492578126-2.892705868989651-1.716470122490136-5.792612719998942-3.421362279340428-8.663530395329872-5.173646720316356-.7791801828389-.475576207152699-1.56485364764012-.814526040310739-2.477349610539022-.840247631304919,1.819980651460355-7.338101850742532,4.800064490200384-14.163809190124084,9.027902376170459-20.438436066737268,1.865404998348822.481799537039478,3.297763123258846,1.779593016958643,4.927820795859589,2.690675850396474,3.591647565799576,2.007461306618097,7.069164885830105,4.219499026475205,10.587138579279781,6.358120441723258,1.020658822999394.620466711208792,2.042391129689349,1.185116761318568,3.30088146289927.797801969112697.511763879081627.600631778523166.052840546160951,1.08584842565233-.177152327500153,1.611139663615177-3.074861731569399,7.022893772518728-.876767493198713,14.524285437887556,5.53398776206086,18.294210763459887,2.55102880332015,1.500158437281243,5.3553692907808,1.622414015221693,8.21080323076967,1.28877886387545,4.271411834630271-.125977331215836,7.789425069109711-1.830369530600365,10.61765431718959-5.021454690037899.434541458511376-.490300420735366.806779723330692-1.20949743467645,1.69238719886016-.894367105433048.164974882191018,1.001736837752105.734929482430744,1.651773424919156,1.61417579377121,2.171490877229189,8.024869221299014,4.743451951152565,16.033688760770019,9.51409943757335,24.041410968889977,14.286503296636511,5.981070060639468,3.564579057331684,11.949130263219558,7.150997671057667,17.93096524433895,10.714280475539454,9.377379567131356,5.585945051242561,18.766231257881373,11.15261497514166,28.141250493599728,16.742501690686368,7.500768760750361,4.472362430329667,14.987419767370739,8.968368680312778,22.482704301881313,13.449948963487259.708394612040138.42356728456798,1.432112387479719.821691460310831,2.151451196159542,1.226744194365892.803546538420051.452472044820752,1.513803377079967.96391808347289,1.370311120899714,2.048246264486806-6.029268312458953,1.463734845194267-12.1116284098498,2.225358073797906-18.315162266499101,1.384587499800546-1.770937752131431.182263604539912-3.495866370940348-.255109485900903-5.241316381141587-.403913028783791-4.386234649189646-.373951169871361-8.742870006919475-1.053323133593949-13.142732028209139-1.294351488117172-2.554091276899271-.031460495800275-5.089186324670663.130383563533542-7.579804603690718.744769334934972Z" fill="none" stroke="url(#linear-gradient)" stroke-linecap="round" stroke-linejoin="round" stroke-width="43.134372174739802"/>
          <path d="M112.598038430060114,53.492907996916983c1.792271792050087-1.383773367142567,3.926828979239872-1.941167251630759,6.057247376060332-2.508559527630496,5.561382753880025-1.818541936808288,11.740660042409218.609510004201184,15.303246556959493,6.013181163189984,3.329154638300679,5.049614675403063,3.227247202419676,11.60303607978949-.248412687969903,16.109084282109507-.145617525200578.188787788365516-.291625115660281.369298597552188-.533017035460944.437856926142558-3.265867368039835,4.297184896793624-7.524599992859294,6.512831680472118-12.991335704129597,6.195907743058342-11.118793879790246.007170221279921-17.26579758582011-11.679297912706716-12.536047169320227-20.888793317183627,1.125340332269843-2.19120904101419,2.651167585270741-4.171719853209652,4.948318663860846-5.358677269686268Z" fill="none" stroke="url(#linear-gradient)" stroke-linecap="round" stroke-linejoin="round" stroke-width="43.134372174739802"/>
          <path d="M92.554449833749459,94.570734670159254c-3.058781058200111,4.050951778899616-6.973092555259427,6.521850009246918-12.184772176098704,6.596676047980509-9.347506063280889.248609648887395-14.512620774581592-5.96367490036846-15.114688558720445-12.702802943045754-.455038716230774-5.093372089365403,1.092387548689658-9.534674123226978,5.394771545339609-12.706241734189462,1.276902084329777-.798936596198473,2.553806573649126-1.597870212076486,3.830708657989817-2.39680680827405,3.425699749110208-2.05966577892741,7.10814682398086-2.104353289288156,10.729400955189703-.91742371005239,7.451843413209644,2.442476962213732,11.200588939611407,9.582154590231767,9.307455600101093,17.303234255257848-.611416989760983,1.625233229704463-1.101470438790784,3.29985205441335-1.962876023801073,4.823364892323298Z" fill="none" stroke="url(#linear-gradient)" stroke-linecap="round" stroke-linejoin="round" stroke-width="43.134372174739802"/>
          <path d="M133.177102639649092,73.544470840728536c4.924607479200859-7.684856557509192,2.068794729440924-16.662282763428266-4.456684345188478-20.588095473122848-3.126971864799998-1.881228468789232-6.519204684651413-2.288537993851605-10.064966527779688-1.972101755610311,1.625755193339501-1.435063474748858,3.678865741369009-1.247078799027804,5.556253858478158-1.181075260169564,6.830149103241638.240131380928688,12.512336252801106,5.915231169548861,13.176793346061459,12.706857037188456.372401001030084,3.806621514389008-.848873551671204,7.046165295552782-2.876389948251017,10.112189225036673-.445613568070257.30653820835596-.714260037910208.869185676846428-1.335006383320433.922226226677594Z" fill="none" stroke="url(#linear-gradient)" stroke-linecap="round" stroke-linejoin="round" stroke-width="43.134372174739802"/>
          <path d="M112.598038430060114,53.492907996916983c-2.220179840840501,2.13280829143423-4.136423623060182,4.420489037673178-5.125608798680332,7.456395395861364-2.842014106110582,8.722428541593217,3.359689409440762,17.851849719198071,11.8461886258101,18.633451239878923.291651245239336.026853474610107.57870712049953.10364070873311.86752269515091.157386142489486-7.575724786880528,1.053751107653625-15.396442690991535-6.305300149211689-15.001698745971225-13.868941962853569.224677883030381-4.305137949032542,1.642260653230551-7.913970252678155,4.746139805371058-10.875916794951991.710480679659668-.817713189341703,1.545587596059704-1.414627283787013,2.667456418319489-1.502374020424213Z" fill="none" stroke="url(#linear-gradient)" stroke-linecap="round" stroke-linejoin="round" stroke-width="43.134372174739802"/>
          <path d="M70.649760644269918,75.758366040904548c-5.648029125630273,6.123773707033251-6.436734642140436,12.800366618161206-2.103438853569969,19.339924773132225,2.03608675426949,3.072749348766592,5.01649138015091,4.950345194772126,8.659593506170495,5.669745667079042,1.040723490139499.205508473193731,2.109327987609504.269846097527079,3.16445430253043.399143170193383-9.706149945041034,1.221879274180537-16.558155247790637-6.556409645598251-15.940891436181118-14.523142918124904.205503376540946-2.652309397498357.91882081930089-5.078025709431131,2.247410359359492-7.351575068989405,1.247802132720608-1.263941825805887,2.144360466951184-2.922815740334045,3.972872121690671-3.534095623290341Z" fill="none" stroke="url(#linear-gradient)" stroke-linecap="round" stroke-linejoin="round" stroke-width="43.134372174739802"/>
          <path d="M94.517325857550532,89.747369777835956c.774089666960208-5.451733128606975-.486819160800223-10.274966016128928-4.757311893530641-13.936456229957912-4.537309061839551-3.890259453126419-9.730891649320256-4.470577438712098-15.279515720449126-2.449370285625264-.200856625850065-.523379009426208.240547765359224-.575383342484201.537950170859403-.716597207546329,8.991956728170408-4.269729359078156,19.103800879660412,1.219646765302059,20.240054638969013,11.050381412864226.235001841541816,2.033212726643796.071340956101267,4.104263696072849-.74117719584865,6.052042310265279Z" fill="none" stroke="url(#linear-gradient)" stroke-linecap="round" stroke-linejoin="round" stroke-width="43.134372174739802"/>
          <path d="M121.651073313600136,200.179437288541521c-2.037608538030327-.213674195078056-4.075206305200481-.427347239132359-6.112881358050799-.640908716570266-9.630918226768699-1.608213228349996-18.398601387099916-5.535070670201094-26.854715810399284-10.1957893810104-11.658817400550106-6.425915687817906-22.436077677599314-14.032242978086288-31.190375581340049-24.214969153636048-11.221021986380947-13.05190933700942-18.292961046490746-28.007422203600072-20.634293517730839-45.121507616086092-.06350256981932-.464150061559849-.054363437619031-.938249715164602-.079122759620077-1.407671259839844.647640635630523-1.78369882208699.882472287810742-1.853810607812193,2.469656873630811-.899349145879569,6.048014234149377,3.63704893236627,12.1146652872103,7.243300806840125,18.145563466840031,10.90842260246427.85712800958936.520899540329083,1.660639078610984.45296468896322,2.5341134167993.292669824041695.761110445870145.554429513873401.638952043160316,1.355863206673348.510460963971127,2.098482899264127-1.185443008200309,6.851314467985503,4.105186978169513,13.751097199285141,11.796727444168937,15.019935355954658,1.67762623057024.276751673083709,3.528888957680465.139248441224481,5.108933731569778-.865321273433437,1.33628404080082-.56429008775558,2.766289825991407-.849229095785631,4.117386418851311-1.376587658085555.486523881500034-.189903259206403,1.008727245169212-.301178821158828,1.490229028649992.063424867359572,3.928242300638885,2.328189032010414,7.880893341989577,4.616764268175757,11.768256658779137,7.011314638020849,1.023479274339479.630441321327453,2.352540867370408.855782544040267,3.004554188950351,2.04222452758404.261235631929594,1.381849454159237-.87558972899933,1.89126724669768-1.635922616049356,2.639066935103983-1.687819184320688,1.07217009836495-2.698706979730559,2.701364362545064-3.203199338460763,4.531842156220591-2.80634433970954,10.182444237188975,3.012379928790324,17.088029751510476,11.76350118477967,18.370829447419965,1.665074761431242.244070492426545,3.415502544759875-.015493842702199,4.952402970549883-.928018378122943,3.382323888441533-1.095542850423953,6.594912770060546-2.428832235091249,8.804515388430445-5.459643230024085.809131665129826-1.109839766588266,1.367008698691279-2.311540665023131,1.894806900530966-3.550900374613775.239541271419512-.562473470492478.291294698099591-1.319862331592958,1.196439314799136-1.253254221697716,2.078575617870229.276004202563854,3.610899054490801,1.681117158472262,5.314567184290354,2.677492824583169,6.096909373080052,3.565705457349395,12.122670095230205,7.253034234227016,18.175299594309763,10.894345438731762.744002862669731,8.655521574943123-7.113300802400772,16.773153208614531-15.255778081769677,18.627694825712751-2.659996533060621.605827712703103-5.345604366240877.949768128952201-8.081125666480148.736174066538297Z" fill="none" stroke="url(#linear-gradient)" stroke-linecap="round" stroke-linejoin="round" stroke-width="43.134372174739802"/>
          <path d="M153.587508277440065,154.896773415490316c.498081432489926-.284343557363172,1.030342489499162-.178204415289656,1.552376345929588-.122036200027651,5.610813325780327.603725995249988,11.22107920740018,1.212676713052133,16.831579729550867,1.820247276715236-.401894665061263.042596349321684-.811377997169984.157529894569961-1.204739658060134.116811531643179-5.727664753319914-.592781904018921-11.453190870181061-1.206391910594903-17.179216417420321-1.815022608330764Z" fill="none" stroke="url(#linear-gradient)" stroke-linecap="round" stroke-linejoin="round" stroke-width="43.134372174739802"/>
          <path d="M120.204935134699554,156.990305617495324c1.824739782990946,3.115545104825287,2.083137802990677,6.439771264966112,1.31917980092112,9.900190382901201-1.939457630891411,1.513023998533754-4.368740571700982,1.725837942467479-6.604939500981345,2.398240031936439-5.766286010479234,1.733886306095883-11.529697542669965,3.483842321149496-17.346226251320331,5.055899748491356-.560972012588536.01914780601146-1.052409998388612-.189426190961967-1.429456780799228-.572932697796205-2.090822504089374-2.126615991459403-3.157840245588886-4.742189549324394-3.556424479689667-7.654588331966806-.064058872390888-.468033040444425.111592979619672-.925689137582594.419743129890776-1.308129202532655,1.783058303948565-1.265445586488568,3.957842129078927-1.447809417653843,5.963244178379682-2.067359180684434,6.186107690238714-1.911157320288112,12.427032805289855-3.642894487040394,18.630658961428708-5.498606712588298.85994545848007-.257252616342157,1.714529168060835-.389762296425033,2.604220942170286-.252714037760597Z" fill="none" stroke="url(#linear-gradient)" stroke-linecap="round" stroke-linejoin="round" stroke-width="43.134372174739802"/>
          <path d="M89.929533726830414,128.981774549144575c.014982599179348,2.384411822158654.162950950099912,4.784124441365748-.764024338761374,7.065052937248765-.130242609749985.320460793248458-.311909612888485.620023086296897-.469771792370011.929253456635706-.876156155429271.747644501949253-1.942431815989039,1.058675613717242-3.023318511479374,1.36819978897438-5.992357605698999,1.715914614643225-11.986313276549481,3.427083288773247-17.935429900689996,5.29488464559563-2.989275893209197-.539665731825153-6.342567340780079-4.832535078329784-5.879594266980348-7.519977139050752.532291942379743-.60383584680676,1.249612702651575-.852070735994857,1.996639868129932-1.072490535860197,7.594114052380974-2.240702194862934,15.210188000410199-4.406356120913188,22.796813101291264-6.672956661659555.933655962518969-.278939844384695,1.909522590429333-.752965833133203,2.907303345959008-.132209772910755.212561273890969.201941879226979.263227445881057.485450012285582.371382494900899.740243281026778Z" fill="none" stroke="url(#linear-gradient)" stroke-linecap="round" stroke-linejoin="round" stroke-width="43.134372174739802"/>
          <path d="M120.204935134699554,156.990305617495324c-2.02479907543966,1.144906157434889-4.313083042679864,1.516546088925679-6.499194174199147,2.171893382248527-6.275304586541097,1.881167809009639-12.570755446540716,3.695291619605996-18.863358467940998,5.518292749067768-.558536247130178.161804632563872-1.153988141018999.196200222937478-1.732292873588449.289770292314643-.673434733080285-.252881401338527-.800613275410797-.819892826890282-.770077030851098-1.432206990484701.115549111589644-2.316737104069034.505216641900915-4.555760162002116,1.957429056879846-6.467770685594587,6.736883970050258-2.143420855914883,13.471920456109729-4.30446833827591,20.383942773130912-5.84881356146434,2.475794137009871,1.315381021309804,4.272240109368795,3.281159476689936,5.523550716568934,5.76883481391269Z" fill="none" stroke="url(#linear-gradient)" stroke-linecap="round" stroke-linejoin="round" stroke-width="43.134372174739802"/>
          <path d="M97.566713927230012,174.121932391746668c1.214347760809687-1.451264211009402,3.072522699099864-1.330654016832341,4.651605845319864-1.817744740768831,5.833101069551049-1.799360526802047,11.705630393029423-3.47132672702719,17.569753395440785-5.169016976306011.555691933168418-.160877652149793,1.156280942559533-.166685047926876,1.736031409009229-.244577742019828-.008592220150604.117611220068284-.017193647960084.235308602141231-.025900070189891.353071016756076-1.641464166999867,5.927745243610843-5.648608273560967,9.348379917448256-11.481996853719465,10.833700971361395-3.976892984170263.915043650940788-7.754164507430687.613402212587971-11.173982460901243-1.842643804870022-.723601143279666-.51965856584502-1.453631471238623-1.044601134472032-1.275511264959277-2.112788724152779Z" fill="none" stroke="url(#linear-gradient)" stroke-linecap="round" stroke-linejoin="round" stroke-width="43.134372174739802"/>
          <path d="M62.980405006370347,123.519207822128919c.844103555458787-.945688548181352,1.688205569180354-1.891388154365814,2.532306431940015-2.837076990300375,3.414611287360458-3.678906471810478,7.636755738079955-5.019941901165112,12.542999065190088-4.245349356624502,1.912729609830421.301979393081638,3.778480009379564.809695473684769,5.393615392558786,1.978080728787063.578519613540266.418506325464477,1.17255984682015.797641839960306,1.274165580391127,1.587388870625546-.129718147170934,1.167624773473108-1.047684056109574,1.462593182915043-1.960551954820403,1.753079155650994-6.183251104410374,1.967584598615758-12.449410159169929,3.655089197744019-18.666922850099581,5.507204153990642-.893371617510638.26613152416212-1.88731144447047.507964664762767-2.487793966640311-.617033674140657-.183714304190289-1.322857100216424.873136780290224-2.101910666249751,1.372182301480279-3.126292887988711Z" fill="none" stroke="url(#linear-gradient)" stroke-linecap="round" stroke-linejoin="round" stroke-width="43.134372174739802"/>
          <path d="M67.685275688349066,143.346471247697991c.546785291051492-.814411226247103,1.473161558700667-.970054925139266,2.296685587070897-1.213999266337851,5.647979591769399-1.673010550624895,11.308114033250604-3.305245049406039,16.971201495589412-4.926630204535286.557119414421322-.159505061202253,1.160615330691144-.157038847652984,1.742580210109736-.229760258284841-.970690586629644,3.077477006292611-3.347609336718961,4.978555855021114-5.742972344849477,6.864199611332879-1.657544942099776.792289845179766-3.365547427320053,1.443926111631299-5.161089815099331,1.851588697867555-2.833293642899662.817918428727353-5.621418223860019.664541723517686-8.334481308149407-.471162252884824-.832638932661212-.348565730593691-1.824027894850587-.645403405542311-1.771923824671831-1.874236327157632Z" fill="none" stroke="url(#linear-gradient)" stroke-linecap="round" stroke-linejoin="round" stroke-width="43.134372174739802"/>
          <path d="M114.681384418130619,151.221470803582633c-.761875608930495,1.082329850913084-2.052224328290322,1.096942683558154-3.131055889460185,1.427960992052249-4.92902748241977,1.512368304942356-9.890379138740172,2.919757233881683-14.845029942649489,4.347829569287569-.67253217274083.193838191878967-1.366032834901489.362374589378305-2.081951391870462.205857320412179-.229072357640689-1.111647603544043.59137157747864-1.658459256461356,1.237469236049947-2.299098445086202.621587200310387-.670055878008498,1.243170166138952-1.340123101774225,1.864748897509344-2.010201671308096,3.909838426719944-3.137580018272274,8.275646663450971-4.343502509807877,13.237197614869729-3.222689042899219,1.346823987671087.304243759863311,2.486072903690001,1.019137378114465,3.718621475551117,1.55034127754152Z" fill="none" stroke="url(#linear-gradient)" stroke-linecap="round" stroke-linejoin="round" stroke-width="43.134372174739802"/>
          <path d="M67.685275688349066,143.346471247697991c3.031795239530766,2.232717351611427,6.489917513610635,2.629087461993549,10.106089410850473,2.345702531200004-4.083214535668958,2.100871308866772-10.776571069520287.434629574472638-14.209839276820276-3.237450879079915-3.673751078318674-3.929293751037221-4.65355203828949-8.438880457241794-3.652228496568569-13.554325932675056.531383592679049-2.068965753664088,1.278673413018623-4.01561039293847,3.051097321929774-5.38109221276045.010321859139367,1.135493141118786-1.115732393280268,1.891966149844848-1.019729428369828,3.056147162586058.370902414630109,1.383470913326164.259918615349306,2.791883154422976-.032333894920157,4.143211760605482-.406529769919871,1.879693809692981.798498508318517,3.690505920064425.108380202118497,5.548151229045288.953867782540328,3.100998223156239,2.887938876361659,5.42002427656189,5.648564161780087,7.079656341078589Z" fill="none" stroke="url(#linear-gradient)" stroke-linecap="round" stroke-linejoin="round" stroke-width="43.134372174739802"/>
          <path d="M84.480274745930728,120.080137816991737c-4.661283105810071-4.168208356714786-12.187076501480988-4.362155252796583-17.546983549340439-.451093906922324-.475905107979997.347274430590915-.946833659059848.701371529405151-1.42032483920957,1.052689326944346.908404087020244-1.95214509114885,2.695550805628955-2.954664635918562,4.489628830029687-3.761841051977171,7.434551986589213-3.344927053852189,17.421998264779177-.30989339738062,19.828604033549709,9.607974930037017.197592309259562.814307433724025.266755953409302,1.626992784294089.098315094639474,2.453273551350321-.10919143315914-.157986799848004-.218401126609024-.316618252668377-.327611971018996-.475238935238849-.329537314890331-.403091737473005-.752796028631565-.73664559154804-.900939321720216-1.271856009323528-.594149562180974-2.146478541572833-1.932174750960257-3.83983663599065-3.35921933813006-5.47498443612858-.429548856380279-.492183581032805-.797518448929623-1.004567565830257-.86146893879959-1.678923468741232Z" fill="none" stroke="url(#linear-gradient)" stroke-linecap="round" stroke-linejoin="round" stroke-width="43.134372174739802"/>
          <path d="M95.86081643020043,154.904020240248428c-.412243673410558.766425124489615-.824491581281109,1.532838903216543-1.237102245360802,2.29918123639618-1.363910859439784,2.421599395029261-1.744994957089148,5.034600760336616-1.51335377416035,7.767024143049639.318104919570033,3.618754894458107,1.691178352970383,6.723865092868436,4.456483419829965,9.151306710718927,2.84248526554984,2.893184053034929,6.356996566100861,4.063924464255251,10.339464273851263,4.025598652102417.703356153990171-.00677511588583,1.406414838958881-.045477448935344,2.109756117599318-.069596204257323-4.596101660030399,2.192020440614215-11.36480840393051.482149088529695-15.132533265479651-3.677524849685142-4.565434858979643-5.040324052049982-4.419866342499517-13.098886437826877-.669116619919805-17.97292293216924.45185036463954-.587181658373083.805484395799795-1.333976831267137,1.646402093640063-1.523066756155458Z" fill="none" stroke="url(#linear-gradient)" stroke-linecap="round" stroke-linejoin="round" stroke-width="43.134372174739802"/>
          <path d="M84.480274745930728,120.080137816991737c2.81782961250974,2.133599263937867,4.59776223785957,4.898016162408567,5.121652223870115,8.425788332253433-3.393462241321686.52721741762798-6.588003645030767,1.787653296159078-9.876324602781096,2.699908380383022-5.909494467159675,1.639442946250711-11.793964807269731,3.369043755906205-17.688890840450767,5.060980376991211-1.35573209292852-3.220032634202653-1.273577847588967-6.451308064418299-.075981291278367-9.691334255250695.376784618949387.497737762310862.871627948989044.289976279150324,1.302652304009825.163946012968154,6.746031590699204-1.9724106009553,13.489169636010047-3.954825409693512,20.224814731080187-5.962311104837681.367307078278827-.109473373412584.663031094958569-.459123701744829.992077475550104-.696977742507443Z" fill="none" stroke="url(#linear-gradient)" stroke-linecap="round" stroke-linejoin="round" stroke-width="43.134372174739802"/>
        </g>
        <g>
          <path d="M216.61008673608012,122.802960581911066c-.163429815709605,1.529316345414372-.326860206911078,3.05863807595324-.490290022620684,4.587954421366703-.525922634329618,1.017468614392783-.493098815450139,2.174898011471669-.635579901389065,3.247215513130868-.821003225741151,6.178511746060394-4.311973452649909,10.903468500924646-8.317391697530184,15.274963091251266-3.965031134021046,4.327422738992027-8.867860254100378,7.359791320048316-14.426585061570222,9.290673409499504-.824766071940758.286480460556049-1.650047140179595.704594353472203-2.556069189460686.26014733863849-.486270563858852-.845483724184305-1.249896114428338-1.364985931579213-2.070647416439897-1.855756255874439-11.961043319239252-7.151960297756887-23.932733699919481-14.286147712326056-35.91131391359886-21.408565958342479-13.044598475920793-7.756288922424574-26.071315724720989-15.542589635610966-39.118497344679781-23.29458488749242-6.2439245566311-3.709825779396851-12.508391894600209-7.386498267735988-18.71004048271061-11.167857448056566-1.265089796359462-.771364436986914-2.293111082110045-1.67802101563575-2.338878649939943-3.300384889406814.390858486009165-1.723541701288013,1.267682919049548-3.274208555802943,1.76071489485912-4.961510172083763,1.971066414571396-4.602391566540973,1.053822450450753-8.790957597329907-1.969938833928609-12.57136232058383-3.682093742019788-4.603472395693643-9.913580381849897-6.298616389972267-15.13782818854088-4.276192605459073-.675474960618885.26148940549956-1.287706017470555.584274389844722-1.778749720249834,1.118599361029737-1.288057978370489.969590849386805-2.63392515059968,1.852617222188201-4.05323920912997,2.622952661987256-1.825293222400433.597473491206074-2.634277547300371,2.456065466766631-4.19367903048078,3.384083040558835-1.001238545199158.423362553511652-1.982018028109451.315839504582073-2.883366062429559-.228565550483836-5.141607126739473-3.105474702480933-10.373546762770275-6.059905569632974-15.46398155757015-9.250600767642027-.250595568310018-.157071209366222-.460599372107026-.366140915022697-.624051520544526-.617018295393791.304007022939913-.518852396213333.168378359330745-1.674858147800478.573486328125-2.288841247558594,7.565673828125-11.064567565917969,17.289465443289373-19.633288387411994,29.437983661129692-25.384806747459152.744223217940089-.352342550422691,1.493126538111028-.727378048752144,2.35467969254023-.712074570884397,3.802793539151025-.877562115308137,6.458804542800863,1.590796516790761,9.3421364283804,3.279498821670131,5.386512824150486,3.154755120271147,10.732679014789028,6.379045298192977,16.100472076919687,9.566307022442743,1.034946379979374.614526224548172,2.016749919919675,1.198851298048794,3.275462945930485.523152048582233.412220844769763-.221287255218158.930344521018924-.094786619991282,1.282612623928799.320327100539544.227384020750833.802969053386732-.453350082520046,1.174479243079986-.845683030849614,1.629352892267889-5.107859021200056,5.921999843531012-4.358353457279009,16.292611279909579,3.299662961480863,20.866963116330226,2.331292785029291,1.392547881077007,4.837933552269533,2.099591263581715,7.58204016532909,1.600916441437221,4.840683864060338.24830000928614,8.786545234290315-1.540269611452459,11.908818773150415-5.217892133457099.265340101950642-.312535089194171.573291338250783-.585974068195355.923430907379952-.808205255489156.580711662410977-.238982803944964,1.017222996159035-.77197849271306,1.683355685459901-.840435734682615,1.567598967880258.02207151179482,2.789212864079673.932112368487651,4.038802333250715,1.680575813192263,12.158227737159905,7.28239236985246,24.369279723849104,14.47609698449196,36.518873396418712,21.772716462038261.962745717941289.578199413801485,2.218435186900024,1.101277126814239,1.74177239735036,2.678726710900264-.668117221999637.854233811774975-1.690046757379605.747792581395515-2.594267553020472.924333330213813-6.760261299579724,1.319833233963436-11.496535938338639,5.119831831857482-13.720758077799474,11.65781182921728-2.278652604989475,6.6979694240963-1.259639176789278,12.957623648984736,3.420837429230232,18.39406516449526,4.691244878460566,5.448932133387643,13.555771871009711,7.525996943796599,20.84693271785909,5.027745452618547,6.766259310910755-2.318402605251322,11.304637976110826-8.446439506796196,11.843546729171067-15.938272691006205.170617944990227-2.371941525063448-.459914320070311-4.67869699610128-.48446523560051-7.033156383938149.82226502633057-1.696873156989568,1.509934111139955-1.971855195211901,3.188238882879887-1.233162768964576,1.841500055050346.810511319561556,3.45948654294989,2.014451805329372,5.184344072540625,3.027639800515317,3.198683674880158,1.878906901529263,6.361530450629289,3.821898056939972,9.585590545189916,5.656621370158973,1.601165074069286.911178788306643,2.714293854720381,1.996799646582076,2.431506051580072,3.995904470176356Z" fill="#f8a797" stroke-width="0"/>
          <path d="M109.930258679960389,54.995198444998096c-.058917642980305-.002208520674685-.138186928639698-.030597905840295-.173851624000235-.002886865559958-2.239188861349248,1.740176367643471-4.017910821279656.196639249356849-5.815119240040076-.864569171701987-5.780574191579944-3.41329746336487-11.598913471820197-6.769952567650762-17.267461524099417-10.36184214567038-2.127785227121421-1.348274248622147-4.184391088450866-2.289361288348118-6.711565202691418-1.965747541609744.173512528470383-1.427073952778301,1.44848652597102-1.608429217813864,2.422334413760836-2.001737514779961,5.553799412569788-2.243011822917651,11.313830194569164-3.736476220006807,17.205713770219518-4.828258945536618,6.751535860301374-1.251079273645701,13.509294644090915-1.127970020609609,20.281975813761164-.483719085267694,6.702362580379486.637561912213641,13.429002479959308,1.2058517774949,20.012679486690104,2.659370088663309,9.418110604248795,2.079295714698674,18.195958805248665,5.877799747305289,26.584721628758416,10.566147347362858,10.124892307931077,5.658648388138317,19.269812405691482,12.614226295664594,27.234981797801083,21.074757450895959,9.815287163988614,10.425718973865514,17.493770825079991,22.139614462194913,21.576726798199161,35.999349037260799,1.396616302530674,4.740839780543865,2.08072452865963,9.56767274723552,1.524122598540998,14.518851268682738-.026560488360701.236208489928686-.047170832200209.468319723839159.10628627621918.674691647180225l-.301716936999583,2.823356566993425c-.067997953679878-1.545741685788926-1.102208280090053-2.301921293551459-2.313869331030219-3.010386539164756-5.138673628060133-3.004632882059013-10.258570680800403-6.041845272807222-15.361703601989575-9.106465520473648-1.076901071459361-.646716671505601-1.752352019610043-.510227436601781-2.157106501710587.696992617929936-1.00595873400016.060635871354862-1.219073197469697-.765613557042343-1.523242520459462-1.424235121965467-2.963775842710675-6.417545882564809-7.93653468149023-9.96716626820853-14.986335492050785-10.670017697507319-1.21309209184983-.120943818478736-2.659272369399332.223399612654248-3.510058468549687-1.128358238442161-.231610819449998-.971630189284042-1.050333630439127-1.380359112159567-1.801141619440386-1.827135358881605-6.286071956190426-3.740620697874874-12.579273332608864-7.46926907240686-18.871092696939741-11.200247972507896-6.494972852069623-3.85142793842806-12.987337402259072-7.707283024514254-19.491570901860541-11.543003973676605-.65605788702851-.38689318213801-1.386144059408252-.64825508906597-2.081876969839868-.967871235469829-.329946143059715-.649224777676864.110947704730279-1.120066394287278.377077136910884-1.631738286204381,2.508427169810602-4.822883408050075,2.589147494609279-9.70724253363278-.314625473800334-14.293418247783848-2.84014146033951-4.485666596642659-7.245005820519509-6.408545063507518-12.519094564930128-6.253635892017883-1.099367647999316.032291832844749-2.226233425290047.245088735518038-3.150290504388977.972401903359241-1.980381417350145.892316204926829-4.122334790270543,1.4041865785548-6.004801276640137,2.534576744192236-1.082723743929819.081801963974613-1.870458997020251,1.009873219507426-2.97009526940019,1.044780681701013Z" fill="#f9b5a1" stroke-width="0"/>
          <path d="M37.275248273970647,96.806171267271566c.314721672370069-2.35333387312312.670880714649684-4.697337595998761,1.55780576449979-6.921903337589356,1.066399228559021-.865985286332034,2.00789230970986-.2388424251385,2.936844146070143.270952582975042,3.678879788640188,2.018926591703348,7.239312226958646,4.240560298666423,10.841745330279082,6.389356674560986,11.976479805300187,7.143767863049106,23.95977718469112,14.275971253950956,35.945921096150414,21.403506071012089,8.988340017860537,5.344887894079875,17.975208944699261,10.69268502970408,26.949066613560717,16.062130940288625,10.089493888419383,6.036990454056649,20.226616513318731,11.994255911229629,30.287842993129743,18.078628634802953.303458996289919.183496585717876.622175739139493.344201024214271.910881639500076.549029525071091,1.448013663370148,1.027443053577372,1.396224031788734,1.710753963658135-.173747009450381,2.5285461533731-.209378497040234.109062768264266-.355481769429389.309429912296764-.523905173960884.475124238659191-.470103343148367.238139520306504-.943238292558817.470497552229062-1.409819328979211.715331565985252-3.65284694275033,1.916840568628686-5.155241808979554,5.133793514472927-4.21471708809986,9.142581619873454.55354642418024,2.359448893939771,1.574091718750424,4.559250047101159,2.445635983449392,6.809871187810131,1.063184935939717,2.745479884613815,2.083692449219598,5.507531962382927,2.159142660120779,8.506227048872461-.680686869980491.346245626720702-1.261823003569589.036375821477122-1.824844914041023-.297734687514094-7.097293303279002-4.211696134538215-14.147785405610193-8.502203521475167-21.291018670010089-12.636521422169608-.206264234439004-.119373514880863-.377161539869121-.281307430439483-.532308390098478-.462081057543401-.111303194071297-.152395478298786-.183817742301471-.322181772568001-.223919117570404-.505563070664721-.223584222600039-.877008803447097-.067323756429687-1.754199072018309-.008814391690976-2.634340921080366.155821349590042-2.34388223161659-.371405279778628-4.559341984906496-1.308098733039515-6.690095190208012-1.428369769100755-2.390768798828503-3.156677457540354-4.49597593747967-5.62498635106931-5.897201940502782-4.409081900081219-1.895543221995467-8.803131264321564-2.385569172187388-13.227681246749853-.008124404972477-1.015016299490526.545408730711642-1.807200273651688,1.567201208508777-3.108060751501398,1.543119895919517-2.205663967539294-.746557177650175-4.02559816278881-2.190847815742018-6.006913848899785-3.343844088110927-2.445559604699156-1.423119530172698-4.922595742998965-2.794363130939018-7.29130493304001-4.346230869428837-.637827564220061-.417878015610768-1.331241348660114-.781979449740902-1.670269063210071-1.530072340090555-.160851909618941-1.220141577148752.790681770049559-1.748946552070265,1.534970197350049-2.362001116049214,1.702078625710783-1.401942600256007,3.060128772831376-3.040638802542162,3.813405281331143-5.138517331222829.948629022019304-2.404246299552142,1.022181511480085-4.924959395602855,1.002626474610224-7.457060301066122.551687899989702-3.39825577888314-1.022066004421504-6.090258196925788-3.115558480911204-8.442154091420889-4.130383898738728-4.640199559487883-11.532142834539627-5.750336103531481-16.93110661189894-2.676569544487393-1.226596005360989.698337579528015-2.33150204624144,1.591967112508428-3.009858630430244,2.892922650725268-.716056054940054,1.218446397914704-1.757048188919725,2.145719794857541-2.77532961101133,3.094505132841732-1.187656660418725.90031474326679-1.89212611001858,2.129073414444065-2.385599273979096,3.501632860557947-.213483942319726.593776598727345-.321376949599653,1.238553912839961-.818661380310004,1.696664577281808-1.341481913110329.981980851181106-2.557033647350181.42537108727447-3.777558747409785-.291639451640549-5.244713890670027-3.081106453983011-10.458058083910146-6.215102433136053-15.679517000000487-9.335041840218764-1.362143141079287-.813909212201906-.552694400528708,8.328237519609502-2.234252698388445,9.194704114161141-1.13150159729048-1.103314111586769-2.912994376030838-12.648777207447893-2.834707772151887-13.939605177706653.174603533771005-2.87893396153504.034061155600284-5.778245217332369.502882640170355-8.638640739770381.02984748974086-1.213809400064747.468492007390523-2.404335911877752.209739823720156-3.635113856928001l.226287702749687-2.117517425245751c.566419888389646-1.117367481240763.200948194409648-2.412774373160573.677760871210921-3.547261269140108Z" fill="#f6998d" stroke-width="0"/>
          <path d="M115.568048201790589,199.814823752858501c-.026415869340781-.090284804929979-.036392946010892-.182353189855348-.029926995530332-.276193809013421,1.560947773748921-1.055488509258794,4.784459505410268-.71757776933373,6.112952107339879.640807344696441-.019884685500074.0945308143273-.047570200960763.186724727758701-.083055395391057.27657097005067l-5.999969716418491-.64118450573369Z" fill="#fabfb5" stroke-width="0"/>
          <path d="M146.007703673749347,155.641542750425288c.060877246611199-.226228605635697.055607737900573-.593142531404737.192585802849862-.657556718080741,1.978196844431295-.930234847704924.81686851448103-1.337901884460734-.241010347588599-1.956191416382353-4.635924565340247-2.709490644854668-9.237496491170532-5.477739408390335-13.851771923980778-8.224262936280866-10.850655080750585-6.458549559729363-21.705472929570533-12.91010388415998-32.550792188409105-19.377603931477097-7.501176171750558-4.473239301575632-14.981065581461735-8.982210341347127-22.485399296259857-13.450138923820305-9.024325887970917-5.372889286551981-18.065142522051246-10.718074616391277-27.097409276331746-16.077629492578126-2.892705868989651-1.716470122490136-5.792612719998942-3.421362279340428-8.663530395329872-5.173646720316356-.7791801828389-.475576207152699-1.56485364764012-.814526040310739-2.477349610539022-.840247631304919,1.819980651460355-7.338101850742532,4.800064490200384-14.163809190124084,9.027902376170459-20.438436066737268,1.865404998348822.481799537039478,3.297763123258846,1.779593016958643,4.927820795859589,2.690675850396474,3.591647565799576,2.007461306618097,7.069164885830105,4.219499026475205,10.587138579279781,6.358120441723258,1.020658822999394.620466711208792,2.042391129689349,1.185116761318568,3.30088146289927.797801969112697.511763879081627.600631778523166.052840546160951,1.08584842565233-.177152327500153,1.611139663615177-3.074861731569399,7.022893772518728-.876767493198713,14.524285437887556,5.53398776206086,18.294210763459887,2.55102880332015,1.500158437281243,5.3553692907808,1.622414015221693,8.21080323076967,1.28877886387545,4.271411834630271-.125977331215836,7.789425069109711-1.830369530600365,10.61765431718959-5.021454690037899.434541458511376-.490300420735366.806779723330692-1.20949743467645,1.69238719886016-.894367105433048.164974882191018,1.001736837752105.734929482430744,1.651773424919156,1.61417579377121,2.171490877229189,8.024869221299014,4.743451951152565,16.033688760770019,9.51409943757335,24.041410968889977,14.286503296636511,5.981070060639468,3.564579057331684,11.949130263219558,7.150997671057667,17.93096524433895,10.714280475539454,9.377379567131356,5.585945051242561,18.766231257881373,11.15261497514166,28.141250493599728,16.742501690686368,7.500768760750361,4.472362430329667,14.987419767370739,8.968368680312778,22.482704301881313,13.449948963487259.708394612040138.42356728456798,1.432112387479719.821691460310831,2.151451196159542,1.226744194365892.803546538420051.452472044820752,1.513803377079967.96391808347289,1.370311120899714,2.048246264486806-6.029268312458953,1.463734845194267-12.1116284098498,2.225358073797906-18.315162266499101,1.384587499800546-1.770937752131431.182263604539912-3.495866370940348-.255109485900903-5.241316381141587-.403913028783791-4.386234649189646-.373951169871361-8.742870006919475-1.053323133593949-13.142732028209139-1.294351488117172-2.554091276899271-.031460495800275-5.089186324670663.130383563533542-7.579804603690718.744769334934972Z" fill="#f69a8d" stroke-width="0"/>
          <path d="M112.598038430060114,53.492907996916983c1.792271792050087-1.383773367142567,3.926828979239872-1.941167251630759,6.057247376060332-2.508559527630496,5.561382753880025-1.818541936808288,11.740660042409218.609510004201184,15.303246556959493,6.013181163189984,3.329154638300679,5.049614675403063,3.227247202419676,11.60303607978949-.248412687969903,16.109084282109507-.145617525200578.188787788365516-.291625115660281.369298597552188-.533017035460944.437856926142558-3.265867368039835,4.297184896793624-7.524599992859294,6.512831680472118-12.991335704129597,6.195907743058342-11.118793879790246.007170221279921-17.26579758582011-11.679297912706716-12.536047169320227-20.888793317183627,1.125340332269843-2.19120904101419,2.651167585270741-4.171719853209652,4.948318663860846-5.358677269686268Z" fill="url(#C4)" stroke-width="0"/>
          <path d="M92.554449833749459,94.570734670159254c-3.058781058200111,4.050951778899616-6.973092555259427,6.521850009246918-12.184772176098704,6.596676047980509-9.347506063280889.248609648887395-14.512620774581592-5.96367490036846-15.114688558720445-12.702802943045754-.455038716230774-5.093372089365403,1.092387548689658-9.534674123226978,5.394771545339609-12.706241734189462,1.276902084329777-.798936596198473,2.553806573649126-1.597870212076486,3.830708657989817-2.39680680827405,3.425699749110208-2.05966577892741,7.10814682398086-2.104353289288156,10.729400955189703-.91742371005239,7.451843413209644,2.442476962213732,11.200588939611407,9.582154590231767,9.307455600101093,17.303234255257848-.611416989760983,1.625233229704463-1.101470438790784,3.29985205441335-1.962876023801073,4.823364892323298Z" fill="url(#AC78)" stroke-width="0"/>
          <path d="M133.177102639649092,73.544470840728536c4.924607479200859-7.684856557509192,2.068794729440924-16.662282763428266-4.456684345188478-20.588095473122848-3.126971864799998-1.881228468789232-6.519204684651413-2.288537993851605-10.064966527779688-1.972101755610311,1.625755193339501-1.435063474748858,3.678865741369009-1.247078799027804,5.556253858478158-1.181075260169564,6.830149103241638.240131380928688,12.512336252801106,5.915231169548861,13.176793346061459,12.706857037188456.372401001030084,3.806621514389008-.848873551671204,7.046165295552782-2.876389948251017,10.112189225036673-.445613568070257.30653820835596-.714260037910208.869185676846428-1.335006383320433.922226226677594Z" fill="#ecb78c" stroke-width="0"/>
          <path d="M112.598038430060114,53.492907996916983c-2.220179840840501,2.13280829143423-4.136423623060182,4.420489037673178-5.125608798680332,7.456395395861364-2.842014106110582,8.722428541593217,3.359689409440762,17.851849719198071,11.8461886258101,18.633451239878923.291651245239336.026853474610107.57870712049953.10364070873311.86752269515091.157386142489486-7.575724786880528,1.053751107653625-15.396442690991535-6.305300149211689-15.001698745971225-13.868941962853569.224677883030381-4.305137949032542,1.642260653230551-7.913970252678155,4.746139805371058-10.875916794951991.710480679659668-.817713189341703,1.545587596059704-1.414627283787013,2.667456418319489-1.502374020424213Z" fill="#cc778e" stroke-width="0"/>
          <path d="M70.649760644269918,75.758366040904548c-5.648029125630273,6.123773707033251-6.436734642140436,12.800366618161206-2.103438853569969,19.339924773132225,2.03608675426949,3.072749348766592,5.01649138015091,4.950345194772126,8.659593506170495,5.669745667079042,1.040723490139499.205508473193731,2.109327987609504.269846097527079,3.16445430253043.399143170193383-9.706149945041034,1.221879274180537-16.558155247790637-6.556409645598251-15.940891436181118-14.523142918124904.205503376540946-2.652309397498357.91882081930089-5.078025709431131,2.247410359359492-7.351575068989405,1.247802132720608-1.263941825805887,2.144360466951184-2.922815740334045,3.972872121690671-3.534095623290341Z" fill="#ce5475" stroke-width="0"/>
          <path d="M94.517325857550532,89.747369777835956c.774089666960208-5.451733128606975-.486819160800223-10.274966016128928-4.757311893530641-13.936456229957912-4.537309061839551-3.890259453126419-9.730891649320256-4.470577438712098-15.279515720449126-2.449370285625264-.200856625850065-.523379009426208.240547765359224-.575383342484201.537950170859403-.716597207546329,8.991956728170408-4.269729359078156,19.103800879660412,1.219646765302059,20.240054638969013,11.050381412864226.235001841541816,2.033212726643796.071340956101267,4.104263696072849-.74117719584865,6.052042310265279Z" fill="#edb78b" stroke-width="0"/>
          <path d="M121.651073313600136,200.179437288541521c-2.037608538030327-.213674195078056-4.075206305200481-.427347239132359-6.112881358050799-.640908716570266-9.630918226768699-1.608213228349996-18.398601387099916-5.535070670201094-26.854715810399284-10.1957893810104-11.658817400550106-6.425915687817906-22.436077677599314-14.032242978086288-31.190375581340049-24.214969153636048-11.221021986380947-13.05190933700942-18.292961046490746-28.007422203600072-20.634293517730839-45.121507616086092-.06350256981932-.464150061559849-.054363437619031-.938249715164602-.079122759620077-1.407671259839844.647640635630523-1.78369882208699.882472287810742-1.853810607812193,2.469656873630811-.899349145879569,6.048014234149377,3.63704893236627,12.1146652872103,7.243300806840125,18.145563466840031,10.90842260246427.85712800958936.520899540329083,1.660639078610984.45296468896322,2.5341134167993.292669824041695.761110445870145.554429513873401.638952043160316,1.355863206673348.510460963971127,2.098482899264127-1.185443008200309,6.851314467985503,4.105186978169513,13.751097199285141,11.796727444168937,15.019935355954658,1.67762623057024.276751673083709,3.528888957680465.139248441224481,5.108933731569778-.865321273433437,1.33628404080082-.56429008775558,2.766289825991407-.849229095785631,4.117386418851311-1.376587658085555.486523881500034-.189903259206403,1.008727245169212-.301178821158828,1.490229028649992.063424867359572,3.928242300638885,2.328189032010414,7.880893341989577,4.616764268175757,11.768256658779137,7.011314638020849,1.023479274339479.630441321327453,2.352540867370408.855782544040267,3.004554188950351,2.04222452758404.261235631929594,1.381849454159237-.87558972899933,1.89126724669768-1.635922616049356,2.639066935103983-1.687819184320688,1.07217009836495-2.698706979730559,2.701364362545064-3.203199338460763,4.531842156220591-2.80634433970954,10.182444237188975,3.012379928790324,17.088029751510476,11.76350118477967,18.370829447419965,1.665074761431242.244070492426545,3.415502544759875-.015493842702199,4.952402970549883-.928018378122943,3.382323888441533-1.095542850423953,6.594912770060546-2.428832235091249,8.804515388430445-5.459643230024085.809131665129826-1.109839766588266,1.367008698691279-2.311540665023131,1.894806900530966-3.550900374613775.239541271419512-.562473470492478.291294698099591-1.319862331592958,1.196439314799136-1.253254221697716,2.078575617870229.276004202563854,3.610899054490801,1.681117158472262,5.314567184290354,2.677492824583169,6.096909373080052,3.565705457349395,12.122670095230205,7.253034234227016,18.175299594309763,10.894345438731762.744002862669731,8.655521574943123-7.113300802400772,16.773153208614531-15.255778081769677,18.627694825712751-2.659996533060621.605827712703103-5.345604366240877.949768128952201-8.081125666480148.736174066538297Z" fill="#f58b82" stroke-width="0"/>
          <path d="M153.587508277440065,154.896773415490316c.498081432489926-.284343557363172,1.030342489499162-.178204415289656,1.552376345929588-.122036200027651,5.610813325780327.603725995249988,11.22107920740018,1.212676713052133,16.831579729550867,1.820247276715236-.401894665061263.042596349321684-.811377997169984.157529894569961-1.204739658060134.116811531643179-5.727664753319914-.592781904018921-11.453190870181061-1.206391910594903-17.179216417420321-1.815022608330764Z" fill="#f8a797" stroke-width="0"/>
          <path d="M120.204935134699554,156.990305617495324c1.824739782990946,3.115545104825287,2.083137802990677,6.439771264966112,1.31917980092112,9.900190382901201-1.939457630891411,1.513023998533754-4.368740571700982,1.725837942467479-6.604939500981345,2.398240031936439-5.766286010479234,1.733886306095883-11.529697542669965,3.483842321149496-17.346226251320331,5.055899748491356-.560972012588536.01914780601146-1.052409998388612-.189426190961967-1.429456780799228-.572932697796205-2.090822504089374-2.126615991459403-3.157840245588886-4.742189549324394-3.556424479689667-7.654588331966806-.064058872390888-.468033040444425.111592979619672-.925689137582594.419743129890776-1.308129202532655,1.783058303948565-1.265445586488568,3.957842129078927-1.447809417653843,5.963244178379682-2.067359180684434,6.186107690238714-1.911157320288112,12.427032805289855-3.642894487040394,18.630658961428708-5.498606712588298.85994545848007-.257252616342157,1.714529168060835-.389762296425033,2.604220942170286-.252714037760597Z" fill="#5893ce" stroke-width="0"/>
          <path d="M89.929533726830414,128.981774549144575c.014982599179348,2.384411822158654.162950950099912,4.784124441365748-.764024338761374,7.065052937248765-.130242609749985.320460793248458-.311909612888485.620023086296897-.469771792370011.929253456635706-.876156155429271.747644501949253-1.942431815989039,1.058675613717242-3.023318511479374,1.36819978897438-5.992357605698999,1.715914614643225-11.986313276549481,3.427083288773247-17.935429900689996,5.29488464559563-2.989275893209197-.539665731825153-6.342567340780079-4.832535078329784-5.879594266980348-7.519977139050752.532291942379743-.60383584680676,1.249612702651575-.852070735994857,1.996639868129932-1.072490535860197,7.594114052380974-2.240702194862934,15.210188000410199-4.406356120913188,22.796813101291264-6.672956661659555.933655962518969-.278939844384695,1.909522590429333-.752965833133203,2.907303345959008-.132209772910755.212561273890969.201941879226979.263227445881057.485450012285582.371382494900899.740243281026778Z" fill="#59b2c8" stroke-width="0"/>
          <path d="M120.204935134699554,156.990305617495324c-2.02479907543966,1.144906157434889-4.313083042679864,1.516546088925679-6.499194174199147,2.171893382248527-6.275304586541097,1.881167809009639-12.570755446540716,3.695291619605996-18.863358467940998,5.518292749067768-.558536247130178.161804632563872-1.153988141018999.196200222937478-1.732292873588449.289770292314643-.673434733080285-.252881401338527-.800613275410797-.819892826890282-.770077030851098-1.432206990484701.115549111589644-2.316737104069034.505216641900915-4.555760162002116,1.957429056879846-6.467770685594587,6.736883970050258-2.143420855914883,13.471920456109729-4.30446833827591,20.383942773130912-5.84881356146434,2.475794137009871,1.315381021309804,4.272240109368795,3.281159476689936,5.523550716568934,5.76883481391269Z" fill="#589fd6" stroke-width="0"/>
          <path d="M97.566713927230012,174.121932391746668c1.214347760809687-1.451264211009402,3.072522699099864-1.330654016832341,4.651605845319864-1.817744740768831,5.833101069551049-1.799360526802047,11.705630393029423-3.47132672702719,17.569753395440785-5.169016976306011.555691933168418-.160877652149793,1.156280942559533-.166685047926876,1.736031409009229-.244577742019828-.008592220150604.117611220068284-.017193647960084.235308602141231-.025900070189891.353071016756076-1.641464166999867,5.927745243610843-5.648608273560967,9.348379917448256-11.481996853719465,10.833700971361395-3.976892984170263.915043650940788-7.754164507430687.613402212587971-11.173982460901243-1.842643804870022-.723601143279666-.51965856584502-1.453631471238623-1.044601134472032-1.275511264959277-2.112788724152779Z" fill="#5983c3" stroke-width="0"/>
          <path d="M62.980405006370347,123.519207822128919c.844103555458787-.945688548181352,1.688205569180354-1.891388154365814,2.532306431940015-2.837076990300375,3.414611287360458-3.678906471810478,7.636755738079955-5.019941901165112,12.542999065190088-4.245349356624502,1.912729609830421.301979393081638,3.778480009379564.809695473684769,5.393615392558786,1.978080728787063.578519613540266.418506325464477,1.17255984682015.797641839960306,1.274165580391127,1.587388870625546-.129718147170934,1.167624773473108-1.047684056109574,1.462593182915043-1.960551954820403,1.753079155650994-6.183251104410374,1.967584598615758-12.449410159169929,3.655089197744019-18.666922850099581,5.507204153990642-.893371617510638.26613152416212-1.88731144447047.507964664762767-2.487793966640311-.617033674140657-.183714304190289-1.322857100216424.873136780290224-2.101910666249751,1.372182301480279-3.126292887988711Z" fill="#5dbda9" stroke-width="0"/>
          <path d="M67.685275688349066,143.346471247697991c.546785291051492-.814411226247103,1.473161558700667-.970054925139266,2.296685587070897-1.213999266337851,5.647979591769399-1.673010550624895,11.308114033250604-3.305245049406039,16.971201495589412-4.926630204535286.557119414421322-.159505061202253,1.160615330691144-.157038847652984,1.742580210109736-.229760258284841-.970690586629644,3.077477006292611-3.347609336718961,4.978555855021114-5.742972344849477,6.864199611332879-1.657544942099776.792289845179766-3.365547427320053,1.443926111631299-5.161089815099331,1.851588697867555-2.833293642899662.817918428727353-5.621418223860019.664541723517686-8.334481308149407-.471162252884824-.832638932661212-.348565730593691-1.824027894850587-.645403405542311-1.771923824671831-1.874236327157632Z" fill="#58add3" stroke-width="0"/>
          <path d="M114.681384418130619,151.221470803582633c-.761875608930495,1.082329850913084-2.052224328290322,1.096942683558154-3.131055889460185,1.427960992052249-4.92902748241977,1.512368304942356-9.890379138740172,2.919757233881683-14.845029942649489,4.347829569287569-.67253217274083.193838191878967-1.366032834901489.362374589378305-2.081951391870462.205857320412179-.229072357640689-1.111647603544043.59137157747864-1.658459256461356,1.237469236049947-2.299098445086202.621587200310387-.670055878008498,1.243170166138952-1.340123101774225,1.864748897509344-2.010201671308096,3.909838426719944-3.137580018272274,8.275646663450971-4.343502509807877,13.237197614869729-3.222689042899219,1.346823987671087.304243759863311,2.486072903690001,1.019137378114465,3.718621475551117,1.55034127754152Z" fill="#57a8dd" stroke-width="0"/>
          <path d="M67.685275688349066,143.346471247697991c3.031795239530766,2.232717351611427,6.489917513610635,2.629087461993549,10.106089410850473,2.345702531200004-4.083214535668958,2.100871308866772-10.776571069520287.434629574472638-14.209839276820276-3.237450879079915-3.673751078318674-3.929293751037221-4.65355203828949-8.438880457241794-3.652228496568569-13.554325932675056.531383592679049-2.068965753664088,1.278673413018623-4.01561039293847,3.051097321929774-5.38109221276045.010321859139367,1.135493141118786-1.115732393280268,1.891966149844848-1.019729428369828,3.056147162586058.370902414630109,1.383470913326164.259918615349306,2.791883154422976-.032333894920157,4.143211760605482-.406529769919871,1.879693809692981.798498508318517,3.690505920064425.108380202118497,5.548151229045288.953867782540328,3.100998223156239,2.887938876361659,5.42002427656189,5.648564161780087,7.079656341078589Z" fill="#cc778d" stroke-width="0"/>
          <path d="M84.480274745930728,120.080137816991737c-4.661283105810071-4.168208356714786-12.187076501480988-4.362155252796583-17.546983549340439-.451093906922324-.475905107979997.347274430590915-.946833659059848.701371529405151-1.42032483920957,1.052689326944346.908404087020244-1.95214509114885,2.695550805628955-2.954664635918562,4.489628830029687-3.761841051977171,7.434551986589213-3.344927053852189,17.421998264779177-.30989339738062,19.828604033549709,9.607974930037017.197592309259562.814307433724025.266755953409302,1.626992784294089.098315094639474,2.453273551350321-.10919143315914-.157986799848004-.218401126609024-.316618252668377-.327611971018996-.475238935238849-.329537314890331-.403091737473005-.752796028631565-.73664559154804-.900939321720216-1.271856009323528-.594149562180974-2.146478541572833-1.932174750960257-3.83983663599065-3.35921933813006-5.47498443612858-.429548856380279-.492183581032805-.797518448929623-1.004567565830257-.86146893879959-1.678923468741232Z" fill="#ecb78b" stroke-width="0"/>
          <path d="M95.86081643020043,154.904020240248428c-.412243673410558.766425124489615-.824491581281109,1.532838903216543-1.237102245360802,2.29918123639618-1.363910859439784,2.421599395029261-1.744994957089148,5.034600760336616-1.51335377416035,7.767024143049639.318104919570033,3.618754894458107,1.691178352970383,6.723865092868436,4.456483419829965,9.151306710718927,2.84248526554984,2.893184053034929,6.356996566100861,4.063924464255251,10.339464273851263,4.025598652102417.703356153990171-.00677511588583,1.406414838958881-.045477448935344,2.109756117599318-.069596204257323-4.596101660030399,2.192020440614215-11.36480840393051.482149088529695-15.132533265479651-3.677524849685142-4.565434858979643-5.040324052049982-4.419866342499517-13.098886437826877-.669116619919805-17.97292293216924.45185036463954-.587181658373083.805484395799795-1.333976831267137,1.646402093640063-1.523066756155458Z" fill="#cc778d" stroke-width="0"/>
          <path d="M84.480274745930728,120.080137816991737c2.81782961250974,2.133599263937867,4.59776223785957,4.898016162408567,5.121652223870115,8.425788332253433-3.393462241321686.52721741762798-6.588003645030767,1.787653296159078-9.876324602781096,2.699908380383022-5.909494467159675,1.639442946250711-11.793964807269731,3.369043755906205-17.688890840450767,5.060980376991211-1.35573209292852-3.220032634202653-1.273577847588967-6.451308064418299-.075981291278367-9.691334255250695.376784618949387.497737762310862.871627948989044.289976279150324,1.302652304009825.163946012968154,6.746031590699204-1.9724106009553,13.489169636010047-3.954825409693512,20.224814731080187-5.962311104837681.367307078278827-.109473373412584.663031094958569-.459123701744829.992077475550104-.696977742507443Z" fill="#5cb8ba" stroke-width="0"/>
        </g>
      </g>
    </a>
    <path d="M126.106382978730835,61.84042553191648c3.217261400479401,0,3.222590251858492-5,0-5-3.217261400490315,0-3.222590251871225,5,0,5h0Z" fill="#fff" stroke-width="0"/>
  </g>
</svg>