<?xml version="1.0" encoding="UTF-8"?>
<svg xmlns="http://www.w3.org/2000/svg" xmlns:xlink="http://www.w3.org/1999/xlink" viewBox="0 0 280 280">
  <defs>
    <linearGradient id="C4" x1="10.19934683651627" y1="277.282213230699199" x2="97.169638124359039" y2="175.381399833367311" gradientUnits="userSpaceOnUse">
      <stop offset="0" stop-color="#7e9e4c"/>
      <stop offset=".487868088942308" stop-color="#91a23d"/>
      <stop offset=".713373248351595" stop-color="#9d9c43"/>
      <stop offset="1" stop-color="#b4924e"/>
    </linearGradient>
  </defs>
  <g id="Genral_2" data-name="Genral 2">
    <a xlink:href="https://www.notion.so/dmmnotes/reflective-integration-96fa86f0fb4c4c1d8cd32a429c24f785?pvs=4">
      <g>
        <g>
          <path d="M224.644026862510145,168.169637833590969c-.004010652970464,3.358489015041414-.008021305950024,6.716978030088285-.012031958920488,10.075467045131518-.294556782419022,6.358978870952342-2.266650471099638,12.108258240257783-5.953149554599804,17.335777083062567-5.093976295520406,7.223369950643246-11.732476940200286,12.464435982776195-20.091920644070342,15.167328415265729-8.864971967339443,2.866365545385634-14.675203466100356,8.524074117265627-18.028962990068976,17.127966510721308-4.212631168140433,10.807215065146011-12.122985883130241,18.022521701881487-22.83038741386008,22.147820681564554-3.274788137141513,1.261688705633787-6.866569897700174,1.286771051500182-10.384739733710376,1.295864529163737-1.962575161080167-.002358317222388-3.923115282810613-.004670278613048-5.882491414200558-.007010133729636-14.14765274228921.095159341957697-24.121086794879375-7.03532097597963-30.85298271081956-18.777296955548081-4.743076872349775-8.272991584166448-11.178888825430477-13.338975019802092-20.563996674869486-15.182920199036744-15.676936861591457-3.080131384831475-28.77048880852999-16.986905848179958-30.836724087310358-32.846534257090752-1.33057079496939-10.21297620621408.871601651899255-19.852428439326104,6.473276641670964-28.612339648552734.447248430948093-.699405904899322.968397142358299-1.267005287685606,1.821015094108589-1.441118524326157,3.875122870409541.367306753609228,7.736657832660057.078070426594422,11.588752687130182-.301297889694979,1.489672364830767-.146718913252698,2.853049995181209-.105015988905507,3.97652512824061,1.024145045024852,1.597332314529922,2.019235212119384,1.840751724439542,4.536771005310584,2.491118367728632,6.901331318234952,3.967686439520548,14.425443693786292,8.473231065581786,28.620817727585745,17.027426118891526,41.153624965296331,5.314359624029748,7.786099496152019,11.469476212119844,14.708424825086695,19.612578816309906,19.66718943799242,4.752699248409044,2.89415069941424,9.76549131460888,5.111205835224609,15.349174061799204,5.713783286553735,2.131926165689947.230080587039993,4.27490359560943-.083185461817266,6.385547702429903-.532366685560191,1.037481172201296-.22080503070174,1.693819619460555-.807994856098958,2.098488009251014-1.745338087666823,1.411915186859915-1.273972283606781,3.281763565510118-1.107603967066098,4.95446207653913-1.540396817306828,9.809310440370609-2.538094507788628,17.191159088659333-8.524290815586937,23.203673891330254-16.391918969058679,7.59878037784074-9.943312863957544,12.224715523629129-21.23820898951999,14.845878334339432-33.40434780725991.203672097009985-.945358091581511.425773627679519-1.863226025016047.847273175209921-2.734280048907749,1.60106754338085-9.051713266975639,2.565592453949648-18.142533742982778,2.570036316061305-27.356372345511772.006432147329178-13.367639861162388-2.069259741620044-26.389860663966829-5.793016926210839-39.187532494102925-.331851786439074-1.140551466522084-.854645299130425-2.261432649846029-.480465334789187-3.500317698009894,1.45226898484907-1.338026205035931,1.277025160688936-2.816434849788493.644630022628917-4.538627499341601-.533319728348943-1.452444280685086-1.65904079225038-3.102353460026279.142260678840103-4.556102176982677,1.639015241060406.157139155238838,1.912938396630125,1.574916518429745,2.341162210601397,2.711139263012228,2.872504519509675,7.621712919006313,5.214247421899927,15.400470320008026,6.659136951579057,23.429601564135737.916998722070275,5.095609626556325,1.486281060089823,10.23470766606988,2.097318385629478,15.374690155364078.373530780339934,3.142188931406054.763343740729397,6.307707165376996,1.245730879889379,9.449264713983212.254050877230839,1.654476081574103,1.05243567368052,2.330368506669402,2.690541534020667,2.366279204923558,4.001652727571127.087739549757316,7.933047867360074-.612879210450046,11.896349850851038-.949184759198033.975762587258941.048568297206657,1.614128283419632.669816511814133,2.152078419600002,1.371152981175328,4.737717957939822,6.176759758873231,8.623927067270415,12.700766882599055,8.381426212108636,20.880422084728707-.00437893588969.148199789100545.106814707180092.286844674483291.215007876640811.412454711551618Z" fill="none" stroke="#181818" stroke-linecap="round" stroke-linejoin="round" stroke-width="42"/>
          <path d="M214.278791162189009,146.04043548340087c-4.67179472054886,1.723054951871745-9.580374723078421,1.285704587751752-14.408853589589853,1.571377618291081-.993093893079276.058757883327416-1.142133633689809-.77939633814276-1.282456550139614-1.450469080980838-.309295777289663-1.479044588222678-.605985127160238-2.97081254983641-.751187136409499-4.472524461531066-1.460133203969235-15.101253675384214-3.633164800810846-30.05510973847413-9.106924054849515-44.327089559748856-.536618997270125-1.399173772953873-.847178046400586-2.923785372338898-1.889266800999394-4.098136523005451-1.746093290561475-.493188151722279-2.054290100932121-2.144624816834039-2.64364379070139-3.471977298979255-4.055285353819272-9.13348195728031-9.469734337890259-17.385440592968735-16.505450355660287-24.448720596910789-7.051436207819279-7.079066241580222-15.307697745500263-12.277840099315654-25.386767888980103-13.883830704151478-8.296659026529596-1.321982268509601-16.198518324968973.023743358708089-23.551360826410018,4.181166181277149-.90075694000916.50930334939585-1.81831724750009.996477407255952-2.690104620909551,1.558934229422448-2.213974095000594.870223927389816-3.806698970700381,2.525135646870694-5.514877850950143,4.111764395145656-5.852205669989416,5.435779194207498-10.646968131179165,11.641541360666452-14.429234100089161,18.674636280029517-2.431803889860021,4.521928284179012-4.303759515400088,9.261836119099826-5.977032366190542,14.10191564786146-1.414565892320752,2.105180814412961-1.983113984138981,4.534935316005431-2.449700569410197,6.941728668727592-1.454602288060414,7.503305328033093-3.218371461149218,14.961356798425186-3.750097404259577,22.616941528543975-.557525883619746,8.027062113356806-1.165046420441286,16.053625267786629-.319545727339573,24.102993248923667.216771235998749,2.063723104072778.142356006659611,4.143929308735096.043539127998883,6.217012386832721-.039052144709785.819224614986524-.183288935519158,1.595759701156567-1.008253782109023,2.028891375090097-.533280443740296-.481534446244041-1.080953885029885-1.091026749249068-1.853169962460015-.910082237332972-2.899249186530142.679390701994635-5.88911623830063.086294598952009-8.76445581373082.622399219982981-1.765954963970216.329251308092353-3.290192512080466.193721522347914-4.795205220669231-.693791800416875-.916716923480635-.70104937202268-.78937866186061-1.634580137222656-.625167493270055-2.609942620487345,1.208414243859806-7.177517533493301-.188776847580812-13.684840200172403-4.630706912210371-19.590006073512995-4.385500715419766-5.830139427698668-6.694868908440185-12.433071999737876-6.39254617745064-19.82725116077745.002734935860644-2.280826869438897.005435292530819-4.560570281711989.008152417191013-6.837736704665076-.260361644990553-8.508907149014703,3.042688461440775-15.610999463860935,8.431547164089352-21.99858505517841,5.201407434120483-6.165395761478067,11.65895576415096-10.280816835986116,19.288842540610858-12.714595373498014,7.521075741089589-2.399071806286884,12.117213776318749-7.500257808438619,14.313412238199817-15.090900297904227,3.589602319279948-12.40657868537528,11.542259547359208-21.090963537471907,23.318967379869719-26.294716944727043,2.964860006719391-1.31007877736738,6.247481841890476-.954069769622947,9.341858280469751-1.610252413593116,3.038443292980446.003628459575339,6.076893906440091.007256927894559,9.115337199420537.010885387471717,3.114534917749552.559368265452576,6.35888088108004.287642104342012,9.381693478080706,1.420435735541105,9.225223656809248,3.457128974163425,15.970749226738917,9.759538491480271,20.788419522377808,18.236761610207395.986054335720837,1.735064234444508,1.846019840881127,3.544364091079842,2.687544031461584,5.354513116724775,2.961632135458785,6.370568982962141,8.08189280427905,10.123025840650371,14.809296895418811,11.303404925158247,8.452217344440214,1.483021798389018,15.861190227380575,4.917272967883036,22.002929671580205,10.802736528899914,6.509699803431431,6.238058273396746,10.651919388859824,13.793188123430809,11.927275550620834,22.893638317722434,1.270130051039814,9.063070577609324-.432828385990433,17.456407573195975-4.847058935380119,25.370675287667837-3.521284001020831,6.313330344977658-3.675798071819372,12.915970767533508-1.812662838319739,19.709212602154366.234858034389617.856332094046593.575166713719227,1.682796242768745-.073084728901449,2.498584615725122Z" fill="none" stroke="#181818" stroke-linecap="round" stroke-linejoin="round" stroke-width="42"/>
          <path d="M55.365140344289102,105.595459941847366c.146888376080824.007284040086233.292798082649824-.001561109451359.437728164921282-.026550091633908-.011019613770259,2.581590290270469-.022038132159651,5.163173260911208-.033059290100937,7.744763549333584-.139684129719171.003369203333932-.277628591349639-.010522281769227-.413836081619593-.04166713759696.003055732680878-2.558846333056863.006111474109275-5.117699987040396.009167206799248-7.676546320102716Z" fill="none" stroke="#181818" stroke-linecap="round" stroke-linejoin="round" stroke-width="42"/>
          <path d="M147.827965687680262,251.152162410691744c-.02011015106109.135515784710151-.034898981910374.271594315156108-.04436651001015.408250233180297-2.238857190890485-.002673606850294-4.477707061309047-.005347204962163-6.716564252199532-.008020811817914-.008320979130076-.136882146967764-.022594255540753-.273141801619204-.04287839303106-.408779033889004,2.267897336720125.002854704833226,4.535853254721587.005694837755073,6.803809155240742.008549612526622Z" fill="none" stroke="#181818" stroke-linecap="round" stroke-linejoin="round" stroke-width="42"/>
          <path d="M190.601312836450234,172.964491762400939c-2.000224902370974,10.744144367650733-5.788591649559748,20.823198729845899-11.47841545196934,30.146409227734694-5.505660657350745,9.021397907361461-12.493502019000516,16.518241949972435-22.375377077161829,20.886439752748629-3.310804360487964,1.463513171245722-6.793084165539767,2.253061232962864-10.361455733158436,2.726242071510569-2.819278387119994,1.788944693771555-5.938023336109836,1.101474246896032-8.831312834701748.659905063299448-8.451020637279726-1.289762313856045-15.603780531098892-5.327571222576807-21.907848576518518-11.044023511922205-12.591192964149741-11.417466455324757-19.935468963851235-25.927531275490765-24.866848301140635-41.871272543980012-2.672576705870597-8.640753376865177-4.451465689089673-17.495484685885458-5.172715705490191-26.492033343150979-.726035881858479-9.056234638695969-.885120588920472-18.133740398161535.17654993566066-27.225359981393922.54692829880878-4.683625486784877,1.2093691300106-9.323458291964926,2.13776466453055-13.936962214520463.287619302220264-1.429259531256321.644872775788826-2.80785556311821,1.868350820699561-3.76873147758306,1.524853446519046-1.06372656559688,3.351981843819885-1.156804651360289,5.056029694280369-1.230453536361892,6.211693148339691-.268464230590325,12.412848329599001-.71765833837344,18.613275666188201-1.121331738368099,8.743344088661615-.569223192955178,17.492447488280959-1.05715516132841,26.232437499400476-1.69272467720657,5.64074748467101-.410198508980102,11.290289793791089-.773803402709746,16.94011238026178-1.028823846332671,3.980889083108195-.179682415149728,7.943791294299444-.726802100081841,11.942732847508523-.587848523175126.996261963229699.03461711134878,1.994038567239841-.016001620617317,2.476932452849724,1.015428650840477.498227793330443,1.064180485605903-.10412798715879,1.821829550088296-.952533943020171,2.42124292288463-.593240144269657.419125250631623-.648492470798374,1.060534279968124-.703593553218525,1.697895012583103.013591710319815,1.142235909323063-.722964391290589,1.882498552724428-1.400899875661707,2.67945863604109-9.45379762264929,11.113450281385667-19.201791684288764,21.970111509323033-28.811586716788952,32.946927905215489-6.354312546380243,7.258235285167757-12.800558809769427,14.439351864015407-19.152663178248986,21.699771424935534-3.878818949760898,4.433465498937949-8.035395473259996,8.658582242875127-11.248683255491414,13.643508635077524-.406479918839977.63059387064277-1.257644885468835,1.299823710569399-.770975651159461,2.115327497795079.460021082089952.770858183463133,1.467561229659623.547191516574458,2.224257250269147.464856113971109,5.861314587491506-.63776994516229,11.767216691321664-.627510643149435,17.628901592310285-1.25661215844957,2.85183330819018-.306064972673994,5.730190311569459-.306947037490318,8.590222027680284-.465441443733653,6.363342281760197-.352591026925438,12.731637347780634-.727036452733955,19.085631109381211-1.159100077478797,8.498447585989197-.577854189916252,17.017646824659096-.872114482715915,25.499520644869335-1.707275422117164,2.37828048990923-.234182504000273,4.77728901151022-.036258641448512,7.166267732080087-.377167609447497,1.174435119728514-.16757934198904,2.485486802188461.10480234078932,2.395923535759721,1.861749190584305Z" fill="none" stroke="#181818" stroke-linecap="round" stroke-linejoin="round" stroke-width="42"/>
          <path d="M190.601312836450234,172.964491762400939c-.407862878149899-.678698528343375-1.006289163489782-1.016996137257593-1.797808440551307-.956357647248296-5.551206613288741.425218182854223-11.101778746549826.858578003677394-16.65280519803855,1.286183026650178-2.857872601111012.220153903441314-5.720915295099985.221156749452348-8.587501439849802.473775917216699-6.341370972440927.558891943479466-12.723280986710961.638126349134836-19.080245508879671,1.044533868234794-8.49613681691153.543170356977498-16.982282834560465,1.240985444528633-25.47681256235046,1.8115380194522-3.734691009989547.250850397498652-7.480687001900151.328796081901601-11.219172407631049.529537465601607-2.068279314449683.111063162277787-2.125690793969625-.746667633786274-1.243720540798677-2.259364233490487,2.631584533699424-4.513537847700718,6.173630488539857-8.314408148024086,9.567511119268602-12.223629527972662,6.5277973174816-7.518990179469256,13.10584910713078-14.994521840189918,19.688310098221336-22.465824055729172,5.161774204059839-5.85878374443746,10.387169792169516-11.661603491604183,15.537755315939648-17.530152083474604,5.778307344789937-6.583757185258946,11.504254902079992-13.213471842400395,17.252974592260216-19.82320975618677,2.901571642179988-4.648667382187341,6.462159413269546-8.773620675892744,10.1863531370891-12.764083353131355.659262608260178-.706415089030997,1.475027145141212-1.22052729650386,2.537430279309774-1.057674563973706,2.52241404508095,1.696355589403538,6.029192912630606,10.067376961980699,5.4128991485195,12.909082054780811,2.383015257801162,8.1102327589997,4.503337270802149,16.273675173473748,5.597194667670919,24.683090508835448,1.992512766259097,15.318047376098548,1.667943229340381,30.552402109129616-1.405798296569628,45.707592329161344-.045390783780022.223849286530822-.208437183100614.423838239601537-.316563963609951.634962031273972Z" fill="none" stroke="#181818" stroke-linecap="round" stroke-linejoin="round" stroke-width="42"/>
          <path d="M89.924277089729003,103.71313213445319c-2.021106246149429,6.140144153370784-2.771508255929803,12.513323025470527-3.289191345358631,18.90429148444673-1.673192710559306,20.656100571730349.706671316680513,40.796486118881148,8.196167632229844,60.195147264992556,4.676888507099648,12.113680294893129,11.102528535970123,23.159684540771195,20.763206518789957,32.070418587612949,8.691558009009896,8.016817938505483,18.696905642918864,12.655465623891359,30.791553417970135,11.840607923550124.167623433879271,1.649855854118869-.802550306660123,2.162480542108824-2.23074123096012,2.488211181096631-6.412799836280101,1.462444355469415-12.312475864420776-.178428760102179-18.006599834199733-2.928998082428734-9.186337776680375-4.437500618570994-16.31424549356052-11.242329916198287-22.307168504819856-19.400645441719462-8.344838773071388-11.36006548120713-13.544825348430095-24.134235652052666-17.310035479011276-37.590306751728349-1.243904524988466-4.445469004162078-2.580074346709807-8.86510279461254-3.873977901879698-13.296677803735292.038309142320941-7.72022482517059-.834617808310213-15.424721644812962-.450303366560547-23.148654962771616.634217954540873-12.746426243700625,2.208275733330083-25.342178075474294,6.278916862360347-37.514800039416514.249402762579848-.745793346395658.632987667780981-1.446717501536114.954139125640722-2.168514991450138,1.137749538289427.793989048124786.914851290139268,1.897807791943706.681260807688886,3.002184800237956-.327662792538831,1.549165240214279-.651632901348421,3.095684711515787-.694147843869359,4.690543666103622-.02153534900026.807905404162739-.040113290930094,1.582152678565762.612693672139358,2.186726405749141.084771882111454.244642441852193.045761188750475.468250435578739-.115772530160029.670466759460396Z" fill="none" stroke="#181818" stroke-linecap="round" stroke-linejoin="round" stroke-width="42"/>
          <path d="M186.726480428958894,101.938846893130176c-1.89794016174892-4.166751367196412-3.140767991350003-8.617307135764349-5.4586966505085-12.602115012696231-.980712407439569-.280530728718077-1.652522592810783-.897997353862593-2.09046047116135-1.819849083976806-3.347076545469463-7.045770616103255-7.780648823198135-13.389307787183498-13.197832668889532-18.940397218315411-8.083950079149872-8.283807972989962-17.57563883299008-13.97888101879289-29.580080256630026-14.123119207142736-7.252329239459868-.087137381799039-13.714090204628519,2.431134221244065-19.651065135480167,6.473744312461349-1.14628045795871.780525344718626-2.205426914630152,1.954823408326774-3.863382413099316,1.419429162575398-1.623246144788936-1.202970867856493-1.054388007480156-2.424192287073311.027774939340816-3.57777756149153.803234157039697-.856250959270255,1.865116264969402-1.458597669727169,2.490010784909828-2.497367535221201,4.63844753165904-2.695748774947788,9.405144604348607-4.982431713551705,14.806862415958676-5.826853138500155,10.441267575830352-1.632234276101372,19.93443653992108.769733668295885,28.700451543159943,6.42310211782933,9.819280398811316,6.332636381337579,16.83286075074102,15.196931596992727,22.59300829447966,25.19319382303911,2.074995527400461,3.600999582329678,3.847618489480737,7.330691527335148,5.336958822081215,11.202916897667819-.017180394670504,2.028413046453352.905231987970183,3.792168896776275,1.561419591849699,5.636217646631849.567468269709934,1.594708874357821.322072107730492,2.819794010974874-1.674968796010944,3.038874797139215Z" fill="none" stroke="#181818" stroke-linecap="round" stroke-linejoin="round" stroke-width="42"/>
          <path d="M115.402748557440646,56.271394749323008c-.15814627087093,1.123355116145831-1.084094304220343,1.701183453047634-1.756125831770987,2.45524441400994-.916277361198809,1.028130495760706-1.36031129128969,2.124550911299593-.603091143120764,3.439284898771803.349571319760798,1.22612141873833-.457434898398787,1.976779850927414-1.202533560979646,2.670694431666561-5.36834977629951,4.999579013454422-9.548024993950094,10.897300610331513-12.955693507748947,17.341115889728826-2.760599158529658,5.22023108488429-4.918995023410389,10.7024362155571-6.594138528031181,16.376437613249436-.502883376779209,1.703361845362451-.573976825258796,3.70225106525686-2.489313426260196,4.68115218240564-1.542838229099289.397229082949707-1.195902958977968-.800544842848467-1.32268515891883-1.580134284437008-.474768263149599-2.919409304260626.972122697568921-5.623506533953332.961108542940565-8.491993994328368,4.862078618829401-14.966235324287481,12.910278722529256-27.690007947627237,25.962472613889986-36.891801151066829Z" fill="none" stroke="#181818" stroke-linecap="round" stroke-linejoin="round" stroke-width="42"/>
          <path d="M89.801852559528925,103.235324179155214c2.611353409531148-9.683482204665779,6.152047542940636-18.966742825323308,11.582834293210908-27.470153163512805,3.251572769229824-5.091242884371241,7.258380504199522-9.507234207778311,11.658833775331004-13.599268929423488,4.220523617679646-3.02277804849291,8.550298652698984-5.843686271491606,13.604302343579548-7.314697186546255,10.995961369599172-3.200472141425053,21.17071993502941-1.118316114918343,30.550383311559926,5.079428662906139,11.035787469008937,7.292055487854668,18.505456184719151,17.590616384593886,24.069694386780611,29.406296122706408-2.842278394811729,1.88622710225718-4.540551527301432,4.86037896268499-6.866453289279889,7.23954830526236-1.99225109199142,2.037870439040489-3.878500890581563,4.17938549113569-5.811649525410758,6.275052085831703-.146881249160288-1.339943205173768.454518187589201-2.283706234100464,1.522372799849109-3.032329085068341.393358806120887-.275763795763851.689032720400064-.741271116665303.380157921150385-1.24260426555702-.239720430139641-.389108475812463-.677204931100277-.262297881461564-1.081601578009213-.239082937134299-9.612528385940095.551844899149728-19.227345650231655,1.064871464914177-28.838761402601449,1.635173771164773-7.14582630438963.424002081883373-14.288519148060004.902929563850194-21.430696731718854,1.385620621980706-9.285122227620377.627509741119866-18.568687286429849,1.278228707335074-27.851384102499651,1.940567035033382-.462705018449924.033006613542966-.910747241790887.271485471150299-1.365615018439712.414278871689021-.04080082712062-.159293712777071-.081609009681415-.318558150591343-.122417183501966-.477829909332286Z" fill="none" stroke="#181818" stroke-linecap="round" stroke-linejoin="round" stroke-width="42"/>
        </g>
        <g>
          <path d="M224.644026862510145,168.169637833590969c-.004010652970464,3.358489015041414-.008021305950024,6.716978030088285-.012031958920488,10.075467045131518-.294556782419022,6.358978870952342-2.266650471099638,12.108258240257783-5.953149554599804,17.335777083062567-5.093976295520406,7.223369950643246-11.732476940200286,12.464435982776195-20.091920644070342,15.167328415265729-8.864971967339443,2.866365545385634-14.675203466100356,8.524074117265627-18.028962990068976,17.127966510721308-4.212631168140433,10.807215065146011-12.122985883130241,18.022521701881487-22.83038741386008,22.147820681564554-3.274788137141513,1.261688705633787-6.866569897700174,1.286771051500182-10.384739733710376,1.295864529163737-1.962575161080167-.002358317222388-3.923115282810613-.004670278613048-5.882491414200558-.007010133729636-14.14765274228921.095159341957697-24.121086794879375-7.03532097597963-30.85298271081956-18.777296955548081-4.743076872349775-8.272991584166448-11.178888825430477-13.338975019802092-20.563996674869486-15.182920199036744-15.676936861591457-3.080131384831475-28.77048880852999-16.986905848179958-30.836724087310358-32.846534257090752-1.33057079496939-10.21297620621408.871601651899255-19.852428439326104,6.473276641670964-28.612339648552734.447248430948093-.699405904899322.968397142358299-1.267005287685606,1.821015094108589-1.441118524326157,3.875122870409541.367306753609228,7.736657832660057.078070426594422,11.588752687130182-.301297889694979,1.489672364830767-.146718913252698,2.853049995181209-.105015988905507,3.97652512824061,1.024145045024852,1.597332314529922,2.019235212119384,1.840751724439542,4.536771005310584,2.491118367728632,6.901331318234952,3.967686439520548,14.425443693786292,8.473231065581786,28.620817727585745,17.027426118891526,41.153624965296331,5.314359624029748,7.786099496152019,11.469476212119844,14.708424825086695,19.612578816309906,19.66718943799242,4.752699248409044,2.89415069941424,9.76549131460888,5.111205835224609,15.349174061799204,5.713783286553735,2.131926165689947.230080587039993,4.27490359560943-.083185461817266,6.385547702429903-.532366685560191,1.037481172201296-.22080503070174,1.693819619460555-.807994856098958,2.098488009251014-1.745338087666823,1.411915186859915-1.273972283606781,3.281763565510118-1.107603967066098,4.95446207653913-1.540396817306828,9.809310440370609-2.538094507788628,17.191159088659333-8.524290815586937,23.203673891330254-16.391918969058679,7.59878037784074-9.943312863957544,12.224715523629129-21.23820898951999,14.845878334339432-33.40434780725991.203672097009985-.945358091581511.425773627679519-1.863226025016047.847273175209921-2.734280048907749,1.60106754338085-9.051713266975639,2.565592453949648-18.142533742982778,2.570036316061305-27.356372345511772.006432147329178-13.367639861162388-2.069259741620044-26.389860663966829-5.793016926210839-39.187532494102925-.331851786439074-1.140551466522084-.854645299130425-2.261432649846029-.480465334789187-3.500317698009894,1.45226898484907-1.338026205035931,1.277025160688936-2.816434849788493.644630022628917-4.538627499341601-.533319728348943-1.452444280685086-1.65904079225038-3.102353460026279.142260678840103-4.556102176982677,1.639015241060406.157139155238838,1.912938396630125,1.574916518429745,2.341162210601397,2.711139263012228,2.872504519509675,7.621712919006313,5.214247421899927,15.400470320008026,6.659136951579057,23.429601564135737.916998722070275,5.095609626556325,1.486281060089823,10.23470766606988,2.097318385629478,15.374690155364078.373530780339934,3.142188931406054.763343740729397,6.307707165376996,1.245730879889379,9.449264713983212.254050877230839,1.654476081574103,1.05243567368052,2.330368506669402,2.690541534020667,2.366279204923558,4.001652727571127.087739549757316,7.933047867360074-.612879210450046,11.896349850851038-.949184759198033.975762587258941.048568297206657,1.614128283419632.669816511814133,2.152078419600002,1.371152981175328,4.737717957939822,6.176759758873231,8.623927067270415,12.700766882599055,8.381426212108636,20.880422084728707-.00437893588969.148199789100545.106814707180092.286844674483291.215007876640811.412454711551618Z" fill="#fec054" stroke-width="0"/>
          <path d="M214.278791162189009,146.04043548340087c-4.67179472054886,1.723054951871745-9.580374723078421,1.285704587751752-14.408853589589853,1.571377618291081-.993093893079276.058757883327416-1.142133633689809-.77939633814276-1.282456550139614-1.450469080980838-.309295777289663-1.479044588222678-.605985127160238-2.97081254983641-.751187136409499-4.472524461531066-1.460133203969235-15.101253675384214-3.633164800810846-30.05510973847413-9.106924054849515-44.327089559748856-.536618997270125-1.399173772953873-.847178046400586-2.923785372338898-1.889266800999394-4.098136523005451-1.746093290561475-.493188151722279-2.054290100932121-2.144624816834039-2.64364379070139-3.471977298979255-4.055285353819272-9.13348195728031-9.469734337890259-17.385440592968735-16.505450355660287-24.448720596910789-7.051436207819279-7.079066241580222-15.307697745500263-12.277840099315654-25.386767888980103-13.883830704151478-8.296659026529596-1.321982268509601-16.198518324968973.023743358708089-23.551360826410018,4.181166181277149-.90075694000916.50930334939585-1.81831724750009.996477407255952-2.690104620909551,1.558934229422448-2.213974095000594.870223927389816-3.806698970700381,2.525135646870694-5.514877850950143,4.111764395145656-5.852205669989416,5.435779194207498-10.646968131179165,11.641541360666452-14.429234100089161,18.674636280029517-2.431803889860021,4.521928284179012-4.303759515400088,9.261836119099826-5.977032366190542,14.10191564786146-1.414565892320752,2.105180814412961-1.983113984138981,4.534935316005431-2.449700569410197,6.941728668727592-1.454602288060414,7.503305328033093-3.218371461149218,14.961356798425186-3.750097404259577,22.616941528543975-.557525883619746,8.027062113356806-1.165046420441286,16.053625267786629-.319545727339573,24.102993248923667.216771235998749,2.063723104072778.142356006659611,4.143929308735096.043539127998883,6.217012386832721-.039052144709785.819224614986524-.183288935519158,1.595759701156567-1.008253782109023,2.028891375090097-.533280443740296-.481534446244041-1.080953885029885-1.091026749249068-1.853169962460015-.910082237332972-2.899249186530142.679390701994635-5.88911623830063.086294598952009-8.76445581373082.622399219982981-1.765954963970216.329251308092353-3.290192512080466.193721522347914-4.795205220669231-.693791800416875-.916716923480635-.70104937202268-.78937866186061-1.634580137222656-.625167493270055-2.609942620487345,1.208414243859806-7.177517533493301-.188776847580812-13.684840200172403-4.630706912210371-19.590006073512995-4.385500715419766-5.830139427698668-6.694868908440185-12.433071999737876-6.39254617745064-19.82725116077745.002734935860644-2.280826869438897.005435292530819-4.560570281711989.008152417191013-6.837736704665076-.260361644990553-8.508907149014703,3.042688461440775-15.610999463860935,8.431547164089352-21.99858505517841,5.201407434120483-6.165395761478067,11.65895576415096-10.280816835986116,19.288842540610858-12.714595373498014,7.521075741089589-2.399071806286884,12.117213776318749-7.500257808438619,14.313412238199817-15.090900297904227,3.589602319279948-12.40657868537528,11.542259547359208-21.090963537471907,23.318967379869719-26.294716944727043,2.964860006719391-1.31007877736738,6.247481841890476-.954069769622947,9.341858280469751-1.610252413593116,3.038443292980446.003628459575339,6.076893906440091.007256927894559,9.115337199420537.010885387471717,3.114534917749552.559368265452576,6.35888088108004.287642104342012,9.381693478080706,1.420435735541105,9.225223656809248,3.457128974163425,15.970749226738917,9.759538491480271,20.788419522377808,18.236761610207395.986054335720837,1.735064234444508,1.846019840881127,3.544364091079842,2.687544031461584,5.354513116724775,2.961632135458785,6.370568982962141,8.08189280427905,10.123025840650371,14.809296895418811,11.303404925158247,8.452217344440214,1.483021798389018,15.861190227380575,4.917272967883036,22.002929671580205,10.802736528899914,6.509699803431431,6.238058273396746,10.651919388859824,13.793188123430809,11.927275550620834,22.893638317722434,1.270130051039814,9.063070577609324-.432828385990433,17.456407573195975-4.847058935380119,25.370675287667837-3.521284001020831,6.313330344977658-3.675798071819372,12.915970767533508-1.812662838319739,19.709212602154366.234858034389617.856332094046593.575166713719227,1.682796242768745-.073084728901449,2.498584615725122Z" fill="#ffd447" stroke-width="0"/>
          <path d="M55.365140344289102,105.595459941847366c.146888376080824.007284040086233.292798082649824-.001561109451359.437728164921282-.026550091633908-.011019613770259,2.581590290270469-.022038132159651,5.163173260911208-.033059290100937,7.744763549333584-.139684129719171.003369203333932-.277628591349639-.010522281769227-.413836081619593-.04166713759696.003055732680878-2.558846333056863.006111474109275-5.117699987040396.009167206799248-7.676546320102716Z" fill="#ffeab3" stroke-width="0"/>
          <path d="M147.827965687680262,251.152162410691744c-.02011015106109.135515784710151-.034898981910374.271594315156108-.04436651001015.408250233180297-2.238857190890485-.002673606850294-4.477707061309047-.005347204962163-6.716564252199532-.008020811817914-.008320979130076-.136882146967764-.022594255540753-.273141801619204-.04287839303106-.408779033889004,2.267897336720125.002854704833226,4.535853254721587.005694837755073,6.803809155240742.008549612526622Z" fill="#ffe0b9" stroke-width="0"/>
          <path d="M190.601312836450234,172.964491762400939c-2.000224902370974,10.744144367650733-5.788591649559748,20.823198729845899-11.47841545196934,30.146409227734694-5.505660657350745,9.021397907361461-12.493502019000516,16.518241949972435-22.375377077161829,20.886439752748629-3.310804360487964,1.463513171245722-6.793084165539767,2.253061232962864-10.361455733158436,2.726242071510569-2.819278387119994,1.788944693771555-5.938023336109836,1.101474246896032-8.831312834701748.659905063299448-8.451020637279726-1.289762313856045-15.603780531098892-5.327571222576807-21.907848576518518-11.044023511922205-12.591192964149741-11.417466455324757-19.935468963851235-25.927531275490765-24.866848301140635-41.871272543980012-2.672576705870597-8.640753376865177-4.451465689089673-17.495484685885458-5.172715705490191-26.492033343150979-.726035881858479-9.056234638695969-.885120588920472-18.133740398161535.17654993566066-27.225359981393922.54692829880878-4.683625486784877,1.2093691300106-9.323458291964926,2.13776466453055-13.936962214520463.287619302220264-1.429259531256321.644872775788826-2.80785556311821,1.868350820699561-3.76873147758306,1.524853446519046-1.06372656559688,3.351981843819885-1.156804651360289,5.056029694280369-1.230453536361892,6.211693148339691-.268464230590325,12.412848329599001-.71765833837344,18.613275666188201-1.121331738368099,8.743344088661615-.569223192955178,17.492447488280959-1.05715516132841,26.232437499400476-1.69272467720657,5.64074748467101-.410198508980102,11.290289793791089-.773803402709746,16.94011238026178-1.028823846332671,3.980889083108195-.179682415149728,7.943791294299444-.726802100081841,11.942732847508523-.587848523175126.996261963229699.03461711134878,1.994038567239841-.016001620617317,2.476932452849724,1.015428650840477.498227793330443,1.064180485605903-.10412798715879,1.821829550088296-.952533943020171,2.42124292288463-.593240144269657.419125250631623-.648492470798374,1.060534279968124-.703593553218525,1.697895012583103.013591710319815,1.142235909323063-.722964391290589,1.882498552724428-1.400899875661707,2.67945863604109-9.45379762264929,11.113450281385667-19.201791684288764,21.970111509323033-28.811586716788952,32.946927905215489-6.354312546380243,7.258235285167757-12.800558809769427,14.439351864015407-19.152663178248986,21.699771424935534-3.878818949760898,4.433465498937949-8.035395473259996,8.658582242875127-11.248683255491414,13.643508635077524-.406479918839977.63059387064277-1.257644885468835,1.299823710569399-.770975651159461,2.115327497795079.460021082089952.770858183463133,1.467561229659623.547191516574458,2.224257250269147.464856113971109,5.861314587491506-.63776994516229,11.767216691321664-.627510643149435,17.628901592310285-1.25661215844957,2.85183330819018-.306064972673994,5.730190311569459-.306947037490318,8.590222027680284-.465441443733653,6.363342281760197-.352591026925438,12.731637347780634-.727036452733955,19.085631109381211-1.159100077478797,8.498447585989197-.577854189916252,17.017646824659096-.872114482715915,25.499520644869335-1.707275422117164,2.37828048990923-.234182504000273,4.77728901151022-.036258641448512,7.166267732080087-.377167609447497,1.174435119728514-.16757934198904,2.485486802188461.10480234078932,2.395923535759721,1.861749190584305Z" fill="#a4ddf1" stroke-width="0"/>
          <path d="M190.601312836450234,172.964491762400939c-.407862878149899-.678698528343375-1.006289163489782-1.016996137257593-1.797808440551307-.956357647248296-5.551206613288741.425218182854223-11.101778746549826.858578003677394-16.65280519803855,1.286183026650178-2.857872601111012.220153903441314-5.720915295099985.221156749452348-8.587501439849802.473775917216699-6.341370972440927.558891943479466-12.723280986710961.638126349134836-19.080245508879671,1.044533868234794-8.49613681691153.543170356977498-16.982282834560465,1.240985444528633-25.47681256235046,1.8115380194522-3.734691009989547.250850397498652-7.480687001900151.328796081901601-11.219172407631049.529537465601607-2.068279314449683.111063162277787-2.125690793969625-.746667633786274-1.243720540798677-2.259364233490487,2.631584533699424-4.513537847700718,6.173630488539857-8.314408148024086,9.567511119268602-12.223629527972662,6.5277973174816-7.518990179469256,13.10584910713078-14.994521840189918,19.688310098221336-22.465824055729172,5.161774204059839-5.85878374443746,10.387169792169516-11.661603491604183,15.537755315939648-17.530152083474604,5.778307344789937-6.583757185258946,11.504254902079992-13.213471842400395,17.252974592260216-19.82320975618677,2.901571642179988-4.648667382187341,6.462159413269546-8.773620675892744,10.1863531370891-12.764083353131355.659262608260178-.706415089030997,1.475027145141212-1.22052729650386,2.537430279309774-1.057674563973706,2.52241404508095,1.696355589403538,6.029192912630606,10.067376961980699,5.4128991485195,12.909082054780811,2.383015257801162,8.1102327589997,4.503337270802149,16.273675173473748,5.597194667670919,24.683090508835448,1.992512766259097,15.318047376098548,1.667943229340381,30.552402109129616-1.405798296569628,45.707592329161344-.045390783780022.223849286530822-.208437183100614.423838239601537-.316563963609951.634962031273972Z" fill="#caebf6" stroke-width="0"/>
          <path d="M89.924277089729003,103.71313213445319c-2.021106246149429,6.140144153370784-2.771508255929803,12.513323025470527-3.289191345358631,18.90429148444673-1.673192710559306,20.656100571730349.706671316680513,40.796486118881148,8.196167632229844,60.195147264992556,4.676888507099648,12.113680294893129,11.102528535970123,23.159684540771195,20.763206518789957,32.070418587612949,8.691558009009896,8.016817938505483,18.696905642918864,12.655465623891359,30.791553417970135,11.840607923550124.167623433879271,1.649855854118869-.802550306660123,2.162480542108824-2.23074123096012,2.488211181096631-6.412799836280101,1.462444355469415-12.312475864420776-.178428760102179-18.006599834199733-2.928998082428734-9.186337776680375-4.437500618570994-16.31424549356052-11.242329916198287-22.307168504819856-19.400645441719462-8.344838773071388-11.36006548120713-13.544825348430095-24.134235652052666-17.310035479011276-37.590306751728349-1.243904524988466-4.445469004162078-2.580074346709807-8.86510279461254-3.873977901879698-13.296677803735292.038309142320941-7.72022482517059-.834617808310213-15.424721644812962-.450303366560547-23.148654962771616.634217954540873-12.746426243700625,2.208275733330083-25.342178075474294,6.278916862360347-37.514800039416514.249402762579848-.745793346395658.632987667780981-1.446717501536114.954139125640722-2.168514991450138,1.137749538289427.793989048124786.914851290139268,1.897807791943706.681260807688886,3.002184800237956-.327662792538831,1.549165240214279-.651632901348421,3.095684711515787-.694147843869359,4.690543666103622-.02153534900026.807905404162739-.040113290930094,1.582152678565762.612693672139358,2.186726405749141.084771882111454.244642441852193.045761188750475.468250435578739-.115772530160029.670466759460396Z" fill="#ffd35a" stroke-width="0"/>
          <path d="M186.726480428958894,101.938846893130176c-1.89794016174892-4.166751367196412-3.140767991350003-8.617307135764349-5.4586966505085-12.602115012696231-.980712407439569-.280530728718077-1.652522592810783-.897997353862593-2.09046047116135-1.819849083976806-3.347076545469463-7.045770616103255-7.780648823198135-13.389307787183498-13.197832668889532-18.940397218315411-8.083950079149872-8.283807972989962-17.57563883299008-13.97888101879289-29.580080256630026-14.123119207142736-7.252329239459868-.087137381799039-13.714090204628519,2.431134221244065-19.651065135480167,6.473744312461349-1.14628045795871.780525344718626-2.205426914630152,1.954823408326774-3.863382413099316,1.419429162575398-1.623246144788936-1.202970867856493-1.054388007480156-2.424192287073311.027774939340816-3.57777756149153.803234157039697-.856250959270255,1.865116264969402-1.458597669727169,2.490010784909828-2.497367535221201,4.63844753165904-2.695748774947788,9.405144604348607-4.982431713551705,14.806862415958676-5.826853138500155,10.441267575830352-1.632234276101372,19.93443653992108.769733668295885,28.700451543159943,6.42310211782933,9.819280398811316,6.332636381337579,16.83286075074102,15.196931596992727,22.59300829447966,25.19319382303911,2.074995527400461,3.600999582329678,3.847618489480737,7.330691527335148,5.336958822081215,11.202916897667819-.017180394670504,2.028413046453352.905231987970183,3.792168896776275,1.561419591849699,5.636217646631849.567468269709934,1.594708874357821.322072107730492,2.819794010974874-1.674968796010944,3.038874797139215Z" fill="#fdbe5c" stroke-width="0"/>
          <path d="M115.402748557440646,56.271394749323008c-.15814627087093,1.123355116145831-1.084094304220343,1.701183453047634-1.756125831770987,2.45524441400994-.916277361198809,1.028130495760706-1.36031129128969,2.124550911299593-.603091143120764,3.439284898771803.349571319760798,1.22612141873833-.457434898398787,1.976779850927414-1.202533560979646,2.670694431666561-5.36834977629951,4.999579013454422-9.548024993950094,10.897300610331513-12.955693507748947,17.341115889728826-2.760599158529658,5.22023108488429-4.918995023410389,10.7024362155571-6.594138528031181,16.376437613249436-.502883376779209,1.703361845362451-.573976825258796,3.70225106525686-2.489313426260196,4.68115218240564-1.542838229099289.397229082949707-1.195902958977968-.800544842848467-1.32268515891883-1.580134284437008-.474768263149599-2.919409304260626.972122697568921-5.623506533953332.961108542940565-8.491993994328368,4.862078618829401-14.966235324287481,12.910278722529256-27.690007947627237,25.962472613889986-36.891801151066829Z" fill="#fec75a" stroke-width="0"/>
          <path d="M89.801852559528925,103.235324179155214c2.611353409531148-9.683482204665779,6.152047542940636-18.966742825323308,11.582834293210908-27.470153163512805,3.251572769229824-5.091242884371241,7.258380504199522-9.507234207778311,11.658833775331004-13.599268929423488,4.220523617679646-3.02277804849291,8.550298652698984-5.843686271491606,13.604302343579548-7.314697186546255,10.995961369599172-3.200472141425053,21.17071993502941-1.118316114918343,30.550383311559926,5.079428662906139,11.035787469008937,7.292055487854668,18.505456184719151,17.590616384593886,24.069694386780611,29.406296122706408-2.842278394811729,1.88622710225718-4.540551527301432,4.86037896268499-6.866453289279889,7.23954830526236-1.99225109199142,2.037870439040489-3.878500890581563,4.17938549113569-5.811649525410758,6.275052085831703-.146881249160288-1.339943205173768.454518187589201-2.283706234100464,1.522372799849109-3.032329085068341.393358806120887-.275763795763851.689032720400064-.741271116665303.380157921150385-1.24260426555702-.239720430139641-.389108475812463-.677204931100277-.262297881461564-1.081601578009213-.239082937134299-9.612528385940095.551844899149728-19.227345650231655,1.064871464914177-28.838761402601449,1.635173771164773-7.14582630438963.424002081883373-14.288519148060004.902929563850194-21.430696731718854,1.385620621980706-9.285122227620377.627509741119866-18.568687286429849,1.278228707335074-27.851384102499651,1.940567035033382-.462705018449924.033006613542966-.910747241790887.271485471150299-1.365615018439712.414278871689021-.04080082712062-.159293712777071-.081609009681415-.318558150591343-.122417183501966-.477829909332286Z" fill="#bae5f6" stroke-width="0"/>
        </g>
      </g>
    </a>
  </g>
  <g id="Pattern">
    <a xlink:href="https://www.notion.so/dmmnotes/Type-C-162696deae144fea8a7d2776d67b5fc9?pvs=4">
      <g id="C">
        <path d="M50.760029193090304,266.026474884247364c-20.392578125,0-36.982421875-16.26953125-36.982421875-36.2685546875,0-19.998046875,16.58984375-36.267578125,36.982421875-36.267578125s36.982421875,16.26953125,36.982421875,36.267578125c0,19.9990234375-16.58984375,36.2685546875-36.982421875,36.2685546875Z" fill="url(#C4)" stroke-width="0"/>
        <path d="M50.760151263399166,200.278305938934864c16.676025390621362,0,30.194580078121362,13.1986083984375,30.194580078121362,29.47991943359375,0,16.2813720703125-13.5185546875,29.47998046875-30.194458007810681,29.48004150390625-16.676025390619543,0-30.194580078119543-13.1986083984375-30.194580078119543-29.47991943359375,0-16.2813720703125,13.5185546875-29.47998046875,30.194458007808862-29.48004150390625M50.760151263399166,186.701523712372364h-.000122070308862c-24.135498046880457.0001220703125-43.771118164069776,19.3153076171875-43.771118164069776,43.05682373046875s19.6357421875,43.05670166015625,43.771362304689319,43.05670166015625c24.135620117189319-.0001220703125,43.771240234380457-19.3153076171875,43.771240234380457-43.05682373046875s-19.6357421875-43.05670166015625-43.771362304691138-43.05670166015625h0Z" fill="#181818" stroke-width="0"/>
      </g>
    </a>
    <a xlink:href="https://www.notion.so/dmmnotes/Type-C-162696deae144fea8a7d2776d67b5fc9?pvs=4">
      <g>
        <path d="M58.453125,177.1875c.052734375-1.5283203125-.2021484375-2.6748046875-.76953125-3.439453125-.56640625-.7626953125-1.2822265625-1.2373046875-2.1455078125-1.4228515625-.8642578125-.18359375-1.794921875-.0908203125-2.79296875.27734375-1,.369140625-1.9033203125.896484375-2.712890625,1.580078125-1.8896484375,1.5810546875-3.4140625,3.59765625-4.57421875,6.0478515625-1.162109375,2.4501953125-1.943359375,5.01953125-2.3486328125,7.7080078125-.404296875,2.6875-.4326171875,5.3623046875-.0810546875,8.0234375.3505859375,2.6611328125,1.1201171875,4.9677734375,2.3076171875,6.9169921875.755859375,1.2646484375,1.66015625,2.201171875,2.712890625,2.8056640625,1.052734375.607421875,2.171875.94921875,3.3603515625,1.0283203125,1.1865234375.0791015625,2.3603515625-.10546875,3.521484375-.5537109375,1.16015625-.447265625,2.19921875-1.119140625,3.1171875-2.015625,1.4033203125-1.3701171875,2.537109375-2.3447265625,3.400390625-2.9248046875.86328125-.5791015625,1.8349609375-.8955078125,2.9150390625-.9482421875,3.0771484375,0,5.1142578125.8427734375,6.11328125,2.529296875.998046875,1.6875,1.0654296875,3.7421875.2021484375,6.166015625-.7021484375,1.8974609375-1.7685546875,3.5576171875-3.1982421875,4.98046875-1.4306640625,1.4228515625-3.0908203125,2.568359375-4.9794921875,3.4384765625-1.8896484375.869140625-3.9140625,1.4755859375-6.072265625,1.818359375-2.1591796875.341796875-4.291015625.4345703125-6.396484375.2763671875s-4.1025390625-.5927734375-5.9912109375-1.3046875c-1.890625-.7109375-3.509765625-1.671875-4.8583984375-2.884765625-1.51171875-1.3701171875-2.833984375-2.9375-3.9677734375-4.7041015625-1.1328125-1.7646484375-2.078125-3.6357421875-2.8330078125-5.6123046875-.7568359375-1.9765625-1.32421875-4.03125-1.701171875-6.166015625-.3779296875-2.134765625-.56640625-4.28125-.56640625-6.4423828125.107421875-4.8486328125,1.16015625-9.5380859375,3.158203125-14.0712890625,1.99609375-4.5322265625,4.6416015625-8.484375,7.9345703125-11.857421875,1.5107421875-1.5283203125,3.3056640625-2.8330078125,5.3837890625-3.9130859375s4.2109375-1.779296875,6.396484375-2.095703125c2.1865234375-.3154296875,4.33203125-.2099609375,6.4375.31640625,2.1044921875.52734375,3.966796875,1.634765625,5.5869140625,3.3203125,1.240234375,1.2646484375,2.2392578125,2.71484375,2.9951171875,4.34765625.755859375,1.634765625,1.322265625,3.2685546875,1.7001953125,4.9013671875.2158203125,1.0546875.310546875,2.0556640625.2841796875,3.00390625-.0283203125.9482421875-.2568359375,1.845703125-.6884765625,2.6875-.5947265625,1.0546875-1.51171875,1.806640625-2.7529296875,2.2529296875-1.2421875.44921875-2.4697265625.5927734375-3.6845703125.435546875-1.2138671875-.158203125-2.2666015625-.619140625-3.1572265625-1.3837890625-.890625-.763671875-1.3095703125-1.8046875-1.2548828125-3.1220703125Z" fill="none" stroke="#181818" stroke-linecap="round" stroke-linejoin="round" stroke-width="26.354898452758789"/>
        <path d="M58.453125,177.1875c.052734375-1.5283203125-.2021484375-2.6748046875-.76953125-3.439453125-.56640625-.7626953125-1.2822265625-1.2373046875-2.1455078125-1.4228515625-.8642578125-.18359375-1.794921875-.0908203125-2.79296875.27734375-1,.369140625-1.9033203125.896484375-2.712890625,1.580078125-1.8896484375,1.5810546875-3.4140625,3.59765625-4.57421875,6.0478515625-1.162109375,2.4501953125-1.943359375,5.01953125-2.3486328125,7.7080078125-.404296875,2.6875-.4326171875,5.3623046875-.0810546875,8.0234375.3505859375,2.6611328125,1.1201171875,4.9677734375,2.3076171875,6.9169921875.755859375,1.2646484375,1.66015625,2.201171875,2.712890625,2.8056640625,1.052734375.607421875,2.171875.94921875,3.3603515625,1.0283203125,1.1865234375.0791015625,2.3603515625-.10546875,3.521484375-.5537109375,1.16015625-.447265625,2.19921875-1.119140625,3.1171875-2.015625,1.4033203125-1.3701171875,2.537109375-2.3447265625,3.400390625-2.9248046875.86328125-.5791015625,1.8349609375-.8955078125,2.9150390625-.9482421875,3.0771484375,0,5.1142578125.8427734375,6.11328125,2.529296875.998046875,1.6875,1.0654296875,3.7421875.2021484375,6.166015625-.7021484375,1.8974609375-1.7685546875,3.5576171875-3.1982421875,4.98046875-1.4306640625,1.4228515625-3.0908203125,2.568359375-4.9794921875,3.4384765625-1.8896484375.869140625-3.9140625,1.4755859375-6.072265625,1.818359375-2.1591796875.341796875-4.291015625.4345703125-6.396484375.2763671875s-4.1025390625-.5927734375-5.9912109375-1.3046875c-1.890625-.7109375-3.509765625-1.671875-4.8583984375-2.884765625-1.51171875-1.3701171875-2.833984375-2.9375-3.9677734375-4.7041015625-1.1328125-1.7646484375-2.078125-3.6357421875-2.8330078125-5.6123046875-.7568359375-1.9765625-1.32421875-4.03125-1.701171875-6.166015625-.3779296875-2.134765625-.56640625-4.28125-.56640625-6.4423828125.107421875-4.8486328125,1.16015625-9.5380859375,3.158203125-14.0712890625,1.99609375-4.5322265625,4.6416015625-8.484375,7.9345703125-11.857421875,1.5107421875-1.5283203125,3.3056640625-2.8330078125,5.3837890625-3.9130859375s4.2109375-1.779296875,6.396484375-2.095703125c2.1865234375-.3154296875,4.33203125-.2099609375,6.4375.31640625,2.1044921875.52734375,3.966796875,1.634765625,5.5869140625,3.3203125,1.240234375,1.2646484375,2.2392578125,2.71484375,2.9951171875,4.34765625.755859375,1.634765625,1.322265625,3.2685546875,1.7001953125,4.9013671875.2158203125,1.0546875.310546875,2.0556640625.2841796875,3.00390625-.0283203125.9482421875-.2568359375,1.845703125-.6884765625,2.6875-.5947265625,1.0546875-1.51171875,1.806640625-2.7529296875,2.2529296875-1.2421875.44921875-2.4697265625.5927734375-3.6845703125.435546875-1.2138671875-.158203125-2.2666015625-.619140625-3.1572265625-1.3837890625-.890625-.763671875-1.3095703125-1.8046875-1.2548828125-3.1220703125Z" fill="#fff" stroke-width="0"/>
      </g>
    </a>
  </g>
</svg>