<?xml version="1.0" encoding="UTF-8"?>
<svg id="Pattern" xmlns="http://www.w3.org/2000/svg" xmlns:xlink="http://www.w3.org/1999/xlink" viewBox="0 0 280 280">
  <defs>
    <style>
      .cls-1 {
        fill: url(#C4);
      }

      .cls-2 {
        fill: #f48a81;
      }

      .cls-3 {
        fill: #fac6bb;
      }

      .cls-4 {
        fill: #cc768c;
      }

      .cls-5 {
        fill: #f5998c;
      }

      .cls-6 {
        fill: #ebb68a;
      }

      .cls-7 {
        fill: #fff;
      }

      .cls-8 {
        fill: #58add2;
      }

      .cls-9 {
        fill: #f9beb5;
      }

      .cls-10 {
        fill: #5892cd;
      }

      .cls-11 {
        fill: #5982c2;
      }

      .cls-12 {
        fill: #f7a695;
      }

      .cls-13 {
        fill: #58a7dc;
      }

      .cls-14 {
        fill: #424525;
      }

      .cls-15 {
        fill: url(#AC78);
      }

      .cls-16 {
        fill: url(#C4-2);
      }

      .cls-17 {
        fill: #5dbda9;
      }

      .cls-18 {
        stroke: url(#linear-gradient);
        stroke-width: 38.117745490136699px;
      }

      .cls-18, .cls-19 {
        fill: none;
        stroke-linecap: round;
        stroke-linejoin: round;
      }

      .cls-20 {
        fill: #5cb7b9;
      }

      .cls-21 {
        fill: #ecb78b;
      }

      .cls-22 {
        fill: #59b1c7;
      }

      .cls-23 {
        fill: #589ed6;
      }

      .cls-19 {
        stroke: #424525;
        stroke-width: 26.354899082052601px;
      }

      .cls-24 {
        fill: #f8b4a0;
      }

      .cls-25 {
        fill: #cb778c;
      }

      .cls-26 {
        fill: #ca778c;
      }

      .cls-27 {
        fill: #ecb68b;
      }

      .cls-28 {
        fill: #f5988b;
      }
    </style>
    <linearGradient id="C4" x1="250.813055901304324" y1="763.654148744602935" x2="354.041375721461861" y2="642.704228955333633" gradientTransform="translate(-398.017275026578773 -373.787011054057984) rotate(-15.471741665140062)" gradientUnits="userSpaceOnUse">
      <stop offset="0" stop-color="#7e9c4b"/>
      <stop offset=".487868088942308" stop-color="#90a13d"/>
      <stop offset=".713373248351595" stop-color="#9c9b43"/>
      <stop offset="1" stop-color="#b3914e"/>
    </linearGradient>
    <linearGradient id="linear-gradient" x1="-3499.351436346109949" y1="593.573846914314345" x2="-3422.316257265631066" y2="487.54401918768383" gradientTransform="translate(3589.289871225607385 -448.850093946788547)" gradientUnits="userSpaceOnUse">
      <stop offset="0" stop-color="#a33e3e"/>
      <stop offset=".150057362791271" stop-color="#b14a4a"/>
      <stop offset=".459049752216561" stop-color="#c85d5d"/>
      <stop offset=".749401891517806" stop-color="#d66969"/>
      <stop offset="1" stop-color="#db6e6e"/>
    </linearGradient>
    <linearGradient id="C4-2" data-name="C4" x1="14.463403155743435" y1="-176.939666886404666" x2="38.985679106132011" y2="-176.939666886404666" gradientTransform="translate(76.030900418926194 221.893824696396621) rotate(8.745927171062133)" xlink:href="#C4"/>
    <linearGradient id="AC78" x1="-16.608098067277751" y1="-156.209779425369561" x2="7.466082269987965" y2="-156.209779425369561" gradientTransform="translate(76.030900418926194 221.893824696396621) rotate(8.745927171062133)" gradientUnits="userSpaceOnUse">
      <stop offset="0" stop-color="#dc6376"/>
      <stop offset=".5" stop-color="#f06669"/>
      <stop offset="1" stop-color="#e07465"/>
    </linearGradient>
  </defs>
  <a xlink:href="https://www.notion.so/dmmnotes/Type-C-162696deae144fea8a7d2776d67b5fc9?pvs=4">
    <g id="C">
      <path class="cls-1" d="M73.47705078125,268.0634765625c-20.26806640625-.0009765625-36.8935546875-10.8671875-41.36962890625-27.0390625-2.9013671875-10.4814453125-.46875-21.6240234375,6.85107421875-31.3740234375,6.84765625-9.1220703125,17.2861328125-15.990234375,29.392578125-19.341796875,5.2177734375-1.443359375,10.53125-2.17578125,15.79345703125-2.17578125,20.26806640625,0,36.8935546875,10.865234375,41.36962890625,27.0380859375,5.767578125,20.8359375-10.4912109375,43.587890625-36.2431640625,50.716796875-5.2177734375,1.443359375-10.53076171875,2.17578125-15.79052734375,2.17578125h-.00341796875Z"/>
      <path class="cls-14" d="M84.14508056640625,196.201751708984375c16.175384521484375,0,29.9896240234375,8.106475830078125,33.5921630859375,21.121551513671875,4.587921142578125,16.5751953125-9.1207275390625,34.83599853515625-30.619232177734375,40.78662109375-4.61749267578125,1.278076171875-9.216949462890625,1.8841552734375-13.641448974609375,1.8841552734375-16.17535400390625,0-29.9896240234375-8.1064453125-33.5921630859375-21.12152099609375-4.587890625-16.5751953125,9.12078857421875-34.83599853515625,30.6192626953125-40.78662109375,4.61749267578125-1.278106689453125,9.2169189453125-1.884185791015625,13.64141845703125-1.884185791015625M84.145111083984375,180.06304931640625c-5.9896240234375,0-12.027740478515625.8306884765625-17.946685791015625,2.468994140625-13.81524658203125,3.823944091796875-25.78106689453125,11.73431396484375-33.69329833984375,22.2738037109375-8.7271728515625,11.6251220703125-11.70672607421875,25.61114501953125-8.17462158203125,38.37188720703125,5.45611572265625,19.71148681640625,25.20635986328125,32.955078125,49.14605712890625,32.955078125,5.989593505859375,0,12.027740478515625-.8306884765625,17.946685791015625-2.468994140625,13.815216064453125-3.823974609375,25.781097412109375-11.73431396484375,33.69329833984375-22.2738037109375,8.727142333984375-11.6251220703125,11.706695556640625-25.61114501953125,8.174591064453125-38.37188720703125-5.456085205078125-19.71148681640625-25.206329345703125-32.955078125-49.146026611328125-32.955078125h0Z"/>
    </g>
  </a>
  <a xlink:href="https://www.notion.so/dmmnotes/Type-C-162696deae144fea8a7d2776d67b5fc9?pvs=4">
    <g>
      <path class="cls-19" d="M50.5263671875,185.8056640625c.052734375-1.5283203125-.2021484375-2.6748046875-.76953125-3.439453125-.56640625-.7626953125-1.2822265625-1.2373046875-2.1455078125-1.4228515625-.8642578125-.18359375-1.794921875-.0908203125-2.79296875.27734375-1,.369140625-1.9033203125.896484375-2.712890625,1.580078125-1.8896484375,1.5810546875-3.4140625,3.59765625-4.57421875,6.0478515625-1.162109375,2.4501953125-1.943359375,5.01953125-2.3486328125,7.7080078125-.404296875,2.6875-.4326171875,5.3623046875-.0810546875,8.0234375.3505859375,2.6611328125,1.1201171875,4.9677734375,2.3076171875,6.9169921875.755859375,1.2646484375,1.66015625,2.201171875,2.712890625,2.8056640625,1.052734375.607421875,2.171875.94921875,3.3603515625,1.0283203125,1.1865234375.0791015625,2.3603515625-.10546875,3.521484375-.5537109375,1.16015625-.447265625,2.19921875-1.119140625,3.1171875-2.015625,1.4033203125-1.3701171875,2.537109375-2.3447265625,3.400390625-2.9248046875.86328125-.5791015625,1.8349609375-.8955078125,2.9150390625-.9482421875,3.0771484375,0,5.1142578125.8427734375,6.11328125,2.529296875.998046875,1.6875,1.0654296875,3.7421875.2021484375,6.166015625-.7021484375,1.8974609375-1.7685546875,3.5576171875-3.1982421875,4.98046875-1.4306640625,1.4228515625-3.0908203125,2.568359375-4.9794921875,3.4384765625-1.8896484375.869140625-3.9140625,1.4755859375-6.072265625,1.818359375-2.1591796875.341796875-4.291015625.4345703125-6.396484375.2763671875s-4.1025390625-.5927734375-5.9912109375-1.3046875c-1.890625-.7109375-3.509765625-1.671875-4.8583984375-2.884765625-1.51171875-1.3701171875-2.833984375-2.9375-3.9677734375-4.7041015625-1.1328125-1.7646484375-2.078125-3.6357421875-2.8330078125-5.6123046875-.7568359375-1.9765625-1.32421875-4.03125-1.701171875-6.166015625-.3779296875-2.134765625-.56640625-4.28125-.56640625-6.4423828125.107421875-4.8486328125,1.16015625-9.5380859375,3.158203125-14.0712890625,1.99609375-4.5322265625,4.6416015625-8.484375,7.9345703125-11.857421875,1.5107421875-1.5283203125,3.3056640625-2.8330078125,5.3837890625-3.9130859375s4.2109375-1.779296875,6.396484375-2.095703125c2.1865234375-.3154296875,4.33203125-.2099609375,6.4375.31640625,2.1044921875.52734375,3.966796875,1.634765625,5.5869140625,3.3203125,1.240234375,1.2646484375,2.2392578125,2.71484375,2.9951171875,4.34765625.755859375,1.634765625,1.322265625,3.2685546875,1.7001953125,4.9013671875.2158203125,1.0546875.310546875,2.0556640625.2841796875,3.00390625-.0283203125.9482421875-.2568359375,1.845703125-.6884765625,2.6875-.5947265625,1.0546875-1.51171875,1.806640625-2.7529296875,2.2529296875-1.2421875.44921875-2.4697265625.5927734375-3.6845703125.435546875-1.2138671875-.158203125-2.2666015625-.619140625-3.1572265625-1.3837890625-.890625-.763671875-1.3095703125-1.8046875-1.2548828125-3.1220703125Z"/>
      <path class="cls-7" d="M50.5263671875,185.8056640625c.052734375-1.5283203125-.2021484375-2.6748046875-.76953125-3.439453125-.56640625-.7626953125-1.2822265625-1.2373046875-2.1455078125-1.4228515625-.8642578125-.18359375-1.794921875-.0908203125-2.79296875.27734375-1,.369140625-1.9033203125.896484375-2.712890625,1.580078125-1.8896484375,1.5810546875-3.4140625,3.59765625-4.57421875,6.0478515625-1.162109375,2.4501953125-1.943359375,5.01953125-2.3486328125,7.7080078125-.404296875,2.6875-.4326171875,5.3623046875-.0810546875,8.0234375.3505859375,2.6611328125,1.1201171875,4.9677734375,2.3076171875,6.9169921875.755859375,1.2646484375,1.66015625,2.201171875,2.712890625,2.8056640625,1.052734375.607421875,2.171875.94921875,3.3603515625,1.0283203125,1.1865234375.0791015625,2.3603515625-.10546875,3.521484375-.5537109375,1.16015625-.447265625,2.19921875-1.119140625,3.1171875-2.015625,1.4033203125-1.3701171875,2.537109375-2.3447265625,3.400390625-2.9248046875.86328125-.5791015625,1.8349609375-.8955078125,2.9150390625-.9482421875,3.0771484375,0,5.1142578125.8427734375,6.11328125,2.529296875.998046875,1.6875,1.0654296875,3.7421875.2021484375,6.166015625-.7021484375,1.8974609375-1.7685546875,3.5576171875-3.1982421875,4.98046875-1.4306640625,1.4228515625-3.0908203125,2.568359375-4.9794921875,3.4384765625-1.8896484375.869140625-3.9140625,1.4755859375-6.072265625,1.818359375-2.1591796875.341796875-4.291015625.4345703125-6.396484375.2763671875s-4.1025390625-.5927734375-5.9912109375-1.3046875c-1.890625-.7109375-3.509765625-1.671875-4.8583984375-2.884765625-1.51171875-1.3701171875-2.833984375-2.9375-3.9677734375-4.7041015625-1.1328125-1.7646484375-2.078125-3.6357421875-2.8330078125-5.6123046875-.7568359375-1.9765625-1.32421875-4.03125-1.701171875-6.166015625-.3779296875-2.134765625-.56640625-4.28125-.56640625-6.4423828125.107421875-4.8486328125,1.16015625-9.5380859375,3.158203125-14.0712890625,1.99609375-4.5322265625,4.6416015625-8.484375,7.9345703125-11.857421875,1.5107421875-1.5283203125,3.3056640625-2.8330078125,5.3837890625-3.9130859375s4.2109375-1.779296875,6.396484375-2.095703125c2.1865234375-.3154296875,4.33203125-.2099609375,6.4375.31640625,2.1044921875.52734375,3.966796875,1.634765625,5.5869140625,3.3203125,1.240234375,1.2646484375,2.2392578125,2.71484375,2.9951171875,4.34765625.755859375,1.634765625,1.322265625,3.2685546875,1.7001953125,4.9013671875.2158203125,1.0546875.310546875,2.0556640625.2841796875,3.00390625-.0283203125.9482421875-.2568359375,1.845703125-.6884765625,2.6875-.5947265625,1.0546875-1.51171875,1.806640625-2.7529296875,2.2529296875-1.2421875.44921875-2.4697265625.5927734375-3.6845703125.435546875-1.2138671875-.158203125-2.2666015625-.619140625-3.1572265625-1.3837890625-.890625-.763671875-1.3095703125-1.8046875-1.2548828125-3.1220703125Z"/>
    </g>
  </a>
  <g>
    <a xlink:href="https://www.notion.so/dmmnotes/images-d907be08547d4f08987667c1222a60f1?pvs=4">
      <g>
        <g>
          <path class="cls-18" d="M204.324210908380337,101.332645511405644l-.56799502890135,3.69206848691465c-.463357053438813.803194924688796-.480073141072353,1.740464065747801-.635381467087427,2.602348658931078-.894901787381968,4.966031064781419-3.894743172255403,8.656739591297082-7.297420167718883,12.04236571580077-3.368367637789561,3.351493668800686-7.446750531924408,5.620592137616768-12.014402228627659,6.974375183393931-.677716928967129.200856463574382-1.360770445015078.508148946915753-2.076881063429028.114848843946675-.36165737824922-.701939421645875-.959803007939627-1.150616156874094-1.60522158922322-1.578191899166995-9.405876039843861-6.231041239496335-18.821026927806088-12.448107059102767-28.242189696309651-18.655912379022993-10.259586213327566-6.760277323846822-20.503589669933717-13.544157586817164-30.765425422472617-20.301059062096101-4.910955787985586-3.233610226719975-9.839764219221252-6.441176385571453-14.713856645414126-9.731057313818383-.994278463911542-.671107415595543-1.791776809022849-1.442768019773212-1.768150681489715-2.756525172679176.380518353329535-1.379262323693183,1.147588008381717-2.600552334884924,1.609382078850103-3.946687425184791,1.766075777364676-3.648396809927362,1.180834612241597-7.070079615308714-1.123256064160159-10.240407940069417-2.805736688109391-3.860570522925627-7.781936898392814-5.464392001229498-12.082510205884319-4.024075050498141-.556047353684335.186225660734635-1.063238831637136.424386482043701-1.480329831450945.838154664355898-1.077925543559104.735988442906091-2.199367294113472,1.39980926636963-3.375995311740553,1.96974885364034-1.498492477276159.414967392383915-2.222207526225247,1.887819874147681-3.518021494684945,2.580044887134136-.825550935656793.304960399422271-1.614713065322576.181344957589317-2.323307532882609-.292619025809472-4.042072931277289-2.703654702369022-8.162845640006708-5.2885328359298-12.160348910490939-8.059194815961746-.196792050655858-.136394014178222-.358827316233146-.313321762218038-.481596192958023-.522319577357848-.277382047519495-.745934387194211.151026800598629-1.301250973507194.54931495492383-1.829609409935074,6.532155043594685-8.665410391935438,14.716265159180693-15.231704273071955,24.756053503022486-19.429023605054681.615041640563504-.25713126381379,1.234716397699231-.532439956223243,1.930904110138727-.48786115504663,3.10821568589563-.567568573022072,5.163938140683968,1.52792956731173,7.432642127356303,3.001396649038725,4.238292364272638,2.752662919390787,8.441356361123326,5.560052543065467,12.663294575133477,8.338304677679844.814017874345154.535666277230121,1.586186632948738,1.044921790105946,2.629395313328132.545514045159507.341644480082323-.163552886946491.755935887391388-.041882598483426,1.025308153857623.306997127800059.153878398476081.657880268796362-.410534431321139.932885933736543-.744825887773914,1.286089370016271-4.352202224097709,4.598352524628353-4.133683222931722,13.013341401352591,1.888570622948464,16.998970478423871,1.833325515584875,1.213325840077232,3.834081634220638,1.878820970016022,6.071948796552533,1.578097271389197,3.905502069303111.381737949441231,7.163471271618619-.917237832991304,9.825991887044438-3.774721683099415.22626892126209-.242837305520879.485537233704235-.452463915671615.777010305675503-.619100612020702.478568654943956-.171565997885409.851508270854538-.586297426425517,1.39278528189061-.616762307898171,1.266931756805207.07644233623796,2.220866822148309.858075851949252,3.203465757715094,1.510083299144753,9.560468847132142,6.343895150777826,19.166972899030952,12.618040707888213,28.71992739061352,18.973118960990178.75698517877936.503589208636186,1.752941638040284.973549544693014,1.308491708014117,2.231456367735518-.572252125261002.665867988856917-1.394733773180633.541589364824176-2.132598491605677.650565017585905-5.51652516100512.814702322992161-9.48890315956487,3.710827851216891-11.532059327535535,8.915121462023308-2.093155420921903,5.331646624377754-1.503022324885023,10.432074428612395,2.078997605969562,15.003604850724514,3.590261638699303,4.582034387567546,10.681592682558403,6.593140665394458,16.671515707868821,4.84526541509149,5.558699687573608-1.622046310423684,9.458049918503093-6.408311801733362,10.173903160477494-12.447002877010164.226639692862591-1.911871563544992-.197067423629051-3.800970322165085-.128919133450836-5.705998518080378.72841088054156-1.341570007813061,1.294824246891949-1.538251717225648,2.624501248876186-.878122136531601,1.458972740701938.72431111885453,2.722479132589797,1.758443979904769,4.079544629821612,2.64230504846455,2.516627587523544,1.639077309817367,5.0018776793695,3.328641683248861,7.540679277339223,4.932935114402426,1.260845120428712.796740371513806,2.120482844295111,1.71631497643466,1.817064177874272,3.322471516554288Z"/>
          <path class="cls-18" d="M120.584017815941479,42.507402751529298c-.047565631926773-.003988266116721-.110611580475961-.029910344683231-.140490279676669-.008832777626594-1.875931393902647,1.323629677732242-3.256735415894582.008848623985614-4.67051802590322-.916552049044185-4.547316103955382-2.976481550664175-9.127290921351232-5.908566555721336-13.577333384306257-9.025292813474152-1.670398659756756-1.169914085226992-3.298452316274052-2.007865139508795-5.354337405549813-1.840609395734646.193664057400383-1.147625191413681,1.231546172506569-1.246636726924407,2.033822248640718-1.528315280485913,4.575334959139582-1.606394312817429,9.289438389279894-2.598902399327926,14.095160732318618-3.261632115163593,5.506898844272655-.759425398273379,10.967466925805638-.407277361766319,16.420624269758264.366888824071793,5.396538948771195.766128288556502,10.815300775540891,1.477141949326324,16.085357502612169,2.898718567701508,7.538944654870647,2.033601903111048,14.495833702992968,5.433639579461669,21.104799704562538,9.538773195030444,7.976750418454685,4.954732035363122,15.112496984622339,10.921694933473191,21.237898446042891,18.061655545599933,7.548184926472459,8.7984097764529,13.320134589257577,18.558732459954626,16.104084961094486,29.920058244717438.952279159389946,3.886238106193559,1.325120919806068,7.815389468400099.689921462282655,11.798727867320849-.030308960653201.190034991108405-.055652745530097.376978828258871.060738262960513.549612801165495l-.349535402398033,2.272042145797968c.002783927922792-1.252621772351631-.805344066491671-1.902819193224786-1.758764358826738-2.521061430144982-4.043469727708725-2.62199173866793-8.070536633837037-5.269629528902442-12.083021534444924-7.938806145413764-.846744498410771-.563267652947616-1.39810026912528-.478131877916894-1.770557977326462.483048744103144-.815810542746476.011437776893217-.957278634628892-.664736560043821-1.178650552259569-1.20874940680369-2.157009837867008-5.300808644986319-6.045929962814625-8.357344051126347-11.721010607547214-9.189259902941558-.976537550433932-.143152363918489-2.158970542661336.081272581530357-2.796497668172378-1.043728056254622-.15099262633521-.794438759401601-.797837198415436-1.155589736606998-1.38833524047368-1.544972072211749-4.943890420947355-3.260090206336827-9.893994076044692-6.510764571710752-14.842892954524359-9.76327203593064-5.108692161138606-3.357510952359007-10.215109448279691-6.718504759259304-15.331878012269954-10.063659211778941-.516109515170683-.337411895592595-1.096779582136151-.576070464534496-1.647489918077554-.860556672036182-.242569506744985-.537376895297712.131591209810722-.90167895540435.365941669717358-1.305533700977321,2.208894321436674-3.806629039212567,2.456738824854256-7.753716060386068.279803228027959-11.571206826252819-2.129231950249959-3.733828142290804-5.619684671491996-5.453550088706834-9.890763026032801-5.525402113615201-.890293259439204-.014976129215938-1.809571732312179.114998928778732-2.584064914468399.668656669522534-1.634936614724211.647617342528974-3.386320513838655.981519451990607-4.950969411713231,1.825332988506489-.87868346831965.02568606308887-1.550433546257409.746797256741047-2.441041814046912.733926412352957Z"/>
          <path class="cls-18" d="M60.26330327859614,73.605343537470617c.342484500164574-1.891436885178337.718131708588771-3.773779427869158,1.518558478419436-5.539690892386716.894792043447524-.660485013158905,1.632760308286379-.118108372364077,2.364972293733445.328897349601903,2.899740715536609,1.770263169935788,5.696113442556452,3.700033447474198,8.52917562382936,5.57246821228,9.418666125278833,6.224992784913411,18.843278042517341,12.440887912433027,28.270366520344396,18.653113842374296,7.069319490030466,4.658504822065879,14.137340532273811,9.319307435618612,21.194029870981467,13.997131633082972,7.933981437316106,5.259383688127855,15.909461333943909,10.45607199674123,23.818811187396932,15.752718360266954.238556326941762.15974077087958.490303885380854.301619251515149.716131683955609.478060248662587,1.132642081674931.885041828669273,1.065218216073845,1.435716800815499-.235023697445286,2.038404711105613-.173406126061309.080375811079648-.299052692913392.236956822569482-.441454137437177.36466278865737-.389085404400248.175018248752167-.780406448897338.34524754924314-1.166893497016645.525811457453528-3.025795478130021,1.413663801078656-4.361060886409177,3.95913919477789-3.750272381797913,7.236301239136083.359477194242572,1.928835736052861,1.102595320247929,3.746015463801086,1.72331305249827,5.598725344447303.75720590277524,2.260077601113153,1.479278076878472,4.531962386836312,1.428213564404359,6.959902678594517-.563430310976401.254575342602038-1.021827641496202-.017745440401995-1.464669492979738-.308993230508349-5.582338028765662-3.671381993866817-11.123881000274196-7.404751330097497-16.746264017659996-11.015272708986231-.162349221904151-.104249956444619-.294505527377623-.241597661031847-.413219866684813-.393592805585286-.084317568725965-.127406265961326-.136615762559813-.267427109207347-.162192463891188-.417231058640027-.148038003337206-.717616051628283.011120733475764-1.421181306172002.091336016925197-2.130787246151158.213624534431801-1.889732363049916-.129949098582074-3.701136696259709-.807834953524434-5.45934145936917-1.065798193523733-1.986863428086508-2.384837241004789-3.753996812913101-4.328646766747624-4.979462154848079-3.494885268355574-1.69777288615478-7.030147726822179-2.258306713907587-10.697254992224771-.500984850410532-.841255103547155.403147239194368-1.520106016352656,1.199886862528729-2.571244523733185,1.131789102879338-1.755871690249478-.686201243172036-3.173714645112341-1.922259571443647-4.732958656652045-2.928772814020704-1.924593283456488-1.242320882218337-3.87658141159045-2.443864901499182-5.734211576136659-3.7874352416693-.500208066330742-.361788710606561-1.047380128702571-.682164607069353-1.293598711987215-1.299838077042295-.084479441531585-.992771397877732.704815067158052-1.384863568171568,1.329654144066808-1.852836760057471,1.428914581130812-1.070167226618651,2.588453875347113-2.344661889230338,3.276060486403367-4.013113632812747.857044291096827-1.908917327653398,1.010745380925073-3.944732244521219,1.089573716515588-5.993236873327987.573181365474738-2.727634375216439-.598933350087464-4.96354707098908-2.204085975485214-6.943833465498756-3.166907457112757-3.907028560755862-9.111402293376159-5.081481362256454-13.592569111497141-2.797447459510295-1.018080996323988.518916378230642-1.945047733912361,1.200318710225474-2.542277921726054,2.227079080437761-.624634733081621.95862404953732-1.501170201299828,1.669623947391301-2.360143002708355,2.39886995735651-.994139120615728.683715838604257-1.609788918893173,1.651112758538147-2.060175590384461,2.742691445855598-.194843576304265.47222263189542-.306199373386335.989637525108265-.725488725191099,1.341536018559054-1.121593928115544.744011708988182-2.083836655285268.24843339805193-3.044106127563282-.377050946419331-4.126368783930957-2.68780133465043-8.225391238862358-5.417203245879136-12.331501670443686-8.135540559662331-1.071177738856932-.709142033623721-2.050817074925362-1.523746741124341-3.443121726370009-.885865440441194-.873834957712461-.934570309560513-.590482720912405-2.099920357804876-.478922765894822-3.140919278763249.248812925325183-2.321740133527783.243521069300186-4.671739187357161.729582538569957-6.967489758797456.069507281707047-.980522586511142.468748755571141-1.92693600392704.30549245729344-2.931968543854964l.262151551802162-1.704031609342564c.499842147404706-.88247197570854.252694748594877-1.943760453717914.680709166043016-2.843426602645195Z"/>
          <path class="cls-18" d="M119.730479726613339,159.837402807923354c-.017988579866142-.074002946232213-.022616029136771-.148833881507016-.013879347361581-.224483471960411,1.301829006450134-.795256169827553,3.896133877580723-.401493225914237,4.919746563064109.746722404819593-.019614548029494.075706213143349-.045450476591213.149230942100985-.077506452289526.220565519734009l-4.828360763413002-.742804452593191Z"/>
          <path class="cls-18" d="M60.26330327859614,73.605343537470617c-.142772469111151.967947101567916-.035580352967372,1.995735877762854-.680709166043016,2.843426602645195l.436919253001179-2.840052682244277c.081029210043198-.018001722613917.162292759188858-.019127803800075.243789913041837-.003373920400918Z"/>
          <path class="cls-18" d="M59.111248868533949,81.071362356085956c-.081967806092507-.008595380053521-.157876770817893-.034761799130138-.227725560778708-.078507924383302l.436919252995722-2.840052682244277c.362926920230166,1.0038677150078-.059861497054953,1.951414167520852-.209193692217013,2.91856060662758Z"/>
          <path class="cls-18" d="M145.998871102374324,125.251109791115596c.057688765831699-.180681341271338.067141417597668-.4776108251408.180326650979623-.524584334381871,1.634587190481398-.678364756402516.710629224158765-1.051462614066622-.121794063376001-1.591029525943668-3.64791551768576-2.364511404191944-7.265852974118388-4.775257970006351-10.894876106010997-7.16890961334866-8.533794922974266-5.628759261584491-17.071217843931663-11.25201689322239-25.600363008799832-16.887815200947443-5.899192500892241-3.897994567738351-11.779834307344572-7.82409065047068-17.68177889285289-11.717908326339966-7.097375553439633-4.682495305842167-14.209123086096952-9.343202103653311-21.313419021604204-14.015210344110528-2.275247078083339-1.496273988312169-4.556750524106974-2.983453737440868-6.813038300748303-4.507877283363996-.612366885605297-.413734063045922-1.235091770788131-.717217640712988-1.972088813767186-.772125934548967,1.746142265106755-5.866481724295227,4.41133726710359-11.275215639521775,8.065024487168557-16.191639294647757,1.490591614579898.459367130461033,2.600467711052261,1.562462990408676,3.884682589436125,2.360205686878544,2.829622362874943,1.757730404196991,5.559298219101038,3.676641025831486,8.324436262548261,5.537690182885854.802241128418245.539936468587257,1.607436683781998,1.034772722752678,2.639686246959172.768580421095976.391426357793534.504874362397459.002147443738068.880127978696692-.203487525814126,1.296347717539902-2.74921455670119,5.564661007678296-1.25194188063324,11.713383931031785,3.791687734974403,15.001833846848967,2.007009375185589,1.308566334188072,4.270380512291013,1.512256051004442,6.592112154969072,1.349165196990725,3.459106915332086.057772619711614,6.36791824361535-1.18911855366423,8.774452410343656-3.664117965359765.369750696228948-.38027631951627.697670758803724-.947995795941097,1.402105100733024-.66004039125437.095977163236967.816296095017606.532617205208226,1.363300378827262,1.22426020813873,1.816472774908107,6.312616439652629,4.136096546193585,12.611236603261204,8.293586912979663,18.908903679006471,12.452456687273298,4.70380766715607,3.106320767867146,9.396277632040437,6.22981746170808,14.100752360007391,9.335118507904554,7.37493550729414,4.867995041724498,14.759869261009953,9.720830599477267,22.132748580292173,14.591925141587126,5.898895792408439,3.897270191995631,11.785490460697474,7.813134052950772,17.679606483292446,11.71765396914634.557064764245297.369027368240495,1.127472749907611.718050991985365,1.694080384455447,1.07251424140668.632936140678794.395959893152394,1.18822226768134.836126625958059,1.031647256597353,1.707686762976664-4.930731386499247.958401689498714-9.878156429133014,1.347003622791817-14.863684655107136.435180225640579-1.439014434186902.081208367870204-2.817659804653886-.336979355644871-4.223687278818034-.522560658353541-3.533281058644206-.466369139612652-7.03120863404547-1.178633419918697-10.580478781623242-1.53801388793363-2.064381974840217-.120907820279172-4.120626415216975-.084775355937381-6.157816141379953.319001397450847Z"/>
          <path class="cls-18" d="M122.797669922700152,41.392176954390379c1.501176948098873-1.05210213747705,3.24828090966912-1.423096704776981,4.992411439776333-1.80233191949992,4.565602278100414-1.262831390879001,9.472185383719989.931759743098155,12.151364335204562,5.435004288228811,2.503630379647802,4.20818511485777,2.176266356884298,9.504292881883885-.803010972409538,13.018536812143793-.124820926321263.147234651098188-.249647937467671.287760921304653-.447430179185176.334183198914616-2.80180610023308,3.353172388640814-6.328765131442196,4.985841949646783-10.73800610816761,4.525206002104824-8.992316385756567-.409791276499163-13.52674483293049-10.090690248751343-9.35745098542975-17.36185581618156.99199242577015-1.730023752183115,2.299993379609077-3.274681442610017,4.202122470211179-4.148742565710563Z"/>
          <path class="cls-18" d="M105.052539007512678,73.863674629108573c-2.625126672242914,3.161777788658583-5.883084269973551,5.013749134206591-10.100697508109079,4.87946454662233-7.568855702767905-.148327256574703-11.513815779502693-5.365415904849215-11.748833025922067-10.838021965651933-.177624982641646-4.13614626747767,1.239821261189718-7.67010042567199,4.837811953462733-10.074215644121068,1.06252490348561-.598393031054002,2.12505164054528-1.196783561956181,3.187576544038166-1.795176593012002,2.847434241703013-1.537660281426724,5.827192145727167-1.436160425277194,8.711427308149723-.340908063102688,5.935200183337656,2.253822042508546,8.700043452139653,8.167976813876521,6.880426107400126,14.341448086290256-.555215064041477,1.291513917229167-1.01412627699392,2.627503444022295-1.767711379019602,3.827409632975105Z"/>
          <path class="cls-18" d="M138.691004546086333,58.377569334177679c4.269892839300155-6.030868546318743,2.295876775662691-13.397881456454343-2.834706236557395-16.816689483930531-2.45854566847629-1.638274428925797-5.186705592775979-2.094468248051271-8.06607993261423-1.971089151180422,1.36842786834859-1.099805671750801,3.021803677556818-.871038094086543,4.537627655627148-.747487753535097,5.514737988238267.449492527413895,9.897946049197344,5.251473092419474,10.181456875056028,10.768867406455684.158888989783009,3.092429929065474-.949871730823361,5.666682605893584-2.704174821228662,8.070470304051923-.371836462411011.231249349437348-.61012784122795.676235246481156-1.11412354028289.695928678138444Z"/>
          <path class="cls-18" d="M122.797669922700152,41.392176954390379c-1.875233824983297,1.641871498981345-3.510455619216373,3.42035254520124-4.42390841246015,5.838593378388396-2.624428770683153,6.947820744766432,2.049812189721706,14.562816031604598,8.883843523159157,15.512118909189667.234861991364596.032618204117171.464141204432963.105447333660777.69570476996887.159707752205577-6.166065581954172.56903522403627-12.215815787425527-5.674731678382159-11.613868243613979-11.776884684200922.342616904332317-3.473275542657575,1.623940011915693-6.338843677007389,4.24483461903219-8.618229886129484.605147478727304-.634749412725796,1.302830466480373-1.08627485478064,2.213393743913912-1.115305469453233Z"/>
          <path class="cls-18" d="M88.040820426944265,57.830901565957902c-4.796593132876296,4.741342048349907-5.683991857767978,10.11139108385396-2.42397726375566,15.562063022414804,1.531783648662895,2.561113052723158,3.871932480566102,4.190971406862445,6.791311621655041,4.908937834372409.833977930251422.205099262511794,1.695780511756311.297072222967472,2.544254941909458.441075746311981-7.895278182953916.625375254394385-13.145936179062119-5.921231875187004-12.348964767079451-12.341057904210174.265331801139837-2.137308194884099.932876187314832-4.072384163126117,2.092319016837791-5.861401704920354,1.056371660315563-.97554213710464,1.843445100887038-2.283604321346502,3.345056450432821-2.709616993968666Z"/>
          <path class="cls-18" d="M106.82025038653228,70.036264996133468c.829796620879279-4.380020409727877-.009652860673668-8.327819521569836-3.326451327870018-11.448578092007665-3.524028779589571-3.315742873033741-7.70251900500989-3.979182500403112-12.265378085183329-2.551973765077491-.142875335623103-.43077724392424.21604328151443-.456335971293811.46183827700952-.559423091102872,7.431612433385453-3.116942891609142,15.404137412288037,1.700406700514577,15.955608523861883,9.693239220343457.114055988051405,1.65309401608647-.095710892113857,3.321887852058353-.825617387818056,4.866735727844571Z"/>
          <path class="cls-18" d="M124.636346942315868,160.359641740782536c-1.639878739893902-.248963915759305-3.279748812146863-.497926498073866-4.919685557324556-.746801742387106-7.728655304985296-1.660579808152761-14.672526130605547-5.164040174866386-21.336993757726304-9.249347030543504-9.188595890653232-5.632574318851766-17.620133806052763-12.186827015164454-24.319352425300167-20.749065533305838-8.586878256761338-10.974818515080187-13.747137273410772-23.33404776486168-15.00095418923047-37.262151849088696-.034007469996141-.377743385623035-.00889587929305-.76081810913638-.011373676339645-1.141376559477067.590433047062106-1.41831508859832.782967899256619-1.466238890885506,2.030888859444531-.63501728443407,4.755238379590082,3.167431168865733,9.526699933123382,6.310652575266431,14.267046842131094,9.500147223852764.673711192557676.45330165895939,1.32607003047633.428394074897369,2.038462088541564.331407658986791.594806114339008.4768293191064.466058147318108,1.120402966214897.33438709146867,1.716175553394351-1.214780929672997,5.496521795759691,2.805989712102019,11.274298939417349,8.978906332406041,12.587928966997424,1.346394326847076.286521108215311,2.848696569497406.244513907213332,4.164066595612894-.508849158717567,1.101778143041884-.406408960845511,2.268910041932031-.583396612748402,3.381287069421887-.959384467114432.400562167818862-.135394615990663.827040343001499-.205867433611274,1.202815065171308.106993959325337,3.089847071791155,2.029691973761146,6.200914761397144,4.028259605824132,9.255221565575994,6.110091718996046.804149274817973.548108607506947,1.870572190289749.780024400919501,2.353525822689335,1.763900355759688.159618086774572,1.12730069509962-.77880182717854,1.496788268410455-1.42165286553427,2.073133534997396-1.405056620558753.804004885381801-2.283481829243101,2.083791067951097-2.759895732506266,3.545287977842236-2.650153114736895,8.129905412846711,1.797483768827078,13.932114128770991,8.826788191214291,15.296639427799164,1.337465170818177.259621875600715,2.762781966426701.115131855482105,4.039819676334446-.565404575339926,2.776318821401219-.759571080492606,5.424254985187872-1.717757994378189,7.324499621918221-4.086262222850564.695847903061804-.86731222303024,1.19193338059813-1.818306063709315,1.665100933147187-2.800879796755908.214746768935584-.445933052958935.284910185328044-1.056518081286413,1.01443378373915-.968818603976615,1.670680123479542.300902998231322,2.857389375241837,1.494527247930819,4.197946870435771,2.363999761297237,4.797447732138608,3.111561471636378,9.532809813972563,6.318823440669803,14.291621362412116,9.489874122202309.278174182492876,7.027746874678996-6.379639800245059,13.298995375966115-13.033983736109803,14.494466381052916-2.173850305363885.390524741471381-4.358624484821121.568297356529001-6.56292583159302.293312181487636Z"/>
          <path class="cls-18" d="M152.156687243754277,124.932108393664748c.413438969399067-.211338871873522.839924689022155-.105607018747833,1.260007190361648-.040670176213098,4.515040294681967.697965214254509,9.029442571707477,1.400135331141428,13.544086194804549,2.101198052867403-.326614462828729.01942701938242-.66206983759912.097071305704958-.978669369851559.049438561207353-4.60995004446886-.693482038122966-9.217392022477725-1.403728350496749-13.825424015314638-2.109966437861658Z"/>
          <path class="cls-18" d="M125.081109877413837,125.377451551899867c1.359262447094807,2.58782348744171,1.443984972644103,5.285867036755008.696811939367763,8.055840394292318-1.625040873521357,1.151128972394872-3.597617515008096,1.232437031221707-5.431220402151666,1.692642538231667-4.728148502250406,1.186709530555163-9.454572983224352,2.386522479207997-14.217305300131557,3.440478989328767-.454387874271561-.005482282487719-.844030215128441-.192529925825511-1.13462301412801-.516774262159743-1.611413696326053-1.797997072164435-2.37657482755094-3.953159417878851-2.59006244948614-6.323387580710914-.034312230774958-.38090444142108.124847771212444-.744457058362968.388351111971133-1.042228154556142,1.489303000593281-.956751858802818,3.254921661817207-1.022946624063479,4.899897829807742-1.449035679073859,5.074294762485806-1.314381277479697,10.186215522579005-2.481612037239756,15.272605523703533-3.750498679290104.705074927409441-.175904261559481,1.401151124799071-.251126179235143,2.115544761047204-.10703756606199Z"/>
          <path class="cls-18" d="M101.643513026974688,101.594636268962859c-.077005968199956,1.928893845797575-.047034914588949,3.875132473769554-.881958005591514,5.685128947814519-.117308421071357.2542965954799-.275423914396015.489769945239459-.41464921406623.733951871374302-.736514429401723.571890607343448-1.610463875564164.783574834367755-2.496173308167272.993494243510213-4.910306557218064,1.163725435391825-9.821728119686668,2.32355297797767-14.702741716857417,3.611729272828597-2.397331406553349-.548172189339311-4.948766895735389-4.145260483150196-4.473899709375473-6.301357835782255.453047614921161-.468441630418965,1.042441302244697-.642383949101713,1.654819655206666-.792721161224108,6.225302419348736-1.528265094118979,12.465559260450391-2.995015964215781,18.685773185410653-4.544505618770927.765497075824896-.190688172124283,1.572422763787472-.537569699090454,2.356151008309098.001745653920807.164355617187539.171260436338343.194733869029733.402434359722974.27267810513149.612534626328852Z"/>
          <path class="cls-18" d="M125.081109877413837,125.377451551899867c-1.680299411997112.850232982596935-3.54478311546336,1.06525776880153-5.337241278743022,1.513542777514886-5.145309611241828,1.286794069805183-10.304406100007327,2.518614958689795-15.461531279870542,3.757721603107711-.45775013029197.109978924918323-.940592672512139.115539145928778-1.411779653604754.16959617091743-.53517160057163-.229682695286101-.616830756127456-.692992687359947-.569248703024641-1.187045197497355.180040751823981-1.869284681157296.578863228391128-3.665474263209035,1.824769657541765-5.157485567342519,5.528402772488334-1.481632136490589,11.05597027312615-2.977588423191264,16.703620029842568-3.968186830519699,1.953071680421999,1.156320123049227,3.332427334313252,2.813240845542168,4.251411227858625,4.871857043819546Z"/>
          <path class="cls-18" d="M106.132677547786443,138.386074582555011c1.036317864869488-1.128284896090918,2.534562614797323-.961290915287464,3.829813003267191-1.296191643585189,4.784630768495845-1.23716281668203,9.59638650757006-2.369824915982463,14.402305337669532-3.523604906245964.455415214055392-.109335565184665.941343722539386-.091583782599628,1.413113927712402-.132908082157883-.011344729409757.094793999398462-.022700125797201.189657336011805-.034142864544265.284569341676615-1.549056231096984,4.732563305098665-4.917588438991515,7.349140581545726-9.690713790503651,8.332321028261504-3.250415244780015.591373474324428-6.293915240124988.206244405231701-8.967807805962366-1.907845222385731-.565771040175605-.447307183687371-1.136544022248927-.899127978671459-.952567807638843-1.756340515563352Z"/>
          <path class="cls-18" d="M80.053250294326062,96.169636600836384c.717995028482619-.733251848987493,1.435989223440629-1.466512698492807,2.153982085012103-2.199764880842849,2.89898949898452-2.847595429509965,6.363668179923479-3.774312346817169,10.302518465339745-2.964497948611097,1.535585402376455.315710919554476,3.025487662293017.796050321061557,4.288017251034034,1.801322205952602.45222074979938.36008007208693.918464988226333.688900096884026.971117523960856,1.331386135863795-.148548940673209.939439025663887-.901956179177432,1.14367635283088-1.651072987333464,1.344479170276827-5.074093666535191,1.360122208636312-10.204768456569582,2.490637802531637-15.302254391726819,3.756096201803302-.732439372502995.181835479590518-1.545302579574127.340261281196945-1.988878552756432-.591997572244509-.099129610800446-1.07669455951509.784691339038545-1.667232586522005,1.226570606469977-2.477023312198071Z"/>
          <path class="cls-18" d="M83.117108881200693,112.380298588255755c.472639480720318-.638197516675064,1.227640812434402-.729445088578359,1.902763386056904-.895947946308297,4.63019575585713-1.141899744747207,9.268697347561101-2.250368555420209,13.909181602823082-3.349952853070135.456518350367332-.108172161015318.944488502762397-.083620650182638,1.41785627104764-.120680034000543-.900049550560652,2.452551339316415-2.893380664425422,3.901158936712818-4.901051192446175,5.336594390717437-1.370111923009972.578790250390739-2.775772885806873,1.041944447979404-4.243110503586649,1.304518990067663-2.321927407778276.555570469576196-4.571021110896254.327318420166193-6.722693994226574-.692560818011771-.660347624921997-.313015636233104-1.451013846026399-.590131132907118-1.362945569668227-1.581971729394354Z"/>
          <path class="cls-18" d="M120.829698649555212,120.505594508080321c-.656602496168489.846830563765252-1.700686160966143.810418633685913-2.585536946477077,1.03779770449546-4.042756728216773,1.03885677623839-8.107730988103867,1.991605900650029-12.168059189043561,2.961332675791709-.551138830294803.131624415371334-1.118289693920815.242002888369825-1.691420858773199.088664362861891-.143706241540713-.907579484704911.540245732474432-1.319133883631366,1.086706501628214-1.813085557139857.527738059983676-.518657824097318,1.055473119507951-1.037324982062273,1.583205178598291-1.556001473909419,3.279258849623147-2.391300873639921,6.855071898204187-3.203378800173596,10.825710062703365-2.111499583132172,1.077838650557169.296390170140512,1.97245715241479.917124626799705,2.949395251363967,1.392791871032387Z"/>
          <path class="cls-18" d="M83.117108881200693,112.380298588255755c2.368436246517376,1.918974891483231,5.150291515683421,2.368784497752131,8.085372870737046,2.274766559534328-3.380723143711293,1.546408131240241-8.731529446104105-.051302791920534-11.370847539172246-3.149332799554031-2.824188714424963-3.315033463373766-3.448022423905059-6.998671975414254-2.44702556082666-11.098234719420361.507075546533088-1.65336300342824,1.184187864319028-3.199731861268447,2.668629642043015-4.237783023601878-.03409407160143.918687677369235-.973037365349228,1.488377614923593-.938911244747942,2.433468420620557.248247767700377,1.132711053436651.105849790526918,2.26758120141676-.181011124625002,3.349511050328147-.399028652424022,1.50496071327143.50782484782394,3.014450682207098-.11972487708772,4.490980456601392.655510069907905,2.543508251750609,2.132963196267156,4.491253244725158,4.303517833679507,5.936624055491848Z"/>
          <path class="cls-18" d="M97.569278937087802,94.191980307339691c-3.613900740831014-3.545160954827224-9.692950021568322-3.983304202653017-14.173826462108991-1.020669104309491-.397856601184685.263061542700598-.791943548196286.531826758915486-1.187999075164043.798248500206682.807615071013061-1.544795202342357,2.290397021217359-2.288759341719924,3.771483102520506-2.874485504471522,6.137533458018879-2.427243514493966,14.101191335534168.400567916212822,15.676771263923001,8.511349908769262.129361294213595.665936369816336.154919724438514,1.325760608968267-.012186744843348,1.987698798986457-.082400746283383-.131849176557807-.164792164760001-.264220382714484-.247184916606784-.396582921721347-.251438654984668-.33830763158403-.581271298775391-.623881275943859-.681073810226735-1.062256597726446-.400274221168729-1.758118887235469-1.419075778370825-3.177591897770981-2.512045304089042-4.553316079553042-.328990496363986-.414096604283259-.607425256926945-.842228119416177-.633938053404563-1.389987000180554Z"/>
          <path class="cls-18" d="M105.471388156889589,122.780303694089525c-.362038700339326.604418745351722-.724080401119863,1.208828156826712-1.086412801538245,1.813166229660055-1.193541773471225,1.907429116701678-1.599400895323924,4.006385191167283-1.51419733275543,6.224822846212192.122000321422092,2.93846802783446,1.116378854916547,5.500970494731519,3.26201953443524,7.567463128356394,2.190650073582219,2.446035044118616,4.989164729675394,3.524205064568378,8.21131908582538,3.642063734387193.569075054881978.020810316946154,1.139102890876529.015789171435244,1.708814173351129.022572694764676-3.798914770994088,1.600952413791674-9.209027928780415-.034859263163526-12.100604626852146-3.539719462985886-3.503788559515669-4.246880317345131-3.084856681183737-10.758601537072536.130647110141581-14.560164755122969.387369999050861-.45797965469319.701275893225102-1.048713831913119,1.38841485739249-1.170204415271655Z"/>
          <path class="cls-18" d="M97.569278937087802,94.191980307339691c2.199101622352828,1.830818151764106,3.535251602777862,4.133000654974239,3.827076170076907,7.005580345385169-2.764084241964156.299535681668203-5.394701892033481,1.199478697209997-8.088147384169133,1.814333920969148-4.840434750871282,1.104978069788558-9.664001714165352,2.283804405495175-14.49461667547439,3.4317799590699-.976058669710255-2.654794960672007-.788842252577524-5.264938006363082.300787507712812-7.840465838580712.286111129833444.416616227983468.694068936447366.26709017509711,1.047359843452796.181276835683093,5.529408789256195-1.342989927361486,11.056851425380955-2.69417866207732,16.579171405079251-4.065922919387958.301142290814823-.074804940642935.553370714269477-.346522606560029.828369133321758-.526582303138639Z"/>
        </g>
        <g>
          <path class="cls-12" d="M204.324210908380337,101.332645511405644l-.56799502890135,3.69206848691465c-.463357053438813.803194924688796-.480073141072353,1.740464065747801-.635381467087427,2.602348658931078-.894901787381968,4.966031064781419-3.894743172255403,8.656739591297082-7.297420167718883,12.04236571580077-3.368367637789561,3.351493668800686-7.446750531924408,5.620592137616768-12.014402228627659,6.974375183393931-.677716928967129.200856463574382-1.360770445015078.508148946915753-2.076881063429028.114848843946675-.36165737824922-.701939421645875-.959803007939627-1.150616156874094-1.60522158922322-1.578191899166995-9.405876039843861-6.231041239496335-18.821026927806088-12.448107059102767-28.242189696309651-18.655912379022993-10.259586213327566-6.760277323846822-20.503589669933717-13.544157586817164-30.765425422472617-20.301059062096101-4.910955787985586-3.233610226719975-9.839764219221252-6.441176385571453-14.713856645414126-9.731057313818383-.994278463911542-.671107415595543-1.791776809022849-1.442768019773212-1.768150681489715-2.756525172679176.380518353329535-1.379262323693183,1.147588008381717-2.600552334884924,1.609382078850103-3.946687425184791,1.766075777364676-3.648396809927362,1.180834612241597-7.070079615308714-1.123256064160159-10.240407940069417-2.805736688109391-3.860570522925627-7.781936898392814-5.464392001229498-12.082510205884319-4.024075050498141-.556047353684335.186225660734635-1.063238831637136.424386482043701-1.480329831450945.838154664355898-1.077925543559104.735988442906091-2.199367294113472,1.39980926636963-3.375995311740553,1.96974885364034-1.498492477276159.414967392383915-2.222207526225247,1.887819874147681-3.518021494684945,2.580044887134136-.825550935656793.304960399422271-1.614713065322576.181344957589317-2.323307532882609-.292619025809472-4.042072931277289-2.703654702369022-8.162845640006708-5.2885328359298-12.160348910490939-8.059194815961746-.196792050655858-.136394014178222-.358827316233146-.313321762218038-.481596192958023-.522319577357848-.277382047519495-.745934387194211.151026800598629-1.301250973507194.54931495492383-1.829609409935074,6.532155043594685-8.665410391935438,14.716265159180693-15.231704273071955,24.756053503022486-19.429023605054681.615041640563504-.25713126381379,1.234716397699231-.532439956223243,1.930904110138727-.48786115504663,3.10821568589563-.567568573022072,5.163938140683968,1.52792956731173,7.432642127356303,3.001396649038725,4.238292364272638,2.752662919390787,8.441356361123326,5.560052543065467,12.663294575133477,8.338304677679844.814017874345154.535666277230121,1.586186632948738,1.044921790105946,2.629395313328132.545514045159507.341644480082323-.163552886946491.755935887391388-.041882598483426,1.025308153857623.306997127800059.153878398476081.657880268796362-.410534431321139.932885933736543-.744825887773914,1.286089370016271-4.352202224097709,4.598352524628353-4.133683222931722,13.013341401352591,1.888570622948464,16.998970478423871,1.833325515584875,1.213325840077232,3.834081634220638,1.878820970016022,6.071948796552533,1.578097271389197,3.905502069303111.381737949441231,7.163471271618619-.917237832991304,9.825991887044438-3.774721683099415.22626892126209-.242837305520879.485537233704235-.452463915671615.777010305675503-.619100612020702.478568654943956-.171565997885409.851508270854538-.586297426425517,1.39278528189061-.616762307898171,1.266931756805207.07644233623796,2.220866822148309.858075851949252,3.203465757715094,1.510083299144753,9.560468847132142,6.343895150777826,19.166972899030952,12.618040707888213,28.71992739061352,18.973118960990178.75698517877936.503589208636186,1.752941638040284.973549544693014,1.308491708014117,2.231456367735518-.572252125261002.665867988856917-1.394733773180633.541589364824176-2.132598491605677.650565017585905-5.51652516100512.814702322992161-9.48890315956487,3.710827851216891-11.532059327535535,8.915121462023308-2.093155420921903,5.331646624377754-1.503022324885023,10.432074428612395,2.078997605969562,15.003604850724514,3.590261638699303,4.582034387567546,10.681592682558403,6.593140665394458,16.671515707868821,4.84526541509149,5.558699687573608-1.622046310423684,9.458049918503093-6.408311801733362,10.173903160477494-12.447002877010164.226639692862591-1.911871563544992-.197067423629051-3.800970322165085-.128919133450836-5.705998518080378.72841088054156-1.341570007813061,1.294824246891949-1.538251717225648,2.624501248876186-.878122136531601,1.458972740701938.72431111885453,2.722479132589797,1.758443979904769,4.079544629821612,2.64230504846455,2.516627587523544,1.639077309817367,5.0018776793695,3.328641683248861,7.540679277339223,4.932935114402426,1.260845120428712.796740371513806,2.120482844295111,1.71631497643466,1.817064177874272,3.322471516554288Z"/>
          <path class="cls-24" d="M120.584017815941479,42.507402751529298c-.047565631926773-.003988266116721-.110611580475961-.029910344683231-.140490279676669-.008832777626594-1.875931393902647,1.323629677732242-3.256735415894582.008848623985614-4.67051802590322-.916552049044185-4.547316103955382-2.976481550664175-9.127290921351232-5.908566555721336-13.577333384306257-9.025292813474152-1.670398659756756-1.169914085226992-3.298452316274052-2.007865139508795-5.354337405549813-1.840609395734646.193664057400383-1.147625191413681,1.231546172506569-1.246636726924407,2.033822248640718-1.528315280485913,4.575334959139582-1.606394312817429,9.289438389279894-2.598902399327926,14.095160732318618-3.261632115163593,5.506898844272655-.759425398273379,10.967466925805638-.407277361766319,16.420624269758264.366888824071793,5.396538948771195.766128288556502,10.815300775540891,1.477141949326324,16.085357502612169,2.898718567701508,7.538944654870647,2.033601903111048,14.495833702992968,5.433639579461669,21.104799704562538,9.538773195030444,7.976750418454685,4.954732035363122,15.112496984622339,10.921694933473191,21.237898446042891,18.061655545599933,7.548184926472459,8.7984097764529,13.320134589257577,18.558732459954626,16.104084961094486,29.920058244717438.952279159389946,3.886238106193559,1.325120919806068,7.815389468400099.689921462282655,11.798727867320849-.030308960653201.190034991108405-.055652745530097.376978828258871.060738262960513.549612801165495l-.349535402398033,2.272042145797968c.002783927922792-1.252621772351631-.805344066491671-1.902819193224786-1.758764358826738-2.521061430144982-4.043469727708725-2.62199173866793-8.070536633837037-5.269629528902442-12.083021534444924-7.938806145413764-.846744498410771-.563267652947616-1.39810026912528-.478131877916894-1.770557977326462.483048744103144-.815810542746476.011437776893217-.957278634628892-.664736560043821-1.178650552259569-1.20874940680369-2.157009837867008-5.300808644986319-6.045929962814625-8.357344051126347-11.721010607547214-9.189259902941558-.976537550433932-.143152363918489-2.158970542661336.081272581530357-2.796497668172378-1.043728056254622-.15099262633521-.794438759401601-.797837198415436-1.155589736606998-1.38833524047368-1.544972072211749-4.943890420947355-3.260090206336827-9.893994076044692-6.510764571710752-14.842892954524359-9.76327203593064-5.108692161138606-3.357510952359007-10.215109448279691-6.718504759259304-15.331878012269954-10.063659211778941-.516109515170683-.337411895592595-1.096779582136151-.576070464534496-1.647489918077554-.860556672036182-.242569506744985-.537376895297712.131591209810722-.90167895540435.365941669717358-1.305533700977321,2.208894321436674-3.806629039212567,2.456738824854256-7.753716060386068.279803228027959-11.571206826252819-2.129231950249959-3.733828142290804-5.619684671491996-5.453550088706834-9.890763026032801-5.525402113615201-.890293259439204-.014976129215938-1.809571732312179.114998928778732-2.584064914468399.668656669522534-1.634936614724211.647617342528974-3.386320513838655.981519451990607-4.950969411713231,1.825332988506489-.87868346831965.02568606308887-1.550433546257409.746797256741047-2.441041814046912.733926412352957Z"/>
          <path class="cls-28" d="M60.26330327859614,73.605343537470617c.342484500164574-1.891436885178337.718131708588771-3.773779427869158,1.518558478419436-5.539690892386716.894792043447524-.660485013158905,1.632760308286379-.118108372364077,2.364972293733445.328897349601903,2.899740715536609,1.770263169935788,5.696113442556452,3.700033447474198,8.52917562382936,5.57246821228,9.418666125278833,6.224992784913411,18.843278042517341,12.440887912433027,28.270366520344396,18.653113842374296,7.069319490030466,4.658504822065879,14.137340532273811,9.319307435618612,21.194029870981467,13.997131633082972,7.933981437316106,5.259383688127855,15.909461333943909,10.45607199674123,23.818811187396932,15.752718360266954.238556326941762.15974077087958.490303885380854.301619251515149.716131683955609.478060248662587,1.132642081674931.885041828669273,1.065218216073845,1.435716800815499-.235023697445286,2.038404711105613-.173406126061309.080375811079648-.299052692913392.236956822569482-.441454137437177.36466278865737-.389085404400248.175018248752167-.780406448897338.34524754924314-1.166893497016645.525811457453528-3.025795478130021,1.413663801078656-4.361060886409177,3.95913919477789-3.750272381797913,7.236301239136083.359477194242572,1.928835736052861,1.102595320247929,3.746015463801086,1.72331305249827,5.598725344447303.75720590277524,2.260077601113153,1.479278076878472,4.531962386836312,1.428213564404359,6.959902678594517-.563430310976401.254575342602038-1.021827641496202-.017745440401995-1.464669492979738-.308993230508349-5.582338028765662-3.671381993866817-11.123881000274196-7.404751330097497-16.746264017659996-11.015272708986231-.162349221904151-.104249956444619-.294505527377623-.241597661031847-.413219866684813-.393592805585286-.084317568725965-.127406265961326-.136615762559813-.267427109207347-.162192463891188-.417231058640027-.148038003337206-.717616051628283.011120733475764-1.421181306172002.091336016925197-2.130787246151158.213624534431801-1.889732363049916-.129949098582074-3.701136696259709-.807834953524434-5.45934145936917-1.065798193523733-1.986863428086508-2.384837241004789-3.753996812913101-4.328646766747624-4.979462154848079-3.494885268355574-1.69777288615478-7.030147726822179-2.258306713907587-10.697254992224771-.500984850410532-.841255103547155.403147239194368-1.520106016352656,1.199886862528729-2.571244523733185,1.131789102879338-1.755871690249478-.686201243172036-3.173714645112341-1.922259571443647-4.732958656652045-2.928772814020704-1.924593283456488-1.242320882218337-3.87658141159045-2.443864901499182-5.734211576136659-3.7874352416693-.500208066330742-.361788710606561-1.047380128702571-.682164607069353-1.293598711987215-1.299838077042295-.084479441531585-.992771397877732.704815067158052-1.384863568171568,1.329654144066808-1.852836760057471,1.428914581130812-1.070167226618651,2.588453875347113-2.344661889230338,3.276060486403367-4.013113632812747.857044291096827-1.908917327653398,1.010745380925073-3.944732244521219,1.089573716515588-5.993236873327987.573181365474738-2.727634375216439-.598933350087464-4.96354707098908-2.204085975485214-6.943833465498756-3.166907457112757-3.907028560755862-9.111402293376159-5.081481362256454-13.592569111497141-2.797447459510295-1.018080996323988.518916378230642-1.945047733912361,1.200318710225474-2.542277921726054,2.227079080437761-.624634733081621.95862404953732-1.501170201299828,1.669623947391301-2.360143002708355,2.39886995735651-.994139120615728.683715838604257-1.609788918893173,1.651112758538147-2.060175590384461,2.742691445855598-.194843576304265.47222263189542-.306199373386335.989637525108265-.725488725191099,1.341536018559054-1.121593928115544.744011708988182-2.083836655285268.24843339805193-3.044106127563282-.377050946419331-4.126368783930957-2.68780133465043-8.225391238862358-5.417203245879136-12.331501670443686-8.135540559662331-1.071177738856932-.709142033623721-2.050817074925362-1.523746741124341-3.443121726370009-.885865440441194-.873834957712461-.934570309560513-.590482720912405-2.099920357804876-.478922765894822-3.140919278763249.248812925325183-2.321740133527783.243521069300186-4.671739187357161.729582538569957-6.967489758797456.069507281707047-.980522586511142.468748755571141-1.92693600392704.30549245729344-2.931968543854964l.262151551802162-1.704031609342564c.499842147404706-.88247197570854.252694748594877-1.943760453717914.680709166043016-2.843426602645195Z"/>
          <path class="cls-9" d="M119.730479726613339,159.837402807923354c-.017988579866142-.074002946232213-.022616029136771-.148833881507016-.013879347361581-.224483471960411,1.301829006450134-.795256169827553,3.896133877580723-.401493225914237,4.919746563064109.746722404819593-.019614548029494.075706213143349-.045450476591213.149230942100985-.077506452289526.220565519734009l-4.828360763413002-.742804452593191Z"/>
          <path class="cls-3" d="M60.26330327859614,73.605343537470617c-.142772469111151.967947101567916-.035580352967372,1.995735877762854-.680709166043016,2.843426602645195l.436919253001179-2.840052682244277c.081029210043198-.018001722613917.162292759188858-.019127803800075.243789913041837-.003373920400918Z"/>
          <path class="cls-3" d="M59.111248868533949,81.071362356085956c-.081967806092507-.008595380053521-.157876770817893-.034761799130138-.227725560778708-.078507924383302l.436919252995722-2.840052682244277c.362926920230166,1.0038677150078-.059861497054953,1.951414167520852-.209193692217013,2.91856060662758Z"/>
          <path class="cls-5" d="M145.998871102374324,125.251109791115596c.057688765831699-.180681341271338.067141417597668-.4776108251408.180326650979623-.524584334381871,1.634587190481398-.678364756402516.710629224158765-1.051462614066622-.121794063376001-1.591029525943668-3.64791551768576-2.364511404191944-7.265852974118388-4.775257970006351-10.894876106010997-7.16890961334866-8.533794922974266-5.628759261584491-17.071217843931663-11.25201689322239-25.600363008799832-16.887815200947443-5.899192500892241-3.897994567738351-11.779834307344572-7.82409065047068-17.68177889285289-11.717908326339966-7.097375553439633-4.682495305842167-14.209123086096952-9.343202103653311-21.313419021604204-14.015210344110528-2.275247078083339-1.496273988312169-4.556750524106974-2.983453737440868-6.813038300748303-4.507877283363996-.612366885605297-.413734063045922-1.235091770788131-.717217640712988-1.972088813767186-.772125934548967,1.746142265106755-5.866481724295227,4.41133726710359-11.275215639521775,8.065024487168557-16.191639294647757,1.490591614579898.459367130461033,2.600467711052261,1.562462990408676,3.884682589436125,2.360205686878544,2.829622362874943,1.757730404196991,5.559298219101038,3.676641025831486,8.324436262548261,5.537690182885854.802241128418245.539936468587257,1.607436683781998,1.034772722752678,2.639686246959172.768580421095976.391426357793534.504874362397459.002147443738068.880127978696692-.203487525814126,1.296347717539902-2.74921455670119,5.564661007678296-1.25194188063324,11.713383931031785,3.791687734974403,15.001833846848967,2.007009375185589,1.308566334188072,4.270380512291013,1.512256051004442,6.592112154969072,1.349165196990725,3.459106915332086.057772619711614,6.36791824361535-1.18911855366423,8.774452410343656-3.664117965359765.369750696228948-.38027631951627.697670758803724-.947995795941097,1.402105100733024-.66004039125437.095977163236967.816296095017606.532617205208226,1.363300378827262,1.22426020813873,1.816472774908107,6.312616439652629,4.136096546193585,12.611236603261204,8.293586912979663,18.908903679006471,12.452456687273298,4.70380766715607,3.106320767867146,9.396277632040437,6.22981746170808,14.100752360007391,9.335118507904554,7.37493550729414,4.867995041724498,14.759869261009953,9.720830599477267,22.132748580292173,14.591925141587126,5.898895792408439,3.897270191995631,11.785490460697474,7.813134052950772,17.679606483292446,11.71765396914634.557064764245297.369027368240495,1.127472749907611.718050991985365,1.694080384455447,1.07251424140668.632936140678794.395959893152394,1.18822226768134.836126625958059,1.031647256597353,1.707686762976664-4.930731386499247.958401689498714-9.878156429133014,1.347003622791817-14.863684655107136.435180225640579-1.439014434186902.081208367870204-2.817659804653886-.336979355644871-4.223687278818034-.522560658353541-3.533281058644206-.466369139612652-7.03120863404547-1.178633419918697-10.580478781623242-1.53801388793363-2.064381974840217-.120907820279172-4.120626415216975-.084775355937381-6.157816141379953.319001397450847Z"/>
          <path class="cls-16" d="M122.797669922700152,41.392176954390379c1.501176948098873-1.05210213747705,3.24828090966912-1.423096704776981,4.992411439776333-1.80233191949992,4.565602278100414-1.262831390879001,9.472185383719989.931759743098155,12.151364335204562,5.435004288228811,2.503630379647802,4.20818511485777,2.176266356884298,9.504292881883885-.803010972409538,13.018536812143793-.124820926321263.147234651098188-.249647937467671.287760921304653-.447430179185176.334183198914616-2.80180610023308,3.353172388640814-6.328765131442196,4.985841949646783-10.73800610816761,4.525206002104824-8.992316385756567-.409791276499163-13.52674483293049-10.090690248751343-9.35745098542975-17.36185581618156.99199242577015-1.730023752183115,2.299993379609077-3.274681442610017,4.202122470211179-4.148742565710563Z"/>
          <path class="cls-15" d="M105.052539007512678,73.863674629108573c-2.625126672242914,3.161777788658583-5.883084269973551,5.013749134206591-10.100697508109079,4.87946454662233-7.568855702767905-.148327256574703-11.513815779502693-5.365415904849215-11.748833025922067-10.838021965651933-.177624982641646-4.13614626747767,1.239821261189718-7.67010042567199,4.837811953462733-10.074215644121068,1.06252490348561-.598393031054002,2.12505164054528-1.196783561956181,3.187576544038166-1.795176593012002,2.847434241703013-1.537660281426724,5.827192145727167-1.436160425277194,8.711427308149723-.340908063102688,5.935200183337656,2.253822042508546,8.700043452139653,8.167976813876521,6.880426107400126,14.341448086290256-.555215064041477,1.291513917229167-1.01412627699392,2.627503444022295-1.767711379019602,3.827409632975105Z"/>
          <path class="cls-21" d="M138.691004546086333,58.377569334177679c4.269892839300155-6.030868546318743,2.295876775662691-13.397881456454343-2.834706236557395-16.816689483930531-2.45854566847629-1.638274428925797-5.186705592775979-2.094468248051271-8.06607993261423-1.971089151180422,1.36842786834859-1.099805671750801,3.021803677556818-.871038094086543,4.537627655627148-.747487753535097,5.514737988238267.449492527413895,9.897946049197344,5.251473092419474,10.181456875056028,10.768867406455684.158888989783009,3.092429929065474-.949871730823361,5.666682605893584-2.704174821228662,8.070470304051923-.371836462411011.231249349437348-.61012784122795.676235246481156-1.11412354028289.695928678138444Z"/>
          <path class="cls-25" d="M122.797669922700152,41.392176954390379c-1.875233824983297,1.641871498981345-3.510455619216373,3.42035254520124-4.42390841246015,5.838593378388396-2.624428770683153,6.947820744766432,2.049812189721706,14.562816031604598,8.883843523159157,15.512118909189667.234861991364596.032618204117171.464141204432963.105447333660777.69570476996887.159707752205577-6.166065581954172.56903522403627-12.215815787425527-5.674731678382159-11.613868243613979-11.776884684200922.342616904332317-3.473275542657575,1.623940011915693-6.338843677007389,4.24483461903219-8.618229886129484.605147478727304-.634749412725796,1.302830466480373-1.08627485478064,2.213393743913912-1.115305469453233Z"/>
          <path class="cls-4" d="M88.040820426944265,57.830901565957902c-4.796593132876296,4.741342048349907-5.683991857767978,10.11139108385396-2.42397726375566,15.562063022414804,1.531783648662895,2.561113052723158,3.871932480566102,4.190971406862445,6.791311621655041,4.908937834372409.833977930251422.205099262511794,1.695780511756311.297072222967472,2.544254941909458.441075746311981-7.895278182953916.625375254394385-13.145936179062119-5.921231875187004-12.348964767079451-12.341057904210174.265331801139837-2.137308194884099.932876187314832-4.072384163126117,2.092319016837791-5.861401704920354,1.056371660315563-.97554213710464,1.843445100887038-2.283604321346502,3.345056450432821-2.709616993968666Z"/>
          <path class="cls-27" d="M106.82025038653228,70.036264996133468c.829796620879279-4.380020409727877-.009652860673668-8.327819521569836-3.326451327870018-11.448578092007665-3.524028779589571-3.315742873033741-7.70251900500989-3.979182500403112-12.265378085183329-2.551973765077491-.142875335623103-.43077724392424.21604328151443-.456335971293811.46183827700952-.559423091102872,7.431612433385453-3.116942891609142,15.404137412288037,1.700406700514577,15.955608523861883,9.693239220343457.114055988051405,1.65309401608647-.095710892113857,3.321887852058353-.825617387818056,4.866735727844571Z"/>
          <path class="cls-2" d="M124.636346942315868,160.359641740782536c-1.639878739893902-.248963915759305-3.279748812146863-.497926498073866-4.919685557324556-.746801742387106-7.728655304985296-1.660579808152761-14.672526130605547-5.164040174866386-21.336993757726304-9.249347030543504-9.188595890653232-5.632574318851766-17.620133806052763-12.186827015164454-24.319352425300167-20.749065533305838-8.586878256761338-10.974818515080187-13.747137273410772-23.33404776486168-15.00095418923047-37.262151849088696-.034007469996141-.377743385623035-.00889587929305-.76081810913638-.011373676339645-1.141376559477067.590433047062106-1.41831508859832.782967899256619-1.466238890885506,2.030888859444531-.63501728443407,4.755238379590082,3.167431168865733,9.526699933123382,6.310652575266431,14.267046842131094,9.500147223852764.673711192557676.45330165895939,1.32607003047633.428394074897369,2.038462088541564.331407658986791.594806114339008.4768293191064.466058147318108,1.120402966214897.33438709146867,1.716175553394351-1.214780929672997,5.496521795759691,2.805989712102019,11.274298939417349,8.978906332406041,12.587928966997424,1.346394326847076.286521108215311,2.848696569497406.244513907213332,4.164066595612894-.508849158717567,1.101778143041884-.406408960845511,2.268910041932031-.583396612748402,3.381287069421887-.959384467114432.400562167818862-.135394615990663.827040343001499-.205867433611274,1.202815065171308.106993959325337,3.089847071791155,2.029691973761146,6.200914761397144,4.028259605824132,9.255221565575994,6.110091718996046.804149274817973.548108607506947,1.870572190289749.780024400919501,2.353525822689335,1.763900355759688.159618086774572,1.12730069509962-.77880182717854,1.496788268410455-1.42165286553427,2.073133534997396-1.405056620558753.804004885381801-2.283481829243101,2.083791067951097-2.759895732506266,3.545287977842236-2.650153114736895,8.129905412846711,1.797483768827078,13.932114128770991,8.826788191214291,15.296639427799164,1.337465170818177.259621875600715,2.762781966426701.115131855482105,4.039819676334446-.565404575339926,2.776318821401219-.759571080492606,5.424254985187872-1.717757994378189,7.324499621918221-4.086262222850564.695847903061804-.86731222303024,1.19193338059813-1.818306063709315,1.665100933147187-2.800879796755908.214746768935584-.445933052958935.284910185328044-1.056518081286413,1.01443378373915-.968818603976615,1.670680123479542.300902998231322,2.857389375241837,1.494527247930819,4.197946870435771,2.363999761297237,4.797447732138608,3.111561471636378,9.532809813972563,6.318823440669803,14.291621362412116,9.489874122202309.278174182492876,7.027746874678996-6.379639800245059,13.298995375966115-13.033983736109803,14.494466381052916-2.173850305363885.390524741471381-4.358624484821121.568297356529001-6.56292583159302.293312181487636Z"/>
          <path class="cls-12" d="M152.156687243754277,124.932108393664748c.413438969399067-.211338871873522.839924689022155-.105607018747833,1.260007190361648-.040670176213098,4.515040294681967.697965214254509,9.029442571707477,1.400135331141428,13.544086194804549,2.101198052867403-.326614462828729.01942701938242-.66206983759912.097071305704958-.978669369851559.049438561207353-4.60995004446886-.693482038122966-9.217392022477725-1.403728350496749-13.825424015314638-2.109966437861658Z"/>
          <path class="cls-10" d="M125.081109877413837,125.377451551899867c1.359262447094807,2.58782348744171,1.443984972644103,5.285867036755008.696811939367763,8.055840394292318-1.625040873521357,1.151128972394872-3.597617515008096,1.232437031221707-5.431220402151666,1.692642538231667-4.728148502250406,1.186709530555163-9.454572983224352,2.386522479207997-14.217305300131557,3.440478989328767-.454387874271561-.005482282487719-.844030215128441-.192529925825511-1.13462301412801-.516774262159743-1.611413696326053-1.797997072164435-2.37657482755094-3.953159417878851-2.59006244948614-6.323387580710914-.034312230774958-.38090444142108.124847771212444-.744457058362968.388351111971133-1.042228154556142,1.489303000593281-.956751858802818,3.254921661817207-1.022946624063479,4.899897829807742-1.449035679073859,5.074294762485806-1.314381277479697,10.186215522579005-2.481612037239756,15.272605523703533-3.750498679290104.705074927409441-.175904261559481,1.401151124799071-.251126179235143,2.115544761047204-.10703756606199Z"/>
          <path class="cls-22" d="M101.643513026974688,101.594636268962859c-.077005968199956,1.928893845797575-.047034914588949,3.875132473769554-.881958005591514,5.685128947814519-.117308421071357.2542965954799-.275423914396015.489769945239459-.41464921406623.733951871374302-.736514429401723.571890607343448-1.610463875564164.783574834367755-2.496173308167272.993494243510213-4.910306557218064,1.163725435391825-9.821728119686668,2.32355297797767-14.702741716857417,3.611729272828597-2.397331406553349-.548172189339311-4.948766895735389-4.145260483150196-4.473899709375473-6.301357835782255.453047614921161-.468441630418965,1.042441302244697-.642383949101713,1.654819655206666-.792721161224108,6.225302419348736-1.528265094118979,12.465559260450391-2.995015964215781,18.685773185410653-4.544505618770927.765497075824896-.190688172124283,1.572422763787472-.537569699090454,2.356151008309098.001745653920807.164355617187539.171260436338343.194733869029733.402434359722974.27267810513149.612534626328852Z"/>
          <path class="cls-23" d="M125.081109877413837,125.377451551899867c-1.680299411997112.850232982596935-3.54478311546336,1.06525776880153-5.337241278743022,1.513542777514886-5.145309611241828,1.286794069805183-10.304406100007327,2.518614958689795-15.461531279870542,3.757721603107711-.45775013029197.109978924918323-.940592672512139.115539145928778-1.411779653604754.16959617091743-.53517160057163-.229682695286101-.616830756127456-.692992687359947-.569248703024641-1.187045197497355.180040751823981-1.869284681157296.578863228391128-3.665474263209035,1.824769657541765-5.157485567342519,5.528402772488334-1.481632136490589,11.05597027312615-2.977588423191264,16.703620029842568-3.968186830519699,1.953071680421999,1.156320123049227,3.332427334313252,2.813240845542168,4.251411227858625,4.871857043819546Z"/>
          <path class="cls-11" d="M106.132677547786443,138.386074582555011c1.036317864869488-1.128284896090918,2.534562614797323-.961290915287464,3.829813003267191-1.296191643585189,4.784630768495845-1.23716281668203,9.59638650757006-2.369824915982463,14.402305337669532-3.523604906245964.455415214055392-.109335565184665.941343722539386-.091583782599628,1.413113927712402-.132908082157883-.011344729409757.094793999398462-.022700125797201.189657336011805-.034142864544265.284569341676615-1.549056231096984,4.732563305098665-4.917588438991515,7.349140581545726-9.690713790503651,8.332321028261504-3.250415244780015.591373474324428-6.293915240124988.206244405231701-8.967807805962366-1.907845222385731-.565771040175605-.447307183687371-1.136544022248927-.899127978671459-.952567807638843-1.756340515563352Z"/>
          <path class="cls-17" d="M80.053250294326062,96.169636600836384c.717995028482619-.733251848987493,1.435989223440629-1.466512698492807,2.153982085012103-2.199764880842849,2.89898949898452-2.847595429509965,6.363668179923479-3.774312346817169,10.302518465339745-2.964497948611097,1.535585402376455.315710919554476,3.025487662293017.796050321061557,4.288017251034034,1.801322205952602.45222074979938.36008007208693.918464988226333.688900096884026.971117523960856,1.331386135863795-.148548940673209.939439025663887-.901956179177432,1.14367635283088-1.651072987333464,1.344479170276827-5.074093666535191,1.360122208636312-10.204768456569582,2.490637802531637-15.302254391726819,3.756096201803302-.732439372502995.181835479590518-1.545302579574127.340261281196945-1.988878552756432-.591997572244509-.099129610800446-1.07669455951509.784691339038545-1.667232586522005,1.226570606469977-2.477023312198071Z"/>
          <path class="cls-8" d="M83.117108881200693,112.380298588255755c.472639480720318-.638197516675064,1.227640812434402-.729445088578359,1.902763386056904-.895947946308297,4.63019575585713-1.141899744747207,9.268697347561101-2.250368555420209,13.909181602823082-3.349952853070135.456518350367332-.108172161015318.944488502762397-.083620650182638,1.41785627104764-.120680034000543-.900049550560652,2.452551339316415-2.893380664425422,3.901158936712818-4.901051192446175,5.336594390717437-1.370111923009972.578790250390739-2.775772885806873,1.041944447979404-4.243110503586649,1.304518990067663-2.321927407778276.555570469576196-4.571021110896254.327318420166193-6.722693994226574-.692560818011771-.660347624921997-.313015636233104-1.451013846026399-.590131132907118-1.362945569668227-1.581971729394354Z"/>
          <path class="cls-13" d="M120.829698649555212,120.505594508080321c-.656602496168489.846830563765252-1.700686160966143.810418633685913-2.585536946477077,1.03779770449546-4.042756728216773,1.03885677623839-8.107730988103867,1.991605900650029-12.168059189043561,2.961332675791709-.551138830294803.131624415371334-1.118289693920815.242002888369825-1.691420858773199.088664362861891-.143706241540713-.907579484704911.540245732474432-1.319133883631366,1.086706501628214-1.813085557139857.527738059983676-.518657824097318,1.055473119507951-1.037324982062273,1.583205178598291-1.556001473909419,3.279258849623147-2.391300873639921,6.855071898204187-3.203378800173596,10.825710062703365-2.111499583132172,1.077838650557169.296390170140512,1.97245715241479.917124626799705,2.949395251363967,1.392791871032387Z"/>
          <path class="cls-25" d="M83.117108881200693,112.380298588255755c2.368436246517376,1.918974891483231,5.150291515683421,2.368784497752131,8.085372870737046,2.274766559534328-3.380723143711293,1.546408131240241-8.731529446104105-.051302791920534-11.370847539172246-3.149332799554031-2.824188714424963-3.315033463373766-3.448022423905059-6.998671975414254-2.44702556082666-11.098234719420361.507075546533088-1.65336300342824,1.184187864319028-3.199731861268447,2.668629642043015-4.237783023601878-.03409407160143.918687677369235-.973037365349228,1.488377614923593-.938911244747942,2.433468420620557.248247767700377,1.132711053436651.105849790526918,2.26758120141676-.181011124625002,3.349511050328147-.399028652424022,1.50496071327143.50782484782394,3.014450682207098-.11972487708772,4.490980456601392.655510069907905,2.543508251750609,2.132963196267156,4.491253244725158,4.303517833679507,5.936624055491848Z"/>
          <path class="cls-6" d="M97.569278937087802,94.191980307339691c-3.613900740831014-3.545160954827224-9.692950021568322-3.983304202653017-14.173826462108991-1.020669104309491-.397856601184685.263061542700598-.791943548196286.531826758915486-1.187999075164043.798248500206682.807615071013061-1.544795202342357,2.290397021217359-2.288759341719924,3.771483102520506-2.874485504471522,6.137533458018879-2.427243514493966,14.101191335534168.400567916212822,15.676771263923001,8.511349908769262.129361294213595.665936369816336.154919724438514,1.325760608968267-.012186744843348,1.987698798986457-.082400746283383-.131849176557807-.164792164760001-.264220382714484-.247184916606784-.396582921721347-.251438654984668-.33830763158403-.581271298775391-.623881275943859-.681073810226735-1.062256597726446-.400274221168729-1.758118887235469-1.419075778370825-3.177591897770981-2.512045304089042-4.553316079553042-.328990496363986-.414096604283259-.607425256926945-.842228119416177-.633938053404563-1.389987000180554Z"/>
          <path class="cls-26" d="M105.471388156889589,122.780303694089525c-.362038700339326.604418745351722-.724080401119863,1.208828156826712-1.086412801538245,1.813166229660055-1.193541773471225,1.907429116701678-1.599400895323924,4.006385191167283-1.51419733275543,6.224822846212192.122000321422092,2.93846802783446,1.116378854916547,5.500970494731519,3.26201953443524,7.567463128356394,2.190650073582219,2.446035044118616,4.989164729675394,3.524205064568378,8.21131908582538,3.642063734387193.569075054881978.020810316946154,1.139102890876529.015789171435244,1.708814173351129.022572694764676-3.798914770994088,1.600952413791674-9.209027928780415-.034859263163526-12.100604626852146-3.539719462985886-3.503788559515669-4.246880317345131-3.084856681183737-10.758601537072536.130647110141581-14.560164755122969.387369999050861-.45797965469319.701275893225102-1.048713831913119,1.38841485739249-1.170204415271655Z"/>
          <path class="cls-20" d="M97.569278937087802,94.191980307339691c2.199101622352828,1.830818151764106,3.535251602777862,4.133000654974239,3.827076170076907,7.005580345385169-2.764084241964156.299535681668203-5.394701892033481,1.199478697209997-8.088147384169133,1.814333920969148-4.840434750871282,1.104978069788558-9.664001714165352,2.283804405495175-14.49461667547439,3.4317799590699-.976058669710255-2.654794960672007-.788842252577524-5.264938006363082.300787507712812-7.840465838580712.286111129833444.416616227983468.694068936447366.26709017509711,1.047359843452796.181276835683093,5.529408789256195-1.342989927361486,11.056851425380955-2.69417866207732,16.579171405079251-4.065922919387958.301142290814823-.074804940642935.553370714269477-.346522606560029.828369133321758-.526582303138639Z"/>
        </g>
      </g>
    </a>
    <path class="cls-7" d="M134.587721499225154,49.307295945862279c3.21726140048122,0,3.222590251863949-5,0-5-3.21726140048122,0-3.222590251863949,5,0,5h0Z"/>
  </g>
</svg>