<?xml version="1.0" encoding="UTF-8"?>
<svg id="Genral_2" data-name="Genral 2" xmlns="http://www.w3.org/2000/svg" xmlns:xlink="http://www.w3.org/1999/xlink" viewBox="0 0 280 280">
  <a xlink:href="https://www.notion.so/dmmnotes/somatic-markers-52c310693bb54ccbaa2b66cc805ba40c?pvs=4">
    <g>
      <g>
        <path d="M132.336743769399618,65.396468420469319c23.91654426146124,1.233292915112543,41.31817256964132,15.270983575983337,48.460369628170156,38.6755927536542,5.53394970267982,18.134457000753173,11.416321400709421,36.162648382412954,17.15359412836915,54.234969493891185,1.460710793040562,4.601254461376811,4.137201920601001,8.391887727164431,7.685941212401303,11.640689304478656,3.117248831318648,2.853793284168205,6.205627198560251,5.748115066262471,9.162683018710595,8.765713164431872,4.193669151829454,4.279581010334368,6.154752521739283,9.594164849626395,6.752438473238726,15.48302806229367.204743123869775,2.017290064257395.096317841400378,4.091467881071367.96177295526104,6.005361600426113v2.87817479520163c-.33119048610024.599107378609915-.461824944040927,1.377515115758797-1.33357534165043,1.497321952327184-9.40795020169935,1.003514008642014-18.813777575160202,2.038399724366172-28.213895272660011,3.107482503901338-9.241242303849504,1.051003424310693-18.49264490286987,2.02027645167982-27.728009168520657,3.13037814080235-2.595252686778622.311960372344402-5.197957232699991.863226995588775-7.846668590680565.626087339484002-1.595678748628416-.049319309922794-3.195046826338512.02971748267737-4.789459198118493-.05706342240228-3.11985478600036-.169858104191007-4.333490331990106-1.165686556967557-4.778698654959953-4.252879193387344-.751788641669918-5.213119862721214-1.2164391432907-10.462998641207378-1.797867158511508-15.697740534427794-.352030803349408-3.169362207980157-.696397464738766-3.575862237039473-3.884460918179684-4.070914508814894-.789150418710051-.12255899752563-1.570644015569997-.294905757900779-2.361887982138796-.399004782195334-1.952555456451591-.256873235735839-3.014891909590006-1.422369483700095-3.20002449256026-3.311215610514409-.233437905610117-2.381629329714997-.655426879680817-4.743554358108668-.69898145911975-7.146922831556367-.025774062889468-1.422135257236732.437163535949367-2.599159838999185,1.75085017299898-3.128196906851372,2.165079843840431-.871893374773208,2.380019863361667-2.495909885637957,2.133815707900794-4.48319700371394-.961355709700001-7.759754417065778-1.704367554601049-15.544036736708222-2.565467210519273-23.315026704491174-1.537893899861956-13.878686574444146-3.12243878037043-27.752359238633289-4.604275374460485-41.637066165172655-.412341085710068-3.863678984600483-1.439321468480557-7.723255346285441-.433459566671445-11.648089396840078.078991170881636-.30820176954694.058838942790317-.652426837368694.18541074667155-.937729310227951,3.23691046328895-7.296688696840647.582035583298421-14.634002876005979.154856660188671-21.953709812663874-.070236334409856-1.203612945268105-.836262565488141-1.823090706708172-1.951333000190061-2.120499759947052-1.065169330819117-.284098402438758-2.237600048629247-.331251117564534-3.036896122328471-1.26691722202122-.144937928231229-.294979868618611-.102693646211264-.55975550268704.124141531559872-.797103766737564,1.596425398558495-.719364369162577,3.167845344458328-.793475086431499,4.699085275799007.178477821073102Z" fill="none" stroke="#181818" stroke-linecap="round" stroke-linejoin="round" stroke-width="40"/>
        <path d="M82.445829469519595,221.659104260055756c-5.54136496134015.649100089616695-11.081684978769772,1.307291093884487-16.624416053289679,1.944504190429143-4.726129375580058.543346840915547-6.290767708749627-.758644879209896-7.070472342429639-5.469597841296491-.433246140080882-2.61767104926912-.091287104469302-5.363054078279674-1.264484259350866-7.858576026335868v-4.317262192802445c1.046532706010112-1.849847420482547.848599331491641-4.063389983644811,1.74261186090007-5.958691977382841.363655346760424-.770927129440679.710917335420163-1.549569093054743,1.065634157010209-2.324712298854138,1.128297850669696.264002503747179,1.645831938350966,1.209003813737581,2.209832631720928,2.058133303997238,3.753909726348866,5.651767474026201,8.069960841328793,10.856074566021562,12.527435322779638,15.957278096197115,1.858157310589377,2.126512792461654,4.044988823809035,3.26833752836319,6.898287753589102,3.122092379620881.940010305739634-.048192095060585,1.921542033860533-.146669684208973,2.800475277030273.379300480874008.472642217950124,1.964047461056907-1.073245228259111,2.061017217340122-2.284904347960037,2.467531885553399Z" fill="none" stroke="#181818" stroke-linecap="round" stroke-linejoin="round" stroke-width="40"/>
        <path d="M117.036872802629659,66.842879969821297c-.185729170909326-1.569819617810936-.423617695740177-3.135521973550567-.547942229730324-4.710188066290357-.478533066319869-6.061188929259515,1.016849367990289-8.298866653942241,6.72052284864003-10.156871056797172h1.439189706730758c1.356355484709638.486734944921409,2.785450777138976.814025142004539,3.91958274542958,1.787871875692872.261444598210801.776490007971006-.247280209769087,1.220389187046749-.784582677939397,1.530514632928316-2.723983919409875,1.572248344957188-3.677499804811305,4.175674582409556-4.196282426599282,7.049506123599713-.491251735531478,1.77763979323754.327420635938324,4.301563530003477-2.648396593800499,4.668500330353709-1.29948564813094-.066990598728808-2.649791072350126.970735112878174-3.902091372730865-.169333839487081Z" fill="none" stroke="#181818" stroke-linecap="round" stroke-linejoin="round" stroke-width="40"/>
        <path d="M136.641890684310056,228.024179153266232c-.030729768819583-.133933620205426-.056225668020488-.26887734203774-.076487697580887-.404801887190843.255237155630311-.392182936418976.648890032720374-.552188889949321,1.080827019130083-.650593283327908,1.420589339271828-.18083746971206,2.845212052201532-.12854641152262,4.271328064991394-.054516209600479.593550096489707.047064880200196,1.152073526989625.171570885211622,1.524212637859819.699400222856639-.035751355630055.135236504913337-.063633606570875.272068677617426-.08366139302052.41051115726259h-6.716218631379888Z" fill="none" stroke="#181818" stroke-linecap="round" stroke-linejoin="round" stroke-width="40"/>
        <path d="M123.20552252924972,62.058819072515689c.219200316199931-3.08395738337822,1.323012441120227-5.652437672795713,4.216654257619666-7.153232993152415.515064012321091-.26714077239194.917281403349989-.607033108095493,1.145997846149839-1.141846923368576,1.648105286101782,1.204817473158982,2.803297174570616,2.698590803052866,2.84174964614067,4.846987758368414.472900251379542,1.541606765682445-.758515811159668,1.432018058625545-1.620837923339423,1.657954187163341-2.882200504289358.755164420341316-3.605770170530377,2.401216517804642-2.25570264947055,5.158389555492249-.002635235059643.153433888317522-.00494838584018.306873266319599-.006946772418814.460317219054559-1.275102403740675.988800743896718-2.747576593272242,1.017213511971931-3.881291316010902.084897028946216-1.218759614170267-1.002247721819003-.726182941010848-2.54975635394112-.439623088670487-3.913465832503789Z" fill="none" stroke="#181818" stroke-linecap="round" stroke-linejoin="round" stroke-width="40"/>
        <path d="M127.533383706349923,65.427070657018703c-1.843749528919943.070192913672145-1.534636456530279-1.301766643133305-1.403797035869502-2.317971883370774.226139768519715-1.756523728497996,1.048486828878595-3.144605568622865,3.012051711799359-3.450821902904863.858823105631018-.133933620205426,2.017638442310272.399072488284219,2.268095574339895-1.047324879385997.309156992969292,2.261727796118066.618123663409278,4.523680211757892.927046413269636,6.78557498572809-1.601154181478705.010142188901227-3.202279082559471.020342934416476-4.803396663539388.030543679933544Z" fill="none" stroke="#181818" stroke-linecap="round" stroke-linejoin="round" stroke-width="40"/>
        <path d="M123.20552252924972,62.058819072515689q.011616994550423,3.832027303697032,4.320921724771324,3.82856422882287c5.77040348843002,1.526867424941884,5.816871466628072,1.523802352068742,6.21121243287962,7.501386157726301.183192757160214,2.777058498539191.639037181628737,5.514574812154024.916527433309966,8.272219962558665.253919538099581,2.523506520876253.151343013438236,5.029264897384564-.943758195591727,7.498853584078461-1.767649796498517,3.986259940858872-1.287004882078691,8.220038698027565-.775366675337864,12.412344731832491.614419694129538,5.034551461882074,1.198277981678984,10.072854206986449,1.786074481618925,15.110618963179149.615320066110144,5.273630805897483,1.237015937040269,10.546617489017081,1.823560700329836,15.823476228377331.534535471360869,4.808954778729458,1.012384108580591,9.624189754538747,1.539526281580038,14.433993604201532.595753445801165,5.435817993376986,1.236803654219329,10.866717230999711,1.821928318609935,16.303655119660107.288880323219928,2.68428651967406.493652727469453,5.377590758229417.742016311660336,8.066298302419455.082717100449372.895389216988406-.289897816750454,1.515306153049096-1.066984714980208,1.950586758928694-3.163233683100771,1.771864646972972-3.52741584810974,2.572860598786065-2.860181651349194,6.264094008722168.09868223284866.545981888641109.322106245250325,1.074587101449652.377790226059005,1.622398884344875q.530121452640742,5.215301096670373,5.784275072970559,5.620351849480357c3.010141166379981.231371829417185,3.573342139110537.965949939405618,3.859396904730602,4.006458313628173.549468470029751,5.840144108062304,1.244672758908564,11.666834833571556,1.909601124989422,17.495692153879645.243627481180738,2.135720820346251,2.033471812948846,2.275144123312202,3.576445860409876,2.439263679123542,1.660168806589354.176606754197564,3.35332929210017.042980556227121,5.03209846613936.044737254711436.017824437130912.899576015041021-.705481705599595,1.024799338600133-1.299346566269378,1.071747105566828-5.450119947430721.430947416287381-10.846239536449502,1.438194409207426-16.326401163549235,1.534754269177938-.557871941829944-.011008643828973-1.117010260510142-.011491735913296-1.675475130221457-.030478718686936-3.343630163069975-.113614474414135-4.492285204569271-1.213893291183922-4.861774440189038-4.616471861989339-.594369947390078-5.473550412885743-1.210092618861381-10.944919591818689-1.811614301401278-16.417430624767803-.224961232839632-2.046568372314141-1.023276413478015-3.220350381459866-3.138740637248702-3.510527692609685-2.706305884210451-.371205028697659-4.255582535510257-1.797673475526608-4.391282500841044-4.743539718954707-.076268094659099-1.655468733293674-.292708734148619-3.333511042099417-.533964503769312-4.993591108912369-.377929307900558-2.600616434825497.02943411158958-3.74200199610641,2.520807296370549-4.777802658956716,2.848689098460454-1.184358797932873,3.342539468558243-3.052322171522974,3.007996377858944-5.853758521308919-1.968008182040649-16.479859297123767-3.711289374339685-32.985776288416673-5.566377734110574-49.478905978665352-1.551736204019107-13.796048549955231-2.98723658165909-27.60495393693418-4.526060133899591-41.402508489860338-.212260863878328-1.903155899875856-.414430973509297-3.807720818327653-.625176577239472-5.710754115287273-.401382899919554-3.624449589258802-.338082357789972-3.814145577052841,2.777124166370413-5.453709784442253,1.367299030300273.081753270618719,1.951523322719368-.55889087765172,1.939906328168945-1.927732294649104-.006815010659921-.80336292003085-.323094458388368-1.713317180330705.455295417170419-2.384283591329222Z" fill="none" stroke="#181818" stroke-linecap="round" stroke-linejoin="round" stroke-width="40"/>
        <path d="M143.359888099359523,82.1986617604598c4.240320132459601-.871016855426205,8.380691655231203-1.113607766512359,12.001855990560216,1.908477232364021-.999647139129593,3.514612016584579.039909170949613,6.973789216652222.417494434270338,10.417679480124207,1.710897081478834,15.604895359792863,3.349259317948963,31.218175295052788,5.136483054860946,46.814224946025206,1.079092156049228,9.416518715490383,1.782648676038662,18.879860765142439,3.367735243758943,28.236454103618598.040882743889597.241326454157388-.028233615619683.474293951363506-.076092412320577.70916453859536-.50330793592002.842820014871904-1.401776688988321.956214901976637-2.22481915860044,1.212619684782112-2.415383253839536.148821639852031-4.792079792980076.845908876373869-7.24377072984862.543581067380728-3.559799958940857-.895769834995008-3.657274375729685-.883846244038068-4.103002425610612-4.527765908154834-1.318305618509839-10.77732323692544-2.441911286759932-21.577388399635311-3.648146214289227-32.36779904026298-1.720625490901512-15.391928606775764-3.386079407800935-30.790020297397859-5.082058130799851-46.184704724921176-.14925678569125-1.354828086801717-.234865324609927-2.700971495476551-.187299331801114-4.062112717454511.042698128050688-1.221677661336798.506638580231083-2.157017129669839,1.641619679819996-2.699818662096732Z" fill="none" stroke="#181818" stroke-linecap="round" stroke-linejoin="round" stroke-width="40"/>
        <path d="M143.359888099359523,82.1986617604598c-1.453522457410145,1.541876217610479-1.090635949629359,3.486446284232443-.913709195829142,5.242434768661042.667014593840577,6.62022802834872,1.550264864450583,13.218314336227195,2.278555993500049,19.832836754292657.711491505559025,6.462019030974261,1.288710464779797,12.938856545613817,2.005853085520357,19.400198515713782.716513092369496,6.455764452415679,1.566859525219115,12.896611606876832,2.295414177779094,19.351117092046479.560280253870587,4.963697956385658,1.010824927840076,9.939678163003919,1.533018715010257,14.907797143905555.306565678500192,2.916595254950153.573514989939213,5.841476271079955,1.01931624081044,8.737847534737739.286442730779527,1.86095853839106,2.214556382059527,1.111873026760804,3.29178191327992,1.75144302710396.035875797279004.466659632538722-.217275130591588.803923782619677-.626424653841241.86859956511762-3.578180723488913.565598355038674-7.153565169768626,1.28029649385644-10.794347366088914.49965628571772-.242068300431129-.051903120607676-.391120123389555-.257597873858685-.56921077268089-.411308991157057-1.001535724250061-3.207870502650621-.972606699378957-6.568837278129649-1.404536365700551-9.856923025279684-.887327564849329-6.754813090907192-1.590671802019642-13.53413944523345-2.337658459789964-20.306914778133432-.539000730768748-4.887003428431854-1.006066864538298-9.781926639192534-1.541985834308434-14.66928140732125-.5613709483805-5.119597627211988-1.288000415330316-10.22411692577225-1.722323753490855-15.353859486725923-.555610031738979-6.562267957760923-1.922396655229022-13.060244410817177-1.627352810019147-19.690932114717725.207532080979945-4.663942978713749,4.071811490659456-9.41625155093061,9.113609085849021-10.302710883961481Z" fill="none" stroke="#181818" stroke-linecap="round" stroke-linejoin="round" stroke-width="40"/>
        <path d="M163.992482951740385,170.454849546342302c-1.500788326220572-3.833174647394117-1.33842856622141-7.937678695127033-1.89352619113015-11.920114156993804-.732441624280909-5.254680421006924-1.270659104629885-10.537241110861942-1.843566526489667-15.813119026901404-.547843408410699-5.044930622088941-1.009016863779834-10.09923762233484-1.552746377459698-15.144636697352325-.551745020320595-5.11991968860093-1.168668187761796-10.232768665804542-1.737117670301814-15.350935315707829-.551225293409516-4.963024555301672-1.071142530297948-9.929518590108273-1.616123780630005-14.893242165013362-.397671610549878-3.622114644191242-.702546346548843-7.260028595366748-1.278616050478377-10.854065342131435-.217282450690618-1.355658858794413.199472653748671-1.939080383863256,1.290847933209079-2.371499035127272,2.632145977600885,1.309362534178945,4.319355223940875,3.451213500275117,5.301880655280911,6.16090261197678,1.972136716960449,5.438899535300152,4.298244063078528,10.754112858214285,5.75431391436905,16.374369553193901-.744424623690065,2.952874738421087-.035839196800225,5.877020137060754.295673373590034,8.77968257716384,1.72644496832072,15.116266016844747,3.350027928170675,30.244053047910711,5.027018318560295,45.365611118937522.323680066179804,2.918688653975551.914741329559547,5.810543738618435.995379522350049,8.758159360953869-2.785114052659992,1.542227557307342-5.69945710455977,1.850037729484029-8.743417120869708.90888651700152Z" fill="none" stroke="#181818" stroke-linecap="round" stroke-linejoin="round" stroke-width="40"/>
        <path d="M172.626062011349859,169.493935475922626c-1.277744958899348-1.967019209323553-1.139644001619672-4.269260406743342-1.40909678637945-6.440839834884173-.867526701420502-6.991506252812542-1.611570680050136-13.998705678744955-2.361844061550073-21.004280158580514-.691719922520861-6.458838674761864-1.307976961101303-12.925743523392157-1.999243037580527-19.384633435192882-.497268855579023-4.646218622974629-1.294983788229729-9.262434299767847-1.414960184380107-13.944998282404413-.020649994719861-.806024501223874-.35115239166953-1.859911838877451.976581512270059-2.076465184629342,2.537072552759128,6.758509477298503,5.105211598829555,13.505673610225131,7.598861333901368,20.280249559069489,1.508708671599379,4.098743540624127,2.901979407419276,8.239969906235274,4.347113033218193,12.362106814995059-.708314583289393,3.274551849250201.091852581990679,6.492889347031451.463018119909975,9.70652767636966.729491625041192,6.316063005524484,1.154006032700636,12.670209770252768,2.263996319810758,18.940964594057732.042441924639206.239818621292216-.068867476200467.467794166976091-.141087556999992.696538268244694-2.649992375030706,1.482038675520016-5.406221323410136,1.949832842496107-8.323338692220204.864829982954689Z" fill="none" stroke="#181818" stroke-linecap="round" stroke-linejoin="round" stroke-width="40"/>
        <path d="M142.880136236819453,172.379283456599296c4.023359766069916.015224720189508,8.050730945500618.080764212774739,11.990012072999889-.956968818409223,2.398605590620718-.159954716489665,4.797233141540346-.319931391712089,7.195868012549909-.479908066932694,3.542912494280245.02493779888573,3.625585674151807.101698203034175,4.2353644265404,3.595163961623257.150391400780791.861616688645881.28832399581006,1.72641007371567.27541134402054,2.597834995560333-.035121827249895,2.369844810722498.962197520899281,4.363170579836151,2.208883306589996,6.274780591162198-3.36045906695108.948104810646328-6.860417229769155.927961334704378-10.288060150529418,1.351311030048237-3.674549805560673.453828414032614-7.397309772490189.777500109597895-11.138003978030611.594276457781234-3.297352507390315-.161499147241557-3.656901050759188-.431342673446125-4.026382966279925-3.716442033173735-.228709122709915-2.033480968611912-.658091395129304-4.045676607269343-.852374099829831-6.081236335754511-.100556177791077-1.053594554572555-.483558313180765-2.218124618373622.399282031969051-3.178811781905097Z" fill="none" stroke="#181818" stroke-linecap="round" stroke-linejoin="round" stroke-width="40"/>
        <path d="M168.785675399520187,183.410186119603168c-2.699900798999806-1.000395868832129-2.475993660180393-3.48968153727219-2.869324452980436-5.658296536721537-.055793782270484-.307583265288486-.004633621649191-.633728977885767-.011909798449778-.951091198066933-.095483350291033-4.16071107962307-.3756307973199-4.587574171935557-3.838410185529938-5.858413772288259.599186571480459-.33199405463165,1.226467676709944-.553045280459628,1.926378788200964-.487469189989497,2.887368493049507-.235207287774756,5.787957081958666-.350944439522209,8.633601019899288-.960884792111756,2.759669394150478.037520151774515,5.466809769470274-.371351420237261,8.153021986359818-.958286342272913.728188647690331-.60559984342035,1.534380253129711-.633824132386508,2.387186238700451-.326987463953628,1.132009140048467.580537611724139,1.835909704619553,1.523752944924126,2.042307170499043,2.751956009169589.586105557440533,3.487719890634253,1.095028008059671,6.987722031497469,1.326284524649964,10.521321030855688-4.041938173229937.482872495625998-8.081702277529985.985039396258799-12.126773452439011,1.440024303459722-1.868776941881151.210188973538607-3.747919141649618.328283029086379-5.622361838910365.488127951919523Z" fill="none" stroke="#181818" stroke-linecap="round" stroke-linejoin="round" stroke-width="40"/>
        <path d="M186.534810690869563,181.482033864223922c-1.261809106879809-2.197981142429853-1.19755329203872-4.669641269418207-1.430127426159743-7.072497372475482-.204055034710109-2.108213849927779-.311323741789238-4.227912116190055-1.931510176469601-5.860719439047898,1.444401616068717-1.662546764267972,3.55509313633047-.914434756379706,5.306426435759931-1.466462615633645,1.020070210830454.643676283047171,2.117089285378825.65547544119363,3.210448311228902.293280811802106,1.941406948140866-.643127314771846,3.447414503791151-.215773810799874,4.891435474790342,1.326365911583707,2.879609189811163,3.075298323770767,5.940288308549498,5.980614110541865,8.902687799791238,8.979356978321448.41436143258943.419441041218306,1.226365195339895.779652065239134.907487113039679,1.502313903849426-.312128952509738.707349283495205-1.131174648950036.326950866068728-1.727396580979985.390484794550503-6.042286545509342.644078859784713-12.086081031080539,1.273987018470507-18.129450951000763,1.907877027049835Z" fill="none" stroke="#181818" stroke-linecap="round" stroke-linejoin="round" stroke-width="40"/>
        <path d="M188.47959952400015,167.082354437066897c-.609280985770965,1.296179975975974-1.803862318271058.873503681716102-2.832628804799242.993786290790013-.831636263941618.097233261056317-1.649671786930412.310635528903731-2.473768350570026.472588489918053-.798080937520353-.004223395935696-1.596147234860837-.008534626796973-2.394184251801562-.01291173385107-1.46552009701918-3.416888343868777-1.20921420716877-7.118376481201267-1.681755773779514-10.688500169859253-.723862470140375-5.468858564019683-1.156860870680248-10.977147689414778-1.652782828328782-16.474157346628999-.069533605070319-.770670944246376-.413461060610643-1.851296696731879.919140708079794-2.08815088933261,3.355971847258843,9.271620368919685,7.081974617340165,18.408582479509278,10.115979301199332,27.797345358963867Z" fill="none" stroke="#181818" stroke-linecap="round" stroke-linejoin="round" stroke-width="40"/>
        <path d="M139.512181390149635,212.67171770575078c5.951414856561314-.313614596749176,11.879017436340291-.847607018240524,17.748542363460729-1.917890208405879,5.943640913148556-.176665310813405,11.807448844199826-1.123291566902481,17.699380589419889-1.810307065450615,4.951467593449706-.577353595723253,9.919237043770408-1.013205128609115,14.875206497110412-1.553697334489698,5.030707647640156-.548631575520631,10.046160212339601-1.259962708911189,15.085915500349074-1.696516921188959,5.595643483449749-.484702389878294,11.130295915480019-1.605241795823531,16.771324002720576-1.597322013492885-.323577584820669.952760061625668-.919535993351019,1.637023399216559-1.907924822689893,1.934198225992077-5.18598155338077.594364292704995-10.377555661170845,1.143918134928754-15.566260290770515,1.707891543870574-6.154445077649143.668906865015742-12.31282836768878,1.303075017522133-18.457859800098959,2.055190834036694-8.362925778881618,1.023598927968123-16.774493604891177,1.590222023789465-25.115751895511494,2.845090307097053-5.199999539869168.782301752120475-10.454709487599757,1.213790817106201-15.699778867070563,1.641781124277259-2.298122613818123.187527563104595-4.572820915998818.726614410197726-6.901336574159359.517933269522473-2.333010197959084-.242424390708038-4.733365291849623.469829009385649-7.015237289469951-.492812481208603-.275535785680404-1.663769133629103,1.112918326060026-1.19811228314029,1.847028932541434-1.31108263477654,2.192962094779432-.337520335278896,4.44313075062928.243668718800109,6.63675165416862-.32245664578295Z" fill="none" stroke="#181818" stroke-linecap="round" stroke-linejoin="round" stroke-width="40"/>
        <path d="M139.512181390149635,212.67171770575078c-1.988218970909656.7614116793211-4.103851556919835.704465370150501-6.170593212478707.962714686365871-.827017282490488.103337788284989-1.756406126911315-.307275843055322-2.449136222880043.480910848984422-2.717256749900116,1.280589276935643-5.707040725450497,1.021388415709225-8.567778704200464,1.474309202192671-1.872883516509319.296516064843672-3.775837993080131.459874384647264-5.669525226359838.646465041891133-1.112907345919666-.105782527009069-2.273021999881166.146157313818549-3.327200204479595-.41528352147543-.244542493350309-.16302161925887-.349446808981156-.393866439131671-.314906929470453-.685463748222901.661429359539397-.917626091957572,1.776034968050226-.997921851803767,2.698458739820126-1.426424529367068,1.280336273359353-.594759549861919,1.777993094099656-1.614727967633371.882349898618486-2.669054479905753-3.238462323919521-3.81222601798072-3.338022968458972-8.460450205056986-3.795364352848992-13.050732620487906-.126183838729048-1.266521049916264-.271923317621258-2.532529729438465-.384641837210438-3.802022527623194-.264171334480125-2.975305582180226.039180821260743-3.803325412329286,2.836585317430945-5.026221783240544,2.171389767780056-.949232025504898,2.850907087959058-2.389578390353563,2.372732706418901-4.542924752149702-.399501634899934-1.799093473466201-.336889181919105-3.643626881035743-.639414166660572-5.456978890524624-.272142920539409-1.631211655070729-.924301376739095-2.635691847877752-2.663732197819627-2.824507656534479-.941789089389204-.102210573426419-1.917151805439062-.300205131659823-2.372769306899499-1.342220115395321-.404867266279325-8.627753776869213-1.752643596859343-17.158318210143989-2.612015709790285-25.738172675031819-1.393062113049382-13.908096634886533-3.04981609422066-27.788100733194369-4.584097526019832-41.681188575414126-1.113613735320541-10.083837232295991-2.191981201729504-20.171645335121866-3.373891445658955-30.247941573199569-.11309916465143-.964215199654063-.516868416321813-1.845578277188906-.672186242640237-2.792382033019749,4.640952722409565-3.579293288763438,10.031088131809156-5.544440516267059,15.552337465540404-7.232506985792497.280418290629314-.085736035462105.520572385597916-.303132962466407.779476910018275-.459219282503909,1.308763871560586.249656132798918,2.496270329940671-.469640530276592,3.773466281520086-.47208435405264-3.981536389648682,2.205687742078226-1.916708939548698,5.767419535690351-1.736305139489559,8.71992280557788.323123738780851,5.288458439032183,1.131877378300487,10.547230503590981,1.737146950690658,15.818475127382044.596273172719521,5.192998345510205,1.206344729000193,10.384466899422478,1.783666169580101,15.579576942898711.542733980439152,4.883819412432786,1.03451276297892,9.77330783726029,1.578249596759633,14.657017456034737.578375534600127,5.194820920185521,1.207303661749393,10.384027724801854,1.784786144469763,15.578951119065096.542909662779493,4.883907247354728,1.029835220750101,9.774050774325588,1.57376237706012,14.657840908448634.578543896850533,5.194630611184039,1.165579106660516,10.388704934513953,1.813656608570454,15.574939990861822.186735684290397,1.494350204058719-.045933611099827,3.006135640564025.445698769488445,4.503325840503749.292496451331317.890704687699326-.389363300018886,1.64902750552028-1.250711839249561,2.082749041495845-.9270976539392.466827982809264-1.831107720729051.990543718171466-2.788671619990055,1.383517168909748-1.904264773998875.781496598647209-2.332248907820031,2.113542501992924-1.905618992019299,4.048340933301006.40762694300065,1.848632370698397.783199179550138,3.764033922920135.732119539989071,5.638079865009786-.056525792009779,2.074031425272551.955543552390736,2.76172032490831,2.686446460011211,3.271294637479514,4.668509229019037,1.374426254258651,4.623197826200339,1.426468446828949,5.061774140949638,6.354022331919623.449739463250808,5.05311390919087.931211548670035,10.104046584432581,1.470724686250833,15.148245248819876.306477837330021,2.865482648659963,1.126394625360263,3.291174608650181,5.715122112978861,3.284630906799066Z" fill="none" stroke="#181818" stroke-linecap="round" stroke-linejoin="round" stroke-width="40"/>
        <path d="M100.705054767020556,74.534598003592691c1.126273843739909.185064525438065,1.287191544559391,1.084243453426097,1.380369064179831,1.963763827448929.818602830549935,7.726783382404392,1.568041720949623,15.461212063002677,2.435374439790394,23.18243256687856.884586188378307,7.874810848152265,1.92719863910861,15.731882701409631,2.81068315282937,23.606796023641436.724956824700712,6.46190557753107,1.268532616330049,12.944064424658791,1.982022508480441,19.407360721821533.886917639389139,8.034216596368424,2.024596194869446,16.044586010821149,2.718255943189433,24.094188358072643.239623387909887,2.78066339022007,1.469948755939186,5.634471313542235.144198598389266,8.46908730593168-.85467261040867,1.247826850221827-2.258195142618206,1.424989892271697-3.549614043429756,1.698258980519313-5.518562857980214,1.167721399377115-11.141316322100465,1.578335030719245-16.735770289718857,2.189021980164398-.642082342150388.070077630334708-1.270208918640492.002957109112685-1.796666662541611-.438911116078089-.21748009330986-1.051427959775538.559427462530948-1.472698895249778,1.284644150680833-1.725268219699501,1.993218597430314-.694174044871033,2.021576654700766-2.221447706337131,1.823655861589941-3.894219919693569-.740263148320082-6.256606081436985-1.418192007369726-12.520231637230609-2.105937117010399-18.782693380278943-1.523213444559588-13.869976277799651-3.035538244259442-27.741614099579238-4.630107998140375-41.603059410366768-.746241837859998-6.487008066900671-1.012618351689525-13.041934488916013-2.459270897699753-19.442187269256465,3.888377170280364-7.737426047384361,9.436919487110572-13.994564628050284,16.698163289411241-18.724570449105158Z" fill="none" stroke="#181818" stroke-linecap="round" stroke-linejoin="round" stroke-width="40"/>
        <path d="M84.006891477609315,93.25916845269785c2.178548823030724,1.589094808929076,1.424302458670354,4.072462599353457,1.725110880570355,6.154377209069935.781497256901275,5.408761176942789,1.285872097019819,10.857930078795107,1.880489097700774,16.293202763683439.526148469778491,4.809415912082841,1.005527007349883,9.623992125958466,1.540955530590509,14.432346699373738.5875293163881,5.276236575313305,1.241023690359725,10.545182851921709,1.818586694158512,15.822458807171643.543641672511512,4.967350425316909,1.018298747259905,9.94221073664994,1.53730463203101,14.912298683768313.469331703900025,4.494410595700174.809280686518832,9.009916212356984,1.503529702689775,13.469866239473049.320199359870458,2.056976810828928-.464123454619767,2.777823394339066-2.177373947401065,3.163272319903626-.70023685581873.157531936500163-1.425933010359586.312150681345884-1.729014322500007,1.106763962005061-1.443120599018584.984600221636356-3.138098298699333.951135115528814-4.761836810628665,1.082404409700757-1.399026162400332.113102104021891-2.356703523169926.689269928268914-3.054316124080287,1.886298914012514-.913462142540084,1.567414221812214-1.852226201690428,3.120687020835248-2.78092512693911,4.679405585155109-.445645698790031.747972935923826-.761926976541872,1.827361679894238-2.052641317970483,1.369785642431452-.185575448869713-2.911844849468253-.386814076109658-5.80866992690062-.83915034391066-8.709066957919276-.604577823200088-3.876579739087902-1.562015450779654-7.630995737810736-2.796167399719707-11.334650469938424.555813164450228-6.980519567714509,1.112230236920368-13.960987898391977,1.667230870549247-20.941573342301126.39648575477986-4.986827819750033.604742525390975-9.997092925101242,1.224516870759544-14.9559672802352,1.374037179941297-10.993726531349239.703519919501559-22.289528346285806,4.744962156131805-32.896583582709354.724272395589651-1.900901470156896,1.316164490019219-3.866284754018125,2.548738957968453-5.534639602645257Z" fill="none" stroke="#181818" stroke-linecap="round" stroke-linejoin="round" stroke-width="40"/>
        <path d="M73.82144079218051,167.587932260588786c1.286604106750019.691656110377153,1.386819900009868,2.067758547771518,1.764319152189273,3.230707582933974,1.316164490021038,4.054723604460378,1.533840395939478,8.339018422391746,2.500045670160034,12.470992842658234.35579333341957,1.521535113088248-.588976865639779,2.93289595295937-.44670711290928,4.444754585236296.706887164300497,1.022823052804597-.110132695181164,1.785684008375028-.463188312171042,2.616265690481669-.365139267749328.85901091922824-1.169868683729874,1.511990384662568-1.231158029109793,2.70912184448207,1.370646144830971.337710644280378,2.813644132220361-.529820262592693,4.138417056770777.144166388870872,2.774293118700371,1.276036500034024,2.909184213269327,4.26075505825429,4.080862791070103,6.521303945000909,2.206209641019086,4.256465786123954,4.241337625999222,8.592085478079753,7.315522324408448,12.324469549988862,1.225384302300881,1.487747945589945,2.184745285470854,3.144446367823548,3.120107329361417,4.81860930080984.267739881959642.479212707117767.698835057179167.944196156518956.047518412169666,1.454297478638182-3.220506125040629.841429295240232-6.400045325059182,2.052263003230109-9.817418149190416,1.067618864131873-.953144390459784-.000175669849341-1.912512693730605-.070970618729916-2.858304046369085.012326167690844-3.241582515440314.28552206016866-5.586544602399954-1.203074956354612-7.641047055130912-3.542587439931594-5.064667409438698-5.767299677618212-9.716093818689842-11.846413336039404-14.035674135619047-18.18516703030582,1.600289952468302-4.055792262703108,4.400004854378494-7.378499609130813,6.872767606579146-10.866644035229911,3.674735553029677-5.183651245662986,6.156965936181223-10.679423894362117,6.181102127289705-17.135393294935056.002600464589705-.695528166615986.307929046630306-1.389921798796422.472834370501005-2.084842440521243Z" fill="none" stroke="#181818" stroke-linecap="round" stroke-linejoin="round" stroke-width="40"/>
        <path d="M138.084806320599455,214.114962623096289c6.269619489910838-.203747745767032,12.466945698040945-1.141122056507811,18.689694604390752-1.826351578267349,4.964263123669298-.546655289725095,9.939074507679834-.997307007333802,14.903652395549216-1.541297971027234,5.274532771451049-.577968440191398,10.539615297169803-1.242146858458,15.81419930930133-1.819661484874814,4.964548607469624-.543581067380728,9.936915078958918-1.015137496940952,14.90428924401931-1.533378188698407,5.044220547420991-.526262948164003,10.093418761060093-1.016864917115527,15.123028394089488-1.659465222342988.859672236929327-.109822933520263,1.542769084730025-.075333086630053,2.264530686919898.295242458443681-2.233947320039078,1.338882388276033-4.794561306000105.995887009392391-7.201541088030353,1.271571558054347-16.378000530008649,1.875714805650205-32.766154035100044,3.666624992014476-49.162835453649677,5.371237365381603-2.273724729229798.236363780941247-2.137080471338777,2.297439554899029-3.273547550688818,3.358148738328964-.623745498200151.626043422022121-1.444687099870862.569536287472147-2.228911093041461.649905243088142-3.354405346410203.34374197573743-6.506431960418922,1.447519550320067-9.601881541730108,2.688363524070155-1.977011901819424.792534520785921-2.130821788079629,1.684205392652075-1.057388067300053,3.521550975592618.590622057530709,1.010936059734377,2.08216510074999,1.67171819426585,1.39079654291163,3.240347465864033-1.615150207680927.918006709962356-3.356908819720047,1.391246642235274-5.207312317161268,1.482346097754998-.508915130520109-.030610471072578-1.018020583569523-.061367333688395-1.527126036618938-.092138835454534-1.063112383460975-.750710457727109-1.822821370489692-1.776798041881193-2.562509891180525-2.821345599264532-1.886747780950827-2.664296754848692-1.59454413352978-4.536337132836707.9818227020005-6.578645511330251,1.530837325990433-1.21351267317732,3.366754350699921-1.811170775539722,5.478858649759786-2.785011218964428-7.044839763300843.705738976550492-13.693420694840825,1.397848900702229-20.342806837090393,2.109399621404009-.685051313799704.07612360094754-1.352929679140288.088508325254224-1.866632153340106-.485712491507002.292262208200555-1.431767820586174,1.521731124839789-1.37782253799196,2.565642892850519-1.618636621758924,3.920980884040546-.904494770793463,7.961476998079888-.647782565753005,11.915976608039273-1.226468324492089Z" fill="none" stroke="#181818" stroke-linecap="round" stroke-linejoin="round" stroke-width="40"/>
        <path d="M148.648892703340607,226.131175506709042c-.166158890549923-1.562597940139312-1.672122525631494-2.220452243864202-2.34980982146044-3.472480531290785-.91880398360081-1.697453827047866-.759789508099857-2.869200993782215,1.068214491340768-3.586212118936601,4.113331083019148-1.61339580461572,8.224019610899632-3.270328453312686,12.778986809369599-3.041474558387563-2.56666038639014,4.807439626287305-6.326869971549968,8.256395037054972-11.497391479249927,10.100167208614948Z" fill="none" stroke="#181818" stroke-linecap="round" stroke-linejoin="round" stroke-width="40"/>
        <path d="M123.704079721970629,216.959306333337736c.633312865478729.006470506081314,1.266633051058307.012926373006849,1.899945916538854.019396879088163,1.481792673510427-.509940291423845,2.824525456981064-.309720581777583,3.852142688230742.928122365396121,2.269742596248761,2.734081602102378,4.433204698560075,5.557754826855671,7.28004181237884,7.756965658225454.533891302791744.412443525592607,1.077188930730699.977119613928153.850082909350022,1.819749319798575-.340223486269679.04520570763998-.680439652449422.09041141527814-1.020780260278116.13571959699766-6.825515005441048-.965993856869318-12.140586476210956-4.308595813619831-15.898058344952005-10.102070298638864.884589848430551-.88051583649758,1.858506845252123-1.274865367711755,3.036625278731663-.557883520867108Z" fill="none" stroke="#181818" stroke-linecap="round" stroke-linejoin="round" stroke-width="40"/>
        <path d="M84.829761924929699,219.390240333821566c3.357684750049884-.482199094540192,6.715369500090674-.964398189078565,10.073054250129644-1.446597283618758.491108993630405-.599810058001822,1.196253974751016-.822705817237875,1.900992690470957-.908740125461918,4.986984705959912-.608930250962658,9.951427172029071-1.407832803750352,14.964537305550039-1.798171206761253.484725868709575-.037769017393657.95848989158003-.02274924536141,1.357658462049585.313029030587131,1.121717083129624.003718345122252,2.243434166250154.007436690246323,3.365151249370683.011140396214614-.106112131690679,1.266930946228968-1.267562703429576,1.152584514113187-2.035682482350239,1.526922321771053-1.188403170310266.579110294207567-2.569573785160173.643507932778448-3.717573677940891,1.347299901843144-8.172658147599577.960430978337172-16.344825848669643,1.925063393880919-24.518494169698897,2.876842632185799-1.254331627409556.146069478894788-2.515558786550173.232938218900017-3.77358706314044.347167537782298.884968663469408-.6614408964615,1.876472194260714-1.210906903761497,2.383943435559559-2.26889320454211Z" fill="none" stroke="#181818" stroke-linecap="round" stroke-linejoin="round" stroke-width="40"/>
        <path d="M110.737899722209477,218.43512336839558c1.394357770281204-2.005666575958458,4.043380232409618-1.50038153551759,5.753307400980702-2.874310058537958,4.800087979519958-.484102184562289,9.563282668210377-1.336261979706251,14.401156990439631-1.445499347064469,2.397514896110806-.0001171132335,4.794934630959688-.000248865619142,7.192405606490865-.000380618004783-3.009643399771448.942541932112363-6.211534517160544.709149899439581-9.235993794030946,1.475612086900583-1.717082563758595.435134214338177-3.698501164199115-.068511240851876-5.144937767339798,1.369068323883766-1.011820461078969.185683029694701-2.023882485369541.371658842472243-3.036164112590996.557605376938227-3.310071176598285.305943680039491-6.61992275027842.611931277539043-9.929774323949459.917904235884635Z" fill="none" stroke="#181818" stroke-linecap="round" stroke-linejoin="round" stroke-width="40"/>
        <path d="M137.586293048469088,227.483540555846048c-3.022109525609267-3.061881539102615-6.269121723278658-5.915038020071734-8.779278277959747-9.452135777242802-.809785773239128-1.141078139045931-2.010574548328805-1.081394308072049-3.202981811899008-1.052584452945666,1.495137211039037-1.050652084612011,3.245013811079843-.43182576552681,4.858377914999437-.653111217819969,5.553179598520728-.761719101556082,11.148061791829605-1.219353695636528,17.133749344360695-1.834666617753101-1.13212626161112,1.534300455399716-2.523698734839854,1.89293045078557-3.757969635360496,2.403090329520637-.891229176759225.368350393659057-1.724226978809384.770546511434077-2.52108546008094,1.314596031743349-3.222431310648972,2.200089180609211-3.369653109259161,3.307760770163441-1.134644375099015,6.531565991974276.612487188420346.883458306456305,1.679032697549701,1.537345399439801,1.732037522710016,2.781322152150096-1.442761914240691-.012838538081269-2.885487228009879-.025457488854954-4.328205221670942-.038076439626821Z" fill="none" stroke="#181818" stroke-linecap="round" stroke-linejoin="round" stroke-width="40"/>
        <path d="M80.03318942217993,193.491380984598436c-.860054712009514.042058289523993-1.737705108120281-.007934421482787-2.575199279990557.152144727817358-.832088279959862.159039769363517-1.853154024029209.765554559911834-2.3744016886194-.043551483235206-.482804343140742-.749392933863419.392088206270273-1.600557266532633.818621130791144-2.304495627140568.691128824659245-1.140624325269528,1.49095011533791-2.209546074111131,1.736844996677974-3.561149887238571,1.951367770650904-2.016689858943209,2.839870211129892-4.706429463492896,4.397308771011012-6.977474623678063.574334840850497-.837506001960719,1.131321050899714-1.531504376982411,2.175496342420956-1.631094541835409,1.963305019467953-.187220140869613,3.929605788778645-.343068574655263,5.894642011269752-.511975133835222,7.390875406899795-.892271077180339,14.890234657050314-1.071293291792244,22.069453108098969-3.355557608065283.308362762400066.072727317212411.61786379995101.140931135831124.92490528476992.218855352724859,4.656321266869782,1.181599317395012,4.683965614651243,1.255570962701313,4.847840634811291,6.096958787180483.056035345489363,1.655454094139714.316180626417918,3.303310467339543.458856644549087,4.956729719069699.117714486050318,1.364149568129505-.415935253529824,2.274748866153459-1.801739490019827,2.687997545219332-.753973690731073.224842766721849-1.500513822569701.5688482472342-2.158945602230233.999063705818116-1.164433511419702.760811474005095-1.820899844929954,1.535442309414066-1.480844720899768,3.301348820697967.669854791640319,3.478482584441736.897575701190362,7.05798997083366,1.08305232874045,10.607472452313232.099271500688701,1.899737657411606.967208127560298,3.352454107411177,2.004506187589868,4.738533128276686,2.708271330369826,3.618915989036395,3.488022744038972,4.903926290489835-2.912018920980699,6.206986668858008-1.10973042365913.580149674144195-1.638698960960028-.24743098138606-2.102364909489552-.9613532450403-2.872197591210352-4.422371318725709-5.574041876059709-8.94503548170178-7.566744406629368-13.845272705373645-.663581468161283-1.631826499538874-1.025776226741073-3.359334509807013-1.077573235841555-5.133321834113303-.049260595349551-1.68716250176476-.947249882039614-2.317524474225138-2.586856535079278-2.445558515357334-5.047529231429507-.394129943904773-10.030173119639585.240682331379503-15.02317128561117.764280953511843-1.58453756039853.166139759066937-3.163914452148674.456229235292994-4.751667365339017.04043334342532Z" fill="none" stroke="#181818" stroke-linecap="round" stroke-linejoin="round" stroke-width="40"/>
        <path d="M80.03318942217993,193.491380984598436c1.838537619580165-.946172442312673,3.908108492791143-.63526608905886,5.834419570090176-.848470728327811,4.846889022150208-.536481077675489,9.726557440390025-1.07091267378928,14.639272438280386-.623408374296559,1.481957375699494.134987639296014,2.575169999608988.571951747886487,2.525525099139486,2.182829618010146-.167092202960703,5.421844920856529,2.904138836149286,9.648768894152454,5.162191236880972,14.160980701150038.954899383808879,1.908140531822937,2.264585587639885,3.636234108251301,3.355430160048854,5.480240506276459.38636572014002.653096578666009.74299720469935,1.227449147812877,1.591458712480744,1.228634919289107-.004231016291669.159230078366818-.009344104310003.318430878423897-.015368544460216.477587761020914-4.748759456650077.640199483967081-9.496819844009224,1.284790714142218-14.24642843195943,1.917817012636078-1.32324302419147.176343249424463-2.65105744920038.318416239269936-3.976825906980594.476123845617622-2.555537498419653-3.670138388981286-5.340000062420586-7.205625839209461-7.599840396929721-11.049472429891466-2.110806811801012-3.590354999525516-4.288689505970979-7.202419864475814-5.462637313959931-11.29252630422161-.232381981570143-.809633052691424-1.186117469900637-1.412253828268149-1.807196622630727-2.110336527262916Z" fill="none" stroke="#181818" stroke-linecap="round" stroke-linejoin="round" stroke-width="40"/>
      </g>
      <g>
        <path d="M132.336743769399618,65.396468420469319c23.91654426146124,1.233292915112543,41.31817256964132,15.270983575983337,48.460369628170156,38.6755927536542,5.53394970267982,18.134457000753173,11.416321400709421,36.162648382412954,17.15359412836915,54.234969493891185,1.460710793040562,4.601254461376811,4.137201920601001,8.391887727164431,7.685941212401303,11.640689304478656,3.117248831318648,2.853793284168205,6.205627198560251,5.748115066262471,9.162683018710595,8.765713164431872,4.193669151829454,4.279581010334368,6.154752521739283,9.594164849626395,6.752438473238726,15.48302806229367.204743123869775,2.017290064257395.096317841400378,4.091467881071367.96177295526104,6.005361600426113v2.87817479520163c-.33119048610024.599107378609915-.461824944040927,1.377515115758797-1.33357534165043,1.497321952327184-9.40795020169935,1.003514008642014-18.813777575160202,2.038399724366172-28.213895272660011,3.107482503901338-9.241242303849504,1.051003424310693-18.49264490286987,2.02027645167982-27.728009168520657,3.13037814080235-2.595252686778622.311960372344402-5.197957232699991.863226995588775-7.846668590680565.626087339484002-1.595678748628416-.049319309922794-3.195046826338512.02971748267737-4.789459198118493-.05706342240228-3.11985478600036-.169858104191007-4.333490331990106-1.165686556967557-4.778698654959953-4.252879193387344-.751788641669918-5.213119862721214-1.2164391432907-10.462998641207378-1.797867158511508-15.697740534427794-.352030803349408-3.169362207980157-.696397464738766-3.575862237039473-3.884460918179684-4.070914508814894-.789150418710051-.12255899752563-1.570644015569997-.294905757900779-2.361887982138796-.399004782195334-1.952555456451591-.256873235735839-3.014891909590006-1.422369483700095-3.20002449256026-3.311215610514409-.233437905610117-2.381629329714997-.655426879680817-4.743554358108668-.69898145911975-7.146922831556367-.025774062889468-1.422135257236732.437163535949367-2.599159838999185,1.75085017299898-3.128196906851372,2.165079843840431-.871893374773208,2.380019863361667-2.495909885637957,2.133815707900794-4.48319700371394-.961355709700001-7.759754417065778-1.704367554601049-15.544036736708222-2.565467210519273-23.315026704491174-1.537893899861956-13.878686574444146-3.12243878037043-27.752359238633289-4.604275374460485-41.637066165172655-.412341085710068-3.863678984600483-1.439321468480557-7.723255346285441-.433459566671445-11.648089396840078.078991170881636-.30820176954694.058838942790317-.652426837368694.18541074667155-.937729310227951,3.23691046328895-7.296688696840647.582035583298421-14.634002876005979.154856660188671-21.953709812663874-.070236334409856-1.203612945268105-.836262565488141-1.823090706708172-1.951333000190061-2.120499759947052-1.065169330819117-.284098402438758-2.237600048629247-.331251117564534-3.036896122328471-1.26691722202122-.144937928231229-.294979868618611-.102693646211264-.55975550268704.124141531559872-.797103766737564,1.596425398558495-.719364369162577,3.167845344458328-.793475086431499,4.699085275799007.178477821073102Z" fill="#fbb84b" stroke-width="0"/>
        <path d="M82.445829469519595,221.659104260055756c-5.54136496134015.649100089616695-11.081684978769772,1.307291093884487-16.624416053289679,1.944504190429143-4.726129375580058.543346840915547-6.290767708749627-.758644879209896-7.070472342429639-5.469597841296491-.433246140080882-2.61767104926912-.091287104469302-5.363054078279674-1.264484259350866-7.858576026335868v-4.317262192802445c1.046532706010112-1.849847420482547.848599331491641-4.063389983644811,1.74261186090007-5.958691977382841.363655346760424-.770927129440679.710917335420163-1.549569093054743,1.065634157010209-2.324712298854138,1.128297850669696.264002503747179,1.645831938350966,1.209003813737581,2.209832631720928,2.058133303997238,3.753909726348866,5.651767474026201,8.069960841328793,10.856074566021562,12.527435322779638,15.957278096197115,1.858157310589377,2.126512792461654,4.044988823809035,3.26833752836319,6.898287753589102,3.122092379620881.940010305739634-.048192095060585,1.921542033860533-.146669684208973,2.800475277030273.379300480874008.472642217950124,1.964047461056907-1.073245228259111,2.061017217340122-2.284904347960037,2.467531885553399Z" fill="#d07f44" stroke-width="0"/>
        <path d="M117.036872802629659,66.842879969821297c-.185729170909326-1.569819617810936-.423617695740177-3.135521973550567-.547942229730324-4.710188066290357-.478533066319869-6.061188929259515,1.016849367990289-8.298866653942241,6.72052284864003-10.156871056797172h1.439189706730758c1.356355484709638.486734944921409,2.785450777138976.814025142004539,3.91958274542958,1.787871875692872.261444598210801.776490007971006-.247280209769087,1.220389187046749-.784582677939397,1.530514632928316-2.723983919409875,1.572248344957188-3.677499804811305,4.175674582409556-4.196282426599282,7.049506123599713-.491251735531478,1.77763979323754.327420635938324,4.301563530003477-2.648396593800499,4.668500330353709-1.29948564813094-.066990598728808-2.649791072350126.970735112878174-3.902091372730865-.169333839487081Z" fill="#f8a731" stroke-width="0"/>
        <path d="M136.641890684310056,228.024179153266232c-.030729768819583-.133933620205426-.056225668020488-.26887734203774-.076487697580887-.404801887190843.255237155630311-.392182936418976.648890032720374-.552188889949321,1.080827019130083-.650593283327908,1.420589339271828-.18083746971206,2.845212052201532-.12854641152262,4.271328064991394-.054516209600479.593550096489707.047064880200196,1.152073526989625.171570885211622,1.524212637859819.699400222856639-.035751355630055.135236504913337-.063633606570875.272068677617426-.08366139302052.41051115726259h-6.716218631379888Z" fill="#e7ab91" stroke-width="0"/>
        <path d="M123.20552252924972,62.058819072515689c.219200316199931-3.08395738337822,1.323012441120227-5.652437672795713,4.216654257619666-7.153232993152415.515064012321091-.26714077239194.917281403349989-.607033108095493,1.145997846149839-1.141846923368576,1.648105286101782,1.204817473158982,2.803297174570616,2.698590803052866,2.84174964614067,4.846987758368414.472900251379542,1.541606765682445-.758515811159668,1.432018058625545-1.620837923339423,1.657954187163341-2.882200504289358.755164420341316-3.605770170530377,2.401216517804642-2.25570264947055,5.158389555492249-.002635235059643.153433888317522-.00494838584018.306873266319599-.006946772418814.460317219054559-1.275102403740675.988800743896718-2.747576593272242,1.017213511971931-3.881291316010902.084897028946216-1.218759614170267-1.002247721819003-.726182941010848-2.54975635394112-.439623088670487-3.913465832503789Z" fill="#fac13f" stroke-width="0"/>
        <path d="M127.533383706349923,65.427070657018703c-1.843749528919943.070192913672145-1.534636456530279-1.301766643133305-1.403797035869502-2.317971883370774.226139768519715-1.756523728497996,1.048486828878595-3.144605568622865,3.012051711799359-3.450821902904863.858823105631018-.133933620205426,2.017638442310272.399072488284219,2.268095574339895-1.047324879385997.309156992969292,2.261727796118066.618123663409278,4.523680211757892.927046413269636,6.78557498572809-1.601154181478705.010142188901227-3.202279082559471.020342934416476-4.803396663539388.030543679933544Z" fill="#fcd54c" stroke-width="0"/>
        <path d="M123.20552252924972,62.058819072515689q.011616994550423,3.832027303697032,4.320921724771324,3.82856422882287c5.77040348843002,1.526867424941884,5.816871466628072,1.523802352068742,6.21121243287962,7.501386157726301.183192757160214,2.777058498539191.639037181628737,5.514574812154024.916527433309966,8.272219962558665.253919538099581,2.523506520876253.151343013438236,5.029264897384564-.943758195591727,7.498853584078461-1.767649796498517,3.986259940858872-1.287004882078691,8.220038698027565-.775366675337864,12.412344731832491.614419694129538,5.034551461882074,1.198277981678984,10.072854206986449,1.786074481618925,15.110618963179149.615320066110144,5.273630805897483,1.237015937040269,10.546617489017081,1.823560700329836,15.823476228377331.534535471360869,4.808954778729458,1.012384108580591,9.624189754538747,1.539526281580038,14.433993604201532.595753445801165,5.435817993376986,1.236803654219329,10.866717230999711,1.821928318609935,16.303655119660107.288880323219928,2.68428651967406.493652727469453,5.377590758229417.742016311660336,8.066298302419455.082717100449372.895389216988406-.289897816750454,1.515306153049096-1.066984714980208,1.950586758928694-3.163233683100771,1.771864646972972-3.52741584810974,2.572860598786065-2.860181651349194,6.264094008722168.09868223284866.545981888641109.322106245250325,1.074587101449652.377790226059005,1.622398884344875q.530121452640742,5.215301096670373,5.784275072970559,5.620351849480357c3.010141166379981.231371829417185,3.573342139110537.965949939405618,3.859396904730602,4.006458313628173.549468470029751,5.840144108062304,1.244672758908564,11.666834833571556,1.909601124989422,17.495692153879645.243627481180738,2.135720820346251,2.033471812948846,2.275144123312202,3.576445860409876,2.439263679123542,1.660168806589354.176606754197564,3.35332929210017.042980556227121,5.03209846613936.044737254711436.017824437130912.899576015041021-.705481705599595,1.024799338600133-1.299346566269378,1.071747105566828-5.450119947430721.430947416287381-10.846239536449502,1.438194409207426-16.326401163549235,1.534754269177938-.557871941829944-.011008643828973-1.117010260510142-.011491735913296-1.675475130221457-.030478718686936-3.343630163069975-.113614474414135-4.492285204569271-1.213893291183922-4.861774440189038-4.616471861989339-.594369947390078-5.473550412885743-1.210092618861381-10.944919591818689-1.811614301401278-16.417430624767803-.224961232839632-2.046568372314141-1.023276413478015-3.220350381459866-3.138740637248702-3.510527692609685-2.706305884210451-.371205028697659-4.255582535510257-1.797673475526608-4.391282500841044-4.743539718954707-.076268094659099-1.655468733293674-.292708734148619-3.333511042099417-.533964503769312-4.993591108912369-.377929307900558-2.600616434825497.02943411158958-3.74200199610641,2.520807296370549-4.777802658956716,2.848689098460454-1.184358797932873,3.342539468558243-3.052322171522974,3.007996377858944-5.853758521308919-1.968008182040649-16.479859297123767-3.711289374339685-32.985776288416673-5.566377734110574-49.478905978665352-1.551736204019107-13.796048549955231-2.98723658165909-27.60495393693418-4.526060133899591-41.402508489860338-.212260863878328-1.903155899875856-.414430973509297-3.807720818327653-.625176577239472-5.710754115287273-.401382899919554-3.624449589258802-.338082357789972-3.814145577052841,2.777124166370413-5.453709784442253,1.367299030300273.081753270618719,1.951523322719368-.55889087765172,1.939906328168945-1.927732294649104-.006815010659921-.80336292003085-.323094458388368-1.713317180330705.455295417170419-2.384283591329222Z" fill="#f6b047" stroke-width="0"/>
        <path d="M143.359888099359523,82.1986617604598c4.240320132459601-.871016855426205,8.380691655231203-1.113607766512359,12.001855990560216,1.908477232364021-.999647139129593,3.514612016584579.039909170949613,6.973789216652222.417494434270338,10.417679480124207,1.710897081478834,15.604895359792863,3.349259317948963,31.218175295052788,5.136483054860946,46.814224946025206,1.079092156049228,9.416518715490383,1.782648676038662,18.879860765142439,3.367735243758943,28.236454103618598.040882743889597.241326454157388-.028233615619683.474293951363506-.076092412320577.70916453859536-.50330793592002.842820014871904-1.401776688988321.956214901976637-2.22481915860044,1.212619684782112-2.415383253839536.148821639852031-4.792079792980076.845908876373869-7.24377072984862.543581067380728-3.559799958940857-.895769834995008-3.657274375729685-.883846244038068-4.103002425610612-4.527765908154834-1.318305618509839-10.77732323692544-2.441911286759932-21.577388399635311-3.648146214289227-32.36779904026298-1.720625490901512-15.391928606775764-3.386079407800935-30.790020297397859-5.082058130799851-46.184704724921176-.14925678569125-1.354828086801717-.234865324609927-2.700971495476551-.187299331801114-4.062112717454511.042698128050688-1.221677661336798.506638580231083-2.157017129669839,1.641619679819996-2.699818662096732Z" fill="#fcd25b" stroke-width="0"/>
        <path d="M143.359888099359523,82.1986617604598c-1.453522457410145,1.541876217610479-1.090635949629359,3.486446284232443-.913709195829142,5.242434768661042.667014593840577,6.62022802834872,1.550264864450583,13.218314336227195,2.278555993500049,19.832836754292657.711491505559025,6.462019030974261,1.288710464779797,12.938856545613817,2.005853085520357,19.400198515713782.716513092369496,6.455764452415679,1.566859525219115,12.896611606876832,2.295414177779094,19.351117092046479.560280253870587,4.963697956385658,1.010824927840076,9.939678163003919,1.533018715010257,14.907797143905555.306565678500192,2.916595254950153.573514989939213,5.841476271079955,1.01931624081044,8.737847534737739.286442730779527,1.86095853839106,2.214556382059527,1.111873026760804,3.29178191327992,1.75144302710396.035875797279004.466659632538722-.217275130591588.803923782619677-.626424653841241.86859956511762-3.578180723488913.565598355038674-7.153565169768626,1.28029649385644-10.794347366088914.49965628571772-.242068300431129-.051903120607676-.391120123389555-.257597873858685-.56921077268089-.411308991157057-1.001535724250061-3.207870502650621-.972606699378957-6.568837278129649-1.404536365700551-9.856923025279684-.887327564849329-6.754813090907192-1.590671802019642-13.53413944523345-2.337658459789964-20.306914778133432-.539000730768748-4.887003428431854-1.006066864538298-9.781926639192534-1.541985834308434-14.66928140732125-.5613709483805-5.119597627211988-1.288000415330316-10.22411692577225-1.722323753490855-15.353859486725923-.555610031738979-6.562267957760923-1.922396655229022-13.060244410817177-1.627352810019147-19.690932114717725.207532080979945-4.663942978713749,4.071811490659456-9.41625155093061,9.113609085849021-10.302710883961481Z" fill="#fac251" stroke-width="0"/>
        <path d="M163.992482951740385,170.454849546342302c-1.500788326220572-3.833174647394117-1.33842856622141-7.937678695127033-1.89352619113015-11.920114156993804-.732441624280909-5.254680421006924-1.270659104629885-10.537241110861942-1.843566526489667-15.813119026901404-.547843408410699-5.044930622088941-1.009016863779834-10.09923762233484-1.552746377459698-15.144636697352325-.551745020320595-5.11991968860093-1.168668187761796-10.232768665804542-1.737117670301814-15.350935315707829-.551225293409516-4.963024555301672-1.071142530297948-9.929518590108273-1.616123780630005-14.893242165013362-.397671610549878-3.622114644191242-.702546346548843-7.260028595366748-1.278616050478377-10.854065342131435-.217282450690618-1.355658858794413.199472653748671-1.939080383863256,1.290847933209079-2.371499035127272,2.632145977600885,1.309362534178945,4.319355223940875,3.451213500275117,5.301880655280911,6.16090261197678,1.972136716960449,5.438899535300152,4.298244063078528,10.754112858214285,5.75431391436905,16.374369553193901-.744424623690065,2.952874738421087-.035839196800225,5.877020137060754.295673373590034,8.77968257716384,1.72644496832072,15.116266016844747,3.350027928170675,30.244053047910711,5.027018318560295,45.365611118937522.323680066179804,2.918688653975551.914741329559547,5.810543738618435.995379522350049,8.758159360953869-2.785114052659992,1.542227557307342-5.69945710455977,1.850037729484029-8.743417120869708.90888651700152Z" fill="#fcda61" stroke-width="0"/>
        <path d="M172.626062011349859,169.493935475922626c-1.277744958899348-1.967019209323553-1.139644001619672-4.269260406743342-1.40909678637945-6.440839834884173-.867526701420502-6.991506252812542-1.611570680050136-13.998705678744955-2.361844061550073-21.004280158580514-.691719922520861-6.458838674761864-1.307976961101303-12.925743523392157-1.999243037580527-19.384633435192882-.497268855579023-4.646218622974629-1.294983788229729-9.262434299767847-1.414960184380107-13.944998282404413-.020649994719861-.806024501223874-.35115239166953-1.859911838877451.976581512270059-2.076465184629342,2.537072552759128,6.758509477298503,5.105211598829555,13.505673610225131,7.598861333901368,20.280249559069489,1.508708671599379,4.098743540624127,2.901979407419276,8.239969906235274,4.347113033218193,12.362106814995059-.708314583289393,3.274551849250201.091852581990679,6.492889347031451.463018119909975,9.70652767636966.729491625041192,6.316063005524484,1.154006032700636,12.670209770252768,2.263996319810758,18.940964594057732.042441924639206.239818621292216-.068867476200467.467794166976091-.141087556999992.696538268244694-2.649992375030706,1.482038675520016-5.406221323410136,1.949832842496107-8.323338692220204.864829982954689Z" fill="#fde366" stroke-width="0"/>
        <path d="M142.880136236819453,172.379283456599296c4.023359766069916.015224720189508,8.050730945500618.080764212774739,11.990012072999889-.956968818409223,2.398605590620718-.159954716489665,4.797233141540346-.319931391712089,7.195868012549909-.479908066932694,3.542912494280245.02493779888573,3.625585674151807.101698203034175,4.2353644265404,3.595163961623257.150391400780791.861616688645881.28832399581006,1.72641007371567.27541134402054,2.597834995560333-.035121827249895,2.369844810722498.962197520899281,4.363170579836151,2.208883306589996,6.274780591162198-3.36045906695108.948104810646328-6.860417229769155.927961334704378-10.288060150529418,1.351311030048237-3.674549805560673.453828414032614-7.397309772490189.777500109597895-11.138003978030611.594276457781234-3.297352507390315-.161499147241557-3.656901050759188-.431342673446125-4.026382966279925-3.716442033173735-.228709122709915-2.033480968611912-.658091395129304-4.045676607269343-.852374099829831-6.081236335754511-.100556177791077-1.053594554572555-.483558313180765-2.218124618373622.399282031969051-3.178811781905097Z" fill="#f9c147" stroke-width="0"/>
        <path d="M168.785675399520187,183.410186119603168c-2.699900798999806-1.000395868832129-2.475993660180393-3.48968153727219-2.869324452980436-5.658296536721537-.055793782270484-.307583265288486-.004633621649191-.633728977885767-.011909798449778-.951091198066933-.095483350291033-4.16071107962307-.3756307973199-4.587574171935557-3.838410185529938-5.858413772288259.599186571480459-.33199405463165,1.226467676709944-.553045280459628,1.926378788200964-.487469189989497,2.887368493049507-.235207287774756,5.787957081958666-.350944439522209,8.633601019899288-.960884792111756,2.759669394150478.037520151774515,5.466809769470274-.371351420237261,8.153021986359818-.958286342272913.728188647690331-.60559984342035,1.534380253129711-.633824132386508,2.387186238700451-.326987463953628,1.132009140048467.580537611724139,1.835909704619553,1.523752944924126,2.042307170499043,2.751956009169589.586105557440533,3.487719890634253,1.095028008059671,6.987722031497469,1.326284524649964,10.521321030855688-4.041938173229937.482872495625998-8.081702277529985.985039396258799-12.126773452439011,1.440024303459722-1.868776941881151.210188973538607-3.747919141649618.328283029086379-5.622361838910365.488127951919523Z" fill="#fcd24e" stroke-width="0"/>
        <path d="M186.534810690869563,181.482033864223922c-1.261809106879809-2.197981142429853-1.19755329203872-4.669641269418207-1.430127426159743-7.072497372475482-.204055034710109-2.108213849927779-.311323741789238-4.227912116190055-1.931510176469601-5.860719439047898,1.444401616068717-1.662546764267972,3.55509313633047-.914434756379706,5.306426435759931-1.466462615633645,1.020070210830454.643676283047171,2.117089285378825.65547544119363,3.210448311228902.293280811802106,1.941406948140866-.643127314771846,3.447414503791151-.215773810799874,4.891435474790342,1.326365911583707,2.879609189811163,3.075298323770767,5.940288308549498,5.980614110541865,8.902687799791238,8.979356978321448.41436143258943.419441041218306,1.226365195339895.779652065239134.907487113039679,1.502313903849426-.312128952509738.707349283495205-1.131174648950036.326950866068728-1.727396580979985.390484794550503-6.042286545509342.644078859784713-12.086081031080539,1.273987018470507-18.129450951000763,1.907877027049835Z" fill="#fdda52" stroke-width="0"/>
        <path d="M188.47959952400015,167.082354437066897c-.609280985770965,1.296179975975974-1.803862318271058.873503681716102-2.832628804799242.993786290790013-.831636263941618.097233261056317-1.649671786930412.310635528903731-2.473768350570026.472588489918053-.798080937520353-.004223395935696-1.596147234860837-.008534626796973-2.394184251801562-.01291173385107-1.46552009701918-3.416888343868777-1.20921420716877-7.118376481201267-1.681755773779514-10.688500169859253-.723862470140375-5.468858564019683-1.156860870680248-10.977147689414778-1.652782828328782-16.474157346628999-.069533605070319-.770670944246376-.413461060610643-1.851296696731879.919140708079794-2.08815088933261,3.355971847258843,9.271620368919685,7.081974617340165,18.408582479509278,10.115979301199332,27.797345358963867Z" fill="#fdeb6c" stroke-width="0"/>
        <path d="M139.512181390149635,212.67171770575078c5.951414856561314-.313614596749176,11.879017436340291-.847607018240524,17.748542363460729-1.917890208405879,5.943640913148556-.176665310813405,11.807448844199826-1.123291566902481,17.699380589419889-1.810307065450615,4.951467593449706-.577353595723253,9.919237043770408-1.013205128609115,14.875206497110412-1.553697334489698,5.030707647640156-.548631575520631,10.046160212339601-1.259962708911189,15.085915500349074-1.696516921188959,5.595643483449749-.484702389878294,11.130295915480019-1.605241795823531,16.771324002720576-1.597322013492885-.323577584820669.952760061625668-.919535993351019,1.637023399216559-1.907924822689893,1.934198225992077-5.18598155338077.594364292704995-10.377555661170845,1.143918134928754-15.566260290770515,1.707891543870574-6.154445077649143.668906865015742-12.31282836768878,1.303075017522133-18.457859800098959,2.055190834036694-8.362925778881618,1.023598927968123-16.774493604891177,1.590222023789465-25.115751895511494,2.845090307097053-5.199999539869168.782301752120475-10.454709487599757,1.213790817106201-15.699778867070563,1.641781124277259-2.298122613818123.187527563104595-4.572820915998818.726614410197726-6.901336574159359.517933269522473-2.333010197959084-.242424390708038-4.733365291849623.469829009385649-7.015237289469951-.492812481208603-.275535785680404-1.663769133629103,1.112918326060026-1.19811228314029,1.847028932541434-1.31108263477654,2.192962094779432-.337520335278896,4.44313075062928.243668718800109,6.63675165416862-.32245664578295Z" fill="#f1a362" stroke-width="0"/>
        <path d="M139.512181390149635,212.67171770575078c-1.988218970909656.7614116793211-4.103851556919835.704465370150501-6.170593212478707.962714686365871-.827017282490488.103337788284989-1.756406126911315-.307275843055322-2.449136222880043.480910848984422-2.717256749900116,1.280589276935643-5.707040725450497,1.021388415709225-8.567778704200464,1.474309202192671-1.872883516509319.296516064843672-3.775837993080131.459874384647264-5.669525226359838.646465041891133-1.112907345919666-.105782527009069-2.273021999881166.146157313818549-3.327200204479595-.41528352147543-.244542493350309-.16302161925887-.349446808981156-.393866439131671-.314906929470453-.685463748222901.661429359539397-.917626091957572,1.776034968050226-.997921851803767,2.698458739820126-1.426424529367068,1.280336273359353-.594759549861919,1.777993094099656-1.614727967633371.882349898618486-2.669054479905753-3.238462323919521-3.81222601798072-3.338022968458972-8.460450205056986-3.795364352848992-13.050732620487906-.126183838729048-1.266521049916264-.271923317621258-2.532529729438465-.384641837210438-3.802022527623194-.264171334480125-2.975305582180226.039180821260743-3.803325412329286,2.836585317430945-5.026221783240544,2.171389767780056-.949232025504898,2.850907087959058-2.389578390353563,2.372732706418901-4.542924752149702-.399501634899934-1.799093473466201-.336889181919105-3.643626881035743-.639414166660572-5.456978890524624-.272142920539409-1.631211655070729-.924301376739095-2.635691847877752-2.663732197819627-2.824507656534479-.941789089389204-.102210573426419-1.917151805439062-.300205131659823-2.372769306899499-1.342220115395321-.404867266279325-8.627753776869213-1.752643596859343-17.158318210143989-2.612015709790285-25.738172675031819-1.393062113049382-13.908096634886533-3.04981609422066-27.788100733194369-4.584097526019832-41.681188575414126-1.113613735320541-10.083837232295991-2.191981201729504-20.171645335121866-3.373891445658955-30.247941573199569-.11309916465143-.964215199654063-.516868416321813-1.845578277188906-.672186242640237-2.792382033019749,4.640952722409565-3.579293288763438,10.031088131809156-5.544440516267059,15.552337465540404-7.232506985792497.280418290629314-.085736035462105.520572385597916-.303132962466407.779476910018275-.459219282503909,1.308763871560586.249656132798918,2.496270329940671-.469640530276592,3.773466281520086-.47208435405264-3.981536389648682,2.205687742078226-1.916708939548698,5.767419535690351-1.736305139489559,8.71992280557788.323123738780851,5.288458439032183,1.131877378300487,10.547230503590981,1.737146950690658,15.818475127382044.596273172719521,5.192998345510205,1.206344729000193,10.384466899422478,1.783666169580101,15.579576942898711.542733980439152,4.883819412432786,1.03451276297892,9.77330783726029,1.578249596759633,14.657017456034737.578375534600127,5.194820920185521,1.207303661749393,10.384027724801854,1.784786144469763,15.578951119065096.542909662779493,4.883907247354728,1.029835220750101,9.774050774325588,1.57376237706012,14.657840908448634.578543896850533,5.194630611184039,1.165579106660516,10.388704934513953,1.813656608570454,15.574939990861822.186735684290397,1.494350204058719-.045933611099827,3.006135640564025.445698769488445,4.503325840503749.292496451331317.890704687699326-.389363300018886,1.64902750552028-1.250711839249561,2.082749041495845-.9270976539392.466827982809264-1.831107720729051.990543718171466-2.788671619990055,1.383517168909748-1.904264773998875.781496598647209-2.332248907820031,2.113542501992924-1.905618992019299,4.048340933301006.40762694300065,1.848632370698397.783199179550138,3.764033922920135.732119539989071,5.638079865009786-.056525792009779,2.074031425272551.955543552390736,2.76172032490831,2.686446460011211,3.271294637479514,4.668509229019037,1.374426254258651,4.623197826200339,1.426468446828949,5.061774140949638,6.354022331919623.449739463250808,5.05311390919087.931211548670035,10.104046584432581,1.470724686250833,15.148245248819876.306477837330021,2.865482648659963,1.126394625360263,3.291174608650181,5.715122112978861,3.284630906799066Z" fill="#f1a843" stroke-width="0"/>
        <path d="M100.705054767020556,74.534598003592691c1.126273843739909.185064525438065,1.287191544559391,1.084243453426097,1.380369064179831,1.963763827448929.818602830549935,7.726783382404392,1.568041720949623,15.461212063002677,2.435374439790394,23.18243256687856.884586188378307,7.874810848152265,1.92719863910861,15.731882701409631,2.81068315282937,23.606796023641436.724956824700712,6.46190557753107,1.268532616330049,12.944064424658791,1.982022508480441,19.407360721821533.886917639389139,8.034216596368424,2.024596194869446,16.044586010821149,2.718255943189433,24.094188358072643.239623387909887,2.78066339022007,1.469948755939186,5.634471313542235.144198598389266,8.46908730593168-.85467261040867,1.247826850221827-2.258195142618206,1.424989892271697-3.549614043429756,1.698258980519313-5.518562857980214,1.167721399377115-11.141316322100465,1.578335030719245-16.735770289718857,2.189021980164398-.642082342150388.070077630334708-1.270208918640492.002957109112685-1.796666662541611-.438911116078089-.21748009330986-1.051427959775538.559427462530948-1.472698895249778,1.284644150680833-1.725268219699501,1.993218597430314-.694174044871033,2.021576654700766-2.221447706337131,1.823655861589941-3.894219919693569-.740263148320082-6.256606081436985-1.418192007369726-12.520231637230609-2.105937117010399-18.782693380278943-1.523213444559588-13.869976277799651-3.035538244259442-27.741614099579238-4.630107998140375-41.603059410366768-.746241837859998-6.487008066900671-1.012618351689525-13.041934488916013-2.459270897699753-19.442187269256465,3.888377170280364-7.737426047384361,9.436919487110572-13.994564628050284,16.698163289411241-18.724570449105158Z" fill="#eb9e3f" stroke-width="0"/>
        <path d="M84.006891477609315,93.25916845269785c2.178548823030724,1.589094808929076,1.424302458670354,4.072462599353457,1.725110880570355,6.154377209069935.781497256901275,5.408761176942789,1.285872097019819,10.857930078795107,1.880489097700774,16.293202763683439.526148469778491,4.809415912082841,1.005527007349883,9.623992125958466,1.540955530590509,14.432346699373738.5875293163881,5.276236575313305,1.241023690359725,10.545182851921709,1.818586694158512,15.822458807171643.543641672511512,4.967350425316909,1.018298747259905,9.94221073664994,1.53730463203101,14.912298683768313.469331703900025,4.494410595700174.809280686518832,9.009916212356984,1.503529702689775,13.469866239473049.320199359870458,2.056976810828928-.464123454619767,2.777823394339066-2.177373947401065,3.163272319903626-.70023685581873.157531936500163-1.425933010359586.312150681345884-1.729014322500007,1.106763962005061-1.443120599018584.984600221636356-3.138098298699333.951135115528814-4.761836810628665,1.082404409700757-1.399026162400332.113102104021891-2.356703523169926.689269928268914-3.054316124080287,1.886298914012514-.913462142540084,1.567414221812214-1.852226201690428,3.120687020835248-2.78092512693911,4.679405585155109-.445645698790031.747972935923826-.761926976541872,1.827361679894238-2.052641317970483,1.369785642431452-.185575448869713-2.911844849468253-.386814076109658-5.80866992690062-.83915034391066-8.709066957919276-.604577823200088-3.876579739087902-1.562015450779654-7.630995737810736-2.796167399719707-11.334650469938424.555813164450228-6.980519567714509,1.112230236920368-13.960987898391977,1.667230870549247-20.941573342301126.39648575477986-4.986827819750033.604742525390975-9.997092925101242,1.224516870759544-14.9559672802352,1.374037179941297-10.993726531349239.703519919501559-22.289528346285806,4.744962156131805-32.896583582709354.724272395589651-1.900901470156896,1.316164490019219-3.866284754018125,2.548738957968453-5.534639602645257Z" fill="#e6943a" stroke-width="0"/>
        <path d="M73.82144079218051,167.587932260588786c1.286604106750019.691656110377153,1.386819900009868,2.067758547771518,1.764319152189273,3.230707582933974,1.316164490021038,4.054723604460378,1.533840395939478,8.339018422391746,2.500045670160034,12.470992842658234.35579333341957,1.521535113088248-.588976865639779,2.93289595295937-.44670711290928,4.444754585236296.706887164300497,1.022823052804597-.110132695181164,1.785684008375028-.463188312171042,2.616265690481669-.365139267749328.85901091922824-1.169868683729874,1.511990384662568-1.231158029109793,2.70912184448207,1.370646144830971.337710644280378,2.813644132220361-.529820262592693,4.138417056770777.144166388870872,2.774293118700371,1.276036500034024,2.909184213269327,4.26075505825429,4.080862791070103,6.521303945000909,2.206209641019086,4.256465786123954,4.241337625999222,8.592085478079753,7.315522324408448,12.324469549988862,1.225384302300881,1.487747945589945,2.184745285470854,3.144446367823548,3.120107329361417,4.81860930080984.267739881959642.479212707117767.698835057179167.944196156518956.047518412169666,1.454297478638182-3.220506125040629.841429295240232-6.400045325059182,2.052263003230109-9.817418149190416,1.067618864131873-.953144390459784-.000175669849341-1.912512693730605-.070970618729916-2.858304046369085.012326167690844-3.241582515440314.28552206016866-5.586544602399954-1.203074956354612-7.641047055130912-3.542587439931594-5.064667409438698-5.767299677618212-9.716093818689842-11.846413336039404-14.035674135619047-18.18516703030582,1.600289952468302-4.055792262703108,4.400004854378494-7.378499609130813,6.872767606579146-10.866644035229911,3.674735553029677-5.183651245662986,6.156965936181223-10.679423894362117,6.181102127289705-17.135393294935056.002600464589705-.695528166615986.307929046630306-1.389921798796422.472834370501005-2.084842440521243Z" fill="#e18c3a" stroke-width="0"/>
        <path d="M138.084806320599455,214.114962623096289c6.269619489910838-.203747745767032,12.466945698040945-1.141122056507811,18.689694604390752-1.826351578267349,4.964263123669298-.546655289725095,9.939074507679834-.997307007333802,14.903652395549216-1.541297971027234,5.274532771451049-.577968440191398,10.539615297169803-1.242146858458,15.81419930930133-1.819661484874814,4.964548607469624-.543581067380728,9.936915078958918-1.015137496940952,14.90428924401931-1.533378188698407,5.044220547420991-.526262948164003,10.093418761060093-1.016864917115527,15.123028394089488-1.659465222342988.859672236929327-.109822933520263,1.542769084730025-.075333086630053,2.264530686919898.295242458443681-2.233947320039078,1.338882388276033-4.794561306000105.995887009392391-7.201541088030353,1.271571558054347-16.378000530008649,1.875714805650205-32.766154035100044,3.666624992014476-49.162835453649677,5.371237365381603-2.273724729229798.236363780941247-2.137080471338777,2.297439554899029-3.273547550688818,3.358148738328964-.623745498200151.626043422022121-1.444687099870862.569536287472147-2.228911093041461.649905243088142-3.354405346410203.34374197573743-6.506431960418922,1.447519550320067-9.601881541730108,2.688363524070155-1.977011901819424.792534520785921-2.130821788079629,1.684205392652075-1.057388067300053,3.521550975592618.590622057530709,1.010936059734377,2.08216510074999,1.67171819426585,1.39079654291163,3.240347465864033-1.615150207680927.918006709962356-3.356908819720047,1.391246642235274-5.207312317161268,1.482346097754998-.508915130520109-.030610471072578-1.018020583569523-.061367333688395-1.527126036618938-.092138835454534-1.063112383460975-.750710457727109-1.822821370489692-1.776798041881193-2.562509891180525-2.821345599264532-1.886747780950827-2.664296754848692-1.59454413352978-4.536337132836707.9818227020005-6.578645511330251,1.530837325990433-1.21351267317732,3.366754350699921-1.811170775539722,5.478858649759786-2.785011218964428-7.044839763300843.705738976550492-13.693420694840825,1.397848900702229-20.342806837090393,2.109399621404009-.685051313799704.07612360094754-1.352929679140288.088508325254224-1.866632153340106-.485712491507002.292262208200555-1.431767820586174,1.521731124839789-1.37782253799196,2.565642892850519-1.618636621758924,3.920980884040546-.904494770793463,7.961476998079888-.647782565753005,11.915976608039273-1.226468324492089Z" fill="#f09a66" stroke-width="0"/>
        <path d="M148.648892703340607,226.131175506709042c-.166158890549923-1.562597940139312-1.672122525631494-2.220452243864202-2.34980982146044-3.472480531290785-.91880398360081-1.697453827047866-.759789508099857-2.869200993782215,1.068214491340768-3.586212118936601,4.113331083019148-1.61339580461572,8.224019610899632-3.270328453312686,12.778986809369599-3.041474558387563-2.56666038639014,4.807439626287305-6.326869971549968,8.256395037054972-11.497391479249927,10.100167208614948Z" fill="#fbb56c" stroke-width="0"/>
        <path d="M123.704079721970629,216.959306333337736c.633312865478729.006470506081314,1.266633051058307.012926373006849,1.899945916538854.019396879088163,1.481792673510427-.509940291423845,2.824525456981064-.309720581777583,3.852142688230742.928122365396121,2.269742596248761,2.734081602102378,4.433204698560075,5.557754826855671,7.28004181237884,7.756965658225454.533891302791744.412443525592607,1.077188930730699.977119613928153.850082909350022,1.819749319798575-.340223486269679.04520570763998-.680439652449422.09041141527814-1.020780260278116.13571959699766-6.825515005441048-.965993856869318-12.140586476210956-4.308595813619831-15.898058344952005-10.102070298638864.884589848430551-.88051583649758,1.858506845252123-1.274865367711755,3.036625278731663-.557883520867108Z" fill="#d07866" stroke-width="0"/>
        <path d="M84.829761924929699,219.390240333821566c3.357684750049884-.482199094540192,6.715369500090674-.964398189078565,10.073054250129644-1.446597283618758.491108993630405-.599810058001822,1.196253974751016-.822705817237875,1.900992690470957-.908740125461918,4.986984705959912-.608930250962658,9.951427172029071-1.407832803750352,14.964537305550039-1.798171206761253.484725868709575-.037769017393657.95848989158003-.02274924536141,1.357658462049585.313029030587131,1.121717083129624.003718345122252,2.243434166250154.007436690246323,3.365151249370683.011140396214614-.106112131690679,1.266930946228968-1.267562703429576,1.152584514113187-2.035682482350239,1.526922321771053-1.188403170310266.579110294207567-2.569573785160173.643507932778448-3.717573677940891,1.347299901843144-8.172658147599577.960430978337172-16.344825848669643,1.925063393880919-24.518494169698897,2.876842632185799-1.254331627409556.146069478894788-2.515558786550173.232938218900017-3.77358706314044.347167537782298.884968663469408-.6614408964615,1.876472194260714-1.210906903761497,2.383943435559559-2.26889320454211Z" fill="#e28e50" stroke-width="0"/>
        <path d="M110.737899722209477,218.43512336839558c1.394357770281204-2.005666575958458,4.043380232409618-1.50038153551759,5.753307400980702-2.874310058537958,4.800087979519958-.484102184562289,9.563282668210377-1.336261979706251,14.401156990439631-1.445499347064469,2.397514896110806-.0001171132335,4.794934630959688-.000248865619142,7.192405606490865-.000380618004783-3.009643399771448.942541932112363-6.211534517160544.709149899439581-9.235993794030946,1.475612086900583-1.717082563758595.435134214338177-3.698501164199115-.068511240851876-5.144937767339798,1.369068323883766-1.011820461078969.185683029694701-2.023882485369541.371658842472243-3.036164112590996.557605376938227-3.310071176598285.305943680039491-6.61992275027842.611931277539043-9.929774323949459.917904235884635Z" fill="#eb985c" stroke-width="0"/>
        <path d="M137.586293048469088,227.483540555846048c-3.022109525609267-3.061881539102615-6.269121723278658-5.915038020071734-8.779278277959747-9.452135777242802-.809785773239128-1.141078139045931-2.010574548328805-1.081394308072049-3.202981811899008-1.052584452945666,1.495137211039037-1.050652084612011,3.245013811079843-.43182576552681,4.858377914999437-.653111217819969,5.553179598520728-.761719101556082,11.148061791829605-1.219353695636528,17.133749344360695-1.834666617753101-1.13212626161112,1.534300455399716-2.523698734839854,1.89293045078557-3.757969635360496,2.403090329520637-.891229176759225.368350393659057-1.724226978809384.770546511434077-2.52108546008094,1.314596031743349-3.222431310648972,2.200089180609211-3.369653109259161,3.307760770163441-1.134644375099015,6.531565991974276.612487188420346.883458306456305,1.679032697549701,1.537345399439801,1.732037522710016,2.781322152150096-1.442761914240691-.012838538081269-2.885487228009879-.025457488854954-4.328205221670942-.038076439626821Z" fill="#e78460" stroke-width="0"/>
        <path d="M80.03318942217993,193.491380984598436c-.860054712009514.042058289523993-1.737705108120281-.007934421482787-2.575199279990557.152144727817358-.832088279959862.159039769363517-1.853154024029209.765554559911834-2.3744016886194-.043551483235206-.482804343140742-.749392933863419.392088206270273-1.600557266532633.818621130791144-2.304495627140568.691128824659245-1.140624325269528,1.49095011533791-2.209546074111131,1.736844996677974-3.561149887238571,1.951367770650904-2.016689858943209,2.839870211129892-4.706429463492896,4.397308771011012-6.977474623678063.574334840850497-.837506001960719,1.131321050899714-1.531504376982411,2.175496342420956-1.631094541835409,1.963305019467953-.187220140869613,3.929605788778645-.343068574655263,5.894642011269752-.511975133835222,7.390875406899795-.892271077180339,14.890234657050314-1.071293291792244,22.069453108098969-3.355557608065283.308362762400066.072727317212411.61786379995101.140931135831124.92490528476992.218855352724859,4.656321266869782,1.181599317395012,4.683965614651243,1.255570962701313,4.847840634811291,6.096958787180483.056035345489363,1.655454094139714.316180626417918,3.303310467339543.458856644549087,4.956729719069699.117714486050318,1.364149568129505-.415935253529824,2.274748866153459-1.801739490019827,2.687997545219332-.753973690731073.224842766721849-1.500513822569701.5688482472342-2.158945602230233.999063705818116-1.164433511419702.760811474005095-1.820899844929954,1.535442309414066-1.480844720899768,3.301348820697967.669854791640319,3.478482584441736.897575701190362,7.05798997083366,1.08305232874045,10.607472452313232.099271500688701,1.899737657411606.967208127560298,3.352454107411177,2.004506187589868,4.738533128276686,2.708271330369826,3.618915989036395,3.488022744038972,4.903926290489835-2.912018920980699,6.206986668858008-1.10973042365913.580149674144195-1.638698960960028-.24743098138606-2.102364909489552-.9613532450403-2.872197591210352-4.422371318725709-5.574041876059709-8.94503548170178-7.566744406629368-13.845272705373645-.663581468161283-1.631826499538874-1.025776226741073-3.359334509807013-1.077573235841555-5.133321834113303-.049260595349551-1.68716250176476-.947249882039614-2.317524474225138-2.586856535079278-2.445558515357334-5.047529231429507-.394129943904773-10.030173119639585.240682331379503-15.02317128561117.764280953511843-1.58453756039853.166139759066937-3.163914452148674.456229235292994-4.751667365339017.04043334342532Z" fill="#f5a53c" stroke-width="0"/>
        <path d="M80.03318942217993,193.491380984598436c1.838537619580165-.946172442312673,3.908108492791143-.63526608905886,5.834419570090176-.848470728327811,4.846889022150208-.536481077675489,9.726557440390025-1.07091267378928,14.639272438280386-.623408374296559,1.481957375699494.134987639296014,2.575169999608988.571951747886487,2.525525099139486,2.182829618010146-.167092202960703,5.421844920856529,2.904138836149286,9.648768894152454,5.162191236880972,14.160980701150038.954899383808879,1.908140531822937,2.264585587639885,3.636234108251301,3.355430160048854,5.480240506276459.38636572014002.653096578666009.74299720469935,1.227449147812877,1.591458712480744,1.228634919289107-.004231016291669.159230078366818-.009344104310003.318430878423897-.015368544460216.477587761020914-4.748759456650077.640199483967081-9.496819844009224,1.284790714142218-14.24642843195943,1.917817012636078-1.32324302419147.176343249424463-2.65105744920038.318416239269936-3.976825906980594.476123845617622-2.555537498419653-3.670138388981286-5.340000062420586-7.205625839209461-7.599840396929721-11.049472429891466-2.110806811801012-3.590354999525516-4.288689505970979-7.202419864475814-5.462637313959931-11.29252630422161-.232381981570143-.809633052691424-1.186117469900637-1.412253828268149-1.807196622630727-2.110336527262916Z" fill="#e5933b" stroke-width="0"/>
      </g>
    </g>
  </a>
</svg>