<?xml version="1.0" encoding="UTF-8"?>
<svg id="Pattern" xmlns="http://www.w3.org/2000/svg" width="280" height="280" xmlns:xlink="http://www.w3.org/1999/xlink" viewBox="0 0 280 280">
  <a xlink:href="https://www.notion.so/dmmnotes/anger-bb2d95b14cb3441fbdead904882a39b2?pvs=4">
    <g>
      <g>
        <path d="M110.099404289117047,33.295578987186673c.666571437653147,1.37544934905236,1.941281183238061.479313568559519,2.896785150156575.775526905224979.442225564092041,2.583114901121007-1.81292361323176,3.02026233435754-3.280311430908114,3.961294572758561-11.329360627893948,7.265499418437685-12.923572482769487,21.459595473930676-3.508323106430908,31.413746837439248,1.463382249556162,1.547143903393589,3.359797213083766,2.221756712204296,5.233443934404022,3.034890465667559,6.89114720863563,2.990666330582826,14.111608477063783,5.180773090229195,20.834771059027844,8.58994324698142.213208466178912,1.613954462929541-.667068617319273,2.339761494176855-2.111445305654343,2.61523046556249-12.413662998399559-2.613759717612993-24.802036847171621-2.926129021861925-37.223873118943629.092784689713881-3.491860723104764.848634764159215-6.358476059666827-.990792490960303-8.967234168207142-3.140863582309976-6.002817564030011-11.837323995850966-5.295871920755417-32.617789192099735,5.152888155659639-42.098105100261819.959101976077363-.870204236616701,1.708887154749391-1.798275871387887,2.207485765458841-2.963494166066084,6.255268635614812-.760317821532226,12.510544429821493-1.520636513179852,18.765813065437214-2.280954334710259Z" fill="none" stroke="#542622" stroke-linecap="round" stroke-linejoin="round" stroke-width="41.625417947769165"/>
        <path d="M91.333591223679832,35.576533321896932c.234779257214541,1.450640603479769.068996151027932,2.663186920597582-1.125178572230652,3.814958000804836-7.59660797590368,7.326808168430944-9.370481482164905,16.585146519886621-8.480503812551433,26.615315075954641.426846517731974,4.810586353378312.894942464889027,9.640347545710028,2.654649219274688,14.214330563323529,1.218548867384925,3.239517455640453,1.978605380482804,6.421188634052669-1.146024239615144,9.114323695934218-2.093900480024786.450042489546831-3.059529059776651-1.109559451439054-4.202328614025646-2.354773099428712-.26828369602481-.36779709089933-.492523283320224-.768970100703882-.71771967053246-1.170484470307201-1.21014676269624-2.157612605285976-2.52087402730649-5.027939855603108-5.449770594638721-3.385843938809558-3.164245231202585,1.774041909970038-1.40423085207658,4.454060017105803.052962593247685,6.704612651272328.72476262688815,2.047538586124574,3.641694590907719,3.21475880921389,2.439771553527862,6.040811795421178-2.27361429202665,1.083992141680937-4.544097872088059,2.18334207603948-7.184686892572245,1.436089348278983-3.77316756840537-16.105603929727295-2.976463042499745-31.763060517960184,4.319757754007696-46.879642723968573,1.904915559099209-3.946682336634694,4.661428164000426-7.043826771925524,7.934429320785057-9.801830204940416,2.750147269978697-2.757693221350564,7.35895869173055-1.14007262472478,9.966351302050498-4.233818976799739l.938290653272816-.114047716735513Z" fill="none" stroke="#542622" stroke-linecap="round" stroke-linejoin="round" stroke-width="41.625417947769165"/>
        <path d="M30.821769490748011,109.58282132093882c1.52408928892055-4.519330506636834.133083487935437-9.447399524715365,1.952493660591244-13.925321681132118,2.542027567073092,1.680562216666658,2.650758604490875,4.461383840034614,3.193404597273002,7.049286277915598,5.393098766931871,25.719899125089796,17.862430599278923,47.171200057786336,38.488350301151513,63.676122816073985,6.294440144129112,5.036824011955105,13.724742993822474,7.521392690461653,21.431607635814544,9.402250034316239,1.632071169970914.398307783272685,3.974463456304875.022614412557232,4.273479173464693,2.686767174904162-1.563735360924511,1.502790435679344-3.475911465171521,1.128547668195097-5.288346983588781.855346438542256-5.822477629466448-.877641135708473-11.634311974423326-1.834014464619031-17.240563740504513-3.719663242029128-16.173516438594561-5.752561649496784-25.609865716330205-18.700590444248519-34.270746196018081-32.369765006442321-5.143621714561959-8.118002156468719-8.611363462473491-17.049282538218904-11.627290338936291-26.148645134737308l-.912388109247331-7.506377677411365Z" fill="none" stroke="#542622" stroke-linecap="round" stroke-linejoin="round" stroke-width="41.625417947769165"/>
        <path d="M31.734157599995342,117.089198998350184c3.572559261971037,3.779949408139146,4.214216021448919,8.956516541080418,6.316280905732128,13.433647971371101,6.669030972535438,14.204203118073565,15.03620507942378,27.086013271435149,27.328114737369106,37.124217771684926,3.698443899071208,3.020359557254778,7.991358739130192,4.910038843039729,12.351256140555051,6.69221402383846.430633065924667.380513867768968.454852735010718.785335386441147.074743820384356,1.215300810552435-2.556594789265546,1.238414037496113-4.919066689252759.061820861334127-7.189354376970186-.795839170406907-7.138047665949671-2.696515077930599-14.133720066872229-5.738701112783019-20.901633537762791-9.281018489164126-6.329368604516276-7.078292068508745-10.208703097050602-15.480812697613146-13.301383077785431-24.339264225183797-.631155924869745-1.807836823674734-.567719595374001-3.99749028171027-2.397054338403905-5.283314499161861l-2.280970273118328-18.765944193530231Z" fill="none" stroke="#542622" stroke-linecap="round" stroke-linejoin="round" stroke-width="41.625417947769165"/>
        <path d="M75.954223391995583,185.1050578016293c-3.003639055957137-.531049072449605-5.456777824477285-2.185617753939368-7.895849441661994-3.868890790674413,1.978524591480891-2.137643021078475,4.37223830336734-1.191133340984379,6.584066634663941-.731982786281151,7.178296879401387,1.490090856303141,14.378046029851248,2.790283426267706,21.682680022417117,3.502793626852508,2.958545436654276.288610637591773,5.898734605251775.489940495710471,8.860430128096596.103901034553928,11.12222357119299.105437747080941,22.273694065938798.952924210518177,33.209611570951893-2.134565599348207,2.195334750697839-.619787608211482,4.738959914387124-1.055071156119084,6.379300001494812,1.490852618719146-3.805425918313631,2.990380735420331-9.013186541184041,2.523269224195246-12.928132792144424,5.243606737820301l-5.629743919631437.684286300413078c-2.538282280835119-1.502868901989132-5.292446239113815-.463806465217203-7.82793547843994-.30744782407055-13.108206868045272.808275673267417-25.983335836061997-.431558538140962-38.724968763577635-3.454103471030976-1.218818131614171-.289127999352786-2.498893410030178-.168929075969572-3.709457962168926-.528449846953663Z" fill="none" stroke="#542622" stroke-linecap="round" stroke-linejoin="round" stroke-width="41.625417947769165"/>
        <path d="M75.954223391995583,185.1050578016293c2.970347117850906-.843513389701911,5.949441480554015-.294312879183053,8.809424888283502.333858731743021,12.429421751435257,2.729992491245866,25.027461247433166,2.580991395669116,37.629452635873349,2.499824384874955,1.482838577861912-.009537734835249,3.234938503638659-.837012901873095,3.823484680029651,1.456318025437213l-18.765813065437214,2.280954334710259c-6.339176791209866-1.271855207354747-12.902570876986829-.773523860401838-19.19323129919394-2.475706071491004-4.182557321139029-1.131758921750588-8.506186594196151-1.81445852437173-12.303317839555348-4.095249405274444Z" fill="none" stroke="#542622" stroke-linecap="round" stroke-linejoin="round" stroke-width="41.625417947769165"/>
        <path d="M181.532448037502945,79.808565254503264c2.232299418274124,4.014846050202323,3.615704760540211,8.305595847572476,4.180432775559893,12.862423646995012-5.012952128529832,4.294496240967419-10.124652985739885,2.121715788887741-15.233707188218432.245509726157252-10.090907441472154-3.862600992064472-19.210107911341765-9.614150902056281-28.631176809693898-14.782559123172177-1.306089696072377-3.316569230719324-3.898671064598602-4.424614025507253-7.265039262755636-4.209422339608864-4.441721619989039-1.674018503927073-8.44464390455687-4.220459045223834-12.111344475320948-7.087551582397282-4.986611348731458-3.899176381748475-7.740090166807931-9.404850829001589-6.191877244201351-15.695141702641195,1.6811936718168-6.830571043174132,6.399854337080797-11.286178254409606,13.518497460387152-12.875624214782874,2.77702468364987-.620050905696189,5.605148346388887.127874029263694,8.359231827668737-.5242738819652,6.783676567587463,1.711678237275919,12.855867403352931,4.845461090939352,18.331525030364901,9.171563613632316,1.294979243562921,2.698571352186264-.967901524968511,2.066442413568438-2.090694933269333,2.028305358137004-2.366048242299257-.080370742167361-4.570097850161801-1.137153824069173-6.916405800910979-1.45518523899409-4.882437779855536-.661797983490032-8.997509698921931.461077785414091-12.034189709695966,4.689937614255541-4.020025506225466,5.598262291172432-3.644678333156662,8.882817219120625,1.784894536921456,13.178501643364143,8.072854657260905,6.386945448230108,16.532332545677491,11.911181462734021,26.795798641413967,14.387362280271191,5.941804489489186,1.433537947554214,11.660214906077272,1.817833668877938,17.504055151750435.066154200749224Z" fill="none" stroke="#542622" stroke-linecap="round" stroke-linejoin="round" stroke-width="41.625417947769165"/>
        <path d="M138.157465120928464,37.741925783087936c-1.666634979321316,1.54830080215288-3.848787325169724,1.258742853964577-5.792912225414511,1.355238340745927-6.471125310624302.321192757386598-10.705501440481385,3.919284947742199-13.891739856569075,9.080958716900568-3.294248988344407,5.336631350544849-.599963810214831,14.475156172840798,5.469196457863291,18.397169859052156,3.653923129912982,2.361245336443972,7.491948260681966,4.437603329537524,11.247240847567809,6.641987576838801.520299662349316,2.547827641776166-.924274788345429,4.599023669161397-1.715862152988848,6.819190995494864-.378781884081945.580584041525071-.87077876629246.996155896908022-1.588742250697578,1.074578792626198-7.322429314181136-1.220464372121569-13.638032340374593-5.256387543942765-20.621253924013217-7.37309848377663-3.911315956628641-1.185565807938474-6.633406268610088-3.411696772749565-8.383484938313813-6.938153815382975-2.799162937698384-5.640373598222141-4.758766853121415-11.624188485582636-3.922382022870806-17.922202513596858.57608198633352-4.337893084259122,3.929447741820695-7.293905776607062,7.261863715852087-10.029619354143506,2.152335051503542-1.766935308294705,5.246905425196928-2.163292633114906,6.776815509024345-4.776927200404316,8.66048033282641-.650412095095817,16.89053634047832,1.649623641569633,25.161260840560317,3.67087708564577Z" fill="none" stroke="#542622" stroke-linecap="round" stroke-linejoin="round" stroke-width="41.625417947769165"/>
        <path d="M181.532448037502945,79.808565254503264c-4.002438270311359,3.641375870925913-8.666893814172909,2.811824396279917-13.364987543919597,2.051087405548969-13.67221004421026-2.213857451682998-24.655569729786293-9.554827730700708-34.995458597516517-18.176309239543116-1.835269538788452-1.530258239456089-1.983426039540063-3.547450205232963-1.722847600615751-5.569670784783739.982950310239175-7.628086643015195,8.211676427927159-13.081772205818197,15.79581291681734-11.921238416904089,1.99993810813794.306032297618003,3.915373846783041,1.263595308962977,5.912877159921663,1.444529086904367,1.006221954868124.091145249909459,2.795105066833457,1.886073894465881,3.331128771923431-.723733360260667,12.178879992721704,8.048624565950377,20.015864466337916,19.402554313670407,25.04347489338943,32.895335309038273Z" fill="none" stroke="#542622" stroke-linecap="round" stroke-linejoin="round" stroke-width="41.625417947769165"/>
        <path d="M170.514517313028591,91.656492758942477c4.920453261072907,2.521159103453101,9.99121251343513,2.79054316021211,15.198434215809357,1.014480282765362.132482339024136.275954979828384.240493073492871.561189944179205.324053876795915.855644143481186.579159371738569,5.346719100238261,1.158224614070605,10.693500492563544,1.737289856403549,16.040281884888827-5.646029926319898,3.217255936451693-12.725372555683862,1.018016332818661-16.815341112636816-5.219615755921041-.620691057422846-4.213763704554367-2.474964119259312-8.385877936480028-.444436836372006-12.690790555214335Z" fill="none" stroke="#542622" stroke-linecap="round" stroke-linejoin="round" stroke-width="41.625417947769165"/>
        <path d="M172.110858248317527,104.782698992519727c4.384456565157961,4.335954248434064,9.521054014729089,6.20890691108616,15.664114666988098,4.784037801477098.206228491834736.947701988712652.41313550706036,1.895248859987987.620211322830983,2.842869651043657-.385843324107555,7.093600470874662.334218920200328,14.291153970350933-1.99380124124491,21.202037428380208-.375062544032517.332379551364284-.808848192947153.54488600708828-1.300311305990363.642775192676709-7.881177590243169,1.284501071573686-12.857881824129436-2.165134292607036-15.664143020992014-9.419412578150514-1.016474001874485-2.627652386012414-2.759392403738275-4.877905242714405-4.68299690713684-6.955495987549511.091874890294093-5.455037023757541-.265286761164134-10.877425607422992-1.230286533769686-16.254997317148081,4.16735539115507-2.503911559177141,6.04288146188992,1.236678293220393,8.587213019314731,3.158185809270435Z" fill="none" stroke="#542622" stroke-linecap="round" stroke-linejoin="round" stroke-width="41.625417947769165"/>
        <path d="M175.954066702171986,158.636098234383098c-1.756953163477192,3.194705350744698-3.955689199950939,6.033498159336887-6.756834300325863,8.386952993736486-4.591783123541063,2.935050511339796-9.456158347758901,5.281735554255647-14.699699754588437,6.821085756964749-7.254229075922922,1.309831028689587-14.422319837459327,3.029989800646945-21.795826571738871,3.731556231685317-10.291358025536283.979223897982592-20.374054205011817.132211115642349-30.314318588081733-2.588081411580788-2.417771398365403-.661654088029536-4.89849012427203-1.346690552702057-6.246801312960088-3.817473135901309.147422594315685-3.15419353190191,1.433353708211143-5.500815115621663,4.628513596066114-6.489264794166957,18.084328294606166,9.308022562652695,36.4020591198896,8.2559967370089,54.848362081071173,1.207503372501378,4.738755350403153-1.518021122890787,9.054711097782274-3.942797124906065,13.459895328301172-6.190604870971583,2.128271900762229-1.086001639499955,4.269764468829635-2.782686702326828,6.876709522256533-1.061674142267293Z" fill="none" stroke="#542622" stroke-linecap="round" stroke-linejoin="round" stroke-width="41.625417947769165"/>
        <path d="M175.954066702171986,158.636098234383098c-5.213271990633075.342246081339908-8.925038435852912,4.170654587796889-13.565975396763861,5.862086394472499-2.17066843073917.791106033206233-4.110001252220172,2.229726514251524-6.547500679339464,2.247498019713021-.47469920340609-2.180434096253521,1.460720845660944-2.873701793481814,2.573819009203362-3.990563001018018,5.034965906444995-5.051936023161034,10.00230328098678-10.144730203244762,13.397000417770869-16.522317255106827,2.761891300378011-3.39346433906212,5.964050230111752-6.39363822528685,8.700206117798189-9.822047194245897,1.121479990029002-1.405237931943702,2.445831724622622-2.903289211591982,4.617862588012031-2.739495463016283.423667550332539-.01987416857628.847321653604013-.039739438285324,1.271454314635776-.059612025104798-1.82731891074036,9.032293800431944-4.790348323599574,17.590634620171841-10.446866371316901,25.024450524306303Z" fill="none" stroke="#542622" stroke-linecap="round" stroke-linejoin="round" stroke-width="41.625417947769165"/>
        <path d="M77.840128668854049,175.287385805657323c-.036763003136912-.31602237799234-.073522426979252-.632045191043289-.110303227779696-.948094463361485,7.313048016430002,2.135891319654547,14.665842617871931,4.046346163686394,22.373498639496574,3.943417221307755,1.683810865791202-1.502914732152931,3.579781139907936-.540247045628348,5.402705859137313-.476227930023015,17.000034989133383,1.993238589322573,33.674400572775085.247861121139067,50.103026317611693-4.329675936485728,2.069390147709782-.576598472049227,4.151976209992426-1.796596222757216,6.090181953170941.284101442666724-1.570907053961491,2.282740137921792-4.235240063131641,2.986281254623464-6.390597898941451,4.424920210087294-4.578982217362864.977932248804791-9.064977323369021,2.314363682686235-13.646532126047532,3.32707094541729-15.829693490158206,3.499025017355962-31.641983941600301,3.025982934675994-47.528592466103873.936084826149454-3.865405240482687-1.997026185043069-8.280403804319576-2.360028225370115-12.245875343520311-4.051235350138086-1.582281591102401-.674813291147075-3.761813833447377-.700049381126519-4.047511707023659-3.110360965620202Z" fill="none" stroke="#542622" stroke-linecap="round" stroke-linejoin="round" stroke-width="41.625417947769165"/>
        <path d="M93.766019332676478,180.965671049418233c7.920994261202395,1.567973550527313,15.954066996408983,1.780807133236522,23.98279267736234,1.813125681235761,11.576367847726033.046619570270195,22.946708284195665-1.450698506800109,34.013020510101342-5.002207565948993,1.135871884537664-.364538375586562,2.472776487602459-.636627735304501,3.546748584828492.409287968017452-3.127494456966815,2.527324624541507-6.662367829569121,4.24201181060198-10.535097942818538,5.280942864632379-2.287864673832701-1.119468338538354-4.716374894556793-.822746781948808-6.937208526586801-.140393435794977-10.878789948581471,3.342573006608291-21.994045616467702,2.207155101972603-33.065983337436592,2.008141797763528-6.713148639929386-.296454448674922-13.349030417910399-1.310870274241097-19.907335795009203-2.646968416876916-1.928241706227709-.392833746667748-4.988804267891283.254086707511306-5.46638124049241-3.088040309023199,1.490415250351361-1.369134193248101,3.130145084723154-.935667762041703,4.830139865312049-.490159543742266,3.137041446289913.822103878090275,6.303179577215815,1.527869475832631,9.539305204739321,1.85627095973723Z" fill="none" stroke="#542622" stroke-linecap="round" stroke-linejoin="round" stroke-width="41.625417947769165"/>
        <path d="M161.699238210490876,173.760906139761573c-4.432789262013102-.855080424536936-8.182336462978128,1.719943878275444-12.236987199679788,2.631340421681671-14.486702357506147,3.256212356440301-29.030997349645986,4.385318213719074-43.786688538858471,2.789046534519002-.267922850911418-.028978418078623-.504909362900435-.343953622203117-.756331567493362-.525485122241662.497603168370915-.767483466808699,1.246916837522804-1.153002053972159,2.0944192226616-1.392483648078269,5.784832813184948-.426261709822938,11.5425936014326.411765525968804,17.331543512079406.425240644342921,7.906220277359353.018398266349323,15.585727247066643-1.28640415866721,23.122522226708497-3.283258027398915,2.374536384323619-.629132622745601,5.026306104144169-.292787681935806,7.170945413571644-1.792655785198804,5.059556000729572-1.324683838767669,9.296447630423245-4.792112798950257,14.558508237681053-5.58951964172411-1.956083092311928,2.850342602308956-4.560927065896067,4.978873248650416-7.49793130667058,6.737774624098165Z" fill="none" stroke="#542622" stroke-linecap="round" stroke-linejoin="round" stroke-width="41.625417947769165"/>
        <path d="M80.428949268356519,39.924400015432184c-.211063192801703.73303955382471-.212561914311664,1.645364934476675-.663852831286931,2.17287825848689-11.083208796607323,12.955070763297044-14.128436914339545,27.984127047689981-11.801845541152943,44.515074010330864.447750102993268,3.181333594964599,1.670981640671016,6.430659077002929.273483869815209,9.699360139258715-3.190633017996333,3.822639591689949-5.890414191900163,8.261275276518063-11.450263637530043,9.118959363373506-1.379628361220057-1.186211210479087-2.088605018727321-2.810802774389231-2.363617877403158-4.486638207565193-1.845050573529079-11.243143177511229-4.056242198533255-22.48053081746184-1.694282379169636-33.929492236664373,2.310560421955415-7.789787858851923,7.151538473174696-13.825223468276818,13.174620302203039-19.084209193837523,1.507207348890915-1.315998484786178,3.433080554538719-2.24349780994271,4.333650209127882-4.198646137498145,3.097090990157085-2.07294839230417,6.370311397512523-3.674396780148527,10.192107885396581-3.80728599588474Z" fill="none" stroke="#542622" stroke-linecap="round" stroke-linejoin="round" stroke-width="41.625417947769165"/>
        <path d="M106.789828517933529,178.418705550599043c-.623563492506037.079018531794645-1.247119826421113.15803619347389-1.870644045496192.237079009251829-1.605192061255366-.124336279886847-3.210428814290026-.24868165636326-4.815763849717769-.373058673185369-4.047401194328813-1.140341377611549-8.136311588319586-2.151924622748993-12.134518511151327-3.444158251668341-14.292247729224982-4.619282322510117-24.19550064730447-14.976257067031838-32.824583769391211-26.440925780014368-10.58335150881976-14.061118821447963-17.969458517211933-29.745813064699178-20.660013047511711-47.378814378380412-.279359447818933-1.830830682234591-1.125760048311349-3.575144045986235-1.709551337876292-5.360464914425393.310119053752715-5.384272121902541,1.74882159806657-10.471292382413594,4.02881137190252-15.337278461312962,2.007654292698135.567875048627684,2.440036201349358,2.282083896825498,2.651232622336465,3.968131482835815.385231789401587,3.075419058659463,1.375603068378041,6.028543886301122,1.717190559745177,9.103133052052726-.071076737020121,22.677247475261538,7.362907958068718,42.44271854516046,22.522574982680453,59.418967717136184,10.634867094632682,11.909265375292307,23.498844987055236,19.731116410035611,39.094876458832914,23.137076718685421,1.516353138699742.331157115624592,3.643412854548842.08701447878957,4.000388565646972,2.470312479024869Z" fill="none" stroke="#542622" stroke-linecap="round" stroke-linejoin="round" stroke-width="41.625417947769165"/>
        <path d="M40.36301229424771,94.14462707119128c-2.263246816568426-4.330565553795168-1.137793419124137-9.533712334248776-3.559461381546498-13.823512160479368,2.176142584037734-7.126739883215123,5.862390054471689-13.381612941086132,10.889590666134609-18.862316242282759,2.058694271688182,1.516651247995469,1.456956381523014,3.630296497578456,1.167412156629325,5.604562273278134-.38739839039863,2.641470547165227-.552524579343299,5.300985348458198-.829448990989476,7.948518350553059-.248219351584339,3.224011964342935-.513050144659246,6.44844485431895-1.342036643271967,9.593368770383677-2.490537060518363,3.524333874716831-1.721697713889625,8.540989546958372-5.278517397593532,11.583501849698223-1.363876033836277-.161422602624953-1.613522665962591-.894134814012432-1.04753840936246-2.044122841150966Z" fill="none" stroke="#542622" stroke-linecap="round" stroke-linejoin="round" stroke-width="41.625417947769165"/>
        <path d="M46.652553267951589,75.280738448107513c-.020912584179314-4.6346960189112,1.810392884340217-9.129905872763629,1.040698943834286-13.821462879839601,5.971410188250047-7.871738856210868,13.40273599203374-13.886494347338157,22.543573183435001-17.727392382879771,1.233833866063833,2.041383388512259-.687286952667819,2.533267309259827-1.721310735110819,3.3837414482241-6.247053981661338,5.138129805141944-11.472306255941476,11.053937603648592-14.452519854207821,18.71033053791507-1.219683189878197,2.352947321827742-2.550855195504482,4.643476635596016-4.019504636286001,6.847125745824087-.820472671014613,1.231081375564827-1.329957876259868,2.954602281988628-3.390936901664645,2.607657530756114Z" fill="none" stroke="#542622" stroke-linecap="round" stroke-linejoin="round" stroke-width="41.625417947769165"/>
        <path d="M93.766019332676478,180.965671049418233c-4.928814956901078,1.275594161112167-9.50822372224502-1.99497785578933-14.407222631467448-1.107352737462861-1.876523512830317,1.026315365390474-3.682433394286818.121654681546715-5.375451908109426-.420024966146229-5.448687149384568-1.743370974316349-10.946462414016423-3.359764968508898-16.240045289328009-5.561179798320154-3.094172142587922-2.400420700016184-5.935219582441277-5.042813506544917-8.029419285931908-8.399415381516519,6.175913582547764.333045589673929,10.897484295318463,4.468541488027768,16.49147573940445,6.377095943198583,3.845635184180537,1.312042483712503,7.529604718233713,3.036768340993149,11.634833856052865,3.43249709166048,4.858852509340068,3.154198710488345,10.788214231650272,3.305963488179259,15.925829519379477,5.678379848586701Z" fill="none" stroke="#542622" stroke-linecap="round" stroke-linejoin="round" stroke-width="41.625417947769165"/>
        <path d="M57.743299503771595,173.877113547488989c7.676178117106247.291344193617988,14.276165187906372,4.471997266748076,21.615429289646272,5.981183960942872,7.47904191068119,2.946573677152628,15.375659333860312,3.873346661681353,23.273379641440442,4.767746178897141.797393933427884.090310734645755,1.551423629471174.083057455980452,2.138256189407002.708530288124166-10.129527553089247.701725529721443-19.909807126280612-1.613612033641402-29.744395507452282-3.450743508841697-2.304852147031852-.430554384443894-4.570528063105485-1.227681353666412-6.967448563609651-.647637688591203-3.895894907895126-1.811913582885609-7.396587604944216-4.177552869119609-10.315221049431784-7.359079230531279Z" fill="none" stroke="#542622" stroke-linecap="round" stroke-linejoin="round" stroke-width="41.625417947769165"/>
        <path d="M82.596909006844726,89.004252912896845c3.144271829812169-2.409464941762053.293378462343753-6.037795074995302,1.785645036973619-8.783119095178336,3.923018324495388,2.106242933621616,7.720741890844693,2.560883808922881,12.357789543118997,1.548957399625579,10.581321979133463-2.309115641206517,21.355294895969564-2.436324343025262,31.935539778562998.656053069122208.702149170439952.205223692266372,1.31498523476057.71598369217827,1.969359795274613,1.084630028859465-.391529326522686,3.856380801904379-3.924523230213708,7.264734503280124-9.12974542523898,8.514520876124152-2.631560702916431.631846210073491-5.283204199157808,1.044380333612935-6.971445432595829,3.485972897782631-3.473922209098419,2.873200569214532-6.978490909446919,5.672665857724496-11.9670342913696,3.851942430266718-1.917133100043429-3.083864927002651-4.674564242082852-3.992412724855967-8.286411509727259-4.099252897385668-4.738910982572634-.140186711034403-9.720123482131385-.607669552437073-11.69369749499856-6.259704709216749Z" fill="none" stroke="#542622" stroke-linecap="round" stroke-linejoin="round" stroke-width="41.625417947769165"/>
        <path d="M113.592347378987142,94.805662122198555c1.217369486237658-2.302430942972933,3.312944132370831-2.970677979075845,5.724374453888231-3.397041627962608,4.945499132392797-.874407862826047,8.928534392184702-3.292272186266928,11.328396151393463-7.897860021512315.728007158149012-.63742985438148,1.310978987829003-1.349706728384263,1.23953507519218-2.399831135875502.305307520206043-.370890721213073.610622159186278-.741902170322646.915936363103356-1.112917198752257,3.182567104424379-2.25358729592881,6.102280081725439-2.43542476445873,8.55723968626171,1.080447254007595.454448700867033,2.218345791125103-.489718498228285,4.141903791498407-1.292645229506888,6.097851987113245-5.145350791534838,8.315024987341531-12.131075575199247,13.697303935949094-22.325619097959134,13.95823176959675-4.288984910111139-.20520084664895-4.906276433915991-2.817381107444817-4.147217402372917-6.328881026614908Z" fill="none" stroke="#542622" stroke-linecap="round" stroke-linejoin="round" stroke-width="41.625417947769165"/>
        <path d="M58.114649051452943,105.409473170215279c2.977782910399583-3.473440393616329,6.046563314714149-6.845633740036646,10.122084310288301-9.097742415049652,2.345559966657675-.735535508138128,4.69111852932383-1.471052684622919,7.036677091989986-2.206569861104072.467348427740035-.089408081768852,1.02841474764773-.185565469786525,1.355692137052756.128292816425528,6.18257016885218,5.929065507511041,13.845264714487712,7.508145499023158,22.042283415141355,7.553969378332113,6.081834418189828,4.169841903380075,7.671339820907633,10.513787746933303,7.572208613122712,17.221806257259232-.111995933627441,7.57844092866253-2.725411812528364,14.367633006864708-8.611020093921979,19.562873861183107-5.356483843301248,4.451494431354149-11.358350473079554,7.198670083811521-18.482756078805323,6.974708372132227-10.446856695940369-.846583056611053-18.291707020322974-5.642806072048188-23.094721103899246-15.136265006805843-2.187186300130634-4.323116992529322-2.08763483718667-9.067771433237795-2.752239638533865-13.676887346422518.166255390136939-4.381783743923734,1.633102919292469-8.217710075638024,4.811791347565304-11.324186055950122Z" fill="none" stroke="#542622" stroke-linecap="round" stroke-linejoin="round" stroke-width="41.625417947769165"/>
        <path d="M99.216509549523835,102.617017447942999c-9.378689673646477,1.102465774809389-17.410075134815088-1.586658645592252-23.940638887355817-8.509097275256863-1.263392815088991-1.423145909686355-2.762012727802357-2.68406078406224-3.148268390217709-4.691324935078228-1.291829132331259-2.480510060278903.746522974048276-2.911709138375954,2.263137177126737-3.473894461523741,1.811600688863109-.67153077203875,3.655265847800365-.429973537697151,5.409600891955961.389479009641946.93220098531765.890705392621385,1.864401970638028,1.781410785246408,2.796586028414822,2.672096442178372,3.54479063967301,4.159755024322294,8.195199402602157,5.6051463584663,13.456050475142547,5.244233700484983,3.618809209862775-.248261839898987,6.23619197654898.649536805653042,6.819486252313254,4.676893973062761.407040406016677,2.840550768520188-1.114792790847787,3.770832933299971-3.655953547379795,3.691613546490771Z" fill="none" stroke="#542622" stroke-linecap="round" stroke-linejoin="round" stroke-width="41.625417947769165"/>
        <path d="M79.800340341033007,86.332179785726112c-2.373104877329752,1.487004295508086-6.395373093904709-1.128442994064244-7.672716158254843,3.084416420857451-1.64743190156878-1.207529290468301-2.091049383582686-2.979399366555299-2.070870232390916-4.852148531235798.019807041687272-1.838009154194879.835872743237815-3.287765446926642,2.708669058374653-3.901467434170627,1.999744014383396-.655302281607874,3.721413864206625-.174068961352532,4.880669905369359,1.57905092373403.845726960488719,1.278975941333556,1.44506972495401,2.720877984778781,2.154247426901748,4.090148620814944Z" fill="none" stroke="#542622" stroke-linecap="round" stroke-linejoin="round" stroke-width="41.625417947769165"/>
        <path d="M139.394573675995161,86.403594741475899l1.358038641455096-4.495791164594266c.888225032212176-1.178103087326235-.672712411413158-3.309230047239907,1.544822265574112-3.970075692404862,3.539452437962609.092092090206279,6.03610898482566,2.517307396772594,8.835826173571149,4.135209227502855,6.261554723655536,3.618451384096261,12.663599786679697,6.908296171237453,19.381247855221773,9.583484060567571.532112669774506,4.375513583894644,1.064216638337712,8.750955581395829,1.596327963112344,13.126338569549262-2.671070286046415-1.259708925235827-5.342176562660825-2.519355360660484-8.013269392218717-3.779010694956014-1.795268406529431-.22974006754157-2.461140856445127-1.764211080997484-3.433529977827675-2.955071150407093-4.827507782682915-5.912066684024467-10.574996378220931-10.166323066256155-18.595263942243037-10.399731299799896-1.002029689256233-.02916279983765-2.287367996949797.240389029910148-2.674199586645045-1.245351855457557Z" fill="none" stroke="#542622" stroke-linecap="round" stroke-linejoin="round" stroke-width="41.625417947769165"/>
        <path d="M142.297434583024369,77.937727884476772c-.514940386002309,1.323381523199714-1.029880336946917,2.646766625717646-1.544817479908488,3.970115064921629-1.885030891731731-3.82482396319574-5.181072884707646-1.774126542948579-7.952046545955454-1.909806725037924.676780220387627-2.30241517095601.927090414713348-4.755034762003561,2.388689951409106-6.780851620394969,4.430904799513883-1.530766708561714,6.73490669217972.141195615289689,7.108174074454837,4.720543280511265Z" fill="none" stroke="#542622" stroke-linecap="round" stroke-linejoin="round" stroke-width="41.625417947769165"/>
        <path d="M167.158534261549903,73.979785093068131c-9.681712008053182,1.100127998750395-16.436534632222902-3.351242309734516-21.94871735018296-10.017506261116068-2.623910732232616-3.173272676498527.980104209765159-8.86521150860608,6.006676910929855-9.947514028423029,7.734916190351214-1.665451699189362,19.700360702956459,7.336472745559149,20.37151707517296,15.311431944597643.302692143980494,3.596672972753368-1.71519284986789,4.736325847716216-4.429476635919855,4.653588344941454Z" fill="none" stroke="#542622" stroke-linecap="round" stroke-linejoin="round" stroke-width="41.625417947769165"/>
        <path d="M139.394580834586122,86.403593871360499c11.378006784450918-.452364979504637,19.15458971186672,5.188811468167842,24.702930819650646,14.600176453977838,1.951344427249751,5.544721399808623,2.605010299029345,11.19029327356111,1.320044177355157,16.986516509585272.671554443872083,4.836024708605692-2.457753613913155,8.039791108234567-5.063799328019741,11.381826264305346-1.320583266632639,1.693528663499819-3.202098366350583,2.917359613076769-4.967347220153897,4.194682900646512-9.20385754797735,5.898174412604931-18.64464788148689,6.182146072851538-28.037092215537086.699338569173051-9.728900079444429-5.679196257999138-13.155296647921205-14.800054197710779-12.764119310239948-25.564111524663531.110456577163859-3.03945581616972.400305108520115-6.368184431083137,3.499619852806973-8.320818593823788,9.398753001340083-1.159518209818998,16.352941900187034-6.045996965192899,21.309763224137896-13.9776105792007Z" fill="none" stroke="#542622" stroke-linecap="round" stroke-linejoin="round" stroke-width="41.625417947769165"/>
        <path d="M155.475237761596873,132.512300696529564c4.611245249197054-3.95254355554971,8.217571887625127-8.59308144849274,9.942249964583425-14.521976525897117,1.974087729598978-.087372959062122,2.504539880991615,1.342881937069251,3.174260826421232,2.816140247436124,3.25493682418346,7.160449338864055,6.799604099769567,14.014654855780464,16.537903752644525,12.864788751632659-4.952356520050671,3.620077282172133-7.841406737954458,9.258885506507795-12.695607046204714,12.974828511976739-6.643049064507068,4.127704691183681-13.673229497549073,6.686818114449125-21.663696407636053,5.35632090035142-2.625894742600394-1.944748370415255-.830719132204649-3.994435429513032.078397401611255-5.788483900954816,2.209567171325943-4.360352393607172,4.201611404515461-8.755242610150162,4.62649150858033-13.70161798454501Z" fill="none" stroke="#542622" stroke-linecap="round" stroke-linejoin="round" stroke-width="41.625417947769165"/>
        <path d="M150.14396270375255,151.255075321596451c6.415253149040836.385213845358521,12.454021197540897-.930928750787643,18.215023015953193-3.792052611972395,1.198107924951728-.59503301672521,2.708598341019751-.561090927587429,4.075084693209647-.816973142966162-2.706285966358337,6.957289656680587-8.272775916097999,11.671383732109462-13.237482050315521,16.853718734719223-1.075872326757235,1.123044194759132-2.235211637123939,2.166126031665044-3.356055202870266,3.245979447345235-9.027326805627126,5.084410915875196-19.099061523889759,5.487620448351663-29.01830440053709,6.049255661793723-7.743234615931215.438408466236069-15.106637011249404-1.924782106192652-22.205051120176904-4.989262006010904-1.60623259924887-.693433770511547-3.205226256925926-1.28822512327497-4.199865283459985-2.837908217959921.132647623841876-4.588221127198267,4.347226056566797-5.298901674927038,7.059021520486567-7.446330796505208,1.182026942468838-.496999426062757,2.419647945830548-.763006891011173,3.686989790860935-.9095243299289,2.773747325669319-.319680896192949,5.537393037870061-.732091725494683,8.318509422136231-.954569842131605,5.13338024024597.182205587867429,9.843130684535936,1.540751667927907,13.664823590467677,5.169910128022821,1.974684199030889,1.875199665446416,3.955918433783154,3.875408088370023,6.926434686979519,2.273223642814628,3.141923536622926-1.69466025139991,1.935628612790424-4.512334161476247,1.477883256076893-7.07706724430318-.082786631477575-.463794322884496-.055834196600699-.930306697553533.004220621282002-1.402208320996579,2.123218399662619-3.01226987080554,4.714310979267793-4.830798803568541,8.588767459907103-3.366191101920776Z" fill="none" stroke="#542622" stroke-linecap="round" stroke-linejoin="round" stroke-width="41.625417947769165"/>
        <path d="M40.363011399423158,94.144627179955933c.121027294188025.768231983511214.370618759165154,1.450466942718776,1.177304007987914,1.760057536386739,2.87353258544772,4.022479840867163,2.371199916438854,8.983855774398762,3.614728040589398,13.459411462765274,6.320889078434448,22.74938483400183,19.168820487621815,40.785721532110983,38.162259460227688,54.606104816402876,1.55131450297722,1.128795833108597,3.283429780609367,1.845677084103954,5.078063787726933,2.448361457874853,2.300153301284809,1.981348784249349,5.314114870865524,2.531192919717796,7.910815848407765,3.920348768053373,5.71603076500287,4.953660995446626,12.991653871327799,4.933624684381357,19.837701086709785,5.898290254212043,13.066043961070136,1.841105805213374,25.772699270903104-1.213680310660493,38.494867229586816-3.624590264316794-9.548763192748083,3.553995525982828-19.328877211537474,6.006555066678629-29.590354183957061,6.009240217652405-6.086142284685593.00158137161452-12.172306741233115-.130833710380102-18.258514765777363-.203065195404633-8.65709785195213-2.63471800393927-17.558931833054885-4.520759975037436-25.461987323473295-9.309508704269319-14.499853798174627-8.786000035483085-24.770899257519886-21.266490609497851-32.621377447479972-36.084331926191226-6.109362526422956-11.531465697791646-7.762951830802194-24.051727265416048-8.975138212713318-36.721370928784381-.066318717194918-.693160839116899.408631376136327-1.438106263900409.631632472164711-2.158947494381209Z" fill="none" stroke="#542622" stroke-linecap="round" stroke-linejoin="round" stroke-width="41.625417947769165"/>
        <path d="M96.306182544362855,170.338911221439048c-3.370550945549439.887740763921101-5.987265625869441-.211079694086948-7.955464908124668-3.018901418256064-2.326158172750183-3.172484584818449-.354603153245989-5.760109217679201,1.140034629700494-8.419914344860445.56470927070859-.625557572093385,1.263544375511628-.972904560860115,2.106766123169109-1.026144163717618,5.346353610088954-.200493850870771,10.750907771669517-1.857295439138397,15.990367372422043.629854405175138-2.06405031187569,2.516518032101885-5.849752973771501,3.123172537339997-7.170612877026542,6.464061342012428-1.352517693453592,1.80397174601967-2.135455101586558,4.043965573755486-4.111090340140436,5.37104417964656Z" fill="none" stroke="#542622" stroke-linecap="round" stroke-linejoin="round" stroke-width="41.625417947769165"/>
        <path d="M58.114649051452943,105.409473170215279c-1.088388265343383,3.656819590943996-3.70688484247512,6.784673522433877-3.736221099592512,10.807618073187768-1.727398477241877.398488246602938-2.710946945326214-.705230105850205-3.313054420802473-1.967154720452527-4.434590346075311-9.294236267052838-6.703996086874213-18.9909348662095-5.159000103632934-29.346407830653334.248694703169349-3.207550493738381.497387616690503-6.415100769947458.746129967839806-9.622722434833122,3.098772527602705-2.659125732330722,3.921420137952737-7.102108737837625,7.410536863404559-9.45500008257477-1.953123663261067,12.804809855146232-.675041324633639,25.38163934901786,2.7301617975927,37.794644902052823.182971595526396.666984710815086.869388292048825,1.195853734347111,1.321446995190854,1.789022093273161Z" fill="none" stroke="#542622" stroke-linecap="round" stroke-linejoin="round" stroke-width="41.625417947769165"/>
        <path d="M45.906373427425024,84.903528692297186c1.21866508810308,8.922146718328804,1.388652049701705,18.057743660252527,5.204375749929568,26.456816164860356.805738536367244,1.773576988060086,1.024748700179771,4.02018399825829,3.267704749096083,4.856735964674954.11039068131322,9.745085076730902,2.960729987957166,18.124215840540273,11.481439610456619,23.87749092802369,4.030219889094042,2.721238419835572,8.616970047691211,3.514912258384356,13.192671673928999,4.477068376067109-1.129747554921778,3.430700757204249.708963298075105,5.573325659910552,3.095731277040613,7.656708469658042,2.674631110638984,2.334654512307679,6.167576871740494,3.803253709191267,7.835115114408836,7.229251862134333-.650773915405807,2.598700037364324-2.371627464889571,4.975186647305236-1.632690485563216,7.862437980025788-6.863676156583097-1.052775723659579-11.215035419330889-6.25731836626619-15.778092858486161-10.490682120915153-12.812959058691376-11.887196401103211-22.221565817546434-26.174934746033614-27.363058517113132-43.064800576694324-1.7791784177507-5.844622708464158-3.245927518942153-11.742170834959325-3.669298056560365-17.859902031352249,1.791377258977263-3.533676747842037,1.101183405201482-8.052251649674872,4.366101742862156-11.001125016482547Z" fill="none" stroke="#542622" stroke-linecap="round" stroke-linejoin="round" stroke-width="41.625417947769165"/>
        <path d="M150.14396270375255,151.255075321596451c-3.125391902158299.369890532405407-5.932438974968136,1.414044176659445-8.095469872026115,3.822236536674609-2.77451193205161.222009518578488-3.745314330031761-2.587443084494225-5.864560697506931-3.470435770650511-1.486175300551622-1.04318422992219-3.315107763577544-1.400172863293847-4.822171981899373-2.403406411620381-5.440789210508228-2.380154954604222-11.065622057441942-2.858595468467684-16.89372401412038-1.870802925375756-2.281427857134986.386676706990329-4.602104930678252.824572675648596-6.946425973149417.375925542968616-4.265319521357014-2.49953832671963-7.06760751233287-6.531883723861029-10.416208151506908-9.995361581757606,10.002674191538972-11.692463273411704,10.696415255261854-23.266846518681632,2.107360071851872-35.096564114224748,1.941790323664463-.517742235815604,2.890181136317551-2.01592717985659,3.659700141387475-3.691269854796701,4.166442914240179.169942201362574,7.731080091839431-1.2260630294968,10.719974931005709-4.119832705904628.084084857988273,2.998295146437158,1.019003839088327,5.310582311478356,4.493353466325061,5.575158925337746-4.611484609409672,11.039192371856188-2.365022896718983,22.542757550896567,5.601908703182744,29.816245541425815,7.866229865024252,7.181542078966231,20.95660555646009,9.266876188630704,30.422980061062844,2.634768774356417.355138947465093-.248807242063776.905278869050562-.219255462890942,1.364559243359508-.319429422861504,2.118380773863464,3.669889362983668-.338362862304166,6.712782780836278-1.462744898000892,9.877535428027841-1.077691030359347,3.033294320179266-3.417361458480627,5.53860840688867-3.868531029965197,8.865232038400791Z" fill="none" stroke="#542622" stroke-linecap="round" stroke-linejoin="round" stroke-width="41.625417947769165"/>
        <path d="M86.097294411485564,131.302906801720383c-7.40374850790522.909689991456617-13.772861295497023-4.024817077588523-14.65948222597126-11.357508939467152-.889558178992047-7.356961307632446,4.118250467610778-13.756923667937372,11.473899415853339-14.66358699506236,7.369555991256675-.908379032975063,13.668339982611542,4.047069822441699,14.576642615364108,11.467882044882572.927281614052845,7.575913795772067-3.804345564546566,13.621048321205308-11.391059805246186,14.553213889646941Z" fill="none" stroke="#542622" stroke-linecap="round" stroke-linejoin="round" stroke-width="41.625417947769165"/>
        <path d="M97.105402013543426,137.713230711835422c4.444206141669383,1.822117338697353,6.864187116621906,5.756159281634609,9.679518102068869,9.277721106398531-2.427868481418045,2.940151965953191-6.30236215612058,3.812949849958386-9.022713836498951,6.331111618437717-1.436880140787252.874611864071994-2.600755581256635,2.043054741052401-3.600331695686691,3.38787680567475-.866232410053271.889495815317787-1.576593731921093,2.058990398239985-3.108963794491501,1.784916920667456-.356505859058416.320963606023724-.713004559525871.641926341932049-1.069501223321822.962816186269265-3.375907669063054-2.559503715769097-6.983682240412236-4.873938414501026-10.042271715341485-7.768660741692656-1.886994060511825-1.785892832542231-5.081806418942506-4.217151512524651-.888753363588876-7.117096260890321,6.716355819339697-.447621209616045,12.81630058891551-2.517043095642293,18.053017526860458-6.858685634864742Z" fill="none" stroke="#542622" stroke-linecap="round" stroke-linejoin="round" stroke-width="41.625417947769165"/>
        <path d="M137.552745188309927,125.057933859183322c-7.384370636448693.867621620580394-13.739305302179673-4.11624076381122-14.622131627575072-11.467409922825027-.862130515983154-7.178817392381461,4.348816075312243-13.716767771249579,11.613508395851568-14.570982408613418,7.419275490481596-.872379235377593,13.592794674528704,4.067185133244493,14.454802449003182,11.565604273160716.873222717743374,7.59603461002007-3.860555143324746,13.581523318936888-11.446179217279678,14.472788058277729Z" fill="none" stroke="#542622" stroke-linecap="round" stroke-linejoin="round" stroke-width="41.625417947769165"/>
        <path d="M91.052910788935151,158.494857163013876c.791945966578169-.862581461544323,1.583890192917352-1.725177240366975,2.37583615949643-2.587758701911298,6.364234075825152-.879368401836473,12.710857658485111-1.671493813993948,19.172006150542074-1.836783017211928,6.248717735649734-.159845233112719,12.26201885546925-2.543556168166106,18.557109483132081-2.892580317804459,1.872472830639708-.103817919076391,3.725988551008413-.583654393421966,5.61500714151498-.19359358892325,2.214642310321324.776495322914343,3.458471952159925,2.804252511166851,5.275607050682993,4.093157744056953,1.836054011904707,3.202664187569098,3.071526520964653,6.600689666389371-.643912596271548,9.142859272187707-3.557641023440738,2.434189458868786-6.304035245530031.570614994177959-8.865841684022598-2.376913739786687-3.159686150381276-3.635440247042425-7.753797343291808-4.484206105464182-12.268975284699081-5.25755814799777-3.14803434400892-.077386983144606-6.2389418601324.322091494310371-9.283064138292502,1.112098283650994-1.133027172529182.268651197971849-2.266054345057455.537302395949155-3.398940283657794.805980013574299-5.51140597727499-.20721584182138-11.023577814533382.745045342973754-16.534831998425034-.00890779983456Z" fill="none" stroke="#542622" stroke-linecap="round" stroke-linejoin="round" stroke-width="41.625417947769165"/>
        <path d="M110.986683071017978,157.697784949274137c2.951033135530452-1.567940110579002,6.043030476866988-1.95910982008354,9.283205372221346-1.112071863997699-3.094494786530959.370682553082588-6.188850079376607.741377208540143-9.283205372221346,1.112071863997699Z" fill="none" stroke="#542622" stroke-linecap="round" stroke-linejoin="round" stroke-width="41.625417947769165"/>
        <path d="M96.807834439859107,152.86160648549594c2.674500548397191-3.063506312051686,6.516383013142331-4.143044319182081,9.977031017399895-5.870626230422204,6.87838353497591-.933929713633916,13.753721492724253-2.560731069617759,20.681153123177864-.463441646801584,1.713894695378258.518896294715887,3.697324679328631.561873465365352,4.935351622149028,2.19818178056812-.756513971516142,2.472504663222935-2.941031836730872,2.588295447087148-4.925791905513506,2.8579436443124-8.235969781159838,1.118941031045324-16.484820215771833,2.143564850437542-24.750996289485556,3.014531278129652-2.173114568268829.228971606267805-4.451983127868516.563730927091456-5.916747567727725-1.736588825786384Z" fill="none" stroke="#542622" stroke-linecap="round" stroke-linejoin="round" stroke-width="41.625417947769165"/>
        <path d="M96.807834439859107,152.86160648549594c1.483791572823975.604260994026845,2.991277968031682.733855370466699,4.598600301086663.53093295380495,9.020442209688554-1.138822524126226,18.047700942224765-2.224193978219773,27.07598080464777-3.299730054659449,1.422029583268341-.169402077799532,2.795308301385376-.385777937637613,3.918960945462459-1.367097024556642,1.323403175675594,1.01168950975989,3.461948307271086.445536482553507,4.371477175143809,2.258416600026976-.990058933256478.43323236562901-1.943152310978803,1.1013191254915-2.975838772195857,1.263932534193373-12.422217191587151,1.955905669203275-24.883808622702418,3.608252431160508-37.426465893970999,4.594224016105727-1.129725388850602.088819156457248-2.19108192611111.103323837900462-2.941706003503896-.935024378164599.831519542028218-1.342367188202843,1.91016487838715-2.410473607416861,3.378991443330051-3.045654646750336Z" fill="none" stroke="#542622" stroke-linecap="round" stroke-linejoin="round" stroke-width="41.625417947769165"/>
      </g>
      <g>
        <path d="M110.099404289117047,33.295578987186673c.666571437653147,1.37544934905236,1.941281183238061.479313568559519,2.896785150156575.775526905224979.442225564092041,2.583114901121007-1.81292361323176,3.02026233435754-3.280311430908114,3.961294572758561-11.329360627893948,7.265499418437685-12.923572482769487,21.459595473930676-3.508323106430908,31.413746837439248,1.463382249556162,1.547143903393589,3.359797213083766,2.221756712204296,5.233443934404022,3.034890465667559,6.89114720863563,2.990666330582826,14.111608477063783,5.180773090229195,20.834771059027844,8.58994324698142.213208466178912,1.613954462929541-.667068617319273,2.339761494176855-2.111445305654343,2.61523046556249-12.413662998399559-2.613759717612993-24.802036847171621-2.926129021861925-37.223873118943629.092784689713881-3.491860723104764.848634764159215-6.358476059666827-.990792490960303-8.967234168207142-3.140863582309976-6.002817564030011-11.837323995850966-5.295871920755417-32.617789192099735,5.152888155659639-42.098105100261819.959101976077363-.870204236616701,1.708887154749391-1.798275871387887,2.207485765458841-2.963494166066084,6.255268635614812-.760317821532226,12.510544429821493-1.520636513179852,18.765813065437214-2.280954334710259Z" fill="#fac249" stroke-width="0"/>
        <path d="M91.333591223679832,35.576533321896932c.234779257214541,1.450640603479769.068996151027932,2.663186920597582-1.125178572230652,3.814958000804836-7.59660797590368,7.326808168430944-9.370481482164905,16.585146519886621-8.480503812551433,26.615315075954641.426846517731974,4.810586353378312.894942464889027,9.640347545710028,2.654649219274688,14.214330563323529,1.218548867384925,3.239517455640453,1.978605380482804,6.421188634052669-1.146024239615144,9.114323695934218-2.093900480024786.450042489546831-3.059529059776651-1.109559451439054-4.202328614025646-2.354773099428712-.26828369602481-.36779709089933-.492523283320224-.768970100703882-.71771967053246-1.170484470307201-1.21014676269624-2.157612605285976-2.52087402730649-5.027939855603108-5.449770594638721-3.385843938809558-3.164245231202585,1.774041909970038-1.40423085207658,4.454060017105803.052962593247685,6.704612651272328.72476262688815,2.047538586124574,3.641694590907719,3.21475880921389,2.439771553527862,6.040811795421178-2.27361429202665,1.083992141680937-4.544097872088059,2.18334207603948-7.184686892572245,1.436089348278983-3.77316756840537-16.105603929727295-2.976463042499745-31.763060517960184,4.319757754007696-46.879642723968573,1.904915559099209-3.946682336634694,4.661428164000426-7.043826771925524,7.934429320785057-9.801830204940416,2.750147269978697-2.757693221350564,7.35895869173055-1.14007262472478,9.966351302050498-4.233818976799739l.938290653272816-.114047716735513Z" fill="#fcbb41" stroke-width="0"/>
        <path d="M30.821769490748011,109.58282132093882c1.52408928892055-4.519330506636834.133083487935437-9.447399524715365,1.952493660591244-13.925321681132118,2.542027567073092,1.680562216666658,2.650758604490875,4.461383840034614,3.193404597273002,7.049286277915598,5.393098766931871,25.719899125089796,17.862430599278923,47.171200057786336,38.488350301151513,63.676122816073985,6.294440144129112,5.036824011955105,13.724742993822474,7.521392690461653,21.431607635814544,9.402250034316239,1.632071169970914.398307783272685,3.974463456304875.022614412557232,4.273479173464693,2.686767174904162-1.563735360924511,1.502790435679344-3.475911465171521,1.128547668195097-5.288346983588781.855346438542256-5.822477629466448-.877641135708473-11.634311974423326-1.834014464619031-17.240563740504513-3.719663242029128-16.173516438594561-5.752561649496784-25.609865716330205-18.700590444248519-34.270746196018081-32.369765006442321-5.143621714561959-8.118002156468719-8.611363462473491-17.049282538218904-11.627290338936291-26.148645134737308l-.912388109247331-7.506377677411365Z" fill="#db8659" stroke-width="0"/>
        <path d="M31.734157599995342,117.089198998350184c3.572559261971037,3.779949408139146,4.214216021448919,8.956516541080418,6.316280905732128,13.433647971371101,6.669030972535438,14.204203118073565,15.03620507942378,27.086013271435149,27.328114737369106,37.124217771684926,3.698443899071208,3.020359557254778,7.991358739130192,4.910038843039729,12.351256140555051,6.69221402383846.430633065924667.380513867768968.454852735010718.785335386441147.074743820384356,1.215300810552435-2.556594789265546,1.238414037496113-4.919066689252759.061820861334127-7.189354376970186-.795839170406907-7.138047665949671-2.696515077930599-14.133720066872229-5.738701112783019-20.901633537762791-9.281018489164126-6.329368604516276-7.078292068508745-10.208703097050602-15.480812697613146-13.301383077785431-24.339264225183797-.631155924869745-1.807836823674734-.567719595374001-3.99749028171027-2.397054338403905-5.283314499161861l-2.280970273118328-18.765944193530231Z" fill="#d17d5c" stroke-width="0"/>
        <path d="M75.954223391995583,185.1050578016293c-3.003639055957137-.531049072449605-5.456777824477285-2.185617753939368-7.895849441661994-3.868890790674413,1.978524591480891-2.137643021078475,4.37223830336734-1.191133340984379,6.584066634663941-.731982786281151,7.178296879401387,1.490090856303141,14.378046029851248,2.790283426267706,21.682680022417117,3.502793626852508,2.958545436654276.288610637591773,5.898734605251775.489940495710471,8.860430128096596.103901034553928,11.12222357119299.105437747080941,22.273694065938798.952924210518177,33.209611570951893-2.134565599348207,2.195334750697839-.619787608211482,4.738959914387124-1.055071156119084,6.379300001494812,1.490852618719146-3.805425918313631,2.990380735420331-9.013186541184041,2.523269224195246-12.928132792144424,5.243606737820301l-5.629743919631437.684286300413078c-2.538282280835119-1.502868901989132-5.292446239113815-.463806465217203-7.82793547843994-.30744782407055-13.108206868045272.808275673267417-25.983335836061997-.431558538140962-38.724968763577635-3.454103471030976-1.218818131614171-.289127999352786-2.498893410030178-.168929075969572-3.709457962168926-.528449846953663Z" fill="#d17d87" stroke-width="0"/>
        <path d="M75.954223391995583,185.1050578016293c2.970347117850906-.843513389701911,5.949441480554015-.294312879183053,8.809424888283502.333858731743021,12.429421751435257,2.729992491245866,25.027461247433166,2.580991395669116,37.629452635873349,2.499824384874955,1.482838577861912-.009537734835249,3.234938503638659-.837012901873095,3.823484680029651,1.456318025437213l-18.765813065437214,2.280954334710259c-6.339176791209866-1.271855207354747-12.902570876986829-.773523860401838-19.19323129919394-2.475706071491004-4.182557321139029-1.131758921750588-8.506186594196151-1.81445852437173-12.303317839555348-4.095249405274444Z" fill="#c97793" stroke-width="0"/>
        <path d="M181.532448037502945,79.808565254503264c2.232299418274124,4.014846050202323,3.615704760540211,8.305595847572476,4.180432775559893,12.862423646995012-5.012952128529832,4.294496240967419-10.124652985739885,2.121715788887741-15.233707188218432.245509726157252-10.090907441472154-3.862600992064472-19.210107911341765-9.614150902056281-28.631176809693898-14.782559123172177-1.306089696072377-3.316569230719324-3.898671064598602-4.424614025507253-7.265039262755636-4.209422339608864-4.441721619989039-1.674018503927073-8.44464390455687-4.220459045223834-12.111344475320948-7.087551582397282-4.986611348731458-3.899176381748475-7.740090166807931-9.404850829001589-6.191877244201351-15.695141702641195,1.6811936718168-6.830571043174132,6.399854337080797-11.286178254409606,13.518497460387152-12.875624214782874,2.77702468364987-.620050905696189,5.605148346388887.127874029263694,8.359231827668737-.5242738819652,6.783676567587463,1.711678237275919,12.855867403352931,4.845461090939352,18.331525030364901,9.171563613632316,1.294979243562921,2.698571352186264-.967901524968511,2.066442413568438-2.090694933269333,2.028305358137004-2.366048242299257-.080370742167361-4.570097850161801-1.137153824069173-6.916405800910979-1.45518523899409-4.882437779855536-.661797983490032-8.997509698921931.461077785414091-12.034189709695966,4.689937614255541-4.020025506225466,5.598262291172432-3.644678333156662,8.882817219120625,1.784894536921456,13.178501643364143,8.072854657260905,6.386945448230108,16.532332545677491,11.911181462734021,26.795798641413967,14.387362280271191,5.941804489489186,1.433537947554214,11.660214906077272,1.817833668877938,17.504055151750435.066154200749224Z" fill="#fad864" stroke-width="0"/>
        <path d="M138.157465120928464,37.741925783087936c-1.666634979321316,1.54830080215288-3.848787325169724,1.258742853964577-5.792912225414511,1.355238340745927-6.471125310624302.321192757386598-10.705501440481385,3.919284947742199-13.891739856569075,9.080958716900568-3.294248988344407,5.336631350544849-.599963810214831,14.475156172840798,5.469196457863291,18.397169859052156,3.653923129912982,2.361245336443972,7.491948260681966,4.437603329537524,11.247240847567809,6.641987576838801.520299662349316,2.547827641776166-.924274788345429,4.599023669161397-1.715862152988848,6.819190995494864-.378781884081945.580584041525071-.87077876629246.996155896908022-1.588742250697578,1.074578792626198-7.322429314181136-1.220464372121569-13.638032340374593-5.256387543942765-20.621253924013217-7.37309848377663-3.911315956628641-1.185565807938474-6.633406268610088-3.411696772749565-8.383484938313813-6.938153815382975-2.799162937698384-5.640373598222141-4.758766853121415-11.624188485582636-3.922382022870806-17.922202513596858.57608198633352-4.337893084259122,3.929447741820695-7.293905776607062,7.261863715852087-10.029619354143506,2.152335051503542-1.766935308294705,5.246905425196928-2.163292633114906,6.776815509024345-4.776927200404316,8.66048033282641-.650412095095817,16.89053634047832,1.649623641569633,25.161260840560317,3.67087708564577Z" fill="#fbce56" stroke-width="0"/>
        <path d="M181.532448037502945,79.808565254503264c-4.002438270311359,3.641375870925913-8.666893814172909,2.811824396279917-13.364987543919597,2.051087405548969-13.67221004421026-2.213857451682998-24.655569729786293-9.554827730700708-34.995458597516517-18.176309239543116-1.835269538788452-1.530258239456089-1.983426039540063-3.547450205232963-1.722847600615751-5.569670784783739.982950310239175-7.628086643015195,8.211676427927159-13.081772205818197,15.79581291681734-11.921238416904089,1.99993810813794.306032297618003,3.915373846783041,1.263595308962977,5.912877159921663,1.444529086904367,1.006221954868124.091145249909459,2.795105066833457,1.886073894465881,3.331128771923431-.723733360260667,12.178879992721704,8.048624565950377,20.015864466337916,19.402554313670407,25.04347489338943,32.895335309038273Z" fill="#fbe16d" stroke-width="0"/>
        <path d="M170.514517313028591,91.656492758942477c4.920453261072907,2.521159103453101,9.99121251343513,2.79054316021211,15.198434215809357,1.014480282765362.132482339024136.275954979828384.240493073492871.561189944179205.324053876795915.855644143481186.579159371738569,5.346719100238261,1.158224614070605,10.693500492563544,1.737289856403549,16.040281884888827-5.646029926319898,3.217255936451693-12.725372555683862,1.018016332818661-16.815341112636816-5.219615755921041-.620691057422846-4.213763704554367-2.474964119259312-8.385877936480028-.444436836372006-12.690790555214335Z" fill="#f9cd5a" stroke-width="0"/>
        <path d="M172.110858248317527,104.782698992519727c4.384456565157961,4.335954248434064,9.521054014729089,6.20890691108616,15.664114666988098,4.784037801477098.206228491834736.947701988712652.41313550706036,1.895248859987987.620211322830983,2.842869651043657-.385843324107555,7.093600470874662.334218920200328,14.291153970350933-1.99380124124491,21.202037428380208-.375062544032517.332379551364284-.808848192947153.54488600708828-1.300311305990363.642775192676709-7.881177590243169,1.284501071573686-12.857881824129436-2.165134292607036-15.664143020992014-9.419412578150514-1.016474001874485-2.627652386012414-2.759392403738275-4.877905242714405-4.68299690713684-6.955495987549511.091874890294093-5.455037023757541-.265286761164134-10.877425607422992-1.230286533769686-16.254997317148081,4.16735539115507-2.503911559177141,6.04288146188992,1.236678293220393,8.587213019314731,3.158185809270435Z" fill="#f8c251" stroke-width="0"/>
        <path d="M175.954066702171986,158.636098234383098c-1.756953163477192,3.194705350744698-3.955689199950939,6.033498159336887-6.756834300325863,8.386952993736486-4.591783123541063,2.935050511339796-9.456158347758901,5.281735554255647-14.699699754588437,6.821085756964749-7.254229075922922,1.309831028689587-14.422319837459327,3.029989800646945-21.795826571738871,3.731556231685317-10.291358025536283.979223897982592-20.374054205011817.132211115642349-30.314318588081733-2.588081411580788-2.417771398365403-.661654088029536-4.89849012427203-1.346690552702057-6.246801312960088-3.817473135901309.147422594315685-3.15419353190191,1.433353708211143-5.500815115621663,4.628513596066114-6.489264794166957,18.084328294606166,9.308022562652695,36.4020591198896,8.2559967370089,54.848362081071173,1.207503372501378,4.738755350403153-1.518021122890787,9.054711097782274-3.942797124906065,13.459895328301172-6.190604870971583,2.128271900762229-1.086001639499955,4.269764468829635-2.782686702326828,6.876709522256533-1.061674142267293Z" fill="#ea9e49" stroke-width="0"/>
        <path d="M175.954066702171986,158.636098234383098c-5.213271990633075.342246081339908-8.925038435852912,4.170654587796889-13.565975396763861,5.862086394472499-2.17066843073917.791106033206233-4.110001252220172,2.229726514251524-6.547500679339464,2.247498019713021-.47469920340609-2.180434096253521,1.460720845660944-2.873701793481814,2.573819009203362-3.990563001018018,5.034965906444995-5.051936023161034,10.00230328098678-10.144730203244762,13.397000417770869-16.522317255106827,2.761891300378011-3.39346433906212,5.964050230111752-6.39363822528685,8.700206117798189-9.822047194245897,1.121479990029002-1.405237931943702,2.445831724622622-2.903289211591982,4.617862588012031-2.739495463016283.423667550332539-.01987416857628.847321653604013-.039739438285324,1.271454314635776-.059612025104798-1.82731891074036,9.032293800431944-4.790348323599574,17.590634620171841-10.446866371316901,25.024450524306303Z" fill="#ecaf43" stroke-width="0"/>
        <path d="M77.840128668854049,175.287385805657323c-.036763003136912-.31602237799234-.073522426979252-.632045191043289-.110303227779696-.948094463361485,7.313048016430002,2.135891319654547,14.665842617871931,4.046346163686394,22.373498639496574,3.943417221307755,1.683810865791202-1.502914732152931,3.579781139907936-.540247045628348,5.402705859137313-.476227930023015,17.000034989133383,1.993238589322573,33.674400572775085.247861121139067,50.103026317611693-4.329675936485728,2.069390147709782-.576598472049227,4.151976209992426-1.796596222757216,6.090181953170941.284101442666724-1.570907053961491,2.282740137921792-4.235240063131641,2.986281254623464-6.390597898941451,4.424920210087294-4.578982217362864.977932248804791-9.064977323369021,2.314363682686235-13.646532126047532,3.32707094541729-15.829693490158206,3.499025017355962-31.641983941600301,3.025982934675994-47.528592466103873.936084826149454-3.865405240482687-1.997026185043069-8.280403804319576-2.360028225370115-12.245875343520311-4.051235350138086-1.582281591102401-.674813291147075-3.761813833447377-.700049381126519-4.047511707023659-3.110360965620202Z" fill="#dd8a65" stroke-width="0"/>
        <path d="M93.766019332676478,180.965671049418233c7.920994261202395,1.567973550527313,15.954066996408983,1.780807133236522,23.98279267736234,1.813125681235761,11.576367847726033.046619570270195,22.946708284195665-1.450698506800109,34.013020510101342-5.002207565948993,1.135871884537664-.364538375586562,2.472776487602459-.636627735304501,3.546748584828492.409287968017452-3.127494456966815,2.527324624541507-6.662367829569121,4.24201181060198-10.535097942818538,5.280942864632379-2.287864673832701-1.119468338538354-4.716374894556793-.822746781948808-6.937208526586801-.140393435794977-10.878789948581471,3.342573006608291-21.994045616467702,2.207155101972603-33.065983337436592,2.008141797763528-6.713148639929386-.296454448674922-13.349030417910399-1.310870274241097-19.907335795009203-2.646968416876916-1.928241706227709-.392833746667748-4.988804267891283.254086707511306-5.46638124049241-3.088040309023199,1.490415250351361-1.369134193248101,3.130145084723154-.935667762041703,4.830139865312049-.490159543742266,3.137041446289913.822103878090275,6.303179577215815,1.527869475832631,9.539305204739321,1.85627095973723Z" fill="#d68376" stroke-width="0"/>
        <path d="M161.699238210490876,173.760906139761573c-4.432789262013102-.855080424536936-8.182336462978128,1.719943878275444-12.236987199679788,2.631340421681671-14.486702357506147,3.256212356440301-29.030997349645986,4.385318213719074-43.786688538858471,2.789046534519002-.267922850911418-.028978418078623-.504909362900435-.343953622203117-.756331567493362-.525485122241662.497603168370915-.767483466808699,1.246916837522804-1.153002053972159,2.0944192226616-1.392483648078269,5.784832813184948-.426261709822938,11.5425936014326.411765525968804,17.331543512079406.425240644342921,7.906220277359353.018398266349323,15.585727247066643-1.28640415866721,23.122522226708497-3.283258027398915,2.374536384323619-.629132622745601,5.026306104144169-.292787681935806,7.170945413571644-1.792655785198804,5.059556000729572-1.324683838767669,9.296447630423245-4.792112798950257,14.558508237681053-5.58951964172411-1.956083092311928,2.850342602308956-4.560927065896067,4.978873248650416-7.49793130667058,6.737774624098165Z" fill="#df935c" stroke-width="0"/>
        <path d="M80.428949268356519,39.924400015432184c-.211063192801703.73303955382471-.212561914311664,1.645364934476675-.663852831286931,2.17287825848689-11.083208796607323,12.955070763297044-14.128436914339545,27.984127047689981-11.801845541152943,44.515074010330864.447750102993268,3.181333594964599,1.670981640671016,6.430659077002929.273483869815209,9.699360139258715-3.190633017996333,3.822639591689949-5.890414191900163,8.261275276518063-11.450263637530043,9.118959363373506-1.379628361220057-1.186211210479087-2.088605018727321-2.810802774389231-2.363617877403158-4.486638207565193-1.845050573529079-11.243143177511229-4.056242198533255-22.48053081746184-1.694282379169636-33.929492236664373,2.310560421955415-7.789787858851923,7.151538473174696-13.825223468276818,13.174620302203039-19.084209193837523,1.507207348890915-1.315998484786178,3.433080554538719-2.24349780994271,4.333650209127882-4.198646137498145,3.097090990157085-2.07294839230417,6.370311397512523-3.674396780148527,10.192107885396581-3.80728599588474Z" fill="#f7b138" stroke-width="0"/>
        <path d="M106.789828517933529,178.418705550599043c-.623563492506037.079018531794645-1.247119826421113.15803619347389-1.870644045496192.237079009251829-1.605192061255366-.124336279886847-3.210428814290026-.24868165636326-4.815763849717769-.373058673185369-4.047401194328813-1.140341377611549-8.136311588319586-2.151924622748993-12.134518511151327-3.444158251668341-14.292247729224982-4.619282322510117-24.19550064730447-14.976257067031838-32.824583769391211-26.440925780014368-10.58335150881976-14.061118821447963-17.969458517211933-29.745813064699178-20.660013047511711-47.378814378380412-.279359447818933-1.830830682234591-1.125760048311349-3.575144045986235-1.709551337876292-5.360464914425393.310119053752715-5.384272121902541,1.74882159806657-10.471292382413594,4.02881137190252-15.337278461312962,2.007654292698135.567875048627684,2.440036201349358,2.282083896825498,2.651232622336465,3.968131482835815.385231789401587,3.075419058659463,1.375603068378041,6.028543886301122,1.717190559745177,9.103133052052726-.071076737020121,22.677247475261538,7.362907958068718,42.44271854516046,22.522574982680453,59.418967717136184,10.634867094632682,11.909265375292307,23.498844987055236,19.731116410035611,39.094876458832914,23.137076718685421,1.516353138699742.331157115624592,3.643412854548842.08701447878957,4.000388565646972,2.470312479024869Z" fill="#e08e54" stroke-width="0"/>
        <path d="M40.36301229424771,94.14462707119128c-2.263246816568426-4.330565553795168-1.137793419124137-9.533712334248776-3.559461381546498-13.823512160479368,2.176142584037734-7.126739883215123,5.862390054471689-13.381612941086132,10.889590666134609-18.862316242282759,2.058694271688182,1.516651247995469,1.456956381523014,3.630296497578456,1.167412156629325,5.604562273278134-.38739839039863,2.641470547165227-.552524579343299,5.300985348458198-.829448990989476,7.948518350553059-.248219351584339,3.224011964342935-.513050144659246,6.44844485431895-1.342036643271967,9.593368770383677-2.490537060518363,3.524333874716831-1.721697713889625,8.540989546958372-5.278517397593532,11.583501849698223-1.363876033836277-.161422602624953-1.613522665962591-.894134814012432-1.04753840936246-2.044122841150966Z" fill="#e19646" stroke-width="0"/>
        <path d="M46.652553267951589,75.280738448107513c-.020912584179314-4.6346960189112,1.810392884340217-9.129905872763629,1.040698943834286-13.821462879839601,5.971410188250047-7.871738856210868,13.40273599203374-13.886494347338157,22.543573183435001-17.727392382879771,1.233833866063833,2.041383388512259-.687286952667819,2.533267309259827-1.721310735110819,3.3837414482241-6.247053981661338,5.138129805141944-11.472306255941476,11.053937603648592-14.452519854207821,18.71033053791507-1.219683189878197,2.352947321827742-2.550855195504482,4.643476635596016-4.019504636286001,6.847125745824087-.820472671014613,1.231081375564827-1.329957876259868,2.954602281988628-3.390936901664645,2.607657530756114Z" fill="#e2a03a" stroke-width="0"/>
        <path d="M93.766019332676478,180.965671049418233c-4.928814956901078,1.275594161112167-9.50822372224502-1.99497785578933-14.407222631467448-1.107352737462861-1.876523512830317,1.026315365390474-3.682433394286818.121654681546715-5.375451908109426-.420024966146229-5.448687149384568-1.743370974316349-10.946462414016423-3.359764968508898-16.240045289328009-5.561179798320154-3.094172142587922-2.400420700016184-5.935219582441277-5.042813506544917-8.029419285931908-8.399415381516519,6.175913582547764.333045589673929,10.897484295318463,4.468541488027768,16.49147573940445,6.377095943198583,3.845635184180537,1.312042483712503,7.529604718233713,3.036768340993149,11.634833856052865,3.43249709166048,4.858852509340068,3.154198710488345,10.788214231650272,3.305963488179259,15.925829519379477,5.678379848586701Z" fill="#d07e68" stroke-width="0"/>
        <path d="M57.743299503771595,173.877113547488989c7.676178117106247.291344193617988,14.276165187906372,4.471997266748076,21.615429289646272,5.981183960942872,7.47904191068119,2.946573677152628,15.375659333860312,3.873346661681353,23.273379641440442,4.767746178897141.797393933427884.090310734645755,1.551423629471174.083057455980452,2.138256189407002.708530288124166-10.129527553089247.701725529721443-19.909807126280612-1.613612033641402-29.744395507452282-3.450743508841697-2.304852147031852-.430554384443894-4.570528063105485-1.227681353666412-6.967448563609651-.647637688591203-3.895894907895126-1.811913582885609-7.396587604944216-4.177552869119609-10.315221049431784-7.359079230531279Z" fill="#cb7a79" stroke-width="0"/>
        <path d="M82.596909006844726,89.004252912896845c3.144271829812169-2.409464941762053.293378462343753-6.037795074995302,1.785645036973619-8.783119095178336,3.923018324495388,2.106242933621616,7.720741890844693,2.560883808922881,12.357789543118997,1.548957399625579,10.581321979133463-2.309115641206517,21.355294895969564-2.436324343025262,31.935539778562998.656053069122208.702149170439952.205223692266372,1.31498523476057.71598369217827,1.969359795274613,1.084630028859465-.391529326522686,3.856380801904379-3.924523230213708,7.264734503280124-9.12974542523898,8.514520876124152-2.631560702916431.631846210073491-5.283204199157808,1.044380333612935-6.971445432595829,3.485972897782631-3.473922209098419,2.873200569214532-6.978490909446919,5.672665857724496-11.9670342913696,3.851942430266718-1.917133100043429-3.083864927002651-4.674564242082852-3.992412724855967-8.286411509727259-4.099252897385668-4.738910982572634-.140186711034403-9.720123482131385-.607669552437073-11.69369749499856-6.259704709216749Z" fill="#fcbc4d" stroke-width="0"/>
        <path d="M113.592347378987142,94.805662122198555c1.217369486237658-2.302430942972933,3.312944132370831-2.970677979075845,5.724374453888231-3.397041627962608,4.945499132392797-.874407862826047,8.928534392184702-3.292272186266928,11.328396151393463-7.897860021512315.728007158149012-.63742985438148,1.310978987829003-1.349706728384263,1.23953507519218-2.399831135875502.305307520206043-.370890721213073.610622159186278-.741902170322646.915936363103356-1.112917198752257,3.182567104424379-2.25358729592881,6.102280081725439-2.43542476445873,8.55723968626171,1.080447254007595.454448700867033,2.218345791125103-.489718498228285,4.141903791498407-1.292645229506888,6.097851987113245-5.145350791534838,8.315024987341531-12.131075575199247,13.697303935949094-22.325619097959134,13.95823176959675-4.288984910111139-.20520084664895-4.906276433915991-2.817381107444817-4.147217402372917-6.328881026614908Z" fill="#181818" stroke-width="0"/>
        <path d="M58.114649051452943,105.409473170215279c2.977782910399583-3.473440393616329,6.046563314714149-6.845633740036646,10.122084310288301-9.097742415049652,2.345559966657675-.735535508138128,4.69111852932383-1.471052684622919,7.036677091989986-2.206569861104072.467348427740035-.089408081768852,1.02841474764773-.185565469786525,1.355692137052756.128292816425528,6.18257016885218,5.929065507511041,13.845264714487712,7.508145499023158,22.042283415141355,7.553969378332113,6.081834418189828,4.169841903380075,7.671339820907633,10.513787746933303,7.572208613122712,17.221806257259232-.111995933627441,7.57844092866253-2.725411812528364,14.367633006864708-8.611020093921979,19.562873861183107-5.356483843301248,4.451494431354149-11.358350473079554,7.198670083811521-18.482756078805323,6.974708372132227-10.446856695940369-.846583056611053-18.291707020322974-5.642806072048188-23.094721103899246-15.136265006805843-2.187186300130634-4.323116992529322-2.08763483718667-9.067771433237795-2.752239638533865-13.676887346422518.166255390136939-4.381783743923734,1.633102919292469-8.217710075638024,4.811791347565304-11.324186055950122Z" fill="#fff" stroke-width="0"/>
        <path d="M99.216509549523835,102.617017447942999c-9.378689673646477,1.102465774809389-17.410075134815088-1.586658645592252-23.940638887355817-8.509097275256863-1.263392815088991-1.423145909686355-2.762012727802357-2.68406078406224-3.148268390217709-4.691324935078228-1.291829132331259-2.480510060278903.746522974048276-2.911709138375954,2.263137177126737-3.473894461523741,1.811600688863109-.67153077203875,3.655265847800365-.429973537697151,5.409600891955961.389479009641946.93220098531765.890705392621385,1.864401970638028,1.781410785246408,2.796586028414822,2.672096442178372,3.54479063967301,4.159755024322294,8.195199402602157,5.6051463584663,13.456050475142547,5.244233700484983,3.618809209862775-.248261839898987,6.23619197654898.649536805653042,6.819486252313254,4.676893973062761.407040406016677,2.840550768520188-1.114792790847787,3.770832933299971-3.655953547379795,3.691613546490771Z" fill="#181818" stroke-width="0"/>
        <path d="M79.800340341033007,86.332179785726112c-2.373104877329752,1.487004295508086-6.395373093904709-1.128442994064244-7.672716158254843,3.084416420857451-1.64743190156878-1.207529290468301-2.091049383582686-2.979399366555299-2.070870232390916-4.852148531235798.019807041687272-1.838009154194879.835872743237815-3.287765446926642,2.708669058374653-3.901467434170627,1.999744014383396-.655302281607874,3.721413864206625-.174068961352532,4.880669905369359,1.57905092373403.845726960488719,1.278975941333556,1.44506972495401,2.720877984778781,2.154247426901748,4.090148620814944Z" fill="#181818" stroke-width="0"/>
        <path d="M139.394573675995161,86.403594741475899l1.358038641455096-4.495791164594266c.888225032212176-1.178103087326235-.672712411413158-3.309230047239907,1.544822265574112-3.970075692404862,3.539452437962609.092092090206279,6.03610898482566,2.517307396772594,8.835826173571149,4.135209227502855,6.261554723655536,3.618451384096261,12.663599786679697,6.908296171237453,19.381247855221773,9.583484060567571.532112669774506,4.375513583894644,1.064216638337712,8.750955581395829,1.596327963112344,13.126338569549262-2.671070286046415-1.259708925235827-5.342176562660825-2.519355360660484-8.013269392218717-3.779010694956014-1.795268406529431-.22974006754157-2.461140856445127-1.764211080997484-3.433529977827675-2.955071150407093-4.827507782682915-5.912066684024467-10.574996378220931-10.166323066256155-18.595263942243037-10.399731299799896-1.002029689256233-.02916279983765-2.287367996949797.240389029910148-2.674199586645045-1.245351855457557Z" fill="#fccd5f" stroke-width="0"/>
        <path d="M142.297434583024369,77.937727884476772c-.514940386002309,1.323381523199714-1.029880336946917,2.646766625717646-1.544817479908488,3.970115064921629-1.885030891731731-3.82482396319574-5.181072884707646-1.774126542948579-7.952046545955454-1.909806725037924.676780220387627-2.30241517095601.927090414713348-4.755034762003561,2.388689951409106-6.780851620394969,4.430904799513883-1.530766708561714,6.73490669217972.141195615289689,7.108174074454837,4.720543280511265Z" fill="#181818" stroke-width="0"/>
        <path d="M167.158534261549903,73.979785093068131c-9.681712008053182,1.100127998750395-16.436534632222902-3.351242309734516-21.94871735018296-10.017506261116068-2.623910732232616-3.173272676498527.980104209765159-8.86521150860608,6.006676910929855-9.947514028423029,7.734916190351214-1.665451699189362,19.700360702956459,7.336472745559149,20.37151707517296,15.311431944597643.302692143980494,3.596672972753368-1.71519284986789,4.736325847716216-4.429476635919855,4.653588344941454Z" fill="#fce976" stroke-width="0"/>
        <path d="M139.394580834586122,86.403593871360499c11.378006784450918-.452364979504637,19.15458971186672,5.188811468167842,24.702930819650646,14.600176453977838,1.951344427249751,5.544721399808623,2.605010299029345,11.19029327356111,1.320044177355157,16.986516509585272.671554443872083,4.836024708605692-2.457753613913155,8.039791108234567-5.063799328019741,11.381826264305346-1.320583266632639,1.693528663499819-3.202098366350583,2.917359613076769-4.967347220153897,4.194682900646512-9.20385754797735,5.898174412604931-18.64464788148689,6.182146072851538-28.037092215537086.699338569173051-9.728900079444429-5.679196257999138-13.155296647921205-14.800054197710779-12.764119310239948-25.564111524663531.110456577163859-3.03945581616972.400305108520115-6.368184431083137,3.499619852806973-8.320818593823788,9.398753001340083-1.159518209818998,16.352941900187034-6.045996965192899,21.309763224137896-13.9776105792007Z" fill="#fff" stroke-width="0"/>
        <path d="M155.475237761596873,132.512300696529564c4.611245249197054-3.95254355554971,8.217571887625127-8.59308144849274,9.942249964583425-14.521976525897117,1.974087729598978-.087372959062122,2.504539880991615,1.342881937069251,3.174260826421232,2.816140247436124,3.25493682418346,7.160449338864055,6.799604099769567,14.014654855780464,16.537903752644525,12.864788751632659-4.952356520050671,3.620077282172133-7.841406737954458,9.258885506507795-12.695607046204714,12.974828511976739-6.643049064507068,4.127704691183681-13.673229497549073,6.686818114449125-21.663696407636053,5.35632090035142-2.625894742600394-1.944748370415255-.830719132204649-3.994435429513032.078397401611255-5.788483900954816,2.209567171325943-4.360352393607172,4.201611404515461-8.755242610150162,4.62649150858033-13.70161798454501Z" fill="#fbb64c" stroke-width="0"/>
        <path d="M150.14396270375255,151.255075321596451c6.415253149040836.385213845358521,12.454021197540897-.930928750787643,18.215023015953193-3.792052611972395,1.198107924951728-.59503301672521,2.708598341019751-.561090927587429,4.075084693209647-.816973142966162-2.706285966358337,6.957289656680587-8.272775916097999,11.671383732109462-13.237482050315521,16.853718734719223-1.075872326757235,1.123044194759132-2.235211637123939,2.166126031665044-3.356055202870266,3.245979447345235-9.027326805627126,5.084410915875196-19.099061523889759,5.487620448351663-29.01830440053709,6.049255661793723-7.743234615931215.438408466236069-15.106637011249404-1.924782106192652-22.205051120176904-4.989262006010904-1.60623259924887-.693433770511547-3.205226256925926-1.28822512327497-4.199865283459985-2.837908217959921.132647623841876-4.588221127198267,4.347226056566797-5.298901674927038,7.059021520486567-7.446330796505208,1.182026942468838-.496999426062757,2.419647945830548-.763006891011173,3.686989790860935-.9095243299289,2.773747325669319-.319680896192949,5.537393037870061-.732091725494683,8.318509422136231-.954569842131605,5.13338024024597.182205587867429,9.843130684535936,1.540751667927907,13.664823590467677,5.169910128022821,1.974684199030889,1.875199665446416,3.955918433783154,3.875408088370023,6.926434686979519,2.273223642814628,3.141923536622926-1.69466025139991,1.935628612790424-4.512334161476247,1.477883256076893-7.07706724430318-.082786631477575-.463794322884496-.055834196600699-.930306697553533.004220621282002-1.402208320996579,2.123218399662619-3.01226987080554,4.714310979267793-4.830798803568541,8.588767459907103-3.366191101920776Z" fill="#fab040" stroke-width="0"/>
        <path d="M40.363011399423158,94.144627179955933c.121027294188025.768231983511214.370618759165154,1.450466942718776,1.177304007987914,1.760057536386739,2.87353258544772,4.022479840867163,2.371199916438854,8.983855774398762,3.614728040589398,13.459411462765274,6.320889078434448,22.74938483400183,19.168820487621815,40.785721532110983,38.162259460227688,54.606104816402876,1.55131450297722,1.128795833108597,3.283429780609367,1.845677084103954,5.078063787726933,2.448361457874853,2.300153301284809,1.981348784249349,5.314114870865524,2.531192919717796,7.910815848407765,3.920348768053373,5.71603076500287,4.953660995446626,12.991653871327799,4.933624684381357,19.837701086709785,5.898290254212043,13.066043961070136,1.841105805213374,25.772699270903104-1.213680310660493,38.494867229586816-3.624590264316794-9.548763192748083,3.553995525982828-19.328877211537474,6.006555066678629-29.590354183957061,6.009240217652405-6.086142284685593.00158137161452-12.172306741233115-.130833710380102-18.258514765777363-.203065195404633-8.65709785195213-2.63471800393927-17.558931833054885-4.520759975037436-25.461987323473295-9.309508704269319-14.499853798174627-8.786000035483085-24.770899257519886-21.266490609497851-32.621377447479972-36.084331926191226-6.109362526422956-11.531465697791646-7.762951830802194-24.051727265416048-8.975138212713318-36.721370928784381-.066318717194918-.693160839116899.408631376136327-1.438106263900409.631632472164711-2.158947494381209Z" fill="#e79354" stroke-width="0"/>
        <path d="M96.306182544362855,170.338911221439048c-3.370550945549439.887740763921101-5.987265625869441-.211079694086948-7.955464908124668-3.018901418256064-2.326158172750183-3.172484584818449-.354603153245989-5.760109217679201,1.140034629700494-8.419914344860445.56470927070859-.625557572093385,1.263544375511628-.972904560860115,2.106766123169109-1.026144163717618,5.346353610088954-.200493850870771,10.750907771669517-1.857295439138397,15.990367372422043.629854405175138-2.06405031187569,2.516518032101885-5.849752973771501,3.123172537339997-7.170612877026542,6.464061342012428-1.352517693453592,1.80397174601967-2.135455101586558,4.043965573755486-4.111090340140436,5.37104417964656Z" fill="#181818" stroke-width="0"/>
        <path d="M58.114649051452943,105.409473170215279c-1.088388265343383,3.656819590943996-3.70688484247512,6.784673522433877-3.736221099592512,10.807618073187768-1.727398477241877.398488246602938-2.710946945326214-.705230105850205-3.313054420802473-1.967154720452527-4.434590346075311-9.294236267052838-6.703996086874213-18.9909348662095-5.159000103632934-29.346407830653334.248694703169349-3.207550493738381.497387616690503-6.415100769947458.746129967839806-9.622722434833122,3.098772527602705-2.659125732330722,3.921420137952737-7.102108737837625,7.410536863404559-9.45500008257477-1.953123663261067,12.804809855146232-.675041324633639,25.38163934901786,2.7301617975927,37.794644902052823.182971595526396.666984710815086.869388292048825,1.195853734347111,1.321446995190854,1.789022093273161Z" fill="#f3a53f" stroke-width="0"/>
        <path d="M45.906373427425024,84.903528692297186c1.21866508810308,8.922146718328804,1.388652049701705,18.057743660252527,5.204375749929568,26.456816164860356.805738536367244,1.773576988060086,1.024748700179771,4.02018399825829,3.267704749096083,4.856735964674954.11039068131322,9.745085076730902,2.960729987957166,18.124215840540273,11.481439610456619,23.87749092802369,4.030219889094042,2.721238419835572,8.616970047691211,3.514912258384356,13.192671673928999,4.477068376067109-1.129747554921778,3.430700757204249.708963298075105,5.573325659910552,3.095731277040613,7.656708469658042,2.674631110638984,2.334654512307679,6.167576871740494,3.803253709191267,7.835115114408836,7.229251862134333-.650773915405807,2.598700037364324-2.371627464889571,4.975186647305236-1.632690485563216,7.862437980025788-6.863676156583097-1.052775723659579-11.215035419330889-6.25731836626619-15.778092858486161-10.490682120915153-12.812959058691376-11.887196401103211-22.221565817546434-26.174934746033614-27.363058517113132-43.064800576694324-1.7791784177507-5.844622708464158-3.245927518942153-11.742170834959325-3.669298056560365-17.859902031352249,1.791377258977263-3.533676747842037,1.101183405201482-8.052251649674872,4.366101742862156-11.001125016482547Z" fill="#ee9a4b" stroke-width="0"/>
        <path d="M150.14396270375255,151.255075321596451c-3.125391902158299.369890532405407-5.932438974968136,1.414044176659445-8.095469872026115,3.822236536674609-2.77451193205161.222009518578488-3.745314330031761-2.587443084494225-5.864560697506931-3.470435770650511-1.486175300551622-1.04318422992219-3.315107763577544-1.400172863293847-4.822171981899373-2.403406411620381-5.440789210508228-2.380154954604222-11.065622057441942-2.858595468467684-16.89372401412038-1.870802925375756-2.281427857134986.386676706990329-4.602104930678252.824572675648596-6.946425973149417.375925542968616-4.265319521357014-2.49953832671963-7.06760751233287-6.531883723861029-10.416208151506908-9.995361581757606,10.002674191538972-11.692463273411704,10.696415255261854-23.266846518681632,2.107360071851872-35.096564114224748,1.941790323664463-.517742235815604,2.890181136317551-2.01592717985659,3.659700141387475-3.691269854796701,4.166442914240179.169942201362574,7.731080091839431-1.2260630294968,10.719974931005709-4.119832705904628.084084857988273,2.998295146437158,1.019003839088327,5.310582311478356,4.493353466325061,5.575158925337746-4.611484609409672,11.039192371856188-2.365022896718983,22.542757550896567,5.601908703182744,29.816245541425815,7.866229865024252,7.181542078966231,20.95660555646009,9.266876188630704,30.422980061062844,2.634768774356417.355138947465093-.248807242063776.905278869050562-.219255462890942,1.364559243359508-.319429422861504,2.118380773863464,3.669889362983668-.338362862304166,6.712782780836278-1.462744898000892,9.877535428027841-1.077691030359347,3.033294320179266-3.417361458480627,5.53860840688867-3.868531029965197,8.865232038400791Z" fill="#fbb04b" stroke-width="0"/>
        <path d="M86.097294411485564,131.302906801720383c-7.40374850790522.909689991456617-13.772861295497023-4.024817077588523-14.65948222597126-11.357508939467152-.889558178992047-7.356961307632446,4.118250467610778-13.756923667937372,11.473899415853339-14.66358699506236,7.369555991256675-.908379032975063,13.668339982611542,4.047069822441699,14.576642615364108,11.467882044882572.927281614052845,7.575913795772067-3.804345564546566,13.621048321205308-11.391059805246186,14.553213889646941Z" fill="#181818" stroke-width="0"/>
        <path d="M97.105402013543426,137.713230711835422c4.444206141669383,1.822117338697353,6.864187116621906,5.756159281634609,9.679518102068869,9.277721106398531-2.427868481418045,2.940151965953191-6.30236215612058,3.812949849958386-9.022713836498951,6.331111618437717-1.436880140787252.874611864071994-2.600755581256635,2.043054741052401-3.600331695686691,3.38787680567475-.866232410053271.889495815317787-1.576593731921093,2.058990398239985-3.108963794491501,1.784916920667456-.356505859058416.320963606023724-.713004559525871.641926341932049-1.069501223321822.962816186269265-3.375907669063054-2.559503715769097-6.983682240412236-4.873938414501026-10.042271715341485-7.768660741692656-1.886994060511825-1.785892832542231-5.081806418942506-4.217151512524651-.888753363588876-7.117096260890321,6.716355819339697-.447621209616045,12.81630058891551-2.517043095642293,18.053017526860458-6.858685634864742Z" fill="#fbb03e" stroke-width="0"/>
        <path d="M137.552745188309927,125.057933859183322c-7.384370636448693.867621620580394-13.739305302179673-4.11624076381122-14.622131627575072-11.467409922825027-.862130515983154-7.178817392381461,4.348816075312243-13.716767771249579,11.613508395851568-14.570982408613418,7.419275490481596-.872379235377593,13.592794674528704,4.067185133244493,14.454802449003182,11.565604273160716.873222717743374,7.59603461002007-3.860555143324746,13.581523318936888-11.446179217279678,14.472788058277729Z" fill="#181818" stroke-width="0"/>
        <path d="M91.052910788935151,158.494857163013876c.791945966578169-.862581461544323,1.583890192917352-1.725177240366975,2.37583615949643-2.587758701911298,6.364234075825152-.879368401836473,12.710857658485111-1.671493813993948,19.172006150542074-1.836783017211928,6.248717735649734-.159845233112719,12.26201885546925-2.543556168166106,18.557109483132081-2.892580317804459,1.872472830639708-.103817919076391,3.725988551008413-.583654393421966,5.61500714151498-.19359358892325,2.214642310321324.776495322914343,3.458471952159925,2.804252511166851,5.275607050682993,4.093157744056953,1.836054011904707,3.202664187569098,3.071526520964653,6.600689666389371-.643912596271548,9.142859272187707-3.557641023440738,2.434189458868786-6.304035245530031.570614994177959-8.865841684022598-2.376913739786687-3.159686150381276-3.635440247042425-7.753797343291808-4.484206105464182-12.268975284699081-5.25755814799777-3.14803434400892-.077386983144606-6.2389418601324.322091494310371-9.283064138292502,1.112098283650994-1.133027172529182.268651197971849-2.266054345057455.537302395949155-3.398940283657794.805980013574299-5.51140597727499-.20721584182138-11.023577814533382.745045342973754-16.534831998425034-.00890779983456Z" fill="#181818" stroke-width="0"/>
        <path d="M110.986683071017978,157.697784949274137c2.951033135530452-1.567940110579002,6.043030476866988-1.95910982008354,9.283205372221346-1.112071863997699-3.094494786530959.370682553082588-6.188850079376607.741377208540143-9.283205372221346,1.112071863997699Z" fill="#533152" stroke-width="0"/>
        <path d="M96.807834439859107,152.86160648549594c2.674500548397191-3.063506312051686,6.516383013142331-4.143044319182081,9.977031017399895-5.870626230422204,6.87838353497591-.933929713633916,13.753721492724253-2.560731069617759,20.681153123177864-.463441646801584,1.713894695378258.518896294715887,3.697324679328631.561873465365352,4.935351622149028,2.19818178056812-.756513971516142,2.472504663222935-2.941031836730872,2.588295447087148-4.925791905513506,2.8579436443124-8.235969781159838,1.118941031045324-16.484820215771833,2.143564850437542-24.750996289485556,3.014531278129652-2.173114568268829.228971606267805-4.451983127868516.563730927091456-5.916747567727725-1.736588825786384Z" fill="#181818" stroke-width="0"/>
        <path d="M96.807834439859107,152.86160648549594c1.483791572823975.604260994026845,2.991277968031682.733855370466699,4.598600301086663.53093295380495,9.020442209688554-1.138822524126226,18.047700942224765-2.224193978219773,27.07598080464777-3.299730054659449,1.422029583268341-.169402077799532,2.795308301385376-.385777937637613,3.918960945462459-1.367097024556642,1.323403175675594,1.01168950975989,3.461948307271086.445536482553507,4.371477175143809,2.258416600026976-.990058933256478.43323236562901-1.943152310978803,1.1013191254915-2.975838772195857,1.263932534193373-12.422217191587151,1.955905669203275-24.883808622702418,3.608252431160508-37.426465893970999,4.594224016105727-1.129725388850602.088819156457248-2.19108192611111.103323837900462-2.941706003503896-.935024378164599.831519542028218-1.342367188202843,1.91016487838715-2.410473607416861,3.378991443330051-3.045654646750336Z" fill="#181818" stroke-width="0"/>
      </g>
    </g>
  </a>
  <path d="M141.553191489362689,107.925531914896055c3.21726140048213,0,3.222590251863949-5,0-5-3.21726140048213,0-3.222590251863949,5,0,5h0Z" fill="#fff" stroke-width="0"/>
  <path d="M91.638297872341354,114.946808510640039c3.21726140048213,0,3.222590251863949-5,0-5-3.21726140048213,0-3.222590251863949,5,0,5h0Z" fill="#fff" stroke-width="0"/>
</svg>