<?xml version="1.0" encoding="UTF-8"?>
<svg id="Pattern" xmlns="http://www.w3.org/2000/svg" xmlns:xlink="http://www.w3.org/1999/xlink" viewBox="0 0 280 280">
  <defs>
    <style>
      .cls-1 {
        fill: #ffe9d0;
      }

      .cls-2 {
        fill: #f48653;
      }

      .cls-3 {
        fill: #f1b48e;
      }

      .cls-4 {
        fill: #fddfc0;
      }

      .cls-5 {
        fill: #f0b38d;
      }

      .cls-6 {
        fill: none;
        stroke: url(#linear-gradient);
        stroke-linecap: round;
        stroke-linejoin: round;
        stroke-width: 33.217455842605801px;
      }

      .cls-7 {
        fill: #fff;
      }

      .cls-8 {
        fill: #f7a182;
      }

      .cls-9 {
        fill: #f2b691;
      }

      .cls-10 {
        fill: #ffddaf;
      }

      .cls-11 {
        fill: #fff1df;
      }

      .cls-12 {
        fill: #ffedcd;
      }

      .cls-13 {
        fill: #ffe3bc;
      }

      .cls-14 {
        fill: #eaae87;
      }

      .cls-15 {
        fill: #ffdeb0;
      }

      .cls-16 {
        fill: #e97746;
      }

      .cls-17 {
        fill: #ecb089;
      }

      .cls-18 {
        fill: #f7995f;
      }

      .cls-19 {
        fill: #db6841;
      }

      .cls-20 {
        fill: #efb28c;
      }

      .cls-21 {
        fill: #ffe8c8;
      }

      .cls-22 {
        fill: #f69d7d;
      }

      .cls-23 {
        fill: #f79e72;
      }

      .cls-24 {
        fill: #ffeac7;
      }
    </style>
    <linearGradient id="linear-gradient" x1="-3420.992187318851393" y1="520.686481603619541" x2="-3584.161028930618613" y2="614.892056231532706" gradientTransform="translate(3548.014590610143387 -704.481580805590738) rotate(-4.201867239125381)" gradientUnits="userSpaceOnUse">
      <stop offset="0" stop-color="#b35152"/>
      <stop offset=".256923818068603" stop-color="#b8574f"/>
      <stop offset=".627056879835899" stop-color="#c76a49"/>
      <stop offset="1" stop-color="#dd8541"/>
    </linearGradient>
  </defs>
  <a xlink:href="https://www.notion.so/dmmnotes/semantic-thought-2477648bf2934c578347c35b7291e8b9?pvs=4">
    <g>
      <g>
        <path class="cls-6" d="M152.612827862792983,210.79816335601754c.10465683448092.047554150107317.194176439703369.115135656553321.268585866455396.202747254183123-.710149277825622,1.121961229182489-1.420292054064703,2.243912186533635-2.130441331886686,3.365873415714304-.104873995054731-.052986031605542-.208514541494878-.108284560175889-.310904863143151-.165899354202338-.250378803233616-.802211641035683.195585479039437-1.405703587788594.574560527837093-2.029613213986522.398375526759992-.613385244230813.756652131860392-1.27553017315222,1.598199800737348-1.373108101708567Z"/>
        <path class="cls-6" d="M171.029649098698428,87.647501814333737c-2.159730163093627,7.27801323942731-4.304739106712077,14.560438347118179-6.482263473681087,21.833119738326786-4.394616832865722,14.677607875175454-8.807088994948572,29.349866793185356-13.21184543414347,44.024441319163088-4.499655510298908,14.990728798153214-8.997925164752814,29.981860006446368-13.503346366447659,44.970852865784764-.1310260687751.435891855810041-.336139051840291.849506357748396-.506715761119267,1.273514247723142-1.456449596676975.102046050486024-2.705905293958494-.609557506219062-3.996255409107107-1.084985481244075-14.715474686312518-5.421856261520588-29.666743719908482-10.073800473330266-44.88276452674836-13.874387250161817-4.802688908639539-1.199604268214898-9.135911329696683-3.562284608968184-13.599585575761012-5.593634272070631-.772130879740871-.351384298490302-1.517212960830875-.845473539522573-1.87681296617302-1.707853998901555-.257511938603784-1.812725633681112.41575417835702-3.400505456069368,1.253822074977506-4.923005443051807,2.118846854657022-3.84925040143753,4.886676536913001-7.263439540518448,7.468372252351401-10.789759944946127,1.838924095874972-2.511790196731454,3.637043084214383-5.059651697833033,5.466177518272161-7.576847008262121,4.986180210129532-6.861859469529008,9.9621221379075-13.732803349001188,14.899073809254332-20.629908112054181,3.201285255370749-4.472330347127354,6.387379159456032-8.960448151197852,9.607902429414025-13.418314191214449,4.501414333060893-6.230896414885137,8.956768370431746-12.496154961510911,13.521368718787926-18.682640747569167,2.753600031235692-3.731999170026029,5.529797393095578-7.462571677231608,8.105149725703086-11.309544212301262,1.642070015284844-2.452879443635538,3.990498020844825-2.871187279180958,6.38386674504909-3.520286120528908,5.6560972689349-1.533979807280048,11.45114320450557-2.185987501066847,17.277654934156089-2.624605557928589.938315701623651-.070641343290845,1.853339971679816-.03404819829484,2.765349384169895.19372148480943,3.603331676013113.89992767930562,7.066387122960805,2.317023775125563,10.751974294891625,2.916543785548129.269656491534988.043858302607987.441460496989748.274712209091376.558877626153844.52357889887935Z"/>
        <path class="cls-6" d="M171.029649098698428,87.647501814333737c-3.294675574485154.00978954349921-6.23345628738025-1.488747001976662-9.33780962597848-2.270087256127226-1.868344075761343-.4702476165603-3.62926529784454-.816370544913298-5.606091547406322-.711775424771986-6.751793343906684.357252186115147-13.290353530828725,1.777071541648183-19.796945626865636,3.453435861943944-.519031389190786.133725517416678-1.068574800487113.234625321081694-1.343333307164357.754430028373463-.812235694354968,1.536663740263975-2.08761199705441,2.722870260478885-3.078897636911279,4.118612975737051-3.327365472447127,4.685051826771087-6.504999955070161,9.479428892518627-9.924381236092813,14.095340812775248-3.889402999844606,5.250409366162785-7.659247745159519,10.583557581303467-11.485974267892743,15.876954454137376-3.865765765654942,5.347412704339149-7.699430368871617,10.717546586425669-11.564946867685649,16.064520003121288-3.943543494118785,5.454900994009222-7.950485882625799,10.861271407866298-11.788540799181646,16.394379458395633-3.457629283246206,4.984641419216132-7.126262647005206,9.822778737176122-10.693709298624526,14.731436703765212-1.61119304615022,2.216956141690389-2.855406907881843,4.601436994164033-3.248083307456909,7.359018940911483-.234792204415498.598808320288299-.753745512127352.462646511608909-1.182869413238222.399988339253468-4.584402952139499-.669291991216596-9.161379199307703-1.390855882998949-13.768651584732652-1.89472767366351-.260694279173549-.028517551336336-.500335556156642-.169236413586987-.740342552582661-.287368921402958-3.309682899456675-1.51546627958669-6.673156567907427-2.921598421380622-9.770092118473258-4.856306378991576-2.290525603599235-1.430934776013601-4.528098120219511-2.916689106872582-7.004733678997582-4.064571254008115-1.915277159620018-.887709851973341-2.274641885738674-2.240970902104891-1.760974199671182-4.065280593225907,3.433786741199583-5.597168663402044,7.515874806818829-10.736918360496929,11.341861833412622-16.056248352297189,1.661879972141833-2.310530040369486,3.320301658821336-4.627248610393508,4.980594395290609-6.93743091581382,4.984153901217724-6.935062817825383,10.049331505142618-13.812755684204603,14.989310894376104-20.777361487520466,4.520142446352111-6.372710313205971,9.089574165918748-12.711589981377983,13.658600030808884-19.047259261196814,4.491112412286384-6.227648254709493,9.058987872398575-12.407917581202128,13.467423056226835-18.690061925164628,3.166830632661004-4.512841666648455,7.466632090838175-7.420065359852742,11.976947225353797-10.209783103027803,1.054969676511973-.369975721692754,2.092510177160875-.068005562599865,3.133161041772837.105957239422423,9.080879489509243,1.518025596697044,18.14015629444657,3.182156514993039,27.14847026404459,5.058638701266318,10.613409580273583,2.210829281291808,21.340667042335554,3.996445492068233,31.659916602522571,7.475283518910146.252381672180491.08508793827059.500025945802918.172522107155601.724947226502991.316523342442451-.328285438015882,1.221247816913092-.656570063340041,2.4424943498434-.984855501355923,3.663742166756492Z"/>
        <path class="cls-6" d="M109.8675174882992,71.104278663429795c-2.803939406203426,2.19211643070048-5.812084759632853,4.098222455193536-8.595348200451554,6.335203174396156-2.088976798577278,1.678960739229296-3.220181673274055,4.015393181560285-4.731145081275827,6.032787825643027-2.086678961097277,2.786080399568164-4.115973060774195,5.660125010435877-6.112065278903174,8.533086382085457-4.207790624363042,6.056250625479151-8.722965824059429,11.898353162201602-13.077049089628417,17.853885868215002-1.439880378948146,1.969468228662663-2.73505344919613,4.033075958908739-4.215385589539437,5.987809509037106-3.423785533555929,4.520989659782572-6.483737275944804,9.315660486345223-9.844797267236572,13.886437808809205-4.102447017903614,5.579004782557604-8.096390770631842,11.233204412632404-12.135446215770571,16.856044967602429-3.961713662254624,5.515177041281277-8.118319963485192,10.890192049046163-11.828978783409184,16.585237039736967-.915976942262205.790551138070441-1.956187053157919,1.210282160252973-3.173417602891277,1.413675859317664-2.800871808176453.467987915855701-5.624647509877832.751985070573937-8.432752356944548,1.155041196525417-.855237938994833.122765318119491-1.874910198837824.427221038953576-2.509650361695094-.598779034127801,2.304732987999159-7.786233708020518,4.586826472735993-15.579272749277152,6.918735966883105-23.357354437979666,5.545047368741507-18.495558540460479,11.113745798546006-36.984045541559681,16.67277265453049-55.475424309677692,3.502719690244703-11.651352701072028,7.005230317992755-23.302772987322896,10.50783357700675-34.954163416359734.741047822959445-.266625044474495,1.435241022232731-.019371890084585,2.132024682816336.195675405515431,7.02360289653916,2.167693114717622,14.068486959038637,4.264710045579704,21.111950758722742,6.366568443187134,5.597492530701857,1.670364715126198,10.798242459321045,4.338537550773253,16.205376988302305,6.488285533641829,3.624474667718459,1.441008677273203,7.281149520455074,2.822061369508447,10.768445989202519,4.595523993715688.572310240540901.62550692892728,1.000880260229678,1.27607521234313.338895210281407,2.100458190716381Z"/>
        <path class="cls-6" d="M109.494643513084156,69.448007437365959c-6.736378314028116-2.769217024555473-13.521488198650331-5.42657746144323-20.197116368053685-8.335256143927836-8.847441906840686-3.854972588469536-18.313063365952985-5.728992606040265-27.392368895427353-8.827459256050133-.869270028504616-.296657585033245-1.730123421688404-.6179919932747-2.594606667287735-.927697279194035.590738198679901-2.00938170479094,1.18120249531421-4.018933180075692,1.771670985983292-6.028485597489635-.281429500710146-1.322972918158484.361983779743241-2.485333389409789.743193168573271-3.65541013247821,1.082161516224005-3.321572427526917,1.25357595501373-6.619338724874979.180092837385018-9.963469564199841-.162367003078543-.505801972300105-.271799622241815-1.029683656184716-.064862279592489-1.560264579149589.914244385892744-1.213547573071992,2.06491560635186-.61118829599036,3.08941716438494-.309989922858222,5.145989901466237,1.512909709857922,10.281814682230106,3.062017753136388,15.411161709940643,4.630005371980587,16.147901179665496,4.936248046398759,32.38738466576433,9.555772883699319,48.62296027632874,14.190759455299485,12.866680433986403,3.67322563239577,25.700458344677827,7.46067389968448,38.529741370735792,11.262590112537509,1.145334727536465.339417829593003,2.329853645664116.515775794880028,3.458316106052735.910133756433424,1.539381404732922,1.612511541075946,2.403629066584472,3.578067843380268,2.979385425705914,5.694473355955779-.479845461624791,1.254593873951308-1.533710932937538,1.234139869518913-2.485062569852744.901007095315435-4.29119474185427-1.502651312845046-8.801301197792782-2.006554938712725-13.239525820248673-2.587373695308997-4.233480816146766-.55401991679355-8.491201149990957-1.137997750347495-12.79878310155982-1.256458207468313-3.901502224742217-.107292719025281-7.789269151231565-.246198710565295-11.688041837793207.000267210436505-6.915457797173076.437175824852602-13.622181189088224,1.768856001350287-20.026544096266662,4.48498277744693-1.386340576027578.587956313611357-2.694034848809679,1.457362910650772-4.299027409007977,1.377645242719154Z"/>
        <path class="cls-6" d="M109.494643513084156,69.448007437365959c5.150336630558741-2.381707721235216,10.404596745331219-4.310136304013213,16.061958466580109-5.302834423466265,6.458951930479088-1.133347838758709,12.87477384208978-1.363286875852282,19.398744044592604-1.008465542168778,9.022433456762883.490712996477669,17.953524501586799,1.448317357764608,26.681560385870398,3.860395536259603.965858371895592.266924100711549,1.665956582164654.037592442235109,2.394939389983847-.469259448329467,1.513482115433362,3.418956979985524,1.247409055018579,6.891806605275633.261874696074301,10.364705776621122-.67782752430503,2.388658554637004-1.273580101482366,4.807072933474046-2.27960499909932,7.091302122535126-1.460803931238843.637812872371796-2.713724983781503-.304680404668034-3.963260714333956-.683778299935511-5.684718068798247-1.724700411665253-11.417220172308589-3.146591425092993-17.277602215677689-4.191195623336171-7.118062082941833-1.268779715130222-14.141669804655976-3.058704710292659-21.239873467469806-4.451099047553726-6.215206953669622-1.219178933110015-12.477333521295805-2.198813226121274-18.71759727369863-3.290780075887596-.321575641199161-.056265942377649-.632454236014382-.173790247865327-.948290546290082-.262757918102579.066239195712114-.594887009072409-.05792802043652-1.147006765348124-.372847766531777-1.656233056635756Z"/>
        <path class="cls-6" d="M57.967185259836697,175.440931930033912c5.064604897910613.690949471865679,10.129199521237751,1.381892440393131,15.193777368374867,2.072839177408241,5.577380696056935,3.175985006591873,11.381593215468456,5.776105925382581,17.646793783100293,7.325038650757051,15.331294369147145,3.790306194920049,30.296898303882699,8.764759681451324,45.138802124634822,14.126107145209971.490268277550058.177093072255957.920889381906818.519404550637773,1.379107198579732.78460309500224-.246200293880975.924201397141587-.492223191125959,1.848486304032122-.738235813787469,2.772777714253607-.998003963508381.692852302510801-1.942315778247576.074558994518156-2.847498803290364-.196985761504038-11.828071957192151-3.548283656982676-23.653108021146181-7.106615748027252-35.482644952564442-10.650129399622529-11.002712217981752-3.29584204357343-21.992962388934757-6.633517784637661-32.996535676809799-9.926567053234976-3.225170746087315-.965175304325385-3.349600147585079-.878223457008062-4.705285293082852,2.317799159669448-.103807302783025.244695089768356-.214389804155871.485634114238565-.343405419058399.717999047703415-1.401252721643687,2.493622633024643-3.536450393481573,4.231124591464322-5.905090399859546,5.727021778446215-1.152664271270623.570602270050586-2.330595186605933,1.079720124187588-3.596381905950693,1.353995655807012-2.783527787421917.824758265520359-5.575292179488315.86685653493987-8.373692973440484.070018487993366-3.545698988513323-.991151789745345-7.241231536216219-1.566660470825809-10.361945775804998-3.736713515751035-.204046146302062-2.318973575358541-.242203598985725-4.573202247322115.847627133076458-6.777730661355235,1.731544626936738-3.502627166843013,4.846275517591494-4.679505448253622,8.337618242005192-5.304570005406276,3.864677657376888-.69189573944459,7.784388012561976-.483103400882101,11.682008146312-.598391301922675,1.706302234801115-.050465720481952,3.411682195412141-.459853083497364,5.124983017565683-.077112213453802Z"/>
        <path class="cls-6" d="M53.814658246123145,190.253014304458702c2.355466881756001-1.499185312859481,4.47242041827667-3.247947219750131,5.940294957945298-5.675849763787483.881743082169123-.222538167390667,1.71483197656562.035471832432449,2.539088118723157.285200735303079,21.976232477591111,6.658335022471874,43.980095958635502,13.224860878610343,65.965690148248541,19.852103587809324,6.989684573818522,2.106940594279877,13.981329757461936,4.207827936543254,20.972754291651654,6.309223034555544.871614011823112.261965017434704,1.870114061668573.355635027368407,2.230618173660332,1.428624071171726-.341027439302707.582827363836259-.682054878607232,1.165654727672518-1.023064497319865,1.748522145186143-1.550448513131414,1.722854110819753-3.195852538457984,3.316346611134577-5.488815219523531,4.027695781418515-1.900242341915146-.00953309997567-3.583589888057759-.882371406050879-5.343571231069291-1.407093554906169-27.691127376399891-8.255873767411686-55.351146661043458-16.615757288214809-83.02875877088627-24.916970354341174-1.032546613037994-.309689455865737-2.290226405153589-.357501345062701-2.764235971430026-1.651455682409505Z"/>
        <path class="cls-6" d="M151.463103936352127,212.452315969510892c-3.796759339045821-1.548726060846093-7.780315270989377-2.509469280314079-11.691790892013159-3.693338832925292-11.883286360638522-3.596626136224586-23.778621903558815-7.153344080132229-35.669124932244813-10.726109250030277-12.838902699953906-3.857723015946249-25.679114740574732-7.711081063933307-38.514822545379502-11.579399289714274-1.955154157521974-.589241844925709-3.889014044743817-1.249140788982913-5.832578440284124-1.876337240415523.156810037222385-.432951745688115.312450624776829-.866284022746186.470265078438388-1.298844599137738,1.025650880976173-2.811065304687872,1.636142312732773-3.079852591452436,4.540916483101682-2.209081495297141,21.848381633926692,6.549500536229971,43.700504597421968,13.086564900842859,65.552648749873697,19.623527580804875,2.085442520909055.623857040391158,4.179042313526224,1.22043449001103,6.268834076479834,1.829621698709161,4.77862294085935,1.467465321606142,9.557843689093716,2.93312219813015,14.335728045876749,4.403141307760961q3.032459495942021.933030693429828,1.68960447563768,3.872668540398081c-.383196224192943.55138876257115-.766440048337245,1.102761783626192-1.149680099486432,1.654151579847166Z"/>
        <path class="cls-6" d="M57.887401201360262,23.588921396509249c5.993526053205642,1.755821997341627,11.992614252039857,3.492915024242393,17.979285675073697,5.271812855064127,9.197317068024859,2.732922784891343,18.389872381969326,5.482031099400047,27.57769579980959,8.246737788365863,17.335004843002025,5.216268819342076,34.669654005818302,10.433872603796772,51.993664076586356,15.686496661115598,3.472570630781775,1.052881901492583,7.052286591933807,1.794066437101719,10.317840719764718,3.486929763475928,1.132506655361794.587091424962637,2.208127858419175,1.202077245907276,3.025443293307035,2.199262603899115-.595691867558344,1.652293387887767-1.871922295013064,1.112564191789716-2.95360918892402.82201120008358-2.878307783103082-.773144633480115-5.712555015434191-1.701569975810344-8.581749877794209-2.514485567064185-9.674381107452064-2.741002212738749-19.320788288390759-5.579107221552476-29.000837076599055-8.302526739907989-15.086828996945769-4.244584974450845-30.196783213532399-8.407833023953572-45.171607761749328-13.049146196746733-6.322300705423913-1.959540209303668-12.670370242149147-3.852068375968884-19.027409101872763-5.706098315351483-.951213732480028-.277419813863162-2.002173383061745-.148384922551486-2.868854969741733-.732256246876204-1.333668572944589-1.513672444161784-2.88820229888006-2.848987361627223-3.834400732928771-4.682776550818744.030897904995072-.354624671523197.192268624876306-.612102842873355.544539145068484-.725961255238872Z"/>
        <path class="cls-6" d="M57.967190397128434,175.440935181704845c-3.574551707417413.836989105258908-7.222691610535549.54543770950113-10.840944183111787.682488818481943-2.970648592094221.112509007720291-5.898974333931619.296535703751942-8.770481769961407,1.239057039905674-3.686669343882386,1.210108471434069-6.042603463716659,4.296046284855038-6.012778714401065,8.154046760491838.00693776117987.89835848671828.317447677669406,1.867955385336245-.368077382619958,2.682283466068839-6.853692658511136-4.055967714552025-10.057701826477569-12.230615878612298-7.773356129724561-19.848621020586506.32175844435551-1.07301859913423.673438055775478-2.137083093530237,1.010591345077046-3.20537854709255,1.717389756353441.673976062553265,3.392236148960365-.047470634272031,5.059472669088791-.240421018424968,3.052773502984564-.353289537993987,6.151720036290499-.562113543217492,9.055711756975143-1.729660528915701-.94860100725964,2.047096285527005.93351026347591,3.038031334283005,1.971819055399465,3.400686738075819,3.940638839892927,1.376296543534409,6.913542947067981,4.329610509597842,10.626569445543282,6.046696500281541,2.014044884679606.931392599353785,4.213968084994121,1.487710345953019,6.041473907735053,2.818821791714072Z"/>
        <path class="cls-6" d="M53.814664747715142,190.253004032627359c3.291899121857568,1.582259641447308,6.874396902778244,2.284490304346036,10.332829163908173,3.3455447464803,12.928742871907161,3.966496089529755,25.889335930069137,7.82926510550169,38.843019475298206,11.714204801095548,12.828088296879287,3.847252468887746,25.662604988963722,7.673094373620188,38.493175198647805,11.512105819874705,1.198686944520887.358667186350431,2.4342702875947.633418342511504,3.467597281487542,1.403713516067-1.227383997531433,1.056635553459273-2.736562998194131,1.316653911799222-4.269595145513449,1.5092486906251-10.527033014595872-3.195602242221867-21.07994134049477-6.304988405032418-31.612018758885824-9.483526574675125-18.405106048805465-5.554580613459621-36.820135166559339-11.075863334212045-55.227299649846827-16.623258490188164-1.190312863031068-.358733146362283-2.928110581469809-.193266599035269-3.21945249127748-2.077615783993679,1.063911550529156-.433474409541304,2.127823101058311-.866948819086247,3.191744926181855-1.300416725285686Z"/>
        <path class="cls-6" d="M50.622918457236665,191.553434281409864c1.01819820527453,1.340329841290441,2.658748777283108,1.361357247027627,4.054258436506643,1.786825724559094,13.012768515385687,3.967455476178657,26.045650882151676,7.869074485566671,39.078155921501093,11.771562465964962,13.729419045035684,4.111150806062142,27.475280745997225,8.167881067967755,41.185692216322423,12.341324387112763,1.954045595100979.594812923816789,4.194458920577745.614283508139124,5.740685599383141,2.284802445730747-2.37291801389074.626269826821954-4.752574553534942.447391391455312-7.047990527595175-.239246669732893-25.521057735501017-7.633985651798866-51.032619483879898-15.299798687980001-76.540716168385188-22.977043022225189-4.93201473712179-1.484405021554267-9.83805800337359-3.055166676474983-14.756099483591242-4.586146135894523,2.776096455272636.17681045021709,5.547438039946428.250851586370118,8.286014005858306-.382079195514962Z"/>
        <path class="cls-6" d="M57.466820422312594,24.25328114788681c1.33730988660318,1.376433775145415,2.709034160146985,2.722727446620411,3.78883155087351,4.324700464281705.487294424476204.498221282483428.876323971808233,1.043759579828475.859813701381427,1.784567954104205,2.111930200157076,5.158993205510342.97720138069235,10.093176995900649-1.033115356032795,14.966647647906939-3.221032607940288-1.039620209412533-6.441938408896021-2.079156559138937-9.662844550937734-3.11868952799523-.975102350965244-.535051660535828-.56117648610234-1.384965048331651-.386431141278081-2.086780863137392,1.33196573461646-5.349499636233304,1.584011532411751-10.724083330485882.542410070418555-16.152728331780963-.148359878709016-.773210351066155-.286036634579432-1.624937933405818.739191426268007-2.003419613591177,1.008504004597853-.002764544447928,1.887585057764227.450735221509603,2.79790567695818.794100445480581.87380736472187.356631650569398,1.871261208143551.518110957791578,2.35423862234893,1.491601824731333Z"/>
        <path class="cls-6" d="M52.314676123005484,21.967578877674896c-1.051050318124908,1.693912870403437.060602598790865,3.3605624415286.218565440445673,4.985891417049061.414536155651149,4.26522217078309.060005671672116,8.412368267967395-.859527126514877,12.558811343551497-.194274193276215.876040421564539-.691962185897864,1.751690908819-.254232170616888,2.698106866684611-2.883550017017114-.588461489982365-5.656631314486731-1.544586690706637-8.420168742592068-2.532458613955896-.254035810941787-1.348902994939635.36406738749065-2.592687033031325.475373740020586-3.90325039464733.324176376612741-3.816994862781939-.213012686039292-7.380227971843851-2.624923741233943-10.508736770305404-.411123928124653-.533270270330831-1.046714179392438-1.124848771229153-.316746556040016-1.891635069228869,3.697648562087124-2.38733082737599,7.627112300742738-2.837488478504383,11.781659156531532-1.40672877914767Z"/>
        <path class="cls-6" d="M40.533016966473951,23.374307656822566c-.128006705708685.667916406795484.294675375047518,1.074080783511818.656004609068987,1.559691074828152,3.39643346932462,4.564698638379923,3.620567484509593,9.533192358307133,1.810299131922875,14.74391412577279-3.149506638408639-.914643422194786-6.300119628685934-1.825498358677578-9.447655436983041-2.746871948094849-.708678714034249-.20744834369907-1.178958083946782-.609239480369069-.960819637006352-1.441566319737831,1.222271891103446-4.663726485532607,2.864076339534222-9.07224905547082,7.239479442801894-11.799961067496042.215839324288027-.134557779059833.467637410041789-.211455983837368.702691890195638-.315205865272219Z"/>
        <path class="cls-6" d="M62.115465674567531,30.362549566272719c-.286359417339554-.594807520134054-.572718834682746-1.189615040262652-.859445164001954-1.784496541227782,12.96847155127216,3.879804877688002,25.903995202339502,7.876262952620891,38.918128225996043,11.597661010600859,8.36825946711906,2.392906405322719,16.782643791162627,4.646778298869322,25.161724115056131,6.998022518939251,9.268853770126952,2.600923344112744,18.621327207498325,4.929079446434116,27.778724952426273,7.940966999593002,4.384366280672111,1.44202918638257,8.880109079793328,2.543940451565504,13.318020581737073,3.825526146716584.890645622928787.257202364278783,1.69152220106298.338038501919073,2.348773803943914-.460142939546131,1.015418922041135.535121982475175,1.677261212189478,1.411364241132105,2.2709231196568,2.353353477094061-1.067713198259298.597246492661725-2.098628890460532.074102917049458-3.076039340756324-.209651934201247-13.623088727421418-3.954970052676799-27.229557139709868-7.967096832460811-40.849784180240022-11.931976508167281-15.709303884197652-4.573013715031266-31.474912465528178-8.952906429823997-47.093094163621572-13.83767612734664-5.162545826126006-1.614649401246425-10.35503077510657-3.135508470220884-15.553188122228676-4.631967926410653-.736149591419235-.211927364131043-1.639888018491547-.841679736104197-2.364743827967686.140381823955977Z"/>
        <path class="cls-6" d="M57.466820422312594,24.25328114788681c-.784815212802641-.49722989838483-1.569630766669434-.994456415894092-2.354342130380246-1.491645759948369.982400123630214.08329966747624,1.917942932690494.323465148750984,2.774926160222094.827280872656047-.140195873904304.221457801360884-.280390122410608.442913034761659-.420584029841848.664364887292322Z"/>
        <g>
          <path class="cls-6" d="M146.124839954394702,110.175115272617404c-.078150185796403.904983221682414.537585149984807,1.732332618257715.19341638755759,2.694035587030157-.678650206855309,1.896334070077501-2.135131742297744,2.560459185604486-4.514757097733309,1.851273062231485-8.662899504277448-2.581753797403508-17.321330803533783-5.178660899859096-25.975146209151717-7.790750589163508-5.681792990257236-1.715008156643307-11.352756613228848-3.465949251640268-17.028569681187946-5.2007946380254-.128754710367502-2.047713640135044.46982257579657-3.93562391082196,1.266321986189723-5.780048523329242,8.254764034161781,2.443197347722162,16.512249843333848,4.877225700787676,24.763390951377005,7.332619832370256,6.115127768754974,1.819754838383233,12.221347037835585,3.6694661153997,18.33451776741822,5.495849748629553.300876857538242.089889266655518.630298328989738.084053799797402.946429284100304.122795142828181.671465233433992.425007272295261,1.342930922426604.850013824860071,2.014396611430129,1.275020377428518Z"/>
          <path class="cls-6" d="M89.137158736601123,129.506404894480511c6.702985901909415,1.964154355153369,13.412361439983215,3.906775581906913,20.107306994503233,5.898024082674965,8.032620591349769,2.389103019275353,16.054478089970871,4.814516056438151,24.077753579405908,7.235002149722277,2.858921029899648.862491520663752,3.830208568357193,3.006675803078906,2.291124016610411,5.018354005225774-.993598173992723,1.298699356344514-2.28900827495454,1.363230799535813-3.740576721720572.925961408358489-11.310422262780776-3.407154855896806-22.627181309295338-6.793234177570412-33.936963682068381-10.202510935079772-3.343783077983971-1.007971873392307-6.671503586181643-2.069315540025855-10.006583263071661-3.106205640444387.612484914459856-1.878799140122283,1.6166867504744-3.675329009089182,1.207939076341063-5.768625070457347Z"/>
          <path class="cls-6" d="M100.066105340069043,95.948830171360896c.124022230293122,2.04667701310791-.715382053585927,3.881676303139102-1.266324415832059,5.780052361911657-9.596296458790675-2.865604878848899-19.197905790208097-5.713588351654835-28.785327584351762-8.60863568228342-2.540920668516264-.767263960617129-3.273636798350708-3.253634337963376-1.580983247717086-5.074987149531808.982703799909359-1.057422551706622,2.167153652764682-1.096738904900121,3.463395710316036-.702576916059115,7.825403688766528,2.379546664798909,15.655680534435305,4.743039511675306,23.481744605198401,7.120416312462112,1.568214929444366.476387371631063,3.125285803216684.989533604542885,4.687494932386471,1.485731073500574Z"/>
          <path class="cls-6" d="M89.137158736601123,129.506404894480511c.937660675623192,1.488631810902007.327621397511393,4.401913044805042-1.207944877296541,5.768628567295309-9.210271541953261-2.742097161401034-18.424732599107301-5.470243674417361-27.628310213171062-8.234677793443552-2.813760334196559-.845157977024428-3.724624105740077-3.093296237115283-2.112837340653641-5.059616828237267,1.036786194705201-1.264839945770291,2.325420840941661-1.220288943826745,3.773005024389931-.778129100834121,8.062424185985947,2.462667110095936,16.138974730229165,4.878966417692936,24.208084214236806,7.31977498658307.997291516832775.301667557079782,1.979047648646883.654757400125163,2.968003192494507.984020168636562Z"/>
          <path class="cls-6" d="M114.696958751492275,124.936115124492062c-9.62386629129287-2.850149755238817-19.279221820355815-5.596261004422558-28.815258536071269-8.736594874897492-.36496572984106-2.135900666140515.3783794547453-3.946333938747557,1.642625417927775-5.60379526026918,9.924143841843033,2.777110487946629,19.794956103185541,5.731679420896398,29.598337900522893,8.910620673907033.97234171150194.470731500339753,1.288473731825434,1.473145886431666,1.716770920305862,2.315797428251244.58131376064739,1.143698944832067-.009328789423307,2.335860445084109-1.254888560149993,2.560452265073764-.964415007350908.173901721953371-1.872425988505711.659684623407884-2.887587142535267.553519767934631Z"/>
          <path class="cls-6" d="M78.202944584787474,144.630704928064006c7.760865860780541,2.286311076848506,15.53224969340954,4.537895364812357,23.274445247947369,6.885881223572142,1.711594948850689.51907855330137,2.472136252037672,2.266987920225802,1.950340414083257,3.796637708488561-.539295252252487,1.580932895380101-2.102285459153791,2.467211236969888-3.815557839778194,1.955407998566443-7.568350025700056-2.260838980006156-15.119147841116501-4.580526337835181-22.676301992050867-6.878903221015207.166155449336657-1.976205192453563.632111137401807-3.886258493004789,1.267074169798434-5.759023709611938Z"/>
          <path class="cls-6" d="M78.202944584787474,144.630704928064006c.22846110982573,2.063274004574851-.34803381205711,3.948938902589362-1.267074169798434,5.759023709611938-7.407186843274758-2.192787714471706-14.820859075814951-4.364038390649512-22.216841458492127-6.594043156625048-1.76964213993233-.53357564144244-2.692703807420912-2.142635704303757-2.292676587003371-3.642203524774231.450059581460664-1.687128983337971,1.961584162338113-2.78559845493146,3.622313335497893-2.291762055492654,7.401234720047796,2.200819769581358,14.772309125062748,4.503261074758484,22.154278879796038,6.768985027279996Z"/>
          <path class="cls-6" d="M114.696958751492275,124.936115124492062c.941134533974036-.362177594979585,1.638450175398248-1.11241972303651,2.866312995620319-1.053444723915163,1.210129146693362.058130503230132,1.402460013438031-1.253629098970123.798961701984808-1.972507959435461-.631627035811107-.752385795432929-.782846889447683-1.632204896159237-1.239544056359591-2.40375560686698,7.325527439228608,2.152529608136319,14.660386453015235,4.274230313114458,21.969989756693394,6.479771301061191,1.792556429059914.540873112066038,2.641403891615482,2.173300664069757,2.187560407212004,3.682847216914524-.541816181839749,1.802195675125404-2.146306824753992,2.668475088510604-4.078904087953561,2.08796163475381-7.507047651082758-2.254973439728928-15.003798295976594-4.54431889774969-22.504376717197374-6.820871862511922Z"/>
          <path class="cls-6" d="M87.524325633348781,110.59572498932539c-.547541492087475,1.867933146864743-1.095082984171313,3.735866293727668-1.64262285649238,5.603796881539893-7.010849762977159-2.069987760149161-14.02910348356636-4.115374673323458-21.02761749875026-6.22632228562361-1.876014809082335-.565864605650859-2.754383492052511-2.197629736818271-2.241997599636306-3.786132488205112.569612724204489-1.765918661400065,2.176208223518188-2.620704345374179,4.125219126721277-1.975338582282347,6.090741683719898,2.016804169439638,12.389220265702534,3.370864765242004,18.354886566228743,5.792556388059893.75308976818269.305707484649247,1.700033154584162.046591728696512,2.432132261928928.591440086511284Z"/>
        </g>
      </g>
      <g>
        <path class="cls-7" d="M152.612827862792983,210.79816335601754c.10465683448092.047554150107317.194176439703369.115135656553321.268585866455396.202747254183123-.710149277825622,1.121961229182489-1.420292054064703,2.243912186533635-2.130441331886686,3.365873415714304-.104873995054731-.052986031605542-.208514541494878-.108284560175889-.310904863143151-.165899354202338-.250378803233616-.802211641035683.195585479039437-1.405703587788594.574560527837093-2.029613213986522.398375526759992-.613385244230813.756652131860392-1.27553017315222,1.598199800737348-1.373108101708567Z"/>
        <path class="cls-11" d="M171.029649098698428,87.647501814333737c-2.159730163093627,7.27801323942731-4.304739106712077,14.560438347118179-6.482263473681087,21.833119738326786-4.394616832865722,14.677607875175454-8.807088994948572,29.349866793185356-13.21184543414347,44.024441319163088-4.499655510298908,14.990728798153214-8.997925164752814,29.981860006446368-13.503346366447659,44.970852865784764-.1310260687751.435891855810041-.336139051840291.849506357748396-.506715761119267,1.273514247723142-1.456449596676975.102046050486024-2.705905293958494-.609557506219062-3.996255409107107-1.084985481244075-14.715474686312518-5.421856261520588-29.666743719908482-10.073800473330266-44.88276452674836-13.874387250161817-4.802688908639539-1.199604268214898-9.135911329696683-3.562284608968184-13.599585575761012-5.593634272070631-.772130879740871-.351384298490302-1.517212960830875-.845473539522573-1.87681296617302-1.707853998901555-.257511938603784-1.812725633681112.41575417835702-3.400505456069368,1.253822074977506-4.923005443051807,2.118846854657022-3.84925040143753,4.886676536913001-7.263439540518448,7.468372252351401-10.789759944946127,1.838924095874972-2.511790196731454,3.637043084214383-5.059651697833033,5.466177518272161-7.576847008262121,4.986180210129532-6.861859469529008,9.9621221379075-13.732803349001188,14.899073809254332-20.629908112054181,3.201285255370749-4.472330347127354,6.387379159456032-8.960448151197852,9.607902429414025-13.418314191214449,4.501414333060893-6.230896414885137,8.956768370431746-12.496154961510911,13.521368718787926-18.682640747569167,2.753600031235692-3.731999170026029,5.529797393095578-7.462571677231608,8.105149725703086-11.309544212301262,1.642070015284844-2.452879443635538,3.990498020844825-2.871187279180958,6.38386674504909-3.520286120528908,5.6560972689349-1.533979807280048,11.45114320450557-2.185987501066847,17.277654934156089-2.624605557928589.938315701623651-.070641343290845,1.853339971679816-.03404819829484,2.765349384169895.19372148480943,3.603331676013113.89992767930562,7.066387122960805,2.317023775125563,10.751974294891625,2.916543785548129.269656491534988.043858302607987.441460496989748.274712209091376.558877626153844.52357889887935Z"/>
        <path class="cls-1" d="M171.029649098698428,87.647501814333737c-3.294675574485154.00978954349921-6.23345628738025-1.488747001976662-9.33780962597848-2.270087256127226-1.868344075761343-.4702476165603-3.62926529784454-.816370544913298-5.606091547406322-.711775424771986-6.751793343906684.357252186115147-13.290353530828725,1.777071541648183-19.796945626865636,3.453435861943944-.519031389190786.133725517416678-1.068574800487113.234625321081694-1.343333307164357.754430028373463-.812235694354968,1.536663740263975-2.08761199705441,2.722870260478885-3.078897636911279,4.118612975737051-3.327365472447127,4.685051826771087-6.504999955070161,9.479428892518627-9.924381236092813,14.095340812775248-3.889402999844606,5.250409366162785-7.659247745159519,10.583557581303467-11.485974267892743,15.876954454137376-3.865765765654942,5.347412704339149-7.699430368871617,10.717546586425669-11.564946867685649,16.064520003121288-3.943543494118785,5.454900994009222-7.950485882625799,10.861271407866298-11.788540799181646,16.394379458395633-3.457629283246206,4.984641419216132-7.126262647005206,9.822778737176122-10.693709298624526,14.731436703765212-1.61119304615022,2.216956141690389-2.855406907881843,4.601436994164033-3.248083307456909,7.359018940911483-.234792204415498.598808320288299-.753745512127352.462646511608909-1.182869413238222.399988339253468-4.584402952139499-.669291991216596-9.161379199307703-1.390855882998949-13.768651584732652-1.89472767366351-.260694279173549-.028517551336336-.500335556156642-.169236413586987-.740342552582661-.287368921402958-3.309682899456675-1.51546627958669-6.673156567907427-2.921598421380622-9.770092118473258-4.856306378991576-2.290525603599235-1.430934776013601-4.528098120219511-2.916689106872582-7.004733678997582-4.064571254008115-1.915277159620018-.887709851973341-2.274641885738674-2.240970902104891-1.760974199671182-4.065280593225907,3.433786741199583-5.597168663402044,7.515874806818829-10.736918360496929,11.341861833412622-16.056248352297189,1.661879972141833-2.310530040369486,3.320301658821336-4.627248610393508,4.980594395290609-6.93743091581382,4.984153901217724-6.935062817825383,10.049331505142618-13.812755684204603,14.989310894376104-20.777361487520466,4.520142446352111-6.372710313205971,9.089574165918748-12.711589981377983,13.658600030808884-19.047259261196814,4.491112412286384-6.227648254709493,9.058987872398575-12.407917581202128,13.467423056226835-18.690061925164628,3.166830632661004-4.512841666648455,7.466632090838175-7.420065359852742,11.976947225353797-10.209783103027803,1.054969676511973-.369975721692754,2.092510177160875-.068005562599865,3.133161041772837.105957239422423,9.080879489509243,1.518025596697044,18.14015629444657,3.182156514993039,27.14847026404459,5.058638701266318,10.613409580273583,2.210829281291808,21.340667042335554,3.996445492068233,31.659916602522571,7.475283518910146.252381672180491.08508793827059.500025945802918.172522107155601.724947226502991.316523342442451-.328285438015882,1.221247816913092-.656570063340041,2.4424943498434-.984855501355923,3.663742166756492Z"/>
        <path class="cls-4" d="M109.8675174882992,71.104278663429795c-2.803939406203426,2.19211643070048-5.812084759632853,4.098222455193536-8.595348200451554,6.335203174396156-2.088976798577278,1.678960739229296-3.220181673274055,4.015393181560285-4.731145081275827,6.032787825643027-2.086678961097277,2.786080399568164-4.115973060774195,5.660125010435877-6.112065278903174,8.533086382085457-4.207790624363042,6.056250625479151-8.722965824059429,11.898353162201602-13.077049089628417,17.853885868215002-1.439880378948146,1.969468228662663-2.73505344919613,4.033075958908739-4.215385589539437,5.987809509037106-3.423785533555929,4.520989659782572-6.483737275944804,9.315660486345223-9.844797267236572,13.886437808809205-4.102447017903614,5.579004782557604-8.096390770631842,11.233204412632404-12.135446215770571,16.856044967602429-3.961713662254624,5.515177041281277-8.118319963485192,10.890192049046163-11.828978783409184,16.585237039736967-.915976942262205.790551138070441-1.956187053157919,1.210282160252973-3.173417602891277,1.413675859317664-2.800871808176453.467987915855701-5.624647509877832.751985070573937-8.432752356944548,1.155041196525417-.855237938994833.122765318119491-1.874910198837824.427221038953576-2.509650361695094-.598779034127801,2.304732987999159-7.786233708020518,4.586826472735993-15.579272749277152,6.918735966883105-23.357354437979666,5.545047368741507-18.495558540460479,11.113745798546006-36.984045541559681,16.67277265453049-55.475424309677692,3.502719690244703-11.651352701072028,7.005230317992755-23.302772987322896,10.50783357700675-34.954163416359734.741047822959445-.266625044474495,1.435241022232731-.019371890084585,2.132024682816336.195675405515431,7.02360289653916,2.167693114717622,14.068486959038637,4.264710045579704,21.111950758722742,6.366568443187134,5.597492530701857,1.670364715126198,10.798242459321045,4.338537550773253,16.205376988302305,6.488285533641829,3.624474667718459,1.441008677273203,7.281149520455074,2.822061369508447,10.768445989202519,4.595523993715688.572310240540901.62550692892728,1.000880260229678,1.27607521234313.338895210281407,2.100458190716381Z"/>
        <path class="cls-13" d="M109.494643513084156,69.448007437365959c-6.736378314028116-2.769217024555473-13.521488198650331-5.42657746144323-20.197116368053685-8.335256143927836-8.847441906840686-3.854972588469536-18.313063365952985-5.728992606040265-27.392368895427353-8.827459256050133-.869270028504616-.296657585033245-1.730123421688404-.6179919932747-2.594606667287735-.927697279194035.590738198679901-2.00938170479094,1.18120249531421-4.018933180075692,1.771670985983292-6.028485597489635-.281429500710146-1.322972918158484.361983779743241-2.485333389409789.743193168573271-3.65541013247821,1.082161516224005-3.321572427526917,1.25357595501373-6.619338724874979.180092837385018-9.963469564199841-.162367003078543-.505801972300105-.271799622241815-1.029683656184716-.064862279592489-1.560264579149589.914244385892744-1.213547573071992,2.06491560635186-.61118829599036,3.08941716438494-.309989922858222,5.145989901466237,1.512909709857922,10.281814682230106,3.062017753136388,15.411161709940643,4.630005371980587,16.147901179665496,4.936248046398759,32.38738466576433,9.555772883699319,48.62296027632874,14.190759455299485,12.866680433986403,3.67322563239577,25.700458344677827,7.46067389968448,38.529741370735792,11.262590112537509,1.145334727536465.339417829593003,2.329853645664116.515775794880028,3.458316106052735.910133756433424,1.539381404732922,1.612511541075946,2.403629066584472,3.578067843380268,2.979385425705914,5.694473355955779-.479845461624791,1.254593873951308-1.533710932937538,1.234139869518913-2.485062569852744.901007095315435-4.29119474185427-1.502651312845046-8.801301197792782-2.006554938712725-13.239525820248673-2.587373695308997-4.233480816146766-.55401991679355-8.491201149990957-1.137997750347495-12.79878310155982-1.256458207468313-3.901502224742217-.107292719025281-7.789269151231565-.246198710565295-11.688041837793207.000267210436505-6.915457797173076.437175824852602-13.622181189088224,1.768856001350287-20.026544096266662,4.48498277744693-1.386340576027578.587956313611357-2.694034848809679,1.457362910650772-4.299027409007977,1.377645242719154Z"/>
        <path class="cls-24" d="M109.494643513084156,69.448007437365959c5.150336630558741-2.381707721235216,10.404596745331219-4.310136304013213,16.061958466580109-5.302834423466265,6.458951930479088-1.133347838758709,12.87477384208978-1.363286875852282,19.398744044592604-1.008465542168778,9.022433456762883.490712996477669,17.953524501586799,1.448317357764608,26.681560385870398,3.860395536259603.965858371895592.266924100711549,1.665956582164654.037592442235109,2.394939389983847-.469259448329467,1.513482115433362,3.418956979985524,1.247409055018579,6.891806605275633.261874696074301,10.364705776621122-.67782752430503,2.388658554637004-1.273580101482366,4.807072933474046-2.27960499909932,7.091302122535126-1.460803931238843.637812872371796-2.713724983781503-.304680404668034-3.963260714333956-.683778299935511-5.684718068798247-1.724700411665253-11.417220172308589-3.146591425092993-17.277602215677689-4.191195623336171-7.118062082941833-1.268779715130222-14.141669804655976-3.058704710292659-21.239873467469806-4.451099047553726-6.215206953669622-1.219178933110015-12.477333521295805-2.198813226121274-18.71759727369863-3.290780075887596-.321575641199161-.056265942377649-.632454236014382-.173790247865327-.948290546290082-.262757918102579.066239195712114-.594887009072409-.05792802043652-1.147006765348124-.372847766531777-1.656233056635756Z"/>
        <path class="cls-12" d="M57.967185259836697,175.440931930033912c5.064604897910613.690949471865679,10.129199521237751,1.381892440393131,15.193777368374867,2.072839177408241,5.577380696056935,3.175985006591873,11.381593215468456,5.776105925382581,17.646793783100293,7.325038650757051,15.331294369147145,3.790306194920049,30.296898303882699,8.764759681451324,45.138802124634822,14.126107145209971.490268277550058.177093072255957.920889381906818.519404550637773,1.379107198579732.78460309500224-.246200293880975.924201397141587-.492223191125959,1.848486304032122-.738235813787469,2.772777714253607-.998003963508381.692852302510801-1.942315778247576.074558994518156-2.847498803290364-.196985761504038-11.828071957192151-3.548283656982676-23.653108021146181-7.106615748027252-35.482644952564442-10.650129399622529-11.002712217981752-3.29584204357343-21.992962388934757-6.633517784637661-32.996535676809799-9.926567053234976-3.225170746087315-.965175304325385-3.349600147585079-.878223457008062-4.705285293082852,2.317799159669448-.103807302783025.244695089768356-.214389804155871.485634114238565-.343405419058399.717999047703415-1.401252721643687,2.493622633024643-3.536450393481573,4.231124591464322-5.905090399859546,5.727021778446215-1.152664271270623.570602270050586-2.330595186605933,1.079720124187588-3.596381905950693,1.353995655807012-2.783527787421917.824758265520359-5.575292179488315.86685653493987-8.373692973440484.070018487993366-3.545698988513323-.991151789745345-7.241231536216219-1.566660470825809-10.361945775804998-3.736713515751035-.204046146302062-2.318973575358541-.242203598985725-4.573202247322115.847627133076458-6.777730661355235,1.731544626936738-3.502627166843013,4.846275517591494-4.679505448253622,8.337618242005192-5.304570005406276,3.864677657376888-.69189573944459,7.784388012561976-.483103400882101,11.682008146312-.598391301922675,1.706302234801115-.050465720481952,3.411682195412141-.459853083497364,5.124983017565683-.077112213453802Z"/>
        <path class="cls-23" d="M53.814658246123145,190.253014304458702c2.355466881756001-1.499185312859481,4.47242041827667-3.247947219750131,5.940294957945298-5.675849763787483.881743082169123-.222538167390667,1.71483197656562.035471832432449,2.539088118723157.285200735303079,21.976232477591111,6.658335022471874,43.980095958635502,13.224860878610343,65.965690148248541,19.852103587809324,6.989684573818522,2.106940594279877,13.981329757461936,4.207827936543254,20.972754291651654,6.309223034555544.871614011823112.261965017434704,1.870114061668573.355635027368407,2.230618173660332,1.428624071171726-.341027439302707.582827363836259-.682054878607232,1.165654727672518-1.023064497319865,1.748522145186143-1.550448513131414,1.722854110819753-3.195852538457984,3.316346611134577-5.488815219523531,4.027695781418515-1.900242341915146-.00953309997567-3.583589888057759-.882371406050879-5.343571231069291-1.407093554906169-27.691127376399891-8.255873767411686-55.351146661043458-16.615757288214809-83.02875877088627-24.916970354341174-1.032546613037994-.309689455865737-2.290226405153589-.357501345062701-2.764235971430026-1.651455682409505Z"/>
        <path class="cls-18" d="M151.463103936352127,212.452315969510892c-3.796759339045821-1.548726060846093-7.780315270989377-2.509469280314079-11.691790892013159-3.693338832925292-11.883286360638522-3.596626136224586-23.778621903558815-7.153344080132229-35.669124932244813-10.726109250030277-12.838902699953906-3.857723015946249-25.679114740574732-7.711081063933307-38.514822545379502-11.579399289714274-1.955154157521974-.589241844925709-3.889014044743817-1.249140788982913-5.832578440284124-1.876337240415523.156810037222385-.432951745688115.312450624776829-.866284022746186.470265078438388-1.298844599137738,1.025650880976173-2.811065304687872,1.636142312732773-3.079852591452436,4.540916483101682-2.209081495297141,21.848381633926692,6.549500536229971,43.700504597421968,13.086564900842859,65.552648749873697,19.623527580804875,2.085442520909055.623857040391158,4.179042313526224,1.22043449001103,6.268834076479834,1.829621698709161,4.77862294085935,1.467465321606142,9.557843689093716,2.93312219813015,14.335728045876749,4.403141307760961q3.032459495942021.933030693429828,1.68960447563768,3.872668540398081c-.383196224192943.55138876257115-.766440048337245,1.102761783626192-1.149680099486432,1.654151579847166Z"/>
        <path class="cls-10" d="M57.887401201360262,23.588921396509249c5.993526053205642,1.755821997341627,11.992614252039857,3.492915024242393,17.979285675073697,5.271812855064127,9.197317068024859,2.732922784891343,18.389872381969326,5.482031099400047,27.57769579980959,8.246737788365863,17.335004843002025,5.216268819342076,34.669654005818302,10.433872603796772,51.993664076586356,15.686496661115598,3.472570630781775,1.052881901492583,7.052286591933807,1.794066437101719,10.317840719764718,3.486929763475928,1.132506655361794.587091424962637,2.208127858419175,1.202077245907276,3.025443293307035,2.199262603899115-.595691867558344,1.652293387887767-1.871922295013064,1.112564191789716-2.95360918892402.82201120008358-2.878307783103082-.773144633480115-5.712555015434191-1.701569975810344-8.581749877794209-2.514485567064185-9.674381107452064-2.741002212738749-19.320788288390759-5.579107221552476-29.000837076599055-8.302526739907989-15.086828996945769-4.244584974450845-30.196783213532399-8.407833023953572-45.171607761749328-13.049146196746733-6.322300705423913-1.959540209303668-12.670370242149147-3.852068375968884-19.027409101872763-5.706098315351483-.951213732480028-.277419813863162-2.002173383061745-.148384922551486-2.868854969741733-.732256246876204-1.333668572944589-1.513672444161784-2.88820229888006-2.848987361627223-3.834400732928771-4.682776550818744.030897904995072-.354624671523197.192268624876306-.612102842873355.544539145068484-.725961255238872Z"/>
        <path class="cls-21" d="M57.967190397128434,175.440935181704845c-3.574551707417413.836989105258908-7.222691610535549.54543770950113-10.840944183111787.682488818481943-2.970648592094221.112509007720291-5.898974333931619.296535703751942-8.770481769961407,1.239057039905674-3.686669343882386,1.210108471434069-6.042603463716659,4.296046284855038-6.012778714401065,8.154046760491838.00693776117987.89835848671828.317447677669406,1.867955385336245-.368077382619958,2.682283466068839-6.853692658511136-4.055967714552025-10.057701826477569-12.230615878612298-7.773356129724561-19.848621020586506.32175844435551-1.07301859913423.673438055775478-2.137083093530237,1.010591345077046-3.20537854709255,1.717389756353441.673976062553265,3.392236148960365-.047470634272031,5.059472669088791-.240421018424968,3.052773502984564-.353289537993987,6.151720036290499-.562113543217492,9.055711756975143-1.729660528915701-.94860100725964,2.047096285527005.93351026347591,3.038031334283005,1.971819055399465,3.400686738075819,3.940638839892927,1.376296543534409,6.913542947067981,4.329610509597842,10.626569445543282,6.046696500281541,2.014044884679606.931392599353785,4.213968084994121,1.487710345953019,6.041473907735053,2.818821791714072Z"/>
        <path class="cls-8" d="M53.814664747715142,190.253004032627359c3.291899121857568,1.582259641447308,6.874396902778244,2.284490304346036,10.332829163908173,3.3455447464803,12.928742871907161,3.966496089529755,25.889335930069137,7.82926510550169,38.843019475298206,11.714204801095548,12.828088296879287,3.847252468887746,25.662604988963722,7.673094373620188,38.493175198647805,11.512105819874705,1.198686944520887.358667186350431,2.4342702875947.633418342511504,3.467597281487542,1.403713516067-1.227383997531433,1.056635553459273-2.736562998194131,1.316653911799222-4.269595145513449,1.5092486906251-10.527033014595872-3.195602242221867-21.07994134049477-6.304988405032418-31.612018758885824-9.483526574675125-18.405106048805465-5.554580613459621-36.820135166559339-11.075863334212045-55.227299649846827-16.623258490188164-1.190312863031068-.358733146362283-2.928110581469809-.193266599035269-3.21945249127748-2.077615783993679,1.063911550529156-.433474409541304,2.127823101058311-.866948819086247,3.191744926181855-1.300416725285686Z"/>
        <path class="cls-22" d="M50.622918457236665,191.553434281409864c1.01819820527453,1.340329841290441,2.658748777283108,1.361357247027627,4.054258436506643,1.786825724559094,13.012768515385687,3.967455476178657,26.045650882151676,7.869074485566671,39.078155921501093,11.771562465964962,13.729419045035684,4.111150806062142,27.475280745997225,8.167881067967755,41.185692216322423,12.341324387112763,1.954045595100979.594812923816789,4.194458920577745.614283508139124,5.740685599383141,2.284802445730747-2.37291801389074.626269826821954-4.752574553534942.447391391455312-7.047990527595175-.239246669732893-25.521057735501017-7.633985651798866-51.032619483879898-15.299798687980001-76.540716168385188-22.977043022225189-4.93201473712179-1.484405021554267-9.83805800337359-3.055166676474983-14.756099483591242-4.586146135894523,2.776096455272636.17681045021709,5.547438039946428.250851586370118,8.286014005858306-.382079195514962Z"/>
        <path class="cls-19" d="M57.466820422312594,24.25328114788681c1.33730988660318,1.376433775145415,2.709034160146985,2.722727446620411,3.78883155087351,4.324700464281705.487294424476204.498221282483428.876323971808233,1.043759579828475.859813701381427,1.784567954104205,2.111930200157076,5.158993205510342.97720138069235,10.093176995900649-1.033115356032795,14.966647647906939-3.221032607940288-1.039620209412533-6.441938408896021-2.079156559138937-9.662844550937734-3.11868952799523-.975102350965244-.535051660535828-.56117648610234-1.384965048331651-.386431141278081-2.086780863137392,1.33196573461646-5.349499636233304,1.584011532411751-10.724083330485882.542410070418555-16.152728331780963-.148359878709016-.773210351066155-.286036634579432-1.624937933405818.739191426268007-2.003419613591177,1.008504004597853-.002764544447928,1.887585057764227.450735221509603,2.79790567695818.794100445480581.87380736472187.356631650569398,1.871261208143551.518110957791578,2.35423862234893,1.491601824731333Z"/>
        <path class="cls-16" d="M52.314676123005484,21.967578877674896c-1.051050318124908,1.693912870403437.060602598790865,3.3605624415286.218565440445673,4.985891417049061.414536155651149,4.26522217078309.060005671672116,8.412368267967395-.859527126514877,12.558811343551497-.194274193276215.876040421564539-.691962185897864,1.751690908819-.254232170616888,2.698106866684611-2.883550017017114-.588461489982365-5.656631314486731-1.544586690706637-8.420168742592068-2.532458613955896-.254035810941787-1.348902994939635.36406738749065-2.592687033031325.475373740020586-3.90325039464733.324176376612741-3.816994862781939-.213012686039292-7.380227971843851-2.624923741233943-10.508736770305404-.411123928124653-.533270270330831-1.046714179392438-1.124848771229153-.316746556040016-1.891635069228869,3.697648562087124-2.38733082737599,7.627112300742738-2.837488478504383,11.781659156531532-1.40672877914767Z"/>
        <path class="cls-2" d="M40.533016966473951,23.374307656822566c-.128006705708685.667916406795484.294675375047518,1.074080783511818.656004609068987,1.559691074828152,3.39643346932462,4.564698638379923,3.620567484509593,9.533192358307133,1.810299131922875,14.74391412577279-3.149506638408639-.914643422194786-6.300119628685934-1.825498358677578-9.447655436983041-2.746871948094849-.708678714034249-.20744834369907-1.178958083946782-.609239480369069-.960819637006352-1.441566319737831,1.222271891103446-4.663726485532607,2.864076339534222-9.07224905547082,7.239479442801894-11.799961067496042.215839324288027-.134557779059833.467637410041789-.211455983837368.702691890195638-.315205865272219Z"/>
        <path class="cls-15" d="M62.115465674567531,30.362549566272719c-.286359417339554-.594807520134054-.572718834682746-1.189615040262652-.859445164001954-1.784496541227782,12.96847155127216,3.879804877688002,25.903995202339502,7.876262952620891,38.918128225996043,11.597661010600859,8.36825946711906,2.392906405322719,16.782643791162627,4.646778298869322,25.161724115056131,6.998022518939251,9.268853770126952,2.600923344112744,18.621327207498325,4.929079446434116,27.778724952426273,7.940966999593002,4.384366280672111,1.44202918638257,8.880109079793328,2.543940451565504,13.318020581737073,3.825526146716584.890645622928787.257202364278783,1.69152220106298.338038501919073,2.348773803943914-.460142939546131,1.015418922041135.535121982475175,1.677261212189478,1.411364241132105,2.2709231196568,2.353353477094061-1.067713198259298.597246492661725-2.098628890460532.074102917049458-3.076039340756324-.209651934201247-13.623088727421418-3.954970052676799-27.229557139709868-7.967096832460811-40.849784180240022-11.931976508167281-15.709303884197652-4.573013715031266-31.474912465528178-8.952906429823997-47.093094163621572-13.83767612734664-5.162545826126006-1.614649401246425-10.35503077510657-3.135508470220884-15.553188122228676-4.631967926410653-.736149591419235-.211927364131043-1.639888018491547-.841679736104197-2.364743827967686.140381823955977Z"/>
        <path class="cls-15" d="M57.466820422312594,24.25328114788681c-.784815212802641-.49722989838483-1.569630766669434-.994456415894092-2.354342130380246-1.491645759948369.982400123630214.08329966747624,1.917942932690494.323465148750984,2.774926160222094.827280872656047-.140195873904304.221457801360884-.280390122410608.442913034761659-.420584029841848.664364887292322Z"/>
        <g>
          <path class="cls-5" d="M146.124839954394702,110.175115272617404c-.078150185796403.904983221682414.537585149984807,1.732332618257715.19341638755759,2.694035587030157-.678650206855309,1.896334070077501-2.135131742297744,2.560459185604486-4.514757097733309,1.851273062231485-8.662899504277448-2.581753797403508-17.321330803533783-5.178660899859096-25.975146209151717-7.790750589163508-5.681792990257236-1.715008156643307-11.352756613228848-3.465949251640268-17.028569681187946-5.2007946380254-.128754710367502-2.047713640135044.46982257579657-3.93562391082196,1.266321986189723-5.780048523329242,8.254764034161781,2.443197347722162,16.512249843333848,4.877225700787676,24.763390951377005,7.332619832370256,6.115127768754974,1.819754838383233,12.221347037835585,3.6694661153997,18.33451776741822,5.495849748629553.300876857538242.089889266655518.630298328989738.084053799797402.946429284100304.122795142828181.671465233433992.425007272295261,1.342930922426604.850013824860071,2.014396611430129,1.275020377428518Z"/>
          <path class="cls-5" d="M89.137158736601123,129.506404894480511c6.702985901909415,1.964154355153369,13.412361439983215,3.906775581906913,20.107306994503233,5.898024082674965,8.032620591349769,2.389103019275353,16.054478089970871,4.814516056438151,24.077753579405908,7.235002149722277,2.858921029899648.862491520663752,3.830208568357193,3.006675803078906,2.291124016610411,5.018354005225774-.993598173992723,1.298699356344514-2.28900827495454,1.363230799535813-3.740576721720572.925961408358489-11.310422262780776-3.407154855896806-22.627181309295338-6.793234177570412-33.936963682068381-10.202510935079772-3.343783077983971-1.007971873392307-6.671503586181643-2.069315540025855-10.006583263071661-3.106205640444387.612484914459856-1.878799140122283,1.6166867504744-3.675329009089182,1.207939076341063-5.768625070457347Z"/>
          <path class="cls-14" d="M100.066105340069043,95.948830171360896c.124022230293122,2.04667701310791-.715382053585927,3.881676303139102-1.266324415832059,5.780052361911657-9.596296458790675-2.865604878848899-19.197905790208097-5.713588351654835-28.785327584351762-8.60863568228342-2.540920668516264-.767263960617129-3.273636798350708-3.253634337963376-1.580983247717086-5.074987149531808.982703799909359-1.057422551706622,2.167153652764682-1.096738904900121,3.463395710316036-.702576916059115,7.825403688766528,2.379546664798909,15.655680534435305,4.743039511675306,23.481744605198401,7.120416312462112,1.568214929444366.476387371631063,3.125285803216684.989533604542885,4.687494932386471,1.485731073500574Z"/>
          <path class="cls-14" d="M89.137158736601123,129.506404894480511c.937660675623192,1.488631810902007.327621397511393,4.401913044805042-1.207944877296541,5.768628567295309-9.210271541953261-2.742097161401034-18.424732599107301-5.470243674417361-27.628310213171062-8.234677793443552-2.813760334196559-.845157977024428-3.724624105740077-3.093296237115283-2.112837340653641-5.059616828237267,1.036786194705201-1.264839945770291,2.325420840941661-1.220288943826745,3.773005024389931-.778129100834121,8.062424185985947,2.462667110095936,16.138974730229165,4.878966417692936,24.208084214236806,7.31977498658307.997291516832775.301667557079782,1.979047648646883.654757400125163,2.968003192494507.984020168636562Z"/>
          <path class="cls-20" d="M114.696958751492275,124.936115124492062c-9.62386629129287-2.850149755238817-19.279221820355815-5.596261004422558-28.815258536071269-8.736594874897492-.36496572984106-2.135900666140515.3783794547453-3.946333938747557,1.642625417927775-5.60379526026918,9.924143841843033,2.777110487946629,19.794956103185541,5.731679420896398,29.598337900522893,8.910620673907033.97234171150194.470731500339753,1.288473731825434,1.473145886431666,1.716770920305862,2.315797428251244.58131376064739,1.143698944832067-.009328789423307,2.335860445084109-1.254888560149993,2.560452265073764-.964415007350908.173901721953371-1.872425988505711.659684623407884-2.887587142535267.553519767934631Z"/>
          <path class="cls-3" d="M78.202944584787474,144.630704928064006c7.760865860780541,2.286311076848506,15.53224969340954,4.537895364812357,23.274445247947369,6.885881223572142,1.711594948850689.51907855330137,2.472136252037672,2.266987920225802,1.950340414083257,3.796637708488561-.539295252252487,1.580932895380101-2.102285459153791,2.467211236969888-3.815557839778194,1.955407998566443-7.568350025700056-2.260838980006156-15.119147841116501-4.580526337835181-22.676301992050867-6.878903221015207.166155449336657-1.976205192453563.632111137401807-3.886258493004789,1.267074169798434-5.759023709611938Z"/>
          <path class="cls-17" d="M78.202944584787474,144.630704928064006c.22846110982573,2.063274004574851-.34803381205711,3.948938902589362-1.267074169798434,5.759023709611938-7.407186843274758-2.192787714471706-14.820859075814951-4.364038390649512-22.216841458492127-6.594043156625048-1.76964213993233-.53357564144244-2.692703807420912-2.142635704303757-2.292676587003371-3.642203524774231.450059581460664-1.687128983337971,1.961584162338113-2.78559845493146,3.622313335497893-2.291762055492654,7.401234720047796,2.200819769581358,14.772309125062748,4.503261074758484,22.154278879796038,6.768985027279996Z"/>
          <path class="cls-9" d="M114.696958751492275,124.936115124492062c.941134533974036-.362177594979585,1.638450175398248-1.11241972303651,2.866312995620319-1.053444723915163,1.210129146693362.058130503230132,1.402460013438031-1.253629098970123.798961701984808-1.972507959435461-.631627035811107-.752385795432929-.782846889447683-1.632204896159237-1.239544056359591-2.40375560686698,7.325527439228608,2.152529608136319,14.660386453015235,4.274230313114458,21.969989756693394,6.479771301061191,1.792556429059914.540873112066038,2.641403891615482,2.173300664069757,2.187560407212004,3.682847216914524-.541816181839749,1.802195675125404-2.146306824753992,2.668475088510604-4.078904087953561,2.08796163475381-7.507047651082758-2.254973439728928-15.003798295976594-4.54431889774969-22.504376717197374-6.820871862511922Z"/>
          <path class="cls-14" d="M87.524325633348781,110.59572498932539c-.547541492087475,1.867933146864743-1.095082984171313,3.735866293727668-1.64262285649238,5.603796881539893-7.010849762977159-2.069987760149161-14.02910348356636-4.115374673323458-21.02761749875026-6.22632228562361-1.876014809082335-.565864605650859-2.754383492052511-2.197629736818271-2.241997599636306-3.786132488205112.569612724204489-1.765918661400065,2.176208223518188-2.620704345374179,4.125219126721277-1.975338582282347,6.090741683719898,2.016804169439638,12.389220265702534,3.370864765242004,18.354886566228743,5.792556388059893.75308976818269.305707484649247,1.700033154584162.046591728696512,2.432132261928928.591440086511284Z"/>
        </g>
      </g>
    </g>
  </a>
  <path class="cls-7" d="M61.082192196023243,45.329112207680737c-11.271147644965822,39.927367649443113-24.52461312275409,84.097795432991916-37.061246079476405,123.675687195540377,11.297218561467162-39.958186863856099,24.51452535012686-84.121043730328893,37.061246079476405-123.675687195540377h0Z"/>
</svg>