<?xml version="1.0" encoding="UTF-8"?>
<svg id="Genral_2" data-name="Genral 2" xmlns="http://www.w3.org/2000/svg" width="280" height="280" xmlns:xlink="http://www.w3.org/1999/xlink" viewBox="0 0 280 280">
  <a xlink:href="https://www.notion.so/dmmnotes/body-talk-1c2b761605724d48b40dbcd53d3f1acc?pvs=4">
    <g>
      <g>
        <path d="M118.269069609719736,43.022075976987253c4.468743301909853-3.246576328656374,10.123407165739991-.786612249088648,14.789012607259792-3.085905764219206h8.409374461580228c1.83463452334945,2.071031773237337,1.340710807429787,4.621974498666532,1.368162598029812,7.028196182336615.190366098020604,16.68673595970904,14.460220674700395,30.993305176396461,31.115261329799978,31.145636876566641,3.741487385679648.034217576456285,4.053762531009852.355957620753543,3.567425550090775,3.686421518868883-9.018005440409979,1.678176045177679-18.093721393581291,2.295285777468962-27.239939447590586,1.595079086662736-4.668560739459281-1.591768226749991-7.560574399149118-5.568384205987968-10.759313499480413-8.842989397209749-6.719601665849041-6.878964395296862-12.593759557419617-14.534080339624779-16.340315459508929-23.554277084707792-1.22104730537103-2.939795487243828-4.011189399139766-4.862511082912533-4.909668140180656-7.972161418298128Z" style="fill: none; stroke: #22100b; stroke-linecap: round; stroke-linejoin: round; stroke-width: 34px;"/>
        <path d="M102.530498121970595,195.860555189585284c-13.878481102619844-7.741144058551072-21.576298415169731-19.647783832613641-24.232065427480848-35.237112372076808-1.108238229910057-6.505349524690246.049804489290182-13.196677765199638-2.003628093149018-19.570139346062206v-16.852855543114856c2.971733272628626-2.738370444712928,6.279963504959596-4.571622507195571,10.356375467419639-2.768232472451928,4.321556833479917,1.911852841094515,4.182709959199201,6.0123608767517,4.346860318970357,9.874045015101728.385486937590031,9.068678341787745.32830673440003,18.183033692635945,1.263916167528805,27.194085392624402.977698369320933,9.416415065241381,6.069127357341131,16.846828492303757,13.389863489830532,22.741830635712176.353849811539476,1.300750069442074-.283568255330465,2.040020085556534-1.410226472329668,2.505308407979101-4.81687298793986-.262715126711555-5.923112782829776-4.756066334073694-8.470982599290437-7.566231008018804-1.498809222279306-1.653115567914938-2.546121499099172-3.682728945741474-3.317275819879796-5.815123630025482-4.681843540569389-9.431715738224739-4.442891462289481-19.706077468032163-4.962860495610585-29.821365236832207-.247235533779531-4.809650833798514-.161005593959999-9.6161595651065-2.430259384329474-14.077406681826687.886183378359419,14.383805872799712-.841447906710528,29.017324514697975,4.400346399739647,42.938011803365953,2.837391774110074,8.524805312885292,9.786696678749649,14.07584768468223,15.047137030529484,20.857870985757472.196248624570217,2.169979373124079,1.386365549160473,4.695940475208772-1.977200581948637,5.597314049868146Z" style="fill: none; stroke: #22100b; stroke-linecap: round; stroke-linejoin: round; stroke-width: 34px;"/>
        <path d="M178.268382426249445,80.855565997015219c-.795893412539954-1.287349926478782-1.789483024349465-2.071798715453042-3.452429574219423-1.721518576559902-14.26653437764071,3.005111641366966-34.718792039489927-15.721355105459224-33.387873413279522-30.262306283008002.270459884968659-2.954875168366925.039293031859415-5.955848988225625.039377239809255-8.935570924679269h9.460546269270708c2.379636373749236,2.269421944560236,6.253995879420472,1.531300332751925,8.431517141640143,4.207397781749023-.390339921750638,1.52668963888209-1.733063700099592,2.104419123445041-2.857095431139896,2.918849476667674-4.545424662081132,3.293435706962555-5.485907128881081,6.781100157793844-3.024147957661626,11.757973525291163,1.845196605801902,3.730378809434114,4.664815490790716,6.592647337620292,8.497824884760121,8.259259481312256,3.675692910050202,1.598205117015823,7.115900302300361,1.434807751560584,10.072802199720172-1.758526677540431,1.32884149686106-1.435097049998149,2.491159774301195-3.667372020281618,5.130597712921372-2.192315623420654.836321246719308,5.994573040798059,2.713701327738818,11.870003341211486,2.055764591199477,18.035587921653132-.426276665459227.223929045743716-.743435871690963.104834521764133-.966883663020781-.308830101464991Z" style="fill: none; stroke: #22100b; stroke-linecap: round; stroke-linejoin: round; stroke-width: 34px;"/>
        <path d="M91.011209909100216,240.063829787230134c.026262854589731-.346225942714227.004262526059392-.689317819009375-.066001988079734-1.029307773156688,1.171726510539884-2.552544414182194,3.562801130368825-2.412845412507522,5.776339334339355-2.574000715061629,8.967296216929753-.652834071450343,17.899894749949453-1.601009704658281,26.775861433899991-3.051873519572837,6.445508809470994-.545022186586721,12.929392383181039.33995780987425,19.366520497011152-.525012377902385,1.205929973999446-.267617128036363,2.414859354848886-.280876639815688,3.62562527092814-.035905150683902,1.642455949520809.861048586719335,4.482573454670273.718938764721315,3.346046868300618,3.94821651582788-14.090050561098906.790491911917343-28.179980825148959,1.58312141785791-42.270392277459905,2.367055898495892-1.045848662499338.058197202608426-2.113190400890744-.004484125800445-2.888765638879704.90082712205367h-13.665233500059912Z" style="fill: none; stroke: #22100b; stroke-linecap: round; stroke-linejoin: round; stroke-width: 34px;"/>
        <path d="M170.877362732589972,171.498484539104538c-2.946540310069395,1.851124277145573-4.678794009929334,5.367908423957488-8.403744558849212,6.151264307720339-.809190248301093-.72983567258234-1.157362038311476-1.711087760626469-1.525078091730393-2.699845535944405-3.399370548040679-9.140552931698039-9.654641576360518-14.912643418947482-19.579654819839561-15.644134521484375-8.652510872811035-.637710191955193-17.692286072380739,5.612831696684225-21.780686138770761,14.463314727065153-.653614061950066,1.414926519959408-.982209509309541,3.006726890982463-2.288559464619539,4.048426280602143-3.26911288429983-1.444081373736481-6.047237301110727-3.555863544253953-8.420985133450813-6.217553830545512-.824349683640321-4.793466193357744,2.194765846719747-8.246259132718478,4.346178635591059-11.901697592398705,4.413330463128659-7.498647678285124,10.846131892458288-13.550883523186712,15.313447669179368-21.028958868046175,2.205121419199713-1.61743542712793,6.403316618299868-.952458857314923,6.143370696949205-5.394684601684276-.595606816419604-2.758589191158535-2.685218992270165-3.282653313066476-5.048887935368839-3.460137905280135-2.191499781371022-.164554559207318-4.508064403091339.25751579088319-6.439939055280774-1.277831204231916-2.109942380109715-3.226794606174735-2.271196587998929-6.882916131613456-2.343274580420257-10.558203678621794,1.186241354100275-3.044898212770931,3.945711705780923-2.305387114623954,6.256578256450666-2.539863499281637,2.826239233560045-.286775113539989,5.725250172608867-.336671058168577,6.422347614239698-3.995010538303177-.398600320329933-3.219345171375608-2.777534961189303-3.570649908906489-5.321232474389035-3.738322462402721-2.562933014150985-.168950288265478-5.217183531571209.392995856993366-7.6469877920008-.914279499458644-1.639985849760706-1.614040188505896-1.295539258910139-3.577677450148258-.668735403209212-5.389903141376635.760193253059697-2.197872564267527.318209800609111-4.097703448014727-.754735776150483-5.994376157139413.774652960470121-2.06293493272824,2.654583339299279-2.070721882373618,4.287872652359511-2.00255995576299,3.523072021629559.147019859392458,6.734658848679828-.782443790070829,9.858268421010507-2.244027719358201,7.20358483416021,2.728176692779016,13.885657825130693,6.178144954326854,17.958106500480426,13.192322216482353-1.373279233261201,3.508675754457727-6.282458165371281,1.174664166526782-7.659306211611693,4.665274840692291-.72552764836837,4.216677430977143,2.080826480081669,4.959716362864128,5.228030317070079,5.361439389425868,2.346338145711343.299512280917043,4.933920028810462-.46027381615022,6.888715282100748,1.585419733231902,1.511163731020133,3.419973638690863.341242678969138,6.637751776856021-.712920515790756,9.863421333544466-1.057932502839321,2.075885055899562-2.996904681969681,2.59306226775152-5.079086508998444,2.825955547063131-2.109040152101443.235890732579719-4.001032316809869.816850214121587-4.971853703809757,2.947894839024229-.676125653011695,3.658620742506173,1.675834375608247,4.537862986599066,4.514027127688678,4.922710270897369,2.042163002870439.276914858415694,4.240656053711064-.232949531786289,6.039353833350106,1.253007790968695,1.476221443081158,5.144304838959215,4.49838850902961,9.372369377932046,7.929942532289715,13.33494634681665,3.231451882649708,3.731515913021212,5.520312089931394,8.020236691329046,7.539971521529878,12.471784274281163,1.191141454610261,2.625407440424169,1.840970168859712,5.296427601369942-.080542895999315,7.914208813504956Z" style="fill: none; stroke: #22100b; stroke-linecap: round; stroke-linejoin: round; stroke-width: 34px;"/>
        <path d="M123.604272583439524,234.79451587843505c-8.59203753742986,1.940404989789386-17.367985230299382,2.3701256763743-26.09989617698011,3.128135802469842-2.231328135168951.193717449055839-4.52089609020004-.161814260109168-6.558758472929185,1.111789972490442-2.643016776350123-1.92524896602481-1.727471891459572-4.359020298938049-.717691296960766-6.582423450430724,1.952266007459912-4.29865335804061,3.949878996660118-8.594478020235329,6.244300938320521-12.715019972780283,3.327499065590018-5.975828912783982,8.622590987399235-8.862882682911732,15.43230117100029-9.195447310461532,5.221802938920518-.255048718083344,10.433324488560174-.721462089990382,15.649421336620435-1.093869541420645,3.40061762762889-2.122775511192231,7.455021742998724-1.127122789746863,11.05230903492884-2.324834398566964,1.27945554111102-.425991951149626,3.229458961250202-.484880255584358,3.034341129101449-2.195630501366395-.201008378511688-1.762390017107464-2.167901506800263-1.299175000163814-3.458352199801084-1.364685024418577-3.82707072877929-.194344262339655-7.674708246049704-.330603827020241-10.511016344080417,3.005666130040481-.766368502479963-3.429761569204857-2.910595546569311-4.396098715515109-6.350209473288487-4.45347623921225-6.832556601500983-.114047873434174-13.175931196461534-2.211011535027865-18.790369726160861-6.254375092952614,1.955085971199878-1.797009396954309.76909523598988-4.135778336989461,1.067608396899232-6.218614591489313,2.320516380361369-.859280651815425,4.031106583461224.694701984401036,5.753311468350148,1.673253953682433,9.367175696070262,5.322496605132983,19.478569194759984,5.857039759381223,29.815996871710013,4.751067899938789,3.111026499171203-.332853925991003,6.195242792080535-.743496987748586,9.328363852480834-.6245310408558,4.909395466829665-.045130556452932,9.552693822299261.482614084481611,11.99235843228962,5.675762143193424-.004009902220787,2.060062038512115-.008019804439755,4.120108004888607-.012021686859953,6.180170043398903-.120481522120826,4.326056349051214-3.951245370839388,4.506048194398318-6.623893319650961,5.453468437237461-6.967052731868534,2.469724700005827-13.665249539668366,5.362307284740382-19.964192413068304,9.284936960868436-4.977788359101396,3.099897060415969-8.67062360115051,7.035255867849628-10.283911521921254,12.758655820634885Z" style="fill: none; stroke: #22100b; stroke-linecap: round; stroke-linejoin: round; stroke-width: 34px;"/>
        <path d="M160.488291524939996,201.117284616295365c-3.538337719390256-2.380958295696473-6.913688953129167-5.211872096557272-11.665519322099499-4.242866975755533-1.366366161841142-1.738538968042121-4.324005881260746-2.051736672327024-4.408534620069986-4.940960180747425,1.81764857754024-2.326168385810888,4.439274530488547-1.671646740134747,6.768145542129787-1.639775695457502,5.250197056549951.071874589908475,10.486174999819923-.112215649987775,15.455093455209862-1.841722077886516,4.761790966089393-1.657406828089734,9.630710479910704-3.491912517140008,10.535865708150595-9.552023708431079,8.367655438869406-8.403235680045327,14.003196079009285-18.192789478878694,12.453689662948818-30.390302761032217-1.01748060924001-8.009444252347748-.127306375688931-16.075775828259793-1.709798247418803-24.036666159292508-1.116316679170268-5.615708608936984,2.118391244088343-10.287050680777611,6.68317571407897-10.710037142591318,4.418816009370858-.409461759800251,7.656034131410706,3.738523364092543,7.855021519200818,9.753664720285087.318081483739661,9.61509880416088.931179493649324,19.21449513195148,1.229291664329139,28.83679425281116.681041793141048,21.982269548541808-15.707011552309268,42.442869489270379-37.561131030459364,47.648200226683912-1.861484828610628.443365929615538-3.756083429771024.747081073963273-5.635300046000339,1.115695501413938Z" style="fill: none; stroke: #22100b; stroke-linecap: round; stroke-linejoin: round; stroke-width: 34px;"/>
        <path d="M118.269069609719736,43.022075976987253c3.231327575680552,2.015794857084984,4.962490582129249,5.117201693727111,6.553619783229806,8.475938487184976,4.568345263171068,9.643387771640846,10.794231728021259,18.06971107431491,18.903192335030326,25.078470017793734,1.950697133219364,1.686043355499351,3.578974068499519,3.746639792518181,5.355529168080466,5.634983117424781-1.22483265306073,3.25039653713975-5.009931735299688,1.599101138566766-6.876148248529717,3.625162574451679-.640589899539918.42212258453219-1.316442879200622.759536978966935-2.07633538959999.900272633378336-3.525943111621018-.286128210085735-5.817477923679689-2.942868278645619-8.659331716491579-4.546099956036414-.453427713389829-.255800090419143-.86961947475902-.577395485497618-1.308675698588559-.859811032287325-10.944169991849776-7.039792228089937-11.230521119319747-6.969822186238162-17.135731693690104,4.188985141528974-6.117913832700651,2.207901576812219-12.410877941900253,1.127162970085919-18.650183544530591,1.031312772060119-.678471445799005-10.577092455854654-.617587095439376-21.003699498105561,5.842994936470859-30.201846927329825,4.540221813949756-6.464062217633909,10.188914933369233-11.393928104604129,18.051070068619083-13.327366828169033Z" style="fill: none; stroke: #22100b; stroke-linecap: round; stroke-linejoin: round; stroke-width: 34px;"/>
        <path d="M117.299639658780507,177.817509797063394c1.967334217539246-11.629628482829503,12.95293852902978-20.260325060389732,24.905482642168863-19.961166366456382,8.529017914130236.213478139639847,20.950315586951547,10.675232933190273,20.268560031219749,19.794996557631748-15.041632437259977,4.494845915960468-30.090001510239745,7.15295211603916-45.174042673388612.166169808824634Z" style="fill: none; stroke: #22100b; stroke-linecap: round; stroke-linejoin: round; stroke-width: 34px;"/>
        <path d="M123.604272583439524,234.79451587843505c-1.592396330210249-5.767405459755537,2.660578143120802-8.664520386699223,6.180642738090683-11.397137006908451,6.791238569019697-5.272014027559635,14.527687279560269-8.926528339448851,22.753392179829461-11.507472217041141,2.963574374709424-.929853398749401,6.103600486731011-1.654610276515086,7.937368871189392-4.591825181507375,4.348137472830786.048039612978755,8.645068494301086.002796551576466,13.009494189940597-.625752523150368,7.273417281330694-1.04753357480331,13.866177720139603.695200220601691,18.515563107190246,7.051167281984817-1.938755644408957,2.706161885193069-4.88521575643972,2.25087043104395-7.621204120729089,2.422215467498972-12.642965067570913.791825899163086-24.990929648580277,2.791328131150294-36.006933028800631,9.587237757288676-2.826836708989504,1.743923133431963-6.551983743129313,3.350108065718814-4.804295929630825,8.02327432493621-6.555428249128454,2.262169142293715-13.32170517682971.453732457006481-19.964028007079833,1.038292096898658Z" style="fill: none; stroke: #22100b; stroke-linecap: round; stroke-linejoin: round; stroke-width: 34px;"/>
        <path d="M170.877362732589972,171.498484539104538c.514983722379839-7.838292081520194-4.164989198799958-13.411465783883614-8.249812432419276-19.298761338322947-3.090479760179733-4.454183413174178-8.287521552891121-7.85927425439877-7.495156854311062-14.363522837809796,1.725942113749625-1.725938413817858,4.041989458090029-1.930038462402081,6.233024090801337-2.186935476065628,6.000433722398157-.703541658920585,12.081338162559405-.148844046769227,18.082485647559224-1.050956939663592,1.025580611720216-.154163923616579,2.047600430279999.238237264362397,2.861081273949821.978560005351028.514566692549124,10.660984985075629,1.035164278029697,21.305142444296507-5.973070149650084,30.512370630072837-1.582564049960638,2.079115555134194-3.012735775930196,4.237707820264404-5.45855157592996,5.409245956438099Z" style="fill: none; stroke: #22100b; stroke-linecap: round; stroke-linejoin: round; stroke-width: 34px;"/>
        <path d="M128.840892111069479,139.124373986393039c-1.161203524628945,5.377977616843054-5.299939893599003,8.892166113771964-8.495908151498952,12.855249354926855-4.847538715170231,6.011083141980635-8.855335737031055,12.367371646074389-11.466307379780119,19.620332625197989-9.060167557310706-8.268776194538077-11.253971027499574-18.907613776913422-10.506372877311151-30.561736194229525,2.594757603121252-2.220502131036483,5.876698164631307-2.130200837787925,8.94646477490096-2.431802496317687,5.728642549889628-.562814040573357,11.535526311909052.301947209442005,17.258522919479219-.913532145159479,1.525334725471112-.323957998996775,3.16572156545044-.009177189363982,4.263600714210042,1.431488855581847Z" style="fill: none; stroke: #22100b; stroke-linecap: round; stroke-linejoin: round; stroke-width: 34px;"/>
        <path d="M143.568300590519357,233.756223781536391c-5.606905928380002-1.812888666816434-2.416707919768669-4.397111260048405-.22774640651005-6.120333482969727,9.123963096681109-7.182814143779979,19.764326856691696-10.353701826654287,31.159241937340994-11.945582558353635,5.828817927169439-.814294744579456,11.813139862450043-.100049043423496,17.500303983770209-1.966779364131071,2.070504991768757,3.162964120077959,4.140368399170256,6.325944312289721,6.210231806579031,9.488940576637106-1.561808796059267,2.32690770404588-3.872218217878981,1.739808666745375-6.114298905849864,1.660814120816212-7.778841396810094-.273965621556272-15.595728745900487-.976510808075545-23.147080369930336,1.798246951384499-3.789157103288744,1.392345169599139-7.435200796318895,2.952660227198066-9.468357558798743,6.798818682664205-4.184437224581416,3.172977060487028-8.475481709590895,1.357115048604101-12.751047972031301.280089105175648-1.053746164920085.001928656260134-2.107500349649854.003857312518448-3.161246514569939.005785968776763Z" style="fill: none; stroke: #22100b; stroke-linecap: round; stroke-linejoin: round; stroke-width: 34px;"/>
        <path d="M177.179501498070749,63.128808176827079c-1.795489857870052-.0066498460601-2.913859606980623,1.109087844712121-3.773470365800677,2.464971365934616-3.082764708309696,4.862423690674404-7.37052909329941,4.519753707934797-11.927213560820746,2.783667749572487-3.560127528049634-1.356395820541366-6.336872538498938-3.917958711750543-8.195823108919285-7.08220860266556-3.872731485360418-6.592034587454691-4.633851025839249-13.274471923512465,6.076277013000436-17.15159837054307,9.291825623449768,3.169694326814351,13.699927174078766,10.941816422013289,17.820230022540272,18.985167857701526Z" style="fill: none; stroke: #22100b; stroke-linecap: round; stroke-linejoin: round; stroke-width: 34px;"/>
        <path d="M94.375004604629794,86.551289732486111c4.255939796019447-1.930496518261862,8.824952707909688-.857625221857234,13.221082695470614-1.412567934075923,1.849717770539428-.233495984391993,3.828223575659649.32395398096196,5.548876628388825-.802288859367764,5.891621015751298-3.151524777642408,12.159094176520739-2.265435803830769,18.098729761461072-.822286613951292,3.41266337388879.829165487939463,5.154500740049116,4.016044945625254,2.733377917929829,7.79980735308709-2.152343086179826,3.133234687455115-5.284646126519874,3.497043546398345-8.767538927910209,3.451925044044401-2.012998984020669-.026081057863848-4.213011787800497-.424063294891312-6.099133455660194.853876396255146-.778903456830449,1.06171321634065-1.929139898880749,1.443856363843224-3.141237102488958,1.522557593301826-5.642778513651137.366384418653979-11.315160130439835.145521132755675-16.940796312090242.942245015210574-1.388961960850793.196710884290951-2.711758530111183-.331897633926928-3.684143778980797-1.467032383217884-.323071807049928-3.355411870426906-.646145619059098-6.71082374085745-.96921742611994-10.066235611286174Z" style="fill: none; stroke: #22100b; stroke-linecap: round; stroke-linejoin: round; stroke-width: 34px;"/>
        <path d="M159.341876519700236,232.690110818108224c-.324296832181062-2.528709437252473,1.184645413010003-3.651235596251354,3.176588400468972-4.81485820569651,9.643269493661137-5.633251344823293,20.153864798010545-5.05920288154266,30.622011277449928-4.297030072357302,1.811697882640146.131904015965119,3.385520345771511-.245935817260033,5.070032149780673-.365769659469152,2.005520516380784,2.062135343987393,3.717291635690344,4.247495750776579,3.095051048720052,7.411552776067765-4.468771371230105,2.322680732409935-9.31032731229061,2.423613743285387-14.198903366790546,2.639671460670797-7.121610403070008.314740629291919-14.214301391319168,1.266500348712725-21.365240219220141.981589602888562-2.234566131210158-.089039630611296-4.585307149558503.27978373460428-6.399539290408939-1.555155902104161Z" style="fill: none; stroke: #22100b; stroke-linecap: round; stroke-linejoin: round; stroke-width: 34px;"/>
        <path d="M154.081991539389492,126.354789113625884c-.146441629100082-3.621976273592736,1.697359530729955-7.04935916674367,1.043994082720019-10.720901906184736.401872400540014-.576812870584035.865160463490611-1.256085604914915,1.518365515410551-1.364194824287551,8.12890586065987-1.345310065085869,16.283258560819377-2.202621880303923,24.511289204370769-.892606224751944.082315272789856,3.963308251051785.164638565369387,7.926608466035759.246961857959832,11.889916717085725-9.022296035791442,2.495335647909087-18.073343070500414,4.265769768830069-27.32061066046117,1.087786238138506Z" style="fill: none; stroke: #22100b; stroke-linecap: round; stroke-linejoin: round; stroke-width: 34px;"/>
        <path d="M95.344222030749734,96.617525343772286c7.922199411101246-.332532483276736,15.844398822200674-.665068984591926,23.766385708480811-.997685846581589,2.319263285909983.162179901191848,4.075127290039745.588352663866317,2.804722098238926,3.681969537339683-.889364233298693,2.165712221152717-1.781270744599169,4.421424383011981-1.480560157269792,6.885250609291688-4.517704208030409,3.358116007224453-9.805313652299446,2.671192936400985-14.876470579649322,2.595935161969464-3.846147838599791-.057072153122135-7.115445178400478.595167249315637-9.457518793100462,3.884450318273593-1.128705272079969-5.308489739054494-.299170784870512-10.709659447409649-.756558276700162-16.049919780292839Z" style="fill: none; stroke: #22100b; stroke-linecap: round; stroke-linejoin: round; stroke-width: 34px;"/>
        <path d="M121.427673598729598,117.580938025257637c.720779924129602,3.574949205150915,1.441555838369823,7.149890374228562,2.162335762510338,10.724839579379477-2.677872851400025,2.395109810993745-6.156563275260851,2.163534446792255-9.301096517379847,2.41066763814888-5.627304300969627.442281060470123-11.318103398660242.972846361182746-16.952930276200277-.195710393858462-.271015256430474-3.969262977248945-.542030512859128-7.938525954497891-.813047774239749-11.907788931748655,8.186736670490063-3.126657166005316,16.500877959280842-3.166355340665177,24.904738805309535-1.032007891921239Z" style="fill: none; stroke: #22100b; stroke-linecap: round; stroke-linejoin: round; stroke-width: 34px;"/>
        <path d="M97.335982567659812,130.520734848927532c8.75135295760083-.738313724050386,17.502707920149987-1.476627448104409,26.254042833190397-2.214949208224425,2.42387361504916-.01696413900936,4.849816339630706-.104661746307102,7.271155696480491-.033936314084713,3.437933777689977.100434774674795,5.689100904090083,1.487484175628197,5.335872627389108,5.401177744421148-4.08127046025038,3.723745035511456-9.385697434428948,3.234686024698021-14.273463488669222,4.057804371663224-6.383748295471378,1.075041034693641-12.817897051951149,1.041096684539298-19.206551462781135-.07662390594669-2.017347722980048-.35293605928382-4.2238385237888-.58883482793135-5.192085553569996-2.916457742006969-.062991553979373-1.405668969917315-.125981103008598-2.811345975902441-.188970652039643-4.217014945821575Z" style="fill: none; stroke: #22100b; stroke-linecap: round; stroke-linejoin: round; stroke-width: 34px;"/>
        <path d="M96.100780307449895,112.667445124065125c-.44114738783901-3.607069367924851.735325844449108-5.163671762225931,4.766719135919629-5.182154718038873,6.52427732373144-.029910244145867,13.045056007780659-.825786321454871,19.567290286329808-1.298226744171188,2.919489509700725-.024015788454562,5.839015108520471-.045761387771563,8.758500608309987-.07262998027727,3.650045575461263-.033586745139473,6.022965362981267,1.299504478942254,5.797701085941299,5.42346979634749-6.562658102840942,4.671575117805332-14.369280102229823,3.807038877685045-21.712934830860831,4.568271466945589-5.661655128349594.58686599133398-11.537372871889602.486455324862618-16.834722368650546-2.457710778726323-.102900105828667-.330965450069925-.217086081458547-.657969118739857-.342553916989345-.981019042079424Z" style="fill: none; stroke: #22100b; stroke-linecap: round; stroke-linejoin: round; stroke-width: 34px;"/>
        <path d="M154.081991539389492,126.354789113625884c9.144309340550535.581200563574384,18.202068951581168-1.019953790304498,27.320626700069624-1.087778202070695.192547484830357.237578306807336.231523734411894.498220128041794.116896669531343.781909391567751,1.406986471340133,4.380573032631219-.629642866470022,6.531731935096104-4.714025010840487,7.502625531818921-9.262064129159626,2.20168969644692-18.653471664350946,2.007819562102668-28.036209790929206,1.420543731313956-2.223667216980175-.139176657272401-5.050953035020939-.325774150305733-5.382523829830461-3.677481393504422.373714867149829-3.042479356377953,2.493220864049363-3.830311329875258,5.120669195019218-4.082804578416471,1.869600870721115-.179670402638294,3.841518406479736.231503039591189,5.574566066979969-.85701448070904Z" style="fill: none; stroke: #22100b; stroke-linecap: round; stroke-linejoin: round; stroke-width: 34px;"/>
        <path d="M141.476266433739511,85.239799458504422c1.560802310610597-3.465670737921755,5.32301287097107-1.380905827161769,7.605024165261057-3.02841221979179,9.764232204039217.307315302696225,19.460328149549241-.855588078686196,29.187091827248878-1.355821241697413.313093165379541.131847763488622.63538504645112.234785773265685.966883663020781.308822065398999-.027748523370974,1.350256264782729-.055489026930445,2.700504493499466-.0832375502996,4.050752722214384-2.95927575953101,3.89316543374116-7.534293499989872,4.016169504677237-11.711945970011584,4.832621933444898-7.038854041029481,1.37561809458748-14.145226815659043,1.588304681554291-21.139194011238942-.329185461063389-2.249819799260877-.616816415817084-4.926385422540989-1.148671505405218-4.824622123980589-4.478777798505689Z" style="fill: none; stroke: #22100b; stroke-linecap: round; stroke-linejoin: round; stroke-width: 34px;"/>
        <path d="M179.579043026440559,86.218604563920962c1.821883034279381,5.617593066821428.280572858369851,11.373952951462343.700602096159855,17.049385615879146-3.377211828361396,2.29514112824836-7.178871806770985,1.118046051229612-10.810030742761228,1.344309574651561-5.310369649268978-.345337957229276-8.776256455339535-4.033447050325776-12.345863392249157-7.247211172652896-2.824807698460063-2.543202485427173-1.869183840879487-3.940823333501612,3.595470806230878-5.781476614374697,3.049105589068859-.679935709920755,6.16422218849948-.363407055556308,9.248751253788214-.560234462827793,3.900584266189981-.248893090192723,7.418182771290958-1.1707626556381,9.611069978831438-4.804772940675321Z" style="fill: none; stroke: #22100b; stroke-linecap: round; stroke-linejoin: round; stroke-width: 34px;"/>
        <path d="M169.081985151980916,103.252070729598927c3.732553323539832.005307822742907,7.465106647079665.010615645489452,11.197659970619497.015919450201181.033210010189578,1.358376711239544.066412000580385,2.716757440513902.099622010769963,4.075134151753446-1.96721793037068,2.334919663586334-4.843159901951367,2.58015634295225-7.519665376690682,3.171988624153528-8.215760342760404,1.816665618656771-16.535697945209904,2.177276122636613-24.849283862540688.998907328879795-2.082157767619719-.295116551860701-5.173720201408287.210649443793955-5.608658255659975-3.291886754905136,1.350847840250935-4.810213358538022,6.086253649731589-2.020568783580529,8.738916245871224-3.907634373716064,4.063041444749615-2.884920194141159,8.565664410520185-1.661167707794448,12.932319611800267-1.271824243594892,1.676901009599533.149515058425095,3.291071108858887,1.074450383715885,5.009089655830394.209395817228142Z" style="fill: none; stroke: #22100b; stroke-linecap: round; stroke-linejoin: round; stroke-width: 34px;"/>
        <path d="M142.401659638479032,108.222133529681741c7.700351570751081,3.632712460097537,15.829594263201216,2.459205487326471,23.813798792340094,1.819317521012636,4.762592946530276-.381697145743601,9.445228442791631-1.765090135872015,14.16380870255125-2.698254394532341,1.102618853188687,1.902241704072367.522883229748913,4.02189118491151.776373208520454,6.033889502239617-8.6765702861303.752425059014058-17.353148592081197,1.504858154094109-26.029686799000046,2.257042131073831-2.553722268750789.031380844542582-5.111205825780416.165470670932336-7.660396905021116.072091563737558-4.522897031400134-.165671572625797-6.22602280152023-2.751646028627874-5.063896999390636-7.484086323531301Z" style="fill: none; stroke: #22100b; stroke-linecap: round; stroke-linejoin: round; stroke-width: 34px;"/>
        <path d="M177.173342288260756,178.899935978017311c2.261632971200015,1.65227981686985,1.876690377828709,3.061468584459362-.005782279011328,4.93273124737425-5.678101742299987,5.644244685498052-12.790473330649547,7.1850481706133-20.357391395109516,7.807602338802099-4.063257979469199.334316490318088-8.286286503009251-1.16706204644106-12.190255126679403,1.022991423911662-1.339547935780502,1.365456486921175-2.921149609210261,1.296732035567402-4.572563680299936.784995241581782-1.455229604949636-2.308537253180475-3.520128753410972-3.904532451566411-5.986078272449959-5.020774405587872,1.964727781089096-1.654594204381283,4.343249402019865-1.004138808981224,6.499229469509373-.938387702695763,7.127821741609296.217407776768596,14.172562319099598-.695955610968667,21.205313288959587-1.484390289544535,5.803659800640162-.650616116752644,10.573783343541436-4.065993124693705,15.407527995081182-7.104767853841622Z" style="fill: none; stroke: #22100b; stroke-linecap: round; stroke-linejoin: round; stroke-width: 34px;"/>
        <path d="M179.579043026440559,86.218604563920962c.419323494999844,3.891887698968276-.621390487711324,5.929320170711435-5.231310417089844,5.704848690395011-4.640194691161014-.225946098744316-9.330946229511028.590562582496204-13.999539048190854.950289119024092-5.046157191960447.512496202391048-9.700811590519152,3.33796556735615-15.061040364009386,2.205510846659308-5.074302695640654-1.07205563552634-6.740477216801082-3.754792383242602-4.966400236789923-8.819516043327894.385163137989366-.33995780987425.770326275978732-.679915619750318,1.155501443668982-1.019905573895812,2.829330868169563,3.867004015195562,7.201335279010891,3.817136196807041,11.246733153990135,4.141516089359357,9.106704477530002.73022140383182,17.944504912160482-.705478351246711,26.429049000760642-4.166190835370799.142335489219477.3344691756065.284670978438953.6689584413798.427006467660249,1.003447707156738Z" style="fill: none; stroke: #22100b; stroke-linecap: round; stroke-linejoin: round; stroke-width: 34px;"/>
        <path d="M143.386756277390305,131.294608172751396c1.27011246893926,1.679554230797294,3.281976650629076,2.203136188640201,5.054505808378963,2.233616993595206,9.470210133629735.162858948917346,18.93048372955127.628275848423073,28.345389291751417-1.523108063940526,3.770374721289045-.861562895053794,4.867419810389038-2.599925069604069,4.732791353229914-5.9561003664694,1.264137714630124,3.09263245517468.676847435410309,6.339380617557254.78953370761883,9.527867288790731-9.058898423259961.753124196906356-18.117812886130196,1.506264465946515-27.176655170749655,2.259356518583445-2.248312076029833.005167191560759-4.51263168172045.1833669937987-6.741567910210506-.022693855311445-3.885418815998491-.359164011786561-6.022588432169869-2.277011759417292-5.003997080018962-6.51893851524801Z" style="fill: none; stroke: #22100b; stroke-linecap: round; stroke-linejoin: round; stroke-width: 34px;"/>
        <path d="M159.341876519700236,232.690110818108224c14.050913915440105.586134709166799,28.005381662669606-.793995637457556,41.964396639010374-2.066474820572694-1.053641907461497,4.236486337968017-5.004702822800027,3.707311276972177-7.705596522850101,3.896882115072003-14.569699025119917,1.022573548389119-29.172800535739952,1.567306436536455-43.764730458760823,2.276135828033148.182971838319645-2.263937077195806-2.43110747864921-1.662549911447059-3.106487289849611-3.046280416423542,4.19969891241999-.407123264085385,8.546914107739212.948529220189812,12.61241763245016-1.060262706108915Z" style="fill: none; stroke: #22100b; stroke-linecap: round; stroke-linejoin: round; stroke-width: 34px;"/>
        <path d="M96.443334224439241,113.648464166144549c13.004527926041192,2.144609507253335,25.814754035040096.726026576470758,38.547657199511377-2.110536580017651.242972005249612,3.933406042973729-2.386344940161507,4.869632043444653-5.49995782626138,5.238704526760557-2.682087258628599.317906839982243-5.45855157592996-.30905912939852-8.06327980091919.804563066538321-8.301644428520376.34376690598765-16.60320665404106.687799002209431-24.904794943930028,1.031790918092156-.026557582410533-1.654867430685044-.05309110539929-3.309694681029214-.079624628400779-4.964521931373383Z" style="fill: none; stroke: #22100b; stroke-linecap: round; stroke-linejoin: round; stroke-width: 34px;"/>
        <path d="M97.524953219699455,134.737749794749107c11.756638335211392,3.888661217770277,23.451153260270075,2.094834103643734,35.139577143851056-.380556024121688,1.173193132270171-.248467178600549,2.354819088899603-.456979028374917,3.532527371069591-.684102411045387.091702453879407,5.263576156427007-3.921936995509895,4.964883554421249-7.35615760374094,5.451282626811008-10.156168066889222.637975382189325-20.312328113959666,1.275942728312657-30.468542294718645,1.913877930166564-1.465252355550547-1.940477314401505-.924342610360327-4.151818328209629-.847404616461063-6.300502121810496Z" style="fill: none; stroke: #22100b; stroke-linecap: round; stroke-linejoin: round; stroke-width: 34px;"/>
        <path d="M134.061271534710613,188.427481824099232c2.315417789688581.709456204780508,7.437682925788977-2.119625372637529,5.291547168249963,4.214419295938569-8.617817198810371,3.972485440415767-27.103867425650606.602930090757582-33.403882947890452-6.098411090162699-.848423131619711-.902482552010042-1.607042498069859-1.865814208984375-1.286715469079354-3.24541417513683.330257551828254-.685894454152731.660515103660146-1.371804980442903.990185204818772-2.056799395006237,8.562524657090762,5.995517278755869,18.101685059389638,8.115335517017229,28.408866043901071,7.186205364367197Z" style="fill: none; stroke: #22100b; stroke-linecap: round; stroke-linejoin: round; stroke-width: 34px;"/>
        <path d="M127.671231702659497,206.568197583990695c-.052814422149822-3.145670502290159,1.870374781839928-4.280861504052154,4.620453942519816-4.379592632365529,2.770678028389739-.099454374410925,5.547703731999718-.053102335657968,8.321433295981478-.022983153750829,1.573718205658224.017100752160331,3.529511924600229.015798909185833,3.551871139388822,2.081791565693493.020923669781041,1.932915374653021-.956810788649818,3.884474426475208-3.235068814459737,4.086517241714319-4.454748743159143.395037018197399-8.829632263799795,1.818851429083225-13.374651925749276,1.114023999323763.037773278920213-.9601011577397.076869825568792-1.919929089177458.115962362318896-2.879757020615216Z" style="fill: none; stroke: #22100b; stroke-linecap: round; stroke-linejoin: round; stroke-width: 34px;"/>
        <path d="M104.662222290939098,183.298075854738272c5.379061279261805,5.994665455576978,12.35300302315045,8.70797944106198,20.135754074621218,9.300623365103093,4.824942916169675.367425089429162,9.701641640289381.052411233831663,14.554978674070298.043475126500198,1.755571281270022.00687887398999,3.511278899210083.0140149021463,5.266974487440166.021118786035004,1.781294804008212,1.022605692658544,4.182047322859944,1.424489440574689,4.202874754988443,4.211172724570133-5.374576203628749.352301209930374-10.750716269119948.682037141634282-16.123335640459118,1.061773486848324-10.705055512529725.756627922441112-20.280525579450114-2.43261413916116-29.100999226580825-8.295777382163578-6.691722820660289-4.987456868717345-11.936032338269797-11.096861299554803-14.73321080795904-19.10131515383182,1.767603995349418-1.633917402074076,3.519218505600293-1.104734305010425,5.266288794158754.039087433511668,2.546035286191909,5.041427099689827,5.001075866250176,10.158505741130284,10.530674889720103,12.719841613426979Z" style="fill: none; stroke: #22100b; stroke-linecap: round; stroke-linejoin: round; stroke-width: 34px;"/>
        <path d="M94.131547401218995,170.578234241311293c-1.755126182119056-.012938069070515-3.510251361758492-.025884174207022-5.265833670258871-.038958856428508-3.306547326479631-3.595714404200407-3.495005713521095-8.360893639097412-3.99091834093997-12.696312007070446-1.163134292539326-10.168470465136124-.779375622809312-20.474920213449877-2.20156012480038-30.650615103486416-.258072294529484-1.846495502126345.190969087070698-3.756347362352244,2.49155424843957-3.824621793912229,2.326692632250342-.069070002266017,2.442588831181638,1.839889854440116,2.715399521330255,3.678815380750166,1.708075994411047,11.513539448191295.490012056299747,23.279298918618224,3.061332783419857,34.721397724557391.695661896630554,3.095613836307166,1.850762350080913,5.974181518895421,3.19002558280954,8.810294655590042Z" style="fill: none; stroke: #22100b; stroke-linecap: round; stroke-linejoin: round; stroke-width: 34px;"/>
        <path d="M140.320752960360551,86.259733158636664c.335039360230439,7.038152870274644.785122815170325,7.494581428007223,7.584762129339651,7.23810228986622,4.149510976229067-.156518491465249,8.295260664190209-.412716367238318,12.442694511069931-.624117183366252-.805621435320063,1.482642444812882-3.515401078690047-.075233666224449-3.653053002120942,2.069110650792936-.104161220078822,1.622554402281821,1.805931643251824,1.888560298735683,2.865010978130158,2.660428623656117,2.990456759200242,2.179490059299496,5.337669063590511,5.482876427149677,9.521192030460952,5.648640414556212-5.905527356650055,1.615607221716346-11.954697430639499.805768476700905-17.940879960549864,1.062516823112674-4.935387653020371-5.374891766829023-11.704515621189785-8.319222609807184-17.163416058610892-13.000408864634664-.275696817268908-6.388107314329318-1.415367166979195-7.389296886449301-7.85916775809892-7.184276708110701-4.322129247020712.137517209284852-8.648460871570933.142435282743463-12.97292388167989.20669569846541-.36310466588111-2.441968122015169.990277432569201-4.348292148501059,2.00440175364929-6.347826524759512,1.633349461590115-3.220454148722638,3.892175501230668-3.873027047971846,7.300383873769533-2.358726514277805,6.397630576950178,2.842533954819373,11.776705890861194,7.32522531831637,17.870995384640992,10.629861294699367Z" style="fill: none; stroke: #22100b; stroke-linecap: round; stroke-linejoin: round; stroke-width: 34px;"/>
      </g>
      <g>
        <path d="M118.269069609719736,43.022075976987253c4.468743301909853-3.246576328656374,10.123407165739991-.786612249088648,14.789012607259792-3.085905764219206h8.409374461580228c1.83463452334945,2.071031773237337,1.340710807429787,4.621974498666532,1.368162598029812,7.028196182336615.190366098020604,16.68673595970904,14.460220674700395,30.993305176396461,31.115261329799978,31.145636876566641,3.741487385679648.034217576456285,4.053762531009852.355957620753543,3.567425550090775,3.686421518868883-9.018005440409979,1.678176045177679-18.093721393581291,2.295285777468962-27.239939447590586,1.595079086662736-4.668560739459281-1.591768226749991-7.560574399149118-5.568384205987968-10.759313499480413-8.842989397209749-6.719601665849041-6.878964395296862-12.593759557419617-14.534080339624779-16.340315459508929-23.554277084707792-1.22104730537103-2.939795487243828-4.011189399139766-4.862511082912533-4.909668140180656-7.972161418298128Z" style="fill: #e4c2ba; stroke-width: 0px;"/>
        <path d="M102.530498121970595,195.860555189585284c-13.878481102619844-7.741144058551072-21.576298415169731-19.647783832613641-24.232065427480848-35.237112372076808-1.108238229910057-6.505349524690246.049804489290182-13.196677765199638-2.003628093149018-19.570139346062206v-16.852855543114856c2.971733272628626-2.738370444712928,6.279963504959596-4.571622507195571,10.356375467419639-2.768232472451928,4.321556833479917,1.911852841094515,4.182709959199201,6.0123608767517,4.346860318970357,9.874045015101728.385486937590031,9.068678341787745.32830673440003,18.183033692635945,1.263916167528805,27.194085392624402.977698369320933,9.416415065241381,6.069127357341131,16.846828492303757,13.389863489830532,22.741830635712176.353849811539476,1.300750069442074-.283568255330465,2.040020085556534-1.410226472329668,2.505308407979101-4.81687298793986-.262715126711555-5.923112782829776-4.756066334073694-8.470982599290437-7.566231008018804-1.498809222279306-1.653115567914938-2.546121499099172-3.682728945741474-3.317275819879796-5.815123630025482-4.681843540569389-9.431715738224739-4.442891462289481-19.706077468032163-4.962860495610585-29.821365236832207-.247235533779531-4.809650833798514-.161005593959999-9.6161595651065-2.430259384329474-14.077406681826687.886183378359419,14.383805872799712-.841447906710528,29.017324514697975,4.400346399739647,42.938011803365953,2.837391774110074,8.524805312885292,9.786696678749649,14.07584768468223,15.047137030529484,20.857870985757472.196248624570217,2.169979373124079,1.386365549160473,4.695940475208772-1.977200581948637,5.597314049868146Z" style="fill: #ba9699; stroke-width: 0px;"/>
        <path d="M178.268382426249445,80.855565997015219c-.795893412539954-1.287349926478782-1.789483024349465-2.071798715453042-3.452429574219423-1.721518576559902-14.26653437764071,3.005111641366966-34.718792039489927-15.721355105459224-33.387873413279522-30.262306283008002.270459884968659-2.954875168366925.039293031859415-5.955848988225625.039377239809255-8.935570924679269h9.460546269270708c2.379636373749236,2.269421944560236,6.253995879420472,1.531300332751925,8.431517141640143,4.207397781749023-.390339921750638,1.52668963888209-1.733063700099592,2.104419123445041-2.857095431139896,2.918849476667674-4.545424662081132,3.293435706962555-5.485907128881081,6.781100157793844-3.024147957661626,11.757973525291163,1.845196605801902,3.730378809434114,4.664815490790716,6.592647337620292,8.497824884760121,8.259259481312256,3.675692910050202,1.598205117015823,7.115900302300361,1.434807751560584,10.072802199720172-1.758526677540431,1.32884149686106-1.435097049998149,2.491159774301195-3.667372020281618,5.130597712921372-2.192315623420654.836321246719308,5.994573040798059,2.713701327738818,11.870003341211486,2.055764591199477,18.035587921653132-.426276665459227.223929045743716-.743435871690963.104834521764133-.966883663020781-.308830101464991Z" style="fill: #eeccc3; stroke-width: 0px;"/>
        <path d="M91.011209909100216,240.063829787230134c.026262854589731-.346225942714227.004262526059392-.689317819009375-.066001988079734-1.029307773156688,1.171726510539884-2.552544414182194,3.562801130368825-2.412845412507522,5.776339334339355-2.574000715061629,8.967296216929753-.652834071450343,17.899894749949453-1.601009704658281,26.775861433899991-3.051873519572837,6.445508809470994-.545022186586721,12.929392383181039.33995780987425,19.366520497011152-.525012377902385,1.205929973999446-.267617128036363,2.414859354848886-.280876639815688,3.62562527092814-.035905150683902,1.642455949520809.861048586719335,4.482573454670273.718938764721315,3.346046868300618,3.94821651582788-14.090050561098906.790491911917343-28.179980825148959,1.58312141785791-42.270392277459905,2.367055898495892-1.045848662499338.058197202608426-2.113190400890744-.004484125800445-2.888765638879704.90082712205367h-13.665233500059912Z" style="fill: #c89ba8; stroke-width: 0px;"/>
        <path d="M170.877362732589972,171.498484539104538c-2.946540310069395,1.851124277145573-4.678794009929334,5.367908423957488-8.403744558849212,6.151264307720339-.809190248301093-.72983567258234-1.157362038311476-1.711087760626469-1.525078091730393-2.699845535944405-3.399370548040679-9.140552931698039-9.654641576360518-14.912643418947482-19.579654819839561-15.644134521484375-8.652510872811035-.637710191955193-17.692286072380739,5.612831696684225-21.780686138770761,14.463314727065153-.653614061950066,1.414926519959408-.982209509309541,3.006726890982463-2.288559464619539,4.048426280602143-3.26911288429983-1.444081373736481-6.047237301110727-3.555863544253953-8.420985133450813-6.217553830545512-.824349683640321-4.793466193357744,2.194765846719747-8.246259132718478,4.346178635591059-11.901697592398705,4.413330463128659-7.498647678285124,10.846131892458288-13.550883523186712,15.313447669179368-21.028958868046175,2.205121419199713-1.61743542712793,6.403316618299868-.952458857314923,6.143370696949205-5.394684601684276-.595606816419604-2.758589191158535-2.685218992270165-3.282653313066476-5.048887935368839-3.460137905280135-2.191499781371022-.164554559207318-4.508064403091339.25751579088319-6.439939055280774-1.277831204231916-2.109942380109715-3.226794606174735-2.271196587998929-6.882916131613456-2.343274580420257-10.558203678621794,1.186241354100275-3.044898212770931,3.945711705780923-2.305387114623954,6.256578256450666-2.539863499281637,2.826239233560045-.286775113539989,5.725250172608867-.336671058168577,6.422347614239698-3.995010538303177-.398600320329933-3.219345171375608-2.777534961189303-3.570649908906489-5.321232474389035-3.738322462402721-2.562933014150985-.168950288265478-5.217183531571209.392995856993366-7.6469877920008-.914279499458644-1.639985849760706-1.614040188505896-1.295539258910139-3.577677450148258-.668735403209212-5.389903141376635.760193253059697-2.197872564267527.318209800609111-4.097703448014727-.754735776150483-5.994376157139413.774652960470121-2.06293493272824,2.654583339299279-2.070721882373618,4.287872652359511-2.00255995576299,3.523072021629559.147019859392458,6.734658848679828-.782443790070829,9.858268421010507-2.244027719358201,7.20358483416021,2.728176692779016,13.885657825130693,6.178144954326854,17.958106500480426,13.192322216482353-1.373279233261201,3.508675754457727-6.282458165371281,1.174664166526782-7.659306211611693,4.665274840692291-.72552764836837,4.216677430977143,2.080826480081669,4.959716362864128,5.228030317070079,5.361439389425868,2.346338145711343.299512280917043,4.933920028810462-.46027381615022,6.888715282100748,1.585419733231902,1.511163731020133,3.419973638690863.341242678969138,6.637751776856021-.712920515790756,9.863421333544466-1.057932502839321,2.075885055899562-2.996904681969681,2.59306226775152-5.079086508998444,2.825955547063131-2.109040152101443.235890732579719-4.001032316809869.816850214121587-4.971853703809757,2.947894839024229-.676125653011695,3.658620742506173,1.675834375608247,4.537862986599066,4.514027127688678,4.922710270897369,2.042163002870439.276914858415694,4.240656053711064-.232949531786289,6.039353833350106,1.253007790968695,1.476221443081158,5.144304838959215,4.49838850902961,9.372369377932046,7.929942532289715,13.33494634681665,3.231451882649708,3.731515913021212,5.520312089931394,8.020236691329046,7.539971521529878,12.471784274281163,1.191141454610261,2.625407440424169,1.840970168859712,5.296427601369942-.080542895999315,7.914208813504956Z" style="fill: #c6a0a4; stroke-width: 0px;"/>
        <path d="M123.604272583439524,234.79451587843505c-8.59203753742986,1.940404989789386-17.367985230299382,2.3701256763743-26.09989617698011,3.128135802469842-2.231328135168951.193717449055839-4.52089609020004-.161814260109168-6.558758472929185,1.111789972490442-2.643016776350123-1.92524896602481-1.727471891459572-4.359020298938049-.717691296960766-6.582423450430724,1.952266007459912-4.29865335804061,3.949878996660118-8.594478020235329,6.244300938320521-12.715019972780283,3.327499065590018-5.975828912783982,8.622590987399235-8.862882682911732,15.43230117100029-9.195447310461532,5.221802938920518-.255048718083344,10.433324488560174-.721462089990382,15.649421336620435-1.093869541420645,3.40061762762889-2.122775511192231,7.455021742998724-1.127122789746863,11.05230903492884-2.324834398566964,1.27945554111102-.425991951149626,3.229458961250202-.484880255584358,3.034341129101449-2.195630501366395-.201008378511688-1.762390017107464-2.167901506800263-1.299175000163814-3.458352199801084-1.364685024418577-3.82707072877929-.194344262339655-7.674708246049704-.330603827020241-10.511016344080417,3.005666130040481-.766368502479963-3.429761569204857-2.910595546569311-4.396098715515109-6.350209473288487-4.45347623921225-6.832556601500983-.114047873434174-13.175931196461534-2.211011535027865-18.790369726160861-6.254375092952614,1.955085971199878-1.797009396954309.76909523598988-4.135778336989461,1.067608396899232-6.218614591489313,2.320516380361369-.859280651815425,4.031106583461224.694701984401036,5.753311468350148,1.673253953682433,9.367175696070262,5.322496605132983,19.478569194759984,5.857039759381223,29.815996871710013,4.751067899938789,3.111026499171203-.332853925991003,6.195242792080535-.743496987748586,9.328363852480834-.6245310408558,4.909395466829665-.045130556452932,9.552693822299261.482614084481611,11.99235843228962,5.675762143193424-.004009902220787,2.060062038512115-.008019804439755,4.120108004888607-.012021686859953,6.180170043398903-.120481522120826,4.326056349051214-3.951245370839388,4.506048194398318-6.623893319650961,5.453468437237461-6.967052731868534,2.469724700005827-13.665249539668366,5.362307284740382-19.964192413068304,9.284936960868436-4.977788359101396,3.099897060415969-8.67062360115051,7.035255867849628-10.283911521921254,12.758655820634885Z" style="fill: #c29d9d; stroke-width: 0px;"/>
        <path d="M160.488291524939996,201.117284616295365c-3.538337719390256-2.380958295696473-6.913688953129167-5.211872096557272-11.665519322099499-4.242866975755533-1.366366161841142-1.738538968042121-4.324005881260746-2.051736672327024-4.408534620069986-4.940960180747425,1.81764857754024-2.326168385810888,4.439274530488547-1.671646740134747,6.768145542129787-1.639775695457502,5.250197056549951.071874589908475,10.486174999819923-.112215649987775,15.455093455209862-1.841722077886516,4.761790966089393-1.657406828089734,9.630710479910704-3.491912517140008,10.535865708150595-9.552023708431079,8.367655438869406-8.403235680045327,14.003196079009285-18.192789478878694,12.453689662948818-30.390302761032217-1.01748060924001-8.009444252347748-.127306375688931-16.075775828259793-1.709798247418803-24.036666159292508-1.116316679170268-5.615708608936984,2.118391244088343-10.287050680777611,6.68317571407897-10.710037142591318,4.418816009370858-.409461759800251,7.656034131410706,3.738523364092543,7.855021519200818,9.753664720285087.318081483739661,9.61509880416088.931179493649324,19.21449513195148,1.229291664329139,28.83679425281116.681041793141048,21.982269548541808-15.707011552309268,42.442869489270379-37.561131030459364,47.648200226683912-1.861484828610628.443365929615538-3.756083429771024.747081073963273-5.635300046000339,1.115695501413938Z" style="fill: #d7b2b2; stroke-width: 0px;"/>
        <path d="M118.269069609719736,43.022075976987253c3.231327575680552,2.015794857084984,4.962490582129249,5.117201693727111,6.553619783229806,8.475938487184976,4.568345263171068,9.643387771640846,10.794231728021259,18.06971107431491,18.903192335030326,25.078470017793734,1.950697133219364,1.686043355499351,3.578974068499519,3.746639792518181,5.355529168080466,5.634983117424781-1.22483265306073,3.25039653713975-5.009931735299688,1.599101138566766-6.876148248529717,3.625162574451679-.640589899539918.42212258453219-1.316442879200622.759536978966935-2.07633538959999.900272633378336-3.525943111621018-.286128210085735-5.817477923679689-2.942868278645619-8.659331716491579-4.546099956036414-.453427713389829-.255800090419143-.86961947475902-.577395485497618-1.308675698588559-.859811032287325-10.944169991849776-7.039792228089937-11.230521119319747-6.969822186238162-17.135731693690104,4.188985141528974-6.117913832700651,2.207901576812219-12.410877941900253,1.127162970085919-18.650183544530591,1.031312772060119-.678471445799005-10.577092455854654-.617587095439376-21.003699498105561,5.842994936470859-30.201846927329825,4.540221813949756-6.464062217633909,10.188914933369233-11.393928104604129,18.051070068619083-13.327366828169033Z" style="fill: #d3b0ac; stroke-width: 0px;"/>
        <path d="M117.299639658780507,177.817509797063394c1.967334217539246-11.629628482829503,12.95293852902978-20.260325060389732,24.905482642168863-19.961166366456382,8.529017914130236.213478139639847,20.950315586951547,10.675232933190273,20.268560031219749,19.794996557631748-15.041632437259977,4.494845915960468-30.090001510239745,7.15295211603916-45.174042673388612.166169808824634Z" style="fill: #c299a3; stroke-width: 0px;"/>
        <path d="M123.604272583439524,234.79451587843505c-1.592396330210249-5.767405459755537,2.660578143120802-8.664520386699223,6.180642738090683-11.397137006908451,6.791238569019697-5.272014027559635,14.527687279560269-8.926528339448851,22.753392179829461-11.507472217041141,2.963574374709424-.929853398749401,6.103600486731011-1.654610276515086,7.937368871189392-4.591825181507375,4.348137472830786.048039612978755,8.645068494301086.002796551576466,13.009494189940597-.625752523150368,7.273417281330694-1.04753357480331,13.866177720139603.695200220601691,18.515563107190246,7.051167281984817-1.938755644408957,2.706161885193069-4.88521575643972,2.25087043104395-7.621204120729089,2.422215467498972-12.642965067570913.791825899163086-24.990929648580277,2.791328131150294-36.006933028800631,9.587237757288676-2.826836708989504,1.743923133431963-6.551983743129313,3.350108065718814-4.804295929630825,8.02327432493621-6.555428249128454,2.262169142293715-13.32170517682971.453732457006481-19.964028007079833,1.038292096898658Z" style="fill: #cda7a8; stroke-width: 0px;"/>
        <path d="M170.877362732589972,171.498484539104538c.514983722379839-7.838292081520194-4.164989198799958-13.411465783883614-8.249812432419276-19.298761338322947-3.090479760179733-4.454183413174178-8.287521552891121-7.85927425439877-7.495156854311062-14.363522837809796,1.725942113749625-1.725938413817858,4.041989458090029-1.930038462402081,6.233024090801337-2.186935476065628,6.000433722398157-.703541658920585,12.081338162559405-.148844046769227,18.082485647559224-1.050956939663592,1.025580611720216-.154163923616579,2.047600430279999.238237264362397,2.861081273949821.978560005351028.514566692549124,10.660984985075629,1.035164278029697,21.305142444296507-5.973070149650084,30.512370630072837-1.582564049960638,2.079115555134194-3.012735775930196,4.237707820264404-5.45855157592996,5.409245956438099Z" style="fill: #d1adab; stroke-width: 0px;"/>
        <path d="M128.840892111069479,139.124373986393039c-1.161203524628945,5.377977616843054-5.299939893599003,8.892166113771964-8.495908151498952,12.855249354926855-4.847538715170231,6.011083141980635-8.855335737031055,12.367371646074389-11.466307379780119,19.620332625197989-9.060167557310706-8.268776194538077-11.253971027499574-18.907613776913422-10.506372877311151-30.561736194229525,2.594757603121252-2.220502131036483,5.876698164631307-2.130200837787925,8.94646477490096-2.431802496317687,5.728642549889628-.562814040573357,11.535526311909052.301947209442005,17.258522919479219-.913532145159479,1.525334725471112-.323957998996775,3.16572156545044-.009177189363982,4.263600714210042,1.431488855581847Z" style="fill: #cfabaa; stroke-width: 0px;"/>
        <path d="M143.568300590519357,233.756223781536391c-5.606905928380002-1.812888666816434-2.416707919768669-4.397111260048405-.22774640651005-6.120333482969727,9.123963096681109-7.182814143779979,19.764326856691696-10.353701826654287,31.159241937340994-11.945582558353635,5.828817927169439-.814294744579456,11.813139862450043-.100049043423496,17.500303983770209-1.966779364131071,2.070504991768757,3.162964120077959,4.140368399170256,6.325944312289721,6.210231806579031,9.488940576637106-1.561808796059267,2.32690770404588-3.872218217878981,1.739808666745375-6.114298905849864,1.660814120816212-7.778841396810094-.273965621556272-15.595728745900487-.976510808075545-23.147080369930336,1.798246951384499-3.789157103288744,1.392345169599139-7.435200796318895,2.952660227198066-9.468357558798743,6.798818682664205-4.184437224581416,3.172977060487028-8.475481709590895,1.357115048604101-12.751047972031301.280089105175648-1.053746164920085.001928656260134-2.107500349649854.003857312518448-3.161246514569939.005785968776763Z" style="fill: #d9b2b3; stroke-width: 0px;"/>
        <path d="M177.179501498070749,63.128808176827079c-1.795489857870052-.0066498460601-2.913859606980623,1.109087844712121-3.773470365800677,2.464971365934616-3.082764708309696,4.862423690674404-7.37052909329941,4.519753707934797-11.927213560820746,2.783667749572487-3.560127528049634-1.356395820541366-6.336872538498938-3.917958711750543-8.195823108919285-7.08220860266556-3.872731485360418-6.592034587454691-4.633851025839249-13.274471923512465,6.076277013000436-17.15159837054307,9.291825623449768,3.169694326814351,13.699927174078766,10.941816422013289,17.820230022540272,18.985167857701526Z" style="fill: #fbd8cc; stroke-width: 0px;"/>
        <path d="M94.375004604629794,86.551289732486111c4.255939796019447-1.930496518261862,8.824952707909688-.857625221857234,13.221082695470614-1.412567934075923,1.849717770539428-.233495984391993,3.828223575659649.32395398096196,5.548876628388825-.802288859367764,5.891621015751298-3.151524777642408,12.159094176520739-2.265435803830769,18.098729761461072-.822286613951292,3.41266337388879.829165487939463,5.154500740049116,4.016044945625254,2.733377917929829,7.79980735308709-2.152343086179826,3.133234687455115-5.284646126519874,3.497043546398345-8.767538927910209,3.451925044044401-2.012998984020669-.026081057863848-4.213011787800497-.424063294891312-6.099133455660194.853876396255146-.778903456830449,1.06171321634065-1.929139898880749,1.443856363843224-3.141237102488958,1.522557593301826-5.642778513651137.366384418653979-11.315160130439835.145521132755675-16.940796312090242.942245015210574-1.388961960850793.196710884290951-2.711758530111183-.331897633926928-3.684143778980797-1.467032383217884-.323071807049928-3.355411870426906-.646145619059098-6.71082374085745-.96921742611994-10.066235611286174Z" style="fill: #3b1732; stroke-width: 0px;"/>
        <path d="M159.341876519700236,232.690110818108224c-.324296832181062-2.528709437252473,1.184645413010003-3.651235596251354,3.176588400468972-4.81485820569651,9.643269493661137-5.633251344823293,20.153864798010545-5.05920288154266,30.622011277449928-4.297030072357302,1.811697882640146.131904015965119,3.385520345771511-.245935817260033,5.070032149780673-.365769659469152,2.005520516380784,2.062135343987393,3.717291635690344,4.247495750776579,3.095051048720052,7.411552776067765-4.468771371230105,2.322680732409935-9.31032731229061,2.423613743285387-14.198903366790546,2.639671460670797-7.121610403070008.314740629291919-14.214301391319168,1.266500348712725-21.365240219220141.981589602888562-2.234566131210158-.089039630611296-4.585307149558503.27978373460428-6.399539290408939-1.555155902104161Z" style="fill: #e5bdbf; stroke-width: 0px;"/>
        <path d="M154.081991539389492,126.354789113625884c-.146441629100082-3.621976273592736,1.697359530729955-7.04935916674367,1.043994082720019-10.720901906184736.401872400540014-.576812870584035.865160463490611-1.256085604914915,1.518365515410551-1.364194824287551,8.12890586065987-1.345310065085869,16.283258560819377-2.202621880303923,24.511289204370769-.892606224751944.082315272789856,3.963308251051785.164638565369387,7.926608466035759.246961857959832,11.889916717085725-9.022296035791442,2.495335647909087-18.073343070500414,4.265769768830069-27.32061066046117,1.087786238138506Z" style="fill: #cda8a8; stroke-width: 0px;"/>
        <path d="M95.344222030749734,96.617525343772286c7.922199411101246-.332532483276736,15.844398822200674-.665068984591926,23.766385708480811-.997685846581589,2.319263285909983.162179901191848,4.075127290039745.588352663866317,2.804722098238926,3.681969537339683-.889364233298693,2.165712221152717-1.781270744599169,4.421424383011981-1.480560157269792,6.885250609291688-4.517704208030409,3.358116007224453-9.805313652299446,2.671192936400985-14.876470579649322,2.595935161969464-3.846147838599791-.057072153122135-7.115445178400478.595167249315637-9.457518793100462,3.884450318273593-1.128705272079969-5.308489739054494-.299170784870512-10.709659447409649-.756558276700162-16.049919780292839Z" style="fill: #d0acaa; stroke-width: 0px;"/>
        <path d="M121.427673598729598,117.580938025257637c.720779924129602,3.574949205150915,1.441555838369823,7.149890374228562,2.162335762510338,10.724839579379477-2.677872851400025,2.395109810993745-6.156563275260851,2.163534446792255-9.301096517379847,2.41066763814888-5.627304300969627.442281060470123-11.318103398660242.972846361182746-16.952930276200277-.195710393858462-.271015256430474-3.969262977248945-.542030512859128-7.938525954497891-.813047774239749-11.907788931748655,8.186736670490063-3.126657166005316,16.500877959280842-3.166355340665177,24.904738805309535-1.032007891921239Z" style="fill: #ceaaa9; stroke-width: 0px;"/>
        <path d="M97.335982567659812,130.520734848927532c8.75135295760083-.738313724050386,17.502707920149987-1.476627448104409,26.254042833190397-2.214949208224425,2.42387361504916-.01696413900936,4.849816339630706-.104661746307102,7.271155696480491-.033936314084713,3.437933777689977.100434774674795,5.689100904090083,1.487484175628197,5.335872627389108,5.401177744421148-4.08127046025038,3.723745035511456-9.385697434428948,3.234686024698021-14.273463488669222,4.057804371663224-6.383748295471378,1.075041034693641-12.817897051951149,1.041096684539298-19.206551462781135-.07662390594669-2.017347722980048-.35293605928382-4.2238385237888-.58883482793135-5.192085553569996-2.916457742006969-.062991553979373-1.405668969917315-.125981103008598-2.811345975902441-.188970652039643-4.217014945821575Z" style="fill: #3c1a33; stroke-width: 0px;"/>
        <path d="M96.100780307449895,112.667445124065125c-.44114738783901-3.607069367924851.735325844449108-5.163671762225931,4.766719135919629-5.182154718038873,6.52427732373144-.029910244145867,13.045056007780659-.825786321454871,19.567290286329808-1.298226744171188,2.919489509700725-.024015788454562,5.839015108520471-.045761387771563,8.758500608309987-.07262998027727,3.650045575461263-.033586745139473,6.022965362981267,1.299504478942254,5.797701085941299,5.42346979634749-6.562658102840942,4.671575117805332-14.369280102229823,3.807038877685045-21.712934830860831,4.568271466945589-5.661655128349594.58686599133398-11.537372871889602.486455324862618-16.834722368650546-2.457710778726323-.102900105828667-.330965450069925-.217086081458547-.657969118739857-.342553916989345-.981019042079424Z" style="fill: #3c1933; stroke-width: 0px;"/>
        <path d="M154.081991539389492,126.354789113625884c9.144309340550535.581200563574384,18.202068951581168-1.019953790304498,27.320626700069624-1.087778202070695.192547484830357.237578306807336.231523734411894.498220128041794.116896669531343.781909391567751,1.406986471340133,4.380573032631219-.629642866470022,6.531731935096104-4.714025010840487,7.502625531818921-9.262064129159626,2.20168969644692-18.653471664350946,2.007819562102668-28.036209790929206,1.420543731313956-2.223667216980175-.139176657272401-5.050953035020939-.325774150305733-5.382523829830461-3.677481393504422.373714867149829-3.042479356377953,2.493220864049363-3.830311329875258,5.120669195019218-4.082804578416471,1.869600870721115-.179670402638294,3.841518406479736.231503039591189,5.574566066979969-.85701448070904Z" style="fill: #3d1a33; stroke-width: 0px;"/>
        <path d="M141.476266433739511,85.239799458504422c1.560802310610597-3.465670737921755,5.32301287097107-1.380905827161769,7.605024165261057-3.02841221979179,9.764232204039217.307315302696225,19.460328149549241-.855588078686196,29.187091827248878-1.355821241697413.313093165379541.131847763488622.63538504645112.234785773265685.966883663020781.308822065398999-.027748523370974,1.350256264782729-.055489026930445,2.700504493499466-.0832375502996,4.050752722214384-2.95927575953101,3.89316543374116-7.534293499989872,4.016169504677237-11.711945970011584,4.832621933444898-7.038854041029481,1.37561809458748-14.145226815659043,1.588304681554291-21.139194011238942-.329185461063389-2.249819799260877-.616816415817084-4.926385422540989-1.148671505405218-4.824622123980589-4.478777798505689Z" style="fill: #3e1c35; stroke-width: 0px;"/>
        <path d="M179.579043026440559,86.218604563920962c1.821883034279381,5.617593066821428.280572858369851,11.373952951462343.700602096159855,17.049385615879146-3.377211828361396,2.29514112824836-7.178871806770985,1.118046051229612-10.810030742761228,1.344309574651561-5.310369649268978-.345337957229276-8.776256455339535-4.033447050325776-12.345863392249157-7.247211172652896-2.824807698460063-2.543202485427173-1.869183840879487-3.940823333501612,3.595470806230878-5.781476614374697,3.049105589068859-.679935709920755,6.16422218849948-.363407055556308,9.248751253788214-.560234462827793,3.900584266189981-.248893090192723,7.418182771290958-1.1707626556381,9.611069978831438-4.804772940675321Z" style="fill: #d9b6b1; stroke-width: 0px;"/>
        <path d="M169.081985151980916,103.252070729598927c3.732553323539832.005307822742907,7.465106647079665.010615645489452,11.197659970619497.015919450201181.033210010189578,1.358376711239544.066412000580385,2.716757440513902.099622010769963,4.075134151753446-1.96721793037068,2.334919663586334-4.843159901951367,2.58015634295225-7.519665376690682,3.171988624153528-8.215760342760404,1.816665618656771-16.535697945209904,2.177276122636613-24.849283862540688.998907328879795-2.082157767619719-.295116551860701-5.173720201408287.210649443793955-5.608658255659975-3.291886754905136,1.350847840250935-4.810213358538022,6.086253649731589-2.020568783580529,8.738916245871224-3.907634373716064,4.063041444749615-2.884920194141159,8.565664410520185-1.661167707794448,12.932319611800267-1.271824243594892,1.676901009599533.149515058425095,3.291071108858887,1.074450383715885,5.009089655830394.209395817228142Z" style="fill: #48223f; stroke-width: 0px;"/>
        <path d="M142.401659638479032,108.222133529681741c7.700351570751081,3.632712460097537,15.829594263201216,2.459205487326471,23.813798792340094,1.819317521012636,4.762592946530276-.381697145743601,9.445228442791631-1.765090135872015,14.16380870255125-2.698254394532341,1.102618853188687,1.902241704072367.522883229748913,4.02189118491151.776373208520454,6.033889502239617-8.6765702861303.752425059014058-17.353148592081197,1.504858154094109-26.029686799000046,2.257042131073831-2.553722268750789.031380844542582-5.111205825780416.165470670932336-7.660396905021116.072091563737558-4.522897031400134-.165671572625797-6.22602280152023-2.751646028627874-5.063896999390636-7.484086323531301Z" style="fill: #562b4c; stroke-width: 0px;"/>
        <path d="M177.173342288260756,178.899935978017311c2.261632971200015,1.65227981686985,1.876690377828709,3.061468584459362-.005782279011328,4.93273124737425-5.678101742299987,5.644244685498052-12.790473330649547,7.1850481706133-20.357391395109516,7.807602338802099-4.063257979469199.334316490318088-8.286286503009251-1.16706204644106-12.190255126679403,1.022991423911662-1.339547935780502,1.365456486921175-2.921149609210261,1.296732035567402-4.572563680299936.784995241581782-1.455229604949636-2.308537253180475-3.520128753410972-3.904532451566411-5.986078272449959-5.020774405587872,1.964727781089096-1.654594204381283,4.343249402019865-1.004138808981224,6.499229469509373-.938387702695763,7.127821741609296.217407776768596,14.172562319099598-.695955610968667,21.205313288959587-1.484390289544535,5.803659800640162-.650616116752644,10.573783343541436-4.065993124693705,15.407527995081182-7.104767853841622Z" style="fill: #cda8a9; stroke-width: 0px;"/>
        <path d="M179.579043026440559,86.218604563920962c.419323494999844,3.891887698968276-.621390487711324,5.929320170711435-5.231310417089844,5.704848690395011-4.640194691161014-.225946098744316-9.330946229511028.590562582496204-13.999539048190854.950289119024092-5.046157191960447.512496202391048-9.700811590519152,3.33796556735615-15.061040364009386,2.205510846659308-5.074302695640654-1.07205563552634-6.740477216801082-3.754792383242602-4.966400236789923-8.819516043327894.385163137989366-.33995780987425.770326275978732-.679915619750318,1.155501443668982-1.019905573895812,2.829330868169563,3.867004015195562,7.201335279010891,3.817136196807041,11.246733153990135,4.141516089359357,9.106704477530002.73022140383182,17.944504912160482-.705478351246711,26.429049000760642-4.166190835370799.142335489219477.3344691756065.284670978438953.6689584413798.427006467660249,1.003447707156738Z" style="fill: #4e2a42; stroke-width: 0px;"/>
        <path d="M143.386756277390305,131.294608172751396c1.27011246893926,1.679554230797294,3.281976650629076,2.203136188640201,5.054505808378963,2.233616993595206,9.470210133629735.162858948917346,18.93048372955127.628275848423073,28.345389291751417-1.523108063940526,3.770374721289045-.861562895053794,4.867419810389038-2.599925069604069,4.732791353229914-5.9561003664694,1.264137714630124,3.09263245517468.676847435410309,6.339380617557254.78953370761883,9.527867288790731-9.058898423259961.753124196906356-18.117812886130196,1.506264465946515-27.176655170749655,2.259356518583445-2.248312076029833.005167191560759-4.51263168172045.1833669937987-6.741567910210506-.022693855311445-3.885418815998491-.359164011786561-6.022588432169869-2.277011759417292-5.003997080018962-6.51893851524801Z" style="fill: #4b2441; stroke-width: 0px;"/>
        <path d="M159.341876519700236,232.690110818108224c14.050913915440105.586134709166799,28.005381662669606-.793995637457556,41.964396639010374-2.066474820572694-1.053641907461497,4.236486337968017-5.004702822800027,3.707311276972177-7.705596522850101,3.896882115072003-14.569699025119917,1.022573548389119-29.172800535739952,1.567306436536455-43.764730458760823,2.276135828033148.182971838319645-2.263937077195806-2.43110747864921-1.662549911447059-3.106487289849611-3.046280416423542,4.19969891241999-.407123264085385,8.546914107739212.948529220189812,12.61241763245016-1.060262706108915Z" style="fill: #d6a8b6; stroke-width: 0px;"/>
        <path d="M96.443334224439241,113.648464166144549c13.004527926041192,2.144609507253335,25.814754035040096.726026576470758,38.547657199511377-2.110536580017651.242972005249612,3.933406042973729-2.386344940161507,4.869632043444653-5.49995782626138,5.238704526760557-2.682087258628599.317906839982243-5.45855157592996-.30905912939852-8.06327980091919.804563066538321-8.301644428520376.34376690598765-16.60320665404106.687799002209431-24.904794943930028,1.031790918092156-.026557582410533-1.654867430685044-.05309110539929-3.309694681029214-.079624628400779-4.964521931373383Z" style="fill: #4d2643; stroke-width: 0px;"/>
        <path d="M97.524953219699455,134.737749794749107c11.756638335211392,3.888661217770277,23.451153260270075,2.094834103643734,35.139577143851056-.380556024121688,1.173193132270171-.248467178600549,2.354819088899603-.456979028374917,3.532527371069591-.684102411045387.091702453879407,5.263576156427007-3.921936995509895,4.964883554421249-7.35615760374094,5.451282626811008-10.156168066889222.637975382189325-20.312328113959666,1.275942728312657-30.468542294718645,1.913877930166564-1.465252355550547-1.940477314401505-.924342610360327-4.151818328209629-.847404616461063-6.300502121810496Z" style="fill: #4d2743; stroke-width: 0px;"/>
        <path d="M134.061271534710613,188.427481824099232c2.315417789688581.709456204780508,7.437682925788977-2.119625372637529,5.291547168249963,4.214419295938569-8.617817198810371,3.972485440415767-27.103867425650606.602930090757582-33.403882947890452-6.098411090162699-.848423131619711-.902482552010042-1.607042498069859-1.865814208984375-1.286715469079354-3.24541417513683.330257551828254-.685894454152731.660515103660146-1.371804980442903.990185204818772-2.056799395006237,8.562524657090762,5.995517278755869,18.101685059389638,8.115335517017229,28.408866043901071,7.186205364367197Z" style="fill: #c39ea0; stroke-width: 0px;"/>
        <path d="M127.671231702659497,206.568197583990695c-.052814422149822-3.145670502290159,1.870374781839928-4.280861504052154,4.620453942519816-4.379592632365529,2.770678028389739-.099454374410925,5.547703731999718-.053102335657968,8.321433295981478-.022983153750829,1.573718205658224.017100752160331,3.529511924600229.015798909185833,3.551871139388822,2.081791565693493.020923669781041,1.932915374653021-.956810788649818,3.884474426475208-3.235068814459737,4.086517241714319-4.454748743159143.395037018197399-8.829632263799795,1.818851429083225-13.374651925749276,1.114023999323763.037773278920213-.9601011577397.076869825568792-1.919929089177458.115962362318896-2.879757020615216Z" style="fill: #b99893; stroke-width: 0px;"/>
        <path d="M104.662222290939098,183.298075854738272c5.379061279261805,5.994665455576978,12.35300302315045,8.70797944106198,20.135754074621218,9.300623365103093,4.824942916169675.367425089429162,9.701641640289381.052411233831663,14.554978674070298.043475126500198,1.755571281270022.00687887398999,3.511278899210083.0140149021463,5.266974487440166.021118786035004,1.781294804008212,1.022605692658544,4.182047322859944,1.424489440574689,4.202874754988443,4.211172724570133-5.374576203628749.352301209930374-10.750716269119948.682037141634282-16.123335640459118,1.061773486848324-10.705055512529725.756627922441112-20.280525579450114-2.43261413916116-29.100999226580825-8.295777382163578-6.691722820660289-4.987456868717345-11.936032338269797-11.096861299554803-14.73321080795904-19.10131515383182,1.767603995349418-1.633917402074076,3.519218505600293-1.104734305010425,5.266288794158754.039087433511668,2.546035286191909,5.041427099689827,5.001075866250176,10.158505741130284,10.530674889720103,12.719841613426979Z" style="fill: #e5c0bd; stroke-width: 0px;"/>
        <path d="M94.131547401218995,170.578234241311293c-1.755126182119056-.012938069070515-3.510251361758492-.025884174207022-5.265833670258871-.038958856428508-3.306547326479631-3.595714404200407-3.495005713521095-8.360893639097412-3.99091834093997-12.696312007070446-1.163134292539326-10.168470465136124-.779375622809312-20.474920213449877-2.20156012480038-30.650615103486416-.258072294529484-1.846495502126345.190969087070698-3.756347362352244,2.49155424843957-3.824621793912229,2.326692632250342-.069070002266017,2.442588831181638,1.839889854440116,2.715399521330255,3.678815380750166,1.708075994411047,11.513539448191295.490012056299747,23.279298918618224,3.061332783419857,34.721397724557391.695661896630554,3.095613836307166,1.850762350080913,5.974181518895421,3.19002558280954,8.810294655590042Z" style="fill: #cea6ae; stroke-width: 0px;"/>
        <path d="M140.320752960360551,86.259733158636664c.335039360230439,7.038152870274644.785122815170325,7.494581428007223,7.584762129339651,7.23810228986622,4.149510976229067-.156518491465249,8.295260664190209-.412716367238318,12.442694511069931-.624117183366252-.805621435320063,1.482642444812882-3.515401078690047-.075233666224449-3.653053002120942,2.069110650792936-.104161220078822,1.622554402281821,1.805931643251824,1.888560298735683,2.865010978130158,2.660428623656117,2.990456759200242,2.179490059299496,5.337669063590511,5.482876427149677,9.521192030460952,5.648640414556212-5.905527356650055,1.615607221716346-11.954697430639499.805768476700905-17.940879960549864,1.062516823112674-4.935387653020371-5.374891766829023-11.704515621189785-8.319222609807184-17.163416058610892-13.000408864634664-.275696817268908-6.388107314329318-1.415367166979195-7.389296886449301-7.85916775809892-7.184276708110701-4.322129247020712.137517209284852-8.648460871570933.142435282743463-12.97292388167989.20669569846541-.36310466588111-2.441968122015169.990277432569201-4.348292148501059,2.00440175364929-6.347826524759512,1.633349461590115-3.220454148722638,3.892175501230668-3.873027047971846,7.300383873769533-2.358726514277805,6.397630576950178,2.842533954819373,11.776705890861194,7.32522531831637,17.870995384640992,10.629861294699367Z" style="fill: #cda9a8; stroke-width: 0px;"/>
      </g>
    </g>
  </a>
</svg>