<?xml version="1.0" encoding="UTF-8"?>
<svg id="Pattern" xmlns="http://www.w3.org/2000/svg" xmlns:xlink="http://www.w3.org/1999/xlink" viewBox="0 0 280 280">
  <defs>
    <style>
      .cls-1 {
        fill: #ce9bc6;
      }

      .cls-2 {
        stroke: url(#linear-gradient-5);
      }

      .cls-2, .cls-3, .cls-4, .cls-5, .cls-6, .cls-7 {
        fill: none;
        stroke-linecap: round;
        stroke-linejoin: round;
      }

      .cls-2, .cls-3, .cls-4, .cls-6, .cls-7 {
        stroke-width: 41px;
      }

      .cls-3 {
        stroke: url(#linear-gradient-3);
      }

      .cls-4 {
        stroke: url(#linear-gradient-2);
      }

      .cls-5 {
        stroke: #6c5f5d;
        stroke-width: 15px;
      }

      .cls-8 {
        fill: #fff;
      }

      .cls-9 {
        fill: #ca7eb4;
      }

      .cls-10 {
        fill: #894f9e;
      }

      .cls-6 {
        stroke: url(#linear-gradient);
      }

      .cls-11 {
        fill: #b6a9a6;
      }

      .cls-12 {
        fill: #774198;
      }

      .cls-13 {
        fill: #a462a7;
      }

      .cls-14 {
        fill: #cbc1bf;
      }

      .cls-7 {
        stroke: url(#linear-gradient-4);
      }
    </style>
    <linearGradient id="linear-gradient" x1="3024.875202412236831" y1="-676.825917538223621" x2="3089.384527611966405" y2="-676.825917538223621" gradientTransform="translate(-3066.745089235078467 286.152255229138973) rotate(8.579559423728485)" gradientUnits="userSpaceOnUse">
      <stop offset=".005347593582888" stop-color="#391847"/>
      <stop offset=".288669020858999" stop-color="#441d57"/>
      <stop offset="1" stop-color="#5e2b7d"/>
    </linearGradient>
    <linearGradient id="linear-gradient-2" gradientTransform="translate(-2907.521831110652329 286.152255229138973) rotate(8.579559423728485)" xlink:href="#linear-gradient"/>
    <linearGradient id="linear-gradient-3" gradientTransform="translate(-2907.521831110652329 286.152255229138973) rotate(8.579559423728485)" xlink:href="#linear-gradient"/>
    <linearGradient id="linear-gradient-4" gradientTransform="translate(-2907.521831110652329 286.152255229138973) rotate(8.579559423728485)" xlink:href="#linear-gradient"/>
    <linearGradient id="linear-gradient-5" gradientTransform="translate(-2907.521831110652329 286.152255229138973) rotate(8.579559423728485)" xlink:href="#linear-gradient"/>
  </defs>
  <g>
    <path class="cls-1" d="M43.780029296875,76.6767578125c11.749000799882197,1.724856663862738,35.377648217654496,5.289463355962653,47.109670706215184,7.107467897310926.060271675154581.008245284170698.0494928086664.106296007859783-.015206692285574.098826529747384-1.99143667017961-.105555901667685-3.96677846705461-.31988085283956-5.95066518580461-.476405511042685-9.822853985457186-1.019004029691132-19.777307876554914-2.451669209676766-29.478276002275379-4.210609285208193-3.426300883254953-.649548507302825-8.333470210880478-1.585200387306031-11.68032618226971-2.420402631862089-.060678237627144-.008020898541872-.049828769710075-.106627411896625.014803356420089-.098876998945343h0Z"/>
    <g>
      <g>
        <g>
          <path class="cls-6" d="M67.967083172321509,84.498571071446349c-12.020193442405798-.880162516961718-24.040316074375369-1.761309584193441-36.060731167359336-2.638464151594235-.88946843512349-.064914279369987-1.781014768459499-.101360930970259-2.671597391521573-.151043431598737-3.40341640333645-1.512375229080135-4.56138801175257-3.357486160637563-4.31458652778565-6.948921295632317.194633283836083-2.832287664979958.403540372464704-5.663884152276296.64130741367444-8.492823626471363.353096979244583-4.201125652865812,2.799316445736622-6.362557418215147,6.921692473573785-6.050112344437366,7.478490250636241.566803721276301,14.95324903873734,1.182806811990304,22.429566084680118,1.778277202503887.543128880281074.586871403073019.584072589776042,1.361301612705574.737454499401792,2.082739446326741,1.549274782946668,7.286980552376917,5.381515044784464,13.189547602818493,10.781065505907463,18.167759801352076.661024942566655.609467064594355,1.736051795433013,1.015872981428402,1.53582910942896,2.252588399551314Z"/>
          <path class="cls-6" d="M89.406770898987816,68.979143421591289c-.319970983751773,4.241816307174304-.639947732279325,8.483618431273499-.959688928707692,12.72574078020989-.163594638954237.779934750504253-.393114490650987,1.519400736833632-1.165803166339174,1.926517473013519-11.400859900488285-1.306650166732652-19.714123826055584-6.785524760074622-23.859995917233391-17.876949620826053-.381600084901947-1.020872021432297-1.000899758590094-2.072285835387447-.037238361839627-3.125508024999363,7.011628785690846.501524357227026,14.026512633819948.962502452277477,21.033271289976256,1.524771525959295,2.751512507633379.220806254703348,4.360436345274138,1.895145993068581,4.989455084143628,4.825427866642713Z"/>
          <path class="cls-6" d="M63.384043494199432,62.628957699740567c.227019087971712,4.051256159964396,2.267055869200703,7.367533973776517,4.609791569391746,10.396357791089031,4.311997628248719,5.574801667598877,10.143492257579055,8.700143367224882,17.096969762658773,9.671674039165737.839889049910198.117352568175193,1.580214528587021.337653908194625,2.190491272012878.934454694044689-1.147933081949304,1.157030061289333-2.441638614955082,2.033985228377787-4.120024477306288,2.171954462824942-5.064639232155969-.434779918432469-10.129260025796611-.869668434392224-15.194038031759192-1.304692539044481-3.929505419333509-3.726645291375462-7.761156123602632-7.524100563099637-10.148042231701766-12.525911767916114-1.514234510472306-3.173138014415599-2.710065563573153-6.423019556477811-2.906381519374918-9.977318990877393,2.823692899095477.211166041643082,5.647464976447736.422324304259746,8.471233656078766.633482310713589Z"/>
          <path class="cls-6" d="M57.380938761274592,83.723285157095233s-13.454171663328452-.986023669842325-25.474586756312419-1.863178237243119c-.88946843512349-.064914279369987-1.781014768459499-.101360930970259-2.671597391521573-.151043431598737-3.40341640333645-1.512375229080135-4.56138801175257-3.357486160637563-4.31458652778565-6.948921295632317.194633283836083-2.832287664979958.403540372464704-5.663884152276296.64130741367444-8.492823626471363.353096979244583-4.201125652865812,2.799316445736622-6.362557418215147,6.921692473573785-6.050112344437366l6.987750809004865.541898027930074c6.050449969045076,13.749142104163184,12.014273218757808,20.934473710291059,17.910019979366552,22.964180907452828Z"/>
        </g>
        <g>
          <path class="cls-10" d="M67.967083172321509,84.498571071446349c-12.020193442405798-.880162516961718-24.040316074375369-1.761309584193441-36.060731167359336-2.638464151594235-.88946843512349-.064914279369987-1.781014768459499-.101360930970259-2.671597391521573-.151043431598737-3.40341640333645-1.512375229080135-4.56138801175257-3.357486160637563-4.31458652778565-6.948921295632317.194633283836083-2.832287664979958.403540372464704-5.663884152276296.64130741367444-8.492823626471363.353096979244583-4.201125652865812,2.799316445736622-6.362557418215147,6.921692473573785-6.050112344437366,7.478490250636241.566803721276301,14.95324903873734,1.182806811990304,22.429566084680118,1.778277202503887.543128880281074.586871403073019.584072589776042,1.361301612705574.737454499401792,2.082739446326741,1.549274782946668,7.286980552376917,5.381515044784464,13.189547602818493,10.781065505907463,18.167759801352076.661024942566655.609467064594355,1.736051795433013,1.015872981428402,1.53582910942896,2.252588399551314Z"/>
          <path class="cls-9" d="M89.406770898987816,68.979143421591289c-.319970983751773,4.241816307174304-.639947732279325,8.483618431273499-.959688928707692,12.72574078020989-.163594638954237.779934750504253-.393114490650987,1.519400736833632-1.165803166339174,1.926517473013519-11.400859900488285-1.306650166732652-19.714123826055584-6.785524760074622-23.859995917233391-17.876949620826053-.381600084901947-1.020872021432297-1.000899758590094-2.072285835387447-.037238361839627-3.125508024999363,7.011628785690846.501524357227026,14.026512633819948.962502452277477,21.033271289976256,1.524771525959295,2.751512507633379.220806254703348,4.360436345274138,1.895145993068581,4.989455084143628,4.825427866642713Z"/>
          <path class="cls-13" d="M63.384043494199432,62.628957699740567c.227019087971712,4.051256159964396,2.267055869200703,7.367533973776517,4.609791569391746,10.396357791089031,4.311997628248719,5.574801667598877,10.143492257579055,8.700143367224882,17.096969762658773,9.671674039165737.839889049910198.117352568175193,1.580214528587021.337653908194625,2.190491272012878.934454694044689-1.147933081949304,1.157030061289333-2.441638614955082,2.033985228377787-4.120024477306288,2.171954462824942-5.064639232155969-.434779918432469-10.129260025796611-.869668434392224-15.194038031759192-1.304692539044481-3.929505419333509-3.726645291375462-7.761156123602632-7.524100563099637-10.148042231701766-12.525911767916114-1.514234510472306-3.173138014415599-2.710065563573153-6.423019556477811-2.906381519374918-9.977318990877393,2.823692899095477.211166041643082,5.647464976447736.422324304259746,8.471233656078766.633482310713589Z"/>
          <path class="cls-12" d="M57.380938761274592,83.723285157095233s-13.454171663328452-.986023669842325-25.474586756312419-1.863178237243119c-.88946843512349-.064914279369987-1.781014768459499-.101360930970259-2.671597391521573-.151043431598737-3.40341640333645-1.512375229080135-4.56138801175257-3.357486160637563-4.31458652778565-6.948921295632317.194633283836083-2.832287664979958.403540372464704-5.663884152276296.64130741367444-8.492823626471363.353096979244583-4.201125652865812,2.799316445736622-6.362557418215147,6.921692473573785-6.050112344437366l6.987750809004865.541898027930074c6.050449969045076,13.749142104163184,12.014273218757808,20.934473710291059,17.910019979366552,22.964180907452828Z"/>
        </g>
      </g>
      <path class="cls-8" d="M87.992777936784478,72.046880873060218c.084181020312826-.501858412399088.183949370850314-1.018954859091536.176813900941852-1.530660252896269-.009866820171737-.707578500936506-.16782402296667-1.344027724386251-.484525262891111-1.973415405320338-.297411602561624-.591052939560541-.814102068721695-1.064060895116199-1.365073053182641-1.414849756745753-.409181511351562-.260515200643567-.886338134605467-.407842354234162-1.332337736350382-.592983524791634l.597198839657722.252020871015702c-.167552788416288-.07128497730082-.329700496275109-.148481450029067-.483080306517877-.247105524966173l-.597198839657722-.252020871012064c-.332299515261184-.104186152137117-.664599030524187-.119069888156446-.99689854578719-.044651208059804-.524577211641372.07048763282728-1.066765674115231.285937886601459-1.435467437702755.687581838974438-.293088194030133.319274579811463-.509470767148741.690763111888373-.642930630916453,1.10316792244339-.192695660831305.595449562559224-.064675896592234,1.396182127122302.252020871013883,1.926396900706095.523555695413961.876538673259347,1.155053180611503,1.702027643388647,1.852303280571505,2.447278596026081l.505969082783849.39090975990257c.286959739270969.182692942958965.596792524243938.281583635984134.929498354918906.296672079071868.53293091847263.071610123484788,1.128499804846797.00350483269176,1.594097385444911-.296672079071868.361470150193782-.233044581631475.663834261054944-.535408692492638.896878842686419-.896878842686419.37117298832527-.575717980216723.37102240108652-1.283857940652524.252020871013883-1.926396900706095-.17293508610237-.93374875360314-.706587316715741-1.809309199874406-1.345975711263236-2.497126597090755-.317093444413331-.341110957704586-.707063503781683-.638919843875556-1.10340415884275-.881111535672972-.410234901448348-.250682042198605-.874064611110953-.442915728926891-1.338776093836714-.564588770741466-.866322567484531-.226824827654127-1.795965467114002.00653011454051-2.432365983489944.642930630916453-.648604680965946.648604680965946-.849216767799589,1.554261192144622-.642930630916453,2.432365983491763.248195798880261,1.056502988914872.908788163456848,1.846015283266752,1.55323808193134,2.680110870598583l-.39090975990257-.505969082783849c.23757936824768.30913102255181.46572936571647.623948404285329.626893654214655.980731869942247l-.252020871013883-.597198839657722c.018182650243034.041646506602774.035189887523302.083767625364999.051021711844442.126363356286674l4.569374296750539-1.926396900707914c-.963441321615392-1.981365962321433-2.519173462927938-3.856526699111782-4.758828598683976-4.388008820791583l-.664599030524187,4.91069758388403c.118809754785616-.005235571152298.234436344340793-.001125017937738.352487849409954.012451746104489l-.664599030526006-.089302416117789c.186175942115369.028634320844503.361642027797643.079893705324139.535427980041277.152309277342283l-.597198839655903-.252020871013883c.196547216837644.089086458752718.377801444377837.199315851259598.551015897977777.327701798960334l-.505969082783849-.39090975990257c.271692107589843.21110862300884.50812491063698.45533657210035.721401420363691.724919334061269l-.39090975990257-.505969082783849c.363019237023764.473780091588196.651253601838107.998159188826321.887156761014921,1.545425930322381l-.252020871012064-.597198839657722c.267782270195312.638617447044453.458672567106987,1.302623903269705.593883287279823,1.981269589303338.117412390040045.589312828789843.644705129094291,1.199028335347975,1.148899713700303,1.49407768234596.535867402988515.313583945873688,1.325625203724485.4464388476772,1.926396900706095.252020871012064.604924231063706-.195761793755082,1.188553591255186-.570634104129567,1.494077682344141-1.148899713700303.327038918045218-.618986733983547.389259664651036-1.237571967749318.252020871013883-1.926396900706095-.118834673403398-.596451511788473-.27842139639688-1.184591922312393-.500141620523209-1.751444258825359-.289147535482698-.739237734091148-.603907518538108-1.474351199303783-1.056117361620636-2.130335530724551-.543967162877379-.789089271522244-1.122342493546967-1.406243633628037-1.912249927821904-1.948646097749588-.725211440703788-.497977934348455-1.704345571972226-.787797047361892-2.583561870005724-.749052758270409-.629362149906228.02773400485421-1.327437495752747.252561721836173-1.767766952965758.732233047032423-.379082315996129.412951970150971-.612599272706575.877438405397697-.687581838974438,1.435467437704574-.071610123484788.53293091847263-.003504832689941,1.128499804844978.296672079071868,1.594097385444911.346024661981573.536710983200464.855783150807838.997429013385045,1.494077682344141,1.148899713700303.174903438979527.041505519913699.343232252267626.0950530927621.510315377938241.161322142141216l-.597198839657722-.252020871012064c.30834608144869.130486370360813.592412478774349.298749760046121.860086800630597.499482768236703l-.505969082783849-.39090975990257c.332995401086009.259212970939188.62379041074928.558099554809814.885678033542717.888528611440051l-.39090975990257-.505969082783849c.402626358616544.522423021637223.720859031114742,1.097876276127863,1.00867070422828,1.689775585271491.25073189464274.515642863314497.942703551436352,1.023314301606661,1.494077682344141,1.148899713700303.559029818597992.127329133169042,1.09702079059025.097979959176882,1.627797480878144-.126010435506032.48026354850299-.202673598429101.945052717404906-.548908715882135,1.195478262514371-1.02288927819427.295985983037099-.560212827387659.491164291081077-1.309485852119906.252020871013883-1.926396900706095-.168941576039288-.43581347458894-.342356719562304-.869370719161452-.603395028347222-1.258327143203132-.259800306866964-.387111756870581-.559726510273322-.748366520567288-.844743075047518-1.116424867455862l.39090975990257.505969082783849c-.250006572347047-.323835478375258-.493603965865987-.651914092013612-.659516247342253-1.028198199814142l.252020871013883.597198839657722c-.051310765420567-.125622022498646-.092448063223856-.252079957474052-.123499097253443-.384255886354367l-3.075296614406398,3.075296614406398c.131003157350278.034299889790418.257610956565259.076665873770253.383018493243071.127853417616279l-.597198839655903-.252020871015702c.228022883706217.099943489636644.437485403219398.225380573763687.634464129383559.377550864146542l-.505969082783849-.39090975990257c.175807344037821.142578233260792.333050904800984.300360836799882.475193321493862.476530144953358l-.39090975990257-.505969082783849c.151776300743222.197392741032672.277169252551175.407168505651498.377684676655917.63501850146713l-.252020871013883-.597198839657722c.077436297147869.188078129263886.134661227088145.37980495150623.171696789806447.579775421963859l4.178464536847969-2.432365983489944c-.248821022560151-.265950631073792-.48465372022838-.542438778426003-.708097131198883-.830034227434226l.39090975990257.505969082783849c-.272375149856089-.356143103093927-.523381461012832-.726350953751535-.753296389470052-1.111275285808006l-3.420474583050236,3.420474583052055c.428831257939237.275740894780029.92869982429329.434087235676998,1.396636278381266.629448529669389l-.597198839657722-.252020871013883c.185306433220831.079521497733367.363370111603217.166888292676958.526850197791646.28576791033629l-.505969082783849-.39090975990257c.089006880140005.071279139727267.165614407205794.14727341823891.236750062484134.236224804531957l-.39090975990257-.505969082785668c.053649686689823.076181478543731.098262863471973.153198664234878.137900274237836.237515361093756l-.252020871013883-.597198839659541c.052596910614739.129552800841338.086500123690712.259436973030461.108459886994751.397541490769072l-.08930241611597-.664599030526006c.035063125351371.289410635115928.015437564667081.576129290577228-.022689759976856.864218382934268l.089302416117789-.664599030524187c-.01368495996212.095218082784413-.028690823033685.190152164752362-.044604195614738.28502224199292-.104186152137117.332299515261184-.119069888156446.664599030524187-.044651208057985.99689854578719.015088443089553.332705830674968.113979136112903.642538615647936.296672079071868.929498354918906.303469893331567.518584021168863.898084087346433,1.013151413160813,1.494077682344141,1.148899713700303.63997108401054.145764967573996,1.358329207674615.1142198760881,1.926396900706095-.252020871013883.514981075928517-.332015103662343,1.043196027167141-.863908505114523,1.148899713700303-1.494077682344141h0Z"/>
    </g>
  </g>
  <g>
    <path class="cls-1" d="M203.003287421301138,76.6767578125c11.749000799882197,1.724856663862738,35.377648217654496,5.289463355962653,47.109670706215184,7.107467897310926.060271675154581.008245284170698.0494928086664.106296007859783-.015206692285574.098826529747384-1.99143667017961-.105555901667685-3.96677846705461-.31988085283956-5.95066518580461-.476405511042685-9.822853985457186-1.019004029691132-19.777307876554914-2.451669209676766-29.478276002275379-4.210609285208193-3.426300883254953-.649548507302825-8.333470210880478-1.585200387306031-11.68032618226971-2.420402631862089-.060678237627144-.008020898541872-.049828769710075-.106627411896625.014803356420089-.098876998945343h0Z"/>
    <g>
      <g>
        <g>
          <path class="cls-4" d="M227.190341296747647,84.498571071446349c-12.020193442405798-.880162516961718-24.040316074375369-1.761309584193441-36.060731167359336-2.638464151594235-.88946843512349-.064914279369987-1.781014768459499-.101360930970259-2.671597391521573-.151043431598737-3.40341640333645-1.512375229080135-4.56138801175257-3.357486160637563-4.31458652778565-6.948921295632317.194633283836083-2.832287664979958.403540372464704-5.663884152276296.64130741367444-8.492823626471363.353096979244583-4.201125652865812,2.799316445736622-6.362557418215147,6.921692473573785-6.050112344437366,7.478490250636241.566803721276301,14.95324903873734,1.182806811990304,22.429566084680118,1.778277202503887.543128880281074.586871403073019.584072589776042,1.361301612705574.737454499401792,2.082739446326741,1.549274782946668,7.286980552376917,5.381515044784464,13.189547602818493,10.781065505907463,18.167759801352076.661024942566655.609467064594355,1.736051795433013,1.015872981428402,1.53582910942896,2.252588399551314Z"/>
          <path class="cls-3" d="M248.630029023413954,68.979143421591289c-.319970983751773,4.241816307174304-.639947732279325,8.483618431273499-.959688928707692,12.72574078020989-.163594638954237.779934750504253-.393114490650987,1.519400736833632-1.165803166339174,1.926517473013519-11.400859900488285-1.306650166732652-19.714123826055584-6.785524760074622-23.859995917233391-17.876949620826053-.381600084901947-1.020872021432297-1.000899758590094-2.072285835387447-.037238361839627-3.125508024999363,7.011628785690846.501524357227026,14.026512633819948.962502452277477,21.033271289976256,1.524771525959295,2.751512507633379.220806254703348,4.360436345274138,1.895145993068581,4.989455084143628,4.825427866642713Z"/>
          <path class="cls-7" d="M222.60730161862557,62.628957699740567c.227019087971712,4.051256159964396,2.267055869200703,7.367533973776517,4.609791569391746,10.396357791089031,4.311997628248719,5.574801667598877,10.143492257579055,8.700143367224882,17.096969762658773,9.671674039165737.839889049910198.117352568175193,1.580214528587021.337653908194625,2.190491272012878.934454694044689-1.147933081949304,1.157030061289333-2.441638614955082,2.033985228377787-4.120024477306288,2.171954462824942-5.064639232155969-.434779918432469-10.129260025796611-.869668434392224-15.194038031759192-1.304692539044481-3.929505419333509-3.726645291375462-7.761156123602632-7.524100563099637-10.148042231701766-12.525911767916114-1.514234510472306-3.173138014415599-2.710065563573153-6.423019556477811-2.906381519374918-9.977318990877393,2.823692899095477.211166041643082,5.647464976447736.422324304259746,8.471233656078766.633482310713589Z"/>
          <path class="cls-2" d="M216.60419688570073,83.723285157095233s-13.454171663328452-.986023669842325-25.474586756312419-1.863178237243119c-.88946843512349-.064914279369987-1.781014768459499-.101360930970259-2.671597391521573-.151043431598737-3.40341640333645-1.512375229080135-4.56138801175257-3.357486160637563-4.31458652778565-6.948921295632317.194633283836083-2.832287664979958.403540372464704-5.663884152276296.64130741367444-8.492823626471363.353096979244583-4.201125652865812,2.799316445736622-6.362557418215147,6.921692473573785-6.050112344437366l6.987750809004865.541898027930074c6.050449969045076,13.749142104163184,12.014273218757808,20.934473710291059,17.910019979366552,22.964180907452828Z"/>
        </g>
        <g>
          <path class="cls-10" d="M227.190341296747647,84.498571071446349c-12.020193442405798-.880162516961718-24.040316074375369-1.761309584193441-36.060731167359336-2.638464151594235-.88946843512349-.064914279369987-1.781014768459499-.101360930970259-2.671597391521573-.151043431598737-3.40341640333645-1.512375229080135-4.56138801175257-3.357486160637563-4.31458652778565-6.948921295632317.194633283836083-2.832287664979958.403540372464704-5.663884152276296.64130741367444-8.492823626471363.353096979244583-4.201125652865812,2.799316445736622-6.362557418215147,6.921692473573785-6.050112344437366,7.478490250636241.566803721276301,14.95324903873734,1.182806811990304,22.429566084680118,1.778277202503887.543128880281074.586871403073019.584072589776042,1.361301612705574.737454499401792,2.082739446326741,1.549274782946668,7.286980552376917,5.381515044784464,13.189547602818493,10.781065505907463,18.167759801352076.661024942566655.609467064594355,1.736051795433013,1.015872981428402,1.53582910942896,2.252588399551314Z"/>
          <path class="cls-9" d="M248.630029023413954,68.979143421591289c-.319970983751773,4.241816307174304-.639947732279325,8.483618431273499-.959688928707692,12.72574078020989-.163594638954237.779934750504253-.393114490650987,1.519400736833632-1.165803166339174,1.926517473013519-11.400859900488285-1.306650166732652-19.714123826055584-6.785524760074622-23.859995917233391-17.876949620826053-.381600084901947-1.020872021432297-1.000899758590094-2.072285835387447-.037238361839627-3.125508024999363,7.011628785690846.501524357227026,14.026512633819948.962502452277477,21.033271289976256,1.524771525959295,2.751512507633379.220806254703348,4.360436345274138,1.895145993068581,4.989455084143628,4.825427866642713Z"/>
          <path class="cls-13" d="M222.60730161862557,62.628957699740567c.227019087971712,4.051256159964396,2.267055869200703,7.367533973776517,4.609791569391746,10.396357791089031,4.311997628248719,5.574801667598877,10.143492257579055,8.700143367224882,17.096969762658773,9.671674039165737.839889049910198.117352568175193,1.580214528587021.337653908194625,2.190491272012878.934454694044689-1.147933081949304,1.157030061289333-2.441638614955082,2.033985228377787-4.120024477306288,2.171954462824942-5.064639232155969-.434779918432469-10.129260025796611-.869668434392224-15.194038031759192-1.304692539044481-3.929505419333509-3.726645291375462-7.761156123602632-7.524100563099637-10.148042231701766-12.525911767916114-1.514234510472306-3.173138014415599-2.710065563573153-6.423019556477811-2.906381519374918-9.977318990877393,2.823692899095477.211166041643082,5.647464976447736.422324304259746,8.471233656078766.633482310713589Z"/>
          <path class="cls-12" d="M216.60419688570073,83.723285157095233s-13.454171663328452-.986023669842325-25.474586756312419-1.863178237243119c-.88946843512349-.064914279369987-1.781014768459499-.101360930970259-2.671597391521573-.151043431598737-3.40341640333645-1.512375229080135-4.56138801175257-3.357486160637563-4.31458652778565-6.948921295632317.194633283836083-2.832287664979958.403540372464704-5.663884152276296.64130741367444-8.492823626471363.353096979244583-4.201125652865812,2.799316445736622-6.362557418215147,6.921692473573785-6.050112344437366l6.987750809004865.541898027930074c6.050449969045076,13.749142104163184,12.014273218757808,20.934473710291059,17.910019979366552,22.964180907452828Z"/>
        </g>
      </g>
      <path class="cls-8" d="M247.216036061210616,72.046880873060218c.084181020312826-.501858412399088.183949370850314-1.018954859091536.176813900941852-1.530660252896269-.009866820171737-.707578500936506-.16782402296667-1.344027724386251-.484525262891111-1.973415405320338-.297411602561624-.591052939560541-.814102068721695-1.064060895116199-1.365073053182641-1.414849756745753-.409181511351562-.260515200643567-.886338134605467-.407842354234162-1.332337736350382-.592983524791634l.597198839657722.252020871015702c-.167552788416288-.07128497730082-.329700496275109-.148481450029067-.483080306517877-.247105524966173l-.597198839657722-.252020871012064c-.332299515261184-.104186152137117-.664599030524187-.119069888156446-.99689854578719-.044651208059804-.524577211641372.07048763282728-1.066765674115231.285937886601459-1.435467437702755.687581838974438-.293088194030133.319274579811463-.509470767148741.690763111888373-.642930630916453,1.10316792244339-.192695660831305.595449562559224-.064675896592234,1.396182127122302.252020871013883,1.926396900706095.523555695413961.876538673259347,1.155053180611503,1.702027643388647,1.852303280571505,2.447278596026081l.505969082783849.39090975990257c.286959739270969.182692942958965.596792524243938.281583635984134.929498354918906.296672079071868.53293091847263.071610123484788,1.128499804846797.00350483269176,1.594097385444911-.296672079071868.361470150193782-.233044581631475.663834261054944-.535408692492638.896878842686419-.896878842686419.37117298832527-.575717980216723.37102240108652-1.283857940652524.252020871013883-1.926396900706095-.17293508610237-.93374875360314-.706587316715741-1.809309199874406-1.345975711263236-2.497126597090755-.317093444413331-.341110957704586-.707063503781683-.638919843875556-1.10340415884275-.881111535672972-.410234901448348-.250682042198605-.874064611110953-.442915728926891-1.338776093836714-.564588770741466-.866322567484531-.226824827654127-1.795965467114002.00653011454051-2.432365983489944.642930630916453-.648604680965946.648604680965946-.849216767799589,1.554261192144622-.642930630916453,2.432365983491763.248195798880261,1.056502988914872.908788163456848,1.846015283266752,1.55323808193134,2.680110870598583l-.39090975990257-.505969082783849c.23757936824768.30913102255181.46572936571647.623948404285329.626893654214655.980731869942247l-.252020871013883-.597198839657722c.018182650243034.041646506602774.035189887523302.083767625364999.051021711844442.126363356286674l4.569374296750539-1.926396900707914c-.963441321615392-1.981365962321433-2.519173462927938-3.856526699111782-4.758828598683976-4.388008820791583l-.664599030524187,4.91069758388403c.118809754785616-.005235571152298.234436344340793-.001125017937738.352487849409954.012451746104489l-.664599030526006-.089302416117789c.186175942115369.028634320844503.361642027797643.079893705324139.535427980041277.152309277342283l-.597198839655903-.252020871013883c.196547216837644.089086458752718.377801444377837.199315851259598.551015897977777.327701798960334l-.505969082783849-.39090975990257c.271692107589843.21110862300884.50812491063698.45533657210035.721401420363691.724919334061269l-.39090975990257-.505969082783849c.363019237023764.473780091588196.651253601838107.998159188826321.887156761014921,1.545425930322381l-.252020871012064-.597198839657722c.267782270195312.638617447044453.458672567106987,1.302623903269705.593883287279823,1.981269589303338.117412390040045.589312828789843.644705129094291,1.199028335347975,1.148899713700303,1.49407768234596.535867402988515.313583945873688,1.325625203724485.4464388476772,1.926396900706095.252020871012064.604924231063706-.195761793755082,1.188553591255186-.570634104129567,1.494077682344141-1.148899713700303.327038918045218-.618986733983547.389259664651036-1.237571967749318.252020871013883-1.926396900706095-.118834673403398-.596451511788473-.27842139639688-1.184591922312393-.500141620523209-1.751444258825359-.289147535482698-.739237734091148-.603907518538108-1.474351199303783-1.056117361620636-2.130335530724551-.543967162877379-.789089271522244-1.122342493546967-1.406243633628037-1.912249927821904-1.948646097749588-.725211440703788-.497977934348455-1.704345571972226-.787797047361892-2.583561870005724-.749052758270409-.629362149906228.02773400485421-1.327437495752747.252561721836173-1.767766952965758.732233047032423-.379082315996129.412951970150971-.612599272706575.877438405397697-.687581838974438,1.435467437704574-.071610123484788.53293091847263-.003504832689941,1.128499804844978.296672079071868,1.594097385444911.346024661981573.536710983200464.855783150807838.997429013385045,1.494077682344141,1.148899713700303.174903438979527.041505519913699.343232252267626.0950530927621.510315377938241.161322142141216l-.597198839657722-.252020871012064c.30834608144869.130486370360813.592412478774349.298749760046121.860086800630597.499482768236703l-.505969082783849-.39090975990257c.332995401086009.259212970939188.62379041074928.558099554809814.885678033542717.888528611440051l-.39090975990257-.505969082783849c.402626358616544.522423021637223.720859031114742,1.097876276127863,1.00867070422828,1.689775585271491.25073189464274.515642863314497.942703551436352,1.023314301606661,1.494077682344141,1.148899713700303.559029818597992.127329133169042,1.09702079059025.097979959176882,1.627797480878144-.126010435506032.48026354850299-.202673598429101.945052717404906-.548908715882135,1.195478262514371-1.02288927819427.295985983037099-.560212827387659.491164291081077-1.309485852119906.252020871013883-1.926396900706095-.168941576039288-.43581347458894-.342356719562304-.869370719161452-.603395028347222-1.258327143203132-.259800306866964-.387111756870581-.559726510273322-.748366520567288-.844743075047518-1.116424867455862l.39090975990257.505969082783849c-.250006572347047-.323835478375258-.493603965865987-.651914092013612-.659516247342253-1.028198199814142l.252020871013883.597198839657722c-.051310765420567-.125622022498646-.092448063223856-.252079957474052-.123499097253443-.384255886354367l-3.075296614406398,3.075296614406398c.131003157350278.034299889790418.257610956565259.076665873770253.383018493243071.127853417616279l-.597198839655903-.252020871015702c.228022883706217.099943489636644.437485403219398.225380573763687.634464129383559.377550864146542l-.505969082783849-.39090975990257c.175807344037821.142578233260792.333050904800984.300360836799882.475193321493862.476530144953358l-.39090975990257-.505969082783849c.151776300743222.197392741032672.277169252551175.407168505651498.377684676655917.63501850146713l-.252020871013883-.597198839657722c.077436297147869.188078129263886.134661227088145.37980495150623.171696789806447.579775421963859l4.178464536847969-2.432365983489944c-.248821022560151-.265950631073792-.48465372022838-.542438778426003-.708097131198883-.830034227434226l.39090975990257.505969082783849c-.272375149856089-.356143103093927-.523381461012832-.726350953751535-.753296389470052-1.111275285808006l-3.420474583050236,3.420474583052055c.428831257939237.275740894780029.92869982429329.434087235676998,1.396636278381266.629448529669389l-.597198839657722-.252020871013883c.185306433220831.079521497733367.363370111603217.166888292676958.526850197791646.28576791033629l-.505969082783849-.39090975990257c.089006880140005.071279139727267.165614407205794.14727341823891.236750062484134.236224804531957l-.39090975990257-.505969082785668c.053649686689823.076181478543731.098262863471973.153198664234878.137900274237836.237515361093756l-.252020871013883-.597198839659541c.052596910614739.129552800841338.086500123690712.259436973030461.108459886994751.397541490769072l-.08930241611597-.664599030526006c.035063125351371.289410635115928.015437564667081.576129290577228-.022689759976856.864218382934268l.089302416117789-.664599030524187c-.01368495996212.095218082784413-.028690823033685.190152164752362-.044604195614738.28502224199292-.104186152137117.332299515261184-.119069888156446.664599030524187-.044651208057985.99689854578719.015088443089553.332705830674968.113979136112903.642538615647936.296672079071868.929498354918906.303469893331567.518584021168863.898084087346433,1.013151413160813,1.494077682344141,1.148899713700303.63997108401054.145764967573996,1.358329207674615.1142198760881,1.926396900706095-.252020871013883.514981075928517-.332015103662343,1.043196027167141-.863908505114523,1.148899713700303-1.494077682344141h0Z"/>
    </g>
  </g>
  <g>
    <g>
      <polygon class="cls-5" points="108.19394383895451 116.503200719787856 109.4705395836354 134.375541145318493 126.802787595881455 136.97128582617006 128.364156604911841 150.793810419940201 156.078660188437425 119.950009230424257 126.802787595881455 95.779796464466926 126.802787595881455 112.460647528296249 108.19394383895451 116.503200719787856"/>
      <polygon class="cls-11" points="108.19394383895451 116.503200719787856 109.4705395836354 134.375541145318493 126.802787595881455 136.97128582617006 128.364156604911841 150.793810419940201 156.078660188437425 119.950009230424257 126.802787595881455 95.779796464466926 126.802787595881455 112.460647528296249 108.19394383895451 116.503200719787856"/>
    </g>
    <path class="cls-14" d="M136.44501673015111,119.91430155683156c5.059326171875,1.4630126953125,9.7353515625,3.59539794921875,14.260986328125,6.0150146484375l5.372802734375-5.97930908203125-29.27587890625-24.17022705078125v16.68084716796875l-15.9755859375,3.47052001953125c8.657958984375.48193359375,17.273193359375,1.5701904296875,25.61767578125,3.983154296875Z"/>
  </g>
</svg>