<?xml version="1.0" encoding="UTF-8"?>
<svg id="Pattern" xmlns="http://www.w3.org/2000/svg" width="280" height="280" xmlns:xlink="http://www.w3.org/1999/xlink" viewBox="0 0 280 280">
  <defs>
    <linearGradient id="C4" x1="111.334910234727431" y1="-30.618435162677088" x2="141.624715086918513" y2="-30.618435162677088" gradientTransform="translate(-7.783560723689106 82.072259120658771) rotate(6.099742424194615)" gradientUnits="userSpaceOnUse">
      <stop offset="0" stop-color="#7e9e4c"/>
      <stop offset=".487868088942308" stop-color="#91a23d"/>
      <stop offset=".713373248351595" stop-color="#9d9c43"/>
      <stop offset="1" stop-color="#b4924e"/>
    </linearGradient>
    <linearGradient id="AC78" x1="72.95553181104151" y1="-5.01297149882339" x2="102.691850979274022" y2="-5.01297149882339" gradientTransform="translate(-7.783560723689106 82.072259120658771) rotate(6.099742424194615)" gradientUnits="userSpaceOnUse">
      <stop offset="0" stop-color="#dc6476"/>
      <stop offset=".5" stop-color="#f1666a"/>
      <stop offset="1" stop-color="#e17465"/>
    </linearGradient>
  </defs>
  <a xlink:href="https://www.notion.so/dmmnotes/images-d907be08547d4f08987667c1222a60f1?pvs=4">
    <g>
      <g>
        <path d="M216.610086736078301,122.802960581911066l-.490290022622503,4.587954421366703c-.52592263432598,1.017468614392783-.49309881544832,2.174898011471669-.635579901383608,3.247215513130868-.821003225744789,6.178511746060394-4.311973452657185,10.903468500924646-8.317391697535641,15.274963091251266-3.965031134021046,4.327422738992027-8.86786025409674,7.359791320048316-14.426585061564765,9.290673409499504-.824766071940758.286480460556049-1.650047140177776.704594353472203-2.556069189460686.26014733863849-.486270563866128-.845483724184305-1.249896114426519-1.364985931579213-2.070647416443535-1.855756255874439-11.961043319237433-7.151960297756887-23.932733699917662-14.286147712326056-35.911313913595222-21.408565958342479-13.04459847592625-7.756288922425483-26.071315724722808-15.542589635610966-39.118497344683419-23.29458488749151-6.243924556629281-3.709825779397761-12.508391894596571-7.386498267735988-18.710040482706972-11.167857448057475-1.265089796361281-.771364436986914-2.293111082115502-1.67802101563575-2.338878649938124-3.300384889406814.390858486009165-1.723541701288013,1.267682919042272-3.274208555802943,1.760714894855482-4.961510172083763,1.971066414571396-4.602391566540973,1.053822450447115-8.790957597329907-1.96993883392679-12.57136232058383-3.682093742027064-4.603472395693643-9.913580381849897-6.298616389972267-15.137828188544518-4.276192605459073-.675474960618885.26148940549956-1.287706017466917.584274389844722-1.778749720246196,1.118599361029737-1.288057978374127.969590849386805-2.633925150603318,1.852617222188201-4.053239209133608,2.622952661987256-1.825293222396795.597473491206074-2.634277547294914,2.456065466766631-4.193679030475323,3.384083040558835-1.001238545199158.423362553511652-1.982018028116727.315839504582073-2.883366062429559-.228565550483836-5.141607126743111-3.105474702480933-10.373546762773913-6.059905569632974-15.463981557573788-9.250600767642027-.25059556830638-.157071209366222-.46061699902566-.366138184162082-.624017333902884-.617014957096217-.384793946119316-.904574111617876.112142555792161-1.614198019095056.573451121135804-2.288841162095196,7.565724480746212-11.064570312389151,17.289466463642384-19.633291811172967,29.437984681475427-25.384810171220124.744223217943727-.352342550422691,1.493126538111028-.727378048752144,2.354679692545687-.712074570884397,3.802793539145569-.877562115308137,6.458804542799044,1.590796516790761,9.342136428374943,3.279498821670131,5.386512824146848,3.154755120271147,10.732679014796304,6.379045298192977,16.100472076919687,9.566307022442743,1.034946379977555.614526224548172,2.016749919919675,1.198851298048794,3.275462945928666.523152048582233.412220844773401-.221287255218158.930344521020743-.094786619991282,1.282612623934256.320327100539544.227384020752652.802969053386732-.453350082525503,1.174479243079986-.845683030853252,1.629352892267889-5.107859021201875,5.921999843531012-4.35835345727719,16.292611279909579,3.299662961477225,20.866963116330226,2.331292785038386,1.392547881077007,4.837933552276809,2.099591263581715,7.582040165338185,1.600916441437221,4.840683864054881.24830000928614,8.786545234286677-1.540269611452459,11.908818773144958-5.217892133457099.265340101947004-.312535089194171.573291338252602-.585974068195355.923430907385409-.808205255489156.580711662401882-.238982803944964,1.017222996159035-.77197849271306,1.683355685454444-.840435734682615,1.567598967880258.02207151179482,2.789212864079673.932112368487651,4.038802333254353,1.680575813192263,12.158227737159905,7.28239236985246,24.369279723850923,14.47609698449196,36.518873396415074,21.772716462038261.962745717946746.578199413801485,2.218435186900024,1.101277126814239,1.741772397355817,2.678726710900264-.668117222003275.854233811774975-1.690046757379605.747792581395515-2.594267553020472.924333330213813-6.760261299585181,1.319833233963436-11.496535938345914,5.119831831857482-13.720758077806749,11.65781182921819-2.278652604985837,6.69796942409539-1.259639176782002,12.957623648983827,3.42083742923387,18.39406516449435,4.691244878460566,5.448932133386734,13.555771871007892,7.52599694379569,20.846932717862728,5.027745452618547,6.766259310905298-2.318402605251322,11.30463797610355-8.446439506796196,11.843546729163791-15.938272691006205.170617944988408-2.371941525063448-.459914320068492-4.67869699610128-.484465235596872-7.033156383938149.822265026326932-1.696873156989568,1.509934111139955-1.971855195211901,3.188238882881706-1.233162768965485,1.841500055044889.810511319562465,3.459486542951709,2.014451805330282,5.184344072538806,3.027639800516226,3.198683674881977,1.878906901529263,6.361530450631108,3.821898056939972,9.585590545186278,5.656621370158973,1.601165074078381.911178788306643,2.714293854725838,1.996799646582076,2.431506051581891,3.995904470176356Z" fill="none" stroke="#c24d5d" stroke-linecap="round" stroke-linejoin="round" stroke-width="43.134372174739838"/>
        <path d="M109.930258679960389,54.995198444998096c-.058917642983943-.002208520674685-.138186928643336-.030597905840295-.173851623996597-.002886865559958-2.239188861352886,1.740176367643471-4.017910821286932.196639249356849-5.815119240043714-.864569171701987-5.780574191583582-3.41329746336487-11.598913471816559-6.769952567650762-17.267461524104874-10.36184214567038-2.127785227119602-1.348274248622147-4.184391088445409-2.289361288348118-6.711565202682323-1.965747541609744.173512528463107-1.427073952778301,1.44848652597102-1.608429217813864,2.42233441375538-2.001737514779961,5.553799412571607-2.243011822917651,11.313830194572802-3.736476220006807,17.205713770224975-4.828258945536618,6.751535860297736-1.251079273645701,13.509294644083639-1.127970020609609,20.281975813757526-.483719085267694,6.702362580377667.637561912213641,13.429002479962946,1.2058517774949,20.012679486693742,2.659370088663309,9.418110604248795,2.079295714698674,18.195958805243208,5.877799747305289,26.584721628752959,10.566147347362858,10.124892307934715,5.658648388138317,19.269812405687844,12.614226295664594,27.234981797797445,21.074757450895959,9.815287163999528,10.425718973865514,17.493770825089086,22.139614462194913,21.576726798208256,35.999349037260799,1.396616302523398,4.740839780543865,2.080724528652354,9.56767274723552,1.524122598531903,14.518851268681829-.026560488355244.236208489929595-.047170832200209.468319723840068.106286276220999.674691647181135l-.301716936997764,2.823356566993425c-.06799795367624-1.545741685788926-1.102208280090053-2.301921293551459-2.313869331026581-3.010386539164756-5.138673628060133-3.004632882059013-10.258570680804041-6.041845272807222-15.361703601989575-9.106465520473648-1.07690107146118-.646716671505601-1.7523520196155-.510227436601781-2.157106501708768.696992617929936-1.005958734005617.060635871353952-1.219073197471516-.765613557042343-1.523242520466738-1.424235121965467-2.963775842705218-6.417545882564809-7.936534681486592-9.96716626820853-14.986335492048966-10.670017697507319-1.213092091851649-.120943818478736-2.659272369395694.223399612654248-3.510058468546049-1.128358238442161-.231610819448179-.971630189284042-1.050333630440946-1.380359112159567-1.801141619442205-1.827135358881605-6.286071956184969-3.740620697874874-12.579273332614321-7.46926907240686-18.871092696936103-11.200247972507896-6.494972852071442-3.85142793842806-12.987337402260891-7.707283024514254-19.491570901867817-11.543003973676605-.656057887030329-.38689318213801-1.386144059410071-.64825508906597-2.081876969838049-.967871235469829-.329946143057896-.649224777676864.110947704730279-1.120066394287278.377077136909065-1.631738286204381,2.508427169810602-4.822883408050075,2.589147494616554-9.70724253363278-.314625473796696-14.293418247783848-2.84014146033951-4.485666596642659-7.245005820515871-6.408545063507518-12.519094564931947-6.253635892017883-1.099367647995678.032291832844749-2.226233425286409.245088735518038-3.15029050438352.972401903359241-1.980381417351964.892316204926829-4.122334790274181,1.4041865785548-6.004801276640137,2.534576744192236-1.082723743933457.081801963974613-1.870458997025708,1.009873219507426-2.970095269403828,1.044780681701013Z" fill="none" stroke="#c24d5d" stroke-linecap="round" stroke-linejoin="round" stroke-width="43.134372174739838"/>
        <path d="M37.275248273970647,96.806171267272475c.314721672373707-2.353333873124029.670880714646046-4.69733759599967,1.55780576449979-6.921903337590265,1.06639922856084-.865985286332034,2.007892309713498-.2388424251385,2.936844146064686.270952582975042,3.678879788649283,2.018926591703348,7.239312226960465,4.240560298666423,10.841745330280901,6.389356674560986,11.976479805303825,7.143767863049106,23.959777184696577,14.275971253950956,35.945921096154052,21.403506071012089,8.98834001785508,5.344887894079875,17.975208944697442,10.692685029703171,26.949066613564355,16.062130940288625,10.089493888417564,6.036990454056649,20.226616513311455,11.994255911229629,30.287842993124286,18.078628634802953.303458996291738.183496585717876.622175739143131.344201024214271.910881639503714.549029525071091,1.448013663368329,1.027443053577372,1.396224031788734,1.710753963658135-.173747009450381,2.5285461533731-.209378497042053.109062768264266-.355481769431208.309429912296764-.523905173959065.475124238659191-.470103343148367.238139520306504-.943238292564274.470497552229062-1.40981932898103.715331565985252-3.652846942752149,1.916840568628686-5.15524180898683,5.133793514472927-4.21471708809986,9.142581619873454.553546424174783,2.359448893939771,1.574091718744967,4.559250047101159,2.445635983445754,6.809871187810131,1.063184935939717,2.745479884613815,2.083692449226874,5.507531962382927,2.159142660120779,8.506227048872461-.680686869980491.346245626720702-1.261823003564132.036375821477122-1.824844914035566-.297734687514094-7.097293303288097-4.211696134538215-14.147785405613831-8.502203521475167-21.291018670013727-12.636521422169608-.206264234439004-.119373514880863-.37716153987094-.281307430439483-.532308390102116-.462081057543401-.111303194069478-.152395478298786-.183817742294195-.322181772568001-.223919117564947-.505563070664721-.223584222600039-.877008803447097-.067323756433325-1.754199072018309-.008814391690976-2.634340921080366.155821349586404-2.34388223161659-.371405279780447-4.559341984906496-1.308098733044972-6.690095190208012-1.428369769098936-2.390768798828503-3.156677457540354-4.49597593747967-5.624986351071129-5.897201940502782-4.4090819000794-1.895543221995467-8.803131264319745-2.385569172187388-13.227681246740758-.008124404972477-1.015016299495983.545408730711642-1.807200273657145,1.567201208508777-3.108060751501398,1.543119895919517-2.205663967542932-.746557177650175-4.025598162797905-2.190847815742018-6.006913848903423-3.343844088110927-2.445559604697337-1.423119530172698-4.922595743002603-2.794363130939018-7.291304933036372-4.346230869428837-.637827564227337-.417878015610768-1.331241348660114-.781979449740902-1.670269063215528-1.530072340090555-.160851909613484-1.220141577148752.790681770055016-1.748946552070265,1.534970197350049-2.362001116049214,1.702078625714421-1.401942600256007,3.060128772836833-3.040638802542162,3.813405281331143-5.138517331222829.948629022021123-2.404246299552142,1.022181511480085-4.924959395602855,1.002626474610224-7.457060301066122.551687899995159-3.39825577888314-1.022066004423323-6.090258196925788-3.115558480913023-8.442154091420889-4.130383898738728-4.640199559487883-11.532142834537808-5.750336103531481-16.93110661189894-2.676569544487393-1.226596005355532.698337579528015-2.331502046234164,1.591967112508428-3.009858630422968,2.892922650725268-.716056054940054,1.218446397914704-1.757048188923363,2.145719794857541-2.77532961101133,3.094505132841732-1.187656660426001.90031474326679-1.89212611001858,2.129073414444065-2.385599273986372,3.501632860557947-.213483942321545.593776598727345-.321376949592377,1.238553912839961-.818661380302729,1.696664577281808-1.341481913112148.981980851181106-2.557033647352.42537108727447-3.777558747409785-.291639451640549-5.244713890670027-3.081106453983011-10.458058083915603-6.215102433136053-15.679517000002306-9.335041840218764-1.362143141084744-.813909212201906-2.617353222076417-1.763166678000744-4.298911519932517-.896700083449105-1.131501597292299-1.103314111587679-.848335554484947-2.557373009837647-.770048950613273-3.848200980096408.174603533772824-2.87893396153504.034061155605741-5.778245217333279.502882640177631-8.638640739770381.029847489735403-1.213809400064747.468492007381428-2.404335911877752.209739823716518-3.635113856928001l.226287702749687-2.117517425245751c.566419888395103-1.117367481240763.200948194411467-2.412774373160573.677760871210921-3.547261269139199Z" fill="none" stroke="#c24d5d" stroke-linecap="round" stroke-linejoin="round" stroke-width="43.134372174739838"/>
        <path d="M115.568048201785132,199.814823752858501c-.026415869338962-.090284804929979-.036392946005435-.182353189855348-.029926995528513-.276193809013421,1.560947773752559-1.055488509258794,4.784459505415725-.71757776933373,6.112952107343517.640807344696441-.019884685501893.0945308143273-.047570200958944.186724727758701-.083055395394695.27657097005067l-5.99996971642031-.64118450573369Z" fill="none" stroke="#c24d5d" stroke-linecap="round" stroke-linejoin="round" stroke-width="43.134372174739838"/>
        <path d="M37.275248273970647,96.806171267272475c-.120964960096899,1.202470858522247.069908555962684,2.464524391189116-.677760871210921,3.547261269139199l.377146171247659-3.529195708742918c.098953610473473-.026832771066438.199158730334602-.03285641657385.300614699963262-.01806556039628Z" fill="none" stroke="#c24d5d" stroke-linecap="round" stroke-linejoin="round" stroke-width="43.134372174739838"/>
        <path d="M36.279516229409637,106.084028446503908c-.101628470882133-.005931293869253-.196783088089433-.033888629152898-.285462700645439-.083882776102655l.37714617124584-3.529195708743828c.505055021658336,1.217954120778813.037421052877107,2.41122146638736-.091683470600401,3.613078484846483Z" fill="none" stroke="#c24d5d" stroke-linecap="round" stroke-linejoin="round" stroke-width="43.134372174739838"/>
        <path d="M146.007703673752985,155.641542750425288c.060877246603923-.226228605635697.055607737895116-.593142531404737.192585802846224-.657556718080741,1.978196844431295-.930234847704924.816868514477392-1.337901884460734-.241010347592237-1.956191416382353-4.635924565340247-2.709490644854668-9.237496491168713-5.477739408390335-13.851771923980778-8.224262936280866-10.850655080748766-6.458549559729363-21.705472929561438-12.91010388415998-32.550792188405467-19.377603931477097-7.501176171754196-4.473239301575632-14.981065581463554-8.982210341347127-22.485399296256219-13.450138923820305-9.024325887978193-5.372889286551981-18.065142522053065-10.718074616391277-27.097409276331746-16.077629492578126-2.892705868995108-1.716470122490136-5.792612720006218-3.421362279340428-8.663530395329872-5.173646720316356-.779180182846176-.475576207152699-1.564853647641939-.814526040310739-2.47734961054266-.840247631304919,1.819980651463993-7.338101850742532,4.800064490200384-14.163809190124084,9.027902376165002-20.438436066737268,1.865404998350641.481799537039478,3.297763123266122,1.779593016958643,4.927820795868683,2.690675850396474,3.591647565795938,2.007461306618097,7.069164885828286,4.219499026475205,10.587138579274324,6.358120441723258,1.020658822999394.620466711208792,2.04239112968753,1.185116761318568,3.300881462897451.797801969112697.511763879088903.600631778523166.05284054616277,1.08584842565233-.177152327492877,1.611139663615177-3.074861731569399,7.022893772518728-.876767493207808,14.524285437886647,5.533987762059041,18.294210763459887,2.551028803318331,1.500158437281243,5.355369290778981,1.622414015221693,8.210803230771489,1.28877886387545,4.271411834626633-.125977331215836,7.789425069106073-1.830369530600365,10.617654317184133-5.021454690037899.434541458511376-.490300420735366.806779723328873-1.20949743467645,1.692387198865617-.894367105433048.16497488218738,1.001736837752105.734929482428925,1.651773424918247,1.614175793763934,2.17149087722828,8.024869221300833,4.743451951153475,16.033688760771838,9.514099437574259,24.041410968893615,14.28650329663742,5.98107006063583,3.564579057331684,11.949130263223196,7.150997671057667,17.93096524433895,10.714280475539454,9.377379567133175,5.585945051242561,18.766231257885011,11.15261497514166,28.141250493599728,16.742501690686368,7.50076876075218,4.472362430329667,14.987419767374377,8.968368680312778,22.482704301884951,13.449948963487259.708394612040138.42356728456798,1.432112387479719.821691460310831,2.151451196155904,1.226744194365892.803546538418232.452472044820752,1.513803377078148.96391808347289,1.370311120897895,2.048246264486806-6.029268312458953,1.463734845194267-12.1116284098498,2.225358073797906-18.315162266502739,1.384587499800546-1.770937752129612.182263604539912-3.495866370933072-.255109485900903-5.241316381139768-.403913028783791-4.38623464918237-.373951169871361-8.742870006914018-1.053323133593949-13.142732028201863-1.294351488117172-2.554091276902909-.031460495800275-5.089186324674301.130383563533542-7.579804603690718.744769334934972Z" fill="none" stroke="#c24d5d" stroke-linecap="round" stroke-linejoin="round" stroke-width="43.134372174739838"/>
        <path d="M112.598038430063752,53.492907996916983c1.792271792048268-1.383773367142567,3.926828979238053-1.941167251630759,6.057247376060332-2.508559527630496,5.561382753872749-1.818541936808288,11.740660042401942.609510004201184,15.303246556959493,6.013181163189984,3.329154638291584,5.049614675403063,3.227247202419676,11.60303607978949-.24841268797536,16.109084282109507-.145617525195121.188787788365516-.291625115658462.369298597552188-.533017035455487.437856926142558-3.265867368045292,4.297184896793624-7.524599992861113,6.512831680472118-12.991335704133235,6.195907743058342-11.118793879790246.007170221279921-17.265797585814653-11.679297912706716-12.536047169316589-20.888793317183627,1.125340332262567-2.19120904101419,2.651167585263465-4.171719853209652,4.948318663860846-5.358677269686268Z" fill="none" stroke="#c24d5d" stroke-linecap="round" stroke-linejoin="round" stroke-width="43.134372174739838"/>
        <path d="M92.554449833753097,94.570734670159254c-3.058781058203749,4.050951778899616-6.973092555261246,6.521850009246918-12.184772176102342,6.596676047980509-9.347506063282708.248609648887395-14.512620774579773-5.96367490036846-15.114688558720445-12.702802943045754-.455038716228955-5.093372089365403,1.092387548689658-9.534674123226978,5.394771545341428-12.706241734189462,1.276902084331596-.798936596198473,2.553806573647307-1.597870212076486,3.830708657989817-2.39680680827405,3.42569974910657-2.05966577892741,7.108146823975403-2.104353289288156,10.729400955184246-.91742371005239,7.451843413213282,2.442476962213732,11.200588939615045,9.582154590231767,9.307455600104731,17.303234255257848-.611416989764621,1.625233229704463-1.101470438794422,3.29985205441335-1.962876023797435,4.823364892323298Z" fill="none" stroke="#c24d5d" stroke-linecap="round" stroke-linejoin="round" stroke-width="43.134372174739838"/>
        <path d="M133.17710263965273,73.544470840728536c4.924607479197221-7.684856557509192,2.068794729435467-16.662282763428266-4.456684345195754-20.588095473122848-3.126971864799998-1.881228468789232-6.519204684649594-2.288537993851605-10.064966527779688-1.972101755610311,1.62575519334132-1.435063474748858,3.678865741369009-1.247078799027804,5.556253858481796-1.181075260169564,6.830149103245276.240131380928688,12.512336252804744,5.915231169548861,13.176793346063278,12.706857037188456.372401001022808,3.806621514389008-.848873551676661,7.046165295552782-2.876389948256474,10.112189225036673-.4456135680648.30653820835596-.714260037904751.869185676846428-1.335006383313157.922226226677594Z" fill="none" stroke="#c24d5d" stroke-linecap="round" stroke-linejoin="round" stroke-width="43.134372174739838"/>
        <path d="M112.598038430063752,53.492907996916983c-2.220179840844139,2.13280829143423-4.136423623062001,4.420489037673178-5.125608798682151,7.456395395861364-2.842014106116039,8.722428541593217,3.359689409435305,17.851849719198071,11.846188625806462,18.633451239878923.291651245246612.026853474610107.578707120503168.10364070873311.867522695152729.157386142489486-7.57572478687689,1.053751107653625-15.396442690993354-6.305300149211689-15.001698745974863-13.868941962853569.224677883035838-4.305137949032542,1.642260653237827-7.913970252678155,4.746139805376515-10.875916794951991.71048067965603-.817713189341703,1.545587596057885-1.414627283787013,2.667456418321308-1.502374020424213Z" fill="none" stroke="#c24d5d" stroke-linecap="round" stroke-linejoin="round" stroke-width="43.134372174739838"/>
        <path d="M70.649760644271737,75.758366040904548c-5.648029125628454,6.123773707033251-6.436734642140436,12.800366618161206-2.10343885356815,19.339924773132225,2.036086754267671,3.072749348766592,5.016491380149091,4.950345194772126,8.6595935061614,5.669745667079042,1.040723490144956.205508473193731,2.109327987613142.269846097527079,3.164454302535887.399143170193383-9.706149945042853,1.221879274180537-16.558155247786999-6.556409645598251-15.940891436181118-14.523142918124904.205503376544584-2.652309397498357.918820819295433-5.078025709431131,2.247410359355854-7.351575068989405,1.247802132722427-1.263941825805887,2.144360466953003-2.922815740334045,3.972872121696128-3.534095623290341Z" fill="none" stroke="#c24d5d" stroke-linecap="round" stroke-linejoin="round" stroke-width="43.134372174739838"/>
        <path d="M94.517325857550532,89.747369777835956c.774089666963846-5.451733128606975-.48681916080568-10.274966016128928-4.757311893527003-13.936456229957912-4.537309061839551-3.890259453126419-9.730891649323894-4.470577438712098-15.279515720449126-2.449370285625264-.200856625850065-.523379009426208.240547765355586-.575383342484201.537950170853946-.716597207546329,8.99195672816677-4.269729359078156,19.103800879656774,1.219646765302059,20.240054638967194,11.050381412864226.235001841547273,2.033212726643796.071340956106724,4.104263696072849-.741177195845012,6.052042310265279Z" fill="none" stroke="#c24d5d" stroke-linecap="round" stroke-linejoin="round" stroke-width="43.134372174739838"/>
        <path d="M121.651073313600136,200.179437288541521c-2.037608538028508-.213674195078056-4.075206305200481-.427347239132359-6.112881358047161-.640908716570266-9.630918226772337-1.608213228349996-18.398601387103554-5.535070670201094-26.85471581040656-10.1957893810104-11.658817400550106-6.425915687817906-22.436077677597495-14.032242978086288-31.190375581340049-24.214969153636048-11.221021986377309-13.05190933700942-18.292961046488927-28.007422203600072-20.63429351772902-45.121507616086092-.06350256981932-.464150061559849-.054363437617212-.938249715164602-.079122759618258-1.407671259839844.647640635626885-1.78369882208699.882472287807104-1.853810607812193,2.469656873634449-.899349145879569,6.048014234142101,3.637048932367179,12.114665287204843,7.243300806840125,18.145563466834574,10.90842260246518.857128009587541.520899540328173,1.660639078612803.452964688962311,2.534113416802938.292669824040786.761110445866507.554429513873401.638952043162135,1.355863206673348.510460963971127,2.098482899263217-1.185443008203947,6.851314467986413,4.105186978169513,13.75109719928605,11.796727444172575,15.019935355955568,1.677626230561145.276751673083709,3.528888957673189.139248441224481,5.108933731560683-.865321273433437,1.336284040808096-.56429008775558,2.766289825993226-.849229095785631,4.117386418856768-1.376587658085555.486523881498215-.189903259206403,1.008727245165574-.301178821158828,1.490229028648173.063424867359572,3.928242300640704,2.328189032010414,7.880893341993215,4.616764268175757,11.768256658780956,7.011314638020849,1.02347927433766.630441321327453,2.352540867370408.855782544040267,3.004554188950351,2.04222452758404.261235631925956,1.381849454159237-.87558972899933,1.89126724669768-1.635922616056632,2.639066935103983-1.687819184311593,1.07217009836495-2.698706979723283,2.701364362545064-3.203199338458944,4.531842156220591-2.806344339702264,10.182444237188975,3.012379928792143,17.088029751510476,11.763501184786946,18.370829447419965,1.665074761427604.244070492426545,3.415502544759875-.015493842702199,4.952402970551702-.928018378122943,3.382323888430619-1.095542850423953,6.594912770058727-2.428832235091249,8.804515388423169-5.459643230024085.809131665131645-1.109839766588266,1.367008698687641-2.311540665023131,1.894806900536423-3.550900374613775.239541271415874-.562473470492478.291294698099591-1.319862331592958,1.196439314795498-1.253254221697716,2.078575617870229.276004202563854,3.610899054490801,1.681117158472262,5.314567184290354,2.677492824583169,6.096909373076414,3.565705457349395,12.122670095224748,7.253034234227016,18.175299594311582,10.894345438731762.744002862667912,8.655521574943123-7.113300802402591,16.773153208614531-15.255778081767858,18.627694825712751-2.659996533060621.605827712703103-5.345604366244515.949768128952201-8.081125666483786.736174066538297Z" fill="none" stroke="#c24d5d" stroke-linecap="round" stroke-linejoin="round" stroke-width="43.134372174739838"/>
        <path d="M153.587508277443703,154.896773415490316c.498081432484469-.284343557363172,1.030342489497343-.178204415289656,1.552376345922312-.122036200027651,5.610813325780327.603725995249988,11.221079207401999,1.212676713052133,16.831579729550867,1.820247276715236-.401894665059444.042596349321684-.811377997164527.157529894569961-1.204739658060134.116811531643179-5.727664753319914-.592781904018921-11.453190870171966-1.206391910594903-17.179216417413045-1.815022608330764Z" fill="none" stroke="#c24d5d" stroke-linecap="round" stroke-linejoin="round" stroke-width="43.134372174739838"/>
        <path d="M120.204935134699554,156.990305617495324c1.824739782985489,3.115545104825287,2.083137802992496,6.439771264966112,1.319179800924758,9.900190382901201-1.939457630889592,1.513023998533754-4.368740571700982,1.725837942467479-6.604939500988621,2.398240031936439-5.766286010473777,1.733886306095883-11.529697542662689,3.483842321149496-17.346226251313055,5.055899748491356-.560972012595812.01914780601146-1.052409998395888-.189426190961967-1.429456780806504-.572932697796205-2.090822504082098-2.126615991459403-3.157840245590705-4.742189549324394-3.556424479689667-7.654588331966806-.064058872385431-.468033040444425.111592979626948-.925689137582594.419743129894414-1.308129202532655,1.783058303950384-1.265445586488568,3.957842129078927-1.447809417653843,5.96324417838332-2.067359180684434,6.186107690231438-1.911157320288112,12.427032805282579-3.642894487040394,18.630658961426889-5.498606712588298.859945458481889-.257252616342157,1.714529168059016-.389762296425033,2.604220942168467-.252714037760597Z" fill="none" stroke="#c24d5d" stroke-linecap="round" stroke-linejoin="round" stroke-width="43.134372174739838"/>
        <path d="M89.929533726834052,128.981774549144575c.014982599177529,2.384411822158654.162950950098093,4.784124441365748-.764024338759555,7.065052937248765-.13024260975908.320460793248458-.311909612890304.620023086296897-.469771792373649.929253456635706-.876156155429271.747644501949253-1.942431815989039,1.058675613717242-3.023318511479374,1.36819978897438-5.992357605704456,1.715914614643225-11.986313276547662,3.427083288773247-17.935429900691815,5.29488464559563-2.989275893207378-.539665731825153-6.342567340776441-4.832535078329784-5.87959426697671-7.519977139050752.532291942377924-.60383584680585,1.249612702644299-.852070735994857,1.996639868128113-1.072490535860197,7.594114052377336-2.240702194862934,15.210188000412018-4.406356120913188,22.796813101289445-6.672956661659555.933655962522607-.278939844384695,1.909522590427514-.752965833133203,2.907303345957189-.132209772910755.212561273887331.201941879226979.263227445879238.485450012285582.371382494906356.740243281026778Z" fill="none" stroke="#c24d5d" stroke-linecap="round" stroke-linejoin="round" stroke-width="43.134372174739838"/>
        <path d="M120.204935134699554,156.990305617495324c-2.024799075441479,1.144906157434889-4.313083042683502,1.516546088925679-6.499194174202785,2.171893382248527-6.275304586533821,1.881167809009639-12.570755446537078,3.695291619605996-18.863358467940998,5.518292749067768-.558536247121083.161804632563872-1.153988141018999.196200222937478-1.73229287358663.289770292314643-.673434733083923-.252881401338527-.800613275412616-.819892826890282-.770077030851098-1.432206990484701.115549111589644-2.316737104069034.505216641899096-4.555760162002116,1.957429056881665-6.467770685594587,6.736883970052077-2.143420855914883,13.471920456113367-4.30446833827591,20.383942773130912-5.84881356146434,2.475794137013509,1.315381021309804,4.272240109366976,3.281159476689936,5.523550716568934,5.76883481391269Z" fill="none" stroke="#c24d5d" stroke-linecap="round" stroke-linejoin="round" stroke-width="43.134372174739838"/>
        <path d="M97.56671392723365,174.121932391746668c1.21434776080423-1.451264211009402,3.072522699092588-1.330654016832341,4.651605845314407-1.817744740768831,5.833101069551049-1.799360526802047,11.705630393027604-3.47132672702719,17.569753395438966-5.169016976306011.555691933177513-.160877652149793,1.156280942566809-.166685047926876,1.736031409009229-.244577742019828-.008592220145147.117611220068284-.017193647960084.235308602141231-.025900070189891.353071016756076-1.641464166992591,5.927745243610843-5.648608273559148,9.348379917448256-11.481996853714008,10.833700971361395-3.976892984172082.915043650940788-7.754164507436144.613402212587971-11.173982460904881-1.842643804870022-.723601143274209-.51965856584502-1.453631471234985-1.044601134472032-1.275511264953821-2.112788724152779Z" fill="none" stroke="#c24d5d" stroke-linecap="round" stroke-linejoin="round" stroke-width="43.134372174739838"/>
        <path d="M62.980405006366709,123.519207822128919c.844103555467882-.945688548181352,1.68820556918763-1.891388154365814,2.532306431938196-2.837076990299465,3.414611287360458-3.678906471811388,7.636755738081774-5.019941901166021,12.542999065199183-4.245349356625411,1.912729609826783.301979393081638,3.778480009375926.809695473684769,5.39361539255151,1.978080728787063.578519613540266.418506325464477,1.17255984682015.797641839960306,1.274165580398403,1.587388870625546-.129718147170934,1.167624773473108-1.04768405611685,1.462593182915043-1.960551954824041,1.753079155650994-6.183251104412193,1.967584598614849-12.449410159171748,3.655089197744019-18.666922850097762,5.507204153990642-.893371617508819.26613152416212-1.88731144447047.507964664762767-2.48779396664213-.617033674140657-.18371430418847-1.322857100216424.873136780293862-2.101910666249751,1.372182301476641-3.126292887988711Z" fill="none" stroke="#c24d5d" stroke-linecap="round" stroke-linejoin="round" stroke-width="43.134372174739838"/>
        <path d="M67.685275688352704,143.346471247697991c.546785291046035-.814411226247103,1.473161558698848-.970054925139266,2.296685587069078-1.213999266337851,5.64797959176758-1.673010550624895,11.308114033252423-3.305245049406039,16.971201495589412-4.926630204535286.557119414417684-.159505061202253,1.160615330683868-.157038847652984,1.742580210111555-.229760258284841-.970690586635101,3.077477006292611-3.347609336726237,4.978555855021114-5.742972344854934,6.864199611332879-1.657544942099776.792289845179766-3.365547427316415,1.443926111631299-5.16108981510115,1.851588697867555-2.833293642897843.817918428727353-5.621418223852743.664541723517686-8.334481308149407-.471162252884824-.832638932659393-.348565730593691-1.824027894848768-.645403405542311-1.771923824664555-1.874236327157632Z" fill="none" stroke="#c24d5d" stroke-linecap="round" stroke-linejoin="round" stroke-width="43.134372174739838"/>
        <path d="M114.681384418130619,151.221470803582633c-.761875608932314,1.082329850913084-2.052224328288503,1.096942683558154-3.131055889463823,1.427960992052249-4.929027482421589,1.512368304942356-9.890379138732897,2.919757233881683-14.845029942644032,4.347829569287569-.672532172742649.193838191878967-1.366032834903308.362374589378305-2.081951391868643.205857320412179-.229072357644327-1.111647603544043.591371577475002-1.658459256461356,1.237469236042671-2.299098445086202.621587200310387-.670055878008498,1.24317016614259-1.340123101774225,1.864748897514801-2.010201671308096,3.909838426719944-3.137580018272274,8.275646663450971-4.343502509807877,13.237197614871548-3.222689042899219,1.346823987663811.304243759863311,2.486072903690001,1.019137378114465,3.718621475547479,1.55034127754152Z" fill="none" stroke="#c24d5d" stroke-linecap="round" stroke-linejoin="round" stroke-width="43.134372174739838"/>
        <path d="M67.685275688352704,143.346471247697991c3.03179523952349,2.232717351611427,6.489917513605178,2.629087461993549,10.106089410848654,2.345702531200004-4.083214535667139,2.100871308866772-10.776571069522106.434629574472638-14.209839276823914-3.237450879079915-3.673751078320493-3.929293751037221-4.653552038284033-8.438880457241794-3.652228496564931-13.554325932675056.531383592673592-2.068965753664088,1.278673413022261-4.01561039293756,3.051097321924317-5.38109221276045.010321859141186,1.135493141118786-1.115732393272992,1.891966149843938-1.019729428369828,3.056147162586058.370902414635566,1.383470913326164.259918615349306,2.791883154422976-.0323338949147,4.143211760605482-.406529769925328,1.879693809692981.798498508318517,3.690505920064425.108380202118497,5.548151229045288.953867782534871,3.100998223156239,2.887938876363478,5.42002427656189,5.648564161781906,7.079656341078589Z" fill="none" stroke="#c24d5d" stroke-linecap="round" stroke-linejoin="round" stroke-width="43.134372174739838"/>
        <path d="M84.480274745934366,120.080137816991737c-4.66128310581189-4.168208356714786-12.187076501488264-4.362155252796583-17.546983549340439-.451093906923234-.475905107987273.347274430591824-.946833659061667.70137152940697-1.420324839211389,1.052689326945256.908404087016606-1.95214509114885,2.695550805625317-2.954664635918562,4.48962883002423-3.761841051977171,7.434551986589213-3.344927053852189,17.421998264780996-.30989339738062,19.828604033555166,9.607974930037017.197592309257743.814307433724025.266755953407483,1.626992784294089.098315094635836,2.453273551350321-.109191433162778-.157986799848004-.218401126610843-.316618252667467-.327611971017177-.475238935238849-.329537314893969-.403091737473005-.752796028631565-.73664559154804-.900939321725673-1.271856009323528-.594149562179155-2.146478541572833-1.932174750952981-3.83983663599065-3.359219338124603-5.47498443612858-.429548856380279-.492183581032805-.797518448931442-1.004567565830257-.861468938795952-1.678923468741232Z" fill="none" stroke="#c24d5d" stroke-linecap="round" stroke-linejoin="round" stroke-width="43.134372174739838"/>
        <path d="M95.860816430196792,154.904020240248428c-.41224367340692.766425124489615-.82449158127929,1.532838903216543-1.237102245360802,2.29918123639618-1.363910859436146,2.421599395029261-1.74499495708551,5.034600760336616-1.513353774156712,7.767024143049639.318104919570033,3.618754894458107,1.691178352972202,6.723865092868436,4.456483419833603,9.151306710718927,2.842485265546202,2.893184053034929,6.356996566100861,4.063924464255251,10.339464273847625,4.025598652102417.70335615399199-.00677511588583,1.4064148389607-.045477448935344,2.10975611759568-.069596204257323-4.596101660023123,2.192020440614215-11.364808403921415.482149088529695-15.132533265474194-3.677524849685142-4.565434858981462-5.040324052049982-4.419866342506793-13.098886437826877-.669116619921624-17.97292293216924.45185036463954-.587181658373083.805484395803433-1.333976831267137,1.646402093636425-1.523066756155458Z" fill="none" stroke="#c24d5d" stroke-linecap="round" stroke-linejoin="round" stroke-width="43.134372174739838"/>
        <path d="M84.480274745934366,120.080137816991737c2.81782961250974,2.133599263937867,4.597762237854113,4.898016162408567,5.121652223862839,8.425788332253433-3.393462241319867.52721741762798-6.588003645023491,1.787653296159078-9.876324602777458,2.699908380383022-5.909494467159675,1.639442946250711-11.79396480727155,3.369043755906205-17.688890840448948,5.060980376991211-1.355732092932158-3.220032634202653-1.273577847594424-6.451308064418299-.075981291278367-9.691334255250695.376784618945749.497737762311772.871627948990863.289976279150324,1.302652304008006.163946012968154,6.746031590702842-1.9724106009553,13.489169636008228-3.954825409693512,20.224814731083825-5.962311104837681.367307078278827-.109473373412584.663031094958569-.459123701744829.992077475550104-.696977742507443Z" fill="none" stroke="#c24d5d" stroke-linecap="round" stroke-linejoin="round" stroke-width="43.134372174739838"/>
      </g>
      <g>
        <path d="M216.610086736078301,122.802960581911066l-.490290022622503,4.587954421366703c-.52592263432598,1.017468614392783-.49309881544832,2.174898011471669-.635579901383608,3.247215513130868-.821003225744789,6.178511746060394-4.311973452657185,10.903468500924646-8.317391697535641,15.274963091251266-3.965031134021046,4.327422738992027-8.86786025409674,7.359791320048316-14.426585061564765,9.290673409499504-.824766071940758.286480460556049-1.650047140177776.704594353472203-2.556069189460686.26014733863849-.486270563866128-.845483724184305-1.249896114426519-1.364985931579213-2.070647416443535-1.855756255874439-11.961043319237433-7.151960297756887-23.932733699917662-14.286147712326056-35.911313913595222-21.408565958342479-13.04459847592625-7.756288922425483-26.071315724722808-15.542589635610966-39.118497344683419-23.29458488749151-6.243924556629281-3.709825779397761-12.508391894596571-7.386498267735988-18.710040482706972-11.167857448057475-1.265089796361281-.771364436986914-2.293111082115502-1.67802101563575-2.338878649938124-3.300384889406814.390858486009165-1.723541701288013,1.267682919042272-3.274208555802943,1.760714894855482-4.961510172083763,1.971066414571396-4.602391566540973,1.053822450447115-8.790957597329907-1.96993883392679-12.57136232058383-3.682093742027064-4.603472395693643-9.913580381849897-6.298616389972267-15.137828188544518-4.276192605459073-.675474960618885.26148940549956-1.287706017466917.584274389844722-1.778749720246196,1.118599361029737-1.288057978374127.969590849386805-2.633925150603318,1.852617222188201-4.053239209133608,2.622952661987256-1.825293222396795.597473491206074-2.634277547294914,2.456065466766631-4.193679030475323,3.384083040558835-1.001238545199158.423362553511652-1.982018028116727.315839504582073-2.883366062429559-.228565550483836-5.141607126743111-3.105474702480933-10.373546762773913-6.059905569632974-15.463981557573788-9.250600767642027-.25059556830638-.157071209366222-.46061699902566-.366138184162082-.624017333902884-.617014957096217-.384793946119316-.904574111617876.112142555792161-1.614198019095056.573451121135804-2.288841162095196,7.565724480746212-11.064570312389151,17.289466463642384-19.633291811172967,29.437984681475427-25.384810171220124.744223217943727-.352342550422691,1.493126538111028-.727378048752144,2.354679692545687-.712074570884397,3.802793539145569-.877562115308137,6.458804542799044,1.590796516790761,9.342136428374943,3.279498821670131,5.386512824146848,3.154755120271147,10.732679014796304,6.379045298192977,16.100472076919687,9.566307022442743,1.034946379977555.614526224548172,2.016749919919675,1.198851298048794,3.275462945928666.523152048582233.412220844773401-.221287255218158.930344521020743-.094786619991282,1.282612623934256.320327100539544.227384020752652.802969053386732-.453350082525503,1.174479243079986-.845683030853252,1.629352892267889-5.107859021201875,5.921999843531012-4.35835345727719,16.292611279909579,3.299662961477225,20.866963116330226,2.331292785038386,1.392547881077007,4.837933552276809,2.099591263581715,7.582040165338185,1.600916441437221,4.840683864054881.24830000928614,8.786545234286677-1.540269611452459,11.908818773144958-5.217892133457099.265340101947004-.312535089194171.573291338252602-.585974068195355.923430907385409-.808205255489156.580711662401882-.238982803944964,1.017222996159035-.77197849271306,1.683355685454444-.840435734682615,1.567598967880258.02207151179482,2.789212864079673.932112368487651,4.038802333254353,1.680575813192263,12.158227737159905,7.28239236985246,24.369279723850923,14.47609698449196,36.518873396415074,21.772716462038261.962745717946746.578199413801485,2.218435186900024,1.101277126814239,1.741772397355817,2.678726710900264-.668117222003275.854233811774975-1.690046757379605.747792581395515-2.594267553020472.924333330213813-6.760261299585181,1.319833233963436-11.496535938345914,5.119831831857482-13.720758077806749,11.65781182921819-2.278652604985837,6.69796942409539-1.259639176782002,12.957623648983827,3.42083742923387,18.39406516449435,4.691244878460566,5.448932133386734,13.555771871007892,7.52599694379569,20.846932717862728,5.027745452618547,6.766259310905298-2.318402605251322,11.30463797610355-8.446439506796196,11.843546729163791-15.938272691006205.170617944988408-2.371941525063448-.459914320068492-4.67869699610128-.484465235596872-7.033156383938149.822265026326932-1.696873156989568,1.509934111139955-1.971855195211901,3.188238882881706-1.233162768965485,1.841500055044889.810511319562465,3.459486542951709,2.014451805330282,5.184344072538806,3.027639800516226,3.198683674881977,1.878906901529263,6.361530450631108,3.821898056939972,9.585590545186278,5.656621370158973,1.601165074078381.911178788306643,2.714293854725838,1.996799646582076,2.431506051581891,3.995904470176356Z" fill="#f8a797" stroke-width="0"/>
        <path d="M109.930258679960389,54.995198444998096c-.058917642983943-.002208520674685-.138186928643336-.030597905840295-.173851623996597-.002886865559958-2.239188861352886,1.740176367643471-4.017910821286932.196639249356849-5.815119240043714-.864569171701987-5.780574191583582-3.41329746336487-11.598913471816559-6.769952567650762-17.267461524104874-10.36184214567038-2.127785227119602-1.348274248622147-4.184391088445409-2.289361288348118-6.711565202682323-1.965747541609744.173512528463107-1.427073952778301,1.44848652597102-1.608429217813864,2.42233441375538-2.001737514779961,5.553799412571607-2.243011822917651,11.313830194572802-3.736476220006807,17.205713770224975-4.828258945536618,6.751535860297736-1.251079273645701,13.509294644083639-1.127970020609609,20.281975813757526-.483719085267694,6.702362580377667.637561912213641,13.429002479962946,1.2058517774949,20.012679486693742,2.659370088663309,9.418110604248795,2.079295714698674,18.195958805243208,5.877799747305289,26.584721628752959,10.566147347362858,10.124892307934715,5.658648388138317,19.269812405687844,12.614226295664594,27.234981797797445,21.074757450895959,9.815287163999528,10.425718973865514,17.493770825089086,22.139614462194913,21.576726798208256,35.999349037260799,1.396616302523398,4.740839780543865,2.080724528652354,9.56767274723552,1.524122598531903,14.518851268681829-.026560488355244.236208489929595-.047170832200209.468319723840068.106286276220999.674691647181135l-.301716936997764,2.823356566993425c-.06799795367624-1.545741685788926-1.102208280090053-2.301921293551459-2.313869331026581-3.010386539164756-5.138673628060133-3.004632882059013-10.258570680804041-6.041845272807222-15.361703601989575-9.106465520473648-1.07690107146118-.646716671505601-1.7523520196155-.510227436601781-2.157106501708768.696992617929936-1.005958734005617.060635871353952-1.219073197471516-.765613557042343-1.523242520466738-1.424235121965467-2.963775842705218-6.417545882564809-7.936534681486592-9.96716626820853-14.986335492048966-10.670017697507319-1.213092091851649-.120943818478736-2.659272369395694.223399612654248-3.510058468546049-1.128358238442161-.231610819448179-.971630189284042-1.050333630440946-1.380359112159567-1.801141619442205-1.827135358881605-6.286071956184969-3.740620697874874-12.579273332614321-7.46926907240686-18.871092696936103-11.200247972507896-6.494972852071442-3.85142793842806-12.987337402260891-7.707283024514254-19.491570901867817-11.543003973676605-.656057887030329-.38689318213801-1.386144059410071-.64825508906597-2.081876969838049-.967871235469829-.329946143057896-.649224777676864.110947704730279-1.120066394287278.377077136909065-1.631738286204381,2.508427169810602-4.822883408050075,2.589147494616554-9.70724253363278-.314625473796696-14.293418247783848-2.84014146033951-4.485666596642659-7.245005820515871-6.408545063507518-12.519094564931947-6.253635892017883-1.099367647995678.032291832844749-2.226233425286409.245088735518038-3.15029050438352.972401903359241-1.980381417351964.892316204926829-4.122334790274181,1.4041865785548-6.004801276640137,2.534576744192236-1.082723743933457.081801963974613-1.870458997025708,1.009873219507426-2.970095269403828,1.044780681701013Z" fill="#f9b5a1" stroke-width="0"/>
        <path d="M37.275248273970647,96.806171267272475c.314721672373707-2.353333873124029.670880714646046-4.69733759599967,1.55780576449979-6.921903337590265,1.06639922856084-.865985286332034,2.007892309713498-.2388424251385,2.936844146064686.270952582975042,3.678879788649283,2.018926591703348,7.239312226960465,4.240560298666423,10.841745330280901,6.389356674560986,11.976479805303825,7.143767863049106,23.959777184696577,14.275971253950956,35.945921096154052,21.403506071012089,8.98834001785508,5.344887894079875,17.975208944697442,10.692685029703171,26.949066613564355,16.062130940288625,10.089493888417564,6.036990454056649,20.226616513311455,11.994255911229629,30.287842993124286,18.078628634802953.303458996291738.183496585717876.622175739143131.344201024214271.910881639503714.549029525071091,1.448013663368329,1.027443053577372,1.396224031788734,1.710753963658135-.173747009450381,2.5285461533731-.209378497042053.109062768264266-.355481769431208.309429912296764-.523905173959065.475124238659191-.470103343148367.238139520306504-.943238292564274.470497552229062-1.40981932898103.715331565985252-3.652846942752149,1.916840568628686-5.15524180898683,5.133793514472927-4.21471708809986,9.142581619873454.553546424174783,2.359448893939771,1.574091718744967,4.559250047101159,2.445635983445754,6.809871187810131,1.063184935939717,2.745479884613815,2.083692449226874,5.507531962382927,2.159142660120779,8.506227048872461-.680686869980491.346245626720702-1.261823003564132.036375821477122-1.824844914035566-.297734687514094-7.097293303288097-4.211696134538215-14.147785405613831-8.502203521475167-21.291018670013727-12.636521422169608-.206264234439004-.119373514880863-.37716153987094-.281307430439483-.532308390102116-.462081057543401-.111303194069478-.152395478298786-.183817742294195-.322181772568001-.223919117564947-.505563070664721-.223584222600039-.877008803447097-.067323756433325-1.754199072018309-.008814391690976-2.634340921080366.155821349586404-2.34388223161659-.371405279780447-4.559341984906496-1.308098733044972-6.690095190208012-1.428369769098936-2.390768798828503-3.156677457540354-4.49597593747967-5.624986351071129-5.897201940502782-4.4090819000794-1.895543221995467-8.803131264319745-2.385569172187388-13.227681246740758-.008124404972477-1.015016299495983.545408730711642-1.807200273657145,1.567201208508777-3.108060751501398,1.543119895919517-2.205663967542932-.746557177650175-4.025598162797905-2.190847815742018-6.006913848903423-3.343844088110927-2.445559604697337-1.423119530172698-4.922595743002603-2.794363130939018-7.291304933036372-4.346230869428837-.637827564227337-.417878015610768-1.331241348660114-.781979449740902-1.670269063215528-1.530072340090555-.160851909613484-1.220141577148752.790681770055016-1.748946552070265,1.534970197350049-2.362001116049214,1.702078625714421-1.401942600256007,3.060128772836833-3.040638802542162,3.813405281331143-5.138517331222829.948629022021123-2.404246299552142,1.022181511480085-4.924959395602855,1.002626474610224-7.457060301066122.551687899995159-3.39825577888314-1.022066004423323-6.090258196925788-3.115558480913023-8.442154091420889-4.130383898738728-4.640199559487883-11.532142834537808-5.750336103531481-16.93110661189894-2.676569544487393-1.226596005355532.698337579528015-2.331502046234164,1.591967112508428-3.009858630422968,2.892922650725268-.716056054940054,1.218446397914704-1.757048188923363,2.145719794857541-2.77532961101133,3.094505132841732-1.187656660426001.90031474326679-1.89212611001858,2.129073414444065-2.385599273986372,3.501632860557947-.213483942321545.593776598727345-.321376949592377,1.238553912839961-.818661380302729,1.696664577281808-1.341481913112148.981980851181106-2.557033647352.42537108727447-3.777558747409785-.291639451640549-5.244713890670027-3.081106453983011-10.458058083915603-6.215102433136053-15.679517000002306-9.335041840218764-1.362143141084744-.813909212201906-2.617353222076417-1.763166678000744-4.298911519932517-.896700083449105-1.131501597292299-1.103314111587679-.848335554484947-2.557373009837647-.770048950613273-3.848200980096408.174603533772824-2.87893396153504.034061155605741-5.778245217333279.502882640177631-8.638640739770381.029847489735403-1.213809400064747.468492007381428-2.404335911877752.209739823716518-3.635113856928001l.226287702749687-2.117517425245751c.566419888395103-1.117367481240763.200948194411467-2.412774373160573.677760871210921-3.547261269139199Z" fill="#f6998d" stroke-width="0"/>
        <path d="M115.568048201785132,199.814823752858501c-.026415869338962-.090284804929979-.036392946005435-.182353189855348-.029926995528513-.276193809013421,1.560947773752559-1.055488509258794,4.784459505415725-.71757776933373,6.112952107343517.640807344696441-.019884685501893.0945308143273-.047570200958944.186724727758701-.083055395394695.27657097005067l-5.99996971642031-.64118450573369Z" fill="#fabfb5" stroke-width="0"/>
        <path d="M37.275248273970647,96.806171267272475c-.120964960096899,1.202470858522247.069908555962684,2.464524391189116-.677760871210921,3.547261269139199l.377146171247659-3.529195708742918c.098953610473473-.026832771066438.199158730334602-.03285641657385.300614699963262-.01806556039628Z" fill="#fbc7bc" stroke-width="0"/>
        <path d="M36.279516229409637,106.084028446503908c-.101628470882133-.005931293869253-.196783088089433-.033888629152898-.285462700645439-.083882776102655l.37714617124584-3.529195708743828c.505055021658336,1.217954120778813.037421052877107,2.41122146638736-.091683470600401,3.613078484846483Z" fill="#fbc7bc" stroke-width="0"/>
        <path d="M146.007703673752985,155.641542750425288c.060877246603923-.226228605635697.055607737895116-.593142531404737.192585802846224-.657556718080741,1.978196844431295-.930234847704924.816868514477392-1.337901884460734-.241010347592237-1.956191416382353-4.635924565340247-2.709490644854668-9.237496491168713-5.477739408390335-13.851771923980778-8.224262936280866-10.850655080748766-6.458549559729363-21.705472929561438-12.91010388415998-32.550792188405467-19.377603931477097-7.501176171754196-4.473239301575632-14.981065581463554-8.982210341347127-22.485399296256219-13.450138923820305-9.024325887978193-5.372889286551981-18.065142522053065-10.718074616391277-27.097409276331746-16.077629492578126-2.892705868995108-1.716470122490136-5.792612720006218-3.421362279340428-8.663530395329872-5.173646720316356-.779180182846176-.475576207152699-1.564853647641939-.814526040310739-2.47734961054266-.840247631304919,1.819980651463993-7.338101850742532,4.800064490200384-14.163809190124084,9.027902376165002-20.438436066737268,1.865404998350641.481799537039478,3.297763123266122,1.779593016958643,4.927820795868683,2.690675850396474,3.591647565795938,2.007461306618097,7.069164885828286,4.219499026475205,10.587138579274324,6.358120441723258,1.020658822999394.620466711208792,2.04239112968753,1.185116761318568,3.300881462897451.797801969112697.511763879088903.600631778523166.05284054616277,1.08584842565233-.177152327492877,1.611139663615177-3.074861731569399,7.022893772518728-.876767493207808,14.524285437886647,5.533987762059041,18.294210763459887,2.551028803318331,1.500158437281243,5.355369290778981,1.622414015221693,8.210803230771489,1.28877886387545,4.271411834626633-.125977331215836,7.789425069106073-1.830369530600365,10.617654317184133-5.021454690037899.434541458511376-.490300420735366.806779723328873-1.20949743467645,1.692387198865617-.894367105433048.16497488218738,1.001736837752105.734929482428925,1.651773424918247,1.614175793763934,2.17149087722828,8.024869221300833,4.743451951153475,16.033688760771838,9.514099437574259,24.041410968893615,14.28650329663742,5.98107006063583,3.564579057331684,11.949130263223196,7.150997671057667,17.93096524433895,10.714280475539454,9.377379567133175,5.585945051242561,18.766231257885011,11.15261497514166,28.141250493599728,16.742501690686368,7.50076876075218,4.472362430329667,14.987419767374377,8.968368680312778,22.482704301884951,13.449948963487259.708394612040138.42356728456798,1.432112387479719.821691460310831,2.151451196155904,1.226744194365892.803546538418232.452472044820752,1.513803377078148.96391808347289,1.370311120897895,2.048246264486806-6.029268312458953,1.463734845194267-12.1116284098498,2.225358073797906-18.315162266502739,1.384587499800546-1.770937752129612.182263604539912-3.495866370933072-.255109485900903-5.241316381139768-.403913028783791-4.38623464918237-.373951169871361-8.742870006914018-1.053323133593949-13.142732028201863-1.294351488117172-2.554091276902909-.031460495800275-5.089186324674301.130383563533542-7.579804603690718.744769334934972Z" fill="#f69a8d" stroke-width="0"/>
        <path d="M112.598038430063752,53.492907996916983c1.792271792048268-1.383773367142567,3.926828979238053-1.941167251630759,6.057247376060332-2.508559527630496,5.561382753872749-1.818541936808288,11.740660042401942.609510004201184,15.303246556959493,6.013181163189984,3.329154638291584,5.049614675403063,3.227247202419676,11.60303607978949-.24841268797536,16.109084282109507-.145617525195121.188787788365516-.291625115658462.369298597552188-.533017035455487.437856926142558-3.265867368045292,4.297184896793624-7.524599992861113,6.512831680472118-12.991335704133235,6.195907743058342-11.118793879790246.007170221279921-17.265797585814653-11.679297912706716-12.536047169316589-20.888793317183627,1.125340332262567-2.19120904101419,2.651167585263465-4.171719853209652,4.948318663860846-5.358677269686268Z" fill="url(#C4)" stroke-width="0"/>
        <path d="M92.554449833753097,94.570734670159254c-3.058781058203749,4.050951778899616-6.973092555261246,6.521850009246918-12.184772176102342,6.596676047980509-9.347506063282708.248609648887395-14.512620774579773-5.96367490036846-15.114688558720445-12.702802943045754-.455038716228955-5.093372089365403,1.092387548689658-9.534674123226978,5.394771545341428-12.706241734189462,1.276902084331596-.798936596198473,2.553806573647307-1.597870212076486,3.830708657989817-2.39680680827405,3.42569974910657-2.05966577892741,7.108146823975403-2.104353289288156,10.729400955184246-.91742371005239,7.451843413213282,2.442476962213732,11.200588939615045,9.582154590231767,9.307455600104731,17.303234255257848-.611416989764621,1.625233229704463-1.101470438794422,3.29985205441335-1.962876023797435,4.823364892323298Z" fill="url(#AC78)" stroke-width="0"/>
        <path d="M133.17710263965273,73.544470840728536c4.924607479197221-7.684856557509192,2.068794729435467-16.662282763428266-4.456684345195754-20.588095473122848-3.126971864799998-1.881228468789232-6.519204684649594-2.288537993851605-10.064966527779688-1.972101755610311,1.62575519334132-1.435063474748858,3.678865741369009-1.247078799027804,5.556253858481796-1.181075260169564,6.830149103245276.240131380928688,12.512336252804744,5.915231169548861,13.176793346063278,12.706857037188456.372401001022808,3.806621514389008-.848873551676661,7.046165295552782-2.876389948256474,10.112189225036673-.4456135680648.30653820835596-.714260037904751.869185676846428-1.335006383313157.922226226677594Z" fill="#ecb78c" stroke-width="0"/>
        <path d="M112.598038430063752,53.492907996916983c-2.220179840844139,2.13280829143423-4.136423623062001,4.420489037673178-5.125608798682151,7.456395395861364-2.842014106116039,8.722428541593217,3.359689409435305,17.851849719198071,11.846188625806462,18.633451239878923.291651245246612.026853474610107.578707120503168.10364070873311.867522695152729.157386142489486-7.57572478687689,1.053751107653625-15.396442690993354-6.305300149211689-15.001698745974863-13.868941962853569.224677883035838-4.305137949032542,1.642260653237827-7.913970252678155,4.746139805376515-10.875916794951991.71048067965603-.817713189341703,1.545587596057885-1.414627283787013,2.667456418321308-1.502374020424213Z" fill="#cc778e" stroke-width="0"/>
        <path d="M70.649760644271737,75.758366040904548c-5.648029125628454,6.123773707033251-6.436734642140436,12.800366618161206-2.10343885356815,19.339924773132225,2.036086754267671,3.072749348766592,5.016491380149091,4.950345194772126,8.6595935061614,5.669745667079042,1.040723490144956.205508473193731,2.109327987613142.269846097527079,3.164454302535887.399143170193383-9.706149945042853,1.221879274180537-16.558155247786999-6.556409645598251-15.940891436181118-14.523142918124904.205503376544584-2.652309397498357.918820819295433-5.078025709431131,2.247410359355854-7.351575068989405,1.247802132722427-1.263941825805887,2.144360466953003-2.922815740334045,3.972872121696128-3.534095623290341Z" fill="#cd768d" stroke-width="0"/>
        <path d="M94.517325857550532,89.747369777835956c.774089666963846-5.451733128606975-.48681916080568-10.274966016128928-4.757311893527003-13.936456229957912-4.537309061839551-3.890259453126419-9.730891649323894-4.470577438712098-15.279515720449126-2.449370285625264-.200856625850065-.523379009426208.240547765355586-.575383342484201.537950170853946-.716597207546329,8.99195672816677-4.269729359078156,19.103800879656774,1.219646765302059,20.240054638967194,11.050381412864226.235001841547273,2.033212726643796.071340956106724,4.104263696072849-.741177195845012,6.052042310265279Z" fill="#edb78b" stroke-width="0"/>
        <path d="M121.651073313600136,200.179437288541521c-2.037608538028508-.213674195078056-4.075206305200481-.427347239132359-6.112881358047161-.640908716570266-9.630918226772337-1.608213228349996-18.398601387103554-5.535070670201094-26.85471581040656-10.1957893810104-11.658817400550106-6.425915687817906-22.436077677597495-14.032242978086288-31.190375581340049-24.214969153636048-11.221021986377309-13.05190933700942-18.292961046488927-28.007422203600072-20.63429351772902-45.121507616086092-.06350256981932-.464150061559849-.054363437617212-.938249715164602-.079122759618258-1.407671259839844.647640635626885-1.78369882208699.882472287807104-1.853810607812193,2.469656873634449-.899349145879569,6.048014234142101,3.637048932367179,12.114665287204843,7.243300806840125,18.145563466834574,10.90842260246518.857128009587541.520899540328173,1.660639078612803.452964688962311,2.534113416802938.292669824040786.761110445866507.554429513873401.638952043162135,1.355863206673348.510460963971127,2.098482899263217-1.185443008203947,6.851314467986413,4.105186978169513,13.75109719928605,11.796727444172575,15.019935355955568,1.677626230561145.276751673083709,3.528888957673189.139248441224481,5.108933731560683-.865321273433437,1.336284040808096-.56429008775558,2.766289825993226-.849229095785631,4.117386418856768-1.376587658085555.486523881498215-.189903259206403,1.008727245165574-.301178821158828,1.490229028648173.063424867359572,3.928242300640704,2.328189032010414,7.880893341993215,4.616764268175757,11.768256658780956,7.011314638020849,1.02347927433766.630441321327453,2.352540867370408.855782544040267,3.004554188950351,2.04222452758404.261235631925956,1.381849454159237-.87558972899933,1.89126724669768-1.635922616056632,2.639066935103983-1.687819184311593,1.07217009836495-2.698706979723283,2.701364362545064-3.203199338458944,4.531842156220591-2.806344339702264,10.182444237188975,3.012379928792143,17.088029751510476,11.763501184786946,18.370829447419965,1.665074761427604.244070492426545,3.415502544759875-.015493842702199,4.952402970551702-.928018378122943,3.382323888430619-1.095542850423953,6.594912770058727-2.428832235091249,8.804515388423169-5.459643230024085.809131665131645-1.109839766588266,1.367008698687641-2.311540665023131,1.894806900536423-3.550900374613775.239541271415874-.562473470492478.291294698099591-1.319862331592958,1.196439314795498-1.253254221697716,2.078575617870229.276004202563854,3.610899054490801,1.681117158472262,5.314567184290354,2.677492824583169,6.096909373076414,3.565705457349395,12.122670095224748,7.253034234227016,18.175299594311582,10.894345438731762.744002862667912,8.655521574943123-7.113300802402591,16.773153208614531-15.255778081767858,18.627694825712751-2.659996533060621.605827712703103-5.345604366244515.949768128952201-8.081125666483786.736174066538297Z" fill="#f58b82" stroke-width="0"/>
        <path d="M153.587508277443703,154.896773415490316c.498081432484469-.284343557363172,1.030342489497343-.178204415289656,1.552376345922312-.122036200027651,5.610813325780327.603725995249988,11.221079207401999,1.212676713052133,16.831579729550867,1.820247276715236-.401894665059444.042596349321684-.811377997164527.157529894569961-1.204739658060134.116811531643179-5.727664753319914-.592781904018921-11.453190870171966-1.206391910594903-17.179216417413045-1.815022608330764Z" fill="#f8a797" stroke-width="0"/>
        <path d="M120.204935134699554,156.990305617495324c1.824739782985489,3.115545104825287,2.083137802992496,6.439771264966112,1.319179800924758,9.900190382901201-1.939457630889592,1.513023998533754-4.368740571700982,1.725837942467479-6.604939500988621,2.398240031936439-5.766286010473777,1.733886306095883-11.529697542662689,3.483842321149496-17.346226251313055,5.055899748491356-.560972012595812.01914780601146-1.052409998395888-.189426190961967-1.429456780806504-.572932697796205-2.090822504082098-2.126615991459403-3.157840245590705-4.742189549324394-3.556424479689667-7.654588331966806-.064058872385431-.468033040444425.111592979626948-.925689137582594.419743129894414-1.308129202532655,1.783058303950384-1.265445586488568,3.957842129078927-1.447809417653843,5.96324417838332-2.067359180684434,6.186107690231438-1.911157320288112,12.427032805282579-3.642894487040394,18.630658961426889-5.498606712588298.859945458481889-.257252616342157,1.714529168059016-.389762296425033,2.604220942168467-.252714037760597Z" fill="#5893ce" stroke-width="0"/>
        <path d="M89.929533726834052,128.981774549144575c.014982599177529,2.384411822158654.162950950098093,4.784124441365748-.764024338759555,7.065052937248765-.13024260975908.320460793248458-.311909612890304.620023086296897-.469771792373649.929253456635706-.876156155429271.747644501949253-1.942431815989039,1.058675613717242-3.023318511479374,1.36819978897438-5.992357605704456,1.715914614643225-11.986313276547662,3.427083288773247-17.935429900691815,5.29488464559563-2.989275893207378-.539665731825153-6.342567340776441-4.832535078329784-5.87959426697671-7.519977139050752.532291942377924-.60383584680585,1.249612702644299-.852070735994857,1.996639868128113-1.072490535860197,7.594114052377336-2.240702194862934,15.210188000412018-4.406356120913188,22.796813101289445-6.672956661659555.933655962522607-.278939844384695,1.909522590427514-.752965833133203,2.907303345957189-.132209772910755.212561273887331.201941879226979.263227445879238.485450012285582.371382494906356.740243281026778Z" fill="#59b2c8" stroke-width="0"/>
        <path d="M120.204935134699554,156.990305617495324c-2.024799075441479,1.144906157434889-4.313083042683502,1.516546088925679-6.499194174202785,2.171893382248527-6.275304586533821,1.881167809009639-12.570755446537078,3.695291619605996-18.863358467940998,5.518292749067768-.558536247121083.161804632563872-1.153988141018999.196200222937478-1.73229287358663.289770292314643-.673434733083923-.252881401338527-.800613275412616-.819892826890282-.770077030851098-1.432206990484701.115549111589644-2.316737104069034.505216641899096-4.555760162002116,1.957429056881665-6.467770685594587,6.736883970052077-2.143420855914883,13.471920456113367-4.30446833827591,20.383942773130912-5.84881356146434,2.475794137013509,1.315381021309804,4.272240109366976,3.281159476689936,5.523550716568934,5.76883481391269Z" fill="#589fd6" stroke-width="0"/>
        <path d="M97.56671392723365,174.121932391746668c1.21434776080423-1.451264211009402,3.072522699092588-1.330654016832341,4.651605845314407-1.817744740768831,5.833101069551049-1.799360526802047,11.705630393027604-3.47132672702719,17.569753395438966-5.169016976306011.555691933177513-.160877652149793,1.156280942566809-.166685047926876,1.736031409009229-.244577742019828-.008592220145147.117611220068284-.017193647960084.235308602141231-.025900070189891.353071016756076-1.641464166992591,5.927745243610843-5.648608273559148,9.348379917448256-11.481996853714008,10.833700971361395-3.976892984172082.915043650940788-7.754164507436144.613402212587971-11.173982460904881-1.842643804870022-.723601143274209-.51965856584502-1.453631471234985-1.044601134472032-1.275511264953821-2.112788724152779Z" fill="#5983c3" stroke-width="0"/>
        <path d="M62.980405006366709,123.519207822128919c.844103555467882-.945688548181352,1.68820556918763-1.891388154365814,2.532306431938196-2.837076990299465,3.414611287360458-3.678906471811388,7.636755738081774-5.019941901166021,12.542999065199183-4.245349356625411,1.912729609826783.301979393081638,3.778480009375926.809695473684769,5.39361539255151,1.978080728787063.578519613540266.418506325464477,1.17255984682015.797641839960306,1.274165580398403,1.587388870625546-.129718147170934,1.167624773473108-1.04768405611685,1.462593182915043-1.960551954824041,1.753079155650994-6.183251104412193,1.967584598614849-12.449410159171748,3.655089197744019-18.666922850097762,5.507204153990642-.893371617508819.26613152416212-1.88731144447047.507964664762767-2.48779396664213-.617033674140657-.18371430418847-1.322857100216424.873136780293862-2.101910666249751,1.372182301476641-3.126292887988711Z" fill="#5dbda9" stroke-width="0"/>
        <path d="M67.685275688352704,143.346471247697991c.546785291046035-.814411226247103,1.473161558698848-.970054925139266,2.296685587069078-1.213999266337851,5.64797959176758-1.673010550624895,11.308114033252423-3.305245049406039,16.971201495589412-4.926630204535286.557119414417684-.159505061202253,1.160615330683868-.157038847652984,1.742580210111555-.229760258284841-.970690586635101,3.077477006292611-3.347609336726237,4.978555855021114-5.742972344854934,6.864199611332879-1.657544942099776.792289845179766-3.365547427316415,1.443926111631299-5.16108981510115,1.851588697867555-2.833293642897843.817918428727353-5.621418223852743.664541723517686-8.334481308149407-.471162252884824-.832638932659393-.348565730593691-1.824027894848768-.645403405542311-1.771923824664555-1.874236327157632Z" fill="#58add3" stroke-width="0"/>
        <path d="M114.681384418130619,151.221470803582633c-.761875608932314,1.082329850913084-2.052224328288503,1.096942683558154-3.131055889463823,1.427960992052249-4.929027482421589,1.512368304942356-9.890379138732897,2.919757233881683-14.845029942644032,4.347829569287569-.672532172742649.193838191878967-1.366032834903308.362374589378305-2.081951391868643.205857320412179-.229072357644327-1.111647603544043.591371577475002-1.658459256461356,1.237469236042671-2.299098445086202.621587200310387-.670055878008498,1.24317016614259-1.340123101774225,1.864748897514801-2.010201671308096,3.909838426719944-3.137580018272274,8.275646663450971-4.343502509807877,13.237197614871548-3.222689042899219,1.346823987663811.304243759863311,2.486072903690001,1.019137378114465,3.718621475547479,1.55034127754152Z" fill="#57a8dd" stroke-width="0"/>
        <path d="M67.685275688352704,143.346471247697991c3.03179523952349,2.232717351611427,6.489917513605178,2.629087461993549,10.106089410848654,2.345702531200004-4.083214535667139,2.100871308866772-10.776571069522106.434629574472638-14.209839276823914-3.237450879079915-3.673751078320493-3.929293751037221-4.653552038284033-8.438880457241794-3.652228496564931-13.554325932675056.531383592673592-2.068965753664088,1.278673413022261-4.01561039293756,3.051097321924317-5.38109221276045.010321859141186,1.135493141118786-1.115732393272992,1.891966149843938-1.019729428369828,3.056147162586058.370902414635566,1.383470913326164.259918615349306,2.791883154422976-.0323338949147,4.143211760605482-.406529769925328,1.879693809692981.798498508318517,3.690505920064425.108380202118497,5.548151229045288.953867782534871,3.100998223156239,2.887938876363478,5.42002427656189,5.648564161781906,7.079656341078589Z" fill="#cc778d" stroke-width="0"/>
        <path d="M84.480274745934366,120.080137816991737c-4.66128310581189-4.168208356714786-12.187076501488264-4.362155252796583-17.546983549340439-.451093906923234-.475905107987273.347274430591824-.946833659061667.70137152940697-1.420324839211389,1.052689326945256.908404087016606-1.95214509114885,2.695550805625317-2.954664635918562,4.48962883002423-3.761841051977171,7.434551986589213-3.344927053852189,17.421998264780996-.30989339738062,19.828604033555166,9.607974930037017.197592309257743.814307433724025.266755953407483,1.626992784294089.098315094635836,2.453273551350321-.109191433162778-.157986799848004-.218401126610843-.316618252667467-.327611971017177-.475238935238849-.329537314893969-.403091737473005-.752796028631565-.73664559154804-.900939321725673-1.271856009323528-.594149562179155-2.146478541572833-1.932174750952981-3.83983663599065-3.359219338124603-5.47498443612858-.429548856380279-.492183581032805-.797518448931442-1.004567565830257-.861468938795952-1.678923468741232Z" fill="#ecb78b" stroke-width="0"/>
        <path d="M95.860816430196792,154.904020240248428c-.41224367340692.766425124489615-.82449158127929,1.532838903216543-1.237102245360802,2.29918123639618-1.363910859436146,2.421599395029261-1.74499495708551,5.034600760336616-1.513353774156712,7.767024143049639.318104919570033,3.618754894458107,1.691178352972202,6.723865092868436,4.456483419833603,9.151306710718927,2.842485265546202,2.893184053034929,6.356996566100861,4.063924464255251,10.339464273847625,4.025598652102417.70335615399199-.00677511588583,1.4064148389607-.045477448935344,2.10975611759568-.069596204257323-4.596101660023123,2.192020440614215-11.364808403921415.482149088529695-15.132533265474194-3.677524849685142-4.565434858981462-5.040324052049982-4.419866342506793-13.098886437826877-.669116619921624-17.97292293216924.45185036463954-.587181658373083.805484395803433-1.333976831267137,1.646402093636425-1.523066756155458Z" fill="#cc778d" stroke-width="0"/>
        <path d="M84.480274745934366,120.080137816991737c2.81782961250974,2.133599263937867,4.597762237854113,4.898016162408567,5.121652223862839,8.425788332253433-3.393462241319867.52721741762798-6.588003645023491,1.787653296159078-9.876324602777458,2.699908380383022-5.909494467159675,1.639442946250711-11.79396480727155,3.369043755906205-17.688890840448948,5.060980376991211-1.355732092932158-3.220032634202653-1.273577847594424-6.451308064418299-.075981291278367-9.691334255250695.376784618945749.497737762311772.871627948990863.289976279150324,1.302652304008006.163946012968154,6.746031590702842-1.9724106009553,13.489169636008228-3.954825409693512,20.224814731083825-5.962311104837681.367307078278827-.109473373412584.663031094958569-.459123701744829.992077475550104-.696977742507443Z" fill="#5cb8ba" stroke-width="0"/>
      </g>
    </g>
  </a>
  <path d="M126.106382978725378,61.84042553191648c3.217261400483039,0,3.222590251863949-5,0-5-3.217261400483039,0-3.222590251863949,5,0,5h0Z" fill="#fff" stroke-width="0"/>
</svg>