<?xml version="1.0" encoding="UTF-8"?>
<svg xmlns="http://www.w3.org/2000/svg" width="280" height="280" xmlns:xlink="http://www.w3.org/1999/xlink" viewBox="0 0 280 280">
  <defs>
    <linearGradient id="C4" x1="9.128770768424147" y1="279.615113346451835" x2="96.099062056266973" y2="177.714299949119891" gradientUnits="userSpaceOnUse">
      <stop offset="0" stop-color="#7e9e4c"/>
      <stop offset=".487868088942308" stop-color="#91a23d"/>
      <stop offset=".713373248351595" stop-color="#9d9c43"/>
      <stop offset="1" stop-color="#b4924e"/>
    </linearGradient>
  </defs>
  <g id="Genral_2" data-name="Genral 2">
    <a xlink:href="https://www.notion.so/dmmnotes/semantic-thought-2477648bf2934c578347c35b7291e8b9?pvs=4">
      <g>
        <g>
          <path d="M257.995816113489127,195.425902620834677c.13684891965022-.018978960888489.27119878278063-.007889637319749.40307881811168.033253360263188v4.787548809592408c-.140560968509817.013602319158963-.281355766881461.024063393830147-.422369780730151.031368613570521-.769914009501008-.653729504199873-.704938539960494-1.553250431814376-.721116642700508-2.430446607897466.010288513400155-.87897864970364-.051486410069629-1.781699263563496.740407605318978-2.421724175528652Z" style="fill: none; stroke: #181818; stroke-linecap: round; stroke-linejoin: round; stroke-width: 36px;"/>
          <path d="M197.539576083519933,58.524934098604717c2.484909814800631,8.779263327971421,4.98760531256994,17.553544496080576,7.45101739554957,26.338830977729231,4.97164642531061,17.730305245546333,9.921722046970899,35.466655560430809,14.881121633899966,53.200397911867185,5.066245213960428,18.11580534389941,10.134156465601336,36.231128543298837,15.193430627170528,54.348877075648488.147122818669231.526881668614806.204688804849866,1.078761799184576.304008033590435,1.618997409485019-1.413472213869682,1.039810367525206-3.139735695071067,1.120284668191744-4.755719173310354,1.466888124032266-18.429051175049608,3.952795960209187-36.602672467819502,8.839023678065132-54.497919324299801,14.76000655138705-5.64835001090978,1.868850535072852-11.567548059811088,2.254799904440006-17.40625018289029,3.061077007274434-1.009984193520722.139471255301032-2.084227752649895.116635138390848-3.003734408619493-.527992062012345-1.426698214760108-1.675349874571111-1.763573956621258-3.720548414195946-1.891128139739521-5.805385076135281-.322480591730709-5.270979031189199.29374874892892-10.517295640529483.64887783344966-15.757841126276617.25294544011922-3.732821183359192.441266155479752-7.476044999628357.68079560797014-11.208062608817272.652926012719035-10.173438947309478,1.289615465249881-20.349522384167358,1.869893466489884-30.527110696290038.37626145719878-6.599506293325248.726947774579457-13.205280465186661,1.132043375149806-19.802463698630163.566204367149112-9.221079365310288,1.063545843509928-18.447447709710104,1.722463746138601-27.664041670101142.397496130450236-5.559915082390944.818857519960147-11.132906508119049.961435270930451-16.695005851212045.090901354140442-3.54646137515374,2.206915352011492-5.480792247377394,4.220219588320106-7.678384976021334,4.75791132814993-5.193437776248174,10.223844827400171-9.580521744846919,15.858895765590205-13.77112817590023.907479033070558-.674870810129505,1.860233370820424-1.225870661721274,2.932810892280031-1.580787457627594,4.237742212690137-1.402255192373559,8.66545656406015-2.189144242016482,12.793634877720251-3.94934424387975.302035094229723-.128791024035309.624895659469985-.004784918928635.904103114609825.172472585480136Z" style="fill: none; stroke: #181818; stroke-linecap: round; stroke-linejoin: round; stroke-width: 36px;"/>
          <path d="M197.539576083519933,58.524934098604717c-3.339543301799495,2.127700038774492-7.287190356979409,2.494889603847696-10.941980139519728,3.696839323525637-2.199622783580708.723388427042664-4.210369505899507,1.503779483726248-6.150660371569757,2.88066730054561-6.62700100453003,4.702731555789796-12.354458576530305,10.347467544597748-17.88454914085014,16.232183654512482-.441134626189523.469426115349052-.93435485144073.925129375416873-.879258693059455,1.629615546378773.162891719188337,2.082615875140618-.369816521970279,4.107031064602779-.479336577911454,6.161627769426559-.367565909669793,6.896573054098553-.51280347517968,13.807924567732698-1.018255924449477,20.693430213923421-.574929143429472,7.831977221081615-.975260460809295,15.671128167945426-1.458908276579677,23.506473095327237-.488572856980682,7.915293252230185-.929941313019299,15.833026447853626-1.418543398740439,23.747713366843527-.498466782499236,8.074444769510592-1.092511516149898,16.140357042360847-1.433581580959071,24.226417111261981-.307281651490484,7.284545969334431-.923014103711466,14.555942543134734-1.39065918913002,21.8339138147021-.21119219755019,3.287027453872724.057975188408818,6.508293319631775,1.431725556520178,9.561100818162231.146465172229.759026941552293-.468068902020605.95432468611034-.94413186203019,1.166526709155733-5.085799235170271,2.267087284042645-10.197655884221604,4.476317227738036-15.200350529290517,6.926093447073072-.283072954840463.138609239369544-.616886987119869.149742394252826-.936554313469969.184047706159618-4.335190802639772.588406229275279-8.654729619700447,1.322420098429575-13.043350543039196,1.348324407630571-3.245872525360028.019154286161211-6.473206727940124-.051399526095338-9.726137991900032.374830824923265-2.515621904160071.329611514724093-3.750418883981183-.813669985214801-4.401408493260533-2.996484254326788-.110652669280171-7.891259079278825.731083640050201-15.734712800574925,1.197311132009418-23.595918205835915.202518571559267-3.414635032313527.397547280730578-6.833331766800256.598677487550958-10.246593417799886.60381443706865-10.246476534284739,1.32678710420987-20.486772852666036,1.866751377889159-30.734856535294966.494067858449853-9.377133469417458,1.059936095189187-18.751593228415004,1.627455755249684-28.122531871496903.557830335650578-9.211158876900299,1.224070035450495-18.423545030716923,1.662910206239758-27.636902778762305.315231866381509-6.618499864645855,2.813090009130974-12.33470281818154,5.600261440829854-18.06688959251187.833537650230937-1.053836389426579,2.081290265170537-1.414089648355002,3.249920704651231-1.906337270174845,10.197648577030122-4.295429029116349,20.467272904728816-8.428598169954057,30.821638631468886-12.313360618711158,12.199297856759586-4.576950282284088,24.240892094130686-9.658895794840646,36.95651548818023-12.759066685561265.310993700360996-.075817223085323.618684554079664-.146206667901424.939659866160582-.144544730410416.451613126338998,1.451227559213294.903226252668901,2.902453292124846,1.354839379009718,4.353680851334502Z" style="fill: none; stroke: #181818; stroke-linecap: round; stroke-linejoin: round; stroke-width: 36px;"/>
          <path d="M124.794021011759469,81.038748367231165c-1.438426243159483,4.028478036725573-3.268071746739224,7.89776437745968-4.656663003139329,11.958513222391048-1.042208869699607,3.047788812567887-.68916233228083,6.1476200105717-.926843067509253,9.167561325484712-.328238651791253,4.170623002450156-.541659540100227,8.393690177421377-.722059269290185,12.594315717349673-.380280407751343,8.854985583198868-1.210369067690408,17.6900790530417-1.803953448819811,26.53681704315386-.196300158990198,2.925579791517521-.185134783660033,5.853745630822232-.43198603331075,8.790363609368796-.570939421610092,6.791940391743992-.596478025530814,13.627945868967799-1.071715273890732,20.430128178792074-.580066092928973,8.302616002907598-1.001610162009456,16.611850534900441-1.489123477489557,24.918236031193373-.478174735839275,8.14733625208828-1.244362082110456,16.277607510863163-1.351967656159104,24.446231173275009-.422048264690602,1.391600529379502-1.208615343821293,2.486477643313265-2.314009423271273,3.475443681436445-2.543549956850256,2.275605170263589-5.228625430348984,4.379084752985364-7.821257734120081,6.593399129622412-.789606867179828.674403276065277-1.629414080249262,1.63901371157408-2.933505074648565,1.005081352872367-2.664330381499894-9.388580748756794-5.356026162620765-18.769520237663528-7.987518064570395-28.167290952853364-6.257462155510439-22.347017838881584-12.486360533419429-44.702056809041096-18.726939443049559-67.053815735536773-3.932170441981725-14.083762359943648-7.864596635361522-28.167458972908207-11.796909567410694-42.251184806751553.581173131129617-.747097517712973,1.445075779520266-.942219936998299,2.290907764809162-1.171713415169506,8.526020901710581-2.313292798906332,17.02822404104154-4.712038405737985,25.532096871640533-7.104954447215277,6.75809186413062-1.901665582150599,13.754653639240132-2.535009870662179,20.62757057402996-3.827489525985584,4.607010695950521-.866362535209191,9.208182952839707-1.814309764486097,13.889580769800887-2.254880261858489.983261825978843.267349126868794,1.836660399068933.652542405994609,1.694294556398745,1.915238680430775Z" style="fill: none; stroke: #181818; stroke-linecap: round; stroke-linejoin: round; stroke-width: 36px;"/>
          <path d="M123.350735492029344,79.596435002407816c-8.620985049488809,1.517805505627621-17.219558969300124,3.180528307875647-25.868493993029915,4.517657466254605-11.462733829599529,1.772144036138343-22.279925554688816,5.953355954603467-33.491854948730179,8.642790865374991-1.073454383398712.257487080220017-2.154223256779005.484504088897665-3.231203355879188.725664002991834-.691683310349617-2.420299657675059-1.38375390138026-4.840595662742999-2.075820838830623-7.260895320421696-1.136182894219019-1.162618416590703-1.229923088880241-2.756602753681364-1.594898602239482-4.189883214294241-1.036081796919461-4.068744407941267-2.981750749140701-7.527901101966563-6.22145053182976-10.23394442981953-.490008718410536-.409289546441869-.937882393940527-.87096482364359-1.06877961318969-1.542800314971828.148394268489938-1.820051667204098,1.704119063690086-1.94796971748292,2.938134174950392-2.300625547879463,6.198368968129216-1.771347767185944,12.409682610608797-3.499401149576443,18.626553365609652-5.204118007506622,19.571580357538551-5.366682888710784,39.032581117629888-11.113874584389123,58.499551846069153-16.842852540947206,15.427560071560947-4.540207766443928,30.895126968989644-8.943270076921181,46.36742892087932-13.328750549790129,1.381291380781477-.391512294201675,2.697563448920846-.97380336968854,4.097035100530775-1.298677221118851,2.599778728559613.64806407800279,4.740870977830127,2.088618939462322,6.685955355429542,3.867802467972069.319133902010435,1.582511489486933-.764243635640014,2.239145731688041-1.944499802970313,2.512351818484603-5.323706493058125,1.232318431295425-10.227746863020002,3.619605800962745-15.108228875618806,5.882579333141621-4.655333095870446,2.158582855230634-9.354538517320179,4.302323330248328-13.80515357962031,6.950859968299483-4.031051239750013,2.398857011430664-8.068474342919217,4.756781050349673-11.869363938560127,7.513135426561348-6.741833382369805,4.889096842911385-12.696719712119375,10.552417310740566-17.454652961809188,17.427330388305563-1.029940109770905,1.488201102627499-1.799101479440651,3.211670459633751-3.480257721161252,4.162375409363449Z" style="fill: none; stroke: #181818; stroke-linecap: round; stroke-linejoin: round; stroke-width: 36px;"/>
          <path d="M123.350735492029344,79.596435002407816c3.69939282642008-5.729235465554666,7.79568259430016-11.064953354089084,12.902804188890514-15.709517097689968,5.830751908180901-5.302645332460088,12.198399073269684-9.660130376974848,19.051747372499449-13.493290579783206,9.477956834980432-5.301125846755895,19.163262289350314-10.069397094604938,29.577269242170587-13.230088991422235,1.152430415200797-.349767529143719,1.715989582169641-1.032670884957042,2.13049683420104-2.015970355441823,3.73462806192947,2.499207901862974,5.696708946739818,6.197011514392216,6.928188465559288,10.35732228602501.847034016869657,2.861445441103569,1.796543965449018,5.70035245300096,2.243158978750216,8.666706328502187-1.073512840859621,1.586695554095058-2.951707267020538,1.434922308751993-4.464323337240785,1.853116918056912-6.881597867970413,1.902553166350117-13.617081308490015,4.143332527801249-20.239917218808841,6.849456213072699-8.044141424181362,3.28688134947879-16.327344641120362,5.983811415706441-24.430776546611014,9.132393997653708-7.095384115420529,2.756913225519384-14.084441413770037,5.787249868124491-21.123501764090179,8.68945660908139-.362735861828696.149563416372985-.753984350980318.23004136965028-1.131911845870491.342706121107767-.315114951459691-.646701882807974-.79610295268867-1.12758258271424-1.443234369449783-1.44229144916244Z" style="fill: none; stroke: #181818; stroke-linecap: round; stroke-linejoin: round; stroke-width: 36px;"/>
          <path d="M139.153504786470876,220.356163043721608c5.587378877538868-2.553758717127494,11.174743140718419-5.107517434254987,16.762092789529561-7.661261540946725,7.705453500970179-.359738240935258,15.271105980429638-1.450086118627951,22.629219853750328-3.904260080245876,18.005702231819669-6.005518876165297,36.401184209038547-10.573443559460429,54.91973375913949-14.668954292530543.611713501690247-.135292669605406,1.269053052828895-.064461258996744,1.904851029050405-.08967887754261.344036781019895,1.09680569194461.688307391899798,2.193582163010433,1.032592617129922,3.290358634072618-.568148077780279,1.345110110949463-1.924551193909792,1.324202572050126-3.018334159871301,1.630276668765873-14.292513444268479,3.999490924794372-28.588402806988597,7.986825963937008-42.879337899759776,11.992102622763923-13.292072431499037,3.725326027903066-26.598379255108739,7.400158376956824-39.889530981568896,11.128874026820995-3.89564914229959,1.092919315044128-3.966119613320188,1.261202357000002-3.288509937059644,5.378263488306402.051866383579181.315220231834246.094438030628226.630981049929687.112779059478271.949883112509269.179844383301315,3.433044186062034-.871673837309572,6.569993205568608-2.315558546029933,9.611638328336994-.803790108999237,1.320374636899942-1.672760288658537,2.594551064161351-2.781902952900055,3.686710636349744-2.296611020989076,2.626767083223967-5.104666381168499,4.464015237696003-8.458714440839685,5.453565693402197-4.237851820438664,1.272569278913579-8.360695890649367,3.063546171546477-12.924740351680157,2.865735431394569-1.69780931133937-2.223825772736745-3.185537116920386-4.488531555147347-3.495814713360232-7.427815938899585-.492993702579042-4.670022434394923,1.913626955611107-7.867268737649283,5.057403522760069-10.746212006339192,3.479950819481019-3.186785228583176,7.594735067050351-5.494270377796056,11.478773095870565-8.116668939612282,1.700359518139521-1.148029892770865,3.169074034040023-2.659962001729582,5.154998256361068-3.372556966605771Z" style="fill: none; stroke: #181818; stroke-linecap: round; stroke-linejoin: round; stroke-width: 36px;"/>
          <path d="M144.45743804284939,238.06741992879688c1.428393481161038-3.036516858508548,2.454146575169943-6.173173669227253,2.38420222133027-9.582300565853075.752391385120063-.792762446315464,1.764260831800129-1.066240652548004,2.761837428899526-1.342451010961668,26.597341635151679-7.364202085391298,53.163730043921532-14.839399679531198,79.750593178920099-22.241194425714639,8.452525257011075-2.353186603912036,16.903150646481663-4.713780700647476,25.353878336520211-7.073717327602935,1.053535003049547-.294225030294911,2.127749333460088-.840918454847269,3.183549563191264.017006551559462.028308026199738.811083937423973.056616052399477,1.622167874851584.08496792169899,2.433281033157982-.467104353889226,2.746207425989269-1.11379003249931,5.422080196312891-2.98511570681876,7.618350680186268-1.935877327261551,1.211760629794298-4.206409012811491,1.407394414462033-6.331001643300624,2.005808794783661-33.427847680910418,9.415288632128068-66.890959826070684,18.704956705587392-100.334225662711106,28.06551463141659-1.247643007189254.349204114067106-2.555584886929864,1.109063850668463-3.868685637729868.099701639028353Z" style="fill: none; stroke: #181818; stroke-linecap: round; stroke-linejoin: round; stroke-width: 36px;"/>
          <path d="M257.891498771710758,197.844763150224026c-4.851209438260412.867714000858541-9.51417123299143,2.452610644591914-14.24735505451099,3.764584278793336-14.379658906440454,3.985888605635409-28.745901825239343,8.020050103317772-43.117552059329682,12.034808937369235-15.51794261572104,4.334990446626762-31.03440918051092,8.675255261907296-46.555917701440194,12.997432353105978-2.364268226630884.658346403077303-4.752328640479391,1.231250956061558-7.129223679010465,1.843603695648198-.119048622318587-.540469377334375-.239529452479474-1.080573493680276-.357306624999183-1.62129124848434-.765325098700487-3.513986020789162-.318125510779282-4.179360045258363,3.19147054936002-5.162204309239314,26.397548642780748-7.392546337989188,52.790902962620748-14.800126818205172,79.184213439379164-22.207824181936303,2.518829757400454-.706940724794549,5.028408621370545-1.446827990621387,7.542225651370245-2.171461957630527,5.796086632939478-1.581360917378333,11.591617919990313-3.164942621559021,17.38859602923003-4.743235346646543q3.679283459319777-1.001691730911261,4.205122948629651,2.846756470509717c-.034723732709608.806262492398673-.069505922880126,1.612539595233102-.104273498678594,2.418831308510562Z" style="fill: none; stroke: #181818; stroke-linecap: round; stroke-linejoin: round; stroke-width: 36px;"/>
          <path d="M41.464727744889387,66.197452983175026c7.215205472321031-2.069444563945581,14.42402081327964-4.161484172553173,21.647097948280134-6.203088544065395,11.096808382470044-3.136510706324771,22.199184838240399-6.253523781160766,33.306782276129525-9.351654689267889,20.957109904351455-5.845362891170225,41.914716697121548-11.689141462808038,62.884029596760229-17.490517343034298,4.203266924199852-1.162875012436416,8.31498946217107-2.711158579691983,12.719393900380965-3.091047926849569,1.527464265689559-.131747126863047,3.015089770709892-.198601758478617,4.48606951327929.288712328849215.457122742180218,2.06085054363939-1.185853469360154,2.333078415857017-2.471099239299292,2.733302641172486-3.419966155790462,1.064974566652381-6.894999241230835,1.943935866456741-10.331275029060635,2.962664282957121-11.586473663279321,3.434954044449114-23.206954955359834,6.753316325248306-34.787882466898736,10.209769174813118-18.049443028110545,5.387048015047185-36.070088448781462,10.871560445575597-54.260797588551213,15.783725346125721-7.680031811980371,2.073893442768167-15.343158456518722,4.232403245798196-22.990647729850025,6.435774403260439-1.144304827908854.329695524749695-2.128642636558652,1.136272141597146-3.384084234608963,1.100421775718132-2.327339551511614-.679918716974498-4.764328861450849-1.036742175234394-6.903946886590347-2.290807332545228-.196568697960174-.37999196266901-.198194546130253-.745194507970155.08635994002907-1.087254117133853Z" style="fill: none; stroke: #181818; stroke-linecap: round; stroke-linejoin: round; stroke-width: 36px;"/>
          <path d="M139.153512093649624,220.356163043721608c-3.092056327230239,3.147643861211691-6.984249172070122,5.196524231589137-10.570592573239992,7.661451476662478-2.944458541678614,2.023735804028547-5.79996674701033,4.092895464404137-8.11022758549916,6.895806006028579-2.966080495611095,3.598624296711932-3.375012367150703,8.246833344961487-.864870850111402,12.145570679083903.584494245731548.907848878116056,1.523065341640176,1.692911622827523,1.350330847220903,2.960527962757624-9.567221380180854.286481497372733-18.075500442020711-5.955624225331121-20.652400381199186-15.160259541004052-.362962384500861-1.296501178789185-.689783442820044-2.603142002579261-1.034075975241649-3.904742224749498,2.177277418541053-.419465717539424,3.414398082490152-2.22867643864447,4.98349867583056-3.496292778578209,2.873089287180846-2.321043637053663,5.885928445581158-4.525057653852855,8.08453553074105-7.577368397440296.35250580588945,2.688627683990489,2.90079812438853,2.485162703760579,4.188338349718833,2.186043176236126,4.886488516860481-1.135304199979146,9.803893724179943-.047060225573659,14.678288853490812-.689978004556906,2.644001798929821-.348736580002878,5.235676861759202-1.197851491404435,7.94717510828923-1.020758354439749Z" style="fill: none; stroke: #181818; stroke-linecap: round; stroke-linejoin: round; stroke-width: 36px;"/>
          <path d="M144.45743804284939,238.067405318357487c4.360064452921506-.509144595082034,8.449573155150574-2.098775021207985,12.643735329569608-3.244262697509839,15.679095225390483-4.282275980971463,31.323861305951141-8.690362456331059,46.975861497481674-13.071492670842417,15.500230004588957-4.338672277375736,30.993225898198943-8.70321964307368,46.490679173319222-13.051856240177585,1.447845201810196-.406257880247722,2.879220013559461-.921451197275019,4.423724629559729-.80339884625937-.567256601469126,1.861983628517919-1.932735238649911,3.096112841158174-3.365776088079656,4.277103885397082-12.744574452339293,3.521364292730141-25.460007859639518,7.146915629411524-38.198736565729632,10.688851420931314-22.261288584939393,6.18963963452552-44.511251036519752,12.41947258806249-66.770011336209791,18.617732381881069-1.439383484110294.400808186321228-3.09780708010112,1.685869390996231-4.604898920120831-.040470917367202.801802555281029-1.124068772016471,1.603605110560238-2.248137544036581,2.405422280209677-3.372206316053052Z" style="fill: none; stroke: #181818; stroke-linecap: round; stroke-linejoin: round; stroke-width: 36px;"/>
          <path d="M142.052023069820279,241.439626244849933c1.895548985339701.706663126446074,3.57509033964925-.326499491111463,5.265753226200104-.791432896323386,15.765042309589262-4.335311876293417,31.508192299488655-8.750411362601881,47.251517661779872-13.164385845069773,16.585185893720336-4.650035353184649,33.152089216058812-9.365905346679938,49.758012894599233-13.940463169499708,2.366723440050919-.651976251461747,4.654441619570207-2.072300904863368,7.298458032861163-1.369728701472923-2.007210045840111,2.161263870872062-4.538798144430984,3.509208407078404-7.311216374049764,4.28736041391312-30.824342289110064,8.651951610929245-61.659499208781199,17.26547776602456-92.498485092250121,25.865167834926979-5.962748858450141,1.662755675733933-11.954631454760602,3.221119761368755-17.933127292160862,4.8275960242172,2.932854735370711-1.604869114507892,5.794822490310253-3.311047016384691,8.169086943020375-5.71411366069151Z" style="fill: none; stroke: #181818; stroke-linecap: round; stroke-linejoin: round; stroke-width: 36px;"/>
          <path d="M41.464654673060068,67.142470819337177c2.242822848340438.53820841182096,4.501220956839461,1.023687747554504,6.627505200149244,1.956462035428558.815108935170429.192733612431766,1.560841649959912.496681890206673,2.020253367150872,1.259606166488084,5.460833085659033,3.881591983386897,7.480089022359607,9.621777973334247,8.5711354483592,15.863120300575247-3.939298598808818,1.014658495954791-7.878414518048885,2.029320644516702-11.817528610499721,3.043986445693008-1.334165532049155.083418304224324-1.460121268930379-1.045756816394714-1.733777091920274-1.870793723526731-2.085913885079208-6.288731287702831-5.284640466968995-11.908782939000957-9.831851918999746-16.752202069175837-.647669408099318-.689853815820243-1.334959274779976-1.466311011674406-.537092550839589-2.509668063383288,1.022387222928955-.651055793776322,2.206620324510368-.755571572612098,3.351785573189773-.992012314756721,1.116612431860631-.199498245910945,2.233350912631067-.676656936357176,3.349570583410241.00150122265768Z" style="fill: none; stroke: #181818; stroke-linecap: round; stroke-linejoin: round; stroke-width: 36px;"/>
          <path d="M34.763298516460054,68.132981911436218c.021445668140586,2.39581256110614,2.221653026339482,3.373791548739973,3.426801111909299,4.922823216151301,3.162581602120554,4.064996830213204,5.468257183390961,8.504426350868016,7.199705110790092,13.306315306814213.365812185789764,1.014519696778734.423248469471218,2.223672363124933,1.476114865290583,2.90341940743383-3.306578773350338,1.255895114856685-6.737301102239144,2.067410060248221-10.178737587919386,2.840550686338247-1.125031219849916-1.206559313337493-1.296812126920486-2.866962708314531-2.026184059401203-4.269422446839599-2.1242857288089-4.084640566095914-4.960198810049405-7.357908638583467-9.420511874030126-8.984664191433694-.760284512649378-.277287878328934-1.786000385698571-.469506472767534-1.537574209798549-1.717409677228716,2.220532743878721-4.801184002240916,5.921660569518281-7.784120726555557,11.060386643159291-9.001612301235582Z" style="fill: none; stroke: #181818; stroke-linecap: round; stroke-linejoin: round; stroke-width: 36px;"/>
          <path d="M23.702911873300764,77.1345942126718c.299330294848914.760568342913757.98965104394847.901347232545959,1.668732660838941,1.162242197777232,6.38328042601097,2.452413403658284,9.804553654130359,7.35398938819344,11.315533828799744,13.809232202067506-3.786329120488517,1.095600330685556-7.571346601658661,2.195759118490969-11.360000319678875,3.283257960483752-.853027276871217.244856355286174-1.588873373329989.139113299530436-1.902352429229722-.846353538338008-1.75650836755085-5.521800098391395-2.922929097820088-11.054101450161397-.232908459820464-16.636600619382079.132699581568886-.275384868586116.338978840420168-.515328463592596.510994719090377-.771778202608402Z" style="fill: none; stroke: #181818; stroke-linecap: round; stroke-linejoin: round; stroke-width: 36px;"/>
          <path d="M50.112413240360183,70.358539021253819c-.673137680380023-.419977082921832-1.346275360760046-.839954165843665-2.019833204140014-1.259770533932169,15.663717259169061-4.395850232289376,31.368957584649252-8.652057536615757,46.977224287069475-13.238124733139557,10.03632059497977-2.948903531843825,20.030113385999357-6.068648758864583,30.050643158920138-9.06681686633965,11.084609040770374-3.316542367931106,22.078806308649291-6.963836778017139,33.314389053439299-9.791391478436708,5.379357997331681-1.353770905527199,10.653200274900883-3.124531972254772,15.983804748531838-4.675655671970162,1.06980079198911-.31129481766402,1.935073537148128-.743992571035051,2.089474309908837-1.977037871696666,1.375153347209562-.109261660498305,2.610505672930231.355166657252994,3.818879879710948.930188011800055-.700393472261567,1.292827566412598-2.083584720561703,1.424214682916499-3.25856510191079,1.764315580032417-16.376814268740418,4.740294082545006-32.773489460350902,9.411860657768557-49.153767333749784,14.140251797896781-18.892691924289466,5.453635092988407-37.718428132500776,11.139581652660127-56.718974075050937,16.218048054310202-6.280578428319131,1.678670096942369-12.531274132548788,3.471831250277319-18.772046682519431,5.293417013625003-.883803760769297.257965572109242-2.206369140109018.199341183688375-2.311229040209582,1.662576697850454Z" style="fill: none; stroke: #181818; stroke-linecap: round; stroke-linejoin: round; stroke-width: 36px;"/>
          <path d="M41.464654673060068,67.142470819337177c-1.116612431860631-.000485797114379-2.233223036919298-.000967941614363-3.349703939500614-.001479306996771,1.051198531360569-.546876055046596,2.155642677051219-.904331414814806,3.349777011329934-.943545834383258-.000023748340027.315012033068342-.000047496689149.630020413529564-.00007307182932.945025141380029Z" style="fill: none; stroke: #181818; stroke-linecap: round; stroke-linejoin: round; stroke-width: 36px;"/>
          <g>
            <path d="M186.728387584409575,97.410725587244087c.502343299989661.969269492230524,1.659445258361302,1.41368245630656,1.928097639090993,2.611544428385969.529741193930022,2.362004865633935-.522469093360996,3.972642885128153-3.394897812369891,4.782024982639996-10.456923574760367,2.946513027593028-20.919049834690668,5.874765364889754-31.386247619660935,8.784632343798876-6.872397360299146,1.910515736199159-13.756894242649651,3.777579637957388-20.635969839589961,5.664106321601139-1.446987706900472-1.996749655332678-2.052630539710663-4.298730475369666-2.429326077990481-6.683771183164936,9.953388903570158-2.824878830691887,19.903648180699747-5.660818541960907,29.86119777507156-8.470982443042885,7.379790325319846-2.082682369084068,14.769789280810073-4.12921690685107,22.151853048399062-6.203909598316386.363328134959374-.102113175908016.694113984200158-.319785481773579,1.040056115190964-.483645875636284.955078923958354.000001023734512,1.910157847909431.000001023734512,2.86523677185869.000001023734512Z" style="fill: none; stroke: #181818; stroke-linecap: round; stroke-linejoin: round; stroke-width: 36px;"/>
            <path d="M141.281599089870724,153.672856047465757c8.069594241909726-2.313905277391314,16.131836229829787-4.653785196922399,24.210680904279798-6.935007414922438,9.693025114420379-2.737023316396517,19.398459434529286-5.430254463564779,29.102166812908763-8.129400520134368,3.457708941561577-.961778828215756,5.822322068470385.591374461782834,5.552409093150345,3.623586336707376-.174246233440499,1.95753289602726-1.448292021530506,2.855732818094111-3.203469601849065,3.344715648236161-13.676110532231178,3.810075240213337-27.345109270720059,7.645626450208511-41.021933897000054,11.453135529729479-4.043612174729788,1.125700077398506-8.105218790700746,2.186874863145931-12.158580535129659,3.27761327605549-.585662772929936-2.301667784831807-.720644763950986-4.771577432667982-2.481272776360129-6.6346428556717Z" style="fill: none; stroke: #181818; stroke-linecap: round; stroke-linejoin: round; stroke-width: 36px;"/>
            <path d="M130.810043873889299,112.569262480505131c1.441515414790047,1.998738884863997,1.768581416990855,4.401786396843818,2.429326077990481,6.683776643083547-11.587268866489467,3.258225113029766-23.168606380399069,6.537760279647046-34.76578785592028,9.760381278032582-3.073560046708735.854080157860153-5.415848284819731-1.199922180523572-4.867643911578853-4.137564663989906.318271100639322-1.705506796366535,1.495841439898868-2.506776823131077,3.065572030420299-2.93969541201659,9.476447859688051-2.61353274792782,18.947525440698882-5.24650097815902,28.423249187169858-7.862661765833764,1.898779706578352-.524235690161731,3.809870248738662-1.003978521832323,5.715284471918494-1.50423607927587Z" style="fill: none; stroke: #181818; stroke-linecap: round; stroke-linejoin: round; stroke-width: 36px;"/>
            <path d="M141.281599089870724,153.672856047465757c1.909086706849848.909036036089674,3.162179664079304,4.25967751355347,2.481269133018941,6.634650135561969-11.115861140609923,3.135520772517339-22.227009624870334,6.2879017667874-33.350430689670247,9.396435992664919-3.40070529148943.950353043226642-5.770776137158464-.747207754851843-5.397876955999891-3.780089379517449.239869107919731-1.950908197497483,1.577150473949587-2.733976683059154,3.331425417531136-3.215432108499954,9.770577184948706-2.68147412725375,19.525695691168949-5.41911623417036,29.28901170555946-8.127085515588988,1.206684131049769-.334689233492099,2.430644965950705-.607171819814539,3.646601389560601-.908479124620499Z" style="fill: none; stroke: #181818; stroke-linecap: round; stroke-linejoin: round; stroke-width: 36px;"/>
            <path d="M164.300595481359778,132.602216151222819c-11.605332531129534,3.291641621181043-23.175769180859788,6.709177994001948-34.878433458859945,9.649674193755345-1.743551692079564-1.934473849225469-2.152377819000321-4.250828809090308-1.933886901530059-6.746662139848922,11.86332450791997-3.558828088622249,23.786556405470037-6.903161542712041,35.78553327840018-9.97629549082194,1.29001817732933-.146962748938677,2.255393171530159.667813290951017,3.231982356890512,1.248247900301067,1.325489705968721.78780041308346,1.491975631668538,2.378128453670797.371438203039361,3.406831296797463-.867609690229074.796510799660609-1.477467863900529,1.873490223326371-2.576633477940049,2.418204239816987Z" style="fill: none; stroke: #181818; stroke-linecap: round; stroke-linejoin: round; stroke-width: 36px;"/>
            <path d="M139.899225963959907,176.060325853526592c9.350977710641018-2.66673235306007,18.690314959691023-5.375491502381919,28.061975894239367-7.967590438616753,2.071827282161394-.573043702559517,3.967703249179976.713145156594692,4.421036380401347,2.601948625364457.468525846328703,1.952131218764407-.549050879830247,3.856833964000543-2.617905199020242,4.438344176880491-9.13909944973966,2.568854252276651-18.298200819401245,5.066664072757703-27.450059235190565,7.590201019171218-1.1015337830504-2.113693784074712-1.856090727420451-4.352914685419819-2.415047840429907-6.662903382799414Z" style="fill: none; stroke: #181818; stroke-linecap: round; stroke-linejoin: round; stroke-width: 36px;"/>
            <path d="M139.899225963959907,176.060325853526592c1.55824428762935,1.948462154963636,2.18486909800049,4.233968587344862,2.415047840429907,6.662903382799414-8.931691563309869,2.534369420489384-17.856125599389998,5.094779002116411-26.800361171850454,7.584151431838109-2.140094308439075.595633196549898-4.111764435900113-.445085102532175-4.669420877618904-2.225068798117718-.627408127809758-2.002617245459987.201511145569384-4.089724876761466,2.205457595158805-4.65570708748055,8.930809875770137-2.522386724034732,17.896311606060408-4.922187405743898,26.849276613880647-7.366278929039254Z" style="fill: none; stroke: #181818; stroke-linecap: round; stroke-linejoin: round; stroke-width: 36px;"/>
            <path d="M164.300595481359778,132.602216151222819c.722947352909614-.972745980230684.948848817759426-2.182860004639224,2.233686169920475-2.912217472905468,1.266285480369334-.718816189732024.618427302209966-2.174571851592191-.456524694391192-2.516695671201887-1.125055166459788-.358070415357361-1.844155155538829-1.154350078559219-2.803882977448666-1.644324793505803,8.822886948339146-2.522763458262489,17.635434106399771-5.082832705102192,26.476224412559532-7.541525864744472,2.168055097939941-.602951304455928,4.079378813670701.509200900454744,4.588797474039893,2.333910410965473.608189525350099,2.178450212188181-.464387015550528,4.089519219909562-2.800137627060394,4.742230382187699-9.073074897369224,2.535406804599916-18.15778661297918,5.029289125239302-27.238162757619648,7.538623009204457Z" style="fill: none; stroke: #181818; stroke-linecap: round; stroke-linejoin: round; stroke-width: 36px;"/>
            <path d="M127.488275120969774,135.505228205129242c.644630181619505,2.248888593265292,1.289260363240828,4.497777186530584,1.933890544860333,6.746662139848922-8.450266482459483,2.404317852520762-16.8922389083491,4.838377689477056-25.356306351210151,7.193170460581314-2.268873518280088.631217291502253-4.209751072590734-.461286494370142-4.710469899719101-2.403808260325604-.556643138630534-2.159477002798667.525458906749918-4.06022676858629,2.919563935509359-4.657628978042339,7.481685351740452-1.866898284293711,14.748333669449494-4.540360894265177,22.363255853810188-5.915688348060939.961287170130163-.173618060653098,1.756379881509929-1.045435666826961,2.850065916749372-.962707014001353Z" style="fill: none; stroke: #181818; stroke-linecap: round; stroke-linejoin: round; stroke-width: 36px;"/>
          </g>
        </g>
        <g>
          <path d="M257.995816113489127,195.425902620834677c.13684891965022-.018978960888489.27119878278063-.007889637319749.40307881811168.033253360263188v4.787548809592408c-.140560968509817.013602319158963-.281355766881461.024063393830147-.422369780730151.031368613570521-.769914009501008-.653729504199873-.704938539960494-1.553250431814376-.721116642700508-2.430446607897466.010288513400155-.87897864970364-.051486410069629-1.781699263563496.740407605318978-2.421724175528652Z" style="fill: #f6d4bc; stroke-width: 0px;"/>
          <path d="M197.539576083519933,58.524934098604717c2.484909814800631,8.779263327971421,4.98760531256994,17.553544496080576,7.45101739554957,26.338830977729231,4.97164642531061,17.730305245546333,9.921722046970899,35.466655560430809,14.881121633899966,53.200397911867185,5.066245213960428,18.11580534389941,10.134156465601336,36.231128543298837,15.193430627170528,54.348877075648488.147122818669231.526881668614806.204688804849866,1.078761799184576.304008033590435,1.618997409485019-1.413472213869682,1.039810367525206-3.139735695071067,1.120284668191744-4.755719173310354,1.466888124032266-18.429051175049608,3.952795960209187-36.602672467819502,8.839023678065132-54.497919324299801,14.76000655138705-5.64835001090978,1.868850535072852-11.567548059811088,2.254799904440006-17.40625018289029,3.061077007274434-1.009984193520722.139471255301032-2.084227752649895.116635138390848-3.003734408619493-.527992062012345-1.426698214760108-1.675349874571111-1.763573956621258-3.720548414195946-1.891128139739521-5.805385076135281-.322480591730709-5.270979031189199.29374874892892-10.517295640529483.64887783344966-15.757841126276617.25294544011922-3.732821183359192.441266155479752-7.476044999628357.68079560797014-11.208062608817272.652926012719035-10.173438947309478,1.289615465249881-20.349522384167358,1.869893466489884-30.527110696290038.37626145719878-6.599506293325248.726947774579457-13.205280465186661,1.132043375149806-19.802463698630163.566204367149112-9.221079365310288,1.063545843509928-18.447447709710104,1.722463746138601-27.664041670101142.397496130450236-5.559915082390944.818857519960147-11.132906508119049.961435270930451-16.695005851212045.090901354140442-3.54646137515374,2.206915352011492-5.480792247377394,4.220219588320106-7.678384976021334,4.75791132814993-5.193437776248174,10.223844827400171-9.580521744846919,15.858895765590205-13.77112817590023.907479033070558-.674870810129505,1.860233370820424-1.225870661721274,2.932810892280031-1.580787457627594,4.237742212690137-1.402255192373559,8.66545656406015-2.189144242016482,12.793634877720251-3.94934424387975.302035094229723-.128791024035309.624895659469985-.004784918928635.904103114609825.172472585480136Z" style="fill: #ffd8a3; stroke-width: 0px;"/>
          <path d="M197.539576083519933,58.524934098604717c-3.339543301799495,2.127700038774492-7.287190356979409,2.494889603847696-10.941980139519728,3.696839323525637-2.199622783580708.723388427042664-4.210369505899507,1.503779483726248-6.150660371569757,2.88066730054561-6.62700100453003,4.702731555789796-12.354458576530305,10.347467544597748-17.88454914085014,16.232183654512482-.441134626189523.469426115349052-.93435485144073.925129375416873-.879258693059455,1.629615546378773.162891719188337,2.082615875140618-.369816521970279,4.107031064602779-.479336577911454,6.161627769426559-.367565909669793,6.896573054098553-.51280347517968,13.807924567732698-1.018255924449477,20.693430213923421-.574929143429472,7.831977221081615-.975260460809295,15.671128167945426-1.458908276579677,23.506473095327237-.488572856980682,7.915293252230185-.929941313019299,15.833026447853626-1.418543398740439,23.747713366843527-.498466782499236,8.074444769510592-1.092511516149898,16.140357042360847-1.433581580959071,24.226417111261981-.307281651490484,7.284545969334431-.923014103711466,14.555942543134734-1.39065918913002,21.8339138147021-.21119219755019,3.287027453872724.057975188408818,6.508293319631775,1.431725556520178,9.561100818162231.146465172229.759026941552293-.468068902020605.95432468611034-.94413186203019,1.166526709155733-5.085799235170271,2.267087284042645-10.197655884221604,4.476317227738036-15.200350529290517,6.926093447073072-.283072954840463.138609239369544-.616886987119869.149742394252826-.936554313469969.184047706159618-4.335190802639772.588406229275279-8.654729619700447,1.322420098429575-13.043350543039196,1.348324407630571-3.245872525360028.019154286161211-6.473206727940124-.051399526095338-9.726137991900032.374830824923265-2.515621904160071.329611514724093-3.750418883981183-.813669985214801-4.401408493260533-2.996484254326788-.110652669280171-7.891259079278825.731083640050201-15.734712800574925,1.197311132009418-23.595918205835915.202518571559267-3.414635032313527.397547280730578-6.833331766800256.598677487550958-10.246593417799886.60381443706865-10.246476534284739,1.32678710420987-20.486772852666036,1.866751377889159-30.734856535294966.494067858449853-9.377133469417458,1.059936095189187-18.751593228415004,1.627455755249684-28.122531871496903.557830335650578-9.211158876900299,1.224070035450495-18.423545030716923,1.662910206239758-27.636902778762305.315231866381509-6.618499864645855,2.813090009130974-12.33470281818154,5.600261440829854-18.06688959251187.833537650230937-1.053836389426579,2.081290265170537-1.414089648355002,3.249920704651231-1.906337270174845,10.197648577030122-4.295429029116349,20.467272904728816-8.428598169954057,30.821638631468886-12.313360618711158,12.199297856759586-4.576950282284088,24.240892094130686-9.658895794840646,36.95651548818023-12.759066685561265.310993700360996-.075817223085323.618684554079664-.146206667901424.939659866160582-.144544730410416.451613126338998,1.451227559213294.903226252668901,2.902453292124846,1.354839379009718,4.353680851334502Z" style="fill: #fecd95; stroke-width: 0px;"/>
          <path d="M124.794021011759469,81.038748367231165c-1.438426243159483,4.028478036725573-3.268071746739224,7.89776437745968-4.656663003139329,11.958513222391048-1.042208869699607,3.047788812567887-.68916233228083,6.1476200105717-.926843067509253,9.167561325484712-.328238651791253,4.170623002450156-.541659540100227,8.393690177421377-.722059269290185,12.594315717349673-.380280407751343,8.854985583198868-1.210369067690408,17.6900790530417-1.803953448819811,26.53681704315386-.196300158990198,2.925579791517521-.185134783660033,5.853745630822232-.43198603331075,8.790363609368796-.570939421610092,6.791940391743992-.596478025530814,13.627945868967799-1.071715273890732,20.430128178792074-.580066092928973,8.302616002907598-1.001610162009456,16.611850534900441-1.489123477489557,24.918236031193373-.478174735839275,8.14733625208828-1.244362082110456,16.277607510863163-1.351967656159104,24.446231173275009-.422048264690602,1.391600529379502-1.208615343821293,2.486477643313265-2.314009423271273,3.475443681436445-2.543549956850256,2.275605170263589-5.228625430348984,4.379084752985364-7.821257734120081,6.593399129622412-.789606867179828.674403276065277-1.629414080249262,1.63901371157408-2.933505074648565,1.005081352872367-2.664330381499894-9.388580748756794-5.356026162620765-18.769520237663528-7.987518064570395-28.167290952853364-6.257462155510439-22.347017838881584-12.486360533419429-44.702056809041096-18.726939443049559-67.053815735536773-3.932170441981725-14.083762359943648-7.864596635361522-28.167458972908207-11.796909567410694-42.251184806751553.581173131129617-.747097517712973,1.445075779520266-.942219936998299,2.290907764809162-1.171713415169506,8.526020901710581-2.313292798906332,17.02822404104154-4.712038405737985,25.532096871640533-7.104954447215277,6.75809186413062-1.901665582150599,13.754653639240132-2.535009870662179,20.62757057402996-3.827489525985584,4.607010695950521-.866362535209191,9.208182952839707-1.814309764486097,13.889580769800887-2.254880261858489.983261825978843.267349126868794,1.836660399068933.652542405994609,1.694294556398745,1.915238680430775Z" style="fill: #fcc084; stroke-width: 0px;"/>
          <path d="M123.350735492029344,79.596435002407816c-8.620985049488809,1.517805505627621-17.219558969300124,3.180528307875647-25.868493993029915,4.517657466254605-11.462733829599529,1.772144036138343-22.279925554688816,5.953355954603467-33.491854948730179,8.642790865374991-1.073454383398712.257487080220017-2.154223256779005.484504088897665-3.231203355879188.725664002991834-.691683310349617-2.420299657675059-1.38375390138026-4.840595662742999-2.075820838830623-7.260895320421696-1.136182894219019-1.162618416590703-1.229923088880241-2.756602753681364-1.594898602239482-4.189883214294241-1.036081796919461-4.068744407941267-2.981750749140701-7.527901101966563-6.22145053182976-10.23394442981953-.490008718410536-.409289546441869-.937882393940527-.87096482364359-1.06877961318969-1.542800314971828.148394268489938-1.820051667204098,1.704119063690086-1.94796971748292,2.938134174950392-2.300625547879463,6.198368968129216-1.771347767185944,12.409682610608797-3.499401149576443,18.626553365609652-5.204118007506622,19.571580357538551-5.366682888710784,39.032581117629888-11.113874584389123,58.499551846069153-16.842852540947206,15.427560071560947-4.540207766443928,30.895126968989644-8.943270076921181,46.36742892087932-13.328750549790129,1.381291380781477-.391512294201675,2.697563448920846-.97380336968854,4.097035100530775-1.298677221118851,2.599778728559613.64806407800279,4.740870977830127,2.088618939462322,6.685955355429542,3.867802467972069.319133902010435,1.582511489486933-.764243635640014,2.239145731688041-1.944499802970313,2.512351818484603-5.323706493058125,1.232318431295425-10.227746863020002,3.619605800962745-15.108228875618806,5.882579333141621-4.655333095870446,2.158582855230634-9.354538517320179,4.302323330248328-13.80515357962031,6.950859968299483-4.031051239750013,2.398857011430664-8.068474342919217,4.756781050349673-11.869363938560127,7.513135426561348-6.741833382369805,4.889096842911385-12.696719712119375,10.552417310740566-17.454652961809188,17.427330388305563-1.029940109770905,1.488201102627499-1.799101479440651,3.211670459633751-3.480257721161252,4.162375409363449Z" style="fill: #fecc81; stroke-width: 0px;"/>
          <path d="M123.350735492029344,79.596435002407816c3.69939282642008-5.729235465554666,7.79568259430016-11.064953354089084,12.902804188890514-15.709517097689968,5.830751908180901-5.302645332460088,12.198399073269684-9.660130376974848,19.051747372499449-13.493290579783206,9.477956834980432-5.301125846755895,19.163262289350314-10.069397094604938,29.577269242170587-13.230088991422235,1.152430415200797-.349767529143719,1.715989582169641-1.032670884957042,2.13049683420104-2.015970355441823,3.73462806192947,2.499207901862974,5.696708946739818,6.197011514392216,6.928188465559288,10.35732228602501.847034016869657,2.861445441103569,1.796543965449018,5.70035245300096,2.243158978750216,8.666706328502187-1.073512840859621,1.586695554095058-2.951707267020538,1.434922308751993-4.464323337240785,1.853116918056912-6.881597867970413,1.902553166350117-13.617081308490015,4.143332527801249-20.239917218808841,6.849456213072699-8.044141424181362,3.28688134947879-16.327344641120362,5.983811415706441-24.430776546611014,9.132393997653708-7.095384115420529,2.756913225519384-14.084441413770037,5.787249868124491-21.123501764090179,8.68945660908139-.362735861828696.149563416372985-.753984350980318.23004136965028-1.131911845870491.342706121107767-.315114951459691-.646701882807974-.79610295268867-1.12758258271424-1.443234369449783-1.44229144916244Z" style="fill: #ffd48d; stroke-width: 0px;"/>
          <path d="M139.153504786470876,220.356163043721608c5.587378877538868-2.553758717127494,11.174743140718419-5.107517434254987,16.762092789529561-7.661261540946725,7.705453500970179-.359738240935258,15.271105980429638-1.450086118627951,22.629219853750328-3.904260080245876,18.005702231819669-6.005518876165297,36.401184209038547-10.573443559460429,54.91973375913949-14.668954292530543.611713501690247-.135292669605406,1.269053052828895-.064461258996744,1.904851029050405-.08967887754261.344036781019895,1.09680569194461.688307391899798,2.193582163010433,1.032592617129922,3.290358634072618-.568148077780279,1.345110110949463-1.924551193909792,1.324202572050126-3.018334159871301,1.630276668765873-14.292513444268479,3.999490924794372-28.588402806988597,7.986825963937008-42.879337899759776,11.992102622763923-13.292072431499037,3.725326027903066-26.598379255108739,7.400158376956824-39.889530981568896,11.128874026820995-3.89564914229959,1.092919315044128-3.966119613320188,1.261202357000002-3.288509937059644,5.378263488306402.051866383579181.315220231834246.094438030628226.630981049929687.112779059478271.949883112509269.179844383301315,3.433044186062034-.871673837309572,6.569993205568608-2.315558546029933,9.611638328336994-.803790108999237,1.320374636899942-1.672760288658537,2.594551064161351-2.781902952900055,3.686710636349744-2.296611020989076,2.626767083223967-5.104666381168499,4.464015237696003-8.458714440839685,5.453565693402197-4.237851820438664,1.272569278913579-8.360695890649367,3.063546171546477-12.924740351680157,2.865735431394569-1.69780931133937-2.223825772736745-3.185537116920386-4.488531555147347-3.495814713360232-7.427815938899585-.492993702579042-4.670022434394923,1.913626955611107-7.867268737649283,5.057403522760069-10.746212006339192,3.479950819481019-3.186785228583176,7.594735067050351-5.494270377796056,11.478773095870565-8.116668939612282,1.700359518139521-1.148029892770865,3.169074034040023-2.659962001729582,5.154998256361068-3.372556966605771Z" style="fill: #ffd992; stroke-width: 0px;"/>
          <path d="M144.45743804284939,238.06741992879688c1.428393481161038-3.036516858508548,2.454146575169943-6.173173669227253,2.38420222133027-9.582300565853075.752391385120063-.792762446315464,1.764260831800129-1.066240652548004,2.761837428899526-1.342451010961668,26.597341635151679-7.364202085391298,53.163730043921532-14.839399679531198,79.750593178920099-22.241194425714639,8.452525257011075-2.353186603912036,16.903150646481663-4.713780700647476,25.353878336520211-7.073717327602935,1.053535003049547-.294225030294911,2.127749333460088-.840918454847269,3.183549563191264.017006551559462.028308026199738.811083937423973.056616052399477,1.622167874851584.08496792169899,2.433281033157982-.467104353889226,2.746207425989269-1.11379003249931,5.422080196312891-2.98511570681876,7.618350680186268-1.935877327261551,1.211760629794298-4.206409012811491,1.407394414462033-6.331001643300624,2.005808794783661-33.427847680910418,9.415288632128068-66.890959826070684,18.704956705587392-100.334225662711106,28.06551463141659-1.247643007189254.349204114067106-2.555584886929864,1.109063850668463-3.868685637729868.099701639028353Z" style="fill: #ea9469; stroke-width: 0px;"/>
          <path d="M257.891498771710758,197.844763150224026c-4.851209438260412.867714000858541-9.51417123299143,2.452610644591914-14.24735505451099,3.764584278793336-14.379658906440454,3.985888605635409-28.745901825239343,8.020050103317772-43.117552059329682,12.034808937369235-15.51794261572104,4.334990446626762-31.03440918051092,8.675255261907296-46.555917701440194,12.997432353105978-2.364268226630884.658346403077303-4.752328640479391,1.231250956061558-7.129223679010465,1.843603695648198-.119048622318587-.540469377334375-.239529452479474-1.080573493680276-.357306624999183-1.62129124848434-.765325098700487-3.513986020789162-.318125510779282-4.179360045258363,3.19147054936002-5.162204309239314,26.397548642780748-7.392546337989188,52.790902962620748-14.800126818205172,79.184213439379164-22.207824181936303,2.518829757400454-.706940724794549,5.028408621370545-1.446827990621387,7.542225651370245-2.171461957630527,5.796086632939478-1.581360917378333,11.591617919990313-3.164942621559021,17.38859602923003-4.743235346646543q3.679283459319777-1.001691730911261,4.205122948629651,2.846756470509717c-.034723732709608.806262492398673-.069505922880126,1.612539595233102-.104273498678594,2.418831308510562Z" style="fill: #e69154; stroke-width: 0px;"/>
          <path d="M41.464727744889387,66.197452983175026c7.215205472321031-2.069444563945581,14.42402081327964-4.161484172553173,21.647097948280134-6.203088544065395,11.096808382470044-3.136510706324771,22.199184838240399-6.253523781160766,33.306782276129525-9.351654689267889,20.957109904351455-5.845362891170225,41.914716697121548-11.689141462808038,62.884029596760229-17.490517343034298,4.203266924199852-1.162875012436416,8.31498946217107-2.711158579691983,12.719393900380965-3.091047926849569,1.527464265689559-.131747126863047,3.015089770709892-.198601758478617,4.48606951327929.288712328849215.457122742180218,2.06085054363939-1.185853469360154,2.333078415857017-2.471099239299292,2.733302641172486-3.419966155790462,1.064974566652381-6.894999241230835,1.943935866456741-10.331275029060635,2.962664282957121-11.586473663279321,3.434954044449114-23.206954955359834,6.753316325248306-34.787882466898736,10.209769174813118-18.049443028110545,5.387048015047185-36.070088448781462,10.871560445575597-54.260797588551213,15.783725346125721-7.680031811980371,2.073893442768167-15.343158456518722,4.232403245798196-22.990647729850025,6.435774403260439-1.144304827908854.329695524749695-2.128642636558652,1.136272141597146-3.384084234608963,1.100421775718132-2.327339551511614-.679918716974498-4.764328861450849-1.036742175234394-6.903946886590347-2.290807332545228-.196568697960174-.37999196266901-.198194546130253-.745194507970155.08635994002907-1.087254117133853Z" style="fill: #fbc273; stroke-width: 0px;"/>
          <path d="M139.153512093649624,220.356163043721608c-3.092056327230239,3.147643861211691-6.984249172070122,5.196524231589137-10.570592573239992,7.661451476662478-2.944458541678614,2.023735804028547-5.79996674701033,4.092895464404137-8.11022758549916,6.895806006028579-2.966080495611095,3.598624296711932-3.375012367150703,8.246833344961487-.864870850111402,12.145570679083903.584494245731548.907848878116056,1.523065341640176,1.692911622827523,1.350330847220903,2.960527962757624-9.567221380180854.286481497372733-18.075500442020711-5.955624225331121-20.652400381199186-15.160259541004052-.362962384500861-1.296501178789185-.689783442820044-2.603142002579261-1.034075975241649-3.904742224749498,2.177277418541053-.419465717539424,3.414398082490152-2.22867643864447,4.98349867583056-3.496292778578209,2.873089287180846-2.321043637053663,5.885928445581158-4.525057653852855,8.08453553074105-7.577368397440296.35250580588945,2.688627683990489,2.90079812438853,2.485162703760579,4.188338349718833,2.186043176236126,4.886488516860481-1.135304199979146,9.803893724179943-.047060225573659,14.678288853490812-.689978004556906,2.644001798929821-.348736580002878,5.235676861759202-1.197851491404435,7.94717510828923-1.020758354439749Z" style="fill: #fecf8e; stroke-width: 0px;"/>
          <path d="M144.45743804284939,238.067405318357487c4.360064452921506-.509144595082034,8.449573155150574-2.098775021207985,12.643735329569608-3.244262697509839,15.679095225390483-4.282275980971463,31.323861305951141-8.690362456331059,46.975861497481674-13.071492670842417,15.500230004588957-4.338672277375736,30.993225898198943-8.70321964307368,46.490679173319222-13.051856240177585,1.447845201810196-.406257880247722,2.879220013559461-.921451197275019,4.423724629559729-.80339884625937-.567256601469126,1.861983628517919-1.932735238649911,3.096112841158174-3.365776088079656,4.277103885397082-12.744574452339293,3.521364292730141-25.460007859639518,7.146915629411524-38.198736565729632,10.688851420931314-22.261288584939393,6.18963963452552-44.511251036519752,12.41947258806249-66.770011336209791,18.617732381881069-1.439383484110294.400808186321228-3.09780708010112,1.685869390996231-4.604898920120831-.040470917367202.801802555281029-1.124068772016471,1.603605110560238-2.248137544036581,2.405422280209677-3.372206316053052Z" style="fill: #e88e84; stroke-width: 0px;"/>
          <path d="M142.052023069820279,241.439626244849933c1.895548985339701.706663126446074,3.57509033964925-.326499491111463,5.265753226200104-.791432896323386,15.765042309589262-4.335311876293417,31.508192299488655-8.750411362601881,47.251517661779872-13.164385845069773,16.585185893720336-4.650035353184649,33.152089216058812-9.365905346679938,49.758012894599233-13.940463169499708,2.366723440050919-.651976251461747,4.654441619570207-2.072300904863368,7.298458032861163-1.369728701472923-2.007210045840111,2.161263870872062-4.538798144430984,3.509208407078404-7.311216374049764,4.28736041391312-30.824342289110064,8.651951610929245-61.659499208781199,17.26547776602456-92.498485092250121,25.865167834926979-5.962748858450141,1.662755675733933-11.954631454760602,3.221119761368755-17.933127292160862,4.8275960242172,2.932854735370711-1.604869114507892,5.794822490310253-3.311047016384691,8.169086943020375-5.71411366069151Z" style="fill: #e38494; stroke-width: 0px;"/>
          <path d="M41.464654673060068,67.142470819337177c2.242822848340438.53820841182096,4.501220956839461,1.023687747554504,6.627505200149244,1.956462035428558.815108935170429.192733612431766,1.560841649959912.496681890206673,2.020253367150872,1.259606166488084,5.460833085659033,3.881591983386897,7.480089022359607,9.621777973334247,8.5711354483592,15.863120300575247-3.939298598808818,1.014658495954791-7.878414518048885,2.029320644516702-11.817528610499721,3.043986445693008-1.334165532049155.083418304224324-1.460121268930379-1.045756816394714-1.733777091920274-1.870793723526731-2.085913885079208-6.288731287702831-5.284640466968995-11.908782939000957-9.831851918999746-16.752202069175837-.647669408099318-.689853815820243-1.334959274779976-1.466311011674406-.537092550839589-2.509668063383288,1.022387222928955-.651055793776322,2.206620324510368-.755571572612098,3.351785573189773-.992012314756721,1.116612431860631-.199498245910945,2.233350912631067-.676656936357176,3.349570583410241.00150122265768Z" style="fill: #c46343; stroke-width: 0px;"/>
          <path d="M34.763298516460054,68.132981911436218c.021445668140586,2.39581256110614,2.221653026339482,3.373791548739973,3.426801111909299,4.922823216151301,3.162581602120554,4.064996830213204,5.468257183390961,8.504426350868016,7.199705110790092,13.306315306814213.365812185789764,1.014519696778734.423248469471218,2.223672363124933,1.476114865290583,2.90341940743383-3.306578773350338,1.255895114856685-6.737301102239144,2.067410060248221-10.178737587919386,2.840550686338247-1.125031219849916-1.206559313337493-1.296812126920486-2.866962708314531-2.026184059401203-4.269422446839599-2.1242857288089-4.084640566095914-4.960198810049405-7.357908638583467-9.420511874030126-8.984664191433694-.760284512649378-.277287878328934-1.786000385698571-.469506472767534-1.537574209798549-1.717409677228716,2.220532743878721-4.801184002240916,5.921660569518281-7.784120726555557,11.060386643159291-9.001612301235582Z" style="fill: #d3764e; stroke-width: 0px;"/>
          <path d="M23.702911873300764,77.1345942126718c.299330294848914.760568342913757.98965104394847.901347232545959,1.668732660838941,1.162242197777232,6.38328042601097,2.452413403658284,9.804553654130359,7.35398938819344,11.315533828799744,13.809232202067506-3.786329120488517,1.095600330685556-7.571346601658661,2.195759118490969-11.360000319678875,3.283257960483752-.853027276871217.244856355286174-1.588873373329989.139113299530436-1.902352429229722-.846353538338008-1.75650836755085-5.521800098391395-2.922929097820088-11.054101450161397-.232908459820464-16.636600619382079.132699581568886-.275384868586116.338978840420168-.515328463592596.510994719090377-.771778202608402Z" style="fill: #df8458; stroke-width: 0px;"/>
          <path d="M50.112413240360183,70.358539021253819c-.673137680380023-.419977082921832-1.346275360760046-.839954165843665-2.019833204140014-1.259770533932169,15.663717259169061-4.395850232289376,31.368957584649252-8.652057536615757,46.977224287069475-13.238124733139557,10.03632059497977-2.948903531843825,20.030113385999357-6.068648758864583,30.050643158920138-9.06681686633965,11.084609040770374-3.316542367931106,22.078806308649291-6.963836778017139,33.314389053439299-9.791391478436708,5.379357997331681-1.353770905527199,10.653200274900883-3.124531972254772,15.983804748531838-4.675655671970162,1.06980079198911-.31129481766402,1.935073537148128-.743992571035051,2.089474309908837-1.977037871696666,1.375153347209562-.109261660498305,2.610505672930231.355166657252994,3.818879879710948.930188011800055-.700393472261567,1.292827566412598-2.083584720561703,1.424214682916499-3.25856510191079,1.764315580032417-16.376814268740418,4.740294082545006-32.773489460350902,9.411860657768557-49.153767333749784,14.140251797896781-18.892691924289466,5.453635092988407-37.718428132500776,11.139581652660127-56.718974075050937,16.218048054310202-6.280578428319131,1.678670096942369-12.531274132548788,3.471831250277319-18.772046682519431,5.293417013625003-.883803760769297.257965572109242-2.206369140109018.199341183688375-2.311229040209582,1.662576697850454Z" style="fill: #fbc274; stroke-width: 0px;"/>
          <path d="M41.464654673060068,67.142470819337177c-1.116612431860631-.000485797114379-2.233223036919298-.000967941614363-3.349703939500614-.001479306996771,1.051198531360569-.546876055046596,2.155642677051219-.904331414814806,3.349777011329934-.943545834383258-.000023748340027.315012033068342-.000047496689149.630020413529564-.00007307182932.945025141380029Z" style="fill: #fbc274; stroke-width: 0px;"/>
          <g>
            <path d="M186.728387584409575,97.410725587244087c.502343299989661.969269492230524,1.659445258361302,1.41368245630656,1.928097639090993,2.611544428385969.529741193930022,2.362004865633935-.522469093360996,3.972642885128153-3.394897812369891,4.782024982639996-10.456923574760367,2.946513027593028-20.919049834690668,5.874765364889754-31.386247619660935,8.784632343798876-6.872397360299146,1.910515736199159-13.756894242649651,3.777579637957388-20.635969839589961,5.664106321601139-1.446987706900472-1.996749655332678-2.052630539710663-4.298730475369666-2.429326077990481-6.683771183164936,9.953388903570158-2.824878830691887,19.903648180699747-5.660818541960907,29.86119777507156-8.470982443042885,7.379790325319846-2.082682369084068,14.769789280810073-4.12921690685107,22.151853048399062-6.203909598316386.363328134959374-.102113175908016.694113984200158-.319785481773579,1.040056115190964-.483645875636284.955078923958354.000001023734512,1.910157847909431.000001023734512,2.86523677185869.000001023734512Z" style="fill: #da844e; stroke-width: 0px;"/>
            <path d="M141.281599089870724,153.672856047465757c8.069594241909726-2.313905277391314,16.131836229829787-4.653785196922399,24.210680904279798-6.935007414922438,9.693025114420379-2.737023316396517,19.398459434529286-5.430254463564779,29.102166812908763-8.129400520134368,3.457708941561577-.961778828215756,5.822322068470385.591374461782834,5.552409093150345,3.623586336707376-.174246233440499,1.95753289602726-1.448292021530506,2.855732818094111-3.203469601849065,3.344715648236161-13.676110532231178,3.810075240213337-27.345109270720059,7.645626450208511-41.021933897000054,11.453135529729479-4.043612174729788,1.125700077398506-8.105218790700746,2.186874863145931-12.158580535129659,3.27761327605549-.585662772929936-2.301667784831807-.720644763950986-4.771577432667982-2.481272776360129-6.6346428556717Z" style="fill: #da844e; stroke-width: 0px;"/>
            <path d="M130.810043873889299,112.569262480505131c1.441515414790047,1.998738884863997,1.768581416990855,4.401786396843818,2.429326077990481,6.683776643083547-11.587268866489467,3.258225113029766-23.168606380399069,6.537760279647046-34.76578785592028,9.760381278032582-3.073560046708735.854080157860153-5.415848284819731-1.199922180523572-4.867643911578853-4.137564663989906.318271100639322-1.705506796366535,1.495841439898868-2.506776823131077,3.065572030420299-2.93969541201659,9.476447859688051-2.61353274792782,18.947525440698882-5.24650097815902,28.423249187169858-7.862661765833764,1.898779706578352-.524235690161731,3.809870248738662-1.003978521832323,5.715284471918494-1.50423607927587Z" style="fill: #d4804a; stroke-width: 0px;"/>
            <path d="M141.281599089870724,153.672856047465757c1.909086706849848.909036036089674,3.162179664079304,4.25967751355347,2.481269133018941,6.634650135561969-11.115861140609923,3.135520772517339-22.227009624870334,6.2879017667874-33.350430689670247,9.396435992664919-3.40070529148943.950353043226642-5.770776137158464-.747207754851843-5.397876955999891-3.780089379517449.239869107919731-1.950908197497483,1.577150473949587-2.733976683059154,3.331425417531136-3.215432108499954,9.770577184948706-2.68147412725375,19.525695691168949-5.41911623417036,29.28901170555946-8.127085515588988,1.206684131049769-.334689233492099,2.430644965950705-.607171819814539,3.646601389560601-.908479124620499Z" style="fill: #d4804a; stroke-width: 0px;"/>
            <path d="M164.300595481359778,132.602216151222819c-11.605332531129534,3.291641621181043-23.175769180859788,6.709177994001948-34.878433458859945,9.649674193755345-1.743551692079564-1.934473849225469-2.152377819000321-4.250828809090308-1.933886901530059-6.746662139848922,11.86332450791997-3.558828088622249,23.786556405470037-6.903161542712041,35.78553327840018-9.97629549082194,1.29001817732933-.146962748938677,2.255393171530159.667813290951017,3.231982356890512,1.248247900301067,1.325489705968721.78780041308346,1.491975631668538,2.378128453670797.371438203039361,3.406831296797463-.867609690229074.796510799660609-1.477467863900529,1.873490223326371-2.576633477940049,2.418204239816987Z" style="fill: #d9834d; stroke-width: 0px;"/>
            <path d="M139.899225963959907,176.060325853526592c9.350977710641018-2.66673235306007,18.690314959691023-5.375491502381919,28.061975894239367-7.967590438616753,2.071827282161394-.573043702559517,3.967703249179976.713145156594692,4.421036380401347,2.601948625364457.468525846328703,1.952131218764407-.549050879830247,3.856833964000543-2.617905199020242,4.438344176880491-9.13909944973966,2.568854252276651-18.298200819401245,5.066664072757703-27.450059235190565,7.590201019171218-1.1015337830504-2.113693784074712-1.856090727420451-4.352914685419819-2.415047840429907-6.662903382799414Z" style="fill: #dc854f; stroke-width: 0px;"/>
            <path d="M139.899225963959907,176.060325853526592c1.55824428762935,1.948462154963636,2.18486909800049,4.233968587344862,2.415047840429907,6.662903382799414-8.931691563309869,2.534369420489384-17.856125599389998,5.094779002116411-26.800361171850454,7.584151431838109-2.140094308439075.595633196549898-4.111764435900113-.445085102532175-4.669420877618904-2.225068798117718-.627408127809758-2.002617245459987.201511145569384-4.089724876761466,2.205457595158805-4.65570708748055,8.930809875770137-2.522386724034732,17.896311606060408-4.922187405743898,26.849276613880647-7.366278929039254Z" style="fill: #d6814b; stroke-width: 0px;"/>
            <path d="M164.300595481359778,132.602216151222819c.722947352909614-.972745980230684.948848817759426-2.182860004639224,2.233686169920475-2.912217472905468,1.266285480369334-.718816189732024.618427302209966-2.174571851592191-.456524694391192-2.516695671201887-1.125055166459788-.358070415357361-1.844155155538829-1.154350078559219-2.803882977448666-1.644324793505803,8.822886948339146-2.522763458262489,17.635434106399771-5.082832705102192,26.476224412559532-7.541525864744472,2.168055097939941-.602951304455928,4.079378813670701.509200900454744,4.588797474039893,2.333910410965473.608189525350099,2.178450212188181-.464387015550528,4.089519219909562-2.800137627060394,4.742230382187699-9.073074897369224,2.535406804599916-18.15778661297918,5.029289125239302-27.238162757619648,7.538623009204457Z" style="fill: #dd8651; stroke-width: 0px;"/>
            <path d="M127.488275120969774,135.505228205129242c.644630181619505,2.248888593265292,1.289260363240828,4.497777186530584,1.933890544860333,6.746662139848922-8.450266482459483,2.404317852520762-16.8922389083491,4.838377689477056-25.356306351210151,7.193170460581314-2.268873518280088.631217291502253-4.209751072590734-.461286494370142-4.710469899719101-2.403808260325604-.556643138630534-2.159477002798667.525458906749918-4.06022676858629,2.919563935509359-4.657628978042339,7.481685351740452-1.866898284293711,14.748333669449494-4.540360894265177,22.363255853810188-5.915688348060939.961287170130163-.173618060653098,1.756379881509929-1.045435666826961,2.850065916749372-.962707014001353Z" style="fill: #d47f4a; stroke-width: 0px;"/>
          </g>
        </g>
      </g>
    </a>
  </g>
  <g id="Pattern">
    <a xlink:href="https://www.notion.so/dmmnotes/Type-C-162696deae144fea8a7d2776d67b5fc9?pvs=4">
      <g id="C">
        <path d="M49.689453125,268.359375c-20.392578125,0-36.982421875-16.26953125-36.982421875-36.2685546875,0-19.998046875,16.58984375-36.267578125,36.982421875-36.267578125s36.982421875,16.26953125,36.982421875,36.267578125c0,19.9990234375-16.58984375,36.2685546875-36.982421875,36.2685546875Z" style="fill: url(#C4); stroke-width: 0px;"/>
        <path d="M49.689575195310681,202.6112060546875c16.676025390628638,0,30.194580078128638,13.1986083984375,30.194580078128638,29.47991943359375,0,16.2813720703125-13.5185546875,29.47998046875-30.194458007808862,29.48004150390625-16.676025390630457,0-30.194580078130457-13.1986083984375-30.194580078130457-29.47991943359375,0-16.2813720703125,13.5185546875-29.47998046875,30.194458007810681-29.48004150390625M49.689575195310681,189.034423828125h-.000122070310681c-24.135498046869543.0001220703125-43.771118164060681,19.3153076171875-43.771118164060681,43.05682373046875s19.6357421875,43.05670166015625,43.771362304691138,43.05670166015625c24.135620117180224-.0001220703125,43.771240234369543-19.3153076171875,43.771240234369543-43.05682373046875s-19.6357421875-43.05670166015625-43.771362304689319-43.05670166015625h0Z" style="fill: #181818; stroke-width: 0px;"/>
      </g>
    </a>
    <a xlink:href="https://www.notion.so/dmmnotes/Type-C-162696deae144fea8a7d2776d67b5fc9?pvs=4">
      <g>
        <path d="M57.3828125,179.5205078125c.052734375-1.5283203125-.2021484375-2.6748046875-.76953125-3.439453125-.56640625-.7626953125-1.2822265625-1.2373046875-2.1455078125-1.4228515625-.8642578125-.18359375-1.794921875-.0908203125-2.79296875.27734375-1,.369140625-1.9033203125.896484375-2.712890625,1.580078125-1.8896484375,1.5810546875-3.4140625,3.59765625-4.57421875,6.0478515625-1.162109375,2.4501953125-1.943359375,5.01953125-2.3486328125,7.7080078125-.404296875,2.6875-.4326171875,5.3623046875-.0810546875,8.0234375.3505859375,2.6611328125,1.1201171875,4.9677734375,2.3076171875,6.9169921875.755859375,1.2646484375,1.66015625,2.201171875,2.712890625,2.8056640625,1.052734375.607421875,2.171875.94921875,3.3603515625,1.0283203125,1.1865234375.0791015625,2.3603515625-.10546875,3.521484375-.5537109375,1.16015625-.447265625,2.19921875-1.119140625,3.1171875-2.015625,1.4033203125-1.3701171875,2.537109375-2.3447265625,3.400390625-2.9248046875.86328125-.5791015625,1.8349609375-.8955078125,2.9150390625-.9482421875,3.0771484375,0,5.1142578125.8427734375,6.11328125,2.529296875.998046875,1.6875,1.0654296875,3.7421875.2021484375,6.166015625-.7021484375,1.8974609375-1.7685546875,3.5576171875-3.1982421875,4.98046875-1.4306640625,1.4228515625-3.0908203125,2.568359375-4.9794921875,3.4384765625-1.8896484375.869140625-3.9140625,1.4755859375-6.072265625,1.818359375-2.1591796875.341796875-4.291015625.4345703125-6.396484375.2763671875s-4.1025390625-.5927734375-5.9912109375-1.3046875c-1.890625-.7109375-3.509765625-1.671875-4.8583984375-2.884765625-1.51171875-1.3701171875-2.833984375-2.9375-3.9677734375-4.7041015625-1.1328125-1.7646484375-2.078125-3.6357421875-2.8330078125-5.6123046875-.7568359375-1.9765625-1.32421875-4.03125-1.701171875-6.166015625-.3779296875-2.134765625-.56640625-4.28125-.56640625-6.4423828125.107421875-4.8486328125,1.16015625-9.5380859375,3.158203125-14.0712890625,1.99609375-4.5322265625,4.6416015625-8.484375,7.9345703125-11.857421875,1.5107421875-1.5283203125,3.3056640625-2.8330078125,5.3837890625-3.9130859375s4.2109375-1.779296875,6.396484375-2.095703125c2.1865234375-.3154296875,4.33203125-.2099609375,6.4375.31640625,2.1044921875.52734375,3.966796875,1.634765625,5.5869140625,3.3203125,1.240234375,1.2646484375,2.2392578125,2.71484375,2.9951171875,4.34765625.755859375,1.634765625,1.322265625,3.2685546875,1.7001953125,4.9013671875.2158203125,1.0546875.310546875,2.0556640625.2841796875,3.00390625-.0283203125.9482421875-.2568359375,1.845703125-.6884765625,2.6875-.5947265625,1.0546875-1.51171875,1.806640625-2.7529296875,2.2529296875-1.2421875.44921875-2.4697265625.5927734375-3.6845703125.435546875-1.2138671875-.158203125-2.2666015625-.619140625-3.1572265625-1.3837890625-.890625-.763671875-1.3095703125-1.8046875-1.2548828125-3.1220703125Z" style="fill: none; stroke: #181818; stroke-linecap: round; stroke-linejoin: round; stroke-width: 26.354898452758789px;"/>
        <path d="M57.3828125,179.5205078125c.052734375-1.5283203125-.2021484375-2.6748046875-.76953125-3.439453125-.56640625-.7626953125-1.2822265625-1.2373046875-2.1455078125-1.4228515625-.8642578125-.18359375-1.794921875-.0908203125-2.79296875.27734375-1,.369140625-1.9033203125.896484375-2.712890625,1.580078125-1.8896484375,1.5810546875-3.4140625,3.59765625-4.57421875,6.0478515625-1.162109375,2.4501953125-1.943359375,5.01953125-2.3486328125,7.7080078125-.404296875,2.6875-.4326171875,5.3623046875-.0810546875,8.0234375.3505859375,2.6611328125,1.1201171875,4.9677734375,2.3076171875,6.9169921875.755859375,1.2646484375,1.66015625,2.201171875,2.712890625,2.8056640625,1.052734375.607421875,2.171875.94921875,3.3603515625,1.0283203125,1.1865234375.0791015625,2.3603515625-.10546875,3.521484375-.5537109375,1.16015625-.447265625,2.19921875-1.119140625,3.1171875-2.015625,1.4033203125-1.3701171875,2.537109375-2.3447265625,3.400390625-2.9248046875.86328125-.5791015625,1.8349609375-.8955078125,2.9150390625-.9482421875,3.0771484375,0,5.1142578125.8427734375,6.11328125,2.529296875.998046875,1.6875,1.0654296875,3.7421875.2021484375,6.166015625-.7021484375,1.8974609375-1.7685546875,3.5576171875-3.1982421875,4.98046875-1.4306640625,1.4228515625-3.0908203125,2.568359375-4.9794921875,3.4384765625-1.8896484375.869140625-3.9140625,1.4755859375-6.072265625,1.818359375-2.1591796875.341796875-4.291015625.4345703125-6.396484375.2763671875s-4.1025390625-.5927734375-5.9912109375-1.3046875c-1.890625-.7109375-3.509765625-1.671875-4.8583984375-2.884765625-1.51171875-1.3701171875-2.833984375-2.9375-3.9677734375-4.7041015625-1.1328125-1.7646484375-2.078125-3.6357421875-2.8330078125-5.6123046875-.7568359375-1.9765625-1.32421875-4.03125-1.701171875-6.166015625-.3779296875-2.134765625-.56640625-4.28125-.56640625-6.4423828125.107421875-4.8486328125,1.16015625-9.5380859375,3.158203125-14.0712890625,1.99609375-4.5322265625,4.6416015625-8.484375,7.9345703125-11.857421875,1.5107421875-1.5283203125,3.3056640625-2.8330078125,5.3837890625-3.9130859375s4.2109375-1.779296875,6.396484375-2.095703125c2.1865234375-.3154296875,4.33203125-.2099609375,6.4375.31640625,2.1044921875.52734375,3.966796875,1.634765625,5.5869140625,3.3203125,1.240234375,1.2646484375,2.2392578125,2.71484375,2.9951171875,4.34765625.755859375,1.634765625,1.322265625,3.2685546875,1.7001953125,4.9013671875.2158203125,1.0546875.310546875,2.0556640625.2841796875,3.00390625-.0283203125.9482421875-.2568359375,1.845703125-.6884765625,2.6875-.5947265625,1.0546875-1.51171875,1.806640625-2.7529296875,2.2529296875-1.2421875.44921875-2.4697265625.5927734375-3.6845703125.435546875-1.2138671875-.158203125-2.2666015625-.619140625-3.1572265625-1.3837890625-.890625-.763671875-1.3095703125-1.8046875-1.2548828125-3.1220703125Z" style="fill: #fff; stroke-width: 0px;"/>
      </g>
    </a>
  </g>
</svg>