<?xml version="1.0" encoding="UTF-8"?>
<svg id="Pattern" xmlns="http://www.w3.org/2000/svg" width="280" height="280" xmlns:xlink="http://www.w3.org/1999/xlink" viewBox="0 0 280 280">
  <defs>
    <linearGradient id="A4" x1="54.062819638716974" y1="261.793577588548942" x2="104.504245521148732" y2="198.61441789743003" gradientTransform="translate(-12.959882432419363 -20.828638646431727) rotate(-5.229501706695723) scale(1.257162611749954 1.104749122187873) skewX(-4.596438063393945)" gradientUnits="userSpaceOnUse">
      <stop offset="0" stop-color="#7d67a2"/>
      <stop offset=".385181145631382" stop-color="#895ea4"/>
      <stop offset=".489316239316239" stop-color="#8e5ba6"/>
      <stop offset=".841924594895194" stop-color="#9a5c9d"/>
      <stop offset="1" stop-color="#a25d99"/>
    </linearGradient>
  </defs>
  <a xlink:href="https://www.notion.so/dmmnotes/Type-A-d0420320e0bf4731b311ee86887d6ca3?pvs=4">
    <g id="A">
      <path d="M84.07696872967972,264.860330784574217c-18.814453125,0-34.87890625-9.81298828125-40.9267578125-25-3.65234375-9.17138671875-3.318359375-19.46923828125.939453125-28.99658203125,5.23828125-11.720703125,15.8779296875-21.2392578125,29.1884765625-26.11572265625,6.2529296875-2.29052734375,12.724609375-3.4521484375,19.234375-3.4521484375,18.814453125,0,34.8798828125,9.8134765625,40.927734375,25.00048828125,3.65234375,9.17138671875,3.318359375,19.46923828125-.939453125,28.99609375-5.23828125,11.720703125-15.876953125,21.2392578125-29.1884765625,26.11572265625-6.25390625,2.291015625-12.724609375,3.4521484375-19.2353515625,3.4521484375Z" fill="url(#A4)" stroke-width="0"/>
      <path d="M92.51312595624222,189.542856419339842c14.9600830078125-.000213623046875,28.3135986328125,7.37017822265625,33.2652587890625,19.80438232421875,6.72705078125,16.892410278320312-4.601318359375,36.733993530273438-25.302734375,44.317474365234375-5.46337890625,2.001388549804688-11.0341796875,2.949020385742188-16.3980712890625,2.949020385742188-14.9600830078125,0-28.313720703125-7.370193481445312-33.265380859375-19.804397583007812-6.72705078125-16.892410278320312,4.6014404296875-36.733993530273438,25.302734375-44.317413330078125,5.46337890625-2.00140380859375,11.0343017578125-2.948974609375,16.398193359375-2.949066162109375M92.51373630780472,173.049082005277342h-.0008544921875c-7.48095703125.00006103515625-14.9068603515625,1.330902099609375-22.0714111328125,3.955535888671875-15.3895263671875,5.6375732421875-27.7384033203125,16.751983642578125-33.880615234375,30.49334716796875-5.175048828125,11.577896118164062-5.5557861328125,24.154693603515625-1.0721435546875,35.41363525390625,7.304931640625,18.34332275390625,26.377197265625,30.195892333984375,48.5888671875,30.195892333984375,7.480712890625,0,14.9066162109375-1.330780029296875,22.0714111328125-3.955413818359375,15.3896484375-5.63763427734375,27.7386474609375-16.751998901367188,33.880615234375-30.493377685546875,5.175048828125-11.57794189453125,5.555908203125-24.15472412109375,1.0721435546875-35.413726806640625-7.3048095703125-18.34332275390625-26.3768310546875-30.195892333984375-48.5880126953125-30.195892333984375h0Z" fill="#3d2747" stroke-width="0"/>
    </g>
  </a>
  <a xlink:href="https://www.notion.so/dmmnotes/Type-A-d0420320e0bf4731b311ee86887d6ca3?pvs=4">
    <g>
      <path d="M61.087890625,166.04150390625c2.1376953125,1.18212890625,3.9677734375,2.63232421875,5.4873046875,4.3505859375,1.51953125,1.7197265625,2.798828125,3.59912109375,3.8408203125,5.64013671875,1.0400390625,2.0419921875,1.8701171875,4.20361328125,2.490234375,6.48583984375.6181640625,2.28369140625,1.09765625,4.580078125,1.4345703125,6.888671875.7880859375,4.56640625,1.2373046875,9.18505859375,1.3505859375,13.8583984375.1123046875,4.6728515625.0283203125,9.37353515625-.2529296875,14.099609375-.11328125,1.34326171875-.2255859375,2.44482421875-.337890625,3.3037109375-.11328125.85986328125-.32421875,1.55810546875-.6328125,2.0947265625-.3095703125.53759765625-.74609375.966796875-1.30859375,1.2890625-.5634765625.322265625-1.3505859375.61669921875-2.36328125.88623046875-.9580078125.10693359375-1.9560546875.1875-2.9970703125.24169921875-1.0419921875.052734375-2.0126953125-.21533203125-2.912109375-.8056640625-.8447265625-.5361328125-1.548828125-1.4501953125-2.1103515625-2.7392578125-.5634765625-1.2890625-.8740234375-3.142578125-.9287109375-5.5595703125v-.8056640625c-1.408203125-.1611328125-3.08203125-.29443359375-5.0234375-.40283203125-1.94140625-.10693359375-3.9248046875-.173828125-5.951171875-.20166015625-2.0263671875-.0263671875-3.982421875-.0400390625-5.8671875-.0400390625h-4.76953125c-.056640625.4833984375-.126953125,1.2890625-.2109375,2.4169921875-.0849609375,1.1279296875-.267578125,2.255859375-.548828125,3.38427734375-.2822265625,1.1279296875-.662109375,2.14892578125-1.1396484375,3.0615234375-.478515625.9140625-1.1396484375,1.39599609375-1.9833984375,1.4501953125-.7890625.052734375-1.6884765625.10693359375-2.7021484375.1611328125-1.0126953125.052734375-1.998046875-.05419921875-2.9541015625-.322265625-.9580078125-.2138671875-1.759765625-.64453125-2.40625-1.2890625-.6474609375-.64453125-1-1.66455078125-1.0546875-3.0615234375,0-1.66455078125.02734375-3.57177734375.083984375-5.720703125.0556640625-2.14794921875.1689453125-4.484375.337890625-7.009765625.1123046875-2.0947265625.294921875-4.39111328125.548828125-6.888671875.2529296875-2.49755859375.6181640625-5.06201171875,1.09765625-7.6943359375.4765625-2.63134765625,1.0966796875-5.263671875,1.8564453125-7.89599609375.759765625-2.63134765625,1.716796875-5.12890625,2.8701171875-7.4931640625,1.1533203125-2.36279296875,2.5185546875-4.53857421875,4.0947265625-6.5263671875,1.5751953125-1.986328125,3.4609375-3.65185546875,5.65625-4.9951171875,2.587890625-1.5576171875,5.4296875-2.33642578125,8.525390625-2.33642578125,3.0947265625,0,6.021484375.72509765625,8.7802734375,2.17529296875ZM40.57421875,202.701171875c3.544921875-.2685546875,7.076171875-.4697265625,10.5947265625-.6044921875,3.515625-.13330078125,7.048828125-.1474609375,10.59375-.0400390625.1689453125-3.8134765625,0-7.2236328125-.505859375-10.23291015625-.5068359375-3.00732421875-1.2109375-5.54541015625-2.111328125-7.61376953125-.900390625-2.06689453125-1.9697265625-3.65185546875-3.20703125-4.75341796875-1.2392578125-1.1005859375-2.5048828125-1.65185546875-3.798828125-1.65185546875-1.126953125,0-2.2939453125.55126953125-3.50390625,1.65185546875-1.2109375,1.1015625-2.3359375,2.712890625-3.376953125,4.833984375-1.0419921875,2.12255859375-1.9833984375,4.7412109375-2.8271484375,7.85595703125-.8447265625,3.11572265625-1.46484375,6.63427734375-1.857421875,10.5546875Z" fill="none" stroke="#3d2747" stroke-linecap="round" stroke-linejoin="round" stroke-width="27.168022155761719"/>
      <path d="M61.087890625,166.04150390625c2.1376953125,1.18212890625,3.9677734375,2.63232421875,5.4873046875,4.3505859375,1.51953125,1.7197265625,2.798828125,3.59912109375,3.8408203125,5.64013671875,1.0400390625,2.0419921875,1.8701171875,4.20361328125,2.490234375,6.48583984375.6181640625,2.28369140625,1.09765625,4.580078125,1.4345703125,6.888671875.7880859375,4.56640625,1.2373046875,9.18505859375,1.3505859375,13.8583984375.1123046875,4.6728515625.0283203125,9.37353515625-.2529296875,14.099609375-.11328125,1.34326171875-.2255859375,2.44482421875-.337890625,3.3037109375-.11328125.85986328125-.32421875,1.55810546875-.6328125,2.0947265625-.3095703125.53759765625-.74609375.966796875-1.30859375,1.2890625-.5634765625.322265625-1.3505859375.61669921875-2.36328125.88623046875-.9580078125.10693359375-1.9560546875.1875-2.9970703125.24169921875-1.0419921875.052734375-2.0126953125-.21533203125-2.912109375-.8056640625-.8447265625-.5361328125-1.548828125-1.4501953125-2.1103515625-2.7392578125-.5634765625-1.2890625-.8740234375-3.142578125-.9287109375-5.5595703125v-.8056640625c-1.408203125-.1611328125-3.08203125-.29443359375-5.0234375-.40283203125-1.94140625-.10693359375-3.9248046875-.173828125-5.951171875-.20166015625-2.0263671875-.0263671875-3.982421875-.0400390625-5.8671875-.0400390625h-4.76953125c-.056640625.4833984375-.126953125,1.2890625-.2109375,2.4169921875-.0849609375,1.1279296875-.267578125,2.255859375-.548828125,3.38427734375-.2822265625,1.1279296875-.662109375,2.14892578125-1.1396484375,3.0615234375-.478515625.9140625-1.1396484375,1.39599609375-1.9833984375,1.4501953125-.7890625.052734375-1.6884765625.10693359375-2.7021484375.1611328125-1.0126953125.052734375-1.998046875-.05419921875-2.9541015625-.322265625-.9580078125-.2138671875-1.759765625-.64453125-2.40625-1.2890625-.6474609375-.64453125-1-1.66455078125-1.0546875-3.0615234375,0-1.66455078125.02734375-3.57177734375.083984375-5.720703125.0556640625-2.14794921875.1689453125-4.484375.337890625-7.009765625.1123046875-2.0947265625.294921875-4.39111328125.548828125-6.888671875.2529296875-2.49755859375.6181640625-5.06201171875,1.09765625-7.6943359375.4765625-2.63134765625,1.0966796875-5.263671875,1.8564453125-7.89599609375.759765625-2.63134765625,1.716796875-5.12890625,2.8701171875-7.4931640625,1.1533203125-2.36279296875,2.5185546875-4.53857421875,4.0947265625-6.5263671875,1.5751953125-1.986328125,3.4609375-3.65185546875,5.65625-4.9951171875,2.587890625-1.5576171875,5.4296875-2.33642578125,8.525390625-2.33642578125,3.0947265625,0,6.021484375.72509765625,8.7802734375,2.17529296875ZM40.57421875,202.701171875c3.544921875-.2685546875,7.076171875-.4697265625,10.5947265625-.6044921875,3.515625-.13330078125,7.048828125-.1474609375,10.59375-.0400390625.1689453125-3.8134765625,0-7.2236328125-.505859375-10.23291015625-.5068359375-3.00732421875-1.2109375-5.54541015625-2.111328125-7.61376953125-.900390625-2.06689453125-1.9697265625-3.65185546875-3.20703125-4.75341796875-1.2392578125-1.1005859375-2.5048828125-1.65185546875-3.798828125-1.65185546875-1.126953125,0-2.2939453125.55126953125-3.50390625,1.65185546875-1.2109375,1.1015625-2.3359375,2.712890625-3.376953125,4.833984375-1.0419921875,2.12255859375-1.9833984375,4.7412109375-2.8271484375,7.85595703125-.8447265625,3.11572265625-1.46484375,6.63427734375-1.857421875,10.5546875Z" fill="#fff" stroke-width="0"/>
    </g>
  </a>
  <a xlink:href="https://www.notion.so/dmmnotes/semantic-thought-2477648bf2934c578347c35b7291e8b9?pvs=4">
    <g>
      <g>
        <path d="M236.639609597217714,126.207401729613593c.087085554083387-.020948782072992.174471162683403-.022339060265949.262174754443549-.00418212000659l.304497892107975,3.088847142203122c-.089822471894877.017715955837957-.179995596507069.033420104853576-.270510874135653.047102091125453-.538314291205097-.372807336029837-.553604565175192-.957295902398982-.619833879096404-1.522219375978239-.049266860813077-.567756826917503-.146537894157518-1.146248193686915.323672106680533-1.609547737343746Z" fill="none" stroke="#ac5834" stroke-linecap="round" stroke-linejoin="round" stroke-width="29.255131838457924"/>
        <path d="M188.927064060386328,41.726306326420854c2.161601723410058,5.506189845572408,4.334361599128897,11.008034078375204,6.482476427157962,16.519477262565488,4.335307534622189,11.12309220212137,8.657082423009342,22.251456529998904,12.984707107445502,33.377545219833337,4.420859699543144,11.365793799868698,8.842763633603681,22.731170564691638,13.259249316432033,34.098661450730106.128431955465203.330578007902659.200673280218325.68298060676716.299112489759864,1.025214762565156-.845814780033834.760768137662126-1.954453036632913.922482709289397-2.975014104780712,1.248885367310322-11.63871246724193,3.722403770807432-23.053257639860021,8.030796378055129-34.222387696632723,12.989090678112007-3.525359095438034,1.56499799890571-7.319780401732714,2.190479232533107-11.035533367659809,3.082029247749233-.642754405009327.154221601847894-1.337290968371235.20781220428762-1.971541030567096-.149608078049823-1.027037718949941-.990167048257717-1.37446317254944-2.28826926261172-1.589358891395023-3.625258615594248-.543304175476806-3.380237883787231-.479399680474671-6.804267852587145-.583585687956656-10.207967878001-.074218853154889-2.424442206135609-.190794136351542-4.851485753993074-.273617653414476-7.274556223150284-.225794474268696-6.605261621558384-.462232703004702-13.211196745520283-.735162378283349-19.814514906428485-.176984436535349-4.281823076896217-.370868179294121-8.566063453958122-.529101553078362-12.848221641590499-.221173826195809-5.985299329887312-.487113238072197-11.969631200783624-.648184546907942-17.957933392161976-.097164050919673-3.612446626616475-.179762314412073-7.234847772489047-.441534402154502-10.832490317811789-.166914146877389-2.293899611484449,1.075275615243299-3.676480646586242,2.23445474925029-5.222381317280451,2.739412270193498-3.653332863903415,5.98691446099474-6.831451273361381,9.356024793471079-9.893561846911325.542567268155835-.493132983041505,1.122223858701545-.909226078634674,1.791659664611871-1.206430636069854,2.644934741440011-1.174240877379816,5.451574902856009-1.963540335068501,8.003054810887988-3.361752782909207.186676664376137-.102303883582863.402867991724634-.042831791886783.594281953814061.053773647093294Z" fill="none" stroke="#ac5834" stroke-linecap="round" stroke-linejoin="round" stroke-width="29.255131838457924"/>
        <path d="M188.927064060386328,41.726306326420854c-2.019291915688882,1.585158581574433-4.542894359599813,2.073141626494362-6.824457692644501,3.081071766425339-1.373151180114291.606618729563706-2.620817172193711,1.238001707361946-3.785087799873509,2.249753371824227-3.976527869575875,3.455615268166184-7.312771817885732,7.461783382191243-10.506414617711926,11.610229747684571-.254756288726639.330923013363645-.54399014433875.656305018525018-.463636255377423,1.107323591430031.237553664841471,1.333308998608118.022616081685555,2.673309459029042.082632107712925,4.005866899165085.201488713008075,4.472932572704849.547359928985315,8.941259425339922.659182622226581,13.415821355715707.127195008855779,5.089628563280712.367493904879666,10.172780716851776.55379630643256,15.258776389366176.188209723490218,5.137890249315205.407030129495979,10.274352413263841.595182431061403,15.411853325430457.191948688603588,5.241201444349826.321689383026751,10.482976816369046.615926581962412,15.721661506337114.265058987806697,4.719412065212055.330274302868929,9.44995845989979.491451296784362,14.175328081331827.072803960651072,2.134167888948468.451345391564246,4.195355639621994,1.531831158428758,6.077603107912182.142772566845451.480396118035969-.241293296623553.645484609419327-.534944745568282.812672415146153-3.137081987351849,1.786154369456199-6.294655631392743,3.536637446653003-9.366500524827643,5.435374067404155-.173818147753991.107432402556697-.388481337269695.135846584477804-.592543510036194.178311298631343-2.759569414443831.655356944822415-5.499779483627208,1.403662027284554-8.329597398500482,1.699500321201413-2.092964903897155.218802156541642-4.17967480765401.378547059594894-6.251303022736465.860436896434294-1.602073591951921.37265858237879-2.471459178332225-.286432080042687-3.030298334742838-1.653343398036668-.573291478825922-5.084271830729449-.529076855229505-10.198274322958241-.728263340235571-15.299846778974825-.08651614325936-2.215946523219827-.178122954148421-4.434037218808044-.265447497466084-6.649009356332499-.262125788744015-6.64926066551925-.446979588037721-13.302112665214736-.750402661855333-19.948349235278329-.277640466063531-6.081394821956565-.5087864646448-12.165631261113049-.738643042108379-18.247700968538084-.225945649182904-5.978366189666303-.382025430737485-11.964419255253233-.684881414823394-17.936636102382181-.217567746989516-4.290195807565397,1.030446732502242-8.137064096329595,2.464104747214151-12.012645798008634.470758527844737-.732932470637934,1.252874990734199-1.044721519647283,1.975548026066463-1.436638811775083,6.306155776168453-3.419930914227734,12.669069174344258-6.739752242753639,19.102455492133231-9.904695416915274,7.579681388469908-3.728872747207788,15.025496286449197-7.773529774493909,23.032228542386292-10.582448294456299.195825850611072-.068695850870427.389865977114823-.133679721368935.597059631176307-.153022152903759.383674343696839.907584450153081.767348571229377,1.815167722007573,1.151022914922578,2.722752172161563Z" fill="none" stroke="#ac5834" stroke-linecap="round" stroke-linejoin="round" stroke-width="29.255131838457924"/>
        <path d="M143.424762242240831,60.878612170196902c-.671829332246489,2.690594110360507-1.606191764500181,5.303362721727353-2.243815899893889,8.011607815639763-.478570289486015,2.032669442072802-.053634913409041,4.010174672272115-.014908142722561,5.973707736254255.053486011667701,2.711693485794058.184386097913375,5.449920437988112.335163554847895,8.171568205970289.317844570263333,5.737276545450186.344215132352474,11.490327753500424.523914950552353,17.235849657380641.05942324683383,1.900020683803632.252864295754989,3.788514610647326.28037486798894,5.698872102485439.063620642609749,4.418360284301343.481927482745959,8.83046202436708.607944988279996,13.24934337058221.153814322880862,5.393603625354444.410325380169525,10.781395091168633.624092968564582,16.171544185311177.209676828104421,5.286939205138879.232447325071917,10.581186550273742.68256315729559,15.858291083439326-.183789906570382.924680729386637-.621633526456208,1.681104570909156-1.271915203613389,2.389474390749456-1.496323133726037,1.629957716910212-3.094903724388132,3.157864169778804-4.626792194636437,4.751399820097504-.466547836473183.485334427078669-.947026335443297,1.161098548111113-1.828723624819759.83503875056158-2.31611473295925-5.887899831662253-4.649399168451055-11.769129153754875-6.944911559334287-17.66504679387981-5.458526891878137-14.019938139867008-10.899135068219039-28.046868095337231-16.34707071253797-42.070938915305305-3.432727276014703-8.8365159685045-6.865615376949791-17.672973251837902-10.298432262054121-26.509456591649723.327446342209441-.518978735199198.872411827682299-.699814460756897,1.403532351223475-.901676492714614,5.353717222500563-2.034770533118717,10.686632646194994-4.123158943217277,16.020996099292461-6.207892410146997,4.239259041984042-1.656751574055306,8.713042745352141-2.510370444724686,13.065130490176671-3.781388464801239,2.917264515101124-.851978047440753,5.82557321274362-1.756221850634574,8.817912309512394-2.338217105399053.651388184396637.109951763217396,1.226485879424217.304194188675865,1.214943861878055,1.127919655425103Z" fill="none" stroke="#ac5834" stroke-linecap="round" stroke-linejoin="round" stroke-width="29.255131838457924"/>
        <path d="M142.401844267493288,60.039851402145359c-5.46558113487481,1.527575229998547-10.907485943986103,3.147223304223189-16.402591324060268,4.560006825046912-7.28285389759003,1.872411266605923-13.99599308620418,5.258055404925472-21.058690543890407,7.706335865638721-.676198271814428.234400289905352-1.359053690175642.449607011186345-2.038565136470424.673697526847718-.600198614110923-1.517544751987771-1.200646862986105-3.035062515528807-1.801092986946969-4.552582868048376-.806991280227521-.677838578004412-.968851562791315-1.700288785270459-1.295487282372051-2.601804394177634-.92724326577445-2.559189535372752-2.402566063608901-4.66723157848719-4.664876555971205-6.20707435361237-.342177155538593-.232901275440781-.660501319343894-.50228083098682-.787684146464017-.927412624107092-.020017484486743-1.183705348655167.975574518981375-1.365183232102936,1.749310984168915-1.671196812828384,3.886423585892771-1.537073159250212,7.78395247251683-3.047036806753567,11.68655096670409-4.542297559175495,12.285927260038079-4.707287374876614,24.476309258519905-9.653039636912581,36.671701412677066-14.587420398538598,9.664839562756242-3.910491161793288,19.364213597866183-7.735042864384923,29.06776085245474-11.548552215901509.866285322757903-.340450198990766,1.678487342123844-.799852344456667,2.56074061549225-1.098464827046882,1.718552346728757.25276895978277,3.191571813389601,1.046013235993087,4.559667725452528,2.070201617056227.306550870254796,1.000712615553311-.350663080680533,1.493267171726984-1.094768332388412,1.744601915953353-3.356389221567952,1.133670044106111-6.368558430405756,2.98581528116847-9.373434791747059,4.756256930986638-2.866253472411699,1.688770583841688-5.761756647867514,3.370755479571926-8.464767375780866,5.362615638032366-2.448195238250264,1.804085884719825-4.903104917901146,3.582167757546813-7.180066114831789,5.602266265679646-4.038762603240684,3.583158636561166-7.520557805739372,7.615782082383703-10.153038952525094,12.353976335860352-.569847655746344,1.02566898231089-.956481648609042,2.186543081948912-1.980669013501029,2.906847132334406Z" fill="none" stroke="#ac5834" stroke-linecap="round" stroke-linejoin="round" stroke-width="29.255131838457924"/>
        <path d="M142.401844267493288,60.039851402145359c2.022395848513042-3.931696711853874,4.325891547840001-7.634745862152158,7.325518004676269-10.956164784217435,3.424645407121716-3.792026623385937,7.255800862019896-7.008399130239013,11.43367077044968-9.917377524599942,5.777858218811161-4.023015966199637,11.72338497211058-7.715430772921536,18.241303187876838-10.417008931769487.721283073351515-.29896114316125,1.041448057763773-.775402584938092,1.24634141003844-1.436174614565061,2.568474859135677,1.374917536003522,4.069564795780025,3.635886783089518,5.12869924109873,6.24172572408861.728486088863065,1.792284077280783,1.521654460235368,3.563509054833048,1.998469235531957,5.448945782471128-.591695611186879,1.091987284708921-1.813128614090601,1.113522707677475-2.76244540008156,1.479540412869937-4.318886616483724,1.665179463013374-8.521990748606186,3.53928368497418-12.622819710932163,5.706455738736622-4.980894348111178,2.63226520956232-10.153549510390803,4.899108447902108-15.18149317870666,7.445916580673838-4.40247891355466,2.229995655271523-8.718967238697587,4.629636964531528-13.075866027909797,6.949791281228499-.224518626941062.119566579751336-.471827105151533.196373825141563-.708493952486606.293100216778839-.244438505787912-.397199381087376-.585348987840916-.676863818230231-1.022883579555128-.838749881695549Z" fill="none" stroke="#ac5834" stroke-linecap="round" stroke-linejoin="round" stroke-width="29.255131838457924"/>
        <path d="M161.550135575284003,149.850606521002192c3.442459970108757-2.003011517433151,6.884910511276757-4.006022105367265,10.32735255274747-6.009022337380884,4.948550799579607-.722179746620895,9.760436030603159-1.906845090832576,14.351678665530926-3.958228540426717,11.23501737162951-5.019860715667164,22.812948104441602-9.137000273738522,34.500326488574501-12.957173530243381.386062522244174-.126194817377836.814672128299208-.122303704565638,1.223274552619841-.179011745221032.291725913339178.685759411142499.58360083131447,1.371485097401091.875485178228701,2.057209854157918-.281007970143037.903978128757444-1.157466541599206.976758942444576-1.843690244380923,1.243799709518498-8.966916987890727,3.489438331478596-17.936785201591192,6.971248602325431-26.902315878749505,10.464319407128642-8.338886475909021,3.248921590323334-16.690168246892426,6.466170832382886-25.028245112283912,9.717220791893851-2.443896356542609.952904677649713-2.478659590935422,1.065960173194981-1.779623553644342,3.679122417420331.053511982232521.200076061024447.101061536901398.401092063592841.133177687876014.605675861896998.334381244192627,2.203504738456104-.144524512757926,4.294290962039668-.882640147352504,6.348544001841219-.434613529845592.903006525815726-.914218461541168,1.78035231821832-1.560355343726769,2.555539313545523-1.314667609538446,1.840815741757979-3.009525647925329,3.204775861908274-5.110564433336549,4.056541728647971-2.653253747763301,1.090576646732188-5.199334617154818,2.50830656560538-8.156561625555696,2.670964913215357-1.236838293469191-1.32679138720323-2.340735533540283-2.693319492354021-2.727865992141233-4.569962771016435-.615094340308133-2.981665665453875.734266019127972-5.197541982575785,2.579471877017568-7.254939080287841,2.042520535645963-2.27739299773657,4.550550359976114-4.027852861854626,6.889677411536468-5.966813709088456,1.024026730765399-.848836200772894,1.875455020504887-1.91772298432079,3.111417917039944-2.503786285601564Z" fill="none" stroke="#ac5834" stroke-linecap="round" stroke-linejoin="round" stroke-width="29.255131838457924"/>
        <path d="M166.098617551248026,160.940274914867587c.728447119428893-2.049959094955739,1.190748228818848-4.138918075545917.928793850631337-6.333981641828359.435009139071553-.559330821272852,1.070456762123285-.800131392762523,1.696509105062432-1.041785649100348,16.69178568533971-6.442906434260294,33.356541320768883-12.955456642623176,50.039175481408165-19.421950784524597,5.303761723112984-2.055834881642113,10.605826551498467-4.116328119415812,15.907999198934704-6.17640367511467.661010009029269-.256836093081802,1.319304471295254-.677875857171784,2.055055064854969-.191507915574221.069850465950367.521497465026187.139700931898915,1.042994930055102.209581543194872,1.564508459397985-.12670358052128,1.80151630695309-.373743483241924,3.569075599206371-1.441404499702912,5.105093052681696-1.171925512533562.904933630172309-2.624392215157059,1.175563762716592-3.957083788942327,1.6967792375508-20.968261678279305,8.200667628131669-41.967265128754661,16.322529845889221-62.948955330382887,24.488866755658819-.782748493991676.304653352601235-1.578282283988301.878090038144364-2.489670625058352.310382160852896Z" fill="none" stroke="#ac5834" stroke-linecap="round" stroke-linejoin="round" stroke-width="29.255131838457924"/>
        <path d="M236.726150252139632,127.774645248725392c-3.074731540256835.868381529937324-5.982394538637891,2.187504479349627-8.952722086218273,3.335008290957376-9.024006931027543,3.486204970162362-18.036287834564064,7.002701525949306-27.053291497380997,10.507023721052065-9.736205123324908,3.783836862946373-19.471122462420681,7.570982781270686-29.210443204285184,11.346779478526514-1.483514496803764.575126480504878-2.987813594814725,1.096640527208365-4.482399992413775,1.642895749390846-.111183155340768-.341130148647608-.223267116089119-.681933545612992-.333645750401047-1.023304810093578-.717271764066027-2.218489298205895-.471065150180948-2.67622039881735,1.73075715455343-3.533552712646269,16.561079805664122-6.4484864334745,33.118497301504249-12.906405878819896,49.675879076472484-19.364397946963436,1.580144336523517-.616309160815035,3.1522246825607-1.253286508104793,4.728009564063541-1.88069223583534,3.638961242799269-1.388910813675466,7.277422939048847-2.779219121050119,10.91715449088224-4.166207087630028q2.3101030648304-.880284852612021,2.894135161475788,1.569225675465532c.028876766036774.522395697336833.057716745546713,1.044804539102188.086567083251794,1.567221877776319Z" fill="none" stroke="#ac5834" stroke-linecap="round" stroke-linejoin="round" stroke-width="29.255131838457924"/>
        <path d="M88.718146613609861,56.603167783721801c4.523510079447078-1.794073152328565,9.04146026100716-3.602317827553634,13.571819699900516-5.378929602990866,6.959988354446978-2.729404422391781,13.924809226729849-5.446583436947549,20.894199534543077-8.151912055625871,13.149402932818703-5.104246290527044,26.299227215778956-10.207502007471703,39.459300982733112-15.284144743038269,2.637916925537866-1.017604053983632,5.192258158325785-2.278044909581695,8.009745163282787-2.803272346786798.977115241117644-.182150912745783,1.932654469514091-.319900436468743,2.912700391363614-.099050783108396.42600232465702,1.300552672868434-.616704446802032,1.580686230071478-1.420468636692021,1.920648525418983-2.138770920841125.904620778709614-4.324900936066115,1.692731249973804-6.477135910870857,2.568552105040908-7.256930671368536,2.953098830637828-14.543217975719017,5.833137542498662-21.79520299394062,8.799754299287088-11.30257421962051,4.623615570794755-22.580369764125862,9.308281980354877-34.004290074561141,13.63449564999155-4.823125371876813,1.826507400714036-9.629962036415236,3.706532671413697-14.423856454366614,5.614507175670951-.717317199630997.285494214641403-1.301095717344651.868489976515775-2.113365985038399.925208566942274-1.544805125311541-.290648733523994-3.139804938409725-.365867812360193-4.600012133649216-1.038885786042556-.150991131640694-.232662345193603-.175267730448468-.46818156721929-.013433582704238-.706971004758998Z" fill="none" stroke="#ac5834" stroke-linecap="round" stroke-linejoin="round" stroke-width="29.255131838457924"/>
        <path d="M161.550140289753472,149.850606056253127c-1.794746909276,2.227468753512767-4.175612242466741,3.796923832201173-6.332687152005747,5.615352808901662-1.771002114541261,1.492954381968957-3.481725896232092,3.009558059949995-4.793997057715387,4.964886797931285-1.684786112964503,2.51042153542403-1.652986580353172,5.53537787611549.214482788029272,7.891128453376041.434847044507478.548554020314441,1.09032915510943.995368450875503,1.059506713017981,1.824199770674568-6.154391856614893.793327953219887-12.040803174993925-2.692831258287697-14.288809930058051-8.467613300147605-.316637440248087-.813395922390555-.610601998019774-1.635632437913046-.915518268722735-2.453505619343559,1.378064426626224-.409111623765966,2.061164674063548-1.655067798256823,2.992899379536539-2.572710856723461,1.706046468425484-1.680233237706489,3.509700560627607-3.29384928161744,4.734072208302678-5.402985489317871.398433120884874,1.712237929954426,2.029608300175823,1.418889095710256,2.841283300153009,1.144011943594705,3.080473733312829-1.043270112844766,6.322316612673603-.653910161807289,9.426304675804204-1.378731552558747,1.683685779024017-.393162981286878,3.301786130317851-1.105833681228432,5.062463343658237-1.164032956387018Z" fill="none" stroke="#ac5834" stroke-linecap="round" stroke-linejoin="round" stroke-width="29.255131838457924"/>
        <path d="M166.098616621993642,160.940265488453406c2.780658683328511-.605800667148287,5.318038172716115-1.891504985432221,7.951186734726434-2.897311937623272,9.843530863890919-3.760075998844513,19.656911327863781-7.599139439666942,29.476673593648229-11.421271252014776,9.724543068225103-3.785085760840047,19.442773099433907-7.586405595560791,29.164890916725199-11.377743564667071.908286895592028-.354196765797496,1.799018852010704-.777629319407424,2.80301600221901-.799697550366545-.247558591981942,1.2373996558199-1.050049635967298,2.120486602074379-1.899510395656762,2.973586777627133-7.998622237439122,3.082506868489872-15.971816646599109,6.230380060882453-23.965358916062542,9.325787518026118-13.968940697106518,5.409316369621592-27.9280175834283,10.843844437262305-41.894778813042649,16.258561586678297-.903174147249956.35014253105328-1.891429044524557,1.284721852701296-2.973578493867535.266769820610534.445816647452375-.776226822921672.891633294908388-1.552453645845162,1.337459371310615-2.328681398270419Z" fill="none" stroke="#ac5834" stroke-linecap="round" stroke-linejoin="round" stroke-width="29.255131838457924"/>
        <path d="M164.76116289440688,163.268955848386213c1.267922007711604.335366546024488,2.285822997771902-.438035114832928,3.34703995570635-.845532058008757,9.895609306753613-3.799760289748519,19.772019396563337-7.64960582677395,29.648614186276973-11.498736684006872,10.404735297448497-4.054977469430014,20.793487765144164-8.151267548713804,31.216403262886161-12.15886713204236,1.485503714478909-.571172720856339,2.871166015114795-1.633046199801356,4.621726611034319-1.347923108138275-1.15755785294823,1.522074290809542-2.70516450685318,2.552759943209821-4.444390739497976,3.231142188203194-19.337072945623731,7.542586968139403-38.683567249188854,15.06107030165731-58.033411940104997,22.57087035161112-3.741312075362657,1.452025420986502-7.508060274081799,2.838552083535433-11.263111525000568,4.255268500169223,1.790156308841688-1.221970510464416,3.52813406680616-2.504795214550541,4.907130188699739-4.206222057787272Z" fill="none" stroke="#ac5834" stroke-linecap="round" stroke-linejoin="round" stroke-width="29.255131838457924"/>
        <path d="M88.778204535279656,57.212882276226082c1.481263284098532.204595028484619,2.969221790866868.374179512628871,4.400391494909854.840753998269975.538153026980581.072505937623646,1.038619146518613.221178203486488,1.383547515790269.684184777240262,3.770116183772188,2.157018664887801,5.437994210979014,5.732062720855538,6.538881413838681,9.689480561931305-2.477035810521556.905188288957106-4.953953526901387,1.810367315724761-7.430869832354801,2.715548582909832-.85547591386603.138675762743333-1.008558313878893-.581838267540661-1.237590549279048-1.09673333588853-1.745773233102227-3.924716808593075-4.166985382265921-7.347235436017399-7.408822203489763-10.182917238240407-.461741680552223-.403889149727547-.954553976333045-.86113342270437-.506143231605165-1.585036054493685.618218811476254-.48507632500332,1.375618963691522-.627827819586855,2.099422487373886-.853210318632591.707731337786754-.199731795245498,1.397884228306793-.57861352427426,2.161182904816087-.212070973096161Z" fill="none" stroke="#ac5834" stroke-linecap="round" stroke-linejoin="round" stroke-width="29.255131838457924"/>
        <path d="M84.517599143089683,58.278163567954834c.166214966600819,1.544374567433806,1.647953750483794,2.035412714886661,2.524016901872528,2.95817239067037,2.298987341466272,2.421521925242814,4.068927805426938,5.139122591252999,5.491439265571898,8.12709813019319.300541486059956.631284890624556.41450300593533,1.407757085155936,1.137028255830955,1.779354156598856-2.053472323799724,1.020587882720974-4.215303499338916,1.762364829281069-6.386487956420751,2.480064743327603-.802591135628973-.706897785586079-1.019026380241485-1.767236919299648-1.578804368931742-2.625691151907631-1.630345434679839-2.500233478320297-3.668216093115916-4.431721917121649-6.649401134871368-5.197592607986735-.508159042421539-.130545893922317-1.182159418891388-.189324518652938-1.101248162713091-1.010251395863634,1.127285804577696-3.23887476474556,3.325471260401173-5.398815395926249,6.56345719966157-6.511154265032019Z" fill="none" stroke="#ac5834" stroke-linecap="round" stroke-linejoin="round" stroke-width="29.255131838457924"/>
        <path d="M77.954141943428112,64.789317832986853c.241496646613086.471668070332271.695833977615621.518590465670059,1.150559634779711.643724593940533,4.274365239425606,1.176266795995616,6.793464274927828,4.121082409694282,8.178890280618361,8.189796654573911-2.373194372288708.947681447623836-4.745252569437071,1.898220513291562-7.120462004764704,2.840822863840913-.534785696008839.212231540899666-1.016266875923975.190809190055916-1.281196072735838-.425059771579981-1.484467861238954-3.450856380876758-2.588888860322186-6.946018776506207-1.20839048979542-10.718845527224403.068100529988442-.186113717611079.185927585696845-.354041130825863.28059865189789-.530438813550973Z" fill="none" stroke="#ac5834" stroke-linecap="round" stroke-linejoin="round" stroke-width="29.255131838457924"/>
        <path d="M94.562143545979779,58.737821051736319c-.461008675754783-.228149320462762-.922017351515024-.456298640926434-1.383286887685244-.684317547617866,9.826385700389437-3.832374153304045,19.688442970660617-7.577293955862842,29.466954703068041-11.528866173023744,6.287711410528573-2.540914191471529,12.537118705724424-5.189347757831456,18.811508811855674-7.761042308415199,6.94066715963163-2.844781963507558,13.801965635813758-5.897209289068996,20.871139142378524-8.436106750305044,3.384570024085406-1.215568716950656,6.674541627862709-2.693461559138086,10.015104645321117-4.033258204155572.670418753088597-.268883774401729,1.201157925333973-.603086308847196,1.222350542842833-1.408446904911216.880276882589897-.157956376723632,1.706844318678122.063114142855738,2.523039862813675.357253320306882-.369655783530106.878657375019429-1.25371136243848,1.051399956186287-1.990158117765532,1.345558572531445-10.264556738884494,4.099958044296727-20.546298626008138,8.156837435270063-30.813847076684397,12.249336190738177-11.842389356968852,4.720208803617425-23.62680451144297,9.586042594737592-35.562640989175634,14.071058512886339-3.945358256363761,1.482507752205493-7.86415480915457,3.036982634051128-11.774741243985773,4.609165470269545-.553808400332855.222646837615684-1.410834293590597.268941215877931-1.385423392983284,1.219665821696253Z" fill="none" stroke="#ac5834" stroke-linecap="round" stroke-linejoin="round" stroke-width="29.255131838457924"/>
        <path d="M88.778204535279656,57.212882276226082c-.720450731776509.070705405257286-1.440900052615689.141413050931078-2.161267550076445.212093594435828.643433434515828-.41969374238397,1.333267600364707-.720562921598685,2.101209163778549-.821812800148109.020020087285957.203242053112263.040039942257863.406481749618251.060058386297897.609719205712281Z" fill="none" stroke="#ac5834" stroke-linecap="round" stroke-linejoin="round" stroke-width="29.255131838457924"/>
        <g>
          <path d="M184.425080265500583,67.50238818564867c.38575109253361.593406550643522,1.160559671132432.806540379111539,1.410076204852885,1.562294229246618.492008576711669,1.490233768034159-.084420190238234,2.596313448637375-1.88618523544028,3.301205702110565-6.559229522881651,2.566123087161031-13.122977149248982,5.120795581009588-19.691166185899419,7.663928705711442-4.312444165700072,1.669731610006238-8.635458367984029,3.312198370953411-12.953736974068306,4.966877391354501-1.060569846138605-1.196238406684643-1.597731250229117-2.642918155940606-1.992462433161563-4.157748284127592,6.242093482309429-2.455620884773452,12.481464286891423-4.918179015735404,18.727178077557255-7.364570700260629,4.628855547271087-1.813081897927077,9.266596609493718-3.60349110396146,13.897427103860537-5.411562789886375.227918684056931-.088990140836358.427491827816993-.250467361120172.640266100968802-.378189998173184.616201157179603-.060744311660528,1.232402249252118-.121489283817937,1.84860334133009-.182234255975345Z" fill="none" stroke="#ac5834" stroke-linecap="round" stroke-linejoin="round" stroke-width="29.255131838457924"/>
          <path d="M158.681952093946165,106.692290920426785c5.059199351613643-2.006136025384876,10.112003110476508-4.028562840990162,15.179249397251624-6.014200644577613,6.079698871191795-2.382378293800684,12.170189227717856-4.737291856687989,18.259189189739118-7.095911784062082,2.169685400600429-.840441116993134,3.794078323087888.01123341429502,3.81278981939613,1.984733276586667.012082312410712,1.27405019667367-.752783562431432,1.934585816277831-1.854094738913773,2.361702316239644-8.581271270220896,3.328025985802924-17.156333805220129,6.672036320441293-25.738229010152281,9.998452079737945-2.537274729189448.983465033573339-5.090263114097979,1.926443901676976-7.636051737412345,2.887972341349268-.524250690927147-1.447748556786792-.768430137479299-3.032708194225961-2.022852919908473-4.122747585273828Z" fill="none" stroke="#ac5834" stroke-linecap="round" stroke-linejoin="round" stroke-width="29.255131838457924"/>
          <path d="M149.311605641783899,80.838945929944202c1.05716573303107,1.197869873574746,1.421022031421671,2.727474233332941,1.992462780421192,4.157751806777014-7.268684044638576,2.839126829773704-14.532185915933951,5.691625306779315-21.809529906118769,8.508411414095463-1.92868875620843.746523064819485-3.57053305390582-.429710879884624-3.403680746087048-2.35989604007591.096869520006294-1.120607410306548.805655973777903-1.712469432212856,1.790885626438467-2.091619405252459,5.947821068662961-2.288929469602408,11.890941186111377-4.590056829555579,17.838127920220359-6.880635811764478,1.19171873428968-.458994449775673,2.39421005242184-.890065838996634,3.591734325125799-1.334011963779631Z" fill="none" stroke="#ac5834" stroke-linecap="round" stroke-linejoin="round" stroke-width="29.255131838457924"/>
          <path d="M158.681952093946165,106.692290920426785c1.289527652044853.465073166395086,2.311110107179047,2.547152239541902,2.022851032306789,4.122752513860178-6.972343840030589,2.729977527877963-13.940574807711528,5.47053325680281-20.919512585071061,8.183580338701177-2.133634293650175.829443841206739-3.770733058570841-.115052898782778-3.723042159241231-2.095535005746569.030677822935104-1.273949799961883.843664839328994-1.864226436980061,1.944872407879302-2.286428970646739,6.13326722372949-2.351471347884399,12.25298836582806-4.738198141738394,18.37988565669184-7.106301898663332.757245682041685-.292683523964115,1.529594476998682-.546331183883012,2.294945647434361-.818066977504714Z" fill="none" stroke="#ac5834" stroke-linecap="round" stroke-linejoin="round" stroke-width="29.255131838457924"/>
          <path d="M172.193291269601104,91.633808056902126c-7.278213063447765,2.861835492984028-14.525904718993843,5.802676743723168-21.889248179026254,8.444149528844719-1.247947145482613-1.137197012993056-1.659039897685943-2.605668663902179-1.676813281435898-4.229835431529864,7.427671605286378-3.050628590549422,14.90763676271672-5.966679030429987,22.453720165893174-8.712573579253331.822951215712237-.176865723257833,1.497616583554191.287414450149299,2.164612567587028.599788171110049.905289706246549.423971914195135,1.113851780844925,1.439436362334163.456327207819413,2.174406858127441-.509107676929489.569077316487892-.834079969525192,1.302714817233209-1.508598480837463,1.724064452700986Z" fill="none" stroke="#ac5834" stroke-linecap="round" stroke-linejoin="round" stroke-width="29.255131838457924"/>
          <path d="M159.213956714142114,121.224237142079801c5.863486204410947-2.315272815098979,11.716789185769812-4.656920265430927,17.598366701331543-6.925356332310002,1.300261872554984-.501490750012636,2.605253864836413.207755396882931,3.017868649612865,1.397547175590262.426444647138851,1.229683505654066-.108936002441624,2.523286108125831-1.406741281198265,3.030050223746002-5.733011109512518,2.238647596161172-11.483445697334901,4.432730665429517-17.227570953557006,6.642951783271201-.845126585762046-1.293660396107953-1.474373247367112-2.690377244078263-1.981923116189137-4.145192850297462Z" fill="none" stroke="#ac5834" stroke-linecap="round" stroke-linejoin="round" stroke-width="29.255131838457924"/>
          <path d="M159.213956714142114,121.224237142079801c1.129279564296667,1.158007965780598,1.678930387810396,2.592724216501665,1.981923116189137,4.145192850297462-5.601388284598215,2.203206988641796-11.196437925435021,4.422753064085555-16.808781297440873,6.59772656469795-1.342869888434507.520407039572092-2.68115058733747-.025644906881098-3.154151882919905-1.138592795700788-.532163876310733-1.252151015388336-.130103212091853-2.651439227439369,1.126812197679101-3.144056660226852,5.601581558397811-2.195419874357867,11.233342449266274-4.313955738850382,16.854197866492541-6.460269959067773Z" fill="none" stroke="#ac5834" stroke-linecap="round" stroke-linejoin="round" stroke-width="29.255131838457924"/>
          <path d="M172.193291269601104,91.633808056902126c.404565016768174-.673580513627712.473347171804562-1.468693820519547,1.25591431018438-2.020981452896194.771268225038511-.544306637205409.260691829926145-1.442330957633203-.454609156196966-1.594694430969867-.74864095699013-.15946528857512-1.263237365965324-.627475500125911-1.913601243542871-.882558413703009,5.531927513298797-2.188798818213399,11.054811240855997-4.401009081105258,16.602364705860964-6.54960949472661,1.360444279776857-.526906924877039,2.664333816472208.069071148820512,3.109057548297642,1.21394341364703.530947688699598,1.366817873638865-.039513022460596,2.668025983811276-1.50498683947626,3.237702921724122-5.69254048867333,2.212868560772222-11.395229901681887,4.399686338158972-17.094139325126889,6.596197456924529Z" fill="none" stroke="#ac5834" stroke-linecap="round" stroke-linejoin="round" stroke-width="29.255131838457924"/>
          <path d="M148.627229809138953,95.848122154216981c.558938621186826,1.409945849414726,1.117877242373652,2.819891698826723,1.676815632054058,4.229835199806985-5.299052347267207,2.088680253103121-10.59086185569322,4.196022022661964-15.90196825030398,6.253627283371316-1.423692879030568.551555928881498-2.745400382926164-.029865625950151-3.192004226852077-1.251301732526372-.496484079412767-1.357855128989286.08077865424093-2.653011276854158,1.587419536575908-3.190715255352188,4.708320838435611-1.68034231486854,9.226604206496631-3.867389769515285,14.052152150847178-5.239052866884776.609164086004967-.173155324460822,1.066695343246465-.786207116247169,1.777585157678914-.802392628414964Z" fill="none" stroke="#ac5834" stroke-linecap="round" stroke-linejoin="round" stroke-width="29.255131838457924"/>
        </g>
      </g>
      <g>
        <path d="M236.639609597217714,126.207401729613593c.087085554083387-.020948782072992.174471162683403-.022339060265949.262174754443549-.00418212000659l.304497892107975,3.088847142203122c-.089822471894877.017715955837957-.179995596507069.033420104853576-.270510874135653.047102091125453-.538314291205097-.372807336029837-.553604565175192-.957295902398982-.619833879096404-1.522219375978239-.049266860813077-.567756826917503-.146537894157518-1.146248193686915.323672106680533-1.609547737343746Z" fill="#f6d4bc" stroke-width="0"/>
        <path d="M188.927064060386328,41.726306326420854c2.161601723410058,5.506189845572408,4.334361599128897,11.008034078375204,6.482476427157962,16.519477262565488,4.335307534622189,11.12309220212137,8.657082423009342,22.251456529998904,12.984707107445502,33.377545219833337,4.420859699543144,11.365793799868698,8.842763633603681,22.731170564691638,13.259249316432033,34.098661450730106.128431955465203.330578007902659.200673280218325.68298060676716.299112489759864,1.025214762565156-.845814780033834.760768137662126-1.954453036632913.922482709289397-2.975014104780712,1.248885367310322-11.63871246724193,3.722403770807432-23.053257639860021,8.030796378055129-34.222387696632723,12.989090678112007-3.525359095438034,1.56499799890571-7.319780401732714,2.190479232533107-11.035533367659809,3.082029247749233-.642754405009327.154221601847894-1.337290968371235.20781220428762-1.971541030567096-.149608078049823-1.027037718949941-.990167048257717-1.37446317254944-2.28826926261172-1.589358891395023-3.625258615594248-.543304175476806-3.380237883787231-.479399680474671-6.804267852587145-.583585687956656-10.207967878001-.074218853154889-2.424442206135609-.190794136351542-4.851485753993074-.273617653414476-7.274556223150284-.225794474268696-6.605261621558384-.462232703004702-13.211196745520283-.735162378283349-19.814514906428485-.176984436535349-4.281823076896217-.370868179294121-8.566063453958122-.529101553078362-12.848221641590499-.221173826195809-5.985299329887312-.487113238072197-11.969631200783624-.648184546907942-17.957933392161976-.097164050919673-3.612446626616475-.179762314412073-7.234847772489047-.441534402154502-10.832490317811789-.166914146877389-2.293899611484449,1.075275615243299-3.676480646586242,2.23445474925029-5.222381317280451,2.739412270193498-3.653332863903415,5.98691446099474-6.831451273361381,9.356024793471079-9.893561846911325.542567268155835-.493132983041505,1.122223858701545-.909226078634674,1.791659664611871-1.206430636069854,2.644934741440011-1.174240877379816,5.451574902856009-1.963540335068501,8.003054810887988-3.361752782909207.186676664376137-.102303883582863.402867991724634-.042831791886783.594281953814061.053773647093294Z" fill="#ffd8a3" stroke-width="0"/>
        <path d="M188.927064060386328,41.726306326420854c-2.019291915688882,1.585158581574433-4.542894359599813,2.073141626494362-6.824457692644501,3.081071766425339-1.373151180114291.606618729563706-2.620817172193711,1.238001707361946-3.785087799873509,2.249753371824227-3.976527869575875,3.455615268166184-7.312771817885732,7.461783382191243-10.506414617711926,11.610229747684571-.254756288726639.330923013363645-.54399014433875.656305018525018-.463636255377423,1.107323591430031.237553664841471,1.333308998608118.022616081685555,2.673309459029042.082632107712925,4.005866899165085.201488713008075,4.472932572704849.547359928985315,8.941259425339922.659182622226581,13.415821355715707.127195008855779,5.089628563280712.367493904879666,10.172780716851776.55379630643256,15.258776389366176.188209723490218,5.137890249315205.407030129495979,10.274352413263841.595182431061403,15.411853325430457.191948688603588,5.241201444349826.321689383026751,10.482976816369046.615926581962412,15.721661506337114.265058987806697,4.719412065212055.330274302868929,9.44995845989979.491451296784362,14.175328081331827.072803960651072,2.134167888948468.451345391564246,4.195355639621994,1.531831158428758,6.077603107912182.142772566845451.480396118035969-.241293296623553.645484609419327-.534944745568282.812672415146153-3.137081987351849,1.786154369456199-6.294655631392743,3.536637446653003-9.366500524827643,5.435374067404155-.173818147753991.107432402556697-.388481337269695.135846584477804-.592543510036194.178311298631343-2.759569414443831.655356944822415-5.499779483627208,1.403662027284554-8.329597398500482,1.699500321201413-2.092964903897155.218802156541642-4.17967480765401.378547059594894-6.251303022736465.860436896434294-1.602073591951921.37265858237879-2.471459178332225-.286432080042687-3.030298334742838-1.653343398036668-.573291478825922-5.084271830729449-.529076855229505-10.198274322958241-.728263340235571-15.299846778974825-.08651614325936-2.215946523219827-.178122954148421-4.434037218808044-.265447497466084-6.649009356332499-.262125788744015-6.64926066551925-.446979588037721-13.302112665214736-.750402661855333-19.948349235278329-.277640466063531-6.081394821956565-.5087864646448-12.165631261113049-.738643042108379-18.247700968538084-.225945649182904-5.978366189666303-.382025430737485-11.964419255253233-.684881414823394-17.936636102382181-.217567746989516-4.290195807565397,1.030446732502242-8.137064096329595,2.464104747214151-12.012645798008634.470758527844737-.732932470637934,1.252874990734199-1.044721519647283,1.975548026066463-1.436638811775083,6.306155776168453-3.419930914227734,12.669069174344258-6.739752242753639,19.102455492133231-9.904695416915274,7.579681388469908-3.728872747207788,15.025496286449197-7.773529774493909,23.032228542386292-10.582448294456299.195825850611072-.068695850870427.389865977114823-.133679721368935.597059631176307-.153022152903759.383674343696839.907584450153081.767348571229377,1.815167722007573,1.151022914922578,2.722752172161563Z" fill="#fecd95" stroke-width="0"/>
        <path d="M143.424762242240831,60.878612170196902c-.671829332246489,2.690594110360507-1.606191764500181,5.303362721727353-2.243815899893889,8.011607815639763-.478570289486015,2.032669442072802-.053634913409041,4.010174672272115-.014908142722561,5.973707736254255.053486011667701,2.711693485794058.184386097913375,5.449920437988112.335163554847895,8.171568205970289.317844570263333,5.737276545450186.344215132352474,11.490327753500424.523914950552353,17.235849657380641.05942324683383,1.900020683803632.252864295754989,3.788514610647326.28037486798894,5.698872102485439.063620642609749,4.418360284301343.481927482745959,8.83046202436708.607944988279996,13.24934337058221.153814322880862,5.393603625354444.410325380169525,10.781395091168633.624092968564582,16.171544185311177.209676828104421,5.286939205138879.232447325071917,10.581186550273742.68256315729559,15.858291083439326-.183789906570382.924680729386637-.621633526456208,1.681104570909156-1.271915203613389,2.389474390749456-1.496323133726037,1.629957716910212-3.094903724388132,3.157864169778804-4.626792194636437,4.751399820097504-.466547836473183.485334427078669-.947026335443297,1.161098548111113-1.828723624819759.83503875056158-2.31611473295925-5.887899831662253-4.649399168451055-11.769129153754875-6.944911559334287-17.66504679387981-5.458526891878137-14.019938139867008-10.899135068219039-28.046868095337231-16.34707071253797-42.070938915305305-3.432727276014703-8.8365159685045-6.865615376949791-17.672973251837902-10.298432262054121-26.509456591649723.327446342209441-.518978735199198.872411827682299-.699814460756897,1.403532351223475-.901676492714614,5.353717222500563-2.034770533118717,10.686632646194994-4.123158943217277,16.020996099292461-6.207892410146997,4.239259041984042-1.656751574055306,8.713042745352141-2.510370444724686,13.065130490176671-3.781388464801239,2.917264515101124-.851978047440753,5.82557321274362-1.756221850634574,8.817912309512394-2.338217105399053.651388184396637.109951763217396,1.226485879424217.304194188675865,1.214943861878055,1.127919655425103Z" fill="#fcc084" stroke-width="0"/>
        <path d="M142.401844267493288,60.039851402145359c-5.46558113487481,1.527575229998547-10.907485943986103,3.147223304223189-16.402591324060268,4.560006825046912-7.28285389759003,1.872411266605923-13.99599308620418,5.258055404925472-21.058690543890407,7.706335865638721-.676198271814428.234400289905352-1.359053690175642.449607011186345-2.038565136470424.673697526847718-.600198614110923-1.517544751987771-1.200646862986105-3.035062515528807-1.801092986946969-4.552582868048376-.806991280227521-.677838578004412-.968851562791315-1.700288785270459-1.295487282372051-2.601804394177634-.92724326577445-2.559189535372752-2.402566063608901-4.66723157848719-4.664876555971205-6.20707435361237-.342177155538593-.232901275440781-.660501319343894-.50228083098682-.787684146464017-.927412624107092-.020017484486743-1.183705348655167.975574518981375-1.365183232102936,1.749310984168915-1.671196812828384,3.886423585892771-1.537073159250212,7.78395247251683-3.047036806753567,11.68655096670409-4.542297559175495,12.285927260038079-4.707287374876614,24.476309258519905-9.653039636912581,36.671701412677066-14.587420398538598,9.664839562756242-3.910491161793288,19.364213597866183-7.735042864384923,29.06776085245474-11.548552215901509.866285322757903-.340450198990766,1.678487342123844-.799852344456667,2.56074061549225-1.098464827046882,1.718552346728757.25276895978277,3.191571813389601,1.046013235993087,4.559667725452528,2.070201617056227.306550870254796,1.000712615553311-.350663080680533,1.493267171726984-1.094768332388412,1.744601915953353-3.356389221567952,1.133670044106111-6.368558430405756,2.98581528116847-9.373434791747059,4.756256930986638-2.866253472411699,1.688770583841688-5.761756647867514,3.370755479571926-8.464767375780866,5.362615638032366-2.448195238250264,1.804085884719825-4.903104917901146,3.582167757546813-7.180066114831789,5.602266265679646-4.038762603240684,3.583158636561166-7.520557805739372,7.615782082383703-10.153038952525094,12.353976335860352-.569847655746344,1.02566898231089-.956481648609042,2.186543081948912-1.980669013501029,2.906847132334406Z" fill="#fecc81" stroke-width="0"/>
        <path d="M142.401844267493288,60.039851402145359c2.022395848513042-3.931696711853874,4.325891547840001-7.634745862152158,7.325518004676269-10.956164784217435,3.424645407121716-3.792026623385937,7.255800862019896-7.008399130239013,11.43367077044968-9.917377524599942,5.777858218811161-4.023015966199637,11.72338497211058-7.715430772921536,18.241303187876838-10.417008931769487.721283073351515-.29896114316125,1.041448057763773-.775402584938092,1.24634141003844-1.436174614565061,2.568474859135677,1.374917536003522,4.069564795780025,3.635886783089518,5.12869924109873,6.24172572408861.728486088863065,1.792284077280783,1.521654460235368,3.563509054833048,1.998469235531957,5.448945782471128-.591695611186879,1.091987284708921-1.813128614090601,1.113522707677475-2.76244540008156,1.479540412869937-4.318886616483724,1.665179463013374-8.521990748606186,3.53928368497418-12.622819710932163,5.706455738736622-4.980894348111178,2.63226520956232-10.153549510390803,4.899108447902108-15.18149317870666,7.445916580673838-4.40247891355466,2.229995655271523-8.718967238697587,4.629636964531528-13.075866027909797,6.949791281228499-.224518626941062.119566579751336-.471827105151533.196373825141563-.708493952486606.293100216778839-.244438505787912-.397199381087376-.585348987840916-.676863818230231-1.022883579555128-.838749881695549Z" fill="#ffd48d" stroke-width="0"/>
        <path d="M161.550135575284003,149.850606521002192c3.442459970108757-2.003011517433151,6.884910511276757-4.006022105367265,10.32735255274747-6.009022337380884,4.948550799579607-.722179746620895,9.760436030603159-1.906845090832576,14.351678665530926-3.958228540426717,11.23501737162951-5.019860715667164,22.812948104441602-9.137000273738522,34.500326488574501-12.957173530243381.386062522244174-.126194817377836.814672128299208-.122303704565638,1.223274552619841-.179011745221032.291725913339178.685759411142499.58360083131447,1.371485097401091.875485178228701,2.057209854157918-.281007970143037.903978128757444-1.157466541599206.976758942444576-1.843690244380923,1.243799709518498-8.966916987890727,3.489438331478596-17.936785201591192,6.971248602325431-26.902315878749505,10.464319407128642-8.338886475909021,3.248921590323334-16.690168246892426,6.466170832382886-25.028245112283912,9.717220791893851-2.443896356542609.952904677649713-2.478659590935422,1.065960173194981-1.779623553644342,3.679122417420331.053511982232521.200076061024447.101061536901398.401092063592841.133177687876014.605675861896998.334381244192627,2.203504738456104-.144524512757926,4.294290962039668-.882640147352504,6.348544001841219-.434613529845592.903006525815726-.914218461541168,1.78035231821832-1.560355343726769,2.555539313545523-1.314667609538446,1.840815741757979-3.009525647925329,3.204775861908274-5.110564433336549,4.056541728647971-2.653253747763301,1.090576646732188-5.199334617154818,2.50830656560538-8.156561625555696,2.670964913215357-1.236838293469191-1.32679138720323-2.340735533540283-2.693319492354021-2.727865992141233-4.569962771016435-.615094340308133-2.981665665453875.734266019127972-5.197541982575785,2.579471877017568-7.254939080287841,2.042520535645963-2.27739299773657,4.550550359976114-4.027852861854626,6.889677411536468-5.966813709088456,1.024026730765399-.848836200772894,1.875455020504887-1.91772298432079,3.111417917039944-2.503786285601564Z" fill="#ffd992" stroke-width="0"/>
        <path d="M166.098617551248026,160.940274914867587c.728447119428893-2.049959094955739,1.190748228818848-4.138918075545917.928793850631337-6.333981641828359.435009139071553-.559330821272852,1.070456762123285-.800131392762523,1.696509105062432-1.041785649100348,16.69178568533971-6.442906434260294,33.356541320768883-12.955456642623176,50.039175481408165-19.421950784524597,5.303761723112984-2.055834881642113,10.605826551498467-4.116328119415812,15.907999198934704-6.17640367511467.661010009029269-.256836093081802,1.319304471295254-.677875857171784,2.055055064854969-.191507915574221.069850465950367.521497465026187.139700931898915,1.042994930055102.209581543194872,1.564508459397985-.12670358052128,1.80151630695309-.373743483241924,3.569075599206371-1.441404499702912,5.105093052681696-1.171925512533562.904933630172309-2.624392215157059,1.175563762716592-3.957083788942327,1.6967792375508-20.968261678279305,8.200667628131669-41.967265128754661,16.322529845889221-62.948955330382887,24.488866755658819-.782748493991676.304653352601235-1.578282283988301.878090038144364-2.489670625058352.310382160852896Z" fill="#ea9469" stroke-width="0"/>
        <path d="M236.726150252139632,127.774645248725392c-3.074731540256835.868381529937324-5.982394538637891,2.187504479349627-8.952722086218273,3.335008290957376-9.024006931027543,3.486204970162362-18.036287834564064,7.002701525949306-27.053291497380997,10.507023721052065-9.736205123324908,3.783836862946373-19.471122462420681,7.570982781270686-29.210443204285184,11.346779478526514-1.483514496803764.575126480504878-2.987813594814725,1.096640527208365-4.482399992413775,1.642895749390846-.111183155340768-.341130148647608-.223267116089119-.681933545612992-.333645750401047-1.023304810093578-.717271764066027-2.218489298205895-.471065150180948-2.67622039881735,1.73075715455343-3.533552712646269,16.561079805664122-6.4484864334745,33.118497301504249-12.906405878819896,49.675879076472484-19.364397946963436,1.580144336523517-.616309160815035,3.1522246825607-1.253286508104793,4.728009564063541-1.88069223583534,3.638961242799269-1.388910813675466,7.277422939048847-2.779219121050119,10.91715449088224-4.166207087630028q2.3101030648304-.880284852612021,2.894135161475788,1.569225675465532c.028876766036774.522395697336833.057716745546713,1.044804539102188.086567083251794,1.567221877776319Z" fill="#e69154" stroke-width="0"/>
        <path d="M88.718146613609861,56.603167783721801c4.523510079447078-1.794073152328565,9.04146026100716-3.602317827553634,13.571819699900516-5.378929602990866,6.959988354446978-2.729404422391781,13.924809226729849-5.446583436947549,20.894199534543077-8.151912055625871,13.149402932818703-5.104246290527044,26.299227215778956-10.207502007471703,39.459300982733112-15.284144743038269,2.637916925537866-1.017604053983632,5.192258158325785-2.278044909581695,8.009745163282787-2.803272346786798.977115241117644-.182150912745783,1.932654469514091-.319900436468743,2.912700391363614-.099050783108396.42600232465702,1.300552672868434-.616704446802032,1.580686230071478-1.420468636692021,1.920648525418983-2.138770920841125.904620778709614-4.324900936066115,1.692731249973804-6.477135910870857,2.568552105040908-7.256930671368536,2.953098830637828-14.543217975719017,5.833137542498662-21.79520299394062,8.799754299287088-11.30257421962051,4.623615570794755-22.580369764125862,9.308281980354877-34.004290074561141,13.63449564999155-4.823125371876813,1.826507400714036-9.629962036415236,3.706532671413697-14.423856454366614,5.614507175670951-.717317199630997.285494214641403-1.301095717344651.868489976515775-2.113365985038399.925208566942274-1.544805125311541-.290648733523994-3.139804938409725-.365867812360193-4.600012133649216-1.038885786042556-.150991131640694-.232662345193603-.175267730448468-.46818156721929-.013433582704238-.706971004758998Z" fill="#fbc273" stroke-width="0"/>
        <path d="M161.550140289753472,149.850606056253127c-1.794746909276,2.227468753512767-4.175612242466741,3.796923832201173-6.332687152005747,5.615352808901662-1.771002114541261,1.492954381968957-3.481725896232092,3.009558059949995-4.793997057715387,4.964886797931285-1.684786112964503,2.51042153542403-1.652986580353172,5.53537787611549.214482788029272,7.891128453376041.434847044507478.548554020314441,1.09032915510943.995368450875503,1.059506713017981,1.824199770674568-6.154391856614893.793327953219887-12.040803174993925-2.692831258287697-14.288809930058051-8.467613300147605-.316637440248087-.813395922390555-.610601998019774-1.635632437913046-.915518268722735-2.453505619343559,1.378064426626224-.409111623765966,2.061164674063548-1.655067798256823,2.992899379536539-2.572710856723461,1.706046468425484-1.680233237706489,3.509700560627607-3.29384928161744,4.734072208302678-5.402985489317871.398433120884874,1.712237929954426,2.029608300175823,1.418889095710256,2.841283300153009,1.144011943594705,3.080473733312829-1.043270112844766,6.322316612673603-.653910161807289,9.426304675804204-1.378731552558747,1.683685779024017-.393162981286878,3.301786130317851-1.105833681228432,5.062463343658237-1.164032956387018Z" fill="#fecf8e" stroke-width="0"/>
        <path d="M166.098616621993642,160.940265488453406c2.780658683328511-.605800667148287,5.318038172716115-1.891504985432221,7.951186734726434-2.897311937623272,9.843530863890919-3.760075998844513,19.656911327863781-7.599139439666942,29.476673593648229-11.421271252014776,9.724543068225103-3.785085760840047,19.442773099433907-7.586405595560791,29.164890916725199-11.377743564667071.908286895592028-.354196765797496,1.799018852010704-.777629319407424,2.80301600221901-.799697550366545-.247558591981942,1.2373996558199-1.050049635967298,2.120486602074379-1.899510395656762,2.973586777627133-7.998622237439122,3.082506868489872-15.971816646599109,6.230380060882453-23.965358916062542,9.325787518026118-13.968940697106518,5.409316369621592-27.9280175834283,10.843844437262305-41.894778813042649,16.258561586678297-.903174147249956.35014253105328-1.891429044524557,1.284721852701296-2.973578493867535.266769820610534.445816647452375-.776226822921672.891633294908388-1.552453645845162,1.337459371310615-2.328681398270419Z" fill="#e88e84" stroke-width="0"/>
        <path d="M164.76116289440688,163.268955848386213c1.267922007711604.335366546024488,2.285822997771902-.438035114832928,3.34703995570635-.845532058008757,9.895609306753613-3.799760289748519,19.772019396563337-7.64960582677395,29.648614186276973-11.498736684006872,10.404735297448497-4.054977469430014,20.793487765144164-8.151267548713804,31.216403262886161-12.15886713204236,1.485503714478909-.571172720856339,2.871166015114795-1.633046199801356,4.621726611034319-1.347923108138275-1.15755785294823,1.522074290809542-2.70516450685318,2.552759943209821-4.444390739497976,3.231142188203194-19.337072945623731,7.542586968139403-38.683567249188854,15.06107030165731-58.033411940104997,22.57087035161112-3.741312075362657,1.452025420986502-7.508060274081799,2.838552083535433-11.263111525000568,4.255268500169223,1.790156308841688-1.221970510464416,3.52813406680616-2.504795214550541,4.907130188699739-4.206222057787272Z" fill="#e38494" stroke-width="0"/>
        <path d="M88.778204535279656,57.212882276226082c1.481263284098532.204595028484619,2.969221790866868.374179512628871,4.400391494909854.840753998269975.538153026980581.072505937623646,1.038619146518613.221178203486488,1.383547515790269.684184777240262,3.770116183772188,2.157018664887801,5.437994210979014,5.732062720855538,6.538881413838681,9.689480561931305-2.477035810521556.905188288957106-4.953953526901387,1.810367315724761-7.430869832354801,2.715548582909832-.85547591386603.138675762743333-1.008558313878893-.581838267540661-1.237590549279048-1.09673333588853-1.745773233102227-3.924716808593075-4.166985382265921-7.347235436017399-7.408822203489763-10.182917238240407-.461741680552223-.403889149727547-.954553976333045-.86113342270437-.506143231605165-1.585036054493685.618218811476254-.48507632500332,1.375618963691522-.627827819586855,2.099422487373886-.853210318632591.707731337786754-.199731795245498,1.397884228306793-.57861352427426,2.161182904816087-.212070973096161Z" fill="#c46343" stroke-width="0"/>
        <path d="M84.517599143089683,58.278163567954834c.166214966600819,1.544374567433806,1.647953750483794,2.035412714886661,2.524016901872528,2.95817239067037,2.298987341466272,2.421521925242814,4.068927805426938,5.139122591252999,5.491439265571898,8.12709813019319.300541486059956.631284890624556.41450300593533,1.407757085155936,1.137028255830955,1.779354156598856-2.053472323799724,1.020587882720974-4.215303499338916,1.762364829281069-6.386487956420751,2.480064743327603-.802591135628973-.706897785586079-1.019026380241485-1.767236919299648-1.578804368931742-2.625691151907631-1.630345434679839-2.500233478320297-3.668216093115916-4.431721917121649-6.649401134871368-5.197592607986735-.508159042421539-.130545893922317-1.182159418891388-.189324518652938-1.101248162713091-1.010251395863634,1.127285804577696-3.23887476474556,3.325471260401173-5.398815395926249,6.56345719966157-6.511154265032019Z" fill="#d3764e" stroke-width="0"/>
        <path d="M77.954141943428112,64.789317832986853c.241496646613086.471668070332271.695833977615621.518590465670059,1.150559634779711.643724593940533,4.274365239425606,1.176266795995616,6.793464274927828,4.121082409694282,8.178890280618361,8.189796654573911-2.373194372288708.947681447623836-4.745252569437071,1.898220513291562-7.120462004764704,2.840822863840913-.534785696008839.212231540899666-1.016266875923975.190809190055916-1.281196072735838-.425059771579981-1.484467861238954-3.450856380876758-2.588888860322186-6.946018776506207-1.20839048979542-10.718845527224403.068100529988442-.186113717611079.185927585696845-.354041130825863.28059865189789-.530438813550973Z" fill="#df8458" stroke-width="0"/>
        <path d="M94.562143545979779,58.737821051736319c-.461008675754783-.228149320462762-.922017351515024-.456298640926434-1.383286887685244-.684317547617866,9.826385700389437-3.832374153304045,19.688442970660617-7.577293955862842,29.466954703068041-11.528866173023744,6.287711410528573-2.540914191471529,12.537118705724424-5.189347757831456,18.811508811855674-7.761042308415199,6.94066715963163-2.844781963507558,13.801965635813758-5.897209289068996,20.871139142378524-8.436106750305044,3.384570024085406-1.215568716950656,6.674541627862709-2.693461559138086,10.015104645321117-4.033258204155572.670418753088597-.268883774401729,1.201157925333973-.603086308847196,1.222350542842833-1.408446904911216.880276882589897-.157956376723632,1.706844318678122.063114142855738,2.523039862813675.357253320306882-.369655783530106.878657375019429-1.25371136243848,1.051399956186287-1.990158117765532,1.345558572531445-10.264556738884494,4.099958044296727-20.546298626008138,8.156837435270063-30.813847076684397,12.249336190738177-11.842389356968852,4.720208803617425-23.62680451144297,9.586042594737592-35.562640989175634,14.071058512886339-3.945358256363761,1.482507752205493-7.86415480915457,3.036982634051128-11.774741243985773,4.609165470269545-.553808400332855.222646837615684-1.410834293590597.268941215877931-1.385423392983284,1.219665821696253Z" fill="#fbc274" stroke-width="0"/>
        <path d="M88.778204535279656,57.212882276226082c-.720450731776509.070705405257286-1.440900052615689.141413050931078-2.161267550076445.212093594435828.643433434515828-.41969374238397,1.333267600364707-.720562921598685,2.101209163778549-.821812800148109.020020087285957.203242053112263.040039942257863.406481749618251.060058386297897.609719205712281Z" fill="#fbc274" stroke-width="0"/>
        <g>
          <path d="M184.425080265500583,67.50238818564867c.38575109253361.593406550643522,1.160559671132432.806540379111539,1.410076204852885,1.562294229246618.492008576711669,1.490233768034159-.084420190238234,2.596313448637375-1.88618523544028,3.301205702110565-6.559229522881651,2.566123087161031-13.122977149248982,5.120795581009588-19.691166185899419,7.663928705711442-4.312444165700072,1.669731610006238-8.635458367984029,3.312198370953411-12.953736974068306,4.966877391354501-1.060569846138605-1.196238406684643-1.597731250229117-2.642918155940606-1.992462433161563-4.157748284127592,6.242093482309429-2.455620884773452,12.481464286891423-4.918179015735404,18.727178077557255-7.364570700260629,4.628855547271087-1.813081897927077,9.266596609493718-3.60349110396146,13.897427103860537-5.411562789886375.227918684056931-.088990140836358.427491827816993-.250467361120172.640266100968802-.378189998173184.616201157179603-.060744311660528,1.232402249252118-.121489283817937,1.84860334133009-.182234255975345Z" fill="#da844e" stroke-width="0"/>
          <path d="M158.681952093946165,106.692290920426785c5.059199351613643-2.006136025384876,10.112003110476508-4.028562840990162,15.179249397251624-6.014200644577613,6.079698871191795-2.382378293800684,12.170189227717856-4.737291856687989,18.259189189739118-7.095911784062082,2.169685400600429-.840441116993134,3.794078323087888.01123341429502,3.81278981939613,1.984733276586667.012082312410712,1.27405019667367-.752783562431432,1.934585816277831-1.854094738913773,2.361702316239644-8.581271270220896,3.328025985802924-17.156333805220129,6.672036320441293-25.738229010152281,9.998452079737945-2.537274729189448.983465033573339-5.090263114097979,1.926443901676976-7.636051737412345,2.887972341349268-.524250690927147-1.447748556786792-.768430137479299-3.032708194225961-2.022852919908473-4.122747585273828Z" fill="#da844e" stroke-width="0"/>
          <path d="M149.311605641783899,80.838945929944202c1.05716573303107,1.197869873574746,1.421022031421671,2.727474233332941,1.992462780421192,4.157751806777014-7.268684044638576,2.839126829773704-14.532185915933951,5.691625306779315-21.809529906118769,8.508411414095463-1.92868875620843.746523064819485-3.57053305390582-.429710879884624-3.403680746087048-2.35989604007591.096869520006294-1.120607410306548.805655973777903-1.712469432212856,1.790885626438467-2.091619405252459,5.947821068662961-2.288929469602408,11.890941186111377-4.590056829555579,17.838127920220359-6.880635811764478,1.19171873428968-.458994449775673,2.39421005242184-.890065838996634,3.591734325125799-1.334011963779631Z" fill="#d4804a" stroke-width="0"/>
          <path d="M158.681952093946165,106.692290920426785c1.289527652044853.465073166395086,2.311110107179047,2.547152239541902,2.022851032306789,4.122752513860178-6.972343840030589,2.729977527877963-13.940574807711528,5.47053325680281-20.919512585071061,8.183580338701177-2.133634293650175.829443841206739-3.770733058570841-.115052898782778-3.723042159241231-2.095535005746569.030677822935104-1.273949799961883.843664839328994-1.864226436980061,1.944872407879302-2.286428970646739,6.13326722372949-2.351471347884399,12.25298836582806-4.738198141738394,18.37988565669184-7.106301898663332.757245682041685-.292683523964115,1.529594476998682-.546331183883012,2.294945647434361-.818066977504714Z" fill="#d4804a" stroke-width="0"/>
          <path d="M172.193291269601104,91.633808056902126c-7.278213063447765,2.861835492984028-14.525904718993843,5.802676743723168-21.889248179026254,8.444149528844719-1.247947145482613-1.137197012993056-1.659039897685943-2.605668663902179-1.676813281435898-4.229835431529864,7.427671605286378-3.050628590549422,14.90763676271672-5.966679030429987,22.453720165893174-8.712573579253331.822951215712237-.176865723257833,1.497616583554191.287414450149299,2.164612567587028.599788171110049.905289706246549.423971914195135,1.113851780844925,1.439436362334163.456327207819413,2.174406858127441-.509107676929489.569077316487892-.834079969525192,1.302714817233209-1.508598480837463,1.724064452700986Z" fill="#d9834d" stroke-width="0"/>
          <path d="M159.213956714142114,121.224237142079801c5.863486204410947-2.315272815098979,11.716789185769812-4.656920265430927,17.598366701331543-6.925356332310002,1.300261872554984-.501490750012636,2.605253864836413.207755396882931,3.017868649612865,1.397547175590262.426444647138851,1.229683505654066-.108936002441624,2.523286108125831-1.406741281198265,3.030050223746002-5.733011109512518,2.238647596161172-11.483445697334901,4.432730665429517-17.227570953557006,6.642951783271201-.845126585762046-1.293660396107953-1.474373247367112-2.690377244078263-1.981923116189137-4.145192850297462Z" fill="#dc854f" stroke-width="0"/>
          <path d="M159.213956714142114,121.224237142079801c1.129279564296667,1.158007965780598,1.678930387810396,2.592724216501665,1.981923116189137,4.145192850297462-5.601388284598215,2.203206988641796-11.196437925435021,4.422753064085555-16.808781297440873,6.59772656469795-1.342869888434507.520407039572092-2.68115058733747-.025644906881098-3.154151882919905-1.138592795700788-.532163876310733-1.252151015388336-.130103212091853-2.651439227439369,1.126812197679101-3.144056660226852,5.601581558397811-2.195419874357867,11.233342449266274-4.313955738850382,16.854197866492541-6.460269959067773Z" fill="#d6814b" stroke-width="0"/>
          <path d="M172.193291269601104,91.633808056902126c.404565016768174-.673580513627712.473347171804562-1.468693820519547,1.25591431018438-2.020981452896194.771268225038511-.544306637205409.260691829926145-1.442330957633203-.454609156196966-1.594694430969867-.74864095699013-.15946528857512-1.263237365965324-.627475500125911-1.913601243542871-.882558413703009,5.531927513298797-2.188798818213399,11.054811240855997-4.401009081105258,16.602364705860964-6.54960949472661,1.360444279776857-.526906924877039,2.664333816472208.069071148820512,3.109057548297642,1.21394341364703.530947688699598,1.366817873638865-.039513022460596,2.668025983811276-1.50498683947626,3.237702921724122-5.69254048867333,2.212868560772222-11.395229901681887,4.399686338158972-17.094139325126889,6.596197456924529Z" fill="#dd8651" stroke-width="0"/>
          <path d="M148.627229809138953,95.848122154216981c.558938621186826,1.409945849414726,1.117877242373652,2.819891698826723,1.676815632054058,4.229835199806985-5.299052347267207,2.088680253103121-10.59086185569322,4.196022022661964-15.90196825030398,6.253627283371316-1.423692879030568.551555928881498-2.745400382926164-.029865625950151-3.192004226852077-1.251301732526372-.496484079412767-1.357855128989286.08077865424093-2.653011276854158,1.587419536575908-3.190715255352188,4.708320838435611-1.68034231486854,9.226604206496631-3.867389769515285,14.052152150847178-5.239052866884776.609164086004967-.173155324460822,1.066695343246465-.786207116247169,1.777585157678914-.802392628414964Z" fill="#d47f4a" stroke-width="0"/>
        </g>
      </g>
    </g>
  </a>
  <path d="M101.1009521484375,68.42730712890625c12.138557457023126,29.198563047529206,24.932389537183553,61.939563317203465,35.856536781604518,91.636499601926516-12.133723019469471-29.230613061436998-24.953018784844971-61.947206078112686-35.856536781604518-91.636499601926516h0Z" fill="#fff" stroke-width="0"/>
</svg>