<?xml version="1.0" encoding="UTF-8"?>
<svg id="Genral_2" data-name="Genral 2" xmlns="http://www.w3.org/2000/svg" width="280" height="280" xmlns:xlink="http://www.w3.org/1999/xlink" viewBox="0 0 280 280">
  <defs>
    <linearGradient id="A4" x1="33.314166194099016" y1="255.239328670868417" x2="84.033633355049602" y2="191.711915257160285" gradientUnits="userSpaceOnUse">
      <stop offset="0" stop-color="#7d67a2"/>
      <stop offset=".385181145631382" stop-color="#895ea4"/>
      <stop offset=".489316239316239" stop-color="#8e5ba6"/>
      <stop offset=".841924594895194" stop-color="#9a5c9d"/>
      <stop offset="1" stop-color="#a25d99"/>
    </linearGradient>
  </defs>
  <a xlink:href="https://www.notion.so/dmmnotes/semantic-thought-2477648bf2934c578347c35b7291e8b9?pvs=4">
    <g>
      <g>
        <path d="M254.594160050019127,203.510422638146338c.134879700650345-.01990628724343.267296305521086-.008275130954644.397278622760496.034878144544564v5.021472058298968c-.138538334129407.014266938738729-.277307133370414.025239149414119-.416291993629784.032901307706197-.758835154789267-.685671221242956-.694794664710571-1.629143420379478-.71073996891937-2.549200063775061.010140464459255-.921926210021411-.050745534530506-1.868754434490256.729753339788658-2.540051446774669Z" style="fill: none; stroke: #181818; stroke-linecap: round; stroke-linejoin: round; stroke-width: 36px;"/>
        <path d="M195.007868990409406,59.92036945462678c2.449152633520498,9.208224761177917,4.915835018820871,18.41122393040132,7.343799267071518,27.625766141089116,4.900105775639531,18.596621343513107,9.778951145659448,37.199583123014236,14.666986311609435,55.799809512004686,4.993343313259174,19.000957267665399,9.988328690358685,38.001408832883499,14.974801262789697,57.004404234657159.145005761040011.552625504657044.201743388210161,1.131470914990132.299633440070465,1.69810284500636-1.393132730359866,1.09061628697782-3.094555746170954,1.175022622723191-4.687285658479595,1.538561385050343-18.16386210464043,4.145932554578394-36.075969894041918,9.270905047083943-53.713708980110823,15.481191613031115-5.567071779350954,1.96016398291431-11.401094166560142,2.364971129800324-17.155778942580582,3.210643540498495-.995450793679993.146285926111887-2.054236278048847.122334019291884-2.960511481518552-.553790152716829-1.406168412660918-1.757208734074084-1.738196603560937-3.902337218158209-1.863915316420389-6.089040573135208-.317840183090084-5.528523045433758.289521783739474-11.031178644473584.639540656629833-16.527781138465798.249305623528926-3.915209644086644.434916454640188-7.841330201581513.670999142979781-11.755697008256902.64353058370034-10.670520853669586,1.271058246918983-21.343815408636146,1.842986204399494-32.018688368212679.370847156429591-6.921963152431999.716487192379645-13.850500436679795,1.11575357663969-20.770027022774229.558056839190613-9.671628263602543,1.048241705990222-19.348803929809947,1.697677957910855-29.015727628222521.391776268470494-5.83157673020105.807074381349594-11.676868723747248.947600476980369-17.510736439278844.089593308199255-3.719744154977889,2.175158435979029-5.748587893742297,4.159491767939471-8.053556661956463,4.68944626881057-5.447193066243926,10.0767264608603-10.048633269128004,15.630690537549526-14.443995893667307.894420654811256-.707845507339698,1.833465114890714-1.285767627598034,2.890608535421052-1.658025926062692,4.176762246479484-1.470770439560511,8.540762983850072-2.296107482148727,12.609537926218763-4.142312184785624.297688890770587-.135083850687806.615903579649967-.005018713680329.89109331489999.180899726197822Z" style="fill: none; stroke: #181818; stroke-linecap: round; stroke-linejoin: round; stroke-width: 36px;"/>
        <path d="M195.007868990409406,59.92036945462678c-3.291488175389532,2.231661068755784-7.182329655328431,2.616791793150696-10.784527999740021,3.877469683419804-2.167970805629011.758733731635402-4.149783425529677,1.577255284425519-6.06215402953967,3.021418879315206-6.53164024941907,4.932510569448823-12.176681253418792,10.853052619580922-17.627195307690272,17.025300400686319-.434786818019347.492362629691343-.920909737409602.97033189503054-.866606397868964,1.709239792086009.160547751329432,2.18437405885561-.364494962070239,4.307703702597792-.472439053979542,6.462689553325617-.362276735471823,7.233544819379858-.505424371631307,14.482590184983565-1.003603496641517,21.704526834551871-.566656068278462,8.214653540047948-.961226726099994,16.436831319539124-1.437914980389905,24.655017114559087-.481542425490261,8.302040455368115-.916559708619388,16.606640071606307-1.398130942248827,24.908044567837351-.491293980090632,8.468968235916691-1.076790570421508,16.928987070952644-1.412952729091558,25.410138138558978-.302859951489154,7.640474384112167-.909732179978164,15.267156883301141-1.370647978888883,22.900735324950801-.208153198849686,3.447634096472029.057140941100442,6.82629344399902,1.411123412339293,10.02826342130902.144357577950359.796113570862872-.461333516899685,1.000953710643444-.930546059460539,1.223524084713063-5.012615957368325,2.377858880046915-10.050914369488964,4.695033466420682-14.981621589389761,7.264507601038531-.278999611449763.145381791432555-.608010149930124.157058920670352-.923077549769005.193040416009353-4.272808577530668.617156201793478-8.530190397319529,1.387034542665788-12.855660250530491,1.414204555969263-3.199165296140563.02009017904129-6.380059030949269-.053910945742246-9.586181492339165.393145341968193-2.479422784190319.345716582137356-3.696451368879934-.853426514890089-4.338073413460734-3.142894736880407-.109060407239667-8.276831954586669.720563543869503-16.503522745311784,1.180082148110159-24.748832580684393.199604383989936-3.581476677518367.391826682700412-7.167213515047479.590062680150368-10.747249706804723.595125710349748-10.747127112274029,1.307694996019563-21.487772038628464,1.839889329588914-32.236584825725004.486958355380921-9.835307289034972,1.04468390098009-19.667810228140297,1.604037106370015-29.496620006946614.549803307731054-9.661223052642526,1.206455998149977-19.32373334787917,1.638981377371238-28.98726271016676.310695764939737-6.941884763991766,2.772610403450017-12.937385708695729,5.519675190809721-18.949651455741332.821543268499227-1.10532763089941,2.051341060219784-1.483183135995205,3.203155223220165-1.999482348190213,10.050907167449623-4.505306933871907,20.172754373959833-8.840425838840019,30.378123573649646-12.915000713244808,12.023753254510666-4.800583527974595,23.892072202130294-10.130836734365403,36.42472120885941-13.382484314961403.30651858498095-.079521709834808.609781850400395-.153350436057735.926138414401066-.151607295045324.445114535388711,1.522135633211292.890229070770147,3.044269350883042,1.335343606158858,4.566404984092514Z" style="fill: none; stroke: #181818; stroke-linecap: round; stroke-linejoin: round; stroke-width: 36px;"/>
        <path d="M123.309102814249854,83.534225682902616c-1.417727677910079,4.225312514485267-3.221045076710652,8.283655106548395-4.589654879859154,12.542815205288207-1.027211765471293,3.196706074562826-.679245472399998,6.447997364801267-.913506046030307,9.615495291953266-.323515386209692,4.374402790534077-.533865205559778,8.803812215443031-.711669031359634,13.209683490080351-.37480827536092,9.287646862954716-1.192952183610032,18.554429668878583-1.777995045780699,27.833425955121129-.193475452690109,3.068525828495694-.18247074410101,6.139764061026654-.425769870929798,9.219867410702136-.562723757489948,7.123799726161451-.587894867790965,14.293817591142215-1.056293580460988,21.428359663228548-.571719098479662,8.708288088014342-.987197262218615,17.423518091443839-1.467695392728274,26.135759853135824-.471293930500906,8.545421251357766-1.226456047741522,17.07294370094678-1.33251320663112,25.640692481567385-.415975104120662,1.459595181691839-1.191223695350345,2.607968817876099-2.280711452469404,3.645256483141566-2.506948959749934,2.386792956614954-5.153386922171194,4.593050139555999-7.708711947130723,6.915557588101365-.77824463756042.707355129206917-1.605967251580296,1.719097158726072-2.891292728689223,1.054190386455957-2.625991386699752-9.847313891081285-5.27895439230997-19.686613164591108-7.872579836321165-29.543566050804657-6.167418964660101-23.438909999071257-12.306685176759856-46.886233047947826-18.457463840879427-70.33011578775222-3.875587571039432-14.771905619934842-7.751427213290299-29.543742280446168-11.62715522399958-44.315609589590167.57281020668961-.783601266371988,1.42428152922912-.9882575143547,2.257942220639961-1.22896421709811,8.403333763018964-2.426322031245945,16.783192494840478-4.9422721591136,25.164696891530184-7.452107884662837,6.660844746938892-1.994582397959675,13.556727887229499-2.658872366486321,20.330745403069159-4.014503553393297,4.540717055970163-.908693662649966,9.075679686440708-1.902958309103269,13.689713452820797-2.365055413541995.969112953798685.280412007015912,1.810231351850234.684426120518765,1.669914115209394,2.008818688067549Z" style="fill: none; stroke: #181818; stroke-linecap: round; stroke-linejoin: round; stroke-width: 36px;"/>
        <path d="M121.88658578346076,82.021439798349093c-8.496931402371047,1.591966628346199-16.971774165160241,3.335931321809767-25.496253349181643,4.738393620196803-11.297788184820092,1.858732331442297-21.95932344171888,6.244241420417893-33.009916199089275,9.065084151043266-1.058007664660181.270068093321242-2.123224565770215.508177324405551-3.184707212039939.761120493942144-.681730174270342-2.538557325906368-1.363842056360227-5.077110820733651-2.045950337440445-7.615668146641838-1.119833529150128-1.219424830025673-1.212224827730097-2.891292445041472-1.571948441989662-4.39460407086699-1.021172859609578-4.267546330991536-2.938844160960798-7.895720032220197-6.131925538520591-10.73398267972334-.482957625259587-.429287742630549-.924386519529435-.913520822372448-1.053400163138576-1.61818270294134.146258915028739-1.908980765521846,1.679597250489678-2.043148988295798,2.895855217499047-2.413035848767322,6.109176112280693-1.857897156187391,12.231110628550596-3.670384531258605,18.358522291990084-5.458395141666188,19.289950600679731-5.628903065678969,38.470912814460462-11.656906885858916,57.657759090359832-17.665807029874486,15.205561647690047-4.76204574507392,30.450554433840807-9.38024500368374,45.700214138290903-13.980003362821662,1.361414970770056-.410641880428557,2.658746239249012-1.021384137404311,4.038079871659647-1.362131570447673,2.562368614619118.679728978044295,4.672651124530603,2.190670437432345,6.5897462631292,4.056786216158798.314541651319814,1.659834195417716-.753246376079915,2.348552082350579-1.916518975838699,2.635107224778039-5.247099794070891,1.292530440059636-10.080572347240377,3.796462472644635-14.89082554144079,6.170006599804765-4.588344109599348,2.264052842936508-9.219929233859148,4.512538095761556-13.606501147109157,7.290484233188181-3.973045500830267,2.516066975778813-7.952371175681037,4.989200963109397-11.698566996310547,7.880232894771325-6.644820220350084,5.127981805177114-12.51401734367937,11.068016386003364-17.203485218589776,18.278842906045611-1.015119549680094,1.56091573186859-1.773212894921016,3.368595102609106-3.430177752239615,4.365752213821906Z" style="fill: none; stroke: #181818; stroke-linecap: round; stroke-linejoin: round; stroke-width: 36px;"/>
        <path d="M121.88658578346076,82.021439798349093c3.646159562498724-6.009170235096462,7.683504826649369-11.605595327317133,12.717136320468853-16.477095961365194,5.746848962569857-5.561736586088955,12.022867404270073-10.132131639114959,18.777597871930993-14.152582942882873,9.341571595248752-5.560142857166284,18.88750811924001-10.561395437500323,29.151660323879696-13.876521126238003,1.135847252689928-.366857434639314,1.691296955410508-1.083127963902371,2.099839559999964-2.114472188757645,3.680887772490678,2.621321086468015,5.614734843149563,6.499802174783326,6.828493704209905,10.863388871113784.834845426070387,3.001257825311768,1.770692182870334,5.978875976750714,2.210880526719848,9.090168141752656-1.058065280940355,1.664222696581419-2.909232996440551,1.505033695904785-4.400082929829296,1.943661609493574-6.782573532731476,1.995513350193505-13.421135185169987,4.345778882692684-19.948670274970937,7.18412581393568-7.928388401060147,3.447480853305024-16.092398560249421,6.276184958336671-24.079224268609323,9.578609661937662-6.993283453799449,2.891618086767267-13.881770104730094,6.07001926517114-20.819540277219858,9.114030018212361-.357516190710157.156871197792498-.743134719750742.241281364618771-1.115623940029764.359451000877016-.310580532390304-.678300224964914-.784647246151508-1.1826771188571-1.422466616550082-1.512762898079018Z" style="fill: none; stroke: #181818; stroke-linecap: round; stroke-linejoin: round; stroke-width: 36px;"/>
        <path d="M137.461957494619128,229.658794403829233c5.50697800413036-2.678537295745627,11.013941604200227-5.357074591491255,16.52089080019141-8.035596562919636,7.594574105620268-.377315322934919,15.05135888868972-1.520938420978382,22.303591490119288-4.09502517488454,17.746605038390044-6.298953061703287,35.877380996889769-11.090069993108045,54.129453619119886-15.385690472081478.6029111095595-.141903171568629,1.250791722050053-.067610884769238,1.877440737071083-.094060655193971.339086184629195,1.150396445975275.67840283436999,2.30076224331242,1.01773388816946,3.451128040653202-.5599725803404,1.410833206320603-1.89685742185975,1.388904109287978-2.974901146280899,1.709933217411162-14.086848034889044,4.194909070381982-28.177023409689355,8.377068309364404-42.262315805150138,12.578045809112155-13.100803098170218,3.90734826967946-26.215635759399447,7.761735701244106-39.315531401238331,11.672639212372815-3.839591803000076,1.146320177758753-3.909048222960337,1.322825656177884-3.241189166990807,5.641049502111855.051120040330716.3306221303028.093079092870539.661811260320974.111156199269317.996295118402486.177256471180954,3.60078531641193-.859130686149001,6.891008032931495-2.282238283769402,10.081270232372844-.792223786369505,1.384889138344079-1.648689719770118,2.721322787647296-2.741872120539483,3.866846100945622-2.26356340851089,2.755112905719216-5.031211610250466,4.682130391858664-8.336995823960024,5.720031029788515-4.176870277000489,1.334747974480706-8.240387734240358,3.213233349999427-12.738756827809993,3.005757427767094-1.673378293769929-2.332483578642496-3.1396980979207-4.707844595086499-3.445510883530005-7.790744632537098-.485899656310721-4.898203255695989,1.886090380408859-8.251669426757871,4.984628851609159-11.271280036717144,3.429875266800082-3.342493960386491,7.48544888007018-5.762724575790344,11.313596650379623-8.513255510846648,1.675891803781269-1.204123499917841,3.123471914361289-2.789929752996613,5.080819223339859-3.537342645757235Z" style="fill: none; stroke: #181818; stroke-linecap: round; stroke-linejoin: round; stroke-width: 36px;"/>
        <path d="M142.689568583540677,248.23543666959813c1.407839284649526-3.18488336431983,2.418832068598931-6.474799594507203,2.349894195118395-10.05049900467202.741564676251073-.831497417855644,1.73887359480068-1.118337975680333,2.722095334020196-1.408044180701836,26.2146130705205-7.724022558129946,52.398718323220237-15.564463949351193,78.603003676380467-23.327915974054122,8.330895700810288-2.46816507767835,16.659918872659546-4.944099583864954,24.989042872999562-7.41934449580458,1.038374918831323-.308601087373972,2.097131595061001-.882006365317466,3.137739144560328.017837504504314.027900681350729.850714110851186.05580136269964,1.70142822170601.08374525625004,2.552172981191688-.460382848359586,2.880389193791416-1.097762894660264,5.687007127547986-2.942160697799409,7.990589045113666-1.90802057521978,1.270968168857507-4.14587992288034,1.476160767917463-6.23990023908118,2.103814126570796-32.94682997856944,9.875326741799654-65.928416975259097,19.618895009607513-98.890443246458744,29.43681686148193-1.229689761199552.366266490676935-2.518810710440448,1.163253547583736-3.813016295989655.104573136370163Z" style="fill: none; stroke: #181818; stroke-linecap: round; stroke-linejoin: round; stroke-width: 36px;"/>
        <path d="M254.491343806619625,206.047470518869886c-4.78140184430049.910111161932946-9.37726487783948,2.572447052032658-14.042339462170276,3.94852470834121-14.172739497398652,4.180642131639615-28.332256059598876,8.411915805278113-42.497102127279504,12.622838786488501-15.294643611450738,4.546801352104012-30.587832411949421,9.09913478249473-45.885990616190611,13.632496708955841-2.330247045219949.690513705280864-4.68394391451875,1.291410807177272-7.026636075208444,1.933683563852355-.117335544800881-.566877119081255-.236082688341412-1.133371130246815-.352165079151746-1.700508762711252-.754312277169447-3.685682030289172-.31354777056913-4.383566731848987,3.145546149871734-5.414433508463844,26.017695045369692-7.753751732303499,52.031256122969353-15.523272186374015,78.044773988369343-23.292915234976135,2.482584477300406-.741482382240974,4.956051179020506-1.517521098378893,7.433695060710306-2.277561228004743,5.712682511279127-1.658627405486186,11.424817667950265-3.319584107091941,17.138378827419729-4.974993406096473q3.626339563788861-1.050635145011256,4.1446123648293,2.985851140523664c-.034224067569085.845657086380015-.068505751420162,1.691329497078186-.102773031199831,2.537017232090875Z" style="fill: none; stroke: #181818; stroke-linecap: round; stroke-linejoin: round; stroke-width: 36px;"/>
        <path d="M41.178895577910225,67.967773403473984c7.111380613740039-2.170559187454273,14.216463048380319-4.364817430507173,21.335602053699404-6.506176132712426,10.937128306070008-3.289762987020367,21.879744562380438-6.559075673560983,32.827506672270829-9.808583596455719,20.655542751408575-6.13097173438473,41.311575241159517-12.260281738192134,61.979145390059784-18.345117223077978,4.142783048078854-1.219693963335885,8.195339008929295-2.843627834404288,12.536365256490171-3.242078861823757,1.505484467339556-.138184390931201,2.971703443008664-.208305590311284,4.421516184260327.302819031168838.450544869339865,2.161545256831232-1.168789358131107,2.447074388373949-2.435540788461367,2.866853871448257-3.370753766230337,1.117010027870492-6.795782063858496,2.038918040263525-10.182610770920292,3.107422296181539-11.419747435709724,3.602788491922183-22.873013139618706,7.083288458617972-34.287294231209671,10.708626203508175-17.78971641643875,5.650263247458497-35.551049615220109,11.402753095308071-53.479999362109083,16.554930080832492-7.569518227859589,2.175225441855218-15.122374549100641,4.439201663208223-22.659818516669475,6.750231198631809-1.127838590411557.34580469696084-2.098012043770723,1.191791256147553-3.335388176210472,1.154189214328653-2.293849763760591-.713140058720455-4.695771455541035-1.087398180496166-6.804600955010756-2.402737908023482-.193740127459023-.398558656799651-.195342580120268-.781605274136382.0851172438106-1.140378174006401Z" style="fill: none; stroke: #181818; stroke-linecap: round; stroke-linejoin: round; stroke-width: 36px;"/>
        <path d="M137.461964696649375,229.658794403829233c-3.047562471560013,3.301440116258163-6.883747712279728,5.45043032812282-10.418484600259035,8.035795779036562-2.902088578281109,2.122617063021607-5.716506791561187,4.292877426302766-7.993523600371191,7.232740292758535-2.923399398139736,3.774455796261464-3.326446850469438,8.649779847297395-.852425592089276,12.739012430512958.576083531339464.952207059590364,1.501148842609837,1.77562856260829,1.330899950920866,3.105181593766247-9.429551647741391.300479199580877-17.81539887118015-6.246620520569195-20.355217916030597-15.901001265856394-.357739453789691-1.359849205044156-.679857645320226-2.730333485801566-1.019195901160856-4.095530877334568,2.145946984370312-.439961129129188,3.365265816000829-2.337571251747249,4.911787475470192-3.667124282904297,2.831746308091169-2.434451581193571,5.801231524490504-4.746155386548708,7.968201247340403-7.947604337094162.347433342529257,2.819996062135033,2.859056422619688,2.606589629383961,4.128069291760767,2.292854895955315,4.816173266488477-1.190776020172052,9.662818340619197-.049359623717464,14.467072240138805-.723690850685671,2.605955326940602-.365776112548701,5.160336885390279-1.256379419471159,7.832817404279922-1.070633378154525Z" style="fill: none; stroke: #181818; stroke-linecap: round; stroke-linejoin: round; stroke-width: 36px;"/>
        <path d="M142.689568583540677,248.235421345279974c4.297324302699053-.534021784324068,8.327986078898903-2.20132275299693,12.461795392089698-3.402779821828517,15.453477278590071-4.49151121786781,30.873119399449934-9.114980125843431,46.299891534399649-13.71017566971932,15.277185880009711-4.550663079880906,30.547241745940482-9.128465524434432,45.821690852870233-13.689579788228002,1.427011100280652-.426107946939737,2.837788814969826-.966473998330912,4.360068426580256-.842653520328895-.559093932140968,1.952961554117792-1.904923700420113,3.24739125166434-3.317343478960538,4.48608640979819-12.561183467110823,3.693420810162024-25.093645220949838,7.496119321888727-37.649067060519883,11.211116769804903-21.940954652920482,6.492070099295233-43.870746152500942,13.02629739351687-65.809208901520833,19.527408839597229-1.418671144409018.420391976854262-3.053230472649375,1.768242242013002-4.538635668019197-.042448356937712.790264833009132-1.17899162071808,1.58052966600917-2.357983241439797,2.370808903080615-3.536974862157876Z" style="fill: none; stroke: #181818; stroke-linecap: round; stroke-linejoin: round; stroke-width: 36px;"/>
        <path d="M140.318766882499403,251.772411531754187c1.868272547249944.741191220226028,3.523645754959944-.342452502707602,5.189980459061189-.830102905048989,15.5381876074498-4.54713848706524,31.054797919779958-9.177963067000746,46.571581080919714-13.807607674558312,16.346529546850434-4.877239590607132,32.67503960356953-9.823530551742806,49.042008524109406-14.621604722879056,2.332666928779872-.683832303249801,4.587465461399916-2.173555091347225,7.193435192410107-1.436654679764615-1.978326835240296,2.26686485502978-4.473486064640383,3.680670978767012-7.206009944509788,4.496844080040319-30.380788326390757,9.074692497541037-60.772235663729589,18.109082042465161-91.167456867109649,27.12895945958735-5.876946512369614,1.743999173177144-11.782607535969873,3.378506104359985-17.675074432519978,5.063476010054728,2.890651747629818-1.683284230870413,5.711436559329741-3.472827272935319,8.051535987638999-5.993309567431425Z" style="fill: none; stroke: #181818; stroke-linecap: round; stroke-linejoin: round; stroke-width: 36px;"/>
        <path d="M41.178823557569558,68.958965524456289c2.210549233130223.564505681088121,4.436449602630091,1.073705903625523,6.532137189789864,2.052056247310247.803379737690193.202150722216174,1.538381560070775.520950142277798,1.991182466690589,1.321151474590806,5.382253172019773,4.071249497705139,7.372452561010505,10.09190530808155,8.44779912353988,16.638204332690293-3.882613155619765,1.064235475978421-7.765046260379677,2.128474783035927-11.647477564629298,3.192717921174335-1.314967250280461.087494185533615-1.439110518111193-1.096853283830569-1.708828507700673-1.962202117019842-2.055898147489643-6.596003445449242-5.208595917540151-12.490655062712904-9.690374224570405-17.570727307631387-.638349620188819-.72356059399317-1.315749571269407-1.537956074544127-.529363934048888-2.632292339370906,1.007675346849283-.682866871306032,2.174867653839101-.792489369992836,3.303554283798803-1.040482785272616,1.100544680461098-.209245880800154,2.201213596021262-.709718905041882,3.301371167130128.001574573529069Z" style="fill: none; stroke: #181818; stroke-linecap: round; stroke-linejoin: round; stroke-width: 36px;"/>
        <path d="M34.573898106640627,69.997873736199836c.021137070769328,2.512873771313025,2.189684039160056,3.538637550507701,3.377490369170118,5.163356074470357,3.117072906788962,4.263615643787489,5.389570438999726,8.91995904191208,7.096103298228627,13.956471916938426.360548247210318,1.064089894972312.417158038269918,2.332322673318231,1.454873970940753,3.045282671316272-3.25899799760009,1.31725909817942-6.640353158500147,2.168425276369817-10.03226830236963,2.979342137055937-1.108842324370926-1.265512712155214-1.27815135055971-3.007044670361211-1.997027817869821-4.478029650354074-2.093717830750393-4.284219187433337-4.888822888469804-7.71742160876056-9.284953251770276-9.423661665874533-.749344223810112-.290836373371349-1.760300322399416-.492446913433014-1.515448932090294-1.801323610439795,2.188579877260054-5.035773476749455,5.836449472819368-8.164458741075578,10.901230665760522-9.441437873112591Z" style="fill: none; stroke: #181818; stroke-linecap: round; stroke-linejoin: round; stroke-width: 36px;"/>
        <path d="M23.672667440880105,79.439311609312426c.295023012729871.797730286263686.97541023264057.945387738709542,1.644720048430827,1.219030228876363,6.291426744208366,2.572240173758473,9.663468774349894,7.713310860835918,11.152706352288078,14.483961711317534-3.731844866788379,1.149132189853844-7.462396968399844,2.303045566484798-11.196532982379722,3.443680422791658-.84075244467931.25682022163528-1.566009914489769.145910480357998-1.874978091418598-.887707011090242-1.731232686410294-5.791599419309932-2.880868937319974-11.594213191168819-.229556969970872-17.449477483732153.130790070410512-.288840381136652.334101026430289-.540507801320018.503641643050287-.80948786816316Z" style="fill: none; stroke: #181818; stroke-linecap: round; stroke-linejoin: round; stroke-width: 36px;"/>
        <path d="M49.702143214050011,72.332173246357343c-.663451410910056-.440497480214617-1.326902821820113-.880994960423777-1.990768349709469-1.321323873153233,15.438320597138954-4.610634792836208,30.917566754878862-9.074803598836297,46.301234713810118-13.884949500361472,9.891900651509786-3.092989184382532,19.741885462668506-6.365167518122689,29.618222517779941-9.509828382486376,10.92510450960981-3.478591131512076,21.761098247319751-7.304095099625556,32.835003990108817-10.269806257078017,5.301950488221337-1.419917173861904,10.499903599400568-3.277198962963666,15.753802113960774-4.904111737509083,1.054406647450378-.32650491743334,1.907228351430604-.780344609655003,2.059407338760138-2.073637434466946,1.355365261850238-.114600267708738,2.572941201158756.372520368220648,3.763927229369074.97563770020497-.690314999299517,1.355996097194293-2.053602499019689,1.493802887387574-3.211675229929824,1.850521371063223-16.141156333280378,4.971908429615723-32.301887796129449,9.871731274018202-48.44645789372953,14.831155174466403-18.620831188669399,5.720103820291115-37.175670135949986,11.683870020890026-55.902803352690171,17.010474124392204-6.190202600539124,1.760691185016185-12.350952481328932,3.641467545865453-18.501921999359183,5.552057364628126-.871086063280018.270569964689457-2.174620083920672.209081144395896-2.277971078370683,1.7438114503002Z" style="fill: none; stroke: #181818; stroke-linecap: round; stroke-linejoin: round; stroke-width: 36px;"/>
        <path d="M41.178823557569558,68.958965524456289c-1.100544680459279-.000509533527293-2.201087560410087-.001015235975501-3.30150260425944-.001551587054564,1.036072068320209-.573596831904069,2.124623560959662-.948517730372259,3.301574624600107-.989648196085909-.000023406610126.330403758795001-.000046813220251.66080368650546-.000072020340667.991199783140473Z" style="fill: none; stroke: #181818; stroke-linecap: round; stroke-linejoin: round; stroke-width: 36px;"/>
        <g>
          <path d="M184.35225057470052,100.706150068226634c.495114715538875,1.01662873126952,1.635566289160124,1.482756048235387,1.90035283466932,2.739146460471602.522118361181128,2.477414206323374-.514950904189391,4.166749215233722-3.346046149510585,5.01567833298941-10.30645126797026,3.090481878289211-20.618030355868541,6.161810835168581-30.93460799094828,9.213856111169662-6.773505417890192,2.003864977217745-13.558936248969985,3.962155030563736-20.339023805481702,5.940858832011145-1.426165944489185-2.094312350734981-2.023093740468539-4.508769691281486-2.394368731658687-7.010345288399549,9.810162324740304-2.962904542710021,19.617240057519666-5.937410408972937,29.431503201849409-8.88488103950931,7.273597135139426-2.184443801742418,14.557256001020505-4.330973561846804,21.833093864210241-6.507037304289952.358099941198816-.107102502764064.684125871390279-.335410441801287,1.025089988519539-.50727717819791.941335596120553.000001073754902,1.882671192230191.000001073754902,2.824006788350744.000001073754902Z" style="fill: none; stroke: #181818; stroke-linecap: round; stroke-linejoin: round; stroke-width: 36px;"/>
          <path d="M139.559429095599626,159.717290692035021c7.953474959620507-2.426964435886475,15.8997034622098-4.881172654535476,23.862295743139839-7.273857112084443,9.553545100221527-2.870756341668312,19.119320841011358-5.695580795665592,28.683394490300998-8.526609165999616,3.407953443489532-1.008772067760219,5.738540425969404.620269464381636,5.472511425479752,3.800637500370613-.17173887717945,2.053179430965429-1.427451490380918,2.995266079230532-3.157372539229982,3.508140979557538-13.479314994339802,3.996238392475789-26.951620531719527,8.01919752984395-40.431639344480573,12.012744377079798-3.985425687338648,1.180702632909743-7.988586880779621,2.293727219712309-11.983621844139634,3.437759934819042-.577235243770701-2.414129010207034-.710274880380894-5.004720307839307-2.4455679310704-6.958816513742931Z" style="fill: none; stroke: #181818; stroke-linecap: round; stroke-linejoin: round; stroke-width: 36px;"/>
          <path d="M129.238556731770586,116.605344516468904c1.420772397190376,2.096398775520356,1.74313200792858,4.616861002868973,2.394368731658687,7.010351015091146-11.420531196148659,3.417424451514307-22.835216390300047,6.857200181919325-34.265517555708357,10.23728087487325-3.029332347521631.895811159072764-5.337915690330192-1.258551284019632-4.797599829991668-4.33972919669759.313691265429952-1.788839145834572,1.474316685460508-2.629259830944648,3.021459276631504-3.083331148875004,9.340084333698542-2.741231930805952,18.674875665588843-5.502848976253517,28.014246305869165-8.246837354814488,1.87145677927947-.549850241703098,3.755047244560046-1.053033670261357,5.633043071540669-1.577734189577313Z" style="fill: none; stroke: #181818; stroke-linecap: round; stroke-linejoin: round; stroke-width: 36px;"/>
          <path d="M139.559429095599626,159.717290692035021c1.881615464601055.95345222299693,3.116676752530111,4.467808572273498,2.445564340150668,6.958824149332941-10.955906900160699,3.288724684301997-21.907168957830436,6.595133393515425-32.870526996930494,9.855552948138211-3.35177006055892.996788010290402-5.687736226700508-.783716889778589-5.320202964070631-3.964787399989291.236417456220806-2.046231044663728,1.55445570448137-2.867560847527784,3.283487105290988-3.372540548480174,9.629981217389286-2.812492977212969,19.244726202270613-5.683898343973851,28.867550735380064-8.524181048589526,1.189320272220357-.351042402075109,2.395668641189332-.636838693249956,3.594127780179406-.952868100412161Z" style="fill: none; stroke: #181818; stroke-linecap: round; stroke-linejoin: round; stroke-width: 36px;"/>
          <path d="M162.247188344330425,137.617123425352474c-11.43833492954036,3.452473715476117-22.842276119990856,7.03699349519411-34.376542218849863,10.121164558891905-1.718462454000473-2.028993701729632-2.121405683341436-4.458527513430454-1.90605879118084-7.076309144700645,11.692614471450725-3.732715115405881,23.444274281349863-7.240455226519771,35.270589116909832-10.463744819082422,1.271455164071085-.154143459785701,2.222938672759483.700443152445587,3.185475003430838,1.30923823494777,1.30641626698889.826292935935271,1.47050650518031,2.494325605039194.366093307589836,3.57329164559269-.855125021051208.835428918580874-1.456207500270466,1.965030369838132-2.539556417899803,2.536359524350701Z" style="fill: none; stroke: #181818; stroke-linecap: round; stroke-linejoin: round; stroke-width: 36px;"/>
          <path d="M138.19694794572024,183.198629171936773c9.216419666219736-2.797030908803208,18.42136637395015-5.638142074860298,27.658171638080603-8.356892921758117,2.042014246979306-.601043050428416,3.910609070728242.747989967258945,4.35741886058895,2.729081799272535.461783885919431,2.047513823673398-.541150185908919,4.045281782802704-2.580234250050125,4.655205023631424-9.007590276300107,2.694370410134979-18.034894650279966,5.314225103911667-27.05506029452954,7.961063970411487-1.085683009339846-2.216970457879142-1.829382083009477-4.565601382736531-2.380295954089888-6.98845787155733Z" style="fill: none; stroke: #181818; stroke-linecap: round; stroke-linejoin: round; stroke-width: 36px;"/>
          <path d="M138.19694794572024,183.198629171936773c1.53582157307028,2.043665486646205,2.153429421608962,4.440843488520841,2.380295954089888,6.98845787155733-8.803166933339526,2.658200623436642-17.599180773320768,5.343713749938615-26.414711210909445,7.954718795670487-2.109298929170109.62473628414773-4.05259725587166-.466832296611756-4.602229171960062-2.333787339182891-.618379894260215-2.100466635738485.1986114545889-4.28955192135254,2.173721655850386-4.883188450119633,8.802297933048976-2.645632443385693,17.638788514199405-5.162689197884902,26.462922772929232-7.726200877925294Z" style="fill: none; stroke: #181818; stroke-linecap: round; stroke-linejoin: round; stroke-width: 36px;"/>
          <path d="M162.247188344330425,137.617123425352474c.712544335699931-1.020275083097658.93519513946012-2.289516192189694,2.201544029048819-3.054510616910193,1.248063974211618-.753938091357668.609528300310558-2.280823073730062-.449955427298846-2.639663321418993-1.10886592640054-.375566006136069-1.817618260800373-1.210752494753251-2.763535858490286-1.724667744128965,8.695927987409959-2.646027585133197,17.381664971318969-5.331183747832256,26.095238692068961-7.910010511192013,2.136857370460348-.632411960330501,4.020677654001702.534080840820025,4.522765917390643,2.447947035390825.599437842300176,2.28489093395001-.457704611779263,4.2893362159557-2.759844402658928,4.973939338316995-8.942515799401008,2.65928869491745-17.896500966369786,5.275023988243447-26.846212950060362,7.906965819942343Z" style="fill: none; stroke: #181818; stroke-linecap: round; stroke-linejoin: round; stroke-width: 36px;"/>
          <path d="M125.964587334299722,140.661978839543735c.635354127360188,2.358770987499156,1.270708254731289,4.717541974998312,1.906062382089658,7.076309144700645-8.328669429429283,2.52179463768698-16.649164151500372,5.074784475618799-24.991435949228617,7.544634199028224-2.236225040960562.662059044840134-4.14917389132097-.483825300685567-4.642687509731331-2.521260146431814-.548633194159265-2.264990679233961.517897694970088-4.258612513351181,2.877552198789999-4.885204245705609,7.374025919640189-1.958116343690563,14.536109130120167-4.762206354836962,22.041454640329903-6.204733346190551.947454507309885-.182101170152237,1.731106049250229-1.096516442650682,2.809054237750388-1.009745605400894Z" style="fill: none; stroke: #181818; stroke-linecap: round; stroke-linejoin: round; stroke-width: 36px;"/>
        </g>
      </g>
      <g>
        <path d="M254.594160050019127,203.510422638146338c.134879700650345-.01990628724343.267296305521086-.008275130954644.397278622760496.034878144544564v5.021472058298968c-.138538334129407.014266938738729-.277307133370414.025239149414119-.416291993629784.032901307706197-.758835154789267-.685671221242956-.694794664710571-1.629143420379478-.71073996891937-2.549200063775061.010140464459255-.921926210021411-.050745534530506-1.868754434490256.729753339788658-2.540051446774669Z" style="fill: #f6d4bc; stroke-width: 0px;"/>
        <path d="M195.007868990409406,59.92036945462678c2.449152633520498,9.208224761177917,4.915835018820871,18.41122393040132,7.343799267071518,27.625766141089116,4.900105775639531,18.596621343513107,9.778951145659448,37.199583123014236,14.666986311609435,55.799809512004686,4.993343313259174,19.000957267665399,9.988328690358685,38.001408832883499,14.974801262789697,57.004404234657159.145005761040011.552625504657044.201743388210161,1.131470914990132.299633440070465,1.69810284500636-1.393132730359866,1.09061628697782-3.094555746170954,1.175022622723191-4.687285658479595,1.538561385050343-18.16386210464043,4.145932554578394-36.075969894041918,9.270905047083943-53.713708980110823,15.481191613031115-5.567071779350954,1.96016398291431-11.401094166560142,2.364971129800324-17.155778942580582,3.210643540498495-.995450793679993.146285926111887-2.054236278048847.122334019291884-2.960511481518552-.553790152716829-1.406168412660918-1.757208734074084-1.738196603560937-3.902337218158209-1.863915316420389-6.089040573135208-.317840183090084-5.528523045433758.289521783739474-11.031178644473584.639540656629833-16.527781138465798.249305623528926-3.915209644086644.434916454640188-7.841330201581513.670999142979781-11.755697008256902.64353058370034-10.670520853669586,1.271058246918983-21.343815408636146,1.842986204399494-32.018688368212679.370847156429591-6.921963152431999.716487192379645-13.850500436679795,1.11575357663969-20.770027022774229.558056839190613-9.671628263602543,1.048241705990222-19.348803929809947,1.697677957910855-29.015727628222521.391776268470494-5.83157673020105.807074381349594-11.676868723747248.947600476980369-17.510736439278844.089593308199255-3.719744154977889,2.175158435979029-5.748587893742297,4.159491767939471-8.053556661956463,4.68944626881057-5.447193066243926,10.0767264608603-10.048633269128004,15.630690537549526-14.443995893667307.894420654811256-.707845507339698,1.833465114890714-1.285767627598034,2.890608535421052-1.658025926062692,4.176762246479484-1.470770439560511,8.540762983850072-2.296107482148727,12.609537926218763-4.142312184785624.297688890770587-.135083850687806.615903579649967-.005018713680329.89109331489999.180899726197822Z" style="fill: #ffd8a3; stroke-width: 0px;"/>
        <path d="M195.007868990409406,59.92036945462678c-3.291488175389532,2.231661068755784-7.182329655328431,2.616791793150696-10.784527999740021,3.877469683419804-2.167970805629011.758733731635402-4.149783425529677,1.577255284425519-6.06215402953967,3.021418879315206-6.53164024941907,4.932510569448823-12.176681253418792,10.853052619580922-17.627195307690272,17.025300400686319-.434786818019347.492362629691343-.920909737409602.97033189503054-.866606397868964,1.709239792086009.160547751329432,2.18437405885561-.364494962070239,4.307703702597792-.472439053979542,6.462689553325617-.362276735471823,7.233544819379858-.505424371631307,14.482590184983565-1.003603496641517,21.704526834551871-.566656068278462,8.214653540047948-.961226726099994,16.436831319539124-1.437914980389905,24.655017114559087-.481542425490261,8.302040455368115-.916559708619388,16.606640071606307-1.398130942248827,24.908044567837351-.491293980090632,8.468968235916691-1.076790570421508,16.928987070952644-1.412952729091558,25.410138138558978-.302859951489154,7.640474384112167-.909732179978164,15.267156883301141-1.370647978888883,22.900735324950801-.208153198849686,3.447634096472029.057140941100442,6.82629344399902,1.411123412339293,10.02826342130902.144357577950359.796113570862872-.461333516899685,1.000953710643444-.930546059460539,1.223524084713063-5.012615957368325,2.377858880046915-10.050914369488964,4.695033466420682-14.981621589389761,7.264507601038531-.278999611449763.145381791432555-.608010149930124.157058920670352-.923077549769005.193040416009353-4.272808577530668.617156201793478-8.530190397319529,1.387034542665788-12.855660250530491,1.414204555969263-3.199165296140563.02009017904129-6.380059030949269-.053910945742246-9.586181492339165.393145341968193-2.479422784190319.345716582137356-3.696451368879934-.853426514890089-4.338073413460734-3.142894736880407-.109060407239667-8.276831954586669.720563543869503-16.503522745311784,1.180082148110159-24.748832580684393.199604383989936-3.581476677518367.391826682700412-7.167213515047479.590062680150368-10.747249706804723.595125710349748-10.747127112274029,1.307694996019563-21.487772038628464,1.839889329588914-32.236584825725004.486958355380921-9.835307289034972,1.04468390098009-19.667810228140297,1.604037106370015-29.496620006946614.549803307731054-9.661223052642526,1.206455998149977-19.32373334787917,1.638981377371238-28.98726271016676.310695764939737-6.941884763991766,2.772610403450017-12.937385708695729,5.519675190809721-18.949651455741332.821543268499227-1.10532763089941,2.051341060219784-1.483183135995205,3.203155223220165-1.999482348190213,10.050907167449623-4.505306933871907,20.172754373959833-8.840425838840019,30.378123573649646-12.915000713244808,12.023753254510666-4.800583527974595,23.892072202130294-10.130836734365403,36.42472120885941-13.382484314961403.30651858498095-.079521709834808.609781850400395-.153350436057735.926138414401066-.151607295045324.445114535388711,1.522135633211292.890229070770147,3.044269350883042,1.335343606158858,4.566404984092514Z" style="fill: #fecd95; stroke-width: 0px;"/>
        <path d="M123.309102814249854,83.534225682902616c-1.417727677910079,4.225312514485267-3.221045076710652,8.283655106548395-4.589654879859154,12.542815205288207-1.027211765471293,3.196706074562826-.679245472399998,6.447997364801267-.913506046030307,9.615495291953266-.323515386209692,4.374402790534077-.533865205559778,8.803812215443031-.711669031359634,13.209683490080351-.37480827536092,9.287646862954716-1.192952183610032,18.554429668878583-1.777995045780699,27.833425955121129-.193475452690109,3.068525828495694-.18247074410101,6.139764061026654-.425769870929798,9.219867410702136-.562723757489948,7.123799726161451-.587894867790965,14.293817591142215-1.056293580460988,21.428359663228548-.571719098479662,8.708288088014342-.987197262218615,17.423518091443839-1.467695392728274,26.135759853135824-.471293930500906,8.545421251357766-1.226456047741522,17.07294370094678-1.33251320663112,25.640692481567385-.415975104120662,1.459595181691839-1.191223695350345,2.607968817876099-2.280711452469404,3.645256483141566-2.506948959749934,2.386792956614954-5.153386922171194,4.593050139555999-7.708711947130723,6.915557588101365-.77824463756042.707355129206917-1.605967251580296,1.719097158726072-2.891292728689223,1.054190386455957-2.625991386699752-9.847313891081285-5.27895439230997-19.686613164591108-7.872579836321165-29.543566050804657-6.167418964660101-23.438909999071257-12.306685176759856-46.886233047947826-18.457463840879427-70.33011578775222-3.875587571039432-14.771905619934842-7.751427213290299-29.543742280446168-11.62715522399958-44.315609589590167.57281020668961-.783601266371988,1.42428152922912-.9882575143547,2.257942220639961-1.22896421709811,8.403333763018964-2.426322031245945,16.783192494840478-4.9422721591136,25.164696891530184-7.452107884662837,6.660844746938892-1.994582397959675,13.556727887229499-2.658872366486321,20.330745403069159-4.014503553393297,4.540717055970163-.908693662649966,9.075679686440708-1.902958309103269,13.689713452820797-2.365055413541995.969112953798685.280412007015912,1.810231351850234.684426120518765,1.669914115209394,2.008818688067549Z" style="fill: #fcc084; stroke-width: 0px;"/>
        <path d="M121.88658578346076,82.021439798349093c-8.496931402371047,1.591966628346199-16.971774165160241,3.335931321809767-25.496253349181643,4.738393620196803-11.297788184820092,1.858732331442297-21.95932344171888,6.244241420417893-33.009916199089275,9.065084151043266-1.058007664660181.270068093321242-2.123224565770215.508177324405551-3.184707212039939.761120493942144-.681730174270342-2.538557325906368-1.363842056360227-5.077110820733651-2.045950337440445-7.615668146641838-1.119833529150128-1.219424830025673-1.212224827730097-2.891292445041472-1.571948441989662-4.39460407086699-1.021172859609578-4.267546330991536-2.938844160960798-7.895720032220197-6.131925538520591-10.73398267972334-.482957625259587-.429287742630549-.924386519529435-.913520822372448-1.053400163138576-1.61818270294134.146258915028739-1.908980765521846,1.679597250489678-2.043148988295798,2.895855217499047-2.413035848767322,6.109176112280693-1.857897156187391,12.231110628550596-3.670384531258605,18.358522291990084-5.458395141666188,19.289950600679731-5.628903065678969,38.470912814460462-11.656906885858916,57.657759090359832-17.665807029874486,15.205561647690047-4.76204574507392,30.450554433840807-9.38024500368374,45.700214138290903-13.980003362821662,1.361414970770056-.410641880428557,2.658746239249012-1.021384137404311,4.038079871659647-1.362131570447673,2.562368614619118.679728978044295,4.672651124530603,2.190670437432345,6.5897462631292,4.056786216158798.314541651319814,1.659834195417716-.753246376079915,2.348552082350579-1.916518975838699,2.635107224778039-5.247099794070891,1.292530440059636-10.080572347240377,3.796462472644635-14.89082554144079,6.170006599804765-4.588344109599348,2.264052842936508-9.219929233859148,4.512538095761556-13.606501147109157,7.290484233188181-3.973045500830267,2.516066975778813-7.952371175681037,4.989200963109397-11.698566996310547,7.880232894771325-6.644820220350084,5.127981805177114-12.51401734367937,11.068016386003364-17.203485218589776,18.278842906045611-1.015119549680094,1.56091573186859-1.773212894921016,3.368595102609106-3.430177752239615,4.365752213821906Z" style="fill: #fecc81; stroke-width: 0px;"/>
        <path d="M121.88658578346076,82.021439798349093c3.646159562498724-6.009170235096462,7.683504826649369-11.605595327317133,12.717136320468853-16.477095961365194,5.746848962569857-5.561736586088955,12.022867404270073-10.132131639114959,18.777597871930993-14.152582942882873,9.341571595248752-5.560142857166284,18.88750811924001-10.561395437500323,29.151660323879696-13.876521126238003,1.135847252689928-.366857434639314,1.691296955410508-1.083127963902371,2.099839559999964-2.114472188757645,3.680887772490678,2.621321086468015,5.614734843149563,6.499802174783326,6.828493704209905,10.863388871113784.834845426070387,3.001257825311768,1.770692182870334,5.978875976750714,2.210880526719848,9.090168141752656-1.058065280940355,1.664222696581419-2.909232996440551,1.505033695904785-4.400082929829296,1.943661609493574-6.782573532731476,1.995513350193505-13.421135185169987,4.345778882692684-19.948670274970937,7.18412581393568-7.928388401060147,3.447480853305024-16.092398560249421,6.276184958336671-24.079224268609323,9.578609661937662-6.993283453799449,2.891618086767267-13.881770104730094,6.07001926517114-20.819540277219858,9.114030018212361-.357516190710157.156871197792498-.743134719750742.241281364618771-1.115623940029764.359451000877016-.310580532390304-.678300224964914-.784647246151508-1.1826771188571-1.422466616550082-1.512762898079018Z" style="fill: #ffd48d; stroke-width: 0px;"/>
        <path d="M137.461957494619128,229.658794403829233c5.50697800413036-2.678537295745627,11.013941604200227-5.357074591491255,16.52089080019141-8.035596562919636,7.594574105620268-.377315322934919,15.05135888868972-1.520938420978382,22.303591490119288-4.09502517488454,17.746605038390044-6.298953061703287,35.877380996889769-11.090069993108045,54.129453619119886-15.385690472081478.6029111095595-.141903171568629,1.250791722050053-.067610884769238,1.877440737071083-.094060655193971.339086184629195,1.150396445975275.67840283436999,2.30076224331242,1.01773388816946,3.451128040653202-.5599725803404,1.410833206320603-1.89685742185975,1.388904109287978-2.974901146280899,1.709933217411162-14.086848034889044,4.194909070381982-28.177023409689355,8.377068309364404-42.262315805150138,12.578045809112155-13.100803098170218,3.90734826967946-26.215635759399447,7.761735701244106-39.315531401238331,11.672639212372815-3.839591803000076,1.146320177758753-3.909048222960337,1.322825656177884-3.241189166990807,5.641049502111855.051120040330716.3306221303028.093079092870539.661811260320974.111156199269317.996295118402486.177256471180954,3.60078531641193-.859130686149001,6.891008032931495-2.282238283769402,10.081270232372844-.792223786369505,1.384889138344079-1.648689719770118,2.721322787647296-2.741872120539483,3.866846100945622-2.26356340851089,2.755112905719216-5.031211610250466,4.682130391858664-8.336995823960024,5.720031029788515-4.176870277000489,1.334747974480706-8.240387734240358,3.213233349999427-12.738756827809993,3.005757427767094-1.673378293769929-2.332483578642496-3.1396980979207-4.707844595086499-3.445510883530005-7.790744632537098-.485899656310721-4.898203255695989,1.886090380408859-8.251669426757871,4.984628851609159-11.271280036717144,3.429875266800082-3.342493960386491,7.48544888007018-5.762724575790344,11.313596650379623-8.513255510846648,1.675891803781269-1.204123499917841,3.123471914361289-2.789929752996613,5.080819223339859-3.537342645757235Z" style="fill: #ffd992; stroke-width: 0px;"/>
        <path d="M142.689568583540677,248.23543666959813c1.407839284649526-3.18488336431983,2.418832068598931-6.474799594507203,2.349894195118395-10.05049900467202.741564676251073-.831497417855644,1.73887359480068-1.118337975680333,2.722095334020196-1.408044180701836,26.2146130705205-7.724022558129946,52.398718323220237-15.564463949351193,78.603003676380467-23.327915974054122,8.330895700810288-2.46816507767835,16.659918872659546-4.944099583864954,24.989042872999562-7.41934449580458,1.038374918831323-.308601087373972,2.097131595061001-.882006365317466,3.137739144560328.017837504504314.027900681350729.850714110851186.05580136269964,1.70142822170601.08374525625004,2.552172981191688-.460382848359586,2.880389193791416-1.097762894660264,5.687007127547986-2.942160697799409,7.990589045113666-1.90802057521978,1.270968168857507-4.14587992288034,1.476160767917463-6.23990023908118,2.103814126570796-32.94682997856944,9.875326741799654-65.928416975259097,19.618895009607513-98.890443246458744,29.43681686148193-1.229689761199552.366266490676935-2.518810710440448,1.163253547583736-3.813016295989655.104573136370163Z" style="fill: #ea9469; stroke-width: 0px;"/>
        <path d="M254.491343806619625,206.047470518869886c-4.78140184430049.910111161932946-9.37726487783948,2.572447052032658-14.042339462170276,3.94852470834121-14.172739497398652,4.180642131639615-28.332256059598876,8.411915805278113-42.497102127279504,12.622838786488501-15.294643611450738,4.546801352104012-30.587832411949421,9.09913478249473-45.885990616190611,13.632496708955841-2.330247045219949.690513705280864-4.68394391451875,1.291410807177272-7.026636075208444,1.933683563852355-.117335544800881-.566877119081255-.236082688341412-1.133371130246815-.352165079151746-1.700508762711252-.754312277169447-3.685682030289172-.31354777056913-4.383566731848987,3.145546149871734-5.414433508463844,26.017695045369692-7.753751732303499,52.031256122969353-15.523272186374015,78.044773988369343-23.292915234976135,2.482584477300406-.741482382240974,4.956051179020506-1.517521098378893,7.433695060710306-2.277561228004743,5.712682511279127-1.658627405486186,11.424817667950265-3.319584107091941,17.138378827419729-4.974993406096473q3.626339563788861-1.050635145011256,4.1446123648293,2.985851140523664c-.034224067569085.845657086380015-.068505751420162,1.691329497078186-.102773031199831,2.537017232090875Z" style="fill: #e69154; stroke-width: 0px;"/>
        <path d="M41.178895577910225,67.967773403473984c7.111380613740039-2.170559187454273,14.216463048380319-4.364817430507173,21.335602053699404-6.506176132712426,10.937128306070008-3.289762987020367,21.879744562380438-6.559075673560983,32.827506672270829-9.808583596455719,20.655542751408575-6.13097173438473,41.311575241159517-12.260281738192134,61.979145390059784-18.345117223077978,4.142783048078854-1.219693963335885,8.195339008929295-2.843627834404288,12.536365256490171-3.242078861823757,1.505484467339556-.138184390931201,2.971703443008664-.208305590311284,4.421516184260327.302819031168838.450544869339865,2.161545256831232-1.168789358131107,2.447074388373949-2.435540788461367,2.866853871448257-3.370753766230337,1.117010027870492-6.795782063858496,2.038918040263525-10.182610770920292,3.107422296181539-11.419747435709724,3.602788491922183-22.873013139618706,7.083288458617972-34.287294231209671,10.708626203508175-17.78971641643875,5.650263247458497-35.551049615220109,11.402753095308071-53.479999362109083,16.554930080832492-7.569518227859589,2.175225441855218-15.122374549100641,4.439201663208223-22.659818516669475,6.750231198631809-1.127838590411557.34580469696084-2.098012043770723,1.191791256147553-3.335388176210472,1.154189214328653-2.293849763760591-.713140058720455-4.695771455541035-1.087398180496166-6.804600955010756-2.402737908023482-.193740127459023-.398558656799651-.195342580120268-.781605274136382.0851172438106-1.140378174006401Z" style="fill: #fbc273; stroke-width: 0px;"/>
        <path d="M137.461964696649375,229.658794403829233c-3.047562471560013,3.301440116258163-6.883747712279728,5.45043032812282-10.418484600259035,8.035795779036562-2.902088578281109,2.122617063021607-5.716506791561187,4.292877426302766-7.993523600371191,7.232740292758535-2.923399398139736,3.774455796261464-3.326446850469438,8.649779847297395-.852425592089276,12.739012430512958.576083531339464.952207059590364,1.501148842609837,1.77562856260829,1.330899950920866,3.105181593766247-9.429551647741391.300479199580877-17.81539887118015-6.246620520569195-20.355217916030597-15.901001265856394-.357739453789691-1.359849205044156-.679857645320226-2.730333485801566-1.019195901160856-4.095530877334568,2.145946984370312-.439961129129188,3.365265816000829-2.337571251747249,4.911787475470192-3.667124282904297,2.831746308091169-2.434451581193571,5.801231524490504-4.746155386548708,7.968201247340403-7.947604337094162.347433342529257,2.819996062135033,2.859056422619688,2.606589629383961,4.128069291760767,2.292854895955315,4.816173266488477-1.190776020172052,9.662818340619197-.049359623717464,14.467072240138805-.723690850685671,2.605955326940602-.365776112548701,5.160336885390279-1.256379419471159,7.832817404279922-1.070633378154525Z" style="fill: #fecf8e; stroke-width: 0px;"/>
        <path d="M142.689568583540677,248.235421345279974c4.297324302699053-.534021784324068,8.327986078898903-2.20132275299693,12.461795392089698-3.402779821828517,15.453477278590071-4.49151121786781,30.873119399449934-9.114980125843431,46.299891534399649-13.71017566971932,15.277185880009711-4.550663079880906,30.547241745940482-9.128465524434432,45.821690852870233-13.689579788228002,1.427011100280652-.426107946939737,2.837788814969826-.966473998330912,4.360068426580256-.842653520328895-.559093932140968,1.952961554117792-1.904923700420113,3.24739125166434-3.317343478960538,4.48608640979819-12.561183467110823,3.693420810162024-25.093645220949838,7.496119321888727-37.649067060519883,11.211116769804903-21.940954652920482,6.492070099295233-43.870746152500942,13.02629739351687-65.809208901520833,19.527408839597229-1.418671144409018.420391976854262-3.053230472649375,1.768242242013002-4.538635668019197-.042448356937712.790264833009132-1.17899162071808,1.58052966600917-2.357983241439797,2.370808903080615-3.536974862157876Z" style="fill: #e88e84; stroke-width: 0px;"/>
        <path d="M140.318766882499403,251.772411531754187c1.868272547249944.741191220226028,3.523645754959944-.342452502707602,5.189980459061189-.830102905048989,15.5381876074498-4.54713848706524,31.054797919779958-9.177963067000746,46.571581080919714-13.807607674558312,16.346529546850434-4.877239590607132,32.67503960356953-9.823530551742806,49.042008524109406-14.621604722879056,2.332666928779872-.683832303249801,4.587465461399916-2.173555091347225,7.193435192410107-1.436654679764615-1.978326835240296,2.26686485502978-4.473486064640383,3.680670978767012-7.206009944509788,4.496844080040319-30.380788326390757,9.074692497541037-60.772235663729589,18.109082042465161-91.167456867109649,27.12895945958735-5.876946512369614,1.743999173177144-11.782607535969873,3.378506104359985-17.675074432519978,5.063476010054728,2.890651747629818-1.683284230870413,5.711436559329741-3.472827272935319,8.051535987638999-5.993309567431425Z" style="fill: #e38494; stroke-width: 0px;"/>
        <path d="M41.178823557569558,68.958965524456289c2.210549233130223.564505681088121,4.436449602630091,1.073705903625523,6.532137189789864,2.052056247310247.803379737690193.202150722216174,1.538381560070775.520950142277798,1.991182466690589,1.321151474590806,5.382253172019773,4.071249497705139,7.372452561010505,10.09190530808155,8.44779912353988,16.638204332690293-3.882613155619765,1.064235475978421-7.765046260379677,2.128474783035927-11.647477564629298,3.192717921174335-1.314967250280461.087494185533615-1.439110518111193-1.096853283830569-1.708828507700673-1.962202117019842-2.055898147489643-6.596003445449242-5.208595917540151-12.490655062712904-9.690374224570405-17.570727307631387-.638349620188819-.72356059399317-1.315749571269407-1.537956074544127-.529363934048888-2.632292339370906,1.007675346849283-.682866871306032,2.174867653839101-.792489369992836,3.303554283798803-1.040482785272616,1.100544680461098-.209245880800154,2.201213596021262-.709718905041882,3.301371167130128.001574573529069Z" style="fill: #c46343; stroke-width: 0px;"/>
        <path d="M34.573898106640627,69.997873736199836c.021137070769328,2.512873771313025,2.189684039160056,3.538637550507701,3.377490369170118,5.163356074470357,3.117072906788962,4.263615643787489,5.389570438999726,8.91995904191208,7.096103298228627,13.956471916938426.360548247210318,1.064089894972312.417158038269918,2.332322673318231,1.454873970940753,3.045282671316272-3.25899799760009,1.31725909817942-6.640353158500147,2.168425276369817-10.03226830236963,2.979342137055937-1.108842324370926-1.265512712155214-1.27815135055971-3.007044670361211-1.997027817869821-4.478029650354074-2.093717830750393-4.284219187433337-4.888822888469804-7.71742160876056-9.284953251770276-9.423661665874533-.749344223810112-.290836373371349-1.760300322399416-.492446913433014-1.515448932090294-1.801323610439795,2.188579877260054-5.035773476749455,5.836449472819368-8.164458741075578,10.901230665760522-9.441437873112591Z" style="fill: #d3764e; stroke-width: 0px;"/>
        <path d="M23.672667440880105,79.439311609312426c.295023012729871.797730286263686.97541023264057.945387738709542,1.644720048430827,1.219030228876363,6.291426744208366,2.572240173758473,9.663468774349894,7.713310860835918,11.152706352288078,14.483961711317534-3.731844866788379,1.149132189853844-7.462396968399844,2.303045566484798-11.196532982379722,3.443680422791658-.84075244467931.25682022163528-1.566009914489769.145910480357998-1.874978091418598-.887707011090242-1.731232686410294-5.791599419309932-2.880868937319974-11.594213191168819-.229556969970872-17.449477483732153.130790070410512-.288840381136652.334101026430289-.540507801320018.503641643050287-.80948786816316Z" style="fill: #df8458; stroke-width: 0px;"/>
        <path d="M49.702143214050011,72.332173246357343c-.663451410910056-.440497480214617-1.326902821820113-.880994960423777-1.990768349709469-1.321323873153233,15.438320597138954-4.610634792836208,30.917566754878862-9.074803598836297,46.301234713810118-13.884949500361472,9.891900651509786-3.092989184382532,19.741885462668506-6.365167518122689,29.618222517779941-9.509828382486376,10.92510450960981-3.478591131512076,21.761098247319751-7.304095099625556,32.835003990108817-10.269806257078017,5.301950488221337-1.419917173861904,10.499903599400568-3.277198962963666,15.753802113960774-4.904111737509083,1.054406647450378-.32650491743334,1.907228351430604-.780344609655003,2.059407338760138-2.073637434466946,1.355365261850238-.114600267708738,2.572941201158756.372520368220648,3.763927229369074.97563770020497-.690314999299517,1.355996097194293-2.053602499019689,1.493802887387574-3.211675229929824,1.850521371063223-16.141156333280378,4.971908429615723-32.301887796129449,9.871731274018202-48.44645789372953,14.831155174466403-18.620831188669399,5.720103820291115-37.175670135949986,11.683870020890026-55.902803352690171,17.010474124392204-6.190202600539124,1.760691185016185-12.350952481328932,3.641467545865453-18.501921999359183,5.552057364628126-.871086063280018.270569964689457-2.174620083920672.209081144395896-2.277971078370683,1.7438114503002Z" style="fill: #fbc274; stroke-width: 0px;"/>
        <path d="M41.178823557569558,68.958965524456289c-1.100544680459279-.000509533527293-2.201087560410087-.001015235975501-3.30150260425944-.001551587054564,1.036072068320209-.573596831904069,2.124623560959662-.948517730372259,3.301574624600107-.989648196085909-.000023406610126.330403758795001-.000046813220251.66080368650546-.000072020340667.991199783140473Z" style="fill: #fbc274; stroke-width: 0px;"/>
        <g>
          <path d="M184.35225057470052,100.706150068226634c.495114715538875,1.01662873126952,1.635566289160124,1.482756048235387,1.90035283466932,2.739146460471602.522118361181128,2.477414206323374-.514950904189391,4.166749215233722-3.346046149510585,5.01567833298941-10.30645126797026,3.090481878289211-20.618030355868541,6.161810835168581-30.93460799094828,9.213856111169662-6.773505417890192,2.003864977217745-13.558936248969985,3.962155030563736-20.339023805481702,5.940858832011145-1.426165944489185-2.094312350734981-2.023093740468539-4.508769691281486-2.394368731658687-7.010345288399549,9.810162324740304-2.962904542710021,19.617240057519666-5.937410408972937,29.431503201849409-8.88488103950931,7.273597135139426-2.184443801742418,14.557256001020505-4.330973561846804,21.833093864210241-6.507037304289952.358099941198816-.107102502764064.684125871390279-.335410441801287,1.025089988519539-.50727717819791.941335596120553.000001073754902,1.882671192230191.000001073754902,2.824006788350744.000001073754902Z" style="fill: #da844e; stroke-width: 0px;"/>
          <path d="M139.559429095599626,159.717290692035021c7.953474959620507-2.426964435886475,15.8997034622098-4.881172654535476,23.862295743139839-7.273857112084443,9.553545100221527-2.870756341668312,19.119320841011358-5.695580795665592,28.683394490300998-8.526609165999616,3.407953443489532-1.008772067760219,5.738540425969404.620269464381636,5.472511425479752,3.800637500370613-.17173887717945,2.053179430965429-1.427451490380918,2.995266079230532-3.157372539229982,3.508140979557538-13.479314994339802,3.996238392475789-26.951620531719527,8.01919752984395-40.431639344480573,12.012744377079798-3.985425687338648,1.180702632909743-7.988586880779621,2.293727219712309-11.983621844139634,3.437759934819042-.577235243770701-2.414129010207034-.710274880380894-5.004720307839307-2.4455679310704-6.958816513742931Z" style="fill: #da844e; stroke-width: 0px;"/>
          <path d="M129.238556731770586,116.605344516468904c1.420772397190376,2.096398775520356,1.74313200792858,4.616861002868973,2.394368731658687,7.010351015091146-11.420531196148659,3.417424451514307-22.835216390300047,6.857200181919325-34.265517555708357,10.23728087487325-3.029332347521631.895811159072764-5.337915690330192-1.258551284019632-4.797599829991668-4.33972919669759.313691265429952-1.788839145834572,1.474316685460508-2.629259830944648,3.021459276631504-3.083331148875004,9.340084333698542-2.741231930805952,18.674875665588843-5.502848976253517,28.014246305869165-8.246837354814488,1.87145677927947-.549850241703098,3.755047244560046-1.053033670261357,5.633043071540669-1.577734189577313Z" style="fill: #d4804a; stroke-width: 0px;"/>
          <path d="M139.559429095599626,159.717290692035021c1.881615464601055.95345222299693,3.116676752530111,4.467808572273498,2.445564340150668,6.958824149332941-10.955906900160699,3.288724684301997-21.907168957830436,6.595133393515425-32.870526996930494,9.855552948138211-3.35177006055892.996788010290402-5.687736226700508-.783716889778589-5.320202964070631-3.964787399989291.236417456220806-2.046231044663728,1.55445570448137-2.867560847527784,3.283487105290988-3.372540548480174,9.629981217389286-2.812492977212969,19.244726202270613-5.683898343973851,28.867550735380064-8.524181048589526,1.189320272220357-.351042402075109,2.395668641189332-.636838693249956,3.594127780179406-.952868100412161Z" style="fill: #d4804a; stroke-width: 0px;"/>
          <path d="M162.247188344330425,137.617123425352474c-11.43833492954036,3.452473715476117-22.842276119990856,7.03699349519411-34.376542218849863,10.121164558891905-1.718462454000473-2.028993701729632-2.121405683341436-4.458527513430454-1.90605879118084-7.076309144700645,11.692614471450725-3.732715115405881,23.444274281349863-7.240455226519771,35.270589116909832-10.463744819082422,1.271455164071085-.154143459785701,2.222938672759483.700443152445587,3.185475003430838,1.30923823494777,1.30641626698889.826292935935271,1.47050650518031,2.494325605039194.366093307589836,3.57329164559269-.855125021051208.835428918580874-1.456207500270466,1.965030369838132-2.539556417899803,2.536359524350701Z" style="fill: #d9834d; stroke-width: 0px;"/>
          <path d="M138.19694794572024,183.198629171936773c9.216419666219736-2.797030908803208,18.42136637395015-5.638142074860298,27.658171638080603-8.356892921758117,2.042014246979306-.601043050428416,3.910609070728242.747989967258945,4.35741886058895,2.729081799272535.461783885919431,2.047513823673398-.541150185908919,4.045281782802704-2.580234250050125,4.655205023631424-9.007590276300107,2.694370410134979-18.034894650279966,5.314225103911667-27.05506029452954,7.961063970411487-1.085683009339846-2.216970457879142-1.829382083009477-4.565601382736531-2.380295954089888-6.98845787155733Z" style="fill: #dc854f; stroke-width: 0px;"/>
          <path d="M138.19694794572024,183.198629171936773c1.53582157307028,2.043665486646205,2.153429421608962,4.440843488520841,2.380295954089888,6.98845787155733-8.803166933339526,2.658200623436642-17.599180773320768,5.343713749938615-26.414711210909445,7.954718795670487-2.109298929170109.62473628414773-4.05259725587166-.466832296611756-4.602229171960062-2.333787339182891-.618379894260215-2.100466635738485.1986114545889-4.28955192135254,2.173721655850386-4.883188450119633,8.802297933048976-2.645632443385693,17.638788514199405-5.162689197884902,26.462922772929232-7.726200877925294Z" style="fill: #d6814b; stroke-width: 0px;"/>
          <path d="M162.247188344330425,137.617123425352474c.712544335699931-1.020275083097658.93519513946012-2.289516192189694,2.201544029048819-3.054510616910193,1.248063974211618-.753938091357668.609528300310558-2.280823073730062-.449955427298846-2.639663321418993-1.10886592640054-.375566006136069-1.817618260800373-1.210752494753251-2.763535858490286-1.724667744128965,8.695927987409959-2.646027585133197,17.381664971318969-5.331183747832256,26.095238692068961-7.910010511192013,2.136857370460348-.632411960330501,4.020677654001702.534080840820025,4.522765917390643,2.447947035390825.599437842300176,2.28489093395001-.457704611779263,4.2893362159557-2.759844402658928,4.973939338316995-8.942515799401008,2.65928869491745-17.896500966369786,5.275023988243447-26.846212950060362,7.906965819942343Z" style="fill: #dd8651; stroke-width: 0px;"/>
          <path d="M125.964587334299722,140.661978839543735c.635354127360188,2.358770987499156,1.270708254731289,4.717541974998312,1.906062382089658,7.076309144700645-8.328669429429283,2.52179463768698-16.649164151500372,5.074784475618799-24.991435949228617,7.544634199028224-2.236225040960562.662059044840134-4.14917389132097-.483825300685567-4.642687509731331-2.521260146431814-.548633194159265-2.264990679233961.517897694970088-4.258612513351181,2.877552198789999-4.885204245705609,7.374025919640189-1.958116343690563,14.536109130120167-4.762206354836962,22.041454640329903-6.204733346190551.947454507309885-.182101170152237,1.731106049250229-1.096516442650682,2.809054237750388-1.009745605400894Z" style="fill: #d47f4a; stroke-width: 0px;"/>
        </g>
      </g>
    </g>
  </a>
  <a xlink:href="https://www.notion.so/dmmnotes/Type-A-d0420320e0bf4731b311ee86887d6ca3?pvs=4">
    <g id="A">
      <path d="M60.263671875,258.5283203125c-16.671875,0-31.3642578125-10.2529296875-36.55859375-25.5126953125-3.1435546875-9.2333984375-2.4287109375-19.12255859375,2.0126953125-27.84521484375,4.6396484375-9.11181640625,12.7197265625-15.84326171875,22.7509765625-18.9541015625,3.8369140625-1.18994140625,7.8095703125-1.79296875,11.80859375-1.79296875,16.6708984375,0,31.36328125,10.25244140625,36.5576171875,25.51220703125,3.14453125,9.23388671875,2.4296875,19.123046875-2.01171875,27.845703125-4.6396484375,9.11181640625-12.7197265625,15.84326171875-22.7509765625,18.9541015625-3.8369140625,1.18994140625-7.8095703125,1.79296875-11.80859375,1.79296875Z" style="fill: url(#A4); stroke-width: 0px;"/>
      <path d="M60.276733398439319,191.421169281005859c13.27099609375-.000404357910156,25.611450195310681,8.072055816650391,29.934204101560681,20.769741058349609,5.372802734380457,15.782096862792969-3.676513671869543,32.732955932617188-20.212280273439319,37.860870361328125-3.231689453121362,1.002166748046875-6.510986328121362,1.478691101074219-9.734619140621362,1.478691101074219-13.270874023439319,0-25.611450195308862-8.072052001953125-29.934204101558862-20.769737243652344-5.372802734380457-15.782096862793878,3.676635742180224-32.732955932617188,20.212280273430224-37.860866546630859,3.231689453128638-1.002170562744141,6.511108398439319-1.478599548339844,9.734619140628638-1.47869873046875M60.27783203125,177.425548553466797h-.00146484375c-4.702514648439319.000137329101562-9.372436523439319.708911895751953-13.879760742189319,2.106681823730469-11.851684570310681,3.675365447998047-21.410034179680224,11.652774810791016-26.914428710930224,22.462684631347656-5.30615234375,10.420680999755859-6.158935546880457,22.238407135009766-2.401245117191138,33.276271820068359,6.16064453125,18.096405029296875,23.5146484375,30.254905700683594,43.18310546875,30.254905700683594,4.702392578121362,0,9.372436523441138-.708770751953125,13.880126953121362-2.106727600097656,11.851684570319776-3.675270080566406,21.410034179689319-11.652633666992188,26.914428710939319-22.462539672851562,5.30615234375-10.420684814453125,6.158935546880457-22.238456726074219,2.401245117189319-33.2763671875-6.16064453125-18.09640884399505-23.514282226558862-30.254909515380859-43.182006835939319-30.254909515380859h0Z" style="fill: #181818; stroke-width: 0px;"/>
    </g>
  </a>
  <a xlink:href="https://www.notion.so/dmmnotes/Type-A-d0420320e0bf4731b311ee86887d6ca3?pvs=4">
    <g>
      <path d="M69.5986328125,152.42431640625c2.1376953125,1.18212890625,3.9677734375,2.63232421875,5.4873046875,4.3505859375,1.51953125,1.7197265625,2.798828125,3.59912109375,3.8408203125,5.64013671875,1.0400390625,2.0419921875,1.8701171875,4.20361328125,2.490234375,6.48583984375.6181640625,2.28369140625,1.09765625,4.580078125,1.4345703125,6.888671875.7880859375,4.56640625,1.2373046875,9.18505859375,1.3505859375,13.8583984375.1123046875,4.6728515625.0283203125,9.37353515625-.2529296875,14.099609375-.11328125,1.34326171875-.2255859375,2.44482421875-.337890625,3.3037109375-.11328125.85986328125-.32421875,1.55810546875-.6328125,2.0947265625-.3095703125.53759765625-.74609375.966796875-1.30859375,1.2890625-.5634765625.322265625-1.3505859375.61669921875-2.36328125.88623046875-.9580078125.10693359375-1.9560546875.1875-2.9970703125.24169921875-1.0419921875.052734375-2.0126953125-.21533203125-2.912109375-.8056640625-.8447265625-.5361328125-1.548828125-1.4501953125-2.1103515625-2.7392578125-.5634765625-1.2890625-.8740234375-3.142578125-.9287109375-5.5595703125v-.8056640625c-1.408203125-.1611328125-3.08203125-.29443359375-5.0234375-.40283203125-1.94140625-.10693359375-3.9248046875-.173828125-5.951171875-.20166015625-2.0263671875-.0263671875-3.982421875-.0400390625-5.8671875-.0400390625h-4.76953125c-.056640625.4833984375-.126953125,1.2890625-.2109375,2.4169921875-.0849609375,1.1279296875-.267578125,2.255859375-.548828125,3.38427734375-.2822265625,1.1279296875-.662109375,2.14892578125-1.1396484375,3.0615234375-.478515625.9140625-1.1396484375,1.39599609375-1.9833984375,1.4501953125-.7890625.052734375-1.6884765625.10693359375-2.7021484375.1611328125-1.0126953125.052734375-1.998046875-.05419921875-2.9541015625-.322265625-.9580078125-.2138671875-1.759765625-.64453125-2.40625-1.2890625-.6474609375-.64453125-1-1.66455078125-1.0546875-3.0615234375,0-1.66455078125.02734375-3.57177734375.083984375-5.720703125.0556640625-2.14794921875.1689453125-4.484375.337890625-7.009765625.1123046875-2.0947265625.294921875-4.39111328125.548828125-6.888671875.2529296875-2.49755859375.6181640625-5.06201171875,1.09765625-7.6943359375.4765625-2.63134765625,1.0966796875-5.263671875,1.8564453125-7.89599609375.759765625-2.63134765625,1.716796875-5.12890625,2.8701171875-7.4931640625,1.1533203125-2.36279296875,2.5185546875-4.53857421875,4.0947265625-6.5263671875,1.5751953125-1.986328125,3.4609375-3.65185546875,5.65625-4.9951171875,2.587890625-1.5576171875,5.4296875-2.33642578125,8.525390625-2.33642578125,3.0947265625,0,6.021484375.72509765625,8.7802734375,2.17529296875ZM49.0849609375,189.083984375c3.544921875-.2685546875,7.076171875-.4697265625,10.5947265625-.6044921875,3.515625-.13330078125,7.048828125-.1474609375,10.59375-.0400390625.1689453125-3.8134765625,0-7.2236328125-.505859375-10.23291015625-.5068359375-3.00732421875-1.2109375-5.54541015625-2.111328125-7.61376953125-.900390625-2.06689453125-1.9697265625-3.65185546875-3.20703125-4.75341796875-1.2392578125-1.1005859375-2.5048828125-1.65185546875-3.798828125-1.65185546875-1.126953125,0-2.2939453125.55126953125-3.50390625,1.65185546875-1.2109375,1.1015625-2.3359375,2.712890625-3.376953125,4.833984375-1.0419921875,2.12255859375-1.9833984375,4.7412109375-2.8271484375,7.85595703125-.8447265625,3.11572265625-1.46484375,6.63427734375-1.857421875,10.5546875Z" style="fill: none; stroke: #181818; stroke-linecap: round; stroke-linejoin: round; stroke-width: 27.168022155761719px;"/>
      <path d="M69.5986328125,152.42431640625c2.1376953125,1.18212890625,3.9677734375,2.63232421875,5.4873046875,4.3505859375,1.51953125,1.7197265625,2.798828125,3.59912109375,3.8408203125,5.64013671875,1.0400390625,2.0419921875,1.8701171875,4.20361328125,2.490234375,6.48583984375.6181640625,2.28369140625,1.09765625,4.580078125,1.4345703125,6.888671875.7880859375,4.56640625,1.2373046875,9.18505859375,1.3505859375,13.8583984375.1123046875,4.6728515625.0283203125,9.37353515625-.2529296875,14.099609375-.11328125,1.34326171875-.2255859375,2.44482421875-.337890625,3.3037109375-.11328125.85986328125-.32421875,1.55810546875-.6328125,2.0947265625-.3095703125.53759765625-.74609375.966796875-1.30859375,1.2890625-.5634765625.322265625-1.3505859375.61669921875-2.36328125.88623046875-.9580078125.10693359375-1.9560546875.1875-2.9970703125.24169921875-1.0419921875.052734375-2.0126953125-.21533203125-2.912109375-.8056640625-.8447265625-.5361328125-1.548828125-1.4501953125-2.1103515625-2.7392578125-.5634765625-1.2890625-.8740234375-3.142578125-.9287109375-5.5595703125v-.8056640625c-1.408203125-.1611328125-3.08203125-.29443359375-5.0234375-.40283203125-1.94140625-.10693359375-3.9248046875-.173828125-5.951171875-.20166015625-2.0263671875-.0263671875-3.982421875-.0400390625-5.8671875-.0400390625h-4.76953125c-.056640625.4833984375-.126953125,1.2890625-.2109375,2.4169921875-.0849609375,1.1279296875-.267578125,2.255859375-.548828125,3.38427734375-.2822265625,1.1279296875-.662109375,2.14892578125-1.1396484375,3.0615234375-.478515625.9140625-1.1396484375,1.39599609375-1.9833984375,1.4501953125-.7890625.052734375-1.6884765625.10693359375-2.7021484375.1611328125-1.0126953125.052734375-1.998046875-.05419921875-2.9541015625-.322265625-.9580078125-.2138671875-1.759765625-.64453125-2.40625-1.2890625-.6474609375-.64453125-1-1.66455078125-1.0546875-3.0615234375,0-1.66455078125.02734375-3.57177734375.083984375-5.720703125.0556640625-2.14794921875.1689453125-4.484375.337890625-7.009765625.1123046875-2.0947265625.294921875-4.39111328125.548828125-6.888671875.2529296875-2.49755859375.6181640625-5.06201171875,1.09765625-7.6943359375.4765625-2.63134765625,1.0966796875-5.263671875,1.8564453125-7.89599609375.759765625-2.63134765625,1.716796875-5.12890625,2.8701171875-7.4931640625,1.1533203125-2.36279296875,2.5185546875-4.53857421875,4.0947265625-6.5263671875,1.5751953125-1.986328125,3.4609375-3.65185546875,5.65625-4.9951171875,2.587890625-1.5576171875,5.4296875-2.33642578125,8.525390625-2.33642578125,3.0947265625,0,6.021484375.72509765625,8.7802734375,2.17529296875ZM49.0849609375,189.083984375c3.544921875-.2685546875,7.076171875-.4697265625,10.5947265625-.6044921875,3.515625-.13330078125,7.048828125-.1474609375,10.59375-.0400390625.1689453125-3.8134765625,0-7.2236328125-.505859375-10.23291015625-.5068359375-3.00732421875-1.2109375-5.54541015625-2.111328125-7.61376953125-.900390625-2.06689453125-1.9697265625-3.65185546875-3.20703125-4.75341796875-1.2392578125-1.1005859375-2.5048828125-1.65185546875-3.798828125-1.65185546875-1.126953125,0-2.2939453125.55126953125-3.50390625,1.65185546875-1.2109375,1.1015625-2.3359375,2.712890625-3.376953125,4.833984375-1.0419921875,2.12255859375-1.9833984375,4.7412109375-2.8271484375,7.85595703125-.8447265625,3.11572265625-1.46484375,6.63427734375-1.857421875,10.5546875Z" style="fill: #fff; stroke-width: 0px;"/>
    </g>
  </a>
</svg>