<?xml version="1.0" encoding="UTF-8"?>
<svg xmlns="http://www.w3.org/2000/svg" width="280" height="280" xmlns:xlink="http://www.w3.org/1999/xlink" viewBox="0 0 280 280">
  <g id="Layer_8" data-name="Layer 8">
    <rect x="-4568.910876699140317" y="-2006.198710516211577" width="6875.234042553199288" height="4669.276595744679071" fill="#181818" stroke="#181818" stroke-miterlimit="10"/>
  </g>
  <g id="Pattern">
    <a xlink:href="https://www.notion.so/dmmnotes/body-talk-1c2b761605724d48b40dbcd53d3f1acc?pvs=4">
      <g>
        <g>
          <path d="M133.090393237300304,32.30710695416019c5.434056940579467-.990429059904272,9.465071106145842,3.676215503661297,14.666223592597817,3.624857764829358l7.579455775181486,3.642722743656122c.756457774499722,2.661358313987876-.793722932088713,4.746594320411532-1.81129312826306,6.92723809866402-7.056681974136154,15.12238855988835-.392349583073155,34.1983772937092,14.553023881335321,41.5502067380894,3.357418932662767,1.651555875630947,3.499506299835048,2.076812977376903,1.618495256794631,4.867925818452932-8.854963446303373-2.393808540075042-17.302315586091936-5.768965767632835-25.242584712854296-10.361973528995804-3.51830917643565-3.456976425246467-4.402344035204806-8.293886598346944-5.866926543334557-12.630932720681812-3.076657332334435-9.110838455313569-5.055098781918787-18.555005993363011-4.524593084161097-28.307912952426705.172900593172017-3.178593936578181-1.50901270975919-6.120174431256601-.971801037296245-9.312131961587511Z" fill="none" stroke="#9c708b" stroke-linecap="round" stroke-linejoin="round" stroke-width="34"/>
          <path d="M52.699394599034349,163.244461053123814c-9.155555216590074-12.988970618451276-10.936029905735268-27.055042279294867-6.576807566723801-42.256273918017541,1.819082036001419-6.343398533823347,5.761347574822139-11.872727515097722,6.671385776293391-18.506687747509204l7.300219589807966-15.189652198047042c3.8646447917763-1.180843753225417,7.640503967508266-1.400133241664662,10.533434280790971,1.991076617308863,3.066898636792757,3.595158898104273,1.165520871036279,7.230844142577553-.359310054949674,10.782525486976738-3.580872726353846,8.340676085515952-7.580511998605289,16.530769413986491-10.640591290844895,25.05780480012254-3.197736988997349,8.910625395083116-1.827441860115869,17.813208396486516,2.217251063437288,26.297587392409696-.244522689950827,1.32565798243013-1.139266738264268,1.715856696810079-2.356286212268969,1.647186755719304-4.227695838972068-2.323332200285222-3.278358040701278-6.852430267370437-4.357488939800533-10.488931690295431-.634805426128878-2.139215331992091-.699582928333257-4.422195258281135-.470934227590988-6.678188575573586-.134219332945577-10.528955592826605,4.531737455958137-19.685835754471555,8.444764123025379-29.028085844469388,1.860579970421895-4.442083826977978,4.020354727919766-8.736887056873456,3.907549380275668-13.740836852293796-5.431965157089508,13.348143949577207-13.327957469115063,25.789119920471421-14.633554706530049,40.606587922584367-1.135353975896578,8.912579259216727,2.7235586034476,16.926049404921287,4.527051187438701,25.317443046649714-.763097834946166,2.040834558883944-.784613984542375,4.833037065642202-4.206682402360457,4.188444804434766Z" fill="none" stroke="#9c708b" stroke-linecap="round" stroke-linejoin="round" stroke-width="34"/>
          <path d="M170.779905687279097,92.396965972418911c-.159700352505752-1.505062109927167-.71543004416344-2.642491109481853-2.365993153611271-3.047125296316153-14.160310668492457-3.471354331850307-24.48232171939344-29.209098758115942-16.983988433765262-41.738488347200473,1.523743505073071-2.546103207012493,2.615334406254988-5.351047285939785,3.906148505177043-8.036664866256615l8.526887747071669,4.098063086612456c1.161736080142873,3.076250073354458,4.97347131202514,4.089245441075036,5.776877688525929,7.44448531299895-1.013139714872523,1.206935966043602-2.473607896601607,1.146016408956712-3.839499357209206,1.393169500124714-5.523468906325434.999447525089636-7.881901150285557,3.735522805962319-7.8189446293527,9.287600183813993.047191421956086,4.161520100351481,1.348682516872941,7.962697906490575,4.081480221595484,11.125192769224668,2.620638886610323,3.032693487813958,5.79211272313114,4.375630308739346,9.840468432770649,2.778298265837293,1.819345314084785-.717848100093761,3.833918319756776-2.226334402928842,5.573914761696869.246485118950659-1.842908497139433,5.765243051280777-2.695890406741455,11.87406118947365-5.959666767512317,17.146164928470171-.481207797349271.017177567166073-.715477998441202-.227548689332252-.737685015386887-.697180656259661Z" fill="none" stroke="#9c708b" stroke-linecap="round" stroke-linejoin="round" stroke-width="34"/>
          <path d="M23.169230325043827,198.095470852511426c.173647072982931-.300680619568084.302436445932472-.619442831020933.38638113936031-.956316040572347,2.161785153228266-1.793073047356302,4.256371342244165-.631409436216927,6.321264407581111.182186926052964,8.365107171819545,3.295993897294466,16.826875262613612,6.310763268429582,25.455351957403764,8.847923159226411,6.0454929099742,2.300793009440895,11.506133561353636,5.907084659886095,17.682666033637361,7.915874942225855,1.202841894008088.281171491140412,2.29820606701287.79289738557236,3.283366561156072,1.538165078956808,1.10737855763,1.487541241414874,3.728763989804065,2.589721381205891,1.305561574292369,5.007988845480213-13.041928203481802-5.390965684580806-26.084673932244186-10.779952624103316-39.124086901665578-16.176984917710797-.967843683936735-.400580756782801-1.902697856321538-.919420820599044-2.993889137103906-.439413535219501-4.105539147247327-1.973141775642944-8.211076487414175-3.946282682794845-12.316615634661503-5.919424458439607Z" fill="none" stroke="#9c708b" stroke-linecap="round" stroke-linejoin="round" stroke-width="34"/>
          <path d="M124.854143956637927,170.892763715994079c-3.457606104770093.392072585833375-6.542283808696084,2.811419001467584-10.238949522235998,1.90391383075621-.413185631456145-1.008328617503139-.301943514921732-2.043560208578128-.205065575293702-3.094022820481769.895562607656757-9.710993545246311-2.242057787905651-17.623059172128706-10.870711441342792-22.581617757579806-7.522357622870913-4.322817887288693-18.377572580619017-2.604936115601959-25.896289176060236,3.601106563219219-1.202018525591484.99215919236849-2.187711589200262,2.28452623526573-3.816375389864334,2.657543726114454-2.320946528900095-2.717660257325406-3.910129443042024-5.82444265659251-4.896637656240273-9.251697461384538,1.33341027971619-4.67748731411848,5.550230469360031-6.481722652417375,9.0727620248108-8.844470789961633,7.225999720732943-4.846868145084954,15.645621350116926-7.515288008877178,22.911367188891745-12.320229061446298,2.688129681440842-.502609838840726,6.183955644075468,1.915289581549587,7.873920599444318-2.201136039737321.658122680571978-2.74434625050344-.998255310652894-4.12185639548261-3.05177274403286-5.305705120550556-1.903940550153493-1.097615541155392-4.174714012748154-1.720674855034304-5.250860058127728-3.941336863577817-.503949119705794-3.822315471355978.93444774944146-7.187466578685417,2.461522282716032-10.531263396676877,2.388142417206836-2.230549141233496,4.554944440391409-.368689243601693,6.739321336237481.420982186084075,2.671542052490622.965780116192036,5.306064084756144,2.176584679911684,7.519062892593865-.818749837559153,1.035274194924568-3.074292258252171-.956707993716918-4.421419573774983-3.176737351181146-5.67440831109343-2.236813030962367-1.262472692556912-4.872536831626348-1.905737277320441-6.496266673064383-4.136526152047736-.778975813987927-2.165150340912078.382074138080498-3.785791497386526,1.732028037498822-5.14765400840588,1.637231352055096-1.651669183160266,2.061824543192415-3.555462076601543,1.916357036778209-5.729724889788486,1.591812555654542-1.52378493676224,3.289586264098034-.716466349866096,4.732160758969258.052467233183052,3.111695895418961,1.658613867986787,6.408951693190829,2.21205476583782,9.857413379120771,2.247780714189503,5.310889839645824,5.57933971372222,9.839074313333185,11.583332204940234,10.471254699032215,19.669361442965965-2.757617976498295,2.567536659547841-6.171278248639283-1.662660903979486-8.924287509129499.887047595573677-2.480480753980373,3.486255032925328-.272950066140766,5.371603438608872,2.389641164007116,7.096967551706257,1.985037779872073,1.286326285558971,4.646371586086389,1.722396563089205,5.522107324410172,4.412967784390275-.119416383777207,3.737054353174244-2.567736241155217,6.130491482168509-4.915140707726096,8.581184527096411-1.852744980726129,1.412747671125544-3.824388311497387,1.038972396228928-5.801963551513836.346934383955158-2.003081343858867-.700970706075168-3.960009927683132-.9969078418344-5.758134456486005.50328999102021-2.194218554413965,3.004672456629123-.455237686217515,4.81595057996492,1.936148805412813,6.392248831516554,1.720670209093441,1.13419821928801,3.923054648730613,1.62698232114235,4.900561331960489,3.745440145070461-.897845746965686,5.276075723471877-.005423272727057,10.39599814941721,1.370986205085501,15.453969699186928,1.296145010463079,4.763034787911238,1.501355755235636,9.619977809299598,1.393400724060484,14.507067517311953-.063670302690298,2.88227831509721-.634989597590902,5.571185215925652-3.500823978731205,7.098268786950939Z" fill="none" stroke="#9c708b" stroke-linecap="round" stroke-linejoin="round" stroke-width="34"/>
          <path d="M54.828223268363217,207.4646527473069c-8.584624962497401-1.972940653517071-16.680620812472625-5.387141727505877-24.879132353898967-8.486376574552196-2.095032390154302-.791953900847147-4.004636450446924-2.104179700714667-6.393075091404171-1.839016183945205-1.548210349430519-2.880132978729307.331226251317275-4.677125855991108,2.204472431381873-6.243691262210632,3.621662509918679-3.028749563884048,7.282971403697957-6.03530645961655,11.135869341727812-8.755309310381563,5.587683140651279-3.944689892254246,11.610800758837286-4.253124795443,17.892521016659884-1.603079018739663,4.816945230995771,2.032071461122541,9.716181421857982,3.869184152819798,14.578820451548381,5.793007248936192,3.984542929358213-.440220131709793,7.207528182039823,2.213434543155017,10.968617832893869,2.692176223848946,1.337715107183612.17027599987523,3.120782149662773.96189023230545,3.685973041210673-.664546556499772.582250690049477-1.675531878112452-1.391183057445232-2.110038465269099-2.52590230986425-2.728073069909442-3.365193356774398-1.832952188928175-6.774084555132504-3.622461040829876-10.775663792579508-1.844061631310979.794947868234885-3.42325035455724-.719073871418004-5.223043472891732-3.794378859782228-6.764709900380694-6.108851026288903-3.062478696867402-10.917849623028815-7.700278859290847-14.226720725408086-13.776633102846972,2.540556940810347-.772770572697482,2.484705281520291-3.394467498550512,3.655988870090368-5.142441104026148,2.463723377850329.230708967204919,3.332350995164234,2.372312791221702,4.460708673825138,4.000306209858536,6.137164509196737,8.854838362147348,15.019117344640108,13.716620823146513,24.8154256347716,17.197702352603301,2.948183892354791,1.047611259702535,5.905899704324838,2.013496885045242,8.678281010643332,3.477908838020085,4.444438061223991,2.085946053182852,8.40088539055796,4.572964057573699,8.350243273369415,10.310401250684663-.895979570417694,1.855018137708612-1.791952178802603,3.710021789436723-2.687924520891102,5.565043401113144-1.982526559833786,3.846929655179338-5.51320124924132,2.349770690130754-8.332484217951787,2.045968588145115-7.349296987806156-.791958109666666-14.639442423424043-1.086328646681068-22.01592584188802-.279360694701609-5.829326839346322.637720419364996-10.862412549560759,2.585059450399058-14.795713864454228,7.044784296294893Z" fill="none" stroke="#9c708b" stroke-linecap="round" stroke-linejoin="round" stroke-width="34"/>
          <path d="M102.660271713548354,193.088217156455357c-2.157770879301097-3.6786982826452-3.973731315343684-7.692344579185374-8.676352813019548-8.877339865759495-.47842993258746-2.158837425844467-3.008511943895428-3.722298499205863-1.833161935015596-6.363001046998761,2.645901142172079-1.309241328566713,4.725277814528454.416306084949611,6.810507523307024,1.453838259863915,4.700922450101643,2.339030398992691,9.499906387487499,4.441197710968481,14.727621039055521,5.034782264548994,5.0097968378941.568846412961648,10.192864368533264,1.024477105596816,13.633772966422839-4.045473748108634,11.181917573356259-3.949271682311519,20.50186897788808-10.331527373216886,24.388929049287981-21.996477626134947,2.552417609693293-7.659740750663332,6.848866280153743-14.544408068750272,8.871001123825408-22.405134883798382,1.426431493266136-5.545055392301947,6.36541118173227-8.354192579741721,10.662925174401607-6.75808848314955,4.160092566527965,1.545064301359162,5.28103109561016,6.685964861739194,2.854777369822841,12.193669862333991-3.878321117284941,8.803972180516212-7.483938897203188,17.721585059134668-11.383377552234379,26.523396771121043-8.908318618912745,20.107855475227552-32.542040631660711,31.45032549775533-54.494197667716435,26.675306365275901-1.869830052404723-.406736634458866-3.709012793497095-.95368598612913-5.562444278137264-1.435477869194074Z" fill="none" stroke="#9c708b" stroke-linecap="round" stroke-linejoin="round" stroke-width="34"/>
          <path d="M133.090393237300304,32.30710695416019c2.039238799614395,3.216583890613038,2.25610489758219,6.761808681345428,2.235288427113119,10.478308601550452-.059768663648356,10.670573267851069,1.901622359777321,20.962197625922272,6.17429957963941,30.791855474935801,1.027833189453304,2.364639599776638,1.602819062203707,4.92720368684968,2.386065148111811,7.398744522741254-2.511941692468099,2.399050147516391-5.208192156424047-.728886071674424-7.767869537878141.288827404263429-.760222818247712.102976513735484-1.515535224363703.114329612661095-2.261397199506973-.087989604962786-3.054025511550208-1.785237338222942-3.968578589036042-5.172417914342077-5.835492319574769-7.848444430248492-.297873106390398-.426968371213661-.533684247688143-.897109079945949-.807075057717157-1.341840879735173-6.814637812980436-11.085767582944754-7.103038238095905-11.146742739805632-17.259171019042697-3.647178763036209-6.470544375151803-.660117055087539-11.674309798814647-4.360146599730797-17.256340353062114-7.149242610077636,3.970208614811781-9.827138539643784,8.541619845049354-19.19837328655376,18.349007660817733-24.690201811908992,6.892212633618328-3.859419578939196,14.118927837405863-5.855891212651841,22.042684671099778-4.192837903521649Z" fill="none" stroke="#9c708b" stroke-linecap="round" stroke-linejoin="round" stroke-width="34"/>
          <path d="M73.826752851840865,153.379687258022386c6.810831784598122-9.629705757395641,20.450863784993999-12.649962787972981,31.094227062130813-7.202796106883397,7.594818461602699,3.886959226820181,14.258501297050316,18.696830269667771,9.693583105921789,26.621248299514264-15.50422874943979-2.464393854661466-30.218901327367348-6.587178259880602-40.787810168052602-19.418452192630866Z" fill="none" stroke="#9c708b" stroke-linecap="round" stroke-linejoin="round" stroke-width="34"/>
          <path d="M54.828223268363217,207.4646527473069c1.06304714097314-5.888006673378186,6.151251806424625-6.656928030339259,10.507620856567883-7.595062905913437,8.404712873538301-1.809932242234936,16.960694485269414-1.75255483937508,25.492604890980147-.515624269579348,3.073888450509912.445657055845004,6.217972178978016,1.152604030119619,9.143091760906827-.700397134844025,3.898211554105728,1.926798891032377,7.790677839744603,3.747339841700523,11.996650794779271,5.071378018494215,7.009370229054184,2.206502782857569,12.196586037904126,6.633059394669544,13.633884995835615,14.375751011169996-2.919659509165285,1.599272943602045-5.378113900975222-.087415973595853-7.918310602579368-1.118140072572714-11.738232999337924-4.762923472790135-23.733713064182666-8.309569280234427-36.606361974416359-6.956192705303692-3.303279263836885.347303584358087-7.356550258058633.181337593656281-7.805635566764977,5.150363450426084-6.888387923610935-.800725028750094-12.203535143702538-5.361663170819156-18.443545155309039-7.712075391877079Z" fill="none" stroke="#9c708b" stroke-linecap="round" stroke-linejoin="round" stroke-width="34"/>
          <path d="M124.854143956637927,170.892763715994079c3.859504810228827-6.841655765188989,2.055551227893375-13.892057394350559.924081618906712-20.967776885623607-.856044581636525-5.353316981136231-4.065194881861316-10.673584021684292-.533556759242856-16.192698409086006,2.303241117915604-.807972735341536,4.479129276091044.011321384112307,6.565212465169679.728876793547897,5.713008672924843,1.965122801713733,10.953509838736863,5.099167438029326,16.753177737700753,6.885625125740262.991146173750167.305305369658527,1.742325148226882,1.101693058009914,2.154835211627869,2.121332352779064-4.154277722434927,9.831752455080277-8.295830491559173,19.650950514151191-18.600756597654254,24.913734815849239-2.327000163548291,1.188402584424693-4.551074804512609,2.514450745036811-7.262993676507904,2.510906206793152Z" fill="none" stroke="#9c708b" stroke-linecap="round" stroke-linejoin="round" stroke-width="34"/>
          <path d="M100.989864619174114,123.504536611610092c-3.376205004353324,4.344223364591016-8.628745944086404,5.718804464491768-13.226009831409101,7.906361693949293-6.972981742377669,3.318023169802473-13.338629654332181,7.310937791571632-18.833719714251856,12.717101044498122-4.584203068425268-11.377362530452956-1.953032421104581-21.916555089403118,3.769048825690334-32.096695487110992,3.300545628220789-.877379786026722,6.219476266900529.625661164653138,9.116934525542092,1.683567701820721,5.407080939550724,1.974229171555635,10.266292927228278,5.269038711416215,15.951002794347005,6.65256824070093,1.515130087642319.368748732016684,2.857272757690225,1.363036917668069,3.222743400081526,3.137096806141926Z" fill="none" stroke="#9c708b" stroke-linecap="round" stroke-linejoin="round" stroke-width="34"/>
          <path d="M73.271768423672256,215.176728139183979c-4.268265720049385-4.062741334495513-.273489260889619-5.010016789083238,2.445899425105381-5.61497340783535,11.334930519051341-2.52168034096394,22.29874615742483-.770504652897216,33.258661842397487,2.730698302870223,5.606304951939819,1.790960397380331,10.690643220867059,5.02697033460754,16.625161913934789,5.807998960654004.49605350539241,3.747701144118764.991521782158088,7.495138856522317,1.486983096900076,11.242591054910008-2.415630366771438,1.420730836482107-4.24371009963761-.109236962629438-6.23030211859259-1.151646718857592-6.892475036454925-3.616520221203245-13.63359173801291-7.635804135463331-21.641655736515531-8.405935922450226-4.018334093729209-.386429470767325-7.980438793134454-.559472937578903-11.47899992643579,2.026398536783745-5.145927653569743,1.047247295084162-8.226905932251611-2.448176923064239-11.613978137267623-5.270975822268156-.950587710396576-.454717169943251-1.901182649129623-.909437813861587-2.851770359526199-1.364154983806657Z" fill="none" stroke="#9c708b" stroke-linecap="round" stroke-linejoin="round" stroke-width="34"/>
          <path d="M177.477257470178301,75.947981700208402c-1.615412952425686-.783753177542167-3.106719728346434-.26257605752653-4.468829302986705.587134649993459-4.884803302184082,3.047178874532619-8.600973741913549.880978652681733-11.955932987271808-2.657610932641546-2.621224128937683-2.764688355642647-4.01433043619727-6.276265225846146-4.319150801162323-9.93348536421945-.635034475886641-7.619035396581239,1.573619051827336-13.971682191402579,12.906238254472555-12.826826697275465,7.001788782019503,6.881855810317575,7.60817453117852,15.796424642659986,7.837674836948281,24.830788344143002Z" fill="none" stroke="#9c708b" stroke-linecap="round" stroke-linejoin="round" stroke-width="34"/>
          <path d="M92.698700905382793,61.190146669590831c4.672163336153972.103586266763159,8.325521712551563,3.049754011693949,12.528185706567456,4.453867837126381,1.768314068925974.590797392531385,3.310088863570854,1.950270145976901,5.348790339556217,1.680518120823763,6.675337407579718-.288404424909459,11.940444745665445,3.225143384486728,16.668764675043349,7.09876457293467,2.716695664008512,2.225612585116323,2.906158151359705,5.852498584685236-.915052437085251,8.214075031608445-3.297164922147203,1.89167752100002-6.277934453586568.862749815662028-9.39755742709167-.686614714852112-1.803039070442537-.895486036577495-3.613537684132098-2.207179967192133-5.867088864744801-1.872378717891479-1.161940311878425.61953229169012-2.364194751189643.465709273383254-3.490761768956872.011594454210353-5.244602586029941-2.114079140179456-10.261506290624311-4.770273977983379-15.677070202205869-6.489058115896114-1.337095763685284-.424364724533007-2.300366439936624-1.473806163323388-2.685076365351051-2.91812684951401,1.162289383788448-3.164213583348101,2.324576960489139-6.328428035196339,3.486866344268492-9.492641618549897Z" fill="none" stroke="#9c708b" stroke-linecap="round" stroke-linejoin="round" stroke-width="34"/>
          <path d="M87.950467258504432,221.04853322456438c.803079219804204-2.41962881867039,2.649353595548746-2.777738587350541,4.948763428339589-2.963665625082285,11.131756336641047-.900093385705986,20.356401194756472,4.170219477584396,29.461295906274245,9.391703021392459,1.575764556693684.903666945980149,3.157937353496891,1.244855055512744,4.728114094235934,1.866534370294175.914332781494522,2.727363247393441,1.510528308526773,5.438545898196026-.420890915687778,8.020804597028473-5.033874648017445.157700288773412-9.441340421122732-1.848564116038688-13.941054941225957-3.771433330377477-6.555118243177276-2.80121780924128-13.360111255478841-5.015756614684506-19.681910098694061-8.370150694008771-1.975467801630657-1.048208383523161-4.253979590572271-1.734064080974349-5.094317473241972-4.173792339246575Z" fill="none" stroke="#9c708b" stroke-linecap="round" stroke-linejoin="round" stroke-width="34"/>
          <path d="M129.271380106865763,122.928967421508787c1.43695676207426-3.327959215665032,4.583447037439328-5.618407896663484,5.584979049306639-9.210628118949899.612072095633266-.345806685496427,1.323881713595256-.757357830136243,1.959452259272439-.571846308572276,7.909419939227519,2.308689214180049,15.630387201466874,5.068239185191487,22.478931147241383,9.8131390905437-1.642610660233913,3.607827367803111-3.285210611133152,7.215650966581961-4.92781404303787,10.823481808352881-9.212802933860075-1.659152752177761-18.137510913029473-3.984120899829577-25.095548412782591-10.854146471374406Z" fill="none" stroke="#9c708b" stroke-linecap="round" stroke-linejoin="round" stroke-width="34"/>
          <path d="M89.211834561114301,70.682788288140728c7.284404327374432,3.131976206330364,14.568810395256151,6.263948791161965,21.853059722490798,9.395756885853189,2.02012375231061,1.15081907138665,3.418095076447571,2.29552768126814.932991266590761,4.533529862999785-1.739723460450477,1.566729218940964-3.5207239405172,3.213475062128055-4.316955962731299,5.564407025720357-5.526502002949201,1.069752326773596-9.994721585475418-1.83983367516521-14.532807816221975-4.104357836380586-3.441850466941105-1.717491132509167-6.671034995775699-2.545795794370861-10.206802105005409-.595656600955408,1.282186286654905-5.273522279007011,4.369500785180207-9.782319332669431,6.270514894877124-14.793679337237336Z" fill="none" stroke="#9c708b" stroke-linecap="round" stroke-linejoin="round" stroke-width="34"/>
          <path d="M103.640311734821807,100.876002151544526c-.898928838640131,3.534361676667686-1.797857810415735,7.068714373359398-2.69678664904859,10.603076050032541-3.451093772002423.998752117304321-6.486160826485502-.716847541461902-9.427412693921724-1.85623403311547-5.263531974105717-2.038969688283032-10.622534903535779-4.025872179840007-15.195073922453957-7.519965159437561,1.475112855176121-3.694934358856699,2.950225710354061-7.389868717715217,4.425336758447884-11.084803945066596,8.733176771087528.728193539247513,16.243994126085454,4.293883370810363,22.893936506976388,9.857927087587086Z" fill="none" stroke="#9c708b" stroke-linecap="round" stroke-linejoin="round" stroke-width="34"/>
          <path d="M76.321038469397536,102.102879009024036c8.207502855892017,3.125409191474319,16.415007518866332,6.250819251437861,24.622497592026775,9.376213383484355,2.192010667275099,1.034669183023652,4.416526146782417,2.00648184743477,6.5682678148587,3.119088768884467,3.055139369213066,1.579746574114324,4.48330567724588,3.80505564664054,2.469626924576005,7.179498629846421-5.291520777884216,1.588349305548036-9.860607748303664-1.150184699572492-14.622555114747229-2.525553047804351-6.219417930762575-1.796328513582921-12.003878631923726-4.614029142845538-17.277871074096765-8.388841485109879-1.66537353084459-1.191967575112358-3.551921181422586-2.360380107227684-3.416346366519065-4.877710083685088.552124376241409-1.294230219868041,1.10425404057969-2.588466814235289,1.656380223901579-3.882696165615926Z" fill="none" stroke="#9c708b" stroke-linecap="round" stroke-linejoin="round" stroke-width="34"/>
          <path d="M82.941319666237177,85.476467625378064c1.164878143170426-3.442182353448516,2.899525333161364-4.335546448590321,6.541067945929171-2.605910391623183,5.893354659527176,2.799189182012924,12.115352476663247,4.906489953218625,18.198558305610277,7.305937135375643,2.641768966906966,1.2430014001784,5.282587074296316,2.48806457806495,7.925588187696121,3.728492979593284,3.304372559929107,1.550832923812777,4.865649076537011,3.780249028630351,2.876221330423505,7.399642786798722-7.938596395420973,1.367765596398385-14.600290511822095-2.793075839097583-21.548948319477859-5.288049686732847-5.357123167672398-1.923533688433963-10.609472764892416-4.559243272642561-14.108692064040952-9.507524795839345.050620717735001-.34287622235388.089353223960643-.687070396208583.116204613859736-1.032588027572274Z" fill="none" stroke="#9c708b" stroke-linecap="round" stroke-linejoin="round" stroke-width="34"/>
          <path d="M129.271380106865763,122.928967421508787c7.990099149072194,4.48491950861353,16.847529641116125,6.96536896683574,25.095559388430047,10.85416066230755.070632274373565.297538346430883-.007141302383388.549341002822985-.233342681565773.755379587311836-.629419144623171,4.557725591250346-3.396880334741581,5.614372289286621-7.498741915082064,4.720200352161555-9.30170858045858-2.02768018590541-17.682301364615341-6.270531315414701-25.884667185047874-10.864207686379814-1.943926439436837-1.088676275050602-4.411359062951306-2.481565348063668-3.258334652684425-5.646121453650267,1.654756143901977-2.580334385333117,3.90635708084119-2.372300469514812,6.383876832212991-1.461732814674178,1.762919066886752.647923786402316,3.362118979606748,1.87270213638476,5.395650213737099,1.642321352923318Z" fill="none" stroke="#9c708b" stroke-linecap="round" stroke-linejoin="round" stroke-width="34"/>
          <path d="M135.719656636505533,80.411131051612756c2.908005799699822-2.447545665641883,5.395858861678789,1.061166373785454,8.166316140841445.564759962304379,8.667481993994443,4.506598397178095,17.910412649782302,7.658558700110007,26.893932909932118,11.421074958501777.225081064281767.254459579200557.470975980641015.486847144637068.737688496401461.69717341327123-.609905996532689,1.204979932001152-1.219801283710694,2.409956094988956-1.829703799226991,3.614928784001677-4.353643922446281,2.227068636564582-8.530436681730862.35615453565697-12.649463861485856-.71761910024361-6.940073664016381-1.809190120215135-13.437250913584649-4.6957897432967-18.910378589012907-9.453648403277839-1.760596885262203-1.530506526469253-3.942627216256369-3.169291749332842-2.40839129744927-6.126669614557613Z" fill="none" stroke="#9c708b" stroke-linecap="round" stroke-linejoin="round" stroke-width="34"/>
          <path d="M169.63808847468863,97.798471996857188c-.791313571971841,5.852386904998639-4.674017991399523,10.372997767617562-6.753891434373145,15.670269419151737-4.038111352918349.605713821558311-6.954699594074555-2.10199451637709-10.325512010662351-3.47098467435535-4.636699394655807-2.611570952543843-6.162945722788209-7.437033850643274-7.988150001901886-11.879893611821899-1.444378953983687-3.515847956388825.022347741667545-4.361586564005847,5.745020458132785-3.653439762285416,3.042720758585347.707960343661398,5.713295421926887,2.342638533582431,8.578673747120774,3.501373894381686,3.623450781333304,1.465301956339317,7.193228494781579,2.158143796410513,10.743859241683822-.167325265070758Z" fill="none" stroke="#9c708b" stroke-linecap="round" stroke-linejoin="round" stroke-width="34"/>
          <path d="M152.798526723576288,108.603857398014952c3.361889525411243,1.621629213161214,6.723779050822486,3.243258426326065,10.085670316739197,4.864884017993973-.558481009307798,1.238704628494816-1.116970987453897,2.477409404518767-1.675451996761694,3.716114033013582-2.78450036605318,1.252339383883736-5.482846636487011.227590313310429-8.151574957661069-.398377859317407-8.191881769431347-1.92147470848613-15.846934293085724-5.200433766527567-22.829616091406933-9.863739323998743-1.748833401143202-1.167928286962706-4.75437515147496-2.051260790263768-3.629181527672699-5.39653659999567,3.301192638526118-3.750342598419593,6.360861022676545.815247660690147,9.569160962360911.263480601643096,4.91173362974223-.840204176836778,8.439896249006779,2.213195936437842,12.206954052910078,4.455636901555408,1.446642100829195.861149453228791,2.500852253511766,2.394019773671971,4.42403924149221,2.358538229105761Z" fill="none" stroke="#9c708b" stroke-linecap="round" stroke-linejoin="round" stroke-width="34"/>
          <path d="M126.598372466813089,101.526201665710687c5.366809397117322,6.609793569085014,13.202112286022384,9.073476585837852,20.675540882170026,11.955289138872104,4.457915348955794,1.719004079966908,9.277672864682245,2.5005338910305,13.934800365426781,3.703429831353787.169799991877881,2.192135898816559-1.270898831435261,3.851471372798187-1.913971151723672,5.774711448593735-8.146213128255113-3.080296587770135-16.292436965872184-6.160589406528743-24.438516750324197-9.24108938813697-2.315289538262732-1.077922324351675-4.678460029401322-2.064901278446996-6.935622787075772-3.253308237995952-4.004769031689648-2.1085230919889-4.419636808685027-5.177038368723515-1.322230558473166-8.939032792686703Z" fill="none" stroke="#9c708b" stroke-linecap="round" stroke-linejoin="round" stroke-width="34"/>
          <path d="M127.322658494298594,180.291023020001376c1.322708349820459,2.468897509206727.365331630182482,3.572266712866622-2.141942770356764,4.443416721633184-7.562671851506821,2.627609547120301-14.640561661410175.935456826658992-21.730377119622062-1.78122119163163-3.807073473499258-1.45877499663402-6.962974344611212-4.641289272012727-11.430335774253763-4.358469409640747-1.798828653363671.65044259221213-3.194572875403537-.096608256293621-4.461338282128054-1.273191608563138-.311615006405191-2.711076085290188-1.481386172261409-5.044023702816048-3.220444818878605-7.118289393125451,2.487556638419846-.640233711710607,4.349582267690494.976342261938044,6.264307625324363,1.969519015707192,6.330203709445414,3.283539236626893,13.075346228617491,5.511914177755898,19.755566516832914,7.847695063746869,5.51272834035808,1.927587782271075,11.291542467684849.915567030149759,16.964564623081969.270540801873722Z" fill="none" stroke="#9c708b" stroke-linecap="round" stroke-linejoin="round" stroke-width="34"/>
          <path d="M169.63808847468863,97.798471996857188c-1.307924150743929,3.689438503450219-3.128493240632451,5.07498708060848-7.18622631234939,2.875770965840275-4.084381259755901-2.213659444532823-8.665894279167333-3.509643577939642-13.029569247531981-5.207731578651874-4.770153478933935-1.723946214606258-10.189361398393885-1.193597057868828-14.530040783411096-4.536202131021128-4.109134583477498-3.164311000442467-4.448782906163615-6.304032804902818-.655882230326824-10.100436280203212.494412400770671-.139564799732398.988824801541341-.279129599464795,1.483261968871375-.418718160204662.875019271206838,4.710963223178624,4.837153300237333,6.559855676438019,8.342799101706987,8.604583970420208,7.891653538872561,4.602944075490086,16.479161923114589,7.137238860961588,25.625459679111373,7.693347346608789-.016594923663433.363116550754057-.033198549866938.726251208980102-.049802176070443,1.089385867211604Z" fill="none" stroke="#9c708b" stroke-linecap="round" stroke-linejoin="round" stroke-width="34"/>
          <path d="M117.491853060915673,122.748378883259647c.417226145431414,2.063979273518271,2.003737930075658,3.407376426011979,3.588133214267145,4.202662712814345,8.465051617989957,4.249035669077784,16.790087081226375,8.766465683576826,26.207762058827939,10.905693932218128,3.771484235085154.856692958752319,5.51327564098392-.234899307510204,6.845741652536162-3.318172207014868-.200267771182553,3.335013116042319-2.1360055774785,6.006941754176296-3.415609946106997,8.929570384085309-8.491112262636307-3.245281072915532-16.982245943969247-6.490554607793456-25.473293684208329-9.735840334866225-2.028665113348325-.96925319136426-4.146711213697927-1.789484355747845-6.066414171589713-2.940726440487197-3.346387451058035-2.006780802799767-4.441878563120554-4.661123127136307-1.686319123726207-8.043188046749492Z" fill="none" stroke="#9c708b" stroke-linecap="round" stroke-linejoin="round" stroke-width="34"/>
          <path d="M87.950467258504432,221.04853322456438c12.410335021211722,6.614780451209299,25.585477104057645,11.415567988578914,38.718085961467295,16.315352369492757-2.784794217926901,3.361978424194604-6.116701195169298,1.173530458880123-8.633161658804966.174435560189522-13.574772043022676-5.389559381284926-26.972661918880476-11.224270558654098-40.431565073798993-16.906240626431099,1.145593180797732-1.961251143335176-1.471008729693494-2.551566008938607-1.48033936768843-4.091293562427381,3.961587095629511,1.452256172608031,7.292543435976768,4.557220499495088,11.826980138825093,4.507746259176201Z" fill="none" stroke="#9c708b" stroke-linecap="round" stroke-linejoin="round" stroke-width="34"/>
          <path d="M82.825115052377441,86.509055652950337c10.792125725740334,7.566182580245368,22.952607701678062,11.836656629820936,35.657629940471452,14.795596211542943-1.484856232937091,3.650468526331679-4.260235466959784,3.355346804433793-7.226439435426073,2.339259347625557-2.555101849309722-.875277876712062-4.785972337227577-2.643061035965729-7.616032931791779-2.767642545166382-7.631268488208661-3.286216238184352-15.262577759533087-6.572157849474024-22.893893117861808-9.858146966125787.692908994924437-1.503053107206142,1.385822269772689-3.006059577537599,2.078735544608207-4.509066047876331Z" fill="none" stroke="#9c708b" stroke-linecap="round" stroke-linejoin="round" stroke-width="34"/>
          <path d="M74.664658245495957,105.985575174639962c8.911912058212693,8.59756096100682,20.229338098437438,12.046526439498848,31.83650962718275,14.878553676164302,1.16504058049577.284250787588462,2.320374141030698.608166605012229,3.480238694215586.91361062134456-2.197392204230709,4.783838500132333-5.685540877297171,2.776019351211289-8.991534719383708,1.726800613434534-9.430213210885995-3.824374614025146-18.860415712413669-7.64875299706182-28.290653081126948-11.473183801368577-.480082626847434-2.383681468769282.965340424838359-4.142477828059782,1.96543947911232-6.045781109574818Z" fill="none" stroke="#9c708b" stroke-linecap="round" stroke-linejoin="round" stroke-width="34"/>
          <path d="M84.338219729059347,170.203268138673593c1.77959187732813,1.642419068770323,7.621826885175324,1.311371021995001,2.943748888399568,6.090660384379589-9.488104943377039-.152572703649639-24.690168405761142-11.197264764965439-27.465590193392927-19.966255761899447-.373760486127139-1.180931694027095-.640221661320538-2.377806652657455.246099284160664-3.482496950304267.594776205916787-.475144733372872,1.189559373868178-.950303952728063,1.783416230660805-1.424891939535883,5.120389157093086,9.112884879283229,12.799882392610016,15.155615569103247,22.49232579017189,18.782984267360007Z" fill="none" stroke="#9c708b" stroke-linecap="round" stroke-linejoin="round" stroke-width="34"/>
          <path d="M70.720723836038815,183.785682612542587c1.315020630403524-2.858103044640302,3.540146135866962-3.048186736097705,6.061588557073264-1.94591120691075,2.540321684171431,1.110546554864413,5.023205039724417,2.35525957910977,7.510149202944376,3.583913960232167,1.411000817928652.697106963349142,3.174341755931891,1.543132673481523,2.299559952358322,3.414918555297845-.818430050712777,1.751220116839249-2.545036910420095,3.0866511917975-4.685974026680924,2.281872218680292-4.186230685758346-1.573630597073134-8.746117687904189-2.185417997625336-12.537277751234797-4.789470763498684.449936346378308-.848986653547399.900947013040422-1.697153840183091,1.351954065539758-2.545322763800868Z" fill="none" stroke="#9c708b" stroke-linecap="round" stroke-linejoin="round" stroke-width="34"/>
          <path d="M60.062479515307132,152.845176679340511c2.25146982917795,7.733123416746821,7.361818126451908,13.199591793269065,14.119773805856312,17.10503361015617,4.189611710358804,2.421204051099267,8.721486300890319,4.249738128099125,13.099719823398118,6.344023552743238,1.579334719424878.766667911511831,3.158680927985188,1.53362665622808,4.73803021810636,2.300551218027977,1.16253310157299,1.693295712269901,3.152270453785604,3.095461348999379,1.963923565095683,5.616149584257073-4.996768602439261-2.010594201925414-9.98517203684969-4.042204145787764-14.992061114700846-6.027223128885453-9.976328317037769-3.955195652559269-17.225301184695127-10.977537448139628-22.635514754965698-20.082867079618154-3.870881806844409-7.393926856771941-5.951196540074307-15.172094727597141-5.005000644579923-23.598256500545176,2.300930286904986-.706986404380586,3.650450095332417.52872570990985,4.729628644001423,2.316449520449169.110952449729666,5.646766546788058.10712014976707,11.322302062128074,3.98150045778857,16.026139223415157Z" fill="none" stroke="#9c708b" stroke-linecap="round" stroke-linejoin="round" stroke-width="34"/>
          <path d="M56.080979057518562,136.819037455925354c-1.576308860943755-.771936321016256-3.15261333732451-1.543879450775421-4.729274132399951-2.316136484740127-1.422654995847552-4.673164887057283.471637479686251-9.049705269764672,1.902657030474074-13.172078955478355,3.356372561313037-9.668786698055555,8.166744718590053-18.79186166429281,11.292762092600242-28.579373637732715.567250708154461-1.776055624881337,1.799274582064754-3.30291169685006,3.902390383731472-2.36789436680192,2.126991354525671.945609352726024,1.404537930648075,2.716377749147796.853850207231517,4.491994767327924-3.447859966290707,11.117165820503942-9.642335144862955,21.194132275510128-12.281197514701489,32.620843121578218-.713932335222125,3.091451296508239-.919749209189831,6.186293517881495-.941188066935865,9.322645555846975Z" fill="none" stroke="#9c708b" stroke-linecap="round" stroke-linejoin="round" stroke-width="34"/>
          <path d="M134.236371641576625,80.829869351324305c-2.746770717085383,6.488689993060689-2.538818869805255,7.095038221339564,3.700866150576985,9.809298193691575,3.80779670924494,1.6563887228167,7.655381852664505,3.221306097926572,11.485080022366674,4.827329058000032-1.368357117113192.987346603909828-3.135877911179705-1.590589379682569-4.188819306558798.282502988526176-.796730032145206,1.417305049737479.809629479714204,2.484461552860012,1.429835263468703,3.638920098837843,1.751230940260939,3.259785075904801,2.435856322224936,7.253912663196388,6.134703984074804,9.215511013591822-6.02255171672914-1.101957746159314-11.12392985527913-4.452217208425282-16.630554515657423-6.813866175674775-2.120052097474399-6.982327111694758-6.945729123763158-12.568293348642328-9.838123905316024-19.152148690742251,2.518673899674468-5.87709159206679,1.925166616625575-7.273149674774686-3.971506613655947-9.879650038656109-3.95514847153936-1.74828852850078-7.856646085301691-3.617910384075003-11.782165060014449-5.433236940372808.730527233459725-2.358258524525809,2.776114539481568-3.490197998087751,4.55630162232228-4.853106582891996,2.867171832120221-2.195103886560901,5.185752637666155-1.804809748320622,7.601650244589109,1.036392315922058,4.53493837280439,5.333292626351977,7.441368783556754,11.703664307859071,11.502732113804086,17.322054759768434Z" fill="none" stroke="#9c708b" stroke-linecap="round" stroke-linejoin="round" stroke-width="34"/>
        </g>
        <g>
          <path d="M133.090393237300304,32.30710695416019c5.434056940579467-.990429059904272,9.465071106145842,3.676215503661297,14.666223592597817,3.624857764829358l7.579455775181486,3.642722743656122c.756457774499722,2.661358313987876-.793722932088713,4.746594320411532-1.81129312826306,6.92723809866402-7.056681974136154,15.12238855988835-.392349583073155,34.1983772937092,14.553023881335321,41.5502067380894,3.357418932662767,1.651555875630947,3.499506299835048,2.076812977376903,1.618495256794631,4.867925818452932-8.854963446303373-2.393808540075042-17.302315586091936-5.768965767632835-25.242584712854296-10.361973528995804-3.51830917643565-3.456976425246467-4.402344035204806-8.293886598346944-5.866926543334557-12.630932720681812-3.076657332334435-9.110838455313569-5.055098781918787-18.555005993363011-4.524593084161097-28.307912952426705.172900593172017-3.178593936578181-1.50901270975919-6.120174431256601-.971801037296245-9.312131961587511Z" fill="#e4c2ba" stroke-width="0"/>
          <path d="M52.699394599034349,163.244461053123814c-9.155555216590074-12.988970618451276-10.936029905735268-27.055042279294867-6.576807566723801-42.256273918017541,1.819082036001419-6.343398533823347,5.761347574822139-11.872727515097722,6.671385776293391-18.506687747509204l7.300219589807966-15.189652198047042c3.8646447917763-1.180843753225417,7.640503967508266-1.400133241664662,10.533434280790971,1.991076617308863,3.066898636792757,3.595158898104273,1.165520871036279,7.230844142577553-.359310054949674,10.782525486976738-3.580872726353846,8.340676085515952-7.580511998605289,16.530769413986491-10.640591290844895,25.05780480012254-3.197736988997349,8.910625395083116-1.827441860115869,17.813208396486516,2.217251063437288,26.297587392409696-.244522689950827,1.32565798243013-1.139266738264268,1.715856696810079-2.356286212268969,1.647186755719304-4.227695838972068-2.323332200285222-3.278358040701278-6.852430267370437-4.357488939800533-10.488931690295431-.634805426128878-2.139215331992091-.699582928333257-4.422195258281135-.470934227590988-6.678188575573586-.134219332945577-10.528955592826605,4.531737455958137-19.685835754471555,8.444764123025379-29.028085844469388,1.860579970421895-4.442083826977978,4.020354727919766-8.736887056873456,3.907549380275668-13.740836852293796-5.431965157089508,13.348143949577207-13.327957469115063,25.789119920471421-14.633554706530049,40.606587922584367-1.135353975896578,8.912579259216727,2.7235586034476,16.926049404921287,4.527051187438701,25.317443046649714-.763097834946166,2.040834558883944-.784613984542375,4.833037065642202-4.206682402360457,4.188444804434766Z" fill="#ba9699" stroke-width="0"/>
          <path d="M170.779905687279097,92.396965972418911c-.159700352505752-1.505062109927167-.71543004416344-2.642491109481853-2.365993153611271-3.047125296316153-14.160310668492457-3.471354331850307-24.48232171939344-29.209098758115942-16.983988433765262-41.738488347200473,1.523743505073071-2.546103207012493,2.615334406254988-5.351047285939785,3.906148505177043-8.036664866256615l8.526887747071669,4.098063086612456c1.161736080142873,3.076250073354458,4.97347131202514,4.089245441075036,5.776877688525929,7.44448531299895-1.013139714872523,1.206935966043602-2.473607896601607,1.146016408956712-3.839499357209206,1.393169500124714-5.523468906325434.999447525089636-7.881901150285557,3.735522805962319-7.8189446293527,9.287600183813993.047191421956086,4.161520100351481,1.348682516872941,7.962697906490575,4.081480221595484,11.125192769224668,2.620638886610323,3.032693487813958,5.79211272313114,4.375630308739346,9.840468432770649,2.778298265837293,1.819345314084785-.717848100093761,3.833918319756776-2.226334402928842,5.573914761696869.246485118950659-1.842908497139433,5.765243051280777-2.695890406741455,11.87406118947365-5.959666767512317,17.146164928470171-.481207797349271.017177567166073-.715477998441202-.227548689332252-.737685015386887-.697180656259661Z" fill="#eeccc3" stroke-width="0"/>
          <path d="M23.169230325043827,198.095470852511426c.173647072982931-.300680619568084.302436445932472-.619442831020933.38638113936031-.956316040572347,2.161785153228266-1.793073047356302,4.256371342244165-.631409436216927,6.321264407581111.182186926052964,8.365107171819545,3.295993897294466,16.826875262613612,6.310763268429582,25.455351957403764,8.847923159226411,6.0454929099742,2.300793009440895,11.506133561353636,5.907084659886095,17.682666033637361,7.915874942225855,1.202841894008088.281171491140412,2.29820606701287.79289738557236,3.283366561156072,1.538165078956808,1.10737855763,1.487541241414874,3.728763989804065,2.589721381205891,1.305561574292369,5.007988845480213-13.041928203481802-5.390965684580806-26.084673932244186-10.779952624103316-39.124086901665578-16.176984917710797-.967843683936735-.400580756782801-1.902697856321538-.919420820599044-2.993889137103906-.439413535219501-4.105539147247327-1.973141775642944-8.211076487414175-3.946282682794845-12.316615634661503-5.919424458439607Z" fill="#c89ba8" stroke-width="0"/>
          <path d="M124.854143956637927,170.892763715994079c-3.457606104770093.392072585833375-6.542283808696084,2.811419001467584-10.238949522235998,1.90391383075621-.413185631456145-1.008328617503139-.301943514921732-2.043560208578128-.205065575293702-3.094022820481769.895562607656757-9.710993545246311-2.242057787905651-17.623059172128706-10.870711441342792-22.581617757579806-7.522357622870913-4.322817887288693-18.377572580619017-2.604936115601959-25.896289176060236,3.601106563219219-1.202018525591484.99215919236849-2.187711589200262,2.28452623526573-3.816375389864334,2.657543726114454-2.320946528900095-2.717660257325406-3.910129443042024-5.82444265659251-4.896637656240273-9.251697461384538,1.33341027971619-4.67748731411848,5.550230469360031-6.481722652417375,9.0727620248108-8.844470789961633,7.225999720732943-4.846868145084954,15.645621350116926-7.515288008877178,22.911367188891745-12.320229061446298,2.688129681440842-.502609838840726,6.183955644075468,1.915289581549587,7.873920599444318-2.201136039737321.658122680571978-2.74434625050344-.998255310652894-4.12185639548261-3.05177274403286-5.305705120550556-1.903940550153493-1.097615541155392-4.174714012748154-1.720674855034304-5.250860058127728-3.941336863577817-.503949119705794-3.822315471355978.93444774944146-7.187466578685417,2.461522282716032-10.531263396676877,2.388142417206836-2.230549141233496,4.554944440391409-.368689243601693,6.739321336237481.420982186084075,2.671542052490622.965780116192036,5.306064084756144,2.176584679911684,7.519062892593865-.818749837559153,1.035274194924568-3.074292258252171-.956707993716918-4.421419573774983-3.176737351181146-5.67440831109343-2.236813030962367-1.262472692556912-4.872536831626348-1.905737277320441-6.496266673064383-4.136526152047736-.778975813987927-2.165150340912078.382074138080498-3.785791497386526,1.732028037498822-5.14765400840588,1.637231352055096-1.651669183160266,2.061824543192415-3.555462076601543,1.916357036778209-5.729724889788486,1.591812555654542-1.52378493676224,3.289586264098034-.716466349866096,4.732160758969258.052467233183052,3.111695895418961,1.658613867986787,6.408951693190829,2.21205476583782,9.857413379120771,2.247780714189503,5.310889839645824,5.57933971372222,9.839074313333185,11.583332204940234,10.471254699032215,19.669361442965965-2.757617976498295,2.567536659547841-6.171278248639283-1.662660903979486-8.924287509129499.887047595573677-2.480480753980373,3.486255032925328-.272950066140766,5.371603438608872,2.389641164007116,7.096967551706257,1.985037779872073,1.286326285558971,4.646371586086389,1.722396563089205,5.522107324410172,4.412967784390275-.119416383777207,3.737054353174244-2.567736241155217,6.130491482168509-4.915140707726096,8.581184527096411-1.852744980726129,1.412747671125544-3.824388311497387,1.038972396228928-5.801963551513836.346934383955158-2.003081343858867-.700970706075168-3.960009927683132-.9969078418344-5.758134456486005.50328999102021-2.194218554413965,3.004672456629123-.455237686217515,4.81595057996492,1.936148805412813,6.392248831516554,1.720670209093441,1.13419821928801,3.923054648730613,1.62698232114235,4.900561331960489,3.745440145070461-.897845746965686,5.276075723471877-.005423272727057,10.39599814941721,1.370986205085501,15.453969699186928,1.296145010463079,4.763034787911238,1.501355755235636,9.619977809299598,1.393400724060484,14.507067517311953-.063670302690298,2.88227831509721-.634989597590902,5.571185215925652-3.500823978731205,7.098268786950939Z" fill="#c6a0a4" stroke-width="0"/>
          <path d="M54.828223268363217,207.4646527473069c-8.584624962497401-1.972940653517071-16.680620812472625-5.387141727505877-24.879132353898967-8.486376574552196-2.095032390154302-.791953900847147-4.004636450446924-2.104179700714667-6.393075091404171-1.839016183945205-1.548210349430519-2.880132978729307.331226251317275-4.677125855991108,2.204472431381873-6.243691262210632,3.621662509918679-3.028749563884048,7.282971403697957-6.03530645961655,11.135869341727812-8.755309310381563,5.587683140651279-3.944689892254246,11.610800758837286-4.253124795443,17.892521016659884-1.603079018739663,4.816945230995771,2.032071461122541,9.716181421857982,3.869184152819798,14.578820451548381,5.793007248936192,3.984542929358213-.440220131709793,7.207528182039823,2.213434543155017,10.968617832893869,2.692176223848946,1.337715107183612.17027599987523,3.120782149662773.96189023230545,3.685973041210673-.664546556499772.582250690049477-1.675531878112452-1.391183057445232-2.110038465269099-2.52590230986425-2.728073069909442-3.365193356774398-1.832952188928175-6.774084555132504-3.622461040829876-10.775663792579508-1.844061631310979.794947868234885-3.42325035455724-.719073871418004-5.223043472891732-3.794378859782228-6.764709900380694-6.108851026288903-3.062478696867402-10.917849623028815-7.700278859290847-14.226720725408086-13.776633102846972,2.540556940810347-.772770572697482,2.484705281520291-3.394467498550512,3.655988870090368-5.142441104026148,2.463723377850329.230708967204919,3.332350995164234,2.372312791221702,4.460708673825138,4.000306209858536,6.137164509196737,8.854838362147348,15.019117344640108,13.716620823146513,24.8154256347716,17.197702352603301,2.948183892354791,1.047611259702535,5.905899704324838,2.013496885045242,8.678281010643332,3.477908838020085,4.444438061223991,2.085946053182852,8.40088539055796,4.572964057573699,8.350243273369415,10.310401250684663-.895979570417694,1.855018137708612-1.791952178802603,3.710021789436723-2.687924520891102,5.565043401113144-1.982526559833786,3.846929655179338-5.51320124924132,2.349770690130754-8.332484217951787,2.045968588145115-7.349296987806156-.791958109666666-14.639442423424043-1.086328646681068-22.01592584188802-.279360694701609-5.829326839346322.637720419364996-10.862412549560759,2.585059450399058-14.795713864454228,7.044784296294893Z" fill="#c29d9d" stroke-width="0"/>
          <path d="M102.660271713548354,193.088217156455357c-2.157770879301097-3.6786982826452-3.973731315343684-7.692344579185374-8.676352813019548-8.877339865759495-.47842993258746-2.158837425844467-3.008511943895428-3.722298499205863-1.833161935015596-6.363001046998761,2.645901142172079-1.309241328566713,4.725277814528454.416306084949611,6.810507523307024,1.453838259863915,4.700922450101643,2.339030398992691,9.499906387487499,4.441197710968481,14.727621039055521,5.034782264548994,5.0097968378941.568846412961648,10.192864368533264,1.024477105596816,13.633772966422839-4.045473748108634,11.181917573356259-3.949271682311519,20.50186897788808-10.331527373216886,24.388929049287981-21.996477626134947,2.552417609693293-7.659740750663332,6.848866280153743-14.544408068750272,8.871001123825408-22.405134883798382,1.426431493266136-5.545055392301947,6.36541118173227-8.354192579741721,10.662925174401607-6.75808848314955,4.160092566527965,1.545064301359162,5.28103109561016,6.685964861739194,2.854777369822841,12.193669862333991-3.878321117284941,8.803972180516212-7.483938897203188,17.721585059134668-11.383377552234379,26.523396771121043-8.908318618912745,20.107855475227552-32.542040631660711,31.45032549775533-54.494197667716435,26.675306365275901-1.869830052404723-.406736634458866-3.709012793497095-.95368598612913-5.562444278137264-1.435477869194074Z" fill="#d7b2b2" stroke-width="0"/>
          <path d="M133.090393237300304,32.30710695416019c2.039238799614395,3.216583890613038,2.25610489758219,6.761808681345428,2.235288427113119,10.478308601550452-.059768663648356,10.670573267851069,1.901622359777321,20.962197625922272,6.17429957963941,30.791855474935801,1.027833189453304,2.364639599776638,1.602819062203707,4.92720368684968,2.386065148111811,7.398744522741254-2.511941692468099,2.399050147516391-5.208192156424047-.728886071674424-7.767869537878141.288827404263429-.760222818247712.102976513735484-1.515535224363703.114329612661095-2.261397199506973-.087989604962786-3.054025511550208-1.785237338222942-3.968578589036042-5.172417914342077-5.835492319574769-7.848444430248492-.297873106390398-.426968371213661-.533684247688143-.897109079945949-.807075057717157-1.341840879735173-6.814637812980436-11.085767582944754-7.103038238095905-11.146742739805632-17.259171019042697-3.647178763036209-6.470544375151803-.660117055087539-11.674309798814647-4.360146599730797-17.256340353062114-7.149242610077636,3.970208614811781-9.827138539643784,8.541619845049354-19.19837328655376,18.349007660817733-24.690201811908992,6.892212633618328-3.859419578939196,14.118927837405863-5.855891212651841,22.042684671099778-4.192837903521649Z" fill="#d3b0ac" stroke-width="0"/>
          <path d="M73.826752851840865,153.379687258022386c6.810831784598122-9.629705757395641,20.450863784993999-12.649962787972981,31.094227062130813-7.202796106883397,7.594818461602699,3.886959226820181,14.258501297050316,18.696830269667771,9.693583105921789,26.621248299514264-15.50422874943979-2.464393854661466-30.218901327367348-6.587178259880602-40.787810168052602-19.418452192630866Z" fill="#c299a3" stroke-width="0"/>
          <path d="M54.828223268363217,207.4646527473069c1.06304714097314-5.888006673378186,6.151251806424625-6.656928030339259,10.507620856567883-7.595062905913437,8.404712873538301-1.809932242234936,16.960694485269414-1.75255483937508,25.492604890980147-.515624269579348,3.073888450509912.445657055845004,6.217972178978016,1.152604030119619,9.143091760906827-.700397134844025,3.898211554105728,1.926798891032377,7.790677839744603,3.747339841700523,11.996650794779271,5.071378018494215,7.009370229054184,2.206502782857569,12.196586037904126,6.633059394669544,13.633884995835615,14.375751011169996-2.919659509165285,1.599272943602045-5.378113900975222-.087415973595853-7.918310602579368-1.118140072572714-11.738232999337924-4.762923472790135-23.733713064182666-8.309569280234427-36.606361974416359-6.956192705303692-3.303279263836885.347303584358087-7.356550258058633.181337593656281-7.805635566764977,5.150363450426084-6.888387923610935-.800725028750094-12.203535143702538-5.361663170819156-18.443545155309039-7.712075391877079Z" fill="#cda7a8" stroke-width="0"/>
          <path d="M124.854143956637927,170.892763715994079c3.859504810228827-6.841655765188989,2.055551227893375-13.892057394350559.924081618906712-20.967776885623607-.856044581636525-5.353316981136231-4.065194881861316-10.673584021684292-.533556759242856-16.192698409086006,2.303241117915604-.807972735341536,4.479129276091044.011321384112307,6.565212465169679.728876793547897,5.713008672924843,1.965122801713733,10.953509838736863,5.099167438029326,16.753177737700753,6.885625125740262.991146173750167.305305369658527,1.742325148226882,1.101693058009914,2.154835211627869,2.121332352779064-4.154277722434927,9.831752455080277-8.295830491559173,19.650950514151191-18.600756597654254,24.913734815849239-2.327000163548291,1.188402584424693-4.551074804512609,2.514450745036811-7.262993676507904,2.510906206793152Z" fill="#d1adab" stroke-width="0"/>
          <path d="M100.989864619174114,123.504536611610092c-3.376205004353324,4.344223364591016-8.628745944086404,5.718804464491768-13.226009831409101,7.906361693949293-6.972981742377669,3.318023169802473-13.338629654332181,7.310937791571632-18.833719714251856,12.717101044498122-4.584203068425268-11.377362530452956-1.953032421104581-21.916555089403118,3.769048825690334-32.096695487110992,3.300545628220789-.877379786026722,6.219476266900529.625661164653138,9.116934525542092,1.683567701820721,5.407080939550724,1.974229171555635,10.266292927228278,5.269038711416215,15.951002794347005,6.65256824070093,1.515130087642319.368748732016684,2.857272757690225,1.363036917668069,3.222743400081526,3.137096806141926Z" fill="#cfabaa" stroke-width="0"/>
          <path d="M73.271768423672256,215.176728139183979c-4.268265720049385-4.062741334495513-.273489260889619-5.010016789083238,2.445899425105381-5.61497340783535,11.334930519051341-2.52168034096394,22.29874615742483-.770504652897216,33.258661842397487,2.730698302870223,5.606304951939819,1.790960397380331,10.690643220867059,5.02697033460754,16.625161913934789,5.807998960654004.49605350539241,3.747701144118764.991521782158088,7.495138856522317,1.486983096900076,11.242591054910008-2.415630366771438,1.420730836482107-4.24371009963761-.109236962629438-6.23030211859259-1.151646718857592-6.892475036454925-3.616520221203245-13.63359173801291-7.635804135463331-21.641655736515531-8.405935922450226-4.018334093729209-.386429470767325-7.980438793134454-.559472937578903-11.47899992643579,2.026398536783745-5.145927653569743,1.047247295084162-8.226905932251611-2.448176923064239-11.613978137267623-5.270975822268156-.950587710396576-.454717169943251-1.901182649129623-.909437813861587-2.851770359526199-1.364154983806657Z" fill="#d9b2b3" stroke-width="0"/>
          <path d="M177.477257470178301,75.947981700208402c-1.615412952425686-.783753177542167-3.106719728346434-.26257605752653-4.468829302986705.587134649993459-4.884803302184082,3.047178874532619-8.600973741913549.880978652681733-11.955932987271808-2.657610932641546-2.621224128937683-2.764688355642647-4.01433043619727-6.276265225846146-4.319150801162323-9.93348536421945-.635034475886641-7.619035396581239,1.573619051827336-13.971682191402579,12.906238254472555-12.826826697275465,7.001788782019503,6.881855810317575,7.60817453117852,15.796424642659986,7.837674836948281,24.830788344143002Z" fill="#fbd8cc" stroke-width="0"/>
          <path d="M92.698700905382793,61.190146669590831c4.672163336153972.103586266763159,8.325521712551563,3.049754011693949,12.528185706567456,4.453867837126381,1.768314068925974.590797392531385,3.310088863570854,1.950270145976901,5.348790339556217,1.680518120823763,6.675337407579718-.288404424909459,11.940444745665445,3.225143384486728,16.668764675043349,7.09876457293467,2.716695664008512,2.225612585116323,2.906158151359705,5.852498584685236-.915052437085251,8.214075031608445-3.297164922147203,1.89167752100002-6.277934453586568.862749815662028-9.39755742709167-.686614714852112-1.803039070442537-.895486036577495-3.613537684132098-2.207179967192133-5.867088864744801-1.872378717891479-1.161940311878425.61953229169012-2.364194751189643.465709273383254-3.490761768956872.011594454210353-5.244602586029941-2.114079140179456-10.261506290624311-4.770273977983379-15.677070202205869-6.489058115896114-1.337095763685284-.424364724533007-2.300366439936624-1.473806163323388-2.685076365351051-2.91812684951401,1.162289383788448-3.164213583348101,2.324576960489139-6.328428035196339,3.486866344268492-9.492641618549897Z" fill="#3b1732" stroke-width="0"/>
          <path d="M87.950467258504432,221.04853322456438c.803079219804204-2.41962881867039,2.649353595548746-2.777738587350541,4.948763428339589-2.963665625082285,11.131756336641047-.900093385705986,20.356401194756472,4.170219477584396,29.461295906274245,9.391703021392459,1.575764556693684.903666945980149,3.157937353496891,1.244855055512744,4.728114094235934,1.866534370294175.914332781494522,2.727363247393441,1.510528308526773,5.438545898196026-.420890915687778,8.020804597028473-5.033874648017445.157700288773412-9.441340421122732-1.848564116038688-13.941054941225957-3.771433330377477-6.555118243177276-2.80121780924128-13.360111255478841-5.015756614684506-19.681910098694061-8.370150694008771-1.975467801630657-1.048208383523161-4.253979590572271-1.734064080974349-5.094317473241972-4.173792339246575Z" fill="#e5bdbf" stroke-width="0"/>
          <path d="M129.271380106865763,122.928967421508787c1.43695676207426-3.327959215665032,4.583447037439328-5.618407896663484,5.584979049306639-9.210628118949899.612072095633266-.345806685496427,1.323881713595256-.757357830136243,1.959452259272439-.571846308572276,7.909419939227519,2.308689214180049,15.630387201466874,5.068239185191487,22.478931147241383,9.8131390905437-1.642610660233913,3.607827367803111-3.285210611133152,7.215650966581961-4.92781404303787,10.823481808352881-9.212802933860075-1.659152752177761-18.137510913029473-3.984120899829577-25.095548412782591-10.854146471374406Z" fill="#cda8a8" stroke-width="0"/>
          <path d="M89.211834561114301,70.682788288140728c7.284404327374432,3.131976206330364,14.568810395256151,6.263948791161965,21.853059722490798,9.395756885853189,2.02012375231061,1.15081907138665,3.418095076447571,2.29552768126814.932991266590761,4.533529862999785-1.739723460450477,1.566729218940964-3.5207239405172,3.213475062128055-4.316955962731299,5.564407025720357-5.526502002949201,1.069752326773596-9.994721585475418-1.83983367516521-14.532807816221975-4.104357836380586-3.441850466941105-1.717491132509167-6.671034995775699-2.545795794370861-10.206802105005409-.595656600955408,1.282186286654905-5.273522279007011,4.369500785180207-9.782319332669431,6.270514894877124-14.793679337237336Z" fill="#d0acaa" stroke-width="0"/>
          <path d="M103.640311734821807,100.876002151544526c-.898928838640131,3.534361676667686-1.797857810415735,7.068714373359398-2.69678664904859,10.603076050032541-3.451093772002423.998752117304321-6.486160826485502-.716847541461902-9.427412693921724-1.85623403311547-5.263531974105717-2.038969688283032-10.622534903535779-4.025872179840007-15.195073922453957-7.519965159437561,1.475112855176121-3.694934358856699,2.950225710354061-7.389868717715217,4.425336758447884-11.084803945066596,8.733176771087528.728193539247513,16.243994126085454,4.293883370810363,22.893936506976388,9.857927087587086Z" fill="#ceaaa9" stroke-width="0"/>
          <path d="M76.321038469397536,102.102879009024036c8.207502855892017,3.125409191474319,16.415007518866332,6.250819251437861,24.622497592026775,9.376213383484355,2.192010667275099,1.034669183023652,4.416526146782417,2.00648184743477,6.5682678148587,3.119088768884467,3.055139369213066,1.579746574114324,4.48330567724588,3.80505564664054,2.469626924576005,7.179498629846421-5.291520777884216,1.588349305548036-9.860607748303664-1.150184699572492-14.622555114747229-2.525553047804351-6.219417930762575-1.796328513582921-12.003878631923726-4.614029142845538-17.277871074096765-8.388841485109879-1.66537353084459-1.191967575112358-3.551921181422586-2.360380107227684-3.416346366519065-4.877710083685088.552124376241409-1.294230219868041,1.10425404057969-2.588466814235289,1.656380223901579-3.882696165615926Z" fill="#3c1a33" stroke-width="0"/>
          <path d="M82.941319666237177,85.476467625378064c1.164878143170426-3.442182353448516,2.899525333161364-4.335546448590321,6.541067945929171-2.605910391623183,5.893354659527176,2.799189182012924,12.115352476663247,4.906489953218625,18.198558305610277,7.305937135375643,2.641768966906966,1.2430014001784,5.282587074296316,2.48806457806495,7.925588187696121,3.728492979593284,3.304372559929107,1.550832923812777,4.865649076537011,3.780249028630351,2.876221330423505,7.399642786798722-7.938596395420973,1.367765596398385-14.600290511822095-2.793075839097583-21.548948319477859-5.288049686732847-5.357123167672398-1.923533688433963-10.609472764892416-4.559243272642561-14.108692064040952-9.507524795839345.050620717735001-.34287622235388.089353223960643-.687070396208583.116204613859736-1.032588027572274Z" fill="#3c1933" stroke-width="0"/>
          <path d="M129.271380106865763,122.928967421508787c7.990099149072194,4.48491950861353,16.847529641116125,6.96536896683574,25.095559388430047,10.85416066230755.070632274373565.297538346430883-.007141302383388.549341002822985-.233342681565773.755379587311836-.629419144623171,4.557725591250346-3.396880334741581,5.614372289286621-7.498741915082064,4.720200352161555-9.30170858045858-2.02768018590541-17.682301364615341-6.270531315414701-25.884667185047874-10.864207686379814-1.943926439436837-1.088676275050602-4.411359062951306-2.481565348063668-3.258334652684425-5.646121453650267,1.654756143901977-2.580334385333117,3.90635708084119-2.372300469514812,6.383876832212991-1.461732814674178,1.762919066886752.647923786402316,3.362118979606748,1.87270213638476,5.395650213737099,1.642321352923318Z" fill="#3d1a33" stroke-width="0"/>
          <path d="M135.719656636505533,80.411131051612756c2.908005799699822-2.447545665641883,5.395858861678789,1.061166373785454,8.166316140841445.564759962304379,8.667481993994443,4.506598397178095,17.910412649782302,7.658558700110007,26.893932909932118,11.421074958501777.225081064281767.254459579200557.470975980641015.486847144637068.737688496401461.69717341327123-.609905996532689,1.204979932001152-1.219801283710694,2.409956094988956-1.829703799226991,3.614928784001677-4.353643922446281,2.227068636564582-8.530436681730862.35615453565697-12.649463861485856-.71761910024361-6.940073664016381-1.809190120215135-13.437250913584649-4.6957897432967-18.910378589012907-9.453648403277839-1.760596885262203-1.530506526469253-3.942627216256369-3.169291749332842-2.40839129744927-6.126669614557613Z" fill="#3e1c35" stroke-width="0"/>
          <path d="M169.63808847468863,97.798471996857188c-.791313571971841,5.852386904998639-4.674017991399523,10.372997767617562-6.753891434373145,15.670269419151737-4.038111352918349.605713821558311-6.954699594074555-2.10199451637709-10.325512010662351-3.47098467435535-4.636699394655807-2.611570952543843-6.162945722788209-7.437033850643274-7.988150001901886-11.879893611821899-1.444378953983687-3.515847956388825.022347741667545-4.361586564005847,5.745020458132785-3.653439762285416,3.042720758585347.707960343661398,5.713295421926887,2.342638533582431,8.578673747120774,3.501373894381686,3.623450781333304,1.465301956339317,7.193228494781579,2.158143796410513,10.743859241683822-.167325265070758Z" fill="#d9b6b1" stroke-width="0"/>
          <path d="M152.798526723576288,108.603857398014952c3.361889525411243,1.621629213161214,6.723779050822486,3.243258426326065,10.085670316739197,4.864884017993973-.558481009307798,1.238704628494816-1.116970987453897,2.477409404518767-1.675451996761694,3.716114033013582-2.78450036605318,1.252339383883736-5.482846636487011.227590313310429-8.151574957661069-.398377859317407-8.191881769431347-1.92147470848613-15.846934293085724-5.200433766527567-22.829616091406933-9.863739323998743-1.748833401143202-1.167928286962706-4.75437515147496-2.051260790263768-3.629181527672699-5.39653659999567,3.301192638526118-3.750342598419593,6.360861022676545.815247660690147,9.569160962360911.263480601643096,4.91173362974223-.840204176836778,8.439896249006779,2.213195936437842,12.206954052910078,4.455636901555408,1.446642100829195.861149453228791,2.500852253511766,2.394019773671971,4.42403924149221,2.358538229105761Z" fill="#48223f" stroke-width="0"/>
          <path d="M126.598372466813089,101.526201665710687c5.366809397117322,6.609793569085014,13.202112286022384,9.073476585837852,20.675540882170026,11.955289138872104,4.457915348955794,1.719004079966908,9.277672864682245,2.5005338910305,13.934800365426781,3.703429831353787.169799991877881,2.192135898816559-1.270898831435261,3.851471372798187-1.913971151723672,5.774711448593735-8.146213128255113-3.080296587770135-16.292436965872184-6.160589406528743-24.438516750324197-9.24108938813697-2.315289538262732-1.077922324351675-4.678460029401322-2.064901278446996-6.935622787075772-3.253308237995952-4.004769031689648-2.1085230919889-4.419636808685027-5.177038368723515-1.322230558473166-8.939032792686703Z" fill="#562b4c" stroke-width="0"/>
          <path d="M127.322658494298594,180.291023020001376c1.322708349820459,2.468897509206727.365331630182482,3.572266712866622-2.141942770356764,4.443416721633184-7.562671851506821,2.627609547120301-14.640561661410175.935456826658992-21.730377119622062-1.78122119163163-3.807073473499258-1.45877499663402-6.962974344611212-4.641289272012727-11.430335774253763-4.358469409640747-1.798828653363671.65044259221213-3.194572875403537-.096608256293621-4.461338282128054-1.273191608563138-.311615006405191-2.711076085290188-1.481386172261409-5.044023702816048-3.220444818878605-7.118289393125451,2.487556638419846-.640233711710607,4.349582267690494.976342261938044,6.264307625324363,1.969519015707192,6.330203709445414,3.283539236626893,13.075346228617491,5.511914177755898,19.755566516832914,7.847695063746869,5.51272834035808,1.927587782271075,11.291542467684849.915567030149759,16.964564623081969.270540801873722Z" fill="#cda8a9" stroke-width="0"/>
          <path d="M169.63808847468863,97.798471996857188c-1.307924150743929,3.689438503450219-3.128493240632451,5.07498708060848-7.18622631234939,2.875770965840275-4.084381259755901-2.213659444532823-8.665894279167333-3.509643577939642-13.029569247531981-5.207731578651874-4.770153478933935-1.723946214606258-10.189361398393885-1.193597057868828-14.530040783411096-4.536202131021128-4.109134583477498-3.164311000442467-4.448782906163615-6.304032804902818-.655882230326824-10.100436280203212.494412400770671-.139564799732398.988824801541341-.279129599464795,1.483261968871375-.418718160204662.875019271206838,4.710963223178624,4.837153300237333,6.559855676438019,8.342799101706987,8.604583970420208,7.891653538872561,4.602944075490086,16.479161923114589,7.137238860961588,25.625459679111373,7.693347346608789-.016594923663433.363116550754057-.033198549866938.726251208980102-.049802176070443,1.089385867211604Z" fill="#4e2a42" stroke-width="0"/>
          <path d="M117.491853060915673,122.748378883259647c.417226145431414,2.063979273518271,2.003737930075658,3.407376426011979,3.588133214267145,4.202662712814345,8.465051617989957,4.249035669077784,16.790087081226375,8.766465683576826,26.207762058827939,10.905693932218128,3.771484235085154.856692958752319,5.51327564098392-.234899307510204,6.845741652536162-3.318172207014868-.200267771182553,3.335013116042319-2.1360055774785,6.006941754176296-3.415609946106997,8.929570384085309-8.491112262636307-3.245281072915532-16.982245943969247-6.490554607793456-25.473293684208329-9.735840334866225-2.028665113348325-.96925319136426-4.146711213697927-1.789484355747845-6.066414171589713-2.940726440487197-3.346387451058035-2.006780802799767-4.441878563120554-4.661123127136307-1.686319123726207-8.043188046749492Z" fill="#4b2441" stroke-width="0"/>
          <path d="M87.950467258504432,221.04853322456438c12.410335021211722,6.614780451209299,25.585477104057645,11.415567988578914,38.718085961467295,16.315352369492757-2.784794217926901,3.361978424194604-6.116701195169298,1.173530458880123-8.633161658804966.174435560189522-13.574772043022676-5.389559381284926-26.972661918880476-11.224270558654098-40.431565073798993-16.906240626431099,1.145593180797732-1.961251143335176-1.471008729693494-2.551566008938607-1.48033936768843-4.091293562427381,3.961587095629511,1.452256172608031,7.292543435976768,4.557220499495088,11.826980138825093,4.507746259176201Z" fill="#d6a8b6" stroke-width="0"/>
          <path d="M82.825115052377441,86.509055652950337c10.792125725740334,7.566182580245368,22.952607701678062,11.836656629820936,35.657629940471452,14.795596211542943-1.484856232937091,3.650468526331679-4.260235466959784,3.355346804433793-7.226439435426073,2.339259347625557-2.555101849309722-.875277876712062-4.785972337227577-2.643061035965729-7.616032931791779-2.767642545166382-7.631268488208661-3.286216238184352-15.262577759533087-6.572157849474024-22.893893117861808-9.858146966125787.692908994924437-1.503053107206142,1.385822269772689-3.006059577537599,2.078735544608207-4.509066047876331Z" fill="#4d2643" stroke-width="0"/>
          <path d="M74.664658245495957,105.985575174639962c8.911912058212693,8.59756096100682,20.229338098437438,12.046526439498848,31.83650962718275,14.878553676164302,1.16504058049577.284250787588462,2.320374141030698.608166605012229,3.480238694215586.91361062134456-2.197392204230709,4.783838500132333-5.685540877297171,2.776019351211289-8.991534719383708,1.726800613434534-9.430213210885995-3.824374614025146-18.860415712413669-7.64875299706182-28.290653081126948-11.473183801368577-.480082626847434-2.383681468769282.965340424838359-4.142477828059782,1.96543947911232-6.045781109574818Z" fill="#4d2743" stroke-width="0"/>
          <path d="M84.338219729059347,170.203268138673593c1.77959187732813,1.642419068770323,7.621826885175324,1.311371021995001,2.943748888399568,6.090660384379589-9.488104943377039-.152572703649639-24.690168405761142-11.197264764965439-27.465590193392927-19.966255761899447-.373760486127139-1.180931694027095-.640221661320538-2.377806652657455.246099284160664-3.482496950304267.594776205916787-.475144733372872,1.189559373868178-.950303952728063,1.783416230660805-1.424891939535883,5.120389157093086,9.112884879283229,12.799882392610016,15.155615569103247,22.49232579017189,18.782984267360007Z" fill="#c39ea0" stroke-width="0"/>
          <path d="M70.720723836038815,183.785682612542587c1.315020630403524-2.858103044640302,3.540146135866962-3.048186736097705,6.061588557073264-1.94591120691075,2.540321684171431,1.110546554864413,5.023205039724417,2.35525957910977,7.510149202944376,3.583913960232167,1.411000817928652.697106963349142,3.174341755931891,1.543132673481523,2.299559952358322,3.414918555297845-.818430050712777,1.751220116839249-2.545036910420095,3.0866511917975-4.685974026680924,2.281872218680292-4.186230685758346-1.573630597073134-8.746117687904189-2.185417997625336-12.537277751234797-4.789470763498684.449936346378308-.848986653547399.900947013040422-1.697153840183091,1.351954065539758-2.545322763800868Z" fill="#b99893" stroke-width="0"/>
          <path d="M60.062479515307132,152.845176679340511c2.25146982917795,7.733123416746821,7.361818126451908,13.199591793269065,14.119773805856312,17.10503361015617,4.189611710358804,2.421204051099267,8.721486300890319,4.249738128099125,13.099719823398118,6.344023552743238,1.579334719424878.766667911511831,3.158680927985188,1.53362665622808,4.73803021810636,2.300551218027977,1.16253310157299,1.693295712269901,3.152270453785604,3.095461348999379,1.963923565095683,5.616149584257073-4.996768602439261-2.010594201925414-9.98517203684969-4.042204145787764-14.992061114700846-6.027223128885453-9.976328317037769-3.955195652559269-17.225301184695127-10.977537448139628-22.635514754965698-20.082867079618154-3.870881806844409-7.393926856771941-5.951196540074307-15.172094727597141-5.005000644579923-23.598256500545176,2.300930286904986-.706986404380586,3.650450095332417.52872570990985,4.729628644001423,2.316449520449169.110952449729666,5.646766546788058.10712014976707,11.322302062128074,3.98150045778857,16.026139223415157Z" fill="#e5c0bd" stroke-width="0"/>
          <path d="M56.080979057518562,136.819037455925354c-1.576308860943755-.771936321016256-3.15261333732451-1.543879450775421-4.729274132399951-2.316136484740127-1.422654995847552-4.673164887057283.471637479686251-9.049705269764672,1.902657030474074-13.172078955478355,3.356372561313037-9.668786698055555,8.166744718590053-18.79186166429281,11.292762092600242-28.579373637732715.567250708154461-1.776055624881337,1.799274582064754-3.30291169685006,3.902390383731472-2.36789436680192,2.126991354525671.945609352726024,1.404537930648075,2.716377749147796.853850207231517,4.491994767327924-3.447859966290707,11.117165820503942-9.642335144862955,21.194132275510128-12.281197514701489,32.620843121578218-.713932335222125,3.091451296508239-.919749209189831,6.186293517881495-.941188066935865,9.322645555846975Z" fill="#cea6ae" stroke-width="0"/>
          <path d="M134.236371641576625,80.829869351324305c-2.746770717085383,6.488689993060689-2.538818869805255,7.095038221339564,3.700866150576985,9.809298193691575,3.80779670924494,1.6563887228167,7.655381852664505,3.221306097926572,11.485080022366674,4.827329058000032-1.368357117113192.987346603909828-3.135877911179705-1.590589379682569-4.188819306558798.282502988526176-.796730032145206,1.417305049737479.809629479714204,2.484461552860012,1.429835263468703,3.638920098837843,1.751230940260939,3.259785075904801,2.435856322224936,7.253912663196388,6.134703984074804,9.215511013591822-6.02255171672914-1.101957746159314-11.12392985527913-4.452217208425282-16.630554515657423-6.813866175674775-2.120052097474399-6.982327111694758-6.945729123763158-12.568293348642328-9.838123905316024-19.152148690742251,2.518673899674468-5.87709159206679,1.925166616625575-7.273149674774686-3.971506613655947-9.879650038656109-3.95514847153936-1.74828852850078-7.856646085301691-3.617910384075003-11.782165060014449-5.433236940372808.730527233459725-2.358258524525809,2.776114539481568-3.490197998087751,4.55630162232228-4.853106582891996,2.867171832120221-2.195103886560901,5.185752637666155-1.804809748320622,7.601650244589109,1.036392315922058,4.53493837280439,5.333292626351977,7.441368783556754,11.703664307859071,11.502732113804086,17.322054759768434Z" fill="#cda9a8" stroke-width="0"/>
        </g>
      </g>
    </a>
    <path d="M171.269000290229087,65.234597057769861c.500530300552782-1.639760985866815.252951282387585-3.529590426323921-.647930245369935-4.987460933700277-.466417022702444-.754789171036464-1.260697501358663-1.238202129818092-2.158676712868328-1.238202129818092-.451270134159131.001402610427249-.871869424219767.115177039469927-1.261797870181908.341323287131672-.375665829482386.222253398973407-.674625443711193.521213013202214-.896878842686419.896878842686419-.214554050358856.48387385341448-.435525251090439.970656791318106-.544930246909644,1.491124630852937-.104017402725731.494837666836247-.177004110501002,1.00838194201242-.18222826535748,1.515153172416831-.014157928122586,1.373395477648955.387969023500773,2.866306822394108,1.659798781434802,3.598203074239791.893417574812702.514132469583274,2.077080404342269.547836369300057,2.965850745582429.002832919384673.7694073105813-.471808766784306,1.203902533821747-1.252030225436101,1.417446459665371-2.106799586208581.226801678149059-.907837226875927.353638498592773-1.851356778159243.405008615391125-2.784972951531017l-.089302416117789-.664599030524187c-.077347362797809-.325331931800974-.226505946451653-.608726392150857-.447475750965168-.850183381049646-.319160390252364-.413101197467768-.775125043199296-.776679107117161-1.298622802392856-.895915172308378-1.076837060243633-.245269080260186-2.256964093930947.158547681903656-2.823275743392514,1.148899713700303-1.098271623828623,1.920630690108737-1.403154666571936,4.271752071135779-.786834822176388,6.402246162595475.453390767646852,1.567280950601344,2.254264601226168,2.291586254701542,3.672495454064119,1.494077682344141.92894191859159-.522368514135451,1.481162363284966-1.376167532826003,1.836056511145216-2.352139179996811.226285582439232-.622293475265906.271647995499734-1.320483692788912.311414291792971-1.975724195908697.035817663276248-.590177760912411-.29879631786207-1.369880004825973-.732233047034242-1.767766952965758-.412951970150971-.379082315996129-.877438405397697-.612599272706575-1.435467437702755-.687581838976257-.53293091847263-.071610123482969-1.128499804846797-.003504832689941-1.594097385444911.296672079073687-.5718725828483.36869380983444-.916340408921315.853542650653253-1.148899713700303,1.494077682344141-.057376524448046.158031405970178-.099115514642108.31754258759247-.127261055946292.483278497951687-.057327348959006.337573907900151-.118148591669524.693452122346571-.115659441429671,1.03890013471937.003621962181569.502661356920726.07541501052583,1.045929040245028.255262606357064,1.519875888725437l.252020871013883.597198839657722c.157101772323585.291337649019624.371733206087811.525145636598609.643894301294495.701423962735134.406251358708687.313868231274682.984717180986991.585749948677403,1.514782411573833.536778167082957.567385968442977-.052419778025069,1.018555524222393-.125326516634232,1.524498619926817-.405934978414734.273419448138156-.151645138384993.539605835083421-.343885184614919.75255221536645-.570964050384646.595287585098049-.634794681420317.919340513430143-1.418735348730479.943714707125764-2.291701130532601.01758131216593-.629677605456891-.291249016561778-1.326782922495113-.732233047034242-1.767766952965758-.433605695090591-.43360569509241-1.145015637195684-.760126154800673-1.767766952965758-.732233047034242-1.385763894830234.062068534707578-2.460860488865364,1.09821192997515-2.5,2.5.001051020015439.045626444267327-.002525020508983.090886652653353-.010728121575085.135780625159896l.089302416117789-.664599030524187c-.008189805139409.044669324757706-.020487553620114.088177579120384-.036893245445754.130524763089852l.252020871013883-.597198839657722c-.028474630333221.064906143923508-.058691022695712.119994957569361-.097924101213721.17902728172885l.39090975990257-.505969082783849c-.044074665391236.055592786387933-.087494668025101.101894418454322-.14014466766821.14944556529008l.505969082783849-.39090975990257c-.05639312708081.042940248815285-.109429459926105.076629344357571-.172374656773172.109210232778423l.597198839657722-.252020871013883c-.065919399667109.026853444256631-.12477034926269.044579335204617-.194614068523151.058321284199337l.664599030524187-.089302416117789-.068086681219938.006290407085544,2.410697583882211,1.835400969475813c-.070020900340751-.184523929226998-.117542166481144-.368737819544549-.146428600699437-.563954718627429l.089302416117789.664599030524187c-.025128009889158-.223782532713813-.022923913429622-.442405243931717.006825435772043-.665623243769005l-.089302416117789.664599030524187c.028127323039371-.166086422295848.069740956456371-.324851645133094.127261055946292-.483278497951687l-4.910697583882211-.664599030524187c-.011060232423915.182242575572673-.026058132012622.363844201208849-.048213196167126.545093763537807l.089302416117789-.664599030524187c-.039672979364695.294186680190251-.100196672283346.582002014760292-.209513249072188.858724948871895l.252020871013883-.597198839657722c-.060117852128315.139847266800643-.130146373310708.268778838461003-.219066192161335.392451574220104l.39090975990257-.505969082783849c-.079496490665406.101138811885903-.165936619785498.188755303361177-.267137673628895.268415726910462l.505969082783849-.39090975990257c-.05406808544285.038258812051936-.107597287993485.072031322320981-.165338362090552.104500649496913l3.672495454064119,1.494077682344141c-.076843455255585-.265632412909326-.134891058758512-.534024809798211-.175312056993789-.807575653532695l.089302416117789.664599030524187c-.069313348629294-.521961993763398-.069783084754818-1.044723595832693-.003615152887505-1.567021538236077l-.089302416117789.664599030524187c.073566209697674-.521294708969435.211567168633337-1.025457507163082.416259426796387-1.510561845294433l-.252020871013883.597198839657722c.088960124274308-.202414941088136.187725308058361-.398750857546474.297481734247413-.590690224826176l-4.658676712868328-1.261797870181908c-.017493031446065.317923689815871-.047282075642215.634174673348753-.089408869504041.949782111365494l.089302416117789-.664599030524187c-.073632447218188.517589101853446-.164161505890661,1.047976639043554-.331140025831701,1.544705377105856l.252020871013883-.597198839657722c-.016765284664871.046700941062227-.038409344369938.091016223956103-.064932179115203.132945848681629l.39090975990257-.505969082785668c-.026337616083765.041374481832463-.059261573012918.076595311071287-.098771870787459.10566248772011l.505969082783849-.39090975990257-.05348654043155.031145016990195.597198839657722-.252020871012064c-.037349672858909.016947457317656-.076463784942462.027093386446722-.117342336248839.030437787385381l.664599030524187-.089302416117789-.061521351157353.000562741843169.664599030524187.089302416117789c-.067433560800055-.00911397251366-.119002526509576-.023404880546877-.181958117631439-.049316553169774l.597198839657722.252020871013883c-.038598600252953-.018686833911488-.074419125336135-.041697442949953-.107461575247726-.069031827115396l.505969082783849.39090975990257c-.036255601817174-.030561199564545-.068187962770025-.065165029694981-.095797082860372-.103811490393127l.39090975990257.505969082785668c-.030496970208333-.042253214500306-.056517927965615-.087103701705928-.078062873270028-.134551461618685l.252020871013883.597198839657722c-.073256756913906-.177848215631457-.10590649234291-.359821477297373-.132631683454747-.549533001692907l.089302416117789.664599030524187c-.044609878601477-.371066491479723-.044149771581942-.739862123562489.000093689193818-1.110914062026495l-.089302416117789.664599030524187c.055543216229125-.398981809619727.159636500853594-.78188347872856.315412560717959-1.153481373276009l-.252020871013883.597198839657722.034738878690405-.078344990773985h-4.317353425736655c.098177944257259.158878526197441.183892516319247.3216147222156.259761186467586.492269178374045l-.252020871013883-.597198839657722c.134162872296656.320613195430269.223949753893976.650948288301151.272160939128298.995068433114284l-.089302416117789-.664599030524187c.037765370918351.31841599051404.038480266279294.634275256119508.000988579755358.952765891719537l.089302416117789-.664599030526006c-.02957092467841.211261637103235-.074719550098962.416922463897208-.13700133099519.620960529788135-.186222852029459.610074888767485-.066834248727901,1.381521861047077.252020871013883,1.926396900706095.303469893331567.518584021168863.898084087346433,1.013151413160813,1.494077682344141,1.148899713700303.63997108401054.145764967573996,1.358329207674615.1142198760881,1.926396900706095-.252020871013883.556513188264944-.358791405216834.953062114183922-.852504425143707,1.148899713700303-1.494077682344141h0Z" fill="#fff" stroke-width="0"/>
    <path d="M167.394600379248004,66.381318005383946l.815829686360303,4.800869805285402c.098921491044166.582118066296971.659389382539302,1.207621405408645,1.148899713700303,1.494077682344141.535867402986696.313583945875507,1.325625203724485.446438847679019,1.926396900706095.252020871013883.604924231063706-.195761793755082,1.188553591255186-.570634104129567,1.494077682344141-1.148899713700303l.252020871013883-.597198839657722c.119069888156446-.443066020348851.119069888156446-.886132040699522,0-1.329198061048373l-.815829686360303-4.800869805285402c-.098921491044166-.582118066296971-.659389382541121-1.207621405408645-1.148899713700303-1.494077682344141-.535867402986696-.313583945873688-1.325625203724485-.446438847679019-1.926396900706095-.252020871013883-.604924231061887.195761793755082-1.188553591257005.570634104129567-1.49407768234596,1.148899713700303l-.252020871012064.597198839657722c-.119069888156446.443066020348851-.119069888156446.886132040699522,0,1.329198061048373h0Z" fill="#fff" stroke-width="0"/>
  </g>
</svg>