<?xml version="1.0" encoding="UTF-8"?>
<svg id="Pattern" xmlns="http://www.w3.org/2000/svg" width="280" height="280" xmlns:xlink="http://www.w3.org/1999/xlink" viewBox="0 0 280 280">
  <defs>
    <linearGradient id="linear-gradient" x1="34.035816901969156" y1="107.162721396060078" x2="191.173101483781124" y2="152.221112680563323" gradientUnits="userSpaceOnUse">
      <stop offset="0" stop-color="#a52722"/>
      <stop offset=".280561057063212" stop-color="#ab2d22"/>
      <stop offset=".669369883245283" stop-color="#bc3f24"/>
      <stop offset="1" stop-color="#d05427"/>
    </linearGradient>
  </defs>
  <a xlink:href="https://www.notion.so/dmmnotes/somatic-markers-52c310693bb54ccbaa2b66cc805ba40c?pvs=4">
    <g>
      <g>
        <path d="M78.245844273355033,40.954807242876996c21.61480270085849-5.169342777306156,40.785088066640128,2.76760468485918,53.276530441782597,21.731880315493981,9.678673990083553,14.693978500046796,19.639682788996652,29.202051185835444,29.483081828237118,43.78743307570403,2.506141301688331,3.713474877004046,5.882205359997897,6.386704482814821,9.892799541481509,8.348999594467386,3.522950237842451,1.723711462482242,7.030819047902696,3.491068721697957,10.454082699510764,5.402585079104028,4.854854235640232,2.710940502052836,7.993376883849123,6.928332869481892,10.068628323853773,12.014250746658945.710898260458634,1.742233037399274,1.157906737342273,3.617175288671206,2.42990678395654,5.09422197069398l.754219340960844,2.562285182058986c-.137846423844167.620141011522719-.05016327301928,1.347348284953114-.794840940447102,1.682446171993433-8.112426583697015,3.358707432006668-16.214742440408372,6.744787135561637-24.303014012837593,10.159814449245459-7.951570956391151,3.35729928445835-15.933604350308087,6.644500847882227-23.864455833852844,10.052871831794619-2.228666225310008.95780187328819-4.401256768611347,2.130598054072834-6.821404839831303,2.613574247947327-1.433471517171711.37423774225681-2.836592013983136.863710842496403-4.278752871715369,1.204266677645137-2.821950900716729.66633545689001-4.163340402741596.097833123578312-5.368677580428994-2.533863613933136-2.035363777616112-4.443957421910454-3.824736409242178-8.995883256457091-5.714103232170601-13.503732241890248-1.143918566831417-2.729264878105823-1.557012232884517-3.000909604432309-4.52490207703795-2.606203202871257-.734654752082861.097687397548725-1.475539818093239.149044957744991-2.207220948766917.263714892364078-1.805568822452187.282982328008075-3.05672589959795-.476213767371519-3.716507493880272-2.109238931461732-.831917989808971-2.059065407439448-1.826529449243935-4.051179738030442-2.495101157554018-6.179356848939278-.395612670151422-1.259296970363721-.291920758919332-2.42845081782616.738951243805786-3.243672920825702,1.698977130747153-1.343554454686455,1.464756805902653-2.845654107668452.724810210812393-4.550312354082052-2.889270090884565-6.65617346153158-5.590587792026781-13.391399330690547-8.393549528122094-20.08384707969708-5.005983867551549-11.952451147124521-10.052184725588631-23.888213891616033-15.009841390023212-35.860714329448456-1.379553763706099-3.331573817044045-3.305212957920048-6.498430419462238-3.43824195443176-10.25608427998668-.010441974856803-.295075023748723-.118585844273184-.596239356027581-.080668614687966-.883396759565585.969567234157694-7.344077169194861-3.316652925376729-13.180391712383425-5.61506050562275-19.584794268368569-.377931765321591-1.053106996072529-1.222216752452368-1.403859456027021-2.292839744862249-1.376425097836545-1.022710680223099.026207645212708-2.078819346739692.291462980404503-3.035579152631726-.332056772411306-.206329312911294-.224624146781935-.238105356026608-.47140976225819-.098362709347384-.74214989227039,1.232704361279502-1.058751393653438,2.612234997311134-1.53651532618278,4.230114173850779-1.072495641583373Z" fill="none" stroke="url(#linear-gradient)" stroke-linecap="round" stroke-linejoin="round" stroke-width="47.328656834097799"/>
        <path d="M74.778908134897392,193.140883486343228c-4.763085796552332,2.029961550702865-9.522859081306706,4.067742431570878-14.290276015659401,6.08747961463996-4.065037533779105,1.722184403255596-5.799135463400489.97310078166629-7.727759630661239-3.016488965389726-1.071650791915999-2.216841427925829-1.486644492434607-4.750518807399203-3.185025220650459-6.664714892092888l-1.131329011439448-3.843427773092117c.446923704890651-1.921061865876254-.309339733097659-3.839792493141431-.010107859659911-5.761352561014064.121723168262179-.781610296891813.226830550793238-1.565792855051768.339491414373697-2.348814178618341,1.073644541416797-.060640638731456,1.782012981269872.645024854018629,2.506625158162933,1.253164318724885,4.822938352903293,4.047762752540621,10.029065134011034,7.549867535758494,15.334075518827376,10.923125048288057,2.211466110518813,1.406194662724374,4.457497968127427,1.849645832104216,6.959314278959937.971750917535246.824212299807186-.289230468471942,1.672211700109074-.634108021500651,2.592508306378477-.396187409480262.935442398303167,1.624631628350471-.415367857332967,2.116055006414172-1.387516938631961,2.79546588049925Z" fill="none" stroke="url(#linear-gradient)" stroke-linecap="round" stroke-linejoin="round" stroke-width="47.328656834097799"/>
        <path d="M65.004215876213493,46.251767491025021c-.576712513371604-1.34885658049825-1.198780792211437-2.680379539287969-1.72209804744125-4.049641626699668-2.014333568028633-5.270554001968776-1.269453014655483-7.6545005370117,3.321336679069645-10.803217570588458l1.281233671381415-.377136480359695c1.335038607057868.07788414989227,2.693051433384426-.005238142681264,3.957902888761055.564528777791566.436227641240293.62275657193095.099659934318879,1.151246495756823-.297404046983502,1.568133527778627-2.013013084533668,2.11350262792439-2.179655223073496,4.681060583687213-1.888418461529909,7.375425037771492.028491414364908,1.711269124336468,1.41870030314567,3.743652239025323-1.134355742230582,4.850122784677296-1.174417353445278.280889191304595-2.1045883708166,1.558565476698277-3.518196941026872.871785549628839Z" fill="none" stroke="url(#linear-gradient)" stroke-linecap="round" stroke-linejoin="round" stroke-width="47.328656834097799"/>
        <path d="M124.694718462785204,184.605411446396829c-.062454079703457-.111181275358831-.120513419929921-.224633314170205-.174170348351254-.340330051523779.124453325953255-.416023838427463.432972235403213-.661624452563046.791715993726939-.862416756487619,1.217286699343276-.533252228741731,2.499254910919262-.860019526432552,3.788249222091508-1.167824942341213.540739173510701-.113639143112778,1.07058925398178-.14915793165892,1.540201324409281.223222084086956.003610906068388.129762395637954.014645396657215.258883247539416.033094274537689.38737942458647-1.993032327693982.586657386633306-3.986058138719272,1.173312855051336-5.979090466414164,1.759970241679184Z" fill="none" stroke="url(#linear-gradient)" stroke-linecap="round" stroke-linejoin="round" stroke-width="47.328656834097799"/>
        <path d="M69.242182434428287,40.376292760702199c-.613001887892096-2.802923379431377-.303401532212774-5.378755622752578,1.87937301700822-7.473105918819783.388530311343857-.372792536556517.65753492109161-.780780693776251.721002167518236-1.316831485883085,1.782939799972155.640702253011113,3.202785391518773,1.667813326550458,3.800000243358227,3.570339919153412.824972461537982,1.248487639568339-.300008918259664,1.4736165275026-1.008482140816341,1.900724989242008-2.367979889129856,1.427556789103619-2.580790975824129,3.08255882128833-.656386924816616,5.183340397494248.037861002245336.137284547263334.076010177466742.274489580229783.114440769236353.411616202571167-.876042467440129,1.214414216445221-2.179462031755975,1.625567190685615-3.433059125361979,1.092663094317686-1.347633341303663-.572874314697401-1.314639872602129-2.079617163753937-1.416888006126101-3.368747198075653Z" fill="none" stroke="url(#linear-gradient)" stroke-linecap="round" stroke-linejoin="round" stroke-width="47.328656834097799"/>
        <path d="M73.977688796680013,42.240760661888999c-1.622997759577629.545639486455912-1.707329881520309-.756745173008312-1.85714487486166-1.695704563217078-.258973010320005-1.622998615802317.109374846235369-3.074227914072253,1.777188395882149-3.861383785060752.729467297922383-.344286639157872,1.900771725788218-.173444786531036,1.744715091556827-1.526726790842076.867906714352102,1.932481461386487,1.735702855778982,3.865212763128511,2.603444792189293,5.797904258855851-1.422764248088242.428607961521266-2.845487084777233.857260379998479-4.268203404766609,1.285910880264055Z" fill="none" stroke="url(#linear-gradient)" stroke-linecap="round" stroke-linejoin="round" stroke-width="47.328656834097799"/>
        <path d="M69.242182434428287,40.376292760702199q1.014516271006869,3.408404879330192,4.849952449372722,2.276078112903633c5.537194030902356-.152833017283228,5.577758792614986-.167738518774058,7.49523209623203,5.050448663992938.890808759073479,2.424261490848949,2.013982782227686,4.741872921449612,2.983652335528859,7.124141296164453.887330296705841,2.18000392090471,1.452640341420192,4.437626622488096,1.124880522731473,6.923138281401407-.529053529928206,4.011962880820647,1.008291308694425,7.655117876309305,2.562359983429815,11.253230199177779,1.866278091379172,4.320984748057526,3.706332011458471,8.65331761208472,5.549750932726965,12.984139533489724,1.929729857885832,4.533588368787605,3.864966963065854,9.064932543938994,5.769925579714254,13.608935073836619,1.73604432565935,4.141081563098851,3.423269104549945,8.302608709534979,5.152954069014413,12.44638355259849,1.954811535516455,4.683102342500206,3.948659408610183,9.349955863173818,5.894302174225231,14.036840437258434.960586058219633,2.313976363722759,1.848658405033348,4.658021014764017,2.774333095806469,6.986550502186219.308273377769183.775441328161833.139002095567776,1.42496315698736-.438732514427102,2.016104118119983-2.351744660742042,2.406314781461333-2.46605735871708,3.214831795292412-.90477486378677,6.326092358267488.230924864013105.460199031873344.568347147452187.872240230528405.761472485666673,1.345335916317708q1.838596914843038,4.503986654652181,6.622231703262514,3.487742351559064c2.740398265030308-.582822863794718,3.434280557475176-.076452805159533,4.485698322107964,2.555389266774,2.019559259830203,5.055181146779432,4.165333900473343,10.06019571707111,6.284723256667348,15.075072829531564.77654944317419,1.837476049578981,2.406487753029978,1.492572414554161,3.823122242407408,1.234346345558151,1.524238962105301-.27782001120795,2.996552793417322-.840469234324701,4.49153159800062-1.278823089578509.251600049291483.796173589616956-.359506253902509,1.097193996765782-.87588983882506,1.294610057946556-4.73902166337848,1.811841331737014-9.2789516642124,4.122580698884121-14.132343349021539,5.644607017940871-.499528362393903.13638870161958-.997425914849373.282479590616276-1.499572835324216.411920978955095-3.006427639336835.775045997021152-4.31733945834003.096529089986689-5.537914166471637-2.835780906982109-1.963467577923439-4.717056041496107-3.945372757264522-9.426574812857325-5.914934775522852-14.140831453570172-.736569678106207-1.762999839390432-1.754853993646066-2.598758495742004-3.714179043508921-2.302735123718776-2.506552933952662.378717476682141-4.259594030279004-.485206616187497-5.152358191558051-3.072194000647869-.501709329198093-1.453789443075948-1.134122138400926-2.890943028447509-1.783919565797987-4.30560303987113-1.017936048895535-2.216154269808612-.954379732593225-3.339017511420025.992127376836834-4.913994312364593,2.225677038073627-1.800864013286628,2.175829954654546-3.593224359867236,1.143893921273957-5.999527128446061-6.07052318377373-14.155425693154029-11.947812301346858-28.392938369399417-17.921286480079289-42.589768373996776-4.996651819481485-11.875255585717241-9.893194201245024-23.792416267526278-14.878745221778445-35.672396299039974-.687682297160791-1.638655484161973-1.36675056536842-3.281209602091621-2.053051779587804-4.920153010000831-1.307108742533273-3.121472241507036-1.300465067432924-3.306936207306535,1.043192618400099-5.582885568049278,1.238656508498025-.285517120439181,1.59088078683817-1.008943047294451,1.221836930925747-2.224505188700277-.216586516556163-.713405209575285-.736604705619357-1.440608520639216-.219471068641724-2.241909399013821Z" fill="none" stroke="url(#linear-gradient)" stroke-linecap="round" stroke-linejoin="round" stroke-width="47.328656834097799"/>
        <path d="M92.462138096842864,53.02431130052355c3.546682328310453-1.886586265294682,7.169063380817533-3.187527189471439,11.184723129371378-1.446044552143576.031063890612131,3.390826545184609,1.862995045773459,6.197933681358336,3.101602852351789,9.164899724043607,5.612348548411319,13.443867461862283,11.162320360752346,26.914206858848956,16.840300452408883,40.330198227659821,3.428235977087752,8.100249587128928,6.534422600913786,16.340591769015191,10.397415044833906,24.254898279257759.099634785403396.204126810625894.099152802308708.42963711048651.118093991700334.651271132343027-.227209032319479.882208342320155-.997352860694264,1.218599499441552-1.662873273485275,1.662539432049016-2.111288227285513.765433792315889-4.044463952974183,2.0088213725694-6.306297685321624,2.382135272522646-3.403834137116974.135381702632003-3.487485849739642.171539593733542-4.839174799109969-2.955645266258216-3.997790752663605-9.249015758823589-7.828210017664787-18.569298130069001-11.72965974951785-27.859332781654302-5.565201764616177-13.251725236512357-11.0829022483058-26.523394726134939-16.626884469558718-39.784031953593512-.487905042940838-1.167018619620649-.916871653071212-2.342984616823742-1.231210239577194-3.567200457149738-.282126068629623-1.09878327340266-.114208321103433-2.05304057792091.753964745904341-2.833687057076531Z" fill="none" stroke="url(#linear-gradient)" stroke-linecap="round" stroke-linejoin="round" stroke-width="47.328656834097799"/>
        <path d="M92.462138096842864,53.02431130052355c-.889948099745197,1.75354232942118-.057319351916703,3.389595515727706.560341979838086,4.906494941415076,2.328623557450555,5.718845463787147,4.843947991266759,11.361315256341186,7.225627630233248,17.059023939698818,2.326760656731494,5.566345373305012,4.537868793188863,11.181068674439302,6.869482913411048,16.745330434397147,2.329592108582801,5.559461360600835,4.774419841876806,11.070571917215602,7.114401998295762,16.625757022345169,1.799513637018208,4.272094779833424,3.504554089119665,8.583879756641181,5.271319900250091,12.869890812684389,1.037206375151982,2.516154005621502,2.041315681595734,5.050065762938175,3.197176392506663,7.5117290562157.742664722979498,1.581650234486006,2.262865047296145.409521523072726,3.389459264555626.696611940908042.154225429606413.406040954594573.017238014190298.772626841572674-.330057791569743.937420961685348-3.03724924647122,1.441176330965391-6.03293784815196,3.014355471801537-9.478696678565939,3.273452143796021-.229101567340876.017226888814548-.415696293783185-.126833455015003-.61452053832727-.217005986045478-1.732229095419825-2.593345426228552-2.58720904268921-5.593015290156472-3.83336853756191-8.407036069049354-2.560024137892469-5.780926824520066-4.962681399514622-11.631888921434438-7.402474494832859-17.46558259430185-1.760471983522621-4.209393992888181-3.458979801680471-8.444688846760982-5.216800325894837-12.655203187255211-1.841337788065175-4.410598109872808-3.825845159477467-8.764467160302956-5.556737708297987-13.217389307774283-2.214257722031107-5.696440030062149-5.13381515976107-11.123077737639505-6.608710445682846-17.103340178181497-1.037421225693834-4.206442469671856,1.157408234254035-9.449794655917685,5.413556441642868-11.560153930538036Z" fill="none" stroke="url(#linear-gradient)" stroke-linecap="round" stroke-linejoin="round" stroke-width="47.328656834097799"/>
        <path d="M133.957573344344382,126.187352144343095c-2.340546570437255-3.019192243438738-3.271582564188975-6.715758827975151-4.809344716701162-10.115646153770285-2.029031014531938-4.486026408672842-3.89246061778249-9.047769137956493-5.785021615686674-13.594472128442249-1.80972861868122-4.347670928088519-3.544756669832168-8.726400814038243-5.350945664977189-13.07556681774895-1.832852734288281-4.413407277070291-3.721877224907985-8.803440088382558-5.569141669147939-13.210909361419908-1.791276026443484-4.273868119211329-3.555589333005628-8.559029137568359-5.34148979818201-12.835155794253296-1.303192912782833-3.120366099887178-2.527913901599277-6.279114694103555-3.982567350626596-9.327735716770803-.548682358489714-1.149932236422501-.330551885121167-1.778530989980027.527726840886316-2.449482681245172,2.686374432823868.475907445583289,4.749673953380807,1.940553426709812,6.3344318691843,4.09537619353614,3.180939505545211,4.325167481771132,6.64458844408,8.447466518988222,9.413625445517937,13.069320767539466.111072842848444,2.823861375398337,1.508154410542375,5.241388484259005,2.563918606810148,7.738601571671097,5.498145762155218,13.004792585641553,10.907738032437919,26.046796476329291,16.363243798298754,39.069259757743566,1.05299097032912,2.513532859433326,2.336985451520377,4.933110574836974,3.181189480626017,7.536084153576667-2.075300855791284,2.102795741537193-4.589123728601407,3.140519838059845-7.545625226001903,3.100326209583727Z" fill="none" stroke="url(#linear-gradient)" stroke-linecap="round" stroke-linejoin="round" stroke-width="47.328656834097799"/>
        <path d="M141.391781909904239,123.069491405898589c-1.652961075984422-1.416301823939648-2.133314390344822-3.502053157968476-2.942251389822559-5.36468474573303-2.604421407237169-5.996830867819881-5.103025107836402-12.039990903336729-7.606748699313357-18.080071934951775-2.308325667829195-5.568695171772561-4.551584486594948-11.164346108885184-6.859519546104821-16.733205823609751-1.660223199749453-4.005971896127448-3.580055277402607-7.906502542764429-4.913919387896385-12.043699424682927-.229600524850866-.712149246066474-.799997990050542-1.563761390299987.325265211983606-2.104476992957643,4.029672551828298,5.351905493529557,8.084028919747652,10.685569927492907,12.079254641277657,16.063157395250528,2.417189371840323,3.253538525466865,4.742743049951969,6.575147495133933,7.109465136987637,9.866171586052587.227514457345933,3.100770757322607,1.78321874077028,5.756202575472344,2.955774398741596,8.519869902986102,2.304537747266295,5.43169163366656,4.347550343783951,10.977205808045255,6.978952803445281,16.26885315619802.100627716421513.202375887751259.061275393984033.434498713175344.056923602151073.657062472673715-1.970781611822531,2.013804460322717-4.301920497358878,3.152520305082362-7.18319677144973,2.951024408774174Z" fill="none" stroke="url(#linear-gradient)" stroke-linecap="round" stroke-linejoin="round" stroke-width="47.328656834097799"/>
        <path d="M115.666673167470435,133.433016567623781c3.585771755878341-1.040758775759969,7.188299533518148-2.037776180973196,10.423295320991201-3.993894340983388,2.093434572368096-.770948425835741,4.186882940582109-1.541922155009161,6.280337825480274-2.312897802388761,3.160600520453954-.906211595734931,3.254314927798987-.859540234740052,4.712623335853095,2.09071443105131.359670173794257.727641550556655.709081385022728,1.461375946644694.925940915219144,2.240542708848807.589745506988038,2.118949764228091,1.999952226261485,3.632155823494031,3.610743122633721,5.007268787734574-2.743188321945127,1.724647904788071-5.864292555275824,2.623871542402412-8.804801988945655,3.898963396475665-3.152330555221852,1.36692683144247-6.381687320562378,2.630615459484034-9.759840784906373,3.447741880821923-2.977777188653818.720289874891023-3.368575938360664.574281507386331-4.558358962302918-2.253444945428782-.736476698928527-1.750366697141544-1.64602420344454-3.429198247558816-2.352397636941532-5.190436920225693-.365611913724024-.911608393384086-1.011740771694349-1.847962402493067-.477541147080956-2.934557195905654Z" fill="none" stroke="url(#linear-gradient)" stroke-linecap="round" stroke-linejoin="round" stroke-width="47.328656834097799"/>
        <path d="M141.61961368764787,136.464750351886323c-2.665728897351983-.183095936529753-3.118708144662378-2.45784828574142-4.037150291444959-4.285378842998398-.130271736736177-.259204303523802-.170192343063718-.562960805964394-.259834002417847-.843584721578736-1.17530886158238-3.679037483849243-1.536567689297044-3.985638860111067-4.952315800701399-4.209585748176323.446425470215218-.452572077949299.946934325150323-.813739795745278,1.587211847053368-.938771066577829,2.508834290170853-.966021005659059,5.060744610053007-1.829148431761496,7.434235787948637-3.117840428176351,2.466618230409949-.689763076978124,4.769496718858136-1.763159732816348,7.007082879314112-2.989592494075623.489571331552725-.729953396341443,1.199884514513542-.966340699802458,2.039497971582023-.916656337105451,1.159895829117886.220181113962099,2.033708370810928.875419723854066,2.539300899987211,1.914737265087751,1.435727735928594,2.951342935059074,2.805962013797398,5.933845763487625,3.937809134291456,9.01901982333402-3.471785844732949,1.489056534275733-6.936580175932249,2.994720136091928-10.418463045483804,4.459770837143878-1.608592669696009.676828874011335-3.250546244085854,1.274386757904722-4.877375380128797,1.907881713123061Z" fill="none" stroke="url(#linear-gradient)" stroke-linecap="round" stroke-linejoin="round" stroke-width="47.328656834097799"/>
        <path d="M156.915452113260471,130.097097801619384c-1.69929730257536-1.626090842877602-2.289786856115825-3.843315838190392-3.12649830535338-5.921504656773322-.734112068450486-1.823357936162211-1.385069908534206-3.682302477485791-3.255308841100486-4.711337290958909.850206852277552-1.858578770974418,2.925283794020288-1.745676682645353,4.33974454204872-2.696050598544389,1.076787932765001.30572344716893,2.056497322595533.028756184212398,2.934944121636363-.580198650202874,1.559800747179906-1.08128327124723,3.012505818813224-1.095479238581902,4.702154810864158-.100997173411088,3.369437272662253,1.983178502416195,6.85552787691995,3.767581663191777,10.278607741849555,5.660911919596401.478797433261207.26482344273245,1.296073484088993.372716273626793,1.201565308296267,1.099624778725229-.092512407489266.711507961194911-.921347577295819.587488696121909-1.435483169916552.800288195706344-5.210345310908451,2.15675681168068-10.425746461150993,4.301293357948452-15.639726208324646,6.449263475862608Z" fill="none" stroke="url(#linear-gradient)" stroke-linecap="round" stroke-linejoin="round" stroke-width="47.328656834097799"/>
        <path d="M154.873389508855325,116.768205255342764c-.202749199001119,1.313580487041691-1.376982497395147,1.25033177102523-2.26131852115941,1.626998931815251-.714881553862142.304490019292643-1.387213263655212.708835052015274-2.078422971071632,1.068965799127909-.711595532904539.205375481327792-1.423201049388808.410668931488544-2.134797761811569.615896062729007-2.200062245703521-2.657836759346537-2.941853593274573-6.020238195604179-4.298075111211801-9.074700020257296-2.077518360949398-4.678945909972754-3.906428678803422-9.469215027465907-5.788400716601245-14.232953658322003-.263854668888598-.66786602193406-.853210488670811-1.539763940805642.27106652114071-2.099827915528294,5.417249975892446,7.374603045454933,11.128631805421719,14.532361255856813,16.289948560714947,22.095620800435427Z" fill="none" stroke="url(#linear-gradient)" stroke-linecap="round" stroke-linejoin="round" stroke-width="47.328656834097799"/>
        <path d="M123.226906286006852,170.185782274178564c5.216044532740852-1.838749416419887,10.353140746544341-3.867449476558249,15.297999720326516-6.358361422908274,5.245011063997481-1.714793642391669,10.217184527898098-4.094122303604308,15.282425545311526-6.249703166859035,4.256732709945936-1.811508181139288,8.565058394415246-3.501316504545684,12.835458315299547-5.281188662975183,4.334802436706013-1.806703182724959,8.613389029067548-3.754251524798747,12.985615721614522-5.463549135703943,4.854487117312601-1.897830632369732,9.488057477388793-4.345730404562346,14.51203863261253-5.816898782673888-.038395161143853.93298414857054-.389635383755376,1.698316807423907-1.191671122989646,2.221880778981358-4.461050338202767,1.888105760086546-8.938821908133832,3.73778468774799-13.410260319433291,5.599548644513561-5.303687933344918,2.208250753026732-10.619985049481329,4.386607486940193-15.893487795878173,6.666467897057373-7.17683398779991,3.102741622866233-14.516720896612242,5.81140862857319-21.613661854546081,9.11435907978921-4.42428120663044,2.059089817335916-8.9891978540727,3.820206591619353-13.546448860631244,5.575682319235057-1.996754545440126.769163715522154-3.880530345240913,1.845163581716406-6.008167808294274,2.269568295642785-2.140481055665077.395542686207591-4.090744468468984,1.658631563220297-6.374431216208905,1.399602808599411-.681281805233994-1.408961188020839.676809025764669-1.358253113214232,1.300744829739415-1.651196640210401,1.863830481865079-.875137182010803,4.019334671434081-.947387352418446,5.823846213077559-2.026212012488031Z" fill="none" stroke="url(#linear-gradient)" stroke-linecap="round" stroke-linejoin="round" stroke-width="47.328656834097799"/>
        <path d="M123.226906286006852,170.185782274178564c-1.570478832768458,1.198852505778632-3.468836098177235,1.702553091649861-5.241072064739456,2.474043735408486-.709169843701602.308714159722513-1.644155450320795.186711082636975-2.054313448581524,1.069919955980367-2.083452858953933,1.85209130891235-4.813020741329638,2.404804916306603-7.241095967081492,3.557666145714393-1.589626710197081.75475738802561-3.240917681499013,1.398851581501731-4.877870538777643,2.061199822621347-1.018482002603378.197462379443095-1.985249792823197.725756433439528-3.070852632127753.502180734276408-.260422565918816-.081047614481577-.414305645614149-.259066475031432-.459969067112979-.527711072527381.348373317099686-.990239563798241,1.319605788496119-1.35380252212417,2.028502189894425-1.976994662300058.983959525418868-.864991926811854,1.159716324666078-1.903425161430278.086089128501953-2.607334382719273-3.882015310095994-2.545189169564765-5.188705700654282-6.657165069522307-6.798725647420724-10.623802855392569-.444223767751282-1.094449799413269-.905722611165402-2.183318950586909-1.338737665068948-3.283942895748623-1.014849868076453-2.579530016004355-.961772423559523-3.396164574874092,1.208149988465266-5.217897512920899,1.684328096351237-1.414058423307324,1.911826466321145-2.874387816815215.921853720096806-4.666092447248957-.827103418861043-1.496948238032928-1.254718799487819-3.155445195554421-1.999225507941446-4.690499562828336-.669729703477969-1.380866097861144-1.51353333269526-2.104204442752234-3.111534385483537-1.81648306452189-.865208542527398.155801138047536-1.785405871788498.235128808688387-2.464075503055938-.573127876941726-2.621315486894673-7.574733463208759-6.056584262766592-14.815857213205163-9.069969212616343-22.228846489091666-4.884754710302332-12.016586201458267-9.996898609401796-23.939063248169987-15.003440310098085-35.905281713512522-3.633838035718327-8.68528129103106-7.237338759979139-17.383333842686625-10.930001426007038-26.044004840561684-.35335660218243-.828751869044936-.943770031152781-1.507575468618597-1.330149020881436-2.309763552933873,3.193646258469926-4.402604901166342,7.47723322564616-7.564543506472546,11.95015231159141-10.514170036840369.227174477302469-.149809202797769.384002447826788-.4062779166361.573589232466475-.613078582715389,1.230544359143096-.12070316770405,2.099227786881784-1.072237982163642,3.235606677981195-1.409099962869732-2.966553439376185,3.00695871008611-.195003984404138,5.636694684168106.739296829626255,8.21787611749096,1.673488633998204,4.623358019513034,3.771528362977733,9.093029604888216,5.691685509756098,13.627127392945113,1.891643868802021,4.466796795397386,3.795170822460022,8.928615863200321,5.670496342885599,13.40225884992833,1.762961131809789,4.205581143808558,3.482045126641424,8.42956180328656,5.245870273995024,12.634782408168576,1.876188159872981,4.473109372712315,3.795909424291494,8.927973603304963,5.671329400915965,13.401408225478008,1.763140549352102,4.205613301378435,3.478075645824902,8.431448940043992,5.242091326023001,12.636691349841385,1.876288173731155,4.472895831822825,3.759989935530939,8.94307130051493,5.695980124703965,13.390271891152224.557831965442347,1.281406440666615.746858958730627,2.688238684417229,1.576868370831107,3.892275916527069.4938011506365.716298727083995.085494676964117,1.570072839662316-.567662119058696,2.181906420897576-.703014247380452.658535891438078-1.370567540182492,1.361665857172738-2.120057674179407,1.962436618445281-1.49047568990045,1.194733024260131-1.522427404942391,2.49273459023243-.635611943458571,4.103384792791985.847318504845134,1.538920851360672,1.683597134244337,3.145682601179942,2.129213256641378,4.827430842484318.493173457635748,1.861211779989389,1.574372055521053,2.208213916595923,3.248835219471403,2.208281410763448,4.516289596166644.000205710626688,4.489588817615186.058409845942151,6.171284468731756,4.330219739138556,1.724536332238131,4.380663993104463,3.476750934360098,8.751070686737876,5.278871750277176,13.100272921061332,1.023734229397633,2.470674202790178,1.865213958161803,2.634787620252609,5.948598010834758,1.426496220559784Z" fill="none" stroke="url(#linear-gradient)" stroke-linecap="round" stroke-linejoin="round" stroke-width="47.328656834097799"/>
        <path d="M52.48046891597096,57.379009738930108c1.05115715355987-.130384515050537,1.430041431410245.627938295841886,1.743468766053411,1.386511311586219,2.753544845968463,6.664229188003446,5.447520166315371,13.353388833931604,8.242988887209322,19.999896129038461,2.851076572729653,6.778719335685309,5.838187015958283,13.50023615974078,8.688309679730082,20.279335414032175,2.338718380421597,5.562715814659896,4.521270246409586,11.190992531361189,6.850144664686013,16.75795131369523,2.894924062796235,6.920018801523838,6.006838064757176,13.753096388030826,8.733746758745838,20.737455104228502.94199058731374,2.412683211226977,2.78511755778527,4.63087182741765,2.347677906709578,7.501788832880266-.433879075944787,1.334838616285197-1.636934984822801,1.860347379424638-2.715006645695212,2.442037709906799-4.606882735236468,2.485687141767812-9.504919214667098,4.324664622932687-14.325333394347581,6.334340864827027-.553247901914801.230642626656845-1.130024203846915.335487994672803-1.71449198549999.080073419294422-.469135274764994-.879039936316985.11211087943957-1.457661840426226.691547301154969-1.872552239736251,1.592549206462536-1.140304574746551,1.217576183183155-2.50738584915598.603031620186812-3.944700835025287-2.298546503217949-5.375937658265684-4.543439558189675-10.774458942029014-6.796766521831159-16.169371818748914-4.990632128891775-11.948543816440178-9.972006083185079-23.90142016198115-15.023927399232889-35.823670551386385-2.364245341787864-5.57948552858943-4.319090089116798-11.345182785609722-7.284139616487664-16.663893642287803,1.434038974409305-7.907157485085918,4.73394030064992-14.931536765501733,9.958749978618471-21.04520101230446Z" fill="none" stroke="url(#linear-gradient)" stroke-linecap="round" stroke-linejoin="round" stroke-width="47.328656834097799"/>
        <path d="M42.521718937352489,78.424210751234568c2.35586435489131.843802269517255,2.335160169422124,3.25226046962598,3.148514949285527,5.026851586744669,2.113079143629875,4.610341350025919,3.990039766726113,9.329274854302639,5.943696689007993,14.012189540735562,1.728698665415322,4.143689880704187,3.417112805705983,8.304229659592238,5.153794885248317,12.444542869714496,1.905672074935865,4.543190650538236,3.868158908154328,9.062605140319647,5.765230874902045,13.609332745434585,1.785658318771311,4.279706481158428,3.511871286397763,8.584175873739696,5.276315041656744,12.872775177941548,1.595571288975407,3.878146192388158,3.081487960281265,7.808976610441277,4.868260794765774,11.597505316181014.824082600435759,1.747308975271153.314738173953629,2.594570218672743-1.109471128075711,3.386668298255245-.582102549527008.323737782731769-1.187633547339829.651553659572528-1.249223986703328,1.438377179041709-1.026720823712822,1.254703512549895-2.544438330436606,1.669076475611291-3.955567110693664,2.211435598581375-1.215840058327558.467300470292685-1.917425520535289,1.231189122924661-2.22479393292997,2.479647887403189-.402469090043269,1.634755838207639-.831168852635528,3.263552634865846-1.249481113739421,4.894559959207982-.200729891956144.782660795755874-.19944677469266,1.826463710794997-1.468407553174075,1.757337061215367-.928250407373525-2.543630195674268-1.866509007204513-5.069784589853953-3.029242437825815-7.53331932189576-1.554072470247775-3.292683457228122-3.390264425981513-6.384144934538199-5.459498474005159-9.357903993332002-1.334418965472651-6.360033073926388-2.668286877359606-12.720178787018085-4.003446458303188-19.080057585093527-.953817128099217-4.543404477901277-2.081346148853299-9.058348929354906-2.829056235907046-13.635380213252574-1.657649869414854-10.147190522236997-5.214615436027088-20.027531553307199-4.39629079812039-30.529476886238626.146653974471519-1.882064955696478.15855952583297-3.786844658381597.818665994611365-5.595085220644251Z" fill="none" stroke="url(#linear-gradient)" stroke-linecap="round" stroke-linejoin="round" stroke-width="47.328656834097799"/>
        <path d="M52.931844805903893,147.264211136014637c1.32664182175813.278592704853509,1.776463186903129,1.477401825321067,2.417278817018087,2.413790347514805,2.234242251510295,3.264805706192419,3.550717459551379,7.021842897711394,5.493653131979954,10.447126914852561.71545869964757,1.261306529001558.244224276617388,2.765340589285188.767058644790268,4.073986046812934.897332378694955.725326475778274.369889294011045,1.618559057304083.273234842228703,2.450498978156247-.099962061457518.860415445084072-.64525782273995,1.652605725555986-.386114799034658,2.734408615129723,1.308709329467092-.058529055519102,2.365998753673011-1.208979884368091,3.721989991161536-.956119408663653,2.804187421241295.408989714642303,3.706412651295068,3.030777201101955,5.341867300350714,4.736187268359572,3.079467969252619,3.211171623650444,6.027373190429898,6.537641308572347,9.742218505733035,9.054800049613732,1.480755207173388,1.0033532291136,2.768957171068905,2.226824859754743,4.040370698487095,3.472133079821106.363931136524116.356456815230558.869560013797127.657439189479192.42339854108468,1.282231218357992-2.646549781167778,1.59300603624979-5.159827289116947,3.504137784426348-8.460155475702777,3.523076728690285-.848579539264392.249612990483001-1.721205521355841.437988374023917-2.541365271474206.759985583428715-2.810987226758698,1.103634559542115-5.2886651914705.392908330857608-7.730742985491815-1.151456761708687-6.020110816804845-3.807133745662213-11.754045423019306-8.000147702368849-17.260593287662232-12.511264839986325.361841214959895-4.030007513392775,1.983569634619016-7.721695365009509,3.270877610028947-11.474985918175662,1.913056301659708-5.577683964680546,2.682698266326952-11.120739588688593,1.012412920994393-16.874468910717042-.179946563503108-.619872996832783-.090093162582889-1.318065212097281-.125389184491723-1.979928991486304Z" fill="none" stroke="url(#linear-gradient)" stroke-linecap="round" stroke-linejoin="round" stroke-width="47.328656834097799"/>
        <path d="M122.334389693954108,171.844666563631108c5.528115475176492-1.824325651927211,10.799626886470833-4.282815527752973,16.159844751567107-6.52349633691847,4.276168309790592-1.787532160529736,8.586884695750996-3.492361620479642,12.864031404029447-5.277604357213932,4.544179251490277-1.896714059847,9.057354320189916-3.867699839263878,13.601698109418066-5.764023320474735,4.277228053924773-1.784870155090175,8.580289831405025-3.507669278820686,12.866673717628146-5.270720683050968,4.352693898454163-1.790330614900085,8.719164027839724-3.550218552511069,13.02836466298686-5.440289340376694.736541386264435-.323044696501711,1.353703986529581-.471344247816887,2.093358265066854-.330576679176374-1.637912725449496,1.77733638276186-4.007371673245871,2.142989163085076-6.077934594008184,3.019160111100064-14.088931552336362,5.961667459145247-28.209124618684655,11.850498463207259-42.359523781640746,17.664737857832733-1.962236989955272.806246578266837-1.300489561592258,2.605304849925233-2.034268962190254,3.847406226375824-.391233983467828.720784125280261-1.136881981863553.885604775170577-1.813974179192883,1.162657124001271-2.896170962660108,1.185029611911887-5.413009308871551,2.993645394324631-7.843562200084307,4.909458179421563-1.552346106388541,1.223622720346611-1.455614446663276,2.057735178461371-.018521432628404,3.412134812053409.790712808246099.74521113535593,2.291710354078532.942614594570841,2.087277712724244,2.520252993876056-1.197320271825447,1.240498847086201-2.623903389488078,2.118223057133946-4.247346308527995,2.684218178084848-.461081345504681.106109218388156-.92237048656807.212137985805384-1.383663463786434.318153720774717-1.143154147263886-.389731145762198-2.088366434639283-1.104122017464761-3.020592966085133-1.840193135583831-2.377843776339432-1.877462910406393-2.60827452895046-3.620611718282817-.849855236488111-6.113900938986262,1.044824335523117-1.481478007159239,2.522628148869444-2.494639067745084,4.147728979714884-3.915069424221656-6.086706957100432,2.474366371820906-11.824217319320269,4.832760776091163-17.55735009984528,7.208673286110752-.589916547456596.247284955145005-1.181247568477374.433326462080004-1.78904271925694.05674295843437-.115006168927721-1.351213028261554.993660534608352-1.62536803758303,1.859894586536939-2.11330671541873,3.253618850387284-1.832707720019243,6.917927442366818-2.662973637588948,10.286763754062122-4.214414516643956Z" fill="none" stroke="url(#linear-gradient)" stroke-linecap="round" stroke-linejoin="round" stroke-width="47.328656834097799"/>
        <path d="M134.887853167630055,179.773763151080857c-.557397714132094-1.347555855563769-2.070465910531311-1.538573939296839-3.001865931976681-2.47560134543528-1.262776098659742-1.270381861233545-1.428267764543307-2.355195125726823.011215309642466-3.472536212324485,3.239092003029327-2.514209364077033,6.464422746741548-5.066484777673395,10.579437238201535-6.05636746980781-1.025181630282532,4.952394221134455-3.468904102004672,9.008169484422979-7.588786615867321,12.004505027567575Z" fill="none" stroke="url(#linear-gradient)" stroke-linecap="round" stroke-linejoin="round" stroke-width="47.328656834097799"/>
        <path d="M110.277351431313036,178.14527134601758c.565500175447596-.160197890320887,1.131003031431646-.32041073131677,1.696503206880152-.480608621644024,1.185532089777553-.842273078806102,2.433362450185086-1.015888329935478,3.672569152374308-.183187739841742,2.737090554285714,1.839225685436759,5.40304255211322,3.786060572292627,8.513727806973293,4.997893057050533.583374804347841.227271390403075,1.21501576366154.587602387893639,1.233644662846018,1.397263207307333-.291036729190637.129399037556141-.582066941697121.258796156897915-.873181084842145.388317113101948-6.329527740581398.92863841631879-11.937173232775422-.654298717679922-16.800416779547959-4.827282196343731.556765832844576-1.015680999573306,1.320453656680002-1.621962104800332,2.557153035316333-1.292394819630317Z" fill="none" stroke="url(#linear-gradient)" stroke-linecap="round" stroke-linejoin="round" stroke-width="47.328656834097799"/>
        <path d="M76.306645004000529,190.496330974659941c2.862808058608607-1.309149944735509,5.725616117210848-2.618299889471018,8.588424175807631-3.92744983420198.280029187892978-.662672860717066.8493727338182-1.045886724527008,1.454218843988201-1.307153692772772,4.280077104142947-1.848926370328627,8.490304235360782-3.861067782852842,12.850920921672696-5.52223962518292.421628244876047-.16064507952251.847330929856071-.271422593912575,1.29067932738144-.077098383406337.999579147582153-.290633237413203,1.999158295154302-.58126647482095,2.998733606569658-.871912744692963.237530493900522,1.155687353596477-.826411100420046,1.358246391047942-1.412132688904421,1.892783422521461-.906217250429108.826969364577963-2.118924366625833,1.246231845774673-2.95650018141805,2.17361105171949-7.024001906976991,2.99664736156592-14.046466218293972,5.996906517682874-21.073634598030367,8.986116411244438-1.078387220042714.458732679089735-2.178426586144269.866569063460702-3.268448378892572,1.297924848691764.6145111752503-.820749557629824,1.35320742071508-1.569731082900034,1.527738971825784-2.644581453920182Z" fill="none" stroke="url(#linear-gradient)" stroke-linecap="round" stroke-linejoin="round" stroke-width="47.328656834097799"/>
        <path d="M99.120989009097684,182.85687116864392c.715741703254025-2.15092612047556,3.206433638920316-2.395268335169021,4.368655470221711-4.066486096488006,4.146403856986581-1.688822740952673,8.163514906074852-3.695639694687998,12.441790420762118-5.060642152915534,2.134348675850561-.628367736877408,4.268608798558489-1.256723569409587,6.402914538107325-1.885092829447785-2.432333624528837,1.627765101494333-5.343966011729208,2.259037136981533-7.835630727481657,3.733930321085609-1.414600869937203.837334422230924-3.310531121204804.908192156264704-4.221501770901341,2.567027917832092-.85211184745549.430448991121011-1.704362022571331.861221932482295-2.556815370751792,1.292026355387861-2.86660758074413,1.139762138393053-5.733008152274124,2.279505827700632-8.599412559956363,3.419236484545763Z" fill="none" stroke="url(#linear-gradient)" stroke-linecap="round" stroke-linejoin="round" stroke-width="47.328656834097799"/>
        <path d="M125.393796260386807,183.87663124888968c-3.492781866241785-1.933892358252706-7.131086620435781-3.623032705658261-10.292633479650249-6.114140806621435-1.019925994181904-.803638305393179-2.073284042687192-.435840937400826-3.127270936584864-.097725376459493,1.0557196884738-1.327136793852333,2.775703363377033-1.234780091941502,4.15400782749839-1.854557198452312,4.744092173481476-2.133316237108374,9.60499461091058-4.006850363248304,14.772490913943329-6.123166757195577-.605811456950505,1.662576870798148-1.750675853177199,2.346504476570772-2.715794996101067,3.124110508922968-.696888293798111.561467302303754-1.333067109988406,1.137806240758437-1.899900650058044,1.830959452334355-2.292229852273522,2.803052802612001-2.133030659791984,3.82773276066473.701469185281894,6.112035140818989.77677290221618.625994796082523,1.897611029124164.928629632414413,2.270779749268513,2.022185847710716-1.28777812730732.366643105206094-2.575466128803782.733472106179761-3.863147613597903,1.10029918894179Z" fill="none" stroke="url(#linear-gradient)" stroke-linecap="round" stroke-linejoin="round" stroke-width="47.328656834097799"/>
        <path d="M65.24977405525533,168.696892005396876c-.754639458506063.262817682706554-1.549065175227042.448298189878187-2.252693085365536.810271596183156-.699087700727432.359631499886746-1.4491520970696,1.167147220254265-2.125215481766645.583435154603649-.626191662149722-.540626663492731-.070367319623074-1.527636432272629.124886654069087-2.266087139034425.316376969512021-1.196545650849657.748306533528194-2.357740950785228.613028812723314-3.625437792486991,1.20872930753012-2.306702799080085,1.29487522402269-4.934064302644401,2.08625716640563-7.363977752518622.29183301473131-.896090004041071.605827327057341-1.659876667945355,1.50930339556362-2.022160294933201,1.698764896467765-.681151823679102,3.408417635370824-1.335160122977868,5.113522762946559-2.000462001664346,6.345883670514922-2.731103806148894,12.975249995552986-4.855668224279725,18.767938040935405-8.770524972051135.293576918074905-.016060536795521.586981808871315-.036446385098316.88074430020697-.047534162018565,4.454909432475688-.168263976151138,4.498903823807268-.109655114320958,5.913467969448902,4.15743060751447.483693357891752,1.459078357805993,1.147103915680418,2.857906313491185,1.707395607540093,4.29246916316697.462267293069999,1.183582626090356.225807986000291,2.134082243961529-.899608552083009,2.865122390767283-.612302927197561.39774263588879-1.186761828575982.899621518961794-1.660191439260416,1.455159938730503-.837263951898422.982447016935112-1.2186905429935,1.84408499690835-.453205745404375,3.327066483074304,1.507864587085351,2.921173153448763,2.648594336923452,6.048143494481337,3.743848300504396,9.159454288188499.586198163501649,1.665221018387456,1.739556884818739,2.731055952375755,3.026226846770442,3.693186355896614,3.359358141542543,2.512030960713673,4.390263255635546,3.451674814654325-.965887666379786,6.288836587852529-.835906741917825.80727864968685-1.523684838234658.209142861714099-2.12354359991059-.304921333982747-3.715836622302049-3.184347781958422-7.306298319387679-6.502621629762871-10.364391201861508-10.342857620946234-1.018367638715972-1.278837855163147-1.79349992729567-2.721833565987254-2.304481491709339-4.287546369699157-.48597127805715-1.489081966593403-1.450588103621158-1.814943430926178-2.943793307413216-1.499269996354087-4.596826365204834.971821051311053-8.866256744078783,2.842651302809827-13.174048274907364,4.617187298852514-1.367092540172962.563129911373835-2.697110063577384,1.235253289027241-4.219560011052636,1.281159570859018Z" fill="none" stroke="url(#linear-gradient)" stroke-linecap="round" stroke-linejoin="round" stroke-width="47.328656834097799"/>
        <path d="M65.24977405525533,168.696892005396876c1.388809376725476-1.32411147048515,3.312710029229493-1.589654633251484,4.971732015957059-2.284244886242959,4.174342550608344-1.747716979582037,8.378403907611755-3.502199183536504,12.869198998365391-4.39117612712289,1.354680653533251-.268171373256337,2.44241489896649-.165639533879585,2.820345681543586,1.281448269050088,1.272029215674593,4.870564878376172,5.113838133624995,7.828760060408968,8.306476620133253,11.254023416298878,1.350119889291818,1.448486253506417,2.968906614586558,2.643715224417974,4.423245031085571,3.999482150489712.515103263773199.480170693405853.983101033321873.898031594684653,1.738751692324513.676749761627434.037959242293255.142862756401883.075125550959456.285930592837758.111469023061545.429198149716285-4.059803864427522,1.814337297308157-8.117834537448289,3.632401141966511-12.180274055479458,5.440575048632127-1.131802178662838.503741878017536-2.276654476877411.978172701146832-3.415588343146737,1.465986046494436-3.236810091209918-2.597655088498868-6.642134951521257-5.01544833605476-9.661221512837074-7.845233339809056-2.819983070923627-2.643168894332121-5.705369236950901-5.288087834800535-7.822275571660612-8.621660555105336-.41903980862844-.659877847581811-1.426014978586863-.946434638219216-2.161859579347038-1.405147934028719Z" fill="none" stroke="url(#linear-gradient)" stroke-linecap="round" stroke-linejoin="round" stroke-width="47.328656834097799"/>
      </g>
      <g>
        <path d="M78.245844273355033,40.954807242876996c21.61480270085849-5.169342777306156,40.785088066640128,2.76760468485918,53.276530441782597,21.731880315493981,9.678673990083553,14.693978500046796,19.639682788996652,29.202051185835444,29.483081828237118,43.78743307570403,2.506141301688331,3.713474877004046,5.882205359997897,6.386704482814821,9.892799541481509,8.348999594467386,3.522950237842451,1.723711462482242,7.030819047902696,3.491068721697957,10.454082699510764,5.402585079104028,4.854854235640232,2.710940502052836,7.993376883849123,6.928332869481892,10.068628323853773,12.014250746658945.710898260458634,1.742233037399274,1.157906737342273,3.617175288671206,2.42990678395654,5.09422197069398l.754219340960844,2.562285182058986c-.137846423844167.620141011522719-.05016327301928,1.347348284953114-.794840940447102,1.682446171993433-8.112426583697015,3.358707432006668-16.214742440408372,6.744787135561637-24.303014012837593,10.159814449245459-7.951570956391151,3.35729928445835-15.933604350308087,6.644500847882227-23.864455833852844,10.052871831794619-2.228666225310008.95780187328819-4.401256768611347,2.130598054072834-6.821404839831303,2.613574247947327-1.433471517171711.37423774225681-2.836592013983136.863710842496403-4.278752871715369,1.204266677645137-2.821950900716729.66633545689001-4.163340402741596.097833123578312-5.368677580428994-2.533863613933136-2.035363777616112-4.443957421910454-3.824736409242178-8.995883256457091-5.714103232170601-13.503732241890248-1.143918566831417-2.729264878105823-1.557012232884517-3.000909604432309-4.52490207703795-2.606203202871257-.734654752082861.097687397548725-1.475539818093239.149044957744991-2.207220948766917.263714892364078-1.805568822452187.282982328008075-3.05672589959795-.476213767371519-3.716507493880272-2.109238931461732-.831917989808971-2.059065407439448-1.826529449243935-4.051179738030442-2.495101157554018-6.179356848939278-.395612670151422-1.259296970363721-.291920758919332-2.42845081782616.738951243805786-3.243672920825702,1.698977130747153-1.343554454686455,1.464756805902653-2.845654107668452.724810210812393-4.550312354082052-2.889270090884565-6.65617346153158-5.590587792026781-13.391399330690547-8.393549528122094-20.08384707969708-5.005983867551549-11.952451147124521-10.052184725588631-23.888213891616033-15.009841390023212-35.860714329448456-1.379553763706099-3.331573817044045-3.305212957920048-6.498430419462238-3.43824195443176-10.25608427998668-.010441974856803-.295075023748723-.118585844273184-.596239356027581-.080668614687966-.883396759565585.969567234157694-7.344077169194861-3.316652925376729-13.180391712383425-5.61506050562275-19.584794268368569-.377931765321591-1.053106996072529-1.222216752452368-1.403859456027021-2.292839744862249-1.376425097836545-1.022710680223099.026207645212708-2.078819346739692.291462980404503-3.035579152631726-.332056772411306-.206329312911294-.224624146781935-.238105356026608-.47140976225819-.098362709347384-.74214989227039,1.232704361279502-1.058751393653438,2.612234997311134-1.53651532618278,4.230114173850779-1.072495641583373Z" fill="#fbb84b" stroke-width="0"/>
        <path d="M74.778908134897392,193.140883486343228c-4.763085796552332,2.029961550702865-9.522859081306706,4.067742431570878-14.290276015659401,6.08747961463996-4.065037533779105,1.722184403255596-5.799135463400489.97310078166629-7.727759630661239-3.016488965389726-1.071650791915999-2.216841427925829-1.486644492434607-4.750518807399203-3.185025220650459-6.664714892092888l-1.131329011439448-3.843427773092117c.446923704890651-1.921061865876254-.309339733097659-3.839792493141431-.010107859659911-5.761352561014064.121723168262179-.781610296891813.226830550793238-1.565792855051768.339491414373697-2.348814178618341,1.073644541416797-.060640638731456,1.782012981269872.645024854018629,2.506625158162933,1.253164318724885,4.822938352903293,4.047762752540621,10.029065134011034,7.549867535758494,15.334075518827376,10.923125048288057,2.211466110518813,1.406194662724374,4.457497968127427,1.849645832104216,6.959314278959937.971750917535246.824212299807186-.289230468471942,1.672211700109074-.634108021500651,2.592508306378477-.396187409480262.935442398303167,1.624631628350471-.415367857332967,2.116055006414172-1.387516938631961,2.79546588049925Z" fill="#d07f44" stroke-width="0"/>
        <path d="M65.004215876213493,46.251767491025021c-.576712513371604-1.34885658049825-1.198780792211437-2.680379539287969-1.72209804744125-4.049641626699668-2.014333568028633-5.270554001968776-1.269453014655483-7.6545005370117,3.321336679069645-10.803217570588458l1.281233671381415-.377136480359695c1.335038607057868.07788414989227,2.693051433384426-.005238142681264,3.957902888761055.564528777791566.436227641240293.62275657193095.099659934318879,1.151246495756823-.297404046983502,1.568133527778627-2.013013084533668,2.11350262792439-2.179655223073496,4.681060583687213-1.888418461529909,7.375425037771492.028491414364908,1.711269124336468,1.41870030314567,3.743652239025323-1.134355742230582,4.850122784677296-1.174417353445278.280889191304595-2.1045883708166,1.558565476698277-3.518196941026872.871785549628839Z" fill="#f8a731" stroke-width="0"/>
        <path d="M124.694718462785204,184.605411446396829c-.062454079703457-.111181275358831-.120513419929921-.224633314170205-.174170348351254-.340330051523779.124453325953255-.416023838427463.432972235403213-.661624452563046.791715993726939-.862416756487619,1.217286699343276-.533252228741731,2.499254910919262-.860019526432552,3.788249222091508-1.167824942341213.540739173510701-.113639143112778,1.07058925398178-.14915793165892,1.540201324409281.223222084086956.003610906068388.129762395637954.014645396657215.258883247539416.033094274537689.38737942458647-1.993032327693982.586657386633306-3.986058138719272,1.173312855051336-5.979090466414164,1.759970241679184Z" fill="#e7ab91" stroke-width="0"/>
        <path d="M69.242182434428287,40.376292760702199c-.613001887892096-2.802923379431377-.303401532212774-5.378755622752578,1.87937301700822-7.473105918819783.388530311343857-.372792536556517.65753492109161-.780780693776251.721002167518236-1.316831485883085,1.782939799972155.640702253011113,3.202785391518773,1.667813326550458,3.800000243358227,3.570339919153412.824972461537982,1.248487639568339-.300008918259664,1.4736165275026-1.008482140816341,1.900724989242008-2.367979889129856,1.427556789103619-2.580790975824129,3.08255882128833-.656386924816616,5.183340397494248.037861002245336.137284547263334.076010177466742.274489580229783.114440769236353.411616202571167-.876042467440129,1.214414216445221-2.179462031755975,1.625567190685615-3.433059125361979,1.092663094317686-1.347633341303663-.572874314697401-1.314639872602129-2.079617163753937-1.416888006126101-3.368747198075653Z" fill="#fac13f" stroke-width="0"/>
        <path d="M73.977688796680013,42.240760661888999c-1.622997759577629.545639486455912-1.707329881520309-.756745173008312-1.85714487486166-1.695704563217078-.258973010320005-1.622998615802317.109374846235369-3.074227914072253,1.777188395882149-3.861383785060752.729467297922383-.344286639157872,1.900771725788218-.173444786531036,1.744715091556827-1.526726790842076.867906714352102,1.932481461386487,1.735702855778982,3.865212763128511,2.603444792189293,5.797904258855851-1.422764248088242.428607961521266-2.845487084777233.857260379998479-4.268203404766609,1.285910880264055Z" fill="#fcd54c" stroke-width="0"/>
        <path d="M69.242182434428287,40.376292760702199q1.014516271006869,3.408404879330192,4.849952449372722,2.276078112903633c5.537194030902356-.152833017283228,5.577758792614986-.167738518774058,7.49523209623203,5.050448663992938.890808759073479,2.424261490848949,2.013982782227686,4.741872921449612,2.983652335528859,7.124141296164453.887330296705841,2.18000392090471,1.452640341420192,4.437626622488096,1.124880522731473,6.923138281401407-.529053529928206,4.011962880820647,1.008291308694425,7.655117876309305,2.562359983429815,11.253230199177779,1.866278091379172,4.320984748057526,3.706332011458471,8.65331761208472,5.549750932726965,12.984139533489724,1.929729857885832,4.533588368787605,3.864966963065854,9.064932543938994,5.769925579714254,13.608935073836619,1.73604432565935,4.141081563098851,3.423269104549945,8.302608709534979,5.152954069014413,12.44638355259849,1.954811535516455,4.683102342500206,3.948659408610183,9.349955863173818,5.894302174225231,14.036840437258434.960586058219633,2.313976363722759,1.848658405033348,4.658021014764017,2.774333095806469,6.986550502186219.308273377769183.775441328161833.139002095567776,1.42496315698736-.438732514427102,2.016104118119983-2.351744660742042,2.406314781461333-2.46605735871708,3.214831795292412-.90477486378677,6.326092358267488.230924864013105.460199031873344.568347147452187.872240230528405.761472485666673,1.345335916317708q1.838596914843038,4.503986654652181,6.622231703262514,3.487742351559064c2.740398265030308-.582822863794718,3.434280557475176-.076452805159533,4.485698322107964,2.555389266774,2.019559259830203,5.055181146779432,4.165333900473343,10.06019571707111,6.284723256667348,15.075072829531564.77654944317419,1.837476049578981,2.406487753029978,1.492572414554161,3.823122242407408,1.234346345558151,1.524238962105301-.27782001120795,2.996552793417322-.840469234324701,4.49153159800062-1.278823089578509.251600049291483.796173589616956-.359506253902509,1.097193996765782-.87588983882506,1.294610057946556-4.73902166337848,1.811841331737014-9.2789516642124,4.122580698884121-14.132343349021539,5.644607017940871-.499528362393903.13638870161958-.997425914849373.282479590616276-1.499572835324216.411920978955095-3.006427639336835.775045997021152-4.31733945834003.096529089986689-5.537914166471637-2.835780906982109-1.963467577923439-4.717056041496107-3.945372757264522-9.426574812857325-5.914934775522852-14.140831453570172-.736569678106207-1.762999839390432-1.754853993646066-2.598758495742004-3.714179043508921-2.302735123718776-2.506552933952662.378717476682141-4.259594030279004-.485206616187497-5.152358191558051-3.072194000647869-.501709329198093-1.453789443075948-1.134122138400926-2.890943028447509-1.783919565797987-4.30560303987113-1.017936048895535-2.216154269808612-.954379732593225-3.339017511420025.992127376836834-4.913994312364593,2.225677038073627-1.800864013286628,2.175829954654546-3.593224359867236,1.143893921273957-5.999527128446061-6.07052318377373-14.155425693154029-11.947812301346858-28.392938369399417-17.921286480079289-42.589768373996776-4.996651819481485-11.875255585717241-9.893194201245024-23.792416267526278-14.878745221778445-35.672396299039974-.687682297160791-1.638655484161973-1.36675056536842-3.281209602091621-2.053051779587804-4.920153010000831-1.307108742533273-3.121472241507036-1.300465067432924-3.306936207306535,1.043192618400099-5.582885568049278,1.238656508498025-.285517120439181,1.59088078683817-1.008943047294451,1.221836930925747-2.224505188700277-.216586516556163-.713405209575285-.736604705619357-1.440608520639216-.219471068641724-2.241909399013821Z" fill="#f6b047" stroke-width="0"/>
        <path d="M92.462138096842864,53.02431130052355c3.546682328310453-1.886586265294682,7.169063380817533-3.187527189471439,11.184723129371378-1.446044552143576.031063890612131,3.390826545184609,1.862995045773459,6.197933681358336,3.101602852351789,9.164899724043607,5.612348548411319,13.443867461862283,11.162320360752346,26.914206858848956,16.840300452408883,40.330198227659821,3.428235977087752,8.100249587128928,6.534422600913786,16.340591769015191,10.397415044833906,24.254898279257759.099634785403396.204126810625894.099152802308708.42963711048651.118093991700334.651271132343027-.227209032319479.882208342320155-.997352860694264,1.218599499441552-1.662873273485275,1.662539432049016-2.111288227285513.765433792315889-4.044463952974183,2.0088213725694-6.306297685321624,2.382135272522646-3.403834137116974.135381702632003-3.487485849739642.171539593733542-4.839174799109969-2.955645266258216-3.997790752663605-9.249015758823589-7.828210017664787-18.569298130069001-11.72965974951785-27.859332781654302-5.565201764616177-13.251725236512357-11.0829022483058-26.523394726134939-16.626884469558718-39.784031953593512-.487905042940838-1.167018619620649-.916871653071212-2.342984616823742-1.231210239577194-3.567200457149738-.282126068629623-1.09878327340266-.114208321103433-2.05304057792091.753964745904341-2.833687057076531Z" fill="#fcd25b" stroke-width="0"/>
        <path d="M92.462138096842864,53.02431130052355c-.889948099745197,1.75354232942118-.057319351916703,3.389595515727706.560341979838086,4.906494941415076,2.328623557450555,5.718845463787147,4.843947991266759,11.361315256341186,7.225627630233248,17.059023939698818,2.326760656731494,5.566345373305012,4.537868793188863,11.181068674439302,6.869482913411048,16.745330434397147,2.329592108582801,5.559461360600835,4.774419841876806,11.070571917215602,7.114401998295762,16.625757022345169,1.799513637018208,4.272094779833424,3.504554089119665,8.583879756641181,5.271319900250091,12.869890812684389,1.037206375151982,2.516154005621502,2.041315681595734,5.050065762938175,3.197176392506663,7.5117290562157.742664722979498,1.581650234486006,2.262865047296145.409521523072726,3.389459264555626.696611940908042.154225429606413.406040954594573.017238014190298.772626841572674-.330057791569743.937420961685348-3.03724924647122,1.441176330965391-6.03293784815196,3.014355471801537-9.478696678565939,3.273452143796021-.229101567340876.017226888814548-.415696293783185-.126833455015003-.61452053832727-.217005986045478-1.732229095419825-2.593345426228552-2.58720904268921-5.593015290156472-3.83336853756191-8.407036069049354-2.560024137892469-5.780926824520066-4.962681399514622-11.631888921434438-7.402474494832859-17.46558259430185-1.760471983522621-4.209393992888181-3.458979801680471-8.444688846760982-5.216800325894837-12.655203187255211-1.841337788065175-4.410598109872808-3.825845159477467-8.764467160302956-5.556737708297987-13.217389307774283-2.214257722031107-5.696440030062149-5.13381515976107-11.123077737639505-6.608710445682846-17.103340178181497-1.037421225693834-4.206442469671856,1.157408234254035-9.449794655917685,5.413556441642868-11.560153930538036Z" fill="#fac251" stroke-width="0"/>
        <path d="M133.957573344344382,126.187352144343095c-2.340546570437255-3.019192243438738-3.271582564188975-6.715758827975151-4.809344716701162-10.115646153770285-2.029031014531938-4.486026408672842-3.89246061778249-9.047769137956493-5.785021615686674-13.594472128442249-1.80972861868122-4.347670928088519-3.544756669832168-8.726400814038243-5.350945664977189-13.07556681774895-1.832852734288281-4.413407277070291-3.721877224907985-8.803440088382558-5.569141669147939-13.210909361419908-1.791276026443484-4.273868119211329-3.555589333005628-8.559029137568359-5.34148979818201-12.835155794253296-1.303192912782833-3.120366099887178-2.527913901599277-6.279114694103555-3.982567350626596-9.327735716770803-.548682358489714-1.149932236422501-.330551885121167-1.778530989980027.527726840886316-2.449482681245172,2.686374432823868.475907445583289,4.749673953380807,1.940553426709812,6.3344318691843,4.09537619353614,3.180939505545211,4.325167481771132,6.64458844408,8.447466518988222,9.413625445517937,13.069320767539466.111072842848444,2.823861375398337,1.508154410542375,5.241388484259005,2.563918606810148,7.738601571671097,5.498145762155218,13.004792585641553,10.907738032437919,26.046796476329291,16.363243798298754,39.069259757743566,1.05299097032912,2.513532859433326,2.336985451520377,4.933110574836974,3.181189480626017,7.536084153576667-2.075300855791284,2.102795741537193-4.589123728601407,3.140519838059845-7.545625226001903,3.100326209583727Z" fill="#fcda61" stroke-width="0"/>
        <path d="M141.391781909904239,123.069491405898589c-1.652961075984422-1.416301823939648-2.133314390344822-3.502053157968476-2.942251389822559-5.36468474573303-2.604421407237169-5.996830867819881-5.103025107836402-12.039990903336729-7.606748699313357-18.080071934951775-2.308325667829195-5.568695171772561-4.551584486594948-11.164346108885184-6.859519546104821-16.733205823609751-1.660223199749453-4.005971896127448-3.580055277402607-7.906502542764429-4.913919387896385-12.043699424682927-.229600524850866-.712149246066474-.799997990050542-1.563761390299987.325265211983606-2.104476992957643,4.029672551828298,5.351905493529557,8.084028919747652,10.685569927492907,12.079254641277657,16.063157395250528,2.417189371840323,3.253538525466865,4.742743049951969,6.575147495133933,7.109465136987637,9.866171586052587.227514457345933,3.100770757322607,1.78321874077028,5.756202575472344,2.955774398741596,8.519869902986102,2.304537747266295,5.43169163366656,4.347550343783951,10.977205808045255,6.978952803445281,16.26885315619802.100627716421513.202375887751259.061275393984033.434498713175344.056923602151073.657062472673715-1.970781611822531,2.013804460322717-4.301920497358878,3.152520305082362-7.18319677144973,2.951024408774174Z" fill="#fde366" stroke-width="0"/>
        <path d="M115.666673167470435,133.433016567623781c3.585771755878341-1.040758775759969,7.188299533518148-2.037776180973196,10.423295320991201-3.993894340983388,2.093434572368096-.770948425835741,4.186882940582109-1.541922155009161,6.280337825480274-2.312897802388761,3.160600520453954-.906211595734931,3.254314927798987-.859540234740052,4.712623335853095,2.09071443105131.359670173794257.727641550556655.709081385022728,1.461375946644694.925940915219144,2.240542708848807.589745506988038,2.118949764228091,1.999952226261485,3.632155823494031,3.610743122633721,5.007268787734574-2.743188321945127,1.724647904788071-5.864292555275824,2.623871542402412-8.804801988945655,3.898963396475665-3.152330555221852,1.36692683144247-6.381687320562378,2.630615459484034-9.759840784906373,3.447741880821923-2.977777188653818.720289874891023-3.368575938360664.574281507386331-4.558358962302918-2.253444945428782-.736476698928527-1.750366697141544-1.64602420344454-3.429198247558816-2.352397636941532-5.190436920225693-.365611913724024-.911608393384086-1.011740771694349-1.847962402493067-.477541147080956-2.934557195905654Z" fill="#f9c147" stroke-width="0"/>
        <path d="M141.61961368764787,136.464750351886323c-2.665728897351983-.183095936529753-3.118708144662378-2.45784828574142-4.037150291444959-4.285378842998398-.130271736736177-.259204303523802-.170192343063718-.562960805964394-.259834002417847-.843584721578736-1.17530886158238-3.679037483849243-1.536567689297044-3.985638860111067-4.952315800701399-4.209585748176323.446425470215218-.452572077949299.946934325150323-.813739795745278,1.587211847053368-.938771066577829,2.508834290170853-.966021005659059,5.060744610053007-1.829148431761496,7.434235787948637-3.117840428176351,2.466618230409949-.689763076978124,4.769496718858136-1.763159732816348,7.007082879314112-2.989592494075623.489571331552725-.729953396341443,1.199884514513542-.966340699802458,2.039497971582023-.916656337105451,1.159895829117886.220181113962099,2.033708370810928.875419723854066,2.539300899987211,1.914737265087751,1.435727735928594,2.951342935059074,2.805962013797398,5.933845763487625,3.937809134291456,9.01901982333402-3.471785844732949,1.489056534275733-6.936580175932249,2.994720136091928-10.418463045483804,4.459770837143878-1.608592669696009.676828874011335-3.250546244085854,1.274386757904722-4.877375380128797,1.907881713123061Z" fill="#fcd24e" stroke-width="0"/>
        <path d="M156.915452113260471,130.097097801619384c-1.69929730257536-1.626090842877602-2.289786856115825-3.843315838190392-3.12649830535338-5.921504656773322-.734112068450486-1.823357936162211-1.385069908534206-3.682302477485791-3.255308841100486-4.711337290958909.850206852277552-1.858578770974418,2.925283794020288-1.745676682645353,4.33974454204872-2.696050598544389,1.076787932765001.30572344716893,2.056497322595533.028756184212398,2.934944121636363-.580198650202874,1.559800747179906-1.08128327124723,3.012505818813224-1.095479238581902,4.702154810864158-.100997173411088,3.369437272662253,1.983178502416195,6.85552787691995,3.767581663191777,10.278607741849555,5.660911919596401.478797433261207.26482344273245,1.296073484088993.372716273626793,1.201565308296267,1.099624778725229-.092512407489266.711507961194911-.921347577295819.587488696121909-1.435483169916552.800288195706344-5.210345310908451,2.15675681168068-10.425746461150993,4.301293357948452-15.639726208324646,6.449263475862608Z" fill="#fdda52" stroke-width="0"/>
        <path d="M154.873389508855325,116.768205255342764c-.202749199001119,1.313580487041691-1.376982497395147,1.25033177102523-2.26131852115941,1.626998931815251-.714881553862142.304490019292643-1.387213263655212.708835052015274-2.078422971071632,1.068965799127909-.711595532904539.205375481327792-1.423201049388808.410668931488544-2.134797761811569.615896062729007-2.200062245703521-2.657836759346537-2.941853593274573-6.020238195604179-4.298075111211801-9.074700020257296-2.077518360949398-4.678945909972754-3.906428678803422-9.469215027465907-5.788400716601245-14.232953658322003-.263854668888598-.66786602193406-.853210488670811-1.539763940805642.27106652114071-2.099827915528294,5.417249975892446,7.374603045454933,11.128631805421719,14.532361255856813,16.289948560714947,22.095620800435427Z" fill="#fdeb6c" stroke-width="0"/>
        <path d="M123.226906286006852,170.185782274178564c5.216044532740852-1.838749416419887,10.353140746544341-3.867449476558249,15.297999720326516-6.358361422908274,5.245011063997481-1.714793642391669,10.217184527898098-4.094122303604308,15.282425545311526-6.249703166859035,4.256732709945936-1.811508181139288,8.565058394415246-3.501316504545684,12.835458315299547-5.281188662975183,4.334802436706013-1.806703182724959,8.613389029067548-3.754251524798747,12.985615721614522-5.463549135703943,4.854487117312601-1.897830632369732,9.488057477388793-4.345730404562346,14.51203863261253-5.816898782673888-.038395161143853.93298414857054-.389635383755376,1.698316807423907-1.191671122989646,2.221880778981358-4.461050338202767,1.888105760086546-8.938821908133832,3.73778468774799-13.410260319433291,5.599548644513561-5.303687933344918,2.208250753026732-10.619985049481329,4.386607486940193-15.893487795878173,6.666467897057373-7.17683398779991,3.102741622866233-14.516720896612242,5.81140862857319-21.613661854546081,9.11435907978921-4.42428120663044,2.059089817335916-8.9891978540727,3.820206591619353-13.546448860631244,5.575682319235057-1.996754545440126.769163715522154-3.880530345240913,1.845163581716406-6.008167808294274,2.269568295642785-2.140481055665077.395542686207591-4.090744468468984,1.658631563220297-6.374431216208905,1.399602808599411-.681281805233994-1.408961188020839.676809025764669-1.358253113214232,1.300744829739415-1.651196640210401,1.863830481865079-.875137182010803,4.019334671434081-.947387352418446,5.823846213077559-2.026212012488031Z" fill="#f1a362" stroke-width="0"/>
        <path d="M123.226906286006852,170.185782274178564c-1.570478832768458,1.198852505778632-3.468836098177235,1.702553091649861-5.241072064739456,2.474043735408486-.709169843701602.308714159722513-1.644155450320795.186711082636975-2.054313448581524,1.069919955980367-2.083452858953933,1.85209130891235-4.813020741329638,2.404804916306603-7.241095967081492,3.557666145714393-1.589626710197081.75475738802561-3.240917681499013,1.398851581501731-4.877870538777643,2.061199822621347-1.018482002603378.197462379443095-1.985249792823197.725756433439528-3.070852632127753.502180734276408-.260422565918816-.081047614481577-.414305645614149-.259066475031432-.459969067112979-.527711072527381.348373317099686-.990239563798241,1.319605788496119-1.35380252212417,2.028502189894425-1.976994662300058.983959525418868-.864991926811854,1.159716324666078-1.903425161430278.086089128501953-2.607334382719273-3.882015310095994-2.545189169564765-5.188705700654282-6.657165069522307-6.798725647420724-10.623802855392569-.444223767751282-1.094449799413269-.905722611165402-2.183318950586909-1.338737665068948-3.283942895748623-1.014849868076453-2.579530016004355-.961772423559523-3.396164574874092,1.208149988465266-5.217897512920899,1.684328096351237-1.414058423307324,1.911826466321145-2.874387816815215.921853720096806-4.666092447248957-.827103418861043-1.496948238032928-1.254718799487819-3.155445195554421-1.999225507941446-4.690499562828336-.669729703477969-1.380866097861144-1.51353333269526-2.104204442752234-3.111534385483537-1.81648306452189-.865208542527398.155801138047536-1.785405871788498.235128808688387-2.464075503055938-.573127876941726-2.621315486894673-7.574733463208759-6.056584262766592-14.815857213205163-9.069969212616343-22.228846489091666-4.884754710302332-12.016586201458267-9.996898609401796-23.939063248169987-15.003440310098085-35.905281713512522-3.633838035718327-8.68528129103106-7.237338759979139-17.383333842686625-10.930001426007038-26.044004840561684-.35335660218243-.828751869044936-.943770031152781-1.507575468618597-1.330149020881436-2.309763552933873,3.193646258469926-4.402604901166342,7.47723322564616-7.564543506472546,11.95015231159141-10.514170036840369.227174477302469-.149809202797769.384002447826788-.4062779166361.573589232466475-.613078582715389,1.230544359143096-.12070316770405,2.099227786881784-1.072237982163642,3.235606677981195-1.409099962869732-2.966553439376185,3.00695871008611-.195003984404138,5.636694684168106.739296829626255,8.21787611749096,1.673488633998204,4.623358019513034,3.771528362977733,9.093029604888216,5.691685509756098,13.627127392945113,1.891643868802021,4.466796795397386,3.795170822460022,8.928615863200321,5.670496342885599,13.40225884992833,1.762961131809789,4.205581143808558,3.482045126641424,8.42956180328656,5.245870273995024,12.634782408168576,1.876188159872981,4.473109372712315,3.795909424291494,8.927973603304963,5.671329400915965,13.401408225478008,1.763140549352102,4.205613301378435,3.478075645824902,8.431448940043992,5.242091326023001,12.636691349841385,1.876288173731155,4.472895831822825,3.759989935530939,8.94307130051493,5.695980124703965,13.390271891152224.557831965442347,1.281406440666615.746858958730627,2.688238684417229,1.576868370831107,3.892275916527069.4938011506365.716298727083995.085494676964117,1.570072839662316-.567662119058696,2.181906420897576-.703014247380452.658535891438078-1.370567540182492,1.361665857172738-2.120057674179407,1.962436618445281-1.49047568990045,1.194733024260131-1.522427404942391,2.49273459023243-.635611943458571,4.103384792791985.847318504845134,1.538920851360672,1.683597134244337,3.145682601179942,2.129213256641378,4.827430842484318.493173457635748,1.861211779989389,1.574372055521053,2.208213916595923,3.248835219471403,2.208281410763448,4.516289596166644.000205710626688,4.489588817615186.058409845942151,6.171284468731756,4.330219739138556,1.724536332238131,4.380663993104463,3.476750934360098,8.751070686737876,5.278871750277176,13.100272921061332,1.023734229397633,2.470674202790178,1.865213958161803,2.634787620252609,5.948598010834758,1.426496220559784Z" fill="#f1a843" stroke-width="0"/>
        <path d="M52.48046891597096,57.379009738930108c1.05115715355987-.130384515050537,1.430041431410245.627938295841886,1.743468766053411,1.386511311586219,2.753544845968463,6.664229188003446,5.447520166315371,13.353388833931604,8.242988887209322,19.999896129038461,2.851076572729653,6.778719335685309,5.838187015958283,13.50023615974078,8.688309679730082,20.279335414032175,2.338718380421597,5.562715814659896,4.521270246409586,11.190992531361189,6.850144664686013,16.75795131369523,2.894924062796235,6.920018801523838,6.006838064757176,13.753096388030826,8.733746758745838,20.737455104228502.94199058731374,2.412683211226977,2.78511755778527,4.63087182741765,2.347677906709578,7.501788832880266-.433879075944787,1.334838616285197-1.636934984822801,1.860347379424638-2.715006645695212,2.442037709906799-4.606882735236468,2.485687141767812-9.504919214667098,4.324664622932687-14.325333394347581,6.334340864827027-.553247901914801.230642626656845-1.130024203846915.335487994672803-1.71449198549999.080073419294422-.469135274764994-.879039936316985.11211087943957-1.457661840426226.691547301154969-1.872552239736251,1.592549206462536-1.140304574746551,1.217576183183155-2.50738584915598.603031620186812-3.944700835025287-2.298546503217949-5.375937658265684-4.543439558189675-10.774458942029014-6.796766521831159-16.169371818748914-4.990632128891775-11.948543816440178-9.972006083185079-23.90142016198115-15.023927399232889-35.823670551386385-2.364245341787864-5.57948552858943-4.319090089116798-11.345182785609722-7.284139616487664-16.663893642287803,1.434038974409305-7.907157485085918,4.73394030064992-14.931536765501733,9.958749978618471-21.04520101230446Z" fill="#eb9e3f" stroke-width="0"/>
        <path d="M42.521718937352489,78.424210751234568c2.35586435489131.843802269517255,2.335160169422124,3.25226046962598,3.148514949285527,5.026851586744669,2.113079143629875,4.610341350025919,3.990039766726113,9.329274854302639,5.943696689007993,14.012189540735562,1.728698665415322,4.143689880704187,3.417112805705983,8.304229659592238,5.153794885248317,12.444542869714496,1.905672074935865,4.543190650538236,3.868158908154328,9.062605140319647,5.765230874902045,13.609332745434585,1.785658318771311,4.279706481158428,3.511871286397763,8.584175873739696,5.276315041656744,12.872775177941548,1.595571288975407,3.878146192388158,3.081487960281265,7.808976610441277,4.868260794765774,11.597505316181014.824082600435759,1.747308975271153.314738173953629,2.594570218672743-1.109471128075711,3.386668298255245-.582102549527008.323737782731769-1.187633547339829.651553659572528-1.249223986703328,1.438377179041709-1.026720823712822,1.254703512549895-2.544438330436606,1.669076475611291-3.955567110693664,2.211435598581375-1.215840058327558.467300470292685-1.917425520535289,1.231189122924661-2.22479393292997,2.479647887403189-.402469090043269,1.634755838207639-.831168852635528,3.263552634865846-1.249481113739421,4.894559959207982-.200729891956144.782660795755874-.19944677469266,1.826463710794997-1.468407553174075,1.757337061215367-.928250407373525-2.543630195674268-1.866509007204513-5.069784589853953-3.029242437825815-7.53331932189576-1.554072470247775-3.292683457228122-3.390264425981513-6.384144934538199-5.459498474005159-9.357903993332002-1.334418965472651-6.360033073926388-2.668286877359606-12.720178787018085-4.003446458303188-19.080057585093527-.953817128099217-4.543404477901277-2.081346148853299-9.058348929354906-2.829056235907046-13.635380213252574-1.657649869414854-10.147190522236997-5.214615436027088-20.027531553307199-4.39629079812039-30.529476886238626.146653974471519-1.882064955696478.15855952583297-3.786844658381597.818665994611365-5.595085220644251Z" fill="#e6943a" stroke-width="0"/>
        <path d="M52.931844805903893,147.264211136014637c1.32664182175813.278592704853509,1.776463186903129,1.477401825321067,2.417278817018087,2.413790347514805,2.234242251510295,3.264805706192419,3.550717459551379,7.021842897711394,5.493653131979954,10.447126914852561.71545869964757,1.261306529001558.244224276617388,2.765340589285188.767058644790268,4.073986046812934.897332378694955.725326475778274.369889294011045,1.618559057304083.273234842228703,2.450498978156247-.099962061457518.860415445084072-.64525782273995,1.652605725555986-.386114799034658,2.734408615129723,1.308709329467092-.058529055519102,2.365998753673011-1.208979884368091,3.721989991161536-.956119408663653,2.804187421241295.408989714642303,3.706412651295068,3.030777201101955,5.341867300350714,4.736187268359572,3.079467969252619,3.211171623650444,6.027373190429898,6.537641308572347,9.742218505733035,9.054800049613732,1.480755207173388,1.0033532291136,2.768957171068905,2.226824859754743,4.040370698487095,3.472133079821106.363931136524116.356456815230558.869560013797127.657439189479192.42339854108468,1.282231218357992-2.646549781167778,1.59300603624979-5.159827289116947,3.504137784426348-8.460155475702777,3.523076728690285-.848579539264392.249612990483001-1.721205521355841.437988374023917-2.541365271474206.759985583428715-2.810987226758698,1.103634559542115-5.2886651914705.392908330857608-7.730742985491815-1.151456761708687-6.020110816804845-3.807133745662213-11.754045423019306-8.000147702368849-17.260593287662232-12.511264839986325.361841214959895-4.030007513392775,1.983569634619016-7.721695365009509,3.270877610028947-11.474985918175662,1.913056301659708-5.577683964680546,2.682698266326952-11.120739588688593,1.012412920994393-16.874468910717042-.179946563503108-.619872996832783-.090093162582889-1.318065212097281-.125389184491723-1.979928991486304Z" fill="#e18c3a" stroke-width="0"/>
        <path d="M122.334389693954108,171.844666563631108c5.528115475176492-1.824325651927211,10.799626886470833-4.282815527752973,16.159844751567107-6.52349633691847,4.276168309790592-1.787532160529736,8.586884695750996-3.492361620479642,12.864031404029447-5.277604357213932,4.544179251490277-1.896714059847,9.057354320189916-3.867699839263878,13.601698109418066-5.764023320474735,4.277228053924773-1.784870155090175,8.580289831405025-3.507669278820686,12.866673717628146-5.270720683050968,4.352693898454163-1.790330614900085,8.719164027839724-3.550218552511069,13.02836466298686-5.440289340376694.736541386264435-.323044696501711,1.353703986529581-.471344247816887,2.093358265066854-.330576679176374-1.637912725449496,1.77733638276186-4.007371673245871,2.142989163085076-6.077934594008184,3.019160111100064-14.088931552336362,5.961667459145247-28.209124618684655,11.850498463207259-42.359523781640746,17.664737857832733-1.962236989955272.806246578266837-1.300489561592258,2.605304849925233-2.034268962190254,3.847406226375824-.391233983467828.720784125280261-1.136881981863553.885604775170577-1.813974179192883,1.162657124001271-2.896170962660108,1.185029611911887-5.413009308871551,2.993645394324631-7.843562200084307,4.909458179421563-1.552346106388541,1.223622720346611-1.455614446663276,2.057735178461371-.018521432628404,3.412134812053409.790712808246099.74521113535593,2.291710354078532.942614594570841,2.087277712724244,2.520252993876056-1.197320271825447,1.240498847086201-2.623903389488078,2.118223057133946-4.247346308527995,2.684218178084848-.461081345504681.106109218388156-.92237048656807.212137985805384-1.383663463786434.318153720774717-1.143154147263886-.389731145762198-2.088366434639283-1.104122017464761-3.020592966085133-1.840193135583831-2.377843776339432-1.877462910406393-2.60827452895046-3.620611718282817-.849855236488111-6.113900938986262,1.044824335523117-1.481478007159239,2.522628148869444-2.494639067745084,4.147728979714884-3.915069424221656-6.086706957100432,2.474366371820906-11.824217319320269,4.832760776091163-17.55735009984528,7.208673286110752-.589916547456596.247284955145005-1.181247568477374.433326462080004-1.78904271925694.05674295843437-.115006168927721-1.351213028261554.993660534608352-1.62536803758303,1.859894586536939-2.11330671541873,3.253618850387284-1.832707720019243,6.917927442366818-2.662973637588948,10.286763754062122-4.214414516643956Z" fill="#f09a66" stroke-width="0"/>
        <path d="M134.887853167630055,179.773763151080857c-.557397714132094-1.347555855563769-2.070465910531311-1.538573939296839-3.001865931976681-2.47560134543528-1.262776098659742-1.270381861233545-1.428267764543307-2.355195125726823.011215309642466-3.472536212324485,3.239092003029327-2.514209364077033,6.464422746741548-5.066484777673395,10.579437238201535-6.05636746980781-1.025181630282532,4.952394221134455-3.468904102004672,9.008169484422979-7.588786615867321,12.004505027567575Z" fill="#fbb56c" stroke-width="0"/>
        <path d="M110.277351431313036,178.14527134601758c.565500175447596-.160197890320887,1.131003031431646-.32041073131677,1.696503206880152-.480608621644024,1.185532089777553-.842273078806102,2.433362450185086-1.015888329935478,3.672569152374308-.183187739841742,2.737090554285714,1.839225685436759,5.40304255211322,3.786060572292627,8.513727806973293,4.997893057050533.583374804347841.227271390403075,1.21501576366154.587602387893639,1.233644662846018,1.397263207307333-.291036729190637.129399037556141-.582066941697121.258796156897915-.873181084842145.388317113101948-6.329527740581398.92863841631879-11.937173232775422-.654298717679922-16.800416779547959-4.827282196343731.556765832844576-1.015680999573306,1.320453656680002-1.621962104800332,2.557153035316333-1.292394819630317Z" fill="#d07866" stroke-width="0"/>
        <path d="M76.306645004000529,190.496330974659941c2.862808058608607-1.309149944735509,5.725616117210848-2.618299889471018,8.588424175807631-3.92744983420198.280029187892978-.662672860717066.8493727338182-1.045886724527008,1.454218843988201-1.307153692772772,4.280077104142947-1.848926370328627,8.490304235360782-3.861067782852842,12.850920921672696-5.52223962518292.421628244876047-.16064507952251.847330929856071-.271422593912575,1.29067932738144-.077098383406337.999579147582153-.290633237413203,1.999158295154302-.58126647482095,2.998733606569658-.871912744692963.237530493900522,1.155687353596477-.826411100420046,1.358246391047942-1.412132688904421,1.892783422521461-.906217250429108.826969364577963-2.118924366625833,1.246231845774673-2.95650018141805,2.17361105171949-7.024001906976991,2.99664736156592-14.046466218293972,5.996906517682874-21.073634598030367,8.986116411244438-1.078387220042714.458732679089735-2.178426586144269.866569063460702-3.268448378892572,1.297924848691764.6145111752503-.820749557629824,1.35320742071508-1.569731082900034,1.527738971825784-2.644581453920182Z" fill="#e28e50" stroke-width="0"/>
        <path d="M99.120989009097684,182.85687116864392c.715741703254025-2.15092612047556,3.206433638920316-2.395268335169021,4.368655470221711-4.066486096488006,4.146403856986581-1.688822740952673,8.163514906074852-3.695639694687998,12.441790420762118-5.060642152915534,2.134348675850561-.628367736877408,4.268608798558489-1.256723569409587,6.402914538107325-1.885092829447785-2.432333624528837,1.627765101494333-5.343966011729208,2.259037136981533-7.835630727481657,3.733930321085609-1.414600869937203.837334422230924-3.310531121204804.908192156264704-4.221501770901341,2.567027917832092-.85211184745549.430448991121011-1.704362022571331.861221932482295-2.556815370751792,1.292026355387861-2.86660758074413,1.139762138393053-5.733008152274124,2.279505827700632-8.599412559956363,3.419236484545763Z" fill="#eb985c" stroke-width="0"/>
        <path d="M125.393796260386807,183.87663124888968c-3.492781866241785-1.933892358252706-7.131086620435781-3.623032705658261-10.292633479650249-6.114140806621435-1.019925994181904-.803638305393179-2.073284042687192-.435840937400826-3.127270936584864-.097725376459493,1.0557196884738-1.327136793852333,2.775703363377033-1.234780091941502,4.15400782749839-1.854557198452312,4.744092173481476-2.133316237108374,9.60499461091058-4.006850363248304,14.772490913943329-6.123166757195577-.605811456950505,1.662576870798148-1.750675853177199,2.346504476570772-2.715794996101067,3.124110508922968-.696888293798111.561467302303754-1.333067109988406,1.137806240758437-1.899900650058044,1.830959452334355-2.292229852273522,2.803052802612001-2.133030659791984,3.82773276066473.701469185281894,6.112035140818989.77677290221618.625994796082523,1.897611029124164.928629632414413,2.270779749268513,2.022185847710716-1.28777812730732.366643105206094-2.575466128803782.733472106179761-3.863147613597903,1.10029918894179Z" fill="#e78460" stroke-width="0"/>
        <path d="M65.24977405525533,168.696892005396876c-.754639458506063.262817682706554-1.549065175227042.448298189878187-2.252693085365536.810271596183156-.699087700727432.359631499886746-1.4491520970696,1.167147220254265-2.125215481766645.583435154603649-.626191662149722-.540626663492731-.070367319623074-1.527636432272629.124886654069087-2.266087139034425.316376969512021-1.196545650849657.748306533528194-2.357740950785228.613028812723314-3.625437792486991,1.20872930753012-2.306702799080085,1.29487522402269-4.934064302644401,2.08625716640563-7.363977752518622.29183301473131-.896090004041071.605827327057341-1.659876667945355,1.50930339556362-2.022160294933201,1.698764896467765-.681151823679102,3.408417635370824-1.335160122977868,5.113522762946559-2.000462001664346,6.345883670514922-2.731103806148894,12.975249995552986-4.855668224279725,18.767938040935405-8.770524972051135.293576918074905-.016060536795521.586981808871315-.036446385098316.88074430020697-.047534162018565,4.454909432475688-.168263976151138,4.498903823807268-.109655114320958,5.913467969448902,4.15743060751447.483693357891752,1.459078357805993,1.147103915680418,2.857906313491185,1.707395607540093,4.29246916316697.462267293069999,1.183582626090356.225807986000291,2.134082243961529-.899608552083009,2.865122390767283-.612302927197561.39774263588879-1.186761828575982.899621518961794-1.660191439260416,1.455159938730503-.837263951898422.982447016935112-1.2186905429935,1.84408499690835-.453205745404375,3.327066483074304,1.507864587085351,2.921173153448763,2.648594336923452,6.048143494481337,3.743848300504396,9.159454288188499.586198163501649,1.665221018387456,1.739556884818739,2.731055952375755,3.026226846770442,3.693186355896614,3.359358141542543,2.512030960713673,4.390263255635546,3.451674814654325-.965887666379786,6.288836587852529-.835906741917825.80727864968685-1.523684838234658.209142861714099-2.12354359991059-.304921333982747-3.715836622302049-3.184347781958422-7.306298319387679-6.502621629762871-10.364391201861508-10.342857620946234-1.018367638715972-1.278837855163147-1.79349992729567-2.721833565987254-2.304481491709339-4.287546369699157-.48597127805715-1.489081966593403-1.450588103621158-1.814943430926178-2.943793307413216-1.499269996354087-4.596826365204834.971821051311053-8.866256744078783,2.842651302809827-13.174048274907364,4.617187298852514-1.367092540172962.563129911373835-2.697110063577384,1.235253289027241-4.219560011052636,1.281159570859018Z" fill="#f5a53c" stroke-width="0"/>
        <path d="M65.24977405525533,168.696892005396876c1.388809376725476-1.32411147048515,3.312710029229493-1.589654633251484,4.971732015957059-2.284244886242959,4.174342550608344-1.747716979582037,8.378403907611755-3.502199183536504,12.869198998365391-4.39117612712289,1.354680653533251-.268171373256337,2.44241489896649-.165639533879585,2.820345681543586,1.281448269050088,1.272029215674593,4.870564878376172,5.113838133624995,7.828760060408968,8.306476620133253,11.254023416298878,1.350119889291818,1.448486253506417,2.968906614586558,2.643715224417974,4.423245031085571,3.999482150489712.515103263773199.480170693405853.983101033321873.898031594684653,1.738751692324513.676749761627434.037959242293255.142862756401883.075125550959456.285930592837758.111469023061545.429198149716285-4.059803864427522,1.814337297308157-8.117834537448289,3.632401141966511-12.180274055479458,5.440575048632127-1.131802178662838.503741878017536-2.276654476877411.978172701146832-3.415588343146737,1.465986046494436-3.236810091209918-2.597655088498868-6.642134951521257-5.01544833605476-9.661221512837074-7.845233339809056-2.819983070923627-2.643168894332121-5.705369236950901-5.288087834800535-7.822275571660612-8.621660555105336-.41903980862844-.659877847581811-1.426014978586863-.946434638219216-2.161859579347038-1.405147934028719Z" fill="#e5933b" stroke-width="0"/>
      </g>
    </g>
  </a>
  <path d="M158.021437448016513,108.496170472511949c-3.244438456098578-4.742841726215374-6.717812393029817-9.329771992626775-10.392579156048669-13.747480198480844-.839675288838407-1.009435605843464-2.679269388780085-.932768700644374-3.535533905933335,0-.985209221991681,1.073234155395767-.895686364347057,2.458763254398946,0,3.535533905931516.857881630243355,1.03132279188867,1.705279811529181,2.071268669060373,2.539856168055849,3.121552272599729.417279708450224.525131142823739.831314493654645,1.052824150156084,1.242702971238032,1.582581529113668-.161660448740804-.208175046880569.00146008536467.001509142874056.070377573025326.091184614109807.102178618295511.132954871929542.20424947733045.265992969125364.306085829804942.399210248146119.229131903768575.299739022606445.457253700511501.600249840440483.684432976504468.901471270661204,1.640832664921618,2.175612013550563,3.228776892632595,4.390465341764866,4.767304117616732,6.639542098282618.73696285799997,1.077319924816038,2.229999910174229,1.664393593035129,3.420474583050236.896878842686419,1.07200103249852-.691133229101979,1.686551633923955-2.266101302432617.896878842686419-3.420474583050236h0Z" fill="#fff" stroke-width="0"/>
  <path d="M182.806713505467997,139.274776399017355l-1.738965283695507,1.472597907715681,3.535533905931516,3.535533905931516c1.01311286946293-1.082576012804566,2.104572896503669-2.089035010332736,3.265561849802907-3.011245626848904.243791067132406-.22644292928635.416097798937699-.494632430156344.516920195408602-.804568502611801.156526428532743-.297932929672243.228297379075229-.618999079790228.21531285162564-.963198450353957.012984527449589-.344199370563729-.058786423092897-.665265520681714-.21531285162564-.963198450353957-.100822396470903-.309936072456367-.273129128276196-.578125573326361-.516920195408602-.804568502611801-.476436605731578-.437360044219531-1.101943900743208-.762055343155225-1.767766952965758-.732233047034242l-.664599030526006.089302416117789c-.423512002835196.118779839513081-.791234643649659.333090049816747-1.103167922441571.642930630916453-1.160989148032968.922210771201208-2.252449150271786,1.928669795626774-3.265561849801088,3.011245626848904-.447343077954429.478014740789149-.732233047034242,1.104751671560734-.732233047034242,1.767766952965758-.012984527449589.344199370564638.058786423091078.665265520679895.215312851623821.963198450353957.100822396472722.309936072453638.273129128276196.578125573325451.516920195410421.804568502611801.476436605729759.437360044219531,1.101943900741389.762055343155225,1.767766952965758.732233047034242l.664599030524187-.089302416117789c.423512002837015-.118779839513081.791234643651478-.333090049818566,1.103167922441571-.642930630916453l1.738965283697326-1.472597907715681c.243791067132406-.22644292928544.416097798937699-.494632430158163.516920195408602-.804568502611801.156526428532743-.297932929674062.228297379075229-.618999079792047.21531285162564-.963198450353957.012984527449589-.344199370563729-.058786423092897-.665265520681714-.21531285162564-.963198450353957-.100822396470903-.309936072455457-.273129128276196-.578125573325451-.516920195408602-.804568502611801-.476436605731578-.437360044219531-1.101943900743208-.762055343155225-1.767766952965758-.732233047034242l-.664599030526006.089302416117789c-.423512002835196.118779839513081-.791234643649659.333090049818566-1.103167922441571.642930630916453h0Z" fill="#fff" stroke-width="0"/>
  <path d="M188.405812274249911,138.906014817799587c-.203560035595729-3.016764336598499-1.043129545705597-5.92884088122446-2.549835123598314-8.556964538787724-.650735334958881-1.135067762219478-2.292192793891445-1.62429701919973-3.420474583050236-.896878842686419-1.145903850527247.738779352301208-1.593113168961281,2.206043621261415-.896878842686419,3.420474583050236.346185012556816.603845259980517.655065284672673,1.225605473173346.927805345017987,1.86597506769067l-.252020871013883-.597198839657722c.569722765942061,1.367104535826002.960466357128098,2.795251895367983,1.164781400590073,4.262197300695334l-.08930241611597-.664599030524187c.050930605197209.387928669172652.089584977507911.776633223969839.115925090856763,1.166994300219812.045028233098492.667319434069213.248338899429655,1.28387280536117.732233047034242,1.767766952965758.433605695090591.43360569509241,1.145015637197503.760126154800673,1.767766952965758.732233047034242,1.279072746976453-.057289825115731,2.594288888962183-1.102636530667951,2.5-2.5h0Z" fill="#fff" stroke-width="0"/>
</svg>