<?xml version="1.0" encoding="UTF-8"?>
<svg id="Pattern" xmlns="http://www.w3.org/2000/svg" width="280" height="280" xmlns:xlink="http://www.w3.org/1999/xlink" viewBox="0 0 280 280">
  <defs>
    <linearGradient id="A4" x1="295.522707635462211" y1="88.851088515539232" x2="345.964133517893572" y2="25.671928824420796" gradientTransform="translate(-315.243240160754397 198.694891877978364) rotate(-5.229501706695723) scale(1.257162611749954 1.104749122187874) skewX(-4.596438063393953)" gradientUnits="userSpaceOnUse">
      <stop offset="0" stop-color="#7d67a2"/>
      <stop offset=".385181145631382" stop-color="#895ea4"/>
      <stop offset=".489316239316239" stop-color="#8e5ba6"/>
      <stop offset=".841924594895194" stop-color="#9a5c9d"/>
      <stop offset="1" stop-color="#a25d99"/>
    </linearGradient>
    <linearGradient id="linear-gradient" x1="128.915980477607263" y1="162.164831092919485" x2="187.719313518913538" y2="30.090382654008778" gradientUnits="userSpaceOnUse">
      <stop offset="0" stop-color="#b45152"/>
      <stop offset=".256923818068603" stop-color="#b9574f"/>
      <stop offset=".627056879835899" stop-color="#c86a49"/>
      <stop offset="1" stop-color="#dd8541"/>
    </linearGradient>
  </defs>
  <a xlink:href="https://www.notion.so/dmmnotes/Type-A-d0420320e0bf4731b311ee86887d6ca3?pvs=4">
    <g id="A">
      <path d="M84.07696872967972,264.860330784573307c-18.814453125,0-34.87890625-9.81298828125-40.9267578125-25-3.65234375-9.17138671875-3.318359375-19.46923828125.939453125-28.99658203125,5.23828125-11.720703125,15.8779296875-21.2392578125,29.1884765625-26.11572265625,6.2529296875-2.29052734375,12.724609375-3.4521484375,19.234375-3.4521484375,18.814453125,0,34.8798828125,9.8134765625,40.927734375,25.00048828125,3.65234375,9.17138671875,3.318359375,19.46923828125-.939453125,28.99609375-5.23828125,11.720703125-15.876953125,21.2392578125-29.1884765625,26.11572265625-6.25390625,2.291015625-12.724609375,3.4521484375-19.2353515625,3.4521484375Z" fill="url(#A4)"/>
      <path d="M92.51312595624222,189.542856419338932c14.9600830078125-.000213623046875,28.3135986328125,7.37017822265625,33.2652587890625,19.80438232421875,6.72705078125,16.892410278320312-4.601318359375,36.733993530273438-25.302734375,44.317474365234375-5.46337890625,2.001388549804688-11.0341796875,2.949020385742188-16.3980712890625,2.949020385742188-14.9600830078125,0-28.313720703125-7.370193481445312-33.265380859375-19.804397583007812-6.72705078125-16.892410278320312,4.6014404296875-36.733993530273438,25.302734375-44.317413330078125,5.46337890625-2.00140380859375,11.0343017578125-2.948974609375,16.398193359375-2.949066162109375M92.51373630780472,173.049082005276432h-.0008544921875c-7.48095703125.00006103515625-14.9068603515625,1.330902099609375-22.0714111328125,3.955535888671875-15.3895263671875,5.6375732421875-27.7384033203125,16.751983642578125-33.880615234375,30.49334716796875-5.175048828125,11.577896118164062-5.5557861328125,24.154693603515625-1.0721435546875,35.41363525390625,7.304931640625,18.34332275390625,26.377197265625,30.195892333984375,48.5888671875,30.195892333984375,7.480712890625,0,14.9066162109375-1.330780029296875,22.0714111328125-3.955413818359375,15.3896484375-5.63763427734375,27.7386474609375-16.751998901367188,33.880615234375-30.493377685546875,5.175048828125-11.57794189453125,5.555908203125-24.15472412109375,1.0721435546875-35.413726806640625-7.3048095703125-18.34332275390625-26.3768310546875-30.195892333984375-48.5880126953125-30.195892333984375h0Z" fill="#3d2747"/>
    </g>
  </a>
  <a xlink:href="https://www.notion.so/dmmnotes/Type-A-d0420320e0bf4731b311ee86887d6ca3?pvs=4">
    <g>
      <path d="M61.087890625,166.041015625c2.1376953125,1.1826171875,3.9677734375,2.6328125,5.4873046875,4.3505859375,1.51953125,1.7197265625,2.798828125,3.599609375,3.8408203125,5.640625,1.0400390625,2.0419921875,1.8701171875,4.203125,2.490234375,6.4853515625.6181640625,2.2841796875,1.09765625,4.580078125,1.4345703125,6.888671875.7880859375,4.56640625,1.2373046875,9.185546875,1.3505859375,13.8583984375.1123046875,4.6728515625.0283203125,9.3740234375-.2529296875,14.099609375-.11328125,1.34375-.2255859375,2.4453125-.337890625,3.3037109375-.11328125.8603515625-.32421875,1.55859375-.6328125,2.0947265625-.3095703125.5380859375-.74609375.966796875-1.30859375,1.2890625-.5634765625.322265625-1.3505859375.6171875-2.36328125.88671875-.9580078125.1064453125-1.9560546875.1875-2.9970703125.2412109375-1.0419921875.052734375-2.0126953125-.21484375-2.912109375-.8056640625-.8447265625-.5361328125-1.548828125-1.4501953125-2.1103515625-2.7392578125-.5634765625-1.2890625-.8740234375-3.142578125-.9287109375-5.5595703125v-.8056640625c-1.408203125-.1611328125-3.08203125-.2939453125-5.0234375-.40234375-1.94140625-.107421875-3.9248046875-.173828125-5.951171875-.2021484375-2.0263671875-.0263671875-3.982421875-.0400390625-5.8671875-.0400390625h-4.76953125c-.056640625.4833984375-.126953125,1.2890625-.2109375,2.4169921875-.0849609375,1.1279296875-.267578125,2.255859375-.548828125,3.384765625-.2822265625,1.1279296875-.662109375,2.1484375-1.1396484375,3.0615234375-.478515625.9140625-1.1396484375,1.3955078125-1.9833984375,1.4501953125-.7890625.052734375-1.6884765625.1064453125-2.7021484375.1611328125-1.0126953125.052734375-1.998046875-.0546875-2.9541015625-.322265625-.9580078125-.2138671875-1.759765625-.64453125-2.40625-1.2890625-.6474609375-.64453125-1-1.6650390625-1.0546875-3.0615234375,0-1.6650390625.02734375-3.572265625.083984375-5.720703125.0556640625-2.1484375.1689453125-4.484375.337890625-7.009765625.1123046875-2.0947265625.294921875-4.3916015625.548828125-6.888671875.2529296875-2.498046875.6181640625-5.0625,1.09765625-7.6943359375.4765625-2.6318359375,1.0966796875-5.263671875,1.8564453125-7.896484375.759765625-2.630859375,1.716796875-5.12890625,2.8701171875-7.4931640625,1.1533203125-2.3623046875,2.5185546875-4.5380859375,4.0947265625-6.5263671875,1.5751953125-1.986328125,3.4609375-3.6513671875,5.65625-4.9951171875,2.587890625-1.5576171875,5.4296875-2.3359375,8.525390625-2.3359375,3.0947265625,0,6.021484375.724609375,8.7802734375,2.1748046875ZM40.57421875,202.701171875c3.544921875-.2685546875,7.076171875-.4697265625,10.5947265625-.6044921875,3.515625-.1337890625,7.048828125-.1474609375,10.59375-.0400390625.1689453125-3.8134765625,0-7.2236328125-.505859375-10.2333984375-.5068359375-3.0068359375-1.2109375-5.544921875-2.111328125-7.61328125-.900390625-2.0673828125-1.9697265625-3.65234375-3.20703125-4.75390625-1.2392578125-1.1005859375-2.5048828125-1.6513671875-3.798828125-1.6513671875-1.126953125,0-2.2939453125.55078125-3.50390625,1.6513671875-1.2109375,1.1015625-2.3359375,2.712890625-3.376953125,4.833984375-1.0419921875,2.123046875-1.9833984375,4.7412109375-2.8271484375,7.8564453125-.8447265625,3.115234375-1.46484375,6.6337890625-1.857421875,10.5546875Z" fill="none" stroke="#3d2747" stroke-linecap="round" stroke-linejoin="round" stroke-width="27.168021834124399"/>
      <path d="M61.087890625,166.041015625c2.1376953125,1.1826171875,3.9677734375,2.6328125,5.4873046875,4.3505859375,1.51953125,1.7197265625,2.798828125,3.599609375,3.8408203125,5.640625,1.0400390625,2.0419921875,1.8701171875,4.203125,2.490234375,6.4853515625.6181640625,2.2841796875,1.09765625,4.580078125,1.4345703125,6.888671875.7880859375,4.56640625,1.2373046875,9.185546875,1.3505859375,13.8583984375.1123046875,4.6728515625.0283203125,9.3740234375-.2529296875,14.099609375-.11328125,1.34375-.2255859375,2.4453125-.337890625,3.3037109375-.11328125.8603515625-.32421875,1.55859375-.6328125,2.0947265625-.3095703125.5380859375-.74609375.966796875-1.30859375,1.2890625-.5634765625.322265625-1.3505859375.6171875-2.36328125.88671875-.9580078125.1064453125-1.9560546875.1875-2.9970703125.2412109375-1.0419921875.052734375-2.0126953125-.21484375-2.912109375-.8056640625-.8447265625-.5361328125-1.548828125-1.4501953125-2.1103515625-2.7392578125-.5634765625-1.2890625-.8740234375-3.142578125-.9287109375-5.5595703125v-.8056640625c-1.408203125-.1611328125-3.08203125-.2939453125-5.0234375-.40234375-1.94140625-.107421875-3.9248046875-.173828125-5.951171875-.2021484375-2.0263671875-.0263671875-3.982421875-.0400390625-5.8671875-.0400390625h-4.76953125c-.056640625.4833984375-.126953125,1.2890625-.2109375,2.4169921875-.0849609375,1.1279296875-.267578125,2.255859375-.548828125,3.384765625-.2822265625,1.1279296875-.662109375,2.1484375-1.1396484375,3.0615234375-.478515625.9140625-1.1396484375,1.3955078125-1.9833984375,1.4501953125-.7890625.052734375-1.6884765625.1064453125-2.7021484375.1611328125-1.0126953125.052734375-1.998046875-.0546875-2.9541015625-.322265625-.9580078125-.2138671875-1.759765625-.64453125-2.40625-1.2890625-.6474609375-.64453125-1-1.6650390625-1.0546875-3.0615234375,0-1.6650390625.02734375-3.572265625.083984375-5.720703125.0556640625-2.1484375.1689453125-4.484375.337890625-7.009765625.1123046875-2.0947265625.294921875-4.3916015625.548828125-6.888671875.2529296875-2.498046875.6181640625-5.0625,1.09765625-7.6943359375.4765625-2.6318359375,1.0966796875-5.263671875,1.8564453125-7.896484375.759765625-2.630859375,1.716796875-5.12890625,2.8701171875-7.4931640625,1.1533203125-2.3623046875,2.5185546875-4.5380859375,4.0947265625-6.5263671875,1.5751953125-1.986328125,3.4609375-3.6513671875,5.65625-4.9951171875,2.587890625-1.5576171875,5.4296875-2.3359375,8.525390625-2.3359375,3.0947265625,0,6.021484375.724609375,8.7802734375,2.1748046875ZM40.57421875,202.701171875c3.544921875-.2685546875,7.076171875-.4697265625,10.5947265625-.6044921875,3.515625-.1337890625,7.048828125-.1474609375,10.59375-.0400390625.1689453125-3.8134765625,0-7.2236328125-.505859375-10.2333984375-.5068359375-3.0068359375-1.2109375-5.544921875-2.111328125-7.61328125-.900390625-2.0673828125-1.9697265625-3.65234375-3.20703125-4.75390625-1.2392578125-1.1005859375-2.5048828125-1.6513671875-3.798828125-1.6513671875-1.126953125,0-2.2939453125.55078125-3.50390625,1.6513671875-1.2109375,1.1015625-2.3359375,2.712890625-3.376953125,4.833984375-1.0419921875,2.123046875-1.9833984375,4.7412109375-2.8271484375,7.8564453125-.8447265625,3.115234375-1.46484375,6.6337890625-1.857421875,10.5546875Z" fill="#fff"/>
    </g>
  </a>
  <a xlink:href="https://www.notion.so/dmmnotes/semantic-thought-2477648bf2934c578347c35b7291e8b9?pvs=4">
    <g>
      <g>
        <path d="M236.639609597217714,126.207401729614503c.087085554083387-.020948782073901.174471162683403-.022339060265949.262174754443549-.00418212000659l.304497892107975,3.088847142202212c-.089822471894877.017715955838867-.179995596507069.033420104853576-.270510874135653.047102091126362-.538314291204188-.372807336030746-.553604565175192-.957295902400801-.619833879096404-1.522219375980058-.049266860813077-.567756826916593-.146537894157518-1.146248193686915.323672106680533-1.609547737341927Z" fill="none" stroke="url(#linear-gradient)" stroke-linecap="round" stroke-linejoin="round" stroke-width="29.255131838457899"/>
        <path d="M188.927064060386328,41.726306326421764c2.161601723410058,5.506189845571498,4.334361599128897,11.008034078375204,6.482476427157962,16.519477262565488,4.335307534621279,11.123092202120461,8.657082423009342,22.251456529997085,12.984707107445502,33.377545219831518,4.420859699543144,11.365793799868698,8.842763633602772,22.731170564693457,13.259249316432033,34.098661450731015.128431955465203.330578007902659.200673280218325.68298060676716.299112489759864,1.025214762565156-.845814780033834.760768137661216-1.954453036632913.922482709289397-2.975014104780712,1.248885367309413-11.63871246724193,3.722403770807432-23.053257639860021,8.030796378056039-34.222387696632723,12.989090678112916-3.525359095438034,1.564997998904801-7.319780401732714,2.190479232533107-11.035533367659809,3.082029247749233-.642754405009327.154221601847894-1.337290968371235.20781220428762-1.971541030567096-.149608078048914-1.027037718949941-.990167048257717-1.37446317254944-2.28826926261172-1.589358891395023-3.625258615595158-.543304175475896-3.380237883788141-.479399680474671-6.804267852587145-.583585687956656-10.207967878001-.074218853154889-2.4244422061347-.190794136351542-4.851485753992165-.273617653414476-7.274556223150284-.225794474267786-6.605261621558384-.462232703003792-13.211196745520283-.735162378283349-19.814514906429395-.17698443653444-4.281823076895307-.370868179294121-8.566063453956303-.529101553079272-12.848221641590499-.221173826194899-5.985299329886402-.487113238071288-11.969631200783624-.648184546907032-17.957933392161067-.097164050919673-3.612446626615565-.179762314412073-7.234847772488138-.441534402154502-10.83249031781088-.166914146877389-2.293899611486268,1.075275615243299-3.676480646587152,2.23445474925029-5.22238131728227,2.739412270193498-3.653332863901596,5.98691446099474-6.831451273359562,9.356024793471079-9.893561846911325.542567268155835-.493132983039686,1.122223858701545-.909226078634674,1.791659664611871-1.206430636069854,2.644934741440011-1.174240877378907,5.451574902856009-1.963540335067592,8.003054810887988-3.361752782908297.186676664376137-.102303883582863.402867991724634-.042831791886783.594281953814061.053773647094204Z" fill="none" stroke="url(#linear-gradient)" stroke-linecap="round" stroke-linejoin="round" stroke-width="29.255131838457899"/>
        <path d="M188.927064060386328,41.726306326421764c-2.019291915688882,1.585158581572614-4.542894359598904,2.073141626493452-6.824457692644501,3.081071766424429-1.373151180114291.606618729563706-2.620817172193711,1.238001707362855-3.785087799873509,2.249753371823317-3.976527869575875,3.455615268167094-7.312771817885732,7.461783382192152-10.506414617711926,11.61022974768639-.254756288726639.330923013363645-.54399014433875.656305018525018-.463636255377423,1.107323591430031.237553664841471,1.333308998608118.022616081686465,2.673309459027223.082632107712925,4.005866899164175.201488713008075,4.47293257270394.547359928985315,8.941259425339013.659182622225671,13.415821355714797.127195008856688,5.089628563280712.367493904880575,10.172780716853595.553796306433469,15.258776389367995.188209723490218,5.137890249314296.407030129495979,10.274352413263841.595182431061403,15.411853325429547.191948688603588,5.241201444350736.321689383026751,10.482976816369046.615926581962412,15.721661506337114.265058987806697,4.719412065212964.330274302868929,9.44995845989979.491451296784362,14.175328081331827.072803960651072,2.134167888947559.451345391564246,4.195355639621994,1.531831158428758,6.077603107911273.142772566845451.480396118036879-.241293296623553.645484609420237-.534944745568282.812672415147972-3.137081987351849,1.786154369456199-6.294655631392743,3.536637446652094-9.366500524827643,5.435374067403245-.173818147753991.107432402555787-.388481337269695.135846584476894-.592543510036194.178311298632252-2.759569414443831.655356944822415-5.499779483627208,1.403662027283644-8.329597398500482,1.699500321199594-2.092964903897155.218802156541642-4.17967480765401.378547059595803-6.251303022736465.860436896435203-1.602073591951921.37265858237879-2.471459178332225-.286432080041777-3.030298334742838-1.653343398036668-.573291478825922-5.084271830730358-.529076855229505-10.198274322958241-.728263340234662-15.299846778974825-.086516143260269-2.215946523219827-.17812295414933-4.434037218808953-.265447497466994-6.649009356333409-.262125788744015-6.64926066551925-.446979588037721-13.302112665212917-.750402661855333-19.948349235277419-.277640466063531-6.081394821956565-.5087864646448-12.165631261112139-.738643042108379-18.247700968538993-.225945649182904-5.978366189665394-.382025430737485-11.964419255251414-.684881414823394-17.936636102382181-.217567746989516-4.290195807563578,1.030446732502242-8.137064096328686,2.464104747214151-12.012645798007725.470758527844737-.732932470637024,1.252874990734199-1.044721519647283,1.975548026066463-1.436638811774174,6.306155776168453-3.419930914227734,12.669069174344258-6.739752242754548,19.102455492133231-9.904695416917093,7.579681388469908-3.728872747207788,15.025496286449197-7.773529774492999,23.032228542386292-10.582448294455389.195825850611982-.068695850870427.389865977114823-.133679721369845.597059631176307-.153022152902849.383674343696839.907584450153081.767348571229377,1.815167722006663,1.151022914922578,2.722752172161563Z" fill="none" stroke="url(#linear-gradient)" stroke-linecap="round" stroke-linejoin="round" stroke-width="29.255131838457899"/>
        <path d="M143.424762242240831,60.878612170195993c-.671829332246489,2.690594110361417-1.606191764500181,5.303362721728263-2.243815899893889,8.011607815640673-.478570289486015,2.032669442072802-.053634913409041,4.010174672272115-.014908142722561,5.973707736253346.053486011667701,2.711693485794967.184386097913375,5.449920437989931.335163554847895,8.171568205971198.317844570263333,5.737276545451095.344215132352474,11.490327753499514.523914950552353,17.23584965738155.05942324683383,1.900020683802722.252864295754989,3.788514610645507.28037486798894,5.698872102484529.063620642609749,4.418360284302253.481927482746869,8.83046202436708.607944988279996,13.24934337058221.153814322880862,5.393603625354444.410325380169525,10.781395091167724.624092968564582,16.171544185310267.209676828104421,5.286939205139788.232447325071917,10.581186550274651.68256315729559,15.858291083441145-.183789906570382.924680729385727-.621633526455298,1.681104570907337-1.271915203613389,2.389474390747637-1.496323133726037,1.629957716912031-3.094903724388132,3.157864169779714-4.626792194636437,4.751399820099323-.466547836473183.48533442707776-.947026335443297,1.161098548109294-1.828723624819759.835038750559761-2.31611473295925-5.887899831661343-4.649399168451055-11.769129153753966-6.944911559334287-17.665046793877991-5.458526891878137-14.019938139867008-10.899135068219039-28.046868095338141-16.34707071253797-42.070938915305305-3.432727276014703-8.83651596850541-6.865615376949791-17.672973251839721-10.298432262054121-26.509456591651542.327446342209441-.518978735199198.872411827682299-.699814460756897,1.403532351223475-.901676492714614,5.353717222500563-2.034770533118717,10.686632646194994-4.123158943217277,16.020996099292461-6.207892410146087,4.239259041984042-1.656751574055306,8.713042745352141-2.510370444724686,13.065130490176671-3.78138846480033,2.917264515102033-.851978047441662,5.82557321274362-1.756221850635484,8.817912309512394-2.338217105399963.651388184396637.109951763217396,1.226485879424217.304194188676775,1.214943861878055,1.127919655424193Z" fill="none" stroke="url(#linear-gradient)" stroke-linecap="round" stroke-linejoin="round" stroke-width="29.255131838457899"/>
        <path d="M142.401844267493288,60.039851402145359c-5.46558113487572,1.527575229998547-10.907485943986103,3.147223304224099-16.402591324060268,4.560006825047822-7.28285389759003,1.872411266605923-13.99599308620418,5.258055404923653-21.058690543890407,7.706335865637811-.676198271814428.234400289904443-1.359053690175642.449607011185435-2.038565136470424.673697526846809-.600198614110923-1.517544751986861-1.200646862986105-3.035062515527898-1.801092986946969-4.552582868047466-.806991280227521-.677838578005321-.968851562791315-1.700288785270459-1.295487282372051-2.601804394176725-.92724326577445-2.559189535373662-2.402566063608901-4.667231578489009-4.664876555971205-6.20707435361328-.342177155538593-.232901275441691-.660501319343894-.502280830987729-.787684146464017-.927412624107092-.020017484486743-1.183705348656076.975574518981375-1.365183232102936,1.749310984168915-1.671196812829294,3.886423585892771-1.537073159248393,7.78395247251683-3.047036806752658,11.68655096670409-4.542297559175495,12.285927260038079-4.707287374876614,24.476309258519905-9.653039636912581,36.671701412677066-14.587420398536779,9.664839562756242-3.910491161794198,19.364213597866183-7.735042864385832,29.06776085245474-11.548552215903328.866285322757903-.340450198989856,1.678487342123844-.799852344454848,2.56074061549225-1.098464827045973,1.718552346728757.25276895978277,3.191571813389601,1.046013235993087,4.559667725452528,2.070201617056227.306550870254796,1.000712615552402-.350663080680533,1.493267171726984-1.094768332388412,1.744601915952444-3.356389221567952,1.133670044106111-6.368558430405756,2.98581528116847-9.373434791747059,4.756256930988457-2.866253472411699,1.688770583841688-5.761756647867514,3.370755479571017-8.464767375780866,5.362615638030547-2.448195238250264,1.804085884719825-4.903104917901146,3.582167757547722-7.180066114831789,5.602266265679646-4.038762603240684,3.583158636562075-7.520557805739372,7.615782082384612-10.153038952525094,12.353976335860352-.569847655746344,1.02566898231089-.956481648609042,2.186543081948912-1.980669013501029,2.906847132335315Z" fill="none" stroke="url(#linear-gradient)" stroke-linecap="round" stroke-linejoin="round" stroke-width="29.255131838457899"/>
        <path d="M142.401844267493288,60.039851402145359c2.022395848513042-3.931696711853874,4.325891547840001-7.634745862151249,7.325518004676269-10.956164784218345,3.424645407121716-3.792026623385027,7.255800862019896-7.008399130238104,11.43367077044968-9.917377524598123,5.777858218811161-4.023015966200546,11.72338497211058-7.715430772921536,18.241303187876838-10.417008931770397.721283073351515-.29896114316216,1.041448057763773-.775402584939002,1.246341410039349-1.436174614565971,2.568474859134767,1.374917536004432,4.069564795779115,3.635886783089518,5.12869924109782,6.24172572408861.728486088863065,1.792284077280783,1.521654460235368,3.563509054834867,1.998469235531957,5.448945782471128-.591695611186879,1.09198728470983-1.813128614090601,1.113522707677475-2.76244540008156,1.479540412870847-4.318886616483724,1.665179463012464-8.521990748606186,3.539283684975089-12.622819710933072,5.706455738736622-4.980894348110269,2.63226520956232-10.153549510389894,4.899108447902108-15.18149317870575,7.445916580674748-4.40247891355466,2.229995655270613-8.718967238697587,4.629636964531528-13.075866027909797,6.94979128122759-.224518626941062.119566579751336-.471827105150624.196373825141563-.708493952486606.293100216778839-.244438505787002-.397199381086466-.585348987840007-.676863818231141-1.022883579555128-.838749881695549Z" fill="none" stroke="url(#linear-gradient)" stroke-linecap="round" stroke-linejoin="round" stroke-width="29.255131838457899"/>
        <path d="M161.550135575284003,149.850606521002192c3.442459970108757-2.003011517434061,6.884910511276757-4.006022105368174,10.327352552746561-6.009022337380884,4.948550799580516-.722179746620895,9.760436030604069-1.906845090832576,14.351678665531836-3.958228540426717,11.23501737162951-5.019860715667164,22.812948104441602-9.137000273738522,34.500326488574501-12.957173530243381.386062522244174-.126194817377836.814672128299208-.122303704565638,1.223274552619841-.179011745221942.291725913339178.685759411142499.58360083131447,1.37148509740291.875485178228701,2.057209854159737-.281007970143037.903978128757444-1.157466541599206.976758942444576-1.843690244380014,1.243799709518498-8.966916987891636,3.489438331478596-17.936785201592102,6.971248602323612-26.902315878750414,10.464319407128642-8.338886475909021,3.248921590322425-16.690168246892426,6.466170832381977-25.028245112283912,9.717220791892032-2.4438963565417.952904677651532-2.478659590935422,1.0659601731968-1.779623553644342,3.67912241742124.053511982232521.200076061024447.101061536901398.401092063593751.133177687876014.605675861896088.334381244192627,2.203504738456104-.144524512757926,4.294290962039668-.882640147352504,6.348544001841219-.434613529845592.903006525815726-.914218461541168,1.780352318219229-1.56035534372586,2.555539313547342-1.314667609539356,1.840815741757979-3.009525647926239,3.204775861908274-5.110564433337458,4.056541728647062-2.653253747763301,1.090576646731279-5.199334617154818,2.50830656560538-8.156561625555696,2.670964913215357-1.236838293469191-1.326791387204139-2.340735533540283-2.693319492354931-2.727865992141233-4.569962771016435-.615094340308133-2.981665665454784.734266019127972-5.197541982575785,2.579471877017568-7.25493908028875,2.042520535645963-2.27739299773566,4.550550359976114-4.027852861854626,6.889677411536468-5.966813709088456,1.024026730765399-.848836200771984,1.875455020504887-1.917722984318971,3.111417917039944-2.503786285600654Z" fill="none" stroke="url(#linear-gradient)" stroke-linecap="round" stroke-linejoin="round" stroke-width="29.255131838457899"/>
        <path d="M166.098617551248026,160.940274914868496c.728447119428893-2.049959094956648,1.190748228818848-4.138918075546826.928793850631337-6.333981641830178.435009139071553-.559330821271942,1.070456762123285-.800131392761614,1.696509105062432-1.041785649100348,16.691785685340619-6.442906434258475,33.356541320768883-12.955456642623176,50.039175481408165-19.421950784522778,5.303761723112984-2.055834881643023,10.605826551498467-4.116328119416721,15.907999198934704-6.17640367511558.661010009029269-.256836093081802,1.319304471295254-.677875857170875,2.055055064854969-.191507915573311.069850465950367.521497465026187.139700931898915,1.042994930054192.209581543195782,1.564508459396166-.126703580522189,1.801516306953999-.373743483242833,3.569075599207281-1.441404499703822,5.105093052683515-1.171925512533562.904933630172309-2.624392215157059,1.175563762715683-3.957083788942327,1.6967792375508-20.968261678279305,8.200667628130759-41.967265128754661,16.322529845889221-62.948955330382887,24.488866755658819-.782748493991676.304653352599416-1.578282283988301.878090038142545-2.489670625058352.310382160852896Z" fill="none" stroke="url(#linear-gradient)" stroke-linecap="round" stroke-linejoin="round" stroke-width="29.255131838457899"/>
        <path d="M236.726150252139632,127.774645248726301c-3.074731540256835.868381529937324-5.982394538637891,2.187504479348718-8.952722086218273,3.335008290956466-9.024006931027543,3.486204970162362-18.036287834564064,7.002701525949306-27.053291497380997,10.507023721052974-9.736205123324908,3.783836862945464-19.471122462420681,7.570982781269777-29.210443204285184,11.346779478524695-1.483514496803764.575126480505787-2.987813594814725,1.096640527208365-4.482399992413775,1.642895749391755-.111183155340768-.341130148648517-.223267116089119-.681933545612992-.333645750401047-1.023304810092668-.717271764066027-2.218489298207714-.471065150180948-2.676220398818259,1.73075715455343-3.533552712648088,16.561079805664122-6.44848643347359,33.118497301504249-12.906405878818987,49.675879076472484-19.364397946963436,1.580144336523517-.616309160814126,3.1522246825607-1.253286508104793,4.728009564063541-1.880692235834431,3.638961242799269-1.388910813675466,7.277422939048847-2.779219121050119,10.91715449088224-4.166207087630028q2.3101030648304-.880284852612021,2.894135161475788,1.569225675466441c.028876766036774.522395697335014.057716745546713,1.044804539102188.086567083251794,1.567221877776319Z" fill="none" stroke="url(#linear-gradient)" stroke-linecap="round" stroke-linejoin="round" stroke-width="29.255131838457899"/>
        <path d="M88.718146613609861,56.603167783721801c4.523510079447078-1.794073152328565,9.04146026100716-3.602317827553634,13.571819699900516-5.378929602991775,6.959988354446978-2.729404422390871,13.924809226729849-5.446583436947549,20.894199534543077-8.151912055625871,13.149402932818703-5.104246290526135,26.299227215778956-10.207502007469884,39.459300982733112-15.28414474303645,2.637916925537866-1.017604053984542,5.192258158325785-2.278044909582604,8.009745163282787-2.803272346787708.977115241117644-.182150912745783,1.932654469514091-.319900436468743,2.912700391363614-.099050783108396.42600232465702,1.300552672868434-.616704446802032,1.580686230070569-1.420468636692021,1.920648525418073-2.138770920841125.904620778710523-4.324900936066115,1.692731249975623-6.477135910870857,2.568552105041817-7.256930671368536,2.953098830637828-14.543217975719017,5.833137542498662-21.79520299394062,8.799754299287088-11.30257421962051,4.623615570795664-22.580369764125862,9.308281980354877-34.004290074561141,13.634495649992459-4.823125371875904,1.826507400714036-9.629962036415236,3.706532671412788-14.423856454366614,5.614507175669132-.717317199630997.285494214642313-1.301095717344651.868489976517594-2.113365985038399.925208566943184-1.544805125311541-.290648733523994-3.139804938409725-.365867812361103-4.600012133649216-1.038885786041646-.150991131640694-.232662345195422-.175267730448468-.46818156721929-.013433582704238-.706971004759907Z" fill="none" stroke="url(#linear-gradient)" stroke-linecap="round" stroke-linejoin="round" stroke-width="29.255131838457899"/>
        <path d="M161.550140289752562,149.850606056254037c-1.794746909276,2.227468753511857-4.175612242465832,3.796923832200264-6.332687152004837,5.615352808901662-1.771002114541261,1.492954381967138-3.481725896232092,3.009558059948176-4.793997057715387,4.964886797930376-1.684786112964503,2.51042153542403-1.652986580353172,5.535377876116399.214482788029272,7.891128453375131.434847044507478.54855402031535,1.09032915510943.995368450876413,1.059506713017981,1.824199770675477-6.154391856614893.793327953218977-12.040803174993925-2.692831258287697-14.288809930058051-8.467613300148514-.316637440248087-.813395922388736-.610601998019774-1.635632437912136-.915518268722735-2.45350561934174,1.378064426626224-.409111623766876,2.061164674063548-1.655067798257733,2.992899379536539-2.57271085672437,1.706046468425484-1.680233237706489,3.509700560627607-3.29384928161744,4.734072208302678-5.402985489317871.398433120884874,1.712237929954426,2.029608300175823,1.418889095710256,2.841283300153009,1.144011943593796,3.080473733312829-1.043270112844766,6.322316612673603-.653910161807289,9.426304675804204-1.378731552558747,1.683685779024017-.393162981286878,3.301786130317851-1.105833681227523,5.062463343657328-1.164032956385199Z" fill="none" stroke="url(#linear-gradient)" stroke-linecap="round" stroke-linejoin="round" stroke-width="29.255131838457899"/>
        <path d="M166.098616621993642,160.940265488454315c2.780658683328511-.605800667148287,5.318038172716115-1.89150498543313,7.951186734726434-2.897311937624181,9.843530863890919-3.760075998845423,19.656911327863781-7.599139439666033,29.476673593648229-11.421271252014776,9.724543068225103-3.785085760840957,19.442773099433907-7.586405595560791,29.164890916726108-11.377743564667981.908286895591118-.354196765796587,1.799018852009795-.777629319407424,2.80301600221901-.799697550366545-.247558591982852,1.2373996558199-1.050049635968207,2.120486602074379-1.899510395657671,2.973586777628952-7.998622237439122,3.082506868489872-15.971816646599109,6.230380060882453-23.965358916062542,9.325787518024299-13.968940697106518,5.409316369623411-27.9280175834283,10.843844437262305-41.894778813042649,16.258561586679207-.903174147249956.35014253105328-1.891429044524557,1.284721852700386-2.973578493867535.266769820611444.445816647452375-.776226822923491.891633294908388-1.552453645846981,1.337459371310615-2.328681398270419Z" fill="none" stroke="url(#linear-gradient)" stroke-linecap="round" stroke-linejoin="round" stroke-width="29.255131838457899"/>
        <path d="M164.76116289440688,163.268955848387122c1.267922007710695.335366546023579,2.285822997771902-.438035114833838,3.34703995570635-.845532058010576,9.895609306753613-3.799760289748519,19.772019396563337-7.64960582677304,29.648614186276973-11.498736684006872,10.404735297448497-4.054977469430014,20.793487765144164-8.151267548713804,31.216403262886161-12.15886713204236,1.485503714478909-.57117272085452,2.871166015114795-1.633046199800447,4.621726611034319-1.347923108136456-1.15755785294823,1.522074290809542-2.70516450685227,2.552759943209821-4.444390739497976,3.231142188202284-19.337072945623731,7.542586968140313-38.683567249188854,15.06107030165731-58.033411940104997,22.570870351612029-3.741312075362657,1.452025420985592-7.508060274081799,2.838552083534523-11.263111525000568,4.255268500168313,1.790156308841688-1.221970510465326,3.52813406680616-2.504795214550541,4.907130188699739-4.206222057786363Z" fill="none" stroke="url(#linear-gradient)" stroke-linecap="round" stroke-linejoin="round" stroke-width="29.255131838457899"/>
        <path d="M88.778204535279656,57.212882276226082c1.481263284098532.204595028484619,2.969221790867778.374179512627961,4.400391494910764.840753998270884.538153026979671.072505937623646,1.038619146517703.221178203486488,1.38354751578936.684184777239352,3.770116183772188,2.157018664887801,5.437994210979014,5.732062720855538,6.538881413838681,9.689480561932214-2.477035810521556.905188288956197-4.953953526901387,1.810367315723852-7.430869832354801,2.715548582909832-.85547591386603.138675762742423-1.008558313878893-.58183826754248-1.237590549279048-1.096733335889439-1.745773233102227-3.924716808593075-4.166985382265921-7.34723543601649-7.408822203489763-10.182917238240407-.461741680552223-.403889149727547-.954553976333045-.86113342270437-.506143231605165-1.585036054493685.618218811476254-.48507632500332,1.375618963691522-.627827819587765,2.099422487373886-.853210318631682.707731337786754-.199731795246407,1.397884228306793-.57861352427426,2.161182904816087-.21207097309707Z" fill="none" stroke="url(#linear-gradient)" stroke-linecap="round" stroke-linejoin="round" stroke-width="29.255131838457899"/>
        <path d="M84.517599143089683,58.278163567954834c.166214966600819,1.544374567432897,1.647953750483794,2.03541271488757,2.524016901872528,2.95817239067037,2.298987341466272,2.421521925241905,4.068927805426938,5.139122591253908,5.491439265571898,8.12709813019319.300541486059956.631284890625466.41450300593533,1.407757085156845,1.137028255830955,1.779354156598856-2.053472323799724,1.020587882720065-4.215303499338916,1.762364829281069-6.386487956420751,2.480064743327603-.802591135628973-.70689778558517-1.019026380241485-1.767236919298739-1.578804368931742-2.625691151908541-1.630345434679839-2.500233478320297-3.668216093115916-4.43172191712074-6.649401134871368-5.197592607986735-.508159042421539-.130545893920498-1.182159418891388-.189324518651119-1.101248162713091-1.010251395862724,1.127285804577696-3.23887476474556,3.325471260401173-5.39881539592534,6.56345719966157-6.511154265032019Z" fill="none" stroke="url(#linear-gradient)" stroke-linecap="round" stroke-linejoin="round" stroke-width="29.255131838457899"/>
        <path d="M77.954141943428112,64.789317832986853c.241496646613086.471668070331361.695833977615621.518590465670059,1.150559634779711.643724593941442,4.274365239425606,1.176266795995616,6.793464274927828,4.121082409692463,8.178890280618361,8.189796654573001-2.373194372288708.947681447623836-4.745252569437071,1.898220513292472-7.120462004764704,2.840822863840003-.534785696008839.212231540899666-1.016266875923975.190809190056825-1.281196072735838-.425059771579981-1.484467861238954-3.450856380875848-2.588888860322186-6.946018776505298-1.20839048979542-10.718845527222584.068100529988442-.186113717612898.185927585696845-.354041130827682.28059865189789-.530438813551882Z" fill="none" stroke="url(#linear-gradient)" stroke-linecap="round" stroke-linejoin="round" stroke-width="29.255131838457899"/>
        <path d="M94.562143545979779,58.737821051736319c-.461008675754783-.228149320462762-.922017351515024-.456298640927344-1.383286887684335-.684317547618775,9.826385700388528-3.832374153302226,19.688442970659707-7.577293955862842,29.466954703067131-11.528866173022834,6.287711410528573-2.540914191471529,12.537118705724424-5.189347757830546,18.811508811855674-7.761042308415199,6.94066715963163-2.844781963507558,13.801965635813758-5.897209289068996,20.871139142378524-8.436106750305044,3.384570024085406-1.215568716950656,6.674541627861799-2.693461559138086,10.015104645321117-4.033258204155572.670418753089507-.268883774402639,1.201157925333973-.603086308847196,1.222350542842833-1.408446904912125.880276882589897-.157956376722723,1.706844318678122.063114142856648,2.523039862813675.357253320307791-.369655783530106.87865737501852-1.25371136243848,1.051399956186287-1.990158117765532,1.345558572531445-10.264556738884494,4.099958044296727-20.546298626008138,8.156837435270063-30.813847076685306,12.249336190738177-11.842389356967942,4.720208803617425-23.626804511441151,9.586042594737592-35.562640989174724,14.071058512885429-3.945358256363761,1.482507752207312-7.86415480915457,3.036982634052038-11.774741243985773,4.609165470270455-.553808400332855.222646837615684-1.410834293591506.268941215877931-1.385423392983284,1.219665821696253Z" fill="none" stroke="url(#linear-gradient)" stroke-linecap="round" stroke-linejoin="round" stroke-width="29.255131838457899"/>
        <path d="M88.778204535279656,57.212882276226082c-.720450731776509.070705405256376-1.440900052615689.141413050931078-2.161267550076445.212093594434918.643433434515828-.41969374238397,1.333267600364707-.720562921596866,2.101209163778549-.82181280014629.020020087285957.203242053110444.040039942257863.406481749618251.060058386297897.609719205711372Z" fill="none" stroke="url(#linear-gradient)" stroke-linecap="round" stroke-linejoin="round" stroke-width="29.255131838457899"/>
        <g>
          <path d="M184.425080265500583,67.50238818564867c.38575109253361.593406550642612,1.160559671132432.806540379111539,1.410076204852885,1.562294229246618.492008576711669,1.490233768034159-.084420190238234,2.596313448637375-1.88618523544028,3.301205702109655-6.559229522881651,2.56612308716285-13.122977149248982,5.120795581009588-19.691166185899419,7.663928705711442-4.312444165700072,1.669731610007148-8.635458367984029,3.312198370953411-12.953736974068306,4.966877391354501-1.060569846138605-1.196238406682824-1.597731250229117-2.642918155939697-1.992462433161563-4.157748284127592,6.242093482309429-2.455620884771633,12.481464286891423-4.918179015734495,18.727178077557255-7.364570700259719,4.628855547271087-1.813081897927987,9.266596609493718-3.603491103962369,13.897427103860537-5.411562789886375.227918684056931-.088990140835449.427491827816993-.250467361120172.640266100969711-.378189998173184.616201157178693-.060744311660528,1.232402249251209-.121489283817937,1.848603341329181-.182234255975345Z" fill="none" stroke="url(#linear-gradient)" stroke-linecap="round" stroke-linejoin="round" stroke-width="29.255131838457899"/>
          <path d="M158.681952093946165,106.692290920425876c5.059199351613643-2.006136025383967,10.112003110476508-4.028562840989252,15.179249397251624-6.014200644576704,6.079698871191795-2.382378293799775,12.170189227717856-4.737291856688898,18.259189189739118-7.095911784062992,2.169685400600429-.840441116992224,3.794078323087888.01123341429593,3.81278981939613,1.984733276587576.012082312410712,1.27405019667458-.752783562431432,1.934585816277831-1.854094738913773,2.361702316238734-8.581271270220896,3.328025985803833-17.156333805220129,6.672036320442203-25.738229010152281,9.998452079738854-2.537274729189448.983465033574248-5.090263114097979,1.926443901676976-7.636051737412345,2.887972341350178-.524250690926237-1.447748556787701-.768430137479299-3.032708194226871-2.022852919908473-4.122747585275647Z" fill="none" stroke="url(#linear-gradient)" stroke-linecap="round" stroke-linejoin="round" stroke-width="29.255131838457899"/>
          <path d="M149.311605641783899,80.838945929943293c1.05716573303107,1.197869873576565,1.421022031421671,2.727474233333851,1.992462780421192,4.157751806778833-7.268684044637666,2.839126829772795-14.532185915933951,5.691625306779315-21.809529906118769,8.508411414095463-1.92868875620843.746523064819485-3.57053305390491-.429710879885533-3.403680746087048-2.359896040077729.096869520006294-1.120607410306548.805655973777903-1.712469432211947,1.790885626438467-2.091619405251549,5.947821068662961-2.288929469603318,11.890941186111377-4.590056829554669,17.838127920220359-6.880635811765387,1.19171873428968-.458994449774764,2.39421005242184-.890065838995724,3.591734325125799-1.334011963779631Z" fill="none" stroke="url(#linear-gradient)" stroke-linecap="round" stroke-linejoin="round" stroke-width="29.255131838457899"/>
          <path d="M158.681952093946165,106.692290920425876c1.289527652044853.465073166396905,2.311110107179047,2.547152239541902,2.022851032306789,4.122752513860178-6.972343840030589,2.729977527878873-13.940574807711528,5.470533256804629-20.919512585071061,8.183580338702086-2.133634293650175.829443841206739-3.770733058570841-.115052898783688-3.723042159241231-2.095535005746569.030677822935104-1.273949799960974.843664839328994-1.864226436980971,1.944872407879302-2.286428970646739,6.13326722372949-2.351471347885308,12.25298836582806-4.738198141738394,18.37988565669184-7.106301898662423.757245682042594-.292683523965025,1.529594476999591-.546331183883012,2.294945647434361-.818066977506533Z" fill="none" stroke="url(#linear-gradient)" stroke-linecap="round" stroke-linejoin="round" stroke-width="29.255131838457899"/>
          <path d="M172.193291269601104,91.633808056902126c-7.278213063447765,2.861835492984028-14.525904718993843,5.802676743724078-21.889248179026254,8.444149528844719-1.247947145482613-1.137197012993056-1.659039897685943-2.605668663902179-1.676813281435898-4.229835431529864,7.427671605286378-3.050628590550332,14.90763676271672-5.966679030429077,22.453720165893174-8.71257357925424.822951215712237-.176865723256924,1.497616583554191.287414450151118,2.164612567587028.599788171111868.905289706246549.423971914195135,1.113851780844925,1.439436362332344.456327207819413,2.174406858126531-.509107676929489.569077316487892-.834079969525192,1.302714817233209-1.508598480837463,1.724064452700986Z" fill="none" stroke="url(#linear-gradient)" stroke-linecap="round" stroke-linejoin="round" stroke-width="29.255131838457899"/>
          <path d="M159.213956714142114,121.224237142079801c5.863486204410947-2.315272815099888,11.716789185769812-4.656920265431836,17.598366701331543-6.925356332310912,1.300261872554984-.501490750011726,2.605253864836413.20775539688475,3.017868649613774,1.397547175591171.426444647137942,1.229683505654975-.108936002442533,2.523286108125831-1.406741281199174,3.030050223746002-5.733011109512518,2.238647596161172-11.483445697334901,4.432730665428608-17.227570953557006,6.642951783271201-.845126585762046-1.293660396107953-1.474373247367112-2.690377244078263-1.981923116189137-4.145192850297462Z" fill="none" stroke="url(#linear-gradient)" stroke-linecap="round" stroke-linejoin="round" stroke-width="29.255131838457899"/>
          <path d="M159.213956714142114,121.224237142079801c1.129279564296667,1.158007965779689,1.678930387811306,2.592724216501665,1.981923116189137,4.145192850297462-5.601388284598215,2.203206988640886-11.196437925435021,4.422753064085555-16.808781297440873,6.59772656469795-1.342869888434507.520407039572092-2.68115058733747-.025644906880189-3.154151882920814-1.138592795701697-.532163876309824-1.252151015387426-.130103212090944-2.651439227438459,1.12681219768001-3.144056660225033,5.601581558397811-2.195419874358777,11.233342449266274-4.313955738851291,16.854197866492541-6.460269959068683Z" fill="none" stroke="url(#linear-gradient)" stroke-linecap="round" stroke-linejoin="round" stroke-width="29.255131838457899"/>
          <path d="M172.193291269601104,91.633808056902126c.404565016768174-.673580513628622.473347171804562-1.468693820519547,1.25591431018529-2.020981452895285.771268225037602-.544306637206319.260691829925236-1.442330957634113-.454609156196966-1.594694430970776-.748640956991039-.159465288574211-1.263237365966233-.62747550012682-1.913601243543781-.882558413703009,5.531927513298797-2.188798818213399,11.054811240855997-4.401009081106167,16.602364705860964-6.54960949472661,1.360444279776857-.526906924877039,2.664333816472208.069071148820512,3.109057548297642,1.213943413647939.530947688699598,1.366817873637046-.039513022460596,2.668025983810367-1.50498683947626,3.237702921724122-5.69254048867333,2.212868560771312-11.395229901681887,4.399686338158062-17.094139325126889,6.596197456923619Z" fill="none" stroke="url(#linear-gradient)" stroke-linecap="round" stroke-linejoin="round" stroke-width="29.255131838457899"/>
          <path d="M148.627229809138953,95.848122154216981c.558938621186826,1.409945849414726,1.117877242373652,2.819891698825813,1.676815632054058,4.229835199806985-5.299052347267207,2.088680253102211-10.59086185569322,4.196022022661055-15.90196825030398,6.253627283371316-1.423692879030568.551555928881498-2.745400382926164-.029865625951061-3.192004226852077-1.251301732525462-.496484079412767-1.357855128990195.08077865424093-2.653011276855977,1.587419536575908-3.190715255354007,4.708320838434702-1.680342314866721,9.226604206497541-3.867389769515285,14.052152150847178-5.239052866883867.609164086004967-.173155324460822,1.066695343247375-.786207116247169,1.777585157678914-.802392628414964Z" fill="none" stroke="url(#linear-gradient)" stroke-linecap="round" stroke-linejoin="round" stroke-width="29.255131838457899"/>
        </g>
      </g>
      <g>
        <path d="M236.639609597217714,126.207401729614503c.087085554083387-.020948782073901.174471162683403-.022339060265949.262174754443549-.00418212000659l.304497892107975,3.088847142202212c-.089822471894877.017715955838867-.179995596507069.033420104853576-.270510874135653.047102091126362-.538314291204188-.372807336030746-.553604565175192-.957295902400801-.619833879096404-1.522219375980058-.049266860813077-.567756826916593-.146537894157518-1.146248193686915.323672106680533-1.609547737341927Z" fill="#fff"/>
        <path d="M188.927064060386328,41.726306326421764c2.161601723410058,5.506189845571498,4.334361599128897,11.008034078375204,6.482476427157962,16.519477262565488,4.335307534621279,11.123092202120461,8.657082423009342,22.251456529997085,12.984707107445502,33.377545219831518,4.420859699543144,11.365793799868698,8.842763633602772,22.731170564693457,13.259249316432033,34.098661450731015.128431955465203.330578007902659.200673280218325.68298060676716.299112489759864,1.025214762565156-.845814780033834.760768137661216-1.954453036632913.922482709289397-2.975014104780712,1.248885367309413-11.63871246724193,3.722403770807432-23.053257639860021,8.030796378056039-34.222387696632723,12.989090678112916-3.525359095438034,1.564997998904801-7.319780401732714,2.190479232533107-11.035533367659809,3.082029247749233-.642754405009327.154221601847894-1.337290968371235.20781220428762-1.971541030567096-.149608078048914-1.027037718949941-.990167048257717-1.37446317254944-2.28826926261172-1.589358891395023-3.625258615595158-.543304175475896-3.380237883788141-.479399680474671-6.804267852587145-.583585687956656-10.207967878001-.074218853154889-2.4244422061347-.190794136351542-4.851485753992165-.273617653414476-7.274556223150284-.225794474267786-6.605261621558384-.462232703003792-13.211196745520283-.735162378283349-19.814514906429395-.17698443653444-4.281823076895307-.370868179294121-8.566063453956303-.529101553079272-12.848221641590499-.221173826194899-5.985299329886402-.487113238071288-11.969631200783624-.648184546907032-17.957933392161067-.097164050919673-3.612446626615565-.179762314412073-7.234847772488138-.441534402154502-10.83249031781088-.166914146877389-2.293899611486268,1.075275615243299-3.676480646587152,2.23445474925029-5.22238131728227,2.739412270193498-3.653332863901596,5.98691446099474-6.831451273359562,9.356024793471079-9.893561846911325.542567268155835-.493132983039686,1.122223858701545-.909226078634674,1.791659664611871-1.206430636069854,2.644934741440011-1.174240877378907,5.451574902856009-1.963540335067592,8.003054810887988-3.361752782908297.186676664376137-.102303883582863.402867991724634-.042831791886783.594281953814061.053773647094204Z" fill="#fff2df"/>
        <path d="M188.927064060386328,41.726306326421764c-2.019291915688882,1.585158581572614-4.542894359598904,2.073141626493452-6.824457692644501,3.081071766424429-1.373151180114291.606618729563706-2.620817172193711,1.238001707362855-3.785087799873509,2.249753371823317-3.976527869575875,3.455615268167094-7.312771817885732,7.461783382192152-10.506414617711926,11.61022974768639-.254756288726639.330923013363645-.54399014433875.656305018525018-.463636255377423,1.107323591430031.237553664841471,1.333308998608118.022616081686465,2.673309459027223.082632107712925,4.005866899164175.201488713008075,4.47293257270394.547359928985315,8.941259425339013.659182622225671,13.415821355714797.127195008856688,5.089628563280712.367493904880575,10.172780716853595.553796306433469,15.258776389367995.188209723490218,5.137890249314296.407030129495979,10.274352413263841.595182431061403,15.411853325429547.191948688603588,5.241201444350736.321689383026751,10.482976816369046.615926581962412,15.721661506337114.265058987806697,4.719412065212964.330274302868929,9.44995845989979.491451296784362,14.175328081331827.072803960651072,2.134167888947559.451345391564246,4.195355639621994,1.531831158428758,6.077603107911273.142772566845451.480396118036879-.241293296623553.645484609420237-.534944745568282.812672415147972-3.137081987351849,1.786154369456199-6.294655631392743,3.536637446652094-9.366500524827643,5.435374067403245-.173818147753991.107432402555787-.388481337269695.135846584476894-.592543510036194.178311298632252-2.759569414443831.655356944822415-5.499779483627208,1.403662027283644-8.329597398500482,1.699500321199594-2.092964903897155.218802156541642-4.17967480765401.378547059595803-6.251303022736465.860436896435203-1.602073591951921.37265858237879-2.471459178332225-.286432080041777-3.030298334742838-1.653343398036668-.573291478825922-5.084271830730358-.529076855229505-10.198274322958241-.728263340234662-15.299846778974825-.086516143260269-2.215946523219827-.17812295414933-4.434037218808953-.265447497466994-6.649009356333409-.262125788744015-6.64926066551925-.446979588037721-13.302112665212917-.750402661855333-19.948349235277419-.277640466063531-6.081394821956565-.5087864646448-12.165631261112139-.738643042108379-18.247700968538993-.225945649182904-5.978366189665394-.382025430737485-11.964419255251414-.684881414823394-17.936636102382181-.217567746989516-4.290195807563578,1.030446732502242-8.137064096328686,2.464104747214151-12.012645798007725.470758527844737-.732932470637024,1.252874990734199-1.044721519647283,1.975548026066463-1.436638811774174,6.306155776168453-3.419930914227734,12.669069174344258-6.739752242754548,19.102455492133231-9.904695416917093,7.579681388469908-3.728872747207788,15.025496286449197-7.773529774492999,23.032228542386292-10.582448294455389.195825850611982-.068695850870427.389865977114823-.133679721369845.597059631176307-.153022152902849.383674343696839.907584450153081.767348571229377,1.815167722006663,1.151022914922578,2.722752172161563Z" fill="#ffe9d1"/>
        <path d="M143.424762242240831,60.878612170195993c-.671829332246489,2.690594110361417-1.606191764500181,5.303362721728263-2.243815899893889,8.011607815640673-.478570289486015,2.032669442072802-.053634913409041,4.010174672272115-.014908142722561,5.973707736253346.053486011667701,2.711693485794967.184386097913375,5.449920437989931.335163554847895,8.171568205971198.317844570263333,5.737276545451095.344215132352474,11.490327753499514.523914950552353,17.23584965738155.05942324683383,1.900020683802722.252864295754989,3.788514610645507.28037486798894,5.698872102484529.063620642609749,4.418360284302253.481927482746869,8.83046202436708.607944988279996,13.24934337058221.153814322880862,5.393603625354444.410325380169525,10.781395091167724.624092968564582,16.171544185310267.209676828104421,5.286939205139788.232447325071917,10.581186550274651.68256315729559,15.858291083441145-.183789906570382.924680729385727-.621633526455298,1.681104570907337-1.271915203613389,2.389474390747637-1.496323133726037,1.629957716912031-3.094903724388132,3.157864169779714-4.626792194636437,4.751399820099323-.466547836473183.48533442707776-.947026335443297,1.161098548109294-1.828723624819759.835038750559761-2.31611473295925-5.887899831661343-4.649399168451055-11.769129153753966-6.944911559334287-17.665046793877991-5.458526891878137-14.019938139867008-10.899135068219039-28.046868095338141-16.34707071253797-42.070938915305305-3.432727276014703-8.83651596850541-6.865615376949791-17.672973251839721-10.298432262054121-26.509456591651542.327446342209441-.518978735199198.872411827682299-.699814460756897,1.403532351223475-.901676492714614,5.353717222500563-2.034770533118717,10.686632646194994-4.123158943217277,16.020996099292461-6.207892410146087,4.239259041984042-1.656751574055306,8.713042745352141-2.510370444724686,13.065130490176671-3.78138846480033,2.917264515102033-.851978047441662,5.82557321274362-1.756221850635484,8.817912309512394-2.338217105399963.651388184396637.109951763217396,1.226485879424217.304194188676775,1.214943861878055,1.127919655424193Z" fill="#fedfc1"/>
        <path d="M142.401844267493288,60.039851402145359c-5.46558113487572,1.527575229998547-10.907485943986103,3.147223304224099-16.402591324060268,4.560006825047822-7.28285389759003,1.872411266605923-13.99599308620418,5.258055404923653-21.058690543890407,7.706335865637811-.676198271814428.234400289904443-1.359053690175642.449607011185435-2.038565136470424.673697526846809-.600198614110923-1.517544751986861-1.200646862986105-3.035062515527898-1.801092986946969-4.552582868047466-.806991280227521-.677838578005321-.968851562791315-1.700288785270459-1.295487282372051-2.601804394176725-.92724326577445-2.559189535373662-2.402566063608901-4.667231578489009-4.664876555971205-6.20707435361328-.342177155538593-.232901275441691-.660501319343894-.502280830987729-.787684146464017-.927412624107092-.020017484486743-1.183705348656076.975574518981375-1.365183232102936,1.749310984168915-1.671196812829294,3.886423585892771-1.537073159248393,7.78395247251683-3.047036806752658,11.68655096670409-4.542297559175495,12.285927260038079-4.707287374876614,24.476309258519905-9.653039636912581,36.671701412677066-14.587420398536779,9.664839562756242-3.910491161794198,19.364213597866183-7.735042864385832,29.06776085245474-11.548552215903328.866285322757903-.340450198989856,1.678487342123844-.799852344454848,2.56074061549225-1.098464827045973,1.718552346728757.25276895978277,3.191571813389601,1.046013235993087,4.559667725452528,2.070201617056227.306550870254796,1.000712615552402-.350663080680533,1.493267171726984-1.094768332388412,1.744601915952444-3.356389221567952,1.133670044106111-6.368558430405756,2.98581528116847-9.373434791747059,4.756256930988457-2.866253472411699,1.688770583841688-5.761756647867514,3.370755479571017-8.464767375780866,5.362615638030547-2.448195238250264,1.804085884719825-4.903104917901146,3.582167757547722-7.180066114831789,5.602266265679646-4.038762603240684,3.583158636562075-7.520557805739372,7.615782082384612-10.153038952525094,12.353976335860352-.569847655746344,1.02566898231089-.956481648609042,2.186543081948912-1.980669013501029,2.906847132335315Z" fill="#ffe4bd"/>
        <path d="M142.401844267493288,60.039851402145359c2.022395848513042-3.931696711853874,4.325891547840001-7.634745862151249,7.325518004676269-10.956164784218345,3.424645407121716-3.792026623385027,7.255800862019896-7.008399130238104,11.43367077044968-9.917377524598123,5.777858218811161-4.023015966200546,11.72338497211058-7.715430772921536,18.241303187876838-10.417008931770397.721283073351515-.29896114316216,1.041448057763773-.775402584939002,1.246341410039349-1.436174614565971,2.568474859134767,1.374917536004432,4.069564795779115,3.635886783089518,5.12869924109782,6.24172572408861.728486088863065,1.792284077280783,1.521654460235368,3.563509054834867,1.998469235531957,5.448945782471128-.591695611186879,1.09198728470983-1.813128614090601,1.113522707677475-2.76244540008156,1.479540412870847-4.318886616483724,1.665179463012464-8.521990748606186,3.539283684975089-12.622819710933072,5.706455738736622-4.980894348110269,2.63226520956232-10.153549510389894,4.899108447902108-15.18149317870575,7.445916580674748-4.40247891355466,2.229995655270613-8.718967238697587,4.629636964531528-13.075866027909797,6.94979128122759-.224518626941062.119566579751336-.471827105150624.196373825141563-.708493952486606.293100216778839-.244438505787002-.397199381086466-.585348987840007-.676863818231141-1.022883579555128-.838749881695549Z" fill="#ffeac8"/>
        <path d="M161.550135575284003,149.850606521002192c3.442459970108757-2.003011517434061,6.884910511276757-4.006022105368174,10.327352552746561-6.009022337380884,4.948550799580516-.722179746620895,9.760436030604069-1.906845090832576,14.351678665531836-3.958228540426717,11.23501737162951-5.019860715667164,22.812948104441602-9.137000273738522,34.500326488574501-12.957173530243381.386062522244174-.126194817377836.814672128299208-.122303704565638,1.223274552619841-.179011745221942.291725913339178.685759411142499.58360083131447,1.37148509740291.875485178228701,2.057209854159737-.281007970143037.903978128757444-1.157466541599206.976758942444576-1.843690244380014,1.243799709518498-8.966916987891636,3.489438331478596-17.936785201592102,6.971248602323612-26.902315878750414,10.464319407128642-8.338886475909021,3.248921590322425-16.690168246892426,6.466170832381977-25.028245112283912,9.717220791892032-2.4438963565417.952904677651532-2.478659590935422,1.0659601731968-1.779623553644342,3.67912241742124.053511982232521.200076061024447.101061536901398.401092063593751.133177687876014.605675861896088.334381244192627,2.203504738456104-.144524512757926,4.294290962039668-.882640147352504,6.348544001841219-.434613529845592.903006525815726-.914218461541168,1.780352318219229-1.56035534372586,2.555539313547342-1.314667609539356,1.840815741757979-3.009525647926239,3.204775861908274-5.110564433337458,4.056541728647062-2.653253747763301,1.090576646731279-5.199334617154818,2.50830656560538-8.156561625555696,2.670964913215357-1.236838293469191-1.326791387204139-2.340735533540283-2.693319492354931-2.727865992141233-4.569962771016435-.615094340308133-2.981665665454784.734266019127972-5.197541982575785,2.579471877017568-7.25493908028875,2.042520535645963-2.27739299773566,4.550550359976114-4.027852861854626,6.889677411536468-5.966813709088456,1.024026730765399-.848836200771984,1.875455020504887-1.917722984318971,3.111417917039944-2.503786285600654Z" fill="#ffeece"/>
        <path d="M166.098617551248026,160.940274914868496c.728447119428893-2.049959094956648,1.190748228818848-4.138918075546826.928793850631337-6.333981641830178.435009139071553-.559330821271942,1.070456762123285-.800131392761614,1.696509105062432-1.041785649100348,16.691785685340619-6.442906434258475,33.356541320768883-12.955456642623176,50.039175481408165-19.421950784522778,5.303761723112984-2.055834881643023,10.605826551498467-4.116328119416721,15.907999198934704-6.17640367511558.661010009029269-.256836093081802,1.319304471295254-.677875857170875,2.055055064854969-.191507915573311.069850465950367.521497465026187.139700931898915,1.042994930054192.209581543195782,1.564508459396166-.126703580522189,1.801516306953999-.373743483242833,3.569075599207281-1.441404499703822,5.105093052683515-1.171925512533562.904933630172309-2.624392215157059,1.175563762715683-3.957083788942327,1.6967792375508-20.968261678279305,8.200667628130759-41.967265128754661,16.322529845889221-62.948955330382887,24.488866755658819-.782748493991676.304653352599416-1.578282283988301.878090038142545-2.489670625058352.310382160852896Z" fill="#fcc8ae"/>
        <path d="M236.726150252139632,127.774645248726301c-3.074731540256835.868381529937324-5.982394538637891,2.187504479348718-8.952722086218273,3.335008290956466-9.024006931027543,3.486204970162362-18.036287834564064,7.002701525949306-27.053291497380997,10.507023721052974-9.736205123324908,3.783836862945464-19.471122462420681,7.570982781269777-29.210443204285184,11.346779478524695-1.483514496803764.575126480505787-2.987813594814725,1.096640527208365-4.482399992413775,1.642895749391755-.111183155340768-.341130148648517-.223267116089119-.681933545612992-.333645750401047-1.023304810092668-.717271764066027-2.218489298207714-.471065150180948-2.676220398818259,1.73075715455343-3.533552712648088,16.561079805664122-6.44848643347359,33.118497301504249-12.906405878818987,49.675879076472484-19.364397946963436,1.580144336523517-.616309160814126,3.1522246825607-1.253286508104793,4.728009564063541-1.880692235834431,3.638961242799269-1.388910813675466,7.277422939048847-2.779219121050119,10.91715449088224-4.166207087630028q2.3101030648304-.880284852612021,2.894135161475788,1.569225675466441c.028876766036774.522395697335014.057716745546713,1.044804539102188.086567083251794,1.567221877776319Z" fill="#fcc298"/>
        <path d="M88.718146613609861,56.603167783721801c4.523510079447078-1.794073152328565,9.04146026100716-3.602317827553634,13.571819699900516-5.378929602991775,6.959988354446978-2.729404422390871,13.924809226729849-5.446583436947549,20.894199534543077-8.151912055625871,13.149402932818703-5.104246290526135,26.299227215778956-10.207502007469884,39.459300982733112-15.28414474303645,2.637916925537866-1.017604053984542,5.192258158325785-2.278044909582604,8.009745163282787-2.803272346787708.977115241117644-.182150912745783,1.932654469514091-.319900436468743,2.912700391363614-.099050783108396.42600232465702,1.300552672868434-.616704446802032,1.580686230070569-1.420468636692021,1.920648525418073-2.138770920841125.904620778710523-4.324900936066115,1.692731249975623-6.477135910870857,2.568552105041817-7.256930671368536,2.953098830637828-14.543217975719017,5.833137542498662-21.79520299394062,8.799754299287088-11.30257421962051,4.623615570795664-22.580369764125862,9.308281980354877-34.004290074561141,13.634495649992459-4.823125371875904,1.826507400714036-9.629962036415236,3.706532671412788-14.423856454366614,5.614507175669132-.717317199630997.285494214642313-1.301095717344651.868489976517594-2.113365985038399.925208566943184-1.544805125311541-.290648733523994-3.139804938409725-.365867812361103-4.600012133649216-1.038885786041646-.150991131640694-.232662345195422-.175267730448468-.46818156721929-.013433582704238-.706971004759907Z" fill="#ffdeb0"/>
        <path d="M161.550140289752562,149.850606056254037c-1.794746909276,2.227468753511857-4.175612242465832,3.796923832200264-6.332687152004837,5.615352808901662-1.771002114541261,1.492954381967138-3.481725896232092,3.009558059948176-4.793997057715387,4.964886797930376-1.684786112964503,2.51042153542403-1.652986580353172,5.535377876116399.214482788029272,7.891128453375131.434847044507478.54855402031535,1.09032915510943.995368450876413,1.059506713017981,1.824199770675477-6.154391856614893.793327953218977-12.040803174993925-2.692831258287697-14.288809930058051-8.467613300148514-.316637440248087-.813395922388736-.610601998019774-1.635632437912136-.915518268722735-2.45350561934174,1.378064426626224-.409111623766876,2.061164674063548-1.655067798257733,2.992899379536539-2.57271085672437,1.706046468425484-1.680233237706489,3.509700560627607-3.29384928161744,4.734072208302678-5.402985489317871.398433120884874,1.712237929954426,2.029608300175823,1.418889095710256,2.841283300153009,1.144011943593796,3.080473733312829-1.043270112844766,6.322316612673603-.653910161807289,9.426304675804204-1.378731552558747,1.683685779024017-.393162981286878,3.301786130317851-1.105833681227523,5.062463343657328-1.164032956385199Z" fill="#ffe8c9"/>
        <path d="M166.098616621993642,160.940265488454315c2.780658683328511-.605800667148287,5.318038172716115-1.89150498543313,7.951186734726434-2.897311937624181,9.843530863890919-3.760075998845423,19.656911327863781-7.599139439666033,29.476673593648229-11.421271252014776,9.724543068225103-3.785085760840957,19.442773099433907-7.586405595560791,29.164890916726108-11.377743564667981.908286895591118-.354196765796587,1.799018852009795-.777629319407424,2.80301600221901-.799697550366545-.247558591982852,1.2373996558199-1.050049635968207,2.120486602074379-1.899510395657671,2.973586777628952-7.998622237439122,3.082506868489872-15.971816646599109,6.230380060882453-23.965358916062542,9.325787518024299-13.968940697106518,5.409316369623411-27.9280175834283,10.843844437262305-41.894778813042649,16.258561586679207-.903174147249956.35014253105328-1.891429044524557,1.284721852700386-2.973578493867535.266769820611444.445816647452375-.776226822923491.891633294908388-1.552453645846981,1.337459371310615-2.328681398270419Z" fill="#fbd0cc"/>
        <path d="M164.76116289440688,163.268955848387122c1.267922007710695.335366546023579,2.285822997771902-.438035114833838,3.34703995570635-.845532058010576,9.895609306753613-3.799760289748519,19.772019396563337-7.64960582677304,29.648614186276973-11.498736684006872,10.404735297448497-4.054977469430014,20.793487765144164-8.151267548713804,31.216403262886161-12.15886713204236,1.485503714478909-.57117272085452,2.871166015114795-1.633046199800447,4.621726611034319-1.347923108136456-1.15755785294823,1.522074290809542-2.70516450685227,2.552759943209821-4.444390739497976,3.231142188202284-19.337072945623731,7.542586968140313-38.683567249188854,15.06107030165731-58.033411940104997,22.570870351612029-3.741312075362657,1.452025420985592-7.508060274081799,2.838552083534523-11.263111525000568,4.255268500168313,1.790156308841688-1.221970510465326,3.52813406680616-2.504795214550541,4.907130188699739-4.206222057786363Z" fill="#faccd4"/>
        <path d="M88.778204535279656,57.212882276226082c1.481263284098532.204595028484619,2.969221790867778.374179512627961,4.400391494910764.840753998270884.538153026979671.072505937623646,1.038619146517703.221178203486488,1.38354751578936.684184777239352,3.770116183772188,2.157018664887801,5.437994210979014,5.732062720855538,6.538881413838681,9.689480561932214-2.477035810521556.905188288956197-4.953953526901387,1.810367315723852-7.430869832354801,2.715548582909832-.85547591386603.138675762742423-1.008558313878893-.58183826754248-1.237590549279048-1.096733335889439-1.745773233102227-3.924716808593075-4.166985382265921-7.34723543601649-7.408822203489763-10.182917238240407-.461741680552223-.403889149727547-.954553976333045-.86113342270437-.506143231605165-1.585036054493685.618218811476254-.48507632500332,1.375618963691522-.627827819587765,2.099422487373886-.853210318631682.707731337786754-.199731795246407,1.397884228306793-.57861352427426,2.161182904816087-.21207097309707Z" fill="#db947d"/>
        <path d="M84.517599143089683,58.278163567954834c.166214966600819,1.544374567432897,1.647953750483794,2.03541271488757,2.524016901872528,2.95817239067037,2.298987341466272,2.421521925241905,4.068927805426938,5.139122591253908,5.491439265571898,8.12709813019319.300541486059956.631284890625466.41450300593533,1.407757085156845,1.137028255830955,1.779354156598856-2.053472323799724,1.020587882720065-4.215303499338916,1.762364829281069-6.386487956420751,2.480064743327603-.802591135628973-.70689778558517-1.019026380241485-1.767236919298739-1.578804368931742-2.625691151908541-1.630345434679839-2.500233478320297-3.668216093115916-4.43172191712074-6.649401134871368-5.197592607986735-.508159042421539-.130545893920498-1.182159418891388-.189324518651119-1.101248162713091-1.010251395862724,1.127285804577696-3.23887476474556,3.325471260401173-5.39881539592534,6.56345719966157-6.511154265032019Z" fill="#eaa98d"/>
        <path d="M77.954141943428112,64.789317832986853c.241496646613086.471668070331361.695833977615621.518590465670059,1.150559634779711.643724593941442,4.274365239425606,1.176266795995616,6.793464274927828,4.121082409692463,8.178890280618361,8.189796654573001-2.373194372288708.947681447623836-4.745252569437071,1.898220513292472-7.120462004764704,2.840822863840003-.534785696008839.212231540899666-1.016266875923975.190809190056825-1.281196072735838-.425059771579981-1.484467861238954-3.450856380875848-2.588888860322186-6.946018776505298-1.20839048979542-10.718845527222584.068100529988442-.186113717612898.185927585696845-.354041130827682.28059865189789-.530438813551882Z" fill="#f5b79a"/>
        <path d="M94.562143545979779,58.737821051736319c-.461008675754783-.228149320462762-.922017351515024-.456298640927344-1.383286887684335-.684317547618775,9.826385700388528-3.832374153302226,19.688442970659707-7.577293955862842,29.466954703067131-11.528866173022834,6.287711410528573-2.540914191471529,12.537118705724424-5.189347757830546,18.811508811855674-7.761042308415199,6.94066715963163-2.844781963507558,13.801965635813758-5.897209289068996,20.871139142378524-8.436106750305044,3.384570024085406-1.215568716950656,6.674541627861799-2.693461559138086,10.015104645321117-4.033258204155572.670418753089507-.268883774402639,1.201157925333973-.603086308847196,1.222350542842833-1.408446904912125.880276882589897-.157956376722723,1.706844318678122.063114142856648,2.523039862813675.357253320307791-.369655783530106.87865737501852-1.25371136243848,1.051399956186287-1.990158117765532,1.345558572531445-10.264556738884494,4.099958044296727-20.546298626008138,8.156837435270063-30.813847076685306,12.249336190738177-11.842389356967942,4.720208803617425-23.626804511441151,9.586042594737592-35.562640989174724,14.071058512885429-3.945358256363761,1.482507752207312-7.86415480915457,3.036982634052038-11.774741243985773,4.609165470270455-.553808400332855.222646837615684-1.410834293591506.268941215877931-1.385423392983284,1.219665821696253Z" fill="#ffdeb1"/>
        <path d="M88.778204535279656,57.212882276226082c-.720450731776509.070705405256376-1.440900052615689.141413050931078-2.161267550076445.212093594434918.643433434515828-.41969374238397,1.333267600364707-.720562921596866,2.101209163778549-.82181280014629.020020087285957.203242053110444.040039942257863.406481749618251.060058386297897.609719205711372Z" fill="#ffdeb1"/>
        <g>
          <path d="M184.425080265500583,67.50238818564867c.38575109253361.593406550642612,1.160559671132432.806540379111539,1.410076204852885,1.562294229246618.492008576711669,1.490233768034159-.084420190238234,2.596313448637375-1.88618523544028,3.301205702109655-6.559229522881651,2.56612308716285-13.122977149248982,5.120795581009588-19.691166185899419,7.663928705711442-4.312444165700072,1.669731610007148-8.635458367984029,3.312198370953411-12.953736974068306,4.966877391354501-1.060569846138605-1.196238406682824-1.597731250229117-2.642918155939697-1.992462433161563-4.157748284127592,6.242093482309429-2.455620884771633,12.481464286891423-4.918179015734495,18.727178077557255-7.364570700259719,4.628855547271087-1.813081897927987,9.266596609493718-3.603491103962369,13.897427103860537-5.411562789886375.227918684056931-.088990140835449.427491827816993-.250467361120172.640266100969711-.378189998173184.616201157178693-.060744311660528,1.232402249251209-.121489283817937,1.848603341329181-.182234255975345Z" fill="#f0b48e"/>
          <path d="M158.681952093946165,106.692290920425876c5.059199351613643-2.006136025383967,10.112003110476508-4.028562840989252,15.179249397251624-6.014200644576704,6.079698871191795-2.382378293799775,12.170189227717856-4.737291856688898,18.259189189739118-7.095911784062992,2.169685400600429-.840441116992224,3.794078323087888.01123341429593,3.81278981939613,1.984733276587576.012082312410712,1.27405019667458-.752783562431432,1.934585816277831-1.854094738913773,2.361702316238734-8.581271270220896,3.328025985803833-17.156333805220129,6.672036320442203-25.738229010152281,9.998452079738854-2.537274729189448.983465033574248-5.090263114097979,1.926443901676976-7.636051737412345,2.887972341350178-.524250690926237-1.447748556787701-.768430137479299-3.032708194226871-2.022852919908473-4.122747585275647Z" fill="#f0b48e"/>
          <path d="M149.311605641783899,80.838945929943293c1.05716573303107,1.197869873576565,1.421022031421671,2.727474233333851,1.992462780421192,4.157751806778833-7.268684044637666,2.839126829772795-14.532185915933951,5.691625306779315-21.809529906118769,8.508411414095463-1.92868875620843.746523064819485-3.57053305390491-.429710879885533-3.403680746087048-2.359896040077729.096869520006294-1.120607410306548.805655973777903-1.712469432211947,1.790885626438467-2.091619405251549,5.947821068662961-2.288929469603318,11.890941186111377-4.590056829554669,17.838127920220359-6.880635811765387,1.19171873428968-.458994449774764,2.39421005242184-.890065838995724,3.591734325125799-1.334011963779631Z" fill="#ebaf88"/>
          <path d="M158.681952093946165,106.692290920425876c1.289527652044853.465073166396905,2.311110107179047,2.547152239541902,2.022851032306789,4.122752513860178-6.972343840030589,2.729977527878873-13.940574807711528,5.470533256804629-20.919512585071061,8.183580338702086-2.133634293650175.829443841206739-3.770733058570841-.115052898783688-3.723042159241231-2.095535005746569.030677822935104-1.273949799960974.843664839328994-1.864226436980971,1.944872407879302-2.286428970646739,6.13326722372949-2.351471347885308,12.25298836582806-4.738198141738394,18.37988565669184-7.106301898662423.757245682042594-.292683523965025,1.529594476999591-.546331183883012,2.294945647434361-.818066977506533Z" fill="#ebaf88"/>
          <path d="M172.193291269601104,91.633808056902126c-7.278213063447765,2.861835492984028-14.525904718993843,5.802676743724078-21.889248179026254,8.444149528844719-1.247947145482613-1.137197012993056-1.659039897685943-2.605668663902179-1.676813281435898-4.229835431529864,7.427671605286378-3.050628590550332,14.90763676271672-5.966679030429077,22.453720165893174-8.71257357925424.822951215712237-.176865723256924,1.497616583554191.287414450151118,2.164612567587028.599788171111868.905289706246549.423971914195135,1.113851780844925,1.439436362332344.456327207819413,2.174406858126531-.509107676929489.569077316487892-.834079969525192,1.302714817233209-1.508598480837463,1.724064452700986Z" fill="#f0b38d"/>
          <path d="M159.213956714142114,121.224237142079801c5.863486204410947-2.315272815099888,11.716789185769812-4.656920265431836,17.598366701331543-6.925356332310912,1.300261872554984-.501490750011726,2.605253864836413.20775539688475,3.017868649613774,1.397547175591171.426444647137942,1.229683505654975-.108936002442533,2.523286108125831-1.406741281199174,3.030050223746002-5.733011109512518,2.238647596161172-11.483445697334901,4.432730665428608-17.227570953557006,6.642951783271201-.845126585762046-1.293660396107953-1.474373247367112-2.690377244078263-1.981923116189137-4.145192850297462Z" fill="#f2b58f"/>
          <path d="M159.213956714142114,121.224237142079801c1.129279564296667,1.158007965779689,1.678930387811306,2.592724216501665,1.981923116189137,4.145192850297462-5.601388284598215,2.203206988640886-11.196437925435021,4.422753064085555-16.808781297440873,6.59772656469795-1.342869888434507.520407039572092-2.68115058733747-.025644906880189-3.154151882920814-1.138592795701697-.532163876309824-1.252151015387426-.130103212090944-2.651439227438459,1.12681219768001-3.144056660225033,5.601581558397811-2.195419874358777,11.233342449266274-4.313955738851291,16.854197866492541-6.460269959068683Z" fill="#edb18a"/>
          <path d="M172.193291269601104,91.633808056902126c.404565016768174-.673580513628622.473347171804562-1.468693820519547,1.25591431018529-2.020981452895285.771268225037602-.544306637206319.260691829925236-1.442330957634113-.454609156196966-1.594694430970776-.748640956991039-.159465288574211-1.263237365966233-.62747550012682-1.913601243543781-.882558413703009,5.531927513298797-2.188798818213399,11.054811240855997-4.401009081106167,16.602364705860964-6.54960949472661,1.360444279776857-.526906924877039,2.664333816472208.069071148820512,3.109057548297642,1.213943413647939.530947688699598,1.366817873637046-.039513022460596,2.668025983810367-1.50498683947626,3.237702921724122-5.69254048867333,2.212868560771312-11.395229901681887,4.399686338158062-17.094139325126889,6.596197456923619Z" fill="#f3b791"/>
          <path d="M148.627229809138953,95.848122154216981c.558938621186826,1.409945849414726,1.117877242373652,2.819891698825813,1.676815632054058,4.229835199806985-5.299052347267207,2.088680253102211-10.59086185569322,4.196022022661055-15.90196825030398,6.253627283371316-1.423692879030568.551555928881498-2.745400382926164-.029865625951061-3.192004226852077-1.251301732525462-.496484079412767-1.357855128990195.08077865424093-2.653011276855977,1.587419536575908-3.190715255354007,4.708320838434702-1.680342314866721,9.226604206497541-3.867389769515285,14.052152150847178-5.239052866883867.609164086004967-.173155324460822,1.066695343247375-.786207116247169,1.777585157678914-.802392628414964Z" fill="#ebaf88"/>
        </g>
      </g>
    </g>
  </a>
  <path d="M101.100906372070312,68.42730712890625c12.138603048297227,29.198580672218668,24.932426327456596,61.939558058067632,35.856628347613878,91.636499595058922-12.133818317548503-29.230606123181133-24.952955171498616-61.947223263981869-35.856628347613878-91.636499595058922h0Z" fill="#fff"/>
</svg>