<?xml version="1.0" encoding="UTF-8"?>
<svg id="Pattern" xmlns="http://www.w3.org/2000/svg" xmlns:xlink="http://www.w3.org/1999/xlink" viewBox="0 0 280 280">
  <defs>
    <style>
      .cls-1 {
        fill: #fff;
      }

      .cls-2 {
        fill: #ca7eb4;
      }

      .cls-3 {
        fill: #774097;
      }

      .cls-4 {
        fill: #894f9e;
      }

      .cls-5 {
        fill: none;
        stroke: url(#linear-gradient);
        stroke-linecap: round;
        stroke-linejoin: round;
        stroke-width: 41px;
      }

      .cls-6 {
        fill: #a462a7;
      }
    </style>
    <linearGradient id="linear-gradient" x1="2261.98230119510481" y1="-683.53979984327907" x2="2148.712306098662793" y2="-612.760851416592686" gradientTransform="translate(-1971.775234675103547 1088.746579688591282) rotate(-8.921916220031378)" gradientUnits="userSpaceOnUse">
      <stop offset=".005347593582888" stop-color="#361744"/>
      <stop offset=".55633979394477" stop-color="#4d2266"/>
      <stop offset="1" stop-color="#5e2b7d"/>
    </linearGradient>
  </defs>
  <g>
    <g>
      <path class="cls-5" d="M85.113058542721774,37.204028747373741c5.669744916465788-.483004946852816,11.339482308096194-.966009042260339,17.009227236083461-1.449013870666022,1.599926875032907,1.83743909819168.561672922282014,3.805189146636621.206027226309743,5.686317011706706-3.497643970196805,18.499871689709835,1.875846468463351,33.358960762052448,17.587933025939492,44.187965988641736,12.672154141962892,8.733843236275789,31.46671201742538,8.01709200440564,45.638301873115779-1.87962221489579,2.063204783187757-1.440841062149048,3.807017764380362-3.960083026979191,6.952169839027192-2.788077035920651,3.617598037451899,2.963328571269813,3.554164640554518,7.220925107618314,3.923452745670147,11.315653693796776.312259808522867,3.462393980606066.574201649107636,6.929314631846864.858407037765573,10.394238256500103-3.520127877192863,5.735392370137561-9.712894134763701,7.346984823734601-15.341492068148,9.286629495392845-35.615337456560155,12.273181845477666-73.272876064065713-8.456331228637282-82.272046034282539-45.285857806229615-1.96528649886568-8.043027876421547-2.831178109954635-16.354520617060189-.615099035387175-24.616249952829094,1.251651432145081-2.58357571245142,3.356131121208819-4.091454347562831,6.053118153906325-4.851983565496994Z"/>
      <path class="cls-5" d="M79.059940388815448,42.056012312870735c.061991229191335,4.86036194351982-.155444831920249,9.743033453414682.231513259477651,14.577450531083741,2.436290129446206,30.437327934088898,26.866513135071727,56.423670304480765,59.915115417501511,57.488376990000688,13.717939158319496.441942718513019,26.71803708227344-3.17589027008944,38.082069162332118-11.450194461845967.038073688790973.161182218162139.082000994851114.321381879532055.113535915776083.484011215521605,3.12482103216098,16.119424442229501-2.43778633072543,21.91011149503538-17.442697222862989,22.459817375045532-7.728059142105849.283116830309154-15.414689874305623,1.552465032491455-23.139526204415233,2.104547154518514-3.241643744700923.231668725540658-4.200931670513455,1.111287460809763-3.813053331734409,4.369906028641708,1.097175322212934,9.217537534750591.638268288657855,17.937063835117442,1.49579828127753,27.182011214241356.149264710846182,1.609143877947645.937715756759644,5.206696915092834.033801422445322,6.800443230356905-.919739803379343-9.25857864000136-.869825190138727-19.64445465812787-1.540652908448465-28.921128542933729-.244860557320862-3.386020730511518-1.305880212565171-4.784140405350627-4.765317590663471-5.339293409575475-25.361370870647079-4.069889510656139-44.217823690469231-17.825520759926803-57.415289823187777-39.74204512200231-1.097915952763287-1.823269633354357-1.787661726129954-3.89487602311965-2.667043453282531-5.851071375112952.318202223659682-.086500992487345.631365857361743-.210570917166478.95532380732584-.254124249688175q10.838527010580947-1.456980016051602,9.794079241502914-12.217941575310761c-.705464896715057-7.266602916935881-1.401801339539816-14.534112808732971-2.121658282900171-21.799291068422463-.353315021755407-3.565843803893586-.001749627066602-6.951849624338138,2.284002309856078-9.891473934518217Z"/>
      <path class="cls-5" d="M172.506717743197441,80.96159862623972c-3.918725652953071,1.128905031409886-6.576554343277166,4.276846220443986-9.930777395748009,6.326227817746258-14.550892687822852,8.890344688330515-33.298614579674904,7.533393346508092-46.594782367477819-2.999521095493037-14.474054015854563-11.466001455044534-18.279824654908225-26.243703209924206-14.779635082237291-43.678969446855263.324183330127198-1.61484158798703.614750415417802-3.236546296702727.920840904578654-4.854692100483589,3.989859126311785-.427027811418156,7.979803800966693-.854427549833417,11.969987997803401-1.28210227521231,6.592607373329884,1.596767955921678,10.00757797094775,5.43523197972354,10.751149726689619,12.446060937980292.981290123152576,9.252132086881829,2.020947044413333,18.506854765364551,2.616723431026912,27.787185708089964.271950559912511,4.236172101580451,1.39836438790735,5.723761914539864,5.921857323979566,5.105283783264895,9.485058863036102-1.296854245687427,19.060330854179483-1.921166709684258,28.589167083338907-2.911998724399382,4.245630624029218-.441474401552114,7.81289468727482.631287976644671,10.535468378046062,4.062525395362172Z"/>
      <path class="cls-5" d="M37.147628205382716,127.332218829084013c-.920500747650294-9.299712565341906-1.841000875754617-18.59941753858584-2.76154618117107-27.899137248721672,2.326772831769631-8.086628426492098,5.253272381809438-10.645229534005921,13.255101180680867-11.406910168978357,6.831118676176629-.650241812314562,13.671004995047042-1.208402341404508,20.507013057347649-1.807297947992993,4.04226385588845,3.803859601432123,5.930496693916211,9.098322754234687,9.255679150288415,13.434817519975695,12.76916404390613,16.652722933864425,29.253676686263134,27.14623352892886,49.855890990671469,30.656611118334695,4.491982560604811.765373847814772,6.076948937587076,2.511022631822925,6.244563187196036,6.928923723920889.350978191754621,9.251163039261883,2.294132544171589,18.392993049488723,2.16521648264461,27.69441246088536-.895485000568442,6.80483883009947-4.666800723103734,10.8339822891121-11.377434086449284,11.643371185808064-7.215790416554228.870305683300103-14.45694039812588,1.584765931649599-21.705659420002121,2.111898058936276-8.062301550213306.5862894557049-13.667760121859828-4.07603707522685-14.617416445182243-12.258945205794589-1.130202732998441-9.738618751785907-2.101837782025541-19.502409080972939-2.816966433812922-29.278995577862588-.260145084172109-3.556467268532288-1.472463274396432-4.364284231318379-4.874678506595956-3.949120757117271-9.181882766348281,1.120430279426728-18.405613282668128,1.906612419747034-27.619503300975339,2.751732450238705-8.06766410302771.73998822863723-11.674572648465983-1.309414622384793-15.51025967464011-8.621359611632215Z"/>
    </g>
    <g>
      <path class="cls-6" d="M85.113058542721774,37.204028747373741c5.669744916465788-.483004946852816,11.339482308096194-.966009042260339,17.009227236083461-1.449013870666022,1.599926875032907,1.83743909819168.561672922282014,3.805189146636621.206027226309743,5.686317011706706-3.497643970196805,18.499871689709835,1.875846468463351,33.358960762052448,17.587933025939492,44.187965988641736,12.672154141962892,8.733843236275789,31.46671201742538,8.01709200440564,45.638301873115779-1.87962221489579,2.063204783187757-1.440841062149048,3.807017764380362-3.960083026979191,6.952169839027192-2.788077035920651,3.617598037451899,2.963328571269813,3.554164640554518,7.220925107618314,3.923452745670147,11.315653693796776.312259808522867,3.462393980606066.574201649107636,6.929314631846864.858407037765573,10.394238256500103-3.520127877192863,5.735392370137561-9.712894134763701,7.346984823734601-15.341492068148,9.286629495392845-35.615337456560155,12.273181845477666-73.272876064065713-8.456331228637282-82.272046034282539-45.285857806229615-1.96528649886568-8.043027876421547-2.831178109954635-16.354520617060189-.615099035387175-24.616249952829094,1.251651432145081-2.58357571245142,3.356131121208819-4.091454347562831,6.053118153906325-4.851983565496994Z"/>
      <path class="cls-4" d="M79.059940388815448,42.056012312870735c.061991229191335,4.86036194351982-.155444831920249,9.743033453414682.231513259477651,14.577450531083741,2.436290129446206,30.437327934088898,26.866513135071727,56.423670304480765,59.915115417501511,57.488376990000688,13.717939158319496.441942718513019,26.71803708227344-3.17589027008944,38.082069162332118-11.450194461845967.038073688790973.161182218162139.082000994851114.321381879532055.113535915776083.484011215521605,3.12482103216098,16.119424442229501-2.43778633072543,21.91011149503538-17.442697222862989,22.459817375045532-7.728059142105849.283116830309154-15.414689874305623,1.552465032491455-23.139526204415233,2.104547154518514-3.241643744700923.231668725540658-4.200931670513455,1.111287460809763-3.813053331734409,4.369906028641708,1.097175322212934,9.217537534750591.638268288657855,17.937063835117442,1.49579828127753,27.182011214241356.149264710846182,1.609143877947645.937715756759644,5.206696915092834.033801422445322,6.800443230356905-.919739803379343-9.25857864000136-.869825190138727-19.64445465812787-1.540652908448465-28.921128542933729-.244860557320862-3.386020730511518-1.305880212565171-4.784140405350627-4.765317590663471-5.339293409575475-25.361370870647079-4.069889510656139-44.217823690469231-17.825520759926803-57.415289823187777-39.74204512200231-1.097915952763287-1.823269633354357-1.787661726129954-3.89487602311965-2.667043453282531-5.851071375112952.318202223659682-.086500992487345.631365857361743-.210570917166478.95532380732584-.254124249688175q10.838527010580947-1.456980016051602,9.794079241502914-12.217941575310761c-.705464896715057-7.266602916935881-1.401801339539816-14.534112808732971-2.121658282900171-21.799291068422463-.353315021755407-3.565843803893586-.001749627066602-6.951849624338138,2.284002309856078-9.891473934518217Z"/>
      <path class="cls-2" d="M172.506717743197441,80.96159862623972c-3.918725652953071,1.128905031409886-6.576554343277166,4.276846220443986-9.930777395748009,6.326227817746258-14.550892687822852,8.890344688330515-33.298614579674904,7.533393346508092-46.594782367477819-2.999521095493037-14.474054015854563-11.466001455044534-18.279824654908225-26.243703209924206-14.779635082237291-43.678969446855263.324183330127198-1.61484158798703.614750415417802-3.236546296702727.920840904578654-4.854692100483589,3.989859126311785-.427027811418156,7.979803800966693-.854427549833417,11.969987997803401-1.28210227521231,6.592607373329884,1.596767955921678,10.00757797094775,5.43523197972354,10.751149726689619,12.446060937980292.981290123152576,9.252132086881829,2.020947044413333,18.506854765364551,2.616723431026912,27.787185708089964.271950559912511,4.236172101580451,1.39836438790735,5.723761914539864,5.921857323979566,5.105283783264895,9.485058863036102-1.296854245687427,19.060330854179483-1.921166709684258,28.589167083338907-2.911998724399382,4.245630624029218-.441474401552114,7.81289468727482.631287976644671,10.535468378046062,4.062525395362172Z"/>
      <path class="cls-3" d="M37.147628205382716,127.332218829084013c-.920500747650294-9.299712565341906-1.841000875754617-18.59941753858584-2.76154618117107-27.899137248721672,2.326772831769631-8.086628426492098,5.253272381809438-10.645229534005921,13.255101180680867-11.406910168978357,6.831118676176629-.650241812314562,13.671004995047042-1.208402341404508,20.507013057347649-1.807297947992993,4.04226385588845,3.803859601432123,5.930496693916211,9.098322754234687,9.255679150288415,13.434817519975695,12.76916404390613,16.652722933864425,29.253676686263134,27.14623352892886,49.855890990671469,30.656611118334695,4.491982560604811.765373847814772,6.076948937587076,2.511022631822925,6.244563187196036,6.928923723920889.350978191754621,9.251163039261883,2.294132544171589,18.392993049488723,2.16521648264461,27.69441246088536-.895485000568442,6.80483883009947-4.666800723103734,10.8339822891121-11.377434086449284,11.643371185808064-7.215790416554228.870305683300103-14.45694039812588,1.584765931649599-21.705659420002121,2.111898058936276-8.062301550213306.5862894557049-13.667760121859828-4.07603707522685-14.617416445182243-12.258945205794589-1.130202732998441-9.738618751785907-2.101837782025541-19.502409080972939-2.816966433812922-29.278995577862588-.260145084172109-3.556467268532288-1.472463274396432-4.364284231318379-4.874678506595956-3.949120757117271-9.181882766348281,1.120430279426728-18.405613282668128,1.906612419747034-27.619503300975339,2.751732450238705-8.06766410302771.73998822863723-11.674572648465983-1.309414622384793-15.51025967464011-8.621359611632215Z"/>
    </g>
  </g>
  <path class="cls-1" d="M111.926633579376357,45.175745550222928c.230392947394648-.016071937252491.457306900620097-.010752805599623.686793593946277.01503861755009l-.664599030524187-.089302416117789c.343134363392892.047209860440489.670911451621578.138639530112414.991080834712193.270430104208572l-.597198839657722-.252020871013883c.347209718325757.151714818643086.667905993706881.343717907362588.968371655839292.574335372704809l-.505969082783849-.39090975990257c.29683433547325.237098763296672.561362804961391.503318864466564.796181249133951.801942213063739l-.39090975990257-.505969082783849c.278329647453575.368504111280345.502707844987526.76572152321387.684952670584607,1.189711584705947l-.252020871013883-.597198839655903c.236343300308363.574117923733866.386618578537309,1.172508715480944.472592923924822,1.786774672011234l-.089302416117789-.664599030524187c.039528722374598.307673894052641.063607939144276.615856386986707.073869076411938.925877501415016.021651220191416.654151215163438.263981180596602,1.299515086531756.732233047034242,1.767766952967577.433605695090591.433605695090591,1.145015637195684.760126154798854,1.767766952965758.732233047032423.646559326542047-.028959471484995,1.317139519340344-.241343657926336,1.767766952965758-.732233047032423.440429716294602-.479780542065782.754376721950393-1.098737137288481.732233047034242-1.767766952967577-.030669080897496-.926609048319733-.145495478260273-1.880347670730771-.416675044629301-2.769598311620939-.33685428516219-1.10461084135386-.857182992594971-2.040568698274001-1.573806389153106-2.934657376774339-1.195210090298133-1.491193024536187-3.259149956622423-2.494085014959637-5.183360570770674-2.359854377265947-.66817249498672.046610916408099-1.282830245383593.247296339450259-1.767766952965758.732233047032423-.43360569509241.433605695090591-.760126154800673,1.145015637197503-.732233047034242,1.767766952967577.028959471486814.646559326542047.241343657926336,1.317139519338525.732233047034242,1.767766952965758.469245903908813.430759112156011,1.109200748478543.778173840073578,1.767766952965758.732233047034242h0Z"/>
  <path class="cls-1" d="M170.478478966286275,88.208126411725971c-.334026417278437-.834088285360849-.746450254277079-1.604298504671533-1.445862327176656-2.19827992838691-.744514954163606-.632285414547368-1.472901902625381-1.016529006330529-2.37334891986211-1.377922133930042-1.280338475189637-.513862023060938-2.673259710376442-.814751275933304-4.050118645533075-.879531078100626-1.308194135064696-.061549193680548-2.55850156276756,1.193873572839948-2.5,2.5.063026318282937,1.407147707195691,1.098547025600055,2.43406307348414,2.5,2.5.235942730501847.011100863721367.469835958365366.032300099441272.704078759819822.062590892284788l-.664599030524187-.089302416119608c.945330186425053.134154582301562,1.886827271662696.399541886219595,2.769254818973423.763896148146159l-.597198839657722-.252020871012064c.371376990455246.159372356320091.724346762894129.347381754494563,1.048183059372604.590252436064475l-.505969082783849-.39090975990257c.204340226740896.161079356577829.388859041659089.338204726524054.553998289658921.539338243701422l-.39090975990257-.505969082783849c.140805963485036.182560524948713.257481682570869.373878768421491.351230279466108.584630036764793l-.252020871013883-.597198839659541.031887101398752.079624413981946c.251162901955468.627172054069888.543857879218194,1.140013589589216,1.148899713700303,1.49407768234596.535867402986696.313583945873688,1.325625203724485.4464388476772,1.926396900706095.252020871012064.604924231061887-.195761793755082,1.188553591257005-.570634104129567,1.49407768234596-1.148899713698484.293902696783334-.556269790395163.496912092703496-1.314885688916547.252020871012064-1.926396900707914h0Z"/>
</svg>