<?xml version="1.0" encoding="UTF-8"?>
<svg xmlns="http://www.w3.org/2000/svg" width="280" height="280" xmlns:xlink="http://www.w3.org/1999/xlink" viewBox="0 0 280 280">
  <defs>
    <linearGradient id="B3" x1="37.952529505048005" y1="251.38850878613448" x2="60.977123725704807" y2="219.445937930720845" gradientUnits="userSpaceOnUse">
      <stop offset="0" stop-color="#008693"/>
      <stop offset=".5" stop-color="#008c8d"/>
      <stop offset="1" stop-color="#008f82"/>
    </linearGradient>
  </defs>
  <g id="Genral_2" data-name="Genral 2">
    <a xlink:href="https://www.notion.so/dmmnotes/semantic-thought-2477648bf2934c578347c35b7291e8b9?pvs=4">
      <g>
        <g>
          <path d="M257.995816113489127,195.425902620838315c.13684891965022-.018978960888489.27119878278063-.007889637319749.40307881811168.033253360261369v4.787548809594227c-.140560968509817.013602319158963-.281355766881461.024063393826509-.422369780730151.031368613568702-.769914009501008-.653729504201692-.704938539960494-1.553250431814376-.721116642700508-2.430446607899285.010288513400155-.878978649700002-.051486410069629-1.781699263559858.740407605318978-2.421724175525014Z" fill="none" stroke="#181818" stroke-linecap="round" stroke-linejoin="round" stroke-width="43"/>
          <path d="M197.539576083519933,58.524934098608355c2.484909814800631,8.779263327971421,4.98760531256994,17.553544496080576,7.45101739554957,26.338830977729231,4.97164642531061,17.730305245546333,9.921722046970899,35.466655560430809,14.881121633899966,53.200397911865366,5.066245213960428,18.115805343901229,10.134156465601336,36.231128543297018,15.193430627170528,54.348877075650307.147122818669231.526881668614806.204688804849866,1.078761799182757.304008033590435,1.618997409485019-1.413472213869682,1.039810367521568-3.139735695071067,1.120284668191744-4.755719173310354,1.466888124032266-18.429051175049608,3.952795960205549-36.602672467819502,8.839023678065132-54.497919324299801,14.760006551385231-5.64835001090978,1.868850535072852-11.567548059811088,2.254799904440006-17.40625018289029,3.061077007276253-1.009984193520722.139471255301032-2.084227752649895.11663513838721-3.003734408619493-.527992062014164-1.426698214760108-1.675349874569292-1.763573956621258-3.720548414194127-1.891128139739521-5.8053850761371-.322480591730709-5.270979031185561.29374874892892-10.517295640529483.64887783344966-15.757841126274798.25294544011922-3.732821183357373.441266155479752-7.476044999630176.68079560797014-11.208062608817272.652926012719035-10.173438947311297,1.289615465249881-20.349522384167358,1.869893466489884-30.527110696291857.37626145719878-6.59950629332161.726947774579457-13.205280465183023,1.132043375149806-19.802463698626525.566204367149112-9.221079365310288,1.063545843509928-18.447447709713742,1.722463746138601-27.664041670101142.397496130450236-5.559915082390944.818857519960147-11.132906508119049.961435270930451-16.695005851215683.090901354140442-3.546461375150102,2.206915352011492-5.480792247373756,4.220219588320106-7.678384976021334,4.75791132814993-5.193437776244537,10.223844827400171-9.5805217448451,15.858895765590205-13.771128175896592.907479033070558-.674870810131324,1.860233370820424-1.225870661721274,2.932810892280031-1.580787457627594,4.237742212690137-1.402255192373559,8.66545656406015-2.189144242016482,12.793634877720251-3.94934424387975.302035094229723-.128791024035309.624895659469985-.004784918930454.904103114609825.172472585480136Z" fill="none" stroke="#181818" stroke-linecap="round" stroke-linejoin="round" stroke-width="43"/>
          <path d="M197.539576083519933,58.524934098608355c-3.339543301799495,2.127700038774492-7.287190356979409,2.494889603844058-10.941980139519728,3.696839323523818-2.199622783580708.723388427042664-4.210369505899507,1.503779483728067-6.150660371569757,2.880667300547429-6.62700100453003,4.702731555789796-12.354458576530305,10.347467544595929-17.88454914085014,16.232183654512482-.441134626189523.469426115349052-.93435485144073.925129375415054-.879258693059455,1.629615546376954.162891719188337,2.082615875140618-.369816521970279,4.107031064602779-.479336577911454,6.16162776942474-.367565909669793,6.896573054098553-.51280347517968,13.807924567734517-1.018255924449477,20.69343021392524-.574929143429472,7.831977221079796-.975260460809295,15.671128167947245-1.458908276579677,23.506473095329056-.488572856980682,7.915293252228366-.929941313019299,15.833026447849988-1.418543398740439,23.747713366841708-.498466782499236,8.074444769508773-1.092511516149898,16.140357042362666-1.433581580959071,24.2264171112638-.307281651490484,7.284545969332612-.923014103711466,14.555942543131096-1.39065918913002,21.833913814698462-.21119219755019,3.287027453872724.057975188408818,6.508293319635413,1.431725556520178,9.561100818165869.146465172229.759026941548655-.468068902020605.95432468611034-.94413186203019,1.166526709153914-5.085799235170271,2.267087284044464-10.197655884221604,4.476317227739855-15.200350529290517,6.926093447071253-.283072954840463.138609239369544-.616886987119869.149742394256464-.936554313469969.184047706159618-4.335190802639772.588406229275279-8.654729619700447,1.322420098433213-13.043350543039196,1.348324407634209-3.245872525360028.019154286161211-6.473206727940124-.051399526098976-9.726137991900032.374830824921446-2.515621904160071.329611514722274-3.750418883981183-.813669985214801-4.401408493260533-2.996484254324969-.110652669280171-7.891259079278825.731083640050201-15.734712800574925,1.197311132009418-23.595918205839553.202518571559267-3.414635032309889.397547280730578-6.833331766800256.598677487550958-10.246593417799886.60381443706865-10.24647653428292,1.32678710420987-20.486772852666036,1.866751377889159-30.734856535291328.494067858449853-9.377133469421096,1.059936095189187-18.751593228416823,1.627455755249684-28.122531871496903.557830335650578-9.211158876900299,1.224070035450495-18.423545030718742,1.662910206239758-27.636902778762305.315231866381509-6.618499864649493,2.813090009130974-12.334702818185178,5.600261440829854-18.06688959251187.833537650230937-1.053836389426579,2.081290265170537-1.414089648355002,3.249920704651231-1.906337270174845,10.197648577030122-4.295429029119987,20.467272904728816-8.428598169955876,30.821638631468886-12.313360618711158,12.199297856759586-4.576950282285907,24.240892094130686-9.658895794840646,36.95651548818023-12.759066685561265.310993700360996-.075817223085323.618684554079664-.146206667901424.939659866160582-.144544730410416.451613126338998,1.451227559213294.903226252668901,2.902453292121209,1.354839379009718,4.353680851334502Z" fill="none" stroke="#181818" stroke-linecap="round" stroke-linejoin="round" stroke-width="43"/>
          <path d="M124.794021011759469,81.038748367232984c-1.438426243159483,4.028478036723754-3.268071746739224,7.897764377461499-4.656663003139329,11.958513222392867-1.042208869699607,3.047788812567887-.68916233228083,6.1476200105717-.926843067509253,9.167561325484712-.328238651791253,4.170623002450156-.541659540100227,8.393690177421377-.722059269290185,12.594315717347854-.380280407751343,8.854985583198868-1.210369067690408,17.690079053043519-1.803953448819811,26.53681704315386-.196300158990198,2.925579791515702-.185134783660033,5.853745630820413-.43198603331075,8.790363609366977-.570939421610092,6.791940391745811-.596478025530814,13.627945868971437-1.071715273890732,20.430128178792074-.580066092928973,8.302616002907598-1.001610162009456,16.611850534900441-1.489123477489557,24.918236031197011-.478174735839275,8.147336252086461-1.244362082110456,16.277607510859525-1.351967656159104,24.446231173275009-.422048264690602,1.391600529379502-1.208615343821293,2.486477643313265-2.314009423271273,3.475443681436445-2.543549956850256,2.275605170263589-5.228625430348984,4.379084752985364-7.821257734120081,6.593399129618774-.789606867179828.674403276068915-1.629414080249262,1.639013711575899-2.933505074648565,1.005081352872367-2.664330381499894-9.388580748753157-5.356026162620765-18.76952023765989-7.987518064570395-28.167290952849726-6.257462155510439-22.347017838885222-12.486360533419429-44.702056809044734-18.726939443049559-67.053815735540411-3.932170441981725-14.08376235994001-7.864596635361522-28.167458972904569-11.796909567410694-42.251184806747915.581173131129617-.747097517712973,1.445075779520266-.942219937001937,2.290907764809162-1.171713415169506,8.526020901710581-2.31329279890997,17.02822404104154-4.712038405739804,25.532096871640533-7.104954447217096,6.75809186413062-1.901665582150599,13.754653639240132-2.535009870663998,20.62757057402996-3.827489525985584,4.607010695950521-.866362535207372,9.208182952839707-1.814309764484278,13.889580769800887-2.25488026185667.983261825978843.267349126868794,1.836660399068933.652542405990971,1.694294556398745,1.915238680428956Z" fill="none" stroke="#181818" stroke-linecap="round" stroke-linejoin="round" stroke-width="43"/>
          <path d="M123.350735492029344,79.596435002409635c-8.620985049488809,1.51780550562944-17.219558969300124,3.180528307873828-25.868493993029915,4.517657466254605-11.462733829599529,1.772144036140162-22.279925554688816,5.953355954603467-33.491854948730179,8.64279086537681-1.073454383398712.257487080218198-2.154223256779005.484504088894028-3.231203355879188.725664002991834-.691683310349617-2.420299657678697-1.38375390138026-4.840595662742999-2.075820838830623-7.260895320421696-1.136182894219019-1.162618416594341-1.229923088880241-2.756602753683183-1.594898602239482-4.189883214297879-1.036081796919461-4.068744407937629-2.981750749140701-7.527901101962925-6.22145053182976-10.233944429815892-.490008718410536-.409289546441869-.937882393940527-.870964823645409-1.06877961318969-1.542800314975466.148394268489938-1.82005166720046,1.704119063690086-1.947969717479282,2.938134174950392-2.300625547875825,6.198368968129216-1.771347767187763,12.409682610608797-3.499401149580081,18.626553365609652-5.204118007506622,19.571580357538551-5.366682888712603,39.032581117629888-11.113874584389123,58.499551846069153-16.842852540947206,15.427560071560947-4.540207766443928,30.895126968989644-8.943270076925728,46.36742892087932-13.328750549790129,1.381291380781477-.391512294202585,2.697563448920846-.97380336968854,4.097035100530775-1.298677221122489,2.599778728559613.648064078004609,4.740870977830127,2.088618939462322,6.685955355429542,3.867802467975707.319133902010435,1.582511489486933-.764243635640014,2.239145731688041-1.944499802970313,2.512351818484603-5.323706493058125,1.232318431295425-10.227746863020002,3.619605800962745-15.108228875618806,5.882579333141621-4.655333095870446,2.158582855226996-9.354538517320179,4.302323330248328-13.80515357962031,6.950859968299483-4.031051239750013,2.398857011430664-8.068474342919217,4.756781050347854-11.869363938560127,7.513135426561348-6.741833382369805,4.889096842911385-12.696719712119375,10.552417310740566-17.454652961809188,17.427330388305563-1.029940109770905,1.488201102627499-1.799101479440651,3.211670459630113-3.480257721161252,4.16237540936163Z" fill="none" stroke="#181818" stroke-linecap="round" stroke-linejoin="round" stroke-width="43"/>
          <path d="M123.350735492029344,79.596435002409635c3.69939282642008-5.729235465552847,7.79568259430016-11.064953354087265,12.902804188890514-15.709517097688149,5.830751908180901-5.302645332460088,12.198399073269684-9.660130376974848,19.051747372499449-13.493290579783206,9.477956834980432-5.301125846755895,19.163262289350314-10.069397094604938,29.577269242170587-13.230088991425873,1.152430415200797-.349767529140081,1.715989582169641-1.032670884953404,2.13049683420104-2.015970355441823,3.73462806192947,2.499207901866612,5.696708946739818,6.197011514395854,6.928188465559288,10.357322286026829.847034016869657,2.861445441105388,1.796543965449018,5.700352453002779,2.243158978750216,8.666706328504006-1.073512840859621,1.586695554095058-2.951707267020538,1.434922308751993-4.464323337240785,1.853116918056912-6.881597867970413,1.902553166348298-13.617081308490015,4.143332527801249-20.239917218808841,6.849456213072699-8.044141424181362,3.286881349475152-16.327344641120362,5.983811415702803-24.430776546611014,9.13239399765007-7.095384115420529,2.756913225523022-14.084441413770037,5.787249868128129-21.123501764090179,8.689456609083209-.362735861828696.149563416371166-.753984350980318.230041369652099-1.131911845870491.342706121109586-.315114951459691-.646701882809793-.79610295268867-1.12758258271424-1.443234369449783-1.442291449164259Z" fill="none" stroke="#181818" stroke-linecap="round" stroke-linejoin="round" stroke-width="43"/>
          <path d="M139.153504786470876,220.356163043725246c5.587378877538868-2.553758717127494,11.174743140718419-5.107517434258625,16.762092789529561-7.661261540946725,7.705453500970179-.359738240937077,15.271105980429638-1.45008611862977,22.629219853750328-3.904260080245876,18.005702231819669-6.005518876165297,36.401184209038547-10.573443559460429,54.91973375913949-14.668954292530543.611713501690247-.135292669607225,1.269053052828895-.064461258996744,1.904851029050405-.08967887754261.344036781019895,1.09680569194461.688307391899798,2.193582163006795,1.032592617129922,3.290358634072618-.568148077780279,1.345110110947644-1.924551193909792,1.324202572048307-3.018334159871301,1.630276668765873-14.292513444268479,3.999490924790734-28.588402806988597,7.98682596393337-42.879337899759776,11.992102622760285-13.292072431499037,3.725326027906704-26.598379255108739,7.400158376960462-39.889530981568896,11.128874026824633-3.89564914229959,1.09291931504049-3.966119613320188,1.261202357000002-3.288509937059644,5.378263488306402.051866383579181.315220231834246.094438030628226.630981049926049.112779059478271.949883112509269.179844383301315,3.433044186058396-.871673837309572,6.569993205568608-2.315558546029933,9.611638328333356-.803790108999237,1.32037463690358-1.672760288658537,2.594551064164989-2.781902952900055,3.686710636353382-2.296611020989076,2.626767083223967-5.104666381168499,4.464015237696003-8.458714440839685,5.453565693398559-4.237851820438664,1.272569278917217-8.360695890649367,3.063546171550115-12.924740351680157,2.865735431398207-1.69780931133937-2.223825772740383-3.185537116920386-4.488531555147347-3.495814713360232-7.427815938900494-.492993702579042-4.670022434397652,1.913626955611107-7.867268737648374,5.057403522760069-10.746212006338283,3.479950819481019-3.186785228583176,7.594735067050351-5.494270377797875,11.478773095870565-8.11666893961592,1.700359518139521-1.148029892769046,3.169074034040023-2.659962001725944,5.154998256361068-3.372556966602133Z" fill="none" stroke="#181818" stroke-linecap="round" stroke-linejoin="round" stroke-width="43"/>
          <path d="M144.45743804284939,238.067419928798699c1.428393481161038-3.036516858506729,2.454146575169943-6.173173669225434,2.38420222133027-9.582300565853075.752391385120063-.792762446313645,1.764260831800129-1.066240652546185,2.761837428899526-1.342451010961668,26.597341635151679-7.364202085391298,53.163730043921532-14.839399679533017,79.750593178920099-22.24119442571282,8.452525257011075-2.353186603915674,16.903150646481663-4.713780700647476,25.353878336520211-7.073717327602935,1.053535003049547-.294225030298549,2.127749333460088-.840918454849088,3.183549563191264.017006551557643.028308026199738.811083937425792.056616052399477,1.622167874853403.08496792169899,2.433281033157982-.467104353889226,2.746207425991088-1.11379003249931,5.42208019631471-2.98511570681876,7.618350680188087-1.935877327261551,1.21176062979066-4.206409012811491,1.407394414462033-6.331001643300624,2.005808794780023-33.427847680910418,9.415288632131706-66.890959826070684,18.70495670559103-100.334225662711106,28.065514631418409-1.247643007189254.349204114068925-2.555584886929864,1.109063850670282-3.868685637729868.099701639028353Z" fill="none" stroke="#181818" stroke-linecap="round" stroke-linejoin="round" stroke-width="43"/>
          <path d="M257.891498771710758,197.844763150225845c-4.851209438260412.86771400086036-9.51417123299143,2.452610644593733-14.24735505451099,3.764584278795155-14.379658906440454,3.98588860563359-28.745901825239343,8.020050103317772-43.117552059329682,12.034808937367416-15.51794261572104,4.334990446626762-31.03440918051092,8.675255261907296-46.555917701440194,12.997432353107797-2.364268226630884.658346403077303-4.752328640479391,1.231250956059739-7.129223679010465,1.843603695646379-.119048622318587-.540469377332556-.239529452479474-1.080573493678457-.357306624999183-1.621291248482521-.765325098700487-3.5139860207928-.318125510779282-4.179360045260182,3.19147054936002-5.162204309242952,26.397548642780748-7.39254633798555,52.790902962620748-14.800126818201534,79.184213439379164-22.207824181932665,2.518829757400454-.706940724796368,5.028408621370545-1.446827990625025,7.542225651370245-2.171461957634165,5.796086632939478-1.581360917378333,11.591617919990313-3.164942621555383,17.38859602923003-4.743235346642905q3.679283459319777-1.001691730914899,4.205122948629651,2.846756470509717c-.034723732709608.806262492395035-.069505922880126,1.612539595233102-.104273498678594,2.418831308508743Z" fill="none" stroke="#181818" stroke-linecap="round" stroke-linejoin="round" stroke-width="43"/>
          <path d="M41.464727744889387,66.197452983178664c7.215205472321031-2.0694445639474,14.42402081327964-4.161484172553173,21.647097948280134-6.203088544067214,11.096808382470044-3.136510706324771,22.199184838240399-6.253523781158947,33.306782276129525-9.351654689269708,20.957109904351455-5.845362891166587,41.914716697121548-11.6891414628044,62.884029596760229-17.490517343032479,4.203266924199852-1.162875012434597,8.31498946217107-2.711158579690164,12.719393900380965-3.091047926849569,1.527464265689559-.131747126863047,3.015089770709892-.198601758476798,4.48606951327929.288712328849215.457122742180218,2.060850543641209-1.185853469360154,2.333078415857017-2.471099239299292,2.733302641174305-3.419966155790462,1.064974566650562-6.894999241230835,1.943935866454922-10.331275029060635,2.962664282957121-11.586473663279321,3.434954044445476-23.206954955359834,6.753316325244668-34.787882466898736,10.209769174813118-18.049443028110545,5.387048015045366-36.070088448781462,10.871560445571959-54.260797588551213,15.783725346122083-7.680031811980371,2.073893442768167-15.343158456518722,4.232403245801834-22.990647729850025,6.435774403264077-1.144304827908854.329695524749695-2.128642636558652,1.136272141595327-3.384084234608963,1.100421775714494-2.327339551511614-.679918716972679-4.764328861450849-1.036742175230756-6.903946886590347-2.290807332545228-.196568697960174-.379991962665372-.198194546130253-.745194507968336.08635994002907-1.087254117130215Z" fill="none" stroke="#181818" stroke-linecap="round" stroke-linejoin="round" stroke-width="43"/>
          <path d="M139.153512093649624,220.356163043725246c-3.092056327230239,3.147643861211691-6.984249172070122,5.196524231585499-10.570592573239992,7.661451476662478-2.944458541678614,2.023735804024909-5.79996674701033,4.092895464404137-8.11022758549916,6.895806006024941-2.966080495611095,3.598624296713751-3.375012367150703,8.246833344965125-.864870850111402,12.145570679085722.584494245731548.907848878117875,1.523065341640176,1.692911622825704,1.350330847220903,2.960527962759443-9.567221380180854.286481497369095-18.075500442020711-5.955624225334759-20.652400381199186-15.160259541005871-.362962384500861-1.296501178789185-.689783442820044-2.603142002579261-1.034075975241649-3.904742224747679,2.177277418541053-.419465717539424,3.414398082490152-2.228676438646289,4.98349867583056-3.496292778578209,2.873089287180846-2.321043637053663,5.885928445581158-4.525057653854674,8.08453553074105-7.577368397440296.35250580588945,2.688627683990489,2.90079812438853,2.485162703756941,4.188338349718833,2.186043176234307,4.886488516860481-1.135304199979146,9.803893724179943-.04706022557184,14.678288853490812-.689978004555087,2.644001798929821-.348736580006516,5.235676861759202-1.197851491404435,7.94717510828923-1.020758354439749Z" fill="none" stroke="#181818" stroke-linecap="round" stroke-linejoin="round" stroke-width="43"/>
          <path d="M144.45743804284939,238.067405318357487c4.360064452921506-.509144595082034,8.449573155150574-2.098775021206166,12.643735329569608-3.244262697506201,15.679095225390483-4.282275980973282,31.323861305951141-8.690362456331059,46.975861497481674-13.071492670842417,15.500230004588957-4.338672277375736,30.993225898198943-8.703219643075499,46.490679173319222-13.051856240177585,1.447845201810196-.406257880247722,2.879220013559461-.921451197278657,4.423724629559729-.80339884625937-.567256601469126,1.8619836285161-1.932735238649911,3.096112841154536-3.365776088079656,4.277103885397082-12.744574452339293,3.521364292730141-25.460007859639518,7.146915629409705-38.198736565729632,10.688851420931314-22.261288584939393,6.189639634521882-44.511251036519752,12.41947258806249-66.770011336209791,18.61773238187925-1.439383484110294.400808186321228-3.09780708010112,1.685869390996231-4.604898920120831-.040470917365383.801802555281029-1.12406877201829,1.603605110560238-2.248137544036581,2.405422280209677-3.37220631605669Z" fill="none" stroke="#181818" stroke-linecap="round" stroke-linejoin="round" stroke-width="43"/>
          <path d="M142.052023069820279,241.439626244853571c1.895548985339701.706663126444255,3.57509033964925-.32649949111601,5.265753226200104-.791432896323386,15.765042309589262-4.335311876293417,31.508192299488655-8.750411362605519,47.251517661779872-13.164385845071592,16.585185893720336-4.650035353186468,33.152089216058812-9.365905346678119,49.758012894599233-13.940463169497889,2.366723440050919-.651976251463566,4.654441619570207-2.072300904867006,7.298458032861163-1.369728701476561-2.007210045840111,2.1612638708757-4.538798144430984,3.509208407082042-7.311216374049764,4.287360413914939-30.824342289110064,8.651951610931064-61.659499208781199,17.26547776602456-92.498485092250121,25.865167834928798-5.962748858450141,1.662755675733933-11.954631454760602,3.221119761365117-17.933127292160862,4.827596024213562,2.932854735370711-1.604869114504254,5.794822490310253-3.311047016381053,8.169086943020375-5.714113660687872Z" fill="none" stroke="#181818" stroke-linecap="round" stroke-linejoin="round" stroke-width="43"/>
          <path d="M41.464654673060068,67.142470819340815c2.242822848340438.53820841182096,4.501220956839461,1.023687747550866,6.627505200149244,1.956462035428558.815108935170429.192733612431766,1.560841649959912.496681890203035,2.020253367150872,1.259606166486265,5.460833085659033,3.881591983388716,7.480089022359607,9.621777973332428,8.5711354483592,15.863120300573428-3.939298598808818,1.014658495954791-7.878414518048885,2.02932064452034-11.817528610499721,3.043986445693008-1.334165532049155.083418304224324-1.460121268930379-1.045756816391076-1.733777091920274-1.870793723523093-2.085913885079208-6.288731287702831-5.284640466968995-11.908782939004595-9.831851918999746-16.752202069179475-.647669408099318-.689853815820243-1.334959274779976-1.466311011674406-.537092550839589-2.50966806337965,1.022387222928955-.651055793776322,2.206620324510368-.755571572613917,3.351785573189773-.992012314756721,1.116612431860631-.199498245914583,2.233350912631067-.676656936358995,3.349570583410241.00150122265768Z" fill="none" stroke="#181818" stroke-linecap="round" stroke-linejoin="round" stroke-width="43"/>
          <path d="M34.763298516460054,68.132981911439856c.021445668140586,2.395812561104322,2.221653026339482,3.373791548738154,3.426801111909299,4.922823216151301,3.162581602120554,4.064996830211385,5.468257183390961,8.504426350868016,7.199705110790092,13.306315306814213.365812185789764,1.014519696778734.423248469471218,2.223672363121295,1.476114865290583,2.903419407430192-3.306578773350338,1.255895114860323-6.737301102239144,2.06741006025004-10.178737587919386,2.840550686340066-1.125031219849916-1.206559313335674-1.296812126920486-2.866962708312712-2.026184059401203-4.269422446839599-2.1242857288089-4.084640566094095-4.960198810049405-7.357908638585286-9.420511874030126-8.984664191435513-.760284512649378-.277287878325296-1.786000385698571-.469506472765715-1.537574209798549-1.717409677226897,2.220532743878721-4.801184002240916,5.921660569518281-7.784120726555557,11.060386643159291-9.001612301233763Z" fill="none" stroke="#181818" stroke-linecap="round" stroke-linejoin="round" stroke-width="43"/>
          <path d="M23.702911873300764,77.134594212673619c.299330294848914.760568342915576.98965104394847.901347232547778,1.668732660838941,1.162242197775413,6.38328042601097,2.452413403660103,9.804553654130359,7.35398938819344,11.315533828799744,13.809232202067506-3.786329120488517,1.095600330687375-7.571346601658661,2.195759118492788-11.360000319678875,3.283257960485571-.853027276871217.244856355286174-1.588873373329989.139113299532255-1.902352429229722-.846353538336189-1.75650836755085-5.521800098391395-2.922929097820088-11.054101450161397-.232908459820464-16.636600619383898.132699581568886-.275384868584297.338978840420168-.515328463594415.510994719090377-.771778202608402Z" fill="none" stroke="#181818" stroke-linecap="round" stroke-linejoin="round" stroke-width="43"/>
          <path d="M50.112413240360183,70.358539021255638c-.673137680380023-.419977082923651-1.346275360760046-.839954165843665-2.019833204140014-1.25977053393035,15.663717259169061-4.395850232291195,31.368957584649252-8.652057536619395,46.977224287069475-13.238124733139557,10.03632059497977-2.948903531847463,20.030113385999357-6.068648758864583,30.050643158920138-9.06681686633965,11.084609040770374-3.316542367932925,22.078806308649291-6.963836778018958,33.314389053439299-9.791391478438527,5.379357997331681-1.353770905527199,10.653200274900883-3.124531972252953,15.983804748531838-4.675655671971981,1.06980079198911-.311294817660382,1.935073537148128-.743992571033232,2.089474309908837-1.977037871693028,1.375153347209562-.109261660500124,2.610505672930231.355166657249356,3.818879879710948.930188011798236-.700393472261567,1.292827566410779-2.083584720561703,1.42421468291468-3.25856510191079,1.764315580034236-16.376814268740418,4.740294082545006-32.773489460350902,9.411860657764919-49.153767333749784,14.140251797894962-18.892691924289466,5.453635092986588-37.718428132500776,11.139581652658308-56.718974075050937,16.218048054312021-6.280578428319131,1.67867009694055-12.531274132548788,3.471831250273681-18.772046682519431,5.293417013621365-.883803760769297.25796557211288-2.206369140109018.199341183688375-2.311229040209582,1.662576697852273Z" fill="none" stroke="#181818" stroke-linecap="round" stroke-linejoin="round" stroke-width="43"/>
          <path d="M41.464654673060068,67.142470819340815c-1.116612431860631-.000485797114379-2.233223036919298-.000967941618001-3.349703939500614-.001479307000409,1.051198531360569-.546876055044777,2.155642677051219-.904331414811168,3.349777011329934-.943545834383258-.000023748340027.31501203307198-.000047496689149.630020413531383-.00007307182932.945025141383667Z" fill="none" stroke="#181818" stroke-linecap="round" stroke-linejoin="round" stroke-width="43"/>
          <g>
            <path d="M186.728387584409575,97.410725587247725c.502343299989661.969269492230524,1.659445258361302,1.41368245630656,1.928097639090993,2.611544428382331.529741193930022,2.362004865637573-.522469093360996,3.972642885131791-3.394897812369891,4.782024982641815-10.456923574760367,2.946513027594847-20.919049834690668,5.874765364891573-31.386247619660935,8.784632343798876-6.872397360299146,1.910515736199159-13.756894242649651,3.777579637959207-20.635969839589961,5.664106321602958-1.446987706900472-1.996749655334497-2.052630539710663-4.298730475373304-2.429326077990481-6.683771183164936,9.953388903570158-2.824878830691887,19.903648180699747-5.660818541960907,29.86119777507156-8.470982443046523,7.379790325319846-2.082682369082249,14.769789280810073-4.12921690685107,22.151853048399062-6.203909598312748.363328134959374-.102113175908016.694113984200158-.319785481773579,1.040056115190964-.483645875636284.955078923958354.000001023734512,1.910157847909431.000001023734512,2.86523677185869.000001023734512Z" fill="none" stroke="#181818" stroke-linecap="round" stroke-linejoin="round" stroke-width="43"/>
            <path d="M141.281599089870724,153.672856047465757c8.069594241909726-2.313905277387676,16.131836229829787-4.653785196918761,24.210680904279798-6.935007414920619,9.693025114420379-2.737023316394698,19.398459434529286-5.430254463564779,29.102166812908763-8.129400520132549,3.457708941561577-.961778828217575,5.822322068470385.591374461782834,5.552409093150345,3.623586336707376-.174246233440499,1.957532896025441-1.448292021530506,2.855732818094111-3.203469601849065,3.344715648232523-13.676110532231178,3.810075240216975-27.345109270720059,7.645626450210329-41.021933897000054,11.453135529733117-4.043612174729788,1.125700077396687-8.105218790700746,2.186874863142293-12.158580535129659,3.27761327605549-.585662772929936-2.301667784833626-.720644763950986-4.771577432667982-2.481272776360129-6.634642855675338Z" fill="none" stroke="#181818" stroke-linecap="round" stroke-linejoin="round" stroke-width="43"/>
            <path d="M130.810043873889299,112.569262480508769c1.441515414790047,1.998738884863997,1.768581416990855,4.401786396841999,2.429326077990481,6.683776643079909-11.587268866489467,3.258225113029766-23.168606380399069,6.537760279647046-34.76578785592028,9.760381278032582-3.073560046708735.854080157860153-5.415848284819731-1.199922180519934-4.867643911578853-4.137564663986268.318271100639322-1.705506796366535,1.495841439898868-2.506776823131077,3.065572030420299-2.939695412020228,9.476447859688051-2.61353274792782,18.947525440698882-5.246500978157201,28.423249187169858-7.862661765830126,1.898779706578352-.52423569016355,3.809870248738662-1.003978521835961,5.715284471918494-1.50423607927587Z" fill="none" stroke="#181818" stroke-linecap="round" stroke-linejoin="round" stroke-width="43"/>
            <path d="M141.281599089870724,153.672856047465757c1.909086706849848.909036036089674,3.162179664079304,4.259677513557108,2.481269133018941,6.634650135565607-11.115861140609923,3.135520772517339-22.227009624870334,6.287901766783762-33.350430689670247,9.3964359926631-3.40070529148943.950353043226642-5.770776137158464-.747207754850024-5.397876955999891-3.78008937951563.239869107919731-1.950908197497483,1.577150473949587-2.733976683060973,3.331425417531136-3.215432108499954,9.770577184948706-2.68147412725375,19.525695691168949-5.41911623417036,29.28901170555946-8.127085515592626,1.206684131049769-.334689233488461,2.430644965950705-.607171819810901,3.646601389560601-.908479124620499Z" fill="none" stroke="#181818" stroke-linecap="round" stroke-linejoin="round" stroke-width="43"/>
            <path d="M164.300595481359778,132.602216151226457c-11.605332531129534,3.291641621179224-23.175769180859788,6.709177994001948-34.878433458859945,9.649674193755345-1.743551692079564-1.934473849225469-2.152377819000321-4.250828809093946-1.933886901530059-6.746662139848922,11.86332450791997-3.558828088625887,23.786556405470037-6.903161542712041,35.78553327840018-9.976295490825578,1.29001817732933-.146962748938677,2.255393171530159.667813290952836,3.231982356890512,1.248247900304705,1.325489705968721.78780041308346,1.491975631668538,2.378128453668978.371438203039361,3.406831296793825-.867609690229074.796510799664247-1.477467863900529,1.873490223326371-2.576633477940049,2.418204239820625Z" fill="none" stroke="#181818" stroke-linecap="round" stroke-linejoin="round" stroke-width="43"/>
            <path d="M139.899225963959907,176.060325853526592c9.350977710641018-2.666732353056432,18.690314959691023-5.375491502378281,28.061975894239367-7.967590438613115,2.071827282161394-.573043702561336,3.967703249179976.713145156592873,4.421036380401347,2.601948625364457.468525846328703,1.952131218764407-.549050879830247,3.856833964000543-2.617905199020242,4.438344176876853-9.13909944973966,2.56885425227847-18.298200819401245,5.066664072761341-27.450059235190565,7.590201019174856-1.1015337830504-2.113693784074712-1.856090727420451-4.352914685423457-2.415047840429907-6.662903382803051Z" fill="none" stroke="#181818" stroke-linecap="round" stroke-linejoin="round" stroke-width="43"/>
            <path d="M139.899225963959907,176.060325853526592c1.55824428762935,1.948462154963636,2.18486909800049,4.233968587344862,2.415047840429907,6.662903382803051-8.931691563309869,2.534369420489384-17.856125599389998,5.094779002116411-26.800361171850454,7.584151431834471-2.140094308439075.595633196553536-4.111764435900113-.445085102528537-4.669420877618904-2.225068798117718-.627408127809758-2.002617245456349.201511145569384-4.089724876757828,2.205457595158805-4.65570708748055,8.930809875770137-2.522386724031094,17.896311606060408-4.92218740574026,26.849276613880647-7.366278929039254Z" fill="none" stroke="#181818" stroke-linecap="round" stroke-linejoin="round" stroke-width="43"/>
            <path d="M164.300595481359778,132.602216151226457c.722947352909614-.972745980230684.948848817759426-2.182860004639224,2.233686169920475-2.912217472907287,1.266285480369334-.718816189730205.618427302209966-2.174571851590372-.456524694391192-2.516695671203706-1.125055166459788-.358070415353723-1.844155155538829-1.154350078559219-2.803882977448666-1.644324793503984,8.822886948339146-2.522763458262489,17.635434106399771-5.082832705100373,26.476224412559532-7.541525864742653,2.168055097939941-.602951304459566,4.079378813670701.509200900454744,4.588797474039893,2.333910410965473.608189525350099,2.178450212186362-.464387015550528,4.089519219909562-2.800137627060394,4.742230382184061-9.073074897369224,2.535406804601735-18.15778661297918,5.02928912524294-27.238162757619648,7.538623009208095Z" fill="none" stroke="#181818" stroke-linecap="round" stroke-linejoin="round" stroke-width="43"/>
            <path d="M127.488275120969774,135.50522820513288c.644630181619505,2.248888593265292,1.289260363240828,4.497777186528765,1.933890544860333,6.746662139848922-8.450266482459483,2.404317852520762-16.8922389083491,4.838377689475237-25.356306351210151,7.193170460581314-2.268873518280088.631217291502253-4.209751072590734-.461286494370142-4.710469899719101-2.403808260325604-.556643138630534-2.159477002802305.525458906749918-4.06022676858629,2.919563935509359-4.657628978042339,7.481685351740452-1.866898284297349,14.748333669449494-4.540360894265177,22.363255853810188-5.915688348064577.961287170130163-.173618060651279,1.756379881509929-1.045435666823323,2.850065916749372-.962707013997715Z" fill="none" stroke="#181818" stroke-linecap="round" stroke-linejoin="round" stroke-width="43"/>
          </g>
        </g>
        <g>
          <path d="M257.995816113489127,195.425902620838315c.13684891965022-.018978960888489.27119878278063-.007889637319749.40307881811168.033253360261369v4.787548809594227c-.140560968509817.013602319158963-.281355766881461.024063393826509-.422369780730151.031368613568702-.769914009501008-.653729504201692-.704938539960494-1.553250431814376-.721116642700508-2.430446607899285.010288513400155-.878978649700002-.051486410069629-1.781699263559858.740407605318978-2.421724175525014Z" fill="#f6d4bc" stroke-width="0"/>
          <path d="M197.539576083519933,58.524934098608355c2.484909814800631,8.779263327971421,4.98760531256994,17.553544496080576,7.45101739554957,26.338830977729231,4.97164642531061,17.730305245546333,9.921722046970899,35.466655560430809,14.881121633899966,53.200397911865366,5.066245213960428,18.115805343901229,10.134156465601336,36.231128543297018,15.193430627170528,54.348877075650307.147122818669231.526881668614806.204688804849866,1.078761799182757.304008033590435,1.618997409485019-1.413472213869682,1.039810367521568-3.139735695071067,1.120284668191744-4.755719173310354,1.466888124032266-18.429051175049608,3.952795960205549-36.602672467819502,8.839023678065132-54.497919324299801,14.760006551385231-5.64835001090978,1.868850535072852-11.567548059811088,2.254799904440006-17.40625018289029,3.061077007276253-1.009984193520722.139471255301032-2.084227752649895.11663513838721-3.003734408619493-.527992062014164-1.426698214760108-1.675349874569292-1.763573956621258-3.720548414194127-1.891128139739521-5.8053850761371-.322480591730709-5.270979031185561.29374874892892-10.517295640529483.64887783344966-15.757841126274798.25294544011922-3.732821183357373.441266155479752-7.476044999630176.68079560797014-11.208062608817272.652926012719035-10.173438947311297,1.289615465249881-20.349522384167358,1.869893466489884-30.527110696291857.37626145719878-6.59950629332161.726947774579457-13.205280465183023,1.132043375149806-19.802463698626525.566204367149112-9.221079365310288,1.063545843509928-18.447447709713742,1.722463746138601-27.664041670101142.397496130450236-5.559915082390944.818857519960147-11.132906508119049.961435270930451-16.695005851215683.090901354140442-3.546461375150102,2.206915352011492-5.480792247373756,4.220219588320106-7.678384976021334,4.75791132814993-5.193437776244537,10.223844827400171-9.5805217448451,15.858895765590205-13.771128175896592.907479033070558-.674870810131324,1.860233370820424-1.225870661721274,2.932810892280031-1.580787457627594,4.237742212690137-1.402255192373559,8.66545656406015-2.189144242016482,12.793634877720251-3.94934424387975.302035094229723-.128791024035309.624895659469985-.004784918930454.904103114609825.172472585480136Z" fill="#ffd8a3" stroke-width="0"/>
          <path d="M197.539576083519933,58.524934098608355c-3.339543301799495,2.127700038774492-7.287190356979409,2.494889603844058-10.941980139519728,3.696839323523818-2.199622783580708.723388427042664-4.210369505899507,1.503779483728067-6.150660371569757,2.880667300547429-6.62700100453003,4.702731555789796-12.354458576530305,10.347467544595929-17.88454914085014,16.232183654512482-.441134626189523.469426115349052-.93435485144073.925129375415054-.879258693059455,1.629615546376954.162891719188337,2.082615875140618-.369816521970279,4.107031064602779-.479336577911454,6.16162776942474-.367565909669793,6.896573054098553-.51280347517968,13.807924567734517-1.018255924449477,20.69343021392524-.574929143429472,7.831977221079796-.975260460809295,15.671128167947245-1.458908276579677,23.506473095329056-.488572856980682,7.915293252228366-.929941313019299,15.833026447849988-1.418543398740439,23.747713366841708-.498466782499236,8.074444769508773-1.092511516149898,16.140357042362666-1.433581580959071,24.2264171112638-.307281651490484,7.284545969332612-.923014103711466,14.555942543131096-1.39065918913002,21.833913814698462-.21119219755019,3.287027453872724.057975188408818,6.508293319635413,1.431725556520178,9.561100818165869.146465172229.759026941548655-.468068902020605.95432468611034-.94413186203019,1.166526709153914-5.085799235170271,2.267087284044464-10.197655884221604,4.476317227739855-15.200350529290517,6.926093447071253-.283072954840463.138609239369544-.616886987119869.149742394256464-.936554313469969.184047706159618-4.335190802639772.588406229275279-8.654729619700447,1.322420098433213-13.043350543039196,1.348324407634209-3.245872525360028.019154286161211-6.473206727940124-.051399526098976-9.726137991900032.374830824921446-2.515621904160071.329611514722274-3.750418883981183-.813669985214801-4.401408493260533-2.996484254324969-.110652669280171-7.891259079278825.731083640050201-15.734712800574925,1.197311132009418-23.595918205839553.202518571559267-3.414635032309889.397547280730578-6.833331766800256.598677487550958-10.246593417799886.60381443706865-10.24647653428292,1.32678710420987-20.486772852666036,1.866751377889159-30.734856535291328.494067858449853-9.377133469421096,1.059936095189187-18.751593228416823,1.627455755249684-28.122531871496903.557830335650578-9.211158876900299,1.224070035450495-18.423545030718742,1.662910206239758-27.636902778762305.315231866381509-6.618499864649493,2.813090009130974-12.334702818185178,5.600261440829854-18.06688959251187.833537650230937-1.053836389426579,2.081290265170537-1.414089648355002,3.249920704651231-1.906337270174845,10.197648577030122-4.295429029119987,20.467272904728816-8.428598169955876,30.821638631468886-12.313360618711158,12.199297856759586-4.576950282285907,24.240892094130686-9.658895794840646,36.95651548818023-12.759066685561265.310993700360996-.075817223085323.618684554079664-.146206667901424.939659866160582-.144544730410416.451613126338998,1.451227559213294.903226252668901,2.902453292121209,1.354839379009718,4.353680851334502Z" fill="#fecd95" stroke-width="0"/>
          <path d="M124.794021011759469,81.038748367232984c-1.438426243159483,4.028478036723754-3.268071746739224,7.897764377461499-4.656663003139329,11.958513222392867-1.042208869699607,3.047788812567887-.68916233228083,6.1476200105717-.926843067509253,9.167561325484712-.328238651791253,4.170623002450156-.541659540100227,8.393690177421377-.722059269290185,12.594315717347854-.380280407751343,8.854985583198868-1.210369067690408,17.690079053043519-1.803953448819811,26.53681704315386-.196300158990198,2.925579791515702-.185134783660033,5.853745630820413-.43198603331075,8.790363609366977-.570939421610092,6.791940391745811-.596478025530814,13.627945868971437-1.071715273890732,20.430128178792074-.580066092928973,8.302616002907598-1.001610162009456,16.611850534900441-1.489123477489557,24.918236031197011-.478174735839275,8.147336252086461-1.244362082110456,16.277607510859525-1.351967656159104,24.446231173275009-.422048264690602,1.391600529379502-1.208615343821293,2.486477643313265-2.314009423271273,3.475443681436445-2.543549956850256,2.275605170263589-5.228625430348984,4.379084752985364-7.821257734120081,6.593399129618774-.789606867179828.674403276068915-1.629414080249262,1.639013711575899-2.933505074648565,1.005081352872367-2.664330381499894-9.388580748753157-5.356026162620765-18.76952023765989-7.987518064570395-28.167290952849726-6.257462155510439-22.347017838885222-12.486360533419429-44.702056809044734-18.726939443049559-67.053815735540411-3.932170441981725-14.08376235994001-7.864596635361522-28.167458972904569-11.796909567410694-42.251184806747915.581173131129617-.747097517712973,1.445075779520266-.942219937001937,2.290907764809162-1.171713415169506,8.526020901710581-2.31329279890997,17.02822404104154-4.712038405739804,25.532096871640533-7.104954447217096,6.75809186413062-1.901665582150599,13.754653639240132-2.535009870663998,20.62757057402996-3.827489525985584,4.607010695950521-.866362535207372,9.208182952839707-1.814309764484278,13.889580769800887-2.25488026185667.983261825978843.267349126868794,1.836660399068933.652542405990971,1.694294556398745,1.915238680428956Z" fill="#fcc084" stroke-width="0"/>
          <path d="M123.350735492029344,79.596435002409635c-8.620985049488809,1.51780550562944-17.219558969300124,3.180528307873828-25.868493993029915,4.517657466254605-11.462733829599529,1.772144036140162-22.279925554688816,5.953355954603467-33.491854948730179,8.64279086537681-1.073454383398712.257487080218198-2.154223256779005.484504088894028-3.231203355879188.725664002991834-.691683310349617-2.420299657678697-1.38375390138026-4.840595662742999-2.075820838830623-7.260895320421696-1.136182894219019-1.162618416594341-1.229923088880241-2.756602753683183-1.594898602239482-4.189883214297879-1.036081796919461-4.068744407937629-2.981750749140701-7.527901101962925-6.22145053182976-10.233944429815892-.490008718410536-.409289546441869-.937882393940527-.870964823645409-1.06877961318969-1.542800314975466.148394268489938-1.82005166720046,1.704119063690086-1.947969717479282,2.938134174950392-2.300625547875825,6.198368968129216-1.771347767187763,12.409682610608797-3.499401149580081,18.626553365609652-5.204118007506622,19.571580357538551-5.366682888712603,39.032581117629888-11.113874584389123,58.499551846069153-16.842852540947206,15.427560071560947-4.540207766443928,30.895126968989644-8.943270076925728,46.36742892087932-13.328750549790129,1.381291380781477-.391512294202585,2.697563448920846-.97380336968854,4.097035100530775-1.298677221122489,2.599778728559613.648064078004609,4.740870977830127,2.088618939462322,6.685955355429542,3.867802467975707.319133902010435,1.582511489486933-.764243635640014,2.239145731688041-1.944499802970313,2.512351818484603-5.323706493058125,1.232318431295425-10.227746863020002,3.619605800962745-15.108228875618806,5.882579333141621-4.655333095870446,2.158582855226996-9.354538517320179,4.302323330248328-13.80515357962031,6.950859968299483-4.031051239750013,2.398857011430664-8.068474342919217,4.756781050347854-11.869363938560127,7.513135426561348-6.741833382369805,4.889096842911385-12.696719712119375,10.552417310740566-17.454652961809188,17.427330388305563-1.029940109770905,1.488201102627499-1.799101479440651,3.211670459630113-3.480257721161252,4.16237540936163Z" fill="#fecc81" stroke-width="0"/>
          <path d="M123.350735492029344,79.596435002409635c3.69939282642008-5.729235465552847,7.79568259430016-11.064953354087265,12.902804188890514-15.709517097688149,5.830751908180901-5.302645332460088,12.198399073269684-9.660130376974848,19.051747372499449-13.493290579783206,9.477956834980432-5.301125846755895,19.163262289350314-10.069397094604938,29.577269242170587-13.230088991425873,1.152430415200797-.349767529140081,1.715989582169641-1.032670884953404,2.13049683420104-2.015970355441823,3.73462806192947,2.499207901866612,5.696708946739818,6.197011514395854,6.928188465559288,10.357322286026829.847034016869657,2.861445441105388,1.796543965449018,5.700352453002779,2.243158978750216,8.666706328504006-1.073512840859621,1.586695554095058-2.951707267020538,1.434922308751993-4.464323337240785,1.853116918056912-6.881597867970413,1.902553166348298-13.617081308490015,4.143332527801249-20.239917218808841,6.849456213072699-8.044141424181362,3.286881349475152-16.327344641120362,5.983811415702803-24.430776546611014,9.13239399765007-7.095384115420529,2.756913225523022-14.084441413770037,5.787249868128129-21.123501764090179,8.689456609083209-.362735861828696.149563416371166-.753984350980318.230041369652099-1.131911845870491.342706121109586-.315114951459691-.646701882809793-.79610295268867-1.12758258271424-1.443234369449783-1.442291449164259Z" fill="#ffd48d" stroke-width="0"/>
          <path d="M139.153504786470876,220.356163043725246c5.587378877538868-2.553758717127494,11.174743140718419-5.107517434258625,16.762092789529561-7.661261540946725,7.705453500970179-.359738240937077,15.271105980429638-1.45008611862977,22.629219853750328-3.904260080245876,18.005702231819669-6.005518876165297,36.401184209038547-10.573443559460429,54.91973375913949-14.668954292530543.611713501690247-.135292669607225,1.269053052828895-.064461258996744,1.904851029050405-.08967887754261.344036781019895,1.09680569194461.688307391899798,2.193582163006795,1.032592617129922,3.290358634072618-.568148077780279,1.345110110947644-1.924551193909792,1.324202572048307-3.018334159871301,1.630276668765873-14.292513444268479,3.999490924790734-28.588402806988597,7.98682596393337-42.879337899759776,11.992102622760285-13.292072431499037,3.725326027906704-26.598379255108739,7.400158376960462-39.889530981568896,11.128874026824633-3.89564914229959,1.09291931504049-3.966119613320188,1.261202357000002-3.288509937059644,5.378263488306402.051866383579181.315220231834246.094438030628226.630981049926049.112779059478271.949883112509269.179844383301315,3.433044186058396-.871673837309572,6.569993205568608-2.315558546029933,9.611638328333356-.803790108999237,1.32037463690358-1.672760288658537,2.594551064164989-2.781902952900055,3.686710636353382-2.296611020989076,2.626767083223967-5.104666381168499,4.464015237696003-8.458714440839685,5.453565693398559-4.237851820438664,1.272569278917217-8.360695890649367,3.063546171550115-12.924740351680157,2.865735431398207-1.69780931133937-2.223825772740383-3.185537116920386-4.488531555147347-3.495814713360232-7.427815938900494-.492993702579042-4.670022434397652,1.913626955611107-7.867268737648374,5.057403522760069-10.746212006338283,3.479950819481019-3.186785228583176,7.594735067050351-5.494270377797875,11.478773095870565-8.11666893961592,1.700359518139521-1.148029892769046,3.169074034040023-2.659962001725944,5.154998256361068-3.372556966602133Z" fill="#ffd992" stroke-width="0"/>
          <path d="M144.45743804284939,238.067419928798699c1.428393481161038-3.036516858506729,2.454146575169943-6.173173669225434,2.38420222133027-9.582300565853075.752391385120063-.792762446313645,1.764260831800129-1.066240652546185,2.761837428899526-1.342451010961668,26.597341635151679-7.364202085391298,53.163730043921532-14.839399679533017,79.750593178920099-22.24119442571282,8.452525257011075-2.353186603915674,16.903150646481663-4.713780700647476,25.353878336520211-7.073717327602935,1.053535003049547-.294225030298549,2.127749333460088-.840918454849088,3.183549563191264.017006551557643.028308026199738.811083937425792.056616052399477,1.622167874853403.08496792169899,2.433281033157982-.467104353889226,2.746207425991088-1.11379003249931,5.42208019631471-2.98511570681876,7.618350680188087-1.935877327261551,1.21176062979066-4.206409012811491,1.407394414462033-6.331001643300624,2.005808794780023-33.427847680910418,9.415288632131706-66.890959826070684,18.70495670559103-100.334225662711106,28.065514631418409-1.247643007189254.349204114068925-2.555584886929864,1.109063850670282-3.868685637729868.099701639028353Z" fill="#ea9469" stroke-width="0"/>
          <path d="M257.891498771710758,197.844763150225845c-4.851209438260412.86771400086036-9.51417123299143,2.452610644593733-14.24735505451099,3.764584278795155-14.379658906440454,3.98588860563359-28.745901825239343,8.020050103317772-43.117552059329682,12.034808937367416-15.51794261572104,4.334990446626762-31.03440918051092,8.675255261907296-46.555917701440194,12.997432353107797-2.364268226630884.658346403077303-4.752328640479391,1.231250956059739-7.129223679010465,1.843603695646379-.119048622318587-.540469377332556-.239529452479474-1.080573493678457-.357306624999183-1.621291248482521-.765325098700487-3.5139860207928-.318125510779282-4.179360045260182,3.19147054936002-5.162204309242952,26.397548642780748-7.39254633798555,52.790902962620748-14.800126818201534,79.184213439379164-22.207824181932665,2.518829757400454-.706940724796368,5.028408621370545-1.446827990625025,7.542225651370245-2.171461957634165,5.796086632939478-1.581360917378333,11.591617919990313-3.164942621555383,17.38859602923003-4.743235346642905q3.679283459319777-1.001691730914899,4.205122948629651,2.846756470509717c-.034723732709608.806262492395035-.069505922880126,1.612539595233102-.104273498678594,2.418831308508743Z" fill="#e69154" stroke-width="0"/>
          <path d="M41.464727744889387,66.197452983178664c7.215205472321031-2.0694445639474,14.42402081327964-4.161484172553173,21.647097948280134-6.203088544067214,11.096808382470044-3.136510706324771,22.199184838240399-6.253523781158947,33.306782276129525-9.351654689269708,20.957109904351455-5.845362891166587,41.914716697121548-11.6891414628044,62.884029596760229-17.490517343032479,4.203266924199852-1.162875012434597,8.31498946217107-2.711158579690164,12.719393900380965-3.091047926849569,1.527464265689559-.131747126863047,3.015089770709892-.198601758476798,4.48606951327929.288712328849215.457122742180218,2.060850543641209-1.185853469360154,2.333078415857017-2.471099239299292,2.733302641174305-3.419966155790462,1.064974566650562-6.894999241230835,1.943935866454922-10.331275029060635,2.962664282957121-11.586473663279321,3.434954044445476-23.206954955359834,6.753316325244668-34.787882466898736,10.209769174813118-18.049443028110545,5.387048015045366-36.070088448781462,10.871560445571959-54.260797588551213,15.783725346122083-7.680031811980371,2.073893442768167-15.343158456518722,4.232403245801834-22.990647729850025,6.435774403264077-1.144304827908854.329695524749695-2.128642636558652,1.136272141595327-3.384084234608963,1.100421775714494-2.327339551511614-.679918716972679-4.764328861450849-1.036742175230756-6.903946886590347-2.290807332545228-.196568697960174-.379991962665372-.198194546130253-.745194507968336.08635994002907-1.087254117130215Z" fill="#fbc273" stroke-width="0"/>
          <path d="M139.153512093649624,220.356163043725246c-3.092056327230239,3.147643861211691-6.984249172070122,5.196524231585499-10.570592573239992,7.661451476662478-2.944458541678614,2.023735804024909-5.79996674701033,4.092895464404137-8.11022758549916,6.895806006024941-2.966080495611095,3.598624296713751-3.375012367150703,8.246833344965125-.864870850111402,12.145570679085722.584494245731548.907848878117875,1.523065341640176,1.692911622825704,1.350330847220903,2.960527962759443-9.567221380180854.286481497369095-18.075500442020711-5.955624225334759-20.652400381199186-15.160259541005871-.362962384500861-1.296501178789185-.689783442820044-2.603142002579261-1.034075975241649-3.904742224747679,2.177277418541053-.419465717539424,3.414398082490152-2.228676438646289,4.98349867583056-3.496292778578209,2.873089287180846-2.321043637053663,5.885928445581158-4.525057653854674,8.08453553074105-7.577368397440296.35250580588945,2.688627683990489,2.90079812438853,2.485162703756941,4.188338349718833,2.186043176234307,4.886488516860481-1.135304199979146,9.803893724179943-.04706022557184,14.678288853490812-.689978004555087,2.644001798929821-.348736580006516,5.235676861759202-1.197851491404435,7.94717510828923-1.020758354439749Z" fill="#fecf8e" stroke-width="0"/>
          <path d="M144.45743804284939,238.067405318357487c4.360064452921506-.509144595082034,8.449573155150574-2.098775021206166,12.643735329569608-3.244262697506201,15.679095225390483-4.282275980973282,31.323861305951141-8.690362456331059,46.975861497481674-13.071492670842417,15.500230004588957-4.338672277375736,30.993225898198943-8.703219643075499,46.490679173319222-13.051856240177585,1.447845201810196-.406257880247722,2.879220013559461-.921451197278657,4.423724629559729-.80339884625937-.567256601469126,1.8619836285161-1.932735238649911,3.096112841154536-3.365776088079656,4.277103885397082-12.744574452339293,3.521364292730141-25.460007859639518,7.146915629409705-38.198736565729632,10.688851420931314-22.261288584939393,6.189639634521882-44.511251036519752,12.41947258806249-66.770011336209791,18.61773238187925-1.439383484110294.400808186321228-3.09780708010112,1.685869390996231-4.604898920120831-.040470917365383.801802555281029-1.12406877201829,1.603605110560238-2.248137544036581,2.405422280209677-3.37220631605669Z" fill="#e88e84" stroke-width="0"/>
          <path d="M142.052023069820279,241.439626244853571c1.895548985339701.706663126444255,3.57509033964925-.32649949111601,5.265753226200104-.791432896323386,15.765042309589262-4.335311876293417,31.508192299488655-8.750411362605519,47.251517661779872-13.164385845071592,16.585185893720336-4.650035353186468,33.152089216058812-9.365905346678119,49.758012894599233-13.940463169497889,2.366723440050919-.651976251463566,4.654441619570207-2.072300904867006,7.298458032861163-1.369728701476561-2.007210045840111,2.1612638708757-4.538798144430984,3.509208407082042-7.311216374049764,4.287360413914939-30.824342289110064,8.651951610931064-61.659499208781199,17.26547776602456-92.498485092250121,25.865167834928798-5.962748858450141,1.662755675733933-11.954631454760602,3.221119761365117-17.933127292160862,4.827596024213562,2.932854735370711-1.604869114504254,5.794822490310253-3.311047016381053,8.169086943020375-5.714113660687872Z" fill="#e38494" stroke-width="0"/>
          <path d="M41.464654673060068,67.142470819340815c2.242822848340438.53820841182096,4.501220956839461,1.023687747550866,6.627505200149244,1.956462035428558.815108935170429.192733612431766,1.560841649959912.496681890203035,2.020253367150872,1.259606166486265,5.460833085659033,3.881591983388716,7.480089022359607,9.621777973332428,8.5711354483592,15.863120300573428-3.939298598808818,1.014658495954791-7.878414518048885,2.02932064452034-11.817528610499721,3.043986445693008-1.334165532049155.083418304224324-1.460121268930379-1.045756816391076-1.733777091920274-1.870793723523093-2.085913885079208-6.288731287702831-5.284640466968995-11.908782939004595-9.831851918999746-16.752202069179475-.647669408099318-.689853815820243-1.334959274779976-1.466311011674406-.537092550839589-2.50966806337965,1.022387222928955-.651055793776322,2.206620324510368-.755571572613917,3.351785573189773-.992012314756721,1.116612431860631-.199498245914583,2.233350912631067-.676656936358995,3.349570583410241.00150122265768Z" fill="#c46343" stroke-width="0"/>
          <path d="M34.763298516460054,68.132981911439856c.021445668140586,2.395812561104322,2.221653026339482,3.373791548738154,3.426801111909299,4.922823216151301,3.162581602120554,4.064996830211385,5.468257183390961,8.504426350868016,7.199705110790092,13.306315306814213.365812185789764,1.014519696778734.423248469471218,2.223672363121295,1.476114865290583,2.903419407430192-3.306578773350338,1.255895114860323-6.737301102239144,2.06741006025004-10.178737587919386,2.840550686340066-1.125031219849916-1.206559313335674-1.296812126920486-2.866962708312712-2.026184059401203-4.269422446839599-2.1242857288089-4.084640566094095-4.960198810049405-7.357908638585286-9.420511874030126-8.984664191435513-.760284512649378-.277287878325296-1.786000385698571-.469506472765715-1.537574209798549-1.717409677226897,2.220532743878721-4.801184002240916,5.921660569518281-7.784120726555557,11.060386643159291-9.001612301233763Z" fill="#d3764e" stroke-width="0"/>
          <path d="M23.702911873300764,77.134594212673619c.299330294848914.760568342915576.98965104394847.901347232547778,1.668732660838941,1.162242197775413,6.38328042601097,2.452413403660103,9.804553654130359,7.35398938819344,11.315533828799744,13.809232202067506-3.786329120488517,1.095600330687375-7.571346601658661,2.195759118492788-11.360000319678875,3.283257960485571-.853027276871217.244856355286174-1.588873373329989.139113299532255-1.902352429229722-.846353538336189-1.75650836755085-5.521800098391395-2.922929097820088-11.054101450161397-.232908459820464-16.636600619383898.132699581568886-.275384868584297.338978840420168-.515328463594415.510994719090377-.771778202608402Z" fill="#df8458" stroke-width="0"/>
          <path d="M50.112413240360183,70.358539021255638c-.673137680380023-.419977082923651-1.346275360760046-.839954165843665-2.019833204140014-1.25977053393035,15.663717259169061-4.395850232291195,31.368957584649252-8.652057536619395,46.977224287069475-13.238124733139557,10.03632059497977-2.948903531847463,20.030113385999357-6.068648758864583,30.050643158920138-9.06681686633965,11.084609040770374-3.316542367932925,22.078806308649291-6.963836778018958,33.314389053439299-9.791391478438527,5.379357997331681-1.353770905527199,10.653200274900883-3.124531972252953,15.983804748531838-4.675655671971981,1.06980079198911-.311294817660382,1.935073537148128-.743992571033232,2.089474309908837-1.977037871693028,1.375153347209562-.109261660500124,2.610505672930231.355166657249356,3.818879879710948.930188011798236-.700393472261567,1.292827566410779-2.083584720561703,1.42421468291468-3.25856510191079,1.764315580034236-16.376814268740418,4.740294082545006-32.773489460350902,9.411860657764919-49.153767333749784,14.140251797894962-18.892691924289466,5.453635092986588-37.718428132500776,11.139581652658308-56.718974075050937,16.218048054312021-6.280578428319131,1.67867009694055-12.531274132548788,3.471831250273681-18.772046682519431,5.293417013621365-.883803760769297.25796557211288-2.206369140109018.199341183688375-2.311229040209582,1.662576697852273Z" fill="#fbc274" stroke-width="0"/>
          <path d="M41.464654673060068,67.142470819340815c-1.116612431860631-.000485797114379-2.233223036919298-.000967941618001-3.349703939500614-.001479307000409,1.051198531360569-.546876055044777,2.155642677051219-.904331414811168,3.349777011329934-.943545834383258-.000023748340027.31501203307198-.000047496689149.630020413531383-.00007307182932.945025141383667Z" fill="#fbc274" stroke-width="0"/>
          <g>
            <path d="M186.728387584409575,97.410725587247725c.502343299989661.969269492230524,1.659445258361302,1.41368245630656,1.928097639090993,2.611544428382331.529741193930022,2.362004865637573-.522469093360996,3.972642885131791-3.394897812369891,4.782024982641815-10.456923574760367,2.946513027594847-20.919049834690668,5.874765364891573-31.386247619660935,8.784632343798876-6.872397360299146,1.910515736199159-13.756894242649651,3.777579637959207-20.635969839589961,5.664106321602958-1.446987706900472-1.996749655334497-2.052630539710663-4.298730475373304-2.429326077990481-6.683771183164936,9.953388903570158-2.824878830691887,19.903648180699747-5.660818541960907,29.86119777507156-8.470982443046523,7.379790325319846-2.082682369082249,14.769789280810073-4.12921690685107,22.151853048399062-6.203909598312748.363328134959374-.102113175908016.694113984200158-.319785481773579,1.040056115190964-.483645875636284.955078923958354.000001023734512,1.910157847909431.000001023734512,2.86523677185869.000001023734512Z" fill="#da844e" stroke-width="0"/>
            <path d="M141.281599089870724,153.672856047465757c8.069594241909726-2.313905277387676,16.131836229829787-4.653785196918761,24.210680904279798-6.935007414920619,9.693025114420379-2.737023316394698,19.398459434529286-5.430254463564779,29.102166812908763-8.129400520132549,3.457708941561577-.961778828217575,5.822322068470385.591374461782834,5.552409093150345,3.623586336707376-.174246233440499,1.957532896025441-1.448292021530506,2.855732818094111-3.203469601849065,3.344715648232523-13.676110532231178,3.810075240216975-27.345109270720059,7.645626450210329-41.021933897000054,11.453135529733117-4.043612174729788,1.125700077396687-8.105218790700746,2.186874863142293-12.158580535129659,3.27761327605549-.585662772929936-2.301667784833626-.720644763950986-4.771577432667982-2.481272776360129-6.634642855675338Z" fill="#da844e" stroke-width="0"/>
            <path d="M130.810043873889299,112.569262480508769c1.441515414790047,1.998738884863997,1.768581416990855,4.401786396841999,2.429326077990481,6.683776643079909-11.587268866489467,3.258225113029766-23.168606380399069,6.537760279647046-34.76578785592028,9.760381278032582-3.073560046708735.854080157860153-5.415848284819731-1.199922180519934-4.867643911578853-4.137564663986268.318271100639322-1.705506796366535,1.495841439898868-2.506776823131077,3.065572030420299-2.939695412020228,9.476447859688051-2.61353274792782,18.947525440698882-5.246500978157201,28.423249187169858-7.862661765830126,1.898779706578352-.52423569016355,3.809870248738662-1.003978521835961,5.715284471918494-1.50423607927587Z" fill="#d4804a" stroke-width="0"/>
            <path d="M141.281599089870724,153.672856047465757c1.909086706849848.909036036089674,3.162179664079304,4.259677513557108,2.481269133018941,6.634650135565607-11.115861140609923,3.135520772517339-22.227009624870334,6.287901766783762-33.350430689670247,9.3964359926631-3.40070529148943.950353043226642-5.770776137158464-.747207754850024-5.397876955999891-3.78008937951563.239869107919731-1.950908197497483,1.577150473949587-2.733976683060973,3.331425417531136-3.215432108499954,9.770577184948706-2.68147412725375,19.525695691168949-5.41911623417036,29.28901170555946-8.127085515592626,1.206684131049769-.334689233488461,2.430644965950705-.607171819810901,3.646601389560601-.908479124620499Z" fill="#d4804a" stroke-width="0"/>
            <path d="M164.300595481359778,132.602216151226457c-11.605332531129534,3.291641621179224-23.175769180859788,6.709177994001948-34.878433458859945,9.649674193755345-1.743551692079564-1.934473849225469-2.152377819000321-4.250828809093946-1.933886901530059-6.746662139848922,11.86332450791997-3.558828088625887,23.786556405470037-6.903161542712041,35.78553327840018-9.976295490825578,1.29001817732933-.146962748938677,2.255393171530159.667813290952836,3.231982356890512,1.248247900304705,1.325489705968721.78780041308346,1.491975631668538,2.378128453668978.371438203039361,3.406831296793825-.867609690229074.796510799664247-1.477467863900529,1.873490223326371-2.576633477940049,2.418204239820625Z" fill="#d9834d" stroke-width="0"/>
            <path d="M139.899225963959907,176.060325853526592c9.350977710641018-2.666732353056432,18.690314959691023-5.375491502378281,28.061975894239367-7.967590438613115,2.071827282161394-.573043702561336,3.967703249179976.713145156592873,4.421036380401347,2.601948625364457.468525846328703,1.952131218764407-.549050879830247,3.856833964000543-2.617905199020242,4.438344176876853-9.13909944973966,2.56885425227847-18.298200819401245,5.066664072761341-27.450059235190565,7.590201019174856-1.1015337830504-2.113693784074712-1.856090727420451-4.352914685423457-2.415047840429907-6.662903382803051Z" fill="#dc854f" stroke-width="0"/>
            <path d="M139.899225963959907,176.060325853526592c1.55824428762935,1.948462154963636,2.18486909800049,4.233968587344862,2.415047840429907,6.662903382803051-8.931691563309869,2.534369420489384-17.856125599389998,5.094779002116411-26.800361171850454,7.584151431834471-2.140094308439075.595633196553536-4.111764435900113-.445085102528537-4.669420877618904-2.225068798117718-.627408127809758-2.002617245456349.201511145569384-4.089724876757828,2.205457595158805-4.65570708748055,8.930809875770137-2.522386724031094,17.896311606060408-4.92218740574026,26.849276613880647-7.366278929039254Z" fill="#d6814b" stroke-width="0"/>
            <path d="M164.300595481359778,132.602216151226457c.722947352909614-.972745980230684.948848817759426-2.182860004639224,2.233686169920475-2.912217472907287,1.266285480369334-.718816189730205.618427302209966-2.174571851590372-.456524694391192-2.516695671203706-1.125055166459788-.358070415353723-1.844155155538829-1.154350078559219-2.803882977448666-1.644324793503984,8.822886948339146-2.522763458262489,17.635434106399771-5.082832705100373,26.476224412559532-7.541525864742653,2.168055097939941-.602951304459566,4.079378813670701.509200900454744,4.588797474039893,2.333910410965473.608189525350099,2.178450212186362-.464387015550528,4.089519219909562-2.800137627060394,4.742230382184061-9.073074897369224,2.535406804601735-18.15778661297918,5.02928912524294-27.238162757619648,7.538623009208095Z" fill="#dd8651" stroke-width="0"/>
            <path d="M127.488275120969774,135.50522820513288c.644630181619505,2.248888593265292,1.289260363240828,4.497777186528765,1.933890544860333,6.746662139848922-8.450266482459483,2.404317852520762-16.8922389083491,4.838377689475237-25.356306351210151,7.193170460581314-2.268873518280088.631217291502253-4.209751072590734-.461286494370142-4.710469899719101-2.403808260325604-.556643138630534-2.159477002802305.525458906749918-4.06022676858629,2.919563935509359-4.657628978042339,7.481685351740452-1.866898284297349,14.748333669449494-4.540360894265177,22.363255853810188-5.915688348064577.961287170130163-.173618060651279,1.756379881509929-1.045435666823323,2.850065916749372-.962707013997715Z" fill="#d47f4a" stroke-width="0"/>
          </g>
        </g>
      </g>
    </a>
  </g>
  <g id="Pattern">
    <a xlink:href="https://www.notion.so/dmmnotes/semantic-thought-2477648bf2934c578347c35b7291e8b9?pvs=4">
      <g id="B">
        <a xlink:href="https://www.notion.so/dmmnotes/Type-B-a682dff89e1b420883ef126b542c812f?pvs=4">
          <g id="B-2" data-name="B">
            <path d="M49.7978515625,270.439453125c-19.98046875,0-36.236328125-15.91796875-36.236328125-35.484375.0009765625-19.56640625,16.255859375-35.4853515625,36.236328125-35.4853515625s36.236328125,15.9189453125,36.236328125,35.4853515625-16.255859375,35.484375-36.236328125,35.484375Z" fill="url(#B3)" stroke-width="0"/>
            <path d="M49.798217773439319,207.384796142578125c15.616455078121362,0,28.321411132810681,12.367950439453125,28.321411132810681,27.570159912109375,0,15.202178955078125-12.704956054689319,27.570098876953125-28.321411132810681,27.570098876953125-15.616455078128638,0-28.321411132808862-12.367919921875-28.321411132808862-27.570098876953125,0-15.20220947265625,12.704956054680224-27.570159912109375,28.321411132808862-27.570159912109375M49.798217773439319,191.55499267578125c-24.384033203128638,0-44.151245117189319,19.430816650390625-44.151245117189319,43.39996337890625,0,23.969085693359375,19.767211914060681,43.399902343750909,44.151245117189319,43.399902343750909,24.384033203121362,0,44.151245117191138-19.430816650391534,44.151245117191138-43.399902343750909,0-23.969146728515625-19.767211914069776-43.39996337890625-44.151245117191138-43.39996337890625h0Z" fill="#181818" stroke-width="0"/>
          </g>
        </a>
        <a xlink:href="https://www.notion.so/dmmnotes/Type-B-a682dff89e1b420883ef126b542c812f?pvs=4">
          <g>
            <path d="M64.63671875,179.14208984375c2.6064453125,1.98046875,4.5458984375,4.44140625,5.8203125,7.380859375,1.2734375,2.94140625,1.6728515625,5.9833984375,1.2001953125,9.126953125-.533203125,3.552734375-1.955078125,6.5380859375-4.265625,8.953125-2.310546875,2.4169921875-5.0361328125,4.32421875-8.1748046875,5.7216796875-3.140625,1.3974609375-6.53125,2.3291015625-10.173828125,2.794921875-3.6435546875.46484375-7.064453125.5234375-10.263671875.1748046875-.296875.115234375-.5634765625.1884765625-.7998046875.2177734375-.2373046875.029296875-.50390625.072265625-.798828125.130859375-1.06640625.0576171875-2.1630859375.0576171875-3.2880859375,0-1.1259765625-.05859375-2.1474609375-.248046875-3.0654296875-.5673828125-.9189453125-.3193359375-1.7041015625-.84375-2.3544921875-1.572265625-.6533203125-.7275390625-1.037109375-1.7607421875-1.1552734375-3.1005859375-.1201171875-.640625-.1484375-1.935546875-.0888671875-3.88671875.0576171875-1.9501953125.1181640625-4.32421875.177734375-7.119140625.1181640625-2.8525390625.2216796875-5.953125.310546875-9.3017578125.0888671875-3.34765625.1630859375-6.7109375.22265625-10.0888671875.0576171875-4.423828125.1181640625-8.87890625.177734375-13.36328125.0576171875-4.4833984375-.1201171875-8.9970703125-.533203125-13.5390625-.1201171875-.5234375-.0595703125-.9892578125.177734375-1.3974609375.1181640625-.3486328125.3837890625-.68359375.7998046875-1.00390625.4130859375-.3193359375,1.03515625-.5380859375,1.865234375-.6552734375.591796875-.0576171875,1.244140625-.14453125,1.955078125-.26171875.7109375-.1162109375,1.451171875-.2041015625,2.2216796875-.2626953125.76953125-.056640625,1.5107421875-.056640625,2.2216796875,0,.7109375.05859375,1.33203125.1748046875,1.865234375.349609375,3.021484375-.40625,6.189453125-.421875,9.5078125-.0439453125,3.3173828125.3798828125,6.4423828125,1.150390625,9.375,2.3154296875,2.931640625,1.1650390625,5.478515625,2.72265625,7.6416015625,4.6728515625,2.1611328125,1.951171875,3.5986328125,4.3232421875,4.3095703125,7.1181640625.2958984375,1.22265625.4736328125,2.5048828125.533203125,3.84375.0576171875,1.33984375-.0888671875,2.72265625-.4443359375,4.1484375-.35546875,1.427734375-.93359375,2.912109375-1.7333984375,4.455078125-.798828125,1.54296875-1.880859375,3.1298828125-3.2431640625,4.759765625ZM41.5341796875,173.98876953125c2.84375.1171875,5.2421875-.1748046875,7.197265625-.873046875,1.955078125-.69921875,3.4208984375-1.6162109375,4.3984375-2.751953125s1.451171875-2.3720703125,1.421875-3.7119140625c-.0302734375-1.3388671875-.548828125-2.533203125-1.5546875-3.5810546875-1.0078125-1.0478515625-2.5185546875-1.84765625-4.5322265625-2.40234375-2.0146484375-.552734375-4.5615234375-.625-7.6416015625-.2177734375.177734375,2.2705078125.3115234375,4.5126953125.400390625,6.7255859375s.19140625,4.484375.310546875,6.8125ZM41.80078125,199.31884765625c3.19921875.349609375,5.8935546875.205078125,8.0859375-.4365234375,2.19140625-.640625,3.8349609375-1.513671875,4.931640625-2.6201171875,1.095703125-1.10546875,1.658203125-2.2998046875,1.6884765625-3.58203125.029296875-1.279296875-.4892578125-2.38671875-1.5556640625-3.318359375-1.0654296875-.9306640625-2.6953125-1.5576171875-4.88671875-1.8779296875-2.1923828125-.3193359375-4.9462890625-.1015625-8.263671875.6552734375v11.1796875Z" fill="none" stroke="#181818" stroke-miterlimit="10" stroke-width="29.021327972412109"/>
            <path d="M64.63671875,179.14208984375c2.6064453125,1.98046875,4.5458984375,4.44140625,5.8203125,7.380859375,1.2734375,2.94140625,1.6728515625,5.9833984375,1.2001953125,9.126953125-.533203125,3.552734375-1.955078125,6.5380859375-4.265625,8.953125-2.310546875,2.4169921875-5.0361328125,4.32421875-8.1748046875,5.7216796875-3.140625,1.3974609375-6.53125,2.3291015625-10.173828125,2.794921875-3.6435546875.46484375-7.064453125.5234375-10.263671875.1748046875-.296875.115234375-.5634765625.1884765625-.7998046875.2177734375-.2373046875.029296875-.50390625.072265625-.798828125.130859375-1.06640625.0576171875-2.1630859375.0576171875-3.2880859375,0-1.1259765625-.05859375-2.1474609375-.248046875-3.0654296875-.5673828125-.9189453125-.3193359375-1.7041015625-.84375-2.3544921875-1.572265625-.6533203125-.7275390625-1.037109375-1.7607421875-1.1552734375-3.1005859375-.1201171875-.640625-.1484375-1.935546875-.0888671875-3.88671875.0576171875-1.9501953125.1181640625-4.32421875.177734375-7.119140625.1181640625-2.8525390625.2216796875-5.953125.310546875-9.3017578125.0888671875-3.34765625.1630859375-6.7109375.22265625-10.0888671875.0576171875-4.423828125.1181640625-8.87890625.177734375-13.36328125.0576171875-4.4833984375-.1201171875-8.9970703125-.533203125-13.5390625-.1201171875-.5234375-.0595703125-.9892578125.177734375-1.3974609375.1181640625-.3486328125.3837890625-.68359375.7998046875-1.00390625.4130859375-.3193359375,1.03515625-.5380859375,1.865234375-.6552734375.591796875-.0576171875,1.244140625-.14453125,1.955078125-.26171875.7109375-.1162109375,1.451171875-.2041015625,2.2216796875-.2626953125.76953125-.056640625,1.5107421875-.056640625,2.2216796875,0,.7109375.05859375,1.33203125.1748046875,1.865234375.349609375,3.021484375-.40625,6.189453125-.421875,9.5078125-.0439453125,3.3173828125.3798828125,6.4423828125,1.150390625,9.375,2.3154296875,2.931640625,1.1650390625,5.478515625,2.72265625,7.6416015625,4.6728515625,2.1611328125,1.951171875,3.5986328125,4.3232421875,4.3095703125,7.1181640625.2958984375,1.22265625.4736328125,2.5048828125.533203125,3.84375.0576171875,1.33984375-.0888671875,2.72265625-.4443359375,4.1484375-.35546875,1.427734375-.93359375,2.912109375-1.7333984375,4.455078125-.798828125,1.54296875-1.880859375,3.1298828125-3.2431640625,4.759765625ZM41.5341796875,173.98876953125c2.84375.1171875,5.2421875-.1748046875,7.197265625-.873046875,1.955078125-.69921875,3.4208984375-1.6162109375,4.3984375-2.751953125s1.451171875-2.3720703125,1.421875-3.7119140625c-.0302734375-1.3388671875-.548828125-2.533203125-1.5546875-3.5810546875-1.0078125-1.0478515625-2.5185546875-1.84765625-4.5322265625-2.40234375-2.0146484375-.552734375-4.5615234375-.625-7.6416015625-.2177734375.177734375,2.2705078125.3115234375,4.5126953125.400390625,6.7255859375s.19140625,4.484375.310546875,6.8125ZM41.80078125,199.31884765625c3.19921875.349609375,5.8935546875.205078125,8.0859375-.4365234375,2.19140625-.640625,3.8349609375-1.513671875,4.931640625-2.6201171875,1.095703125-1.10546875,1.658203125-2.2998046875,1.6884765625-3.58203125.029296875-1.279296875-.4892578125-2.38671875-1.5556640625-3.318359375-1.0654296875-.9306640625-2.6953125-1.5576171875-4.88671875-1.8779296875-2.1923828125-.3193359375-4.9462890625-.1015625-8.263671875.6552734375v11.1796875Z" fill="#fff" stroke-width="0"/>
          </g>
        </a>
      </g>
    </a>
  </g>
</svg>