<?xml version="1.0" encoding="UTF-8"?>
<svg id="Pattern" xmlns="http://www.w3.org/2000/svg" width="280" height="280" xmlns:xlink="http://www.w3.org/1999/xlink" viewBox="0 0 280 280">
  <a xlink:href="https://www.notion.so/dmmnotes/body-state-27e3c98a3f524607904fb5cc23d53c04?pvs=4">
    <g>
      <g>
        <path d="M167.83520582338042,103.070930545235569c-.295479668344342.561423852452208-.55421306574317,1.146008384292145-.891695356799573,1.680941929120308-15.936451079449398,25.260901948421633-31.878780130128689,50.518081952482135-47.827936624848917,75.770959145180313-.380219742182817.602038631065625-.845612653739408,1.150279971114287-1.271278361985424,1.723612284887167-1.15140904681175,1.387199817551846-2.794521982465994,1.7027817651433-4.424106909958027,2.162548446067376-5.552038364906366,1.566423498782569-11.044427888488826,3.286386204693372-15.398471298288314,7.38255403511539-1.169561107257323,1.100284298478982-2.292432715723407,2.222809108911861-3.155552194210941,3.588284717584429-2.682679762975567,4.244015056172429-2.263774852905954,8.610600088263709,1.201083707975158,12.270437314079572,4.464009667976825,4.715214369818568,10.122477691292261,6.495709158770296,16.429833814245285,6.596252706024643,2.075875170559812.03308507924794,4.152035127811359-.139966906023801,6.221289235952099-.343821115538049,1.131815918281063-.111507089139195,2.259746848704708-.177897820250109,3.037102308119756.909234566322993-.085477616938078,1.36752443504156.025402283918083,2.7609849129949-.537100603864019,4.06548655696588-3.679103803980979-.363955143816383-7.28427047421701.433891958780805-10.917861618413554.735099552731299-5.157140791528946.427510228039864-10.166510359277709,1.823969695402411-15.302622503913881,2.4701348191129-4.956382871470851.623547873983625-7.190842914262248-.334054844562161-9.32222132374136-4.958183299176198-1.697317371872487-3.682410596366935-3.760668262370018-7.015760794363814-7.257936546177916-9.261246258531173-.336121639386874-.215802588658335-.656022244157612-.449188857537592-1.048051135661808-.54278190646437-.236990631849039-.052593457980038-.462553782335817-.143767896688587-.673379458648924-.263433838977107-1.011462577802376-.959388870234761-1.323323689300196-2.333201753224785-2.014342119284265-3.487789684718337-1.318183515339115-2.202476495238443-3.188194270097483-3.699827868707871-5.409036884921989-4.86554704869468-.473792490098276.595954836130659.036446044055083,1.405354965730112-.653889886520119,1.798844630283384-.945666720408553.37871375893701-1.72392767340898-.122434901368251-2.47989617708572-.529821783826264-3.189934922353132-1.719047135198707-6.550548644127048-2.299420476861087-10.165207622272646-1.942600004139422-3.558069916243767.351243258736758-4.110828763147765-.264024250869625-4.199873197125271-3.897413498062633-.007791730919052-.317914726568233.024490771171259-.636966331512667-.00188434255324-.955181779727354.096548230625558-1.823048645162999.528646982820646-3.609218187550141.568436515111898-5.443208521368433.104294462777943-4.807435007855929-1.888362076369049-8.746259363079844-4.966829866009903-12.260926220075817-.550058004399034-.627992276717123-1.470348861346793-1.02960606693523-1.387617356961528-2.085351462870676,5.841298577930502-5.781018167507682,13.06546196968884-7.109339636869663,20.902671668523908-6.539862339185675,3.086425246880935.22426856524271,6.09209990632462.311178514772109,9.097307748635103-1.075132417501663,2.598816990835076-1.198845233052452,4.522576284444767-2.858268600253723,6.008544245221856-5.214643022691234,16.121170759659435-25.56419986842775,32.14509190957051-51.190941953805122,48.466668434372878-76.626657139561758,3.860582232950946-6.016375978250835,3.447798125733243-11.496691759361966.154965351263854-17.230005932564382-3.948827723128488-6.875495698545819-5.502698244071325-14.062852249692696-3.047588188423106-21.78368484888324,2.736129464284204-8.604605154905585,8.490330891015219-14.22629388059795,17.150011178245222-16.791161998979078,3.227096196346793-.955818516114959,6.530567941858862-1.456161262464775,9.905347396865182-.772443024781751,1.790695754276385,1.213423668316864,1.862115301645645,1.568327398336805.329935710576137,2.968154458611934-2.118886074847978,1.935852413804241-4.223692333705003,3.809837999168849-5.42908722284028,6.557485450059175-4.748196914953951,10.823220819228482,2.535875885174391,22.702766674665327,14.375771345406065,23.186959022282281,2.395802239261684.097973042873491,4.578833636219315.4951662792364,6.484513878390317,1.978806850578621,2.106653933639791,1.64010889365909,4.280903811414646,1.980549548325143,6.627740213703873.495888037184159.451162894392837-.285417166851403,1.004077168361619-.541670410456391,1.553561475240713-.105506846951357,1.31153416979032,2.690768354994361,1.621276315280738,5.803145527520428,3.484086288905019,8.257962192438754.157204672894295.258174656616575.277031161413106.542301567866161.445588084725387.795514650080804.201628365921351.302937633628972.394618242909928.81002113903287.798557048648036.662806875425304.570911270384386-.208069537368829.232967852626643-.77179693326525.222156269082006-1.195765294324701-.144721916189155-2.068051300114348-.635221186003946-4.159774593998009.447496219658206-6.134350252672448,1.459069068817371-.28258824245404,1.531661415015151.865069923045667,1.648767935736032,1.751360084124826.194056569723216,1.468432127328015.972989713771312,2.492446227791334,2.090233354228985,3.346282338159654,4.775526970866849,3.649629071460367,10.210808421163165,5.854209067585543,15.995858943291751,7.279885698663747,1.458967266104082.3595617229239,2.830207781944409-.212224379552026,4.235593300855726-.484672369715554,1.182412693890001-.229220728702785,2.471418500807886-.385830740720849,2.468121568475908,1.478072599614279-.425137600116614,4.043491192634065-1.949201031954544,7.635677486952773-4.446994099101175,10.82794742499209-2.122393407144045-4.279576152003756-6.067315940203116-6.069022189949465-10.256096808896473-7.557452755385384-2.106751219273974-.748625240661568-4.256332383991321-1.436196475768156-6.256633347408751-2.416187655003341-7.260725463905146-3.557185400614799-13.507255177019942.295650352564735-17.113266349558216,4.535483147694322-4.171501963654919,4.904718317290644-5.37739858509849,10.934105289372383-5.597913905346104,17.21294409121947-.034646791058549.986763036548837.439450073203261,1.660552554287278,1.103128069365084,2.274888695767004Z" fill="none" stroke="#855656" stroke-linecap="round" stroke-linejoin="round" stroke-width="44"/>
        <path d="M178.258296895472085,62.324690669812298c-3.609806185382695,2.528169884290946-4.539718593196085,2.593690193469229-8.153066893941286.239269718266769-1.697343911850112-1.105970951663949-3.379724778468699-1.848472764208964-5.5063118774533-1.868366862703624-13.292905460446491-.12436487326795-21.653494539198618-13.777663201711221-14.699746303582288-26.04671332209,1.044572847888958-1.843020423782946,2.718655860458966-3.332379329879586,4.479807128055654-4.566900579479807,1.293940689452938-.907023929432398,1.441899940014082-1.701921039722038.245147000765428-2.727652562366529,5.503462589174887.135064986521684,9.988647887710613,2.587133826879835,14.120867433207422,6.011533043575582,3.689767677848067,3.057744323508814,5.714118316614986,7.134384117644913,7.481334395974045,11.412378861227808,1.565574030399148,3.78986988888937,2.106213812108763,4.126719829324429,6.191524656232104,3.8818455372475.386759009847083-.023185690823084.783081349612075.113537194058154,1.174969353447523.176023411807364.434054201912659,1.339056254452771-.736995770947942,1.814666745681279-1.379688405661909,2.575271867803167-2.192768754914141.313000844079397-2.936948299584401,1.752929630994913-3.044312021040241,3.784395524404317-.058114686758927,1.099846370379055-.35373515523861,2.183370066815769-.387924215446219,3.29535367905828-.157022925352067,1.281324745305028.396878073369408,2.659266645014213-.522600250556934,3.833561683249172Z" fill="none" stroke="#855656" stroke-linecap="round" stroke-linejoin="round" stroke-width="44"/>
        <path d="M77.142233102091268,206.699592996501451c3.5617056758947,1.104448514907745,5.611344074957742,3.853694773702955,7.466390769096506,6.830293586735934,1.292512368584539,2.073977506972369,1.840361686435244,4.538044084611101,3.613462842297849,6.382047039000099,1.321311571874503,1.374160989491429,2.778443022819374,2.054189977440728,4.629409263948219,1.840152248306367,2.122527554272892-.245428822760005,4.289485698576755-.363523807946876,6.343440363079935-.897420123744268,6.480495378558771-1.684495096186765,13.169384263911525-1.868276533487915,19.73003354244338-2.946555840462679.991715862698584-.162985200749063,1.683888256530736.279679557837881,2.293270713914353.969221200644824-.976154905046315,6.424312153098072-4.397974753911512,11.421562213358811-9.495756231312043,15.161827448740041-5.88010575925,4.314261288141097-12.499615684882883,6.194671238546107-19.84791350577234,4.732487566535383-1.187377708813074-.236284619762955-2.303856048591115-.593170529249619-3.349610921485692-1.189521032712037.01979977307019-10.180426124205951-2.177094232235504-19.553592390071572-9.731968760615928-27.016198704558519-1.041192360324203-1.028471665824327-2.380856455632966-2.03449260303114-1.65075807559424-3.866333388485145Z" fill="none" stroke="#855656" stroke-linecap="round" stroke-linejoin="round" stroke-width="44"/>
        <path d="M167.83520582338042,103.070930545235569c-1.12096447237036.340502004144582-1.738973007065397-.140723482302747-1.734336834488204-1.245254417013712.033351947879055-7.945460484817886,2.246692520491706-18.507974351051416,11.375531740727638-23.11747183449188,3.218851702308712-1.625316304012813,6.559972894557177-2.407027053686761,10.090183959072419-1.023068024935128,4.35917286944823,1.708935973952066,8.786465253132519,3.274358130217479,13.031212394026625,5.233557601668508,2.550475411814659,1.177194259666976,5.098066509637647,2.737111345140875,5.358251687686789,6.102630005839274-1.82547519900163,2.357955456089257-3.606793904745246,4.764603432440708-6.523669671987591,5.919881797176458-2.485365485340481-2.089125966273969-5.301310558382283-3.478248486017037-8.49085003606433-4.150674639186036-4.408788991164329-.929483722774421-7.99557735201688.378428081520724-10.947198822553219,3.736332556259185-1.188631373017415,1.352242979172843-1.844510784868362,2.7609932203668-1.274434413575364,4.560136814357975-4.07567076185569.105494432898013-7.864993732361654.993354138565337-10.884690002844764,3.983930140325356Z" fill="none" stroke="#855656" stroke-linecap="round" stroke-linejoin="round" stroke-width="44"/>
        <path d="M121.755474143581523,214.811934574079714c-2.914669423122177-.914571089353558-5.821513539446642.088289895621529-8.734999069203695.081023406771237-6.839896061583204-.017052510588655-12.810821248779575-1.958807216738023-17.645258586220734-6.95979348014589-3.987088236461204-4.124452159385328-3.877572959577265-10.258354632499504.369943513409453-14.793194315238907,3.552380085392542-3.792696918586444,7.852677767429668-6.282439154681015,12.82824365293618-7.916025279811947,3.081983295411192-1.011905903765182,6.356927571772758-1.453930250857411,9.27088468482907-2.97749938643301-1.268559668846137,2.451382048153391-2.928310784503083,4.738249260924022-3.200045123063319,7.608867777550586-.324326458046016,1.613261903963576-1.58758634156311,2.291307596759907-2.903673929507022,2.919124164469395-2.199784871593693,1.049333087638843-4.123655728812082,2.416019804492862-5.324761857225894,4.619219743621215-1.560650088439616,2.862678777637484-1.029018658789028,5.409326475089983,1.587006786650818,7.379017226153337,2.890688429234615,2.176470175819304,6.196874330772516,3.197419581414579,9.772219687331926,3.494262499820252,1.326224181389989.110119418377508,2.754812756672436.001704483223875,3.757109126521755,1.184445207929457.431162242856772,1.771993006784214.450052807377688,3.561159517167653.223331113541462,5.360552435314275Z" fill="none" stroke="#855656" stroke-linecap="round" stroke-linejoin="round" stroke-width="44"/>
        <path d="M182.141349665768757,51.123101767996559c.483809406756336-.762351742366263.967618409807073-1.524705269819606,1.451449767631857-2.287026324989711,5.444887747927169-.692866050910197,10.365315238628682.877411530274912,15.045048108774608,3.486341089859707,1.133107526378808,1.241201878954598.319318517523243,2.023252507110556-.688389015675966,2.679434393961856-1.066380051023771.694376586664475-2.20891009717343,1.258794140429927-3.040796717594276,2.280360679700607-2.726135690826595,3.34776009001871-2.673208220486231,8.158390713481822.147506780666845,10.889914779447281,3.136737832936888,3.037555455975053,7.927869699645271,2.997232062927651,11.517811358263316-.03668846950859.904597849654238-.764499996558698,1.518753051122985-2.223400989266338,3.150853356070002-1.598091015524005.949593305997951,3.843187773802129,1.856841184413497,7.688836654990155.678075689211255,11.655902209619853-.327452099851143-1.079221371957829-1.145770252702278-1.39543334269365-2.060885926852279-.990544164725179-3.223820421563687,1.426383021379479-6.235503450305259.440074570663455-9.229524703288007-.69926222965023-4.384521003812551-1.668486548709552-8.748153229013042-3.37019193418655-12.339195010122239-6.566478181565799-1.070841248768374-.953124497096724-1.855124301976502-1.879523552940555-1.711719454608101-3.416016144644345.0564139089729-.604425013909349-.070242998504909-1.298766016576337-.789816050514673-1.609395920246243-1.394952016731622-1.875788719530647.17679617007343-3.692735775880465.102743192763228-5.541957339532928.494435780984531-1.817627363233441,1.012451884923394-3.642632659366427,1.783355535418195-5.356084478445155.756846608392152-1.682217048341045.150655764282419-2.020514732429547-1.43305327570306-2.049444684771515-.87833087890067-.016044086789407-2.092913239732297.535568973037698-2.583463634440704-.840964198985603Z" fill="none" stroke="#855656" stroke-linecap="round" stroke-linejoin="round" stroke-width="44"/>
        <path d="M52.419799525667258,193.111815227883199c-.024479065098603.551565420476436-.116482051353159,1.11001009562915-.061131518665206,1.65344447856296.18705958054943,1.836578543410724.344466147781532,3.252451457796269,3.101670110265331,2.696252273177379,4.132530643058999-.83363312637448,8.15781956905812.115043743235219,11.785762060489105,2.395044820525982.487291056958384.306238088944156.985685478283813.506673643343674,1.570444092553771.359494970568448,1.135180498850787-.101790223844546,1.284992395142581.836239956108329,1.438980273875131,1.54602735710796.45462387599855,2.095595838793997.830199163048746,4.216333823531386.193796653530626,6.353327133000676-2.52666814908298,2.01599878189154-5.317214041248917,1.293315219921169-7.943826553729195.485012315817585-3.990005480275613-1.227862099030062-7.373828222792326-.517164194921861-10.380509562912266,2.334227564258981-.862097373114011.81759375646925-1.36358437351646,1.992215721440516-2.512404865236931,2.519143276778777-3.880360907939576-1.788795290169219-6.391122107106639-4.994394386631029-8.699435542494939-8.409428087706146.396005877823882-.650912211964169,1.083542605615548-.919191551603035,1.694814166176911-1.284863521917941,3.594570201478746-2.150339433630506,6.194208362202517-5.205337789029727,8.156925486130604-8.86499169284798.38201839334306-.712311784229314.478475610932037-1.774546244874728,1.654915200017058-1.78269088732668Z" fill="none" stroke="#855656" stroke-linecap="round" stroke-linejoin="round" stroke-width="44"/>
        <path d="M209.724833303905143,66.537346900943703c-2.296799268490759.895383751798363-3.55051224329236,3.229380011101057-6.061045776407809,4.01561790118194-3.218333446800898,1.007908056862107-6.994525730876376.398805258192624-9.35833725206794-2.209090216512777-2.267660484677435-2.501805239777241-2.737010338133587-6.733211755456978-1.149329072568435-9.585022278351971,1.04105705314123-1.869983706251332,2.335487262924289-3.450698271160945,4.391800463674372-4.194638174543798,1.177925484741536-.426157594763936,1.40471552616691-1.165266741475534,1.089984361467032-2.24187087084465,5.443731124313672,3.374940038038403,9.24076976282231,8.034177317926151,11.086927275902781,14.215003639071256Z" fill="none" stroke="#855656" stroke-linecap="round" stroke-linejoin="round" stroke-width="44"/>
        <path d="M121.532143030040061,209.451382138765439c-2.513581867572611-.39999826591793-5.032900455464187-.767416003131075-7.539121822710513-1.209143519477038-2.495214257090993-.439818505642506-4.652404024822317-1.677815596953224-6.638744013469477-3.165956890195048-3.286785304127079-2.462441450998995-3.198162747864444-7.04674960340526.137123715174312-10.180989584623603,1.165490905152183-1.095265790260783,2.434070095478091-2.077528914821414,3.941784649105102-2.648287366774639,1.315002936647033-.497800139340143,2.327584061517882-1.343976617373301,3.211071938957502-2.391694710519914.518481174110093,5.427493565947771,3.208268401452187,10.054358973578928,5.527843101287544,14.804591963319581.753096723324234,1.542246564908055.892030190904734,3.200343499966039,1.360042431655529,4.791480108270662Z" fill="none" stroke="#855656" stroke-linecap="round" stroke-linejoin="round" stroke-width="44"/>
        <path d="M52.419797740566537,193.111815631582431c-2.071697732314533,3.728237314704529-4.092834075233441,7.488302267853214-7.767947353995623,9.978139451327479-1.178088316562935.798132453704966-2.266685812897776,1.7346791740556-3.73925935398529,1.954621519121247-.631615021431571-1.335651137242166-1.263780782825052-2.67108765843841-1.895945093823684-4.006524507642098,1.353664388239849-1.461475811684977,3.235561795868307-2.209759186363954,4.636987029826741-3.682486401786264,5.23389386114377-5.500162865299899,4.844774343437166-14.775935611336536-.579403995297071-19.248054516527191-.308233837077751-.25412810852049-.561369745755655-.561261597566954-.684722370240706-.954622588726124.985051191322782-1.459219368841332,1.914755772610079-2.971318099966084,3.596772538066034-3.764683039700685,5.728650355191348,4.837534558369043,8.041497786017317,10.897733219679139,6.569695420794233,18.320211990022472-.09096733647948.45876179156221-.092846703352734.935189435169377-.136176821344634,1.403398093911164Z" fill="none" stroke="#855656" stroke-linecap="round" stroke-linejoin="round" stroke-width="44"/>
        <path d="M49.612580215837625,213.453789417681946c2.279705101203945-4.72782363807255,7.017997696676503-7.078496607689885,11.992935624256461-5.667520389720266,2.823044409637987.800657261071137,5.582007615480507,1.124507467611693,8.445467747911607.50948277358566.776980628335878,1.520438087807634-.215250539666158,2.818530634662238-.521266037547321,4.204105927910859-.41080915135899,1.501592669157617-1.704432140506469,2.591970321601366-1.942382971783445,4.17540083062886-6.392049685387065,1.160584886949437-12.524649693837091.873576552357008-17.974754362837302-3.221469142405113Z" fill="none" stroke="#855656" stroke-linecap="round" stroke-linejoin="round" stroke-width="44"/>
        <path d="M77.142233102091268,206.699592996501451c.127548341640249,1.461158869846258.970122761678795,2.618730158139442,2.038080232468019,3.390703387462963,4.466355335250228,3.22849291717921,6.248213545155522,8.145348332927824,7.942868641010136,12.954990616762188,1.387680398248449,3.938407475465283,2.116150215540074,8.136676869100484,2.390444003955963,12.356912926061341.057746421964112.888388501006375.069678030905379,1.7840757101294-.988478346695047,2.179792649095361-1.839165981257793-.654006966024099-3.612216822087248-1.427998617727098-5.064484945019103-2.78522830365273.724875933906333-2.025789287734369.064156083620219-3.961712958164753-.577213491530529-5.812005997361666-1.197535169390903-3.454788514871325-2.602870711007199-6.832215675448424-5.079941692775719-9.633783829150161-.798132338303731-.902675548751176-1.463191233178804-1.896540790839936-1.337124194170428-3.203848075911083.544939978841285-2.277063232508226.600084039025205-4.555102360818637.096616103165616-6.852209625905743-.18358539529163-.837593589014432-.465225550186005-1.714888024921493.148666098663853-2.52042294077728.143856858794607-.023046064605296.287380579175078-.048013269278272.43056759092724-.074900806623191Z" fill="none" stroke="#855656" stroke-linecap="round" stroke-linejoin="round" stroke-width="44"/>
        <path d="M178.719895826225184,99.087000404910214c-.90054011331631-.666643429407486-1.243892192914245-1.304402160676545-.735300609092519-2.563462182610238,1.684245951252706-4.169479747471087,7.008703190627784-7.379957045378433,11.849698561630248-6.527320907431204,3.632616521589625.639797256692873,7.43982093818704,1.288124694383441,9.598035765736313,4.944901992899759-4.892970084946683,3.708530635952229-10.471099167694774,4.825274528598129-16.471376719343425,4.373038862096109-1.411376816322445-.106376223345251-2.827245462057363-.153028131994688-4.241056998930617-.227157764954427Z" fill="none" stroke="#855656" stroke-linecap="round" stroke-linejoin="round" stroke-width="44"/>
        <path d="M76.802696397076033,216.098149543958243c.127495184336112,1.552093247332778,1.259617663565223,2.513721868627727,2.130183054154259,3.630482481918989,3.090696864546771,3.964741731115282,4.684162308129089,8.556984955609551,5.672359999734908,13.4163754127012.213787040968782,1.051291884567945-.221027442868944,1.476521937229336-1.144374447161681,1.651606002240442-5.127621847255796-3.752662213197254-8.241012744683758-8.804886127748432-9.748292972771196-14.935160003856254-.681019903348897-2.769778960231633-2.745077151190344-3.785837866538714-6.125090241463113-3.185792845989454-.545107295067282-.552044783033125-.872917223376135-1.179125342830957-.113860851667596-1.747349001606381.860140509716075-.643907873604803,1.083211490683425-1.641001448309908,1.58713232741411-2.482026283887535,2.596126012816057.382862119753554,4.816172188941891,1.771796639884997,7.204524574273819,2.708977403897734.365915971192408.143571110553239.6049925166908.487824254424595.53741855748649.942886834581259Z" fill="none" stroke="#855656" stroke-linecap="round" stroke-linejoin="round" stroke-width="44"/>
        <path d="M42.389506603050904,177.15288858734948c3.946109857141892,1.902016117458516,4.879845081249186,5.606878802410392,5.592357399010325,9.417326995016992,1.050620070631339,5.618616593688785-3.441784936071599,12.835648549546931-8.965590310679545,14.468055795498913-.362583564075067-1.553358554834631-.725544278636335-3.106511728477017-1.088501763619206-4.659650621368201.230573667195131-.323650150866342.450161347448557-.658641073016042.774080899393994-.899959677113657,4.548883148219829-3.388518778954676,5.145836315527049-9.57828459241864,1.478800423338726-13.668807532631035-.156734937761939-.174845327041112-.234780060372941-.413300220750898-.321886930567416-.635835533596037.637573764717672-1.470028898915189,1.507952682246469-2.793538918223931,2.530740283123123-4.021129425806976Z" fill="none" stroke="#855656" stroke-linecap="round" stroke-linejoin="round" stroke-width="44"/>
        <path d="M39.858766319927781,181.174018013156456c3.484235722363337,1.630890285199712,4.797962534683393,8.673269351625095,1.23085366075793,12.830239560837981-.851972352864323.992870535428665-1.654209992597316,2.192995480417267-3.161962534536542,2.374419094651785-1.174747356865737-5.299209501292353-.42365705361135-10.353761483812377,1.931108873778612-15.204658655489766Z" fill="none" stroke="#855656" stroke-linecap="round" stroke-linejoin="round" stroke-width="44"/>
        <path d="M76.802696397076033,216.098149543958243c-2.393913695756055-1.612669418033875-5.404636069761182-1.91778782792062-7.741640604082932-3.65181256586493.330146056898229-1.383616902910944.660594982105067-2.767197221359311.99048729563583-4.150666673723208-.097564894006609-2.741212849234216.433929306140271-5.57855764528631-1.235245162605679-8.079562823124434-.208895505575128-.735933661281706-.418037355435445-1.471811612031161-.732499717765677-2.57825859359582,4.657020391919104,1.699738624042766,7.324026235409292,4.764219776678146,8.627521156752664,9.136873307304995.387099868366022,2.236764595752902,1.179305681701408,4.432502340488099.880159175231711,6.741659565509508-.114008886300326.880020828132729.217602494139101,1.95436866918044-.788782143165918,2.581767783493888Z" fill="none" stroke="#855656" stroke-linecap="round" stroke-linejoin="round" stroke-width="44"/>
        <path d="M184.961778919866447,59.329767686529522c.026941972014356,1.892340973537102-1.058140995039139,3.64723471324578-.689984125268893,5.581771183633464-.457272332874709,2.13084364380029-.487236245574422,4.264008950371135-.035029646785006,6.399810834109303-.78726832528082.92719997151471-1.600233517316155.867045520010834-2.432539620709576.063302150457275-2.119712863440327-2.649175341348382-2.891696116215826-5.82634256192523-3.545689389965446-9.049898953010597-.020875229601188-1.32062216133545-.335384889819579-2.648547527413029.098872594481691-3.957716537544002,2.152945300433203.653725929723805,4.49929140653785-.019316029263791,6.604370188247231.962731322354557Z" fill="none" stroke="#855656" stroke-linecap="round" stroke-linejoin="round" stroke-width="44"/>
        <path d="M181.804225527102972,71.374651854729564c.818677564946483.277045485396229,1.627561902045272.177173585904711,2.432659519099616-.063302995907179.054353531297238.704654119701445.164210430745698,1.706311776390976-.573691599461199,1.82992182155067-1.096389664421622.183658610799284-1.453469868873071-.932450934042208-1.858967919638417-1.766618825643491Z" fill="none" stroke="#855656" stroke-linecap="round" stroke-linejoin="round" stroke-width="44"/>
        <path d="M184.961778919866447,59.329767686529522c-2.222738262594248-.174241303852796-4.599009162345283.704803213892774-6.604246808000426-.962650394060802-.203242458446766-2.096690455023236.38870915001371-4.085292502781158.828871628835259-6.094320643823266.408139190702968-1.862884455235871,2.084865481964698-.470792341438937,2.954956421198403-1.149648468198393,1.287643483651664.531541385945275,2.645310743490882.1833006927518,3.965847564777505.309890050484682,1.055488830000286.101187738473527,1.859720207864484.068492086493279,1.112062437678105,1.63176951576861-.952906719223392,1.99247034871496-1.522606724080106,4.168212580177169-2.257491244488847,6.264959939829168Z" fill="none" stroke="#855656" stroke-linecap="round" stroke-linejoin="round" stroke-width="44"/>
      </g>
      <g>
        <path d="M167.83520582338042,103.070930545235569c-.295479668344342.561423852452208-.55421306574317,1.146008384292145-.891695356799573,1.680941929120308-15.936451079449398,25.260901948421633-31.878780130128689,50.518081952482135-47.827936624848917,75.770959145180313-.380219742182817.602038631065625-.845612653739408,1.150279971114287-1.271278361985424,1.723612284887167-1.15140904681175,1.387199817551846-2.794521982465994,1.7027817651433-4.424106909958027,2.162548446067376-5.552038364906366,1.566423498782569-11.044427888488826,3.286386204693372-15.398471298288314,7.38255403511539-1.169561107257323,1.100284298478982-2.292432715723407,2.222809108911861-3.155552194210941,3.588284717584429-2.682679762975567,4.244015056172429-2.263774852905954,8.610600088263709,1.201083707975158,12.270437314079572,4.464009667976825,4.715214369818568,10.122477691292261,6.495709158770296,16.429833814245285,6.596252706024643,2.075875170559812.03308507924794,4.152035127811359-.139966906023801,6.221289235952099-.343821115538049,1.131815918281063-.111507089139195,2.259746848704708-.177897820250109,3.037102308119756.909234566322993-.085477616938078,1.36752443504156.025402283918083,2.7609849129949-.537100603864019,4.06548655696588-3.679103803980979-.363955143816383-7.28427047421701.433891958780805-10.917861618413554.735099552731299-5.157140791528946.427510228039864-10.166510359277709,1.823969695402411-15.302622503913881,2.4701348191129-4.956382871470851.623547873983625-7.190842914262248-.334054844562161-9.32222132374136-4.958183299176198-1.697317371872487-3.682410596366935-3.760668262370018-7.015760794363814-7.257936546177916-9.261246258531173-.336121639386874-.215802588658335-.656022244157612-.449188857537592-1.048051135661808-.54278190646437-.236990631849039-.052593457980038-.462553782335817-.143767896688587-.673379458648924-.263433838977107-1.011462577802376-.959388870234761-1.323323689300196-2.333201753224785-2.014342119284265-3.487789684718337-1.318183515339115-2.202476495238443-3.188194270097483-3.699827868707871-5.409036884921989-4.86554704869468-.473792490098276.595954836130659.036446044055083,1.405354965730112-.653889886520119,1.798844630283384-.945666720408553.37871375893701-1.72392767340898-.122434901368251-2.47989617708572-.529821783826264-3.189934922353132-1.719047135198707-6.550548644127048-2.299420476861087-10.165207622272646-1.942600004139422-3.558069916243767.351243258736758-4.110828763147765-.264024250869625-4.199873197125271-3.897413498062633-.007791730919052-.317914726568233.024490771171259-.636966331512667-.00188434255324-.955181779727354.096548230625558-1.823048645162999.528646982820646-3.609218187550141.568436515111898-5.443208521368433.104294462777943-4.807435007855929-1.888362076369049-8.746259363079844-4.966829866009903-12.260926220075817-.550058004399034-.627992276717123-1.470348861346793-1.02960606693523-1.387617356961528-2.085351462870676,5.841298577930502-5.781018167507682,13.06546196968884-7.109339636869663,20.902671668523908-6.539862339185675,3.086425246880935.22426856524271,6.09209990632462.311178514772109,9.097307748635103-1.075132417501663,2.598816990835076-1.198845233052452,4.522576284444767-2.858268600253723,6.008544245221856-5.214643022691234,16.121170759659435-25.56419986842775,32.14509190957051-51.190941953805122,48.466668434372878-76.626657139561758,3.860582232950946-6.016375978250835,3.447798125733243-11.496691759361966.154965351263854-17.230005932564382-3.948827723128488-6.875495698545819-5.502698244071325-14.062852249692696-3.047588188423106-21.78368484888324,2.736129464284204-8.604605154905585,8.490330891015219-14.22629388059795,17.150011178245222-16.791161998979078,3.227096196346793-.955818516114959,6.530567941858862-1.456161262464775,9.905347396865182-.772443024781751,1.790695754276385,1.213423668316864,1.862115301645645,1.568327398336805.329935710576137,2.968154458611934-2.118886074847978,1.935852413804241-4.223692333705003,3.809837999168849-5.42908722284028,6.557485450059175-4.748196914953951,10.823220819228482,2.535875885174391,22.702766674665327,14.375771345406065,23.186959022282281,2.395802239261684.097973042873491,4.578833636219315.4951662792364,6.484513878390317,1.978806850578621,2.106653933639791,1.64010889365909,4.280903811414646,1.980549548325143,6.627740213703873.495888037184159.451162894392837-.285417166851403,1.004077168361619-.541670410456391,1.553561475240713-.105506846951357,1.31153416979032,2.690768354994361,1.621276315280738,5.803145527520428,3.484086288905019,8.257962192438754.157204672894295.258174656616575.277031161413106.542301567866161.445588084725387.795514650080804.201628365921351.302937633628972.394618242909928.81002113903287.798557048648036.662806875425304.570911270384386-.208069537368829.232967852626643-.77179693326525.222156269082006-1.195765294324701-.144721916189155-2.068051300114348-.635221186003946-4.159774593998009.447496219658206-6.134350252672448,1.459069068817371-.28258824245404,1.531661415015151.865069923045667,1.648767935736032,1.751360084124826.194056569723216,1.468432127328015.972989713771312,2.492446227791334,2.090233354228985,3.346282338159654,4.775526970866849,3.649629071460367,10.210808421163165,5.854209067585543,15.995858943291751,7.279885698663747,1.458967266104082.3595617229239,2.830207781944409-.212224379552026,4.235593300855726-.484672369715554,1.182412693890001-.229220728702785,2.471418500807886-.385830740720849,2.468121568475908,1.478072599614279-.425137600116614,4.043491192634065-1.949201031954544,7.635677486952773-4.446994099101175,10.82794742499209-2.122393407144045-4.279576152003756-6.067315940203116-6.069022189949465-10.256096808896473-7.557452755385384-2.106751219273974-.748625240661568-4.256332383991321-1.436196475768156-6.256633347408751-2.416187655003341-7.260725463905146-3.557185400614799-13.507255177019942.295650352564735-17.113266349558216,4.535483147694322-4.171501963654919,4.904718317290644-5.37739858509849,10.934105289372383-5.597913905346104,17.21294409121947-.034646791058549.986763036548837.439450073203261,1.660552554287278,1.103128069365084,2.274888695767004Z" fill="#ddc7cc" stroke-width="0"/>
        <path d="M178.258296895472085,62.324690669812298c-3.609806185382695,2.528169884290946-4.539718593196085,2.593690193469229-8.153066893941286.239269718266769-1.697343911850112-1.105970951663949-3.379724778468699-1.848472764208964-5.5063118774533-1.868366862703624-13.292905460446491-.12436487326795-21.653494539198618-13.777663201711221-14.699746303582288-26.04671332209,1.044572847888958-1.843020423782946,2.718655860458966-3.332379329879586,4.479807128055654-4.566900579479807,1.293940689452938-.907023929432398,1.441899940014082-1.701921039722038.245147000765428-2.727652562366529,5.503462589174887.135064986521684,9.988647887710613,2.587133826879835,14.120867433207422,6.011533043575582,3.689767677848067,3.057744323508814,5.714118316614986,7.134384117644913,7.481334395974045,11.412378861227808,1.565574030399148,3.78986988888937,2.106213812108763,4.126719829324429,6.191524656232104,3.8818455372475.386759009847083-.023185690823084.783081349612075.113537194058154,1.174969353447523.176023411807364.434054201912659,1.339056254452771-.736995770947942,1.814666745681279-1.379688405661909,2.575271867803167-2.192768754914141.313000844079397-2.936948299584401,1.752929630994913-3.044312021040241,3.784395524404317-.058114686758927,1.099846370379055-.35373515523861,2.183370066815769-.387924215446219,3.29535367905828-.157022925352067,1.281324745305028.396878073369408,2.659266645014213-.522600250556934,3.833561683249172Z" fill="#ecdcd8" stroke-width="0"/>
        <path d="M77.142233102091268,206.699592996501451c3.5617056758947,1.104448514907745,5.611344074957742,3.853694773702955,7.466390769096506,6.830293586735934,1.292512368584539,2.073977506972369,1.840361686435244,4.538044084611101,3.613462842297849,6.382047039000099,1.321311571874503,1.374160989491429,2.778443022819374,2.054189977440728,4.629409263948219,1.840152248306367,2.122527554272892-.245428822760005,4.289485698576755-.363523807946876,6.343440363079935-.897420123744268,6.480495378558771-1.684495096186765,13.169384263911525-1.868276533487915,19.73003354244338-2.946555840462679.991715862698584-.162985200749063,1.683888256530736.279679557837881,2.293270713914353.969221200644824-.976154905046315,6.424312153098072-4.397974753911512,11.421562213358811-9.495756231312043,15.161827448740041-5.88010575925,4.314261288141097-12.499615684882883,6.194671238546107-19.84791350577234,4.732487566535383-1.187377708813074-.236284619762955-2.303856048591115-.593170529249619-3.349610921485692-1.189521032712037.01979977307019-10.180426124205951-2.177094232235504-19.553592390071572-9.731968760615928-27.016198704558519-1.041192360324203-1.028471665824327-2.380856455632966-2.03449260303114-1.65075807559424-3.866333388485145Z" fill="#dabec9" stroke-width="0"/>
        <path d="M167.83520582338042,103.070930545235569c-1.12096447237036.340502004144582-1.738973007065397-.140723482302747-1.734336834488204-1.245254417013712.033351947879055-7.945460484817886,2.246692520491706-18.507974351051416,11.375531740727638-23.11747183449188,3.218851702308712-1.625316304012813,6.559972894557177-2.407027053686761,10.090183959072419-1.023068024935128,4.35917286944823,1.708935973952066,8.786465253132519,3.274358130217479,13.031212394026625,5.233557601668508,2.550475411814659,1.177194259666976,5.098066509637647,2.737111345140875,5.358251687686789,6.102630005839274-1.82547519900163,2.357955456089257-3.606793904745246,4.764603432440708-6.523669671987591,5.919881797176458-2.485365485340481-2.089125966273969-5.301310558382283-3.478248486017037-8.49085003606433-4.150674639186036-4.408788991164329-.929483722774421-7.99557735201688.378428081520724-10.947198822553219,3.736332556259185-1.188631373017415,1.352242979172843-1.844510784868362,2.7609932203668-1.274434413575364,4.560136814357975-4.07567076185569.105494432898013-7.864993732361654.993354138565337-10.884690002844764,3.983930140325356Z" fill="#d3b7c6" stroke-width="0"/>
        <path d="M121.755474143581523,214.811934574079714c-2.914669423122177-.914571089353558-5.821513539446642.088289895621529-8.734999069203695.081023406771237-6.839896061583204-.017052510588655-12.810821248779575-1.958807216738023-17.645258586220734-6.95979348014589-3.987088236461204-4.124452159385328-3.877572959577265-10.258354632499504.369943513409453-14.793194315238907,3.552380085392542-3.792696918586444,7.852677767429668-6.282439154681015,12.82824365293618-7.916025279811947,3.081983295411192-1.011905903765182,6.356927571772758-1.453930250857411,9.27088468482907-2.97749938643301-1.268559668846137,2.451382048153391-2.928310784503083,4.738249260924022-3.200045123063319,7.608867777550586-.324326458046016,1.613261903963576-1.58758634156311,2.291307596759907-2.903673929507022,2.919124164469395-2.199784871593693,1.049333087638843-4.123655728812082,2.416019804492862-5.324761857225894,4.619219743621215-1.560650088439616,2.862678777637484-1.029018658789028,5.409326475089983,1.587006786650818,7.379017226153337,2.890688429234615,2.176470175819304,6.196874330772516,3.197419581414579,9.772219687331926,3.494262499820252,1.326224181389989.110119418377508,2.754812756672436.001704483223875,3.757109126521755,1.184445207929457.431162242856772,1.771993006784214.450052807377688,3.561159517167653.223331113541462,5.360552435314275Z" fill="#e9d3d5" stroke-width="0"/>
        <path d="M182.141349665768757,51.123101767996559c.483809406756336-.762351742366263.967618409807073-1.524705269819606,1.451449767631857-2.287026324989711,5.444887747927169-.692866050910197,10.365315238628682.877411530274912,15.045048108774608,3.486341089859707,1.133107526378808,1.241201878954598.319318517523243,2.023252507110556-.688389015675966,2.679434393961856-1.066380051023771.694376586664475-2.20891009717343,1.258794140429927-3.040796717594276,2.280360679700607-2.726135690826595,3.34776009001871-2.673208220486231,8.158390713481822.147506780666845,10.889914779447281,3.136737832936888,3.037555455975053,7.927869699645271,2.997232062927651,11.517811358263316-.03668846950859.904597849654238-.764499996558698,1.518753051122985-2.223400989266338,3.150853356070002-1.598091015524005.949593305997951,3.843187773802129,1.856841184413497,7.688836654990155.678075689211255,11.655902209619853-.327452099851143-1.079221371957829-1.145770252702278-1.39543334269365-2.060885926852279-.990544164725179-3.223820421563687,1.426383021379479-6.235503450305259.440074570663455-9.229524703288007-.69926222965023-4.384521003812551-1.668486548709552-8.748153229013042-3.37019193418655-12.339195010122239-6.566478181565799-1.070841248768374-.953124497096724-1.855124301976502-1.879523552940555-1.711719454608101-3.416016144644345.0564139089729-.604425013909349-.070242998504909-1.298766016576337-.789816050514673-1.609395920246243-1.394952016731622-1.875788719530647.17679617007343-3.692735775880465.102743192763228-5.541957339532928.494435780984531-1.817627363233441,1.012451884923394-3.642632659366427,1.783355535418195-5.356084478445155.756846608392152-1.682217048341045.150655764282419-2.020514732429547-1.43305327570306-2.049444684771515-.87833087890067-.016044086789407-2.092913239732297.535568973037698-2.583463634440704-.840964198985603Z" fill="#e2cfd0" stroke-width="0"/>
        <path d="M52.419799525667258,193.111815227883199c-.024479065098603.551565420476436-.116482051353159,1.11001009562915-.061131518665206,1.65344447856296.18705958054943,1.836578543410724.344466147781532,3.252451457796269,3.101670110265331,2.696252273177379,4.132530643058999-.83363312637448,8.15781956905812.115043743235219,11.785762060489105,2.395044820525982.487291056958384.306238088944156.985685478283813.506673643343674,1.570444092553771.359494970568448,1.135180498850787-.101790223844546,1.284992395142581.836239956108329,1.438980273875131,1.54602735710796.45462387599855,2.095595838793997.830199163048746,4.216333823531386.193796653530626,6.353327133000676-2.52666814908298,2.01599878189154-5.317214041248917,1.293315219921169-7.943826553729195.485012315817585-3.990005480275613-1.227862099030062-7.373828222792326-.517164194921861-10.380509562912266,2.334227564258981-.862097373114011.81759375646925-1.36358437351646,1.992215721440516-2.512404865236931,2.519143276778777-3.880360907939576-1.788795290169219-6.391122107106639-4.994394386631029-8.699435542494939-8.409428087706146.396005877823882-.650912211964169,1.083542605615548-.919191551603035,1.694814166176911-1.284863521917941,3.594570201478746-2.150339433630506,6.194208362202517-5.205337789029727,8.156925486130604-8.86499169284798.38201839334306-.712311784229314.478475610932037-1.774546244874728,1.654915200017058-1.78269088732668Z" fill="#d7bcc9" stroke-width="0"/>
        <path d="M209.724833303905143,66.537346900943703c-2.296799268490759.895383751798363-3.55051224329236,3.229380011101057-6.061045776407809,4.01561790118194-3.218333446800898,1.007908056862107-6.994525730876376.398805258192624-9.35833725206794-2.209090216512777-2.267660484677435-2.501805239777241-2.737010338133587-6.733211755456978-1.149329072568435-9.585022278351971,1.04105705314123-1.869983706251332,2.335487262924289-3.450698271160945,4.391800463674372-4.194638174543798,1.177925484741536-.426157594763936,1.40471552616691-1.165266741475534,1.089984361467032-2.24187087084465,5.443731124313672,3.374940038038403,9.24076976282231,8.034177317926151,11.086927275902781,14.215003639071256Z" fill="#eeddd9" stroke-width="0"/>
        <path d="M121.532143030040061,209.451382138765439c-2.513581867572611-.39999826591793-5.032900455464187-.767416003131075-7.539121822710513-1.209143519477038-2.495214257090993-.439818505642506-4.652404024822317-1.677815596953224-6.638744013469477-3.165956890195048-3.286785304127079-2.462441450998995-3.198162747864444-7.04674960340526.137123715174312-10.180989584623603,1.165490905152183-1.095265790260783,2.434070095478091-2.077528914821414,3.941784649105102-2.648287366774639,1.315002936647033-.497800139340143,2.327584061517882-1.343976617373301,3.211071938957502-2.391694710519914.518481174110093,5.427493565947771,3.208268401452187,10.054358973578928,5.527843101287544,14.804591963319581.753096723324234,1.542246564908055.892030190904734,3.200343499966039,1.360042431655529,4.791480108270662Z" fill="#f3dedc" stroke-width="0"/>
        <path d="M52.419797740566537,193.111815631582431c-2.071697732314533,3.728237314704529-4.092834075233441,7.488302267853214-7.767947353995623,9.978139451327479-1.178088316562935.798132453704966-2.266685812897776,1.7346791740556-3.73925935398529,1.954621519121247-.631615021431571-1.335651137242166-1.263780782825052-2.67108765843841-1.895945093823684-4.006524507642098,1.353664388239849-1.461475811684977,3.235561795868307-2.209759186363954,4.636987029826741-3.682486401786264,5.23389386114377-5.500162865299899,4.844774343437166-14.775935611336536-.579403995297071-19.248054516527191-.308233837077751-.25412810852049-.561369745755655-.561261597566954-.684722370240706-.954622588726124.985051191322782-1.459219368841332,1.914755772610079-2.971318099966084,3.596772538066034-3.764683039700685,5.728650355191348,4.837534558369043,8.041497786017317,10.897733219679139,6.569695420794233,18.320211990022472-.09096733647948.45876179156221-.092846703352734.935189435169377-.136176821344634,1.403398093911164Z" fill="#ceb9bc" stroke-width="0"/>
        <path d="M49.612580215837625,213.453789417681946c2.279705101203945-4.72782363807255,7.017997696676503-7.078496607689885,11.992935624256461-5.667520389720266,2.823044409637987.800657261071137,5.582007615480507,1.124507467611693,8.445467747911607.50948277358566.776980628335878,1.520438087807634-.215250539666158,2.818530634662238-.521266037547321,4.204105927910859-.41080915135899,1.501592669157617-1.704432140506469,2.591970321601366-1.942382971783445,4.17540083062886-6.392049685387065,1.160584886949437-12.524649693837091.873576552357008-17.974754362837302-3.221469142405113Z" fill="#ceaec3" stroke-width="0"/>
        <path d="M77.142233102091268,206.699592996501451c.127548341640249,1.461158869846258.970122761678795,2.618730158139442,2.038080232468019,3.390703387462963,4.466355335250228,3.22849291717921,6.248213545155522,8.145348332927824,7.942868641010136,12.954990616762188,1.387680398248449,3.938407475465283,2.116150215540074,8.136676869100484,2.390444003955963,12.356912926061341.057746421964112.888388501006375.069678030905379,1.7840757101294-.988478346695047,2.179792649095361-1.839165981257793-.654006966024099-3.612216822087248-1.427998617727098-5.064484945019103-2.78522830365273.724875933906333-2.025789287734369.064156083620219-3.961712958164753-.577213491530529-5.812005997361666-1.197535169390903-3.454788514871325-2.602870711007199-6.832215675448424-5.079941692775719-9.633783829150161-.798132338303731-.902675548751176-1.463191233178804-1.896540790839936-1.337124194170428-3.203848075911083.544939978841285-2.277063232508226.600084039025205-4.555102360818637.096616103165616-6.852209625905743-.18358539529163-.837593589014432-.465225550186005-1.714888024921493.148666098663853-2.52042294077728.143856858794607-.023046064605296.287380579175078-.048013269278272.43056759092724-.074900806623191Z" fill="#cbb2bb" stroke-width="0"/>
        <path d="M178.719895826225184,99.087000404910214c-.90054011331631-.666643429407486-1.243892192914245-1.304402160676545-.735300609092519-2.563462182610238,1.684245951252706-4.169479747471087,7.008703190627784-7.379957045378433,11.849698561630248-6.527320907431204,3.632616521589625.639797256692873,7.43982093818704,1.288124694383441,9.598035765736313,4.944901992899759-4.892970084946683,3.708530635952229-10.471099167694774,4.825274528598129-16.471376719343425,4.373038862096109-1.411376816322445-.106376223345251-2.827245462057363-.153028131994688-4.241056998930617-.227157764954427Z" fill="#cdaec2" stroke-width="0"/>
        <path d="M76.802696397076033,216.098149543958243c.127495184336112,1.552093247332778,1.259617663565223,2.513721868627727,2.130183054154259,3.630482481918989,3.090696864546771,3.964741731115282,4.684162308129089,8.556984955609551,5.672359999734908,13.4163754127012.213787040968782,1.051291884567945-.221027442868944,1.476521937229336-1.144374447161681,1.651606002240442-5.127621847255796-3.752662213197254-8.241012744683758-8.804886127748432-9.748292972771196-14.935160003856254-.681019903348897-2.769778960231633-2.745077151190344-3.785837866538714-6.125090241463113-3.185792845989454-.545107295067282-.552044783033125-.872917223376135-1.179125342830957-.113860851667596-1.747349001606381.860140509716075-.643907873604803,1.083211490683425-1.641001448309908,1.58713232741411-2.482026283887535,2.596126012816057.382862119753554,4.816172188941891,1.771796639884997,7.204524574273819,2.708977403897734.365915971192408.143571110553239.6049925166908.487824254424595.53741855748649.942886834581259Z" fill="#c0a5b1" stroke-width="0"/>
        <path d="M42.389506603050904,177.15288858734948c3.946109857141892,1.902016117458516,4.879845081249186,5.606878802410392,5.592357399010325,9.417326995016992,1.050620070631339,5.618616593688785-3.441784936071599,12.835648549546931-8.965590310679545,14.468055795498913-.362583564075067-1.553358554834631-.725544278636335-3.106511728477017-1.088501763619206-4.659650621368201.230573667195131-.323650150866342.450161347448557-.658641073016042.774080899393994-.899959677113657,4.548883148219829-3.388518778954676,5.145836315527049-9.57828459241864,1.478800423338726-13.668807532631035-.156734937761939-.174845327041112-.234780060372941-.413300220750898-.321886930567416-.635835533596037.637573764717672-1.470028898915189,1.507952682246469-2.793538918223931,2.530740283123123-4.021129425806976Z" fill="#c0acad" stroke-width="0"/>
        <path d="M39.858766319927781,181.174018013156456c3.484235722363337,1.630890285199712,4.797962534683393,8.673269351625095,1.23085366075793,12.830239560837981-.851972352864323.992870535428665-1.654209992597316,2.192995480417267-3.161962534536542,2.374419094651785-1.174747356865737-5.299209501292353-.42365705361135-10.353761483812377,1.931108873778612-15.204658655489766Z" fill="#b3a1a0" stroke-width="0"/>
        <path d="M76.802696397076033,216.098149543958243c-2.393913695756055-1.612669418033875-5.404636069761182-1.91778782792062-7.741640604082932-3.65181256586493.330146056898229-1.383616902910944.660594982105067-2.767197221359311.99048729563583-4.150666673723208-.097564894006609-2.741212849234216.433929306140271-5.57855764528631-1.235245162605679-8.079562823124434-.208895505575128-.735933661281706-.418037355435445-1.471811612031161-.732499717765677-2.57825859359582,4.657020391919104,1.699738624042766,7.324026235409292,4.764219776678146,8.627521156752664,9.136873307304995.387099868366022,2.236764595752902,1.179305681701408,4.432502340488099.880159175231711,6.741659565509508-.114008886300326.880020828132729.217602494139101,1.95436866918044-.788782143165918,2.581767783493888Z" fill="#a69199" stroke-width="0"/>
        <path d="M184.961778919866447,59.329767686529522c.026941972014356,1.892340973537102-1.058140995039139,3.64723471324578-.689984125268893,5.581771183633464-.457272332874709,2.13084364380029-.487236245574422,4.264008950371135-.035029646785006,6.399810834109303-.78726832528082.92719997151471-1.600233517316155.867045520010834-2.432539620709576.063302150457275-2.119712863440327-2.649175341348382-2.891696116215826-5.82634256192523-3.545689389965446-9.049898953010597-.020875229601188-1.32062216133545-.335384889819579-2.648547527413029.098872594481691-3.957716537544002,2.152945300433203.653725929723805,4.49929140653785-.019316029263791,6.604370188247231.962731322354557Z" fill="#cab5b9" stroke-width="0"/>
        <path d="M181.804225527102972,71.374651854729564c.818677564946483.277045485396229,1.627561902045272.177173585904711,2.432659519099616-.063302995907179.054353531297238.704654119701445.164210430745698,1.706311776390976-.573691599461199,1.82992182155067-1.096389664421622.183658610799284-1.453469868873071-.932450934042208-1.858967919638417-1.766618825643491Z" fill="#d3b7c6" stroke-width="0"/>
        <path d="M184.961778919866447,59.329767686529522c-2.222738262594248-.174241303852796-4.599009162345283.704803213892774-6.604246808000426-.962650394060802-.203242458446766-2.096690455023236.38870915001371-4.085292502781158.828871628835259-6.094320643823266.408139190702968-1.862884455235871,2.084865481964698-.470792341438937,2.954956421198403-1.149648468198393,1.287643483651664.531541385945275,2.645310743490882.1833006927518,3.965847564777505.309890050484682,1.055488830000286.101187738473527,1.859720207864484.068492086493279,1.112062437678105,1.63176951576861-.952906719223392,1.99247034871496-1.522606724080106,4.168212580177169-2.257491244488847,6.264959939829168Z" fill="#bda9ae" stroke-width="0"/>
      </g>
    </g>
  </a>
</svg>