<?xml version="1.0" encoding="UTF-8"?>
<svg id="Pattern" xmlns="http://www.w3.org/2000/svg" width="280" height="280" xmlns:xlink="http://www.w3.org/1999/xlink" viewBox="0 0 280 280">
  <defs>
    <linearGradient id="linear-gradient" x1="171.862162067416648" y1="80.91742111453641" x2="27.504951973141686" y2="164.2620952219294" gradientUnits="userSpaceOnUse">
      <stop offset="0" stop-color="#b45152"/>
      <stop offset=".256923818068603" stop-color="#b9574f"/>
      <stop offset=".627056879835899" stop-color="#c86a49"/>
      <stop offset="1" stop-color="#dd8541"/>
    </linearGradient>
  </defs>
  <a xlink:href="https://www.notion.so/dmmnotes/semantic-thought-2477648bf2934c578347c35b7291e8b9?pvs=4">
    <g>
      <g>
        <path d="M143.245110551919424,207.740348107075988c.089259518441395.048742786057119.163864725122039.114175115661055.223839310550829.196301155378023l-2.09794512143344,2.83171751624468c-.089099013451232-.053549589350951-.176959811120469-.10905961390381-.263567346552009-.16653231123928-.168915324900809-.724047892970702.263693886896363-1.227619614848663.638519855798222-1.753548988910552.391261417500573-.515385764285384.750303015482132-1.07639313583968,1.499153301636397-1.107937371472872Z" fill="none" stroke="url(#linear-gradient)" stroke-linecap="round" stroke-linejoin="round" stroke-width="33.217455842605801"/>
        <path d="M167.477913137487121,100.27434309106502c-2.377385687856076,6.281627480942916-4.742068355777519,12.568101976165053-7.134808821738261,18.843871513314298-4.828965728338517,12.665658295565663-9.673339058606871,25.325439589203597-14.511054660418267,37.987764178411453-4.941942331885912,12.935126137974294-9.882687963538956,25.870697171378197-14.82960502359947,38.803917882385576-.143864551766455.376108050553739-.351654311352831.72775750195251-.529645324545527,1.090816136156718-1.291687951484164-.004373407960884-2.347994927135005-.713238360955074-3.455694077881162-1.216368808956759-12.632480299669623-5.737787235017095-25.5229179339658-10.811540940518171-38.702142548390839-15.15127631449468-4.159806681574992-1.369776437786641-7.829993261932032-3.735340431026998-11.636759712426283-5.817016887171121-.658498345797852-.360089950709153-1.283880039465657-.844339732506342-1.545264447971931-1.628556622437827-.109704203536239-1.616119741596776.587265684862359-2.97342628957631,1.4254138999313-4.262451303366106,2.11904905972915-3.25896838969129,4.782514699702006-6.091998785606847,7.289016995944621-9.03603208466302,1.785365406019991-2.097029164006017,3.537065398159029-4.228530340820726,5.314143443925786-6.33096321177436,4.844278263704837-5.731221427864511,9.680111838995799-11.471122006849328,14.483238875882307-17.236632666388687,3.114509905599334-3.738564846578811,6.216639382588255-7.492044235887079,9.347185990836806-11.216599679655701,4.375652369551972-5.205926301507134,8.71289170698401-10.44515721605967,13.141416312224464-15.607802640994123,2.671511871019902-3.114366965844965,5.362869622800645-6.226010305495947,7.884560696202243-9.453376637282418,1.607855836729868-2.057811029410004,3.707066585007851-2.274664665930686,5.860890645197287-2.69223952568791,5.089996836371938-.986833147675497,10.245420211327655-1.186466412687878,15.414774247955393-1.195779322379167.832485757494396-.001504378189566,1.637469424656047.090097901194895,2.427400277771994.350186042376663,3.121000722319877,1.027615635102848,6.084706554425793,2.502452654658555,9.297757420205016,3.270340883562312.235083674790985.056177652581027.371707224896454.271004497924878.459175810894521.498199069044858Z" fill="none" stroke="url(#linear-gradient)" stroke-linecap="round" stroke-linejoin="round" stroke-width="33.217455842605801"/>
        <path d="M167.477913137487121,100.27434309106502c-2.907634310127833-.204934330227843-5.403476200412115-1.717643661320835-8.091899297060081-2.608280287475282-1.618017882402455-.536027163368999-3.149299257500388-.9555715548031-4.900297741779468-.991428402188831-5.980485774301997-.122458721523799-11.84170816088681.706442718548715-17.691354166600831,1.763774427819953-.466626861769328.084345023427886-.9580476025385.137748956953146-1.234171485824845.578578832719359-.816273762638957,1.303196685601506-2.018473772899597,2.267151201787783-2.983594167055344,3.434402050410426-3.239543915908143,3.918083002048661-6.354062125928976,7.942333295108256-9.670312709411519,11.793447128035041-3.772096337059338,4.380483233951963-7.444065937384948,8.841719821586594-11.16364736934247,13.264195235035004-3.757528517363426,4.46760468820321-7.488205995333374,8.957337918043777-11.24548610032798,13.424571166749956-3.833122096842999,4.557403297798373-7.719037190422569,9.067876752056691-11.464152919371372,13.701122811407913-3.373900330963806,4.173976532109009-6.924479555187645,8.205009722341856-10.390349828850958,12.304824844344694-1.565318737001689,1.851649754295067-2.817699285949857,3.874900851262282-3.342926227318458,6.282550738204009-.24598159144989.513128090578903-.695044554207925.359347785011778-1.069612854822481.276245179766192-4.001582489843713-.887714588394374-7.993223715066051-1.821068955543524-12.025707746171975-2.564310379289964-.228170461660739-.042061046597155-.430491906070529-.181756242902338-.634600160215996-.301546469174355-2.82200354451561-1.551690116222744-5.698555845896408-3.010398055372207-8.305668808354312-4.918207778695432-1.928247438079779-1.411040006156327-3.806219052275992-2.867016496167707-5.917025798429677-4.04037420970235-1.632367165393589-.907410070194601-1.861723446701944-2.124731664385763-1.290239796884634-3.701081937892013,3.392569356781678-4.715974851776991,7.327504679680715-8.986328955694262,11.048114702161911-13.431733942477877,1.616107240188285-1.930927359915586,3.229564283643413-3.867539239099642,4.84424851267795-5.798262671090924,4.847235672770694-5.795942481840029,9.762242287704794-11.536013355120303,14.572416423538016-17.360886117236078,4.401369649116532-5.329839310059469,8.844035815298412-10.626633641932131,13.286135774480499-15.920621652319824,4.366352092165471-5.20372814903385,8.79736346349091-10.360676285163208,13.094299360367586-15.617847527515551,3.086735548335128-3.776542769768639,7.069046646074639-6.062953448941698,11.229483695275121-8.232038590525917.95481722659315-.258054959964284,1.850698328446015.075640029104761,2.757621673754329.296591576190622,7.913952626505306,1.928056679496876,15.799373460942661,3.983626490882671,23.626062799381543,6.223257169507633,9.221244043325896,2.63868372743309,18.570503528934751,4.909568096962175,27.450003995963925,8.647988855214862.217168894434508.091436092925505.4300057370383.184635247520418.619126474146469.326272388891084-.368822344740693,1.056266213834533-.737643889184255,2.112531347453114-1.106466233924948,3.168797561287647Z" fill="none" stroke="url(#linear-gradient)" stroke-linecap="round" stroke-linejoin="round" stroke-width="33.217455842605801"/>
        <path d="M114.584956970053099,81.712982428007308c-2.616107559553711,1.752415032138742-5.393852529243304,3.239236437271757-7.99462526440584,5.032576980143858-1.952008251837469,1.345987311866338-3.101562625884981,3.334169352445315-4.565509235855643,5.016236711089732-2.021748018883955,2.32298405171241-3.998565639210028,4.727301676037314-5.946017937318175,7.132815780818419-4.10525746640451,5.070864302657355-8.467848569180205,9.932853058800902-12.695655929768691,14.905367474520972-1.398120983369154,1.64438816042275-2.674664427935568,3.381219088530997-4.107522168291325,5.009984142121539-3.31398341862041,3.76707532803448-6.324685351141852,7.799213407299249-9.586551381884419,11.614284094845061-3.981372684120288,4.656603456787707-7.87188378161045,9.386587327084271-11.800165595854196,14.085977770811951-3.853061525158409,4.60940896880129-7.868997407398638,9.082514806837935-11.512204702816234,13.866901354173024-.859442518305514.638152344394257-1.804462204856463.941064793543774-2.891649084634992,1.041620705556852-2.501637102373934.231359061108378-5.011556156412553.298892365104621-7.515366107667433.472491120221093-.762562389398227.052880441555317-1.681988326939972.255413065146058-2.175531496171971-.691006257988192,2.53827097163412-6.720647405243653,5.057007515737496-13.448766946794422,7.618728763796753-20.160459886874378,6.09152052972604-15.959785913570158,12.203450761042404-31.911799235902436,18.307034901403313-47.866991002572831,3.845843739523843-10.053310426459575,7.691507397485111-20.106694037662237,11.537250851590215-30.160045300201091.671134197411448-.1872147580616,1.267615717073568.075944704991343,1.868470577443077.310855810828798,6.056636752196027,2.367919924781745,12.13663203942906,4.674859464194014,18.215060342281504,6.985978721408173,4.830571563548801,1.836665581333364,9.246402907123411,4.528011620766847,13.877940159534774,6.775313048259704,3.104581181421963,1.506399607491403,6.241460185148753,2.961985418258337,9.20345378320053,4.752827633763445.464420526592221.589004241744988.800389806699968,1.190803208877696.162859525418753,1.875271099073871Z" fill="none" stroke="url(#linear-gradient)" stroke-linecap="round" stroke-linejoin="round" stroke-width="33.217455842605801"/>
        <path d="M114.363323177472921,80.227429357559231c-5.764216329752344-2.880045225307185-11.578681034303372-5.664554679469802-17.280255155788836-8.663713445354006-7.556494261090847-3.9748890224364-15.78684051919663-6.241991460512509-23.596954879082659-9.564420799839354-.74775495488484-.318099673137112-1.486484003143232-.65742691761443-2.229169627445117-.986728707426664.651482467892492-1.734649377378446,1.302734268168933-3.469466304055459,1.953989830051796-5.204283790133559-.162554868677034-1.185545363752681.480497773680327-2.169425704065361.892699565101793-3.177111301760306,1.170141910022721-2.86058233660151,1.535158775061063-5.759197440082062.804767428039668-8.779419942298773-.110473915744478-.456810753288664-.173070110268782-.926142440805052.043911498515627-1.380876919340153.885333880436519-1.011488205644127,1.861561672241805-.405416586076171,2.745988119510002-.073247797092336,4.442402831089566,1.668469973992615,8.873490146782387,3.368219980864524,13.297638092024499,5.084208143274736,13.927835674496237,5.402173976362974,27.957008469826178,10.530829408507998,41.981730937435714,15.672873911476927,11.114580955250858,4.075068329126225,22.192726645269431,8.248786162181204,33.265968491024978,12.434978161934851.988563979983155.373723874876305,2.022271538779023.606114764257654,2.992387162814339,1.027220392330491,1.253717994728504,1.522559412267583,1.888857917749192,3.312857289965905,2.259674001188614,5.217553368427616-.504710300563602,1.075863896552619-1.433244281488442.989501553145601-2.251058072090018.633897824700398-3.688854165478915-1.604007955418638-7.635603464153974-2.340978845699283-11.513943178897534-3.141154842029209-3.699424767512028-.763258323007904-7.418294879056702-1.55452078023518-11.211335925927415-1.938274270800321-3.435467589524706-.347576375850622-6.856766798644458-.722155804865906-10.31275785374055-.757422456525092-6.130073178881503-.062548769175919-12.1339579677242.677683693327708-17.96080472900212,2.659058570610796-1.261326815172652.428905768483673-2.471505986854027,1.111242420029157-3.88247570373278.936863899843956Z" fill="none" stroke="url(#linear-gradient)" stroke-linecap="round" stroke-linejoin="round" stroke-width="33.217455842605801"/>
        <path d="M114.363323177472921,80.227429357559231c4.698700306813407-1.767596243220396,9.459712613410375-3.128512848210448,14.515737415824333-3.637673542141783,5.772411377158278-.581298752447765,11.448205731678172-.368286286520743,17.181516714535974.367689863516716,7.928977647188731,1.017836596725829,15.747095434820949,2.441705550128972,23.291767141456148,5.135741472588052.834905425163015.298126031759239,1.467490960834766.141161952758921,2.143552114868726-.258794881783615,1.113766331480292,3.114766263155616.653879586367111,6.161727006856381-.440814540226711,9.162093562896189-.752910222819992,2.063652289230959-1.435331915532515,4.158879487091326-2.471051922273546,6.109115482231573-1.330260132186595.468068871005016-2.374657654741895-.444742248968396-3.452589382859514-.860231799853864-4.904011277976679-1.890261991673469-9.869813093049743-3.516442896825538-14.972904551674219-4.818020947566765-6.198251766412795-1.58090247574728-12.279380977453911-3.615505580093668-18.452097896071791-5.304189979120565-5.404848527903596-1.478611978634945-10.866623851643453-2.748907395642163-16.301827125884301-4.116900270033511-.280089328955-.070490891930604-.546769331638643-.194338617078756-.819674825619586-.293311267349054.097007581725848-.520594363330019.023241058626809-1.015796569321537-.221613142075512-1.485517693383372Z" fill="none" stroke="url(#linear-gradient)" stroke-linecap="round" stroke-linejoin="round" stroke-width="33.217455842605801"/>
        <path d="M62.028147895231086,170.408260382715525c4.42387641811365.937951996895208,8.847744192195023,1.875897589650776,13.271596919812509,2.813845419977952,4.715226859225368,3.1638197551747,9.66792428365261,5.834239845738921,15.09550805667277,7.607045104965437,13.281600660162439,4.338136901675171,26.163780308223068,9.697380295823677,38.9117355408398,15.389974207188061.421099922730718.188035834205948.778861185726782.51798272632368,1.165970648115035.781679273444752-.277140395697643.799493504582642-.554129681941049,1.599072191987943-.831110324153997,2.398657283527427-.92548446708679.546632207524453-1.718601727045098-.060121615741082-2.499671788251362-.358391422112618-10.206281980297717-3.897501850682602-20.409233919644976-7.803672965659644-30.617117702295218-11.697061049573676-9.494404277687863-3.621261784259332-18.975101083693517-7.27862697242017-28.470446148508927-10.897480417679617-2.783107428958829-1.060672078054267-2.898532059811259-.992017559885426-4.301874227767257,1.74005736106119-.107454528635571.20917331983037-.220643555165225.414593349556526-.349540917533886.611253282650068-1.398015994738671,2.109370662086803-3.394601269534178,3.504014608422949-5.581498695322807,4.670350266575042-1.054021642334192.428741414676551-2.126351241971861.801595254870335-3.260975612955008.961544945233982-2.509460962459343.54727347491098-4.97545469371471.403446583472032-7.392921262123309-.481031376673855-3.064236068398714-1.104369698270602-6.287618558813847-1.85171664088557-8.900456373209636-3.968720425476931-.02971289504967-2.059332979715691.082746232294085-4.050785955776519,1.187244387601822-5.925266781217942,1.754850386776525-2.978237638726569,4.579368254788278-3.814728388157164,7.700412603806399-4.139922643542377,3.454782159370552-.359960759940805,6.899735829181736.078352353073569,10.346206548418195.229286937912548,1.508797472669357.066080704718843,3.040047702079391-.184586647323158,4.526938346854877.264180033740558Z" fill="none" stroke="url(#linear-gradient)" stroke-linecap="round" stroke-linejoin="round" stroke-width="33.217455842605801"/>
        <path d="M57.404068820553221,183.208262992189702c2.175487495667767-1.170090805147993,4.156705282590337-2.575852417538044,5.609243682874876-4.622917451019021.792416353735462-.139195128052961,1.510752780508483.142459137186961,2.221832590475969.41623415174945,18.95873100033532,7.299439541622633,37.947793115512468,14.519663996004965,56.916799768139754,21.792276633212168,6.030647692699858,2.312117294606651,12.063417687571928,4.619020700858528,18.095960081797784,6.926357813323193.752072016860438.287641234099283,1.627009172626458.435015474151442,1.87553894636676,1.405117794594844-.338680464770732.492141045851895-.677360929543283.98428209170379-1.016028267040383,1.47645963341165-1.479692497006909,1.419625081913182-3.034781684361405,2.718954859594305-5.104049493746061,3.197963872715263-1.676027829198574-.131591471672436-3.10471995565149-1.010845433429495-4.623594641978343-1.587912816201424-23.897611327065533-9.079458810947472-47.761032707738195-18.248672288460511-71.643780028305628-27.367259336373536-.890974441126673-.340182255775289-1.997567014728702-.463895283726742-2.331922638584729-1.636320295412588Z" fill="none" stroke="url(#linear-gradient)" stroke-linecap="round" stroke-linejoin="round" stroke-width="33.217455842605801"/>
        <path d="M142.123443890208364,209.125331934050337c-3.249610962713632-1.612610240808863-6.702153679409093-2.718532827031595-10.076633786631646-4.016654566059515-10.251865727068434-3.943735180399017-20.516949824057519-7.853039129631725-30.776729800900284-11.776188809910309-11.078112012914062-4.236055741977907-22.157662251726833-8.468345006229356-33.232268487272449-12.713542143561426-1.68689964242003-.646646973969837-3.350430424552542-1.35425664477043-5.024643696579005-2.033640918603851.16642400026285-.371842491847929.331840824264873-.744096546601213.499125697000636-1.115528787366202,1.087187942828677-2.413808460996734,1.643268141862791-2.611394140807533,4.149798820593787-1.65478715952122,18.852979048808265,7.195123602496096,37.710065349237993,14.379516890738159,56.567176936916439,21.563821832831309,1.79961344142248.685634820336418,3.608192664652961,1.34772874979717,5.412594532070216,2.020701831668703,4.121208837908853,1.604558944725795,8.243062370260304,3.207560991259015,12.363453986212335,4.814325348947023q2.615155729365142,1.019817647344098,1.239753723346439,3.526507615610171c-.373849403076747.461668219933927-.747739784722398.92331946502236-1.121627924756467,1.384985755965317Z" fill="none" stroke="url(#linear-gradient)" stroke-linecap="round" stroke-linejoin="round" stroke-width="33.217455842605801"/>
        <path d="M71.801310419482434,36.419106791696322c5.174465228773443,1.937739555070948,10.355052194975542,3.859314485662253,15.521973506755785,5.81697026105212,7.93793557353456,3.007547969773441,15.870620495607,6.029068287305563,23.798119172261067,9.064044821943753,14.957104066075772,5.726197493904692,29.913807766988612,11.453549814683356,44.858854117983356,17.211112002669324,2.995710979519572,1.15409576289494,6.106165051420248,2.040116294574545,8.877732867560553,3.745469035629867.961190317144428.591422807394338,1.870380535667209,1.203770243622785,2.526883689160968,2.136600547666603-.632705584510404,1.419257595038289-1.723778252626289.860307368126087-2.659351256372247.533824400374215-2.489506998029356-.868752328737173-4.930072116658266-1.871657738298381-7.408960400098294-2.774910550049754-8.358340999790016-3.045601609770529-16.685705161635269-6.175066819530912-25.050186710466733-9.205522042717348-13.036453008726312-4.723114817143141-26.09858268633252-9.375962467105637-39.010493259213035-14.44186300790534-5.45134812737524-2.138799057913275-10.929776881319412-4.220141627340126-16.418615146201773-6.268097376885635-.821303614691715-.306437426967022-1.756964068752495-.260712476825574-2.483816995376401-.832062408426282-1.078617936731462-1.422015454929351-2.363674137117414-2.700977469579811-3.079663487291327-4.380325250625901.050250194560249-.31089400793644.20932344598441-.527614803071629.527523901298082-.605240432725623Z" fill="none" stroke="url(#linear-gradient)" stroke-linecap="round" stroke-linejoin="round" stroke-width="33.217455842605801"/>
        <path d="M62.028152217246316,170.408263584786255c-3.208200011428744.506788309901822-6.408173493068716.013058292510323-9.609559865602932-.100564358197516-2.628393356579181-.093297076651652-5.224079899322533-.120748254621503-7.818801974044618.524728281438001-3.331311912515957.828735853699982-5.610070307189744,3.398839855884944-5.833843538634028,6.804812849281006-.052113208868832.793100722854433.159007282529274,1.668735989267589-.498641325339122,2.342806172597193-5.784315090077143-4.022992038730081-8.081408663729235-11.443445401338977-5.572031206187603-18.016980828655505.353454648371553-.925901842030726.732729283139633-1.841963594608387,1.099461135127058-2.762700105566182,1.471619599031328.705998048862966,2.99615780221211.178011279747807,4.479722656293234.115840747253969,2.716463048724108-.113827825305634,5.464301325842825-.097195907852438,8.102272264683052-.939114173270355-.969681282109377,1.744728309909988.626731132968416,2.741067413448036,1.519356301387234,3.128356776462169,3.387738000978061,1.469796807383318,5.819384504437039,4.268315699187951,8.984201593360012,6.024047552695265,1.716681487870119.952355239456665,3.621683091077102,1.585818961098994,5.147863958957714,2.878767085961954Z" fill="none" stroke="url(#linear-gradient)" stroke-linecap="round" stroke-linejoin="round" stroke-width="33.217455842605801"/>
        <path d="M57.404075222973916,183.208254350472998c2.801982566896186,1.609471273590316,5.917416250293172,2.461301859779269,8.900122713530436,3.621692025115408,11.150329890007924,4.337853514991366,22.335486176328232,8.586249886118821,33.513108795925291,12.853760273106673,11.069248848471943,4.226116210782493,22.145557584562994,8.433757892700669,33.217530516489205,12.652763666366809,1.034390573051496.394166680518538,2.106775761585595.716683259372076,2.968580744734936,1.463323549960478-1.151455607763637.852740848924441-2.499908729094386.984333463122312-3.865037636282068,1.054889812741749-9.081194883146964-3.501981810537472-18.190809213963803-6.929569686977629-27.277561089746087-10.416822304954621-15.879358752950793-6.094068587419315-31.769631434804069-12.159400604794428-47.651272197181243-18.247262663369838-1.026997572074833-.39368204303355-2.571039278016542-.360335410638072-2.705949888804753-2.04184392024581.966823132430363-.313502280954708,1.933646264862546-.627004561911235,2.900478041334281-.940500438720846Z" fill="none" stroke="url(#linear-gradient)" stroke-linecap="round" stroke-linejoin="round" stroke-width="33.217455842605801"/>
        <path d="M54.503595101235987,184.14876663297764c.811504793067797,1.248619771242375,2.257653003935047,1.373518948890705,3.461376393157479,1.83938529848092,11.224406265164362,4.344146838244342,22.470827378885588,8.631507862079161,33.716859234693402,12.919611147743126,11.847415586751595,4.517389614848071,23.712866788024257,8.987828076918959,35.53947336121746,13.558948272808266,1.685560385549252.651490657839531,3.661087987414248.813901324563631,4.917085555971425,2.388086288467093-2.134299877869125.398757759545333-4.222352955546739.08667013260856-6.203163146057705-.667969616253686-22.023200985132462-8.390075422310474-44.035960192887615-16.80761762208931-66.044921046543095-25.235021411886919-4.255453334413687-1.629448767196664-8.482393265254359-3.333409250442855-12.722498427470782-5.003046369683943,2.437978999332699.335961546315957,4.878424474210988.580938148174027,7.335788075031815.200006390325143Z" fill="none" stroke="url(#linear-gradient)" stroke-linecap="round" stroke-linejoin="round" stroke-width="33.217455842605801"/>
        <path d="M71.387152244455137,36.978029607013013c1.0907270591415,1.301161343269996,2.21377283734364,2.57795994645312,3.062668009230038,4.06142909260052.397659383359496.471184952879412.705549212377264.977749391082398.642959969190997,1.630318530695149,1.529001588936808,4.688850397995338.207942934595849,8.968884747613629-1.881739867389115,13.138591358150734-2.774630445301227-1.126088997869374-5.549154440732309-2.252095783549521-8.323678956270669-3.378099608285993-.825680758200178-.535302948921526-.405366219554708-1.258377183636185-.205688638201536-1.866284585948961,1.522009389162122-4.633695505479409,2.092796228345833-9.359527539838382,1.525660332386906-14.216918199699649-.080780661592144-.691845898738393-.147045504165362-1.452277595566557.782081109737192-1.719765591806208.89001518384066.062935377427493,1.636259687536949.520058006033651,2.417207171081827.882030389933789.747870673762009.371310872691538,1.61748910051665.57844764879701,1.980530870234361,1.468698614360619Z" fill="none" stroke="url(#linear-gradient)" stroke-linecap="round" stroke-linejoin="round" stroke-width="33.217455842605801"/>
        <path d="M66.989414203138949,34.627300602718606c-1.037181112467806,1.426461953993567-.164371322778607,2.969062315223709-.130354852046366,4.413382765529605.089272708786666,3.790216265684649-.492373073904673,7.426396671458861-1.572493254390793,11.025331425998957-.22820234691244.760365529680712-.724091308320567,1.500718703548046-.399217707701609,2.364147505013534-2.506104175174187-.706140186830453-4.890904996393147-1.729521103075967-7.265227020941893-2.780294522313852-.136703647836839-1.206648565033902.489295233388475-2.26401225882546.672459588315178-3.413149805759531.533461849112427-3.346844858840996.290463185467161-6.525624053598222-1.634844131895079-9.442357601737967-.328179676640502-.497172189985577-.85063357558829-1.060342296425006-.156853663209404-1.689583897643388,3.41731075160169-1.86672582490246,6.913585506750678-2.009193533040161,10.486531041869966-.477475869087357Z" fill="none" stroke="url(#linear-gradient)" stroke-linecap="round" stroke-linejoin="round" stroke-width="33.217455842605801"/>
        <path d="M56.502883161268983,35.104776471805963c-.156241081864209.58102660491204.190376161809581.96679835762734.477709836040958,1.418690733913536,2.700884893662078,4.24775074459285,2.576571154035264,8.64614392826843.641535813367227,13.126386007617839-2.719622165619512-1.011181348079845-5.440466083977299-2.019091709102213-8.157913049810304-3.036083547389353-.611842843647537-.22897738014035-1.000740216127269-.613975897065757-.754315321424656-1.334224546135374,1.380768808643552-4.035726211614019,3.115161699084638-7.819082171823538,7.152542042540517-9.942203086531663.199164563953673-.104733285499606.426319028240869-.15626067998528.640440679286257-.232565561474985Z" fill="none" stroke="url(#linear-gradient)" stroke-linecap="round" stroke-linejoin="round" stroke-width="33.217455842605801"/>
        <path d="M75.092780222876172,42.669777230308682c-.214106827714204-.543380856926888-.428213655430227-1.086761713853775-.642639425863308-1.630231630952039,11.191003415842715,4.263938378013336,22.345373971689696,8.628667882909212,33.586934457318421,12.755798687654533,7.228472018141474,2.653798122972148,14.506654187140157,5.187911529958001,21.747374483271415,7.805651192391451,8.009611387236873,2.89571780775259,16.11068482524206,5.556184689834481,23.995314842454718,8.807284668473585,3.774992183422,1.556558768830655,7.670303090559173,2.820240203383946,11.50294045645478,4.238705428382673.76917295928979.284672682992095,1.470572415064453.407912560101977,2.102227749768645-.253743697463506.861248825327493.537978452142852,1.388412891190455,1.354018422232912,1.851157241198962,2.223649412844679-.980793708058627.457757295898773-1.856492319804602-.070656769999914-2.700499494607357-.384381966527144-11.76372104172151-4.372693552926648-23.509072345817913-8.794740965624442-35.269626052728199-13.175992597985896-13.564393047707199-5.05324912506876-27.190984319602649-9.93975115280773-40.654768218004392-15.262165902597189-4.450415554056235-1.759311432841059-8.933327177831416-3.437809351189571-13.422825408551944-5.095146399300575-.635790949572765-.234710120723321-1.392366171137837-.848944546291023-2.09559063071174-.029427194920572Z" fill="none" stroke="url(#linear-gradient)" stroke-linecap="round" stroke-linejoin="round" stroke-width="33.217455842605801"/>
        <path d="M71.387152244455137,36.978029607013013c-.660235943731095-.489596521594649-1.320472407558555-.979190082240166-1.980619350717461-1.468744089575921.861403906263149.137180497236841,1.671295505366288.409731369445581,2.394780726954195.909816953400878-.138055032515695.186311472658417-.276108464426216.372620784888568-.414161376236734.558927136175043Z" fill="none" stroke="url(#linear-gradient)" stroke-linecap="round" stroke-linejoin="round" stroke-width="33.217455842605801"/>
        <g>
          <path d="M144.04327197702878,118.53677762699408c-.127618517350129.793430255374915.36203327878502,1.563341650531584-.003978870203355,2.38957336893327-.721721971747684,1.629205009730867-2.049873961335834,2.120770223325962-4.103523194309673,1.340776848135647-7.476200809151123-2.839523895721868-14.947476887023186-5.692128402641174-22.413696024986166-8.557829783369016-4.90205867037821-1.881520585502585-9.792232942740156-3.79404397845974-14.687729416608818-5.692679960080568.019135212269248-1.815110847037431.669660175381068-3.44207386013295,1.491999397376276-5.017838080198999,7.125071267648309,2.690814305649837,14.253138411266264,5.373714942876177,21.374222416437988,8.075056018464238,5.27761404656485,2.002032218595559,10.545425956093823,4.02991850111539,15.820883542366573,6.037672659740565.259646539927417.098816082754638.550684123254541.115021468942359.827105431624659.169696892398861.564905273691693.418524415665161,1.129810995993466.837048225817853,1.694716718302516,1.255572035976002Z" fill="none" stroke="url(#linear-gradient)" stroke-linecap="round" stroke-linejoin="round" stroke-width="33.217455842605801"/>
          <path d="M92.508062839725426,131.899271600999782c5.78693998824474,2.167547565477435,11.580913610766402,4.316509947169834,17.359003004524311,6.507442358637491,6.932573439096814,2.628685029401822,13.853296512812449,5.28870987197115,20.775590107165044,7.944479430192587,2.46660966730451.946329286834953,3.184615097579808,2.901175142738794,1.69622684429487,4.576375790995371-.960870141187115,1.081476421622938-2.108035869960077,1.054441774389488-3.36045678089522.574529174433337-9.758691215246472-3.739423510316556-19.524339768552636-7.46066216104191-29.282328839167349-11.201916414533116-2.88498874036668-1.106121737517242-5.752345212171349-2.258293919137941-8.627780081038509-3.389366967796377.662205503009318-1.618022426137031,1.664702651047264-3.13806358128204,1.439745745116852-5.011543371929292Z" fill="none" stroke="url(#linear-gradient)" stroke-linecap="round" stroke-linejoin="round" stroke-width="33.217455842605801"/>
          <path d="M104.326343868297045,102.998780020414415c-.023243636140251,1.813889421908243-.88282824626549,3.378556134177416-1.492001789960341,5.01784130960732-8.281367203107948-3.150480896303634-16.568564405891266-6.285758249603532-24.840192644069248-9.461641895770299-2.192200547580796-.841693050530012-2.677524987952893-3.082995856815614-1.065975330753645-4.580311345718656.935617304754487-.869296237382514,1.983244660497803-.827206310705151,3.101410399041924-.395397557353135,6.750358682405931,2.606820648841676,13.506057772619897,5.19979238495398,20.257139789489884,7.804741300187743,1.3528061479592.521989087737893,2.693396698969082,1.07568932250615,4.039619576251425,1.614768189047027Z" fill="none" stroke="url(#linear-gradient)" stroke-linecap="round" stroke-linejoin="round" stroke-width="33.217455842605801"/>
          <path d="M92.508062839725426,131.899271600999782c.730830470835826,1.374250722230499.003724220169715,3.905188974904377-1.439751090168102,5.011546081266715-7.948771014431259-3.016482574017573-15.902142902768901-6.020927614430548-23.843559689492395-9.056684891762416-2.427886531177137-.928107867577637-3.08583945427381-2.970758836547247-1.536243899956389-4.601226182954633.996781459491103-1.048801566394104,2.130897892202483-.925959127756869,3.379486342109885-.441989796021517,6.954101450666712,2.695524995460801,13.92367276504956,5.351053884543944,20.885089816449181,8.027725739684684.860387726348563.330818918797377,1.703734710077697.706002341732528,2.554978521057819,1.060629049787167Z" fill="none" stroke="url(#linear-gradient)" stroke-linecap="round" stroke-linejoin="round" stroke-width="33.217455842605801"/>
          <path d="M115.356569625642805,129.523628167340576c-8.306694818695178-3.138631506024467-16.64791774519108-6.187507683238437-24.858306953306965-9.576484690012876-.183564894556184-1.908233129996006.589671187226486-3.457451318083258,1.812598858816273-4.837930822059207,8.57637414666533,3.093651580082224,17.094188646486145,6.340423401585213,25.537962479358612,9.780795169523117.827414405306627.478372219762605,1.041368122254426,1.383327869454661,1.364645190941701,2.154590474654469.438773674844015,1.046805597286948-.159649433958293,2.060401133901905-1.273206242979541,2.177824443915597-.862207711616065.09092253336712-1.694865499377556.460684302654045-2.58369333283008.301205423978899Z" fill="none" stroke="url(#linear-gradient)" stroke-linecap="round" stroke-linejoin="round" stroke-width="33.217455842605801"/>
          <path d="M81.880041010772402,144.535142240572895c6.699458696530201,2.520372289302031,13.410448850057037,5.010785810467496,20.089436159414618,7.584365499329579,1.47654762944876.568951285356889,2.034292656879188,2.160489577825501,1.474738120553411,3.476324914197903-.578319183993699,1.359949723486352-2.014847968405775,2.040623723522003-3.493347261027338,1.477982949014404-6.531246883194399-2.485417902835252-13.043192128781811-5.02162185546149-19.562127193234119-7.53943492030885.274708646662475-1.73289954181746.809652633918631-3.387997050902413,1.491300174293428-4.999238442233036Z" fill="none" stroke="url(#linear-gradient)" stroke-linecap="round" stroke-linejoin="round" stroke-width="33.217455842605801"/>
          <path d="M81.880041010772402,144.535142240572895c.067830320796929,1.835303568619565-.563065099451705,3.461716869376687-1.491300174293428,4.999238442233036-6.393458662977537-2.414926911571456-12.794035699769665-4.811271396567463-19.17519576713039-7.258309815693792-1.526824809351638-.585505353432382-2.236967534377982-2.065067493411334-1.786803435365982-3.362253980223613.506467629111285-1.459434552227322,1.91134155655709-2.330667882282796,3.344644934471944-1.787285863421857,6.387686245663645,2.421628019101263,12.742173611568433,4.930964940391277,19.108654442317857,7.408611217106227Z" fill="none" stroke="url(#linear-gradient)" stroke-linecap="round" stroke-linejoin="round" stroke-width="33.217455842605801"/>
          <path d="M115.356569625642805,129.523628167340576c.853871266639544-.25855359563684,1.517768821579011-.875314347516905,2.597329277996323-.743684580093031,1.063968200922318.129735084728964,1.318700671788974-1.015205662471999.832814575976954-1.688616720610298-.508532954424481-.704798718348684-.584926327075664-1.490894387283333-.937870618297893-2.201263392380497,6.324017573375386,2.374112433773917,12.658267132643232,4.721628424851588,18.964797945709506,7.141482271976201,1.54656978740968.593429531152651,2.189716139520897,2.088798754319214,1.69142134048343,3.39130125074189-.59488648075785,1.555013675646478-2.066736055585352,2.215351771048518-3.734298818129901,1.577868355128885-6.477538022692897-2.476268719012296-12.94376255102361-4.982197504234136-19.41419370373842-7.47708718476315Z" fill="none" stroke="url(#linear-gradient)" stroke-linecap="round" stroke-linejoin="round" stroke-width="33.217455842605801"/>
          <path d="M92.310861531152113,115.109212655268493c-.60419943297893,1.612644857179475-1.208398865954223,3.225289714357132-1.812596703875897,4.837932418598939-6.05171783654805-2.280884602620063-12.111563136115365-4.540543025028455-18.149741584515141-6.856768196445046-1.618587805432981-.620890394260641-2.287824633533091-2.117588806821004-1.732757751848112-3.485962016467965.617060678530834-1.521203417754805,2.090022374570253-2.171263776937849,3.767863481994937-1.475495065849827,5.243324007265983,2.174314482233967,10.712902325312825,3.777334898499248,15.819622074543076,6.300786979252734.644658676890685.318553499095287,1.496974468078406.151311274883483,2.107610483701137.679505880911165Z" fill="none" stroke="url(#linear-gradient)" stroke-linecap="round" stroke-linejoin="round" stroke-width="33.217455842605801"/>
        </g>
      </g>
      <g>
        <path d="M143.245110551919424,207.740348107075988c.089259518441395.048742786057119.163864725122039.114175115661055.223839310550829.196301155378023l-2.09794512143344,2.83171751624468c-.089099013451232-.053549589350951-.176959811120469-.10905961390381-.263567346552009-.16653231123928-.168915324900809-.724047892970702.263693886896363-1.227619614848663.638519855798222-1.753548988910552.391261417500573-.515385764285384.750303015482132-1.07639313583968,1.499153301636397-1.107937371472872Z" fill="#fff" stroke-width="0"/>
        <path d="M167.477913137487121,100.27434309106502c-2.377385687856076,6.281627480942916-4.742068355777519,12.568101976165053-7.134808821738261,18.843871513314298-4.828965728338517,12.665658295565663-9.673339058606871,25.325439589203597-14.511054660418267,37.987764178411453-4.941942331885912,12.935126137974294-9.882687963538956,25.870697171378197-14.82960502359947,38.803917882385576-.143864551766455.376108050553739-.351654311352831.72775750195251-.529645324545527,1.090816136156718-1.291687951484164-.004373407960884-2.347994927135005-.713238360955074-3.455694077881162-1.216368808956759-12.632480299669623-5.737787235017095-25.5229179339658-10.811540940518171-38.702142548390839-15.15127631449468-4.159806681574992-1.369776437786641-7.829993261932032-3.735340431026998-11.636759712426283-5.817016887171121-.658498345797852-.360089950709153-1.283880039465657-.844339732506342-1.545264447971931-1.628556622437827-.109704203536239-1.616119741596776.587265684862359-2.97342628957631,1.4254138999313-4.262451303366106,2.11904905972915-3.25896838969129,4.782514699702006-6.091998785606847,7.289016995944621-9.03603208466302,1.785365406019991-2.097029164006017,3.537065398159029-4.228530340820726,5.314143443925786-6.33096321177436,4.844278263704837-5.731221427864511,9.680111838995799-11.471122006849328,14.483238875882307-17.236632666388687,3.114509905599334-3.738564846578811,6.216639382588255-7.492044235887079,9.347185990836806-11.216599679655701,4.375652369551972-5.205926301507134,8.71289170698401-10.44515721605967,13.141416312224464-15.607802640994123,2.671511871019902-3.114366965844965,5.362869622800645-6.226010305495947,7.884560696202243-9.453376637282418,1.607855836729868-2.057811029410004,3.707066585007851-2.274664665930686,5.860890645197287-2.69223952568791,5.089996836371938-.986833147675497,10.245420211327655-1.186466412687878,15.414774247955393-1.195779322379167.832485757494396-.001504378189566,1.637469424656047.090097901194895,2.427400277771994.350186042376663,3.121000722319877,1.027615635102848,6.084706554425793,2.502452654658555,9.297757420205016,3.270340883562312.235083674790985.056177652581027.371707224896454.271004497924878.459175810894521.498199069044858Z" fill="#fff2df" stroke-width="0"/>
        <path d="M167.477913137487121,100.27434309106502c-2.907634310127833-.204934330227843-5.403476200412115-1.717643661320835-8.091899297060081-2.608280287475282-1.618017882402455-.536027163368999-3.149299257500388-.9555715548031-4.900297741779468-.991428402188831-5.980485774301997-.122458721523799-11.84170816088681.706442718548715-17.691354166600831,1.763774427819953-.466626861769328.084345023427886-.9580476025385.137748956953146-1.234171485824845.578578832719359-.816273762638957,1.303196685601506-2.018473772899597,2.267151201787783-2.983594167055344,3.434402050410426-3.239543915908143,3.918083002048661-6.354062125928976,7.942333295108256-9.670312709411519,11.793447128035041-3.772096337059338,4.380483233951963-7.444065937384948,8.841719821586594-11.16364736934247,13.264195235035004-3.757528517363426,4.46760468820321-7.488205995333374,8.957337918043777-11.24548610032798,13.424571166749956-3.833122096842999,4.557403297798373-7.719037190422569,9.067876752056691-11.464152919371372,13.701122811407913-3.373900330963806,4.173976532109009-6.924479555187645,8.205009722341856-10.390349828850958,12.304824844344694-1.565318737001689,1.851649754295067-2.817699285949857,3.874900851262282-3.342926227318458,6.282550738204009-.24598159144989.513128090578903-.695044554207925.359347785011778-1.069612854822481.276245179766192-4.001582489843713-.887714588394374-7.993223715066051-1.821068955543524-12.025707746171975-2.564310379289964-.228170461660739-.042061046597155-.430491906070529-.181756242902338-.634600160215996-.301546469174355-2.82200354451561-1.551690116222744-5.698555845896408-3.010398055372207-8.305668808354312-4.918207778695432-1.928247438079779-1.411040006156327-3.806219052275992-2.867016496167707-5.917025798429677-4.04037420970235-1.632367165393589-.907410070194601-1.861723446701944-2.124731664385763-1.290239796884634-3.701081937892013,3.392569356781678-4.715974851776991,7.327504679680715-8.986328955694262,11.048114702161911-13.431733942477877,1.616107240188285-1.930927359915586,3.229564283643413-3.867539239099642,4.84424851267795-5.798262671090924,4.847235672770694-5.795942481840029,9.762242287704794-11.536013355120303,14.572416423538016-17.360886117236078,4.401369649116532-5.329839310059469,8.844035815298412-10.626633641932131,13.286135774480499-15.920621652319824,4.366352092165471-5.20372814903385,8.79736346349091-10.360676285163208,13.094299360367586-15.617847527515551,3.086735548335128-3.776542769768639,7.069046646074639-6.062953448941698,11.229483695275121-8.232038590525917.95481722659315-.258054959964284,1.850698328446015.075640029104761,2.757621673754329.296591576190622,7.913952626505306,1.928056679496876,15.799373460942661,3.983626490882671,23.626062799381543,6.223257169507633,9.221244043325896,2.63868372743309,18.570503528934751,4.909568096962175,27.450003995963925,8.647988855214862.217168894434508.091436092925505.4300057370383.184635247520418.619126474146469.326272388891084-.368822344740693,1.056266213834533-.737643889184255,2.112531347453114-1.106466233924948,3.168797561287647Z" fill="#ffe9d1" stroke-width="0"/>
        <path d="M114.584956970053099,81.712982428007308c-2.616107559553711,1.752415032138742-5.393852529243304,3.239236437271757-7.99462526440584,5.032576980143858-1.952008251837469,1.345987311866338-3.101562625884981,3.334169352445315-4.565509235855643,5.016236711089732-2.021748018883955,2.32298405171241-3.998565639210028,4.727301676037314-5.946017937318175,7.132815780818419-4.10525746640451,5.070864302657355-8.467848569180205,9.932853058800902-12.695655929768691,14.905367474520972-1.398120983369154,1.64438816042275-2.674664427935568,3.381219088530997-4.107522168291325,5.009984142121539-3.31398341862041,3.76707532803448-6.324685351141852,7.799213407299249-9.586551381884419,11.614284094845061-3.981372684120288,4.656603456787707-7.87188378161045,9.386587327084271-11.800165595854196,14.085977770811951-3.853061525158409,4.60940896880129-7.868997407398638,9.082514806837935-11.512204702816234,13.866901354173024-.859442518305514.638152344394257-1.804462204856463.941064793543774-2.891649084634992,1.041620705556852-2.501637102373934.231359061108378-5.011556156412553.298892365104621-7.515366107667433.472491120221093-.762562389398227.052880441555317-1.681988326939972.255413065146058-2.175531496171971-.691006257988192,2.53827097163412-6.720647405243653,5.057007515737496-13.448766946794422,7.618728763796753-20.160459886874378,6.09152052972604-15.959785913570158,12.203450761042404-31.911799235902436,18.307034901403313-47.866991002572831,3.845843739523843-10.053310426459575,7.691507397485111-20.106694037662237,11.537250851590215-30.160045300201091.671134197411448-.1872147580616,1.267615717073568.075944704991343,1.868470577443077.310855810828798,6.056636752196027,2.367919924781745,12.13663203942906,4.674859464194014,18.215060342281504,6.985978721408173,4.830571563548801,1.836665581333364,9.246402907123411,4.528011620766847,13.877940159534774,6.775313048259704,3.104581181421963,1.506399607491403,6.241460185148753,2.961985418258337,9.20345378320053,4.752827633763445.464420526592221.589004241744988.800389806699968,1.190803208877696.162859525418753,1.875271099073871Z" fill="#fedfc1" stroke-width="0"/>
        <path d="M114.363323177472921,80.227429357559231c-5.764216329752344-2.880045225307185-11.578681034303372-5.664554679469802-17.280255155788836-8.663713445354006-7.556494261090847-3.9748890224364-15.78684051919663-6.241991460512509-23.596954879082659-9.564420799839354-.74775495488484-.318099673137112-1.486484003143232-.65742691761443-2.229169627445117-.986728707426664.651482467892492-1.734649377378446,1.302734268168933-3.469466304055459,1.953989830051796-5.204283790133559-.162554868677034-1.185545363752681.480497773680327-2.169425704065361.892699565101793-3.177111301760306,1.170141910022721-2.86058233660151,1.535158775061063-5.759197440082062.804767428039668-8.779419942298773-.110473915744478-.456810753288664-.173070110268782-.926142440805052.043911498515627-1.380876919340153.885333880436519-1.011488205644127,1.861561672241805-.405416586076171,2.745988119510002-.073247797092336,4.442402831089566,1.668469973992615,8.873490146782387,3.368219980864524,13.297638092024499,5.084208143274736,13.927835674496237,5.402173976362974,27.957008469826178,10.530829408507998,41.981730937435714,15.672873911476927,11.114580955250858,4.075068329126225,22.192726645269431,8.248786162181204,33.265968491024978,12.434978161934851.988563979983155.373723874876305,2.022271538779023.606114764257654,2.992387162814339,1.027220392330491,1.253717994728504,1.522559412267583,1.888857917749192,3.312857289965905,2.259674001188614,5.217553368427616-.504710300563602,1.075863896552619-1.433244281488442.989501553145601-2.251058072090018.633897824700398-3.688854165478915-1.604007955418638-7.635603464153974-2.340978845699283-11.513943178897534-3.141154842029209-3.699424767512028-.763258323007904-7.418294879056702-1.55452078023518-11.211335925927415-1.938274270800321-3.435467589524706-.347576375850622-6.856766798644458-.722155804865906-10.31275785374055-.757422456525092-6.130073178881503-.062548769175919-12.1339579677242.677683693327708-17.96080472900212,2.659058570610796-1.261326815172652.428905768483673-2.471505986854027,1.111242420029157-3.88247570373278.936863899843956Z" fill="#ffe4bd" stroke-width="0"/>
        <path d="M114.363323177472921,80.227429357559231c4.698700306813407-1.767596243220396,9.459712613410375-3.128512848210448,14.515737415824333-3.637673542141783,5.772411377158278-.581298752447765,11.448205731678172-.368286286520743,17.181516714535974.367689863516716,7.928977647188731,1.017836596725829,15.747095434820949,2.441705550128972,23.291767141456148,5.135741472588052.834905425163015.298126031759239,1.467490960834766.141161952758921,2.143552114868726-.258794881783615,1.113766331480292,3.114766263155616.653879586367111,6.161727006856381-.440814540226711,9.162093562896189-.752910222819992,2.063652289230959-1.435331915532515,4.158879487091326-2.471051922273546,6.109115482231573-1.330260132186595.468068871005016-2.374657654741895-.444742248968396-3.452589382859514-.860231799853864-4.904011277976679-1.890261991673469-9.869813093049743-3.516442896825538-14.972904551674219-4.818020947566765-6.198251766412795-1.58090247574728-12.279380977453911-3.615505580093668-18.452097896071791-5.304189979120565-5.404848527903596-1.478611978634945-10.866623851643453-2.748907395642163-16.301827125884301-4.116900270033511-.280089328955-.070490891930604-.546769331638643-.194338617078756-.819674825619586-.293311267349054.097007581725848-.520594363330019.023241058626809-1.015796569321537-.221613142075512-1.485517693383372Z" fill="#ffeac8" stroke-width="0"/>
        <path d="M62.028147895231086,170.408260382715525c4.42387641811365.937951996895208,8.847744192195023,1.875897589650776,13.271596919812509,2.813845419977952,4.715226859225368,3.1638197551747,9.66792428365261,5.834239845738921,15.09550805667277,7.607045104965437,13.281600660162439,4.338136901675171,26.163780308223068,9.697380295823677,38.9117355408398,15.389974207188061.421099922730718.188035834205948.778861185726782.51798272632368,1.165970648115035.781679273444752-.277140395697643.799493504582642-.554129681941049,1.599072191987943-.831110324153997,2.398657283527427-.92548446708679.546632207524453-1.718601727045098-.060121615741082-2.499671788251362-.358391422112618-10.206281980297717-3.897501850682602-20.409233919644976-7.803672965659644-30.617117702295218-11.697061049573676-9.494404277687863-3.621261784259332-18.975101083693517-7.27862697242017-28.470446148508927-10.897480417679617-2.783107428958829-1.060672078054267-2.898532059811259-.992017559885426-4.301874227767257,1.74005736106119-.107454528635571.20917331983037-.220643555165225.414593349556526-.349540917533886.611253282650068-1.398015994738671,2.109370662086803-3.394601269534178,3.504014608422949-5.581498695322807,4.670350266575042-1.054021642334192.428741414676551-2.126351241971861.801595254870335-3.260975612955008.961544945233982-2.509460962459343.54727347491098-4.97545469371471.403446583472032-7.392921262123309-.481031376673855-3.064236068398714-1.104369698270602-6.287618558813847-1.85171664088557-8.900456373209636-3.968720425476931-.02971289504967-2.059332979715691.082746232294085-4.050785955776519,1.187244387601822-5.925266781217942,1.754850386776525-2.978237638726569,4.579368254788278-3.814728388157164,7.700412603806399-4.139922643542377,3.454782159370552-.359960759940805,6.899735829181736.078352353073569,10.346206548418195.229286937912548,1.508797472669357.066080704718843,3.040047702079391-.184586647323158,4.526938346854877.264180033740558Z" fill="#ffeece" stroke-width="0"/>
        <path d="M57.404068820553221,183.208262992189702c2.175487495667767-1.170090805147993,4.156705282590337-2.575852417538044,5.609243682874876-4.622917451019021.792416353735462-.139195128052961,1.510752780508483.142459137186961,2.221832590475969.41623415174945,18.95873100033532,7.299439541622633,37.947793115512468,14.519663996004965,56.916799768139754,21.792276633212168,6.030647692699858,2.312117294606651,12.063417687571928,4.619020700858528,18.095960081797784,6.926357813323193.752072016860438.287641234099283,1.627009172626458.435015474151442,1.87553894636676,1.405117794594844-.338680464770732.492141045851895-.677360929543283.98428209170379-1.016028267040383,1.47645963341165-1.479692497006909,1.419625081913182-3.034781684361405,2.718954859594305-5.104049493746061,3.197963872715263-1.676027829198574-.131591471672436-3.10471995565149-1.010845433429495-4.623594641978343-1.587912816201424-23.897611327065533-9.079458810947472-47.761032707738195-18.248672288460511-71.643780028305628-27.367259336373536-.890974441126673-.340182255775289-1.997567014728702-.463895283726742-2.331922638584729-1.636320295412588Z" fill="#f89f72" stroke-width="0"/>
        <path d="M142.123443890208364,209.125331934050337c-3.249610962713632-1.612610240808863-6.702153679409093-2.718532827031595-10.076633786631646-4.016654566059515-10.251865727068434-3.943735180399017-20.516949824057519-7.853039129631725-30.776729800900284-11.776188809910309-11.078112012914062-4.236055741977907-22.157662251726833-8.468345006229356-33.232268487272449-12.713542143561426-1.68689964242003-.646646973969837-3.350430424552542-1.35425664477043-5.024643696579005-2.033640918603851.16642400026285-.371842491847929.331840824264873-.744096546601213.499125697000636-1.115528787366202,1.087187942828677-2.413808460996734,1.643268141862791-2.611394140807533,4.149798820593787-1.65478715952122,18.852979048808265,7.195123602496096,37.710065349237993,14.379516890738159,56.567176936916439,21.563821832831309,1.79961344142248.685634820336418,3.608192664652961,1.34772874979717,5.412594532070216,2.020701831668703,4.121208837908853,1.604558944725795,8.243062370260304,3.207560991259015,12.363453986212335,4.814325348947023q2.615155729365142,1.019817647344098,1.239753723346439,3.526507615610171c-.373849403076747.461668219933927-.747739784722398.92331946502236-1.121627924756467,1.384985755965317Z" fill="#f89a5f" stroke-width="0"/>
        <path d="M71.801310419482434,36.419106791696322c5.174465228773443,1.937739555070948,10.355052194975542,3.859314485662253,15.521973506755785,5.81697026105212,7.93793557353456,3.007547969773441,15.870620495607,6.029068287305563,23.798119172261067,9.064044821943753,14.957104066075772,5.726197493904692,29.913807766988612,11.453549814683356,44.858854117983356,17.211112002669324,2.995710979519572,1.15409576289494,6.106165051420248,2.040116294574545,8.877732867560553,3.745469035629867.961190317144428.591422807394338,1.870380535667209,1.203770243622785,2.526883689160968,2.136600547666603-.632705584510404,1.419257595038289-1.723778252626289.860307368126087-2.659351256372247.533824400374215-2.489506998029356-.868752328737173-4.930072116658266-1.871657738298381-7.408960400098294-2.774910550049754-8.358340999790016-3.045601609770529-16.685705161635269-6.175066819530912-25.050186710466733-9.205522042717348-13.036453008726312-4.723114817143141-26.09858268633252-9.375962467105637-39.010493259213035-14.44186300790534-5.45134812737524-2.138799057913275-10.929776881319412-4.220141627340126-16.418615146201773-6.268097376885635-.821303614691715-.306437426967022-1.756964068752495-.260712476825574-2.483816995376401-.832062408426282-1.078617936731462-1.422015454929351-2.363674137117414-2.700977469579811-3.079663487291327-4.380325250625901.050250194560249-.31089400793644.20932344598441-.527614803071629.527523901298082-.605240432725623Z" fill="#ffdeb0" stroke-width="0"/>
        <path d="M62.028152217246316,170.408263584786255c-3.208200011428744.506788309901822-6.408173493068716.013058292510323-9.609559865602932-.100564358197516-2.628393356579181-.093297076651652-5.224079899322533-.120748254621503-7.818801974044618.524728281438001-3.331311912515957.828735853699982-5.610070307189744,3.398839855884944-5.833843538634028,6.804812849281006-.052113208868832.793100722854433.159007282529274,1.668735989267589-.498641325339122,2.342806172597193-5.784315090077143-4.022992038730081-8.081408663729235-11.443445401338977-5.572031206187603-18.016980828655505.353454648371553-.925901842030726.732729283139633-1.841963594608387,1.099461135127058-2.762700105566182,1.471619599031328.705998048862966,2.99615780221211.178011279747807,4.479722656293234.115840747253969,2.716463048724108-.113827825305634,5.464301325842825-.097195907852438,8.102272264683052-.939114173270355-.969681282109377,1.744728309909988.626731132968416,2.741067413448036,1.519356301387234,3.128356776462169,3.387738000978061,1.469796807383318,5.819384504437039,4.268315699187951,8.984201593360012,6.024047552695265,1.716681487870119.952355239456665,3.621683091077102,1.585818961098994,5.147863958957714,2.878767085961954Z" fill="#ffe8c9" stroke-width="0"/>
        <path d="M57.404075222973916,183.208254350472998c2.801982566896186,1.609471273590316,5.917416250293172,2.461301859779269,8.900122713530436,3.621692025115408,11.150329890007924,4.337853514991366,22.335486176328232,8.586249886118821,33.513108795925291,12.853760273106673,11.069248848471943,4.226116210782493,22.145557584562994,8.433757892700669,33.217530516489205,12.652763666366809,1.034390573051496.394166680518538,2.106775761585595.716683259372076,2.968580744734936,1.463323549960478-1.151455607763637.852740848924441-2.499908729094386.984333463122312-3.865037636282068,1.054889812741749-9.081194883146964-3.501981810537472-18.190809213963803-6.929569686977629-27.277561089746087-10.416822304954621-15.879358752950793-6.094068587419315-31.769631434804069-12.159400604794428-47.651272197181243-18.247262663369838-1.026997572074833-.39368204303355-2.571039278016542-.360335410638072-2.705949888804753-2.04184392024581.966823132430363-.313502280954708,1.933646264862546-.627004561911235,2.900478041334281-.940500438720846Z" fill="#f8a283" stroke-width="0"/>
        <path d="M54.503595101235987,184.14876663297764c.811504793067797,1.248619771242375,2.257653003935047,1.373518948890705,3.461376393157479,1.83938529848092,11.224406265164362,4.344146838244342,22.470827378885588,8.631507862079161,33.716859234693402,12.919611147743126,11.847415586751595,4.517389614848071,23.712866788024257,8.987828076918959,35.53947336121746,13.558948272808266,1.685560385549252.651490657839531,3.661087987414248.813901324563631,4.917085555971425,2.388086288467093-2.134299877869125.398757759545333-4.222352955546739.08667013260856-6.203163146057705-.667969616253686-22.023200985132462-8.390075422310474-44.035960192887615-16.80761762208931-66.044921046543095-25.235021411886919-4.255453334413687-1.629448767196664-8.482393265254359-3.333409250442855-12.722498427470782-5.003046369683943,2.437978999332699.335961546315957,4.878424474210988.580938148174027,7.335788075031815.200006390325143Z" fill="#f89e7d" stroke-width="0"/>
        <path d="M71.387152244455137,36.978029607013013c1.0907270591415,1.301161343269996,2.21377283734364,2.57795994645312,3.062668009230038,4.06142909260052.397659383359496.471184952879412.705549212377264.977749391082398.642959969190997,1.630318530695149,1.529001588936808,4.688850397995338.207942934595849,8.968884747613629-1.881739867389115,13.138591358150734-2.774630445301227-1.126088997869374-5.549154440732309-2.252095783549521-8.323678956270669-3.378099608285993-.825680758200178-.535302948921526-.405366219554708-1.258377183636185-.205688638201536-1.866284585948961,1.522009389162122-4.633695505479409,2.092796228345833-9.359527539838382,1.525660332386906-14.216918199699649-.080780661592144-.691845898738393-.147045504165362-1.452277595566557.782081109737192-1.719765591806208.89001518384066.062935377427493,1.636259687536949.520058006033651,2.417207171081827.882030389933789.747870673762009.371310872691538,1.61748910051665.57844764879701,1.980530870234361,1.468698614360619Z" fill="#db6841" stroke-width="0"/>
        <path d="M66.989414203138949,34.627300602718606c-1.037181112467806,1.426461953993567-.164371322778607,2.969062315223709-.130354852046366,4.413382765529605.089272708786666,3.790216265684649-.492373073904673,7.426396671458861-1.572493254390793,11.025331425998957-.22820234691244.760365529680712-.724091308320567,1.500718703548046-.399217707701609,2.364147505013534-2.506104175174187-.706140186830453-4.890904996393147-1.729521103075967-7.265227020941893-2.780294522313852-.136703647836839-1.206648565033902.489295233388475-2.26401225882546.672459588315178-3.413149805759531.533461849112427-3.346844858840996.290463185467161-6.525624053598222-1.634844131895079-9.442357601737967-.328179676640502-.497172189985577-.85063357558829-1.060342296425006-.156853663209404-1.689583897643388,3.41731075160169-1.86672582490246,6.913585506750678-2.009193533040161,10.486531041869966-.477475869087357Z" fill="#ea7746" stroke-width="0"/>
        <path d="M56.502883161268983,35.104776471805963c-.156241081864209.58102660491204.190376161809581.96679835762734.477709836040958,1.418690733913536,2.700884893662078,4.24775074459285,2.576571154035264,8.64614392826843.641535813367227,13.126386007617839-2.719622165619512-1.011181348079845-5.440466083977299-2.019091709102213-8.157913049810304-3.036083547389353-.611842843647537-.22897738014035-1.000740216127269-.613975897065757-.754315321424656-1.334224546135374,1.380768808643552-4.035726211614019,3.115161699084638-7.819082171823538,7.152542042540517-9.942203086531663.199164563953673-.104733285499606.426319028240869-.15626067998528.640440679286257-.232565561474985Z" fill="#f58753" stroke-width="0"/>
        <path d="M75.092780222876172,42.669777230308682c-.214106827714204-.543380856926888-.428213655430227-1.086761713853775-.642639425863308-1.630231630952039,11.191003415842715,4.263938378013336,22.345373971689696,8.628667882909212,33.586934457318421,12.755798687654533,7.228472018141474,2.653798122972148,14.506654187140157,5.187911529958001,21.747374483271415,7.805651192391451,8.009611387236873,2.89571780775259,16.11068482524206,5.556184689834481,23.995314842454718,8.807284668473585,3.774992183422,1.556558768830655,7.670303090559173,2.820240203383946,11.50294045645478,4.238705428382673.76917295928979.284672682992095,1.470572415064453.407912560101977,2.102227749768645-.253743697463506.861248825327493.537978452142852,1.388412891190455,1.354018422232912,1.851157241198962,2.223649412844679-.980793708058627.457757295898773-1.856492319804602-.070656769999914-2.700499494607357-.384381966527144-11.76372104172151-4.372693552926648-23.509072345817913-8.794740965624442-35.269626052728199-13.175992597985896-13.564393047707199-5.05324912506876-27.190984319602649-9.93975115280773-40.654768218004392-15.262165902597189-4.450415554056235-1.759311432841059-8.933327177831416-3.437809351189571-13.422825408551944-5.095146399300575-.635790949572765-.234710120723321-1.392366171137837-.848944546291023-2.09559063071174-.029427194920572Z" fill="#ffdeb1" stroke-width="0"/>
        <path d="M71.387152244455137,36.978029607013013c-.660235943731095-.489596521594649-1.320472407558555-.979190082240166-1.980619350717461-1.468744089575921.861403906263149.137180497236841,1.671295505366288.409731369445581,2.394780726954195.909816953400878-.138055032515695.186311472658417-.276108464426216.372620784888568-.414161376236734.558927136175043Z" fill="#ffdeb1" stroke-width="0"/>
        <g>
          <path d="M144.04327197702878,118.53677762699408c-.127618517350129.793430255374915.36203327878502,1.563341650531584-.003978870203355,2.38957336893327-.721721971747684,1.629205009730867-2.049873961335834,2.120770223325962-4.103523194309673,1.340776848135647-7.476200809151123-2.839523895721868-14.947476887023186-5.692128402641174-22.413696024986166-8.557829783369016-4.90205867037821-1.881520585502585-9.792232942740156-3.79404397845974-14.687729416608818-5.692679960080568.019135212269248-1.815110847037431.669660175381068-3.44207386013295,1.491999397376276-5.017838080198999,7.125071267648309,2.690814305649837,14.253138411266264,5.373714942876177,21.374222416437988,8.075056018464238,5.27761404656485,2.002032218595559,10.545425956093823,4.02991850111539,15.820883542366573,6.037672659740565.259646539927417.098816082754638.550684123254541.115021468942359.827105431624659.169696892398861.564905273691693.418524415665161,1.129810995993466.837048225817853,1.694716718302516,1.255572035976002Z" fill="#f0b48e" stroke-width="0"/>
          <path d="M92.508062839725426,131.899271600999782c5.78693998824474,2.167547565477435,11.580913610766402,4.316509947169834,17.359003004524311,6.507442358637491,6.932573439096814,2.628685029401822,13.853296512812449,5.28870987197115,20.775590107165044,7.944479430192587,2.46660966730451.946329286834953,3.184615097579808,2.901175142738794,1.69622684429487,4.576375790995371-.960870141187115,1.081476421622938-2.108035869960077,1.054441774389488-3.36045678089522.574529174433337-9.758691215246472-3.739423510316556-19.524339768552636-7.46066216104191-29.282328839167349-11.201916414533116-2.88498874036668-1.106121737517242-5.752345212171349-2.258293919137941-8.627780081038509-3.389366967796377.662205503009318-1.618022426137031,1.664702651047264-3.13806358128204,1.439745745116852-5.011543371929292Z" fill="#f0b48e" stroke-width="0"/>
          <path d="M104.326343868297045,102.998780020414415c-.023243636140251,1.813889421908243-.88282824626549,3.378556134177416-1.492001789960341,5.01784130960732-8.281367203107948-3.150480896303634-16.568564405891266-6.285758249603532-24.840192644069248-9.461641895770299-2.192200547580796-.841693050530012-2.677524987952893-3.082995856815614-1.065975330753645-4.580311345718656.935617304754487-.869296237382514,1.983244660497803-.827206310705151,3.101410399041924-.395397557353135,6.750358682405931,2.606820648841676,13.506057772619897,5.19979238495398,20.257139789489884,7.804741300187743,1.3528061479592.521989087737893,2.693396698969082,1.07568932250615,4.039619576251425,1.614768189047027Z" fill="#ebaf88" stroke-width="0"/>
          <path d="M92.508062839725426,131.899271600999782c.730830470835826,1.374250722230499.003724220169715,3.905188974904377-1.439751090168102,5.011546081266715-7.948771014431259-3.016482574017573-15.902142902768901-6.020927614430548-23.843559689492395-9.056684891762416-2.427886531177137-.928107867577637-3.08583945427381-2.970758836547247-1.536243899956389-4.601226182954633.996781459491103-1.048801566394104,2.130897892202483-.925959127756869,3.379486342109885-.441989796021517,6.954101450666712,2.695524995460801,13.92367276504956,5.351053884543944,20.885089816449181,8.027725739684684.860387726348563.330818918797377,1.703734710077697.706002341732528,2.554978521057819,1.060629049787167Z" fill="#ebaf88" stroke-width="0"/>
          <path d="M115.356569625642805,129.523628167340576c-8.306694818695178-3.138631506024467-16.64791774519108-6.187507683238437-24.858306953306965-9.576484690012876-.183564894556184-1.908233129996006.589671187226486-3.457451318083258,1.812598858816273-4.837930822059207,8.57637414666533,3.093651580082224,17.094188646486145,6.340423401585213,25.537962479358612,9.780795169523117.827414405306627.478372219762605,1.041368122254426,1.383327869454661,1.364645190941701,2.154590474654469.438773674844015,1.046805597286948-.159649433958293,2.060401133901905-1.273206242979541,2.177824443915597-.862207711616065.09092253336712-1.694865499377556.460684302654045-2.58369333283008.301205423978899Z" fill="#f0b38d" stroke-width="0"/>
          <path d="M81.880041010772402,144.535142240572895c6.699458696530201,2.520372289302031,13.410448850057037,5.010785810467496,20.089436159414618,7.584365499329579,1.47654762944876.568951285356889,2.034292656879188,2.160489577825501,1.474738120553411,3.476324914197903-.578319183993699,1.359949723486352-2.014847968405775,2.040623723522003-3.493347261027338,1.477982949014404-6.531246883194399-2.485417902835252-13.043192128781811-5.02162185546149-19.562127193234119-7.53943492030885.274708646662475-1.73289954181746.809652633918631-3.387997050902413,1.491300174293428-4.999238442233036Z" fill="#f2b58f" stroke-width="0"/>
          <path d="M81.880041010772402,144.535142240572895c.067830320796929,1.835303568619565-.563065099451705,3.461716869376687-1.491300174293428,4.999238442233036-6.393458662977537-2.414926911571456-12.794035699769665-4.811271396567463-19.17519576713039-7.258309815693792-1.526824809351638-.585505353432382-2.236967534377982-2.065067493411334-1.786803435365982-3.362253980223613.506467629111285-1.459434552227322,1.91134155655709-2.330667882282796,3.344644934471944-1.787285863421857,6.387686245663645,2.421628019101263,12.742173611568433,4.930964940391277,19.108654442317857,7.408611217106227Z" fill="#edb18a" stroke-width="0"/>
          <path d="M115.356569625642805,129.523628167340576c.853871266639544-.25855359563684,1.517768821579011-.875314347516905,2.597329277996323-.743684580093031,1.063968200922318.129735084728964,1.318700671788974-1.015205662471999.832814575976954-1.688616720610298-.508532954424481-.704798718348684-.584926327075664-1.490894387283333-.937870618297893-2.201263392380497,6.324017573375386,2.374112433773917,12.658267132643232,4.721628424851588,18.964797945709506,7.141482271976201,1.54656978740968.593429531152651,2.189716139520897,2.088798754319214,1.69142134048343,3.39130125074189-.59488648075785,1.555013675646478-2.066736055585352,2.215351771048518-3.734298818129901,1.577868355128885-6.477538022692897-2.476268719012296-12.94376255102361-4.982197504234136-19.41419370373842-7.47708718476315Z" fill="#f3b791" stroke-width="0"/>
          <path d="M92.310861531152113,115.109212655268493c-.60419943297893,1.612644857179475-1.208398865954223,3.225289714357132-1.812596703875897,4.837932418598939-6.05171783654805-2.280884602620063-12.111563136115365-4.540543025028455-18.149741584515141-6.856768196445046-1.618587805432981-.620890394260641-2.287824633533091-2.117588806821004-1.732757751848112-3.485962016467965.617060678530834-1.521203417754805,2.090022374570253-2.171263776937849,3.767863481994937-1.475495065849827,5.243324007265983,2.174314482233967,10.712902325312825,3.777334898499248,15.819622074543076,6.300786979252734.644658676890685.318553499095287,1.496974468078406.151311274883483,2.107610483701137.679505880911165Z" fill="#ebaf88" stroke-width="0"/>
        </g>
      </g>
    </g>
  </a>
  <path d="M73.2109375,55.80828857421875c-12.461317812369089,34.525031994671735-27.020921365714457,72.639993515625974-40.717437197987238,106.72067698932733,12.488069289482155-34.549827004328108,27.011607026830461-72.661802484220971,40.717437197987238-106.72067698932733h0Z" fill="#fff" stroke-width="0"/>
</svg>