<?xml version="1.0" encoding="UTF-8"?>
<svg id="Pattern" xmlns="http://www.w3.org/2000/svg" xmlns:xlink="http://www.w3.org/1999/xlink" viewBox="0 0 280 280">
  <defs>
    <style>
      .cls-1 {
        stroke: url(#linear-gradient-5);
      }

      .cls-1, .cls-2, .cls-3, .cls-4, .cls-5, .cls-6 {
        fill: none;
        stroke-linecap: round;
        stroke-linejoin: round;
      }

      .cls-1, .cls-2, .cls-3, .cls-5, .cls-6 {
        stroke-width: 41px;
      }

      .cls-2 {
        stroke: url(#linear-gradient-3);
      }

      .cls-3 {
        stroke: url(#linear-gradient-2);
      }

      .cls-4 {
        stroke: #6c5f5d;
        stroke-width: 15px;
      }

      .cls-7 {
        fill: #fff;
      }

      .cls-8 {
        fill: #ca7eb4;
      }

      .cls-9 {
        fill: #774097;
      }

      .cls-10 {
        fill: #894f9e;
      }

      .cls-5 {
        stroke: url(#linear-gradient);
      }

      .cls-11 {
        fill: #b6a9a6;
      }

      .cls-12 {
        fill: #a462a7;
      }

      .cls-13 {
        fill: #cbc1bf;
      }

      .cls-6 {
        stroke: url(#linear-gradient-4);
      }
    </style>
    <linearGradient id="linear-gradient" x1="670.9091907904658" y1="-410.462039234723306" x2="619.937692997067529" y2="-378.611512442714854" gradientTransform="translate(-648.199284031689785 329.872089994772978) rotate(11.674238455666801)" gradientUnits="userSpaceOnUse">
      <stop offset=".005347593582888" stop-color="#361744"/>
      <stop offset=".55633979394477" stop-color="#4d2266"/>
      <stop offset="1" stop-color="#5e2b7d"/>
    </linearGradient>
    <linearGradient id="linear-gradient-2" gradientTransform="translate(-496.358729901340666 329.872089994772978) rotate(11.674238455666801)" xlink:href="#linear-gradient"/>
    <linearGradient id="linear-gradient-3" gradientTransform="translate(-496.358729901340666 329.872089994772978) rotate(11.674238455666801)" xlink:href="#linear-gradient"/>
    <linearGradient id="linear-gradient-4" gradientTransform="translate(-496.358729901340666 329.872089994772978) rotate(11.674238455666801)" xlink:href="#linear-gradient"/>
    <linearGradient id="linear-gradient-5" gradientTransform="translate(-496.358729901340666 329.872089994772978) rotate(11.674238455666801)" xlink:href="#linear-gradient"/>
  </defs>
  <g>
    <g>
      <g>
        <path class="cls-5" d="M65.708847063302528,41.577306883420533c2.46476860956318.694063537153852,4.929533914597414,1.38812624178172,7.394302510263515,2.082189830653078.383081587455308,1.027267276549537-.365765585149347,1.69180113242146-.813360286971147,2.427903692412656-4.401876917756454,7.239159460270457-4.490562494323967,14.348989816771791.413719617255992,21.39780270639676,3.955413966335982,5.685029532050976,11.985847021182053,8.358294466410371,19.522105440748419,6.432797494915576,1.097184871179707-.280329876331962,2.230541336191891-1.065482435289596,3.369867968627659-.073910603900003,1.054771340213847,1.820932345173787.35407128130646,3.604349772485875-.13856821689842,5.387661143045989-.416563084367226,1.507920768937765-.855038553629129,3.00978298287373-1.283819653175669,4.51432830464546-2.390724887283795,1.858723960231146-5.254465589487154,1.557269183464086-7.932488305297738,1.483310387055099-16.945363196806284-.468001299737807-29.526635766704203-15.16125393796392-27.487291453999205-32.099801399624994.445362897497034-3.699130059805611,1.396330171399313-7.337312836354613,3.637661243095863-10.466655992464439.936223668346429-.890161745790465,2.061407153627442-1.192196519086792,3.317871136350732-1.085625563135181Z"/>
        <path class="cls-5" d="M62.390975926951796,42.662932446555715c-.743284561585824,2.057179547400665-1.607805967811146,4.079523247122779-2.21009524353758,6.177216253743609-3.791986800777522,13.207007249129674,2.385286966877175,28.020742782187881,16.138051229183475,33.700846395495319,5.7085495051615,2.357719044117403,11.757381831739622,2.891674053471434,17.854163596082799,1.205159170556726-.009477158826485.073923063988332-.016333015833879.148358868667856-.028793627774576.221856422798737-1.235420950282787,7.284765344127663-4.4952677929723,8.843456028222136-10.902916386534343,6.699728245333972-3.300165192502391-1.104096003073209-6.739000079729522-1.786196314526023-10.080385035700601-2.776483900426683-1.402174903529158-.415566197523731-1.945506931169803-.196893605145306-2.297958917339201,1.237159784428513-.996969239042301,4.056455065025148-2.570583175765933,7.656800594028027-3.672838985519775,11.686865742434748-.1918523532986.701460283435154-.429221613603659,2.341696401468653-1.0622749451868,2.869951916076388,1.078208544831796-4.045654987887247,2.74332351702833-8.412673059316148,3.929247631205726-12.426547540966567.432864249303748-1.465080165169638.20724607484226-2.221980396034269-1.162117405345271-3.003462180800852-10.038892907296031-5.729106705417507-15.804413459649368-14.508478640404064-17.894283855213871-25.829703843461175-.173858836647923-.941830002153438-.136469295977804-1.923655206104741-.197231136169648-2.886884423587617.147731830391422.013934107435489.299288397844066.011245163779677.442646120694917.044181566714542q4.796233736060458,1.102009437638117,6.05973854397962-3.596246778964996c.853138456899615-3.172640462551499,1.710265734674977-6.344217938298243,2.557116199119264-9.518536549683631.415645248214787-1.557996764808195,1.099744064193146-2.928656139945815,2.527932218055867-3.805100279691032Z"/>
        <path class="cls-5" d="M95.595482313226967,73.8440900038986c-1.829420067242609-.14479907961686-3.447317531437875.760495998456463-5.184659856136932,1.092797116833026-7.536726193362483,1.441532653459944-15.21916208454968-2.097839236603249-19.152640126760161-8.639486529098576-4.281939679411153-7.12115840005572-3.545755515942801-13.948534589952033.68866615980005-20.738839430014195.392188332942169-.628913324022506.771302681012457-1.266039118694607,1.156392691293149-1.899208407294282,1.748276652979257.451716488580132,3.496648218339033.90328984993721,5.245164209969516,1.35478529296779,2.524283775448566,1.716231262827932,3.355166501798521,3.873727385558595,2.558569217961121,6.944658620388509-1.051260754771647,4.052682903138702-2.078345322190216,8.115696552045847-3.296462779402646,12.119230862139375-.556032289401628,1.827484092227678-.31703080762054,2.632424421270116,1.686339048428636,3.087969355428868,4.200754325829621.955205757634758,8.333046115571051,2.207992058338277,12.503797642571953,3.29903580752034,1.858304079829395.486119792938553,3.191150386363006,1.502707028055738,3.794833792275313,3.379057311129145Z"/>
        <path class="cls-5" d="M31.236678148281499,71.949722561985254c1.084399526407651-4.063102594147495,2.168798111957585-8.126201892144309,3.253179999990607-12.189314549461415,2.260240867486573-3.038061227576691,3.898019737704089-3.652573488741837,7.389263828908952-2.706728600483984,2.980456365912687.807463125685899,5.950029480440207,1.65510225516482,8.924417310161516,2.484968316008235,1.100600013998701,2.242220263748095,1.057878322906618,4.771354390446504,1.772100423419033,7.124426190981467,2.742715777745616,9.036114667804213,8.025481615803074,16.065880079066119,16.14821070900507,20.805922700612427,1.771032086282503,1.033487058863102,2.162342202196669,2.019720566744581,1.533591770168641,3.907239222269709-1.316618323420698,3.952496028163296-1.945245004850221,8.110979130444321-3.471968350942916,12.008677536436153-1.454420982383454,2.724697028330411-3.680855581664218,3.824921951621945-6.635752084195701,3.103570414363276-3.177330710404931-.775657707119535-6.340673412634715-1.620977773671257-9.47755034797774-2.54640563655812-3.488952970370519-1.029299080470082-5.112133367747447-3.880592195824647-4.216805929179827-7.477870316906774,1.065544260151-4.281182225186058,2.201867834346558-8.547866321478068,3.448267139921882-12.779335558789171.45340760201907-1.539298172239796.070611626035316-2.07149144334835-1.428249301201504-2.435181329234183-4.045117213201593-.981529214306647-8.05495062648879-2.11048076962652-12.069968749616237-3.213047724904754-3.515542466469924-.965404301136005-4.710485865020019-2.399664785742061-5.168736418461776-6.086920664332865Z"/>
      </g>
      <g>
        <path class="cls-12" d="M65.708847063302528,41.577306883420533c2.46476860956318.694063537153852,4.929533914597414,1.38812624178172,7.394302510263515,2.082189830653078.383081587455308,1.027267276549537-.365765585149347,1.69180113242146-.813360286971147,2.427903692412656-4.401876917756454,7.239159460270457-4.490562494323967,14.348989816771791.413719617255992,21.39780270639676,3.955413966335982,5.685029532050976,11.985847021182053,8.358294466410371,19.522105440748419,6.432797494915576,1.097184871179707-.280329876331962,2.230541336191891-1.065482435289596,3.369867968627659-.073910603900003,1.054771340213847,1.820932345173787.35407128130646,3.604349772485875-.13856821689842,5.387661143045989-.416563084367226,1.507920768937765-.855038553629129,3.00978298287373-1.283819653175669,4.51432830464546-2.390724887283795,1.858723960231146-5.254465589487154,1.557269183464086-7.932488305297738,1.483310387055099-16.945363196806284-.468001299737807-29.526635766704203-15.16125393796392-27.487291453999205-32.099801399624994.445362897497034-3.699130059805611,1.396330171399313-7.337312836354613,3.637661243095863-10.466655992464439.936223668346429-.890161745790465,2.061407153627442-1.192196519086792,3.317871136350732-1.085625563135181Z"/>
        <path class="cls-10" d="M62.390975926951796,42.662932446555715c-.743284561585824,2.057179547400665-1.607805967811146,4.079523247122779-2.21009524353758,6.177216253743609-3.791986800777522,13.207007249129674,2.385286966877175,28.020742782187881,16.138051229183475,33.700846395495319,5.7085495051615,2.357719044117403,11.757381831739622,2.891674053471434,17.854163596082799,1.205159170556726-.009477158826485.073923063988332-.016333015833879.148358868667856-.028793627774576.221856422798737-1.235420950282787,7.284765344127663-4.4952677929723,8.843456028222136-10.902916386534343,6.699728245333972-3.300165192502391-1.104096003073209-6.739000079729522-1.786196314526023-10.080385035700601-2.776483900426683-1.402174903529158-.415566197523731-1.945506931169803-.196893605145306-2.297958917339201,1.237159784428513-.996969239042301,4.056455065025148-2.570583175765933,7.656800594028027-3.672838985519775,11.686865742434748-.1918523532986.701460283435154-.429221613603659,2.341696401468653-1.0622749451868,2.869951916076388,1.078208544831796-4.045654987887247,2.74332351702833-8.412673059316148,3.929247631205726-12.426547540966567.432864249303748-1.465080165169638.20724607484226-2.221980396034269-1.162117405345271-3.003462180800852-10.038892907296031-5.729106705417507-15.804413459649368-14.508478640404064-17.894283855213871-25.829703843461175-.173858836647923-.941830002153438-.136469295977804-1.923655206104741-.197231136169648-2.886884423587617.147731830391422.013934107435489.299288397844066.011245163779677.442646120694917.044181566714542q4.796233736060458,1.102009437638117,6.05973854397962-3.596246778964996c.853138456899615-3.172640462551499,1.710265734674977-6.344217938298243,2.557116199119264-9.518536549683631.415645248214787-1.557996764808195,1.099744064193146-2.928656139945815,2.527932218055867-3.805100279691032Z"/>
        <path class="cls-8" d="M95.595482313226967,73.8440900038986c-1.829420067242609-.14479907961686-3.447317531437875.760495998456463-5.184659856136932,1.092797116833026-7.536726193362483,1.441532653459944-15.21916208454968-2.097839236603249-19.152640126760161-8.639486529098576-4.281939679411153-7.12115840005572-3.545755515942801-13.948534589952033.68866615980005-20.738839430014195.392188332942169-.628913324022506.771302681012457-1.266039118694607,1.156392691293149-1.899208407294282,1.748276652979257.451716488580132,3.496648218339033.90328984993721,5.245164209969516,1.35478529296779,2.524283775448566,1.716231262827932,3.355166501798521,3.873727385558595,2.558569217961121,6.944658620388509-1.051260754771647,4.052682903138702-2.078345322190216,8.115696552045847-3.296462779402646,12.119230862139375-.556032289401628,1.827484092227678-.31703080762054,2.632424421270116,1.686339048428636,3.087969355428868,4.200754325829621.955205757634758,8.333046115571051,2.207992058338277,12.503797642571953,3.29903580752034,1.858304079829395.486119792938553,3.191150386363006,1.502707028055738,3.794833792275313,3.379057311129145Z"/>
        <path class="cls-9" d="M31.236678148281499,71.949722561985254c1.084399526407651-4.063102594147495,2.168798111957585-8.126201892144309,3.253179999990607-12.189314549461415,2.260240867486573-3.038061227576691,3.898019737704089-3.652573488741837,7.389263828908952-2.706728600483984,2.980456365912687.807463125685899,5.950029480440207,1.65510225516482,8.924417310161516,2.484968316008235,1.100600013998701,2.242220263748095,1.057878322906618,4.771354390446504,1.772100423419033,7.124426190981467,2.742715777745616,9.036114667804213,8.025481615803074,16.065880079066119,16.14821070900507,20.805922700612427,1.771032086282503,1.033487058863102,2.162342202196669,2.019720566744581,1.533591770168641,3.907239222269709-1.316618323420698,3.952496028163296-1.945245004850221,8.110979130444321-3.471968350942916,12.008677536436153-1.454420982383454,2.724697028330411-3.680855581664218,3.824921951621945-6.635752084195701,3.103570414363276-3.177330710404931-.775657707119535-6.340673412634715-1.620977773671257-9.47755034797774-2.54640563655812-3.488952970370519-1.029299080470082-5.112133367747447-3.880592195824647-4.216805929179827-7.477870316906774,1.065544260151-4.281182225186058,2.201867834346558-8.547866321478068,3.448267139921882-12.779335558789171.45340760201907-1.539298172239796.070611626035316-2.07149144334835-1.428249301201504-2.435181329234183-4.045117213201593-.981529214306647-8.05495062648879-2.11048076962652-12.069968749616237-3.213047724904754-3.515542466469924-.965404301136005-4.710485865020019-2.399664785742061-5.168736418461776-6.086920664332865Z"/>
      </g>
    </g>
    <path class="cls-7" d="M75.472953749507724,50.53749788319692c.057044052362471.017133536643087.112532500761517.036601654492188.167787504633452.058836926586082l-.597198839657722-.252020871012064c.122549276586142.053577672668325.23584634186227.119822593540448.343472638362073.199108065853579l-.505969082783849-.39090975990257c.130147091724211.101225123924451.243933203020788.216148185036218.345798993272183.345715417461179l-.39090975990257-.505969082785668c.108731930391514.145020405838295.197229137185786.299936114406592.267709522397126.466912965508527l-.252020871013883-.597198839657722c.068830882089969.173616870690239.113671013550629.351754768065803.141003180460757.53645264752231l-.089302416117789-.664599030526006c.032340775154807.258539830556401.027322495541739.515100856500794-.006443843067245.77325707962882l.08930241611597-.664599030526006c-.035512445341737.239999537803669-.093956620532481.473555976455827-.171332112879099.703399637157418-.104186152137117.332299515261184-.119069888156446.664599030522368-.044651208057985.996898545785371.015088443087734.332705830674968.113979136112903.642538615647936.296672079071868.929498354918906.157101772323585.291337649021443.371733206087811.525145636598609.643894301294495.701423962736953.24145698889879.220969804513516.524851449248672.370128388167359.850183381049646.447475750965168.63997108401054.145764967572177,1.358329207674615.114219876086281,1.926396900706095-.252020871013883l.505969082783849-.39090975990257c.309840581097887-.311933278791912.524150791403372-.679655919606375.642930630916453-1.103167922441571.182501714130922-.542120777361561.271860389520953-1.130922271979216.289213206229761-1.700094165200426.011775064598623-.386221783122892-.055127860234279-.783864276167151-.119519261053938-1.160375025629037-.028344023743557-.165733770136285-.071479725165773-.325356360632213-.132921169688416-.48183823452564-.124978729892973-.318301530869576-.248790326906601-.664956604010513-.441374298878145-.954511217711115-.185757065321013-.279290196063812-.392951741261641-.561725623254461-.631252377725104-.800482203747379-.503404227831197-.504367398372779-1.117790926389716-.857301226458731-1.798240535419609-1.061678507307079-.332299515261184-.104186152137117-.664599030524187-.119069888158265-.996898545785371-.044651208059804-.332705830676787.015088443089553-.642538615649755.113979136112903-.929498354920725.296672079071868-.291337649019624.157101772325404-.52514563659679.37173320608963-.701423962735134.643894301294495-.220969804513516.241456988900609-.370128388169178.524851449248672-.447475750965168.850183381051465-.145764967573996.639971084008721-.114219876086281,1.358329207672796.252020871013883,1.926396900704276.357910178987368.555146338305349.852579833475829.956221836775512,1.494077682344141,1.148899713702122h0Z"/>
    <path class="cls-7" d="M94.973301125977741,76.473866904247188c-.012725243093882-.66721585158848-.189532265016169-1.327120451553128-.535399853426497-1.900593906610084-.029218076108009-.048445681575686-.061529670489108-.094656167508219-.094972354167112-.140243882742652-.1550940746165-.211417976388475-.313700538717967-.426073097529297-.486776486832241-.62372013517961-.081704021329642-.093303303874563-.171153776673236-.179476936575156-.264317456560093-.261238796589168-.337625499374553-.296305264571856-.697453334658348-.572105350540369-1.06806722264264-.825840827834327-.212588955419051-.145545976069116-.436300313504034-.273396785789373-.673249107703668-.374925184652966-.286959739270969-.182692942958965-.596792524243938-.281583635982315-.929498354918906-.296672079071868-.332299515263003-.074418680098461-.664599030526006-.059534944077313-.99689854578719.044651208059804-.325331931800974.07734736279599-.608726392149038.226505946451653-.850183381049646.447475750963349-.272161095206684.176278326136526-.486792528970909.410086313717329-.643894301294495.701423962735134l-.252020871013883.597198839659541c-.119069888156446.443066020347032-.119069888156446.886132040697703,0,1.329198061048373l.252020871013883.597198839655903c.222253398973407.375665829484205.521213013202214.674625443713012.896878842686419.896878842688238.345679053847562.148117406448364.659905513697595.353509932203451.957109740211308.582356273540427l-.505969082783849-.39090975990257c.2236561821137.17395194873643.441083790814446.356802585280093.617896314481186.579669399241538l-.39090975990257-.505969082783849c.082994825335845.108449012757774.153324854096354.223084757422839.208990332821486.347898883057496l-.252020871013883-.597198839659541c.04366895246676.104687846125671.074798614614338.211269802195602.091444488836714.323555042727094l-.08930241611597-.664599030526006c.005234068768914.044854478735942.008278340821562.089255026869068.009139475161646.134406422175744-.012984527449589.34419937056191.058786423092897.665265520679895.215312851623821.963198450352138.100822396472722.309936072455457.273129128276196.57812557332727.516920195410421.804568502615439.22644292928635.243791067132406.494632430156344.41609779893588.804568502611801.516920195408602.297932929672243.156526428532743.618999079790228.22829737907341.963198450353957.215312851623821l.664599030524187-.089302416117789c.423512002838834-.118779839511262.791234643651478-.333090049818566,1.103167922441571-.642930630914634l.39090975990257-.505969082783849c.226146247661745-.38992844596396.339920676706242-.810527736026415.341323287131672-1.261797870183727h0Z"/>
  </g>
  <g>
    <g>
      <g>
        <path class="cls-3" d="M217.549401193651647,41.577306883420533c2.46476860956318.694063537153852,4.929533914597414,1.38812624178172,7.394302510263515,2.082189830653078.383081587455308,1.027267276549537-.365765585149347,1.69180113242146-.813360286971147,2.427903692412656-4.401876917756454,7.239159460270457-4.490562494323967,14.348989816771791.413719617255992,21.39780270639676,3.955413966335982,5.685029532050976,11.985847021182053,8.358294466410371,19.522105440748419,6.432797494915576,1.097184871179707-.280329876331962,2.230541336191891-1.065482435289596,3.369867968627659-.073910603900003,1.054771340213847,1.820932345173787.35407128130646,3.604349772485875-.13856821689842,5.387661143045989-.416563084367226,1.507920768937765-.855038553629129,3.00978298287373-1.283819653175669,4.51432830464546-2.390724887283795,1.858723960231146-5.254465589487154,1.557269183464086-7.932488305297738,1.483310387055099-16.945363196806284-.468001299737807-29.526635766704203-15.16125393796392-27.487291453999205-32.099801399624994.445362897497034-3.699130059805611,1.396330171399313-7.337312836354613,3.637661243095863-10.466655992464439.936223668346429-.890161745790465,2.061407153627442-1.192196519086792,3.317871136350732-1.085625563135181Z"/>
        <path class="cls-2" d="M214.231530057300915,42.662932446555715c-.743284561585824,2.057179547400665-1.607805967811146,4.079523247122779-2.21009524353758,6.177216253743609-3.791986800777522,13.207007249129674,2.385286966877175,28.020742782187881,16.138051229183475,33.700846395495319,5.7085495051615,2.357719044117403,11.757381831739622,2.891674053471434,17.854163596082799,1.205159170556726-.009477158826485.073923063988332-.016333015833879.148358868667856-.028793627774576.221856422798737-1.235420950282787,7.284765344127663-4.4952677929723,8.843456028222136-10.902916386534343,6.699728245333972-3.300165192502391-1.104096003073209-6.739000079729522-1.786196314526023-10.080385035700601-2.776483900426683-1.402174903529158-.415566197523731-1.945506931169803-.196893605145306-2.297958917339201,1.237159784428513-.996969239042301,4.056455065025148-2.570583175765933,7.656800594028027-3.672838985519775,11.686865742434748-.1918523532986.701460283435154-.429221613603659,2.341696401468653-1.0622749451868,2.869951916076388,1.078208544831796-4.045654987887247,2.74332351702833-8.412673059316148,3.929247631205726-12.426547540966567.432864249303748-1.465080165169638.20724607484226-2.221980396034269-1.162117405345271-3.003462180800852-10.038892907296031-5.729106705417507-15.804413459649368-14.508478640404064-17.894283855213871-25.829703843461175-.173858836647923-.941830002153438-.136469295977804-1.923655206104741-.197231136169648-2.886884423587617.147731830391422.013934107435489.299288397844066.011245163779677.442646120694917.044181566714542q4.796233736060458,1.102009437638117,6.05973854397962-3.596246778964996c.853138456899615-3.172640462551499,1.710265734674977-6.344217938298243,2.557116199119264-9.518536549683631.415645248214787-1.557996764808195,1.099744064193146-2.928656139945815,2.527932218055867-3.805100279691032Z"/>
        <path class="cls-6" d="M247.436036443576086,73.8440900038986c-1.829420067242609-.14479907961686-3.447317531437875.760495998456463-5.184659856136932,1.092797116833026-7.536726193362483,1.441532653459944-15.21916208454968-2.097839236603249-19.152640126760161-8.639486529098576-4.281939679411153-7.12115840005572-3.545755515942801-13.948534589952033.68866615980005-20.738839430014195.392188332942169-.628913324022506.771302681012457-1.266039118694607,1.156392691293149-1.899208407294282,1.748276652979257.451716488580132,3.496648218339033.90328984993721,5.245164209969516,1.35478529296779,2.524283775448566,1.716231262827932,3.355166501798521,3.873727385558595,2.558569217961121,6.944658620388509-1.051260754771647,4.052682903138702-2.078345322190216,8.115696552045847-3.296462779402646,12.119230862139375-.556032289401628,1.827484092227678-.31703080762054,2.632424421270116,1.686339048428636,3.087969355428868,4.200754325829621.955205757634758,8.333046115571051,2.207992058338277,12.503797642571953,3.29903580752034,1.858304079829395.486119792938553,3.191150386363006,1.502707028055738,3.794833792275313,3.379057311129145Z"/>
        <path class="cls-1" d="M183.077232278630618,71.949722561985254c1.084399526407651-4.063102594147495,2.168798111957585-8.126201892144309,3.253179999990607-12.189314549461415,2.260240867486573-3.038061227576691,3.898019737704089-3.652573488741837,7.389263828908952-2.706728600483984,2.980456365912687.807463125685899,5.950029480440207,1.65510225516482,8.924417310161516,2.484968316008235,1.100600013998701,2.242220263748095,1.057878322906618,4.771354390446504,1.772100423419033,7.124426190981467,2.742715777745616,9.036114667804213,8.025481615803074,16.065880079066119,16.14821070900507,20.805922700612427,1.771032086282503,1.033487058863102,2.162342202196669,2.019720566744581,1.533591770168641,3.907239222269709-1.316618323420698,3.952496028163296-1.945245004850221,8.110979130444321-3.471968350942916,12.008677536436153-1.454420982383454,2.724697028330411-3.680855581664218,3.824921951621945-6.635752084195701,3.103570414363276-3.177330710404931-.775657707119535-6.340673412634715-1.620977773671257-9.47755034797774-2.54640563655812-3.488952970370519-1.029299080470082-5.112133367747447-3.880592195824647-4.216805929179827-7.477870316906774,1.065544260151-4.281182225186058,2.201867834346558-8.547866321478068,3.448267139921882-12.779335558789171.45340760201907-1.539298172239796.070611626035316-2.07149144334835-1.428249301201504-2.435181329234183-4.045117213201593-.981529214306647-8.05495062648879-2.11048076962652-12.069968749616237-3.213047724904754-3.515542466469924-.965404301136005-4.710485865020019-2.399664785742061-5.168736418461776-6.086920664332865Z"/>
      </g>
      <g>
        <path class="cls-12" d="M217.549401193651647,41.577306883420533c2.46476860956318.694063537153852,4.929533914597414,1.38812624178172,7.394302510263515,2.082189830653078.383081587455308,1.027267276549537-.365765585149347,1.69180113242146-.813360286971147,2.427903692412656-4.401876917756454,7.239159460270457-4.490562494323967,14.348989816771791.413719617255992,21.39780270639676,3.955413966335982,5.685029532050976,11.985847021182053,8.358294466410371,19.522105440748419,6.432797494915576,1.097184871179707-.280329876331962,2.230541336191891-1.065482435289596,3.369867968627659-.073910603900003,1.054771340213847,1.820932345173787.35407128130646,3.604349772485875-.13856821689842,5.387661143045989-.416563084367226,1.507920768937765-.855038553629129,3.00978298287373-1.283819653175669,4.51432830464546-2.390724887283795,1.858723960231146-5.254465589487154,1.557269183464086-7.932488305297738,1.483310387055099-16.945363196806284-.468001299737807-29.526635766704203-15.16125393796392-27.487291453999205-32.099801399624994.445362897497034-3.699130059805611,1.396330171399313-7.337312836354613,3.637661243095863-10.466655992464439.936223668346429-.890161745790465,2.061407153627442-1.192196519086792,3.317871136350732-1.085625563135181Z"/>
        <path class="cls-10" d="M214.231530057300915,42.662932446555715c-.743284561585824,2.057179547400665-1.607805967811146,4.079523247122779-2.21009524353758,6.177216253743609-3.791986800777522,13.207007249129674,2.385286966877175,28.020742782187881,16.138051229183475,33.700846395495319,5.7085495051615,2.357719044117403,11.757381831739622,2.891674053471434,17.854163596082799,1.205159170556726-.009477158826485.073923063988332-.016333015833879.148358868667856-.028793627774576.221856422798737-1.235420950282787,7.284765344127663-4.4952677929723,8.843456028222136-10.902916386534343,6.699728245333972-3.300165192502391-1.104096003073209-6.739000079729522-1.786196314526023-10.080385035700601-2.776483900426683-1.402174903529158-.415566197523731-1.945506931169803-.196893605145306-2.297958917339201,1.237159784428513-.996969239042301,4.056455065025148-2.570583175765933,7.656800594028027-3.672838985519775,11.686865742434748-.1918523532986.701460283435154-.429221613603659,2.341696401468653-1.0622749451868,2.869951916076388,1.078208544831796-4.045654987887247,2.74332351702833-8.412673059316148,3.929247631205726-12.426547540966567.432864249303748-1.465080165169638.20724607484226-2.221980396034269-1.162117405345271-3.003462180800852-10.038892907296031-5.729106705417507-15.804413459649368-14.508478640404064-17.894283855213871-25.829703843461175-.173858836647923-.941830002153438-.136469295977804-1.923655206104741-.197231136169648-2.886884423587617.147731830391422.013934107435489.299288397844066.011245163779677.442646120694917.044181566714542q4.796233736060458,1.102009437638117,6.05973854397962-3.596246778964996c.853138456899615-3.172640462551499,1.710265734674977-6.344217938298243,2.557116199119264-9.518536549683631.415645248214787-1.557996764808195,1.099744064193146-2.928656139945815,2.527932218055867-3.805100279691032Z"/>
        <path class="cls-8" d="M247.436036443576086,73.8440900038986c-1.829420067242609-.14479907961686-3.447317531437875.760495998456463-5.184659856136932,1.092797116833026-7.536726193362483,1.441532653459944-15.21916208454968-2.097839236603249-19.152640126760161-8.639486529098576-4.281939679411153-7.12115840005572-3.545755515942801-13.948534589952033.68866615980005-20.738839430014195.392188332942169-.628913324022506.771302681012457-1.266039118694607,1.156392691293149-1.899208407294282,1.748276652979257.451716488580132,3.496648218339033.90328984993721,5.245164209969516,1.35478529296779,2.524283775448566,1.716231262827932,3.355166501798521,3.873727385558595,2.558569217961121,6.944658620388509-1.051260754771647,4.052682903138702-2.078345322190216,8.115696552045847-3.296462779402646,12.119230862139375-.556032289401628,1.827484092227678-.31703080762054,2.632424421270116,1.686339048428636,3.087969355428868,4.200754325829621.955205757634758,8.333046115571051,2.207992058338277,12.503797642571953,3.29903580752034,1.858304079829395.486119792938553,3.191150386363006,1.502707028055738,3.794833792275313,3.379057311129145Z"/>
        <path class="cls-9" d="M183.077232278630618,71.949722561985254c1.084399526407651-4.063102594147495,2.168798111957585-8.126201892144309,3.253179999990607-12.189314549461415,2.260240867486573-3.038061227576691,3.898019737704089-3.652573488741837,7.389263828908952-2.706728600483984,2.980456365912687.807463125685899,5.950029480440207,1.65510225516482,8.924417310161516,2.484968316008235,1.100600013998701,2.242220263748095,1.057878322906618,4.771354390446504,1.772100423419033,7.124426190981467,2.742715777745616,9.036114667804213,8.025481615803074,16.065880079066119,16.14821070900507,20.805922700612427,1.771032086282503,1.033487058863102,2.162342202196669,2.019720566744581,1.533591770168641,3.907239222269709-1.316618323420698,3.952496028163296-1.945245004850221,8.110979130444321-3.471968350942916,12.008677536436153-1.454420982383454,2.724697028330411-3.680855581664218,3.824921951621945-6.635752084195701,3.103570414363276-3.177330710404931-.775657707119535-6.340673412634715-1.620977773671257-9.47755034797774-2.54640563655812-3.488952970370519-1.029299080470082-5.112133367747447-3.880592195824647-4.216805929179827-7.477870316906774,1.065544260151-4.281182225186058,2.201867834346558-8.547866321478068,3.448267139921882-12.779335558789171.45340760201907-1.539298172239796.070611626035316-2.07149144334835-1.428249301201504-2.435181329234183-4.045117213201593-.981529214306647-8.05495062648879-2.11048076962652-12.069968749616237-3.213047724904754-3.515542466469924-.965404301136005-4.710485865020019-2.399664785742061-5.168736418461776-6.086920664332865Z"/>
      </g>
    </g>
    <path class="cls-7" d="M227.313507879856843,50.53749788319692c.057044052362471.017133536643087.112532500761517.036601654492188.167787504633452.058836926586082l-.597198839657722-.252020871012064c.122549276586142.053577672668325.23584634186227.119822593540448.343472638362073.199108065853579l-.505969082783849-.39090975990257c.130147091724211.101225123924451.243933203020788.216148185036218.345798993272183.345715417461179l-.39090975990257-.505969082785668c.108731930391514.145020405838295.197229137185786.299936114406592.267709522397126.466912965508527l-.252020871013883-.597198839657722c.068830882089969.173616870690239.113671013550629.351754768065803.141003180460757.53645264752231l-.089302416117789-.664599030526006c.032340775154807.258539830556401.027322495541739.515100856500794-.006443843067245.77325707962882l.08930241611597-.664599030526006c-.035512445341737.239999537803669-.093956620532481.473555976455827-.171332112879099.703399637157418-.104186152137117.332299515261184-.119069888156446.664599030522368-.044651208057985.996898545785371.015088443087734.332705830674968.113979136112903.642538615647936.296672079071868.929498354918906.157101772323585.291337649021443.371733206087811.525145636598609.643894301294495.701423962736953.24145698889879.220969804513516.524851449248672.370128388167359.850183381049646.447475750965168.63997108401054.145764967572177,1.358329207674615.114219876086281,1.926396900706095-.252020871013883l.505969082783849-.39090975990257c.309840581097887-.311933278791912.524150791403372-.679655919606375.642930630916453-1.103167922441571.182501714130922-.542120777361561.271860389520953-1.130922271979216.289213206229761-1.700094165200426.011775064598623-.386221783122892-.055127860234279-.783864276167151-.119519261053938-1.160375025629037-.028344023743557-.165733770136285-.071479725165773-.325356360632213-.132921169688416-.48183823452564-.124978729892973-.318301530869576-.248790326906601-.664956604010513-.441374298878145-.954511217711115-.185757065321013-.279290196063812-.392951741261641-.561725623254461-.631252377725104-.800482203747379-.503404227831197-.504367398372779-1.117790926389716-.857301226458731-1.798240535419609-1.061678507307079-.332299515261184-.104186152137117-.664599030524187-.119069888158265-.996898545785371-.044651208059804-.332705830676787.015088443089553-.642538615649755.113979136112903-.929498354920725.296672079071868-.291337649019624.157101772325404-.52514563659679.37173320608963-.701423962735134.643894301294495-.220969804513516.241456988900609-.370128388169178.524851449248672-.447475750965168.850183381051465-.145764967573996.639971084008721-.114219876086281,1.358329207672796.252020871013883,1.926396900704276.357910178987368.555146338305349.852579833475829.956221836775512,1.494077682344141,1.148899713702122h0Z"/>
    <path class="cls-7" d="M246.81385525632686,76.473866904247188c-.012725243093882-.66721585158848-.189532265016169-1.327120451553128-.535399853426497-1.900593906610084-.029218076108009-.048445681575686-.061529670489108-.094656167508219-.094972354167112-.140243882742652-.1550940746165-.211417976388475-.313700538717967-.426073097529297-.486776486832241-.62372013517961-.081704021329642-.093303303874563-.171153776673236-.179476936575156-.264317456560093-.261238796589168-.337625499374553-.296305264571856-.697453334658348-.572105350540369-1.06806722264264-.825840827834327-.212588955419051-.145545976069116-.436300313504034-.273396785789373-.673249107703668-.374925184652966-.286959739270969-.182692942958965-.596792524243938-.281583635982315-.929498354918906-.296672079071868-.332299515263003-.074418680098461-.664599030526006-.059534944077313-.99689854578719.044651208059804-.325331931800974.07734736279599-.608726392149038.226505946451653-.850183381049646.447475750963349-.272161095206684.176278326136526-.486792528970909.410086313717329-.643894301294495.701423962735134l-.252020871013883.597198839659541c-.119069888156446.443066020347032-.119069888156446.886132040697703,0,1.329198061048373l.252020871013883.597198839655903c.222253398973407.375665829484205.521213013202214.674625443713012.896878842686419.896878842688238.345679053847562.148117406448364.659905513697595.353509932203451.957109740211308.582356273540427l-.505969082783849-.39090975990257c.2236561821137.17395194873643.441083790814446.356802585280093.617896314481186.579669399241538l-.39090975990257-.505969082783849c.082994825335845.108449012757774.153324854096354.223084757422839.208990332821486.347898883057496l-.252020871013883-.597198839659541c.04366895246676.104687846125671.074798614614338.211269802195602.091444488836714.323555042727094l-.08930241611597-.664599030526006c.005234068768914.044854478735942.008278340821562.089255026869068.009139475161646.134406422175744-.012984527449589.34419937056191.058786423092897.665265520679895.215312851623821.963198450352138.100822396472722.309936072455457.273129128276196.57812557332727.516920195410421.804568502615439.22644292928635.243791067132406.494632430156344.41609779893588.804568502611801.516920195408602.297932929672243.156526428532743.618999079790228.22829737907341.963198450353957.215312851623821l.664599030524187-.089302416117789c.423512002838834-.118779839511262.791234643651478-.333090049818566,1.103167922441571-.642930630914634l.39090975990257-.505969082783849c.226146247661745-.38992844596396.339920676706242-.810527736026415.341323287131672-1.261797870183727h0Z"/>
  </g>
  <g>
    <g>
      <polygon class="cls-4" points="109.163933072084546 115.966481767527512 110.440528816765436 133.838822193058149 127.772776829011491 136.434566873909716 129.334145838041877 150.257091467679857 157.048649421567461 119.413290278163913 127.772776829011491 95.243077512208401 127.772776829011491 111.923928576037724 109.163933072084546 115.966481767527512"/>
      <polygon class="cls-11" points="109.163933072084546 115.966481767527512 110.440528816765436 133.838822193058149 127.772776829011491 136.434566873909716 129.334145838041877 150.257091467679857 157.048649421567461 119.413290278163913 127.772776829011491 95.243077512208401 127.772776829011491 111.923928576037724 109.163933072084546 115.966481767527512"/>
    </g>
    <path class="cls-13" d="M137.415005963281146,119.377582604571217c5.059326171875,1.4630126953125,9.7353515625,3.59539794921875,14.260986328125,6.0150146484375l5.372802734375-5.97930908203125-29.27587890625-24.17022705078125v16.68084716796875l-15.9755859375,3.47052001953125c8.657958984375.48193359375,17.273193359375,1.5701904296875,25.61767578125,3.983154296875Z"/>
  </g>
</svg>