<?xml version="1.0" encoding="UTF-8"?>
<svg id="Pattern" xmlns="http://www.w3.org/2000/svg" width="280" height="280" xmlns:xlink="http://www.w3.org/1999/xlink" viewBox="0 0 280 280">
  <defs>
    <linearGradient id="A4" x1="49.702991458721954" y1="264.817515809572797" x2="100.136521603500029" y2="201.648245729252409" gradientTransform="translate(20.280513319795773 -5.673439054460687) rotate(.147657895413203) scale(1.204260956017292 1.016255932632632) skewX(-5.760210513173148)" gradientUnits="userSpaceOnUse">
      <stop offset="0" stop-color="#7d67a2"/>
      <stop offset=".385181145631382" stop-color="#895ea4"/>
      <stop offset=".489316239316239" stop-color="#8e5ba6"/>
      <stop offset=".841924594895194" stop-color="#9a5c9d"/>
      <stop offset="1" stop-color="#a25d99"/>
    </linearGradient>
  </defs>
  <a xlink:href="https://www.notion.so/dmmnotes/Type-A-d0420320e0bf4731b311ee86887d6ca3?pvs=4">
    <g id="A">
      <path d="M80.100544381650252,267.76997430724623c-20.0361328125,0-36.5302734375-10.7861328125-41.0439453125-26.8408203125-2.39453125-8.521484375-1.095703125-17.73046875,3.6591796875-25.9306640625,6.1689453125-10.6396484375,17.44921875-18.685546875,30.9482421875-22.07421875,4.5078125-1.1318359375,9.107421875-1.705078125,13.671875-1.705078125,20.0361328125,0,36.5302734375,10.7861328125,41.04296875,26.8408203125,2.39453125,8.5205078125,1.095703125,17.7294921875-3.6591796875,25.9306640625-6.1689453125,10.6396484375-17.44921875,18.685546875-30.9482421875,22.07421875-4.5078125,1.130859375-9.1064453125,1.705078125-13.6708984375,1.705078125Z" fill="url(#A4)" stroke-width="0"/>
      <path d="M87.334675241025252,198.960434512324355c16.0322265625-.00030517578125,29.952392578125,8.24798583984375,33.5914306640625,21.19384765625,4.5115966796875,16.05035400390625-8.4896240234375,33.2432861328125-29.039306640625,38.401611328125-3.9747314453125.997711181640625-7.941650390625,1.472198486328125-11.7861328125,1.472198486328125-16.0322265625,0-29.952392578125-8.248016357421875-33.59130859375-21.193878173828125-4.51171875-16.05029296875,8.4896240234375-33.24322509765625,29.0391845703125-38.401580810546875,3.9747314453125-.997711181640625,7.9415283203125-1.472137451171875,11.7861328125-1.472198486328125M87.335529733212752,183.47743280333998h-.0010986328125c-5.19873046875.000091552734375-10.4322509765625.65216064453125-15.5552978515625,1.93804931640625-15.5155029296875,3.894683837890625-28.5498046875,13.261993408203125-35.7611083984375,25.699981689453125-5.8123779296875,10.0252685546875-7.3798828125,21.3572998046875-4.4139404296875,31.908660888671875,5.4619140625,19.431365966796875,24.951171875,32.486968994140625,48.49658203125,32.486968994140625,5.198974609375,0,10.4326171875-.652130126953125,15.5557861328125-1.9381103515625,15.51513671875-3.894561767578125,28.5494384765625-13.261749267578125,35.7607421875-25.69964599609375,5.8125-10.0252685546875,7.380126953125-21.35736083984375,4.4141845703125-31.9088134765625-5.462158203125-19.431549072265625-24.9510498046875-32.487091064453125-48.495849609375-32.487091064453125h0Z" fill="#3d2747" stroke-width="0"/>
    </g>
  </a>
  <a xlink:href="https://www.notion.so/dmmnotes/Type-A-d0420320e0bf4731b311ee86887d6ca3?pvs=4">
    <g>
      <path d="M57.40234375,166.32421875c2.13671875,1.181640625,3.966796875,2.6318359375,5.486328125,4.3505859375,1.51953125,1.7197265625,2.798828125,3.5986328125,3.841796875,5.6396484375,1.0390625,2.0419921875,1.869140625,4.2041015625,2.490234375,6.486328125.6171875,2.283203125,1.09765625,4.580078125,1.43359375,6.888671875.7890625,4.56640625,1.23828125,9.1845703125,1.3515625,13.8583984375.111328125,4.6728515625.02734375,9.373046875-.25390625,14.099609375-.11328125,1.3427734375-.224609375,2.4443359375-.337890625,3.3037109375s-.32421875,1.5576171875-.6328125,2.0947265625-.74609375.966796875-1.30859375,1.2890625-1.349609375.6162109375-2.36328125.8857421875c-.95703125.107421875-1.955078125.1875-2.99609375.2421875-1.04296875.052734375-2.013671875-.2158203125-2.912109375-.8056640625-.845703125-.5361328125-1.548828125-1.4501953125-2.111328125-2.7392578125s-.873046875-3.142578125-.927734375-5.5595703125v-.8056640625c-1.408203125-.1611328125-3.08203125-.294921875-5.0234375-.4033203125-1.94140625-.1064453125-3.92578125-.173828125-5.951171875-.201171875-2.02734375-.0263671875-3.982421875-.0400390625-5.8671875-.0400390625h-4.76953125c-.056640625.4833984375-.126953125,1.2890625-.2109375,2.4169921875-.0859375,1.1279296875-.267578125,2.255859375-.548828125,3.3837890625-.283203125,1.1279296875-.662109375,2.1494140625-1.140625,3.0615234375-.478515625.9140625-1.138671875,1.396484375-1.982421875,1.4501953125-.7890625.052734375-1.689453125.107421875-2.703125.1611328125-1.01171875.052734375-1.998046875-.0537109375-2.953125-.322265625-.958984375-.2138671875-1.759765625-.64453125-2.40625-1.2890625-.6484375-.64453125-1-1.6640625-1.0546875-3.0615234375,0-1.6640625.02734375-3.5712890625.083984375-5.720703125.0546875-2.1474609375.16796875-4.484375.337890625-7.009765625.111328125-2.0947265625.294921875-4.390625.548828125-6.888671875.251953125-2.4970703125.6171875-5.0615234375,1.09765625-7.6943359375.4765625-2.630859375,1.095703125-5.263671875,1.85546875-7.8955078125s1.716796875-5.12890625,2.87109375-7.4931640625c1.15234375-2.36328125,2.517578125-4.5390625,4.09375-6.5263671875,1.576171875-1.986328125,3.4609375-3.65234375,5.65625-4.9951171875,2.587890625-1.5576171875,5.4296875-2.3369140625,8.525390625-2.3369140625s6.021484375.7255859375,8.78125,2.17578125ZM36.888671875,202.9833984375c3.544921875-.2685546875,7.076171875-.4697265625,10.59375-.6044921875,3.515625-.1328125,7.048828125-.1474609375,10.59375-.0400390625.169921875-3.8134765625,0-7.2236328125-.505859375-10.232421875-.505859375-3.0078125-1.2109375-5.5458984375-2.111328125-7.6142578125-.900390625-2.06640625-1.96875-3.6513671875-3.20703125-4.7529296875-1.23828125-1.1005859375-2.50390625-1.65234375-3.798828125-1.65234375-1.126953125,0-2.29296875.5517578125-3.50390625,1.65234375-1.2109375,1.1015625-2.3359375,2.712890625-3.376953125,4.833984375-1.041015625,2.1220703125-1.982421875,4.7412109375-2.826171875,7.85546875-.845703125,3.1162109375-1.46484375,6.634765625-1.857421875,10.5546875Z" fill="none" stroke="#3d2747" stroke-linecap="round" stroke-linejoin="round" stroke-width="27.168022155761719"/>
      <path d="M57.40234375,166.32421875c2.13671875,1.181640625,3.966796875,2.6318359375,5.486328125,4.3505859375,1.51953125,1.7197265625,2.798828125,3.5986328125,3.841796875,5.6396484375,1.0390625,2.0419921875,1.869140625,4.2041015625,2.490234375,6.486328125.6171875,2.283203125,1.09765625,4.580078125,1.43359375,6.888671875.7890625,4.56640625,1.23828125,9.1845703125,1.3515625,13.8583984375.111328125,4.6728515625.02734375,9.373046875-.25390625,14.099609375-.11328125,1.3427734375-.224609375,2.4443359375-.337890625,3.3037109375s-.32421875,1.5576171875-.6328125,2.0947265625-.74609375.966796875-1.30859375,1.2890625-1.349609375.6162109375-2.36328125.8857421875c-.95703125.107421875-1.955078125.1875-2.99609375.2421875-1.04296875.052734375-2.013671875-.2158203125-2.912109375-.8056640625-.845703125-.5361328125-1.548828125-1.4501953125-2.111328125-2.7392578125s-.873046875-3.142578125-.927734375-5.5595703125v-.8056640625c-1.408203125-.1611328125-3.08203125-.294921875-5.0234375-.4033203125-1.94140625-.1064453125-3.92578125-.173828125-5.951171875-.201171875-2.02734375-.0263671875-3.982421875-.0400390625-5.8671875-.0400390625h-4.76953125c-.056640625.4833984375-.126953125,1.2890625-.2109375,2.4169921875-.0859375,1.1279296875-.267578125,2.255859375-.548828125,3.3837890625-.283203125,1.1279296875-.662109375,2.1494140625-1.140625,3.0615234375-.478515625.9140625-1.138671875,1.396484375-1.982421875,1.4501953125-.7890625.052734375-1.689453125.107421875-2.703125.1611328125-1.01171875.052734375-1.998046875-.0537109375-2.953125-.322265625-.958984375-.2138671875-1.759765625-.64453125-2.40625-1.2890625-.6484375-.64453125-1-1.6640625-1.0546875-3.0615234375,0-1.6640625.02734375-3.5712890625.083984375-5.720703125.0546875-2.1474609375.16796875-4.484375.337890625-7.009765625.111328125-2.0947265625.294921875-4.390625.548828125-6.888671875.251953125-2.4970703125.6171875-5.0615234375,1.09765625-7.6943359375.4765625-2.630859375,1.095703125-5.263671875,1.85546875-7.8955078125s1.716796875-5.12890625,2.87109375-7.4931640625c1.15234375-2.36328125,2.517578125-4.5390625,4.09375-6.5263671875,1.576171875-1.986328125,3.4609375-3.65234375,5.65625-4.9951171875,2.587890625-1.5576171875,5.4296875-2.3369140625,8.525390625-2.3369140625s6.021484375.7255859375,8.78125,2.17578125ZM36.888671875,202.9833984375c3.544921875-.2685546875,7.076171875-.4697265625,10.59375-.6044921875,3.515625-.1328125,7.048828125-.1474609375,10.59375-.0400390625.169921875-3.8134765625,0-7.2236328125-.505859375-10.232421875-.505859375-3.0078125-1.2109375-5.5458984375-2.111328125-7.6142578125-.900390625-2.06640625-1.96875-3.6513671875-3.20703125-4.7529296875-1.23828125-1.1005859375-2.50390625-1.65234375-3.798828125-1.65234375-1.126953125,0-2.29296875.5517578125-3.50390625,1.65234375-1.2109375,1.1015625-2.3359375,2.712890625-3.376953125,4.833984375-1.041015625,2.1220703125-1.982421875,4.7412109375-2.826171875,7.85546875-.845703125,3.1162109375-1.46484375,6.634765625-1.857421875,10.5546875Z" fill="#fff" stroke-width="0"/>
    </g>
  </a>
  <a xlink:href="https://www.notion.so/dmmnotes/reflective-integration-96fa86f0fb4c4c1d8cd32a429c24f785?pvs=4">
    <g>
      <g>
        <path d="M189.665757719036264,153.148500292416429c-1.323734929890634,2.011581570695853-2.647469859790363,4.023163141389887-3.971204789680996,6.034744712083921-2.678378485268695,3.695838097002706-6.122438966016489,6.366213975730716-10.3888791497684,8.049335208073899-5.89534404713595,2.32573864637925-11.936615182461537,2.855573965069198-18.010867150618651,1.186895795006421-6.441593078568985-1.769578497551265-12.150299408713181-.664131514318797-17.545654622090296,3.173779399272462-6.777037210016715,4.820729769689933-14.357414196292666,6.033586877914786-22.398706456282525,4.293776161075584-2.459373534131373-.532113696110173-4.622242477624241-1.930193979989781-6.73469615164322-3.308897227130728-1.175487149335822-.773549878545964-2.349772684689015-1.546271324448753-3.523349521861746-2.318551541622583-8.51788352416952-5.509072375891265-11.690854966480401-13.70710429247265-11.106468664773274-23.394059312215177.411729439587361-6.825100554906385-1.452941144752913-12.393815941702996-6.353137971715114-17.191505664633951-8.18531826756589-8.014084862224991-10.562565338283093-21.50153971792497-5.561460666531275-31.82110353886128,3.220516501707607-6.645391433610712,8.333003056206508-11.557111022289973,15.137195633275041-14.604145658668131.54325889075335-.243279783726393,1.078958735430206-.378476953979771,1.658539938867762-.147399024590413,2.17833274892655,1.74476272947868,4.606824422084173,3.090631776523878,7.065118108834213,4.378759507866562.950669261917938.498135164190899,1.751503575313109,1.059526774832193,1.980695723335884,2.178382181444249.163051574380006,1.838817083529648-.681511441138355,3.443657416692076-1.221955283364878,5.116905862276326-3.297077380206247,10.207967063164688-6.181233223051095,20.489634440593363-5.984426244085626,31.367580257741793.12226927710617,6.758005530788068,1.088343400520898,13.329023091466297,4.018588380242363,19.505168547042558,1.710236638280549,3.604679067360848,3.842769008677351,6.905819047206023,6.952691253036392,9.463807692851333,1.187407426828941.976679902278192,2.595208198699765,1.632012600150119,4.037100723355252,2.193153553180309.708762645181196.275820504730291,1.333205955583253.182068068201261,1.944553059480313-.220589371638198,1.34755519637838-.208159767536927,2.402933192184719.627220156129624,3.575862862293434,1.025883693482683,6.878500657176119,2.337883321111804,13.658509269343995,1.653854426029284,20.357918100025927-.696687411802486,8.466891706351817-2.970672709592691,15.683541743461319-7.921124045788019,22.04125593804747-14.182557194430046.494018355990193-.486539742887544.988268302784491-.949350525701448,1.583624236271135-1.305650727434113,4.520935516569807-4.795907442334283,8.675697950513495-9.865691756409433,12.303363641438409-15.386940942526053,5.263088182513457-8.010355796930526,9.142202624538186-16.632829440788555,11.945082561729578-25.769101585285171.249807357280588-.814234612682412.37742074669768-1.691800614833483,1.089127994629962-2.287204573001873,1.396944982270725-.230678835150684,1.873550138367136-1.185818911104434,2.172039726974617-2.466946122673107.251750641529725-1.080454266460947.226090250887864-2.512342313622867,1.877782466306599-2.675068114644091.920642064775166.739031024661017.527041859164456,1.696650669598966.336705274010455,2.546206203287511-1.276763050291265,5.698768815840594-2.933463475766985,11.282856265273949-5.226264107161114,16.664174687446575-1.455095280072783,3.415206506897448-3.135729817216998,6.719678909301365-4.791683374931381,10.04110914341436-1.012328495427937,2.030462257023828-2.024075509716567,4.081314562410626-2.970904467832952,6.154225727248559-.498636542537497,1.091684223683842-.28598186076124,1.81093913078621.681810029631379,2.476945110722227,2.364167971074494,1.626964052082258,4.996385776701572,2.753725626860614,7.504397512975629,4.111418459597189.565787444116722.413007435281543.704021489988008,1.036550942855683.750554888065381,1.668594776740065.40977910568472,5.566460179245041.172525644578855,11.006059564420866-3.190958227649389,15.813735427287611-.060931105726922.087111729815661-.04882602726866.213965756864127-.033391202836356.331825904015204Z" fill="none" stroke="#8a5c36" stroke-linecap="round" stroke-linejoin="round" stroke-width="33.699247675496061"/>
        <path d="M192.158880406479511,135.805725323101797c-3.478288435560899-.805184132041177-6.248543097328366-2.998525892227917-9.255242407212791-4.726955753645598-.618401603325765-.35549218714732-.377984482067404-.916538811714418-.198077177472442-1.374003298555181.396501375005755-1.00826135628995.80556510601491-2.019189661412383,1.309346259895392-2.976478922913884,5.066049415907401-9.626516845377409,9.646779640850582-19.445155723582502,11.980703262881434-30.153667290782323.228814755988424-1.049820668580651.64248633150055-2.085893001842123.479858300193882-3.199816601223574-.852615427316778-.982594648090526-.387631063769732-2.093759614863302-.21868341838308-3.121276284122359,1.162551157409325-7.070301358127836,1.16356893158445-14.146932288140306-.274901952650907-21.148895856056697-1.441683164179267-7.017611017052332-4.345331469470693-13.382143950979298-9.755124571593115-18.310223642838537-4.453110245134667-4.056583952509754-9.719124717863451-6.358753202512162-15.762251712209036-6.759523438895485-.740310773806414-.049096204558737-1.481987561619462-.118068192718056-2.225845456010575-.12390542007779-1.669481912200354-.349410913913744-3.275291866420957.01595717433338-4.923443161404066.294971712708502-5.646552953749051.955903246120215-10.962183410894795,2.789382938110066-15.996396652564727,5.517132526932983-3.236744960064243,1.753808121216935-6.223663068292808,3.858539641585594-9.130896484482946,6.101484290658846-1.676166592877053.705363381830466-2.972906745304499,1.938132988771031-4.199495098213447,3.197253859303601-3.823950330237494,3.925378150133838-7.815418531063187,7.701994469389319-11.146085784837851,12.081739955119701-3.492282765428172,4.592267532436381-7.014337228747536,9.164566572770127-9.674387757169825,14.322197742405478-.681992979196366,1.322329844562773-1.545015111809334,2.53997852232169-2.419861729980767,3.743757081238073-.345716465084479.475698741705855-.737687801249194.884425536709387-1.402598728594967.819489083909502-.130211015193709-.498451991308684-.218707061778332-1.079267653631177-.752781068298646-1.274618229796033-2.005172818477149-.733408845429949-3.564029496803414-2.265228835454764-5.49849725176864-3.075120058749235-1.188093477008806-.497418740636931-2.048436796269016-1.178339581656473-2.601403283959371-2.302453896905718-.273688317049164-.780890015939804.16992046636733-1.290372206098255.652089620600236-1.810422425609431,3.54820452484455-3.826950872487942,5.270871371174508-8.277294450892441,4.931541453266618-13.56458281518826-.33502246822718-5.220114692061543.87847919791966-10.086647135187377,3.968791789127863-14.399953946121968.898985451227418-1.366106741605108,1.797523910128803-2.731577637292503,2.69505855486932-4.095497226271618,3.191593580508197-5.20287870753782,7.965698908545164-8.160524972894564,13.708979828643351-9.869258644725051,5.543501920690687-1.649296699297338,11.033443197338784-1.575585323023915,16.564503590589084-.032623474144202,5.45218175435366,1.520956360051059,10.214178360787628.271441477665576,14.517020433071593-3.414522381523057,7.032816534909216-6.02454531199146,15.216530337154836-8.101360322518303,24.323087127701001-6.58730391122117,2.292633235847461.381172445817356,4.120251418766202,1.886055260347348,6.2332574780703,2.710144521301117l5.459670774234837,3.592773474791102c1.646855158434846,1.560650806657577,3.69849980235449,2.674195107951164,5.064771555546031,4.542484610494284,4.169683230358714,5.701767814131017,5.733556339017014,12.13347755155155,5.286189156176988,19.110346726023636-.091561788021863,1.427982942930612-.287910800563623,2.850857363986506-.495648071442702,4.266985428248518-.731100052902548,4.983868394921956.861778260570645,9.247646662752231,4.4299501345522,12.601958034971176,4.482997853470806,4.214316271511052,7.572977293597432,9.187802756479869,8.938965517827455,15.13203734315357,1.447831164607123,6.300355079161818.95836179791695,12.458756587155221-1.857550410080876,18.415549940442361-2.804338596748494,5.932330998131874-7.127324900151507,10.293504842073162-12.887032932219881,13.300816778499211-4.594597256051202,2.398983483493794-7.284894557033113,6.295975228742464-8.840752445858016,11.101022141587237-.196127285129478.605706385173107-.31729395488037,1.234996665469225-1.026827280838916,1.468958267578273Z" fill="none" stroke="#8a5c36" stroke-linecap="round" stroke-linejoin="round" stroke-width="33.699247675496061"/>
        <path d="M112.814470453642571,49.040607541850477c.085182681568767.062156545964172.176124434521626.114259827769274.272830447544038.156300692386139-1.022280886105364,1.543132162707479-2.044558235853401,3.086260368805597-3.066840046845755,4.629391922879222-.085055589379408-.052936366644644-.162277504368831-.115534769209262-.231670240456879-.187791882248348,1.008558984747651-1.532632116040986,2.017120855005487-3.065268616977846,3.025679839758595-4.597900733017013Z" fill="none" stroke="#8a5c36" stroke-linecap="round" stroke-linejoin="round" stroke-width="33.699247675496061"/>
        <path d="M110.972526830870265,172.668476306014782c-.065370506494219.073319496643308-.127772686191747.149069884511846-.187212310102041.227259933401001-1.340973230653617-.882436552074068-2.681942076678752-1.764870218818032-4.022915307328731-2.64730677089392.048865768059841-.085324191109976.093918678025148-.172617058511605.135123652858965-.261901684893019,1.358309346489477.893970375604113,2.716659541041736,1.787955064091875,4.075003964571806,2.681948522385937Z" fill="none" stroke="#8a5c36" stroke-linecap="round" stroke-linejoin="round" stroke-width="33.699247675496061"/>
        <path d="M167.373292082773332,142.629221424618663c-5.426053511408099,5.653351005332297-11.662295997130059,10.204522067830112-18.740946028261533,13.554531510610104-6.849516017471615,3.241551016277299-13.987681509459435,4.986113019587719-21.629696971900557,3.716688734150011-2.560366359255568-.425305102062339-4.958361047878498-1.322064789368596-7.283492814556666-2.442333731438339-2.393768385523799-.036852443548923-3.992747877573493-1.675947146919498-5.553328895595769-3.078941717834823-4.558314626876381-4.098001045165802-7.257255995466039-9.332472710066213-8.787042036872663-15.23926282233333-3.055489786436738-11.797660303349403-1.749129290228666-23.384803462582568,1.56763132418746-34.882020630124316,1.797525856993161-6.230948663785966,4.214935103918833-12.238557173854133,7.32211392928366-17.915067369152894,3.127792326755298-5.714170318824472,6.603797589887108-11.218035373978637,10.817105845530023-16.250078678438513,2.170521532903877-2.592300224776409,4.393054707958072-5.112903944524078,6.764648983367806-7.513090896056383.734719757128914-.743574598798659,1.491247371135614-1.429384088942243,2.60266723807581-1.524003179620195,1.332536113637616-.037700086215409,2.464380757972322.625354064890416,3.514803914531512,1.251630950095205,3.829060918691539,2.282943438754955,7.722909708501902,4.453407067298031,11.598412991590521,6.650870552177366,5.464921321077782,3.098689065262079,10.901312493400837,6.248371941754158,16.390325943330026,9.305971822379433,3.542584828312101,1.973357246997693,7.072110153765607,3.978103982164612,10.559083087397084,6.048049130524305,2.45693360538462,1.458495819528252,5.04764634636922,2.689664281670048,7.390040031463286,4.346260601607355.583564082680823.412709829937739,1.201570428542254.774923140794272,1.085232924328011,1.583172388158346-.120030911108188.833913338887214-.779179510955146,1.05108157178438-1.523561839967442,1.076595948712566-.520498991263594.017835243694208-.805968223752643.380573385957177-1.089754074873781.740944385323019-.441242849103219.690031197911594-1.173994022434272.84397913693283-1.893913063531727,1.054976010103928-10.039201217716254,2.942261638369018-20.153722334378472,5.614851962052853-30.232676279156294,8.413837862481159-6.664537129208838,1.850783486303044-13.353840725778355,3.619170659889278-20.017913579731612,5.47213221763559-4.069316830817115,1.131482033160864-8.223157581503983,2.02879658249185-12.110500289854826,3.752677631780898-.491748530139375.218071749330193-1.265252580240485.284350325931882-1.294375059438607.964653356220879-.027531098936379.643057189807223.66441002643478.905382658740564,1.15038513883519,1.153735859850713,3.764331545327877,1.923723177318607,7.300435679559087,4.253432820140006,11.061578778058902,6.182497756311932,1.829872996204358.938534473725667,3.555576778138857,2.070438179443954,5.332305387632005,3.100655518008352,3.953061092641292,2.292179145670161,7.91768918336129,4.573206811151977,11.896413463417048,6.814070171303683,5.321520133258673,2.997165768536433,10.543904918269618,6.172488898710071,15.956722569626436,9.00889816389099,1.517733261591275.795312604856008,2.877887732352974,1.857795241514395,4.444023181031298,2.593342431044221.769915560325899.361607081438706,1.448628456699225,1.040686509160878.7037062020554,2.058606022628737Z" fill="none" stroke="#8a5c36" stroke-linecap="round" stroke-linejoin="round" stroke-width="33.699247675496061"/>
        <path d="M167.373292082773332,142.629221424618663c.022537599692441-.567293855077878-.203077098227368-1.005516562825505-.701389892494262-1.280575936825699-3.49482105860443-1.929126012744746-6.992464960418147-3.853122107349918-10.48811708055473-5.780746509359233-1.799693089209541-.99240768483287-3.516264622947347-2.118213880294206-5.333953634717545-3.094589271890072-4.021055960032754-2.159873214883191-7.877700262904909-4.623214031584212-11.848111403067378-6.88062506829192-5.306489336719096-3.017046969998773-10.667831846940317-5.937465469403833-15.984130845798063-8.937466598883475-2.33735616051672-1.318974265326688-4.613462872657692-2.746039515161101-6.933379088710353-4.096543164077957-1.28347220354226-.747149503853507-.980428873401252-1.283881479557749.143385866429526-1.843634688004386,3.35319725550471-1.670178961509009,6.971762188268258-2.554964795230262,10.544141826798295-3.562991590837555,6.871116931732104-1.938832131720119,13.755259716928776-3.831842552330272,20.640381492763481-5.720583028483816,5.39911439192656-1.481098953956462,10.814347055016697-2.903621164556171,16.210596466993593-4.394975368259111,6.053905668517473-1.673102827324328,12.09450667018973-3.394353593199412,18.14089838547261-5.09467057258189,3.568198086739358-1.644957800808697,7.325381453998489-2.716711903494797,11.127721519462284-3.643481565302864.673102936912983-.164068487840268,1.364359159984815-.151293403212549,1.937118098923747.364305888231684.844598500165375,2.009230281357304-.346765716622031,8.40669534720837-1.834199563116272,9.867613507251008-1.762373179051792,5.799019579118976-3.7031453206273,11.526582868147671-6.355978324316311,16.99774613941554-4.832221418770132,9.9659224017214-11.020430759190276,18.970067365102295-18.825414524448206,26.84515204948184-.115277391872951.11632256924895-.291693028517329.172053411131856-.439569299620416.256065778417906Z" fill="none" stroke="#8a5c36" stroke-linecap="round" stroke-linejoin="round" stroke-width="33.699247675496061"/>
        <path d="M134.270616750613044,61.508901225408408c-3.627217784074674,2.885386658603238-6.584427623974989,6.410393321852098-9.409139078630687,10.037622133888362-9.12968495950372,11.723481428365631-15.626971916284674,24.73242554047647-18.76960504678209,39.307045534624194-1.962447093037554,9.101261689975217-2.456594309167485,18.250544131966308-.171501910890584,27.392655489824392,2.055872016007925,8.224995418915569,6.228335324509317,14.941918398912094,13.798749090310594,19.211872126652452-.548625504037773,1.054911585411901-1.331853100478838.980495609011996-2.31609751175165.613853052087507-4.419356911124851-1.646364331209043-7.310196342707059-4.951053776123445-9.641234954207903-8.840051568346098-3.760666327812942-6.274127393320668-5.356081445523159-13.157440356018924-5.73865700679562-20.405528467776094-.532705733810872-10.09260899245055,1.376040368098984-19.795586829695822,4.413106533096652-29.342828247226862,1.003355116608873-3.154111105552147,1.941239832425708-6.329035909453523,2.909158005386416-9.494489744698512,3.06033266113991-4.612617368407882,5.568260514077338-9.574314745805168,8.837456146724435-14.05302615646724,5.394993998823338-7.390995475047021,11.294070845086026-14.321911740133146,18.523188039405795-20.016962566514849.442915633873781-.348923988845854.948610394119896-.618160999145402,1.425093236452085-.924473191516881.369615337209325.923561199424512-.198270837106975,1.497521939299986-.772785833145463,2.067610669017085-.805897314425238.799694662060574-1.608540219709539,1.599256199420779-2.261490306515043,2.538526540496605-.330763155548993.475805368800138-.646511446677323.932598774301368-.493060710265127,1.551828820982337-.045435398489644.17999640664857-.15679347810692.298684459112337-.333178692391812.356345574973602Z" fill="none" stroke="#8a5c36" stroke-linecap="round" stroke-linejoin="round" stroke-width="33.699247675496061"/>
        <path d="M192.994254231158266,98.530257457303378c.501654426807363-3.24435835874101,1.50765622714971-6.401094989379999,1.685977343218838-9.701628161767076-.477493470996706-.55399873123315-.637262743299289-1.18843353320699-.537089024159286-1.913311705808155.765700040188676-5.540246025148008.603848468545038-11.08701653434764-.459376484241147-16.545757166428302-1.586615208218063-8.145984417209547-5.035549378711949-15.294065397736631-12.174554035018446-20.103434481628938-4.312938944643975-2.905517256001986-9.177038615425772-3.938256002555136-14.326289579244985-3.85080276971712-.994190415358389.016884458973436-2.09107266562205.304086945696326-2.874251020237352-.66913099013982-.499727956494098-1.359723790568751.321724688994436-1.86794747924796,1.424254543886491-2.133678838305059.818352912083355-.197240981158757,1.691852069354354-.140525716371485,2.475112334135702-.517337131719614,3.840986404402429.209008157102289,7.597909848549534.71367749925048,11.16805090237176,2.332709555375914,6.900918307414031,3.129508829120823,11.646346596118747,8.304205384494708,14.676702228351132,15.141785687272204,3.394463878874376,7.659136283326006,4.111092419449051,15.731963057103712,3.631033087960532,23.990179952226754-.172939350248271,2.974891985606519-.577759579751728,5.907962798914014-1.208463211005437,8.815019663757994-.808337199310699,1.209120516778057-.949335658917335,2.629263244329195-1.281505332706729,3.992794620868153-.287252361425999,1.179166167972653-.916334184505104,1.816965556734431-2.199601753311072,1.162591766013065Z" fill="none" stroke="#8a5c36" stroke-linecap="round" stroke-linejoin="round" stroke-width="33.699247675496061"/>
        <path d="M168.208038309498079,43.095176211789294c-.536758472184374.611146693936462-1.319129192479522.593215087266799-2.018631450899193.780819984362097-.953736333016423.255795124136057-1.651265853995938.738319682026486-1.714625790982609,1.824316247055322-.27285164017303.872498708778949-1.051922332753747,1.004960934695191-1.771559398192039,1.127765823757727-5.184903733472311.884797814194826-10.010643583140336,2.775624412581237-14.588473678059017,5.297523477822324-3.708566168155812,2.043029723410655-7.15922561719708,4.480017955222138-10.39567035712389,7.222099554865054-.971594361270036.823186772471672-1.800632784386835,1.993398973068906-3.333861048713516,1.82662478817474-1.081096420291942-.368890368346911-.401894655682554-.950370210428446-.171176976953575-1.467554902928896.863996078731361-1.93675264281228,2.795170875820986-2.98840334176748,3.91711818622025-4.712177350751517,8.802615685141063-7.058234816900949,18.632817145595254-11.518767031953757,30.076880514703589-11.89941762235685Z" fill="none" stroke="#8a5c36" stroke-linecap="round" stroke-linejoin="round" stroke-width="33.699247675496061"/>
        <path d="M134.385216585527814,61.174326087826557c5.375082230922999-4.777128088921017,11.149774512656222-8.948723024626815,17.750617372019406-11.909237426114487,3.952119768619013-1.772547255817699,8.091281302931748-2.843200198489285,12.338949189666891-3.564793701201779,3.719135887291486-.151444962488313,7.424338038126734-.138901470991186,11.032570043596934.967736481776228,7.85040723660677,2.407702416210668,13.130220456634561,7.658853880138849,16.314237692058668,15.064174283894317,3.746203210883323,8.712845845657284,4.171938772728026,17.824845046365226,2.858632936731738,27.096588127022187-2.445828978863574.012412086634868-4.63393595976595,1.127038731507128-6.964174646391257,1.638090448006551-1.99596313157781.43773713950759-3.969163442076024.979305470033069-5.952437882833692,1.474939710815306.439129889909964-.86098185285482,1.170928079744044-1.190087548447991,2.105556744816568-1.218703974142045.344282567364644-.010540268413024.70466127389227-.173249573415887.71675383198999-.595281438498205.00939278792066-.327554269793836-.302737106498171-.423660529040717-.554275689088172-.568846765090711-5.979094250244088-3.451069345765063-11.944288206639612-6.926307852470927-17.929977217938358-10.365875638754005-4.450196188916379-2.557226442357205-8.920123414316549-5.080296474552597-13.391222484760874-7.60090780941573-5.812607916663183-3.27690255583002-11.633413637695412-6.53928030406496-17.45827032021225-9.794351533337249-.290342367588892-.162257144424075-.65273447787331-.195580474244707-.981572445738493-.288945358011915.038213947975237-.111536776863431.076411969272158-.223058899455282.114612876082901-.334585406948463Z" fill="none" stroke="#8a5c36" stroke-linecap="round" stroke-linejoin="round" stroke-width="33.699247675496061"/>
      </g>
      <g>
        <path d="M189.665757719036264,153.148500292416429c-1.323734929890634,2.011581570695853-2.647469859790363,4.023163141389887-3.971204789680996,6.034744712083921-2.678378485268695,3.695838097002706-6.122438966016489,6.366213975730716-10.3888791497684,8.049335208073899-5.89534404713595,2.32573864637925-11.936615182461537,2.855573965069198-18.010867150618651,1.186895795006421-6.441593078568985-1.769578497551265-12.150299408713181-.664131514318797-17.545654622090296,3.173779399272462-6.777037210016715,4.820729769689933-14.357414196292666,6.033586877914786-22.398706456282525,4.293776161075584-2.459373534131373-.532113696110173-4.622242477624241-1.930193979989781-6.73469615164322-3.308897227130728-1.175487149335822-.773549878545964-2.349772684689015-1.546271324448753-3.523349521861746-2.318551541622583-8.51788352416952-5.509072375891265-11.690854966480401-13.70710429247265-11.106468664773274-23.394059312215177.411729439587361-6.825100554906385-1.452941144752913-12.393815941702996-6.353137971715114-17.191505664633951-8.18531826756589-8.014084862224991-10.562565338283093-21.50153971792497-5.561460666531275-31.82110353886128,3.220516501707607-6.645391433610712,8.333003056206508-11.557111022289973,15.137195633275041-14.604145658668131.54325889075335-.243279783726393,1.078958735430206-.378476953979771,1.658539938867762-.147399024590413,2.17833274892655,1.74476272947868,4.606824422084173,3.090631776523878,7.065118108834213,4.378759507866562.950669261917938.498135164190899,1.751503575313109,1.059526774832193,1.980695723335884,2.178382181444249.163051574380006,1.838817083529648-.681511441138355,3.443657416692076-1.221955283364878,5.116905862276326-3.297077380206247,10.207967063164688-6.181233223051095,20.489634440593363-5.984426244085626,31.367580257741793.12226927710617,6.758005530788068,1.088343400520898,13.329023091466297,4.018588380242363,19.505168547042558,1.710236638280549,3.604679067360848,3.842769008677351,6.905819047206023,6.952691253036392,9.463807692851333,1.187407426828941.976679902278192,2.595208198699765,1.632012600150119,4.037100723355252,2.193153553180309.708762645181196.275820504730291,1.333205955583253.182068068201261,1.944553059480313-.220589371638198,1.34755519637838-.208159767536927,2.402933192184719.627220156129624,3.575862862293434,1.025883693482683,6.878500657176119,2.337883321111804,13.658509269343995,1.653854426029284,20.357918100025927-.696687411802486,8.466891706351817-2.970672709592691,15.683541743461319-7.921124045788019,22.04125593804747-14.182557194430046.494018355990193-.486539742887544.988268302784491-.949350525701448,1.583624236271135-1.305650727434113,4.520935516569807-4.795907442334283,8.675697950513495-9.865691756409433,12.303363641438409-15.386940942526053,5.263088182513457-8.010355796930526,9.142202624538186-16.632829440788555,11.945082561729578-25.769101585285171.249807357280588-.814234612682412.37742074669768-1.691800614833483,1.089127994629962-2.287204573001873,1.396944982270725-.230678835150684,1.873550138367136-1.185818911104434,2.172039726974617-2.466946122673107.251750641529725-1.080454266460947.226090250887864-2.512342313622867,1.877782466306599-2.675068114644091.920642064775166.739031024661017.527041859164456,1.696650669598966.336705274010455,2.546206203287511-1.276763050291265,5.698768815840594-2.933463475766985,11.282856265273949-5.226264107161114,16.664174687446575-1.455095280072783,3.415206506897448-3.135729817216998,6.719678909301365-4.791683374931381,10.04110914341436-1.012328495427937,2.030462257023828-2.024075509716567,4.081314562410626-2.970904467832952,6.154225727248559-.498636542537497,1.091684223683842-.28598186076124,1.81093913078621.681810029631379,2.476945110722227,2.364167971074494,1.626964052082258,4.996385776701572,2.753725626860614,7.504397512975629,4.111418459597189.565787444116722.413007435281543.704021489988008,1.036550942855683.750554888065381,1.668594776740065.40977910568472,5.566460179245041.172525644578855,11.006059564420866-3.190958227649389,15.813735427287611-.060931105726922.087111729815661-.04882602726866.213965756864127-.033391202836356.331825904015204Z" fill="#fec054" stroke-width="0"/>
        <path d="M192.158880406479511,135.805725323101797c-3.478288435560899-.805184132041177-6.248543097328366-2.998525892227917-9.255242407212791-4.726955753645598-.618401603325765-.35549218714732-.377984482067404-.916538811714418-.198077177472442-1.374003298555181.396501375005755-1.00826135628995.80556510601491-2.019189661412383,1.309346259895392-2.976478922913884,5.066049415907401-9.626516845377409,9.646779640850582-19.445155723582502,11.980703262881434-30.153667290782323.228814755988424-1.049820668580651.64248633150055-2.085893001842123.479858300193882-3.199816601223574-.852615427316778-.982594648090526-.387631063769732-2.093759614863302-.21868341838308-3.121276284122359,1.162551157409325-7.070301358127836,1.16356893158445-14.146932288140306-.274901952650907-21.148895856056697-1.441683164179267-7.017611017052332-4.345331469470693-13.382143950979298-9.755124571593115-18.310223642838537-4.453110245134667-4.056583952509754-9.719124717863451-6.358753202512162-15.762251712209036-6.759523438895485-.740310773806414-.049096204558737-1.481987561619462-.118068192718056-2.225845456010575-.12390542007779-1.669481912200354-.349410913913744-3.275291866420957.01595717433338-4.923443161404066.294971712708502-5.646552953749051.955903246120215-10.962183410894795,2.789382938110066-15.996396652564727,5.517132526932983-3.236744960064243,1.753808121216935-6.223663068292808,3.858539641585594-9.130896484482946,6.101484290658846-1.676166592877053.705363381830466-2.972906745304499,1.938132988771031-4.199495098213447,3.197253859303601-3.823950330237494,3.925378150133838-7.815418531063187,7.701994469389319-11.146085784837851,12.081739955119701-3.492282765428172,4.592267532436381-7.014337228747536,9.164566572770127-9.674387757169825,14.322197742405478-.681992979196366,1.322329844562773-1.545015111809334,2.53997852232169-2.419861729980767,3.743757081238073-.345716465084479.475698741705855-.737687801249194.884425536709387-1.402598728594967.819489083909502-.130211015193709-.498451991308684-.218707061778332-1.079267653631177-.752781068298646-1.274618229796033-2.005172818477149-.733408845429949-3.564029496803414-2.265228835454764-5.49849725176864-3.075120058749235-1.188093477008806-.497418740636931-2.048436796269016-1.178339581656473-2.601403283959371-2.302453896905718-.273688317049164-.780890015939804.16992046636733-1.290372206098255.652089620600236-1.810422425609431,3.54820452484455-3.826950872487942,5.270871371174508-8.277294450892441,4.931541453266618-13.56458281518826-.33502246822718-5.220114692061543.87847919791966-10.086647135187377,3.968791789127863-14.399953946121968.898985451227418-1.366106741605108,1.797523910128803-2.731577637292503,2.69505855486932-4.095497226271618,3.191593580508197-5.20287870753782,7.965698908545164-8.160524972894564,13.708979828643351-9.869258644725051,5.543501920690687-1.649296699297338,11.033443197338784-1.575585323023915,16.564503590589084-.032623474144202,5.45218175435366,1.520956360051059,10.214178360787628.271441477665576,14.517020433071593-3.414522381523057,7.032816534909216-6.02454531199146,15.216530337154836-8.101360322518303,24.323087127701001-6.58730391122117,2.292633235847461.381172445817356,4.120251418766202,1.886055260347348,6.2332574780703,2.710144521301117l5.459670774234837,3.592773474791102c1.646855158434846,1.560650806657577,3.69849980235449,2.674195107951164,5.064771555546031,4.542484610494284,4.169683230358714,5.701767814131017,5.733556339017014,12.13347755155155,5.286189156176988,19.110346726023636-.091561788021863,1.427982942930612-.287910800563623,2.850857363986506-.495648071442702,4.266985428248518-.731100052902548,4.983868394921956.861778260570645,9.247646662752231,4.4299501345522,12.601958034971176,4.482997853470806,4.214316271511052,7.572977293597432,9.187802756479869,8.938965517827455,15.13203734315357,1.447831164607123,6.300355079161818.95836179791695,12.458756587155221-1.857550410080876,18.415549940442361-2.804338596748494,5.932330998131874-7.127324900151507,10.293504842073162-12.887032932219881,13.300816778499211-4.594597256051202,2.398983483493794-7.284894557033113,6.295975228742464-8.840752445858016,11.101022141587237-.196127285129478.605706385173107-.31729395488037,1.234996665469225-1.026827280838916,1.468958267578273Z" fill="#ffd447" stroke-width="0"/>
        <path d="M112.814470453642571,49.040607541850477c.085182681568767.062156545964172.176124434521626.114259827769274.272830447544038.156300692386139-1.022280886105364,1.543132162707479-2.044558235853401,3.086260368805597-3.066840046845755,4.629391922879222-.085055589379408-.052936366644644-.162277504368831-.115534769209262-.231670240456879-.187791882248348,1.008558984747651-1.532632116040986,2.017120855005487-3.065268616977846,3.025679839758595-4.597900733017013Z" fill="#ffeab3" stroke-width="0"/>
        <path d="M110.972526830870265,172.668476306014782c-.065370506494219.073319496643308-.127772686191747.149069884511846-.187212310102041.227259933401001-1.340973230653617-.882436552074068-2.681942076678752-1.764870218818032-4.022915307328731-2.64730677089392.048865768059841-.085324191109976.093918678025148-.172617058511605.135123652858965-.261901684893019,1.358309346489477.893970375604113,2.716659541041736,1.787955064091875,4.075003964571806,2.681948522385937Z" fill="#ffe0b9" stroke-width="0"/>
        <path d="M167.373292082773332,142.629221424618663c-5.426053511408099,5.653351005332297-11.662295997130059,10.204522067830112-18.740946028261533,13.554531510610104-6.849516017471615,3.241551016277299-13.987681509459435,4.986113019587719-21.629696971900557,3.716688734150011-2.560366359255568-.425305102062339-4.958361047878498-1.322064789368596-7.283492814556666-2.442333731438339-2.393768385523799-.036852443548923-3.992747877573493-1.675947146919498-5.553328895595769-3.078941717834823-4.558314626876381-4.098001045165802-7.257255995466039-9.332472710066213-8.787042036872663-15.23926282233333-3.055489786436738-11.797660303349403-1.749129290228666-23.384803462582568,1.56763132418746-34.882020630124316,1.797525856993161-6.230948663785966,4.214935103918833-12.238557173854133,7.32211392928366-17.915067369152894,3.127792326755298-5.714170318824472,6.603797589887108-11.218035373978637,10.817105845530023-16.250078678438513,2.170521532903877-2.592300224776409,4.393054707958072-5.112903944524078,6.764648983367806-7.513090896056383.734719757128914-.743574598798659,1.491247371135614-1.429384088942243,2.60266723807581-1.524003179620195,1.332536113637616-.037700086215409,2.464380757972322.625354064890416,3.514803914531512,1.251630950095205,3.829060918691539,2.282943438754955,7.722909708501902,4.453407067298031,11.598412991590521,6.650870552177366,5.464921321077782,3.098689065262079,10.901312493400837,6.248371941754158,16.390325943330026,9.305971822379433,3.542584828312101,1.973357246997693,7.072110153765607,3.978103982164612,10.559083087397084,6.048049130524305,2.45693360538462,1.458495819528252,5.04764634636922,2.689664281670048,7.390040031463286,4.346260601607355.583564082680823.412709829937739,1.201570428542254.774923140794272,1.085232924328011,1.583172388158346-.120030911108188.833913338887214-.779179510955146,1.05108157178438-1.523561839967442,1.076595948712566-.520498991263594.017835243694208-.805968223752643.380573385957177-1.089754074873781.740944385323019-.441242849103219.690031197911594-1.173994022434272.84397913693283-1.893913063531727,1.054976010103928-10.039201217716254,2.942261638369018-20.153722334378472,5.614851962052853-30.232676279156294,8.413837862481159-6.664537129208838,1.850783486303044-13.353840725778355,3.619170659889278-20.017913579731612,5.47213221763559-4.069316830817115,1.131482033160864-8.223157581503983,2.02879658249185-12.110500289854826,3.752677631780898-.491748530139375.218071749330193-1.265252580240485.284350325931882-1.294375059438607.964653356220879-.027531098936379.643057189807223.66441002643478.905382658740564,1.15038513883519,1.153735859850713,3.764331545327877,1.923723177318607,7.300435679559087,4.253432820140006,11.061578778058902,6.182497756311932,1.829872996204358.938534473725667,3.555576778138857,2.070438179443954,5.332305387632005,3.100655518008352,3.953061092641292,2.292179145670161,7.91768918336129,4.573206811151977,11.896413463417048,6.814070171303683,5.321520133258673,2.997165768536433,10.543904918269618,6.172488898710071,15.956722569626436,9.00889816389099,1.517733261591275.795312604856008,2.877887732352974,1.857795241514395,4.444023181031298,2.593342431044221.769915560325899.361607081438706,1.448628456699225,1.040686509160878.7037062020554,2.058606022628737Z" fill="#a4ddf1" stroke-width="0"/>
        <path d="M167.373292082773332,142.629221424618663c.022537599692441-.567293855077878-.203077098227368-1.005516562825505-.701389892494262-1.280575936825699-3.49482105860443-1.929126012744746-6.992464960418147-3.853122107349918-10.48811708055473-5.780746509359233-1.799693089209541-.99240768483287-3.516264622947347-2.118213880294206-5.333953634717545-3.094589271890072-4.021055960032754-2.159873214883191-7.877700262904909-4.623214031584212-11.848111403067378-6.88062506829192-5.306489336719096-3.017046969998773-10.667831846940317-5.937465469403833-15.984130845798063-8.937466598883475-2.33735616051672-1.318974265326688-4.613462872657692-2.746039515161101-6.933379088710353-4.096543164077957-1.28347220354226-.747149503853507-.980428873401252-1.283881479557749.143385866429526-1.843634688004386,3.35319725550471-1.670178961509009,6.971762188268258-2.554964795230262,10.544141826798295-3.562991590837555,6.871116931732104-1.938832131720119,13.755259716928776-3.831842552330272,20.640381492763481-5.720583028483816,5.39911439192656-1.481098953956462,10.814347055016697-2.903621164556171,16.210596466993593-4.394975368259111,6.053905668517473-1.673102827324328,12.09450667018973-3.394353593199412,18.14089838547261-5.09467057258189,3.568198086739358-1.644957800808697,7.325381453998489-2.716711903494797,11.127721519462284-3.643481565302864.673102936912983-.164068487840268,1.364359159984815-.151293403212549,1.937118098923747.364305888231684.844598500165375,2.009230281357304-.346765716622031,8.40669534720837-1.834199563116272,9.867613507251008-1.762373179051792,5.799019579118976-3.7031453206273,11.526582868147671-6.355978324316311,16.99774613941554-4.832221418770132,9.9659224017214-11.020430759190276,18.970067365102295-18.825414524448206,26.84515204948184-.115277391872951.11632256924895-.291693028517329.172053411131856-.439569299620416.256065778417906Z" fill="#caebf6" stroke-width="0"/>
        <path d="M134.270616750613044,61.508901225408408c-3.627217784074674,2.885386658603238-6.584427623974989,6.410393321852098-9.409139078630687,10.037622133888362-9.12968495950372,11.723481428365631-15.626971916284674,24.73242554047647-18.76960504678209,39.307045534624194-1.962447093037554,9.101261689975217-2.456594309167485,18.250544131966308-.171501910890584,27.392655489824392,2.055872016007925,8.224995418915569,6.228335324509317,14.941918398912094,13.798749090310594,19.211872126652452-.548625504037773,1.054911585411901-1.331853100478838.980495609011996-2.31609751175165.613853052087507-4.419356911124851-1.646364331209043-7.310196342707059-4.951053776123445-9.641234954207903-8.840051568346098-3.760666327812942-6.274127393320668-5.356081445523159-13.157440356018924-5.73865700679562-20.405528467776094-.532705733810872-10.09260899245055,1.376040368098984-19.795586829695822,4.413106533096652-29.342828247226862,1.003355116608873-3.154111105552147,1.941239832425708-6.329035909453523,2.909158005386416-9.494489744698512,3.06033266113991-4.612617368407882,5.568260514077338-9.574314745805168,8.837456146724435-14.05302615646724,5.394993998823338-7.390995475047021,11.294070845086026-14.321911740133146,18.523188039405795-20.016962566514849.442915633873781-.348923988845854.948610394119896-.618160999145402,1.425093236452085-.924473191516881.369615337209325.923561199424512-.198270837106975,1.497521939299986-.772785833145463,2.067610669017085-.805897314425238.799694662060574-1.608540219709539,1.599256199420779-2.261490306515043,2.538526540496605-.330763155548993.475805368800138-.646511446677323.932598774301368-.493060710265127,1.551828820982337-.045435398489644.17999640664857-.15679347810692.298684459112337-.333178692391812.356345574973602Z" fill="#ffd35a" stroke-width="0"/>
        <path d="M192.994254231158266,98.530257457303378c.501654426807363-3.24435835874101,1.50765622714971-6.401094989379999,1.685977343218838-9.701628161767076-.477493470996706-.55399873123315-.637262743299289-1.18843353320699-.537089024159286-1.913311705808155.765700040188676-5.540246025148008.603848468545038-11.08701653434764-.459376484241147-16.545757166428302-1.586615208218063-8.145984417209547-5.035549378711949-15.294065397736631-12.174554035018446-20.103434481628938-4.312938944643975-2.905517256001986-9.177038615425772-3.938256002555136-14.326289579244985-3.85080276971712-.994190415358389.016884458973436-2.09107266562205.304086945696326-2.874251020237352-.66913099013982-.499727956494098-1.359723790568751.321724688994436-1.86794747924796,1.424254543886491-2.133678838305059.818352912083355-.197240981158757,1.691852069354354-.140525716371485,2.475112334135702-.517337131719614,3.840986404402429.209008157102289,7.597909848549534.71367749925048,11.16805090237176,2.332709555375914,6.900918307414031,3.129508829120823,11.646346596118747,8.304205384494708,14.676702228351132,15.141785687272204,3.394463878874376,7.659136283326006,4.111092419449051,15.731963057103712,3.631033087960532,23.990179952226754-.172939350248271,2.974891985606519-.577759579751728,5.907962798914014-1.208463211005437,8.815019663757994-.808337199310699,1.209120516778057-.949335658917335,2.629263244329195-1.281505332706729,3.992794620868153-.287252361425999,1.179166167972653-.916334184505104,1.816965556734431-2.199601753311072,1.162591766013065Z" fill="#fdbe5c" stroke-width="0"/>
        <path d="M168.208038309498079,43.095176211789294c-.536758472184374.611146693936462-1.319129192479522.593215087266799-2.018631450899193.780819984362097-.953736333016423.255795124136057-1.651265853995938.738319682026486-1.714625790982609,1.824316247055322-.27285164017303.872498708778949-1.051922332753747,1.004960934695191-1.771559398192039,1.127765823757727-5.184903733472311.884797814194826-10.010643583140336,2.775624412581237-14.588473678059017,5.297523477822324-3.708566168155812,2.043029723410655-7.15922561719708,4.480017955222138-10.39567035712389,7.222099554865054-.971594361270036.823186772471672-1.800632784386835,1.993398973068906-3.333861048713516,1.82662478817474-1.081096420291942-.368890368346911-.401894655682554-.950370210428446-.171176976953575-1.467554902928896.863996078731361-1.93675264281228,2.795170875820986-2.98840334176748,3.91711818622025-4.712177350751517,8.802615685141063-7.058234816900949,18.632817145595254-11.518767031953757,30.076880514703589-11.89941762235685Z" fill="#fec75a" stroke-width="0"/>
        <path d="M134.385216585527814,61.174326087826557c5.375082230922999-4.777128088921017,11.149774512656222-8.948723024626815,17.750617372019406-11.909237426114487,3.952119768619013-1.772547255817699,8.091281302931748-2.843200198489285,12.338949189666891-3.564793701201779,3.719135887291486-.151444962488313,7.424338038126734-.138901470991186,11.032570043596934.967736481776228,7.85040723660677,2.407702416210668,13.130220456634561,7.658853880138849,16.314237692058668,15.064174283894317,3.746203210883323,8.712845845657284,4.171938772728026,17.824845046365226,2.858632936731738,27.096588127022187-2.445828978863574.012412086634868-4.63393595976595,1.127038731507128-6.964174646391257,1.638090448006551-1.99596313157781.43773713950759-3.969163442076024.979305470033069-5.952437882833692,1.474939710815306.439129889909964-.86098185285482,1.170928079744044-1.190087548447991,2.105556744816568-1.218703974142045.344282567364644-.010540268413024.70466127389227-.173249573415887.71675383198999-.595281438498205.00939278792066-.327554269793836-.302737106498171-.423660529040717-.554275689088172-.568846765090711-5.979094250244088-3.451069345765063-11.944288206639612-6.926307852470927-17.929977217938358-10.365875638754005-4.450196188916379-2.557226442357205-8.920123414316549-5.080296474552597-13.391222484760874-7.60090780941573-5.812607916663183-3.27690255583002-11.633413637695412-6.53928030406496-17.45827032021225-9.794351533337249-.290342367588892-.162257144424075-.65273447787331-.195580474244707-.981572445738493-.288945358011915.038213947975237-.111536776863431.076411969272158-.223058899455282.114612876082901-.334585406948463Z" fill="#bae5f6" stroke-width="0"/>
      </g>
    </g>
  </a>
  <path d="M207.072031671294098,87.258241115707278c1.743352521034467,2.598724242072421,3.25857340827497,5.431670650950764,4.113840333035114,8.455073522294697.197213421435663.697157352140493.372720690302231,1.411517781059956.435253143285081,2.128032747486941.047477116740993.544006561172864.034545583996078,1.544365477897372.002034820421613,1.786449193750741-.185204298612007,1.379080029806573-.628868662419336,2.331666660205883-1.522833167075078,3.210205395505909-2.298703119346101,2.259037938061738,1.237547453754814,5.79386754324878,3.535533905931516,3.535533905931516,6.118037820833706-6.012468259796151,1.714143215845979-15.735003579547993-2.246475609861591-21.63889050533362-.751309715276875-1.119938019899564-2.203883063477406-1.608471954325069-3.420474583050236-.896878842686419-1.111496758754583.650122431738055-1.65249855141883,2.294111881776189-.896878842686419,3.420474583050236h0Z" fill="#fff" stroke-width="0"/>
</svg>