<?xml version="1.0" encoding="UTF-8"?>
<svg id="Pattern" xmlns="http://www.w3.org/2000/svg" xmlns:xlink="http://www.w3.org/1999/xlink" viewBox="0 0 280 280">
  <defs>
    <style>
      .cls-1 {
        fill: #808545;
      }

      .cls-2 {
        fill: #78774a;
      }

      .cls-3 {
        fill: #465453;
      }

      .cls-4 {
        fill: #061d0e;
      }

      .cls-5 {
        fill: #051d0e;
      }

      .cls-6 {
        fill: #fff;
      }

      .cls-7 {
        fill: #222d27;
      }

      .cls-8 {
        fill: #373d31;
      }

      .cls-9 {
        fill: #232e27;
      }

      .cls-10 {
        fill: #acb055;
      }

      .cls-11 {
        fill: #2c3330;
      }

      .cls-12 {
        fill: #3b4930;
      }

      .cls-13 {
        fill: #4c5e4f;
      }

      .cls-14 {
        fill: #2c3430;
      }

      .cls-15 {
        fill: none;
        stroke: url(#linear-gradient);
        stroke-linecap: round;
        stroke-linejoin: round;
        stroke-width: 40px;
      }

      .cls-16 {
        fill: #bbc059;
      }

      .cls-17 {
        fill: #475034;
      }

      .cls-18 {
        fill: #838a43;
      }

      .cls-19 {
        fill: #525839;
      }

      .cls-20 {
        fill: #3d4a30;
      }

      .cls-21 {
        fill: #2c332d;
      }

      .cls-22 {
        fill: #7c7d48;
      }

      .cls-23 {
        fill: #18271d;
      }

      .cls-24 {
        fill: #2e3c2a;
      }

      .cls-25 {
        fill: #36462c;
      }

      .cls-26 {
        fill: #444c34;
      }

      .cls-27 {
        fill: #484f38;
      }

      .cls-28 {
        fill: #19271e;
      }

      .cls-29 {
        fill: #4b6156;
      }

      .cls-30 {
        fill: #434c34;
      }
    </style>
    <linearGradient id="linear-gradient" x1="960.611684982404768" y1="-688.508479381345751" x2="1036.922076337046519" y2="-579.525946074503622" gradientTransform="translate(-1040.607308135212861 352.746832891172744) rotate(21.468386568737049)" gradientUnits="userSpaceOnUse">
      <stop offset=".005347593582888" stop-color="#395230"/>
      <stop offset=".217371864827728" stop-color="#3c5430"/>
      <stop offset=".428043148797019" stop-color="#485a30"/>
      <stop offset=".63825955422458" stop-color="#5c6530"/>
      <stop offset=".846945984996631" stop-color="#787430"/>
      <stop offset="1" stop-color="#928231"/>
    </linearGradient>
  </defs>
  <a xlink:href="https://www.notion.so/dmmnotes/invulnerable-affects-ca8389f84b7649c4b34eb0026e4ebdbc?pvs=4">
    <g>
      <g>
        <path class="cls-15" d="M74.70084176106775,146.656595457823641c6.360441391649147-5.573796106777081,12.328595183581456-11.563465826729953,18.436678802028837-17.404911289539086,10.367052503131163-9.914493149462942,20.742952294295719-19.819725508095871,31.111147026135768-29.73302849187894,11.375050578501032-10.875983005866146,22.747497821362231-21.754710444314696,34.11739180283621-32.636098059241704,6.693829989819278-6.406226094661179,13.394387413630284-12.80551853966972,20.063457888819357-19.237482393824394,2.603719987351724-2.511158080651512,5.749952504147586-3.381719754470396,9.254132317929361-3.373492574020929,4.809672815152226.011298857149086,9.614589694631832.646223021363767,14.428244036572323.107712512581202l2.158704295437019.492917121055143c.263758613892605.56081155182801,1.387358009791569.195376775953264,1.265112289141143,1.174358781843694-2.619243328053017,3.402925759472055-5.951199640574487,6.112987842963776-9.02958447261426,9.048183409930061-10.346712843153909,9.865394713629939-20.658649007076747,19.767782899727536-30.980149838489524,29.659088917152985-7.925760601632646,7.595421263951721-15.947856585693444,15.090200866319719-23.798497239378776,22.763491342437192-4.22788493056305,3.987231190061721-8.264162238578137,8.181099851961335-12.74869223882888,11.895340331246189-2.346028890642629,1.050404467941917-4.001106979878386,2.988848101971598-5.853516351354301,4.649888823665606-13.489890634224139,12.096219587645464-26.995256045645874,24.17521510203369-40.471780364222468,36.286387972817465-.773935830599839.695523454442082-1.55805000838518,1.40273239513408-2.741251476651087,1.005198396404012-2.589883150511923-1.877842191363015-3.353046695689955-4.847476064362127-4.485614176680428-7.584273646803922-.673141585476515-1.62662724402071-.958081662916811-3.36439530295138-1.170380055102214-5.107284356950913-.087211981675864-.715983150310421-.280796369361269-1.465687514164529.44459775442192-2.00599679687366Z"/>
        <path class="cls-15" d="M141.384282024310778,107.322023926921247c3.616714656020122-4.064179127200987,7.759073103780793-7.588426444937795,11.67317747585912-11.345960900413047,16.857273833938962-16.182962287171904,33.743741327396492-32.335473397099122,50.624821588411578-48.493593275405146.526642562769666-.504083326508407,1.110667503702643-.948145047908838,1.667937473054735-1.420194175261713,1.617658719669635.345633685064968,1.40847176596435,1.715326754936541,1.408672686833597,2.795098009148205.000967663986557,5.417352692951681.135753134463812,10.848722381681-.968612889932956,16.201640160590614-.047274994030886.229197740274685.002641257071446.429678415395756.085799351665628.633258809153631l-.493210249763251,2.159988036983123c-2.54000087008535,5.077312439982052-7.128107720383014,8.305299251187535-11.053208855201774,12.103981353253403-8.768164394538871,8.485766934403728-17.667948908246217,16.835395216725374-26.514105182761341,25.240480239806857-1.613237401641527-.315760201689045-2.062447623060507-1.952439620396035-3.18714865853326-2.841654934487451-1.201817017369649-.950177407255978-2.201516570942658-2.162837781823328-3.215588104676499-3.318476131422358-1.410809430366498-1.607739406126711-2.926445200300805-1.714843977930286-4.70339841515306-.751195191973238-4.203582291164821,2.279614010969453-8.120537341262207,5.005286705309118-12.070492508843927,7.683150032546109-.97860238856083.663430756070738-1.788830534557746,1.827215695684572-3.25464371095859,1.353477967481012Z"/>
        <path class="cls-15" d="M55.898338926055658,211.577370690845783c-1.394929336353925,1.401834302601856-3.290194662178692,1.463304501861785-5.049816722517789,1.888163380008336-1.151309506551115-.262889256582639-2.302617366138293-.525778137098314-3.453926872692136-.78866739368641-5.012641455438825-4.335055424740858-9.260043434304862-9.424227143805183-13.872894716268092-14.15261605208434-.891427694013146-.913737808405131-1.693978864826931-2.047661306407463-1.70320132172219-3.479315405798843,1.187934252731793-.664880666314275,2.150450039194766.015385509112093,3.060136263470667.602513239140535,1.5479132826149.999070283029141,3.100392741631367,1.993926134802678,4.616813336153427,3.042135100353335.85618250067364.591819345216209,1.772807177211689,1.055083027749788,2.793875508470592,1.291881145141815,1.90774022604819.442408888542559,2.255616262498734.132056670183374,2.000166132117556-1.807471087608064-.057734321286262-.438339801816255-.159509557110141-.871408538807373-.188865546352645-1.313560654582034-.128851638423839-1.940831149329824.399575140866546-2.586565183992207,2.326099476253148-2.64344996611544,1.840018661585418-.054319161747117,3.686685380901508.07481034083321,5.513617457910186-.267238723652554,1.242905016071745.031506416500633,1.862485604263384.81403829752162,2.255542665659959,1.871616475917108.070506916200429.890271010961442.466601793852533,1.671485597213177.795450285215338,2.484742034010196,1.746712410810687,4.31978437349062,2.221968682739316,8.736576143010097.907004054301979,13.271267908956361Z"/>
        <path class="cls-15" d="M74.70084176106775,146.656595457823641c.130444602817988,5.398002096429991,1.984004990402354,10.168048267190898,5.247772871283814,14.424170838681675.873386171948368.527738624874473,1.552222165073545,1.273588208352521,2.250269818431661,2.000216307404116.854500161645774.947514931636761,1.775643776226389,1.819587019625033,2.824181016523653,2.555032508831573,3.261887705954905,2.569297652000387,6.865907981806231,4.404091280812281,10.955209610367092,5.251507282107923.904683539123653.187474623548042,1.910102936541989.248020709048433,2.51678655881733,1.137257125723409,2.850011464171075.369259943716315,5.680488611239525.237633993965574,8.506589869192794-.270115612076552,2.818120855245979-.506312185769275,3.595723100343093.183857774294665,3.512326464498983,3.074443208881348-.086413436718431,2.995440215887356-.200425475398333,5.990113071997257-.302362220452778,8.985115786210372-1.238099760783371-.838208465898788-2.668525160516765.736965858777694-3.89361339997231-.310579474846236-.665824398371115-1.643737633365163-.267848634117399-3.348798163535321-.212672819193358-5.013315327409146.051896450395361-1.565797787941847-.489625080551377-2.063088741615502-2.039171623446236-2.00450174868638-4.195381672710937.158650175799266-8.295493306691242-.13990773459409-12.356417096078076-1.58736268805842-5.093667380353509-1.815557666835957-8.524586833862486-5.624518793832976-12.221940933131009-9.177228786467822-1.109912229185284-1.066479105782491-2.033159101058118-2.327374881188007-3.335166474526886-3.192368485590123-2.382929637997222-2.258489784140693-3.366050894448563-5.268014840139585-4.390154167977016-8.250764023039665-.309245269479106-.90071653819723-.665774565353786-1.787248399074088-.898328952647717-2.714507352260625-.595135147614201-3.397231335260585-1.031290194668145-6.811938716426084-.474319644918069-10.252160278747397.222367051666879-1.373488292332695-.42102283573422-1.58772883817619-1.557114539363283-1.686851215736169-2.15593056567559-.188108925733104-4.393268546824402.405322306382004-6.467490301401085-.631115667805716-.599708163589639-1.239867266973306-1.092624088767479-2.48040049969859-.006505748624477-3.722658105738446,3.512046048004777.037000073525633,7.025826661435531.019717150787983,10.535493778619639.131132334254289,2.142237765147001.068022938912691,2.786322676976852,1.027927277580602,2.305898158163473,3.213971451856196-.584249934414402,2.658484769512143-.936528630862995,5.322901496181657-.499270224166139,8.040681922511794Z"/>
        <path class="cls-15" d="M71.317163474436711,151.770956492871846c1.523690753037954,3.463418528443071,2.278289026694438,7.296973326145235,4.913792976635705,10.225313817047208,1.91901083303128,2.302725171866769,4.01827298533226,4.444329558296886,5.993632608052394,6.694658817556046,1.763054629122053,2.008435924690275,1.704671111172502,2.834834747733112-.215407880364182,4.617717945777258-1.445493778383934,1.342225801954555-2.715800524364568,2.860416202913257-4.233225134307759,4.125892846206625-2.120145114784464-.51630688901605-3.408254096081691-2.203070647414279-4.879570469493046-3.584465503217871-2.360947627554197-2.216657072523958-4.275312095343907-4.848004714946001-6.412018003805315-7.274536555345549-1.089018566944105-1.236731206445256-2.33227773172257-1.987565977291524-4.008032977039875-1.917544060986984-.930305005386799-1.331584479183221-1.503372677917469-2.818900882106391-1.906483111878515-4.380304570469889,4.114236621216151-.821315378552754,5.666804120304732-4.758554964755604,8.566986009100219-7.057030137901165.688260357633226-.545473238717022.952392129719556-1.718464398756623,2.180325983100374-1.449702598665681Z"/>
        <path class="cls-15" d="M52.091735236135719,194.161111742389039c-1.532528107861253,1.284942638078064-3.361633484783852.573236826832726-5.032990767444062.637202685786178-2.591554801142593.099196942404888-2.666545362441866.073640143087687-2.398074182562596,2.491122156334313.127204853179137,1.145500293459918,1.391667431964379,2.598452629456006.003785651519138,3.399219674754931-1.286808850614761.742437692379099-2.90035843667556-.014176140670315-4.156432727435458-.696252326617468-1.789862198842457-.971937497713952-3.444916575475872-2.198126075239998-5.128704176852807-3.357651126800192-1.095386972148845-.754313083019952-2.202211847984472-1.443492441116177-3.560802113413047-1.58982743249544-.789037090265083-3.405040196064874.395576097367666-6.716635527858671,3.110463205316591-8.695362703459978,2.709463042498101-1.974777988631104,6.39354764012478-2.087915679845537,9.291294832947642-.268248239362947.555853499628029.349051726254402,1.075397921323201.755976827875202,1.611695210745893,1.136197429692402,1.139651851568487.356463620777504,1.705887728301605,1.389349224074977,2.520403195930157,2.129990606110368,1.059107117562235,1.186596313360496,2.199936217941286,2.297517017672362,3.26139437531765,3.483401785415481.270381808262755.402727002014217.741321217074074.736009803978959.477967495930898,1.330207490642351Z"/>
        <path class="cls-15" d="M71.317163474436711,151.770956492871846c-2.184166571161768,2.532572493106272-4.95537680552934,4.525071000296521-6.825376684801086,7.339815448716763-1.01541592486592,1.528412579857104-2.464503246357708,1.288757805166824-3.921874653458872,1.166917266640667-.578734380967944-.915381752678513-1.024076115207208-1.874555613831035-.981738199417123-2.99392352401992,1.819935161302965-.666366965155248,2.266480651986967-1.92861939802242,1.969867313867326-3.802588022201235-.635114988715941-4.012504521093433-.964688990857212-8.060757907829611-.732246542527719-12.137949028287039.356049441736104-.962748256284613.029908036874986-2.369560192031713,1.633651899946017-2.517792232903957,2.554773102875515.109927715031517,5.108838356561137.264094533282332,7.6647247145047.304353269482817.826926685896069.013020180507738,1.326552780929887.088640484687858,1.075281221565092,1.055089889756346-1.007167360451604,3.873811405392189-.152835872766445,7.726588270708817.117710930321664,11.586076932815558Z"/>
        <path class="cls-15" d="M61.314717271246082,141.770029482762766c-.098105027664133,4.181076219600072.403104130056818,8.320175875847781.833342987363721,12.466858804238655.299961352542596,2.89103967072333.253061761891331,2.895921534318404-2.559889899379414,3.046862709421475-2.259626605838093-6.619266166317175-2.22454932315577-13.377895066683777-1.201739108087168-20.192051611566058.108864893258215-.725279831920489.286031303492564-1.464425520045552,1.18170904645649-1.657932367799731,1.382407645089188.837869486822456.949727835111844,2.324639733236836,1.274628407139971,3.543772554432508.24477138129896.918521860321562.120509592452436,1.895177531041554.471948566506398,2.792489911273151Z"/>
        <path class="cls-15" d="M62.476334594114633,164.657993799908581c1.316118732125688-1.189947531014695,2.428262970096512-.41824237018227,3.332555069308.511693463122356,1.469826464993275,1.511496542210807,2.824963614476474,3.138177157343307,4.181230302458971,4.755919287559664,2.306690792812333,2.751405532842909,4.866111906108017,5.230946889696497,7.732937518944709,7.392226389907592.802457093358498.034786213607731,1.400135033462902.246939201861096,1.084163254672603,1.251809881412555-.983584315663393.382302246827749-1.69801482247658-.253605911231716-2.445354424911784-.684027055893239-3.142963166036679-1.810050564161429-5.981978130443167-4.043433578002805-8.761270525912551-6.357723596031065-.680186997817145-.566391279335221-1.368522484228379-1.123171949524476-2.170267752721884-1.518327913234316-.402339391118403-.26038740860713-.682989843725409-.60254076903766-.729554007950355-1.099042889398334-.666908790399248-1.45657558824314-1.782689310544811-2.67801481141214-2.22443943388771-4.252527567445213Z"/>
        <path class="cls-15" d="M64.700780332242175,168.9105089359673c.235911544965347.205670955749156.471826100249928.411328727981527.707734067690581.616984995953317.673517914333388.683977835562473,1.497365865016036,1.268344576394156,1.56235704979008,2.35784603679167-1.797952687966244,2.655798196839896-3.916662556855954,4.962462819676148-6.909815101130334,6.316198854934555-1.119319032915882-.570384521663073-2.715543594378687-.801801899535349-1.943842232354655-2.722358130300563,2.194519421600489-2.189553234016785,4.389038843205526-4.379106468037207,6.583566216004328-6.568671757378979Z"/>
        <path class="cls-15" d="M58.117214116237847,175.479180693346279c.03422226566272,1.45879307118048,1.224220559464811,1.860528393419372,2.224897929606414,2.435420253217671.380550932716687.970831367736537-.469127280437533,1.293812379344672-.946929259423086,1.814838380896617-1.185349685659276.973820807583252-1.985109075272703,2.471982163158827-3.694174977214061,2.742419749600231-1.052400068060706-.570667432722985-2.076649104532407-1.167794768043677-2.249703765653067-2.52361622331955,1.327624383366128-1.727661030225136,2.993614215851267-3.101654602949566,4.665910072683801-4.469062160394969Z"/>
        <path class="cls-15" d="M53.451302396592837,179.948242477679742c.747323720989698.790270132194564,1.494652099258019,1.580527456928394,2.24198212448664,2.370785157738283.164229928136592,1.726905739596987-1.514800919662775,2.14666946714533-2.27519451016633,3.220700905225385-.436470071193071.354206246858666-.898800881629541.655457395638223-1.478842066945617.711433402113471-1.331280124267323-.25230067663324-2.149683037862815-1.107598791550117-2.684932643549473-2.294172676374728,1.267015611637362-1.47458277606529,2.643521945538851-2.834392083846978,4.19698709617478-4.00874678870241Z"/>
        <path class="cls-15" d="M49.254315300418057,183.956989266382152c1.191775929494725.353274065368169,1.605107094376763,1.773211986284878,2.836621432631546,2.072031197376418-.739327552410941,1.836095382355779-1.958810709223144,3.15323612596876-3.938814576197728,3.648422206775649-.906082905433323-.694678248653872-1.727449639737642-1.469341937361605-2.320150340934561-2.459930434244598,1.140778511100507-1.086836971528101,2.281561679475999-2.17368675050966,3.422343484500743-3.26052296990747Z"/>
        <path class="cls-15" d="M61.314717271246082,141.770029482762766c-1.106020072887077-1.14314254407509-1.004224210756547-2.653977853744436-1.153621325933273-4.056968050355863-.086148107453482-.809021990940892-.354021780659423-1.531136208579483-.592952353793407-2.279293663214048.908877718779877-.421373811537705,1.844362768581959-.384744511544341,2.790589349014226-.162968947115587-.324979145222642,1.195244861677565.190790486672995,2.366509791756471.100508245037418,3.554854219701156-1.063587025479137.71596681378287-.747411601050771,1.96889424811161-1.144523914324964,2.944376440984342Z"/>
        <path class="cls-15" d="M141.384275436469579,107.322022422657028c3.983250326900816-2.571333513446007,7.967621287489237-5.140926956417388,11.947517435582995-7.717423434372904.303863621293203-.196708283350745.554760083813562-.479179373216539.866234366369099-.659647823053092,4.757389257915747-2.756410225605578,5.402577175318584-2.666555555853847,9.211607959109642,1.39470158023687,1.495095611385295,1.594104302133928,2.938728160867868,3.23652547078018,4.405862882624206,4.857008254346511-7.988401766297102,7.718949431658984-15.975055177947979,15.43971291269736-23.969407148219943,23.152483542884511-.524832288924699.506354732900945-1.108479168702615.951674871113937-1.664763582816704,1.425387819703246-1.143083219771142-2.89804128675496-3.529040810317383-4.782618161481878-5.58555778185837-6.950873239260545-1.073813849251565-1.132168292666393-1.994582190390247-1.143472627763913-3.285077672812804-.36977255333295-5.469590561548102,3.27922383079931-10.266489698153237,7.44701279142464-15.232153867302259,11.391755417796958-7.974844160082284,6.335260884412492-15.556744775369225,13.13884536747355-23.372653385357808,19.66355297172413-.631757287605978.527401405382989-1.224363434842417,1.393661780180992-2.285571721742599.813881186619255-.22171627033822-.990781900332877.543374234096518-1.465253366703109,1.102308445751987-2.005468649458635,10.993552770706629-10.625379298337066,21.961658918104149-21.277645886008031,33.195024356174144-31.651299816647224.64954499461146-.599837754765758,1.398330506273851-1.074814244975641,2.057194304789846-1.662037753996628,4.20314344234157-3.894085199737674,8.406293472528887-7.788168895212948,12.609435409708567-11.682247503189501Z"/>
        <path class="cls-15" d="M92.468090747661336,154.306895846930274c3.28736532424773-1.72992495149083,5.731374211910406-4.515801309997187,8.516676767399986-6.866391043651674,8.523859540885496-7.193463389787212,17.008970886836323-14.428808052018212,25.870464354854448-21.21360647245092,2.235157401491051-1.711340656784159,4.652825084843244-3.101862220955809,6.946650181841505-4.697522759233834,1.038077032920228-.72212465021039,1.758893440443899-.661718193096021,2.619262983566841.359050601364288,1.180343692512906,1.400378248221386,2.52624618772461,2.668905175090913,3.866610207369376,3.924016546574421,1.164864759734883,1.090789448995565,2.0432363050204,2.266577204620262,1.893575683954623,3.962104330657894-8.008902579292226,7.841727938293843-16.009908942479342,15.691736601082084-24.304190196370655,23.234625337427133-1.622745372971622-2.297730941392729-3.714078206331578-4.165863285155865-5.623362148035085-6.203611072083731-1.14541766648108-1.222491741205886-2.010032099768068-1.201603225799772-3.381772901251679-.233432393142721-7.674980908039288,5.416949098082114-14.541864916014674,11.809877876203245-21.758884392826076,17.779150058544474-.780709628187651.64573375915279-1.394555214784305,1.836910978219748-2.766001748790586,1.374768500416394-1.051757783633548-.589371319430938-1.850471828684022-1.454377486916201-2.591896805897704-2.38180158459727,2.929709778617507-2.542754370460898,5.659801152291948-5.299773423419538,8.511957782359787-7.925373949079585.609195953380549-.560808057553004,1.118418760577697-1.439713647132521,2.200910231825219-1.111976100744869Z"/>
        <path class="cls-15" d="M84.347119539374035,165.726047481351998c1.967826708658322-1.028375736801536,3.436370161410196-2.683897352457279,5.107402530333275-4.083343891223194,5.158016266231243-4.319756763528858,10.28748045051907-8.673761008632937,15.461352064840867-12.974348099751296,1.519362006263691-1.262912012645756,3.402148337086146-2.031734384927404,4.826477005324705-3.451531984557732.379286793888241-.378096607390034,1.031432914932338-.530170528396411,1.412372979111751-.10222646863258,2.297838687868534,2.581449330289615,5.603108133394016,4.310228203426959,6.722265613712807,7.894083132221567-6.46042150372341,6.33909706360464-12.920987417188371,12.677703413270137-19.381738924666934,19.01621190093465-5.288923009363316-.812418069925116-10.155810749028205-2.572822395199182-14.148131268656471-6.298844588991415Z"/>
        <path class="cls-15" d="M66.781087484866475,171.653929365402291c-.60651723895171-.612501822961349-1.091180522206741-1.303735804627649-1.372471540587867-2.126439988704078,3.017641714955971,1.28986411904225,5.04354858993247,3.946376121777575,7.776151928802392,5.644207748464396,1.857429306104677,1.154093877516061,3.575913348804534,2.532240377910057,5.649054543458988,3.316217144540133,1.147790833982071-.520510057864158,1.965551151314685.261083973937275,2.820945474425571.762298986483074,6.550213666446325,3.838146523317846,13.584323108724675,5.727997986252376,21.199788280463508,5.44561382557913,1.44104412361412-.053428973931659,2.755879764678866-.264328855604617,3.896704102521653-1.184024956237408.637197969566841.151558946739897,1.144627706215033-.156219737777064,1.640613468596712-.478415663017586,1.00349687383823-.651913654544842,1.453296178102391-.038452702548966,1.819734677861561.780959605550379.020830327296608.660586142246757.055540012556776,1.321220536729015.05981470493316,1.982035064653246.011807903197223,1.826344310713466-.756409401796191,2.723760533712266-2.719811268927515,2.946235094936128-11.357723012868519,1.286967700101741-21.717033794985582-1.319671503293648-31.167458593997253-7.688154650324577-2.792380839016914-.966350604554464-4.57100795932638-3.242333204225361-6.643954133075567-5.139293749820354-1.113716171536907-1.331047269271949-2.653333172265775-2.368351682296634-2.959111644475342-4.261238462102483Z"/>
        <path class="cls-15" d="M69.94544037849937,175.471488298440818c2.14631410799484,1.860990061833945,4.292631226309823,3.721966940149287,6.438827603954451,5.58297173219762-2.443119332972856,2.241882678124966-4.886124229520647,4.483749873907072-7.329132136383123,6.725630253213239-2.368970628878742-1.723048432550058-4.870259869442634-3.328183128493038-5.712544458559023-6.414852280382547,1.305973157868721-2.349401918934745,3.366778081845951-3.996092400064299,5.354856989124528-5.704635949667136.333255497684149-.286406613258805.796555240964153-.358483533284016,1.247992001863167-.189113755361177Z"/>
        <path class="cls-15" d="M63.620132510429357,181.374251525969157c.763347418818739,2.278031450223352,2.8822989966975,3.404107744316207,4.335950638824215,5.095325774982484.371878824642408.43265788964527.969926055629003.672623119480704,1.098991246732112,1.310554435007361-1.045565185960186,1.358975305691274-2.307995366182695,2.493644660466089-3.657372377632782,3.538357132503734-.693626291078544.378144024345602-1.302679855584756.114817661229608-1.789301463187257-.353014988808354-1.668254042096123-1.603772213335105-3.548667063717403-3.013164791040253-4.74496811159861-5.061274778168809.263017653634961-1.77073433418991,1.868816553617762-2.509522069562081,2.858186504258811-3.724379788036458.610495914697822-.317784443814162,1.013433332262139-1.135112203897734,1.898513562603512-.805567787479958Z"/>
        <path class="cls-15" d="M58.987416891096473,185.778958827593669c1.46352962043602,1.43447622117128,2.934169166927859,2.86179564201484,4.387094639358111,4.306930772425403.580377766502352.577265565765629,1.16237201882268,1.12731102984435,2.023187193974991,1.232598516317012-1.399648529896695,1.348366356822225-2.79929705979248,2.696732713648089-4.198942295766756,4.045099822600605-2.132882156714004-.209145282984537-2.872400371382355-2.226178229611833-4.27664163607551-3.370530951870023-.850543188348638-.693148545244185-1.906459095524951-1.450350058616095-1.776401896946481-2.843515361841128.113245383992762-.438261750630772.383977154029708-.777214788497076.688256203952733-1.095039024023208,1.066455105514251-.734689557777529,1.452336225533145-2.420651241467567,3.153447791502913-2.275543773608661Z"/>
        <path class="cls-15" d="M55.495246987659812,189.085873478372378c1.182745602774958,2.746008136917226,3.712993468136119,4.26641538648073,5.703503136764994,6.277726891954444-1.284397464038193,1.230175731465351-2.568807820147413,2.460362390047521-3.853219823223299,3.690548672564546-1.950142163825149-.113779804307342-2.777249739399849-1.477838663584407-3.406117175337386-3.062592029160442-.521413355155346-.705576082651532-1.000989804032542-1.453434686036417-1.847808631768203-1.83018383610397-.242728308009646-.345534179197784-.485579406852594-.690818978479001-.728428858737061-1.03610340170053.670747716086225-2.070068864384666,1.976584140637897-3.489777564740507,4.132071352300954-4.039396297554049Z"/>
        <path class="cls-15" d="M53.939413125864121,195.991557013730926c1.11307261404545,1.045686988751186,2.055034071701812,2.281865871047557,3.406102636300602,3.062602580226667.807351444413143,1.761942404340516,1.992146533287269,3.353583333881033,2.016976814223199,5.442189795132435.035395461654844,2.977646478891984-.929585323371612,5.395519776764559-3.464151774434868,7.080952375625202-.485790290161276-1.171119108870698.107581567667694-2.299406159012506.14150381590207-3.450323927670979.110782608766385-3.758059778921961-.2751234529469-7.407931713431026-2.12160846018287-10.786443192202569-.202591058786311-.37064424617347-.597477787912794-.914071639461326.021176968191867-1.348977631110756Z"/>
        <path class="cls-15" d="M92.468087453737098,154.306895094792708c-3.156180426643914,2.37680152500252-5.743191376408504,5.37443004621673-8.689449599031832,7.980596368410261-.593824157622294.525285346404416-1.055080314270526,1.265989881781934-2.023546703816464,1.056571808236185-.670866355058934-.699323908840597-1.419795289425565-1.336562353035333-1.80645374469168-2.263305645665241.997559582810936.143627383540661,1.60760773337006-.451829770643599,2.29020398665125-1.066189215738632,14.677918585894076-13.2106206760036,29.37250764412056-26.402697001991328,44.076324385311636-39.584461650858429.707576133650946-.634330581182439,1.494633228187922-1.201603758225247,2.459465313530018-1.425953895894054-3.757433593850692,4.235956540745974-8.092090907916827,7.879665856111387-12.141817945900584,11.81540540894639-7.747226865896664,7.529170121750212-15.570639438399667,14.979856630276117-23.354911231057486,22.470932771848311-.309405556206002.297747623357282-.541631533420514.675773211183696-.809814460994858,1.016404050715209Z"/>
        <path class="cls-15" d="M106.75126027395072,183.511802125527538c-.121083992606145,1.379775933690325-.905048314192754,1.715917183179045-2.233154600609851,1.799281706114925-8.77780578599959.550963890615094-16.858924370806562-1.515292251300707-24.295856303257096-6.184595859722322-.427886983533426-.268634464715433-.924220972715375-.428170991141087-1.38856388021668-.638535613481508-.370121177062174-.389950321579818-.740376270481647-.7798757379569-1.110627895706784-1.169952942236705.842573984848968-1.883802686201307,2.434564145792137-3.169094176128056,3.963783274623893-4.356530968238076,1.86146902298151-1.445443498139866,1.354295080901466-2.631571088983037.16152754794166-3.992778185027419-1.59212512718932-1.816937123030584-3.233544202284975-3.591019634633994-4.805665139518169-5.424805675054813-.36951745209717-.431009023832303-.546330108659276-1.027424854255514-.811771018003128-1.547675285495643,2.640313618725486,1.663677999160427,4.552929797819161,4.130339564995666,6.665118321120644,6.328270752204844,5.968582834419976,6.210809238113143,13.319189809269119,8.192154599433707,21.585310796719568,7.531579673963279,1.962174278249222-.156812635992537,2.349484465837122.371970932066688,2.224982613149223,2.245935430259124-.118313227946601,1.780778104763158-.445893611207794,3.614572074460739.04491628375672,5.409806966714314Z"/>
        <path class="cls-15" d="M55.495245340700421,189.085873102303594c-1.564935277941913,1.154383134609816-2.88599788434567,2.558450324195292-4.131751448993782,4.039649665697652-1.071004239769536-1.149656007284648-2.141703115267774-2.299048095375838-3.211883710690927-3.448266356164822,1.313645305403952-1.21595153200542,2.626781645297342-2.432102506232695,3.939618293012245-3.648238686602781.355754687563604-.230196529768364.711804410029799-.460395045933183,1.067852769143428-.690580002510615,1.953634139825226.022446679084169,2.728279560401461,1.231392604850043,2.981141408823532,2.965442374592385-.214993629609125.26065943906724-.429986975608699.521332813788831-.644977311294497.78199300498818Z"/>
        <path class="cls-15" d="M63.620129216508758,181.374250773838867c-.527479840354317.341220578604407-1.05496269102423.682454340729237-1.582445541694142,1.023688102861342-1.100889872681364-.880504757733434-1.999202444589173-1.964165700192098-2.975209589355472-2.969913682482002.393356144257268-.532554478020757,1.140338305976002-.765881765466474,1.279529773526519-1.51350443454794,2.220075445769908-2.010928056477496,4.622728311174797-3.833870181440943,6.438874690808007-6.260708456835346,1.055155304798973,1.273136077439631,2.110104684846192,2.546141908795107,3.164806299835618,3.818411491807638-2.552234107167351,1.491020351977568-4.282086408484247,3.864740764851376-6.32555563312053,5.902026979196307Z"/>
        <path class="cls-15" d="M59.062475732416715,179.428025570286991c1.614245355604908.365530256649436,2.460642906334215,1.501156942484158,2.975172734347325,2.969794299875502-1.016716903530323,1.127135699400242-2.03347724991454,2.25415051193886-3.050229645104992,3.381153269148854-.949073493709875.841693909454989-1.898150281345806,1.683387066777868-2.847209290686806,2.524987187323859-.900862586464427-1.081690966533642-1.522135479281133-2.444703942748674-2.980948888690364-2.965245834833695.497311776854076-1.298570561739325,2.047048960016582-1.712930207608224,2.534033367614938-3.019865011343427,1.123056633314263-.96347940823216,2.246119177917535-1.927151659203446,3.369181722519897-2.890823910171093Z"/>
      </g>
      <g>
        <path class="cls-16" d="M74.70084176106775,146.656595457823641c6.360441391649147-5.573796106777081,12.328595183581456-11.563465826729953,18.436678802028837-17.404911289539086,10.367052503131163-9.914493149462942,20.742952294295719-19.819725508095871,31.111147026135768-29.73302849187894,11.375050578501032-10.875983005866146,22.747497821362231-21.754710444314696,34.11739180283621-32.636098059241704,6.693829989819278-6.406226094661179,13.394387413630284-12.80551853966972,20.063457888819357-19.237482393824394,2.603719987351724-2.511158080651512,5.749952504147586-3.381719754470396,9.254132317929361-3.373492574020929,4.809672815152226.011298857149086,9.614589694631832.646223021363767,14.428244036572323.107712512581202l2.158704295437019.492917121055143c.263758613892605.56081155182801,1.387358009791569.195376775953264,1.265112289141143,1.174358781843694-2.619243328053017,3.402925759472055-5.951199640574487,6.112987842963776-9.02958447261426,9.048183409930061-10.346712843153909,9.865394713629939-20.658649007076747,19.767782899727536-30.980149838489524,29.659088917152985-7.925760601632646,7.595421263951721-15.947856585693444,15.090200866319719-23.798497239378776,22.763491342437192-4.22788493056305,3.987231190061721-8.264162238578137,8.181099851961335-12.74869223882888,11.895340331246189-2.346028890642629,1.050404467941917-4.001106979878386,2.988848101971598-5.853516351354301,4.649888823665606-13.489890634224139,12.096219587645464-26.995256045645874,24.17521510203369-40.471780364222468,36.286387972817465-.773935830599839.695523454442082-1.55805000838518,1.40273239513408-2.741251476651087,1.005198396404012-2.589883150511923-1.877842191363015-3.353046695689955-4.847476064362127-4.485614176680428-7.584273646803922-.673141585476515-1.62662724402071-.958081662916811-3.36439530295138-1.170380055102214-5.107284356950913-.087211981675864-.715983150310421-.280796369361269-1.465687514164529.44459775442192-2.00599679687366Z"/>
        <path class="cls-18" d="M141.384282024310778,107.322023926921247c3.616714656020122-4.064179127200987,7.759073103780793-7.588426444937795,11.67317747585912-11.345960900413047,16.857273833938962-16.182962287171904,33.743741327396492-32.335473397099122,50.624821588411578-48.493593275405146.526642562769666-.504083326508407,1.110667503702643-.948145047908838,1.667937473054735-1.420194175261713,1.617658719669635.345633685064968,1.40847176596435,1.715326754936541,1.408672686833597,2.795098009148205.000967663986557,5.417352692951681.135753134463812,10.848722381681-.968612889932956,16.201640160590614-.047274994030886.229197740274685.002641257071446.429678415395756.085799351665628.633258809153631l-.493210249763251,2.159988036983123c-2.54000087008535,5.077312439982052-7.128107720383014,8.305299251187535-11.053208855201774,12.103981353253403-8.768164394538871,8.485766934403728-17.667948908246217,16.835395216725374-26.514105182761341,25.240480239806857-1.613237401641527-.315760201689045-2.062447623060507-1.952439620396035-3.18714865853326-2.841654934487451-1.201817017369649-.950177407255978-2.201516570942658-2.162837781823328-3.215588104676499-3.318476131422358-1.410809430366498-1.607739406126711-2.926445200300805-1.714843977930286-4.70339841515306-.751195191973238-4.203582291164821,2.279614010969453-8.120537341262207,5.005286705309118-12.070492508843927,7.683150032546109-.97860238856083.663430756070738-1.788830534557746,1.827215695684572-3.25464371095859,1.353477967481012Z"/>
        <path class="cls-3" d="M55.898338926055658,211.577370690845783c-1.394929336353925,1.401834302601856-3.290194662178692,1.463304501861785-5.049816722517789,1.888163380008336-1.151309506551115-.262889256582639-2.302617366138293-.525778137098314-3.453926872692136-.78866739368641-5.012641455438825-4.335055424740858-9.260043434304862-9.424227143805183-13.872894716268092-14.15261605208434-.891427694013146-.913737808405131-1.693978864826931-2.047661306407463-1.70320132172219-3.479315405798843,1.187934252731793-.664880666314275,2.150450039194766.015385509112093,3.060136263470667.602513239140535,1.5479132826149.999070283029141,3.100392741631367,1.993926134802678,4.616813336153427,3.042135100353335.85618250067364.591819345216209,1.772807177211689,1.055083027749788,2.793875508470592,1.291881145141815,1.90774022604819.442408888542559,2.255616262498734.132056670183374,2.000166132117556-1.807471087608064-.057734321286262-.438339801816255-.159509557110141-.871408538807373-.188865546352645-1.313560654582034-.128851638423839-1.940831149329824.399575140866546-2.586565183992207,2.326099476253148-2.64344996611544,1.840018661585418-.054319161747117,3.686685380901508.07481034083321,5.513617457910186-.267238723652554,1.242905016071745.031506416500633,1.862485604263384.81403829752162,2.255542665659959,1.871616475917108.070506916200429.890271010961442.466601793852533,1.671485597213177.795450285215338,2.484742034010196,1.746712410810687,4.31978437349062,2.221968682739316,8.736576143010097.907004054301979,13.271267908956361Z"/>
        <path class="cls-24" d="M74.70084176106775,146.656595457823641c.130444602817988,5.398002096429991,1.984004990402354,10.168048267190898,5.247772871283814,14.424170838681675.873386171948368.527738624874473,1.552222165073545,1.273588208352521,2.250269818431661,2.000216307404116.854500161645774.947514931636761,1.775643776226389,1.819587019625033,2.824181016523653,2.555032508831573,3.261887705954905,2.569297652000387,6.865907981806231,4.404091280812281,10.955209610367092,5.251507282107923.904683539123653.187474623548042,1.910102936541989.248020709048433,2.51678655881733,1.137257125723409,2.850011464171075.369259943716315,5.680488611239525.237633993965574,8.506589869192794-.270115612076552,2.818120855245979-.506312185769275,3.595723100343093.183857774294665,3.512326464498983,3.074443208881348-.086413436718431,2.995440215887356-.200425475398333,5.990113071997257-.302362220452778,8.985115786210372-1.238099760783371-.838208465898788-2.668525160516765.736965858777694-3.89361339997231-.310579474846236-.665824398371115-1.643737633365163-.267848634117399-3.348798163535321-.212672819193358-5.013315327409146.051896450395361-1.565797787941847-.489625080551377-2.063088741615502-2.039171623446236-2.00450174868638-4.195381672710937.158650175799266-8.295493306691242-.13990773459409-12.356417096078076-1.58736268805842-5.093667380353509-1.815557666835957-8.524586833862486-5.624518793832976-12.221940933131009-9.177228786467822-1.109912229185284-1.066479105782491-2.033159101058118-2.327374881188007-3.335166474526886-3.192368485590123-2.382929637997222-2.258489784140693-3.366050894448563-5.268014840139585-4.390154167977016-8.250764023039665-.309245269479106-.90071653819723-.665774565353786-1.787248399074088-.898328952647717-2.714507352260625-.595135147614201-3.397231335260585-1.031290194668145-6.811938716426084-.474319644918069-10.252160278747397.222367051666879-1.373488292332695-.42102283573422-1.58772883817619-1.557114539363283-1.686851215736169-2.15593056567559-.188108925733104-4.393268546824402.405322306382004-6.467490301401085-.631115667805716-.599708163589639-1.239867266973306-1.092624088767479-2.48040049969859-.006505748624477-3.722658105738446,3.512046048004777.037000073525633,7.025826661435531.019717150787983,10.535493778619639.131132334254289,2.142237765147001.068022938912691,2.786322676976852,1.027927277580602,2.305898158163473,3.213971451856196-.584249934414402,2.658484769512143-.936528630862995,5.322901496181657-.499270224166139,8.040681922511794Z"/>
        <path class="cls-30" d="M71.317163474436711,151.770956492871846c1.523690753037954,3.463418528443071,2.278289026694438,7.296973326145235,4.913792976635705,10.225313817047208,1.91901083303128,2.302725171866769,4.01827298533226,4.444329558296886,5.993632608052394,6.694658817556046,1.763054629122053,2.008435924690275,1.704671111172502,2.834834747733112-.215407880364182,4.617717945777258-1.445493778383934,1.342225801954555-2.715800524364568,2.860416202913257-4.233225134307759,4.125892846206625-2.120145114784464-.51630688901605-3.408254096081691-2.203070647414279-4.879570469493046-3.584465503217871-2.360947627554197-2.216657072523958-4.275312095343907-4.848004714946001-6.412018003805315-7.274536555345549-1.089018566944105-1.236731206445256-2.33227773172257-1.987565977291524-4.008032977039875-1.917544060986984-.930305005386799-1.331584479183221-1.503372677917469-2.818900882106391-1.906483111878515-4.380304570469889,4.114236621216151-.821315378552754,5.666804120304732-4.758554964755604,8.566986009100219-7.057030137901165.688260357633226-.545473238717022.952392129719556-1.718464398756623,2.180325983100374-1.449702598665681Z"/>
        <path class="cls-29" d="M52.091735236135719,194.161111742389039c-1.532528107861253,1.284942638078064-3.361633484783852.573236826832726-5.032990767444062.637202685786178-2.591554801142593.099196942404888-2.666545362441866.073640143087687-2.398074182562596,2.491122156334313.127204853179137,1.145500293459918,1.391667431964379,2.598452629456006.003785651519138,3.399219674754931-1.286808850614761.742437692379099-2.90035843667556-.014176140670315-4.156432727435458-.696252326617468-1.789862198842457-.971937497713952-3.444916575475872-2.198126075239998-5.128704176852807-3.357651126800192-1.095386972148845-.754313083019952-2.202211847984472-1.443492441116177-3.560802113413047-1.58982743249544-.789037090265083-3.405040196064874.395576097367666-6.716635527858671,3.110463205316591-8.695362703459978,2.709463042498101-1.974777988631104,6.39354764012478-2.087915679845537,9.291294832947642-.268248239362947.555853499628029.349051726254402,1.075397921323201.755976827875202,1.611695210745893,1.136197429692402,1.139651851568487.356463620777504,1.705887728301605,1.389349224074977,2.520403195930157,2.129990606110368,1.059107117562235,1.186596313360496,2.199936217941286,2.297517017672362,3.26139437531765,3.483401785415481.270381808262755.402727002014217.741321217074074.736009803978959.477967495930898,1.330207490642351Z"/>
        <path class="cls-27" d="M71.317163474436711,151.770956492871846c-2.184166571161768,2.532572493106272-4.95537680552934,4.525071000296521-6.825376684801086,7.339815448716763-1.01541592486592,1.528412579857104-2.464503246357708,1.288757805166824-3.921874653458872,1.166917266640667-.578734380967944-.915381752678513-1.024076115207208-1.874555613831035-.981738199417123-2.99392352401992,1.819935161302965-.666366965155248,2.266480651986967-1.92861939802242,1.969867313867326-3.802588022201235-.635114988715941-4.012504521093433-.964688990857212-8.060757907829611-.732246542527719-12.137949028287039.356049441736104-.962748256284613.029908036874986-2.369560192031713,1.633651899946017-2.517792232903957,2.554773102875515.109927715031517,5.108838356561137.264094533282332,7.6647247145047.304353269482817.826926685896069.013020180507738,1.326552780929887.088640484687858,1.075281221565092,1.055089889756346-1.007167360451604,3.873811405392189-.152835872766445,7.726588270708817.117710930321664,11.586076932815558Z"/>
        <path class="cls-19" d="M61.314717271246082,141.770029482762766c-.098105027664133,4.181076219600072.403104130056818,8.320175875847781.833342987363721,12.466858804238655.299961352542596,2.89103967072333.253061761891331,2.895921534318404-2.559889899379414,3.046862709421475-2.259626605838093-6.619266166317175-2.22454932315577-13.377895066683777-1.201739108087168-20.192051611566058.108864893258215-.725279831920489.286031303492564-1.464425520045552,1.18170904645649-1.657932367799731,1.382407645089188.837869486822456.949727835111844,2.324639733236836,1.274628407139971,3.543772554432508.24477138129896.918521860321562.120509592452436,1.895177531041554.471948566506398,2.792489911273151Z"/>
        <path class="cls-8" d="M62.476334594114633,164.657993799908581c1.316118732125688-1.189947531014695,2.428262970096512-.41824237018227,3.332555069308.511693463122356,1.469826464993275,1.511496542210807,2.824963614476474,3.138177157343307,4.181230302458971,4.755919287559664,2.306690792812333,2.751405532842909,4.866111906108017,5.230946889696497,7.732937518944709,7.392226389907592.802457093358498.034786213607731,1.400135033462902.246939201861096,1.084163254672603,1.251809881412555-.983584315663393.382302246827749-1.69801482247658-.253605911231716-2.445354424911784-.684027055893239-3.142963166036679-1.810050564161429-5.981978130443167-4.043433578002805-8.761270525912551-6.357723596031065-.680186997817145-.566391279335221-1.368522484228379-1.123171949524476-2.170267752721884-1.518327913234316-.402339391118403-.26038740860713-.682989843725409-.60254076903766-.729554007950355-1.099042889398334-.666908790399248-1.45657558824314-1.782689310544811-2.67801481141214-2.22443943388771-4.252527567445213Z"/>
        <path class="cls-4" d="M64.700780332242175,168.9105089359673c.235911544965347.205670955749156.471826100249928.411328727981527.707734067690581.616984995953317.673517914333388.683977835562473,1.497365865016036,1.268344576394156,1.56235704979008,2.35784603679167-1.797952687966244,2.655798196839896-3.916662556855954,4.962462819676148-6.909815101130334,6.316198854934555-1.119319032915882-.570384521663073-2.715543594378687-.801801899535349-1.943842232354655-2.722358130300563,2.194519421600489-2.189553234016785,4.389038843205526-4.379106468037207,6.583566216004328-6.568671757378979Z"/>
        <path class="cls-23" d="M58.117214116237847,175.479180693346279c.03422226566272,1.45879307118048,1.224220559464811,1.860528393419372,2.224897929606414,2.435420253217671.380550932716687.970831367736537-.469127280437533,1.293812379344672-.946929259423086,1.814838380896617-1.185349685659276.973820807583252-1.985109075272703,2.471982163158827-3.694174977214061,2.742419749600231-1.052400068060706-.570667432722985-2.076649104532407-1.167794768043677-2.249703765653067-2.52361622331955,1.327624383366128-1.727661030225136,2.993614215851267-3.101654602949566,4.665910072683801-4.469062160394969Z"/>
        <path class="cls-9" d="M53.451302396592837,179.948242477679742c.747323720989698.790270132194564,1.494652099258019,1.580527456928394,2.24198212448664,2.370785157738283.164229928136592,1.726905739596987-1.514800919662775,2.14666946714533-2.27519451016633,3.220700905225385-.436470071193071.354206246858666-.898800881629541.655457395638223-1.478842066945617.711433402113471-1.331280124267323-.25230067663324-2.149683037862815-1.107598791550117-2.684932643549473-2.294172676374728,1.267015611637362-1.47458277606529,2.643521945538851-2.834392083846978,4.19698709617478-4.00874678870241Z"/>
        <path class="cls-14" d="M49.254315300418057,183.956989266382152c1.191775929494725.353274065368169,1.605107094376763,1.773211986284878,2.836621432631546,2.072031197376418-.739327552410941,1.836095382355779-1.958810709223144,3.15323612596876-3.938814576197728,3.648422206775649-.906082905433323-.694678248653872-1.727449639737642-1.469341937361605-2.320150340934561-2.459930434244598,1.140778511100507-1.086836971528101,2.281561679475999-2.17368675050966,3.422343484500743-3.26052296990747Z"/>
        <path class="cls-17" d="M61.314717271246082,141.770029482762766c-1.106020072887077-1.14314254407509-1.004224210756547-2.653977853744436-1.153621325933273-4.056968050355863-.086148107453482-.809021990940892-.354021780659423-1.531136208579483-.592952353793407-2.279293663214048.908877718779877-.421373811537705,1.844362768581959-.384744511544341,2.790589349014226-.162968947115587-.324979145222642,1.195244861677565.190790486672995,2.366509791756471.100508245037418,3.554854219701156-1.063587025479137.71596681378287-.747411601050771,1.96889424811161-1.144523914324964,2.944376440984342Z"/>
        <path class="cls-1" d="M141.384275436469579,107.322022422657028c3.983250326900816-2.571333513446007,7.967621287489237-5.140926956417388,11.947517435582995-7.717423434372904.303863621293203-.196708283350745.554760083813562-.479179373216539.866234366369099-.659647823053092,4.757389257915747-2.756410225605578,5.402577175318584-2.666555555853847,9.211607959109642,1.39470158023687,1.495095611385295,1.594104302133928,2.938728160867868,3.23652547078018,4.405862882624206,4.857008254346511-7.988401766297102,7.718949431658984-15.975055177947979,15.43971291269736-23.969407148219943,23.152483542884511-.524832288924699.506354732900945-1.108479168702615.951674871113937-1.664763582816704,1.425387819703246-1.143083219771142-2.89804128675496-3.529040810317383-4.782618161481878-5.58555778185837-6.950873239260545-1.073813849251565-1.132168292666393-1.994582190390247-1.143472627763913-3.285077672812804-.36977255333295-5.469590561548102,3.27922383079931-10.266489698153237,7.44701279142464-15.232153867302259,11.391755417796958-7.974844160082284,6.335260884412492-15.556744775369225,13.13884536747355-23.372653385357808,19.66355297172413-.631757287605978.527401405382989-1.224363434842417,1.393661780180992-2.285571721742599.813881186619255-.22171627033822-.990781900332877.543374234096518-1.465253366703109,1.102308445751987-2.005468649458635,10.993552770706629-10.625379298337066,21.961658918104149-21.277645886008031,33.195024356174144-31.651299816647224.64954499461146-.599837754765758,1.398330506273851-1.074814244975641,2.057194304789846-1.662037753996628,4.20314344234157-3.894085199737674,8.406293472528887-7.788168895212948,12.609435409708567-11.682247503189501Z"/>
        <path class="cls-22" d="M92.468090747661336,154.306895846930274c3.28736532424773-1.72992495149083,5.731374211910406-4.515801309997187,8.516676767399986-6.866391043651674,8.523859540885496-7.193463389787212,17.008970886836323-14.428808052018212,25.870464354854448-21.21360647245092,2.235157401491051-1.711340656784159,4.652825084843244-3.101862220955809,6.946650181841505-4.697522759233834,1.038077032920228-.72212465021039,1.758893440443899-.661718193096021,2.619262983566841.359050601364288,1.180343692512906,1.400378248221386,2.52624618772461,2.668905175090913,3.866610207369376,3.924016546574421,1.164864759734883,1.090789448995565,2.0432363050204,2.266577204620262,1.893575683954623,3.962104330657894-8.008902579292226,7.841727938293843-16.009908942479342,15.691736601082084-24.304190196370655,23.234625337427133-1.622745372971622-2.297730941392729-3.714078206331578-4.165863285155865-5.623362148035085-6.203611072083731-1.14541766648108-1.222491741205886-2.010032099768068-1.201603225799772-3.381772901251679-.233432393142721-7.674980908039288,5.416949098082114-14.541864916014674,11.809877876203245-21.758884392826076,17.779150058544474-.780709628187651.64573375915279-1.394555214784305,1.836910978219748-2.766001748790586,1.374768500416394-1.051757783633548-.589371319430938-1.850471828684022-1.454377486916201-2.591896805897704-2.38180158459727,2.929709778617507-2.542754370460898,5.659801152291948-5.299773423419538,8.511957782359787-7.925373949079585.609195953380549-.560808057553004,1.118418760577697-1.439713647132521,2.200910231825219-1.111976100744869Z"/>
        <path class="cls-2" d="M84.347119539374035,165.726047481351998c1.967826708658322-1.028375736801536,3.436370161410196-2.683897352457279,5.107402530333275-4.083343891223194,5.158016266231243-4.319756763528858,10.28748045051907-8.673761008632937,15.461352064840867-12.974348099751296,1.519362006263691-1.262912012645756,3.402148337086146-2.031734384927404,4.826477005324705-3.451531984557732.379286793888241-.378096607390034,1.031432914932338-.530170528396411,1.412372979111751-.10222646863258,2.297838687868534,2.581449330289615,5.603108133394016,4.310228203426959,6.722265613712807,7.894083132221567-6.46042150372341,6.33909706360464-12.920987417188371,12.677703413270137-19.381738924666934,19.01621190093465-5.288923009363316-.812418069925116-10.155810749028205-2.572822395199182-14.148131268656471-6.298844588991415Z"/>
        <path class="cls-21" d="M66.781087484866475,171.653929365402291c-.60651723895171-.612501822961349-1.091180522206741-1.303735804627649-1.372471540587867-2.126439988704078,3.017641714955971,1.28986411904225,5.04354858993247,3.946376121777575,7.776151928802392,5.644207748464396,1.857429306104677,1.154093877516061,3.575913348804534,2.532240377910057,5.649054543458988,3.316217144540133,1.147790833982071-.520510057864158,1.965551151314685.261083973937275,2.820945474425571.762298986483074,6.550213666446325,3.838146523317846,13.584323108724675,5.727997986252376,21.199788280463508,5.44561382557913,1.44104412361412-.053428973931659,2.755879764678866-.264328855604617,3.896704102521653-1.184024956237408.637197969566841.151558946739897,1.144627706215033-.156219737777064,1.640613468596712-.478415663017586,1.00349687383823-.651913654544842,1.453296178102391-.038452702548966,1.819734677861561.780959605550379.020830327296608.660586142246757.055540012556776,1.321220536729015.05981470493316,1.982035064653246.011807903197223,1.826344310713466-.756409401796191,2.723760533712266-2.719811268927515,2.946235094936128-11.357723012868519,1.286967700101741-21.717033794985582-1.319671503293648-31.167458593997253-7.688154650324577-2.792380839016914-.966350604554464-4.57100795932638-3.242333204225361-6.643954133075567-5.139293749820354-1.113716171536907-1.331047269271949-2.653333172265775-2.368351682296634-2.959111644475342-4.261238462102483Z"/>
        <path class="cls-5" d="M69.94544037849937,175.471488298440818c2.14631410799484,1.860990061833945,4.292631226309823,3.721966940149287,6.438827603954451,5.58297173219762-2.443119332972856,2.241882678124966-4.886124229520647,4.483749873907072-7.329132136383123,6.725630253213239-2.368970628878742-1.723048432550058-4.870259869442634-3.328183128493038-5.712544458559023-6.414852280382547,1.305973157868721-2.349401918934745,3.366778081845951-3.996092400064299,5.354856989124528-5.704635949667136.333255497684149-.286406613258805.796555240964153-.358483533284016,1.247992001863167-.189113755361177Z"/>
        <path class="cls-28" d="M63.620132510429357,181.374251525969157c.763347418818739,2.278031450223352,2.8822989966975,3.404107744316207,4.335950638824215,5.095325774982484.371878824642408.43265788964527.969926055629003.672623119480704,1.098991246732112,1.310554435007361-1.045565185960186,1.358975305691274-2.307995366182695,2.493644660466089-3.657372377632782,3.538357132503734-.693626291078544.378144024345602-1.302679855584756.114817661229608-1.789301463187257-.353014988808354-1.668254042096123-1.603772213335105-3.548667063717403-3.013164791040253-4.74496811159861-5.061274778168809.263017653634961-1.77073433418991,1.868816553617762-2.509522069562081,2.858186504258811-3.724379788036458.610495914697822-.317784443814162,1.013433332262139-1.135112203897734,1.898513562603512-.805567787479958Z"/>
        <path class="cls-7" d="M58.987416891096473,185.778958827593669c1.46352962043602,1.43447622117128,2.934169166927859,2.86179564201484,4.387094639358111,4.306930772425403.580377766502352.577265565765629,1.16237201882268,1.12731102984435,2.023187193974991,1.232598516317012-1.399648529896695,1.348366356822225-2.79929705979248,2.696732713648089-4.198942295766756,4.045099822600605-2.132882156714004-.209145282984537-2.872400371382355-2.226178229611833-4.27664163607551-3.370530951870023-.850543188348638-.693148545244185-1.906459095524951-1.450350058616095-1.776401896946481-2.843515361841128.113245383992762-.438261750630772.383977154029708-.777214788497076.688256203952733-1.095039024023208,1.066455105514251-.734689557777529,1.452336225533145-2.420651241467567,3.153447791502913-2.275543773608661Z"/>
        <path class="cls-11" d="M55.495246987659812,189.085873478372378c1.182745602774958,2.746008136917226,3.712993468136119,4.26641538648073,5.703503136764994,6.277726891954444-1.284397464038193,1.230175731465351-2.568807820147413,2.460362390047521-3.853219823223299,3.690548672564546-1.950142163825149-.113779804307342-2.777249739399849-1.477838663584407-3.406117175337386-3.062592029160442-.521413355155346-.705576082651532-1.000989804032542-1.453434686036417-1.847808631768203-1.83018383610397-.242728308009646-.345534179197784-.485579406852594-.690818978479001-.728428858737061-1.03610340170053.670747716086225-2.070068864384666,1.976584140637897-3.489777564740507,4.132071352300954-4.039396297554049Z"/>
        <path class="cls-13" d="M53.939413125864121,195.991557013730926c1.11307261404545,1.045686988751186,2.055034071701812,2.281865871047557,3.406102636300602,3.062602580226667.807351444413143,1.761942404340516,1.992146533287269,3.353583333881033,2.016976814223199,5.442189795132435.035395461654844,2.977646478891984-.929585323371612,5.395519776764559-3.464151774434868,7.080952375625202-.485790290161276-1.171119108870698.107581567667694-2.299406159012506.14150381590207-3.450323927670979.110782608766385-3.758059778921961-.2751234529469-7.407931713431026-2.12160846018287-10.786443192202569-.202591058786311-.37064424617347-.597477787912794-.914071639461326.021176968191867-1.348977631110756Z"/>
        <path class="cls-10" d="M92.468087453737098,154.306895094792708c-3.156180426643914,2.37680152500252-5.743191376408504,5.37443004621673-8.689449599031832,7.980596368410261-.593824157622294.525285346404416-1.055080314270526,1.265989881781934-2.023546703816464,1.056571808236185-.670866355058934-.699323908840597-1.419795289425565-1.336562353035333-1.80645374469168-2.263305645665241.997559582810936.143627383540661,1.60760773337006-.451829770643599,2.29020398665125-1.066189215738632,14.677918585894076-13.2106206760036,29.37250764412056-26.402697001991328,44.076324385311636-39.584461650858429.707576133650946-.634330581182439,1.494633228187922-1.201603758225247,2.459465313530018-1.425953895894054-3.757433593850692,4.235956540745974-8.092090907916827,7.879665856111387-12.141817945900584,11.81540540894639-7.747226865896664,7.529170121750212-15.570639438399667,14.979856630276117-23.354911231057486,22.470932771848311-.309405556206002.297747623357282-.541631533420514.675773211183696-.809814460994858,1.016404050715209Z"/>
        <path class="cls-12" d="M106.75126027395072,183.511802125527538c-.121083992606145,1.379775933690325-.905048314192754,1.715917183179045-2.233154600609851,1.799281706114925-8.77780578599959.550963890615094-16.858924370806562-1.515292251300707-24.295856303257096-6.184595859722322-.427886983533426-.268634464715433-.924220972715375-.428170991141087-1.38856388021668-.638535613481508-.370121177062174-.389950321579818-.740376270481647-.7798757379569-1.110627895706784-1.169952942236705.842573984848968-1.883802686201307,2.434564145792137-3.169094176128056,3.963783274623893-4.356530968238076,1.86146902298151-1.445443498139866,1.354295080901466-2.631571088983037.16152754794166-3.992778185027419-1.59212512718932-1.816937123030584-3.233544202284975-3.591019634633994-4.805665139518169-5.424805675054813-.36951745209717-.431009023832303-.546330108659276-1.027424854255514-.811771018003128-1.547675285495643,2.640313618725486,1.663677999160427,4.552929797819161,4.130339564995666,6.665118321120644,6.328270752204844,5.968582834419976,6.210809238113143,13.319189809269119,8.192154599433707,21.585310796719568,7.531579673963279,1.962174278249222-.156812635992537,2.349484465837122.371970932066688,2.224982613149223,2.245935430259124-.118313227946601,1.780778104763158-.445893611207794,3.614572074460739.04491628375672,5.409806966714314Z"/>
        <path class="cls-26" d="M55.495245340700421,189.085873102303594c-1.564935277941913,1.154383134609816-2.88599788434567,2.558450324195292-4.131751448993782,4.039649665697652-1.071004239769536-1.149656007284648-2.141703115267774-2.299048095375838-3.211883710690927-3.448266356164822,1.313645305403952-1.21595153200542,2.626781645297342-2.432102506232695,3.939618293012245-3.648238686602781.355754687563604-.230196529768364.711804410029799-.460395045933183,1.067852769143428-.690580002510615,1.953634139825226.022446679084169,2.728279560401461,1.231392604850043,2.981141408823532,2.965442374592385-.214993629609125.26065943906724-.429986975608699.521332813788831-.644977311294497.78199300498818Z"/>
        <path class="cls-25" d="M63.620129216508758,181.374250773838867c-.527479840354317.341220578604407-1.05496269102423.682454340729237-1.582445541694142,1.023688102861342-1.100889872681364-.880504757733434-1.999202444589173-1.964165700192098-2.975209589355472-2.969913682482002.393356144257268-.532554478020757,1.140338305976002-.765881765466474,1.279529773526519-1.51350443454794,2.220075445769908-2.010928056477496,4.622728311174797-3.833870181440943,6.438874690808007-6.260708456835346,1.055155304798973,1.273136077439631,2.110104684846192,2.546141908795107,3.164806299835618,3.818411491807638-2.552234107167351,1.491020351977568-4.282086408484247,3.864740764851376-6.32555563312053,5.902026979196307Z"/>
        <path class="cls-20" d="M59.062475732416715,179.428025570286991c1.614245355604908.365530256649436,2.460642906334215,1.501156942484158,2.975172734347325,2.969794299875502-1.016716903530323,1.127135699400242-2.03347724991454,2.25415051193886-3.050229645104992,3.381153269148854-.949073493709875.841693909454989-1.898150281345806,1.683387066777868-2.847209290686806,2.524987187323859-.900862586464427-1.081690966533642-1.522135479281133-2.444703942748674-2.980948888690364-2.965245834833695.497311776854076-1.298570561739325,2.047048960016582-1.712930207608224,2.534033367614938-3.019865011343427,1.123056633314263-.96347940823216,2.246119177917535-1.927151659203446,3.369181722519897-2.890823910171093Z"/>
      </g>
    </g>
  </a>
  <path class="cls-6" d="M187.984999672701633,50.345858832764861c-3.051265103125843,2.016848273497089-5.398366541835458,4.739915244546864-7.680120069304394,7.557384722715142-1.074777934407393,1.32711705692418-2.145331883716608,2.6603860694795-3.307724118973965,3.91275840166054-.599748511885991.646174690240514-1.223622119936408,1.27053408961001-1.882135640618799,1.856999083043775-.32783687625215.291967963359639-.663423974112447.577683175510174-1.011251517184064.845714747443708.281427504653948-.216864529449595.043893277904317-.039838875705755-.110595281327733.070968117124721-.209518922041752.150277546817961-.422688220124655.294697084464133-.637765852279699.436869720222603-1.089391379719018.720119718058413-1.65639568016195,2.242405290926399-.896878842687329,3.420474583050236.70064911042391,1.086760899586807,2.25363215172365,1.66819598206348,3.420474583051146.896878842688238,3.05121647467422-2.0169437617933,5.398274954173758-4.740029848457198,7.680036576644852-7.557512856161338,1.074775104892069-1.32711522768841,2.145335454879387-2.660375772607949,3.307742382992728-3.912730372469014.59975507272884-.646164442034205,1.223637383680398-1.27051104560087,1.882161051428739-1.856960085908213.327840241398007-.291958519273976.663426720592724-.577680956808763,1.011268306468992-.845688981478816-.28144155299924.216847547106227-.043884970398722.039851435931268.110606341835592-.070951142924969.209522900227967-.150271735925344.422696179698505-.29468506457124.637777820317751-.436851353268139,1.089413288324067-.720088630590908,1.656380996212647-2.242428066867433.896878842687329-3.420474583050236-.700666574022762-1.08678798697656-2.25360948618345-1.668162155176105-3.420474583051146-.896878842688238h0Z"/>
  <path class="cls-6" d="M167.282339194537599,71.625429324030847c-.604270858193559.738601455352182-1.271689317770324,1.423283048903613-1.994622343135234,2.046214290825446-.243791067133316.226442929288169-.416097798936789.494632430159982-.516920195409512.804568502615439-.156526428531834.297932929672243-.22829737907341.618999079790228-.215312851623821.963198450352138-.012984527449589.34419937056191.058786423091988.665265520679895.215312851623821.963198450352138.100822396472722.309936072455457.273129128276196.57812557332727.516920195409512.804568502615439l.505969082784759.39090975990257c.389928445963051.226146247659926.810527736023687.339920676702604,1.261797870181908.341323287129853l.664599030524187-.089302416117789c.423512002837015-.118779839511262.791234643651478-.333090049818566,1.103167922442481-.642930630914634.72293298114073-.622931203817643,1.390351447977082-1.307612790293206,1.994622343135234-2.046214290825446.243791067133316-.226442929288169.416097798936789-.494632430159982.516920195409512-.804568502615439.156526428531834-.297932929672243.22829737907341-.618999079790228.215312851623821-.963198450352138.012984527449589-.34419937056191-.058786423091988-.665265520679895-.215312851623821-.963198450352138-.100822396472722-.309936072455457-.273129128276196-.57812557332727-.516920195409512-.804568502615439l-.505969082783849-.39090975990257c-.38992844596396-.226146247659926-.810527736024596-.339920676702604-1.261797870182818-.341323287129853l-.664599030524187.089302416117789c-.423512002837015.118779839511262-.791234643651478.333090049818566-1.103167922442481.642930630914634h0Z"/>
</svg>