<?xml version="1.0" encoding="UTF-8"?>
<svg id="Pattern" xmlns="http://www.w3.org/2000/svg" xmlns:xlink="http://www.w3.org/1999/xlink" viewBox="0 0 280 280">
  <defs>
    <style>
      .cls-1 {
        fill: #737e40;
      }

      .cls-2 {
        stroke: url(#linear-gradient-9);
      }

      .cls-2, .cls-3, .cls-4, .cls-5, .cls-6, .cls-7, .cls-8, .cls-9, .cls-10, .cls-11, .cls-12, .cls-13, .cls-14, .cls-15, .cls-16, .cls-17, .cls-18, .cls-19, .cls-20, .cls-21, .cls-22, .cls-23, .cls-24, .cls-25, .cls-26, .cls-27, .cls-28, .cls-29, .cls-30, .cls-31 {
        fill: none;
        stroke-linecap: round;
        stroke-linejoin: round;
      }

      .cls-2, .cls-3, .cls-4, .cls-6, .cls-7, .cls-8, .cls-9, .cls-10, .cls-11, .cls-12, .cls-13, .cls-14, .cls-15, .cls-16, .cls-17, .cls-18, .cls-19, .cls-20, .cls-21, .cls-22, .cls-23, .cls-24, .cls-25, .cls-26, .cls-28, .cls-29, .cls-30, .cls-31 {
        stroke-width: 40px;
      }

      .cls-3 {
        stroke: url(#linear-gradient-17);
      }

      .cls-32 {
        fill: #808545;
      }

      .cls-33 {
        fill: #78774a;
      }

      .cls-34 {
        fill: #7f8a47;
      }

      .cls-4 {
        stroke: url(#linear-gradient-3);
      }

      .cls-5 {
        stroke: #6c5f5d;
        stroke-width: 15px;
      }

      .cls-6 {
        stroke: url(#linear-gradient-6);
      }

      .cls-7 {
        stroke: url(#linear-gradient-25);
      }

      .cls-35 {
        fill: #465453;
      }

      .cls-8 {
        stroke: url(#linear-gradient-14);
      }

      .cls-36 {
        fill: #626d38;
      }

      .cls-37 {
        fill: #061d0e;
      }

      .cls-9 {
        stroke: url(#linear-gradient-2);
      }

      .cls-10 {
        stroke: url(#linear-gradient-27);
      }

      .cls-38 {
        fill: #051d0e;
      }

      .cls-11 {
        stroke: url(#linear-gradient-15);
      }

      .cls-39 {
        fill: #89964c;
      }

      .cls-40 {
        fill: #fff;
      }

      .cls-41 {
        fill: #222d27;
      }

      .cls-12 {
        stroke: url(#linear-gradient-4);
      }

      .cls-42 {
        fill: #373d31;
      }

      .cls-13 {
        stroke: url(#linear-gradient-23);
      }

      .cls-43 {
        fill: #232e27;
      }

      .cls-44 {
        fill: #8d9a4e;
      }

      .cls-45 {
        fill: #acb055;
      }

      .cls-46 {
        fill: #2c3330;
      }

      .cls-14 {
        stroke: url(#linear-gradient-24);
      }

      .cls-15 {
        stroke: url(#linear-gradient-10);
      }

      .cls-16 {
        stroke: url(#linear-gradient-29);
      }

      .cls-47 {
        fill: #3b4930;
      }

      .cls-48 {
        fill: #4c5e4f;
      }

      .cls-49 {
        fill: #2c3430;
      }

      .cls-17 {
        stroke: url(#linear-gradient-28);
      }

      .cls-18 {
        stroke: url(#linear-gradient-8);
      }

      .cls-50 {
        fill: #bbc059;
      }

      .cls-51 {
        fill: #a8b85d;
      }

      .cls-19 {
        stroke: url(#linear-gradient-11);
      }

      .cls-20 {
        stroke: url(#linear-gradient-7);
      }

      .cls-52 {
        fill: #475034;
      }

      .cls-21 {
        stroke: url(#linear-gradient-18);
      }

      .cls-53 {
        fill: #838a43;
      }

      .cls-54 {
        fill: #94a251;
      }

      .cls-55 {
        fill: #525839;
      }

      .cls-56 {
        fill: #3d4a30;
      }

      .cls-22 {
        stroke: url(#linear-gradient-22);
      }

      .cls-23 {
        stroke: url(#linear-gradient-5);
      }

      .cls-24 {
        stroke: url(#linear-gradient-19);
      }

      .cls-57 {
        fill: #2c332d;
      }

      .cls-58 {
        fill: #7c7d48;
      }

      .cls-59 {
        fill: #18271d;
      }

      .cls-25 {
        stroke: url(#linear-gradient-16);
      }

      .cls-60 {
        fill: #7d8845;
      }

      .cls-26 {
        stroke: url(#linear-gradient-12);
      }

      .cls-27 {
        stroke: url(#linear-gradient);
        stroke-width: 41px;
      }

      .cls-28 {
        stroke: url(#linear-gradient-21);
      }

      .cls-61 {
        fill: #2e3c2a;
      }

      .cls-62 {
        fill: #b6a9a6;
      }

      .cls-63 {
        fill: #cfd472;
      }

      .cls-64 {
        fill: #36462c;
      }

      .cls-65 {
        fill: #444c34;
      }

      .cls-66 {
        fill: #484f38;
      }

      .cls-29 {
        stroke: url(#linear-gradient-13);
      }

      .cls-67 {
        fill: #6b763c;
      }

      .cls-68 {
        fill: #bac35d;
      }

      .cls-69 {
        fill: #19271e;
      }

      .cls-70 {
        fill: #4b6156;
      }

      .cls-71 {
        fill: #cbc1bf;
      }

      .cls-72 {
        fill: #434c34;
      }

      .cls-30 {
        stroke: url(#linear-gradient-20);
      }

      .cls-73 {
        fill: #acb863;
      }

      .cls-31 {
        stroke: url(#linear-gradient-26);
      }
    </style>
    <linearGradient id="linear-gradient" x1="2197.699723916519361" y1="-654.633032776540858" x2="2244.76570845932838" y2="-587.415840766373321" gradientTransform="translate(-2160.251422262574124 698.001036683902385)" gradientUnits="userSpaceOnUse">
      <stop offset=".005347593582888" stop-color="#395230"/>
      <stop offset=".217371864827728" stop-color="#3c5430"/>
      <stop offset=".428043148797019" stop-color="#485a30"/>
      <stop offset=".63825955422458" stop-color="#5c6530"/>
      <stop offset=".846945984996631" stop-color="#787430"/>
      <stop offset="1" stop-color="#928231"/>
    </linearGradient>
    <linearGradient id="linear-gradient-2" x1="2177.918317080813722" y1="-2248.560176992084962" x2="2212.257993190402431" y2="-2199.518037004006146" gradientTransform="translate(-1935.544285535074778 2336.400620043275467) rotate(-.914830503176867)" xlink:href="#linear-gradient"/>
    <linearGradient id="linear-gradient-3" x1="2177.918317080813722" y1="-2248.560176992084962" x2="2212.257993190402431" y2="-2199.518037004006146" gradientTransform="translate(-1935.544285535074778 2336.400620043275467) rotate(-.914830503176867)" xlink:href="#linear-gradient"/>
    <linearGradient id="linear-gradient-4" x1="2177.918317080813722" y1="-2248.560176992084962" x2="2212.257993190402431" y2="-2199.518037004006146" gradientTransform="translate(-1935.544285535074778 2336.400620043275467) rotate(-.914830503176867)" xlink:href="#linear-gradient"/>
    <linearGradient id="linear-gradient-5" x1="2177.918317080813722" y1="-2248.560176992084962" x2="2212.257993190402431" y2="-2199.518037004006146" gradientTransform="translate(-1935.544285535074778 2336.400620043275467) rotate(-.914830503176867)" xlink:href="#linear-gradient"/>
    <linearGradient id="linear-gradient-6" x1="2177.918317080813722" y1="-2248.560176992084962" x2="2212.257993190402431" y2="-2199.518037004006146" gradientTransform="translate(-1935.544285535074778 2336.400620043275467) rotate(-.914830503176867)" xlink:href="#linear-gradient"/>
    <linearGradient id="linear-gradient-7" x1="2177.918317080813722" y1="-2248.560176992084962" x2="2212.257993190402431" y2="-2199.518037004006146" gradientTransform="translate(-1935.544285535074778 2336.400620043275467) rotate(-.914830503176867)" xlink:href="#linear-gradient"/>
    <linearGradient id="linear-gradient-8" x1="2177.918317080813722" y1="-2248.560176992084962" x2="2212.257993190402431" y2="-2199.518037004006146" gradientTransform="translate(-1935.544285535074778 2336.400620043275467) rotate(-.914830503176867)" xlink:href="#linear-gradient"/>
    <linearGradient id="linear-gradient-9" x1="2177.918317080813722" y1="-2248.560176992084962" x2="2212.257993190402431" y2="-2199.518037004006146" gradientTransform="translate(-1935.544285535074778 2336.400620043275467) rotate(-.914830503176867)" xlink:href="#linear-gradient"/>
    <linearGradient id="linear-gradient-10" x1="2177.918317080813722" y1="-2248.560176992084962" x2="2212.257993190402431" y2="-2199.518037004006146" gradientTransform="translate(-1935.544285535074778 2336.400620043275467) rotate(-.914830503176867)" xlink:href="#linear-gradient"/>
    <linearGradient id="linear-gradient-11" x1="2177.918317080813722" y1="-2248.560176992084962" x2="2212.257993190402431" y2="-2199.518037004006146" gradientTransform="translate(-1935.544285535074778 2336.400620043275467) rotate(-.914830503176867)" xlink:href="#linear-gradient"/>
    <linearGradient id="linear-gradient-12" x1="2177.918317080813722" y1="-2248.560176992084962" x2="2212.257993190402431" y2="-2199.518037004006146" gradientTransform="translate(-1935.544285535074778 2336.400620043275467) rotate(-.914830503176867)" xlink:href="#linear-gradient"/>
    <linearGradient id="linear-gradient-13" x1="2177.918317080813722" y1="-2248.560176992084962" x2="2212.257993190402431" y2="-2199.518037004006146" gradientTransform="translate(-1935.544285535074778 2336.400620043275467) rotate(-.914830503176867)" xlink:href="#linear-gradient"/>
    <linearGradient id="linear-gradient-14" x1="2177.918317080813722" y1="-2248.560176992084962" x2="2212.257993190402431" y2="-2199.518037004006146" gradientTransform="translate(-1935.544285535074778 2336.400620043275467) rotate(-.914830503176867)" xlink:href="#linear-gradient"/>
    <linearGradient id="linear-gradient-15" x1="2177.918317080813722" y1="-2248.560176992084962" x2="2212.257993190402431" y2="-2199.518037004006146" gradientTransform="translate(-1935.544285535074778 2336.400620043275467) rotate(-.914830503176867)" xlink:href="#linear-gradient"/>
    <linearGradient id="linear-gradient-16" x1="2177.918317080813722" y1="-2248.560176992084962" x2="2212.257993190402431" y2="-2199.518037004006146" gradientTransform="translate(-1935.544285535074778 2336.400620043275467) rotate(-.914830503176867)" xlink:href="#linear-gradient"/>
    <linearGradient id="linear-gradient-17" x1="2177.918317080813722" y1="-2248.560176992084962" x2="2212.257993190402431" y2="-2199.518037004006146" gradientTransform="translate(-1935.544285535074778 2336.400620043275467) rotate(-.914830503176867)" xlink:href="#linear-gradient"/>
    <linearGradient id="linear-gradient-18" x1="2177.918317080813722" y1="-2248.560176992084962" x2="2212.257993190402431" y2="-2199.518037004006146" gradientTransform="translate(-1935.544285535074778 2336.400620043275467) rotate(-.914830503176867)" xlink:href="#linear-gradient"/>
    <linearGradient id="linear-gradient-19" x1="2177.918317080813722" y1="-2248.560176992084962" x2="2212.257993190402431" y2="-2199.518037004006146" gradientTransform="translate(-1935.544285535074778 2336.400620043275467) rotate(-.914830503176867)" xlink:href="#linear-gradient"/>
    <linearGradient id="linear-gradient-20" x1="2177.918317080813722" y1="-2248.560176992084962" x2="2212.257993190402431" y2="-2199.518037004006146" gradientTransform="translate(-1935.544285535074778 2336.400620043275467) rotate(-.914830503176867)" xlink:href="#linear-gradient"/>
    <linearGradient id="linear-gradient-21" x1="2177.918317080813722" y1="-2248.560176992084962" x2="2212.257993190402431" y2="-2199.518037004006146" gradientTransform="translate(-1935.544285535074778 2336.400620043275467) rotate(-.914830503176867)" xlink:href="#linear-gradient"/>
    <linearGradient id="linear-gradient-22" x1="2177.918317080813722" y1="-2248.560176992084962" x2="2212.257993190402431" y2="-2199.518037004006146" gradientTransform="translate(-1935.544285535074778 2336.400620043275467) rotate(-.914830503176867)" xlink:href="#linear-gradient"/>
    <linearGradient id="linear-gradient-23" x1="2177.918317080813722" y1="-2248.560176992084962" x2="2212.257993190402431" y2="-2199.518037004006146" gradientTransform="translate(-1935.544285535074778 2336.400620043275467) rotate(-.914830503176867)" xlink:href="#linear-gradient"/>
    <linearGradient id="linear-gradient-24" x1="2177.918317080813722" y1="-2248.560176992084962" x2="2212.257993190402431" y2="-2199.518037004006146" gradientTransform="translate(-1935.544285535074778 2336.400620043275467) rotate(-.914830503176867)" xlink:href="#linear-gradient"/>
    <linearGradient id="linear-gradient-25" x1="2177.918317080813722" y1="-2248.560176992084962" x2="2212.257993190402431" y2="-2199.518037004006146" gradientTransform="translate(-1935.544285535074778 2336.400620043275467) rotate(-.914830503176867)" xlink:href="#linear-gradient"/>
    <linearGradient id="linear-gradient-26" x1="2177.918317080813722" y1="-2248.560176992084962" x2="2212.257993190402431" y2="-2199.518037004006146" gradientTransform="translate(-1935.544285535074778 2336.400620043275467) rotate(-.914830503176867)" xlink:href="#linear-gradient"/>
    <linearGradient id="linear-gradient-27" x1="2177.918317080813722" y1="-2248.560176992084962" x2="2212.257993190402431" y2="-2199.518037004006146" gradientTransform="translate(-1935.544285535074778 2336.400620043275467) rotate(-.914830503176867)" xlink:href="#linear-gradient"/>
    <linearGradient id="linear-gradient-28" x1="2177.918317080813722" y1="-2248.560176992084962" x2="2212.257993190402431" y2="-2199.518037004006146" gradientTransform="translate(-1935.544285535074778 2336.400620043275467) rotate(-.914830503176867)" xlink:href="#linear-gradient"/>
    <linearGradient id="linear-gradient-29" x1="2177.918317080813722" y1="-2248.560176992084962" x2="2212.257993190402431" y2="-2199.518037004006146" gradientTransform="translate(-1935.544285535074778 2336.400620043275467) rotate(-.914830503176867)" xlink:href="#linear-gradient"/>
  </defs>
  <a xlink:href="https://www.notion.so/congruence/Weakness-validated-strength-f9493ccf57cd43d6b8559ff45196911e?pvs=4">
    <g>
      <a xlink:href="https://www.notion.so/dmmnotes/vulnerable-affects-b0ccc9a4df614faabc903633e34b163c?pvs=4">
        <g id="white_flag">
          <g>
            <g>
              <path class="cls-27" d="M28.510020743664427,54.832498521474918l14.502719201924265,37.286847655188467c-.156546076761515.542868843607721-.61565465997046.723730200850696-1.075172351922447.858482412417288-1.102900732774287.323420728183919-2.127813706300003.800277180145713-3.063212797009328,1.467938406340181-.355306880086573.253604666986575-.703850282985513.316502152507383-1.066849039609224.012276931778615-4.973708195018844-12.707303431727269-9.896893870120039-25.433492395979556-14.850423125539237-38.146286187329679-.021713481410188-.055824284649134-.044214383924555-.112924963104888-.066170182206406-.170234641307616-.702139288372564-1.832746624178981-.609596067068196-2.143793646555423.969588430620206-3.259238661539712l1.182893783217878-.460086530842091c.35405561886364.150633722842031.608705382928747.410665594132297.743664047462516.767836767146946.3596992822022.951950488537477,1.085250432061002,1.353912452774239,2.033385544673365,1.428697013088822.247866928610165.019550347180484.46736610536027.116621196248161.689576488388411.213766835058777Z"/>
              <path class="cls-27" d="M46.220714699931705,100.367128146472169c3.564417073572258,9.164203936612466,7.128832107568087,18.328402629425909,10.693249181140345,27.492606566034738.404845875829778,1.316219395843291-.003758548198675,2.266445766024844-1.225824225501128,2.85066525961156l-1.182893783216059.460086530842091c-.029477470028723-.005444631206046-.060537490555362-.019800259642579-.088205248646773-.015063902495967-1.990189000143801.340530282102918-2.280730138325453.168416503469416-3.054671834008332-1.812977876708828-3.743822837530388-9.626322003790847-7.488299874956283-19.250880283681909-11.230153316555516-28.87432188080129-.175837138860516-.540370331644226.185545240401552-.703502690943424.565587471821345-.647121535235783,1.586845699042897.235390644200379,3.17205860253307.375662057460431,4.772021846016287.248313338051958.283625170546657-.022572922149266.495293626565399.210657400661148.75088990894983.297813500701523Z"/>
              <path class="cls-27" d="M45.485553818727567,98.477011445058451l.267331229528281.687315164148458c-.137974531158761.417744064472572-.423805000054926.629151652443397-.859316123740427.676292600812303-1.431860969749323.154984845266881-2.824354589918585-.048786332761665-4.152221542279221-.601101039399509-.773232530627865-.321621001145104-1.272718993759554-1.004818868179427-1.738388859794213-1.689578484987578-.119585936041403-.336788021118991-.311445630963135-.649021010936849-.342779111564596-1.015637191045244.355203239203547-2.245327588923828,2.108766031647974-2.879187764356175,3.903662861226621-3.470335617228557.36891889785511-.121503916510846.629091078502825.105442181342369.916727325156899.258180836568499l.334164036914444.859143955189211c-.101652866000222.391313160715072-.439484634194741.466284131845896-.753914372116924.566772584081264-.527037415802624.168433593145892-.982908258542011.4658253216312-1.390445568908035.826181070380699-.761876414657308.673674188632504-.703983807230543,1.493418647940416.17920486791445,2.03189128597478.708066491697537.431703946591369,1.494920821680353.667117649951251,2.336296325474905.599532027581517.459965775835371-.036947518854504.898965191445313.012192640928333,1.299678932187817.271342807924157Z"/>
              <path class="cls-27" d="M45.485553818727567,98.477011445058451c-1.432307154558657.277777752346083-2.837672504243528.265196932345134-4.088557367909743-.636120237988507-.971142575017439-.699743988792761-1.018593523003801-1.659815940107364-.161711354014187-2.482925703434375.717923204556428-.689634681775715,1.568255647664046-1.118057657111422,2.579448537371718-1.176673834519534l.267331229528281.687315164148458c-.101608820523325.386650487394945-.381894918093167.588829139585869-.719171889084464.752894034034398-.390068806833369.189741880600195-.772246682756304.447570761494717-.677525154731484.953155449209589.099995641163332.533730852632289.577240215763595.686394994638249,1.030211084020266.747837932529364.531317498202043.072064497766405,1.091423505717103.000429622852607,1.502643685293151.46720203186851l.267331229526462.687315164152096Z"/>
              <path class="cls-27" d="M39.129691434774941,97.579527556323228c1.531218691461618,1.444975429503756,3.357761281666171,1.97075086820405,5.399213025244535,1.846766886779733.424791307919804-.025795951039981.835000311817566-.087648490785796,1.223980588236373-.261967833896051l.467829651675856,1.202801537265259c-1.705109391539736.319299377164498-3.408497519110824.250444594055807-5.1123373789178-.073247265796454-.323853177142155-.061525219069154-.652907478865018-.093256840304093-.979562830896612-.138738278057644-.105718837246968-.048084721385749-.175852818796557-.128061075507503-.210424481194423-.239938408050875-.23802522877304-.786921675493431-.729024696949637-1.488845327710806-.788698574147929-2.335676638243967Z"/>
              <path class="cls-27" d="M43.48056959726091,93.322147713926825c-1.873427504022402.362556246869644-3.585261142277886.972201814613072-4.445395718887085,2.910709746267457-.057297513667436.129133329855904-.19774080589923.219700571311478-.299509842518091.328206091589891-.453729339647907-.496890095251729-.516113245192173-1.174208341741178-.801912978977271-1.748512987491267-.049318782259434-.103980161627987-.050340594265435-.207906685856869-.003070547765674-.311771547385433,1.528474314349296-1.149124645358825,3.276277635271981-1.827498928751083,5.082059436475902-2.381432840244088l.467829651672218,1.20280153726344Z"/>
              <path class="cls-27" d="M45.218222589201105,97.789696280906355c-.715390002662389-.062742095946305-1.450625884092005.169600413380977-2.147079630034568-.186936741170939-.439697138481279-.225097515645757-.934957001725707-.437355803591345-.948054142389083-1.009431757371203-.013731836521401-.599943823501235.342760085819464-1.029402010679405.869673052093276-1.282086124996567.35279011442617-.169184112157382.725504760570402-.296553350399336,1.089302994832906-.442634824103152.378718561969436.973694734613673.757439163520758,1.947394713028189,1.136157725497469,2.921089447641862Z"/>
              <path class="cls-27" d="M28.510020743664427,54.832498521474918c-1.4380929832314.485602432228916-2.526648774206478-.03073178667546-3.101429309421292-1.472624343699863-.12420251556432-.311573298698931-.2435910857821-.625067042321461-.365196771103001-.937676271594682l.168984826173983-.065726647262636c1.194948129570548-.354782564951165,2.140799258286279-.053156410591328,2.76297879529011,1.101396934256627l.5346624590602,1.374630328300555Z"/>
            </g>
            <g>
              <path class="cls-27" d="M62.643465146624294,41.594910136005637l3.599972767151485-1.400209389095835c.931957202610647-.170268615795067,1.791130462655929-.589901720912167,2.710133956954451-.799885529018866,3.559013526311901-.813202451759935,7.168031397506638-.866524714816478,10.788867741001013-.676910977661464.857373922039187.044897097855937,1.502562033549111.463896749568448,1.881075299350414,1.264914238974598.131134822073363.27750170368563.243869604304564.560671461824313.354561599591761.845154906672178,4.38386196162719,11.266681024513673,8.766191080498174,22.533958248212002,13.14825913011191,33.80133851847495.593520569347675,1.526095344208443.115084742665204,2.295417441406244-1.553514861887379,2.29294486172148-2.822890891015049-.004187261549305-5.629292001302019.091966880232576-8.431063513136905.50452561162092-5.036420008080313.741610229835715-9.492265480095739,2.756930559735338-13.508023957348996,5.846879054282908-3.277895939816517,2.522202189846212-6.387073684929419,5.258811340669126-9.785673220325407,7.627941982984339-2.360062189085511,1.645172839616862-4.977645342007236,2.707014756189892-7.660756129165748,3.693504010450852-2.30776930419961.848487722461869-4.668614909405733,1.23075869951208-7.08914490245661,1.410650157820783-.419803074328229.00274977011577-.833151193834055.103377417577576-1.251861894859758.096704301622594-.283329026418869-.004514749958616-.644136767621603.060039069338018-.620179182620632-.419632631617787.224614140861377-.702446047938793-.069189519330394-1.321174909062393-.31263299440252-1.947188272817584-4.167270521711544-10.716106114847207-8.335467680870352-21.431851814060792-12.503586112847188-32.147627382373685-.420773447605825-1.081762745603555-.805170991961859-2.179587328486377-1.39777351126213-3.18519585935428.091773682554049-.642858257735497.635557335583144-.480838083347408,1.002444796991767-.494862866364201,1.627345219088966-.062207217579271,3.238168860661972-.251559307762363,4.811849953770434-.654488508193026,3.585961991977456-.918157215161045,6.919019342349202-2.407254048506729,9.982532601003186-4.500292005763185,2.327409144356352-1.590121355038718,4.521229969041087-3.351010157428391,6.70211859135452-5.129809838916117,2.841316465601267-2.317465205942426,5.708162954750151-4.59396782506883,9.132393843032332-6.028454383449571Z"/>
              <path class="cls-27" d="M23.956096733563754,61.372522988483979c.1815532959954-.48796466411477.117876462019922-1.08321613692533.627021095862801-1.427861404335999.021115853276569-.022185936242749.038243361526838-.05191221712812.06391691904355-.065481587116665,1.708464620556697-.902993223240628,2.097009496827013-.772857464624394,2.790082250015985,1.006477139162598,4.474944102104928,11.488587265026581,8.942514776219468,22.9800446803456,13.408961975988859,34.471939071003362.143675204688407.369667346913047.305807821974668.736627620832223.305959297598747,1.145148014664301-.691187074982736,1.167642522656024-2.178886782801783,1.380237034023594-3.346251796103388.477671624963477-4.616562908799096-11.869296748720444-9.233126325603735-23.73859480352985-13.849689742406554-35.607892858341074Z"/>
              <path class="cls-27" d="M45.263198660923081,95.851843374693999c-1.406074002561581.281051277041115-2.81214735118192.562102299729304-4.218301522498223.84306747154551-4.613541769796939-11.865602912259419-9.226972851634855-23.731136100772346-13.840501098062305-35.596632624874474q-.732738350558066-1.884524178265565-2.621261803731613-1.153610989378649c.9071852810157-.905758398883336,2.176624399871798-.873390578659382,3.28916701991875-1.207449083547544,1.009189604968924-.303025393677672,2.096693098630567-.345032445778997,3.149664311966262-.502058709160337.429541591112866.318671836557769.69395002589772.737484172495897.88929905745681,1.240997254246395,4.520344246539025,11.651237506010148,9.052199213872882,23.298009570728027,13.585207374873789,34.94433009342174.206826776657181.531383146721055.434237249488433,1.049199664712432-.233273339923471,1.431356587747359Z"/>
            </g>
          </g>
          <g>
            <g>
              <path class="cls-39" d="M28.510020743664427,54.832498521474918l14.502719201924265,37.286847655188467c-.156546076761515.542868843607721-.61565465997046.723730200850696-1.075172351922447.858482412417288-1.102900732774287.323420728183919-2.127813706300003.800277180145713-3.063212797009328,1.467938406340181-.355306880086573.253604666986575-.703850282985513.316502152507383-1.066849039609224.012276931778615-4.973708195018844-12.707303431727269-9.896893870120039-25.433492395979556-14.850423125539237-38.146286187329679-.021713481410188-.055824284649134-.044214383924555-.112924963104888-.066170182206406-.170234641307616-.702139288372564-1.832746624178981-.609596067068196-2.143793646555423.969588430620206-3.259238661539712l1.182893783217878-.460086530842091c.35405561886364.150633722842031.608705382928747.410665594132297.743664047462516.767836767146946.3596992822022.951950488537477,1.085250432061002,1.353912452774239,2.033385544673365,1.428697013088822.247866928610165.019550347180484.46736610536027.116621196248161.689576488388411.213766835058777Z"/>
              <path class="cls-44" d="M46.220714699931705,100.367128146472169c3.564417073572258,9.164203936612466,7.128832107568087,18.328402629425909,10.693249181140345,27.492606566034738.404845875829778,1.316219395843291-.003758548198675,2.266445766024844-1.225824225501128,2.85066525961156l-1.182893783216059.460086530842091c-.029477470028723-.005444631206046-.060537490555362-.019800259642579-.088205248646773-.015063902495967-1.990189000143801.340530282102918-2.280730138325453.168416503469416-3.054671834008332-1.812977876708828-3.743822837530388-9.626322003790847-7.488299874956283-19.250880283681909-11.230153316555516-28.87432188080129-.175837138860516-.540370331644226.185545240401552-.703502690943424.565587471821345-.647121535235783,1.586845699042897.235390644200379,3.17205860253307.375662057460431,4.772021846016287.248313338051958.283625170546657-.022572922149266.495293626565399.210657400661148.75088990894983.297813500701523Z"/>
              <path class="cls-1" d="M45.485553818727567,98.477011445058451l.267331229528281.687315164148458c-.137974531158761.417744064472572-.423805000054926.629151652443397-.859316123740427.676292600812303-1.431860969749323.154984845266881-2.824354589918585-.048786332761665-4.152221542279221-.601101039399509-.773232530627865-.321621001145104-1.272718993759554-1.004818868179427-1.738388859794213-1.689578484987578-.119585936041403-.336788021118991-.311445630963135-.649021010936849-.342779111564596-1.015637191045244.355203239203547-2.245327588923828,2.108766031647974-2.879187764356175,3.903662861226621-3.470335617228557.36891889785511-.121503916510846.629091078502825.105442181342369.916727325156899.258180836568499l.334164036914444.859143955189211c-.101652866000222.391313160715072-.439484634194741.466284131845896-.753914372116924.566772584081264-.527037415802624.168433593145892-.982908258542011.4658253216312-1.390445568908035.826181070380699-.761876414657308.673674188632504-.703983807230543,1.493418647940416.17920486791445,2.03189128597478.708066491697537.431703946591369,1.494920821680353.667117649951251,2.336296325474905.599532027581517.459965775835371-.036947518854504.898965191445313.012192640928333,1.299678932187817.271342807924157Z"/>
              <path class="cls-67" d="M45.485553818727567,98.477011445058451c-1.432307154558657.277777752346083-2.837672504243528.265196932345134-4.088557367909743-.636120237988507-.971142575017439-.699743988792761-1.018593523003801-1.659815940107364-.161711354014187-2.482925703434375.717923204556428-.689634681775715,1.568255647664046-1.118057657111422,2.579448537371718-1.176673834519534l.267331229528281.687315164148458c-.101608820523325.386650487394945-.381894918093167.588829139585869-.719171889084464.752894034034398-.390068806833369.189741880600195-.772246682756304.447570761494717-.677525154731484.953155449209589.099995641163332.533730852632289.577240215763595.686394994638249,1.030211084020266.747837932529364.531317498202043.072064497766405,1.091423505717103.000429622852607,1.502643685293151.46720203186851l.267331229526462.687315164152096Z"/>
              <path class="cls-60" d="M39.129691434774941,97.579527556323228c1.531218691461618,1.444975429503756,3.357761281666171,1.97075086820405,5.399213025244535,1.846766886779733.424791307919804-.025795951039981.835000311817566-.087648490785796,1.223980588236373-.261967833896051l.467829651675856,1.202801537265259c-1.705109391539736.319299377164498-3.408497519110824.250444594055807-5.1123373789178-.073247265796454-.323853177142155-.061525219069154-.652907478865018-.093256840304093-.979562830896612-.138738278057644-.105718837246968-.048084721385749-.175852818796557-.128061075507503-.210424481194423-.239938408050875-.23802522877304-.786921675493431-.729024696949637-1.488845327710806-.788698574147929-2.335676638243967Z"/>
              <path class="cls-34" d="M43.48056959726091,93.322147713926825c-1.873427504022402.362556246869644-3.585261142277886.972201814613072-4.445395718887085,2.910709746267457-.057297513667436.129133329855904-.19774080589923.219700571311478-.299509842518091.328206091589891-.453729339647907-.496890095251729-.516113245192173-1.174208341741178-.801912978977271-1.748512987491267-.049318782259434-.103980161627987-.050340594265435-.207906685856869-.003070547765674-.311771547385433,1.528474314349296-1.149124645358825,3.276277635271981-1.827498928751083,5.082059436475902-2.381432840244088l.467829651672218,1.20280153726344Z"/>
              <path class="cls-36" d="M45.218222589201105,97.789696280906355c-.715390002662389-.062742095946305-1.450625884092005.169600413380977-2.147079630034568-.186936741170939-.439697138481279-.225097515645757-.934957001725707-.437355803591345-.948054142389083-1.009431757371203-.013731836521401-.599943823501235.342760085819464-1.029402010679405.869673052093276-1.282086124996567.35279011442617-.169184112157382.725504760570402-.296553350399336,1.089302994832906-.442634824103152.378718561969436.973694734613673.757439163520758,1.947394713028189,1.136157725497469,2.921089447641862Z"/>
              <path class="cls-73" d="M28.510020743664427,54.832498521474918c-1.4380929832314.485602432228916-2.526648774206478-.03073178667546-3.101429309421292-1.472624343699863-.12420251556432-.311573298698931-.2435910857821-.625067042321461-.365196771103001-.937676271594682l.168984826173983-.065726647262636c1.194948129570548-.354782564951165,2.140799258286279-.053156410591328,2.76297879529011,1.101396934256627l.5346624590602,1.374630328300555Z"/>
            </g>
            <g>
              <path class="cls-68" d="M62.643465146624294,41.594910136005637l3.599972767151485-1.400209389095835c.931957202610647-.170268615795067,1.791130462655929-.589901720912167,2.710133956954451-.799885529018866,3.559013526311901-.813202451759935,7.168031397506638-.866524714816478,10.788867741001013-.676910977661464.857373922039187.044897097855937,1.502562033549111.463896749568448,1.881075299350414,1.264914238974598.131134822073363.27750170368563.243869604304564.560671461824313.354561599591761.845154906672178,4.38386196162719,11.266681024513673,8.766191080498174,22.533958248212002,13.14825913011191,33.80133851847495.593520569347675,1.526095344208443.115084742665204,2.295417441406244-1.553514861887379,2.29294486172148-2.822890891015049-.004187261549305-5.629292001302019.091966880232576-8.431063513136905.50452561162092-5.036420008080313.741610229835715-9.492265480095739,2.756930559735338-13.508023957348996,5.846879054282908-3.277895939816517,2.522202189846212-6.387073684929419,5.258811340669126-9.785673220325407,7.627941982984339-2.360062189085511,1.645172839616862-4.977645342007236,2.707014756189892-7.660756129165748,3.693504010450852-2.30776930419961.848487722461869-4.668614909405733,1.23075869951208-7.08914490245661,1.410650157820783-.419803074328229.00274977011577-.833151193834055.103377417577576-1.251861894859758.096704301622594-.283329026418869-.004514749958616-.644136767621603.060039069338018-.620179182620632-.419632631617787.224614140861377-.702446047938793-.069189519330394-1.321174909062393-.31263299440252-1.947188272817584-4.167270521711544-10.716106114847207-8.335467680870352-21.431851814060792-12.503586112847188-32.147627382373685-.420773447605825-1.081762745603555-.805170991961859-2.179587328486377-1.39777351126213-3.18519585935428.091773682554049-.642858257735497.635557335583144-.480838083347408,1.002444796991767-.494862866364201,1.627345219088966-.062207217579271,3.238168860661972-.251559307762363,4.811849953770434-.654488508193026,3.585961991977456-.918157215161045,6.919019342349202-2.407254048506729,9.982532601003186-4.500292005763185,2.327409144356352-1.590121355038718,4.521229969041087-3.351010157428391,6.70211859135452-5.129809838916117,2.841316465601267-2.317465205942426,5.708162954750151-4.59396782506883,9.132393843032332-6.028454383449571Z"/>
              <path class="cls-54" d="M23.956096733563754,61.372522988483979c.1815532959954-.48796466411477.117876462019922-1.08321613692533.627021095862801-1.427861404335999.021115853276569-.022185936242749.038243361526838-.05191221712812.06391691904355-.065481587116665,1.708464620556697-.902993223240628,2.097009496827013-.772857464624394,2.790082250015985,1.006477139162598,4.474944102104928,11.488587265026581,8.942514776219468,22.9800446803456,13.408961975988859,34.471939071003362.143675204688407.369667346913047.305807821974668.736627620832223.305959297598747,1.145148014664301-.691187074982736,1.167642522656024-2.178886782801783,1.380237034023594-3.346251796103388.477671624963477-4.616562908799096-11.869296748720444-9.233126325603735-23.73859480352985-13.849689742406554-35.607892858341074Z"/>
              <path class="cls-51" d="M45.263198660923081,95.851843374693999c-1.406074002561581.281051277041115-2.81214735118192.562102299729304-4.218301522498223.84306747154551-4.613541769796939-11.865602912259419-9.226972851634855-23.731136100772346-13.840501098062305-35.596632624874474q-.732738350558066-1.884524178265565-2.621261803731613-1.153610989378649c.9071852810157-.905758398883336,2.176624399871798-.873390578659382,3.28916701991875-1.207449083547544,1.009189604968924-.303025393677672,2.096693098630567-.345032445778997,3.149664311966262-.502058709160337.429541591112866.318671836557769.69395002589772.737484172495897.88929905745681,1.240997254246395,4.520344246539025,11.651237506010148,9.052199213872882,23.298009570728027,13.585207374873789,34.94433009342174.206826776657181.531383146721055.434237249488433,1.049199664712432-.233273339923471,1.431356587747359Z"/>
            </g>
          </g>
        </g>
      </a>
      <path class="cls-40" d="M26.77670770340228,56.113215382365524c3.217261400483039,0,3.22259025186213-5,0-5-3.21726140048122,0-3.222590251863949,5,0,5h0Z"/>
      <path class="cls-63" d="M95.126348318362943,74.629301123135519c-4.382089233396982-11.267358398436045-8.76439819335792-22.534634399413335-13.148272705077034-33.80133361816479-.110687255859375-.284490966794692-.223434448242188-.567636108396982-.35455627441479-.84515075683521-.378506469725835-.801013183594478-1.023706054687864-1.220004272461665-1.881079101562136-1.264910888672603-3.62084655761646-.189624023436409-7.22985534667896-.13628540038917-10.78887634277271.676922607422966-.91900634765625.209976196289062-1.778164672852654.629598999023074-2.710134887696768.799859619140989-1.199981689453125.466754150391353-2.39996337890625.933480834959482-3.59997253417896,1.400234985350835-3.424218750000364,1.434484863282705-6.29107360839771,3.710989379884268-9.13238525390625,6.02844543457104-1.270184326171147,1.0360107421875-2.547207641600835,2.062792968750728-3.850982666015625,3.055187988280522-.956085205078125,7.90221862792896,4.199633789063228,16.425302124023801,10.0535888671875,21.253628540038335,3.603790283203125,2.972406005861558,7.407202148437136,5.58349914550854,10.819500732421147,8.801504516603018.662365722657341.624655151366824,1.312344360352654,1.261697387693857,1.95661010742333,1.904315185547603,3.791079711912971-2.730541992188591,7.970416259764534-4.521890258791245,12.651965332030159-5.211227416992188,2.801788330078125-.412564086915154,5.608163452148801-.508694458008904,8.431072998047966-.50451965332104,1.668603515623545.002471923828125,2.14703063964771-.766845703125,1.55352172851417-2.292956542969478Z"/>
    </g>
  </a>
  <a xlink:href="https://www.notion.so/congruence/Weakness-validated-strength-f9493ccf57cd43d6b8559ff45196911e?pvs=4">
    <g>
      <g>
        <polygon class="cls-5" points="116.057550093362806 104.552412920651477 117.334145838043696 122.424753346182115 134.666393850289751 125.020498027033682 136.227762859320137 138.843022620803822 163.942266442845721 107.999221431287879 134.666393850289751 83.829008665332367 134.666393850289751 100.50985972916169 116.057550093362806 104.552412920651477"/>
        <polygon class="cls-62" points="116.057550093362806 104.552412920651477 117.334145838043696 122.424753346182115 134.666393850289751 125.020498027033682 136.227762859320137 138.843022620803822 163.942266442845721 107.999221431287879 134.666393850289751 83.829008665332367 134.666393850289751 100.50985972916169 116.057550093362806 104.552412920651477"/>
      </g>
      <path class="cls-71" d="M144.308622984559406,107.963513757695182c5.059326171875,1.4630126953125,9.7353515625,3.59539794921875,14.260986328125,6.0150146484375l5.372802734375-5.97930908203125-29.27587890625-24.17022705078125v16.68084716796875l-15.9755859375,3.47052001953125c8.657958984375.48193359375,17.273193359375,1.5701904296875,25.61767578125,3.983154296875Z"/>
    </g>
  </a>
  <a xlink:href="https://www.notion.so/congruence/Weakness-validated-strength-f9493ccf57cd43d6b8559ff45196911e?pvs=4">
    <g>
      <a xlink:href="https://www.notion.so/dmmnotes/invulnerable-affects-ca8389f84b7649c4b34eb0026e4ebdbc?pvs=4">
        <g>
          <g>
            <path class="cls-9" d="M207.681830748670109,93.172941168739271c1.691429200280254-3.409157792199039,3.14836511091562-6.924136578412799,4.688924930780558-10.401418201299748,2.614742810410462-5.901876211690251,5.234753868558983-11.801415115496638,7.850175902231058-17.702991836173169,2.869405999552328-6.474678568563832,5.737258476341594-12.95005297728494,8.603592704170296-19.426096748258715,1.687505806094123-3.812657921698701,3.378999018856121-7.623583591721399,5.051792074560581-11.442708104968915.653085748495869-1.491055573249469,1.813041014907867-2.392430499210604,3.272525771670189-2.989482737440994,2.003221439556-.819483139144722,4.111328258417416-1.378663351741125,6.021991174817231-2.427602202416892l.982694242245998-.164814318985009c.205849437563302.188153780658467.610753741761073-.15644190338935.72764595110857.271856523726456-.506731820716595,1.864776548922237-1.428749589027575,3.563385695051693-2.206678469476174,5.312220009825978-2.614693058634657,5.87796115254605-5.208576488816107,11.765355813691713-7.80833877634177,17.649778229049844-1.996326875885643,4.518580565410957-4.049984446546659,9.011792556706496-6.001710565806206,13.549901645277714-1.075954581097903,2.383560154075894-2.036772656014364,4.820267475679429-3.266295837589496,7.134215953356033-.796175972280253.839084050807287-1.152675920731781,1.929276394166664-1.638820318226863,2.937857163571607-3.540282842990564,7.34481259889435-7.0899561914066,14.685110085705674-10.62211497336466,22.033854235705803-.202846790485637.422025961957843-.407926327252426.850658366638527-.968372983819791.88799924986597-1.399426483878415-.337560642085009-2.225851578521542-1.442437653364323-3.16608536734384-2.387131449722801-.55882998323068-.561483567271353-.975175967285395-1.235734505815344-1.362173574620101-1.92456413383843-.158979276235186-.282973045512335-.367998137624454-.561749396954838-.158751884995581-.910873277274732Z"/>
            <path class="cls-4" d="M228.688174542417983,65.37912550233159c.80846333628142-2.310847864377138,1.928167517662587-4.487106514246989,2.912920071679764-6.72132142038754,4.241133886644093-9.622323686584423,8.499633243605786-19.23697938184705,12.754929877690302-28.853045707744968.132754209984341-.299992380734693.299670283764499-.584843048598486.450657806692107-.876754435650582.732328922322267-.133384897899305.879997406513212.472385043532995,1.065110389628899.921639034997497.928719087913123,2.253972573220381,1.91552116962157,4.490846569406131,2.373273857905588,6.907417791560874.019604345308835.103469279547426.074728621482791.178334833399276.144215860498662.248793852064409l.164912331010783.983278632349538c-.186836798382501,2.547903055943607-1.542782214293766,4.677272270524554-2.525059424215215,6.930492947834864-2.194278211636629,5.033403913970687-4.466651710316,10.032715485904191-6.707207661354914,15.045912657733425-.725370115913393.145057496516529-1.192745709173323-.458981572344783-1.813104983317317-.636251904106757-.66289337192211-.189421831590153-1.286665517802248-.522696564008584-1.906646503584852-.829781884502154-.862533953113598-.427217804179236-1.511537241618498-.212064545474277-2.085789578793992.493404128254042-1.358459281560499,1.668863105278433-2.521217610939857,3.47421302674411-3.705899758151645,5.265324558644352-.293507109907296.443743940282729-.431213792917333,1.066830642828791-1.122312285688167,1.120891748952999Z"/>
            <path class="cls-12" d="M210.982996631953938,123.40820436717695c-.34020637692629.822332349074713-1.118285039283364,1.172682126323707-1.777652881803078,1.650992650693297l-1.572310787587412.263702910371649c-2.828593903153887-.944833694387853-5.467999990345561-2.334583387326347-8.197644375672098-3.51158950442732-.527497356426466-.227447713736183-1.055744528153809-.561743658949126-1.304909907879846-1.15586874058863.380360789707993-.48021830736252.897429960712543-.362098830180912,1.376556781146064-.273681017846684.815280891491057.150458973010245,1.631739566309989.298381879289082,2.442336873107706.474683838543569.45766809316774.099538361409941.918456657544084.135227876289719,1.383896708459361.058788548594748.869614034721963-.142825437338615.961181944156124-.331573697698332.522533106333867-1.094829416495486-.09913683452578-.172498064821411-.215695665634485-.335256018948712-.303677669111494-.514203277240085-.386195069831956-.785491946340699-.276971690927894-1.144730352805709.514899474141203-1.498528694131892.756316150693237-.337907202605493,1.546834256649163-.600621372937894,2.248399795656951-1.056009301768427.522566648198335-.199874257161355.914466110243666.019562868887078,1.259241932501027.39226266418882.181894298597399.358356091088353.480576535333967.615541561688588.756768509552785.897582842773772,1.467037284839535,1.498128403703959,2.421650016134663,3.254497653111684,2.651562441154965,5.366696497332669Z"/>
            <path class="cls-23" d="M207.681830748670109,93.172941168739271c.979278000577324,2.223733727123545,2.567931062660136,3.890904783465885,4.655299876645586,5.102581456294502.453845611616998.069926617079545.86411513533676.263946394476079,1.279084763003993.446676084331557.517920001517268.247830131524097,1.050642202157178.452848794637248,1.612960065658626.579187540857674,1.79753250846079.51011788026517,3.611560526996982.655983860906417,5.458315312123887.307848318981996.408560749121534-.077018958480039.837286830348603-.224114440719859,1.242104784756521.041932029469535,1.249154471064685-.33472982155763,2.404349088321396-.874528826821916,3.493270443304937-1.570081502142784,1.085847057958745-.693587050427595,1.527671568021105-.539659902253334,1.988300694980353.677391754819837.477341742234785,1.261198262902326.94306832397524,2.526806521298568,1.413875910637216,3.790482812470145-.65880349885083-.136614607643423-.984076132535847.763926416786489-1.673337513087972.537977939435223-.558717364292534-.569857002275967-.68530009254755-1.347522789939831-.94757298064178-2.049576518973481-.246720886294497-.660415047532297-.55726146570305-.774540769478335-1.191982016162001-.484632982408584-1.718494965602076.784933435357743-3.475695540022571,1.363298993846911-5.413464973675218,1.45689795088947-2.430567841232914.117403647233004-4.510862250363061-.87956791050965-6.658107888615632-1.724258228616236-.644581599080993-.253563280341041-1.244807703877086-.620009482459864-1.934792795924295-.756818081739766-1.378541663660144-.531410066629178-2.303326011067838-1.615193728375743-3.240574500745424-2.680813388335082-.283022298479409-.3217922771546-.583288604368136-.629579786778777-.838948441902176-.97555798855683-.829782176231674-1.311591885583766-1.596408071751284-2.657698280130717-1.95417055606049-4.184602820212604-.142834647651398-.609607656930166-.44725877543533-.588501116297266-.936967496576472-.435065092471632-.929308234726705.291168461881171-1.758565202246245.921482558434946-2.799244225287111.845663153180794-.461999525083229-.413137852126965-.87967735446-.844852705973608-.640620945332557-1.54786805252661,1.46768838184471-.586427910890052,2.926796586185446-1.195739990220318,4.406246862587068-1.750796423842985.903032806110787-.338789356424968,1.335522925401165-.049747329019738,1.510220321331872.942182195700298.212453386897323,1.206301634192641.522445560112828,2.375320987812302,1.170105298981071,3.431249843395562Z"/>
            <path class="cls-6" d="M207.150291853022281,95.88083238334184c1.227492205709495,1.180015008916598,2.198394638304308,2.645833741587921,3.796816924272207,3.412684876839194,1.193087105317318.629313262612413,2.43356642569961,1.16069699349282,3.641121480066431,1.758552613218853,1.077765018979335.533585328565096,1.195083407841594.887451100770704.70166085881101,1.958325880568736-.371460535769074.8061942071472-.639873203241223,1.655586553319154-1.054415585156676,2.442171800679716-.970657990059408.148474438503399-1.795678382854021-.332651000606347-2.644602672793553-.655319301889904-1.362226593753803-.517770478501916-2.609693044601954-1.28461841290482-3.914577669522259-1.928142942560953-.665062196385406-.327984819712583-1.311040163749567-.427359474284458-1.996316155142267-.111066564797511-.615276167196498-.394650003549032-1.108593525659671-.915315542431927-1.543887951394936-1.495932336603801,1.571176666868269-1.046760727955188,1.542509111663094-2.951077732670456,2.355396749358988-4.404438464969644.192910149327872-.344909346829809.101810779231528-.878247757518693.658804021501055-.976835560484687Z"/>
            <path class="cls-20" d="M206.414637777032112,116.813668779010186c-.417491197011259.797273100815801-1.300532256736915.814570333779557-1.985016038526737,1.127589708488813-1.061337030241702.48536374316609-1.096919705270921.487580030268873-.57095071855656,1.447479283791836.249222116784949.454840209191389,1.024337460388779.842729710386266.584064780781773,1.413752753969675-.40821195110766.529432600860673-1.209256553573141.491106192719599-1.848784385654653.422537702645059-.911305381603597-.097708814864745-1.810086190336733-.324311109310656-2.709399328719883-.518251262607009-.585044993124029-.126161314719866-1.16368794963455-.223260754939474-1.754067759982718-.051342399498026-.911802109634664-1.281614123618056-.986363684070966-2.862550526799168-.195784498711873-4.15111334391986.788998985681246-1.285990109765407,2.30254433076334-1.964370223682636,3.820102975403643-1.703771377682642.291101809589236.049988059945463.577012729465423.13027891182719.865318371757894.196587362121136.535288026880153-.04696744683315.947891534275186.285781982242042,1.413724258412913.454384641296201.644025059118576.312249514714495,1.309086545599712.579006854497493,1.953967932495289.890557424281724.181515985721489.121240494090671.434583228319752.179218030054471.426824411300913.471589507113094Z"/>
            <path class="cls-18" d="M207.150291853022281,95.88083238334184c-.474841711435147,1.428071435670063-1.286496867745882,2.73201596717081-1.582262169798923,4.223662464310109-.160601964435045.809967714329105-.804628490173855.958563644973765-1.431913366837762,1.15760115867306-.397668648349281-.281714814274892-.747337366403372-.604509483127913-.921535387687982-1.077528928204629.643079101906551-.589136296383003.61258554377855-1.190874336580237.168043062563811-1.919797448050304-.951850712272062-1.560753614969144-1.782692982716981-3.188739628156327-2.384641261200159-4.925073538219294-.016825621227326-.461608187735692-.393602736396133-.991089380306221.248307541220129-1.327585348397406,1.081867873821466-.392044920645276,2.171022018139411-.765560833728159,3.241414650929073-1.186785499883626.346311961584433-.136284343288935.567162624691264-.190434867918157.628220124131985.254758636308907.24473729154488,1.784465141059627,1.260432197870614,3.241191834669735,2.034366806679827,4.800748503463183Z"/>
            <path class="cls-2" d="M201.274557923312386,93.433504516686298c.675647261388804,1.756540043856148,1.59347361915934,3.392915454716785,2.48306899193085,5.044607690359044.620220662414795,1.151548516581897.601542488901032,1.161616544381104-.543049992036686,1.706449372592033-2.074497521020021-2.367040541139431-3.218059269358491-5.185289336230198-3.960144573118669-8.195900670853007-.078985564607137-.320441049960209-.131927196454853-.658355760155246.207601370748307-.892356325814035.718791334389607.111744990361331.793527672289201.804527958160179,1.137627827374672,1.256129264400442.259246092542526.340249231436246.374900783806879.767925152993485.674896375101525,1.081070669315523Z"/>
            <path class="cls-15" d="M205.679979033557174,102.758038745399972c.343722479226926-.720662157400511.938720405296408-.590135591573926,1.474346278557277-.358152387481823.870598543429878.377058393525658,1.713213248900502.821697548264638,2.554766253797425,1.262423878353729,1.43128493232507.749574575012957,2.921143332228894,1.342719757729355,4.484374205896529,1.750760706083383.339860086758563-.123034481201103.624905936007053-.137176456126326.665625799374538.335091000266402-.3437541931944.327621214568353-.749994908970621.185447085090345-1.134716752912936.134414560863661-1.617944066434575-.214577144030045-3.181958685870995-.657385697755672-4.734987195259237-1.144093373583019-.380079733060484-.11911640004837-.761903147023986-.23283754143813-1.163219932856009-.259873423714453-.212031714969271-.039401344642101-.387440554972272-.133677760384671-.491896215620727-.332291044895101-.527096525713205-.491793816370773-1.200673830711821-.808829781304667-1.65429244097686-1.388279915892781Z"/>
            <path class="cls-19" d="M207.334271967460154,104.146312408352969c.133405565862631.045153093054978.2668101251802.090300184656371.400211685551767.135447779230162.397454362755525.169186499970237.840391104602531.271164704907278,1.054130418793648.7133649491916-.293023756268667,1.413163617278769-.779340726816372,2.736019061114348-1.792803380598343,3.812209118303144-.563485065571513-.045528396407462-1.267323238973404.131708488781442-1.275327567171189-.79966572405101.53792920025262-1.287116581330338,1.075858400508878-2.574233162660676,1.613788843424118-3.861356122673897Z"/>
            <path class="cls-26" d="M205.720483124036036,108.007668531026866c.264218226977391.60113353516499.828212952903414.564376102905953,1.343104082332502.632110395366908.324707157355078.338747848329149.026505473337238.618739616249513-.083023075329038.917412462644279-.32634544260145.608324151020497-.402397444629969,1.368749594461406-1.067190676429163,1.77414275533738-.535688836420377-.057113334645692-1.064198306734397-.130060482002591-1.368538933038508-.664557656346005.256367458860041-.946374160477717.714131786022335-1.803570966287225,1.175648602464207-2.659107957002561Z"/>
            <path class="cls-29" d="M204.544833771835329,110.666776613776165c.446378884471414.200766943795315.892757512134267.401527760390309,1.339136889531801.60228845124584.364257617737167.690416038145486-.262449653433578,1.152796397444035-.394800522490186,1.729997394333623-.120916709136509.222177198636928-.261668341297991.426751487615547-.493429079138878.549438614536484-.597174429938605.123146605186776-1.084272258751298-.092498101505043-1.510318497379558-.494506399641978.274515833538317-.830683422951552.614257868674031-1.632372380918241,1.059411209476821-2.38721806047397Z"/>
            <path class="cls-8" d="M203.485422562358508,113.053994674250134c.556430081856888-.05722657915976.971735767194332.462775462980062,1.535369466422708.376080875161279.007001744859735.890682828423451-.274715262217796,1.647710111181368-1.013731821880356,2.193048079359869-.496057328962706-.133786609081653-.970570892757678-.315371779724956-1.386938282339543-.625986548191577.288433131710917-.647712009214956.576866006613272-1.295430145626597.865300637797191-1.943142406329571Z"/>
            <path class="cls-11" d="M201.274557923312386,93.433504516686298c-.656099119767532-.286129583886577-.872638705057398-.932225721027862-1.175218348691487-1.490403568755937-.174479719164083-.321868433438794-.409682207891819-.57643444067071-.637304354313528-.846796616442589.30597378717539-.331077026388812.701502095724209-.476140250197204,1.133226537336668-.546005533919015.069594415699612.553024878694487.484911777222806.952001267423839.65098016173215,1.461937290461719-.319866303130766.480166929890402.026394391554277.947325176523009.028316003936197,1.421268428655821Z"/>
            <path class="cls-25" d="M228.6881715434738,65.379126005303988c1.216791054450368-1.752490361926903,2.434346578134864-3.504448719173524,3.648857247902924-5.258512598213201.092728524146878-.133919523404984.148721332308924-.294448159840613.247399476151259-.422914516018864,1.507192403301815-1.96215631659652,1.791049945821214-2.035327423727722,4.071908331918166-.998169604186842.895268581130949.407101030243211,1.777403160143876.843125211591541,2.665557540152804,1.26599359283864-2.001223847888468,4.580714310026451-4.00140935739546,9.161883840915834-6.006167859077323,13.741046802548226-.131611734679609.30062729553174-.298154856705878.585936801024218-.448447182048767.878371612770934-.972240033013804-1.009984670172344-2.287967975891661-1.385292228727849-3.515228057656714-1.935090009150372-.640817695810256-.287082094451762-1.025882761025059-.134003108072648-1.430271589233598.409069383105816-1.713947232912687,2.301739597804044-2.995725965132806,4.857935262538376-4.385948314167763,7.350241797383205-2.232691168948804,4.002643912339408-4.221628293420508,8.132820641416401-6.355723476208368,12.187057399027253-.172496237666564.327707376083708-.270635041748392.789703657861537-.811550571526823.730307748683117-.262035420415486-.374267058876285-.024989710762384-.702798455611628.115009358196403-1.023358686517895,2.753609715424318-6.305030000377883,5.49202379414055-12.616887164189393,8.388554191160438-18.858269513802952.16748495212596-.360895943875221.397659679909339-.686843458755902.571183722955539-1.044087534675782,1.081621226419884-2.340562790514014,2.16324545178577-4.681126084004063,3.244867181481823-7.021685873791284Z"/>
            <path class="cls-3" d="M216.385664596438801,93.311607858822754c1.071419737705583-1.283136974763693,1.610974680315849-2.861133643267749,2.367131154893286-4.316493332937171,2.314072827504788-4.453817642664944,4.604845922651293-8.918422029484645,7.12943559750056-13.260052723337139.636784907374022-1.095097991492366,1.40448709364864-2.087979389652901,2.085506311579593-3.144996639250166.308196493531796-.478357793454052.618476503093916-.57674186449367,1.151391497256554-.2994368749969.731104732716631.38042823249998,1.508503793558702.677623544695962,2.281299430453146.970185770971511.671612938664111.254262060772817,1.238582510017295.592984989250908,1.466854515845625,1.324132734252998-1.988714852952398,4.635314961702534-3.972725139294198,9.272722405163222-6.131393920846676,13.832594023209822-1.068956443696152-.678003172150056-2.25927429359399-1.096955066335795-3.402907608682654-1.617679116370709-.686089560156688-.312395298082265-1.042272652757674-.155543519860657-1.447142858070947.482369642999402-2.26528101049189,3.569153612717855-4.027072514169049,7.405933076232031-6.007151667807193,11.126429897860362-.214197292052631.402469429092889-.26549605652508,1.003301872435259-.91534201399736,1.046017066531931-.538626678680885-.06500600745494-1.019195619375751-.288064075761213-1.486622735992569-.546911033525248.783314439217065-1.560064204555601,1.44685212107288-3.175076501900548,2.183700510860945-4.756323162584522.157384001315222-.337741642391848.218660455797362-.790710994484471.72524178700769-.839836252824171Z"/>
            <path class="cls-21" d="M214.963345034562735,99.454678307756694c.642582423539352-.765109337124159.969947528528792-1.705614443846571,1.425448419526219-2.574266213174269,1.405996927562228-2.68130980589558,2.794244808692383-5.371977170478203,4.210123993154411-8.048027522956545.415787999218082-.785850106829457,1.067462479222741-1.428387844367535,1.416823611514701-2.263232511661045.093029133058735-.222318965679733.33832512205845-.397347930454998.570165137633012-.284559961404739,1.398477947484935.680373386210704,3.070030295464676.833320939826081,4.149835810840159,2.13276978310023-1.601888702647557,3.744728974947066-3.203921582240582,7.489278511846351-4.80604845635753,11.233819132117787-2.33991511755994.56826491251195-4.666669808617371.669756727806089-6.966348516310973-.19650270602142Z"/>
            <path class="cls-24" d="M208.669991263430347,104.931357468532951c-.357327539739345-.150926844231435-.677443671371293-.355494687910323-.935466138809716-.649616576978588,1.476659278447187.019604740980867,2.774850230265656.777809579194582,4.202815429793191,1.01601205623956.970634059649456.161925056971086,1.921847172608977.440887129658222,2.918814878292324.41184361919295.388396594527876-.413267317167993.862597125080356-.228180464117031,1.304411320901636-.166207134574506,3.383221230506024.474593865434144,6.633930080402934.055589810246602,9.754304830465117-1.366893639529735.590457012780462-.2691686040489,1.1014150075207-.582233151770197,1.41850843292741-1.160406378188782.291106590020718-.046127052959491.449505144511932-.261145565724291.600671372509169-.480201996546384.305839171998741-.44321763514381.598121373546746-.265036548065837.891009266008041.013124749861163.121865320263169.27129772276021.249514053337407.540237159140815.364529777458301.814466882460692.317875207103498.757911029540992.152004175261027,1.262963824858161-.626836149973315,1.691982725136768-4.505367767042117,2.481759105565288-9.26250795193846,3.172316521158791-14.286093187922233,2.141839477182657-1.327491935884609.07640725728379-2.457583348401386-.565834654185892-3.645190578874463-.999932579967208-.691500750257546-.362997172864198-1.509881385320114-.530786860810622-1.961479252775462-1.266011204288588Z"/>
            <path class="cls-30" d="M210.640841730941247,105.977585329404974c1.211971434377119.406558439812216,2.423941862214633.813110878167208,3.635866833641558,1.219695621413848-.632403448073092,1.35149067974271-1.26476193266717,2.70295530754629-1.897119410712548,4.054425936807093-1.280980256578914-.311007113901724-2.596812074838454-.550276712063351-3.476214255022569-1.690293460364046.140817080880879-1.201367862500774.716133073305173-2.239688174406183,1.250588937245993-3.29128298087744.089587676780866-.176279219072967.270013726809339-.285661080972204.486877894847566-.292545116979454Z"/>
            <path class="cls-28" d="M209.020403185100804,109.517604527338335c.707988754333201.817072551350066,1.782640078796248.922525203090117,2.677305381723272,1.37713669032928.228877431629371.116302106613148.518842841323931.113669410526199.681862121142331.356993448083813-.202181685754113.744631925825161-.533037034139852,1.433092999977816-.915485597874067,2.09902257277281-.223816392250228.276203847479337-.522364651504176.271002114208386-.805013627534208.159726232817775-.968975790199693-.381451415527408-1.992921213191948-.64566673709669-2.841660914476961-1.292879058950348-.193992098025774-.781865995875705.34757576933589-1.364441933954367.551070806741336-2.039477514692408.199569386550138-.236843267597578.227172887520283-.645977293050237.651921830278297-.660522370360923Z"/>
            <path class="cls-22" d="M207.847538824078583,112.144246494986874c.854780265630325.346089577618841,1.711292554700776.687982884297526,2.563486986035059,1.040324715268071.3404129339051.140744435759188.676834049929312.269885697391146,1.053057780507515.166186279759131-.351332270367493.800893234638352-.702664540733167,1.601786469276703-1.05399531162584,2.402679452425218-.923322671493224.278465748669987-1.576671540959069-.434089755857713-2.357066659937118-.669619767668337-.472685349221138-.142667380256171-1.041801553797995-.276794312681886-1.226417803914956-.878771296200284-.027979500682704-.201764635283325.026587963120619-.389194154475263.098734940691429-.573580720069003.317851373978556-.488448861022334.189508887931879-1.256095160693803.92220006824391-1.487218663514795Z"/>
            <path class="cls-13" d="M206.961133366668946,114.118657731618441c.962691019660269.939927757899568,2.276053525918542,1.138980266689032,3.448954419398433,1.634785463764274-.323629892587633.731965197772297-.647263277040111,1.463937151456776-.970897411232727,2.195909230882535-.830943495835527.286832648223935-1.408844435900392-.139013703039382-1.942076626603011-.690660529220622-.337865346360559-.204238048700063-.665568050493675-.433238845751475-1.082485572938822-.444891931965685-.160208926497944-.102181491583906-.320426212070743-.204238175789214-.480642747907041-.30629498574126-.075631183359292-.976286414683273.224441042688341-1.790789284765196,1.027147939283168-2.388847247719241Z"/>
            <path class="cls-14" d="M207.497113748231641,117.258691897044628c.642333689438601.244370202221035,1.246111375423425.597324878202926,1.942072384996209.690667410879541.63786173706103.594789480466716,1.403593411538168,1.054038545327785,1.771828365326655,1.918844275594893.524976797623822,1.23292121355189.537778495759994,2.404347354859055-.228028897216063,3.539971782322027-.40281809163389-.404052966974632-.349261515861144-.975208693202148-.532367639420045-1.459913798824346-.597884160970352-1.582697053436277-1.38389940799243-3.035265116683149-2.731155333585775-4.124636690812622-.147810836493591-.119507598985365-.405243202909332-.277957815131231-.222348880100981-.564932979159494Z"/>
            <path class="cls-7" d="M216.385663096963981,93.311608110307134c-.905985599074484,1.529819865263562-1.468757310120054,3.220430550296442-2.248091230439968,4.809715947678342-.157075024206279.32032667918611-.222074855068058.707571580082003-.660935613570473.786389774562849-.398980759709957-.176026309216468-.819804088245291-.312842321865901-1.139497637348541-.632198717892607.439692438580096-.111178836272302.591493573574553-.463483858984546.770242585946107-.836085875973367,3.843652893079707-8.012090579310097,7.697420057815179-16.01932157882402,11.556793830728566-24.023843185350415.185720789071638-.385192472553172.416004225284269-.756102473515057.779022332862951-1.014787080421229-.837580170828005,2.406437314883078-2.016828143869134,4.665355909730351-3.027475547858558,6.996961503322382-1.933392497719979,4.460420230610907-3.911934493542503,8.901238916470902-5.867269011045209,13.352156408127485-.077720420104015.176911246104282-.109570316188183.374000349434937-.162789709274875.561691225946561Z"/>
            <path class="cls-31" d="M227.333380017000309,103.016089414693852c.186055564956405.594868074651458-.082547700751093.869075044967758-.620881989902045,1.131346704405587-3.557996178253234,1.733416830917122-7.274589937762357,2.258434889652563-11.169197935061675,1.589947806496639-.224075177964551-.038455080904896-.457935875874682-.019785889162449-.687195107084335-.027748046315537-.220827721521346-.098832851606858-.441706897343465-.197632392384548-.662610640405546-.296495685797709.027783561372416-.928225930747431.469956897317388-1.735833592623749.902779823405581-2.491967882084282.526858777617235-.920424102787365.112571185118213-1.327057739774318-.616990696404173-1.689058068637678-.97382675398876-.483193901531195-1.960820961505306-.940109172977827-2.929211280552408-1.433741754306538-.227612324824804-.116020664579992-.403385045534378-.333888281975305-.602983934077201-.504876467748545,1.383711264241356.239806039258838,2.602229686959618.938428354314965,3.857739766704981,1.491034377308097,3.547786006538445,1.561517297897808,6.945866566387849,1.126348528898234,10.272169859477799-.564994805019523.789581344544786-.401486881233723,1.04135177999342-.247831586522807,1.31066923839353.553252020908985.255924118671828.761248647184402.433857814063231,1.580416956676345.945712895505494,2.243301800790505Z"/>
            <path class="cls-10" d="M206.961132616934265,114.118657857361541c-.453348338247451.748501109181234-.762436442624676,1.559104765736265-1.026971411709383,2.388897854605602-.64264531993831-.29484011538807-1.285118353906-.589622742230858-1.927345946638525-.884421852610103.338237256164575-.731058470406424.676228557469585-1.462112711684313,1.014097693154326-2.193109442108835.108581646440143-.156745888829391.217285715312755-.313543161308189.325991540470568-.470334558078321.816745667209034-.325434373942699,1.346237197756636.044860021549539,1.74859839608871.723060713851737-.044791425620133.145300595286244-.089580345218565.290606940539874-.134370271365697.435907284339919Z"/>
            <path class="cls-17" d="M209.020401685629622,109.517604778826353c-.161010724870721.232369330351503-.322020443198198.464744662160228-.483030161523857.697119993968954-.608958907130727-.177726180711034-1.168439026627311-.474698427206022-1.746896392573035-.725937682222138.072415463402649-.288999177571895.343248782466617-.514088421685301.273053317914673-.849022990743833.579172131630912-1.21717064751283,1.266527214662347-2.38740754374885,1.60635581713359-3.708419537484588.657210162153206.348935539919694,1.314312320913814.697852172197599,1.971185222279018,1.046504911508237-.806473275491953,1.057757809259783-1.119497529465662,2.341880341169599-1.62066780323039,3.539755304973369Z"/>
            <path class="cls-16" d="M206.790475881267412,109.488786964833707c.734318107866784-.124521102134167,1.281101437618418.202970025924515,1.746860599974752.725894323069951-.229906020327689.643220974114229-.459850832199663,1.286399092055944-.689794401410836,1.929570831311139-.250673119604471.512858447018516-.5013477386874,1.025717145519593-.752030903055129,1.538534085313586-.560203595494386-.295715577563897-1.052278340075645-.756398530185834-1.748484610236119-.723011924666935-.015593380328937-.625549166092242.558241365899448-1.063525173147355.536917514487868-1.690784970392997.302197657299985-.593346612189634.604364728769724-1.186774478414009.906531800239463-1.780202344634745Z"/>
          </g>
          <g>
            <path class="cls-50" d="M207.681830748670109,93.172941168739271c1.691429200280254-3.409157792199039,3.14836511091562-6.924136578412799,4.688924930780558-10.401418201299748,2.614742810410462-5.901876211690251,5.234753868558983-11.801415115496638,7.850175902231058-17.702991836173169,2.869405999552328-6.474678568563832,5.737258476341594-12.95005297728494,8.603592704170296-19.426096748258715,1.687505806094123-3.812657921698701,3.378999018856121-7.623583591721399,5.051792074560581-11.442708104968915.653085748495869-1.491055573249469,1.813041014907867-2.392430499210604,3.272525771670189-2.989482737440994,2.003221439556-.819483139144722,4.111328258417416-1.378663351741125,6.021991174817231-2.427602202416892l.982694242245998-.164814318985009c.205849437563302.188153780658467.610753741761073-.15644190338935.72764595110857.271856523726456-.506731820716595,1.864776548922237-1.428749589027575,3.563385695051693-2.206678469476174,5.312220009825978-2.614693058634657,5.87796115254605-5.208576488816107,11.765355813691713-7.80833877634177,17.649778229049844-1.996326875885643,4.518580565410957-4.049984446546659,9.011792556706496-6.001710565806206,13.549901645277714-1.075954581097903,2.383560154075894-2.036772656014364,4.820267475679429-3.266295837589496,7.134215953356033-.796175972280253.839084050807287-1.152675920731781,1.929276394166664-1.638820318226863,2.937857163571607-3.540282842990564,7.34481259889435-7.0899561914066,14.685110085705674-10.62211497336466,22.033854235705803-.202846790485637.422025961957843-.407926327252426.850658366638527-.968372983819791.88799924986597-1.399426483878415-.337560642085009-2.225851578521542-1.442437653364323-3.16608536734384-2.387131449722801-.55882998323068-.561483567271353-.975175967285395-1.235734505815344-1.362173574620101-1.92456413383843-.158979276235186-.282973045512335-.367998137624454-.561749396954838-.158751884995581-.910873277274732Z"/>
            <path class="cls-53" d="M228.688174542417983,65.37912550233159c.80846333628142-2.310847864377138,1.928167517662587-4.487106514246989,2.912920071679764-6.72132142038754,4.241133886644093-9.622323686584423,8.499633243605786-19.23697938184705,12.754929877690302-28.853045707744968.132754209984341-.299992380734693.299670283764499-.584843048598486.450657806692107-.876754435650582.732328922322267-.133384897899305.879997406513212.472385043532995,1.065110389628899.921639034997497.928719087913123,2.253972573220381,1.91552116962157,4.490846569406131,2.373273857905588,6.907417791560874.019604345308835.103469279547426.074728621482791.178334833399276.144215860498662.248793852064409l.164912331010783.983278632349538c-.186836798382501,2.547903055943607-1.542782214293766,4.677272270524554-2.525059424215215,6.930492947834864-2.194278211636629,5.033403913970687-4.466651710316,10.032715485904191-6.707207661354914,15.045912657733425-.725370115913393.145057496516529-1.192745709173323-.458981572344783-1.813104983317317-.636251904106757-.66289337192211-.189421831590153-1.286665517802248-.522696564008584-1.906646503584852-.829781884502154-.862533953113598-.427217804179236-1.511537241618498-.212064545474277-2.085789578793992.493404128254042-1.358459281560499,1.668863105278433-2.521217610939857,3.47421302674411-3.705899758151645,5.265324558644352-.293507109907296.443743940282729-.431213792917333,1.066830642828791-1.122312285688167,1.120891748952999Z"/>
            <path class="cls-35" d="M210.982996631953938,123.40820436717695c-.34020637692629.822332349074713-1.118285039283364,1.172682126323707-1.777652881803078,1.650992650693297l-1.572310787587412.263702910371649c-2.828593903153887-.944833694387853-5.467999990345561-2.334583387326347-8.197644375672098-3.51158950442732-.527497356426466-.227447713736183-1.055744528153809-.561743658949126-1.304909907879846-1.15586874058863.380360789707993-.48021830736252.897429960712543-.362098830180912,1.376556781146064-.273681017846684.815280891491057.150458973010245,1.631739566309989.298381879289082,2.442336873107706.474683838543569.45766809316774.099538361409941.918456657544084.135227876289719,1.383896708459361.058788548594748.869614034721963-.142825437338615.961181944156124-.331573697698332.522533106333867-1.094829416495486-.09913683452578-.172498064821411-.215695665634485-.335256018948712-.303677669111494-.514203277240085-.386195069831956-.785491946340699-.276971690927894-1.144730352805709.514899474141203-1.498528694131892.756316150693237-.337907202605493,1.546834256649163-.600621372937894,2.248399795656951-1.056009301768427.522566648198335-.199874257161355.914466110243666.019562868887078,1.259241932501027.39226266418882.181894298597399.358356091088353.480576535333967.615541561688588.756768509552785.897582842773772,1.467037284839535,1.498128403703959,2.421650016134663,3.254497653111684,2.651562441154965,5.366696497332669Z"/>
            <path class="cls-61" d="M207.681830748670109,93.172941168739271c.979278000577324,2.223733727123545,2.567931062660136,3.890904783465885,4.655299876645586,5.102581456294502.453845611616998.069926617079545.86411513533676.263946394476079,1.279084763003993.446676084331557.517920001517268.247830131524097,1.050642202157178.452848794637248,1.612960065658626.579187540857674,1.79753250846079.51011788026517,3.611560526996982.655983860906417,5.458315312123887.307848318981996.408560749121534-.077018958480039.837286830348603-.224114440719859,1.242104784756521.041932029469535,1.249154471064685-.33472982155763,2.404349088321396-.874528826821916,3.493270443304937-1.570081502142784,1.085847057958745-.693587050427595,1.527671568021105-.539659902253334,1.988300694980353.677391754819837.477341742234785,1.261198262902326.94306832397524,2.526806521298568,1.413875910637216,3.790482812470145-.65880349885083-.136614607643423-.984076132535847.763926416786489-1.673337513087972.537977939435223-.558717364292534-.569857002275967-.68530009254755-1.347522789939831-.94757298064178-2.049576518973481-.246720886294497-.660415047532297-.55726146570305-.774540769478335-1.191982016162001-.484632982408584-1.718494965602076.784933435357743-3.475695540022571,1.363298993846911-5.413464973675218,1.45689795088947-2.430567841232914.117403647233004-4.510862250363061-.87956791050965-6.658107888615632-1.724258228616236-.644581599080993-.253563280341041-1.244807703877086-.620009482459864-1.934792795924295-.756818081739766-1.378541663660144-.531410066629178-2.303326011067838-1.615193728375743-3.240574500745424-2.680813388335082-.283022298479409-.3217922771546-.583288604368136-.629579786778777-.838948441902176-.97555798855683-.829782176231674-1.311591885583766-1.596408071751284-2.657698280130717-1.95417055606049-4.184602820212604-.142834647651398-.609607656930166-.44725877543533-.588501116297266-.936967496576472-.435065092471632-.929308234726705.291168461881171-1.758565202246245.921482558434946-2.799244225287111.845663153180794-.461999525083229-.413137852126965-.87967735446-.844852705973608-.640620945332557-1.54786805252661,1.46768838184471-.586427910890052,2.926796586185446-1.195739990220318,4.406246862587068-1.750796423842985.903032806110787-.338789356424968,1.335522925401165-.049747329019738,1.510220321331872.942182195700298.212453386897323,1.206301634192641.522445560112828,2.375320987812302,1.170105298981071,3.431249843395562Z"/>
            <path class="cls-72" d="M207.150291853022281,95.88083238334184c1.227492205709495,1.180015008916598,2.198394638304308,2.645833741587921,3.796816924272207,3.412684876839194,1.193087105317318.629313262612413,2.43356642569961,1.16069699349282,3.641121480066431,1.758552613218853,1.077765018979335.533585328565096,1.195083407841594.887451100770704.70166085881101,1.958325880568736-.371460535769074.8061942071472-.639873203241223,1.655586553319154-1.054415585156676,2.442171800679716-.970657990059408.148474438503399-1.795678382854021-.332651000606347-2.644602672793553-.655319301889904-1.362226593753803-.517770478501916-2.609693044601954-1.28461841290482-3.914577669522259-1.928142942560953-.665062196385406-.327984819712583-1.311040163749567-.427359474284458-1.996316155142267-.111066564797511-.615276167196498-.394650003549032-1.108593525659671-.915315542431927-1.543887951394936-1.495932336603801,1.571176666868269-1.046760727955188,1.542509111663094-2.951077732670456,2.355396749358988-4.404438464969644.192910149327872-.344909346829809.101810779231528-.878247757518693.658804021501055-.976835560484687Z"/>
            <path class="cls-70" d="M206.414637777032112,116.813668779010186c-.417491197011259.797273100815801-1.300532256736915.814570333779557-1.985016038526737,1.127589708488813-1.061337030241702.48536374316609-1.096919705270921.487580030268873-.57095071855656,1.447479283791836.249222116784949.454840209191389,1.024337460388779.842729710386266.584064780781773,1.413752753969675-.40821195110766.529432600860673-1.209256553573141.491106192719599-1.848784385654653.422537702645059-.911305381603597-.097708814864745-1.810086190336733-.324311109310656-2.709399328719883-.518251262607009-.585044993124029-.126161314719866-1.16368794963455-.223260754939474-1.754067759982718-.051342399498026-.911802109634664-1.281614123618056-.986363684070966-2.862550526799168-.195784498711873-4.15111334391986.788998985681246-1.285990109765407,2.30254433076334-1.964370223682636,3.820102975403643-1.703771377682642.291101809589236.049988059945463.577012729465423.13027891182719.865318371757894.196587362121136.535288026880153-.04696744683315.947891534275186.285781982242042,1.413724258412913.454384641296201.644025059118576.312249514714495,1.309086545599712.579006854497493,1.953967932495289.890557424281724.181515985721489.121240494090671.434583228319752.179218030054471.426824411300913.471589507113094Z"/>
            <path class="cls-66" d="M207.150291853022281,95.88083238334184c-.474841711435147,1.428071435670063-1.286496867745882,2.73201596717081-1.582262169798923,4.223662464310109-.160601964435045.809967714329105-.804628490173855.958563644973765-1.431913366837762,1.15760115867306-.397668648349281-.281714814274892-.747337366403372-.604509483127913-.921535387687982-1.077528928204629.643079101906551-.589136296383003.61258554377855-1.190874336580237.168043062563811-1.919797448050304-.951850712272062-1.560753614969144-1.782692982716981-3.188739628156327-2.384641261200159-4.925073538219294-.016825621227326-.461608187735692-.393602736396133-.991089380306221.248307541220129-1.327585348397406,1.081867873821466-.392044920645276,2.171022018139411-.765560833728159,3.241414650929073-1.186785499883626.346311961584433-.136284343288935.567162624691264-.190434867918157.628220124131985.254758636308907.24473729154488,1.784465141059627,1.260432197870614,3.241191834669735,2.034366806679827,4.800748503463183Z"/>
            <path class="cls-55" d="M201.274557923312386,93.433504516686298c.675647261388804,1.756540043856148,1.59347361915934,3.392915454716785,2.48306899193085,5.044607690359044.620220662414795,1.151548516581897.601542488901032,1.161616544381104-.543049992036686,1.706449372592033-2.074497521020021-2.367040541139431-3.218059269358491-5.185289336230198-3.960144573118669-8.195900670853007-.078985564607137-.320441049960209-.131927196454853-.658355760155246.207601370748307-.892356325814035.718791334389607.111744990361331.793527672289201.804527958160179,1.137627827374672,1.256129264400442.259246092542526.340249231436246.374900783806879.767925152993485.674896375101525,1.081070669315523Z"/>
            <path class="cls-42" d="M205.679979033557174,102.758038745399972c.343722479226926-.720662157400511.938720405296408-.590135591573926,1.474346278557277-.358152387481823.870598543429878.377058393525658,1.713213248900502.821697548264638,2.554766253797425,1.262423878353729,1.43128493232507.749574575012957,2.921143332228894,1.342719757729355,4.484374205896529,1.750760706083383.339860086758563-.123034481201103.624905936007053-.137176456126326.665625799374538.335091000266402-.3437541931944.327621214568353-.749994908970621.185447085090345-1.134716752912936.134414560863661-1.617944066434575-.214577144030045-3.181958685870995-.657385697755672-4.734987195259237-1.144093373583019-.380079733060484-.11911640004837-.761903147023986-.23283754143813-1.163219932856009-.259873423714453-.212031714969271-.039401344642101-.387440554972272-.133677760384671-.491896215620727-.332291044895101-.527096525713205-.491793816370773-1.200673830711821-.808829781304667-1.65429244097686-1.388279915892781Z"/>
            <path class="cls-37" d="M207.334271967460154,104.146312408352969c.133405565862631.045153093054978.2668101251802.090300184656371.400211685551767.135447779230162.397454362755525.169186499970237.840391104602531.271164704907278,1.054130418793648.7133649491916-.293023756268667,1.413163617278769-.779340726816372,2.736019061114348-1.792803380598343,3.812209118303144-.563485065571513-.045528396407462-1.267323238973404.131708488781442-1.275327567171189-.79966572405101.53792920025262-1.287116581330338,1.075858400508878-2.574233162660676,1.613788843424118-3.861356122673897Z"/>
            <path class="cls-59" d="M205.720483124036036,108.007668531026866c.264218226977391.60113353516499.828212952903414.564376102905953,1.343104082332502.632110395366908.324707157355078.338747848329149.026505473337238.618739616249513-.083023075329038.917412462644279-.32634544260145.608324151020497-.402397444629969,1.368749594461406-1.067190676429163,1.77414275533738-.535688836420377-.057113334645692-1.064198306734397-.130060482002591-1.368538933038508-.664557656346005.256367458860041-.946374160477717.714131786022335-1.803570966287225,1.175648602464207-2.659107957002561Z"/>
            <path class="cls-43" d="M204.544833771835329,110.666776613776165c.446378884471414.200766943795315.892757512134267.401527760390309,1.339136889531801.60228845124584.364257617737167.690416038145486-.262449653433578,1.152796397444035-.394800522490186,1.729997394333623-.120916709136509.222177198636928-.261668341297991.426751487615547-.493429079138878.549438614536484-.597174429938605.123146605186776-1.084272258751298-.092498101505043-1.510318497379558-.494506399641978.274515833538317-.830683422951552.614257868674031-1.632372380918241,1.059411209476821-2.38721806047397Z"/>
            <path class="cls-49" d="M203.485422562358508,113.053994674250134c.556430081856888-.05722657915976.971735767194332.462775462980062,1.535369466422708.376080875161279.007001744859735.890682828423451-.274715262217796,1.647710111181368-1.013731821880356,2.193048079359869-.496057328962706-.133786609081653-.970570892757678-.315371779724956-1.386938282339543-.625986548191577.288433131710917-.647712009214956.576866006613272-1.295430145626597.865300637797191-1.943142406329571Z"/>
            <path class="cls-52" d="M201.274557923312386,93.433504516686298c-.656099119767532-.286129583886577-.872638705057398-.932225721027862-1.175218348691487-1.490403568755937-.174479719164083-.321868433438794-.409682207891819-.57643444067071-.637304354313528-.846796616442589.30597378717539-.331077026388812.701502095724209-.476140250197204,1.133226537336668-.546005533919015.069594415699612.553024878694487.484911777222806.952001267423839.65098016173215,1.461937290461719-.319866303130766.480166929890402.026394391554277.947325176523009.028316003936197,1.421268428655821Z"/>
            <path class="cls-32" d="M228.6881715434738,65.379126005303988c1.216791054450368-1.752490361926903,2.434346578134864-3.504448719173524,3.648857247902924-5.258512598213201.092728524146878-.133919523404984.148721332308924-.294448159840613.247399476151259-.422914516018864,1.507192403301815-1.96215631659652,1.791049945821214-2.035327423727722,4.071908331918166-.998169604186842.895268581130949.407101030243211,1.777403160143876.843125211591541,2.665557540152804,1.26599359283864-2.001223847888468,4.580714310026451-4.00140935739546,9.161883840915834-6.006167859077323,13.741046802548226-.131611734679609.30062729553174-.298154856705878.585936801024218-.448447182048767.878371612770934-.972240033013804-1.009984670172344-2.287967975891661-1.385292228727849-3.515228057656714-1.935090009150372-.640817695810256-.287082094451762-1.025882761025059-.134003108072648-1.430271589233598.409069383105816-1.713947232912687,2.301739597804044-2.995725965132806,4.857935262538376-4.385948314167763,7.350241797383205-2.232691168948804,4.002643912339408-4.221628293420508,8.132820641416401-6.355723476208368,12.187057399027253-.172496237666564.327707376083708-.270635041748392.789703657861537-.811550571526823.730307748683117-.262035420415486-.374267058876285-.024989710762384-.702798455611628.115009358196403-1.023358686517895,2.753609715424318-6.305030000377883,5.49202379414055-12.616887164189393,8.388554191160438-18.858269513802952.16748495212596-.360895943875221.397659679909339-.686843458755902.571183722955539-1.044087534675782,1.081621226419884-2.340562790514014,2.16324545178577-4.681126084004063,3.244867181481823-7.021685873791284Z"/>
            <path class="cls-58" d="M216.385664596438801,93.311607858822754c1.071419737705583-1.283136974763693,1.610974680315849-2.861133643267749,2.367131154893286-4.316493332937171,2.314072827504788-4.453817642664944,4.604845922651293-8.918422029484645,7.12943559750056-13.260052723337139.636784907374022-1.095097991492366,1.40448709364864-2.087979389652901,2.085506311579593-3.144996639250166.308196493531796-.478357793454052.618476503093916-.57674186449367,1.151391497256554-.2994368749969.731104732716631.38042823249998,1.508503793558702.677623544695962,2.281299430453146.970185770971511.671612938664111.254262060772817,1.238582510017295.592984989250908,1.466854515845625,1.324132734252998-1.988714852952398,4.635314961702534-3.972725139294198,9.272722405163222-6.131393920846676,13.832594023209822-1.068956443696152-.678003172150056-2.25927429359399-1.096955066335795-3.402907608682654-1.617679116370709-.686089560156688-.312395298082265-1.042272652757674-.155543519860657-1.447142858070947.482369642999402-2.26528101049189,3.569153612717855-4.027072514169049,7.405933076232031-6.007151667807193,11.126429897860362-.214197292052631.402469429092889-.26549605652508,1.003301872435259-.91534201399736,1.046017066531931-.538626678680885-.06500600745494-1.019195619375751-.288064075761213-1.486622735992569-.546911033525248.783314439217065-1.560064204555601,1.44685212107288-3.175076501900548,2.183700510860945-4.756323162584522.157384001315222-.337741642391848.218660455797362-.790710994484471.72524178700769-.839836252824171Z"/>
            <path class="cls-33" d="M214.963345034562735,99.454678307756694c.642582423539352-.765109337124159.969947528528792-1.705614443846571,1.425448419526219-2.574266213174269,1.405996927562228-2.68130980589558,2.794244808692383-5.371977170478203,4.210123993154411-8.048027522956545.415787999218082-.785850106829457,1.067462479222741-1.428387844367535,1.416823611514701-2.263232511661045.093029133058735-.222318965679733.33832512205845-.397347930454998.570165137633012-.284559961404739,1.398477947484935.680373386210704,3.070030295464676.833320939826081,4.149835810840159,2.13276978310023-1.601888702647557,3.744728974947066-3.203921582240582,7.489278511846351-4.80604845635753,11.233819132117787-2.33991511755994.56826491251195-4.666669808617371.669756727806089-6.966348516310973-.19650270602142Z"/>
            <path class="cls-57" d="M208.669991263430347,104.931357468532951c-.357327539739345-.150926844231435-.677443671371293-.355494687910323-.935466138809716-.649616576978588,1.476659278447187.019604740980867,2.774850230265656.777809579194582,4.202815429793191,1.01601205623956.970634059649456.161925056971086,1.921847172608977.440887129658222,2.918814878292324.41184361919295.388396594527876-.413267317167993.862597125080356-.228180464117031,1.304411320901636-.166207134574506,3.383221230506024.474593865434144,6.633930080402934.055589810246602,9.754304830465117-1.366893639529735.590457012780462-.2691686040489,1.1014150075207-.582233151770197,1.41850843292741-1.160406378188782.291106590020718-.046127052959491.449505144511932-.261145565724291.600671372509169-.480201996546384.305839171998741-.44321763514381.598121373546746-.265036548065837.891009266008041.013124749861163.121865320263169.27129772276021.249514053337407.540237159140815.364529777458301.814466882460692.317875207103498.757911029540992.152004175261027,1.262963824858161-.626836149973315,1.691982725136768-4.505367767042117,2.481759105565288-9.26250795193846,3.172316521158791-14.286093187922233,2.141839477182657-1.327491935884609.07640725728379-2.457583348401386-.565834654185892-3.645190578874463-.999932579967208-.691500750257546-.362997172864198-1.509881385320114-.530786860810622-1.961479252775462-1.266011204288588Z"/>
            <path class="cls-38" d="M210.640841730941247,105.977585329404974c1.211971434377119.406558439812216,2.423941862214633.813110878167208,3.635866833641558,1.219695621413848-.632403448073092,1.35149067974271-1.26476193266717,2.70295530754629-1.897119410712548,4.054425936807093-1.280980256578914-.311007113901724-2.596812074838454-.550276712063351-3.476214255022569-1.690293460364046.140817080880879-1.201367862500774.716133073305173-2.239688174406183,1.250588937245993-3.29128298087744.089587676780866-.176279219072967.270013726809339-.285661080972204.486877894847566-.292545116979454Z"/>
            <path class="cls-69" d="M209.020403185100804,109.517604527338335c.707988754333201.817072551350066,1.782640078796248.922525203090117,2.677305381723272,1.37713669032928.228877431629371.116302106613148.518842841323931.113669410526199.681862121142331.356993448083813-.202181685754113.744631925825161-.533037034139852,1.433092999977816-.915485597874067,2.09902257277281-.223816392250228.276203847479337-.522364651504176.271002114208386-.805013627534208.159726232817775-.968975790199693-.381451415527408-1.992921213191948-.64566673709669-2.841660914476961-1.292879058950348-.193992098025774-.781865995875705.34757576933589-1.364441933954367.551070806741336-2.039477514692408.199569386550138-.236843267597578.227172887520283-.645977293050237.651921830278297-.660522370360923Z"/>
            <path class="cls-41" d="M207.847538824078583,112.144246494986874c.854780265630325.346089577618841,1.711292554700776.687982884297526,2.563486986035059,1.040324715268071.3404129339051.140744435759188.676834049929312.269885697391146,1.053057780507515.166186279759131-.351332270367493.800893234638352-.702664540733167,1.601786469276703-1.05399531162584,2.402679452425218-.923322671493224.278465748669987-1.576671540959069-.434089755857713-2.357066659937118-.669619767668337-.472685349221138-.142667380256171-1.041801553797995-.276794312681886-1.226417803914956-.878771296200284-.027979500682704-.201764635283325.026587963120619-.389194154475263.098734940691429-.573580720069003.317851373978556-.488448861022334.189508887931879-1.256095160693803.92220006824391-1.487218663514795Z"/>
            <path class="cls-46" d="M206.961133366668946,114.118657731618441c.962691019660269.939927757899568,2.276053525918542,1.138980266689032,3.448954419398433,1.634785463764274-.323629892587633.731965197772297-.647263277040111,1.463937151456776-.970897411232727,2.195909230882535-.830943495835527.286832648223935-1.408844435900392-.139013703039382-1.942076626603011-.690660529220622-.337865346360559-.204238048700063-.665568050493675-.433238845751475-1.082485572938822-.444891931965685-.160208926497944-.102181491583906-.320426212070743-.204238175789214-.480642747907041-.30629498574126-.075631183359292-.976286414683273.224441042688341-1.790789284765196,1.027147939283168-2.388847247719241Z"/>
            <path class="cls-48" d="M207.497113748231641,117.258691897044628c.642333689438601.244370202221035,1.246111375423425.597324878202926,1.942072384996209.690667410879541.63786173706103.594789480466716,1.403593411538168,1.054038545327785,1.771828365326655,1.918844275594893.524976797623822,1.23292121355189.537778495759994,2.404347354859055-.228028897216063,3.539971782322027-.40281809163389-.404052966974632-.349261515861144-.975208693202148-.532367639420045-1.459913798824346-.597884160970352-1.582697053436277-1.38389940799243-3.035265116683149-2.731155333585775-4.124636690812622-.147810836493591-.119507598985365-.405243202909332-.277957815131231-.222348880100981-.564932979159494Z"/>
            <path class="cls-45" d="M216.385663096963981,93.311608110307134c-.905985599074484,1.529819865263562-1.468757310120054,3.220430550296442-2.248091230439968,4.809715947678342-.157075024206279.32032667918611-.222074855068058.707571580082003-.660935613570473.786389774562849-.398980759709957-.176026309216468-.819804088245291-.312842321865901-1.139497637348541-.632198717892607.439692438580096-.111178836272302.591493573574553-.463483858984546.770242585946107-.836085875973367,3.843652893079707-8.012090579310097,7.697420057815179-16.01932157882402,11.556793830728566-24.023843185350415.185720789071638-.385192472553172.416004225284269-.756102473515057.779022332862951-1.014787080421229-.837580170828005,2.406437314883078-2.016828143869134,4.665355909730351-3.027475547858558,6.996961503322382-1.933392497719979,4.460420230610907-3.911934493542503,8.901238916470902-5.867269011045209,13.352156408127485-.077720420104015.176911246104282-.109570316188183.374000349434937-.162789709274875.561691225946561Z"/>
            <path class="cls-47" d="M227.333380017000309,103.016089414693852c.186055564956405.594868074651458-.082547700751093.869075044967758-.620881989902045,1.131346704405587-3.557996178253234,1.733416830917122-7.274589937762357,2.258434889652563-11.169197935061675,1.589947806496639-.224075177964551-.038455080904896-.457935875874682-.019785889162449-.687195107084335-.027748046315537-.220827721521346-.098832851606858-.441706897343465-.197632392384548-.662610640405546-.296495685797709.027783561372416-.928225930747431.469956897317388-1.735833592623749.902779823405581-2.491967882084282.526858777617235-.920424102787365.112571185118213-1.327057739774318-.616990696404173-1.689058068637678-.97382675398876-.483193901531195-1.960820961505306-.940109172977827-2.929211280552408-1.433741754306538-.227612324824804-.116020664579992-.403385045534378-.333888281975305-.602983934077201-.504876467748545,1.383711264241356.239806039258838,2.602229686959618.938428354314965,3.857739766704981,1.491034377308097,3.547786006538445,1.561517297897808,6.945866566387849,1.126348528898234,10.272169859477799-.564994805019523.789581344544786-.401486881233723,1.04135177999342-.247831586522807,1.31066923839353.553252020908985.255924118671828.761248647184402.433857814063231,1.580416956676345.945712895505494,2.243301800790505Z"/>
            <path class="cls-65" d="M206.961132616934265,114.118657857361541c-.453348338247451.748501109181234-.762436442624676,1.559104765736265-1.026971411709383,2.388897854605602-.64264531993831-.29484011538807-1.285118353906-.589622742230858-1.927345946638525-.884421852610103.338237256164575-.731058470406424.676228557469585-1.462112711684313,1.014097693154326-2.193109442108835.108581646440143-.156745888829391.217285715312755-.313543161308189.325991540470568-.470334558078321.816745667209034-.325434373942699,1.346237197756636.044860021549539,1.74859839608871.723060713851737-.044791425620133.145300595286244-.089580345218565.290606940539874-.134370271365697.435907284339919Z"/>
            <path class="cls-64" d="M209.020401685629622,109.517604778826353c-.161010724870721.232369330351503-.322020443198198.464744662160228-.483030161523857.697119993968954-.608958907130727-.177726180711034-1.168439026627311-.474698427206022-1.746896392573035-.725937682222138.072415463402649-.288999177571895.343248782466617-.514088421685301.273053317914673-.849022990743833.579172131630912-1.21717064751283,1.266527214662347-2.38740754374885,1.60635581713359-3.708419537484588.657210162153206.348935539919694,1.314312320913814.697852172197599,1.971185222279018,1.046504911508237-.806473275491953,1.057757809259783-1.119497529465662,2.341880341169599-1.62066780323039,3.539755304973369Z"/>
            <path class="cls-56" d="M206.790475881267412,109.488786964833707c.734318107866784-.124521102134167,1.281101437618418.202970025924515,1.746860599974752.725894323069951-.229906020327689.643220974114229-.459850832199663,1.286399092055944-.689794401410836,1.929570831311139-.250673119604471.512858447018516-.5013477386874,1.025717145519593-.752030903055129,1.538534085313586-.560203595494386-.295715577563897-1.052278340075645-.756398530185834-1.748484610236119-.723011924666935-.015593380328937-.625549166092242.558241365899448-1.063525173147355.536917514487868-1.690784970392997.302197657299985-.593346612189634.604364728769724-1.186774478414009.906531800239463-1.780202344634745Z"/>
          </g>
        </g>
      </a>
      <path class="cls-40" d="M237.051382032905167,33.106283128436189c-.968259501132707,1.434969664491291-1.50653976421745,3.126092828000765-1.998110157746851,4.771633727174049-.21819355358457.730406918486551-.432701167894265,1.4627502125295-.697085097717718,2.178142511183978-.039744738327499.107544659505947-.081754467550127.214130645937985-.12253588664862.321280491212747-.123015339702761.323212749992308.085081200792047-.151179931892329.094882840494392-.216878440251094-.023658304420678.158577070553292-.158393639445421.35315636674386-.229327154287603.496857894424465-.182197611320589.369107256923598-.389296193639893.723342484274326-.619457542023156,1.064465096394997-.733283536330418,1.086801051067596-.244152322597074,2.817615786145325.896878842686419,3.420474583052055,1.26288674278112.667240655247952,2.637900137207907.262976367668671,3.420474583050236-.896878842688238.96822086355678-1.435002151341905,1.506482539178251-3.126125085531385,1.998053483264812-4.771672719598428.218192567261212-.730405788113785.432704065706275-1.462746764145777.697096849697118-2.178134425743337.039746005977577-.107543790887576.081756221858086-.214129106327164.122539983894967-.321277672279393.123029726466484-.323228120745625-.085111113190578.15120713464421-.094877099443693.216882390133833.023571922467454-.158518759944855.158430065735956-.353213460362895.229336182950647-.496851682644774.182205267065001-.369102718912472.38931275019786-.723331814839185.619483597565704-1.064447170007043.73331566109664-1.08678068941299.244128758018633-2.817628236387463-.896878842686419-3.420474583052055-1.262915681072627-.667255944666977-2.637865862328908-.262954623536643-3.420474583050236.896878842688238h0Z"/>
      <path class="cls-40" d="M231.975076749298751,45.856069520817982c-.075431815434058.247886127230231-.163567847705053.491513588025555-.264148987222143.730303693535461l.252020871013883-.597198839657722c-.066561805113452.156693876901045-.138285803084727.311018393567792-.215166384739859.462915814929147-.182692942957146.286959739272788-.281583635980496.596792524245757-.296672079071868.929498354920725-.074418680098461.332299515261184-.059534944077313.664599030524187.044651208059804.99689854578719.07734736279599.325331931799155.226505946451653.608726392150857.447475750963349.850183381049646.176278326138345.272161095204865.410086313717329.486792528970909.701423962735134.643894301294495l.597198839659541.252020871013883c.44306602035067.119069888154627.886132040697703.119069888154627,1.329198061048373,0l.597198839657722-.252020871013883c.375665829482386-.222253398975226.674625443713012-.521213013204033.896878842688238-.896878842688238.192613588282256-.380557830721955.354547148646816-.778230675139639.513804953483486-1.172958787416064.081694704764232-.202484246396125.153970567327633-.4085845499485.217531289488761-.617459560706266.104186152137117-.332299515263003.119069888156446-.664599030526006.044651208057985-.99689854578719-.015088443087734-.332705830674968-.113979136112903-.642538615647936-.296672079071868-.929498354920725-.157101772321766-.291337649017805-.371733206087811-.52514563659679-.643894301294495-.701423962735134-.24145698889879-.220969804511697-.524851449248672-.370128388167359-.850183381049646-.447475750963349l-.664599030524187-.089302416119608c-.451270134159131.001402610427249-.871869424219767.115177039471746-1.261797870181908.341323287131672l-.505969082783849.39090975990257c-.309840581099706.311933278790093-.524150791403372.679655919604556-.642930630916453,1.10316792244339h0Z"/>
    </g>
  </a>
</svg>