<?xml version="1.0" encoding="UTF-8"?>
<svg xmlns="http://www.w3.org/2000/svg" width="280" height="280" xmlns:xlink="http://www.w3.org/1999/xlink" viewBox="0 0 280 280">
  <defs>
    <linearGradient id="linear-gradient" x1="62.463141272944085" y1="132.030477988861094" x2="205.817197272349404" y2="132.030477988861094" gradientUnits="userSpaceOnUse">
      <stop offset=".005347593582888" stop-color="#381847"/>
      <stop offset=".288669020858988" stop-color="#431d57"/>
      <stop offset="1" stop-color="#5e2b7d"/>
    </linearGradient>
  </defs>
  <g id="Layer_8" data-name="Layer 8">
    <rect x="-2768.910876699139408" y="-1406.198710516209758" width="6875.234042553200197" height="4669.27659574468089" fill="#181818" stroke="#181818" stroke-miterlimit="10"/>
  </g>
  <g id="Pattern">
    <path d="M89.425529479980469,116.016448974609375c.001726429747578.100092776344354,106.184956149033496-.191735404075189,105.87234060022729.099744401016324-.000003258918696.000261702499301-13.234042565559321.416216292343051-13.234042565559321.416216292343051-30.531794209014151.505207539809817-62.406298733834774.814411237151944-92.638298034667969-.515960693359375h0Z" fill="#cf9cc7" stroke-width="0"/>
    <g>
      <g>
        <g>
          <path d="M161.741527668343224,153.773423258840921c-26.704418628153689,2.050867518900304-53.409008055667982,4.099548156679703-80.11291654276647,6.15709868893282-1.975997925022966.152234084039264-3.947124230938243.36771050526022-5.920520830631176.553783583710356-7.979891309567392-2.194935047557919-11.136051190005674-5.865411313956429-11.78436208264975-13.838887446434455-.511272748008196-6.28806514756252-.990951745297934-12.579343539549882-1.406334342236732-18.874351092049437-.616864664394598-9.348421275588407,4.041796367518145-14.908816778854998,13.203699983259867-15.588901274459204,16.620801536478211-1.233776767219751,33.249714146569204-2.358208020470556,49.875243865602897-3.528273490076572,1.38800462735162,1.109508317563268,1.734709160658895,2.797632735433581,2.310912447714145,4.332038941106475,5.820063357248728,15.498471064950536,16.197655470765312,27.198052897575508,29.712744969705454,36.346909382169542,1.654554950099737,1.1200744700418,4.151500794858293,1.656702933891211,4.121532532001766,4.440582707100475Z" fill="none" stroke="url(#linear-gradient)" stroke-linecap="round" stroke-linejoin="round" stroke-width="41"/>
          <path d="M203.707176654619616,112.564116136103621c.703143868210645,9.426851254446774,1.406270367238903,18.853673254765454,2.110020617729788,28.281120813175221-.100913942869738,1.76802775955457-.360105047113393,3.468986605323153-1.923010162695391,4.619725853175623-25.484910938361281.908403314213501-45.568440769021436-8.374640936291144-58.355387172656265-31.372010208960091-1.17694707640112-2.116711185021813-2.886329607507832-4.221732102054375-1.117984519398306-6.855504955456126,15.573300039472088-1.222446242163642,31.14031083628015-2.535066116751295,46.72304737122613-3.622420133785454,6.119250248110802-.426983117481541,10.209698648871381,2.718749975859282,12.563313865794044,8.949088631850827Z" fill="none" stroke="url(#linear-gradient)" stroke-linecap="round" stroke-linejoin="round" stroke-width="41"/>
          <path d="M144.420817684937902,107.237478019213086c1.841901231910015,8.826786563457972,7.423987899330314,15.437518976786123,13.575915644990346,21.316263170489947,11.323129518892529,10.820317332585546,25.173095793292305,15.754563132296425,40.774431857013951,15.584165658027814,1.884438601493457-.020572155352966,3.584229964807491.218077671684114,5.123074030255339,1.32714371710972-2.138841302090441,2.9229647514303-4.690845952285599,5.278831612359681-8.333116076040824,6.138412195056844-11.272946266794861.723647580604847-22.545888019541962,1.447050421235872-33.819220173472786,2.17020744392812-9.869963412731522-6.886064643348618-19.548379999159806-13.960164426273877-26.451400451915106-24.159625346190296-4.379259259580977-6.470515807308402-8.084314923555212-13.215220490805223-9.694000943924038-20.960195407859828,6.274660285442224-.472095103220454,12.549491974727971-.944233548653756,18.824316113093118-1.416371430562322Z" fill="none" stroke="url(#linear-gradient)" stroke-linecap="round" stroke-linejoin="round" stroke-width="41"/>
          <path d="M138.222991943359375,155.579330444335938s-29.890472330684133,2.293640971184686-56.594380817782621,4.351191503437803c-1.975997925022966.152234084039264-3.947124230938243.36771050526022-5.920520830631176.553783583710356-7.979891309567392-2.194935047557919-11.136051190005674-5.865411313956429-11.78436208264975-13.838887446434455-.511272748008196-6.28806514756252-.990951745297934-12.579343539549882-1.406334342236732-18.874351092049437-.616864664394598-9.348421275588407,4.041796367518145-14.908816778854998,13.203699983259867-15.588901274459204l15.534216205274788-1.125815010533188c17.853057861328125,28.205917358398438,33.339752197265625,42.017532348632812,46.967681884765625,44.522979736328125Z" fill="none" stroke="url(#linear-gradient)" stroke-linecap="round" stroke-linejoin="round" stroke-width="41"/>
        </g>
        <g>
          <path d="M161.741527668343224,153.773423258840921c-26.704418628153689,2.050867518900304-53.409008055667982,4.099548156679703-80.11291654276647,6.15709868893282-1.975997925022966.152234084039264-3.947124230938243.36771050526022-5.920520830631176.553783583710356-7.979891309567392-2.194935047557919-11.136051190005674-5.865411313956429-11.78436208264975-13.838887446434455-.511272748008196-6.28806514756252-.990951745297934-12.579343539549882-1.406334342236732-18.874351092049437-.616864664394598-9.348421275588407,4.041796367518145-14.908816778854998,13.203699983259867-15.588901274459204,16.620801536478211-1.233776767219751,33.249714146569204-2.358208020470556,49.875243865602897-3.528273490076572,1.38800462735162,1.109508317563268,1.734709160658895,2.797632735433581,2.310912447714145,4.332038941106475,5.820063357248728,15.498471064950536,16.197655470765312,27.198052897575508,29.712744969705454,36.346909382169542,1.654554950099737,1.1200744700418,4.151500794858293,1.656702933891211,4.121532532001766,4.440582707100475Z" fill="#894f9f" stroke-width="0"/>
          <path d="M203.707176654619616,112.564116136103621c.703143868210645,9.426851254446774,1.406270367238903,18.853673254765454,2.110020617729788,28.281120813175221-.100913942869738,1.76802775955457-.360105047113393,3.468986605323153-1.923010162695391,4.619725853175623-25.484910938361281.908403314213501-45.568440769021436-8.374640936291144-58.355387172656265-31.372010208960091-1.17694707640112-2.116711185021813-2.886329607507832-4.221732102054375-1.117984519398306-6.855504955456126,15.573300039472088-1.222446242163642,31.14031083628015-2.535066116751295,46.72304737122613-3.622420133785454,6.119250248110802-.426983117481541,10.209698648871381,2.718749975859282,12.563313865794044,8.949088631850827Z" fill="#ca7eb5" stroke-width="0"/>
          <path d="M144.420817684937902,107.237478019213086c1.841901231910015,8.826786563457972,7.423987899330314,15.437518976786123,13.575915644990346,21.316263170489947,11.323129518892529,10.820317332585546,25.173095793292305,15.754563132296425,40.774431857013951,15.584165658027814,1.884438601493457-.020572155352966,3.584229964807491.218077671684114,5.123074030255339,1.32714371710972-2.138841302090441,2.9229647514303-4.690845952285599,5.278831612359681-8.333116076040824,6.138412195056844-11.272946266794861.723647580604847-22.545888019541962,1.447050421235872-33.819220173472786,2.17020744392812-9.869963412731522-6.886064643348618-19.548379999159806-13.960164426273877-26.451400451915106-24.159625346190296-4.379259259580977-6.470515807308402-8.084314923555212-13.215220490805223-9.694000943924038-20.960195407859828,6.274660285442224-.472095103220454,12.549491974727971-.944233548653756,18.824316113093118-1.416371430562322Z" fill="#a562a8" stroke-width="0"/>
          <path d="M138.222991943359375,155.579330444335938s-29.890472330684133,2.293640971184686-56.594380817782621,4.351191503437803c-1.975997925022966.152234084039264-3.947124230938243.36771050526022-5.920520830631176.553783583710356-7.979891309567392-2.194935047557919-11.136051190005674-5.865411313956429-11.78436208264975-13.838887446434455-.511272748008196-6.28806514756252-.990951745297934-12.579343539549882-1.406334342236732-18.874351092049437-.616864664394598-9.348421275588407,4.041796367518145-14.908816778854998,13.203699983259867-15.588901274459204l15.534216205274788-1.125815010533188c17.853057861328125,28.205917358398438,33.339752197265625,42.017532348632812,46.967681884765625,44.522979736328125Z" fill="#774199" stroke-width="0"/>
        </g>
      </g>
      <path d="M198.599655394977162,119.112613334759772c.032567676757935-1.946727089977685-.21335631466809-3.915686556631044-1.540246111608212-5.436244150219864-.703115843641172-.805739962494044-1.690033224666877-1.297923236542374-2.69631594893508-1.609070859166422-.337432466360951-.104335796661871-.682769451229433-.180402040427907-1.025335310550872-.265342559531746-.196666313643618-.048764166996989-.393347886256379-.098027443307728-.587365291436981-.156651629719818-.170511866234847-.051521766423321-.815880075099813-.329078340174419-.106657597715639-.010911021106949-1.151080556129273-.516391155460042-2.409761280708153-.411325083127849-3.225019703099861.643894301294495-.80697955622054,1.044503739144602-.606988321561403,2.306168362998505.195454879951285,3.28254936454141,1.147767838144318,1.396558297500633,2.436381724232888,2.660599258520051,3.854776931906599,3.781269201332179.851700179683576.672925843582561,2.027038478185204,1.037251740041029,3.029564823148576.39090975990257.892151853172436-.575182086994573,1.518247836444061-1.753082184632149,1.148899713700303-2.823275743393424-.533134698048343-1.544768430299882-1.422917378348757-2.948090132606012-2.706131138829733-3.977914912842607-1.459350389798601-1.171180703283426-3.059693067560147-1.809974182971018-4.919943622335268-2.007501195347686-1.513488078672708-.160706727209799-2.976637684252637,1.74403480973524-2.410697583882211,3.164599030524187.576530803577953,1.447147907016188,1.453417435855044,2.611864970577699,2.567989400104125,3.693586016677727.423107097056345.41063642933841.858419124388092.809196000196607,1.26651995757129,1.235046371525641.185057625173613.193106340368104.350830630864948.468481020962827.559619391319757.628026188562217-.245502559676424-.32465997962845-.290946675534542-.382864586656069-.136332347574353-.174613821083767l.080192658379019.113625589820003c.105458625886968.153213465066074.201600755792242.311300490475332.293724786139137.472790042603265l4.317353425738474-2.523595740363817c-1.160462923490741-1.688323588202365-2.425613647197679-3.365229700593773-4.045388058051685-4.641456089385429-1.883281563924356-1.483844672008672-3.951587702249526-2.431799926521307-6.360924093228277-2.631898032578647l.664599030524187,4.910697583882211c.52365762678528-.102763845319714-.422009940153657.004181469431387-.119098600034704.011056077043577.128697230865328.002920798418018.258807074307697-.013750445092228.388229399005468-.010804157490384.066995975015743.0015251573559.568593345014051.058012912761114.13020105290525-.006569740833584-.431939721352137-.063632079989475.031019374746393.013944603151685.125878503554304.036162339294606.252765557831481.059202298613855.496911967937194.184235446235107.748027557534442.235343379797087-.327290589390032-.142280607590692-.404749753759461-.173457848633007-.232377493110107-.093531723127853.072750100285703.033560337747986.144649064394798.068871685697559.215696892325468.105934043850539.095468619715575.049224148087887.189858354856369.100892239609493.282987433250128.154406227829895.23560986249413.135386536874648.458738654079752.287752557464955.682456892887785.441451003895963.466809345006368.320706400555537-.416368705067725-.362633337496845.010358870162236.009705755074719.081916305159211.071475677926173.165783078787172.1406003571974.246981038884769.212937797437917.431400687115456.384325189769697.827792397534722.807040379989303,1.201626245347143,1.24710662223697.090780942147831.106864662770931.17894266334315.215685402491545.268028257464721.323963109591205.292254363853317.355216044969893-.20926050469825-.292667394250202-.030756671106246-.040532131846703.162077230593241.228932814736254.329314607290144.453478427682967.48578377263857.686487011970712.313164932691507.46635461659298.603719531071874.94758893780272.873542366311085,1.440251991651166.27047641387253.493856407424573.519929323972065.999012502227743.750453023610135,1.512704693032902.055443604686843.123548888044752.135395153449281.25519877980787.169590419592168.38701273026345-.064542457368589-.248794562448893-.16004345462261-.385296418562575-.026623001693224-.050423284215867.114564799698201.287547169257778.222845980844795.577320603029875.327848107165664.868484983275266.442478686234608,1.226965938347348,1.721394305205649,2.184239945302579,3.075296614406398,1.746098553358934,1.207303050762675-.390699857415711,2.221086316800211-1.758185022361431,1.746098553358024-3.075296614407307-1.868501227123488-5.181237950569084-6.136859258699587-12.241386014414275-12.649427295507849-10.963343835447631-1.218466867067946.239114899220112-1.944420255570549,1.599363299802462-1.790749761416919,2.742997099144304.17335332966104,1.290115764389157,1.198560904380429,2.063322832468657,2.455348791941105,2.167700484737907.109844434997285.007781265501762.219435425033225.018222453101771.32877297010873.031323562800026-.391961314847322-.055194772867253-.450762551905427-.059617519093081-.176403711173407-.013268238676574.213337972348199.052603007666221.428434618970641.092065928277407.640151496870203.152628919893687.158388659494449.045308107468372.315413402148806.095644211598483.470774251998591.150430475670873.103726642641959.036732557786308.206681035590918.075515192331295.308863178848696.116347903635869-.342263210012788-.147700295993673-.389630618660703-.16597497967814-.142102225943745-.054824051051583.345844617099829.177134662101707.688838602775832.349492923348407,1.018603348237775.556027507370345.188042199544725.117772496895668.367037839961085.247336222710146.551159807497243.370740074494279.413349416233359.27703869765719-.405160013695422-.339410212202893.085539747922667.067177557439209.634773482452147.525965477560021,1.212864321754751,1.117006241125637,1.747869886147782,1.743434315035302.148026670099171.173321677396416.290028526869719.351247714304918.434383092420831.527568999827054.317745802353784.388109292741319-.293245778105302-.404643968710843.02688416752062.035810215544188.268233114143186.369051377714641.53598472480553.737500547342279.794462715085501,1.113552620345217.739312220198372,1.075603739801409,2.228259025035186,1.665515964685255,3.420474583051146.896878842687329,1.147893899194969-.740062362971003,1.590544111170857-2.20450853040893.896878842687329-3.420474583051146-.654723399305112-1.147702593162649-1.592246698326562-2.087747997818042-2.539454252516407-2.992742643803467-.405800132811237-.387715391320853-.811201680933664-.777506823671501-1.178653047674743-1.2024115690092-.059469657834597-.068768120367167-.39552684084174-.464822181127602-.108755852677859-.121634200138942.282386067913649.337940407177484-.029362024875809-.056644264234819-.082207233958798-.138150634674275-.074543194603393-.114972489245702-.144820192141196-.232252583330592-.21021967427987-.352670977295929-.089308505966983-.164441468100449-.295628654823304-.687469376818626-.008382042805351.033547316132172l-2.410697583882211,3.164599030524187c.520910710842145.055311869771685-.602298868237085-.138441120705465-.096068022439795-.006808029805143.115531487318549.030041169751712.233667951211828.050355892572043.349335288080511.080694929500169.228111555343276.059832663989255.980996935057192.410439757512904.282585125038167.05348575629796.235274656139154.120247436667341.474040273068567.225438522008517.701821816572192.361177889755709.102894572222795.061316838771745.20431291062232.125108909787741.303543954097222.192217918406641.059751344380857.040010245740632.118571699699714.081335161985407.176461065954754.123974748734327.152741595519728.111579366432125.079159733314555.05418942813958-.220745586614612-.172169814876725.110655163454794.175243071556906.382199729887361.332068371738387.530908014059605.484107866983322.100815565785524.103073933104497.194595383315573.210777570098799.290983966611748.317853947164622.30749536334406.3415911754837-.305290690060247-.468643932424129-.03849454021838-.052922423487871.129524060224867.201824268424389.263850291724339.397315686886941.377884666533646.60894372628718.065611027273917.121762697326631.11680576656363.269583308950132.19040373437565.385779944018395l-.141235934633187-.332313850247374c.034751261196106.089363244571359.067183276523792.179560431406571.097296045983057.270591560507455l4.178464536848878-2.432365983490854c-1.418395207673711-1.120669942811219-2.707009093762281-2.384710903830637-3.854776931906599-3.781269201332179l-3.029564823148576,3.926443665835905c.772375676998308.346498745175268,1.516270552461719.576492167199831,2.331962992266199.779463208601555.316806004371756.078831728102159.623472022364695.173692416024096.932726119635845.277654111555421.179328826785422.068888448792677.09259656298309.033261156155277-.260196791408816-.106881877909473.087559565194169.042920661331664.172937839708538.089812890892972.256134823543107.140676688682106.394946655188505.195071609301522-.35572745825084-.372947603591456-.044999053498032-.034526546448433.050317307482146.048047715811663.097874250084715.098642995265436.142670827808615.151785838360411.12481185670822.144442926921329.064154131674513.066337155658402-.18197317510112-.23431731378696.005014539487092.051490123155418.150723379944793.310631817568719.202740540989907.355880953913584-.15544437468543-.389296200181889-.187214322794716-.460748083553881-.095309844328767-.214355650116886.02304053995249.066023676350596.043814877089972.132739110068542.062323011410626.200146301155655.045969175409482.159796039536559.075580617586638.321540556354194.111793862140075.483496070083675.103083597011391.461017981594523-.049316826803988-.600908693141719-.013427353165753-.090756643497116.010280627568136.146134303295185.022179115483596.291466181534815.028628911743908.437873907928406.014891901007104.338040037272549.01209923186525.676515626920263.006441128574806,1.014727745484379-.021885408143135,1.308196382069582,1.165537578546719,2.559770735426355,2.5,2.5,1.373238153571947-.061507505220106,2.476548757987985-1.098206176728127,2.5-2.5h0Z" fill="#fff" stroke-width="0"/>
    </g>
  </g>
</svg>