<?xml version="1.0" encoding="UTF-8"?>
<svg xmlns="http://www.w3.org/2000/svg" width="280" height="280" xmlns:xlink="http://www.w3.org/1999/xlink" viewBox="0 0 280 280">
  <g id="Layer_8" data-name="Layer 8">
    <rect x="-3968.910876699140317" y="-2306.198710516211577" width="6875.234042553199288" height="4669.276595744679071" fill="#181818" stroke="#181818" stroke-miterlimit="10"/>
  </g>
  <g id="Pattern">
    <a xlink:href="https://www.notion.so/dmmnotes/reflective-integration-96fa86f0fb4c4c1d8cd32a429c24f785?pvs=4">
      <g>
        <g>
          <path d="M176.07430609511357,118.578703071432756c.758096534376818,2.757155673216403,1.516193068749999,5.514311346436443,2.274289603126817,8.271467019651027,1.199878605759295,5.285467592608256.884813145894441,10.450873571713601-.955517378029981,15.576746029073547-2.542949159109412,7.082911391118614-6.802858570574244,12.889136811949356-13.050530354315924,17.002479951404894-6.625488713470986,4.362108383011218-10.111198626429541,10.322491023138355-10.913013761062757,18.14385351121382-1.007168930620537,9.824297377475887-5.863292930223906,17.539079898631826-13.715420495520448,23.352059351444041-2.40152296364613,1.777855862746947-5.343541899906995,2.612717207106471-8.228773729977547,3.417768569510372-1.611181803302316.44299119776224-3.220682980379934.885559084197666-4.829235216946472,1.327840195761382-11.58912954428888,3.285446389872959-21.390651614699891-.305367191056575-29.577358076750897-8.41561991558774-5.768083547993228-5.714201140497607-12.19831531392083-8.412720850912592-20.318522844798281-7.798354941534853-13.564039132117614,1.026244367903928-27.462404397514547-7.418393714013291-32.753588702000343-19.965654504761915-3.407311585158823-8.079942650727389-3.785348638075448-16.490097755995521-1.174083447187513-24.949116688343565.208488885400584-.675382474229991.507507555892516-1.259347507824714,1.167762048922668-1.595532041745173,3.263508234174878-.577070256635125,6.367023196529772-1.689872161587118,9.442357427027673-2.87450350780091,1.189283070085366-.45812629905231,2.317634785333212-.732986757186154,3.495635956094702-.061004332403172,1.768671247777093,1.295022905444057,2.53918007170796,3.305930908989467,3.608982167797876,5.099037735053571,6.52653059741715,10.939183890666754,13.44231285706519,21.56761867834939,23.303830493674468,29.913765919533034,6.126543036838484,5.18510534606321,12.747256545439086,9.470723833903321,20.554321353492924,11.694198932429572,4.556567523808553,1.297709880924231,9.173086848810271,1.980776160242385,13.892114018744905,1.209448021316348,1.801790765664919-.294496779639303,3.489471406644952-1.037412929406855,5.119803999517899-1.884541869694658.801382845318585-.416413091252252,1.20690783401551-1.047103878419875,1.326510404647706-1.908103745918197.86991470891553-1.365613174475584,2.442179422478148-1.652982890944259,3.716813940614884-2.38737752862653,7.474909737742564-4.306789489248331,12.175945211980434-10.893049891295959,15.326664119224006-18.712929174929741,3.9819669468543-9.882968406998771,5.217766403040514-20.201194413039048,4.610772773998178-30.779939350231871-.047168179953587-.822010537700407-.072979512517122-1.625638493076622.075464190327693-2.436051817003317-.738108456196642-7.791535398278938-2.007480857197152-15.470857591655658-4.092661939139361-23.033482688853837-3.025239009959478-10.972019536293374-7.680928202778887-21.188531375242746-13.638245950853161-30.847134751489648-.530913602693545-.860795713226253-1.214069994517558-1.662160865284022-1.187849874433596-2.763718326525122.888510906355805-1.427329407348225.409528316748037-2.600901807269111-.499896620240179-3.870904259156305-.766962236175459-1.071086168589318-2.064863077752307-2.169927275555892-.916142949166897-3.771355482911531,1.380732157531384-.242612762634963,1.926953503720142.858829577809956,2.535976404764369,1.694224722732542,4.085292830119215,5.603778519716798,7.770602803177098,11.456766971545221,10.776643836374205,17.718553963892191,1.907765798368928,3.973978771635302,3.540026604932791,8.062476859364324,5.206755425075244,12.142234711614947,1.018901002762505,2.494051685931481,2.056453354825862,5.003558015401723,3.164547510346893,7.472413200335723.583573460982734,1.300201517628011,1.392020836801748,1.673895008822001,2.74452352291155,1.331998577414197,3.303969391949067-.835190625686664,6.371554571071101-2.301443758500682,9.547916890665874-3.475945601247076.811800026729543-.181351710563831,1.476534703539073.183773556142114,2.077016738063321.637390453368425,5.288458265153167,3.995079458512919,9.956822719181218,8.468179813633469,11.612179983900205,15.236039597613853.030004002985152.122617405599158.15269001816705.211192346438111.269958531109296.289750065401677Z" fill="none" stroke="#d17143" stroke-linecap="round" stroke-linejoin="round" stroke-width="40.016625012547301"/>
          <path d="M162.550946973657119,102.767554426063725c-3.443424746837991,2.473199247422599-7.570950367606201,3.227076515613589-11.468825153444413,4.556165613405028-.801692053830266.273361316511-1.114020251057809-.380707375112252-1.381316427175989-.899631707867229-.589140585097994-1.143703988564084-1.170819780054444-2.300707748223431-1.630430617306047-3.500215330130231-4.621840413705286-12.062284123203426-9.795326782847042-23.841983899636034-17.523070860062944-34.313787962257265-.757593163671118-1.026620139320585-1.358100784300404-2.207433694580686-2.479554590414409-2.93495350811645-1.544793187013056-.008900910108423-2.172114106859226-1.294332855984976-2.956703321118766-2.25005541673454-5.398704379933406-6.576314942045428-11.713001641121082-12.12105098812026-19.08836113077632-16.322711477045232-7.391839570254888-4.211052092417958-15.346183128838675-6.605844342546334-23.981966364946857-5.638868671812816-7.108606936108117.795973334134032-13.288425328822996,3.691779233871785-18.380249068222838,8.770625048455258-.623771773005501.622181896818802-1.266350574549506,1.230012131816693-1.854297403531746,1.889248486455472-1.619680793854059,1.216095954543562-2.551621415226691,2.935329249365168-3.59379301300396,4.624698101550166-3.570469911688633,5.787765304348795-6.09855741436877,11.967712404835765-7.608147889868633,18.597096816727571-.970587922674895,4.262361720109766-1.432302125773276,8.576694314422639-1.708251774472956,12.928193382489553-.683650528866565,2.048370734704804-.599408101663357,4.171315858999151-.436693273732089,6.252301979835465.507277007623998,6.487582718567865.750567482860788,13.008116318213069,2.049753689530917,19.411450610446991,1.362228672047422,6.714047524890702,2.683314590487498,13.43901962777818,5.202036675016643,19.85329927348721.6457573455682,1.644514068148055,1.056280447757672,3.368569074575134,1.445162740130399,5.092310258545695.153673408904069.681175001456722.21134587826964,1.351161479062284-.367493341100271,1.893648281396963-.54681937703208-.274288308575706-1.134459558928938-.650326162709462-1.727181113916231-.326762883136325-2.225335642588107,1.214838494237483-4.81351938293119,1.405915454404749-7.051716619496801,2.497741415594646-1.374641709508069.670561866019852-2.656279089525924.904888280183513-4.092617837577563.517718093757139-.91126346344754-.367512760512909-1.018396013234451-1.162511540256673-1.104751168782968-2.000200086749828-.635460842819157-6.164402840619005-3.257354292880336-11.188084711622651-8.241493369478121-15.027329113214364-4.920819700822904-3.790464505818818-8.312994401832839-8.685815977249149-9.741185265269451-14.822612842450326-.514831533273536-1.872450155206025-1.029445819296598-3.74400329895434-1.543462126444865-5.613445359216712-2.142689945447273-6.924068730928411-1.042024672855405-13.501437078313757,1.932405654781178-19.965288015024271,2.870964388252105-6.23900783926365,7.237559689699992-11.080415507538419,12.947507936771217-14.807507539051585,5.628517359973557-3.673940831686195,8.244011183787734-8.902354562211258,8.325547876507699-15.629737132207083.13327674348875-10.995619829920543,4.691069449641873-19.92563640510707,13.176264270810861-26.866100015515258,2.136200694976651-1.747306232882693,4.910893623371521-2.199325073836008,7.301627791133797-3.439353592635598,2.494413745422207-.685854061157443,4.988833500605324-1.371709774728515,7.483247246036626-2.057563835880501,2.682849939657899-.247019632104639,5.283819578537077-1.205531132358374,8.021393494169388-.961157793532038,8.354711363428578.745789199218052,15.319423672515768,4.388805894986945,21.195025004524723,10.253705132066898,1.202584202650542,1.200389418219856,2.318519386441039,2.490287597716815,3.419512654303617,3.785063421473751,3.874796889533172,4.556783369182085,8.927597646799768,6.475560172169935,14.716245438190526,5.919134622898127,7.272779164241001-.699077261993807,14.131742414203472.439690645507653,20.506415275282052,3.8774095740755,6.756585919467398,3.643667887945412,11.86881439240824,8.904951567032185,14.978596616703726,16.084383278839596,3.097019091708717,7.149939777540567,3.602250143543642,14.424257837847108,1.773785398525433,21.920073436633174-1.458582266443045,5.979521610051961-.088533919632027,11.433209030294165,2.980570254474515,16.585907077234879.386878621324286.649531436205507.853527302331713,1.250644588870273.506463713250923,2.067108377208569Z" fill="none" stroke="#d17143" stroke-linecap="round" stroke-linejoin="round" stroke-width="40.016625012547301"/>
          <path d="M22.964513727714802,105.60175363993767c.122199757668568-.027322536059728.239939764036535-.067660113707461.353215915865803-.121024533724267.576217187443035,2.12115901128891,1.152433614446636,4.242311767169667,1.728649534201395,6.363471127013327-.11387222409212.034432202755852-.230229829860036.054304502773448-.349073371493432.05962351692142-.577596808690942-2.100688033358892-1.155195269893738-4.201382076842492-1.732792078573766-6.302070110210479Z" fill="none" stroke="#d17143" stroke-linecap="round" stroke-linejoin="round" stroke-width="40.016625012547301"/>
          <path d="M131.845459183670755,204.095467737504805c.014218167683794.115774243884516.032931016645307.230803949551046.056141851950088.34510113723627-1.837992554905213.505367106990889-3.67597910006225,1.010732561560872-5.513971654969282,1.516099668546303-.037860803618969-.110450096584827-.080465419088796-.2190399072133-.127861924429453-.325756212543638,1.861866292150808-.511802044773503,3.723777357277868-1.023629329129108,5.585691727448648-1.535444593238935Z" fill="none" stroke="#d17143" stroke-linecap="round" stroke-linejoin="round" stroke-width="40.016625012547301"/>
          <path d="M149.223134462517919,130.231417370050622c.794211269185325,9.270971772819394-.029850176242689,18.401498776036533-2.585754320316482,27.342790271322883-2.473187622870682,8.651848986719415-6.508396820572671,16.388544896613894-13.627964405546663,22.213715268069791-2.385326055295081,1.951654342261463-5.064170274477874,3.389073092923354-7.885390520084911,4.586372911260696-1.908163152300403,2.107297994647524-4.623509654167719,2.250141102078487-7.098082091015385,2.543678585467205-7.227984058050424.857410251805049-14.013508175812603-.834770620420386-20.483085165866214-4.096984504480133-12.921749178671234-6.515599101705448-22.238565052997728-16.758738407921555-29.900186058697727-28.725485008053511-4.152238069586019-6.485409888726281-7.619554032658925-13.349031233303322-10.251037097861627-20.568811901903246-2.648941873114381-7.267678807420452-4.837420254478275-14.681345369799601-6.027248306649199-22.383346821847226-.61295036372394-3.967751759526436-1.121173802228441-7.92575104806383-1.405164499439707-11.922436135455428-.087977473387582-1.238170306824031-.107321845403931-2.450548518789219.678926851313008-3.51648986895998,1.010264800908772-1.218672340901321,2.488652127338355-1.70927980432316,3.870434356404076-2.15603906220349,5.036953100878236-1.628548484521161,10.024285436875289-3.403029439275997,15.021340240680729-5.139987430509791,7.046445937328826-2.449314742658316,14.116047598192381-4.83322103026876,21.144699831846083-7.336224518345261,4.536257186211515-1.615430508978534,9.09029514310896-3.194616381862943,13.669179812399307-4.684752654620752,3.226303038229162-1.049951384098676,6.354544544094097-2.397373646444976,9.667899430778562-3.189919280652248.825460653959453-.197448498407539,1.632840907870559-.465191768544173,2.262973438384506.271808230363604.650141423866444.760401179424662.327563007453136,1.518746371195448-.232816894109419,2.203011549769144-.391842608845764.478458734720334-.291776148053032,1.017376623509335-.192503335385481,1.552937866250431.270105637537199.934329418681955-.166549962825229,1.708829867353415-.542243143254382,2.516571181704421-5.239066810519944,11.263820014357407-10.777790396912678,22.383594217275459-16.175856895451943,33.570646940437655-3.569378376811073,7.397249876510614-7.23168819867351,14.752051815879895-10.798759179579065,22.15059367878348-2.178179963806542,4.517808339307521-4.631543964314915,8.927598093918277-6.138516249744498,13.747100044012768-.190631030611257.609667332970275-.737447420005992,1.351855007498671-.153168260365419,1.91079245949004.552288135995695.528338958891254,1.328450217597492.116365174191742,1.930789994052247-.122753049930907,4.665680605099624-1.852197728236206,9.514865122839183-3.182678727527673,14.182814817906547-5.027846396544192,2.271057359606857-.897707907570293,4.633068848448602-1.550971222575754,6.944309543565396-2.329429468587477,5.142336578033792-1.731969401271272,10.283783296650654-3.482997105020331,15.400430849880649-5.278068756288121,6.843507459001557-2.400878644521072,13.768337696603339-4.573721822656807,20.539910528777909-7.182009734191524,1.898717949510683-.731358329423529,3.912407888972666-1.11279455013937,5.795710189209785-1.934166555092816.925844836567194-.403780022465071,2.063549814780345-.477464341114683,2.388356538169319.984732160733984Z" fill="none" stroke="#d17143" stroke-linecap="round" stroke-linejoin="round" stroke-width="40.016625012547301"/>
          <path d="M149.223134462517919,130.231417370050622c-.488589812679493-.464529880024202-1.056400529701932-.606497587756166-1.69223788344425-.377290972191986-4.459367696352274,1.607457452588278-8.916368933045305,3.221452748548472-13.375047664296289,4.830828190597458-2.295490203161535.828571509568064-4.644906155184799,1.478462108867461-6.940187339045224,2.335652636154919-5.077535596374219,1.896295523012668-10.297081805370908,3.408135883775685-15.421983784635813,5.182825557316391-6.849474072270823,2.371890435140813-13.655690076349856,4.868429815374839-20.497637541959193,7.26242796679071-3.008118906613163,1.052543097039234-6.064714044332504,1.96574956990662-9.087306927569443,2.978029387028073-1.672217864985214.560037709070457-1.913786652829003-.130869728121979-1.532907536047787-1.572257851281393,1.136446159138359-4.300767227303368,3.181655917436728-8.223068727251302,5.080705495956863-12.200701948268033,3.652639371141049-7.650576288189768,7.356373893608179-15.276879983837716,11.064685800272855-22.900712246617331,2.907948806090644-5.978392264511058,5.880797788409836-11.925279286859222,8.777350517972081-17.909148835633459,3.249570049816612-6.713135295029133,6.44575063060438-13.452116738086261,9.665148694735763-20.179866225700607,1.327384702268319-4.472872968764932,3.314339963972088-8.665346593079448,5.46605320553499-12.784536763965662.380895765196328-.729199559295012.933825735839491-1.336059745195598,1.842638882075335-1.443262338760178,2.454669189917695.820320761104085,7.230370970315562,6.89524861937025,7.368820928479181,9.36709776731368,3.794328683679851,6.11566714277069,7.385133067120478,12.334556420773879,10.189301377600714,18.98801607259702,5.107902266483507,12.119509099797142,8.295246691232023,24.695628628398481,9.20845224797813,37.830031850806336.0134965379184.193999085106043-.074973862580009.395089637393539-.115848473607912.592867753814062Z" fill="none" stroke="#d17143" stroke-linecap="round" stroke-linejoin="round" stroke-width="40.016625012547301"/>
          <path d="M50.899789163911919,96.222216846705123c-.266677905743563,5.497292501921038.562316630646819,10.897756387908885,1.586332043931179,16.260061177024909,3.309695397989344,17.331380919418734,9.828739973456322,33.32067423992703,20.373007101705298,47.542866964246059,6.584469379338771,8.881184730513269,14.362056973701328,16.489696926500983,24.310499584749778,21.612433550995775,8.950449032397955,4.608821955638632,18.213249743532288,6.147402106700611,27.954358559050888,2.736740868904235.511596712696701,1.316003365558572-.168391108914875,1.956648192057401-1.266634613401038,2.547747741306011-4.931315552354135,2.654016683824011-10.145059603959453,2.644873241482856-15.441685345778751,1.678423977689818-8.545054143558446-1.559176731863772-15.937481360902893-5.527831399424031-22.70529156457269-10.864573116028623-9.423835990461157-7.431163177307099-16.587338453631673-16.735809848225472-22.727938574915242-26.925351052934275-2.028660547410254-3.3663096920518-4.127184438886616-6.690499875971-6.193728369891687-10.03407198111563-1.718778018637749-6.344522845134634-4.181824101797247-12.46955577044173-5.617483054917102-18.895563414665958-2.369194885039178-10.604524143558592-3.932922834525016-21.298459611976796-3.351827641057753-32.211129876910491.035604514780061-.668599037646345.19150179047756-1.330794637517101.291429053329921-1.99596656900394,1.113730557368399.393677226231375,1.181044114626275,1.350092005453916,1.239709325354852,2.309388929981651.082297847950031,1.345652664018417.167026398999951,2.68829684530283.493698543674327,4.006804857912357.165482973941835.667914391597151.325762550379295,1.307535752006515.998568694953065,1.655702677151567.125032422423828.181555027285867.143710273710894.373909686371917.056986257784956.576485265446536Z" fill="none" stroke="#d17143" stroke-linecap="round" stroke-linejoin="round" stroke-width="40.016625012547301"/>
          <path d="M129.941229310546987,72.820501692833204c-2.502228012370324-2.989298073831378-4.531158134444922-6.360026467014904-7.336814922253325-9.104793355960282-.868449411309484-.007893181595136-1.559774020957775-.362332921258712-2.128169972856995-1.019595723337261-4.344195537178166-5.023525805991085-9.420856734133849-9.224427738776285-15.12509648505511-12.551993093878991-8.51232516881646-4.965683541777253-17.59307351548523-7.487700686882818-27.477584069953082-4.884601018082321-5.971599694459655,1.572631122633538-10.703734825090578,5.104244395566639-14.659612342105902,9.767880646611957-.763780612367555.900430035746467-1.36678160014344,2.104267903287109-2.848810174591563,2.040747950926743-1.604886590150272-.619255868852633-1.414893448010844-1.750451750762295-.788307572000122-2.942509001535655.465081788594034-.884806080694034,1.19999240101788-1.619874814366995,1.477336283925979-2.614040021651817,3.195542300169109-3.26391010635416,6.589073980687317-6.221182737494019,10.830723443845272-8.138782178855763,8.198908149139243-3.7066358346583,16.534306170588025-3.887541394651635,25.010053560328743-1.235236153279402,9.49413554847888,2.970986106294731,17.259628819234422,8.655722932988283,24.253077399131143,15.553603145781381,2.519274845295513,2.484857188745082,4.819573692240738,5.143879219427617,6.919701124192216,7.98409738839473.44575281991456,1.668573918610491,1.602611860551406,2.906937968502461,2.559188260827796,4.271551462083153.827239446798558,1.180098283282859.903581165594005,2.241134427345969-.685684533435051,2.87366995278353Z" fill="none" stroke="#d17143" stroke-linecap="round" stroke-linejoin="round" stroke-width="40.016625012547301"/>
          <path d="M61.054170055656868,51.511598075925576c.124883245640376.957768268297514-.504027373446661,1.641898245881748-.884600759507521,2.413094627547252-.518888101909397,1.051491782625817-.634733528006109,2.051967577910546.284759732467137,2.959278133406769.56485485864323.927004188175488.072739004277537,1.726007688277605-.381434670927774,2.464407831548669-3.272267804950388,5.320091520901769-5.365399700089256,11.107792059983694-6.701158297017173,17.168642852815537-1.082114687724243,4.909984912474101-1.610621914443982,9.898444004278645-1.699052081203263,14.934750574249847-.026545046741376,1.511922284349566.368269166889149,3.168488961193361-.981687940953634,4.406071397497726-1.176123219709552.675768104683812-1.162942170454698-.385873737621296-1.443727079244127-.996925363886476-1.051479259278494-2.288269694470728-.47707783464466-4.83548772233371-1.136418878279073-7.187102469017191.597284936475262-13.384757515392266,4.317736311584667-25.651480953991268,12.943319974665428-36.162217584162136Z" fill="none" stroke="#d17143" stroke-linecap="round" stroke-linejoin="round" stroke-width="40.016625012547301"/>
          <path d="M50.690996038514641,95.857843492991378c-.052212054477422-8.539053227208569.749000141133365-16.960339077899334,3.278170849982416-25.170111440551409,1.514289491951786-4.91543323967926,3.801468847741489-9.447916628043458,6.48514816793795-13.803776767297677,2.778420952923625-3.437550995000493,5.692267417183757-6.734199260554306,9.506503386446639-9.08719976584689,8.298606346859742-5.119410211362265,17.120868534300826-5.717299300367813,26.223638295045021-2.757352496662861,10.710004783761178,3.48257378793096,19.174956827107962,10.240986737722778,26.420098424425305,18.676441148867525-1.904984351042003,2.192349998755162-2.624467345967787,5.018186321354733-3.993918738036882,7.498018970049088-1.173005139648012,2.124094846021762-2.235520279167758,4.309217726304269-3.34691847733302,6.467345896815459-.42431509794369-1.066366466384352-.144714597303391-1.977234950702041.561935924430145-2.833703659860475.260304725989045-.315490581871927.397425461769672-.764554270157532.030282945539511-1.105964986229083-.28494692129243-.26498779274516-.615233257480213-.061736659725284-.941850742863608.048994344517268-7.763708294060052,2.632101594068445-15.538095356403574,5.232864640336629-23.296706137720321,7.879861628276558-5.768316674730158,1.967968508741251-11.521609887960949,3.980302849311556-17.273627013861187,5.995609071153012-7.47785880777883,2.619973470807963-14.949178018032399,5.258641281247037-22.417150505016252,7.906648039634092-.372250203290605.13198566590836-.685885244633027.429274258722216-1.02681430577104.64958305363507-.069597207113475-.121479470733902-.13919381390042-.242933248553527-.208792073204677-.364393036499678Z" fill="none" stroke="#d17143" stroke-linecap="round" stroke-linejoin="round" stroke-width="40.016625012547301"/>
        </g>
        <g>
          <path d="M176.07430609511357,118.578703071432756c.758096534376818,2.757155673216403,1.516193068749999,5.514311346436443,2.274289603126817,8.271467019651027,1.199878605759295,5.285467592608256.884813145894441,10.450873571713601-.955517378029981,15.576746029073547-2.542949159109412,7.082911391118614-6.802858570574244,12.889136811949356-13.050530354315924,17.002479951404894-6.625488713470986,4.362108383011218-10.111198626429541,10.322491023138355-10.913013761062757,18.14385351121382-1.007168930620537,9.824297377475887-5.863292930223906,17.539079898631826-13.715420495520448,23.352059351444041-2.40152296364613,1.777855862746947-5.343541899906995,2.612717207106471-8.228773729977547,3.417768569510372-1.611181803302316.44299119776224-3.220682980379934.885559084197666-4.829235216946472,1.327840195761382-11.58912954428888,3.285446389872959-21.390651614699891-.305367191056575-29.577358076750897-8.41561991558774-5.768083547993228-5.714201140497607-12.19831531392083-8.412720850912592-20.318522844798281-7.798354941534853-13.564039132117614,1.026244367903928-27.462404397514547-7.418393714013291-32.753588702000343-19.965654504761915-3.407311585158823-8.079942650727389-3.785348638075448-16.490097755995521-1.174083447187513-24.949116688343565.208488885400584-.675382474229991.507507555892516-1.259347507824714,1.167762048922668-1.595532041745173,3.263508234174878-.577070256635125,6.367023196529772-1.689872161587118,9.442357427027673-2.87450350780091,1.189283070085366-.45812629905231,2.317634785333212-.732986757186154,3.495635956094702-.061004332403172,1.768671247777093,1.295022905444057,2.53918007170796,3.305930908989467,3.608982167797876,5.099037735053571,6.52653059741715,10.939183890666754,13.44231285706519,21.56761867834939,23.303830493674468,29.913765919533034,6.126543036838484,5.18510534606321,12.747256545439086,9.470723833903321,20.554321353492924,11.694198932429572,4.556567523808553,1.297709880924231,9.173086848810271,1.980776160242385,13.892114018744905,1.209448021316348,1.801790765664919-.294496779639303,3.489471406644952-1.037412929406855,5.119803999517899-1.884541869694658.801382845318585-.416413091252252,1.20690783401551-1.047103878419875,1.326510404647706-1.908103745918197.86991470891553-1.365613174475584,2.442179422478148-1.652982890944259,3.716813940614884-2.38737752862653,7.474909737742564-4.306789489248331,12.175945211980434-10.893049891295959,15.326664119224006-18.712929174929741,3.9819669468543-9.882968406998771,5.217766403040514-20.201194413039048,4.610772773998178-30.779939350231871-.047168179953587-.822010537700407-.072979512517122-1.625638493076622.075464190327693-2.436051817003317-.738108456196642-7.791535398278938-2.007480857197152-15.470857591655658-4.092661939139361-23.033482688853837-3.025239009959478-10.972019536293374-7.680928202778887-21.188531375242746-13.638245950853161-30.847134751489648-.530913602693545-.860795713226253-1.214069994517558-1.662160865284022-1.187849874433596-2.763718326525122.888510906355805-1.427329407348225.409528316748037-2.600901807269111-.499896620240179-3.870904259156305-.766962236175459-1.071086168589318-2.064863077752307-2.169927275555892-.916142949166897-3.771355482911531,1.380732157531384-.242612762634963,1.926953503720142.858829577809956,2.535976404764369,1.694224722732542,4.085292830119215,5.603778519716798,7.770602803177098,11.456766971545221,10.776643836374205,17.718553963892191,1.907765798368928,3.973978771635302,3.540026604932791,8.062476859364324,5.206755425075244,12.142234711614947,1.018901002762505,2.494051685931481,2.056453354825862,5.003558015401723,3.164547510346893,7.472413200335723.583573460982734,1.300201517628011,1.392020836801748,1.673895008822001,2.74452352291155,1.331998577414197,3.303969391949067-.835190625686664,6.371554571071101-2.301443758500682,9.547916890665874-3.475945601247076.811800026729543-.181351710563831,1.476534703539073.183773556142114,2.077016738063321.637390453368425,5.288458265153167,3.995079458512919,9.956822719181218,8.468179813633469,11.612179983900205,15.236039597613853.030004002985152.122617405599158.15269001816705.211192346438111.269958531109296.289750065401677Z" fill="#f8963a" stroke-width="0"/>
          <path d="M162.550946973657119,102.767554426063725c-3.443424746837991,2.473199247422599-7.570950367606201,3.227076515613589-11.468825153444413,4.556165613405028-.801692053830266.273361316511-1.114020251057809-.380707375112252-1.381316427175989-.899631707867229-.589140585097994-1.143703988564084-1.170819780054444-2.300707748223431-1.630430617306047-3.500215330130231-4.621840413705286-12.062284123203426-9.795326782847042-23.841983899636034-17.523070860062944-34.313787962257265-.757593163671118-1.026620139320585-1.358100784300404-2.207433694580686-2.479554590414409-2.93495350811645-1.544793187013056-.008900910108423-2.172114106859226-1.294332855984976-2.956703321118766-2.25005541673454-5.398704379933406-6.576314942045428-11.713001641121082-12.12105098812026-19.08836113077632-16.322711477045232-7.391839570254888-4.211052092417958-15.346183128838675-6.605844342546334-23.981966364946857-5.638868671812816-7.108606936108117.795973334134032-13.288425328822996,3.691779233871785-18.380249068222838,8.770625048455258-.623771773005501.622181896818802-1.266350574549506,1.230012131816693-1.854297403531746,1.889248486455472-1.619680793854059,1.216095954543562-2.551621415226691,2.935329249365168-3.59379301300396,4.624698101550166-3.570469911688633,5.787765304348795-6.09855741436877,11.967712404835765-7.608147889868633,18.597096816727571-.970587922674895,4.262361720109766-1.432302125773276,8.576694314422639-1.708251774472956,12.928193382489553-.683650528866565,2.048370734704804-.599408101663357,4.171315858999151-.436693273732089,6.252301979835465.507277007623998,6.487582718567865.750567482860788,13.008116318213069,2.049753689530917,19.411450610446991,1.362228672047422,6.714047524890702,2.683314590487498,13.43901962777818,5.202036675016643,19.85329927348721.6457573455682,1.644514068148055,1.056280447757672,3.368569074575134,1.445162740130399,5.092310258545695.153673408904069.681175001456722.21134587826964,1.351161479062284-.367493341100271,1.893648281396963-.54681937703208-.274288308575706-1.134459558928938-.650326162709462-1.727181113916231-.326762883136325-2.225335642588107,1.214838494237483-4.81351938293119,1.405915454404749-7.051716619496801,2.497741415594646-1.374641709508069.670561866019852-2.656279089525924.904888280183513-4.092617837577563.517718093757139-.91126346344754-.367512760512909-1.018396013234451-1.162511540256673-1.104751168782968-2.000200086749828-.635460842819157-6.164402840619005-3.257354292880336-11.188084711622651-8.241493369478121-15.027329113214364-4.920819700822904-3.790464505818818-8.312994401832839-8.685815977249149-9.741185265269451-14.822612842450326-.514831533273536-1.872450155206025-1.029445819296598-3.74400329895434-1.543462126444865-5.613445359216712-2.142689945447273-6.924068730928411-1.042024672855405-13.501437078313757,1.932405654781178-19.965288015024271,2.870964388252105-6.23900783926365,7.237559689699992-11.080415507538419,12.947507936771217-14.807507539051585,5.628517359973557-3.673940831686195,8.244011183787734-8.902354562211258,8.325547876507699-15.629737132207083.13327674348875-10.995619829920543,4.691069449641873-19.92563640510707,13.176264270810861-26.866100015515258,2.136200694976651-1.747306232882693,4.910893623371521-2.199325073836008,7.301627791133797-3.439353592635598,2.494413745422207-.685854061157443,4.988833500605324-1.371709774728515,7.483247246036626-2.057563835880501,2.682849939657899-.247019632104639,5.283819578537077-1.205531132358374,8.021393494169388-.961157793532038,8.354711363428578.745789199218052,15.319423672515768,4.388805894986945,21.195025004524723,10.253705132066898,1.202584202650542,1.200389418219856,2.318519386441039,2.490287597716815,3.419512654303617,3.785063421473751,3.874796889533172,4.556783369182085,8.927597646799768,6.475560172169935,14.716245438190526,5.919134622898127,7.272779164241001-.699077261993807,14.131742414203472.439690645507653,20.506415275282052,3.8774095740755,6.756585919467398,3.643667887945412,11.86881439240824,8.904951567032185,14.978596616703726,16.084383278839596,3.097019091708717,7.149939777540567,3.602250143543642,14.424257837847108,1.773785398525433,21.920073436633174-1.458582266443045,5.979521610051961-.088533919632027,11.433209030294165,2.980570254474515,16.585907077234879.386878621324286.649531436205507.853527302331713,1.250644588870273.506463713250923,2.067108377208569Z" fill="#fcb12a" stroke-width="0"/>
          <path d="M22.964513727714802,105.60175363993767c.122199757668568-.027322536059728.239939764036535-.067660113707461.353215915865803-.121024533724267.576217187443035,2.12115901128891,1.152433614446636,4.242311767169667,1.728649534201395,6.363471127013327-.11387222409212.034432202755852-.230229829860036.054304502773448-.349073371493432.05962351692142-.577596808690942-2.100688033358892-1.155195269893738-4.201382076842492-1.732792078573766-6.302070110210479Z" fill="#ffd495" stroke-width="0"/>
          <path d="M131.845459183670755,204.095467737504805c.014218167683794.115774243884516.032931016645307.230803949551046.056141851950088.34510113723627-1.837992554905213.505367106990889-3.67597910006225,1.010732561560872-5.513971654969282,1.516099668546303-.037860803618969-.110450096584827-.080465419088796-.2190399072133-.127861924429453-.325756212543638,1.861866292150808-.511802044773503,3.723777357277868-1.023629329129108,5.585691727448648-1.535444593238935Z" fill="#fcc19c" stroke-width="0"/>
          <path d="M149.223134462517919,130.231417370050622c.794211269185325,9.270971772819394-.029850176242689,18.401498776036533-2.585754320316482,27.342790271322883-2.473187622870682,8.651848986719415-6.508396820572671,16.388544896613894-13.627964405546663,22.213715268069791-2.385326055295081,1.951654342261463-5.064170274477874,3.389073092923354-7.885390520084911,4.586372911260696-1.908163152300403,2.107297994647524-4.623509654167719,2.250141102078487-7.098082091015385,2.543678585467205-7.227984058050424.857410251805049-14.013508175812603-.834770620420386-20.483085165866214-4.096984504480133-12.921749178671234-6.515599101705448-22.238565052997728-16.758738407921555-29.900186058697727-28.725485008053511-4.152238069586019-6.485409888726281-7.619554032658925-13.349031233303322-10.251037097861627-20.568811901903246-2.648941873114381-7.267678807420452-4.837420254478275-14.681345369799601-6.027248306649199-22.383346821847226-.61295036372394-3.967751759526436-1.121173802228441-7.92575104806383-1.405164499439707-11.922436135455428-.087977473387582-1.238170306824031-.107321845403931-2.450548518789219.678926851313008-3.51648986895998,1.010264800908772-1.218672340901321,2.488652127338355-1.70927980432316,3.870434356404076-2.15603906220349,5.036953100878236-1.628548484521161,10.024285436875289-3.403029439275997,15.021340240680729-5.139987430509791,7.046445937328826-2.449314742658316,14.116047598192381-4.83322103026876,21.144699831846083-7.336224518345261,4.536257186211515-1.615430508978534,9.09029514310896-3.194616381862943,13.669179812399307-4.684752654620752,3.226303038229162-1.049951384098676,6.354544544094097-2.397373646444976,9.667899430778562-3.189919280652248.825460653959453-.197448498407539,1.632840907870559-.465191768544173,2.262973438384506.271808230363604.650141423866444.760401179424662.327563007453136,1.518746371195448-.232816894109419,2.203011549769144-.391842608845764.478458734720334-.291776148053032,1.017376623509335-.192503335385481,1.552937866250431.270105637537199.934329418681955-.166549962825229,1.708829867353415-.542243143254382,2.516571181704421-5.239066810519944,11.263820014357407-10.777790396912678,22.383594217275459-16.175856895451943,33.570646940437655-3.569378376811073,7.397249876510614-7.23168819867351,14.752051815879895-10.798759179579065,22.15059367878348-2.178179963806542,4.517808339307521-4.631543964314915,8.927598093918277-6.138516249744498,13.747100044012768-.190631030611257.609667332970275-.737447420005992,1.351855007498671-.153168260365419,1.91079245949004.552288135995695.528338958891254,1.328450217597492.116365174191742,1.930789994052247-.122753049930907,4.665680605099624-1.852197728236206,9.514865122839183-3.182678727527673,14.182814817906547-5.027846396544192,2.271057359606857-.897707907570293,4.633068848448602-1.550971222575754,6.944309543565396-2.329429468587477,5.142336578033792-1.731969401271272,10.283783296650654-3.482997105020331,15.400430849880649-5.278068756288121,6.843507459001557-2.400878644521072,13.768337696603339-4.573721822656807,20.539910528777909-7.182009734191524,1.898717949510683-.731358329423529,3.912407888972666-1.11279455013937,5.795710189209785-1.934166555092816.925844836567194-.403780022465071,2.063549814780345-.477464341114683,2.388356538169319.984732160733984Z" fill="#a3dad5" stroke-width="0"/>
          <path d="M149.223134462517919,130.231417370050622c-.488589812679493-.464529880024202-1.056400529701932-.606497587756166-1.69223788344425-.377290972191986-4.459367696352274,1.607457452588278-8.916368933045305,3.221452748548472-13.375047664296289,4.830828190597458-2.295490203161535.828571509568064-4.644906155184799,1.478462108867461-6.940187339045224,2.335652636154919-5.077535596374219,1.896295523012668-10.297081805370908,3.408135883775685-15.421983784635813,5.182825557316391-6.849474072270823,2.371890435140813-13.655690076349856,4.868429815374839-20.497637541959193,7.26242796679071-3.008118906613163,1.052543097039234-6.064714044332504,1.96574956990662-9.087306927569443,2.978029387028073-1.672217864985214.560037709070457-1.913786652829003-.130869728121979-1.532907536047787-1.572257851281393,1.136446159138359-4.300767227303368,3.181655917436728-8.223068727251302,5.080705495956863-12.200701948268033,3.652639371141049-7.650576288189768,7.356373893608179-15.276879983837716,11.064685800272855-22.900712246617331,2.907948806090644-5.978392264511058,5.880797788409836-11.925279286859222,8.777350517972081-17.909148835633459,3.249570049816612-6.713135295029133,6.44575063060438-13.452116738086261,9.665148694735763-20.179866225700607,1.327384702268319-4.472872968764932,3.314339963972088-8.665346593079448,5.46605320553499-12.784536763965662.380895765196328-.729199559295012.933825735839491-1.336059745195598,1.842638882075335-1.443262338760178,2.454669189917695.820320761104085,7.230370970315562,6.89524861937025,7.368820928479181,9.36709776731368,3.794328683679851,6.11566714277069,7.385133067120478,12.334556420773879,10.189301377600714,18.98801607259702,5.107902266483507,12.119509099797142,8.295246691232023,24.695628628398481,9.20845224797813,37.830031850806336.0134965379184.193999085106043-.074973862580009.395089637393539-.115848473607912.592867753814062Z" fill="#bee4e1" stroke-width="0"/>
          <path d="M50.899789163911919,96.222216846705123c-.266677905743563,5.497292501921038.562316630646819,10.897756387908885,1.586332043931179,16.260061177024909,3.309695397989344,17.331380919418734,9.828739973456322,33.32067423992703,20.373007101705298,47.542866964246059,6.584469379338771,8.881184730513269,14.362056973701328,16.489696926500983,24.310499584749778,21.612433550995775,8.950449032397955,4.608821955638632,18.213249743532288,6.147402106700611,27.954358559050888,2.736740868904235.511596712696701,1.316003365558572-.168391108914875,1.956648192057401-1.266634613401038,2.547747741306011-4.931315552354135,2.654016683824011-10.145059603959453,2.644873241482856-15.441685345778751,1.678423977689818-8.545054143558446-1.559176731863772-15.937481360902893-5.527831399424031-22.70529156457269-10.864573116028623-9.423835990461157-7.431163177307099-16.587338453631673-16.735809848225472-22.727938574915242-26.925351052934275-2.028660547410254-3.3663096920518-4.127184438886616-6.690499875971-6.193728369891687-10.03407198111563-1.718778018637749-6.344522845134634-4.181824101797247-12.46955577044173-5.617483054917102-18.895563414665958-2.369194885039178-10.604524143558592-3.932922834525016-21.298459611976796-3.351827641057753-32.211129876910491.035604514780061-.668599037646345.19150179047756-1.330794637517101.291429053329921-1.99596656900394,1.113730557368399.393677226231375,1.181044114626275,1.350092005453916,1.239709325354852,2.309388929981651.082297847950031,1.345652664018417.167026398999951,2.68829684530283.493698543674327,4.006804857912357.165482973941835.667914391597151.325762550379295,1.307535752006515.998568694953065,1.655702677151567.125032422423828.181555027285867.143710273710894.373909686371917.056986257784956.576485265446536Z" fill="#fcb13c" stroke-width="0"/>
          <path d="M129.941229310546987,72.820501692833204c-2.502228012370324-2.989298073831378-4.531158134444922-6.360026467014904-7.336814922253325-9.104793355960282-.868449411309484-.007893181595136-1.559774020957775-.362332921258712-2.128169972856995-1.019595723337261-4.344195537178166-5.023525805991085-9.420856734133849-9.224427738776285-15.12509648505511-12.551993093878991-8.51232516881646-4.965683541777253-17.59307351548523-7.487700686882818-27.477584069953082-4.884601018082321-5.971599694459655,1.572631122633538-10.703734825090578,5.104244395566639-14.659612342105902,9.767880646611957-.763780612367555.900430035746467-1.36678160014344,2.104267903287109-2.848810174591563,2.040747950926743-1.604886590150272-.619255868852633-1.414893448010844-1.750451750762295-.788307572000122-2.942509001535655.465081788594034-.884806080694034,1.19999240101788-1.619874814366995,1.477336283925979-2.614040021651817,3.195542300169109-3.26391010635416,6.589073980687317-6.221182737494019,10.830723443845272-8.138782178855763,8.198908149139243-3.7066358346583,16.534306170588025-3.887541394651635,25.010053560328743-1.235236153279402,9.49413554847888,2.970986106294731,17.259628819234422,8.655722932988283,24.253077399131143,15.553603145781381,2.519274845295513,2.484857188745082,4.819573692240738,5.143879219427617,6.919701124192216,7.98409738839473.44575281991456,1.668573918610491,1.602611860551406,2.906937968502461,2.559188260827796,4.271551462083153.827239446798558,1.180098283282859.903581165594005,2.241134427345969-.685684533435051,2.87366995278353Z" fill="#f79344" stroke-width="0"/>
          <path d="M61.054170055656868,51.511598075925576c.124883245640376.957768268297514-.504027373446661,1.641898245881748-.884600759507521,2.413094627547252-.518888101909397,1.051491782625817-.634733528006109,2.051967577910546.284759732467137,2.959278133406769.56485485864323.927004188175488.072739004277537,1.726007688277605-.381434670927774,2.464407831548669-3.272267804950388,5.320091520901769-5.365399700089256,11.107792059983694-6.701158297017173,17.168642852815537-1.082114687724243,4.909984912474101-1.610621914443982,9.898444004278645-1.699052081203263,14.934750574249847-.026545046741376,1.511922284349566.368269166889149,3.168488961193361-.981687940953634,4.406071397497726-1.176123219709552.675768104683812-1.162942170454698-.385873737621296-1.443727079244127-.996925363886476-1.051479259278494-2.288269694470728-.47707783464466-4.83548772233371-1.136418878279073-7.187102469017191.597284936475262-13.384757515392266,4.317736311584667-25.651480953991268,12.943319974665428-36.162217584162136Z" fill="#f9a140" stroke-width="0"/>
          <path d="M50.690996038514641,95.857843492991378c-.052212054477422-8.539053227208569.749000141133365-16.960339077899334,3.278170849982416-25.170111440551409,1.514289491951786-4.91543323967926,3.801468847741489-9.447916628043458,6.48514816793795-13.803776767297677,2.778420952923625-3.437550995000493,5.692267417183757-6.734199260554306,9.506503386446639-9.08719976584689,8.298606346859742-5.119410211362265,17.120868534300826-5.717299300367813,26.223638295045021-2.757352496662861,10.710004783761178,3.48257378793096,19.174956827107962,10.240986737722778,26.420098424425305,18.676441148867525-1.904984351042003,2.192349998755162-2.624467345967787,5.018186321354733-3.993918738036882,7.498018970049088-1.173005139648012,2.124094846021762-2.235520279167758,4.309217726304269-3.34691847733302,6.467345896815459-.42431509794369-1.066366466384352-.144714597303391-1.977234950702041.561935924430145-2.833703659860475.260304725989045-.315490581871927.397425461769672-.764554270157532.030282945539511-1.105964986229083-.28494692129243-.26498779274516-.615233257480213-.061736659725284-.941850742863608.048994344517268-7.763708294060052,2.632101594068445-15.538095356403574,5.232864640336629-23.296706137720321,7.879861628276558-5.768316674730158,1.967968508741251-11.521609887960949,3.980302849311556-17.273627013861187,5.995609071153012-7.47785880777883,2.619973470807963-14.949178018032399,5.258641281247037-22.417150505016252,7.906648039634092-.372250203290605.13198566590836-.685885244633027.429274258722216-1.02681430577104.64958305363507-.069597207113475-.121479470733902-.13919381390042-.242933248553527-.208792073204677-.364393036499678Z" fill="#b0dfdd" stroke-width="0"/>
        </g>
      </g>
    </a>
    <path d="M132.947136333386879,51.980619168580233c1.707818427526945.391481466507685,2.76611309618238.779157972710891,4.167106184472686,1.556276599674675,1.566184415350108.868748812967169,2.445002383380597,1.586859870199987,3.700533689942858,2.818268773493401,1.166505855071591,1.144093889311989,2.273831456548578,2.360497219002355,3.350185353185225,3.589427697870633.254720426792119.290827856017131.503442655875915.586424159946546.748516533350994.885399377802969.105889544005549.133670570625327.107893801707178.133327557919984.006012773104885-.00102903811603l.153576874605278.205219294328344c.100244271867268.137940717790116.200378406432719.275952045651138.297047853922777.416440263154072.2404660001921.349465530363887.467015640864702.709368451431146.671708206333278,1.081020421175708.081776763177913.148478744426029.157674504254828.299760365305701.234936543463846.450585571716147.356189011132301.695325695200154-.130183390407183-.393452465046721.148723740465357.339762990719464.463498944993262,1.218486559086159,1.705945029882059,2.189239543093208,3.075296614406398,1.746098553358024,1.188964610628318-.384765286189577,2.243901600248137-1.766628432398647,1.746098553358024-3.075296614406398-1.365935261126651-3.590890064027917-4.190799474838059-6.519378487177164-6.896569140262727-9.173162423536269-2.809348951903303-2.755373162563046-6.220774353622801-4.777141238007971-10.073975719300506-5.660406634999163-1.271964910637507-.29157121186654-2.766542677754842.390535589081992-3.075296614406398,1.746098553358024-.290062073945592,1.273497624175434.382741195751805,2.762775605659044,1.746098553358024,3.075296614406398h0Z" fill="#fff" stroke-width="0"/>
  </g>
</svg>