<?xml version="1.0" encoding="UTF-8"?>
<svg id="Pattern" xmlns="http://www.w3.org/2000/svg" xmlns:xlink="http://www.w3.org/1999/xlink" viewBox="0 0 280 280">
  <defs>
    <linearGradient id="linear-gradient" x1="-166.735985334244106" y1="-6270.485891845531114" x2="-216.550629519173924" y2="-6299.012227556782818" gradientTransform="translate(-6218.907566926590334 -339.060220142904882) rotate(-88.183245787713346) scale(.999999999999999 -1)" gradientUnits="userSpaceOnUse">
      <stop offset="0" stop-color="#ffc810"/>
      <stop offset=".755599975585938" stop-color="#ef4e26"/>
    </linearGradient>
    <linearGradient id="linear-gradient-2" x1="-212.297523970360999" y1="-6303.097510727611734" x2="-193.5638125318481" y2="-6286.492356681715137" gradientTransform="translate(-6218.907566926590334 -339.060220142904882) rotate(-88.183245787713346) scale(.999999999999999 -1)" gradientUnits="userSpaceOnUse">
      <stop offset="0" stop-color="#d23e27"/>
      <stop offset="1" stop-color="#d23e27" stop-opacity="0"/>
    </linearGradient>
    <linearGradient id="linear-gradient-3" x1="-211.706432432242764" y1="-6272.912571686682895" x2="-192.461795228657905" y2="-6273.570636316068885" xlink:href="#linear-gradient-2"/>
    <linearGradient id="linear-gradient-4" x1="-196.323286661205202" y1="-6261.188229437868358" x2="-186.328332062072434" y2="-6277.647191621374986" xlink:href="#linear-gradient-2"/>
    <linearGradient id="linear-gradient-5" x1="-169.368227229746481" y1="-6287.66322589927222" x2="-186.546700241089127" y2="-6296.363570323062959" xlink:href="#linear-gradient-2"/>
    <linearGradient id="linear-gradient-6" x1="-175.350229921969003" y1="-6268.646946277668576" x2="-183.672772116272114" y2="-6286.011872556202434" xlink:href="#linear-gradient-2"/>
    <linearGradient id="linear-gradient-7" x1="-180.580262023012438" y1="-6315.158192971955941" x2="-190.904922705162136" y2="-6296.850585828325165" xlink:href="#linear-gradient-2"/>
    <radialGradient id="radial-gradient" cx="-6021.577436115938326" cy="4177.612056566147658" fx="-6021.577436115938326" fy="4177.612056566147658" r="6.812258912548421" gradientTransform="translate(6939.661804482085245 21243.045800718893588) rotate(48.495754766724588) scale(3.393360063220487 -2.127890109186671)" gradientUnits="userSpaceOnUse">
      <stop offset="0" stop-color="#e1dfe1"/>
      <stop offset=".394388008117676" stop-color="#c2bec5"/>
    </radialGradient>
    <linearGradient id="linear-gradient-8" x1="-208.380074819611764" y1="-6293.987056580814169" x2="-206.677010049250811" y2="-6295.370829170599791" gradientTransform="translate(-6218.907566926590334 -339.060220142904882) rotate(-88.183245787713346) scale(.999999999999999 -1)" gradientUnits="userSpaceOnUse">
      <stop offset="0" stop-color="#a3a1a8"/>
      <stop offset="1" stop-color="#b8b6bd" stop-opacity="0"/>
    </linearGradient>
    <radialGradient id="radial-gradient-2" cx="-6465.52063750014895" cy="55.724347116488389" fx="-6465.52063750014895" fy="55.724347116488389" r="6.812258720808284" gradientTransform="translate(-121142.1103142456559 61286.427793692804698) rotate(152.430752643787514) scale(21.016598951055666 -34.5675010171962)" gradientUnits="userSpaceOnUse">
      <stop offset=".00558659017086" stop-color="#5c266f"/>
      <stop offset="1" stop-color="#2e265b"/>
    </radialGradient>
    <radialGradient id="radial-gradient-3" cx="-6439.819333716880465" cy="107.122277469382425" fx="-6439.819333716880465" fy="107.122277469382425" r="6.812258720808188" gradientTransform="translate(-115356.475745505551458 92162.666245976419304) rotate(140.351758025856526) scale(22.936198784939236 -26.321800119514769)" gradientUnits="userSpaceOnUse">
      <stop offset=".71875" stop-color="#29233a" stop-opacity="0"/>
      <stop offset="1" stop-color="#29233a"/>
    </radialGradient>
    <radialGradient id="radial-gradient-4" cx="-5641.989849388626681" cy="283.800062079620147" fx="-5641.989849388626681" fy="283.800062079620147" r="6.812258720811093" gradientTransform="translate(104584.604793323785998 -34195.347293821578205) rotate(-20.633349044286081) scale(19.476000259430101 -16.532499694880123)" gradientUnits="userSpaceOnUse">
      <stop offset=".809844970703125" stop-color="#672b80" stop-opacity="0"/>
      <stop offset="1" stop-color="#672b80"/>
    </radialGradient>
    <radialGradient id="radial-gradient-5" cx="-6104.241230140723019" cy="1348.675903983148601" fx="-6104.241230140723019" fy="1348.675903983148601" r="6.812258720812361" gradientTransform="translate(-12585.852470753405214 87613.33379598443571) rotate(92.148493896132564) scale(14.411199570559562 -6.984130141550682)" gradientUnits="userSpaceOnUse">
      <stop offset="0" stop-color="#67568f"/>
      <stop offset=".727772979736328" stop-color="#67568f" stop-opacity="0"/>
    </radialGradient>
    <linearGradient id="linear-gradient-9" x1="-176.850498196507033" y1="-6261.902833042799102" x2="-187.443562597057905" y2="-6258.496704621053141" gradientTransform="translate(-6218.907566926590334 -339.060220142904882) rotate(-88.183245787713346) scale(.999999999999999 -1)" gradientUnits="userSpaceOnUse">
      <stop offset="0" stop-color="#ffd35d"/>
      <stop offset="1" stop-color="#ffd35d" stop-opacity="0"/>
    </linearGradient>
    <linearGradient id="linear-gradient-10" x1="-180.259640934946219" y1="-6271.874498817614949" x2="-185.102471198196525" y2="-6278.793167153244212" gradientTransform="translate(-6218.907566926590334 -339.060220142904882) rotate(-88.183245787713346) scale(.999999999999999 -1)" gradientUnits="userSpaceOnUse">
      <stop offset="0" stop-color="#febb12"/>
      <stop offset="1" stop-color="#febb12" stop-opacity="0"/>
    </linearGradient>
    <linearGradient id="linear-gradient-11" x1="-173.308275065179259" y1="-6286.22187876312455" x2="-181.729591623520804" y2="-6286.852219142037939" xlink:href="#linear-gradient-10"/>
  </defs>
  <a xlink:href="https://www.notion.so/dmmnotes/imagined-5c111413591d458f82122b94abc3b804?pvs=4">
    <g>
      <g>
        <g>
          <path d="M33.235046058171065,34.090119000027698c-.390826095839657-.040346359654905-.785577833959906.047322649275884-1.097339537360313.286212725076439-2.075789648879436,1.592410665564785-5.392930446760147,5.602503584588703-5.27908733528966,10.812621304936329.009265301679989.425585188304467.20215423603986.822935025899824.508899433139959,1.118233185958161l.652014522739591.626592963593794c1.011948597969422.972665793501619,2.295407809880089,1.615205570076796,3.680484559929937,1.843165183126075l3.879867874009506.636963959139393c1.768111180470441.290535633663239,1.686604097350937,2.86019894904075-.096365348979816,3.038097949684925l-3.912435775699123.389800084589297c-1.396739273560343.139723263752785-2.718338957730339.699633245709265-3.78989527684098,1.606212401538869l-.690413686189459.584012518534109c-.324843281649919.275277821597228-.542547208880023.660267069250949-.578743580840637,1.083734265798739-.443801243139205,5.192429813728268,2.612513758091154,9.405358203759533,4.583234417870699,11.125444029277787.295995546839549.258167512033651.684397816989986.370677362358037,1.076995205959975.355180391615249l.84176971775014-.033281406969763c1.287946549010485-.051147857414435,2.536259563039494-.460035750557836,3.60466373024974-1.181323501231418l3.869295349159984-2.611718148788896c1.627269831970807-1.098874668421558,3.514770569049688.973663419317745,2.269448937090601,2.491549555019446l-2.325380932490589,2.834498018445629c-.890345057059676,1.08544648595398-1.430337775929729,2.415093761995195-1.548591402310194,3.814004683334133l-.076141129919051.900661029994808c-.035810742660033.424168422324328.081940023839707.850477681851771.35575705616975,1.176087121702039,3.353144655199685,3.989255548530309,8.492153748569763,4.81270590078384,11.10231460328032,4.637865764193521.391969880229226-.02573478584236.746558641879346-.220327804626322,1.01353044778989-.508335155324858l.572299935689443-.618438698749742c.87574986195068-.945497651322512,1.470442187879598-2.117333268924995,1.717366604570088-3.382671010678678l.644385320539186-3.301525877196582c.369981254160848-1.895984988265809,3.111216708781285-1.809035812967522,3.360365913380519.106587358037359l.433858481719653,3.33572666400687c.166238307339881,1.278442839331547.685471074430097,2.485611017666088,1.499468962851097,3.484705733447299l.532024649889536.653466741240663c.248117982929216.304345470163753.589661788580088.521019099543082.979281004679251.571545089376741,2.593762223830709.339903235871134,7.77462980861128-.156211219413308,11.373914854020768-3.924942833099522.293836914590429-.30760403923523.438432919580009-.725591928417089.429507310520421-1.151179341904935l-.01890941315105-.903675935671345c-.029357828068896-1.403593005181392-.483934823609161-2.764787011838052-1.303697605579146-3.904476363368303l-2.141143954930158-2.976171603891089c-1.146620284429446-1.593756078447768.868496616860284-3.542507139943154,2.422855080520094-2.342714487280318l3.696005162479196,2.851681716769235c1.020542227880469.787546986447524,2.240364809180392,1.274721607633182,3.522755266891181,1.407397916971604l.837625912909971.086550112813711c.390621553408891.040339871778997.78598529546889-.047309725012383,1.097545703139986-.286206185702213,2.075428947889122-1.591746112515466,5.393065185039632-5.60249931083581,5.278886039569443-10.812627689836518-.009018868790008-.424901377578863-.202227698850038-.822924356177282-.50910884563018-1.118239828306287l-.651465829549124-.626575559605953c-1.011946974631428-.972665742013305-2.29540943324082-1.615205621570567-3.680622544910875-1.843169559871967l-2.605773938310449-.427513476741296c-1.964523575659769-.323363402012546-1.873989488439292-3.177619913290982.107056132820617-3.375144915696183l2.627651056159266-.262203600976136c1.39687563518055-.139718938500664,2.718478566061094-.699628817475059,3.790033261810095-1.606208024792068l.689864993000811-.584029922522859c.324979231349062-.275260509524742.54300305427023-.659576616178128.578952993329949-1.083727623449704.444137277139816-5.192419155075186-2.612673163339423-9.404687265810935-4.583033122139568-11.125437644379417-.295794251121151-.258161127145286-.684808525210428-.370690389605443-1.077201371740557-.355186930988566l-.84142719034935.033292271587925c-1.288221307529966.051152142245883-2.53646572883008.460029211191795-3.604866649330688,1.181317064847462l-3.869298595870532,2.611718045805901c-1.627269831969897,1.098874668424287-3.514835503148788-.973665478959447-2.269517117899341-2.491551717644143l2.325452360019881-2.834495752836119c.890319978130719-1.084758287418481,1.430269595110076-2.415095924622619,1.548498554499929-3.813331634247334l.076162550210029-.901336344692027c.035878923470591-.424166259696904-.081936777140072-.850477578867867-.355688875360102-1.176084959074615-3.353209589310609-3.989257608174739-8.492243761610553-4.812019761895499-11.102311356569771-4.637865661210526-.392038061049789.025732623214935-.746626822700819.220325641999807-1.013555526719756.509023353853991l-.572346284279774.617748234611099c-.875700266650711.946188218445059-1.470370760371225,2.117335534532685-1.717295177060805,3.382673276285459l-.644385320540096,3.301525877196582c-.370049434969587,1.895982825642022-3.111284889590024,1.809033650343736-3.360365913369606-.106587358038269l-.433858481730567-3.335726664005051c-.166238307328967-1.278442839331547-.685492906639411-2.484922716153051-1.499540390359471-3.48470799905499l-.531978301300114-.652776277099292c-.248161084809908-.30503583132122-.589704890459871-.521709460702368-.979255925760299-.572233287910421-2.59385548355931-.339217199963059-7.774697989409106.156209056787702-11.373918100729497,3.924942730115617-.293901848690439.307601979595347-.438432919570005.725591928417998-.42957549133007,1.151177179280239l.018887992870077.904351250368563c.029382495059508,1.402917793468077.484002592490469,2.764802161288571,1.303790453389411,3.903803314279685l2.14107252741087,2.976169338283398c1.14662353112908,1.593756181429853-.86842843606064,3.542509302570579-2.42278689972045,2.342716649906833l-3.696001915759553-2.851681613788969c-1.020545474590108-.78754708942688-2.240436648629839-1.274710886416869-3.522552347820238-1.407391480586739l-.837968440309851-.086560977431873Z" fill="none" stroke="#181818" stroke-linecap="round" stroke-linejoin="round" stroke-width="37.063140653347297"/>
          <path d="M33.235046058171065,34.090119000027698c-.390826095839657-.040346359654905-.785577833959906.047322649275884-1.097339537360313.286212725076439-2.075789648879436,1.592410665564785-5.392930446760147,5.602503584588703-5.27908733528966,10.812621304936329.009265301679989.425585188304467.20215423603986.822935025899824.508899433139959,1.118233185958161l.652014522739591.626592963593794c1.011948597969422.972665793501619,2.295407809880089,1.615205570076796,3.680484559929937,1.843165183126075l3.879867874009506.636963959139393c1.768111180470441.290535633663239,1.686604097350937,2.86019894904075-.096365348979816,3.038097949684925l-3.912435775699123.389800084589297c-1.396739273560343.139723263752785-2.718338957730339.699633245709265-3.78989527684098,1.606212401538869l-.690413686189459.584012518534109c-.324843281649919.275277821597228-.542547208880023.660267069250949-.578743580840637,1.083734265798739-.443801243139205,5.192429813728268,2.612513758091154,9.405358203759533,4.583234417870699,11.125444029277787.295995546839549.258167512033651.684397816989986.370677362358037,1.076995205959975.355180391615249l.84176971775014-.033281406969763c1.287946549010485-.051147857414435,2.536259563039494-.460035750557836,3.60466373024974-1.181323501231418l3.869295349159984-2.611718148788896c1.627269831970807-1.098874668421558,3.514770569049688.973663419317745,2.269448937090601,2.491549555019446l-2.325380932490589,2.834498018445629c-.890345057059676,1.08544648595398-1.430337775929729,2.415093761995195-1.548591402310194,3.814004683334133l-.076141129919051.900661029994808c-.035810742660033.424168422324328.081940023839707.850477681851771.35575705616975,1.176087121702039,3.353144655199685,3.989255548530309,8.492153748569763,4.81270590078384,11.10231460328032,4.637865764193521.391969880229226-.02573478584236.746558641879346-.220327804626322,1.01353044778989-.508335155324858l.572299935689443-.618438698749742c.87574986195068-.945497651322512,1.470442187879598-2.117333268924995,1.717366604570088-3.382671010678678l.644385320539186-3.301525877196582c.369981254160848-1.895984988265809,3.111216708781285-1.809035812967522,3.360365913380519.106587358037359l.433858481719653,3.33572666400687c.166238307339881,1.278442839331547.685471074430097,2.485611017666088,1.499468962851097,3.484705733447299l.532024649889536.653466741240663c.248117982929216.304345470163753.589661788580088.521019099543082.979281004679251.571545089376741,2.593762223830709.339903235871134,7.77462980861128-.156211219413308,11.373914854020768-3.924942833099522.293836914590429-.30760403923523.438432919580009-.725591928417089.429507310520421-1.151179341904935l-.01890941315105-.903675935671345c-.029357828068896-1.403593005181392-.483934823609161-2.764787011838052-1.303697605579146-3.904476363368303l-2.141143954930158-2.976171603891089c-1.146620284429446-1.593756078447768.868496616860284-3.542507139943154,2.422855080520094-2.342714487280318l3.696005162479196,2.851681716769235c1.020542227880469.787546986447524,2.240364809180392,1.274721607633182,3.522755266891181,1.407397916971604l.837625912909971.086550112813711c.390621553408891.040339871778997.78598529546889-.047309725012383,1.097545703139986-.286206185702213,2.075428947889122-1.591746112515466,5.393065185039632-5.60249931083581,5.278886039569443-10.812627689836518-.009018868790008-.424901377578863-.202227698850038-.822924356177282-.50910884563018-1.118239828306287l-.651465829549124-.626575559605953c-1.011946974631428-.972665742013305-2.29540943324082-1.615205621570567-3.680622544910875-1.843169559871967l-2.605773938310449-.427513476741296c-1.964523575659769-.323363402012546-1.873989488439292-3.177619913290982.107056132820617-3.375144915696183l2.627651056159266-.262203600976136c1.39687563518055-.139718938500664,2.718478566061094-.699628817475059,3.790033261810095-1.606208024792068l.689864993000811-.584029922522859c.324979231349062-.275260509524742.54300305427023-.659576616178128.578952993329949-1.083727623449704.444137277139816-5.192419155075186-2.612673163339423-9.404687265810935-4.583033122139568-11.125437644379417-.295794251121151-.258161127145286-.684808525210428-.370690389605443-1.077201371740557-.355186930988566l-.84142719034935.033292271587925c-1.288221307529966.051152142245883-2.53646572883008.460029211191795-3.604866649330688,1.181317064847462l-3.869298595870532,2.611718045805901c-1.627269831969897,1.098874668424287-3.514835503148788-.973665478959447-2.269517117899341-2.491551717644143l2.325452360019881-2.834495752836119c.890319978130719-1.084758287418481,1.430269595110076-2.415095924622619,1.548498554499929-3.813331634247334l.076162550210029-.901336344692027c.035878923470591-.424166259696904-.081936777140072-.850477578867867-.355688875360102-1.176084959074615-3.353209589310609-3.989257608174739-8.492243761610553-4.812019761895499-11.102311356569771-4.637865661210526-.392038061049789.025732623214935-.746626822700819.220325641999807-1.013555526719756.509023353853991l-.572346284279774.617748234611099c-.875700266650711.946188218445059-1.470370760371225,2.117335534532685-1.717295177060805,3.382673276285459l-.644385320540096,3.301525877196582c-.370049434969587,1.895982825642022-3.111284889590024,1.809033650343736-3.360365913369606-.106587358038269l-.433858481730567-3.335726664005051c-.166238307328967-1.278442839331547-.685492906639411-2.484922716153051-1.499540390359471-3.48470799905499l-.531978301300114-.652776277099292c-.248161084809908-.30503583132122-.589704890459871-.521709460702368-.979255925760299-.572233287910421-2.59385548355931-.339217199963059-7.774697989409106.156209056787702-11.373918100729497,3.924942730115617-.293901848690439.307601979595347-.438432919570005.725591928417998-.42957549133007,1.151177179280239l.018887992870077.904351250368563c.029382495059508,1.402917793468077.484002592490469,2.764802161288571,1.303790453389411,3.903803314279685l2.14107252741087,2.976169338283398c1.14662353112908,1.593756181429853-.86842843606064,3.542509302570579-2.42278689972045,2.342716649906833l-3.696001915759553-2.851681613788969c-1.020545474590108-.78754708942688-2.240436648629839-1.274710886416869-3.522552347820238-1.407391480586739l-.837968440309851-.086560977431873Z" fill="none" stroke="#181818" stroke-linecap="round" stroke-linejoin="round" stroke-width="37.063140653347297"/>
          <path d="M57.194568022630847,53.570733686500716l-15.177432922369917,21.882890964966464,8.436814309619876,2.610160724637353,1.700447069750226-3.246903866008324,5.040171542999815-21.246147823595493Z" fill="none" stroke="#181818" stroke-linecap="round" stroke-linejoin="round" stroke-width="37.063140653347297"/>
          <path d="M61.980235722140606,50.421689852509189l13.21611710085017,13.091608494581124,5.844237502590659-6.310657306678877-19.060354603440828-6.780951187902247Z" fill="none" stroke="#181818" stroke-linecap="round" stroke-linejoin="round" stroke-width="37.063140653347297"/>
          <g>
            <polygon points="54.818470237471047 51.259138745502241 30.283468019481006 55.912331433629333 31.833828607870601 60.753616616897489 54.818470237471047 51.259138745502241" fill="none" stroke="#181818" stroke-linecap="round" stroke-linejoin="round" stroke-width="37.063140653347297"/>
            <polygon points="54.818470237471047 51.259138745502241 30.283468019481006 55.912331433629333 31.833828607870601 60.753616616897489 54.818470237471047 51.259138745502241" fill="none" stroke="#181818" stroke-linecap="round" stroke-linejoin="round" stroke-width="37.063140653347297"/>
          </g>
          <g>
            <polygon points="69.844266807641361 27.454864694100252 58.79803300731146 49.939076966649736 58.56230933839106 37.320539696627748 62.064727495790066 25.286085401638047 69.844266807641361 27.454864694100252" fill="none" stroke="#181818" stroke-linecap="round" stroke-linejoin="round" stroke-width="37.063140653347297"/>
            <polygon points="69.844266807641361 27.454864694100252 58.79803300731146 49.939076966649736 58.56230933839106 37.320539696627748 62.064727495790066 25.286085401638047 69.844266807641361 27.454864694100252" fill="none" stroke="#181818" stroke-linecap="round" stroke-linejoin="round" stroke-width="37.063140653347297"/>
          </g>
          <path d="M61.385042323380731,49.017867969690997l-32.331480961110174,12.073541720004869,4.958146962970204,4.843050594089618,27.373333998139969-16.916592314094487Z" fill="none" stroke="#181818" stroke-linecap="round" stroke-linejoin="round" stroke-width="37.063140653347297"/>
          <g>
            <polygon points="60.365883150070658 54.310632989364422 33.086308650710635 41.411578507008926 30.038322531680024 46.852643369305952 60.365883150070658 54.310632989364422" fill="none" stroke="#181818" stroke-linecap="round" stroke-linejoin="round" stroke-width="37.063140653347297"/>
            <polygon points="60.365883150070658 54.310632989364422 33.086308650710635 41.411578507008926 30.038322531680024 46.852643369305952 60.365883150070658 54.310632989364422" fill="none" stroke="#181818" stroke-linecap="round" stroke-linejoin="round" stroke-width="37.063140653347297"/>
          </g>
          <g>
            <polygon points="59.387849213280788 54.918243204259852 72.867982142911387 29.468023172393259 68.048382539511294 26.971920791777848 59.387849213280788 54.918243204259852" fill="none" stroke="#181818" stroke-linecap="round" stroke-linejoin="round" stroke-width="37.063140653347297"/>
            <polygon points="59.387849213280788 54.918243204259852 72.867982142911387 29.468023172393259 68.048382539511294 26.971920791777848 59.387849213280788 54.918243204259852" fill="none" stroke="#181818" stroke-linecap="round" stroke-linejoin="round" stroke-width="37.063140653347297"/>
          </g>
          <g>
            <polygon points="57.653036706131388 57.445670279645128 53.54982895655121 27.550745521270983 50.106345472090652 31.940561643717047 57.653036706131388 57.445670279645128" fill="none" stroke="#181818" stroke-linecap="round" stroke-linejoin="round" stroke-width="37.063140653347297"/>
            <polygon points="57.653036706131388 57.445670279645128 53.54982895655121 27.550745521270983 50.106345472090652 31.940561643717047 57.653036706131388 57.445670279645128" fill="none" stroke="#181818" stroke-linecap="round" stroke-linejoin="round" stroke-width="37.063140653347297"/>
          </g>
          <path d="M84.459757366820668,46.7679121741985l-1.715566445590412-6.337118384024507-22.420538872049292,11.85492426534347,4.919281779679295,2.71191634810566,19.216823537960408-8.229722229424624Z" fill="none" stroke="#181818" stroke-linecap="round" stroke-linejoin="round" stroke-width="37.063140653347297"/>
          <path d="M59.797006310231154,55.25087546832674l18.865683721739515,17.957266204737607" fill="none" stroke="#181818" stroke-linecap="round" stroke-linejoin="round" stroke-width="37.063140653347297"/>
          <path d="M59.797006310231154,55.25087546832674l18.865683721739515,17.957266204737607" fill="none" stroke="#181818" stroke-linecap="round" stroke-linejoin="round" stroke-width="37.063140653347297"/>
          <path d="M213.80293170062032,125.524098868045257c-1.453675966700757,45.82985503632608-39.784517561320172,81.804030618293837-85.614788175918875,80.350341469880732-45.830264121190339-1.453688942448025-81.804226792040936-39.784736656897621-80.350550825340179-85.614591693223701,1.453688736479307-45.830257627781066,39.784530491109763-81.804233331409705,85.614794612300102-80.350544388959861,45.830270614598703,1.453689148412195,81.804233125438259,39.784536984521765,80.350544388958951,85.614794612302831Z" fill="none" stroke="#181818" stroke-linecap="round" stroke-linejoin="round" stroke-width="37.063140653347297"/>
          <path d="M213.80293170062032,125.524098868045257c-1.453675966700757,45.82985503632608-39.784517561320172,81.804030618293837-85.614788175918875,80.350341469880732-45.830264121190339-1.453688942448025-81.804226792040936-39.784736656897621-80.350550825340179-85.614591693223701,1.453688736479307-45.830257627781066,39.784530491109763-81.804233331409705,85.614794612300102-80.350544388959861,45.830270614598703,1.453689148412195,81.804233125438259,39.784536984521765,80.350544388958951,85.614794612302831Z" fill="none" stroke="#181818" stroke-linecap="round" stroke-linejoin="round" stroke-width="37.063140653347297"/>
          <path d="M213.80293170062032,125.524098868045257c-1.453675966700757,45.82985503632608-39.784517561320172,81.804030618293837-85.614788175918875,80.350341469880732-45.830264121190339-1.453688942448025-81.804226792040936-39.784736656897621-80.350550825340179-85.614591693223701,1.453688736479307-45.830257627781066,39.784530491109763-81.804233331409705,85.614794612300102-80.350544388959861,45.830270614598703,1.453689148412195,81.804233125438259,39.784536984521765,80.350544388958951,85.614794612302831Z" fill="none" stroke="#181818" stroke-linecap="round" stroke-linejoin="round" stroke-width="37.063140653347297"/>
          <ellipse cx="123.937263330888072" cy="94.820289106377913" rx="34.278258402915611" ry="45.670880158052881" transform="translate(-32.091810183767507 97.3224254586152) rotate(-38.337140246270565)" fill="none" stroke="#181818" stroke-linecap="round" stroke-linejoin="round" stroke-width="37.063140653347297"/>
          <path d="M41.720355603871212,27.734417907980969l9.736085809268843-3.099023721855701c-.055676686170045,1.755311716307006-.36293930427928,4.727427736557729-3.330805598499865,5.964400490704975-2.707141027089165,1.128685705404678-5.799066613430114-1.834705089368072-6.405280210768979-2.865376768849274Z" fill="none" stroke="#181818" stroke-linecap="round" stroke-linejoin="round" stroke-width="37.063140653347297"/>
          <path d="M28.359106492460342,44.956425382897578l4.444220831560415-9.200622658852808c1.236322626179572,1.247645378554807,3.18316547276936,3.514269066055931,2.040668754580111,6.519873796360116-1.042111253110306,2.741602177196-5.319478445139794,2.949437493186451-6.484889586140525,2.680748862492692Z" fill="none" stroke="#181818" stroke-linecap="round" stroke-linejoin="round" stroke-width="37.063140653347297"/>
          <path d="M44.602410807700835,39.274145207515176l9.037258682680658,8.859415037356484" fill="none" stroke="#181818" stroke-linecap="round" stroke-linejoin="round" stroke-width="37.063140653347297"/>
          <path d="M59.696640183520685,35.120291949039711l-1.460442290900573,10.906484043694945" fill="none" stroke="#181818" stroke-linecap="round" stroke-linejoin="round" stroke-width="37.063140653347297"/>
        </g>
        <g>
          <path d="M33.235046058171065,34.090119000027698c-.390826095839657-.040346359654905-.785577833959906.047322649275884-1.097339537360313.286212725076439-2.075789648879436,1.592410665564785-5.392930446760147,5.602503584588703-5.27908733528966,10.812621304936329.009265301679989.425585188304467.20215423603986.822935025899824.508899433139959,1.118233185958161l.652014522739591.626592963593794c1.011948597969422.972665793501619,2.295407809880089,1.615205570076796,3.680484559929937,1.843165183126075l3.879867874009506.636963959139393c1.768111180470441.290535633663239,1.686604097350937,2.86019894904075-.096365348979816,3.038097949684925l-3.912435775699123.389800084589297c-1.396739273560343.139723263752785-2.718338957730339.699633245709265-3.78989527684098,1.606212401538869l-.690413686189459.584012518534109c-.324843281649919.275277821597228-.542547208880023.660267069250949-.578743580840637,1.083734265798739-.443801243139205,5.192429813728268,2.612513758091154,9.405358203759533,4.583234417870699,11.125444029277787.295995546839549.258167512033651.684397816989986.370677362358037,1.076995205959975.355180391615249l.84176971775014-.033281406969763c1.287946549010485-.051147857414435,2.536259563039494-.460035750557836,3.60466373024974-1.181323501231418l3.869295349159984-2.611718148788896c1.627269831970807-1.098874668421558,3.514770569049688.973663419317745,2.269448937090601,2.491549555019446l-2.325380932490589,2.834498018445629c-.890345057059676,1.08544648595398-1.430337775929729,2.415093761995195-1.548591402310194,3.814004683334133l-.076141129919051.900661029994808c-.035810742660033.424168422324328.081940023839707.850477681851771.35575705616975,1.176087121702039,3.353144655199685,3.989255548530309,8.492153748569763,4.81270590078384,11.10231460328032,4.637865764193521.391969880229226-.02573478584236.746558641879346-.220327804626322,1.01353044778989-.508335155324858l.572299935689443-.618438698749742c.87574986195068-.945497651322512,1.470442187879598-2.117333268924995,1.717366604570088-3.382671010678678l.644385320539186-3.301525877196582c.369981254160848-1.895984988265809,3.111216708781285-1.809035812967522,3.360365913380519.106587358037359l.433858481719653,3.33572666400687c.166238307339881,1.278442839331547.685471074430097,2.485611017666088,1.499468962851097,3.484705733447299l.532024649889536.653466741240663c.248117982929216.304345470163753.589661788580088.521019099543082.979281004679251.571545089376741,2.593762223830709.339903235871134,7.77462980861128-.156211219413308,11.373914854020768-3.924942833099522.293836914590429-.30760403923523.438432919580009-.725591928417089.429507310520421-1.151179341904935l-.01890941315105-.903675935671345c-.029357828068896-1.403593005181392-.483934823609161-2.764787011838052-1.303697605579146-3.904476363368303l-2.141143954930158-2.976171603891089c-1.146620284429446-1.593756078447768.868496616860284-3.542507139943154,2.422855080520094-2.342714487280318l3.696005162479196,2.851681716769235c1.020542227880469.787546986447524,2.240364809180392,1.274721607633182,3.522755266891181,1.407397916971604l.837625912909971.086550112813711c.390621553408891.040339871778997.78598529546889-.047309725012383,1.097545703139986-.286206185702213,2.075428947889122-1.591746112515466,5.393065185039632-5.60249931083581,5.278886039569443-10.812627689836518-.009018868790008-.424901377578863-.202227698850038-.822924356177282-.50910884563018-1.118239828306287l-.651465829549124-.626575559605953c-1.011946974631428-.972665742013305-2.29540943324082-1.615205621570567-3.680622544910875-1.843169559871967l-2.605773938310449-.427513476741296c-1.964523575659769-.323363402012546-1.873989488439292-3.177619913290982.107056132820617-3.375144915696183l2.627651056159266-.262203600976136c1.39687563518055-.139718938500664,2.718478566061094-.699628817475059,3.790033261810095-1.606208024792068l.689864993000811-.584029922522859c.324979231349062-.275260509524742.54300305427023-.659576616178128.578952993329949-1.083727623449704.444137277139816-5.192419155075186-2.612673163339423-9.404687265810935-4.583033122139568-11.125437644379417-.295794251121151-.258161127145286-.684808525210428-.370690389605443-1.077201371740557-.355186930988566l-.84142719034935.033292271587925c-1.288221307529966.051152142245883-2.53646572883008.460029211191795-3.604866649330688,1.181317064847462l-3.869298595870532,2.611718045805901c-1.627269831969897,1.098874668424287-3.514835503148788-.973665478959447-2.269517117899341-2.491551717644143l2.325452360019881-2.834495752836119c.890319978130719-1.084758287418481,1.430269595110076-2.415095924622619,1.548498554499929-3.813331634247334l.076162550210029-.901336344692027c.035878923470591-.424166259696904-.081936777140072-.850477578867867-.355688875360102-1.176084959074615-3.353209589310609-3.989257608174739-8.492243761610553-4.812019761895499-11.102311356569771-4.637865661210526-.392038061049789.025732623214935-.746626822700819.220325641999807-1.013555526719756.509023353853991l-.572346284279774.617748234611099c-.875700266650711.946188218445059-1.470370760371225,2.117335534532685-1.717295177060805,3.382673276285459l-.644385320540096,3.301525877196582c-.370049434969587,1.895982825642022-3.111284889590024,1.809033650343736-3.360365913369606-.106587358038269l-.433858481730567-3.335726664005051c-.166238307328967-1.278442839331547-.685492906639411-2.484922716153051-1.499540390359471-3.48470799905499l-.531978301300114-.652776277099292c-.248161084809908-.30503583132122-.589704890459871-.521709460702368-.979255925760299-.572233287910421-2.59385548355931-.339217199963059-7.774697989409106.156209056787702-11.373918100729497,3.924942730115617-.293901848690439.307601979595347-.438432919570005.725591928417998-.42957549133007,1.151177179280239l.018887992870077.904351250368563c.029382495059508,1.402917793468077.484002592490469,2.764802161288571,1.303790453389411,3.903803314279685l2.14107252741087,2.976169338283398c1.14662353112908,1.593756181429853-.86842843606064,3.542509302570579-2.42278689972045,2.342716649906833l-3.696001915759553-2.851681613788969c-1.020545474590108-.78754708942688-2.240436648629839-1.274710886416869-3.522552347820238-1.407391480586739l-.837968440309851-.086560977431873Z" fill="url(#linear-gradient)" fill-rule="evenodd" stroke-width="0"/>
          <path d="M33.235046058171065,34.090119000027698c-.390826095839657-.040346359654905-.785577833959906.047322649275884-1.097339537360313.286212725076439-2.075789648879436,1.592410665564785-5.392930446760147,5.602503584588703-5.27908733528966,10.812621304936329.009265301679989.425585188304467.20215423603986.822935025899824.508899433139959,1.118233185958161l.652014522739591.626592963593794c1.011948597969422.972665793501619,2.295407809880089,1.615205570076796,3.680484559929937,1.843165183126075l3.879867874009506.636963959139393c1.768111180470441.290535633663239,1.686604097350937,2.86019894904075-.096365348979816,3.038097949684925l-3.912435775699123.389800084589297c-1.396739273560343.139723263752785-2.718338957730339.699633245709265-3.78989527684098,1.606212401538869l-.690413686189459.584012518534109c-.324843281649919.275277821597228-.542547208880023.660267069250949-.578743580840637,1.083734265798739-.443801243139205,5.192429813728268,2.612513758091154,9.405358203759533,4.583234417870699,11.125444029277787.295995546839549.258167512033651.684397816989986.370677362358037,1.076995205959975.355180391615249l.84176971775014-.033281406969763c1.287946549010485-.051147857414435,2.536259563039494-.460035750557836,3.60466373024974-1.181323501231418l3.869295349159984-2.611718148788896c1.627269831970807-1.098874668421558,3.514770569049688.973663419317745,2.269448937090601,2.491549555019446l-2.325380932490589,2.834498018445629c-.890345057059676,1.08544648595398-1.430337775929729,2.415093761995195-1.548591402310194,3.814004683334133l-.076141129919051.900661029994808c-.035810742660033.424168422324328.081940023839707.850477681851771.35575705616975,1.176087121702039,3.353144655199685,3.989255548530309,8.492153748569763,4.81270590078384,11.10231460328032,4.637865764193521.391969880229226-.02573478584236.746558641879346-.220327804626322,1.01353044778989-.508335155324858l.572299935689443-.618438698749742c.87574986195068-.945497651322512,1.470442187879598-2.117333268924995,1.717366604570088-3.382671010678678l.644385320539186-3.301525877196582c.369981254160848-1.895984988265809,3.111216708781285-1.809035812967522,3.360365913380519.106587358037359l.433858481719653,3.33572666400687c.166238307339881,1.278442839331547.685471074430097,2.485611017666088,1.499468962851097,3.484705733447299l.532024649889536.653466741240663c.248117982929216.304345470163753.589661788580088.521019099543082.979281004679251.571545089376741,2.593762223830709.339903235871134,7.77462980861128-.156211219413308,11.373914854020768-3.924942833099522.293836914590429-.30760403923523.438432919580009-.725591928417089.429507310520421-1.151179341904935l-.01890941315105-.903675935671345c-.029357828068896-1.403593005181392-.483934823609161-2.764787011838052-1.303697605579146-3.904476363368303l-2.141143954930158-2.976171603891089c-1.146620284429446-1.593756078447768.868496616860284-3.542507139943154,2.422855080520094-2.342714487280318l3.696005162479196,2.851681716769235c1.020542227880469.787546986447524,2.240364809180392,1.274721607633182,3.522755266891181,1.407397916971604l.837625912909971.086550112813711c.390621553408891.040339871778997.78598529546889-.047309725012383,1.097545703139986-.286206185702213,2.075428947889122-1.591746112515466,5.393065185039632-5.60249931083581,5.278886039569443-10.812627689836518-.009018868790008-.424901377578863-.202227698850038-.822924356177282-.50910884563018-1.118239828306287l-.651465829549124-.626575559605953c-1.011946974631428-.972665742013305-2.29540943324082-1.615205621570567-3.680622544910875-1.843169559871967l-2.605773938310449-.427513476741296c-1.964523575659769-.323363402012546-1.873989488439292-3.177619913290982.107056132820617-3.375144915696183l2.627651056159266-.262203600976136c1.39687563518055-.139718938500664,2.718478566061094-.699628817475059,3.790033261810095-1.606208024792068l.689864993000811-.584029922522859c.324979231349062-.275260509524742.54300305427023-.659576616178128.578952993329949-1.083727623449704.444137277139816-5.192419155075186-2.612673163339423-9.404687265810935-4.583033122139568-11.125437644379417-.295794251121151-.258161127145286-.684808525210428-.370690389605443-1.077201371740557-.355186930988566l-.84142719034935.033292271587925c-1.288221307529966.051152142245883-2.53646572883008.460029211191795-3.604866649330688,1.181317064847462l-3.869298595870532,2.611718045805901c-1.627269831969897,1.098874668424287-3.514835503148788-.973665478959447-2.269517117899341-2.491551717644143l2.325452360019881-2.834495752836119c.890319978130719-1.084758287418481,1.430269595110076-2.415095924622619,1.548498554499929-3.813331634247334l.076162550210029-.901336344692027c.035878923470591-.424166259696904-.081936777140072-.850477578867867-.355688875360102-1.176084959074615-3.353209589310609-3.989257608174739-8.492243761610553-4.812019761895499-11.102311356569771-4.637865661210526-.392038061049789.025732623214935-.746626822700819.220325641999807-1.013555526719756.509023353853991l-.572346284279774.617748234611099c-.875700266650711.946188218445059-1.470370760371225,2.117335534532685-1.717295177060805,3.382673276285459l-.644385320540096,3.301525877196582c-.370049434969587,1.895982825642022-3.111284889590024,1.809033650343736-3.360365913369606-.106587358038269l-.433858481730567-3.335726664005051c-.166238307328967-1.278442839331547-.685492906639411-2.484922716153051-1.499540390359471-3.48470799905499l-.531978301300114-.652776277099292c-.248161084809908-.30503583132122-.589704890459871-.521709460702368-.979255925760299-.572233287910421-2.59385548355931-.339217199963059-7.774697989409106.156209056787702-11.373918100729497,3.924942730115617-.293901848690439.307601979595347-.438432919570005.725591928417998-.42957549133007,1.151177179280239l.018887992870077.904351250368563c.029382495059508,1.402917793468077.484002592490469,2.764802161288571,1.303790453389411,3.903803314279685l2.14107252741087,2.976169338283398c1.14662353112908,1.593756181429853-.86842843606064,3.542509302570579-2.42278689972045,2.342716649906833l-3.696001915759553-2.851681613788969c-1.020545474590108-.78754708942688-2.240436648629839-1.274710886416869-3.522552347820238-1.407391480586739l-.837968440309851-.086560977431873Z" fill="url(#linear-gradient-2)" fill-rule="evenodd" stroke-width="0"/>
          <path d="M57.194568022630847,53.570733686500716l-15.177432922369917,21.882890964966464,8.436814309619876,2.610160724637353,1.700447069750226-3.246903866008324,5.040171542999815-21.246147823595493Z" fill="#d23e27" stroke-width="0"/>
          <path d="M61.980235722140606,50.421689852509189l13.21611710085017,13.091608494581124,5.844237502590659-6.310657306678877-19.060354603440828-6.780951187902247Z" fill="#d23e27" stroke-width="0"/>
          <polygon points="54.818470237471047 51.259138745502241 30.283468019481006 55.912331433629333 31.833828607870601 60.753616616897489 54.818470237471047 51.259138745502241" fill="#febb12" opacity=".5" stroke-width="0"/>
          <polygon points="69.844266807641361 27.454864694100252 58.79803300731146 49.939076966649736 58.56230933839106 37.320539696627748 62.064727495790066 25.286085401638047 69.844266807641361 27.454864694100252" fill="#febb12" opacity=".5" stroke-width="0"/>
          <path d="M61.385042323380731,49.017867969690997l-32.331480961110174,12.073541720004869,4.958146962970204,4.843050594089618,27.373333998139969-16.916592314094487Z" fill="url(#linear-gradient-3)" stroke-width="0"/>
          <polygon points="60.365883150070658 54.310632989364422 33.086308650710635 41.411578507008926 30.038322531680024 46.852643369305952 60.365883150070658 54.310632989364422" fill="url(#linear-gradient-4)" opacity=".600000023841858" stroke-width="0"/>
          <polygon points="59.387849213280788 54.918243204259852 72.867982142911387 29.468023172393259 68.048382539511294 26.971920791777848 59.387849213280788 54.918243204259852" fill="url(#linear-gradient-5)" opacity=".600000023841858" stroke-width="0"/>
          <polygon points="57.653036706131388 57.445670279645128 53.54982895655121 27.550745521270983 50.106345472090652 31.940561643717047 57.653036706131388 57.445670279645128" fill="url(#linear-gradient-6)" opacity=".300000011920929" stroke-width="0"/>
          <path d="M84.459757366820668,46.7679121741985l-1.715566445590412-6.337118384024507-22.420538872049292,11.85492426534347,4.919281779679295,2.71191634810566,19.216823537960408-8.229722229424624Z" fill="url(#linear-gradient-7)" stroke-width="0"/>
          <path d="M59.797006310231154,55.25087546832674l18.865683721739515,17.957266204737607" fill="none" stroke="url(#radial-gradient)" stroke-linecap="round" stroke-width="12.262065894275"/>
          <path d="M59.797006310231154,55.25087546832674l18.865683721739515,17.957266204737607" fill="none" stroke="url(#linear-gradient-8)" stroke-linecap="round" stroke-width="12.262065894275"/>
          <path d="M213.80293170062032,125.524098868045257c-1.453675966700757,45.82985503632608-39.784517561320172,81.804030618293837-85.614788175918875,80.350341469880732-45.830264121190339-1.453688942448025-81.804226792040936-39.784736656897621-80.350550825340179-85.614591693223701,1.453688736479307-45.830257627781066,39.784530491109763-81.804233331409705,85.614794612300102-80.350544388959861,45.830270614598703,1.453689148412195,81.804233125438259,39.784536984521765,80.350544388958951,85.614794612302831Z" fill="url(#radial-gradient-2)" stroke-width="0"/>
          <path d="M213.80293170062032,125.524098868045257c-1.453675966700757,45.82985503632608-39.784517561320172,81.804030618293837-85.614788175918875,80.350341469880732-45.830264121190339-1.453688942448025-81.804226792040936-39.784736656897621-80.350550825340179-85.614591693223701,1.453688736479307-45.830257627781066,39.784530491109763-81.804233331409705,85.614794612300102-80.350544388959861,45.830270614598703,1.453689148412195,81.804233125438259,39.784536984521765,80.350544388958951,85.614794612302831Z" fill="url(#radial-gradient-3)" stroke-width="0"/>
          <path d="M213.80293170062032,125.524098868045257c-1.453675966700757,45.82985503632608-39.784517561320172,81.804030618293837-85.614788175918875,80.350341469880732-45.830264121190339-1.453688942448025-81.804226792040936-39.784736656897621-80.350550825340179-85.614591693223701,1.453688736479307-45.830257627781066,39.784530491109763-81.804233331409705,85.614794612300102-80.350544388959861,45.830270614598703,1.453689148412195,81.804233125438259,39.784536984521765,80.350544388958951,85.614794612302831Z" fill="url(#radial-gradient-4)" stroke-width="0"/>
          <ellipse cx="123.937263330888072" cy="94.820289106377913" rx="34.278258402915611" ry="45.670880158052881" transform="translate(-32.091810183767507 97.3224254586152) rotate(-38.337140246270565)" fill="url(#radial-gradient-5)" stroke-width="0"/>
          <path d="M41.720355603871212,27.734417907980969l9.736085809268843-3.099023721855701c-.055676686170045,1.755311716307006-.36293930427928,4.727427736557729-3.330805598499865,5.964400490704975-2.707141027089165,1.128685705404678-5.799066613430114-1.834705089368072-6.405280210768979-2.865376768849274Z" fill="#ffd35d" stroke-width="0"/>
          <path d="M28.359106492460342,44.956425382897578l4.444220831560415-9.200622658852808c1.236322626179572,1.247645378554807,3.18316547276936,3.514269066055931,2.040668754580111,6.519873796360116-1.042111253110306,2.741602177196-5.319478445139794,2.949437493186451-6.484889586140525,2.680748862492692Z" fill="url(#linear-gradient-9)" stroke-width="0"/>
          <path d="M44.602410807700835,39.274145207515176l9.037258682680658,8.859415037356484" fill="none" stroke="url(#linear-gradient-10)" stroke-linecap="round" stroke-width=".681225911212656"/>
          <path d="M59.696640183520685,35.120291949039711l-1.460442290900573,10.906484043694945" fill="none" stroke="url(#linear-gradient-11)" stroke-linecap="round" stroke-width=".681225911212656"/>
        </g>
      </g>
      <g id="AC">
        <path d="M144.1162109375,130.23291015625c-.2451171875,15.1318359375-.3427734375,30.15625-.2998046875,45.0703125.0419921875,14.9169921875.298828125,29.8671875.76953125,44.85302734375-.28515625,1.0009765625-.78125,2.0029296875-1.490234375,3.001953125-.7138671875.8583984375-1.7451171875,1.7177734375-3.09765625,2.578125-1.35546875.8603515625-3.244140625,1.43408203125-5.6689453125,1.728515625-2.427734375.29150390625-4.9599609375.47607421875-7.5986328125.55712890625-2.64306640625.078125-5.10546875-.0224609375-7.3876953125-.30029296875-2.2861328125-.28076171875-4.251953125-.91455078125-5.8935546875-1.90966796875-1.6455078125-.99267578125-2.68359375-2.48876953125-3.1171875-4.48779296875-.29052734375-.99609375-.4736328125-3.06640625-.552734375-6.20751953125-.0830078125-3.1376953125-.09375-6.92138671875-.0322265625-11.34765625.0576171875-4.4228515625.1875-9.31396484375.38671875-14.66748046875.1982421875-5.35302734375.50439453125-10.740234375.9169921875-16.16748046875.26953125-5.423828125.5751953125-10.70703125.91845703125-15.8466796875.34033203125-5.1396484375.64794921875-9.70703125.9248046875-13.705078125.41455078125-4.7119140625.83056640625-9.06494140625,1.24755859375-13.064453125-.146484375-.85595703125.0654296875-1.56884765625.6357421875-2.14306640625.4267578125-.5693359375,1.1015625-1.03662109375,2.0302734375-1.39697265625.92578125-.357421875,2.38720703125-.5419921875,4.3876953125-.5478515625,1.9970703125-.005859375,4.2822265625-.01220703125,6.8515625-.01953125s5.03173828125.0927734375,7.3876953125.30029296875c2.35546875.20703125,4.390625.5966796875,6.1044921875,1.16015625,1.71484375.5673828125,2.57421875,1.42138671875,2.5771484375,2.56201171875ZM146.1767578125,101.96484375c.0107421875,3.71337890625-1.515625,6.892578125-4.576171875,9.541015625-3.0634765625,2.6513671875-6.73291015625,3.97998046875-11.0146484375,3.9921875-4.2822265625.01220703125-7.962890625-1.2958984375-11.0380859375-3.9296875-3.07861328125-2.630859375-4.6201171875-5.80126953125-4.63037109375-9.5146484375-.01123046875-3.85400390625,1.51220703125-7.14013671875,4.57568359375-9.86181640625,3.0595703125-2.71875,6.732421875-4.08740234375,11.0146484375-4.099609375s7.958984375,1.3359375,11.0380859375,4.037109375c3.0751953125,2.7041015625,4.6201171875,5.9814453125,4.630859375,9.83544921875Z" fill="none" stroke="#181818" stroke-linecap="round" stroke-linejoin="round" stroke-width="46.593662261962891"/>
        <path d="M144.1162109375,130.23291015625c-.2451171875,15.1318359375-.3427734375,30.15625-.2998046875,45.0703125.0419921875,14.9169921875.298828125,29.8671875.76953125,44.85302734375-.28515625,1.0009765625-.78125,2.0029296875-1.490234375,3.001953125-.7138671875.8583984375-1.7451171875,1.7177734375-3.09765625,2.578125-1.35546875.8603515625-3.244140625,1.43408203125-5.6689453125,1.728515625-2.427734375.29150390625-4.9599609375.47607421875-7.5986328125.55712890625-2.64306640625.078125-5.10546875-.0224609375-7.3876953125-.30029296875-2.2861328125-.28076171875-4.251953125-.91455078125-5.8935546875-1.90966796875-1.6455078125-.99267578125-2.68359375-2.48876953125-3.1171875-4.48779296875-.29052734375-.99609375-.4736328125-3.06640625-.552734375-6.20751953125-.0830078125-3.1376953125-.09375-6.92138671875-.0322265625-11.34765625.0576171875-4.4228515625.1875-9.31396484375.38671875-14.66748046875.1982421875-5.35302734375.50439453125-10.740234375.9169921875-16.16748046875.26953125-5.423828125.5751953125-10.70703125.91845703125-15.8466796875.34033203125-5.1396484375.64794921875-9.70703125.9248046875-13.705078125.41455078125-4.7119140625.83056640625-9.06494140625,1.24755859375-13.064453125-.146484375-.85595703125.0654296875-1.56884765625.6357421875-2.14306640625.4267578125-.5693359375,1.1015625-1.03662109375,2.0302734375-1.39697265625.92578125-.357421875,2.38720703125-.5419921875,4.3876953125-.5478515625,1.9970703125-.005859375,4.2822265625-.01220703125,6.8515625-.01953125s5.03173828125.0927734375,7.3876953125.30029296875c2.35546875.20703125,4.390625.5966796875,6.1044921875,1.16015625,1.71484375.5673828125,2.57421875,1.42138671875,2.5771484375,2.56201171875ZM146.1767578125,101.96484375c.0107421875,3.71337890625-1.515625,6.892578125-4.576171875,9.541015625-3.0634765625,2.6513671875-6.73291015625,3.97998046875-11.0146484375,3.9921875-4.2822265625.01220703125-7.962890625-1.2958984375-11.0380859375-3.9296875-3.07861328125-2.630859375-4.6201171875-5.80126953125-4.63037109375-9.5146484375-.01123046875-3.85400390625,1.51220703125-7.14013671875,4.57568359375-9.86181640625,3.0595703125-2.71875,6.732421875-4.08740234375,11.0146484375-4.099609375s7.958984375,1.3359375,11.0380859375,4.037109375c3.0751953125,2.7041015625,4.6201171875,5.9814453125,4.630859375,9.83544921875Z" fill="#fff" stroke-width="0"/>
      </g>
    </g>
  </a>
</svg>