<?xml version="1.0" encoding="UTF-8"?>
<svg id="Pattern" xmlns="http://www.w3.org/2000/svg" xmlns:xlink="http://www.w3.org/1999/xlink" viewBox="0 0 280 280">
  <defs>
    <radialGradient id="radial-gradient" cx="180.290654699457264" cy="124.168829432601342" fx="180.290654699457264" fy="124.168829432601342" r="147.26515474996387" gradientUnits="userSpaceOnUse">
      <stop offset="0" stop-color="#b6aaa7"/>
      <stop offset=".254363461884818" stop-color="#a9988f"/>
      <stop offset="1" stop-color="#876c59"/>
    </radialGradient>
    <linearGradient id="A5" x1="152.17250256261741" y1="154.82373046875" x2="256.083566825124763" y2="154.82373046875" gradientUnits="userSpaceOnUse">
      <stop offset="0" stop-color="#8e5ba6"/>
      <stop offset=".438390020007055" stop-color="#a25d99"/>
      <stop offset="1" stop-color="#b6608e"/>
    </linearGradient>
  </defs>
  <a xlink:href="https://www.notion.so/dmmnotes/downregulate-9d9fea1a15d24bcf8cecbaf4dd8cf00d?pvs=4">
    <g>
      <g>
        <path d="M190.689801369770066,54.045201377442027l-13.826796491610367-2.238204506055808c-1.122768988720054-.181747566134618-1.885617576799632-1.23926718058101-1.703870010659557-2.362036169295607l.614185899669792-3.794212467981197c1.050481006570408-6.489481661225-3.358700198449696-12.60182909271316-9.848181859670149-13.652310099280839l-33.853606882959866-5.480032595954981c-6.489481661229547-1.05048100656677-12.601829092709522,3.358700198449696-13.652310099289934,9.848181859673787l-.614185899669792,3.794212467981197c-.18174756613007,1.122768988714597-1.2392671805801,1.885617576792356-2.36203616929015,1.703870010657738l-13.826796491620371-2.238204506056718c-9.733174769369725-1.575551910396825-18.985769325539877,5.098866792400258-20.561321235939431,14.832041561774531l-27.141835852030454,167.672185325076498c-1.575551910389549,9.733174769371544,5.098866792400258,18.985769325547153,14.832041561769984,20.561321235943069l89.073598005110398,14.418736006312429c9.733174769369725,1.575551910396825,18.985769325539877-5.098866792400258,20.56132123594125-14.832041561774531l27.14183585201863-167.672185325073769c1.575551910401373-9.733174769375182-5.098866792400258-18.985769325548972-14.832041561769984-20.561321235945798Z" fill="url(#radial-gradient)" stroke-width="0"/>
        <path d="M130.155076047210059,26.36370849609375c.6318359375,0,1.2724609375.050476074217841,1.91650390625.154724121092841l33.853515625,5.47998046875c6.48974609375,1.050476074219659,10.89892578125,7.162841796875,9.84814453125,13.65234375l-.6142578125,3.794189453125c-.181640625,1.122802734375.5810546875,2.180297851563409,1.7041015625,2.362060546875l13.82666015625,2.238220214844659c9.7333984375,1.575500488280341,16.40771484375,10.828125,14.83203125,20.561279296875l-27.1416015625,167.672180175780341c-1.42041015625,8.7744140625-9.07861328125,15.0625-17.705078125,15.0625-.9423828125,0-1.8974609375-.0751953125-2.8564453125-.230407714842841l-89.07373046875-14.418762207032159c-9.73291015625-1.575561523436591-16.4072265625-10.828125-14.83203125-20.561340332030341l27.14208984375-167.67218017578125c1.42041015625-8.774291992188409,9.07861328125-15.06292724609375,17.70458984375-15.06243896484375.9423828125.000061035155341,1.8974609375.0751953125,2.8564453125.23040771484375l13.8271484375,2.23822021484375c.111328125.01806640625.22216796875.026794433592841.33154296875.026794433592841.9921875,0,1.86669921875-.719360351561591,2.0302734375-1.730651855467841l.6142578125-3.794250488282159c.9462890625-5.845397949217841,5.9990234375-10.002868652342841,11.73583984375-10.002868652342841M130.155076047210059,9.36370849609375c-10.32763671875,0-19.470703125,5.367126464842841-24.58740234375,13.68115234375l-1.2353515625-.199951171875c-1.8388671875-.2977294921875-3.7138671875-.448791503907159-5.57177734375-.4488525390625-8.20263671875-.00048828125-16.1943359375,2.92425537109375-22.50341796875,8.2353515625-6.3955078125,5.38397216796875-10.6513671875,12.88104248046875-11.9833984375,21.1103515625l-27.142578125,167.67236328125c-3.07666015625,19.01171875,9.88671875,36.981994628905341,28.8974609375,40.0594482421875l89.07373046875,14.41876220703125c1.84033203125.2978515625,3.71533203125.448852539061591,5.57275390625.448852539061591,8.2021484375,0,16.19384765625-2.924682617186591,22.50244140625-8.2353515625,6.39599609375-5.383911132811591,10.65185546875-12.881042480467841,11.984375-21.110473632811591l27.1416015625-167.67236328125c1.4873046875-9.18975830078125-.70361328125-18.424072265625-6.16943359375-26.001708984375-5.46630859375-7.57763671875-13.5380859375-12.570068359375-22.72802734375-14.05767822265625l-1.24755859375-.201965332032159c-.8642578125-3.635070800780341-2.44287109375-7.1005859375-4.6943359375-10.22216796875-4.5166015625-6.261291503905341-11.201171875-10.388977050780341-18.82275390625-11.622619628905341l-33.853515625-5.47998046875c-1.529296875-.24761962890625-3.08837890625-.3731689453125-4.6328125-.3731689453125h0Z" fill="#181818" stroke-width="0"/>
      </g>
      <g opacity=".39">
        <line x1="97.567250444139972" y1="59.062446453879602" x2="72.290654699459992" y2="216.849680496434303" fill="none" stroke="#5b514f" stroke-linecap="round" stroke-width="12"/>
      </g>
      <g>
        <g opacity=".6">
          <path d="M156.312040707210144,66.459845172801579c-11.479214660420439,26.819463640157664-26.610359120199973,51.731982865699138-42.62235183724988,75.996447974376679-.00020675650012-.000110083751679-10.42891769400012-16.937549048594519-10.42891769400012-16.937549048594519,12.131409444119527-2.630242551198535,24.314101574639608-4.946675698201943,36.552733858179636-6.987612273585,8.333362872030193-1.451648209112136,28.636546633500075-4.414539140723718,37.241595861340102-5.79144423388243-.000384407019737.000186878560271-13.360735969519737,21.02087779652993-13.360735969519737,21.02087779652993-19.361245769679954,30.069335071101705-40.145812797470171,59.489474832281303-65.320047674280431,85.133638822906505,11.299794237790593-34.111122134837387,27.965774862760554-66.048372826939158,45.858825384239935-97.012304436183513.000284790040496.000125574215417,11.6321207275505,17.179324792963598,11.6321207275505,17.179324792963598-4.065429687510004.751098632813409-8.132812500010004,1.493652343750909-12.208007812510004,2.18768310546875-19.467005025750041,3.489016404126232-43.76199159088992,6.279428346136228-63.576761099469877,8.691220258722751.000100943219877.000063920965658,16.330179068219877-20.203610395440592,16.330179068219877-20.203610395440592,18.411673549810075-22.498515229351142,37.70296306120963-44.347208462422714,59.9013671875-63.276672363282159h0Z" fill="#363639" stroke-width="0"/>
        </g>
        <g opacity=".26">
          <path d="M161.061064144710144,73.316046344676579c-11.479582154890522,26.819142085741987-26.610588553589878,51.732136086126047-42.622352393410438,75.996447676501703-.000206200339562-.000109785876703-10.429405419089562-16.937548750719543-10.429405419089562-16.937548750719543,12.132090882410012-2.630275060964777,24.314223790000142-4.946704371418491,36.553222142159939-6.987612243186959,8.332980831500208-1.451628821426311,28.636310785919704-4.414516233679024,37.241107579249729-5.791444344572483-.000384408909667.000186958852282-13.360735971409667,21.020877876821942-13.360735971409667,21.020877876821942-19.361318438600392,30.069139249928412-40.145581786689945,59.489935204177527-65.320047674690613,85.133638795749903,11.300060742990354-34.11117904080038,27.96597193901016-66.048229927165266,45.859313038590699-97.012304720001339.000285417349914.000125885188936,11.632121354849914,17.179325103938936,11.632121354849914,17.179325103938936-4.06591796875.7510986328125-8.1328125,1.49365234375-12.20849609375,2.187683105467841-19.466521430110333,3.489017764730306-43.762205055340019,6.279427797315293-63.576761108750361,8.691220299929228.000100952500361.000063879759182,16.330179077500361-20.203610436647068,16.330179077500361-20.203610436647068,18.412478994810044-22.498608244477509,37.702781935259736-44.347013591879659,59.90185546875-63.276672363282159h0Z" fill="#363639" stroke-width="0"/>
        </g>
      </g>
      <g opacity=".51">
        <rect x="170.873510650806963" y="74.553027046510095" width="24.025450663596217" height="18.913830725890023" rx="9.456905256378842" ry="9.456905256378842" transform="translate(26.979101803137326 -43.261465406560319) rotate(14.553753333043689)" fill="#363639" opacity=".23" stroke-width="0"/>
        <rect x="166.670476026755324" y="68.730648706993463" width="20.425531874939139" height="16.079825461858945" rx="8.039904197348324" ry="8.039904197348324" transform="translate(24.967308827015501 -41.985279051374093) rotate(14.553753381278481)" fill="#fff" stroke-width="0"/>
      </g>
      <g>
        <path d="M209.946579953460059,215.248046875c-2.08056640625,0-4.110107421875-.7216796875-5.732177734375-2.0615234375l-48.77392578125-40.29736328125c-2.766357421875-2.28564453125-3.91064453125-5.99658203125-2.912109375-9.443359375.998779296875-3.4462890625,3.949462890625-5.970703125,7.50927734375-6.42333984375l7.031494140625-.89404296875-5.372802734375-42.25537109375c-.3984375-3.134765625.447509765625-6.23681640625,2.3818359375-8.7353515625,1.935302734375-2.4990234375,4.727783203125-4.09423828125,7.863525390625-4.4921875l48.374267578125-6.1513671875c.494384765625-.06298828125.997802734375-.0947265625,1.495849609375-.0947265625,5.938232421875,0,10.981689453125,4.44384765625,11.731689453125,10.3369140625l5.373291015625,42.25634765625,7.031494140625-.89404296875c.380615234375-.04833984375.760498046875-.07177734375,1.1376953125-.07177734375,3.149169921875,0,6.106201171875,1.65478515625,7.739990234375,4.41162109375,1.82958984375,3.0869140625,1.650390625,6.9658203125-.4560546875,9.87109375l-37.13671875,51.22119140625c-1.458984375,2.0126953125-3.685302734375,3.33203125-6.151123046875,3.6455078125-.378662109375.0478515625-.758056640625.07177734375-1.135498046875.07177734375Z" fill="url(#A5)" stroke-width="0"/>
        <path d="M221.811814328460059,103.39923095703125c1.40380859375,0,2.6220703125,1.0440673828125,2.8037109375,2.4732666015625l6.50830078125,51.183532714842841,15.9599609375-2.029418945311591-37.13720703125,51.22125244140625-48.77392578125-40.29718017578125,15.9599609375-2.02935791015625-6.50830078125-51.18359375c-.197265625-1.5504150390625.89990234375-2.967041015625,2.4501953125-3.1641845703125l48.376953125-6.1513671875c.12109375-.01544189453125.2412109375-.02294921875.3603515625-.02294921875M221.811814328460059,85.399291992186591c-.8759765625,0-1.7607421875.056030273438409-2.63037109375.166564941407159l-48.37744140625,6.1514892578125c-5.51904296875.701721191405341-10.43505859375,3.51092529296875-13.841796875,7.909912109375-3.40673828125,4.399658203125-4.896484375,9.8626708984375-4.19384765625,15.38275146484375l4.25048828125,33.426147460936591c-6.26318359375,1.483581542969659-11.31689453125,6.229858398438409-13.13525390625,12.505187988282159-1.9970703125,6.89337158203125.29150390625,14.314636230467841,5.82421875,18.8858642578125l48.77392578125,40.297180175780341c3.24365234375,2.679931640625,7.3037109375,4.12353515625,11.46435546875,4.12353515625.75537109375,0,1.51318359375-.047485351561591,2.27099609375-.143798828125,4.931640625-.627075195311591,9.38427734375-3.265808105467841,12.30224609375-7.29052734375l37.13720703125-51.22119140625c4.212890625-5.810485839842841,4.5712890625-13.568237304686591.91259765625-19.742492675780341-3.267578125-5.5135498046875-9.1826171875-8.8233642578125-15.48046875-8.82379150390625-.1220703125,0-.244140625.00128173828125-.3662109375.00372314453125l-4.25048828125-33.4278564453125c-1.3203125-10.377746582032159-10.2021484375-18.202697753907159-20.66015625-18.202697753907159h0Z" fill="#181818" stroke-width="0"/>
      </g>
    </g>
  </a>
</svg>