<?xml version="1.0" encoding="UTF-8"?>
<svg id="Pattern" xmlns="http://www.w3.org/2000/svg" xmlns:xlink="http://www.w3.org/1999/xlink" viewBox="0 0 280 280">
  <defs>
    <linearGradient id="linear-gradient" x1="-271.185635732608716" y1="-5971.423154451214032" x2="-318.523206099651702" y2="-5998.530994849154013" gradientTransform="translate(-5939.865148409765425 87.294994994911008) rotate(-93.164895084524758) scale(1 -1)" gradientUnits="userSpaceOnUse">
      <stop offset="0" stop-color="#ffc810"/>
      <stop offset=".755599975585938" stop-color="#ef4e26"/>
    </linearGradient>
    <linearGradient id="linear-gradient-2" x1="-314.48158969367978" y1="-6002.413133981786814" x2="-296.679427338281414" y2="-5986.633684766307852" gradientTransform="translate(-5939.865148409765425 87.294994994911008) rotate(-93.164895084524758) scale(1 -1)" gradientUnits="userSpaceOnUse">
      <stop offset="0" stop-color="#d23e27"/>
      <stop offset="1" stop-color="#d23e27" stop-opacity="0"/>
    </linearGradient>
    <linearGradient id="linear-gradient-3" x1="-313.919890664475133" y1="-5973.729165657718113" x2="-295.632208744453351" y2="-5974.354507486597868" xlink:href="#linear-gradient-2"/>
    <linearGradient id="linear-gradient-4" x1="-299.301684365544133" y1="-5962.587825891250759" x2="-289.803737037136614" y2="-5978.228352753950276" xlink:href="#linear-gradient-2"/>
    <linearGradient id="linear-gradient-5" x1="-273.686987252628569" y1="-5987.746331556902078" x2="-290.011246680318777" y2="-5996.014044257002752" xlink:href="#linear-gradient-2"/>
    <linearGradient id="linear-gradient-6" x1="-279.371529981224739" y1="-5969.675651951814871" x2="-287.280226975885398" y2="-5986.177093105883614" xlink:href="#linear-gradient-2"/>
    <linearGradient id="linear-gradient-7" x1="-284.341494469693316" y1="-6013.874088963159011" x2="-294.152752977188243" y2="-5996.476842518985904" xlink:href="#linear-gradient-2"/>
    <radialGradient id="radial-gradient" cx="-5999.376464928118367" cy="4444.381791317087846" fx="-5999.376464928118367" fy="4444.381791317087846" r="6.473513540692625" gradientTransform="translate(8304.037623954087394 20924.739322803412506) rotate(43.514105469913268) scale(3.39336006322049 -2.127890109186672)" gradientUnits="userSpaceOnUse">
      <stop offset="0" stop-color="#e1dfe1"/>
      <stop offset=".394388008117676" stop-color="#c2bec5"/>
    </radialGradient>
    <linearGradient id="linear-gradient-8" x1="-310.75893867211289" y1="-5993.755704782387511" x2="-309.140560269359696" y2="-5995.070668084198587" gradientTransform="translate(-5939.865148409765425 87.294994994911008) rotate(-93.164895084524758) scale(1 -1)" gradientUnits="userSpaceOnUse">
      <stop offset="0" stop-color="#a3a1a8"/>
      <stop offset="1" stop-color="#b8b6bd" stop-opacity="0"/>
    </linearGradient>
    <radialGradient id="radial-gradient-2" cx="-6462.870171413904245" cy="358.164274631786611" fx="-6462.870171413904245" fy="358.164274631786611" r="6.473513598885692" gradientTransform="translate(-120956.841041479841806 62734.881174728288897) rotate(147.449103346976045) scale(21.016598951055709 -34.567501017196129)" gradientUnits="userSpaceOnUse">
      <stop offset=".00558659017086" stop-color="#5c266f"/>
      <stop offset="1" stop-color="#2e265b"/>
    </radialGradient>
    <radialGradient id="radial-gradient-3" cx="-6436.703612720193632" cy="409.875606857993262" fx="-6436.703612720193632" fy="409.875606857993262" r="6.473513598885818" gradientTransform="translate(-112479.685162213441799 96113.659903465508251) rotate(135.370108729045199) scale(22.936198784939187 -26.321800119514727)" gradientUnits="userSpaceOnUse">
      <stop offset=".71875" stop-color="#29233a" stop-opacity="0"/>
      <stop offset="1" stop-color="#29233a"/>
    </radialGradient>
    <radialGradient id="radial-gradient-4" cx="-5644.022714583650668" cy="578.30183188546107" fx="-5644.022714583650668" fy="578.30183188546107" r="6.473513598887519" gradientTransform="translate(103349.79189824781497 -38774.045254494049004) rotate(-25.614998341097486) scale(19.476000259430066 -16.532499694880119)" gradientUnits="userSpaceOnUse">
      <stop offset=".809844970703125" stop-color="#672b80" stop-opacity="0"/>
      <stop offset="1" stop-color="#672b80"/>
    </radialGradient>
    <radialGradient id="radial-gradient-5" cx="-6098.721344018495074" cy="1639.400124074019914" fx="-6098.721344018495074" fy="1639.400124074019914" r="6.473513598890115" gradientTransform="translate(-14616.319339623376436 87451.193787817421253) rotate(92.148493896120229) scale(14.411199570559591 -6.984130141550685)" gradientUnits="userSpaceOnUse">
      <stop offset="0" stop-color="#67568f"/>
      <stop offset=".727772979736328" stop-color="#67568f" stop-opacity="0"/>
    </radialGradient>
    <linearGradient id="linear-gradient-9" x1="-280.797196191981129" y1="-5963.266895248990295" x2="-290.863511824034504" y2="-5960.030139341528411" gradientTransform="translate(-5939.865148409765425 87.294994994911008) rotate(-93.164895084524758) scale(1 -1)" gradientUnits="userSpaceOnUse">
      <stop offset="0" stop-color="#ffd35d"/>
      <stop offset="1" stop-color="#ffd35d" stop-opacity="0"/>
    </linearGradient>
    <linearGradient id="linear-gradient-10" x1="-284.03681653665717" y1="-5972.742711822987076" x2="-288.63883310127369" y2="-5979.317343712787078" gradientTransform="translate(-5939.865148409765425 87.294994994911008) rotate(-93.164895084524758) scale(1 -1)" gradientUnits="userSpaceOnUse">
      <stop offset="0" stop-color="#febb12"/>
      <stop offset="1" stop-color="#febb12" stop-opacity="0"/>
    </linearGradient>
    <linearGradient id="linear-gradient-11" x1="-277.431113017817552" y1="-5986.376656584539887" x2="-285.433672714118075" y2="-5986.975652771929163" xlink:href="#linear-gradient-10"/>
  </defs>
  <a xlink:href="https://www.notion.so/dmmnotes/vicarious-65d8380137f340cb861438dd5c338245?pvs=4">
    <g>
      <g>
        <g>
          <path d="M28.680971152980419,36.497565621575632c-.373318366290732-.005944833917056-.739789421931164.109624446540693-1.015216532620798.361504153624082-1.833714473549662,1.678801989090061-4.643093059240528,5.748821114872044-4.105387648460237,10.671765049637543.043890034419746.402130375774505.259283787639106.762378405682284.574042342430403,1.016620420572508l.668957702619991.539382537990605c1.038259205599388.837303075425552,2.306311769189961,1.339676250661796,3.636353493030583,1.441187434901622l3.725572502949035.282842491321389c1.697818202270355.129143453171309,1.832701856929816,2.568529948744981.159472158160497,2.884072425496925l-3.671676848270181.691866657315586c-1.310741759570192.247530901920072-2.515676786709264.886645673767816-3.455292942359847,1.833313565992285l-.60541206580001.60984765372541c-.284808571389476.287406899199596-.459136728829435.669834918756351-.458459333739484,1.07371166043049.008332515949405,4.952215126867486,3.249343977368881,8.688326482886623,5.256934004999493,10.154084000339935.301518055609449.219978049546626.678496657490541.29443895827535,1.048883763319282.24737160758923l.794144076320663-.100968697460303c1.215058487789975-.154700501413572,2.363076293479935-.644797473031758,3.314998352559996-1.415792737540869l3.447486787520575-2.791762340721107c1.449833603609477-1.17456781925921,3.407724499179494.631718016501509,2.354051629109563,2.171439680708318l-1.967503319140633,2.875262871572886c-.753306356818939,1.101045526711459-1.154788436820127,2.404361573481765-1.151301077788958,3.738447103810358l.002239700619612.858924973892499c.001100328599932.404508759695091.147751629269806.798372528186519.433838844139245,1.084026952088607,3.503558336809874,3.499869742618102,8.436529024191259,3.855353390574237,10.893100488759956,3.474447973076167.368948242280567-.056707551214458.688574402140148-.270185948530525.917546516130642-.564868220476455l.490754797319823-.632691800241446c.751037699860717-.967353746903427,1.217325459870153-2.125785667665696,1.346671032900304-3.344037268550892l.337592181849686-3.178677452338889c.193801422899924-1.825430110053276,2.796061691469731-1.969319721652937,3.190002044320863-.176388257817052l.685986803939159,3.122079584521998c.262870622549599,1.196564363551261.854034168620274,2.296525477393516,1.70707736858003,3.175183031824417l.557582727939916.57472493153c.260003646910263.267644802574068.601217517580153.444582652245117.97423335880012.460263975190173,2.483523062909626.107747389683027,7.347231829229713-.789434726557374,10.443628833510047-4.654242988997794.252787805839944-.31545102740165.355182817059358-.723085584899309.311614180809556-1.125246098197749l-.092471370179737-.853935695899054c-.143615206289724-1.326337288634932-.686280134090339-2.577447586470043-1.556382549750197-3.588728203590108l-2.272577639068913-2.640811456549272c-1.217002348001188-1.41416674598986.529869441658775-3.425304060399867,2.100361906399485-2.417742420395371l3.734268033278568,2.394653748528981c1.031118908071221.661344820241538,2.226107131390563,1.021887407325266,3.451074675711425,1.041668891492009l.800109535679439.012815895915992c.373124193760304.005955570510196.740176225950563-.109645834517323,1.015412246209962-.361514975423233,1.833427841500452-1.678143102406466,4.643220966539957-5.748828187394793,4.105196558019998-10.671754483470067-.043600313048955-.401503358016271-.259352453279462-.762362242769996-.57424113811885-1.016609428346783l-.668436827080768-.539411339324033c-1.038257664549747-.837303160641568-2.306313310240512-1.339676165455785-3.6364844824393-1.441180191965941l-2.502123846810719-.189695463425778c-1.886467691670077-.144013309184629-2.036289867690357-2.853564691598876-.177164019309203-3.204031780618607l2.465920053278751-.465054330092244c1.310871207930177-.247538059647013,2.515809317170351-.886653001915874,3.455423931770383-1.833320808925237l.604891190269882-.609818852391982c.284938701430292-.287401728512123.459625245879579-.669218893223842.45865812942975-1.073722652655306-.008013518219741-4.952232765559529-3.249439518989675-8.687678162370503-5.256742914570168-10.15409456650832-.301326965179214-.219988615722286-.678886543609224-.29441739988215-1.049079476899351-.247360785790079l-.793818914380608.100950717929663c-1.215318243868751.154727230497883-2.363272007070009.644808294834547-3.315190984049877,1.415803388921631l-3.447489869620767,2.791762511143133c-1.449833603608568,1.174567819256481-3.407786141258839-.631714608059156-2.354116353289101-2.171436101843938l1.967571125420363-2.875266620860202c.753339404209328-1.100391950288213,1.154723712640589-2.404357994617385,1.151268719309883-3.737802276940783l-.002275148410263-.859566051476577c-.001035604429489-.404512338558561-.147748547179617-.798372698607636-.433774119969712-1.084030530952077-3.503619978879215-3.49986633417484-8.436557618879306-3.854696405712275-10.893097406659763-3.474448143498194-.369012966460105.056711130079748-.688639126320595.270189527394905-.917513468740253.565521796894245l-.490855650989943.632041973109153c-.750933764090405.968003403613693-1.217257653580418,2.125781918381108-1.346603226610569,3.344033519265395l-.337592181858781,3.178677452338889c-.193866147080371,1.825433688918565-2.796126415651088,1.969323300518226-3.190002044320863.176388257817052l-.685986803940978-3.122079584521089c-.262870622538685-1.19656436355308-.853998039118778-2.295872071401391-1.707145174858852-3.175179282538011l-.557481874269797-.574075104398617c-.260101418470185-.268294800126569-.601315289150079-.445232649799436-.974266406190509-.460917551609782-2.483554739709689-.107090234397219-7.34729655341016.789438305422664-10.44363191561024,4.65424315942164-.252849447909284.315454435844003-.355182817059358.72308558489749-.311678904990004,1.12524967706031l.092506817980393.85457677348586c.143582840600175,1.325696040626099.686345539959802,2.577456336020987,1.556414908230181,3.588083376717805l2.272509832790092,2.640815205835679c1.217005430099562,1.414166575567833-.529804717480147,3.425300481536397-2.100297182219947,2.417738841530991l-3.734264951180194-2.394653918950098c-1.031121990170504-.661344649819512-2.226174255990372-1.021871329621717-3.450882044219725-1.041679542875499l-.800434697629498-.012797916382624Z" fill="none" stroke="#181818" stroke-linecap="round" stroke-linejoin="round" stroke-width="35.220143773591303"/>
          <path d="M28.680971152980419,36.497565621575632c-.373318366290732-.005944833917056-.739789421931164.109624446540693-1.015216532620798.361504153624082-1.833714473549662,1.678801989090061-4.643093059240528,5.748821114872044-4.105387648460237,10.671765049637543.043890034419746.402130375774505.259283787639106.762378405682284.574042342430403,1.016620420572508l.668957702619991.539382537990605c1.038259205599388.837303075425552,2.306311769189961,1.339676250661796,3.636353493030583,1.441187434901622l3.725572502949035.282842491321389c1.697818202270355.129143453171309,1.832701856929816,2.568529948744981.159472158160497,2.884072425496925l-3.671676848270181.691866657315586c-1.310741759570192.247530901920072-2.515676786709264.886645673767816-3.455292942359847,1.833313565992285l-.60541206580001.60984765372541c-.284808571389476.287406899199596-.459136728829435.669834918756351-.458459333739484,1.07371166043049.008332515949405,4.952215126867486,3.249343977368881,8.688326482886623,5.256934004999493,10.154084000339935.301518055609449.219978049546626.678496657490541.29443895827535,1.048883763319282.24737160758923l.794144076320663-.100968697460303c1.215058487789975-.154700501413572,2.363076293479935-.644797473031758,3.314998352559996-1.415792737540869l3.447486787520575-2.791762340721107c1.449833603609477-1.17456781925921,3.407724499179494.631718016501509,2.354051629109563,2.171439680708318l-1.967503319140633,2.875262871572886c-.753306356818939,1.101045526711459-1.154788436820127,2.404361573481765-1.151301077788958,3.738447103810358l.002239700619612.858924973892499c.001100328599932.404508759695091.147751629269806.798372528186519.433838844139245,1.084026952088607,3.503558336809874,3.499869742618102,8.436529024191259,3.855353390574237,10.893100488759956,3.474447973076167.368948242280567-.056707551214458.688574402140148-.270185948530525.917546516130642-.564868220476455l.490754797319823-.632691800241446c.751037699860717-.967353746903427,1.217325459870153-2.125785667665696,1.346671032900304-3.344037268550892l.337592181849686-3.178677452338889c.193801422899924-1.825430110053276,2.796061691469731-1.969319721652937,3.190002044320863-.176388257817052l.685986803939159,3.122079584521998c.262870622549599,1.196564363551261.854034168620274,2.296525477393516,1.70707736858003,3.175183031824417l.557582727939916.57472493153c.260003646910263.267644802574068.601217517580153.444582652245117.97423335880012.460263975190173,2.483523062909626.107747389683027,7.347231829229713-.789434726557374,10.443628833510047-4.654242988997794.252787805839944-.31545102740165.355182817059358-.723085584899309.311614180809556-1.125246098197749l-.092471370179737-.853935695899054c-.143615206289724-1.326337288634932-.686280134090339-2.577447586470043-1.556382549750197-3.588728203590108l-2.272577639068913-2.640811456549272c-1.217002348001188-1.41416674598986.529869441658775-3.425304060399867,2.100361906399485-2.417742420395371l3.734268033278568,2.394653748528981c1.031118908071221.661344820241538,2.226107131390563,1.021887407325266,3.451074675711425,1.041668891492009l.800109535679439.012815895915992c.373124193760304.005955570510196.740176225950563-.109645834517323,1.015412246209962-.361514975423233,1.833427841500452-1.678143102406466,4.643220966539957-5.748828187394793,4.105196558019998-10.671754483470067-.043600313048955-.401503358016271-.259352453279462-.762362242769996-.57424113811885-1.016609428346783l-.668436827080768-.539411339324033c-1.038257664549747-.837303160641568-2.306313310240512-1.339676165455785-3.6364844824393-1.441180191965941l-2.502123846810719-.189695463425778c-1.886467691670077-.144013309184629-2.036289867690357-2.853564691598876-.177164019309203-3.204031780618607l2.465920053278751-.465054330092244c1.310871207930177-.247538059647013,2.515809317170351-.886653001915874,3.455423931770383-1.833320808925237l.604891190269882-.609818852391982c.284938701430292-.287401728512123.459625245879579-.669218893223842.45865812942975-1.073722652655306-.008013518219741-4.952232765559529-3.249439518989675-8.687678162370503-5.256742914570168-10.15409456650832-.301326965179214-.219988615722286-.678886543609224-.29441739988215-1.049079476899351-.247360785790079l-.793818914380608.100950717929663c-1.215318243868751.154727230497883-2.363272007070009.644808294834547-3.315190984049877,1.415803388921631l-3.447489869620767,2.791762511143133c-1.449833603608568,1.174567819256481-3.407786141258839-.631714608059156-2.354116353289101-2.171436101843938l1.967571125420363-2.875266620860202c.753339404209328-1.100391950288213,1.154723712640589-2.404357994617385,1.151268719309883-3.737802276940783l-.002275148410263-.859566051476577c-.001035604429489-.404512338558561-.147748547179617-.798372698607636-.433774119969712-1.084030530952077-3.503619978879215-3.49986633417484-8.436557618879306-3.854696405712275-10.893097406659763-3.474448143498194-.369012966460105.056711130079748-.688639126320595.270189527394905-.917513468740253.565521796894245l-.490855650989943.632041973109153c-.750933764090405.968003403613693-1.217257653580418,2.125781918381108-1.346603226610569,3.344033519265395l-.337592181858781,3.178677452338889c-.193866147080371,1.825433688918565-2.796126415651088,1.969323300518226-3.190002044320863.176388257817052l-.685986803940978-3.122079584521089c-.262870622538685-1.19656436355308-.853998039118778-2.295872071401391-1.707145174858852-3.175179282538011l-.557481874269797-.574075104398617c-.260101418470185-.268294800126569-.601315289150079-.445232649799436-.974266406190509-.460917551609782-2.483554739709689-.107090234397219-7.34729655341016.789438305422664-10.44363191561024,4.65424315942164-.252849447909284.315454435844003-.355182817059358.72308558489749-.311678904990004,1.12524967706031l.092506817980393.85457677348586c.143582840600175,1.325696040626099.686345539959802,2.577456336020987,1.556414908230181,3.588083376717805l2.272509832790092,2.640815205835679c1.217005430099562,1.414166575567833-.529804717480147,3.425300481536397-2.100297182219947,2.417738841530991l-3.734264951180194-2.394653918950098c-1.031121990170504-.661344649819512-2.226174255990372-1.021871329621717-3.450882044219725-1.041679542875499l-.800434697629498-.012797916382624Z" fill="none" stroke="#181818" stroke-linecap="round" stroke-linejoin="round" stroke-width="35.220143773591303"/>
          <path d="M52.97059525170971,52.962455726678854l-12.562495067931195,21.968616789940825,8.202388971090841,1.774804367652905,1.341856891940552-3.21411242877366,3.018249204899803-20.52930872882007Z" fill="none" stroke="#181818" stroke-linecap="round" stroke-linejoin="round" stroke-width="35.220143773591303"/>
          <path d="M57.241258223069963,49.586397633083834l13.591796178729965,11.303047740666443,5.011902599889254-6.456460575079291-18.603698778619219-4.846587165587152Z" fill="none" stroke="#181818" stroke-linecap="round" stroke-linejoin="round" stroke-width="35.220143773591303"/>
          <g>
            <polygon points="50.530430414689363 50.970176823687325 27.68749729135925 57.399877913672753 29.554696085069736 61.855114286194294 50.530430414689363 50.970176823687325" fill="none" stroke="#181818" stroke-linecap="round" stroke-linejoin="round" stroke-width="35.220143773591303"/>
            <polygon points="50.530430414689363 50.970176823687325 27.68749729135925 57.399877913672753 29.554696085069736 61.855114286194294 50.530430414689363 50.970176823687325" fill="none" stroke="#181818" stroke-linecap="round" stroke-linejoin="round" stroke-width="35.220143773591303"/>
          </g>
          <g>
            <polygon points="62.790823743199326 27.195129117624674 54.188891412069097 49.392106534347477 52.924470760109216 37.465783456197641 55.247089079379293 25.78393629949278 62.790823743199326 27.195129117624674" fill="none" stroke="#181818" stroke-linecap="round" stroke-linejoin="round" stroke-width="35.220143773591303"/>
            <polygon points="62.790823743199326 27.195129117624674 54.188891412069097 49.392106534347477 52.924470760109216 37.465783456197641 55.247089079379293 25.78393629949278 62.790823743199326 27.195129117624674" fill="none" stroke="#181818" stroke-linecap="round" stroke-linejoin="round" stroke-width="35.220143773591303"/>
          </g>
          <path d="M56.561956319519595,48.306535658214671l-29.611422139870228,14.097786027852635,5.093443291701078,4.175701720899269,24.51797884816915-18.273487748751904Z" fill="none" stroke="#181818" stroke-linecap="round" stroke-linejoin="round" stroke-width="35.220143773591303"/>
          <g>
            <polygon points="56.033885879979607 53.40121433852255 29.144320713719935 43.440952063057011 26.707828588799202 48.843439983086682 56.033885879979607 53.40121433852255" fill="none" stroke="#181818" stroke-linecap="round" stroke-linejoin="round" stroke-width="35.220143773591303"/>
            <polygon points="56.033885879979607 53.40121433852255 29.144320713719935 43.440952063057011 26.707828588799202 48.843439983086682 56.033885879979607 53.40121433852255" fill="none" stroke="#181818" stroke-linecap="round" stroke-linejoin="round" stroke-width="35.220143773591303"/>
          </g>
          <g>
            <polygon points="55.158135407639747 54.05713560300228 65.819451555090382 28.851442295326706 61.050835916039432 26.88612752087738 55.158135407639747 54.05713560300228" fill="none" stroke="#181818" stroke-linecap="round" stroke-linejoin="round" stroke-width="35.220143773591303"/>
            <polygon points="55.158135407639747 54.05713560300228 65.819451555090382 28.851442295326706 61.050835916039432 26.88612752087738 55.158135407639747 54.05713560300228" fill="none" stroke="#181818" stroke-linecap="round" stroke-linejoin="round" stroke-width="35.220143773591303"/>
          </g>
          <g>
            <polygon points="53.724375030859846 56.592966236752545 47.373042618119143 28.630493069234035 44.475391606019912 33.07041592524638 53.724375030859846 56.592966236752545" fill="none" stroke="#181818" stroke-linecap="round" stroke-linejoin="round" stroke-width="35.220143773591303"/>
            <polygon points="53.724375030859846 56.592966236752545 47.373042618119143 28.630493069234035 44.475391606019912 33.07041592524638 53.724375030859846 56.592966236752545" fill="none" stroke="#181818" stroke-linecap="round" stroke-linejoin="round" stroke-width="35.220143773591303"/>
          </g>
          <path d="M78.220769959249083,44.272442810306529l-2.147030771259779-5.85768603584529-20.246926091379464,13.072986670388673,4.880791896139272,2.161396891156983,17.513164966499971-9.376697525700365Z" fill="none" stroke="#181818" stroke-linecap="round" stroke-linejoin="round" stroke-width="35.220143773591303"/>
          <path d="M55.572926488959638,54.338270346578611l19.34166130884023,15.44309625146343" fill="none" stroke="#181818" stroke-linecap="round" stroke-linejoin="round" stroke-width="35.220143773591303"/>
          <path d="M55.572926488959638,54.338270346578611l19.34166130884023,15.44309625146343" fill="none" stroke="#181818" stroke-linecap="round" stroke-linejoin="round" stroke-width="35.220143773591303"/>
          <path d="M207.166813237379756,108.156486044489611c2.405645246459244,43.50637252776869-30.913031010930354,80.725579280417151-74.419798047979384,83.131246340909456-43.506760872850464,2.405666719645524-80.72578307456115-30.913222237350055-83.131428321010389-74.419594765118745-2.405666378811475-43.506754708638255,30.913026523759982-80.725772252744719,74.419787396599531-83.131438972392061,43.50676703704994-2.405667060491396,80.725772593590591,30.913032687964915,83.131438972390242,74.41978739660135Z" fill="none" stroke="#181818" stroke-linecap="round" stroke-linejoin="round" stroke-width="35.220143773591303"/>
          <path d="M207.166813237379756,108.156486044489611c2.405645246459244,43.50637252776869-30.913031010930354,80.725579280417151-74.419798047979384,83.131246340909456-43.506760872850464,2.405666719645524-80.72578307456115-30.913222237350055-83.131428321010389-74.419594765118745-2.405666378811475-43.506754708638255,30.913026523759982-80.725772252744719,74.419787396599531-83.131438972392061,43.50676703704994-2.405667060491396,80.725772593590591,30.913032687964915,83.131438972390242,74.41978739660135Z" fill="none" stroke="#181818" stroke-linecap="round" stroke-linejoin="round" stroke-width="35.220143773591303"/>
          <path d="M207.166813237379756,108.156486044489611c2.405645246459244,43.50637252776869-30.913031010930354,80.725579280417151-74.419798047979384,83.131246340909456-43.506760872850464,2.405666719645524-80.72578307456115-30.913222237350055-83.131428321010389-74.419594765118745-2.405666378811475-43.506754708638255,30.913026523759982-80.725772252744719,74.419787396599531-83.131438972392061,43.50676703704994-2.405667060491396,80.725772593590591,30.913032687964915,83.131438972390242,74.41978739660135Z" fill="none" stroke="#181818" stroke-linecap="round" stroke-linejoin="round" stroke-width="35.220143773591303"/>
          <ellipse cx="119.558733563337" cy="86.505256581027879" rx="32.573744041686396" ry="43.399858386637234" transform="translate(-26.773496612440198 105.592650305730899) rotate(-43.318789543069528)" fill="none" stroke="#181818" stroke-linecap="round" stroke-linejoin="round" stroke-width="35.220143773591303"/>
          <path d="M36.189418982879943,29.780525083860994l8.96127506125049-3.737206655213413c.092137696768987,1.666320903077576.046511922018908,4.505332211720997-2.661048014821063,5.921259572796771-2.469671047700103,1.291898983974534-5.641284342669678-1.258355858821233-6.300227046429427-2.184052917583358Z" fill="none" stroke="#181818" stroke-linecap="round" stroke-linejoin="round" stroke-width="35.220143773591303"/>
          <path d="M24.961667302419301,47.186886296152807l3.448052357301094-9.076818726902275c1.273361583389487,1.079106966483778,3.303446421198714,3.064233816175147,2.469880844989348,6.003870762550832-.760317339069843,2.681426126524457-4.792484620040341,3.231143191630508-5.917933202290442,3.072947964351442Z" fill="none" stroke="#181818" stroke-linecap="round" stroke-linejoin="round" stroke-width="35.220143773591303"/>
          <path d="M39.870058952290492,40.467183684623706l9.286500444789453,7.641329212438905" fill="none" stroke="#181818" stroke-linecap="round" stroke-linejoin="round" stroke-width="35.220143773591303"/>
          <path d="M53.816762803009624,35.28923938499338l-.482589835110048,10.445514014687433" fill="none" stroke="#181818" stroke-linecap="round" stroke-linejoin="round" stroke-width="35.220143773591303"/>
        </g>
        <g>
          <path d="M28.680971152980419,36.497565621575632c-.373318366290732-.005944833917056-.739789421931164.109624446540693-1.015216532620798.361504153624082-1.833714473549662,1.678801989090061-4.643093059240528,5.748821114872044-4.105387648460237,10.671765049637543.043890034419746.402130375774505.259283787639106.762378405682284.574042342430403,1.016620420572508l.668957702619991.539382537990605c1.038259205599388.837303075425552,2.306311769189961,1.339676250661796,3.636353493030583,1.441187434901622l3.725572502949035.282842491321389c1.697818202270355.129143453171309,1.832701856929816,2.568529948744981.159472158160497,2.884072425496925l-3.671676848270181.691866657315586c-1.310741759570192.247530901920072-2.515676786709264.886645673767816-3.455292942359847,1.833313565992285l-.60541206580001.60984765372541c-.284808571389476.287406899199596-.459136728829435.669834918756351-.458459333739484,1.07371166043049.008332515949405,4.952215126867486,3.249343977368881,8.688326482886623,5.256934004999493,10.154084000339935.301518055609449.219978049546626.678496657490541.29443895827535,1.048883763319282.24737160758923l.794144076320663-.100968697460303c1.215058487789975-.154700501413572,2.363076293479935-.644797473031758,3.314998352559996-1.415792737540869l3.447486787520575-2.791762340721107c1.449833603609477-1.17456781925921,3.407724499179494.631718016501509,2.354051629109563,2.171439680708318l-1.967503319140633,2.875262871572886c-.753306356818939,1.101045526711459-1.154788436820127,2.404361573481765-1.151301077788958,3.738447103810358l.002239700619612.858924973892499c.001100328599932.404508759695091.147751629269806.798372528186519.433838844139245,1.084026952088607,3.503558336809874,3.499869742618102,8.436529024191259,3.855353390574237,10.893100488759956,3.474447973076167.368948242280567-.056707551214458.688574402140148-.270185948530525.917546516130642-.564868220476455l.490754797319823-.632691800241446c.751037699860717-.967353746903427,1.217325459870153-2.125785667665696,1.346671032900304-3.344037268550892l.337592181849686-3.178677452338889c.193801422899924-1.825430110053276,2.796061691469731-1.969319721652937,3.190002044320863-.176388257817052l.685986803939159,3.122079584521998c.262870622549599,1.196564363551261.854034168620274,2.296525477393516,1.70707736858003,3.175183031824417l.557582727939916.57472493153c.260003646910263.267644802574068.601217517580153.444582652245117.97423335880012.460263975190173,2.483523062909626.107747389683027,7.347231829229713-.789434726557374,10.443628833510047-4.654242988997794.252787805839944-.31545102740165.355182817059358-.723085584899309.311614180809556-1.125246098197749l-.092471370179737-.853935695899054c-.143615206289724-1.326337288634932-.686280134090339-2.577447586470043-1.556382549750197-3.588728203590108l-2.272577639068913-2.640811456549272c-1.217002348001188-1.41416674598986.529869441658775-3.425304060399867,2.100361906399485-2.417742420395371l3.734268033278568,2.394653748528981c1.031118908071221.661344820241538,2.226107131390563,1.021887407325266,3.451074675711425,1.041668891492009l.800109535679439.012815895915992c.373124193760304.005955570510196.740176225950563-.109645834517323,1.015412246209962-.361514975423233,1.833427841500452-1.678143102406466,4.643220966539957-5.748828187394793,4.105196558019998-10.671754483470067-.043600313048955-.401503358016271-.259352453279462-.762362242769996-.57424113811885-1.016609428346783l-.668436827080768-.539411339324033c-1.038257664549747-.837303160641568-2.306313310240512-1.339676165455785-3.6364844824393-1.441180191965941l-2.502123846810719-.189695463425778c-1.886467691670077-.144013309184629-2.036289867690357-2.853564691598876-.177164019309203-3.204031780618607l2.465920053278751-.465054330092244c1.310871207930177-.247538059647013,2.515809317170351-.886653001915874,3.455423931770383-1.833320808925237l.604891190269882-.609818852391982c.284938701430292-.287401728512123.459625245879579-.669218893223842.45865812942975-1.073722652655306-.008013518219741-4.952232765559529-3.249439518989675-8.687678162370503-5.256742914570168-10.15409456650832-.301326965179214-.219988615722286-.678886543609224-.29441739988215-1.049079476899351-.247360785790079l-.793818914380608.100950717929663c-1.215318243868751.154727230497883-2.363272007070009.644808294834547-3.315190984049877,1.415803388921631l-3.447489869620767,2.791762511143133c-1.449833603608568,1.174567819256481-3.407786141258839-.631714608059156-2.354116353289101-2.171436101843938l1.967571125420363-2.875266620860202c.753339404209328-1.100391950288213,1.154723712640589-2.404357994617385,1.151268719309883-3.737802276940783l-.002275148410263-.859566051476577c-.001035604429489-.404512338558561-.147748547179617-.798372698607636-.433774119969712-1.084030530952077-3.503619978879215-3.49986633417484-8.436557618879306-3.854696405712275-10.893097406659763-3.474448143498194-.369012966460105.056711130079748-.688639126320595.270189527394905-.917513468740253.565521796894245l-.490855650989943.632041973109153c-.750933764090405.968003403613693-1.217257653580418,2.125781918381108-1.346603226610569,3.344033519265395l-.337592181858781,3.178677452338889c-.193866147080371,1.825433688918565-2.796126415651088,1.969323300518226-3.190002044320863.176388257817052l-.685986803940978-3.122079584521089c-.262870622538685-1.19656436355308-.853998039118778-2.295872071401391-1.707145174858852-3.175179282538011l-.557481874269797-.574075104398617c-.260101418470185-.268294800126569-.601315289150079-.445232649799436-.974266406190509-.460917551609782-2.483554739709689-.107090234397219-7.34729655341016.789438305422664-10.44363191561024,4.65424315942164-.252849447909284.315454435844003-.355182817059358.72308558489749-.311678904990004,1.12524967706031l.092506817980393.85457677348586c.143582840600175,1.325696040626099.686345539959802,2.577456336020987,1.556414908230181,3.588083376717805l2.272509832790092,2.640815205835679c1.217005430099562,1.414166575567833-.529804717480147,3.425300481536397-2.100297182219947,2.417738841530991l-3.734264951180194-2.394653918950098c-1.031121990170504-.661344649819512-2.226174255990372-1.021871329621717-3.450882044219725-1.041679542875499l-.800434697629498-.012797916382624Z" fill="url(#linear-gradient)" fill-rule="evenodd" stroke-width="0"/>
          <path d="M28.680971152980419,36.497565621575632c-.373318366290732-.005944833917056-.739789421931164.109624446540693-1.015216532620798.361504153624082-1.833714473549662,1.678801989090061-4.643093059240528,5.748821114872044-4.105387648460237,10.671765049637543.043890034419746.402130375774505.259283787639106.762378405682284.574042342430403,1.016620420572508l.668957702619991.539382537990605c1.038259205599388.837303075425552,2.306311769189961,1.339676250661796,3.636353493030583,1.441187434901622l3.725572502949035.282842491321389c1.697818202270355.129143453171309,1.832701856929816,2.568529948744981.159472158160497,2.884072425496925l-3.671676848270181.691866657315586c-1.310741759570192.247530901920072-2.515676786709264.886645673767816-3.455292942359847,1.833313565992285l-.60541206580001.60984765372541c-.284808571389476.287406899199596-.459136728829435.669834918756351-.458459333739484,1.07371166043049.008332515949405,4.952215126867486,3.249343977368881,8.688326482886623,5.256934004999493,10.154084000339935.301518055609449.219978049546626.678496657490541.29443895827535,1.048883763319282.24737160758923l.794144076320663-.100968697460303c1.215058487789975-.154700501413572,2.363076293479935-.644797473031758,3.314998352559996-1.415792737540869l3.447486787520575-2.791762340721107c1.449833603609477-1.17456781925921,3.407724499179494.631718016501509,2.354051629109563,2.171439680708318l-1.967503319140633,2.875262871572886c-.753306356818939,1.101045526711459-1.154788436820127,2.404361573481765-1.151301077788958,3.738447103810358l.002239700619612.858924973892499c.001100328599932.404508759695091.147751629269806.798372528186519.433838844139245,1.084026952088607,3.503558336809874,3.499869742618102,8.436529024191259,3.855353390574237,10.893100488759956,3.474447973076167.368948242280567-.056707551214458.688574402140148-.270185948530525.917546516130642-.564868220476455l.490754797319823-.632691800241446c.751037699860717-.967353746903427,1.217325459870153-2.125785667665696,1.346671032900304-3.344037268550892l.337592181849686-3.178677452338889c.193801422899924-1.825430110053276,2.796061691469731-1.969319721652937,3.190002044320863-.176388257817052l.685986803939159,3.122079584521998c.262870622549599,1.196564363551261.854034168620274,2.296525477393516,1.70707736858003,3.175183031824417l.557582727939916.57472493153c.260003646910263.267644802574068.601217517580153.444582652245117.97423335880012.460263975190173,2.483523062909626.107747389683027,7.347231829229713-.789434726557374,10.443628833510047-4.654242988997794.252787805839944-.31545102740165.355182817059358-.723085584899309.311614180809556-1.125246098197749l-.092471370179737-.853935695899054c-.143615206289724-1.326337288634932-.686280134090339-2.577447586470043-1.556382549750197-3.588728203590108l-2.272577639068913-2.640811456549272c-1.217002348001188-1.41416674598986.529869441658775-3.425304060399867,2.100361906399485-2.417742420395371l3.734268033278568,2.394653748528981c1.031118908071221.661344820241538,2.226107131390563,1.021887407325266,3.451074675711425,1.041668891492009l.800109535679439.012815895915992c.373124193760304.005955570510196.740176225950563-.109645834517323,1.015412246209962-.361514975423233,1.833427841500452-1.678143102406466,4.643220966539957-5.748828187394793,4.105196558019998-10.671754483470067-.043600313048955-.401503358016271-.259352453279462-.762362242769996-.57424113811885-1.016609428346783l-.668436827080768-.539411339324033c-1.038257664549747-.837303160641568-2.306313310240512-1.339676165455785-3.6364844824393-1.441180191965941l-2.502123846810719-.189695463425778c-1.886467691670077-.144013309184629-2.036289867690357-2.853564691598876-.177164019309203-3.204031780618607l2.465920053278751-.465054330092244c1.310871207930177-.247538059647013,2.515809317170351-.886653001915874,3.455423931770383-1.833320808925237l.604891190269882-.609818852391982c.284938701430292-.287401728512123.459625245879579-.669218893223842.45865812942975-1.073722652655306-.008013518219741-4.952232765559529-3.249439518989675-8.687678162370503-5.256742914570168-10.15409456650832-.301326965179214-.219988615722286-.678886543609224-.29441739988215-1.049079476899351-.247360785790079l-.793818914380608.100950717929663c-1.215318243868751.154727230497883-2.363272007070009.644808294834547-3.315190984049877,1.415803388921631l-3.447489869620767,2.791762511143133c-1.449833603608568,1.174567819256481-3.407786141258839-.631714608059156-2.354116353289101-2.171436101843938l1.967571125420363-2.875266620860202c.753339404209328-1.100391950288213,1.154723712640589-2.404357994617385,1.151268719309883-3.737802276940783l-.002275148410263-.859566051476577c-.001035604429489-.404512338558561-.147748547179617-.798372698607636-.433774119969712-1.084030530952077-3.503619978879215-3.49986633417484-8.436557618879306-3.854696405712275-10.893097406659763-3.474448143498194-.369012966460105.056711130079748-.688639126320595.270189527394905-.917513468740253.565521796894245l-.490855650989943.632041973109153c-.750933764090405.968003403613693-1.217257653580418,2.125781918381108-1.346603226610569,3.344033519265395l-.337592181858781,3.178677452338889c-.193866147080371,1.825433688918565-2.796126415651088,1.969323300518226-3.190002044320863.176388257817052l-.685986803940978-3.122079584521089c-.262870622538685-1.19656436355308-.853998039118778-2.295872071401391-1.707145174858852-3.175179282538011l-.557481874269797-.574075104398617c-.260101418470185-.268294800126569-.601315289150079-.445232649799436-.974266406190509-.460917551609782-2.483554739709689-.107090234397219-7.34729655341016.789438305422664-10.44363191561024,4.65424315942164-.252849447909284.315454435844003-.355182817059358.72308558489749-.311678904990004,1.12524967706031l.092506817980393.85457677348586c.143582840600175,1.325696040626099.686345539959802,2.577456336020987,1.556414908230181,3.588083376717805l2.272509832790092,2.640815205835679c1.217005430099562,1.414166575567833-.529804717480147,3.425300481536397-2.100297182219947,2.417738841530991l-3.734264951180194-2.394653918950098c-1.031121990170504-.661344649819512-2.226174255990372-1.021871329621717-3.450882044219725-1.041679542875499l-.800434697629498-.012797916382624Z" fill="url(#linear-gradient-2)" fill-rule="evenodd" stroke-width="0"/>
          <path d="M52.97059525170971,52.962455726678854l-12.562495067931195,21.968616789940825,8.202388971090841,1.774804367652905,1.341856891940552-3.21411242877366,3.018249204899803-20.52930872882007Z" fill="#d23e27" stroke-width="0"/>
          <path d="M57.241258223069963,49.586397633083834l13.591796178729965,11.303047740666443,5.011902599889254-6.456460575079291-18.603698778619219-4.846587165587152Z" fill="#d23e27" stroke-width="0"/>
          <polygon points="50.530430414689363 50.970176823687325 27.68749729135925 57.399877913672753 29.554696085069736 61.855114286194294 50.530430414689363 50.970176823687325" fill="#febb12" opacity=".5" stroke-width="0"/>
          <polygon points="62.790823743199326 27.195129117624674 54.188891412069097 49.392106534347477 52.924470760109216 37.465783456197641 55.247089079379293 25.78393629949278 62.790823743199326 27.195129117624674" fill="#febb12" opacity=".5" stroke-width="0"/>
          <path d="M56.561956319519595,48.306535658214671l-29.611422139870228,14.097786027852635,5.093443291701078,4.175701720899269,24.51797884816915-18.273487748751904Z" fill="url(#linear-gradient-3)" stroke-width="0"/>
          <polygon points="56.033885879979607 53.40121433852255 29.144320713719935 43.440952063057011 26.707828588799202 48.843439983086682 56.033885879979607 53.40121433852255" fill="url(#linear-gradient-4)" opacity=".600000023841858" stroke-width="0"/>
          <polygon points="55.158135407639747 54.05713560300228 65.819451555090382 28.851442295326706 61.050835916039432 26.88612752087738 55.158135407639747 54.05713560300228" fill="url(#linear-gradient-5)" opacity=".600000023841858" stroke-width="0"/>
          <polygon points="53.724375030859846 56.592966236752545 47.373042618119143 28.630493069234035 44.475391606019912 33.07041592524638 53.724375030859846 56.592966236752545" fill="url(#linear-gradient-6)" opacity=".300000011920929" stroke-width="0"/>
          <path d="M78.220769959249083,44.272442810306529l-2.147030771259779-5.85768603584529-20.246926091379464,13.072986670388673,4.880791896139272,2.161396891156983,17.513164966499971-9.376697525700365Z" fill="url(#linear-gradient-7)" stroke-width="0"/>
          <path d="M55.572926488959638,54.338270346578611l19.34166130884023,15.44309625146343" fill="none" stroke="url(#radial-gradient)" stroke-linecap="round" stroke-width="11.6523240109877"/>
          <path d="M55.572926488959638,54.338270346578611l19.34166130884023,15.44309625146343" fill="none" stroke="url(#linear-gradient-8)" stroke-linecap="round" stroke-width="11.6523240109877"/>
          <path d="M207.166813237379756,108.156486044489611c2.405645246459244,43.50637252776869-30.913031010930354,80.725579280417151-74.419798047979384,83.131246340909456-43.506760872850464,2.405666719645524-80.72578307456115-30.913222237350055-83.131428321010389-74.419594765118745-2.405666378811475-43.506754708638255,30.913026523759982-80.725772252744719,74.419787396599531-83.131438972392061,43.50676703704994-2.405667060491396,80.725772593590591,30.913032687964915,83.131438972390242,74.41978739660135Z" fill="url(#radial-gradient-2)" stroke-width="0"/>
          <path d="M207.166813237379756,108.156486044489611c2.405645246459244,43.50637252776869-30.913031010930354,80.725579280417151-74.419798047979384,83.131246340909456-43.506760872850464,2.405666719645524-80.72578307456115-30.913222237350055-83.131428321010389-74.419594765118745-2.405666378811475-43.506754708638255,30.913026523759982-80.725772252744719,74.419787396599531-83.131438972392061,43.50676703704994-2.405667060491396,80.725772593590591,30.913032687964915,83.131438972390242,74.41978739660135Z" fill="url(#radial-gradient-3)" stroke-width="0"/>
          <path d="M207.166813237379756,108.156486044489611c2.405645246459244,43.50637252776869-30.913031010930354,80.725579280417151-74.419798047979384,83.131246340909456-43.506760872850464,2.405666719645524-80.72578307456115-30.913222237350055-83.131428321010389-74.419594765118745-2.405666378811475-43.506754708638255,30.913026523759982-80.725772252744719,74.419787396599531-83.131438972392061,43.50676703704994-2.405667060491396,80.725772593590591,30.913032687964915,83.131438972390242,74.41978739660135Z" fill="url(#radial-gradient-4)" stroke-width="0"/>
          <ellipse cx="119.558733563337" cy="86.505256581027879" rx="32.573744041686396" ry="43.399858386637234" transform="translate(-26.773496612440198 105.592650305730899) rotate(-43.318789543069528)" fill="url(#radial-gradient-5)" stroke-width="0"/>
          <path d="M36.189418982879943,29.780525083860994l8.96127506125049-3.737206655213413c.092137696768987,1.666320903077576.046511922018908,4.505332211720997-2.661048014821063,5.921259572796771-2.469671047700103,1.291898983974534-5.641284342669678-1.258355858821233-6.300227046429427-2.184052917583358Z" fill="#ffd35d" stroke-width="0"/>
          <path d="M24.961667302419301,47.186886296152807l3.448052357301094-9.076818726902275c1.273361583389487,1.079106966483778,3.303446421198714,3.064233816175147,2.469880844989348,6.003870762550832-.760317339069843,2.681426126524457-4.792484620040341,3.231143191630508-5.917933202290442,3.072947964351442Z" fill="url(#linear-gradient-9)" stroke-width="0"/>
          <path d="M39.870058952290492,40.467183684623706l9.286500444789453,7.641329212438905" fill="none" stroke="url(#linear-gradient-10)" stroke-linecap="round" stroke-width=".647351360739004"/>
          <path d="M53.816762803009624,35.28923938499338l-.482589835110048,10.445514014687433" fill="none" stroke="url(#linear-gradient-11)" stroke-linecap="round" stroke-width=".647351360739004"/>
        </g>
      </g>
      <g id="AC">
        <path d="M208.8994140625,110.8740234375c5.3212890625.06201171875,9.4326171875,1.12060546875,12.3349609375,3.17431640625,2.90234375,2.056640625,4.4150390625,5.15771484375,4.5380859375,9.3056640625.0634765625.95166015625.0390625,1.9267578125-.0751953125,2.92431640625-.1171875.99951171875-.2626953125,2.02587890625-.4375,3.08154296875-.552734375,3.51806640625-1.572265625,7.95947265625-3.052734375,13.31787109375-1.484375,5.3603515625-3.365234375,10.9931640625-5.6484375,16.89990234375-2.2822265625,5.90673828125-4.94921875,11.7919921875-7.998046875,17.65625-3.05078125,5.86376953125-6.5087890625,11.1142578125-10.375,15.74853515625-3.8701171875,4.63671875-8.0986328125,8.33251953125-12.689453125,11.0927734375-4.591796875,2.76025390625-9.541015625,3.9921875-14.849609375,3.6953125-4.837890625-.2705078125-9.078125-1.6611328125-12.72265625-4.17236328125-3.6484375-2.51123046875-6.775390625-5.7919921875-9.388671875-9.84228515625-3.7080078125-5.64892578125-6.65625-11.642578125-8.845703125-17.9775390625-2.19140625-6.33447265625-3.837890625-12.84326171875-4.94140625-19.53271484375-1.107421875-6.6875-1.7607421875-13.49853515625-1.9638671875-20.431640625-.2060546875-6.93359375-.1787109375-13.76513671875.0810546875-20.4951171875-.07275390625-.83056640625.09521484375-1.70849609375.501953125-2.6337890625.4072265625-.92333984375.95654296875-1.7802734375,1.65234375-2.5703125.693359375-.78759765625,1.50146484375-1.4521484375,2.4189453125-1.99462890625.91796875-.5390625,1.9072265625-.7802734375,2.96875-.720703125,1.6572265625-.0244140625,3.5810546875-.06640625,5.775390625-.12158203125,2.1904296875-.0546875,4.2802734375.12255859375,6.2705078125.5283203125,1.98828125.408203125,3.6650390625,1.123046875,5.02734375,2.14501953125,1.36328125,1.0244140625,2.1015625,2.60205078125,2.2197265625,4.73876953125-.24609375,8.62451171875-.0849609375,17.38818359375.482421875,26.2939453125.5673828125,8.90625,2.2978515625,18.11572265625,5.2001953125,27.62353515625,1.09765625,3.611328125,2.263671875,6.5771484375,3.49609375,8.89208984375,1.228515625,2.31787109375,2.380859375,3.447265625,3.4482421875,3.3876953125.94921875-.0634765625,1.99609375-.775390625,3.13671875-2.13232421875,1.140625-1.35546875,2.3349609375-3.18017578125,3.58984375-5.478515625,1.2509765625-2.29541015625,2.5205078125-4.9169921875,3.8115234375-7.8623046875,1.2880859375-2.9453125,2.5595703125-6.0966796875,3.8125-9.45947265625,2.3671875-6.37353515625,4.412109375-12.79833984375,6.1357421875-19.26904296875,1.720703125-6.470703125,3.3623046875-12.02783203125,4.92578125-16.67431640625,1.107421875-2.89404296875,2.33203125-5.19384765625,3.6689453125-6.89404296875,1.337890625-1.7001953125,3.833984375-2.44775390625,7.4912109375-2.2431640625Z" fill="none" stroke="#181818" stroke-linecap="round" stroke-linejoin="round" stroke-width="46.778934478759766"/>
        <path d="M208.8994140625,110.8740234375c5.3212890625.06201171875,9.4326171875,1.12060546875,12.3349609375,3.17431640625,2.90234375,2.056640625,4.4150390625,5.15771484375,4.5380859375,9.3056640625.0634765625.95166015625.0390625,1.9267578125-.0751953125,2.92431640625-.1171875.99951171875-.2626953125,2.02587890625-.4375,3.08154296875-.552734375,3.51806640625-1.572265625,7.95947265625-3.052734375,13.31787109375-1.484375,5.3603515625-3.365234375,10.9931640625-5.6484375,16.89990234375-2.2822265625,5.90673828125-4.94921875,11.7919921875-7.998046875,17.65625-3.05078125,5.86376953125-6.5087890625,11.1142578125-10.375,15.74853515625-3.8701171875,4.63671875-8.0986328125,8.33251953125-12.689453125,11.0927734375-4.591796875,2.76025390625-9.541015625,3.9921875-14.849609375,3.6953125-4.837890625-.2705078125-9.078125-1.6611328125-12.72265625-4.17236328125-3.6484375-2.51123046875-6.775390625-5.7919921875-9.388671875-9.84228515625-3.7080078125-5.64892578125-6.65625-11.642578125-8.845703125-17.9775390625-2.19140625-6.33447265625-3.837890625-12.84326171875-4.94140625-19.53271484375-1.107421875-6.6875-1.7607421875-13.49853515625-1.9638671875-20.431640625-.2060546875-6.93359375-.1787109375-13.76513671875.0810546875-20.4951171875-.07275390625-.83056640625.09521484375-1.70849609375.501953125-2.6337890625.4072265625-.92333984375.95654296875-1.7802734375,1.65234375-2.5703125.693359375-.78759765625,1.50146484375-1.4521484375,2.4189453125-1.99462890625.91796875-.5390625,1.9072265625-.7802734375,2.96875-.720703125,1.6572265625-.0244140625,3.5810546875-.06640625,5.775390625-.12158203125,2.1904296875-.0546875,4.2802734375.12255859375,6.2705078125.5283203125,1.98828125.408203125,3.6650390625,1.123046875,5.02734375,2.14501953125,1.36328125,1.0244140625,2.1015625,2.60205078125,2.2197265625,4.73876953125-.24609375,8.62451171875-.0849609375,17.38818359375.482421875,26.2939453125.5673828125,8.90625,2.2978515625,18.11572265625,5.2001953125,27.62353515625,1.09765625,3.611328125,2.263671875,6.5771484375,3.49609375,8.89208984375,1.228515625,2.31787109375,2.380859375,3.447265625,3.4482421875,3.3876953125.94921875-.0634765625,1.99609375-.775390625,3.13671875-2.13232421875,1.140625-1.35546875,2.3349609375-3.18017578125,3.58984375-5.478515625,1.2509765625-2.29541015625,2.5205078125-4.9169921875,3.8115234375-7.8623046875,1.2880859375-2.9453125,2.5595703125-6.0966796875,3.8125-9.45947265625,2.3671875-6.37353515625,4.412109375-12.79833984375,6.1357421875-19.26904296875,1.720703125-6.470703125,3.3623046875-12.02783203125,4.92578125-16.67431640625,1.107421875-2.89404296875,2.33203125-5.19384765625,3.6689453125-6.89404296875,1.337890625-1.7001953125,3.833984375-2.44775390625,7.4912109375-2.2431640625Z" fill="#fff" stroke-width="0"/>
      </g>
    </g>
  </a>
</svg>