<?xml version="1.0" encoding="UTF-8"?>
<svg id="Pattern" xmlns="http://www.w3.org/2000/svg" xmlns:xlink="http://www.w3.org/1999/xlink" viewBox="0 0 280 280">
  <defs>
    <linearGradient id="linear-gradient" x1="5173.338023397882353" y1="-2047.868549953481306" x2="5153.716204947009828" y2="-1843.009713986057477" gradientTransform="translate(-4996.665150139681828 -1888.351616843889587) rotate(.591457873986995) scale(1 -1)" gradientUnits="userSpaceOnUse">
      <stop offset="0" stop-color="#e71e27"/>
      <stop offset=".371585006713867" stop-color="#e91851"/>
      <stop offset=".807292022705078" stop-color="#eb0d8c"/>
    </linearGradient>
    <linearGradient id="linear-gradient-2" x1="5168.87757480453547" y1="-1936.196055768225051" x2="5173.978712511011508" y2="-1794.833540398074092" gradientTransform="translate(-4996.665150139681828 -1888.351616843889587) rotate(.591457873986995) scale(1 -1)" gradientUnits="userSpaceOnUse">
      <stop offset=".296889991760254" stop-color="#a11c4a" stop-opacity="0"/>
      <stop offset=".773938980102539" stop-color="#a21d4a"/>
      <stop offset=".817707977294922" stop-color="#a21d4a"/>
    </linearGradient>
    <linearGradient id="linear-gradient-3" x1="5153.774527489580578" y1="-1903.704878790544171" x2="5125.382972358094776" y2="-1889.465571513567511" gradientTransform="translate(-4996.665150139681828 -1888.351616843889587) rotate(.591457873986995) scale(1 -1)" gradientUnits="userSpaceOnUse">
      <stop offset="0" stop-color="#ef5895"/>
      <stop offset="1" stop-color="#ef5895" stop-opacity="0"/>
    </linearGradient>
    <linearGradient id="linear-gradient-4" x1="5183.03093310418808" y1="-1909.536083861130464" x2="5165.321811152248301" y2="-1882.693929684058503" xlink:href="#linear-gradient-3"/>
    <linearGradient id="linear-gradient-5" x1="5172.959015532936974" y1="-1924.849627432288798" x2="5173.479325399443042" y2="-1910.588795014326479" gradientTransform="translate(-4996.665150139681828 -1888.351616843889587) rotate(.591457873986995) scale(1 -1)" gradientUnits="userSpaceOnUse">
      <stop offset="0" stop-color="#ffd533"/>
      <stop offset="1" stop-color="#ffd533" stop-opacity="0"/>
    </linearGradient>
    <linearGradient id="linear-gradient-6" x1="5204.710207778691256" y1="-1958.113587244337396" x2="5166.819677623498137" y2="-1933.755714281018754" gradientTransform="translate(-4996.665150139681828 -1888.351616843889587) rotate(.591457873986995) scale(1 -1)" gradientUnits="userSpaceOnUse">
      <stop offset="0" stop-color="#ffd533" stop-opacity="0"/>
      <stop offset=".412384986877441" stop-color="#ffd533"/>
      <stop offset="1" stop-color="#ffd533" stop-opacity="0"/>
    </linearGradient>
    <linearGradient id="linear-gradient-7" x1="5190.71352676049537" y1="-1987.549384275391276" x2="5226.235023284982162" y2="-2030.267926086860598" gradientTransform="translate(-4996.665150139681828 -1888.351616843889587) rotate(.591457873986995) scale(1 -1)" gradientUnits="userSpaceOnUse">
      <stop offset=".167051010131836" stop-color="#f05e7b"/>
      <stop offset=".75" stop-color="#f05e7b" stop-opacity="0"/>
    </linearGradient>
    <linearGradient id="linear-gradient-8" x1="5205.01456272615178" y1="-1950.353980286384285" x2="5257.782171514500078" y2="-1958.553656057199987" gradientTransform="translate(-4996.665150139681828 -1888.351616843889587) rotate(.591457873986995) scale(1 -1)" gradientUnits="userSpaceOnUse">
      <stop offset="0" stop-color="#ee4487"/>
      <stop offset="1" stop-color="#ee4487" stop-opacity="0"/>
    </linearGradient>
    <linearGradient id="linear-gradient-9" x1="5160.590203512851076" y1="-1936.888017713225054" x2="5148.827648494372625" y2="-1925.229391566102777" xlink:href="#linear-gradient-5"/>
    <linearGradient id="linear-gradient-10" x1="5162.189986788609531" y1="-1985.08809976566863" x2="5170.622167783000805" y2="-1964.060604915717931" xlink:href="#linear-gradient-5"/>
    <linearGradient id="linear-gradient-11" x1="5180.386819854638816" y1="-1972.57407931855505" x2="5174.609477638905446" y2="-1951.442654731927632" xlink:href="#linear-gradient-5"/>
    <linearGradient id="linear-gradient-12" x1="3243.609112786120022" y1="5583.05032657189804" x2="3242.753036423264803" y2="5577.298964267873089" gradientTransform="translate(-5411.396290291595506 -3140.51156983102328) rotate(89.999999999844917) scale(.999999971644662 -.999999971644662)" xlink:href="#linear-gradient-5"/>
  </defs>
  <a xlink:href="https://www.notion.so/dmmnotes/intrusions-9200a800fe594998ba5fe17545927eaa?pvs=4">
    <g>
      <g id="collision">
        <g>
          <g>
            <path d="M106.261935011269998,93.260228436374746l-18.882644346550478-59.408115953630841c-.500481437279632-1.57470088138507,1.350131447090462-2.838579867015142,2.634712211520309-1.799438226558777l47.192822408940629,38.175066084579157c1.429144894289493,1.156426984536665,3.525426593429074.935819837481176,4.682782664409388-.49284846239425l17.670712729110164-21.810582731322938c.92724081264987-1.144294330410048,2.774545476660023-.61055164098434,2.947990332889276.851910578174284l3.379404129840623,28.439877589658863c.243370133240205,2.047605247948013,2.269603706919952,3.384556706920193,4.248347751799884,2.802562338090866l48.191796514010093-14.178229345670843c1.595834426089823-.469482357424567,2.818065319020207,1.433198734197504,1.727786112729518,2.689536381043581l-31.225091476318994,35.976020792342752c-1.376165924040833,1.585441539489693-.959729799790694,4.034187859420854.863691114249377,5.075691364248996l48.202241846000106,27.533068473820094c1.439919523630124.822354521846137.924269102410108,3.014958159568778-.731648113090159,3.10913119385441l-55.049293138469693,3.128687560640174c-2.217878980460227.125681187568262-3.693208580930332,2.345699948275069-2.950639542740646,4.43936422310253l10.117607126720031,28.521027074948506c.551571044150478,1.556043037640848-1.252954859509373,2.880566549276409-2.571864917539642,1.887565931228892l-24.438956226609662-18.408065863910451c-1.718210679980075-1.294263823381698-4.194007798340863-.64491032312435-5.05580708566049,1.325600547721479l-24.504447575210179,56.022548936782187c-.666640319469479,1.522817330082034-2.907594463279565,1.23718310519871-3.170474585459488-.403828798931499l-10.570481101120095-65.970541393802705c-.304182333330573-1.8992621774687-2.148127600130465-3.146179410625336-4.023977096419912-2.722494832054508l-52.132436159879944,11.791979384634033c-1.715648767880339.38802894406399-2.783270526399974-1.802938002078008-1.420385009980237-2.914822882721637l37.210700713910228-30.363623346109307c1.853250001639935-1.512562745550895,1.555946161319298-4.427114221529337-.56453493679146-5.53431361584262l-26.206950692559076-13.679340780283383c-1.383791657879556-.722503558023163-1.10284029262948-2.780955438571254.423942819130389-3.105648946759175l31.524126233909556-6.7107566394061c1.925342446780633-.409849762487283,3.077273244840399-2.390689419835326,2.480967295230585-4.266986635471767Z" fill="none" stroke="#181818" stroke-linecap="round" stroke-linejoin="round" stroke-width="40"/>
            <path d="M106.261935011269998,93.260228436374746l-18.882644346550478-59.408115953630841c-.500481437279632-1.57470088138507,1.350131447090462-2.838579867015142,2.634712211520309-1.799438226558777l47.192822408940629,38.175066084579157c1.429144894289493,1.156426984536665,3.525426593429074.935819837481176,4.682782664409388-.49284846239425l17.670712729110164-21.810582731322938c.92724081264987-1.144294330410048,2.774545476660023-.61055164098434,2.947990332889276.851910578174284l3.379404129840623,28.439877589658863c.243370133240205,2.047605247948013,2.269603706919952,3.384556706920193,4.248347751799884,2.802562338090866l48.191796514010093-14.178229345670843c1.595834426089823-.469482357424567,2.818065319020207,1.433198734197504,1.727786112729518,2.689536381043581l-31.225091476318994,35.976020792342752c-1.376165924040833,1.585441539489693-.959729799790694,4.034187859420854.863691114249377,5.075691364248996l48.202241846000106,27.533068473820094c1.439919523630124.822354521846137.924269102410108,3.014958159568778-.731648113090159,3.10913119385441l-55.049293138469693,3.128687560640174c-2.217878980460227.125681187568262-3.693208580930332,2.345699948275069-2.950639542740646,4.43936422310253l10.117607126720031,28.521027074948506c.551571044150478,1.556043037640848-1.252954859509373,2.880566549276409-2.571864917539642,1.887565931228892l-24.438956226609662-18.408065863910451c-1.718210679980075-1.294263823381698-4.194007798340863-.64491032312435-5.05580708566049,1.325600547721479l-24.504447575210179,56.022548936782187c-.666640319469479,1.522817330082034-2.907594463279565,1.23718310519871-3.170474585459488-.403828798931499l-10.570481101120095-65.970541393802705c-.304182333330573-1.8992621774687-2.148127600130465-3.146179410625336-4.023977096419912-2.722494832054508l-52.132436159879944,11.791979384634033c-1.715648767880339.38802894406399-2.783270526399974-1.802938002078008-1.420385009980237-2.914822882721637l37.210700713910228-30.363623346109307c1.853250001639935-1.512562745550895,1.555946161319298-4.427114221529337-.56453493679146-5.53431361584262l-26.206950692559076-13.679340780283383c-1.383791657879556-.722503558023163-1.10284029262948-2.780955438571254.423942819130389-3.105648946759175l31.524126233909556-6.7107566394061c1.925342446780633-.409849762487283,3.077273244840399-2.390689419835326,2.480967295230585-4.266986635471767Z" fill="none" stroke="#181818" stroke-linecap="round" stroke-linejoin="round" stroke-width="40"/>
          </g>
          <path d="M115.014015002569977,122.142254543394301l-11.123043424409843,10.163972052823738c-1.229081965750083,1.122580817935159-.231645961930553,3.15493165386215,1.40865273656982,2.870047364354832l20.438944849279324-3.551270474141347c.983807020500535-.171066574741417,1.895720580780107.555893022657983,1.94872269554071,1.552472268995189l1.675281253409594,31.719124908095182c.098726739440281,1.859831779867818,2.662134922589757,2.275387598127054,3.342289691980113.54084916391912l10.759175525520732-27.431407793326798c.420117959249183-1.069643345777877,1.771366780619246-1.402814059811135,2.640383210568871-.650971112156185l9.192656467390407,7.953895171714976c1.217669736340213,1.053231393985698,3.073345595599676-.062220142372098,2.713783773870091-1.631593642625376l-2.946621962009885-12.859588080889807c-.250534179559509-1.093899784451423.630812911139401-2.118142933950367,1.749886484749368-2.032632392274536l35.038784971960013,2.670235091414725c1.494548747940826.113378560572528,2.010137416060388-1.943991748205008.638584388500021-2.548442708466609l-33.117569618749258-14.586813585672644c-.903989611409997-.397751717644496-1.265132537900172-1.491452695583575-.775245599150367-2.349182328705865l6.032683374550288-10.569620043233954c.752469806269801-1.318724528857274-.50799321095019-2.874753370140752-1.953847140630387-2.411982646852266l-13.048816943370184,4.174551664611499c-1.092256240699498.349829041675548-2.2029334525796-.483784810861835-2.172438416338991-1.630741246528487l.669819039168942-24.999970388564179c.047616379830288-1.773313749083172-2.341241949139658-2.382001778039921-3.14838148563922-.802141909529382l-9.025463024320743,17.671122036903398c-.474618721069419.928503220688071-1.675971721228962,1.197923495768919-2.501527343879388.560471636943475l-16.164745412400407-12.485299448408114c-1.268402241239528-.979612797780646-3.053017814239865.222049785668787-2.622568296090321,1.765716976962722l5.956346569200832,21.348937952898268c.263422885389446.942793686213918-.340168927040395,1.90860920715204-1.303376952620056,2.08521290263343l-17.795453520820047,3.270096337511859c-1.594219453940241.293346685382858-1.873149648410617,2.459751181973843-.405112315589577,3.146475795852893l13.480768825229461,6.310571652426006c1.074787947060031.502782984813166,1.293835294470227,1.936799893146599.417447598530089,2.737904823314238Z" fill="none" stroke="#181818" stroke-linecap="round" stroke-linejoin="round" stroke-width="40"/>
          <path d="M126.538050970550103,121.041998585093097l-9.608588134361526,8.780483573809761c-1.228815266368656,1.122596278712081-.231779976078542,3.155603771647293,1.408786020680964,2.870061447856642l17.978170047050298-3.124296871241313c.983800068519486-.170393145264825,1.895707275690256.556566386552731,1.948048667190051,1.553138812076213l1.481940962250519,28.052786653392104c.09872673945938,1.859831779873275,2.662134922608857,2.275387598137968,3.342289691999213.540849163922758l9.477561410189992-24.162730205109256c.419450882870478-1.069650232177082,1.771366649450101-1.402801353593532,2.640376857460069-.650971177738029l7.885843681519873,6.822443379369361c1.217001929920116,1.053910708857074,3.072684741169724-.062214256977313,2.713123050610193-1.631600463442737l-2.541783694849983-11.093199185754202c-.250547016959899-1.093887209406603.630812779970256-2.118130227734582,1.749873647359891-2.032619817227896l31.065775971959738,2.367393925576835c1.493888155840068.113359033544839,2.009476823970545-1.944011275234516.637923796410178-2.548462235494299l-29.419431291819819-12.957648923997112c-.903970084380489-.39841230973434-1.265113010869754-1.492113287675238-.775226072129954-2.349842920788433l5.232709493740003-9.168113200796142c.753143170149997-1.318711223768332-.50731978146996-2.874746418154245-1.953847140640391-2.411982646852266l-11.341592122679685,3.628537839374985c-1.092256240700408.349829041684643-2.202926566190399-.484451887225077-2.17243848192993-1.630734893422414l.587598494859776-21.940772631181972c.047622732929995-1.773313683495871-2.341241949139658-2.382001778039921-3.147708056169904-.802134957548333l-7.854512538990093,15.377345123399209c-.474631960580155.929170231476746-1.675984960729693,1.198590506557593-2.501540517811009.561132294626077l-14.249241841328512-11.00592095061802c-1.268407938490782-.979676394452326-3.0530178798208.222056138778498-2.622572616060097,1.765519965025305l5.268899126289398,18.885741072044766c.263422950980384.942787333100569-.340168927039485,1.90860920715204-1.302716229359248,2.085219723445334l-15.617707818000781,2.870178112398207c-1.59400926807939.292681707733209-1.872875931469935,2.4590868601681-.40490901612975,3.146477894570125l11.677440701059822,5.465817211426838c1.07544813702043.503456947575614,1.293828408061017,1.937466969509842.417453951630705,2.737904888897901Z" fill="none" stroke="#181818" stroke-linecap="round" stroke-linejoin="round" stroke-width="40"/>
          <path d="M97.113892172479609,42.003681985876028l35.294784444889956,29.824807212507949" fill="none" stroke="#181818" stroke-linecap="round" stroke-linejoin="round" stroke-width="40"/>
          <path d="M160.338606057588549,55.981220325898903l2.72875328488135,21.895852715566434c.335981279310545,2.691558015447299,2.978016725888665,4.461256377835525,5.595070308069808,3.746748018784274h0" fill="none" stroke="#181818" stroke-linecap="round" stroke-linejoin="round" stroke-width="40"/>
          <path d="M154.734142578909996,82.57307114760988l-.197715460400104,19.15243592675688c-.01543209169995,1.494886372962355,1.183831812800236,2.718501479175757,2.678057462499964,2.733926750061073h0" fill="none" stroke="#181818" stroke-linecap="round" stroke-linejoin="round" stroke-width="40"/>
          <path d="M168.299068533159698,104.365992359766096l-3.633880999550456,6.665552114731327c-.909985894159945,1.668875773715627-.241346442469876,3.759781766057131,1.468315036210697,4.590912522156941l20.062530885709748,9.748373966234794" fill="none" stroke="#181818" stroke-linecap="round" stroke-linejoin="round" stroke-width="40"/>
          <g>
            <line x1="185.778992322249906" y1="175.126856154340203" x2="176.363190598638539" y2="149.420621107708939" fill="none" stroke="#181818" stroke-linecap="round" stroke-linejoin="round" stroke-width="40"/>
            <line x1="185.778992322249906" y1="175.126856154340203" x2="176.363190598638539" y2="149.420621107708939" fill="none" stroke="#181818" stroke-linecap="round" stroke-linejoin="round" stroke-width="40"/>
          </g>
          <path d="M230.341961099219589,134.726892211652739l-42.783759932630346-24.171225845519075c-2.732976089379918-1.543921398470047-4.267296163099672-4.581169746772503-3.888688208288841-7.696607699885135h0" fill="none" stroke="#181818" stroke-linecap="round" stroke-linejoin="round" stroke-width="40"/>
          <path d="M129.9410822284799,88.979552869097461l12.592186153189687,10.436098960168238" fill="none" stroke="#181818" stroke-linecap="round" stroke-linejoin="round" stroke-width="40"/>
          <path d="M151.561010407529466,132.508514951337929l-8.988498602259824,23.642104851236581" fill="none" stroke="#181818" stroke-linecap="round" stroke-linejoin="round" stroke-width="40"/>
          <path d="M159.557762403540437,124.263033977695159l3.507896060768871,13.153196022731208" fill="none" stroke="#181818" stroke-linecap="round" stroke-linejoin="round" stroke-width="40"/>
          <ellipse cx="168.55733640664198" cy="102.63653824564517" rx="3.165395100839144" ry="1.455155286796241" transform="translate(-23.779577322591109 146.821900716323285) rotate(-44.275740482532086)" fill="none" stroke="#181818" stroke-linecap="round" stroke-linejoin="round" stroke-width="40"/>
        </g>
        <g>
          <g>
            <path d="M106.261935011269998,93.260228436374746l-18.882644346550478-59.408115953630841c-.500481437279632-1.57470088138507,1.350131447090462-2.838579867015142,2.634712211520309-1.799438226558777l47.192822408940629,38.175066084579157c1.429144894289493,1.156426984536665,3.525426593429074.935819837481176,4.682782664409388-.49284846239425l17.670712729110164-21.810582731322938c.92724081264987-1.144294330410048,2.774545476660023-.61055164098434,2.947990332889276.851910578174284l3.379404129840623,28.439877589658863c.243370133240205,2.047605247948013,2.269603706919952,3.384556706920193,4.248347751799884,2.802562338090866l48.191796514010093-14.178229345670843c1.595834426089823-.469482357424567,2.818065319020207,1.433198734197504,1.727786112729518,2.689536381043581l-31.225091476318994,35.976020792342752c-1.376165924040833,1.585441539489693-.959729799790694,4.034187859420854.863691114249377,5.075691364248996l48.202241846000106,27.533068473820094c1.439919523630124.822354521846137.924269102410108,3.014958159568778-.731648113090159,3.10913119385441l-55.049293138469693,3.128687560640174c-2.217878980460227.125681187568262-3.693208580930332,2.345699948275069-2.950639542740646,4.43936422310253l10.117607126720031,28.521027074948506c.551571044150478,1.556043037640848-1.252954859509373,2.880566549276409-2.571864917539642,1.887565931228892l-24.438956226609662-18.408065863910451c-1.718210679980075-1.294263823381698-4.194007798340863-.64491032312435-5.05580708566049,1.325600547721479l-24.504447575210179,56.022548936782187c-.666640319469479,1.522817330082034-2.907594463279565,1.23718310519871-3.170474585459488-.403828798931499l-10.570481101120095-65.970541393802705c-.304182333330573-1.8992621774687-2.148127600130465-3.146179410625336-4.023977096419912-2.722494832054508l-52.132436159879944,11.791979384634033c-1.715648767880339.38802894406399-2.783270526399974-1.802938002078008-1.420385009980237-2.914822882721637l37.210700713910228-30.363623346109307c1.853250001639935-1.512562745550895,1.555946161319298-4.427114221529337-.56453493679146-5.53431361584262l-26.206950692559076-13.679340780283383c-1.383791657879556-.722503558023163-1.10284029262948-2.780955438571254.423942819130389-3.105648946759175l31.524126233909556-6.7107566394061c1.925342446780633-.409849762487283,3.077273244840399-2.390689419835326,2.480967295230585-4.266986635471767Z" fill="url(#linear-gradient)" stroke-width="0"/>
            <path d="M106.261935011269998,93.260228436374746l-18.882644346550478-59.408115953630841c-.500481437279632-1.57470088138507,1.350131447090462-2.838579867015142,2.634712211520309-1.799438226558777l47.192822408940629,38.175066084579157c1.429144894289493,1.156426984536665,3.525426593429074.935819837481176,4.682782664409388-.49284846239425l17.670712729110164-21.810582731322938c.92724081264987-1.144294330410048,2.774545476660023-.61055164098434,2.947990332889276.851910578174284l3.379404129840623,28.439877589658863c.243370133240205,2.047605247948013,2.269603706919952,3.384556706920193,4.248347751799884,2.802562338090866l48.191796514010093-14.178229345670843c1.595834426089823-.469482357424567,2.818065319020207,1.433198734197504,1.727786112729518,2.689536381043581l-31.225091476318994,35.976020792342752c-1.376165924040833,1.585441539489693-.959729799790694,4.034187859420854.863691114249377,5.075691364248996l48.202241846000106,27.533068473820094c1.439919523630124.822354521846137.924269102410108,3.014958159568778-.731648113090159,3.10913119385441l-55.049293138469693,3.128687560640174c-2.217878980460227.125681187568262-3.693208580930332,2.345699948275069-2.950639542740646,4.43936422310253l10.117607126720031,28.521027074948506c.551571044150478,1.556043037640848-1.252954859509373,2.880566549276409-2.571864917539642,1.887565931228892l-24.438956226609662-18.408065863910451c-1.718210679980075-1.294263823381698-4.194007798340863-.64491032312435-5.05580708566049,1.325600547721479l-24.504447575210179,56.022548936782187c-.666640319469479,1.522817330082034-2.907594463279565,1.23718310519871-3.170474585459488-.403828798931499l-10.570481101120095-65.970541393802705c-.304182333330573-1.8992621774687-2.148127600130465-3.146179410625336-4.023977096419912-2.722494832054508l-52.132436159879944,11.791979384634033c-1.715648767880339.38802894406399-2.783270526399974-1.802938002078008-1.420385009980237-2.914822882721637l37.210700713910228-30.363623346109307c1.853250001639935-1.512562745550895,1.555946161319298-4.427114221529337-.56453493679146-5.53431361584262l-26.206950692559076-13.679340780283383c-1.383791657879556-.722503558023163-1.10284029262948-2.780955438571254.423942819130389-3.105648946759175l31.524126233909556-6.7107566394061c1.925342446780633-.409849762487283,3.077273244840399-2.390689419835326,2.480967295230585-4.266986635471767Z" fill="url(#linear-gradient-2)" stroke-width="0"/>
          </g>
          <path d="M115.014015002569977,122.142254543394301l-11.123043424409843,10.163972052823738c-1.229081965750083,1.122580817935159-.231645961930553,3.15493165386215,1.40865273656982,2.870047364354832l20.438944849279324-3.551270474141347c.983807020500535-.171066574741417,1.895720580780107.555893022657983,1.94872269554071,1.552472268995189l1.675281253409594,31.719124908095182c.098726739440281,1.859831779867818,2.662134922589757,2.275387598127054,3.342289691980113.54084916391912l10.759175525520732-27.431407793326798c.420117959249183-1.069643345777877,1.771366780619246-1.402814059811135,2.640383210568871-.650971112156185l9.192656467390407,7.953895171714976c1.217669736340213,1.053231393985698,3.073345595599676-.062220142372098,2.713783773870091-1.631593642625376l-2.946621962009885-12.859588080889807c-.250534179559509-1.093899784451423.630812911139401-2.118142933950367,1.749886484749368-2.032632392274536l35.038784971960013,2.670235091414725c1.494548747940826.113378560572528,2.010137416060388-1.943991748205008.638584388500021-2.548442708466609l-33.117569618749258-14.586813585672644c-.903989611409997-.397751717644496-1.265132537900172-1.491452695583575-.775245599150367-2.349182328705865l6.032683374550288-10.569620043233954c.752469806269801-1.318724528857274-.50799321095019-2.874753370140752-1.953847140630387-2.411982646852266l-13.048816943370184,4.174551664611499c-1.092256240699498.349829041675548-2.2029334525796-.483784810861835-2.172438416338991-1.630741246528487l.669819039168942-24.999970388564179c.047616379830288-1.773313749083172-2.341241949139658-2.382001778039921-3.14838148563922-.802141909529382l-9.025463024320743,17.671122036903398c-.474618721069419.928503220688071-1.675971721228962,1.197923495768919-2.501527343879388.560471636943475l-16.164745412400407-12.485299448408114c-1.268402241239528-.979612797780646-3.053017814239865.222049785668787-2.622568296090321,1.765716976962722l5.956346569200832,21.348937952898268c.263422885389446.942793686213918-.340168927040395,1.90860920715204-1.303376952620056,2.08521290263343l-17.795453520820047,3.270096337511859c-1.594219453940241.293346685382858-1.873149648410617,2.459751181973843-.405112315589577,3.146475795852893l13.480768825229461,6.310571652426006c1.074787947060031.502782984813166,1.293835294470227,1.936799893146599.417447598530089,2.737904823314238Z" fill="#a21e21" stroke-width="0"/>
          <path d="M126.538050970550103,121.041998585093097l-9.608588134361526,8.780483573809761c-1.228815266368656,1.122596278712081-.231779976078542,3.155603771647293,1.408786020680964,2.870061447856642l17.978170047050298-3.124296871241313c.983800068519486-.170393145264825,1.895707275690256.556566386552731,1.948048667190051,1.553138812076213l1.481940962250519,28.052786653392104c.09872673945938,1.859831779873275,2.662134922608857,2.275387598137968,3.342289691999213.540849163922758l9.477561410189992-24.162730205109256c.419450882870478-1.069650232177082,1.771366649450101-1.402801353593532,2.640376857460069-.650971177738029l7.885843681519873,6.822443379369361c1.217001929920116,1.053910708857074,3.072684741169724-.062214256977313,2.713123050610193-1.631600463442737l-2.541783694849983-11.093199185754202c-.250547016959899-1.093887209406603.630812779970256-2.118130227734582,1.749873647359891-2.032619817227896l31.065775971959738,2.367393925576835c1.493888155840068.113359033544839,2.009476823970545-1.944011275234516.637923796410178-2.548462235494299l-29.419431291819819-12.957648923997112c-.903970084380489-.39841230973434-1.265113010869754-1.492113287675238-.775226072129954-2.349842920788433l5.232709493740003-9.168113200796142c.753143170149997-1.318711223768332-.50731978146996-2.874746418154245-1.953847140640391-2.411982646852266l-11.341592122679685,3.628537839374985c-1.092256240700408.349829041684643-2.202926566190399-.484451887225077-2.17243848192993-1.630734893422414l.587598494859776-21.940772631181972c.047622732929995-1.773313683495871-2.341241949139658-2.382001778039921-3.147708056169904-.802134957548333l-7.854512538990093,15.377345123399209c-.474631960580155.929170231476746-1.675984960729693,1.198590506557593-2.501540517811009.561132294626077l-14.249241841328512-11.00592095061802c-1.268407938490782-.979676394452326-3.0530178798208.222056138778498-2.622572616060097,1.765519965025305l5.268899126289398,18.885741072044766c.263422950980384.942787333100569-.340168927039485,1.90860920715204-1.302716229359248,2.085219723445334l-15.617707818000781,2.870178112398207c-1.59400926807939.292681707733209-1.872875931469935,2.4590868601681-.40490901612975,3.146477894570125l11.677440701059822,5.465817211426838c1.07544813702043.503456947575614,1.293828408061017,1.937466969509842.417453951630705,2.737904888897901Z" fill="#fdb627" stroke-width="0"/>
          <path d="M97.113892172479609,42.003681985876028l35.294784444889956,29.824807212507949" fill="none" stroke="url(#linear-gradient-3)" stroke-linecap="round" stroke-width="1.66551785217622"/>
          <path d="M160.338606057588549,55.981220325898903l2.72875328488135,21.895852715566434c.335981279310545,2.691558015447299,2.978016725888665,4.461256377835525,5.595070308069808,3.746748018784274h0" fill="none" stroke="url(#linear-gradient-4)" stroke-linecap="round" stroke-width="1.66551785217622"/>
          <path d="M154.734142578909996,82.57307114760988l-.197715460400104,19.15243592675688c-.01543209169995,1.494886372962355,1.183831812800236,2.718501479175757,2.678057462499964,2.733926750061073h0" fill="none" stroke="url(#linear-gradient-5)" stroke-linecap="round" stroke-width="1.66551785217622"/>
          <path d="M168.299068533159698,104.365992359766096l-3.633880999550456,6.665552114731327c-.909985894159945,1.668875773715627-.241346442469876,3.759781766057131,1.468315036210697,4.590912522156941l20.062530885709748,9.748373966234794" fill="none" stroke="url(#linear-gradient-6)" stroke-linecap="round" stroke-width="1.66551785217622"/>
          <line x1="185.778992322249906" y1="175.126856154340203" x2="176.363190598638539" y2="149.420621107708939" fill="none" opacity=".600000023841858" stroke="url(#linear-gradient-7)" stroke-linecap="round" stroke-width="1.66551785217622"/>
          <path d="M230.341961099219589,134.726892211652739l-42.783759932630346-24.171225845519075c-2.732976089379918-1.543921398470047-4.267296163099672-4.581169746772503-3.888688208288841-7.696607699885135h0" fill="none" stroke="url(#linear-gradient-8)" stroke-linecap="round" stroke-width="1.66551785217622"/>
          <path d="M129.9410822284799,88.979552869097461l12.592186153189687,10.436098960168238" fill="none" stroke="url(#linear-gradient-9)" stroke-linecap="round" stroke-width="1.66551785217622"/>
          <path d="M151.561010407529466,132.508514951337929l-8.988498602259824,23.642104851236581" fill="none" stroke="url(#linear-gradient-10)" stroke-linecap="round" stroke-width="1.66551785217622"/>
          <path d="M159.557762403540437,124.263033977695159l3.507896060768871,13.153196022731208" fill="none" stroke="url(#linear-gradient-11)" stroke-linecap="round" stroke-width="1.66551785217622"/>
          <ellipse cx="168.55733640664198" cy="102.63653824564517" rx="3.165395100839144" ry="1.455155286796241" transform="translate(-23.779577322591109 146.821900716323285) rotate(-44.275740482532086)" fill="url(#linear-gradient-12)" stroke-width="0"/>
        </g>
      </g>
      <g id="AC">
        <g>
          <path d="M50.21240234375,168.1650390625c-.88525390625,5.626953125-1.6328125,10.6015625-2.24560546875,14.9248046875-.61328125,4.322265625-1.14208984375,8.146484375-1.5888671875,11.46875-.44677734375,3.32421875-.8095703125,6.259765625-1.087890625,8.8076171875-.27978515625,2.5478515625-.50390625,4.81640625-.6748046875,6.8037109375-.17138671875,1.98828125-.3173828125,3.7880859375-.4384765625,5.3994140625-.12109375,1.6123046875-.224609375,3.2109375-.30908203125,4.794921875l10.70458984375.86328125c.24169921875.0966796875.4716796875.2880859375.689453125.572265625.154296875.2763671875.310546875.6494140625.47265625,1.1171875.15966796875.4677734375.2470703125,1.119140625.26416015625,1.9501953125-.0478515625.82421875-.08251953125,1.6806640625-.10595703125,2.5712890625-.02392578125.8916015625-.119140625,1.7080078125-.28173828125,2.4521484375-.16455078125.7431640625-.39404296875,1.3828125-.68896484375,1.91796875-.2958984375.5341796875-.7021484375.830078125-1.220703125.8896484375-.26806640625.0908203125-.779296875.1015625-1.5361328125.0322265625-.7568359375-.0703125-1.6689453125-.17578125-2.734375-.3193359375-1.06689453125-.142578125-2.24072265625-.3173828125-3.5205078125-.5205078125-1.2822265625-.205078125-2.57666015625-.4267578125-3.88525390625-.666015625-3.05615234375-.5400390625-6.45654296875-1.123046875-10.20166015625-1.7548828125-1.07568359375-.0810546875-1.888671875-.4443359375-2.4384765625-1.0927734375-.5517578125-.6494140625-.92529296875-1.4345703125-1.12060546875-2.353515625-.1962890625-.9189453125-.2890625-1.8896484375-.27880859375-2.91015625.0078125-1.01953125.07275390625-1.96875.19091796875-2.8466796875.47998046875-4.5322265625,1.06494140625-9.2421875,1.75537109375-14.12890625.6875-4.88671875,1.400390625-9.8330078125,2.1376953125-14.8427734375.73583984375-5.0078125,1.47119140625-10,2.20458984375-14.9775390625.7314453125-4.9765625,1.44970703125-9.8427734375,2.15380859375-14.6005859375.109375-.814453125.2431640625-1.5791015625.4033203125-2.2919921875.1591796875-.7119140625.4208984375-1.34765625.783203125-1.90625.3623046875-.556640625.8486328125-.970703125,1.458984375-1.240234375.61083984375-.267578125,1.45263671875-.36328125,2.5283203125-.2822265625,3.6162109375.1669921875,7.294921875.58203125,11.0361328125,1.244140625,3.74169921875.662109375,7.5625,1.4462890625,11.46240234375,2.353515625.51416015625.4521484375.78662109375,1.271484375.8193359375,2.4560546875.03173828125,1.1865234375-.11962890625,2.4267578125-.45263671875,3.7216796875-.333984375,1.2958984375-.7763671875,2.4501953125-1.32666015625,3.4609375-.55224609375,1.0126953125-1.11669921875,1.5419921875-1.6982421875,1.591796875-.259765625.0283203125-.71142578125-.0478515625-1.357421875-.23046875-.64599609375-.18359375-1.46337890625-.4033203125-2.4482421875-.6650390625-1.7314453125-.423828125-3.076171875-.748046875-4.03515625-.97265625-.96044921875-.224609375-1.669921875-.3994140625-2.13134765625-.525390625-.46240234375-.125-.7724609375-.2001953125-.92822265625-.2216796875-.15771484375-.0205078125-.267578125-.03515625-.3291015625-.0439453125Z" fill="none" stroke="#181818" stroke-linecap="round" stroke-linejoin="round" stroke-width="33"/>
          <path d="M87.02294921875,185.2919921875c-1.16650390625,7.583984375-2.25146484375,15.123046875-3.25830078125,22.6162109375-1.00732421875,7.4951171875-1.9091796875,15.0224609375-2.7060546875,22.5810546875-.21240234375.4833984375-.5302734375.9521484375-.955078125,1.4052734375-.41796875.3818359375-.9951171875.7421875-1.7333984375,1.0810546875-.74072265625.3388671875-1.72900390625.49609375-2.966796875.4775390625-1.23974609375-.021484375-2.52392578125-.1025390625-3.85498046875-.244140625-1.3330078125-.1435546875-2.56298828125-.36328125-3.68994140625-.66015625-1.12890625-.298828125-2.072265625-.7529296875-2.828125-1.3662109375-.75830078125-.611328125-1.17626953125-1.4345703125-1.2568359375-2.46875-.0771484375-.5205078125-.02587890625-1.572265625.15087890625-3.1552734375.17431640625-1.58203125.43017578125-3.4833984375.76611328125-5.701171875.333984375-2.2177734375.736328125-4.666015625,1.205078125-7.3408203125.4697265625-2.6748046875.994140625-5.359375,1.576171875-8.0576171875.5087890625-2.705078125,1.02685546875-5.337890625,1.5537109375-7.8955078125.525390625-2.5576171875.9951171875-4.8310546875,1.4091796875-6.8193359375.533203125-2.337890625,1.04248046875-4.49609375,1.52734375-6.4765625-.0146484375-.439453125.1416015625-.783203125.4677734375-1.0322265625.25341796875-.2568359375.6240234375-.4443359375,1.115234375-.5615234375.490234375-.115234375,1.23681640625-.107421875,2.2421875.02734375,1.0029296875.1357421875,2.1513671875.2900390625,3.4423828125.462890625,1.291015625.173828125,2.5205078125.3935546875,3.689453125.66015625s2.1640625.6015625,2.98681640625,1.00390625c.82177734375.4033203125,1.1943359375.890625,1.1171875,1.4638671875ZM90.0068359375,171.236328125c-.25048828125,1.865234375-1.236328125,3.357421875-2.9560546875,4.4765625-1.7216796875,1.1201171875-3.65625,1.53515625-5.8076171875,1.24609375s-3.90966796875-1.2001953125-5.27294921875-2.7353515625c-1.36474609375-1.533203125-1.92041015625-3.232421875-1.66943359375-5.09765625.26025390625-1.9365234375,1.25146484375-3.4814453125,2.97802734375-4.6376953125,1.72412109375-1.154296875,3.66357421875-1.5888671875,5.81494140625-1.2998046875s3.9052734375,1.2197265625,5.265625,2.7890625c1.3583984375,1.5703125,1.90771484375,3.322265625,1.6474609375,5.2587890625Z" fill="none" stroke="#181818" stroke-linecap="round" stroke-linejoin="round" stroke-width="33"/>
          <path d="M121.6826171875,181.2431640625c3.4072265625-.08984375,6.7333984375.28515625,9.97998046875,1.1220703125,3.24462890625.837890625,6.22021484375,2.205078125,8.92236328125,4.1015625s4.787109375,4.4404296875,6.2578125,7.630859375c1.2392578125,2.7236328125,2.005859375,5.9833984375,2.29931640625,9.7822265625.2919921875,3.80078125.07763671875,8.388671875-.6455078125,13.767578125l-2.57177734375,17.5068359375c-.0771484375.5751953125-.205078125,1.2509765625-.3818359375,2.029296875-.1787109375.7802734375-.5,1.5400390625-.9638671875,2.2802734375-.4658203125.7412109375-1.09765625,1.3681640625-1.8955078125,1.880859375-.7998046875.513671875-1.818359375.7578125-3.056640625.7392578125-1.974609375.025390625-4.03076171875-.158203125-6.16796875-.5546875-2.13671875-.3974609375-3.67919921875-1.42578125-4.623046875-3.0859375-.52978515625-.947265625-.8291015625-2.1181640625-.896484375-3.515625-.0693359375-1.3955078125-.0146484375-2.8857421875.162109375-4.46875.17529296875-1.5810546875.421875-3.1357421875.73681640625-4.6650390625.31494140625-1.5263671875.61962890625-2.85546875.91845703125-3.9833984375.623046875-2.470703125,1.203125-4.8759765625,1.736328125-7.21484375.533203125-2.3369140625.76904296875-4.640625.7099609375-6.9130859375-.1123046875-2.423828125-.66552734375-4.5615234375-1.65771484375-6.4111328125-.99365234375-1.84765625-2.2451171875-3.2587890625-3.75732421875-4.228515625-1.5126953125-.9697265625-3.16015625-1.482421875-4.9404296875-1.5400390625-1.7822265625-.056640625-3.5283203125.439453125-5.23828125,1.486328125-1.7119140625,1.0478515625-3.267578125,2.7197265625-4.6708984375,5.0126953125-1.4033203125,2.294921875-2.45849609375,5.2548828125-3.1650390625,8.8837890625l-2.71337890625,22.634765625c-.2314453125.6259765625-.56396484375,1.2021484375-.9990234375,1.7275390625-.42724609375.4541015625-1.0068359375.833984375-1.74072265625,1.1357421875-.7353515625.302734375-1.72119140625.4423828125-2.958984375.423828125-1.310546875-.03125-2.6318359375-.1181640625-3.962890625-.2587890625-1.33251953125-.1435546875-2.572265625-.419921875-3.7216796875-.8291015625-1.1494140625-.4111328125-2.0791015625-.97265625-2.78515625-1.6884765625-.7080078125-.71484375-1.0908203125-1.6611328125-1.1513671875-2.837890625-.08740234375-.4501953125.0517578125-2.01953125.4130859375-4.708984375s.85400390625-5.9443359375,1.47705078125-9.767578125c.62353515625-3.8212890625,1.29931640625-7.9111328125,2.03173828125-12.267578125.73095703125-4.3544921875,1.42578125-8.44140625,2.0859375-12.259765625.658203125-3.81640625,1.240234375-7.0615234375,1.74609375-9.7314453125.50390625-2.6708984375.79052734375-4.255859375.8583984375-4.7587890625-.0146484375-.4404296875.1455078125-.818359375.4814453125-1.1396484375.263671875-.3291015625.662109375-.5849609375,1.19873046875-.76953125.53466796875-.18359375,1.3095703125-.2431640625,2.32470703125-.1806640625.9404296875.0546875,2.0771484375.15234375,3.41015625.2939453125,1.3310546875.142578125,2.6005859375.33203125,3.8115234375.56640625,1.208984375.236328125,2.2255859375.5556640625,3.0478515625.9580078125.822265625.4033203125,1.189453125.92578125,1.1025390625,1.5712890625l-.4765625,3.5498046875c2.87841796875-.779296875,6.0224609375-1.2158203125,9.4296875-1.3056640625Z" fill="none" stroke="#181818" stroke-linecap="round" stroke-linejoin="round" stroke-width="33"/>
          <path d="M215.5498046875,195.4462890625c-1.88330078125,8.5810546875-3.4912109375,17.1455078125-4.8212890625,25.69140625-1.33154296875,8.546875-2.2939453125,17.1982421875-2.88525390625,25.951171875-.14990234375.5654296875-.44189453125,1.1103515625-.876953125,1.634765625-.42724609375.455078125-1.01123046875.869140625-1.75537109375,1.2431640625-.7451171875.3759765625-1.7353515625.5498046875-2.97314453125.53125-1.095703125-.001953125-2.2626953125-.0126953125-3.50048828125-.0322265625-1.240234375-.021484375-2.38818359375-.15625-3.4501953125-.4091796875-1.060546875-.251953125-1.998046875-.6162109375-2.810546875-1.08984375-.81201171875-.4736328125-1.380859375-1.1328125-1.7041015625-1.9814453125-1.626953125.1484375-3.2509765625.275390625-4.87109375.38671875-1.6220703125.1103515625-3.26708984375.126953125-4.935546875.0478515625-4.86328125-.21484375-8.99072265625-1.4267578125-12.3798828125-3.634765625-3.39111328125-2.2080078125-6.0263671875-5.0078125-7.90673828125-8.400390625-1.88134765625-3.3916015625-3.01806640625-7.158203125-3.40966796875-11.30078125-.39306640625-4.140625-.04052734375-8.255859375,1.056640625-12.3427734375,1.0966796875-4.0869140625,2.92724609375-7.9306640625,5.4921875-11.529296875,2.564453125-3.59765625,5.86328125-6.548828125,9.896484375-8.85546875,4.3095703125-2.1943359375,8.89306640625-3.294921875,13.7509765625-3.298828125,4.85498046875-.0048828125,9.5986328125.9609375,14.23046875,2.8974609375.630859375-.353515625,1.587890625-.4052734375,2.86962890625-.162109375.994140625.20703125,2.14990234375.4365234375,3.46826171875.685546875,1.31591796875.2509765625,2.55224609375.5615234375,3.70703125.9365234375,1.15380859375.373046875,2.09765625.8125,2.8349609375,1.3115234375.7353515625.5009765625,1.060546875,1.07421875.9736328125,1.7197265625ZM197.01904296875,206.20703125c-3.05419921875-1.7236328125-5.87060546875-2.5029296875-8.447265625-2.33984375-2.5791015625.1650390625-4.8359375.9384765625-6.77392578125,2.3212890625-1.9384765625,1.3818359375-3.53125,3.1767578125-4.775390625,5.3818359375-1.24658203125,2.2060546875-2.09765625,4.46484375-2.5537109375,6.775390625-.4580078125,2.3125-.48046875,4.5185546875-.0673828125,6.6171875.41064453125,2.099609375,1.33984375,3.7392578125,2.7880859375,4.919921875,1.447265625,1.1796875,3.4033203125,1.69921875,5.8701171875,1.5556640625,2.4638671875-.1435546875,5.5546875-1.2802734375,9.27392578125-3.4091796875.39404296875-1.8447265625.74951171875-3.677734375,1.06787109375-5.4970703125.31640625-1.8193359375.671875-3.650390625,1.06640625-5.49609375.40380859375-1.91796875.80126953125-3.7978515625,1.197265625-5.64453125.392578125-1.8447265625.8447265625-3.572265625,1.35400390625-5.1845703125Z" fill="none" stroke="#181818" stroke-linecap="round" stroke-linejoin="round" stroke-width="33"/>
          <path d="M237.02099609375,193.26953125c-.0634765625-.0078125-.173828125-.0234375-.32958984375-.0439453125-.1572265625-.021484375-.474609375-.0302734375-.953125-.03125s-1.2109375-.01953125-2.1953125-.056640625c-.9853515625-.0361328125-2.3681640625-.078125-4.1484375-.126953125-1.0205078125-.0078125-1.86572265625-.0107421875-2.537109375-.0048828125-.6708984375.005859375-1.12841796875-.0400390625-1.3701171875-.1357421875-.546875-.201171875-.9541015625-.8623046875-1.2177734375-1.984375-.26513671875-1.1201171875-.38720703125-2.349609375-.3662109375-3.6875.02001953125-1.337890625.2021484375-2.57421875.546875-3.708984375.34375-1.134765625.8232421875-1.8525390625,1.4375-2.1533203125,4.001953125.1552734375,7.88818359375.40625,11.6611328125.75390625,3.7734375.34765625,7.4150390625.9169921875,10.923828125,1.70703125,1.0498046875.205078125,1.83154296875.5185546875,2.34765625.9375.5146484375.4208984375.87158203125.9482421875,1.072265625,1.5810546875.19921875.6337890625.283203125,1.3154296875.2470703125,2.0439453125-.03466796875.73046875-.10546875,1.5029296875-.21484375,2.3173828125-.5791015625,4.7744140625-1.1708984375,9.658203125-1.77783203125,14.6513671875-.60791015625,4.994140625-1.216796875,10.00390625-1.82763671875,15.0283203125-.6123046875,5.0263671875-1.24609375,9.9833984375-1.9033203125,14.8740234375-.6572265625,4.8916015625-1.3212890625,9.5908203125-1.990234375,14.09765625-.1181640625.8779296875-.3076171875,1.810546875-.56640625,2.7958984375-.259765625.9873046875-.6044921875,1.8984375-1.0341796875,2.734375-.4296875.8349609375-.99365234375,1.4931640625-1.6923828125,1.974609375-.69921875.48046875-1.5751953125.6171875-2.625.4130859375-3.75732421875-.376953125-7.1708984375-.708984375-10.24169921875-.9931640625-1.32373046875-.1142578125-2.630859375-.2421875-3.91943359375-.3828125-1.2900390625-.142578125-2.46826171875-.2841796875-3.53369140625-.4267578125-1.06689453125-.1435546875-1.97314453125-.2822265625-2.7216796875-.4140625-.74755859375-.1337890625-1.240234375-.279296875-1.47314453125-.4375-.4853515625-.1943359375-.79931640625-.5859375-.9423828125-1.1796875-.14453125-.5947265625-.19775390625-1.271484375-.15771484375-2.0322265625.03759765625-.7607421875.14697265625-1.5751953125.32861328125-2.4462890625.1787109375-.869140625.3876953125-1.7021484375.623046875-2.5009765625.234375-.7978515625.49072265625-1.40234375.7705078125-1.8115234375.27734375-.4091796875.5283203125-.7265625.75-.953125.2841796875-.216796875.55615234375-.33984375.81591796875-.369140625l10.55322265625,1.9931640625c.33544921875-1.5498046875.65869140625-3.119140625.96728515625-4.70703125.30908203125-1.5859375.6435546875-3.3603515625,1.0029296875-5.3232421875.35986328125-1.9619140625.74072265625-4.208984375,1.14501953125-6.740234375.4033203125-2.53125.82958984375-5.4580078125,1.2763671875-8.7822265625.44677734375-3.322265625.92822265625-7.1533203125,1.447265625-11.48828125.51953125-4.3349609375,1.1259765625-9.3291015625,1.82275390625-14.9814453125Z" fill="none" stroke="#181818" stroke-linecap="round" stroke-linejoin="round" stroke-width="33"/>
        </g>
        <g>
          <path d="M50.21240234375,168.1650390625c-.88525390625,5.626953125-1.6328125,10.6015625-2.24560546875,14.9248046875-.61328125,4.322265625-1.14208984375,8.146484375-1.5888671875,11.46875-.44677734375,3.32421875-.8095703125,6.259765625-1.087890625,8.8076171875-.27978515625,2.5478515625-.50390625,4.81640625-.6748046875,6.8037109375-.17138671875,1.98828125-.3173828125,3.7880859375-.4384765625,5.3994140625-.12109375,1.6123046875-.224609375,3.2109375-.30908203125,4.794921875l10.70458984375.86328125c.24169921875.0966796875.4716796875.2880859375.689453125.572265625.154296875.2763671875.310546875.6494140625.47265625,1.1171875.15966796875.4677734375.2470703125,1.119140625.26416015625,1.9501953125-.0478515625.82421875-.08251953125,1.6806640625-.10595703125,2.5712890625-.02392578125.8916015625-.119140625,1.7080078125-.28173828125,2.4521484375-.16455078125.7431640625-.39404296875,1.3828125-.68896484375,1.91796875-.2958984375.5341796875-.7021484375.830078125-1.220703125.8896484375-.26806640625.0908203125-.779296875.1015625-1.5361328125.0322265625-.7568359375-.0703125-1.6689453125-.17578125-2.734375-.3193359375-1.06689453125-.142578125-2.24072265625-.3173828125-3.5205078125-.5205078125-1.2822265625-.205078125-2.57666015625-.4267578125-3.88525390625-.666015625-3.05615234375-.5400390625-6.45654296875-1.123046875-10.20166015625-1.7548828125-1.07568359375-.0810546875-1.888671875-.4443359375-2.4384765625-1.0927734375-.5517578125-.6494140625-.92529296875-1.4345703125-1.12060546875-2.353515625-.1962890625-.9189453125-.2890625-1.8896484375-.27880859375-2.91015625.0078125-1.01953125.07275390625-1.96875.19091796875-2.8466796875.47998046875-4.5322265625,1.06494140625-9.2421875,1.75537109375-14.12890625.6875-4.88671875,1.400390625-9.8330078125,2.1376953125-14.8427734375.73583984375-5.0078125,1.47119140625-10,2.20458984375-14.9775390625.7314453125-4.9765625,1.44970703125-9.8427734375,2.15380859375-14.6005859375.109375-.814453125.2431640625-1.5791015625.4033203125-2.2919921875.1591796875-.7119140625.4208984375-1.34765625.783203125-1.90625.3623046875-.556640625.8486328125-.970703125,1.458984375-1.240234375.61083984375-.267578125,1.45263671875-.36328125,2.5283203125-.2822265625,3.6162109375.1669921875,7.294921875.58203125,11.0361328125,1.244140625,3.74169921875.662109375,7.5625,1.4462890625,11.46240234375,2.353515625.51416015625.4521484375.78662109375,1.271484375.8193359375,2.4560546875.03173828125,1.1865234375-.11962890625,2.4267578125-.45263671875,3.7216796875-.333984375,1.2958984375-.7763671875,2.4501953125-1.32666015625,3.4609375-.55224609375,1.0126953125-1.11669921875,1.5419921875-1.6982421875,1.591796875-.259765625.0283203125-.71142578125-.0478515625-1.357421875-.23046875-.64599609375-.18359375-1.46337890625-.4033203125-2.4482421875-.6650390625-1.7314453125-.423828125-3.076171875-.748046875-4.03515625-.97265625-.96044921875-.224609375-1.669921875-.3994140625-2.13134765625-.525390625-.46240234375-.125-.7724609375-.2001953125-.92822265625-.2216796875-.15771484375-.0205078125-.267578125-.03515625-.3291015625-.0439453125Z" fill="#fff" stroke-width="0"/>
          <path d="M87.02294921875,185.2919921875c-1.16650390625,7.583984375-2.25146484375,15.123046875-3.25830078125,22.6162109375-1.00732421875,7.4951171875-1.9091796875,15.0224609375-2.7060546875,22.5810546875-.21240234375.4833984375-.5302734375.9521484375-.955078125,1.4052734375-.41796875.3818359375-.9951171875.7421875-1.7333984375,1.0810546875-.74072265625.3388671875-1.72900390625.49609375-2.966796875.4775390625-1.23974609375-.021484375-2.52392578125-.1025390625-3.85498046875-.244140625-1.3330078125-.1435546875-2.56298828125-.36328125-3.68994140625-.66015625-1.12890625-.298828125-2.072265625-.7529296875-2.828125-1.3662109375-.75830078125-.611328125-1.17626953125-1.4345703125-1.2568359375-2.46875-.0771484375-.5205078125-.02587890625-1.572265625.15087890625-3.1552734375.17431640625-1.58203125.43017578125-3.4833984375.76611328125-5.701171875.333984375-2.2177734375.736328125-4.666015625,1.205078125-7.3408203125.4697265625-2.6748046875.994140625-5.359375,1.576171875-8.0576171875.5087890625-2.705078125,1.02685546875-5.337890625,1.5537109375-7.8955078125.525390625-2.5576171875.9951171875-4.8310546875,1.4091796875-6.8193359375.533203125-2.337890625,1.04248046875-4.49609375,1.52734375-6.4765625-.0146484375-.439453125.1416015625-.783203125.4677734375-1.0322265625.25341796875-.2568359375.6240234375-.4443359375,1.115234375-.5615234375.490234375-.115234375,1.23681640625-.107421875,2.2421875.02734375,1.0029296875.1357421875,2.1513671875.2900390625,3.4423828125.462890625,1.291015625.173828125,2.5205078125.3935546875,3.689453125.66015625s2.1640625.6015625,2.98681640625,1.00390625c.82177734375.4033203125,1.1943359375.890625,1.1171875,1.4638671875ZM90.0068359375,171.236328125c-.25048828125,1.865234375-1.236328125,3.357421875-2.9560546875,4.4765625-1.7216796875,1.1201171875-3.65625,1.53515625-5.8076171875,1.24609375s-3.90966796875-1.2001953125-5.27294921875-2.7353515625c-1.36474609375-1.533203125-1.92041015625-3.232421875-1.66943359375-5.09765625.26025390625-1.9365234375,1.25146484375-3.4814453125,2.97802734375-4.6376953125,1.72412109375-1.154296875,3.66357421875-1.5888671875,5.81494140625-1.2998046875s3.9052734375,1.2197265625,5.265625,2.7890625c1.3583984375,1.5703125,1.90771484375,3.322265625,1.6474609375,5.2587890625Z" fill="#fff" stroke-width="0"/>
          <path d="M121.6826171875,181.2431640625c3.4072265625-.08984375,6.7333984375.28515625,9.97998046875,1.1220703125,3.24462890625.837890625,6.22021484375,2.205078125,8.92236328125,4.1015625s4.787109375,4.4404296875,6.2578125,7.630859375c1.2392578125,2.7236328125,2.005859375,5.9833984375,2.29931640625,9.7822265625.2919921875,3.80078125.07763671875,8.388671875-.6455078125,13.767578125l-2.57177734375,17.5068359375c-.0771484375.5751953125-.205078125,1.2509765625-.3818359375,2.029296875-.1787109375.7802734375-.5,1.5400390625-.9638671875,2.2802734375-.4658203125.7412109375-1.09765625,1.3681640625-1.8955078125,1.880859375-.7998046875.513671875-1.818359375.7578125-3.056640625.7392578125-1.974609375.025390625-4.03076171875-.158203125-6.16796875-.5546875-2.13671875-.3974609375-3.67919921875-1.42578125-4.623046875-3.0859375-.52978515625-.947265625-.8291015625-2.1181640625-.896484375-3.515625-.0693359375-1.3955078125-.0146484375-2.8857421875.162109375-4.46875.17529296875-1.5810546875.421875-3.1357421875.73681640625-4.6650390625.31494140625-1.5263671875.61962890625-2.85546875.91845703125-3.9833984375.623046875-2.470703125,1.203125-4.8759765625,1.736328125-7.21484375.533203125-2.3369140625.76904296875-4.640625.7099609375-6.9130859375-.1123046875-2.423828125-.66552734375-4.5615234375-1.65771484375-6.4111328125-.99365234375-1.84765625-2.2451171875-3.2587890625-3.75732421875-4.228515625-1.5126953125-.9697265625-3.16015625-1.482421875-4.9404296875-1.5400390625-1.7822265625-.056640625-3.5283203125.439453125-5.23828125,1.486328125-1.7119140625,1.0478515625-3.267578125,2.7197265625-4.6708984375,5.0126953125-1.4033203125,2.294921875-2.45849609375,5.2548828125-3.1650390625,8.8837890625l-2.71337890625,22.634765625c-.2314453125.6259765625-.56396484375,1.2021484375-.9990234375,1.7275390625-.42724609375.4541015625-1.0068359375.833984375-1.74072265625,1.1357421875-.7353515625.302734375-1.72119140625.4423828125-2.958984375.423828125-1.310546875-.03125-2.6318359375-.1181640625-3.962890625-.2587890625-1.33251953125-.1435546875-2.572265625-.419921875-3.7216796875-.8291015625-1.1494140625-.4111328125-2.0791015625-.97265625-2.78515625-1.6884765625-.7080078125-.71484375-1.0908203125-1.6611328125-1.1513671875-2.837890625-.08740234375-.4501953125.0517578125-2.01953125.4130859375-4.708984375s.85400390625-5.9443359375,1.47705078125-9.767578125c.62353515625-3.8212890625,1.29931640625-7.9111328125,2.03173828125-12.267578125.73095703125-4.3544921875,1.42578125-8.44140625,2.0859375-12.259765625.658203125-3.81640625,1.240234375-7.0615234375,1.74609375-9.7314453125.50390625-2.6708984375.79052734375-4.255859375.8583984375-4.7587890625-.0146484375-.4404296875.1455078125-.818359375.4814453125-1.1396484375.263671875-.3291015625.662109375-.5849609375,1.19873046875-.76953125.53466796875-.18359375,1.3095703125-.2431640625,2.32470703125-.1806640625.9404296875.0546875,2.0771484375.15234375,3.41015625.2939453125,1.3310546875.142578125,2.6005859375.33203125,3.8115234375.56640625,1.208984375.236328125,2.2255859375.5556640625,3.0478515625.9580078125.822265625.4033203125,1.189453125.92578125,1.1025390625,1.5712890625l-.4765625,3.5498046875c2.87841796875-.779296875,6.0224609375-1.2158203125,9.4296875-1.3056640625Z" fill="#fff" stroke-width="0"/>
          <path d="M215.5498046875,195.4462890625c-1.88330078125,8.5810546875-3.4912109375,17.1455078125-4.8212890625,25.69140625-1.33154296875,8.546875-2.2939453125,17.1982421875-2.88525390625,25.951171875-.14990234375.5654296875-.44189453125,1.1103515625-.876953125,1.634765625-.42724609375.455078125-1.01123046875.869140625-1.75537109375,1.2431640625-.7451171875.3759765625-1.7353515625.5498046875-2.97314453125.53125-1.095703125-.001953125-2.2626953125-.0126953125-3.50048828125-.0322265625-1.240234375-.021484375-2.38818359375-.15625-3.4501953125-.4091796875-1.060546875-.251953125-1.998046875-.6162109375-2.810546875-1.08984375-.81201171875-.4736328125-1.380859375-1.1328125-1.7041015625-1.9814453125-1.626953125.1484375-3.2509765625.275390625-4.87109375.38671875-1.6220703125.1103515625-3.26708984375.126953125-4.935546875.0478515625-4.86328125-.21484375-8.99072265625-1.4267578125-12.3798828125-3.634765625-3.39111328125-2.2080078125-6.0263671875-5.0078125-7.90673828125-8.400390625-1.88134765625-3.3916015625-3.01806640625-7.158203125-3.40966796875-11.30078125-.39306640625-4.140625-.04052734375-8.255859375,1.056640625-12.3427734375,1.0966796875-4.0869140625,2.92724609375-7.9306640625,5.4921875-11.529296875,2.564453125-3.59765625,5.86328125-6.548828125,9.896484375-8.85546875,4.3095703125-2.1943359375,8.89306640625-3.294921875,13.7509765625-3.298828125,4.85498046875-.0048828125,9.5986328125.9609375,14.23046875,2.8974609375.630859375-.353515625,1.587890625-.4052734375,2.86962890625-.162109375.994140625.20703125,2.14990234375.4365234375,3.46826171875.685546875,1.31591796875.2509765625,2.55224609375.5615234375,3.70703125.9365234375,1.15380859375.373046875,2.09765625.8125,2.8349609375,1.3115234375.7353515625.5009765625,1.060546875,1.07421875.9736328125,1.7197265625ZM197.01904296875,206.20703125c-3.05419921875-1.7236328125-5.87060546875-2.5029296875-8.447265625-2.33984375-2.5791015625.1650390625-4.8359375.9384765625-6.77392578125,2.3212890625-1.9384765625,1.3818359375-3.53125,3.1767578125-4.775390625,5.3818359375-1.24658203125,2.2060546875-2.09765625,4.46484375-2.5537109375,6.775390625-.4580078125,2.3125-.48046875,4.5185546875-.0673828125,6.6171875.41064453125,2.099609375,1.33984375,3.7392578125,2.7880859375,4.919921875,1.447265625,1.1796875,3.4033203125,1.69921875,5.8701171875,1.5556640625,2.4638671875-.1435546875,5.5546875-1.2802734375,9.27392578125-3.4091796875.39404296875-1.8447265625.74951171875-3.677734375,1.06787109375-5.4970703125.31640625-1.8193359375.671875-3.650390625,1.06640625-5.49609375.40380859375-1.91796875.80126953125-3.7978515625,1.197265625-5.64453125.392578125-1.8447265625.8447265625-3.572265625,1.35400390625-5.1845703125Z" fill="#fff" stroke-width="0"/>
          <path d="M237.02099609375,193.26953125c-.0634765625-.0078125-.173828125-.0234375-.32958984375-.0439453125-.1572265625-.021484375-.474609375-.0302734375-.953125-.03125s-1.2109375-.01953125-2.1953125-.056640625c-.9853515625-.0361328125-2.3681640625-.078125-4.1484375-.126953125-1.0205078125-.0078125-1.86572265625-.0107421875-2.537109375-.0048828125-.6708984375.005859375-1.12841796875-.0400390625-1.3701171875-.1357421875-.546875-.201171875-.9541015625-.8623046875-1.2177734375-1.984375-.26513671875-1.1201171875-.38720703125-2.349609375-.3662109375-3.6875.02001953125-1.337890625.2021484375-2.57421875.546875-3.708984375.34375-1.134765625.8232421875-1.8525390625,1.4375-2.1533203125,4.001953125.1552734375,7.88818359375.40625,11.6611328125.75390625,3.7734375.34765625,7.4150390625.9169921875,10.923828125,1.70703125,1.0498046875.205078125,1.83154296875.5185546875,2.34765625.9375.5146484375.4208984375.87158203125.9482421875,1.072265625,1.5810546875.19921875.6337890625.283203125,1.3154296875.2470703125,2.0439453125-.03466796875.73046875-.10546875,1.5029296875-.21484375,2.3173828125-.5791015625,4.7744140625-1.1708984375,9.658203125-1.77783203125,14.6513671875-.60791015625,4.994140625-1.216796875,10.00390625-1.82763671875,15.0283203125-.6123046875,5.0263671875-1.24609375,9.9833984375-1.9033203125,14.8740234375-.6572265625,4.8916015625-1.3212890625,9.5908203125-1.990234375,14.09765625-.1181640625.8779296875-.3076171875,1.810546875-.56640625,2.7958984375-.259765625.9873046875-.6044921875,1.8984375-1.0341796875,2.734375-.4296875.8349609375-.99365234375,1.4931640625-1.6923828125,1.974609375-.69921875.48046875-1.5751953125.6171875-2.625.4130859375-3.75732421875-.376953125-7.1708984375-.708984375-10.24169921875-.9931640625-1.32373046875-.1142578125-2.630859375-.2421875-3.91943359375-.3828125-1.2900390625-.142578125-2.46826171875-.2841796875-3.53369140625-.4267578125-1.06689453125-.1435546875-1.97314453125-.2822265625-2.7216796875-.4140625-.74755859375-.1337890625-1.240234375-.279296875-1.47314453125-.4375-.4853515625-.1943359375-.79931640625-.5859375-.9423828125-1.1796875-.14453125-.5947265625-.19775390625-1.271484375-.15771484375-2.0322265625.03759765625-.7607421875.14697265625-1.5751953125.32861328125-2.4462890625.1787109375-.869140625.3876953125-1.7021484375.623046875-2.5009765625.234375-.7978515625.49072265625-1.40234375.7705078125-1.8115234375.27734375-.4091796875.5283203125-.7265625.75-.953125.2841796875-.216796875.55615234375-.33984375.81591796875-.369140625l10.55322265625,1.9931640625c.33544921875-1.5498046875.65869140625-3.119140625.96728515625-4.70703125.30908203125-1.5859375.6435546875-3.3603515625,1.0029296875-5.3232421875.35986328125-1.9619140625.74072265625-4.208984375,1.14501953125-6.740234375.4033203125-2.53125.82958984375-5.4580078125,1.2763671875-8.7822265625.44677734375-3.322265625.92822265625-7.1533203125,1.447265625-11.48828125.51953125-4.3349609375,1.1259765625-9.3291015625,1.82275390625-14.9814453125Z" fill="#fff" stroke-width="0"/>
        </g>
      </g>
    </g>
  </a>
</svg>