<?xml version="1.0" encoding="UTF-8"?>
<svg id="Layer_1" data-name="Layer 1" xmlns="http://www.w3.org/2000/svg" width="600.000000000001819" height="600.000000000002728" xmlns:xlink="http://www.w3.org/1999/xlink" viewBox="0 0 600.000000000001819 600.000000000002728">
  <defs>
    <linearGradient id="C4" x1="183.698494160259543" y1="290.471317156543591" x2="411.788734540121368" y2="290.471317156543591" gradientTransform="translate(-10.229459996477544 10.817328663221701) rotate(-2.031110969255601)" gradientUnits="userSpaceOnUse">
      <stop offset="0" stop-color="#7e9e4c"/>
      <stop offset=".487868088942308" stop-color="#91a23d"/>
      <stop offset=".713373248351595" stop-color="#9d9c43"/>
      <stop offset="1" stop-color="#b4924e"/>
    </linearGradient>
  </defs>
  <g id="pie_with_links_-3" data-name="pie (with links)">
    <g>
      <g>
        <path d="M224.23779296875,273.833007812490905c-.0029296875-2.2822265625-.43603515625-3.97900390625-1.30224609375-5.09033203125-.86572265625-1.109375-1.93359375-1.77978515625-3.2001953125-2.01220703125-1.26806640625-.2294921875-2.619140625-.04296875-4.0537109375.55712890625-1.43603515625.6025390625-2.7236328125,1.4365234375-3.8671875,2.4990234375-2.6689453125,2.4560546875-4.7822265625,5.5419921875-6.3427734375,9.25732421875-1.5615234375,3.71533203125-2.564453125,7.5888671875-3.01220703125,11.619140625-.44775390625,4.03076171875-.3466796875,8.0224609375.30712890625,11.9736328125.65087890625,3.95263671875,1.8935546875,7.35302734375,3.72607421875,10.19970703125,1.16748046875,1.84716796875,2.5341796875,3.197265625,4.09912109375,4.0458984375,1.5654296875.8505859375,3.21435546875,1.302734375,4.9482421875,1.359375,1.73291015625.056640625,3.4326171875-.2783203125,5.10107421875-1.00732421875,1.66552734375-.72705078125,3.142578125-1.7822265625,4.43310546875-3.16845703125,1.97119140625-2.115234375,3.57080078125-3.6279296875,4.79833984375-4.5380859375,1.2255859375-.9091796875,2.62451171875-1.4306640625,4.19482421875-1.56591796875,4.4814453125-.15869140625,7.49267578125.994140625,9.037109375,3.4580078125,1.54296875,2.46533203125,1.75,5.52783203125.62158203125,9.1875-.92236328125,2.86669921875-2.38818359375,5.39794921875-4.39453125,7.5947265625-2.00927734375,2.1962890625-4.365234375,3.9921875-7.07080078125,5.38671875-2.70654296875,1.39453125-5.623046875,2.40380859375-8.74853515625,3.02587890625-3.12646484375.6220703125-6.2265625.8701171875-9.30126953125.7431640625-3.07421875-.126953125-6.00732421875-.67236328125-8.79541015625-1.63623046875-2.791015625-.96337890625-5.2001953125-2.3134765625-7.22802734375-4.05322265625-2.2744140625-1.9658203125-4.28271484375-4.23583984375-6.02783203125-6.8115234375-1.744140625-2.57470703125-3.2197265625-5.3173828125-4.423828125-8.22607421875-1.20654296875-2.90966796875-2.140625-5.9462890625-2.802734375-9.111328125-.6640625-3.1640625-1.0517578125-6.35693359375-1.166015625-9.58154296875-.099609375-7.23779296875,1.1845703125-14.2880859375,3.8544921875-21.15380859375,2.66748046875-6.86328125,6.3115234375-12.896484375,10.9296875-18.0986328125,2.11865234375-2.35693359375,4.66455078125-4.39599609375,7.634765625-6.11572265625,2.96826171875-1.71728515625,6.0380859375-2.8701171875,9.20556640625-3.455078125,3.1669921875-.5849609375,6.2978515625-.53662109375,9.3916015625.1396484375,3.09375.677734375,5.86474609375,2.23193359375,8.3125,4.6640625,1.87451171875,1.82275390625,3.40478515625,3.93408203125,4.59326171875,6.3310546875,1.1865234375,2.39892578125,2.09814453125,4.80712890625,2.73583984375,7.22314453125.36865234375,1.5625.5595703125,3.05029296875.5712890625,4.466796875.009765625,1.41650390625-.27587890625,2.76611328125-.8603515625,4.04541015625-.81005859375,1.60400390625-2.10595703125,2.77197265625-3.89013671875,3.50244140625-1.78564453125.7333984375-3.56494140625,1.01220703125-5.34228515625.83935546875-1.77734375-.17333984375-3.33447265625-.8056640625-4.67236328125-1.90087890625-1.337890625-1.0927734375-2.00244140625-2.62451171875-1.9931640625-4.5927734375Z" fill="none" stroke="#181818" stroke-width="18"/>
        <path d="M290.57275390625,289.899414062490905c2.376953125,2.67236328125,4.2841796875,5.9296875,5.71923828125,9.7744140625,1.435546875,3.845703125,2.0224609375,7.66259765625,1.763671875,11.4501953125-.21142578125,2.92041015625-.97314453125,5.83984375-2.28662109375,8.75927734375-1.3134765625,2.92138671875-3.0322265625,5.5390625-5.15234375,7.85791015625-2.123046875,2.318359375-4.59375,4.21728515625-7.4140625,5.6943359375-2.822265625,1.47802734375-5.8828125,2.2744140625-9.18359375,2.3916015625-2.0458984375.07275390625-4.13525390625-.07080078125-6.2734375-.4267578125s-4.2236328125-.892578125-6.255859375-1.6083984375c-2.03271484375-.7138671875-3.9375-1.669921875-5.71044921875-2.86767578125-1.77490234375-1.19482421875-3.2412109375-2.60009765625-4.400390625-4.2119140625-1.2373046875-1.60986328125-1.6552734375-3.40478515625-1.25341796875-5.38720703125.3935546875-2.216796875,1.24951171875-4.15673828125,2.568359375-5.81787109375,1.3173828125-1.6591796875,2.5498046875-3.02197265625,3.6923828125-4.08642578125.611328125-.49365234375,1.38720703125-.83544921875,2.3251953125-1.02734375.93798828125-.18994140625,1.8544921875.1708984375,2.75439453125,1.08349609375,1.4736328125,1.6005859375,3.05322265625,2.86376953125,4.7392578125,3.78759765625,1.68505859375.92529296875,3.33544921875,1.41650390625,4.9521484375,1.47705078125,1.6142578125.06103515625,3.13525390625-.34716796875,4.5615234375-1.224609375,1.4248046875-.876953125,2.61474609375-2.27685546875,3.5703125-4.19970703125.51025390625-1.11962890625.783203125-2.31005859375.81787109375-3.5712890625.03271484375-1.26025390625-.24365234375-2.41162109375-.8310546875-3.4541015625-.58837890625-1.041015625-1.52490234375-1.91259765625-2.80859375-2.6162109375-1.28515625-.701171875-2.951171875-1.09423828125-5.0009765625-1.18017578125-.1552734375.08447265625-.2724609375.10888671875-.3515625.0712890625-.080078125-.03515625-.16015625-.05322265625-.23779296875-.05029296875l-.23583984375.00830078125c-.07666015625.08154296875-.154296875.12353515625-.2314453125.1259765625l-.4716796875.01708984375c-.2392578125-.06884765625-.49658203125-.119140625-.77294921875-.14990234375-.27783203125-.02880859375-.49658203125-.11865234375-.6591796875-.27197265625-.87451171875-.205078125-1.48876953125-.8916015625-1.84423828125-2.0595703125-.3564453125-1.16796875-.57958984375-2.458984375-.6689453125-3.873046875-.09033203125-1.41357421875-.0810546875-2.810546875.02880859375-4.1923828125.1083984375-1.38037109375.26953125-2.3896484375.48291015625-3.02783203125.28271484375-.87548828125.65087890625-1.61767578125,1.10205078125-2.2236328125s.9892578125-.9208984375,1.619140625-.943359375c1.96435546875-.06982421875,3.6728515625-.7587890625,5.1220703125-2.07080078125,1.4482421875-1.30908203125,2.458984375-2.76171875,3.03369140625-4.35791015625.57275390625-1.59423828125.6181640625-3.07177734375.1376953125-4.43212890625-.4814453125-1.35986328125-1.70849609375-2.083984375-3.677734375-2.17236328125-1.34423828125-.109375-2.7626953125.35400390625-4.2607421875,1.390625-1.49853515625,1.03857421875-2.72314453125,2.5966796875-3.671875,4.67626953125-.36572265625.80029296875-.65234375,1.578125-.86181640625,2.33251953125-.208984375.75634765625-.7783203125,1.3466796875-1.70751953125,1.77294921875-.7763671875.34326171875-1.5166015625.52587890625-2.22412109375.55126953125-2.28125.08056640625-4.48681640625-.5087890625-6.6162109375-1.7724609375-2.13134765625-1.26220703125-3.5927734375-3.099609375-4.38720703125-5.51220703125-.36767578125-1.4814453125-.380859375-2.9384765625-.037109375-4.36767578125.3427734375-1.4287109375.8837890625-2.82470703125,1.62255859375-4.18994140625,1.25830078125-2.24755859375,2.87939453125-4.23486328125,4.8662109375-5.9580078125,1.98486328125-1.7236328125,4.19873046875-3.11962890625,6.640625-4.19091796875,2.44189453125-1.0703125,5.052734375-1.7734375,7.83642578125-2.1083984375,2.78125-.33447265625,5.60107421875-.19873046875,8.45703125.40869140625,3.56787109375.74072265625,6.533203125,2.26806640625,8.8994140625,4.58447265625,2.36474609375,2.318359375,4.0576171875,5.1103515625,5.0791015625,8.38037109375,1.0205078125,3.27001953125,1.306640625,6.880859375.85693359375,10.83251953125-.45068359375,3.953125-1.70458984375,8.01171875-3.76025390625,12.17626953125Z" fill="none" stroke="#181818" stroke-width="18"/>
        <path d="M305.70068359375,290.308105468740905c13.4287109375-.86962890625,26.9111328125-1.34765625,40.4482421875-1.4345703125.474609375.0625.9140625.28271484375,1.322265625.66162109375.40625.38037109375.74072265625.8994140625,1,1.55810546875.25927734375.66064453125.4501953125,1.619140625.57421875,2.87255859375.119140625,1.1767578125.203125,2.4130859375.24951171875,3.71044921875.0458984375,1.29736328125-.029296875,2.5009765625-.2265625,3.609375-.1962890625,1.1103515625-.517578125,2.0458984375-.962890625,2.80859375-.44482421875.7646484375-1.0966796875,1.279296875-1.95263671875,1.5458984375-.46875.09521484375-1.373046875.14794921875-2.70947265625.15478515625-1.33935546875.0087890625-2.95263671875-.01318359375-4.84423828125-.064453125-1.89013671875-.05078125-3.9794921875-.11376953125-6.2646484375-.19091796875-2.2861328125-.07568359375-4.60986328125-.14990234375-6.97412109375-.22509765625-2.28662109375-.07568359375-4.51171875-.13525390625-6.67724609375-.1767578125-2.16748046875-.041015625-4.11767578125-.1083984375-5.85205078125-.20556640625-2.0478515625-.00439453125-3.9375-.01708984375-5.6689453125-.03515625-.31201171875.09033203125-.63037109375.0224609375-.951171875-.20166015625-.24169921875-.1484375-.47119140625-.474609375-.6845703125-.9794921875-.21533203125-.50341796875-.37939453125-1.22705078125-.48974609375-2.1669921875-.11328125-.94091796875-.2314453125-2.03857421875-.353515625-3.2939453125-.12353515625-1.25341796875-.205078125-2.47265625-.2470703125-3.6513671875-.04150390625-1.1796875.0400390625-2.18603515625.2470703125-3.01953125.20654296875-.833984375.54541015625-1.25927734375,1.017578125-1.27587890625Z" fill="none" stroke="#181818" stroke-width="18"/>
        <path d="M412.97705078125,325.467773437490905c-.1279296875.87158203125-.37353515625,1.70703125-.73828125,2.505859375-.37158203125.64404296875-.93994140625,1.25439453125-1.70556640625,1.83203125-.76708984375.57861328125-1.81640625.9677734375-3.146484375,1.173828125-1.33203125.2041015625-2.72412109375.3515625-4.17626953125.443359375-1.4541015625.09033203125-2.81494140625,0-4.0830078125-.2685546875-1.26953125-.2705078125-2.39013671875-.80078125-3.3623046875-1.5927734375-.97265625-.7919921875-1.6064453125-2.00927734375-1.90087890625-3.65234375-.18896484375-.8583984375-.3291015625-2.6240234375-.423828125-5.2978515625-.0947265625-2.671875-.17333984375-5.97509765625-.23388671875-9.91015625-5.423828125.1923828125-10.87255859375.2880859375-16.3427734375.28466796875-5.47216796875-.00146484375-11.03955078125.01904296875-16.70458984375.06103515625-.23388671875.087890625-.5126953125.01806640625-.83447265625-.20654296875-.2412109375-.1484375-.490234375-.49365234375-.7451171875-1.0361328125-.25537109375-.541015625-.4814453125-1.35986328125-.677734375-2.45556640625-.0986328125-.5458984375-.24755859375-1.4267578125-.447265625-2.6416015625-.2021484375-1.21142578125-.384765625-2.50439453125-.55126953125-3.8759765625-.1669921875-1.37060546875-.271484375-2.666015625-.31494140625-3.8857421875-.04296875-1.2177734375.11962890625-2.14794921875.49169921875-2.7919921875.29296875-.56005859375,1.0458984375-1.5517578125,2.255859375-2.97265625,1.20751953125-1.41943359375,2.68017578125-3.18310546875,4.41748046875-5.29345703125,4.3828125-5.1142578125,8.68408203125-10.34375,12.90380859375-15.6884765625,4.2177734375-5.34521484375,8.38427734375-11.04248046875,12.5-17.09228515625.74609375-1.12744140625,1.44384765625-1.9990234375,2.091796875-2.61279296875.64599609375-.61328125,1.83203125-1.02783203125,3.55712890625-1.24755859375,1.64501953125-.21533203125,3.7021484375-.46533203125,6.171875-.75,2.4697265625-.283203125,4.57666015625-.2216796875,6.32373046875.1884765625.40087890625.22216796875.78564453125.50341796875,1.15185546875.8447265625.3662109375.3408203125.59814453125.787109375.69677734375,1.3330078125.3828125,1.955078125.625,3.796875.72705078125,5.52392578125.10009765625,1.72900390625.2177734375,3.3779296875.3525390625,4.947265625l2.7470703125,64.13427734375ZM383.09912109375,292.049804687490905c1.64892578125-.13623046875,3.2978515625-.25341796875,4.947265625-.3525390625,1.64990234375-.09716796875,3.2998046875-.17578125,4.9501953125-.234375-.0751953125-2.123046875-.11181640625-4.2470703125-.107421875-6.3720703125.001953125-2.12548828125.0419921875-4.33056640625.11962890625-6.61669921875-1.5703125,2.33935546875-3.18310546875,4.6201171875-4.8349609375,6.8427734375-1.65283203125,2.224609375-3.34423828125,4.46826171875-5.07470703125,6.73291015625Z" fill="none" stroke="#181818" stroke-width="18"/>
      </g>
      <g>
        <path d="M224.23779296875,273.833007812490905c-.0029296875-2.2822265625-.43603515625-3.97900390625-1.30224609375-5.09033203125-.86572265625-1.109375-1.93359375-1.77978515625-3.2001953125-2.01220703125-1.26806640625-.2294921875-2.619140625-.04296875-4.0537109375.55712890625-1.43603515625.6025390625-2.7236328125,1.4365234375-3.8671875,2.4990234375-2.6689453125,2.4560546875-4.7822265625,5.5419921875-6.3427734375,9.25732421875-1.5615234375,3.71533203125-2.564453125,7.5888671875-3.01220703125,11.619140625-.44775390625,4.03076171875-.3466796875,8.0224609375.30712890625,11.9736328125.65087890625,3.95263671875,1.8935546875,7.35302734375,3.72607421875,10.19970703125,1.16748046875,1.84716796875,2.5341796875,3.197265625,4.09912109375,4.0458984375,1.5654296875.8505859375,3.21435546875,1.302734375,4.9482421875,1.359375,1.73291015625.056640625,3.4326171875-.2783203125,5.10107421875-1.00732421875,1.66552734375-.72705078125,3.142578125-1.7822265625,4.43310546875-3.16845703125,1.97119140625-2.115234375,3.57080078125-3.6279296875,4.79833984375-4.5380859375,1.2255859375-.9091796875,2.62451171875-1.4306640625,4.19482421875-1.56591796875,4.4814453125-.15869140625,7.49267578125.994140625,9.037109375,3.4580078125,1.54296875,2.46533203125,1.75,5.52783203125.62158203125,9.1875-.92236328125,2.86669921875-2.38818359375,5.39794921875-4.39453125,7.5947265625-2.00927734375,2.1962890625-4.365234375,3.9921875-7.07080078125,5.38671875-2.70654296875,1.39453125-5.623046875,2.40380859375-8.74853515625,3.02587890625-3.12646484375.6220703125-6.2265625.8701171875-9.30126953125.7431640625-3.07421875-.126953125-6.00732421875-.67236328125-8.79541015625-1.63623046875-2.791015625-.96337890625-5.2001953125-2.3134765625-7.22802734375-4.05322265625-2.2744140625-1.9658203125-4.28271484375-4.23583984375-6.02783203125-6.8115234375-1.744140625-2.57470703125-3.2197265625-5.3173828125-4.423828125-8.22607421875-1.20654296875-2.90966796875-2.140625-5.9462890625-2.802734375-9.111328125-.6640625-3.1640625-1.0517578125-6.35693359375-1.166015625-9.58154296875-.099609375-7.23779296875,1.1845703125-14.2880859375,3.8544921875-21.15380859375,2.66748046875-6.86328125,6.3115234375-12.896484375,10.9296875-18.0986328125,2.11865234375-2.35693359375,4.66455078125-4.39599609375,7.634765625-6.11572265625,2.96826171875-1.71728515625,6.0380859375-2.8701171875,9.20556640625-3.455078125,3.1669921875-.5849609375,6.2978515625-.53662109375,9.3916015625.1396484375,3.09375.677734375,5.86474609375,2.23193359375,8.3125,4.6640625,1.87451171875,1.82275390625,3.40478515625,3.93408203125,4.59326171875,6.3310546875,1.1865234375,2.39892578125,2.09814453125,4.80712890625,2.73583984375,7.22314453125.36865234375,1.5625.5595703125,3.05029296875.5712890625,4.466796875.009765625,1.41650390625-.27587890625,2.76611328125-.8603515625,4.04541015625-.81005859375,1.60400390625-2.10595703125,2.77197265625-3.89013671875,3.50244140625-1.78564453125.7333984375-3.56494140625,1.01220703125-5.34228515625.83935546875-1.77734375-.17333984375-3.33447265625-.8056640625-4.67236328125-1.90087890625-1.337890625-1.0927734375-2.00244140625-2.62451171875-1.9931640625-4.5927734375Z" fill="#231f20" stroke-width="0"/>
        <path d="M290.57275390625,289.899414062490905c2.376953125,2.67236328125,4.2841796875,5.9296875,5.71923828125,9.7744140625,1.435546875,3.845703125,2.0224609375,7.66259765625,1.763671875,11.4501953125-.21142578125,2.92041015625-.97314453125,5.83984375-2.28662109375,8.75927734375-1.3134765625,2.92138671875-3.0322265625,5.5390625-5.15234375,7.85791015625-2.123046875,2.318359375-4.59375,4.21728515625-7.4140625,5.6943359375-2.822265625,1.47802734375-5.8828125,2.2744140625-9.18359375,2.3916015625-2.0458984375.07275390625-4.13525390625-.07080078125-6.2734375-.4267578125s-4.2236328125-.892578125-6.255859375-1.6083984375c-2.03271484375-.7138671875-3.9375-1.669921875-5.71044921875-2.86767578125-1.77490234375-1.19482421875-3.2412109375-2.60009765625-4.400390625-4.2119140625-1.2373046875-1.60986328125-1.6552734375-3.40478515625-1.25341796875-5.38720703125.3935546875-2.216796875,1.24951171875-4.15673828125,2.568359375-5.81787109375,1.3173828125-1.6591796875,2.5498046875-3.02197265625,3.6923828125-4.08642578125.611328125-.49365234375,1.38720703125-.83544921875,2.3251953125-1.02734375.93798828125-.18994140625,1.8544921875.1708984375,2.75439453125,1.08349609375,1.4736328125,1.6005859375,3.05322265625,2.86376953125,4.7392578125,3.78759765625,1.68505859375.92529296875,3.33544921875,1.41650390625,4.9521484375,1.47705078125,1.6142578125.06103515625,3.13525390625-.34716796875,4.5615234375-1.224609375,1.4248046875-.876953125,2.61474609375-2.27685546875,3.5703125-4.19970703125.51025390625-1.11962890625.783203125-2.31005859375.81787109375-3.5712890625.03271484375-1.26025390625-.24365234375-2.41162109375-.8310546875-3.4541015625-.58837890625-1.041015625-1.52490234375-1.91259765625-2.80859375-2.6162109375-1.28515625-.701171875-2.951171875-1.09423828125-5.0009765625-1.18017578125-.1552734375.08447265625-.2724609375.10888671875-.3515625.0712890625-.080078125-.03515625-.16015625-.05322265625-.23779296875-.05029296875l-.23583984375.00830078125c-.07666015625.08154296875-.154296875.12353515625-.2314453125.1259765625l-.4716796875.01708984375c-.2392578125-.06884765625-.49658203125-.119140625-.77294921875-.14990234375-.27783203125-.02880859375-.49658203125-.11865234375-.6591796875-.27197265625-.87451171875-.205078125-1.48876953125-.8916015625-1.84423828125-2.0595703125-.3564453125-1.16796875-.57958984375-2.458984375-.6689453125-3.873046875-.09033203125-1.41357421875-.0810546875-2.810546875.02880859375-4.1923828125.1083984375-1.38037109375.26953125-2.3896484375.48291015625-3.02783203125.28271484375-.87548828125.65087890625-1.61767578125,1.10205078125-2.2236328125s.9892578125-.9208984375,1.619140625-.943359375c1.96435546875-.06982421875,3.6728515625-.7587890625,5.1220703125-2.07080078125,1.4482421875-1.30908203125,2.458984375-2.76171875,3.03369140625-4.35791015625.57275390625-1.59423828125.6181640625-3.07177734375.1376953125-4.43212890625-.4814453125-1.35986328125-1.70849609375-2.083984375-3.677734375-2.17236328125-1.34423828125-.109375-2.7626953125.35400390625-4.2607421875,1.390625-1.49853515625,1.03857421875-2.72314453125,2.5966796875-3.671875,4.67626953125-.36572265625.80029296875-.65234375,1.578125-.86181640625,2.33251953125-.208984375.75634765625-.7783203125,1.3466796875-1.70751953125,1.77294921875-.7763671875.34326171875-1.5166015625.52587890625-2.22412109375.55126953125-2.28125.08056640625-4.48681640625-.5087890625-6.6162109375-1.7724609375-2.13134765625-1.26220703125-3.5927734375-3.099609375-4.38720703125-5.51220703125-.36767578125-1.4814453125-.380859375-2.9384765625-.037109375-4.36767578125.3427734375-1.4287109375.8837890625-2.82470703125,1.62255859375-4.18994140625,1.25830078125-2.24755859375,2.87939453125-4.23486328125,4.8662109375-5.9580078125,1.98486328125-1.7236328125,4.19873046875-3.11962890625,6.640625-4.19091796875,2.44189453125-1.0703125,5.052734375-1.7734375,7.83642578125-2.1083984375,2.78125-.33447265625,5.60107421875-.19873046875,8.45703125.40869140625,3.56787109375.74072265625,6.533203125,2.26806640625,8.8994140625,4.58447265625,2.36474609375,2.318359375,4.0576171875,5.1103515625,5.0791015625,8.38037109375,1.0205078125,3.27001953125,1.306640625,6.880859375.85693359375,10.83251953125-.45068359375,3.953125-1.70458984375,8.01171875-3.76025390625,12.17626953125Z" fill="#231f20" stroke-width="0"/>
        <path d="M305.70068359375,290.308105468740905c13.4287109375-.86962890625,26.9111328125-1.34765625,40.4482421875-1.4345703125.474609375.0625.9140625.28271484375,1.322265625.66162109375.40625.38037109375.74072265625.8994140625,1,1.55810546875.25927734375.66064453125.4501953125,1.619140625.57421875,2.87255859375.119140625,1.1767578125.203125,2.4130859375.24951171875,3.71044921875.0458984375,1.29736328125-.029296875,2.5009765625-.2265625,3.609375-.1962890625,1.1103515625-.517578125,2.0458984375-.962890625,2.80859375-.44482421875.7646484375-1.0966796875,1.279296875-1.95263671875,1.5458984375-.46875.09521484375-1.373046875.14794921875-2.70947265625.15478515625-1.33935546875.0087890625-2.95263671875-.01318359375-4.84423828125-.064453125-1.89013671875-.05078125-3.9794921875-.11376953125-6.2646484375-.19091796875-2.2861328125-.07568359375-4.60986328125-.14990234375-6.97412109375-.22509765625-2.28662109375-.07568359375-4.51171875-.13525390625-6.67724609375-.1767578125-2.16748046875-.041015625-4.11767578125-.1083984375-5.85205078125-.20556640625-2.0478515625-.00439453125-3.9375-.01708984375-5.6689453125-.03515625-.31201171875.09033203125-.63037109375.0224609375-.951171875-.20166015625-.24169921875-.1484375-.47119140625-.474609375-.6845703125-.9794921875-.21533203125-.50341796875-.37939453125-1.22705078125-.48974609375-2.1669921875-.11328125-.94091796875-.2314453125-2.03857421875-.353515625-3.2939453125-.12353515625-1.25341796875-.205078125-2.47265625-.2470703125-3.6513671875-.04150390625-1.1796875.0400390625-2.18603515625.2470703125-3.01953125.20654296875-.833984375.54541015625-1.25927734375,1.017578125-1.27587890625Z" fill="#231f20" stroke-width="0"/>
        <path d="M412.97705078125,325.467773437490905c-.1279296875.87158203125-.37353515625,1.70703125-.73828125,2.505859375-.37158203125.64404296875-.93994140625,1.25439453125-1.70556640625,1.83203125-.76708984375.57861328125-1.81640625.9677734375-3.146484375,1.173828125-1.33203125.2041015625-2.72412109375.3515625-4.17626953125.443359375-1.4541015625.09033203125-2.81494140625,0-4.0830078125-.2685546875-1.26953125-.2705078125-2.39013671875-.80078125-3.3623046875-1.5927734375-.97265625-.7919921875-1.6064453125-2.00927734375-1.90087890625-3.65234375-.18896484375-.8583984375-.3291015625-2.6240234375-.423828125-5.2978515625-.0947265625-2.671875-.17333984375-5.97509765625-.23388671875-9.91015625-5.423828125.1923828125-10.87255859375.2880859375-16.3427734375.28466796875-5.47216796875-.00146484375-11.03955078125.01904296875-16.70458984375.06103515625-.23388671875.087890625-.5126953125.01806640625-.83447265625-.20654296875-.2412109375-.1484375-.490234375-.49365234375-.7451171875-1.0361328125-.25537109375-.541015625-.4814453125-1.35986328125-.677734375-2.45556640625-.0986328125-.5458984375-.24755859375-1.4267578125-.447265625-2.6416015625-.2021484375-1.21142578125-.384765625-2.50439453125-.55126953125-3.8759765625-.1669921875-1.37060546875-.271484375-2.666015625-.31494140625-3.8857421875-.04296875-1.2177734375.11962890625-2.14794921875.49169921875-2.7919921875.29296875-.56005859375,1.0458984375-1.5517578125,2.255859375-2.97265625,1.20751953125-1.41943359375,2.68017578125-3.18310546875,4.41748046875-5.29345703125,4.3828125-5.1142578125,8.68408203125-10.34375,12.90380859375-15.6884765625,4.2177734375-5.34521484375,8.38427734375-11.04248046875,12.5-17.09228515625.74609375-1.12744140625,1.44384765625-1.9990234375,2.091796875-2.61279296875.64599609375-.61328125,1.83203125-1.02783203125,3.55712890625-1.24755859375,1.64501953125-.21533203125,3.7021484375-.46533203125,6.171875-.75,2.4697265625-.283203125,4.57666015625-.2216796875,6.32373046875.1884765625.40087890625.22216796875.78564453125.50341796875,1.15185546875.8447265625.3662109375.3408203125.59814453125.787109375.69677734375,1.3330078125.3828125,1.955078125.625,3.796875.72705078125,5.52392578125.10009765625,1.72900390625.2177734375,3.3779296875.3525390625,4.947265625l2.7470703125,64.13427734375ZM383.09912109375,292.049804687490905c1.64892578125-.13623046875,3.2978515625-.25341796875,4.947265625-.3525390625,1.64990234375-.09716796875,3.2998046875-.17578125,4.9501953125-.234375-.0751953125-2.123046875-.11181640625-4.2470703125-.107421875-6.3720703125.001953125-2.12548828125.0419921875-4.33056640625.11962890625-6.61669921875-1.5703125,2.33935546875-3.18310546875,4.6201171875-4.8349609375,6.8427734375-1.65283203125,2.224609375-3.34423828125,4.46826171875-5.07470703125,6.73291015625Z" fill="#231f20" stroke-width="0"/>
      </g>
      <g>
        <path d="M224.23779296875,273.833007812490905c-.0029296875-2.2822265625-.43603515625-3.97900390625-1.30224609375-5.09033203125-.86572265625-1.109375-1.93359375-1.77978515625-3.2001953125-2.01220703125-1.26806640625-.2294921875-2.619140625-.04296875-4.0537109375.55712890625-1.43603515625.6025390625-2.7236328125,1.4365234375-3.8671875,2.4990234375-2.6689453125,2.4560546875-4.7822265625,5.5419921875-6.3427734375,9.25732421875-1.5615234375,3.71533203125-2.564453125,7.5888671875-3.01220703125,11.619140625-.44775390625,4.03076171875-.3466796875,8.0224609375.30712890625,11.9736328125.65087890625,3.95263671875,1.8935546875,7.35302734375,3.72607421875,10.19970703125,1.16748046875,1.84716796875,2.5341796875,3.197265625,4.09912109375,4.0458984375,1.5654296875.8505859375,3.21435546875,1.302734375,4.9482421875,1.359375,1.73291015625.056640625,3.4326171875-.2783203125,5.10107421875-1.00732421875,1.66552734375-.72705078125,3.142578125-1.7822265625,4.43310546875-3.16845703125,1.97119140625-2.115234375,3.57080078125-3.6279296875,4.79833984375-4.5380859375,1.2255859375-.9091796875,2.62451171875-1.4306640625,4.19482421875-1.56591796875,4.4814453125-.15869140625,7.49267578125.994140625,9.037109375,3.4580078125,1.54296875,2.46533203125,1.75,5.52783203125.62158203125,9.1875-.92236328125,2.86669921875-2.38818359375,5.39794921875-4.39453125,7.5947265625-2.00927734375,2.1962890625-4.365234375,3.9921875-7.07080078125,5.38671875-2.70654296875,1.39453125-5.623046875,2.40380859375-8.74853515625,3.02587890625-3.12646484375.6220703125-6.2265625.8701171875-9.30126953125.7431640625-3.07421875-.126953125-6.00732421875-.67236328125-8.79541015625-1.63623046875-2.791015625-.96337890625-5.2001953125-2.3134765625-7.22802734375-4.05322265625-2.2744140625-1.9658203125-4.28271484375-4.23583984375-6.02783203125-6.8115234375-1.744140625-2.57470703125-3.2197265625-5.3173828125-4.423828125-8.22607421875-1.20654296875-2.90966796875-2.140625-5.9462890625-2.802734375-9.111328125-.6640625-3.1640625-1.0517578125-6.35693359375-1.166015625-9.58154296875-.099609375-7.23779296875,1.1845703125-14.2880859375,3.8544921875-21.15380859375,2.66748046875-6.86328125,6.3115234375-12.896484375,10.9296875-18.0986328125,2.11865234375-2.35693359375,4.66455078125-4.39599609375,7.634765625-6.11572265625,2.96826171875-1.71728515625,6.0380859375-2.8701171875,9.20556640625-3.455078125,3.1669921875-.5849609375,6.2978515625-.53662109375,9.3916015625.1396484375,3.09375.677734375,5.86474609375,2.23193359375,8.3125,4.6640625,1.87451171875,1.82275390625,3.40478515625,3.93408203125,4.59326171875,6.3310546875,1.1865234375,2.39892578125,2.09814453125,4.80712890625,2.73583984375,7.22314453125.36865234375,1.5625.5595703125,3.05029296875.5712890625,4.466796875.009765625,1.41650390625-.27587890625,2.76611328125-.8603515625,4.04541015625-.81005859375,1.60400390625-2.10595703125,2.77197265625-3.89013671875,3.50244140625-1.78564453125.7333984375-3.56494140625,1.01220703125-5.34228515625.83935546875-1.77734375-.17333984375-3.33447265625-.8056640625-4.67236328125-1.90087890625-1.337890625-1.0927734375-2.00244140625-2.62451171875-1.9931640625-4.5927734375Z" fill="url(#C4)" stroke-width="0"/>
        <path d="M290.57275390625,289.899414062490905c2.376953125,2.67236328125,4.2841796875,5.9296875,5.71923828125,9.7744140625,1.435546875,3.845703125,2.0224609375,7.66259765625,1.763671875,11.4501953125-.21142578125,2.92041015625-.97314453125,5.83984375-2.28662109375,8.75927734375-1.3134765625,2.92138671875-3.0322265625,5.5390625-5.15234375,7.85791015625-2.123046875,2.318359375-4.59375,4.21728515625-7.4140625,5.6943359375-2.822265625,1.47802734375-5.8828125,2.2744140625-9.18359375,2.3916015625-2.0458984375.07275390625-4.13525390625-.07080078125-6.2734375-.4267578125s-4.2236328125-.892578125-6.255859375-1.6083984375c-2.03271484375-.7138671875-3.9375-1.669921875-5.71044921875-2.86767578125-1.77490234375-1.19482421875-3.2412109375-2.60009765625-4.400390625-4.2119140625-1.2373046875-1.60986328125-1.6552734375-3.40478515625-1.25341796875-5.38720703125.3935546875-2.216796875,1.24951171875-4.15673828125,2.568359375-5.81787109375,1.3173828125-1.6591796875,2.5498046875-3.02197265625,3.6923828125-4.08642578125.611328125-.49365234375,1.38720703125-.83544921875,2.3251953125-1.02734375.93798828125-.18994140625,1.8544921875.1708984375,2.75439453125,1.08349609375,1.4736328125,1.6005859375,3.05322265625,2.86376953125,4.7392578125,3.78759765625,1.68505859375.92529296875,3.33544921875,1.41650390625,4.9521484375,1.47705078125,1.6142578125.06103515625,3.13525390625-.34716796875,4.5615234375-1.224609375,1.4248046875-.876953125,2.61474609375-2.27685546875,3.5703125-4.19970703125.51025390625-1.11962890625.783203125-2.31005859375.81787109375-3.5712890625.03271484375-1.26025390625-.24365234375-2.41162109375-.8310546875-3.4541015625-.58837890625-1.041015625-1.52490234375-1.91259765625-2.80859375-2.6162109375-1.28515625-.701171875-2.951171875-1.09423828125-5.0009765625-1.18017578125-.1552734375.08447265625-.2724609375.10888671875-.3515625.0712890625-.080078125-.03515625-.16015625-.05322265625-.23779296875-.05029296875l-.23583984375.00830078125c-.07666015625.08154296875-.154296875.12353515625-.2314453125.1259765625l-.4716796875.01708984375c-.2392578125-.06884765625-.49658203125-.119140625-.77294921875-.14990234375-.27783203125-.02880859375-.49658203125-.11865234375-.6591796875-.27197265625-.87451171875-.205078125-1.48876953125-.8916015625-1.84423828125-2.0595703125-.3564453125-1.16796875-.57958984375-2.458984375-.6689453125-3.873046875-.09033203125-1.41357421875-.0810546875-2.810546875.02880859375-4.1923828125.1083984375-1.38037109375.26953125-2.3896484375.48291015625-3.02783203125.28271484375-.87548828125.65087890625-1.61767578125,1.10205078125-2.2236328125s.9892578125-.9208984375,1.619140625-.943359375c1.96435546875-.06982421875,3.6728515625-.7587890625,5.1220703125-2.07080078125,1.4482421875-1.30908203125,2.458984375-2.76171875,3.03369140625-4.35791015625.57275390625-1.59423828125.6181640625-3.07177734375.1376953125-4.43212890625-.4814453125-1.35986328125-1.70849609375-2.083984375-3.677734375-2.17236328125-1.34423828125-.109375-2.7626953125.35400390625-4.2607421875,1.390625-1.49853515625,1.03857421875-2.72314453125,2.5966796875-3.671875,4.67626953125-.36572265625.80029296875-.65234375,1.578125-.86181640625,2.33251953125-.208984375.75634765625-.7783203125,1.3466796875-1.70751953125,1.77294921875-.7763671875.34326171875-1.5166015625.52587890625-2.22412109375.55126953125-2.28125.08056640625-4.48681640625-.5087890625-6.6162109375-1.7724609375-2.13134765625-1.26220703125-3.5927734375-3.099609375-4.38720703125-5.51220703125-.36767578125-1.4814453125-.380859375-2.9384765625-.037109375-4.36767578125.3427734375-1.4287109375.8837890625-2.82470703125,1.62255859375-4.18994140625,1.25830078125-2.24755859375,2.87939453125-4.23486328125,4.8662109375-5.9580078125,1.98486328125-1.7236328125,4.19873046875-3.11962890625,6.640625-4.19091796875,2.44189453125-1.0703125,5.052734375-1.7734375,7.83642578125-2.1083984375,2.78125-.33447265625,5.60107421875-.19873046875,8.45703125.40869140625,3.56787109375.74072265625,6.533203125,2.26806640625,8.8994140625,4.58447265625,2.36474609375,2.318359375,4.0576171875,5.1103515625,5.0791015625,8.38037109375,1.0205078125,3.27001953125,1.306640625,6.880859375.85693359375,10.83251953125-.45068359375,3.953125-1.70458984375,8.01171875-3.76025390625,12.17626953125Z" fill="url(#C4)" stroke-width="0"/>
        <path d="M305.70068359375,290.308105468740905c13.4287109375-.86962890625,26.9111328125-1.34765625,40.4482421875-1.4345703125.474609375.0625.9140625.28271484375,1.322265625.66162109375.40625.38037109375.74072265625.8994140625,1,1.55810546875.25927734375.66064453125.4501953125,1.619140625.57421875,2.87255859375.119140625,1.1767578125.203125,2.4130859375.24951171875,3.71044921875.0458984375,1.29736328125-.029296875,2.5009765625-.2265625,3.609375-.1962890625,1.1103515625-.517578125,2.0458984375-.962890625,2.80859375-.44482421875.7646484375-1.0966796875,1.279296875-1.95263671875,1.5458984375-.46875.09521484375-1.373046875.14794921875-2.70947265625.15478515625-1.33935546875.0087890625-2.95263671875-.01318359375-4.84423828125-.064453125-1.89013671875-.05078125-3.9794921875-.11376953125-6.2646484375-.19091796875-2.2861328125-.07568359375-4.60986328125-.14990234375-6.97412109375-.22509765625-2.28662109375-.07568359375-4.51171875-.13525390625-6.67724609375-.1767578125-2.16748046875-.041015625-4.11767578125-.1083984375-5.85205078125-.20556640625-2.0478515625-.00439453125-3.9375-.01708984375-5.6689453125-.03515625-.31201171875.09033203125-.63037109375.0224609375-.951171875-.20166015625-.24169921875-.1484375-.47119140625-.474609375-.6845703125-.9794921875-.21533203125-.50341796875-.37939453125-1.22705078125-.48974609375-2.1669921875-.11328125-.94091796875-.2314453125-2.03857421875-.353515625-3.2939453125-.12353515625-1.25341796875-.205078125-2.47265625-.2470703125-3.6513671875-.04150390625-1.1796875.0400390625-2.18603515625.2470703125-3.01953125.20654296875-.833984375.54541015625-1.25927734375,1.017578125-1.27587890625Z" fill="url(#C4)" stroke-width="0"/>
        <path d="M412.97705078125,325.467773437490905c-.1279296875.87158203125-.37353515625,1.70703125-.73828125,2.505859375-.37158203125.64404296875-.93994140625,1.25439453125-1.70556640625,1.83203125-.76708984375.57861328125-1.81640625.9677734375-3.146484375,1.173828125-1.33203125.2041015625-2.72412109375.3515625-4.17626953125.443359375-1.4541015625.09033203125-2.81494140625,0-4.0830078125-.2685546875-1.26953125-.2705078125-2.39013671875-.80078125-3.3623046875-1.5927734375-.97265625-.7919921875-1.6064453125-2.00927734375-1.90087890625-3.65234375-.18896484375-.8583984375-.3291015625-2.6240234375-.423828125-5.2978515625-.0947265625-2.671875-.17333984375-5.97509765625-.23388671875-9.91015625-5.423828125.1923828125-10.87255859375.2880859375-16.3427734375.28466796875-5.47216796875-.00146484375-11.03955078125.01904296875-16.70458984375.06103515625-.23388671875.087890625-.5126953125.01806640625-.83447265625-.20654296875-.2412109375-.1484375-.490234375-.49365234375-.7451171875-1.0361328125-.25537109375-.541015625-.4814453125-1.35986328125-.677734375-2.45556640625-.0986328125-.5458984375-.24755859375-1.4267578125-.447265625-2.6416015625-.2021484375-1.21142578125-.384765625-2.50439453125-.55126953125-3.8759765625-.1669921875-1.37060546875-.271484375-2.666015625-.31494140625-3.8857421875-.04296875-1.2177734375.11962890625-2.14794921875.49169921875-2.7919921875.29296875-.56005859375,1.0458984375-1.5517578125,2.255859375-2.97265625,1.20751953125-1.41943359375,2.68017578125-3.18310546875,4.41748046875-5.29345703125,4.3828125-5.1142578125,8.68408203125-10.34375,12.90380859375-15.6884765625,4.2177734375-5.34521484375,8.38427734375-11.04248046875,12.5-17.09228515625.74609375-1.12744140625,1.44384765625-1.9990234375,2.091796875-2.61279296875.64599609375-.61328125,1.83203125-1.02783203125,3.55712890625-1.24755859375,1.64501953125-.21533203125,3.7021484375-.46533203125,6.171875-.75,2.4697265625-.283203125,4.57666015625-.2216796875,6.32373046875.1884765625.40087890625.22216796875.78564453125.50341796875,1.15185546875.8447265625.3662109375.3408203125.59814453125.787109375.69677734375,1.3330078125.3828125,1.955078125.625,3.796875.72705078125,5.52392578125.10009765625,1.72900390625.2177734375,3.3779296875.3525390625,4.947265625l2.7470703125,64.13427734375ZM383.09912109375,292.049804687490905c1.64892578125-.13623046875,3.2978515625-.25341796875,4.947265625-.3525390625,1.64990234375-.09716796875,3.2998046875-.17578125,4.9501953125-.234375-.0751953125-2.123046875-.11181640625-4.2470703125-.107421875-6.3720703125.001953125-2.12548828125.0419921875-4.33056640625.11962890625-6.61669921875-1.5703125,2.33935546875-3.18310546875,4.6201171875-4.8349609375,6.8427734375-1.65283203125,2.224609375-3.34423828125,4.46826171875-5.07470703125,6.73291015625Z" fill="url(#C4)" stroke-width="0"/>
      </g>
    </g>
  </g>
  <g id="pie_with_links_-5" data-name="pie (with links)">
    <g id="pie_with_links_-6" data-name="pie (with links)">
      <g id="Pie">
        <g>
          <a xlink:href="https://www.notion.so/dmmnotes/paranoid-ae38b1e6af0c4dd08f61e0d8f6e9f05f?pvs=4">
            <path id="C8" d="M331.308105468762733,517.749511718752728l7.825683593739086,54.4306640625c26.439208984369543-3.767822265632276,51.645751953139552-11.3115234375,75.101318359369543-22.04296875l-22.832519531239086-49.996826171882276c-18.7666015625,8.572265625-38.93505859375,14.601318359382276-60.094482421869543,17.609130859382276Z" fill="none" stroke="#181818" stroke-linecap="round" stroke-linejoin="round" stroke-width="15"/>
          </a>
          <a xlink:href="https://www.notion.so/dmmnotes/menacing-a5bd7149286344deba45ec15e759e579?pvs=4">
            <path id="C7" d="M391.402587890632276,500.140380859370453l22.832519531239086,49.996826171882276c23.989990234391371-10.975830078121362,46.116210937520009-25.287109375011823,65.803955078141371-42.36181640625l-35.972900390630457-41.515869140621362c-15.753417968760914,13.65869140625-33.459228515630457,25.104492187489086-52.66357421875,33.880859374989086Z" fill="none" stroke="#181818" stroke-linecap="round" stroke-linejoin="round" stroke-width="15"/>
          </a>
          <a xlink:href="https://www.notion.so/dmmnotes/seductively-obsessed-with-rescue-6fb5a68f6d334bc29ccccc16d8a4e56e?pvs=4">
            <path id="C6" d="M444.066162109382276,466.259521484381366l35.972900390630457,41.515869140621362c19.762939453119543-17.141845703132276,37.047119140619543-37.041748046882276,51.26708984375-59.125l-46.223632812510914-29.704833984371362c-11.373291015619543,17.673583984371362-25.201171874989086,33.598876953121362-41.016357421869543,47.31396484375Z" fill="none" stroke="#181818" stroke-linecap="round" stroke-linejoin="round" stroke-width="15"/>
          </a>
          <a xlink:href="https://www.notion.so/dmmnotes/punitively-obsessed-with-revenge-33d2e77f37774316b42bccf4a60f9688?pvs=4">
            <path id="C5" d="M485.082519531251819,418.945556640631366l46.223632812510914,29.704833984371362c14.048095703128638-21.809326171882276,25.08837890625-45.71875,32.551513671869543-71.175048828133185l-52.7548828125-15.490234375c-5.9619140625,20.377929687511823-14.789306640619543,39.509765625000909-26.020263671880457,56.960449218761823Z" fill="none" stroke="#181818" stroke-linecap="round" stroke-linejoin="round" stroke-width="15"/>
          </a>
          <a xlink:href="https://www.notion.so/dmmnotes/feigned-helpless-e79a94b0498c4e109a681b7f3dcdb088?pvs=4">
            <g id="C4-2" data-name="C4">
              <path d="M563.85791015625,378.475097656246362c-.0947265625,0-.189453125-.01318359375-.28173828125-.04052734375l-52.7548828125-15.490234375c-.52978515625-.1552734375-.8330078125-.71044921875-.67822265625-1.240234375,5.876953125-20.08056640625,8.85693359375-40.8408203125,8.85693359375-61.7041015625,0-.55224609375.44775390625-1,1-1h55c.55224609375,0,1,.44775390625,1,1,0,26.2890625-3.76220703125,52.44970703125-11.1826171875,77.75634765625-.07470703125.2548828125-.2470703125.46923828125-.47998046875.59619140625-.1484375.0810546875-.3134765625.12255859375-.4794921875.12255859375Z" fill="none" stroke="#181818" stroke-linecap="round" stroke-linejoin="round" stroke-width="15"/>
              <path d="M575,299.999999999996362h.0050048828125M575,299.999999999996362c0,26.911865234375-3.934326171875,52.891845703125-11.142333984375,77.475341796875l-52.7548828125-15.490234375c5.755126953125-19.66357421875,8.897216796875-40.447021484375,8.897216796875-61.985107421875h55M575.0050048828125,297.999999999996362h-55.0050048828125c-1.10455322265625,0-2,.895416259765625-2,2,0,20.768646240234375-2.96636962890625,41.4344482421875-8.81671142578125,61.42333984375-.31005859375,1.059417724609375.296875,2.169769287109375,1.35601806640625,2.48077392578125l52.7548828125,15.490203857421875c.18463134765625.054229736328125.3743896484375.081024169921875.56341552734375.081024169921875.3321533203125,0,.66217041015625-.08270263671875.95892333984375-.244842529296875.465576171875-.25433349609375.81103515625-.68328857421875.9603271484375-1.19244384765625,7.43756103515625-25.366455078125,11.21343994140625-51.58782958984375,11.22314453125-77.93695068359375.00164794921875-.033477783203125.00250244140625-.06719970703125.00250244140625-.101104736328125,0-1.104583740234375-.8929443359375-2-1.99749755859375-2h0ZM575,301.999999999996362h.0050048828125-.0050048828125Z" fill="none" stroke="#181818" stroke-linecap="round" stroke-linejoin="round" stroke-width="15"/>
            </g>
          </a>
          <a xlink:href="https://www.notion.so/dmmnotes/aggressive-2d8ccce383534b9dbfc7b4b10b8a5d5c?pvs=4">
            <g id="C3">
              <path d="M520,300.999999999996362c-.55224609375,0-1-.44775390625-1-1,0-20.86328125-2.97998046875-41.62353515625-8.85693359375-61.70458984375-.15478515625-.52978515625.1484375-1.0849609375.67822265625-1.240234375l52.7548828125-15.490234375c.09228515625-.02734375.18701171875-.04052734375.28173828125-.04052734375.166015625,0,.3310546875.04150390625.4794921875.12255859375.23291015625.126953125.4052734375.34130859375.47998046875.59619140625,7.42041015625,25.30419921875,11.1826171875,51.4658203125,11.1826171875,77.7568359375,0,.55224609375-.44775390625,1-1,1h-55Z" fill="none" stroke="#181818" stroke-linecap="round" stroke-linejoin="round" stroke-width="15"/>
              <path d="M563.857666015625,222.524658203121362c7.2080078125,24.580810546875,11.142333984375,50.5634765625,11.142333984375,77.475341796875h-55c0-21.535400390625-3.14208984375-42.321533203125-8.897216796875-61.985107421875l52.7548828125-15.490234375M563.85760498046875,220.524658203121362c-.18902587890625,0-.3787841796875.02679443359375-.56341552734375.08099365234375l-52.7548828125,15.490234375c-1.05914306640625.31103515625-1.66607666015625,1.42132568359375-1.35601806640625,2.48077392578125,5.850341796875,19.9888916015625,8.81671142578125,40.65472412109375,8.81671142578125,61.42333984375,0,1.104583740234375.89544677734375,2,2,2h55c1.10455322265625,0,2-.895416259765625,2-2,0-26.385986328125-3.7760009765625-52.641845703125-11.22314453125-78.0380859375-.1492919921875-.5091552734375-.4947509765625-.9381103515625-.96038818359375-1.19244384765625-.29669189453125-.162109375-.626708984375-.24481201171875-.9588623046875-.24481201171875h0Z" fill="none" stroke="#181818" stroke-linecap="round" stroke-linejoin="round" stroke-width="15"/>
            </g>
          </a>
          <a xlink:href="https://www.notion.so/dmmnotes/disarming-086276e599884c86b9359acf831a8b20?pvs=4">
            <path id="C2" d="M511.102783203132276,238.014892578114086l52.7548828125-15.490234375c-7.463134765619543-25.456298828121362-18.503417968740905-49.365722656242724-32.551513671869543-71.177734374992724l-46.223632812510914,29.70751953125c11.230957031260914,17.45068359375,20.055664062510914,36.585205078121362,26.020263671880457,56.960449218742724Z" fill="none" stroke="#181818" stroke-linecap="round" stroke-linejoin="round" stroke-width="15"/>
          </a>
          <a xlink:href="https://www.notion.so/dmmnotes/threatening-348fe6a52f7a4fe69f768e98c6586932?pvs=4">
            <path id="C1" d="M485.082519531251819,181.054443359371362l46.223632812510914-29.70751953125c-3.273382764719827-5.082861773657896-6.709138808492753-10.050169557314803-10.300126729001022-14.894880224833287-18.77469795522029-25.329514182886669-56.293794515156151-26.537787865033351-76.939827532479285-2.708921059350359l-.00003597290015.000041518555008c15.815185546880457,13.71240234375,29.64306640625,29.637695312510914,41.016357421869543,47.311279296878638Z" fill="none" stroke="#181818" stroke-linecap="round" stroke-linejoin="round" stroke-width="15"/>
          </a>
          <a xlink:href="https://www.notion.so/dmmnotes/complaining-acceptance-8b40401a720c493ba73f7cde1567cf3d?pvs=4">
            <path id="B5" d="M444.066162109382276,133.743164062492724l.027581479889704-.03183349601295c20.640755630183776-23.822775815017849,14.113865767873904-60.780908008567167-13.620243983012188-75.760380523975073-5.30970030170829-2.867822708170024-10.724823288154766-5.566222392242707-16.238392184388431-8.088157073760158l-22.832519531239086,49.99951171875c19.204345703119543,8.773681640626819,36.910156249989086,20.22216796875,52.66357421875,33.880859374998181Z" fill="none" stroke="#181818" stroke-linecap="round" stroke-linejoin="round" stroke-width="15"/>
          </a>
          <a xlink:href="https://www.notion.so/dmmnotes/sentimental-bc554363322342b1b7ca4ccc02125049?pvs=4">
            <path id="B4" d="M391.402587890632276,99.862304687494543l22.832519531239086-49.99951171875c-23.455566406229991-10.7314453125-48.662109375-18.275146484382276-75.101318359369543-22.042968749989086l-7.825683593739086,54.433349609365905c21.159423828119543,3.0078125,41.327880859369543,9.034179687490905,60.094482421869543,17.609130859373181Z" fill="none" stroke="#181818" stroke-linecap="round" stroke-linejoin="round" stroke-width="15"/>
          </a>
          <a xlink:href="https://www.notion.so/dmmnotes/comfortably-balanced-e76dc615a8b947aa915377cd02fcf716?pvs=4">
            <path id="B3" d="M300.000000000001819,79.999999999994543c10.634765625,0,21.078857421869543.797607421876819,31.308105468760914,2.253173828126819l7.825683593739086-54.433349609365905c-12.788574218739086-1.823486328134095-25.843017578130457-2.819824218760914-39.1337890625-2.819824218760914s-26.34521484375.996337890626819-39.133789062489086,2.819824218760914l7.825683593739086,54.433349609365905c10.23193359375-1.45556640625,20.67333984375-2.253173828126819,31.30810546875-2.253173828126819Z" fill="none" stroke="#181818" stroke-linecap="round" stroke-linejoin="round" stroke-width="15"/>
          </a>
          <a xlink:href="https://www.notion.so/dmmnotes/accepting-317d81273fff4cd9817cdf4a88efd378?pvs=4">
            <path id="B2" d="M268.691894531251819,82.253173828121362l-7.825683593739086-54.433349609365905c-26.43920898439319,3.76782226560681-51.643066406262733,11.311523437489086-75.098632812512733,22.042968749989086l22.83251953125,49.99951171875c18.7666015625-8.574951171882276,38.935058593751819-14.601318359373181,60.091796875001819-17.609130859373181Z" fill="none" stroke="#181818" stroke-linecap="round" stroke-linejoin="round" stroke-width="15"/>
          </a>
          <a xlink:href="https://www.notion.so/dmmnotes/distanced-from-past-2eabab7e9c77429f8e577f4e3e203653?pvs=4">
            <path id="B1" d="M208.60009765625,99.862304687494543l-22.83251953125-49.99951171875c-5.512599781834069,2.521209168186033-10.926526745237425,5.21878182218461-16.234907855659912,8.085682059327155-27.736256078772385,14.979534716064336-34.262863008856584,51.940807863684313-13.620088706635215,75.764372472808645l.023941874795128.027631014741019c15.75341796875-13.658691406259095,33.4619140625-25.1044921875,52.66357421875-33.878173828126819Z" fill="none" stroke="#181818" stroke-linecap="round" stroke-linejoin="round" stroke-width="15"/>
          </a>
          <a xlink:href="https://www.notion.so/dmmnotes/idealising-a52277f51ed14a42aae78081bb34b8be?pvs=4">
            <path id="A1" d="M155.9365234375,133.740478515621362l-.00003597290015-.00004151586927c-20.647011904411556-23.828455238300194-58.166100839874161-22.619561246785452-76.941289455075093,2.70999999754622-3.591451962294741,4.84521909736668-7.02760574713011,9.813063194990718-10.301350353274756,14.896486830823051l46.226318359369543,29.70751953125c11.373291015640461-17.673583984367724,25.201171875010914-33.598876953128638,41.016357421880457-47.31396484375Z" fill="none" stroke="#181818" stroke-linecap="round" stroke-linejoin="round" stroke-width="15"/>
          </a>
          <a xlink:href="https://www.notion.so/dmmnotes/distancing-9ac690cdca654729a17a5a255944e2d1?pvs=4">
            <path id="A2" d="M114.920166015619543,181.054443359371362l-46.226318359369543-29.70751953125c-14.04541015625,21.81201171875-25.08837890625,45.721435546871362-32.551513671880457,71.177734374992724l52.754882812510914,15.490234375c5.964599609369543-20.375244140621362,14.7919921875-39.509765624992724,26.022949218739086-56.960449218742724Z" fill="none" stroke="#181818" stroke-linecap="round" stroke-linejoin="round" stroke-width="15"/>
          </a>
          <a xlink:href="https://www.notion.so/dmmnotes/compulsive-caregiving-9c380c0928294f41ae10764aa0dee886?pvs=4">
            <path id="A3" d="M88.897216796880457,238.014892578114086l-52.754882812510914-15.490234375c-7.205322265619543,24.580810546878638-11.142333984369543,50.5634765625-11.142333984369543,77.475341796889552h55c0-21.535400390632276,3.14208984375-42.321533203132276,8.897216796880457-61.985107421889552Z" fill="none" stroke="#181818" stroke-linecap="round" stroke-linejoin="round" stroke-width="15"/>
          </a>
          <a xlink:href="https://www.notion.so/dmmnotes/compulsive-compliance-6d08b7ea9a424ce1a72b9184b7850414?pvs=4">
            <path id="A4" d="M80,300.000000000003638H25c0,26.911865234365905,3.93701171875,52.894531249987267,11.142333984369543,77.475341796865905l52.754882812510914-15.490234375c-5.755126953130457-19.66357421875-8.897216796880457-40.447021484366815-8.897216796880457-61.985107421865905Z" fill="none" stroke="#181818" stroke-linecap="round" stroke-linejoin="round" stroke-width="15"/>
          </a>
          <a xlink:href="https://www.notion.so/dmmnotes/sexual-supplementation-8e85f49046ef412aa229745abf7d38d3?pvs=4">
            <path id="A5" d="M88.897216796880457,361.985107421869543l-52.754882812510914,15.490234375c7.463134765630457,25.456298828133185,18.506103515630457,49.365722656250909,32.551513671880457,71.175048828133185l46.223632812510004-29.704833984371362c-11.230957031260004-17.450683593760914-20.055664062510004-36.58251953125-26.020263671879547-56.960449218761823Z" fill="none" stroke="#181818" stroke-linecap="round" stroke-linejoin="round" stroke-width="15"/>
          </a>
          <a xlink:href="https://www.notion.so/dmmnotes/compulsive-isolated-self-reliance-b321873a73fa41aaaadd7192fde856a2?pvs=4">
            <path id="A6" d="M114.917480468760004,418.945556640631366l-46.223632812510004,29.704833984371362c14.219970703119543,22.083251953117724,31.504150390630457,41.983154296867724,51.269775390630457,59.125l35.972900390619543-41.515869140621362c-15.815185546869543-13.712402343760914-29.643066406239996-29.637695312510914-41.019042968739996-47.31396484375Z" fill="none" stroke="#181818" stroke-linecap="round" stroke-linejoin="round" stroke-width="15"/>
          </a>
          <a xlink:href="https://www.notion.so/dmmnotes/delusional-idealization-743e2420b9994a48a7cab68190432e8a?pvs=4">
            <path id="A7" d="M155.9365234375,466.259521484381366l-35.972900390619543,41.515869140621362c19.687744140619543,17.074707031238177,41.811279296869543,31.385986328128638,65.803955078119543,42.36181640625l22.83251953125-49.996826171882276c-19.20166015625-8.773681640617724-36.91015625-20.222167968739086-52.66357421875-33.880859374989086Z" fill="none" stroke="#181818" stroke-linecap="round" stroke-linejoin="round" stroke-width="15"/>
          </a>
          <a xlink:href="https://www.notion.so/dmmnotes/externally-assembled-self-994ecb0895b844409b931d74a045c162?pvs=4">
            <path id="A8" d="M208.60009765625,500.140380859370453l-22.83251953125,49.996826171882276c23.45556640625,10.7314453125,48.659423828119543,18.275146484367724,75.098632812512733,22.04296875l7.825683593739086-54.4306640625c-21.15673828125-3.0078125-41.325195312501819-9.0341796875-60.091796875001819-17.609130859382276Z" fill="none" stroke="#181818" stroke-linecap="round" stroke-linejoin="round" stroke-width="15"/>
          </a>
          <a xlink:href="https://www.notion.so/dmmnotes/psychopathy-0fe4a3222d9f4fd097ab4546c9776768?pvs=4">
            <path id="AC" d="M300.000000000001819,520.000000000002728c-10.634765625,0-21.076171875-.794921875-31.30810546875-2.25048828125l-7.825683593739086,54.4306640625c12.788574218739086,1.823486328128638,25.843017578119543,2.81982421875,39.133789062489086,2.81982421875s26.345214843760914-.996337890621362,39.1337890625-2.81982421875l-7.825683593739086-54.4306640625c-10.229248046891371,1.45556640625-20.673339843760914,2.25048828125-31.308105468760914,2.25048828125Z" fill="none" stroke="#181818" stroke-linecap="round" stroke-linejoin="round" stroke-width="15"/>
          </a>
        </g>
        <g>
          <a xlink:href="https://www.notion.so/dmmnotes/paranoid-ae38b1e6af0c4dd08f61e0d8f6e9f05f?pvs=4">
            <path id="C8-2" data-name="C8" d="M331.308105468762733,517.749511718752728l7.825683593739086,54.4306640625c26.439208984369543-3.767822265632276,51.645751953139552-11.3115234375,75.101318359369543-22.04296875l-22.832519531239086-49.996826171882276c-18.7666015625,8.572265625-38.93505859375,14.601318359382276-60.094482421869543,17.609130859382276Z" fill="#8f807d" stroke="#181818" stroke-linecap="round" stroke-linejoin="round" stroke-width="2"/>
          </a>
          <a xlink:href="https://www.notion.so/dmmnotes/menacing-a5bd7149286344deba45ec15e759e579?pvs=4">
            <path id="C7-2" data-name="C7" d="M391.402587890632276,500.140380859370453l22.832519531239086,49.996826171882276c23.989990234391371-10.975830078121362,46.116210937520009-25.287109375011823,65.803955078141371-42.36181640625l-35.972900390630457-41.515869140621362c-15.753417968760914,13.65869140625-33.459228515630457,25.104492187489086-52.66357421875,33.880859374989086Z" fill="#8f807d" stroke="#181818" stroke-linecap="round" stroke-linejoin="round" stroke-width="2"/>
          </a>
          <a xlink:href="https://www.notion.so/dmmnotes/seductively-obsessed-with-rescue-6fb5a68f6d334bc29ccccc16d8a4e56e?pvs=4">
            <path id="C6-2" data-name="C6" d="M444.066162109382276,466.259521484381366l35.972900390630457,41.515869140621362c19.762939453119543-17.141845703132276,37.047119140619543-37.041748046882276,51.26708984375-59.125l-46.223632812510914-29.704833984371362c-11.373291015619543,17.673583984371362-25.201171874989086,33.598876953121362-41.016357421869543,47.31396484375Z" fill="#8f807d" stroke="#181818" stroke-linecap="round" stroke-linejoin="round" stroke-width="2"/>
          </a>
          <a xlink:href="https://www.notion.so/dmmnotes/punitively-obsessed-with-revenge-33d2e77f37774316b42bccf4a60f9688?pvs=4">
            <path id="C5-2" data-name="C5" d="M485.082519531251819,418.945556640631366l46.223632812510914,29.704833984371362c14.048095703128638-21.809326171882276,25.08837890625-45.71875,32.551513671869543-71.175048828133185l-52.7548828125-15.490234375c-5.9619140625,20.377929687511823-14.789306640619543,39.509765625000909-26.020263671880457,56.960449218761823Z" fill="#8f807d" stroke="#181818" stroke-linecap="round" stroke-linejoin="round" stroke-width="2"/>
          </a>
          <a xlink:href="https://www.notion.so/dmmnotes/feigned-helpless-e79a94b0498c4e109a681b7f3dcdb088?pvs=4">
            <g id="C4-3" data-name="C4">
              <path d="M563.85791015625,378.475097656246362c-.0947265625,0-.189453125-.01318359375-.28173828125-.04052734375l-52.7548828125-15.490234375c-.52978515625-.1552734375-.8330078125-.71044921875-.67822265625-1.240234375,5.876953125-20.08056640625,8.85693359375-40.8408203125,8.85693359375-61.7041015625,0-.55224609375.44775390625-1,1-1h55c.55224609375,0,1,.44775390625,1,1,0,26.2890625-3.76220703125,52.44970703125-11.1826171875,77.75634765625-.07470703125.2548828125-.2470703125.46923828125-.47998046875.59619140625-.1484375.0810546875-.3134765625.12255859375-.4794921875.12255859375Z" fill="#91a23d" stroke-width="0"/>
              <path d="M575,299.999999999996362h.0050048828125M575,299.999999999996362c0,26.911865234375-3.934326171875,52.891845703125-11.142333984375,77.475341796875l-52.7548828125-15.490234375c5.755126953125-19.66357421875,8.897216796875-40.447021484375,8.897216796875-61.985107421875h55M575.0050048828125,297.999999999996362h-55.0050048828125c-1.10455322265625,0-2,.895416259765625-2,2,0,20.768646240234375-2.96636962890625,41.4344482421875-8.81671142578125,61.42333984375-.31005859375,1.059417724609375.296875,2.169769287109375,1.35601806640625,2.48077392578125l52.7548828125,15.490203857421875c.18463134765625.054229736328125.3743896484375.081024169921875.56341552734375.081024169921875.3321533203125,0,.66217041015625-.08270263671875.95892333984375-.244842529296875.465576171875-.25433349609375.81103515625-.68328857421875.9603271484375-1.19244384765625,7.43756103515625-25.366455078125,11.21343994140625-51.58782958984375,11.22314453125-77.93695068359375.00164794921875-.033477783203125.00250244140625-.06719970703125.00250244140625-.101104736328125,0-1.104583740234375-.8929443359375-2-1.99749755859375-2h0ZM575,301.999999999996362h.0050048828125-.0050048828125Z" fill="#181818" stroke-width="0"/>
            </g>
          </a>
          <a xlink:href="https://www.notion.so/dmmnotes/aggressive-2d8ccce383534b9dbfc7b4b10b8a5d5c?pvs=4">
            <g id="C3-2" data-name="C3">
              <path d="M520,300.999999999996362c-.55224609375,0-1-.44775390625-1-1,0-20.86328125-2.97998046875-41.62353515625-8.85693359375-61.70458984375-.15478515625-.52978515625.1484375-1.0849609375.67822265625-1.240234375l52.7548828125-15.490234375c.09228515625-.02734375.18701171875-.04052734375.28173828125-.04052734375.166015625,0,.3310546875.04150390625.4794921875.12255859375.23291015625.126953125.4052734375.34130859375.47998046875.59619140625,7.42041015625,25.30419921875,11.1826171875,51.4658203125,11.1826171875,77.7568359375,0,.55224609375-.44775390625,1-1,1h-55Z" fill="#7e9e4c" stroke-width="0"/>
              <path d="M563.857666015625,222.524658203121362c7.2080078125,24.580810546875,11.142333984375,50.5634765625,11.142333984375,77.475341796875h-55c0-21.535400390625-3.14208984375-42.321533203125-8.897216796875-61.985107421875l52.7548828125-15.490234375M563.85760498046875,220.524658203121362c-.18902587890625,0-.3787841796875.02679443359375-.56341552734375.08099365234375l-52.7548828125,15.490234375c-1.05914306640625.31103515625-1.66607666015625,1.42132568359375-1.35601806640625,2.48077392578125,5.850341796875,19.9888916015625,8.81671142578125,40.65472412109375,8.81671142578125,61.42333984375,0,1.104583740234375.89544677734375,2,2,2h55c1.10455322265625,0,2-.895416259765625,2-2,0-26.385986328125-3.7760009765625-52.641845703125-11.22314453125-78.0380859375-.1492919921875-.5091552734375-.4947509765625-.9381103515625-.96038818359375-1.19244384765625-.29669189453125-.162109375-.626708984375-.24481201171875-.9588623046875-.24481201171875h0Z" fill="#181818" stroke-width="0"/>
            </g>
          </a>
          <a xlink:href="https://www.notion.so/dmmnotes/disarming-086276e599884c86b9359acf831a8b20?pvs=4">
            <path id="C2-2" data-name="C2" d="M511.102783203132276,238.014892578114086l52.7548828125-15.490234375c-7.463134765619543-25.456298828121362-18.503417968740905-49.365722656242724-32.551513671869543-71.177734374992724l-46.223632812510914,29.70751953125c11.230957031260914,17.45068359375,20.055664062510914,36.585205078121362,26.020263671880457,56.960449218742724Z" fill="#8f807d" stroke="#181818" stroke-linecap="round" stroke-linejoin="round" stroke-width="2"/>
          </a>
          <a xlink:href="https://www.notion.so/dmmnotes/threatening-348fe6a52f7a4fe69f768e98c6586932?pvs=4">
            <path id="C1-2" data-name="C1" d="M485.082519531251819,181.054443359371362l46.223632812510914-29.70751953125c-3.273382764719827-5.082861773657896-6.709138808492753-10.050169557314803-10.300126729001022-14.894880224833287-18.77469795522029-25.329514182886669-56.293794515156151-26.537787865033351-76.939827532479285-2.708921059350359l-.00003597290015.000041518555008c15.815185546880457,13.71240234375,29.64306640625,29.637695312510914,41.016357421869543,47.311279296878638Z" fill="#8f807d" stroke="#181818" stroke-linecap="round" stroke-linejoin="round" stroke-width="2"/>
          </a>
          <a xlink:href="https://www.notion.so/dmmnotes/complaining-acceptance-8b40401a720c493ba73f7cde1567cf3d?pvs=4">
            <path id="B5-2" data-name="B5" d="M444.066162109382276,133.743164062492724l.027581479889704-.03183349601295c20.640755630183776-23.822775815017849,14.113865767873904-60.780908008567167-13.620243983012188-75.760380523975073-5.30970030170829-2.867822708170024-10.724823288154766-5.566222392242707-16.238392184388431-8.088157073760158l-22.832519531239086,49.99951171875c19.204345703119543,8.773681640626819,36.910156249989086,20.22216796875,52.66357421875,33.880859374998181Z" fill="#8f807d" stroke="#181818" stroke-linecap="round" stroke-linejoin="round" stroke-width="2"/>
          </a>
          <a xlink:href="https://www.notion.so/dmmnotes/sentimental-bc554363322342b1b7ca4ccc02125049?pvs=4">
            <path id="B4-2" data-name="B4" d="M391.402587890632276,99.862304687494543l22.832519531239086-49.99951171875c-23.455566406229991-10.7314453125-48.662109375-18.275146484382276-75.101318359369543-22.042968749989086l-7.825683593739086,54.433349609365905c21.159423828119543,3.0078125,41.327880859369543,9.034179687490905,60.094482421869543,17.609130859373181Z" fill="#8f807d" stroke="#181818" stroke-linecap="round" stroke-linejoin="round" stroke-width="2"/>
          </a>
          <a xlink:href="https://www.notion.so/dmmnotes/comfortably-balanced-e76dc615a8b947aa915377cd02fcf716?pvs=4">
            <path id="B3-2" data-name="B3" d="M300.000000000001819,79.999999999994543c10.634765625,0,21.078857421869543.797607421876819,31.308105468760914,2.253173828126819l7.825683593739086-54.433349609365905c-12.788574218739086-1.823486328134095-25.843017578130457-2.819824218760914-39.1337890625-2.819824218760914s-26.34521484375.996337890626819-39.133789062489086,2.819824218760914l7.825683593739086,54.433349609365905c10.23193359375-1.45556640625,20.67333984375-2.253173828126819,31.30810546875-2.253173828126819Z" fill="#8f807d" stroke="#181818" stroke-linecap="round" stroke-linejoin="round" stroke-width="2"/>
          </a>
          <a xlink:href="https://www.notion.so/dmmnotes/accepting-317d81273fff4cd9817cdf4a88efd378?pvs=4">
            <path id="B2-2" data-name="B2" d="M268.691894531251819,82.253173828121362l-7.825683593739086-54.433349609365905c-26.43920898439319,3.76782226560681-51.643066406262733,11.311523437489086-75.098632812512733,22.042968749989086l22.83251953125,49.99951171875c18.7666015625-8.574951171882276,38.935058593751819-14.601318359373181,60.091796875001819-17.609130859373181Z" fill="#8f807d" stroke="#181818" stroke-linecap="round" stroke-linejoin="round" stroke-width="2"/>
          </a>
          <a xlink:href="https://www.notion.so/dmmnotes/distanced-from-past-2eabab7e9c77429f8e577f4e3e203653?pvs=4">
            <path id="B1-2" data-name="B1" d="M208.60009765625,99.862304687494543l-22.83251953125-49.99951171875c-5.512599781834069,2.521209168186033-10.926526745237425,5.21878182218461-16.234907855659912,8.085682059327155-27.736256078772385,14.979534716064336-34.262863008856584,51.940807863684313-13.620088706635215,75.764372472808645l.023941874795128.027631014741019c15.75341796875-13.658691406259095,33.4619140625-25.1044921875,52.66357421875-33.878173828126819Z" fill="#8f807d" stroke="#181818" stroke-linecap="round" stroke-linejoin="round" stroke-width="2"/>
          </a>
          <a xlink:href="https://www.notion.so/dmmnotes/idealising-a52277f51ed14a42aae78081bb34b8be?pvs=4">
            <path id="A1-2" data-name="A1" d="M155.9365234375,133.740478515621362l-.00003597290015-.00004151586927c-20.647011904411556-23.828455238300194-58.166100839874161-22.619561246785452-76.941289455075093,2.70999999754622-3.591451962294741,4.84521909736668-7.02760574713011,9.813063194990718-10.301350353274756,14.896486830823051l46.226318359369543,29.70751953125c11.373291015640461-17.673583984367724,25.201171875010914-33.598876953128638,41.016357421880457-47.31396484375Z" fill="#8f807d" stroke="#181818" stroke-linecap="round" stroke-linejoin="round" stroke-width="2"/>
          </a>
          <a xlink:href="https://www.notion.so/dmmnotes/distancing-9ac690cdca654729a17a5a255944e2d1?pvs=4">
            <path id="A2-2" data-name="A2" d="M114.920166015619543,181.054443359371362l-46.226318359369543-29.70751953125c-14.04541015625,21.81201171875-25.08837890625,45.721435546871362-32.551513671880457,71.177734374992724l52.754882812510914,15.490234375c5.964599609369543-20.375244140621362,14.7919921875-39.509765624992724,26.022949218739086-56.960449218742724Z" fill="#8f807d" stroke="#181818" stroke-linecap="round" stroke-linejoin="round" stroke-width="2"/>
          </a>
          <a xlink:href="https://www.notion.so/dmmnotes/compulsive-caregiving-9c380c0928294f41ae10764aa0dee886?pvs=4">
            <path id="A3-2" data-name="A3" d="M88.897216796880457,238.014892578114086l-52.754882812510914-15.490234375c-7.205322265619543,24.580810546878638-11.142333984369543,50.5634765625-11.142333984369543,77.475341796889552h55c0-21.535400390632276,3.14208984375-42.321533203132276,8.897216796880457-61.985107421889552Z" fill="#8f807d" stroke="#181818" stroke-linecap="round" stroke-linejoin="round" stroke-width="2"/>
          </a>
          <a xlink:href="https://www.notion.so/dmmnotes/compulsive-compliance-6d08b7ea9a424ce1a72b9184b7850414?pvs=4">
            <path id="A4-2" data-name="A4" d="M80,300.000000000003638H25c0,26.911865234365905,3.93701171875,52.894531249987267,11.142333984369543,77.475341796865905l52.754882812510914-15.490234375c-5.755126953130457-19.66357421875-8.897216796880457-40.447021484366815-8.897216796880457-61.985107421865905Z" fill="#8f807d" stroke="#181818" stroke-linecap="round" stroke-linejoin="round" stroke-width="2"/>
          </a>
          <a xlink:href="https://www.notion.so/dmmnotes/sexual-supplementation-8e85f49046ef412aa229745abf7d38d3?pvs=4">
            <path id="A5-2" data-name="A5" d="M88.897216796880457,361.985107421869543l-52.754882812510914,15.490234375c7.463134765630457,25.456298828133185,18.506103515630457,49.365722656250909,32.551513671880457,71.175048828133185l46.223632812510004-29.704833984371362c-11.230957031260004-17.450683593760914-20.055664062510004-36.58251953125-26.020263671879547-56.960449218761823Z" fill="#8f807d" stroke="#181818" stroke-linecap="round" stroke-linejoin="round" stroke-width="2"/>
          </a>
          <a xlink:href="https://www.notion.so/dmmnotes/compulsive-isolated-self-reliance-b321873a73fa41aaaadd7192fde856a2?pvs=4">
            <path id="A6-2" data-name="A6" d="M114.917480468760004,418.945556640631366l-46.223632812510004,29.704833984371362c14.219970703119543,22.083251953117724,31.504150390630457,41.983154296867724,51.269775390630457,59.125l35.972900390619543-41.515869140621362c-15.815185546869543-13.712402343760914-29.643066406239996-29.637695312510914-41.019042968739996-47.31396484375Z" fill="#8f807d" stroke="#181818" stroke-linecap="round" stroke-linejoin="round" stroke-width="2"/>
          </a>
          <a xlink:href="https://www.notion.so/dmmnotes/delusional-idealization-743e2420b9994a48a7cab68190432e8a?pvs=4">
            <path id="A7-2" data-name="A7" d="M155.9365234375,466.259521484381366l-35.972900390619543,41.515869140621362c19.687744140619543,17.074707031238177,41.811279296869543,31.385986328128638,65.803955078119543,42.36181640625l22.83251953125-49.996826171882276c-19.20166015625-8.773681640617724-36.91015625-20.222167968739086-52.66357421875-33.880859374989086Z" fill="#8f807d" stroke="#181818" stroke-linecap="round" stroke-linejoin="round" stroke-width="2"/>
          </a>
          <a xlink:href="https://www.notion.so/dmmnotes/externally-assembled-self-994ecb0895b844409b931d74a045c162?pvs=4">
            <path id="A8-2" data-name="A8" d="M208.60009765625,500.140380859370453l-22.83251953125,49.996826171882276c23.45556640625,10.7314453125,48.659423828119543,18.275146484367724,75.098632812512733,22.04296875l7.825683593739086-54.4306640625c-21.15673828125-3.0078125-41.325195312501819-9.0341796875-60.091796875001819-17.609130859382276Z" fill="#8f807d" stroke="#181818" stroke-linecap="round" stroke-linejoin="round" stroke-width="2"/>
          </a>
          <a xlink:href="https://www.notion.so/dmmnotes/psychopathy-0fe4a3222d9f4fd097ab4546c9776768?pvs=4">
            <path id="AC-2" data-name="AC" d="M300.000000000001819,520.000000000002728c-10.634765625,0-21.076171875-.794921875-31.30810546875-2.25048828125l-7.825683593739086,54.4306640625c12.788574218739086,1.823486328128638,25.843017578119543,2.81982421875,39.133789062489086,2.81982421875s26.345214843760914-.996337890621362,39.1337890625-2.81982421875l-7.825683593739086-54.4306640625c-10.229248046891371,1.45556640625-20.673339843760914,2.25048828125-31.308105468760914,2.25048828125Z" fill="#8f807d" stroke="#181818" stroke-linecap="round" stroke-linejoin="round" stroke-width="2"/>
          </a>
        </g>
      </g>
      <g>
        <path d="M549.16015625,265.396484374990905c.5869140625.70947265625,1.048828125,1.56494140625,1.3828125,2.56787109375s.4501953125,1.99072265625.349609375,2.96337890625c-.0810546875.74951171875-.3037109375,1.494140625-.6689453125,2.2333984375-.3642578125.740234375-.8310546875,1.39794921875-1.3974609375,1.9755859375-.5673828125.57763671875-1.220703125,1.0439453125-1.9609375,1.39794921875-.7392578125.3544921875-1.5341796875.53173828125-2.384765625.53173828125-.52734375,0-1.064453125-.05615234375-1.611328125-.1669921875-.546875-.111328125-1.0791015625-.2685546875-1.595703125-.47119140625-.5166015625-.2021484375-.998046875-.4658203125-1.443359375-.7900390625-.4453125-.32373046875-.810546875-.69921875-1.09375-1.12451171875-.3037109375-.42529296875-.3955078125-.89111328125-.2734375-1.39794921875.12109375-.56689453125.359375-1.05859375.7138671875-1.47412109375.3544921875-.4150390625.68359375-.75439453125.9873046875-1.01806640625.162109375-.12158203125.365234375-.2021484375.6083984375-.2431640625.2431640625-.0400390625.4755859375.06103515625.69921875.30419921875.3642578125.42529296875.759765625.7646484375,1.1845703125,1.01806640625.42578125.25341796875.845703125.39501953125,1.26171875.42529296875.4150390625.0302734375.8095703125-.060546875,1.1845703125-.2734375s.6943359375-.56201171875.9580078125-1.04833984375c.1416015625-.28369140625.22265625-.58740234375.2431640625-.91162109375.01953125-.32421875-.041015625-.623046875-.1826171875-.89697265625-.1416015625-.2734375-.375-.505859375-.69921875-.69873046875-.32421875-.1923828125-.75-.30859375-1.2763671875-.349609375-.041015625.0205078125-.0712890625.02587890625-.0908203125.01513671875-.0205078125-.009765625-.041015625-.01513671875-.060546875-.01513671875h-.0615234375c-.0205078125.0205078125-.0400390625.0302734375-.060546875.0302734375h-.12109375c-.0615234375-.01953125-.126953125-.03515625-.1982421875-.04541015625-.0712890625-.009765625-.1259765625-.03515625-.1669921875-.076171875-.22265625-.060546875-.375-.24267578125-.4560546875-.546875-.0810546875-.3037109375-.1259765625-.63818359375-.13671875-1.0029296875-.009765625-.36474609375.0048828125-.72412109375.0458984375-1.07861328125.0400390625-.3544921875.0908203125-.61279296875.15234375-.77490234375.080078125-.22314453125.181640625-.41064453125.3037109375-.5625.12109375-.15185546875.2626953125-.22802734375.42578125-.22802734375.505859375,0,.951171875-.16162109375,1.3369140625-.48583984375.384765625-.32421875.658203125-.68896484375.8203125-1.09423828125s.1875-.78515625.076171875-1.1396484375-.4208984375-.5517578125-.9267578125-.5927734375c-.3447265625-.0400390625-.71484375.06591796875-1.109375.3193359375-.3955078125.25341796875-.724609375.64306640625-.98828125,1.169921875-.1015625.20263671875-.181640625.400390625-.2431640625.5927734375-.060546875.1923828125-.2119140625.33935546875-.455078125.4404296875-.203125.0810546875-.3955078125.12158203125-.578125.12158203125-.587890625,0-1.1494140625-.171875-1.6865234375-.5166015625-.537109375-.34423828125-.896484375-.83056640625-1.0791015625-1.458984375-.0810546875-.38427734375-.0703125-.759765625.03125-1.1240234375.1005859375-.36474609375.2529296875-.71923828125.455078125-1.06396484375.3447265625-.56689453125.7802734375-1.0634765625,1.3076171875-1.4892578125.5263671875-.42529296875,1.1083984375-.76416015625,1.7470703125-1.01806640625.6376953125-.2529296875,1.31640625-.41015625,2.0361328125-.470703125.71875-.06103515625,1.443359375,0,2.1728515625.18212890625.912109375.22314453125,1.6611328125.6435546875,2.2490234375,1.26123046875.5869140625.6181640625.998046875,1.3525390625,1.23046875,2.203125.2333984375.85107421875.2734375,1.783203125.1220703125,2.79638671875-.15234375,1.01318359375-.51171875,2.04638671875-1.0791015625,3.099609375Z" fill="none" stroke="#181818" stroke-width="5.631003379821777"/>
        <path d="M549.16015625,265.396484374990905c.5869140625.70947265625,1.048828125,1.56494140625,1.3828125,2.56787109375s.4501953125,1.99072265625.349609375,2.96337890625c-.0810546875.74951171875-.3037109375,1.494140625-.6689453125,2.2333984375-.3642578125.740234375-.8310546875,1.39794921875-1.3974609375,1.9755859375-.5673828125.57763671875-1.220703125,1.0439453125-1.9609375,1.39794921875-.7392578125.3544921875-1.5341796875.53173828125-2.384765625.53173828125-.52734375,0-1.064453125-.05615234375-1.611328125-.1669921875-.546875-.111328125-1.0791015625-.2685546875-1.595703125-.47119140625-.5166015625-.2021484375-.998046875-.4658203125-1.443359375-.7900390625-.4453125-.32373046875-.810546875-.69921875-1.09375-1.12451171875-.3037109375-.42529296875-.3955078125-.89111328125-.2734375-1.39794921875.12109375-.56689453125.359375-1.05859375.7138671875-1.47412109375.3544921875-.4150390625.68359375-.75439453125.9873046875-1.01806640625.162109375-.12158203125.365234375-.2021484375.6083984375-.2431640625.2431640625-.0400390625.4755859375.06103515625.69921875.30419921875.3642578125.42529296875.759765625.7646484375,1.1845703125,1.01806640625.42578125.25341796875.845703125.39501953125,1.26171875.42529296875.4150390625.0302734375.8095703125-.060546875,1.1845703125-.2734375s.6943359375-.56201171875.9580078125-1.04833984375c.1416015625-.28369140625.22265625-.58740234375.2431640625-.91162109375.01953125-.32421875-.041015625-.623046875-.1826171875-.89697265625-.1416015625-.2734375-.375-.505859375-.69921875-.69873046875-.32421875-.1923828125-.75-.30859375-1.2763671875-.349609375-.041015625.0205078125-.0712890625.02587890625-.0908203125.01513671875-.0205078125-.009765625-.041015625-.01513671875-.060546875-.01513671875h-.0615234375c-.0205078125.0205078125-.0400390625.0302734375-.060546875.0302734375h-.12109375c-.0615234375-.01953125-.126953125-.03515625-.1982421875-.04541015625-.0712890625-.009765625-.1259765625-.03515625-.1669921875-.076171875-.22265625-.060546875-.375-.24267578125-.4560546875-.546875-.0810546875-.3037109375-.1259765625-.63818359375-.13671875-1.0029296875-.009765625-.36474609375.0048828125-.72412109375.0458984375-1.07861328125.0400390625-.3544921875.0908203125-.61279296875.15234375-.77490234375.080078125-.22314453125.181640625-.41064453125.3037109375-.5625.12109375-.15185546875.2626953125-.22802734375.42578125-.22802734375.505859375,0,.951171875-.16162109375,1.3369140625-.48583984375.384765625-.32421875.658203125-.68896484375.8203125-1.09423828125s.1875-.78515625.076171875-1.1396484375-.4208984375-.5517578125-.9267578125-.5927734375c-.3447265625-.0400390625-.71484375.06591796875-1.109375.3193359375-.3955078125.25341796875-.724609375.64306640625-.98828125,1.169921875-.1015625.20263671875-.181640625.400390625-.2431640625.5927734375-.060546875.1923828125-.2119140625.33935546875-.455078125.4404296875-.203125.0810546875-.3955078125.12158203125-.578125.12158203125-.587890625,0-1.1494140625-.171875-1.6865234375-.5166015625-.537109375-.34423828125-.896484375-.83056640625-1.0791015625-1.458984375-.0810546875-.38427734375-.0703125-.759765625.03125-1.1240234375.1005859375-.36474609375.2529296875-.71923828125.455078125-1.06396484375.3447265625-.56689453125.7802734375-1.0634765625,1.3076171875-1.4892578125.5263671875-.42529296875,1.1083984375-.76416015625,1.7470703125-1.01806640625.6376953125-.2529296875,1.31640625-.41015625,2.0361328125-.470703125.71875-.06103515625,1.443359375,0,2.1728515625.18212890625.912109375.22314453125,1.6611328125.6435546875,2.2490234375,1.26123046875.5869140625.6181640625.998046875,1.3525390625,1.23046875,2.203125.2333984375.85107421875.2734375,1.783203125.1220703125,2.79638671875-.15234375,1.01318359375-.51171875,2.04638671875-1.0791015625,3.099609375Z" fill="#231f20" stroke-width="0"/>
        <path d="M549.16015625,265.396484374990905c.5869140625.70947265625,1.048828125,1.56494140625,1.3828125,2.56787109375s.4501953125,1.99072265625.349609375,2.96337890625c-.0810546875.74951171875-.3037109375,1.494140625-.6689453125,2.2333984375-.3642578125.740234375-.8310546875,1.39794921875-1.3974609375,1.9755859375-.5673828125.57763671875-1.220703125,1.0439453125-1.9609375,1.39794921875-.7392578125.3544921875-1.5341796875.53173828125-2.384765625.53173828125-.52734375,0-1.064453125-.05615234375-1.611328125-.1669921875-.546875-.111328125-1.0791015625-.2685546875-1.595703125-.47119140625-.5166015625-.2021484375-.998046875-.4658203125-1.443359375-.7900390625-.4453125-.32373046875-.810546875-.69921875-1.09375-1.12451171875-.3037109375-.42529296875-.3955078125-.89111328125-.2734375-1.39794921875.12109375-.56689453125.359375-1.05859375.7138671875-1.47412109375.3544921875-.4150390625.68359375-.75439453125.9873046875-1.01806640625.162109375-.12158203125.365234375-.2021484375.6083984375-.2431640625.2431640625-.0400390625.4755859375.06103515625.69921875.30419921875.3642578125.42529296875.759765625.7646484375,1.1845703125,1.01806640625.42578125.25341796875.845703125.39501953125,1.26171875.42529296875.4150390625.0302734375.8095703125-.060546875,1.1845703125-.2734375s.6943359375-.56201171875.9580078125-1.04833984375c.1416015625-.28369140625.22265625-.58740234375.2431640625-.91162109375.01953125-.32421875-.041015625-.623046875-.1826171875-.89697265625-.1416015625-.2734375-.375-.505859375-.69921875-.69873046875-.32421875-.1923828125-.75-.30859375-1.2763671875-.349609375-.041015625.0205078125-.0712890625.02587890625-.0908203125.01513671875-.0205078125-.009765625-.041015625-.01513671875-.060546875-.01513671875h-.0615234375c-.0205078125.0205078125-.0400390625.0302734375-.060546875.0302734375h-.12109375c-.0615234375-.01953125-.126953125-.03515625-.1982421875-.04541015625-.0712890625-.009765625-.1259765625-.03515625-.1669921875-.076171875-.22265625-.060546875-.375-.24267578125-.4560546875-.546875-.0810546875-.3037109375-.1259765625-.63818359375-.13671875-1.0029296875-.009765625-.36474609375.0048828125-.72412109375.0458984375-1.07861328125.0400390625-.3544921875.0908203125-.61279296875.15234375-.77490234375.080078125-.22314453125.181640625-.41064453125.3037109375-.5625.12109375-.15185546875.2626953125-.22802734375.42578125-.22802734375.505859375,0,.951171875-.16162109375,1.3369140625-.48583984375.384765625-.32421875.658203125-.68896484375.8203125-1.09423828125s.1875-.78515625.076171875-1.1396484375-.4208984375-.5517578125-.9267578125-.5927734375c-.3447265625-.0400390625-.71484375.06591796875-1.109375.3193359375-.3955078125.25341796875-.724609375.64306640625-.98828125,1.169921875-.1015625.20263671875-.181640625.400390625-.2431640625.5927734375-.060546875.1923828125-.2119140625.33935546875-.455078125.4404296875-.203125.0810546875-.3955078125.12158203125-.578125.12158203125-.587890625,0-1.1494140625-.171875-1.6865234375-.5166015625-.537109375-.34423828125-.896484375-.83056640625-1.0791015625-1.458984375-.0810546875-.38427734375-.0703125-.759765625.03125-1.1240234375.1005859375-.36474609375.2529296875-.71923828125.455078125-1.06396484375.3447265625-.56689453125.7802734375-1.0634765625,1.3076171875-1.4892578125.5263671875-.42529296875,1.1083984375-.76416015625,1.7470703125-1.01806640625.6376953125-.2529296875,1.31640625-.41015625,2.0361328125-.470703125.71875-.06103515625,1.443359375,0,2.1728515625.18212890625.912109375.22314453125,1.6611328125.6435546875,2.2490234375,1.26123046875.5869140625.6181640625.998046875,1.3525390625,1.23046875,2.203125.2333984375.85107421875.2734375,1.783203125.1220703125,2.79638671875-.15234375,1.01318359375-.51171875,2.04638671875-1.0791015625,3.099609375Z" fill="#e2dddb" stroke-width="0"/>
      </g>
      <g>
        <path d="M550.072265625,345.966308593740905c-.041015625.22314453125-.1123046875.43603515625-.212890625.63818359375-.1015625.16259765625-.25390625.314453125-.4560546875.4560546875-.203125.14208984375-.4765625.232421875-.8203125.2734375-.3447265625.04052734375-.7041015625.0654296875-1.0791015625.076171875-.375.009765625-.724609375-.02587890625-1.048828125-.1064453125-.32421875-.08154296875-.607421875-.22802734375-.8505859375-.44091796875-.2431640625-.21240234375-.39453125-.53173828125-.4560546875-.95703125-.0400390625-.22265625-.060546875-.6787109375-.060546875-1.36767578125,0-.6884765625.009765625-1.53955078125.0302734375-2.552734375-1.3974609375,0-2.80078125-.025390625-4.208984375-.076171875-1.408203125-.05029296875-2.841796875-.095703125-4.2998046875-.13671875-.0615234375.0205078125-.1328125,0-.212890625-.060546875-.060546875-.04052734375-.1220703125-.1318359375-.1826171875-.27392578125-.060546875-.14111328125-.111328125-.35400390625-.15234375-.63818359375-.01953125-.14111328125-.05078125-.369140625-.0908203125-.68359375-.041015625-.31396484375-.076171875-.6484375-.1064453125-1.0029296875-.0302734375-.35400390625-.0458984375-.6884765625-.0458984375-1.0029296875,0-.31396484375.05078125-.5517578125.15234375-.71435546875.0810546875-.14111328125.283203125-.3896484375.607421875-.744140625s.7197265625-.794921875,1.185546875-1.322265625c1.1748046875-1.2763671875,2.330078125-2.5830078125,3.46484375-3.92041015625,1.1337890625-1.3369140625,2.2587890625-2.765625,3.373046875-4.28515625.2021484375-.283203125.3896484375-.50146484375.5625-.6533203125.171875-.15185546875.48046875-.24755859375.9267578125-.28857421875.42578125-.04052734375.95703125-.0859375,1.595703125-.13671875.6376953125-.05029296875,1.1796875-.01513671875,1.6259765625.1064453125.1005859375.060546875.197265625.13671875.2880859375.2275390625.091796875.09130859375.1474609375.2080078125.16796875.349609375.080078125.5068359375.1259765625.98291015625.13671875,1.4287109375.009765625.44580078125.0244140625.87109375.044921875,1.2763671875l.1220703125,16.5322265625ZM542.6875,337.092285156240905c.4248046875-.02001953125.8505859375-.03515625,1.2763671875-.04541015625.4248046875-.01025390625.8505859375-.01513671875,1.2763671875-.01513671875,0-.54736328125.009765625-1.09423828125.0302734375-1.64111328125.01953125-.54736328125.0498046875-1.1142578125.0908203125-1.7021484375-.42578125.587890625-.861328125,1.16015625-1.306640625,1.71728515625-.4462890625.55712890625-.9013671875,1.11962890625-1.3671875,1.6865234375Z" fill="none" stroke="#181818" stroke-width="5.631003379821777"/>
        <path d="M550.072265625,345.966308593740905c-.041015625.22314453125-.1123046875.43603515625-.212890625.63818359375-.1015625.16259765625-.25390625.314453125-.4560546875.4560546875-.203125.14208984375-.4765625.232421875-.8203125.2734375-.3447265625.04052734375-.7041015625.0654296875-1.0791015625.076171875-.375.009765625-.724609375-.02587890625-1.048828125-.1064453125-.32421875-.08154296875-.607421875-.22802734375-.8505859375-.44091796875-.2431640625-.21240234375-.39453125-.53173828125-.4560546875-.95703125-.0400390625-.22265625-.060546875-.6787109375-.060546875-1.36767578125,0-.6884765625.009765625-1.53955078125.0302734375-2.552734375-1.3974609375,0-2.80078125-.025390625-4.208984375-.076171875-1.408203125-.05029296875-2.841796875-.095703125-4.2998046875-.13671875-.0615234375.0205078125-.1328125,0-.212890625-.060546875-.060546875-.04052734375-.1220703125-.1318359375-.1826171875-.27392578125-.060546875-.14111328125-.111328125-.35400390625-.15234375-.63818359375-.01953125-.14111328125-.05078125-.369140625-.0908203125-.68359375-.041015625-.31396484375-.076171875-.6484375-.1064453125-1.0029296875-.0302734375-.35400390625-.0458984375-.6884765625-.0458984375-1.0029296875,0-.31396484375.05078125-.5517578125.15234375-.71435546875.0810546875-.14111328125.283203125-.3896484375.607421875-.744140625s.7197265625-.794921875,1.185546875-1.322265625c1.1748046875-1.2763671875,2.330078125-2.5830078125,3.46484375-3.92041015625,1.1337890625-1.3369140625,2.2587890625-2.765625,3.373046875-4.28515625.2021484375-.283203125.3896484375-.50146484375.5625-.6533203125.171875-.15185546875.48046875-.24755859375.9267578125-.28857421875.42578125-.04052734375.95703125-.0859375,1.595703125-.13671875.6376953125-.05029296875,1.1796875-.01513671875,1.6259765625.1064453125.1005859375.060546875.197265625.13671875.2880859375.2275390625.091796875.09130859375.1474609375.2080078125.16796875.349609375.080078125.5068359375.1259765625.98291015625.13671875,1.4287109375.009765625.44580078125.0244140625.87109375.044921875,1.2763671875l.1220703125,16.5322265625ZM542.6875,337.092285156240905c.4248046875-.02001953125.8505859375-.03515625,1.2763671875-.04541015625.4248046875-.01025390625.8505859375-.01513671875,1.2763671875-.01513671875,0-.54736328125.009765625-1.09423828125.0302734375-1.64111328125.01953125-.54736328125.0498046875-1.1142578125.0908203125-1.7021484375-.42578125.587890625-.861328125,1.16015625-1.306640625,1.71728515625-.4462890625.55712890625-.9013671875,1.11962890625-1.3671875,1.6865234375Z" fill="#231f20" stroke-width="0"/>
        <path d="M550.072265625,345.966308593740905c-.041015625.22314453125-.1123046875.43603515625-.212890625.63818359375-.1015625.16259765625-.25390625.314453125-.4560546875.4560546875-.203125.14208984375-.4765625.232421875-.8203125.2734375-.3447265625.04052734375-.7041015625.0654296875-1.0791015625.076171875-.375.009765625-.724609375-.02587890625-1.048828125-.1064453125-.32421875-.08154296875-.607421875-.22802734375-.8505859375-.44091796875-.2431640625-.21240234375-.39453125-.53173828125-.4560546875-.95703125-.0400390625-.22265625-.060546875-.6787109375-.060546875-1.36767578125,0-.6884765625.009765625-1.53955078125.0302734375-2.552734375-1.3974609375,0-2.80078125-.025390625-4.208984375-.076171875-1.408203125-.05029296875-2.841796875-.095703125-4.2998046875-.13671875-.0615234375.0205078125-.1328125,0-.212890625-.060546875-.060546875-.04052734375-.1220703125-.1318359375-.1826171875-.27392578125-.060546875-.14111328125-.111328125-.35400390625-.15234375-.63818359375-.01953125-.14111328125-.05078125-.369140625-.0908203125-.68359375-.041015625-.31396484375-.076171875-.6484375-.1064453125-1.0029296875-.0302734375-.35400390625-.0458984375-.6884765625-.0458984375-1.0029296875,0-.31396484375.05078125-.5517578125.15234375-.71435546875.0810546875-.14111328125.283203125-.3896484375.607421875-.744140625s.7197265625-.794921875,1.185546875-1.322265625c1.1748046875-1.2763671875,2.330078125-2.5830078125,3.46484375-3.92041015625,1.1337890625-1.3369140625,2.2587890625-2.765625,3.373046875-4.28515625.2021484375-.283203125.3896484375-.50146484375.5625-.6533203125.171875-.15185546875.48046875-.24755859375.9267578125-.28857421875.42578125-.04052734375.95703125-.0859375,1.595703125-.13671875.6376953125-.05029296875,1.1796875-.01513671875,1.6259765625.1064453125.1005859375.060546875.197265625.13671875.2880859375.2275390625.091796875.09130859375.1474609375.2080078125.16796875.349609375.080078125.5068359375.1259765625.98291015625.13671875,1.4287109375.009765625.44580078125.0244140625.87109375.044921875,1.2763671875l.1220703125,16.5322265625ZM542.6875,337.092285156240905c.4248046875-.02001953125.8505859375-.03515625,1.2763671875-.04541015625.4248046875-.01025390625.8505859375-.01513671875,1.2763671875-.01513671875,0-.54736328125.009765625-1.09423828125.0302734375-1.64111328125.01953125-.54736328125.0498046875-1.1142578125.0908203125-1.7021484375-.42578125.587890625-.861328125,1.16015625-1.306640625,1.71728515625-.4462890625.55712890625-.9013671875,1.11962890625-1.3671875,1.6865234375Z" fill="#e2dddb" stroke-width="0"/>
      </g>
    </g>
  </g>
</svg>