<?xml version="1.0" encoding="UTF-8"?>
<svg id="Layer_1" data-name="Layer 1" xmlns="http://www.w3.org/2000/svg" width="600" height="600.000000000002728" xmlns:xlink="http://www.w3.org/1999/xlink" viewBox="0 0 600 600.000000000002728">
  <defs>
    <linearGradient id="A4" x1="180.780316979444251" y1="288.745005372195919" x2="416.423290415683368" y2="288.745005372195919" gradientTransform="translate(-10.028774052318113 10.597577851286132) rotate(-1.99051401439182)" gradientUnits="userSpaceOnUse">
      <stop offset="0" stop-color="#7d67a2"/>
      <stop offset=".385181145631382" stop-color="#895ea4"/>
      <stop offset=".489316239316239" stop-color="#8e5ba6"/>
      <stop offset=".841924594895194" stop-color="#9a5c9d"/>
      <stop offset="1" stop-color="#a25d99"/>
    </linearGradient>
  </defs>
  <g id="pie_with_links_-3" data-name="pie (with links)">
    <g>
      <g>
        <path d="M226.51171875,249.5537109375c3.046875,1.6259765625,5.67578125,3.66015625,7.88671875,6.1015625,2.2099609375,2.443359375,4.09375,5.1318359375,5.65234375,8.068359375,1.5576171875,2.9384765625,2.8271484375,6.0615234375,3.80859375,9.3720703125.98046875,3.3125,1.767578125,6.650390625,2.35546875,10.013671875,1.3330078125,6.64453125,2.1953125,13.3837890625,2.591796875,20.2177734375.39453125,6.8349609375.515625,13.71875.36328125,20.650390625-.08984375,1.970703125-.1904296875,3.5888671875-.302734375,4.8505859375-.115234375,1.263671875-.3740234375,2.296875-.7783203125,3.09765625-.4052734375.8017578125-.9931640625,1.451171875-1.7626953125,1.9501953125s-1.8544921875.96875-3.255859375,1.412109375c-1.3330078125.203125-2.7236328125.369140625-4.173828125.4990234375-1.455078125.1279296875-2.82421875-.2177734375-4.1103515625-1.0380859375-1.20703125-.744140625-2.2373046875-2.046875-3.0869140625-3.9072265625-.853515625-1.8583984375-1.380859375-4.556640625-1.580078125-8.091796875l-.041015625-1.1787109375c-1.974609375-.16796875-4.3203125-.2822265625-7.037109375-.3466796875-2.71875-.0615234375-5.494140625-.0625-8.32421875-.005859375-2.83203125.060546875-5.56640625.134765625-8.19921875.2265625-2.634765625.091796875-4.85546875.1689453125-6.6630859375.2314453125-.0537109375.7099609375-.1103515625,1.892578125-.1708984375,3.548828125-.060546875,1.654296875-.259765625,3.3134765625-.5947265625,4.978515625-.3369140625,1.6650390625-.8154296875,3.177734375-1.4365234375,4.537109375-.623046875,1.3603515625-1.521484375,2.0986328125-2.697265625,2.21875-1.099609375.115234375-2.353515625.2392578125-3.765625.3671875-1.4130859375.126953125-2.794921875.017578125-4.14453125-.328125-1.34765625-.2666015625-2.490234375-.8583984375-3.42578125-1.76953125-.9375-.9130859375-1.4814453125-2.3876953125-1.6298828125-4.431640625-.0849609375-2.435546875-.1435546875-5.2275390625-.1728515625-8.3759765625-.0322265625-3.146484375.0078125-6.572265625.115234375-10.2763671875.048828125-3.072265625.189453125-6.44140625.416015625-10.109375s.60546875-7.439453125,1.140625-11.3154296875c.533203125-3.8740234375,1.265625-7.7578125,2.193359375-11.6474609375.927734375-3.8876953125,2.13671875-7.58984375,3.62890625-11.1064453125,1.490234375-3.5146484375,3.2861328125-6.765625,5.38671875-9.7509765625,2.099609375-2.984375,4.650390625-5.513671875,7.6474609375-7.5859375,3.5361328125-2.4052734375,7.4677734375-3.6845703125,11.7919921875-3.8349609375,4.322265625-.1494140625,8.44921875.76953125,12.375,2.7587890625ZM199.720703125,304.2060546875c4.939453125-.5634765625,9.861328125-1.0302734375,14.7685546875-1.3974609375,4.9052734375-.3662109375,9.83984375-.55859375,14.7978515625-.57421875.04296875-5.5888671875-.3671875-10.5732421875-1.2275390625-14.9521484375-.8603515625-4.376953125-1.9736328125-8.05859375-3.3349609375-11.041015625-1.365234375-2.982421875-2.939453125-5.25-4.724609375-6.802734375-1.78515625-1.5498046875-3.58203125-2.2958984375-5.390625-2.2333984375-1.5732421875.0546875-3.17578125.9189453125-4.8095703125,2.587890625-1.6357421875,1.6708984375-3.1259765625,4.0849609375-4.4716796875,7.2392578125-1.34765625,3.158203125-2.529296875,7.0361328125-3.55078125,11.6357421875-1.0205078125,4.6015625-1.70703125,9.7822265625-2.056640625,15.5380859375Z" fill="none" stroke="#181818" stroke-width="18"/>
        <path d="M295.15625,288.255859375c2.375,2.6748046875,4.279296875,5.9326171875,5.712890625,9.779296875,1.431640625,3.8466796875,2.0166015625,7.6630859375,1.755859375,11.451171875-.21484375,2.919921875-.978515625,5.8388671875-2.29296875,8.7568359375-1.31640625,2.9208984375-3.037109375,5.537109375-5.158203125,7.8544921875-2.125,2.3173828125-4.59765625,4.21484375-7.4189453125,5.689453125-2.8232421875,1.4755859375-5.8837890625,2.2705078125-9.1845703125,2.384765625-2.046875.0712890625-4.134765625-.07421875-6.2734375-.4306640625-2.1376953125-.357421875-4.22265625-.8955078125-6.2548828125-1.61328125-2.0322265625-.71484375-3.9365234375-1.6728515625-5.7080078125-2.87109375-1.7744140625-1.197265625-3.2392578125-2.603515625-4.3974609375-4.2158203125-1.2353515625-1.6103515625-1.6533203125-3.4052734375-1.25-5.3876953125.3955078125-2.216796875,1.2529296875-4.15625,2.5732421875-5.81640625,1.318359375-1.658203125,2.55078125-3.01953125,3.6953125-4.0830078125.611328125-.494140625,1.3876953125-.8349609375,2.326171875-1.0263671875.9375-.189453125,1.853515625.171875,2.751953125,1.0859375,1.47265625,1.6015625,3.052734375,2.865234375,4.7373046875,3.7900390625,1.6845703125.9267578125,3.3349609375,1.4189453125,4.951171875,1.4814453125,1.6142578125.0615234375,3.1357421875-.345703125,4.5634765625-1.2216796875,1.423828125-.8759765625,2.615234375-2.275390625,3.572265625-4.197265625.51171875-1.1201171875.78515625-2.3095703125.8203125-3.5712890625.0341796875-1.2587890625-.2421875-2.412109375-.828125-3.4541015625-.587890625-1.0419921875-1.5234375-1.9140625-2.806640625-2.6181640625-1.28515625-.7021484375-2.951171875-1.095703125-5-1.18359375-.15625.083984375-.2734375.109375-.3515625.0712890625-.0810546875-.0361328125-.16015625-.0537109375-.23828125-.05078125l-.236328125.0078125c-.076171875.08203125-.154296875.1240234375-.2314453125.126953125l-.4716796875.015625c-.23828125-.0693359375-.49609375-.119140625-.7724609375-.150390625-.2783203125-.029296875-.4970703125-.119140625-.6591796875-.2724609375-.8740234375-.205078125-1.48828125-.892578125-1.841796875-2.060546875-.357421875-1.1689453125-.578125-2.4599609375-.666015625-3.873046875-.08984375-1.4150390625-.080078125-2.8115234375.03125-4.193359375.1083984375-1.3798828125.271484375-2.388671875.484375-3.02734375.283203125-.875.65234375-1.6162109375,1.103515625-2.22265625s.990234375-.9208984375,1.6201171875-.9423828125c1.9638671875-.068359375,3.6728515625-.755859375,5.1240234375-2.06640625,1.44921875-1.30859375,2.4609375-2.7607421875,3.0361328125-4.3564453125.5732421875-1.59375.6201171875-3.0712890625.1416015625-4.4326171875-.4814453125-1.359375-1.70703125-2.083984375-3.677734375-2.1748046875-1.3427734375-.1103515625-2.76171875.3525390625-4.2607421875,1.388671875-1.4990234375,1.037109375-2.7255859375,2.59375-3.6748046875,4.6728515625-.3671875.80078125-.654296875,1.578125-.86328125,2.33203125-.2099609375.7568359375-.7802734375,1.3466796875-1.7099609375,1.771484375-.7763671875.3427734375-1.5166015625.525390625-2.2236328125.5498046875-2.28125.080078125-4.486328125-.51171875-6.615234375-1.77734375-2.130859375-1.2626953125-3.58984375-3.1015625-4.3828125-5.5146484375-.3671875-1.4814453125-.37890625-2.9384765625-.0341796875-4.3681640625.34375-1.4287109375.8857421875-2.8232421875,1.6259765625-4.1884765625,1.2587890625-2.2470703125,2.880859375-4.232421875,4.869140625-5.955078125,1.986328125-1.7216796875,4.201171875-3.1162109375,6.6435546875-4.185546875,2.4423828125-1.068359375,5.0546875-1.76953125,7.8388671875-2.1025390625,2.78125-.3330078125,5.6015625-.1953125,8.4560546875.4140625,3.5673828125.7431640625,6.5322265625,2.2724609375,8.896484375,4.5908203125,2.36328125,2.3193359375,4.0537109375,5.11328125,5.0732421875,8.3837890625,1.017578125,3.2705078125,1.3017578125,6.8818359375.849609375,10.8330078125-.453125,3.953125-1.7109375,8.0107421875-3.76953125,12.173828125Z" fill="none" stroke="#181818" stroke-width="18"/>
        <path d="M310.283203125,288.67578125c13.4296875-.8603515625,26.912109375-1.3291015625,40.44921875-1.40625.474609375.0625.9140625.283203125,1.322265625.662109375.40625.380859375.740234375.900390625.9990234375,1.5595703125.2587890625.66015625.4482421875,1.619140625.5712890625,2.8720703125.119140625,1.177734375.2021484375,2.4140625.248046875,3.7109375.044921875,1.2978515625-.03125,2.5009765625-.2294921875,3.609375-.197265625,1.1103515625-.5185546875,2.0458984375-.96484375,2.80859375-.4462890625.763671875-1.09765625,1.27734375-1.9541015625,1.5439453125-.46875.0947265625-1.373046875.146484375-2.708984375.1533203125-1.33984375.0068359375-2.953125-.0166015625-4.84375-.068359375s-3.98046875-.1162109375-6.265625-.1953125c-2.28515625-.0771484375-4.609375-.1533203125-6.9736328125-.2294921875-2.2861328125-.078125-4.5126953125-.138671875-6.6767578125-.181640625-2.16796875-.04296875-4.1181640625-.111328125-5.8515625-.2099609375-2.048828125-.005859375-3.9375-.0205078125-5.669921875-.0390625-.3115234375.08984375-.6298828125.021484375-.951171875-.203125-.2412109375-.1484375-.470703125-.474609375-.68359375-.9794921875-.21484375-.50390625-.3779296875-1.2265625-.48828125-2.16796875-.1123046875-.9404296875-.2294921875-2.0380859375-.3515625-3.2939453125-.1220703125-1.2529296875-.203125-2.47265625-.244140625-3.6513671875-.041015625-1.1796875.0419921875-2.185546875.25-3.01953125.20703125-.833984375.5458984375-1.2587890625,1.017578125-1.2744140625Z" fill="none" stroke="#181818" stroke-width="18"/>
        <path d="M417.53515625,323.9111328125c-.1279296875.87109375-.375,1.70703125-.7392578125,2.505859375-.3720703125.6435546875-.94140625,1.2529296875-1.7080078125,1.830078125-.767578125.578125-1.81640625.966796875-3.146484375,1.171875-1.33203125.203125-2.724609375.349609375-4.17578125.4404296875-1.455078125.0888671875-2.81640625-.001953125-4.083984375-.271484375-1.26953125-.271484375-2.388671875-.802734375-3.361328125-1.595703125-.9716796875-.79296875-1.6044921875-2.009765625-1.8984375-3.6533203125-.1875-.8583984375-.326171875-2.6240234375-.419921875-5.2978515625-.0927734375-2.671875-.1689453125-5.9755859375-.2265625-9.91015625-5.423828125.1884765625-10.873046875.2802734375-16.341796875.2724609375-5.47265625-.005859375-11.041015625.01171875-16.7060546875.048828125-.2333984375.087890625-.5126953125.0185546875-.833984375-.20703125-.2412109375-.1484375-.4892578125-.4931640625-.7451171875-1.0361328125-.25390625-.541015625-.48046875-1.3603515625-.6748046875-2.4560546875-.0986328125-.546875-.2470703125-1.4267578125-.4462890625-2.6416015625-.201171875-1.2119140625-.3828125-2.5048828125-.5478515625-3.876953125-.166015625-1.3701171875-.2705078125-2.666015625-.3125-3.8857421875-.0419921875-1.2177734375.1220703125-2.1474609375.4931640625-2.791015625.294921875-.560546875,1.0478515625-1.5517578125,2.2578125-2.9716796875,1.208984375-1.4189453125,2.68359375-3.181640625,4.421875-5.2900390625,4.38671875-5.111328125,8.69140625-10.337890625,12.9140625-15.6796875s8.392578125-11.0361328125,12.513671875-17.0830078125c.74609375-1.126953125,1.4443359375-1.998046875,2.0927734375-2.611328125.646484375-.61328125,1.8330078125-1.0263671875,3.55859375-1.2451171875,1.6455078125-.2138671875,3.7021484375-.462890625,6.1728515625-.74609375,2.46875-.28125,4.576171875-.21875,6.322265625.193359375.4013671875.22265625.78515625.50390625,1.15234375.845703125.365234375.3408203125.59765625.787109375.6953125,1.3330078125.3818359375,1.9560546875.6220703125,3.7978515625.72265625,5.5244140625.099609375,1.728515625.2158203125,3.3779296875.349609375,4.947265625l2.701171875,64.13671875ZM387.681640625,290.4716796875c1.6484375-.134765625,3.296875-.2509765625,4.947265625-.3486328125,1.650390625-.095703125,3.2998046875-.173828125,4.951171875-.23046875-.07421875-2.123046875-.109375-4.2470703125-.103515625-6.373046875.0029296875-2.125.044921875-4.330078125.1240234375-6.6162109375-1.572265625,2.3388671875-3.1865234375,4.6171875-4.83984375,6.8388671875-1.654296875,2.2236328125-3.34765625,4.466796875-5.0791015625,6.7294921875Z" fill="none" stroke="#181818" stroke-width="18"/>
      </g>
      <g>
        <path d="M226.51171875,249.5537109375c3.046875,1.6259765625,5.67578125,3.66015625,7.88671875,6.1015625,2.2099609375,2.443359375,4.09375,5.1318359375,5.65234375,8.068359375,1.5576171875,2.9384765625,2.8271484375,6.0615234375,3.80859375,9.3720703125.98046875,3.3125,1.767578125,6.650390625,2.35546875,10.013671875,1.3330078125,6.64453125,2.1953125,13.3837890625,2.591796875,20.2177734375.39453125,6.8349609375.515625,13.71875.36328125,20.650390625-.08984375,1.970703125-.1904296875,3.5888671875-.302734375,4.8505859375-.115234375,1.263671875-.3740234375,2.296875-.7783203125,3.09765625-.4052734375.8017578125-.9931640625,1.451171875-1.7626953125,1.9501953125s-1.8544921875.96875-3.255859375,1.412109375c-1.3330078125.203125-2.7236328125.369140625-4.173828125.4990234375-1.455078125.1279296875-2.82421875-.2177734375-4.1103515625-1.0380859375-1.20703125-.744140625-2.2373046875-2.046875-3.0869140625-3.9072265625-.853515625-1.8583984375-1.380859375-4.556640625-1.580078125-8.091796875l-.041015625-1.1787109375c-1.974609375-.16796875-4.3203125-.2822265625-7.037109375-.3466796875-2.71875-.0615234375-5.494140625-.0625-8.32421875-.005859375-2.83203125.060546875-5.56640625.134765625-8.19921875.2265625-2.634765625.091796875-4.85546875.1689453125-6.6630859375.2314453125-.0537109375.7099609375-.1103515625,1.892578125-.1708984375,3.548828125-.060546875,1.654296875-.259765625,3.3134765625-.5947265625,4.978515625-.3369140625,1.6650390625-.8154296875,3.177734375-1.4365234375,4.537109375-.623046875,1.3603515625-1.521484375,2.0986328125-2.697265625,2.21875-1.099609375.115234375-2.353515625.2392578125-3.765625.3671875-1.4130859375.126953125-2.794921875.017578125-4.14453125-.328125-1.34765625-.2666015625-2.490234375-.8583984375-3.42578125-1.76953125-.9375-.9130859375-1.4814453125-2.3876953125-1.6298828125-4.431640625-.0849609375-2.435546875-.1435546875-5.2275390625-.1728515625-8.3759765625-.0322265625-3.146484375.0078125-6.572265625.115234375-10.2763671875.048828125-3.072265625.189453125-6.44140625.416015625-10.109375s.60546875-7.439453125,1.140625-11.3154296875c.533203125-3.8740234375,1.265625-7.7578125,2.193359375-11.6474609375.927734375-3.8876953125,2.13671875-7.58984375,3.62890625-11.1064453125,1.490234375-3.5146484375,3.2861328125-6.765625,5.38671875-9.7509765625,2.099609375-2.984375,4.650390625-5.513671875,7.6474609375-7.5859375,3.5361328125-2.4052734375,7.4677734375-3.6845703125,11.7919921875-3.8349609375,4.322265625-.1494140625,8.44921875.76953125,12.375,2.7587890625ZM199.720703125,304.2060546875c4.939453125-.5634765625,9.861328125-1.0302734375,14.7685546875-1.3974609375,4.9052734375-.3662109375,9.83984375-.55859375,14.7978515625-.57421875.04296875-5.5888671875-.3671875-10.5732421875-1.2275390625-14.9521484375-.8603515625-4.376953125-1.9736328125-8.05859375-3.3349609375-11.041015625-1.365234375-2.982421875-2.939453125-5.25-4.724609375-6.802734375-1.78515625-1.5498046875-3.58203125-2.2958984375-5.390625-2.2333984375-1.5732421875.0546875-3.17578125.9189453125-4.8095703125,2.587890625-1.6357421875,1.6708984375-3.1259765625,4.0849609375-4.4716796875,7.2392578125-1.34765625,3.158203125-2.529296875,7.0361328125-3.55078125,11.6357421875-1.0205078125,4.6015625-1.70703125,9.7822265625-2.056640625,15.5380859375Z" fill="#231f20" stroke-width="0"/>
        <path d="M295.15625,288.255859375c2.375,2.6748046875,4.279296875,5.9326171875,5.712890625,9.779296875,1.431640625,3.8466796875,2.0166015625,7.6630859375,1.755859375,11.451171875-.21484375,2.919921875-.978515625,5.8388671875-2.29296875,8.7568359375-1.31640625,2.9208984375-3.037109375,5.537109375-5.158203125,7.8544921875-2.125,2.3173828125-4.59765625,4.21484375-7.4189453125,5.689453125-2.8232421875,1.4755859375-5.8837890625,2.2705078125-9.1845703125,2.384765625-2.046875.0712890625-4.134765625-.07421875-6.2734375-.4306640625-2.1376953125-.357421875-4.22265625-.8955078125-6.2548828125-1.61328125-2.0322265625-.71484375-3.9365234375-1.6728515625-5.7080078125-2.87109375-1.7744140625-1.197265625-3.2392578125-2.603515625-4.3974609375-4.2158203125-1.2353515625-1.6103515625-1.6533203125-3.4052734375-1.25-5.3876953125.3955078125-2.216796875,1.2529296875-4.15625,2.5732421875-5.81640625,1.318359375-1.658203125,2.55078125-3.01953125,3.6953125-4.0830078125.611328125-.494140625,1.3876953125-.8349609375,2.326171875-1.0263671875.9375-.189453125,1.853515625.171875,2.751953125,1.0859375,1.47265625,1.6015625,3.052734375,2.865234375,4.7373046875,3.7900390625,1.6845703125.9267578125,3.3349609375,1.4189453125,4.951171875,1.4814453125,1.6142578125.0615234375,3.1357421875-.345703125,4.5634765625-1.2216796875,1.423828125-.8759765625,2.615234375-2.275390625,3.572265625-4.197265625.51171875-1.1201171875.78515625-2.3095703125.8203125-3.5712890625.0341796875-1.2587890625-.2421875-2.412109375-.828125-3.4541015625-.587890625-1.0419921875-1.5234375-1.9140625-2.806640625-2.6181640625-1.28515625-.7021484375-2.951171875-1.095703125-5-1.18359375-.15625.083984375-.2734375.109375-.3515625.0712890625-.0810546875-.0361328125-.16015625-.0537109375-.23828125-.05078125l-.236328125.0078125c-.076171875.08203125-.154296875.1240234375-.2314453125.126953125l-.4716796875.015625c-.23828125-.0693359375-.49609375-.119140625-.7724609375-.150390625-.2783203125-.029296875-.4970703125-.119140625-.6591796875-.2724609375-.8740234375-.205078125-1.48828125-.892578125-1.841796875-2.060546875-.357421875-1.1689453125-.578125-2.4599609375-.666015625-3.873046875-.08984375-1.4150390625-.080078125-2.8115234375.03125-4.193359375.1083984375-1.3798828125.271484375-2.388671875.484375-3.02734375.283203125-.875.65234375-1.6162109375,1.103515625-2.22265625s.990234375-.9208984375,1.6201171875-.9423828125c1.9638671875-.068359375,3.6728515625-.755859375,5.1240234375-2.06640625,1.44921875-1.30859375,2.4609375-2.7607421875,3.0361328125-4.3564453125.5732421875-1.59375.6201171875-3.0712890625.1416015625-4.4326171875-.4814453125-1.359375-1.70703125-2.083984375-3.677734375-2.1748046875-1.3427734375-.1103515625-2.76171875.3525390625-4.2607421875,1.388671875-1.4990234375,1.037109375-2.7255859375,2.59375-3.6748046875,4.6728515625-.3671875.80078125-.654296875,1.578125-.86328125,2.33203125-.2099609375.7568359375-.7802734375,1.3466796875-1.7099609375,1.771484375-.7763671875.3427734375-1.5166015625.525390625-2.2236328125.5498046875-2.28125.080078125-4.486328125-.51171875-6.615234375-1.77734375-2.130859375-1.2626953125-3.58984375-3.1015625-4.3828125-5.5146484375-.3671875-1.4814453125-.37890625-2.9384765625-.0341796875-4.3681640625.34375-1.4287109375.8857421875-2.8232421875,1.6259765625-4.1884765625,1.2587890625-2.2470703125,2.880859375-4.232421875,4.869140625-5.955078125,1.986328125-1.7216796875,4.201171875-3.1162109375,6.6435546875-4.185546875,2.4423828125-1.068359375,5.0546875-1.76953125,7.8388671875-2.1025390625,2.78125-.3330078125,5.6015625-.1953125,8.4560546875.4140625,3.5673828125.7431640625,6.5322265625,2.2724609375,8.896484375,4.5908203125,2.36328125,2.3193359375,4.0537109375,5.11328125,5.0732421875,8.3837890625,1.017578125,3.2705078125,1.3017578125,6.8818359375.849609375,10.8330078125-.453125,3.953125-1.7109375,8.0107421875-3.76953125,12.173828125Z" fill="#231f20" stroke-width="0"/>
        <path d="M310.283203125,288.67578125c13.4296875-.8603515625,26.912109375-1.3291015625,40.44921875-1.40625.474609375.0625.9140625.283203125,1.322265625.662109375.40625.380859375.740234375.900390625.9990234375,1.5595703125.2587890625.66015625.4482421875,1.619140625.5712890625,2.8720703125.119140625,1.177734375.2021484375,2.4140625.248046875,3.7109375.044921875,1.2978515625-.03125,2.5009765625-.2294921875,3.609375-.197265625,1.1103515625-.5185546875,2.0458984375-.96484375,2.80859375-.4462890625.763671875-1.09765625,1.27734375-1.9541015625,1.5439453125-.46875.0947265625-1.373046875.146484375-2.708984375.1533203125-1.33984375.0068359375-2.953125-.0166015625-4.84375-.068359375s-3.98046875-.1162109375-6.265625-.1953125c-2.28515625-.0771484375-4.609375-.1533203125-6.9736328125-.2294921875-2.2861328125-.078125-4.5126953125-.138671875-6.6767578125-.181640625-2.16796875-.04296875-4.1181640625-.111328125-5.8515625-.2099609375-2.048828125-.005859375-3.9375-.0205078125-5.669921875-.0390625-.3115234375.08984375-.6298828125.021484375-.951171875-.203125-.2412109375-.1484375-.470703125-.474609375-.68359375-.9794921875-.21484375-.50390625-.3779296875-1.2265625-.48828125-2.16796875-.1123046875-.9404296875-.2294921875-2.0380859375-.3515625-3.2939453125-.1220703125-1.2529296875-.203125-2.47265625-.244140625-3.6513671875-.041015625-1.1796875.0419921875-2.185546875.25-3.01953125.20703125-.833984375.5458984375-1.2587890625,1.017578125-1.2744140625Z" fill="#231f20" stroke-width="0"/>
        <path d="M417.53515625,323.9111328125c-.1279296875.87109375-.375,1.70703125-.7392578125,2.505859375-.3720703125.6435546875-.94140625,1.2529296875-1.7080078125,1.830078125-.767578125.578125-1.81640625.966796875-3.146484375,1.171875-1.33203125.203125-2.724609375.349609375-4.17578125.4404296875-1.455078125.0888671875-2.81640625-.001953125-4.083984375-.271484375-1.26953125-.271484375-2.388671875-.802734375-3.361328125-1.595703125-.9716796875-.79296875-1.6044921875-2.009765625-1.8984375-3.6533203125-.1875-.8583984375-.326171875-2.6240234375-.419921875-5.2978515625-.0927734375-2.671875-.1689453125-5.9755859375-.2265625-9.91015625-5.423828125.1884765625-10.873046875.2802734375-16.341796875.2724609375-5.47265625-.005859375-11.041015625.01171875-16.7060546875.048828125-.2333984375.087890625-.5126953125.0185546875-.833984375-.20703125-.2412109375-.1484375-.4892578125-.4931640625-.7451171875-1.0361328125-.25390625-.541015625-.48046875-1.3603515625-.6748046875-2.4560546875-.0986328125-.546875-.2470703125-1.4267578125-.4462890625-2.6416015625-.201171875-1.2119140625-.3828125-2.5048828125-.5478515625-3.876953125-.166015625-1.3701171875-.2705078125-2.666015625-.3125-3.8857421875-.0419921875-1.2177734375.1220703125-2.1474609375.4931640625-2.791015625.294921875-.560546875,1.0478515625-1.5517578125,2.2578125-2.9716796875,1.208984375-1.4189453125,2.68359375-3.181640625,4.421875-5.2900390625,4.38671875-5.111328125,8.69140625-10.337890625,12.9140625-15.6796875s8.392578125-11.0361328125,12.513671875-17.0830078125c.74609375-1.126953125,1.4443359375-1.998046875,2.0927734375-2.611328125.646484375-.61328125,1.8330078125-1.0263671875,3.55859375-1.2451171875,1.6455078125-.2138671875,3.7021484375-.462890625,6.1728515625-.74609375,2.46875-.28125,4.576171875-.21875,6.322265625.193359375.4013671875.22265625.78515625.50390625,1.15234375.845703125.365234375.3408203125.59765625.787109375.6953125,1.3330078125.3818359375,1.9560546875.6220703125,3.7978515625.72265625,5.5244140625.099609375,1.728515625.2158203125,3.3779296875.349609375,4.947265625l2.701171875,64.13671875ZM387.681640625,290.4716796875c1.6484375-.134765625,3.296875-.2509765625,4.947265625-.3486328125,1.650390625-.095703125,3.2998046875-.173828125,4.951171875-.23046875-.07421875-2.123046875-.109375-4.2470703125-.103515625-6.373046875.0029296875-2.125.044921875-4.330078125.1240234375-6.6162109375-1.572265625,2.3388671875-3.1865234375,4.6171875-4.83984375,6.8388671875-1.654296875,2.2236328125-3.34765625,4.466796875-5.0791015625,6.7294921875Z" fill="#231f20" stroke-width="0"/>
      </g>
      <g>
        <path d="M226.51171875,249.5537109375c3.046875,1.6259765625,5.67578125,3.66015625,7.88671875,6.1015625,2.2099609375,2.443359375,4.09375,5.1318359375,5.65234375,8.068359375,1.5576171875,2.9384765625,2.8271484375,6.0615234375,3.80859375,9.3720703125.98046875,3.3125,1.767578125,6.650390625,2.35546875,10.013671875,1.3330078125,6.64453125,2.1953125,13.3837890625,2.591796875,20.2177734375.39453125,6.8349609375.515625,13.71875.36328125,20.650390625-.08984375,1.970703125-.1904296875,3.5888671875-.302734375,4.8505859375-.115234375,1.263671875-.3740234375,2.296875-.7783203125,3.09765625-.4052734375.8017578125-.9931640625,1.451171875-1.7626953125,1.9501953125s-1.8544921875.96875-3.255859375,1.412109375c-1.3330078125.203125-2.7236328125.369140625-4.173828125.4990234375-1.455078125.1279296875-2.82421875-.2177734375-4.1103515625-1.0380859375-1.20703125-.744140625-2.2373046875-2.046875-3.0869140625-3.9072265625-.853515625-1.8583984375-1.380859375-4.556640625-1.580078125-8.091796875l-.041015625-1.1787109375c-1.974609375-.16796875-4.3203125-.2822265625-7.037109375-.3466796875-2.71875-.0615234375-5.494140625-.0625-8.32421875-.005859375-2.83203125.060546875-5.56640625.134765625-8.19921875.2265625-2.634765625.091796875-4.85546875.1689453125-6.6630859375.2314453125-.0537109375.7099609375-.1103515625,1.892578125-.1708984375,3.548828125-.060546875,1.654296875-.259765625,3.3134765625-.5947265625,4.978515625-.3369140625,1.6650390625-.8154296875,3.177734375-1.4365234375,4.537109375-.623046875,1.3603515625-1.521484375,2.0986328125-2.697265625,2.21875-1.099609375.115234375-2.353515625.2392578125-3.765625.3671875-1.4130859375.126953125-2.794921875.017578125-4.14453125-.328125-1.34765625-.2666015625-2.490234375-.8583984375-3.42578125-1.76953125-.9375-.9130859375-1.4814453125-2.3876953125-1.6298828125-4.431640625-.0849609375-2.435546875-.1435546875-5.2275390625-.1728515625-8.3759765625-.0322265625-3.146484375.0078125-6.572265625.115234375-10.2763671875.048828125-3.072265625.189453125-6.44140625.416015625-10.109375s.60546875-7.439453125,1.140625-11.3154296875c.533203125-3.8740234375,1.265625-7.7578125,2.193359375-11.6474609375.927734375-3.8876953125,2.13671875-7.58984375,3.62890625-11.1064453125,1.490234375-3.5146484375,3.2861328125-6.765625,5.38671875-9.7509765625,2.099609375-2.984375,4.650390625-5.513671875,7.6474609375-7.5859375,3.5361328125-2.4052734375,7.4677734375-3.6845703125,11.7919921875-3.8349609375,4.322265625-.1494140625,8.44921875.76953125,12.375,2.7587890625ZM199.720703125,304.2060546875c4.939453125-.5634765625,9.861328125-1.0302734375,14.7685546875-1.3974609375,4.9052734375-.3662109375,9.83984375-.55859375,14.7978515625-.57421875.04296875-5.5888671875-.3671875-10.5732421875-1.2275390625-14.9521484375-.8603515625-4.376953125-1.9736328125-8.05859375-3.3349609375-11.041015625-1.365234375-2.982421875-2.939453125-5.25-4.724609375-6.802734375-1.78515625-1.5498046875-3.58203125-2.2958984375-5.390625-2.2333984375-1.5732421875.0546875-3.17578125.9189453125-4.8095703125,2.587890625-1.6357421875,1.6708984375-3.1259765625,4.0849609375-4.4716796875,7.2392578125-1.34765625,3.158203125-2.529296875,7.0361328125-3.55078125,11.6357421875-1.0205078125,4.6015625-1.70703125,9.7822265625-2.056640625,15.5380859375Z" fill="url(#A4)" stroke-width="0"/>
        <path d="M295.15625,288.255859375c2.375,2.6748046875,4.279296875,5.9326171875,5.712890625,9.779296875,1.431640625,3.8466796875,2.0166015625,7.6630859375,1.755859375,11.451171875-.21484375,2.919921875-.978515625,5.8388671875-2.29296875,8.7568359375-1.31640625,2.9208984375-3.037109375,5.537109375-5.158203125,7.8544921875-2.125,2.3173828125-4.59765625,4.21484375-7.4189453125,5.689453125-2.8232421875,1.4755859375-5.8837890625,2.2705078125-9.1845703125,2.384765625-2.046875.0712890625-4.134765625-.07421875-6.2734375-.4306640625-2.1376953125-.357421875-4.22265625-.8955078125-6.2548828125-1.61328125-2.0322265625-.71484375-3.9365234375-1.6728515625-5.7080078125-2.87109375-1.7744140625-1.197265625-3.2392578125-2.603515625-4.3974609375-4.2158203125-1.2353515625-1.6103515625-1.6533203125-3.4052734375-1.25-5.3876953125.3955078125-2.216796875,1.2529296875-4.15625,2.5732421875-5.81640625,1.318359375-1.658203125,2.55078125-3.01953125,3.6953125-4.0830078125.611328125-.494140625,1.3876953125-.8349609375,2.326171875-1.0263671875.9375-.189453125,1.853515625.171875,2.751953125,1.0859375,1.47265625,1.6015625,3.052734375,2.865234375,4.7373046875,3.7900390625,1.6845703125.9267578125,3.3349609375,1.4189453125,4.951171875,1.4814453125,1.6142578125.0615234375,3.1357421875-.345703125,4.5634765625-1.2216796875,1.423828125-.8759765625,2.615234375-2.275390625,3.572265625-4.197265625.51171875-1.1201171875.78515625-2.3095703125.8203125-3.5712890625.0341796875-1.2587890625-.2421875-2.412109375-.828125-3.4541015625-.587890625-1.0419921875-1.5234375-1.9140625-2.806640625-2.6181640625-1.28515625-.7021484375-2.951171875-1.095703125-5-1.18359375-.15625.083984375-.2734375.109375-.3515625.0712890625-.0810546875-.0361328125-.16015625-.0537109375-.23828125-.05078125l-.236328125.0078125c-.076171875.08203125-.154296875.1240234375-.2314453125.126953125l-.4716796875.015625c-.23828125-.0693359375-.49609375-.119140625-.7724609375-.150390625-.2783203125-.029296875-.4970703125-.119140625-.6591796875-.2724609375-.8740234375-.205078125-1.48828125-.892578125-1.841796875-2.060546875-.357421875-1.1689453125-.578125-2.4599609375-.666015625-3.873046875-.08984375-1.4150390625-.080078125-2.8115234375.03125-4.193359375.1083984375-1.3798828125.271484375-2.388671875.484375-3.02734375.283203125-.875.65234375-1.6162109375,1.103515625-2.22265625s.990234375-.9208984375,1.6201171875-.9423828125c1.9638671875-.068359375,3.6728515625-.755859375,5.1240234375-2.06640625,1.44921875-1.30859375,2.4609375-2.7607421875,3.0361328125-4.3564453125.5732421875-1.59375.6201171875-3.0712890625.1416015625-4.4326171875-.4814453125-1.359375-1.70703125-2.083984375-3.677734375-2.1748046875-1.3427734375-.1103515625-2.76171875.3525390625-4.2607421875,1.388671875-1.4990234375,1.037109375-2.7255859375,2.59375-3.6748046875,4.6728515625-.3671875.80078125-.654296875,1.578125-.86328125,2.33203125-.2099609375.7568359375-.7802734375,1.3466796875-1.7099609375,1.771484375-.7763671875.3427734375-1.5166015625.525390625-2.2236328125.5498046875-2.28125.080078125-4.486328125-.51171875-6.615234375-1.77734375-2.130859375-1.2626953125-3.58984375-3.1015625-4.3828125-5.5146484375-.3671875-1.4814453125-.37890625-2.9384765625-.0341796875-4.3681640625.34375-1.4287109375.8857421875-2.8232421875,1.6259765625-4.1884765625,1.2587890625-2.2470703125,2.880859375-4.232421875,4.869140625-5.955078125,1.986328125-1.7216796875,4.201171875-3.1162109375,6.6435546875-4.185546875,2.4423828125-1.068359375,5.0546875-1.76953125,7.8388671875-2.1025390625,2.78125-.3330078125,5.6015625-.1953125,8.4560546875.4140625,3.5673828125.7431640625,6.5322265625,2.2724609375,8.896484375,4.5908203125,2.36328125,2.3193359375,4.0537109375,5.11328125,5.0732421875,8.3837890625,1.017578125,3.2705078125,1.3017578125,6.8818359375.849609375,10.8330078125-.453125,3.953125-1.7109375,8.0107421875-3.76953125,12.173828125Z" fill="url(#A4)" stroke-width="0"/>
        <path d="M310.283203125,288.67578125c13.4296875-.8603515625,26.912109375-1.3291015625,40.44921875-1.40625.474609375.0625.9140625.283203125,1.322265625.662109375.40625.380859375.740234375.900390625.9990234375,1.5595703125.2587890625.66015625.4482421875,1.619140625.5712890625,2.8720703125.119140625,1.177734375.2021484375,2.4140625.248046875,3.7109375.044921875,1.2978515625-.03125,2.5009765625-.2294921875,3.609375-.197265625,1.1103515625-.5185546875,2.0458984375-.96484375,2.80859375-.4462890625.763671875-1.09765625,1.27734375-1.9541015625,1.5439453125-.46875.0947265625-1.373046875.146484375-2.708984375.1533203125-1.33984375.0068359375-2.953125-.0166015625-4.84375-.068359375s-3.98046875-.1162109375-6.265625-.1953125c-2.28515625-.0771484375-4.609375-.1533203125-6.9736328125-.2294921875-2.2861328125-.078125-4.5126953125-.138671875-6.6767578125-.181640625-2.16796875-.04296875-4.1181640625-.111328125-5.8515625-.2099609375-2.048828125-.005859375-3.9375-.0205078125-5.669921875-.0390625-.3115234375.08984375-.6298828125.021484375-.951171875-.203125-.2412109375-.1484375-.470703125-.474609375-.68359375-.9794921875-.21484375-.50390625-.3779296875-1.2265625-.48828125-2.16796875-.1123046875-.9404296875-.2294921875-2.0380859375-.3515625-3.2939453125-.1220703125-1.2529296875-.203125-2.47265625-.244140625-3.6513671875-.041015625-1.1796875.0419921875-2.185546875.25-3.01953125.20703125-.833984375.5458984375-1.2587890625,1.017578125-1.2744140625Z" fill="url(#A4)" stroke-width="0"/>
        <path d="M417.53515625,323.9111328125c-.1279296875.87109375-.375,1.70703125-.7392578125,2.505859375-.3720703125.6435546875-.94140625,1.2529296875-1.7080078125,1.830078125-.767578125.578125-1.81640625.966796875-3.146484375,1.171875-1.33203125.203125-2.724609375.349609375-4.17578125.4404296875-1.455078125.0888671875-2.81640625-.001953125-4.083984375-.271484375-1.26953125-.271484375-2.388671875-.802734375-3.361328125-1.595703125-.9716796875-.79296875-1.6044921875-2.009765625-1.8984375-3.6533203125-.1875-.8583984375-.326171875-2.6240234375-.419921875-5.2978515625-.0927734375-2.671875-.1689453125-5.9755859375-.2265625-9.91015625-5.423828125.1884765625-10.873046875.2802734375-16.341796875.2724609375-5.47265625-.005859375-11.041015625.01171875-16.7060546875.048828125-.2333984375.087890625-.5126953125.0185546875-.833984375-.20703125-.2412109375-.1484375-.4892578125-.4931640625-.7451171875-1.0361328125-.25390625-.541015625-.48046875-1.3603515625-.6748046875-2.4560546875-.0986328125-.546875-.2470703125-1.4267578125-.4462890625-2.6416015625-.201171875-1.2119140625-.3828125-2.5048828125-.5478515625-3.876953125-.166015625-1.3701171875-.2705078125-2.666015625-.3125-3.8857421875-.0419921875-1.2177734375.1220703125-2.1474609375.4931640625-2.791015625.294921875-.560546875,1.0478515625-1.5517578125,2.2578125-2.9716796875,1.208984375-1.4189453125,2.68359375-3.181640625,4.421875-5.2900390625,4.38671875-5.111328125,8.69140625-10.337890625,12.9140625-15.6796875s8.392578125-11.0361328125,12.513671875-17.0830078125c.74609375-1.126953125,1.4443359375-1.998046875,2.0927734375-2.611328125.646484375-.61328125,1.8330078125-1.0263671875,3.55859375-1.2451171875,1.6455078125-.2138671875,3.7021484375-.462890625,6.1728515625-.74609375,2.46875-.28125,4.576171875-.21875,6.322265625.193359375.4013671875.22265625.78515625.50390625,1.15234375.845703125.365234375.3408203125.59765625.787109375.6953125,1.3330078125.3818359375,1.9560546875.6220703125,3.7978515625.72265625,5.5244140625.099609375,1.728515625.2158203125,3.3779296875.349609375,4.947265625l2.701171875,64.13671875ZM387.681640625,290.4716796875c1.6484375-.134765625,3.296875-.2509765625,4.947265625-.3486328125,1.650390625-.095703125,3.2998046875-.173828125,4.951171875-.23046875-.07421875-2.123046875-.109375-4.2470703125-.103515625-6.373046875.0029296875-2.125.044921875-4.330078125.1240234375-6.6162109375-1.572265625,2.3388671875-3.1865234375,4.6171875-4.83984375,6.8388671875-1.654296875,2.2236328125-3.34765625,4.466796875-5.0791015625,6.7294921875Z" fill="url(#A4)" stroke-width="0"/>
      </g>
    </g>
  </g>
  <g id="pie_with_links_-5" data-name="pie (with links)">
    <g id="pie_with_links_-6" data-name="pie (with links)">
      <g id="Pie">
        <g>
          <a xlink:href="https://www.notion.so/dmmnotes/paranoid-ae38b1e6af0c4dd08f61e0d8f6e9f05f?pvs=4">
            <path id="C8" d="M331.308105468760914,517.74951171875l7.825683593739086,54.430664062502728c26.439208984369543-3.767822265631366,51.645751953139552-11.3115234375,75.101318359369543-22.042968750002728l-22.832519531239086-49.996826171880457c-18.7666015625,8.572265625-38.93505859375,14.601318359380457-60.094482421869543,17.609130859380457Z" fill="none" stroke="#181818" stroke-linecap="round" stroke-linejoin="round" stroke-width="15"/>
          </a>
          <a xlink:href="https://www.notion.so/dmmnotes/menacing-a5bd7149286344deba45ec15e759e579?pvs=4">
            <path id="C7" d="M391.402587890630457,500.140380859369543l22.832519531239086,49.996826171880457c23.989990234391371-10.975830078120453,46.116210937520009-25.287109375010004,65.803955078141371-42.36181640625l-35.972900390630457-41.515869140620453c-15.753417968760914,13.65869140625-33.459228515630457,25.104492187489996-52.66357421875,33.880859374989996Z" fill="none" stroke="#181818" stroke-linecap="round" stroke-linejoin="round" stroke-width="15"/>
          </a>
          <a xlink:href="https://www.notion.so/dmmnotes/seductively-obsessed-with-rescue-6fb5a68f6d334bc29ccccc16d8a4e56e?pvs=4">
            <path id="C6" d="M444.066162109380457,466.259521484379547l35.972900390630457,41.515869140620453c19.762939453119543-17.141845703130457,37.047119140619543-37.041748046880457,51.26708984375-59.125l-46.223632812510914-29.704833984370453c-11.373291015619543,17.673583984370453-25.201171874989086,33.598876953120453-41.016357421869543,47.31396484375Z" fill="none" stroke="#181818" stroke-linecap="round" stroke-linejoin="round" stroke-width="15"/>
          </a>
          <a xlink:href="https://www.notion.so/dmmnotes/punitively-obsessed-with-revenge-33d2e77f37774316b42bccf4a60f9688?pvs=4">
            <path id="C5" d="M485.08251953125,418.945556640629547l46.223632812510914,29.704833984370453c14.048095703128638-21.809326171880457,25.08837890625-45.71875,32.551513671869543-71.175048828130457l-52.7548828125-15.490234375c-5.9619140625,20.377929687510914-14.789306640619543,39.509765625-26.020263671880457,56.960449218760004Z" fill="none" stroke="#181818" stroke-linecap="round" stroke-linejoin="round" stroke-width="15"/>
          </a>
          <a xlink:href="https://www.notion.so/dmmnotes/feigned-helpless-e79a94b0498c4e109a681b7f3dcdb088?pvs=4">
            <path id="C4" d="M520,300c0,21.5380859375-3.142089843739086,42.321533203119543-8.897216796869543,61.985107421869543l52.7548828125,15.490234375c7.2080078125-24.583496093739086,11.142333984369543-50.5634765625,11.142333984369543-77.475341796869543h-55Z" fill="none" stroke="#181818" stroke-linecap="round" stroke-linejoin="round" stroke-width="15"/>
          </a>
          <a xlink:href="https://www.notion.so/dmmnotes/aggressive-2d8ccce383534b9dbfc7b4b10b8a5d5c?pvs=4">
            <path id="C3" d="M520,300h55c0-26.911865234389552-3.934326171869543-52.894531250010004-11.142333984369543-77.475341796889552l-52.7548828125,15.490234375c5.755126953130457,19.663574218759095,8.897216796869543,40.449707031259095,8.897216796869543,61.985107421889552Z" fill="none" stroke="#181818" stroke-linecap="round" stroke-linejoin="round" stroke-width="15"/>
          </a>
          <a xlink:href="https://www.notion.so/dmmnotes/disarming-086276e599884c86b9359acf831a8b20?pvs=4">
            <path id="C2" d="M511.102783203130457,238.014892578110448l52.7548828125-15.490234375c-7.463134765619543-25.456298828120453-18.503417968740905-49.365722656240905-32.551513671869543-71.177734374990905l-46.223632812510914,29.70751953125c11.230957031260914,17.45068359375,20.055664062510914,36.585205078120453,26.020263671880457,56.960449218740905Z" fill="none" stroke="#181818" stroke-linecap="round" stroke-linejoin="round" stroke-width="15"/>
          </a>
          <a xlink:href="https://www.notion.so/dmmnotes/threatening-348fe6a52f7a4fe69f768e98c6586932?pvs=4">
            <path id="C1" d="M485.08251953125,181.054443359369543l46.223632812510914-29.70751953125c-3.273382764720736-5.082861773657896-6.709138808493663-10.050169557314803-10.300126729001931-14.894880224833287-18.774697955217562-25.32951418288576-56.293794574758067-26.537787850135828-76.939827532478375-2.708921059351269l-.00003597290015.000041518555008c15.815185546880457,13.71240234375,29.64306640625,29.637695312510004,41.016357421869543,47.311279296879547Z" fill="none" stroke="#181818" stroke-linecap="round" stroke-linejoin="round" stroke-width="15"/>
          </a>
          <a xlink:href="https://www.notion.so/dmmnotes/complaining-acceptance-8b40401a720c493ba73f7cde1567cf3d?pvs=4">
            <path id="B5" d="M444.066162109380457,133.743164062489996l.027581479893342-.031833496016588c20.640755630065541-23.822775815002387,14.113865767869356-60.780908008564438-13.620243983015826-75.760380523972344-5.30970030170829-2.867822708170934-10.724823288153857-5.566222392243617-16.238392184388431-8.088157073761067l-22.832519531239086,49.99951171875c19.204345703119543,8.773681640629547,36.910156249989086,20.22216796875,52.66357421875,33.880859375Z" fill="none" stroke="#181818" stroke-linecap="round" stroke-linejoin="round" stroke-width="15"/>
          </a>
          <a xlink:href="https://www.notion.so/dmmnotes/sentimental-bc554363322342b1b7ca4ccc02125049?pvs=4">
            <path id="B4" d="M391.402587890630457,99.862304687489996l22.832519531239086-49.99951171875c-23.455566406229991-10.7314453125-48.662109375-18.275146484379547-75.101318359369543-22.042968749989996l-7.825683593739086,54.433349609369543c21.159423828119543,3.0078125,41.327880859369543,9.034179687490905,60.094482421869543,17.609130859370453Z" fill="none" stroke="#181818" stroke-linecap="round" stroke-linejoin="round" stroke-width="15"/>
          </a>
          <a xlink:href="https://www.notion.so/dmmnotes/comfortably-balanced-e76dc615a8b947aa915377cd02fcf716?pvs=4">
            <path id="B3" d="M300,79.999999999989996c10.634765625,0,21.078857421869543.797607421879547,31.308105468760914,2.253173828129547l7.825683593739086-54.433349609369543c-12.788574218739086-1.823486328130457-25.843017578130457-2.819824218760004-39.1337890625-2.819824218760004s-26.34521484375.996337890629547-39.133789062489086,2.819824218760004l7.825683593739086,54.433349609369543c10.23193359375-1.45556640625,20.67333984375-2.253173828129547,31.30810546875-2.253173828129547Z" fill="none" stroke="#181818" stroke-linecap="round" stroke-linejoin="round" stroke-width="15"/>
          </a>
          <a xlink:href="https://www.notion.so/dmmnotes/accepting-317d81273fff4cd9817cdf4a88efd378?pvs=4">
            <path id="B2" d="M268.69189453125,82.253173828119543l-7.825683593739086-54.433349609369543c-26.439208984391371,3.767822265610448-51.643066406260914,11.311523437489996-75.098632812510914,22.042968749989996l22.83251953125,49.99951171875c18.7666015625-8.574951171879547,38.93505859375-14.601318359370453,60.091796875-17.609130859370453Z" fill="none" stroke="#181818" stroke-linecap="round" stroke-linejoin="round" stroke-width="15"/>
          </a>
          <a xlink:href="https://www.notion.so/dmmnotes/distanced-from-past-2eabab7e9c77429f8e577f4e3e203653?pvs=4">
            <path id="B1" d="M208.60009765625,99.862304687489996l-22.83251953125-49.99951171875c-5.512599781835888,2.521209168186033-10.926526745239244,5.21878182218552-16.23490785566355,8.085682059328974-27.736256078771476,14.979534716063426-34.262863008852946,51.940807863645205-13.620088706635215,75.764372472805007l.023941874798766.027631014745566c15.75341796875-13.658691406259095,33.4619140625-25.1044921875,52.66357421875-33.878173828129547Z" fill="none" stroke="#181818" stroke-linecap="round" stroke-linejoin="round" stroke-width="15"/>
          </a>
          <a xlink:href="https://www.notion.so/dmmnotes/idealising-a52277f51ed14a42aae78081bb34b8be?pvs=4">
            <path id="A1" d="M155.9365234375,133.740478515619543l-.00003597290015-.00004151586927c-20.647011904411556-23.82845521967738-58.166100839875071-22.619561246786361-76.941289455075093,2.70999999754531-3.591451962294741,4.84521909736668-7.02760574713102,9.813063194991628-10.301350353274756,14.89648683082396l46.226318359369543,29.70751953125c11.373291015641371-17.673583984369543,25.201171875010914-33.598876953129547,41.016357421880457-47.31396484375Z" fill="none" stroke="#181818" stroke-linecap="round" stroke-linejoin="round" stroke-width="15"/>
          </a>
          <a xlink:href="https://www.notion.so/dmmnotes/distancing-9ac690cdca654729a17a5a255944e2d1?pvs=4">
            <path id="A2" d="M114.920166015619543,181.054443359369543l-46.226318359369543-29.70751953125c-14.04541015625,21.81201171875-25.08837890625,45.721435546870453-32.551513671880457,71.177734374990905l52.754882812510914,15.490234375c5.964599609369543-20.375244140620453,14.7919921875-39.509765624990905,26.022949218739086-56.960449218740905Z" fill="none" stroke="#181818" stroke-linecap="round" stroke-linejoin="round" stroke-width="15"/>
          </a>
          <a xlink:href="https://www.notion.so/dmmnotes/compulsive-caregiving-9c380c0928294f41ae10764aa0dee886?pvs=4">
            <g id="A3">
              <path d="M25,300.999999999990905c-.55224609375,0-1-.44775390625-1-1,0-26.28076171875,3.76220703125-52.44189453125,11.1826171875-77.7568359375.07470703125-.25439453125.2470703125-.46923828125.47998046875-.59619140625.1484375-.0810546875.3134765625-.12255859375.4794921875-.12255859375.0947265625,0,.189453125.01318359375.28173828125.04052734375l52.75537109375,15.490234375c.52978515625.1552734375.8330078125.71044921875.67822265625,1.240234375-5.87744140625,20.08056640625-8.857421875,40.8408203125-8.857421875,61.70458984375,0,.55224609375-.44775390625,1-1,1H25Z" fill="none" stroke="#181818" stroke-linecap="round" stroke-linejoin="round" stroke-width="15"/>
              <path d="M36.142333984375,222.524658203115905l52.7548828125,15.490226745605469c-5.755126953125,19.663589477539062-8.897216796875,40.449714660644531-8.897216796875,61.985115051269531H25c0-26.911872863769531,3.93701171875-52.894527435302734,11.142333984375-77.475341796875M36.1424560546875,220.524654388418639c-.332275390625,0-.6622314453125.082733154296875-.958984375.24485969543457-.4656982421875.254400253295898-.8111572265625.683385848999023-.9603271484375,1.192556381225586-7.4471435546875,25.405628204345703-11.22314453125,51.661373138427734-11.22314453125,78.037929534912109,0,1.104568481445312.8953857421875,2,2,2h55c1.1046142578125,0,2-.895431518554688,2-2,0-20.768638610839844,2.96630859375-41.434440612792969,8.816650390625-61.423328399658203.3101806640625-1.059440612792969-.2967529296875-2.169769287109375-1.35595703125-2.480770111083984l-52.7548828125-15.490228652954102c-.1846923828125-.054214477539062-.3743896484375-.081018447875977-.5633544921875-.081018447875977h0Z" fill="none" stroke="#181818" stroke-linecap="round" stroke-linejoin="round" stroke-width="15"/>
            </g>
          </a>
          <a xlink:href="https://www.notion.so/dmmnotes/compulsive-compliance-6d08b7ea9a424ce1a72b9184b7850414?pvs=4">
            <g id="A4-2" data-name="A4">
              <path d="M36.14208984375,378.475585937490905c-.166015625,0-.3310546875-.04150390625-.4794921875-.12255859375-.23291015625-.126953125-.4052734375-.341796875-.47998046875-.59619140625-7.42041015625-25.31494140625-11.1826171875-51.47607421875-11.1826171875-77.7568359375,0-.55224609375.44775390625-1,1-1h55c.55224609375,0,1,.44775390625,1,1,0,20.8642578125,2.97998046875,41.62451171875,8.857421875,61.70458984375.15478515625.52978515625-.1484375,1.0849609375-.67822265625,1.240234375l-52.75537109375,15.490234375c-.09228515625.02734375-.18701171875.04052734375-.28173828125.04052734375Z" fill="none" stroke="#181818" stroke-linecap="round" stroke-linejoin="round" stroke-width="15"/>
              <path d="M80,299.999999999990905c0,21.5380859375,3.14208984375,42.321533203125,8.897216796875,61.985107421875l-52.7548828125,15.490234375c-7.205322265625-24.580810546875-11.142333984375-50.5634765625-11.142333984375-77.475341796875h55M80,297.999999999990905H25c-1.1046142578125,0-2,.895431518554688-2,2,0,26.376556396484375,3.7760009765625,52.632293701171875,11.22314453125,78.037933349609375.149169921875.509170532226562.49462890625.938156127929688.9603271484375,1.192550659179688.2967529296875.162109375.6268310546875.244857788085938.958984375.244857788085938.18896484375,0,.378662109375-.02679443359375.5633544921875-.081008911132812l52.7548828125-15.490234375c1.0592041015625-.311004638671875,1.6661376953125-1.42132568359375,1.35595703125-2.48077392578125-5.850341796875-19.988876342773438-8.816650390625-40.654678344726562-8.816650390625-61.423324584960938,0-1.104568481445312-.8953857421875-2-2-2h0Z" fill="none" stroke="#181818" stroke-linecap="round" stroke-linejoin="round" stroke-width="15"/>
            </g>
          </a>
          <a xlink:href="https://www.notion.so/dmmnotes/sexual-supplementation-8e85f49046ef412aa229745abf7d38d3?pvs=4">
            <path id="A5" d="M88.897216796880457,361.985107421869543l-52.754882812510914,15.490234375c7.463134765630457,25.456298828130457,18.506103515630457,49.36572265625,32.551513671880457,71.175048828130457l46.223632812510914-29.704833984370453c-11.230957031260914-17.450683593760004-20.055664062510914-36.582519531249091-26.020263671880457-56.960449218760004Z" fill="none" stroke="#181818" stroke-linecap="round" stroke-linejoin="round" stroke-width="15"/>
          </a>
          <a xlink:href="https://www.notion.so/dmmnotes/compulsive-isolated-self-reliance-b321873a73fa41aaaadd7192fde856a2?pvs=4">
            <path id="A6" d="M114.917480468760914,418.945556640629547l-46.223632812510914,29.704833984370453c14.219970703119543,22.083251953119543,31.504150390630457,41.983154296869543,51.269775390630457,59.125l35.972900390619543-41.515869140620453c-15.815185546869543-13.712402343760004-29.643066406239086-29.637695312510004-41.019042968739086-47.31396484375Z" fill="none" stroke="#181818" stroke-linecap="round" stroke-linejoin="round" stroke-width="15"/>
          </a>
          <a xlink:href="https://www.notion.so/dmmnotes/delusional-idealization-743e2420b9994a48a7cab68190432e8a?pvs=4">
            <path id="A7" d="M155.9365234375,466.259521484379547l-35.972900390619543,41.515869140620453c19.687744140619543,17.074707031239996,41.811279296869543,31.385986328129547,65.803955078119543,42.36181640625l22.83251953125-49.996826171880457c-19.20166015625-8.773681640619543-36.91015625-20.222167968739996-52.66357421875-33.880859374989996Z" fill="none" stroke="#181818" stroke-linecap="round" stroke-linejoin="round" stroke-width="15"/>
          </a>
          <a xlink:href="https://www.notion.so/dmmnotes/externally-assembled-self-994ecb0895b844409b931d74a045c162?pvs=4">
            <path id="A8" d="M208.60009765625,500.140380859369543l-22.83251953125,49.996826171880457c23.45556640625,10.731445312502728,48.659423828119543,18.275146484371362,75.098632812510914,22.042968750002728l7.825683593739086-54.430664062502728c-21.15673828125-3.0078125-41.3251953125-9.0341796875-60.091796875-17.609130859380457Z" fill="none" stroke="#181818" stroke-linecap="round" stroke-linejoin="round" stroke-width="15"/>
          </a>
          <a xlink:href="https://www.notion.so/dmmnotes/psychopathy-0fe4a3222d9f4fd097ab4546c9776768?pvs=4">
            <path id="AC" d="M300,520c-10.634765625,0-21.076171875-.794921875-31.30810546875-2.25048828125l-7.825683593739086,54.430664062502728c12.788574218739086,1.823486328127728,25.843017578119543,2.81982421875,39.133789062489086,2.81982421875s26.345214843760914-.996337890622272,39.1337890625-2.81982421875l-7.825683593739086-54.430664062502728c-10.229248046891371,1.45556640625-20.673339843760914,2.25048828125-31.308105468760914,2.25048828125Z" fill="none" stroke="#181818" stroke-linecap="round" stroke-linejoin="round" stroke-width="15"/>
          </a>
        </g>
        <g>
          <a xlink:href="https://www.notion.so/dmmnotes/paranoid-ae38b1e6af0c4dd08f61e0d8f6e9f05f?pvs=4">
            <path id="C8-2" data-name="C8" d="M331.308105468760914,517.74951171875l7.825683593739086,54.430664062502728c26.439208984369543-3.767822265631366,51.645751953139552-11.3115234375,75.101318359369543-22.042968750002728l-22.832519531239086-49.996826171880457c-18.7666015625,8.572265625-38.93505859375,14.601318359380457-60.094482421869543,17.609130859380457Z" fill="#8f807d" stroke="#181818" stroke-linecap="round" stroke-linejoin="round" stroke-width="2"/>
          </a>
          <a xlink:href="https://www.notion.so/dmmnotes/menacing-a5bd7149286344deba45ec15e759e579?pvs=4">
            <path id="C7-2" data-name="C7" d="M391.402587890630457,500.140380859369543l22.832519531239086,49.996826171880457c23.989990234391371-10.975830078120453,46.116210937520009-25.287109375010004,65.803955078141371-42.36181640625l-35.972900390630457-41.515869140620453c-15.753417968760914,13.65869140625-33.459228515630457,25.104492187489996-52.66357421875,33.880859374989996Z" fill="#8f807d" stroke="#181818" stroke-linecap="round" stroke-linejoin="round" stroke-width="2"/>
          </a>
          <a xlink:href="https://www.notion.so/dmmnotes/seductively-obsessed-with-rescue-6fb5a68f6d334bc29ccccc16d8a4e56e?pvs=4">
            <path id="C6-2" data-name="C6" d="M444.066162109380457,466.259521484379547l35.972900390630457,41.515869140620453c19.762939453119543-17.141845703130457,37.047119140619543-37.041748046880457,51.26708984375-59.125l-46.223632812510914-29.704833984370453c-11.373291015619543,17.673583984370453-25.201171874989086,33.598876953120453-41.016357421869543,47.31396484375Z" fill="#8f807d" stroke="#181818" stroke-linecap="round" stroke-linejoin="round" stroke-width="2"/>
          </a>
          <a xlink:href="https://www.notion.so/dmmnotes/punitively-obsessed-with-revenge-33d2e77f37774316b42bccf4a60f9688?pvs=4">
            <path id="C5-2" data-name="C5" d="M485.08251953125,418.945556640629547l46.223632812510914,29.704833984370453c14.048095703128638-21.809326171880457,25.08837890625-45.71875,32.551513671869543-71.175048828130457l-52.7548828125-15.490234375c-5.9619140625,20.377929687510914-14.789306640619543,39.509765625-26.020263671880457,56.960449218760004Z" fill="#8f807d" stroke="#181818" stroke-linecap="round" stroke-linejoin="round" stroke-width="2"/>
          </a>
          <a xlink:href="https://www.notion.so/dmmnotes/feigned-helpless-e79a94b0498c4e109a681b7f3dcdb088?pvs=4">
            <path id="C4-2" data-name="C4" d="M520,300c0,21.5380859375-3.142089843739086,42.321533203119543-8.897216796869543,61.985107421869543l52.7548828125,15.490234375c7.2080078125-24.583496093739086,11.142333984369543-50.5634765625,11.142333984369543-77.475341796869543h-55Z" fill="#8f807d" stroke="#181818" stroke-linecap="round" stroke-linejoin="round" stroke-width="2"/>
          </a>
          <a xlink:href="https://www.notion.so/dmmnotes/aggressive-2d8ccce383534b9dbfc7b4b10b8a5d5c?pvs=4">
            <path id="C3-2" data-name="C3" d="M520,300h55c0-26.911865234389552-3.934326171869543-52.894531250010004-11.142333984369543-77.475341796889552l-52.7548828125,15.490234375c5.755126953130457,19.663574218759095,8.897216796869543,40.449707031259095,8.897216796869543,61.985107421889552Z" fill="#8f807d" stroke="#181818" stroke-linecap="round" stroke-linejoin="round" stroke-width="2"/>
          </a>
          <a xlink:href="https://www.notion.so/dmmnotes/disarming-086276e599884c86b9359acf831a8b20?pvs=4">
            <path id="C2-2" data-name="C2" d="M511.102783203130457,238.014892578110448l52.7548828125-15.490234375c-7.463134765619543-25.456298828120453-18.503417968740905-49.365722656240905-32.551513671869543-71.177734374990905l-46.223632812510914,29.70751953125c11.230957031260914,17.45068359375,20.055664062510914,36.585205078120453,26.020263671880457,56.960449218740905Z" fill="#8f807d" stroke="#181818" stroke-linecap="round" stroke-linejoin="round" stroke-width="2"/>
          </a>
          <a xlink:href="https://www.notion.so/dmmnotes/threatening-348fe6a52f7a4fe69f768e98c6586932?pvs=4">
            <path id="C1-2" data-name="C1" d="M485.08251953125,181.054443359369543l46.223632812510914-29.70751953125c-3.273382764720736-5.082861773657896-6.709138808493663-10.050169557314803-10.300126729001931-14.894880224833287-18.774697955217562-25.32951418288576-56.293794574758067-26.537787850135828-76.939827532478375-2.708921059351269l-.00003597290015.000041518555008c15.815185546880457,13.71240234375,29.64306640625,29.637695312510004,41.016357421869543,47.311279296879547Z" fill="#8f807d" stroke="#181818" stroke-linecap="round" stroke-linejoin="round" stroke-width="2"/>
          </a>
          <a xlink:href="https://www.notion.so/dmmnotes/complaining-acceptance-8b40401a720c493ba73f7cde1567cf3d?pvs=4">
            <path id="B5-2" data-name="B5" d="M444.066162109380457,133.743164062489996l.027581479893342-.031833496016588c20.640755630065541-23.822775815002387,14.113865767869356-60.780908008564438-13.620243983015826-75.760380523972344-5.30970030170829-2.867822708170934-10.724823288153857-5.566222392243617-16.238392184388431-8.088157073761067l-22.832519531239086,49.99951171875c19.204345703119543,8.773681640629547,36.910156249989086,20.22216796875,52.66357421875,33.880859375Z" fill="#8f807d" stroke="#181818" stroke-linecap="round" stroke-linejoin="round" stroke-width="2"/>
          </a>
          <a xlink:href="https://www.notion.so/dmmnotes/sentimental-bc554363322342b1b7ca4ccc02125049?pvs=4">
            <path id="B4-2" data-name="B4" d="M391.402587890630457,99.862304687489996l22.832519531239086-49.99951171875c-23.455566406229991-10.7314453125-48.662109375-18.275146484379547-75.101318359369543-22.042968749989996l-7.825683593739086,54.433349609369543c21.159423828119543,3.0078125,41.327880859369543,9.034179687490905,60.094482421869543,17.609130859370453Z" fill="#8f807d" stroke="#181818" stroke-linecap="round" stroke-linejoin="round" stroke-width="2"/>
          </a>
          <a xlink:href="https://www.notion.so/dmmnotes/comfortably-balanced-e76dc615a8b947aa915377cd02fcf716?pvs=4">
            <path id="B3-2" data-name="B3" d="M300,79.999999999989996c10.634765625,0,21.078857421869543.797607421879547,31.308105468760914,2.253173828129547l7.825683593739086-54.433349609369543c-12.788574218739086-1.823486328130457-25.843017578130457-2.819824218760004-39.1337890625-2.819824218760004s-26.34521484375.996337890629547-39.133789062489086,2.819824218760004l7.825683593739086,54.433349609369543c10.23193359375-1.45556640625,20.67333984375-2.253173828129547,31.30810546875-2.253173828129547Z" fill="#8f807d" stroke="#181818" stroke-linecap="round" stroke-linejoin="round" stroke-width="2"/>
          </a>
          <a xlink:href="https://www.notion.so/dmmnotes/accepting-317d81273fff4cd9817cdf4a88efd378?pvs=4">
            <path id="B2-2" data-name="B2" d="M268.69189453125,82.253173828119543l-7.825683593739086-54.433349609369543c-26.439208984391371,3.767822265610448-51.643066406260914,11.311523437489996-75.098632812510914,22.042968749989996l22.83251953125,49.99951171875c18.7666015625-8.574951171879547,38.93505859375-14.601318359370453,60.091796875-17.609130859370453Z" fill="#8f807d" stroke="#181818" stroke-linecap="round" stroke-linejoin="round" stroke-width="2"/>
          </a>
          <a xlink:href="https://www.notion.so/dmmnotes/distanced-from-past-2eabab7e9c77429f8e577f4e3e203653?pvs=4">
            <path id="B1-2" data-name="B1" d="M208.60009765625,99.862304687489996l-22.83251953125-49.99951171875c-5.512599781835888,2.521209168186033-10.926526745239244,5.21878182218552-16.23490785566355,8.085682059328974-27.736256078771476,14.979534716063426-34.262863008852946,51.940807863645205-13.620088706635215,75.764372472805007l.023941874798766.027631014745566c15.75341796875-13.658691406259095,33.4619140625-25.1044921875,52.66357421875-33.878173828129547Z" fill="#8f807d" stroke="#181818" stroke-linecap="round" stroke-linejoin="round" stroke-width="2"/>
          </a>
          <a xlink:href="https://www.notion.so/dmmnotes/idealising-a52277f51ed14a42aae78081bb34b8be?pvs=4">
            <path id="A1-2" data-name="A1" d="M155.9365234375,133.740478515619543l-.00003597290015-.00004151586927c-20.647011904411556-23.82845521967738-58.166100839875071-22.619561246786361-76.941289455075093,2.70999999754531-3.591451962294741,4.84521909736668-7.02760574713102,9.813063194991628-10.301350353274756,14.89648683082396l46.226318359369543,29.70751953125c11.373291015641371-17.673583984369543,25.201171875010914-33.598876953129547,41.016357421880457-47.31396484375Z" fill="#8f807d" stroke="#181818" stroke-linecap="round" stroke-linejoin="round" stroke-width="2"/>
          </a>
          <a xlink:href="https://www.notion.so/dmmnotes/distancing-9ac690cdca654729a17a5a255944e2d1?pvs=4">
            <path id="A2-2" data-name="A2" d="M114.920166015619543,181.054443359369543l-46.226318359369543-29.70751953125c-14.04541015625,21.81201171875-25.08837890625,45.721435546870453-32.551513671880457,71.177734374990905l52.754882812510914,15.490234375c5.964599609369543-20.375244140620453,14.7919921875-39.509765624990905,26.022949218739086-56.960449218740905Z" fill="#8f807d" stroke="#181818" stroke-linecap="round" stroke-linejoin="round" stroke-width="2"/>
          </a>
          <a xlink:href="https://www.notion.so/dmmnotes/compulsive-caregiving-9c380c0928294f41ae10764aa0dee886?pvs=4">
            <g id="A3-2" data-name="A3">
              <path d="M25,300.999999999990905c-.55224609375,0-1-.44775390625-1-1,0-26.28076171875,3.76220703125-52.44189453125,11.1826171875-77.7568359375.07470703125-.25439453125.2470703125-.46923828125.47998046875-.59619140625.1484375-.0810546875.3134765625-.12255859375.4794921875-.12255859375.0947265625,0,.189453125.01318359375.28173828125.04052734375l52.75537109375,15.490234375c.52978515625.1552734375.8330078125.71044921875.67822265625,1.240234375-5.87744140625,20.08056640625-8.857421875,40.8408203125-8.857421875,61.70458984375,0,.55224609375-.44775390625,1-1,1H25Z" fill="#7d67a2" stroke-width="0"/>
              <path d="M36.142333984375,222.524658203115905l52.7548828125,15.490226745605469c-5.755126953125,19.663589477539062-8.897216796875,40.449714660644531-8.897216796875,61.985115051269531H25c0-26.911872863769531,3.93701171875-52.894527435302734,11.142333984375-77.475341796875M36.1424560546875,220.524654388418639c-.332275390625,0-.6622314453125.082733154296875-.958984375.24485969543457-.4656982421875.254400253295898-.8111572265625.683385848999023-.9603271484375,1.192556381225586-7.4471435546875,25.405628204345703-11.22314453125,51.661373138427734-11.22314453125,78.037929534912109,0,1.104568481445312.8953857421875,2,2,2h55c1.1046142578125,0,2-.895431518554688,2-2,0-20.768638610839844,2.96630859375-41.434440612792969,8.816650390625-61.423328399658203.3101806640625-1.059440612792969-.2967529296875-2.169769287109375-1.35595703125-2.480770111083984l-52.7548828125-15.490228652954102c-.1846923828125-.054214477539062-.3743896484375-.081018447875977-.5633544921875-.081018447875977h0Z" fill="#181818" stroke-width="0"/>
            </g>
          </a>
          <a xlink:href="https://www.notion.so/dmmnotes/compulsive-compliance-6d08b7ea9a424ce1a72b9184b7850414?pvs=4">
            <g id="A4-3" data-name="A4">
              <path d="M36.14208984375,378.475585937490905c-.166015625,0-.3310546875-.04150390625-.4794921875-.12255859375-.23291015625-.126953125-.4052734375-.341796875-.47998046875-.59619140625-7.42041015625-25.31494140625-11.1826171875-51.47607421875-11.1826171875-77.7568359375,0-.55224609375.44775390625-1,1-1h55c.55224609375,0,1,.44775390625,1,1,0,20.8642578125,2.97998046875,41.62451171875,8.857421875,61.70458984375.15478515625.52978515625-.1484375,1.0849609375-.67822265625,1.240234375l-52.75537109375,15.490234375c-.09228515625.02734375-.18701171875.04052734375-.28173828125.04052734375Z" fill="#8e5ba6" stroke-width="0"/>
              <path d="M80,299.999999999990905c0,21.5380859375,3.14208984375,42.321533203125,8.897216796875,61.985107421875l-52.7548828125,15.490234375c-7.205322265625-24.580810546875-11.142333984375-50.5634765625-11.142333984375-77.475341796875h55M80,297.999999999990905H25c-1.1046142578125,0-2,.895431518554688-2,2,0,26.376556396484375,3.7760009765625,52.632293701171875,11.22314453125,78.037933349609375.149169921875.509170532226562.49462890625.938156127929688.9603271484375,1.192550659179688.2967529296875.162109375.6268310546875.244857788085938.958984375.244857788085938.18896484375,0,.378662109375-.02679443359375.5633544921875-.081008911132812l52.7548828125-15.490234375c1.0592041015625-.311004638671875,1.6661376953125-1.42132568359375,1.35595703125-2.48077392578125-5.850341796875-19.988876342773438-8.816650390625-40.654678344726562-8.816650390625-61.423324584960938,0-1.104568481445312-.8953857421875-2-2-2h0Z" fill="#181818" stroke-width="0"/>
            </g>
          </a>
          <a xlink:href="https://www.notion.so/dmmnotes/sexual-supplementation-8e85f49046ef412aa229745abf7d38d3?pvs=4">
            <path id="A5-2" data-name="A5" d="M88.897216796880457,361.985107421869543l-52.754882812510914,15.490234375c7.463134765630457,25.456298828130457,18.506103515630457,49.36572265625,32.551513671880457,71.175048828130457l46.223632812510914-29.704833984370453c-11.230957031260914-17.450683593760004-20.055664062510914-36.582519531249091-26.020263671880457-56.960449218760004Z" fill="#8f807d" stroke="#181818" stroke-linecap="round" stroke-linejoin="round" stroke-width="2"/>
          </a>
          <a xlink:href="https://www.notion.so/dmmnotes/compulsive-isolated-self-reliance-b321873a73fa41aaaadd7192fde856a2?pvs=4">
            <path id="A6-2" data-name="A6" d="M114.917480468760914,418.945556640629547l-46.223632812510914,29.704833984370453c14.219970703119543,22.083251953119543,31.504150390630457,41.983154296869543,51.269775390630457,59.125l35.972900390619543-41.515869140620453c-15.815185546869543-13.712402343760004-29.643066406239086-29.637695312510004-41.019042968739086-47.31396484375Z" fill="#8f807d" stroke="#181818" stroke-linecap="round" stroke-linejoin="round" stroke-width="2"/>
          </a>
          <a xlink:href="https://www.notion.so/dmmnotes/delusional-idealization-743e2420b9994a48a7cab68190432e8a?pvs=4">
            <path id="A7-2" data-name="A7" d="M155.9365234375,466.259521484379547l-35.972900390619543,41.515869140620453c19.687744140619543,17.074707031239996,41.811279296869543,31.385986328129547,65.803955078119543,42.36181640625l22.83251953125-49.996826171880457c-19.20166015625-8.773681640619543-36.91015625-20.222167968739996-52.66357421875-33.880859374989996Z" fill="#8f807d" stroke="#181818" stroke-linecap="round" stroke-linejoin="round" stroke-width="2"/>
          </a>
          <a xlink:href="https://www.notion.so/dmmnotes/externally-assembled-self-994ecb0895b844409b931d74a045c162?pvs=4">
            <path id="A8-2" data-name="A8" d="M208.60009765625,500.140380859369543l-22.83251953125,49.996826171880457c23.45556640625,10.731445312502728,48.659423828119543,18.275146484371362,75.098632812510914,22.042968750002728l7.825683593739086-54.430664062502728c-21.15673828125-3.0078125-41.3251953125-9.0341796875-60.091796875-17.609130859380457Z" fill="#8f807d" stroke="#181818" stroke-linecap="round" stroke-linejoin="round" stroke-width="2"/>
          </a>
          <a xlink:href="https://www.notion.so/dmmnotes/psychopathy-0fe4a3222d9f4fd097ab4546c9776768?pvs=4">
            <path id="AC-2" data-name="AC" d="M300,520c-10.634765625,0-21.076171875-.794921875-31.30810546875-2.25048828125l-7.825683593739086,54.430664062502728c12.788574218739086,1.823486328127728,25.843017578119543,2.81982421875,39.133789062489086,2.81982421875s26.345214843760914-.996337890622272,39.1337890625-2.81982421875l-7.825683593739086-54.430664062502728c-10.229248046891371,1.45556640625-20.673339843760914,2.25048828125-31.308105468760914,2.25048828125Z" fill="#8f807d" stroke="#181818" stroke-linecap="round" stroke-linejoin="round" stroke-width="2"/>
          </a>
        </g>
      </g>
      <g>
        <path d="M58.2919921875,263.88720703125c.5869140625.70947265625,1.048828125,1.56494140625,1.3828125,2.56787109375s.4501953125,1.99072265625.349609375,2.96337890625c-.0810546875.74951171875-.3037109375,1.494140625-.6689453125,2.2333984375-.3642578125.740234375-.8310546875,1.39794921875-1.3974609375,1.9755859375-.5673828125.57763671875-1.220703125,1.0439453125-1.9609375,1.39794921875-.7392578125.3544921875-1.5341796875.53173828125-2.384765625.53173828125-.52734375,0-1.064453125-.05615234375-1.611328125-.1669921875-.546875-.111328125-1.0791015625-.2685546875-1.595703125-.47119140625-.5166015625-.2021484375-.998046875-.4658203125-1.443359375-.7900390625-.4453125-.32373046875-.810546875-.69921875-1.09375-1.12451171875-.3037109375-.42529296875-.3955078125-.89111328125-.2734375-1.39794921875.12109375-.56689453125.359375-1.05859375.7138671875-1.47412109375.3544921875-.4150390625.68359375-.75439453125.9873046875-1.01806640625.162109375-.12158203125.365234375-.2021484375.6083984375-.2431640625.2431640625-.0400390625.4755859375.06103515625.69921875.30419921875.3642578125.42529296875.759765625.7646484375,1.1845703125,1.01806640625.42578125.25341796875.845703125.39501953125,1.26171875.42529296875.4150390625.0302734375.8095703125-.060546875,1.1845703125-.2734375s.6943359375-.56201171875.9580078125-1.04833984375c.1416015625-.28369140625.22265625-.58740234375.2431640625-.91162109375.01953125-.32421875-.041015625-.623046875-.1826171875-.89697265625-.1416015625-.2734375-.375-.505859375-.69921875-.69873046875-.32421875-.1923828125-.75-.30859375-1.2763671875-.349609375-.041015625.0205078125-.0712890625.02587890625-.0908203125.01513671875-.0205078125-.009765625-.041015625-.01513671875-.060546875-.01513671875h-.0615234375c-.0205078125.0205078125-.0400390625.0302734375-.060546875.0302734375h-.12109375c-.0615234375-.01953125-.126953125-.03515625-.1982421875-.04541015625-.0712890625-.009765625-.1259765625-.03515625-.1669921875-.076171875-.22265625-.060546875-.375-.24267578125-.4560546875-.546875-.0810546875-.3037109375-.1259765625-.63818359375-.13671875-1.0029296875-.009765625-.36474609375.0048828125-.72412109375.0458984375-1.07861328125.0400390625-.3544921875.0908203125-.61279296875.15234375-.77490234375.080078125-.22314453125.181640625-.41064453125.3037109375-.5625.12109375-.15185546875.2626953125-.22802734375.42578125-.22802734375.505859375,0,.951171875-.16162109375,1.3369140625-.48583984375.384765625-.32421875.658203125-.68896484375.8203125-1.09423828125s.1875-.78515625.076171875-1.1396484375-.4208984375-.5517578125-.9267578125-.5927734375c-.3447265625-.0400390625-.71484375.06591796875-1.109375.3193359375-.3955078125.25341796875-.724609375.64306640625-.98828125,1.169921875-.1015625.20263671875-.181640625.400390625-.2431640625.5927734375-.060546875.1923828125-.2119140625.33935546875-.455078125.4404296875-.203125.0810546875-.3955078125.12158203125-.578125.12158203125-.587890625,0-1.1494140625-.171875-1.6865234375-.5166015625-.537109375-.34423828125-.896484375-.83056640625-1.0791015625-1.458984375-.0810546875-.38427734375-.0703125-.759765625.03125-1.1240234375.1005859375-.36474609375.2529296875-.71923828125.455078125-1.06396484375.3447265625-.56689453125.7802734375-1.0634765625,1.3076171875-1.4892578125.5263671875-.42529296875,1.1083984375-.76416015625,1.7470703125-1.01806640625.6376953125-.2529296875,1.31640625-.41015625,2.0361328125-.470703125.71875-.06103515625,1.443359375,0,2.1728515625.18212890625.912109375.22314453125,1.6611328125.6435546875,2.2490234375,1.26123046875.5869140625.6181640625.998046875,1.3525390625,1.23046875,2.203125.2333984375.85107421875.2734375,1.783203125.1220703125,2.79638671875-.15234375,1.01318359375-.51171875,2.04638671875-1.0791015625,3.099609375Z" fill="none" stroke="#181818" stroke-width="5.631003379821777"/>
        <path d="M58.2919921875,263.88720703125c.5869140625.70947265625,1.048828125,1.56494140625,1.3828125,2.56787109375s.4501953125,1.99072265625.349609375,2.96337890625c-.0810546875.74951171875-.3037109375,1.494140625-.6689453125,2.2333984375-.3642578125.740234375-.8310546875,1.39794921875-1.3974609375,1.9755859375-.5673828125.57763671875-1.220703125,1.0439453125-1.9609375,1.39794921875-.7392578125.3544921875-1.5341796875.53173828125-2.384765625.53173828125-.52734375,0-1.064453125-.05615234375-1.611328125-.1669921875-.546875-.111328125-1.0791015625-.2685546875-1.595703125-.47119140625-.5166015625-.2021484375-.998046875-.4658203125-1.443359375-.7900390625-.4453125-.32373046875-.810546875-.69921875-1.09375-1.12451171875-.3037109375-.42529296875-.3955078125-.89111328125-.2734375-1.39794921875.12109375-.56689453125.359375-1.05859375.7138671875-1.47412109375.3544921875-.4150390625.68359375-.75439453125.9873046875-1.01806640625.162109375-.12158203125.365234375-.2021484375.6083984375-.2431640625.2431640625-.0400390625.4755859375.06103515625.69921875.30419921875.3642578125.42529296875.759765625.7646484375,1.1845703125,1.01806640625.42578125.25341796875.845703125.39501953125,1.26171875.42529296875.4150390625.0302734375.8095703125-.060546875,1.1845703125-.2734375s.6943359375-.56201171875.9580078125-1.04833984375c.1416015625-.28369140625.22265625-.58740234375.2431640625-.91162109375.01953125-.32421875-.041015625-.623046875-.1826171875-.89697265625-.1416015625-.2734375-.375-.505859375-.69921875-.69873046875-.32421875-.1923828125-.75-.30859375-1.2763671875-.349609375-.041015625.0205078125-.0712890625.02587890625-.0908203125.01513671875-.0205078125-.009765625-.041015625-.01513671875-.060546875-.01513671875h-.0615234375c-.0205078125.0205078125-.0400390625.0302734375-.060546875.0302734375h-.12109375c-.0615234375-.01953125-.126953125-.03515625-.1982421875-.04541015625-.0712890625-.009765625-.1259765625-.03515625-.1669921875-.076171875-.22265625-.060546875-.375-.24267578125-.4560546875-.546875-.0810546875-.3037109375-.1259765625-.63818359375-.13671875-1.0029296875-.009765625-.36474609375.0048828125-.72412109375.0458984375-1.07861328125.0400390625-.3544921875.0908203125-.61279296875.15234375-.77490234375.080078125-.22314453125.181640625-.41064453125.3037109375-.5625.12109375-.15185546875.2626953125-.22802734375.42578125-.22802734375.505859375,0,.951171875-.16162109375,1.3369140625-.48583984375.384765625-.32421875.658203125-.68896484375.8203125-1.09423828125s.1875-.78515625.076171875-1.1396484375-.4208984375-.5517578125-.9267578125-.5927734375c-.3447265625-.0400390625-.71484375.06591796875-1.109375.3193359375-.3955078125.25341796875-.724609375.64306640625-.98828125,1.169921875-.1015625.20263671875-.181640625.400390625-.2431640625.5927734375-.060546875.1923828125-.2119140625.33935546875-.455078125.4404296875-.203125.0810546875-.3955078125.12158203125-.578125.12158203125-.587890625,0-1.1494140625-.171875-1.6865234375-.5166015625-.537109375-.34423828125-.896484375-.83056640625-1.0791015625-1.458984375-.0810546875-.38427734375-.0703125-.759765625.03125-1.1240234375.1005859375-.36474609375.2529296875-.71923828125.455078125-1.06396484375.3447265625-.56689453125.7802734375-1.0634765625,1.3076171875-1.4892578125.5263671875-.42529296875,1.1083984375-.76416015625,1.7470703125-1.01806640625.6376953125-.2529296875,1.31640625-.41015625,2.0361328125-.470703125.71875-.06103515625,1.443359375,0,2.1728515625.18212890625.912109375.22314453125,1.6611328125.6435546875,2.2490234375,1.26123046875.5869140625.6181640625.998046875,1.3525390625,1.23046875,2.203125.2333984375.85107421875.2734375,1.783203125.1220703125,2.79638671875-.15234375,1.01318359375-.51171875,2.04638671875-1.0791015625,3.099609375Z" fill="#231f20" stroke-width="0"/>
        <path d="M58.2919921875,263.88720703125c.5869140625.70947265625,1.048828125,1.56494140625,1.3828125,2.56787109375s.4501953125,1.99072265625.349609375,2.96337890625c-.0810546875.74951171875-.3037109375,1.494140625-.6689453125,2.2333984375-.3642578125.740234375-.8310546875,1.39794921875-1.3974609375,1.9755859375-.5673828125.57763671875-1.220703125,1.0439453125-1.9609375,1.39794921875-.7392578125.3544921875-1.5341796875.53173828125-2.384765625.53173828125-.52734375,0-1.064453125-.05615234375-1.611328125-.1669921875-.546875-.111328125-1.0791015625-.2685546875-1.595703125-.47119140625-.5166015625-.2021484375-.998046875-.4658203125-1.443359375-.7900390625-.4453125-.32373046875-.810546875-.69921875-1.09375-1.12451171875-.3037109375-.42529296875-.3955078125-.89111328125-.2734375-1.39794921875.12109375-.56689453125.359375-1.05859375.7138671875-1.47412109375.3544921875-.4150390625.68359375-.75439453125.9873046875-1.01806640625.162109375-.12158203125.365234375-.2021484375.6083984375-.2431640625.2431640625-.0400390625.4755859375.06103515625.69921875.30419921875.3642578125.42529296875.759765625.7646484375,1.1845703125,1.01806640625.42578125.25341796875.845703125.39501953125,1.26171875.42529296875.4150390625.0302734375.8095703125-.060546875,1.1845703125-.2734375s.6943359375-.56201171875.9580078125-1.04833984375c.1416015625-.28369140625.22265625-.58740234375.2431640625-.91162109375.01953125-.32421875-.041015625-.623046875-.1826171875-.89697265625-.1416015625-.2734375-.375-.505859375-.69921875-.69873046875-.32421875-.1923828125-.75-.30859375-1.2763671875-.349609375-.041015625.0205078125-.0712890625.02587890625-.0908203125.01513671875-.0205078125-.009765625-.041015625-.01513671875-.060546875-.01513671875h-.0615234375c-.0205078125.0205078125-.0400390625.0302734375-.060546875.0302734375h-.12109375c-.0615234375-.01953125-.126953125-.03515625-.1982421875-.04541015625-.0712890625-.009765625-.1259765625-.03515625-.1669921875-.076171875-.22265625-.060546875-.375-.24267578125-.4560546875-.546875-.0810546875-.3037109375-.1259765625-.63818359375-.13671875-1.0029296875-.009765625-.36474609375.0048828125-.72412109375.0458984375-1.07861328125.0400390625-.3544921875.0908203125-.61279296875.15234375-.77490234375.080078125-.22314453125.181640625-.41064453125.3037109375-.5625.12109375-.15185546875.2626953125-.22802734375.42578125-.22802734375.505859375,0,.951171875-.16162109375,1.3369140625-.48583984375.384765625-.32421875.658203125-.68896484375.8203125-1.09423828125s.1875-.78515625.076171875-1.1396484375-.4208984375-.5517578125-.9267578125-.5927734375c-.3447265625-.0400390625-.71484375.06591796875-1.109375.3193359375-.3955078125.25341796875-.724609375.64306640625-.98828125,1.169921875-.1015625.20263671875-.181640625.400390625-.2431640625.5927734375-.060546875.1923828125-.2119140625.33935546875-.455078125.4404296875-.203125.0810546875-.3955078125.12158203125-.578125.12158203125-.587890625,0-1.1494140625-.171875-1.6865234375-.5166015625-.537109375-.34423828125-.896484375-.83056640625-1.0791015625-1.458984375-.0810546875-.38427734375-.0703125-.759765625.03125-1.1240234375.1005859375-.36474609375.2529296875-.71923828125.455078125-1.06396484375.3447265625-.56689453125.7802734375-1.0634765625,1.3076171875-1.4892578125.5263671875-.42529296875,1.1083984375-.76416015625,1.7470703125-1.01806640625.6376953125-.2529296875,1.31640625-.41015625,2.0361328125-.470703125.71875-.06103515625,1.443359375,0,2.1728515625.18212890625.912109375.22314453125,1.6611328125.6435546875,2.2490234375,1.26123046875.5869140625.6181640625.998046875,1.3525390625,1.23046875,2.203125.2333984375.85107421875.2734375,1.783203125.1220703125,2.79638671875-.15234375,1.01318359375-.51171875,2.04638671875-1.0791015625,3.099609375Z" fill="#e2dddb" stroke-width="0"/>
      </g>
      <g>
        <path d="M60.9052734375,344.8828125c-.041015625.22314453125-.1123046875.43603515625-.212890625.63818359375-.1015625.16259765625-.25390625.314453125-.4560546875.4560546875-.203125.14208984375-.4765625.232421875-.8203125.2734375-.3447265625.04052734375-.7041015625.0654296875-1.0791015625.076171875-.375.009765625-.724609375-.02587890625-1.048828125-.1064453125-.32421875-.08154296875-.607421875-.22802734375-.8505859375-.44091796875-.2431640625-.21240234375-.39453125-.53173828125-.4560546875-.95703125-.0400390625-.22265625-.060546875-.6787109375-.060546875-1.36767578125,0-.6884765625.009765625-1.53955078125.0302734375-2.552734375-1.3974609375,0-2.80078125-.025390625-4.208984375-.076171875-1.408203125-.05029296875-2.841796875-.095703125-4.2998046875-.13671875-.0615234375.0205078125-.1328125,0-.212890625-.060546875-.060546875-.04052734375-.1220703125-.1318359375-.1826171875-.27392578125-.060546875-.14111328125-.111328125-.35400390625-.15234375-.63818359375-.01953125-.14111328125-.05078125-.369140625-.0908203125-.68359375-.041015625-.31396484375-.076171875-.6484375-.1064453125-1.0029296875-.0302734375-.35400390625-.0458984375-.6884765625-.0458984375-1.0029296875,0-.31396484375.05078125-.5517578125.15234375-.71435546875.0810546875-.14111328125.283203125-.3896484375.607421875-.744140625s.7197265625-.794921875,1.185546875-1.322265625c1.1748046875-1.2763671875,2.330078125-2.5830078125,3.46484375-3.92041015625,1.1337890625-1.3369140625,2.2587890625-2.765625,3.373046875-4.28515625.2021484375-.283203125.3896484375-.50146484375.5625-.6533203125.171875-.15185546875.48046875-.24755859375.9267578125-.28857421875.42578125-.04052734375.95703125-.0859375,1.595703125-.13671875.6376953125-.05029296875,1.1796875-.01513671875,1.6259765625.1064453125.1005859375.060546875.197265625.13671875.2880859375.2275390625.091796875.09130859375.1474609375.2080078125.16796875.349609375.080078125.5068359375.1259765625.98291015625.13671875,1.4287109375.009765625.44580078125.0244140625.87109375.044921875,1.2763671875l.1220703125,16.5322265625ZM53.5205078125,336.0087890625c.4248046875-.02001953125.8505859375-.03515625,1.2763671875-.04541015625.4248046875-.01025390625.8505859375-.01513671875,1.2763671875-.01513671875,0-.54736328125.009765625-1.09423828125.0302734375-1.64111328125.01953125-.54736328125.0498046875-1.1142578125.0908203125-1.7021484375-.42578125.587890625-.861328125,1.16015625-1.306640625,1.71728515625-.4462890625.55712890625-.9013671875,1.11962890625-1.3671875,1.6865234375Z" fill="none" stroke="#181818" stroke-width="5.631003379821777"/>
        <path d="M60.9052734375,344.8828125c-.041015625.22314453125-.1123046875.43603515625-.212890625.63818359375-.1015625.16259765625-.25390625.314453125-.4560546875.4560546875-.203125.14208984375-.4765625.232421875-.8203125.2734375-.3447265625.04052734375-.7041015625.0654296875-1.0791015625.076171875-.375.009765625-.724609375-.02587890625-1.048828125-.1064453125-.32421875-.08154296875-.607421875-.22802734375-.8505859375-.44091796875-.2431640625-.21240234375-.39453125-.53173828125-.4560546875-.95703125-.0400390625-.22265625-.060546875-.6787109375-.060546875-1.36767578125,0-.6884765625.009765625-1.53955078125.0302734375-2.552734375-1.3974609375,0-2.80078125-.025390625-4.208984375-.076171875-1.408203125-.05029296875-2.841796875-.095703125-4.2998046875-.13671875-.0615234375.0205078125-.1328125,0-.212890625-.060546875-.060546875-.04052734375-.1220703125-.1318359375-.1826171875-.27392578125-.060546875-.14111328125-.111328125-.35400390625-.15234375-.63818359375-.01953125-.14111328125-.05078125-.369140625-.0908203125-.68359375-.041015625-.31396484375-.076171875-.6484375-.1064453125-1.0029296875-.0302734375-.35400390625-.0458984375-.6884765625-.0458984375-1.0029296875,0-.31396484375.05078125-.5517578125.15234375-.71435546875.0810546875-.14111328125.283203125-.3896484375.607421875-.744140625s.7197265625-.794921875,1.185546875-1.322265625c1.1748046875-1.2763671875,2.330078125-2.5830078125,3.46484375-3.92041015625,1.1337890625-1.3369140625,2.2587890625-2.765625,3.373046875-4.28515625.2021484375-.283203125.3896484375-.50146484375.5625-.6533203125.171875-.15185546875.48046875-.24755859375.9267578125-.28857421875.42578125-.04052734375.95703125-.0859375,1.595703125-.13671875.6376953125-.05029296875,1.1796875-.01513671875,1.6259765625.1064453125.1005859375.060546875.197265625.13671875.2880859375.2275390625.091796875.09130859375.1474609375.2080078125.16796875.349609375.080078125.5068359375.1259765625.98291015625.13671875,1.4287109375.009765625.44580078125.0244140625.87109375.044921875,1.2763671875l.1220703125,16.5322265625ZM53.5205078125,336.0087890625c.4248046875-.02001953125.8505859375-.03515625,1.2763671875-.04541015625.4248046875-.01025390625.8505859375-.01513671875,1.2763671875-.01513671875,0-.54736328125.009765625-1.09423828125.0302734375-1.64111328125.01953125-.54736328125.0498046875-1.1142578125.0908203125-1.7021484375-.42578125.587890625-.861328125,1.16015625-1.306640625,1.71728515625-.4462890625.55712890625-.9013671875,1.11962890625-1.3671875,1.6865234375Z" fill="#231f20" stroke-width="0"/>
        <path d="M60.9052734375,344.8828125c-.041015625.22314453125-.1123046875.43603515625-.212890625.63818359375-.1015625.16259765625-.25390625.314453125-.4560546875.4560546875-.203125.14208984375-.4765625.232421875-.8203125.2734375-.3447265625.04052734375-.7041015625.0654296875-1.0791015625.076171875-.375.009765625-.724609375-.02587890625-1.048828125-.1064453125-.32421875-.08154296875-.607421875-.22802734375-.8505859375-.44091796875-.2431640625-.21240234375-.39453125-.53173828125-.4560546875-.95703125-.0400390625-.22265625-.060546875-.6787109375-.060546875-1.36767578125,0-.6884765625.009765625-1.53955078125.0302734375-2.552734375-1.3974609375,0-2.80078125-.025390625-4.208984375-.076171875-1.408203125-.05029296875-2.841796875-.095703125-4.2998046875-.13671875-.0615234375.0205078125-.1328125,0-.212890625-.060546875-.060546875-.04052734375-.1220703125-.1318359375-.1826171875-.27392578125-.060546875-.14111328125-.111328125-.35400390625-.15234375-.63818359375-.01953125-.14111328125-.05078125-.369140625-.0908203125-.68359375-.041015625-.31396484375-.076171875-.6484375-.1064453125-1.0029296875-.0302734375-.35400390625-.0458984375-.6884765625-.0458984375-1.0029296875,0-.31396484375.05078125-.5517578125.15234375-.71435546875.0810546875-.14111328125.283203125-.3896484375.607421875-.744140625s.7197265625-.794921875,1.185546875-1.322265625c1.1748046875-1.2763671875,2.330078125-2.5830078125,3.46484375-3.92041015625,1.1337890625-1.3369140625,2.2587890625-2.765625,3.373046875-4.28515625.2021484375-.283203125.3896484375-.50146484375.5625-.6533203125.171875-.15185546875.48046875-.24755859375.9267578125-.28857421875.42578125-.04052734375.95703125-.0859375,1.595703125-.13671875.6376953125-.05029296875,1.1796875-.01513671875,1.6259765625.1064453125.1005859375.060546875.197265625.13671875.2880859375.2275390625.091796875.09130859375.1474609375.2080078125.16796875.349609375.080078125.5068359375.1259765625.98291015625.13671875,1.4287109375.009765625.44580078125.0244140625.87109375.044921875,1.2763671875l.1220703125,16.5322265625ZM53.5205078125,336.0087890625c.4248046875-.02001953125.8505859375-.03515625,1.2763671875-.04541015625.4248046875-.01025390625.8505859375-.01513671875,1.2763671875-.01513671875,0-.54736328125.009765625-1.09423828125.0302734375-1.64111328125.01953125-.54736328125.0498046875-1.1142578125.0908203125-1.7021484375-.42578125.587890625-.861328125,1.16015625-1.306640625,1.71728515625-.4462890625.55712890625-.9013671875,1.11962890625-1.3671875,1.6865234375Z" fill="#e2dddb" stroke-width="0"/>
      </g>
    </g>
  </g>
</svg>