<?xml version="1.0" encoding="UTF-8"?>
<svg id="Layer_1" data-name="Layer 1" xmlns="http://www.w3.org/2000/svg" width="600" height="600" xmlns:xlink="http://www.w3.org/1999/xlink" viewBox="0 0 600 600">
  <defs>
    <linearGradient id="C6-5" data-name="C6" x1="357.726352605692227" y1="275.77228407234179" x2="261.006050797619025" y2="396.216433493753755" gradientUnits="userSpaceOnUse">
      <stop offset="0" stop-color="#b4924e"/>
      <stop offset=".24960792773485" stop-color="#bf8c54"/>
      <stop offset=".5" stop-color="#c48a57"/>
      <stop offset=".770208753928091" stop-color="#c68858"/>
      <stop offset=".960442344631043" stop-color="#d0815d"/>
      <stop offset="1" stop-color="#d3805f"/>
    </linearGradient>
  </defs>
  <g id="pie_with_links_-5" data-name="pie (with links)">
    <g id="pie_with_links_-6" data-name="pie (with links)">
      <g id="Pie">
        <g>
          <a xlink:href="https://www.notion.so/dmmnotes/paranoid-ae38b1e6af0c4dd08f61e0d8f6e9f05f?pvs=4">
            <path id="C8" d="M331.30810546875,517.74951171875l7.825683593739086,54.4306640625c26.439208984371362-3.767822265628638,51.645751953141371-11.3115234375,75.101318359371362-22.04296875l-22.832519531240905-49.996826171878638c-18.7666015625,8.572265625-38.93505859375,14.601318359378638-60.094482421869543,17.609130859378638Z" fill="none" stroke="#181818" stroke-linecap="round" stroke-linejoin="round" stroke-width="15"/>
          </a>
          <a xlink:href="https://www.notion.so/dmmnotes/menacing-a5bd7149286344deba45ec15e759e579?pvs=4">
            <path id="C7" d="M391.402587890619543,500.140380859371362l22.832519531240905,49.996826171878638c23.989990234389552-10.975830078119543,46.116210937520009-25.287109375009095,65.803955078139552-42.36181640625l-35.972900390630457-41.515869140619543c-15.753417968759095,13.65869140625-33.459228515630457,25.104492187490905-52.66357421875,33.880859374990905Z" fill="none" stroke="#181818" stroke-linecap="round" stroke-linejoin="round" stroke-width="15"/>
          </a>
          <a xlink:href="https://www.notion.so/dmmnotes/punitively-obsessed-with-revenge-33d2e77f37774316b42bccf4a60f9688?pvs=4">
            <path id="C5" d="M485.082519531239086,418.945556640630457l46.223632812510914,29.704833984369543c14.048095703130457-21.809326171878638,25.08837890625-45.71875,32.551513671869543-71.175048828128638l-52.7548828125-15.490234375c-5.9619140625,20.377929687509095-14.789306640619543,39.509765625-26.020263671880457,56.960449218759095Z" fill="none" stroke="#181818" stroke-linecap="round" stroke-linejoin="round" stroke-width="15"/>
          </a>
          <a xlink:href="https://www.notion.so/dmmnotes/feigned-helpless-e79a94b0498c4e109a681b7f3dcdb088?pvs=4">
            <path id="C4" d="M519.999999999989086,300c0,21.5380859375-3.142089843739086,42.321533203121362-8.897216796869543,61.985107421871362l52.7548828125,15.490234375c7.2080078125-24.583496093740905,11.142333984369543-50.5634765625,11.142333984369543-77.475341796871362h-55Z" fill="none" stroke="#181818" stroke-linecap="round" stroke-linejoin="round" stroke-width="15"/>
          </a>
          <a xlink:href="https://www.notion.so/dmmnotes/aggressive-2d8ccce383534b9dbfc7b4b10b8a5d5c?pvs=4">
            <path id="C3" d="M519.999999999989086,300h55c0-26.911865234389552-3.934326171869543-52.894531250009095-11.142333984369543-77.475341796889552l-52.7548828125,15.490234375c5.755126953130457,19.663574218760914,8.897216796869543,40.449707031260914,8.897216796869543,61.985107421889552Z" fill="none" stroke="#181818" stroke-linecap="round" stroke-linejoin="round" stroke-width="15"/>
          </a>
          <a xlink:href="https://www.notion.so/dmmnotes/disarming-086276e599884c86b9359acf831a8b20?pvs=4">
            <path id="C2" d="M511.102783203119543,238.014892578110448l52.7548828125-15.490234375c-7.463134765619543-25.456298828119543-18.503417968739086-49.365722656239086-32.551513671869543-71.177734374989086l-46.223632812510914,29.70751953125c11.230957031260914,17.45068359375,20.055664062510914,36.585205078119543,26.020263671880457,56.960449218739086Z" fill="none" stroke="#181818" stroke-linecap="round" stroke-linejoin="round" stroke-width="15"/>
          </a>
          <a xlink:href="https://www.notion.so/dmmnotes/threatening-348fe6a52f7a4fe69f768e98c6586932?pvs=4">
            <path id="C1" d="M485.082519531239086,181.054443359371362l46.223632812510914-29.70751953125c-3.273382764718917-5.082861773656987-6.709138808491844-10.050169557312984-10.300126728998293-14.894880224830558-18.7746979552212-25.329514182887578-56.293794455537864-26.537787865045175-76.939827532482013-2.708921059354907l-.00003597290015.000041518555008c15.815185546880457,13.71240234375,29.64306640625,29.637695312509095,41.016357421869543,47.311279296880457Z" fill="none" stroke="#181818" stroke-linecap="round" stroke-linejoin="round" stroke-width="15"/>
          </a>
          <a xlink:href="https://www.notion.so/dmmnotes/complaining-acceptance-8b40401a720c493ba73f7cde1567cf3d?pvs=4">
            <path id="B5" d="M444.066162109369543,133.743164062490905l.027581479878791-.031833496001127c20.640755630094645-23.822775814978741,14.113865767882089-60.780908008573533-13.62024398300855-75.760380523983258-5.309700301704652-2.867822708169115-10.7248232881484-5.566222392240888-16.238392184379336-8.08815707375652l-22.832519531240905,49.99951171875c19.204345703119543,8.773681640621362,36.910156249990905,20.22216796875,52.66357421875,33.880859374990905Z" fill="none" stroke="#181818" stroke-linecap="round" stroke-linejoin="round" stroke-width="15"/>
          </a>
          <a xlink:href="https://www.notion.so/dmmnotes/sentimental-bc554363322342b1b7ca4ccc02125049?pvs=4">
            <path id="B4" d="M391.402587890619543,99.8623046875l22.832519531240905-49.99951171875c-23.455566406229991-10.7314453125-48.662109375-18.275146484389552-75.101318359371362-22.042968749989086l-7.825683593739086,54.433349609360448c21.159423828119543,3.0078125,41.327880859369543,9.034179687489086,60.094482421869543,17.609130859378638Z" fill="none" stroke="#181818" stroke-linecap="round" stroke-linejoin="round" stroke-width="15"/>
          </a>
          <a xlink:href="https://www.notion.so/dmmnotes/comfortably-balanced-e76dc615a8b947aa915377cd02fcf716?pvs=4">
            <path id="B3" d="M299.999999999989086,80c10.634765625,0,21.078857421871362.797607421871362,31.308105468760914,2.253173828121362l7.825683593739086-54.433349609360448c-12.788574218739086-1.823486328139552-25.843017578128638-2.819824218760914-39.1337890625-2.819824218760914-13.290771484358629,0-26.34521484375.996337890621362-39.133789062489086,2.819824218760914l7.825683593739086,54.433349609360448c10.23193359375-1.45556640625,20.67333984375-2.253173828121362,31.30810546875-2.253173828121362Z" fill="none" stroke="#181818" stroke-linecap="round" stroke-linejoin="round" stroke-width="15"/>
          </a>
          <a xlink:href="https://www.notion.so/dmmnotes/accepting-317d81273fff4cd9817cdf4a88efd378?pvs=4">
            <path id="B2" d="M268.691894531239086,82.253173828121362l-7.825683593739086-54.433349609360448c-26.439208984389552,3.767822265599534-51.643066406260914,11.311523437489086-75.098632812510914,22.042968749989086l22.83251953125,49.99951171875c18.7666015625-8.574951171889552,38.93505859375-14.601318359378638,60.091796875-17.609130859378638Z" fill="none" stroke="#181818" stroke-linecap="round" stroke-linejoin="round" stroke-width="15"/>
          </a>
          <a xlink:href="https://www.notion.so/dmmnotes/distanced-from-past-2eabab7e9c77429f8e577f4e3e203653?pvs=4">
            <path id="B1" d="M208.600097656239086,99.8623046875l-22.83251953125-49.99951171875c-5.512599781835888,2.521209168186033-10.926526745241063,5.218781822186429-16.234907855665369,8.085682059330793-27.736256078766019,14.979534716061607-34.262863008952991,51.940807863724331-13.620088706633396,75.764372472795003l.023941874798766.027631014745566c15.75341796875-13.658691406260914,33.4619140625-25.1044921875,52.66357421875-33.878173828121362Z" fill="none" stroke="#181818" stroke-linecap="round" stroke-linejoin="round" stroke-width="15"/>
          </a>
          <a xlink:href="https://www.notion.so/dmmnotes/idealising-a52277f51ed14a42aae78081bb34b8be?pvs=4">
            <path id="A1" d="M155.936523437489086,133.740478515621362l-.00003597290015-.000041515868361c-20.647011964001649-23.828455238310198-58.166100839862338-22.61956124678909-76.941289455065998,2.709999997536215-3.591451962298379,4.845219097369409-7.027605747136477,9.813063194997085-10.301350353283851,14.896486830832146l46.226318359371362,29.70751953125c11.373291015639552-17.673583984371362,25.201171875020009-33.598876953130457,41.016357421878638-47.31396484375Z" fill="none" stroke="#181818" stroke-linecap="round" stroke-linejoin="round" stroke-width="15"/>
          </a>
          <a xlink:href="https://www.notion.so/dmmnotes/distancing-9ac690cdca654729a17a5a255944e2d1?pvs=4">
            <path id="A2" d="M114.920166015610448,181.054443359371362l-46.226318359371362-29.70751953125c-14.04541015625,21.81201171875-25.08837890625,45.721435546869543-32.551513671878638,71.177734374989086l52.754882812520009,15.490234375c5.964599609358629-20.375244140619543,14.7919921875-39.509765624989086,26.022949218729991-56.960449218739086Z" fill="none" stroke="#181818" stroke-linecap="round" stroke-linejoin="round" stroke-width="15"/>
          </a>
          <a xlink:href="https://www.notion.so/dmmnotes/compulsive-caregiving-9c380c0928294f41ae10764aa0dee886?pvs=4">
            <path id="A3" d="M88.897216796880457,238.014892578110448l-52.754882812520009-15.490234375c-7.205322265621362,24.580810546880457-11.142333984371362,50.5634765625-11.142333984371362,77.475341796889552h55c0-21.535400390628638,3.14208984375-42.321533203128638,8.897216796891371-61.985107421889552Z" fill="none" stroke="#181818" stroke-linecap="round" stroke-linejoin="round" stroke-width="15"/>
          </a>
          <a xlink:href="https://www.notion.so/dmmnotes/compulsive-compliance-6d08b7ea9a424ce1a72b9184b7850414?pvs=4">
            <path id="A4" d="M79.999999999989086,300H24.999999999989086c0,26.911865234371362,3.93701171875,52.894531249990905,11.142333984371362,77.475341796871362l52.754882812520009-15.490234375c-5.755126953141371-19.66357421875-8.897216796891371-40.447021484371362-8.897216796891371-61.985107421871362Z" fill="none" stroke="#181818" stroke-linecap="round" stroke-linejoin="round" stroke-width="15"/>
          </a>
          <a xlink:href="https://www.notion.so/dmmnotes/sexual-supplementation-8e85f49046ef412aa229745abf7d38d3?pvs=4">
            <path id="A5" d="M88.897216796880457,361.985107421871362l-52.754882812520009,15.490234375c7.463134765628638,25.456298828128638,18.506103515628638,49.36572265625,32.551513671878638,71.175048828128638l46.223632812510914-29.704833984369543c-11.230957031260914-17.450683593759095-20.055664062510914-36.58251953125-26.020263671869543-56.960449218759095Z" fill="none" stroke="#181818" stroke-linecap="round" stroke-linejoin="round" stroke-width="15"/>
          </a>
          <a xlink:href="https://www.notion.so/dmmnotes/compulsive-isolated-self-reliance-b321873a73fa41aaaadd7192fde856a2?pvs=4">
            <path id="A6" d="M114.91748046875,418.945556640630457l-46.223632812510914,29.704833984369543c14.219970703121362,22.083251953121362,31.504150390641371,41.983154296871362,51.269775390641371,59.125l35.972900390608629-41.515869140619543c-15.815185546858629-13.712402343759095-29.643066406239086-29.637695312509095-41.019042968739086-47.31396484375Z" fill="none" stroke="#181818" stroke-linecap="round" stroke-linejoin="round" stroke-width="15"/>
          </a>
          <a xlink:href="https://www.notion.so/dmmnotes/delusional-idealization-743e2420b9994a48a7cab68190432e8a?pvs=4">
            <path id="A7" d="M155.936523437489086,466.259521484380457l-35.972900390608629,41.515869140619543c19.687744140608629,17.074707031240905,41.811279296858629,31.385986328130457,65.803955078108629,42.36181640625l22.83251953125-49.996826171878638c-19.20166015625-8.773681640621362-36.91015625-20.222167968740905-52.66357421875-33.880859374990905Z" fill="none" stroke="#181818" stroke-linecap="round" stroke-linejoin="round" stroke-width="15"/>
          </a>
          <a xlink:href="https://www.notion.so/dmmnotes/externally-assembled-self-994ecb0895b844409b931d74a045c162?pvs=4">
            <path id="A8" d="M208.600097656239086,500.140380859371362l-22.83251953125,49.996826171878638c23.45556640625,10.7314453125,48.659423828121362,18.275146484371362,75.098632812510914,22.04296875l7.825683593739086-54.4306640625c-21.15673828125-3.0078125-41.3251953125-9.0341796875-60.091796875-17.609130859378638Z" fill="none" stroke="#181818" stroke-linecap="round" stroke-linejoin="round" stroke-width="15"/>
          </a>
          <a xlink:href="https://www.notion.so/dmmnotes/psychopathy-0fe4a3222d9f4fd097ab4546c9776768?pvs=4">
            <path id="AC" d="M299.999999999989086,520c-10.634765625,0-21.076171875-.794921875-31.30810546875-2.25048828125l-7.825683593739086,54.4306640625c12.788574218739086,1.823486328130457,25.843017578130457,2.81982421875,39.133789062489086,2.81982421875,13.290771484371362,0,26.345214843760914-.996337890619543,39.1337890625-2.81982421875l-7.825683593739086-54.4306640625c-10.229248046889552,1.45556640625-20.673339843760914,2.25048828125-31.308105468760914,2.25048828125Z" fill="none" stroke="#181818" stroke-linecap="round" stroke-linejoin="round" stroke-width="15"/>
          </a>
          <a xlink:href="https://www.notion.so/dmmnotes/seductively-obsessed-with-rescue-6fb5a68f6d334bc29ccccc16d8a4e56e?pvs=4">
            <g id="C6">
              <path d="M479.9677734375,508.772460937510914c-.2646484375-.0185546875-.5107421875-.1416015625-.6845703125-.341796875l-35.97265625-41.515625c-.361328125-.41796875-.31640625-1.048828125.1005859375-1.4111328125,15.798828125-13.701171875,29.5361328125-29.5478515625,40.830078125-47.099609375.19140625-.296875.5126953125-.458984375.841796875-.458984375.185546875,0,.3720703125.05078125.5400390625.1591796875l46.224609375,29.705078125c.22265625.142578125.3798828125.369140625.4365234375.62890625.0556640625.2587890625.0068359375.5302734375-.13671875.7529296875-14.2392578125,22.111328125-31.55078125,42.076171875-51.453125,59.33984375-.1826171875.158203125-.4150390625.244140625-.6552734375.244140625-.0234375,0-.046875-.0009765625-.0712890625-.0029296875Z" fill="none" stroke="#181818" stroke-linecap="round" stroke-linejoin="round" stroke-width="15"/>
              <path d="M485.08251953125,418.945556640635914l46.2236328125,29.704833984375c-14.219970703125,22.083251953125-31.504150390625,41.983154296875-51.26708984375,59.125l-35.972900390625-41.515869140625c15.815185546875-13.715087890625,29.64306640625-29.640380859375,41.016357421875-47.31396484375M485.0843505859375,416.945312500010914c-.6575927734375,0-1.3013916015625.3238525390625-1.6837158203125.91796875-11.24462890625,17.4736328125-24.9195556640625,33.2481689453125-40.644775390625,46.88525390625-.834228515625.7235107421875-.92431640625,1.9862060546875-.201171875,2.8206787109375l35.972900390625,41.515869140625c.347412109375.4010009765625.8399658203125.6475830078125,1.3692626953125.6851806640625.0474853515625.00341796875.094970703125.005126953125.142333984375.005126953125.4798583984375,0,.9454345703125-.1727294921875,1.310302734375-.4891357421875,19.9759521484375-17.3265380859375,37.3494873046875-37.363037109375,51.63818359375-59.5531005859375.287353515625-.4461669921875.385498046875-.9884033203125.27294921875-1.507080078125s-.4267578125-.9713134765625-.8731689453125-1.2581787109375l-46.2236328125-29.704833984375c-.3345947265625-.2149658203125-.709228515625-.3177490234375-1.0794677734375-.3177490234375h0Z" fill="none" stroke="#181818" stroke-linecap="round" stroke-linejoin="round" stroke-width="15"/>
            </g>
          </a>
        </g>
        <g>
          <a xlink:href="https://www.notion.so/dmmnotes/paranoid-ae38b1e6af0c4dd08f61e0d8f6e9f05f?pvs=4">
            <path id="C8-2" data-name="C8" d="M331.30810546875,517.74951171875l7.825683593739086,54.4306640625c26.439208984371362-3.767822265628638,51.645751953141371-11.3115234375,75.101318359371362-22.04296875l-22.832519531240905-49.996826171878638c-18.7666015625,8.572265625-38.93505859375,14.601318359378638-60.094482421869543,17.609130859378638Z" fill="#8f807d" stroke="#181818" stroke-linecap="round" stroke-linejoin="round" stroke-width="2"/>
          </a>
          <a xlink:href="https://www.notion.so/dmmnotes/menacing-a5bd7149286344deba45ec15e759e579?pvs=4">
            <path id="C7-2" data-name="C7" d="M391.402587890619543,500.140380859371362l22.832519531240905,49.996826171878638c23.989990234389552-10.975830078119543,46.116210937520009-25.287109375009095,65.803955078139552-42.36181640625l-35.972900390630457-41.515869140619543c-15.753417968759095,13.65869140625-33.459228515630457,25.104492187490905-52.66357421875,33.880859374990905Z" fill="#8f807d" stroke="#181818" stroke-linecap="round" stroke-linejoin="round" stroke-width="2"/>
          </a>
          <a xlink:href="https://www.notion.so/dmmnotes/punitively-obsessed-with-revenge-33d2e77f37774316b42bccf4a60f9688?pvs=4">
            <path id="C5-2" data-name="C5" d="M485.082519531239086,418.945556640630457l46.223632812510914,29.704833984369543c14.048095703130457-21.809326171878638,25.08837890625-45.71875,32.551513671869543-71.175048828128638l-52.7548828125-15.490234375c-5.9619140625,20.377929687509095-14.789306640619543,39.509765625-26.020263671880457,56.960449218759095Z" fill="#8f807d" stroke="#181818" stroke-linecap="round" stroke-linejoin="round" stroke-width="2"/>
          </a>
          <a xlink:href="https://www.notion.so/dmmnotes/feigned-helpless-e79a94b0498c4e109a681b7f3dcdb088?pvs=4">
            <path id="C4-2" data-name="C4" d="M519.999999999989086,300c0,21.5380859375-3.142089843739086,42.321533203121362-8.897216796869543,61.985107421871362l52.7548828125,15.490234375c7.2080078125-24.583496093740905,11.142333984369543-50.5634765625,11.142333984369543-77.475341796871362h-55Z" fill="#8f807d" stroke="#181818" stroke-linecap="round" stroke-linejoin="round" stroke-width="2"/>
          </a>
          <a xlink:href="https://www.notion.so/dmmnotes/aggressive-2d8ccce383534b9dbfc7b4b10b8a5d5c?pvs=4">
            <path id="C3-2" data-name="C3" d="M519.999999999989086,300h55c0-26.911865234389552-3.934326171869543-52.894531250009095-11.142333984369543-77.475341796889552l-52.7548828125,15.490234375c5.755126953130457,19.663574218760914,8.897216796869543,40.449707031260914,8.897216796869543,61.985107421889552Z" fill="#8f807d" stroke="#181818" stroke-linecap="round" stroke-linejoin="round" stroke-width="2"/>
          </a>
          <a xlink:href="https://www.notion.so/dmmnotes/disarming-086276e599884c86b9359acf831a8b20?pvs=4">
            <path id="C2-2" data-name="C2" d="M511.102783203119543,238.014892578110448l52.7548828125-15.490234375c-7.463134765619543-25.456298828119543-18.503417968739086-49.365722656239086-32.551513671869543-71.177734374989086l-46.223632812510914,29.70751953125c11.230957031260914,17.45068359375,20.055664062510914,36.585205078119543,26.020263671880457,56.960449218739086Z" fill="#8f807d" stroke="#181818" stroke-linecap="round" stroke-linejoin="round" stroke-width="2"/>
          </a>
          <a xlink:href="https://www.notion.so/dmmnotes/threatening-348fe6a52f7a4fe69f768e98c6586932?pvs=4">
            <path id="C1-2" data-name="C1" d="M485.082519531239086,181.054443359371362l46.223632812510914-29.70751953125c-3.273382764718917-5.082861773656987-6.709138808491844-10.050169557312984-10.300126728998293-14.894880224830558-18.7746979552212-25.329514182887578-56.293794455537864-26.537787865045175-76.939827532482013-2.708921059354907l-.00003597290015.000041518555008c15.815185546880457,13.71240234375,29.64306640625,29.637695312509095,41.016357421869543,47.311279296880457Z" fill="#8f807d" stroke="#181818" stroke-linecap="round" stroke-linejoin="round" stroke-width="2"/>
          </a>
          <a xlink:href="https://www.notion.so/dmmnotes/complaining-acceptance-8b40401a720c493ba73f7cde1567cf3d?pvs=4">
            <path id="B5-2" data-name="B5" d="M444.066162109369543,133.743164062490905l.027581479878791-.031833496001127c20.640755630094645-23.822775814978741,14.113865767882089-60.780908008573533-13.62024398300855-75.760380523983258-5.309700301704652-2.867822708169115-10.7248232881484-5.566222392240888-16.238392184379336-8.08815707375652l-22.832519531240905,49.99951171875c19.204345703119543,8.773681640621362,36.910156249990905,20.22216796875,52.66357421875,33.880859374990905Z" fill="#8f807d" stroke="#181818" stroke-linecap="round" stroke-linejoin="round" stroke-width="2"/>
          </a>
          <a xlink:href="https://www.notion.so/dmmnotes/sentimental-bc554363322342b1b7ca4ccc02125049?pvs=4">
            <path id="B4-2" data-name="B4" d="M391.402587890619543,99.8623046875l22.832519531240905-49.99951171875c-23.455566406229991-10.7314453125-48.662109375-18.275146484389552-75.101318359371362-22.042968749989086l-7.825683593739086,54.433349609360448c21.159423828119543,3.0078125,41.327880859369543,9.034179687489086,60.094482421869543,17.609130859378638Z" fill="#8f807d" stroke="#181818" stroke-linecap="round" stroke-linejoin="round" stroke-width="2"/>
          </a>
          <a xlink:href="https://www.notion.so/dmmnotes/comfortably-balanced-e76dc615a8b947aa915377cd02fcf716?pvs=4">
            <path id="B3-2" data-name="B3" d="M299.999999999989086,80c10.634765625,0,21.078857421871362.797607421871362,31.308105468760914,2.253173828121362l7.825683593739086-54.433349609360448c-12.788574218739086-1.823486328139552-25.843017578128638-2.819824218760914-39.1337890625-2.819824218760914-13.290771484358629,0-26.34521484375.996337890621362-39.133789062489086,2.819824218760914l7.825683593739086,54.433349609360448c10.23193359375-1.45556640625,20.67333984375-2.253173828121362,31.30810546875-2.253173828121362Z" fill="#8f807d" stroke="#181818" stroke-linecap="round" stroke-linejoin="round" stroke-width="2"/>
          </a>
          <a xlink:href="https://www.notion.so/dmmnotes/accepting-317d81273fff4cd9817cdf4a88efd378?pvs=4">
            <path id="B2-2" data-name="B2" d="M268.691894531239086,82.253173828121362l-7.825683593739086-54.433349609360448c-26.439208984389552,3.767822265599534-51.643066406260914,11.311523437489086-75.098632812510914,22.042968749989086l22.83251953125,49.99951171875c18.7666015625-8.574951171889552,38.93505859375-14.601318359378638,60.091796875-17.609130859378638Z" fill="#8f807d" stroke="#181818" stroke-linecap="round" stroke-linejoin="round" stroke-width="2"/>
          </a>
          <a xlink:href="https://www.notion.so/dmmnotes/distanced-from-past-2eabab7e9c77429f8e577f4e3e203653?pvs=4">
            <path id="B1-2" data-name="B1" d="M208.600097656239086,99.8623046875l-22.83251953125-49.99951171875c-5.512599781835888,2.521209168186033-10.926526745241063,5.218781822186429-16.234907855665369,8.085682059330793-27.736256078766019,14.979534716061607-34.262863008952991,51.940807863724331-13.620088706633396,75.764372472795003l.023941874798766.027631014745566c15.75341796875-13.658691406260914,33.4619140625-25.1044921875,52.66357421875-33.878173828121362Z" fill="#8f807d" stroke="#181818" stroke-linecap="round" stroke-linejoin="round" stroke-width="2"/>
          </a>
          <a xlink:href="https://www.notion.so/dmmnotes/idealising-a52277f51ed14a42aae78081bb34b8be?pvs=4">
            <path id="A1-2" data-name="A1" d="M155.936523437489086,133.740478515621362l-.00003597290015-.000041515868361c-20.647011964001649-23.828455238310198-58.166100839862338-22.61956124678909-76.941289455065998,2.709999997536215-3.591451962298379,4.845219097369409-7.027605747136477,9.813063194997085-10.301350353283851,14.896486830832146l46.226318359371362,29.70751953125c11.373291015639552-17.673583984371362,25.201171875020009-33.598876953130457,41.016357421878638-47.31396484375Z" fill="#8f807d" stroke="#181818" stroke-linecap="round" stroke-linejoin="round" stroke-width="2"/>
          </a>
          <a xlink:href="https://www.notion.so/dmmnotes/distancing-9ac690cdca654729a17a5a255944e2d1?pvs=4">
            <path id="A2-2" data-name="A2" d="M114.920166015610448,181.054443359371362l-46.226318359371362-29.70751953125c-14.04541015625,21.81201171875-25.08837890625,45.721435546869543-32.551513671878638,71.177734374989086l52.754882812520009,15.490234375c5.964599609358629-20.375244140619543,14.7919921875-39.509765624989086,26.022949218729991-56.960449218739086Z" fill="#8f807d" stroke="#181818" stroke-linecap="round" stroke-linejoin="round" stroke-width="2"/>
          </a>
          <a xlink:href="https://www.notion.so/dmmnotes/compulsive-caregiving-9c380c0928294f41ae10764aa0dee886?pvs=4">
            <path id="A3-2" data-name="A3" d="M88.897216796880457,238.014892578110448l-52.754882812520009-15.490234375c-7.205322265621362,24.580810546880457-11.142333984371362,50.5634765625-11.142333984371362,77.475341796889552h55c0-21.535400390628638,3.14208984375-42.321533203128638,8.897216796891371-61.985107421889552Z" fill="#8f807d" stroke="#181818" stroke-linecap="round" stroke-linejoin="round" stroke-width="2"/>
          </a>
          <a xlink:href="https://www.notion.so/dmmnotes/compulsive-compliance-6d08b7ea9a424ce1a72b9184b7850414?pvs=4">
            <path id="A4-2" data-name="A4" d="M79.999999999989086,300H24.999999999989086c0,26.911865234371362,3.93701171875,52.894531249990905,11.142333984371362,77.475341796871362l52.754882812520009-15.490234375c-5.755126953141371-19.66357421875-8.897216796891371-40.447021484371362-8.897216796891371-61.985107421871362Z" fill="#8f807d" stroke="#181818" stroke-linecap="round" stroke-linejoin="round" stroke-width="2"/>
          </a>
          <a xlink:href="https://www.notion.so/dmmnotes/sexual-supplementation-8e85f49046ef412aa229745abf7d38d3?pvs=4">
            <path id="A5-2" data-name="A5" d="M88.897216796880457,361.985107421871362l-52.754882812520009,15.490234375c7.463134765628638,25.456298828128638,18.506103515628638,49.36572265625,32.551513671878638,71.175048828128638l46.223632812510914-29.704833984369543c-11.230957031260914-17.450683593759095-20.055664062510914-36.58251953125-26.020263671869543-56.960449218759095Z" fill="#8f807d" stroke="#181818" stroke-linecap="round" stroke-linejoin="round" stroke-width="2"/>
          </a>
          <a xlink:href="https://www.notion.so/dmmnotes/compulsive-isolated-self-reliance-b321873a73fa41aaaadd7192fde856a2?pvs=4">
            <path id="A6-2" data-name="A6" d="M114.91748046875,418.945556640630457l-46.223632812510914,29.704833984369543c14.219970703121362,22.083251953121362,31.504150390641371,41.983154296871362,51.269775390641371,59.125l35.972900390608629-41.515869140619543c-15.815185546858629-13.712402343759095-29.643066406239086-29.637695312509095-41.019042968739086-47.31396484375Z" fill="#8f807d" stroke="#181818" stroke-linecap="round" stroke-linejoin="round" stroke-width="2"/>
          </a>
          <a xlink:href="https://www.notion.so/dmmnotes/delusional-idealization-743e2420b9994a48a7cab68190432e8a?pvs=4">
            <path id="A7-2" data-name="A7" d="M155.936523437489086,466.259521484380457l-35.972900390608629,41.515869140619543c19.687744140608629,17.074707031240905,41.811279296858629,31.385986328130457,65.803955078108629,42.36181640625l22.83251953125-49.996826171878638c-19.20166015625-8.773681640621362-36.91015625-20.222167968740905-52.66357421875-33.880859374990905Z" fill="#8f807d" stroke="#181818" stroke-linecap="round" stroke-linejoin="round" stroke-width="2"/>
          </a>
          <a xlink:href="https://www.notion.so/dmmnotes/externally-assembled-self-994ecb0895b844409b931d74a045c162?pvs=4">
            <path id="A8-2" data-name="A8" d="M208.600097656239086,500.140380859371362l-22.83251953125,49.996826171878638c23.45556640625,10.7314453125,48.659423828121362,18.275146484371362,75.098632812510914,22.04296875l7.825683593739086-54.4306640625c-21.15673828125-3.0078125-41.3251953125-9.0341796875-60.091796875-17.609130859378638Z" fill="#8f807d" stroke="#181818" stroke-linecap="round" stroke-linejoin="round" stroke-width="2"/>
          </a>
          <a xlink:href="https://www.notion.so/dmmnotes/psychopathy-0fe4a3222d9f4fd097ab4546c9776768?pvs=4">
            <path id="AC-2" data-name="AC" d="M299.999999999989086,520c-10.634765625,0-21.076171875-.794921875-31.30810546875-2.25048828125l-7.825683593739086,54.4306640625c12.788574218739086,1.823486328130457,25.843017578130457,2.81982421875,39.133789062489086,2.81982421875,13.290771484371362,0,26.345214843760914-.996337890619543,39.1337890625-2.81982421875l-7.825683593739086-54.4306640625c-10.229248046889552,1.45556640625-20.673339843760914,2.25048828125-31.308105468760914,2.25048828125Z" fill="#8f807d" stroke="#181818" stroke-linecap="round" stroke-linejoin="round" stroke-width="2"/>
          </a>
          <a xlink:href="https://www.notion.so/dmmnotes/seductively-obsessed-with-rescue-6fb5a68f6d334bc29ccccc16d8a4e56e?pvs=4">
            <g id="C6-2" data-name="C6">
              <path d="M479.9677734375,508.772460937510914c-.2646484375-.0185546875-.5107421875-.1416015625-.6845703125-.341796875l-35.97265625-41.515625c-.361328125-.41796875-.31640625-1.048828125.1005859375-1.4111328125,15.798828125-13.701171875,29.5361328125-29.5478515625,40.830078125-47.099609375.19140625-.296875.5126953125-.458984375.841796875-.458984375.185546875,0,.3720703125.05078125.5400390625.1591796875l46.224609375,29.705078125c.22265625.142578125.3798828125.369140625.4365234375.62890625.0556640625.2587890625.0068359375.5302734375-.13671875.7529296875-14.2392578125,22.111328125-31.55078125,42.076171875-51.453125,59.33984375-.1826171875.158203125-.4150390625.244140625-.6552734375.244140625-.0234375,0-.046875-.0009765625-.0712890625-.0029296875Z" fill="#c48a57" stroke-width="0"/>
              <path d="M485.08251953125,418.945556640635914l46.2236328125,29.704833984375c-14.219970703125,22.083251953125-31.504150390625,41.983154296875-51.26708984375,59.125l-35.972900390625-41.515869140625c15.815185546875-13.715087890625,29.64306640625-29.640380859375,41.016357421875-47.31396484375M485.0843505859375,416.945312500010914c-.6575927734375,0-1.3013916015625.3238525390625-1.6837158203125.91796875-11.24462890625,17.4736328125-24.9195556640625,33.2481689453125-40.644775390625,46.88525390625-.834228515625.7235107421875-.92431640625,1.9862060546875-.201171875,2.8206787109375l35.972900390625,41.515869140625c.347412109375.4010009765625.8399658203125.6475830078125,1.3692626953125.6851806640625.0474853515625.00341796875.094970703125.005126953125.142333984375.005126953125.4798583984375,0,.9454345703125-.1727294921875,1.310302734375-.4891357421875,19.9759521484375-17.3265380859375,37.3494873046875-37.363037109375,51.63818359375-59.5531005859375.287353515625-.4461669921875.385498046875-.9884033203125.27294921875-1.507080078125s-.4267578125-.9713134765625-.8731689453125-1.2581787109375l-46.2236328125-29.704833984375c-.3345947265625-.2149658203125-.709228515625-.3177490234375-1.0794677734375-.3177490234375h0Z" fill="#181818" stroke-width="0"/>
            </g>
          </a>
        </g>
      </g>
      <a xlink:href="https://www.notion.so/dmmnotes/C6-6fb5a68f6d334bc29ccccc16d8a4e56e?pvs=4#cd1ac8fcf42a4b69920a4da09870a1ed">
        <g id="C6-3" data-name="C6">
          <g id="C6-4" data-name="C6">
            <path d="M300.0009765625,414.7060546875c-36.970703125,0-67.048828125-30.078125-67.048828125-67.048828125s30.0771484375-67.04833984375,67.0478515625-67.04833984375,67.048828125,30.07763671875,67.048828125,67.04833984375-30.0771484375,67.048828125-67.0478515625,67.048828125Z" fill="url(#C6-5)" stroke-width="0"/>
            <path d="M300.00048828125,289.108795166010168c32.33544921875,0,58.548828125,26.213134765630457,58.548828125,58.548675537111194,0,32.335601806638806-26.21337890625,58.548767089849207-58.548828125,58.548767089849207-.001953125,0,.001953125,0,0,0-32.3330078125,0-58.548828125-26.215057373048694-58.548828125-58.548645019540345,0-32.335571289058862,26.21337890625-58.548736572258349,58.548828125-58.548797607420056M300.00048828125,272.108795166010168h0c-41.65771484375.000061035161707-75.548828125,33.89111328125-75.548828125,75.548797607420056,0,41.657653808601026,33.89111328125,75.548645019540345,75.548828125,75.548645019540345s75.548828125-33.891052246099207,75.548828125-75.548767089849207c0-41.657653808590112-33.89111328125-75.548675537111194-75.548828125-75.548675537111194h0Z" fill="#181818" stroke-width="0"/>
          </g>
          <a xlink:href="https://www.notion.so/dmmnotes/C6-6fb5a68f6d334bc29ccccc16d8a4e56e?pvs=4#cd1ac8fcf42a4b69920a4da09870a1ed">
            <g>
              <g>
                <path d="M271.349609375003638,243.247070312487267c.1025390625-3.0341796875-.392578125-5.310546875-1.4921875-6.8291015625-1.0986328125-1.5166015625-2.4873046875-2.4580078125-4.16015625-2.826171875-1.67578125-.365234375-3.48046875-.181640625-5.416015625.5498046875-1.9384765625.7333984375-3.689453125,1.7802734375-5.259765625,3.1396484375-3.6650390625,3.1396484375-6.62109375,7.1435546875-8.87109375,12.0107421875-2.251953125,4.8662109375-3.767578125,9.96875-4.552734375,15.3076171875-.78515625,5.337890625-.8388671875,10.6513671875-.15625,15.935546875.6787109375,5.2861328125,2.169921875,9.8662109375,4.474609375,13.7373046875,1.4638671875,2.51171875,3.2177734375,4.37109375,5.2587890625,5.5732421875,2.041015625,1.2041015625,4.2119140625,1.8837890625,6.515625,2.041015625,2.30078125.1572265625,4.5771484375-.208984375,6.8291015625-1.0986328125,2.25-.888671875,4.263671875-2.22265625,6.044921875-4.00390625,2.720703125-2.720703125,4.91796875-4.65625,6.59375-5.80859375,1.673828125-1.1513671875,3.556640625-1.779296875,5.65234375-1.884765625,5.9658203125,0,9.916015625,1.67578125,11.853515625,5.0244140625,1.935546875,3.3505859375,2.0654296875,7.4326171875.392578125,12.24609375-1.361328125,3.767578125-3.4296875,7.064453125-6.201171875,9.890625-2.775390625,2.826171875-5.994140625,5.1025390625-9.65625,6.830078125-3.6650390625,1.7265625-7.58984375,2.9306640625-11.775390625,3.6103515625-4.1875.6796875-8.3203125.8642578125-12.40234375.5498046875s-7.955078125-1.177734375-11.6181640625-2.5908203125c-3.6650390625-1.4130859375-6.8056640625-3.3212890625-9.419921875-5.73046875-2.931640625-2.720703125-5.4951171875-5.8330078125-7.6923828125-9.3408203125-2.19921875-3.505859375-4.03125-7.22265625-5.49609375-11.1474609375-1.466796875-3.9248046875-2.5654296875-8.0068359375-3.296875-12.24609375-.7333984375-4.2392578125-1.0986328125-8.501953125-1.0986328125-12.794921875.2080078125-9.62890625,2.2490234375-18.943359375,6.123046875-27.9462890625,3.87109375-9.0009765625,9.0009765625-16.8505859375,15.3857421875-23.5498046875,2.9296875-3.03515625,6.41015625-5.625,10.4404296875-7.771484375,4.0283203125-2.14453125,8.1640625-3.533203125,12.4033203125-4.1611328125,4.23828125-.6279296875,8.3994140625-.4169921875,12.4814453125.6279296875,4.08203125,1.0478515625,7.6923828125,3.24609375,10.8330078125,6.5947265625,2.40625,2.51171875,4.341796875,5.3916015625,5.80859375,8.634765625,1.46484375,3.2451171875,2.564453125,6.4912109375,3.296875,9.7333984375.41796875,2.095703125.6015625,4.08203125.5498046875,5.966796875-.0537109375,1.8837890625-.498046875,3.6650390625-1.3349609375,5.337890625-1.15234375,2.0947265625-2.9306640625,3.5859375-5.337890625,4.474609375-2.408203125.890625-4.7880859375,1.1767578125-7.142578125.86328125-2.35546875-.314453125-4.396484375-1.2294921875-6.123046875-2.748046875-1.7275390625-1.515625-2.5390625-3.583984375-2.43359375-6.201171875Z" fill="none" stroke="#181818" stroke-linecap="round" stroke-linejoin="round" stroke-width="33"/>
                <path d="M337.443359375003638,254.550781249987267c6.697265625-.94140625,12.84765625-.8359375,18.4482421875.314453125,5.59765625,1.1533203125,10.3857421875,3.2451171875,14.365234375,6.2802734375,3.9765625,3.037109375,7.0107421875,6.9072265625,9.1064453125,11.6181640625,2.091796875,4.7099609375,3.0341796875,10.1015625,2.826171875,16.1708984375-.2109375,4.5009765625-1.021484375,8.8701171875-2.43359375,13.109375-1.4140625,4.23828125-3.4296875,8.0849609375-6.044921875,11.5390625-2.6171875,3.4541015625-5.78515625,6.4375-9.498046875,8.94921875-3.716796875,2.51171875-7.9296875,4.29296875-12.638671875,5.337890625-1.78125.314453125-3.5078125.5498046875-5.181640625.70703125-1.67578125.15625-3.40234375.1298828125-5.1806640625-.0791015625-4.7099609375-.3134765625-9.2119140625-1.4130859375-13.501953125-3.296875-4.29296875-1.8837890625-8.1123046875-4.3955078125-11.4609375-7.5361328125-3.3505859375-3.1396484375-6.123046875-6.8291015625-8.3212890625-11.068359375-2.197265625-4.2392578125-3.5078125-8.8701171875-3.9248046875-13.89453125-.5244140625-5.65234375-.1845703125-11.4853515625,1.0205078125-17.505859375,1.2021484375-6.017578125,2.982421875-11.904296875,5.337890625-17.662109375,2.35546875-5.7548828125,5.154296875-11.2255859375,8.3994140625-16.40625,3.2431640625-5.181640625,6.6455078125-9.70703125,10.205078125-13.5810546875,1.4638671875-1.6728515625,3.0078125-3.2177734375,4.6318359375-4.630859375,1.62109375-1.4130859375,3.26953125-2.5908203125,4.9453125-3.533203125.8359375-.5224609375,1.7783203125-.7060546875,2.826171875-.548828125,1.044921875.15625,1.935546875.603515625,2.6689453125,1.333984375,1.150390625.9423828125,2.3544921875,2.1201171875,3.6103515625,3.533203125,1.255859375,1.412109375,2.30078125,2.9580078125,3.140625,4.630859375.4169921875.7333984375.7578125,1.4912109375,1.0205078125,2.2763671875.259765625.78515625.3388671875,1.59765625.2353515625,2.43359375,0,1.78125-.7333984375,3.40234375-2.1982421875,4.8671875-4.8154296875,4.9208984375-8.9482421875,10.4677734375-12.4033203125,16.6416015625ZM348.433593750003638,276.844726562487267c-3.3505859375-.8359375-6.3583984375-.8359375-9.02734375,0-2.6689453125.83984375-4.8671875,2.1201171875-6.59375,3.8466796875-1.7265625,1.7275390625-2.958984375,3.794921875-3.689453125,6.2021484375-.7333984375,2.408203125-.83984375,4.736328125-.314453125,6.986328125.5234375,2.251953125,1.751953125,4.29296875,3.689453125,6.123046875,1.935546875,1.83203125,4.6318359375,3.115234375,8.0859375,3.8466796875,2.091796875.3134765625,4.1328125.2353515625,6.123046875-.236328125,1.986328125-.470703125,3.767578125-1.4912109375,5.337890625-3.0615234375,1.7783203125-1.7783203125,2.982421875-3.8974609375,3.611328125-6.3583984375.626953125-2.4580078125.78515625-4.8662109375.470703125-7.2216796875s-1.1259765625-4.474609375-2.43359375-6.3583984375c-1.310546875-1.8837890625-3.0615234375-3.1396484375-5.259765625-3.7685546875Z" fill="none" stroke="#181818" stroke-linecap="round" stroke-linejoin="round" stroke-width="33"/>
              </g>
              <g>
                <path d="M271.349609375003638,243.247070312487267c.1025390625-3.0341796875-.392578125-5.310546875-1.4921875-6.8291015625-1.0986328125-1.5166015625-2.4873046875-2.4580078125-4.16015625-2.826171875-1.67578125-.365234375-3.48046875-.181640625-5.416015625.5498046875-1.9384765625.7333984375-3.689453125,1.7802734375-5.259765625,3.1396484375-3.6650390625,3.1396484375-6.62109375,7.1435546875-8.87109375,12.0107421875-2.251953125,4.8662109375-3.767578125,9.96875-4.552734375,15.3076171875-.78515625,5.337890625-.8388671875,10.6513671875-.15625,15.935546875.6787109375,5.2861328125,2.169921875,9.8662109375,4.474609375,13.7373046875,1.4638671875,2.51171875,3.2177734375,4.37109375,5.2587890625,5.5732421875,2.041015625,1.2041015625,4.2119140625,1.8837890625,6.515625,2.041015625,2.30078125.1572265625,4.5771484375-.208984375,6.8291015625-1.0986328125,2.25-.888671875,4.263671875-2.22265625,6.044921875-4.00390625,2.720703125-2.720703125,4.91796875-4.65625,6.59375-5.80859375,1.673828125-1.1513671875,3.556640625-1.779296875,5.65234375-1.884765625,5.9658203125,0,9.916015625,1.67578125,11.853515625,5.0244140625,1.935546875,3.3505859375,2.0654296875,7.4326171875.392578125,12.24609375-1.361328125,3.767578125-3.4296875,7.064453125-6.201171875,9.890625-2.775390625,2.826171875-5.994140625,5.1025390625-9.65625,6.830078125-3.6650390625,1.7265625-7.58984375,2.9306640625-11.775390625,3.6103515625-4.1875.6796875-8.3203125.8642578125-12.40234375.5498046875s-7.955078125-1.177734375-11.6181640625-2.5908203125c-3.6650390625-1.4130859375-6.8056640625-3.3212890625-9.419921875-5.73046875-2.931640625-2.720703125-5.4951171875-5.8330078125-7.6923828125-9.3408203125-2.19921875-3.505859375-4.03125-7.22265625-5.49609375-11.1474609375-1.466796875-3.9248046875-2.5654296875-8.0068359375-3.296875-12.24609375-.7333984375-4.2392578125-1.0986328125-8.501953125-1.0986328125-12.794921875.2080078125-9.62890625,2.2490234375-18.943359375,6.123046875-27.9462890625,3.87109375-9.0009765625,9.0009765625-16.8505859375,15.3857421875-23.5498046875,2.9296875-3.03515625,6.41015625-5.625,10.4404296875-7.771484375,4.0283203125-2.14453125,8.1640625-3.533203125,12.4033203125-4.1611328125,4.23828125-.6279296875,8.3994140625-.4169921875,12.4814453125.6279296875,4.08203125,1.0478515625,7.6923828125,3.24609375,10.8330078125,6.5947265625,2.40625,2.51171875,4.341796875,5.3916015625,5.80859375,8.634765625,1.46484375,3.2451171875,2.564453125,6.4912109375,3.296875,9.7333984375.41796875,2.095703125.6015625,4.08203125.5498046875,5.966796875-.0537109375,1.8837890625-.498046875,3.6650390625-1.3349609375,5.337890625-1.15234375,2.0947265625-2.9306640625,3.5859375-5.337890625,4.474609375-2.408203125.890625-4.7880859375,1.1767578125-7.142578125.86328125-2.35546875-.314453125-4.396484375-1.2294921875-6.123046875-2.748046875-1.7275390625-1.515625-2.5390625-3.583984375-2.43359375-6.201171875Z" fill="#fff" stroke-width="0"/>
                <path d="M337.443359375003638,254.550781249987267c6.697265625-.94140625,12.84765625-.8359375,18.4482421875.314453125,5.59765625,1.1533203125,10.3857421875,3.2451171875,14.365234375,6.2802734375,3.9765625,3.037109375,7.0107421875,6.9072265625,9.1064453125,11.6181640625,2.091796875,4.7099609375,3.0341796875,10.1015625,2.826171875,16.1708984375-.2109375,4.5009765625-1.021484375,8.8701171875-2.43359375,13.109375-1.4140625,4.23828125-3.4296875,8.0849609375-6.044921875,11.5390625-2.6171875,3.4541015625-5.78515625,6.4375-9.498046875,8.94921875-3.716796875,2.51171875-7.9296875,4.29296875-12.638671875,5.337890625-1.78125.314453125-3.5078125.5498046875-5.181640625.70703125-1.67578125.15625-3.40234375.1298828125-5.1806640625-.0791015625-4.7099609375-.3134765625-9.2119140625-1.4130859375-13.501953125-3.296875-4.29296875-1.8837890625-8.1123046875-4.3955078125-11.4609375-7.5361328125-3.3505859375-3.1396484375-6.123046875-6.8291015625-8.3212890625-11.068359375-2.197265625-4.2392578125-3.5078125-8.8701171875-3.9248046875-13.89453125-.5244140625-5.65234375-.1845703125-11.4853515625,1.0205078125-17.505859375,1.2021484375-6.017578125,2.982421875-11.904296875,5.337890625-17.662109375,2.35546875-5.7548828125,5.154296875-11.2255859375,8.3994140625-16.40625,3.2431640625-5.181640625,6.6455078125-9.70703125,10.205078125-13.5810546875,1.4638671875-1.6728515625,3.0078125-3.2177734375,4.6318359375-4.630859375,1.62109375-1.4130859375,3.26953125-2.5908203125,4.9453125-3.533203125.8359375-.5224609375,1.7783203125-.7060546875,2.826171875-.548828125,1.044921875.15625,1.935546875.603515625,2.6689453125,1.333984375,1.150390625.9423828125,2.3544921875,2.1201171875,3.6103515625,3.533203125,1.255859375,1.412109375,2.30078125,2.9580078125,3.140625,4.630859375.4169921875.7333984375.7578125,1.4912109375,1.0205078125,2.2763671875.259765625.78515625.3388671875,1.59765625.2353515625,2.43359375,0,1.78125-.7333984375,3.40234375-2.1982421875,4.8671875-4.8154296875,4.9208984375-8.9482421875,10.4677734375-12.4033203125,16.6416015625ZM348.433593750003638,276.844726562487267c-3.3505859375-.8359375-6.3583984375-.8359375-9.02734375,0-2.6689453125.83984375-4.8671875,2.1201171875-6.59375,3.8466796875-1.7265625,1.7275390625-2.958984375,3.794921875-3.689453125,6.2021484375-.7333984375,2.408203125-.83984375,4.736328125-.314453125,6.986328125.5234375,2.251953125,1.751953125,4.29296875,3.689453125,6.123046875,1.935546875,1.83203125,4.6318359375,3.115234375,8.0859375,3.8466796875,2.091796875.3134765625,4.1328125.2353515625,6.123046875-.236328125,1.986328125-.470703125,3.767578125-1.4912109375,5.337890625-3.0615234375,1.7783203125-1.7783203125,2.982421875-3.8974609375,3.611328125-6.3583984375.626953125-2.4580078125.78515625-4.8662109375.470703125-7.2216796875s-1.1259765625-4.474609375-2.43359375-6.3583984375c-1.310546875-1.8837890625-3.0615234375-3.1396484375-5.259765625-3.7685546875Z" fill="#fff" stroke-width="0"/>
              </g>
            </g>
          </a>
        </g>
      </a>
      <g>
        <path d="M486.516601562503638,459.374999999987267c1.2958984375-.1826171875,2.486328125-.162109375,3.5703125.060546875,1.083984375.2236328125,2.0107421875.62890625,2.78125,1.2158203125.76953125.587890625,1.3564453125,1.337890625,1.7626953125,2.2490234375.4052734375.912109375.5869140625,1.955078125.546875,3.1298828125-.041015625.8720703125-.197265625,1.7177734375-.470703125,2.5380859375-.2744140625.8203125-.6640625,1.5654296875-1.1708984375,2.2333984375-.505859375.6689453125-1.119140625,1.24609375-1.837890625,1.732421875-.7197265625.486328125-1.53515625.8310546875-2.447265625,1.033203125-.3447265625.060546875-.6787109375.1064453125-1.001953125.13671875-.3251953125.0302734375-.6591796875.025390625-1.0029296875-.0146484375-.912109375-.0615234375-1.783203125-.2734375-2.6142578125-.638671875-.8310546875-.3642578125-1.5703125-.8505859375-2.21875-1.458984375-.6484375-.607421875-1.1845703125-1.3212890625-1.6103515625-2.142578125-.42578125-.8203125-.6787109375-1.716796875-.759765625-2.689453125-.1015625-1.09375-.03515625-2.22265625.197265625-3.388671875.2333984375-1.1640625.578125-2.3037109375,1.033203125-3.4189453125.4560546875-1.11328125.998046875-2.1728515625,1.6259765625-3.17578125s1.287109375-1.87890625,1.9755859375-2.6279296875c.283203125-.32421875.58203125-.623046875.896484375-.896484375.314453125-.2744140625.6328125-.501953125.9580078125-.6845703125.1611328125-.1005859375.34375-.13671875.546875-.1064453125.2021484375.0302734375.3740234375.1171875.5166015625.2587890625.22265625.1826171875.4560546875.41015625.6982421875.68359375.2431640625.2734375.4462890625.5732421875.6083984375.896484375.0810546875.142578125.146484375.2890625.197265625.4404296875.05078125.15234375.0654296875.3095703125.0458984375.4716796875,0,.3447265625-.142578125.658203125-.42578125.94140625-.931640625.953125-1.732421875,2.0263671875-2.400390625,3.2216796875ZM488.643554687503638,463.690429687487267c-.6484375-.162109375-1.23046875-.162109375-1.7470703125,0-.5166015625.1630859375-.9423828125.41015625-1.2763671875.7451171875-.3349609375.333984375-.5732421875.734375-.71484375,1.2001953125s-.162109375.9169921875-.060546875,1.3525390625.3388671875.8310546875.7138671875,1.1845703125c.375.35546875.896484375.603515625,1.5654296875.7451171875.4052734375.060546875.7998046875.0458984375,1.185546875-.0458984375.384765625-.0908203125.7294921875-.2880859375,1.033203125-.5927734375.34375-.34375.5771484375-.75390625.69921875-1.23046875.12109375-.4755859375.1513671875-.9423828125.0908203125-1.3984375-.060546875-.455078125-.2177734375-.865234375-.470703125-1.23046875-.25390625-.3642578125-.5927734375-.607421875-1.0185546875-.7294921875Z" fill="none" stroke="#181818" stroke-width="5.631003379821777"/>
        <path d="M486.516601562503638,459.374999999987267c1.2958984375-.1826171875,2.486328125-.162109375,3.5703125.060546875,1.083984375.2236328125,2.0107421875.62890625,2.78125,1.2158203125.76953125.587890625,1.3564453125,1.337890625,1.7626953125,2.2490234375.4052734375.912109375.5869140625,1.955078125.546875,3.1298828125-.041015625.8720703125-.197265625,1.7177734375-.470703125,2.5380859375-.2744140625.8203125-.6640625,1.5654296875-1.1708984375,2.2333984375-.505859375.6689453125-1.119140625,1.24609375-1.837890625,1.732421875-.7197265625.486328125-1.53515625.8310546875-2.447265625,1.033203125-.3447265625.060546875-.6787109375.1064453125-1.001953125.13671875-.3251953125.0302734375-.6591796875.025390625-1.0029296875-.0146484375-.912109375-.0615234375-1.783203125-.2734375-2.6142578125-.638671875-.8310546875-.3642578125-1.5703125-.8505859375-2.21875-1.458984375-.6484375-.607421875-1.1845703125-1.3212890625-1.6103515625-2.142578125-.42578125-.8203125-.6787109375-1.716796875-.759765625-2.689453125-.1015625-1.09375-.03515625-2.22265625.197265625-3.388671875.2333984375-1.1640625.578125-2.3037109375,1.033203125-3.4189453125.4560546875-1.11328125.998046875-2.1728515625,1.6259765625-3.17578125s1.287109375-1.87890625,1.9755859375-2.6279296875c.283203125-.32421875.58203125-.623046875.896484375-.896484375.314453125-.2744140625.6328125-.501953125.9580078125-.6845703125.1611328125-.1005859375.34375-.13671875.546875-.1064453125.2021484375.0302734375.3740234375.1171875.5166015625.2587890625.22265625.1826171875.4560546875.41015625.6982421875.68359375.2431640625.2734375.4462890625.5732421875.6083984375.896484375.0810546875.142578125.146484375.2890625.197265625.4404296875.05078125.15234375.0654296875.3095703125.0458984375.4716796875,0,.3447265625-.142578125.658203125-.42578125.94140625-.931640625.953125-1.732421875,2.0263671875-2.400390625,3.2216796875ZM488.643554687503638,463.690429687487267c-.6484375-.162109375-1.23046875-.162109375-1.7470703125,0-.5166015625.1630859375-.9423828125.41015625-1.2763671875.7451171875-.3349609375.333984375-.5732421875.734375-.71484375,1.2001953125s-.162109375.9169921875-.060546875,1.3525390625.3388671875.8310546875.7138671875,1.1845703125c.375.35546875.896484375.603515625,1.5654296875.7451171875.4052734375.060546875.7998046875.0458984375,1.185546875-.0458984375.384765625-.0908203125.7294921875-.2880859375,1.033203125-.5927734375.34375-.34375.5771484375-.75390625.69921875-1.23046875.12109375-.4755859375.1513671875-.9423828125.0908203125-1.3984375-.060546875-.455078125-.2177734375-.865234375-.470703125-1.23046875-.25390625-.3642578125-.5927734375-.607421875-1.0185546875-.7294921875Z" fill="#231f20" stroke-width="0"/>
        <path d="M486.516601562503638,459.374999999987267c1.2958984375-.1826171875,2.486328125-.162109375,3.5703125.060546875,1.083984375.2236328125,2.0107421875.62890625,2.78125,1.2158203125.76953125.587890625,1.3564453125,1.337890625,1.7626953125,2.2490234375.4052734375.912109375.5869140625,1.955078125.546875,3.1298828125-.041015625.8720703125-.197265625,1.7177734375-.470703125,2.5380859375-.2744140625.8203125-.6640625,1.5654296875-1.1708984375,2.2333984375-.505859375.6689453125-1.119140625,1.24609375-1.837890625,1.732421875-.7197265625.486328125-1.53515625.8310546875-2.447265625,1.033203125-.3447265625.060546875-.6787109375.1064453125-1.001953125.13671875-.3251953125.0302734375-.6591796875.025390625-1.0029296875-.0146484375-.912109375-.0615234375-1.783203125-.2734375-2.6142578125-.638671875-.8310546875-.3642578125-1.5703125-.8505859375-2.21875-1.458984375-.6484375-.607421875-1.1845703125-1.3212890625-1.6103515625-2.142578125-.42578125-.8203125-.6787109375-1.716796875-.759765625-2.689453125-.1015625-1.09375-.03515625-2.22265625.197265625-3.388671875.2333984375-1.1640625.578125-2.3037109375,1.033203125-3.4189453125.4560546875-1.11328125.998046875-2.1728515625,1.6259765625-3.17578125s1.287109375-1.87890625,1.9755859375-2.6279296875c.283203125-.32421875.58203125-.623046875.896484375-.896484375.314453125-.2744140625.6328125-.501953125.9580078125-.6845703125.1611328125-.1005859375.34375-.13671875.546875-.1064453125.2021484375.0302734375.3740234375.1171875.5166015625.2587890625.22265625.1826171875.4560546875.41015625.6982421875.68359375.2431640625.2734375.4462890625.5732421875.6083984375.896484375.0810546875.142578125.146484375.2890625.197265625.4404296875.05078125.15234375.0654296875.3095703125.0458984375.4716796875,0,.3447265625-.142578125.658203125-.42578125.94140625-.931640625.953125-1.732421875,2.0263671875-2.400390625,3.2216796875ZM488.643554687503638,463.690429687487267c-.6484375-.162109375-1.23046875-.162109375-1.7470703125,0-.5166015625.1630859375-.9423828125.41015625-1.2763671875.7451171875-.3349609375.333984375-.5732421875.734375-.71484375,1.2001953125s-.162109375.9169921875-.060546875,1.3525390625.3388671875.8310546875.7138671875,1.1845703125c.375.35546875.896484375.603515625,1.5654296875.7451171875.4052734375.060546875.7998046875.0458984375,1.185546875-.0458984375.384765625-.0908203125.7294921875-.2880859375,1.033203125-.5927734375.34375-.34375.5771484375-.75390625.69921875-1.23046875.12109375-.4755859375.1513671875-.9423828125.0908203125-1.3984375-.060546875-.455078125-.2177734375-.865234375-.470703125-1.23046875-.25390625-.3642578125-.5927734375-.607421875-1.0185546875-.7294921875Z" fill="#e2dddb" stroke-width="0"/>
      </g>
    </g>
  </g>
</svg>