<?xml version="1.0" encoding="UTF-8"?>
<svg id="Layer_1" data-name="Layer 1" xmlns="http://www.w3.org/2000/svg" width="600" height="600" xmlns:xlink="http://www.w3.org/1999/xlink" viewBox="0 0 600 600">
  <defs>
    <linearGradient id="C4-3" data-name="C4" x1="225.636186566403012" y1="434.787604039484904" x2="385.087290741834749" y2="247.962919748120868" gradientUnits="userSpaceOnUse">
      <stop offset="0" stop-color="#7e9e4c"/>
      <stop offset=".487868088942308" stop-color="#91a23d"/>
      <stop offset=".713373248351595" stop-color="#9d9c43"/>
      <stop offset="1" stop-color="#b4924e"/>
    </linearGradient>
  </defs>
  <g id="pie_with_links_-5" data-name="pie (with links)">
    <g id="pie_with_links_-6" data-name="pie (with links)">
      <g id="Pie">
        <g>
          <a xlink:href="https://www.notion.so/dmmnotes/complaining-acceptance-8b40401a720c493ba73f7cde1567cf3d?pvs=4">
            <path id="B5" d="M444.066162109382276,133.743164062489086l35.972900390628638-41.518554687489086c-19.687744140621362-17.07470703125-41.81396484375-31.388671875-65.803955078139552-42.36181640625l-22.832519531239086,49.99951171875c19.204345703117724,8.773681640621362,36.910156249989086,20.22216796875,52.66357421875,33.880859374989086Z" fill="none" stroke="#181818" stroke-linecap="round" stroke-linejoin="round" stroke-width="15"/>
          </a>
          <a xlink:href="https://www.notion.so/dmmnotes/sentimental-bc554363322342b1b7ca4ccc02125049?pvs=4">
            <path id="B4" d="M391.402587890632276,99.8623046875l22.832519531239086-49.99951171875c-23.45556640623181-10.7314453125-48.662109375-18.275146484389552-75.101318359371362-22.042968749989086l-7.825683593739086,54.433349609360448c21.159423828121362,3.0078125,41.327880859371362,9.034179687489086,60.094482421871362,17.609130859378638Z" fill="none" stroke="#181818" stroke-linecap="round" stroke-linejoin="round" stroke-width="15"/>
          </a>
          <a xlink:href="https://www.notion.so/dmmnotes/comfortably-balanced-e76dc615a8b947aa915377cd02fcf716?pvs=4">
            <path id="B3" d="M300,80c10.634765625,0,21.078857421871362.797607421871362,31.308105468760914,2.253173828121362l7.825683593739086-54.433349609360448c-12.788574218739086-1.823486328139552-25.843017578128638-2.819824218760914-39.1337890625-2.819824218760914-13.290771484367724,0-26.34521484375.996337890621362-39.133789062489086,2.819824218760914l7.825683593739086,54.433349609360448c10.23193359375-1.45556640625,20.67333984375-2.253173828121362,31.30810546875-2.253173828121362Z" fill="none" stroke="#181818" stroke-linecap="round" stroke-linejoin="round" stroke-width="15"/>
          </a>
          <a xlink:href="https://www.notion.so/dmmnotes/accepting-317d81273fff4cd9817cdf4a88efd378?pvs=4">
            <path id="B2" d="M268.69189453125,82.253173828121362l-7.825683593739086-54.433349609360448c-26.439208984389552,3.767822265599534-51.643066406260914,11.311523437489086-75.098632812510914,22.042968749989086l22.83251953125,49.99951171875c18.7666015625-8.574951171889552,38.93505859375-14.601318359378638,60.091796875-17.609130859378638Z" fill="none" stroke="#181818" stroke-linecap="round" stroke-linejoin="round" stroke-width="15"/>
          </a>
          <a xlink:href="https://www.notion.so/dmmnotes/distanced-from-past-2eabab7e9c77429f8e577f4e3e203653?pvs=4">
            <path id="B1" d="M208.60009765625,99.8623046875l-22.83251953125-49.99951171875c-23.99267578125,10.97314453125-46.1162109375,25.287109375-65.803955078117724,42.36181640625l35.972900390617724,41.515869140621362c15.75341796875-13.658691406260914,33.4619140625-25.1044921875,52.66357421875-33.878173828121362Z" fill="none" stroke="#181818" stroke-linecap="round" stroke-linejoin="round" stroke-width="15"/>
          </a>
          <a xlink:href="https://www.notion.so/dmmnotes/idealising-a52277f51ed14a42aae78081bb34b8be?pvs=4">
            <path id="A1" d="M155.9365234375,133.740478515621362l-35.972900390617724-41.515869140621362c-19.765625,17.141845703110448-37.049804687510914,37.041748046871362-51.269775390632276,59.122314453121362l46.226318359371362,29.70751953125c11.373291015639552-17.673583984371362,25.201171875010914-33.598876953132276,41.016357421878638-47.31396484375Z" fill="none" stroke="#181818" stroke-linecap="round" stroke-linejoin="round" stroke-width="15"/>
          </a>
          <a xlink:href="https://www.notion.so/dmmnotes/distancing-9ac690cdca654729a17a5a255944e2d1?pvs=4">
            <path id="A2" d="M114.920166015621362,181.054443359371362l-46.226318359371362-29.70751953125c-14.04541015625,21.81201171875-25.08837890625,45.721435546867724-32.551513671878638,71.177734374989086l52.754882812510914,15.490234375c5.964599609367724-20.375244140621362,14.7919921875-39.509765624989086,26.022949218739086-56.960449218739086Z" fill="none" stroke="#181818" stroke-linecap="round" stroke-linejoin="round" stroke-width="15"/>
          </a>
          <a xlink:href="https://www.notion.so/dmmnotes/compulsive-caregiving-9c380c0928294f41ae10764aa0dee886?pvs=4">
            <path id="A3" d="M88.897216796882276,238.014892578110448l-52.754882812510914-15.490234375c-7.205322265621362,24.580810546878638-11.142333984371362,50.5634765625-11.142333984371362,77.475341796889552h55c0-21.535400390628638,3.14208984375-42.321533203128638,8.897216796882276-61.985107421889552Z" fill="none" stroke="#181818" stroke-linecap="round" stroke-linejoin="round" stroke-width="15"/>
          </a>
          <a xlink:href="https://www.notion.so/dmmnotes/compulsive-compliance-6d08b7ea9a424ce1a72b9184b7850414?pvs=4">
            <path id="A4" d="M80,300H25c0,26.911865234371362,3.93701171875,52.894531249989086,11.142333984371362,77.475341796871362l52.754882812510914-15.490234375c-5.755126953132276-19.66357421875-8.897216796882276-40.447021484371362-8.897216796882276-61.985107421871362Z" fill="none" stroke="#181818" stroke-linecap="round" stroke-linejoin="round" stroke-width="15"/>
          </a>
          <a xlink:href="https://www.notion.so/dmmnotes/sexual-supplementation-8e85f49046ef412aa229745abf7d38d3?pvs=4">
            <path id="A5" d="M88.897216796882276,361.985107421871362l-52.754882812510914,15.490234375c7.463134765628638,25.456298828128638,18.506103515628638,49.36572265625,32.551513671878638,71.175048828128638l46.223632812510914-29.704833984367724c-11.230957031260914-17.450683593760914-20.055664062510914-36.58251953125-26.020263671878638-56.960449218760914Z" fill="none" stroke="#181818" stroke-linecap="round" stroke-linejoin="round" stroke-width="15"/>
          </a>
          <a xlink:href="https://www.notion.so/dmmnotes/compulsive-isolated-self-reliance-b321873a73fa41aaaadd7192fde856a2?pvs=4">
            <path id="A6" d="M114.917480468760914,418.945556640632276l-46.223632812510914,29.704833984367724c14.219970703121362,22.083251953121362,31.504150390632276,41.983154296871362,51.269775390632276,59.125l35.972900390617724-41.515869140617724c-15.815185546867724-13.712402343760914-29.643066406239086-29.637695312510914-41.019042968739086-47.31396484375Z" fill="none" stroke="#181818" stroke-linecap="round" stroke-linejoin="round" stroke-width="15"/>
          </a>
          <a xlink:href="https://www.notion.so/dmmnotes/delusional-idealization-743e2420b9994a48a7cab68190432e8a?pvs=4">
            <path id="A7" d="M155.9365234375,466.259521484382276l-35.972900390617724,41.515869140617724c19.687744140617724,17.074707031239086,41.811279296867724,31.385986328132276,65.803955078117724,42.36181640625l22.83251953125-49.996826171878638c-19.20166015625-8.773681640621362-36.91015625-20.222167968739086-52.66357421875-33.880859374989086Z" fill="none" stroke="#181818" stroke-linecap="round" stroke-linejoin="round" stroke-width="15"/>
          </a>
          <a xlink:href="https://www.notion.so/dmmnotes/externally-assembled-self-994ecb0895b844409b931d74a045c162?pvs=4">
            <path id="A8" d="M208.60009765625,500.140380859371362l-22.83251953125,49.996826171878638c23.45556640625,10.7314453125,48.659423828121362,18.275146484371362,75.098632812510914,22.04296875l7.825683593739086-54.4306640625c-21.15673828125-3.0078125-41.3251953125-9.0341796875-60.091796875-17.609130859378638Z" fill="none" stroke="#181818" stroke-linecap="round" stroke-linejoin="round" stroke-width="15"/>
          </a>
          <a xlink:href="https://www.notion.so/dmmnotes/psychopathy-0fe4a3222d9f4fd097ab4546c9776768?pvs=4">
            <path id="AC" d="M300,520c-10.634765625,0-21.076171875-.794921875-31.30810546875-2.25048828125l-7.825683593739086,54.4306640625c12.788574218739086,1.823486328132276,25.843017578121362,2.81982421875,39.133789062489086,2.81982421875,13.290771484371362,0,26.345214843760914-.996337890617724,39.1337890625-2.81982421875l-7.825683593739086-54.4306640625c-10.229248046889552,1.45556640625-20.673339843760914,2.25048828125-31.308105468760914,2.25048828125Z" fill="none" stroke="#181818" stroke-linecap="round" stroke-linejoin="round" stroke-width="15"/>
          </a>
          <a xlink:href="https://www.notion.so/dmmnotes/paranoid-ae38b1e6af0c4dd08f61e0d8f6e9f05f?pvs=4">
            <g id="C8">
              <path d="M339.132812500010914,573.18017578125c-.4892578125,0-.9169921875-.359375-.9892578125-.85791015625l-7.8251953125-54.4306640625c-.037109375-.2626953125.03125-.52978515625.1904296875-.7421875s.396484375-.3525390625.6591796875-.39013671875c20.658203125-2.9365234375,40.7841796875-8.833984375,59.8193359375-17.52880859375.130859375-.06005859375.2734375-.09033203125.4150390625-.09033203125.1181640625,0,.236328125.02099609375.349609375.06298828125.248046875.0927734375.4501953125.2802734375.5595703125.521484375l22.8330078125,49.9970703125c.2294921875.50244140625.0087890625,1.09521484375-.4931640625,1.32470703125-23.974609375,10.96923828125-49.3349609375,18.41259765625-75.376953125,22.1240234375-.046875.00634765625-.0947265625.009765625-.1416015625.009765625Z" fill="none" stroke="#181818" stroke-linecap="round" stroke-linejoin="round" stroke-width="15"/>
              <path d="M391.402343750010914,500.140385985374451l22.83251953125,49.996817231178284c-23.455078125,10.7314453125-48.662109375,18.275150299072266-75.10107421875,22.042964935302734l-7.82568359375-54.430658340454102c21.1591796875-3.007816314697266,41.32763671875-9.036862373352051,60.09423828125-17.609123826026917M391.402343750010914,498.140382051467896c-.2841796875,0-.5673828125.060501396656036-.8310546875.180803954601288-18.94677734375,8.654553949832916-38.98046875,14.524984419345856-59.54443359375,17.448230803012848-.52587890625.074722290039062-1.00048828125.355430603027344-1.31884765625.780261993408203-.318359375.424814224243164-.455078125.95887565612793-.37939453125,1.484445571899414l7.82568359375,54.430658340454102c.14306640625.996696472167969.99853515625,1.715644836425781,1.97705078125,1.715644836425781.09375,0,.18896484375-.006622314453125.28466796875-.020256042480469,26.13671875-3.724754333496094,51.58935546875-11.195354461669922,75.65087890625-22.204292297363281,1.00390625-.459323883056641,1.44580078125-1.645248413085938.9873046875-2.649494171142578l-22.83251953125-49.996814399957657c-.22021484375-.482538476586342-.62353515625-.857753843069077-1.12060546875-1.043107718229294-.2255859375-.084187746047974-.46240234375-.126080870628357-.69873046875-.126080870628357h0Z" fill="none" stroke="#181818" stroke-linecap="round" stroke-linejoin="round" stroke-width="15"/>
            </g>
          </a>
          <a xlink:href="https://www.notion.so/dmmnotes/menacing-a5bd7149286344deba45ec15e759e579?pvs=4">
            <g id="C7">
              <path d="M414.235351562510914,551.13720703125c-.1181640625,0-.236328125-.02099609375-.349609375-.06298828125-.248046875-.0927734375-.4501953125-.2802734375-.5595703125-.521484375l-22.8330078125-49.9970703125c-.2294921875-.50244140625-.0087890625-1.095703125.4931640625-1.3251953125,18.9775390625-8.6728515625,36.6162109375-20.02001953125,52.4248046875-33.72607421875.1826171875-.158203125.4150390625-.24462890625.6552734375-.24462890625.0234375,0,.0478515625.0009765625.0712890625.00244140625.2646484375.01904296875.5107421875.14208984375.6845703125.3427734375l35.97265625,41.515625c.361328125.4169921875.31640625,1.04833984375-.1005859375,1.41015625-19.91796875,17.2744140625-42.1376953125,31.57861328125-66.04296875,42.515625-.1318359375.060546875-.2734375.0908203125-.416015625.0908203125Z" fill="none" stroke="#181818" stroke-linecap="round" stroke-linejoin="round" stroke-width="15"/>
              <path d="M444.065917968760914,466.259513854980469l35.97314453125,41.515883445739746c-19.6875,17.074700355529785-41.81396484375,31.385983467102051-65.80419921875,42.361817359924316l-22.83251953125-49.996833682060242c19.20458984375-8.776366829872131,36.91015625-20.222166180610657,52.66357421875-33.880867123603821M444.065917968760914,464.259502410888672c-.47998046875,0-.9453125.172588348388672-1.31005859375.488910675047919-15.73779296875,13.644866943360284-33.294921875,24.940418243409113-52.18505859375,33.572917819024042-1.00439453125.459016680717468-1.4462890625,1.645300030708313-.98779296875,2.649866700172424l22.83251953125,49.99683141708374c.220703125.482719421385809.62353515625.858036041259766,1.12109375,1.043319702148438.2255859375.084033966064453.4619140625.125862121582031.6982421875.125862121582031.28466796875,0,.568359375-.060657501220703.83203125-.181297302246094,23.9921875-10.976764678955078,46.29296875-25.332881927490234,66.28271484375-42.669599533081055.833984375-.723483085632324.92431640625-1.986116409301758.201171875-2.820632934570312l-35.97314453125-41.51588249206543c-.34765625-.400951385498047-.84033203125-.647434234619141-1.369140625-.685218811035156-.0478515625-.003391265869141-.09521484375-.005077362060547-.142578125-.005077362060547h0Z" fill="none" stroke="#181818" stroke-linecap="round" stroke-linejoin="round" stroke-width="15"/>
            </g>
          </a>
          <a xlink:href="https://www.notion.so/dmmnotes/seductively-obsessed-with-rescue-6fb5a68f6d334bc29ccccc16d8a4e56e?pvs=4">
            <g id="C6">
              <path d="M479.967773437510914,508.77294921875c-.2646484375-.01904296875-.5107421875-.14208984375-.6845703125-.3427734375l-35.97265625-41.515625c-.361328125-.4169921875-.31640625-1.04833984375.1005859375-1.41015625,15.7978515625-13.70068359375,29.53515625-29.54736328125,40.830078125-47.099609375.19140625-.29736328125.5126953125-.458984375.841796875-.458984375.185546875,0,.3720703125.05126953125.5400390625.15869140625l46.224609375,29.70458984375c.22265625.1435546875.3798828125.36962890625.4365234375.62939453125.0556640625.25927734375.0068359375.5302734375-.13671875.75341796875-14.23828125,22.1103515625-31.5498046875,42.07470703125-51.453125,59.3388671875-.1826171875.158203125-.4150390625.24462890625-.6552734375.24462890625-.0234375,0-.046875-.0009765625-.0712890625-.00244140625Z" fill="none" stroke="#181818" stroke-linecap="round" stroke-linejoin="round" stroke-width="15"/>
              <path d="M485.082519531260914,418.945556640625l46.2236328125,29.704833984375c-14.22021484375,22.083250045776367-31.50439453125,41.983149528503418-51.26708984375,59.125l-35.97314453125-41.515865325927734c15.8154296875-13.715084075928644,29.64306640625-29.640384674072266,41.0166015625-47.313968658447266M485.084472656260914,416.9453125c-.65771484375,0-1.30126953125.323883056640625-1.68359375.917930603027344-11.24560546875,17.474330902099609-24.92041015625,33.248813629150391-40.6455078125,46.885295867919922-.833984375.723468780517578-.92431640625,1.986152648925781-.201171875,2.820701599121094l35.97314453125,41.515866279602051c.34765625.401000022888184.84033203125.647500038146973,1.36962890625.685216903686523.04736328125.003385543823242.0947265625.005066871643066.14208984375.005066871643066.47998046875,0,.94580078125-.172677993774414,1.310546875-.489167213439941,19.9755859375-17.326550006866455,37.34912109375-37.363083839416504,51.63818359375-59.553034782409668.287109375-.446231842041016.38525390625-.988399505615234.27294921875-1.507064819335938-.11279296875-.518665313720703-.4267578125-.971317291259766-.87353515625-1.258266448974609l-46.2236328125-29.704833984375c-.33447265625-.214981079101562-.708984375-.317710876464844-1.0791015625-.317710876464844h0Z" fill="none" stroke="#181818" stroke-linecap="round" stroke-linejoin="round" stroke-width="15"/>
            </g>
          </a>
          <a xlink:href="https://www.notion.so/dmmnotes/punitively-obsessed-with-revenge-33d2e77f37774316b42bccf4a60f9688?pvs=4">
            <g id="C5">
              <path d="M531.305664062510914,449.650390625c-.185546875,0-.3720703125-.05126953125-.5400390625-.15869140625l-46.224609375-29.70458984375c-.22265625-.1435546875-.3798828125-.36962890625-.4365234375-.62890625-.0556640625-.25927734375-.0068359375-.5302734375.13671875-.75341796875,11.330078125-17.60498046875,20.044921875-36.681640625,25.9013671875-56.70068359375.0751953125-.2548828125.2470703125-.46923828125.48046875-.5966796875.1484375-.0810546875.3134765625-.12255859375.4794921875-.12255859375.0947265625,0,.189453125.01318359375.28125.04052734375l52.7548828125,15.490234375c.5302734375.15576171875.833984375.7109375.6787109375,1.24072265625-7.396484375,25.2275390625-18.3876953125,49.26220703125-32.669921875,71.435546875-.19140625.296875-.5126953125.45849609375-.841796875.45849609375Z" fill="none" stroke="#181818" stroke-linecap="round" stroke-linejoin="round" stroke-width="15"/>
              <path d="M511.102539062510914,361.985107421875l52.7548828125,15.490242004393622c-7.462890625,25.456291198731378-18.5029296875,49.36572265625-32.55126953125,71.175045013428644l-46.2236328125-29.704845428466797c11.23095703125-17.450675964355469,20.05810546875-36.582504272461847,26.02001953125-56.960441589355469M511.102539062510914,359.985092163085938c-.33251953125,0-.66259765625.08282470703125-.95947265625.2451171875-.4658203125.254608154296875-.81103515625.683883666992188-.9599609375,1.19329833984375-5.830078125,19.927055358886719-14.50439453125,38.916099548338934-25.7822265625,56.439659118652344-.287109375.446243286132812-.38525390625.988319396972656-.27294921875,1.506889343261719.11279296875.518585205078125.4267578125.971122741699219.87353515625,1.258018493652344l46.2236328125,29.704845428466797c.33447265625.214984893798828.708984375.317714691162109,1.0791015625.317714691162109.6572265625,0,1.30078125-.323612213134766,1.68310546875-.917194366455078,14.33447265625-22.253047943115234,25.3662109375-46.374874114990234,32.78955078125-71.695446014404297.310546875-1.05963134765625-.29638671875-2.170539855957031-1.35595703125-2.48162841796875l-52.7548828125-15.490249633789062c-.1845703125-.054214477539062-.37451171875-.081024169921875-.5634765625-.081024169921875h0Z" fill="none" stroke="#181818" stroke-linecap="round" stroke-linejoin="round" stroke-width="15"/>
            </g>
          </a>
          <a xlink:href="https://www.notion.so/dmmnotes/feigned-helpless-e79a94b0498c4e109a681b7f3dcdb088?pvs=4">
            <g id="C4">
              <path d="M563.857421875010914,378.47509765625c-.0947265625,0-.189453125-.01318359375-.2822265625-.04052734375l-52.75390625-15.490234375c-.5302734375-.1552734375-.833984375-.71044921875-.6787109375-1.240234375,5.876953125-20.08154296875,8.857421875-40.841796875,8.857421875-61.7041015625,0-.55224609375.447265625-1,1-1h55c.552734375,0,1,.44775390625,1,1,0,26.28759765625-3.7626953125,52.44873046875-11.1826171875,77.75634765625-.0751953125.2548828125-.248046875.46923828125-.48046875.59619140625-.1484375.0810546875-.3134765625.12255859375-.4794921875.12255859375Z" fill="none" stroke="#181818" stroke-linecap="round" stroke-linejoin="round" stroke-width="15"/>
              <path d="M575.000000000010914,300h.0048828125M575.000000000010914,300c0,26.911865234375-3.9345703125,52.891845703125-11.142578125,77.475341796875l-52.7548828125-15.490234375c5.75537109375-19.66357421875,8.8974609375-40.447021484375,8.8974609375-61.985107421875h55M575.004882812510914,298h-55.0048828125c-1.1044921875,0-2,.895431518554688-2,2,0,20.768966674804688-2.96630859375,41.43475341796875-8.81689453125,61.423294067382812-.31005859375,1.059463500976562.296875,2.1697998046875,1.35595703125,2.480804443359375l52.7548828125,15.490226745605469c.1845703125.054214477539062.37451171875.081016540527344.5634765625.081016540527344.33203125,0,.662109375-.082710266113281.958984375-.244827270507812.46533203125-.254356384277344.81103515625-.683311462402344.96044921875-1.192459106445312,7.4375-25.367034912110284,11.21337890625-51.588409423828125,11.22314453125-77.936935424804688.00146484375-.03350830078125.00244140625-.067214965820312.00244140625-.101119995117188,0-1.104568481445312-.89306640625-2-1.99755859375-2h0ZM575.000000000010914,302h.0048828125-.0048828125Z" fill="none" stroke="#181818" stroke-linecap="round" stroke-linejoin="round" stroke-width="15"/>
            </g>
          </a>
          <a xlink:href="https://www.notion.so/dmmnotes/aggressive-2d8ccce383534b9dbfc7b4b10b8a5d5c?pvs=4">
            <g id="C3">
              <path d="M520.000000000010914,301c-.552734375,0-1-.44775390625-1-1,0-20.8623046875-2.98046875-41.623046875-8.857421875-61.70458984375-.1552734375-.52978515625.1484375-1.0849609375.6787109375-1.240234375l52.75390625-15.490234375c.0927734375-.02734375.1875-.04052734375.2822265625-.04052734375.166015625,0,.3310546875.04150390625.4794921875.12255859375.232421875.126953125.4052734375.34130859375.48046875.59619140625,7.419921875,25.3056640625,11.1826171875,51.466796875,11.1826171875,77.7568359375,0,.55224609375-.447265625,1-1,1h-55Z" fill="none" stroke="#181818" stroke-linecap="round" stroke-linejoin="round" stroke-width="15"/>
              <path d="M563.857421875010914,222.524658203125c7.2080078125,24.580810546875,11.142578125,50.5634765625,11.142578125,77.475341796875h-55c0-21.535400390625-3.14208984375-42.321533203125-8.8974609375-61.985107421875l52.7548828125-15.490234375M563.857421875010914,220.524658203125c-.18896484375,0-.37890625.02679443359375-.5634765625.081024169921875l-52.7548828125,15.490203857421875c-1.05908203125.311004638671875-1.666015625,1.421356201171875-1.35595703125,2.480804443359375,5.8505859375,19.988555908203125,8.81689453125,40.654342651367188,8.81689453125,61.423309326171875,0,1.104568481445312.8955078125,2,2,2h55c1.1044921875,0,2-.895431518554688,2-2,0-26.385452270507812-3.77587890625-52.641265869140625-11.22314453125-78.038116455078125-.1494140625-.509124755859375-.4951171875-.93804931640625-.96044921875-1.192413330078125-.296875-.162078857421875-.626953125-.24481201171875-.958984375-.24481201171875h0Z" fill="none" stroke="#181818" stroke-linecap="round" stroke-linejoin="round" stroke-width="15"/>
            </g>
          </a>
          <a xlink:href="https://www.notion.so/dmmnotes/disarming-086276e599884c86b9359acf831a8b20?pvs=4">
            <g id="C2">
              <path d="M511.102539062510914,239.0146484375c-.166015625,0-.3310546875-.04150390625-.4794921875-.12255859375-.2333984375-.12744140625-.4052734375-.341796875-.48046875-.5966796875-5.8623046875-20.02734375-14.576171875-39.10400390625-25.9013671875-56.7001953125-.1435546875-.22314453125-.1923828125-.494140625-.13671875-.75341796875.056640625-.25927734375.2138671875-.4853515625.4365234375-.62890625l46.224609375-29.70751953125c.16796875-.107421875.3544921875-.15869140625.5400390625-.15869140625.3291015625,0,.650390625.16162109375.841796875.45849609375,14.2822265625,22.17626953125,25.2744140625,46.21142578125,32.669921875,71.43798828125.1552734375.52978515625-.1484375,1.0849609375-.6787109375,1.24072265625l-52.7548828125,15.490234375c-.091796875.02734375-.1865234375.04052734375-.28125.04052734375Z" fill="none" stroke="#181818" stroke-linecap="round" stroke-linejoin="round" stroke-width="15"/>
              <path d="M531.306152343760914,151.346923828125c14.04833984375,21.81201171875,25.08837890625,45.721435546875,32.55126953125,71.177734375l-52.7548828125,15.490234375c-5.96435546875-20.375244140625-14.7890625-39.509765625-26.02001953125-56.96044921875l46.2236328125-29.70751953125M531.304199218760914,149.3466796875c-.3701171875,0-.74462890625.10272216796875-1.07958984375.317779541015625l-46.2236328125,29.70751953125c-.4462890625.286895751953125-.76025390625.73944091796875-.873046875,1.25799560546875-.1123046875.5185546875-.01416015625,1.060638427734375.27294921875,1.506866455078125,11.27197265625,17.51458740234375,19.9462890625,36.50372314453125,25.7822265625,56.43994140625.14892578125.50933837890625.49462890625.93853759765625.96044921875,1.19305419921875.29638671875.1622314453125.626953125.24505615234375.958984375.24505615234375.18896484375,0,.37890625-.02679443359375.5634765625-.081024169921875l52.7548828125-15.490234375c1.0595703125-.311065673828125,1.66650390625-1.4219970703125,1.35595703125-2.48162841796875-7.4228515625-25.31878662109375-18.45458984375-49.44146728515625-32.7890625-71.698028564453125-.38232421875-.593597412109375-1.0263671875-.91729736328125-1.68359375-.91729736328125h0Z" fill="none" stroke="#181818" stroke-linecap="round" stroke-linejoin="round" stroke-width="15"/>
            </g>
          </a>
          <a xlink:href="https://www.notion.so/dmmnotes/threatening-348fe6a52f7a4fe69f768e98c6586932?pvs=4">
            <g id="C1">
              <path d="M485.083007812510914,182.05419921875c-.3291015625,0-.650390625-.16162109375-.841796875-.458984375-11.296875-17.5546875-25.0341796875-33.39990234375-40.830078125-47.0966796875-.4169921875-.361328125-.4619140625-.99267578125-.1005859375-1.41015625l35.97265625-41.5185546875c.173828125-.20068359375.419921875-.32373046875.6845703125-.3427734375.0234375-.00146484375.0478515625-.00244140625.0712890625-.00244140625.240234375,0,.47265625.08642578125.6552734375.24462890625,19.90234375,17.26220703125,37.212890625,37.22607421875,51.453125,59.3359375.1435546875.22314453125.1923828125.494140625.13671875.75341796875-.056640625.25927734375-.2138671875.48583984375-.4365234375.62939453125l-46.224609375,29.70751953125c-.16796875.107421875-.3544921875.15869140625-.5400390625.15869140625Z" fill="none" stroke="#181818" stroke-linecap="round" stroke-linejoin="round" stroke-width="15"/>
              <path d="M480.039062500010914,92.224609375c19.7626953125,17.141845703125,37.046875,37.041748046875,51.26708984375,59.122314453125l-46.2236328125,29.70751953125c-11.37353515625-17.673583984375-25.201171875-33.598876953125-41.0166015625-47.311279296875l35.97314453125-41.5185546875M480.039062500010914,90.224609375c-.04736328125,0-.0947265625.001678466796875-.14208984375.00506591796875-.529296875.0377197265625-1.02197265625.28424072265625-1.36962890625.685272216796875l-35.97314453125,41.5185546875c-.72314453125.8345947265625-.6328125,2.09735107421875.20166015625,2.820770263671875,15.72314453125,13.632598876953125,29.3984375,29.406158447265625,40.64501953125,46.882476806640625.3818359375.593963623046875,1.02587890625.917938232421875,1.68359375.917938232421875.3701171875,0,.74462890625-.102691650390625,1.07958984375-.3177490234375l46.2236328125-29.70751953125c.4462890625-.286956787109375.76025390625-.739654541015625.873046875-1.258331298828125.1123046875-.5186767578125.01416015625-1.060821533203125-.27294921875-1.507049560546875-14.29052734375-22.18927001953125-31.6640625-42.224853515625-51.63818359375-59.550262451171875-.36474609375-.31646728515625-.83056640625-.489166259765625-1.310546875-.489166259765625h0Z" fill="none" stroke="#181818" stroke-linecap="round" stroke-linejoin="round" stroke-width="15"/>
            </g>
          </a>
        </g>
        <g>
          <a xlink:href="https://www.notion.so/dmmnotes/complaining-acceptance-8b40401a720c493ba73f7cde1567cf3d?pvs=4">
            <path id="B5-2" data-name="B5" d="M444.066162109382276,133.743164062489086l35.972900390628638-41.518554687489086c-19.687744140621362-17.07470703125-41.81396484375-31.388671875-65.803955078139552-42.36181640625l-22.832519531239086,49.99951171875c19.204345703117724,8.773681640621362,36.910156249989086,20.22216796875,52.66357421875,33.880859374989086Z" fill="#8f807d" stroke="#181818" stroke-linecap="round" stroke-linejoin="round" stroke-width="2"/>
          </a>
          <a xlink:href="https://www.notion.so/dmmnotes/sentimental-bc554363322342b1b7ca4ccc02125049?pvs=4">
            <path id="B4-2" data-name="B4" d="M391.402587890632276,99.8623046875l22.832519531239086-49.99951171875c-23.45556640623181-10.7314453125-48.662109375-18.275146484389552-75.101318359371362-22.042968749989086l-7.825683593739086,54.433349609360448c21.159423828121362,3.0078125,41.327880859371362,9.034179687489086,60.094482421871362,17.609130859378638Z" fill="#8f807d" stroke="#181818" stroke-linecap="round" stroke-linejoin="round" stroke-width="2"/>
          </a>
          <a xlink:href="https://www.notion.so/dmmnotes/comfortably-balanced-e76dc615a8b947aa915377cd02fcf716?pvs=4">
            <path id="B3-2" data-name="B3" d="M300,80c10.634765625,0,21.078857421871362.797607421871362,31.308105468760914,2.253173828121362l7.825683593739086-54.433349609360448c-12.788574218739086-1.823486328139552-25.843017578128638-2.819824218760914-39.1337890625-2.819824218760914-13.290771484367724,0-26.34521484375.996337890621362-39.133789062489086,2.819824218760914l7.825683593739086,54.433349609360448c10.23193359375-1.45556640625,20.67333984375-2.253173828121362,31.30810546875-2.253173828121362Z" fill="#8f807d" stroke="#181818" stroke-linecap="round" stroke-linejoin="round" stroke-width="2"/>
          </a>
          <a xlink:href="https://www.notion.so/dmmnotes/accepting-317d81273fff4cd9817cdf4a88efd378?pvs=4">
            <path id="B2-2" data-name="B2" d="M268.69189453125,82.253173828121362l-7.825683593739086-54.433349609360448c-26.439208984389552,3.767822265599534-51.643066406260914,11.311523437489086-75.098632812510914,22.042968749989086l22.83251953125,49.99951171875c18.7666015625-8.574951171889552,38.93505859375-14.601318359378638,60.091796875-17.609130859378638Z" fill="#8f807d" stroke="#181818" stroke-linecap="round" stroke-linejoin="round" stroke-width="2"/>
          </a>
          <a xlink:href="https://www.notion.so/dmmnotes/distanced-from-past-2eabab7e9c77429f8e577f4e3e203653?pvs=4">
            <path id="B1-2" data-name="B1" d="M208.60009765625,99.8623046875l-22.83251953125-49.99951171875c-23.99267578125,10.97314453125-46.1162109375,25.287109375-65.803955078117724,42.36181640625l35.972900390617724,41.515869140621362c15.75341796875-13.658691406260914,33.4619140625-25.1044921875,52.66357421875-33.878173828121362Z" fill="#8f807d" stroke="#181818" stroke-linecap="round" stroke-linejoin="round" stroke-width="2"/>
          </a>
          <a xlink:href="https://www.notion.so/dmmnotes/idealising-a52277f51ed14a42aae78081bb34b8be?pvs=4">
            <path id="A1-2" data-name="A1" d="M155.9365234375,133.740478515621362l-35.972900390617724-41.515869140621362c-19.765625,17.141845703110448-37.049804687510914,37.041748046871362-51.269775390632276,59.122314453121362l46.226318359371362,29.70751953125c11.373291015639552-17.673583984371362,25.201171875010914-33.598876953132276,41.016357421878638-47.31396484375Z" fill="#8f807d" stroke="#181818" stroke-linecap="round" stroke-linejoin="round" stroke-width="2"/>
          </a>
          <a xlink:href="https://www.notion.so/dmmnotes/distancing-9ac690cdca654729a17a5a255944e2d1?pvs=4">
            <path id="A2-2" data-name="A2" d="M114.920166015621362,181.054443359371362l-46.226318359371362-29.70751953125c-14.04541015625,21.81201171875-25.08837890625,45.721435546867724-32.551513671878638,71.177734374989086l52.754882812510914,15.490234375c5.964599609367724-20.375244140621362,14.7919921875-39.509765624989086,26.022949218739086-56.960449218739086Z" fill="#8f807d" stroke="#181818" stroke-linecap="round" stroke-linejoin="round" stroke-width="2"/>
          </a>
          <a xlink:href="https://www.notion.so/dmmnotes/compulsive-caregiving-9c380c0928294f41ae10764aa0dee886?pvs=4">
            <path id="A3-2" data-name="A3" d="M88.897216796882276,238.014892578110448l-52.754882812510914-15.490234375c-7.205322265621362,24.580810546878638-11.142333984371362,50.5634765625-11.142333984371362,77.475341796889552h55c0-21.535400390628638,3.14208984375-42.321533203128638,8.897216796882276-61.985107421889552Z" fill="#8f807d" stroke="#181818" stroke-linecap="round" stroke-linejoin="round" stroke-width="2"/>
          </a>
          <a xlink:href="https://www.notion.so/dmmnotes/compulsive-compliance-6d08b7ea9a424ce1a72b9184b7850414?pvs=4">
            <path id="A4-2" data-name="A4" d="M80,300H25c0,26.911865234371362,3.93701171875,52.894531249989086,11.142333984371362,77.475341796871362l52.754882812510914-15.490234375c-5.755126953132276-19.66357421875-8.897216796882276-40.447021484371362-8.897216796882276-61.985107421871362Z" fill="#8f807d" stroke="#181818" stroke-linecap="round" stroke-linejoin="round" stroke-width="2"/>
          </a>
          <a xlink:href="https://www.notion.so/dmmnotes/sexual-supplementation-8e85f49046ef412aa229745abf7d38d3?pvs=4">
            <path id="A5-2" data-name="A5" d="M88.897216796882276,361.985107421871362l-52.754882812510914,15.490234375c7.463134765628638,25.456298828128638,18.506103515628638,49.36572265625,32.551513671878638,71.175048828128638l46.223632812510914-29.704833984367724c-11.230957031260914-17.450683593760914-20.055664062510914-36.58251953125-26.020263671878638-56.960449218760914Z" fill="#8f807d" stroke="#181818" stroke-linecap="round" stroke-linejoin="round" stroke-width="2"/>
          </a>
          <a xlink:href="https://www.notion.so/dmmnotes/compulsive-isolated-self-reliance-b321873a73fa41aaaadd7192fde856a2?pvs=4">
            <path id="A6-2" data-name="A6" d="M114.917480468760914,418.945556640632276l-46.223632812510914,29.704833984367724c14.219970703121362,22.083251953121362,31.504150390632276,41.983154296871362,51.269775390632276,59.125l35.972900390617724-41.515869140617724c-15.815185546867724-13.712402343760914-29.643066406239086-29.637695312510914-41.019042968739086-47.31396484375Z" fill="#8f807d" stroke="#181818" stroke-linecap="round" stroke-linejoin="round" stroke-width="2"/>
          </a>
          <a xlink:href="https://www.notion.so/dmmnotes/delusional-idealization-743e2420b9994a48a7cab68190432e8a?pvs=4">
            <path id="A7-2" data-name="A7" d="M155.9365234375,466.259521484382276l-35.972900390617724,41.515869140617724c19.687744140617724,17.074707031239086,41.811279296867724,31.385986328132276,65.803955078117724,42.36181640625l22.83251953125-49.996826171878638c-19.20166015625-8.773681640621362-36.91015625-20.222167968739086-52.66357421875-33.880859374989086Z" fill="#8f807d" stroke="#181818" stroke-linecap="round" stroke-linejoin="round" stroke-width="2"/>
          </a>
          <a xlink:href="https://www.notion.so/dmmnotes/externally-assembled-self-994ecb0895b844409b931d74a045c162?pvs=4">
            <path id="A8-2" data-name="A8" d="M208.60009765625,500.140380859371362l-22.83251953125,49.996826171878638c23.45556640625,10.7314453125,48.659423828121362,18.275146484371362,75.098632812510914,22.04296875l7.825683593739086-54.4306640625c-21.15673828125-3.0078125-41.3251953125-9.0341796875-60.091796875-17.609130859378638Z" fill="#8f807d" stroke="#181818" stroke-linecap="round" stroke-linejoin="round" stroke-width="2"/>
          </a>
          <a xlink:href="https://www.notion.so/dmmnotes/psychopathy-0fe4a3222d9f4fd097ab4546c9776768?pvs=4">
            <path id="AC-2" data-name="AC" d="M300,520c-10.634765625,0-21.076171875-.794921875-31.30810546875-2.25048828125l-7.825683593739086,54.4306640625c12.788574218739086,1.823486328132276,25.843017578121362,2.81982421875,39.133789062489086,2.81982421875,13.290771484371362,0,26.345214843760914-.996337890617724,39.1337890625-2.81982421875l-7.825683593739086-54.4306640625c-10.229248046889552,1.45556640625-20.673339843760914,2.25048828125-31.308105468760914,2.25048828125Z" fill="#8f807d" stroke="#181818" stroke-linecap="round" stroke-linejoin="round" stroke-width="2"/>
          </a>
          <a xlink:href="https://www.notion.so/dmmnotes/paranoid-ae38b1e6af0c4dd08f61e0d8f6e9f05f?pvs=4">
            <g id="C8-2" data-name="C8">
              <path d="M339.132812500010914,573.18017578125c-.4892578125,0-.9169921875-.359375-.9892578125-.85791015625l-7.8251953125-54.4306640625c-.037109375-.2626953125.03125-.52978515625.1904296875-.7421875s.396484375-.3525390625.6591796875-.39013671875c20.658203125-2.9365234375,40.7841796875-8.833984375,59.8193359375-17.52880859375.130859375-.06005859375.2734375-.09033203125.4150390625-.09033203125.1181640625,0,.236328125.02099609375.349609375.06298828125.248046875.0927734375.4501953125.2802734375.5595703125.521484375l22.8330078125,49.9970703125c.2294921875.50244140625.0087890625,1.09521484375-.4931640625,1.32470703125-23.974609375,10.96923828125-49.3349609375,18.41259765625-75.376953125,22.1240234375-.046875.00634765625-.0947265625.009765625-.1416015625.009765625Z" fill="#cd7969" stroke-width="0"/>
              <path d="M391.402343750010914,500.140385985374451l22.83251953125,49.996817231178284c-23.455078125,10.7314453125-48.662109375,18.275150299072266-75.10107421875,22.042964935302734l-7.82568359375-54.430658340454102c21.1591796875-3.007816314697266,41.32763671875-9.036862373352051,60.09423828125-17.609123826026917M391.402343750010914,498.140382051467896c-.2841796875,0-.5673828125.060501396656036-.8310546875.180803954601288-18.94677734375,8.654553949832916-38.98046875,14.524984419345856-59.54443359375,17.448230803012848-.52587890625.074722290039062-1.00048828125.355430603027344-1.31884765625.780261993408203-.318359375.424814224243164-.455078125.95887565612793-.37939453125,1.484445571899414l7.82568359375,54.430658340454102c.14306640625.996696472167969.99853515625,1.715644836425781,1.97705078125,1.715644836425781.09375,0,.18896484375-.006622314453125.28466796875-.020256042480469,26.13671875-3.724754333496094,51.58935546875-11.195354461669922,75.65087890625-22.204292297363281,1.00390625-.459323883056641,1.44580078125-1.645248413085938.9873046875-2.649494171142578l-22.83251953125-49.996814399957657c-.22021484375-.482538476586342-.62353515625-.857753843069077-1.12060546875-1.043107718229294-.2255859375-.084187746047974-.46240234375-.126080870628357-.69873046875-.126080870628357h0Z" fill="#181818" stroke-width="0"/>
            </g>
          </a>
          <a xlink:href="https://www.notion.so/dmmnotes/menacing-a5bd7149286344deba45ec15e759e579?pvs=4">
            <g id="C7-2" data-name="C7">
              <path d="M414.235351562510914,551.13720703125c-.1181640625,0-.236328125-.02099609375-.349609375-.06298828125-.248046875-.0927734375-.4501953125-.2802734375-.5595703125-.521484375l-22.8330078125-49.9970703125c-.2294921875-.50244140625-.0087890625-1.095703125.4931640625-1.3251953125,18.9775390625-8.6728515625,36.6162109375-20.02001953125,52.4248046875-33.72607421875.1826171875-.158203125.4150390625-.24462890625.6552734375-.24462890625.0234375,0,.0478515625.0009765625.0712890625.00244140625.2646484375.01904296875.5107421875.14208984375.6845703125.3427734375l35.97265625,41.515625c.361328125.4169921875.31640625,1.04833984375-.1005859375,1.41015625-19.91796875,17.2744140625-42.1376953125,31.57861328125-66.04296875,42.515625-.1318359375.060546875-.2734375.0908203125-.416015625.0908203125Z" fill="#c78361" stroke-width="0"/>
              <path d="M444.065917968760914,466.259513854980469l35.97314453125,41.515883445739746c-19.6875,17.074700355529785-41.81396484375,31.385983467102051-65.80419921875,42.361817359924316l-22.83251953125-49.996833682060242c19.20458984375-8.776366829872131,36.91015625-20.222166180610657,52.66357421875-33.880867123603821M444.065917968760914,464.259502410888672c-.47998046875,0-.9453125.172588348388672-1.31005859375.488910675047919-15.73779296875,13.644866943360284-33.294921875,24.940418243409113-52.18505859375,33.572917819024042-1.00439453125.459016680717468-1.4462890625,1.645300030708313-.98779296875,2.649866700172424l22.83251953125,49.99683141708374c.220703125.482719421385809.62353515625.858036041259766,1.12109375,1.043319702148438.2255859375.084033966064453.4619140625.125862121582031.6982421875.125862121582031.28466796875,0,.568359375-.060657501220703.83203125-.181297302246094,23.9921875-10.976764678955078,46.29296875-25.332881927490234,66.28271484375-42.669599533081055.833984375-.723483085632324.92431640625-1.986116409301758.201171875-2.820632934570312l-35.97314453125-41.51588249206543c-.34765625-.400951385498047-.84033203125-.647434234619141-1.369140625-.685218811035156-.0478515625-.003391265869141-.09521484375-.005077362060547-.142578125-.005077362060547h0Z" fill="#181818" stroke-width="0"/>
            </g>
          </a>
          <a xlink:href="https://www.notion.so/dmmnotes/seductively-obsessed-with-rescue-6fb5a68f6d334bc29ccccc16d8a4e56e?pvs=4">
            <g id="C6-2" data-name="C6">
              <path d="M479.967773437510914,508.77294921875c-.2646484375-.01904296875-.5107421875-.14208984375-.6845703125-.3427734375l-35.97265625-41.515625c-.361328125-.4169921875-.31640625-1.04833984375.1005859375-1.41015625,15.7978515625-13.70068359375,29.53515625-29.54736328125,40.830078125-47.099609375.19140625-.29736328125.5126953125-.458984375.841796875-.458984375.185546875,0,.3720703125.05126953125.5400390625.15869140625l46.224609375,29.70458984375c.22265625.1435546875.3798828125.36962890625.4365234375.62939453125.0556640625.25927734375.0068359375.5302734375-.13671875.75341796875-14.23828125,22.1103515625-31.5498046875,42.07470703125-51.453125,59.3388671875-.1826171875.158203125-.4150390625.24462890625-.6552734375.24462890625-.0234375,0-.046875-.0009765625-.0712890625-.00244140625Z" fill="#bb8a59" stroke-width="0"/>
              <path d="M485.082519531260914,418.945556640625l46.2236328125,29.704833984375c-14.22021484375,22.083250045776367-31.50439453125,41.983149528503418-51.26708984375,59.125l-35.97314453125-41.515865325927734c15.8154296875-13.715084075928644,29.64306640625-29.640384674072266,41.0166015625-47.313968658447266M485.084472656260914,416.9453125c-.65771484375,0-1.30126953125.323883056640625-1.68359375.917930603027344-11.24560546875,17.474330902099609-24.92041015625,33.248813629150391-40.6455078125,46.885295867919922-.833984375.723468780517578-.92431640625,1.986152648925781-.201171875,2.820701599121094l35.97314453125,41.515866279602051c.34765625.401000022888184.84033203125.647500038146973,1.36962890625.685216903686523.04736328125.003385543823242.0947265625.005066871643066.14208984375.005066871643066.47998046875,0,.94580078125-.172677993774414,1.310546875-.489167213439941,19.9755859375-17.326550006866455,37.34912109375-37.363083839416504,51.63818359375-59.553034782409668.287109375-.446231842041016.38525390625-.988399505615234.27294921875-1.507064819335938-.11279296875-.518665313720703-.4267578125-.971317291259766-.87353515625-1.258266448974609l-46.2236328125-29.704833984375c-.33447265625-.214981079101562-.708984375-.317710876464844-1.0791015625-.317710876464844h0Z" fill="#181818" stroke-width="0"/>
            </g>
          </a>
          <a xlink:href="https://www.notion.so/dmmnotes/punitively-obsessed-with-revenge-33d2e77f37774316b42bccf4a60f9688?pvs=4">
            <g id="C5-2" data-name="C5">
              <path d="M531.305664062510914,449.650390625c-.185546875,0-.3720703125-.05126953125-.5400390625-.15869140625l-46.224609375-29.70458984375c-.22265625-.1435546875-.3798828125-.36962890625-.4365234375-.62890625-.0556640625-.25927734375-.0068359375-.5302734375.13671875-.75341796875,11.330078125-17.60498046875,20.044921875-36.681640625,25.9013671875-56.70068359375.0751953125-.2548828125.2470703125-.46923828125.48046875-.5966796875.1484375-.0810546875.3134765625-.12255859375.4794921875-.12255859375.0947265625,0,.189453125.01318359375.28125.04052734375l52.7548828125,15.490234375c.5302734375.15576171875.833984375.7109375.6787109375,1.24072265625-7.396484375,25.2275390625-18.3876953125,49.26220703125-32.669921875,71.435546875-.19140625.296875-.5126953125.45849609375-.841796875.45849609375Z" fill="#ac9156" stroke-width="0"/>
              <path d="M511.102539062510914,361.985107421875l52.7548828125,15.490242004393622c-7.462890625,25.456291198731378-18.5029296875,49.36572265625-32.55126953125,71.175045013428644l-46.2236328125-29.704845428466797c11.23095703125-17.450675964355469,20.05810546875-36.582504272461847,26.02001953125-56.960441589355469M511.102539062510914,359.985092163085938c-.33251953125,0-.66259765625.08282470703125-.95947265625.2451171875-.4658203125.254608154296875-.81103515625.683883666992188-.9599609375,1.19329833984375-5.830078125,19.927055358886719-14.50439453125,38.916099548338934-25.7822265625,56.439659118652344-.287109375.446243286132812-.38525390625.988319396972656-.27294921875,1.506889343261719.11279296875.518585205078125.4267578125.971122741699219.87353515625,1.258018493652344l46.2236328125,29.704845428466797c.33447265625.214984893798828.708984375.317714691162109,1.0791015625.317714691162109.6572265625,0,1.30078125-.323612213134766,1.68310546875-.917194366455078,14.33447265625-22.253047943115234,25.3662109375-46.374874114990234,32.78955078125-71.695446014404297.310546875-1.05963134765625-.29638671875-2.170539855957031-1.35595703125-2.48162841796875l-52.7548828125-15.490249633789062c-.1845703125-.054214477539062-.37451171875-.081024169921875-.5634765625-.081024169921875h0Z" fill="#181818" stroke-width="0"/>
            </g>
          </a>
          <a xlink:href="https://www.notion.so/dmmnotes/feigned-helpless-e79a94b0498c4e109a681b7f3dcdb088?pvs=4">
            <g id="C4-2" data-name="C4">
              <path d="M563.857421875010914,378.47509765625c-.0947265625,0-.189453125-.01318359375-.2822265625-.04052734375l-52.75390625-15.490234375c-.5302734375-.1552734375-.833984375-.71044921875-.6787109375-1.240234375,5.876953125-20.08154296875,8.857421875-40.841796875,8.857421875-61.7041015625,0-.55224609375.447265625-1,1-1h55c.552734375,0,1,.44775390625,1,1,0,26.28759765625-3.7626953125,52.44873046875-11.1826171875,77.75634765625-.0751953125.2548828125-.248046875.46923828125-.48046875.59619140625-.1484375.0810546875-.3134765625.12255859375-.4794921875.12255859375Z" fill="#999555" stroke-width="0"/>
              <path d="M575.000000000010914,300h.0048828125M575.000000000010914,300c0,26.911865234375-3.9345703125,52.891845703125-11.142578125,77.475341796875l-52.7548828125-15.490234375c5.75537109375-19.66357421875,8.8974609375-40.447021484375,8.8974609375-61.985107421875h55M575.004882812510914,298h-55.0048828125c-1.1044921875,0-2,.895431518554688-2,2,0,20.768966674804688-2.96630859375,41.43475341796875-8.81689453125,61.423294067382812-.31005859375,1.059463500976562.296875,2.1697998046875,1.35595703125,2.480804443359375l52.7548828125,15.490226745605469c.1845703125.054214477539062.37451171875.081016540527344.5634765625.081016540527344.33203125,0,.662109375-.082710266113281.958984375-.244827270507812.46533203125-.254356384277344.81103515625-.683311462402344.96044921875-1.192459106445312,7.4375-25.367034912110284,11.21337890625-51.588409423828125,11.22314453125-77.936935424804688.00146484375-.03350830078125.00244140625-.067214965820312.00244140625-.101119995117188,0-1.104568481445312-.89306640625-2-1.99755859375-2h0ZM575.000000000010914,302h.0048828125-.0048828125Z" fill="#181818" stroke-width="0"/>
            </g>
          </a>
          <a xlink:href="https://www.notion.so/dmmnotes/aggressive-2d8ccce383534b9dbfc7b4b10b8a5d5c?pvs=4">
            <g id="C3-2" data-name="C3">
              <path d="M520.000000000010914,301c-.552734375,0-1-.44775390625-1-1,0-20.8623046875-2.98046875-41.623046875-8.857421875-61.70458984375-.1552734375-.52978515625.1484375-1.0849609375.6787109375-1.240234375l52.75390625-15.490234375c.0927734375-.02734375.1875-.04052734375.2822265625-.04052734375.166015625,0,.3310546875.04150390625.4794921875.12255859375.232421875.126953125.4052734375.34130859375.48046875.59619140625,7.419921875,25.3056640625,11.1826171875,51.466796875,11.1826171875,77.7568359375,0,.55224609375-.447265625,1-1,1h-55Z" fill="#859658" stroke-width="0"/>
              <path d="M563.857421875010914,222.524658203125c7.2080078125,24.580810546875,11.142578125,50.5634765625,11.142578125,77.475341796875h-55c0-21.535400390625-3.14208984375-42.321533203125-8.8974609375-61.985107421875l52.7548828125-15.490234375M563.857421875010914,220.524658203125c-.18896484375,0-.37890625.02679443359375-.5634765625.081024169921875l-52.7548828125,15.490203857421875c-1.05908203125.311004638671875-1.666015625,1.421356201171875-1.35595703125,2.480804443359375,5.8505859375,19.988555908203125,8.81689453125,40.654342651367188,8.81689453125,61.423309326171875,0,1.104568481445312.8955078125,2,2,2h55c1.1044921875,0,2-.895431518554688,2-2,0-26.385452270507812-3.77587890625-52.641265869140625-11.22314453125-78.038116455078125-.1494140625-.509124755859375-.4951171875-.93804931640625-.96044921875-1.192413330078125-.296875-.162078857421875-.626953125-.24481201171875-.958984375-.24481201171875h0Z" fill="#181818" stroke-width="0"/>
            </g>
          </a>
          <a xlink:href="https://www.notion.so/dmmnotes/disarming-086276e599884c86b9359acf831a8b20?pvs=4">
            <g id="C2-2" data-name="C2">
              <path d="M511.102539062510914,239.0146484375c-.166015625,0-.3310546875-.04150390625-.4794921875-.12255859375-.2333984375-.12744140625-.4052734375-.341796875-.48046875-.5966796875-5.8623046875-20.02734375-14.576171875-39.10400390625-25.9013671875-56.7001953125-.1435546875-.22314453125-.1923828125-.494140625-.13671875-.75341796875.056640625-.25927734375.2138671875-.4853515625.4365234375-.62890625l46.224609375-29.70751953125c.16796875-.107421875.3544921875-.15869140625.5400390625-.15869140625.3291015625,0,.650390625.16162109375.841796875.45849609375,14.2822265625,22.17626953125,25.2744140625,46.21142578125,32.669921875,71.43798828125.1552734375.52978515625-.1484375,1.0849609375-.6787109375,1.24072265625l-52.7548828125,15.490234375c-.091796875.02734375-.1865234375.04052734375-.28125.04052734375Z" fill="#6e975f" stroke-width="0"/>
              <path d="M531.306152343760914,151.346923828125c14.04833984375,21.81201171875,25.08837890625,45.721435546875,32.55126953125,71.177734375l-52.7548828125,15.490234375c-5.96435546875-20.375244140625-14.7890625-39.509765625-26.02001953125-56.96044921875l46.2236328125-29.70751953125M531.304199218760914,149.3466796875c-.3701171875,0-.74462890625.10272216796875-1.07958984375.317779541015625l-46.2236328125,29.70751953125c-.4462890625.286895751953125-.76025390625.73944091796875-.873046875,1.25799560546875-.1123046875.5185546875-.01416015625,1.060638427734375.27294921875,1.506866455078125,11.27197265625,17.51458740234375,19.9462890625,36.50372314453125,25.7822265625,56.43994140625.14892578125.50933837890625.49462890625.93853759765625.96044921875,1.19305419921875.29638671875.1622314453125.626953125.24505615234375.958984375.24505615234375.18896484375,0,.37890625-.02679443359375.5634765625-.081024169921875l52.7548828125-15.490234375c1.0595703125-.311065673828125,1.66650390625-1.4219970703125,1.35595703125-2.48162841796875-7.4228515625-25.31878662109375-18.45458984375-49.44146728515625-32.7890625-71.698028564453125-.38232421875-.593597412109375-1.0263671875-.91729736328125-1.68359375-.91729736328125h0Z" fill="#181818" stroke-width="0"/>
            </g>
          </a>
          <a xlink:href="https://www.notion.so/dmmnotes/threatening-348fe6a52f7a4fe69f768e98c6586932?pvs=4">
            <g id="C1-2" data-name="C1">
              <path d="M485.083007812510914,182.05419921875c-.3291015625,0-.650390625-.16162109375-.841796875-.458984375-11.296875-17.5546875-25.0341796875-33.39990234375-40.830078125-47.0966796875-.4169921875-.361328125-.4619140625-.99267578125-.1005859375-1.41015625l35.97265625-41.5185546875c.173828125-.20068359375.419921875-.32373046875.6845703125-.3427734375.0234375-.00146484375.0478515625-.00244140625.0712890625-.00244140625.240234375,0,.47265625.08642578125.6552734375.24462890625,19.90234375,17.26220703125,37.212890625,37.22607421875,51.453125,59.3359375.1435546875.22314453125.1923828125.494140625.13671875.75341796875-.056640625.25927734375-.2138671875.48583984375-.4365234375.62939453125l-46.224609375,29.70751953125c-.16796875.107421875-.3544921875.15869140625-.5400390625.15869140625Z" fill="#589569" stroke-width="0"/>
              <path d="M480.039062500010914,92.224609375c19.7626953125,17.141845703125,37.046875,37.041748046875,51.26708984375,59.122314453125l-46.2236328125,29.70751953125c-11.37353515625-17.673583984375-25.201171875-33.598876953125-41.0166015625-47.311279296875l35.97314453125-41.5185546875M480.039062500010914,90.224609375c-.04736328125,0-.0947265625.001678466796875-.14208984375.00506591796875-.529296875.0377197265625-1.02197265625.28424072265625-1.36962890625.685272216796875l-35.97314453125,41.5185546875c-.72314453125.8345947265625-.6328125,2.09735107421875.20166015625,2.820770263671875,15.72314453125,13.632598876953125,29.3984375,29.406158447265625,40.64501953125,46.882476806640625.3818359375.593963623046875,1.02587890625.917938232421875,1.68359375.917938232421875.3701171875,0,.74462890625-.102691650390625,1.07958984375-.3177490234375l46.2236328125-29.70751953125c.4462890625-.286956787109375.76025390625-.739654541015625.873046875-1.258331298828125.1123046875-.5186767578125.01416015625-1.060821533203125-.27294921875-1.507049560546875-14.29052734375-22.18927001953125-31.6640625-42.224853515625-51.63818359375-59.550262451171875-.36474609375-.31646728515625-.83056640625-.489166259765625-1.310546875-.489166259765625h0Z" fill="#181818" stroke-width="0"/>
            </g>
          </a>
        </g>
      </g>
      <a xlink:href="https://www.notion.so/dmmnotes/Type-C-162696deae144fea8a7d2776d67b5fc9?pvs=4">
        <g id="C">
          <a xlink:href="https://www.notion.so/dmmnotes/Type-C-162696deae144fea8a7d2776d67b5fc9?pvs=4">
            <g id="C-2" data-name="C">
              <path d="M300.000000000010914,414.7060546875c-36.970703125,0-67.048828125-30.07763671875-67.048828125-67.04833984375s30.078125-67.048828125,67.048828125-67.048828125,67.048828125,30.07763671875,67.048828125,67.04833984375-30.078125,67.048828125-67.048828125,67.048828125Z" fill="url(#C4-3)" stroke-width="0"/>
              <path d="M300.000000000010914,289.108810424804688c32.3330078125,0,58.548828125,26.21502685546875,58.548828125,58.548660278320312,0,32.335563659667969-26.21337890625,58.548728942871094-58.548828125,58.548782348632812-.001953125,0,.001953125,0,0,0-32.3330078125,0-58.548828125-26.215080261230469-58.548828125-58.548660278321222,0-32.335556030272528,26.21337890625-58.548721313475653,58.548828125-58.548782348631903.001953125,0-.001953125,0,0,0M300.000000000010914,272.108810424804688h0c-41.65771484375.00006103515625-75.548828125,33.89111328125-75.548828125,75.548782348631903,0,41.657661437989191,33.89111328125,75.548660278321222,75.548828125,75.548660278321222,41.65771484375-.000053405761719,75.548828125-33.89111328125,75.548828125-75.548782348632812,0-41.65765380859375-33.89111328125-75.548660278320312-75.548828125-75.548660278320312h0Z" fill="#181818" stroke-width="0"/>
            </g>
          </a>
          <a xlink:href="https://www.notion.so/dmmnotes/Type-C-162696deae144fea8a7d2776d67b5fc9?pvs=4">
            <g>
              <path d="M314.916015624998181,243.2470703125c.10302734375-3.0341796875-.39208984375-5.310546875-1.4912109375-6.8291015625-1.09912109375-1.5166015625-2.48779296875-2.4580078125-4.16064453125-2.826171875-1.67529296875-.365234375-3.48095703125-.181640625-5.41650390625.5498046875-1.93798828125.7333984375-3.689453125,1.7802734375-5.25927734375,3.1396484375-3.6650390625,3.1396484375-6.62109375,7.1435546875-8.87060546875,12.0107421875-2.251953125,4.8662109375-3.76806640625,9.96875-4.55322265625,15.3076171875-.78466796875,5.337890625-.8388671875,10.6513671875-.15673828125,15.935546875.67919921875,5.2861328125,2.1708984375,9.8662109375,4.474609375,13.7373046875,1.46435546875,2.51171875,3.21826171875,4.37109375,5.25927734375,5.5732421875,2.041015625,1.2041015625,4.2119140625,1.8837890625,6.515625,2.041015625,2.30078125.1572265625,4.57763671875-.208984375,6.82958984375-1.0986328125,2.24951171875-.888671875,4.26318359375-2.22265625,6.04443359375-4.00390625,2.72021484375-2.720703125,4.91845703125-4.65625,6.59375-5.80859375,1.67333984375-1.1513671875,3.55712890625-1.779296875,5.65234375-1.884765625,5.9658203125,0,9.91552734375,1.67578125,11.853515625,5.0244140625,1.93505859375,3.3505859375,2.0654296875,7.4326171875.39208984375,12.24609375-1.361328125,3.767578125-3.42919921875,7.064453125-6.201171875,9.890625-2.7744140625,2.826171875-5.9931640625,5.1025390625-9.65576171875,6.830078125-3.6650390625,1.7265625-7.58984375,2.9306640625-11.77490234375,3.6103515625-4.1875.6796875-8.32080078125.8642578125-12.40283203125.5498046875s-7.95556640625-1.177734375-11.6181640625-2.5908203125c-3.6650390625-1.4130859375-6.80517578125-3.3212890625-9.419921875-5.73046875-2.931640625-2.720703125-5.4951171875-5.8330078125-7.69287109375-9.3408203125-2.1982421875-3.505859375-4.03076171875-7.22265625-5.4951171875-11.1474609375-1.46728515625-3.9248046875-2.56591796875-8.0068359375-3.296875-12.24609375-.73388671875-4.2392578125-1.09912109375-8.501953125-1.09912109375-12.794921875.20849609375-9.62890625,2.24951171875-18.943359375,6.123046875-27.9462890625,3.87109375-9.0009765625,9.00048828125-16.8505859375,15.3857421875-23.5498046875,2.92919921875-3.03515625,6.41015625-5.625,10.4404296875-7.771484375,4.0283203125-2.14453125,8.1640625-3.533203125,12.4033203125-4.1611328125,4.23876953125-.6279296875,8.3994140625-.4169921875,12.4814453125.6279296875,4.08203125,1.0478515625,7.69287109375,3.24609375,10.8330078125,6.5947265625,2.40625,2.51171875,4.341796875,5.3916015625,5.80908203125,8.634765625,1.46435546875,3.2451171875,2.5634765625,6.4912109375,3.296875,9.7333984375.4169921875,2.095703125.60107421875,4.08203125.54931640625,5.966796875-.0537109375,1.8837890625-.498046875,3.6650390625-1.33447265625,5.337890625-1.15283203125,2.0947265625-2.93115234375,3.5859375-5.337890625,4.474609375-2.4091796875.890625-4.78857421875,1.1767578125-7.1435546875.86328125-2.35498046875-.314453125-4.39599609375-1.2294921875-6.123046875-2.748046875-1.72705078125-1.515625-2.5390625-3.583984375-2.43359375-6.201171875Z" fill="none" stroke="#181818" stroke-linecap="round" stroke-linejoin="round" stroke-width="33"/>
              <path d="M314.916015624998181,243.2470703125c.10302734375-3.0341796875-.39208984375-5.310546875-1.4912109375-6.8291015625-1.09912109375-1.5166015625-2.48779296875-2.4580078125-4.16064453125-2.826171875-1.67529296875-.365234375-3.48095703125-.181640625-5.41650390625.5498046875-1.93798828125.7333984375-3.689453125,1.7802734375-5.25927734375,3.1396484375-3.6650390625,3.1396484375-6.62109375,7.1435546875-8.87060546875,12.0107421875-2.251953125,4.8662109375-3.76806640625,9.96875-4.55322265625,15.3076171875-.78466796875,5.337890625-.8388671875,10.6513671875-.15673828125,15.935546875.67919921875,5.2861328125,2.1708984375,9.8662109375,4.474609375,13.7373046875,1.46435546875,2.51171875,3.21826171875,4.37109375,5.25927734375,5.5732421875,2.041015625,1.2041015625,4.2119140625,1.8837890625,6.515625,2.041015625,2.30078125.1572265625,4.57763671875-.208984375,6.82958984375-1.0986328125,2.24951171875-.888671875,4.26318359375-2.22265625,6.04443359375-4.00390625,2.72021484375-2.720703125,4.91845703125-4.65625,6.59375-5.80859375,1.67333984375-1.1513671875,3.55712890625-1.779296875,5.65234375-1.884765625,5.9658203125,0,9.91552734375,1.67578125,11.853515625,5.0244140625,1.93505859375,3.3505859375,2.0654296875,7.4326171875.39208984375,12.24609375-1.361328125,3.767578125-3.42919921875,7.064453125-6.201171875,9.890625-2.7744140625,2.826171875-5.9931640625,5.1025390625-9.65576171875,6.830078125-3.6650390625,1.7265625-7.58984375,2.9306640625-11.77490234375,3.6103515625-4.1875.6796875-8.32080078125.8642578125-12.40283203125.5498046875s-7.95556640625-1.177734375-11.6181640625-2.5908203125c-3.6650390625-1.4130859375-6.80517578125-3.3212890625-9.419921875-5.73046875-2.931640625-2.720703125-5.4951171875-5.8330078125-7.69287109375-9.3408203125-2.1982421875-3.505859375-4.03076171875-7.22265625-5.4951171875-11.1474609375-1.46728515625-3.9248046875-2.56591796875-8.0068359375-3.296875-12.24609375-.73388671875-4.2392578125-1.09912109375-8.501953125-1.09912109375-12.794921875.20849609375-9.62890625,2.24951171875-18.943359375,6.123046875-27.9462890625,3.87109375-9.0009765625,9.00048828125-16.8505859375,15.3857421875-23.5498046875,2.92919921875-3.03515625,6.41015625-5.625,10.4404296875-7.771484375,4.0283203125-2.14453125,8.1640625-3.533203125,12.4033203125-4.1611328125,4.23876953125-.6279296875,8.3994140625-.4169921875,12.4814453125.6279296875,4.08203125,1.0478515625,7.69287109375,3.24609375,10.8330078125,6.5947265625,2.40625,2.51171875,4.341796875,5.3916015625,5.80908203125,8.634765625,1.46435546875,3.2451171875,2.5634765625,6.4912109375,3.296875,9.7333984375.4169921875,2.095703125.60107421875,4.08203125.54931640625,5.966796875-.0537109375,1.8837890625-.498046875,3.6650390625-1.33447265625,5.337890625-1.15283203125,2.0947265625-2.93115234375,3.5859375-5.337890625,4.474609375-2.4091796875.890625-4.78857421875,1.1767578125-7.1435546875.86328125-2.35498046875-.314453125-4.39599609375-1.2294921875-6.123046875-2.748046875-1.72705078125-1.515625-2.5390625-3.583984375-2.43359375-6.201171875Z" fill="#fff" stroke-width="0"/>
            </g>
          </a>
        </g>
      </a>
      <g>
        <path d="M489.504882812498181,131.53271484375c-.486328125,6.1591796875-.69921875,12.3486328125-.638671875,18.568359375-.0205078125.22314453125-.0810546875.42578125-.181640625.60791015625-.1015625.16259765625-.25390625.31884765625-.4560546875.47119140625-.203125.15185546875-.4765625.24755859375-.8203125.28857421875-.365234375.04052734375-.7353515625.0654296875-1.109375.076171875-.375.009765625-.724609375-.02587890625-1.048828125-.1064453125-.32421875-.08154296875-.6025390625-.22265625-.8359375-.42578125-.232421875-.2021484375-.3798828125-.5166015625-.4404296875-.94189453125-.041015625-.22265625-.06640625-.658203125-.076171875-1.306640625s.0048828125-1.4287109375.0458984375-2.34033203125c.0400390625-.931640625.0908203125-1.94970703125.15234375-3.05419921875.060546875-1.10400390625.12109375-2.21337890625.181640625-3.32763671875.0205078125-.04052734375.0302734375-.10107421875.0302734375-.1826171875-.12109375-.02001953125-.2685546875-.060546875-.4404296875-.12158203125-.171875-.060546875-.400390625-.18212890625-.68359375-.36474609375-.3037109375-.2021484375-.61328125-.41015625-.9267578125-.62255859375-.314453125-.212890625-.59765625-.4306640625-.8515625-.65380859375-.2529296875-.22265625-.4501953125-.43505859375-.591796875-.63818359375-.142578125-.2021484375-.1826171875-.39501953125-.1220703125-.5771484375.060546875-.1826171875.333984375-.58740234375.8203125-1.2158203125.22265625-.283203125.4658203125-.60791015625.7294921875-.97265625.263671875-.3642578125.537109375-.7392578125.8203125-1.1240234375.2841796875-.36474609375.5419921875-.71923828125.775390625-1.06396484375.232421875-.34423828125.4501953125-.658203125.6533203125-.94189453125.22265625-.32421875.435546875-.63818359375.638671875-.9423828125.080078125-.16162109375.349609375-.25830078125.8046875-.28857421875.4560546875-.0302734375.9423828125,0,1.458984375.09130859375.5166015625.0908203125.9873046875.23291015625,1.4130859375.42529296875.42578125.19287109375.658203125.4208984375.69921875.68408203125Z" fill="none" stroke="#181818" stroke-width="5.631003379821777"/>
        <path d="M489.504882812498181,131.53271484375c-.486328125,6.1591796875-.69921875,12.3486328125-.638671875,18.568359375-.0205078125.22314453125-.0810546875.42578125-.181640625.60791015625-.1015625.16259765625-.25390625.31884765625-.4560546875.47119140625-.203125.15185546875-.4765625.24755859375-.8203125.28857421875-.365234375.04052734375-.7353515625.0654296875-1.109375.076171875-.375.009765625-.724609375-.02587890625-1.048828125-.1064453125-.32421875-.08154296875-.6025390625-.22265625-.8359375-.42578125-.232421875-.2021484375-.3798828125-.5166015625-.4404296875-.94189453125-.041015625-.22265625-.06640625-.658203125-.076171875-1.306640625s.0048828125-1.4287109375.0458984375-2.34033203125c.0400390625-.931640625.0908203125-1.94970703125.15234375-3.05419921875.060546875-1.10400390625.12109375-2.21337890625.181640625-3.32763671875.0205078125-.04052734375.0302734375-.10107421875.0302734375-.1826171875-.12109375-.02001953125-.2685546875-.060546875-.4404296875-.12158203125-.171875-.060546875-.400390625-.18212890625-.68359375-.36474609375-.3037109375-.2021484375-.61328125-.41015625-.9267578125-.62255859375-.314453125-.212890625-.59765625-.4306640625-.8515625-.65380859375-.2529296875-.22265625-.4501953125-.43505859375-.591796875-.63818359375-.142578125-.2021484375-.1826171875-.39501953125-.1220703125-.5771484375.060546875-.1826171875.333984375-.58740234375.8203125-1.2158203125.22265625-.283203125.4658203125-.60791015625.7294921875-.97265625.263671875-.3642578125.537109375-.7392578125.8203125-1.1240234375.2841796875-.36474609375.5419921875-.71923828125.775390625-1.06396484375.232421875-.34423828125.4501953125-.658203125.6533203125-.94189453125.22265625-.32421875.435546875-.63818359375.638671875-.9423828125.080078125-.16162109375.349609375-.25830078125.8046875-.28857421875.4560546875-.0302734375.9423828125,0,1.458984375.09130859375.5166015625.0908203125.9873046875.23291015625,1.4130859375.42529296875.42578125.19287109375.658203125.4208984375.69921875.68408203125Z" fill="#231f20" stroke-width="0"/>
        <path d="M489.504882812498181,131.53271484375c-.486328125,6.1591796875-.69921875,12.3486328125-.638671875,18.568359375-.0205078125.22314453125-.0810546875.42578125-.181640625.60791015625-.1015625.16259765625-.25390625.31884765625-.4560546875.47119140625-.203125.15185546875-.4765625.24755859375-.8203125.28857421875-.365234375.04052734375-.7353515625.0654296875-1.109375.076171875-.375.009765625-.724609375-.02587890625-1.048828125-.1064453125-.32421875-.08154296875-.6025390625-.22265625-.8359375-.42578125-.232421875-.2021484375-.3798828125-.5166015625-.4404296875-.94189453125-.041015625-.22265625-.06640625-.658203125-.076171875-1.306640625s.0048828125-1.4287109375.0458984375-2.34033203125c.0400390625-.931640625.0908203125-1.94970703125.15234375-3.05419921875.060546875-1.10400390625.12109375-2.21337890625.181640625-3.32763671875.0205078125-.04052734375.0302734375-.10107421875.0302734375-.1826171875-.12109375-.02001953125-.2685546875-.060546875-.4404296875-.12158203125-.171875-.060546875-.400390625-.18212890625-.68359375-.36474609375-.3037109375-.2021484375-.61328125-.41015625-.9267578125-.62255859375-.314453125-.212890625-.59765625-.4306640625-.8515625-.65380859375-.2529296875-.22265625-.4501953125-.43505859375-.591796875-.63818359375-.142578125-.2021484375-.1826171875-.39501953125-.1220703125-.5771484375.060546875-.1826171875.333984375-.58740234375.8203125-1.2158203125.22265625-.283203125.4658203125-.60791015625.7294921875-.97265625.263671875-.3642578125.537109375-.7392578125.8203125-1.1240234375.2841796875-.36474609375.5419921875-.71923828125.775390625-1.06396484375.232421875-.34423828125.4501953125-.658203125.6533203125-.94189453125.22265625-.32421875.435546875-.63818359375.638671875-.9423828125.080078125-.16162109375.349609375-.25830078125.8046875-.28857421875.4560546875-.0302734375.9423828125,0,1.458984375.09130859375.5166015625.0908203125.9873046875.23291015625,1.4130859375.42529296875.42578125.19287109375.658203125.4208984375.69921875.68408203125Z" fill="#e2dddb" stroke-width="0"/>
      </g>
      <g>
        <path d="M371.384765624998181,536.5888671875c.9111328125.6689453125,1.5595703125,1.43359375,1.9443359375,2.29443359375.384765625.86181640625.5517578125,1.73779296875.501953125,2.62890625-.05078125.89208984375-.2939453125,1.7626953125-.7294921875,2.61376953125s-1.0078125,1.6005859375-1.716796875,2.2490234375c-.7099609375.6484375-1.53515625,1.15966796875-2.4775390625,1.53466796875-.94140625.37451171875-1.939453125.53173828125-2.9931640625.470703125-.689453125-.04052734375-1.4033203125-.18212890625-2.142578125-.42529296875s-1.423828125-.58203125-2.0517578125-1.01806640625c-.6279296875-.435546875-1.1650390625-.96728515625-1.6103515625-1.595703125-.4453125-.62744140625-.7294921875-1.3369140625-.8505859375-2.126953125-.1220703125-1.1552734375.060546875-2.19287109375.546875-3.115234375.486328125-.921875,1.154296875-1.75732421875,2.005859375-2.50732421875-1.09375-.9521484375-1.7734375-2.015625-2.0361328125-3.19091796875-.263671875-1.1748046875-.193359375-2.29931640625.212890625-3.37353515625.2626953125-.708984375.626953125-1.30126953125,1.09375-1.77783203125.4658203125-.4755859375.9873046875-.8662109375,1.5654296875-1.169921875.5771484375-.3037109375,1.205078125-.53173828125,1.8837890625-.68359375.6787109375-.15234375,1.3623046875-.248046875,2.0517578125-.2890625.7900390625-.0400390625,1.5751953125.06103515625,2.3544921875.30419921875.7802734375.2431640625,1.484375.587890625,2.1123046875,1.033203125.6279296875.44580078125,1.150390625.9775390625,1.5654296875,1.595703125s.673828125,1.28125.775390625,1.990234375c.1005859375.70947265625.00390625,1.4541015625-.2890625,2.23388671875-.2939453125.7802734375-.8466796875,1.544921875-1.65625,2.29443359375-.0205078125,0-.0302734375.00537109375-.0302734375.01513671875,0,.0107421875-.0107421875.01513671875-.0302734375.01513671875ZM364.121093749998181,541.99853515625c-.162109375.486328125-.1826171875.90673828125-.060546875,1.26123046875.12109375.3544921875.3232421875.63330078125.607421875.8359375.283203125.20263671875.6279296875.32421875,1.033203125.3642578125.4052734375.041015625.80078125-.009765625,1.185546875-.15185546875.5263671875-.18212890625.9267578125-.48095703125,1.2001953125-.896484375.2734375-.4150390625.419921875-.85546875.4404296875-1.32177734375.0205078125-.4658203125-.0908203125-.92724609375-.333984375-1.3828125-.2431640625-.4560546875-.6279296875-.8154296875-1.1552734375-1.0791015625-.283203125.0205078125-.572265625.0966796875-.865234375.22802734375-.2939453125.1318359375-.5732421875.3037109375-.8359375.5166015625-.263671875.212890625-.501953125.4609375-.71484375.74462890625-.2119140625.2841796875-.3798828125.57763671875-.5009765625.88134765625ZM366.400390624998181,530.7236328125c-.486328125,0-.921875.16259765625-1.306640625.486328125-.3857421875.32421875-.6533203125.70947265625-.8056640625,1.15478515625-.1513671875.44580078125-.1474609375.90673828125.015625,1.3828125.1611328125.47607421875.5361328125.87646484375,1.1240234375,1.2001953125.263671875-.1416015625.5419921875-.283203125.8359375-.42529296875.29296875-.1416015625.5517578125-.32373046875.7744140625-.546875.5478515625-.50634765625.8916015625-.96728515625,1.0341796875-1.3828125.140625-.4150390625.146484375-.77001953125.0146484375-1.06396484375-.1318359375-.29345703125-.3544921875-.51123046875-.6689453125-.6533203125-.3134765625-.1416015625-.6533203125-.1923828125-1.017578125-.15185546875Z" fill="none" stroke="#181818" stroke-width="5.631003379821777"/>
        <path d="M371.384765624998181,536.5888671875c.9111328125.6689453125,1.5595703125,1.43359375,1.9443359375,2.29443359375.384765625.86181640625.5517578125,1.73779296875.501953125,2.62890625-.05078125.89208984375-.2939453125,1.7626953125-.7294921875,2.61376953125s-1.0078125,1.6005859375-1.716796875,2.2490234375c-.7099609375.6484375-1.53515625,1.15966796875-2.4775390625,1.53466796875-.94140625.37451171875-1.939453125.53173828125-2.9931640625.470703125-.689453125-.04052734375-1.4033203125-.18212890625-2.142578125-.42529296875s-1.423828125-.58203125-2.0517578125-1.01806640625c-.6279296875-.435546875-1.1650390625-.96728515625-1.6103515625-1.595703125-.4453125-.62744140625-.7294921875-1.3369140625-.8505859375-2.126953125-.1220703125-1.1552734375.060546875-2.19287109375.546875-3.115234375.486328125-.921875,1.154296875-1.75732421875,2.005859375-2.50732421875-1.09375-.9521484375-1.7734375-2.015625-2.0361328125-3.19091796875-.263671875-1.1748046875-.193359375-2.29931640625.212890625-3.37353515625.2626953125-.708984375.626953125-1.30126953125,1.09375-1.77783203125.4658203125-.4755859375.9873046875-.8662109375,1.5654296875-1.169921875.5771484375-.3037109375,1.205078125-.53173828125,1.8837890625-.68359375.6787109375-.15234375,1.3623046875-.248046875,2.0517578125-.2890625.7900390625-.0400390625,1.5751953125.06103515625,2.3544921875.30419921875.7802734375.2431640625,1.484375.587890625,2.1123046875,1.033203125.6279296875.44580078125,1.150390625.9775390625,1.5654296875,1.595703125s.673828125,1.28125.775390625,1.990234375c.1005859375.70947265625.00390625,1.4541015625-.2890625,2.23388671875-.2939453125.7802734375-.8466796875,1.544921875-1.65625,2.29443359375-.0205078125,0-.0302734375.00537109375-.0302734375.01513671875,0,.0107421875-.0107421875.01513671875-.0302734375.01513671875ZM364.121093749998181,541.99853515625c-.162109375.486328125-.1826171875.90673828125-.060546875,1.26123046875.12109375.3544921875.3232421875.63330078125.607421875.8359375.283203125.20263671875.6279296875.32421875,1.033203125.3642578125.4052734375.041015625.80078125-.009765625,1.185546875-.15185546875.5263671875-.18212890625.9267578125-.48095703125,1.2001953125-.896484375.2734375-.4150390625.419921875-.85546875.4404296875-1.32177734375.0205078125-.4658203125-.0908203125-.92724609375-.333984375-1.3828125-.2431640625-.4560546875-.6279296875-.8154296875-1.1552734375-1.0791015625-.283203125.0205078125-.572265625.0966796875-.865234375.22802734375-.2939453125.1318359375-.5732421875.3037109375-.8359375.5166015625-.263671875.212890625-.501953125.4609375-.71484375.74462890625-.2119140625.2841796875-.3798828125.57763671875-.5009765625.88134765625ZM366.400390624998181,530.7236328125c-.486328125,0-.921875.16259765625-1.306640625.486328125-.3857421875.32421875-.6533203125.70947265625-.8056640625,1.15478515625-.1513671875.44580078125-.1474609375.90673828125.015625,1.3828125.1611328125.47607421875.5361328125.87646484375,1.1240234375,1.2001953125.263671875-.1416015625.5419921875-.283203125.8359375-.42529296875.29296875-.1416015625.5517578125-.32373046875.7744140625-.546875.5478515625-.50634765625.8916015625-.96728515625,1.0341796875-1.3828125.140625-.4150390625.146484375-.77001953125.0146484375-1.06396484375-.1318359375-.29345703125-.3544921875-.51123046875-.6689453125-.6533203125-.3134765625-.1416015625-.6533203125-.1923828125-1.017578125-.15185546875Z" fill="#231f20" stroke-width="0"/>
        <path d="M371.384765624998181,536.5888671875c.9111328125.6689453125,1.5595703125,1.43359375,1.9443359375,2.29443359375.384765625.86181640625.5517578125,1.73779296875.501953125,2.62890625-.05078125.89208984375-.2939453125,1.7626953125-.7294921875,2.61376953125s-1.0078125,1.6005859375-1.716796875,2.2490234375c-.7099609375.6484375-1.53515625,1.15966796875-2.4775390625,1.53466796875-.94140625.37451171875-1.939453125.53173828125-2.9931640625.470703125-.689453125-.04052734375-1.4033203125-.18212890625-2.142578125-.42529296875s-1.423828125-.58203125-2.0517578125-1.01806640625c-.6279296875-.435546875-1.1650390625-.96728515625-1.6103515625-1.595703125-.4453125-.62744140625-.7294921875-1.3369140625-.8505859375-2.126953125-.1220703125-1.1552734375.060546875-2.19287109375.546875-3.115234375.486328125-.921875,1.154296875-1.75732421875,2.005859375-2.50732421875-1.09375-.9521484375-1.7734375-2.015625-2.0361328125-3.19091796875-.263671875-1.1748046875-.193359375-2.29931640625.212890625-3.37353515625.2626953125-.708984375.626953125-1.30126953125,1.09375-1.77783203125.4658203125-.4755859375.9873046875-.8662109375,1.5654296875-1.169921875.5771484375-.3037109375,1.205078125-.53173828125,1.8837890625-.68359375.6787109375-.15234375,1.3623046875-.248046875,2.0517578125-.2890625.7900390625-.0400390625,1.5751953125.06103515625,2.3544921875.30419921875.7802734375.2431640625,1.484375.587890625,2.1123046875,1.033203125.6279296875.44580078125,1.150390625.9775390625,1.5654296875,1.595703125s.673828125,1.28125.775390625,1.990234375c.1005859375.70947265625.00390625,1.4541015625-.2890625,2.23388671875-.2939453125.7802734375-.8466796875,1.544921875-1.65625,2.29443359375-.0205078125,0-.0302734375.00537109375-.0302734375.01513671875,0,.0107421875-.0107421875.01513671875-.0302734375.01513671875ZM364.121093749998181,541.99853515625c-.162109375.486328125-.1826171875.90673828125-.060546875,1.26123046875.12109375.3544921875.3232421875.63330078125.607421875.8359375.283203125.20263671875.6279296875.32421875,1.033203125.3642578125.4052734375.041015625.80078125-.009765625,1.185546875-.15185546875.5263671875-.18212890625.9267578125-.48095703125,1.2001953125-.896484375.2734375-.4150390625.419921875-.85546875.4404296875-1.32177734375.0205078125-.4658203125-.0908203125-.92724609375-.333984375-1.3828125-.2431640625-.4560546875-.6279296875-.8154296875-1.1552734375-1.0791015625-.283203125.0205078125-.572265625.0966796875-.865234375.22802734375-.2939453125.1318359375-.5732421875.3037109375-.8359375.5166015625-.263671875.212890625-.501953125.4609375-.71484375.74462890625-.2119140625.2841796875-.3798828125.57763671875-.5009765625.88134765625ZM366.400390624998181,530.7236328125c-.486328125,0-.921875.16259765625-1.306640625.486328125-.3857421875.32421875-.6533203125.70947265625-.8056640625,1.15478515625-.1513671875.44580078125-.1474609375.90673828125.015625,1.3828125.1611328125.47607421875.5361328125.87646484375,1.1240234375,1.2001953125.263671875-.1416015625.5419921875-.283203125.8359375-.42529296875.29296875-.1416015625.5517578125-.32373046875.7744140625-.546875.5478515625-.50634765625.8916015625-.96728515625,1.0341796875-1.3828125.140625-.4150390625.146484375-.77001953125.0146484375-1.06396484375-.1318359375-.29345703125-.3544921875-.51123046875-.6689453125-.6533203125-.3134765625-.1416015625-.6533203125-.1923828125-1.017578125-.15185546875Z" fill="#e2dddb" stroke-width="0"/>
      </g>
    </g>
  </g>
</svg>