<?xml version="1.0" encoding="UTF-8"?>
<svg id="Layer_1" data-name="Layer 1" xmlns="http://www.w3.org/2000/svg" width="600" height="600" xmlns:xlink="http://www.w3.org/1999/xlink" viewBox="0 0 600 600">
  <defs>
    <linearGradient id="linear-gradient" x1="225.636186566403921" y1="434.787604039487633" x2="385.087290741836455" y2="247.96291974812263" gradientUnits="userSpaceOnUse">
      <stop offset="0" stop-color="#7e9e4c"/>
      <stop offset=".487868088942308" stop-color="#b4924e"/>
      <stop offset=".736550595908419" stop-color="#c08a54"/>
      <stop offset="1" stop-color="#d3805f"/>
    </linearGradient>
  </defs>
  <g id="pie_with_links_-5" data-name="pie (with links)">
    <g id="pie_with_links_-6" data-name="pie (with links)">
      <g id="Pie">
        <g>
          <a xlink:href="https://www.notion.so/dmmnotes/disarming-086276e599884c86b9359acf831a8b20?pvs=4">
            <path id="C2" d="M511.102783203132276,238.014892578110448l52.7548828125-15.490234375c-7.463134765621362-25.456298828121362-18.503417968742724-49.365722656239086-32.551513671871362-71.177734374989086l-46.223632812510914,29.70751953125c11.230957031260914,17.45068359375,20.055664062510914,36.585205078117724,26.020263671882276,56.960449218739086Z" fill="none" stroke="#181818" stroke-linecap="round" stroke-linejoin="round" stroke-width="15"/>
          </a>
          <a xlink:href="https://www.notion.so/dmmnotes/threatening-348fe6a52f7a4fe69f768e98c6586932?pvs=4">
            <path id="C1" d="M485.08251953125,181.054443359371362l46.223632812510914-29.70751953125c-3.273382764718917-5.082861773656987-6.709138808490025-10.050169557313893-10.300126729000112-14.894880224832377-18.774697955217562-25.32951418288576-56.293794500255899-26.537787842678881-76.939827532478375-2.708921059354907l-.00003597290015.000041518555008c15.815185546878638,13.71240234375,29.64306640625,29.637695312510914,41.016357421867724,47.311279296882276Z" fill="none" stroke="#181818" stroke-linecap="round" stroke-linejoin="round" stroke-width="15"/>
          </a>
          <a xlink:href="https://www.notion.so/dmmnotes/complaining-acceptance-8b40401a720c493ba73f7cde1567cf3d?pvs=4">
            <path id="B5" d="M444.066162109382276,133.743164062489086l.02758147988061-.031833496002037c20.640755630132844-23.822775814992383,14.113865767878451-60.780908008569895-13.620243983010369-75.76038052397962-5.309700301706471-2.867822708169115-10.724823288150219-5.566222392240888-16.238392184381155-8.088157073757429l-22.832519531239086,49.99951171875c19.204345703117724,8.773681640621362,36.910156249989086,20.22216796875,52.66357421875,33.880859374989086Z" fill="none" stroke="#181818" stroke-linecap="round" stroke-linejoin="round" stroke-width="15"/>
          </a>
          <a xlink:href="https://www.notion.so/dmmnotes/sentimental-bc554363322342b1b7ca4ccc02125049?pvs=4">
            <path id="B4" d="M391.402587890632276,99.8623046875l22.832519531239086-49.99951171875c-23.45556640623181-10.7314453125-48.662109375-18.275146484389552-75.101318359371362-22.042968749989086l-7.825683593739086,54.433349609360448c21.159423828121362,3.0078125,41.327880859371362,9.034179687489086,60.094482421871362,17.609130859378638Z" fill="none" stroke="#181818" stroke-linecap="round" stroke-linejoin="round" stroke-width="15"/>
          </a>
          <a xlink:href="https://www.notion.so/dmmnotes/comfortably-balanced-e76dc615a8b947aa915377cd02fcf716?pvs=4">
            <path id="B3" d="M300,80c10.634765625,0,21.078857421871362.797607421871362,31.308105468760914,2.253173828121362l7.825683593739086-54.433349609360448c-12.788574218739086-1.823486328139552-25.843017578128638-2.819824218760914-39.1337890625-2.819824218760914-13.290771484367724,0-26.34521484375.996337890621362-39.133789062489086,2.819824218760914l7.825683593739086,54.433349609360448c10.23193359375-1.45556640625,20.67333984375-2.253173828121362,31.30810546875-2.253173828121362Z" fill="none" stroke="#181818" stroke-linecap="round" stroke-linejoin="round" stroke-width="15"/>
          </a>
          <a xlink:href="https://www.notion.so/dmmnotes/accepting-317d81273fff4cd9817cdf4a88efd378?pvs=4">
            <path id="B2" d="M268.69189453125,82.253173828121362l-7.825683593739086-54.433349609360448c-26.439208984389552,3.767822265599534-51.643066406260914,11.311523437489086-75.098632812510914,22.042968749989086l22.83251953125,49.99951171875c18.7666015625-8.574951171889552,38.93505859375-14.601318359378638,60.091796875-17.609130859378638Z" fill="none" stroke="#181818" stroke-linecap="round" stroke-linejoin="round" stroke-width="15"/>
          </a>
          <a xlink:href="https://www.notion.so/dmmnotes/distanced-from-past-2eabab7e9c77429f8e577f4e3e203653?pvs=4">
            <path id="B1" d="M208.60009765625,99.8623046875l-22.83251953125-49.99951171875c-5.512599781834069,2.521209168185123-10.926526745237425,5.218781822183701-16.234907855658093,8.085682059325336-27.736256078771476,14.979534716064336-34.26286300891843,51.940807863735245-13.620088706633396,75.764372472809555l.02394187479149.027631014736471c15.75341796875-13.658691406260914,33.4619140625-25.1044921875,52.66357421875-33.878173828121362Z" fill="none" stroke="#181818" stroke-linecap="round" stroke-linejoin="round" stroke-width="15"/>
          </a>
          <a xlink:href="https://www.notion.so/dmmnotes/idealising-a52277f51ed14a42aae78081bb34b8be?pvs=4">
            <path id="A1" d="M155.9365234375,133.740478515621362l-.00003597290015-.00004151586927c-20.64701196401802-23.828455208494233-58.166100839873252-22.619561246784542-76.941289455073274,2.70999999754622-3.59145196229656,4.84521909736668-7.02760574713102,9.813063194990718-10.301350353276575,14.896486830823051l46.226318359371362,29.70751953125c11.373291015639552-17.673583984371362,25.201171875010914-33.598876953132276,41.016357421878638-47.31396484375Z" fill="none" stroke="#181818" stroke-linecap="round" stroke-linejoin="round" stroke-width="15"/>
          </a>
          <a xlink:href="https://www.notion.so/dmmnotes/distancing-9ac690cdca654729a17a5a255944e2d1?pvs=4">
            <path id="A2" d="M114.920166015621362,181.054443359371362l-46.226318359371362-29.70751953125c-14.04541015625,21.81201171875-25.08837890625,45.721435546867724-32.551513671878638,71.177734374989086l52.754882812510914,15.490234375c5.964599609367724-20.375244140621362,14.7919921875-39.509765624989086,26.022949218739086-56.960449218739086Z" fill="none" stroke="#181818" stroke-linecap="round" stroke-linejoin="round" stroke-width="15"/>
          </a>
          <a xlink:href="https://www.notion.so/dmmnotes/compulsive-caregiving-9c380c0928294f41ae10764aa0dee886?pvs=4">
            <path id="A3" d="M88.897216796882276,238.014892578110448l-52.754882812510914-15.490234375c-7.205322265621362,24.580810546878638-11.142333984371362,50.5634765625-11.142333984371362,77.475341796889552h55c0-21.535400390628638,3.14208984375-42.321533203128638,8.897216796882276-61.985107421889552Z" fill="none" stroke="#181818" stroke-linecap="round" stroke-linejoin="round" stroke-width="15"/>
          </a>
          <a xlink:href="https://www.notion.so/dmmnotes/compulsive-compliance-6d08b7ea9a424ce1a72b9184b7850414?pvs=4">
            <path id="A4" d="M80,300H25c0,26.911865234371362,3.93701171875,52.894531249989086,11.142333984371362,77.475341796871362l52.754882812510914-15.490234375c-5.755126953132276-19.66357421875-8.897216796882276-40.447021484371362-8.897216796882276-61.985107421871362Z" fill="none" stroke="#181818" stroke-linecap="round" stroke-linejoin="round" stroke-width="15"/>
          </a>
          <a xlink:href="https://www.notion.so/dmmnotes/sexual-supplementation-8e85f49046ef412aa229745abf7d38d3?pvs=4">
            <path id="A5" d="M88.897216796882276,361.985107421871362l-52.754882812510914,15.490234375c7.463134765628638,25.456298828128638,18.506103515628638,49.36572265625,32.551513671878638,71.175048828128638l46.223632812510914-29.704833984369543c-11.230957031260914-17.450683593759095-20.055664062510914-36.58251953125-26.020263671878638-56.960449218759095Z" fill="none" stroke="#181818" stroke-linecap="round" stroke-linejoin="round" stroke-width="15"/>
          </a>
          <a xlink:href="https://www.notion.so/dmmnotes/compulsive-isolated-self-reliance-b321873a73fa41aaaadd7192fde856a2?pvs=4">
            <path id="A6" d="M114.917480468760914,418.945556640630457l-46.223632812510914,29.704833984369543c14.219970703121362,22.083251953121362,31.504150390632276,41.983154296871362,51.269775390632276,59.125l35.972900390617724-41.515869140619543c-15.815185546867724-13.712402343759095-29.643066406239086-29.637695312509095-41.019042968739086-47.31396484375Z" fill="none" stroke="#181818" stroke-linecap="round" stroke-linejoin="round" stroke-width="15"/>
          </a>
          <a xlink:href="https://www.notion.so/dmmnotes/delusional-idealization-743e2420b9994a48a7cab68190432e8a?pvs=4">
            <path id="A7" d="M155.9365234375,466.259521484380457l-35.972900390617724,41.515869140619543c19.687744140617724,17.074707031239086,41.811279296867724,31.385986328130457,65.803955078117724,42.36181640625l22.83251953125-49.996826171878638c-19.20166015625-8.773681640621362-36.91015625-20.222167968740905-52.66357421875-33.880859374990905Z" fill="none" stroke="#181818" stroke-linecap="round" stroke-linejoin="round" stroke-width="15"/>
          </a>
          <a xlink:href="https://www.notion.so/dmmnotes/externally-assembled-self-994ecb0895b844409b931d74a045c162?pvs=4">
            <path id="A8" d="M208.60009765625,500.140380859371362l-22.83251953125,49.996826171878638c23.45556640625,10.7314453125,48.659423828121362,18.275146484371362,75.098632812510914,22.04296875l7.825683593739086-54.4306640625c-21.15673828125-3.0078125-41.3251953125-9.0341796875-60.091796875-17.609130859378638Z" fill="none" stroke="#181818" stroke-linecap="round" stroke-linejoin="round" stroke-width="15"/>
          </a>
          <a xlink:href="https://www.notion.so/dmmnotes/psychopathy-0fe4a3222d9f4fd097ab4546c9776768?pvs=4">
            <path id="AC" d="M300,520c-10.634765625,0-21.076171875-.794921875-31.30810546875-2.25048828125l-7.825683593739086,54.4306640625c12.788574218739086,1.823486328130457,25.843017578121362,2.81982421875,39.133789062489086,2.81982421875,13.290771484371362,0,26.345214843760914-.996337890619543,39.1337890625-2.81982421875l-7.825683593739086-54.4306640625c-10.229248046889552,1.45556640625-20.673339843760914,2.25048828125-31.308105468760914,2.25048828125Z" fill="none" stroke="#181818" stroke-linecap="round" stroke-linejoin="round" stroke-width="15"/>
          </a>
          <a xlink:href="https://www.notion.so/dmmnotes/paranoid-ae38b1e6af0c4dd08f61e0d8f6e9f05f?pvs=4">
            <g id="C8">
              <path d="M339.132324218748181,573.18017578125c-.4892578125,0-.91650390625-.359375-.98828125-.85791015625l-7.82568359375-54.4306640625c-.0380859375-.2626953125.0302734375-.52978515625.189453125-.7421875.15966796875-.21240234375.396484375-.3525390625.65966796875-.39013671875,20.65869140625-2.9365234375,40.78515625-8.833984375,59.81982421875-17.52880859375.1318359375-.06005859375.2734375-.09033203125.41552734375-.09033203125.1181640625,0,.236328125.02099609375.349609375.06298828125.24853515625.0927734375.44970703125.2802734375.56005859375.521484375l22.83203125,49.9970703125c.2294921875.50244140625.00830078125,1.09521484375-.49365234375,1.32470703125-23.97314453125,10.96875-49.33349609375,18.412109375-75.3759765625,22.1240234375-.0478515625.00634765625-.09521484375.009765625-.142578125.009765625Z" fill="none" stroke="#181818" stroke-linecap="round" stroke-linejoin="round" stroke-width="15"/>
              <path d="M391.402587890623181,500.140380859375l22.83251953125,49.996826171875c-23.45556640625,10.7314453125-48.662109375,18.275146484375-75.101318359375,22.04296875l-7.82568359375-54.4306640625c21.159423828125-3.0078125,41.327880859375-9.036865234375,60.094482421875-17.609130859375M391.402618408201306,498.140380859375c-.284088134765625,0-.567642211914062.060516357421875-.831008911132812.180816650390625-18.94677734375,8.654571533203125-38.980606079101562,14.524993896484375-59.544998168945312,17.448211669921875-.52569580078125.074737548828125-1.000091552734375.355438232421875-1.318634033203125.7802734375-.31854248046875.4248046875-.455108642578125.9588623046875-.3795166015625,1.48443603515625l7.82568359375,54.4306640625c.143310546875.9967041015625.998565673828125,1.71563720703125,1.9771728515625,1.71563720703125.09393310546875,0,.18896484375-.006622314453125.284637451171875-.020263671875,26.13616943359375-3.724609375,51.58892822265625-11.195220947265625,75.6512451171875-22.204254150390625,1.003952026367188-.459320068359375,1.44580078125-1.645263671875.9871826171875-2.649505615234375l-22.832534790039062-49.996826171875c-.220352172851562-.4825439453125-.623382568359375-.857757568359375-1.120391845703125-1.043121337890625-.225738525390625-.08416748046875-.462478637695312-.126068115234375-.698837280273438-.126068115234375h0Z" fill="none" stroke="#181818" stroke-linecap="round" stroke-linejoin="round" stroke-width="15"/>
            </g>
          </a>
          <a xlink:href="https://www.notion.so/dmmnotes/menacing-a5bd7149286344deba45ec15e759e579?pvs=4">
            <g id="C7">
              <path d="M414.234863281248181,551.13720703125c-.1181640625,0-.236328125-.02099609375-.34912109375-.06298828125-.24853515625-.0927734375-.4501953125-.2802734375-.560546875-.521484375l-22.83203125-49.9970703125c-.2294921875-.50244140625-.00830078125-1.095703125.494140625-1.3251953125,18.9765625-8.67236328125,36.61474609375-20.01953125,52.423828125-33.72607421875.1826171875-.158203125.41552734375-.24462890625.6552734375-.24462890625.0234375,0,.04736328125.0009765625.0712890625.00244140625.2646484375.01904296875.5107421875.14208984375.6845703125.3427734375l35.97265625,41.515625c.361328125.4169921875.31640625,1.04833984375-.1005859375,1.41015625-19.91845703125,17.27490234375-42.138671875,31.5791015625-66.04345703125,42.515625-.1318359375.060546875-.27392578125.0908203125-.416015625.0908203125Z" fill="none" stroke="#181818" stroke-linecap="round" stroke-linejoin="round" stroke-width="15"/>
              <path d="M444.066162109373181,466.259521484375l35.972900390625,41.515869140625c-19.687744140625,17.07470703125-41.81396484375,31.385986328125-65.803955078125,42.36181640625l-22.83251953125-49.996826171875c19.204360961914062-8.7763671875,36.91015625-20.22216796875,52.66357421875-33.880859375M444.066040039060681,464.259521484375c-.479660034179688,0-.945236206054688.172576904296875-1.31005859375.4888916015625-15.737213134765625,13.644622802734375-33.294677734375,24.940216064453125-52.1846923828125,33.572906494140625-1.004440307617188.45904541015625-1.446731567382812,1.64532470703125-.987960815429688,2.649871826171875l22.83251953125,49.996826171875c.220443725585938.48272705078125.623687744140625.8580322265625,1.1209716796875,1.0433349609375.225540161132812.08404541015625.462112426757812.1258544921875.698257446289062.1258544921875.284500122070312,0,.56842041015625-.0606689453125.832107543945312-.181304931640625,23.991668701171875-10.976593017578125,46.292251586914062-25.332733154296875,66.282257080078125-42.669586181640625.834197998046875-.723480224609375.924240112304688-1.986114501953125.201126098632812-2.82061767578125l-35.972885131835938-41.515869140625c-.347442626953125-.400970458984375-.839935302734375-.6474609375-1.369140625-.68524169921875-.047576904296875-.003387451171875-.095108032226562-.00506591796875-.142501831054688-.00506591796875h0Z" fill="none" stroke="#181818" stroke-linecap="round" stroke-linejoin="round" stroke-width="15"/>
            </g>
          </a>
          <a xlink:href="https://www.notion.so/dmmnotes/seductively-obsessed-with-rescue-6fb5a68f6d334bc29ccccc16d8a4e56e?pvs=4">
            <g id="C6">
              <path d="M479.967773437498181,508.77294921875c-.2646484375-.01904296875-.5107421875-.14208984375-.6845703125-.3427734375l-35.97265625-41.515625c-.361328125-.4169921875-.31640625-1.04833984375.1005859375-1.41015625,15.7978515625-13.7001953125,29.53515625-29.546875,40.83056640625-47.099609375.19091796875-.29736328125.51318359375-.458984375.841796875-.458984375.18505859375,0,.37255859375.05126953125.53955078125.15869140625l46.2236328125,29.70458984375c.22314453125.1435546875.38037109375.36962890625.4365234375.62939453125.056640625.25927734375.00732421875.5302734375-.13623046875.75341796875-14.2373046875,22.10986328125-31.54833984375,42.07421875-51.45263671875,59.3388671875-.1826171875.158203125-.41552734375.24462890625-.6552734375.24462890625-.0234375,0-.04736328125-.0009765625-.0712890625-.00244140625Z" fill="none" stroke="#181818" stroke-linecap="round" stroke-linejoin="round" stroke-width="15"/>
              <path d="M485.082519531248181,418.945556640625l46.223640441894531,29.704833984375c-14.219985961914062,22.083251953125-31.504150390625,41.983154296875-51.267097473144531,59.125l-35.972900390625-41.515869140625c15.815185546875-13.715087890625,29.64306640625-29.640380859375,41.016357421875-47.31396484375M485.084411621091931,416.9453125c-.657608032226562,0-1.30145263671875.323898315429688-1.683731079101562.917938232421875-11.244674682617188,17.47369384765625-24.919570922851562,33.2481689453125-40.644851684570312,46.88531494140625-.834243774414062.72344970703125-.924301147460938,1.986114501953125-.201187133789062,2.820648193359375l35.972900390625,41.515869140625c.347457885742188.401031494140625.840042114257812.64752197265625,1.369308471679688.68524169921875.047500610351562.003387451171875.095001220703125.00506591796875.142303466796875.00506591796875.479843139648438,0,.94549560546875-.17266845703125,1.31036376953125-.4891357421875,19.975875854492188-17.3265380859375,37.349456787109375-37.363067626953125,51.638175964355469-59.553070068359375.287345886230469-.446258544921875.385528564453125-.9884033203125.27294921875-1.507080078125-.112602233886719-.5186767578125-.426734924316406-.9713134765625-.873237609863281-1.25823974609375l-46.2236328125-29.704833984375c-.33453369140625-.214981079101562-.709182739257812-.317718505859375-1.079360961914062-.317718505859375h0Z" fill="none" stroke="#181818" stroke-linecap="round" stroke-linejoin="round" stroke-width="15"/>
            </g>
          </a>
          <a xlink:href="https://www.notion.so/dmmnotes/punitively-obsessed-with-revenge-33d2e77f37774316b42bccf4a60f9688?pvs=4">
            <g id="C5">
              <path d="M531.305175781248181,449.650390625c-.18505859375,0-.37255859375-.05126953125-.53955078125-.15869140625l-46.2236328125-29.70458984375c-.22314453125-.1435546875-.38037109375-.36962890625-.4365234375-.62890625-.056640625-.25927734375-.00732421875-.5302734375.13623046875-.75341796875,11.33056640625-17.6064453125,20.04541015625-36.68310546875,25.9013671875-56.70068359375.07470703125-.2548828125.24755859375-.46923828125.48046875-.5966796875.1484375-.0810546875.3134765625-.12255859375.4794921875-.12255859375.0947265625,0,.189453125.01318359375.28173828125.04052734375l52.7548828125,15.490234375c.52978515625.15576171875.8330078125.7109375.677734375,1.24072265625-7.396484375,25.228515625-18.38818359375,49.26318359375-32.67041015625,71.435546875-.19140625.296875-.51318359375.45849609375-.841796875.45849609375Z" fill="none" stroke="#181818" stroke-linecap="round" stroke-linejoin="round" stroke-width="15"/>
              <path d="M511.102783203123181,361.985107421875l52.754878997802734,15.490234375c-7.463123321533203,25.456298828125-18.503414154052734,49.365737915039062-32.551509857177734,71.175048828125l-46.2236328125-29.704833984375c11.23095703125-17.45068359375,20.058341979980469-36.58251953125,26.020263671875-56.96044921875M511.1028366088849,359.985092163085938c-.332344055175781,0-.662528991699219.08282470703125-.959403991699219.2451171875-.465721130371094.254608154296875-.811141967773438.683883666992188-.960182189941406,1.19329833984375-5.829879760742188,19.926589965820312-14.504371643066406,38.915634155273438-25.782524108886719,56.439651489257812-.287185668945312.446258544921875-.385269165039062.988327026367188-.272628784179688,1.50689697265625.112640380859375.518585205078125.426742553710938.97113037109375.873184204101562,1.258010864257812l46.223625183105469,29.704849243164062c.334541320800781.214996337890625.709182739257812.317718505859375,1.079383850097656.317718505859375.657302856445312,0,1.300895690917969-.3236083984375,1.683250427246094-.917205810546875,14.334243774414062-22.253570556640625,25.366165161132812-46.375381469726562,32.789337158203125-71.695419311523438.310661315917969-1.059646606445312-.296230316162109-2.1705322265625-1.355754852294922-2.481643676757812l-52.754878997802734-15.490249633789062c-.18463134765625-.054214477539062-.3743896484375-.081024169921875-.563407897949219-.081024169921875h0Z" fill="none" stroke="#181818" stroke-linecap="round" stroke-linejoin="round" stroke-width="15"/>
            </g>
          </a>
          <a xlink:href="https://www.notion.so/dmmnotes/feigned-helpless-e79a94b0498c4e109a681b7f3dcdb088?pvs=4">
            <g id="C4">
              <path d="M563.857910156248181,378.47509765625c-.0947265625,0-.189453125-.01318359375-.28173828125-.04052734375l-52.7548828125-15.490234375c-.52978515625-.1552734375-.8330078125-.71044921875-.67822265625-1.240234375,5.876953125-20.08056640625,8.85693359375-40.8408203125,8.85693359375-61.7041015625,0-.55224609375.44775390625-1,1-1h55c.55224609375,0,1,.44775390625,1,1,0,26.2890625-3.76220703125,52.44970703125-11.1826171875,77.75634765625-.07470703125.2548828125-.2470703125.46923828125-.47998046875.59619140625-.1484375.0810546875-.3134765625.12255859375-.4794921875.12255859375Z" fill="none" stroke="#181818" stroke-linecap="round" stroke-linejoin="round" stroke-width="15"/>
              <path d="M575.000007629392712,300h.004997253417969M575.000007629392712,300c0,26.911865234375-3.934329986572266,52.891845703125-11.142345428466797,77.475341796875l-52.754886627197266-15.490234375c5.755126953125-19.66357421875,8.897232055664062-40.447021484375,8.897232055664062-61.985107421875h55M575.005004882810681,298h-55.004997253417969c-1.104576110839844,0-2,.895431518554688-2,2,0,20.768646240234375-2.96636962890625,41.4344482421875-8.816703796386719,61.423324584960938-.310081481933594,1.0594482421875.296829223632812,2.169769287109375,1.356002807617188,2.48077392578125l52.754886627197266,15.490234375c.184627532958984.05419921875.374404907226562.081008911132812.563419342041016.081008911132812.332160949707031,0,.662136077880859-.08270263671875.958892822265625-.244827270507812.465614318847656-.254364013671875.811084747314453-.683319091796875.960357666015625-1.192459106445312,7.437583923339844-25.366455078125,11.213455200195312-51.587844848632812,11.223121643066406-77.936943054199219.001674652099609-.033493041992188.002521514892578-.06719970703125.002521514892578-.101112365722656,0-1.104568481445312-.892929077148438-2-1.997501373291016-2h0ZM575.000007629392712,302h.004997253417969-.004997253417969Z" fill="none" stroke="#181818" stroke-linecap="round" stroke-linejoin="round" stroke-width="15"/>
            </g>
          </a>
          <a xlink:href="https://www.notion.so/dmmnotes/aggressive-2d8ccce383534b9dbfc7b4b10b8a5d5c?pvs=4">
            <g id="C3">
              <path d="M519.999999999998181,301c-.55224609375,0-1-.44775390625-1-1,0-20.86376953125-2.97998046875-41.6240234375-8.85693359375-61.70458984375-.15478515625-.52978515625.1484375-1.0849609375.67822265625-1.240234375l52.7548828125-15.490234375c.09228515625-.02734375.18701171875-.04052734375.28173828125-.04052734375.166015625,0,.3310546875.04150390625.4794921875.12255859375.23291015625.126953125.4052734375.34130859375.47998046875.59619140625,7.42041015625,25.30419921875,11.1826171875,51.4658203125,11.1826171875,77.7568359375,0,.55224609375-.44775390625,1-1,1h-55Z" fill="none" stroke="#181818" stroke-linecap="round" stroke-linejoin="round" stroke-width="15"/>
              <path d="M563.857662200925915,222.524658203125c7.208015441894531,24.580814361572266,11.142345428466797,50.563468933105469,11.142345428466797,77.475341796875h-55c0-21.535400390625-3.142105102539062-42.321525573730469-8.897232055664062-61.985115051269531l52.754886627197266-15.490226745605469M563.857608795164197,220.524654388427734c-.189041137695312,0-.378761291503906.026800155639648-.56341552734375.081018447875977l-52.754886627197266,15.490228652954102c-1.059173583984375.311000823974609-1.666084289550781,1.421329498291016-1.356002807617188,2.480770111083984,5.850334167480469,19.988887786865234,8.816703796386719,40.654689788818359,8.816703796386719,61.423328399658203,0,1.104568481445312.895423889160156,2,2,2h55c1.104568481445312,0,2-.895431518554688,2-2,0-26.386016845703125-3.776016235351562-52.641841888427734-11.223159790039062-78.038112640380859-.149284362792969-.509128570556641-.494754791259766-.938056945800781-.960369110107422-1.192415237426758-.296722412109375-.162094116210938-.626747131347656-.244817733764648-.958869934082031-.244817733764648h0Z" fill="none" stroke="#181818" stroke-linecap="round" stroke-linejoin="round" stroke-width="15"/>
            </g>
          </a>
        </g>
        <g>
          <a xlink:href="https://www.notion.so/dmmnotes/disarming-086276e599884c86b9359acf831a8b20?pvs=4">
            <path id="C2-2" data-name="C2" d="M511.102783203132276,238.014892578110448l52.7548828125-15.490234375c-7.463134765621362-25.456298828121362-18.503417968742724-49.365722656239086-32.551513671871362-71.177734374989086l-46.223632812510914,29.70751953125c11.230957031260914,17.45068359375,20.055664062510914,36.585205078117724,26.020263671882276,56.960449218739086Z" fill="#8f807d" stroke="#181818" stroke-linecap="round" stroke-linejoin="round" stroke-width="2"/>
          </a>
          <a xlink:href="https://www.notion.so/dmmnotes/threatening-348fe6a52f7a4fe69f768e98c6586932?pvs=4">
            <path id="C1-2" data-name="C1" d="M485.08251953125,181.054443359371362l46.223632812510914-29.70751953125c-3.273382764718917-5.082861773656987-6.709138808490025-10.050169557313893-10.300126729000112-14.894880224832377-18.774697955217562-25.32951418288576-56.293794500255899-26.537787842678881-76.939827532478375-2.708921059354907l-.00003597290015.000041518555008c15.815185546878638,13.71240234375,29.64306640625,29.637695312510914,41.016357421867724,47.311279296882276Z" fill="#8f807d" stroke="#181818" stroke-linecap="round" stroke-linejoin="round" stroke-width="2"/>
          </a>
          <a xlink:href="https://www.notion.so/dmmnotes/complaining-acceptance-8b40401a720c493ba73f7cde1567cf3d?pvs=4">
            <path id="B5-2" data-name="B5" d="M444.066162109382276,133.743164062489086l.02758147988061-.031833496002037c20.640755630132844-23.822775814992383,14.113865767878451-60.780908008569895-13.620243983010369-75.76038052397962-5.309700301706471-2.867822708169115-10.724823288150219-5.566222392240888-16.238392184381155-8.088157073757429l-22.832519531239086,49.99951171875c19.204345703117724,8.773681640621362,36.910156249989086,20.22216796875,52.66357421875,33.880859374989086Z" fill="#8f807d" stroke="#181818" stroke-linecap="round" stroke-linejoin="round" stroke-width="2"/>
          </a>
          <a xlink:href="https://www.notion.so/dmmnotes/sentimental-bc554363322342b1b7ca4ccc02125049?pvs=4">
            <path id="B4-2" data-name="B4" d="M391.402587890632276,99.8623046875l22.832519531239086-49.99951171875c-23.45556640623181-10.7314453125-48.662109375-18.275146484389552-75.101318359371362-22.042968749989086l-7.825683593739086,54.433349609360448c21.159423828121362,3.0078125,41.327880859371362,9.034179687489086,60.094482421871362,17.609130859378638Z" fill="#8f807d" stroke="#181818" stroke-linecap="round" stroke-linejoin="round" stroke-width="2"/>
          </a>
          <a xlink:href="https://www.notion.so/dmmnotes/comfortably-balanced-e76dc615a8b947aa915377cd02fcf716?pvs=4">
            <path id="B3-2" data-name="B3" d="M300,80c10.634765625,0,21.078857421871362.797607421871362,31.308105468760914,2.253173828121362l7.825683593739086-54.433349609360448c-12.788574218739086-1.823486328139552-25.843017578128638-2.819824218760914-39.1337890625-2.819824218760914-13.290771484367724,0-26.34521484375.996337890621362-39.133789062489086,2.819824218760914l7.825683593739086,54.433349609360448c10.23193359375-1.45556640625,20.67333984375-2.253173828121362,31.30810546875-2.253173828121362Z" fill="#8f807d" stroke="#181818" stroke-linecap="round" stroke-linejoin="round" stroke-width="2"/>
          </a>
          <a xlink:href="https://www.notion.so/dmmnotes/accepting-317d81273fff4cd9817cdf4a88efd378?pvs=4">
            <path id="B2-2" data-name="B2" d="M268.69189453125,82.253173828121362l-7.825683593739086-54.433349609360448c-26.439208984389552,3.767822265599534-51.643066406260914,11.311523437489086-75.098632812510914,22.042968749989086l22.83251953125,49.99951171875c18.7666015625-8.574951171889552,38.93505859375-14.601318359378638,60.091796875-17.609130859378638Z" fill="#8f807d" stroke="#181818" stroke-linecap="round" stroke-linejoin="round" stroke-width="2"/>
          </a>
          <a xlink:href="https://www.notion.so/dmmnotes/distanced-from-past-2eabab7e9c77429f8e577f4e3e203653?pvs=4">
            <path id="B1-2" data-name="B1" d="M208.60009765625,99.8623046875l-22.83251953125-49.99951171875c-5.512599781834069,2.521209168185123-10.926526745237425,5.218781822183701-16.234907855658093,8.085682059325336-27.736256078771476,14.979534716064336-34.26286300891843,51.940807863735245-13.620088706633396,75.764372472809555l.02394187479149.027631014736471c15.75341796875-13.658691406260914,33.4619140625-25.1044921875,52.66357421875-33.878173828121362Z" fill="#8f807d" stroke="#181818" stroke-linecap="round" stroke-linejoin="round" stroke-width="2"/>
          </a>
          <a xlink:href="https://www.notion.so/dmmnotes/idealising-a52277f51ed14a42aae78081bb34b8be?pvs=4">
            <path id="A1-2" data-name="A1" d="M155.9365234375,133.740478515621362l-.00003597290015-.00004151586927c-20.64701196401802-23.828455208494233-58.166100839873252-22.619561246784542-76.941289455073274,2.70999999754622-3.59145196229656,4.84521909736668-7.02760574713102,9.813063194990718-10.301350353276575,14.896486830823051l46.226318359371362,29.70751953125c11.373291015639552-17.673583984371362,25.201171875010914-33.598876953132276,41.016357421878638-47.31396484375Z" fill="#8f807d" stroke="#181818" stroke-linecap="round" stroke-linejoin="round" stroke-width="2"/>
          </a>
          <a xlink:href="https://www.notion.so/dmmnotes/distancing-9ac690cdca654729a17a5a255944e2d1?pvs=4">
            <path id="A2-2" data-name="A2" d="M114.920166015621362,181.054443359371362l-46.226318359371362-29.70751953125c-14.04541015625,21.81201171875-25.08837890625,45.721435546867724-32.551513671878638,71.177734374989086l52.754882812510914,15.490234375c5.964599609367724-20.375244140621362,14.7919921875-39.509765624989086,26.022949218739086-56.960449218739086Z" fill="#8f807d" stroke="#181818" stroke-linecap="round" stroke-linejoin="round" stroke-width="2"/>
          </a>
          <a xlink:href="https://www.notion.so/dmmnotes/compulsive-caregiving-9c380c0928294f41ae10764aa0dee886?pvs=4">
            <path id="A3-2" data-name="A3" d="M88.897216796882276,238.014892578110448l-52.754882812510914-15.490234375c-7.205322265621362,24.580810546878638-11.142333984371362,50.5634765625-11.142333984371362,77.475341796889552h55c0-21.535400390628638,3.14208984375-42.321533203128638,8.897216796882276-61.985107421889552Z" fill="#8f807d" stroke="#181818" stroke-linecap="round" stroke-linejoin="round" stroke-width="2"/>
          </a>
          <a xlink:href="https://www.notion.so/dmmnotes/compulsive-compliance-6d08b7ea9a424ce1a72b9184b7850414?pvs=4">
            <path id="A4-2" data-name="A4" d="M80,300H25c0,26.911865234371362,3.93701171875,52.894531249989086,11.142333984371362,77.475341796871362l52.754882812510914-15.490234375c-5.755126953132276-19.66357421875-8.897216796882276-40.447021484371362-8.897216796882276-61.985107421871362Z" fill="#8f807d" stroke="#181818" stroke-linecap="round" stroke-linejoin="round" stroke-width="2"/>
          </a>
          <a xlink:href="https://www.notion.so/dmmnotes/sexual-supplementation-8e85f49046ef412aa229745abf7d38d3?pvs=4">
            <path id="A5-2" data-name="A5" d="M88.897216796882276,361.985107421871362l-52.754882812510914,15.490234375c7.463134765628638,25.456298828128638,18.506103515628638,49.36572265625,32.551513671878638,71.175048828128638l46.223632812510914-29.704833984369543c-11.230957031260914-17.450683593759095-20.055664062510914-36.58251953125-26.020263671878638-56.960449218759095Z" fill="#8f807d" stroke="#181818" stroke-linecap="round" stroke-linejoin="round" stroke-width="2"/>
          </a>
          <a xlink:href="https://www.notion.so/dmmnotes/compulsive-isolated-self-reliance-b321873a73fa41aaaadd7192fde856a2?pvs=4">
            <path id="A6-2" data-name="A6" d="M114.917480468760914,418.945556640630457l-46.223632812510914,29.704833984369543c14.219970703121362,22.083251953121362,31.504150390632276,41.983154296871362,51.269775390632276,59.125l35.972900390617724-41.515869140619543c-15.815185546867724-13.712402343759095-29.643066406239086-29.637695312509095-41.019042968739086-47.31396484375Z" fill="#8f807d" stroke="#181818" stroke-linecap="round" stroke-linejoin="round" stroke-width="2"/>
          </a>
          <a xlink:href="https://www.notion.so/dmmnotes/delusional-idealization-743e2420b9994a48a7cab68190432e8a?pvs=4">
            <path id="A7-2" data-name="A7" d="M155.9365234375,466.259521484380457l-35.972900390617724,41.515869140619543c19.687744140617724,17.074707031239086,41.811279296867724,31.385986328130457,65.803955078117724,42.36181640625l22.83251953125-49.996826171878638c-19.20166015625-8.773681640621362-36.91015625-20.222167968740905-52.66357421875-33.880859374990905Z" fill="#8f807d" stroke="#181818" stroke-linecap="round" stroke-linejoin="round" stroke-width="2"/>
          </a>
          <a xlink:href="https://www.notion.so/dmmnotes/externally-assembled-self-994ecb0895b844409b931d74a045c162?pvs=4">
            <path id="A8-2" data-name="A8" d="M208.60009765625,500.140380859371362l-22.83251953125,49.996826171878638c23.45556640625,10.7314453125,48.659423828121362,18.275146484371362,75.098632812510914,22.04296875l7.825683593739086-54.4306640625c-21.15673828125-3.0078125-41.3251953125-9.0341796875-60.091796875-17.609130859378638Z" fill="#8f807d" stroke="#181818" stroke-linecap="round" stroke-linejoin="round" stroke-width="2"/>
          </a>
          <a xlink:href="https://www.notion.so/dmmnotes/psychopathy-0fe4a3222d9f4fd097ab4546c9776768?pvs=4">
            <path id="AC-2" data-name="AC" d="M300,520c-10.634765625,0-21.076171875-.794921875-31.30810546875-2.25048828125l-7.825683593739086,54.4306640625c12.788574218739086,1.823486328130457,25.843017578121362,2.81982421875,39.133789062489086,2.81982421875,13.290771484371362,0,26.345214843760914-.996337890619543,39.1337890625-2.81982421875l-7.825683593739086-54.4306640625c-10.229248046889552,1.45556640625-20.673339843760914,2.25048828125-31.308105468760914,2.25048828125Z" fill="#8f807d" stroke="#181818" stroke-linecap="round" stroke-linejoin="round" stroke-width="2"/>
          </a>
          <a xlink:href="https://www.notion.so/dmmnotes/paranoid-ae38b1e6af0c4dd08f61e0d8f6e9f05f?pvs=4">
            <g id="C8-2" data-name="C8">
              <path d="M339.132324218748181,573.18017578125c-.4892578125,0-.91650390625-.359375-.98828125-.85791015625l-7.82568359375-54.4306640625c-.0380859375-.2626953125.0302734375-.52978515625.189453125-.7421875.15966796875-.21240234375.396484375-.3525390625.65966796875-.39013671875,20.65869140625-2.9365234375,40.78515625-8.833984375,59.81982421875-17.52880859375.1318359375-.06005859375.2734375-.09033203125.41552734375-.09033203125.1181640625,0,.236328125.02099609375.349609375.06298828125.24853515625.0927734375.44970703125.2802734375.56005859375.521484375l22.83203125,49.9970703125c.2294921875.50244140625.00830078125,1.09521484375-.49365234375,1.32470703125-23.97314453125,10.96875-49.33349609375,18.412109375-75.3759765625,22.1240234375-.0478515625.00634765625-.09521484375.009765625-.142578125.009765625Z" fill="#e17465" stroke-width="0"/>
              <path d="M391.402587890623181,500.140380859375l22.83251953125,49.996826171875c-23.45556640625,10.7314453125-48.662109375,18.275146484375-75.101318359375,22.04296875l-7.82568359375-54.4306640625c21.159423828125-3.0078125,41.327880859375-9.036865234375,60.094482421875-17.609130859375M391.402618408201306,498.140380859375c-.284088134765625,0-.567642211914062.060516357421875-.831008911132812.180816650390625-18.94677734375,8.654571533203125-38.980606079101562,14.524993896484375-59.544998168945312,17.448211669921875-.52569580078125.074737548828125-1.000091552734375.355438232421875-1.318634033203125.7802734375-.31854248046875.4248046875-.455108642578125.9588623046875-.3795166015625,1.48443603515625l7.82568359375,54.4306640625c.143310546875.9967041015625.998565673828125,1.71563720703125,1.9771728515625,1.71563720703125.09393310546875,0,.18896484375-.006622314453125.284637451171875-.020263671875,26.13616943359375-3.724609375,51.58892822265625-11.195220947265625,75.6512451171875-22.204254150390625,1.003952026367188-.459320068359375,1.44580078125-1.645263671875.9871826171875-2.649505615234375l-22.832534790039062-49.996826171875c-.220352172851562-.4825439453125-.623382568359375-.857757568359375-1.120391845703125-1.043121337890625-.225738525390625-.08416748046875-.462478637695312-.126068115234375-.698837280273438-.126068115234375h0Z" fill="#181818" stroke-width="0"/>
            </g>
          </a>
          <a xlink:href="https://www.notion.so/dmmnotes/menacing-a5bd7149286344deba45ec15e759e579?pvs=4">
            <g id="C7-2" data-name="C7">
              <path d="M414.234863281248181,551.13720703125c-.1181640625,0-.236328125-.02099609375-.34912109375-.06298828125-.24853515625-.0927734375-.4501953125-.2802734375-.560546875-.521484375l-22.83203125-49.9970703125c-.2294921875-.50244140625-.00830078125-1.095703125.494140625-1.3251953125,18.9765625-8.67236328125,36.61474609375-20.01953125,52.423828125-33.72607421875.1826171875-.158203125.41552734375-.24462890625.6552734375-.24462890625.0234375,0,.04736328125.0009765625.0712890625.00244140625.2646484375.01904296875.5107421875.14208984375.6845703125.3427734375l35.97265625,41.515625c.361328125.4169921875.31640625,1.04833984375-.1005859375,1.41015625-19.91845703125,17.27490234375-42.138671875,31.5791015625-66.04345703125,42.515625-.1318359375.060546875-.27392578125.0908203125-.416015625.0908203125Z" fill="#d3805f" stroke-width="0"/>
              <path d="M444.066162109373181,466.259521484375l35.972900390625,41.515869140625c-19.687744140625,17.07470703125-41.81396484375,31.385986328125-65.803955078125,42.36181640625l-22.83251953125-49.996826171875c19.204360961914062-8.7763671875,36.91015625-20.22216796875,52.66357421875-33.880859375M444.066040039060681,464.259521484375c-.479660034179688,0-.945236206054688.172576904296875-1.31005859375.4888916015625-15.737213134765625,13.644622802734375-33.294677734375,24.940216064453125-52.1846923828125,33.572906494140625-1.004440307617188.45904541015625-1.446731567382812,1.64532470703125-.987960815429688,2.649871826171875l22.83251953125,49.996826171875c.220443725585938.48272705078125.623687744140625.8580322265625,1.1209716796875,1.0433349609375.225540161132812.08404541015625.462112426757812.1258544921875.698257446289062.1258544921875.284500122070312,0,.56842041015625-.0606689453125.832107543945312-.181304931640625,23.991668701171875-10.976593017578125,46.292251586914062-25.332733154296875,66.282257080078125-42.669586181640625.834197998046875-.723480224609375.924240112304688-1.986114501953125.201126098632812-2.82061767578125l-35.972885131835938-41.515869140625c-.347442626953125-.400970458984375-.839935302734375-.6474609375-1.369140625-.68524169921875-.047576904296875-.003387451171875-.095108032226562-.00506591796875-.142501831054688-.00506591796875h0Z" fill="#181818" stroke-width="0"/>
            </g>
          </a>
          <a xlink:href="https://www.notion.so/dmmnotes/seductively-obsessed-with-rescue-6fb5a68f6d334bc29ccccc16d8a4e56e?pvs=4">
            <g id="C6-2" data-name="C6">
              <path d="M479.967773437498181,508.77294921875c-.2646484375-.01904296875-.5107421875-.14208984375-.6845703125-.3427734375l-35.97265625-41.515625c-.361328125-.4169921875-.31640625-1.04833984375.1005859375-1.41015625,15.7978515625-13.7001953125,29.53515625-29.546875,40.83056640625-47.099609375.19091796875-.29736328125.51318359375-.458984375.841796875-.458984375.18505859375,0,.37255859375.05126953125.53955078125.15869140625l46.2236328125,29.70458984375c.22314453125.1435546875.38037109375.36962890625.4365234375.62939453125.056640625.25927734375.00732421875.5302734375-.13623046875.75341796875-14.2373046875,22.10986328125-31.54833984375,42.07421875-51.45263671875,59.3388671875-.1826171875.158203125-.41552734375.24462890625-.6552734375.24462890625-.0234375,0-.04736328125-.0009765625-.0712890625-.00244140625Z" fill="#c48a57" stroke-width="0"/>
              <path d="M485.082519531248181,418.945556640625l46.223640441894531,29.704833984375c-14.219985961914062,22.083251953125-31.504150390625,41.983154296875-51.267097473144531,59.125l-35.972900390625-41.515869140625c15.815185546875-13.715087890625,29.64306640625-29.640380859375,41.016357421875-47.31396484375M485.084411621091931,416.9453125c-.657608032226562,0-1.30145263671875.323898315429688-1.683731079101562.917938232421875-11.244674682617188,17.47369384765625-24.919570922851562,33.2481689453125-40.644851684570312,46.88531494140625-.834243774414062.72344970703125-.924301147460938,1.986114501953125-.201187133789062,2.820648193359375l35.972900390625,41.515869140625c.347457885742188.401031494140625.840042114257812.64752197265625,1.369308471679688.68524169921875.047500610351562.003387451171875.095001220703125.00506591796875.142303466796875.00506591796875.479843139648438,0,.94549560546875-.17266845703125,1.31036376953125-.4891357421875,19.975875854492188-17.3265380859375,37.349456787109375-37.363067626953125,51.638175964355469-59.553070068359375.287345886230469-.446258544921875.385528564453125-.9884033203125.27294921875-1.507080078125-.112602233886719-.5186767578125-.426734924316406-.9713134765625-.873237609863281-1.25823974609375l-46.2236328125-29.704833984375c-.33453369140625-.214981079101562-.709182739257812-.317718505859375-1.079360961914062-.317718505859375h0Z" fill="#181818" stroke-width="0"/>
            </g>
          </a>
          <a xlink:href="https://www.notion.so/dmmnotes/punitively-obsessed-with-revenge-33d2e77f37774316b42bccf4a60f9688?pvs=4">
            <g id="C5-2" data-name="C5">
              <path d="M531.305175781248181,449.650390625c-.18505859375,0-.37255859375-.05126953125-.53955078125-.15869140625l-46.2236328125-29.70458984375c-.22314453125-.1435546875-.38037109375-.36962890625-.4365234375-.62890625-.056640625-.25927734375-.00732421875-.5302734375.13623046875-.75341796875,11.33056640625-17.6064453125,20.04541015625-36.68310546875,25.9013671875-56.70068359375.07470703125-.2548828125.24755859375-.46923828125.48046875-.5966796875.1484375-.0810546875.3134765625-.12255859375.4794921875-.12255859375.0947265625,0,.189453125.01318359375.28173828125.04052734375l52.7548828125,15.490234375c.52978515625.15576171875.8330078125.7109375.677734375,1.24072265625-7.396484375,25.228515625-18.38818359375,49.26318359375-32.67041015625,71.435546875-.19140625.296875-.51318359375.45849609375-.841796875.45849609375Z" fill="#b4924e" stroke-width="0"/>
              <path d="M511.102783203123181,361.985107421875l52.754878997802734,15.490234375c-7.463123321533203,25.456298828125-18.503414154052734,49.365737915039062-32.551509857177734,71.175048828125l-46.2236328125-29.704833984375c11.23095703125-17.45068359375,20.058341979980469-36.58251953125,26.020263671875-56.96044921875M511.1028366088849,359.985092163085938c-.332344055175781,0-.662528991699219.08282470703125-.959403991699219.2451171875-.465721130371094.254608154296875-.811141967773438.683883666992188-.960182189941406,1.19329833984375-5.829879760742188,19.926589965820312-14.504371643066406,38.915634155273438-25.782524108886719,56.439651489257812-.287185668945312.446258544921875-.385269165039062.988327026367188-.272628784179688,1.50689697265625.112640380859375.518585205078125.426742553710938.97113037109375.873184204101562,1.258010864257812l46.223625183105469,29.704849243164062c.334541320800781.214996337890625.709182739257812.317718505859375,1.079383850097656.317718505859375.657302856445312,0,1.300895690917969-.3236083984375,1.683250427246094-.917205810546875,14.334243774414062-22.253570556640625,25.366165161132812-46.375381469726562,32.789337158203125-71.695419311523438.310661315917969-1.059646606445312-.296230316162109-2.1705322265625-1.355754852294922-2.481643676757812l-52.754878997802734-15.490249633789062c-.18463134765625-.054214477539062-.3743896484375-.081024169921875-.563407897949219-.081024169921875h0Z" fill="#181818" stroke-width="0"/>
            </g>
          </a>
          <a xlink:href="https://www.notion.so/dmmnotes/feigned-helpless-e79a94b0498c4e109a681b7f3dcdb088?pvs=4">
            <g id="C4-2" data-name="C4">
              <path d="M563.857910156248181,378.47509765625c-.0947265625,0-.189453125-.01318359375-.28173828125-.04052734375l-52.7548828125-15.490234375c-.52978515625-.1552734375-.8330078125-.71044921875-.67822265625-1.240234375,5.876953125-20.08056640625,8.85693359375-40.8408203125,8.85693359375-61.7041015625,0-.55224609375.44775390625-1,1-1h55c.55224609375,0,1,.44775390625,1,1,0,26.2890625-3.76220703125,52.44970703125-11.1826171875,77.75634765625-.07470703125.2548828125-.2470703125.46923828125-.47998046875.59619140625-.1484375.0810546875-.3134765625.12255859375-.4794921875.12255859375Z" fill="#91a23d" stroke-width="0"/>
              <path d="M575.000007629392712,300h.004997253417969M575.000007629392712,300c0,26.911865234375-3.934329986572266,52.891845703125-11.142345428466797,77.475341796875l-52.754886627197266-15.490234375c5.755126953125-19.66357421875,8.897232055664062-40.447021484375,8.897232055664062-61.985107421875h55M575.005004882810681,298h-55.004997253417969c-1.104576110839844,0-2,.895431518554688-2,2,0,20.768646240234375-2.96636962890625,41.4344482421875-8.816703796386719,61.423324584960938-.310081481933594,1.0594482421875.296829223632812,2.169769287109375,1.356002807617188,2.48077392578125l52.754886627197266,15.490234375c.184627532958984.05419921875.374404907226562.081008911132812.563419342041016.081008911132812.332160949707031,0,.662136077880859-.08270263671875.958892822265625-.244827270507812.465614318847656-.254364013671875.811084747314453-.683319091796875.960357666015625-1.192459106445312,7.437583923339844-25.366455078125,11.213455200195312-51.587844848632812,11.223121643066406-77.936943054199219.001674652099609-.033493041992188.002521514892578-.06719970703125.002521514892578-.101112365722656,0-1.104568481445312-.892929077148438-2-1.997501373291016-2h0ZM575.000007629392712,302h.004997253417969-.004997253417969Z" fill="#181818" stroke-width="0"/>
            </g>
          </a>
          <a xlink:href="https://www.notion.so/dmmnotes/aggressive-2d8ccce383534b9dbfc7b4b10b8a5d5c?pvs=4">
            <g id="C3-2" data-name="C3">
              <path d="M519.999999999998181,301c-.55224609375,0-1-.44775390625-1-1,0-20.86376953125-2.97998046875-41.6240234375-8.85693359375-61.70458984375-.15478515625-.52978515625.1484375-1.0849609375.67822265625-1.240234375l52.7548828125-15.490234375c.09228515625-.02734375.18701171875-.04052734375.28173828125-.04052734375.166015625,0,.3310546875.04150390625.4794921875.12255859375.23291015625.126953125.4052734375.34130859375.47998046875.59619140625,7.42041015625,25.30419921875,11.1826171875,51.4658203125,11.1826171875,77.7568359375,0,.55224609375-.44775390625,1-1,1h-55Z" fill="#7e9e4c" stroke-width="0"/>
              <path d="M563.857662200925915,222.524658203125c7.208015441894531,24.580814361572266,11.142345428466797,50.563468933105469,11.142345428466797,77.475341796875h-55c0-21.535400390625-3.142105102539062-42.321525573730469-8.897232055664062-61.985115051269531l52.754886627197266-15.490226745605469M563.857608795164197,220.524654388427734c-.189041137695312,0-.378761291503906.026800155639648-.56341552734375.081018447875977l-52.754886627197266,15.490228652954102c-1.059173583984375.311000823974609-1.666084289550781,1.421329498291016-1.356002807617188,2.480770111083984,5.850334167480469,19.988887786865234,8.816703796386719,40.654689788818359,8.816703796386719,61.423328399658203,0,1.104568481445312.895423889160156,2,2,2h55c1.104568481445312,0,2-.895431518554688,2-2,0-26.386016845703125-3.776016235351562-52.641841888427734-11.223159790039062-78.038112640380859-.149284362792969-.509128570556641-.494754791259766-.938056945800781-.960369110107422-1.192415237426758-.296722412109375-.162094116210938-.626747131347656-.244817733764648-.958869934082031-.244817733764648h0Z" fill="#181818" stroke-width="0"/>
            </g>
          </a>
        </g>
      </g>
      <g id="C_" data-name="C+">
        <a xlink:href="https://www.notion.so/dmmnotes/Obsessive-Type-C-4f91ef2e75d349c38ffb6a298f2b2eb3?pvs=4">
          <g id="C_-2" data-name="C+">
            <path d="M300.000000000010914,414.7060546875c-36.970703125,0-67.048828125-30.07763671875-67.048828125-67.04833984375s30.078125-67.048828125,67.048828125-67.048828125,67.048828125,30.07763671875,67.048828125,67.04833984375-30.078125,67.048828125-67.048828125,67.048828125Z" fill="url(#linear-gradient)" stroke-width="0"/>
            <path d="M300.000000000010914,289.108749389648438c32.3330078125,0,58.54833984375,26.21502685546875,58.548828125,58.548660278320312,0,32.335563659667969-26.21337890625,58.548728942871094-58.548828125,58.548782348632812-.001953125,0,.001953125,0,0,0-32.3330078125,0-58.548828125-26.215080261230469-58.548828125-58.548660278320312,0-32.335556030273438,26.212890625-58.548721313476562,58.548828125-58.548782348632812.001953125,0-.001953125,0,0,0M300.000000000010914,272.108749389648438h0c-41.65771484375.00006103515625-75.548828125,33.89111328125-75.548828125,75.548782348632812,0,41.657661437988281,33.89111328125,75.548660278320312,75.548828125,75.548660278320312,41.65771484375-.000053405761719,75.548828125-33.89111328125,75.548828125-75.548782348632812-.00048828125-41.657775878907159-33.8916015625-75.548660278320312-75.548828125-75.548660278320312h0Z" fill="#181818" stroke-width="0"/>
          </g>
        </a>
        <a xlink:href="https://www.notion.so/dmmnotes/Obsessive-Type-C-4f91ef2e75d349c38ffb6a298f2b2eb3?pvs=4">
          <g id="C_-3" data-name="C+">
            <g>
              <path d="M275.195312499990905,243.247070312490905c.103515625-3.0341796875-.392578125-5.310546875-1.4912109375-6.8291015625-1.0986328125-1.5166015625-2.4873046875-2.4580078125-4.1611328125-2.826171875-1.6748046875-.365234375-3.48046875-.181640625-5.416015625.5498046875-1.9375.7333984375-3.689453125,1.7802734375-5.259765625,3.1396484375-3.6640625,3.1396484375-6.62109375,7.1435546875-8.8701171875,12.0107421875-2.251953125,4.8662109375-3.7685546875,9.96875-4.5537109375,15.3076171875-.7841796875,5.337890625-.837890625,10.6513671875-.15625,15.935546875.6796875,5.2861328125,2.1708984375,9.8662109375,4.474609375,13.7373046875,1.46484375,2.51171875,3.21875,4.37109375,5.259765625,5.5732421875,2.041015625,1.2041015625,4.2109375,1.8837890625,6.515625,2.041015625,2.30078125.1572265625,4.5771484375-.208984375,6.8291015625-1.0986328125,2.2490234375-.888671875,4.2626953125-2.22265625,6.0439453125-4.00390625,2.720703125-2.720703125,4.9189453125-4.65625,6.59375-5.80859375,1.673828125-1.1513671875,3.5576171875-1.779296875,5.65234375-1.884765625,5.966796875,0,9.916015625,1.67578125,11.853515625,5.0244140625,1.935546875,3.3505859375,2.06640625,7.4326171875.392578125,12.24609375-1.361328125,3.767578125-3.4296875,7.064453125-6.201171875,9.890625-2.7744140625,2.826171875-5.9931640625,5.1025390625-9.65625,6.830078125-3.6640625,1.7265625-7.58984375,2.9306640625-11.7744140625,3.6103515625-4.1875.6796875-8.3212890625.8642578125-12.4033203125.5498046875s-7.955078125-1.177734375-11.6171875-2.5908203125c-3.666015625-1.4130859375-6.8056640625-3.3212890625-9.419921875-5.73046875-2.931640625-2.720703125-5.49609375-5.8330078125-7.693359375-9.3408203125-2.1982421875-3.505859375-4.03125-7.22265625-5.4951171875-11.1474609375-1.4677734375-3.9248046875-2.5654296875-8.0068359375-3.296875-12.24609375-.7333984375-4.2392578125-1.0986328125-8.501953125-1.0986328125-12.794921875.2080078125-9.62890625,2.2490234375-18.943359375,6.123046875-27.9462890625,3.87109375-9.0009765625,9-16.8505859375,15.384765625-23.5498046875,2.9296875-3.03515625,6.41015625-5.625,10.44140625-7.771484375,4.02734375-2.14453125,8.1640625-3.533203125,12.40234375-4.1611328125,4.2392578125-.6279296875,8.400390625-.4169921875,12.482421875.6279296875,4.08203125,1.0478515625,7.6923828125,3.24609375,10.83203125,6.5947265625,2.40625,2.51171875,4.341796875,5.3916015625,5.8095703125,8.634765625,1.4638671875,3.2451171875,2.5634765625,6.4912109375,3.296875,9.7333984375.4169921875,2.095703125.6005859375,4.08203125.5498046875,5.966796875-.0546875,1.8837890625-.498046875,3.6650390625-1.3349609375,5.337890625-1.1533203125,2.0947265625-2.9306640625,3.5859375-5.337890625,4.474609375-2.4091796875.890625-4.7880859375,1.1767578125-7.1435546875.86328125-2.35546875-.314453125-4.396484375-1.2294921875-6.123046875-2.748046875-1.7265625-1.515625-2.5390625-3.583984375-2.43359375-6.201171875Z" fill="none" stroke="#181818" stroke-linecap="round" stroke-linejoin="round" stroke-width="33"/>
              <path d="M375.987304687490905,272.606445312490905c.1025390625,1.8837890625.2080078125,3.8212890625.3134765625,5.80859375.103515625,1.9892578125.025390625,3.822265625-.2353515625,5.4951171875-.2626953125,1.67578125-.7060546875,3.115234375-1.3349609375,4.3173828125-.626953125,1.205078125-1.623046875,1.962890625-2.982421875,2.2763671875-.7333984375.2109375-2.4873046875.314453125-5.259765625.314453125-2.7744140625,0-6.09765625-.103515625-9.96875-.314453125.1025390625,2.7236328125.181640625,5.470703125.234375,8.2431640625.052734375,2.7744140625.130859375,5.5732421875.236328125,8.3994140625-.2109375.8388671875-.576171875,1.5185546875-1.099609375,2.041015625-.5244140625.5244140625-1.283203125.99609375-2.275390625,1.4130859375-.99609375.4189453125-2.43359375.7333984375-4.318359375.94140625-1.78125.2109375-3.6376953125.392578125-5.5732421875.5498046875-1.9384765625.1572265625-3.7431640625.1572265625-5.4169921875,0-1.6748046875-.1572265625-3.1396484375-.5498046875-4.3955078125-1.177734375s-2.041015625-1.62109375-2.3544921875-2.982421875c-.2109375-.9423828125-.341796875-3.140625-.392578125-6.5947265625-.0546875-3.4541015625.0234375-7.5361328125.234375-12.24609375-2.51171875-.2080078125-4.8662109375-.365234375-7.064453125-.470703125-2.197265625-.1025390625-4.08203125-.2080078125-5.65234375-.3134765625-1.8837890625-.103515625-3.6103515625-.208984375-5.1806640625-.314453125-.5244140625.10546875-.99609375-.0517578125-1.4130859375-.470703125-.314453125-.314453125-.6279296875-.8095703125-.94140625-1.4921875-.314453125-.6787109375-.470703125-1.7509765625-.470703125-3.2177734375-.10546875-1.46484375-.1845703125-3.1650390625-.236328125-5.1025390625-.0537109375-1.935546875-.0537109375-3.7685546875,0-5.4951171875.0517578125-1.7275390625.236328125-3.21875.5498046875-4.474609375s.8369140625-1.935546875,1.5693359375-2.041015625l20.25390625-.314453125c.2080078125-2.40625.416015625-4.6044921875.626953125-6.59375.208984375-1.9873046875.41796875-3.7138671875.62890625-5.1806640625.2080078125-1.7783203125.365234375-3.400390625.470703125-4.8671875-.10546875-.4169921875.0517578125-.8369140625.470703125-1.255859375.314453125-.314453125.8369140625-.6279296875,1.5703125-.9423828125.73046875-.3134765625,1.830078125-.470703125,3.296875-.470703125,1.46484375,0,3.1640625.02734375,5.1025390625.078125,1.935546875.0546875,3.7685546875.1572265625,5.4951171875.314453125s3.21875.4189453125,4.474609375.78515625c1.255859375.3681640625,1.8837890625.9169921875,1.8837890625,1.6484375-.10546875,2.72265625-.1845703125,5.443359375-.2353515625,8.1640625-.0546875,2.72265625-.078125,5.443359375-.078125,8.1640625l15.072265625-.1572265625c.73046875.2109375,1.412109375.576171875,2.041015625,1.0986328125.521484375.525390625.9921875,1.283203125,1.412109375,2.2763671875.4169921875.99609375.73046875,2.3828125.9423828125,4.1611328125Z" fill="none" stroke="#181818" stroke-linecap="round" stroke-linejoin="round" stroke-width="33"/>
            </g>
            <g>
              <path d="M275.195312499990905,243.247070312490905c.103515625-3.0341796875-.392578125-5.310546875-1.4912109375-6.8291015625-1.0986328125-1.5166015625-2.4873046875-2.4580078125-4.1611328125-2.826171875-1.6748046875-.365234375-3.48046875-.181640625-5.416015625.5498046875-1.9375.7333984375-3.689453125,1.7802734375-5.259765625,3.1396484375-3.6640625,3.1396484375-6.62109375,7.1435546875-8.8701171875,12.0107421875-2.251953125,4.8662109375-3.7685546875,9.96875-4.5537109375,15.3076171875-.7841796875,5.337890625-.837890625,10.6513671875-.15625,15.935546875.6796875,5.2861328125,2.1708984375,9.8662109375,4.474609375,13.7373046875,1.46484375,2.51171875,3.21875,4.37109375,5.259765625,5.5732421875,2.041015625,1.2041015625,4.2109375,1.8837890625,6.515625,2.041015625,2.30078125.1572265625,4.5771484375-.208984375,6.8291015625-1.0986328125,2.2490234375-.888671875,4.2626953125-2.22265625,6.0439453125-4.00390625,2.720703125-2.720703125,4.9189453125-4.65625,6.59375-5.80859375,1.673828125-1.1513671875,3.5576171875-1.779296875,5.65234375-1.884765625,5.966796875,0,9.916015625,1.67578125,11.853515625,5.0244140625,1.935546875,3.3505859375,2.06640625,7.4326171875.392578125,12.24609375-1.361328125,3.767578125-3.4296875,7.064453125-6.201171875,9.890625-2.7744140625,2.826171875-5.9931640625,5.1025390625-9.65625,6.830078125-3.6640625,1.7265625-7.58984375,2.9306640625-11.7744140625,3.6103515625-4.1875.6796875-8.3212890625.8642578125-12.4033203125.5498046875s-7.955078125-1.177734375-11.6171875-2.5908203125c-3.666015625-1.4130859375-6.8056640625-3.3212890625-9.419921875-5.73046875-2.931640625-2.720703125-5.49609375-5.8330078125-7.693359375-9.3408203125-2.1982421875-3.505859375-4.03125-7.22265625-5.4951171875-11.1474609375-1.4677734375-3.9248046875-2.5654296875-8.0068359375-3.296875-12.24609375-.7333984375-4.2392578125-1.0986328125-8.501953125-1.0986328125-12.794921875.2080078125-9.62890625,2.2490234375-18.943359375,6.123046875-27.9462890625,3.87109375-9.0009765625,9-16.8505859375,15.384765625-23.5498046875,2.9296875-3.03515625,6.41015625-5.625,10.44140625-7.771484375,4.02734375-2.14453125,8.1640625-3.533203125,12.40234375-4.1611328125,4.2392578125-.6279296875,8.400390625-.4169921875,12.482421875.6279296875,4.08203125,1.0478515625,7.6923828125,3.24609375,10.83203125,6.5947265625,2.40625,2.51171875,4.341796875,5.3916015625,5.8095703125,8.634765625,1.4638671875,3.2451171875,2.5634765625,6.4912109375,3.296875,9.7333984375.4169921875,2.095703125.6005859375,4.08203125.5498046875,5.966796875-.0546875,1.8837890625-.498046875,3.6650390625-1.3349609375,5.337890625-1.1533203125,2.0947265625-2.9306640625,3.5859375-5.337890625,4.474609375-2.4091796875.890625-4.7880859375,1.1767578125-7.1435546875.86328125-2.35546875-.314453125-4.396484375-1.2294921875-6.123046875-2.748046875-1.7265625-1.515625-2.5390625-3.583984375-2.43359375-6.201171875Z" fill="#fff" stroke-width="0"/>
              <path d="M375.987304687490905,272.606445312490905c.1025390625,1.8837890625.2080078125,3.8212890625.3134765625,5.80859375.103515625,1.9892578125.025390625,3.822265625-.2353515625,5.4951171875-.2626953125,1.67578125-.7060546875,3.115234375-1.3349609375,4.3173828125-.626953125,1.205078125-1.623046875,1.962890625-2.982421875,2.2763671875-.7333984375.2109375-2.4873046875.314453125-5.259765625.314453125-2.7744140625,0-6.09765625-.103515625-9.96875-.314453125.1025390625,2.7236328125.181640625,5.470703125.234375,8.2431640625.052734375,2.7744140625.130859375,5.5732421875.236328125,8.3994140625-.2109375.8388671875-.576171875,1.5185546875-1.099609375,2.041015625-.5244140625.5244140625-1.283203125.99609375-2.275390625,1.4130859375-.99609375.4189453125-2.43359375.7333984375-4.318359375.94140625-1.78125.2109375-3.6376953125.392578125-5.5732421875.5498046875-1.9384765625.1572265625-3.7431640625.1572265625-5.4169921875,0-1.6748046875-.1572265625-3.1396484375-.5498046875-4.3955078125-1.177734375s-2.041015625-1.62109375-2.3544921875-2.982421875c-.2109375-.9423828125-.341796875-3.140625-.392578125-6.5947265625-.0546875-3.4541015625.0234375-7.5361328125.234375-12.24609375-2.51171875-.2080078125-4.8662109375-.365234375-7.064453125-.470703125-2.197265625-.1025390625-4.08203125-.2080078125-5.65234375-.3134765625-1.8837890625-.103515625-3.6103515625-.208984375-5.1806640625-.314453125-.5244140625.10546875-.99609375-.0517578125-1.4130859375-.470703125-.314453125-.314453125-.6279296875-.8095703125-.94140625-1.4921875-.314453125-.6787109375-.470703125-1.7509765625-.470703125-3.2177734375-.10546875-1.46484375-.1845703125-3.1650390625-.236328125-5.1025390625-.0537109375-1.935546875-.0537109375-3.7685546875,0-5.4951171875.0517578125-1.7275390625.236328125-3.21875.5498046875-4.474609375s.8369140625-1.935546875,1.5693359375-2.041015625l20.25390625-.314453125c.2080078125-2.40625.416015625-4.6044921875.626953125-6.59375.208984375-1.9873046875.41796875-3.7138671875.62890625-5.1806640625.2080078125-1.7783203125.365234375-3.400390625.470703125-4.8671875-.10546875-.4169921875.0517578125-.8369140625.470703125-1.255859375.314453125-.314453125.8369140625-.6279296875,1.5703125-.9423828125.73046875-.3134765625,1.830078125-.470703125,3.296875-.470703125,1.46484375,0,3.1640625.02734375,5.1025390625.078125,1.935546875.0546875,3.7685546875.1572265625,5.4951171875.314453125s3.21875.4189453125,4.474609375.78515625c1.255859375.3681640625,1.8837890625.9169921875,1.8837890625,1.6484375-.10546875,2.72265625-.1845703125,5.443359375-.2353515625,8.1640625-.0546875,2.72265625-.078125,5.443359375-.078125,8.1640625l15.072265625-.1572265625c.73046875.2109375,1.412109375.576171875,2.041015625,1.0986328125.521484375.525390625.9921875,1.283203125,1.412109375,2.2763671875.4169921875.99609375.73046875,2.3828125.9423828125,4.1611328125Z" fill="#fff" stroke-width="0"/>
            </g>
          </g>
        </a>
      </g>
      <g>
        <path d="M550.011718749990905,265.956542968740905c.5869140625.70947265625,1.048828125,1.56494140625,1.3828125,2.56787109375s.4501953125,1.99072265625.349609375,2.96337890625c-.0810546875.74951171875-.3037109375,1.494140625-.6689453125,2.2333984375-.3642578125.740234375-.8310546875,1.39794921875-1.3974609375,1.9755859375-.5673828125.57763671875-1.220703125,1.0439453125-1.9609375,1.39794921875-.7392578125.3544921875-1.5341796875.53173828125-2.384765625.53173828125-.52734375,0-1.064453125-.05615234375-1.611328125-.1669921875-.546875-.111328125-1.0791015625-.2685546875-1.595703125-.47119140625-.5166015625-.2021484375-.998046875-.4658203125-1.443359375-.7900390625-.4453125-.32373046875-.810546875-.69921875-1.09375-1.12451171875-.3037109375-.42529296875-.3955078125-.89111328125-.2734375-1.39794921875.12109375-.56689453125.359375-1.05859375.7138671875-1.47412109375.3544921875-.4150390625.68359375-.75439453125.9873046875-1.01806640625.162109375-.12158203125.365234375-.2021484375.6083984375-.2431640625.2431640625-.0400390625.4755859375.06103515625.69921875.30419921875.3642578125.42529296875.759765625.7646484375,1.1845703125,1.01806640625.42578125.25341796875.845703125.39501953125,1.26171875.42529296875.4150390625.0302734375.8095703125-.060546875,1.1845703125-.2734375s.6943359375-.56201171875.9580078125-1.04833984375c.1416015625-.28369140625.22265625-.58740234375.2431640625-.91162109375.01953125-.32421875-.041015625-.623046875-.1826171875-.89697265625-.1416015625-.2734375-.375-.505859375-.69921875-.69873046875-.32421875-.1923828125-.75-.30859375-1.2763671875-.349609375-.041015625.0205078125-.0712890625.02587890625-.0908203125.01513671875-.0205078125-.009765625-.041015625-.01513671875-.060546875-.01513671875h-.0615234375c-.0205078125.0205078125-.0400390625.0302734375-.060546875.0302734375h-.12109375c-.0615234375-.01953125-.126953125-.03515625-.1982421875-.04541015625-.0712890625-.009765625-.1259765625-.03515625-.1669921875-.076171875-.22265625-.060546875-.375-.24267578125-.4560546875-.546875-.0810546875-.3037109375-.1259765625-.63818359375-.13671875-1.0029296875-.009765625-.36474609375.0048828125-.72412109375.0458984375-1.07861328125.0400390625-.3544921875.0908203125-.61279296875.15234375-.77490234375.080078125-.22314453125.181640625-.41064453125.3037109375-.5625.12109375-.15185546875.2626953125-.22802734375.42578125-.22802734375.505859375,0,.951171875-.16162109375,1.3369140625-.48583984375.384765625-.32421875.658203125-.68896484375.8203125-1.09423828125s.1875-.78515625.076171875-1.1396484375-.4208984375-.5517578125-.9267578125-.5927734375c-.3447265625-.0400390625-.71484375.06591796875-1.109375.3193359375-.3955078125.25341796875-.724609375.64306640625-.98828125,1.169921875-.1015625.20263671875-.181640625.400390625-.2431640625.5927734375-.060546875.1923828125-.2119140625.33935546875-.455078125.4404296875-.203125.0810546875-.3955078125.12158203125-.578125.12158203125-.587890625,0-1.1494140625-.171875-1.6865234375-.5166015625-.537109375-.34423828125-.896484375-.83056640625-1.0791015625-1.458984375-.0810546875-.38427734375-.0703125-.759765625.03125-1.1240234375.1005859375-.36474609375.2529296875-.71923828125.455078125-1.06396484375.3447265625-.56689453125.7802734375-1.0634765625,1.3076171875-1.4892578125.5263671875-.42529296875,1.1083984375-.76416015625,1.7470703125-1.01806640625.6376953125-.2529296875,1.31640625-.41015625,2.0361328125-.470703125.71875-.06103515625,1.443359375,0,2.1728515625.18212890625.912109375.22314453125,1.6611328125.6435546875,2.2490234375,1.26123046875.5869140625.6181640625.998046875,1.3525390625,1.23046875,2.203125.2333984375.85107421875.2734375,1.783203125.1220703125,2.79638671875-.15234375,1.01318359375-.51171875,2.04638671875-1.0791015625,3.099609375Z" fill="none" stroke="#181818" stroke-width="5.631003379821777"/>
        <path d="M550.011718749990905,265.956542968740905c.5869140625.70947265625,1.048828125,1.56494140625,1.3828125,2.56787109375s.4501953125,1.99072265625.349609375,2.96337890625c-.0810546875.74951171875-.3037109375,1.494140625-.6689453125,2.2333984375-.3642578125.740234375-.8310546875,1.39794921875-1.3974609375,1.9755859375-.5673828125.57763671875-1.220703125,1.0439453125-1.9609375,1.39794921875-.7392578125.3544921875-1.5341796875.53173828125-2.384765625.53173828125-.52734375,0-1.064453125-.05615234375-1.611328125-.1669921875-.546875-.111328125-1.0791015625-.2685546875-1.595703125-.47119140625-.5166015625-.2021484375-.998046875-.4658203125-1.443359375-.7900390625-.4453125-.32373046875-.810546875-.69921875-1.09375-1.12451171875-.3037109375-.42529296875-.3955078125-.89111328125-.2734375-1.39794921875.12109375-.56689453125.359375-1.05859375.7138671875-1.47412109375.3544921875-.4150390625.68359375-.75439453125.9873046875-1.01806640625.162109375-.12158203125.365234375-.2021484375.6083984375-.2431640625.2431640625-.0400390625.4755859375.06103515625.69921875.30419921875.3642578125.42529296875.759765625.7646484375,1.1845703125,1.01806640625.42578125.25341796875.845703125.39501953125,1.26171875.42529296875.4150390625.0302734375.8095703125-.060546875,1.1845703125-.2734375s.6943359375-.56201171875.9580078125-1.04833984375c.1416015625-.28369140625.22265625-.58740234375.2431640625-.91162109375.01953125-.32421875-.041015625-.623046875-.1826171875-.89697265625-.1416015625-.2734375-.375-.505859375-.69921875-.69873046875-.32421875-.1923828125-.75-.30859375-1.2763671875-.349609375-.041015625.0205078125-.0712890625.02587890625-.0908203125.01513671875-.0205078125-.009765625-.041015625-.01513671875-.060546875-.01513671875h-.0615234375c-.0205078125.0205078125-.0400390625.0302734375-.060546875.0302734375h-.12109375c-.0615234375-.01953125-.126953125-.03515625-.1982421875-.04541015625-.0712890625-.009765625-.1259765625-.03515625-.1669921875-.076171875-.22265625-.060546875-.375-.24267578125-.4560546875-.546875-.0810546875-.3037109375-.1259765625-.63818359375-.13671875-1.0029296875-.009765625-.36474609375.0048828125-.72412109375.0458984375-1.07861328125.0400390625-.3544921875.0908203125-.61279296875.15234375-.77490234375.080078125-.22314453125.181640625-.41064453125.3037109375-.5625.12109375-.15185546875.2626953125-.22802734375.42578125-.22802734375.505859375,0,.951171875-.16162109375,1.3369140625-.48583984375.384765625-.32421875.658203125-.68896484375.8203125-1.09423828125s.1875-.78515625.076171875-1.1396484375-.4208984375-.5517578125-.9267578125-.5927734375c-.3447265625-.0400390625-.71484375.06591796875-1.109375.3193359375-.3955078125.25341796875-.724609375.64306640625-.98828125,1.169921875-.1015625.20263671875-.181640625.400390625-.2431640625.5927734375-.060546875.1923828125-.2119140625.33935546875-.455078125.4404296875-.203125.0810546875-.3955078125.12158203125-.578125.12158203125-.587890625,0-1.1494140625-.171875-1.6865234375-.5166015625-.537109375-.34423828125-.896484375-.83056640625-1.0791015625-1.458984375-.0810546875-.38427734375-.0703125-.759765625.03125-1.1240234375.1005859375-.36474609375.2529296875-.71923828125.455078125-1.06396484375.3447265625-.56689453125.7802734375-1.0634765625,1.3076171875-1.4892578125.5263671875-.42529296875,1.1083984375-.76416015625,1.7470703125-1.01806640625.6376953125-.2529296875,1.31640625-.41015625,2.0361328125-.470703125.71875-.06103515625,1.443359375,0,2.1728515625.18212890625.912109375.22314453125,1.6611328125.6435546875,2.2490234375,1.26123046875.5869140625.6181640625.998046875,1.3525390625,1.23046875,2.203125.2333984375.85107421875.2734375,1.783203125.1220703125,2.79638671875-.15234375,1.01318359375-.51171875,2.04638671875-1.0791015625,3.099609375Z" fill="#231f20" stroke-width="0"/>
        <path d="M550.011718749990905,265.956542968740905c.5869140625.70947265625,1.048828125,1.56494140625,1.3828125,2.56787109375s.4501953125,1.99072265625.349609375,2.96337890625c-.0810546875.74951171875-.3037109375,1.494140625-.6689453125,2.2333984375-.3642578125.740234375-.8310546875,1.39794921875-1.3974609375,1.9755859375-.5673828125.57763671875-1.220703125,1.0439453125-1.9609375,1.39794921875-.7392578125.3544921875-1.5341796875.53173828125-2.384765625.53173828125-.52734375,0-1.064453125-.05615234375-1.611328125-.1669921875-.546875-.111328125-1.0791015625-.2685546875-1.595703125-.47119140625-.5166015625-.2021484375-.998046875-.4658203125-1.443359375-.7900390625-.4453125-.32373046875-.810546875-.69921875-1.09375-1.12451171875-.3037109375-.42529296875-.3955078125-.89111328125-.2734375-1.39794921875.12109375-.56689453125.359375-1.05859375.7138671875-1.47412109375.3544921875-.4150390625.68359375-.75439453125.9873046875-1.01806640625.162109375-.12158203125.365234375-.2021484375.6083984375-.2431640625.2431640625-.0400390625.4755859375.06103515625.69921875.30419921875.3642578125.42529296875.759765625.7646484375,1.1845703125,1.01806640625.42578125.25341796875.845703125.39501953125,1.26171875.42529296875.4150390625.0302734375.8095703125-.060546875,1.1845703125-.2734375s.6943359375-.56201171875.9580078125-1.04833984375c.1416015625-.28369140625.22265625-.58740234375.2431640625-.91162109375.01953125-.32421875-.041015625-.623046875-.1826171875-.89697265625-.1416015625-.2734375-.375-.505859375-.69921875-.69873046875-.32421875-.1923828125-.75-.30859375-1.2763671875-.349609375-.041015625.0205078125-.0712890625.02587890625-.0908203125.01513671875-.0205078125-.009765625-.041015625-.01513671875-.060546875-.01513671875h-.0615234375c-.0205078125.0205078125-.0400390625.0302734375-.060546875.0302734375h-.12109375c-.0615234375-.01953125-.126953125-.03515625-.1982421875-.04541015625-.0712890625-.009765625-.1259765625-.03515625-.1669921875-.076171875-.22265625-.060546875-.375-.24267578125-.4560546875-.546875-.0810546875-.3037109375-.1259765625-.63818359375-.13671875-1.0029296875-.009765625-.36474609375.0048828125-.72412109375.0458984375-1.07861328125.0400390625-.3544921875.0908203125-.61279296875.15234375-.77490234375.080078125-.22314453125.181640625-.41064453125.3037109375-.5625.12109375-.15185546875.2626953125-.22802734375.42578125-.22802734375.505859375,0,.951171875-.16162109375,1.3369140625-.48583984375.384765625-.32421875.658203125-.68896484375.8203125-1.09423828125s.1875-.78515625.076171875-1.1396484375-.4208984375-.5517578125-.9267578125-.5927734375c-.3447265625-.0400390625-.71484375.06591796875-1.109375.3193359375-.3955078125.25341796875-.724609375.64306640625-.98828125,1.169921875-.1015625.20263671875-.181640625.400390625-.2431640625.5927734375-.060546875.1923828125-.2119140625.33935546875-.455078125.4404296875-.203125.0810546875-.3955078125.12158203125-.578125.12158203125-.587890625,0-1.1494140625-.171875-1.6865234375-.5166015625-.537109375-.34423828125-.896484375-.83056640625-1.0791015625-1.458984375-.0810546875-.38427734375-.0703125-.759765625.03125-1.1240234375.1005859375-.36474609375.2529296875-.71923828125.455078125-1.06396484375.3447265625-.56689453125.7802734375-1.0634765625,1.3076171875-1.4892578125.5263671875-.42529296875,1.1083984375-.76416015625,1.7470703125-1.01806640625.6376953125-.2529296875,1.31640625-.41015625,2.0361328125-.470703125.71875-.06103515625,1.443359375,0,2.1728515625.18212890625.912109375.22314453125,1.6611328125.6435546875,2.2490234375,1.26123046875.5869140625.6181640625.998046875,1.3525390625,1.23046875,2.203125.2333984375.85107421875.2734375,1.783203125.1220703125,2.79638671875-.15234375,1.01318359375-.51171875,2.04638671875-1.0791015625,3.099609375Z" fill="#e2dddb" stroke-width="0"/>
      </g>
      <g>
        <path d="M372.068359374990905,535.972167968740905c.912109375.6689453125,1.560546875,1.43359375,1.9453125,2.29443359375.384765625.86181640625.55078125,1.73779296875.501953125,2.62890625-.05078125.89208984375-.294921875,1.7626953125-.73046875,2.61376953125s-1.0078125,1.6005859375-1.716796875,2.2490234375-1.53515625,1.15966796875-2.4765625,1.53466796875c-.94140625.37451171875-1.939453125.53173828125-2.994140625.470703125-.689453125-.04052734375-1.40234375-.18212890625-2.142578125-.42529296875-.73828125-.2431640625-1.423828125-.58203125-2.05078125-1.01806640625-.62890625-.435546875-1.166015625-.96728515625-1.611328125-1.595703125-.4453125-.62744140625-.728515625-1.3369140625-.849609375-2.126953125-.123046875-1.1552734375.060546875-2.19287109375.546875-3.115234375.486328125-.921875,1.154296875-1.75732421875,2.005859375-2.50732421875-1.09375-.9521484375-1.7734375-2.015625-2.037109375-3.19091796875-.263671875-1.1748046875-.193359375-2.29931640625.212890625-3.37353515625.263671875-.708984375.626953125-1.30126953125,1.09375-1.77783203125.466796875-.4755859375.98828125-.8662109375,1.56640625-1.169921875.576171875-.3037109375,1.205078125-.53173828125,1.8828125-.68359375.6796875-.15234375,1.36328125-.248046875,2.052734375-.2890625.7890625-.0400390625,1.57421875.06103515625,2.353515625.30419921875.78125.2431640625,1.484375.587890625,2.11328125,1.033203125.626953125.44580078125,1.150390625.9775390625,1.564453125,1.595703125.416015625.6181640625.673828125,1.28125.775390625,1.990234375.1015625.70947265625.00390625,1.4541015625-.2890625,2.23388671875-.29296875.7802734375-.845703125,1.544921875-1.65625,2.29443359375-.01953125,0-.029296875.00537109375-.029296875.01513671875,0,.0107421875-.01171875.01513671875-.03125.01513671875ZM364.804687499990905,541.381835937490905c-.162109375.486328125-.181640625.90673828125-.060546875,1.26123046875s.32421875.63330078125.607421875.8359375.62890625.32421875,1.033203125.3642578125c.40625.041015625.80078125-.009765625,1.185546875-.15185546875.52734375-.18212890625.927734375-.48095703125,1.201171875-.896484375.2734375-.4150390625.419921875-.85546875.439453125-1.32177734375.021484375-.4658203125-.08984375-.92724609375-.333984375-1.3828125-.2421875-.4560546875-.626953125-.8154296875-1.154296875-1.0791015625-.283203125.0205078125-.572265625.0966796875-.865234375.22802734375-.294921875.1318359375-.57421875.3037109375-.8359375.5166015625-.263671875.212890625-.501953125.4609375-.71484375.74462890625-.212890625.2841796875-.380859375.57763671875-.501953125.88134765625ZM367.083984374990905,530.106933593740905c-.486328125,0-.921875.16259765625-1.306640625.486328125-.384765625.32421875-.65234375.70947265625-.8046875,1.15478515625-.15234375.44580078125-.1484375.90673828125.015625,1.3828125.16015625.47607421875.53515625.87646484375,1.123046875,1.2001953125.263671875-.1416015625.54296875-.283203125.8359375-.42529296875.29296875-.1416015625.552734375-.32373046875.775390625-.546875.546875-.50634765625.890625-.96728515625,1.033203125-1.3828125.140625-.4150390625.146484375-.77001953125.015625-1.06396484375-.1328125-.29345703125-.35546875-.51123046875-.669921875-.6533203125-.3125-.1416015625-.65234375-.1923828125-1.017578125-.15185546875Z" fill="none" stroke="#181818" stroke-width="5.631003379821777"/>
        <path d="M372.068359374990905,535.972167968740905c.912109375.6689453125,1.560546875,1.43359375,1.9453125,2.29443359375.384765625.86181640625.55078125,1.73779296875.501953125,2.62890625-.05078125.89208984375-.294921875,1.7626953125-.73046875,2.61376953125s-1.0078125,1.6005859375-1.716796875,2.2490234375-1.53515625,1.15966796875-2.4765625,1.53466796875c-.94140625.37451171875-1.939453125.53173828125-2.994140625.470703125-.689453125-.04052734375-1.40234375-.18212890625-2.142578125-.42529296875-.73828125-.2431640625-1.423828125-.58203125-2.05078125-1.01806640625-.62890625-.435546875-1.166015625-.96728515625-1.611328125-1.595703125-.4453125-.62744140625-.728515625-1.3369140625-.849609375-2.126953125-.123046875-1.1552734375.060546875-2.19287109375.546875-3.115234375.486328125-.921875,1.154296875-1.75732421875,2.005859375-2.50732421875-1.09375-.9521484375-1.7734375-2.015625-2.037109375-3.19091796875-.263671875-1.1748046875-.193359375-2.29931640625.212890625-3.37353515625.263671875-.708984375.626953125-1.30126953125,1.09375-1.77783203125.466796875-.4755859375.98828125-.8662109375,1.56640625-1.169921875.576171875-.3037109375,1.205078125-.53173828125,1.8828125-.68359375.6796875-.15234375,1.36328125-.248046875,2.052734375-.2890625.7890625-.0400390625,1.57421875.06103515625,2.353515625.30419921875.78125.2431640625,1.484375.587890625,2.11328125,1.033203125.626953125.44580078125,1.150390625.9775390625,1.564453125,1.595703125.416015625.6181640625.673828125,1.28125.775390625,1.990234375.1015625.70947265625.00390625,1.4541015625-.2890625,2.23388671875-.29296875.7802734375-.845703125,1.544921875-1.65625,2.29443359375-.01953125,0-.029296875.00537109375-.029296875.01513671875,0,.0107421875-.01171875.01513671875-.03125.01513671875ZM364.804687499990905,541.381835937490905c-.162109375.486328125-.181640625.90673828125-.060546875,1.26123046875s.32421875.63330078125.607421875.8359375.62890625.32421875,1.033203125.3642578125c.40625.041015625.80078125-.009765625,1.185546875-.15185546875.52734375-.18212890625.927734375-.48095703125,1.201171875-.896484375.2734375-.4150390625.419921875-.85546875.439453125-1.32177734375.021484375-.4658203125-.08984375-.92724609375-.333984375-1.3828125-.2421875-.4560546875-.626953125-.8154296875-1.154296875-1.0791015625-.283203125.0205078125-.572265625.0966796875-.865234375.22802734375-.294921875.1318359375-.57421875.3037109375-.8359375.5166015625-.263671875.212890625-.501953125.4609375-.71484375.74462890625-.212890625.2841796875-.380859375.57763671875-.501953125.88134765625ZM367.083984374990905,530.106933593740905c-.486328125,0-.921875.16259765625-1.306640625.486328125-.384765625.32421875-.65234375.70947265625-.8046875,1.15478515625-.15234375.44580078125-.1484375.90673828125.015625,1.3828125.16015625.47607421875.53515625.87646484375,1.123046875,1.2001953125.263671875-.1416015625.54296875-.283203125.8359375-.42529296875.29296875-.1416015625.552734375-.32373046875.775390625-.546875.546875-.50634765625.890625-.96728515625,1.033203125-1.3828125.140625-.4150390625.146484375-.77001953125.015625-1.06396484375-.1328125-.29345703125-.35546875-.51123046875-.669921875-.6533203125-.3125-.1416015625-.65234375-.1923828125-1.017578125-.15185546875Z" fill="#231f20" stroke-width="0"/>
        <path d="M372.068359374990905,535.972167968740905c.912109375.6689453125,1.560546875,1.43359375,1.9453125,2.29443359375.384765625.86181640625.55078125,1.73779296875.501953125,2.62890625-.05078125.89208984375-.294921875,1.7626953125-.73046875,2.61376953125s-1.0078125,1.6005859375-1.716796875,2.2490234375-1.53515625,1.15966796875-2.4765625,1.53466796875c-.94140625.37451171875-1.939453125.53173828125-2.994140625.470703125-.689453125-.04052734375-1.40234375-.18212890625-2.142578125-.42529296875-.73828125-.2431640625-1.423828125-.58203125-2.05078125-1.01806640625-.62890625-.435546875-1.166015625-.96728515625-1.611328125-1.595703125-.4453125-.62744140625-.728515625-1.3369140625-.849609375-2.126953125-.123046875-1.1552734375.060546875-2.19287109375.546875-3.115234375.486328125-.921875,1.154296875-1.75732421875,2.005859375-2.50732421875-1.09375-.9521484375-1.7734375-2.015625-2.037109375-3.19091796875-.263671875-1.1748046875-.193359375-2.29931640625.212890625-3.37353515625.263671875-.708984375.626953125-1.30126953125,1.09375-1.77783203125.466796875-.4755859375.98828125-.8662109375,1.56640625-1.169921875.576171875-.3037109375,1.205078125-.53173828125,1.8828125-.68359375.6796875-.15234375,1.36328125-.248046875,2.052734375-.2890625.7890625-.0400390625,1.57421875.06103515625,2.353515625.30419921875.78125.2431640625,1.484375.587890625,2.11328125,1.033203125.626953125.44580078125,1.150390625.9775390625,1.564453125,1.595703125.416015625.6181640625.673828125,1.28125.775390625,1.990234375.1015625.70947265625.00390625,1.4541015625-.2890625,2.23388671875-.29296875.7802734375-.845703125,1.544921875-1.65625,2.29443359375-.01953125,0-.029296875.00537109375-.029296875.01513671875,0,.0107421875-.01171875.01513671875-.03125.01513671875ZM364.804687499990905,541.381835937490905c-.162109375.486328125-.181640625.90673828125-.060546875,1.26123046875s.32421875.63330078125.607421875.8359375.62890625.32421875,1.033203125.3642578125c.40625.041015625.80078125-.009765625,1.185546875-.15185546875.52734375-.18212890625.927734375-.48095703125,1.201171875-.896484375.2734375-.4150390625.419921875-.85546875.439453125-1.32177734375.021484375-.4658203125-.08984375-.92724609375-.333984375-1.3828125-.2421875-.4560546875-.626953125-.8154296875-1.154296875-1.0791015625-.283203125.0205078125-.572265625.0966796875-.865234375.22802734375-.294921875.1318359375-.57421875.3037109375-.8359375.5166015625-.263671875.212890625-.501953125.4609375-.71484375.74462890625-.212890625.2841796875-.380859375.57763671875-.501953125.88134765625ZM367.083984374990905,530.106933593740905c-.486328125,0-.921875.16259765625-1.306640625.486328125-.384765625.32421875-.65234375.70947265625-.8046875,1.15478515625-.15234375.44580078125-.1484375.90673828125.015625,1.3828125.16015625.47607421875.53515625.87646484375,1.123046875,1.2001953125.263671875-.1416015625.54296875-.283203125.8359375-.42529296875.29296875-.1416015625.552734375-.32373046875.775390625-.546875.546875-.50634765625.890625-.96728515625,1.033203125-1.3828125.140625-.4150390625.146484375-.77001953125.015625-1.06396484375-.1328125-.29345703125-.35546875-.51123046875-.669921875-.6533203125-.3125-.1416015625-.65234375-.1923828125-1.017578125-.15185546875Z" fill="#e2dddb" stroke-width="0"/>
      </g>
    </g>
  </g>
</svg>