<?xml version="1.0" encoding="UTF-8"?>
<svg id="Layer_1" data-name="Layer 1" xmlns="http://www.w3.org/2000/svg" xmlns:xlink="http://www.w3.org/1999/xlink" viewBox="0 0 600 599.999999999998181">
  <defs>
    <linearGradient id="C2-5" data-name="C2" x1="267.309528072320973" y1="392.710640600996157" x2="330.042362491314577" y2="306.253388801741153" gradientUnits="userSpaceOnUse">
      <stop offset="0" stop-color="#4b9669"/>
      <stop offset=".255090837540483" stop-color="#5b9860"/>
      <stop offset=".504273504273504" stop-color="#679a5a"/>
      <stop offset=".73867440451623" stop-color="#699a58"/>
      <stop offset=".893404221137991" stop-color="#729c52"/>
      <stop offset="1" stop-color="#7e9e4c"/>
    </linearGradient>
  </defs>
  <g id="pie_with_links_-5" data-name="pie (with links)">
    <g id="pie_with_links_-6" data-name="pie (with links)">
      <g id="Pie">
        <g>
          <a xlink:href="https://www.notion.so/dmmnotes/paranoid-ae38b1e6af0c4dd08f61e0d8f6e9f05f?pvs=4">
            <path id="C8" d="M331.30810546875,517.749511718748181l7.825683593739086,54.4306640625c26.439208984371362-3.767822265629547,51.645751953141371-11.3115234375,75.101318359371362-22.04296875l-22.832519531240905-49.996826171879547c-18.7666015625,8.572265625-38.93505859375,14.601318359379547-60.094482421869543,17.609130859379547Z" fill="none" stroke="#181818" stroke-linecap="round" stroke-linejoin="round" stroke-width="15"/>
          </a>
          <a xlink:href="https://www.notion.so/dmmnotes/menacing-a5bd7149286344deba45ec15e759e579?pvs=4">
            <path id="C7" d="M391.402587890619543,500.140380859368634l22.832519531240905,49.996826171879547c23.989990234389552-10.975830078117724,46.116210937520009-25.287109375010914,65.803955078139552-42.36181640625l-35.972900390630457-41.515869140617724c-15.753417968759095,13.65869140625-33.459228515630457,25.104492187488177-52.66357421875,33.880859374988177Z" fill="none" stroke="#181818" stroke-linecap="round" stroke-linejoin="round" stroke-width="15"/>
          </a>
          <a xlink:href="https://www.notion.so/dmmnotes/seductively-obsessed-with-rescue-6fb5a68f6d334bc29ccccc16d8a4e56e?pvs=4">
            <path id="C6" d="M444.066162109369543,466.259521484380457l35.972900390630457,41.515869140617724c19.762939453119543-17.141845703129547,37.047119140619543-37.041748046879547,51.26708984375-59.125l-46.223632812510914-29.704833984367724c-11.373291015619543,17.673583984367724-25.201171874989086,33.598876953117724-41.016357421869543,47.31396484375Z" fill="none" stroke="#181818" stroke-linecap="round" stroke-linejoin="round" stroke-width="15"/>
          </a>
          <a xlink:href="https://www.notion.so/dmmnotes/punitively-obsessed-with-revenge-33d2e77f37774316b42bccf4a60f9688?pvs=4">
            <path id="C5" d="M485.082519531239086,418.945556640630457l46.223632812510914,29.704833984367724c14.048095703130457-21.809326171878638,25.08837890625-45.718749999998181,32.551513671869543-71.175048828128638l-52.7548828125-15.490234375c-5.9619140625,20.377929687510914-14.789306640619543,39.509765625-26.020263671880457,56.960449218760914Z" fill="none" stroke="#181818" stroke-linecap="round" stroke-linejoin="round" stroke-width="15"/>
          </a>
          <a xlink:href="https://www.notion.so/dmmnotes/feigned-helpless-e79a94b0498c4e109a681b7f3dcdb088?pvs=4">
            <path id="C4" d="M519.999999999989086,300c0,21.5380859375-3.142089843739086,42.321533203119543-8.897216796869543,61.985107421869543l52.7548828125,15.490234375c7.2080078125-24.583496093739086,11.142333984369543-50.5634765625,11.142333984369543-77.475341796869543h-55Z" fill="none" stroke="#181818" stroke-linecap="round" stroke-linejoin="round" stroke-width="15"/>
          </a>
          <a xlink:href="https://www.notion.so/dmmnotes/aggressive-2d8ccce383534b9dbfc7b4b10b8a5d5c?pvs=4">
            <path id="C3" d="M519.999999999989086,300h55c0-26.911865234389552-3.934326171869543-52.894531250010004-11.142333984369543-77.475341796889552l-52.7548828125,15.490234375c5.755126953130457,19.663574218759095,8.897216796869543,40.449707031259095,8.897216796869543,61.985107421889552Z" fill="none" stroke="#181818" stroke-linecap="round" stroke-linejoin="round" stroke-width="15"/>
          </a>
          <a xlink:href="https://www.notion.so/dmmnotes/threatening-348fe6a52f7a4fe69f768e98c6586932?pvs=4">
            <path id="C1" d="M485.082519531239086,181.054443359369543l46.223632812510914-29.70751953125c-14.219970703130457-22.08056640625-31.504150390630457-41.980468750009095-51.26708984375-59.122314453119543l-35.972900390630457,41.518554687489996c15.815185546880457,13.71240234375,29.64306640625,29.637695312510004,41.016357421869543,47.311279296879547Z" fill="none" stroke="#181818" stroke-linecap="round" stroke-linejoin="round" stroke-width="15"/>
          </a>
          <a xlink:href="https://www.notion.so/dmmnotes/complaining-acceptance-8b40401a720c493ba73f7cde1567cf3d?pvs=4">
            <path id="B5" d="M444.066162109369543,133.743164062489996l35.972900390630457-41.518554687489996c-19.687744140619543-17.07470703125-41.81396484375-31.388671875-65.803955078139552-42.36181640625l-22.832519531240905,49.99951171875c19.204345703119543,8.773681640619543,36.910156249990905,20.22216796875,52.66357421875,33.880859374989996Z" fill="none" stroke="#181818" stroke-linecap="round" stroke-linejoin="round" stroke-width="15"/>
          </a>
          <a xlink:href="https://www.notion.so/dmmnotes/sentimental-bc554363322342b1b7ca4ccc02125049?pvs=4">
            <path id="B4" d="M391.402587890619543,99.8623046875l22.832519531240905-49.99951171875c-23.455566406229991-10.7314453125-48.662109375-18.275146484389552-75.101318359371362-22.042968749989996l-7.825683593739086,54.433349609359539c21.159423828119543,3.0078125,41.327880859369543,9.034179687490905,60.094482421869543,17.609130859380457Z" fill="none" stroke="#181818" stroke-linecap="round" stroke-linejoin="round" stroke-width="15"/>
          </a>
          <a xlink:href="https://www.notion.so/dmmnotes/comfortably-balanced-e76dc615a8b947aa915377cd02fcf716?pvs=4">
            <path id="B3" d="M299.999999999989086,80c10.634765625,0,21.078857421880457.797607421869543,31.308105468760914,2.253173828119543l7.825683593739086-54.433349609359539c-12.788574218728172-1.823486328140461-25.843017578119543-2.819824218760004-39.1337890625-2.819824218760004-13.290771484358629,0-26.34521484375.996337890619543-39.133789062478172,2.819824218760004l7.825683593728172,54.433349609359539c10.23193359375-1.45556640625,20.67333984375-2.253173828119543,31.30810546875-2.253173828119543Z" fill="none" stroke="#181818" stroke-linecap="round" stroke-linejoin="round" stroke-width="15"/>
          </a>
          <a xlink:href="https://www.notion.so/dmmnotes/accepting-317d81273fff4cd9817cdf4a88efd378?pvs=4">
            <path id="B2" d="M268.691894531239086,82.253173828119543l-7.825683593728172-54.433349609359539c-26.439208984391371,3.767822265600444-51.643066406271828,11.311523437489996-75.098632812521828,22.042968749989996l22.83251953125,49.99951171875c18.7666015625-8.574951171889552,38.93505859375-14.601318359380457,60.091796875-17.609130859380457Z" fill="none" stroke="#181818" stroke-linecap="round" stroke-linejoin="round" stroke-width="15"/>
          </a>
          <a xlink:href="https://www.notion.so/dmmnotes/distanced-from-past-2eabab7e9c77429f8e577f4e3e203653?pvs=4">
            <path id="B1" d="M208.600097656239086,99.8623046875l-22.83251953125-49.99951171875c-23.99267578125,10.97314453125-46.1162109375,25.287109375-65.803955078108629,42.36181640625l35.972900390608629,41.515869140619543c15.75341796875-13.658691406259095,33.4619140625-25.1044921875,52.66357421875-33.878173828119543Z" fill="none" stroke="#181818" stroke-linecap="round" stroke-linejoin="round" stroke-width="15"/>
          </a>
          <a xlink:href="https://www.notion.so/dmmnotes/idealising-a52277f51ed14a42aae78081bb34b8be?pvs=4">
            <path id="A1" d="M155.936523437489086,133.740478515619543l-35.972900390608629-41.515869140619543c-19.765625,17.141845703110448-37.049804687510914,37.041748046869543-51.269775390641371,59.122314453119543l46.226318359380457,29.70751953125c11.373291015641371-17.673583984369543,25.201171875010914-33.598876953129547,41.016357421869543-47.31396484375Z" fill="none" stroke="#181818" stroke-linecap="round" stroke-linejoin="round" stroke-width="15"/>
          </a>
          <a xlink:href="https://www.notion.so/dmmnotes/distancing-9ac690cdca654729a17a5a255944e2d1?pvs=4">
            <path id="A2" d="M114.920166015619543,181.054443359369543l-46.226318359380457-29.70751953125c-14.04541015625,21.81201171875-25.08837890625,45.721435546870453-32.551513671869543,71.177734374990905l52.754882812510914,15.490234375c5.964599609358629-20.375244140620453,14.7919921875-39.509765624990905,26.022949218739086-56.960449218740905Z" fill="none" stroke="#181818" stroke-linecap="round" stroke-linejoin="round" stroke-width="15"/>
          </a>
          <a xlink:href="https://www.notion.so/dmmnotes/compulsive-caregiving-9c380c0928294f41ae10764aa0dee886?pvs=4">
            <path id="A3" d="M88.897216796880457,238.014892578110448l-52.754882812510914-15.490234375c-7.205322265630457,24.580810546879547-11.142333984380457,50.5634765625-11.142333984380457,77.475341796889552h55c0-21.535400390630457,3.14208984375-42.321533203130457,8.897216796891371-61.985107421889552Z" fill="none" stroke="#181818" stroke-linecap="round" stroke-linejoin="round" stroke-width="15"/>
          </a>
          <a xlink:href="https://www.notion.so/dmmnotes/compulsive-compliance-6d08b7ea9a424ce1a72b9184b7850414?pvs=4">
            <path id="A4" d="M79.999999999989086,300H24.999999999989086c0,26.911865234369543,3.93701171875,52.894531249989996,11.142333984380457,77.475341796869543l52.754882812510914-15.490234375c-5.755126953141371-19.66357421875-8.897216796891371-40.447021484369543-8.897216796891371-61.985107421869543Z" fill="none" stroke="#181818" stroke-linecap="round" stroke-linejoin="round" stroke-width="15"/>
          </a>
          <a xlink:href="https://www.notion.so/dmmnotes/sexual-supplementation-8e85f49046ef412aa229745abf7d38d3?pvs=4">
            <path id="A5" d="M88.897216796880457,361.985107421869543l-52.754882812510914,15.490234375c7.463134765619543,25.456298828130457,18.506103515619543,49.36572265625,32.551513671869543,71.175048828128638l46.223632812521828-29.704833984367724c-11.230957031271828-17.450683593760914-20.055664062521828-36.58251953125-26.020263671880457-56.960449218760914Z" fill="none" stroke="#181818" stroke-linecap="round" stroke-linejoin="round" stroke-width="15"/>
          </a>
          <a xlink:href="https://www.notion.so/dmmnotes/compulsive-isolated-self-reliance-b321873a73fa41aaaadd7192fde856a2?pvs=4">
            <path id="A6" d="M114.917480468760914,418.945556640630457l-46.223632812521828,29.704833984367724c14.219970703130457,22.083251953120453,31.504150390641371,41.983154296870453,51.269775390641371,59.125l35.972900390608629-41.515869140617724c-15.815185546858629-13.712402343761823-29.643066406228172-29.637695312511823-41.019042968728172-47.31396484375Z" fill="none" stroke="#181818" stroke-linecap="round" stroke-linejoin="round" stroke-width="15"/>
          </a>
          <a xlink:href="https://www.notion.so/dmmnotes/delusional-idealization-743e2420b9994a48a7cab68190432e8a?pvs=4">
            <path id="A7" d="M155.936523437489086,466.259521484380457l-35.972900390608629,41.515869140617724c19.687744140608629,17.074707031239086,41.811279296858629,31.385986328132276,65.803955078108629,42.36181640625l22.83251953125-49.996826171879547c-19.20166015625-8.773681640620453-36.91015625-20.222167968738177-52.66357421875-33.880859374988177Z" fill="none" stroke="#181818" stroke-linecap="round" stroke-linejoin="round" stroke-width="15"/>
          </a>
          <a xlink:href="https://www.notion.so/dmmnotes/externally-assembled-self-994ecb0895b844409b931d74a045c162?pvs=4">
            <path id="A8" d="M208.600097656239086,500.140380859368634l-22.83251953125,49.996826171879547c23.45556640625,10.7314453125,48.659423828130457,18.275146484370453,75.098632812521828,22.04296875l7.825683593728172-54.4306640625c-21.15673828125-3.0078125-41.3251953125-9.0341796875-60.091796875-17.609130859379547Z" fill="none" stroke="#181818" stroke-linecap="round" stroke-linejoin="round" stroke-width="15"/>
          </a>
          <a xlink:href="https://www.notion.so/dmmnotes/psychopathy-0fe4a3222d9f4fd097ab4546c9776768?pvs=4">
            <path id="AC" d="M299.999999999989086,519.999999999998181c-10.634765625,0-21.076171875-.794921875-31.30810546875-2.25048828125l-7.825683593728172,54.4306640625c12.788574218728172,1.823486328132276,25.843017578119543,2.81982421875,39.133789062478172,2.81982421875,13.290771484380457,0,26.345214843771828-.996337890617724,39.1337890625-2.81982421875l-7.825683593739086-54.4306640625c-10.229248046880457,1.45556640625-20.673339843760914,2.25048828125-31.308105468760914,2.25048828125Z" fill="none" stroke="#181818" stroke-linecap="round" stroke-linejoin="round" stroke-width="15"/>
          </a>
          <a xlink:href="https://www.notion.so/dmmnotes/disarming-086276e599884c86b9359acf831a8b20?pvs=4">
            <g id="C2">
              <path d="M511.1025390625,239.014648437489996c-.166015625,0-.3310546875-.04150390625-.4794921875-.12255859375-.2333984375-.12744140625-.4052734375-.341796875-.48046875-.5966796875-5.861328125-20.02685546875-14.576171875-39.103515625-25.9013671875-56.69970703125-.1435546875-.22314453125-.1923828125-.494140625-.13671875-.75341796875.056640625-.25927734375.2138671875-.4853515625.4365234375-.62890625l46.224609375-29.70751953125c.16796875-.107421875.3544921875-.15869140625.5400390625-.15869140625.3291015625,0,.650390625.16162109375.841796875.45849609375,14.2822265625,22.1767578125,25.2744140625,46.21142578125,32.669921875,71.4375.1552734375.52978515625-.1484375,1.0849609375-.6787109375,1.24072265625l-52.7548828125,15.490234375c-.091796875.02734375-.1865234375.04052734375-.28125.04052734375Z" fill="none" stroke="#181818" stroke-linecap="round" stroke-linejoin="round" stroke-width="15"/>
              <path d="M531.30615234375,151.346923828119543c14.048095703130457,21.81201171875,25.08837890625,45.721435546870453,32.551513671880457,71.177734375l-52.7548828125,15.490234375c-5.964599609380457-20.375244140629547-14.789306640630457-39.509765625-26.020263671880457-56.96044921875l46.2236328125-29.70751953125M531.30419921875,149.346679687489996c-.3701171875,0-.744873046869543.102722167969659-1.079345703119543.317779541020172l-46.2236328125,29.70751953125c-.446533203130457.286895751949487-.760498046880457.739440917969659-.873046875,1.257995605469659-.11279296875.5185546875-.0146484375,1.060638427729828.2724609375,1.506866455079944,11.27197265625,17.514343261720569,19.946533203119543,36.503509521479828,25.78271484375,56.43994140625.149169921869543.509338378899884.49462890625.938537597649884.960205078119543,1.193084716790509.296875.162231445319776.626953125.245025634769263.959228515630457.245025634769263.189208984369543,0,.37890625-.026794433589203.5634765625-.081024169920056l52.7548828125-15.490234375c1.0595703125-.311096191409888,1.66650390625-1.421997070309772,1.355712890619543-2.481628417969659-7.422607421869543-25.318237304690228-18.45458984375-49.440948486329944-32.789306640619543-71.698028564449487-.38232421875-.593597412110284-1.02587890625-.917297363290345-1.683349609380457-.917297363290345h0Z" fill="none" stroke="#181818" stroke-linecap="round" stroke-linejoin="round" stroke-width="15"/>
            </g>
          </a>
        </g>
        <g>
          <a xlink:href="https://www.notion.so/dmmnotes/paranoid-ae38b1e6af0c4dd08f61e0d8f6e9f05f?pvs=4">
            <path id="C8-2" data-name="C8" d="M331.30810546875,517.749511718748181l7.825683593739086,54.4306640625c26.439208984371362-3.767822265629547,51.645751953141371-11.3115234375,75.101318359371362-22.04296875l-22.832519531240905-49.996826171879547c-18.7666015625,8.572265625-38.93505859375,14.601318359379547-60.094482421869543,17.609130859379547Z" fill="#8f807d" stroke="#181818" stroke-linecap="round" stroke-linejoin="round" stroke-width="2"/>
          </a>
          <a xlink:href="https://www.notion.so/dmmnotes/menacing-a5bd7149286344deba45ec15e759e579?pvs=4">
            <path id="C7-2" data-name="C7" d="M391.402587890619543,500.140380859368634l22.832519531240905,49.996826171879547c23.989990234389552-10.975830078117724,46.116210937520009-25.287109375010914,65.803955078139552-42.36181640625l-35.972900390630457-41.515869140617724c-15.753417968759095,13.65869140625-33.459228515630457,25.104492187488177-52.66357421875,33.880859374988177Z" fill="#8f807d" stroke="#181818" stroke-linecap="round" stroke-linejoin="round" stroke-width="2"/>
          </a>
          <a xlink:href="https://www.notion.so/dmmnotes/seductively-obsessed-with-rescue-6fb5a68f6d334bc29ccccc16d8a4e56e?pvs=4">
            <path id="C6-2" data-name="C6" d="M444.066162109369543,466.259521484380457l35.972900390630457,41.515869140617724c19.762939453119543-17.141845703129547,37.047119140619543-37.041748046879547,51.26708984375-59.125l-46.223632812510914-29.704833984367724c-11.373291015619543,17.673583984367724-25.201171874989086,33.598876953117724-41.016357421869543,47.31396484375Z" fill="#8f807d" stroke="#181818" stroke-linecap="round" stroke-linejoin="round" stroke-width="2"/>
          </a>
          <a xlink:href="https://www.notion.so/dmmnotes/punitively-obsessed-with-revenge-33d2e77f37774316b42bccf4a60f9688?pvs=4">
            <path id="C5-2" data-name="C5" d="M485.082519531239086,418.945556640630457l46.223632812510914,29.704833984367724c14.048095703130457-21.809326171878638,25.08837890625-45.718749999998181,32.551513671869543-71.175048828128638l-52.7548828125-15.490234375c-5.9619140625,20.377929687510914-14.789306640619543,39.509765625-26.020263671880457,56.960449218760914Z" fill="#8f807d" stroke="#181818" stroke-linecap="round" stroke-linejoin="round" stroke-width="2"/>
          </a>
          <a xlink:href="https://www.notion.so/dmmnotes/feigned-helpless-e79a94b0498c4e109a681b7f3dcdb088?pvs=4">
            <path id="C4-2" data-name="C4" d="M519.999999999989086,300c0,21.5380859375-3.142089843739086,42.321533203119543-8.897216796869543,61.985107421869543l52.7548828125,15.490234375c7.2080078125-24.583496093739086,11.142333984369543-50.5634765625,11.142333984369543-77.475341796869543h-55Z" fill="#8f807d" stroke="#181818" stroke-linecap="round" stroke-linejoin="round" stroke-width="2"/>
          </a>
          <a xlink:href="https://www.notion.so/dmmnotes/aggressive-2d8ccce383534b9dbfc7b4b10b8a5d5c?pvs=4">
            <path id="C3-2" data-name="C3" d="M519.999999999989086,300h55c0-26.911865234389552-3.934326171869543-52.894531250010004-11.142333984369543-77.475341796889552l-52.7548828125,15.490234375c5.755126953130457,19.663574218759095,8.897216796869543,40.449707031259095,8.897216796869543,61.985107421889552Z" fill="#8f807d" stroke="#181818" stroke-linecap="round" stroke-linejoin="round" stroke-width="2"/>
          </a>
          <a xlink:href="https://www.notion.so/dmmnotes/threatening-348fe6a52f7a4fe69f768e98c6586932?pvs=4">
            <path id="C1-2" data-name="C1" d="M485.082519531239086,181.054443359369543l46.223632812510914-29.70751953125c-14.219970703130457-22.08056640625-31.504150390630457-41.980468750009095-51.26708984375-59.122314453119543l-35.972900390630457,41.518554687489996c15.815185546880457,13.71240234375,29.64306640625,29.637695312510004,41.016357421869543,47.311279296879547Z" fill="#8f807d" stroke="#181818" stroke-linecap="round" stroke-linejoin="round" stroke-width="2"/>
          </a>
          <a xlink:href="https://www.notion.so/dmmnotes/complaining-acceptance-8b40401a720c493ba73f7cde1567cf3d?pvs=4">
            <path id="B5-2" data-name="B5" d="M444.066162109369543,133.743164062489996l35.972900390630457-41.518554687489996c-19.687744140619543-17.07470703125-41.81396484375-31.388671875-65.803955078139552-42.36181640625l-22.832519531240905,49.99951171875c19.204345703119543,8.773681640619543,36.910156249990905,20.22216796875,52.66357421875,33.880859374989996Z" fill="#8f807d" stroke="#181818" stroke-linecap="round" stroke-linejoin="round" stroke-width="2"/>
          </a>
          <a xlink:href="https://www.notion.so/dmmnotes/sentimental-bc554363322342b1b7ca4ccc02125049?pvs=4">
            <path id="B4-2" data-name="B4" d="M391.402587890619543,99.8623046875l22.832519531240905-49.99951171875c-23.455566406229991-10.7314453125-48.662109375-18.275146484389552-75.101318359371362-22.042968749989996l-7.825683593739086,54.433349609359539c21.159423828119543,3.0078125,41.327880859369543,9.034179687490905,60.094482421869543,17.609130859380457Z" fill="#8f807d" stroke="#181818" stroke-linecap="round" stroke-linejoin="round" stroke-width="2"/>
          </a>
          <a xlink:href="https://www.notion.so/dmmnotes/comfortably-balanced-e76dc615a8b947aa915377cd02fcf716?pvs=4">
            <path id="B3-2" data-name="B3" d="M299.999999999989086,80c10.634765625,0,21.078857421880457.797607421869543,31.308105468760914,2.253173828119543l7.825683593739086-54.433349609359539c-12.788574218728172-1.823486328140461-25.843017578119543-2.819824218760004-39.1337890625-2.819824218760004-13.290771484358629,0-26.34521484375.996337890619543-39.133789062478172,2.819824218760004l7.825683593728172,54.433349609359539c10.23193359375-1.45556640625,20.67333984375-2.253173828119543,31.30810546875-2.253173828119543Z" fill="#8f807d" stroke="#181818" stroke-linecap="round" stroke-linejoin="round" stroke-width="2"/>
          </a>
          <a xlink:href="https://www.notion.so/dmmnotes/accepting-317d81273fff4cd9817cdf4a88efd378?pvs=4">
            <path id="B2-2" data-name="B2" d="M268.691894531239086,82.253173828119543l-7.825683593728172-54.433349609359539c-26.439208984391371,3.767822265600444-51.643066406271828,11.311523437489996-75.098632812521828,22.042968749989996l22.83251953125,49.99951171875c18.7666015625-8.574951171889552,38.93505859375-14.601318359380457,60.091796875-17.609130859380457Z" fill="#8f807d" stroke="#181818" stroke-linecap="round" stroke-linejoin="round" stroke-width="2"/>
          </a>
          <a xlink:href="https://www.notion.so/dmmnotes/distanced-from-past-2eabab7e9c77429f8e577f4e3e203653?pvs=4">
            <path id="B1-2" data-name="B1" d="M208.600097656239086,99.8623046875l-22.83251953125-49.99951171875c-23.99267578125,10.97314453125-46.1162109375,25.287109375-65.803955078108629,42.36181640625l35.972900390608629,41.515869140619543c15.75341796875-13.658691406259095,33.4619140625-25.1044921875,52.66357421875-33.878173828119543Z" fill="#8f807d" stroke="#181818" stroke-linecap="round" stroke-linejoin="round" stroke-width="2"/>
          </a>
          <a xlink:href="https://www.notion.so/dmmnotes/idealising-a52277f51ed14a42aae78081bb34b8be?pvs=4">
            <path id="A1-2" data-name="A1" d="M155.936523437489086,133.740478515619543l-35.972900390608629-41.515869140619543c-19.765625,17.141845703110448-37.049804687510914,37.041748046869543-51.269775390641371,59.122314453119543l46.226318359380457,29.70751953125c11.373291015641371-17.673583984369543,25.201171875010914-33.598876953129547,41.016357421869543-47.31396484375Z" fill="#8f807d" stroke="#181818" stroke-linecap="round" stroke-linejoin="round" stroke-width="2"/>
          </a>
          <a xlink:href="https://www.notion.so/dmmnotes/distancing-9ac690cdca654729a17a5a255944e2d1?pvs=4">
            <path id="A2-2" data-name="A2" d="M114.920166015619543,181.054443359369543l-46.226318359380457-29.70751953125c-14.04541015625,21.81201171875-25.08837890625,45.721435546870453-32.551513671869543,71.177734374990905l52.754882812510914,15.490234375c5.964599609358629-20.375244140620453,14.7919921875-39.509765624990905,26.022949218739086-56.960449218740905Z" fill="#8f807d" stroke="#181818" stroke-linecap="round" stroke-linejoin="round" stroke-width="2"/>
          </a>
          <a xlink:href="https://www.notion.so/dmmnotes/compulsive-caregiving-9c380c0928294f41ae10764aa0dee886?pvs=4">
            <path id="A3-2" data-name="A3" d="M88.897216796880457,238.014892578110448l-52.754882812510914-15.490234375c-7.205322265630457,24.580810546879547-11.142333984380457,50.5634765625-11.142333984380457,77.475341796889552h55c0-21.535400390630457,3.14208984375-42.321533203130457,8.897216796891371-61.985107421889552Z" fill="#8f807d" stroke="#181818" stroke-linecap="round" stroke-linejoin="round" stroke-width="2"/>
          </a>
          <a xlink:href="https://www.notion.so/dmmnotes/compulsive-compliance-6d08b7ea9a424ce1a72b9184b7850414?pvs=4">
            <path id="A4-2" data-name="A4" d="M79.999999999989086,300H24.999999999989086c0,26.911865234369543,3.93701171875,52.894531249989996,11.142333984380457,77.475341796869543l52.754882812510914-15.490234375c-5.755126953141371-19.66357421875-8.897216796891371-40.447021484369543-8.897216796891371-61.985107421869543Z" fill="#8f807d" stroke="#181818" stroke-linecap="round" stroke-linejoin="round" stroke-width="2"/>
          </a>
          <a xlink:href="https://www.notion.so/dmmnotes/sexual-supplementation-8e85f49046ef412aa229745abf7d38d3?pvs=4">
            <path id="A5-2" data-name="A5" d="M88.897216796880457,361.985107421869543l-52.754882812510914,15.490234375c7.463134765619543,25.456298828130457,18.506103515619543,49.36572265625,32.551513671869543,71.175048828128638l46.223632812521828-29.704833984367724c-11.230957031271828-17.450683593760914-20.055664062521828-36.58251953125-26.020263671880457-56.960449218760914Z" fill="#8f807d" stroke="#181818" stroke-linecap="round" stroke-linejoin="round" stroke-width="2"/>
          </a>
          <a xlink:href="https://www.notion.so/dmmnotes/compulsive-isolated-self-reliance-b321873a73fa41aaaadd7192fde856a2?pvs=4">
            <path id="A6-2" data-name="A6" d="M114.917480468760914,418.945556640630457l-46.223632812521828,29.704833984367724c14.219970703130457,22.083251953120453,31.504150390641371,41.983154296870453,51.269775390641371,59.125l35.972900390608629-41.515869140617724c-15.815185546858629-13.712402343761823-29.643066406228172-29.637695312511823-41.019042968728172-47.31396484375Z" fill="#8f807d" stroke="#181818" stroke-linecap="round" stroke-linejoin="round" stroke-width="2"/>
          </a>
          <a xlink:href="https://www.notion.so/dmmnotes/delusional-idealization-743e2420b9994a48a7cab68190432e8a?pvs=4">
            <path id="A7-2" data-name="A7" d="M155.936523437489086,466.259521484380457l-35.972900390608629,41.515869140617724c19.687744140608629,17.074707031239086,41.811279296858629,31.385986328132276,65.803955078108629,42.36181640625l22.83251953125-49.996826171879547c-19.20166015625-8.773681640620453-36.91015625-20.222167968738177-52.66357421875-33.880859374988177Z" fill="#8f807d" stroke="#181818" stroke-linecap="round" stroke-linejoin="round" stroke-width="2"/>
          </a>
          <a xlink:href="https://www.notion.so/dmmnotes/externally-assembled-self-994ecb0895b844409b931d74a045c162?pvs=4">
            <path id="A8-2" data-name="A8" d="M208.600097656239086,500.140380859368634l-22.83251953125,49.996826171879547c23.45556640625,10.7314453125,48.659423828130457,18.275146484370453,75.098632812521828,22.04296875l7.825683593728172-54.4306640625c-21.15673828125-3.0078125-41.3251953125-9.0341796875-60.091796875-17.609130859379547Z" fill="#8f807d" stroke="#181818" stroke-linecap="round" stroke-linejoin="round" stroke-width="2"/>
          </a>
          <a xlink:href="https://www.notion.so/dmmnotes/psychopathy-0fe4a3222d9f4fd097ab4546c9776768?pvs=4">
            <path id="AC-2" data-name="AC" d="M299.999999999989086,519.999999999998181c-10.634765625,0-21.076171875-.794921875-31.30810546875-2.25048828125l-7.825683593728172,54.4306640625c12.788574218728172,1.823486328132276,25.843017578119543,2.81982421875,39.133789062478172,2.81982421875,13.290771484380457,0,26.345214843771828-.996337890617724,39.1337890625-2.81982421875l-7.825683593739086-54.4306640625c-10.229248046880457,1.45556640625-20.673339843760914,2.25048828125-31.308105468760914,2.25048828125Z" fill="#8f807d" stroke="#181818" stroke-linecap="round" stroke-linejoin="round" stroke-width="2"/>
          </a>
          <a xlink:href="https://www.notion.so/dmmnotes/disarming-086276e599884c86b9359acf831a8b20?pvs=4">
            <g id="C2-2" data-name="C2">
              <path d="M511.1025390625,239.014648437489996c-.166015625,0-.3310546875-.04150390625-.4794921875-.12255859375-.2333984375-.12744140625-.4052734375-.341796875-.48046875-.5966796875-5.861328125-20.02685546875-14.576171875-39.103515625-25.9013671875-56.69970703125-.1435546875-.22314453125-.1923828125-.494140625-.13671875-.75341796875.056640625-.25927734375.2138671875-.4853515625.4365234375-.62890625l46.224609375-29.70751953125c.16796875-.107421875.3544921875-.15869140625.5400390625-.15869140625.3291015625,0,.650390625.16162109375.841796875.45849609375,14.2822265625,22.1767578125,25.2744140625,46.21142578125,32.669921875,71.4375.1552734375.52978515625-.1484375,1.0849609375-.6787109375,1.24072265625l-52.7548828125,15.490234375c-.091796875.02734375-.1865234375.04052734375-.28125.04052734375Z" fill="#6e975f" stroke-width="0"/>
              <path d="M531.30615234375,151.346923828119543c14.048095703130457,21.81201171875,25.08837890625,45.721435546870453,32.551513671880457,71.177734375l-52.7548828125,15.490234375c-5.964599609380457-20.375244140629547-14.789306640630457-39.509765625-26.020263671880457-56.96044921875l46.2236328125-29.70751953125M531.30419921875,149.346679687489996c-.3701171875,0-.744873046869543.102722167969659-1.079345703119543.317779541020172l-46.2236328125,29.70751953125c-.446533203130457.286895751949487-.760498046880457.739440917969659-.873046875,1.257995605469659-.11279296875.5185546875-.0146484375,1.060638427729828.2724609375,1.506866455079944,11.27197265625,17.514343261720569,19.946533203119543,36.503509521479828,25.78271484375,56.43994140625.149169921869543.509338378899884.49462890625.938537597649884.960205078119543,1.193084716790509.296875.162231445319776.626953125.245025634769263.959228515630457.245025634769263.189208984369543,0,.37890625-.026794433589203.5634765625-.081024169920056l52.7548828125-15.490234375c1.0595703125-.311096191409888,1.66650390625-1.421997070309772,1.355712890619543-2.481628417969659-7.422607421869543-25.318237304690228-18.45458984375-49.440948486329944-32.789306640619543-71.698028564449487-.38232421875-.593597412110284-1.02587890625-.917297363290345-1.683349609380457-.917297363290345h0Z" fill="#181818" stroke-width="0"/>
            </g>
          </a>
        </g>
      </g>
      <a xlink:href="https://www.notion.so/dmmnotes/C2-086276e599884c86b9359acf831a8b20?pvs=4#58f1c987bdbb46bbbdeedf8531c640e5">
        <g id="C2-3" data-name="C2">
          <g id="C2-4" data-name="C2">
            <path d="M300,414.706054687489996c-36.9697265625,0-67.0478515625-30.078125-67.048828125-67.048828125,0-36.970703125,30.078125-67.048828125,67.048828125-67.048828125s67.048828125,30.078125,67.048828125,67.048828125-30.078125,67.048828125-67.048828125,67.048828125Z" fill="url(#C2-5)" stroke-width="0"/>
            <path d="M300.000244140630457,289.108489990229828c32.335693359369543,0,58.548828125,26.213134765620453,58.548828125,58.548675537110284,0,32.335571289059772-26.213134765630457,58.548767089840112-58.548583984380457,58.548767089840112-32.335693359369543,0-58.548828125-26.213104248040509-58.548828125-58.548645019530341,0-32.335601806639716,26.213134765630457-58.548797607420056,58.548583984380457-58.548797607420056M300.000244140630457,272.108489990229828c-41.65771484375,0-75.548583984380457,33.891082763670056-75.548583984380457,75.548797607420056,0,41.657653808590112,33.89111328125,75.548645019530341,75.548828125,75.548645019530341s75.548583984380457-33.891052246090112,75.548583984380457-75.548767089840112c0-41.657653808600116-33.89111328125-75.548675537110284-75.548828125-75.548675537110284h0Z" fill="#181818" stroke-width="0"/>
          </g>
          <a xlink:href="https://www.notion.so/dmmnotes/C2-086276e599884c86b9359acf831a8b20?pvs=4#58f1c987bdbb46bbbdeedf8531c640e5">
            <g>
              <g>
                <path d="M275.666015625,243.2470703125c.103515625-3.0341796875-.3916015625-5.310546875-1.4912109375-6.8291015625-1.0986328125-1.5166015625-2.4873046875-2.4580078125-4.16015625-2.826171875-1.67578125-.365234375-3.4814453125-.181640625-5.4169921875.5498046875-1.9375.7333984375-3.689453125,1.7802734375-5.2587890625,3.1396484375-3.6650390625,3.1396484375-6.62109375,7.1435546875-8.87109375,12.0107421875-2.251953125,4.8662109375-3.767578125,9.96875-4.552734375,15.3076171875-.78515625,5.337890625-.8388671875,10.6513671875-.1572265625,15.935546875.6796875,5.2861328125,2.1708984375,9.8662109375,4.474609375,13.7373046875,1.46484375,2.51171875,3.21875,4.37109375,5.259765625,5.5732421875,2.041015625,1.2041015625,4.2119140625,1.8837890625,6.515625,2.041015625,2.30078125.1572265625,4.5771484375-.208984375,6.8291015625-1.0986328125,2.25-.888671875,4.263671875-2.22265625,6.044921875-4.00390625,2.7197265625-2.720703125,4.91796875-4.65625,6.59375-5.80859375,1.6728515625-1.1513671875,3.556640625-1.779296875,5.65234375-1.884765625,5.9658203125,0,9.9150390625,1.67578125,11.853515625,5.0244140625,1.9345703125,3.3505859375,2.0654296875,7.4326171875.3916015625,12.24609375-1.361328125,3.767578125-3.4287109375,7.064453125-6.201171875,9.890625-2.7744140625,2.826171875-5.9931640625,5.1025390625-9.6552734375,6.830078125-3.6650390625,1.7265625-7.58984375,2.9306640625-11.775390625,3.6103515625-4.1875.6796875-8.3203125.8642578125-12.40234375.5498046875s-7.9560546875-1.177734375-11.6181640625-2.5908203125c-3.6650390625-1.4130859375-6.8056640625-3.3212890625-9.419921875-5.73046875-2.931640625-2.720703125-5.4951171875-5.8330078125-7.693359375-9.3408203125-2.1982421875-3.505859375-4.0302734375-7.22265625-5.4951171875-11.1474609375-1.466796875-3.9248046875-2.5654296875-8.0068359375-3.296875-12.24609375-.7333984375-4.2392578125-1.0986328125-8.501953125-1.0986328125-12.794921875.2080078125-9.62890625,2.2490234375-18.943359375,6.123046875-27.9462890625,3.87109375-9.0009765625,9-16.8505859375,15.3857421875-23.5498046875,2.9287109375-3.03515625,6.41015625-5.625,10.4404296875-7.771484375,4.0283203125-2.14453125,8.1640625-3.533203125,12.4033203125-4.1611328125,4.23828125-.6279296875,8.3994140625-.4169921875,12.4814453125.6279296875,4.08203125,1.0478515625,7.6923828125,3.24609375,10.8330078125,6.5947265625,2.40625,2.51171875,4.341796875,5.3916015625,5.80859375,8.634765625,1.46484375,3.2451171875,2.5634765625,6.4912109375,3.296875,9.7333984375.4169921875,2.095703125.6015625,4.08203125.5498046875,5.966796875-.0537109375,1.8837890625-.498046875,3.6650390625-1.3349609375,5.337890625-1.15234375,2.0947265625-2.9306640625,3.5859375-5.337890625,4.474609375-2.4091796875.890625-4.7880859375,1.1767578125-7.1435546875.86328125-2.3544921875-.314453125-4.3955078125-1.2294921875-6.123046875-2.748046875-1.7265625-1.515625-2.5390625-3.583984375-2.43359375-6.201171875Z" fill="none" stroke="#181818" stroke-linecap="round" stroke-linejoin="round" stroke-width="33"/>
                <path d="M374.259765625,303.220703125c.7314453125,0,1.3076171875.341796875,1.7275390625,1.0205078125.4169921875.6826171875.7578125,1.4677734375,1.0205078125,2.35546875.259765625.890625.4169921875,1.8056640625.470703125,2.7470703125.0517578125.9423828125.078125,1.6240234375.078125,2.041015625,0,1.884765625-.0537109375,3.8466796875-.15625,5.8876953125-.10546875,2.041015625-.314453125,3.9248046875-.6279296875,5.65234375-.314453125,1.7265625-.78515625,3.1943359375-1.4130859375,4.3955078125-.6279296875,1.2021484375-1.5185546875,1.9091796875-2.6689453125,2.1201171875-.525390625.2080078125-1.6484375.259765625-3.3759765625.1572265625-1.7265625-.10546875-3.794921875-.2626953125-6.201171875-.4716796875-2.5126953125-.2109375-5.2080078125-.392578125-8.0859375-.548828125-2.8798828125-.1572265625-5.8359375-.2900390625-8.8701171875-.392578125-3.037109375-.10546875-5.9658203125-.1572265625-8.7919921875-.1572265625s-5.337890625.0517578125-7.5361328125.1572265625c-1.8837890625.2080078125-4.21484375.3134765625-6.986328125.3134765625-2.7744140625,0-5.15625-.1572265625-7.1435546875-.470703125-1.5703125-.314453125-2.7744140625-1.54296875-3.611328125-3.689453125-.8388671875-2.14453125-1.333984375-4.68359375-1.4912109375-7.6142578125-.1572265625-2.9296875.078125-5.9912109375.7060546875-9.1845703125.6279296875-3.19140625,1.5703125-5.9912109375,2.826171875-8.3994140625,1.9873046875-3.4541015625,4.2392578125-6.5673828125,6.7509765625-9.341796875,2.51171875-2.7724609375,5.126953125-5.44140625,7.8505859375-8.0068359375,2.7197265625-2.5634765625,5.494140625-5.154296875,8.3203125-7.771484375,2.826171875-2.615234375,5.5986328125-5.44140625,8.3212890625-8.478515625,1.150390625-1.255859375,2.4580078125-3.0859375,3.9248046875-5.4951171875,1.46484375-2.40625,2.5634765625-4.8125,3.296875-7.2216796875.9423828125-3.1396484375.888671875-5.546875-.15625-7.2216796875-1.0478515625-1.673828125-2.5390625-2.6943359375-4.474609375-3.0615234375-1.9384765625-.3662109375-4.0576171875-.103515625-6.3583984375.78515625-2.3037109375.8896484375-4.29296875,2.330078125-5.966796875,4.3173828125-1.466796875,1.8837890625-2.5390625,4.08203125-3.2177734375,6.59375-.6826171875,2.51171875-.5498046875,5.078125.392578125,7.693359375.2080078125.5244140625.443359375,1.1259765625.7060546875,1.8046875.259765625.6826171875.4443359375,1.3349609375.5498046875,1.962890625.1025390625,1.466796875-.8642578125,2.9580078125-2.9052734375,4.474609375-2.041015625,1.5185546875-4.4228515625,2.6171875-7.142578125,3.296875-2.7236328125.681640625-5.392578125.7333984375-8.0078125.1572265625-2.6171875-.57421875-4.44921875-2.22265625-5.4951171875-4.9453125-1.15234375-3.7685546875-1.6484375-7.509765625-1.4912109375-11.2255859375.1572265625-3.71484375.78515625-7.3251953125,1.8837890625-10.8330078125,1.099609375-3.505859375,2.6689453125-6.830078125,4.7099609375-9.9697265625s4.4208984375-5.912109375,7.1435546875-8.3212890625c2.9296875-2.615234375,6.3046875-4.7099609375,10.126953125-6.2802734375,3.8193359375-1.5693359375,7.771484375-2.51171875,11.853515625-2.8251953125,4.08203125-.314453125,8.0849609375.0537109375,12.0107421875,1.0986328125,3.9248046875,1.0478515625,7.45703125,2.931640625,10.5966796875,5.65234375,2.5126953125,2.0947265625,4.5,4.474609375,5.966796875,7.1435546875,1.4638671875,2.6689453125,2.51171875,5.494140625,3.1396484375,8.4775390625s.86328125,6.044921875.7060546875,9.1845703125c-.15625,3.1396484375-.6025390625,6.2802734375-1.333984375,9.419921875-1.1533203125,4.607421875-2.904296875,8.7919921875-5.259765625,12.560546875-2.3544921875,3.767578125-4.9990234375,7.353515625-7.9287109375,10.75390625-2.9306640625,3.40234375-6.0439453125,6.69921875-9.3408203125,9.890625-3.296875,3.1943359375-6.515625,6.46484375-9.6552734375,9.8125,10.150390625-.4169921875,20.35546875-.4169921875,30.6142578125,0Z" fill="none" stroke="#181818" stroke-linecap="round" stroke-linejoin="round" stroke-width="33"/>
              </g>
              <g>
                <path d="M275.666015625,243.2470703125c.103515625-3.0341796875-.3916015625-5.310546875-1.4912109375-6.8291015625-1.0986328125-1.5166015625-2.4873046875-2.4580078125-4.16015625-2.826171875-1.67578125-.365234375-3.4814453125-.181640625-5.4169921875.5498046875-1.9375.7333984375-3.689453125,1.7802734375-5.2587890625,3.1396484375-3.6650390625,3.1396484375-6.62109375,7.1435546875-8.87109375,12.0107421875-2.251953125,4.8662109375-3.767578125,9.96875-4.552734375,15.3076171875-.78515625,5.337890625-.8388671875,10.6513671875-.1572265625,15.935546875.6796875,5.2861328125,2.1708984375,9.8662109375,4.474609375,13.7373046875,1.46484375,2.51171875,3.21875,4.37109375,5.259765625,5.5732421875,2.041015625,1.2041015625,4.2119140625,1.8837890625,6.515625,2.041015625,2.30078125.1572265625,4.5771484375-.208984375,6.8291015625-1.0986328125,2.25-.888671875,4.263671875-2.22265625,6.044921875-4.00390625,2.7197265625-2.720703125,4.91796875-4.65625,6.59375-5.80859375,1.6728515625-1.1513671875,3.556640625-1.779296875,5.65234375-1.884765625,5.9658203125,0,9.9150390625,1.67578125,11.853515625,5.0244140625,1.9345703125,3.3505859375,2.0654296875,7.4326171875.3916015625,12.24609375-1.361328125,3.767578125-3.4287109375,7.064453125-6.201171875,9.890625-2.7744140625,2.826171875-5.9931640625,5.1025390625-9.6552734375,6.830078125-3.6650390625,1.7265625-7.58984375,2.9306640625-11.775390625,3.6103515625-4.1875.6796875-8.3203125.8642578125-12.40234375.5498046875s-7.9560546875-1.177734375-11.6181640625-2.5908203125c-3.6650390625-1.4130859375-6.8056640625-3.3212890625-9.419921875-5.73046875-2.931640625-2.720703125-5.4951171875-5.8330078125-7.693359375-9.3408203125-2.1982421875-3.505859375-4.0302734375-7.22265625-5.4951171875-11.1474609375-1.466796875-3.9248046875-2.5654296875-8.0068359375-3.296875-12.24609375-.7333984375-4.2392578125-1.0986328125-8.501953125-1.0986328125-12.794921875.2080078125-9.62890625,2.2490234375-18.943359375,6.123046875-27.9462890625,3.87109375-9.0009765625,9-16.8505859375,15.3857421875-23.5498046875,2.9287109375-3.03515625,6.41015625-5.625,10.4404296875-7.771484375,4.0283203125-2.14453125,8.1640625-3.533203125,12.4033203125-4.1611328125,4.23828125-.6279296875,8.3994140625-.4169921875,12.4814453125.6279296875,4.08203125,1.0478515625,7.6923828125,3.24609375,10.8330078125,6.5947265625,2.40625,2.51171875,4.341796875,5.3916015625,5.80859375,8.634765625,1.46484375,3.2451171875,2.5634765625,6.4912109375,3.296875,9.7333984375.4169921875,2.095703125.6015625,4.08203125.5498046875,5.966796875-.0537109375,1.8837890625-.498046875,3.6650390625-1.3349609375,5.337890625-1.15234375,2.0947265625-2.9306640625,3.5859375-5.337890625,4.474609375-2.4091796875.890625-4.7880859375,1.1767578125-7.1435546875.86328125-2.3544921875-.314453125-4.3955078125-1.2294921875-6.123046875-2.748046875-1.7265625-1.515625-2.5390625-3.583984375-2.43359375-6.201171875Z" fill="#fff" stroke-width="0"/>
                <path d="M374.259765625,303.220703125c.7314453125,0,1.3076171875.341796875,1.7275390625,1.0205078125.4169921875.6826171875.7578125,1.4677734375,1.0205078125,2.35546875.259765625.890625.4169921875,1.8056640625.470703125,2.7470703125.0517578125.9423828125.078125,1.6240234375.078125,2.041015625,0,1.884765625-.0537109375,3.8466796875-.15625,5.8876953125-.10546875,2.041015625-.314453125,3.9248046875-.6279296875,5.65234375-.314453125,1.7265625-.78515625,3.1943359375-1.4130859375,4.3955078125-.6279296875,1.2021484375-1.5185546875,1.9091796875-2.6689453125,2.1201171875-.525390625.2080078125-1.6484375.259765625-3.3759765625.1572265625-1.7265625-.10546875-3.794921875-.2626953125-6.201171875-.4716796875-2.5126953125-.2109375-5.2080078125-.392578125-8.0859375-.548828125-2.8798828125-.1572265625-5.8359375-.2900390625-8.8701171875-.392578125-3.037109375-.10546875-5.9658203125-.1572265625-8.7919921875-.1572265625s-5.337890625.0517578125-7.5361328125.1572265625c-1.8837890625.2080078125-4.21484375.3134765625-6.986328125.3134765625-2.7744140625,0-5.15625-.1572265625-7.1435546875-.470703125-1.5703125-.314453125-2.7744140625-1.54296875-3.611328125-3.689453125-.8388671875-2.14453125-1.333984375-4.68359375-1.4912109375-7.6142578125-.1572265625-2.9296875.078125-5.9912109375.7060546875-9.1845703125.6279296875-3.19140625,1.5703125-5.9912109375,2.826171875-8.3994140625,1.9873046875-3.4541015625,4.2392578125-6.5673828125,6.7509765625-9.341796875,2.51171875-2.7724609375,5.126953125-5.44140625,7.8505859375-8.0068359375,2.7197265625-2.5634765625,5.494140625-5.154296875,8.3203125-7.771484375,2.826171875-2.615234375,5.5986328125-5.44140625,8.3212890625-8.478515625,1.150390625-1.255859375,2.4580078125-3.0859375,3.9248046875-5.4951171875,1.46484375-2.40625,2.5634765625-4.8125,3.296875-7.2216796875.9423828125-3.1396484375.888671875-5.546875-.15625-7.2216796875-1.0478515625-1.673828125-2.5390625-2.6943359375-4.474609375-3.0615234375-1.9384765625-.3662109375-4.0576171875-.103515625-6.3583984375.78515625-2.3037109375.8896484375-4.29296875,2.330078125-5.966796875,4.3173828125-1.466796875,1.8837890625-2.5390625,4.08203125-3.2177734375,6.59375-.6826171875,2.51171875-.5498046875,5.078125.392578125,7.693359375.2080078125.5244140625.443359375,1.1259765625.7060546875,1.8046875.259765625.6826171875.4443359375,1.3349609375.5498046875,1.962890625.1025390625,1.466796875-.8642578125,2.9580078125-2.9052734375,4.474609375-2.041015625,1.5185546875-4.4228515625,2.6171875-7.142578125,3.296875-2.7236328125.681640625-5.392578125.7333984375-8.0078125.1572265625-2.6171875-.57421875-4.44921875-2.22265625-5.4951171875-4.9453125-1.15234375-3.7685546875-1.6484375-7.509765625-1.4912109375-11.2255859375.1572265625-3.71484375.78515625-7.3251953125,1.8837890625-10.8330078125,1.099609375-3.505859375,2.6689453125-6.830078125,4.7099609375-9.9697265625s4.4208984375-5.912109375,7.1435546875-8.3212890625c2.9296875-2.615234375,6.3046875-4.7099609375,10.126953125-6.2802734375,3.8193359375-1.5693359375,7.771484375-2.51171875,11.853515625-2.8251953125,4.08203125-.314453125,8.0849609375.0537109375,12.0107421875,1.0986328125,3.9248046875,1.0478515625,7.45703125,2.931640625,10.5966796875,5.65234375,2.5126953125,2.0947265625,4.5,4.474609375,5.966796875,7.1435546875,1.4638671875,2.6689453125,2.51171875,5.494140625,3.1396484375,8.4775390625s.86328125,6.044921875.7060546875,9.1845703125c-.15625,3.1396484375-.6025390625,6.2802734375-1.333984375,9.419921875-1.1533203125,4.607421875-2.904296875,8.7919921875-5.259765625,12.560546875-2.3544921875,3.767578125-4.9990234375,7.353515625-7.9287109375,10.75390625-2.9306640625,3.40234375-6.0439453125,6.69921875-9.3408203125,9.890625-3.296875,3.1943359375-6.515625,6.46484375-9.6552734375,9.8125,10.150390625-.4169921875,20.35546875-.4169921875,30.6142578125,0Z" fill="#fff" stroke-width="0"/>
              </g>
            </g>
          </a>
        </g>
      </a>
      <g>
        <path d="M530.427734375,203.34912109375c.140625,0,.251953125.06591796875.333984375.19775390625.080078125.1318359375.146484375.28369140625.197265625.45556640625.05078125.17236328125.080078125.349609375.08984375.5322265625.01171875.18212890625.015625.31396484375.015625.39501953125,0,.36474609375-.009765625.74462890625-.029296875,1.1396484375-.021484375.39501953125-.060546875.759765625-.123046875,1.09375-.060546875.33447265625-.150390625.61865234375-.2734375.85107421875-.12109375.23291015625-.29296875.36962890625-.515625.41015625-.1015625.04052734375-.318359375.05029296875-.654296875.03076171875-.333984375-.0205078125-.734375-.05078125-1.19921875-.09130859375-.486328125-.041015625-1.0078125-.076171875-1.56640625-.1064453125-.556640625-.0302734375-1.12890625-.05615234375-1.716796875-.076171875s-1.154296875-.0302734375-1.701171875-.0302734375-1.033203125.01025390625-1.458984375.0302734375c-.365234375.04052734375-.81640625.06103515625-1.3515625.06103515625-.537109375,0-.998046875-.0302734375-1.3828125-.09130859375-.3046875-.060546875-.537109375-.298828125-.69921875-.7138671875s-.259765625-.90673828125-.2890625-1.47412109375c-.03125-.56689453125.015625-1.15966796875.13671875-1.77783203125.12109375-.61767578125.3046875-1.15966796875.546875-1.6259765625.384765625-.66845703125.8203125-1.27099609375,1.306640625-1.80810546875.486328125-.53662109375.9921875-1.05322265625,1.51953125-1.5498046875s1.064453125-.998046875,1.611328125-1.50439453125,1.083984375-1.05322265625,1.609375-1.64111328125c.22265625-.2431640625.4765625-.59765625.759765625-1.06396484375.28515625-.4658203125.498046875-.931640625.638671875-1.39794921875.18359375-.60791015625.171875-1.07373046875-.029296875-1.39794921875-.203125-.32373046875-.4921875-.521484375-.8671875-.59228515625s-.78515625-.02001953125-1.23046875.15185546875c-.4453125.17236328125-.830078125.451171875-1.154296875.83544921875-.28515625.36474609375-.4921875.79052734375-.623046875,1.2763671875-.1328125.486328125-.107421875.98291015625.076171875,1.4892578125.0390625.1015625.0859375.21826171875.13671875.349609375.048828125.1318359375.0859375.25830078125.10546875.3798828125.01953125.28369140625-.166015625.57275390625-.5625.8662109375-.39453125.2939453125-.85546875.50634765625-1.3828125.63818359375s-1.04296875.14208984375-1.548828125.0302734375c-.5078125-.111328125-.861328125-.43017578125-1.064453125-.95751953125-.22265625-.72900390625-.318359375-1.453125-.2890625-2.1728515625.03125-.71875.15234375-1.41796875.365234375-2.0966796875s.517578125-1.322265625.912109375-1.9296875c.39453125-.60791015625.85546875-1.14453125,1.3828125-1.61083984375.56640625-.50634765625,1.220703125-.91162109375,1.958984375-1.2158203125.740234375-.3037109375,1.505859375-.486328125,2.294921875-.546875.791015625-.06103515625,1.56640625.01025390625,2.326171875.212890625s1.443359375.5673828125,2.05078125,1.09375c.486328125.40576171875.87109375.8662109375,1.154296875,1.3828125s.486328125,1.06396484375.607421875,1.64111328125c.123046875.57763671875.16796875,1.169921875.13671875,1.77783203125-.029296875.60791015625-.115234375,1.2158203125-.2578125,1.82373046875-.22265625.8916015625-.5625,1.70166015625-1.017578125,2.43115234375-.45703125.72900390625-.96875,1.42333984375-1.53515625,2.08154296875-.56640625.65869140625-1.169921875,1.296875-1.80859375,1.91455078125-.638671875.6181640625-1.259765625,1.25146484375-1.869140625,1.8994140625,1.96484375-.08056640625,3.94140625-.08056640625,5.927734375,0Z" fill="none" stroke="#181818" stroke-width="5.631003379821777"/>
        <path d="M530.427734375,203.34912109375c.140625,0,.251953125.06591796875.333984375.19775390625.080078125.1318359375.146484375.28369140625.197265625.45556640625.05078125.17236328125.080078125.349609375.08984375.5322265625.01171875.18212890625.015625.31396484375.015625.39501953125,0,.36474609375-.009765625.74462890625-.029296875,1.1396484375-.021484375.39501953125-.060546875.759765625-.123046875,1.09375-.060546875.33447265625-.150390625.61865234375-.2734375.85107421875-.12109375.23291015625-.29296875.36962890625-.515625.41015625-.1015625.04052734375-.318359375.05029296875-.654296875.03076171875-.333984375-.0205078125-.734375-.05078125-1.19921875-.09130859375-.486328125-.041015625-1.0078125-.076171875-1.56640625-.1064453125-.556640625-.0302734375-1.12890625-.05615234375-1.716796875-.076171875s-1.154296875-.0302734375-1.701171875-.0302734375-1.033203125.01025390625-1.458984375.0302734375c-.365234375.04052734375-.81640625.06103515625-1.3515625.06103515625-.537109375,0-.998046875-.0302734375-1.3828125-.09130859375-.3046875-.060546875-.537109375-.298828125-.69921875-.7138671875s-.259765625-.90673828125-.2890625-1.47412109375c-.03125-.56689453125.015625-1.15966796875.13671875-1.77783203125.12109375-.61767578125.3046875-1.15966796875.546875-1.6259765625.384765625-.66845703125.8203125-1.27099609375,1.306640625-1.80810546875.486328125-.53662109375.9921875-1.05322265625,1.51953125-1.5498046875s1.064453125-.998046875,1.611328125-1.50439453125,1.083984375-1.05322265625,1.609375-1.64111328125c.22265625-.2431640625.4765625-.59765625.759765625-1.06396484375.28515625-.4658203125.498046875-.931640625.638671875-1.39794921875.18359375-.60791015625.171875-1.07373046875-.029296875-1.39794921875-.203125-.32373046875-.4921875-.521484375-.8671875-.59228515625s-.78515625-.02001953125-1.23046875.15185546875c-.4453125.17236328125-.830078125.451171875-1.154296875.83544921875-.28515625.36474609375-.4921875.79052734375-.623046875,1.2763671875-.1328125.486328125-.107421875.98291015625.076171875,1.4892578125.0390625.1015625.0859375.21826171875.13671875.349609375.048828125.1318359375.0859375.25830078125.10546875.3798828125.01953125.28369140625-.166015625.57275390625-.5625.8662109375-.39453125.2939453125-.85546875.50634765625-1.3828125.63818359375s-1.04296875.14208984375-1.548828125.0302734375c-.5078125-.111328125-.861328125-.43017578125-1.064453125-.95751953125-.22265625-.72900390625-.318359375-1.453125-.2890625-2.1728515625.03125-.71875.15234375-1.41796875.365234375-2.0966796875s.517578125-1.322265625.912109375-1.9296875c.39453125-.60791015625.85546875-1.14453125,1.3828125-1.61083984375.56640625-.50634765625,1.220703125-.91162109375,1.958984375-1.2158203125.740234375-.3037109375,1.505859375-.486328125,2.294921875-.546875.791015625-.06103515625,1.56640625.01025390625,2.326171875.212890625s1.443359375.5673828125,2.05078125,1.09375c.486328125.40576171875.87109375.8662109375,1.154296875,1.3828125s.486328125,1.06396484375.607421875,1.64111328125c.123046875.57763671875.16796875,1.169921875.13671875,1.77783203125-.029296875.60791015625-.115234375,1.2158203125-.2578125,1.82373046875-.22265625.8916015625-.5625,1.70166015625-1.017578125,2.43115234375-.45703125.72900390625-.96875,1.42333984375-1.53515625,2.08154296875-.56640625.65869140625-1.169921875,1.296875-1.80859375,1.91455078125-.638671875.6181640625-1.259765625,1.25146484375-1.869140625,1.8994140625,1.96484375-.08056640625,3.94140625-.08056640625,5.927734375,0Z" fill="#231f20" stroke-width="0"/>
        <path d="M530.427734375,203.34912109375c.140625,0,.251953125.06591796875.333984375.19775390625.080078125.1318359375.146484375.28369140625.197265625.45556640625.05078125.17236328125.080078125.349609375.08984375.5322265625.01171875.18212890625.015625.31396484375.015625.39501953125,0,.36474609375-.009765625.74462890625-.029296875,1.1396484375-.021484375.39501953125-.060546875.759765625-.123046875,1.09375-.060546875.33447265625-.150390625.61865234375-.2734375.85107421875-.12109375.23291015625-.29296875.36962890625-.515625.41015625-.1015625.04052734375-.318359375.05029296875-.654296875.03076171875-.333984375-.0205078125-.734375-.05078125-1.19921875-.09130859375-.486328125-.041015625-1.0078125-.076171875-1.56640625-.1064453125-.556640625-.0302734375-1.12890625-.05615234375-1.716796875-.076171875s-1.154296875-.0302734375-1.701171875-.0302734375-1.033203125.01025390625-1.458984375.0302734375c-.365234375.04052734375-.81640625.06103515625-1.3515625.06103515625-.537109375,0-.998046875-.0302734375-1.3828125-.09130859375-.3046875-.060546875-.537109375-.298828125-.69921875-.7138671875s-.259765625-.90673828125-.2890625-1.47412109375c-.03125-.56689453125.015625-1.15966796875.13671875-1.77783203125.12109375-.61767578125.3046875-1.15966796875.546875-1.6259765625.384765625-.66845703125.8203125-1.27099609375,1.306640625-1.80810546875.486328125-.53662109375.9921875-1.05322265625,1.51953125-1.5498046875s1.064453125-.998046875,1.611328125-1.50439453125,1.083984375-1.05322265625,1.609375-1.64111328125c.22265625-.2431640625.4765625-.59765625.759765625-1.06396484375.28515625-.4658203125.498046875-.931640625.638671875-1.39794921875.18359375-.60791015625.171875-1.07373046875-.029296875-1.39794921875-.203125-.32373046875-.4921875-.521484375-.8671875-.59228515625s-.78515625-.02001953125-1.23046875.15185546875c-.4453125.17236328125-.830078125.451171875-1.154296875.83544921875-.28515625.36474609375-.4921875.79052734375-.623046875,1.2763671875-.1328125.486328125-.107421875.98291015625.076171875,1.4892578125.0390625.1015625.0859375.21826171875.13671875.349609375.048828125.1318359375.0859375.25830078125.10546875.3798828125.01953125.28369140625-.166015625.57275390625-.5625.8662109375-.39453125.2939453125-.85546875.50634765625-1.3828125.63818359375s-1.04296875.14208984375-1.548828125.0302734375c-.5078125-.111328125-.861328125-.43017578125-1.064453125-.95751953125-.22265625-.72900390625-.318359375-1.453125-.2890625-2.1728515625.03125-.71875.15234375-1.41796875.365234375-2.0966796875s.517578125-1.322265625.912109375-1.9296875c.39453125-.60791015625.85546875-1.14453125,1.3828125-1.61083984375.56640625-.50634765625,1.220703125-.91162109375,1.958984375-1.2158203125.740234375-.3037109375,1.505859375-.486328125,2.294921875-.546875.791015625-.06103515625,1.56640625.01025390625,2.326171875.212890625s1.443359375.5673828125,2.05078125,1.09375c.486328125.40576171875.87109375.8662109375,1.154296875,1.3828125s.486328125,1.06396484375.607421875,1.64111328125c.123046875.57763671875.16796875,1.169921875.13671875,1.77783203125-.029296875.60791015625-.115234375,1.2158203125-.2578125,1.82373046875-.22265625.8916015625-.5625,1.70166015625-1.017578125,2.43115234375-.45703125.72900390625-.96875,1.42333984375-1.53515625,2.08154296875-.56640625.65869140625-1.169921875,1.296875-1.80859375,1.91455078125-.638671875.6181640625-1.259765625,1.25146484375-1.869140625,1.8994140625,1.96484375-.08056640625,3.94140625-.08056640625,5.927734375,0Z" fill="#e2dddb" stroke-width="0"/>
      </g>
    </g>
  </g>
</svg>