<?xml version="1.0" encoding="UTF-8"?>
<svg id="Layer_1" data-name="Layer 1" xmlns="http://www.w3.org/2000/svg" xmlns:xlink="http://www.w3.org/1999/xlink" viewBox="0 0 600 600.000000000005457">
  <g id="pie_with_links_-3" data-name="pie (with links)">
    <g>
      <g>
        <path d="M238.41015625,257.595214843746362c2.4609375,1.42529296875,4.5654296875,3.173828125,6.314453125,5.24609375,1.7490234375,2.0732421875,3.220703125,4.33984375,4.419921875,6.80029296875,1.1982421875,2.4619140625,2.15234375,5.068359375,2.8662109375,7.8203125.7119140625,2.75341796875,1.2626953125,5.52197265625,1.6513671875,8.3056640625.90625,5.505859375,1.423828125,11.07470703125,1.5546875,16.70947265625.12890625,5.63427734375.03125,11.30224609375-.2919921875,17.00048828125-.1298828125,1.61962890625-.259765625,2.94775390625-.388671875,3.98291015625-.1298828125,1.03662109375-.373046875,1.87939453125-.728515625,2.52587890625-.3564453125.64794921875-.8583984375,1.16552734375-1.505859375,1.55419921875s-1.5537109375.744140625-2.7197265625,1.06884765625c-1.1015625.12890625-2.2509765625.22607421875-3.4482421875.29150390625-1.19921875.0634765625-2.31640625-.259765625-3.3515625-.9716796875-.9716796875-.646484375-1.7822265625-1.74853515625-2.4287109375-3.302734375-.6484375-1.5546875-1.0048828125-3.7890625-1.0693359375-6.703125v-.9716796875c-1.619140625-.1943359375-3.5458984375-.35498046875-5.7802734375-.48583984375-2.234375-.12890625-4.5166015625-.20947265625-6.8486328125-.24267578125-2.3310546875-.03173828125-4.58203125-.048828125-6.7509765625-.048828125h-5.4892578125c-.0654296875.5830078125-.1455078125,1.5546875-.2431640625,2.91455078125-.0966796875,1.3603515625-.3076171875,2.72021484375-.630859375,4.080078125-.3251953125,1.3603515625-.7626953125,2.59130859375-1.3115234375,3.69189453125-.55078125,1.10205078125-1.3115234375,1.68310546875-2.283203125,1.74853515625-.9072265625.0634765625-1.943359375.12890625-3.1083984375.1943359375-1.166015625.0634765625-2.2998046875-.0654296875-3.400390625-.388671875-1.1015625-.25830078125-2.0244140625-.77734375-2.7685546875-1.55419921875-.7451171875-.77734375-1.150390625-2.0068359375-1.21484375-3.69189453125,0-2.00634765625.0322265625-4.30615234375.09765625-6.8974609375.0634765625-2.58935546875.1943359375-5.40673828125.388671875-8.45166015625.12890625-2.52587890625.33984375-5.29443359375.630859375-8.3056640625.2919921875-3.01171875.7119140625-6.103515625,1.263671875-9.27783203125.548828125-3.17236328125,1.2626953125-6.34619140625,2.13671875-9.52001953125.8740234375-3.17236328125,1.974609375-6.18408203125,3.302734375-9.03466796875,1.3271484375-2.84912109375,2.8984375-5.47216796875,4.7119140625-7.869140625,1.8125-2.39501953125,3.9833984375-4.4033203125,6.5087890625-6.02294921875,2.978515625-1.87744140625,6.2490234375-2.8173828125,9.8115234375-2.8173828125,3.5615234375,0,6.9296875.87451171875,10.103515625,2.623046875ZM214.8037109375,301.796874999996362c4.080078125-.3232421875,8.1435546875-.56591796875,12.19140625-.728515625,4.046875-.1611328125,8.1123046875-.177734375,12.1923828125-.048828125.1943359375-4.59765625,0-8.70947265625-.5830078125-12.33740234375-.5830078125-3.62646484375-1.3935546875-6.6865234375-2.4287109375-9.18017578125-1.037109375-2.49267578125-2.267578125-4.40380859375-3.69140625-5.73193359375-1.42578125-1.32666015625-2.8828125-1.9912109375-4.3720703125-1.9912109375-1.2958984375,0-2.6396484375.66455078125-4.03125,1.9912109375-1.3935546875,1.328125-2.6884765625,3.271484375-3.8857421875,5.8291015625-1.19921875,2.55908203125-2.283203125,5.71630859375-3.2548828125,9.4716796875-.970703125,3.7568359375-1.6845703125,7.99951171875-2.13671875,12.72607421875Z" fill="none" stroke="#181818" stroke-width="18"/>
        <path d="M297.376953125,289.847656249996362c2.0068359375,2.72021484375,3.3671875,5.7001953125,4.080078125,8.9375.7119140625,3.2392578125.79296875,6.46044921875.2431640625,9.66650390625-.55078125,3.20556640625-1.6513671875,6.2822265625-3.302734375,9.228515625-1.6513671875,2.94775390625-3.837890625,5.42529296875-6.5576171875,7.431640625-3.69140625,2.72021484375-7.4482421875,4.22607421875-11.26953125,4.517578125s-7.4482421875-.50244140625-10.8798828125-2.38037109375c-2.267578125-1.16552734375-4.2109375-2.65478515625-5.8291015625-4.46875-1.619140625-1.81201171875-2.494140625-4.080078125-2.623046875-6.7998046875-.064453125-1.4892578125.2431640625-2.91455078125.9228515625-4.2744140625.6806640625-1.3603515625,1.5703125-2.4287109375,2.671875-3.2060546875,1.1005859375-.77734375,2.2978515625-1.14892578125,3.5947265625-1.1171875,1.294921875.033203125,2.5576171875.69677734375,3.7880859375,1.99169921875.90625,1.16552734375,2.072265625,2.185546875,3.498046875,3.06005859375,1.423828125.8740234375,2.9775390625,1.150390625,4.6630859375.82568359375,3.2373046875-.517578125,5.40625-2.751953125,6.5087890625-6.703125.2578125-1.1005859375.3544921875-2.24951171875.291015625-3.44873046875-.0654296875-1.19775390625-.30859375-2.31494140625-.728515625-3.3515625-.421875-1.03515625-1.0537109375-1.9580078125-1.89453125-2.7685546875-.8427734375-.80908203125-1.943359375-1.37548828125-3.302734375-1.7001953125-1.87890625-.517578125-3.8857421875-.6953125-6.0234375-.5341796875-2.13671875.162109375-4.0166015625.50244140625-5.634765625,1.02001953125-.58203125.13037109375-1.5048828125.162109375-2.7685546875.09716796875-1.2626953125-.06396484375-2.2509765625-.09716796875-2.962890625-.09716796875-.77734375-.06396484375-1.44140625-.45263671875-1.9912109375-1.166015625-.55078125-.7119140625-.9716796875-1.55419921875-1.2626953125-2.52587890625-.2919921875-.97119140625-.470703125-1.94287109375-.5341796875-2.9140625-.0654296875-.9716796875.03125-1.8125.291015625-2.52587890625.1943359375-.646484375.33984375-1.89453125.4375-3.740234375.0966796875-1.845703125.177734375-3.91748046875.2421875-6.21728515625.064453125-2.29833984375.1123046875-4.6142578125.146484375-6.94580078125.03125-2.33154296875.080078125-4.2744140625.1455078125-5.8291015625.0634765625-1.2294921875.2431640625-2.07177734375.5341796875-2.52587890625.291015625-.4521484375.728515625-.7119140625,1.3115234375-.77685546875.5830078125-.06396484375,1.294921875-.01513671875,2.13671875.1455078125.841796875.16259765625,1.8125.2763671875,2.9150390625.34033203125,4.46875.32470703125,8.9521484375.55078125,13.4541015625.6796875,4.5009765625.130859375,9.115234375.0654296875,13.84375-.1943359375.77734375-.0634765625,1.47265625-.0634765625,2.0888671875,0,.6142578125.0654296875,1.0517578125.16259765625,1.3115234375.29150390625.3232421875.1943359375.630859375.50244140625.9228515625.9228515625.291015625.42236328125.5009765625,1.08544921875.630859375,1.99169921875.1298828125,1.16552734375.177734375,2.4287109375.146484375,3.78857421875-.0341796875,1.3603515625-.1796875,2.6396484375-.4375,3.83740234375-.259765625,1.19921875-.6484375,2.2509765625-1.166015625,3.1572265625-.5185546875.90771484375-1.1650390625,1.45703125-1.9423828125,1.6513671875-.388671875.130859375-1.19921875.2109375-2.4287109375.2431640625-1.2314453125.033203125-2.720703125.0166015625-4.46875-.048828125-6.2177734375-.1943359375-12.4345703125-.77685546875-18.65234375-1.74853515625v5.92578125c5.4404296875-.90625,10.41015625-.646484375,14.912109375.77734375,4.5,1.42529296875,8.1435546875,3.91943359375,10.9287109375,7.47998046875Z" fill="none" stroke="#181818" stroke-width="18"/>
        <path d="M309.228515625,292.179199218746362c11.0751953125-.3232421875,22.181640625-.3232421875,33.3212890625,0,.388671875.0654296875.744140625.259765625,1.068359375.5830078125.32421875.32470703125.5830078125.76220703125.77734375,1.3115234375.1943359375.55126953125.3232421875,1.3447265625.388671875,2.3798828125.0634765625.9716796875.09765625,1.99169921875.09765625,3.060546875,0,1.068359375-.09765625,2.056640625-.2919921875,2.962890625-.1943359375.90771484375-.4853515625,1.66796875-.8740234375,2.28271484375-.388671875.6162109375-.939453125,1.02001953125-1.6513671875,1.21435546875-.388671875.0654296875-1.1337890625.08203125-2.234375.048828125-1.1025390625-.0322265625-2.4287109375-.09716796875-3.9833984375-.1943359375-1.5537109375-.09716796875-3.2705078125-.20947265625-5.1484375-.34033203125-1.87890625-.12890625-3.7890625-.2578125-5.7314453125-.38818359375-1.8798828125-.12939453125-3.708984375-.2431640625-5.4892578125-.34033203125-1.7822265625-.09716796875-3.384765625-.20947265625-4.80859375-.33984375-1.6845703125-.06396484375-3.2392578125-.12890625-4.6630859375-.1943359375-.259765625.0654296875-.5185546875,0-.77734375-.1943359375-.1943359375-.12890625-.373046875-.40380859375-.5341796875-.82568359375-.162109375-.42041015625-.2763671875-1.02001953125-.33984375-1.79736328125-.0654296875-.77685546875-.130859375-1.68310546875-.1943359375-2.72021484375-.0654296875-1.03515625-.0966796875-2.0400390625-.0966796875-3.01123046875,0-.9716796875.0966796875-1.79736328125.291015625-2.4775390625.1943359375-.6796875.4853515625-1.02001953125.8740234375-1.02001953125Z" fill="none" stroke="#181818" stroke-width="18"/>
        <path d="M371.3046875,283.242187499996362c4.1435546875-.5830078125,7.94921875-.51806640625,11.4150390625.19384765625,3.4638671875.71337890625,6.4267578125,2.00830078125,8.888671875,3.88623046875,2.4599609375,1.87890625,4.337890625,4.2744140625,5.634765625,7.1884765625,1.2939453125,2.91455078125,1.876953125,6.2509765625,1.748046875,10.00634765625-.130859375,2.78515625-.630859375,5.48876953125-1.505859375,8.11181640625-.8740234375,2.62255859375-2.1220703125,5.0029296875-3.740234375,7.14013671875-1.619140625,2.13720703125-3.5791015625,3.98291015625-5.876953125,5.537109375-2.2998046875,1.5546875-4.90625,2.65673828125-7.8203125,3.30322265625-1.1015625.1943359375-2.1708984375.33984375-3.2060546875.43701171875-1.0361328125.09716796875-2.10546875.08056640625-3.2060546875-.04833984375-2.9140625-.1943359375-5.69921875-.87451171875-8.3544921875-2.0400390625-2.65625-1.166015625-5.01953125-2.72021484375-7.091796875-4.6630859375-2.0732421875-1.94287109375-3.7880859375-4.22607421875-5.1484375-6.84912109375-1.3603515625-2.62255859375-2.1708984375-5.48876953125-2.4287109375-8.59716796875-.32421875-3.49755859375-.11328125-7.10693359375.6318359375-10.83203125.7431640625-3.72314453125,1.845703125-7.3662109375,3.302734375-10.9287109375,1.45703125-3.56103515625,3.189453125-6.9462890625,5.197265625-10.15185546875,2.0068359375-3.2060546875,4.1123046875-6.00634765625,6.314453125-8.4033203125.90625-1.03515625,1.861328125-1.9912109375,2.8662109375-2.86572265625,1.0029296875-.87451171875,2.0234375-1.60302734375,3.0595703125-2.18603515625.517578125-.3232421875,1.1005859375-.43701171875,1.7490234375-.33984375.646484375.09716796875,1.197265625.37353515625,1.6513671875.82568359375.7119140625.5830078125,1.45703125,1.3115234375,2.234375,2.18603515625.77734375.8740234375,1.423828125,1.83056640625,1.943359375,2.86572265625.2578125.45361328125.46875.9228515625.630859375,1.40869140625.1611328125.48583984375.2099609375.98828125.1455078125,1.505859375,0,1.1015625-.453125,2.10498046875-1.359375,3.01123046875-2.9794921875,3.044921875-5.5380859375,6.47705078125-7.6748046875,10.2978515625ZM378.1044921875,297.036621093746362c-2.0732421875-.517578125-3.93359375-.517578125-5.5859375,0-1.6513671875.51904296875-3.0107421875,1.3115234375-4.080078125,2.38037109375-1.068359375,1.068359375-1.830078125,2.34814453125-2.2822265625,3.8369140625-.4541015625,1.49072265625-.51953125,2.93115234375-.1943359375,4.3232421875.3232421875,1.3935546875,1.0830078125,2.65625,2.2822265625,3.78857421875,1.1982421875,1.1337890625,2.8662109375,1.927734375,5.00390625,2.38037109375,1.2939453125.1943359375,2.5576171875.1455078125,3.7880859375-.14599609375,1.2294921875-.29150390625,2.33203125-.9228515625,3.302734375-1.89404296875,1.1005859375-1.1005859375,1.845703125-2.412109375,2.234375-3.9345703125.388671875-1.52099609375.486328125-3.01171875.2919921875-4.46875s-.697265625-2.7685546875-1.505859375-3.9345703125c-.810546875-1.16552734375-1.89453125-1.94287109375-3.2548828125-2.33154296875Z" fill="none" stroke="#181818" stroke-width="18"/>
      </g>
      <g>
        <path d="M238.41015625,257.595214843746362c2.4609375,1.42529296875,4.5654296875,3.173828125,6.314453125,5.24609375,1.7490234375,2.0732421875,3.220703125,4.33984375,4.419921875,6.80029296875,1.1982421875,2.4619140625,2.15234375,5.068359375,2.8662109375,7.8203125.7119140625,2.75341796875,1.2626953125,5.52197265625,1.6513671875,8.3056640625.90625,5.505859375,1.423828125,11.07470703125,1.5546875,16.70947265625.12890625,5.63427734375.03125,11.30224609375-.2919921875,17.00048828125-.1298828125,1.61962890625-.259765625,2.94775390625-.388671875,3.98291015625-.1298828125,1.03662109375-.373046875,1.87939453125-.728515625,2.52587890625-.3564453125.64794921875-.8583984375,1.16552734375-1.505859375,1.55419921875s-1.5537109375.744140625-2.7197265625,1.06884765625c-1.1015625.12890625-2.2509765625.22607421875-3.4482421875.29150390625-1.19921875.0634765625-2.31640625-.259765625-3.3515625-.9716796875-.9716796875-.646484375-1.7822265625-1.74853515625-2.4287109375-3.302734375-.6484375-1.5546875-1.0048828125-3.7890625-1.0693359375-6.703125v-.9716796875c-1.619140625-.1943359375-3.5458984375-.35498046875-5.7802734375-.48583984375-2.234375-.12890625-4.5166015625-.20947265625-6.8486328125-.24267578125-2.3310546875-.03173828125-4.58203125-.048828125-6.7509765625-.048828125h-5.4892578125c-.0654296875.5830078125-.1455078125,1.5546875-.2431640625,2.91455078125-.0966796875,1.3603515625-.3076171875,2.72021484375-.630859375,4.080078125-.3251953125,1.3603515625-.7626953125,2.59130859375-1.3115234375,3.69189453125-.55078125,1.10205078125-1.3115234375,1.68310546875-2.283203125,1.74853515625-.9072265625.0634765625-1.943359375.12890625-3.1083984375.1943359375-1.166015625.0634765625-2.2998046875-.0654296875-3.400390625-.388671875-1.1015625-.25830078125-2.0244140625-.77734375-2.7685546875-1.55419921875-.7451171875-.77734375-1.150390625-2.0068359375-1.21484375-3.69189453125,0-2.00634765625.0322265625-4.30615234375.09765625-6.8974609375.0634765625-2.58935546875.1943359375-5.40673828125.388671875-8.45166015625.12890625-2.52587890625.33984375-5.29443359375.630859375-8.3056640625.2919921875-3.01171875.7119140625-6.103515625,1.263671875-9.27783203125.548828125-3.17236328125,1.2626953125-6.34619140625,2.13671875-9.52001953125.8740234375-3.17236328125,1.974609375-6.18408203125,3.302734375-9.03466796875,1.3271484375-2.84912109375,2.8984375-5.47216796875,4.7119140625-7.869140625,1.8125-2.39501953125,3.9833984375-4.4033203125,6.5087890625-6.02294921875,2.978515625-1.87744140625,6.2490234375-2.8173828125,9.8115234375-2.8173828125,3.5615234375,0,6.9296875.87451171875,10.103515625,2.623046875ZM214.8037109375,301.796874999996362c4.080078125-.3232421875,8.1435546875-.56591796875,12.19140625-.728515625,4.046875-.1611328125,8.1123046875-.177734375,12.1923828125-.048828125.1943359375-4.59765625,0-8.70947265625-.5830078125-12.33740234375-.5830078125-3.62646484375-1.3935546875-6.6865234375-2.4287109375-9.18017578125-1.037109375-2.49267578125-2.267578125-4.40380859375-3.69140625-5.73193359375-1.42578125-1.32666015625-2.8828125-1.9912109375-4.3720703125-1.9912109375-1.2958984375,0-2.6396484375.66455078125-4.03125,1.9912109375-1.3935546875,1.328125-2.6884765625,3.271484375-3.8857421875,5.8291015625-1.19921875,2.55908203125-2.283203125,5.71630859375-3.2548828125,9.4716796875-.970703125,3.7568359375-1.6845703125,7.99951171875-2.13671875,12.72607421875Z" fill="#231f20" stroke-width="0"/>
        <path d="M297.376953125,289.847656249996362c2.0068359375,2.72021484375,3.3671875,5.7001953125,4.080078125,8.9375.7119140625,3.2392578125.79296875,6.46044921875.2431640625,9.66650390625-.55078125,3.20556640625-1.6513671875,6.2822265625-3.302734375,9.228515625-1.6513671875,2.94775390625-3.837890625,5.42529296875-6.5576171875,7.431640625-3.69140625,2.72021484375-7.4482421875,4.22607421875-11.26953125,4.517578125s-7.4482421875-.50244140625-10.8798828125-2.38037109375c-2.267578125-1.16552734375-4.2109375-2.65478515625-5.8291015625-4.46875-1.619140625-1.81201171875-2.494140625-4.080078125-2.623046875-6.7998046875-.064453125-1.4892578125.2431640625-2.91455078125.9228515625-4.2744140625.6806640625-1.3603515625,1.5703125-2.4287109375,2.671875-3.2060546875,1.1005859375-.77734375,2.2978515625-1.14892578125,3.5947265625-1.1171875,1.294921875.033203125,2.5576171875.69677734375,3.7880859375,1.99169921875.90625,1.16552734375,2.072265625,2.185546875,3.498046875,3.06005859375,1.423828125.8740234375,2.9775390625,1.150390625,4.6630859375.82568359375,3.2373046875-.517578125,5.40625-2.751953125,6.5087890625-6.703125.2578125-1.1005859375.3544921875-2.24951171875.291015625-3.44873046875-.0654296875-1.19775390625-.30859375-2.31494140625-.728515625-3.3515625-.421875-1.03515625-1.0537109375-1.9580078125-1.89453125-2.7685546875-.8427734375-.80908203125-1.943359375-1.37548828125-3.302734375-1.7001953125-1.87890625-.517578125-3.8857421875-.6953125-6.0234375-.5341796875-2.13671875.162109375-4.0166015625.50244140625-5.634765625,1.02001953125-.58203125.13037109375-1.5048828125.162109375-2.7685546875.09716796875-1.2626953125-.06396484375-2.2509765625-.09716796875-2.962890625-.09716796875-.77734375-.06396484375-1.44140625-.45263671875-1.9912109375-1.166015625-.55078125-.7119140625-.9716796875-1.55419921875-1.2626953125-2.52587890625-.2919921875-.97119140625-.470703125-1.94287109375-.5341796875-2.9140625-.0654296875-.9716796875.03125-1.8125.291015625-2.52587890625.1943359375-.646484375.33984375-1.89453125.4375-3.740234375.0966796875-1.845703125.177734375-3.91748046875.2421875-6.21728515625.064453125-2.29833984375.1123046875-4.6142578125.146484375-6.94580078125.03125-2.33154296875.080078125-4.2744140625.1455078125-5.8291015625.0634765625-1.2294921875.2431640625-2.07177734375.5341796875-2.52587890625.291015625-.4521484375.728515625-.7119140625,1.3115234375-.77685546875.5830078125-.06396484375,1.294921875-.01513671875,2.13671875.1455078125.841796875.16259765625,1.8125.2763671875,2.9150390625.34033203125,4.46875.32470703125,8.9521484375.55078125,13.4541015625.6796875,4.5009765625.130859375,9.115234375.0654296875,13.84375-.1943359375.77734375-.0634765625,1.47265625-.0634765625,2.0888671875,0,.6142578125.0654296875,1.0517578125.16259765625,1.3115234375.29150390625.3232421875.1943359375.630859375.50244140625.9228515625.9228515625.291015625.42236328125.5009765625,1.08544921875.630859375,1.99169921875.1298828125,1.16552734375.177734375,2.4287109375.146484375,3.78857421875-.0341796875,1.3603515625-.1796875,2.6396484375-.4375,3.83740234375-.259765625,1.19921875-.6484375,2.2509765625-1.166015625,3.1572265625-.5185546875.90771484375-1.1650390625,1.45703125-1.9423828125,1.6513671875-.388671875.130859375-1.19921875.2109375-2.4287109375.2431640625-1.2314453125.033203125-2.720703125.0166015625-4.46875-.048828125-6.2177734375-.1943359375-12.4345703125-.77685546875-18.65234375-1.74853515625v5.92578125c5.4404296875-.90625,10.41015625-.646484375,14.912109375.77734375,4.5,1.42529296875,8.1435546875,3.91943359375,10.9287109375,7.47998046875Z" fill="#231f20" stroke-width="0"/>
        <path d="M309.228515625,292.179199218746362c11.0751953125-.3232421875,22.181640625-.3232421875,33.3212890625,0,.388671875.0654296875.744140625.259765625,1.068359375.5830078125.32421875.32470703125.5830078125.76220703125.77734375,1.3115234375.1943359375.55126953125.3232421875,1.3447265625.388671875,2.3798828125.0634765625.9716796875.09765625,1.99169921875.09765625,3.060546875,0,1.068359375-.09765625,2.056640625-.2919921875,2.962890625-.1943359375.90771484375-.4853515625,1.66796875-.8740234375,2.28271484375-.388671875.6162109375-.939453125,1.02001953125-1.6513671875,1.21435546875-.388671875.0654296875-1.1337890625.08203125-2.234375.048828125-1.1025390625-.0322265625-2.4287109375-.09716796875-3.9833984375-.1943359375-1.5537109375-.09716796875-3.2705078125-.20947265625-5.1484375-.34033203125-1.87890625-.12890625-3.7890625-.2578125-5.7314453125-.38818359375-1.8798828125-.12939453125-3.708984375-.2431640625-5.4892578125-.34033203125-1.7822265625-.09716796875-3.384765625-.20947265625-4.80859375-.33984375-1.6845703125-.06396484375-3.2392578125-.12890625-4.6630859375-.1943359375-.259765625.0654296875-.5185546875,0-.77734375-.1943359375-.1943359375-.12890625-.373046875-.40380859375-.5341796875-.82568359375-.162109375-.42041015625-.2763671875-1.02001953125-.33984375-1.79736328125-.0654296875-.77685546875-.130859375-1.68310546875-.1943359375-2.72021484375-.0654296875-1.03515625-.0966796875-2.0400390625-.0966796875-3.01123046875,0-.9716796875.0966796875-1.79736328125.291015625-2.4775390625.1943359375-.6796875.4853515625-1.02001953125.8740234375-1.02001953125Z" fill="#231f20" stroke-width="0"/>
        <path d="M371.3046875,283.242187499996362c4.1435546875-.5830078125,7.94921875-.51806640625,11.4150390625.19384765625,3.4638671875.71337890625,6.4267578125,2.00830078125,8.888671875,3.88623046875,2.4599609375,1.87890625,4.337890625,4.2744140625,5.634765625,7.1884765625,1.2939453125,2.91455078125,1.876953125,6.2509765625,1.748046875,10.00634765625-.130859375,2.78515625-.630859375,5.48876953125-1.505859375,8.11181640625-.8740234375,2.62255859375-2.1220703125,5.0029296875-3.740234375,7.14013671875-1.619140625,2.13720703125-3.5791015625,3.98291015625-5.876953125,5.537109375-2.2998046875,1.5546875-4.90625,2.65673828125-7.8203125,3.30322265625-1.1015625.1943359375-2.1708984375.33984375-3.2060546875.43701171875-1.0361328125.09716796875-2.10546875.08056640625-3.2060546875-.04833984375-2.9140625-.1943359375-5.69921875-.87451171875-8.3544921875-2.0400390625-2.65625-1.166015625-5.01953125-2.72021484375-7.091796875-4.6630859375-2.0732421875-1.94287109375-3.7880859375-4.22607421875-5.1484375-6.84912109375-1.3603515625-2.62255859375-2.1708984375-5.48876953125-2.4287109375-8.59716796875-.32421875-3.49755859375-.11328125-7.10693359375.6318359375-10.83203125.7431640625-3.72314453125,1.845703125-7.3662109375,3.302734375-10.9287109375,1.45703125-3.56103515625,3.189453125-6.9462890625,5.197265625-10.15185546875,2.0068359375-3.2060546875,4.1123046875-6.00634765625,6.314453125-8.4033203125.90625-1.03515625,1.861328125-1.9912109375,2.8662109375-2.86572265625,1.0029296875-.87451171875,2.0234375-1.60302734375,3.0595703125-2.18603515625.517578125-.3232421875,1.1005859375-.43701171875,1.7490234375-.33984375.646484375.09716796875,1.197265625.37353515625,1.6513671875.82568359375.7119140625.5830078125,1.45703125,1.3115234375,2.234375,2.18603515625.77734375.8740234375,1.423828125,1.83056640625,1.943359375,2.86572265625.2578125.45361328125.46875.9228515625.630859375,1.40869140625.1611328125.48583984375.2099609375.98828125.1455078125,1.505859375,0,1.1015625-.453125,2.10498046875-1.359375,3.01123046875-2.9794921875,3.044921875-5.5380859375,6.47705078125-7.6748046875,10.2978515625ZM378.1044921875,297.036621093746362c-2.0732421875-.517578125-3.93359375-.517578125-5.5859375,0-1.6513671875.51904296875-3.0107421875,1.3115234375-4.080078125,2.38037109375-1.068359375,1.068359375-1.830078125,2.34814453125-2.2822265625,3.8369140625-.4541015625,1.49072265625-.51953125,2.93115234375-.1943359375,4.3232421875.3232421875,1.3935546875,1.0830078125,2.65625,2.2822265625,3.78857421875,1.1982421875,1.1337890625,2.8662109375,1.927734375,5.00390625,2.38037109375,1.2939453125.1943359375,2.5576171875.1455078125,3.7880859375-.14599609375,1.2294921875-.29150390625,2.33203125-.9228515625,3.302734375-1.89404296875,1.1005859375-1.1005859375,1.845703125-2.412109375,2.234375-3.9345703125.388671875-1.52099609375.486328125-3.01171875.2919921875-4.46875s-.697265625-2.7685546875-1.505859375-3.9345703125c-.810546875-1.16552734375-1.89453125-1.94287109375-3.2548828125-2.33154296875Z" fill="#231f20" stroke-width="0"/>
      </g>
      <g>
        <path d="M238.41015625,257.595214843746362c2.4609375,1.42529296875,4.5654296875,3.173828125,6.314453125,5.24609375,1.7490234375,2.0732421875,3.220703125,4.33984375,4.419921875,6.80029296875,1.1982421875,2.4619140625,2.15234375,5.068359375,2.8662109375,7.8203125.7119140625,2.75341796875,1.2626953125,5.52197265625,1.6513671875,8.3056640625.90625,5.505859375,1.423828125,11.07470703125,1.5546875,16.70947265625.12890625,5.63427734375.03125,11.30224609375-.2919921875,17.00048828125-.1298828125,1.61962890625-.259765625,2.94775390625-.388671875,3.98291015625-.1298828125,1.03662109375-.373046875,1.87939453125-.728515625,2.52587890625-.3564453125.64794921875-.8583984375,1.16552734375-1.505859375,1.55419921875s-1.5537109375.744140625-2.7197265625,1.06884765625c-1.1015625.12890625-2.2509765625.22607421875-3.4482421875.29150390625-1.19921875.0634765625-2.31640625-.259765625-3.3515625-.9716796875-.9716796875-.646484375-1.7822265625-1.74853515625-2.4287109375-3.302734375-.6484375-1.5546875-1.0048828125-3.7890625-1.0693359375-6.703125v-.9716796875c-1.619140625-.1943359375-3.5458984375-.35498046875-5.7802734375-.48583984375-2.234375-.12890625-4.5166015625-.20947265625-6.8486328125-.24267578125-2.3310546875-.03173828125-4.58203125-.048828125-6.7509765625-.048828125h-5.4892578125c-.0654296875.5830078125-.1455078125,1.5546875-.2431640625,2.91455078125-.0966796875,1.3603515625-.3076171875,2.72021484375-.630859375,4.080078125-.3251953125,1.3603515625-.7626953125,2.59130859375-1.3115234375,3.69189453125-.55078125,1.10205078125-1.3115234375,1.68310546875-2.283203125,1.74853515625-.9072265625.0634765625-1.943359375.12890625-3.1083984375.1943359375-1.166015625.0634765625-2.2998046875-.0654296875-3.400390625-.388671875-1.1015625-.25830078125-2.0244140625-.77734375-2.7685546875-1.55419921875-.7451171875-.77734375-1.150390625-2.0068359375-1.21484375-3.69189453125,0-2.00634765625.0322265625-4.30615234375.09765625-6.8974609375.0634765625-2.58935546875.1943359375-5.40673828125.388671875-8.45166015625.12890625-2.52587890625.33984375-5.29443359375.630859375-8.3056640625.2919921875-3.01171875.7119140625-6.103515625,1.263671875-9.27783203125.548828125-3.17236328125,1.2626953125-6.34619140625,2.13671875-9.52001953125.8740234375-3.17236328125,1.974609375-6.18408203125,3.302734375-9.03466796875,1.3271484375-2.84912109375,2.8984375-5.47216796875,4.7119140625-7.869140625,1.8125-2.39501953125,3.9833984375-4.4033203125,6.5087890625-6.02294921875,2.978515625-1.87744140625,6.2490234375-2.8173828125,9.8115234375-2.8173828125,3.5615234375,0,6.9296875.87451171875,10.103515625,2.623046875ZM214.8037109375,301.796874999996362c4.080078125-.3232421875,8.1435546875-.56591796875,12.19140625-.728515625,4.046875-.1611328125,8.1123046875-.177734375,12.1923828125-.048828125.1943359375-4.59765625,0-8.70947265625-.5830078125-12.33740234375-.5830078125-3.62646484375-1.3935546875-6.6865234375-2.4287109375-9.18017578125-1.037109375-2.49267578125-2.267578125-4.40380859375-3.69140625-5.73193359375-1.42578125-1.32666015625-2.8828125-1.9912109375-4.3720703125-1.9912109375-1.2958984375,0-2.6396484375.66455078125-4.03125,1.9912109375-1.3935546875,1.328125-2.6884765625,3.271484375-3.8857421875,5.8291015625-1.19921875,2.55908203125-2.283203125,5.71630859375-3.2548828125,9.4716796875-.970703125,3.7568359375-1.6845703125,7.99951171875-2.13671875,12.72607421875Z" fill="#e2dddb" stroke-width="0"/>
        <path d="M297.376953125,289.847656249996362c2.0068359375,2.72021484375,3.3671875,5.7001953125,4.080078125,8.9375.7119140625,3.2392578125.79296875,6.46044921875.2431640625,9.66650390625-.55078125,3.20556640625-1.6513671875,6.2822265625-3.302734375,9.228515625-1.6513671875,2.94775390625-3.837890625,5.42529296875-6.5576171875,7.431640625-3.69140625,2.72021484375-7.4482421875,4.22607421875-11.26953125,4.517578125s-7.4482421875-.50244140625-10.8798828125-2.38037109375c-2.267578125-1.16552734375-4.2109375-2.65478515625-5.8291015625-4.46875-1.619140625-1.81201171875-2.494140625-4.080078125-2.623046875-6.7998046875-.064453125-1.4892578125.2431640625-2.91455078125.9228515625-4.2744140625.6806640625-1.3603515625,1.5703125-2.4287109375,2.671875-3.2060546875,1.1005859375-.77734375,2.2978515625-1.14892578125,3.5947265625-1.1171875,1.294921875.033203125,2.5576171875.69677734375,3.7880859375,1.99169921875.90625,1.16552734375,2.072265625,2.185546875,3.498046875,3.06005859375,1.423828125.8740234375,2.9775390625,1.150390625,4.6630859375.82568359375,3.2373046875-.517578125,5.40625-2.751953125,6.5087890625-6.703125.2578125-1.1005859375.3544921875-2.24951171875.291015625-3.44873046875-.0654296875-1.19775390625-.30859375-2.31494140625-.728515625-3.3515625-.421875-1.03515625-1.0537109375-1.9580078125-1.89453125-2.7685546875-.8427734375-.80908203125-1.943359375-1.37548828125-3.302734375-1.7001953125-1.87890625-.517578125-3.8857421875-.6953125-6.0234375-.5341796875-2.13671875.162109375-4.0166015625.50244140625-5.634765625,1.02001953125-.58203125.13037109375-1.5048828125.162109375-2.7685546875.09716796875-1.2626953125-.06396484375-2.2509765625-.09716796875-2.962890625-.09716796875-.77734375-.06396484375-1.44140625-.45263671875-1.9912109375-1.166015625-.55078125-.7119140625-.9716796875-1.55419921875-1.2626953125-2.52587890625-.2919921875-.97119140625-.470703125-1.94287109375-.5341796875-2.9140625-.0654296875-.9716796875.03125-1.8125.291015625-2.52587890625.1943359375-.646484375.33984375-1.89453125.4375-3.740234375.0966796875-1.845703125.177734375-3.91748046875.2421875-6.21728515625.064453125-2.29833984375.1123046875-4.6142578125.146484375-6.94580078125.03125-2.33154296875.080078125-4.2744140625.1455078125-5.8291015625.0634765625-1.2294921875.2431640625-2.07177734375.5341796875-2.52587890625.291015625-.4521484375.728515625-.7119140625,1.3115234375-.77685546875.5830078125-.06396484375,1.294921875-.01513671875,2.13671875.1455078125.841796875.16259765625,1.8125.2763671875,2.9150390625.34033203125,4.46875.32470703125,8.9521484375.55078125,13.4541015625.6796875,4.5009765625.130859375,9.115234375.0654296875,13.84375-.1943359375.77734375-.0634765625,1.47265625-.0634765625,2.0888671875,0,.6142578125.0654296875,1.0517578125.16259765625,1.3115234375.29150390625.3232421875.1943359375.630859375.50244140625.9228515625.9228515625.291015625.42236328125.5009765625,1.08544921875.630859375,1.99169921875.1298828125,1.16552734375.177734375,2.4287109375.146484375,3.78857421875-.0341796875,1.3603515625-.1796875,2.6396484375-.4375,3.83740234375-.259765625,1.19921875-.6484375,2.2509765625-1.166015625,3.1572265625-.5185546875.90771484375-1.1650390625,1.45703125-1.9423828125,1.6513671875-.388671875.130859375-1.19921875.2109375-2.4287109375.2431640625-1.2314453125.033203125-2.720703125.0166015625-4.46875-.048828125-6.2177734375-.1943359375-12.4345703125-.77685546875-18.65234375-1.74853515625v5.92578125c5.4404296875-.90625,10.41015625-.646484375,14.912109375.77734375,4.5,1.42529296875,8.1435546875,3.91943359375,10.9287109375,7.47998046875Z" fill="#e2dddb" stroke-width="0"/>
        <path d="M309.228515625,292.179199218746362c11.0751953125-.3232421875,22.181640625-.3232421875,33.3212890625,0,.388671875.0654296875.744140625.259765625,1.068359375.5830078125.32421875.32470703125.5830078125.76220703125.77734375,1.3115234375.1943359375.55126953125.3232421875,1.3447265625.388671875,2.3798828125.0634765625.9716796875.09765625,1.99169921875.09765625,3.060546875,0,1.068359375-.09765625,2.056640625-.2919921875,2.962890625-.1943359375.90771484375-.4853515625,1.66796875-.8740234375,2.28271484375-.388671875.6162109375-.939453125,1.02001953125-1.6513671875,1.21435546875-.388671875.0654296875-1.1337890625.08203125-2.234375.048828125-1.1025390625-.0322265625-2.4287109375-.09716796875-3.9833984375-.1943359375-1.5537109375-.09716796875-3.2705078125-.20947265625-5.1484375-.34033203125-1.87890625-.12890625-3.7890625-.2578125-5.7314453125-.38818359375-1.8798828125-.12939453125-3.708984375-.2431640625-5.4892578125-.34033203125-1.7822265625-.09716796875-3.384765625-.20947265625-4.80859375-.33984375-1.6845703125-.06396484375-3.2392578125-.12890625-4.6630859375-.1943359375-.259765625.0654296875-.5185546875,0-.77734375-.1943359375-.1943359375-.12890625-.373046875-.40380859375-.5341796875-.82568359375-.162109375-.42041015625-.2763671875-1.02001953125-.33984375-1.79736328125-.0654296875-.77685546875-.130859375-1.68310546875-.1943359375-2.72021484375-.0654296875-1.03515625-.0966796875-2.0400390625-.0966796875-3.01123046875,0-.9716796875.0966796875-1.79736328125.291015625-2.4775390625.1943359375-.6796875.4853515625-1.02001953125.8740234375-1.02001953125Z" fill="#e2dddb" stroke-width="0"/>
        <path d="M371.3046875,283.242187499996362c4.1435546875-.5830078125,7.94921875-.51806640625,11.4150390625.19384765625,3.4638671875.71337890625,6.4267578125,2.00830078125,8.888671875,3.88623046875,2.4599609375,1.87890625,4.337890625,4.2744140625,5.634765625,7.1884765625,1.2939453125,2.91455078125,1.876953125,6.2509765625,1.748046875,10.00634765625-.130859375,2.78515625-.630859375,5.48876953125-1.505859375,8.11181640625-.8740234375,2.62255859375-2.1220703125,5.0029296875-3.740234375,7.14013671875-1.619140625,2.13720703125-3.5791015625,3.98291015625-5.876953125,5.537109375-2.2998046875,1.5546875-4.90625,2.65673828125-7.8203125,3.30322265625-1.1015625.1943359375-2.1708984375.33984375-3.2060546875.43701171875-1.0361328125.09716796875-2.10546875.08056640625-3.2060546875-.04833984375-2.9140625-.1943359375-5.69921875-.87451171875-8.3544921875-2.0400390625-2.65625-1.166015625-5.01953125-2.72021484375-7.091796875-4.6630859375-2.0732421875-1.94287109375-3.7880859375-4.22607421875-5.1484375-6.84912109375-1.3603515625-2.62255859375-2.1708984375-5.48876953125-2.4287109375-8.59716796875-.32421875-3.49755859375-.11328125-7.10693359375.6318359375-10.83203125.7431640625-3.72314453125,1.845703125-7.3662109375,3.302734375-10.9287109375,1.45703125-3.56103515625,3.189453125-6.9462890625,5.197265625-10.15185546875,2.0068359375-3.2060546875,4.1123046875-6.00634765625,6.314453125-8.4033203125.90625-1.03515625,1.861328125-1.9912109375,2.8662109375-2.86572265625,1.0029296875-.87451171875,2.0234375-1.60302734375,3.0595703125-2.18603515625.517578125-.3232421875,1.1005859375-.43701171875,1.7490234375-.33984375.646484375.09716796875,1.197265625.37353515625,1.6513671875.82568359375.7119140625.5830078125,1.45703125,1.3115234375,2.234375,2.18603515625.77734375.8740234375,1.423828125,1.83056640625,1.943359375,2.86572265625.2578125.45361328125.46875.9228515625.630859375,1.40869140625.1611328125.48583984375.2099609375.98828125.1455078125,1.505859375,0,1.1015625-.453125,2.10498046875-1.359375,3.01123046875-2.9794921875,3.044921875-5.5380859375,6.47705078125-7.6748046875,10.2978515625ZM378.1044921875,297.036621093746362c-2.0732421875-.517578125-3.93359375-.517578125-5.5859375,0-1.6513671875.51904296875-3.0107421875,1.3115234375-4.080078125,2.38037109375-1.068359375,1.068359375-1.830078125,2.34814453125-2.2822265625,3.8369140625-.4541015625,1.49072265625-.51953125,2.93115234375-.1943359375,4.3232421875.3232421875,1.3935546875,1.0830078125,2.65625,2.2822265625,3.78857421875,1.1982421875,1.1337890625,2.8662109375,1.927734375,5.00390625,2.38037109375,1.2939453125.1943359375,2.5576171875.1455078125,3.7880859375-.14599609375,1.2294921875-.29150390625,2.33203125-.9228515625,3.302734375-1.89404296875,1.1005859375-1.1005859375,1.845703125-2.412109375,2.234375-3.9345703125.388671875-1.52099609375.486328125-3.01171875.2919921875-4.46875s-.697265625-2.7685546875-1.505859375-3.9345703125c-.810546875-1.16552734375-1.89453125-1.94287109375-3.2548828125-2.33154296875Z" fill="#e2dddb" stroke-width="0"/>
      </g>
    </g>
  </g>
  <g id="pie_with_links_-5" data-name="pie (with links)">
    <g id="pie_with_links_-6" data-name="pie (with links)">
      <g id="Pie">
        <g>
          <a xlink:href="https://www.notion.so/dmmnotes/paranoid-ae38b1e6af0c4dd08f61e0d8f6e9f05f?pvs=4">
            <path id="C8" d="M331.308105468760004,517.74951171875l7.825683593739996,54.430664062501819c26.439208984369543-3.767822265631366,51.645751953139552-11.311523437501819,75.101318359369543-22.042968750001819l-22.832519531239086-49.996826171879547c-18.7666015625,8.572265625-38.93505859375,14.601318359379547-60.094482421870453,17.609130859379547Z" fill="none" stroke="#181818" stroke-linecap="round" stroke-linejoin="round" stroke-width="15"/>
          </a>
          <a xlink:href="https://www.notion.so/dmmnotes/menacing-a5bd7149286344deba45ec15e759e579?pvs=4">
            <path id="C7" d="M391.402587890630457,500.140380859370453l22.832519531239086,49.996826171879547c23.989990234390461-10.975830078119543,46.116210937520009-25.287109375009095,65.803955078140461-42.36181640625l-35.972900390629547-41.515869140619543c-15.753417968760914,13.65869140625-33.459228515630457,25.104492187489996-52.66357421875,33.880859374989996Z" fill="none" stroke="#181818" stroke-linecap="round" stroke-linejoin="round" stroke-width="15"/>
          </a>
          <a xlink:href="https://www.notion.so/dmmnotes/seductively-obsessed-with-rescue-6fb5a68f6d334bc29ccccc16d8a4e56e?pvs=4">
            <path id="C6" d="M444.066162109380457,466.259521484380457l35.972900390629547,41.515869140619543c19.762939453120453-17.141845703129547,37.047119140620453-37.041748046879547,51.26708984375-59.125l-46.223632812510004-29.704833984369543c-11.373291015619543,17.673583984369543-25.201171874989996,33.598876953119543-41.016357421869543,47.31396484375Z" fill="none" stroke="#181818" stroke-linecap="round" stroke-linejoin="round" stroke-width="15"/>
          </a>
          <a xlink:href="https://www.notion.so/dmmnotes/punitively-obsessed-with-revenge-33d2e77f37774316b42bccf4a60f9688?pvs=4">
            <path id="C5" d="M485.08251953125,418.945556640630457l46.223632812510004,29.704833984369543c14.048095703129547-21.809326171879547,25.08837890625-45.71875,32.551513671870453-71.175048828130457l-52.7548828125-15.490234375c-5.9619140625,20.377929687510914-14.789306640620453,39.509765625000909-26.020263671880457,56.960449218760914Z" fill="none" stroke="#181818" stroke-linecap="round" stroke-linejoin="round" stroke-width="15"/>
          </a>
          <a xlink:href="https://www.notion.so/dmmnotes/feigned-helpless-e79a94b0498c4e109a681b7f3dcdb088?pvs=4">
            <path id="C4" d="M520,300c0,21.5380859375-3.142089843739996,42.321533203119543-8.897216796869543,61.985107421869543l52.7548828125,15.490234375c7.2080078125-24.583496093739086,11.142333984369543-50.5634765625,11.142333984369543-77.475341796869543h-55Z" fill="none" stroke="#181818" stroke-linecap="round" stroke-linejoin="round" stroke-width="15"/>
          </a>
          <a xlink:href="https://www.notion.so/dmmnotes/aggressive-2d8ccce383534b9dbfc7b4b10b8a5d5c?pvs=4">
            <path id="C3" d="M520,300h55c0-26.911865234389552-3.934326171869543-52.894531250009095-11.142333984369543-77.475341796880457l-52.7548828125,15.490234374990905c5.755126953129547,19.663574218759095,8.897216796869543,40.449707031259095,8.897216796869543,61.985107421889552Z" fill="none" stroke="#181818" stroke-linecap="round" stroke-linejoin="round" stroke-width="15"/>
          </a>
          <a xlink:href="https://www.notion.so/dmmnotes/disarming-086276e599884c86b9359acf831a8b20?pvs=4">
            <path id="C2" d="M511.102783203130457,238.014892578110448l52.7548828125-15.490234374990905c-7.463134765620453-25.456298828129547-18.503417968740905-49.36572265625-32.551513671870453-71.177734375l-46.223632812510004,29.70751953125c11.230957031260004,17.45068359375,20.055664062510004,36.585205078120453,26.020263671880457,56.960449218740905Z" fill="none" stroke="#181818" stroke-linecap="round" stroke-linejoin="round" stroke-width="15"/>
          </a>
          <a xlink:href="https://www.notion.so/dmmnotes/threatening-348fe6a52f7a4fe69f768e98c6586932?pvs=4">
            <path id="C1" d="M485.08251953125,181.054443359369543l46.223632812510004-29.70751953125c-14.219970703129547-22.08056640625-31.504150390629547-41.980468750009095-51.26708984375-59.122314453129547l-35.972900390629547,41.5185546875c15.815185546879547,13.71240234375,29.64306640625,29.637695312510004,41.016357421869543,47.311279296879547Z" fill="none" stroke="#181818" stroke-linecap="round" stroke-linejoin="round" stroke-width="15"/>
          </a>
          <a xlink:href="https://www.notion.so/dmmnotes/complaining-acceptance-8b40401a720c493ba73f7cde1567cf3d?pvs=4">
            <path id="B5" d="M444.066162109380457,133.743164062489996l35.972900390629547-41.5185546875c-19.687744140620453-17.07470703125-41.81396484375-31.388671875-65.803955078140461-42.36181640625l-22.832519531239086,49.99951171875c19.204345703119543,8.773681640629547,36.910156249989086,20.22216796875,52.66357421875,33.880859375Z" fill="none" stroke="#181818" stroke-linecap="round" stroke-linejoin="round" stroke-width="15"/>
          </a>
          <a xlink:href="https://www.notion.so/dmmnotes/sentimental-bc554363322342b1b7ca4ccc02125049?pvs=4">
            <path id="B4" d="M391.402587890630457,99.862304687489996l22.832519531239086-49.99951171875c-23.455566406229991-10.7314453125-48.662109375-18.275146484379547-75.101318359369543-22.042968749979991l-7.825683593739996,54.433349609359539c21.159423828120453,3.0078125,41.327880859370453,9.034179687490905,60.094482421870453,17.609130859370453Z" fill="none" stroke="#181818" stroke-linecap="round" stroke-linejoin="round" stroke-width="15"/>
          </a>
          <a xlink:href="https://www.notion.so/dmmnotes/comfortably-balanced-e76dc615a8b947aa915377cd02fcf716?pvs=4">
            <path id="B3" d="M300,79.999999999989996c10.634765625,0,21.078857421869543.797607421879547,31.308105468760004,2.253173828129547l7.825683593739996-54.433349609359539c-12.788574218739996-1.823486328140461-25.843017578130457-2.819824218770009-39.1337890625-2.819824218770009s-26.34521484375.996337890629547-39.133789062489996,2.819824218770009l7.825683593739996,54.433349609359539c10.23193359375-1.45556640625,20.67333984375-2.253173828129547,31.30810546875-2.253173828129547Z" fill="none" stroke="#181818" stroke-linecap="round" stroke-linejoin="round" stroke-width="15"/>
          </a>
          <a xlink:href="https://www.notion.so/dmmnotes/accepting-317d81273fff4cd9817cdf4a88efd378?pvs=4">
            <path id="B2" d="M268.69189453125,82.253173828119543l-7.825683593739996-54.433349609359539c-26.439208984390461,3.767822265600444-51.643066406260004,11.311523437479991-75.098632812510004,22.042968749979991l22.83251953125,49.99951171875c18.7666015625-8.574951171879547,38.93505859375-14.601318359370453,60.091796875-17.609130859370453Z" fill="none" stroke="#181818" stroke-linecap="round" stroke-linejoin="round" stroke-width="15"/>
          </a>
          <a xlink:href="https://www.notion.so/dmmnotes/distanced-from-past-2eabab7e9c77429f8e577f4e3e203653?pvs=4">
            <path id="B1" d="M208.60009765625,99.862304687489996l-22.83251953125-49.99951171875c-23.99267578125,10.97314453125-46.1162109375,25.287109375-65.803955078119543,42.36181640625l35.972900390619543,41.515869140629547c15.75341796875-13.658691406259095,33.4619140625-25.1044921875,52.66357421875-33.878173828129547Z" fill="none" stroke="#181818" stroke-linecap="round" stroke-linejoin="round" stroke-width="15"/>
          </a>
          <a xlink:href="https://www.notion.so/dmmnotes/idealising-a52277f51ed14a42aae78081bb34b8be?pvs=4">
            <path id="A1" d="M155.9365234375,133.740478515619543l-35.972900390619543-41.515869140629547c-19.765625,17.141845703120453-37.049804687510914,37.041748046879547-51.269775390630457,59.122314453129547l46.226318359369543,29.70751953125c11.373291015640461-17.673583984369543,25.201171875010914-33.598876953129547,41.016357421880457-47.31396484375Z" fill="none" stroke="#181818" stroke-linecap="round" stroke-linejoin="round" stroke-width="15"/>
          </a>
          <a xlink:href="https://www.notion.so/dmmnotes/distancing-9ac690cdca654729a17a5a255944e2d1?pvs=4">
            <path id="A2" d="M114.920166015619543,181.054443359369543l-46.226318359369543-29.70751953125c-14.04541015625,21.81201171875-25.08837890625,45.721435546870453-32.551513671880457,71.177734375l52.754882812510914,15.490234374990905c5.964599609369543-20.375244140620453,14.7919921875-39.509765624990905,26.022949218739086-56.960449218740905Z" fill="none" stroke="#181818" stroke-linecap="round" stroke-linejoin="round" stroke-width="15"/>
          </a>
          <a xlink:href="https://www.notion.so/dmmnotes/compulsive-caregiving-9c380c0928294f41ae10764aa0dee886?pvs=4">
            <path id="A3" d="M88.897216796880457,238.014892578110448l-52.754882812510914-15.490234374990905c-7.205322265619543,24.580810546871362-11.142333984369543,50.563476562490905-11.142333984369543,77.475341796880457h55c0-21.535400390630457,3.14208984375-42.321533203130457,8.897216796880457-61.985107421889552Z" fill="none" stroke="#181818" stroke-linecap="round" stroke-linejoin="round" stroke-width="15"/>
          </a>
          <a xlink:href="https://www.notion.so/dmmnotes/compulsive-compliance-6d08b7ea9a424ce1a72b9184b7850414?pvs=4">
            <path id="A4" d="M80,300H25c0,26.911865234369543,3.93701171875,52.894531249990905,11.142333984369543,77.475341796869543l52.754882812510914-15.490234375c-5.755126953130457-19.66357421875-8.897216796880457-40.447021484369543-8.897216796880457-61.985107421869543Z" fill="none" stroke="#181818" stroke-linecap="round" stroke-linejoin="round" stroke-width="15"/>
          </a>
          <a xlink:href="https://www.notion.so/dmmnotes/sexual-supplementation-8e85f49046ef412aa229745abf7d38d3?pvs=4">
            <g id="A5">
              <path d="M68.69482421875,449.650390625c-.32861328125,0-.650390625-.16162109375-.841796875-.45849609375-14.28466796875-22.18115234375-25.2763671875-46.21533203125-32.67041015625-71.435546875-.1552734375-.52978515625.14794921875-1.0849609375.677734375-1.24072265625l52.75537109375-15.490234375c.09228515625-.02734375.18701171875-.04052734375.28173828125-.04052734375.166015625,0,.3310546875.04150390625.4794921875.12255859375.23291015625.12744140625.40576171875.341796875.48046875.5966796875,5.86083984375,20.025390625,14.5751953125,39.10205078125,25.90087890625,56.70068359375.1435546875.22314453125.19287109375.494140625.13623046875.75341796875-.05615234375.25927734375-.21337890625.4853515625-.4365234375.62890625l-46.2236328125,29.70458984375c-.1669921875.107421875-.3544921875.15869140625-.53955078125.15869140625Z" fill="none" stroke="#181818" stroke-linecap="round" stroke-linejoin="round" stroke-width="15"/>
              <path d="M88.897216796869543,361.985107421875c5.964599609380457,20.377937316895441,14.789306640630457,39.509765625,26.020263671880457,56.960441589355469l-46.2236328125,29.704845428466797c-14.04541015625-21.809322357177734-25.08837890625-45.718753814697266-32.551513671880457-71.175045013426825l52.7548828125-15.490242004395441M88.897216796869543,359.985107421875c-.189208984369543,0-.37890625.02679443359375-.5634765625.081008911132812l-52.7548828125,15.490249633788153c-1.0595703125.311103820801691-1.66650390625,1.421997070313409-1.355712890619543,2.481643676758722,7.4208984375,25.312248229980469,18.452880859369543,49.434013366699219,32.789306640619543,71.695278167724609.382080078130457.593593597412109,1.02587890625.917346954345703,1.683349609380457.917346954345703.3701171875,0,.74462890625-.102676391601562,1.079345703119543-.317714691163019l46.2236328125-29.704845428465887c.4462890625-.286895751953125.760498046880457-.739433288575128.873046875-1.258018493652344.11279296875-.518569946289062.0146484375-1.060646057128906-.2724609375-1.506889343261719-11.2734375-17.516555786132812-19.947998046869543-36.50567626953125-25.78271484375-56.439888000488281-.149169921869543-.509353637695312-.494384765619543-.938583374023438-.960205078119543-1.193130493164062-.296875-.162246704101562-.626953125-.245040893554688-.959228515630457-.245040893554688h0Z" fill="none" stroke="#181818" stroke-linecap="round" stroke-linejoin="round" stroke-width="15"/>
            </g>
          </a>
          <a xlink:href="https://www.notion.so/dmmnotes/compulsive-isolated-self-reliance-b321873a73fa41aaaadd7192fde856a2?pvs=4">
            <g id="A6">
              <path d="M119.9638671875,508.775390625c-.23974609375,0-.47265625-.08642578125-.6552734375-.24462890625-19.90576171875-17.263671875-37.2177734375-37.22802734375-51.45556640625-59.3388671875-.1435546875-.22314453125-.19287109375-.494140625-.13623046875-.75341796875.05615234375-.259765625.21337890625-.48583984375.4365234375-.62939453125l46.2236328125-29.70458984375c.1669921875-.107421875.3544921875-.15869140625.53955078125-.15869140625.32861328125,0,.65087890625.16162109375.841796875.458984375,11.2998046875,17.55712890625,25.0380859375,33.4033203125,40.83349609375,47.099609375.4169921875.361328125.4619140625.9931640625.1005859375,1.41015625l-35.97265625,41.515625c-.173828125.20068359375-.419921875.32373046875-.6845703125.3427734375-.02392578125.00146484375-.0478515625.00244140625-.0712890625.00244140625Z" fill="none" stroke="#181818" stroke-linecap="round" stroke-linejoin="round" stroke-width="15"/>
              <path d="M114.91748046875,418.945556640625c11.3759765625,17.676265716552734,25.203857421869543,33.601566314697266,41.01904296875,47.313968658447266l-35.972900390630457,41.515865325927734c-19.765625-17.141850471496582-37.0498046875-37.041749954223633-51.269775390619543-59.125l46.2236328125-29.704833984375M114.91552734375,416.9453125c-.3701171875,0-.74462890625.102668762207031-1.079345703130457.317710876464844l-46.2236328125,29.704833984375c-.446533203119543.286933898925781-.760498046869543.739582061767578-.873291015619543,1.258251190185547-.112548828130457.518680572509766-.014404296880457,1.060832977294922.27294921875,1.507064819335938,14.2900390625,22.191783905029297,31.66455078125,42.228366851806641,51.64111328125,59.553150177001953.36474609375.316400527954102.83056640625.489068031311035,1.310302734369543.489068031311035.04736328125,0,.0947265625-.001677513122559.142333984380457-.005067825317383.529052734369543-.03773307800293,1.021728515619543-.284233093261719,1.369140625-.685233116149902l35.972900390619543-41.515867233276367c.72314453125-.834600448608398.633056640630457-2.097368240356445-.201416015619543-2.820798873901367-15.72314453125-13.632652282714844-29.39892578125-29.407115936279297-40.647216796880457-46.885234832763672-.38232421875-.593902587890625-1.0263671875-.917877197265625-1.683837890619543-.917877197265625h0Z" fill="none" stroke="#181818" stroke-linecap="round" stroke-linejoin="round" stroke-width="15"/>
            </g>
          </a>
          <a xlink:href="https://www.notion.so/dmmnotes/delusional-idealization-743e2420b9994a48a7cab68190432e8a?pvs=4">
            <path id="A7" d="M155.9365234375,466.259521484380457l-35.972900390619543,41.515869140619543c19.687744140619543,17.074707031240905,41.811279296869543,31.385986328130457,65.803955078119543,42.36181640625l22.83251953125-49.996826171879547c-19.20166015625-8.773681640620453-36.91015625-20.222167968739996-52.66357421875-33.880859374989996Z" fill="none" stroke="#181818" stroke-linecap="round" stroke-linejoin="round" stroke-width="15"/>
          </a>
          <a xlink:href="https://www.notion.so/dmmnotes/externally-assembled-self-994ecb0895b844409b931d74a045c162?pvs=4">
            <path id="A8" d="M208.60009765625,500.140380859370453l-22.83251953125,49.996826171879547c23.45556640625,10.7314453125,48.659423828119543,18.275146484370453,75.098632812510004,22.042968750001819l7.825683593739996-54.430664062501819c-21.15673828125-3.0078125-41.3251953125-9.0341796875-60.091796875-17.609130859379547Z" fill="none" stroke="#181818" stroke-linecap="round" stroke-linejoin="round" stroke-width="15"/>
          </a>
          <a xlink:href="https://www.notion.so/dmmnotes/psychopathy-0fe4a3222d9f4fd097ab4546c9776768?pvs=4">
            <path id="AC" d="M300,520c-10.634765625,0-21.076171875-.794921875-31.30810546875-2.25048828125l-7.825683593739996,54.430664062501819c12.788574218739996,1.823486328128638,25.843017578120453,2.81982421875,39.133789062489996,2.81982421875s26.345214843760004-.996337890621362,39.1337890625-2.81982421875l-7.825683593739996-54.430664062501819c-10.229248046890461,1.45556640625-20.673339843760004,2.25048828125-31.308105468760004,2.25048828125Z" fill="none" stroke="#181818" stroke-linecap="round" stroke-linejoin="round" stroke-width="15"/>
          </a>
        </g>
        <g>
          <a xlink:href="https://www.notion.so/dmmnotes/paranoid-ae38b1e6af0c4dd08f61e0d8f6e9f05f?pvs=4">
            <path id="C8-2" data-name="C8" d="M331.308105468760004,517.74951171875l7.825683593739996,54.430664062501819c26.439208984369543-3.767822265631366,51.645751953139552-11.311523437501819,75.101318359369543-22.042968750001819l-22.832519531239086-49.996826171879547c-18.7666015625,8.572265625-38.93505859375,14.601318359379547-60.094482421870453,17.609130859379547Z" fill="#8f807d" stroke="#181818" stroke-linecap="round" stroke-linejoin="round" stroke-width="2"/>
          </a>
          <a xlink:href="https://www.notion.so/dmmnotes/menacing-a5bd7149286344deba45ec15e759e579?pvs=4">
            <path id="C7-2" data-name="C7" d="M391.402587890630457,500.140380859370453l22.832519531239086,49.996826171879547c23.989990234390461-10.975830078119543,46.116210937520009-25.287109375009095,65.803955078140461-42.36181640625l-35.972900390629547-41.515869140619543c-15.753417968760914,13.65869140625-33.459228515630457,25.104492187489996-52.66357421875,33.880859374989996Z" fill="#8f807d" stroke="#181818" stroke-linecap="round" stroke-linejoin="round" stroke-width="2"/>
          </a>
          <a xlink:href="https://www.notion.so/dmmnotes/seductively-obsessed-with-rescue-6fb5a68f6d334bc29ccccc16d8a4e56e?pvs=4">
            <path id="C6-2" data-name="C6" d="M444.066162109380457,466.259521484380457l35.972900390629547,41.515869140619543c19.762939453120453-17.141845703129547,37.047119140620453-37.041748046879547,51.26708984375-59.125l-46.223632812510004-29.704833984369543c-11.373291015619543,17.673583984369543-25.201171874989996,33.598876953119543-41.016357421869543,47.31396484375Z" fill="#8f807d" stroke="#181818" stroke-linecap="round" stroke-linejoin="round" stroke-width="2"/>
          </a>
          <a xlink:href="https://www.notion.so/dmmnotes/punitively-obsessed-with-revenge-33d2e77f37774316b42bccf4a60f9688?pvs=4">
            <path id="C5-2" data-name="C5" d="M485.08251953125,418.945556640630457l46.223632812510004,29.704833984369543c14.048095703129547-21.809326171879547,25.08837890625-45.71875,32.551513671870453-71.175048828130457l-52.7548828125-15.490234375c-5.9619140625,20.377929687510914-14.789306640620453,39.509765625000909-26.020263671880457,56.960449218760914Z" fill="#8f807d" stroke="#181818" stroke-linecap="round" stroke-linejoin="round" stroke-width="2"/>
          </a>
          <a xlink:href="https://www.notion.so/dmmnotes/feigned-helpless-e79a94b0498c4e109a681b7f3dcdb088?pvs=4">
            <path id="C4-2" data-name="C4" d="M520,300c0,21.5380859375-3.142089843739996,42.321533203119543-8.897216796869543,61.985107421869543l52.7548828125,15.490234375c7.2080078125-24.583496093739086,11.142333984369543-50.5634765625,11.142333984369543-77.475341796869543h-55Z" fill="#8f807d" stroke="#181818" stroke-linecap="round" stroke-linejoin="round" stroke-width="2"/>
          </a>
          <a xlink:href="https://www.notion.so/dmmnotes/aggressive-2d8ccce383534b9dbfc7b4b10b8a5d5c?pvs=4">
            <path id="C3-2" data-name="C3" d="M520,300h55c0-26.911865234389552-3.934326171869543-52.894531250009095-11.142333984369543-77.475341796880457l-52.7548828125,15.490234374990905c5.755126953129547,19.663574218759095,8.897216796869543,40.449707031259095,8.897216796869543,61.985107421889552Z" fill="#8f807d" stroke="#181818" stroke-linecap="round" stroke-linejoin="round" stroke-width="2"/>
          </a>
          <a xlink:href="https://www.notion.so/dmmnotes/disarming-086276e599884c86b9359acf831a8b20?pvs=4">
            <path id="C2-2" data-name="C2" d="M511.102783203130457,238.014892578110448l52.7548828125-15.490234374990905c-7.463134765620453-25.456298828129547-18.503417968740905-49.36572265625-32.551513671870453-71.177734375l-46.223632812510004,29.70751953125c11.230957031260004,17.45068359375,20.055664062510004,36.585205078120453,26.020263671880457,56.960449218740905Z" fill="#8f807d" stroke="#181818" stroke-linecap="round" stroke-linejoin="round" stroke-width="2"/>
          </a>
          <a xlink:href="https://www.notion.so/dmmnotes/threatening-348fe6a52f7a4fe69f768e98c6586932?pvs=4">
            <path id="C1-2" data-name="C1" d="M485.08251953125,181.054443359369543l46.223632812510004-29.70751953125c-14.219970703129547-22.08056640625-31.504150390629547-41.980468750009095-51.26708984375-59.122314453129547l-35.972900390629547,41.5185546875c15.815185546879547,13.71240234375,29.64306640625,29.637695312510004,41.016357421869543,47.311279296879547Z" fill="#8f807d" stroke="#181818" stroke-linecap="round" stroke-linejoin="round" stroke-width="2"/>
          </a>
          <a xlink:href="https://www.notion.so/dmmnotes/complaining-acceptance-8b40401a720c493ba73f7cde1567cf3d?pvs=4">
            <path id="B5-2" data-name="B5" d="M444.066162109380457,133.743164062489996l35.972900390629547-41.5185546875c-19.687744140620453-17.07470703125-41.81396484375-31.388671875-65.803955078140461-42.36181640625l-22.832519531239086,49.99951171875c19.204345703119543,8.773681640629547,36.910156249989086,20.22216796875,52.66357421875,33.880859375Z" fill="#8f807d" stroke="#181818" stroke-linecap="round" stroke-linejoin="round" stroke-width="2"/>
          </a>
          <a xlink:href="https://www.notion.so/dmmnotes/sentimental-bc554363322342b1b7ca4ccc02125049?pvs=4">
            <path id="B4-2" data-name="B4" d="M391.402587890630457,99.862304687489996l22.832519531239086-49.99951171875c-23.455566406229991-10.7314453125-48.662109375-18.275146484379547-75.101318359369543-22.042968749979991l-7.825683593739996,54.433349609359539c21.159423828120453,3.0078125,41.327880859370453,9.034179687490905,60.094482421870453,17.609130859370453Z" fill="#8f807d" stroke="#181818" stroke-linecap="round" stroke-linejoin="round" stroke-width="2"/>
          </a>
          <a xlink:href="https://www.notion.so/dmmnotes/comfortably-balanced-e76dc615a8b947aa915377cd02fcf716?pvs=4">
            <path id="B3-2" data-name="B3" d="M300,79.999999999989996c10.634765625,0,21.078857421869543.797607421879547,31.308105468760004,2.253173828129547l7.825683593739996-54.433349609359539c-12.788574218739996-1.823486328140461-25.843017578130457-2.819824218770009-39.1337890625-2.819824218770009s-26.34521484375.996337890629547-39.133789062489996,2.819824218770009l7.825683593739996,54.433349609359539c10.23193359375-1.45556640625,20.67333984375-2.253173828129547,31.30810546875-2.253173828129547Z" fill="#8f807d" stroke="#181818" stroke-linecap="round" stroke-linejoin="round" stroke-width="2"/>
          </a>
          <a xlink:href="https://www.notion.so/dmmnotes/accepting-317d81273fff4cd9817cdf4a88efd378?pvs=4">
            <path id="B2-2" data-name="B2" d="M268.69189453125,82.253173828119543l-7.825683593739996-54.433349609359539c-26.439208984390461,3.767822265600444-51.643066406260004,11.311523437479991-75.098632812510004,22.042968749979991l22.83251953125,49.99951171875c18.7666015625-8.574951171879547,38.93505859375-14.601318359370453,60.091796875-17.609130859370453Z" fill="#8f807d" stroke="#181818" stroke-linecap="round" stroke-linejoin="round" stroke-width="2"/>
          </a>
          <a xlink:href="https://www.notion.so/dmmnotes/distanced-from-past-2eabab7e9c77429f8e577f4e3e203653?pvs=4">
            <path id="B1-2" data-name="B1" d="M208.60009765625,99.862304687489996l-22.83251953125-49.99951171875c-23.99267578125,10.97314453125-46.1162109375,25.287109375-65.803955078119543,42.36181640625l35.972900390619543,41.515869140629547c15.75341796875-13.658691406259095,33.4619140625-25.1044921875,52.66357421875-33.878173828129547Z" fill="#8f807d" stroke="#181818" stroke-linecap="round" stroke-linejoin="round" stroke-width="2"/>
          </a>
          <a xlink:href="https://www.notion.so/dmmnotes/idealising-a52277f51ed14a42aae78081bb34b8be?pvs=4">
            <path id="A1-2" data-name="A1" d="M155.9365234375,133.740478515619543l-35.972900390619543-41.515869140629547c-19.765625,17.141845703120453-37.049804687510914,37.041748046879547-51.269775390630457,59.122314453129547l46.226318359369543,29.70751953125c11.373291015640461-17.673583984369543,25.201171875010914-33.598876953129547,41.016357421880457-47.31396484375Z" fill="#8f807d" stroke="#181818" stroke-linecap="round" stroke-linejoin="round" stroke-width="2"/>
          </a>
          <a xlink:href="https://www.notion.so/dmmnotes/distancing-9ac690cdca654729a17a5a255944e2d1?pvs=4">
            <path id="A2-2" data-name="A2" d="M114.920166015619543,181.054443359369543l-46.226318359369543-29.70751953125c-14.04541015625,21.81201171875-25.08837890625,45.721435546870453-32.551513671880457,71.177734375l52.754882812510914,15.490234374990905c5.964599609369543-20.375244140620453,14.7919921875-39.509765624990905,26.022949218739086-56.960449218740905Z" fill="#8f807d" stroke="#181818" stroke-linecap="round" stroke-linejoin="round" stroke-width="2"/>
          </a>
          <a xlink:href="https://www.notion.so/dmmnotes/compulsive-caregiving-9c380c0928294f41ae10764aa0dee886?pvs=4">
            <path id="A3-2" data-name="A3" d="M88.897216796880457,238.014892578110448l-52.754882812510914-15.490234374990905c-7.205322265619543,24.580810546871362-11.142333984369543,50.563476562490905-11.142333984369543,77.475341796880457h55c0-21.535400390630457,3.14208984375-42.321533203130457,8.897216796880457-61.985107421889552Z" fill="#8f807d" stroke="#181818" stroke-linecap="round" stroke-linejoin="round" stroke-width="2"/>
          </a>
          <a xlink:href="https://www.notion.so/dmmnotes/compulsive-compliance-6d08b7ea9a424ce1a72b9184b7850414?pvs=4">
            <path id="A4-2" data-name="A4" d="M80,300H25c0,26.911865234369543,3.93701171875,52.894531249990905,11.142333984369543,77.475341796869543l52.754882812510914-15.490234375c-5.755126953130457-19.66357421875-8.897216796880457-40.447021484369543-8.897216796880457-61.985107421869543Z" fill="#8f807d" stroke="#181818" stroke-linecap="round" stroke-linejoin="round" stroke-width="2"/>
          </a>
          <a xlink:href="https://www.notion.so/dmmnotes/sexual-supplementation-8e85f49046ef412aa229745abf7d38d3?pvs=4">
            <g id="A5-2" data-name="A5">
              <path d="M68.69482421875,449.650390625c-.32861328125,0-.650390625-.16162109375-.841796875-.45849609375-14.28466796875-22.18115234375-25.2763671875-46.21533203125-32.67041015625-71.435546875-.1552734375-.52978515625.14794921875-1.0849609375.677734375-1.24072265625l52.75537109375-15.490234375c.09228515625-.02734375.18701171875-.04052734375.28173828125-.04052734375.166015625,0,.3310546875.04150390625.4794921875.12255859375.23291015625.12744140625.40576171875.341796875.48046875.5966796875,5.86083984375,20.025390625,14.5751953125,39.10205078125,25.90087890625,56.70068359375.1435546875.22314453125.19287109375.494140625.13623046875.75341796875-.05615234375.25927734375-.21337890625.4853515625-.4365234375.62890625l-46.2236328125,29.70458984375c-.1669921875.107421875-.3544921875.15869140625-.53955078125.15869140625Z" fill="#aa6490" stroke-width="0"/>
              <path d="M88.897216796869543,361.985107421875c5.964599609380457,20.377937316895441,14.789306640630457,39.509765625,26.020263671880457,56.960441589355469l-46.2236328125,29.704845428466797c-14.04541015625-21.809322357177734-25.08837890625-45.718753814697266-32.551513671880457-71.175045013426825l52.7548828125-15.490242004395441M88.897216796869543,359.985107421875c-.189208984369543,0-.37890625.02679443359375-.5634765625.081008911132812l-52.7548828125,15.490249633788153c-1.0595703125.311103820801691-1.66650390625,1.421997070313409-1.355712890619543,2.481643676758722,7.4208984375,25.312248229980469,18.452880859369543,49.434013366699219,32.789306640619543,71.695278167724609.382080078130457.593593597412109,1.02587890625.917346954345703,1.683349609380457.917346954345703.3701171875,0,.74462890625-.102676391601562,1.079345703119543-.317714691163019l46.2236328125-29.704845428465887c.4462890625-.286895751953125.760498046880457-.739433288575128.873046875-1.258018493652344.11279296875-.518569946289062.0146484375-1.060646057128906-.2724609375-1.506889343261719-11.2734375-17.516555786132812-19.947998046869543-36.50567626953125-25.78271484375-56.439888000488281-.149169921869543-.509353637695312-.494384765619543-.938583374023438-.960205078119543-1.193130493164062-.296875-.162246704101562-.626953125-.245040893554688-.959228515630457-.245040893554688h0Z" fill="#181818" stroke-width="0"/>
            </g>
          </a>
          <a xlink:href="https://www.notion.so/dmmnotes/compulsive-isolated-self-reliance-b321873a73fa41aaaadd7192fde856a2?pvs=4">
            <g id="A6-2" data-name="A6">
              <path d="M119.9638671875,508.775390625c-.23974609375,0-.47265625-.08642578125-.6552734375-.24462890625-19.90576171875-17.263671875-37.2177734375-37.22802734375-51.45556640625-59.3388671875-.1435546875-.22314453125-.19287109375-.494140625-.13623046875-.75341796875.05615234375-.259765625.21337890625-.48583984375.4365234375-.62939453125l46.2236328125-29.70458984375c.1669921875-.107421875.3544921875-.15869140625.53955078125-.15869140625.32861328125,0,.65087890625.16162109375.841796875.458984375,11.2998046875,17.55712890625,25.0380859375,33.4033203125,40.83349609375,47.099609375.4169921875.361328125.4619140625.9931640625.1005859375,1.41015625l-35.97265625,41.515625c-.173828125.20068359375-.419921875.32373046875-.6845703125.3427734375-.02392578125.00146484375-.0478515625.00244140625-.0712890625.00244140625Z" fill="#b9638b" stroke-width="0"/>
              <path d="M114.91748046875,418.945556640625c11.3759765625,17.676265716552734,25.203857421869543,33.601566314697266,41.01904296875,47.313968658447266l-35.972900390630457,41.515865325927734c-19.765625-17.141850471496582-37.0498046875-37.041749954223633-51.269775390619543-59.125l46.2236328125-29.704833984375M114.91552734375,416.9453125c-.3701171875,0-.74462890625.102668762207031-1.079345703130457.317710876464844l-46.2236328125,29.704833984375c-.446533203119543.286933898925781-.760498046869543.739582061767578-.873291015619543,1.258251190185547-.112548828130457.518680572509766-.014404296880457,1.060832977294922.27294921875,1.507064819335938,14.2900390625,22.191783905029297,31.66455078125,42.228366851806641,51.64111328125,59.553150177001953.36474609375.316400527954102.83056640625.489068031311035,1.310302734369543.489068031311035.04736328125,0,.0947265625-.001677513122559.142333984380457-.005067825317383.529052734369543-.03773307800293,1.021728515619543-.284233093261719,1.369140625-.685233116149902l35.972900390619543-41.515867233276367c.72314453125-.834600448608398.633056640630457-2.097368240356445-.201416015619543-2.820798873901367-15.72314453125-13.632652282714844-29.39892578125-29.407115936279297-40.647216796880457-46.885234832763672-.38232421875-.593902587890625-1.0263671875-.917877197265625-1.683837890619543-.917877197265625h0Z" fill="#181818" stroke-width="0"/>
            </g>
          </a>
          <a xlink:href="https://www.notion.so/dmmnotes/delusional-idealization-743e2420b9994a48a7cab68190432e8a?pvs=4">
            <path id="A7-2" data-name="A7" d="M155.9365234375,466.259521484380457l-35.972900390619543,41.515869140619543c19.687744140619543,17.074707031240905,41.811279296869543,31.385986328130457,65.803955078119543,42.36181640625l22.83251953125-49.996826171879547c-19.20166015625-8.773681640620453-36.91015625-20.222167968739996-52.66357421875-33.880859374989996Z" fill="#8f807d" stroke="#181818" stroke-linecap="round" stroke-linejoin="round" stroke-width="2"/>
          </a>
          <a xlink:href="https://www.notion.so/dmmnotes/externally-assembled-self-994ecb0895b844409b931d74a045c162?pvs=4">
            <path id="A8-2" data-name="A8" d="M208.60009765625,500.140380859370453l-22.83251953125,49.996826171879547c23.45556640625,10.7314453125,48.659423828119543,18.275146484370453,75.098632812510004,22.042968750001819l7.825683593739996-54.430664062501819c-21.15673828125-3.0078125-41.3251953125-9.0341796875-60.091796875-17.609130859379547Z" fill="#8f807d" stroke="#181818" stroke-linecap="round" stroke-linejoin="round" stroke-width="2"/>
          </a>
          <a xlink:href="https://www.notion.so/dmmnotes/psychopathy-0fe4a3222d9f4fd097ab4546c9776768?pvs=4">
            <path id="AC-2" data-name="AC" d="M300,520c-10.634765625,0-21.076171875-.794921875-31.30810546875-2.25048828125l-7.825683593739996,54.430664062501819c12.788574218739996,1.823486328128638,25.843017578120453,2.81982421875,39.133789062489996,2.81982421875s26.345214843760004-.996337890621362,39.1337890625-2.81982421875l-7.825683593739996-54.430664062501819c-10.229248046890461,1.45556640625-20.673339843760004,2.25048828125-31.308105468760004,2.25048828125Z" fill="#8f807d" stroke="#181818" stroke-linecap="round" stroke-linejoin="round" stroke-width="2"/>
          </a>
        </g>
      </g>
      <g>
        <path d="M78.5234375,399.207519531246362c.6279296875.85107421875,1.0537109375,1.783203125,1.2763671875,2.7958984375.2236328125,1.013671875.248046875,2.02099609375.076171875,3.02392578125s-.5166015625,1.96533203125-1.033203125,2.88720703125c-.5166015625.92236328125-1.2001953125,1.697265625-2.05078125,2.32470703125-1.1552734375.85107421875-2.330078125,1.322265625-3.525390625,1.4130859375-1.1962890625.09130859375-2.330078125-.15673828125-3.404296875-.744140625-.708984375-.36474609375-1.3173828125-.83056640625-1.8232421875-1.39794921875-.5068359375-.5673828125-.7802734375-1.27685546875-.8203125-2.12744140625-.0205078125-.4658203125.076171875-.91162109375.2880859375-1.33740234375.212890625-.42529296875.4912109375-.759765625.8359375-1.0029296875s.71875-.359375,1.125-.34912109375c.404296875.01025390625.7998046875.2177734375,1.1845703125.62255859375.2841796875.36474609375.6484375.68408203125,1.0947265625.95751953125.4453125.2734375.931640625.35986328125,1.4580078125.25830078125,1.013671875-.162109375,1.69140625-.86083984375,2.0361328125-2.09716796875.0810546875-.34423828125.111328125-.70361328125.091796875-1.07861328125-.0205078125-.37451171875-.0966796875-.72412109375-.228515625-1.04833984375s-.3291015625-.61279296875-.591796875-.8662109375c-.263671875-.25341796875-.6083984375-.43017578125-1.033203125-.53173828125-.587890625-.162109375-1.2158203125-.2177734375-1.884765625-.16748046875-.6689453125.05078125-1.2568359375.1572265625-1.7626953125.3193359375-.1826171875.04052734375-.470703125.05078125-.8662109375.0302734375-.39453125-.02001953125-.7041015625-.0302734375-.9267578125-.0302734375-.2431640625-.02001953125-.451171875-.1416015625-.623046875-.36474609375-.171875-.22265625-.3037109375-.486328125-.39453125-.7900390625-.091796875-.30419921875-.1474609375-.60791015625-.16796875-.91162109375-.0205078125-.30419921875.0107421875-.5673828125.091796875-.79052734375.060546875-.2021484375.1064453125-.59228515625.13671875-1.169921875s.0556640625-1.2255859375.076171875-1.94482421875c.01953125-.71923828125.03515625-1.44384765625.044921875-2.1728515625.009765625-.7294921875.025390625-1.33740234375.0458984375-1.82373046875.01953125-.384765625.076171875-.64794921875.1669921875-.7900390625.0908203125-.1416015625.2275390625-.22265625.41015625-.2431640625.1826171875-.02001953125.4052734375-.0048828125.6689453125.04541015625.2626953125.05078125.56640625.08642578125.9111328125.1064453125,1.3984375.1015625,2.80078125.17236328125,4.2099609375.212890625,1.4072265625.04052734375,2.8505859375.0205078125,4.330078125-.06103515625.2431640625-.02001953125.4609375-.02001953125.6533203125,0,.1923828125.0205078125.3291015625.05078125.41015625.09130859375.1015625.06103515625.1982421875.1572265625.2890625.28857421875.0908203125.13232421875.15625.33984375.197265625.623046875.041015625.36474609375.0556640625.759765625.0458984375,1.185546875-.0107421875.42529296875-.0556640625.82568359375-.13671875,1.2001953125-.0810546875.375-.203125.7041015625-.365234375.98779296875s-.3642578125.4560546875-.607421875.5166015625c-.12109375.041015625-.375.06591796875-.759765625.076171875s-.8505859375.0048828125-1.3974609375-.015625c-1.9453125-.060546875-3.890625-.24267578125-5.8349609375-.546875v1.85400390625c1.701171875-.28369140625,3.255859375-.20263671875,4.6640625.2431640625s2.5478515625,1.22607421875,3.4189453125,2.33984375Z" fill="none" stroke="#181818" stroke-width="5.631003379821777"/>
        <path d="M78.5234375,399.207519531246362c.6279296875.85107421875,1.0537109375,1.783203125,1.2763671875,2.7958984375.2236328125,1.013671875.248046875,2.02099609375.076171875,3.02392578125s-.5166015625,1.96533203125-1.033203125,2.88720703125c-.5166015625.92236328125-1.2001953125,1.697265625-2.05078125,2.32470703125-1.1552734375.85107421875-2.330078125,1.322265625-3.525390625,1.4130859375-1.1962890625.09130859375-2.330078125-.15673828125-3.404296875-.744140625-.708984375-.36474609375-1.3173828125-.83056640625-1.8232421875-1.39794921875-.5068359375-.5673828125-.7802734375-1.27685546875-.8203125-2.12744140625-.0205078125-.4658203125.076171875-.91162109375.2880859375-1.33740234375.212890625-.42529296875.4912109375-.759765625.8359375-1.0029296875s.71875-.359375,1.125-.34912109375c.404296875.01025390625.7998046875.2177734375,1.1845703125.62255859375.2841796875.36474609375.6484375.68408203125,1.0947265625.95751953125.4453125.2734375.931640625.35986328125,1.4580078125.25830078125,1.013671875-.162109375,1.69140625-.86083984375,2.0361328125-2.09716796875.0810546875-.34423828125.111328125-.70361328125.091796875-1.07861328125-.0205078125-.37451171875-.0966796875-.72412109375-.228515625-1.04833984375s-.3291015625-.61279296875-.591796875-.8662109375c-.263671875-.25341796875-.6083984375-.43017578125-1.033203125-.53173828125-.587890625-.162109375-1.2158203125-.2177734375-1.884765625-.16748046875-.6689453125.05078125-1.2568359375.1572265625-1.7626953125.3193359375-.1826171875.04052734375-.470703125.05078125-.8662109375.0302734375-.39453125-.02001953125-.7041015625-.0302734375-.9267578125-.0302734375-.2431640625-.02001953125-.451171875-.1416015625-.623046875-.36474609375-.171875-.22265625-.3037109375-.486328125-.39453125-.7900390625-.091796875-.30419921875-.1474609375-.60791015625-.16796875-.91162109375-.0205078125-.30419921875.0107421875-.5673828125.091796875-.79052734375.060546875-.2021484375.1064453125-.59228515625.13671875-1.169921875s.0556640625-1.2255859375.076171875-1.94482421875c.01953125-.71923828125.03515625-1.44384765625.044921875-2.1728515625.009765625-.7294921875.025390625-1.33740234375.0458984375-1.82373046875.01953125-.384765625.076171875-.64794921875.1669921875-.7900390625.0908203125-.1416015625.2275390625-.22265625.41015625-.2431640625.1826171875-.02001953125.4052734375-.0048828125.6689453125.04541015625.2626953125.05078125.56640625.08642578125.9111328125.1064453125,1.3984375.1015625,2.80078125.17236328125,4.2099609375.212890625,1.4072265625.04052734375,2.8505859375.0205078125,4.330078125-.06103515625.2431640625-.02001953125.4609375-.02001953125.6533203125,0,.1923828125.0205078125.3291015625.05078125.41015625.09130859375.1015625.06103515625.1982421875.1572265625.2890625.28857421875.0908203125.13232421875.15625.33984375.197265625.623046875.041015625.36474609375.0556640625.759765625.0458984375,1.185546875-.0107421875.42529296875-.0556640625.82568359375-.13671875,1.2001953125-.0810546875.375-.203125.7041015625-.365234375.98779296875s-.3642578125.4560546875-.607421875.5166015625c-.12109375.041015625-.375.06591796875-.759765625.076171875s-.8505859375.0048828125-1.3974609375-.015625c-1.9453125-.060546875-3.890625-.24267578125-5.8349609375-.546875v1.85400390625c1.701171875-.28369140625,3.255859375-.20263671875,4.6640625.2431640625s2.5478515625,1.22607421875,3.4189453125,2.33984375Z" fill="#231f20" stroke-width="0"/>
        <path d="M78.5234375,399.207519531246362c.6279296875.85107421875,1.0537109375,1.783203125,1.2763671875,2.7958984375.2236328125,1.013671875.248046875,2.02099609375.076171875,3.02392578125s-.5166015625,1.96533203125-1.033203125,2.88720703125c-.5166015625.92236328125-1.2001953125,1.697265625-2.05078125,2.32470703125-1.1552734375.85107421875-2.330078125,1.322265625-3.525390625,1.4130859375-1.1962890625.09130859375-2.330078125-.15673828125-3.404296875-.744140625-.708984375-.36474609375-1.3173828125-.83056640625-1.8232421875-1.39794921875-.5068359375-.5673828125-.7802734375-1.27685546875-.8203125-2.12744140625-.0205078125-.4658203125.076171875-.91162109375.2880859375-1.33740234375.212890625-.42529296875.4912109375-.759765625.8359375-1.0029296875s.71875-.359375,1.125-.34912109375c.404296875.01025390625.7998046875.2177734375,1.1845703125.62255859375.2841796875.36474609375.6484375.68408203125,1.0947265625.95751953125.4453125.2734375.931640625.35986328125,1.4580078125.25830078125,1.013671875-.162109375,1.69140625-.86083984375,2.0361328125-2.09716796875.0810546875-.34423828125.111328125-.70361328125.091796875-1.07861328125-.0205078125-.37451171875-.0966796875-.72412109375-.228515625-1.04833984375s-.3291015625-.61279296875-.591796875-.8662109375c-.263671875-.25341796875-.6083984375-.43017578125-1.033203125-.53173828125-.587890625-.162109375-1.2158203125-.2177734375-1.884765625-.16748046875-.6689453125.05078125-1.2568359375.1572265625-1.7626953125.3193359375-.1826171875.04052734375-.470703125.05078125-.8662109375.0302734375-.39453125-.02001953125-.7041015625-.0302734375-.9267578125-.0302734375-.2431640625-.02001953125-.451171875-.1416015625-.623046875-.36474609375-.171875-.22265625-.3037109375-.486328125-.39453125-.7900390625-.091796875-.30419921875-.1474609375-.60791015625-.16796875-.91162109375-.0205078125-.30419921875.0107421875-.5673828125.091796875-.79052734375.060546875-.2021484375.1064453125-.59228515625.13671875-1.169921875s.0556640625-1.2255859375.076171875-1.94482421875c.01953125-.71923828125.03515625-1.44384765625.044921875-2.1728515625.009765625-.7294921875.025390625-1.33740234375.0458984375-1.82373046875.01953125-.384765625.076171875-.64794921875.1669921875-.7900390625.0908203125-.1416015625.2275390625-.22265625.41015625-.2431640625.1826171875-.02001953125.4052734375-.0048828125.6689453125.04541015625.2626953125.05078125.56640625.08642578125.9111328125.1064453125,1.3984375.1015625,2.80078125.17236328125,4.2099609375.212890625,1.4072265625.04052734375,2.8505859375.0205078125,4.330078125-.06103515625.2431640625-.02001953125.4609375-.02001953125.6533203125,0,.1923828125.0205078125.3291015625.05078125.41015625.09130859375.1015625.06103515625.1982421875.1572265625.2890625.28857421875.0908203125.13232421875.15625.33984375.197265625.623046875.041015625.36474609375.0556640625.759765625.0458984375,1.185546875-.0107421875.42529296875-.0556640625.82568359375-.13671875,1.2001953125-.0810546875.375-.203125.7041015625-.365234375.98779296875s-.3642578125.4560546875-.607421875.5166015625c-.12109375.041015625-.375.06591796875-.759765625.076171875s-.8505859375.0048828125-1.3974609375-.015625c-1.9453125-.060546875-3.890625-.24267578125-5.8349609375-.546875v1.85400390625c1.701171875-.28369140625,3.255859375-.20263671875,4.6640625.2431640625s2.5478515625,1.22607421875,3.4189453125,2.33984375Z" fill="#e2dddb" stroke-width="0"/>
      </g>
      <g>
        <path d="M112.03564453125,458.460449218746362c1.2958984375-.1826171875,2.486328125-.162109375,3.5703125.060546875,1.083984375.22314453125,2.0107421875.62841796875,2.78125,1.2158203125.76953125.587890625,1.3564453125,1.33740234375,1.7626953125,2.2490234375.4052734375.91162109375.5869140625,1.955078125.546875,3.1298828125-.041015625.87158203125-.197265625,1.71728515625-.470703125,2.53759765625-.2744140625.82080078125-.6640625,1.5654296875-1.1708984375,2.23388671875-.505859375.66845703125-1.119140625,1.24609375-1.837890625,1.732421875-.7197265625.486328125-1.53515625.8310546875-2.447265625,1.033203125-.3447265625.060546875-.6787109375.1064453125-1.001953125.13671875-.3251953125.0302734375-.6591796875.025390625-1.0029296875-.01513671875-.912109375-.06103515625-1.783203125-.2734375-2.6142578125-.63818359375s-1.5703125-.85107421875-2.21875-1.458984375c-.6484375-.607421875-1.1845703125-1.32177734375-1.6103515625-2.142578125-.42578125-.8203125-.6787109375-1.716796875-.759765625-2.689453125-.1015625-1.09375-.03515625-2.22314453125.197265625-3.388671875.2333984375-1.16455078125.578125-2.30419921875,1.033203125-3.4189453125.4560546875-1.11376953125.998046875-2.1728515625,1.6259765625-3.17578125s1.287109375-1.87890625,1.9755859375-2.62841796875c.283203125-.32421875.58203125-.623046875.896484375-.896484375.314453125-.27392578125.6328125-.50146484375.9580078125-.68408203125.1611328125-.10107421875.34375-.13671875.546875-.1064453125.2021484375.0302734375.3740234375.11669921875.5166015625.25830078125.22265625.1826171875.4560546875.41064453125.6982421875.68408203125.2431640625.2734375.4462890625.57275390625.6083984375.896484375.0810546875.14208984375.146484375.28857421875.197265625.4404296875s.0654296875.30908203125.0458984375.47119140625c0,.3447265625-.142578125.65869140625-.42578125.94189453125-.931640625.95263671875-1.732421875,2.0263671875-2.400390625,3.2216796875ZM114.16259765625,462.775878906246362c-.6484375-.162109375-1.23046875-.162109375-1.7470703125,0-.5166015625.16259765625-.9423828125.41015625-1.2763671875.74462890625-.3349609375.333984375-.5732421875.734375-.71484375,1.2001953125-.1416015625.46630859375-.162109375.9169921875-.060546875,1.3525390625.1015625.43603515625.3388671875.8310546875.7138671875,1.18505859375.375.35498046875.896484375.60302734375,1.5654296875.74462890625.4052734375.06103515625.7998046875.0458984375,1.185546875-.04541015625.384765625-.09130859375.7294921875-.28857421875,1.033203125-.5927734375.34375-.34423828125.5771484375-.75439453125.69921875-1.23095703125.12109375-.4755859375.1513671875-.94189453125.0908203125-1.39794921875-.060546875-.45556640625-.2177734375-.86572265625-.470703125-1.23046875-.25390625-.36474609375-.5927734375-.60791015625-1.0185546875-.7294921875Z" fill="none" stroke="#181818" stroke-width="5.631003379821777"/>
        <path d="M112.03564453125,458.460449218746362c1.2958984375-.1826171875,2.486328125-.162109375,3.5703125.060546875,1.083984375.22314453125,2.0107421875.62841796875,2.78125,1.2158203125.76953125.587890625,1.3564453125,1.33740234375,1.7626953125,2.2490234375.4052734375.91162109375.5869140625,1.955078125.546875,3.1298828125-.041015625.87158203125-.197265625,1.71728515625-.470703125,2.53759765625-.2744140625.82080078125-.6640625,1.5654296875-1.1708984375,2.23388671875-.505859375.66845703125-1.119140625,1.24609375-1.837890625,1.732421875-.7197265625.486328125-1.53515625.8310546875-2.447265625,1.033203125-.3447265625.060546875-.6787109375.1064453125-1.001953125.13671875-.3251953125.0302734375-.6591796875.025390625-1.0029296875-.01513671875-.912109375-.06103515625-1.783203125-.2734375-2.6142578125-.63818359375s-1.5703125-.85107421875-2.21875-1.458984375c-.6484375-.607421875-1.1845703125-1.32177734375-1.6103515625-2.142578125-.42578125-.8203125-.6787109375-1.716796875-.759765625-2.689453125-.1015625-1.09375-.03515625-2.22314453125.197265625-3.388671875.2333984375-1.16455078125.578125-2.30419921875,1.033203125-3.4189453125.4560546875-1.11376953125.998046875-2.1728515625,1.6259765625-3.17578125s1.287109375-1.87890625,1.9755859375-2.62841796875c.283203125-.32421875.58203125-.623046875.896484375-.896484375.314453125-.27392578125.6328125-.50146484375.9580078125-.68408203125.1611328125-.10107421875.34375-.13671875.546875-.1064453125.2021484375.0302734375.3740234375.11669921875.5166015625.25830078125.22265625.1826171875.4560546875.41064453125.6982421875.68408203125.2431640625.2734375.4462890625.57275390625.6083984375.896484375.0810546875.14208984375.146484375.28857421875.197265625.4404296875s.0654296875.30908203125.0458984375.47119140625c0,.3447265625-.142578125.65869140625-.42578125.94189453125-.931640625.95263671875-1.732421875,2.0263671875-2.400390625,3.2216796875ZM114.16259765625,462.775878906246362c-.6484375-.162109375-1.23046875-.162109375-1.7470703125,0-.5166015625.16259765625-.9423828125.41015625-1.2763671875.74462890625-.3349609375.333984375-.5732421875.734375-.71484375,1.2001953125-.1416015625.46630859375-.162109375.9169921875-.060546875,1.3525390625.1015625.43603515625.3388671875.8310546875.7138671875,1.18505859375.375.35498046875.896484375.60302734375,1.5654296875.74462890625.4052734375.06103515625.7998046875.0458984375,1.185546875-.04541015625.384765625-.09130859375.7294921875-.28857421875,1.033203125-.5927734375.34375-.34423828125.5771484375-.75439453125.69921875-1.23095703125.12109375-.4755859375.1513671875-.94189453125.0908203125-1.39794921875-.060546875-.45556640625-.2177734375-.86572265625-.470703125-1.23046875-.25390625-.36474609375-.5927734375-.60791015625-1.0185546875-.7294921875Z" fill="#231f20" stroke-width="0"/>
        <path d="M112.03564453125,458.460449218746362c1.2958984375-.1826171875,2.486328125-.162109375,3.5703125.060546875,1.083984375.22314453125,2.0107421875.62841796875,2.78125,1.2158203125.76953125.587890625,1.3564453125,1.33740234375,1.7626953125,2.2490234375.4052734375.91162109375.5869140625,1.955078125.546875,3.1298828125-.041015625.87158203125-.197265625,1.71728515625-.470703125,2.53759765625-.2744140625.82080078125-.6640625,1.5654296875-1.1708984375,2.23388671875-.505859375.66845703125-1.119140625,1.24609375-1.837890625,1.732421875-.7197265625.486328125-1.53515625.8310546875-2.447265625,1.033203125-.3447265625.060546875-.6787109375.1064453125-1.001953125.13671875-.3251953125.0302734375-.6591796875.025390625-1.0029296875-.01513671875-.912109375-.06103515625-1.783203125-.2734375-2.6142578125-.63818359375s-1.5703125-.85107421875-2.21875-1.458984375c-.6484375-.607421875-1.1845703125-1.32177734375-1.6103515625-2.142578125-.42578125-.8203125-.6787109375-1.716796875-.759765625-2.689453125-.1015625-1.09375-.03515625-2.22314453125.197265625-3.388671875.2333984375-1.16455078125.578125-2.30419921875,1.033203125-3.4189453125.4560546875-1.11376953125.998046875-2.1728515625,1.6259765625-3.17578125s1.287109375-1.87890625,1.9755859375-2.62841796875c.283203125-.32421875.58203125-.623046875.896484375-.896484375.314453125-.27392578125.6328125-.50146484375.9580078125-.68408203125.1611328125-.10107421875.34375-.13671875.546875-.1064453125.2021484375.0302734375.3740234375.11669921875.5166015625.25830078125.22265625.1826171875.4560546875.41064453125.6982421875.68408203125.2431640625.2734375.4462890625.57275390625.6083984375.896484375.0810546875.14208984375.146484375.28857421875.197265625.4404296875s.0654296875.30908203125.0458984375.47119140625c0,.3447265625-.142578125.65869140625-.42578125.94189453125-.931640625.95263671875-1.732421875,2.0263671875-2.400390625,3.2216796875ZM114.16259765625,462.775878906246362c-.6484375-.162109375-1.23046875-.162109375-1.7470703125,0-.5166015625.16259765625-.9423828125.41015625-1.2763671875.74462890625-.3349609375.333984375-.5732421875.734375-.71484375,1.2001953125-.1416015625.46630859375-.162109375.9169921875-.060546875,1.3525390625.1015625.43603515625.3388671875.8310546875.7138671875,1.18505859375.375.35498046875.896484375.60302734375,1.5654296875.74462890625.4052734375.06103515625.7998046875.0458984375,1.185546875-.04541015625.384765625-.09130859375.7294921875-.28857421875,1.033203125-.5927734375.34375-.34423828125.5771484375-.75439453125.69921875-1.23095703125.12109375-.4755859375.1513671875-.94189453125.0908203125-1.39794921875-.060546875-.45556640625-.2177734375-.86572265625-.470703125-1.23046875-.25390625-.36474609375-.5927734375-.60791015625-1.0185546875-.7294921875Z" fill="#e2dddb" stroke-width="0"/>
      </g>
    </g>
  </g>
</svg>