<?xml version="1.0" encoding="UTF-8"?>
<svg id="Layer_1" data-name="Layer 1" xmlns="http://www.w3.org/2000/svg" width="600" height="599.999999999998181" xmlns:xlink="http://www.w3.org/1999/xlink" viewBox="0 0 600 599.999999999998181">
  <defs>
    <linearGradient id="C4-5" data-name="C4" x1="225.636154669746247" y1="434.787397271322334" x2="385.087327238070884" y2="247.962632845796207" gradientUnits="userSpaceOnUse">
      <stop offset="0" stop-color="#7e9e4c"/>
      <stop offset=".487868088942308" stop-color="#91a23d"/>
      <stop offset=".713373248351595" stop-color="#9d9c43"/>
      <stop offset="1" stop-color="#b4924e"/>
    </linearGradient>
  </defs>
  <g id="pie_with_links_-5" data-name="pie (with links)">
    <g id="pie_with_links_-6" data-name="pie (with links)">
      <g id="Pie">
        <g>
          <a xlink:href="https://www.notion.so/dmmnotes/paranoid-ae38b1e6af0c4dd08f61e0d8f6e9f05f?pvs=4">
            <path id="C8" d="M331.30810546875,517.749511718748181l7.825683593739086,54.4306640625c26.439208984371362-3.767822265628638,51.645751953141371-11.3115234375,75.101318359371362-22.04296875l-22.832519531240905-49.996826171878638c-18.7666015625,8.572265625-38.93505859375,14.601318359378638-60.094482421869543,17.609130859378638Z" fill="none" stroke="#181818" stroke-linecap="round" stroke-linejoin="round" stroke-width="15"/>
          </a>
          <a xlink:href="https://www.notion.so/dmmnotes/menacing-a5bd7149286344deba45ec15e759e579?pvs=4">
            <path id="C7" d="M391.402587890619543,500.140380859369543l22.832519531240905,49.996826171878638c23.989990234389552-10.975830078117724,46.116210937520009-25.287109375010914,65.803955078139552-42.36181640625l-35.972900390630457-41.515869140617724c-15.753417968759095,13.65869140625-33.459228515630457,25.104492187489086-52.66357421875,33.880859374989086Z" fill="none" stroke="#181818" stroke-linecap="round" stroke-linejoin="round" stroke-width="15"/>
          </a>
          <a xlink:href="https://www.notion.so/dmmnotes/seductively-obsessed-with-rescue-6fb5a68f6d334bc29ccccc16d8a4e56e?pvs=4">
            <path id="C6" d="M444.066162109369543,466.259521484380457l35.972900390630457,41.515869140617724c19.762939453119543-17.141845703128638,37.047119140619543-37.041748046878638,51.26708984375-59.125l-46.223632812510914-29.704833984367724c-11.373291015619543,17.673583984367724-25.201171874989086,33.598876953117724-41.016357421869543,47.31396484375Z" fill="none" stroke="#181818" stroke-linecap="round" stroke-linejoin="round" stroke-width="15"/>
          </a>
          <a xlink:href="https://www.notion.so/dmmnotes/punitively-obsessed-with-revenge-33d2e77f37774316b42bccf4a60f9688?pvs=4">
            <path id="C5" d="M485.082519531239086,418.945556640630457l46.223632812510914,29.704833984367724c14.048095703130457-21.809326171878638,25.08837890625-45.71875,32.551513671869543-71.175048828128638l-52.7548828125-15.490234375c-5.9619140625,20.377929687510914-14.789306640619543,39.509765625-26.020263671880457,56.960449218760914Z" fill="none" stroke="#181818" stroke-linecap="round" stroke-linejoin="round" stroke-width="15"/>
          </a>
          <a xlink:href="https://www.notion.so/dmmnotes/aggressive-2d8ccce383534b9dbfc7b4b10b8a5d5c?pvs=4">
            <path id="C3" d="M519.999999999989086,300h55c0-26.911865234391371-3.934326171869543-52.894531250012733-11.142333984369543-77.475341796891371l-52.7548828125,15.490234375c5.755126953130457,19.663574218760914,8.897216796869543,40.449707031260914,8.897216796869543,61.985107421891371Z" fill="none" stroke="#181818" stroke-linecap="round" stroke-linejoin="round" stroke-width="15"/>
          </a>
          <a xlink:href="https://www.notion.so/dmmnotes/disarming-086276e599884c86b9359acf831a8b20?pvs=4">
            <path id="C2" d="M511.102783203119543,238.014892578108629l52.7548828125-15.490234375c-7.463134765619543-25.456298828121362-18.503417968739086-49.365722656239086-32.551513671869543-71.177734374989086l-46.223632812510914,29.70751953125c11.230957031260914,17.45068359375,20.055664062510914,36.585205078117724,26.020263671880457,56.960449218739086Z" fill="none" stroke="#181818" stroke-linecap="round" stroke-linejoin="round" stroke-width="15"/>
          </a>
          <a xlink:href="https://www.notion.so/dmmnotes/threatening-348fe6a52f7a4fe69f768e98c6586932?pvs=4">
            <path id="C1" d="M485.082519531239086,181.054443359369543l46.223632812510914-29.70751953125c-3.273382764720736-5.082861773655168-6.709138808491844-10.050169557312984-10.300126729000112-14.894880224830558-18.774697955219381-25.32951418288576-56.293794574748972-26.537787846400533-76.939827532480194-2.708921059354907l-.00003597290015.000041518553189c15.815185546880457,13.71240234375,29.64306640625,29.637695312512733,41.016357421869543,47.311279296882276Z" fill="none" stroke="#181818" stroke-linecap="round" stroke-linejoin="round" stroke-width="15"/>
          </a>
          <a xlink:href="https://www.notion.so/dmmnotes/complaining-acceptance-8b40401a720c493ba73f7cde1567cf3d?pvs=4">
            <path id="B5" d="M444.066162109369543,133.743164062487267l.027581479878791-.031833495999308c20.640755630091007-23.822775814989654,14.11386576788027-60.780908008571714-13.62024398300855-75.760380523981439-5.309700301704652-2.867822708169115-10.724823288150219-5.566222392240888-16.238392184379336-8.08815707375652l-22.832519531240905,49.99951171875c19.204345703119543,8.773681640619543,36.910156249990905,20.22216796875,52.66357421875,33.880859374987267Z" fill="none" stroke="#181818" stroke-linecap="round" stroke-linejoin="round" stroke-width="15"/>
          </a>
          <a xlink:href="https://www.notion.so/dmmnotes/sentimental-bc554363322342b1b7ca4ccc02125049?pvs=4">
            <path id="B4" d="M391.402587890619543,99.8623046875l22.832519531240905-49.99951171875c-23.455566406229991-10.7314453125-48.662109375-18.275146484391371-75.101318359371362-22.042968749990905l-7.825683593739086,54.433349609360448c21.159423828119543,3.0078125,41.327880859369543,9.034179687489086,60.094482421869543,17.609130859380457Z" fill="none" stroke="#181818" stroke-linecap="round" stroke-linejoin="round" stroke-width="15"/>
          </a>
          <a xlink:href="https://www.notion.so/dmmnotes/comfortably-balanced-e76dc615a8b947aa915377cd02fcf716?pvs=4">
            <path id="B3" d="M299.999999999989086,80c10.634765625,0,21.078857421880457.797607421869543,31.308105468760914,2.253173828119543l7.825683593739086-54.433349609360448c-12.788574218728172-1.823486328139552-25.843017578119543-2.819824218759095-39.1337890625-2.819824218759095-13.290771484358629,0-26.34521484375.996337890619543-39.133789062478172,2.819824218759095l7.825683593728172,54.433349609360448c10.23193359375-1.45556640625,20.67333984375-2.253173828119543,31.30810546875-2.253173828119543Z" fill="none" stroke="#181818" stroke-linecap="round" stroke-linejoin="round" stroke-width="15"/>
          </a>
          <a xlink:href="https://www.notion.so/dmmnotes/accepting-317d81273fff4cd9817cdf4a88efd378?pvs=4">
            <path id="B2" d="M268.691894531239086,82.253173828119543l-7.825683593728172-54.433349609360448c-26.439208984391371,3.767822265599534-51.643066406271828,11.311523437490905-75.098632812521828,22.042968749990905l22.83251953125,49.99951171875c18.7666015625-8.574951171891371,38.93505859375-14.601318359380457,60.091796875-17.609130859380457Z" fill="none" stroke="#181818" stroke-linecap="round" stroke-linejoin="round" stroke-width="15"/>
          </a>
          <a xlink:href="https://www.notion.so/dmmnotes/distanced-from-past-2eabab7e9c77429f8e577f4e3e203653?pvs=4">
            <path id="B1" d="M208.600097656239086,99.8623046875l-22.83251953125-49.99951171875c-5.512599781835888,2.521209168187852-10.926526745242882,5.218781822188248-16.234907855667188,8.085682059330793-27.7362560787642,14.979534716061607-34.262863009071225,51.940807863784357-13.620088706633396,75.764372472793184l.023941874800585.027631014745566c15.75341796875-13.658691406260914,33.4619140625-25.1044921875,52.66357421875-33.878173828119543Z" fill="none" stroke="#181818" stroke-linecap="round" stroke-linejoin="round" stroke-width="15"/>
          </a>
          <a xlink:href="https://www.notion.so/dmmnotes/idealising-a52277f51ed14a42aae78081bb34b8be?pvs=4">
            <path id="A1" d="M155.936523437489086,133.740478515619543l-.00003597290015-.000041515868361c-20.647012023609932-23.828455223390847-58.166100839856881-22.619561246785452-76.941289455060542,2.709999997536215-3.591451962300198,4.845219097369409-7.027605747140115,9.813063194997085-10.301350353289308,14.896486830832146l46.226318359380457,29.70751953125c11.373291015641371-17.673583984369543,25.201171875010914-33.598876953132276,41.016357421869543-47.31396484375Z" fill="none" stroke="#181818" stroke-linecap="round" stroke-linejoin="round" stroke-width="15"/>
          </a>
          <a xlink:href="https://www.notion.so/dmmnotes/distancing-9ac690cdca654729a17a5a255944e2d1?pvs=4">
            <path id="A2" d="M114.920166015619543,181.054443359369543l-46.226318359380457-29.70751953125c-14.04541015625,21.81201171875-25.08837890625,45.721435546867724-32.551513671869543,71.177734374989086l52.754882812510914,15.490234375c5.964599609358629-20.375244140621362,14.7919921875-39.509765624989086,26.022949218739086-56.960449218739086Z" fill="none" stroke="#181818" stroke-linecap="round" stroke-linejoin="round" stroke-width="15"/>
          </a>
          <a xlink:href="https://www.notion.so/dmmnotes/compulsive-caregiving-9c380c0928294f41ae10764aa0dee886?pvs=4">
            <path id="A3" d="M88.897216796880457,238.014892578108629l-52.754882812510914-15.490234375c-7.205322265630457,24.580810546878638-11.142333984380457,50.5634765625-11.142333984380457,77.475341796891371h55c0-21.535400390630457,3.14208984375-42.321533203130457,8.897216796891371-61.985107421891371Z" fill="none" stroke="#181818" stroke-linecap="round" stroke-linejoin="round" stroke-width="15"/>
          </a>
          <a xlink:href="https://www.notion.so/dmmnotes/compulsive-compliance-6d08b7ea9a424ce1a72b9184b7850414?pvs=4">
            <path id="A4" d="M79.999999999989086,300H24.999999999989086c0,26.911865234369543,3.93701171875,52.894531249987267,11.142333984380457,77.475341796869543l52.754882812510914-15.490234375c-5.755126953141371-19.66357421875-8.897216796891371-40.447021484371362-8.897216796891371-61.985107421869543Z" fill="none" stroke="#181818" stroke-linecap="round" stroke-linejoin="round" stroke-width="15"/>
          </a>
          <a xlink:href="https://www.notion.so/dmmnotes/sexual-supplementation-8e85f49046ef412aa229745abf7d38d3?pvs=4">
            <path id="A5" d="M88.897216796880457,361.985107421869543l-52.754882812510914,15.490234375c7.463134765619543,25.456298828128638,18.506103515619543,49.36572265625,32.551513671869543,71.175048828128638l46.223632812521828-29.704833984367724c-11.230957031271828-17.450683593760914-20.055664062521828-36.58251953125-26.020263671880457-56.960449218760914Z" fill="none" stroke="#181818" stroke-linecap="round" stroke-linejoin="round" stroke-width="15"/>
          </a>
          <a xlink:href="https://www.notion.so/dmmnotes/compulsive-isolated-self-reliance-b321873a73fa41aaaadd7192fde856a2?pvs=4">
            <path id="A6" d="M114.917480468760914,418.945556640630457l-46.223632812521828,29.704833984367724c14.219970703130457,22.083251953121362,31.504150390641371,41.983154296871362,51.269775390641371,59.125l35.972900390608629-41.515869140617724c-15.815185546858629-13.712402343760914-29.643066406228172-29.637695312510914-41.019042968728172-47.31396484375Z" fill="none" stroke="#181818" stroke-linecap="round" stroke-linejoin="round" stroke-width="15"/>
          </a>
          <a xlink:href="https://www.notion.so/dmmnotes/delusional-idealization-743e2420b9994a48a7cab68190432e8a?pvs=4">
            <path id="A7" d="M155.936523437489086,466.259521484380457l-35.972900390608629,41.515869140617724c19.687744140608629,17.074707031239086,41.811279296858629,31.385986328132276,65.803955078108629,42.36181640625l22.83251953125-49.996826171878638c-19.20166015625-8.773681640621362-36.91015625-20.222167968739086-52.66357421875-33.880859374989086Z" fill="none" stroke="#181818" stroke-linecap="round" stroke-linejoin="round" stroke-width="15"/>
          </a>
          <a xlink:href="https://www.notion.so/dmmnotes/externally-assembled-self-994ecb0895b844409b931d74a045c162?pvs=4">
            <path id="A8" d="M208.600097656239086,500.140380859369543l-22.83251953125,49.996826171878638c23.45556640625,10.7314453125,48.659423828130457,18.275146484371362,75.098632812521828,22.04296875l7.825683593728172-54.4306640625c-21.15673828125-3.0078125-41.3251953125-9.0341796875-60.091796875-17.609130859378638Z" fill="none" stroke="#181818" stroke-linecap="round" stroke-linejoin="round" stroke-width="15"/>
          </a>
          <a xlink:href="https://www.notion.so/dmmnotes/psychopathy-0fe4a3222d9f4fd097ab4546c9776768?pvs=4">
            <path id="AC" d="M299.999999999989086,519.999999999998181c-10.634765625,0-21.076171875-.794921875-31.30810546875-2.25048828125l-7.825683593728172,54.4306640625c12.788574218728172,1.823486328132276,25.843017578119543,2.81982421875,39.133789062478172,2.81982421875,13.290771484380457,0,26.345214843771828-.996337890617724,39.1337890625-2.81982421875l-7.825683593739086-54.4306640625c-10.229248046880457,1.45556640625-20.673339843760914,2.25048828125-31.308105468760914,2.25048828125Z" fill="none" stroke="#181818" stroke-linecap="round" stroke-linejoin="round" stroke-width="15"/>
          </a>
          <a xlink:href="https://www.notion.so/dmmnotes/feigned-helpless-e79a94b0498c4e109a681b7f3dcdb088?pvs=4">
            <g id="C4">
              <path d="M563.857421875,378.475097656253638c-.0947265625,0-.189453125-.01318359375-.2822265625-.04052734375l-52.75390625-15.490234375c-.5302734375-.1552734375-.833984375-.71044921875-.6787109375-1.240234375,5.876953125-20.08154296875,8.857421875-40.841796875,8.857421875-61.7041015625,0-.55224609375.447265625-1,1-1h55c.552734375,0,1,.44775390625,1,1,0,26.28759765625-3.7626953125,52.44873046875-11.1826171875,77.75634765625-.0751953125.2548828125-.248046875.46923828125-.48046875.59619140625-.1484375.0810546875-.3134765625.12255859375-.4794921875.12255859375Z" fill="none" stroke="#181818" stroke-linecap="round" stroke-linejoin="round" stroke-width="15"/>
              <path d="M575,300.000000000003638h.0050048828125M575,300.000000000003638c0,26.911865234375-3.934326171875,52.891845703125-11.142333984375,77.475341796875l-52.7548828125-15.490234375c5.755126953125-19.66357421875,8.897216796875-40.447021484375,8.897216796875-61.985107421875h55M575.0050048828125,298.000000000003638h-55.0050048828125c-1.1046142578125,0-2,.895431518554688-2,2,0,20.768646240234375-2.96630859375,41.4344482421875-8.816650390625,61.423324584960938-.3101806640625,1.0594482421875.2967529296875,2.169769287109375,1.35595703125,2.48077392578125l52.7548828125,15.490234375c.1846923828125.05419921875.3743896484375.081008911132812.5634765625.081008911132812.3321533203125,0,.662109375-.08270263671875.9588623046875-.244827270507812.465576171875-.254364013671875.81103515625-.683319091796875.9603271484375-1.192459106445312,7.4376220703125-25.366455078125,11.2135009765625-51.587844848632812,11.22314453125-77.936943054199219.001708984375-.033493041992188.0025634765625-.06719970703125.0025634765625-.101112365722656,0-1.104568481445312-.8929443359375-2-1.99755859375-2h0ZM575,302.000000000003638h.0050048828125-.0050048828125Z" fill="none" stroke="#181818" stroke-linecap="round" stroke-linejoin="round" stroke-width="15"/>
            </g>
          </a>
        </g>
        <g>
          <a xlink:href="https://www.notion.so/dmmnotes/paranoid-ae38b1e6af0c4dd08f61e0d8f6e9f05f?pvs=4">
            <path id="C8-2" data-name="C8" d="M331.30810546875,517.749511718748181l7.825683593739086,54.4306640625c26.439208984371362-3.767822265628638,51.645751953141371-11.3115234375,75.101318359371362-22.04296875l-22.832519531240905-49.996826171878638c-18.7666015625,8.572265625-38.93505859375,14.601318359378638-60.094482421869543,17.609130859378638Z" fill="#8f807d" stroke="#181818" stroke-linecap="round" stroke-linejoin="round" stroke-width="2"/>
          </a>
          <a xlink:href="https://www.notion.so/dmmnotes/menacing-a5bd7149286344deba45ec15e759e579?pvs=4">
            <path id="C7-2" data-name="C7" d="M391.402587890619543,500.140380859369543l22.832519531240905,49.996826171878638c23.989990234389552-10.975830078117724,46.116210937520009-25.287109375010914,65.803955078139552-42.36181640625l-35.972900390630457-41.515869140617724c-15.753417968759095,13.65869140625-33.459228515630457,25.104492187489086-52.66357421875,33.880859374989086Z" fill="#8f807d" stroke="#181818" stroke-linecap="round" stroke-linejoin="round" stroke-width="2"/>
          </a>
          <a xlink:href="https://www.notion.so/dmmnotes/seductively-obsessed-with-rescue-6fb5a68f6d334bc29ccccc16d8a4e56e?pvs=4">
            <path id="C6-2" data-name="C6" d="M444.066162109369543,466.259521484380457l35.972900390630457,41.515869140617724c19.762939453119543-17.141845703128638,37.047119140619543-37.041748046878638,51.26708984375-59.125l-46.223632812510914-29.704833984367724c-11.373291015619543,17.673583984367724-25.201171874989086,33.598876953117724-41.016357421869543,47.31396484375Z" fill="#8f807d" stroke="#181818" stroke-linecap="round" stroke-linejoin="round" stroke-width="2"/>
          </a>
          <a xlink:href="https://www.notion.so/dmmnotes/punitively-obsessed-with-revenge-33d2e77f37774316b42bccf4a60f9688?pvs=4">
            <path id="C5-2" data-name="C5" d="M485.082519531239086,418.945556640630457l46.223632812510914,29.704833984367724c14.048095703130457-21.809326171878638,25.08837890625-45.71875,32.551513671869543-71.175048828128638l-52.7548828125-15.490234375c-5.9619140625,20.377929687510914-14.789306640619543,39.509765625-26.020263671880457,56.960449218760914Z" fill="#8f807d" stroke="#181818" stroke-linecap="round" stroke-linejoin="round" stroke-width="2"/>
          </a>
          <a xlink:href="https://www.notion.so/dmmnotes/aggressive-2d8ccce383534b9dbfc7b4b10b8a5d5c?pvs=4">
            <path id="C3-2" data-name="C3" d="M519.999999999989086,300h55c0-26.911865234391371-3.934326171869543-52.894531250012733-11.142333984369543-77.475341796891371l-52.7548828125,15.490234375c5.755126953130457,19.663574218760914,8.897216796869543,40.449707031260914,8.897216796869543,61.985107421891371Z" fill="#8f807d" stroke="#181818" stroke-linecap="round" stroke-linejoin="round" stroke-width="2"/>
          </a>
          <a xlink:href="https://www.notion.so/dmmnotes/disarming-086276e599884c86b9359acf831a8b20?pvs=4">
            <path id="C2-2" data-name="C2" d="M511.102783203119543,238.014892578108629l52.7548828125-15.490234375c-7.463134765619543-25.456298828121362-18.503417968739086-49.365722656239086-32.551513671869543-71.177734374989086l-46.223632812510914,29.70751953125c11.230957031260914,17.45068359375,20.055664062510914,36.585205078117724,26.020263671880457,56.960449218739086Z" fill="#8f807d" stroke="#181818" stroke-linecap="round" stroke-linejoin="round" stroke-width="2"/>
          </a>
          <a xlink:href="https://www.notion.so/dmmnotes/threatening-348fe6a52f7a4fe69f768e98c6586932?pvs=4">
            <path id="C1-2" data-name="C1" d="M485.082519531239086,181.054443359369543l46.223632812510914-29.70751953125c-3.273382764720736-5.082861773655168-6.709138808491844-10.050169557312984-10.300126729000112-14.894880224830558-18.774697955219381-25.32951418288576-56.293794574748972-26.537787846400533-76.939827532480194-2.708921059354907l-.00003597290015.000041518553189c15.815185546880457,13.71240234375,29.64306640625,29.637695312512733,41.016357421869543,47.311279296882276Z" fill="#8f807d" stroke="#181818" stroke-linecap="round" stroke-linejoin="round" stroke-width="2"/>
          </a>
          <a xlink:href="https://www.notion.so/dmmnotes/complaining-acceptance-8b40401a720c493ba73f7cde1567cf3d?pvs=4">
            <path id="B5-2" data-name="B5" d="M444.066162109369543,133.743164062487267l.027581479878791-.031833495999308c20.640755630091007-23.822775814989654,14.11386576788027-60.780908008571714-13.62024398300855-75.760380523981439-5.309700301704652-2.867822708169115-10.724823288150219-5.566222392240888-16.238392184379336-8.08815707375652l-22.832519531240905,49.99951171875c19.204345703119543,8.773681640619543,36.910156249990905,20.22216796875,52.66357421875,33.880859374987267Z" fill="#8f807d" stroke="#181818" stroke-linecap="round" stroke-linejoin="round" stroke-width="2"/>
          </a>
          <a xlink:href="https://www.notion.so/dmmnotes/sentimental-bc554363322342b1b7ca4ccc02125049?pvs=4">
            <path id="B4-2" data-name="B4" d="M391.402587890619543,99.8623046875l22.832519531240905-49.99951171875c-23.455566406229991-10.7314453125-48.662109375-18.275146484391371-75.101318359371362-22.042968749990905l-7.825683593739086,54.433349609360448c21.159423828119543,3.0078125,41.327880859369543,9.034179687489086,60.094482421869543,17.609130859380457Z" fill="#8f807d" stroke="#181818" stroke-linecap="round" stroke-linejoin="round" stroke-width="2"/>
          </a>
          <a xlink:href="https://www.notion.so/dmmnotes/comfortably-balanced-e76dc615a8b947aa915377cd02fcf716?pvs=4">
            <path id="B3-2" data-name="B3" d="M299.999999999989086,80c10.634765625,0,21.078857421880457.797607421869543,31.308105468760914,2.253173828119543l7.825683593739086-54.433349609360448c-12.788574218728172-1.823486328139552-25.843017578119543-2.819824218759095-39.1337890625-2.819824218759095-13.290771484358629,0-26.34521484375.996337890619543-39.133789062478172,2.819824218759095l7.825683593728172,54.433349609360448c10.23193359375-1.45556640625,20.67333984375-2.253173828119543,31.30810546875-2.253173828119543Z" fill="#8f807d" stroke="#181818" stroke-linecap="round" stroke-linejoin="round" stroke-width="2"/>
          </a>
          <a xlink:href="https://www.notion.so/dmmnotes/accepting-317d81273fff4cd9817cdf4a88efd378?pvs=4">
            <path id="B2-2" data-name="B2" d="M268.691894531239086,82.253173828119543l-7.825683593728172-54.433349609360448c-26.439208984391371,3.767822265599534-51.643066406271828,11.311523437490905-75.098632812521828,22.042968749990905l22.83251953125,49.99951171875c18.7666015625-8.574951171891371,38.93505859375-14.601318359380457,60.091796875-17.609130859380457Z" fill="#8f807d" stroke="#181818" stroke-linecap="round" stroke-linejoin="round" stroke-width="2"/>
          </a>
          <a xlink:href="https://www.notion.so/dmmnotes/distanced-from-past-2eabab7e9c77429f8e577f4e3e203653?pvs=4">
            <path id="B1-2" data-name="B1" d="M208.600097656239086,99.8623046875l-22.83251953125-49.99951171875c-5.512599781835888,2.521209168187852-10.926526745242882,5.218781822188248-16.234907855667188,8.085682059330793-27.7362560787642,14.979534716061607-34.262863009071225,51.940807863784357-13.620088706633396,75.764372472793184l.023941874800585.027631014745566c15.75341796875-13.658691406260914,33.4619140625-25.1044921875,52.66357421875-33.878173828119543Z" fill="#8f807d" stroke="#181818" stroke-linecap="round" stroke-linejoin="round" stroke-width="2"/>
          </a>
          <a xlink:href="https://www.notion.so/dmmnotes/idealising-a52277f51ed14a42aae78081bb34b8be?pvs=4">
            <path id="A1-2" data-name="A1" d="M155.936523437489086,133.740478515619543l-.00003597290015-.000041515868361c-20.647012023609932-23.828455223390847-58.166100839856881-22.619561246785452-76.941289455060542,2.709999997536215-3.591451962300198,4.845219097369409-7.027605747140115,9.813063194997085-10.301350353289308,14.896486830832146l46.226318359380457,29.70751953125c11.373291015641371-17.673583984369543,25.201171875010914-33.598876953132276,41.016357421869543-47.31396484375Z" fill="#8f807d" stroke="#181818" stroke-linecap="round" stroke-linejoin="round" stroke-width="2"/>
          </a>
          <a xlink:href="https://www.notion.so/dmmnotes/distancing-9ac690cdca654729a17a5a255944e2d1?pvs=4">
            <path id="A2-2" data-name="A2" d="M114.920166015619543,181.054443359369543l-46.226318359380457-29.70751953125c-14.04541015625,21.81201171875-25.08837890625,45.721435546867724-32.551513671869543,71.177734374989086l52.754882812510914,15.490234375c5.964599609358629-20.375244140621362,14.7919921875-39.509765624989086,26.022949218739086-56.960449218739086Z" fill="#8f807d" stroke="#181818" stroke-linecap="round" stroke-linejoin="round" stroke-width="2"/>
          </a>
          <a xlink:href="https://www.notion.so/dmmnotes/compulsive-caregiving-9c380c0928294f41ae10764aa0dee886?pvs=4">
            <path id="A3-2" data-name="A3" d="M88.897216796880457,238.014892578108629l-52.754882812510914-15.490234375c-7.205322265630457,24.580810546878638-11.142333984380457,50.5634765625-11.142333984380457,77.475341796891371h55c0-21.535400390630457,3.14208984375-42.321533203130457,8.897216796891371-61.985107421891371Z" fill="#8f807d" stroke="#181818" stroke-linecap="round" stroke-linejoin="round" stroke-width="2"/>
          </a>
          <a xlink:href="https://www.notion.so/dmmnotes/compulsive-compliance-6d08b7ea9a424ce1a72b9184b7850414?pvs=4">
            <path id="A4-2" data-name="A4" d="M79.999999999989086,300H24.999999999989086c0,26.911865234369543,3.93701171875,52.894531249987267,11.142333984380457,77.475341796869543l52.754882812510914-15.490234375c-5.755126953141371-19.66357421875-8.897216796891371-40.447021484371362-8.897216796891371-61.985107421869543Z" fill="#8f807d" stroke="#181818" stroke-linecap="round" stroke-linejoin="round" stroke-width="2"/>
          </a>
          <a xlink:href="https://www.notion.so/dmmnotes/sexual-supplementation-8e85f49046ef412aa229745abf7d38d3?pvs=4">
            <path id="A5-2" data-name="A5" d="M88.897216796880457,361.985107421869543l-52.754882812510914,15.490234375c7.463134765619543,25.456298828128638,18.506103515619543,49.36572265625,32.551513671869543,71.175048828128638l46.223632812521828-29.704833984367724c-11.230957031271828-17.450683593760914-20.055664062521828-36.58251953125-26.020263671880457-56.960449218760914Z" fill="#8f807d" stroke="#181818" stroke-linecap="round" stroke-linejoin="round" stroke-width="2"/>
          </a>
          <a xlink:href="https://www.notion.so/dmmnotes/compulsive-isolated-self-reliance-b321873a73fa41aaaadd7192fde856a2?pvs=4">
            <path id="A6-2" data-name="A6" d="M114.917480468760914,418.945556640630457l-46.223632812521828,29.704833984367724c14.219970703130457,22.083251953121362,31.504150390641371,41.983154296871362,51.269775390641371,59.125l35.972900390608629-41.515869140617724c-15.815185546858629-13.712402343760914-29.643066406228172-29.637695312510914-41.019042968728172-47.31396484375Z" fill="#8f807d" stroke="#181818" stroke-linecap="round" stroke-linejoin="round" stroke-width="2"/>
          </a>
          <a xlink:href="https://www.notion.so/dmmnotes/delusional-idealization-743e2420b9994a48a7cab68190432e8a?pvs=4">
            <path id="A7-2" data-name="A7" d="M155.936523437489086,466.259521484380457l-35.972900390608629,41.515869140617724c19.687744140608629,17.074707031239086,41.811279296858629,31.385986328132276,65.803955078108629,42.36181640625l22.83251953125-49.996826171878638c-19.20166015625-8.773681640621362-36.91015625-20.222167968739086-52.66357421875-33.880859374989086Z" fill="#8f807d" stroke="#181818" stroke-linecap="round" stroke-linejoin="round" stroke-width="2"/>
          </a>
          <a xlink:href="https://www.notion.so/dmmnotes/externally-assembled-self-994ecb0895b844409b931d74a045c162?pvs=4">
            <path id="A8-2" data-name="A8" d="M208.600097656239086,500.140380859369543l-22.83251953125,49.996826171878638c23.45556640625,10.7314453125,48.659423828130457,18.275146484371362,75.098632812521828,22.04296875l7.825683593728172-54.4306640625c-21.15673828125-3.0078125-41.3251953125-9.0341796875-60.091796875-17.609130859378638Z" fill="#8f807d" stroke="#181818" stroke-linecap="round" stroke-linejoin="round" stroke-width="2"/>
          </a>
          <a xlink:href="https://www.notion.so/dmmnotes/psychopathy-0fe4a3222d9f4fd097ab4546c9776768?pvs=4">
            <path id="AC-2" data-name="AC" d="M299.999999999989086,519.999999999998181c-10.634765625,0-21.076171875-.794921875-31.30810546875-2.25048828125l-7.825683593728172,54.4306640625c12.788574218728172,1.823486328132276,25.843017578119543,2.81982421875,39.133789062478172,2.81982421875,13.290771484380457,0,26.345214843771828-.996337890617724,39.1337890625-2.81982421875l-7.825683593739086-54.4306640625c-10.229248046880457,1.45556640625-20.673339843760914,2.25048828125-31.308105468760914,2.25048828125Z" fill="#8f807d" stroke="#181818" stroke-linecap="round" stroke-linejoin="round" stroke-width="2"/>
          </a>
          <a xlink:href="https://www.notion.so/dmmnotes/feigned-helpless-e79a94b0498c4e109a681b7f3dcdb088?pvs=4">
            <g id="C4-2" data-name="C4">
              <path d="M563.857421875,378.475097656253638c-.0947265625,0-.189453125-.01318359375-.2822265625-.04052734375l-52.75390625-15.490234375c-.5302734375-.1552734375-.833984375-.71044921875-.6787109375-1.240234375,5.876953125-20.08154296875,8.857421875-40.841796875,8.857421875-61.7041015625,0-.55224609375.447265625-1,1-1h55c.552734375,0,1,.44775390625,1,1,0,26.28759765625-3.7626953125,52.44873046875-11.1826171875,77.75634765625-.0751953125.2548828125-.248046875.46923828125-.48046875.59619140625-.1484375.0810546875-.3134765625.12255859375-.4794921875.12255859375Z" fill="#91a23d" stroke-width="0"/>
              <path d="M575,300.000000000003638h.0050048828125M575,300.000000000003638c0,26.911865234375-3.934326171875,52.891845703125-11.142333984375,77.475341796875l-52.7548828125-15.490234375c5.755126953125-19.66357421875,8.897216796875-40.447021484375,8.897216796875-61.985107421875h55M575.0050048828125,298.000000000003638h-55.0050048828125c-1.1046142578125,0-2,.895431518554688-2,2,0,20.768646240234375-2.96630859375,41.4344482421875-8.816650390625,61.423324584960938-.3101806640625,1.0594482421875.2967529296875,2.169769287109375,1.35595703125,2.48077392578125l52.7548828125,15.490234375c.1846923828125.05419921875.3743896484375.081008911132812.5634765625.081008911132812.3321533203125,0,.662109375-.08270263671875.9588623046875-.244827270507812.465576171875-.254364013671875.81103515625-.683319091796875.9603271484375-1.192459106445312,7.4376220703125-25.366455078125,11.2135009765625-51.587844848632812,11.22314453125-77.936943054199219.001708984375-.033493041992188.0025634765625-.06719970703125.0025634765625-.101112365722656,0-1.104568481445312-.8929443359375-2-1.99755859375-2h0ZM575,302.000000000003638h.0050048828125-.0050048828125Z" fill="#181818" stroke-width="0"/>
            </g>
          </a>
        </g>
      </g>
      <a xlink:href="https://www.notion.so/dmmnotes/C4-e79a94b0498c4e109a681b7f3dcdb088?pvs=4#0d316056d3b34c31a30288010404af14">
        <g id="C4-3" data-name="C4">
          <g id="C4-4" data-name="C4">
            <path d="M300.000000000003638,414.706054687487267c-36.970703125,0-67.048828125-30.078125-67.048828125-67.048828125s30.078125-67.048828125,67.048828125-67.048828125,67.048828125,30.078125,67.048828125,67.048828125-30.078125,67.048828125-67.048828125,67.048828125Z" fill="url(#C4-5)" stroke-width="0"/>
            <path d="M300.000061035159888,289.108642578112267c32.33282470703125,0,58.548675537109375,26.215087890625,58.548675537109375,58.54864501953125.000030517578125,32.3355712890625-26.21307373046875,58.54876708984375-58.548614501953125,58.54876708984375-.001983642578125,0,.001861572265625,0-.0001220703125,0-32.3328857421875,0-58.548675537109375-26.215087890625-58.548736572265625-58.54864501953125,0-32.3355712890625,26.213134765625-58.5487060546875,58.548675537109375-58.54876708984375.001983642578125,0-.001861572265625,0,.0001220703125,0M300.000061035159888,272.108642578112267h-.00006103515625c-41.65771484375.00006103515625-75.548736572265625,33.89111328125-75.548736572265625,75.54876708984375.00006103515625,41.65765380859375,33.89111328125,75.54864501953125,75.548736572265625,75.54864501953125,20.179840087890625,0,39.151824951171875-7.8583984375,53.421112060546875-22.12774658203125,14.26922607421875-14.269287109375,22.127670288085938-33.2412109375,22.127609252929688-53.42108154296875,0-41.6575927734375-33.891006469726562-75.548583984375-75.548660278320312-75.548583984375h0Z" fill="#181818" stroke-width="0"/>
          </g>
          <a xlink:href="https://www.notion.so/dmmnotes/C4-e79a94b0498c4e109a681b7f3dcdb088?pvs=4#0d316056d3b34c31a30288010404af14">
            <g>
              <g>
                <path d="M272.997070312503638,243.247070312487267c.103515625-3.0341796875-.3916015625-5.310546875-1.4912109375-6.8291015625-1.0986328125-1.5166015625-2.4873046875-2.4580078125-4.16015625-2.826171875-1.67578125-.365234375-3.4814453125-.181640625-5.4169921875.5498046875-1.9375.7333984375-3.689453125,1.7802734375-5.2587890625,3.1396484375-3.6650390625,3.1396484375-6.62109375,7.1435546875-8.87109375,12.0107421875-2.251953125,4.8662109375-3.767578125,9.96875-4.552734375,15.3076171875-.78515625,5.337890625-.8388671875,10.6513671875-.1572265625,15.935546875.6796875,5.2861328125,2.1708984375,9.8662109375,4.474609375,13.7373046875,1.46484375,2.51171875,3.21875,4.37109375,5.259765625,5.5732421875,2.041015625,1.2041015625,4.2119140625,1.8837890625,6.515625,2.041015625,2.30078125.1572265625,4.5771484375-.208984375,6.8291015625-1.0986328125,2.25-.888671875,4.263671875-2.22265625,6.044921875-4.00390625,2.7197265625-2.720703125,4.91796875-4.65625,6.59375-5.80859375,1.6728515625-1.1513671875,3.556640625-1.779296875,5.65234375-1.884765625,5.9658203125,0,9.9150390625,1.67578125,11.853515625,5.0244140625,1.9345703125,3.3505859375,2.0654296875,7.4326171875.3916015625,12.24609375-1.361328125,3.767578125-3.4287109375,7.064453125-6.201171875,9.890625-2.7744140625,2.826171875-5.9931640625,5.1025390625-9.6552734375,6.830078125-3.6650390625,1.7265625-7.58984375,2.9306640625-11.775390625,3.6103515625-4.1875.6796875-8.3203125.8642578125-12.40234375.5498046875s-7.9560546875-1.177734375-11.6181640625-2.5908203125c-3.6650390625-1.4130859375-6.8056640625-3.3212890625-9.419921875-5.73046875-2.931640625-2.720703125-5.4951171875-5.8330078125-7.693359375-9.3408203125-2.1982421875-3.505859375-4.0302734375-7.22265625-5.4951171875-11.1474609375-1.466796875-3.9248046875-2.5654296875-8.0068359375-3.296875-12.24609375-.7333984375-4.2392578125-1.0986328125-8.501953125-1.0986328125-12.794921875.2080078125-9.62890625,2.2490234375-18.943359375,6.123046875-27.9462890625,3.87109375-9.0009765625,9-16.8505859375,15.3857421875-23.5498046875,2.9287109375-3.03515625,6.41015625-5.625,10.4404296875-7.771484375,4.0283203125-2.14453125,8.1640625-3.533203125,12.4033203125-4.1611328125,4.23828125-.6279296875,8.3994140625-.4169921875,12.4814453125.6279296875,4.08203125,1.0478515625,7.6923828125,3.24609375,10.8330078125,6.5947265625,2.40625,2.51171875,4.341796875,5.3916015625,5.80859375,8.634765625,1.46484375,3.2451171875,2.5634765625,6.4912109375,3.296875,9.7333984375.4169921875,2.095703125.6015625,4.08203125.5498046875,5.966796875-.0537109375,1.8837890625-.498046875,3.6650390625-1.3349609375,5.337890625-1.15234375,2.0947265625-2.9306640625,3.5859375-5.337890625,4.474609375-2.4091796875.890625-4.7880859375,1.1767578125-7.1435546875.86328125-2.3544921875-.314453125-4.3955078125-1.2294921875-6.123046875-2.748046875-1.7265625-1.515625-2.5390625-3.583984375-2.43359375-6.201171875Z" fill="none" stroke="#181818" stroke-linecap="round" stroke-linejoin="round" stroke-width="33"/>
                <path d="M379.754882812503638,320.805664062487267c-.2109375,1.15234375-.576171875,2.251953125-1.0986328125,3.296875-.525390625.8388671875-1.310546875,1.6240234375-2.35546875,2.3544921875-1.046875.7333984375-2.4599609375,1.2021484375-4.23828125,1.4130859375-1.78125.208984375-3.638671875.3388671875-5.57421875.392578125-1.9375.0517578125-3.7431640625-.1328125-5.416015625-.5498046875-1.67578125-.4189453125-3.140625-1.1767578125-4.396484375-2.2763671875-1.255859375-1.0986328125-2.041015625-2.7470703125-2.3544921875-4.9453125-.2109375-1.150390625-.314453125-3.505859375-.314453125-7.0654296875,0-3.556640625.0517578125-7.9521484375.1572265625-13.1875-7.2216796875,0-14.470703125-.1298828125-21.744140625-.392578125-7.2763671875-.259765625-14.6796875-.4951171875-22.2158203125-.7060546875-.314453125.10546875-.681640625,0-1.0986328125-.314453125-.314453125-.208984375-.6279296875-.6796875-.9423828125-1.4130859375-.314453125-.73046875-.576171875-1.830078125-.78515625-3.296875-.10546875-.7314453125-.2626953125-1.908203125-.470703125-3.5322265625-.2109375-1.6220703125-.392578125-3.3486328125-.5498046875-5.181640625-.1572265625-1.830078125-.2353515625-3.556640625-.2353515625-5.1806640625,0-1.62109375.259765625-2.8505859375.78515625-3.689453125.4169921875-.7314453125,1.46484375-2.013671875,3.1396484375-3.8466796875,1.6728515625-1.830078125,3.7138671875-4.1064453125,6.123046875-6.8291015625,6.0693359375-6.5947265625,12.03515625-13.345703125,17.8984375-20.2529296875,5.8603515625-6.908203125,11.6689453125-14.287109375,17.4267578125-22.1376953125,1.044921875-1.4638671875,2.013671875-2.58984375,2.904296875-3.375.888671875-.78515625,2.4853515625-1.2802734375,4.7890625-1.4912109375,2.197265625-.208984375,4.9453125-.4443359375,8.2421875-.70703125,3.296875-.259765625,6.095703125-.078125,8.3994140625.5498046875.5224609375.3134765625,1.0205078125.7060546875,1.4912109375,1.177734375.4716796875.470703125.7587890625,1.07421875.8642578125,1.8046875.4169921875,2.6181640625.65234375,5.078125.7060546875,7.37890625.0517578125,2.3037109375.1298828125,4.501953125.2353515625,6.5947265625l.6279296875,85.408203125ZM341.604492187503638,274.960937499987267c2.197265625-.1025390625,4.3955078125-.181640625,6.59375-.2353515625,2.1982421875-.0517578125,4.3955078125-.078125,6.59375-.078125,0-2.826171875.0517578125-5.65234375.1572265625-8.478515625.1025390625-2.826171875.259765625-5.7548828125.470703125-8.7919921875-2.1982421875,3.037109375-4.4501953125,5.9931640625-6.7509765625,8.87109375-2.3037109375,2.8798828125-4.658203125,5.7841796875-7.064453125,8.712890625Z" fill="none" stroke="#181818" stroke-linecap="round" stroke-linejoin="round" stroke-width="33"/>
              </g>
              <g>
                <path d="M272.997070312503638,243.247070312487267c.103515625-3.0341796875-.3916015625-5.310546875-1.4912109375-6.8291015625-1.0986328125-1.5166015625-2.4873046875-2.4580078125-4.16015625-2.826171875-1.67578125-.365234375-3.4814453125-.181640625-5.4169921875.5498046875-1.9375.7333984375-3.689453125,1.7802734375-5.2587890625,3.1396484375-3.6650390625,3.1396484375-6.62109375,7.1435546875-8.87109375,12.0107421875-2.251953125,4.8662109375-3.767578125,9.96875-4.552734375,15.3076171875-.78515625,5.337890625-.8388671875,10.6513671875-.1572265625,15.935546875.6796875,5.2861328125,2.1708984375,9.8662109375,4.474609375,13.7373046875,1.46484375,2.51171875,3.21875,4.37109375,5.259765625,5.5732421875,2.041015625,1.2041015625,4.2119140625,1.8837890625,6.515625,2.041015625,2.30078125.1572265625,4.5771484375-.208984375,6.8291015625-1.0986328125,2.25-.888671875,4.263671875-2.22265625,6.044921875-4.00390625,2.7197265625-2.720703125,4.91796875-4.65625,6.59375-5.80859375,1.6728515625-1.1513671875,3.556640625-1.779296875,5.65234375-1.884765625,5.9658203125,0,9.9150390625,1.67578125,11.853515625,5.0244140625,1.9345703125,3.3505859375,2.0654296875,7.4326171875.3916015625,12.24609375-1.361328125,3.767578125-3.4287109375,7.064453125-6.201171875,9.890625-2.7744140625,2.826171875-5.9931640625,5.1025390625-9.6552734375,6.830078125-3.6650390625,1.7265625-7.58984375,2.9306640625-11.775390625,3.6103515625-4.1875.6796875-8.3203125.8642578125-12.40234375.5498046875s-7.9560546875-1.177734375-11.6181640625-2.5908203125c-3.6650390625-1.4130859375-6.8056640625-3.3212890625-9.419921875-5.73046875-2.931640625-2.720703125-5.4951171875-5.8330078125-7.693359375-9.3408203125-2.1982421875-3.505859375-4.0302734375-7.22265625-5.4951171875-11.1474609375-1.466796875-3.9248046875-2.5654296875-8.0068359375-3.296875-12.24609375-.7333984375-4.2392578125-1.0986328125-8.501953125-1.0986328125-12.794921875.2080078125-9.62890625,2.2490234375-18.943359375,6.123046875-27.9462890625,3.87109375-9.0009765625,9-16.8505859375,15.3857421875-23.5498046875,2.9287109375-3.03515625,6.41015625-5.625,10.4404296875-7.771484375,4.0283203125-2.14453125,8.1640625-3.533203125,12.4033203125-4.1611328125,4.23828125-.6279296875,8.3994140625-.4169921875,12.4814453125.6279296875,4.08203125,1.0478515625,7.6923828125,3.24609375,10.8330078125,6.5947265625,2.40625,2.51171875,4.341796875,5.3916015625,5.80859375,8.634765625,1.46484375,3.2451171875,2.5634765625,6.4912109375,3.296875,9.7333984375.4169921875,2.095703125.6015625,4.08203125.5498046875,5.966796875-.0537109375,1.8837890625-.498046875,3.6650390625-1.3349609375,5.337890625-1.15234375,2.0947265625-2.9306640625,3.5859375-5.337890625,4.474609375-2.4091796875.890625-4.7880859375,1.1767578125-7.1435546875.86328125-2.3544921875-.314453125-4.3955078125-1.2294921875-6.123046875-2.748046875-1.7265625-1.515625-2.5390625-3.583984375-2.43359375-6.201171875Z" fill="#fff" stroke-width="0"/>
                <path d="M379.754882812503638,320.805664062487267c-.2109375,1.15234375-.576171875,2.251953125-1.0986328125,3.296875-.525390625.8388671875-1.310546875,1.6240234375-2.35546875,2.3544921875-1.046875.7333984375-2.4599609375,1.2021484375-4.23828125,1.4130859375-1.78125.208984375-3.638671875.3388671875-5.57421875.392578125-1.9375.0517578125-3.7431640625-.1328125-5.416015625-.5498046875-1.67578125-.4189453125-3.140625-1.1767578125-4.396484375-2.2763671875-1.255859375-1.0986328125-2.041015625-2.7470703125-2.3544921875-4.9453125-.2109375-1.150390625-.314453125-3.505859375-.314453125-7.0654296875,0-3.556640625.0517578125-7.9521484375.1572265625-13.1875-7.2216796875,0-14.470703125-.1298828125-21.744140625-.392578125-7.2763671875-.259765625-14.6796875-.4951171875-22.2158203125-.7060546875-.314453125.10546875-.681640625,0-1.0986328125-.314453125-.314453125-.208984375-.6279296875-.6796875-.9423828125-1.4130859375-.314453125-.73046875-.576171875-1.830078125-.78515625-3.296875-.10546875-.7314453125-.2626953125-1.908203125-.470703125-3.5322265625-.2109375-1.6220703125-.392578125-3.3486328125-.5498046875-5.181640625-.1572265625-1.830078125-.2353515625-3.556640625-.2353515625-5.1806640625,0-1.62109375.259765625-2.8505859375.78515625-3.689453125.4169921875-.7314453125,1.46484375-2.013671875,3.1396484375-3.8466796875,1.6728515625-1.830078125,3.7138671875-4.1064453125,6.123046875-6.8291015625,6.0693359375-6.5947265625,12.03515625-13.345703125,17.8984375-20.2529296875,5.8603515625-6.908203125,11.6689453125-14.287109375,17.4267578125-22.1376953125,1.044921875-1.4638671875,2.013671875-2.58984375,2.904296875-3.375.888671875-.78515625,2.4853515625-1.2802734375,4.7890625-1.4912109375,2.197265625-.208984375,4.9453125-.4443359375,8.2421875-.70703125,3.296875-.259765625,6.095703125-.078125,8.3994140625.5498046875.5224609375.3134765625,1.0205078125.7060546875,1.4912109375,1.177734375.4716796875.470703125.7587890625,1.07421875.8642578125,1.8046875.4169921875,2.6181640625.65234375,5.078125.7060546875,7.37890625.0517578125,2.3037109375.1298828125,4.501953125.2353515625,6.5947265625l.6279296875,85.408203125ZM341.604492187503638,274.960937499987267c2.197265625-.1025390625,4.3955078125-.181640625,6.59375-.2353515625,2.1982421875-.0517578125,4.3955078125-.078125,6.59375-.078125,0-2.826171875.0517578125-5.65234375.1572265625-8.478515625.1025390625-2.826171875.259765625-5.7548828125.470703125-8.7919921875-2.1982421875,3.037109375-4.4501953125,5.9931640625-6.7509765625,8.87109375-2.3037109375,2.8798828125-4.658203125,5.7841796875-7.064453125,8.712890625Z" fill="#fff" stroke-width="0"/>
              </g>
            </g>
          </a>
        </g>
      </a>
      <g>
        <path d="M550.072265625003638,344.114257812487267c-.041015625.2236328125-.1123046875.4365234375-.212890625.638671875-.1015625.162109375-.25390625.314453125-.4560546875.4560546875-.203125.1416015625-.4765625.232421875-.8203125.2734375-.3447265625.0400390625-.7041015625.0654296875-1.0791015625.076171875-.375.009765625-.724609375-.0263671875-1.048828125-.1064453125-.32421875-.08203125-.607421875-.228515625-.8505859375-.44140625-.2431640625-.2119140625-.39453125-.53125-.4560546875-.95703125-.0400390625-.22265625-.060546875-.6787109375-.060546875-1.3671875s.009765625-1.5400390625.0302734375-2.552734375c-1.3974609375,0-2.80078125-.025390625-4.208984375-.076171875s-2.841796875-.095703125-4.2998046875-.13671875c-.0615234375.0205078125-.1328125,0-.212890625-.060546875-.060546875-.041015625-.1220703125-.1318359375-.1826171875-.2744140625-.060546875-.140625-.111328125-.353515625-.15234375-.6376953125-.01953125-.1416015625-.05078125-.369140625-.0908203125-.68359375-.041015625-.314453125-.076171875-.6484375-.1064453125-1.0029296875s-.0458984375-.6884765625-.0458984375-1.0029296875.05078125-.5517578125.15234375-.71484375c.0810546875-.140625.283203125-.3896484375.607421875-.744140625s.7197265625-.794921875,1.185546875-1.322265625c1.1748046875-1.2763671875,2.330078125-2.5830078125,3.46484375-3.919921875,1.1337890625-1.3369140625,2.2587890625-2.765625,3.373046875-4.28515625.2021484375-.283203125.3896484375-.501953125.5625-.6533203125.171875-.15234375.48046875-.248046875.9267578125-.2890625.42578125-.0400390625.95703125-.0859375,1.595703125-.13671875.6376953125-.0498046875,1.1796875-.0146484375,1.6259765625.1064453125.1005859375.060546875.197265625.13671875.2880859375.2275390625.091796875.091796875.1474609375.2080078125.16796875.349609375.080078125.5068359375.1259765625.9833984375.13671875,1.4287109375.009765625.4462890625.0244140625.87109375.044921875,1.2763671875l.1220703125,16.5322265625ZM542.687500000003638,335.240234374987267c.4248046875-.01953125.8505859375-.03515625,1.2763671875-.044921875.4248046875-.0107421875.8505859375-.015625,1.2763671875-.015625,0-.546875.009765625-1.09375.0302734375-1.640625.01953125-.5478515625.0498046875-1.1142578125.0908203125-1.7021484375-.42578125.587890625-.861328125,1.16015625-1.306640625,1.716796875-.4462890625.5576171875-.9013671875,1.1201171875-1.3671875,1.6865234375Z" fill="none" stroke="#181818" stroke-width="5.631003379821777"/>
        <path d="M550.072265625003638,344.114257812487267c-.041015625.2236328125-.1123046875.4365234375-.212890625.638671875-.1015625.162109375-.25390625.314453125-.4560546875.4560546875-.203125.1416015625-.4765625.232421875-.8203125.2734375-.3447265625.0400390625-.7041015625.0654296875-1.0791015625.076171875-.375.009765625-.724609375-.0263671875-1.048828125-.1064453125-.32421875-.08203125-.607421875-.228515625-.8505859375-.44140625-.2431640625-.2119140625-.39453125-.53125-.4560546875-.95703125-.0400390625-.22265625-.060546875-.6787109375-.060546875-1.3671875s.009765625-1.5400390625.0302734375-2.552734375c-1.3974609375,0-2.80078125-.025390625-4.208984375-.076171875s-2.841796875-.095703125-4.2998046875-.13671875c-.0615234375.0205078125-.1328125,0-.212890625-.060546875-.060546875-.041015625-.1220703125-.1318359375-.1826171875-.2744140625-.060546875-.140625-.111328125-.353515625-.15234375-.6376953125-.01953125-.1416015625-.05078125-.369140625-.0908203125-.68359375-.041015625-.314453125-.076171875-.6484375-.1064453125-1.0029296875s-.0458984375-.6884765625-.0458984375-1.0029296875.05078125-.5517578125.15234375-.71484375c.0810546875-.140625.283203125-.3896484375.607421875-.744140625s.7197265625-.794921875,1.185546875-1.322265625c1.1748046875-1.2763671875,2.330078125-2.5830078125,3.46484375-3.919921875,1.1337890625-1.3369140625,2.2587890625-2.765625,3.373046875-4.28515625.2021484375-.283203125.3896484375-.501953125.5625-.6533203125.171875-.15234375.48046875-.248046875.9267578125-.2890625.42578125-.0400390625.95703125-.0859375,1.595703125-.13671875.6376953125-.0498046875,1.1796875-.0146484375,1.6259765625.1064453125.1005859375.060546875.197265625.13671875.2880859375.2275390625.091796875.091796875.1474609375.2080078125.16796875.349609375.080078125.5068359375.1259765625.9833984375.13671875,1.4287109375.009765625.4462890625.0244140625.87109375.044921875,1.2763671875l.1220703125,16.5322265625ZM542.687500000003638,335.240234374987267c.4248046875-.01953125.8505859375-.03515625,1.2763671875-.044921875.4248046875-.0107421875.8505859375-.015625,1.2763671875-.015625,0-.546875.009765625-1.09375.0302734375-1.640625.01953125-.5478515625.0498046875-1.1142578125.0908203125-1.7021484375-.42578125.587890625-.861328125,1.16015625-1.306640625,1.716796875-.4462890625.5576171875-.9013671875,1.1201171875-1.3671875,1.6865234375Z" fill="#231f20" stroke-width="0"/>
        <path d="M550.072265625003638,344.114257812487267c-.041015625.2236328125-.1123046875.4365234375-.212890625.638671875-.1015625.162109375-.25390625.314453125-.4560546875.4560546875-.203125.1416015625-.4765625.232421875-.8203125.2734375-.3447265625.0400390625-.7041015625.0654296875-1.0791015625.076171875-.375.009765625-.724609375-.0263671875-1.048828125-.1064453125-.32421875-.08203125-.607421875-.228515625-.8505859375-.44140625-.2431640625-.2119140625-.39453125-.53125-.4560546875-.95703125-.0400390625-.22265625-.060546875-.6787109375-.060546875-1.3671875s.009765625-1.5400390625.0302734375-2.552734375c-1.3974609375,0-2.80078125-.025390625-4.208984375-.076171875s-2.841796875-.095703125-4.2998046875-.13671875c-.0615234375.0205078125-.1328125,0-.212890625-.060546875-.060546875-.041015625-.1220703125-.1318359375-.1826171875-.2744140625-.060546875-.140625-.111328125-.353515625-.15234375-.6376953125-.01953125-.1416015625-.05078125-.369140625-.0908203125-.68359375-.041015625-.314453125-.076171875-.6484375-.1064453125-1.0029296875s-.0458984375-.6884765625-.0458984375-1.0029296875.05078125-.5517578125.15234375-.71484375c.0810546875-.140625.283203125-.3896484375.607421875-.744140625s.7197265625-.794921875,1.185546875-1.322265625c1.1748046875-1.2763671875,2.330078125-2.5830078125,3.46484375-3.919921875,1.1337890625-1.3369140625,2.2587890625-2.765625,3.373046875-4.28515625.2021484375-.283203125.3896484375-.501953125.5625-.6533203125.171875-.15234375.48046875-.248046875.9267578125-.2890625.42578125-.0400390625.95703125-.0859375,1.595703125-.13671875.6376953125-.0498046875,1.1796875-.0146484375,1.6259765625.1064453125.1005859375.060546875.197265625.13671875.2880859375.2275390625.091796875.091796875.1474609375.2080078125.16796875.349609375.080078125.5068359375.1259765625.9833984375.13671875,1.4287109375.009765625.4462890625.0244140625.87109375.044921875,1.2763671875l.1220703125,16.5322265625ZM542.687500000003638,335.240234374987267c.4248046875-.01953125.8505859375-.03515625,1.2763671875-.044921875.4248046875-.0107421875.8505859375-.015625,1.2763671875-.015625,0-.546875.009765625-1.09375.0302734375-1.640625.01953125-.5478515625.0498046875-1.1142578125.0908203125-1.7021484375-.42578125.587890625-.861328125,1.16015625-1.306640625,1.716796875-.4462890625.5576171875-.9013671875,1.1201171875-1.3671875,1.6865234375Z" fill="#e2dddb" stroke-width="0"/>
      </g>
    </g>
  </g>
</svg>