<?xml version="1.0" encoding="UTF-8"?>
<svg id="Layer_1" data-name="Layer 1" xmlns="http://www.w3.org/2000/svg" width="600" height="600" xmlns:xlink="http://www.w3.org/1999/xlink" viewBox="0 0 600 600">
  <defs>
    <linearGradient id="A7-3" data-name="A7" x1="259.88099709207836" y1="415.391259505757262" x2="343.420189405501333" y2="274.333279042131153" gradientUnits="userSpaceOnUse">
      <stop offset="0" stop-color="#b6608e"/>
      <stop offset=".5" stop-color="#c96282"/>
      <stop offset="1" stop-color="#dc6476"/>
    </linearGradient>
  </defs>
  <g id="pie_with_links_-5" data-name="pie (with links)">
    <g id="pie_with_links_-6" data-name="pie (with links)">
      <a xlink:href="https://www.notion.so/dmmnotes/A7-743e2420b9994a48a7cab68190432e8a?pvs=4#d7f39fe8e4074488b07c725702ab5dc9">
        <g id="A7">
          <a xlink:href="https://www.notion.so/dmmnotes/A7-743e2420b9994a48a7cab68190432e8a?pvs=4#d7f39fe8e4074488b07c725702ab5dc9">
            <g id="A7-2" data-name="A7">
              <path d="M300.012329101560681,414.713867187489086c-7.022338867191138,0-13.997436523441138-1.109375-20.731567382810681-3.2978515625-17.03271484375-5.5341796875-30.890869140630457-17.3701171875-39.021606445310681-33.3271484375-8.130737304689319-15.9580078125-9.560546875-34.1259765625-4.026245117189319-51.1591796875,9.0068359375-27.72021484375,34.628051757810681-46.3447265625,63.755126953119543-46.3447265625,7.022216796880457,0,13.997192382819776,1.109375,20.731201171880457,3.29736328125,17.032592773439319,5.5341796875,30.890869140619543,17.36962890625,39.021484375,33.32763671875,8.130859375,15.95703125,9.560546875,34.1259765625,4.0263671875,51.1591796875-9.0068359375,27.7197265625-34.6279296875,46.3447265625-63.754760742189319,46.3447265625Z" style="fill: url(#A7-3); stroke-width: 0px;"/>
              <path d="M299.98828125,289.084747314449487c5.9970703125-.000396728519263,12.09228515625.927947998039599,18.1044921875,2.881408691400793,30.7529296875,9.992156982420056,47.58251953125,43.022705078129547,37.59033203125,73.775634765629547-8.03857421875,24.740875244139716-30.9921875,40.472015380860284-55.67138671875,40.472015380860284-5.9970703125,0-12.09228515625-.927978515630457-18.1044921875-2.881408691409888-30.7529296875-9.992248535159888-47.58251953125-43.022735595700397-37.59033203125-73.775726318359375,8.03857421875-24.740814208980737,30.9921875-40.470336914060681,55.67138671875-40.471923828121362M299.99169921875,272.084747314449487v17l-.0009765625-17c-15.83349609375.0009765625-31.03466796875,4.886627197260168-43.96435546875,14.128692626951306-13.208984375,9.441894531250909-22.8486328125,22.613189697260168-27.87744140625,38.089935302728918-12.873046875,39.61895751953125,8.88623046875,82.324127197269263,48.5048828125,95.196929931640625,7.583984375,2.46405029296875,15.4423828125,3.713500976569776,23.35791015625,3.713500976569776,15.830078125,0,31.03173828125-4.885498046880457,43.9619140625-14.128234863279431,13.208984375-9.442077636720569,22.8486328125-22.613555908210401,27.87744140625-38.09048461914972,6.23583984375-19.192169189451306,4.62451171875-39.66387939453125-4.53662109375-57.644165039060681-9.1611328125-17.980438232420056-24.7763671875-31.31689453125-43.96826171875-37.552703857420056-7.583984375-2.464080810550513-15.44140625-3.713470458980737-23.3544921875-3.713470458980737h0Z" style="fill: #181818; stroke-width: 0px;"/>
            </g>
          </a>
          <a xlink:href="https://www.notion.so/dmmnotes/A7-743e2420b9994a48a7cab68190432e8a?pvs=4#d7f39fe8e4074488b07c725702ab5dc9">
            <g>
              <g>
                <path d="M278.64892578125,213.095703124987267c3.9765625,2.302734375,7.37890625,5.12890625,10.205078125,8.4775390625,2.82568359375,3.3515625,5.20556640625,7.013671875,7.1435546875,10.990234375,1.935546875,3.978515625,3.478515625,8.1904296875,4.63134765625,12.638671875,1.150390625,4.44921875,2.041015625,8.923828125,2.6689453125,13.4228515625,1.46435546875,8.8974609375,2.30126953125,17.8984375,2.51220703125,27.00390625.20849609375,9.1064453125.05126953125,18.2666015625-.47119140625,27.4755859375-.2109375,2.6171875-.41943359375,4.763671875-.6279296875,6.4365234375-.2109375,1.67578125-.603515625,3.037109375-1.177734375,4.08203125-.576171875,1.0478515625-1.38818359375,1.884765625-2.43310546875,2.5126953125-1.0478515625.6279296875-2.51220703125,1.2021484375-4.39599609375,1.7265625-1.78125.208984375-3.63818359375.365234375-5.57373046875.470703125-1.93798828125.103515625-3.74365234375-.4189453125-5.41650390625-1.5693359375-1.56982421875-1.044921875-2.8798828125-2.826171875-3.9248046875-5.337890625-1.0478515625-2.5126953125-1.6240234375-6.123046875-1.72705078125-10.8330078125v-1.5703125c-2.61767578125-.314453125-5.73046875-.57421875-9.341796875-.78515625-3.61083984375-.2080078125-7.30029296875-.3388671875-11.068359375-.392578125-3.76806640625-.0517578125-7.40576171875-.078125-10.91162109375-.078125h-8.8701171875c-.10546875.94140625-.23583984375,2.51171875-.392578125,4.7099609375-.1572265625,2.1982421875-.498046875,4.3955078125-1.0205078125,6.59375-.52490234375,2.1982421875-1.2314453125,4.1875-2.11962890625,5.9658203125-.890625,1.78125-2.11962890625,2.720703125-3.689453125,2.826171875-1.466796875.103515625-3.14013671875.208984375-5.02392578125.314453125-1.88427734375.1025390625-3.716796875-.10546875-5.4951171875-.6279296875-1.78076171875-.41796875-3.2724609375-1.2568359375-4.474609375-2.5126953125-1.20458984375-1.255859375-1.859375-3.2431640625-1.96240234375-5.9658203125,0-3.2431640625.0517578125-6.958984375.1572265625-11.146484375.10302734375-4.185546875.31396484375-8.73828125.6279296875-13.6591796875.20849609375-4.08203125.54931640625-8.556640625,1.0205078125-13.423828125.470703125-4.8671875,1.150390625-9.8642578125,2.041015625-14.9931640625.8876953125-5.126953125,2.041015625-10.2568359375,3.45361328125-15.38671875,1.4130859375-5.126953125,3.19189453125-9.9931640625,5.33837890625-14.6005859375,2.14404296875-4.6044921875,4.68310546875-8.84375,7.6142578125-12.716796875,2.92919921875-3.87109375,6.43701171875-7.1162109375,10.51904296875-9.734375,4.81298828125-3.0341796875,10.099609375-4.552734375,15.85693359375-4.552734375,5.75537109375,0,11.19873046875,1.4130859375,16.328125,4.2392578125ZM240.498046875,284.530273437487267c6.59375-.5224609375,13.16064453125-.9150390625,19.703125-1.177734375,6.5400390625-.259765625,13.10986328125-.287109375,19.70361328125-.078125.31396484375-7.4306640625,0-14.076171875-.94189453125-19.939453125-.94189453125-5.8603515625-2.251953125-10.8056640625-3.9248046875-14.8359375-1.67578125-4.0283203125-3.6650390625-7.1162109375-5.96630859375-9.2626953125-2.30322265625-2.14453125-4.658203125-3.21875-7.06494140625-3.21875-2.0947265625,0-4.26611328125,1.07421875-6.515625,3.21875-2.251953125,2.146484375-4.34423828125,5.2861328125-6.27978515625,9.419921875-1.93798828125,4.1357421875-3.689453125,9.23828125-5.25927734375,15.306640625-1.5703125,6.072265625-2.72314453125,12.9287109375-3.4541015625,20.5673828125Z" style="fill: none; stroke: #181818; stroke-linecap: round; stroke-linejoin: round; stroke-width: 33px;"/>
                <path d="M381.95361328125,227.696289062487267c.10302734375,1.361328125.20849609375,2.958984375.31396484375,4.7890625.10302734375,1.83203125.13037109375,3.6103515625.07861328125,5.337890625-.05419921875,1.7265625-.2109375,3.2451171875-.47119140625,4.552734375-.26220703125,1.3095703125-.7060546875,2.068359375-1.33447265625,2.2763671875,0,.2109375-.10546875.525390625-.31396484375.9423828125-7.7470703125,12.142578125-14.365234375,24.8837890625-19.8603515625,38.2294921875-5.4951171875,13.3447265625-9.8125,27.08203125-12.95263671875,41.2119140625v.1572265625c0,.2109375-.10546875.419921875-.31396484375.6279296875-.2109375.2109375-.392578125.470703125-.54931640625.78515625-.1572265625.3134765625-.44677734375.6796875-.86376953125,1.0986328125-.52490234375.5224609375-1.361328125,1.0205078125-2.51171875,1.4921875-1.1533203125.470703125-2.6689453125.6005859375-4.55322265625.392578125-1.8837890625-.2119140625-3.76806640625-.4716796875-5.65185546875-.78515625-1.8837890625-.314453125-3.61083984375-.8125-5.18115234375-1.4921875-1.56982421875-.6787109375-2.82568359375-1.6728515625-3.76806640625-2.982421875-.94189453125-1.3076171875-1.361328125-3.0078125-1.255859375-5.1025390625.10302734375-1.150390625.5224609375-3.296875,1.255859375-6.4375.7314453125-3.1396484375,1.830078125-6.9072265625,3.29736328125-11.3037109375,1.46435546875-4.4990234375,3.19140625-9.314453125,5.1806640625-14.4443359375,1.9873046875-5.126953125,4.18505859375-10.205078125,6.59423828125-15.228515625,2.40625-5.126953125,4.8916015625-9.9697265625,7.45751953125-14.5224609375,2.5634765625-4.552734375,4.9453125-8.5029296875,7.1435546875-11.853515625v-.314453125c-12.45703125,0-24.703125-.15625-36.73828125-.470703125-.7333984375-.1025390625-1.4130859375-.470703125-2.041015625-1.0986328125-.52490234375-.5224609375-1.0205078125-1.3076171875-1.4912109375-2.35546875-.47119140625-1.044921875-.7607421875-2.4580078125-.86376953125-4.2392578125-.10546875-1.8837890625-.13232421875-3.7919921875-.07861328125-5.73046875.0517578125-1.935546875.23583984375-3.740234375.5498046875-5.416015625.31396484375-1.6728515625.83642578125-3.0859375,1.56982421875-4.2392578125.73095703125-1.150390625,1.77880859375-1.8837890625,3.14013671875-2.1982421875.6279296875-.1025390625,1.98681640625-.1298828125,4.08203125-.078125,2.09228515625.0537109375,4.63134765625.1572265625,7.6142578125.314453125,2.9833984375.15625,6.2802734375.3671875,9.89111328125.6279296875,3.61083984375.26171875,7.24658203125.498046875,10.91162109375.7060546875,3.66259765625.2109375,7.19482421875.392578125,10.59765625.5498046875,3.39990234375.1572265625,6.46142578125.3408203125,9.18408203125.548828125,3.14013671875.2109375,6.0693359375.3681640625,8.7919921875.4716796875.52294921875-.103515625.99365234375.0537109375,1.4130859375.470703125.4169921875.314453125.78515625.8125,1.09912109375,1.4912109375.31396484375.6826171875.5224609375,1.75390625.6279296875,3.21875Z" style="fill: none; stroke: #181818; stroke-linecap: round; stroke-linejoin: round; stroke-width: 33px;"/>
              </g>
              <g>
                <path d="M278.64892578125,213.095703124987267c3.9765625,2.302734375,7.37890625,5.12890625,10.205078125,8.4775390625,2.82568359375,3.3515625,5.20556640625,7.013671875,7.1435546875,10.990234375,1.935546875,3.978515625,3.478515625,8.1904296875,4.63134765625,12.638671875,1.150390625,4.44921875,2.041015625,8.923828125,2.6689453125,13.4228515625,1.46435546875,8.8974609375,2.30126953125,17.8984375,2.51220703125,27.00390625.20849609375,9.1064453125.05126953125,18.2666015625-.47119140625,27.4755859375-.2109375,2.6171875-.41943359375,4.763671875-.6279296875,6.4365234375-.2109375,1.67578125-.603515625,3.037109375-1.177734375,4.08203125-.576171875,1.0478515625-1.38818359375,1.884765625-2.43310546875,2.5126953125-1.0478515625.6279296875-2.51220703125,1.2021484375-4.39599609375,1.7265625-1.78125.208984375-3.63818359375.365234375-5.57373046875.470703125-1.93798828125.103515625-3.74365234375-.4189453125-5.41650390625-1.5693359375-1.56982421875-1.044921875-2.8798828125-2.826171875-3.9248046875-5.337890625-1.0478515625-2.5126953125-1.6240234375-6.123046875-1.72705078125-10.8330078125v-1.5703125c-2.61767578125-.314453125-5.73046875-.57421875-9.341796875-.78515625-3.61083984375-.2080078125-7.30029296875-.3388671875-11.068359375-.392578125-3.76806640625-.0517578125-7.40576171875-.078125-10.91162109375-.078125h-8.8701171875c-.10546875.94140625-.23583984375,2.51171875-.392578125,4.7099609375-.1572265625,2.1982421875-.498046875,4.3955078125-1.0205078125,6.59375-.52490234375,2.1982421875-1.2314453125,4.1875-2.11962890625,5.9658203125-.890625,1.78125-2.11962890625,2.720703125-3.689453125,2.826171875-1.466796875.103515625-3.14013671875.208984375-5.02392578125.314453125-1.88427734375.1025390625-3.716796875-.10546875-5.4951171875-.6279296875-1.78076171875-.41796875-3.2724609375-1.2568359375-4.474609375-2.5126953125-1.20458984375-1.255859375-1.859375-3.2431640625-1.96240234375-5.9658203125,0-3.2431640625.0517578125-6.958984375.1572265625-11.146484375.10302734375-4.185546875.31396484375-8.73828125.6279296875-13.6591796875.20849609375-4.08203125.54931640625-8.556640625,1.0205078125-13.423828125.470703125-4.8671875,1.150390625-9.8642578125,2.041015625-14.9931640625.8876953125-5.126953125,2.041015625-10.2568359375,3.45361328125-15.38671875,1.4130859375-5.126953125,3.19189453125-9.9931640625,5.33837890625-14.6005859375,2.14404296875-4.6044921875,4.68310546875-8.84375,7.6142578125-12.716796875,2.92919921875-3.87109375,6.43701171875-7.1162109375,10.51904296875-9.734375,4.81298828125-3.0341796875,10.099609375-4.552734375,15.85693359375-4.552734375,5.75537109375,0,11.19873046875,1.4130859375,16.328125,4.2392578125ZM240.498046875,284.530273437487267c6.59375-.5224609375,13.16064453125-.9150390625,19.703125-1.177734375,6.5400390625-.259765625,13.10986328125-.287109375,19.70361328125-.078125.31396484375-7.4306640625,0-14.076171875-.94189453125-19.939453125-.94189453125-5.8603515625-2.251953125-10.8056640625-3.9248046875-14.8359375-1.67578125-4.0283203125-3.6650390625-7.1162109375-5.96630859375-9.2626953125-2.30322265625-2.14453125-4.658203125-3.21875-7.06494140625-3.21875-2.0947265625,0-4.26611328125,1.07421875-6.515625,3.21875-2.251953125,2.146484375-4.34423828125,5.2861328125-6.27978515625,9.419921875-1.93798828125,4.1357421875-3.689453125,9.23828125-5.25927734375,15.306640625-1.5703125,6.072265625-2.72314453125,12.9287109375-3.4541015625,20.5673828125Z" style="fill: #e2dddb; stroke-width: 0px;"/>
                <path d="M381.95361328125,227.696289062487267c.10302734375,1.361328125.20849609375,2.958984375.31396484375,4.7890625.10302734375,1.83203125.13037109375,3.6103515625.07861328125,5.337890625-.05419921875,1.7265625-.2109375,3.2451171875-.47119140625,4.552734375-.26220703125,1.3095703125-.7060546875,2.068359375-1.33447265625,2.2763671875,0,.2109375-.10546875.525390625-.31396484375.9423828125-7.7470703125,12.142578125-14.365234375,24.8837890625-19.8603515625,38.2294921875-5.4951171875,13.3447265625-9.8125,27.08203125-12.95263671875,41.2119140625v.1572265625c0,.2109375-.10546875.419921875-.31396484375.6279296875-.2109375.2109375-.392578125.470703125-.54931640625.78515625-.1572265625.3134765625-.44677734375.6796875-.86376953125,1.0986328125-.52490234375.5224609375-1.361328125,1.0205078125-2.51171875,1.4921875-1.1533203125.470703125-2.6689453125.6005859375-4.55322265625.392578125-1.8837890625-.2119140625-3.76806640625-.4716796875-5.65185546875-.78515625-1.8837890625-.314453125-3.61083984375-.8125-5.18115234375-1.4921875-1.56982421875-.6787109375-2.82568359375-1.6728515625-3.76806640625-2.982421875-.94189453125-1.3076171875-1.361328125-3.0078125-1.255859375-5.1025390625.10302734375-1.150390625.5224609375-3.296875,1.255859375-6.4375.7314453125-3.1396484375,1.830078125-6.9072265625,3.29736328125-11.3037109375,1.46435546875-4.4990234375,3.19140625-9.314453125,5.1806640625-14.4443359375,1.9873046875-5.126953125,4.18505859375-10.205078125,6.59423828125-15.228515625,2.40625-5.126953125,4.8916015625-9.9697265625,7.45751953125-14.5224609375,2.5634765625-4.552734375,4.9453125-8.5029296875,7.1435546875-11.853515625v-.314453125c-12.45703125,0-24.703125-.15625-36.73828125-.470703125-.7333984375-.1025390625-1.4130859375-.470703125-2.041015625-1.0986328125-.52490234375-.5224609375-1.0205078125-1.3076171875-1.4912109375-2.35546875-.47119140625-1.044921875-.7607421875-2.4580078125-.86376953125-4.2392578125-.10546875-1.8837890625-.13232421875-3.7919921875-.07861328125-5.73046875.0517578125-1.935546875.23583984375-3.740234375.5498046875-5.416015625.31396484375-1.6728515625.83642578125-3.0859375,1.56982421875-4.2392578125.73095703125-1.150390625,1.77880859375-1.8837890625,3.14013671875-2.1982421875.6279296875-.1025390625,1.98681640625-.1298828125,4.08203125-.078125,2.09228515625.0537109375,4.63134765625.1572265625,7.6142578125.314453125,2.9833984375.15625,6.2802734375.3671875,9.89111328125.6279296875,3.61083984375.26171875,7.24658203125.498046875,10.91162109375.7060546875,3.66259765625.2109375,7.19482421875.392578125,10.59765625.5498046875,3.39990234375.1572265625,6.46142578125.3408203125,9.18408203125.548828125,3.14013671875.2109375,6.0693359375.3681640625,8.7919921875.4716796875.52294921875-.103515625.99365234375.0537109375,1.4130859375.470703125.4169921875.314453125.78515625.8125,1.09912109375,1.4912109375.31396484375.6826171875.5224609375,1.75390625.6279296875,3.21875Z" style="fill: #e2dddb; stroke-width: 0px;"/>
              </g>
            </g>
          </a>
        </g>
      </a>
      <g id="Pie">
        <g>
          <a xlink:href="https://www.notion.so/dmmnotes/paranoid-ae38b1e6af0c4dd08f61e0d8f6e9f05f?pvs=4">
            <path id="C8" d="M331.308105468760914,517.74951171875l7.825683593739086,54.4306640625c26.439208984369543-3.767822265628638,51.645751953139552-11.3115234375,75.101318359369543-22.04296875l-22.832519531239086-49.996826171878638c-18.7666015625,8.572265625-38.93505859375,14.601318359378638-60.094482421869543,17.609130859378638Z" style="fill: none; stroke: #181818; stroke-linecap: round; stroke-linejoin: round; stroke-width: 15px;"/>
          </a>
          <a xlink:href="https://www.notion.so/dmmnotes/menacing-a5bd7149286344deba45ec15e759e579?pvs=4">
            <path id="C7" d="M391.402587890630457,500.140380859371362l22.832519531239086,49.996826171878638c23.989990234391371-10.975830078119543,46.116210937520009-25.287109375010914,65.803955078141371-42.36181640625l-35.972900390630457-41.515869140619543c-15.753417968760914,13.65869140625-33.459228515630457,25.104492187490905-52.66357421875,33.880859374990905Z" style="fill: none; stroke: #181818; stroke-linecap: round; stroke-linejoin: round; stroke-width: 15px;"/>
          </a>
          <a xlink:href="https://www.notion.so/dmmnotes/seductively-obsessed-with-rescue-6fb5a68f6d334bc29ccccc16d8a4e56e?pvs=4">
            <path id="C6" d="M444.066162109380457,466.259521484380457l35.972900390630457,41.515869140619543c19.762939453119543-17.141845703128638,37.047119140619543-37.041748046878638,51.26708984375-59.125l-46.223632812510914-29.704833984369543c-11.373291015619543,17.673583984369543-25.201171874989086,33.598876953119543-41.016357421869543,47.31396484375Z" style="fill: none; stroke: #181818; stroke-linecap: round; stroke-linejoin: round; stroke-width: 15px;"/>
          </a>
          <a xlink:href="https://www.notion.so/dmmnotes/punitively-obsessed-with-revenge-33d2e77f37774316b42bccf4a60f9688?pvs=4">
            <path id="C5" d="M485.08251953125,418.945556640630457l46.223632812510914,29.704833984369543c14.048095703128638-21.809326171880457,25.08837890625-45.71875,32.551513671869543-71.175048828130457l-52.7548828125-15.490234375c-5.9619140625,20.377929687510914-14.789306640619543,39.509765625-26.020263671880457,56.960449218760914Z" style="fill: none; stroke: #181818; stroke-linecap: round; stroke-linejoin: round; stroke-width: 15px;"/>
          </a>
          <a xlink:href="https://www.notion.so/dmmnotes/feigned-helpless-e79a94b0498c4e109a681b7f3dcdb088?pvs=4">
            <path id="C4" d="M520,300c0,21.5380859375-3.142089843739086,42.321533203119543-8.897216796869543,61.985107421869543l52.7548828125,15.490234375c7.2080078125-24.583496093739086,11.142333984369543-50.5634765625,11.142333984369543-77.475341796869543h-55Z" style="fill: none; stroke: #181818; stroke-linecap: round; stroke-linejoin: round; stroke-width: 15px;"/>
          </a>
          <a xlink:href="https://www.notion.so/dmmnotes/aggressive-2d8ccce383534b9dbfc7b4b10b8a5d5c?pvs=4">
            <path id="C3" d="M520,300h55c0-26.911865234389552-3.934326171869543-52.894531250010914-11.142333984369543-77.475341796889552l-52.7548828125,15.490234375c5.755126953130457,19.663574218759095,8.897216796869543,40.449707031259095,8.897216796869543,61.985107421889552Z" style="fill: none; stroke: #181818; stroke-linecap: round; stroke-linejoin: round; stroke-width: 15px;"/>
          </a>
          <a xlink:href="https://www.notion.so/dmmnotes/disarming-086276e599884c86b9359acf831a8b20?pvs=4">
            <path id="C2" d="M511.102783203130457,238.014892578110448l52.7548828125-15.490234375c-7.463134765619543-25.456298828121362-18.503417968740905-49.365722656240905-32.551513671869543-71.177734374990905l-46.223632812510914,29.70751953125c11.230957031260914,17.45068359375,20.055664062510914,36.585205078119543,26.020263671880457,56.960449218740905Z" style="fill: none; stroke: #181818; stroke-linecap: round; stroke-linejoin: round; stroke-width: 15px;"/>
          </a>
          <a xlink:href="https://www.notion.so/dmmnotes/threatening-348fe6a52f7a4fe69f768e98c6586932?pvs=4">
            <path id="C1" d="M485.08251953125,181.054443359369543l46.223632812510914-29.70751953125c-3.273382764720736-5.082861773660625-6.709138808490025-10.050169557309346-10.300126729000112-14.894880224830558-18.7746979552212-25.329514182889397-56.293794455550596-26.537787805429616-76.939827532480194-2.708921059358545l-.00003597290015.000041518558646c15.815185546880457,13.71240234375,29.64306640625,29.637695312510914,41.016357421869543,47.311279296880457Z" style="fill: none; stroke: #181818; stroke-linecap: round; stroke-linejoin: round; stroke-width: 15px;"/>
          </a>
          <a xlink:href="https://www.notion.so/dmmnotes/complaining-acceptance-8b40401a720c493ba73f7cde1567cf3d?pvs=4">
            <path id="B5" d="M444.066162109380457,133.743164062489086l.00003597290015-.000041518558646c20.654922513649581-23.839126791601302,14.125719583838872-60.826671837301546-13.629725214659629-75.812167347630748-5.297847529700448-2.860371035199933-10.700612091030052-5.552089440430791-16.201365445751435-8.068162227549692l-22.832519531239086,49.99951171875c19.204345703119543,8.773681640619543,36.910156249989086,20.22216796875,52.66357421875,33.880859374989086Z" style="fill: none; stroke: #181818; stroke-linecap: round; stroke-linejoin: round; stroke-width: 15px;"/>
          </a>
          <a xlink:href="https://www.notion.so/dmmnotes/sentimental-bc554363322342b1b7ca4ccc02125049?pvs=4">
            <path id="B4" d="M391.402587890630457,99.8623046875l22.832519531239086-49.99951171875c-23.455566406229991-10.7314453125-48.662109375-18.275146484389552-75.101318359369543-22.042968749990905l-7.825683593739086,54.433349609360448c21.159423828119543,3.0078125,41.327880859369543,9.034179687490905,60.094482421869543,17.609130859380457Z" style="fill: none; stroke: #181818; stroke-linecap: round; stroke-linejoin: round; stroke-width: 15px;"/>
          </a>
          <a xlink:href="https://www.notion.so/dmmnotes/comfortably-balanced-e76dc615a8b947aa915377cd02fcf716?pvs=4">
            <path id="B3" d="M300,80c10.634765625,0,21.078857421869543.797607421869543,31.308105468760914,2.253173828119543l7.825683593739086-54.433349609360448c-12.788574218739086-1.823486328139552-25.843017578130457-2.819824218759095-39.1337890625-2.819824218759095s-26.34521484375.996337890619543-39.133789062489086,2.819824218759095l7.825683593739086,54.433349609360448c10.23193359375-1.45556640625,20.67333984375-2.253173828119543,31.30810546875-2.253173828119543Z" style="fill: none; stroke: #181818; stroke-linecap: round; stroke-linejoin: round; stroke-width: 15px;"/>
          </a>
          <a xlink:href="https://www.notion.so/dmmnotes/accepting-317d81273fff4cd9817cdf4a88efd378?pvs=4">
            <path id="B2" d="M268.69189453125,82.253173828119543l-7.825683593739086-54.433349609360448c-26.439208984391371,3.767822265601353-51.643066406260914,11.311523437490905-75.098632812510914,22.042968749990905l22.83251953125,49.99951171875c18.7666015625-8.574951171889552,38.93505859375-14.601318359380457,60.091796875-17.609130859380457Z" style="fill: none; stroke: #181818; stroke-linecap: round; stroke-linejoin: round; stroke-width: 15px;"/>
          </a>
          <a xlink:href="https://www.notion.so/dmmnotes/distanced-from-past-2eabab7e9c77429f8e577f4e3e203653?pvs=4">
            <path id="B1" d="M208.60009765625,99.8623046875l-22.83251953125-49.99951171875c-5.501476919680499,2.516122083479786-10.904678806709853,5.207896667829118-16.20277414614975,8.068330353889905-27.754772116430104,14.984759620980185-34.283385893750165,51.971559756599163-13.6283165142504,75.809313677109458l.00003597290015.00004151587018c15.75341796875-13.658691406259095,33.4619140625-25.1044921875,52.66357421875-33.878173828119543Z" style="fill: none; stroke: #181818; stroke-linecap: round; stroke-linejoin: round; stroke-width: 15px;"/>
          </a>
          <a xlink:href="https://www.notion.so/dmmnotes/idealising-a52277f51ed14a42aae78081bb34b8be?pvs=4">
            <path id="A1" d="M155.9365234375,133.740478515619543l-.00003597290015-.00004151587018c-20.647012023619027-23.828455119089995-58.166100839880528-22.619561246779995-76.941289455078731,2.709999997550767-3.591451962291103,4.845219097369409-7.02760574713102,9.813063194989809-10.301350353271118,14.896486830819413l46.226318359369543,29.70751953125c11.373291015641371-17.673583984369543,25.201171875010914-33.598876953130457,41.016357421880457-47.31396484375Z" style="fill: none; stroke: #181818; stroke-linecap: round; stroke-linejoin: round; stroke-width: 15px;"/>
          </a>
          <a xlink:href="https://www.notion.so/dmmnotes/distancing-9ac690cdca654729a17a5a255944e2d1?pvs=4">
            <path id="A2" d="M114.920166015619543,181.054443359369543l-46.226318359369543-29.70751953125c-14.04541015625,21.81201171875-25.08837890625,45.721435546869543-32.551513671880457,71.177734374990905l52.754882812510914,15.490234375c5.964599609369543-20.375244140621362,14.7919921875-39.509765624990905,26.022949218739086-56.960449218740905Z" style="fill: none; stroke: #181818; stroke-linecap: round; stroke-linejoin: round; stroke-width: 15px;"/>
          </a>
          <a xlink:href="https://www.notion.so/dmmnotes/compulsive-caregiving-9c380c0928294f41ae10764aa0dee886?pvs=4">
            <path id="A3" d="M88.897216796880457,238.014892578110448l-52.754882812510914-15.490234375c-7.205322265619543,24.580810546878638-11.142333984369543,50.5634765625-11.142333984369543,77.475341796889552h55c0-21.535400390630457,3.14208984375-42.321533203130457,8.897216796880457-61.985107421889552Z" style="fill: none; stroke: #181818; stroke-linecap: round; stroke-linejoin: round; stroke-width: 15px;"/>
          </a>
          <a xlink:href="https://www.notion.so/dmmnotes/compulsive-compliance-6d08b7ea9a424ce1a72b9184b7850414?pvs=4">
            <path id="A4" d="M80,300H25c0,26.911865234369543,3.93701171875,52.894531249989086,11.142333984369543,77.475341796869543l52.754882812510914-15.490234375c-5.755126953130457-19.66357421875-8.897216796880457-40.447021484369543-8.897216796880457-61.985107421869543Z" style="fill: none; stroke: #181818; stroke-linecap: round; stroke-linejoin: round; stroke-width: 15px;"/>
          </a>
          <a xlink:href="https://www.notion.so/dmmnotes/sexual-supplementation-8e85f49046ef412aa229745abf7d38d3?pvs=4">
            <path id="A5" d="M88.897216796880457,361.985107421869543l-52.754882812510914,15.490234375c7.463134765630457,25.456298828130457,18.506103515630457,49.36572265625,32.551513671880457,71.175048828130457l46.223632812510914-29.704833984369543c-11.230957031260914-17.450683593760914-20.055664062510914-36.58251953125-26.020263671880457-56.960449218760914Z" style="fill: none; stroke: #181818; stroke-linecap: round; stroke-linejoin: round; stroke-width: 15px;"/>
          </a>
          <a xlink:href="https://www.notion.so/dmmnotes/compulsive-isolated-self-reliance-b321873a73fa41aaaadd7192fde856a2?pvs=4">
            <path id="A6" d="M114.917480468760914,418.945556640630457l-46.223632812510914,29.704833984369543c14.219970703119543,22.083251953121362,31.504150390630457,41.983154296871362,51.269775390630457,59.125l35.972900390619543-41.515869140619543c-15.815185546869543-13.712402343759095-29.643066406239086-29.637695312509095-41.019042968739086-47.31396484375Z" style="fill: none; stroke: #181818; stroke-linecap: round; stroke-linejoin: round; stroke-width: 15px;"/>
          </a>
          <a xlink:href="https://www.notion.so/dmmnotes/externally-assembled-self-994ecb0895b844409b931d74a045c162?pvs=4">
            <path id="A8" d="M208.60009765625,500.140380859371362l-22.83251953125,49.996826171878638c23.45556640625,10.7314453125,48.659423828119543,18.275146484371362,75.098632812510914,22.04296875l7.825683593739086-54.4306640625c-21.15673828125-3.0078125-41.3251953125-9.0341796875-60.091796875-17.609130859378638Z" style="fill: none; stroke: #181818; stroke-linecap: round; stroke-linejoin: round; stroke-width: 15px;"/>
          </a>
          <a xlink:href="https://www.notion.so/dmmnotes/psychopathy-0fe4a3222d9f4fd097ab4546c9776768?pvs=4">
            <path id="AC" d="M300,520c-10.634765625,0-21.076171875-.794921875-31.30810546875-2.25048828125l-7.825683593739086,54.4306640625c12.788574218739086,1.823486328130457,25.843017578119543,2.81982421875,39.133789062489086,2.81982421875s26.345214843760914-.996337890619543,39.1337890625-2.81982421875l-7.825683593739086-54.4306640625c-10.229248046891371,1.45556640625-20.673339843760914,2.25048828125-31.308105468760914,2.25048828125Z" style="fill: none; stroke: #181818; stroke-linecap: round; stroke-linejoin: round; stroke-width: 15px;"/>
          </a>
          <a xlink:href="https://www.notion.so/dmmnotes/delusional-idealization-743e2420b9994a48a7cab68190432e8a?pvs=4">
            <g id="A7-4" data-name="A7">
              <path d="M185.3515625,551.046386718737267c-23.9013671875-10.93359375-46.12158203125-25.23828125-66.04296875-42.515625l-.7548828125-.65478515625,37.2822265625-43.02685546875.755859375.6552734375c15.81201171875,13.70947265625,33.4501953125,25.056640625,52.423828125,33.7265625l.90966796875.41552734375-23.66357421875,51.81640625-.91015625-.41650390625Z" style="fill: none; stroke: #181818; stroke-linecap: round; stroke-linejoin: round; stroke-width: 15px;"/>
              <path d="M155.9365234375,466.259521484362267c15.75341796875,13.65869140625,33.4619140625,25.107177734375,52.66357421875,33.880859375l-22.83251953125,49.996826171875c-23.99267578125-10.975830078125-46.1162109375-25.287109375-65.803955078125-42.36181640625l35.972900390625-41.515869140625M155.735107421875,463.437835693346642l-1.31005859375,1.511993408203125-35.972900390625,41.515869140625-1.30908203125,1.510833740234375,1.51025390625,1.309783935546875c19.992919921875,17.3394775390625,42.29345703125,31.69561767578125,66.2822265625,42.66961669921875l1.81982421875.832550048828125.83154296875-1.820465087890625,22.83251953125-49.996826171875.83056640625-1.81890869140625-1.818603515625-.831024169921875c-18.886474609375-8.629638671875-36.444091796875-19.925201416015625-52.184814453125-33.572845458984375l-1.511474609375-1.310577392578125h0Z" style="fill: none; stroke: #181818; stroke-linecap: round; stroke-linejoin: round; stroke-width: 15px;"/>
            </g>
          </a>
        </g>
        <g>
          <a xlink:href="https://www.notion.so/dmmnotes/paranoid-ae38b1e6af0c4dd08f61e0d8f6e9f05f?pvs=4">
            <path id="C8-2" data-name="C8" d="M331.308105468760914,517.74951171875l7.825683593739086,54.4306640625c26.439208984369543-3.767822265628638,51.645751953139552-11.3115234375,75.101318359369543-22.04296875l-22.832519531239086-49.996826171878638c-18.7666015625,8.572265625-38.93505859375,14.601318359378638-60.094482421869543,17.609130859378638Z" style="fill: #938480; stroke: #181818; stroke-width: 2px;"/>
          </a>
          <a xlink:href="https://www.notion.so/dmmnotes/menacing-a5bd7149286344deba45ec15e759e579?pvs=4">
            <path id="C7-2" data-name="C7" d="M391.402587890630457,500.140380859371362l22.832519531239086,49.996826171878638c23.989990234391371-10.975830078119543,46.116210937520009-25.287109375010914,65.803955078141371-42.36181640625l-35.972900390630457-41.515869140619543c-15.753417968760914,13.65869140625-33.459228515630457,25.104492187490905-52.66357421875,33.880859374990905Z" style="fill: #958682; stroke: #181818; stroke-width: 2px;"/>
          </a>
          <a xlink:href="https://www.notion.so/dmmnotes/seductively-obsessed-with-rescue-6fb5a68f6d334bc29ccccc16d8a4e56e?pvs=4">
            <path id="C6-2" data-name="C6" d="M444.066162109380457,466.259521484380457l35.972900390630457,41.515869140619543c19.762939453119543-17.141845703128638,37.047119140619543-37.041748046878638,51.26708984375-59.125l-46.223632812510914-29.704833984369543c-11.373291015619543,17.673583984369543-25.201171874989086,33.598876953119543-41.016357421869543,47.31396484375Z" style="fill: #988985; stroke: #181818; stroke-width: 2px;"/>
          </a>
          <a xlink:href="https://www.notion.so/dmmnotes/punitively-obsessed-with-revenge-33d2e77f37774316b42bccf4a60f9688?pvs=4">
            <path id="C5-2" data-name="C5" d="M485.08251953125,418.945556640630457l46.223632812510914,29.704833984369543c14.048095703128638-21.809326171880457,25.08837890625-45.71875,32.551513671869543-71.175048828130457l-52.7548828125-15.490234375c-5.9619140625,20.377929687510914-14.789306640619543,39.509765625-26.020263671880457,56.960449218760914Z" style="fill: #9b8d89; stroke: #181818; stroke-width: 2px;"/>
          </a>
          <a xlink:href="https://www.notion.so/dmmnotes/feigned-helpless-e79a94b0498c4e109a681b7f3dcdb088?pvs=4">
            <path id="C4-2" data-name="C4" d="M520,300c0,21.5380859375-3.142089843739086,42.321533203119543-8.897216796869543,61.985107421869543l52.7548828125,15.490234375c7.2080078125-24.583496093739086,11.142333984369543-50.5634765625,11.142333984369543-77.475341796869543h-55Z" style="fill: #a1928f; stroke: #181818; stroke-width: 2px;"/>
          </a>
          <a xlink:href="https://www.notion.so/dmmnotes/aggressive-2d8ccce383534b9dbfc7b4b10b8a5d5c?pvs=4">
            <path id="C3-2" data-name="C3" d="M520,300h55c0-26.911865234389552-3.934326171869543-52.894531250010914-11.142333984369543-77.475341796889552l-52.7548828125,15.490234375c5.755126953130457,19.663574218759095,8.897216796869543,40.449707031259095,8.897216796869543,61.985107421889552Z" style="fill: #9e8f8b; stroke: #181818; stroke-width: 2px;"/>
          </a>
          <a xlink:href="https://www.notion.so/dmmnotes/disarming-086276e599884c86b9359acf831a8b20?pvs=4">
            <path id="C2-2" data-name="C2" d="M511.102783203130457,238.014892578110448l52.7548828125-15.490234375c-7.463134765619543-25.456298828121362-18.503417968740905-49.365722656240905-32.551513671869543-71.177734374990905l-46.223632812510914,29.70751953125c11.230957031260914,17.45068359375,20.055664062510914,36.585205078119543,26.020263671880457,56.960449218740905Z" style="fill: #9b8c88; stroke: #181818; stroke-width: 2px;"/>
          </a>
          <a xlink:href="https://www.notion.so/dmmnotes/threatening-348fe6a52f7a4fe69f768e98c6586932?pvs=4">
            <path id="C1-2" data-name="C1" d="M485.08251953125,181.054443359369543l46.223632812510914-29.70751953125c-3.273382764720736-5.082861773660625-6.709138808490025-10.050169557309346-10.300126729000112-14.894880224830558-18.7746979552212-25.329514182889397-56.293794455550596-26.537787805429616-76.939827532480194-2.708921059358545l-.00003597290015.000041518558646c15.815185546880457,13.71240234375,29.64306640625,29.637695312510914,41.016357421869543,47.311279296880457Z" style="fill: #988985; stroke: #181818; stroke-width: 2px;"/>
          </a>
          <a xlink:href="https://www.notion.so/dmmnotes/complaining-acceptance-8b40401a720c493ba73f7cde1567cf3d?pvs=4">
            <path id="B5-2" data-name="B5" d="M444.066162109380457,133.743164062489086l.00003597290015-.000041518558646c20.654922513649581-23.839126791601302,14.125719583838872-60.826671837301546-13.629725214659629-75.812167347630748-5.297847529700448-2.860371035199933-10.700612091030052-5.552089440430791-16.201365445751435-8.068162227549692l-22.832519531239086,49.99951171875c19.204345703119543,8.773681640619543,36.910156249989086,20.22216796875,52.66357421875,33.880859374989086Z" style="fill: #958682; stroke: #181818; stroke-width: 2px;"/>
          </a>
          <a xlink:href="https://www.notion.so/dmmnotes/sentimental-bc554363322342b1b7ca4ccc02125049?pvs=4">
            <path id="B4-2" data-name="B4" d="M391.402587890630457,99.8623046875l22.832519531239086-49.99951171875c-23.455566406229991-10.7314453125-48.662109375-18.275146484389552-75.101318359369543-22.042968749990905l-7.825683593739086,54.433349609360448c21.159423828119543,3.0078125,41.327880859369543,9.034179687490905,60.094482421869543,17.609130859380457Z" style="fill: #92837f; stroke: #181818; stroke-width: 2px;"/>
          </a>
          <a xlink:href="https://www.notion.so/dmmnotes/comfortably-balanced-e76dc615a8b947aa915377cd02fcf716?pvs=4">
            <path id="B3-2" data-name="B3" d="M300,80c10.634765625,0,21.078857421869543.797607421869543,31.308105468760914,2.253173828119543l7.825683593739086-54.433349609360448c-12.788574218739086-1.823486328139552-25.843017578130457-2.819824218759095-39.1337890625-2.819824218759095s-26.34521484375.996337890619543-39.133789062489086,2.819824218759095l7.825683593739086,54.433349609360448c10.23193359375-1.45556640625,20.67333984375-2.253173828119543,31.30810546875-2.253173828119543Z" style="fill: #8f807d; stroke: #181818; stroke-width: 2px;"/>
          </a>
          <a xlink:href="https://www.notion.so/dmmnotes/accepting-317d81273fff4cd9817cdf4a88efd378?pvs=4">
            <path id="B2-2" data-name="B2" d="M268.69189453125,82.253173828119543l-7.825683593739086-54.433349609360448c-26.439208984391371,3.767822265601353-51.643066406260914,11.311523437490905-75.098632812510914,22.042968749990905l22.83251953125,49.99951171875c18.7666015625-8.574951171889552,38.93505859375-14.601318359380457,60.091796875-17.609130859380457Z" style="fill: #8c7d7a; stroke: #181818; stroke-width: 2px;"/>
          </a>
          <a xlink:href="https://www.notion.so/dmmnotes/distanced-from-past-2eabab7e9c77429f8e577f4e3e203653?pvs=4">
            <path id="B1-2" data-name="B1" d="M208.60009765625,99.8623046875l-22.83251953125-49.99951171875c-5.501476919680499,2.516122083479786-10.904678806709853,5.207896667829118-16.20277414614975,8.068330353889905-27.754772116430104,14.984759620980185-34.283385893750165,51.971559756599163-13.6283165142504,75.809313677109458l.00003597290015.00004151587018c15.75341796875-13.658691406259095,33.4619140625-25.1044921875,52.66357421875-33.878173828119543Z" style="fill: #8a7b78; stroke: #181818; stroke-width: 2px;"/>
          </a>
          <a xlink:href="https://www.notion.so/dmmnotes/idealising-a52277f51ed14a42aae78081bb34b8be?pvs=4">
            <path id="A1-2" data-name="A1" d="M155.9365234375,133.740478515619543l-.00003597290015-.00004151587018c-20.647012023619027-23.828455119089995-58.166100839880528-22.619561246779995-76.941289455078731,2.709999997550767-3.591451962291103,4.845219097369409-7.02760574713102,9.813063194989809-10.301350353271118,14.896486830819413l46.226318359369543,29.70751953125c11.373291015641371-17.673583984369543,25.201171875010914-33.598876953130457,41.016357421880457-47.31396484375Z" style="fill: #877875; stroke: #181818; stroke-width: 2px;"/>
          </a>
          <a xlink:href="https://www.notion.so/dmmnotes/distancing-9ac690cdca654729a17a5a255944e2d1?pvs=4">
            <path id="A2-2" data-name="A2" d="M114.920166015619543,181.054443359369543l-46.226318359369543-29.70751953125c-14.04541015625,21.81201171875-25.08837890625,45.721435546869543-32.551513671880457,71.177734374990905l52.754882812510914,15.490234375c5.964599609369543-20.375244140621362,14.7919921875-39.509765624990905,26.022949218739086-56.960449218740905Z" style="fill: #847572; stroke: #181818; stroke-width: 2px;"/>
          </a>
          <a xlink:href="https://www.notion.so/dmmnotes/compulsive-caregiving-9c380c0928294f41ae10764aa0dee886?pvs=4">
            <path id="A3-2" data-name="A3" d="M88.897216796880457,238.014892578110448l-52.754882812510914-15.490234375c-7.205322265619543,24.580810546878638-11.142333984369543,50.5634765625-11.142333984369543,77.475341796889552h55c0-21.535400390630457,3.14208984375-42.321533203130457,8.897216796880457-61.985107421889552Z" style="fill: #827370; stroke: #181818; stroke-width: 2px;"/>
          </a>
          <a xlink:href="https://www.notion.so/dmmnotes/compulsive-compliance-6d08b7ea9a424ce1a72b9184b7850414?pvs=4">
            <path id="A4-2" data-name="A4" d="M80,300H25c0,26.911865234369543,3.93701171875,52.894531249989086,11.142333984369543,77.475341796869543l52.754882812510914-15.490234375c-5.755126953130457-19.66357421875-8.897216796880457-40.447021484369543-8.897216796880457-61.985107421869543Z" style="fill: #80716e; stroke: #181818; stroke-width: 2px;"/>
          </a>
          <a xlink:href="https://www.notion.so/dmmnotes/sexual-supplementation-8e85f49046ef412aa229745abf7d38d3?pvs=4">
            <path id="A5-2" data-name="A5" d="M88.897216796880457,361.985107421869543l-52.754882812510914,15.490234375c7.463134765630457,25.456298828130457,18.506103515630457,49.36572265625,32.551513671880457,71.175048828130457l46.223632812510914-29.704833984369543c-11.230957031260914-17.450683593760914-20.055664062510914-36.58251953125-26.020263671880457-56.960449218760914Z" style="fill: #837471; stroke: #181818; stroke-width: 2px;"/>
          </a>
          <a xlink:href="https://www.notion.so/dmmnotes/compulsive-isolated-self-reliance-b321873a73fa41aaaadd7192fde856a2?pvs=4">
            <path id="A6-2" data-name="A6" d="M114.917480468760914,418.945556640630457l-46.223632812510914,29.704833984369543c14.219970703119543,22.083251953121362,31.504150390630457,41.983154296871362,51.269775390630457,59.125l35.972900390619543-41.515869140619543c-15.815185546869543-13.712402343759095-29.643066406239086-29.637695312509095-41.019042968739086-47.31396484375Z" style="fill: #867774; stroke: #181818; stroke-width: 2px;"/>
          </a>
          <a xlink:href="https://www.notion.so/dmmnotes/externally-assembled-self-994ecb0895b844409b931d74a045c162?pvs=4">
            <path id="A8-2" data-name="A8" d="M208.60009765625,500.140380859371362l-22.83251953125,49.996826171878638c23.45556640625,10.7314453125,48.659423828119543,18.275146484371362,75.098632812510914,22.04296875l7.825683593739086-54.4306640625c-21.15673828125-3.0078125-41.3251953125-9.0341796875-60.091796875-17.609130859378638Z" style="fill: #8a7b77; stroke: #181818; stroke-width: 2px;"/>
          </a>
          <a xlink:href="https://www.notion.so/dmmnotes/psychopathy-0fe4a3222d9f4fd097ab4546c9776768?pvs=4">
            <path id="AC-2" data-name="AC" d="M300,520c-10.634765625,0-21.076171875-.794921875-31.30810546875-2.25048828125l-7.825683593739086,54.4306640625c12.788574218739086,1.823486328130457,25.843017578119543,2.81982421875,39.133789062489086,2.81982421875s26.345214843760914-.996337890619543,39.1337890625-2.81982421875l-7.825683593739086-54.4306640625c-10.229248046891371,1.45556640625-20.673339843760914,2.25048828125-31.308105468760914,2.25048828125Z" style="fill: #90817d; stroke: #181818; stroke-width: 2px;"/>
          </a>
          <a xlink:href="https://www.notion.so/dmmnotes/delusional-idealization-743e2420b9994a48a7cab68190432e8a?pvs=4">
            <g id="A7-5" data-name="A7">
              <path d="M185.3515625,551.046386718737267c-23.9013671875-10.93359375-46.12158203125-25.23828125-66.04296875-42.515625l-.7548828125-.65478515625,37.2822265625-43.02685546875.755859375.6552734375c15.81201171875,13.70947265625,33.4501953125,25.056640625,52.423828125,33.7265625l.90966796875.41552734375-23.66357421875,51.81640625-.91015625-.41650390625Z" style="fill: #c96282; stroke-width: 0px;"/>
              <path d="M155.9365234375,466.259521484362267c15.75341796875,13.65869140625,33.4619140625,25.107177734375,52.66357421875,33.880859375l-22.83251953125,49.996826171875c-23.99267578125-10.975830078125-46.1162109375-25.287109375-65.803955078125-42.36181640625l35.972900390625-41.515869140625M155.735107421875,463.437835693346642l-1.31005859375,1.511993408203125-35.972900390625,41.515869140625-1.30908203125,1.510833740234375,1.51025390625,1.309783935546875c19.992919921875,17.3394775390625,42.29345703125,31.69561767578125,66.2822265625,42.66961669921875l1.81982421875.832550048828125.83154296875-1.820465087890625,22.83251953125-49.996826171875.83056640625-1.81890869140625-1.818603515625-.831024169921875c-18.886474609375-8.629638671875-36.444091796875-19.925201416015625-52.184814453125-33.572845458984375l-1.511474609375-1.310577392578125h0Z" style="fill: #181818; stroke-width: 0px;"/>
            </g>
          </a>
        </g>
      </g>
      <g>
        <path d="M173.580078125,498.481445312487267c.01953125.263671875.0400390625.5732421875.060546875.9267578125.01953125.35546875.025390625.69921875.0146484375,1.033203125-.009765625.3349609375-.0400390625.62890625-.0908203125.8818359375-.05078125.25390625-.13671875.400390625-.2587890625.4404296875,0,.041015625-.01953125.1015625-.060546875.1826171875-1.4990234375,2.3505859375-2.7802734375,4.81640625-3.84375,7.400390625-1.064453125,2.5830078125-1.8994140625,5.2421875-2.5078125,7.9775390625v.0302734375c0,.041015625-.0205078125.0810546875-.060546875.12109375-.041015625.041015625-.076171875.091796875-.1064453125.15234375s-.0859375.130859375-.1669921875.212890625c-.1015625.1005859375-.263671875.197265625-.486328125.2880859375-.2236328125.091796875-.5166015625.1162109375-.8818359375.076171875-.3642578125-.041015625-.728515625-.0908203125-1.09375-.15234375-.3642578125-.060546875-.69921875-.15625-1.0029296875-.2880859375s-.546875-.32421875-.7294921875-.5771484375c-.181640625-.25390625-.263671875-.5830078125-.2431640625-.98828125.0205078125-.22265625.1015625-.6376953125.2431640625-1.24609375.1416015625-.607421875.3544921875-1.3369140625.638671875-2.1875.283203125-.87109375.6171875-1.8037109375,1.0029296875-2.7958984375.384765625-.9931640625.8095703125-1.9755859375,1.2763671875-2.9482421875.4658203125-.9921875.9462890625-1.9296875,1.443359375-2.8115234375.49609375-.880859375.95703125-1.6455078125,1.3828125-2.2939453125v-.0615234375c-2.4111328125,0-4.7822265625-.0302734375-7.111328125-.0908203125-.142578125-.01953125-.2734375-.0908203125-.3955078125-.212890625-.1015625-.1005859375-.197265625-.2529296875-.2880859375-.4560546875-.091796875-.2021484375-.1474609375-.4755859375-.1669921875-.8203125-.0205078125-.3642578125-.0263671875-.734375-.015625-1.109375.009765625-.3740234375.0458984375-.7236328125.1064453125-1.0478515625s.162109375-.59765625.3037109375-.8212890625c.1416015625-.22265625.3447265625-.3642578125.607421875-.4248046875.1220703125-.0205078125.384765625-.025390625.791015625-.015625.404296875.0107421875.896484375.0302734375,1.4736328125.060546875.5771484375.03125,1.2158203125.0712890625,1.9140625.1220703125.69921875.05078125,1.4033203125.0966796875,2.1123046875.13671875.708984375.041015625,1.392578125.076171875,2.0517578125.1064453125.658203125.0302734375,1.2509765625.06640625,1.77734375.1064453125.6083984375.041015625,1.1748046875.0712890625,1.7021484375.0908203125.1015625-.01953125.1923828125.0107421875.2734375.091796875.0810546875.060546875.15234375.1572265625.212890625.2880859375.060546875.1318359375.1015625.33984375.1220703125.623046875Z" style="fill: none; stroke: #181818; stroke-width: 5.631003379821777px;"/>
        <path d="M173.580078125,498.481445312487267c.01953125.263671875.0400390625.5732421875.060546875.9267578125.01953125.35546875.025390625.69921875.0146484375,1.033203125-.009765625.3349609375-.0400390625.62890625-.0908203125.8818359375-.05078125.25390625-.13671875.400390625-.2587890625.4404296875,0,.041015625-.01953125.1015625-.060546875.1826171875-1.4990234375,2.3505859375-2.7802734375,4.81640625-3.84375,7.400390625-1.064453125,2.5830078125-1.8994140625,5.2421875-2.5078125,7.9775390625v.0302734375c0,.041015625-.0205078125.0810546875-.060546875.12109375-.041015625.041015625-.076171875.091796875-.1064453125.15234375s-.0859375.130859375-.1669921875.212890625c-.1015625.1005859375-.263671875.197265625-.486328125.2880859375-.2236328125.091796875-.5166015625.1162109375-.8818359375.076171875-.3642578125-.041015625-.728515625-.0908203125-1.09375-.15234375-.3642578125-.060546875-.69921875-.15625-1.0029296875-.2880859375s-.546875-.32421875-.7294921875-.5771484375c-.181640625-.25390625-.263671875-.5830078125-.2431640625-.98828125.0205078125-.22265625.1015625-.6376953125.2431640625-1.24609375.1416015625-.607421875.3544921875-1.3369140625.638671875-2.1875.283203125-.87109375.6171875-1.8037109375,1.0029296875-2.7958984375.384765625-.9931640625.8095703125-1.9755859375,1.2763671875-2.9482421875.4658203125-.9921875.9462890625-1.9296875,1.443359375-2.8115234375.49609375-.880859375.95703125-1.6455078125,1.3828125-2.2939453125v-.0615234375c-2.4111328125,0-4.7822265625-.0302734375-7.111328125-.0908203125-.142578125-.01953125-.2734375-.0908203125-.3955078125-.212890625-.1015625-.1005859375-.197265625-.2529296875-.2880859375-.4560546875-.091796875-.2021484375-.1474609375-.4755859375-.1669921875-.8203125-.0205078125-.3642578125-.0263671875-.734375-.015625-1.109375.009765625-.3740234375.0458984375-.7236328125.1064453125-1.0478515625s.162109375-.59765625.3037109375-.8212890625c.1416015625-.22265625.3447265625-.3642578125.607421875-.4248046875.1220703125-.0205078125.384765625-.025390625.791015625-.015625.404296875.0107421875.896484375.0302734375,1.4736328125.060546875.5771484375.03125,1.2158203125.0712890625,1.9140625.1220703125.69921875.05078125,1.4033203125.0966796875,2.1123046875.13671875.708984375.041015625,1.392578125.076171875,2.0517578125.1064453125.658203125.0302734375,1.2509765625.06640625,1.77734375.1064453125.6083984375.041015625,1.1748046875.0712890625,1.7021484375.0908203125.1015625-.01953125.1923828125.0107421875.2734375.091796875.0810546875.060546875.15234375.1572265625.212890625.2880859375.060546875.1318359375.1015625.33984375.1220703125.623046875Z" style="fill: #231f20; stroke-width: 0px;"/>
        <path d="M173.580078125,498.481445312487267c.01953125.263671875.0400390625.5732421875.060546875.9267578125.01953125.35546875.025390625.69921875.0146484375,1.033203125-.009765625.3349609375-.0400390625.62890625-.0908203125.8818359375-.05078125.25390625-.13671875.400390625-.2587890625.4404296875,0,.041015625-.01953125.1015625-.060546875.1826171875-1.4990234375,2.3505859375-2.7802734375,4.81640625-3.84375,7.400390625-1.064453125,2.5830078125-1.8994140625,5.2421875-2.5078125,7.9775390625v.0302734375c0,.041015625-.0205078125.0810546875-.060546875.12109375-.041015625.041015625-.076171875.091796875-.1064453125.15234375s-.0859375.130859375-.1669921875.212890625c-.1015625.1005859375-.263671875.197265625-.486328125.2880859375-.2236328125.091796875-.5166015625.1162109375-.8818359375.076171875-.3642578125-.041015625-.728515625-.0908203125-1.09375-.15234375-.3642578125-.060546875-.69921875-.15625-1.0029296875-.2880859375s-.546875-.32421875-.7294921875-.5771484375c-.181640625-.25390625-.263671875-.5830078125-.2431640625-.98828125.0205078125-.22265625.1015625-.6376953125.2431640625-1.24609375.1416015625-.607421875.3544921875-1.3369140625.638671875-2.1875.283203125-.87109375.6171875-1.8037109375,1.0029296875-2.7958984375.384765625-.9931640625.8095703125-1.9755859375,1.2763671875-2.9482421875.4658203125-.9921875.9462890625-1.9296875,1.443359375-2.8115234375.49609375-.880859375.95703125-1.6455078125,1.3828125-2.2939453125v-.0615234375c-2.4111328125,0-4.7822265625-.0302734375-7.111328125-.0908203125-.142578125-.01953125-.2734375-.0908203125-.3955078125-.212890625-.1015625-.1005859375-.197265625-.2529296875-.2880859375-.4560546875-.091796875-.2021484375-.1474609375-.4755859375-.1669921875-.8203125-.0205078125-.3642578125-.0263671875-.734375-.015625-1.109375.009765625-.3740234375.0458984375-.7236328125.1064453125-1.0478515625s.162109375-.59765625.3037109375-.8212890625c.1416015625-.22265625.3447265625-.3642578125.607421875-.4248046875.1220703125-.0205078125.384765625-.025390625.791015625-.015625.404296875.0107421875.896484375.0302734375,1.4736328125.060546875.5771484375.03125,1.2158203125.0712890625,1.9140625.1220703125.69921875.05078125,1.4033203125.0966796875,2.1123046875.13671875.708984375.041015625,1.392578125.076171875,2.0517578125.1064453125.658203125.0302734375,1.2509765625.06640625,1.77734375.1064453125.6083984375.041015625,1.1748046875.0712890625,1.7021484375.0908203125.1015625-.01953125.1923828125.0107421875.2734375.091796875.0810546875.060546875.15234375.1572265625.212890625.2880859375.060546875.1318359375.1015625.33984375.1220703125.623046875Z" style="fill: #e2dddb; stroke-width: 0px;"/>
      </g>
    </g>
  </g>
</svg>