<?xml version="1.0" encoding="UTF-8"?>
<svg id="Layer_1" data-name="Layer 1" xmlns="http://www.w3.org/2000/svg" xmlns:xlink="http://www.w3.org/1999/xlink" viewBox="0 0 600 600">
  <defs>
    <linearGradient id="B3-3" data-name="B3" x1="299.634729863263601" y1="240.167959394542777" x2="320.494782428779729" y2="211.228309004359119" gradientUnits="userSpaceOnUse">
      <stop offset="0" stop-color="#008693"/>
      <stop offset=".5" stop-color="#008c8d"/>
      <stop offset="1" stop-color="#008f82"/>
    </linearGradient>
    <linearGradient id="C3-3" data-name="C3" x1="354.499373163322161" y1="310.424928337322854" x2="403.679196610592896" y2="233.581454200973496" gradientUnits="userSpaceOnUse">
      <stop offset="0" stop-color="#679a5a"/>
      <stop offset=".203304411159916" stop-color="#6c9a56"/>
      <stop offset=".454423858001689" stop-color="#7b9d4d"/>
      <stop offset=".487179487179487" stop-color="#7e9e4c"/>
      <stop offset="1" stop-color="#91a23d"/>
    </linearGradient>
    <linearGradient id="C1-3" data-name="C1" x1="348.921231809216806" y1="232.653725967928949" x2="374.186440981792828" y2="193.176836635784639" gradientUnits="userSpaceOnUse">
      <stop offset="0" stop-color="#1f9276"/>
      <stop offset=".5" stop-color="#4b9669"/>
      <stop offset="1" stop-color="#679a5a"/>
    </linearGradient>
    <linearGradient id="C7-3" data-name="C7" x1="378.618065546929756" y1="371.570329101472453" x2="406.188988469137144" y2="328.490762035529656" gradientUnits="userSpaceOnUse">
      <stop offset="0" stop-color="#c48a57"/>
      <stop offset=".514957264957265" stop-color="#d3805f"/>
      <stop offset=".799864386739867" stop-color="#d97a61"/>
      <stop offset="1" stop-color="#e17465"/>
    </linearGradient>
    <linearGradient id="A4-3" data-name="A4" x1="251.339613390193335" y1="312.703788373639327" x2="301.109553163917099" y2="250.365681990396979" gradientUnits="userSpaceOnUse">
      <stop offset="0" stop-color="#7d67a2"/>
      <stop offset=".385181145631382" stop-color="#895ea4"/>
      <stop offset=".489316239316239" stop-color="#8e5ba6"/>
      <stop offset=".841924594895194" stop-color="#9a5c9d"/>
      <stop offset="1" stop-color="#a25d99"/>
    </linearGradient>
    <linearGradient id="A7-3" data-name="A7" x1="224.484933611047381" y1="392.00069671073561" x2="259.229289254201319" y2="348.48251388497232" gradientUnits="userSpaceOnUse">
      <stop offset="0" stop-color="#b6608e"/>
      <stop offset=".5" stop-color="#c96282"/>
      <stop offset="1" stop-color="#dc6476"/>
    </linearGradient>
    <linearGradient id="A1-3" data-name="A1" x1="200.77483612971082" y1="270.638625624166707" x2="231.620162421325659" y2="232.004075521542745" gradientUnits="userSpaceOnUse">
      <stop offset="0" stop-color="#6a70a0"/>
      <stop offset=".5" stop-color="#52789c"/>
      <stop offset=".718915170605863" stop-color="#4f789b"/>
      <stop offset=".841614944399044" stop-color="#47799a"/>
      <stop offset=".940237931979561" stop-color="#397c99"/>
      <stop offset="1" stop-color="#2d7f98"/>
    </linearGradient>
    <linearGradient id="AC78" x1="265.470532134517271" y1="390.721325381403403" x2="347.708627410799181" y2="327.953026513293594" gradientUnits="userSpaceOnUse">
      <stop offset="0" stop-color="#dc6476"/>
      <stop offset=".5" stop-color="#f1666a"/>
      <stop offset="1" stop-color="#e17465"/>
    </linearGradient>
  </defs>
  <g id="pie_with_links_-5" data-name="pie (with links)">
    <g id="pie_with_links_-6" data-name="pie (with links)">
      <g id="Pie">
        <g>
          <a xlink:href="https://www.notion.so/dmmnotes/paranoid-ae38b1e6af0c4dd08f61e0d8f6e9f05f?pvs=4">
            <path id="C8" d="M331.308105468760004,517.74951171875l7.825683593739996,54.4306640625c26.439208984369543-3.767822265628638,51.645751953139552-11.3115234375,75.101318359369543-22.04296875l-22.832519531239086-49.996826171878638c-18.7666015625,8.572265625-38.93505859375,14.601318359378638-60.094482421870453,17.609130859378638Z" fill="none" stroke="#181818" stroke-linecap="round" stroke-linejoin="round" stroke-width="15"/>
          </a>
          <a xlink:href="https://www.notion.so/dmmnotes/menacing-a5bd7149286344deba45ec15e759e579?pvs=4">
            <path id="C7" d="M391.402587890630457,500.140380859371362l22.832519531239086,49.996826171878638c23.989990234390461-10.975830078119543,46.116210937520009-25.287109375010914,65.803955078140461-42.36181640625l-35.972900390629547-41.515869140619543c-15.753417968760914,13.65869140625-33.459228515630457,25.104492187490905-52.66357421875,33.880859374990905Z" fill="none" stroke="#181818" stroke-linecap="round" stroke-linejoin="round" stroke-width="15"/>
          </a>
          <a xlink:href="https://www.notion.so/dmmnotes/seductively-obsessed-with-rescue-6fb5a68f6d334bc29ccccc16d8a4e56e?pvs=4">
            <path id="C6" d="M444.066162109380457,466.259521484380457l35.972900390629547,41.515869140619543c19.762939453120453-17.141845703128638,37.047119140620453-37.041748046878638,51.26708984375-59.125l-46.223632812510004-29.704833984369543c-11.373291015619543,17.673583984369543-25.201171874989996,33.598876953119543-41.016357421869543,47.31396484375Z" fill="none" stroke="#181818" stroke-linecap="round" stroke-linejoin="round" stroke-width="15"/>
          </a>
          <a xlink:href="https://www.notion.so/dmmnotes/punitively-obsessed-with-revenge-33d2e77f37774316b42bccf4a60f9688?pvs=4">
            <path id="C5" d="M485.08251953125,418.945556640630457l46.223632812510004,29.704833984369543c14.048095703129547-21.809326171878638,25.08837890625-45.71875,32.551513671870453-71.175048828128638l-52.7548828125-15.490234375c-5.9619140625,20.377929687509095-14.789306640620453,39.509765625-26.020263671880457,56.960449218759095Z" fill="none" stroke="#181818" stroke-linecap="round" stroke-linejoin="round" stroke-width="15"/>
          </a>
          <a xlink:href="https://www.notion.so/dmmnotes/feigned-helpless-e79a94b0498c4e109a681b7f3dcdb088?pvs=4">
            <path id="C4" d="M520,300c0,21.5380859375-3.142089843739996,42.321533203121362-8.897216796869543,61.985107421871362l52.7548828125,15.490234375c7.2080078125-24.583496093740905,11.142333984369543-50.5634765625,11.142333984369543-77.475341796871362h-55Z" fill="none" stroke="#181818" stroke-linecap="round" stroke-linejoin="round" stroke-width="15"/>
          </a>
          <a xlink:href="https://www.notion.so/dmmnotes/aggressive-2d8ccce383534b9dbfc7b4b10b8a5d5c?pvs=4">
            <path id="C3" d="M520,300h55c0-26.911865234389552-3.934326171869543-52.894531250010914-11.142333984369543-77.475341796889552l-52.7548828125,15.490234375c5.755126953129547,19.663574218760914,8.897216796869543,40.449707031260914,8.897216796869543,61.985107421889552Z" fill="none" stroke="#181818" stroke-linecap="round" stroke-linejoin="round" stroke-width="15"/>
          </a>
          <a xlink:href="https://www.notion.so/dmmnotes/disarming-086276e599884c86b9359acf831a8b20?pvs=4">
            <path id="C2" d="M511.102783203130457,238.014892578110448l52.7548828125-15.490234375c-7.463134765620453-25.456298828121362-18.503417968740905-49.365722656239086-32.551513671870453-71.177734374989086l-46.223632812510004,29.70751953125c11.230957031260004,17.45068359375,20.055664062510004,36.585205078117724,26.020263671880457,56.960449218739086Z" fill="none" stroke="#181818" stroke-linecap="round" stroke-linejoin="round" stroke-width="15"/>
          </a>
          <a xlink:href="https://www.notion.so/dmmnotes/threatening-348fe6a52f7a4fe69f768e98c6586932?pvs=4">
            <path id="C1" d="M485.08251953125,181.054443359371362l46.223632812510004-29.70751953125c-14.219970703129547-22.08056640625-31.504150390629547-41.980468750010914-51.26708984375-59.122314453121362l-35.972900390629547,41.518554687489086c15.815185546879547,13.71240234375,29.64306640625,29.637695312510914,41.016357421869543,47.311279296882276Z" fill="none" stroke="#181818" stroke-linecap="round" stroke-linejoin="round" stroke-width="15"/>
          </a>
          <a xlink:href="https://www.notion.so/dmmnotes/complaining-acceptance-8b40401a720c493ba73f7cde1567cf3d?pvs=4">
            <path id="B5" d="M444.066162109380457,133.743164062489086l35.972900390629547-41.518554687489086c-19.687744140620453-17.07470703125-41.81396484375-31.388671875-65.803955078140461-42.36181640625l-22.832519531239086,49.99951171875c19.204345703119543,8.773681640621362,36.910156249989086,20.22216796875,52.66357421875,33.880859374989086Z" fill="none" stroke="#181818" stroke-linecap="round" stroke-linejoin="round" stroke-width="15"/>
          </a>
          <a xlink:href="https://www.notion.so/dmmnotes/sentimental-bc554363322342b1b7ca4ccc02125049?pvs=4">
            <path id="B4" d="M391.402587890630457,99.8623046875l22.832519531239086-49.99951171875c-23.455566406229991-10.7314453125-48.662109375-18.275146484389552-75.101318359369543-22.042968749989086l-7.825683593739996,54.433349609360448c21.159423828120453,3.0078125,41.327880859370453,9.034179687489086,60.094482421870453,17.609130859378638Z" fill="none" stroke="#181818" stroke-linecap="round" stroke-linejoin="round" stroke-width="15"/>
          </a>
          <a xlink:href="https://www.notion.so/dmmnotes/comfortably-balanced-e76dc615a8b947aa915377cd02fcf716?pvs=4">
            <path id="B3" d="M300,80c10.634765625,0,21.078857421869543.797607421871362,31.308105468760004,2.253173828121362l7.825683593739996-54.433349609360448c-12.788574218739996-1.823486328139552-25.843017578130457-2.819824218760914-39.1337890625-2.819824218760914s-26.34521484375.996337890621362-39.133789062489996,2.819824218760914l7.825683593739996,54.433349609360448c10.23193359375-1.45556640625,20.67333984375-2.253173828121362,31.30810546875-2.253173828121362Z" fill="none" stroke="#181818" stroke-linecap="round" stroke-linejoin="round" stroke-width="15"/>
          </a>
          <a xlink:href="https://www.notion.so/dmmnotes/accepting-317d81273fff4cd9817cdf4a88efd378?pvs=4">
            <path id="B2" d="M268.69189453125,82.253173828121362l-7.825683593739996-54.433349609360448c-26.439208984390461,3.767822265599534-51.643066406260004,11.311523437489086-75.098632812510004,22.042968749989086l22.83251953125,49.99951171875c18.7666015625-8.574951171889552,38.93505859375-14.601318359378638,60.091796875-17.609130859378638Z" fill="none" stroke="#181818" stroke-linecap="round" stroke-linejoin="round" stroke-width="15"/>
          </a>
          <a xlink:href="https://www.notion.so/dmmnotes/distanced-from-past-2eabab7e9c77429f8e577f4e3e203653?pvs=4">
            <path id="B1" d="M208.60009765625,99.8623046875l-22.83251953125-49.99951171875c-23.99267578125,10.97314453125-46.1162109375,25.287109375-65.803955078119543,42.36181640625l35.972900390619543,41.515869140621362c15.75341796875-13.658691406260914,33.4619140625-25.1044921875,52.66357421875-33.878173828121362Z" fill="none" stroke="#181818" stroke-linecap="round" stroke-linejoin="round" stroke-width="15"/>
          </a>
          <a xlink:href="https://www.notion.so/dmmnotes/idealising-a52277f51ed14a42aae78081bb34b8be?pvs=4">
            <path id="A1" d="M155.9365234375,133.740478515621362l-35.972900390619543-41.515869140621362c-19.765625,17.141845703110448-37.049804687510914,37.041748046871362-51.269775390630457,59.122314453121362l46.226318359369543,29.70751953125c11.373291015640461-17.673583984371362,25.201171875010914-33.598876953132276,41.016357421880457-47.31396484375Z" fill="none" stroke="#181818" stroke-linecap="round" stroke-linejoin="round" stroke-width="15"/>
          </a>
          <a xlink:href="https://www.notion.so/dmmnotes/distancing-9ac690cdca654729a17a5a255944e2d1?pvs=4">
            <path id="A2" d="M114.920166015619543,181.054443359371362l-46.226318359369543-29.70751953125c-14.04541015625,21.81201171875-25.08837890625,45.721435546867724-32.551513671880457,71.177734374989086l52.754882812510914,15.490234375c5.964599609369543-20.375244140621362,14.7919921875-39.509765624989086,26.022949218739086-56.960449218739086Z" fill="none" stroke="#181818" stroke-linecap="round" stroke-linejoin="round" stroke-width="15"/>
          </a>
          <a xlink:href="https://www.notion.so/dmmnotes/compulsive-caregiving-9c380c0928294f41ae10764aa0dee886?pvs=4">
            <path id="A3" d="M88.897216796880457,238.014892578110448l-52.754882812510914-15.490234375c-7.205322265619543,24.580810546878638-11.142333984369543,50.5634765625-11.142333984369543,77.475341796889552h55c0-21.535400390628638,3.14208984375-42.321533203128638,8.897216796880457-61.985107421889552Z" fill="none" stroke="#181818" stroke-linecap="round" stroke-linejoin="round" stroke-width="15"/>
          </a>
          <a xlink:href="https://www.notion.so/dmmnotes/compulsive-compliance-6d08b7ea9a424ce1a72b9184b7850414?pvs=4">
            <path id="A4" d="M80,300H25c0,26.911865234371362,3.93701171875,52.894531249989086,11.142333984369543,77.475341796871362l52.754882812510914-15.490234375c-5.755126953130457-19.66357421875-8.897216796880457-40.447021484371362-8.897216796880457-61.985107421871362Z" fill="none" stroke="#181818" stroke-linecap="round" stroke-linejoin="round" stroke-width="15"/>
          </a>
          <a xlink:href="https://www.notion.so/dmmnotes/sexual-supplementation-8e85f49046ef412aa229745abf7d38d3?pvs=4">
            <path id="A5" d="M88.897216796880457,361.985107421871362l-52.754882812510914,15.490234375c7.463134765630457,25.456298828128638,18.506103515630457,49.36572265625,32.551513671880457,71.175048828128638l46.223632812510004-29.704833984369543c-11.230957031260004-17.450683593759095-20.055664062510004-36.58251953125-26.020263671879547-56.960449218759095Z" fill="none" stroke="#181818" stroke-linecap="round" stroke-linejoin="round" stroke-width="15"/>
          </a>
          <a xlink:href="https://www.notion.so/dmmnotes/compulsive-isolated-self-reliance-b321873a73fa41aaaadd7192fde856a2?pvs=4">
            <path id="A6" d="M114.917480468760004,418.945556640630457l-46.223632812510004,29.704833984369543c14.219970703119543,22.083251953121362,31.504150390630457,41.983154296871362,51.269775390630457,59.125l35.972900390619543-41.515869140619543c-15.815185546869543-13.712402343759095-29.643066406239996-29.637695312509095-41.019042968739996-47.31396484375Z" fill="none" stroke="#181818" stroke-linecap="round" stroke-linejoin="round" stroke-width="15"/>
          </a>
          <a xlink:href="https://www.notion.so/dmmnotes/delusional-idealization-743e2420b9994a48a7cab68190432e8a?pvs=4">
            <path id="A7" d="M155.9365234375,466.259521484380457l-35.972900390619543,41.515869140619543c19.687744140619543,17.074707031239086,41.811279296869543,31.385986328130457,65.803955078119543,42.36181640625l22.83251953125-49.996826171878638c-19.20166015625-8.773681640621362-36.91015625-20.222167968740905-52.66357421875-33.880859374990905Z" fill="none" stroke="#181818" stroke-linecap="round" stroke-linejoin="round" stroke-width="15"/>
          </a>
          <a xlink:href="https://www.notion.so/dmmnotes/externally-assembled-self-994ecb0895b844409b931d74a045c162?pvs=4">
            <path id="A8" d="M208.60009765625,500.140380859371362l-22.83251953125,49.996826171878638c23.45556640625,10.7314453125,48.659423828119543,18.275146484371362,75.098632812510004,22.04296875l7.825683593739996-54.4306640625c-21.15673828125-3.0078125-41.3251953125-9.0341796875-60.091796875-17.609130859378638Z" fill="none" stroke="#181818" stroke-linecap="round" stroke-linejoin="round" stroke-width="15"/>
          </a>
          <a xlink:href="https://www.notion.so/dmmnotes/psychopathy-0fe4a3222d9f4fd097ab4546c9776768?pvs=4">
            <path id="AC" d="M300,520c-10.634765625,0-21.076171875-.794921875-31.30810546875-2.25048828125l-7.825683593739996,54.4306640625c12.788574218739996,1.823486328130457,25.843017578120453,2.81982421875,39.133789062489996,2.81982421875s26.345214843760004-.996337890619543,39.1337890625-2.81982421875l-7.825683593739996-54.4306640625c-10.229248046890461,1.45556640625-20.673339843760004,2.25048828125-31.308105468760004,2.25048828125Z" fill="none" stroke="#181818" stroke-linecap="round" stroke-linejoin="round" stroke-width="15"/>
          </a>
        </g>
        <g>
          <a xlink:href="https://www.notion.so/dmmnotes/paranoid-ae38b1e6af0c4dd08f61e0d8f6e9f05f?pvs=4">
            <path id="C8-2" data-name="C8" d="M331.308105468760004,517.74951171875l7.825683593739996,54.4306640625c26.439208984369543-3.767822265628638,51.645751953139552-11.3115234375,75.101318359369543-22.04296875l-22.832519531239086-49.996826171878638c-18.7666015625,8.572265625-38.93505859375,14.601318359378638-60.094482421870453,17.609130859378638Z" fill="#cd7969" stroke="#181818" stroke-linecap="round" stroke-linejoin="round" stroke-width="2"/>
          </a>
          <a xlink:href="https://www.notion.so/dmmnotes/menacing-a5bd7149286344deba45ec15e759e579?pvs=4">
            <path id="C7-2" data-name="C7" d="M391.402587890630457,500.140380859371362l22.832519531239086,49.996826171878638c23.989990234390461-10.975830078119543,46.116210937520009-25.287109375010914,65.803955078140461-42.36181640625l-35.972900390629547-41.515869140619543c-15.753417968760914,13.65869140625-33.459228515630457,25.104492187490905-52.66357421875,33.880859374990905Z" fill="#c78361" stroke="#181818" stroke-linecap="round" stroke-linejoin="round" stroke-width="2"/>
          </a>
          <a xlink:href="https://www.notion.so/dmmnotes/seductively-obsessed-with-rescue-6fb5a68f6d334bc29ccccc16d8a4e56e?pvs=4">
            <path id="C6-2" data-name="C6" d="M444.066162109380457,466.259521484380457l35.972900390629547,41.515869140619543c19.762939453120453-17.141845703128638,37.047119140620453-37.041748046878638,51.26708984375-59.125l-46.223632812510004-29.704833984369543c-11.373291015619543,17.673583984369543-25.201171874989996,33.598876953119543-41.016357421869543,47.31396484375Z" fill="#bb8a59" stroke="#181818" stroke-linecap="round" stroke-linejoin="round" stroke-width="2"/>
          </a>
          <a xlink:href="https://www.notion.so/dmmnotes/punitively-obsessed-with-revenge-33d2e77f37774316b42bccf4a60f9688?pvs=4">
            <path id="C5-2" data-name="C5" d="M485.08251953125,418.945556640630457l46.223632812510004,29.704833984369543c14.048095703129547-21.809326171878638,25.08837890625-45.71875,32.551513671870453-71.175048828128638l-52.7548828125-15.490234375c-5.9619140625,20.377929687509095-14.789306640620453,39.509765625-26.020263671880457,56.960449218759095Z" fill="#ac9156" stroke="#181818" stroke-linecap="round" stroke-linejoin="round" stroke-width="2"/>
          </a>
          <a xlink:href="https://www.notion.so/dmmnotes/feigned-helpless-e79a94b0498c4e109a681b7f3dcdb088?pvs=4">
            <path id="C4-2" data-name="C4" d="M520,300c0,21.5380859375-3.142089843739996,42.321533203121362-8.897216796869543,61.985107421871362l52.7548828125,15.490234375c7.2080078125-24.583496093740905,11.142333984369543-50.5634765625,11.142333984369543-77.475341796871362h-55Z" fill="#999555" stroke="#181818" stroke-linecap="round" stroke-linejoin="round" stroke-width="2"/>
          </a>
          <a xlink:href="https://www.notion.so/dmmnotes/aggressive-2d8ccce383534b9dbfc7b4b10b8a5d5c?pvs=4">
            <path id="C3-2" data-name="C3" d="M520,300h55c0-26.911865234389552-3.934326171869543-52.894531250010914-11.142333984369543-77.475341796889552l-52.7548828125,15.490234375c5.755126953129547,19.663574218760914,8.897216796869543,40.449707031260914,8.897216796869543,61.985107421889552Z" fill="#859658" stroke="#181818" stroke-linecap="round" stroke-linejoin="round" stroke-width="2"/>
          </a>
          <a xlink:href="https://www.notion.so/dmmnotes/disarming-086276e599884c86b9359acf831a8b20?pvs=4">
            <path id="C2-2" data-name="C2" d="M511.102783203130457,238.014892578110448l52.7548828125-15.490234375c-7.463134765620453-25.456298828121362-18.503417968740905-49.365722656239086-32.551513671870453-71.177734374989086l-46.223632812510004,29.70751953125c11.230957031260004,17.45068359375,20.055664062510004,36.585205078117724,26.020263671880457,56.960449218739086Z" fill="#6e975f" stroke="#181818" stroke-linecap="round" stroke-linejoin="round" stroke-width="2"/>
          </a>
          <a xlink:href="https://www.notion.so/dmmnotes/threatening-348fe6a52f7a4fe69f768e98c6586932?pvs=4">
            <path id="C1-2" data-name="C1" d="M485.08251953125,181.054443359371362l46.223632812510004-29.70751953125c-14.219970703129547-22.08056640625-31.504150390629547-41.980468750010914-51.26708984375-59.122314453121362l-35.972900390629547,41.518554687489086c15.815185546879547,13.71240234375,29.64306640625,29.637695312510914,41.016357421869543,47.311279296882276Z" fill="#589569" stroke="#181818" stroke-linecap="round" stroke-linejoin="round" stroke-width="2"/>
          </a>
          <a xlink:href="https://www.notion.so/dmmnotes/complaining-acceptance-8b40401a720c493ba73f7cde1567cf3d?pvs=4">
            <path id="B5-2" data-name="B5" d="M444.066162109380457,133.743164062489086l35.972900390629547-41.518554687489086c-19.687744140620453-17.07470703125-41.81396484375-31.388671875-65.803955078140461-42.36181640625l-22.832519531239086,49.99951171875c19.204345703119543,8.773681640621362,36.910156249989086,20.22216796875,52.66357421875,33.880859374989086Z" fill="#3d9174" stroke="#181818" stroke-linecap="round" stroke-linejoin="round" stroke-width="2"/>
          </a>
          <a xlink:href="https://www.notion.so/dmmnotes/sentimental-bc554363322342b1b7ca4ccc02125049?pvs=4">
            <path id="B4-2" data-name="B4" d="M391.402587890630457,99.8623046875l22.832519531239086-49.99951171875c-23.455566406229991-10.7314453125-48.662109375-18.275146484389552-75.101318359369543-22.042968749989086l-7.825683593739996,54.433349609360448c21.159423828120453,3.0078125,41.327880859370453,9.034179687489086,60.094482421870453,17.609130859378638Z" fill="#2c8d7e" stroke="#181818" stroke-linecap="round" stroke-linejoin="round" stroke-width="2"/>
          </a>
          <a xlink:href="https://www.notion.so/dmmnotes/comfortably-balanced-e76dc615a8b947aa915377cd02fcf716?pvs=4">
            <path id="B3-2" data-name="B3" d="M300,80c10.634765625,0,21.078857421869543.797607421871362,31.308105468760004,2.253173828121362l7.825683593739996-54.433349609360448c-12.788574218739996-1.823486328139552-25.843017578130457-2.819824218760914-39.1337890625-2.819824218760914s-26.34521484375.996337890621362-39.133789062489996,2.819824218760914l7.825683593739996,54.433349609360448c10.23193359375-1.45556640625,20.67333984375-2.253173828121362,31.30810546875-2.253173828121362Z" fill="#268887" stroke="#181818" stroke-linecap="round" stroke-linejoin="round" stroke-width="2"/>
          </a>
          <a xlink:href="https://www.notion.so/dmmnotes/accepting-317d81273fff4cd9817cdf4a88efd378?pvs=4">
            <path id="B2-2" data-name="B2" d="M268.69189453125,82.253173828121362l-7.825683593739996-54.433349609360448c-26.439208984390461,3.767822265599534-51.643066406260004,11.311523437489086-75.098632812510004,22.042968749989086l22.83251953125,49.99951171875c18.7666015625-8.574951171889552,38.93505859375-14.601318359378638,60.091796875-17.609130859378638Z" fill="#2e8390" stroke="#181818" stroke-linecap="round" stroke-linejoin="round" stroke-width="2"/>
          </a>
          <a xlink:href="https://www.notion.so/dmmnotes/distanced-from-past-2eabab7e9c77429f8e577f4e3e203653?pvs=4">
            <path id="B1-2" data-name="B1" d="M208.60009765625,99.8623046875l-22.83251953125-49.99951171875c-23.99267578125,10.97314453125-46.1162109375,25.287109375-65.803955078119543,42.36181640625l35.972900390619543,41.515869140621362c15.75341796875-13.658691406260914,33.4619140625-25.1044921875,52.66357421875-33.878173828121362Z" fill="#477e96" stroke="#181818" stroke-linecap="round" stroke-linejoin="round" stroke-width="2"/>
          </a>
          <a xlink:href="https://www.notion.so/dmmnotes/idealising-a52277f51ed14a42aae78081bb34b8be?pvs=4">
            <path id="A1-2" data-name="A1" d="M155.9365234375,133.740478515621362l-35.972900390619543-41.515869140621362c-19.765625,17.141845703110448-37.049804687510914,37.041748046871362-51.269775390630457,59.122314453121362l46.226318359369543,29.70751953125c11.373291015640461-17.673583984371362,25.201171875010914-33.598876953132276,41.016357421880457-47.31396484375Z" fill="#5e779a" stroke="#181818" stroke-linecap="round" stroke-linejoin="round" stroke-width="2"/>
          </a>
          <a xlink:href="https://www.notion.so/dmmnotes/distancing-9ac690cdca654729a17a5a255944e2d1?pvs=4">
            <path id="A2-2" data-name="A2" d="M114.920166015619543,181.054443359371362l-46.226318359369543-29.70751953125c-14.04541015625,21.81201171875-25.08837890625,45.721435546867724-32.551513671880457,71.177734374989086l52.754882812510914,15.490234375c5.964599609369543-20.375244140621362,14.7919921875-39.509765624989086,26.022949218739086-56.960449218739086Z" fill="#72729b" stroke="#181818" stroke-linecap="round" stroke-linejoin="round" stroke-width="2"/>
          </a>
          <a xlink:href="https://www.notion.so/dmmnotes/compulsive-caregiving-9c380c0928294f41ae10764aa0dee886?pvs=4">
            <path id="A3-2" data-name="A3" d="M88.897216796880457,238.014892578110448l-52.754882812510914-15.490234375c-7.205322265619543,24.580810546878638-11.142333984369543,50.5634765625-11.142333984369543,77.475341796889552h55c0-21.535400390628638,3.14208984375-42.321533203128638,8.897216796880457-61.985107421889552Z" fill="#866c99" stroke="#181818" stroke-linecap="round" stroke-linejoin="round" stroke-width="2"/>
          </a>
          <a xlink:href="https://www.notion.so/dmmnotes/compulsive-compliance-6d08b7ea9a424ce1a72b9184b7850414?pvs=4">
            <path id="A4-2" data-name="A4" d="M80,300H25c0,26.911865234371362,3.93701171875,52.894531249989086,11.142333984369543,77.475341796871362l52.754882812510914-15.490234375c-5.755126953130457-19.66357421875-8.897216796880457-40.447021484371362-8.897216796880457-61.985107421871362Z" fill="#aa6490" stroke="#181818" stroke-linecap="round" stroke-linejoin="round" stroke-width="2"/>
          </a>
          <a xlink:href="https://www.notion.so/dmmnotes/sexual-supplementation-8e85f49046ef412aa229745abf7d38d3?pvs=4">
            <path id="A5-2" data-name="A5" d="M88.897216796880457,361.985107421871362l-52.754882812510914,15.490234375c7.463134765630457,25.456298828128638,18.506103515630457,49.36572265625,32.551513671880457,71.175048828128638l46.223632812510004-29.704833984369543c-11.230957031260004-17.450683593759095-20.055664062510004-36.58251953125-26.020263671879547-56.960449218759095Z" fill="#aa6490" stroke="#181818" stroke-linecap="round" stroke-linejoin="round" stroke-width="2"/>
          </a>
          <a xlink:href="https://www.notion.so/dmmnotes/compulsive-isolated-self-reliance-b321873a73fa41aaaadd7192fde856a2?pvs=4">
            <path id="A6-2" data-name="A6" d="M114.917480468760004,418.945556640630457l-46.223632812510004,29.704833984369543c14.219970703119543,22.083251953121362,31.504150390630457,41.983154296871362,51.269775390630457,59.125l35.972900390619543-41.515869140619543c-15.815185546869543-13.712402343759095-29.643066406239996-29.637695312509095-41.019042968739996-47.31396484375Z" fill="#b9638b" stroke="#181818" stroke-linecap="round" stroke-linejoin="round" stroke-width="2"/>
          </a>
          <a xlink:href="https://www.notion.so/dmmnotes/delusional-idealization-743e2420b9994a48a7cab68190432e8a?pvs=4">
            <path id="A7-2" data-name="A7" d="M155.9365234375,466.259521484380457l-35.972900390619543,41.515869140619543c19.687744140619543,17.074707031239086,41.811279296869543,31.385986328130457,65.803955078119543,42.36181640625l22.83251953125-49.996826171878638c-19.20166015625-8.773681640621362-36.91015625-20.222167968740905-52.66357421875-33.880859374990905Z" fill="#c46681" stroke="#181818" stroke-linecap="round" stroke-linejoin="round" stroke-width="2"/>
          </a>
          <a xlink:href="https://www.notion.so/dmmnotes/externally-assembled-self-994ecb0895b844409b931d74a045c162?pvs=4">
            <path id="A8-2" data-name="A8" d="M208.60009765625,500.140380859371362l-22.83251953125,49.996826171878638c23.45556640625,10.7314453125,48.659423828119543,18.275146484371362,75.098632812510004,22.04296875l7.825683593739996-54.4306640625c-21.15673828125-3.0078125-41.3251953125-9.0341796875-60.091796875-17.609130859378638Z" fill="#cc6a7a" stroke="#181818" stroke-linecap="round" stroke-linejoin="round" stroke-width="2"/>
          </a>
          <a xlink:href="https://www.notion.so/dmmnotes/psychopathy-0fe4a3222d9f4fd097ab4546c9776768?pvs=4">
            <path id="AC-2" data-name="AC" d="M300,520c-10.634765625,0-21.076171875-.794921875-31.30810546875-2.25048828125l-7.825683593739996,54.4306640625c12.788574218739996,1.823486328130457,25.843017578120453,2.81982421875,39.133789062489996,2.81982421875s26.345214843760004-.996337890619543,39.1337890625-2.81982421875l-7.825683593739996-54.4306640625c-10.229248046890461,1.45556640625-20.673339843760004,2.25048828125-31.308105468760004,2.25048828125Z" fill="#cf7171" stroke="#181818" stroke-linecap="round" stroke-linejoin="round" stroke-width="2"/>
          </a>
        </g>
      </g>
      <g>
        <a xlink:href="https://www.notion.so/dmmnotes/patterns-017f25ab38164ae597bb02f2bf65a9a1?pvs=4">
          <g id="Specific_patterns" data-name="Specific patterns">
            <g id="B">
              <path d="M310.36669921875,257.662109375c-17.85595703125,0-32.382934570310681-14.52685546875-32.382934570310681-32.3828125s14.526977539060681-32.3828125,32.382934570310681-32.3828125,32.3828125,14.52685546875,32.3828125,32.3828125-14.52685546875,32.3828125-32.3828125,32.3828125Z" fill="url(#B3-3)" stroke-width="0"/>
              <path d="M310.36669921875,200.3966064453125c13.7421875,0,24.8828125,11.140472412109375,24.8828125,24.88287353515625s-11.140625,24.882858276367188-24.8828125,24.882858276367188c-13.74267578125,0-24.8828125-11.140457153320312-24.8828125-24.882858276367188s11.14013671875-24.88287353515625,24.8828125-24.88287353515625M310.36669921875,185.3966064453125c-21.9912109375,0-39.8828125,17.891387939453125-39.8828125,39.88287353515625,0,21.991500854492188,17.8916015625,39.882858276367188,39.8828125,39.882858276367188s39.8828125-17.891357421875,39.8828125-39.882858276367188c0-21.991485595703125-17.8916015625-39.88287353515625-39.8828125-39.88287353515625h0Z" fill="#181818" stroke-width="0"/>
            </g>
            <g id="C">
              <path d="M378.433471679689319,310.66943359375c-20.755615234378638,0-37.641479492189319-16.8857421875-37.641479492189319-37.6416015625s16.885864257810681-37.6416015625,37.641479492189319-37.6416015625c20.755615234371362,0,37.6416015625,16.8857421875,37.6416015625,37.6416015625s-16.885986328128638,37.6416015625-37.6416015625,37.6416015625Z" fill="url(#C3-3)" stroke-width="0"/>
              <path d="M378.43359375,242.886383056640625c16.646484375,0,30.1416015625,13.49481201171875,30.1416015625,30.14154052734375s-13.4951171875,30.14154052734375-30.1416015625,30.14154052734375c-16.64697265625,0-30.1416015625-13.49481201171875-30.1416015625-30.14154052734375s13.49462890625-30.14154052734375,30.1416015625-30.14154052734375M378.43359375,227.886383056640625c-24.89111328125,0-45.1416015625,20.250396728515625-45.1416015625,45.14154052734375,0,24.891143798827216,20.25048828125,45.14154052734375,45.1416015625,45.14154052734375s45.1416015625-20.250396728516534,45.1416015625-45.14154052734375c0-24.891143798828125-20.25048828125-45.14154052734375-45.1416015625-45.14154052734375h0Z" fill="#181818" stroke-width="0"/>
            </g>
            <g id="C-2" data-name="C">
              <path d="M361.216918945310681,232.779296875c-10.662841796871362,0-19.337768554691138-8.6748046875-19.337768554691138-19.33740234375,0-10.6630859375,8.674926757819776-19.337890625,19.337768554691138-19.337890625,10.662841796878638,0,19.337768554689319,8.6748046875,19.337768554689319,19.337890625,0,10.66259765625-8.674926757810681,19.33740234375-19.337768554689319,19.33740234375Z" fill="url(#C1-3)" stroke-width="0"/>
              <path d="M361.216796875,201.603912353515625c6.5380859375,0,11.837890625,5.299957275390625,11.837890625,11.837799072265625,0,6.53778076171875-5.2998046875,11.837738037109375-11.837890625,11.837738037109375-6.53759765625,0-11.837890625-5.299957275390625-11.837890625-11.837738037109375,0-6.537841796875,5.30029296875-11.837799072265625,11.837890625-11.837799072265625M361.216796875,186.603912353515625c-14.79833984375,0-26.837890625,12.03936767578125-26.837890625,26.837799072265625,0,14.798370361328125,12.03955078125,26.837738037109375,26.837890625,26.837738037109375s26.837890625-12.03936767578125,26.837890625-26.837738037109375c0-14.798431396484375-12.03955078125-26.837799072265625-26.837890625-26.837799072265625h0Z" fill="#181818" stroke-width="0"/>
            </g>
            <g id="C-3" data-name="C">
              <path d="M392.035888671869543,371.70751953125c-11.635864257808862,0-21.102416992180224-9.466796875-21.102416992180224-21.1025390625s9.466552734371362-21.1025390625,21.102416992180224-21.1025390625c11.635864257819776,0,21.102416992191138,9.466796875,21.102416992191138,21.1025390625s-9.466552734371362,21.1025390625-21.102416992191138,21.1025390625Z" fill="url(#C7-3)" stroke-width="0"/>
              <path d="M392.0361328125,337.00250244140625c7.51220703125,0,13.60205078125,6.089996337890625,13.60205078125,13.6024169921875s-6.08984375,13.6024169921875-13.60205078125,13.6024169921875c-7.5126953125,0-13.6025390625-6.089996337890625-13.6025390625-13.6024169921875s6.08984375-13.6024169921875,13.6025390625-13.6024169921875M392.0361328125,322.00250244140625c-15.771484375,0-28.6025390625,12.83099365234375-28.6025390625,28.6024169921875,0,15.771423339842841,12.8310546875,28.6024169921875,28.6025390625,28.6024169921875,15.77099609375,0,28.60205078125-12.830993652344659,28.60205078125-28.6024169921875,0-15.77142333984375-12.8310546875-28.6024169921875-28.60205078125-28.6024169921875h0Z" fill="#181818" stroke-width="0"/>
            </g>
            <g id="A">
              <path d="M277.785034179689319,316.48291015625c-16.031372070319776,0-30.132934570319776-10.25048828125-35.089965820319776-25.50732421875-6.287841796869543-19.3515625,4.340576171880457-40.2109375,23.692749023441138-46.4990234375,3.704711914058862-1.2041015625,7.54345703125-1.814453125,11.409545898439319-1.814453125,16.031372070310681,0,30.132934570310681,10.25048828125,35.089965820310681,25.50732421875,6.287841796878638,19.3515625-4.340576171871362,40.2109375-23.692749023441138,46.4990234375-3.704711914058862,1.2041015625-7.54345703125,1.814453125-11.409545898430224,1.814453125Z" fill="url(#A4-3)" stroke-width="0"/>
              <path d="M277.79736328125,250.162353515625c12.39404296875-.000381469726562,23.91943359375,7.898971557617188,27.95703125,20.324386596679688,5.01806640625,15.443634033203125-3.43359375,32.031036376953125-18.87744140625,37.0489501953125-3.01806640625.980682373046875-6.0810546875,1.446990966796875-9.091796875,1.446990966796875-12.39453125,0-23.919921875-7.898941040039062-27.95703125-20.324356079101562-5.01806640625-15.443634033203125,3.43359375-32.031036376953125,18.87744140625-37.048995971679688,3.01806640625-.980667114257812,6.0810546875-1.446884155273438,9.091796875-1.446975708007812M277.79833984375,235.162384033203125h-.00048828125c-4.6552734375.0001220703125-9.27392578125.733978271484375-13.7275390625,2.181121826171875-11.27978515625,3.664947509765625-20.45751953125,11.50323486328125-25.841796875,22.070816040039062-5.38427734375,10.567642211914062-6.33154296875,22.59954833984375-2.666015625,33.879364013671875,5.96337890625,18.355865478515625,22.931640625,30.689010620117188,42.22265625,30.689010620117188,4.654296875,0,9.2724609375-.73382568359375,13.72705078125-2.181137084960938,11.27978515625-3.665008544921875,20.45751953125-11.50323486328125,25.841796875-22.070816040039062,5.38427734375-10.567642211914062,6.33154296875-22.59954833984375,2.666015625-33.879364013671875-5.96435546875-18.356048583984375-22.93212890625-30.688995361328125-42.2216796875-30.688995361328125h0Z" fill="#181818" stroke-width="0"/>
            </g>
            <g id="A-2" data-name="A">
              <path d="M242.947143554689319,394.638671875c-11.192016601569776,0-21.036743164069776-7.15576171875-24.497314453128638-17.8056640625-4.3896484375-13.51025390625,3.0302734375-28.07275390625,16.540161132808862-32.46240234375,2.585205078130457-.83984375,5.2646484375-1.265625,7.964233398441138-1.265625,11.1923828125,0,21.037231445308862,7.15576171875,24.497680664058862,17.80615234375,4.389526367191138,13.509765625-3.0302734375,28.07177734375-16.540161132808862,32.46142578125-2.585083007810681.83984375-5.2646484375,1.26611328125-7.964599609371362,1.26611328125Z" fill="url(#A7-3)" stroke-width="0"/>
              <path d="M242.95458984375,350.60491943359375c7.6982421875-.000244140625,14.8564453125,4.90606689453125,17.3642578125,12.623565673828125,3.11669921875,9.592124938964844-2.1328125,19.894668579101562-11.724609375,23.011329650878906-1.87451171875.609107971191406-3.77685546875.898735046385809-5.64697265625.898735046385809-7.6982421875,0-14.8564453125-4.906074523924872-17.3642578125-12.623565673827216-3.11669921875-9.5921630859375,2.13232421875-19.894668579101562,11.724609375-23.011337280273438,1.87451171875-.609100341796875,3.77685546875-.898666381835938,5.64697265625-.898727416992188M242.955078125,335.604904174804688h-.00048828125c-3.48876953125.000167846679688-6.9482421875.549545288085938-10.2822265625,1.632919311523438-8.44970703125,2.745452880858466-15.32470703125,8.617156982421875-19.35791015625,16.533493041992188-4.03369140625,7.916168212890625-4.74267578125,16.929244995116278-1.9970703125,25.378959655761719,4.46728515625,13.75,17.1787109375,22.988288879394531,31.6298828125,22.988288879394531,3.48828125,0,6.94775390625-.549369812011719,10.2822265625-1.632911682128906,17.44287109375-5.667755126953125,27.02294921875-24.469589233398438,21.35498046875-41.912467956542969-4.46728515625-13.75-17.17822265625-22.98828125-31.62939453125-22.98828125h0Z" fill="#181818" stroke-width="0"/>
            </g>
            <g id="A-3" data-name="A">
              <path d="M217.165649414060681,272.98046875c-9.9365234375,0-18.6767578125-6.3525390625-21.748901367191138-15.80810546875-3.896850585930224-11.9931640625,2.690307617191138-24.92138671875,14.683837890630457-28.81884765625,2.294799804689319-.74560546875,4.673461914060681-1.12353515625,7.070556640619543-1.12353515625,9.9365234375,0,18.6767578125,6.3525390625,21.748901367191138,15.80810546875,3.89697265625,11.9931640625-2.690185546871362,24.92138671875-14.683837890621362,28.81884765625-2.294799804689319.74560546875-4.673461914069776,1.12353515625-7.070556640628638,1.12353515625Z" fill="url(#A1-3)" stroke-width="0"/>
              <path d="M217.17138671875,234.730072021484375c6.4794921875-.000213623046875,12.5048828125,4.129425048828125,14.61572265625,10.625244140625,2.62353515625,8.07366943359375-1.794921875,16.745254516601562-9.86865234375,19.36859130859375-1.578125.512680053710938-3.17919921875.756454467773438-4.7529296875.756454467773438-6.47998046875,0-12.50537109375-4.12945556640625-14.61572265625-10.625244140625-2.62353515625-8.073715209960938,1.794921875-16.745285034179688,9.86865234375-19.368576049804688,1.578125-.5126953125,3.17919921875-.75640869140625,4.7529296875-.7564697265625M217.171875,219.730072021484375h-.00048828125c-3.185546875.000091552734375-6.34423828125.5015869140625-9.38818359375,1.490570068359375-7.71533203125,2.50689697265625-13.99267578125,7.86822509765625-17.67578125,15.096435546875-3.68310546875,7.228317260742188-4.33056640625,15.458236694335938-1.8232421875,23.173660278320312,4.07861328125,12.554244995117188,15.68505859375,20.9896240234375,28.88134765625,20.9896240234375,3.18505859375,0,6.34375-.501495361328125,9.38818359375-1.490585327148438,7.71533203125-2.506912231445312,13.99267578125-7.8682861328125,17.67578125-15.096450805664062,3.68310546875-7.22833251953125,4.33056640625-15.458221435546875,1.8232421875-23.173660278320312-4.07958984375-12.55450439453125-15.685546875-20.989593505859375-28.880859375-20.989593505859375h0Z" fill="#181818" stroke-width="0"/>
            </g>
            <g id="_" data-name="+">
              <path d="M318.030395507810681,393.31103515625c-23.548095703121362,0-42.705932617191138-19.15771484375-42.705932617191138-42.7060546875s19.157836914069776-42.7060546875,42.705932617191138-42.7060546875c23.548095703128638,0,42.705810546878638,19.15771484375,42.705810546878638,42.7060546875s-19.15771484375,42.7060546875-42.705810546878638,42.7060546875Z" fill="url(#AC78)" stroke-width="0"/>
              <path d="M318.0302734375,316.399017333984375c18.8916015625,0,34.2060546875,15.314498901367188,34.2060546875,34.205902099609375s-15.314453125,34.205902099609375-34.2060546875,34.205902099609375c-18.89111328125,0-34.2060546875-15.314498901367188-34.2060546875-34.205902099609375s15.31494140625-34.205902099609375,34.2060546875-34.205902099609375M318.0302734375,299.399017333984375c-28.23486328125,0-51.2060546875,22.970855712890625-51.2060546875,51.205902099609375,0,28.235046386717841,22.97119140625,51.205902099609375,51.2060546875,51.205902099609375s51.2060546875-22.970855712891534,51.2060546875-51.205902099609375c0-28.23504638671875-22.97119140625-51.205902099609375-51.2060546875-51.205902099609375h0Z" fill="#181818" stroke-width="0"/>
            </g>
          </g>
        </a>
        <circle cx="228.29919369025265" cy="194.553191489361325" r="9.469173630104478" fill="#181818" stroke-width="0"/>
        <circle cx="378.433509707199846" cy="398.41911743956689" r="16.49686470117808" fill="#181818" stroke-width="0"/>
        <circle cx="201.793269489692648" cy="308.982685170379" r="14.863200974814049" fill="#181818" stroke-width="0"/>
        <circle cx="405.63833099771" cy="206.580536657620542" r="7.431600487409013" fill="#181818" stroke-width="0"/>
      </g>
    </g>
  </g>
</svg>