<?xml version="1.0" encoding="UTF-8"?>
<svg id="Layer_1" data-name="Layer 1" xmlns="http://www.w3.org/2000/svg" width="600" height="599.999999999998181" xmlns:xlink="http://www.w3.org/1999/xlink" viewBox="0 0 600 599.999999999998181">
  <defs>
    <linearGradient id="B1-3" data-name="B1" x1="257.71739074017205" y1="421.918890795821426" x2="339.206367074822879" y2="278.799596224903667" gradientUnits="userSpaceOnUse">
      <stop offset="0" stop-color="#52789c"/>
      <stop offset=".5" stop-color="#2d7f98"/>
      <stop offset="1" stop-color="#008693"/>
    </linearGradient>
  </defs>
  <g id="pie_with_links_-5" data-name="pie (with links)">
    <g id="pie_with_links_-6" data-name="pie (with links)">
      <a xlink:href="https://www.notion.so/dmmnotes/B1-2eabab7e9c77429f8e577f4e3e203653?pvs=4#2ad70543dd8a4e99a4d56f18bb81192e">
        <g id="B1">
          <a xlink:href="https://www.notion.so/dmmnotes/B1-2eabab7e9c77429f8e577f4e3e203653?pvs=4#2ad70543dd8a4e99a4d56f18bb81192e">
            <g id="B1-2" data-name="B1">
              <path d="M300.00048828125,414.706054687490905c-17.90966796875,0-34.7470703125-6.974609375-47.41064453125-19.6376953125-12.6640625-12.6640625-19.63818359375-29.5009765625-19.63818359375-47.4111328125,0-17.9091796875,6.97412109375-34.7470703125,19.63818359375-47.41064453125,12.66357421875-12.66357421875,29.5009765625-19.6376953125,47.41064453125-19.6376953125,17.9091796875,0,34.74658203125,6.97412109375,47.41015625,19.6376953125,12.6640625,12.66357421875,19.63818359375,29.50146484375,19.63818359375,47.41064453125,0,17.91015625-6.97412109375,34.7470703125-19.63818359375,47.4111328125-12.66357421875,12.6630859375-29.5009765625,19.6376953125-47.41015625,19.6376953125Z" style="fill: url(#B1-3); stroke-width: 0px;"/>
              <path d="M300.000122070310681,289.108764648430224c14.98388671875,0,29.9677734375,5.716156005859375,41.400146484378638,17.148468017579944,22.86474609375,22.864715576170056,22.86474609375,59.935699462891534,0,82.800415039058862-11.432373046878638,11.432342529300513-26.416259765628638,17.148529052741651-41.400146484378638,17.148529052741651s-29.9677734375-5.716186523441138-41.400146484371362-17.148529052741651c-22.86474609375-22.864715576167328-22.86474609375-59.935699462888806,0-82.800415039058862,11.432373046871362-11.432312011720569,26.416259765621362-17.148468017579944,41.400146484371362-17.148468017579944M300.000122070310681,272.108764648430224c-20.179809570310681,0-39.151733398441138,7.8583984375-53.4208984375,22.127716064458582-14.269287109371362,14.269226074211474-22.127807617191138,33.241180419921875-22.127807617191138,53.420928955070849,0,20.179840087890625,7.858520507819776,39.151763916019263,22.127807617191138,53.421081542970569,14.269165039058862,14.269226074221478,33.241088867189319,22.127685546880457,53.4208984375,22.127685546880457,20.179809570308862,0,39.151733398439319-7.858459472658978,53.4208984375-22.12774658203125,14.269287109378638-14.269256591800513,22.127807617189319-33.241180419929151,22.127807617189319-53.421020507819776,0-20.179748535148974-7.858520507810681-39.151702880859375-22.127807617189319-53.420989990230737-14.269165039060681-14.269256591798694-33.241088867191138-22.127655029298694-53.4208984375-22.127655029298694h0Z" style="fill: #181818; stroke-width: 0px;"/>
            </g>
          </a>
          <a xlink:href="https://www.notion.so/dmmnotes/B1-2eabab7e9c77429f8e577f4e3e203653?pvs=4#2ad70543dd8a4e99a4d56f18bb81192e">
            <g>
              <g>
                <path d="M299.451171875,266.796874999987267c4.60546875,3.5595703125,8.0322265625,7.982421875,10.2841796875,13.2666015625,2.2490234375,5.287109375,2.9560546875,10.7548828125,2.119140625,16.40625-.9423828125,6.3857421875-3.4541015625,11.7509765625-7.5361328125,16.0927734375-4.08203125,4.3447265625-8.896484375,7.771484375-14.443359375,10.283203125-5.548828125,2.5126953125-11.5400390625,4.1875-17.9765625,5.0244140625-6.4375.8369140625-12.482421875.9423828125-18.1337890625.314453125-.5244140625.2080078125-.99609375.337890625-1.4130859375.392578125-.419921875.05078125-.890625.1298828125-1.4130859375.2353515625-1.8837890625.1025390625-3.8212890625.1025390625-5.80859375,0-1.9892578125-.10546875-3.7958984375-.447265625-5.4169921875-1.0205078125-1.623046875-.57421875-3.009765625-1.5166015625-4.16015625-2.826171875-1.15234375-1.3076171875-1.83203125-3.1650390625-2.041015625-5.5732421875-.2109375-1.1513671875-.2626953125-3.478515625-.1572265625-6.9873046875.1025390625-3.5048828125.2080078125-7.771484375.3134765625-12.794921875.208984375-5.126953125.392578125-10.701171875.55078125-16.720703125.15625-6.017578125.287109375-12.0615234375.392578125-18.1337890625.1025390625-7.953125.2080078125-15.9599609375.3134765625-24.0205078125.1025390625-8.05859375-.2109375-16.1708984375-.9423828125-24.3349609375-.2109375-.9423828125-.10546875-1.7783203125.314453125-2.51171875.208984375-.62890625.6796875-1.2294921875,1.412109375-1.8056640625.732421875-.57421875,1.830078125-.966796875,3.2978515625-1.177734375,1.044921875-.103515625,2.1982421875-.259765625,3.4541015625-.470703125,1.255859375-.208984375,2.5634765625-.3662109375,3.9248046875-.4716796875,1.3583984375-.1025390625,2.6689453125-.1025390625,3.9248046875,0,1.255859375.10546875,2.35546875.314453125,3.296875.6279296875,5.337890625-.73046875,10.9365234375-.7578125,16.798828125-.078125,5.861328125.681640625,11.3828125,2.068359375,16.564453125,4.16015625,5.1806640625,2.095703125,9.6796875,4.89453125,13.501953125,8.3994140625,3.818359375,3.5087890625,6.357421875,7.771484375,7.6142578125,12.7958984375.5224609375,2.1982421875.8369140625,4.501953125.9423828125,6.908203125.1025390625,2.4091796875-.158203125,4.8935546875-.78515625,7.45703125-.62890625,2.56640625-1.6484375,5.2353515625-3.0625,8.0068359375-1.412109375,2.775390625-3.3232421875,5.6279296875-5.73046875,8.556640625ZM258.6318359375,257.534179687487267c5.0244140625.2109375,9.2626953125-.314453125,12.716796875-1.5703125s6.0439453125-2.904296875,7.771484375-4.9453125,2.5634765625-4.263671875,2.5126953125-6.6728515625c-.0546875-2.40625-.9697265625-4.552734375-2.748046875-6.4365234375-1.78125-1.8837890625-4.4501953125-3.3212890625-8.0068359375-4.3173828125-3.5595703125-.9931640625-8.0615234375-1.1240234375-13.5029296875-.392578125.314453125,4.08203125.55078125,8.1123046875.70703125,12.0888671875.1572265625,3.9794921875.3388671875,8.0615234375.5498046875,12.24609375ZM259.1025390625,303.064453124987267c5.65234375.6279296875,10.4130859375.3681640625,14.287109375-.78515625,3.87109375-1.150390625,6.775390625-2.720703125,8.7138671875-4.7099609375,1.935546875-1.9873046875,2.9287109375-4.1337890625,2.982421875-6.4375.0517578125-2.30078125-.86328125-4.2900390625-2.7470703125-5.9658203125-1.8837890625-1.6728515625-4.7646484375-2.798828125-8.6357421875-3.375-3.873046875-.57421875-8.740234375-.181640625-14.6005859375,1.1767578125v20.0966796875Z" style="fill: none; stroke: #181818; stroke-linecap: round; stroke-linejoin: round; stroke-width: 33px;"/>
                <path d="M366.6474609375,224.877929687487267c-2.51171875,31.8193359375-3.6103515625,63.7958984375-3.296875,95.927734375-.10546875,1.15234375-.4189453125,2.197265625-.9423828125,3.1396484375-.5244140625.8388671875-1.3095703125,1.6484375-2.3544921875,2.43359375-1.0478515625.78515625-2.4599609375,1.2802734375-4.2392578125,1.4912109375-1.8837890625.208984375-3.794921875.3388671875-5.73046875.392578125-1.9375.0517578125-3.7431640625-.1328125-5.416015625-.5498046875-1.67578125-.4189453125-3.115234375-1.150390625-4.318359375-2.197265625-1.2041015625-1.0458984375-1.9619140625-2.669921875-2.275390625-4.8671875-.2109375-1.150390625-.341796875-3.400390625-.392578125-6.7509765625-.0546875-3.3486328125.0234375-7.37890625.234375-12.0888671875.208984375-4.8134765625.4716796875-10.0732421875.78515625-15.779296875.314453125-5.703125.62890625-11.43359375.9423828125-17.19140625.1025390625-.2080078125.1572265625-.5224609375.1572265625-.94140625-.6279296875-.103515625-1.388671875-.314453125-2.27734375-.6279296875-.8896484375-.314453125-2.0673828125-.9423828125-3.53125-1.884765625-1.5703125-1.044921875-3.16796875-2.119140625-4.7890625-3.2177734375-1.6240234375-1.099609375-3.087890625-2.22265625-4.396484375-3.3759765625-1.3095703125-1.150390625-2.330078125-2.2490234375-3.060546875-3.296875-.734375-1.044921875-.9423828125-2.041015625-.62890625-2.9833984375.314453125-.94140625,1.7275390625-3.0341796875,4.2392578125-6.279296875,1.1513671875-1.46484375,2.4072265625-3.140625,3.7685546875-5.0244140625,1.359375-1.8837890625,2.771484375-3.8193359375,4.23828125-5.80859375,1.46484375-1.8837890625,2.798828125-3.7138671875,4.00390625-5.4951171875,1.2021484375-1.7783203125,2.328125-3.400390625,3.375-4.8671875,1.150390625-1.6728515625,2.25-3.296875,3.296875-4.8671875.41796875-.8359375,1.806640625-1.333984375,4.1611328125-1.4912109375s4.8671875,0,7.5361328125.470703125c2.6689453125.4716796875,5.1025390625,1.205078125,7.30078125,2.1982421875,2.197265625.99609375,3.3994140625,2.173828125,3.6103515625,3.5322265625Z" style="fill: none; stroke: #181818; stroke-linecap: round; stroke-linejoin: round; stroke-width: 33px;"/>
              </g>
              <g>
                <path d="M299.451171875,266.796874999987267c4.60546875,3.5595703125,8.0322265625,7.982421875,10.2841796875,13.2666015625,2.2490234375,5.287109375,2.9560546875,10.7548828125,2.119140625,16.40625-.9423828125,6.3857421875-3.4541015625,11.7509765625-7.5361328125,16.0927734375-4.08203125,4.3447265625-8.896484375,7.771484375-14.443359375,10.283203125-5.548828125,2.5126953125-11.5400390625,4.1875-17.9765625,5.0244140625-6.4375.8369140625-12.482421875.9423828125-18.1337890625.314453125-.5244140625.2080078125-.99609375.337890625-1.4130859375.392578125-.419921875.05078125-.890625.1298828125-1.4130859375.2353515625-1.8837890625.1025390625-3.8212890625.1025390625-5.80859375,0-1.9892578125-.10546875-3.7958984375-.447265625-5.4169921875-1.0205078125-1.623046875-.57421875-3.009765625-1.5166015625-4.16015625-2.826171875-1.15234375-1.3076171875-1.83203125-3.1650390625-2.041015625-5.5732421875-.2109375-1.1513671875-.2626953125-3.478515625-.1572265625-6.9873046875.1025390625-3.5048828125.2080078125-7.771484375.3134765625-12.794921875.208984375-5.126953125.392578125-10.701171875.55078125-16.720703125.15625-6.017578125.287109375-12.0615234375.392578125-18.1337890625.1025390625-7.953125.2080078125-15.9599609375.3134765625-24.0205078125.1025390625-8.05859375-.2109375-16.1708984375-.9423828125-24.3349609375-.2109375-.9423828125-.10546875-1.7783203125.314453125-2.51171875.208984375-.62890625.6796875-1.2294921875,1.412109375-1.8056640625.732421875-.57421875,1.830078125-.966796875,3.2978515625-1.177734375,1.044921875-.103515625,2.1982421875-.259765625,3.4541015625-.470703125,1.255859375-.208984375,2.5634765625-.3662109375,3.9248046875-.4716796875,1.3583984375-.1025390625,2.6689453125-.1025390625,3.9248046875,0,1.255859375.10546875,2.35546875.314453125,3.296875.6279296875,5.337890625-.73046875,10.9365234375-.7578125,16.798828125-.078125,5.861328125.681640625,11.3828125,2.068359375,16.564453125,4.16015625,5.1806640625,2.095703125,9.6796875,4.89453125,13.501953125,8.3994140625,3.818359375,3.5087890625,6.357421875,7.771484375,7.6142578125,12.7958984375.5224609375,2.1982421875.8369140625,4.501953125.9423828125,6.908203125.1025390625,2.4091796875-.158203125,4.8935546875-.78515625,7.45703125-.62890625,2.56640625-1.6484375,5.2353515625-3.0625,8.0068359375-1.412109375,2.775390625-3.3232421875,5.6279296875-5.73046875,8.556640625ZM258.6318359375,257.534179687487267c5.0244140625.2109375,9.2626953125-.314453125,12.716796875-1.5703125s6.0439453125-2.904296875,7.771484375-4.9453125,2.5634765625-4.263671875,2.5126953125-6.6728515625c-.0546875-2.40625-.9697265625-4.552734375-2.748046875-6.4365234375-1.78125-1.8837890625-4.4501953125-3.3212890625-8.0068359375-4.3173828125-3.5595703125-.9931640625-8.0615234375-1.1240234375-13.5029296875-.392578125.314453125,4.08203125.55078125,8.1123046875.70703125,12.0888671875.1572265625,3.9794921875.3388671875,8.0615234375.5498046875,12.24609375ZM259.1025390625,303.064453124987267c5.65234375.6279296875,10.4130859375.3681640625,14.287109375-.78515625,3.87109375-1.150390625,6.775390625-2.720703125,8.7138671875-4.7099609375,1.935546875-1.9873046875,2.9287109375-4.1337890625,2.982421875-6.4375.0517578125-2.30078125-.86328125-4.2900390625-2.7470703125-5.9658203125-1.8837890625-1.6728515625-4.7646484375-2.798828125-8.6357421875-3.375-3.873046875-.57421875-8.740234375-.181640625-14.6005859375,1.1767578125v20.0966796875Z" style="fill: #e2dddb; stroke-width: 0px;"/>
                <path d="M366.6474609375,224.877929687487267c-2.51171875,31.8193359375-3.6103515625,63.7958984375-3.296875,95.927734375-.10546875,1.15234375-.4189453125,2.197265625-.9423828125,3.1396484375-.5244140625.8388671875-1.3095703125,1.6484375-2.3544921875,2.43359375-1.0478515625.78515625-2.4599609375,1.2802734375-4.2392578125,1.4912109375-1.8837890625.208984375-3.794921875.3388671875-5.73046875.392578125-1.9375.0517578125-3.7431640625-.1328125-5.416015625-.5498046875-1.67578125-.4189453125-3.115234375-1.150390625-4.318359375-2.197265625-1.2041015625-1.0458984375-1.9619140625-2.669921875-2.275390625-4.8671875-.2109375-1.150390625-.341796875-3.400390625-.392578125-6.7509765625-.0546875-3.3486328125.0234375-7.37890625.234375-12.0888671875.208984375-4.8134765625.4716796875-10.0732421875.78515625-15.779296875.314453125-5.703125.62890625-11.43359375.9423828125-17.19140625.1025390625-.2080078125.1572265625-.5224609375.1572265625-.94140625-.6279296875-.103515625-1.388671875-.314453125-2.27734375-.6279296875-.8896484375-.314453125-2.0673828125-.9423828125-3.53125-1.884765625-1.5703125-1.044921875-3.16796875-2.119140625-4.7890625-3.2177734375-1.6240234375-1.099609375-3.087890625-2.22265625-4.396484375-3.3759765625-1.3095703125-1.150390625-2.330078125-2.2490234375-3.060546875-3.296875-.734375-1.044921875-.9423828125-2.041015625-.62890625-2.9833984375.314453125-.94140625,1.7275390625-3.0341796875,4.2392578125-6.279296875,1.1513671875-1.46484375,2.4072265625-3.140625,3.7685546875-5.0244140625,1.359375-1.8837890625,2.771484375-3.8193359375,4.23828125-5.80859375,1.46484375-1.8837890625,2.798828125-3.7138671875,4.00390625-5.4951171875,1.2021484375-1.7783203125,2.328125-3.400390625,3.375-4.8671875,1.150390625-1.6728515625,2.25-3.296875,3.296875-4.8671875.41796875-.8359375,1.806640625-1.333984375,4.1611328125-1.4912109375s4.8671875,0,7.5361328125.470703125c2.6689453125.4716796875,5.1025390625,1.205078125,7.30078125,2.1982421875,2.197265625.99609375,3.3994140625,2.173828125,3.6103515625,3.5322265625Z" style="fill: #e2dddb; stroke-width: 0px;"/>
              </g>
            </g>
          </a>
        </g>
      </a>
      <g id="Pie">
        <g>
          <a xlink:href="https://www.notion.so/dmmnotes/paranoid-ae38b1e6af0c4dd08f61e0d8f6e9f05f?pvs=4">
            <path id="C8" d="M331.308105468760914,517.749511718749091l7.825683593739086,54.4306640625c26.439208984369543-3.767822265628638,51.645751953139552-11.3115234375,75.101318359369543-22.04296875l-22.832519531239086-49.996826171878638c-18.7666015625,8.572265625-38.93505859375,14.601318359378638-60.094482421869543,17.609130859378638Z" style="fill: none; stroke: #181818; stroke-linecap: round; stroke-linejoin: round; stroke-width: 15px;"/>
          </a>
          <a xlink:href="https://www.notion.so/dmmnotes/menacing-a5bd7149286344deba45ec15e759e579?pvs=4">
            <path id="C7" d="M391.402587890630457,500.140380859370453l22.832519531239086,49.996826171878638c23.989990234391371-10.975830078119543,46.116210937520009-25.287109375010914,65.803955078141371-42.36181640625l-35.972900390630457-41.515869140619543c-15.753417968760914,13.65869140625-33.459228515630457,25.104492187490905-52.66357421875,33.880859374990905Z" style="fill: none; stroke: #181818; stroke-linecap: round; stroke-linejoin: round; stroke-width: 15px;"/>
          </a>
          <a xlink:href="https://www.notion.so/dmmnotes/seductively-obsessed-with-rescue-6fb5a68f6d334bc29ccccc16d8a4e56e?pvs=4">
            <path id="C6" d="M444.066162109380457,466.259521484379547l35.972900390630457,41.515869140619543c19.762939453119543-17.141845703128638,37.047119140619543-37.041748046878638,51.26708984375-59.125l-46.223632812510914-29.704833984369543c-11.373291015619543,17.673583984369543-25.201171874989086,33.598876953119543-41.016357421869543,47.31396484375Z" style="fill: none; stroke: #181818; stroke-linecap: round; stroke-linejoin: round; stroke-width: 15px;"/>
          </a>
          <a xlink:href="https://www.notion.so/dmmnotes/punitively-obsessed-with-revenge-33d2e77f37774316b42bccf4a60f9688?pvs=4">
            <path id="C5" d="M485.08251953125,418.945556640629547l46.223632812510914,29.704833984369543c14.048095703128638-21.809326171880457,25.08837890625-45.71875,32.551513671869543-71.175048828130457l-52.7548828125-15.490234375c-5.9619140625,20.377929687510914-14.789306640619543,39.509765625-26.020263671880457,56.960449218760914Z" style="fill: none; stroke: #181818; stroke-linecap: round; stroke-linejoin: round; stroke-width: 15px;"/>
          </a>
          <a xlink:href="https://www.notion.so/dmmnotes/feigned-helpless-e79a94b0498c4e109a681b7f3dcdb088?pvs=4">
            <path id="C4" d="M520,299.999999999999091c0,21.5380859375-3.142089843739086,42.321533203119543-8.897216796869543,61.985107421869543l52.7548828125,15.490234375c7.2080078125-24.583496093739086,11.142333984369543-50.5634765625,11.142333984369543-77.475341796869543h-55Z" style="fill: none; stroke: #181818; stroke-linecap: round; stroke-linejoin: round; stroke-width: 15px;"/>
          </a>
          <a xlink:href="https://www.notion.so/dmmnotes/aggressive-2d8ccce383534b9dbfc7b4b10b8a5d5c?pvs=4">
            <path id="C3" d="M520,299.999999999999091h55c0-26.911865234389552-3.934326171869543-52.894531250010914-11.142333984369543-77.475341796889552l-52.7548828125,15.490234375c5.755126953130457,19.663574218759095,8.897216796869543,40.449707031259095,8.897216796869543,61.985107421889552Z" style="fill: none; stroke: #181818; stroke-linecap: round; stroke-linejoin: round; stroke-width: 15px;"/>
          </a>
          <a xlink:href="https://www.notion.so/dmmnotes/disarming-086276e599884c86b9359acf831a8b20?pvs=4">
            <path id="C2" d="M511.102783203130457,238.014892578109539l52.7548828125-15.490234375c-7.463134765619543-25.456298828121362-18.503417968740905-49.365722656240905-32.551513671869543-71.177734374990905l-46.223632812510914,29.70751953125c11.230957031260914,17.45068359375,20.055664062510914,36.585205078119543,26.020263671880457,56.960449218740905Z" style="fill: none; stroke: #181818; stroke-linecap: round; stroke-linejoin: round; stroke-width: 15px;"/>
          </a>
          <a xlink:href="https://www.notion.so/dmmnotes/threatening-348fe6a52f7a4fe69f768e98c6586932?pvs=4">
            <path id="C1" d="M485.08251953125,181.054443359368634l46.223632812510914-29.70751953125c-3.273382764720736-5.082861773660625-6.709138808490025-10.050169557309346-10.300126729000112-14.894880224830558-18.7746979552212-25.329514182889397-56.293794455550596-26.537787805429616-76.939827532480194-2.708921059358545l-.00003597290015.000041518558646c15.815185546880457,13.71240234375,29.64306640625,29.637695312510914,41.016357421869543,47.311279296880457Z" style="fill: none; stroke: #181818; stroke-linecap: round; stroke-linejoin: round; stroke-width: 15px;"/>
          </a>
          <a xlink:href="https://www.notion.so/dmmnotes/complaining-acceptance-8b40401a720c493ba73f7cde1567cf3d?pvs=4">
            <path id="B5" d="M444.066162109380457,133.743164062488177l.00003597290015-.000041518558646c20.654922513649581-23.839126791601302,14.125719583838872-60.826671837301546-13.629725214659629-75.812167347630748-5.297847529700448-2.860371035199933-10.700612091030052-5.552089440430791-16.201365445751435-8.068162227549692l-22.832519531239086,49.99951171875c19.204345703119543,8.773681640619543,36.910156249989086,20.22216796875,52.66357421875,33.880859374989086Z" style="fill: none; stroke: #181818; stroke-linecap: round; stroke-linejoin: round; stroke-width: 15px;"/>
          </a>
          <a xlink:href="https://www.notion.so/dmmnotes/sentimental-bc554363322342b1b7ca4ccc02125049?pvs=4">
            <path id="B4" d="M391.402587890630457,99.862304687499091l22.832519531239086-49.99951171875c-23.455566406229991-10.7314453125-48.662109375-18.275146484389552-75.101318359369543-22.042968749990905l-7.825683593739086,54.433349609360448c21.159423828119543,3.0078125,41.327880859369543,9.034179687490905,60.094482421869543,17.609130859380457Z" style="fill: none; stroke: #181818; stroke-linecap: round; stroke-linejoin: round; stroke-width: 15px;"/>
          </a>
          <a xlink:href="https://www.notion.so/dmmnotes/comfortably-balanced-e76dc615a8b947aa915377cd02fcf716?pvs=4">
            <path id="B3" d="M300,79.999999999999091c10.634765625,0,21.078857421869543.797607421869543,31.308105468760914,2.253173828119543l7.825683593739086-54.433349609360448c-12.788574218739086-1.823486328139552-25.843017578130457-2.819824218759095-39.1337890625-2.819824218759095s-26.34521484375.996337890619543-39.133789062489086,2.819824218759095l7.825683593739086,54.433349609360448c10.23193359375-1.45556640625,20.67333984375-2.253173828119543,31.30810546875-2.253173828119543Z" style="fill: none; stroke: #181818; stroke-linecap: round; stroke-linejoin: round; stroke-width: 15px;"/>
          </a>
          <a xlink:href="https://www.notion.so/dmmnotes/accepting-317d81273fff4cd9817cdf4a88efd378?pvs=4">
            <path id="B2" d="M268.69189453125,82.253173828118634l-7.825683593739086-54.433349609360448c-26.439208984391371,3.767822265601353-51.643066406260914,11.311523437490905-75.098632812510914,22.042968749990905l22.83251953125,49.99951171875c18.7666015625-8.574951171889552,38.93505859375-14.601318359380457,60.091796875-17.609130859380457Z" style="fill: none; stroke: #181818; stroke-linecap: round; stroke-linejoin: round; stroke-width: 15px;"/>
          </a>
          <a xlink:href="https://www.notion.so/dmmnotes/idealising-a52277f51ed14a42aae78081bb34b8be?pvs=4">
            <path id="A1" d="M155.9365234375,133.740478515618634l-.00003597290015-.00004151587018c-20.647012023619027-23.828455119089995-58.166100839880528-22.619561246779995-76.941289455078731,2.709999997550767-3.591451962291103,4.845219097369409-7.02760574713102,9.813063194989809-10.301350353271118,14.896486830819413l46.226318359369543,29.70751953125c11.373291015641371-17.673583984369543,25.201171875010914-33.598876953130457,41.016357421880457-47.31396484375Z" style="fill: none; stroke: #181818; stroke-linecap: round; stroke-linejoin: round; stroke-width: 15px;"/>
          </a>
          <a xlink:href="https://www.notion.so/dmmnotes/distancing-9ac690cdca654729a17a5a255944e2d1?pvs=4">
            <path id="A2" d="M114.920166015619543,181.054443359368634l-46.226318359369543-29.70751953125c-14.04541015625,21.81201171875-25.08837890625,45.721435546869543-32.551513671880457,71.177734374990905l52.754882812510914,15.490234375c5.964599609369543-20.375244140621362,14.7919921875-39.509765624990905,26.022949218739086-56.960449218740905Z" style="fill: none; stroke: #181818; stroke-linecap: round; stroke-linejoin: round; stroke-width: 15px;"/>
          </a>
          <a xlink:href="https://www.notion.so/dmmnotes/compulsive-caregiving-9c380c0928294f41ae10764aa0dee886?pvs=4">
            <path id="A3" d="M88.897216796880457,238.014892578109539l-52.754882812510914-15.490234375c-7.205322265619543,24.580810546878638-11.142333984369543,50.5634765625-11.142333984369543,77.475341796889552h55c0-21.535400390630457,3.14208984375-42.321533203130457,8.897216796880457-61.985107421889552Z" style="fill: none; stroke: #181818; stroke-linecap: round; stroke-linejoin: round; stroke-width: 15px;"/>
          </a>
          <a xlink:href="https://www.notion.so/dmmnotes/compulsive-compliance-6d08b7ea9a424ce1a72b9184b7850414?pvs=4">
            <path id="A4" d="M80,299.999999999999091H25c0,26.911865234369543,3.93701171875,52.894531249989086,11.142333984369543,77.475341796869543l52.754882812510914-15.490234375c-5.755126953130457-19.66357421875-8.897216796880457-40.447021484369543-8.897216796880457-61.985107421869543Z" style="fill: none; stroke: #181818; stroke-linecap: round; stroke-linejoin: round; stroke-width: 15px;"/>
          </a>
          <a xlink:href="https://www.notion.so/dmmnotes/sexual-supplementation-8e85f49046ef412aa229745abf7d38d3?pvs=4">
            <path id="A5" d="M88.897216796880457,361.985107421868634l-52.754882812510914,15.490234375c7.463134765630457,25.456298828130457,18.506103515630457,49.36572265625,32.551513671880457,71.175048828130457l46.223632812510914-29.704833984369543c-11.230957031260914-17.450683593760914-20.055664062510914-36.58251953125-26.020263671880457-56.960449218760914Z" style="fill: none; stroke: #181818; stroke-linecap: round; stroke-linejoin: round; stroke-width: 15px;"/>
          </a>
          <a xlink:href="https://www.notion.so/dmmnotes/compulsive-isolated-self-reliance-b321873a73fa41aaaadd7192fde856a2?pvs=4">
            <path id="A6" d="M114.917480468760914,418.945556640629547l-46.223632812510914,29.704833984369543c14.219970703119543,22.083251953121362,31.504150390630457,41.983154296871362,51.269775390630457,59.125l35.972900390619543-41.515869140619543c-15.815185546869543-13.712402343759095-29.643066406239086-29.637695312509095-41.019042968739086-47.31396484375Z" style="fill: none; stroke: #181818; stroke-linecap: round; stroke-linejoin: round; stroke-width: 15px;"/>
          </a>
          <a xlink:href="https://www.notion.so/dmmnotes/delusional-idealization-743e2420b9994a48a7cab68190432e8a?pvs=4">
            <path id="A7" d="M155.9365234375,466.259521484379547l-35.972900390619543,41.515869140619543c19.687744140619543,17.074707031239086,41.811279296869543,31.385986328130457,65.803955078119543,42.36181640625l22.83251953125-49.996826171878638c-19.20166015625-8.773681640621362-36.91015625-20.222167968740905-52.66357421875-33.880859374990905Z" style="fill: none; stroke: #181818; stroke-linecap: round; stroke-linejoin: round; stroke-width: 15px;"/>
          </a>
          <a xlink:href="https://www.notion.so/dmmnotes/externally-assembled-self-994ecb0895b844409b931d74a045c162?pvs=4">
            <path id="A8" d="M208.60009765625,500.140380859370453l-22.83251953125,49.996826171878638c23.45556640625,10.7314453125,48.659423828119543,18.275146484371362,75.098632812510914,22.04296875l7.825683593739086-54.4306640625c-21.15673828125-3.0078125-41.3251953125-9.0341796875-60.091796875-17.609130859378638Z" style="fill: none; stroke: #181818; stroke-linecap: round; stroke-linejoin: round; stroke-width: 15px;"/>
          </a>
          <a xlink:href="https://www.notion.so/dmmnotes/psychopathy-0fe4a3222d9f4fd097ab4546c9776768?pvs=4">
            <path id="AC" d="M300,519.999999999999091c-10.634765625,0-21.076171875-.794921875-31.30810546875-2.25048828125l-7.825683593739086,54.4306640625c12.788574218739086,1.823486328130457,25.843017578119543,2.81982421875,39.133789062489086,2.81982421875s26.345214843760914-.996337890619543,39.1337890625-2.81982421875l-7.825683593739086-54.4306640625c-10.229248046891371,1.45556640625-20.673339843760914,2.25048828125-31.308105468760914,2.25048828125Z" style="fill: none; stroke: #181818; stroke-linecap: round; stroke-linejoin: round; stroke-width: 15px;"/>
          </a>
          <a xlink:href="https://www.notion.so/dmmnotes/distanced-from-past-2eabab7e9c77429f8e577f4e3e203653?pvs=4">
            <g id="B1-4" data-name="B1">
              <path d="M155.865234375,134.738281249987267c-.2646484375-.01904296875-.5107421875-.14208984375-.6845703125-.3427734375-10.1064453125-11.6640625-14.3095703125-27.06689453125-11.53125-42.25830078125,2.7529296875-15.05517578125,12.025390625-27.84326171875,25.4404296875-35.0859375,5.3154296875-2.86962890625,10.7861328125-5.59375,16.26171875-8.09765625.1318359375-.060546875.2734375-.0908203125.416015625-.0908203125.1181640625,0,.236328125.02099609375.349609375.06298828125.248046875.0927734375.4501953125.2802734375.5595703125.521484375l22.83203125,49.99951171875c.2294921875.50244140625.0087890625,1.095703125-.4931640625,1.3251953125-18.98046875,8.6728515625-36.6181640625,20.01904296875-52.423828125,33.72412109375-.1826171875.158203125-.4150390625.24462890625-.6552734375.24462890625-.0234375,0-.0478515625-.0009765625-.0712890625-.00244140625Z" style="fill: none; stroke: #181818; stroke-linecap: round; stroke-linejoin: round; stroke-width: 15px;"/>
              <path d="M185.767578125,49.862792968737267l22.83251953125,49.999519348144531c-19.20166015625,8.773674011230469-36.91015625,20.219474792480469-52.66357421875,33.878162384033203v-.000038146972656c-20.6551513671875-23.837764739990234-14.12646484375-60.824550628662109,13.6282958984375-75.809314727783203,5.298095703125-2.860427856445312,10.7012939453125-5.552200317382812,16.2027587890625-8.068328857421875M185.767578125,47.862792968737267c-.284423828125,0-.5682373046875.060638427734375-.831787109375.181198120117188-5.50244140625,2.516555786132812-10.99365234375,5.250946044921875-16.3211669921875,8.127243041992188-13.6829833984375,7.387428283691406-23.1409912109375,20.430923461914062-25.9490966796875,35.786026000976562-2.8330078125,15.491737365722656,1.453125,31.198486328125,11.759521484375,43.092887878417969.347412109375.400951385498047.83984375.647438049316406,1.369140625.685211181640625.0474853515625.003395080566406.0950927734375.005081176757812.1424560546875.005081176757812.479736328125,0,.9451904296875-.172565460205078,1.31005859375-.4888916015625,15.736328125-13.643890380859375,33.2938232421875-24.938514709472656,52.1845703125-33.570137023925781,1.0045166015625-.458976745605469,1.4468994140625-1.645278930664062.9881591796875-2.649887084960938l-22.83251953125-49.99951171875c-.220458984375-.482696533203125-.6236572265625-.857986450195312-1.120849609375-1.043304443359375-.2255859375-.084060668945312-.4622802734375-.12591552734375-.698486328125-.12591552734375h0Z" style="fill: none; stroke: #181818; stroke-linecap: round; stroke-linejoin: round; stroke-width: 15px;"/>
            </g>
          </a>
        </g>
        <g>
          <a xlink:href="https://www.notion.so/dmmnotes/paranoid-ae38b1e6af0c4dd08f61e0d8f6e9f05f?pvs=4">
            <path id="C8-2" data-name="C8" d="M331.308105468760914,517.749511718749091l7.825683593739086,54.4306640625c26.439208984369543-3.767822265628638,51.645751953139552-11.3115234375,75.101318359369543-22.04296875l-22.832519531239086-49.996826171878638c-18.7666015625,8.572265625-38.93505859375,14.601318359378638-60.094482421869543,17.609130859378638Z" style="fill: #938480; stroke: #181818; stroke-width: 2px;"/>
          </a>
          <a xlink:href="https://www.notion.so/dmmnotes/menacing-a5bd7149286344deba45ec15e759e579?pvs=4">
            <path id="C7-2" data-name="C7" d="M391.402587890630457,500.140380859370453l22.832519531239086,49.996826171878638c23.989990234391371-10.975830078119543,46.116210937520009-25.287109375010914,65.803955078141371-42.36181640625l-35.972900390630457-41.515869140619543c-15.753417968760914,13.65869140625-33.459228515630457,25.104492187490905-52.66357421875,33.880859374990905Z" style="fill: #958682; stroke: #181818; stroke-width: 2px;"/>
          </a>
          <a xlink:href="https://www.notion.so/dmmnotes/seductively-obsessed-with-rescue-6fb5a68f6d334bc29ccccc16d8a4e56e?pvs=4">
            <path id="C6-2" data-name="C6" d="M444.066162109380457,466.259521484379547l35.972900390630457,41.515869140619543c19.762939453119543-17.141845703128638,37.047119140619543-37.041748046878638,51.26708984375-59.125l-46.223632812510914-29.704833984369543c-11.373291015619543,17.673583984369543-25.201171874989086,33.598876953119543-41.016357421869543,47.31396484375Z" style="fill: #988985; stroke: #181818; stroke-width: 2px;"/>
          </a>
          <a xlink:href="https://www.notion.so/dmmnotes/punitively-obsessed-with-revenge-33d2e77f37774316b42bccf4a60f9688?pvs=4">
            <path id="C5-2" data-name="C5" d="M485.08251953125,418.945556640629547l46.223632812510914,29.704833984369543c14.048095703128638-21.809326171880457,25.08837890625-45.71875,32.551513671869543-71.175048828130457l-52.7548828125-15.490234375c-5.9619140625,20.377929687510914-14.789306640619543,39.509765625-26.020263671880457,56.960449218760914Z" style="fill: #9b8d89; stroke: #181818; stroke-width: 2px;"/>
          </a>
          <a xlink:href="https://www.notion.so/dmmnotes/feigned-helpless-e79a94b0498c4e109a681b7f3dcdb088?pvs=4">
            <path id="C4-2" data-name="C4" d="M520,299.999999999999091c0,21.5380859375-3.142089843739086,42.321533203119543-8.897216796869543,61.985107421869543l52.7548828125,15.490234375c7.2080078125-24.583496093739086,11.142333984369543-50.5634765625,11.142333984369543-77.475341796869543h-55Z" style="fill: #a1928f; stroke: #181818; stroke-width: 2px;"/>
          </a>
          <a xlink:href="https://www.notion.so/dmmnotes/aggressive-2d8ccce383534b9dbfc7b4b10b8a5d5c?pvs=4">
            <path id="C3-2" data-name="C3" d="M520,299.999999999999091h55c0-26.911865234389552-3.934326171869543-52.894531250010914-11.142333984369543-77.475341796889552l-52.7548828125,15.490234375c5.755126953130457,19.663574218759095,8.897216796869543,40.449707031259095,8.897216796869543,61.985107421889552Z" style="fill: #9e8f8b; stroke: #181818; stroke-width: 2px;"/>
          </a>
          <a xlink:href="https://www.notion.so/dmmnotes/disarming-086276e599884c86b9359acf831a8b20?pvs=4">
            <path id="C2-2" data-name="C2" d="M511.102783203130457,238.014892578109539l52.7548828125-15.490234375c-7.463134765619543-25.456298828121362-18.503417968740905-49.365722656240905-32.551513671869543-71.177734374990905l-46.223632812510914,29.70751953125c11.230957031260914,17.45068359375,20.055664062510914,36.585205078119543,26.020263671880457,56.960449218740905Z" style="fill: #9b8c88; stroke: #181818; stroke-width: 2px;"/>
          </a>
          <a xlink:href="https://www.notion.so/dmmnotes/threatening-348fe6a52f7a4fe69f768e98c6586932?pvs=4">
            <path id="C1-2" data-name="C1" d="M485.08251953125,181.054443359368634l46.223632812510914-29.70751953125c-3.273382764720736-5.082861773660625-6.709138808490025-10.050169557309346-10.300126729000112-14.894880224830558-18.7746979552212-25.329514182889397-56.293794455550596-26.537787805429616-76.939827532480194-2.708921059358545l-.00003597290015.000041518558646c15.815185546880457,13.71240234375,29.64306640625,29.637695312510914,41.016357421869543,47.311279296880457Z" style="fill: #988985; stroke: #181818; stroke-width: 2px;"/>
          </a>
          <a xlink:href="https://www.notion.so/dmmnotes/complaining-acceptance-8b40401a720c493ba73f7cde1567cf3d?pvs=4">
            <path id="B5-2" data-name="B5" d="M444.066162109380457,133.743164062488177l.00003597290015-.000041518558646c20.654922513649581-23.839126791601302,14.125719583838872-60.826671837301546-13.629725214659629-75.812167347630748-5.297847529700448-2.860371035199933-10.700612091030052-5.552089440430791-16.201365445751435-8.068162227549692l-22.832519531239086,49.99951171875c19.204345703119543,8.773681640619543,36.910156249989086,20.22216796875,52.66357421875,33.880859374989086Z" style="fill: #958682; stroke: #181818; stroke-width: 2px;"/>
          </a>
          <a xlink:href="https://www.notion.so/dmmnotes/sentimental-bc554363322342b1b7ca4ccc02125049?pvs=4">
            <path id="B4-2" data-name="B4" d="M391.402587890630457,99.862304687499091l22.832519531239086-49.99951171875c-23.455566406229991-10.7314453125-48.662109375-18.275146484389552-75.101318359369543-22.042968749990905l-7.825683593739086,54.433349609360448c21.159423828119543,3.0078125,41.327880859369543,9.034179687490905,60.094482421869543,17.609130859380457Z" style="fill: #92837f; stroke: #181818; stroke-width: 2px;"/>
          </a>
          <a xlink:href="https://www.notion.so/dmmnotes/comfortably-balanced-e76dc615a8b947aa915377cd02fcf716?pvs=4">
            <path id="B3-2" data-name="B3" d="M300,79.999999999999091c10.634765625,0,21.078857421869543.797607421869543,31.308105468760914,2.253173828119543l7.825683593739086-54.433349609360448c-12.788574218739086-1.823486328139552-25.843017578130457-2.819824218759095-39.1337890625-2.819824218759095s-26.34521484375.996337890619543-39.133789062489086,2.819824218759095l7.825683593739086,54.433349609360448c10.23193359375-1.45556640625,20.67333984375-2.253173828119543,31.30810546875-2.253173828119543Z" style="fill: #8f807d; stroke: #181818; stroke-width: 2px;"/>
          </a>
          <a xlink:href="https://www.notion.so/dmmnotes/accepting-317d81273fff4cd9817cdf4a88efd378?pvs=4">
            <path id="B2-2" data-name="B2" d="M268.69189453125,82.253173828118634l-7.825683593739086-54.433349609360448c-26.439208984391371,3.767822265601353-51.643066406260914,11.311523437490905-75.098632812510914,22.042968749990905l22.83251953125,49.99951171875c18.7666015625-8.574951171889552,38.93505859375-14.601318359380457,60.091796875-17.609130859380457Z" style="fill: #8c7d7a; stroke: #181818; stroke-width: 2px;"/>
          </a>
          <a xlink:href="https://www.notion.so/dmmnotes/idealising-a52277f51ed14a42aae78081bb34b8be?pvs=4">
            <path id="A1-2" data-name="A1" d="M155.9365234375,133.740478515618634l-.00003597290015-.00004151587018c-20.647012023619027-23.828455119089995-58.166100839880528-22.619561246779995-76.941289455078731,2.709999997550767-3.591451962291103,4.845219097369409-7.02760574713102,9.813063194989809-10.301350353271118,14.896486830819413l46.226318359369543,29.70751953125c11.373291015641371-17.673583984369543,25.201171875010914-33.598876953130457,41.016357421880457-47.31396484375Z" style="fill: #877875; stroke: #181818; stroke-width: 2px;"/>
          </a>
          <a xlink:href="https://www.notion.so/dmmnotes/distancing-9ac690cdca654729a17a5a255944e2d1?pvs=4">
            <path id="A2-2" data-name="A2" d="M114.920166015619543,181.054443359368634l-46.226318359369543-29.70751953125c-14.04541015625,21.81201171875-25.08837890625,45.721435546869543-32.551513671880457,71.177734374990905l52.754882812510914,15.490234375c5.964599609369543-20.375244140621362,14.7919921875-39.509765624990905,26.022949218739086-56.960449218740905Z" style="fill: #847572; stroke: #181818; stroke-width: 2px;"/>
          </a>
          <a xlink:href="https://www.notion.so/dmmnotes/compulsive-caregiving-9c380c0928294f41ae10764aa0dee886?pvs=4">
            <path id="A3-2" data-name="A3" d="M88.897216796880457,238.014892578109539l-52.754882812510914-15.490234375c-7.205322265619543,24.580810546878638-11.142333984369543,50.5634765625-11.142333984369543,77.475341796889552h55c0-21.535400390630457,3.14208984375-42.321533203130457,8.897216796880457-61.985107421889552Z" style="fill: #827370; stroke: #181818; stroke-width: 2px;"/>
          </a>
          <a xlink:href="https://www.notion.so/dmmnotes/compulsive-compliance-6d08b7ea9a424ce1a72b9184b7850414?pvs=4">
            <path id="A4-2" data-name="A4" d="M80,299.999999999999091H25c0,26.911865234369543,3.93701171875,52.894531249989086,11.142333984369543,77.475341796869543l52.754882812510914-15.490234375c-5.755126953130457-19.66357421875-8.897216796880457-40.447021484369543-8.897216796880457-61.985107421869543Z" style="fill: #80716e; stroke: #181818; stroke-width: 2px;"/>
          </a>
          <a xlink:href="https://www.notion.so/dmmnotes/sexual-supplementation-8e85f49046ef412aa229745abf7d38d3?pvs=4">
            <path id="A5-2" data-name="A5" d="M88.897216796880457,361.985107421868634l-52.754882812510914,15.490234375c7.463134765630457,25.456298828130457,18.506103515630457,49.36572265625,32.551513671880457,71.175048828130457l46.223632812510914-29.704833984369543c-11.230957031260914-17.450683593760914-20.055664062510914-36.58251953125-26.020263671880457-56.960449218760914Z" style="fill: #837471; stroke: #181818; stroke-width: 2px;"/>
          </a>
          <a xlink:href="https://www.notion.so/dmmnotes/compulsive-isolated-self-reliance-b321873a73fa41aaaadd7192fde856a2?pvs=4">
            <path id="A6-2" data-name="A6" d="M114.917480468760914,418.945556640629547l-46.223632812510914,29.704833984369543c14.219970703119543,22.083251953121362,31.504150390630457,41.983154296871362,51.269775390630457,59.125l35.972900390619543-41.515869140619543c-15.815185546869543-13.712402343759095-29.643066406239086-29.637695312509095-41.019042968739086-47.31396484375Z" style="fill: #867774; stroke: #181818; stroke-width: 2px;"/>
          </a>
          <a xlink:href="https://www.notion.so/dmmnotes/delusional-idealization-743e2420b9994a48a7cab68190432e8a?pvs=4">
            <path id="A7-2" data-name="A7" d="M155.9365234375,466.259521484379547l-35.972900390619543,41.515869140619543c19.687744140619543,17.074707031239086,41.811279296869543,31.385986328130457,65.803955078119543,42.36181640625l22.83251953125-49.996826171878638c-19.20166015625-8.773681640621362-36.91015625-20.222167968740905-52.66357421875-33.880859374990905Z" style="fill: #8a7b77; stroke: #181818; stroke-width: 2px;"/>
          </a>
          <a xlink:href="https://www.notion.so/dmmnotes/externally-assembled-self-994ecb0895b844409b931d74a045c162?pvs=4">
            <path id="A8-2" data-name="A8" d="M208.60009765625,500.140380859370453l-22.83251953125,49.996826171878638c23.45556640625,10.7314453125,48.659423828119543,18.275146484371362,75.098632812510914,22.04296875l7.825683593739086-54.4306640625c-21.15673828125-3.0078125-41.3251953125-9.0341796875-60.091796875-17.609130859378638Z" style="fill: #8a7b77; stroke: #181818; stroke-width: 2px;"/>
          </a>
          <a xlink:href="https://www.notion.so/dmmnotes/psychopathy-0fe4a3222d9f4fd097ab4546c9776768?pvs=4">
            <path id="AC-2" data-name="AC" d="M300,519.999999999999091c-10.634765625,0-21.076171875-.794921875-31.30810546875-2.25048828125l-7.825683593739086,54.4306640625c12.788574218739086,1.823486328130457,25.843017578119543,2.81982421875,39.133789062489086,2.81982421875s26.345214843760914-.996337890619543,39.1337890625-2.81982421875l-7.825683593739086-54.4306640625c-10.229248046891371,1.45556640625-20.673339843760914,2.25048828125-31.308105468760914,2.25048828125Z" style="fill: #90817d; stroke: #181818; stroke-width: 2px;"/>
          </a>
          <a xlink:href="https://www.notion.so/dmmnotes/distanced-from-past-2eabab7e9c77429f8e577f4e3e203653?pvs=4">
            <g id="B1-5" data-name="B1">
              <path d="M155.865234375,134.738281249987267c-.2646484375-.01904296875-.5107421875-.14208984375-.6845703125-.3427734375-10.1064453125-11.6640625-14.3095703125-27.06689453125-11.53125-42.25830078125,2.7529296875-15.05517578125,12.025390625-27.84326171875,25.4404296875-35.0859375,5.3154296875-2.86962890625,10.7861328125-5.59375,16.26171875-8.09765625.1318359375-.060546875.2734375-.0908203125.416015625-.0908203125.1181640625,0,.236328125.02099609375.349609375.06298828125.248046875.0927734375.4501953125.2802734375.5595703125.521484375l22.83203125,49.99951171875c.2294921875.50244140625.0087890625,1.095703125-.4931640625,1.3251953125-18.98046875,8.6728515625-36.6181640625,20.01904296875-52.423828125,33.72412109375-.1826171875.158203125-.4150390625.24462890625-.6552734375.24462890625-.0234375,0-.0478515625-.0009765625-.0712890625-.00244140625Z" style="fill: #2d7f98; stroke-width: 0px;"/>
              <path d="M185.767578125,49.862792968737267l22.83251953125,49.999519348144531c-19.20166015625,8.773674011230469-36.91015625,20.219474792480469-52.66357421875,33.878162384033203v-.000038146972656c-20.6551513671875-23.837764739990234-14.12646484375-60.824550628662109,13.6282958984375-75.809314727783203,5.298095703125-2.860427856445312,10.7012939453125-5.552200317382812,16.2027587890625-8.068328857421875M185.767578125,47.862792968737267c-.284423828125,0-.5682373046875.060638427734375-.831787109375.181198120117188-5.50244140625,2.516555786132812-10.99365234375,5.250946044921875-16.3211669921875,8.127243041992188-13.6829833984375,7.387428283691406-23.1409912109375,20.430923461914062-25.9490966796875,35.786026000976562-2.8330078125,15.491737365722656,1.453125,31.198486328125,11.759521484375,43.092887878417969.347412109375.400951385498047.83984375.647438049316406,1.369140625.685211181640625.0474853515625.003395080566406.0950927734375.005081176757812.1424560546875.005081176757812.479736328125,0,.9451904296875-.172565460205078,1.31005859375-.4888916015625,15.736328125-13.643890380859375,33.2938232421875-24.938514709472656,52.1845703125-33.570137023925781,1.0045166015625-.458976745605469,1.4468994140625-1.645278930664062.9881591796875-2.649887084960938l-22.83251953125-49.99951171875c-.220458984375-.482696533203125-.6236572265625-.857986450195312-1.120849609375-1.043304443359375-.2255859375-.084060668945312-.4622802734375-.12591552734375-.698486328125-.12591552734375h0Z" style="fill: #181818; stroke-width: 0px;"/>
            </g>
          </a>
        </g>
      </g>
      <g>
        <path d="M177.5546875,79.367187499987267c-.486328125,6.1591796875-.69921875,12.3486328125-.638671875,18.568359375-.0205078125.22314453125-.0810546875.42578125-.181640625.60791015625-.1015625.16259765625-.25390625.31884765625-.4560546875.47119140625-.203125.15185546875-.4765625.24755859375-.8203125.28857421875-.365234375.04052734375-.7353515625.0654296875-1.109375.076171875-.375.009765625-.724609375-.02587890625-1.048828125-.1064453125-.32421875-.08154296875-.6025390625-.22265625-.8359375-.42578125-.232421875-.2021484375-.3798828125-.5166015625-.4404296875-.94189453125-.041015625-.22265625-.06640625-.658203125-.076171875-1.306640625s.0048828125-1.4287109375.0458984375-2.34033203125c.0400390625-.931640625.0908203125-1.94970703125.15234375-3.05419921875.060546875-1.10400390625.12109375-2.21337890625.181640625-3.32763671875.0205078125-.04052734375.0302734375-.10107421875.0302734375-.1826171875-.12109375-.02001953125-.2685546875-.060546875-.4404296875-.12158203125-.171875-.060546875-.400390625-.18212890625-.68359375-.36474609375-.3037109375-.2021484375-.61328125-.41015625-.9267578125-.62255859375-.314453125-.212890625-.59765625-.4306640625-.8515625-.65380859375-.2529296875-.22265625-.4501953125-.43505859375-.591796875-.63818359375-.142578125-.2021484375-.1826171875-.39501953125-.1220703125-.5771484375.060546875-.1826171875.333984375-.58740234375.8203125-1.2158203125.22265625-.283203125.4658203125-.60791015625.7294921875-.97265625.263671875-.3642578125.537109375-.7392578125.8203125-1.1240234375.2841796875-.36474609375.5419921875-.71923828125.775390625-1.06396484375.232421875-.34423828125.4501953125-.658203125.6533203125-.94189453125.22265625-.32421875.435546875-.63818359375.638671875-.9423828125.080078125-.16162109375.349609375-.25830078125.8046875-.28857421875.4560546875-.0302734375.9423828125,0,1.458984375.09130859375.5166015625.0908203125.9873046875.23291015625,1.4130859375.42529296875.42578125.19287109375.658203125.4208984375.69921875.68408203125Z" style="fill: none; stroke: #181818; stroke-width: 5.631003379821777px;"/>
        <path d="M177.5546875,79.367187499987267c-.486328125,6.1591796875-.69921875,12.3486328125-.638671875,18.568359375-.0205078125.22314453125-.0810546875.42578125-.181640625.60791015625-.1015625.16259765625-.25390625.31884765625-.4560546875.47119140625-.203125.15185546875-.4765625.24755859375-.8203125.28857421875-.365234375.04052734375-.7353515625.0654296875-1.109375.076171875-.375.009765625-.724609375-.02587890625-1.048828125-.1064453125-.32421875-.08154296875-.6025390625-.22265625-.8359375-.42578125-.232421875-.2021484375-.3798828125-.5166015625-.4404296875-.94189453125-.041015625-.22265625-.06640625-.658203125-.076171875-1.306640625s.0048828125-1.4287109375.0458984375-2.34033203125c.0400390625-.931640625.0908203125-1.94970703125.15234375-3.05419921875.060546875-1.10400390625.12109375-2.21337890625.181640625-3.32763671875.0205078125-.04052734375.0302734375-.10107421875.0302734375-.1826171875-.12109375-.02001953125-.2685546875-.060546875-.4404296875-.12158203125-.171875-.060546875-.400390625-.18212890625-.68359375-.36474609375-.3037109375-.2021484375-.61328125-.41015625-.9267578125-.62255859375-.314453125-.212890625-.59765625-.4306640625-.8515625-.65380859375-.2529296875-.22265625-.4501953125-.43505859375-.591796875-.63818359375-.142578125-.2021484375-.1826171875-.39501953125-.1220703125-.5771484375.060546875-.1826171875.333984375-.58740234375.8203125-1.2158203125.22265625-.283203125.4658203125-.60791015625.7294921875-.97265625.263671875-.3642578125.537109375-.7392578125.8203125-1.1240234375.2841796875-.36474609375.5419921875-.71923828125.775390625-1.06396484375.232421875-.34423828125.4501953125-.658203125.6533203125-.94189453125.22265625-.32421875.435546875-.63818359375.638671875-.9423828125.080078125-.16162109375.349609375-.25830078125.8046875-.28857421875.4560546875-.0302734375.9423828125,0,1.458984375.09130859375.5166015625.0908203125.9873046875.23291015625,1.4130859375.42529296875.42578125.19287109375.658203125.4208984375.69921875.68408203125Z" style="fill: #231f20; stroke-width: 0px;"/>
        <path d="M177.5546875,79.367187499987267c-.486328125,6.1591796875-.69921875,12.3486328125-.638671875,18.568359375-.0205078125.22314453125-.0810546875.42578125-.181640625.60791015625-.1015625.16259765625-.25390625.31884765625-.4560546875.47119140625-.203125.15185546875-.4765625.24755859375-.8203125.28857421875-.365234375.04052734375-.7353515625.0654296875-1.109375.076171875-.375.009765625-.724609375-.02587890625-1.048828125-.1064453125-.32421875-.08154296875-.6025390625-.22265625-.8359375-.42578125-.232421875-.2021484375-.3798828125-.5166015625-.4404296875-.94189453125-.041015625-.22265625-.06640625-.658203125-.076171875-1.306640625s.0048828125-1.4287109375.0458984375-2.34033203125c.0400390625-.931640625.0908203125-1.94970703125.15234375-3.05419921875.060546875-1.10400390625.12109375-2.21337890625.181640625-3.32763671875.0205078125-.04052734375.0302734375-.10107421875.0302734375-.1826171875-.12109375-.02001953125-.2685546875-.060546875-.4404296875-.12158203125-.171875-.060546875-.400390625-.18212890625-.68359375-.36474609375-.3037109375-.2021484375-.61328125-.41015625-.9267578125-.62255859375-.314453125-.212890625-.59765625-.4306640625-.8515625-.65380859375-.2529296875-.22265625-.4501953125-.43505859375-.591796875-.63818359375-.142578125-.2021484375-.1826171875-.39501953125-.1220703125-.5771484375.060546875-.1826171875.333984375-.58740234375.8203125-1.2158203125.22265625-.283203125.4658203125-.60791015625.7294921875-.97265625.263671875-.3642578125.537109375-.7392578125.8203125-1.1240234375.2841796875-.36474609375.5419921875-.71923828125.775390625-1.06396484375.232421875-.34423828125.4501953125-.658203125.6533203125-.94189453125.22265625-.32421875.435546875-.63818359375.638671875-.9423828125.080078125-.16162109375.349609375-.25830078125.8046875-.28857421875.4560546875-.0302734375.9423828125,0,1.458984375.09130859375.5166015625.0908203125.9873046875.23291015625,1.4130859375.42529296875.42578125.19287109375.658203125.4208984375.69921875.68408203125Z" style="fill: #e2dddb; stroke-width: 0px;"/>
      </g>
    </g>
  </g>
</svg>