<?xml version="1.0" encoding="UTF-8"?>
<svg id="Layer_1" data-name="Layer 1" xmlns="http://www.w3.org/2000/svg" width="600" height="599.999999999998181" xmlns:xlink="http://www.w3.org/1999/xlink" viewBox="0 0 600 599.999999999998181">
  <defs>
    <linearGradient id="C2-3" data-name="C2" x1="267.309528072319154" y1="392.710640600995248" x2="330.042362491312645" y2="306.253388801740357" gradientUnits="userSpaceOnUse">
      <stop offset="0" stop-color="#4b9669"/>
      <stop offset=".255090837540483" stop-color="#5b9860"/>
      <stop offset=".504273504273504" stop-color="#679a5a"/>
      <stop offset=".73867440451623" stop-color="#699a58"/>
      <stop offset=".893404221137991" stop-color="#729c52"/>
      <stop offset="1" stop-color="#7e9e4c"/>
    </linearGradient>
  </defs>
  <g id="pie_with_links_-5" data-name="pie (with links)">
    <g id="pie_with_links_-6" data-name="pie (with links)">
      <a xlink:href="https://www.notion.so/dmmnotes/C2-086276e599884c86b9359acf831a8b20?pvs=4#58f1c987bdbb46bbbdeedf8531c640e5">
        <g id="C2">
          <g id="C2-2" data-name="C2">
            <path d="M300,414.706054687490905c-36.9697265625,0-67.0478515625-30.078125-67.048828125-67.048828125,0-36.970703125,30.078125-67.048828125,67.048828125-67.048828125s67.048828125,30.078125,67.048828125,67.048828125-30.078125,67.048828125-67.048828125,67.048828125Z" style="fill: url(#C2-3); stroke-width: 0px;"/>
            <path d="M300.000244140630457,289.108489990228918c32.335693359369543,0,58.548828125,26.213134765621362,58.548828125,58.548675537111194,0,32.335571289060681-26.213134765630457,58.548767089840112-58.548583984380457,58.548767089840112-32.335693359369543,0-58.548828125-26.213104248041418-58.548828125-58.548645019529431,0-32.335601806640625,26.213134765630457-58.548797607421875,58.548583984380457-58.548797607421875M300.000244140630457,272.108489990228918c-41.65771484375,0-75.548583984380457,33.891082763671875-75.548583984380457,75.548797607421875,0,41.657653808590112,33.89111328125,75.548645019529431,75.548828125,75.548645019529431s75.548583984380457-33.891052246090112,75.548583984380457-75.548767089840112c0-41.657653808599207-33.89111328125-75.548675537111194-75.548828125-75.548675537111194h0Z" style="fill: #181818; stroke-width: 0px;"/>
          </g>
          <a xlink:href="https://www.notion.so/dmmnotes/C2-086276e599884c86b9359acf831a8b20?pvs=4#58f1c987bdbb46bbbdeedf8531c640e5">
            <g>
              <g>
                <path d="M275.666015625,243.247070312487267c.103515625-3.0341796875-.3916015625-5.310546875-1.4912109375-6.8291015625-1.0986328125-1.5166015625-2.4873046875-2.4580078125-4.16015625-2.826171875-1.67578125-.365234375-3.4814453125-.181640625-5.4169921875.5498046875-1.9375.7333984375-3.689453125,1.7802734375-5.2587890625,3.1396484375-3.6650390625,3.1396484375-6.62109375,7.1435546875-8.87109375,12.0107421875-2.251953125,4.8662109375-3.767578125,9.96875-4.552734375,15.3076171875-.78515625,5.337890625-.8388671875,10.6513671875-.1572265625,15.935546875.6796875,5.2861328125,2.1708984375,9.8662109375,4.474609375,13.7373046875,1.46484375,2.51171875,3.21875,4.37109375,5.259765625,5.5732421875,2.041015625,1.2041015625,4.2119140625,1.8837890625,6.515625,2.041015625,2.30078125.1572265625,4.5771484375-.208984375,6.8291015625-1.0986328125,2.25-.888671875,4.263671875-2.22265625,6.044921875-4.00390625,2.7197265625-2.720703125,4.91796875-4.65625,6.59375-5.80859375,1.6728515625-1.1513671875,3.556640625-1.779296875,5.65234375-1.884765625,5.9658203125,0,9.9150390625,1.67578125,11.853515625,5.0244140625,1.9345703125,3.3505859375,2.0654296875,7.4326171875.3916015625,12.24609375-1.361328125,3.767578125-3.4287109375,7.064453125-6.201171875,9.890625-2.7744140625,2.826171875-5.9931640625,5.1025390625-9.6552734375,6.830078125-3.6650390625,1.7265625-7.58984375,2.9306640625-11.775390625,3.6103515625-4.1875.6796875-8.3203125.8642578125-12.40234375.5498046875s-7.9560546875-1.177734375-11.6181640625-2.5908203125c-3.6650390625-1.4130859375-6.8056640625-3.3212890625-9.419921875-5.73046875-2.931640625-2.720703125-5.4951171875-5.8330078125-7.693359375-9.3408203125-2.1982421875-3.505859375-4.0302734375-7.22265625-5.4951171875-11.1474609375-1.466796875-3.9248046875-2.5654296875-8.0068359375-3.296875-12.24609375-.7333984375-4.2392578125-1.0986328125-8.501953125-1.0986328125-12.794921875.2080078125-9.62890625,2.2490234375-18.943359375,6.123046875-27.9462890625,3.87109375-9.0009765625,9-16.8505859375,15.3857421875-23.5498046875,2.9287109375-3.03515625,6.41015625-5.625,10.4404296875-7.771484375,4.0283203125-2.14453125,8.1640625-3.533203125,12.4033203125-4.1611328125,4.23828125-.6279296875,8.3994140625-.4169921875,12.4814453125.6279296875,4.08203125,1.0478515625,7.6923828125,3.24609375,10.8330078125,6.5947265625,2.40625,2.51171875,4.341796875,5.3916015625,5.80859375,8.634765625,1.46484375,3.2451171875,2.5634765625,6.4912109375,3.296875,9.7333984375.4169921875,2.095703125.6015625,4.08203125.5498046875,5.966796875-.0537109375,1.8837890625-.498046875,3.6650390625-1.3349609375,5.337890625-1.15234375,2.0947265625-2.9306640625,3.5859375-5.337890625,4.474609375-2.4091796875.890625-4.7880859375,1.1767578125-7.1435546875.86328125-2.3544921875-.314453125-4.3955078125-1.2294921875-6.123046875-2.748046875-1.7265625-1.515625-2.5390625-3.583984375-2.43359375-6.201171875Z" style="fill: none; stroke: #181818; stroke-linecap: round; stroke-linejoin: round; stroke-width: 33px;"/>
                <path d="M374.259765625,303.220703124987267c.7314453125,0,1.3076171875.341796875,1.7275390625,1.0205078125.4169921875.6826171875.7578125,1.4677734375,1.0205078125,2.35546875.259765625.890625.4169921875,1.8056640625.470703125,2.7470703125.0517578125.9423828125.078125,1.6240234375.078125,2.041015625,0,1.884765625-.0537109375,3.8466796875-.15625,5.8876953125-.10546875,2.041015625-.314453125,3.9248046875-.6279296875,5.65234375-.314453125,1.7265625-.78515625,3.1943359375-1.4130859375,4.3955078125-.6279296875,1.2021484375-1.5185546875,1.9091796875-2.6689453125,2.1201171875-.525390625.2080078125-1.6484375.259765625-3.3759765625.1572265625-1.7265625-.10546875-3.794921875-.2626953125-6.201171875-.4716796875-2.5126953125-.2109375-5.2080078125-.392578125-8.0859375-.548828125-2.8798828125-.1572265625-5.8359375-.2900390625-8.8701171875-.392578125-3.037109375-.10546875-5.9658203125-.1572265625-8.7919921875-.1572265625s-5.337890625.0517578125-7.5361328125.1572265625c-1.8837890625.2080078125-4.21484375.3134765625-6.986328125.3134765625-2.7744140625,0-5.15625-.1572265625-7.1435546875-.470703125-1.5703125-.314453125-2.7744140625-1.54296875-3.611328125-3.689453125-.8388671875-2.14453125-1.333984375-4.68359375-1.4912109375-7.6142578125-.1572265625-2.9296875.078125-5.9912109375.7060546875-9.1845703125.6279296875-3.19140625,1.5703125-5.9912109375,2.826171875-8.3994140625,1.9873046875-3.4541015625,4.2392578125-6.5673828125,6.7509765625-9.341796875,2.51171875-2.7724609375,5.126953125-5.44140625,7.8505859375-8.0068359375,2.7197265625-2.5634765625,5.494140625-5.154296875,8.3203125-7.771484375,2.826171875-2.615234375,5.5986328125-5.44140625,8.3212890625-8.478515625,1.150390625-1.255859375,2.4580078125-3.0859375,3.9248046875-5.4951171875,1.46484375-2.40625,2.5634765625-4.8125,3.296875-7.2216796875.9423828125-3.1396484375.888671875-5.546875-.15625-7.2216796875-1.0478515625-1.673828125-2.5390625-2.6943359375-4.474609375-3.0615234375-1.9384765625-.3662109375-4.0576171875-.103515625-6.3583984375.78515625-2.3037109375.8896484375-4.29296875,2.330078125-5.966796875,4.3173828125-1.466796875,1.8837890625-2.5390625,4.08203125-3.2177734375,6.59375-.6826171875,2.51171875-.5498046875,5.078125.392578125,7.693359375.2080078125.5244140625.443359375,1.1259765625.7060546875,1.8046875.259765625.6826171875.4443359375,1.3349609375.5498046875,1.962890625.1025390625,1.466796875-.8642578125,2.9580078125-2.9052734375,4.474609375-2.041015625,1.5185546875-4.4228515625,2.6171875-7.142578125,3.296875-2.7236328125.681640625-5.392578125.7333984375-8.0078125.1572265625-2.6171875-.57421875-4.44921875-2.22265625-5.4951171875-4.9453125-1.15234375-3.7685546875-1.6484375-7.509765625-1.4912109375-11.2255859375.1572265625-3.71484375.78515625-7.3251953125,1.8837890625-10.8330078125,1.099609375-3.505859375,2.6689453125-6.830078125,4.7099609375-9.9697265625s4.4208984375-5.912109375,7.1435546875-8.3212890625c2.9296875-2.615234375,6.3046875-4.7099609375,10.126953125-6.2802734375,3.8193359375-1.5693359375,7.771484375-2.51171875,11.853515625-2.8251953125,4.08203125-.314453125,8.0849609375.0537109375,12.0107421875,1.0986328125,3.9248046875,1.0478515625,7.45703125,2.931640625,10.5966796875,5.65234375,2.5126953125,2.0947265625,4.5,4.474609375,5.966796875,7.1435546875,1.4638671875,2.6689453125,2.51171875,5.494140625,3.1396484375,8.4775390625s.86328125,6.044921875.7060546875,9.1845703125c-.15625,3.1396484375-.6025390625,6.2802734375-1.333984375,9.419921875-1.1533203125,4.607421875-2.904296875,8.7919921875-5.259765625,12.560546875-2.3544921875,3.767578125-4.9990234375,7.353515625-7.9287109375,10.75390625-2.9306640625,3.40234375-6.0439453125,6.69921875-9.3408203125,9.890625-3.296875,3.1943359375-6.515625,6.46484375-9.6552734375,9.8125,10.150390625-.4169921875,20.35546875-.4169921875,30.6142578125,0Z" style="fill: none; stroke: #181818; stroke-linecap: round; stroke-linejoin: round; stroke-width: 33px;"/>
              </g>
              <g>
                <path d="M275.666015625,243.247070312487267c.103515625-3.0341796875-.3916015625-5.310546875-1.4912109375-6.8291015625-1.0986328125-1.5166015625-2.4873046875-2.4580078125-4.16015625-2.826171875-1.67578125-.365234375-3.4814453125-.181640625-5.4169921875.5498046875-1.9375.7333984375-3.689453125,1.7802734375-5.2587890625,3.1396484375-3.6650390625,3.1396484375-6.62109375,7.1435546875-8.87109375,12.0107421875-2.251953125,4.8662109375-3.767578125,9.96875-4.552734375,15.3076171875-.78515625,5.337890625-.8388671875,10.6513671875-.1572265625,15.935546875.6796875,5.2861328125,2.1708984375,9.8662109375,4.474609375,13.7373046875,1.46484375,2.51171875,3.21875,4.37109375,5.259765625,5.5732421875,2.041015625,1.2041015625,4.2119140625,1.8837890625,6.515625,2.041015625,2.30078125.1572265625,4.5771484375-.208984375,6.8291015625-1.0986328125,2.25-.888671875,4.263671875-2.22265625,6.044921875-4.00390625,2.7197265625-2.720703125,4.91796875-4.65625,6.59375-5.80859375,1.6728515625-1.1513671875,3.556640625-1.779296875,5.65234375-1.884765625,5.9658203125,0,9.9150390625,1.67578125,11.853515625,5.0244140625,1.9345703125,3.3505859375,2.0654296875,7.4326171875.3916015625,12.24609375-1.361328125,3.767578125-3.4287109375,7.064453125-6.201171875,9.890625-2.7744140625,2.826171875-5.9931640625,5.1025390625-9.6552734375,6.830078125-3.6650390625,1.7265625-7.58984375,2.9306640625-11.775390625,3.6103515625-4.1875.6796875-8.3203125.8642578125-12.40234375.5498046875s-7.9560546875-1.177734375-11.6181640625-2.5908203125c-3.6650390625-1.4130859375-6.8056640625-3.3212890625-9.419921875-5.73046875-2.931640625-2.720703125-5.4951171875-5.8330078125-7.693359375-9.3408203125-2.1982421875-3.505859375-4.0302734375-7.22265625-5.4951171875-11.1474609375-1.466796875-3.9248046875-2.5654296875-8.0068359375-3.296875-12.24609375-.7333984375-4.2392578125-1.0986328125-8.501953125-1.0986328125-12.794921875.2080078125-9.62890625,2.2490234375-18.943359375,6.123046875-27.9462890625,3.87109375-9.0009765625,9-16.8505859375,15.3857421875-23.5498046875,2.9287109375-3.03515625,6.41015625-5.625,10.4404296875-7.771484375,4.0283203125-2.14453125,8.1640625-3.533203125,12.4033203125-4.1611328125,4.23828125-.6279296875,8.3994140625-.4169921875,12.4814453125.6279296875,4.08203125,1.0478515625,7.6923828125,3.24609375,10.8330078125,6.5947265625,2.40625,2.51171875,4.341796875,5.3916015625,5.80859375,8.634765625,1.46484375,3.2451171875,2.5634765625,6.4912109375,3.296875,9.7333984375.4169921875,2.095703125.6015625,4.08203125.5498046875,5.966796875-.0537109375,1.8837890625-.498046875,3.6650390625-1.3349609375,5.337890625-1.15234375,2.0947265625-2.9306640625,3.5859375-5.337890625,4.474609375-2.4091796875.890625-4.7880859375,1.1767578125-7.1435546875.86328125-2.3544921875-.314453125-4.3955078125-1.2294921875-6.123046875-2.748046875-1.7265625-1.515625-2.5390625-3.583984375-2.43359375-6.201171875Z" style="fill: #e2dddb; stroke-width: 0px;"/>
                <path d="M374.259765625,303.220703124987267c.7314453125,0,1.3076171875.341796875,1.7275390625,1.0205078125.4169921875.6826171875.7578125,1.4677734375,1.0205078125,2.35546875.259765625.890625.4169921875,1.8056640625.470703125,2.7470703125.0517578125.9423828125.078125,1.6240234375.078125,2.041015625,0,1.884765625-.0537109375,3.8466796875-.15625,5.8876953125-.10546875,2.041015625-.314453125,3.9248046875-.6279296875,5.65234375-.314453125,1.7265625-.78515625,3.1943359375-1.4130859375,4.3955078125-.6279296875,1.2021484375-1.5185546875,1.9091796875-2.6689453125,2.1201171875-.525390625.2080078125-1.6484375.259765625-3.3759765625.1572265625-1.7265625-.10546875-3.794921875-.2626953125-6.201171875-.4716796875-2.5126953125-.2109375-5.2080078125-.392578125-8.0859375-.548828125-2.8798828125-.1572265625-5.8359375-.2900390625-8.8701171875-.392578125-3.037109375-.10546875-5.9658203125-.1572265625-8.7919921875-.1572265625s-5.337890625.0517578125-7.5361328125.1572265625c-1.8837890625.2080078125-4.21484375.3134765625-6.986328125.3134765625-2.7744140625,0-5.15625-.1572265625-7.1435546875-.470703125-1.5703125-.314453125-2.7744140625-1.54296875-3.611328125-3.689453125-.8388671875-2.14453125-1.333984375-4.68359375-1.4912109375-7.6142578125-.1572265625-2.9296875.078125-5.9912109375.7060546875-9.1845703125.6279296875-3.19140625,1.5703125-5.9912109375,2.826171875-8.3994140625,1.9873046875-3.4541015625,4.2392578125-6.5673828125,6.7509765625-9.341796875,2.51171875-2.7724609375,5.126953125-5.44140625,7.8505859375-8.0068359375,2.7197265625-2.5634765625,5.494140625-5.154296875,8.3203125-7.771484375,2.826171875-2.615234375,5.5986328125-5.44140625,8.3212890625-8.478515625,1.150390625-1.255859375,2.4580078125-3.0859375,3.9248046875-5.4951171875,1.46484375-2.40625,2.5634765625-4.8125,3.296875-7.2216796875.9423828125-3.1396484375.888671875-5.546875-.15625-7.2216796875-1.0478515625-1.673828125-2.5390625-2.6943359375-4.474609375-3.0615234375-1.9384765625-.3662109375-4.0576171875-.103515625-6.3583984375.78515625-2.3037109375.8896484375-4.29296875,2.330078125-5.966796875,4.3173828125-1.466796875,1.8837890625-2.5390625,4.08203125-3.2177734375,6.59375-.6826171875,2.51171875-.5498046875,5.078125.392578125,7.693359375.2080078125.5244140625.443359375,1.1259765625.7060546875,1.8046875.259765625.6826171875.4443359375,1.3349609375.5498046875,1.962890625.1025390625,1.466796875-.8642578125,2.9580078125-2.9052734375,4.474609375-2.041015625,1.5185546875-4.4228515625,2.6171875-7.142578125,3.296875-2.7236328125.681640625-5.392578125.7333984375-8.0078125.1572265625-2.6171875-.57421875-4.44921875-2.22265625-5.4951171875-4.9453125-1.15234375-3.7685546875-1.6484375-7.509765625-1.4912109375-11.2255859375.1572265625-3.71484375.78515625-7.3251953125,1.8837890625-10.8330078125,1.099609375-3.505859375,2.6689453125-6.830078125,4.7099609375-9.9697265625s4.4208984375-5.912109375,7.1435546875-8.3212890625c2.9296875-2.615234375,6.3046875-4.7099609375,10.126953125-6.2802734375,3.8193359375-1.5693359375,7.771484375-2.51171875,11.853515625-2.8251953125,4.08203125-.314453125,8.0849609375.0537109375,12.0107421875,1.0986328125,3.9248046875,1.0478515625,7.45703125,2.931640625,10.5966796875,5.65234375,2.5126953125,2.0947265625,4.5,4.474609375,5.966796875,7.1435546875,1.4638671875,2.6689453125,2.51171875,5.494140625,3.1396484375,8.4775390625s.86328125,6.044921875.7060546875,9.1845703125c-.15625,3.1396484375-.6025390625,6.2802734375-1.333984375,9.419921875-1.1533203125,4.607421875-2.904296875,8.7919921875-5.259765625,12.560546875-2.3544921875,3.767578125-4.9990234375,7.353515625-7.9287109375,10.75390625-2.9306640625,3.40234375-6.0439453125,6.69921875-9.3408203125,9.890625-3.296875,3.1943359375-6.515625,6.46484375-9.6552734375,9.8125,10.150390625-.4169921875,20.35546875-.4169921875,30.6142578125,0Z" style="fill: #e2dddb; stroke-width: 0px;"/>
              </g>
            </g>
          </a>
        </g>
      </a>
      <g id="Pie">
        <g>
          <a xlink:href="https://www.notion.so/dmmnotes/paranoid-ae38b1e6af0c4dd08f61e0d8f6e9f05f?pvs=4">
            <path id="C8" d="M331.308105468760914,517.749511718748181l7.825683593739086,54.4306640625c26.439208984369543-3.767822265628638,51.645751953139552-11.3115234375,75.101318359369543-22.04296875l-22.832519531239086-49.996826171878638c-18.7666015625,8.572265625-38.93505859375,14.601318359378638-60.094482421869543,17.609130859378638Z" style="fill: none; stroke: #181818; stroke-linecap: round; stroke-linejoin: round; stroke-width: 15px;"/>
          </a>
          <a xlink:href="https://www.notion.so/dmmnotes/menacing-a5bd7149286344deba45ec15e759e579?pvs=4">
            <path id="C7" d="M391.402587890630457,500.140380859369543l22.832519531239086,49.996826171878638c23.989990234391371-10.975830078121362,46.116210937520009-25.287109375010914,65.803955078141371-42.36181640625l-35.972900390630457-41.515869140621362c-15.753417968760914,13.65869140625-33.459228515630457,25.104492187492724-52.66357421875,33.880859374992724Z" style="fill: none; stroke: #181818; stroke-linecap: round; stroke-linejoin: round; stroke-width: 15px;"/>
          </a>
          <a xlink:href="https://www.notion.so/dmmnotes/seductively-obsessed-with-rescue-6fb5a68f6d334bc29ccccc16d8a4e56e?pvs=4">
            <path id="C6" d="M444.066162109380457,466.259521484376819l35.972900390630457,41.515869140621362c19.762939453119543-17.141845703128638,37.047119140619543-37.041748046878638,51.26708984375-59.125l-46.223632812510914-29.704833984371362c-11.373291015619543,17.673583984371362-25.201171874989086,33.598876953121362-41.016357421869543,47.31396484375Z" style="fill: none; stroke: #181818; stroke-linecap: round; stroke-linejoin: round; stroke-width: 15px;"/>
          </a>
          <a xlink:href="https://www.notion.so/dmmnotes/punitively-obsessed-with-revenge-33d2e77f37774316b42bccf4a60f9688?pvs=4">
            <path id="C5" d="M485.08251953125,418.945556640626819l46.223632812510914,29.704833984371362c14.048095703128638-21.809326171882276,25.08837890625-45.71875,32.551513671869543-71.175048828132276l-52.7548828125-15.490234375c-5.9619140625,20.377929687510914-14.789306640619543,39.509765625-26.020263671880457,56.960449218760914Z" style="fill: none; stroke: #181818; stroke-linecap: round; stroke-linejoin: round; stroke-width: 15px;"/>
          </a>
          <a xlink:href="https://www.notion.so/dmmnotes/feigned-helpless-e79a94b0498c4e109a681b7f3dcdb088?pvs=4">
            <path id="C4" d="M520,299.999999999998181c0,21.5380859375-3.142089843739086,42.321533203117724-8.897216796869543,61.985107421867724l52.7548828125,15.490234375c7.2080078125-24.583496093739086,11.142333984369543-50.5634765625,11.142333984369543-77.475341796867724h-55Z" style="fill: none; stroke: #181818; stroke-linecap: round; stroke-linejoin: round; stroke-width: 15px;"/>
          </a>
          <a xlink:href="https://www.notion.so/dmmnotes/aggressive-2d8ccce383534b9dbfc7b4b10b8a5d5c?pvs=4">
            <path id="C3" d="M520,299.999999999998181h55c0-26.911865234389552-3.934326171869543-52.894531250010914-11.142333984369543-77.475341796889552l-52.7548828125,15.490234375c5.755126953130457,19.663574218757276,8.897216796869543,40.449707031257276,8.897216796869543,61.985107421889552Z" style="fill: none; stroke: #181818; stroke-linecap: round; stroke-linejoin: round; stroke-width: 15px;"/>
          </a>
          <a xlink:href="https://www.notion.so/dmmnotes/threatening-348fe6a52f7a4fe69f768e98c6586932?pvs=4">
            <path id="C1" d="M485.08251953125,181.054443359365905l46.223632812510914-29.70751953125c-3.273382764720736-5.082861773658806-6.709138808490025-10.050169557307527-10.300126729000112-14.894880224830558-18.7746979552212-25.329514182889397-56.293794455550596-26.537787805427797-76.939827532480194-2.708921059358545l-.00003597290015.000041518560465c15.815185546880457,13.71240234375,29.64306640625,29.637695312510914,41.016357421869543,47.311279296878638Z" style="fill: none; stroke: #181818; stroke-linecap: round; stroke-linejoin: round; stroke-width: 15px;"/>
          </a>
          <a xlink:href="https://www.notion.so/dmmnotes/complaining-acceptance-8b40401a720c493ba73f7cde1567cf3d?pvs=4">
            <path id="B5" d="M444.066162109380457,133.743164062487267l.00003597290015-.000041518560465c20.654922513649581-23.839126791601302,14.125719583838872-60.826671837301546-13.629725214659629-75.812167347630748-5.297847529700448-2.860371035199933-10.700612091030052-5.552089440428972-16.201365445751435-8.068162227547873l-22.832519531239086,49.99951171875c19.204345703119543,8.773681640617724,36.910156249989086,20.22216796875,52.66357421875,33.880859374989086Z" style="fill: none; stroke: #181818; stroke-linecap: round; stroke-linejoin: round; stroke-width: 15px;"/>
          </a>
          <a xlink:href="https://www.notion.so/dmmnotes/sentimental-bc554363322342b1b7ca4ccc02125049?pvs=4">
            <path id="B4" d="M391.402587890630457,99.862304687498181l22.832519531239086-49.99951171875c-23.455566406229991-10.7314453125-48.662109375-18.275146484389552-75.101318359369543-22.042968749992724l-7.825683593739086,54.433349609360448c21.159423828119543,3.0078125,41.327880859369543,9.034179687492724,60.094482421869543,17.609130859382276Z" style="fill: none; stroke: #181818; stroke-linecap: round; stroke-linejoin: round; stroke-width: 15px;"/>
          </a>
          <a xlink:href="https://www.notion.so/dmmnotes/comfortably-balanced-e76dc615a8b947aa915377cd02fcf716?pvs=4">
            <path id="B3" d="M300,79.999999999998181c10.634765625,0,21.078857421869543.797607421867724,31.308105468760914,2.253173828117724l7.825683593739086-54.433349609360448c-12.788574218739086-1.823486328139552-25.843017578130457-2.819824218757276-39.1337890625-2.819824218757276s-26.34521484375.996337890617724-39.133789062489086,2.819824218757276l7.825683593739086,54.433349609360448c10.23193359375-1.45556640625,20.67333984375-2.253173828117724,31.30810546875-2.253173828117724Z" style="fill: none; stroke: #181818; stroke-linecap: round; stroke-linejoin: round; stroke-width: 15px;"/>
          </a>
          <a xlink:href="https://www.notion.so/dmmnotes/accepting-317d81273fff4cd9817cdf4a88efd378?pvs=4">
            <path id="B2" d="M268.69189453125,82.253173828115905l-7.825683593739086-54.433349609360448c-26.439208984391371,3.767822265603172-51.643066406260914,11.311523437492724-75.098632812510914,22.042968749992724l22.83251953125,49.99951171875c18.7666015625-8.574951171889552,38.93505859375-14.601318359382276,60.091796875-17.609130859382276Z" style="fill: none; stroke: #181818; stroke-linecap: round; stroke-linejoin: round; stroke-width: 15px;"/>
          </a>
          <a xlink:href="https://www.notion.so/dmmnotes/distanced-from-past-2eabab7e9c77429f8e577f4e3e203653?pvs=4">
            <path id="B1" d="M208.60009765625,99.862304687498181l-22.83251953125-49.99951171875c-5.501476919680499,2.516122083477967-10.904678806709853,5.207896667827299-16.20277414614975,8.068330353889905-27.754772116430104,14.984759620980185-34.283385893750165,51.971559756599163-13.6283165142504,75.809313677109458l.00003597290015.000041515868361c15.75341796875-13.658691406257276,33.4619140625-25.1044921875,52.66357421875-33.878173828117724Z" style="fill: none; stroke: #181818; stroke-linecap: round; stroke-linejoin: round; stroke-width: 15px;"/>
          </a>
          <a xlink:href="https://www.notion.so/dmmnotes/idealising-a52277f51ed14a42aae78081bb34b8be?pvs=4">
            <path id="A1" d="M155.9365234375,133.740478515615905l-.00003597290015-.000041515868361c-20.647012023619027-23.828455119091814-58.166100839880528-22.619561246781814-76.941289455078731,2.709999997550767-3.591451962291103,4.845219097369409-7.02760574713102,9.813063194989809-10.301350353271118,14.896486830817594l46.226318359369543,29.70751953125c11.373291015641371-17.673583984367724,25.201171875010914-33.598876953128638,41.016357421880457-47.31396484375Z" style="fill: none; stroke: #181818; stroke-linecap: round; stroke-linejoin: round; stroke-width: 15px;"/>
          </a>
          <a xlink:href="https://www.notion.so/dmmnotes/distancing-9ac690cdca654729a17a5a255944e2d1?pvs=4">
            <path id="A2" d="M114.920166015619543,181.054443359365905l-46.226318359369543-29.70751953125c-14.04541015625,21.81201171875-25.08837890625,45.721435546871362-32.551513671880457,71.177734374992724l52.754882812510914,15.490234375c5.964599609369543-20.375244140621362,14.7919921875-39.509765624992724,26.022949218739086-56.960449218742724Z" style="fill: none; stroke: #181818; stroke-linecap: round; stroke-linejoin: round; stroke-width: 15px;"/>
          </a>
          <a xlink:href="https://www.notion.so/dmmnotes/compulsive-caregiving-9c380c0928294f41ae10764aa0dee886?pvs=4">
            <path id="A3" d="M88.897216796880457,238.014892578108629l-52.754882812510914-15.490234375c-7.205322265619543,24.580810546878638-11.142333984369543,50.5634765625-11.142333984369543,77.475341796889552h55c0-21.535400390632276,3.14208984375-42.321533203132276,8.897216796880457-61.985107421889552Z" style="fill: none; stroke: #181818; stroke-linecap: round; stroke-linejoin: round; stroke-width: 15px;"/>
          </a>
          <a xlink:href="https://www.notion.so/dmmnotes/compulsive-compliance-6d08b7ea9a424ce1a72b9184b7850414?pvs=4">
            <path id="A4" d="M80,299.999999999998181H25c0,26.911865234367724,3.93701171875,52.894531249989086,11.142333984369543,77.475341796867724l52.754882812510914-15.490234375c-5.755126953130457-19.66357421875-8.897216796880457-40.447021484367724-8.897216796880457-61.985107421867724Z" style="fill: none; stroke: #181818; stroke-linecap: round; stroke-linejoin: round; stroke-width: 15px;"/>
          </a>
          <a xlink:href="https://www.notion.so/dmmnotes/sexual-supplementation-8e85f49046ef412aa229745abf7d38d3?pvs=4">
            <path id="A5" d="M88.897216796880457,361.985107421865905l-52.754882812510914,15.490234375c7.463134765630457,25.456298828132276,18.506103515630457,49.36572265625,32.551513671880457,71.175048828132276l46.223632812510914-29.704833984371362c-11.230957031260914-17.450683593760914-20.055664062510914-36.58251953125-26.020263671880457-56.960449218760914Z" style="fill: none; stroke: #181818; stroke-linecap: round; stroke-linejoin: round; stroke-width: 15px;"/>
          </a>
          <a xlink:href="https://www.notion.so/dmmnotes/compulsive-isolated-self-reliance-b321873a73fa41aaaadd7192fde856a2?pvs=4">
            <path id="A6" d="M114.917480468760914,418.945556640626819l-46.223632812510914,29.704833984371362c14.219970703119543,22.083251953121362,31.504150390630457,41.983154296871362,51.269775390630457,59.125l35.972900390619543-41.515869140621362c-15.815185546869543-13.712402343757276-29.643066406239086-29.637695312507276-41.019042968739086-47.31396484375Z" style="fill: none; stroke: #181818; stroke-linecap: round; stroke-linejoin: round; stroke-width: 15px;"/>
          </a>
          <a xlink:href="https://www.notion.so/dmmnotes/delusional-idealization-743e2420b9994a48a7cab68190432e8a?pvs=4">
            <path id="A7" d="M155.9365234375,466.259521484376819l-35.972900390619543,41.515869140621362c19.687744140619543,17.074707031239086,41.811279296869543,31.385986328128638,65.803955078119543,42.36181640625l22.83251953125-49.996826171878638c-19.20166015625-8.773681640621362-36.91015625-20.222167968742724-52.66357421875-33.880859374992724Z" style="fill: none; stroke: #181818; stroke-linecap: round; stroke-linejoin: round; stroke-width: 15px;"/>
          </a>
          <a xlink:href="https://www.notion.so/dmmnotes/externally-assembled-self-994ecb0895b844409b931d74a045c162?pvs=4">
            <path id="A8" d="M208.60009765625,500.140380859369543l-22.83251953125,49.996826171878638c23.45556640625,10.7314453125,48.659423828119543,18.275146484371362,75.098632812510914,22.04296875l7.825683593739086-54.4306640625c-21.15673828125-3.0078125-41.3251953125-9.0341796875-60.091796875-17.609130859378638Z" style="fill: none; stroke: #181818; stroke-linecap: round; stroke-linejoin: round; stroke-width: 15px;"/>
          </a>
          <a xlink:href="https://www.notion.so/dmmnotes/psychopathy-0fe4a3222d9f4fd097ab4546c9776768?pvs=4">
            <path id="AC" d="M300,519.999999999998181c-10.634765625,0-21.076171875-.794921875-31.30810546875-2.25048828125l-7.825683593739086,54.4306640625c12.788574218739086,1.823486328128638,25.843017578119543,2.81982421875,39.133789062489086,2.81982421875s26.345214843760914-.996337890621362,39.1337890625-2.81982421875l-7.825683593739086-54.4306640625c-10.229248046891371,1.45556640625-20.673339843760914,2.25048828125-31.308105468760914,2.25048828125Z" style="fill: none; stroke: #181818; stroke-linecap: round; stroke-linejoin: round; stroke-width: 15px;"/>
          </a>
          <a xlink:href="https://www.notion.so/dmmnotes/disarming-086276e599884c86b9359acf831a8b20?pvs=4">
            <g id="C2-4" data-name="C2">
              <path d="M511.10302734375,239.014648437487267c-.166015625,0-.3310546875-.041015625-.4794921875-.1220703125-.23291015625-.1279296875-.40576171875-.3427734375-.48046875-.5966796875-5.86328125-20.029296875-14.578125-39.1064453125-25.9013671875-56.7001953125-.1435546875-.22265625-.19287109375-.494140625-.13623046875-.7529296875.05615234375-.259765625.21337890625-.486328125.4365234375-.62890625l46.2236328125-29.7080078125c.1669921875-.1083984375.3544921875-.1591796875.53955078125-.1591796875.32861328125,0,.650390625.162109375.841796875.458984375,14.28271484375,22.17578125,25.2744140625,46.2109375,32.67041015625,71.4375.1552734375.529296875-.14794921875,1.0849609375-.677734375,1.2412109375l-52.7548828125,15.490234375c-.09228515625.0263671875-.18701171875.0400390625-.28173828125.0400390625Z" style="fill: none; stroke: #181818; stroke-linecap: round; stroke-linejoin: round; stroke-width: 15px;"/>
              <path d="M531.30615234375,151.346923828112267c14.048095703125,21.81201171875,25.08837890625,45.721435546875,32.551513671875,71.177734375l-52.7548828125,15.490234375c-5.964599609375-20.375244140625-14.789306640625-39.509765625-26.020263671875-56.96044921875l46.2236328125-29.70751953125M531.3043212890625,149.346679687487267c-.370361328125,0-.744873046875.10272216796875-1.0794677734375.3177490234375l-46.2236328125,29.70751953125c-.4464111328125.28692626953125-.760498046875.73944091796875-.8731689453125,1.25799560546875-.112548828125.51861572265625-.0145263671875,1.0606689453125.272705078125,1.50689697265625,11.2718505859375,17.51434326171875,19.9464111328125,36.50347900390625,25.7825927734375,56.43994140625.1490478515625.50933837890625.4945068359375.93853759765625.960205078125,1.19305419921875.2967529296875.1622314453125.6270751953125.24505615234375.959228515625.24505615234375.1890869140625,0,.3787841796875-.02679443359375.5634765625-.08099365234375l52.7548828125-15.490234375c1.0594482421875-.31109619140625,1.6663818359375-1.42205810546875,1.355712890625-2.481689453125-7.422607421875-25.3182373046875-18.45458984375-49.44097900390625-32.789306640625-71.697998046875-.3822021484375-.59356689453125-1.0260009765625-.91729736328125-1.6832275390625-.91729736328125h0Z" style="fill: none; stroke: #181818; stroke-linecap: round; stroke-linejoin: round; stroke-width: 15px;"/>
            </g>
          </a>
        </g>
        <g>
          <a xlink:href="https://www.notion.so/dmmnotes/paranoid-ae38b1e6af0c4dd08f61e0d8f6e9f05f?pvs=4">
            <path id="C8-2" data-name="C8" d="M331.308105468760914,517.749511718748181l7.825683593739086,54.4306640625c26.439208984369543-3.767822265628638,51.645751953139552-11.3115234375,75.101318359369543-22.04296875l-22.832519531239086-49.996826171878638c-18.7666015625,8.572265625-38.93505859375,14.601318359378638-60.094482421869543,17.609130859378638Z" style="fill: #938480; stroke: #181818; stroke-width: 2px;"/>
          </a>
          <a xlink:href="https://www.notion.so/dmmnotes/menacing-a5bd7149286344deba45ec15e759e579?pvs=4">
            <path id="C7-2" data-name="C7" d="M391.402587890630457,500.140380859369543l22.832519531239086,49.996826171878638c23.989990234391371-10.975830078121362,46.116210937520009-25.287109375010914,65.803955078141371-42.36181640625l-35.972900390630457-41.515869140621362c-15.753417968760914,13.65869140625-33.459228515630457,25.104492187492724-52.66357421875,33.880859374992724Z" style="fill: #958682; stroke: #181818; stroke-width: 2px;"/>
          </a>
          <a xlink:href="https://www.notion.so/dmmnotes/seductively-obsessed-with-rescue-6fb5a68f6d334bc29ccccc16d8a4e56e?pvs=4">
            <path id="C6-2" data-name="C6" d="M444.066162109380457,466.259521484376819l35.972900390630457,41.515869140621362c19.762939453119543-17.141845703128638,37.047119140619543-37.041748046878638,51.26708984375-59.125l-46.223632812510914-29.704833984371362c-11.373291015619543,17.673583984371362-25.201171874989086,33.598876953121362-41.016357421869543,47.31396484375Z" style="fill: #988985; stroke: #181818; stroke-width: 2px;"/>
          </a>
          <a xlink:href="https://www.notion.so/dmmnotes/punitively-obsessed-with-revenge-33d2e77f37774316b42bccf4a60f9688?pvs=4">
            <path id="C5-2" data-name="C5" d="M485.08251953125,418.945556640626819l46.223632812510914,29.704833984371362c14.048095703128638-21.809326171882276,25.08837890625-45.71875,32.551513671869543-71.175048828132276l-52.7548828125-15.490234375c-5.9619140625,20.377929687510914-14.789306640619543,39.509765625-26.020263671880457,56.960449218760914Z" style="fill: #9b8d89; stroke: #181818; stroke-width: 2px;"/>
          </a>
          <a xlink:href="https://www.notion.so/dmmnotes/feigned-helpless-e79a94b0498c4e109a681b7f3dcdb088?pvs=4">
            <path id="C4-2" data-name="C4" d="M520,299.999999999998181c0,21.5380859375-3.142089843739086,42.321533203117724-8.897216796869543,61.985107421867724l52.7548828125,15.490234375c7.2080078125-24.583496093739086,11.142333984369543-50.5634765625,11.142333984369543-77.475341796867724h-55Z" style="fill: #a1928f; stroke: #181818; stroke-width: 2px;"/>
          </a>
          <a xlink:href="https://www.notion.so/dmmnotes/aggressive-2d8ccce383534b9dbfc7b4b10b8a5d5c?pvs=4">
            <path id="C3-2" data-name="C3" d="M520,299.999999999998181h55c0-26.911865234389552-3.934326171869543-52.894531250010914-11.142333984369543-77.475341796889552l-52.7548828125,15.490234375c5.755126953130457,19.663574218757276,8.897216796869543,40.449707031257276,8.897216796869543,61.985107421889552Z" style="fill: #9e8f8b; stroke: #181818; stroke-width: 2px;"/>
          </a>
          <a xlink:href="https://www.notion.so/dmmnotes/threatening-348fe6a52f7a4fe69f768e98c6586932?pvs=4">
            <path id="C1-2" data-name="C1" d="M485.08251953125,181.054443359365905l46.223632812510914-29.70751953125c-3.273382764720736-5.082861773658806-6.709138808490025-10.050169557307527-10.300126729000112-14.894880224830558-18.7746979552212-25.329514182889397-56.293794455550596-26.537787805427797-76.939827532480194-2.708921059358545l-.00003597290015.000041518560465c15.815185546880457,13.71240234375,29.64306640625,29.637695312510914,41.016357421869543,47.311279296878638Z" style="fill: #988985; stroke: #181818; stroke-width: 2px;"/>
          </a>
          <a xlink:href="https://www.notion.so/dmmnotes/complaining-acceptance-8b40401a720c493ba73f7cde1567cf3d?pvs=4">
            <path id="B5-2" data-name="B5" d="M444.066162109380457,133.743164062487267l.00003597290015-.000041518560465c20.654922513649581-23.839126791601302,14.125719583838872-60.826671837301546-13.629725214659629-75.812167347630748-5.297847529700448-2.860371035199933-10.700612091030052-5.552089440428972-16.201365445751435-8.068162227547873l-22.832519531239086,49.99951171875c19.204345703119543,8.773681640617724,36.910156249989086,20.22216796875,52.66357421875,33.880859374989086Z" style="fill: #958682; stroke: #181818; stroke-width: 2px;"/>
          </a>
          <a xlink:href="https://www.notion.so/dmmnotes/sentimental-bc554363322342b1b7ca4ccc02125049?pvs=4">
            <path id="B4-2" data-name="B4" d="M391.402587890630457,99.862304687498181l22.832519531239086-49.99951171875c-23.455566406229991-10.7314453125-48.662109375-18.275146484389552-75.101318359369543-22.042968749992724l-7.825683593739086,54.433349609360448c21.159423828119543,3.0078125,41.327880859369543,9.034179687492724,60.094482421869543,17.609130859382276Z" style="fill: #92837f; stroke: #181818; stroke-width: 2px;"/>
          </a>
          <a xlink:href="https://www.notion.so/dmmnotes/comfortably-balanced-e76dc615a8b947aa915377cd02fcf716?pvs=4">
            <path id="B3-2" data-name="B3" d="M300,79.999999999998181c10.634765625,0,21.078857421869543.797607421867724,31.308105468760914,2.253173828117724l7.825683593739086-54.433349609360448c-12.788574218739086-1.823486328139552-25.843017578130457-2.819824218757276-39.1337890625-2.819824218757276s-26.34521484375.996337890617724-39.133789062489086,2.819824218757276l7.825683593739086,54.433349609360448c10.23193359375-1.45556640625,20.67333984375-2.253173828117724,31.30810546875-2.253173828117724Z" style="fill: #8f807d; stroke: #181818; stroke-width: 2px;"/>
          </a>
          <a xlink:href="https://www.notion.so/dmmnotes/accepting-317d81273fff4cd9817cdf4a88efd378?pvs=4">
            <path id="B2-2" data-name="B2" d="M268.69189453125,82.253173828115905l-7.825683593739086-54.433349609360448c-26.439208984391371,3.767822265603172-51.643066406260914,11.311523437492724-75.098632812510914,22.042968749992724l22.83251953125,49.99951171875c18.7666015625-8.574951171889552,38.93505859375-14.601318359382276,60.091796875-17.609130859382276Z" style="fill: #8c7d7a; stroke: #181818; stroke-width: 2px;"/>
          </a>
          <a xlink:href="https://www.notion.so/dmmnotes/distanced-from-past-2eabab7e9c77429f8e577f4e3e203653?pvs=4">
            <path id="B1-2" data-name="B1" d="M208.60009765625,99.862304687498181l-22.83251953125-49.99951171875c-5.501476919680499,2.516122083477967-10.904678806709853,5.207896667827299-16.20277414614975,8.068330353889905-27.754772116430104,14.984759620980185-34.283385893750165,51.971559756599163-13.6283165142504,75.809313677109458l.00003597290015.000041515868361c15.75341796875-13.658691406257276,33.4619140625-25.1044921875,52.66357421875-33.878173828117724Z" style="fill: #8a7b78; stroke: #181818; stroke-width: 2px;"/>
          </a>
          <a xlink:href="https://www.notion.so/dmmnotes/idealising-a52277f51ed14a42aae78081bb34b8be?pvs=4">
            <path id="A1-2" data-name="A1" d="M155.9365234375,133.740478515615905l-.00003597290015-.000041515868361c-20.647012023619027-23.828455119091814-58.166100839880528-22.619561246781814-76.941289455078731,2.709999997550767-3.591451962291103,4.845219097369409-7.02760574713102,9.813063194989809-10.301350353271118,14.896486830817594l46.226318359369543,29.70751953125c11.373291015641371-17.673583984367724,25.201171875010914-33.598876953128638,41.016357421880457-47.31396484375Z" style="fill: #877875; stroke: #181818; stroke-width: 2px;"/>
          </a>
          <a xlink:href="https://www.notion.so/dmmnotes/distancing-9ac690cdca654729a17a5a255944e2d1?pvs=4">
            <path id="A2-2" data-name="A2" d="M114.920166015619543,181.054443359365905l-46.226318359369543-29.70751953125c-14.04541015625,21.81201171875-25.08837890625,45.721435546871362-32.551513671880457,71.177734374992724l52.754882812510914,15.490234375c5.964599609369543-20.375244140621362,14.7919921875-39.509765624992724,26.022949218739086-56.960449218742724Z" style="fill: #847572; stroke: #181818; stroke-width: 2px;"/>
          </a>
          <a xlink:href="https://www.notion.so/dmmnotes/compulsive-caregiving-9c380c0928294f41ae10764aa0dee886?pvs=4">
            <path id="A3-2" data-name="A3" d="M88.897216796880457,238.014892578108629l-52.754882812510914-15.490234375c-7.205322265619543,24.580810546878638-11.142333984369543,50.5634765625-11.142333984369543,77.475341796889552h55c0-21.535400390632276,3.14208984375-42.321533203132276,8.897216796880457-61.985107421889552Z" style="fill: #827370; stroke: #181818; stroke-width: 2px;"/>
          </a>
          <a xlink:href="https://www.notion.so/dmmnotes/compulsive-compliance-6d08b7ea9a424ce1a72b9184b7850414?pvs=4">
            <path id="A4-2" data-name="A4" d="M80,299.999999999998181H25c0,26.911865234367724,3.93701171875,52.894531249989086,11.142333984369543,77.475341796867724l52.754882812510914-15.490234375c-5.755126953130457-19.66357421875-8.897216796880457-40.447021484367724-8.897216796880457-61.985107421867724Z" style="fill: #80716e; stroke: #181818; stroke-width: 2px;"/>
          </a>
          <a xlink:href="https://www.notion.so/dmmnotes/sexual-supplementation-8e85f49046ef412aa229745abf7d38d3?pvs=4">
            <path id="A5-2" data-name="A5" d="M88.897216796880457,361.985107421865905l-52.754882812510914,15.490234375c7.463134765630457,25.456298828132276,18.506103515630457,49.36572265625,32.551513671880457,71.175048828132276l46.223632812510914-29.704833984371362c-11.230957031260914-17.450683593760914-20.055664062510914-36.58251953125-26.020263671880457-56.960449218760914Z" style="fill: #837471; stroke: #181818; stroke-width: 2px;"/>
          </a>
          <a xlink:href="https://www.notion.so/dmmnotes/compulsive-isolated-self-reliance-b321873a73fa41aaaadd7192fde856a2?pvs=4">
            <path id="A6-2" data-name="A6" d="M114.917480468760914,418.945556640626819l-46.223632812510914,29.704833984371362c14.219970703119543,22.083251953121362,31.504150390630457,41.983154296871362,51.269775390630457,59.125l35.972900390619543-41.515869140621362c-15.815185546869543-13.712402343757276-29.643066406239086-29.637695312507276-41.019042968739086-47.31396484375Z" style="fill: #867774; stroke: #181818; stroke-width: 2px;"/>
          </a>
          <a xlink:href="https://www.notion.so/dmmnotes/delusional-idealization-743e2420b9994a48a7cab68190432e8a?pvs=4">
            <path id="A7-2" data-name="A7" d="M155.9365234375,466.259521484376819l-35.972900390619543,41.515869140621362c19.687744140619543,17.074707031239086,41.811279296869543,31.385986328128638,65.803955078119543,42.36181640625l22.83251953125-49.996826171878638c-19.20166015625-8.773681640621362-36.91015625-20.222167968742724-52.66357421875-33.880859374992724Z" style="fill: #8a7b77; stroke: #181818; stroke-width: 2px;"/>
          </a>
          <a xlink:href="https://www.notion.so/dmmnotes/externally-assembled-self-994ecb0895b844409b931d74a045c162?pvs=4">
            <path id="A8-2" data-name="A8" d="M208.60009765625,500.140380859369543l-22.83251953125,49.996826171878638c23.45556640625,10.7314453125,48.659423828119543,18.275146484371362,75.098632812510914,22.04296875l7.825683593739086-54.4306640625c-21.15673828125-3.0078125-41.3251953125-9.0341796875-60.091796875-17.609130859378638Z" style="fill: #8a7b77; stroke: #181818; stroke-width: 2px;"/>
          </a>
          <a xlink:href="https://www.notion.so/dmmnotes/psychopathy-0fe4a3222d9f4fd097ab4546c9776768?pvs=4">
            <path id="AC-2" data-name="AC" d="M300,519.999999999998181c-10.634765625,0-21.076171875-.794921875-31.30810546875-2.25048828125l-7.825683593739086,54.4306640625c12.788574218739086,1.823486328128638,25.843017578119543,2.81982421875,39.133789062489086,2.81982421875s26.345214843760914-.996337890621362,39.1337890625-2.81982421875l-7.825683593739086-54.4306640625c-10.229248046891371,1.45556640625-20.673339843760914,2.25048828125-31.308105468760914,2.25048828125Z" style="fill: #90817d; stroke: #181818; stroke-width: 2px;"/>
          </a>
          <a xlink:href="https://www.notion.so/dmmnotes/disarming-086276e599884c86b9359acf831a8b20?pvs=4">
            <g id="C2-5" data-name="C2">
              <path d="M511.10302734375,239.014648437487267c-.166015625,0-.3310546875-.041015625-.4794921875-.1220703125-.23291015625-.1279296875-.40576171875-.3427734375-.48046875-.5966796875-5.86328125-20.029296875-14.578125-39.1064453125-25.9013671875-56.7001953125-.1435546875-.22265625-.19287109375-.494140625-.13623046875-.7529296875.05615234375-.259765625.21337890625-.486328125.4365234375-.62890625l46.2236328125-29.7080078125c.1669921875-.1083984375.3544921875-.1591796875.53955078125-.1591796875.32861328125,0,.650390625.162109375.841796875.458984375,14.28271484375,22.17578125,25.2744140625,46.2109375,32.67041015625,71.4375.1552734375.529296875-.14794921875,1.0849609375-.677734375,1.2412109375l-52.7548828125,15.490234375c-.09228515625.0263671875-.18701171875.0400390625-.28173828125.0400390625Z" style="fill: #679a5a; stroke-width: 0px;"/>
              <path d="M531.30615234375,151.346923828112267c14.048095703125,21.81201171875,25.08837890625,45.721435546875,32.551513671875,71.177734375l-52.7548828125,15.490234375c-5.964599609375-20.375244140625-14.789306640625-39.509765625-26.020263671875-56.96044921875l46.2236328125-29.70751953125M531.3043212890625,149.346679687487267c-.370361328125,0-.744873046875.10272216796875-1.0794677734375.3177490234375l-46.2236328125,29.70751953125c-.4464111328125.28692626953125-.760498046875.73944091796875-.8731689453125,1.25799560546875-.112548828125.51861572265625-.0145263671875,1.0606689453125.272705078125,1.50689697265625,11.2718505859375,17.51434326171875,19.9464111328125,36.50347900390625,25.7825927734375,56.43994140625.1490478515625.50933837890625.4945068359375.93853759765625.960205078125,1.19305419921875.2967529296875.1622314453125.6270751953125.24505615234375.959228515625.24505615234375.1890869140625,0,.3787841796875-.02679443359375.5634765625-.08099365234375l52.7548828125-15.490234375c1.0594482421875-.31109619140625,1.6663818359375-1.42205810546875,1.355712890625-2.481689453125-7.422607421875-25.3182373046875-18.45458984375-49.44097900390625-32.789306640625-71.697998046875-.3822021484375-.59356689453125-1.0260009765625-.91729736328125-1.6832275390625-.91729736328125h0Z" style="fill: #181818; stroke-width: 0px;"/>
            </g>
          </a>
        </g>
      </g>
      <g>
        <path d="M530.42724609375,203.348632812487267c.140625,0,.2529296875.06640625.333984375.1982421875s.146484375.283203125.197265625.455078125c.05078125.1728515625.0810546875.349609375.0908203125.5322265625.0107421875.1826171875.015625.314453125.015625.3955078125,0,.3642578125-.0107421875.744140625-.0302734375,1.1396484375-.0205078125.39453125-.060546875.759765625-.1220703125,1.09375-.060546875.333984375-.1513671875.6181640625-.2734375.8505859375-.12109375.2333984375-.2939453125.3701171875-.5166015625.41015625-.1015625.041015625-.318359375.05078125-.6533203125.03125-.333984375-.0205078125-.734375-.05078125-1.2001953125-.091796875-.486328125-.041015625-1.0078125-.076171875-1.5654296875-.1064453125s-1.12890625-.0556640625-1.716796875-.076171875c-.587890625-.01953125-1.1552734375-.0302734375-1.7021484375-.0302734375s-1.033203125.0107421875-1.4580078125.0302734375c-.365234375.041015625-.81640625.0615234375-1.3525390625.0615234375-.537109375,0-.998046875-.0302734375-1.3828125-.091796875-.3037109375-.060546875-.537109375-.298828125-.69921875-.7138671875s-.2587890625-.90625-.2890625-1.4736328125.015625-1.16015625.13671875-1.7783203125c.1220703125-.6171875.3046875-1.1591796875.5478515625-1.6259765625.3837890625-.66796875.8203125-1.2705078125,1.306640625-1.8076171875s.9921875-1.0537109375,1.51953125-1.5498046875c.5263671875-.4970703125,1.0634765625-.998046875,1.6103515625-1.5048828125.546875-.505859375,1.083984375-1.052734375,1.6103515625-1.640625.22265625-.2431640625.4765625-.59765625.759765625-1.064453125.2841796875-.4658203125.4970703125-.931640625.638671875-1.3974609375.1826171875-.6083984375.171875-1.07421875-.0302734375-1.3984375-.203125-.3232421875-.4912109375-.521484375-.8662109375-.591796875-.375-.0712890625-.78515625-.0205078125-1.23046875.1513671875-.4462890625.1728515625-.8310546875.451171875-1.1552734375.8359375-.2841796875.3642578125-.4912109375.7900390625-.623046875,1.2763671875s-.1064453125.982421875.076171875,1.4892578125c.0400390625.1015625.0859375.2177734375.13671875.349609375.0498046875.1318359375.0859375.2578125.1064453125.3798828125.01953125.283203125-.1669921875.572265625-.5625.8662109375-.39453125.2939453125-.8564453125.505859375-1.3828125.6376953125-.52734375.1318359375-1.0439453125.142578125-1.5498046875.0302734375-.5068359375-.111328125-.861328125-.4296875-1.0634765625-.95703125-.2236328125-.7294921875-.3193359375-1.453125-.2890625-2.1728515625.0302734375-.71875.15234375-1.41796875.365234375-2.0966796875.2119140625-.6787109375.5166015625-1.322265625.9111328125-1.9296875.3955078125-.6083984375.85546875-1.14453125,1.3828125-1.611328125.5673828125-.505859375,1.220703125-.9111328125,1.9599609375-1.2158203125.7392578125-.3037109375,1.5048828125-.486328125,2.294921875-.546875s1.5654296875.0107421875,2.3251953125.212890625c.759765625.203125,1.443359375.5673828125,2.05078125,1.09375.486328125.40625.87109375.8662109375,1.1552734375,1.3828125.283203125.5166015625.486328125,1.064453125.607421875,1.6416015625.1220703125.5771484375.1669921875,1.169921875.13671875,1.77734375-.0302734375.6083984375-.1162109375,1.2158203125-.2578125,1.82421875-.2236328125.8916015625-.5625,1.701171875-1.0185546875,2.4306640625s-.9677734375,1.423828125-1.5341796875,2.08203125c-.5673828125.658203125-1.169921875,1.296875-1.80859375,1.9140625-.638671875.6181640625-1.2607421875,1.251953125-1.869140625,1.8994140625,1.96484375-.080078125,3.9404296875-.080078125,5.9267578125,0Z" style="fill: none; stroke: #181818; stroke-width: 5.631003379821777px;"/>
        <path d="M530.42724609375,203.348632812487267c.140625,0,.2529296875.06640625.333984375.1982421875s.146484375.283203125.197265625.455078125c.05078125.1728515625.0810546875.349609375.0908203125.5322265625.0107421875.1826171875.015625.314453125.015625.3955078125,0,.3642578125-.0107421875.744140625-.0302734375,1.1396484375-.0205078125.39453125-.060546875.759765625-.1220703125,1.09375-.060546875.333984375-.1513671875.6181640625-.2734375.8505859375-.12109375.2333984375-.2939453125.3701171875-.5166015625.41015625-.1015625.041015625-.318359375.05078125-.6533203125.03125-.333984375-.0205078125-.734375-.05078125-1.2001953125-.091796875-.486328125-.041015625-1.0078125-.076171875-1.5654296875-.1064453125s-1.12890625-.0556640625-1.716796875-.076171875c-.587890625-.01953125-1.1552734375-.0302734375-1.7021484375-.0302734375s-1.033203125.0107421875-1.4580078125.0302734375c-.365234375.041015625-.81640625.0615234375-1.3525390625.0615234375-.537109375,0-.998046875-.0302734375-1.3828125-.091796875-.3037109375-.060546875-.537109375-.298828125-.69921875-.7138671875s-.2587890625-.90625-.2890625-1.4736328125.015625-1.16015625.13671875-1.7783203125c.1220703125-.6171875.3046875-1.1591796875.5478515625-1.6259765625.3837890625-.66796875.8203125-1.2705078125,1.306640625-1.8076171875s.9921875-1.0537109375,1.51953125-1.5498046875c.5263671875-.4970703125,1.0634765625-.998046875,1.6103515625-1.5048828125.546875-.505859375,1.083984375-1.052734375,1.6103515625-1.640625.22265625-.2431640625.4765625-.59765625.759765625-1.064453125.2841796875-.4658203125.4970703125-.931640625.638671875-1.3974609375.1826171875-.6083984375.171875-1.07421875-.0302734375-1.3984375-.203125-.3232421875-.4912109375-.521484375-.8662109375-.591796875-.375-.0712890625-.78515625-.0205078125-1.23046875.1513671875-.4462890625.1728515625-.8310546875.451171875-1.1552734375.8359375-.2841796875.3642578125-.4912109375.7900390625-.623046875,1.2763671875s-.1064453125.982421875.076171875,1.4892578125c.0400390625.1015625.0859375.2177734375.13671875.349609375.0498046875.1318359375.0859375.2578125.1064453125.3798828125.01953125.283203125-.1669921875.572265625-.5625.8662109375-.39453125.2939453125-.8564453125.505859375-1.3828125.6376953125-.52734375.1318359375-1.0439453125.142578125-1.5498046875.0302734375-.5068359375-.111328125-.861328125-.4296875-1.0634765625-.95703125-.2236328125-.7294921875-.3193359375-1.453125-.2890625-2.1728515625.0302734375-.71875.15234375-1.41796875.365234375-2.0966796875.2119140625-.6787109375.5166015625-1.322265625.9111328125-1.9296875.3955078125-.6083984375.85546875-1.14453125,1.3828125-1.611328125.5673828125-.505859375,1.220703125-.9111328125,1.9599609375-1.2158203125.7392578125-.3037109375,1.5048828125-.486328125,2.294921875-.546875s1.5654296875.0107421875,2.3251953125.212890625c.759765625.203125,1.443359375.5673828125,2.05078125,1.09375.486328125.40625.87109375.8662109375,1.1552734375,1.3828125.283203125.5166015625.486328125,1.064453125.607421875,1.6416015625.1220703125.5771484375.1669921875,1.169921875.13671875,1.77734375-.0302734375.6083984375-.1162109375,1.2158203125-.2578125,1.82421875-.2236328125.8916015625-.5625,1.701171875-1.0185546875,2.4306640625s-.9677734375,1.423828125-1.5341796875,2.08203125c-.5673828125.658203125-1.169921875,1.296875-1.80859375,1.9140625-.638671875.6181640625-1.2607421875,1.251953125-1.869140625,1.8994140625,1.96484375-.080078125,3.9404296875-.080078125,5.9267578125,0Z" style="fill: #231f20; stroke-width: 0px;"/>
        <path d="M530.42724609375,203.348632812487267c.140625,0,.2529296875.06640625.333984375.1982421875s.146484375.283203125.197265625.455078125c.05078125.1728515625.0810546875.349609375.0908203125.5322265625.0107421875.1826171875.015625.314453125.015625.3955078125,0,.3642578125-.0107421875.744140625-.0302734375,1.1396484375-.0205078125.39453125-.060546875.759765625-.1220703125,1.09375-.060546875.333984375-.1513671875.6181640625-.2734375.8505859375-.12109375.2333984375-.2939453125.3701171875-.5166015625.41015625-.1015625.041015625-.318359375.05078125-.6533203125.03125-.333984375-.0205078125-.734375-.05078125-1.2001953125-.091796875-.486328125-.041015625-1.0078125-.076171875-1.5654296875-.1064453125s-1.12890625-.0556640625-1.716796875-.076171875c-.587890625-.01953125-1.1552734375-.0302734375-1.7021484375-.0302734375s-1.033203125.0107421875-1.4580078125.0302734375c-.365234375.041015625-.81640625.0615234375-1.3525390625.0615234375-.537109375,0-.998046875-.0302734375-1.3828125-.091796875-.3037109375-.060546875-.537109375-.298828125-.69921875-.7138671875s-.2587890625-.90625-.2890625-1.4736328125.015625-1.16015625.13671875-1.7783203125c.1220703125-.6171875.3046875-1.1591796875.5478515625-1.6259765625.3837890625-.66796875.8203125-1.2705078125,1.306640625-1.8076171875s.9921875-1.0537109375,1.51953125-1.5498046875c.5263671875-.4970703125,1.0634765625-.998046875,1.6103515625-1.5048828125.546875-.505859375,1.083984375-1.052734375,1.6103515625-1.640625.22265625-.2431640625.4765625-.59765625.759765625-1.064453125.2841796875-.4658203125.4970703125-.931640625.638671875-1.3974609375.1826171875-.6083984375.171875-1.07421875-.0302734375-1.3984375-.203125-.3232421875-.4912109375-.521484375-.8662109375-.591796875-.375-.0712890625-.78515625-.0205078125-1.23046875.1513671875-.4462890625.1728515625-.8310546875.451171875-1.1552734375.8359375-.2841796875.3642578125-.4912109375.7900390625-.623046875,1.2763671875s-.1064453125.982421875.076171875,1.4892578125c.0400390625.1015625.0859375.2177734375.13671875.349609375.0498046875.1318359375.0859375.2578125.1064453125.3798828125.01953125.283203125-.1669921875.572265625-.5625.8662109375-.39453125.2939453125-.8564453125.505859375-1.3828125.6376953125-.52734375.1318359375-1.0439453125.142578125-1.5498046875.0302734375-.5068359375-.111328125-.861328125-.4296875-1.0634765625-.95703125-.2236328125-.7294921875-.3193359375-1.453125-.2890625-2.1728515625.0302734375-.71875.15234375-1.41796875.365234375-2.0966796875.2119140625-.6787109375.5166015625-1.322265625.9111328125-1.9296875.3955078125-.6083984375.85546875-1.14453125,1.3828125-1.611328125.5673828125-.505859375,1.220703125-.9111328125,1.9599609375-1.2158203125.7392578125-.3037109375,1.5048828125-.486328125,2.294921875-.546875s1.5654296875.0107421875,2.3251953125.212890625c.759765625.203125,1.443359375.5673828125,2.05078125,1.09375.486328125.40625.87109375.8662109375,1.1552734375,1.3828125.283203125.5166015625.486328125,1.064453125.607421875,1.6416015625.1220703125.5771484375.1669921875,1.169921875.13671875,1.77734375-.0302734375.6083984375-.1162109375,1.2158203125-.2578125,1.82421875-.2236328125.8916015625-.5625,1.701171875-1.0185546875,2.4306640625s-.9677734375,1.423828125-1.5341796875,2.08203125c-.5673828125.658203125-1.169921875,1.296875-1.80859375,1.9140625-.638671875.6181640625-1.2607421875,1.251953125-1.869140625,1.8994140625,1.96484375-.080078125,3.9404296875-.080078125,5.9267578125,0Z" style="fill: #e2dddb; stroke-width: 0px;"/>
      </g>
    </g>
  </g>
</svg>