<?xml version="1.0" encoding="UTF-8"?>
<svg id="Layer_1" data-name="Layer 1" xmlns="http://www.w3.org/2000/svg" width="600" height="599.999999999994543" xmlns:xlink="http://www.w3.org/1999/xlink" viewBox="0 0 600 599.999999999994543">
  <defs>
    <linearGradient id="C5-5" data-name="C5" x1="230.325517012683122" y1="451.820654759494573" x2="367.200154766313744" y2="247.193071317845096" gradientUnits="userSpaceOnUse">
      <stop offset="0" stop-color="#91a23d"/>
      <stop offset=".035609196321219" stop-color="#979f40"/>
      <stop offset=".159034115012051" stop-color="#a79747"/>
      <stop offset=".297510885132642" stop-color="#b0934c"/>
      <stop offset=".480769230769231" stop-color="#b4924e"/>
      <stop offset=".748267662093502" stop-color="#b7904f"/>
      <stop offset=".956523834860437" stop-color="#c08b55"/>
      <stop offset="1" stop-color="#c48a57"/>
    </linearGradient>
  </defs>
  <g id="pie_with_links_-5" data-name="pie (with links)">
    <g id="pie_with_links_-6" data-name="pie (with links)">
      <g id="Pie">
        <g>
          <a xlink:href="https://www.notion.so/dmmnotes/paranoid-ae38b1e6af0c4dd08f61e0d8f6e9f05f?pvs=4">
            <path id="C8" d="M331.30810546875,517.749511718748181l7.825683593739086,54.430664062496362c26.439208984371362-3.767822265625,51.645751953141371-11.311523437496362,75.101318359371362-22.042968749996362l-22.832519531240905-49.996826171878638c-18.7666015625,8.572265625-38.93505859375,14.601318359378638-60.094482421869543,17.609130859378638Z" fill="none" stroke="#181818" stroke-linecap="round" stroke-linejoin="round" stroke-width="15"/>
          </a>
          <a xlink:href="https://www.notion.so/dmmnotes/menacing-a5bd7149286344deba45ec15e759e579?pvs=4">
            <path id="C7" d="M391.402587890619543,500.140380859369543l22.832519531240905,49.996826171878638c23.989990234389552-10.975830078117724,46.116210937520009-25.287109375010914,65.803955078139552-42.36181640625l-35.972900390630457-41.515869140617724c-15.753417968759095,13.65869140625-33.459228515630457,25.104492187489086-52.66357421875,33.880859374989086Z" fill="none" stroke="#181818" stroke-linecap="round" stroke-linejoin="round" stroke-width="15"/>
          </a>
          <a xlink:href="https://www.notion.so/dmmnotes/seductively-obsessed-with-rescue-6fb5a68f6d334bc29ccccc16d8a4e56e?pvs=4">
            <path id="C6" d="M444.066162109369543,466.259521484380457l35.972900390630457,41.515869140617724c19.762939453119543-17.141845703128638,37.047119140619543-37.041748046878638,51.26708984375-59.125l-46.223632812510914-29.704833984367724c-11.373291015619543,17.673583984367724-25.201171874989086,33.598876953117724-41.016357421869543,47.31396484375Z" fill="none" stroke="#181818" stroke-linecap="round" stroke-linejoin="round" stroke-width="15"/>
          </a>
          <a xlink:href="https://www.notion.so/dmmnotes/feigned-helpless-e79a94b0498c4e109a681b7f3dcdb088?pvs=4">
            <path id="C4" d="M519.999999999989086,300c0,21.538085937498181-3.142089843739086,42.321533203119543-8.897216796869543,61.985107421869543l52.7548828125,15.490234375c7.2080078125-24.583496093739086,11.142333984369543-50.5634765625,11.142333984369543-77.475341796869543h-55Z" fill="none" stroke="#181818" stroke-linecap="round" stroke-linejoin="round" stroke-width="15"/>
          </a>
          <a xlink:href="https://www.notion.so/dmmnotes/aggressive-2d8ccce383534b9dbfc7b4b10b8a5d5c?pvs=4">
            <path id="C3" d="M519.999999999989086,300h55c0-26.911865234391371-3.934326171869543-52.894531250012733-11.142333984369543-77.475341796891371l-52.7548828125,15.490234375c5.755126953130457,19.663574218760914,8.897216796869543,40.449707031260914,8.897216796869543,61.985107421891371Z" fill="none" stroke="#181818" stroke-linecap="round" stroke-linejoin="round" stroke-width="15"/>
          </a>
          <a xlink:href="https://www.notion.so/dmmnotes/disarming-086276e599884c86b9359acf831a8b20?pvs=4">
            <path id="C2" d="M511.102783203119543,238.014892578108629l52.7548828125-15.490234375c-7.463134765619543-25.456298828121362-18.503417968739086-49.365722656239086-32.551513671869543-71.177734374989086l-46.223632812510914,29.70751953125c11.230957031260914,17.45068359375,20.055664062510914,36.585205078117724,26.020263671880457,56.960449218739086Z" fill="none" stroke="#181818" stroke-linecap="round" stroke-linejoin="round" stroke-width="15"/>
          </a>
          <a xlink:href="https://www.notion.so/dmmnotes/threatening-348fe6a52f7a4fe69f768e98c6586932?pvs=4">
            <path id="C1" d="M485.082519531239086,181.054443359369543l46.223632812510914-29.70751953125c-3.273382764718917-5.082861773655168-6.709138808490025-10.050169557311165-10.300126728998293-14.894880224828739-18.774697955219381-25.329514182887578-56.293794455541502-26.53778780542234-76.939827532482013-2.708921059358545l-.00003597290015.000041518555008c15.815185546880457,13.71240234375,29.64306640625,29.637695312512733,41.016357421869543,47.311279296882276Z" fill="none" stroke="#181818" stroke-linecap="round" stroke-linejoin="round" stroke-width="15"/>
          </a>
          <a xlink:href="https://www.notion.so/dmmnotes/complaining-acceptance-8b40401a720c493ba73f7cde1567cf3d?pvs=4">
            <path id="B5" d="M444.066162109369543,133.743164062487267l.027581479875153-.03183349599567c20.640755630094645-23.822775815020577,14.113865767882089-60.780908008577171-13.62024398300855-75.760380523988715-5.309700301704652-2.867822708167296-10.724823288146581-5.56622239223725-16.238392184375698-8.088157073752882l-22.832519531240905,49.99951171875c19.204345703119543,8.773681640619543,36.910156249990905,20.22216796875,52.66357421875,33.880859374987267Z" fill="none" stroke="#181818" stroke-linecap="round" stroke-linejoin="round" stroke-width="15"/>
          </a>
          <a xlink:href="https://www.notion.so/dmmnotes/sentimental-bc554363322342b1b7ca4ccc02125049?pvs=4">
            <path id="B4" d="M391.402587890619543,99.8623046875l22.832519531240905-49.99951171875c-23.455566406229991-10.7314453125-48.662109375-18.275146484391371-75.101318359371362-22.042968749990905l-7.825683593739086,54.433349609360448c21.159423828119543,3.0078125,41.327880859369543,9.034179687489086,60.094482421869543,17.609130859380457Z" fill="none" stroke="#181818" stroke-linecap="round" stroke-linejoin="round" stroke-width="15"/>
          </a>
          <a xlink:href="https://www.notion.so/dmmnotes/comfortably-balanced-e76dc615a8b947aa915377cd02fcf716?pvs=4">
            <path id="B3" d="M299.999999999989086,80c10.634765625,0,21.078857421871362.797607421869543,31.308105468760914,2.253173828119543l7.825683593739086-54.433349609360448c-12.788574218739086-1.823486328139552-25.843017578128638-2.819824218759095-39.1337890625-2.819824218759095-13.290771484369543,0-26.34521484375.996337890619543-39.133789062489086,2.819824218759095l7.825683593739086,54.433349609360448c10.23193359375-1.45556640625,20.67333984375-2.253173828119543,31.30810546875-2.253173828119543Z" fill="none" stroke="#181818" stroke-linecap="round" stroke-linejoin="round" stroke-width="15"/>
          </a>
          <a xlink:href="https://www.notion.so/dmmnotes/accepting-317d81273fff4cd9817cdf4a88efd378?pvs=4">
            <path id="B2" d="M268.691894531239086,82.253173828119543l-7.825683593739086-54.433349609360448c-26.439208984389552,3.767822265599534-51.643066406260914,11.311523437490905-75.098632812510914,22.042968749990905l22.83251953125,49.99951171875c18.7666015625-8.574951171891371,38.93505859375-14.601318359380457,60.091796875-17.609130859380457Z" fill="none" stroke="#181818" stroke-linecap="round" stroke-linejoin="round" stroke-width="15"/>
          </a>
          <a xlink:href="https://www.notion.so/dmmnotes/distanced-from-past-2eabab7e9c77429f8e577f4e3e203653?pvs=4">
            <path id="B1" d="M208.600097656239086,99.8623046875l-22.83251953125-49.99951171875c-5.51259978183225,2.521209168184214-10.926526745233787,5.218781822182791-16.234907855654455,8.085682059323517-27.736256078776933,14.979534716065245-34.262863008851127,51.940807863691589-13.620088706631577,75.764372472815012l.023941874786033.027631014731014c15.75341796875-13.658691406260914,33.4619140625-25.1044921875,52.66357421875-33.878173828119543Z" fill="none" stroke="#181818" stroke-linecap="round" stroke-linejoin="round" stroke-width="15"/>
          </a>
          <a xlink:href="https://www.notion.so/dmmnotes/idealising-a52277f51ed14a42aae78081bb34b8be?pvs=4">
            <path id="A1" d="M155.936523437489086,133.740478515619543l-.00003597290015-.000041515868361c-20.647011904400642-23.828455238290189-58.166100839875071-22.619561246785452-76.941289455075093,2.709999997547129-3.591451962294741,4.845219097365771-7.02760574713102,9.813063194989809-10.301350353274756,14.896486830821232l46.226318359371362,29.70751953125c11.373291015639552-17.673583984369543,25.201171875009095-33.598876953132276,41.016357421878638-47.31396484375Z" fill="none" stroke="#181818" stroke-linecap="round" stroke-linejoin="round" stroke-width="15"/>
          </a>
          <a xlink:href="https://www.notion.so/dmmnotes/distancing-9ac690cdca654729a17a5a255944e2d1?pvs=4">
            <path id="A2" d="M114.920166015610448,181.054443359369543l-46.226318359371362-29.70751953125c-14.04541015625,21.81201171875-25.08837890625,45.721435546867724-32.551513671878638,71.177734374989086l52.754882812509095,15.490234375c5.964599609369543-20.375244140621362,14.7919921875-39.509765624989086,26.022949218740905-56.960449218739086Z" fill="none" stroke="#181818" stroke-linecap="round" stroke-linejoin="round" stroke-width="15"/>
          </a>
          <a xlink:href="https://www.notion.so/dmmnotes/compulsive-caregiving-9c380c0928294f41ae10764aa0dee886?pvs=4">
            <path id="A3" d="M88.897216796869543,238.014892578108629l-52.754882812509095-15.490234375c-7.205322265621362,24.580810546878638-11.142333984371362,50.5634765625-11.142333984371362,77.475341796891371h55c0-21.535400390630457,3.14208984375-42.321533203130457,8.897216796880457-61.985107421891371Z" fill="none" stroke="#181818" stroke-linecap="round" stroke-linejoin="round" stroke-width="15"/>
          </a>
          <a xlink:href="https://www.notion.so/dmmnotes/compulsive-compliance-6d08b7ea9a424ce1a72b9184b7850414?pvs=4">
            <path id="A4" d="M79.999999999989086,300H24.999999999989086c0,26.911865234369543,3.93701171875,52.894531249987267,11.142333984371362,77.475341796869543l52.754882812509095-15.490234375c-5.755126953130457-19.66357421875-8.897216796880457-40.447021484371362-8.897216796880457-61.985107421869543Z" fill="none" stroke="#181818" stroke-linecap="round" stroke-linejoin="round" stroke-width="15"/>
          </a>
          <a xlink:href="https://www.notion.so/dmmnotes/sexual-supplementation-8e85f49046ef412aa229745abf7d38d3?pvs=4">
            <path id="A5" d="M88.897216796869543,361.985107421869543l-52.754882812509095,15.490234375c7.463134765628638,25.456298828128638,18.506103515628638,49.36572265625,32.551513671878638,71.175048828128638l46.223632812510914-29.704833984367724c-11.230957031260914-17.450683593760914-20.055664062510914-36.58251953125-26.020263671880457-56.960449218760914Z" fill="none" stroke="#181818" stroke-linecap="round" stroke-linejoin="round" stroke-width="15"/>
          </a>
          <a xlink:href="https://www.notion.so/dmmnotes/compulsive-isolated-self-reliance-b321873a73fa41aaaadd7192fde856a2?pvs=4">
            <path id="A6" d="M114.91748046875,418.945556640630457l-46.223632812510914,29.704833984367724c14.219970703121362,22.083251953121362,31.504150390630457,41.983154296871362,51.269775390630457,59.125l35.972900390619543-41.515869140617724c-15.815185546869543-13.712402343760914-29.643066406239086-29.637695312510914-41.019042968739086-47.31396484375Z" fill="none" stroke="#181818" stroke-linecap="round" stroke-linejoin="round" stroke-width="15"/>
          </a>
          <a xlink:href="https://www.notion.so/dmmnotes/delusional-idealization-743e2420b9994a48a7cab68190432e8a?pvs=4">
            <path id="A7" d="M155.936523437489086,466.259521484380457l-35.972900390619543,41.515869140617724c19.687744140619543,17.074707031239086,41.811279296869543,31.385986328132276,65.803955078119543,42.36181640625l22.83251953125-49.996826171878638c-19.20166015625-8.773681640621362-36.91015625-20.222167968739086-52.66357421875-33.880859374989086Z" fill="none" stroke="#181818" stroke-linecap="round" stroke-linejoin="round" stroke-width="15"/>
          </a>
          <a xlink:href="https://www.notion.so/dmmnotes/externally-assembled-self-994ecb0895b844409b931d74a045c162?pvs=4">
            <path id="A8" d="M208.600097656239086,500.140380859369543l-22.83251953125,49.996826171878638c23.45556640625,10.7314453125,48.659423828121362,18.275146484371362,75.098632812510914,22.042968749996362l7.825683593739086-54.430664062496362c-21.15673828125-3.0078125-41.3251953125-9.0341796875-60.091796875-17.609130859378638Z" fill="none" stroke="#181818" stroke-linecap="round" stroke-linejoin="round" stroke-width="15"/>
          </a>
          <a xlink:href="https://www.notion.so/dmmnotes/psychopathy-0fe4a3222d9f4fd097ab4546c9776768?pvs=4">
            <path id="AC" d="M299.999999999989086,519.999999999998181c-10.634765625,0-21.076171875-.794921875-31.30810546875-2.25048828125l-7.825683593739086,54.430664062496362c12.788574218739086,1.823486328141371,25.843017578119543,2.81982421875,39.133789062489086,2.81982421875,13.290771484371362,0,26.345214843760914-.996337890608629,39.1337890625-2.81982421875l-7.825683593739086-54.430664062496362c-10.229248046889552,1.45556640625-20.673339843760914,2.25048828125-31.308105468760914,2.25048828125Z" fill="none" stroke="#181818" stroke-linecap="round" stroke-linejoin="round" stroke-width="15"/>
          </a>
          <a xlink:href="https://www.notion.so/dmmnotes/punitively-obsessed-with-revenge-33d2e77f37774316b42bccf4a60f9688?pvs=4">
            <g id="C5">
              <path d="M531.3056640625,449.650390625005457c-.185546875,0-.3720703125-.05078125-.5400390625-.1591796875l-46.224609375-29.705078125c-.22265625-.142578125-.3798828125-.369140625-.4365234375-.62890625-.0556640625-.2587890625-.0068359375-.5302734375.13671875-.7529296875,11.330078125-17.603515625,20.0439453125-36.6796875,25.9013671875-56.7001953125.0751953125-.25390625.2470703125-.46875.48046875-.5966796875.1484375-.0810546875.3134765625-.1220703125.4794921875-.1220703125.0947265625,0,.189453125.013671875.28125.0400390625l52.7548828125,15.490234375c.5302734375.15625.833984375.7119140625.6787109375,1.2412109375-7.396484375,25.2275390625-18.3876953125,49.26171875-32.669921875,71.4345703125-.19140625.296875-.5126953125.458984375-.841796875.458984375Z" fill="none" stroke="#181818" stroke-linecap="round" stroke-linejoin="round" stroke-width="15"/>
              <path d="M511.102783203125,361.985107421880457l52.7548828125,15.490234375c-7.463134765625,25.456298828125-18.50341796875,49.36572265625-32.551513671875,71.175048828125l-46.2236328125-29.704833984375c11.23095703125-17.45068359375,20.058349609375-36.58251953125,26.020263671875-56.96044921875M511.102783203125,359.985107421880457c-.332275390625,0-.6624755859375.08282470703125-.9593505859375.2451171875-.4656982421875.25457763671875-.8111572265625.683837890625-.960205078125,1.19329833984375-5.829833984375,19.92657470703125-14.50439453125,38.9156494140625-25.782470703125,56.43963623046875-.2872314453125.44622802734375-.38525390625.98834228515625-.272705078125,1.50689697265625.1126708984375.5185546875.4267578125.97113037109375.8731689453125,1.25799560546875l46.2236328125,29.70489501953125c.3345947265625.2149658203125.709228515625.31768798828125,1.0794677734375.31768798828125.6572265625,0,1.3009033203125-.3236083984375,1.6832275390625-.917236328125,14.334228515625-22.2535400390625,25.3662109375-46.3753662109375,32.789306640625-71.69537353515625.3106689453125-1.05963134765625-.2962646484375-2.1705322265625-1.355712890625-2.481689453125l-52.7548828125-15.490234375c-.1846923828125-.05419921875-.3743896484375-.08099365234375-.5634765625-.08099365234375h0Z" fill="none" stroke="#181818" stroke-linecap="round" stroke-linejoin="round" stroke-width="15"/>
            </g>
          </a>
        </g>
        <g>
          <a xlink:href="https://www.notion.so/dmmnotes/paranoid-ae38b1e6af0c4dd08f61e0d8f6e9f05f?pvs=4">
            <path id="C8-2" data-name="C8" d="M331.30810546875,517.749511718748181l7.825683593739086,54.430664062496362c26.439208984371362-3.767822265625,51.645751953141371-11.311523437496362,75.101318359371362-22.042968749996362l-22.832519531240905-49.996826171878638c-18.7666015625,8.572265625-38.93505859375,14.601318359378638-60.094482421869543,17.609130859378638Z" fill="#8f807d" stroke="#181818" stroke-linecap="round" stroke-linejoin="round" stroke-width="2"/>
          </a>
          <a xlink:href="https://www.notion.so/dmmnotes/menacing-a5bd7149286344deba45ec15e759e579?pvs=4">
            <path id="C7-2" data-name="C7" d="M391.402587890619543,500.140380859369543l22.832519531240905,49.996826171878638c23.989990234389552-10.975830078117724,46.116210937520009-25.287109375010914,65.803955078139552-42.36181640625l-35.972900390630457-41.515869140617724c-15.753417968759095,13.65869140625-33.459228515630457,25.104492187489086-52.66357421875,33.880859374989086Z" fill="#8f807d" stroke="#181818" stroke-linecap="round" stroke-linejoin="round" stroke-width="2"/>
          </a>
          <a xlink:href="https://www.notion.so/dmmnotes/seductively-obsessed-with-rescue-6fb5a68f6d334bc29ccccc16d8a4e56e?pvs=4">
            <path id="C6-2" data-name="C6" d="M444.066162109369543,466.259521484380457l35.972900390630457,41.515869140617724c19.762939453119543-17.141845703128638,37.047119140619543-37.041748046878638,51.26708984375-59.125l-46.223632812510914-29.704833984367724c-11.373291015619543,17.673583984367724-25.201171874989086,33.598876953117724-41.016357421869543,47.31396484375Z" fill="#8f807d" stroke="#181818" stroke-linecap="round" stroke-linejoin="round" stroke-width="2"/>
          </a>
          <a xlink:href="https://www.notion.so/dmmnotes/feigned-helpless-e79a94b0498c4e109a681b7f3dcdb088?pvs=4">
            <path id="C4-2" data-name="C4" d="M519.999999999989086,300c0,21.538085937498181-3.142089843739086,42.321533203119543-8.897216796869543,61.985107421869543l52.7548828125,15.490234375c7.2080078125-24.583496093739086,11.142333984369543-50.5634765625,11.142333984369543-77.475341796869543h-55Z" fill="#8f807d" stroke="#181818" stroke-linecap="round" stroke-linejoin="round" stroke-width="2"/>
          </a>
          <a xlink:href="https://www.notion.so/dmmnotes/aggressive-2d8ccce383534b9dbfc7b4b10b8a5d5c?pvs=4">
            <path id="C3-2" data-name="C3" d="M519.999999999989086,300h55c0-26.911865234391371-3.934326171869543-52.894531250012733-11.142333984369543-77.475341796891371l-52.7548828125,15.490234375c5.755126953130457,19.663574218760914,8.897216796869543,40.449707031260914,8.897216796869543,61.985107421891371Z" fill="#8f807d" stroke="#181818" stroke-linecap="round" stroke-linejoin="round" stroke-width="2"/>
          </a>
          <a xlink:href="https://www.notion.so/dmmnotes/disarming-086276e599884c86b9359acf831a8b20?pvs=4">
            <path id="C2-2" data-name="C2" d="M511.102783203119543,238.014892578108629l52.7548828125-15.490234375c-7.463134765619543-25.456298828121362-18.503417968739086-49.365722656239086-32.551513671869543-71.177734374989086l-46.223632812510914,29.70751953125c11.230957031260914,17.45068359375,20.055664062510914,36.585205078117724,26.020263671880457,56.960449218739086Z" fill="#8f807d" stroke="#181818" stroke-linecap="round" stroke-linejoin="round" stroke-width="2"/>
          </a>
          <a xlink:href="https://www.notion.so/dmmnotes/threatening-348fe6a52f7a4fe69f768e98c6586932?pvs=4">
            <path id="C1-2" data-name="C1" d="M485.082519531239086,181.054443359369543l46.223632812510914-29.70751953125c-3.273382764718917-5.082861773655168-6.709138808490025-10.050169557311165-10.300126728998293-14.894880224828739-18.774697955219381-25.329514182887578-56.293794455541502-26.53778780542234-76.939827532482013-2.708921059358545l-.00003597290015.000041518555008c15.815185546880457,13.71240234375,29.64306640625,29.637695312512733,41.016357421869543,47.311279296882276Z" fill="#8f807d" stroke="#181818" stroke-linecap="round" stroke-linejoin="round" stroke-width="2"/>
          </a>
          <a xlink:href="https://www.notion.so/dmmnotes/complaining-acceptance-8b40401a720c493ba73f7cde1567cf3d?pvs=4">
            <path id="B5-2" data-name="B5" d="M444.066162109369543,133.743164062487267l.027581479875153-.03183349599567c20.640755630094645-23.822775815020577,14.113865767882089-60.780908008577171-13.62024398300855-75.760380523988715-5.309700301704652-2.867822708167296-10.724823288146581-5.56622239223725-16.238392184375698-8.088157073752882l-22.832519531240905,49.99951171875c19.204345703119543,8.773681640619543,36.910156249990905,20.22216796875,52.66357421875,33.880859374987267Z" fill="#8f807d" stroke="#181818" stroke-linecap="round" stroke-linejoin="round" stroke-width="2"/>
          </a>
          <a xlink:href="https://www.notion.so/dmmnotes/sentimental-bc554363322342b1b7ca4ccc02125049?pvs=4">
            <path id="B4-2" data-name="B4" d="M391.402587890619543,99.8623046875l22.832519531240905-49.99951171875c-23.455566406229991-10.7314453125-48.662109375-18.275146484391371-75.101318359371362-22.042968749990905l-7.825683593739086,54.433349609360448c21.159423828119543,3.0078125,41.327880859369543,9.034179687489086,60.094482421869543,17.609130859380457Z" fill="#8f807d" stroke="#181818" stroke-linecap="round" stroke-linejoin="round" stroke-width="2"/>
          </a>
          <a xlink:href="https://www.notion.so/dmmnotes/comfortably-balanced-e76dc615a8b947aa915377cd02fcf716?pvs=4">
            <path id="B3-2" data-name="B3" d="M299.999999999989086,80c10.634765625,0,21.078857421871362.797607421869543,31.308105468760914,2.253173828119543l7.825683593739086-54.433349609360448c-12.788574218739086-1.823486328139552-25.843017578128638-2.819824218759095-39.1337890625-2.819824218759095-13.290771484369543,0-26.34521484375.996337890619543-39.133789062489086,2.819824218759095l7.825683593739086,54.433349609360448c10.23193359375-1.45556640625,20.67333984375-2.253173828119543,31.30810546875-2.253173828119543Z" fill="#8f807d" stroke="#181818" stroke-linecap="round" stroke-linejoin="round" stroke-width="2"/>
          </a>
          <a xlink:href="https://www.notion.so/dmmnotes/accepting-317d81273fff4cd9817cdf4a88efd378?pvs=4">
            <path id="B2-2" data-name="B2" d="M268.691894531239086,82.253173828119543l-7.825683593739086-54.433349609360448c-26.439208984389552,3.767822265599534-51.643066406260914,11.311523437490905-75.098632812510914,22.042968749990905l22.83251953125,49.99951171875c18.7666015625-8.574951171891371,38.93505859375-14.601318359380457,60.091796875-17.609130859380457Z" fill="#8f807d" stroke="#181818" stroke-linecap="round" stroke-linejoin="round" stroke-width="2"/>
          </a>
          <a xlink:href="https://www.notion.so/dmmnotes/distanced-from-past-2eabab7e9c77429f8e577f4e3e203653?pvs=4">
            <path id="B1-2" data-name="B1" d="M208.600097656239086,99.8623046875l-22.83251953125-49.99951171875c-5.51259978183225,2.521209168184214-10.926526745233787,5.218781822182791-16.234907855654455,8.085682059323517-27.736256078776933,14.979534716065245-34.262863008851127,51.940807863691589-13.620088706631577,75.764372472815012l.023941874786033.027631014731014c15.75341796875-13.658691406260914,33.4619140625-25.1044921875,52.66357421875-33.878173828119543Z" fill="#8f807d" stroke="#181818" stroke-linecap="round" stroke-linejoin="round" stroke-width="2"/>
          </a>
          <a xlink:href="https://www.notion.so/dmmnotes/idealising-a52277f51ed14a42aae78081bb34b8be?pvs=4">
            <path id="A1-2" data-name="A1" d="M155.936523437489086,133.740478515619543l-.00003597290015-.000041515868361c-20.647011904400642-23.828455238290189-58.166100839875071-22.619561246785452-76.941289455075093,2.709999997547129-3.591451962294741,4.845219097365771-7.02760574713102,9.813063194989809-10.301350353274756,14.896486830821232l46.226318359371362,29.70751953125c11.373291015639552-17.673583984369543,25.201171875009095-33.598876953132276,41.016357421878638-47.31396484375Z" fill="#8f807d" stroke="#181818" stroke-linecap="round" stroke-linejoin="round" stroke-width="2"/>
          </a>
          <a xlink:href="https://www.notion.so/dmmnotes/distancing-9ac690cdca654729a17a5a255944e2d1?pvs=4">
            <path id="A2-2" data-name="A2" d="M114.920166015610448,181.054443359369543l-46.226318359371362-29.70751953125c-14.04541015625,21.81201171875-25.08837890625,45.721435546867724-32.551513671878638,71.177734374989086l52.754882812509095,15.490234375c5.964599609369543-20.375244140621362,14.7919921875-39.509765624989086,26.022949218740905-56.960449218739086Z" fill="#8f807d" stroke="#181818" stroke-linecap="round" stroke-linejoin="round" stroke-width="2"/>
          </a>
          <a xlink:href="https://www.notion.so/dmmnotes/compulsive-caregiving-9c380c0928294f41ae10764aa0dee886?pvs=4">
            <path id="A3-2" data-name="A3" d="M88.897216796869543,238.014892578108629l-52.754882812509095-15.490234375c-7.205322265621362,24.580810546878638-11.142333984371362,50.5634765625-11.142333984371362,77.475341796891371h55c0-21.535400390630457,3.14208984375-42.321533203130457,8.897216796880457-61.985107421891371Z" fill="#8f807d" stroke="#181818" stroke-linecap="round" stroke-linejoin="round" stroke-width="2"/>
          </a>
          <a xlink:href="https://www.notion.so/dmmnotes/compulsive-compliance-6d08b7ea9a424ce1a72b9184b7850414?pvs=4">
            <path id="A4-2" data-name="A4" d="M79.999999999989086,300H24.999999999989086c0,26.911865234369543,3.93701171875,52.894531249987267,11.142333984371362,77.475341796869543l52.754882812509095-15.490234375c-5.755126953130457-19.66357421875-8.897216796880457-40.447021484371362-8.897216796880457-61.985107421869543Z" fill="#8f807d" stroke="#181818" stroke-linecap="round" stroke-linejoin="round" stroke-width="2"/>
          </a>
          <a xlink:href="https://www.notion.so/dmmnotes/sexual-supplementation-8e85f49046ef412aa229745abf7d38d3?pvs=4">
            <path id="A5-2" data-name="A5" d="M88.897216796869543,361.985107421869543l-52.754882812509095,15.490234375c7.463134765628638,25.456298828128638,18.506103515628638,49.36572265625,32.551513671878638,71.175048828128638l46.223632812510914-29.704833984367724c-11.230957031260914-17.450683593760914-20.055664062510914-36.58251953125-26.020263671880457-56.960449218760914Z" fill="#8f807d" stroke="#181818" stroke-linecap="round" stroke-linejoin="round" stroke-width="2"/>
          </a>
          <a xlink:href="https://www.notion.so/dmmnotes/compulsive-isolated-self-reliance-b321873a73fa41aaaadd7192fde856a2?pvs=4">
            <path id="A6-2" data-name="A6" d="M114.91748046875,418.945556640630457l-46.223632812510914,29.704833984367724c14.219970703121362,22.083251953121362,31.504150390630457,41.983154296871362,51.269775390630457,59.125l35.972900390619543-41.515869140617724c-15.815185546869543-13.712402343760914-29.643066406239086-29.637695312510914-41.019042968739086-47.31396484375Z" fill="#8f807d" stroke="#181818" stroke-linecap="round" stroke-linejoin="round" stroke-width="2"/>
          </a>
          <a xlink:href="https://www.notion.so/dmmnotes/delusional-idealization-743e2420b9994a48a7cab68190432e8a?pvs=4">
            <path id="A7-2" data-name="A7" d="M155.936523437489086,466.259521484380457l-35.972900390619543,41.515869140617724c19.687744140619543,17.074707031239086,41.811279296869543,31.385986328132276,65.803955078119543,42.36181640625l22.83251953125-49.996826171878638c-19.20166015625-8.773681640621362-36.91015625-20.222167968739086-52.66357421875-33.880859374989086Z" fill="#8f807d" stroke="#181818" stroke-linecap="round" stroke-linejoin="round" stroke-width="2"/>
          </a>
          <a xlink:href="https://www.notion.so/dmmnotes/externally-assembled-self-994ecb0895b844409b931d74a045c162?pvs=4">
            <path id="A8-2" data-name="A8" d="M208.600097656239086,500.140380859369543l-22.83251953125,49.996826171878638c23.45556640625,10.7314453125,48.659423828121362,18.275146484371362,75.098632812510914,22.042968749996362l7.825683593739086-54.430664062496362c-21.15673828125-3.0078125-41.3251953125-9.0341796875-60.091796875-17.609130859378638Z" fill="#8f807d" stroke="#181818" stroke-linecap="round" stroke-linejoin="round" stroke-width="2"/>
          </a>
          <a xlink:href="https://www.notion.so/dmmnotes/psychopathy-0fe4a3222d9f4fd097ab4546c9776768?pvs=4">
            <path id="AC-2" data-name="AC" d="M299.999999999989086,519.999999999998181c-10.634765625,0-21.076171875-.794921875-31.30810546875-2.25048828125l-7.825683593739086,54.430664062496362c12.788574218739086,1.823486328141371,25.843017578119543,2.81982421875,39.133789062489086,2.81982421875,13.290771484371362,0,26.345214843760914-.996337890608629,39.1337890625-2.81982421875l-7.825683593739086-54.430664062496362c-10.229248046889552,1.45556640625-20.673339843760914,2.25048828125-31.308105468760914,2.25048828125Z" fill="#8f807d" stroke="#181818" stroke-linecap="round" stroke-linejoin="round" stroke-width="2"/>
          </a>
          <a xlink:href="https://www.notion.so/dmmnotes/punitively-obsessed-with-revenge-33d2e77f37774316b42bccf4a60f9688?pvs=4">
            <g id="C5-2" data-name="C5">
              <path d="M531.3056640625,449.650390625005457c-.185546875,0-.3720703125-.05078125-.5400390625-.1591796875l-46.224609375-29.705078125c-.22265625-.142578125-.3798828125-.369140625-.4365234375-.62890625-.0556640625-.2587890625-.0068359375-.5302734375.13671875-.7529296875,11.330078125-17.603515625,20.0439453125-36.6796875,25.9013671875-56.7001953125.0751953125-.25390625.2470703125-.46875.48046875-.5966796875.1484375-.0810546875.3134765625-.1220703125.4794921875-.1220703125.0947265625,0,.189453125.013671875.28125.0400390625l52.7548828125,15.490234375c.5302734375.15625.833984375.7119140625.6787109375,1.2412109375-7.396484375,25.2275390625-18.3876953125,49.26171875-32.669921875,71.4345703125-.19140625.296875-.5126953125.458984375-.841796875.458984375Z" fill="#b4924e" stroke-width="0"/>
              <path d="M511.102783203125,361.985107421880457l52.7548828125,15.490234375c-7.463134765625,25.456298828125-18.50341796875,49.36572265625-32.551513671875,71.175048828125l-46.2236328125-29.704833984375c11.23095703125-17.45068359375,20.058349609375-36.58251953125,26.020263671875-56.96044921875M511.102783203125,359.985107421880457c-.332275390625,0-.6624755859375.08282470703125-.9593505859375.2451171875-.4656982421875.25457763671875-.8111572265625.683837890625-.960205078125,1.19329833984375-5.829833984375,19.92657470703125-14.50439453125,38.9156494140625-25.782470703125,56.43963623046875-.2872314453125.44622802734375-.38525390625.98834228515625-.272705078125,1.50689697265625.1126708984375.5185546875.4267578125.97113037109375.8731689453125,1.25799560546875l46.2236328125,29.70489501953125c.3345947265625.2149658203125.709228515625.31768798828125,1.0794677734375.31768798828125.6572265625,0,1.3009033203125-.3236083984375,1.6832275390625-.917236328125,14.334228515625-22.2535400390625,25.3662109375-46.3753662109375,32.789306640625-71.69537353515625.3106689453125-1.05963134765625-.2962646484375-2.1705322265625-1.355712890625-2.481689453125l-52.7548828125-15.490234375c-.1846923828125-.05419921875-.3743896484375-.08099365234375-.5634765625-.08099365234375h0Z" fill="#181818" stroke-width="0"/>
            </g>
          </a>
        </g>
      </g>
      <a xlink:href="https://www.notion.so/dmmnotes/C5-33d2e77f37774316b42bccf4a60f9688?pvs=4#a5a513272b094a408fc2b46c8337e794">
        <g id="C5-3" data-name="C5">
          <g id="C5-4" data-name="C5">
            <path d="M300,414.706054687494543c-36.970703125,0-67.048828125-30.078125-67.048828125-67.048828125s30.078125-67.04833984375,67.048828125-67.04833984375,67.048828125,30.07763671875,67.048828125,67.04833984375-30.078125,67.048828125-67.048828125,67.048828125Z" fill="url(#C5-5)" stroke-width="0"/>
            <path d="M300,289.108734130853918c32.33544921875,0,58.548583984380457,26.213134765625,58.548828125,58.548675537109375,0,32.335601806640625-26.213134765619543,58.54876708984375-58.548828125,58.54876708984375-32.33544921875,0-58.548583984369543-26.213104248046875-58.548828125-58.54864501953125,0-32.335601806640625,26.213134765630457-58.548797607421875,58.548828125-58.548797607421875M300,272.108734130853918c-41.65771484375,0-75.548828125,33.891082763671875-75.548828125,75.548797607421875.000244140630457,41.65771484375,33.891357421880457,75.54864501953125,75.548828125,75.54864501953125,41.65771484375,0,75.548828125-33.89105224609375,75.548828125-75.54876708984375-.000244140619543-41.65771484375-33.891357421869543-75.548675537109375-75.548828125-75.548675537109375h0Z" fill="#181818" stroke-width="0"/>
          </g>
          <a xlink:href="https://www.notion.so/dmmnotes/C5-33d2e77f37774316b42bccf4a60f9688?pvs=4#a5a513272b094a408fc2b46c8337e794">
            <g>
              <g>
                <path d="M276.372558593753638,243.247070312487267c.10302734375-3.0341796875-.39208984375-5.310546875-1.4912109375-6.8291015625-1.09912109375-1.5166015625-2.48779296875-2.4580078125-4.16064453125-2.826171875-1.67529296875-.365234375-3.48095703125-.181640625-5.41650390625.5498046875-1.93798828125.7333984375-3.689453125,1.7802734375-5.25927734375,3.1396484375-3.6650390625,3.1396484375-6.62109375,7.1435546875-8.87060546875,12.0107421875-2.251953125,4.8662109375-3.76806640625,9.96875-4.55322265625,15.3076171875-.78466796875,5.337890625-.8388671875,10.6513671875-.15673828125,15.935546875.67919921875,5.2861328125,2.1708984375,9.8662109375,4.474609375,13.7373046875,1.46435546875,2.51171875,3.21826171875,4.37109375,5.25927734375,5.5732421875,2.041015625,1.2041015625,4.2119140625,1.8837890625,6.515625,2.041015625,2.30078125.1572265625,4.57763671875-.208984375,6.82958984375-1.0986328125,2.24951171875-.888671875,4.26318359375-2.22265625,6.04443359375-4.00390625,2.72021484375-2.720703125,4.91845703125-4.65625,6.59375-5.80859375,1.67333984375-1.1513671875,3.55712890625-1.779296875,5.65234375-1.884765625,5.9658203125,0,9.91552734375,1.67578125,11.853515625,5.0244140625,1.935546875,3.3505859375,2.0654296875,7.4326171875.39208984375,12.24609375-1.361328125,3.767578125-3.42919921875,7.064453125-6.201171875,9.890625-2.7744140625,2.826171875-5.9931640625,5.1025390625-9.65576171875,6.830078125-3.6650390625,1.7265625-7.58984375,2.9306640625-11.77490234375,3.6103515625-4.1875.6796875-8.32080078125.8642578125-12.40283203125.5498046875s-7.95556640625-1.177734375-11.6181640625-2.5908203125c-3.6650390625-1.4130859375-6.80517578125-3.3212890625-9.419921875-5.73046875-2.931640625-2.720703125-5.4951171875-5.8330078125-7.69287109375-9.3408203125-2.1982421875-3.505859375-4.03076171875-7.22265625-5.4951171875-11.1474609375-1.46728515625-3.9248046875-2.56591796875-8.0068359375-3.296875-12.24609375-.73388671875-4.2392578125-1.09912109375-8.501953125-1.09912109375-12.794921875.20849609375-9.62890625,2.24951171875-18.943359375,6.123046875-27.9462890625,3.87109375-9.0009765625,9.00048828125-16.8505859375,15.3857421875-23.5498046875,2.92919921875-3.03515625,6.41015625-5.625,10.4404296875-7.771484375,4.0283203125-2.14453125,8.1640625-3.533203125,12.4033203125-4.1611328125,4.23876953125-.6279296875,8.3994140625-.4169921875,12.4814453125.6279296875,4.08203125,1.0478515625,7.69287109375,3.24609375,10.8330078125,6.5947265625,2.40625,2.51171875,4.341796875,5.3916015625,5.80908203125,8.634765625,1.46435546875,3.2451171875,2.5634765625,6.4912109375,3.296875,9.7333984375.4169921875,2.095703125.60107421875,4.08203125.54931640625,5.966796875-.0537109375,1.8837890625-.498046875,3.6650390625-1.33447265625,5.337890625-1.15283203125,2.0947265625-2.93115234375,3.5859375-5.337890625,4.474609375-2.4091796875.890625-4.78857421875,1.1767578125-7.1435546875.86328125-2.35498046875-.314453125-4.39599609375-1.2294921875-6.123046875-2.748046875-1.72705078125-1.515625-2.5390625-3.583984375-2.43359375-6.201171875Z" fill="none" stroke="#181818" stroke-linecap="round" stroke-linejoin="round" stroke-width="33"/>
                <path d="M369.628906250003638,265.227539062487267c3.2421875,4.3955078125,5.4404296875,9.2109375,6.59375,14.443359375,1.150390625,5.2353515625,1.2802734375,10.4404296875.392578125,15.6220703125-.890625,5.1806640625-2.669921875,10.1533203125-5.337890625,14.9150390625-2.669921875,4.763671875-6.2021484375,8.767578125-10.59765625,12.009765625-5.966796875,4.396484375-12.037109375,6.830078125-18.212890625,7.30078125s-12.037109375-.8115234375-17.583984375-3.8466796875c-3.6640625-1.8837890625-6.8046875-4.2900390625-9.419921875-7.2216796875-2.6171875-2.9287109375-4.0302734375-6.59375-4.23828125-10.990234375-.10546875-2.40625.392578125-4.7099609375,1.4912109375-6.908203125,1.0986328125-2.197265625,2.5361328125-3.9248046875,4.3173828125-5.1806640625,1.779296875-1.255859375,3.71484375-1.8564453125,5.80859375-1.8056640625,2.09375.0546875,4.134765625,1.1259765625,6.123046875,3.21875,1.46484375,1.8837890625,3.349609375,3.5322265625,5.65234375,4.9453125,2.30078125,1.4130859375,4.8125,1.859375,7.5361328125,1.3349609375,5.232421875-.8369140625,8.73828125-4.4482421875,10.5185546875-10.8330078125.41796875-1.7783203125.57421875-3.6357421875.4716796875-5.57421875-.10546875-1.9345703125-.498046875-3.740234375-1.177734375-5.416015625-.6826171875-1.6728515625-1.7021484375-3.1650390625-3.0615234375-4.474609375-1.361328125-1.3076171875-3.140625-2.22265625-5.337890625-2.7470703125-3.037109375-.8369140625-6.2802734375-1.1240234375-9.734375-.8642578125-3.453125.2626953125-6.490234375.8125-9.10546875,1.6484375-.9423828125.2119140625-2.43359375.2626953125-4.474609375.1572265625-2.041015625-.1025390625-3.638671875-.1572265625-4.7890625-.1572265625-1.255859375-.1025390625-2.330078125-.73046875-3.21875-1.8837890625-.8896484375-1.150390625-1.5693359375-2.51171875-2.041015625-4.08203125-.470703125-1.5693359375-.759765625-3.1396484375-.86328125-4.7099609375-.10546875-1.5693359375.052734375-2.9287109375.4716796875-4.08203125.3134765625-1.044921875.5498046875-3.0615234375.7060546875-6.0439453125.1572265625-2.9833984375.287109375-6.33203125.392578125-10.0478515625.103515625-3.71484375.181640625-7.4580078125.236328125-11.2255859375.05078125-3.7685546875.12890625-6.908203125.234375-9.419921875.103515625-1.9873046875.392578125-3.3486328125.86328125-4.08203125.4716796875-.7314453125,1.177734375-1.1513671875,2.1201171875-1.2568359375.9423828125-.1025390625,2.0927734375-.0244140625,3.4541015625.236328125,1.359375.26171875,2.9296875.4462890625,4.7099609375.548828125,7.2216796875.525390625,14.46875.890625,21.7451171875,1.099609375,7.2734375.2109375,14.73046875.10546875,22.3720703125-.314453125,1.255859375-.1025390625,2.3798828125-.1025390625,3.3759765625,0,.9921875.10546875,1.69921875.2626953125,2.119140625.470703125.5224609375.314453125,1.01953125.8125,1.4912109375,1.4921875.4716796875.681640625.8095703125,1.75390625,1.0205078125,3.2177734375.208984375,1.884765625.287109375,3.92578125.2353515625,6.123046875-.0537109375,2.1982421875-.2900390625,4.2666015625-.7060546875,6.2021484375-.419921875,1.9375-1.0478515625,3.6376953125-1.884765625,5.1025390625-.837890625,1.466796875-1.8828125,2.3544921875-3.1396484375,2.6689453125-.6279296875.2109375-1.9384765625.3408203125-3.9248046875.392578125-1.990234375.0537109375-4.396484375.0263671875-7.22265625-.0791015625-10.046875-.3134765625-20.095703125-1.255859375-30.1435546875-2.8251953125v9.576171875c8.7919921875-1.4638671875,16.8232421875-1.044921875,24.099609375,1.2568359375,7.2734375,2.302734375,13.1611328125,6.3330078125,17.6630859375,12.0888671875Z" fill="none" stroke="#181818" stroke-linecap="round" stroke-linejoin="round" stroke-width="33"/>
              </g>
              <g>
                <path d="M276.372558593753638,243.247070312487267c.10302734375-3.0341796875-.39208984375-5.310546875-1.4912109375-6.8291015625-1.09912109375-1.5166015625-2.48779296875-2.4580078125-4.16064453125-2.826171875-1.67529296875-.365234375-3.48095703125-.181640625-5.41650390625.5498046875-1.93798828125.7333984375-3.689453125,1.7802734375-5.25927734375,3.1396484375-3.6650390625,3.1396484375-6.62109375,7.1435546875-8.87060546875,12.0107421875-2.251953125,4.8662109375-3.76806640625,9.96875-4.55322265625,15.3076171875-.78466796875,5.337890625-.8388671875,10.6513671875-.15673828125,15.935546875.67919921875,5.2861328125,2.1708984375,9.8662109375,4.474609375,13.7373046875,1.46435546875,2.51171875,3.21826171875,4.37109375,5.25927734375,5.5732421875,2.041015625,1.2041015625,4.2119140625,1.8837890625,6.515625,2.041015625,2.30078125.1572265625,4.57763671875-.208984375,6.82958984375-1.0986328125,2.24951171875-.888671875,4.26318359375-2.22265625,6.04443359375-4.00390625,2.72021484375-2.720703125,4.91845703125-4.65625,6.59375-5.80859375,1.67333984375-1.1513671875,3.55712890625-1.779296875,5.65234375-1.884765625,5.9658203125,0,9.91552734375,1.67578125,11.853515625,5.0244140625,1.935546875,3.3505859375,2.0654296875,7.4326171875.39208984375,12.24609375-1.361328125,3.767578125-3.42919921875,7.064453125-6.201171875,9.890625-2.7744140625,2.826171875-5.9931640625,5.1025390625-9.65576171875,6.830078125-3.6650390625,1.7265625-7.58984375,2.9306640625-11.77490234375,3.6103515625-4.1875.6796875-8.32080078125.8642578125-12.40283203125.5498046875s-7.95556640625-1.177734375-11.6181640625-2.5908203125c-3.6650390625-1.4130859375-6.80517578125-3.3212890625-9.419921875-5.73046875-2.931640625-2.720703125-5.4951171875-5.8330078125-7.69287109375-9.3408203125-2.1982421875-3.505859375-4.03076171875-7.22265625-5.4951171875-11.1474609375-1.46728515625-3.9248046875-2.56591796875-8.0068359375-3.296875-12.24609375-.73388671875-4.2392578125-1.09912109375-8.501953125-1.09912109375-12.794921875.20849609375-9.62890625,2.24951171875-18.943359375,6.123046875-27.9462890625,3.87109375-9.0009765625,9.00048828125-16.8505859375,15.3857421875-23.5498046875,2.92919921875-3.03515625,6.41015625-5.625,10.4404296875-7.771484375,4.0283203125-2.14453125,8.1640625-3.533203125,12.4033203125-4.1611328125,4.23876953125-.6279296875,8.3994140625-.4169921875,12.4814453125.6279296875,4.08203125,1.0478515625,7.69287109375,3.24609375,10.8330078125,6.5947265625,2.40625,2.51171875,4.341796875,5.3916015625,5.80908203125,8.634765625,1.46435546875,3.2451171875,2.5634765625,6.4912109375,3.296875,9.7333984375.4169921875,2.095703125.60107421875,4.08203125.54931640625,5.966796875-.0537109375,1.8837890625-.498046875,3.6650390625-1.33447265625,5.337890625-1.15283203125,2.0947265625-2.93115234375,3.5859375-5.337890625,4.474609375-2.4091796875.890625-4.78857421875,1.1767578125-7.1435546875.86328125-2.35498046875-.314453125-4.39599609375-1.2294921875-6.123046875-2.748046875-1.72705078125-1.515625-2.5390625-3.583984375-2.43359375-6.201171875Z" fill="#fff" stroke-width="0"/>
                <path d="M369.628906250003638,265.227539062487267c3.2421875,4.3955078125,5.4404296875,9.2109375,6.59375,14.443359375,1.150390625,5.2353515625,1.2802734375,10.4404296875.392578125,15.6220703125-.890625,5.1806640625-2.669921875,10.1533203125-5.337890625,14.9150390625-2.669921875,4.763671875-6.2021484375,8.767578125-10.59765625,12.009765625-5.966796875,4.396484375-12.037109375,6.830078125-18.212890625,7.30078125s-12.037109375-.8115234375-17.583984375-3.8466796875c-3.6640625-1.8837890625-6.8046875-4.2900390625-9.419921875-7.2216796875-2.6171875-2.9287109375-4.0302734375-6.59375-4.23828125-10.990234375-.10546875-2.40625.392578125-4.7099609375,1.4912109375-6.908203125,1.0986328125-2.197265625,2.5361328125-3.9248046875,4.3173828125-5.1806640625,1.779296875-1.255859375,3.71484375-1.8564453125,5.80859375-1.8056640625,2.09375.0546875,4.134765625,1.1259765625,6.123046875,3.21875,1.46484375,1.8837890625,3.349609375,3.5322265625,5.65234375,4.9453125,2.30078125,1.4130859375,4.8125,1.859375,7.5361328125,1.3349609375,5.232421875-.8369140625,8.73828125-4.4482421875,10.5185546875-10.8330078125.41796875-1.7783203125.57421875-3.6357421875.4716796875-5.57421875-.10546875-1.9345703125-.498046875-3.740234375-1.177734375-5.416015625-.6826171875-1.6728515625-1.7021484375-3.1650390625-3.0615234375-4.474609375-1.361328125-1.3076171875-3.140625-2.22265625-5.337890625-2.7470703125-3.037109375-.8369140625-6.2802734375-1.1240234375-9.734375-.8642578125-3.453125.2626953125-6.490234375.8125-9.10546875,1.6484375-.9423828125.2119140625-2.43359375.2626953125-4.474609375.1572265625-2.041015625-.1025390625-3.638671875-.1572265625-4.7890625-.1572265625-1.255859375-.1025390625-2.330078125-.73046875-3.21875-1.8837890625-.8896484375-1.150390625-1.5693359375-2.51171875-2.041015625-4.08203125-.470703125-1.5693359375-.759765625-3.1396484375-.86328125-4.7099609375-.10546875-1.5693359375.052734375-2.9287109375.4716796875-4.08203125.3134765625-1.044921875.5498046875-3.0615234375.7060546875-6.0439453125.1572265625-2.9833984375.287109375-6.33203125.392578125-10.0478515625.103515625-3.71484375.181640625-7.4580078125.236328125-11.2255859375.05078125-3.7685546875.12890625-6.908203125.234375-9.419921875.103515625-1.9873046875.392578125-3.3486328125.86328125-4.08203125.4716796875-.7314453125,1.177734375-1.1513671875,2.1201171875-1.2568359375.9423828125-.1025390625,2.0927734375-.0244140625,3.4541015625.236328125,1.359375.26171875,2.9296875.4462890625,4.7099609375.548828125,7.2216796875.525390625,14.46875.890625,21.7451171875,1.099609375,7.2734375.2109375,14.73046875.10546875,22.3720703125-.314453125,1.255859375-.1025390625,2.3798828125-.1025390625,3.3759765625,0,.9921875.10546875,1.69921875.2626953125,2.119140625.470703125.5224609375.314453125,1.01953125.8125,1.4912109375,1.4921875.4716796875.681640625.8095703125,1.75390625,1.0205078125,3.2177734375.208984375,1.884765625.287109375,3.92578125.2353515625,6.123046875-.0537109375,2.1982421875-.2900390625,4.2666015625-.7060546875,6.2021484375-.419921875,1.9375-1.0478515625,3.6376953125-1.884765625,5.1025390625-.837890625,1.466796875-1.8828125,2.3544921875-3.1396484375,2.6689453125-.6279296875.2109375-1.9384765625.3408203125-3.9248046875.392578125-1.990234375.0537109375-4.396484375.0263671875-7.22265625-.0791015625-10.046875-.3134765625-20.095703125-1.255859375-30.1435546875-2.8251953125v9.576171875c8.7919921875-1.4638671875,16.8232421875-1.044921875,24.099609375,1.2568359375,7.2734375,2.302734375,13.1611328125,6.3330078125,17.6630859375,12.0888671875Z" fill="#fff" stroke-width="0"/>
              </g>
            </g>
          </a>
        </g>
      </a>
      <g>
        <path d="M529.126953125003638,402.674804687487267c.6279296875.8515625,1.0537109375,1.783203125,1.2763671875,2.7958984375.2236328125,1.013671875.248046875,2.021484375.076171875,3.0244140625s-.5166015625,1.96484375-1.033203125,2.88671875c-.5166015625.9228515625-1.2001953125,1.697265625-2.05078125,2.3251953125-1.1552734375.8505859375-2.330078125,1.322265625-3.525390625,1.4130859375-1.1962890625.0908203125-2.330078125-.1572265625-3.404296875-.744140625-.708984375-.365234375-1.3173828125-.8310546875-1.8232421875-1.3984375-.5068359375-.5673828125-.7802734375-1.2763671875-.8203125-2.126953125-.0205078125-.4658203125.076171875-.912109375.2880859375-1.337890625.212890625-.4248046875.4912109375-.759765625.8359375-1.0029296875s.71875-.359375,1.125-.3486328125c.404296875.009765625.7998046875.2177734375,1.1845703125.6220703125.2841796875.365234375.6484375.6845703125,1.0947265625.9580078125.4453125.2734375.931640625.359375,1.4580078125.2578125,1.013671875-.162109375,1.69140625-.8603515625,2.0361328125-2.0966796875.0810546875-.3447265625.111328125-.7041015625.091796875-1.0791015625-.0205078125-.3740234375-.0966796875-.7236328125-.228515625-1.0478515625s-.3291015625-.61328125-.591796875-.8662109375c-.263671875-.25390625-.6083984375-.4306640625-1.033203125-.5322265625-.587890625-.162109375-1.2158203125-.2177734375-1.884765625-.1669921875s-1.2568359375.1572265625-1.7626953125.3193359375c-.1826171875.0400390625-.470703125.05078125-.8662109375.0302734375-.39453125-.0205078125-.7041015625-.0302734375-.9267578125-.0302734375-.2431640625-.0205078125-.451171875-.1416015625-.623046875-.365234375-.171875-.22265625-.3037109375-.486328125-.39453125-.7900390625-.091796875-.3037109375-.1474609375-.607421875-.16796875-.9111328125-.0205078125-.3046875.0107421875-.5673828125.091796875-.791015625.060546875-.2021484375.1064453125-.591796875.13671875-1.169921875.0302734375-.5771484375.0556640625-1.2255859375.076171875-1.9443359375.01953125-.7197265625.03515625-1.4443359375.044921875-2.1728515625.009765625-.7294921875.025390625-1.337890625.0458984375-1.82421875.01953125-.384765625.076171875-.6474609375.1669921875-.7900390625.0908203125-.1416015625.2275390625-.22265625.41015625-.2431640625.1826171875-.01953125.4052734375-.0048828125.6689453125.0458984375.2626953125.05078125.56640625.0859375.9111328125.1064453125,1.3984375.1015625,2.80078125.171875,4.2099609375.212890625,1.4072265625.0400390625,2.8505859375.0205078125,4.330078125-.0615234375.2431640625-.01953125.4609375-.01953125.6533203125,0,.1923828125.0205078125.3291015625.05078125.41015625.091796875.1015625.060546875.1982421875.1572265625.2890625.2880859375.0908203125.1328125.15625.33984375.197265625.623046875.041015625.365234375.0556640625.759765625.0458984375,1.185546875-.0107421875.42578125-.0556640625.826171875-.13671875,1.2001953125-.0810546875.375-.203125.7041015625-.365234375.98828125-.162109375.283203125-.3642578125.4560546875-.607421875.5166015625-.12109375.041015625-.375.0654296875-.759765625.076171875-.384765625.009765625-.8505859375.0048828125-1.3974609375-.015625-1.9453125-.060546875-3.890625-.2431640625-5.8349609375-.546875v1.853515625c1.701171875-.283203125,3.255859375-.2021484375,4.6640625.2431640625,1.408203125.4462890625,2.5478515625,1.2265625,3.4189453125,2.33984375Z" fill="none" stroke="#181818" stroke-width="5.631003379821777"/>
        <path d="M529.126953125003638,402.674804687487267c.6279296875.8515625,1.0537109375,1.783203125,1.2763671875,2.7958984375.2236328125,1.013671875.248046875,2.021484375.076171875,3.0244140625s-.5166015625,1.96484375-1.033203125,2.88671875c-.5166015625.9228515625-1.2001953125,1.697265625-2.05078125,2.3251953125-1.1552734375.8505859375-2.330078125,1.322265625-3.525390625,1.4130859375-1.1962890625.0908203125-2.330078125-.1572265625-3.404296875-.744140625-.708984375-.365234375-1.3173828125-.8310546875-1.8232421875-1.3984375-.5068359375-.5673828125-.7802734375-1.2763671875-.8203125-2.126953125-.0205078125-.4658203125.076171875-.912109375.2880859375-1.337890625.212890625-.4248046875.4912109375-.759765625.8359375-1.0029296875s.71875-.359375,1.125-.3486328125c.404296875.009765625.7998046875.2177734375,1.1845703125.6220703125.2841796875.365234375.6484375.6845703125,1.0947265625.9580078125.4453125.2734375.931640625.359375,1.4580078125.2578125,1.013671875-.162109375,1.69140625-.8603515625,2.0361328125-2.0966796875.0810546875-.3447265625.111328125-.7041015625.091796875-1.0791015625-.0205078125-.3740234375-.0966796875-.7236328125-.228515625-1.0478515625s-.3291015625-.61328125-.591796875-.8662109375c-.263671875-.25390625-.6083984375-.4306640625-1.033203125-.5322265625-.587890625-.162109375-1.2158203125-.2177734375-1.884765625-.1669921875s-1.2568359375.1572265625-1.7626953125.3193359375c-.1826171875.0400390625-.470703125.05078125-.8662109375.0302734375-.39453125-.0205078125-.7041015625-.0302734375-.9267578125-.0302734375-.2431640625-.0205078125-.451171875-.1416015625-.623046875-.365234375-.171875-.22265625-.3037109375-.486328125-.39453125-.7900390625-.091796875-.3037109375-.1474609375-.607421875-.16796875-.9111328125-.0205078125-.3046875.0107421875-.5673828125.091796875-.791015625.060546875-.2021484375.1064453125-.591796875.13671875-1.169921875.0302734375-.5771484375.0556640625-1.2255859375.076171875-1.9443359375.01953125-.7197265625.03515625-1.4443359375.044921875-2.1728515625.009765625-.7294921875.025390625-1.337890625.0458984375-1.82421875.01953125-.384765625.076171875-.6474609375.1669921875-.7900390625.0908203125-.1416015625.2275390625-.22265625.41015625-.2431640625.1826171875-.01953125.4052734375-.0048828125.6689453125.0458984375.2626953125.05078125.56640625.0859375.9111328125.1064453125,1.3984375.1015625,2.80078125.171875,4.2099609375.212890625,1.4072265625.0400390625,2.8505859375.0205078125,4.330078125-.0615234375.2431640625-.01953125.4609375-.01953125.6533203125,0,.1923828125.0205078125.3291015625.05078125.41015625.091796875.1015625.060546875.1982421875.1572265625.2890625.2880859375.0908203125.1328125.15625.33984375.197265625.623046875.041015625.365234375.0556640625.759765625.0458984375,1.185546875-.0107421875.42578125-.0556640625.826171875-.13671875,1.2001953125-.0810546875.375-.203125.7041015625-.365234375.98828125-.162109375.283203125-.3642578125.4560546875-.607421875.5166015625-.12109375.041015625-.375.0654296875-.759765625.076171875-.384765625.009765625-.8505859375.0048828125-1.3974609375-.015625-1.9453125-.060546875-3.890625-.2431640625-5.8349609375-.546875v1.853515625c1.701171875-.283203125,3.255859375-.2021484375,4.6640625.2431640625,1.408203125.4462890625,2.5478515625,1.2265625,3.4189453125,2.33984375Z" fill="#231f20" stroke-width="0"/>
        <path d="M529.126953125003638,402.674804687487267c.6279296875.8515625,1.0537109375,1.783203125,1.2763671875,2.7958984375.2236328125,1.013671875.248046875,2.021484375.076171875,3.0244140625s-.5166015625,1.96484375-1.033203125,2.88671875c-.5166015625.9228515625-1.2001953125,1.697265625-2.05078125,2.3251953125-1.1552734375.8505859375-2.330078125,1.322265625-3.525390625,1.4130859375-1.1962890625.0908203125-2.330078125-.1572265625-3.404296875-.744140625-.708984375-.365234375-1.3173828125-.8310546875-1.8232421875-1.3984375-.5068359375-.5673828125-.7802734375-1.2763671875-.8203125-2.126953125-.0205078125-.4658203125.076171875-.912109375.2880859375-1.337890625.212890625-.4248046875.4912109375-.759765625.8359375-1.0029296875s.71875-.359375,1.125-.3486328125c.404296875.009765625.7998046875.2177734375,1.1845703125.6220703125.2841796875.365234375.6484375.6845703125,1.0947265625.9580078125.4453125.2734375.931640625.359375,1.4580078125.2578125,1.013671875-.162109375,1.69140625-.8603515625,2.0361328125-2.0966796875.0810546875-.3447265625.111328125-.7041015625.091796875-1.0791015625-.0205078125-.3740234375-.0966796875-.7236328125-.228515625-1.0478515625s-.3291015625-.61328125-.591796875-.8662109375c-.263671875-.25390625-.6083984375-.4306640625-1.033203125-.5322265625-.587890625-.162109375-1.2158203125-.2177734375-1.884765625-.1669921875s-1.2568359375.1572265625-1.7626953125.3193359375c-.1826171875.0400390625-.470703125.05078125-.8662109375.0302734375-.39453125-.0205078125-.7041015625-.0302734375-.9267578125-.0302734375-.2431640625-.0205078125-.451171875-.1416015625-.623046875-.365234375-.171875-.22265625-.3037109375-.486328125-.39453125-.7900390625-.091796875-.3037109375-.1474609375-.607421875-.16796875-.9111328125-.0205078125-.3046875.0107421875-.5673828125.091796875-.791015625.060546875-.2021484375.1064453125-.591796875.13671875-1.169921875.0302734375-.5771484375.0556640625-1.2255859375.076171875-1.9443359375.01953125-.7197265625.03515625-1.4443359375.044921875-2.1728515625.009765625-.7294921875.025390625-1.337890625.0458984375-1.82421875.01953125-.384765625.076171875-.6474609375.1669921875-.7900390625.0908203125-.1416015625.2275390625-.22265625.41015625-.2431640625.1826171875-.01953125.4052734375-.0048828125.6689453125.0458984375.2626953125.05078125.56640625.0859375.9111328125.1064453125,1.3984375.1015625,2.80078125.171875,4.2099609375.212890625,1.4072265625.0400390625,2.8505859375.0205078125,4.330078125-.0615234375.2431640625-.01953125.4609375-.01953125.6533203125,0,.1923828125.0205078125.3291015625.05078125.41015625.091796875.1015625.060546875.1982421875.1572265625.2890625.2880859375.0908203125.1328125.15625.33984375.197265625.623046875.041015625.365234375.0556640625.759765625.0458984375,1.185546875-.0107421875.42578125-.0556640625.826171875-.13671875,1.2001953125-.0810546875.375-.203125.7041015625-.365234375.98828125-.162109375.283203125-.3642578125.4560546875-.607421875.5166015625-.12109375.041015625-.375.0654296875-.759765625.076171875-.384765625.009765625-.8505859375.0048828125-1.3974609375-.015625-1.9453125-.060546875-3.890625-.2431640625-5.8349609375-.546875v1.853515625c1.701171875-.283203125,3.255859375-.2021484375,4.6640625.2431640625,1.408203125.4462890625,2.5478515625,1.2265625,3.4189453125,2.33984375Z" fill="#e2dddb" stroke-width="0"/>
      </g>
    </g>
  </g>
</svg>