<?xml version="1.0" encoding="UTF-8"?>
<svg id="Layer_1" data-name="Layer 1" xmlns="http://www.w3.org/2000/svg" width="600" height="600" xmlns:xlink="http://www.w3.org/1999/xlink" viewBox="0 0 600 600">
  <defs>
    <linearGradient id="A4-3" data-name="A4" x1="202.049119698295726" y1="407.84732063987758" x2="292.478210473305126" y2="294.582600881293786" gradientUnits="userSpaceOnUse">
      <stop offset="0" stop-color="#7d67a2"/>
      <stop offset=".385181145631382" stop-color="#895ea4"/>
      <stop offset=".489316239316239" stop-color="#8e5ba6"/>
      <stop offset=".841924594895194" stop-color="#9a5c9d"/>
      <stop offset="1" stop-color="#a25d99"/>
    </linearGradient>
    <linearGradient id="C4-3" data-name="C4" x1="275.533536531129357" y1="434.788934297199376" x2="435.025752816692602" y2="247.916080022719797" gradientUnits="userSpaceOnUse">
      <stop offset="0" stop-color="#7e9e4c"/>
      <stop offset=".487868088942308" stop-color="#91a23d"/>
      <stop offset=".713373248351595" stop-color="#9d9c43"/>
      <stop offset="1" stop-color="#b4924e"/>
    </linearGradient>
  </defs>
  <g id="pie_with_links_-5" data-name="pie (with links)">
    <g id="pie_with_links_-6" data-name="pie (with links)">
      <g id="Pie">
        <g>
          <a xlink:href="https://www.notion.so/dmmnotes/paranoid-ae38b1e6af0c4dd08f61e0d8f6e9f05f?pvs=4">
            <path id="C8" d="M331.308105468760914,517.74951171875l7.825683593739086,54.4306640625c26.439208984369543-3.767822265628638,51.645751953139552-11.3115234375,75.101318359369543-22.04296875l-22.832519531239086-49.996826171878638c-18.7666015625,8.572265625-38.93505859375,14.601318359378638-60.094482421869543,17.609130859378638Z" style="fill: none; stroke: #181818; stroke-linecap: round; stroke-linejoin: round; stroke-width: 15px;"/>
          </a>
          <a xlink:href="https://www.notion.so/dmmnotes/menacing-a5bd7149286344deba45ec15e759e579?pvs=4">
            <path id="C7" d="M391.402587890630457,500.140380859371362l22.832519531239086,49.996826171878638c23.989990234391371-10.975830078121362,46.116210937520009-25.287109375010914,65.803955078141371-42.36181640625l-35.972900390630457-41.515869140621362c-15.753417968760914,13.65869140625-33.459228515630457,25.104492187492724-52.66357421875,33.880859374992724Z" style="fill: none; stroke: #181818; stroke-linecap: round; stroke-linejoin: round; stroke-width: 15px;"/>
          </a>
          <a xlink:href="https://www.notion.so/dmmnotes/seductively-obsessed-with-rescue-6fb5a68f6d334bc29ccccc16d8a4e56e?pvs=4">
            <path id="C6" d="M444.066162109380457,466.259521484378638l35.972900390630457,41.515869140621362c19.762939453119543-17.141845703128638,37.047119140619543-37.041748046878638,51.26708984375-59.125l-46.223632812510914-29.704833984371362c-11.373291015619543,17.673583984371362-25.201171874989086,33.598876953121362-41.016357421869543,47.31396484375Z" style="fill: none; stroke: #181818; stroke-linecap: round; stroke-linejoin: round; stroke-width: 15px;"/>
          </a>
          <a xlink:href="https://www.notion.so/dmmnotes/punitively-obsessed-with-revenge-33d2e77f37774316b42bccf4a60f9688?pvs=4">
            <path id="C5" d="M485.08251953125,418.945556640628638l46.223632812510914,29.704833984371362c14.048095703128638-21.809326171882276,25.08837890625-45.71875,32.551513671869543-71.175048828132276l-52.7548828125-15.490234375c-5.9619140625,20.377929687510914-14.789306640619543,39.509765625-26.020263671880457,56.960449218760914Z" style="fill: none; stroke: #181818; stroke-linecap: round; stroke-linejoin: round; stroke-width: 15px;"/>
          </a>
          <a xlink:href="https://www.notion.so/dmmnotes/disarming-086276e599884c86b9359acf831a8b20?pvs=4">
            <path id="C2" d="M511.102783203130457,238.014892578110448l52.7548828125-15.490234375c-7.463134765619543-25.456298828121362-18.503417968740905-49.365722656242724-32.551513671869543-71.177734374992724l-46.223632812510914,29.70751953125c11.230957031260914,17.45068359375,20.055664062510914,36.585205078121362,26.020263671880457,56.960449218742724Z" style="fill: none; stroke: #181818; stroke-linecap: round; stroke-linejoin: round; stroke-width: 15px;"/>
          </a>
          <a xlink:href="https://www.notion.so/dmmnotes/threatening-348fe6a52f7a4fe69f768e98c6586932?pvs=4">
            <path id="C1" d="M485.08251953125,181.054443359367724l46.223632812510914-29.70751953125c-3.273382764720736-5.082861773658806-6.709138808490025-10.050169557307527-10.300126729000112-14.894880224830558-18.7746979552212-25.329514182889397-56.293794455550596-26.537787805427797-76.939827532480194-2.708921059358545l-.00003597290015.000041518560465c15.815185546880457,13.71240234375,29.64306640625,29.637695312510914,41.016357421869543,47.311279296878638Z" style="fill: none; stroke: #181818; stroke-linecap: round; stroke-linejoin: round; stroke-width: 15px;"/>
          </a>
          <a xlink:href="https://www.notion.so/dmmnotes/complaining-acceptance-8b40401a720c493ba73f7cde1567cf3d?pvs=4">
            <path id="B5" d="M444.066162109380457,133.743164062489086l.00003597290015-.000041518560465c20.654922513649581-23.839126791601302,14.125719583838872-60.826671837301546-13.629725214659629-75.812167347630748-5.297847529700448-2.860371035199933-10.700612091030052-5.552089440428972-16.201365445751435-8.068162227547873l-22.832519531239086,49.99951171875c19.204345703119543,8.773681640617724,36.910156249989086,20.22216796875,52.66357421875,33.880859374989086Z" style="fill: none; stroke: #181818; stroke-linecap: round; stroke-linejoin: round; stroke-width: 15px;"/>
          </a>
          <a xlink:href="https://www.notion.so/dmmnotes/sentimental-bc554363322342b1b7ca4ccc02125049?pvs=4">
            <path id="B4" d="M391.402587890630457,99.8623046875l22.832519531239086-49.99951171875c-23.455566406229991-10.7314453125-48.662109375-18.275146484389552-75.101318359369543-22.042968749992724l-7.825683593739086,54.433349609360448c21.159423828119543,3.0078125,41.327880859369543,9.034179687492724,60.094482421869543,17.609130859382276Z" style="fill: none; stroke: #181818; stroke-linecap: round; stroke-linejoin: round; stroke-width: 15px;"/>
          </a>
          <a xlink:href="https://www.notion.so/dmmnotes/comfortably-balanced-e76dc615a8b947aa915377cd02fcf716?pvs=4">
            <path id="B3" d="M300,80c10.634765625,0,21.078857421869543.797607421867724,31.308105468760914,2.253173828117724l7.825683593739086-54.433349609360448c-12.788574218739086-1.823486328139552-25.843017578130457-2.819824218757276-39.1337890625-2.819824218757276s-26.34521484375.996337890617724-39.133789062489086,2.819824218757276l7.825683593739086,54.433349609360448c10.23193359375-1.45556640625,20.67333984375-2.253173828117724,31.30810546875-2.253173828117724Z" style="fill: none; stroke: #181818; stroke-linecap: round; stroke-linejoin: round; stroke-width: 15px;"/>
          </a>
          <a xlink:href="https://www.notion.so/dmmnotes/accepting-317d81273fff4cd9817cdf4a88efd378?pvs=4">
            <path id="B2" d="M268.69189453125,82.253173828117724l-7.825683593739086-54.433349609360448c-26.439208984391371,3.767822265603172-51.643066406260914,11.311523437492724-75.098632812510914,22.042968749992724l22.83251953125,49.99951171875c18.7666015625-8.574951171889552,38.93505859375-14.601318359382276,60.091796875-17.609130859382276Z" style="fill: none; stroke: #181818; stroke-linecap: round; stroke-linejoin: round; stroke-width: 15px;"/>
          </a>
          <a xlink:href="https://www.notion.so/dmmnotes/distanced-from-past-2eabab7e9c77429f8e577f4e3e203653?pvs=4">
            <path id="B1" d="M208.60009765625,99.8623046875l-22.83251953125-49.99951171875c-5.501476919680499,2.516122083477967-10.904678806709853,5.207896667827299-16.20277414614975,8.068330353889905-27.754772116430104,14.984759620980185-34.283385893750165,51.971559756599163-13.6283165142504,75.809313677109458l.00003597290015.000041515868361c15.75341796875-13.658691406257276,33.4619140625-25.1044921875,52.66357421875-33.878173828117724Z" style="fill: none; stroke: #181818; stroke-linecap: round; stroke-linejoin: round; stroke-width: 15px;"/>
          </a>
          <a xlink:href="https://www.notion.so/dmmnotes/idealising-a52277f51ed14a42aae78081bb34b8be?pvs=4">
            <path id="A1" d="M155.9365234375,133.740478515617724l-.00003597290015-.000041515868361c-20.647012023619027-23.828455119091814-58.166100839880528-22.619561246781814-76.941289455078731,2.709999997550767-3.591451962291103,4.845219097369409-7.02760574713102,9.813063194989809-10.301350353271118,14.896486830817594l46.226318359369543,29.70751953125c11.373291015641371-17.673583984367724,25.201171875010914-33.598876953128638,41.016357421880457-47.31396484375Z" style="fill: none; stroke: #181818; stroke-linecap: round; stroke-linejoin: round; stroke-width: 15px;"/>
          </a>
          <a xlink:href="https://www.notion.so/dmmnotes/distancing-9ac690cdca654729a17a5a255944e2d1?pvs=4">
            <path id="A2" d="M114.920166015619543,181.054443359367724l-46.226318359369543-29.70751953125c-14.04541015625,21.81201171875-25.08837890625,45.721435546871362-32.551513671880457,71.177734374992724l52.754882812510914,15.490234375c5.964599609369543-20.375244140621362,14.7919921875-39.509765624992724,26.022949218739086-56.960449218742724Z" style="fill: none; stroke: #181818; stroke-linecap: round; stroke-linejoin: round; stroke-width: 15px;"/>
          </a>
          <a xlink:href="https://www.notion.so/dmmnotes/sexual-supplementation-8e85f49046ef412aa229745abf7d38d3?pvs=4">
            <path id="A5" d="M88.897216796880457,361.985107421867724l-52.754882812510914,15.490234375c7.463134765630457,25.456298828132276,18.506103515630457,49.36572265625,32.551513671880457,71.175048828132276l46.223632812510914-29.704833984371362c-11.230957031260914-17.450683593760914-20.055664062510914-36.58251953125-26.020263671880457-56.960449218760914Z" style="fill: none; stroke: #181818; stroke-linecap: round; stroke-linejoin: round; stroke-width: 15px;"/>
          </a>
          <a xlink:href="https://www.notion.so/dmmnotes/compulsive-isolated-self-reliance-b321873a73fa41aaaadd7192fde856a2?pvs=4">
            <path id="A6" d="M114.917480468760914,418.945556640628638l-46.223632812510914,29.704833984371362c14.219970703119543,22.083251953121362,31.504150390630457,41.983154296871362,51.269775390630457,59.125l35.972900390619543-41.515869140621362c-15.815185546869543-13.712402343757276-29.643066406239086-29.637695312507276-41.019042968739086-47.31396484375Z" style="fill: none; stroke: #181818; stroke-linecap: round; stroke-linejoin: round; stroke-width: 15px;"/>
          </a>
          <a xlink:href="https://www.notion.so/dmmnotes/delusional-idealization-743e2420b9994a48a7cab68190432e8a?pvs=4">
            <path id="A7" d="M155.9365234375,466.259521484378638l-35.972900390619543,41.515869140621362c19.687744140619543,17.074707031239086,41.811279296869543,31.385986328128638,65.803955078119543,42.36181640625l22.83251953125-49.996826171878638c-19.20166015625-8.773681640621362-36.91015625-20.222167968742724-52.66357421875-33.880859374992724Z" style="fill: none; stroke: #181818; stroke-linecap: round; stroke-linejoin: round; stroke-width: 15px;"/>
          </a>
          <a xlink:href="https://www.notion.so/dmmnotes/externally-assembled-self-994ecb0895b844409b931d74a045c162?pvs=4">
            <path id="A8" d="M208.60009765625,500.140380859371362l-22.83251953125,49.996826171878638c23.45556640625,10.7314453125,48.659423828119543,18.275146484371362,75.098632812510914,22.04296875l7.825683593739086-54.4306640625c-21.15673828125-3.0078125-41.3251953125-9.0341796875-60.091796875-17.609130859378638Z" style="fill: none; stroke: #181818; stroke-linecap: round; stroke-linejoin: round; stroke-width: 15px;"/>
          </a>
          <a xlink:href="https://www.notion.so/dmmnotes/psychopathy-0fe4a3222d9f4fd097ab4546c9776768?pvs=4">
            <path id="AC" d="M300,520c-10.634765625,0-21.076171875-.794921875-31.30810546875-2.25048828125l-7.825683593739086,54.4306640625c12.788574218739086,1.823486328128638,25.843017578119543,2.81982421875,39.133789062489086,2.81982421875s26.345214843760914-.996337890621362,39.1337890625-2.81982421875l-7.825683593739086-54.4306640625c-10.229248046891371,1.45556640625-20.673339843760914,2.25048828125-31.308105468760914,2.25048828125Z" style="fill: none; stroke: #181818; stroke-linecap: round; stroke-linejoin: round; stroke-width: 15px;"/>
          </a>
          <a xlink:href="https://www.notion.so/dmmnotes/feigned-helpless-e79a94b0498c4e109a681b7f3dcdb088?pvs=4">
            <g id="C4">
              <path d="M563.857421875,378.475585937489086c-.0947265625,0-.189453125-.013671875-.28125-.0400390625l-52.7548828125-15.490234375c-.5302734375-.15625-.833984375-.7109375-.6787109375-1.2412109375,5.876953125-20.078125,8.857421875-40.8388671875,8.857421875-61.7041015625,0-.552734375.447265625-1,1-1h55c.552734375,0,1,.447265625,1,1,0,26.287109375-3.7626953125,52.4482421875-11.1826171875,77.7568359375-.0751953125.2548828125-.248046875.46875-.48046875.5966796875-.1484375.0810546875-.3134765625.1220703125-.4794921875.1220703125Z" style="fill: none; stroke: #181818; stroke-linecap: round; stroke-linejoin: round; stroke-width: 15px;"/>
              <path d="M575,299.999999999989086h.0050048828125M575,299.999999999989086c0,26.911865234375-3.934326171875,52.891845703125-11.142333984375,77.475341796875l-52.7548828125-15.490234375c5.755126953125-19.66357421875,8.897216796875-40.447021484375,8.897216796875-61.985107421875h55M575.0050048828125,297.999999999989086h-55.0050048828125c-1.10455322265625,0-2,.8953857421875-2,2,0,20.7686767578125-2.96636962890625,41.4344482421875-8.81671142578125,61.42333984375-.31005859375,1.0594482421875.296844482421875,2.1697998046875,1.35601806640625,2.480712890625l52.7548828125,15.490234375c.18463134765625.05419921875.3743896484375.0810546875.56341552734375.0810546875.3321533203125,0,.66217041015625-.082763671875.9588623046875-.244873046875.46563720703125-.2542724609375.81109619140625-.6832275390625.96038818359375-1.1923828125,7.43756103515625-25.366455078125,11.21343994140625-51.5877685546875,11.22314453125-77.9368896484375.00164794921875-.0335693359375.00250244140625-.0672607421875.00250244140625-.1011962890625,0-1.1046142578125-.8929443359375-2-1.99749755859375-2h0ZM575,301.999999999989086h.0050048828125-.0050048828125Z" style="fill: none; stroke: #181818; stroke-linecap: round; stroke-linejoin: round; stroke-width: 15px;"/>
            </g>
          </a>
          <a xlink:href="https://www.notion.so/dmmnotes/aggressive-2d8ccce383534b9dbfc7b4b10b8a5d5c?pvs=4">
            <g id="C3">
              <path d="M520,300.999999999989086c-.552734375,0-1-.447265625-1-1,0-20.865234375-2.98046875-41.6259765625-8.857421875-61.7041015625-.1552734375-.5302734375.1484375-1.0849609375.6787109375-1.2412109375l52.7548828125-15.490234375c.091796875-.0263671875.1865234375-.0400390625.28125-.0400390625.166015625,0,.3310546875.041015625.4794921875.1220703125.232421875.1279296875.4052734375.341796875.48046875.5966796875,7.419921875,25.3056640625,11.1826171875,51.466796875,11.1826171875,77.7568359375,0,.552734375-.447265625,1-1,1h-55Z" style="fill: none; stroke: #181818; stroke-linecap: round; stroke-linejoin: round; stroke-width: 15px;"/>
              <path d="M563.857666015625,222.524658203114086c7.2080078125,24.580810546875,11.142333984375,50.5634765625,11.142333984375,77.475341796875h-55c0-21.535400390625-3.14208984375-42.321533203125-8.897216796875-61.985107421875l52.7548828125-15.490234375M563.85760498046875,220.524658203114086c-.18902587890625,0-.3787841796875.0267333984375-.56341552734375.0810546875l-52.7548828125,15.490234375c-1.059173583984375.3109130859375-1.66607666015625,1.4212646484375-1.35601806640625,2.480712890625,5.850341796875,19.9888916015625,8.81671142578125,40.6546630859375,8.81671142578125,61.42333984375,0,1.1046142578125.89544677734375,2,2,2h55c1.10455322265625,0,2-.8953857421875,2-2,0-26.385986328125-3.7760009765625-52.641845703125-11.22314453125-78.0380859375-.1492919921875-.5091552734375-.4947509765625-.9381103515625-.96038818359375-1.1923828125-.29669189453125-.162109375-.62677001953125-.244873046875-.9588623046875-.244873046875h0Z" style="fill: none; stroke: #181818; stroke-linecap: round; stroke-linejoin: round; stroke-width: 15px;"/>
            </g>
          </a>
          <a xlink:href="https://www.notion.so/dmmnotes/compulsive-caregiving-9c380c0928294f41ae10764aa0dee886?pvs=4">
            <g id="A3">
              <path d="M25,300.999999999989086c-.55224609375,0-1-.447265625-1-1,0-26.28125,3.76220703125-52.4423828125,11.1826171875-77.7568359375.07470703125-.2548828125.2470703125-.46875.47998046875-.5966796875.1484375-.0810546875.3134765625-.1220703125.4794921875-.1220703125.0947265625,0,.189453125.013671875.28173828125.0400390625l52.75537109375,15.490234375c.52978515625.15625.8330078125.7109375.67822265625,1.2412109375-5.87744140625,20.080078125-8.857421875,40.8408203125-8.857421875,61.7041015625,0,.552734375-.44775390625,1-1,1H25Z" style="fill: none; stroke: #181818; stroke-linecap: round; stroke-linejoin: round; stroke-width: 15px;"/>
              <path d="M36.142337799072266,222.524658203114086l52.754878997802734,15.490234375c-5.755126953125,19.66357421875-8.897216796875,40.44970703125-8.897216796875,61.985107421875H24.999996185302734c0-26.911865234375,3.93701171875-52.89453125,11.142341613769531-77.475341796875M36.142398834228516,220.524658203114086c-.332176208496094,0-.662204742431641.082763671875-.958965301513672.244873046875-.465625762939453.25439453125-.811084747314453.683349609375-.960342407226562,1.1925048828125-7.447093963623047,25.4056396484375-11.223094940185547,51.661376953125-11.223094940185547,78.0379638671875,0,1.1046142578125.895435333251953,2,2,2h55.000003814697266c1.104560852050781,0,2-.8953857421875,2-2,0-20.7686767578125,2.966361999511719-41.4344482421875,8.816703796386719-61.42333984375.310066223144531-1.0594482421875-.296852111816406-2.1697998046875-1.356010437011719-2.480712890625l-52.754886627197266-15.490234375c-.184635162353516-.05419921875-.374382019042969-.0810546875-.563407897949219-.0810546875h0Z" style="fill: none; stroke: #181818; stroke-linecap: round; stroke-linejoin: round; stroke-width: 15px;"/>
            </g>
          </a>
          <a xlink:href="https://www.notion.so/dmmnotes/compulsive-compliance-6d08b7ea9a424ce1a72b9184b7850414?pvs=4">
            <g id="A4">
              <path d="M36.14208984375,378.475585937489086c-.166015625,0-.3310546875-.041015625-.4794921875-.1220703125-.23291015625-.1279296875-.4052734375-.341796875-.47998046875-.5966796875-7.42041015625-25.314453125-11.1826171875-51.4755859375-11.1826171875-77.7568359375,0-.552734375.44775390625-1,1-1h55c.55224609375,0,1,.447265625,1,1,0,20.86328125,2.97998046875,41.6240234375,8.857421875,61.7041015625.15478515625.5302734375-.1484375,1.0849609375-.67822265625,1.2412109375l-52.75537109375,15.490234375c-.09228515625.0263671875-.18701171875.0400390625-.28173828125.0400390625Z" style="fill: none; stroke: #181818; stroke-linecap: round; stroke-linejoin: round; stroke-width: 15px;"/>
              <path d="M80,299.999999999989086c0,21.5380859375,3.14208984375,42.321533203125,8.897216796875,61.985107421875l-52.754878997802734,15.490234375c-7.205329895019531-24.580810546875-11.142341613769531-50.5634765625-11.142341613769531-77.475341796875h55.000003814697266M80,297.999999999989086H24.999996185302734c-1.104564666748047,0-2,.8953857421875-2,2,0,26.3765869140625,3.7760009765625,52.63232421875,11.223094940185547,78.0379638671875.149257659912109.5091552734375.494716644287109.9381103515625.960342407226562,1.1925048828125.296733856201172.162109375.626823425292969.244873046875.958965301513672.244873046875.189056396484375,0,.378742218017578-.0267333984375.563407897949219-.0810546875l52.754886627197266-15.490234375c1.059158325195312-.3109130859375,1.66607666015625-1.4212646484375,1.356010437011719-2.480712890625-5.850341796875-19.9888916015625-8.816703796386719-40.6546630859375-8.816703796386719-61.42333984375,0-1.1046142578125-.895439147949219-2-2-2h0Z" style="fill: none; stroke: #181818; stroke-linecap: round; stroke-linejoin: round; stroke-width: 15px;"/>
            </g>
          </a>
        </g>
        <g>
          <a xlink:href="https://www.notion.so/dmmnotes/paranoid-ae38b1e6af0c4dd08f61e0d8f6e9f05f?pvs=4">
            <path id="C8-2" data-name="C8" d="M331.308105468760914,517.74951171875l7.825683593739086,54.4306640625c26.439208984369543-3.767822265628638,51.645751953139552-11.3115234375,75.101318359369543-22.04296875l-22.832519531239086-49.996826171878638c-18.7666015625,8.572265625-38.93505859375,14.601318359378638-60.094482421869543,17.609130859378638Z" style="fill: #938480; stroke: #181818; stroke-width: 2px;"/>
          </a>
          <a xlink:href="https://www.notion.so/dmmnotes/menacing-a5bd7149286344deba45ec15e759e579?pvs=4">
            <path id="C7-2" data-name="C7" d="M391.402587890630457,500.140380859371362l22.832519531239086,49.996826171878638c23.989990234391371-10.975830078121362,46.116210937520009-25.287109375010914,65.803955078141371-42.36181640625l-35.972900390630457-41.515869140621362c-15.753417968760914,13.65869140625-33.459228515630457,25.104492187492724-52.66357421875,33.880859374992724Z" style="fill: #958682; stroke: #181818; stroke-width: 2px;"/>
          </a>
          <a xlink:href="https://www.notion.so/dmmnotes/seductively-obsessed-with-rescue-6fb5a68f6d334bc29ccccc16d8a4e56e?pvs=4">
            <path id="C6-2" data-name="C6" d="M444.066162109380457,466.259521484378638l35.972900390630457,41.515869140621362c19.762939453119543-17.141845703128638,37.047119140619543-37.041748046878638,51.26708984375-59.125l-46.223632812510914-29.704833984371362c-11.373291015619543,17.673583984371362-25.201171874989086,33.598876953121362-41.016357421869543,47.31396484375Z" style="fill: #988985; stroke: #181818; stroke-width: 2px;"/>
          </a>
          <a xlink:href="https://www.notion.so/dmmnotes/punitively-obsessed-with-revenge-33d2e77f37774316b42bccf4a60f9688?pvs=4">
            <path id="C5-2" data-name="C5" d="M485.08251953125,418.945556640628638l46.223632812510914,29.704833984371362c14.048095703128638-21.809326171882276,25.08837890625-45.71875,32.551513671869543-71.175048828132276l-52.7548828125-15.490234375c-5.9619140625,20.377929687510914-14.789306640619543,39.509765625-26.020263671880457,56.960449218760914Z" style="fill: #9b8d89; stroke: #181818; stroke-width: 2px;"/>
          </a>
          <a xlink:href="https://www.notion.so/dmmnotes/disarming-086276e599884c86b9359acf831a8b20?pvs=4">
            <path id="C2-2" data-name="C2" d="M511.102783203130457,238.014892578110448l52.7548828125-15.490234375c-7.463134765619543-25.456298828121362-18.503417968740905-49.365722656242724-32.551513671869543-71.177734374992724l-46.223632812510914,29.70751953125c11.230957031260914,17.45068359375,20.055664062510914,36.585205078121362,26.020263671880457,56.960449218742724Z" style="fill: #9b8c88; stroke: #181818; stroke-width: 2px;"/>
          </a>
          <a xlink:href="https://www.notion.so/dmmnotes/threatening-348fe6a52f7a4fe69f768e98c6586932?pvs=4">
            <path id="C1-2" data-name="C1" d="M485.08251953125,181.054443359367724l46.223632812510914-29.70751953125c-3.273382764720736-5.082861773658806-6.709138808490025-10.050169557307527-10.300126729000112-14.894880224830558-18.7746979552212-25.329514182889397-56.293794455550596-26.537787805427797-76.939827532480194-2.708921059358545l-.00003597290015.000041518560465c15.815185546880457,13.71240234375,29.64306640625,29.637695312510914,41.016357421869543,47.311279296878638Z" style="fill: #988985; stroke: #181818; stroke-width: 2px;"/>
          </a>
          <a xlink:href="https://www.notion.so/dmmnotes/complaining-acceptance-8b40401a720c493ba73f7cde1567cf3d?pvs=4">
            <path id="B5-2" data-name="B5" d="M444.066162109380457,133.743164062489086l.00003597290015-.000041518560465c20.654922513649581-23.839126791601302,14.125719583838872-60.826671837301546-13.629725214659629-75.812167347630748-5.297847529700448-2.860371035199933-10.700612091030052-5.552089440428972-16.201365445751435-8.068162227547873l-22.832519531239086,49.99951171875c19.204345703119543,8.773681640617724,36.910156249989086,20.22216796875,52.66357421875,33.880859374989086Z" style="fill: #958682; stroke: #181818; stroke-width: 2px;"/>
          </a>
          <a xlink:href="https://www.notion.so/dmmnotes/sentimental-bc554363322342b1b7ca4ccc02125049?pvs=4">
            <path id="B4-2" data-name="B4" d="M391.402587890630457,99.8623046875l22.832519531239086-49.99951171875c-23.455566406229991-10.7314453125-48.662109375-18.275146484389552-75.101318359369543-22.042968749992724l-7.825683593739086,54.433349609360448c21.159423828119543,3.0078125,41.327880859369543,9.034179687492724,60.094482421869543,17.609130859382276Z" style="fill: #92837f; stroke: #181818; stroke-width: 2px;"/>
          </a>
          <a xlink:href="https://www.notion.so/dmmnotes/comfortably-balanced-e76dc615a8b947aa915377cd02fcf716?pvs=4">
            <path id="B3-2" data-name="B3" d="M300,80c10.634765625,0,21.078857421869543.797607421867724,31.308105468760914,2.253173828117724l7.825683593739086-54.433349609360448c-12.788574218739086-1.823486328139552-25.843017578130457-2.819824218757276-39.1337890625-2.819824218757276s-26.34521484375.996337890617724-39.133789062489086,2.819824218757276l7.825683593739086,54.433349609360448c10.23193359375-1.45556640625,20.67333984375-2.253173828117724,31.30810546875-2.253173828117724Z" style="fill: #8f807d; stroke: #181818; stroke-width: 2px;"/>
          </a>
          <a xlink:href="https://www.notion.so/dmmnotes/accepting-317d81273fff4cd9817cdf4a88efd378?pvs=4">
            <path id="B2-2" data-name="B2" d="M268.69189453125,82.253173828117724l-7.825683593739086-54.433349609360448c-26.439208984391371,3.767822265603172-51.643066406260914,11.311523437492724-75.098632812510914,22.042968749992724l22.83251953125,49.99951171875c18.7666015625-8.574951171889552,38.93505859375-14.601318359382276,60.091796875-17.609130859382276Z" style="fill: #8c7d7a; stroke: #181818; stroke-width: 2px;"/>
          </a>
          <a xlink:href="https://www.notion.so/dmmnotes/distanced-from-past-2eabab7e9c77429f8e577f4e3e203653?pvs=4">
            <path id="B1-2" data-name="B1" d="M208.60009765625,99.8623046875l-22.83251953125-49.99951171875c-5.501476919680499,2.516122083477967-10.904678806709853,5.207896667827299-16.20277414614975,8.068330353889905-27.754772116430104,14.984759620980185-34.283385893750165,51.971559756599163-13.6283165142504,75.809313677109458l.00003597290015.000041515868361c15.75341796875-13.658691406257276,33.4619140625-25.1044921875,52.66357421875-33.878173828117724Z" style="fill: #8a7b78; stroke: #181818; stroke-width: 2px;"/>
          </a>
          <a xlink:href="https://www.notion.so/dmmnotes/idealising-a52277f51ed14a42aae78081bb34b8be?pvs=4">
            <path id="A1-2" data-name="A1" d="M155.9365234375,133.740478515617724l-.00003597290015-.000041515868361c-20.647012023619027-23.828455119091814-58.166100839880528-22.619561246781814-76.941289455078731,2.709999997550767-3.591451962291103,4.845219097369409-7.02760574713102,9.813063194989809-10.301350353271118,14.896486830817594l46.226318359369543,29.70751953125c11.373291015641371-17.673583984367724,25.201171875010914-33.598876953128638,41.016357421880457-47.31396484375Z" style="fill: #877875; stroke: #181818; stroke-width: 2px;"/>
          </a>
          <a xlink:href="https://www.notion.so/dmmnotes/distancing-9ac690cdca654729a17a5a255944e2d1?pvs=4">
            <path id="A2-2" data-name="A2" d="M114.920166015619543,181.054443359367724l-46.226318359369543-29.70751953125c-14.04541015625,21.81201171875-25.08837890625,45.721435546871362-32.551513671880457,71.177734374992724l52.754882812510914,15.490234375c5.964599609369543-20.375244140621362,14.7919921875-39.509765624992724,26.022949218739086-56.960449218742724Z" style="fill: #847572; stroke: #181818; stroke-width: 2px;"/>
          </a>
          <a xlink:href="https://www.notion.so/dmmnotes/sexual-supplementation-8e85f49046ef412aa229745abf7d38d3?pvs=4">
            <path id="A5-2" data-name="A5" d="M88.897216796880457,361.985107421867724l-52.754882812510914,15.490234375c7.463134765630457,25.456298828132276,18.506103515630457,49.36572265625,32.551513671880457,71.175048828132276l46.223632812510914-29.704833984371362c-11.230957031260914-17.450683593760914-20.055664062510914-36.58251953125-26.020263671880457-56.960449218760914Z" style="fill: #837471; stroke: #181818; stroke-width: 2px;"/>
          </a>
          <a xlink:href="https://www.notion.so/dmmnotes/compulsive-isolated-self-reliance-b321873a73fa41aaaadd7192fde856a2?pvs=4">
            <path id="A6-2" data-name="A6" d="M114.917480468760914,418.945556640628638l-46.223632812510914,29.704833984371362c14.219970703119543,22.083251953121362,31.504150390630457,41.983154296871362,51.269775390630457,59.125l35.972900390619543-41.515869140621362c-15.815185546869543-13.712402343757276-29.643066406239086-29.637695312507276-41.019042968739086-47.31396484375Z" style="fill: #867774; stroke: #181818; stroke-width: 2px;"/>
          </a>
          <a xlink:href="https://www.notion.so/dmmnotes/delusional-idealization-743e2420b9994a48a7cab68190432e8a?pvs=4">
            <path id="A7-2" data-name="A7" d="M155.9365234375,466.259521484378638l-35.972900390619543,41.515869140621362c19.687744140619543,17.074707031239086,41.811279296869543,31.385986328128638,65.803955078119543,42.36181640625l22.83251953125-49.996826171878638c-19.20166015625-8.773681640621362-36.91015625-20.222167968742724-52.66357421875-33.880859374992724Z" style="fill: #8a7b77; stroke: #181818; stroke-width: 2px;"/>
          </a>
          <a xlink:href="https://www.notion.so/dmmnotes/externally-assembled-self-994ecb0895b844409b931d74a045c162?pvs=4">
            <path id="A8-2" data-name="A8" d="M208.60009765625,500.140380859371362l-22.83251953125,49.996826171878638c23.45556640625,10.7314453125,48.659423828119543,18.275146484371362,75.098632812510914,22.04296875l7.825683593739086-54.4306640625c-21.15673828125-3.0078125-41.3251953125-9.0341796875-60.091796875-17.609130859378638Z" style="fill: #8a7b77; stroke: #181818; stroke-width: 2px;"/>
          </a>
          <a xlink:href="https://www.notion.so/dmmnotes/psychopathy-0fe4a3222d9f4fd097ab4546c9776768?pvs=4">
            <path id="AC-2" data-name="AC" d="M300,520c-10.634765625,0-21.076171875-.794921875-31.30810546875-2.25048828125l-7.825683593739086,54.4306640625c12.788574218739086,1.823486328128638,25.843017578119543,2.81982421875,39.133789062489086,2.81982421875s26.345214843760914-.996337890621362,39.1337890625-2.81982421875l-7.825683593739086-54.4306640625c-10.229248046891371,1.45556640625-20.673339843760914,2.25048828125-31.308105468760914,2.25048828125Z" style="fill: #90817d; stroke: #181818; stroke-width: 2px;"/>
          </a>
          <a xlink:href="https://www.notion.so/dmmnotes/feigned-helpless-e79a94b0498c4e109a681b7f3dcdb088?pvs=4">
            <g id="C4-2" data-name="C4">
              <path d="M563.857421875,378.475585937489086c-.0947265625,0-.189453125-.013671875-.28125-.0400390625l-52.7548828125-15.490234375c-.5302734375-.15625-.833984375-.7109375-.6787109375-1.2412109375,5.876953125-20.078125,8.857421875-40.8388671875,8.857421875-61.7041015625,0-.552734375.447265625-1,1-1h55c.552734375,0,1,.447265625,1,1,0,26.287109375-3.7626953125,52.4482421875-11.1826171875,77.7568359375-.0751953125.2548828125-.248046875.46875-.48046875.5966796875-.1484375.0810546875-.3134765625.1220703125-.4794921875.1220703125Z" style="fill: #91a23d; stroke-width: 0px;"/>
              <path d="M575,299.999999999989086h.0050048828125M575,299.999999999989086c0,26.911865234375-3.934326171875,52.891845703125-11.142333984375,77.475341796875l-52.7548828125-15.490234375c5.755126953125-19.66357421875,8.897216796875-40.447021484375,8.897216796875-61.985107421875h55M575.0050048828125,297.999999999989086h-55.0050048828125c-1.10455322265625,0-2,.8953857421875-2,2,0,20.7686767578125-2.96636962890625,41.4344482421875-8.81671142578125,61.42333984375-.31005859375,1.0594482421875.296844482421875,2.1697998046875,1.35601806640625,2.480712890625l52.7548828125,15.490234375c.18463134765625.05419921875.3743896484375.0810546875.56341552734375.0810546875.3321533203125,0,.66217041015625-.082763671875.9588623046875-.244873046875.46563720703125-.2542724609375.81109619140625-.6832275390625.96038818359375-1.1923828125,7.43756103515625-25.366455078125,11.21343994140625-51.5877685546875,11.22314453125-77.9368896484375.00164794921875-.0335693359375.00250244140625-.0672607421875.00250244140625-.1011962890625,0-1.1046142578125-.8929443359375-2-1.99749755859375-2h0ZM575,301.999999999989086h.0050048828125-.0050048828125Z" style="fill: #181818; stroke-width: 0px;"/>
            </g>
          </a>
          <a xlink:href="https://www.notion.so/dmmnotes/aggressive-2d8ccce383534b9dbfc7b4b10b8a5d5c?pvs=4">
            <g id="C3-2" data-name="C3">
              <path d="M520,300.999999999989086c-.552734375,0-1-.447265625-1-1,0-20.865234375-2.98046875-41.6259765625-8.857421875-61.7041015625-.1552734375-.5302734375.1484375-1.0849609375.6787109375-1.2412109375l52.7548828125-15.490234375c.091796875-.0263671875.1865234375-.0400390625.28125-.0400390625.166015625,0,.3310546875.041015625.4794921875.1220703125.232421875.1279296875.4052734375.341796875.48046875.5966796875,7.419921875,25.3056640625,11.1826171875,51.466796875,11.1826171875,77.7568359375,0,.552734375-.447265625,1-1,1h-55Z" style="fill: #7e9e4c; stroke-width: 0px;"/>
              <path d="M563.857666015625,222.524658203114086c7.2080078125,24.580810546875,11.142333984375,50.5634765625,11.142333984375,77.475341796875h-55c0-21.535400390625-3.14208984375-42.321533203125-8.897216796875-61.985107421875l52.7548828125-15.490234375M563.85760498046875,220.524658203114086c-.18902587890625,0-.3787841796875.0267333984375-.56341552734375.0810546875l-52.7548828125,15.490234375c-1.059173583984375.3109130859375-1.66607666015625,1.4212646484375-1.35601806640625,2.480712890625,5.850341796875,19.9888916015625,8.81671142578125,40.6546630859375,8.81671142578125,61.42333984375,0,1.1046142578125.89544677734375,2,2,2h55c1.10455322265625,0,2-.8953857421875,2-2,0-26.385986328125-3.7760009765625-52.641845703125-11.22314453125-78.0380859375-.1492919921875-.5091552734375-.4947509765625-.9381103515625-.96038818359375-1.1923828125-.29669189453125-.162109375-.62677001953125-.244873046875-.9588623046875-.244873046875h0Z" style="fill: #181818; stroke-width: 0px;"/>
            </g>
          </a>
          <a xlink:href="https://www.notion.so/dmmnotes/compulsive-caregiving-9c380c0928294f41ae10764aa0dee886?pvs=4">
            <g id="A3-2" data-name="A3">
              <path d="M25,300.999999999989086c-.55224609375,0-1-.447265625-1-1,0-26.28125,3.76220703125-52.4423828125,11.1826171875-77.7568359375.07470703125-.2548828125.2470703125-.46875.47998046875-.5966796875.1484375-.0810546875.3134765625-.1220703125.4794921875-.1220703125.0947265625,0,.189453125.013671875.28173828125.0400390625l52.75537109375,15.490234375c.52978515625.15625.8330078125.7109375.67822265625,1.2412109375-5.87744140625,20.080078125-8.857421875,40.8408203125-8.857421875,61.7041015625,0,.552734375-.44775390625,1-1,1H25Z" style="fill: #7d67a2; stroke-width: 0px;"/>
              <path d="M36.142337799072266,222.524658203114086l52.754878997802734,15.490234375c-5.755126953125,19.66357421875-8.897216796875,40.44970703125-8.897216796875,61.985107421875H24.999996185302734c0-26.911865234375,3.93701171875-52.89453125,11.142341613769531-77.475341796875M36.142398834228516,220.524658203114086c-.332176208496094,0-.662204742431641.082763671875-.958965301513672.244873046875-.465625762939453.25439453125-.811084747314453.683349609375-.960342407226562,1.1925048828125-7.447093963623047,25.4056396484375-11.223094940185547,51.661376953125-11.223094940185547,78.0379638671875,0,1.1046142578125.895435333251953,2,2,2h55.000003814697266c1.104560852050781,0,2-.8953857421875,2-2,0-20.7686767578125,2.966361999511719-41.4344482421875,8.816703796386719-61.42333984375.310066223144531-1.0594482421875-.296852111816406-2.1697998046875-1.356010437011719-2.480712890625l-52.754886627197266-15.490234375c-.184635162353516-.05419921875-.374382019042969-.0810546875-.563407897949219-.0810546875h0Z" style="fill: #181818; stroke-width: 0px;"/>
            </g>
          </a>
          <a xlink:href="https://www.notion.so/dmmnotes/compulsive-compliance-6d08b7ea9a424ce1a72b9184b7850414?pvs=4">
            <g id="A4-2" data-name="A4">
              <path d="M36.14208984375,378.475585937489086c-.166015625,0-.3310546875-.041015625-.4794921875-.1220703125-.23291015625-.1279296875-.4052734375-.341796875-.47998046875-.5966796875-7.42041015625-25.314453125-11.1826171875-51.4755859375-11.1826171875-77.7568359375,0-.552734375.44775390625-1,1-1h55c.55224609375,0,1,.447265625,1,1,0,20.86328125,2.97998046875,41.6240234375,8.857421875,61.7041015625.15478515625.5302734375-.1484375,1.0849609375-.67822265625,1.2412109375l-52.75537109375,15.490234375c-.09228515625.0263671875-.18701171875.0400390625-.28173828125.0400390625Z" style="fill: #8e5ba6; stroke-width: 0px;"/>
              <path d="M80,299.999999999989086c0,21.5380859375,3.14208984375,42.321533203125,8.897216796875,61.985107421875l-52.754878997802734,15.490234375c-7.205329895019531-24.580810546875-11.142341613769531-50.5634765625-11.142341613769531-77.475341796875h55.000003814697266M80,297.999999999989086H24.999996185302734c-1.104564666748047,0-2,.8953857421875-2,2,0,26.3765869140625,3.7760009765625,52.63232421875,11.223094940185547,78.0379638671875.149257659912109.5091552734375.494716644287109.9381103515625.960342407226562,1.1925048828125.296733856201172.162109375.626823425292969.244873046875.958965301513672.244873046875.189056396484375,0,.378742218017578-.0267333984375.563407897949219-.0810546875l52.754886627197266-15.490234375c1.059158325195312-.3109130859375,1.66607666015625-1.4212646484375,1.356010437011719-2.480712890625-5.850341796875-19.9888916015625-8.816703796386719-40.6546630859375-8.816703796386719-61.42333984375,0-1.1046142578125-.895439147949219-2-2-2h0Z" style="fill: #181818; stroke-width: 0px;"/>
            </g>
          </a>
        </g>
      </g>
      <g>
        <path d="M59.30859375,261.128906249989086c.5869140625.7099609375,1.048828125,1.5654296875,1.3828125,2.568359375s.4501953125,1.990234375.349609375,2.962890625c-.0810546875.75-.3037109375,1.494140625-.6689453125,2.2333984375-.3642578125.740234375-.8310546875,1.3984375-1.3974609375,1.9755859375-.5673828125.578125-1.220703125,1.0439453125-1.9609375,1.3984375-.7392578125.3544921875-1.5341796875.53125-2.384765625.53125-.52734375,0-1.064453125-.0556640625-1.611328125-.1669921875s-1.0791015625-.2685546875-1.595703125-.470703125-.998046875-.4658203125-1.443359375-.7900390625-.810546875-.69921875-1.09375-1.125c-.3037109375-.4248046875-.3955078125-.890625-.2734375-1.3974609375.12109375-.5673828125.359375-1.05859375.7138671875-1.474609375.3544921875-.4150390625.68359375-.75390625.9873046875-1.017578125.162109375-.1220703125.365234375-.2021484375.6083984375-.2431640625.2431640625-.0400390625.4755859375.060546875.69921875.3037109375.3642578125.42578125.759765625.7646484375,1.1845703125,1.0185546875.42578125.2529296875.845703125.39453125,1.26171875.4248046875.4150390625.0302734375.8095703125-.060546875,1.1845703125-.2734375s.6943359375-.5615234375.9580078125-1.0478515625c.1416015625-.2841796875.22265625-.587890625.2431640625-.912109375.01953125-.32421875-.041015625-.623046875-.1826171875-.896484375s-.375-.505859375-.69921875-.69921875c-.32421875-.1923828125-.75-.30859375-1.2763671875-.349609375-.041015625.0205078125-.0712890625.0263671875-.0908203125.015625-.0205078125-.009765625-.041015625-.015625-.060546875-.015625h-.0615234375c-.0205078125.0205078125-.0400390625.0302734375-.060546875.0302734375h-.12109375c-.0615234375-.01953125-.126953125-.03515625-.1982421875-.044921875s-.1259765625-.03515625-.1669921875-.076171875c-.22265625-.060546875-.375-.2431640625-.4560546875-.546875s-.1259765625-.638671875-.13671875-1.0029296875c-.009765625-.365234375.0048828125-.724609375.0458984375-1.0791015625.0400390625-.3544921875.0908203125-.6123046875.15234375-.7744140625.080078125-.2236328125.181640625-.4111328125.3037109375-.5625.12109375-.15234375.2626953125-.228515625.42578125-.228515625.505859375,0,.951171875-.1611328125,1.3369140625-.4853515625.384765625-.32421875.658203125-.689453125.8203125-1.0947265625s.1875-.78515625.076171875-1.1396484375-.4208984375-.5517578125-.9267578125-.5927734375c-.3447265625-.0400390625-.71484375.06640625-1.109375.3193359375-.3955078125.25390625-.724609375.6435546875-.98828125,1.169921875-.1015625.203125-.181640625.400390625-.2431640625.5927734375-.060546875.1923828125-.2119140625.33984375-.455078125.4404296875-.203125.0810546875-.3955078125.1220703125-.578125.1220703125-.587890625,0-1.1494140625-.171875-1.6865234375-.5166015625s-.896484375-.8310546875-1.0791015625-1.458984375c-.0810546875-.384765625-.0703125-.759765625.03125-1.1240234375.1005859375-.365234375.2529296875-.7197265625.455078125-1.064453125.3447265625-.56640625.7802734375-1.0634765625,1.3076171875-1.4892578125.5263671875-.4248046875,1.1083984375-.763671875,1.7470703125-1.017578125.6376953125-.2529296875,1.31640625-.41015625,2.0361328125-.470703125.71875-.0615234375,1.443359375,0,2.1728515625.181640625.912109375.2236328125,1.6611328125.6435546875,2.2490234375,1.26171875.5869140625.6181640625.998046875,1.3525390625,1.23046875,2.203125.2333984375.8505859375.2734375,1.783203125.1220703125,2.7958984375-.15234375,1.013671875-.51171875,2.046875-1.0791015625,3.099609375Z" style="fill: none; stroke: #181818; stroke-width: 5.631003379821777px;"/>
        <path d="M59.30859375,261.128906249989086c.5869140625.7099609375,1.048828125,1.5654296875,1.3828125,2.568359375s.4501953125,1.990234375.349609375,2.962890625c-.0810546875.75-.3037109375,1.494140625-.6689453125,2.2333984375-.3642578125.740234375-.8310546875,1.3984375-1.3974609375,1.9755859375-.5673828125.578125-1.220703125,1.0439453125-1.9609375,1.3984375-.7392578125.3544921875-1.5341796875.53125-2.384765625.53125-.52734375,0-1.064453125-.0556640625-1.611328125-.1669921875s-1.0791015625-.2685546875-1.595703125-.470703125-.998046875-.4658203125-1.443359375-.7900390625-.810546875-.69921875-1.09375-1.125c-.3037109375-.4248046875-.3955078125-.890625-.2734375-1.3974609375.12109375-.5673828125.359375-1.05859375.7138671875-1.474609375.3544921875-.4150390625.68359375-.75390625.9873046875-1.017578125.162109375-.1220703125.365234375-.2021484375.6083984375-.2431640625.2431640625-.0400390625.4755859375.060546875.69921875.3037109375.3642578125.42578125.759765625.7646484375,1.1845703125,1.0185546875.42578125.2529296875.845703125.39453125,1.26171875.4248046875.4150390625.0302734375.8095703125-.060546875,1.1845703125-.2734375s.6943359375-.5615234375.9580078125-1.0478515625c.1416015625-.2841796875.22265625-.587890625.2431640625-.912109375.01953125-.32421875-.041015625-.623046875-.1826171875-.896484375s-.375-.505859375-.69921875-.69921875c-.32421875-.1923828125-.75-.30859375-1.2763671875-.349609375-.041015625.0205078125-.0712890625.0263671875-.0908203125.015625-.0205078125-.009765625-.041015625-.015625-.060546875-.015625h-.0615234375c-.0205078125.0205078125-.0400390625.0302734375-.060546875.0302734375h-.12109375c-.0615234375-.01953125-.126953125-.03515625-.1982421875-.044921875s-.1259765625-.03515625-.1669921875-.076171875c-.22265625-.060546875-.375-.2431640625-.4560546875-.546875s-.1259765625-.638671875-.13671875-1.0029296875c-.009765625-.365234375.0048828125-.724609375.0458984375-1.0791015625.0400390625-.3544921875.0908203125-.6123046875.15234375-.7744140625.080078125-.2236328125.181640625-.4111328125.3037109375-.5625.12109375-.15234375.2626953125-.228515625.42578125-.228515625.505859375,0,.951171875-.1611328125,1.3369140625-.4853515625.384765625-.32421875.658203125-.689453125.8203125-1.0947265625s.1875-.78515625.076171875-1.1396484375-.4208984375-.5517578125-.9267578125-.5927734375c-.3447265625-.0400390625-.71484375.06640625-1.109375.3193359375-.3955078125.25390625-.724609375.6435546875-.98828125,1.169921875-.1015625.203125-.181640625.400390625-.2431640625.5927734375-.060546875.1923828125-.2119140625.33984375-.455078125.4404296875-.203125.0810546875-.3955078125.1220703125-.578125.1220703125-.587890625,0-1.1494140625-.171875-1.6865234375-.5166015625s-.896484375-.8310546875-1.0791015625-1.458984375c-.0810546875-.384765625-.0703125-.759765625.03125-1.1240234375.1005859375-.365234375.2529296875-.7197265625.455078125-1.064453125.3447265625-.56640625.7802734375-1.0634765625,1.3076171875-1.4892578125.5263671875-.4248046875,1.1083984375-.763671875,1.7470703125-1.017578125.6376953125-.2529296875,1.31640625-.41015625,2.0361328125-.470703125.71875-.0615234375,1.443359375,0,2.1728515625.181640625.912109375.2236328125,1.6611328125.6435546875,2.2490234375,1.26171875.5869140625.6181640625.998046875,1.3525390625,1.23046875,2.203125.2333984375.8505859375.2734375,1.783203125.1220703125,2.7958984375-.15234375,1.013671875-.51171875,2.046875-1.0791015625,3.099609375Z" style="fill: #231f20; stroke-width: 0px;"/>
        <path d="M59.30859375,261.128906249989086c.5869140625.7099609375,1.048828125,1.5654296875,1.3828125,2.568359375s.4501953125,1.990234375.349609375,2.962890625c-.0810546875.75-.3037109375,1.494140625-.6689453125,2.2333984375-.3642578125.740234375-.8310546875,1.3984375-1.3974609375,1.9755859375-.5673828125.578125-1.220703125,1.0439453125-1.9609375,1.3984375-.7392578125.3544921875-1.5341796875.53125-2.384765625.53125-.52734375,0-1.064453125-.0556640625-1.611328125-.1669921875s-1.0791015625-.2685546875-1.595703125-.470703125-.998046875-.4658203125-1.443359375-.7900390625-.810546875-.69921875-1.09375-1.125c-.3037109375-.4248046875-.3955078125-.890625-.2734375-1.3974609375.12109375-.5673828125.359375-1.05859375.7138671875-1.474609375.3544921875-.4150390625.68359375-.75390625.9873046875-1.017578125.162109375-.1220703125.365234375-.2021484375.6083984375-.2431640625.2431640625-.0400390625.4755859375.060546875.69921875.3037109375.3642578125.42578125.759765625.7646484375,1.1845703125,1.0185546875.42578125.2529296875.845703125.39453125,1.26171875.4248046875.4150390625.0302734375.8095703125-.060546875,1.1845703125-.2734375s.6943359375-.5615234375.9580078125-1.0478515625c.1416015625-.2841796875.22265625-.587890625.2431640625-.912109375.01953125-.32421875-.041015625-.623046875-.1826171875-.896484375s-.375-.505859375-.69921875-.69921875c-.32421875-.1923828125-.75-.30859375-1.2763671875-.349609375-.041015625.0205078125-.0712890625.0263671875-.0908203125.015625-.0205078125-.009765625-.041015625-.015625-.060546875-.015625h-.0615234375c-.0205078125.0205078125-.0400390625.0302734375-.060546875.0302734375h-.12109375c-.0615234375-.01953125-.126953125-.03515625-.1982421875-.044921875s-.1259765625-.03515625-.1669921875-.076171875c-.22265625-.060546875-.375-.2431640625-.4560546875-.546875s-.1259765625-.638671875-.13671875-1.0029296875c-.009765625-.365234375.0048828125-.724609375.0458984375-1.0791015625.0400390625-.3544921875.0908203125-.6123046875.15234375-.7744140625.080078125-.2236328125.181640625-.4111328125.3037109375-.5625.12109375-.15234375.2626953125-.228515625.42578125-.228515625.505859375,0,.951171875-.1611328125,1.3369140625-.4853515625.384765625-.32421875.658203125-.689453125.8203125-1.0947265625s.1875-.78515625.076171875-1.1396484375-.4208984375-.5517578125-.9267578125-.5927734375c-.3447265625-.0400390625-.71484375.06640625-1.109375.3193359375-.3955078125.25390625-.724609375.6435546875-.98828125,1.169921875-.1015625.203125-.181640625.400390625-.2431640625.5927734375-.060546875.1923828125-.2119140625.33984375-.455078125.4404296875-.203125.0810546875-.3955078125.1220703125-.578125.1220703125-.587890625,0-1.1494140625-.171875-1.6865234375-.5166015625s-.896484375-.8310546875-1.0791015625-1.458984375c-.0810546875-.384765625-.0703125-.759765625.03125-1.1240234375.1005859375-.365234375.2529296875-.7197265625.455078125-1.064453125.3447265625-.56640625.7802734375-1.0634765625,1.3076171875-1.4892578125.5263671875-.4248046875,1.1083984375-.763671875,1.7470703125-1.017578125.6376953125-.2529296875,1.31640625-.41015625,2.0361328125-.470703125.71875-.0615234375,1.443359375,0,2.1728515625.181640625.912109375.2236328125,1.6611328125.6435546875,2.2490234375,1.26171875.5869140625.6181640625.998046875,1.3525390625,1.23046875,2.203125.2333984375.8505859375.2734375,1.783203125.1220703125,2.7958984375-.15234375,1.013671875-.51171875,2.046875-1.0791015625,3.099609375Z" style="fill: #e2dddb; stroke-width: 0px;"/>
      </g>
      <g>
        <path d="M60.1455078125,342.529296874989086c-.041015625.22265625-.1123046875.435546875-.212890625.6376953125-.1015625.1630859375-.25390625.314453125-.4560546875.4560546875-.203125.142578125-.4765625.232421875-.8203125.2734375-.3447265625.041015625-.7041015625.0654296875-1.0791015625.076171875-.375.009765625-.724609375-.025390625-1.048828125-.1064453125s-.607421875-.2275390625-.8505859375-.4404296875-.39453125-.5322265625-.4560546875-.95703125c-.0400390625-.22265625-.060546875-.6787109375-.060546875-1.3681640625,0-.6884765625.009765625-1.5390625.0302734375-2.552734375-1.3974609375,0-2.80078125-.025390625-4.208984375-.076171875-1.408203125-.0498046875-2.841796875-.095703125-4.2998046875-.13671875-.0615234375.0205078125-.1328125,0-.212890625-.060546875-.060546875-.0400390625-.1220703125-.1318359375-.1826171875-.2734375s-.111328125-.3544921875-.15234375-.638671875c-.01953125-.140625-.05078125-.369140625-.0908203125-.68359375-.041015625-.3134765625-.076171875-.6484375-.1064453125-1.0029296875-.0302734375-.353515625-.0458984375-.6884765625-.0458984375-1.0029296875,0-.3134765625.05078125-.5517578125.15234375-.7138671875.0810546875-.1416015625.283203125-.3896484375.607421875-.744140625s.7197265625-.794921875,1.185546875-1.322265625c1.1748046875-1.2763671875,2.330078125-2.5830078125,3.46484375-3.9208984375,1.1337890625-1.3369140625,2.2587890625-2.765625,3.373046875-4.28515625.2021484375-.283203125.3896484375-.5009765625.5625-.6533203125.171875-.1513671875.48046875-.2470703125.9267578125-.2880859375.42578125-.041015625.95703125-.0859375,1.595703125-.13671875.6376953125-.05078125,1.1796875-.015625,1.6259765625.1064453125.1005859375.060546875.197265625.13671875.2880859375.2275390625.091796875.0908203125.1474609375.2080078125.16796875.349609375.080078125.5068359375.1259765625.982421875.13671875,1.4287109375.009765625.4453125.0244140625.87109375.044921875,1.2763671875l.1220703125,16.5322265625ZM52.7607421875,333.655273437489086c.4248046875-.0205078125.8505859375-.03515625,1.2763671875-.0458984375.4248046875-.009765625.8505859375-.0146484375,1.2763671875-.0146484375,0-.5478515625.009765625-1.0947265625.0302734375-1.6416015625.01953125-.546875.0498046875-1.1142578125.0908203125-1.7021484375-.42578125.587890625-.861328125,1.16015625-1.306640625,1.7177734375-.4462890625.556640625-.9013671875,1.119140625-1.3671875,1.6865234375Z" style="fill: none; stroke: #181818; stroke-width: 5.631003379821777px;"/>
        <path d="M60.1455078125,342.529296874989086c-.041015625.22265625-.1123046875.435546875-.212890625.6376953125-.1015625.1630859375-.25390625.314453125-.4560546875.4560546875-.203125.142578125-.4765625.232421875-.8203125.2734375-.3447265625.041015625-.7041015625.0654296875-1.0791015625.076171875-.375.009765625-.724609375-.025390625-1.048828125-.1064453125s-.607421875-.2275390625-.8505859375-.4404296875-.39453125-.5322265625-.4560546875-.95703125c-.0400390625-.22265625-.060546875-.6787109375-.060546875-1.3681640625,0-.6884765625.009765625-1.5390625.0302734375-2.552734375-1.3974609375,0-2.80078125-.025390625-4.208984375-.076171875-1.408203125-.0498046875-2.841796875-.095703125-4.2998046875-.13671875-.0615234375.0205078125-.1328125,0-.212890625-.060546875-.060546875-.0400390625-.1220703125-.1318359375-.1826171875-.2734375s-.111328125-.3544921875-.15234375-.638671875c-.01953125-.140625-.05078125-.369140625-.0908203125-.68359375-.041015625-.3134765625-.076171875-.6484375-.1064453125-1.0029296875-.0302734375-.353515625-.0458984375-.6884765625-.0458984375-1.0029296875,0-.3134765625.05078125-.5517578125.15234375-.7138671875.0810546875-.1416015625.283203125-.3896484375.607421875-.744140625s.7197265625-.794921875,1.185546875-1.322265625c1.1748046875-1.2763671875,2.330078125-2.5830078125,3.46484375-3.9208984375,1.1337890625-1.3369140625,2.2587890625-2.765625,3.373046875-4.28515625.2021484375-.283203125.3896484375-.5009765625.5625-.6533203125.171875-.1513671875.48046875-.2470703125.9267578125-.2880859375.42578125-.041015625.95703125-.0859375,1.595703125-.13671875.6376953125-.05078125,1.1796875-.015625,1.6259765625.1064453125.1005859375.060546875.197265625.13671875.2880859375.2275390625.091796875.0908203125.1474609375.2080078125.16796875.349609375.080078125.5068359375.1259765625.982421875.13671875,1.4287109375.009765625.4453125.0244140625.87109375.044921875,1.2763671875l.1220703125,16.5322265625ZM52.7607421875,333.655273437489086c.4248046875-.0205078125.8505859375-.03515625,1.2763671875-.0458984375.4248046875-.009765625.8505859375-.0146484375,1.2763671875-.0146484375,0-.5478515625.009765625-1.0947265625.0302734375-1.6416015625.01953125-.546875.0498046875-1.1142578125.0908203125-1.7021484375-.42578125.587890625-.861328125,1.16015625-1.306640625,1.7177734375-.4462890625.556640625-.9013671875,1.119140625-1.3671875,1.6865234375Z" style="fill: #231f20; stroke-width: 0px;"/>
        <path d="M60.1455078125,342.529296874989086c-.041015625.22265625-.1123046875.435546875-.212890625.6376953125-.1015625.1630859375-.25390625.314453125-.4560546875.4560546875-.203125.142578125-.4765625.232421875-.8203125.2734375-.3447265625.041015625-.7041015625.0654296875-1.0791015625.076171875-.375.009765625-.724609375-.025390625-1.048828125-.1064453125s-.607421875-.2275390625-.8505859375-.4404296875-.39453125-.5322265625-.4560546875-.95703125c-.0400390625-.22265625-.060546875-.6787109375-.060546875-1.3681640625,0-.6884765625.009765625-1.5390625.0302734375-2.552734375-1.3974609375,0-2.80078125-.025390625-4.208984375-.076171875-1.408203125-.0498046875-2.841796875-.095703125-4.2998046875-.13671875-.0615234375.0205078125-.1328125,0-.212890625-.060546875-.060546875-.0400390625-.1220703125-.1318359375-.1826171875-.2734375s-.111328125-.3544921875-.15234375-.638671875c-.01953125-.140625-.05078125-.369140625-.0908203125-.68359375-.041015625-.3134765625-.076171875-.6484375-.1064453125-1.0029296875-.0302734375-.353515625-.0458984375-.6884765625-.0458984375-1.0029296875,0-.3134765625.05078125-.5517578125.15234375-.7138671875.0810546875-.1416015625.283203125-.3896484375.607421875-.744140625s.7197265625-.794921875,1.185546875-1.322265625c1.1748046875-1.2763671875,2.330078125-2.5830078125,3.46484375-3.9208984375,1.1337890625-1.3369140625,2.2587890625-2.765625,3.373046875-4.28515625.2021484375-.283203125.3896484375-.5009765625.5625-.6533203125.171875-.1513671875.48046875-.2470703125.9267578125-.2880859375.42578125-.041015625.95703125-.0859375,1.595703125-.13671875.6376953125-.05078125,1.1796875-.015625,1.6259765625.1064453125.1005859375.060546875.197265625.13671875.2880859375.2275390625.091796875.0908203125.1474609375.2080078125.16796875.349609375.080078125.5068359375.1259765625.982421875.13671875,1.4287109375.009765625.4453125.0244140625.87109375.044921875,1.2763671875l.1220703125,16.5322265625ZM52.7607421875,333.655273437489086c.4248046875-.0205078125.8505859375-.03515625,1.2763671875-.0458984375.4248046875-.009765625.8505859375-.0146484375,1.2763671875-.0146484375,0-.5478515625.009765625-1.0947265625.0302734375-1.6416015625.01953125-.546875.0498046875-1.1142578125.0908203125-1.7021484375-.42578125.587890625-.861328125,1.16015625-1.306640625,1.7177734375-.4462890625.556640625-.9013671875,1.119140625-1.3671875,1.6865234375Z" style="fill: #e2dddb; stroke-width: 0px;"/>
      </g>
      <g>
        <path d="M549.5810546875,263.427734374989086c.5869140625.708984375,1.048828125,1.564453125,1.3828125,2.5673828125s.4501953125,1.9912109375.349609375,2.9638671875c-.0810546875.7490234375-.3037109375,1.494140625-.6689453125,2.232421875-.3642578125.740234375-.8310546875,1.3984375-1.3974609375,1.9765625-.5673828125.5771484375-1.220703125,1.04296875-1.9609375,1.3974609375-.7392578125.3544921875-1.5341796875.5322265625-2.384765625.5322265625-.52734375,0-1.064453125-.056640625-1.611328125-.16796875s-1.0791015625-.267578125-1.595703125-.470703125c-.5166015625-.2021484375-.998046875-.4658203125-1.443359375-.7900390625-.4453125-.3232421875-.810546875-.69921875-1.09375-1.1240234375-.3037109375-.42578125-.3955078125-.8916015625-.2734375-1.3984375.12109375-.56640625.359375-1.05859375.7138671875-1.474609375.3544921875-.4140625.68359375-.75390625.9873046875-1.017578125.162109375-.12109375.365234375-.2021484375.6083984375-.2431640625.2431640625-.0400390625.4755859375.0615234375.69921875.3037109375.3642578125.42578125.759765625.765625,1.1845703125,1.0185546875.42578125.2529296875.845703125.3955078125,1.26171875.4248046875.4150390625.03125.8095703125-.060546875,1.1845703125-.2734375s.6943359375-.5615234375.9580078125-1.0478515625c.1416015625-.2841796875.22265625-.5869140625.2431640625-.9111328125.01953125-.32421875-.041015625-.623046875-.1826171875-.8974609375-.1416015625-.2734375-.375-.505859375-.69921875-.6982421875-.32421875-.193359375-.75-.30859375-1.2763671875-.349609375-.041015625.01953125-.0712890625.025390625-.0908203125.0146484375-.0205078125-.009765625-.041015625-.0146484375-.060546875-.0146484375h-.0615234375c-.0205078125.01953125-.0400390625.029296875-.060546875.029296875h-.12109375c-.0615234375-.01953125-.126953125-.03515625-.1982421875-.044921875s-.1259765625-.03515625-.1669921875-.076171875c-.22265625-.060546875-.375-.2421875-.4560546875-.546875-.0810546875-.3037109375-.1259765625-.638671875-.13671875-1.0029296875-.009765625-.3642578125.0048828125-.7236328125.0458984375-1.0791015625.0400390625-.353515625.0908203125-.6123046875.15234375-.7744140625.080078125-.2236328125.181640625-.4111328125.3037109375-.5625.12109375-.1513671875.2626953125-.2275390625.42578125-.2275390625.505859375,0,.951171875-.162109375,1.3369140625-.486328125.384765625-.32421875.658203125-.689453125.8203125-1.09375.162109375-.40625.1875-.78515625.076171875-1.140625-.111328125-.353515625-.4208984375-.55078125-.9267578125-.591796875-.3447265625-.041015625-.71484375.0654296875-1.109375.318359375-.3955078125.25390625-.724609375.6435546875-.98828125,1.169921875-.1015625.203125-.181640625.400390625-.2431640625.59375-.060546875.19140625-.2119140625.3388671875-.455078125.439453125-.203125.08203125-.3955078125.1220703125-.578125.1220703125-.587890625,0-1.1494140625-.171875-1.6865234375-.5166015625-.537109375-.34375-.896484375-.830078125-1.0791015625-1.458984375-.0810546875-.384765625-.0703125-.759765625.03125-1.1240234375.1005859375-.3642578125.2529296875-.7197265625.455078125-1.0634765625.3447265625-.5673828125.7802734375-1.064453125,1.3076171875-1.490234375.5263671875-.4248046875,1.1083984375-.763671875,1.7470703125-1.017578125.6376953125-.2529296875,1.31640625-.41015625,2.0361328125-.470703125.71875-.060546875,1.443359375,0,2.1728515625.181640625.912109375.2236328125,1.6611328125.64453125,2.2490234375,1.26171875.5869140625.6181640625.998046875,1.3525390625,1.23046875,2.203125.2333984375.8515625.2734375,1.783203125.1220703125,2.796875-.15234375,1.0126953125-.51171875,2.0458984375-1.0791015625,3.099609375Z" style="fill: none; stroke: #181818; stroke-width: 5.631003379821777px;"/>
        <path d="M549.5810546875,263.427734374989086c.5869140625.708984375,1.048828125,1.564453125,1.3828125,2.5673828125s.4501953125,1.9912109375.349609375,2.9638671875c-.0810546875.7490234375-.3037109375,1.494140625-.6689453125,2.232421875-.3642578125.740234375-.8310546875,1.3984375-1.3974609375,1.9765625-.5673828125.5771484375-1.220703125,1.04296875-1.9609375,1.3974609375-.7392578125.3544921875-1.5341796875.5322265625-2.384765625.5322265625-.52734375,0-1.064453125-.056640625-1.611328125-.16796875s-1.0791015625-.267578125-1.595703125-.470703125c-.5166015625-.2021484375-.998046875-.4658203125-1.443359375-.7900390625-.4453125-.3232421875-.810546875-.69921875-1.09375-1.1240234375-.3037109375-.42578125-.3955078125-.8916015625-.2734375-1.3984375.12109375-.56640625.359375-1.05859375.7138671875-1.474609375.3544921875-.4140625.68359375-.75390625.9873046875-1.017578125.162109375-.12109375.365234375-.2021484375.6083984375-.2431640625.2431640625-.0400390625.4755859375.0615234375.69921875.3037109375.3642578125.42578125.759765625.765625,1.1845703125,1.0185546875.42578125.2529296875.845703125.3955078125,1.26171875.4248046875.4150390625.03125.8095703125-.060546875,1.1845703125-.2734375s.6943359375-.5615234375.9580078125-1.0478515625c.1416015625-.2841796875.22265625-.5869140625.2431640625-.9111328125.01953125-.32421875-.041015625-.623046875-.1826171875-.8974609375-.1416015625-.2734375-.375-.505859375-.69921875-.6982421875-.32421875-.193359375-.75-.30859375-1.2763671875-.349609375-.041015625.01953125-.0712890625.025390625-.0908203125.0146484375-.0205078125-.009765625-.041015625-.0146484375-.060546875-.0146484375h-.0615234375c-.0205078125.01953125-.0400390625.029296875-.060546875.029296875h-.12109375c-.0615234375-.01953125-.126953125-.03515625-.1982421875-.044921875s-.1259765625-.03515625-.1669921875-.076171875c-.22265625-.060546875-.375-.2421875-.4560546875-.546875-.0810546875-.3037109375-.1259765625-.638671875-.13671875-1.0029296875-.009765625-.3642578125.0048828125-.7236328125.0458984375-1.0791015625.0400390625-.353515625.0908203125-.6123046875.15234375-.7744140625.080078125-.2236328125.181640625-.4111328125.3037109375-.5625.12109375-.1513671875.2626953125-.2275390625.42578125-.2275390625.505859375,0,.951171875-.162109375,1.3369140625-.486328125.384765625-.32421875.658203125-.689453125.8203125-1.09375.162109375-.40625.1875-.78515625.076171875-1.140625-.111328125-.353515625-.4208984375-.55078125-.9267578125-.591796875-.3447265625-.041015625-.71484375.0654296875-1.109375.318359375-.3955078125.25390625-.724609375.6435546875-.98828125,1.169921875-.1015625.203125-.181640625.400390625-.2431640625.59375-.060546875.19140625-.2119140625.3388671875-.455078125.439453125-.203125.08203125-.3955078125.1220703125-.578125.1220703125-.587890625,0-1.1494140625-.171875-1.6865234375-.5166015625-.537109375-.34375-.896484375-.830078125-1.0791015625-1.458984375-.0810546875-.384765625-.0703125-.759765625.03125-1.1240234375.1005859375-.3642578125.2529296875-.7197265625.455078125-1.0634765625.3447265625-.5673828125.7802734375-1.064453125,1.3076171875-1.490234375.5263671875-.4248046875,1.1083984375-.763671875,1.7470703125-1.017578125.6376953125-.2529296875,1.31640625-.41015625,2.0361328125-.470703125.71875-.060546875,1.443359375,0,2.1728515625.181640625.912109375.2236328125,1.6611328125.64453125,2.2490234375,1.26171875.5869140625.6181640625.998046875,1.3525390625,1.23046875,2.203125.2333984375.8515625.2734375,1.783203125.1220703125,2.796875-.15234375,1.0126953125-.51171875,2.0458984375-1.0791015625,3.099609375Z" style="fill: #231f20; stroke-width: 0px;"/>
        <path d="M549.5810546875,263.427734374989086c.5869140625.708984375,1.048828125,1.564453125,1.3828125,2.5673828125s.4501953125,1.9912109375.349609375,2.9638671875c-.0810546875.7490234375-.3037109375,1.494140625-.6689453125,2.232421875-.3642578125.740234375-.8310546875,1.3984375-1.3974609375,1.9765625-.5673828125.5771484375-1.220703125,1.04296875-1.9609375,1.3974609375-.7392578125.3544921875-1.5341796875.5322265625-2.384765625.5322265625-.52734375,0-1.064453125-.056640625-1.611328125-.16796875s-1.0791015625-.267578125-1.595703125-.470703125c-.5166015625-.2021484375-.998046875-.4658203125-1.443359375-.7900390625-.4453125-.3232421875-.810546875-.69921875-1.09375-1.1240234375-.3037109375-.42578125-.3955078125-.8916015625-.2734375-1.3984375.12109375-.56640625.359375-1.05859375.7138671875-1.474609375.3544921875-.4140625.68359375-.75390625.9873046875-1.017578125.162109375-.12109375.365234375-.2021484375.6083984375-.2431640625.2431640625-.0400390625.4755859375.0615234375.69921875.3037109375.3642578125.42578125.759765625.765625,1.1845703125,1.0185546875.42578125.2529296875.845703125.3955078125,1.26171875.4248046875.4150390625.03125.8095703125-.060546875,1.1845703125-.2734375s.6943359375-.5615234375.9580078125-1.0478515625c.1416015625-.2841796875.22265625-.5869140625.2431640625-.9111328125.01953125-.32421875-.041015625-.623046875-.1826171875-.8974609375-.1416015625-.2734375-.375-.505859375-.69921875-.6982421875-.32421875-.193359375-.75-.30859375-1.2763671875-.349609375-.041015625.01953125-.0712890625.025390625-.0908203125.0146484375-.0205078125-.009765625-.041015625-.0146484375-.060546875-.0146484375h-.0615234375c-.0205078125.01953125-.0400390625.029296875-.060546875.029296875h-.12109375c-.0615234375-.01953125-.126953125-.03515625-.1982421875-.044921875s-.1259765625-.03515625-.1669921875-.076171875c-.22265625-.060546875-.375-.2421875-.4560546875-.546875-.0810546875-.3037109375-.1259765625-.638671875-.13671875-1.0029296875-.009765625-.3642578125.0048828125-.7236328125.0458984375-1.0791015625.0400390625-.353515625.0908203125-.6123046875.15234375-.7744140625.080078125-.2236328125.181640625-.4111328125.3037109375-.5625.12109375-.1513671875.2626953125-.2275390625.42578125-.2275390625.505859375,0,.951171875-.162109375,1.3369140625-.486328125.384765625-.32421875.658203125-.689453125.8203125-1.09375.162109375-.40625.1875-.78515625.076171875-1.140625-.111328125-.353515625-.4208984375-.55078125-.9267578125-.591796875-.3447265625-.041015625-.71484375.0654296875-1.109375.318359375-.3955078125.25390625-.724609375.6435546875-.98828125,1.169921875-.1015625.203125-.181640625.400390625-.2431640625.59375-.060546875.19140625-.2119140625.3388671875-.455078125.439453125-.203125.08203125-.3955078125.1220703125-.578125.1220703125-.587890625,0-1.1494140625-.171875-1.6865234375-.5166015625-.537109375-.34375-.896484375-.830078125-1.0791015625-1.458984375-.0810546875-.384765625-.0703125-.759765625.03125-1.1240234375.1005859375-.3642578125.2529296875-.7197265625.455078125-1.0634765625.3447265625-.5673828125.7802734375-1.064453125,1.3076171875-1.490234375.5263671875-.4248046875,1.1083984375-.763671875,1.7470703125-1.017578125.6376953125-.2529296875,1.31640625-.41015625,2.0361328125-.470703125.71875-.060546875,1.443359375,0,2.1728515625.181640625.912109375.2236328125,1.6611328125.64453125,2.2490234375,1.26171875.5869140625.6181640625.998046875,1.3525390625,1.23046875,2.203125.2333984375.8515625.2734375,1.783203125.1220703125,2.796875-.15234375,1.0126953125-.51171875,2.0458984375-1.0791015625,3.099609375Z" style="fill: #e2dddb; stroke-width: 0px;"/>
      </g>
      <g>
        <path d="M550.970703125,344.614257812489086c-.041015625.22265625-.1123046875.435546875-.212890625.6376953125-.1015625.1630859375-.25390625.314453125-.4560546875.4560546875-.203125.142578125-.4765625.232421875-.8203125.2734375-.3447265625.041015625-.7041015625.0654296875-1.0791015625.076171875-.375.009765625-.724609375-.025390625-1.048828125-.1064453125s-.607421875-.2275390625-.8505859375-.4404296875-.39453125-.5322265625-.4560546875-.95703125c-.0400390625-.22265625-.060546875-.6787109375-.060546875-1.3681640625,0-.6884765625.009765625-1.5390625.0302734375-2.552734375-1.3974609375,0-2.80078125-.025390625-4.208984375-.076171875-1.408203125-.0498046875-2.841796875-.095703125-4.2998046875-.13671875-.0615234375.0205078125-.1328125,0-.212890625-.060546875-.060546875-.0400390625-.1220703125-.1318359375-.1826171875-.2734375s-.111328125-.3544921875-.15234375-.638671875c-.01953125-.140625-.05078125-.369140625-.0908203125-.68359375-.041015625-.3134765625-.076171875-.6484375-.1064453125-1.0029296875-.0302734375-.353515625-.0458984375-.6884765625-.0458984375-1.0029296875,0-.3134765625.05078125-.5517578125.15234375-.7138671875.0810546875-.1416015625.283203125-.3896484375.607421875-.744140625s.7197265625-.794921875,1.185546875-1.322265625c1.1748046875-1.2763671875,2.330078125-2.5830078125,3.46484375-3.9208984375,1.1337890625-1.3369140625,2.2587890625-2.765625,3.373046875-4.28515625.2021484375-.283203125.3896484375-.5009765625.5625-.6533203125.171875-.1513671875.48046875-.2470703125.9267578125-.2880859375.42578125-.041015625.95703125-.0859375,1.595703125-.13671875.6376953125-.05078125,1.1796875-.015625,1.6259765625.1064453125.1005859375.060546875.197265625.13671875.2880859375.2275390625.091796875.0908203125.1474609375.2080078125.16796875.349609375.080078125.5068359375.1259765625.982421875.13671875,1.4287109375.009765625.4453125.0244140625.87109375.044921875,1.2763671875l.1220703125,16.5322265625ZM543.5859375,335.740234374989086c.4248046875-.0205078125.8505859375-.03515625,1.2763671875-.0458984375.4248046875-.009765625.8505859375-.0146484375,1.2763671875-.0146484375,0-.5478515625.009765625-1.0947265625.0302734375-1.6416015625.01953125-.546875.0498046875-1.1142578125.0908203125-1.7021484375-.42578125.587890625-.861328125,1.16015625-1.306640625,1.7177734375-.4462890625.556640625-.9013671875,1.119140625-1.3671875,1.6865234375Z" style="fill: none; stroke: #181818; stroke-width: 5.631003379821777px;"/>
        <path d="M550.970703125,344.614257812489086c-.041015625.22265625-.1123046875.435546875-.212890625.6376953125-.1015625.1630859375-.25390625.314453125-.4560546875.4560546875-.203125.142578125-.4765625.232421875-.8203125.2734375-.3447265625.041015625-.7041015625.0654296875-1.0791015625.076171875-.375.009765625-.724609375-.025390625-1.048828125-.1064453125s-.607421875-.2275390625-.8505859375-.4404296875-.39453125-.5322265625-.4560546875-.95703125c-.0400390625-.22265625-.060546875-.6787109375-.060546875-1.3681640625,0-.6884765625.009765625-1.5390625.0302734375-2.552734375-1.3974609375,0-2.80078125-.025390625-4.208984375-.076171875-1.408203125-.0498046875-2.841796875-.095703125-4.2998046875-.13671875-.0615234375.0205078125-.1328125,0-.212890625-.060546875-.060546875-.0400390625-.1220703125-.1318359375-.1826171875-.2734375s-.111328125-.3544921875-.15234375-.638671875c-.01953125-.140625-.05078125-.369140625-.0908203125-.68359375-.041015625-.3134765625-.076171875-.6484375-.1064453125-1.0029296875-.0302734375-.353515625-.0458984375-.6884765625-.0458984375-1.0029296875,0-.3134765625.05078125-.5517578125.15234375-.7138671875.0810546875-.1416015625.283203125-.3896484375.607421875-.744140625s.7197265625-.794921875,1.185546875-1.322265625c1.1748046875-1.2763671875,2.330078125-2.5830078125,3.46484375-3.9208984375,1.1337890625-1.3369140625,2.2587890625-2.765625,3.373046875-4.28515625.2021484375-.283203125.3896484375-.5009765625.5625-.6533203125.171875-.1513671875.48046875-.2470703125.9267578125-.2880859375.42578125-.041015625.95703125-.0859375,1.595703125-.13671875.6376953125-.05078125,1.1796875-.015625,1.6259765625.1064453125.1005859375.060546875.197265625.13671875.2880859375.2275390625.091796875.0908203125.1474609375.2080078125.16796875.349609375.080078125.5068359375.1259765625.982421875.13671875,1.4287109375.009765625.4453125.0244140625.87109375.044921875,1.2763671875l.1220703125,16.5322265625ZM543.5859375,335.740234374989086c.4248046875-.0205078125.8505859375-.03515625,1.2763671875-.0458984375.4248046875-.009765625.8505859375-.0146484375,1.2763671875-.0146484375,0-.5478515625.009765625-1.0947265625.0302734375-1.6416015625.01953125-.546875.0498046875-1.1142578125.0908203125-1.7021484375-.42578125.587890625-.861328125,1.16015625-1.306640625,1.7177734375-.4462890625.556640625-.9013671875,1.119140625-1.3671875,1.6865234375Z" style="fill: #231f20; stroke-width: 0px;"/>
        <path d="M550.970703125,344.614257812489086c-.041015625.22265625-.1123046875.435546875-.212890625.6376953125-.1015625.1630859375-.25390625.314453125-.4560546875.4560546875-.203125.142578125-.4765625.232421875-.8203125.2734375-.3447265625.041015625-.7041015625.0654296875-1.0791015625.076171875-.375.009765625-.724609375-.025390625-1.048828125-.1064453125s-.607421875-.2275390625-.8505859375-.4404296875-.39453125-.5322265625-.4560546875-.95703125c-.0400390625-.22265625-.060546875-.6787109375-.060546875-1.3681640625,0-.6884765625.009765625-1.5390625.0302734375-2.552734375-1.3974609375,0-2.80078125-.025390625-4.208984375-.076171875-1.408203125-.0498046875-2.841796875-.095703125-4.2998046875-.13671875-.0615234375.0205078125-.1328125,0-.212890625-.060546875-.060546875-.0400390625-.1220703125-.1318359375-.1826171875-.2734375s-.111328125-.3544921875-.15234375-.638671875c-.01953125-.140625-.05078125-.369140625-.0908203125-.68359375-.041015625-.3134765625-.076171875-.6484375-.1064453125-1.0029296875-.0302734375-.353515625-.0458984375-.6884765625-.0458984375-1.0029296875,0-.3134765625.05078125-.5517578125.15234375-.7138671875.0810546875-.1416015625.283203125-.3896484375.607421875-.744140625s.7197265625-.794921875,1.185546875-1.322265625c1.1748046875-1.2763671875,2.330078125-2.5830078125,3.46484375-3.9208984375,1.1337890625-1.3369140625,2.2587890625-2.765625,3.373046875-4.28515625.2021484375-.283203125.3896484375-.5009765625.5625-.6533203125.171875-.1513671875.48046875-.2470703125.9267578125-.2880859375.42578125-.041015625.95703125-.0859375,1.595703125-.13671875.6376953125-.05078125,1.1796875-.015625,1.6259765625.1064453125.1005859375.060546875.197265625.13671875.2880859375.2275390625.091796875.0908203125.1474609375.2080078125.16796875.349609375.080078125.5068359375.1259765625.982421875.13671875,1.4287109375.009765625.4453125.0244140625.87109375.044921875,1.2763671875l.1220703125,16.5322265625ZM543.5859375,335.740234374989086c.4248046875-.0205078125.8505859375-.03515625,1.2763671875-.0458984375.4248046875-.009765625.8505859375-.0146484375,1.2763671875-.0146484375,0-.5478515625.009765625-1.0947265625.0302734375-1.6416015625.01953125-.546875.0498046875-1.1142578125.0908203125-1.7021484375-.42578125.587890625-.861328125,1.16015625-1.306640625,1.7177734375-.4462890625.556640625-.9013671875,1.119140625-1.3671875,1.6865234375Z" style="fill: #e2dddb; stroke-width: 0px;"/>
      </g>
    </g>
  </g>
  <a xlink:href="https://www.notion.so/dmmnotes/mid-range-AC-6dcab041303a49cba3a5ae86db83dbfc?pvs=4">
    <g id="AC-3" data-name="AC">
      <a xlink:href="https://www.notion.so/dmmnotes/Type-AC-fcafcf3712bd425293abdb7055fe3005?pvs=4">
        <g id="A">
          <path d="M250.0986328125,414.7138671875c-29.1279296875,0-54.7490234375-18.62451171875-63.755859375-46.34521484375-5.5341796875-17.03271484375-4.1044921875-35.201171875,4.0263671875-51.15869140625s21.9892578125-27.79345703125,39.021484375-33.32763671875c6.734375-2.18798828125,13.708984375-3.29736328125,20.7314453125-3.29736328125,29.126953125,0,54.748046875,18.625,63.7548828125,46.345703125,5.53515625,17.0322265625,4.10546875,35.20068359375-4.025390625,51.158203125s-21.9892578125,27.79345703125-39.021484375,33.32763671875c-6.734375,2.18798828125-13.708984375,3.29736328125-20.7314453125,3.29736328125Z" style="fill: url(#A4-3); stroke-width: 0px;"/>
          <path d="M250.122314453125,289.08503723144895c24.68115234375-.000816345220301,47.6318359375,15.729187011720569,55.671142578125,40.471939086910425,9.9921875,30.75300598144895-6.837646484375,63.783477783210401-37.590576171875,73.775711059570312-6.01025390625,1.95281982421875-12.109130859375,2.881378173829944-18.1044921875,2.881378173829944-24.680908203125,0-47.6318359375-15.729217529300513-55.671142578125-40.471969604490369-9.992431640625-30.752944946290881,6.837646484375-63.783409118650525,37.590576171875-73.775650024419519,6.01025390625-1.952835083000537,12.109375-2.881210327141162,18.1044921875-2.881408691400793M250.12451171875,272.08503723144895h-.002685546875c-7.915771484375.000236511230469-15.7744140625,1.249649047849744-23.357177734375,3.713470458980737-19.192138671875,6.235885620119006-34.807373046875,19.572349548339844-43.96875,37.552650451660156-9.161376953125,17.980354309078393-10.772705078125,38.452171325689051-4.53662109375,57.644294738769531,5.029052734375,15.477767944339575,14.668701171875,28.649520874030713,27.876953125,38.091110229490369,12.929443359375,9.242294311528894,28.13134765625,14.127532958989832,43.962158203125,14.127532958989832,7.91552734375,0,15.774169921875-1.2494049072302,23.357666015625-3.713470458989832,39.618896484375-12.872879028320312,61.378173828125-55.578063964840112,48.50537109375-95.196884155271619-5.02880859375-15.477119445798962-14.668212890625-28.648590087888806-27.8759765625-38.090408325188037-12.928955078125-9.242263793950769-28.132080078125-14.127700805671338-43.9609375-14.128295898441138h0Z" style="fill: #181818; stroke-width: 0px;"/>
        </g>
      </a>
      <a xlink:href="https://www.notion.so/dmmnotes/Type-AC-fcafcf3712bd425293abdb7055fe3005?pvs=4">
        <g id="C">
          <path d="M349.9052734375,414.6982421875c-36.970703125,0-67.048828125-30.078125-67.048828125-67.048828125s30.078125-67.04833984375,67.048828125-67.04833984375c17.9091796875-.00048828125,34.7470703125,6.97412109375,47.4111328125,19.6376953125,12.6630859375,12.6640625,19.6376953125,29.50146484375,19.6376953125,47.41064453125,0,36.970703125-30.078125,67.048828125-67.048828125,67.048828125Z" style="fill: url(#C4-3); stroke-width: 0px;"/>
          <path d="M349.905517578125,289.100845336919519c32.332763671875,0,58.548583984375,26.215026855470569,58.548828125,58.548660278320312,0,32.3355560302698-26.213134765625,58.548721313469287-58.548828125,58.548782348629175-.001953125,0,.001953125,0,0,0-32.332763671875,0-58.548583984375-26.215087890619543-58.548828125-58.548660278320312,0-32.335563659669788,26.213134765625-58.548728942869275,58.548828125-58.548782348629175.001953125,0-.001953125,0,0,0M349.905517578125,272.100845336919519h0c-41.65771484375.0000534057599-75.548828125,33.89111328125-75.548828125,75.548782348629175.000244140625,41.65771484375,33.891357421875,75.548660278320312,75.548828125,75.548660278320312,41.65771484375-.000061035159888,75.548828125-33.89111328125,75.548828125-75.548782348629175-.000244140625-41.65771484375-33.891357421875-75.548660278320312-75.548828125-75.548660278320312h0Z" style="fill: #181818; stroke-width: 0px;"/>
        </g>
      </a>
      <a xlink:href="https://www.notion.so/dmmnotes/AC-0fe4a3222d9f4fd097ab4546c9776768?pvs=4#2e8f301c49ea403dbd879f3d87d7179c">
        <g id="AC-4" data-name="AC">
          <g>
            <path d="M273.86474609375,213.095703124989086c3.9765625,2.302734375,7.37890625,5.12890625,10.205078125,8.4775390625,2.82568359375,3.3515625,5.20556640625,7.013671875,7.1435546875,10.990234375,1.935546875,3.978515625,3.478515625,8.1904296875,4.63134765625,12.638671875,1.150390625,4.44921875,2.041015625,8.923828125,2.6689453125,13.4228515625,1.46435546875,8.8974609375,2.30126953125,17.8984375,2.51171875,27.00390625.208984375,9.1064453125.0517578125,18.2666015625-.470703125,27.4755859375-.2109375,2.6171875-.41943359375,4.763671875-.6279296875,6.4365234375-.2109375,1.67578125-.603515625,3.037109375-1.177734375,4.08203125-.576171875,1.0478515625-1.38818359375,1.884765625-2.43310546875,2.5126953125-1.0478515625.6279296875-2.51220703125,1.2021484375-4.39599609375,1.7265625-1.78125.208984375-3.63818359375.365234375-5.57373046875.470703125-1.93798828125.103515625-3.74365234375-.4189453125-5.41650390625-1.5693359375-1.56982421875-1.044921875-2.8798828125-2.826171875-3.9248046875-5.337890625-1.0478515625-2.5126953125-1.6240234375-6.123046875-1.72705078125-10.8330078125v-1.5703125c-2.61767578125-.314453125-5.73046875-.57421875-9.341796875-.78515625-3.61083984375-.2080078125-7.30029296875-.3388671875-11.068359375-.392578125-3.76806640625-.0517578125-7.40576171875-.078125-10.91162109375-.078125h-8.8701171875c-.10546875.94140625-.23583984375,2.51171875-.392578125,4.7099609375-.1572265625,2.1982421875-.498046875,4.3955078125-1.0205078125,6.59375-.52490234375,2.1982421875-1.2314453125,4.1875-2.11962890625,5.9658203125-.890625,1.78125-2.11962890625,2.720703125-3.689453125,2.826171875-1.466796875.103515625-3.14013671875.208984375-5.02392578125.314453125-1.88427734375.1025390625-3.716796875-.10546875-5.4951171875-.6279296875-1.78076171875-.41796875-3.2724609375-1.2568359375-4.474609375-2.5126953125-1.20458984375-1.255859375-1.859375-3.2431640625-1.96240234375-5.9658203125,0-3.2431640625.0517578125-6.958984375.1572265625-11.146484375.10302734375-4.185546875.31396484375-8.73828125.6279296875-13.6591796875.20849609375-4.08203125.54931640625-8.556640625,1.0205078125-13.423828125.470703125-4.8671875,1.150390625-9.8642578125,2.041015625-14.9931640625.8876953125-5.126953125,2.041015625-10.2568359375,3.45361328125-15.38671875,1.4130859375-5.126953125,3.19189453125-9.9931640625,5.33837890625-14.6005859375,2.14404296875-4.6044921875,4.68310546875-8.84375,7.6142578125-12.716796875,2.92919921875-3.87109375,6.43701171875-7.1162109375,10.51904296875-9.734375,4.81298828125-3.0341796875,10.099609375-4.552734375,15.85693359375-4.552734375,5.75537109375,0,11.19873046875,1.4130859375,16.328125,4.2392578125ZM235.7138671875,284.530273437489086c6.59375-.5224609375,13.16064453125-.9150390625,19.703125-1.177734375,6.5400390625-.259765625,13.10986328125-.287109375,19.70361328125-.078125.31396484375-7.4306640625,0-14.076171875-.94189453125-19.939453125-.94189453125-5.8603515625-2.251953125-10.8056640625-3.9248046875-14.8359375-1.67578125-4.0283203125-3.6650390625-7.1162109375-5.96630859375-9.2626953125-2.30322265625-2.14453125-4.658203125-3.21875-7.06494140625-3.21875-2.0947265625,0-4.26611328125,1.07421875-6.515625,3.21875-2.251953125,2.146484375-4.34423828125,5.2861328125-6.27978515625,9.419921875-1.93798828125,4.1357421875-3.689453125,9.23828125-5.25927734375,15.306640625-1.5703125,6.072265625-2.72314453125,12.9287109375-3.4541015625,20.5673828125Z" style="fill: none; stroke: #181818; stroke-linecap: round; stroke-linejoin: round; stroke-width: 33px;"/>
            <path d="M362.8828125,243.239257812489086c.1025390625-3.0341796875-.392578125-5.310546875-1.4921875-6.8291015625-1.0986328125-1.5166015625-2.4873046875-2.4580078125-4.16015625-2.826171875-1.67578125-.365234375-3.48046875-.181640625-5.416015625.5498046875-1.9384765625.7333984375-3.689453125,1.7802734375-5.259765625,3.1396484375-3.6650390625,3.1396484375-6.62109375,7.1435546875-8.87109375,12.0107421875-2.251953125,4.8662109375-3.767578125,9.96875-4.552734375,15.3076171875-.78515625,5.337890625-.8388671875,10.6513671875-.15625,15.935546875.6787109375,5.2861328125,2.169921875,9.8662109375,4.474609375,13.7373046875,1.4638671875,2.51171875,3.2177734375,4.37109375,5.2587890625,5.5732421875,2.041015625,1.2041015625,4.2119140625,1.8837890625,6.515625,2.041015625,2.30078125.1572265625,4.5771484375-.208984375,6.8291015625-1.0986328125,2.25-.888671875,4.263671875-2.22265625,6.044921875-4.00390625,2.720703125-2.720703125,4.91796875-4.65625,6.59375-5.80859375,1.673828125-1.1513671875,3.556640625-1.779296875,5.65234375-1.884765625,5.9658203125,0,9.916015625,1.67578125,11.853515625,5.0244140625,1.935546875,3.3505859375,2.0654296875,7.4326171875.392578125,12.24609375-1.361328125,3.767578125-3.4296875,7.064453125-6.201171875,9.890625-2.775390625,2.826171875-5.994140625,5.1025390625-9.65625,6.830078125-3.6650390625,1.7265625-7.58984375,2.9306640625-11.775390625,3.6103515625-4.1875.6796875-8.3203125.8642578125-12.40234375.5498046875s-7.955078125-1.177734375-11.6181640625-2.5908203125c-3.6650390625-1.4130859375-6.8056640625-3.3212890625-9.419921875-5.73046875-2.931640625-2.720703125-5.4951171875-5.8330078125-7.6923828125-9.3408203125-2.19921875-3.505859375-4.03125-7.22265625-5.49609375-11.1474609375-1.466796875-3.9248046875-2.5654296875-8.0068359375-3.296875-12.24609375-.7333984375-4.2392578125-1.0986328125-8.501953125-1.0986328125-12.794921875.2080078125-9.62890625,2.2490234375-18.943359375,6.123046875-27.9462890625,3.87109375-9.0009765625,9.0009765625-16.8505859375,15.3857421875-23.5498046875,2.9296875-3.03515625,6.41015625-5.625,10.4404296875-7.771484375,4.0283203125-2.14453125,8.1640625-3.533203125,12.4033203125-4.1611328125,4.23828125-.6279296875,8.3994140625-.4169921875,12.4814453125.6279296875,4.08203125,1.0478515625,7.6923828125,3.24609375,10.8330078125,6.5947265625,2.40625,2.51171875,4.341796875,5.3916015625,5.80859375,8.634765625,1.46484375,3.2451171875,2.564453125,6.4912109375,3.296875,9.7333984375.41796875,2.095703125.6015625,4.08203125.5498046875,5.966796875-.0537109375,1.8837890625-.498046875,3.6650390625-1.3349609375,5.337890625-1.15234375,2.0947265625-2.9306640625,3.5859375-5.337890625,4.474609375-2.408203125.890625-4.7880859375,1.1767578125-7.142578125.86328125-2.35546875-.314453125-4.396484375-1.2294921875-6.123046875-2.748046875-1.7275390625-1.515625-2.5390625-3.583984375-2.43359375-6.201171875Z" style="fill: none; stroke: #181818; stroke-linecap: round; stroke-linejoin: round; stroke-width: 33px;"/>
          </g>
          <g>
            <path d="M273.86474609375,213.095703124989086c3.9765625,2.302734375,7.37890625,5.12890625,10.205078125,8.4775390625,2.82568359375,3.3515625,5.20556640625,7.013671875,7.1435546875,10.990234375,1.935546875,3.978515625,3.478515625,8.1904296875,4.63134765625,12.638671875,1.150390625,4.44921875,2.041015625,8.923828125,2.6689453125,13.4228515625,1.46435546875,8.8974609375,2.30126953125,17.8984375,2.51171875,27.00390625.208984375,9.1064453125.0517578125,18.2666015625-.470703125,27.4755859375-.2109375,2.6171875-.41943359375,4.763671875-.6279296875,6.4365234375-.2109375,1.67578125-.603515625,3.037109375-1.177734375,4.08203125-.576171875,1.0478515625-1.38818359375,1.884765625-2.43310546875,2.5126953125-1.0478515625.6279296875-2.51220703125,1.2021484375-4.39599609375,1.7265625-1.78125.208984375-3.63818359375.365234375-5.57373046875.470703125-1.93798828125.103515625-3.74365234375-.4189453125-5.41650390625-1.5693359375-1.56982421875-1.044921875-2.8798828125-2.826171875-3.9248046875-5.337890625-1.0478515625-2.5126953125-1.6240234375-6.123046875-1.72705078125-10.8330078125v-1.5703125c-2.61767578125-.314453125-5.73046875-.57421875-9.341796875-.78515625-3.61083984375-.2080078125-7.30029296875-.3388671875-11.068359375-.392578125-3.76806640625-.0517578125-7.40576171875-.078125-10.91162109375-.078125h-8.8701171875c-.10546875.94140625-.23583984375,2.51171875-.392578125,4.7099609375-.1572265625,2.1982421875-.498046875,4.3955078125-1.0205078125,6.59375-.52490234375,2.1982421875-1.2314453125,4.1875-2.11962890625,5.9658203125-.890625,1.78125-2.11962890625,2.720703125-3.689453125,2.826171875-1.466796875.103515625-3.14013671875.208984375-5.02392578125.314453125-1.88427734375.1025390625-3.716796875-.10546875-5.4951171875-.6279296875-1.78076171875-.41796875-3.2724609375-1.2568359375-4.474609375-2.5126953125-1.20458984375-1.255859375-1.859375-3.2431640625-1.96240234375-5.9658203125,0-3.2431640625.0517578125-6.958984375.1572265625-11.146484375.10302734375-4.185546875.31396484375-8.73828125.6279296875-13.6591796875.20849609375-4.08203125.54931640625-8.556640625,1.0205078125-13.423828125.470703125-4.8671875,1.150390625-9.8642578125,2.041015625-14.9931640625.8876953125-5.126953125,2.041015625-10.2568359375,3.45361328125-15.38671875,1.4130859375-5.126953125,3.19189453125-9.9931640625,5.33837890625-14.6005859375,2.14404296875-4.6044921875,4.68310546875-8.84375,7.6142578125-12.716796875,2.92919921875-3.87109375,6.43701171875-7.1162109375,10.51904296875-9.734375,4.81298828125-3.0341796875,10.099609375-4.552734375,15.85693359375-4.552734375,5.75537109375,0,11.19873046875,1.4130859375,16.328125,4.2392578125ZM235.7138671875,284.530273437489086c6.59375-.5224609375,13.16064453125-.9150390625,19.703125-1.177734375,6.5400390625-.259765625,13.10986328125-.287109375,19.70361328125-.078125.31396484375-7.4306640625,0-14.076171875-.94189453125-19.939453125-.94189453125-5.8603515625-2.251953125-10.8056640625-3.9248046875-14.8359375-1.67578125-4.0283203125-3.6650390625-7.1162109375-5.96630859375-9.2626953125-2.30322265625-2.14453125-4.658203125-3.21875-7.06494140625-3.21875-2.0947265625,0-4.26611328125,1.07421875-6.515625,3.21875-2.251953125,2.146484375-4.34423828125,5.2861328125-6.27978515625,9.419921875-1.93798828125,4.1357421875-3.689453125,9.23828125-5.25927734375,15.306640625-1.5703125,6.072265625-2.72314453125,12.9287109375-3.4541015625,20.5673828125Z" style="fill: #e2dddb; stroke-width: 0px;"/>
            <path d="M362.8828125,243.239257812489086c.1025390625-3.0341796875-.392578125-5.310546875-1.4921875-6.8291015625-1.0986328125-1.5166015625-2.4873046875-2.4580078125-4.16015625-2.826171875-1.67578125-.365234375-3.48046875-.181640625-5.416015625.5498046875-1.9384765625.7333984375-3.689453125,1.7802734375-5.259765625,3.1396484375-3.6650390625,3.1396484375-6.62109375,7.1435546875-8.87109375,12.0107421875-2.251953125,4.8662109375-3.767578125,9.96875-4.552734375,15.3076171875-.78515625,5.337890625-.8388671875,10.6513671875-.15625,15.935546875.6787109375,5.2861328125,2.169921875,9.8662109375,4.474609375,13.7373046875,1.4638671875,2.51171875,3.2177734375,4.37109375,5.2587890625,5.5732421875,2.041015625,1.2041015625,4.2119140625,1.8837890625,6.515625,2.041015625,2.30078125.1572265625,4.5771484375-.208984375,6.8291015625-1.0986328125,2.25-.888671875,4.263671875-2.22265625,6.044921875-4.00390625,2.720703125-2.720703125,4.91796875-4.65625,6.59375-5.80859375,1.673828125-1.1513671875,3.556640625-1.779296875,5.65234375-1.884765625,5.9658203125,0,9.916015625,1.67578125,11.853515625,5.0244140625,1.935546875,3.3505859375,2.0654296875,7.4326171875.392578125,12.24609375-1.361328125,3.767578125-3.4296875,7.064453125-6.201171875,9.890625-2.775390625,2.826171875-5.994140625,5.1025390625-9.65625,6.830078125-3.6650390625,1.7265625-7.58984375,2.9306640625-11.775390625,3.6103515625-4.1875.6796875-8.3203125.8642578125-12.40234375.5498046875s-7.955078125-1.177734375-11.6181640625-2.5908203125c-3.6650390625-1.4130859375-6.8056640625-3.3212890625-9.419921875-5.73046875-2.931640625-2.720703125-5.4951171875-5.8330078125-7.6923828125-9.3408203125-2.19921875-3.505859375-4.03125-7.22265625-5.49609375-11.1474609375-1.466796875-3.9248046875-2.5654296875-8.0068359375-3.296875-12.24609375-.7333984375-4.2392578125-1.0986328125-8.501953125-1.0986328125-12.794921875.2080078125-9.62890625,2.2490234375-18.943359375,6.123046875-27.9462890625,3.87109375-9.0009765625,9.0009765625-16.8505859375,15.3857421875-23.5498046875,2.9296875-3.03515625,6.41015625-5.625,10.4404296875-7.771484375,4.0283203125-2.14453125,8.1640625-3.533203125,12.4033203125-4.1611328125,4.23828125-.6279296875,8.3994140625-.4169921875,12.4814453125.6279296875,4.08203125,1.0478515625,7.6923828125,3.24609375,10.8330078125,6.5947265625,2.40625,2.51171875,4.341796875,5.3916015625,5.80859375,8.634765625,1.46484375,3.2451171875,2.564453125,6.4912109375,3.296875,9.7333984375.41796875,2.095703125.6015625,4.08203125.5498046875,5.966796875-.0537109375,1.8837890625-.498046875,3.6650390625-1.3349609375,5.337890625-1.15234375,2.0947265625-2.9306640625,3.5859375-5.337890625,4.474609375-2.408203125.890625-4.7880859375,1.1767578125-7.142578125.86328125-2.35546875-.314453125-4.396484375-1.2294921875-6.123046875-2.748046875-1.7275390625-1.515625-2.5390625-3.583984375-2.43359375-6.201171875Z" style="fill: #e2dddb; stroke-width: 0px;"/>
          </g>
        </g>
      </a>
    </g>
  </a>
</svg>