<?xml version="1.0" encoding="UTF-8"?>
<svg id="Layer_1" data-name="Layer 1" xmlns="http://www.w3.org/2000/svg" xmlns:xlink="http://www.w3.org/1999/xlink" viewBox="0 0 600.000000000001819 600">
  <defs>
    <linearGradient id="A4-3" data-name="A4" x1="251.939035926272481" y1="407.846985225565732" x2="342.367821176188102" y2="294.582648144877169" gradientUnits="userSpaceOnUse">
      <stop offset="0" stop-color="#7d67a2"/>
      <stop offset=".385181145631382" stop-color="#895ea4"/>
      <stop offset=".489316239316239" stop-color="#8e5ba6"/>
      <stop offset=".841924594895194" stop-color="#9a5c9d"/>
      <stop offset="1" stop-color="#a25d99"/>
    </linearGradient>
  </defs>
  <g id="pie_with_links_-5" data-name="pie (with links)">
    <g id="pie_with_links_-6" data-name="pie (with links)">
      <g id="Pie">
        <g>
          <a xlink:href="https://www.notion.so/dmmnotes/paranoid-ae38b1e6af0c4dd08f61e0d8f6e9f05f?pvs=4">
            <path id="C8" d="M331.308105468762733,517.74951171875l7.825683593739086,54.4306640625c26.439208984371362-3.767822265630457,51.645751953139552-11.3115234375,75.101318359371362-22.04296875l-22.832519531239086-49.996826171880457c-18.7666015625,8.572265625-38.93505859375,14.601318359380457-60.094482421871362,17.609130859380457Z" fill="none" stroke="#181818" stroke-linecap="round" stroke-linejoin="round" stroke-width="15"/>
          </a>
          <a xlink:href="https://www.notion.so/dmmnotes/menacing-a5bd7149286344deba45ec15e759e579?pvs=4">
            <path id="C7" d="M391.402587890634095,500.140380859369543l22.832519531239086,49.996826171880457c23.989990234389552-10.975830078121362,46.11621093751819-25.287109375010914,65.803955078139552-42.36181640625l-35.972900390628638-41.515869140621362c-15.753417968760914,13.65869140625-33.459228515632276,25.104492187490905-52.66357421875,33.880859374990905Z" fill="none" stroke="#181818" stroke-linecap="round" stroke-linejoin="round" stroke-width="15"/>
          </a>
          <a xlink:href="https://www.notion.so/dmmnotes/seductively-obsessed-with-rescue-6fb5a68f6d334bc29ccccc16d8a4e56e?pvs=4">
            <path id="C6" d="M444.066162109384095,466.259521484378638l35.972900390628638,41.515869140621362c19.762939453121362-17.141845703130457,37.047119140621362-37.041748046880457,51.26708984375-59.125l-46.223632812510914-29.704833984371362c-11.373291015617724,17.673583984371362-25.201171874989086,33.598876953121362-41.016357421867724,47.31396484375Z" fill="none" stroke="#181818" stroke-linecap="round" stroke-linejoin="round" stroke-width="15"/>
          </a>
          <a xlink:href="https://www.notion.so/dmmnotes/punitively-obsessed-with-revenge-33d2e77f37774316b42bccf4a60f9688?pvs=4">
            <path id="C5" d="M485.082519531251819,418.945556640628638l46.223632812510914,29.704833984371362c14.048095703128638-21.809326171880457,25.08837890625-45.71875,32.551513671871362-71.175048828130457l-52.7548828125-15.490234375c-5.9619140625,20.377929687509095-14.789306640621362,39.509765625-26.020263671882276,56.960449218759095Z" fill="none" stroke="#181818" stroke-linecap="round" stroke-linejoin="round" stroke-width="15"/>
          </a>
          <a xlink:href="https://www.notion.so/dmmnotes/feigned-helpless-e79a94b0498c4e109a681b7f3dcdb088?pvs=4">
            <path id="C4" d="M520.000000000001819,300c0,21.5380859375-3.142089843739086,42.321533203119543-8.897216796867724,61.985107421869543l52.7548828125,15.490234375c7.2080078125-24.583496093740905,11.142333984367724-50.5634765625,11.142333984367724-77.475341796869543h-55Z" fill="none" stroke="#181818" stroke-linecap="round" stroke-linejoin="round" stroke-width="15"/>
          </a>
          <a xlink:href="https://www.notion.so/dmmnotes/aggressive-2d8ccce383534b9dbfc7b4b10b8a5d5c?pvs=4">
            <path id="C3" d="M520.000000000001819,300h55c0-26.911865234391371-3.934326171867724-52.894531250010914-11.142333984367724-77.475341796891371l-52.7548828125,15.490234375c5.755126953128638,19.663574218760914,8.897216796867724,40.449707031260914,8.897216796867724,61.985107421891371Z" fill="none" stroke="#181818" stroke-linecap="round" stroke-linejoin="round" stroke-width="15"/>
          </a>
          <a xlink:href="https://www.notion.so/dmmnotes/disarming-086276e599884c86b9359acf831a8b20?pvs=4">
            <path id="C2" d="M511.102783203134095,238.014892578108629l52.7548828125-15.490234375c-7.463134765621362-25.456298828119543-18.503417968742724-49.365722656239086-32.551513671871362-71.177734374989086l-46.223632812510914,29.70751953125c11.230957031260914,17.45068359375,20.055664062510914,36.585205078119543,26.020263671882276,56.960449218739086Z" fill="none" stroke="#181818" stroke-linecap="round" stroke-linejoin="round" stroke-width="15"/>
          </a>
          <a xlink:href="https://www.notion.so/dmmnotes/threatening-348fe6a52f7a4fe69f768e98c6586932?pvs=4">
            <path id="C1" d="M485.082519531251819,181.054443359369543l46.223632812510914-29.70751953125c-14.219970703128638-22.08056640625-31.504150390628638-41.980468750010914-51.26708984375-59.122314453119543l-35.972900390628638,41.518554687489086c15.815185546878638,13.71240234375,29.64306640625,29.637695312510914,41.016357421867724,47.311279296880457Z" fill="none" stroke="#181818" stroke-linecap="round" stroke-linejoin="round" stroke-width="15"/>
          </a>
          <a xlink:href="https://www.notion.so/dmmnotes/complaining-acceptance-8b40401a720c493ba73f7cde1567cf3d?pvs=4">
            <path id="B5" d="M444.066162109384095,133.743164062489086l35.972900390628638-41.518554687489086c-19.687744140621362-17.07470703125-41.81396484375-31.388671875-65.803955078139552-42.36181640625l-22.832519531239086,49.99951171875c19.204345703117724,8.773681640619543,36.910156249989086,20.22216796875,52.66357421875,33.880859374989086Z" fill="none" stroke="#181818" stroke-linecap="round" stroke-linejoin="round" stroke-width="15"/>
          </a>
          <a xlink:href="https://www.notion.so/dmmnotes/sentimental-bc554363322342b1b7ca4ccc02125049?pvs=4">
            <path id="B4" d="M391.402587890634095,99.8623046875l22.832519531239086-49.99951171875c-23.45556640623181-10.7314453125-48.662109375-18.275146484391371-75.101318359371362-22.042968749990905l-7.825683593739086,54.433349609360448c21.159423828121362,3.0078125,41.327880859371362,9.034179687489086,60.094482421871362,17.609130859380457Z" fill="none" stroke="#181818" stroke-linecap="round" stroke-linejoin="round" stroke-width="15"/>
          </a>
          <a xlink:href="https://www.notion.so/dmmnotes/comfortably-balanced-e76dc615a8b947aa915377cd02fcf716?pvs=4">
            <path id="B3" d="M300.000000000001819,80c10.634765625,0,21.078857421871362.797607421869543,31.308105468760914,2.253173828119543l7.825683593739086-54.433349609360448c-12.788574218739086-1.823486328139552-25.843017578128638-2.819824218759095-39.1337890625-2.819824218759095-13.290771484367724,0-26.34521484375.996337890619543-39.133789062489086,2.819824218759095l7.825683593739086,54.433349609360448c10.23193359375-1.45556640625,20.67333984375-2.253173828119543,31.30810546875-2.253173828119543Z" fill="none" stroke="#181818" stroke-linecap="round" stroke-linejoin="round" stroke-width="15"/>
          </a>
          <a xlink:href="https://www.notion.so/dmmnotes/accepting-317d81273fff4cd9817cdf4a88efd378?pvs=4">
            <path id="B2" d="M268.691894531251819,82.253173828119543l-7.825683593739086-54.433349609360448c-26.43920898439319,3.767822265599534-51.643066406262733,11.311523437490905-75.098632812512733,22.042968749990905l22.83251953125,49.99951171875c18.7666015625-8.574951171891371,38.935058593751819-14.601318359380457,60.091796875001819-17.609130859380457Z" fill="none" stroke="#181818" stroke-linecap="round" stroke-linejoin="round" stroke-width="15"/>
          </a>
          <a xlink:href="https://www.notion.so/dmmnotes/distanced-from-past-2eabab7e9c77429f8e577f4e3e203653?pvs=4">
            <path id="B1" d="M208.60009765625,99.8623046875l-22.83251953125-49.99951171875c-23.99267578125,10.97314453125-46.1162109375,25.287109375-65.803955078119543,42.36181640625l35.972900390619543,41.515869140619543c15.75341796875-13.658691406260914,33.4619140625-25.1044921875,52.66357421875-33.878173828119543Z" fill="none" stroke="#181818" stroke-linecap="round" stroke-linejoin="round" stroke-width="15"/>
          </a>
          <a xlink:href="https://www.notion.so/dmmnotes/psychopathy-0fe4a3222d9f4fd097ab4546c9776768?pvs=4">
            <path id="AC" d="M300.000000000001819,520c-10.634765625,0-21.076171875-.794921875-31.30810546875-2.25048828125l-7.825683593739086,54.4306640625c12.788574218739086,1.823486328128638,25.843017578121362,2.81982421875,39.133789062489086,2.81982421875,13.290771484371362,0,26.345214843760914-.996337890621362,39.1337890625-2.81982421875l-7.825683593739086-54.4306640625c-10.229248046889552,1.45556640625-20.673339843760914,2.25048828125-31.308105468760914,2.25048828125Z" fill="none" stroke="#181818" stroke-linecap="round" stroke-linejoin="round" stroke-width="15"/>
          </a>
          <a xlink:href="https://www.notion.so/dmmnotes/idealising-a52277f51ed14a42aae78081bb34b8be?pvs=4">
            <g id="A1">
              <path d="M114.918945312510004,182.05419921875c-.185546875,0-.3720703125-.05126953125-.5400390625-.15869140625l-46.2265625-29.70751953125c-.22265625-.1435546875-.3798828125-.3701171875-.4365234375-.62939453125-.0556640625-.25927734375-.0068359375-.5302734375.13671875-.75341796875,14.2412109375-22.11181640625,31.5537109375-42.07568359375,51.4560546875-59.3359375.1826171875-.158203125.4150390625-.24462890625.6552734375-.24462890625.0234375,0,.046875.0009765625.0712890625.00244140625.2646484375.01904296875.5107421875.14208984375.6845703125.3427734375l35.97265625,41.515625c.361328125.4169921875.31640625,1.04833984375-.1005859375,1.41015625-15.7978515625,13.7001953125-29.53515625,29.546875-40.8310546875,47.099609375-.19140625.296875-.5126953125.458984375-.841796875.458984375Z" fill="none" stroke="#181818" stroke-linecap="round" stroke-linejoin="round" stroke-width="15"/>
              <path d="M119.963378906260004,92.224609375l35.97314453125,41.515869140628638c-15.8154296875,13.715087890621362-29.64306640625,29.640380859371362-41.0166015625,47.31396484375l-46.22607421875-29.70751953125c14.2197265625-22.08056640625,31.50390625-41.98046875,51.26953125-59.122314453128638M119.963378906260004,90.224609375c-.47998046875,0-.9453125.172637939449487-1.310546875.489074707029431-19.97509765625,17.32373046875-37.349609375,37.359405517579944-51.640625,59.550384521489832-.287109375.446228027340112-.38525390625.988403320308862-.27294921875,1.507080078119543.11279296875.518676757810681.4267578125.971343994140625.87353515625,1.25830078125l46.22607421875,29.70751953125c.33447265625.215026855470569.708984375.317718505861194,1.0791015625.317718505861194.65771484375,0,1.3017578125-.323944091800513,1.68359375-.917938232421875,11.24560546875-17.474334716798694,24.92041015625-33.248809814449487,40.6455078125-46.885284423828125.833984375-.723480224611194.92431640625-1.98614501953125.201171875-2.820709228510168l-35.97314453125-41.515869140630457c-.34765625-.400970458980737-.84033203125-.647491455079944-1.36962890625-.685211181640625-.04736328125-.003387451170056-.0947265625-.00506591796875-.14208984375-.00506591796875h0Z" fill="none" stroke="#181818" stroke-linecap="round" stroke-linejoin="round" stroke-width="15"/>
            </g>
          </a>
          <a xlink:href="https://www.notion.so/dmmnotes/distancing-9ac690cdca654729a17a5a255944e2d1?pvs=4">
            <g id="A2">
              <path d="M88.897460937510004,239.0146484375c-.0947265625,0-.189453125-.01318359375-.28125-.04052734375l-52.7548828125-15.490234375c-.5302734375-.15576171875-.833984375-.7109375-.6787109375-1.24072265625,7.3935546875-25.21826171875,18.384765625-49.25341796875,32.669921875-71.43798828125.19140625-.296875.5126953125-.45849609375.841796875-.45849609375.185546875,0,.3720703125.05126953125.5400390625.15869140625l46.2265625,29.70751953125c.22265625.1435546875.3798828125.36962890625.4365234375.62890625.0556640625.25927734375.0068359375.5302734375-.13671875.75341796875-11.328125,17.6025390625-20.04296875,36.67919921875-25.9033203125,56.7001953125-.0751953125.2548828125-.2470703125.46923828125-.48046875.5966796875-.1484375.0810546875-.3134765625.12255859375-.4794921875.12255859375Z" fill="none" stroke="#181818" stroke-linecap="round" stroke-linejoin="round" stroke-width="15"/>
              <path d="M68.693847656260004,151.346923828128638l46.22607421875,29.70751953125c-11.23095703125,17.45068359375-20.05810546875,36.585205078121362-26.02294921875,56.96044921875l-52.7548828125-15.490234375c7.46337890625-25.456298828128638,18.50634765625-49.36572265625,32.5517578125-71.177734375M68.695800781260004,149.3466796875c-.6572265625,0-1.30126953125.32373046875-1.68359375.917449951168237-14.3369140625,22.264526367191138-25.36865234375,46.387176513670056-32.78955078125,71.697845458991651-.310546875,1.059661865228918.29638671875,2.170562744138806,1.35595703125,2.481658935539599l52.7548828125,15.490234375c.1845703125.054229736329944.37451171875.081024169929151.5634765625.081024169929151.33203125,0,.66259765625-.082794189460401.958984375-.245025634769263.4658203125-.254516601560681.8115234375-.683715820310681.96044921875-1.193054199220569,5.8349609375-19.932098388670056,14.5107421875-38.921264648439319,25.78515625-56.439971923829944.287109375-.446228027340112.38525390625-.98831176756903.27294921875-1.506896972648974-.11279296875-.5185546875-.4267578125-.971099853521082-.87353515625-1.257995605470569l-46.22607421875-29.70751953125c-.33447265625-.215026855470569-.708984375-.317749023439319-1.0791015625-.317749023439319h0Z" fill="none" stroke="#181818" stroke-linecap="round" stroke-linejoin="round" stroke-width="15"/>
            </g>
          </a>
          <a xlink:href="https://www.notion.so/dmmnotes/compulsive-caregiving-9c380c0928294f41ae10764aa0dee886?pvs=4">
            <g id="A3">
              <path d="M25.000000000010004,301c-.552734375,0-1-.44775390625-1-1,0-26.283203125,3.7626953125-52.4443359375,11.1826171875-77.7568359375.0751953125-.2548828125.248046875-.46923828125.48046875-.59619140625.1484375-.0810546875.3134765625-.12255859375.4794921875-.12255859375.0947265625,0,.189453125.01318359375.2822265625.04052734375l52.75390625,15.490234375c.5302734375.1552734375.833984375.71044921875.6787109375,1.240234375-5.876953125,20.078125-8.857421875,40.8388671875-8.857421875,61.70458984375,0,.55224609375-.447265625,1-1,1H25.000000000010004Z" fill="none" stroke="#181818" stroke-linecap="round" stroke-linejoin="round" stroke-width="15"/>
              <path d="M36.142089843760004,222.524658203128638l52.7548828125,15.490234375c-5.7548828125,19.66357421875-8.89697265625,40.44970703125-8.89697265625,61.985107421871362H25.000000000010004c0-26.911865234371362,3.93701171875-52.89453125,11.14208984375-77.475341796871362M36.142089843760004,220.524658203128638c-.33203125,0-.662109375.082733154289599-.958984375.244873046871362-.46533203125.25439453125-.81103515625.683380126949487-.96044921875,1.19256591796875-7.44677734375,25.405929565429688-11.22265625,51.661682128909888-11.22265625,78.03790283203125,0,1.10456848144895.8955078125,2,2,2h55c1.1044921875,0,2-.89543151855105,2-2,0-20.768386840820312,2.96630859375-41.434188842771619,8.81640625-61.42333984375.31005859375-1.059448242191138-.296875-2.169769287111194-1.35595703125-2.48077392578125l-52.7548828125-15.490203857420056c-.1845703125-.054229736329944-.37451171875-.081024169920056-.5634765625-.081024169920056h0Z" fill="none" stroke="#181818" stroke-linecap="round" stroke-linejoin="round" stroke-width="15"/>
            </g>
          </a>
          <a xlink:href="https://www.notion.so/dmmnotes/compulsive-compliance-6d08b7ea9a424ce1a72b9184b7850414?pvs=4">
            <g id="A4">
              <path d="M36.142578125010004,378.47509765625c-.166015625,0-.3310546875-.04150390625-.4794921875-.12255859375-.232421875-.126953125-.4052734375-.34130859375-.48046875-.59619140625-7.419921875-25.31201171875-11.1826171875-51.47265625-11.1826171875-77.75634765625,0-.55224609375.447265625-1,1-1h55c.552734375,0,1,.44775390625,1,1,0,20.86572265625,2.98046875,41.6259765625,8.857421875,61.7041015625.1552734375.52978515625-.1484375,1.0849609375-.6787109375,1.240234375l-52.75390625,15.490234375c-.0927734375.02734375-.1875.04052734375-.2822265625.04052734375Z" fill="none" stroke="#181818" stroke-linecap="round" stroke-linejoin="round" stroke-width="15"/>
              <path d="M80.000000000010004,300c0,21.5380859375,3.14208984375,42.321533203128638,8.89697265625,61.985107421878638l-52.7548828125,15.490234375c-7.205078125-24.580810546878638-11.14208984375-50.5634765625-11.14208984375-77.475341796878638h55M80.000000000010004,298H25.000000000010004c-1.1044921875,0-2,.895431518558325-2,2,0,26.376220703128638,3.77587890625,52.631973266599744,11.22265625,78.037910461429419.1494140625.509178161619275.4951171875.93817138671875.96044921875,1.192558288570581.296875.162124633789062.626953125.244873046878638.958984375.244873046878638.18896484375,0,.37890625-.026786804199219.5634765625-.081016540529163l52.7548828125-15.490226745610926c1.05908203125-.311004638670056,1.666015625-1.421310424799231,1.35595703125-2.48075866698855-5.85009765625-19.9891510009802-8.81640625-40.654953002931506-8.81640625-61.42333984375,0-1.104568481441675-.8955078125-2-2-2h0Z" fill="none" stroke="#181818" stroke-linecap="round" stroke-linejoin="round" stroke-width="15"/>
            </g>
          </a>
          <a xlink:href="https://www.notion.so/dmmnotes/sexual-supplementation-8e85f49046ef412aa229745abf7d38d3?pvs=4">
            <g id="A5">
              <path d="M68.694335937510004,449.650390625c-.3291015625,0-.650390625-.16162109375-.841796875-.45849609375-14.2841796875-22.18212890625-25.2763671875-46.21630859375-32.669921875-71.435546875-.1552734375-.52978515625.1484375-1.0849609375.6787109375-1.24072265625l52.7548828125-15.490234375c.091796875-.02734375.1865234375-.04052734375.28125-.04052734375.166015625,0,.3310546875.04150390625.4794921875.12255859375.2333984375.12744140625.4052734375.341796875.48046875.5966796875,5.8603515625,20.0244140625,14.57421875,39.10107421875,25.9013671875,56.70068359375.1435546875.22314453125.1923828125.494140625.13671875.75341796875-.056640625.25927734375-.2138671875.4853515625-.4365234375.62890625l-46.224609375,29.70458984375c-.16796875.107421875-.3544921875.15869140625-.5400390625.15869140625Z" fill="none" stroke="#181818" stroke-linecap="round" stroke-linejoin="round" stroke-width="15"/>
              <path d="M88.896972656260004,361.985107421878638c5.96484375,20.377937316890893,14.78955078125,39.509765625,26.0205078125,56.960441589350012l-46.2236328125,29.704845428470435c-14.04541015625-21.809322357179553-25.08837890625-45.718753814699085-32.5517578125-71.175045013429553l52.7548828125-15.490242004390893M88.896972656260004,359.985107421878638c-.18896484375,0-.37890625.026794433590112-.5634765625.081008911130994l-52.7548828125,15.490249633789062c-1.0595703125.311103820800781-1.66650390625,1.422012329099744-1.35595703125,2.481658935541418,7.42138671875,25.312461853029163,18.45361328125,49.434234619147901,32.78955078125,71.695262908939185.38232421875.59359359741029,1.0263671875.917346954349341,1.68359375.917346954349341.3701171875,0,.74462890625-.102676391608838,1.0791015625-.317714691169385l46.2236328125-29.704845428459521c.44677734375-.286895751960401.7607421875-.739433288581495.87353515625-1.25801849365962.1123046875-.518569946281787.01416015625-1.06064605712163-.27294921875-1.506889343261719-11.27294921875-17.516342163078662-19.94775390625-36.505462646478918-25.78271484375-56.439903259270068-.14892578125-.50935363769895-.49462890625-.938583374028894-.96044921875-1.193115234378638-.29638671875-.162246704101562-.626953125-.24504089355105-.958984375-.24504089355105h0Z" fill="none" stroke="#181818" stroke-linecap="round" stroke-linejoin="round" stroke-width="15"/>
            </g>
          </a>
          <a xlink:href="https://www.notion.so/dmmnotes/compulsive-isolated-self-reliance-b321873a73fa41aaaadd7192fde856a2?pvs=4">
            <g id="A6">
              <path d="M119.963867187510004,508.775390625c-.240234375,0-.47265625-.08642578125-.6552734375-.24462890625-19.904296875-17.26220703125-37.216796875-37.2265625-51.4560546875-59.3388671875-.1435546875-.22314453125-.1923828125-.494140625-.13671875-.75341796875.056640625-.259765625.2138671875-.48583984375.4365234375-.62939453125l46.224609375-29.70458984375c.16796875-.107421875.35546875-.15869140625.5400390625-.15869140625.3291015625,0,.650390625.16162109375.841796875.458984375,11.298828125,17.556640625,25.037109375,33.4033203125,40.8330078125,47.099609375.4169921875.361328125.4619140625.9931640625.1005859375,1.41015625l-35.97265625,41.515625c-.173828125.20068359375-.419921875.32373046875-.6845703125.3427734375-.0234375.00146484375-.0478515625.00244140625-.0712890625.00244140625Z" fill="none" stroke="#181818" stroke-linecap="round" stroke-linejoin="round" stroke-width="15"/>
              <path d="M114.917480468760004,418.945556640628638c11.3759765625,17.676265716550915,25.20361328125,33.60156631468999,41.01904296875,47.31396865843999l-35.97314453125,41.515865325931372c-19.765625-17.14185047150022-37.0498046875-37.041749954219995-51.26953125-59.125l46.2236328125-29.704833984371362M114.915527343760004,416.9453125c-.3701171875,0-.74462890625.10266876220885-1.0791015625.317710876468482l-46.2236328125,29.704833984371362c-.44677734375.286933898929419-.7607421875.739582061769397-.87353515625,1.258251190189185-.1123046875.518665313720703-.01416015625,1.060813903810413.27294921875,1.507049560539599,14.28955078125,22.191682815560853,31.6640625,42.228249073030383,51.640625,59.553165435791016.365234375.316400527959559.83056640625.489068031318311,1.310546875.489068031318311.04736328125,0,.0947265625-.001677513129835.14208984375-.005067825319202.529296875-.037733077999292,1.02197265625-.2842330932599,1.36962890625-.685216903690161l35.97314453125-41.515866279600232c.72314453125-.834617614749732.6328125-2.097400665279565-.20166015625-2.820835113529029-15.72265625-13.632133483879443-29.3984375-29.406597137451172-40.6474609375-46.885215759270068-.3818359375-.593902587890625-1.02587890625-.917877197269263-1.68359375-.917877197269263h0Z" fill="none" stroke="#181818" stroke-linecap="round" stroke-linejoin="round" stroke-width="15"/>
            </g>
          </a>
          <a xlink:href="https://www.notion.so/dmmnotes/delusional-idealization-743e2420b9994a48a7cab68190432e8a?pvs=4">
            <g id="A7">
              <path d="M185.767578125010004,551.13720703125c-.142578125,0-.2841796875-.0302734375-.416015625-.0908203125-23.9013671875-10.93310546875-46.12109375-25.23779296875-66.04296875-42.515625-.4169921875-.36181640625-.4619140625-.9931640625-.1005859375-1.41015625l35.97265625-41.515625c.173828125-.20068359375.419921875-.32373046875.6845703125-.3427734375.0234375-.00146484375.0478515625-.00244140625.0712890625-.00244140625.240234375,0,.47265625.08642578125.6552734375.24462890625,15.8115234375,13.708984375,33.44921875,25.05615234375,52.423828125,33.72607421875.501953125.2294921875.72265625.82275390625.4931640625,1.3251953125l-22.83203125,49.9970703125c-.109375.2412109375-.3115234375.4287109375-.5595703125.521484375-.11328125.0419921875-.2314453125.06298828125-.349609375.06298828125Z" fill="none" stroke="#181818" stroke-linecap="round" stroke-linejoin="round" stroke-width="15"/>
              <path d="M155.936523437510004,466.25951385497865c15.75341796875,13.658700942991345,33.4619140625,25.107183933259876,52.66357421875,33.880867123611097l-22.83251953125,49.996833682058423c-23.99267578125-10.975833892829542-46.1162109375-25.287117004398169-65.80419921875-42.361817359927954l35.97314453125-41.515883445741565M155.936523437510004,464.259502410888672c-.04736328125,0-.0947265625.001682281490503-.142578125.005077362060547-.52880859375.037784576419654-1.021484375.284267425540747-1.369140625.685218811038794l-35.97314453125,41.515882492061792c-.72314453125.834532737728296-.6328125,2.097166061399548.201171875,2.820650100709827,19.99365234375,17.339550018308728,42.29443359375,31.695682525629309,66.28271484375,42.669616699220569.263671875.120601654049096.54736328125.181270599357958.83203125.181270599357958.236328125,0,.47265625-.041820526119409.6982421875-.125888824459253.49755859375-.185283660890491.900390625-.560581207279029,1.12109375-1.04330062866029l22.83251953125-49.996831417089197c.45849609375-1.004599988460541.0166015625-2.190933346741076-.98828125-2.649916708469391-18.88623046875-8.62966674566087-36.44384765625-19.925216138361066-52.1845703125-33.572867810720709-.36474609375-.316303253179285-.83056640625-.488910675050647-1.31005859375-.488910675050647h0Z" fill="none" stroke="#181818" stroke-linecap="round" stroke-linejoin="round" stroke-width="15"/>
            </g>
          </a>
          <a xlink:href="https://www.notion.so/dmmnotes/externally-assembled-self-994ecb0895b844409b931d74a045c162?pvs=4">
            <g id="A8">
              <path d="M260.867187500012733,573.18017578125c-.046875,0-.09375-.00341796875-.1416015625-.009765625-26.040039062502728-3.71142578125-51.399414062502728-11.15478515625-75.374023437502728-22.1240234375-.501953125-.2294921875-.72265625-.822265625-.4931640625-1.32470703125l22.83203125-49.9970703125c.109375-.2412109375.3115234375-.4287109375.5595703125-.521484375.11328125-.0419921875.2314453125-.06298828125.349609375-.06298828125.1416015625,0,.2841796875.0302734375.416015625.09033203125,19.0244140625,8.693359375,39.149414062502728,14.5908203125,59.816406250002728,17.52880859375.2626953125.03759765625.5.177734375.6591796875.39013671875s.2275390625.4794921875.1904296875.7421875l-7.8251953125,54.4306640625c-.072265625.49853515625-.5.85791015625-.9892578125.85791015625Z" fill="none" stroke="#181818" stroke-linecap="round" stroke-linejoin="round" stroke-width="15"/>
              <path d="M208.600097656260004,500.140385985378089c18.7666015625,8.574938416481018,38.935058593752728,14.60130751133147,60.091796875002728,17.60912382602146l-7.82568359375,54.430658340459559c-26.439453125002728-3.767814636230469-51.643066406252728-11.31151962281001-75.098632812502728-22.04296493531001l22.83251953125-49.996817231171008M208.600097656260004,498.140388786789117c-.236328125,0-.47314453125.041865527629852-.69873046875.12602800131026-.4970703125.185338437559039-.900390625.560584604740143-1.12060546875,1.043153852229807l-22.83251953125,49.996814399950381c-.45849609375,1.004245758060279-.0166015625,2.190185546878638.9873046875,2.649509429938917,24.06298828125,11.009460449211474,49.51513671875,18.480064392089844,75.648437500002728,22.204277038570581.095703125.013626098629175.19091796875.020256042480469.28466796875.020256042480469.978515625,0,1.833984375-.718879699710669,1.97705078125-1.715644836429419l7.82568359375-54.430658340450464c.07568359375-.525569915771484-.06103515625-1.059616088870825-.37939453125-1.484430313110352-.318359375-.424831390380859-.79296875-.705539703369141-1.318359375-.780277252200904-20.57177734375-2.924615859979895-40.604492187502728-8.79501533507937-59.542480468752728-17.448123097419739-.26318359375-.120357990259436-.546875-.180904924869537-.8310546875-.180904924869537h0Z" fill="none" stroke="#181818" stroke-linecap="round" stroke-linejoin="round" stroke-width="15"/>
            </g>
          </a>
        </g>
        <g>
          <a xlink:href="https://www.notion.so/dmmnotes/paranoid-ae38b1e6af0c4dd08f61e0d8f6e9f05f?pvs=4">
            <path id="C8-2" data-name="C8" d="M331.308105468762733,517.74951171875l7.825683593739086,54.4306640625c26.439208984371362-3.767822265630457,51.645751953139552-11.3115234375,75.101318359371362-22.04296875l-22.832519531239086-49.996826171880457c-18.7666015625,8.572265625-38.93505859375,14.601318359380457-60.094482421871362,17.609130859380457Z" fill="#8f807d" stroke="#181818" stroke-linecap="round" stroke-linejoin="round" stroke-width="2"/>
          </a>
          <a xlink:href="https://www.notion.so/dmmnotes/menacing-a5bd7149286344deba45ec15e759e579?pvs=4">
            <path id="C7-2" data-name="C7" d="M391.402587890634095,500.140380859369543l22.832519531239086,49.996826171880457c23.989990234389552-10.975830078121362,46.11621093751819-25.287109375010914,65.803955078139552-42.36181640625l-35.972900390628638-41.515869140621362c-15.753417968760914,13.65869140625-33.459228515632276,25.104492187490905-52.66357421875,33.880859374990905Z" fill="#8f807d" stroke="#181818" stroke-linecap="round" stroke-linejoin="round" stroke-width="2"/>
          </a>
          <a xlink:href="https://www.notion.so/dmmnotes/seductively-obsessed-with-rescue-6fb5a68f6d334bc29ccccc16d8a4e56e?pvs=4">
            <path id="C6-2" data-name="C6" d="M444.066162109384095,466.259521484378638l35.972900390628638,41.515869140621362c19.762939453121362-17.141845703130457,37.047119140621362-37.041748046880457,51.26708984375-59.125l-46.223632812510914-29.704833984371362c-11.373291015617724,17.673583984371362-25.201171874989086,33.598876953121362-41.016357421867724,47.31396484375Z" fill="#8f807d" stroke="#181818" stroke-linecap="round" stroke-linejoin="round" stroke-width="2"/>
          </a>
          <a xlink:href="https://www.notion.so/dmmnotes/punitively-obsessed-with-revenge-33d2e77f37774316b42bccf4a60f9688?pvs=4">
            <path id="C5-2" data-name="C5" d="M485.082519531251819,418.945556640628638l46.223632812510914,29.704833984371362c14.048095703128638-21.809326171880457,25.08837890625-45.71875,32.551513671871362-71.175048828130457l-52.7548828125-15.490234375c-5.9619140625,20.377929687509095-14.789306640621362,39.509765625-26.020263671882276,56.960449218759095Z" fill="#8f807d" stroke="#181818" stroke-linecap="round" stroke-linejoin="round" stroke-width="2"/>
          </a>
          <a xlink:href="https://www.notion.so/dmmnotes/feigned-helpless-e79a94b0498c4e109a681b7f3dcdb088?pvs=4">
            <path id="C4-2" data-name="C4" d="M520.000000000001819,300c0,21.5380859375-3.142089843739086,42.321533203119543-8.897216796867724,61.985107421869543l52.7548828125,15.490234375c7.2080078125-24.583496093740905,11.142333984367724-50.5634765625,11.142333984367724-77.475341796869543h-55Z" fill="#8f807d" stroke="#181818" stroke-linecap="round" stroke-linejoin="round" stroke-width="2"/>
          </a>
          <a xlink:href="https://www.notion.so/dmmnotes/aggressive-2d8ccce383534b9dbfc7b4b10b8a5d5c?pvs=4">
            <path id="C3-2" data-name="C3" d="M520.000000000001819,300h55c0-26.911865234391371-3.934326171867724-52.894531250010914-11.142333984367724-77.475341796891371l-52.7548828125,15.490234375c5.755126953128638,19.663574218760914,8.897216796867724,40.449707031260914,8.897216796867724,61.985107421891371Z" fill="#8f807d" stroke="#181818" stroke-linecap="round" stroke-linejoin="round" stroke-width="2"/>
          </a>
          <a xlink:href="https://www.notion.so/dmmnotes/disarming-086276e599884c86b9359acf831a8b20?pvs=4">
            <path id="C2-2" data-name="C2" d="M511.102783203134095,238.014892578108629l52.7548828125-15.490234375c-7.463134765621362-25.456298828119543-18.503417968742724-49.365722656239086-32.551513671871362-71.177734374989086l-46.223632812510914,29.70751953125c11.230957031260914,17.45068359375,20.055664062510914,36.585205078119543,26.020263671882276,56.960449218739086Z" fill="#8f807d" stroke="#181818" stroke-linecap="round" stroke-linejoin="round" stroke-width="2"/>
          </a>
          <a xlink:href="https://www.notion.so/dmmnotes/threatening-348fe6a52f7a4fe69f768e98c6586932?pvs=4">
            <path id="C1-2" data-name="C1" d="M485.082519531251819,181.054443359369543l46.223632812510914-29.70751953125c-14.219970703128638-22.08056640625-31.504150390628638-41.980468750010914-51.26708984375-59.122314453119543l-35.972900390628638,41.518554687489086c15.815185546878638,13.71240234375,29.64306640625,29.637695312510914,41.016357421867724,47.311279296880457Z" fill="#8f807d" stroke="#181818" stroke-linecap="round" stroke-linejoin="round" stroke-width="2"/>
          </a>
          <a xlink:href="https://www.notion.so/dmmnotes/complaining-acceptance-8b40401a720c493ba73f7cde1567cf3d?pvs=4">
            <path id="B5-2" data-name="B5" d="M444.066162109384095,133.743164062489086l35.972900390628638-41.518554687489086c-19.687744140621362-17.07470703125-41.81396484375-31.388671875-65.803955078139552-42.36181640625l-22.832519531239086,49.99951171875c19.204345703117724,8.773681640619543,36.910156249989086,20.22216796875,52.66357421875,33.880859374989086Z" fill="#8f807d" stroke="#181818" stroke-linecap="round" stroke-linejoin="round" stroke-width="2"/>
          </a>
          <a xlink:href="https://www.notion.so/dmmnotes/sentimental-bc554363322342b1b7ca4ccc02125049?pvs=4">
            <path id="B4-2" data-name="B4" d="M391.402587890634095,99.8623046875l22.832519531239086-49.99951171875c-23.45556640623181-10.7314453125-48.662109375-18.275146484391371-75.101318359371362-22.042968749990905l-7.825683593739086,54.433349609360448c21.159423828121362,3.0078125,41.327880859371362,9.034179687489086,60.094482421871362,17.609130859380457Z" fill="#8f807d" stroke="#181818" stroke-linecap="round" stroke-linejoin="round" stroke-width="2"/>
          </a>
          <a xlink:href="https://www.notion.so/dmmnotes/comfortably-balanced-e76dc615a8b947aa915377cd02fcf716?pvs=4">
            <path id="B3-2" data-name="B3" d="M300.000000000001819,80c10.634765625,0,21.078857421871362.797607421869543,31.308105468760914,2.253173828119543l7.825683593739086-54.433349609360448c-12.788574218739086-1.823486328139552-25.843017578128638-2.819824218759095-39.1337890625-2.819824218759095-13.290771484367724,0-26.34521484375.996337890619543-39.133789062489086,2.819824218759095l7.825683593739086,54.433349609360448c10.23193359375-1.45556640625,20.67333984375-2.253173828119543,31.30810546875-2.253173828119543Z" fill="#8f807d" stroke="#181818" stroke-linecap="round" stroke-linejoin="round" stroke-width="2"/>
          </a>
          <a xlink:href="https://www.notion.so/dmmnotes/accepting-317d81273fff4cd9817cdf4a88efd378?pvs=4">
            <path id="B2-2" data-name="B2" d="M268.691894531251819,82.253173828119543l-7.825683593739086-54.433349609360448c-26.43920898439319,3.767822265599534-51.643066406262733,11.311523437490905-75.098632812512733,22.042968749990905l22.83251953125,49.99951171875c18.7666015625-8.574951171891371,38.935058593751819-14.601318359380457,60.091796875001819-17.609130859380457Z" fill="#8f807d" stroke="#181818" stroke-linecap="round" stroke-linejoin="round" stroke-width="2"/>
          </a>
          <a xlink:href="https://www.notion.so/dmmnotes/distanced-from-past-2eabab7e9c77429f8e577f4e3e203653?pvs=4">
            <path id="B1-2" data-name="B1" d="M208.60009765625,99.8623046875l-22.83251953125-49.99951171875c-23.99267578125,10.97314453125-46.1162109375,25.287109375-65.803955078119543,42.36181640625l35.972900390619543,41.515869140619543c15.75341796875-13.658691406260914,33.4619140625-25.1044921875,52.66357421875-33.878173828119543Z" fill="#8f807d" stroke="#181818" stroke-linecap="round" stroke-linejoin="round" stroke-width="2"/>
          </a>
          <a xlink:href="https://www.notion.so/dmmnotes/psychopathy-0fe4a3222d9f4fd097ab4546c9776768?pvs=4">
            <path id="AC-2" data-name="AC" d="M300.000000000001819,520c-10.634765625,0-21.076171875-.794921875-31.30810546875-2.25048828125l-7.825683593739086,54.4306640625c12.788574218739086,1.823486328128638,25.843017578121362,2.81982421875,39.133789062489086,2.81982421875,13.290771484371362,0,26.345214843760914-.996337890621362,39.1337890625-2.81982421875l-7.825683593739086-54.4306640625c-10.229248046889552,1.45556640625-20.673339843760914,2.25048828125-31.308105468760914,2.25048828125Z" fill="#8f807d" stroke="#181818" stroke-linecap="round" stroke-linejoin="round" stroke-width="2"/>
          </a>
          <a xlink:href="https://www.notion.so/dmmnotes/idealising-a52277f51ed14a42aae78081bb34b8be?pvs=4">
            <g id="A1-2" data-name="A1">
              <path d="M114.918945312510004,182.05419921875c-.185546875,0-.3720703125-.05126953125-.5400390625-.15869140625l-46.2265625-29.70751953125c-.22265625-.1435546875-.3798828125-.3701171875-.4365234375-.62939453125-.0556640625-.25927734375-.0068359375-.5302734375.13671875-.75341796875,14.2412109375-22.11181640625,31.5537109375-42.07568359375,51.4560546875-59.3359375.1826171875-.158203125.4150390625-.24462890625.6552734375-.24462890625.0234375,0,.046875.0009765625.0712890625.00244140625.2646484375.01904296875.5107421875.14208984375.6845703125.3427734375l35.97265625,41.515625c.361328125.4169921875.31640625,1.04833984375-.1005859375,1.41015625-15.7978515625,13.7001953125-29.53515625,29.546875-40.8310546875,47.099609375-.19140625.296875-.5126953125.458984375-.841796875.458984375Z" fill="#5e779a" stroke-width="0"/>
              <path d="M119.963378906260004,92.224609375l35.97314453125,41.515869140628638c-15.8154296875,13.715087890621362-29.64306640625,29.640380859371362-41.0166015625,47.31396484375l-46.22607421875-29.70751953125c14.2197265625-22.08056640625,31.50390625-41.98046875,51.26953125-59.122314453128638M119.963378906260004,90.224609375c-.47998046875,0-.9453125.172637939449487-1.310546875.489074707029431-19.97509765625,17.32373046875-37.349609375,37.359405517579944-51.640625,59.550384521489832-.287109375.446228027340112-.38525390625.988403320308862-.27294921875,1.507080078119543.11279296875.518676757810681.4267578125.971343994140625.87353515625,1.25830078125l46.22607421875,29.70751953125c.33447265625.215026855470569.708984375.317718505861194,1.0791015625.317718505861194.65771484375,0,1.3017578125-.323944091800513,1.68359375-.917938232421875,11.24560546875-17.474334716798694,24.92041015625-33.248809814449487,40.6455078125-46.885284423828125.833984375-.723480224611194.92431640625-1.98614501953125.201171875-2.820709228510168l-35.97314453125-41.515869140630457c-.34765625-.400970458980737-.84033203125-.647491455079944-1.36962890625-.685211181640625-.04736328125-.003387451170056-.0947265625-.00506591796875-.14208984375-.00506591796875h0Z" fill="#181818" stroke-width="0"/>
            </g>
          </a>
          <a xlink:href="https://www.notion.so/dmmnotes/distancing-9ac690cdca654729a17a5a255944e2d1?pvs=4">
            <g id="A2-2" data-name="A2">
              <path d="M88.897460937510004,239.0146484375c-.0947265625,0-.189453125-.01318359375-.28125-.04052734375l-52.7548828125-15.490234375c-.5302734375-.15576171875-.833984375-.7109375-.6787109375-1.24072265625,7.3935546875-25.21826171875,18.384765625-49.25341796875,32.669921875-71.43798828125.19140625-.296875.5126953125-.45849609375.841796875-.45849609375.185546875,0,.3720703125.05126953125.5400390625.15869140625l46.2265625,29.70751953125c.22265625.1435546875.3798828125.36962890625.4365234375.62890625.0556640625.25927734375.0068359375.5302734375-.13671875.75341796875-11.328125,17.6025390625-20.04296875,36.67919921875-25.9033203125,56.7001953125-.0751953125.2548828125-.2470703125.46923828125-.48046875.5966796875-.1484375.0810546875-.3134765625.12255859375-.4794921875.12255859375Z" fill="#72729b" stroke-width="0"/>
              <path d="M68.693847656260004,151.346923828128638l46.22607421875,29.70751953125c-11.23095703125,17.45068359375-20.05810546875,36.585205078121362-26.02294921875,56.96044921875l-52.7548828125-15.490234375c7.46337890625-25.456298828128638,18.50634765625-49.36572265625,32.5517578125-71.177734375M68.695800781260004,149.3466796875c-.6572265625,0-1.30126953125.32373046875-1.68359375.917449951168237-14.3369140625,22.264526367191138-25.36865234375,46.387176513670056-32.78955078125,71.697845458991651-.310546875,1.059661865228918.29638671875,2.170562744138806,1.35595703125,2.481658935539599l52.7548828125,15.490234375c.1845703125.054229736329944.37451171875.081024169929151.5634765625.081024169929151.33203125,0,.66259765625-.082794189460401.958984375-.245025634769263.4658203125-.254516601560681.8115234375-.683715820310681.96044921875-1.193054199220569,5.8349609375-19.932098388670056,14.5107421875-38.921264648439319,25.78515625-56.439971923829944.287109375-.446228027340112.38525390625-.98831176756903.27294921875-1.506896972648974-.11279296875-.5185546875-.4267578125-.971099853521082-.87353515625-1.257995605470569l-46.22607421875-29.70751953125c-.33447265625-.215026855470569-.708984375-.317749023439319-1.0791015625-.317749023439319h0Z" fill="#181818" stroke-width="0"/>
            </g>
          </a>
          <a xlink:href="https://www.notion.so/dmmnotes/compulsive-caregiving-9c380c0928294f41ae10764aa0dee886?pvs=4">
            <g id="A3-2" data-name="A3">
              <path d="M25.000000000010004,301c-.552734375,0-1-.44775390625-1-1,0-26.283203125,3.7626953125-52.4443359375,11.1826171875-77.7568359375.0751953125-.2548828125.248046875-.46923828125.48046875-.59619140625.1484375-.0810546875.3134765625-.12255859375.4794921875-.12255859375.0947265625,0,.189453125.01318359375.2822265625.04052734375l52.75390625,15.490234375c.5302734375.1552734375.833984375.71044921875.6787109375,1.240234375-5.876953125,20.078125-8.857421875,40.8388671875-8.857421875,61.70458984375,0,.55224609375-.447265625,1-1,1H25.000000000010004Z" fill="#866c99" stroke-width="0"/>
              <path d="M36.142089843760004,222.524658203128638l52.7548828125,15.490234375c-5.7548828125,19.66357421875-8.89697265625,40.44970703125-8.89697265625,61.985107421871362H25.000000000010004c0-26.911865234371362,3.93701171875-52.89453125,11.14208984375-77.475341796871362M36.142089843760004,220.524658203128638c-.33203125,0-.662109375.082733154289599-.958984375.244873046871362-.46533203125.25439453125-.81103515625.683380126949487-.96044921875,1.19256591796875-7.44677734375,25.405929565429688-11.22265625,51.661682128909888-11.22265625,78.03790283203125,0,1.10456848144895.8955078125,2,2,2h55c1.1044921875,0,2-.89543151855105,2-2,0-20.768386840820312,2.96630859375-41.434188842771619,8.81640625-61.42333984375.31005859375-1.059448242191138-.296875-2.169769287111194-1.35595703125-2.48077392578125l-52.7548828125-15.490203857420056c-.1845703125-.054229736329944-.37451171875-.081024169920056-.5634765625-.081024169920056h0Z" fill="#181818" stroke-width="0"/>
            </g>
          </a>
          <a xlink:href="https://www.notion.so/dmmnotes/compulsive-compliance-6d08b7ea9a424ce1a72b9184b7850414?pvs=4">
            <g id="A4-2" data-name="A4">
              <path d="M36.142578125010004,378.47509765625c-.166015625,0-.3310546875-.04150390625-.4794921875-.12255859375-.232421875-.126953125-.4052734375-.34130859375-.48046875-.59619140625-7.419921875-25.31201171875-11.1826171875-51.47265625-11.1826171875-77.75634765625,0-.55224609375.447265625-1,1-1h55c.552734375,0,1,.44775390625,1,1,0,20.86572265625,2.98046875,41.6259765625,8.857421875,61.7041015625.1552734375.52978515625-.1484375,1.0849609375-.6787109375,1.240234375l-52.75390625,15.490234375c-.0927734375.02734375-.1875.04052734375-.2822265625.04052734375Z" fill="#aa6490" stroke-width="0"/>
              <path d="M80.000000000010004,300c0,21.5380859375,3.14208984375,42.321533203128638,8.89697265625,61.985107421878638l-52.7548828125,15.490234375c-7.205078125-24.580810546878638-11.14208984375-50.5634765625-11.14208984375-77.475341796878638h55M80.000000000010004,298H25.000000000010004c-1.1044921875,0-2,.895431518558325-2,2,0,26.376220703128638,3.77587890625,52.631973266599744,11.22265625,78.037910461429419.1494140625.509178161619275.4951171875.93817138671875.96044921875,1.192558288570581.296875.162124633789062.626953125.244873046878638.958984375.244873046878638.18896484375,0,.37890625-.026786804199219.5634765625-.081016540529163l52.7548828125-15.490226745610926c1.05908203125-.311004638670056,1.666015625-1.421310424799231,1.35595703125-2.48075866698855-5.85009765625-19.9891510009802-8.81640625-40.654953002931506-8.81640625-61.42333984375,0-1.104568481441675-.8955078125-2-2-2h0Z" fill="#181818" stroke-width="0"/>
            </g>
          </a>
          <a xlink:href="https://www.notion.so/dmmnotes/sexual-supplementation-8e85f49046ef412aa229745abf7d38d3?pvs=4">
            <g id="A5-2" data-name="A5">
              <path d="M68.694335937510004,449.650390625c-.3291015625,0-.650390625-.16162109375-.841796875-.45849609375-14.2841796875-22.18212890625-25.2763671875-46.21630859375-32.669921875-71.435546875-.1552734375-.52978515625.1484375-1.0849609375.6787109375-1.24072265625l52.7548828125-15.490234375c.091796875-.02734375.1865234375-.04052734375.28125-.04052734375.166015625,0,.3310546875.04150390625.4794921875.12255859375.2333984375.12744140625.4052734375.341796875.48046875.5966796875,5.8603515625,20.0244140625,14.57421875,39.10107421875,25.9013671875,56.70068359375.1435546875.22314453125.1923828125.494140625.13671875.75341796875-.056640625.25927734375-.2138671875.4853515625-.4365234375.62890625l-46.224609375,29.70458984375c-.16796875.107421875-.3544921875.15869140625-.5400390625.15869140625Z" fill="#aa6490" stroke-width="0"/>
              <path d="M88.896972656260004,361.985107421878638c5.96484375,20.377937316890893,14.78955078125,39.509765625,26.0205078125,56.960441589350012l-46.2236328125,29.704845428470435c-14.04541015625-21.809322357179553-25.08837890625-45.718753814699085-32.5517578125-71.175045013429553l52.7548828125-15.490242004390893M88.896972656260004,359.985107421878638c-.18896484375,0-.37890625.026794433590112-.5634765625.081008911130994l-52.7548828125,15.490249633789062c-1.0595703125.311103820800781-1.66650390625,1.422012329099744-1.35595703125,2.481658935541418,7.42138671875,25.312461853029163,18.45361328125,49.434234619147901,32.78955078125,71.695262908939185.38232421875.59359359741029,1.0263671875.917346954349341,1.68359375.917346954349341.3701171875,0,.74462890625-.102676391608838,1.0791015625-.317714691169385l46.2236328125-29.704845428459521c.44677734375-.286895751960401.7607421875-.739433288581495.87353515625-1.25801849365962.1123046875-.518569946281787.01416015625-1.06064605712163-.27294921875-1.506889343261719-11.27294921875-17.516342163078662-19.94775390625-36.505462646478918-25.78271484375-56.439903259270068-.14892578125-.50935363769895-.49462890625-.938583374028894-.96044921875-1.193115234378638-.29638671875-.162246704101562-.626953125-.24504089355105-.958984375-.24504089355105h0Z" fill="#181818" stroke-width="0"/>
            </g>
          </a>
          <a xlink:href="https://www.notion.so/dmmnotes/compulsive-isolated-self-reliance-b321873a73fa41aaaadd7192fde856a2?pvs=4">
            <g id="A6-2" data-name="A6">
              <path d="M119.963867187510004,508.775390625c-.240234375,0-.47265625-.08642578125-.6552734375-.24462890625-19.904296875-17.26220703125-37.216796875-37.2265625-51.4560546875-59.3388671875-.1435546875-.22314453125-.1923828125-.494140625-.13671875-.75341796875.056640625-.259765625.2138671875-.48583984375.4365234375-.62939453125l46.224609375-29.70458984375c.16796875-.107421875.35546875-.15869140625.5400390625-.15869140625.3291015625,0,.650390625.16162109375.841796875.458984375,11.298828125,17.556640625,25.037109375,33.4033203125,40.8330078125,47.099609375.4169921875.361328125.4619140625.9931640625.1005859375,1.41015625l-35.97265625,41.515625c-.173828125.20068359375-.419921875.32373046875-.6845703125.3427734375-.0234375.00146484375-.0478515625.00244140625-.0712890625.00244140625Z" fill="#b9638b" stroke-width="0"/>
              <path d="M114.917480468760004,418.945556640628638c11.3759765625,17.676265716550915,25.20361328125,33.60156631468999,41.01904296875,47.31396865843999l-35.97314453125,41.515865325931372c-19.765625-17.14185047150022-37.0498046875-37.041749954219995-51.26953125-59.125l46.2236328125-29.704833984371362M114.915527343760004,416.9453125c-.3701171875,0-.74462890625.10266876220885-1.0791015625.317710876468482l-46.2236328125,29.704833984371362c-.44677734375.286933898929419-.7607421875.739582061769397-.87353515625,1.258251190189185-.1123046875.518665313720703-.01416015625,1.060813903810413.27294921875,1.507049560539599,14.28955078125,22.191682815560853,31.6640625,42.228249073030383,51.640625,59.553165435791016.365234375.316400527959559.83056640625.489068031318311,1.310546875.489068031318311.04736328125,0,.0947265625-.001677513129835.14208984375-.005067825319202.529296875-.037733077999292,1.02197265625-.2842330932599,1.36962890625-.685216903690161l35.97314453125-41.515866279600232c.72314453125-.834617614749732.6328125-2.097400665279565-.20166015625-2.820835113529029-15.72265625-13.632133483879443-29.3984375-29.406597137451172-40.6474609375-46.885215759270068-.3818359375-.593902587890625-1.02587890625-.917877197269263-1.68359375-.917877197269263h0Z" fill="#181818" stroke-width="0"/>
            </g>
          </a>
          <a xlink:href="https://www.notion.so/dmmnotes/delusional-idealization-743e2420b9994a48a7cab68190432e8a?pvs=4">
            <g id="A7-2" data-name="A7">
              <path d="M185.767578125010004,551.13720703125c-.142578125,0-.2841796875-.0302734375-.416015625-.0908203125-23.9013671875-10.93310546875-46.12109375-25.23779296875-66.04296875-42.515625-.4169921875-.36181640625-.4619140625-.9931640625-.1005859375-1.41015625l35.97265625-41.515625c.173828125-.20068359375.419921875-.32373046875.6845703125-.3427734375.0234375-.00146484375.0478515625-.00244140625.0712890625-.00244140625.240234375,0,.47265625.08642578125.6552734375.24462890625,15.8115234375,13.708984375,33.44921875,25.05615234375,52.423828125,33.72607421875.501953125.2294921875.72265625.82275390625.4931640625,1.3251953125l-22.83203125,49.9970703125c-.109375.2412109375-.3115234375.4287109375-.5595703125.521484375-.11328125.0419921875-.2314453125.06298828125-.349609375.06298828125Z" fill="#c46681" stroke-width="0"/>
              <path d="M155.936523437510004,466.25951385497865c15.75341796875,13.658700942991345,33.4619140625,25.107183933259876,52.66357421875,33.880867123611097l-22.83251953125,49.996833682058423c-23.99267578125-10.975833892829542-46.1162109375-25.287117004398169-65.80419921875-42.361817359927954l35.97314453125-41.515883445741565M155.936523437510004,464.259502410888672c-.04736328125,0-.0947265625.001682281490503-.142578125.005077362060547-.52880859375.037784576419654-1.021484375.284267425540747-1.369140625.685218811038794l-35.97314453125,41.515882492061792c-.72314453125.834532737728296-.6328125,2.097166061399548.201171875,2.820650100709827,19.99365234375,17.339550018308728,42.29443359375,31.695682525629309,66.28271484375,42.669616699220569.263671875.120601654049096.54736328125.181270599357958.83203125.181270599357958.236328125,0,.47265625-.041820526119409.6982421875-.125888824459253.49755859375-.185283660890491.900390625-.560581207279029,1.12109375-1.04330062866029l22.83251953125-49.996831417089197c.45849609375-1.004599988460541.0166015625-2.190933346741076-.98828125-2.649916708469391-18.88623046875-8.62966674566087-36.44384765625-19.925216138361066-52.1845703125-33.572867810720709-.36474609375-.316303253179285-.83056640625-.488910675050647-1.31005859375-.488910675050647h0Z" fill="#181818" stroke-width="0"/>
            </g>
          </a>
          <a xlink:href="https://www.notion.so/dmmnotes/externally-assembled-self-994ecb0895b844409b931d74a045c162?pvs=4">
            <g id="A8-2" data-name="A8">
              <path d="M260.867187500012733,573.18017578125c-.046875,0-.09375-.00341796875-.1416015625-.009765625-26.040039062502728-3.71142578125-51.399414062502728-11.15478515625-75.374023437502728-22.1240234375-.501953125-.2294921875-.72265625-.822265625-.4931640625-1.32470703125l22.83203125-49.9970703125c.109375-.2412109375.3115234375-.4287109375.5595703125-.521484375.11328125-.0419921875.2314453125-.06298828125.349609375-.06298828125.1416015625,0,.2841796875.0302734375.416015625.09033203125,19.0244140625,8.693359375,39.149414062502728,14.5908203125,59.816406250002728,17.52880859375.2626953125.03759765625.5.177734375.6591796875.39013671875s.2275390625.4794921875.1904296875.7421875l-7.8251953125,54.4306640625c-.072265625.49853515625-.5.85791015625-.9892578125.85791015625Z" fill="#cc6a7a" stroke-width="0"/>
              <path d="M208.600097656260004,500.140385985378089c18.7666015625,8.574938416481018,38.935058593752728,14.60130751133147,60.091796875002728,17.60912382602146l-7.82568359375,54.430658340459559c-26.439453125002728-3.767814636230469-51.643066406252728-11.31151962281001-75.098632812502728-22.04296493531001l22.83251953125-49.996817231171008M208.600097656260004,498.140388786789117c-.236328125,0-.47314453125.041865527629852-.69873046875.12602800131026-.4970703125.185338437559039-.900390625.560584604740143-1.12060546875,1.043153852229807l-22.83251953125,49.996814399950381c-.45849609375,1.004245758060279-.0166015625,2.190185546878638.9873046875,2.649509429938917,24.06298828125,11.009460449211474,49.51513671875,18.480064392089844,75.648437500002728,22.204277038570581.095703125.013626098629175.19091796875.020256042480469.28466796875.020256042480469.978515625,0,1.833984375-.718879699710669,1.97705078125-1.715644836429419l7.82568359375-54.430658340450464c.07568359375-.525569915771484-.06103515625-1.059616088870825-.37939453125-1.484430313110352-.318359375-.424831390380859-.79296875-.705539703369141-1.318359375-.780277252200904-20.57177734375-2.924615859979895-40.604492187502728-8.79501533507937-59.542480468752728-17.448123097419739-.26318359375-.120357990259436-.546875-.180904924869537-.8310546875-.180904924869537h0Z" fill="#181818" stroke-width="0"/>
            </g>
          </a>
        </g>
      </g>
      <a xlink:href="https://www.notion.so/dmmnotes/Type-A-d0420320e0bf4731b311ee86887d6ca3?pvs=4">
        <g id="A">
          <a xlink:href="https://www.notion.so/dmmnotes/Type-A-d0420320e0bf4731b311ee86887d6ca3?pvs=4">
            <g id="A-2" data-name="A">
              <path d="M299.988281250012733,414.7138671875c-29.126953125,0-54.748046875-18.62451171875-63.755859375002728-46.3447265625-5.5341796875-17.033203125-4.1044921875-35.20166015625,4.0263671875-51.1591796875,8.130859375002728-15.95751953125,21.989257812502728-27.79345703125,39.021484375002728-33.32763671875,6.734375-2.18798828125,13.708984375-3.29736328125,20.7314453125-3.29736328125,29.1259765625,0,54.748046875,18.625,63.755859375,46.34521484375,5.5341796875,17.033203125,4.1044921875,35.20166015625-4.0263671875,51.15869140625-8.130859375,15.95751953125-21.9892578125,27.79345703125-39.021484375,33.32763671875-6.734375,2.18798828125-13.708984375,3.29736328125-20.7314453125,3.29736328125Z" fill="url(#A4-3)" stroke-width="0"/>
              <path d="M300.011718750012733,289.08503723144895c24.68115234375-.000808715820312,47.6318359375,15.729187011720569,55.67138671875,40.471939086910425,9.9921875,30.75300598144895-6.83740234375,63.783470153808594-37.59033203125,73.775711059570312-6.01025390625,1.952827453609643-12.109375,2.881378173829944-18.1044921875,2.881378173829944-24.68115234375,0-47.6318359375-15.729217529300513-55.67138671875-40.471969604490369-9.992187500002728-30.752944946290881,6.83740234375-63.783416748050513,37.59033203125-73.775650024419519,6.01025390625-1.95283508301145,12.109375-2.881210327150256,18.1044921875-2.881408691400793M300.013671875012733,272.08503723144895h-.00244140625c-7.916015625.000228881830481-15.7744140625,1.249649047849744-23.357421875,3.713470458980737-39.618652343752728,12.872879028320312-61.377929687502728,55.578002929689319-48.504882812502728,95.196823120119006,5.02880859375,15.477882385250268,14.668945312502728,28.649650573730469,27.876953125002728,38.09123229980105,12.9296875,9.242294311528894,28.13134765625,14.127532958989832,43.96240234375,14.127532958989832,7.91552734375,0,15.77392578125-1.249412536621094,23.35791015625-3.713470458989832,39.61865234375-12.872825622560413,61.3779296875-55.578002929680224,48.5048828125-95.196884155271619-5.02880859375-15.477111816409888-14.66796875-28.648590087888806-27.8759765625-38.09040832519895-12.92919921875-9.242263793939856-28.13232421875-14.127700805660425-43.96142578125-14.128295898430224h0Z" fill="#181818" stroke-width="0"/>
            </g>
          </a>
          <a xlink:href="https://www.notion.so/dmmnotes/Type-A-d0420320e0bf4731b311ee86887d6ca3?pvs=4">
            <g>
              <path d="M317.349609375,213.095703124989086c3.9765625,2.302734375,7.37890625,5.12890625,10.205078125,8.4775390625,2.82568359375,3.3515625,5.20556640625,7.013671875,7.1435546875,10.990234375,1.935546875,3.978515625,3.478515625,8.1904296875,4.63134765625,12.638671875,1.150390625,4.44921875,2.041015625,8.923828125,2.6689453125,13.4228515625,1.46435546875,8.8974609375,2.30126953125,17.8984375,2.51220703125,27.00390625.20849609375,9.1064453125.05126953125,18.2666015625-.47119140625,27.4755859375-.2109375,2.6171875-.41943359375,4.763671875-.6279296875,6.4365234375-.2109375,1.67578125-.603515625,3.037109375-1.177734375,4.08203125-.576171875,1.0478515625-1.38818359375,1.884765625-2.43310546875,2.5126953125-1.0478515625.6279296875-2.51220703125,1.2021484375-4.39599609375,1.7265625-1.78125.208984375-3.63818359375.365234375-5.57373046875.470703125-1.93798828125.103515625-3.74365234375-.4189453125-5.41650390625-1.5693359375-1.56982421875-1.044921875-2.8798828125-2.826171875-3.9248046875-5.337890625-1.0478515625-2.5126953125-1.6240234375-6.123046875-1.72705078125-10.8330078125v-1.5703125c-2.61767578125-.314453125-5.73046875-.57421875-9.341796875-.78515625-3.61083984375-.2080078125-7.30029296875-.3388671875-11.068359375-.392578125-3.76806640625-.0517578125-7.40576171875-.078125-10.91162109375-.078125h-8.8701171875c-.10546875.94140625-.23583984375,2.51171875-.392578125,4.7099609375-.1572265625,2.1982421875-.498046875,4.3955078125-1.0205078125,6.59375-.52490234375,2.1982421875-1.2314453125,4.1875-2.11962890625,5.9658203125-.890625,1.78125-2.11962890625,2.720703125-3.689453125,2.826171875-1.466796875.103515625-3.14013671875.208984375-5.02392578125.314453125-1.88427734375.1025390625-3.716796875-.10546875-5.4951171875-.6279296875-1.78076171875-.41796875-3.2724609375-1.2568359375-4.474609375-2.5126953125-1.20458984375-1.255859375-1.859375-3.2431640625-1.96240234375-5.9658203125,0-3.2431640625.0517578125-6.958984375.1572265625-11.146484375.10302734375-4.185546875.31396484375-8.73828125.6279296875-13.6591796875.20849609375-4.08203125.54931640625-8.556640625,1.0205078125-13.423828125.470703125-4.8671875,1.150390625-9.8642578125,2.041015625-14.9931640625.8876953125-5.126953125,2.041015625-10.2568359375,3.45361328125-15.38671875,1.4130859375-5.126953125,3.19189453125-9.9931640625,5.33837890625-14.6005859375,2.14404296875-4.6044921875,4.68310546875-8.84375,7.6142578125-12.716796875,2.92919921875-3.87109375,6.43701171875-7.1162109375,10.51904296875-9.734375,4.81298828125-3.0341796875,10.099609375-4.552734375,15.85693359375-4.552734375,5.75537109375,0,11.19873046875,1.4130859375,16.328125,4.2392578125ZM279.19873046875,284.530273437489086c6.59375-.5224609375,13.16064453125-.9150390625,19.703125-1.177734375,6.5400390625-.259765625,13.10986328125-.287109375,19.70361328125-.078125.31396484375-7.4306640625,0-14.076171875-.94189453125-19.939453125-.94189453125-5.8603515625-2.251953125-10.8056640625-3.9248046875-14.8359375-1.67578125-4.0283203125-3.6650390625-7.1162109375-5.96630859375-9.2626953125-2.30322265625-2.14453125-4.658203125-3.21875-7.06494140625-3.21875-2.0947265625,0-4.26611328125,1.07421875-6.515625,3.21875-2.251953125,2.146484375-4.34423828125,5.2861328125-6.27978515625,9.419921875-1.93798828125,4.1357421875-3.689453125,9.23828125-5.25927734375,15.306640625-1.5703125,6.072265625-2.72314453125,12.9287109375-3.4541015625,20.5673828125Z" fill="none" stroke="#181818" stroke-linecap="round" stroke-linejoin="round" stroke-width="33"/>
              <path d="M317.349609375,213.095703124989086c3.9765625,2.302734375,7.37890625,5.12890625,10.205078125,8.4775390625,2.82568359375,3.3515625,5.20556640625,7.013671875,7.1435546875,10.990234375,1.935546875,3.978515625,3.478515625,8.1904296875,4.63134765625,12.638671875,1.150390625,4.44921875,2.041015625,8.923828125,2.6689453125,13.4228515625,1.46435546875,8.8974609375,2.30126953125,17.8984375,2.51220703125,27.00390625.20849609375,9.1064453125.05126953125,18.2666015625-.47119140625,27.4755859375-.2109375,2.6171875-.41943359375,4.763671875-.6279296875,6.4365234375-.2109375,1.67578125-.603515625,3.037109375-1.177734375,4.08203125-.576171875,1.0478515625-1.38818359375,1.884765625-2.43310546875,2.5126953125-1.0478515625.6279296875-2.51220703125,1.2021484375-4.39599609375,1.7265625-1.78125.208984375-3.63818359375.365234375-5.57373046875.470703125-1.93798828125.103515625-3.74365234375-.4189453125-5.41650390625-1.5693359375-1.56982421875-1.044921875-2.8798828125-2.826171875-3.9248046875-5.337890625-1.0478515625-2.5126953125-1.6240234375-6.123046875-1.72705078125-10.8330078125v-1.5703125c-2.61767578125-.314453125-5.73046875-.57421875-9.341796875-.78515625-3.61083984375-.2080078125-7.30029296875-.3388671875-11.068359375-.392578125-3.76806640625-.0517578125-7.40576171875-.078125-10.91162109375-.078125h-8.8701171875c-.10546875.94140625-.23583984375,2.51171875-.392578125,4.7099609375-.1572265625,2.1982421875-.498046875,4.3955078125-1.0205078125,6.59375-.52490234375,2.1982421875-1.2314453125,4.1875-2.11962890625,5.9658203125-.890625,1.78125-2.11962890625,2.720703125-3.689453125,2.826171875-1.466796875.103515625-3.14013671875.208984375-5.02392578125.314453125-1.88427734375.1025390625-3.716796875-.10546875-5.4951171875-.6279296875-1.78076171875-.41796875-3.2724609375-1.2568359375-4.474609375-2.5126953125-1.20458984375-1.255859375-1.859375-3.2431640625-1.96240234375-5.9658203125,0-3.2431640625.0517578125-6.958984375.1572265625-11.146484375.10302734375-4.185546875.31396484375-8.73828125.6279296875-13.6591796875.20849609375-4.08203125.54931640625-8.556640625,1.0205078125-13.423828125.470703125-4.8671875,1.150390625-9.8642578125,2.041015625-14.9931640625.8876953125-5.126953125,2.041015625-10.2568359375,3.45361328125-15.38671875,1.4130859375-5.126953125,3.19189453125-9.9931640625,5.33837890625-14.6005859375,2.14404296875-4.6044921875,4.68310546875-8.84375,7.6142578125-12.716796875,2.92919921875-3.87109375,6.43701171875-7.1162109375,10.51904296875-9.734375,4.81298828125-3.0341796875,10.099609375-4.552734375,15.85693359375-4.552734375,5.75537109375,0,11.19873046875,1.4130859375,16.328125,4.2392578125ZM279.19873046875,284.530273437489086c6.59375-.5224609375,13.16064453125-.9150390625,19.703125-1.177734375,6.5400390625-.259765625,13.10986328125-.287109375,19.70361328125-.078125.31396484375-7.4306640625,0-14.076171875-.94189453125-19.939453125-.94189453125-5.8603515625-2.251953125-10.8056640625-3.9248046875-14.8359375-1.67578125-4.0283203125-3.6650390625-7.1162109375-5.96630859375-9.2626953125-2.30322265625-2.14453125-4.658203125-3.21875-7.06494140625-3.21875-2.0947265625,0-4.26611328125,1.07421875-6.515625,3.21875-2.251953125,2.146484375-4.34423828125,5.2861328125-6.27978515625,9.419921875-1.93798828125,4.1357421875-3.689453125,9.23828125-5.25927734375,15.306640625-1.5703125,6.072265625-2.72314453125,12.9287109375-3.4541015625,20.5673828125Z" fill="#fff" stroke-width="0"/>
            </g>
          </a>
        </g>
      </a>
      <g>
        <path d="M116.73681640625,127.738281249989086c-.486328125,6.16015625-.69921875,12.349609375-.638671875,18.568359375-.0205078125.2236328125-.0810546875.42578125-.181640625.6083984375-.1015625.1630859375-.25390625.3193359375-.4560546875.4716796875-.203125.1513671875-.4765625.2470703125-.8203125.2880859375-.365234375.0400390625-.7353515625.0654296875-1.109375.076171875-.375.009765625-.724609375-.0263671875-1.048828125-.1064453125-.32421875-.08203125-.6025390625-.22265625-.8359375-.42578125-.232421875-.2021484375-.3798828125-.5166015625-.4404296875-.94140625-.041015625-.22265625-.06640625-.658203125-.076171875-1.306640625s.0048828125-1.4296875.0458984375-2.3408203125c.0400390625-.931640625.0908203125-1.9501953125.15234375-3.0537109375.060546875-1.1044921875.12109375-2.2138671875.181640625-3.328125.0205078125-.041015625.0302734375-.1015625.0302734375-.1826171875-.12109375-.0205078125-.2685546875-.060546875-.4404296875-.1220703125-.171875-.060546875-.400390625-.181640625-.68359375-.3642578125-.3037109375-.2021484375-.61328125-.41015625-.9267578125-.6220703125-.314453125-.212890625-.59765625-.431640625-.8515625-.654296875-.2529296875-.22265625-.4501953125-.435546875-.591796875-.638671875-.142578125-.201171875-.1826171875-.39453125-.1220703125-.576171875.060546875-.18359375.333984375-.587890625.8203125-1.216796875.22265625-.283203125.4658203125-.607421875.7294921875-.97265625.263671875-.36328125.537109375-.73828125.8203125-1.123046875.2841796875-.365234375.5419921875-.7197265625.775390625-1.064453125.232421875-.34375.4501953125-.658203125.6533203125-.94140625.22265625-.32421875.435546875-.638671875.638671875-.943359375.080078125-.1611328125.349609375-.2578125.8046875-.2880859375.4560546875-.0302734375.9423828125,0,1.458984375.0908203125.5166015625.091796875.9873046875.2333984375,1.4130859375.42578125.42578125.193359375.658203125.4208984375.69921875.68359375Z" fill="none" stroke="#181818" stroke-width="5.631003379821777"/>
        <path d="M116.73681640625,127.738281249989086c-.486328125,6.16015625-.69921875,12.349609375-.638671875,18.568359375-.0205078125.2236328125-.0810546875.42578125-.181640625.6083984375-.1015625.1630859375-.25390625.3193359375-.4560546875.4716796875-.203125.1513671875-.4765625.2470703125-.8203125.2880859375-.365234375.0400390625-.7353515625.0654296875-1.109375.076171875-.375.009765625-.724609375-.0263671875-1.048828125-.1064453125-.32421875-.08203125-.6025390625-.22265625-.8359375-.42578125-.232421875-.2021484375-.3798828125-.5166015625-.4404296875-.94140625-.041015625-.22265625-.06640625-.658203125-.076171875-1.306640625s.0048828125-1.4296875.0458984375-2.3408203125c.0400390625-.931640625.0908203125-1.9501953125.15234375-3.0537109375.060546875-1.1044921875.12109375-2.2138671875.181640625-3.328125.0205078125-.041015625.0302734375-.1015625.0302734375-.1826171875-.12109375-.0205078125-.2685546875-.060546875-.4404296875-.1220703125-.171875-.060546875-.400390625-.181640625-.68359375-.3642578125-.3037109375-.2021484375-.61328125-.41015625-.9267578125-.6220703125-.314453125-.212890625-.59765625-.431640625-.8515625-.654296875-.2529296875-.22265625-.4501953125-.435546875-.591796875-.638671875-.142578125-.201171875-.1826171875-.39453125-.1220703125-.576171875.060546875-.18359375.333984375-.587890625.8203125-1.216796875.22265625-.283203125.4658203125-.607421875.7294921875-.97265625.263671875-.36328125.537109375-.73828125.8203125-1.123046875.2841796875-.365234375.5419921875-.7197265625.775390625-1.064453125.232421875-.34375.4501953125-.658203125.6533203125-.94140625.22265625-.32421875.435546875-.638671875.638671875-.943359375.080078125-.1611328125.349609375-.2578125.8046875-.2880859375.4560546875-.0302734375.9423828125,0,1.458984375.0908203125.5166015625.091796875.9873046875.2333984375,1.4130859375.42578125.42578125.193359375.658203125.4208984375.69921875.68359375Z" fill="#231f20" stroke-width="0"/>
        <path d="M116.73681640625,127.738281249989086c-.486328125,6.16015625-.69921875,12.349609375-.638671875,18.568359375-.0205078125.2236328125-.0810546875.42578125-.181640625.6083984375-.1015625.1630859375-.25390625.3193359375-.4560546875.4716796875-.203125.1513671875-.4765625.2470703125-.8203125.2880859375-.365234375.0400390625-.7353515625.0654296875-1.109375.076171875-.375.009765625-.724609375-.0263671875-1.048828125-.1064453125-.32421875-.08203125-.6025390625-.22265625-.8359375-.42578125-.232421875-.2021484375-.3798828125-.5166015625-.4404296875-.94140625-.041015625-.22265625-.06640625-.658203125-.076171875-1.306640625s.0048828125-1.4296875.0458984375-2.3408203125c.0400390625-.931640625.0908203125-1.9501953125.15234375-3.0537109375.060546875-1.1044921875.12109375-2.2138671875.181640625-3.328125.0205078125-.041015625.0302734375-.1015625.0302734375-.1826171875-.12109375-.0205078125-.2685546875-.060546875-.4404296875-.1220703125-.171875-.060546875-.400390625-.181640625-.68359375-.3642578125-.3037109375-.2021484375-.61328125-.41015625-.9267578125-.6220703125-.314453125-.212890625-.59765625-.431640625-.8515625-.654296875-.2529296875-.22265625-.4501953125-.435546875-.591796875-.638671875-.142578125-.201171875-.1826171875-.39453125-.1220703125-.576171875.060546875-.18359375.333984375-.587890625.8203125-1.216796875.22265625-.283203125.4658203125-.607421875.7294921875-.97265625.263671875-.36328125.537109375-.73828125.8203125-1.123046875.2841796875-.365234375.5419921875-.7197265625.775390625-1.064453125.232421875-.34375.4501953125-.658203125.6533203125-.94140625.22265625-.32421875.435546875-.638671875.638671875-.943359375.080078125-.1611328125.349609375-.2578125.8046875-.2880859375.4560546875-.0302734375.9423828125,0,1.458984375.0908203125.5166015625.091796875.9873046875.2333984375,1.4130859375.42578125.42578125.193359375.658203125.4208984375.69921875.68359375Z" fill="#e2dddb" stroke-width="0"/>
      </g>
      <g>
        <path d="M231.97119140625,534.886718749989086c.9111328125.6689453125,1.5595703125,1.43359375,1.9443359375,2.294921875s.5517578125,1.7373046875.501953125,2.62890625c-.05078125.8916015625-.2939453125,1.7626953125-.7294921875,2.61328125-.435546875.8515625-1.0078125,1.6005859375-1.716796875,2.2490234375-.7099609375.6484375-1.53515625,1.16015625-2.4775390625,1.53515625-.94140625.3740234375-1.939453125.53125-2.9931640625.470703125-.689453125-.041015625-1.4033203125-.1826171875-2.142578125-.42578125s-1.423828125-.58203125-2.0517578125-1.017578125-1.1650390625-.9677734375-1.6103515625-1.595703125-.7294921875-1.3369140625-.8505859375-2.126953125c-.1220703125-1.1552734375.060546875-2.193359375.546875-3.115234375s1.154296875-1.7578125,2.005859375-2.5078125c-1.09375-.9521484375-1.7734375-2.015625-2.0361328125-3.1904296875-.263671875-1.1748046875-.193359375-2.2998046875.212890625-3.3740234375.2626953125-.708984375.626953125-1.30078125,1.09375-1.77734375.4658203125-.4755859375.9873046875-.8662109375,1.5654296875-1.169921875.5771484375-.3037109375,1.205078125-.5322265625,1.8837890625-.68359375.6787109375-.15234375,1.3623046875-.248046875,2.0517578125-.2890625.7900390625-.0400390625,1.5751953125.060546875,2.3544921875.3037109375.7802734375.2431640625,1.484375.587890625,2.1123046875,1.033203125.6279296875.4462890625,1.150390625.9775390625,1.5654296875,1.595703125s.673828125,1.28125.775390625,1.990234375c.1005859375.7099609375.00390625,1.4541015625-.2890625,2.234375-.2939453125.7802734375-.8466796875,1.544921875-1.65625,2.2939453125-.0205078125,0-.0302734375.005859375-.0302734375.015625,0,.0107421875-.0107421875.0146484375-.0302734375.0146484375ZM224.70751953125,540.296874999989086c-.162109375.486328125-.1826171875.90625-.060546875,1.2607421875.12109375.3544921875.3232421875.6337890625.607421875.8359375.283203125.203125.6279296875.32421875,1.033203125.3642578125.4052734375.041015625.80078125-.009765625,1.185546875-.1513671875.5263671875-.1826171875.9267578125-.4814453125,1.2001953125-.896484375s.419921875-.85546875.4404296875-1.322265625c.0205078125-.4658203125-.0908203125-.9267578125-.333984375-1.3828125s-.6279296875-.8154296875-1.1552734375-1.0791015625c-.283203125.0205078125-.572265625.0966796875-.865234375.228515625-.2939453125.1318359375-.5732421875.3037109375-.8359375.5166015625-.263671875.212890625-.501953125.4609375-.71484375.744140625-.2119140625.2841796875-.3798828125.578125-.5009765625.8818359375ZM226.98681640625,529.021484374989086c-.486328125,0-.921875.1630859375-1.306640625.486328125-.3857421875.32421875-.6533203125.7099609375-.8056640625,1.1552734375-.1513671875.4453125-.1474609375.90625.015625,1.3828125.1611328125.4755859375.5361328125.8759765625,1.1240234375,1.2001953125.263671875-.1416015625.5419921875-.283203125.8359375-.42578125.29296875-.1416015625.5517578125-.3232421875.7744140625-.546875.5478515625-.505859375.8916015625-.966796875,1.0341796875-1.3828125.140625-.4150390625.146484375-.76953125.0146484375-1.0634765625s-.3544921875-.51171875-.6689453125-.6533203125c-.3134765625-.1416015625-.6533203125-.1923828125-1.017578125-.15234375Z" fill="none" stroke="#181818" stroke-width="5.631003379821777"/>
        <path d="M231.97119140625,534.886718749989086c.9111328125.6689453125,1.5595703125,1.43359375,1.9443359375,2.294921875s.5517578125,1.7373046875.501953125,2.62890625c-.05078125.8916015625-.2939453125,1.7626953125-.7294921875,2.61328125-.435546875.8515625-1.0078125,1.6005859375-1.716796875,2.2490234375-.7099609375.6484375-1.53515625,1.16015625-2.4775390625,1.53515625-.94140625.3740234375-1.939453125.53125-2.9931640625.470703125-.689453125-.041015625-1.4033203125-.1826171875-2.142578125-.42578125s-1.423828125-.58203125-2.0517578125-1.017578125-1.1650390625-.9677734375-1.6103515625-1.595703125-.7294921875-1.3369140625-.8505859375-2.126953125c-.1220703125-1.1552734375.060546875-2.193359375.546875-3.115234375s1.154296875-1.7578125,2.005859375-2.5078125c-1.09375-.9521484375-1.7734375-2.015625-2.0361328125-3.1904296875-.263671875-1.1748046875-.193359375-2.2998046875.212890625-3.3740234375.2626953125-.708984375.626953125-1.30078125,1.09375-1.77734375.4658203125-.4755859375.9873046875-.8662109375,1.5654296875-1.169921875.5771484375-.3037109375,1.205078125-.5322265625,1.8837890625-.68359375.6787109375-.15234375,1.3623046875-.248046875,2.0517578125-.2890625.7900390625-.0400390625,1.5751953125.060546875,2.3544921875.3037109375.7802734375.2431640625,1.484375.587890625,2.1123046875,1.033203125.6279296875.4462890625,1.150390625.9775390625,1.5654296875,1.595703125s.673828125,1.28125.775390625,1.990234375c.1005859375.7099609375.00390625,1.4541015625-.2890625,2.234375-.2939453125.7802734375-.8466796875,1.544921875-1.65625,2.2939453125-.0205078125,0-.0302734375.005859375-.0302734375.015625,0,.0107421875-.0107421875.0146484375-.0302734375.0146484375ZM224.70751953125,540.296874999989086c-.162109375.486328125-.1826171875.90625-.060546875,1.2607421875.12109375.3544921875.3232421875.6337890625.607421875.8359375.283203125.203125.6279296875.32421875,1.033203125.3642578125.4052734375.041015625.80078125-.009765625,1.185546875-.1513671875.5263671875-.1826171875.9267578125-.4814453125,1.2001953125-.896484375s.419921875-.85546875.4404296875-1.322265625c.0205078125-.4658203125-.0908203125-.9267578125-.333984375-1.3828125s-.6279296875-.8154296875-1.1552734375-1.0791015625c-.283203125.0205078125-.572265625.0966796875-.865234375.228515625-.2939453125.1318359375-.5732421875.3037109375-.8359375.5166015625-.263671875.212890625-.501953125.4609375-.71484375.744140625-.2119140625.2841796875-.3798828125.578125-.5009765625.8818359375ZM226.98681640625,529.021484374989086c-.486328125,0-.921875.1630859375-1.306640625.486328125-.3857421875.32421875-.6533203125.7099609375-.8056640625,1.1552734375-.1513671875.4453125-.1474609375.90625.015625,1.3828125.1611328125.4755859375.5361328125.8759765625,1.1240234375,1.2001953125.263671875-.1416015625.5419921875-.283203125.8359375-.42578125.29296875-.1416015625.5517578125-.3232421875.7744140625-.546875.5478515625-.505859375.8916015625-.966796875,1.0341796875-1.3828125.140625-.4150390625.146484375-.76953125.0146484375-1.0634765625s-.3544921875-.51171875-.6689453125-.6533203125c-.3134765625-.1416015625-.6533203125-.1923828125-1.017578125-.15234375Z" fill="#231f20" stroke-width="0"/>
        <path d="M231.97119140625,534.886718749989086c.9111328125.6689453125,1.5595703125,1.43359375,1.9443359375,2.294921875s.5517578125,1.7373046875.501953125,2.62890625c-.05078125.8916015625-.2939453125,1.7626953125-.7294921875,2.61328125-.435546875.8515625-1.0078125,1.6005859375-1.716796875,2.2490234375-.7099609375.6484375-1.53515625,1.16015625-2.4775390625,1.53515625-.94140625.3740234375-1.939453125.53125-2.9931640625.470703125-.689453125-.041015625-1.4033203125-.1826171875-2.142578125-.42578125s-1.423828125-.58203125-2.0517578125-1.017578125-1.1650390625-.9677734375-1.6103515625-1.595703125-.7294921875-1.3369140625-.8505859375-2.126953125c-.1220703125-1.1552734375.060546875-2.193359375.546875-3.115234375s1.154296875-1.7578125,2.005859375-2.5078125c-1.09375-.9521484375-1.7734375-2.015625-2.0361328125-3.1904296875-.263671875-1.1748046875-.193359375-2.2998046875.212890625-3.3740234375.2626953125-.708984375.626953125-1.30078125,1.09375-1.77734375.4658203125-.4755859375.9873046875-.8662109375,1.5654296875-1.169921875.5771484375-.3037109375,1.205078125-.5322265625,1.8837890625-.68359375.6787109375-.15234375,1.3623046875-.248046875,2.0517578125-.2890625.7900390625-.0400390625,1.5751953125.060546875,2.3544921875.3037109375.7802734375.2431640625,1.484375.587890625,2.1123046875,1.033203125.6279296875.4462890625,1.150390625.9775390625,1.5654296875,1.595703125s.673828125,1.28125.775390625,1.990234375c.1005859375.7099609375.00390625,1.4541015625-.2890625,2.234375-.2939453125.7802734375-.8466796875,1.544921875-1.65625,2.2939453125-.0205078125,0-.0302734375.005859375-.0302734375.015625,0,.0107421875-.0107421875.0146484375-.0302734375.0146484375ZM224.70751953125,540.296874999989086c-.162109375.486328125-.1826171875.90625-.060546875,1.2607421875.12109375.3544921875.3232421875.6337890625.607421875.8359375.283203125.203125.6279296875.32421875,1.033203125.3642578125.4052734375.041015625.80078125-.009765625,1.185546875-.1513671875.5263671875-.1826171875.9267578125-.4814453125,1.2001953125-.896484375s.419921875-.85546875.4404296875-1.322265625c.0205078125-.4658203125-.0908203125-.9267578125-.333984375-1.3828125s-.6279296875-.8154296875-1.1552734375-1.0791015625c-.283203125.0205078125-.572265625.0966796875-.865234375.228515625-.2939453125.1318359375-.5732421875.3037109375-.8359375.5166015625-.263671875.212890625-.501953125.4609375-.71484375.744140625-.2119140625.2841796875-.3798828125.578125-.5009765625.8818359375ZM226.98681640625,529.021484374989086c-.486328125,0-.921875.1630859375-1.306640625.486328125-.3857421875.32421875-.6533203125.7099609375-.8056640625,1.1552734375-.1513671875.4453125-.1474609375.90625.015625,1.3828125.1611328125.4755859375.5361328125.8759765625,1.1240234375,1.2001953125.263671875-.1416015625.5419921875-.283203125.8359375-.42578125.29296875-.1416015625.5517578125-.3232421875.7744140625-.546875.5478515625-.505859375.8916015625-.966796875,1.0341796875-1.3828125.140625-.4150390625.146484375-.76953125.0146484375-1.0634765625s-.3544921875-.51171875-.6689453125-.6533203125c-.3134765625-.1416015625-.6533203125-.1923828125-1.017578125-.15234375Z" fill="#e2dddb" stroke-width="0"/>
      </g>
    </g>
  </g>
</svg>