<?xml version="1.0" encoding="UTF-8"?>
<svg id="Layer_1" data-name="Layer 1" xmlns="http://www.w3.org/2000/svg" width="600" height="599.999999999998181" xmlns:xlink="http://www.w3.org/1999/xlink" viewBox="0 0 600 599.999999999998181">
  <defs>
    <linearGradient id="C1-3" data-name="C1" x1="268.771196114703343" y1="381.079913702240447" x2="333.586541143252703" y2="311.700107756194996" gradientUnits="userSpaceOnUse">
      <stop offset="0" stop-color="#1f9276"/>
      <stop offset=".5" stop-color="#4b9669"/>
      <stop offset="1" stop-color="#679a5a"/>
    </linearGradient>
  </defs>
  <g id="pie_with_links_-5" data-name="pie (with links)">
    <g id="pie_with_links_-6" data-name="pie (with links)">
      <a xlink:href="https://www.notion.so/dmmnotes/C1-348fe6a52f7a4fe69f768e98c6586932?pvs=4#aafe9eb6b5d2405bb7eb70c05c77aa3e">
        <g id="C1">
          <g id="C1-2" data-name="C1">
            <path d="M299.9443359375,414.7109375c-11.70703125-.0009765625-23.2802734375-3.1103515625-33.46875-8.9921875-32.017578125-18.4853515625-43.02734375-59.5732421875-24.5419921875-91.5908203125,11.9423828125-20.6845703125,34.212890625-33.5341796875,58.12109375-33.5341796875,11.7060546875,0,23.2802734375,3.10986328125,33.4697265625,8.99267578125,15.509765625,8.95458984375,26.6044921875,23.41357421875,31.2392578125,40.71240234375,4.6357421875,17.2998046875,2.2568359375,35.3681640625-6.6982421875,50.8779296875-11.9423828125,20.6845703125-34.2119140625,33.5341796875-58.1171875,33.5341796875h-.00390625Z" style="fill: url(#C1-3); stroke-width: 0px;"/>
            <path d="M300.054443359380457,289.093902587890625c9.931884765619543,0,20.000244140619543,2.530975341789599,29.219604492180224,7.853790283199487,28.00341796875,16.167816162111194,37.59814453125,51.975646972659888,21.430297851569776,79.979064941409888-10.844970703130457,18.78399658203125-30.523559570319776,29.284118652340112-50.75927734375,29.284118652340112-9.931884765630457,0-20.000366210941138-2.531005859378638-29.2197265625-7.853820800779431-28.00341796875-16.167755126960401-37.59814453125-51.9755859375-21.430297851569776-79.97900390625,10.844970703128638-18.784027099609375,30.523681640628638-29.284149169920056,50.759399414069776-29.284149169920056M300.054443359380457,272.093872070310681c-26.934814453130457,0-52.026000976569776,14.478057861329944-65.481811523441138,37.7841796875-10.089965820308862,17.476165771480737-12.770263671878638,37.835601806640625-7.54736328125,57.327758789060681,5.222900390621362,19.4921875,17.723876953121362,35.783752441409888,35.200073242191138,45.873657226558862,11.480102539058862,6.628051757819776,24.523315429680224,10.131408691409888,37.7197265625,10.131408691409888,26.934814453119543,0,52.02587890625-14.47802734375,65.481689453119543-37.784118652340112,10.089965820310681-17.476165771489832,12.770263671880457-37.83560180664972,7.54736328125-57.32781982421875-5.222900390619543-19.4921875-17.723876953119543-35.783782958989832-35.200073242189319-45.873657226569776-11.480102539060681-6.628051757810681-24.523315429680224-10.131408691400793-37.719604492180224-10.131408691400793h0Z" style="fill: #181818; stroke-width: 0px;"/>
          </g>
          <a xlink:href="https://www.notion.so/dmmnotes/C1-348fe6a52f7a4fe69f768e98c6586932?pvs=4#aafe9eb6b5d2405bb7eb70c05c77aa3e">
            <g>
              <g>
                <path d="M288.1484375,243.242187499987267c.1025390625-3.0341796875-.392578125-5.310546875-1.4912109375-6.8291015625-1.099609375-1.5166015625-2.48828125-2.4580078125-4.1611328125-2.826171875-1.6748046875-.365234375-3.48046875-.181640625-5.416015625.5498046875-1.9384765625.7333984375-3.689453125,1.7802734375-5.259765625,3.1396484375-3.6650390625,3.1396484375-6.62109375,7.1435546875-8.8701171875,12.0107421875-2.251953125,4.8662109375-3.7685546875,9.96875-4.5537109375,15.3076171875-.7841796875,5.337890625-.8388671875,10.6513671875-.15625,15.935546875.6787109375,5.2861328125,2.1708984375,9.8662109375,4.474609375,13.7373046875,1.4638671875,2.51171875,3.2177734375,4.37109375,5.2587890625,5.5732421875,2.041015625,1.2041015625,4.2119140625,1.8837890625,6.515625,2.041015625,2.30078125.1572265625,4.578125-.208984375,6.830078125-1.0986328125,2.2490234375-.888671875,4.2626953125-2.22265625,6.0439453125-4.00390625,2.720703125-2.720703125,4.9189453125-4.65625,6.59375-5.80859375,1.673828125-1.1513671875,3.5576171875-1.779296875,5.65234375-1.884765625,5.9658203125,0,9.916015625,1.67578125,11.853515625,5.0244140625,1.935546875,3.3505859375,2.0654296875,7.4326171875.392578125,12.24609375-1.361328125,3.767578125-3.4296875,7.064453125-6.201171875,9.890625-2.7744140625,2.826171875-5.9931640625,5.1025390625-9.65625,6.830078125-3.6650390625,1.7265625-7.58984375,2.9306640625-11.7744140625,3.6103515625-4.1875.6796875-8.3212890625.8642578125-12.4033203125.5498046875s-7.955078125-1.177734375-11.6181640625-2.5908203125c-3.6650390625-1.4130859375-6.8046875-3.3212890625-9.419921875-5.73046875-2.931640625-2.720703125-5.4951171875-5.8330078125-7.6923828125-9.3408203125-2.1982421875-3.505859375-4.03125-7.22265625-5.4951171875-11.1474609375-1.4677734375-3.9248046875-2.56640625-8.0068359375-3.296875-12.24609375-.734375-4.2392578125-1.099609375-8.501953125-1.099609375-12.794921875.208984375-9.62890625,2.25-18.943359375,6.123046875-27.9462890625,3.87109375-9.0009765625,9.0009765625-16.8505859375,15.3857421875-23.5498046875,2.9296875-3.03515625,6.41015625-5.625,10.4404296875-7.771484375,4.0283203125-2.14453125,8.1640625-3.533203125,12.4033203125-4.1611328125s8.3994140625-.4169921875,12.4814453125.6279296875c4.08203125,1.0478515625,7.693359375,3.24609375,10.8330078125,6.5947265625,2.40625,2.51171875,4.341796875,5.3916015625,5.8095703125,8.634765625,1.4638671875,3.2451171875,2.5634765625,6.4912109375,3.296875,9.7333984375.4169921875,2.095703125.6005859375,4.08203125.548828125,5.966796875-.0537109375,1.8837890625-.498046875,3.6650390625-1.333984375,5.337890625-1.1533203125,2.0947265625-2.931640625,3.5859375-5.337890625,4.474609375-2.4091796875.890625-4.7890625,1.1767578125-7.1435546875.86328125-2.35546875-.314453125-4.396484375-1.2294921875-6.123046875-2.748046875-1.7275390625-1.515625-2.5390625-3.583984375-2.43359375-6.201171875Z" style="fill: none; stroke: #181818; stroke-linecap: round; stroke-linejoin: round; stroke-width: 33px;"/>
                <path d="M366.33203125,224.873046874987267c-2.51171875,31.8193359375-3.611328125,63.7958984375-3.296875,95.927734375-.10546875,1.15234375-.419921875,2.197265625-.9423828125,3.1396484375-.5244140625.8388671875-1.3095703125,1.6484375-2.3544921875,2.43359375-1.0478515625.78515625-2.4609375,1.2802734375-4.2392578125,1.4912109375-1.8837890625.208984375-3.794921875.3388671875-5.73046875.392578125-1.9384765625.0517578125-3.7431640625-.1328125-5.4169921875-.5498046875-1.6748046875-.4189453125-3.115234375-1.150390625-4.3173828125-2.197265625-1.2041015625-1.0458984375-1.9619140625-2.669921875-2.2763671875-4.8671875-.2109375-1.150390625-.3408203125-3.400390625-.392578125-6.7509765625-.0537109375-3.3486328125.0244140625-7.37890625.2353515625-12.0888671875.208984375-4.8134765625.4716796875-10.0732421875.78515625-15.779296875.314453125-5.703125.6279296875-11.43359375.9423828125-17.19140625.1025390625-.2080078125.1572265625-.5224609375.1572265625-.94140625-.6279296875-.103515625-1.388671875-.314453125-2.27734375-.6279296875-.8896484375-.314453125-2.0673828125-.9423828125-3.5322265625-1.884765625-1.5693359375-1.044921875-3.1669921875-2.119140625-4.7880859375-3.2177734375-1.6240234375-1.099609375-3.0888671875-2.22265625-4.396484375-3.3759765625-1.3095703125-1.150390625-2.330078125-2.2490234375-3.0615234375-3.296875-.7333984375-1.044921875-.94140625-2.041015625-.6279296875-2.9833984375.314453125-.94140625,1.7275390625-3.0341796875,4.2392578125-6.279296875,1.150390625-1.46484375,2.40625-3.140625,3.767578125-5.0244140625,1.359375-1.8837890625,2.7724609375-3.8193359375,4.2392578125-5.80859375,1.46484375-1.8837890625,2.798828125-3.7138671875,4.00390625-5.4951171875,1.2021484375-1.7783203125,2.328125-3.400390625,3.375-4.8671875,1.150390625-1.6728515625,2.25-3.296875,3.296875-4.8671875.4169921875-.8359375,1.8056640625-1.333984375,4.1611328125-1.4912109375,2.3544921875-.1572265625,4.8671875,0,7.5361328125.470703125,2.6689453125.4716796875,5.1025390625,1.205078125,7.2998046875,2.1982421875,2.1982421875.99609375,3.400390625,2.173828125,3.611328125,3.5322265625Z" style="fill: none; stroke: #181818; stroke-linecap: round; stroke-linejoin: round; stroke-width: 33px;"/>
              </g>
              <g>
                <path d="M288.1484375,243.242187499987267c.1025390625-3.0341796875-.392578125-5.310546875-1.4912109375-6.8291015625-1.099609375-1.5166015625-2.48828125-2.4580078125-4.1611328125-2.826171875-1.6748046875-.365234375-3.48046875-.181640625-5.416015625.5498046875-1.9384765625.7333984375-3.689453125,1.7802734375-5.259765625,3.1396484375-3.6650390625,3.1396484375-6.62109375,7.1435546875-8.8701171875,12.0107421875-2.251953125,4.8662109375-3.7685546875,9.96875-4.5537109375,15.3076171875-.7841796875,5.337890625-.8388671875,10.6513671875-.15625,15.935546875.6787109375,5.2861328125,2.1708984375,9.8662109375,4.474609375,13.7373046875,1.4638671875,2.51171875,3.2177734375,4.37109375,5.2587890625,5.5732421875,2.041015625,1.2041015625,4.2119140625,1.8837890625,6.515625,2.041015625,2.30078125.1572265625,4.578125-.208984375,6.830078125-1.0986328125,2.2490234375-.888671875,4.2626953125-2.22265625,6.0439453125-4.00390625,2.720703125-2.720703125,4.9189453125-4.65625,6.59375-5.80859375,1.673828125-1.1513671875,3.5576171875-1.779296875,5.65234375-1.884765625,5.9658203125,0,9.916015625,1.67578125,11.853515625,5.0244140625,1.935546875,3.3505859375,2.0654296875,7.4326171875.392578125,12.24609375-1.361328125,3.767578125-3.4296875,7.064453125-6.201171875,9.890625-2.7744140625,2.826171875-5.9931640625,5.1025390625-9.65625,6.830078125-3.6650390625,1.7265625-7.58984375,2.9306640625-11.7744140625,3.6103515625-4.1875.6796875-8.3212890625.8642578125-12.4033203125.5498046875s-7.955078125-1.177734375-11.6181640625-2.5908203125c-3.6650390625-1.4130859375-6.8046875-3.3212890625-9.419921875-5.73046875-2.931640625-2.720703125-5.4951171875-5.8330078125-7.6923828125-9.3408203125-2.1982421875-3.505859375-4.03125-7.22265625-5.4951171875-11.1474609375-1.4677734375-3.9248046875-2.56640625-8.0068359375-3.296875-12.24609375-.734375-4.2392578125-1.099609375-8.501953125-1.099609375-12.794921875.208984375-9.62890625,2.25-18.943359375,6.123046875-27.9462890625,3.87109375-9.0009765625,9.0009765625-16.8505859375,15.3857421875-23.5498046875,2.9296875-3.03515625,6.41015625-5.625,10.4404296875-7.771484375,4.0283203125-2.14453125,8.1640625-3.533203125,12.4033203125-4.1611328125s8.3994140625-.4169921875,12.4814453125.6279296875c4.08203125,1.0478515625,7.693359375,3.24609375,10.8330078125,6.5947265625,2.40625,2.51171875,4.341796875,5.3916015625,5.8095703125,8.634765625,1.4638671875,3.2451171875,2.5634765625,6.4912109375,3.296875,9.7333984375.4169921875,2.095703125.6005859375,4.08203125.548828125,5.966796875-.0537109375,1.8837890625-.498046875,3.6650390625-1.333984375,5.337890625-1.1533203125,2.0947265625-2.931640625,3.5859375-5.337890625,4.474609375-2.4091796875.890625-4.7890625,1.1767578125-7.1435546875.86328125-2.35546875-.314453125-4.396484375-1.2294921875-6.123046875-2.748046875-1.7275390625-1.515625-2.5390625-3.583984375-2.43359375-6.201171875Z" style="fill: #e2dddb; stroke-width: 0px;"/>
                <path d="M366.33203125,224.873046874987267c-2.51171875,31.8193359375-3.611328125,63.7958984375-3.296875,95.927734375-.10546875,1.15234375-.419921875,2.197265625-.9423828125,3.1396484375-.5244140625.8388671875-1.3095703125,1.6484375-2.3544921875,2.43359375-1.0478515625.78515625-2.4609375,1.2802734375-4.2392578125,1.4912109375-1.8837890625.208984375-3.794921875.3388671875-5.73046875.392578125-1.9384765625.0517578125-3.7431640625-.1328125-5.4169921875-.5498046875-1.6748046875-.4189453125-3.115234375-1.150390625-4.3173828125-2.197265625-1.2041015625-1.0458984375-1.9619140625-2.669921875-2.2763671875-4.8671875-.2109375-1.150390625-.3408203125-3.400390625-.392578125-6.7509765625-.0537109375-3.3486328125.0244140625-7.37890625.2353515625-12.0888671875.208984375-4.8134765625.4716796875-10.0732421875.78515625-15.779296875.314453125-5.703125.6279296875-11.43359375.9423828125-17.19140625.1025390625-.2080078125.1572265625-.5224609375.1572265625-.94140625-.6279296875-.103515625-1.388671875-.314453125-2.27734375-.6279296875-.8896484375-.314453125-2.0673828125-.9423828125-3.5322265625-1.884765625-1.5693359375-1.044921875-3.1669921875-2.119140625-4.7880859375-3.2177734375-1.6240234375-1.099609375-3.0888671875-2.22265625-4.396484375-3.3759765625-1.3095703125-1.150390625-2.330078125-2.2490234375-3.0615234375-3.296875-.7333984375-1.044921875-.94140625-2.041015625-.6279296875-2.9833984375.314453125-.94140625,1.7275390625-3.0341796875,4.2392578125-6.279296875,1.150390625-1.46484375,2.40625-3.140625,3.767578125-5.0244140625,1.359375-1.8837890625,2.7724609375-3.8193359375,4.2392578125-5.80859375,1.46484375-1.8837890625,2.798828125-3.7138671875,4.00390625-5.4951171875,1.2021484375-1.7783203125,2.328125-3.400390625,3.375-4.8671875,1.150390625-1.6728515625,2.25-3.296875,3.296875-4.8671875.4169921875-.8359375,1.8056640625-1.333984375,4.1611328125-1.4912109375,2.3544921875-.1572265625,4.8671875,0,7.5361328125.470703125,2.6689453125.4716796875,5.1025390625,1.205078125,7.2998046875,2.1982421875,2.1982421875.99609375,3.400390625,2.173828125,3.611328125,3.5322265625Z" style="fill: #e2dddb; stroke-width: 0px;"/>
              </g>
            </g>
          </a>
        </g>
      </a>
      <g id="Pie">
        <g>
          <a xlink:href="https://www.notion.so/dmmnotes/paranoid-ae38b1e6af0c4dd08f61e0d8f6e9f05f?pvs=4">
            <path id="C8" d="M331.308105468760914,517.749511718748181l7.825683593739086,54.4306640625c26.439208984369543-3.767822265628638,51.645751953139552-11.3115234375,75.101318359369543-22.04296875l-22.832519531239086-49.996826171878638c-18.7666015625,8.572265625-38.93505859375,14.601318359378638-60.094482421869543,17.609130859378638Z" style="fill: none; stroke: #181818; stroke-linecap: round; stroke-linejoin: round; stroke-width: 15px;"/>
          </a>
          <a xlink:href="https://www.notion.so/dmmnotes/menacing-a5bd7149286344deba45ec15e759e579?pvs=4">
            <path id="C7" d="M391.402587890630457,500.140380859369543l22.832519531239086,49.996826171878638c23.989990234391371-10.975830078121362,46.116210937520009-25.287109375010914,65.803955078141371-42.36181640625l-35.972900390630457-41.515869140621362c-15.753417968760914,13.65869140625-33.459228515630457,25.104492187492724-52.66357421875,33.880859374992724Z" style="fill: none; stroke: #181818; stroke-linecap: round; stroke-linejoin: round; stroke-width: 15px;"/>
          </a>
          <a xlink:href="https://www.notion.so/dmmnotes/seductively-obsessed-with-rescue-6fb5a68f6d334bc29ccccc16d8a4e56e?pvs=4">
            <path id="C6" d="M444.066162109380457,466.259521484376819l35.972900390630457,41.515869140621362c19.762939453119543-17.141845703128638,37.047119140619543-37.041748046878638,51.26708984375-59.125l-46.223632812510914-29.704833984371362c-11.373291015619543,17.673583984371362-25.201171874989086,33.598876953121362-41.016357421869543,47.31396484375Z" style="fill: none; stroke: #181818; stroke-linecap: round; stroke-linejoin: round; stroke-width: 15px;"/>
          </a>
          <a xlink:href="https://www.notion.so/dmmnotes/punitively-obsessed-with-revenge-33d2e77f37774316b42bccf4a60f9688?pvs=4">
            <path id="C5" d="M485.08251953125,418.945556640626819l46.223632812510914,29.704833984371362c14.048095703128638-21.809326171882276,25.08837890625-45.71875,32.551513671869543-71.175048828132276l-52.7548828125-15.490234375c-5.9619140625,20.377929687510914-14.789306640619543,39.509765625-26.020263671880457,56.960449218760914Z" style="fill: none; stroke: #181818; stroke-linecap: round; stroke-linejoin: round; stroke-width: 15px;"/>
          </a>
          <a xlink:href="https://www.notion.so/dmmnotes/feigned-helpless-e79a94b0498c4e109a681b7f3dcdb088?pvs=4">
            <path id="C4" d="M520,299.999999999998181c0,21.5380859375-3.142089843739086,42.321533203117724-8.897216796869543,61.985107421867724l52.7548828125,15.490234375c7.2080078125-24.583496093739086,11.142333984369543-50.5634765625,11.142333984369543-77.475341796867724h-55Z" style="fill: none; stroke: #181818; stroke-linecap: round; stroke-linejoin: round; stroke-width: 15px;"/>
          </a>
          <a xlink:href="https://www.notion.so/dmmnotes/aggressive-2d8ccce383534b9dbfc7b4b10b8a5d5c?pvs=4">
            <path id="C3" d="M520,299.999999999998181h55c0-26.911865234389552-3.934326171869543-52.894531250010914-11.142333984369543-77.475341796889552l-52.7548828125,15.490234375c5.755126953130457,19.663574218757276,8.897216796869543,40.449707031257276,8.897216796869543,61.985107421889552Z" style="fill: none; stroke: #181818; stroke-linecap: round; stroke-linejoin: round; stroke-width: 15px;"/>
          </a>
          <a xlink:href="https://www.notion.so/dmmnotes/disarming-086276e599884c86b9359acf831a8b20?pvs=4">
            <path id="C2" d="M511.102783203130457,238.014892578108629l52.7548828125-15.490234375c-7.463134765619543-25.456298828121362-18.503417968740905-49.365722656242724-32.551513671869543-71.177734374992724l-46.223632812510914,29.70751953125c11.230957031260914,17.45068359375,20.055664062510914,36.585205078121362,26.020263671880457,56.960449218742724Z" style="fill: none; stroke: #181818; stroke-linecap: round; stroke-linejoin: round; stroke-width: 15px;"/>
          </a>
          <a xlink:href="https://www.notion.so/dmmnotes/complaining-acceptance-8b40401a720c493ba73f7cde1567cf3d?pvs=4">
            <path id="B5" d="M444.066162109380457,133.743164062487267l.00003597290015-.000041518560465c20.654922513649581-23.839126791601302,14.125719583838872-60.826671837301546-13.629725214659629-75.812167347630748-5.297847529700448-2.860371035199933-10.700612091030052-5.552089440428972-16.201365445751435-8.068162227547873l-22.832519531239086,49.99951171875c19.204345703119543,8.773681640617724,36.910156249989086,20.22216796875,52.66357421875,33.880859374989086Z" style="fill: none; stroke: #181818; stroke-linecap: round; stroke-linejoin: round; stroke-width: 15px;"/>
          </a>
          <a xlink:href="https://www.notion.so/dmmnotes/sentimental-bc554363322342b1b7ca4ccc02125049?pvs=4">
            <path id="B4" d="M391.402587890630457,99.862304687498181l22.832519531239086-49.99951171875c-23.455566406229991-10.7314453125-48.662109375-18.275146484389552-75.101318359369543-22.042968749992724l-7.825683593739086,54.433349609360448c21.159423828119543,3.0078125,41.327880859369543,9.034179687492724,60.094482421869543,17.609130859382276Z" style="fill: none; stroke: #181818; stroke-linecap: round; stroke-linejoin: round; stroke-width: 15px;"/>
          </a>
          <a xlink:href="https://www.notion.so/dmmnotes/comfortably-balanced-e76dc615a8b947aa915377cd02fcf716?pvs=4">
            <path id="B3" d="M300,79.999999999998181c10.634765625,0,21.078857421869543.797607421867724,31.308105468760914,2.253173828117724l7.825683593739086-54.433349609360448c-12.788574218739086-1.823486328139552-25.843017578130457-2.819824218757276-39.1337890625-2.819824218757276s-26.34521484375.996337890617724-39.133789062489086,2.819824218757276l7.825683593739086,54.433349609360448c10.23193359375-1.45556640625,20.67333984375-2.253173828117724,31.30810546875-2.253173828117724Z" style="fill: none; stroke: #181818; stroke-linecap: round; stroke-linejoin: round; stroke-width: 15px;"/>
          </a>
          <a xlink:href="https://www.notion.so/dmmnotes/accepting-317d81273fff4cd9817cdf4a88efd378?pvs=4">
            <path id="B2" d="M268.69189453125,82.253173828115905l-7.825683593739086-54.433349609360448c-26.439208984391371,3.767822265603172-51.643066406260914,11.311523437492724-75.098632812510914,22.042968749992724l22.83251953125,49.99951171875c18.7666015625-8.574951171889552,38.93505859375-14.601318359382276,60.091796875-17.609130859382276Z" style="fill: none; stroke: #181818; stroke-linecap: round; stroke-linejoin: round; stroke-width: 15px;"/>
          </a>
          <a xlink:href="https://www.notion.so/dmmnotes/distanced-from-past-2eabab7e9c77429f8e577f4e3e203653?pvs=4">
            <path id="B1" d="M208.60009765625,99.862304687498181l-22.83251953125-49.99951171875c-5.501476919680499,2.516122083477967-10.904678806709853,5.207896667827299-16.20277414614975,8.068330353889905-27.754772116430104,14.984759620980185-34.283385893750165,51.971559756599163-13.6283165142504,75.809313677109458l.00003597290015.000041515868361c15.75341796875-13.658691406257276,33.4619140625-25.1044921875,52.66357421875-33.878173828117724Z" style="fill: none; stroke: #181818; stroke-linecap: round; stroke-linejoin: round; stroke-width: 15px;"/>
          </a>
          <a xlink:href="https://www.notion.so/dmmnotes/idealising-a52277f51ed14a42aae78081bb34b8be?pvs=4">
            <path id="A1" d="M155.9365234375,133.740478515615905l-.00003597290015-.000041515868361c-20.647012023619027-23.828455119091814-58.166100839880528-22.619561246781814-76.941289455078731,2.709999997550767-3.591451962291103,4.845219097369409-7.02760574713102,9.813063194989809-10.301350353271118,14.896486830817594l46.226318359369543,29.70751953125c11.373291015641371-17.673583984367724,25.201171875010914-33.598876953128638,41.016357421880457-47.31396484375Z" style="fill: none; stroke: #181818; stroke-linecap: round; stroke-linejoin: round; stroke-width: 15px;"/>
          </a>
          <a xlink:href="https://www.notion.so/dmmnotes/distancing-9ac690cdca654729a17a5a255944e2d1?pvs=4">
            <path id="A2" d="M114.920166015619543,181.054443359365905l-46.226318359369543-29.70751953125c-14.04541015625,21.81201171875-25.08837890625,45.721435546871362-32.551513671880457,71.177734374992724l52.754882812510914,15.490234375c5.964599609369543-20.375244140621362,14.7919921875-39.509765624992724,26.022949218739086-56.960449218742724Z" style="fill: none; stroke: #181818; stroke-linecap: round; stroke-linejoin: round; stroke-width: 15px;"/>
          </a>
          <a xlink:href="https://www.notion.so/dmmnotes/compulsive-caregiving-9c380c0928294f41ae10764aa0dee886?pvs=4">
            <path id="A3" d="M88.897216796880457,238.014892578108629l-52.754882812510914-15.490234375c-7.205322265619543,24.580810546878638-11.142333984369543,50.5634765625-11.142333984369543,77.475341796889552h55c0-21.535400390632276,3.14208984375-42.321533203132276,8.897216796880457-61.985107421889552Z" style="fill: none; stroke: #181818; stroke-linecap: round; stroke-linejoin: round; stroke-width: 15px;"/>
          </a>
          <a xlink:href="https://www.notion.so/dmmnotes/compulsive-compliance-6d08b7ea9a424ce1a72b9184b7850414?pvs=4">
            <path id="A4" d="M80,299.999999999998181H25c0,26.911865234367724,3.93701171875,52.894531249989086,11.142333984369543,77.475341796867724l52.754882812510914-15.490234375c-5.755126953130457-19.66357421875-8.897216796880457-40.447021484367724-8.897216796880457-61.985107421867724Z" style="fill: none; stroke: #181818; stroke-linecap: round; stroke-linejoin: round; stroke-width: 15px;"/>
          </a>
          <a xlink:href="https://www.notion.so/dmmnotes/sexual-supplementation-8e85f49046ef412aa229745abf7d38d3?pvs=4">
            <path id="A5" d="M88.897216796880457,361.985107421865905l-52.754882812510914,15.490234375c7.463134765630457,25.456298828132276,18.506103515630457,49.36572265625,32.551513671880457,71.175048828132276l46.223632812510914-29.704833984371362c-11.230957031260914-17.450683593760914-20.055664062510914-36.58251953125-26.020263671880457-56.960449218760914Z" style="fill: none; stroke: #181818; stroke-linecap: round; stroke-linejoin: round; stroke-width: 15px;"/>
          </a>
          <a xlink:href="https://www.notion.so/dmmnotes/compulsive-isolated-self-reliance-b321873a73fa41aaaadd7192fde856a2?pvs=4">
            <path id="A6" d="M114.917480468760914,418.945556640626819l-46.223632812510914,29.704833984371362c14.219970703119543,22.083251953121362,31.504150390630457,41.983154296871362,51.269775390630457,59.125l35.972900390619543-41.515869140621362c-15.815185546869543-13.712402343757276-29.643066406239086-29.637695312507276-41.019042968739086-47.31396484375Z" style="fill: none; stroke: #181818; stroke-linecap: round; stroke-linejoin: round; stroke-width: 15px;"/>
          </a>
          <a xlink:href="https://www.notion.so/dmmnotes/delusional-idealization-743e2420b9994a48a7cab68190432e8a?pvs=4">
            <path id="A7" d="M155.9365234375,466.259521484376819l-35.972900390619543,41.515869140621362c19.687744140619543,17.074707031239086,41.811279296869543,31.385986328128638,65.803955078119543,42.36181640625l22.83251953125-49.996826171878638c-19.20166015625-8.773681640621362-36.91015625-20.222167968742724-52.66357421875-33.880859374992724Z" style="fill: none; stroke: #181818; stroke-linecap: round; stroke-linejoin: round; stroke-width: 15px;"/>
          </a>
          <a xlink:href="https://www.notion.so/dmmnotes/externally-assembled-self-994ecb0895b844409b931d74a045c162?pvs=4">
            <path id="A8" d="M208.60009765625,500.140380859369543l-22.83251953125,49.996826171878638c23.45556640625,10.7314453125,48.659423828119543,18.275146484371362,75.098632812510914,22.04296875l7.825683593739086-54.4306640625c-21.15673828125-3.0078125-41.3251953125-9.0341796875-60.091796875-17.609130859378638Z" style="fill: none; stroke: #181818; stroke-linecap: round; stroke-linejoin: round; stroke-width: 15px;"/>
          </a>
          <a xlink:href="https://www.notion.so/dmmnotes/psychopathy-0fe4a3222d9f4fd097ab4546c9776768?pvs=4">
            <path id="AC" d="M300,519.999999999998181c-10.634765625,0-21.076171875-.794921875-31.30810546875-2.25048828125l-7.825683593739086,54.4306640625c12.788574218739086,1.823486328128638,25.843017578119543,2.81982421875,39.133789062489086,2.81982421875s26.345214843760914-.996337890621362,39.1337890625-2.81982421875l-7.825683593739086-54.4306640625c-10.229248046891371,1.45556640625-20.673339843760914,2.25048828125-31.308105468760914,2.25048828125Z" style="fill: none; stroke: #181818; stroke-linecap: round; stroke-linejoin: round; stroke-width: 15px;"/>
          </a>
          <a xlink:href="https://www.notion.so/dmmnotes/threatening-348fe6a52f7a4fe69f768e98c6586932?pvs=4">
            <g id="C1-4" data-name="C1">
              <path d="M485.08349609375,182.054687499987267c-.32861328125,0-.65087890625-.162109375-.841796875-.458984375-11.29736328125-17.5556640625-25.03466796875-33.4013671875-40.83056640625-47.0966796875-.4169921875-.3623046875-.4619140625-.9931640625-.1005859375-1.4111328125,9.61083984375-11.091796875,23.54052734375-17.4541015625,38.21728515625-17.4541015625,16.07373046875,0,30.755859375,7.37109375,40.28125,20.22265625,3.59423828125,4.8486328125,7.072265625,9.8779296875,10.337890625,14.94921875.1435546875.22265625.19287109375.494140625.13623046875.7529296875-.05615234375.259765625-.21337890625.486328125-.4365234375.62890625l-46.2236328125,29.7080078125c-.1669921875.1083984375-.3544921875.1591796875-.53955078125.1591796875Z" style="fill: none; stroke: #181818; stroke-linecap: round; stroke-linejoin: round; stroke-width: 15px;"/>
              <path d="M481.5274658203125,116.633911132799767c14.8887939453125,0,29.7176513671875,6.6494140625,39.478515625,19.818115234375,3.591064453125,4.8447265625,7.0267333984375,9.81201171875,10.3001708984375,14.8948974609375l-46.2236328125,29.70751953125c-11.373291015625-17.673583984375-25.201171875-33.598876953125-41.016357421875-47.311279296875v-.00006103515625c9.9122314453125-11.4403076171875,23.7122802734375-17.10919189453125,37.4613037109375-17.10919189453125M481.5274658203125,114.633911132799767c-14.966796875,0-29.171875,6.4876708984375-38.972900390625,17.79949951171875-.7230224609375.83465576171875-.6329345703125,2.09735107421875.201416015625,2.82080078125,15.723876953125,13.63330078125,29.3988037109375,29.40692138671875,40.6446533203125,46.88250732421875.3822021484375.593994140625,1.0262451171875.91796875,1.6837158203125.91796875.370361328125,0,.744873046875-.1026611328125,1.0794677734375-.3177490234375l46.2236328125-29.70751953125c.446533203125-.2869873046875.7606201171875-.7396240234375.8731689453125-1.25830078125s.014404296875-1.06085205078125-.27294921875-1.507080078125c-3.278076171875-5.09002685546875-6.7686767578125-10.13775634765625-10.375-15.00299072265625-9.7164306640625-13.10882568359375-24.69140625-20.62713623046875-41.085205078125-20.62713623046875h0Z" style="fill: none; stroke: #181818; stroke-linecap: round; stroke-linejoin: round; stroke-width: 15px;"/>
            </g>
          </a>
        </g>
        <g>
          <a xlink:href="https://www.notion.so/dmmnotes/paranoid-ae38b1e6af0c4dd08f61e0d8f6e9f05f?pvs=4">
            <path id="C8-2" data-name="C8" d="M331.308105468760914,517.749511718748181l7.825683593739086,54.4306640625c26.439208984369543-3.767822265628638,51.645751953139552-11.3115234375,75.101318359369543-22.04296875l-22.832519531239086-49.996826171878638c-18.7666015625,8.572265625-38.93505859375,14.601318359378638-60.094482421869543,17.609130859378638Z" style="fill: #938480; stroke: #181818; stroke-width: 2px;"/>
          </a>
          <a xlink:href="https://www.notion.so/dmmnotes/menacing-a5bd7149286344deba45ec15e759e579?pvs=4">
            <path id="C7-2" data-name="C7" d="M391.402587890630457,500.140380859369543l22.832519531239086,49.996826171878638c23.989990234391371-10.975830078121362,46.116210937520009-25.287109375010914,65.803955078141371-42.36181640625l-35.972900390630457-41.515869140621362c-15.753417968760914,13.65869140625-33.459228515630457,25.104492187492724-52.66357421875,33.880859374992724Z" style="fill: #958682; stroke: #181818; stroke-width: 2px;"/>
          </a>
          <a xlink:href="https://www.notion.so/dmmnotes/seductively-obsessed-with-rescue-6fb5a68f6d334bc29ccccc16d8a4e56e?pvs=4">
            <path id="C6-2" data-name="C6" d="M444.066162109380457,466.259521484376819l35.972900390630457,41.515869140621362c19.762939453119543-17.141845703128638,37.047119140619543-37.041748046878638,51.26708984375-59.125l-46.223632812510914-29.704833984371362c-11.373291015619543,17.673583984371362-25.201171874989086,33.598876953121362-41.016357421869543,47.31396484375Z" style="fill: #988985; stroke: #181818; stroke-width: 2px;"/>
          </a>
          <a xlink:href="https://www.notion.so/dmmnotes/punitively-obsessed-with-revenge-33d2e77f37774316b42bccf4a60f9688?pvs=4">
            <path id="C5-2" data-name="C5" d="M485.08251953125,418.945556640626819l46.223632812510914,29.704833984371362c14.048095703128638-21.809326171882276,25.08837890625-45.71875,32.551513671869543-71.175048828132276l-52.7548828125-15.490234375c-5.9619140625,20.377929687510914-14.789306640619543,39.509765625-26.020263671880457,56.960449218760914Z" style="fill: #9b8d89; stroke: #181818; stroke-width: 2px;"/>
          </a>
          <a xlink:href="https://www.notion.so/dmmnotes/feigned-helpless-e79a94b0498c4e109a681b7f3dcdb088?pvs=4">
            <path id="C4-2" data-name="C4" d="M520,299.999999999998181c0,21.5380859375-3.142089843739086,42.321533203117724-8.897216796869543,61.985107421867724l52.7548828125,15.490234375c7.2080078125-24.583496093739086,11.142333984369543-50.5634765625,11.142333984369543-77.475341796867724h-55Z" style="fill: #a1928f; stroke: #181818; stroke-width: 2px;"/>
          </a>
          <a xlink:href="https://www.notion.so/dmmnotes/aggressive-2d8ccce383534b9dbfc7b4b10b8a5d5c?pvs=4">
            <path id="C3-2" data-name="C3" d="M520,299.999999999998181h55c0-26.911865234389552-3.934326171869543-52.894531250010914-11.142333984369543-77.475341796889552l-52.7548828125,15.490234375c5.755126953130457,19.663574218757276,8.897216796869543,40.449707031257276,8.897216796869543,61.985107421889552Z" style="fill: #9e8f8b; stroke: #181818; stroke-width: 2px;"/>
          </a>
          <a xlink:href="https://www.notion.so/dmmnotes/disarming-086276e599884c86b9359acf831a8b20?pvs=4">
            <path id="C2-2" data-name="C2" d="M511.102783203130457,238.014892578108629l52.7548828125-15.490234375c-7.463134765619543-25.456298828121362-18.503417968740905-49.365722656242724-32.551513671869543-71.177734374992724l-46.223632812510914,29.70751953125c11.230957031260914,17.45068359375,20.055664062510914,36.585205078121362,26.020263671880457,56.960449218742724Z" style="fill: #9b8c88; stroke: #181818; stroke-width: 2px;"/>
          </a>
          <a xlink:href="https://www.notion.so/dmmnotes/complaining-acceptance-8b40401a720c493ba73f7cde1567cf3d?pvs=4">
            <path id="B5-2" data-name="B5" d="M444.066162109380457,133.743164062487267l.00003597290015-.000041518560465c20.654922513649581-23.839126791601302,14.125719583838872-60.826671837301546-13.629725214659629-75.812167347630748-5.297847529700448-2.860371035199933-10.700612091030052-5.552089440428972-16.201365445751435-8.068162227547873l-22.832519531239086,49.99951171875c19.204345703119543,8.773681640617724,36.910156249989086,20.22216796875,52.66357421875,33.880859374989086Z" style="fill: #958682; stroke: #181818; stroke-width: 2px;"/>
          </a>
          <a xlink:href="https://www.notion.so/dmmnotes/sentimental-bc554363322342b1b7ca4ccc02125049?pvs=4">
            <path id="B4-2" data-name="B4" d="M391.402587890630457,99.862304687498181l22.832519531239086-49.99951171875c-23.455566406229991-10.7314453125-48.662109375-18.275146484389552-75.101318359369543-22.042968749992724l-7.825683593739086,54.433349609360448c21.159423828119543,3.0078125,41.327880859369543,9.034179687492724,60.094482421869543,17.609130859382276Z" style="fill: #92837f; stroke: #181818; stroke-width: 2px;"/>
          </a>
          <a xlink:href="https://www.notion.so/dmmnotes/comfortably-balanced-e76dc615a8b947aa915377cd02fcf716?pvs=4">
            <path id="B3-2" data-name="B3" d="M300,79.999999999998181c10.634765625,0,21.078857421869543.797607421867724,31.308105468760914,2.253173828117724l7.825683593739086-54.433349609360448c-12.788574218739086-1.823486328139552-25.843017578130457-2.819824218757276-39.1337890625-2.819824218757276s-26.34521484375.996337890617724-39.133789062489086,2.819824218757276l7.825683593739086,54.433349609360448c10.23193359375-1.45556640625,20.67333984375-2.253173828117724,31.30810546875-2.253173828117724Z" style="fill: #8f807d; stroke: #181818; stroke-width: 2px;"/>
          </a>
          <a xlink:href="https://www.notion.so/dmmnotes/accepting-317d81273fff4cd9817cdf4a88efd378?pvs=4">
            <path id="B2-2" data-name="B2" d="M268.69189453125,82.253173828115905l-7.825683593739086-54.433349609360448c-26.439208984391371,3.767822265603172-51.643066406260914,11.311523437492724-75.098632812510914,22.042968749992724l22.83251953125,49.99951171875c18.7666015625-8.574951171889552,38.93505859375-14.601318359382276,60.091796875-17.609130859382276Z" style="fill: #8c7d7a; stroke: #181818; stroke-width: 2px;"/>
          </a>
          <a xlink:href="https://www.notion.so/dmmnotes/distanced-from-past-2eabab7e9c77429f8e577f4e3e203653?pvs=4">
            <path id="B1-2" data-name="B1" d="M208.60009765625,99.862304687498181l-22.83251953125-49.99951171875c-5.501476919680499,2.516122083477967-10.904678806709853,5.207896667827299-16.20277414614975,8.068330353889905-27.754772116430104,14.984759620980185-34.283385893750165,51.971559756599163-13.6283165142504,75.809313677109458l.00003597290015.000041515868361c15.75341796875-13.658691406257276,33.4619140625-25.1044921875,52.66357421875-33.878173828117724Z" style="fill: #8a7b78; stroke: #181818; stroke-width: 2px;"/>
          </a>
          <a xlink:href="https://www.notion.so/dmmnotes/idealising-a52277f51ed14a42aae78081bb34b8be?pvs=4">
            <path id="A1-2" data-name="A1" d="M155.9365234375,133.740478515615905l-.00003597290015-.000041515868361c-20.647012023619027-23.828455119091814-58.166100839880528-22.619561246781814-76.941289455078731,2.709999997550767-3.591451962291103,4.845219097369409-7.02760574713102,9.813063194989809-10.301350353271118,14.896486830817594l46.226318359369543,29.70751953125c11.373291015641371-17.673583984367724,25.201171875010914-33.598876953128638,41.016357421880457-47.31396484375Z" style="fill: #877875; stroke: #181818; stroke-width: 2px;"/>
          </a>
          <a xlink:href="https://www.notion.so/dmmnotes/distancing-9ac690cdca654729a17a5a255944e2d1?pvs=4">
            <path id="A2-2" data-name="A2" d="M114.920166015619543,181.054443359365905l-46.226318359369543-29.70751953125c-14.04541015625,21.81201171875-25.08837890625,45.721435546871362-32.551513671880457,71.177734374992724l52.754882812510914,15.490234375c5.964599609369543-20.375244140621362,14.7919921875-39.509765624992724,26.022949218739086-56.960449218742724Z" style="fill: #847572; stroke: #181818; stroke-width: 2px;"/>
          </a>
          <a xlink:href="https://www.notion.so/dmmnotes/compulsive-caregiving-9c380c0928294f41ae10764aa0dee886?pvs=4">
            <path id="A3-2" data-name="A3" d="M88.897216796880457,238.014892578108629l-52.754882812510914-15.490234375c-7.205322265619543,24.580810546878638-11.142333984369543,50.5634765625-11.142333984369543,77.475341796889552h55c0-21.535400390632276,3.14208984375-42.321533203132276,8.897216796880457-61.985107421889552Z" style="fill: #827370; stroke: #181818; stroke-width: 2px;"/>
          </a>
          <a xlink:href="https://www.notion.so/dmmnotes/compulsive-compliance-6d08b7ea9a424ce1a72b9184b7850414?pvs=4">
            <path id="A4-2" data-name="A4" d="M80,299.999999999998181H25c0,26.911865234367724,3.93701171875,52.894531249989086,11.142333984369543,77.475341796867724l52.754882812510914-15.490234375c-5.755126953130457-19.66357421875-8.897216796880457-40.447021484367724-8.897216796880457-61.985107421867724Z" style="fill: #80716e; stroke: #181818; stroke-width: 2px;"/>
          </a>
          <a xlink:href="https://www.notion.so/dmmnotes/sexual-supplementation-8e85f49046ef412aa229745abf7d38d3?pvs=4">
            <path id="A5-2" data-name="A5" d="M88.897216796880457,361.985107421865905l-52.754882812510914,15.490234375c7.463134765630457,25.456298828132276,18.506103515630457,49.36572265625,32.551513671880457,71.175048828132276l46.223632812510914-29.704833984371362c-11.230957031260914-17.450683593760914-20.055664062510914-36.58251953125-26.020263671880457-56.960449218760914Z" style="fill: #837471; stroke: #181818; stroke-width: 2px;"/>
          </a>
          <a xlink:href="https://www.notion.so/dmmnotes/compulsive-isolated-self-reliance-b321873a73fa41aaaadd7192fde856a2?pvs=4">
            <path id="A6-2" data-name="A6" d="M114.917480468760914,418.945556640626819l-46.223632812510914,29.704833984371362c14.219970703119543,22.083251953121362,31.504150390630457,41.983154296871362,51.269775390630457,59.125l35.972900390619543-41.515869140621362c-15.815185546869543-13.712402343757276-29.643066406239086-29.637695312507276-41.019042968739086-47.31396484375Z" style="fill: #867774; stroke: #181818; stroke-width: 2px;"/>
          </a>
          <a xlink:href="https://www.notion.so/dmmnotes/delusional-idealization-743e2420b9994a48a7cab68190432e8a?pvs=4">
            <path id="A7-2" data-name="A7" d="M155.9365234375,466.259521484376819l-35.972900390619543,41.515869140621362c19.687744140619543,17.074707031239086,41.811279296869543,31.385986328128638,65.803955078119543,42.36181640625l22.83251953125-49.996826171878638c-19.20166015625-8.773681640621362-36.91015625-20.222167968742724-52.66357421875-33.880859374992724Z" style="fill: #8a7b77; stroke: #181818; stroke-width: 2px;"/>
          </a>
          <a xlink:href="https://www.notion.so/dmmnotes/externally-assembled-self-994ecb0895b844409b931d74a045c162?pvs=4">
            <path id="A8-2" data-name="A8" d="M208.60009765625,500.140380859369543l-22.83251953125,49.996826171878638c23.45556640625,10.7314453125,48.659423828119543,18.275146484371362,75.098632812510914,22.04296875l7.825683593739086-54.4306640625c-21.15673828125-3.0078125-41.3251953125-9.0341796875-60.091796875-17.609130859378638Z" style="fill: #8a7b77; stroke: #181818; stroke-width: 2px;"/>
          </a>
          <a xlink:href="https://www.notion.so/dmmnotes/psychopathy-0fe4a3222d9f4fd097ab4546c9776768?pvs=4">
            <path id="AC-2" data-name="AC" d="M300,519.999999999998181c-10.634765625,0-21.076171875-.794921875-31.30810546875-2.25048828125l-7.825683593739086,54.4306640625c12.788574218739086,1.823486328128638,25.843017578119543,2.81982421875,39.133789062489086,2.81982421875s26.345214843760914-.996337890621362,39.1337890625-2.81982421875l-7.825683593739086-54.4306640625c-10.229248046891371,1.45556640625-20.673339843760914,2.25048828125-31.308105468760914,2.25048828125Z" style="fill: #90817d; stroke: #181818; stroke-width: 2px;"/>
          </a>
          <a xlink:href="https://www.notion.so/dmmnotes/threatening-348fe6a52f7a4fe69f768e98c6586932?pvs=4">
            <g id="C1-5" data-name="C1">
              <path d="M485.08349609375,182.054687499987267c-.32861328125,0-.65087890625-.162109375-.841796875-.458984375-11.29736328125-17.5556640625-25.03466796875-33.4013671875-40.83056640625-47.0966796875-.4169921875-.3623046875-.4619140625-.9931640625-.1005859375-1.4111328125,9.61083984375-11.091796875,23.54052734375-17.4541015625,38.21728515625-17.4541015625,16.07373046875,0,30.755859375,7.37109375,40.28125,20.22265625,3.59423828125,4.8486328125,7.072265625,9.8779296875,10.337890625,14.94921875.1435546875.22265625.19287109375.494140625.13623046875.7529296875-.05615234375.259765625-.21337890625.486328125-.4365234375.62890625l-46.2236328125,29.7080078125c-.1669921875.1083984375-.3544921875.1591796875-.53955078125.1591796875Z" style="fill: #4b9669; stroke-width: 0px;"/>
              <path d="M481.5274658203125,116.633911132799767c14.8887939453125,0,29.7176513671875,6.6494140625,39.478515625,19.818115234375,3.591064453125,4.8447265625,7.0267333984375,9.81201171875,10.3001708984375,14.8948974609375l-46.2236328125,29.70751953125c-11.373291015625-17.673583984375-25.201171875-33.598876953125-41.016357421875-47.311279296875v-.00006103515625c9.9122314453125-11.4403076171875,23.7122802734375-17.10919189453125,37.4613037109375-17.10919189453125M481.5274658203125,114.633911132799767c-14.966796875,0-29.171875,6.4876708984375-38.972900390625,17.79949951171875-.7230224609375.83465576171875-.6329345703125,2.09735107421875.201416015625,2.82080078125,15.723876953125,13.63330078125,29.3988037109375,29.40692138671875,40.6446533203125,46.88250732421875.3822021484375.593994140625,1.0262451171875.91796875,1.6837158203125.91796875.370361328125,0,.744873046875-.1026611328125,1.0794677734375-.3177490234375l46.2236328125-29.70751953125c.446533203125-.2869873046875.7606201171875-.7396240234375.8731689453125-1.25830078125s.014404296875-1.06085205078125-.27294921875-1.507080078125c-3.278076171875-5.09002685546875-6.7686767578125-10.13775634765625-10.375-15.00299072265625-9.7164306640625-13.10882568359375-24.69140625-20.62713623046875-41.085205078125-20.62713623046875h0Z" style="fill: #181818; stroke-width: 0px;"/>
            </g>
          </a>
        </g>
      </g>
      <g>
        <path d="M492.1083984375,136.399414062487267c-.486328125,6.1591796875-.69921875,12.3486328125-.638671875,18.568359375-.0205078125.2236328125-.0810546875.42578125-.181640625.6083984375-.1015625.162109375-.25390625.318359375-.4560546875.470703125-.203125.15234375-.4765625.248046875-.8203125.2890625-.365234375.0400390625-.7353515625.0654296875-1.109375.076171875-.375.009765625-.724609375-.0263671875-1.048828125-.1064453125-.32421875-.08203125-.6025390625-.22265625-.8359375-.42578125-.232421875-.2021484375-.3798828125-.5166015625-.4404296875-.9423828125-.041015625-.22265625-.06640625-.658203125-.076171875-1.306640625s.0048828125-1.4287109375.0458984375-2.33984375c.0400390625-.931640625.0908203125-1.9501953125.15234375-3.0546875.060546875-1.103515625.12109375-2.212890625.181640625-3.3271484375.0205078125-.041015625.0302734375-.1015625.0302734375-.1826171875-.12109375-.0205078125-.2685546875-.060546875-.4404296875-.1220703125-.171875-.060546875-.400390625-.181640625-.68359375-.3642578125-.3037109375-.2021484375-.61328125-.41015625-.9267578125-.623046875-.314453125-.212890625-.59765625-.4306640625-.8515625-.6533203125-.2529296875-.22265625-.4501953125-.435546875-.591796875-.638671875-.142578125-.2021484375-.1826171875-.39453125-.1220703125-.5771484375s.333984375-.5869140625.8203125-1.2158203125c.22265625-.283203125.4658203125-.607421875.7294921875-.97265625.263671875-.3642578125.537109375-.7392578125.8203125-1.1240234375.2841796875-.3642578125.5419921875-.71875.775390625-1.0634765625.232421875-.3447265625.4501953125-.658203125.6533203125-.9423828125.22265625-.32421875.435546875-.6376953125.638671875-.9423828125.080078125-.1611328125.349609375-.2578125.8046875-.2880859375.4560546875-.0302734375.9423828125,0,1.458984375.0908203125s.9873046875.2333984375,1.4130859375.42578125.658203125.4208984375.69921875.68359375Z" style="fill: none; stroke: #181818; stroke-width: 5.631003379821777px;"/>
        <path d="M492.1083984375,136.399414062487267c-.486328125,6.1591796875-.69921875,12.3486328125-.638671875,18.568359375-.0205078125.2236328125-.0810546875.42578125-.181640625.6083984375-.1015625.162109375-.25390625.318359375-.4560546875.470703125-.203125.15234375-.4765625.248046875-.8203125.2890625-.365234375.0400390625-.7353515625.0654296875-1.109375.076171875-.375.009765625-.724609375-.0263671875-1.048828125-.1064453125-.32421875-.08203125-.6025390625-.22265625-.8359375-.42578125-.232421875-.2021484375-.3798828125-.5166015625-.4404296875-.9423828125-.041015625-.22265625-.06640625-.658203125-.076171875-1.306640625s.0048828125-1.4287109375.0458984375-2.33984375c.0400390625-.931640625.0908203125-1.9501953125.15234375-3.0546875.060546875-1.103515625.12109375-2.212890625.181640625-3.3271484375.0205078125-.041015625.0302734375-.1015625.0302734375-.1826171875-.12109375-.0205078125-.2685546875-.060546875-.4404296875-.1220703125-.171875-.060546875-.400390625-.181640625-.68359375-.3642578125-.3037109375-.2021484375-.61328125-.41015625-.9267578125-.623046875-.314453125-.212890625-.59765625-.4306640625-.8515625-.6533203125-.2529296875-.22265625-.4501953125-.435546875-.591796875-.638671875-.142578125-.2021484375-.1826171875-.39453125-.1220703125-.5771484375s.333984375-.5869140625.8203125-1.2158203125c.22265625-.283203125.4658203125-.607421875.7294921875-.97265625.263671875-.3642578125.537109375-.7392578125.8203125-1.1240234375.2841796875-.3642578125.5419921875-.71875.775390625-1.0634765625.232421875-.3447265625.4501953125-.658203125.6533203125-.9423828125.22265625-.32421875.435546875-.6376953125.638671875-.9423828125.080078125-.1611328125.349609375-.2578125.8046875-.2880859375.4560546875-.0302734375.9423828125,0,1.458984375.0908203125s.9873046875.2333984375,1.4130859375.42578125.658203125.4208984375.69921875.68359375Z" style="fill: #231f20; stroke-width: 0px;"/>
        <path d="M492.1083984375,136.399414062487267c-.486328125,6.1591796875-.69921875,12.3486328125-.638671875,18.568359375-.0205078125.2236328125-.0810546875.42578125-.181640625.6083984375-.1015625.162109375-.25390625.318359375-.4560546875.470703125-.203125.15234375-.4765625.248046875-.8203125.2890625-.365234375.0400390625-.7353515625.0654296875-1.109375.076171875-.375.009765625-.724609375-.0263671875-1.048828125-.1064453125-.32421875-.08203125-.6025390625-.22265625-.8359375-.42578125-.232421875-.2021484375-.3798828125-.5166015625-.4404296875-.9423828125-.041015625-.22265625-.06640625-.658203125-.076171875-1.306640625s.0048828125-1.4287109375.0458984375-2.33984375c.0400390625-.931640625.0908203125-1.9501953125.15234375-3.0546875.060546875-1.103515625.12109375-2.212890625.181640625-3.3271484375.0205078125-.041015625.0302734375-.1015625.0302734375-.1826171875-.12109375-.0205078125-.2685546875-.060546875-.4404296875-.1220703125-.171875-.060546875-.400390625-.181640625-.68359375-.3642578125-.3037109375-.2021484375-.61328125-.41015625-.9267578125-.623046875-.314453125-.212890625-.59765625-.4306640625-.8515625-.6533203125-.2529296875-.22265625-.4501953125-.435546875-.591796875-.638671875-.142578125-.2021484375-.1826171875-.39453125-.1220703125-.5771484375s.333984375-.5869140625.8203125-1.2158203125c.22265625-.283203125.4658203125-.607421875.7294921875-.97265625.263671875-.3642578125.537109375-.7392578125.8203125-1.1240234375.2841796875-.3642578125.5419921875-.71875.775390625-1.0634765625.232421875-.3447265625.4501953125-.658203125.6533203125-.9423828125.22265625-.32421875.435546875-.6376953125.638671875-.9423828125.080078125-.1611328125.349609375-.2578125.8046875-.2880859375.4560546875-.0302734375.9423828125,0,1.458984375.0908203125s.9873046875.2333984375,1.4130859375.42578125.658203125.4208984375.69921875.68359375Z" style="fill: #e2dddb; stroke-width: 0px;"/>
      </g>
    </g>
  </g>
</svg>