<?xml version="1.0" encoding="UTF-8"?>
<svg id="Layer_1" data-name="Layer 1" xmlns="http://www.w3.org/2000/svg" width="600" height="599.999999999998181" xmlns:xlink="http://www.w3.org/1999/xlink" viewBox="0 0 600 599.999999999998181">
  <defs>
    <linearGradient id="A5-2" data-name="A5" x1="264.858071889815619" y1="400.707829954497356" x2="338.346399509861783" y2="289.790664664629162" gradientUnits="userSpaceOnUse">
      <stop offset="0" stop-color="#8e5ba6"/>
      <stop offset=".438390020007055" stop-color="#a25d99"/>
      <stop offset="1" stop-color="#b6608e"/>
    </linearGradient>
  </defs>
  <g id="pie_with_links_-5" data-name="pie (with links)">
    <g id="pie_with_links_-6" data-name="pie (with links)">
      <a xlink:href="https://www.notion.so/dmmnotes/A5-8e85f49046ef412aa229745abf7d38d3?pvs=4#cc754bc8687c4e66850f6931f541d7fa">
        <g id="A5">
          <g>
            <path d="M299.99365234375,414.706054687487267c-17.46484375,0-34.00341796875-6.68310546875-46.56982421875-18.81787109375-26.59423828125-25.68212890625-27.3369140625-68.21240234375-1.65478515625-94.80712890625,12.7490234375-13.2021484375,29.8798828125-20.47265625,48.2373046875-20.47265625,17.46484375,0,34.00341796875,6.68310546875,46.56982421875,18.818359375,12.8828125,12.4404296875,20.14990234375,29.15380859375,20.46240234375,47.060546875.3125,17.90625-6.3671875,34.86328125-18.80810546875,47.74609375-12.7490234375,13.2021484375-29.8798828125,20.47265625-48.23681640625,20.47265625Z" style="fill: url(#A5-2); stroke-width: 0px;"/>
            <path d="M300.00634765625,289.10859680174508c14.642211914059772-.000526428222656,29.30029296875,5.457656860351562,40.664916992190228,16.432373046875,23.26025390625,22.462173461914062,23.9072265625,59.5274658203125,1.445068359369543,82.787765502930597-11.487426757809772,11.895599365233466-26.79638671875,17.877410888670966-42.122802734369543,17.877410888670966-14.642333984380457,0-29.30029296875-5.4576416015625-40.664916992190228-16.432357788085938-23.26025390625-22.462173461914062-23.9072265625-59.52752685546875-1.445068359380457-82.787765502929688,11.487426757820685-11.8956298828125,26.79638671875-17.876876831054688,42.122802734380457-17.877426147460938M300.008422851559772,272.108612060534142v17l-.00048828125-17h-.002197265619543c-20.684204101570685.000709533691406-39.986328125,8.19317626953125-54.350952148440228,23.0682373046875-28.937866210940228,29.966064453125-28.101318359380457,77.8878173828125,1.864624023440228,106.825698852539062,14.1591796875,13.673355102539972,32.794799804679315,21.203598022460938,52.47412109375,21.203598022460938,20.683715820309772,0,39.986206054679315-8.192474365234375,54.3515625-23.06817626953125,28.937866210929315-29.9661865234375,28.101318359369543-77.88800048828125-1.864624023440228-106.825767517089844-14.1591796875-13.673355102539062-32.794067382809772-21.203590393066406-52.472045898440228-21.203590393066406h0Z" style="fill: #181818; stroke-width: 0px;"/>
          </g>
          <a xlink:href="https://www.notion.so/dmmnotes/A5-8e85f49046ef412aa229745abf7d38d3?pvs=4#cc754bc8687c4e66850f6931f541d7fa">
            <g>
              <g>
                <path d="M278.8056640625,213.103515624987267c3.9765625,2.302734375,7.37890625,5.12890625,10.205078125,8.4775390625,2.826171875,3.3515625,5.2060546875,7.013671875,7.1435546875,10.990234375,1.935546875,3.978515625,3.478515625,8.1904296875,4.6318359375,12.638671875,1.150390625,4.44921875,2.041015625,8.923828125,2.6689453125,13.4228515625,1.4638671875,8.8974609375,2.30078125,17.8984375,2.51171875,27.00390625.208984375,9.1064453125.0517578125,18.2666015625-.470703125,27.4755859375-.2109375,2.6171875-.419921875,4.763671875-.6279296875,6.4365234375-.2109375,1.67578125-.603515625,3.037109375-1.177734375,4.08203125-.576171875,1.0478515625-1.388671875,1.884765625-2.43359375,2.5126953125-1.0478515625.6279296875-2.51171875,1.2021484375-4.3955078125,1.7265625-1.78125.208984375-3.638671875.365234375-5.57421875.470703125-1.9375.103515625-3.7431640625-.4189453125-5.416015625-1.5693359375-1.5703125-1.044921875-2.8798828125-2.826171875-3.9248046875-5.337890625-1.0478515625-2.5126953125-1.6240234375-6.123046875-1.7275390625-10.8330078125v-1.5703125c-2.6171875-.314453125-5.73046875-.57421875-9.341796875-.78515625-3.6103515625-.2080078125-7.2998046875-.3388671875-11.068359375-.392578125-3.767578125-.0517578125-7.4052734375-.078125-10.9111328125-.078125h-8.8701171875c-.10546875.94140625-.236328125,2.51171875-.392578125,4.7099609375-.1572265625,2.1982421875-.498046875,4.3955078125-1.0205078125,6.59375-.525390625,2.1982421875-1.2314453125,4.1875-2.1201171875,5.9658203125-.890625,1.78125-2.119140625,2.720703125-3.689453125,2.826171875-1.466796875.103515625-3.1396484375.208984375-5.0234375.314453125-1.884765625.1025390625-3.716796875-.10546875-5.4951171875-.6279296875-1.78125-.41796875-3.2724609375-1.2568359375-4.474609375-2.5126953125-1.205078125-1.255859375-1.859375-3.2431640625-1.962890625-5.9658203125,0-3.2431640625.0517578125-6.958984375.1572265625-11.146484375.103515625-4.185546875.314453125-8.73828125.6279296875-13.6591796875.208984375-4.08203125.5498046875-8.556640625,1.0205078125-13.423828125s1.150390625-9.8642578125,2.041015625-14.9931640625c.8876953125-5.126953125,2.041015625-10.2568359375,3.4541015625-15.38671875,1.4130859375-5.126953125,3.19140625-9.9931640625,5.337890625-14.6005859375,2.14453125-4.6044921875,4.68359375-8.84375,7.6142578125-12.716796875,2.9296875-3.87109375,6.4375-7.1162109375,10.51953125-9.734375,4.8125-3.0341796875,10.099609375-4.552734375,15.8564453125-4.552734375,5.755859375,0,11.19921875,1.4130859375,16.328125,4.2392578125ZM240.6552734375,284.538085937487267c6.59375-.5224609375,13.16015625-.9150390625,19.703125-1.177734375,6.5400390625-.259765625,13.109375-.287109375,19.703125-.078125.314453125-7.4306640625,0-14.076171875-.94140625-19.939453125-.9423828125-5.8603515625-2.251953125-10.8056640625-3.9248046875-14.8359375-1.67578125-4.0283203125-3.6650390625-7.1162109375-5.966796875-9.2626953125-2.302734375-2.14453125-4.658203125-3.21875-7.064453125-3.21875-2.0947265625,0-4.2666015625,1.07421875-6.515625,3.21875-2.251953125,2.146484375-4.3447265625,5.2861328125-6.2802734375,9.419921875-1.9375,4.1357421875-3.689453125,9.23828125-5.2587890625,15.306640625-1.5703125,6.072265625-2.7236328125,12.9287109375-3.4541015625,20.5673828125Z" style="fill: none; stroke: #181818; stroke-linecap: round; stroke-linejoin: round; stroke-width: 33px;"/>
                <path d="M374.103515625,265.227539062487267c3.2431640625,4.3955078125,5.44140625,9.2109375,6.59375,14.443359375,1.1513671875,5.2353515625,1.28125,10.4404296875.392578125,15.6220703125-.890625,5.1806640625-2.6689453125,10.1533203125-5.337890625,14.9150390625-2.6689453125,4.763671875-6.201171875,8.767578125-10.59765625,12.009765625-5.9658203125,4.396484375-12.037109375,6.830078125-18.2119140625,7.30078125-6.1767578125.470703125-12.037109375-.8115234375-17.583984375-3.8466796875-3.6650390625-1.8837890625-6.8046875-4.2900390625-9.419921875-7.2216796875-2.6171875-2.9287109375-4.0302734375-6.59375-4.2392578125-10.990234375-.10546875-2.40625.392578125-4.7099609375,1.4921875-6.908203125,1.0986328125-2.197265625,2.5361328125-3.9248046875,4.3173828125-5.1806640625,1.7783203125-1.255859375,3.7138671875-1.8564453125,5.80859375-1.8056640625,2.0927734375.0546875,4.1337890625,1.1259765625,6.123046875,3.21875,1.46484375,1.8837890625,3.3486328125,3.5322265625,5.65234375,4.9453125,2.30078125,1.4130859375,4.8125,1.859375,7.5361328125,1.3349609375,5.232421875-.8369140625,8.73828125-4.4482421875,10.5185546875-10.8330078125.4169921875-1.7783203125.57421875-3.6357421875.4716796875-5.57421875-.10546875-1.9345703125-.498046875-3.740234375-1.177734375-5.416015625-.6826171875-1.6728515625-1.703125-3.1650390625-3.0615234375-4.474609375-1.361328125-1.3076171875-3.140625-2.22265625-5.337890625-2.7470703125-3.037109375-.8369140625-6.2802734375-1.1240234375-9.734375-.8642578125-3.4541015625.2626953125-6.4912109375.8125-9.10546875,1.6484375-.9423828125.2119140625-2.43359375.2626953125-4.474609375.1572265625-2.041015625-.1025390625-3.638671875-.1572265625-4.7890625-.1572265625-1.255859375-.1025390625-2.330078125-.73046875-3.21875-1.8837890625-.8896484375-1.150390625-1.5693359375-2.51171875-2.041015625-4.08203125-.470703125-1.5693359375-.759765625-3.1396484375-.86328125-4.7099609375-.10546875-1.5693359375.0517578125-2.9287109375.4716796875-4.08203125.3134765625-1.044921875.548828125-3.0615234375.7060546875-6.0439453125.1572265625-2.9833984375.287109375-6.33203125.392578125-10.0478515625.1025390625-3.71484375.181640625-7.4580078125.2353515625-11.2255859375.0517578125-3.7685546875.1298828125-6.908203125.2353515625-9.419921875.103515625-1.9873046875.392578125-3.3486328125.86328125-4.08203125.4716796875-.7314453125,1.177734375-1.1513671875,2.1201171875-1.2568359375.94140625-.1025390625,2.0927734375-.0244140625,3.4541015625.236328125,1.3583984375.26171875,2.9287109375.4462890625,4.7099609375.548828125,7.2216796875.525390625,14.46875.890625,21.744140625,1.099609375,7.2734375.2109375,14.7314453125.10546875,22.373046875-.314453125,1.255859375-.1025390625,2.37890625-.1025390625,3.375,0,.9931640625.10546875,1.7001953125.2626953125,2.119140625.470703125.5234375.314453125,1.0205078125.8125,1.4921875,1.4921875.470703125.681640625.8095703125,1.75390625,1.0205078125,3.2177734375.2080078125,1.884765625.287109375,3.92578125.2353515625,6.123046875-.0537109375,2.1982421875-.2900390625,4.2666015625-.70703125,6.2021484375-.4189453125,1.9375-1.046875,3.6376953125-1.8837890625,5.1025390625-.8388671875,1.466796875-1.8837890625,2.3544921875-3.1396484375,2.6689453125-.6279296875.2109375-1.9384765625.3408203125-3.9248046875.392578125-1.990234375.0537109375-4.396484375.0263671875-7.22265625-.0791015625-10.0478515625-.3134765625-20.095703125-1.255859375-30.1435546875-2.8251953125v9.576171875c8.7919921875-1.4638671875,16.8232421875-1.044921875,24.099609375,1.2568359375,7.2734375,2.302734375,13.1611328125,6.3330078125,17.662109375,12.0888671875Z" style="fill: none; stroke: #181818; stroke-linecap: round; stroke-linejoin: round; stroke-width: 33px;"/>
              </g>
              <g>
                <path d="M278.8056640625,213.103515624987267c3.9765625,2.302734375,7.37890625,5.12890625,10.205078125,8.4775390625,2.826171875,3.3515625,5.2060546875,7.013671875,7.1435546875,10.990234375,1.935546875,3.978515625,3.478515625,8.1904296875,4.6318359375,12.638671875,1.150390625,4.44921875,2.041015625,8.923828125,2.6689453125,13.4228515625,1.4638671875,8.8974609375,2.30078125,17.8984375,2.51171875,27.00390625.208984375,9.1064453125.0517578125,18.2666015625-.470703125,27.4755859375-.2109375,2.6171875-.419921875,4.763671875-.6279296875,6.4365234375-.2109375,1.67578125-.603515625,3.037109375-1.177734375,4.08203125-.576171875,1.0478515625-1.388671875,1.884765625-2.43359375,2.5126953125-1.0478515625.6279296875-2.51171875,1.2021484375-4.3955078125,1.7265625-1.78125.208984375-3.638671875.365234375-5.57421875.470703125-1.9375.103515625-3.7431640625-.4189453125-5.416015625-1.5693359375-1.5703125-1.044921875-2.8798828125-2.826171875-3.9248046875-5.337890625-1.0478515625-2.5126953125-1.6240234375-6.123046875-1.7275390625-10.8330078125v-1.5703125c-2.6171875-.314453125-5.73046875-.57421875-9.341796875-.78515625-3.6103515625-.2080078125-7.2998046875-.3388671875-11.068359375-.392578125-3.767578125-.0517578125-7.4052734375-.078125-10.9111328125-.078125h-8.8701171875c-.10546875.94140625-.236328125,2.51171875-.392578125,4.7099609375-.1572265625,2.1982421875-.498046875,4.3955078125-1.0205078125,6.59375-.525390625,2.1982421875-1.2314453125,4.1875-2.1201171875,5.9658203125-.890625,1.78125-2.119140625,2.720703125-3.689453125,2.826171875-1.466796875.103515625-3.1396484375.208984375-5.0234375.314453125-1.884765625.1025390625-3.716796875-.10546875-5.4951171875-.6279296875-1.78125-.41796875-3.2724609375-1.2568359375-4.474609375-2.5126953125-1.205078125-1.255859375-1.859375-3.2431640625-1.962890625-5.9658203125,0-3.2431640625.0517578125-6.958984375.1572265625-11.146484375.103515625-4.185546875.314453125-8.73828125.6279296875-13.6591796875.208984375-4.08203125.5498046875-8.556640625,1.0205078125-13.423828125s1.150390625-9.8642578125,2.041015625-14.9931640625c.8876953125-5.126953125,2.041015625-10.2568359375,3.4541015625-15.38671875,1.4130859375-5.126953125,3.19140625-9.9931640625,5.337890625-14.6005859375,2.14453125-4.6044921875,4.68359375-8.84375,7.6142578125-12.716796875,2.9296875-3.87109375,6.4375-7.1162109375,10.51953125-9.734375,4.8125-3.0341796875,10.099609375-4.552734375,15.8564453125-4.552734375,5.755859375,0,11.19921875,1.4130859375,16.328125,4.2392578125ZM240.6552734375,284.538085937487267c6.59375-.5224609375,13.16015625-.9150390625,19.703125-1.177734375,6.5400390625-.259765625,13.109375-.287109375,19.703125-.078125.314453125-7.4306640625,0-14.076171875-.94140625-19.939453125-.9423828125-5.8603515625-2.251953125-10.8056640625-3.9248046875-14.8359375-1.67578125-4.0283203125-3.6650390625-7.1162109375-5.966796875-9.2626953125-2.302734375-2.14453125-4.658203125-3.21875-7.064453125-3.21875-2.0947265625,0-4.2666015625,1.07421875-6.515625,3.21875-2.251953125,2.146484375-4.3447265625,5.2861328125-6.2802734375,9.419921875-1.9375,4.1357421875-3.689453125,9.23828125-5.2587890625,15.306640625-1.5703125,6.072265625-2.7236328125,12.9287109375-3.4541015625,20.5673828125Z" style="fill: #e2dddb; stroke-width: 0px;"/>
                <path d="M374.103515625,265.227539062487267c3.2431640625,4.3955078125,5.44140625,9.2109375,6.59375,14.443359375,1.1513671875,5.2353515625,1.28125,10.4404296875.392578125,15.6220703125-.890625,5.1806640625-2.6689453125,10.1533203125-5.337890625,14.9150390625-2.6689453125,4.763671875-6.201171875,8.767578125-10.59765625,12.009765625-5.9658203125,4.396484375-12.037109375,6.830078125-18.2119140625,7.30078125-6.1767578125.470703125-12.037109375-.8115234375-17.583984375-3.8466796875-3.6650390625-1.8837890625-6.8046875-4.2900390625-9.419921875-7.2216796875-2.6171875-2.9287109375-4.0302734375-6.59375-4.2392578125-10.990234375-.10546875-2.40625.392578125-4.7099609375,1.4921875-6.908203125,1.0986328125-2.197265625,2.5361328125-3.9248046875,4.3173828125-5.1806640625,1.7783203125-1.255859375,3.7138671875-1.8564453125,5.80859375-1.8056640625,2.0927734375.0546875,4.1337890625,1.1259765625,6.123046875,3.21875,1.46484375,1.8837890625,3.3486328125,3.5322265625,5.65234375,4.9453125,2.30078125,1.4130859375,4.8125,1.859375,7.5361328125,1.3349609375,5.232421875-.8369140625,8.73828125-4.4482421875,10.5185546875-10.8330078125.4169921875-1.7783203125.57421875-3.6357421875.4716796875-5.57421875-.10546875-1.9345703125-.498046875-3.740234375-1.177734375-5.416015625-.6826171875-1.6728515625-1.703125-3.1650390625-3.0615234375-4.474609375-1.361328125-1.3076171875-3.140625-2.22265625-5.337890625-2.7470703125-3.037109375-.8369140625-6.2802734375-1.1240234375-9.734375-.8642578125-3.4541015625.2626953125-6.4912109375.8125-9.10546875,1.6484375-.9423828125.2119140625-2.43359375.2626953125-4.474609375.1572265625-2.041015625-.1025390625-3.638671875-.1572265625-4.7890625-.1572265625-1.255859375-.1025390625-2.330078125-.73046875-3.21875-1.8837890625-.8896484375-1.150390625-1.5693359375-2.51171875-2.041015625-4.08203125-.470703125-1.5693359375-.759765625-3.1396484375-.86328125-4.7099609375-.10546875-1.5693359375.0517578125-2.9287109375.4716796875-4.08203125.3134765625-1.044921875.548828125-3.0615234375.7060546875-6.0439453125.1572265625-2.9833984375.287109375-6.33203125.392578125-10.0478515625.1025390625-3.71484375.181640625-7.4580078125.2353515625-11.2255859375.0517578125-3.7685546875.1298828125-6.908203125.2353515625-9.419921875.103515625-1.9873046875.392578125-3.3486328125.86328125-4.08203125.4716796875-.7314453125,1.177734375-1.1513671875,2.1201171875-1.2568359375.94140625-.1025390625,2.0927734375-.0244140625,3.4541015625.236328125,1.3583984375.26171875,2.9287109375.4462890625,4.7099609375.548828125,7.2216796875.525390625,14.46875.890625,21.744140625,1.099609375,7.2734375.2109375,14.7314453125.10546875,22.373046875-.314453125,1.255859375-.1025390625,2.37890625-.1025390625,3.375,0,.9931640625.10546875,1.7001953125.2626953125,2.119140625.470703125.5234375.314453125,1.0205078125.8125,1.4921875,1.4921875.470703125.681640625.8095703125,1.75390625,1.0205078125,3.2177734375.2080078125,1.884765625.287109375,3.92578125.2353515625,6.123046875-.0537109375,2.1982421875-.2900390625,4.2666015625-.70703125,6.2021484375-.4189453125,1.9375-1.046875,3.6376953125-1.8837890625,5.1025390625-.8388671875,1.466796875-1.8837890625,2.3544921875-3.1396484375,2.6689453125-.6279296875.2109375-1.9384765625.3408203125-3.9248046875.392578125-1.990234375.0537109375-4.396484375.0263671875-7.22265625-.0791015625-10.0478515625-.3134765625-20.095703125-1.255859375-30.1435546875-2.8251953125v9.576171875c8.7919921875-1.4638671875,16.8232421875-1.044921875,24.099609375,1.2568359375,7.2734375,2.302734375,13.1611328125,6.3330078125,17.662109375,12.0888671875Z" style="fill: #e2dddb; stroke-width: 0px;"/>
              </g>
            </g>
          </a>
        </g>
      </a>
      <g id="Pie">
        <g>
          <a xlink:href="https://www.notion.so/dmmnotes/paranoid-ae38b1e6af0c4dd08f61e0d8f6e9f05f?pvs=4">
            <path id="C8" d="M331.308105468760914,517.749511718749091l7.825683593739086,54.4306640625c26.439208984369543-3.767822265628638,51.645751953139552-11.3115234375,75.101318359369543-22.04296875l-22.832519531239086-49.996826171878638c-18.7666015625,8.572265625-38.93505859375,14.601318359378638-60.094482421869543,17.609130859378638Z" style="fill: none; stroke: #181818; stroke-linecap: round; stroke-linejoin: round; stroke-width: 15px;"/>
          </a>
          <a xlink:href="https://www.notion.so/dmmnotes/menacing-a5bd7149286344deba45ec15e759e579?pvs=4">
            <path id="C7" d="M391.402587890630457,500.140380859370453l22.832519531239086,49.996826171878638c23.989990234391371-10.975830078119543,46.116210937520009-25.287109375010914,65.803955078141371-42.36181640625l-35.972900390630457-41.515869140619543c-15.753417968760914,13.65869140625-33.459228515630457,25.104492187490905-52.66357421875,33.880859374990905Z" style="fill: none; stroke: #181818; stroke-linecap: round; stroke-linejoin: round; stroke-width: 15px;"/>
          </a>
          <a xlink:href="https://www.notion.so/dmmnotes/seductively-obsessed-with-rescue-6fb5a68f6d334bc29ccccc16d8a4e56e?pvs=4">
            <path id="C6" d="M444.066162109380457,466.259521484379547l35.972900390630457,41.515869140619543c19.762939453119543-17.141845703128638,37.047119140619543-37.041748046878638,51.26708984375-59.125l-46.223632812510914-29.704833984369543c-11.373291015619543,17.673583984369543-25.201171874989086,33.598876953119543-41.016357421869543,47.31396484375Z" style="fill: none; stroke: #181818; stroke-linecap: round; stroke-linejoin: round; stroke-width: 15px;"/>
          </a>
          <a xlink:href="https://www.notion.so/dmmnotes/punitively-obsessed-with-revenge-33d2e77f37774316b42bccf4a60f9688?pvs=4">
            <path id="C5" d="M485.08251953125,418.945556640629547l46.223632812510914,29.704833984369543c14.048095703128638-21.809326171880457,25.08837890625-45.71875,32.551513671869543-71.175048828130457l-52.7548828125-15.490234375c-5.9619140625,20.377929687510914-14.789306640619543,39.509765625-26.020263671880457,56.960449218760914Z" style="fill: none; stroke: #181818; stroke-linecap: round; stroke-linejoin: round; stroke-width: 15px;"/>
          </a>
          <a xlink:href="https://www.notion.so/dmmnotes/feigned-helpless-e79a94b0498c4e109a681b7f3dcdb088?pvs=4">
            <path id="C4" d="M520,299.999999999999091c0,21.5380859375-3.142089843739086,42.321533203119543-8.897216796869543,61.985107421869543l52.7548828125,15.490234375c7.2080078125-24.583496093739086,11.142333984369543-50.5634765625,11.142333984369543-77.475341796869543h-55Z" style="fill: none; stroke: #181818; stroke-linecap: round; stroke-linejoin: round; stroke-width: 15px;"/>
          </a>
          <a xlink:href="https://www.notion.so/dmmnotes/aggressive-2d8ccce383534b9dbfc7b4b10b8a5d5c?pvs=4">
            <path id="C3" d="M520,299.999999999999091h55c0-26.911865234389552-3.934326171869543-52.894531250010914-11.142333984369543-77.475341796889552l-52.7548828125,15.490234375c5.755126953130457,19.663574218759095,8.897216796869543,40.449707031259095,8.897216796869543,61.985107421889552Z" style="fill: none; stroke: #181818; stroke-linecap: round; stroke-linejoin: round; stroke-width: 15px;"/>
          </a>
          <a xlink:href="https://www.notion.so/dmmnotes/disarming-086276e599884c86b9359acf831a8b20?pvs=4">
            <path id="C2" d="M511.102783203130457,238.014892578109539l52.7548828125-15.490234375c-7.463134765619543-25.456298828121362-18.503417968740905-49.365722656240905-32.551513671869543-71.177734374990905l-46.223632812510914,29.70751953125c11.230957031260914,17.45068359375,20.055664062510914,36.585205078119543,26.020263671880457,56.960449218740905Z" style="fill: none; stroke: #181818; stroke-linecap: round; stroke-linejoin: round; stroke-width: 15px;"/>
          </a>
          <a xlink:href="https://www.notion.so/dmmnotes/threatening-348fe6a52f7a4fe69f768e98c6586932?pvs=4">
            <path id="C1" d="M485.08251953125,181.054443359368634l46.223632812510914-29.70751953125c-3.273382764720736-5.082861773660625-6.709138808490025-10.050169557309346-10.300126729000112-14.894880224830558-18.7746979552212-25.329514182889397-56.293794455550596-26.537787805429616-76.939827532480194-2.708921059358545l-.00003597290015.000041518558646c15.815185546880457,13.71240234375,29.64306640625,29.637695312510914,41.016357421869543,47.311279296880457Z" style="fill: none; stroke: #181818; stroke-linecap: round; stroke-linejoin: round; stroke-width: 15px;"/>
          </a>
          <a xlink:href="https://www.notion.so/dmmnotes/complaining-acceptance-8b40401a720c493ba73f7cde1567cf3d?pvs=4">
            <path id="B5" d="M444.066162109380457,133.743164062488177l.00003597290015-.000041518558646c20.654922513649581-23.839126791601302,14.125719583838872-60.826671837301546-13.629725214659629-75.812167347630748-5.297847529700448-2.860371035199933-10.700612091030052-5.552089440430791-16.201365445751435-8.068162227549692l-22.832519531239086,49.99951171875c19.204345703119543,8.773681640619543,36.910156249989086,20.22216796875,52.66357421875,33.880859374989086Z" style="fill: none; stroke: #181818; stroke-linecap: round; stroke-linejoin: round; stroke-width: 15px;"/>
          </a>
          <a xlink:href="https://www.notion.so/dmmnotes/sentimental-bc554363322342b1b7ca4ccc02125049?pvs=4">
            <path id="B4" d="M391.402587890630457,99.862304687499091l22.832519531239086-49.99951171875c-23.455566406229991-10.7314453125-48.662109375-18.275146484389552-75.101318359369543-22.042968749990905l-7.825683593739086,54.433349609360448c21.159423828119543,3.0078125,41.327880859369543,9.034179687490905,60.094482421869543,17.609130859380457Z" style="fill: none; stroke: #181818; stroke-linecap: round; stroke-linejoin: round; stroke-width: 15px;"/>
          </a>
          <a xlink:href="https://www.notion.so/dmmnotes/comfortably-balanced-e76dc615a8b947aa915377cd02fcf716?pvs=4">
            <path id="B3" d="M300,79.999999999999091c10.634765625,0,21.078857421869543.797607421869543,31.308105468760914,2.253173828119543l7.825683593739086-54.433349609360448c-12.788574218739086-1.823486328139552-25.843017578130457-2.819824218759095-39.1337890625-2.819824218759095s-26.34521484375.996337890619543-39.133789062489086,2.819824218759095l7.825683593739086,54.433349609360448c10.23193359375-1.45556640625,20.67333984375-2.253173828119543,31.30810546875-2.253173828119543Z" style="fill: none; stroke: #181818; stroke-linecap: round; stroke-linejoin: round; stroke-width: 15px;"/>
          </a>
          <a xlink:href="https://www.notion.so/dmmnotes/accepting-317d81273fff4cd9817cdf4a88efd378?pvs=4">
            <path id="B2" d="M268.69189453125,82.253173828118634l-7.825683593739086-54.433349609360448c-26.439208984391371,3.767822265601353-51.643066406260914,11.311523437490905-75.098632812510914,22.042968749990905l22.83251953125,49.99951171875c18.7666015625-8.574951171889552,38.93505859375-14.601318359380457,60.091796875-17.609130859380457Z" style="fill: none; stroke: #181818; stroke-linecap: round; stroke-linejoin: round; stroke-width: 15px;"/>
          </a>
          <a xlink:href="https://www.notion.so/dmmnotes/distanced-from-past-2eabab7e9c77429f8e577f4e3e203653?pvs=4">
            <path id="B1" d="M208.60009765625,99.862304687499091l-22.83251953125-49.99951171875c-5.501476919680499,2.516122083479786-10.904678806709853,5.207896667829118-16.20277414614975,8.068330353889905-27.754772116430104,14.984759620980185-34.283385893750165,51.971559756599163-13.6283165142504,75.809313677109458l.00003597290015.00004151587018c15.75341796875-13.658691406259095,33.4619140625-25.1044921875,52.66357421875-33.878173828119543Z" style="fill: none; stroke: #181818; stroke-linecap: round; stroke-linejoin: round; stroke-width: 15px;"/>
          </a>
          <a xlink:href="https://www.notion.so/dmmnotes/idealising-a52277f51ed14a42aae78081bb34b8be?pvs=4">
            <path id="A1" d="M155.9365234375,133.740478515618634l-.00003597290015-.00004151587018c-20.647012023619027-23.828455119089995-58.166100839880528-22.619561246779995-76.941289455078731,2.709999997550767-3.591451962291103,4.845219097369409-7.02760574713102,9.813063194989809-10.301350353271118,14.896486830819413l46.226318359369543,29.70751953125c11.373291015641371-17.673583984369543,25.201171875010914-33.598876953130457,41.016357421880457-47.31396484375Z" style="fill: none; stroke: #181818; stroke-linecap: round; stroke-linejoin: round; stroke-width: 15px;"/>
          </a>
          <a xlink:href="https://www.notion.so/dmmnotes/distancing-9ac690cdca654729a17a5a255944e2d1?pvs=4">
            <path id="A2" d="M114.920166015619543,181.054443359368634l-46.226318359369543-29.70751953125c-14.04541015625,21.81201171875-25.08837890625,45.721435546869543-32.551513671880457,71.177734374990905l52.754882812510914,15.490234375c5.964599609369543-20.375244140621362,14.7919921875-39.509765624990905,26.022949218739086-56.960449218740905Z" style="fill: none; stroke: #181818; stroke-linecap: round; stroke-linejoin: round; stroke-width: 15px;"/>
          </a>
          <a xlink:href="https://www.notion.so/dmmnotes/compulsive-caregiving-9c380c0928294f41ae10764aa0dee886?pvs=4">
            <path id="A3" d="M88.897216796880457,238.014892578109539l-52.754882812510914-15.490234375c-7.205322265619543,24.580810546878638-11.142333984369543,50.5634765625-11.142333984369543,77.475341796889552h55c0-21.535400390630457,3.14208984375-42.321533203130457,8.897216796880457-61.985107421889552Z" style="fill: none; stroke: #181818; stroke-linecap: round; stroke-linejoin: round; stroke-width: 15px;"/>
          </a>
          <a xlink:href="https://www.notion.so/dmmnotes/compulsive-compliance-6d08b7ea9a424ce1a72b9184b7850414?pvs=4">
            <path id="A4" d="M80,299.999999999999091H25c0,26.911865234369543,3.93701171875,52.894531249989086,11.142333984369543,77.475341796869543l52.754882812510914-15.490234375c-5.755126953130457-19.66357421875-8.897216796880457-40.447021484369543-8.897216796880457-61.985107421869543Z" style="fill: none; stroke: #181818; stroke-linecap: round; stroke-linejoin: round; stroke-width: 15px;"/>
          </a>
          <a xlink:href="https://www.notion.so/dmmnotes/compulsive-isolated-self-reliance-b321873a73fa41aaaadd7192fde856a2?pvs=4">
            <path id="A6" d="M114.917480468760914,418.945556640629547l-46.223632812510914,29.704833984369543c14.219970703119543,22.083251953121362,31.504150390630457,41.983154296871362,51.269775390630457,59.125l35.972900390619543-41.515869140619543c-15.815185546869543-13.712402343759095-29.643066406239086-29.637695312509095-41.019042968739086-47.31396484375Z" style="fill: none; stroke: #181818; stroke-linecap: round; stroke-linejoin: round; stroke-width: 15px;"/>
          </a>
          <a xlink:href="https://www.notion.so/dmmnotes/delusional-idealization-743e2420b9994a48a7cab68190432e8a?pvs=4">
            <path id="A7" d="M155.9365234375,466.259521484379547l-35.972900390619543,41.515869140619543c19.687744140619543,17.074707031239086,41.811279296869543,31.385986328130457,65.803955078119543,42.36181640625l22.83251953125-49.996826171878638c-19.20166015625-8.773681640621362-36.91015625-20.222167968740905-52.66357421875-33.880859374990905Z" style="fill: none; stroke: #181818; stroke-linecap: round; stroke-linejoin: round; stroke-width: 15px;"/>
          </a>
          <a xlink:href="https://www.notion.so/dmmnotes/externally-assembled-self-994ecb0895b844409b931d74a045c162?pvs=4">
            <path id="A8" d="M208.60009765625,500.140380859370453l-22.83251953125,49.996826171878638c23.45556640625,10.7314453125,48.659423828119543,18.275146484371362,75.098632812510914,22.04296875l7.825683593739086-54.4306640625c-21.15673828125-3.0078125-41.3251953125-9.0341796875-60.091796875-17.609130859378638Z" style="fill: none; stroke: #181818; stroke-linecap: round; stroke-linejoin: round; stroke-width: 15px;"/>
          </a>
          <a xlink:href="https://www.notion.so/dmmnotes/psychopathy-0fe4a3222d9f4fd097ab4546c9776768?pvs=4">
            <path id="AC" d="M300,519.999999999999091c-10.634765625,0-21.076171875-.794921875-31.30810546875-2.25048828125l-7.825683593739086,54.4306640625c12.788574218739086,1.823486328130457,25.843017578119543,2.81982421875,39.133789062489086,2.81982421875s26.345214843760914-.996337890619543,39.1337890625-2.81982421875l-7.825683593739086-54.4306640625c-10.229248046891371,1.45556640625-20.673339843760914,2.25048828125-31.308105468760914,2.25048828125Z" style="fill: none; stroke: #181818; stroke-linecap: round; stroke-linejoin: round; stroke-width: 15px;"/>
          </a>
          <a xlink:href="https://www.notion.so/dmmnotes/sexual-supplementation-8e85f49046ef412aa229745abf7d38d3?pvs=4">
            <g id="A5-3" data-name="A5">
              <path d="M67.85302734375,449.191894531237267c-14.2841796875-22.18017578125-25.2763671875-46.21435546875-32.67041015625-71.43505859375l-.28125-.958984375,54.6748046875-16.05419921875.28125.9609375c5.861328125,20.02587890625,14.57568359375,39.1025390625,25.90087890625,56.7001953125l.54150390625.84130859375-47.90576171875,30.78564453125-.541015625-.83984375Z" style="fill: none; stroke: #181818; stroke-linecap: round; stroke-linejoin: round; stroke-width: 15px;"/>
              <path d="M88.897216796875,361.985107421862267c5.964599609375,20.3779296875,14.789306640625,39.509765625,26.020263671875,56.96044921875l-46.2236328125,29.704833984375c-14.04541015625-21.809326171875-25.08837890625-45.71875-32.551513671875-71.175048828125l52.7548828125-15.490234375M90.25439453125,359.502166748034142l-1.920654296875.56396484375-52.7548828125,15.490219116210938-1.918212890625.563232421875.5625,1.918411254882812c7.4208984375,25.312271118164062,18.4527587890625,49.434036254882812,32.7891845703125,71.695281982421875l1.0819091796875,1.679840087890625,1.680908203125-1.0802001953125,46.2236328125-29.704833984375,1.68359375-1.08197021484375-1.0831298828125-1.68292236328125c-11.2733154296875-17.516555786132812-19.9478759765625-36.50567626953125-25.7825927734375-56.439895629882812l-.562255859375-1.921127319335938h0Z" style="fill: none; stroke: #181818; stroke-linecap: round; stroke-linejoin: round; stroke-width: 15px;"/>
            </g>
          </a>
        </g>
        <g>
          <a xlink:href="https://www.notion.so/dmmnotes/paranoid-ae38b1e6af0c4dd08f61e0d8f6e9f05f?pvs=4">
            <path id="C8-2" data-name="C8" d="M331.308105468760914,517.749511718749091l7.825683593739086,54.4306640625c26.439208984369543-3.767822265628638,51.645751953139552-11.3115234375,75.101318359369543-22.04296875l-22.832519531239086-49.996826171878638c-18.7666015625,8.572265625-38.93505859375,14.601318359378638-60.094482421869543,17.609130859378638Z" style="fill: #938480; stroke: #181818; stroke-width: 2px;"/>
          </a>
          <a xlink:href="https://www.notion.so/dmmnotes/menacing-a5bd7149286344deba45ec15e759e579?pvs=4">
            <path id="C7-2" data-name="C7" d="M391.402587890630457,500.140380859370453l22.832519531239086,49.996826171878638c23.989990234391371-10.975830078119543,46.116210937520009-25.287109375010914,65.803955078141371-42.36181640625l-35.972900390630457-41.515869140619543c-15.753417968760914,13.65869140625-33.459228515630457,25.104492187490905-52.66357421875,33.880859374990905Z" style="fill: #958682; stroke: #181818; stroke-width: 2px;"/>
          </a>
          <a xlink:href="https://www.notion.so/dmmnotes/seductively-obsessed-with-rescue-6fb5a68f6d334bc29ccccc16d8a4e56e?pvs=4">
            <path id="C6-2" data-name="C6" d="M444.066162109380457,466.259521484379547l35.972900390630457,41.515869140619543c19.762939453119543-17.141845703128638,37.047119140619543-37.041748046878638,51.26708984375-59.125l-46.223632812510914-29.704833984369543c-11.373291015619543,17.673583984369543-25.201171874989086,33.598876953119543-41.016357421869543,47.31396484375Z" style="fill: #988985; stroke: #181818; stroke-width: 2px;"/>
          </a>
          <a xlink:href="https://www.notion.so/dmmnotes/punitively-obsessed-with-revenge-33d2e77f37774316b42bccf4a60f9688?pvs=4">
            <path id="C5-2" data-name="C5" d="M485.08251953125,418.945556640629547l46.223632812510914,29.704833984369543c14.048095703128638-21.809326171880457,25.08837890625-45.71875,32.551513671869543-71.175048828130457l-52.7548828125-15.490234375c-5.9619140625,20.377929687510914-14.789306640619543,39.509765625-26.020263671880457,56.960449218760914Z" style="fill: #9b8d89; stroke: #181818; stroke-width: 2px;"/>
          </a>
          <a xlink:href="https://www.notion.so/dmmnotes/feigned-helpless-e79a94b0498c4e109a681b7f3dcdb088?pvs=4">
            <path id="C4-2" data-name="C4" d="M520,299.999999999999091c0,21.5380859375-3.142089843739086,42.321533203119543-8.897216796869543,61.985107421869543l52.7548828125,15.490234375c7.2080078125-24.583496093739086,11.142333984369543-50.5634765625,11.142333984369543-77.475341796869543h-55Z" style="fill: #a1928f; stroke: #181818; stroke-width: 2px;"/>
          </a>
          <a xlink:href="https://www.notion.so/dmmnotes/aggressive-2d8ccce383534b9dbfc7b4b10b8a5d5c?pvs=4">
            <path id="C3-2" data-name="C3" d="M520,299.999999999999091h55c0-26.911865234389552-3.934326171869543-52.894531250010914-11.142333984369543-77.475341796889552l-52.7548828125,15.490234375c5.755126953130457,19.663574218759095,8.897216796869543,40.449707031259095,8.897216796869543,61.985107421889552Z" style="fill: #9e8f8b; stroke: #181818; stroke-width: 2px;"/>
          </a>
          <a xlink:href="https://www.notion.so/dmmnotes/disarming-086276e599884c86b9359acf831a8b20?pvs=4">
            <path id="C2-2" data-name="C2" d="M511.102783203130457,238.014892578109539l52.7548828125-15.490234375c-7.463134765619543-25.456298828121362-18.503417968740905-49.365722656240905-32.551513671869543-71.177734374990905l-46.223632812510914,29.70751953125c11.230957031260914,17.45068359375,20.055664062510914,36.585205078119543,26.020263671880457,56.960449218740905Z" style="fill: #9b8c88; stroke: #181818; stroke-width: 2px;"/>
          </a>
          <a xlink:href="https://www.notion.so/dmmnotes/threatening-348fe6a52f7a4fe69f768e98c6586932?pvs=4">
            <path id="C1-2" data-name="C1" d="M485.08251953125,181.054443359368634l46.223632812510914-29.70751953125c-3.273382764720736-5.082861773660625-6.709138808490025-10.050169557309346-10.300126729000112-14.894880224830558-18.7746979552212-25.329514182889397-56.293794455550596-26.537787805429616-76.939827532480194-2.708921059358545l-.00003597290015.000041518558646c15.815185546880457,13.71240234375,29.64306640625,29.637695312510914,41.016357421869543,47.311279296880457Z" style="fill: #988985; stroke: #181818; stroke-width: 2px;"/>
          </a>
          <a xlink:href="https://www.notion.so/dmmnotes/complaining-acceptance-8b40401a720c493ba73f7cde1567cf3d?pvs=4">
            <path id="B5-2" data-name="B5" d="M444.066162109380457,133.743164062488177l.00003597290015-.000041518558646c20.654922513649581-23.839126791601302,14.125719583838872-60.826671837301546-13.629725214659629-75.812167347630748-5.297847529700448-2.860371035199933-10.700612091030052-5.552089440430791-16.201365445751435-8.068162227549692l-22.832519531239086,49.99951171875c19.204345703119543,8.773681640619543,36.910156249989086,20.22216796875,52.66357421875,33.880859374989086Z" style="fill: #958682; stroke: #181818; stroke-width: 2px;"/>
          </a>
          <a xlink:href="https://www.notion.so/dmmnotes/sentimental-bc554363322342b1b7ca4ccc02125049?pvs=4">
            <path id="B4-2" data-name="B4" d="M391.402587890630457,99.862304687499091l22.832519531239086-49.99951171875c-23.455566406229991-10.7314453125-48.662109375-18.275146484389552-75.101318359369543-22.042968749990905l-7.825683593739086,54.433349609360448c21.159423828119543,3.0078125,41.327880859369543,9.034179687490905,60.094482421869543,17.609130859380457Z" style="fill: #92837f; stroke: #181818; stroke-width: 2px;"/>
          </a>
          <a xlink:href="https://www.notion.so/dmmnotes/comfortably-balanced-e76dc615a8b947aa915377cd02fcf716?pvs=4">
            <path id="B3-2" data-name="B3" d="M300,79.999999999999091c10.634765625,0,21.078857421869543.797607421869543,31.308105468760914,2.253173828119543l7.825683593739086-54.433349609360448c-12.788574218739086-1.823486328139552-25.843017578130457-2.819824218759095-39.1337890625-2.819824218759095s-26.34521484375.996337890619543-39.133789062489086,2.819824218759095l7.825683593739086,54.433349609360448c10.23193359375-1.45556640625,20.67333984375-2.253173828119543,31.30810546875-2.253173828119543Z" style="fill: #8f807d; stroke: #181818; stroke-width: 2px;"/>
          </a>
          <a xlink:href="https://www.notion.so/dmmnotes/accepting-317d81273fff4cd9817cdf4a88efd378?pvs=4">
            <path id="B2-2" data-name="B2" d="M268.69189453125,82.253173828118634l-7.825683593739086-54.433349609360448c-26.439208984391371,3.767822265601353-51.643066406260914,11.311523437490905-75.098632812510914,22.042968749990905l22.83251953125,49.99951171875c18.7666015625-8.574951171889552,38.93505859375-14.601318359380457,60.091796875-17.609130859380457Z" style="fill: #8c7d7a; stroke: #181818; stroke-width: 2px;"/>
          </a>
          <a xlink:href="https://www.notion.so/dmmnotes/distanced-from-past-2eabab7e9c77429f8e577f4e3e203653?pvs=4">
            <path id="B1-2" data-name="B1" d="M208.60009765625,99.862304687499091l-22.83251953125-49.99951171875c-5.501476919680499,2.516122083479786-10.904678806709853,5.207896667829118-16.20277414614975,8.068330353889905-27.754772116430104,14.984759620980185-34.283385893750165,51.971559756599163-13.6283165142504,75.809313677109458l.00003597290015.00004151587018c15.75341796875-13.658691406259095,33.4619140625-25.1044921875,52.66357421875-33.878173828119543Z" style="fill: #8a7b78; stroke: #181818; stroke-width: 2px;"/>
          </a>
          <a xlink:href="https://www.notion.so/dmmnotes/idealising-a52277f51ed14a42aae78081bb34b8be?pvs=4">
            <path id="A1-2" data-name="A1" d="M155.9365234375,133.740478515618634l-.00003597290015-.00004151587018c-20.647012023619027-23.828455119089995-58.166100839880528-22.619561246779995-76.941289455078731,2.709999997550767-3.591451962291103,4.845219097369409-7.02760574713102,9.813063194989809-10.301350353271118,14.896486830819413l46.226318359369543,29.70751953125c11.373291015641371-17.673583984369543,25.201171875010914-33.598876953130457,41.016357421880457-47.31396484375Z" style="fill: #877875; stroke: #181818; stroke-width: 2px;"/>
          </a>
          <a xlink:href="https://www.notion.so/dmmnotes/distancing-9ac690cdca654729a17a5a255944e2d1?pvs=4">
            <path id="A2-2" data-name="A2" d="M114.920166015619543,181.054443359368634l-46.226318359369543-29.70751953125c-14.04541015625,21.81201171875-25.08837890625,45.721435546869543-32.551513671880457,71.177734374990905l52.754882812510914,15.490234375c5.964599609369543-20.375244140621362,14.7919921875-39.509765624990905,26.022949218739086-56.960449218740905Z" style="fill: #847572; stroke: #181818; stroke-width: 2px;"/>
          </a>
          <a xlink:href="https://www.notion.so/dmmnotes/compulsive-caregiving-9c380c0928294f41ae10764aa0dee886?pvs=4">
            <path id="A3-2" data-name="A3" d="M88.897216796880457,238.014892578109539l-52.754882812510914-15.490234375c-7.205322265619543,24.580810546878638-11.142333984369543,50.5634765625-11.142333984369543,77.475341796889552h55c0-21.535400390630457,3.14208984375-42.321533203130457,8.897216796880457-61.985107421889552Z" style="fill: #827370; stroke: #181818; stroke-width: 2px;"/>
          </a>
          <a xlink:href="https://www.notion.so/dmmnotes/compulsive-compliance-6d08b7ea9a424ce1a72b9184b7850414?pvs=4">
            <path id="A4-2" data-name="A4" d="M80,299.999999999999091H25c0,26.911865234369543,3.93701171875,52.894531249989086,11.142333984369543,77.475341796869543l52.754882812510914-15.490234375c-5.755126953130457-19.66357421875-8.897216796880457-40.447021484369543-8.897216796880457-61.985107421869543Z" style="fill: #80716e; stroke: #181818; stroke-width: 2px;"/>
          </a>
          <a xlink:href="https://www.notion.so/dmmnotes/compulsive-isolated-self-reliance-b321873a73fa41aaaadd7192fde856a2?pvs=4">
            <path id="A6-2" data-name="A6" d="M114.917480468760914,418.945556640629547l-46.223632812510914,29.704833984369543c14.219970703119543,22.083251953121362,31.504150390630457,41.983154296871362,51.269775390630457,59.125l35.972900390619543-41.515869140619543c-15.815185546869543-13.712402343759095-29.643066406239086-29.637695312509095-41.019042968739086-47.31396484375Z" style="fill: #867774; stroke: #181818; stroke-width: 2px;"/>
          </a>
          <a xlink:href="https://www.notion.so/dmmnotes/delusional-idealization-743e2420b9994a48a7cab68190432e8a?pvs=4">
            <path id="A7-2" data-name="A7" d="M155.9365234375,466.259521484379547l-35.972900390619543,41.515869140619543c19.687744140619543,17.074707031239086,41.811279296869543,31.385986328130457,65.803955078119543,42.36181640625l22.83251953125-49.996826171878638c-19.20166015625-8.773681640621362-36.91015625-20.222167968740905-52.66357421875-33.880859374990905Z" style="fill: #8a7b77; stroke: #181818; stroke-width: 2px;"/>
          </a>
          <a xlink:href="https://www.notion.so/dmmnotes/externally-assembled-self-994ecb0895b844409b931d74a045c162?pvs=4">
            <path id="A8-2" data-name="A8" d="M208.60009765625,500.140380859370453l-22.83251953125,49.996826171878638c23.45556640625,10.7314453125,48.659423828119543,18.275146484371362,75.098632812510914,22.04296875l7.825683593739086-54.4306640625c-21.15673828125-3.0078125-41.3251953125-9.0341796875-60.091796875-17.609130859378638Z" style="fill: #8a7b77; stroke: #181818; stroke-width: 2px;"/>
          </a>
          <a xlink:href="https://www.notion.so/dmmnotes/psychopathy-0fe4a3222d9f4fd097ab4546c9776768?pvs=4">
            <path id="AC-2" data-name="AC" d="M300,519.999999999999091c-10.634765625,0-21.076171875-.794921875-31.30810546875-2.25048828125l-7.825683593739086,54.4306640625c12.788574218739086,1.823486328130457,25.843017578119543,2.81982421875,39.133789062489086,2.81982421875s26.345214843760914-.996337890619543,39.1337890625-2.81982421875l-7.825683593739086-54.4306640625c-10.229248046891371,1.45556640625-20.673339843760914,2.25048828125-31.308105468760914,2.25048828125Z" style="fill: #90817d; stroke: #181818; stroke-width: 2px;"/>
          </a>
          <a xlink:href="https://www.notion.so/dmmnotes/sexual-supplementation-8e85f49046ef412aa229745abf7d38d3?pvs=4">
            <g id="A5-4" data-name="A5">
              <path d="M67.85302734375,449.191894531237267c-14.2841796875-22.18017578125-25.2763671875-46.21435546875-32.67041015625-71.43505859375l-.28125-.958984375,54.6748046875-16.05419921875.28125.9609375c5.861328125,20.02587890625,14.57568359375,39.1025390625,25.90087890625,56.7001953125l.54150390625.84130859375-47.90576171875,30.78564453125-.541015625-.83984375Z" style="fill: #a25d99; stroke-width: 0px;"/>
              <path d="M88.897216796875,361.985107421862267c5.964599609375,20.3779296875,14.789306640625,39.509765625,26.020263671875,56.96044921875l-46.2236328125,29.704833984375c-14.04541015625-21.809326171875-25.08837890625-45.71875-32.551513671875-71.175048828125l52.7548828125-15.490234375M90.25439453125,359.502166748034142l-1.920654296875.56396484375-52.7548828125,15.490219116210938-1.918212890625.563232421875.5625,1.918411254882812c7.4208984375,25.312271118164062,18.4527587890625,49.434036254882812,32.7891845703125,71.695281982421875l1.0819091796875,1.679840087890625,1.680908203125-1.0802001953125,46.2236328125-29.704833984375,1.68359375-1.08197021484375-1.0831298828125-1.68292236328125c-11.2733154296875-17.516555786132812-19.9478759765625-36.50567626953125-25.7825927734375-56.439895629882812l-.562255859375-1.921127319335938h0Z" style="fill: #181818; stroke-width: 0px;"/>
            </g>
          </a>
        </g>
      </g>
      <g>
        <path d="M80.58984375,399.909179687487267c.6279296875.85107421875,1.0537109375,1.783203125,1.2763671875,2.7958984375.2236328125,1.013671875.248046875,2.02099609375.076171875,3.02392578125s-.5166015625,1.96533203125-1.033203125,2.88720703125c-.5166015625.92236328125-1.2001953125,1.697265625-2.05078125,2.32470703125-1.1552734375.85107421875-2.330078125,1.322265625-3.525390625,1.4130859375-1.1962890625.09130859375-2.330078125-.15673828125-3.404296875-.744140625-.708984375-.36474609375-1.3173828125-.83056640625-1.8232421875-1.39794921875-.5068359375-.5673828125-.7802734375-1.27685546875-.8203125-2.12744140625-.0205078125-.4658203125.076171875-.91162109375.2880859375-1.33740234375.212890625-.42529296875.4912109375-.759765625.8359375-1.0029296875s.71875-.359375,1.125-.34912109375c.404296875.01025390625.7998046875.2177734375,1.1845703125.62255859375.2841796875.36474609375.6484375.68408203125,1.0947265625.95751953125.4453125.2734375.931640625.35986328125,1.4580078125.25830078125,1.013671875-.162109375,1.69140625-.86083984375,2.0361328125-2.09716796875.0810546875-.34423828125.111328125-.70361328125.091796875-1.07861328125-.0205078125-.37451171875-.0966796875-.72412109375-.228515625-1.04833984375s-.3291015625-.61279296875-.591796875-.8662109375c-.263671875-.25341796875-.6083984375-.43017578125-1.033203125-.53173828125-.587890625-.162109375-1.2158203125-.2177734375-1.884765625-.16748046875-.6689453125.05078125-1.2568359375.1572265625-1.7626953125.3193359375-.1826171875.04052734375-.470703125.05078125-.8662109375.0302734375-.39453125-.02001953125-.7041015625-.0302734375-.9267578125-.0302734375-.2431640625-.02001953125-.451171875-.1416015625-.623046875-.36474609375-.171875-.22265625-.3037109375-.486328125-.39453125-.7900390625-.091796875-.30419921875-.1474609375-.60791015625-.16796875-.91162109375-.0205078125-.30419921875.0107421875-.5673828125.091796875-.79052734375.060546875-.2021484375.1064453125-.59228515625.13671875-1.169921875s.0556640625-1.2255859375.076171875-1.94482421875c.01953125-.71923828125.03515625-1.44384765625.044921875-2.1728515625.009765625-.7294921875.025390625-1.33740234375.0458984375-1.82373046875.01953125-.384765625.076171875-.64794921875.1669921875-.7900390625.0908203125-.1416015625.2275390625-.22265625.41015625-.2431640625.1826171875-.02001953125.4052734375-.0048828125.6689453125.04541015625.2626953125.05078125.56640625.08642578125.9111328125.1064453125,1.3984375.1015625,2.80078125.17236328125,4.2099609375.212890625,1.4072265625.04052734375,2.8505859375.0205078125,4.330078125-.06103515625.2431640625-.02001953125.4609375-.02001953125.6533203125,0,.1923828125.0205078125.3291015625.05078125.41015625.09130859375.1015625.06103515625.1982421875.1572265625.2890625.28857421875.0908203125.13232421875.15625.33984375.197265625.623046875.041015625.36474609375.0556640625.759765625.0458984375,1.185546875-.0107421875.42529296875-.0556640625.82568359375-.13671875,1.2001953125-.0810546875.375-.203125.7041015625-.365234375.98779296875s-.3642578125.4560546875-.607421875.5166015625c-.12109375.041015625-.375.06591796875-.759765625.076171875s-.8505859375.0048828125-1.3974609375-.015625c-1.9453125-.060546875-3.890625-.24267578125-5.8349609375-.546875v1.85400390625c1.701171875-.28369140625,3.255859375-.20263671875,4.6640625.2431640625s2.5478515625,1.22607421875,3.4189453125,2.33984375Z" style="fill: none; stroke: #181818; stroke-width: 5.631003379821777px;"/>
        <path d="M80.58984375,399.909179687487267c.6279296875.85107421875,1.0537109375,1.783203125,1.2763671875,2.7958984375.2236328125,1.013671875.248046875,2.02099609375.076171875,3.02392578125s-.5166015625,1.96533203125-1.033203125,2.88720703125c-.5166015625.92236328125-1.2001953125,1.697265625-2.05078125,2.32470703125-1.1552734375.85107421875-2.330078125,1.322265625-3.525390625,1.4130859375-1.1962890625.09130859375-2.330078125-.15673828125-3.404296875-.744140625-.708984375-.36474609375-1.3173828125-.83056640625-1.8232421875-1.39794921875-.5068359375-.5673828125-.7802734375-1.27685546875-.8203125-2.12744140625-.0205078125-.4658203125.076171875-.91162109375.2880859375-1.33740234375.212890625-.42529296875.4912109375-.759765625.8359375-1.0029296875s.71875-.359375,1.125-.34912109375c.404296875.01025390625.7998046875.2177734375,1.1845703125.62255859375.2841796875.36474609375.6484375.68408203125,1.0947265625.95751953125.4453125.2734375.931640625.35986328125,1.4580078125.25830078125,1.013671875-.162109375,1.69140625-.86083984375,2.0361328125-2.09716796875.0810546875-.34423828125.111328125-.70361328125.091796875-1.07861328125-.0205078125-.37451171875-.0966796875-.72412109375-.228515625-1.04833984375s-.3291015625-.61279296875-.591796875-.8662109375c-.263671875-.25341796875-.6083984375-.43017578125-1.033203125-.53173828125-.587890625-.162109375-1.2158203125-.2177734375-1.884765625-.16748046875-.6689453125.05078125-1.2568359375.1572265625-1.7626953125.3193359375-.1826171875.04052734375-.470703125.05078125-.8662109375.0302734375-.39453125-.02001953125-.7041015625-.0302734375-.9267578125-.0302734375-.2431640625-.02001953125-.451171875-.1416015625-.623046875-.36474609375-.171875-.22265625-.3037109375-.486328125-.39453125-.7900390625-.091796875-.30419921875-.1474609375-.60791015625-.16796875-.91162109375-.0205078125-.30419921875.0107421875-.5673828125.091796875-.79052734375.060546875-.2021484375.1064453125-.59228515625.13671875-1.169921875s.0556640625-1.2255859375.076171875-1.94482421875c.01953125-.71923828125.03515625-1.44384765625.044921875-2.1728515625.009765625-.7294921875.025390625-1.33740234375.0458984375-1.82373046875.01953125-.384765625.076171875-.64794921875.1669921875-.7900390625.0908203125-.1416015625.2275390625-.22265625.41015625-.2431640625.1826171875-.02001953125.4052734375-.0048828125.6689453125.04541015625.2626953125.05078125.56640625.08642578125.9111328125.1064453125,1.3984375.1015625,2.80078125.17236328125,4.2099609375.212890625,1.4072265625.04052734375,2.8505859375.0205078125,4.330078125-.06103515625.2431640625-.02001953125.4609375-.02001953125.6533203125,0,.1923828125.0205078125.3291015625.05078125.41015625.09130859375.1015625.06103515625.1982421875.1572265625.2890625.28857421875.0908203125.13232421875.15625.33984375.197265625.623046875.041015625.36474609375.0556640625.759765625.0458984375,1.185546875-.0107421875.42529296875-.0556640625.82568359375-.13671875,1.2001953125-.0810546875.375-.203125.7041015625-.365234375.98779296875s-.3642578125.4560546875-.607421875.5166015625c-.12109375.041015625-.375.06591796875-.759765625.076171875s-.8505859375.0048828125-1.3974609375-.015625c-1.9453125-.060546875-3.890625-.24267578125-5.8349609375-.546875v1.85400390625c1.701171875-.28369140625,3.255859375-.20263671875,4.6640625.2431640625s2.5478515625,1.22607421875,3.4189453125,2.33984375Z" style="fill: #231f20; stroke-width: 0px;"/>
        <path d="M80.58984375,399.909179687487267c.6279296875.85107421875,1.0537109375,1.783203125,1.2763671875,2.7958984375.2236328125,1.013671875.248046875,2.02099609375.076171875,3.02392578125s-.5166015625,1.96533203125-1.033203125,2.88720703125c-.5166015625.92236328125-1.2001953125,1.697265625-2.05078125,2.32470703125-1.1552734375.85107421875-2.330078125,1.322265625-3.525390625,1.4130859375-1.1962890625.09130859375-2.330078125-.15673828125-3.404296875-.744140625-.708984375-.36474609375-1.3173828125-.83056640625-1.8232421875-1.39794921875-.5068359375-.5673828125-.7802734375-1.27685546875-.8203125-2.12744140625-.0205078125-.4658203125.076171875-.91162109375.2880859375-1.33740234375.212890625-.42529296875.4912109375-.759765625.8359375-1.0029296875s.71875-.359375,1.125-.34912109375c.404296875.01025390625.7998046875.2177734375,1.1845703125.62255859375.2841796875.36474609375.6484375.68408203125,1.0947265625.95751953125.4453125.2734375.931640625.35986328125,1.4580078125.25830078125,1.013671875-.162109375,1.69140625-.86083984375,2.0361328125-2.09716796875.0810546875-.34423828125.111328125-.70361328125.091796875-1.07861328125-.0205078125-.37451171875-.0966796875-.72412109375-.228515625-1.04833984375s-.3291015625-.61279296875-.591796875-.8662109375c-.263671875-.25341796875-.6083984375-.43017578125-1.033203125-.53173828125-.587890625-.162109375-1.2158203125-.2177734375-1.884765625-.16748046875-.6689453125.05078125-1.2568359375.1572265625-1.7626953125.3193359375-.1826171875.04052734375-.470703125.05078125-.8662109375.0302734375-.39453125-.02001953125-.7041015625-.0302734375-.9267578125-.0302734375-.2431640625-.02001953125-.451171875-.1416015625-.623046875-.36474609375-.171875-.22265625-.3037109375-.486328125-.39453125-.7900390625-.091796875-.30419921875-.1474609375-.60791015625-.16796875-.91162109375-.0205078125-.30419921875.0107421875-.5673828125.091796875-.79052734375.060546875-.2021484375.1064453125-.59228515625.13671875-1.169921875s.0556640625-1.2255859375.076171875-1.94482421875c.01953125-.71923828125.03515625-1.44384765625.044921875-2.1728515625.009765625-.7294921875.025390625-1.33740234375.0458984375-1.82373046875.01953125-.384765625.076171875-.64794921875.1669921875-.7900390625.0908203125-.1416015625.2275390625-.22265625.41015625-.2431640625.1826171875-.02001953125.4052734375-.0048828125.6689453125.04541015625.2626953125.05078125.56640625.08642578125.9111328125.1064453125,1.3984375.1015625,2.80078125.17236328125,4.2099609375.212890625,1.4072265625.04052734375,2.8505859375.0205078125,4.330078125-.06103515625.2431640625-.02001953125.4609375-.02001953125.6533203125,0,.1923828125.0205078125.3291015625.05078125.41015625.09130859375.1015625.06103515625.1982421875.1572265625.2890625.28857421875.0908203125.13232421875.15625.33984375.197265625.623046875.041015625.36474609375.0556640625.759765625.0458984375,1.185546875-.0107421875.42529296875-.0556640625.82568359375-.13671875,1.2001953125-.0810546875.375-.203125.7041015625-.365234375.98779296875s-.3642578125.4560546875-.607421875.5166015625c-.12109375.041015625-.375.06591796875-.759765625.076171875s-.8505859375.0048828125-1.3974609375-.015625c-1.9453125-.060546875-3.890625-.24267578125-5.8349609375-.546875v1.85400390625c1.701171875-.28369140625,3.255859375-.20263671875,4.6640625.2431640625s2.5478515625,1.22607421875,3.4189453125,2.33984375Z" style="fill: #e2dddb; stroke-width: 0px;"/>
      </g>
    </g>
  </g>
</svg>