<?xml version="1.0" encoding="UTF-8"?>
<svg id="Layer_1" data-name="Layer 1" xmlns="http://www.w3.org/2000/svg" width="600" height="599.999999999998181" xmlns:xlink="http://www.w3.org/1999/xlink" viewBox="0 0 600 599.999999999998181">
  <defs>
    <linearGradient id="C7-3" data-name="C7" x1="362.199540766625432" y1="262.401044822920085" x2="256.352152857818851" y2="407.484964456586681" gradientUnits="userSpaceOnUse">
      <stop offset="0" stop-color="#c48a57"/>
      <stop offset=".514957264957265" stop-color="#d3805f"/>
      <stop offset=".799864386739867" stop-color="#d97a61"/>
      <stop offset="1" stop-color="#e17465"/>
    </linearGradient>
  </defs>
  <g id="pie_with_links_-5" data-name="pie (with links)">
    <g id="pie_with_links_-6" data-name="pie (with links)">
      <a xlink:href="https://www.notion.so/dmmnotes/C7-a5bd7149286344deba45ec15e759e579?pvs=4#1c619a85cd094021bd24252dc115640f">
        <g id="C7">
          <g id="C7-2" data-name="C7">
            <path d="M300,414.7060546875c-36.970703125,0-67.048828125-30.078125-67.048828125-67.048828125s30.078125-67.04833984375,67.048828125-67.04833984375,67.048828125,30.07763671875,67.048828125,67.04833984375-30.078125,67.048828125-67.048828125,67.048828125Z" style="fill: url(#C7-3); stroke-width: 0px;"/>
            <path d="M300,289.108673095701306c32.3330078125,0,58.548828125,26.215087890619543,58.548828125,58.548675537109375,0,32.335571289060681-26.21337890625,58.548706054689319-58.548828125,58.548767089840112-.001953125,0,.001953125,0,0,0-32.3330078125,0-58.548828125-26.215057373050513-58.548828125-58.548645019529431,0-32.335571289060681,26.21337890625-58.548736572271082,58.548828125-58.548797607420056.001953125,0-.001953125,0,0,0M300,272.108673095701306h0c-41.65771484375.000061035148974-75.548828125,33.89111328125-75.548828125,75.548797607420056,0,41.657653808590112,33.89111328125,75.548645019529431,75.548828125,75.548645019529431,41.65771484375-.000061035150793,75.548828125-33.891082763670056,75.548828125-75.548767089840112,0-41.657653808599207-33.89111328125-75.548675537109375-75.548828125-75.548675537109375h0Z" style="fill: #181818; stroke-width: 0px;"/>
          </g>
          <a xlink:href="https://www.notion.so/dmmnotes/C7-a5bd7149286344deba45ec15e759e579?pvs=4#1c619a85cd094021bd24252dc115640f">
            <g>
              <g>
                <path d="M276.2158203125,243.247070312487267c.1025390625-3.0341796875-.3916015625-5.310546875-1.4912109375-6.8291015625-1.099609375-1.5166015625-2.48828125-2.4580078125-4.16015625-2.826171875-1.67578125-.365234375-3.4814453125-.181640625-5.4169921875.5498046875-1.9384765625.7333984375-3.689453125,1.7802734375-5.2587890625,3.1396484375-3.666015625,3.1396484375-6.62109375,7.1435546875-8.87109375,12.0107421875-2.251953125,4.8662109375-3.767578125,9.96875-4.552734375,15.3076171875-.78515625,5.337890625-.83984375,10.6513671875-.1572265625,15.935546875.6787109375,5.2861328125,2.1708984375,9.8662109375,4.474609375,13.7373046875,1.4638671875,2.51171875,3.2177734375,4.37109375,5.2587890625,5.5732421875,2.041015625,1.2041015625,4.212890625,1.8837890625,6.515625,2.041015625,2.30078125.1572265625,4.578125-.208984375,6.830078125-1.0986328125,2.25-.888671875,4.263671875-2.22265625,6.044921875-4.00390625,2.7197265625-2.720703125,4.91796875-4.65625,6.59375-5.80859375,1.6728515625-1.1513671875,3.556640625-1.779296875,5.65234375-1.884765625,5.96484375,0,9.9150390625,1.67578125,11.853515625,5.0244140625,1.9345703125,3.3505859375,2.064453125,7.4326171875.3916015625,12.24609375-1.361328125,3.767578125-3.4287109375,7.064453125-6.201171875,9.890625-2.7744140625,2.826171875-5.9931640625,5.1025390625-9.6552734375,6.830078125-3.666015625,1.7265625-7.58984375,2.9306640625-11.775390625,3.6103515625-4.1875.6796875-8.3203125.8642578125-12.40234375.5498046875s-7.9560546875-1.177734375-11.619140625-2.5908203125c-3.6640625-1.4130859375-6.8046875-3.3212890625-9.419921875-5.73046875-2.931640625-2.720703125-5.494140625-5.8330078125-7.6923828125-9.3408203125-2.1982421875-3.505859375-4.0302734375-7.22265625-5.4951171875-11.1474609375-1.466796875-3.9248046875-2.56640625-8.0068359375-3.296875-12.24609375-.734375-4.2392578125-1.099609375-8.501953125-1.099609375-12.794921875.208984375-9.62890625,2.25-18.943359375,6.123046875-27.9462890625,3.87109375-9.0009765625,9.0009765625-16.8505859375,15.38671875-23.5498046875,2.9287109375-3.03515625,6.41015625-5.625,10.439453125-7.771484375,4.029296875-2.14453125,8.1640625-3.533203125,12.404296875-4.1611328125,4.23828125-.6279296875,8.3984375-.4169921875,12.48046875.6279296875,4.08203125,1.0478515625,7.693359375,3.24609375,10.833984375,6.5947265625,2.40625,2.51171875,4.341796875,5.3916015625,5.80859375,8.634765625,1.46484375,3.2451171875,2.5634765625,6.4912109375,3.296875,9.7333984375.4169921875,2.095703125.6015625,4.08203125.548828125,5.966796875-.052734375,1.8837890625-.498046875,3.6650390625-1.333984375,5.337890625-1.15234375,2.0947265625-2.931640625,3.5859375-5.337890625,4.474609375-2.4091796875.890625-4.7890625,1.1767578125-7.1435546875.86328125-2.3544921875-.314453125-4.3955078125-1.2294921875-6.123046875-2.748046875-1.7275390625-1.515625-2.5390625-3.583984375-2.43359375-6.201171875Z" style="fill: none; stroke: #181818; stroke-linecap: round; stroke-linejoin: round; stroke-width: 33px;"/>
                <path d="M377.478515625,227.704101562487267c.103515625,1.361328125.208984375,2.958984375.314453125,4.7890625.1025390625,1.83203125.1298828125,3.6103515625.078125,5.337890625-.0546875,1.7265625-.2109375,3.2451171875-.470703125,4.552734375-.2626953125,1.3095703125-.70703125,2.068359375-1.3349609375,2.2763671875,0,.2109375-.10546875.525390625-.3134765625.9423828125-7.748046875,12.142578125-14.365234375,24.8837890625-19.861328125,38.2294921875-5.494140625,13.3447265625-9.8125,27.08203125-12.9521484375,41.2119140625v.1572265625c0,.2109375-.10546875.419921875-.3134765625.6279296875-.2109375.2109375-.392578125.470703125-.5498046875.78515625-.1572265625.3134765625-.4462890625.6796875-.8642578125,1.0986328125-.5244140625.5224609375-1.361328125,1.0205078125-2.51171875,1.4921875-1.15234375.470703125-2.66796875.6005859375-4.552734375.392578125-1.8837890625-.2119140625-3.767578125-.4716796875-5.65234375-.78515625-1.8828125-.314453125-3.6103515625-.8125-5.1806640625-1.4921875-1.5693359375-.6787109375-2.8251953125-1.6728515625-3.7685546875-2.982421875-.94140625-1.3076171875-1.361328125-3.0078125-1.255859375-5.1025390625.103515625-1.150390625.5234375-3.296875,1.255859375-6.4375.732421875-3.1396484375,1.830078125-6.9072265625,3.2978515625-11.3037109375,1.4638671875-4.4990234375,3.19140625-9.314453125,5.1806640625-14.4443359375,1.9873046875-5.126953125,4.185546875-10.205078125,6.59375-15.228515625,2.40625-5.126953125,4.892578125-9.9697265625,7.4580078125-14.5224609375,2.5634765625-4.552734375,4.9453125-8.5029296875,7.1435546875-11.853515625v-.314453125c-12.45703125,0-24.703125-.15625-36.73828125-.470703125-.7333984375-.1025390625-1.4130859375-.470703125-2.041015625-1.0986328125-.525390625-.5224609375-1.0205078125-1.3076171875-1.4912109375-2.35546875-.4716796875-1.044921875-.7607421875-2.4580078125-.8642578125-4.2392578125-.10546875-1.8837890625-.1318359375-3.7919921875-.078125-5.73046875.0517578125-1.935546875.236328125-3.740234375.5498046875-5.416015625.3134765625-1.6728515625.8369140625-3.0859375,1.5693359375-4.2392578125.7314453125-1.150390625,1.779296875-1.8837890625,3.140625-2.1982421875.6279296875-.1025390625,1.986328125-.1298828125,4.08203125-.078125,2.091796875.0537109375,4.630859375.1572265625,7.6142578125.314453125,2.9833984375.15625,6.2802734375.3671875,9.8916015625.6279296875,3.6103515625.26171875,7.24609375.498046875,10.9111328125.7060546875,3.6630859375.2109375,7.1943359375.392578125,10.59765625.5498046875,3.3994140625.1572265625,6.4619140625.3408203125,9.1845703125.548828125,3.1396484375.2109375,6.068359375.3681640625,8.791015625.4716796875.5234375-.103515625.994140625.0537109375,1.4140625.470703125.416015625.314453125.78515625.8125,1.0986328125,1.4912109375.3134765625.6826171875.5224609375,1.75390625.6279296875,3.21875Z" style="fill: none; stroke: #181818; stroke-linecap: round; stroke-linejoin: round; stroke-width: 33px;"/>
              </g>
              <g>
                <path d="M276.2158203125,243.247070312487267c.1025390625-3.0341796875-.3916015625-5.310546875-1.4912109375-6.8291015625-1.099609375-1.5166015625-2.48828125-2.4580078125-4.16015625-2.826171875-1.67578125-.365234375-3.4814453125-.181640625-5.4169921875.5498046875-1.9384765625.7333984375-3.689453125,1.7802734375-5.2587890625,3.1396484375-3.666015625,3.1396484375-6.62109375,7.1435546875-8.87109375,12.0107421875-2.251953125,4.8662109375-3.767578125,9.96875-4.552734375,15.3076171875-.78515625,5.337890625-.83984375,10.6513671875-.1572265625,15.935546875.6787109375,5.2861328125,2.1708984375,9.8662109375,4.474609375,13.7373046875,1.4638671875,2.51171875,3.2177734375,4.37109375,5.2587890625,5.5732421875,2.041015625,1.2041015625,4.212890625,1.8837890625,6.515625,2.041015625,2.30078125.1572265625,4.578125-.208984375,6.830078125-1.0986328125,2.25-.888671875,4.263671875-2.22265625,6.044921875-4.00390625,2.7197265625-2.720703125,4.91796875-4.65625,6.59375-5.80859375,1.6728515625-1.1513671875,3.556640625-1.779296875,5.65234375-1.884765625,5.96484375,0,9.9150390625,1.67578125,11.853515625,5.0244140625,1.9345703125,3.3505859375,2.064453125,7.4326171875.3916015625,12.24609375-1.361328125,3.767578125-3.4287109375,7.064453125-6.201171875,9.890625-2.7744140625,2.826171875-5.9931640625,5.1025390625-9.6552734375,6.830078125-3.666015625,1.7265625-7.58984375,2.9306640625-11.775390625,3.6103515625-4.1875.6796875-8.3203125.8642578125-12.40234375.5498046875s-7.9560546875-1.177734375-11.619140625-2.5908203125c-3.6640625-1.4130859375-6.8046875-3.3212890625-9.419921875-5.73046875-2.931640625-2.720703125-5.494140625-5.8330078125-7.6923828125-9.3408203125-2.1982421875-3.505859375-4.0302734375-7.22265625-5.4951171875-11.1474609375-1.466796875-3.9248046875-2.56640625-8.0068359375-3.296875-12.24609375-.734375-4.2392578125-1.099609375-8.501953125-1.099609375-12.794921875.208984375-9.62890625,2.25-18.943359375,6.123046875-27.9462890625,3.87109375-9.0009765625,9.0009765625-16.8505859375,15.38671875-23.5498046875,2.9287109375-3.03515625,6.41015625-5.625,10.439453125-7.771484375,4.029296875-2.14453125,8.1640625-3.533203125,12.404296875-4.1611328125,4.23828125-.6279296875,8.3984375-.4169921875,12.48046875.6279296875,4.08203125,1.0478515625,7.693359375,3.24609375,10.833984375,6.5947265625,2.40625,2.51171875,4.341796875,5.3916015625,5.80859375,8.634765625,1.46484375,3.2451171875,2.5634765625,6.4912109375,3.296875,9.7333984375.4169921875,2.095703125.6015625,4.08203125.548828125,5.966796875-.052734375,1.8837890625-.498046875,3.6650390625-1.333984375,5.337890625-1.15234375,2.0947265625-2.931640625,3.5859375-5.337890625,4.474609375-2.4091796875.890625-4.7890625,1.1767578125-7.1435546875.86328125-2.3544921875-.314453125-4.3955078125-1.2294921875-6.123046875-2.748046875-1.7275390625-1.515625-2.5390625-3.583984375-2.43359375-6.201171875Z" style="fill: #e2dddb; stroke-width: 0px;"/>
                <path d="M377.478515625,227.704101562487267c.103515625,1.361328125.208984375,2.958984375.314453125,4.7890625.1025390625,1.83203125.1298828125,3.6103515625.078125,5.337890625-.0546875,1.7265625-.2109375,3.2451171875-.470703125,4.552734375-.2626953125,1.3095703125-.70703125,2.068359375-1.3349609375,2.2763671875,0,.2109375-.10546875.525390625-.3134765625.9423828125-7.748046875,12.142578125-14.365234375,24.8837890625-19.861328125,38.2294921875-5.494140625,13.3447265625-9.8125,27.08203125-12.9521484375,41.2119140625v.1572265625c0,.2109375-.10546875.419921875-.3134765625.6279296875-.2109375.2109375-.392578125.470703125-.5498046875.78515625-.1572265625.3134765625-.4462890625.6796875-.8642578125,1.0986328125-.5244140625.5224609375-1.361328125,1.0205078125-2.51171875,1.4921875-1.15234375.470703125-2.66796875.6005859375-4.552734375.392578125-1.8837890625-.2119140625-3.767578125-.4716796875-5.65234375-.78515625-1.8828125-.314453125-3.6103515625-.8125-5.1806640625-1.4921875-1.5693359375-.6787109375-2.8251953125-1.6728515625-3.7685546875-2.982421875-.94140625-1.3076171875-1.361328125-3.0078125-1.255859375-5.1025390625.103515625-1.150390625.5234375-3.296875,1.255859375-6.4375.732421875-3.1396484375,1.830078125-6.9072265625,3.2978515625-11.3037109375,1.4638671875-4.4990234375,3.19140625-9.314453125,5.1806640625-14.4443359375,1.9873046875-5.126953125,4.185546875-10.205078125,6.59375-15.228515625,2.40625-5.126953125,4.892578125-9.9697265625,7.4580078125-14.5224609375,2.5634765625-4.552734375,4.9453125-8.5029296875,7.1435546875-11.853515625v-.314453125c-12.45703125,0-24.703125-.15625-36.73828125-.470703125-.7333984375-.1025390625-1.4130859375-.470703125-2.041015625-1.0986328125-.525390625-.5224609375-1.0205078125-1.3076171875-1.4912109375-2.35546875-.4716796875-1.044921875-.7607421875-2.4580078125-.8642578125-4.2392578125-.10546875-1.8837890625-.1318359375-3.7919921875-.078125-5.73046875.0517578125-1.935546875.236328125-3.740234375.5498046875-5.416015625.3134765625-1.6728515625.8369140625-3.0859375,1.5693359375-4.2392578125.7314453125-1.150390625,1.779296875-1.8837890625,3.140625-2.1982421875.6279296875-.1025390625,1.986328125-.1298828125,4.08203125-.078125,2.091796875.0537109375,4.630859375.1572265625,7.6142578125.314453125,2.9833984375.15625,6.2802734375.3671875,9.8916015625.6279296875,3.6103515625.26171875,7.24609375.498046875,10.9111328125.7060546875,3.6630859375.2109375,7.1943359375.392578125,10.59765625.5498046875,3.3994140625.1572265625,6.4619140625.3408203125,9.1845703125.548828125,3.1396484375.2109375,6.068359375.3681640625,8.791015625.4716796875.5234375-.103515625.994140625.0537109375,1.4140625.470703125.416015625.314453125.78515625.8125,1.0986328125,1.4912109375.3134765625.6826171875.5224609375,1.75390625.6279296875,3.21875Z" style="fill: #e2dddb; stroke-width: 0px;"/>
              </g>
            </g>
          </a>
        </g>
      </a>
      <g id="Pie">
        <g>
          <a xlink:href="https://www.notion.so/dmmnotes/paranoid-ae38b1e6af0c4dd08f61e0d8f6e9f05f?pvs=4">
            <path id="C8" d="M331.308105468760914,517.749511718748181l7.825683593739086,54.4306640625c26.439208984369543-3.767822265628638,51.645751953139552-11.3115234375,75.101318359369543-22.04296875l-22.832519531239086-49.996826171878638c-18.7666015625,8.572265625-38.93505859375,14.601318359378638-60.094482421869543,17.609130859378638Z" style="fill: none; stroke: #181818; stroke-linecap: round; stroke-linejoin: round; stroke-width: 15px;"/>
          </a>
          <a xlink:href="https://www.notion.so/dmmnotes/seductively-obsessed-with-rescue-6fb5a68f6d334bc29ccccc16d8a4e56e?pvs=4">
            <path id="C6" d="M444.066162109380457,466.259521484376819l35.972900390630457,41.515869140621362c19.762939453119543-17.141845703128638,37.047119140619543-37.041748046878638,51.26708984375-59.125l-46.223632812510914-29.704833984371362c-11.373291015619543,17.673583984371362-25.201171874989086,33.598876953121362-41.016357421869543,47.31396484375Z" style="fill: none; stroke: #181818; stroke-linecap: round; stroke-linejoin: round; stroke-width: 15px;"/>
          </a>
          <a xlink:href="https://www.notion.so/dmmnotes/punitively-obsessed-with-revenge-33d2e77f37774316b42bccf4a60f9688?pvs=4">
            <path id="C5" d="M485.08251953125,418.945556640626819l46.223632812510914,29.704833984371362c14.048095703128638-21.809326171882276,25.08837890625-45.71875,32.551513671869543-71.175048828132276l-52.7548828125-15.490234375c-5.9619140625,20.377929687510914-14.789306640619543,39.509765625-26.020263671880457,56.960449218760914Z" style="fill: none; stroke: #181818; stroke-linecap: round; stroke-linejoin: round; stroke-width: 15px;"/>
          </a>
          <a xlink:href="https://www.notion.so/dmmnotes/feigned-helpless-e79a94b0498c4e109a681b7f3dcdb088?pvs=4">
            <path id="C4" d="M520,299.999999999998181c0,21.5380859375-3.142089843739086,42.321533203117724-8.897216796869543,61.985107421867724l52.7548828125,15.490234375c7.2080078125-24.583496093739086,11.142333984369543-50.5634765625,11.142333984369543-77.475341796867724h-55Z" style="fill: none; stroke: #181818; stroke-linecap: round; stroke-linejoin: round; stroke-width: 15px;"/>
          </a>
          <a xlink:href="https://www.notion.so/dmmnotes/aggressive-2d8ccce383534b9dbfc7b4b10b8a5d5c?pvs=4">
            <path id="C3" d="M520,299.999999999998181h55c0-26.911865234389552-3.934326171869543-52.894531250010914-11.142333984369543-77.475341796889552l-52.7548828125,15.490234375c5.755126953130457,19.663574218757276,8.897216796869543,40.449707031257276,8.897216796869543,61.985107421889552Z" style="fill: none; stroke: #181818; stroke-linecap: round; stroke-linejoin: round; stroke-width: 15px;"/>
          </a>
          <a xlink:href="https://www.notion.so/dmmnotes/disarming-086276e599884c86b9359acf831a8b20?pvs=4">
            <path id="C2" d="M511.102783203130457,238.014892578108629l52.7548828125-15.490234375c-7.463134765619543-25.456298828121362-18.503417968740905-49.365722656242724-32.551513671869543-71.177734374992724l-46.223632812510914,29.70751953125c11.230957031260914,17.45068359375,20.055664062510914,36.585205078121362,26.020263671880457,56.960449218742724Z" style="fill: none; stroke: #181818; stroke-linecap: round; stroke-linejoin: round; stroke-width: 15px;"/>
          </a>
          <a xlink:href="https://www.notion.so/dmmnotes/threatening-348fe6a52f7a4fe69f768e98c6586932?pvs=4">
            <path id="C1" d="M485.08251953125,181.054443359365905l46.223632812510914-29.70751953125c-3.273382764720736-5.082861773658806-6.709138808490025-10.050169557307527-10.300126729000112-14.894880224830558-18.7746979552212-25.329514182889397-56.293794455550596-26.537787805427797-76.939827532480194-2.708921059358545l-.00003597290015.000041518560465c15.815185546880457,13.71240234375,29.64306640625,29.637695312510914,41.016357421869543,47.311279296878638Z" style="fill: none; stroke: #181818; stroke-linecap: round; stroke-linejoin: round; stroke-width: 15px;"/>
          </a>
          <a xlink:href="https://www.notion.so/dmmnotes/complaining-acceptance-8b40401a720c493ba73f7cde1567cf3d?pvs=4">
            <path id="B5" d="M444.066162109380457,133.743164062487267l.00003597290015-.000041518560465c20.654922513649581-23.839126791601302,14.125719583838872-60.826671837301546-13.629725214659629-75.812167347630748-5.297847529700448-2.860371035199933-10.700612091030052-5.552089440428972-16.201365445751435-8.068162227547873l-22.832519531239086,49.99951171875c19.204345703119543,8.773681640617724,36.910156249989086,20.22216796875,52.66357421875,33.880859374989086Z" style="fill: none; stroke: #181818; stroke-linecap: round; stroke-linejoin: round; stroke-width: 15px;"/>
          </a>
          <a xlink:href="https://www.notion.so/dmmnotes/sentimental-bc554363322342b1b7ca4ccc02125049?pvs=4">
            <path id="B4" d="M391.402587890630457,99.862304687498181l22.832519531239086-49.99951171875c-23.455566406229991-10.7314453125-48.662109375-18.275146484389552-75.101318359369543-22.042968749992724l-7.825683593739086,54.433349609360448c21.159423828119543,3.0078125,41.327880859369543,9.034179687492724,60.094482421869543,17.609130859382276Z" style="fill: none; stroke: #181818; stroke-linecap: round; stroke-linejoin: round; stroke-width: 15px;"/>
          </a>
          <a xlink:href="https://www.notion.so/dmmnotes/comfortably-balanced-e76dc615a8b947aa915377cd02fcf716?pvs=4">
            <path id="B3" d="M300,79.999999999998181c10.634765625,0,21.078857421869543.797607421867724,31.308105468760914,2.253173828117724l7.825683593739086-54.433349609360448c-12.788574218739086-1.823486328139552-25.843017578130457-2.819824218757276-39.1337890625-2.819824218757276s-26.34521484375.996337890617724-39.133789062489086,2.819824218757276l7.825683593739086,54.433349609360448c10.23193359375-1.45556640625,20.67333984375-2.253173828117724,31.30810546875-2.253173828117724Z" style="fill: none; stroke: #181818; stroke-linecap: round; stroke-linejoin: round; stroke-width: 15px;"/>
          </a>
          <a xlink:href="https://www.notion.so/dmmnotes/accepting-317d81273fff4cd9817cdf4a88efd378?pvs=4">
            <path id="B2" d="M268.69189453125,82.253173828115905l-7.825683593739086-54.433349609360448c-26.439208984391371,3.767822265603172-51.643066406260914,11.311523437492724-75.098632812510914,22.042968749992724l22.83251953125,49.99951171875c18.7666015625-8.574951171889552,38.93505859375-14.601318359382276,60.091796875-17.609130859382276Z" style="fill: none; stroke: #181818; stroke-linecap: round; stroke-linejoin: round; stroke-width: 15px;"/>
          </a>
          <a xlink:href="https://www.notion.so/dmmnotes/distanced-from-past-2eabab7e9c77429f8e577f4e3e203653?pvs=4">
            <path id="B1" d="M208.60009765625,99.862304687498181l-22.83251953125-49.99951171875c-5.501476919680499,2.516122083477967-10.904678806709853,5.207896667827299-16.20277414614975,8.068330353889905-27.754772116430104,14.984759620980185-34.283385893750165,51.971559756599163-13.6283165142504,75.809313677109458l.00003597290015.000041515868361c15.75341796875-13.658691406257276,33.4619140625-25.1044921875,52.66357421875-33.878173828117724Z" style="fill: none; stroke: #181818; stroke-linecap: round; stroke-linejoin: round; stroke-width: 15px;"/>
          </a>
          <a xlink:href="https://www.notion.so/dmmnotes/idealising-a52277f51ed14a42aae78081bb34b8be?pvs=4">
            <path id="A1" d="M155.9365234375,133.740478515615905l-.00003597290015-.000041515868361c-20.647012023619027-23.828455119091814-58.166100839880528-22.619561246781814-76.941289455078731,2.709999997550767-3.591451962291103,4.845219097369409-7.02760574713102,9.813063194989809-10.301350353271118,14.896486830817594l46.226318359369543,29.70751953125c11.373291015641371-17.673583984367724,25.201171875010914-33.598876953128638,41.016357421880457-47.31396484375Z" style="fill: none; stroke: #181818; stroke-linecap: round; stroke-linejoin: round; stroke-width: 15px;"/>
          </a>
          <a xlink:href="https://www.notion.so/dmmnotes/distancing-9ac690cdca654729a17a5a255944e2d1?pvs=4">
            <path id="A2" d="M114.920166015619543,181.054443359365905l-46.226318359369543-29.70751953125c-14.04541015625,21.81201171875-25.08837890625,45.721435546871362-32.551513671880457,71.177734374992724l52.754882812510914,15.490234375c5.964599609369543-20.375244140621362,14.7919921875-39.509765624992724,26.022949218739086-56.960449218742724Z" style="fill: none; stroke: #181818; stroke-linecap: round; stroke-linejoin: round; stroke-width: 15px;"/>
          </a>
          <a xlink:href="https://www.notion.so/dmmnotes/compulsive-caregiving-9c380c0928294f41ae10764aa0dee886?pvs=4">
            <path id="A3" d="M88.897216796880457,238.014892578108629l-52.754882812510914-15.490234375c-7.205322265619543,24.580810546878638-11.142333984369543,50.5634765625-11.142333984369543,77.475341796889552h55c0-21.535400390632276,3.14208984375-42.321533203132276,8.897216796880457-61.985107421889552Z" style="fill: none; stroke: #181818; stroke-linecap: round; stroke-linejoin: round; stroke-width: 15px;"/>
          </a>
          <a xlink:href="https://www.notion.so/dmmnotes/compulsive-compliance-6d08b7ea9a424ce1a72b9184b7850414?pvs=4">
            <path id="A4" d="M80,299.999999999998181H25c0,26.911865234367724,3.93701171875,52.894531249989086,11.142333984369543,77.475341796867724l52.754882812510914-15.490234375c-5.755126953130457-19.66357421875-8.897216796880457-40.447021484367724-8.897216796880457-61.985107421867724Z" style="fill: none; stroke: #181818; stroke-linecap: round; stroke-linejoin: round; stroke-width: 15px;"/>
          </a>
          <a xlink:href="https://www.notion.so/dmmnotes/sexual-supplementation-8e85f49046ef412aa229745abf7d38d3?pvs=4">
            <path id="A5" d="M88.897216796880457,361.985107421865905l-52.754882812510914,15.490234375c7.463134765630457,25.456298828132276,18.506103515630457,49.36572265625,32.551513671880457,71.175048828132276l46.223632812510914-29.704833984371362c-11.230957031260914-17.450683593760914-20.055664062510914-36.58251953125-26.020263671880457-56.960449218760914Z" style="fill: none; stroke: #181818; stroke-linecap: round; stroke-linejoin: round; stroke-width: 15px;"/>
          </a>
          <a xlink:href="https://www.notion.so/dmmnotes/compulsive-isolated-self-reliance-b321873a73fa41aaaadd7192fde856a2?pvs=4">
            <path id="A6" d="M114.917480468760914,418.945556640626819l-46.223632812510914,29.704833984371362c14.219970703119543,22.083251953121362,31.504150390630457,41.983154296871362,51.269775390630457,59.125l35.972900390619543-41.515869140621362c-15.815185546869543-13.712402343757276-29.643066406239086-29.637695312507276-41.019042968739086-47.31396484375Z" style="fill: none; stroke: #181818; stroke-linecap: round; stroke-linejoin: round; stroke-width: 15px;"/>
          </a>
          <a xlink:href="https://www.notion.so/dmmnotes/delusional-idealization-743e2420b9994a48a7cab68190432e8a?pvs=4">
            <path id="A7" d="M155.9365234375,466.259521484376819l-35.972900390619543,41.515869140621362c19.687744140619543,17.074707031239086,41.811279296869543,31.385986328128638,65.803955078119543,42.36181640625l22.83251953125-49.996826171878638c-19.20166015625-8.773681640621362-36.91015625-20.222167968742724-52.66357421875-33.880859374992724Z" style="fill: none; stroke: #181818; stroke-linecap: round; stroke-linejoin: round; stroke-width: 15px;"/>
          </a>
          <a xlink:href="https://www.notion.so/dmmnotes/externally-assembled-self-994ecb0895b844409b931d74a045c162?pvs=4">
            <path id="A8" d="M208.60009765625,500.140380859369543l-22.83251953125,49.996826171878638c23.45556640625,10.7314453125,48.659423828119543,18.275146484371362,75.098632812510914,22.04296875l7.825683593739086-54.4306640625c-21.15673828125-3.0078125-41.3251953125-9.0341796875-60.091796875-17.609130859378638Z" style="fill: none; stroke: #181818; stroke-linecap: round; stroke-linejoin: round; stroke-width: 15px;"/>
          </a>
          <a xlink:href="https://www.notion.so/dmmnotes/psychopathy-0fe4a3222d9f4fd097ab4546c9776768?pvs=4">
            <path id="AC" d="M300,519.999999999998181c-10.634765625,0-21.076171875-.794921875-31.30810546875-2.25048828125l-7.825683593739086,54.4306640625c12.788574218739086,1.823486328128638,25.843017578119543,2.81982421875,39.133789062489086,2.81982421875s26.345214843760914-.996337890621362,39.1337890625-2.81982421875l-7.825683593739086-54.4306640625c-10.229248046891371,1.45556640625-20.673339843760914,2.25048828125-31.308105468760914,2.25048828125Z" style="fill: none; stroke: #181818; stroke-linecap: round; stroke-linejoin: round; stroke-width: 15px;"/>
          </a>
          <a xlink:href="https://www.notion.so/dmmnotes/menacing-a5bd7149286344deba45ec15e759e579?pvs=4">
            <g id="C7-4" data-name="C7">
              <path d="M414.2353515625,551.137695312487267c-.1181640625,0-.236328125-.0205078125-.349609375-.0625-.248046875-.0927734375-.4501953125-.2802734375-.5595703125-.5224609375l-22.8330078125-49.9970703125c-.2294921875-.501953125-.0087890625-1.0947265625.4931640625-1.32421875,18.974609375-8.6708984375,36.61328125-20.0185546875,52.4248046875-33.7275390625.1826171875-.158203125.4150390625-.244140625.6552734375-.244140625.0234375,0,.0478515625.0009765625.0712890625.0029296875.2646484375.0185546875.5107421875.1416015625.6845703125.341796875l35.97265625,41.515625c.361328125.41796875.31640625,1.048828125-.1005859375,1.4111328125-19.91796875,17.2734375-42.138671875,31.578125-66.04296875,42.515625-.1318359375.060546875-.2734375.0908203125-.416015625.0908203125Z" style="fill: none; stroke: #181818; stroke-linecap: round; stroke-linejoin: round; stroke-width: 15px;"/>
              <path d="M444.066162109375,466.259521484362267l35.972900390625,41.515869140625c-19.687744140625,17.07470703125-41.81396484375,31.385986328125-65.803955078125,42.36181640625l-22.83251953125-49.996826171875c19.204345703125-8.7763671875,36.91015625-20.22216796875,52.66357421875-33.880859375M444.0660400390625,464.259521484362267c-.4796142578125,0-.9451904296875.17254638671875-1.31005859375.4888916015625-15.7371826171875,13.6446533203125-33.294677734375,24.940185546875-52.1846923828125,33.57293701171875-1.00439453125.458984375-1.44677734375,1.645263671875-.9879150390625,2.64984130859375l22.83251953125,49.996826171875c.2203369140625.48272705078125.6236572265625.8580322265625,1.1209716796875,1.0433349609375.2254638671875.08404541015625.4620361328125.1258544921875.6982421875.1258544921875.284423828125,0,.568359375-.0606689453125.83203125-.18133544921875,23.99169921875-10.9765625,46.292236328125-25.33270263671875,66.2823486328125-42.6695556640625.8341064453125-.72344970703125.9241943359375-1.986083984375.2010498046875-2.82061767578125l-35.972900390625-41.515869140625c-.347412109375-.4010009765625-.83984375-.6474609375-1.369140625-.68524169921875-.0474853515625-.00335693359375-.0950927734375-.00506591796875-.1424560546875-.00506591796875h0Z" style="fill: none; stroke: #181818; stroke-linecap: round; stroke-linejoin: round; stroke-width: 15px;"/>
            </g>
          </a>
        </g>
        <g>
          <a xlink:href="https://www.notion.so/dmmnotes/paranoid-ae38b1e6af0c4dd08f61e0d8f6e9f05f?pvs=4">
            <path id="C8-2" data-name="C8" d="M331.308105468760914,517.749511718748181l7.825683593739086,54.4306640625c26.439208984369543-3.767822265628638,51.645751953139552-11.3115234375,75.101318359369543-22.04296875l-22.832519531239086-49.996826171878638c-18.7666015625,8.572265625-38.93505859375,14.601318359378638-60.094482421869543,17.609130859378638Z" style="fill: #938480; stroke: #181818; stroke-width: 2px;"/>
          </a>
          <a xlink:href="https://www.notion.so/dmmnotes/seductively-obsessed-with-rescue-6fb5a68f6d334bc29ccccc16d8a4e56e?pvs=4">
            <path id="C6-2" data-name="C6" d="M444.066162109380457,466.259521484376819l35.972900390630457,41.515869140621362c19.762939453119543-17.141845703128638,37.047119140619543-37.041748046878638,51.26708984375-59.125l-46.223632812510914-29.704833984371362c-11.373291015619543,17.673583984371362-25.201171874989086,33.598876953121362-41.016357421869543,47.31396484375Z" style="fill: #988985; stroke: #181818; stroke-width: 2px;"/>
          </a>
          <a xlink:href="https://www.notion.so/dmmnotes/punitively-obsessed-with-revenge-33d2e77f37774316b42bccf4a60f9688?pvs=4">
            <path id="C5-2" data-name="C5" d="M485.08251953125,418.945556640626819l46.223632812510914,29.704833984371362c14.048095703128638-21.809326171882276,25.08837890625-45.71875,32.551513671869543-71.175048828132276l-52.7548828125-15.490234375c-5.9619140625,20.377929687510914-14.789306640619543,39.509765625-26.020263671880457,56.960449218760914Z" style="fill: #9b8d89; stroke: #181818; stroke-width: 2px;"/>
          </a>
          <a xlink:href="https://www.notion.so/dmmnotes/feigned-helpless-e79a94b0498c4e109a681b7f3dcdb088?pvs=4">
            <path id="C4-2" data-name="C4" d="M520,299.999999999998181c0,21.5380859375-3.142089843739086,42.321533203117724-8.897216796869543,61.985107421867724l52.7548828125,15.490234375c7.2080078125-24.583496093739086,11.142333984369543-50.5634765625,11.142333984369543-77.475341796867724h-55Z" style="fill: #a1928f; stroke: #181818; stroke-width: 2px;"/>
          </a>
          <a xlink:href="https://www.notion.so/dmmnotes/aggressive-2d8ccce383534b9dbfc7b4b10b8a5d5c?pvs=4">
            <path id="C3-2" data-name="C3" d="M520,299.999999999998181h55c0-26.911865234389552-3.934326171869543-52.894531250010914-11.142333984369543-77.475341796889552l-52.7548828125,15.490234375c5.755126953130457,19.663574218757276,8.897216796869543,40.449707031257276,8.897216796869543,61.985107421889552Z" style="fill: #9e8f8b; stroke: #181818; stroke-width: 2px;"/>
          </a>
          <a xlink:href="https://www.notion.so/dmmnotes/disarming-086276e599884c86b9359acf831a8b20?pvs=4">
            <path id="C2-2" data-name="C2" d="M511.102783203130457,238.014892578108629l52.7548828125-15.490234375c-7.463134765619543-25.456298828121362-18.503417968740905-49.365722656242724-32.551513671869543-71.177734374992724l-46.223632812510914,29.70751953125c11.230957031260914,17.45068359375,20.055664062510914,36.585205078121362,26.020263671880457,56.960449218742724Z" style="fill: #9b8c88; stroke: #181818; stroke-width: 2px;"/>
          </a>
          <a xlink:href="https://www.notion.so/dmmnotes/threatening-348fe6a52f7a4fe69f768e98c6586932?pvs=4">
            <path id="C1-2" data-name="C1" d="M485.08251953125,181.054443359365905l46.223632812510914-29.70751953125c-3.273382764720736-5.082861773658806-6.709138808490025-10.050169557307527-10.300126729000112-14.894880224830558-18.7746979552212-25.329514182889397-56.293794455550596-26.537787805427797-76.939827532480194-2.708921059358545l-.00003597290015.000041518560465c15.815185546880457,13.71240234375,29.64306640625,29.637695312510914,41.016357421869543,47.311279296878638Z" style="fill: #988985; stroke: #181818; stroke-width: 2px;"/>
          </a>
          <a xlink:href="https://www.notion.so/dmmnotes/complaining-acceptance-8b40401a720c493ba73f7cde1567cf3d?pvs=4">
            <path id="B5-2" data-name="B5" d="M444.066162109380457,133.743164062487267l.00003597290015-.000041518560465c20.654922513649581-23.839126791601302,14.125719583838872-60.826671837301546-13.629725214659629-75.812167347630748-5.297847529700448-2.860371035199933-10.700612091030052-5.552089440428972-16.201365445751435-8.068162227547873l-22.832519531239086,49.99951171875c19.204345703119543,8.773681640617724,36.910156249989086,20.22216796875,52.66357421875,33.880859374989086Z" style="fill: #958682; stroke: #181818; stroke-width: 2px;"/>
          </a>
          <a xlink:href="https://www.notion.so/dmmnotes/sentimental-bc554363322342b1b7ca4ccc02125049?pvs=4">
            <path id="B4-2" data-name="B4" d="M391.402587890630457,99.862304687498181l22.832519531239086-49.99951171875c-23.455566406229991-10.7314453125-48.662109375-18.275146484389552-75.101318359369543-22.042968749992724l-7.825683593739086,54.433349609360448c21.159423828119543,3.0078125,41.327880859369543,9.034179687492724,60.094482421869543,17.609130859382276Z" style="fill: #92837f; stroke: #181818; stroke-width: 2px;"/>
          </a>
          <a xlink:href="https://www.notion.so/dmmnotes/comfortably-balanced-e76dc615a8b947aa915377cd02fcf716?pvs=4">
            <path id="B3-2" data-name="B3" d="M300,79.999999999998181c10.634765625,0,21.078857421869543.797607421867724,31.308105468760914,2.253173828117724l7.825683593739086-54.433349609360448c-12.788574218739086-1.823486328139552-25.843017578130457-2.819824218757276-39.1337890625-2.819824218757276s-26.34521484375.996337890617724-39.133789062489086,2.819824218757276l7.825683593739086,54.433349609360448c10.23193359375-1.45556640625,20.67333984375-2.253173828117724,31.30810546875-2.253173828117724Z" style="fill: #8f807d; stroke: #181818; stroke-width: 2px;"/>
          </a>
          <a xlink:href="https://www.notion.so/dmmnotes/accepting-317d81273fff4cd9817cdf4a88efd378?pvs=4">
            <path id="B2-2" data-name="B2" d="M268.69189453125,82.253173828115905l-7.825683593739086-54.433349609360448c-26.439208984391371,3.767822265603172-51.643066406260914,11.311523437492724-75.098632812510914,22.042968749992724l22.83251953125,49.99951171875c18.7666015625-8.574951171889552,38.93505859375-14.601318359382276,60.091796875-17.609130859382276Z" style="fill: #8c7d7a; stroke: #181818; stroke-width: 2px;"/>
          </a>
          <a xlink:href="https://www.notion.so/dmmnotes/distanced-from-past-2eabab7e9c77429f8e577f4e3e203653?pvs=4">
            <path id="B1-2" data-name="B1" d="M208.60009765625,99.862304687498181l-22.83251953125-49.99951171875c-5.501476919680499,2.516122083477967-10.904678806709853,5.207896667827299-16.20277414614975,8.068330353889905-27.754772116430104,14.984759620980185-34.283385893750165,51.971559756599163-13.6283165142504,75.809313677109458l.00003597290015.000041515868361c15.75341796875-13.658691406257276,33.4619140625-25.1044921875,52.66357421875-33.878173828117724Z" style="fill: #8a7b78; stroke: #181818; stroke-width: 2px;"/>
          </a>
          <a xlink:href="https://www.notion.so/dmmnotes/idealising-a52277f51ed14a42aae78081bb34b8be?pvs=4">
            <path id="A1-2" data-name="A1" d="M155.9365234375,133.740478515615905l-.00003597290015-.000041515868361c-20.647012023619027-23.828455119091814-58.166100839880528-22.619561246781814-76.941289455078731,2.709999997550767-3.591451962291103,4.845219097369409-7.02760574713102,9.813063194989809-10.301350353271118,14.896486830817594l46.226318359369543,29.70751953125c11.373291015641371-17.673583984367724,25.201171875010914-33.598876953128638,41.016357421880457-47.31396484375Z" style="fill: #877875; stroke: #181818; stroke-width: 2px;"/>
          </a>
          <a xlink:href="https://www.notion.so/dmmnotes/distancing-9ac690cdca654729a17a5a255944e2d1?pvs=4">
            <path id="A2-2" data-name="A2" d="M114.920166015619543,181.054443359365905l-46.226318359369543-29.70751953125c-14.04541015625,21.81201171875-25.08837890625,45.721435546871362-32.551513671880457,71.177734374992724l52.754882812510914,15.490234375c5.964599609369543-20.375244140621362,14.7919921875-39.509765624992724,26.022949218739086-56.960449218742724Z" style="fill: #847572; stroke: #181818; stroke-width: 2px;"/>
          </a>
          <a xlink:href="https://www.notion.so/dmmnotes/compulsive-caregiving-9c380c0928294f41ae10764aa0dee886?pvs=4">
            <path id="A3-2" data-name="A3" d="M88.897216796880457,238.014892578108629l-52.754882812510914-15.490234375c-7.205322265619543,24.580810546878638-11.142333984369543,50.5634765625-11.142333984369543,77.475341796889552h55c0-21.535400390632276,3.14208984375-42.321533203132276,8.897216796880457-61.985107421889552Z" style="fill: #827370; stroke: #181818; stroke-width: 2px;"/>
          </a>
          <a xlink:href="https://www.notion.so/dmmnotes/compulsive-compliance-6d08b7ea9a424ce1a72b9184b7850414?pvs=4">
            <path id="A4-2" data-name="A4" d="M80,299.999999999998181H25c0,26.911865234367724,3.93701171875,52.894531249989086,11.142333984369543,77.475341796867724l52.754882812510914-15.490234375c-5.755126953130457-19.66357421875-8.897216796880457-40.447021484367724-8.897216796880457-61.985107421867724Z" style="fill: #80716e; stroke: #181818; stroke-width: 2px;"/>
          </a>
          <a xlink:href="https://www.notion.so/dmmnotes/sexual-supplementation-8e85f49046ef412aa229745abf7d38d3?pvs=4">
            <path id="A5-2" data-name="A5" d="M88.897216796880457,361.985107421865905l-52.754882812510914,15.490234375c7.463134765630457,25.456298828132276,18.506103515630457,49.36572265625,32.551513671880457,71.175048828132276l46.223632812510914-29.704833984371362c-11.230957031260914-17.450683593760914-20.055664062510914-36.58251953125-26.020263671880457-56.960449218760914Z" style="fill: #837471; stroke: #181818; stroke-width: 2px;"/>
          </a>
          <a xlink:href="https://www.notion.so/dmmnotes/compulsive-isolated-self-reliance-b321873a73fa41aaaadd7192fde856a2?pvs=4">
            <path id="A6-2" data-name="A6" d="M114.917480468760914,418.945556640626819l-46.223632812510914,29.704833984371362c14.219970703119543,22.083251953121362,31.504150390630457,41.983154296871362,51.269775390630457,59.125l35.972900390619543-41.515869140621362c-15.815185546869543-13.712402343757276-29.643066406239086-29.637695312507276-41.019042968739086-47.31396484375Z" style="fill: #867774; stroke: #181818; stroke-width: 2px;"/>
          </a>
          <a xlink:href="https://www.notion.so/dmmnotes/delusional-idealization-743e2420b9994a48a7cab68190432e8a?pvs=4">
            <path id="A7-2" data-name="A7" d="M155.9365234375,466.259521484376819l-35.972900390619543,41.515869140621362c19.687744140619543,17.074707031239086,41.811279296869543,31.385986328128638,65.803955078119543,42.36181640625l22.83251953125-49.996826171878638c-19.20166015625-8.773681640621362-36.91015625-20.222167968742724-52.66357421875-33.880859374992724Z" style="fill: #8a7b77; stroke: #181818; stroke-width: 2px;"/>
          </a>
          <a xlink:href="https://www.notion.so/dmmnotes/externally-assembled-self-994ecb0895b844409b931d74a045c162?pvs=4">
            <path id="A8-2" data-name="A8" d="M208.60009765625,500.140380859369543l-22.83251953125,49.996826171878638c23.45556640625,10.7314453125,48.659423828119543,18.275146484371362,75.098632812510914,22.04296875l7.825683593739086-54.4306640625c-21.15673828125-3.0078125-41.3251953125-9.0341796875-60.091796875-17.609130859378638Z" style="fill: #8a7b77; stroke: #181818; stroke-width: 2px;"/>
          </a>
          <a xlink:href="https://www.notion.so/dmmnotes/psychopathy-0fe4a3222d9f4fd097ab4546c9776768?pvs=4">
            <path id="AC-2" data-name="AC" d="M300,519.999999999998181c-10.634765625,0-21.076171875-.794921875-31.30810546875-2.25048828125l-7.825683593739086,54.4306640625c12.788574218739086,1.823486328128638,25.843017578119543,2.81982421875,39.133789062489086,2.81982421875s26.345214843760914-.996337890621362,39.1337890625-2.81982421875l-7.825683593739086-54.4306640625c-10.229248046891371,1.45556640625-20.673339843760914,2.25048828125-31.308105468760914,2.25048828125Z" style="fill: #90817d; stroke: #181818; stroke-width: 2px;"/>
          </a>
          <a xlink:href="https://www.notion.so/dmmnotes/menacing-a5bd7149286344deba45ec15e759e579?pvs=4">
            <g id="C7-5" data-name="C7">
              <path d="M414.2353515625,551.137695312487267c-.1181640625,0-.236328125-.0205078125-.349609375-.0625-.248046875-.0927734375-.4501953125-.2802734375-.5595703125-.5224609375l-22.8330078125-49.9970703125c-.2294921875-.501953125-.0087890625-1.0947265625.4931640625-1.32421875,18.974609375-8.6708984375,36.61328125-20.0185546875,52.4248046875-33.7275390625.1826171875-.158203125.4150390625-.244140625.6552734375-.244140625.0234375,0,.0478515625.0009765625.0712890625.0029296875.2646484375.0185546875.5107421875.1416015625.6845703125.341796875l35.97265625,41.515625c.361328125.41796875.31640625,1.048828125-.1005859375,1.4111328125-19.91796875,17.2734375-42.138671875,31.578125-66.04296875,42.515625-.1318359375.060546875-.2734375.0908203125-.416015625.0908203125Z" style="fill: #d3805f; stroke-width: 0px;"/>
              <path d="M444.066162109375,466.259521484362267l35.972900390625,41.515869140625c-19.687744140625,17.07470703125-41.81396484375,31.385986328125-65.803955078125,42.36181640625l-22.83251953125-49.996826171875c19.204345703125-8.7763671875,36.91015625-20.22216796875,52.66357421875-33.880859375M444.0660400390625,464.259521484362267c-.4796142578125,0-.9451904296875.17254638671875-1.31005859375.4888916015625-15.7371826171875,13.6446533203125-33.294677734375,24.940185546875-52.1846923828125,33.57293701171875-1.00439453125.458984375-1.44677734375,1.645263671875-.9879150390625,2.64984130859375l22.83251953125,49.996826171875c.2203369140625.48272705078125.6236572265625.8580322265625,1.1209716796875,1.0433349609375.2254638671875.08404541015625.4620361328125.1258544921875.6982421875.1258544921875.284423828125,0,.568359375-.0606689453125.83203125-.18133544921875,23.99169921875-10.9765625,46.292236328125-25.33270263671875,66.2823486328125-42.6695556640625.8341064453125-.72344970703125.9241943359375-1.986083984375.2010498046875-2.82061767578125l-35.972900390625-41.515869140625c-.347412109375-.4010009765625-.83984375-.6474609375-1.369140625-.68524169921875-.0474853515625-.00335693359375-.0950927734375-.00506591796875-.1424560546875-.00506591796875h0Z" style="fill: #181818; stroke-width: 0px;"/>
            </g>
          </a>
        </g>
      </g>
      <g>
        <path d="M440.09375,501.079101562487267c.01953125.263671875.041015625.572265625.060546875.9267578125s.025390625.69921875.015625,1.033203125-.041015625.6279296875-.091796875.880859375c-.05078125.25390625-.13671875.400390625-.2578125.44140625,0,.0400390625-.01953125.1015625-.060546875.181640625-1.5,2.3505859375-2.78125,4.8173828125-3.84375,7.400390625-1.064453125,2.5830078125-1.900390625,5.2421875-2.5078125,7.9775390625v.0302734375c0,.041015625-.021484375.0810546875-.060546875.1220703125-.041015625.0400390625-.076171875.0908203125-.107421875.1513671875-.029296875.0615234375-.0859375.1318359375-.166015625.212890625-.1015625.1015625-.263671875.197265625-.486328125.2890625-.224609375.0908203125-.517578125.1162109375-.8828125.076171875-.36328125-.041015625-.728515625-.091796875-1.09375-.15234375-.36328125-.060546875-.69921875-.1572265625-1.001953125-.2890625-.3046875-.130859375-.546875-.3232421875-.73046875-.5771484375-.181640625-.2529296875-.263671875-.58203125-.2421875-.9873046875.01953125-.22265625.1015625-.638671875.2421875-1.24609375.142578125-.6083984375.35546875-1.337890625.638671875-2.1884765625.283203125-.87109375.6171875-1.802734375,1.00390625-2.7958984375.384765625-.9921875.80859375-1.9755859375,1.275390625-2.9482421875.466796875-.9921875.947265625-1.9296875,1.443359375-2.810546875.49609375-.8818359375.95703125-1.646484375,1.3828125-2.294921875v-.060546875c-2.41015625,0-4.78125-.0302734375-7.111328125-.0908203125-.142578125-.0205078125-.2734375-.091796875-.39453125-.212890625-.1015625-.1015625-.197265625-.2529296875-.2890625-.4560546875-.091796875-.2021484375-.146484375-.4755859375-.166015625-.8203125-.021484375-.365234375-.02734375-.734375-.015625-1.109375.009765625-.375.044921875-.724609375.10546875-1.048828125.060546875-.3232421875.162109375-.5966796875.3046875-.8203125.140625-.22265625.34375-.3642578125.607421875-.42578125.12109375-.01953125.384765625-.0244140625.791015625-.0146484375.404296875.009765625.896484375.0302734375,1.47265625.060546875.578125.0302734375,1.216796875.0712890625,1.9140625.12109375.69921875.05078125,1.404296875.0966796875,2.11328125.1376953125.708984375.0400390625,1.392578125.0751953125,2.05078125.10546875.658203125.03125,1.251953125.06640625,1.77734375.1064453125.609375.041015625,1.17578125.0712890625,1.703125.091796875.1015625-.0205078125.19140625.009765625.2734375.0908203125.080078125.060546875.15234375.1572265625.212890625.2890625s.1015625.3388671875.12109375.623046875Z" style="fill: none; stroke: #181818; stroke-width: 5.631003379821777px;"/>
        <path d="M440.09375,501.079101562487267c.01953125.263671875.041015625.572265625.060546875.9267578125s.025390625.69921875.015625,1.033203125-.041015625.6279296875-.091796875.880859375c-.05078125.25390625-.13671875.400390625-.2578125.44140625,0,.0400390625-.01953125.1015625-.060546875.181640625-1.5,2.3505859375-2.78125,4.8173828125-3.84375,7.400390625-1.064453125,2.5830078125-1.900390625,5.2421875-2.5078125,7.9775390625v.0302734375c0,.041015625-.021484375.0810546875-.060546875.1220703125-.041015625.0400390625-.076171875.0908203125-.107421875.1513671875-.029296875.0615234375-.0859375.1318359375-.166015625.212890625-.1015625.1015625-.263671875.197265625-.486328125.2890625-.224609375.0908203125-.517578125.1162109375-.8828125.076171875-.36328125-.041015625-.728515625-.091796875-1.09375-.15234375-.36328125-.060546875-.69921875-.1572265625-1.001953125-.2890625-.3046875-.130859375-.546875-.3232421875-.73046875-.5771484375-.181640625-.2529296875-.263671875-.58203125-.2421875-.9873046875.01953125-.22265625.1015625-.638671875.2421875-1.24609375.142578125-.6083984375.35546875-1.337890625.638671875-2.1884765625.283203125-.87109375.6171875-1.802734375,1.00390625-2.7958984375.384765625-.9921875.80859375-1.9755859375,1.275390625-2.9482421875.466796875-.9921875.947265625-1.9296875,1.443359375-2.810546875.49609375-.8818359375.95703125-1.646484375,1.3828125-2.294921875v-.060546875c-2.41015625,0-4.78125-.0302734375-7.111328125-.0908203125-.142578125-.0205078125-.2734375-.091796875-.39453125-.212890625-.1015625-.1015625-.197265625-.2529296875-.2890625-.4560546875-.091796875-.2021484375-.146484375-.4755859375-.166015625-.8203125-.021484375-.365234375-.02734375-.734375-.015625-1.109375.009765625-.375.044921875-.724609375.10546875-1.048828125.060546875-.3232421875.162109375-.5966796875.3046875-.8203125.140625-.22265625.34375-.3642578125.607421875-.42578125.12109375-.01953125.384765625-.0244140625.791015625-.0146484375.404296875.009765625.896484375.0302734375,1.47265625.060546875.578125.0302734375,1.216796875.0712890625,1.9140625.12109375.69921875.05078125,1.404296875.0966796875,2.11328125.1376953125.708984375.0400390625,1.392578125.0751953125,2.05078125.10546875.658203125.03125,1.251953125.06640625,1.77734375.1064453125.609375.041015625,1.17578125.0712890625,1.703125.091796875.1015625-.0205078125.19140625.009765625.2734375.0908203125.080078125.060546875.15234375.1572265625.212890625.2890625s.1015625.3388671875.12109375.623046875Z" style="fill: #231f20; stroke-width: 0px;"/>
        <path d="M440.09375,501.079101562487267c.01953125.263671875.041015625.572265625.060546875.9267578125s.025390625.69921875.015625,1.033203125-.041015625.6279296875-.091796875.880859375c-.05078125.25390625-.13671875.400390625-.2578125.44140625,0,.0400390625-.01953125.1015625-.060546875.181640625-1.5,2.3505859375-2.78125,4.8173828125-3.84375,7.400390625-1.064453125,2.5830078125-1.900390625,5.2421875-2.5078125,7.9775390625v.0302734375c0,.041015625-.021484375.0810546875-.060546875.1220703125-.041015625.0400390625-.076171875.0908203125-.107421875.1513671875-.029296875.0615234375-.0859375.1318359375-.166015625.212890625-.1015625.1015625-.263671875.197265625-.486328125.2890625-.224609375.0908203125-.517578125.1162109375-.8828125.076171875-.36328125-.041015625-.728515625-.091796875-1.09375-.15234375-.36328125-.060546875-.69921875-.1572265625-1.001953125-.2890625-.3046875-.130859375-.546875-.3232421875-.73046875-.5771484375-.181640625-.2529296875-.263671875-.58203125-.2421875-.9873046875.01953125-.22265625.1015625-.638671875.2421875-1.24609375.142578125-.6083984375.35546875-1.337890625.638671875-2.1884765625.283203125-.87109375.6171875-1.802734375,1.00390625-2.7958984375.384765625-.9921875.80859375-1.9755859375,1.275390625-2.9482421875.466796875-.9921875.947265625-1.9296875,1.443359375-2.810546875.49609375-.8818359375.95703125-1.646484375,1.3828125-2.294921875v-.060546875c-2.41015625,0-4.78125-.0302734375-7.111328125-.0908203125-.142578125-.0205078125-.2734375-.091796875-.39453125-.212890625-.1015625-.1015625-.197265625-.2529296875-.2890625-.4560546875-.091796875-.2021484375-.146484375-.4755859375-.166015625-.8203125-.021484375-.365234375-.02734375-.734375-.015625-1.109375.009765625-.375.044921875-.724609375.10546875-1.048828125.060546875-.3232421875.162109375-.5966796875.3046875-.8203125.140625-.22265625.34375-.3642578125.607421875-.42578125.12109375-.01953125.384765625-.0244140625.791015625-.0146484375.404296875.009765625.896484375.0302734375,1.47265625.060546875.578125.0302734375,1.216796875.0712890625,1.9140625.12109375.69921875.05078125,1.404296875.0966796875,2.11328125.1376953125.708984375.0400390625,1.392578125.0751953125,2.05078125.10546875.658203125.03125,1.251953125.06640625,1.77734375.1064453125.609375.041015625,1.17578125.0712890625,1.703125.091796875.1015625-.0205078125.19140625.009765625.2734375.0908203125.080078125.060546875.15234375.1572265625.212890625.2890625s.1015625.3388671875.12109375.623046875Z" style="fill: #e2dddb; stroke-width: 0px;"/>
      </g>
    </g>
  </g>
</svg>