<?xml version="1.0" encoding="UTF-8"?>
<svg id="Layer_1" data-name="Layer 1" xmlns="http://www.w3.org/2000/svg" xmlns:xlink="http://www.w3.org/1999/xlink" viewBox="0 0 600 599.999999999996362">
  <defs>
    <linearGradient id="A4-3" data-name="A4" x1="202.033261979866438" y1="407.834541503885703" x2="292.462559695575521" y2="294.569562546849795" gradientUnits="userSpaceOnUse">
      <stop offset="0" stop-color="#7d67a2"/>
      <stop offset=".385181145631382" stop-color="#895ea4"/>
      <stop offset=".489316239316239" stop-color="#8e5ba6"/>
      <stop offset=".841924594895194" stop-color="#9a5c9d"/>
      <stop offset="1" stop-color="#a25d99"/>
    </linearGradient>
    <linearGradient id="C4-3" data-name="C4" x1="275.541802728692346" y1="434.779431890373417" x2="434.992695519666484" y2="247.954995272644226" gradientUnits="userSpaceOnUse">
      <stop offset="0" stop-color="#7e9e4c"/>
      <stop offset=".487868088942308" stop-color="#91a23d"/>
      <stop offset=".713373248351595" stop-color="#9d9c43"/>
      <stop offset="1" stop-color="#b4924e"/>
    </linearGradient>
  </defs>
  <g id="pie_with_links_-5" data-name="pie (with links)">
    <g id="pie_with_links_-6" data-name="pie (with links)">
      <g id="Pie">
        <g>
          <a xlink:href="https://www.notion.so/dmmnotes/paranoid-ae38b1e6af0c4dd08f61e0d8f6e9f05f?pvs=4">
            <path id="C8" d="M331.30810546875,517.749511718746362l7.825683593739086,54.4306640625c26.439208984371362-3.767822265619543,51.645751953141371-11.3115234375,75.101318359371362-22.04296875l-22.832519531240905-49.996826171869543c-18.7666015625,8.572265625-38.93505859375,14.601318359369543-60.094482421869543,17.609130859369543Z" fill="none" stroke="#181818" stroke-linecap="round" stroke-linejoin="round" stroke-width="15"/>
          </a>
          <a xlink:href="https://www.notion.so/dmmnotes/menacing-a5bd7149286344deba45ec15e759e579?pvs=4">
            <path id="C7" d="M391.402587890619543,500.140380859376819l22.832519531240905,49.996826171869543c23.989990234389552-10.975830078119543,46.116210937520009-25.287109375010914,65.803955078139552-42.36181640625l-35.972900390630457-41.515869140619543c-15.753417968759095,13.65869140625-33.459228515630457,25.1044921875-52.66357421875,33.880859375Z" fill="none" stroke="#181818" stroke-linecap="round" stroke-linejoin="round" stroke-width="15"/>
          </a>
          <a xlink:href="https://www.notion.so/dmmnotes/seductively-obsessed-with-rescue-6fb5a68f6d334bc29ccccc16d8a4e56e?pvs=4">
            <path id="C6" d="M444.066162109369543,466.259521484376819l35.972900390630457,41.515869140619543c19.762939453119543-17.141845703119543,37.047119140619543-37.041748046869543,51.26708984375-59.125l-46.223632812510914-29.704833984369543c-11.373291015619543,17.673583984369543-25.201171874989086,33.598876953119543-41.016357421869543,47.31396484375Z" fill="none" stroke="#181818" stroke-linecap="round" stroke-linejoin="round" stroke-width="15"/>
          </a>
          <a xlink:href="https://www.notion.so/dmmnotes/punitively-obsessed-with-revenge-33d2e77f37774316b42bccf4a60f9688?pvs=4">
            <path id="C5" d="M485.082519531239086,418.945556640626819l46.223632812510914,29.704833984369543c14.048095703130457-21.809326171869543,25.08837890625-45.71875,32.551513671869543-71.175048828119543l-52.7548828125-15.490234375c-5.9619140625,20.3779296875-14.789306640619543,39.509765625-26.020263671880457,56.96044921875Z" fill="none" stroke="#181818" stroke-linecap="round" stroke-linejoin="round" stroke-width="15"/>
          </a>
          <a xlink:href="https://www.notion.so/dmmnotes/disarming-086276e599884c86b9359acf831a8b20?pvs=4">
            <path id="C2" d="M511.102783203119543,238.014892578110448l52.7548828125-15.490234375c-7.463134765619543-25.456298828121362-18.503417968739086-49.365722656239086-32.551513671869543-71.177734374989086l-46.223632812510914,29.70751953125c11.230957031260914,17.45068359375,20.055664062510914,36.585205078117724,26.020263671880457,56.960449218739086Z" fill="none" stroke="#181818" stroke-linecap="round" stroke-linejoin="round" stroke-width="15"/>
          </a>
          <a xlink:href="https://www.notion.so/dmmnotes/threatening-348fe6a52f7a4fe69f768e98c6586932?pvs=4">
            <path id="C1" d="M485.082519531239086,181.054443359371362l46.223632812510914-29.70751953125c-14.219970703130457-22.08056640625-31.504150390630457-41.980468750010914-51.26708984375-59.122314453121362l-35.972900390630457,41.518554687489086c15.815185546880457,13.71240234375,29.64306640625,29.637695312510914,41.016357421869543,47.311279296882276Z" fill="none" stroke="#181818" stroke-linecap="round" stroke-linejoin="round" stroke-width="15"/>
          </a>
          <a xlink:href="https://www.notion.so/dmmnotes/complaining-acceptance-8b40401a720c493ba73f7cde1567cf3d?pvs=4">
            <path id="B5" d="M444.066162109369543,133.743164062489086l35.972900390630457-41.518554687489086c-19.687744140619543-17.07470703125-41.81396484375-31.388671875-65.803955078139552-42.36181640625l-22.832519531240905,49.99951171875c19.204345703119543,8.773681640621362,36.910156249990905,20.22216796875,52.66357421875,33.880859374989086Z" fill="none" stroke="#181818" stroke-linecap="round" stroke-linejoin="round" stroke-width="15"/>
          </a>
          <a xlink:href="https://www.notion.so/dmmnotes/sentimental-bc554363322342b1b7ca4ccc02125049?pvs=4">
            <path id="B4" d="M391.402587890619543,99.8623046875l22.832519531240905-49.99951171875c-23.455566406229991-10.7314453125-48.662109375-18.275146484389552-75.101318359371362-22.042968749989086l-7.825683593739086,54.433349609360448c21.159423828119543,3.0078125,41.327880859369543,9.034179687489086,60.094482421869543,17.609130859378638Z" fill="none" stroke="#181818" stroke-linecap="round" stroke-linejoin="round" stroke-width="15"/>
          </a>
          <a xlink:href="https://www.notion.so/dmmnotes/comfortably-balanced-e76dc615a8b947aa915377cd02fcf716?pvs=4">
            <path id="B3" d="M299.999999999989086,80c10.634765625,0,21.078857421871362.797607421871362,31.308105468760914,2.253173828121362l7.825683593739086-54.433349609360448c-12.788574218739086-1.823486328139552-25.843017578128638-2.819824218760914-39.1337890625-2.819824218760914-13.290771484369543,0-26.34521484375.996337890621362-39.133789062489086,2.819824218760914l7.825683593739086,54.433349609360448c10.23193359375-1.45556640625,20.67333984375-2.253173828121362,31.30810546875-2.253173828121362Z" fill="none" stroke="#181818" stroke-linecap="round" stroke-linejoin="round" stroke-width="15"/>
          </a>
          <a xlink:href="https://www.notion.so/dmmnotes/accepting-317d81273fff4cd9817cdf4a88efd378?pvs=4">
            <path id="B2" d="M268.691894531239086,82.253173828121362l-7.825683593739086-54.433349609360448c-26.439208984389552,3.767822265599534-51.643066406260914,11.311523437489086-75.098632812510914,22.042968749989086l22.83251953125,49.99951171875c18.7666015625-8.574951171889552,38.93505859375-14.601318359378638,60.091796875-17.609130859378638Z" fill="none" stroke="#181818" stroke-linecap="round" stroke-linejoin="round" stroke-width="15"/>
          </a>
          <a xlink:href="https://www.notion.so/dmmnotes/distanced-from-past-2eabab7e9c77429f8e577f4e3e203653?pvs=4">
            <path id="B1" d="M208.600097656239086,99.8623046875l-22.83251953125-49.99951171875c-23.99267578125,10.97314453125-46.1162109375,25.287109375-65.803955078119543,42.36181640625l35.972900390619543,41.515869140621362c15.75341796875-13.658691406260914,33.4619140625-25.1044921875,52.66357421875-33.878173828121362Z" fill="none" stroke="#181818" stroke-linecap="round" stroke-linejoin="round" stroke-width="15"/>
          </a>
          <a xlink:href="https://www.notion.so/dmmnotes/idealising-a52277f51ed14a42aae78081bb34b8be?pvs=4">
            <path id="A1" d="M155.936523437489086,133.740478515621362l-35.972900390619543-41.515869140621362c-19.765625,17.141845703110448-37.049804687509095,37.041748046871362-51.269775390630457,59.122314453121362l46.226318359371362,29.70751953125c11.373291015639552-17.673583984371362,25.201171875009095-33.598876953132276,41.016357421878638-47.31396484375Z" fill="none" stroke="#181818" stroke-linecap="round" stroke-linejoin="round" stroke-width="15"/>
          </a>
          <a xlink:href="https://www.notion.so/dmmnotes/distancing-9ac690cdca654729a17a5a255944e2d1?pvs=4">
            <path id="A2" d="M114.920166015610448,181.054443359371362l-46.226318359371362-29.70751953125c-14.04541015625,21.81201171875-25.08837890625,45.721435546867724-32.551513671878638,71.177734374989086l52.754882812509095,15.490234375c5.964599609369543-20.375244140621362,14.7919921875-39.509765624989086,26.022949218740905-56.960449218739086Z" fill="none" stroke="#181818" stroke-linecap="round" stroke-linejoin="round" stroke-width="15"/>
          </a>
          <a xlink:href="https://www.notion.so/dmmnotes/sexual-supplementation-8e85f49046ef412aa229745abf7d38d3?pvs=4">
            <path id="A5" d="M88.897216796869543,361.985107421876819l-52.754882812509095,15.490234375c7.463134765628638,25.456298828119543,18.506103515628638,49.36572265625,32.551513671878638,71.175048828119543l46.223632812510914-29.704833984369543c-11.230957031260914-17.45068359375-20.055664062510914-36.58251953125-26.020263671880457-56.96044921875Z" fill="none" stroke="#181818" stroke-linecap="round" stroke-linejoin="round" stroke-width="15"/>
          </a>
          <a xlink:href="https://www.notion.so/dmmnotes/compulsive-isolated-self-reliance-b321873a73fa41aaaadd7192fde856a2?pvs=4">
            <path id="A6" d="M114.91748046875,418.945556640626819l-46.223632812510914,29.704833984369543c14.219970703121362,22.083251953130457,31.504150390630457,41.983154296880457,51.269775390630457,59.125l35.972900390619543-41.515869140619543c-15.815185546869543-13.71240234375-29.643066406239086-29.6376953125-41.019042968739086-47.31396484375Z" fill="none" stroke="#181818" stroke-linecap="round" stroke-linejoin="round" stroke-width="15"/>
          </a>
          <a xlink:href="https://www.notion.so/dmmnotes/delusional-idealization-743e2420b9994a48a7cab68190432e8a?pvs=4">
            <path id="A7" d="M155.936523437489086,466.259521484376819l-35.972900390619543,41.515869140619543c19.687744140619543,17.074707031239086,41.811279296869543,31.385986328130457,65.803955078119543,42.36181640625l22.83251953125-49.996826171869543c-19.20166015625-8.773681640630457-36.91015625-20.22216796875-52.66357421875-33.880859375Z" fill="none" stroke="#181818" stroke-linecap="round" stroke-linejoin="round" stroke-width="15"/>
          </a>
          <a xlink:href="https://www.notion.so/dmmnotes/externally-assembled-self-994ecb0895b844409b931d74a045c162?pvs=4">
            <path id="A8" d="M208.600097656239086,500.140380859376819l-22.83251953125,49.996826171869543c23.45556640625,10.7314453125,48.659423828121362,18.275146484380457,75.098632812510914,22.04296875l7.825683593739086-54.4306640625c-21.15673828125-3.0078125-41.3251953125-9.0341796875-60.091796875-17.609130859369543Z" fill="none" stroke="#181818" stroke-linecap="round" stroke-linejoin="round" stroke-width="15"/>
          </a>
          <a xlink:href="https://www.notion.so/dmmnotes/psychopathy-0fe4a3222d9f4fd097ab4546c9776768?pvs=4">
            <path id="AC" d="M299.999999999989086,519.999999999996362c-10.634765625,0-21.076171875-.794921875-31.30810546875-2.25048828125l-7.825683593739086,54.4306640625c12.788574218739086,1.823486328130457,25.843017578119543,2.81982421875,39.133789062489086,2.81982421875,13.290771484371362,0,26.345214843760914-.996337890619543,39.1337890625-2.81982421875l-7.825683593739086-54.4306640625c-10.229248046889552,1.45556640625-20.673339843760914,2.25048828125-31.308105468760914,2.25048828125Z" fill="none" stroke="#181818" stroke-linecap="round" stroke-linejoin="round" stroke-width="15"/>
          </a>
          <a xlink:href="https://www.notion.so/dmmnotes/compulsive-caregiving-9c380c0928294f41ae10764aa0dee886?pvs=4">
            <g id="A3">
              <path d="M25,300.999999999996362c-.55224609375,0-1-.447265625-1-1,0-26.28125,3.762451171880457-52.4423828125,11.1826171875-77.7568359375.07470703125-.2548828125.24755859375-.46875.480224609380457-.5966796875.1484375-.0810546875.3134765625-.1220703125.4794921875-.1220703125.094482421869543,0,.189453125.013671875.28173828125.0400390625l52.7548828125,15.490234375c.529541015619543.15625.8330078125.7109375.677978515619543,1.2412109375-5.876953125,20.080078125-8.85693359375,40.8408203125-8.85693359375,61.7041015625,0,.552734375-.44775390625,1-1,1H25Z" fill="none" stroke="#181818" stroke-linecap="round" stroke-linejoin="round" stroke-width="15"/>
              <path d="M36.14208984375,222.524658203121362l52.7548828125,15.490234375c-5.7548828125,19.66357421875-8.89697265625,40.44970703125-8.89697265625,61.985107421875H25c0-26.911865234375,3.93701171875-52.89453125,11.14208984375-77.475341796875M36.14208984375,220.524658203121362c-.33203125,0-.662109375.082763671875-.958984375.244873046875-.46533203125.25439453125-.81103515625.68341064453125-.96044921875,1.19256591796875-7.44677734375,25.40594482421875-11.22265625,51.66168212890625-11.22265625,78.03790283203125,0,1.1046142578125.8955078125,2,2,2h55c1.1044921875,0,2-.8953857421875,2-2,0-20.76837158203125,2.96630859375-41.4342041015625,8.81640625-61.42333984375.31005859375-1.0594482421875-.296875-2.16973876953125-1.35595703125-2.48077392578125l-52.7548828125-15.490234375c-.1845703125-.05419921875-.37451171875-.08099365234375-.5634765625-.08099365234375h0Z" fill="none" stroke="#181818" stroke-linecap="round" stroke-linejoin="round" stroke-width="15"/>
            </g>
          </a>
          <a xlink:href="https://www.notion.so/dmmnotes/compulsive-compliance-6d08b7ea9a424ce1a72b9184b7850414?pvs=4">
            <g id="A4">
              <path d="M36.142333984380457,378.475585937496362c-.166015625,0-.3310546875-.041015625-.4794921875-.1220703125-.232666015630457-.1279296875-.405517578130457-.341796875-.480224609380457-.5966796875-7.420166015619543-25.314453125-11.1826171875-51.4755859375-11.1826171875-77.7568359375,0-.552734375.44775390625-1,1-1h55c.55224609375,0,1,.447265625,1,1,0,20.86328125,2.97998046875,41.6240234375,8.85693359375,61.7041015625.155029296880457.5302734375-.1484375,1.0849609375-.677978515619543,1.2412109375l-52.7548828125,15.490234375c-.09228515625.0263671875-.187255859380457.0400390625-.28173828125.0400390625Z" fill="none" stroke="#181818" stroke-linecap="round" stroke-linejoin="round" stroke-width="15"/>
              <path d="M80,299.999999999996362c0,21.5380859375,3.14208984375,42.321533203125,8.89697265625,61.985107421875l-52.7548828125,15.490234375c-7.205078125-24.580810546875-11.14208984375-50.5634765625-11.14208984375-77.475341796875h55M80,297.999999999996362H25c-1.1044921875,0-2,.8953857421875-2,2,0,26.376220703125,3.77587890625,52.6319580078125,11.22265625,78.0379638671875.1494140625.5091552734375.4951171875.9381103515625.96044921875,1.1925048828125.296875.162109375.626953125.244873046875.958984375.244873046875.18896484375,0,.37890625-.0267333984375.5634765625-.0810546875l52.7548828125-15.490234375c1.05908203125-.3109130859375,1.666015625-1.4212646484375,1.35595703125-2.480712890625-5.85009765625-19.9891357421875-8.81640625-40.6549072265625-8.81640625-61.42333984375,0-1.1046142578125-.8955078125-2-2-2h0Z" fill="none" stroke="#181818" stroke-linecap="round" stroke-linejoin="round" stroke-width="15"/>
            </g>
          </a>
          <a xlink:href="https://www.notion.so/dmmnotes/feigned-helpless-e79a94b0498c4e109a681b7f3dcdb088?pvs=4">
            <g id="C4">
              <path d="M563.857421875,378.475585937496362c-.0947265625,0-.189453125-.013671875-.28173828125-.0400390625l-52.754638671869543-15.490234375c-.529541015630457-.15625-.8330078125-.7109375-.677978515630457-1.2412109375,5.876953125-20.080078125,8.85693359375-40.8408203125,8.85693359375-61.7041015625,0-.552734375.44775390625-1,1-1h55c.55224609375,0,1,.447265625,1,1,0,26.287109375-3.7626953125,52.4482421875-11.18310546875,77.7568359375-.07470703125.2548828125-.2470703125.46875-.47998046875.5966796875-.1484375.0810546875-.3134765625.1220703125-.4794921875.1220703125Z" fill="none" stroke="#181818" stroke-linecap="round" stroke-linejoin="round" stroke-width="15"/>
              <path d="M575,299.999999999996362h.0048828125M575,299.999999999996362c0,26.911865234375-3.934326171869543,52.891845703125-11.142333984369543,77.475341796875l-52.7548828125-15.490234375c5.755126953119543-19.66357421875,8.897216796869543-40.447021484375,8.897216796869543-61.985107421875h55M575.0048828125,297.999999999996362h-55.0048828125c-1.1044921875,0-2,.8953857421875-2,2,0,20.7686767578125-2.96630859375,41.4344482421875-8.816650390619543,61.42333984375-.31005859375,1.0594482421875.296875,2.1697998046875,1.35595703125,2.480712890625l52.7548828125,15.490234375c.1845703125.05419921875.37451171875.0810546875.5634765625.0810546875.33203125,0,.662109375-.082763671875.958740234369543-.244873046875.4658203125-.2542724609375.811279296880457-.6832275390625.96044921875-1.1923828125,7.4375-25.366455078125,11.21337890625-51.587890625,11.22314453125-77.93701171875.001708984380457-.033447265625.00244140625-.067138671875.00244140625-.10107421875,0-1.1046142578125-.892822265619543-2-1.99755859375-2h0ZM575,301.999999999996362h.0048828125-.0048828125Z" fill="none" stroke="#181818" stroke-linecap="round" stroke-linejoin="round" stroke-width="15"/>
            </g>
          </a>
          <a xlink:href="https://www.notion.so/dmmnotes/aggressive-2d8ccce383534b9dbfc7b4b10b8a5d5c?pvs=4">
            <g id="C3">
              <path d="M520,300.999999999996362c-.55224609375,0-1-.447265625-1-1,0-20.86328125-2.97998046875-41.6240234375-8.85693359375-61.7041015625-.155029296869543-.5302734375.1484375-1.0849609375.677978515630457-1.2412109375l52.754638671869543-15.490234375c.09228515625-.0263671875.18701171875-.0400390625.28173828125-.0400390625.166015625,0,.3310546875.041015625.4794921875.1220703125.23291015625.1279296875.4052734375.341796875.47998046875.5966796875,7.42041015625,25.3056640625,11.18310546875,51.466796875,11.18310546875,77.7568359375,0,.552734375-.44775390625,1-1,1h-55Z" fill="none" stroke="#181818" stroke-linecap="round" stroke-linejoin="round" stroke-width="15"/>
              <path d="M563.857666015630457,222.524658203121362c7.2080078125,24.580810546875,11.142333984369543,50.5634765625,11.142333984369543,77.475341796875h-55c0-21.535400390625-3.14208984375-42.321533203125-8.897216796869543-61.985107421875l52.7548828125-15.490234375M563.857666015630457,220.524658203121362c-.189208984380457,0-.37890625.02679443359375-.5634765625.08099365234375l-52.7548828125,15.490234375c-1.05908203125.31103515625-1.666015625,1.42132568359375-1.35595703125,2.48077392578125,5.850341796869543,19.9888916015625,8.816650390619543,40.6546630859375,8.816650390619543,61.42333984375,0,1.1046142578125.8955078125,2,2,2h55c1.1044921875,0,2-.8953857421875,2-2,0-26.385986328125-3.776123046869543-52.64178466796875-11.22314453125-78.0380859375-.149169921869543-.5091552734375-.494873046869543-.9381103515625-.96044921875-1.19244384765625-.296630859369543-.162109375-.626708984369543-.24481201171875-.958740234369543-.24481201171875h0Z" fill="none" stroke="#181818" stroke-linecap="round" stroke-linejoin="round" stroke-width="15"/>
            </g>
          </a>
        </g>
        <g>
          <a xlink:href="https://www.notion.so/dmmnotes/paranoid-ae38b1e6af0c4dd08f61e0d8f6e9f05f?pvs=4">
            <path id="C8-2" data-name="C8" d="M331.30810546875,517.749511718746362l7.825683593739086,54.4306640625c26.439208984371362-3.767822265619543,51.645751953141371-11.3115234375,75.101318359371362-22.04296875l-22.832519531240905-49.996826171869543c-18.7666015625,8.572265625-38.93505859375,14.601318359369543-60.094482421869543,17.609130859369543Z" fill="#8f807d" stroke="#181818" stroke-linecap="round" stroke-linejoin="round" stroke-width="2"/>
          </a>
          <a xlink:href="https://www.notion.so/dmmnotes/menacing-a5bd7149286344deba45ec15e759e579?pvs=4">
            <path id="C7-2" data-name="C7" d="M391.402587890619543,500.140380859376819l22.832519531240905,49.996826171869543c23.989990234389552-10.975830078119543,46.116210937520009-25.287109375010914,65.803955078139552-42.36181640625l-35.972900390630457-41.515869140619543c-15.753417968759095,13.65869140625-33.459228515630457,25.1044921875-52.66357421875,33.880859375Z" fill="#8f807d" stroke="#181818" stroke-linecap="round" stroke-linejoin="round" stroke-width="2"/>
          </a>
          <a xlink:href="https://www.notion.so/dmmnotes/seductively-obsessed-with-rescue-6fb5a68f6d334bc29ccccc16d8a4e56e?pvs=4">
            <path id="C6-2" data-name="C6" d="M444.066162109369543,466.259521484376819l35.972900390630457,41.515869140619543c19.762939453119543-17.141845703119543,37.047119140619543-37.041748046869543,51.26708984375-59.125l-46.223632812510914-29.704833984369543c-11.373291015619543,17.673583984369543-25.201171874989086,33.598876953119543-41.016357421869543,47.31396484375Z" fill="#8f807d" stroke="#181818" stroke-linecap="round" stroke-linejoin="round" stroke-width="2"/>
          </a>
          <a xlink:href="https://www.notion.so/dmmnotes/punitively-obsessed-with-revenge-33d2e77f37774316b42bccf4a60f9688?pvs=4">
            <path id="C5-2" data-name="C5" d="M485.082519531239086,418.945556640626819l46.223632812510914,29.704833984369543c14.048095703130457-21.809326171869543,25.08837890625-45.71875,32.551513671869543-71.175048828119543l-52.7548828125-15.490234375c-5.9619140625,20.3779296875-14.789306640619543,39.509765625-26.020263671880457,56.96044921875Z" fill="#8f807d" stroke="#181818" stroke-linecap="round" stroke-linejoin="round" stroke-width="2"/>
          </a>
          <a xlink:href="https://www.notion.so/dmmnotes/disarming-086276e599884c86b9359acf831a8b20?pvs=4">
            <path id="C2-2" data-name="C2" d="M511.102783203119543,238.014892578110448l52.7548828125-15.490234375c-7.463134765619543-25.456298828121362-18.503417968739086-49.365722656239086-32.551513671869543-71.177734374989086l-46.223632812510914,29.70751953125c11.230957031260914,17.45068359375,20.055664062510914,36.585205078117724,26.020263671880457,56.960449218739086Z" fill="#8f807d" stroke="#181818" stroke-linecap="round" stroke-linejoin="round" stroke-width="2"/>
          </a>
          <a xlink:href="https://www.notion.so/dmmnotes/threatening-348fe6a52f7a4fe69f768e98c6586932?pvs=4">
            <path id="C1-2" data-name="C1" d="M485.082519531239086,181.054443359371362l46.223632812510914-29.70751953125c-14.219970703130457-22.08056640625-31.504150390630457-41.980468750010914-51.26708984375-59.122314453121362l-35.972900390630457,41.518554687489086c15.815185546880457,13.71240234375,29.64306640625,29.637695312510914,41.016357421869543,47.311279296882276Z" fill="#8f807d" stroke="#181818" stroke-linecap="round" stroke-linejoin="round" stroke-width="2"/>
          </a>
          <a xlink:href="https://www.notion.so/dmmnotes/complaining-acceptance-8b40401a720c493ba73f7cde1567cf3d?pvs=4">
            <path id="B5-2" data-name="B5" d="M444.066162109369543,133.743164062489086l35.972900390630457-41.518554687489086c-19.687744140619543-17.07470703125-41.81396484375-31.388671875-65.803955078139552-42.36181640625l-22.832519531240905,49.99951171875c19.204345703119543,8.773681640621362,36.910156249990905,20.22216796875,52.66357421875,33.880859374989086Z" fill="#8f807d" stroke="#181818" stroke-linecap="round" stroke-linejoin="round" stroke-width="2"/>
          </a>
          <a xlink:href="https://www.notion.so/dmmnotes/sentimental-bc554363322342b1b7ca4ccc02125049?pvs=4">
            <path id="B4-2" data-name="B4" d="M391.402587890619543,99.8623046875l22.832519531240905-49.99951171875c-23.455566406229991-10.7314453125-48.662109375-18.275146484389552-75.101318359371362-22.042968749989086l-7.825683593739086,54.433349609360448c21.159423828119543,3.0078125,41.327880859369543,9.034179687489086,60.094482421869543,17.609130859378638Z" fill="#8f807d" stroke="#181818" stroke-linecap="round" stroke-linejoin="round" stroke-width="2"/>
          </a>
          <a xlink:href="https://www.notion.so/dmmnotes/comfortably-balanced-e76dc615a8b947aa915377cd02fcf716?pvs=4">
            <path id="B3-2" data-name="B3" d="M299.999999999989086,80c10.634765625,0,21.078857421871362.797607421871362,31.308105468760914,2.253173828121362l7.825683593739086-54.433349609360448c-12.788574218739086-1.823486328139552-25.843017578128638-2.819824218760914-39.1337890625-2.819824218760914-13.290771484369543,0-26.34521484375.996337890621362-39.133789062489086,2.819824218760914l7.825683593739086,54.433349609360448c10.23193359375-1.45556640625,20.67333984375-2.253173828121362,31.30810546875-2.253173828121362Z" fill="#8f807d" stroke="#181818" stroke-linecap="round" stroke-linejoin="round" stroke-width="2"/>
          </a>
          <a xlink:href="https://www.notion.so/dmmnotes/accepting-317d81273fff4cd9817cdf4a88efd378?pvs=4">
            <path id="B2-2" data-name="B2" d="M268.691894531239086,82.253173828121362l-7.825683593739086-54.433349609360448c-26.439208984389552,3.767822265599534-51.643066406260914,11.311523437489086-75.098632812510914,22.042968749989086l22.83251953125,49.99951171875c18.7666015625-8.574951171889552,38.93505859375-14.601318359378638,60.091796875-17.609130859378638Z" fill="#8f807d" stroke="#181818" stroke-linecap="round" stroke-linejoin="round" stroke-width="2"/>
          </a>
          <a xlink:href="https://www.notion.so/dmmnotes/distanced-from-past-2eabab7e9c77429f8e577f4e3e203653?pvs=4">
            <path id="B1-2" data-name="B1" d="M208.600097656239086,99.8623046875l-22.83251953125-49.99951171875c-23.99267578125,10.97314453125-46.1162109375,25.287109375-65.803955078119543,42.36181640625l35.972900390619543,41.515869140621362c15.75341796875-13.658691406260914,33.4619140625-25.1044921875,52.66357421875-33.878173828121362Z" fill="#8f807d" stroke="#181818" stroke-linecap="round" stroke-linejoin="round" stroke-width="2"/>
          </a>
          <a xlink:href="https://www.notion.so/dmmnotes/idealising-a52277f51ed14a42aae78081bb34b8be?pvs=4">
            <path id="A1-2" data-name="A1" d="M155.936523437489086,133.740478515621362l-35.972900390619543-41.515869140621362c-19.765625,17.141845703110448-37.049804687509095,37.041748046871362-51.269775390630457,59.122314453121362l46.226318359371362,29.70751953125c11.373291015639552-17.673583984371362,25.201171875009095-33.598876953132276,41.016357421878638-47.31396484375Z" fill="#8f807d" stroke="#181818" stroke-linecap="round" stroke-linejoin="round" stroke-width="2"/>
          </a>
          <a xlink:href="https://www.notion.so/dmmnotes/distancing-9ac690cdca654729a17a5a255944e2d1?pvs=4">
            <path id="A2-2" data-name="A2" d="M114.920166015610448,181.054443359371362l-46.226318359371362-29.70751953125c-14.04541015625,21.81201171875-25.08837890625,45.721435546867724-32.551513671878638,71.177734374989086l52.754882812509095,15.490234375c5.964599609369543-20.375244140621362,14.7919921875-39.509765624989086,26.022949218740905-56.960449218739086Z" fill="#8f807d" stroke="#181818" stroke-linecap="round" stroke-linejoin="round" stroke-width="2"/>
          </a>
          <a xlink:href="https://www.notion.so/dmmnotes/sexual-supplementation-8e85f49046ef412aa229745abf7d38d3?pvs=4">
            <path id="A5-2" data-name="A5" d="M88.897216796869543,361.985107421876819l-52.754882812509095,15.490234375c7.463134765628638,25.456298828119543,18.506103515628638,49.36572265625,32.551513671878638,71.175048828119543l46.223632812510914-29.704833984369543c-11.230957031260914-17.45068359375-20.055664062510914-36.58251953125-26.020263671880457-56.96044921875Z" fill="#8f807d" stroke="#181818" stroke-linecap="round" stroke-linejoin="round" stroke-width="2"/>
          </a>
          <a xlink:href="https://www.notion.so/dmmnotes/compulsive-isolated-self-reliance-b321873a73fa41aaaadd7192fde856a2?pvs=4">
            <path id="A6-2" data-name="A6" d="M114.91748046875,418.945556640626819l-46.223632812510914,29.704833984369543c14.219970703121362,22.083251953130457,31.504150390630457,41.983154296880457,51.269775390630457,59.125l35.972900390619543-41.515869140619543c-15.815185546869543-13.71240234375-29.643066406239086-29.6376953125-41.019042968739086-47.31396484375Z" fill="#8f807d" stroke="#181818" stroke-linecap="round" stroke-linejoin="round" stroke-width="2"/>
          </a>
          <a xlink:href="https://www.notion.so/dmmnotes/delusional-idealization-743e2420b9994a48a7cab68190432e8a?pvs=4">
            <path id="A7-2" data-name="A7" d="M155.936523437489086,466.259521484376819l-35.972900390619543,41.515869140619543c19.687744140619543,17.074707031239086,41.811279296869543,31.385986328130457,65.803955078119543,42.36181640625l22.83251953125-49.996826171869543c-19.20166015625-8.773681640630457-36.91015625-20.22216796875-52.66357421875-33.880859375Z" fill="#8f807d" stroke="#181818" stroke-linecap="round" stroke-linejoin="round" stroke-width="2"/>
          </a>
          <a xlink:href="https://www.notion.so/dmmnotes/externally-assembled-self-994ecb0895b844409b931d74a045c162?pvs=4">
            <path id="A8-2" data-name="A8" d="M208.600097656239086,500.140380859376819l-22.83251953125,49.996826171869543c23.45556640625,10.7314453125,48.659423828121362,18.275146484380457,75.098632812510914,22.04296875l7.825683593739086-54.4306640625c-21.15673828125-3.0078125-41.3251953125-9.0341796875-60.091796875-17.609130859369543Z" fill="#8f807d" stroke="#181818" stroke-linecap="round" stroke-linejoin="round" stroke-width="2"/>
          </a>
          <a xlink:href="https://www.notion.so/dmmnotes/psychopathy-0fe4a3222d9f4fd097ab4546c9776768?pvs=4">
            <path id="AC-2" data-name="AC" d="M299.999999999989086,519.999999999996362c-10.634765625,0-21.076171875-.794921875-31.30810546875-2.25048828125l-7.825683593739086,54.4306640625c12.788574218739086,1.823486328130457,25.843017578119543,2.81982421875,39.133789062489086,2.81982421875,13.290771484371362,0,26.345214843760914-.996337890619543,39.1337890625-2.81982421875l-7.825683593739086-54.4306640625c-10.229248046889552,1.45556640625-20.673339843760914,2.25048828125-31.308105468760914,2.25048828125Z" fill="#8f807d" stroke="#181818" stroke-linecap="round" stroke-linejoin="round" stroke-width="2"/>
          </a>
          <a xlink:href="https://www.notion.so/dmmnotes/compulsive-caregiving-9c380c0928294f41ae10764aa0dee886?pvs=4">
            <g id="A3-2" data-name="A3">
              <path d="M25,300.999999999996362c-.55224609375,0-1-.447265625-1-1,0-26.28125,3.762451171880457-52.4423828125,11.1826171875-77.7568359375.07470703125-.2548828125.24755859375-.46875.480224609380457-.5966796875.1484375-.0810546875.3134765625-.1220703125.4794921875-.1220703125.094482421869543,0,.189453125.013671875.28173828125.0400390625l52.7548828125,15.490234375c.529541015619543.15625.8330078125.7109375.677978515619543,1.2412109375-5.876953125,20.080078125-8.85693359375,40.8408203125-8.85693359375,61.7041015625,0,.552734375-.44775390625,1-1,1H25Z" fill="#866c99" stroke-width="0"/>
              <path d="M36.14208984375,222.524658203121362l52.7548828125,15.490234375c-5.7548828125,19.66357421875-8.89697265625,40.44970703125-8.89697265625,61.985107421875H25c0-26.911865234375,3.93701171875-52.89453125,11.14208984375-77.475341796875M36.14208984375,220.524658203121362c-.33203125,0-.662109375.082763671875-.958984375.244873046875-.46533203125.25439453125-.81103515625.68341064453125-.96044921875,1.19256591796875-7.44677734375,25.40594482421875-11.22265625,51.66168212890625-11.22265625,78.03790283203125,0,1.1046142578125.8955078125,2,2,2h55c1.1044921875,0,2-.8953857421875,2-2,0-20.76837158203125,2.96630859375-41.4342041015625,8.81640625-61.42333984375.31005859375-1.0594482421875-.296875-2.16973876953125-1.35595703125-2.48077392578125l-52.7548828125-15.490234375c-.1845703125-.05419921875-.37451171875-.08099365234375-.5634765625-.08099365234375h0Z" fill="#181818" stroke-width="0"/>
            </g>
          </a>
          <a xlink:href="https://www.notion.so/dmmnotes/compulsive-compliance-6d08b7ea9a424ce1a72b9184b7850414?pvs=4">
            <g id="A4-2" data-name="A4">
              <path d="M36.142333984380457,378.475585937496362c-.166015625,0-.3310546875-.041015625-.4794921875-.1220703125-.232666015630457-.1279296875-.405517578130457-.341796875-.480224609380457-.5966796875-7.420166015619543-25.314453125-11.1826171875-51.4755859375-11.1826171875-77.7568359375,0-.552734375.44775390625-1,1-1h55c.55224609375,0,1,.447265625,1,1,0,20.86328125,2.97998046875,41.6240234375,8.85693359375,61.7041015625.155029296880457.5302734375-.1484375,1.0849609375-.677978515619543,1.2412109375l-52.7548828125,15.490234375c-.09228515625.0263671875-.187255859380457.0400390625-.28173828125.0400390625Z" fill="#aa6490" stroke-width="0"/>
              <path d="M80,299.999999999996362c0,21.5380859375,3.14208984375,42.321533203125,8.89697265625,61.985107421875l-52.7548828125,15.490234375c-7.205078125-24.580810546875-11.14208984375-50.5634765625-11.14208984375-77.475341796875h55M80,297.999999999996362H25c-1.1044921875,0-2,.8953857421875-2,2,0,26.376220703125,3.77587890625,52.6319580078125,11.22265625,78.0379638671875.1494140625.5091552734375.4951171875.9381103515625.96044921875,1.1925048828125.296875.162109375.626953125.244873046875.958984375.244873046875.18896484375,0,.37890625-.0267333984375.5634765625-.0810546875l52.7548828125-15.490234375c1.05908203125-.3109130859375,1.666015625-1.4212646484375,1.35595703125-2.480712890625-5.85009765625-19.9891357421875-8.81640625-40.6549072265625-8.81640625-61.42333984375,0-1.1046142578125-.8955078125-2-2-2h0Z" fill="#181818" stroke-width="0"/>
            </g>
          </a>
          <a xlink:href="https://www.notion.so/dmmnotes/feigned-helpless-e79a94b0498c4e109a681b7f3dcdb088?pvs=4">
            <g id="C4-2" data-name="C4">
              <path d="M563.857421875,378.475585937496362c-.0947265625,0-.189453125-.013671875-.28173828125-.0400390625l-52.754638671869543-15.490234375c-.529541015630457-.15625-.8330078125-.7109375-.677978515630457-1.2412109375,5.876953125-20.080078125,8.85693359375-40.8408203125,8.85693359375-61.7041015625,0-.552734375.44775390625-1,1-1h55c.55224609375,0,1,.447265625,1,1,0,26.287109375-3.7626953125,52.4482421875-11.18310546875,77.7568359375-.07470703125.2548828125-.2470703125.46875-.47998046875.5966796875-.1484375.0810546875-.3134765625.1220703125-.4794921875.1220703125Z" fill="#999555" stroke-width="0"/>
              <path d="M575,299.999999999996362h.0048828125M575,299.999999999996362c0,26.911865234375-3.934326171869543,52.891845703125-11.142333984369543,77.475341796875l-52.7548828125-15.490234375c5.755126953119543-19.66357421875,8.897216796869543-40.447021484375,8.897216796869543-61.985107421875h55M575.0048828125,297.999999999996362h-55.0048828125c-1.1044921875,0-2,.8953857421875-2,2,0,20.7686767578125-2.96630859375,41.4344482421875-8.816650390619543,61.42333984375-.31005859375,1.0594482421875.296875,2.1697998046875,1.35595703125,2.480712890625l52.7548828125,15.490234375c.1845703125.05419921875.37451171875.0810546875.5634765625.0810546875.33203125,0,.662109375-.082763671875.958740234369543-.244873046875.4658203125-.2542724609375.811279296880457-.6832275390625.96044921875-1.1923828125,7.4375-25.366455078125,11.21337890625-51.587890625,11.22314453125-77.93701171875.001708984380457-.033447265625.00244140625-.067138671875.00244140625-.10107421875,0-1.1046142578125-.892822265619543-2-1.99755859375-2h0ZM575,301.999999999996362h.0048828125-.0048828125Z" fill="#181818" stroke-width="0"/>
            </g>
          </a>
          <a xlink:href="https://www.notion.so/dmmnotes/aggressive-2d8ccce383534b9dbfc7b4b10b8a5d5c?pvs=4">
            <g id="C3-2" data-name="C3">
              <path d="M520,300.999999999996362c-.55224609375,0-1-.447265625-1-1,0-20.86328125-2.97998046875-41.6240234375-8.85693359375-61.7041015625-.155029296869543-.5302734375.1484375-1.0849609375.677978515630457-1.2412109375l52.754638671869543-15.490234375c.09228515625-.0263671875.18701171875-.0400390625.28173828125-.0400390625.166015625,0,.3310546875.041015625.4794921875.1220703125.23291015625.1279296875.4052734375.341796875.47998046875.5966796875,7.42041015625,25.3056640625,11.18310546875,51.466796875,11.18310546875,77.7568359375,0,.552734375-.44775390625,1-1,1h-55Z" fill="#859658" stroke-width="0"/>
              <path d="M563.857666015630457,222.524658203121362c7.2080078125,24.580810546875,11.142333984369543,50.5634765625,11.142333984369543,77.475341796875h-55c0-21.535400390625-3.14208984375-42.321533203125-8.897216796869543-61.985107421875l52.7548828125-15.490234375M563.857666015630457,220.524658203121362c-.189208984380457,0-.37890625.02679443359375-.5634765625.08099365234375l-52.7548828125,15.490234375c-1.05908203125.31103515625-1.666015625,1.42132568359375-1.35595703125,2.48077392578125,5.850341796869543,19.9888916015625,8.816650390619543,40.6546630859375,8.816650390619543,61.42333984375,0,1.1046142578125.8955078125,2,2,2h55c1.1044921875,0,2-.8953857421875,2-2,0-26.385986328125-3.776123046869543-52.64178466796875-11.22314453125-78.0380859375-.149169921869543-.5091552734375-.494873046869543-.9381103515625-.96044921875-1.19244384765625-.296630859369543-.162109375-.626708984369543-.24481201171875-.958740234369543-.24481201171875h0Z" fill="#181818" stroke-width="0"/>
            </g>
          </a>
        </g>
      </g>
      <g>
        <path d="M59.30859375,261.12939453125c.5869140625.70947265625,1.048828125,1.56494140625,1.3828125,2.56787109375s.4501953125,1.99072265625.349609375,2.96337890625c-.0810546875.74951171875-.3037109375,1.494140625-.6689453125,2.2333984375-.3642578125.740234375-.8310546875,1.39794921875-1.3974609375,1.9755859375-.5673828125.57763671875-1.220703125,1.0439453125-1.9609375,1.39794921875-.7392578125.3544921875-1.5341796875.53173828125-2.384765625.53173828125-.52734375,0-1.064453125-.05615234375-1.611328125-.1669921875-.546875-.111328125-1.0791015625-.2685546875-1.595703125-.47119140625-.5166015625-.2021484375-.998046875-.4658203125-1.443359375-.7900390625-.4453125-.32373046875-.810546875-.69921875-1.09375-1.12451171875-.3037109375-.42529296875-.3955078125-.89111328125-.2734375-1.39794921875.12109375-.56689453125.359375-1.05859375.7138671875-1.47412109375.3544921875-.4150390625.68359375-.75439453125.9873046875-1.01806640625.162109375-.12158203125.365234375-.2021484375.6083984375-.2431640625.2431640625-.0400390625.4755859375.06103515625.69921875.30419921875.3642578125.42529296875.759765625.7646484375,1.1845703125,1.01806640625.42578125.25341796875.845703125.39501953125,1.26171875.42529296875.4150390625.0302734375.8095703125-.060546875,1.1845703125-.2734375s.6943359375-.56201171875.9580078125-1.04833984375c.1416015625-.28369140625.22265625-.58740234375.2431640625-.91162109375.01953125-.32421875-.041015625-.623046875-.1826171875-.89697265625-.1416015625-.2734375-.375-.505859375-.69921875-.69873046875-.32421875-.1923828125-.75-.30859375-1.2763671875-.349609375-.041015625.0205078125-.0712890625.02587890625-.0908203125.01513671875-.0205078125-.009765625-.041015625-.01513671875-.060546875-.01513671875h-.0615234375c-.0205078125.0205078125-.0400390625.0302734375-.060546875.0302734375h-.12109375c-.0615234375-.01953125-.126953125-.03515625-.1982421875-.04541015625-.0712890625-.009765625-.1259765625-.03515625-.1669921875-.076171875-.22265625-.060546875-.375-.24267578125-.4560546875-.546875-.0810546875-.3037109375-.1259765625-.63818359375-.13671875-1.0029296875-.009765625-.36474609375.0048828125-.72412109375.0458984375-1.07861328125.0400390625-.3544921875.0908203125-.61279296875.15234375-.77490234375.080078125-.22314453125.181640625-.41064453125.3037109375-.5625.12109375-.15185546875.2626953125-.22802734375.42578125-.22802734375.505859375,0,.951171875-.16162109375,1.3369140625-.48583984375.384765625-.32421875.658203125-.68896484375.8203125-1.09423828125s.1875-.78515625.076171875-1.1396484375-.4208984375-.5517578125-.9267578125-.5927734375c-.3447265625-.0400390625-.71484375.06591796875-1.109375.3193359375-.3955078125.25341796875-.724609375.64306640625-.98828125,1.169921875-.1015625.20263671875-.181640625.400390625-.2431640625.5927734375-.060546875.1923828125-.2119140625.33935546875-.455078125.4404296875-.203125.0810546875-.3955078125.12158203125-.578125.12158203125-.587890625,0-1.1494140625-.171875-1.6865234375-.5166015625-.537109375-.34423828125-.896484375-.83056640625-1.0791015625-1.458984375-.0810546875-.38427734375-.0703125-.759765625.03125-1.1240234375.1005859375-.36474609375.2529296875-.71923828125.455078125-1.06396484375.3447265625-.56689453125.7802734375-1.0634765625,1.3076171875-1.4892578125.5263671875-.42529296875,1.1083984375-.76416015625,1.7470703125-1.01806640625.6376953125-.2529296875,1.31640625-.41015625,2.0361328125-.470703125.71875-.06103515625,1.443359375,0,2.1728515625.18212890625.912109375.22314453125,1.6611328125.6435546875,2.2490234375,1.26123046875.5869140625.6181640625.998046875,1.3525390625,1.23046875,2.203125.2333984375.85107421875.2734375,1.783203125.1220703125,2.79638671875-.15234375,1.01318359375-.51171875,2.04638671875-1.0791015625,3.099609375Z" fill="none" stroke="#181818" stroke-width="5.631003379821777"/>
        <path d="M59.30859375,261.12939453125c.5869140625.70947265625,1.048828125,1.56494140625,1.3828125,2.56787109375s.4501953125,1.99072265625.349609375,2.96337890625c-.0810546875.74951171875-.3037109375,1.494140625-.6689453125,2.2333984375-.3642578125.740234375-.8310546875,1.39794921875-1.3974609375,1.9755859375-.5673828125.57763671875-1.220703125,1.0439453125-1.9609375,1.39794921875-.7392578125.3544921875-1.5341796875.53173828125-2.384765625.53173828125-.52734375,0-1.064453125-.05615234375-1.611328125-.1669921875-.546875-.111328125-1.0791015625-.2685546875-1.595703125-.47119140625-.5166015625-.2021484375-.998046875-.4658203125-1.443359375-.7900390625-.4453125-.32373046875-.810546875-.69921875-1.09375-1.12451171875-.3037109375-.42529296875-.3955078125-.89111328125-.2734375-1.39794921875.12109375-.56689453125.359375-1.05859375.7138671875-1.47412109375.3544921875-.4150390625.68359375-.75439453125.9873046875-1.01806640625.162109375-.12158203125.365234375-.2021484375.6083984375-.2431640625.2431640625-.0400390625.4755859375.06103515625.69921875.30419921875.3642578125.42529296875.759765625.7646484375,1.1845703125,1.01806640625.42578125.25341796875.845703125.39501953125,1.26171875.42529296875.4150390625.0302734375.8095703125-.060546875,1.1845703125-.2734375s.6943359375-.56201171875.9580078125-1.04833984375c.1416015625-.28369140625.22265625-.58740234375.2431640625-.91162109375.01953125-.32421875-.041015625-.623046875-.1826171875-.89697265625-.1416015625-.2734375-.375-.505859375-.69921875-.69873046875-.32421875-.1923828125-.75-.30859375-1.2763671875-.349609375-.041015625.0205078125-.0712890625.02587890625-.0908203125.01513671875-.0205078125-.009765625-.041015625-.01513671875-.060546875-.01513671875h-.0615234375c-.0205078125.0205078125-.0400390625.0302734375-.060546875.0302734375h-.12109375c-.0615234375-.01953125-.126953125-.03515625-.1982421875-.04541015625-.0712890625-.009765625-.1259765625-.03515625-.1669921875-.076171875-.22265625-.060546875-.375-.24267578125-.4560546875-.546875-.0810546875-.3037109375-.1259765625-.63818359375-.13671875-1.0029296875-.009765625-.36474609375.0048828125-.72412109375.0458984375-1.07861328125.0400390625-.3544921875.0908203125-.61279296875.15234375-.77490234375.080078125-.22314453125.181640625-.41064453125.3037109375-.5625.12109375-.15185546875.2626953125-.22802734375.42578125-.22802734375.505859375,0,.951171875-.16162109375,1.3369140625-.48583984375.384765625-.32421875.658203125-.68896484375.8203125-1.09423828125s.1875-.78515625.076171875-1.1396484375-.4208984375-.5517578125-.9267578125-.5927734375c-.3447265625-.0400390625-.71484375.06591796875-1.109375.3193359375-.3955078125.25341796875-.724609375.64306640625-.98828125,1.169921875-.1015625.20263671875-.181640625.400390625-.2431640625.5927734375-.060546875.1923828125-.2119140625.33935546875-.455078125.4404296875-.203125.0810546875-.3955078125.12158203125-.578125.12158203125-.587890625,0-1.1494140625-.171875-1.6865234375-.5166015625-.537109375-.34423828125-.896484375-.83056640625-1.0791015625-1.458984375-.0810546875-.38427734375-.0703125-.759765625.03125-1.1240234375.1005859375-.36474609375.2529296875-.71923828125.455078125-1.06396484375.3447265625-.56689453125.7802734375-1.0634765625,1.3076171875-1.4892578125.5263671875-.42529296875,1.1083984375-.76416015625,1.7470703125-1.01806640625.6376953125-.2529296875,1.31640625-.41015625,2.0361328125-.470703125.71875-.06103515625,1.443359375,0,2.1728515625.18212890625.912109375.22314453125,1.6611328125.6435546875,2.2490234375,1.26123046875.5869140625.6181640625.998046875,1.3525390625,1.23046875,2.203125.2333984375.85107421875.2734375,1.783203125.1220703125,2.79638671875-.15234375,1.01318359375-.51171875,2.04638671875-1.0791015625,3.099609375Z" fill="#231f20" stroke-width="0"/>
        <path d="M59.30859375,261.12939453125c.5869140625.70947265625,1.048828125,1.56494140625,1.3828125,2.56787109375s.4501953125,1.99072265625.349609375,2.96337890625c-.0810546875.74951171875-.3037109375,1.494140625-.6689453125,2.2333984375-.3642578125.740234375-.8310546875,1.39794921875-1.3974609375,1.9755859375-.5673828125.57763671875-1.220703125,1.0439453125-1.9609375,1.39794921875-.7392578125.3544921875-1.5341796875.53173828125-2.384765625.53173828125-.52734375,0-1.064453125-.05615234375-1.611328125-.1669921875-.546875-.111328125-1.0791015625-.2685546875-1.595703125-.47119140625-.5166015625-.2021484375-.998046875-.4658203125-1.443359375-.7900390625-.4453125-.32373046875-.810546875-.69921875-1.09375-1.12451171875-.3037109375-.42529296875-.3955078125-.89111328125-.2734375-1.39794921875.12109375-.56689453125.359375-1.05859375.7138671875-1.47412109375.3544921875-.4150390625.68359375-.75439453125.9873046875-1.01806640625.162109375-.12158203125.365234375-.2021484375.6083984375-.2431640625.2431640625-.0400390625.4755859375.06103515625.69921875.30419921875.3642578125.42529296875.759765625.7646484375,1.1845703125,1.01806640625.42578125.25341796875.845703125.39501953125,1.26171875.42529296875.4150390625.0302734375.8095703125-.060546875,1.1845703125-.2734375s.6943359375-.56201171875.9580078125-1.04833984375c.1416015625-.28369140625.22265625-.58740234375.2431640625-.91162109375.01953125-.32421875-.041015625-.623046875-.1826171875-.89697265625-.1416015625-.2734375-.375-.505859375-.69921875-.69873046875-.32421875-.1923828125-.75-.30859375-1.2763671875-.349609375-.041015625.0205078125-.0712890625.02587890625-.0908203125.01513671875-.0205078125-.009765625-.041015625-.01513671875-.060546875-.01513671875h-.0615234375c-.0205078125.0205078125-.0400390625.0302734375-.060546875.0302734375h-.12109375c-.0615234375-.01953125-.126953125-.03515625-.1982421875-.04541015625-.0712890625-.009765625-.1259765625-.03515625-.1669921875-.076171875-.22265625-.060546875-.375-.24267578125-.4560546875-.546875-.0810546875-.3037109375-.1259765625-.63818359375-.13671875-1.0029296875-.009765625-.36474609375.0048828125-.72412109375.0458984375-1.07861328125.0400390625-.3544921875.0908203125-.61279296875.15234375-.77490234375.080078125-.22314453125.181640625-.41064453125.3037109375-.5625.12109375-.15185546875.2626953125-.22802734375.42578125-.22802734375.505859375,0,.951171875-.16162109375,1.3369140625-.48583984375.384765625-.32421875.658203125-.68896484375.8203125-1.09423828125s.1875-.78515625.076171875-1.1396484375-.4208984375-.5517578125-.9267578125-.5927734375c-.3447265625-.0400390625-.71484375.06591796875-1.109375.3193359375-.3955078125.25341796875-.724609375.64306640625-.98828125,1.169921875-.1015625.20263671875-.181640625.400390625-.2431640625.5927734375-.060546875.1923828125-.2119140625.33935546875-.455078125.4404296875-.203125.0810546875-.3955078125.12158203125-.578125.12158203125-.587890625,0-1.1494140625-.171875-1.6865234375-.5166015625-.537109375-.34423828125-.896484375-.83056640625-1.0791015625-1.458984375-.0810546875-.38427734375-.0703125-.759765625.03125-1.1240234375.1005859375-.36474609375.2529296875-.71923828125.455078125-1.06396484375.3447265625-.56689453125.7802734375-1.0634765625,1.3076171875-1.4892578125.5263671875-.42529296875,1.1083984375-.76416015625,1.7470703125-1.01806640625.6376953125-.2529296875,1.31640625-.41015625,2.0361328125-.470703125.71875-.06103515625,1.443359375,0,2.1728515625.18212890625.912109375.22314453125,1.6611328125.6435546875,2.2490234375,1.26123046875.5869140625.6181640625.998046875,1.3525390625,1.23046875,2.203125.2333984375.85107421875.2734375,1.783203125.1220703125,2.79638671875-.15234375,1.01318359375-.51171875,2.04638671875-1.0791015625,3.099609375Z" fill="#e2dddb" stroke-width="0"/>
      </g>
      <g>
        <path d="M60.1455078125,342.52880859375c-.041015625.22314453125-.1123046875.43603515625-.212890625.63818359375-.1015625.16259765625-.25390625.314453125-.4560546875.4560546875-.203125.14208984375-.4765625.232421875-.8203125.2734375-.3447265625.04052734375-.7041015625.0654296875-1.0791015625.076171875-.375.009765625-.724609375-.02587890625-1.048828125-.1064453125-.32421875-.08154296875-.607421875-.22802734375-.8505859375-.44091796875-.2431640625-.21240234375-.39453125-.53173828125-.4560546875-.95703125-.0400390625-.22265625-.060546875-.6787109375-.060546875-1.36767578125,0-.6884765625.009765625-1.53955078125.0302734375-2.552734375-1.3974609375,0-2.80078125-.025390625-4.208984375-.076171875-1.408203125-.05029296875-2.841796875-.095703125-4.2998046875-.13671875-.0615234375.0205078125-.1328125,0-.212890625-.060546875-.060546875-.04052734375-.1220703125-.1318359375-.1826171875-.27392578125-.060546875-.14111328125-.111328125-.35400390625-.15234375-.63818359375-.01953125-.14111328125-.05078125-.369140625-.0908203125-.68359375-.041015625-.31396484375-.076171875-.6484375-.1064453125-1.0029296875-.0302734375-.35400390625-.0458984375-.6884765625-.0458984375-1.0029296875,0-.31396484375.05078125-.5517578125.15234375-.71435546875.0810546875-.14111328125.283203125-.3896484375.607421875-.744140625s.7197265625-.794921875,1.185546875-1.322265625c1.1748046875-1.2763671875,2.330078125-2.5830078125,3.46484375-3.92041015625,1.1337890625-1.3369140625,2.2587890625-2.765625,3.373046875-4.28515625.2021484375-.283203125.3896484375-.50146484375.5625-.6533203125.171875-.15185546875.48046875-.24755859375.9267578125-.28857421875.42578125-.04052734375.95703125-.0859375,1.595703125-.13671875.6376953125-.05029296875,1.1796875-.01513671875,1.6259765625.1064453125.1005859375.060546875.197265625.13671875.2880859375.2275390625.091796875.09130859375.1474609375.2080078125.16796875.349609375.080078125.5068359375.1259765625.98291015625.13671875,1.4287109375.009765625.44580078125.0244140625.87109375.044921875,1.2763671875l.1220703125,16.5322265625ZM52.7607421875,333.65478515625c.4248046875-.02001953125.8505859375-.03515625,1.2763671875-.04541015625.4248046875-.01025390625.8505859375-.01513671875,1.2763671875-.01513671875,0-.54736328125.009765625-1.09423828125.0302734375-1.64111328125.01953125-.54736328125.0498046875-1.1142578125.0908203125-1.7021484375-.42578125.587890625-.861328125,1.16015625-1.306640625,1.71728515625-.4462890625.55712890625-.9013671875,1.11962890625-1.3671875,1.6865234375Z" fill="none" stroke="#181818" stroke-width="5.631003379821777"/>
        <path d="M60.1455078125,342.52880859375c-.041015625.22314453125-.1123046875.43603515625-.212890625.63818359375-.1015625.16259765625-.25390625.314453125-.4560546875.4560546875-.203125.14208984375-.4765625.232421875-.8203125.2734375-.3447265625.04052734375-.7041015625.0654296875-1.0791015625.076171875-.375.009765625-.724609375-.02587890625-1.048828125-.1064453125-.32421875-.08154296875-.607421875-.22802734375-.8505859375-.44091796875-.2431640625-.21240234375-.39453125-.53173828125-.4560546875-.95703125-.0400390625-.22265625-.060546875-.6787109375-.060546875-1.36767578125,0-.6884765625.009765625-1.53955078125.0302734375-2.552734375-1.3974609375,0-2.80078125-.025390625-4.208984375-.076171875-1.408203125-.05029296875-2.841796875-.095703125-4.2998046875-.13671875-.0615234375.0205078125-.1328125,0-.212890625-.060546875-.060546875-.04052734375-.1220703125-.1318359375-.1826171875-.27392578125-.060546875-.14111328125-.111328125-.35400390625-.15234375-.63818359375-.01953125-.14111328125-.05078125-.369140625-.0908203125-.68359375-.041015625-.31396484375-.076171875-.6484375-.1064453125-1.0029296875-.0302734375-.35400390625-.0458984375-.6884765625-.0458984375-1.0029296875,0-.31396484375.05078125-.5517578125.15234375-.71435546875.0810546875-.14111328125.283203125-.3896484375.607421875-.744140625s.7197265625-.794921875,1.185546875-1.322265625c1.1748046875-1.2763671875,2.330078125-2.5830078125,3.46484375-3.92041015625,1.1337890625-1.3369140625,2.2587890625-2.765625,3.373046875-4.28515625.2021484375-.283203125.3896484375-.50146484375.5625-.6533203125.171875-.15185546875.48046875-.24755859375.9267578125-.28857421875.42578125-.04052734375.95703125-.0859375,1.595703125-.13671875.6376953125-.05029296875,1.1796875-.01513671875,1.6259765625.1064453125.1005859375.060546875.197265625.13671875.2880859375.2275390625.091796875.09130859375.1474609375.2080078125.16796875.349609375.080078125.5068359375.1259765625.98291015625.13671875,1.4287109375.009765625.44580078125.0244140625.87109375.044921875,1.2763671875l.1220703125,16.5322265625ZM52.7607421875,333.65478515625c.4248046875-.02001953125.8505859375-.03515625,1.2763671875-.04541015625.4248046875-.01025390625.8505859375-.01513671875,1.2763671875-.01513671875,0-.54736328125.009765625-1.09423828125.0302734375-1.64111328125.01953125-.54736328125.0498046875-1.1142578125.0908203125-1.7021484375-.42578125.587890625-.861328125,1.16015625-1.306640625,1.71728515625-.4462890625.55712890625-.9013671875,1.11962890625-1.3671875,1.6865234375Z" fill="#231f20" stroke-width="0"/>
        <path d="M60.1455078125,342.52880859375c-.041015625.22314453125-.1123046875.43603515625-.212890625.63818359375-.1015625.16259765625-.25390625.314453125-.4560546875.4560546875-.203125.14208984375-.4765625.232421875-.8203125.2734375-.3447265625.04052734375-.7041015625.0654296875-1.0791015625.076171875-.375.009765625-.724609375-.02587890625-1.048828125-.1064453125-.32421875-.08154296875-.607421875-.22802734375-.8505859375-.44091796875-.2431640625-.21240234375-.39453125-.53173828125-.4560546875-.95703125-.0400390625-.22265625-.060546875-.6787109375-.060546875-1.36767578125,0-.6884765625.009765625-1.53955078125.0302734375-2.552734375-1.3974609375,0-2.80078125-.025390625-4.208984375-.076171875-1.408203125-.05029296875-2.841796875-.095703125-4.2998046875-.13671875-.0615234375.0205078125-.1328125,0-.212890625-.060546875-.060546875-.04052734375-.1220703125-.1318359375-.1826171875-.27392578125-.060546875-.14111328125-.111328125-.35400390625-.15234375-.63818359375-.01953125-.14111328125-.05078125-.369140625-.0908203125-.68359375-.041015625-.31396484375-.076171875-.6484375-.1064453125-1.0029296875-.0302734375-.35400390625-.0458984375-.6884765625-.0458984375-1.0029296875,0-.31396484375.05078125-.5517578125.15234375-.71435546875.0810546875-.14111328125.283203125-.3896484375.607421875-.744140625s.7197265625-.794921875,1.185546875-1.322265625c1.1748046875-1.2763671875,2.330078125-2.5830078125,3.46484375-3.92041015625,1.1337890625-1.3369140625,2.2587890625-2.765625,3.373046875-4.28515625.2021484375-.283203125.3896484375-.50146484375.5625-.6533203125.171875-.15185546875.48046875-.24755859375.9267578125-.28857421875.42578125-.04052734375.95703125-.0859375,1.595703125-.13671875.6376953125-.05029296875,1.1796875-.01513671875,1.6259765625.1064453125.1005859375.060546875.197265625.13671875.2880859375.2275390625.091796875.09130859375.1474609375.2080078125.16796875.349609375.080078125.5068359375.1259765625.98291015625.13671875,1.4287109375.009765625.44580078125.0244140625.87109375.044921875,1.2763671875l.1220703125,16.5322265625ZM52.7607421875,333.65478515625c.4248046875-.02001953125.8505859375-.03515625,1.2763671875-.04541015625.4248046875-.01025390625.8505859375-.01513671875,1.2763671875-.01513671875,0-.54736328125.009765625-1.09423828125.0302734375-1.64111328125.01953125-.54736328125.0498046875-1.1142578125.0908203125-1.7021484375-.42578125.587890625-.861328125,1.16015625-1.306640625,1.71728515625-.4462890625.55712890625-.9013671875,1.11962890625-1.3671875,1.6865234375Z" fill="#e2dddb" stroke-width="0"/>
      </g>
      <g>
        <path d="M549.5810546875,263.42724609375c.5869140625.70947265625,1.048828125,1.56494140625,1.3828125,2.56787109375s.4501953125,1.99072265625.349609375,2.96337890625c-.0810546875.74951171875-.3037109375,1.494140625-.6689453125,2.2333984375-.3642578125.740234375-.8310546875,1.39794921875-1.3974609375,1.9755859375-.5673828125.57763671875-1.220703125,1.0439453125-1.9609375,1.39794921875-.7392578125.3544921875-1.5341796875.53173828125-2.384765625.53173828125-.52734375,0-1.064453125-.05615234375-1.611328125-.1669921875-.546875-.111328125-1.0791015625-.2685546875-1.595703125-.47119140625-.5166015625-.2021484375-.998046875-.4658203125-1.443359375-.7900390625-.4453125-.32373046875-.810546875-.69921875-1.09375-1.12451171875-.3037109375-.42529296875-.3955078125-.89111328125-.2734375-1.39794921875.12109375-.56689453125.359375-1.05859375.7138671875-1.47412109375.3544921875-.4150390625.68359375-.75439453125.9873046875-1.01806640625.162109375-.12158203125.365234375-.2021484375.6083984375-.2431640625.2431640625-.0400390625.4755859375.06103515625.69921875.30419921875.3642578125.42529296875.759765625.7646484375,1.1845703125,1.01806640625.42578125.25341796875.845703125.39501953125,1.26171875.42529296875.4150390625.0302734375.8095703125-.060546875,1.1845703125-.2734375s.6943359375-.56201171875.9580078125-1.04833984375c.1416015625-.28369140625.22265625-.58740234375.2431640625-.91162109375.01953125-.32421875-.041015625-.623046875-.1826171875-.89697265625-.1416015625-.2734375-.375-.505859375-.69921875-.69873046875-.32421875-.1923828125-.75-.30859375-1.2763671875-.349609375-.041015625.0205078125-.0712890625.02587890625-.0908203125.01513671875-.0205078125-.009765625-.041015625-.01513671875-.060546875-.01513671875h-.0615234375c-.0205078125.0205078125-.0400390625.0302734375-.060546875.0302734375h-.12109375c-.0615234375-.01953125-.126953125-.03515625-.1982421875-.04541015625-.0712890625-.009765625-.1259765625-.03515625-.1669921875-.076171875-.22265625-.060546875-.375-.24267578125-.4560546875-.546875-.0810546875-.3037109375-.1259765625-.63818359375-.13671875-1.0029296875-.009765625-.36474609375.0048828125-.72412109375.0458984375-1.07861328125.0400390625-.3544921875.0908203125-.61279296875.15234375-.77490234375.080078125-.22314453125.181640625-.41064453125.3037109375-.5625.12109375-.15185546875.2626953125-.22802734375.42578125-.22802734375.505859375,0,.951171875-.16162109375,1.3369140625-.48583984375.384765625-.32421875.658203125-.68896484375.8203125-1.09423828125s.1875-.78515625.076171875-1.1396484375-.4208984375-.5517578125-.9267578125-.5927734375c-.3447265625-.0400390625-.71484375.06591796875-1.109375.3193359375-.3955078125.25341796875-.724609375.64306640625-.98828125,1.169921875-.1015625.20263671875-.181640625.400390625-.2431640625.5927734375-.060546875.1923828125-.2119140625.33935546875-.455078125.4404296875-.203125.0810546875-.3955078125.12158203125-.578125.12158203125-.587890625,0-1.1494140625-.171875-1.6865234375-.5166015625-.537109375-.34423828125-.896484375-.83056640625-1.0791015625-1.458984375-.0810546875-.38427734375-.0703125-.759765625.03125-1.1240234375.1005859375-.36474609375.2529296875-.71923828125.455078125-1.06396484375.3447265625-.56689453125.7802734375-1.0634765625,1.3076171875-1.4892578125.5263671875-.42529296875,1.1083984375-.76416015625,1.7470703125-1.01806640625.6376953125-.2529296875,1.31640625-.41015625,2.0361328125-.470703125.71875-.06103515625,1.443359375,0,2.1728515625.18212890625.912109375.22314453125,1.6611328125.6435546875,2.2490234375,1.26123046875.5869140625.6181640625.998046875,1.3525390625,1.23046875,2.203125.2333984375.85107421875.2734375,1.783203125.1220703125,2.79638671875-.15234375,1.01318359375-.51171875,2.04638671875-1.0791015625,3.099609375Z" fill="none" stroke="#181818" stroke-width="5.631003379821777"/>
        <path d="M549.5810546875,263.42724609375c.5869140625.70947265625,1.048828125,1.56494140625,1.3828125,2.56787109375s.4501953125,1.99072265625.349609375,2.96337890625c-.0810546875.74951171875-.3037109375,1.494140625-.6689453125,2.2333984375-.3642578125.740234375-.8310546875,1.39794921875-1.3974609375,1.9755859375-.5673828125.57763671875-1.220703125,1.0439453125-1.9609375,1.39794921875-.7392578125.3544921875-1.5341796875.53173828125-2.384765625.53173828125-.52734375,0-1.064453125-.05615234375-1.611328125-.1669921875-.546875-.111328125-1.0791015625-.2685546875-1.595703125-.47119140625-.5166015625-.2021484375-.998046875-.4658203125-1.443359375-.7900390625-.4453125-.32373046875-.810546875-.69921875-1.09375-1.12451171875-.3037109375-.42529296875-.3955078125-.89111328125-.2734375-1.39794921875.12109375-.56689453125.359375-1.05859375.7138671875-1.47412109375.3544921875-.4150390625.68359375-.75439453125.9873046875-1.01806640625.162109375-.12158203125.365234375-.2021484375.6083984375-.2431640625.2431640625-.0400390625.4755859375.06103515625.69921875.30419921875.3642578125.42529296875.759765625.7646484375,1.1845703125,1.01806640625.42578125.25341796875.845703125.39501953125,1.26171875.42529296875.4150390625.0302734375.8095703125-.060546875,1.1845703125-.2734375s.6943359375-.56201171875.9580078125-1.04833984375c.1416015625-.28369140625.22265625-.58740234375.2431640625-.91162109375.01953125-.32421875-.041015625-.623046875-.1826171875-.89697265625-.1416015625-.2734375-.375-.505859375-.69921875-.69873046875-.32421875-.1923828125-.75-.30859375-1.2763671875-.349609375-.041015625.0205078125-.0712890625.02587890625-.0908203125.01513671875-.0205078125-.009765625-.041015625-.01513671875-.060546875-.01513671875h-.0615234375c-.0205078125.0205078125-.0400390625.0302734375-.060546875.0302734375h-.12109375c-.0615234375-.01953125-.126953125-.03515625-.1982421875-.04541015625-.0712890625-.009765625-.1259765625-.03515625-.1669921875-.076171875-.22265625-.060546875-.375-.24267578125-.4560546875-.546875-.0810546875-.3037109375-.1259765625-.63818359375-.13671875-1.0029296875-.009765625-.36474609375.0048828125-.72412109375.0458984375-1.07861328125.0400390625-.3544921875.0908203125-.61279296875.15234375-.77490234375.080078125-.22314453125.181640625-.41064453125.3037109375-.5625.12109375-.15185546875.2626953125-.22802734375.42578125-.22802734375.505859375,0,.951171875-.16162109375,1.3369140625-.48583984375.384765625-.32421875.658203125-.68896484375.8203125-1.09423828125s.1875-.78515625.076171875-1.1396484375-.4208984375-.5517578125-.9267578125-.5927734375c-.3447265625-.0400390625-.71484375.06591796875-1.109375.3193359375-.3955078125.25341796875-.724609375.64306640625-.98828125,1.169921875-.1015625.20263671875-.181640625.400390625-.2431640625.5927734375-.060546875.1923828125-.2119140625.33935546875-.455078125.4404296875-.203125.0810546875-.3955078125.12158203125-.578125.12158203125-.587890625,0-1.1494140625-.171875-1.6865234375-.5166015625-.537109375-.34423828125-.896484375-.83056640625-1.0791015625-1.458984375-.0810546875-.38427734375-.0703125-.759765625.03125-1.1240234375.1005859375-.36474609375.2529296875-.71923828125.455078125-1.06396484375.3447265625-.56689453125.7802734375-1.0634765625,1.3076171875-1.4892578125.5263671875-.42529296875,1.1083984375-.76416015625,1.7470703125-1.01806640625.6376953125-.2529296875,1.31640625-.41015625,2.0361328125-.470703125.71875-.06103515625,1.443359375,0,2.1728515625.18212890625.912109375.22314453125,1.6611328125.6435546875,2.2490234375,1.26123046875.5869140625.6181640625.998046875,1.3525390625,1.23046875,2.203125.2333984375.85107421875.2734375,1.783203125.1220703125,2.79638671875-.15234375,1.01318359375-.51171875,2.04638671875-1.0791015625,3.099609375Z" fill="#231f20" stroke-width="0"/>
        <path d="M549.5810546875,263.42724609375c.5869140625.70947265625,1.048828125,1.56494140625,1.3828125,2.56787109375s.4501953125,1.99072265625.349609375,2.96337890625c-.0810546875.74951171875-.3037109375,1.494140625-.6689453125,2.2333984375-.3642578125.740234375-.8310546875,1.39794921875-1.3974609375,1.9755859375-.5673828125.57763671875-1.220703125,1.0439453125-1.9609375,1.39794921875-.7392578125.3544921875-1.5341796875.53173828125-2.384765625.53173828125-.52734375,0-1.064453125-.05615234375-1.611328125-.1669921875-.546875-.111328125-1.0791015625-.2685546875-1.595703125-.47119140625-.5166015625-.2021484375-.998046875-.4658203125-1.443359375-.7900390625-.4453125-.32373046875-.810546875-.69921875-1.09375-1.12451171875-.3037109375-.42529296875-.3955078125-.89111328125-.2734375-1.39794921875.12109375-.56689453125.359375-1.05859375.7138671875-1.47412109375.3544921875-.4150390625.68359375-.75439453125.9873046875-1.01806640625.162109375-.12158203125.365234375-.2021484375.6083984375-.2431640625.2431640625-.0400390625.4755859375.06103515625.69921875.30419921875.3642578125.42529296875.759765625.7646484375,1.1845703125,1.01806640625.42578125.25341796875.845703125.39501953125,1.26171875.42529296875.4150390625.0302734375.8095703125-.060546875,1.1845703125-.2734375s.6943359375-.56201171875.9580078125-1.04833984375c.1416015625-.28369140625.22265625-.58740234375.2431640625-.91162109375.01953125-.32421875-.041015625-.623046875-.1826171875-.89697265625-.1416015625-.2734375-.375-.505859375-.69921875-.69873046875-.32421875-.1923828125-.75-.30859375-1.2763671875-.349609375-.041015625.0205078125-.0712890625.02587890625-.0908203125.01513671875-.0205078125-.009765625-.041015625-.01513671875-.060546875-.01513671875h-.0615234375c-.0205078125.0205078125-.0400390625.0302734375-.060546875.0302734375h-.12109375c-.0615234375-.01953125-.126953125-.03515625-.1982421875-.04541015625-.0712890625-.009765625-.1259765625-.03515625-.1669921875-.076171875-.22265625-.060546875-.375-.24267578125-.4560546875-.546875-.0810546875-.3037109375-.1259765625-.63818359375-.13671875-1.0029296875-.009765625-.36474609375.0048828125-.72412109375.0458984375-1.07861328125.0400390625-.3544921875.0908203125-.61279296875.15234375-.77490234375.080078125-.22314453125.181640625-.41064453125.3037109375-.5625.12109375-.15185546875.2626953125-.22802734375.42578125-.22802734375.505859375,0,.951171875-.16162109375,1.3369140625-.48583984375.384765625-.32421875.658203125-.68896484375.8203125-1.09423828125s.1875-.78515625.076171875-1.1396484375-.4208984375-.5517578125-.9267578125-.5927734375c-.3447265625-.0400390625-.71484375.06591796875-1.109375.3193359375-.3955078125.25341796875-.724609375.64306640625-.98828125,1.169921875-.1015625.20263671875-.181640625.400390625-.2431640625.5927734375-.060546875.1923828125-.2119140625.33935546875-.455078125.4404296875-.203125.0810546875-.3955078125.12158203125-.578125.12158203125-.587890625,0-1.1494140625-.171875-1.6865234375-.5166015625-.537109375-.34423828125-.896484375-.83056640625-1.0791015625-1.458984375-.0810546875-.38427734375-.0703125-.759765625.03125-1.1240234375.1005859375-.36474609375.2529296875-.71923828125.455078125-1.06396484375.3447265625-.56689453125.7802734375-1.0634765625,1.3076171875-1.4892578125.5263671875-.42529296875,1.1083984375-.76416015625,1.7470703125-1.01806640625.6376953125-.2529296875,1.31640625-.41015625,2.0361328125-.470703125.71875-.06103515625,1.443359375,0,2.1728515625.18212890625.912109375.22314453125,1.6611328125.6435546875,2.2490234375,1.26123046875.5869140625.6181640625.998046875,1.3525390625,1.23046875,2.203125.2333984375.85107421875.2734375,1.783203125.1220703125,2.79638671875-.15234375,1.01318359375-.51171875,2.04638671875-1.0791015625,3.099609375Z" fill="#e2dddb" stroke-width="0"/>
      </g>
      <g>
        <path d="M550.970703125,344.6142578125c-.041015625.22314453125-.1123046875.43603515625-.212890625.63818359375-.1015625.16259765625-.25390625.314453125-.4560546875.4560546875-.203125.14208984375-.4765625.232421875-.8203125.2734375-.3447265625.04052734375-.7041015625.0654296875-1.0791015625.076171875-.375.009765625-.724609375-.02587890625-1.048828125-.1064453125-.32421875-.08154296875-.607421875-.22802734375-.8505859375-.44091796875-.2431640625-.21240234375-.39453125-.53173828125-.4560546875-.95703125-.0400390625-.22265625-.060546875-.6787109375-.060546875-1.36767578125,0-.6884765625.009765625-1.53955078125.0302734375-2.552734375-1.3974609375,0-2.80078125-.025390625-4.208984375-.076171875-1.408203125-.05029296875-2.841796875-.095703125-4.2998046875-.13671875-.0615234375.0205078125-.1328125,0-.212890625-.060546875-.060546875-.04052734375-.1220703125-.1318359375-.1826171875-.27392578125-.060546875-.14111328125-.111328125-.35400390625-.15234375-.63818359375-.01953125-.14111328125-.05078125-.369140625-.0908203125-.68359375-.041015625-.31396484375-.076171875-.6484375-.1064453125-1.0029296875-.0302734375-.35400390625-.0458984375-.6884765625-.0458984375-1.0029296875,0-.31396484375.05078125-.5517578125.15234375-.71435546875.0810546875-.14111328125.283203125-.3896484375.607421875-.744140625s.7197265625-.794921875,1.185546875-1.322265625c1.1748046875-1.2763671875,2.330078125-2.5830078125,3.46484375-3.92041015625,1.1337890625-1.3369140625,2.2587890625-2.765625,3.373046875-4.28515625.2021484375-.283203125.3896484375-.50146484375.5625-.6533203125.171875-.15185546875.48046875-.24755859375.9267578125-.28857421875.42578125-.04052734375.95703125-.0859375,1.595703125-.13671875.6376953125-.05029296875,1.1796875-.01513671875,1.6259765625.1064453125.1005859375.060546875.197265625.13671875.2880859375.2275390625.091796875.09130859375.1474609375.2080078125.16796875.349609375.080078125.5068359375.1259765625.98291015625.13671875,1.4287109375.009765625.44580078125.0244140625.87109375.044921875,1.2763671875l.1220703125,16.5322265625ZM543.5859375,335.740234375c.4248046875-.02001953125.8505859375-.03515625,1.2763671875-.04541015625.4248046875-.01025390625.8505859375-.01513671875,1.2763671875-.01513671875,0-.54736328125.009765625-1.09423828125.0302734375-1.64111328125.01953125-.54736328125.0498046875-1.1142578125.0908203125-1.7021484375-.42578125.587890625-.861328125,1.16015625-1.306640625,1.71728515625-.4462890625.55712890625-.9013671875,1.11962890625-1.3671875,1.6865234375Z" fill="none" stroke="#181818" stroke-width="5.631003379821777"/>
        <path d="M550.970703125,344.6142578125c-.041015625.22314453125-.1123046875.43603515625-.212890625.63818359375-.1015625.16259765625-.25390625.314453125-.4560546875.4560546875-.203125.14208984375-.4765625.232421875-.8203125.2734375-.3447265625.04052734375-.7041015625.0654296875-1.0791015625.076171875-.375.009765625-.724609375-.02587890625-1.048828125-.1064453125-.32421875-.08154296875-.607421875-.22802734375-.8505859375-.44091796875-.2431640625-.21240234375-.39453125-.53173828125-.4560546875-.95703125-.0400390625-.22265625-.060546875-.6787109375-.060546875-1.36767578125,0-.6884765625.009765625-1.53955078125.0302734375-2.552734375-1.3974609375,0-2.80078125-.025390625-4.208984375-.076171875-1.408203125-.05029296875-2.841796875-.095703125-4.2998046875-.13671875-.0615234375.0205078125-.1328125,0-.212890625-.060546875-.060546875-.04052734375-.1220703125-.1318359375-.1826171875-.27392578125-.060546875-.14111328125-.111328125-.35400390625-.15234375-.63818359375-.01953125-.14111328125-.05078125-.369140625-.0908203125-.68359375-.041015625-.31396484375-.076171875-.6484375-.1064453125-1.0029296875-.0302734375-.35400390625-.0458984375-.6884765625-.0458984375-1.0029296875,0-.31396484375.05078125-.5517578125.15234375-.71435546875.0810546875-.14111328125.283203125-.3896484375.607421875-.744140625s.7197265625-.794921875,1.185546875-1.322265625c1.1748046875-1.2763671875,2.330078125-2.5830078125,3.46484375-3.92041015625,1.1337890625-1.3369140625,2.2587890625-2.765625,3.373046875-4.28515625.2021484375-.283203125.3896484375-.50146484375.5625-.6533203125.171875-.15185546875.48046875-.24755859375.9267578125-.28857421875.42578125-.04052734375.95703125-.0859375,1.595703125-.13671875.6376953125-.05029296875,1.1796875-.01513671875,1.6259765625.1064453125.1005859375.060546875.197265625.13671875.2880859375.2275390625.091796875.09130859375.1474609375.2080078125.16796875.349609375.080078125.5068359375.1259765625.98291015625.13671875,1.4287109375.009765625.44580078125.0244140625.87109375.044921875,1.2763671875l.1220703125,16.5322265625ZM543.5859375,335.740234375c.4248046875-.02001953125.8505859375-.03515625,1.2763671875-.04541015625.4248046875-.01025390625.8505859375-.01513671875,1.2763671875-.01513671875,0-.54736328125.009765625-1.09423828125.0302734375-1.64111328125.01953125-.54736328125.0498046875-1.1142578125.0908203125-1.7021484375-.42578125.587890625-.861328125,1.16015625-1.306640625,1.71728515625-.4462890625.55712890625-.9013671875,1.11962890625-1.3671875,1.6865234375Z" fill="#231f20" stroke-width="0"/>
        <path d="M550.970703125,344.6142578125c-.041015625.22314453125-.1123046875.43603515625-.212890625.63818359375-.1015625.16259765625-.25390625.314453125-.4560546875.4560546875-.203125.14208984375-.4765625.232421875-.8203125.2734375-.3447265625.04052734375-.7041015625.0654296875-1.0791015625.076171875-.375.009765625-.724609375-.02587890625-1.048828125-.1064453125-.32421875-.08154296875-.607421875-.22802734375-.8505859375-.44091796875-.2431640625-.21240234375-.39453125-.53173828125-.4560546875-.95703125-.0400390625-.22265625-.060546875-.6787109375-.060546875-1.36767578125,0-.6884765625.009765625-1.53955078125.0302734375-2.552734375-1.3974609375,0-2.80078125-.025390625-4.208984375-.076171875-1.408203125-.05029296875-2.841796875-.095703125-4.2998046875-.13671875-.0615234375.0205078125-.1328125,0-.212890625-.060546875-.060546875-.04052734375-.1220703125-.1318359375-.1826171875-.27392578125-.060546875-.14111328125-.111328125-.35400390625-.15234375-.63818359375-.01953125-.14111328125-.05078125-.369140625-.0908203125-.68359375-.041015625-.31396484375-.076171875-.6484375-.1064453125-1.0029296875-.0302734375-.35400390625-.0458984375-.6884765625-.0458984375-1.0029296875,0-.31396484375.05078125-.5517578125.15234375-.71435546875.0810546875-.14111328125.283203125-.3896484375.607421875-.744140625s.7197265625-.794921875,1.185546875-1.322265625c1.1748046875-1.2763671875,2.330078125-2.5830078125,3.46484375-3.92041015625,1.1337890625-1.3369140625,2.2587890625-2.765625,3.373046875-4.28515625.2021484375-.283203125.3896484375-.50146484375.5625-.6533203125.171875-.15185546875.48046875-.24755859375.9267578125-.28857421875.42578125-.04052734375.95703125-.0859375,1.595703125-.13671875.6376953125-.05029296875,1.1796875-.01513671875,1.6259765625.1064453125.1005859375.060546875.197265625.13671875.2880859375.2275390625.091796875.09130859375.1474609375.2080078125.16796875.349609375.080078125.5068359375.1259765625.98291015625.13671875,1.4287109375.009765625.44580078125.0244140625.87109375.044921875,1.2763671875l.1220703125,16.5322265625ZM543.5859375,335.740234375c.4248046875-.02001953125.8505859375-.03515625,1.2763671875-.04541015625.4248046875-.01025390625.8505859375-.01513671875,1.2763671875-.01513671875,0-.54736328125.009765625-1.09423828125.0302734375-1.64111328125.01953125-.54736328125.0498046875-1.1142578125.0908203125-1.7021484375-.42578125.587890625-.861328125,1.16015625-1.306640625,1.71728515625-.4462890625.55712890625-.9013671875,1.11962890625-1.3671875,1.6865234375Z" fill="#e2dddb" stroke-width="0"/>
      </g>
    </g>
  </g>
  <a xlink:href="https://www.notion.so/dmmnotes/mid-range-AC-6dcab041303a49cba3a5ae86db83dbfc?pvs=4">
    <g id="AC-3" data-name="AC">
      <a xlink:href="https://www.notion.so/dmmnotes/Type-AC-fcafcf3712bd425293abdb7055fe3005?pvs=4">
        <g id="A">
          <path d="M250.0986328125,414.713867187496362c-29.127197265619543,0-54.74853515625-18.6240234375-63.75537109375-46.3447265625-5.534423828119543-17.033203125-4.1044921875-35.201171875,4.026123046880457-51.1591796875,8.130859375-15.95703125,21.989013671869543-27.79296875,39.021728515619543-33.3271484375,6.734130859380457-2.1884765625,13.709228515630457-3.2978515625,20.7314453125-3.2978515625,29.126953125,0,54.748046875,18.625,63.7548828125,46.3447265625,11.424560546880457,35.162109375-7.886474609369543,73.0625-43.0478515625,84.4873046875-6.73388671875,2.1875-13.708740234369543,3.296875-20.73095703125,3.296875Z" fill="url(#A4-3)" stroke-width="0"/>
          <path d="M250.1220703125,289.085083007808862c24.68115234375-.0008544921875,47.632080078130457,15.7291259765625,55.67138671875,40.471923828125,9.9921875,30.7529296875-6.837646484369543,63.783447265625-37.590576171869543,73.775634765625-6.01025390625,1.952880859375-12.109375,2.8814697265625-18.1044921875,2.8814697265625-24.681396484380457,0-47.631591796880457-15.729248046875-55.671142578130457-40.4720458984375-9.9921875-30.7529296875,6.83740234375-63.783447265625,37.59033203125-73.775634765625,6.01025390625-1.952880859375,12.109375-2.8812255859375,18.1044921875-2.88134765625M250.1240234375,272.085021972652612h-.00244140625c-7.916015625.00030517578125-15.7744140625,1.24969482421875-23.357421875,3.71337890625-19.19189453125,6.23590087890625-34.80712890625,19.57232666015625-43.96826171875,37.55279541015625-9.1611328125,17.980224609375-10.7724609375,38.4520263671875-4.53662109375,57.6441650390625,5.02880859375,15.4779052734375,14.66845703125,28.6495361328125,27.876953125,38.0911865234375,12.92919921875,9.2423095703125,28.13134765625,14.1275634765625,43.962158203130457,14.1275634765625,7.915283203119543,0,15.774169921869543-1.2493896484375,23.357666015619543-3.7135009765625,19.192138671880457-6.23583984375,34.80712890625-19.572265625,43.96875-37.5526123046875,9.161376953130457-17.9803466796875,10.7724609375-38.4521484375,4.53662109375-57.644287109375-5.02880859375-15.47705078125-14.668212890619543-28.6485595703125-27.876220703119543-38.0904541015625-12.929443359380457-9.2427978515625-28.131103515630457-14.12823486328125-43.961181640630457-14.12823486328125h0Z" fill="#181818" stroke-width="0"/>
        </g>
      </a>
      <a xlink:href="https://www.notion.so/dmmnotes/Type-AC-fcafcf3712bd425293abdb7055fe3005?pvs=4">
        <g id="C">
          <path d="M349.905517578130457,414.698242187496362c-36.970458984380457,0-67.048583984380457-30.078125-67.048828125-67.048828125,0-36.970703125,30.077880859369543-67.048828125,67.048828125-67.048828125,36.970458984369543,0,67.048583984369543,30.078125,67.048828125,67.048828125,0,36.970703125-30.077880859380457,67.048828125-67.048828125,67.048828125Z" fill="url(#C4-3)" stroke-width="0"/>
          <path d="M349.905517578130457,289.100830078121362c32.33544921875,0,58.548583984369543,26.213134765625,58.548828125,58.5487060546875,0,32.3355712890625-26.213134765630457,58.5487060546875-58.548828125,58.5487060546875-.001953125,0,.001708984369543,0-.000244140630457,0-32.332763671869543,0-58.54833984375-26.2149658203125-58.548583984369543-58.548583984375,0-32.3355712890625,26.213134765619543-58.548828125,58.548828125-58.548828125M349.905517578130457,272.100830078121362c-41.65771484375,0-75.548828125,33.8909912109375-75.548828125,75.548828125.000244140619543,41.65771484375,33.891357421869543,75.548583984375,75.548583984369543,75.548583984375,41.657958984380457,0,75.549072265630457-33.8909912109375,75.549072265630457-75.5487060546875-.000244140630457-41.65771484375-33.891357421880457-75.5487060546875-75.548828125-75.5487060546875h0Z" fill="#181818" stroke-width="0"/>
        </g>
      </a>
      <a xlink:href="https://www.notion.so/dmmnotes/AC-0fe4a3222d9f4fd097ab4546c9776768?pvs=4#2e8f301c49ea403dbd879f3d87d7179c">
        <g id="AC-4" data-name="AC">
          <g>
            <path d="M273.865234375,213.095703125c3.9765625,2.302734375,7.37890625,5.12890625,10.205078125,8.4775390625,2.8251953125,3.3515625,5.205078125,7.013671875,7.142578125,10.990234375,1.935546875,3.978515625,3.478515625,8.1904296875,4.6318359375,12.638671875,1.150390625,4.44921875,2.041015625,8.923828125,2.6689453125,13.4228515625,1.46484375,8.8974609375,2.30078125,17.8984375,2.51171875,27.00390625.208984375,9.1064453125.0517578125,18.2666015625-.470703125,27.4755859375-.2109375,2.6171875-.419921875,4.763671875-.6279296875,6.4365234375-.2109375,1.67578125-.603515625,3.037109375-1.177734375,4.08203125-.576171875,1.0478515625-1.3876953125,1.884765625-2.4326171875,2.5126953125-1.048828125.6279296875-2.5126953125,1.2021484375-4.396484375,1.7265625-1.78125.208984375-3.638671875.365234375-5.57421875.470703125-1.9375.103515625-3.7431640625-.4189453125-5.416015625-1.5693359375-1.5703125-1.044921875-2.8798828125-2.826171875-3.9248046875-5.337890625-1.0478515625-2.5126953125-1.6240234375-6.123046875-1.7275390625-10.8330078125v-1.5703125c-2.6171875-.314453125-5.73046875-.57421875-9.341796875-.78515625-3.6103515625-.2080078125-7.2998046875-.3388671875-11.068359375-.392578125-3.767578125-.0517578125-7.4052734375-.078125-10.9111328125-.078125h-8.8701171875c-.10546875.94140625-.236328125,2.51171875-.392578125,4.7099609375-.1572265625,2.1982421875-.498046875,4.3955078125-1.0205078125,6.59375-.5244140625,2.1982421875-1.2314453125,4.1875-2.1201171875,5.9658203125-.890625,1.78125-2.119140625,2.720703125-3.689453125,2.826171875-1.466796875.103515625-3.1396484375.208984375-5.0234375.314453125-1.884765625.1025390625-3.716796875-.10546875-5.4951171875-.6279296875-1.7802734375-.41796875-3.2724609375-1.2568359375-4.474609375-2.5126953125-1.2041015625-1.255859375-1.859375-3.2431640625-1.9619140625-5.9658203125,0-3.2431640625.05078125-6.958984375.15625-11.146484375.103515625-4.185546875.314453125-8.73828125.62890625-13.6591796875.2080078125-4.08203125.548828125-8.556640625,1.01953125-13.423828125s1.150390625-9.8642578125,2.041015625-14.9931640625c.888671875-5.126953125,2.041015625-10.2568359375,3.4541015625-15.38671875,1.4130859375-5.126953125,3.1923828125-9.9931640625,5.3388671875-14.6005859375,2.1435546875-4.6044921875,4.6826171875-8.84375,7.61328125-12.716796875,2.9296875-3.87109375,6.4375-7.1162109375,10.51953125-9.734375,4.8125-3.0341796875,10.099609375-4.552734375,15.857421875-4.552734375,5.7548828125,0,11.1982421875,1.4130859375,16.328125,4.2392578125ZM235.7138671875,284.5302734375c6.59375-.5224609375,13.1611328125-.9150390625,19.703125-1.177734375,6.5400390625-.259765625,13.1103515625-.287109375,19.7041015625-.078125.3134765625-7.4306640625,0-14.076171875-.9423828125-19.939453125-.9423828125-5.8603515625-2.251953125-10.8056640625-3.9248046875-14.8359375-1.67578125-4.0283203125-3.6650390625-7.1162109375-5.966796875-9.2626953125-2.302734375-2.14453125-4.658203125-3.21875-7.064453125-3.21875-2.0947265625,0-4.265625,1.07421875-6.515625,3.21875-2.251953125,2.146484375-4.34375,5.2861328125-6.279296875,9.419921875-1.9384765625,4.1357421875-3.689453125,9.23828125-5.259765625,15.306640625-1.5703125,6.072265625-2.72265625,12.9287109375-3.4541015625,20.5673828125Z" fill="none" stroke="#181818" stroke-linecap="round" stroke-linejoin="round" stroke-width="33"/>
            <path d="M362.8828125,243.2392578125c.1025390625-3.0341796875-.392578125-5.310546875-1.4921875-6.8291015625-1.0986328125-1.5166015625-2.4873046875-2.4580078125-4.16015625-2.826171875-1.67578125-.365234375-3.48046875-.181640625-5.416015625.5498046875-1.9384765625.7333984375-3.689453125,1.7802734375-5.259765625,3.1396484375-3.6650390625,3.1396484375-6.62109375,7.1435546875-8.87109375,12.0107421875-2.251953125,4.8662109375-3.767578125,9.96875-4.552734375,15.3076171875-.78515625,5.337890625-.8388671875,10.6513671875-.15625,15.935546875.6787109375,5.2861328125,2.169921875,9.8662109375,4.474609375,13.7373046875,1.4638671875,2.51171875,3.2177734375,4.37109375,5.2587890625,5.5732421875,2.041015625,1.2041015625,4.2119140625,1.8837890625,6.515625,2.041015625,2.30078125.1572265625,4.5771484375-.208984375,6.8291015625-1.0986328125,2.25-.888671875,4.263671875-2.22265625,6.044921875-4.00390625,2.720703125-2.720703125,4.91796875-4.65625,6.59375-5.80859375,1.673828125-1.1513671875,3.556640625-1.779296875,5.65234375-1.884765625,5.9658203125,0,9.916015625,1.67578125,11.853515625,5.0244140625,1.935546875,3.3505859375,2.0654296875,7.4326171875.392578125,12.24609375-1.361328125,3.767578125-3.4296875,7.064453125-6.201171875,9.890625-2.775390625,2.826171875-5.994140625,5.1025390625-9.65625,6.830078125-3.6650390625,1.7265625-7.58984375,2.9306640625-11.775390625,3.6103515625-4.1875.6796875-8.3203125.8642578125-12.40234375.5498046875s-7.955078125-1.177734375-11.6181640625-2.5908203125c-3.6650390625-1.4130859375-6.8056640625-3.3212890625-9.419921875-5.73046875-2.931640625-2.720703125-5.4951171875-5.8330078125-7.6923828125-9.3408203125-2.19921875-3.505859375-4.03125-7.22265625-5.49609375-11.1474609375-1.466796875-3.9248046875-2.5654296875-8.0068359375-3.296875-12.24609375-.7333984375-4.2392578125-1.0986328125-8.501953125-1.0986328125-12.794921875.2080078125-9.62890625,2.2490234375-18.943359375,6.123046875-27.9462890625,3.87109375-9.0009765625,9.0009765625-16.8505859375,15.3857421875-23.5498046875,2.9296875-3.03515625,6.41015625-5.625,10.4404296875-7.771484375,4.0283203125-2.14453125,8.1640625-3.533203125,12.4033203125-4.1611328125,4.23828125-.6279296875,8.3994140625-.4169921875,12.4814453125.6279296875,4.08203125,1.0478515625,7.6923828125,3.24609375,10.8330078125,6.5947265625,2.40625,2.51171875,4.341796875,5.3916015625,5.80859375,8.634765625,1.46484375,3.2451171875,2.564453125,6.4912109375,3.296875,9.7333984375.41796875,2.095703125.6015625,4.08203125.5498046875,5.966796875-.0537109375,1.8837890625-.498046875,3.6650390625-1.3349609375,5.337890625-1.15234375,2.0947265625-2.9306640625,3.5859375-5.337890625,4.474609375-2.408203125.890625-4.7880859375,1.1767578125-7.142578125.86328125-2.35546875-.314453125-4.396484375-1.2294921875-6.123046875-2.748046875-1.7275390625-1.515625-2.5390625-3.583984375-2.43359375-6.201171875Z" fill="none" stroke="#181818" stroke-linecap="round" stroke-linejoin="round" stroke-width="33"/>
          </g>
          <g>
            <path d="M273.865234375,213.095703125c3.9765625,2.302734375,7.37890625,5.12890625,10.205078125,8.4775390625,2.8251953125,3.3515625,5.205078125,7.013671875,7.142578125,10.990234375,1.935546875,3.978515625,3.478515625,8.1904296875,4.6318359375,12.638671875,1.150390625,4.44921875,2.041015625,8.923828125,2.6689453125,13.4228515625,1.46484375,8.8974609375,2.30078125,17.8984375,2.51171875,27.00390625.208984375,9.1064453125.0517578125,18.2666015625-.470703125,27.4755859375-.2109375,2.6171875-.419921875,4.763671875-.6279296875,6.4365234375-.2109375,1.67578125-.603515625,3.037109375-1.177734375,4.08203125-.576171875,1.0478515625-1.3876953125,1.884765625-2.4326171875,2.5126953125-1.048828125.6279296875-2.5126953125,1.2021484375-4.396484375,1.7265625-1.78125.208984375-3.638671875.365234375-5.57421875.470703125-1.9375.103515625-3.7431640625-.4189453125-5.416015625-1.5693359375-1.5703125-1.044921875-2.8798828125-2.826171875-3.9248046875-5.337890625-1.0478515625-2.5126953125-1.6240234375-6.123046875-1.7275390625-10.8330078125v-1.5703125c-2.6171875-.314453125-5.73046875-.57421875-9.341796875-.78515625-3.6103515625-.2080078125-7.2998046875-.3388671875-11.068359375-.392578125-3.767578125-.0517578125-7.4052734375-.078125-10.9111328125-.078125h-8.8701171875c-.10546875.94140625-.236328125,2.51171875-.392578125,4.7099609375-.1572265625,2.1982421875-.498046875,4.3955078125-1.0205078125,6.59375-.5244140625,2.1982421875-1.2314453125,4.1875-2.1201171875,5.9658203125-.890625,1.78125-2.119140625,2.720703125-3.689453125,2.826171875-1.466796875.103515625-3.1396484375.208984375-5.0234375.314453125-1.884765625.1025390625-3.716796875-.10546875-5.4951171875-.6279296875-1.7802734375-.41796875-3.2724609375-1.2568359375-4.474609375-2.5126953125-1.2041015625-1.255859375-1.859375-3.2431640625-1.9619140625-5.9658203125,0-3.2431640625.05078125-6.958984375.15625-11.146484375.103515625-4.185546875.314453125-8.73828125.62890625-13.6591796875.2080078125-4.08203125.548828125-8.556640625,1.01953125-13.423828125s1.150390625-9.8642578125,2.041015625-14.9931640625c.888671875-5.126953125,2.041015625-10.2568359375,3.4541015625-15.38671875,1.4130859375-5.126953125,3.1923828125-9.9931640625,5.3388671875-14.6005859375,2.1435546875-4.6044921875,4.6826171875-8.84375,7.61328125-12.716796875,2.9296875-3.87109375,6.4375-7.1162109375,10.51953125-9.734375,4.8125-3.0341796875,10.099609375-4.552734375,15.857421875-4.552734375,5.7548828125,0,11.1982421875,1.4130859375,16.328125,4.2392578125ZM235.7138671875,284.5302734375c6.59375-.5224609375,13.1611328125-.9150390625,19.703125-1.177734375,6.5400390625-.259765625,13.1103515625-.287109375,19.7041015625-.078125.3134765625-7.4306640625,0-14.076171875-.9423828125-19.939453125-.9423828125-5.8603515625-2.251953125-10.8056640625-3.9248046875-14.8359375-1.67578125-4.0283203125-3.6650390625-7.1162109375-5.966796875-9.2626953125-2.302734375-2.14453125-4.658203125-3.21875-7.064453125-3.21875-2.0947265625,0-4.265625,1.07421875-6.515625,3.21875-2.251953125,2.146484375-4.34375,5.2861328125-6.279296875,9.419921875-1.9384765625,4.1357421875-3.689453125,9.23828125-5.259765625,15.306640625-1.5703125,6.072265625-2.72265625,12.9287109375-3.4541015625,20.5673828125Z" fill="#fff" stroke-width="0"/>
            <path d="M362.8828125,243.2392578125c.1025390625-3.0341796875-.392578125-5.310546875-1.4921875-6.8291015625-1.0986328125-1.5166015625-2.4873046875-2.4580078125-4.16015625-2.826171875-1.67578125-.365234375-3.48046875-.181640625-5.416015625.5498046875-1.9384765625.7333984375-3.689453125,1.7802734375-5.259765625,3.1396484375-3.6650390625,3.1396484375-6.62109375,7.1435546875-8.87109375,12.0107421875-2.251953125,4.8662109375-3.767578125,9.96875-4.552734375,15.3076171875-.78515625,5.337890625-.8388671875,10.6513671875-.15625,15.935546875.6787109375,5.2861328125,2.169921875,9.8662109375,4.474609375,13.7373046875,1.4638671875,2.51171875,3.2177734375,4.37109375,5.2587890625,5.5732421875,2.041015625,1.2041015625,4.2119140625,1.8837890625,6.515625,2.041015625,2.30078125.1572265625,4.5771484375-.208984375,6.8291015625-1.0986328125,2.25-.888671875,4.263671875-2.22265625,6.044921875-4.00390625,2.720703125-2.720703125,4.91796875-4.65625,6.59375-5.80859375,1.673828125-1.1513671875,3.556640625-1.779296875,5.65234375-1.884765625,5.9658203125,0,9.916015625,1.67578125,11.853515625,5.0244140625,1.935546875,3.3505859375,2.0654296875,7.4326171875.392578125,12.24609375-1.361328125,3.767578125-3.4296875,7.064453125-6.201171875,9.890625-2.775390625,2.826171875-5.994140625,5.1025390625-9.65625,6.830078125-3.6650390625,1.7265625-7.58984375,2.9306640625-11.775390625,3.6103515625-4.1875.6796875-8.3203125.8642578125-12.40234375.5498046875s-7.955078125-1.177734375-11.6181640625-2.5908203125c-3.6650390625-1.4130859375-6.8056640625-3.3212890625-9.419921875-5.73046875-2.931640625-2.720703125-5.4951171875-5.8330078125-7.6923828125-9.3408203125-2.19921875-3.505859375-4.03125-7.22265625-5.49609375-11.1474609375-1.466796875-3.9248046875-2.5654296875-8.0068359375-3.296875-12.24609375-.7333984375-4.2392578125-1.0986328125-8.501953125-1.0986328125-12.794921875.2080078125-9.62890625,2.2490234375-18.943359375,6.123046875-27.9462890625,3.87109375-9.0009765625,9.0009765625-16.8505859375,15.3857421875-23.5498046875,2.9296875-3.03515625,6.41015625-5.625,10.4404296875-7.771484375,4.0283203125-2.14453125,8.1640625-3.533203125,12.4033203125-4.1611328125,4.23828125-.6279296875,8.3994140625-.4169921875,12.4814453125.6279296875,4.08203125,1.0478515625,7.6923828125,3.24609375,10.8330078125,6.5947265625,2.40625,2.51171875,4.341796875,5.3916015625,5.80859375,8.634765625,1.46484375,3.2451171875,2.564453125,6.4912109375,3.296875,9.7333984375.41796875,2.095703125.6015625,4.08203125.5498046875,5.966796875-.0537109375,1.8837890625-.498046875,3.6650390625-1.3349609375,5.337890625-1.15234375,2.0947265625-2.9306640625,3.5859375-5.337890625,4.474609375-2.408203125.890625-4.7880859375,1.1767578125-7.142578125.86328125-2.35546875-.314453125-4.396484375-1.2294921875-6.123046875-2.748046875-1.7275390625-1.515625-2.5390625-3.583984375-2.43359375-6.201171875Z" fill="#fff" stroke-width="0"/>
          </g>
        </g>
      </a>
    </g>
  </a>
</svg>