<?xml version="1.0" encoding="UTF-8"?>
<svg id="Layer_1" data-name="Layer 1" xmlns="http://www.w3.org/2000/svg" width="599.999999999996362" height="599.999999999998181" xmlns:xlink="http://www.w3.org/1999/xlink" viewBox="0 0 599.999999999996362 599.999999999998181">
  <defs>
    <linearGradient id="C3-3" data-name="C3" x1="257.367568776782718" y1="414.270400348756084" x2="344.968624797303221" y2="277.393750316712726" gradientUnits="userSpaceOnUse">
      <stop offset="0" stop-color="#679a5a"/>
      <stop offset=".203304411159916" stop-color="#6c9a56"/>
      <stop offset=".454423858001689" stop-color="#7b9d4d"/>
      <stop offset=".487179487179487" stop-color="#7e9e4c"/>
      <stop offset="1" stop-color="#91a23d"/>
    </linearGradient>
  </defs>
  <g id="pie_with_links_-5" data-name="pie (with links)">
    <g id="pie_with_links_-6" data-name="pie (with links)">
      <a xlink:href="https://www.notion.so/dmmnotes/C3-2d8ccce383534b9dbfc7b4b10b8a5d5c?pvs=4#f60ac57c7e0640f689cfeee0c2565c2b">
        <g id="C3">
          <g id="C3-2" data-name="C3">
            <path d="M300,414.706054687487267c-36.970703125,0-67.048828125-30.078125-67.048828125-67.048828125s30.078125-67.048828125,67.048828125-67.048828125,67.048828125,30.078125,67.048828125,67.048828125-30.078125,67.048828125-67.048828125,67.048828125Z" style="fill: url(#C3-3); stroke-width: 0px;"/>
            <path d="M300.0001220703125,289.108581542956017c32.3355712890625,0,58.5487060546875,26.213134765625,58.5487060546875,58.5487060546875s-26.213134765625,58.5487060546875-58.5487060546875,58.5487060546875-58.548706054692957-26.213134765625-58.548706054692957-58.5487060546875,26.213134765630457-58.5487060546875,58.548706054692957-58.5487060546875M300.0001220703125,272.108581542956017c-41.65771484375,0-75.548706054692957,33.8909912109375-75.548706054692957,75.5487060546875s33.890991210942957,75.5487060546875,75.548706054692957,75.5487060546875,75.5487060546875-33.8909912109375,75.5487060546875-75.5487060546875-33.8909912109375-75.5487060546875-75.5487060546875-75.5487060546875h0Z" style="fill: #181818; stroke-width: 0px;"/>
          </g>
          <a xlink:href="https://www.notion.so/dmmnotes/C3-2d8ccce383534b9dbfc7b4b10b8a5d5c?pvs=4#f60ac57c7e0640f689cfeee0c2565c2b">
            <g>
              <g>
                <path d="M278.806640625,243.247070312487267c.10302734375-3.0341796875-.39208984375-5.310546875-1.4912109375-6.8291015625-1.09912109375-1.5166015625-2.48779296875-2.4580078125-4.16064453125-2.826171875-1.67529296875-.365234375-3.48095703125-.181640625-5.41650390625.5498046875-1.93798828125.7333984375-3.689453125,1.7802734375-5.25927734375,3.1396484375-3.6650390625,3.1396484375-6.62109375,7.1435546875-8.87060546875,12.0107421875-2.251953125,4.8662109375-3.76806640625,9.96875-4.55322265625,15.3076171875-.78466796875,5.337890625-.8388671875,10.6513671875-.15673828125,15.935546875.67919921875,5.2861328125,2.1708984375,9.8662109375,4.474609375,13.7373046875,1.46435546875,2.51171875,3.21826171875,4.37109375,5.25927734375,5.5732421875,2.041015625,1.2041015625,4.2119140625,1.8837890625,6.515625,2.041015625,2.30078125.1572265625,4.57763671875-.208984375,6.82958984375-1.0986328125,2.24951171875-.888671875,4.26318359375-2.22265625,6.04443359375-4.00390625,2.72021484375-2.720703125,4.91845703125-4.65625,6.59375-5.80859375,1.67333984375-1.1513671875,3.55712890625-1.779296875,5.65234375-1.884765625,5.9658203125,0,9.91552734375,1.67578125,11.853515625,5.0244140625,1.93505859375,3.3505859375,2.0654296875,7.4326171875.39208984375,12.24609375-1.361328125,3.767578125-3.42919921875,7.064453125-6.201171875,9.890625-2.7744140625,2.826171875-5.9931640625,5.1025390625-9.65576171875,6.830078125-3.6650390625,1.7265625-7.58984375,2.9306640625-11.77490234375,3.6103515625-4.1875.6796875-8.32080078125.8642578125-12.40283203125.5498046875s-7.95556640625-1.177734375-11.6181640625-2.5908203125c-3.6650390625-1.4130859375-6.80517578125-3.3212890625-9.419921875-5.73046875-2.931640625-2.720703125-5.4951171875-5.8330078125-7.69287109375-9.3408203125-2.1982421875-3.505859375-4.03076171875-7.22265625-5.4951171875-11.1474609375-1.46728515625-3.9248046875-2.56591796875-8.0068359375-3.296875-12.24609375-.73388671875-4.2392578125-1.09912109375-8.501953125-1.09912109375-12.794921875.20849609375-9.62890625,2.24951171875-18.943359375,6.123046875-27.9462890625,3.87109375-9.0009765625,9.00048828125-16.8505859375,15.3857421875-23.5498046875,2.92919921875-3.03515625,6.41015625-5.625,10.4404296875-7.771484375,4.0283203125-2.14453125,8.1640625-3.533203125,12.4033203125-4.1611328125,4.23876953125-.6279296875,8.3994140625-.4169921875,12.4814453125.6279296875,4.08203125,1.0478515625,7.69287109375,3.24609375,10.8330078125,6.5947265625,2.40625,2.51171875,4.341796875,5.3916015625,5.80908203125,8.634765625,1.46435546875,3.2451171875,2.5634765625,6.4912109375,3.296875,9.7333984375.4169921875,2.095703125.60107421875,4.08203125.54931640625,5.966796875-.0537109375,1.8837890625-.498046875,3.6650390625-1.33447265625,5.337890625-1.15283203125,2.0947265625-2.93115234375,3.5859375-5.337890625,4.474609375-2.4091796875.890625-4.78857421875,1.1767578125-7.1435546875.86328125-2.35498046875-.314453125-4.39599609375-1.2294921875-6.123046875-2.748046875-1.72705078125-1.515625-2.5390625-3.583984375-2.43359375-6.201171875Z" style="fill: none; stroke: #181818; stroke-linecap: round; stroke-linejoin: round; stroke-width: 33px;"/>
                <path d="M366.25341796875,267.739257812487267c3.03466796875,3.6650390625,5.41650390625,8.0849609375,7.1435546875,13.2666015625,1.72705078125,5.1806640625,2.328125,10.283203125,1.8056640625,15.3076171875-.419921875,3.873046875-1.5703125,7.7197265625-3.4541015625,11.5390625-1.88427734375,3.822265625-4.29296875,7.2216796875-7.22216796875,10.205078125-2.931640625,2.9833984375-6.30712890625,5.3916015625-10.12646484375,7.2216796875-3.82177734375,1.8330078125-7.9287109375,2.748046875-12.32470703125,2.748046875-2.72265625,0-5.49462890625-.2900390625-8.32080078125-.86328125-2.826171875-.57421875-5.5732421875-1.38671875-8.24267578125-2.43359375-2.6689453125-1.044921875-5.15625-2.4072265625-7.45751953125-4.08203125-2.30322265625-1.6728515625-4.1875-3.611328125-5.65185546875-5.8095703125-1.56982421875-2.197265625-2.041015625-4.6044921875-1.4130859375-7.2216796875.6279296875-2.9287109375,1.85693359375-5.4677734375,3.689453125-7.6142578125,1.830078125-2.14453125,3.53271484375-3.8984375,5.1025390625-5.259765625.8369140625-.6279296875,1.88427734375-1.044921875,3.14013671875-1.255859375,1.255859375-.208984375,2.4580078125.3134765625,3.61083984375,1.5703125,1.88427734375,2.197265625,3.92529296875,3.951171875,6.123046875,5.2587890625,2.1982421875,1.310546875,4.369140625,2.041015625,6.515625,2.1982421875,2.14404296875.1572265625,4.18505859375-.3134765625,6.123046875-1.4130859375,1.935546875-1.0986328125,3.583984375-2.904296875,4.9453125-5.416015625.73095703125-1.46484375,1.15087890625-3.03515625,1.25634765625-4.7099609375.10302734375-1.673828125-.2109375-3.21875-.9423828125-4.6318359375-.7333984375-1.4130859375-1.93798828125-2.615234375-3.61083984375-3.611328125-1.67529296875-.9931640625-3.87353515625-1.5947265625-6.59375-1.8056640625-.21142578125.10546875-.3681640625.1328125-.47119140625.0791015625-.10546875-.0517578125-.2109375-.0791015625-.31396484375-.0791015625h-.31396484375c-.10546875.10546875-.2109375.1572265625-.31396484375.1572265625h-.6279296875c-.31396484375-.1025390625-.6552734375-.181640625-1.0205078125-.2353515625-.3681640625-.0517578125-.6552734375-.181640625-.86376953125-.392578125-1.15283203125-.3134765625-1.93798828125-1.255859375-2.35498046875-2.826171875-.41943359375-1.5693359375-.65478515625-3.296875-.70654296875-5.1806640625-.0537109375-1.8837890625.0244140625-3.7412109375.23583984375-5.5732421875.20849609375-1.830078125.470703125-3.1650390625.78466796875-4.00390625.4169921875-1.150390625.94189453125-2.119140625,1.5703125-2.904296875.6279296875-.78515625,1.35888671875-1.177734375,2.19775390625-1.177734375,2.615234375,0,4.91845703125-.8359375,6.908203125-2.51171875,1.98681640625-1.6728515625,3.39990234375-3.5576171875,4.23876953125-5.65234375.83642578125-2.0927734375.966796875-4.0546875.392578125-5.8876953125-.57666015625-1.830078125-2.17333984375-2.8505859375-4.78857421875-3.0615234375-1.78076171875-.2080078125-3.689453125.341796875-5.73046875,1.6494140625-2.041015625,1.3095703125-3.74365234375,3.3232421875-5.1025390625,6.0439453125-.52490234375,1.0478515625-.94189453125,2.068359375-1.255859375,3.0615234375-.31396484375.99609375-1.09912109375,1.75390625-2.35498046875,2.2763671875-1.04736328125.419921875-2.041015625.6279296875-2.98291015625.6279296875-3.037109375,0-5.94189453125-.8876953125-8.7138671875-2.6689453125-2.7744140625-1.7783203125-4.63134765625-4.2900390625-5.5732421875-7.5361328125-.41943359375-1.986328125-.3681640625-3.9248046875.15673828125-5.80859375.5224609375-1.8837890625,1.3076171875-3.7138671875,2.35498046875-5.4951171875,1.77880859375-2.9287109375,4.0283203125-5.4951171875,6.7509765625-7.693359375,2.720703125-2.197265625,5.73095703125-3.94921875,9.02783203125-5.2587890625,3.296875-1.3076171875,6.80224609375-2.1201171875,10.51904296875-2.43359375,3.7138671875-.314453125,7.45751953125,0,11.2255859375.94140625,4.7099609375,1.1533203125,8.58056640625,3.32421875,11.61767578125,6.515625,3.03466796875,3.1943359375,5.154296875,6.986328125,6.3583984375,11.3828125,1.2021484375,4.3955078125,1.4130859375,9.2109375.62841796875,14.4443359375-.78515625,5.234375-2.64453125,10.572265625-5.57373046875,16.013671875Z" style="fill: none; stroke: #181818; stroke-linecap: round; stroke-linejoin: round; stroke-width: 33px;"/>
              </g>
              <g>
                <path d="M278.806640625,243.247070312487267c.10302734375-3.0341796875-.39208984375-5.310546875-1.4912109375-6.8291015625-1.09912109375-1.5166015625-2.48779296875-2.4580078125-4.16064453125-2.826171875-1.67529296875-.365234375-3.48095703125-.181640625-5.41650390625.5498046875-1.93798828125.7333984375-3.689453125,1.7802734375-5.25927734375,3.1396484375-3.6650390625,3.1396484375-6.62109375,7.1435546875-8.87060546875,12.0107421875-2.251953125,4.8662109375-3.76806640625,9.96875-4.55322265625,15.3076171875-.78466796875,5.337890625-.8388671875,10.6513671875-.15673828125,15.935546875.67919921875,5.2861328125,2.1708984375,9.8662109375,4.474609375,13.7373046875,1.46435546875,2.51171875,3.21826171875,4.37109375,5.25927734375,5.5732421875,2.041015625,1.2041015625,4.2119140625,1.8837890625,6.515625,2.041015625,2.30078125.1572265625,4.57763671875-.208984375,6.82958984375-1.0986328125,2.24951171875-.888671875,4.26318359375-2.22265625,6.04443359375-4.00390625,2.72021484375-2.720703125,4.91845703125-4.65625,6.59375-5.80859375,1.67333984375-1.1513671875,3.55712890625-1.779296875,5.65234375-1.884765625,5.9658203125,0,9.91552734375,1.67578125,11.853515625,5.0244140625,1.93505859375,3.3505859375,2.0654296875,7.4326171875.39208984375,12.24609375-1.361328125,3.767578125-3.42919921875,7.064453125-6.201171875,9.890625-2.7744140625,2.826171875-5.9931640625,5.1025390625-9.65576171875,6.830078125-3.6650390625,1.7265625-7.58984375,2.9306640625-11.77490234375,3.6103515625-4.1875.6796875-8.32080078125.8642578125-12.40283203125.5498046875s-7.95556640625-1.177734375-11.6181640625-2.5908203125c-3.6650390625-1.4130859375-6.80517578125-3.3212890625-9.419921875-5.73046875-2.931640625-2.720703125-5.4951171875-5.8330078125-7.69287109375-9.3408203125-2.1982421875-3.505859375-4.03076171875-7.22265625-5.4951171875-11.1474609375-1.46728515625-3.9248046875-2.56591796875-8.0068359375-3.296875-12.24609375-.73388671875-4.2392578125-1.09912109375-8.501953125-1.09912109375-12.794921875.20849609375-9.62890625,2.24951171875-18.943359375,6.123046875-27.9462890625,3.87109375-9.0009765625,9.00048828125-16.8505859375,15.3857421875-23.5498046875,2.92919921875-3.03515625,6.41015625-5.625,10.4404296875-7.771484375,4.0283203125-2.14453125,8.1640625-3.533203125,12.4033203125-4.1611328125,4.23876953125-.6279296875,8.3994140625-.4169921875,12.4814453125.6279296875,4.08203125,1.0478515625,7.69287109375,3.24609375,10.8330078125,6.5947265625,2.40625,2.51171875,4.341796875,5.3916015625,5.80908203125,8.634765625,1.46435546875,3.2451171875,2.5634765625,6.4912109375,3.296875,9.7333984375.4169921875,2.095703125.60107421875,4.08203125.54931640625,5.966796875-.0537109375,1.8837890625-.498046875,3.6650390625-1.33447265625,5.337890625-1.15283203125,2.0947265625-2.93115234375,3.5859375-5.337890625,4.474609375-2.4091796875.890625-4.78857421875,1.1767578125-7.1435546875.86328125-2.35498046875-.314453125-4.39599609375-1.2294921875-6.123046875-2.748046875-1.72705078125-1.515625-2.5390625-3.583984375-2.43359375-6.201171875Z" style="fill: #e2dddb; stroke-width: 0px;"/>
                <path d="M366.25341796875,267.739257812487267c3.03466796875,3.6650390625,5.41650390625,8.0849609375,7.1435546875,13.2666015625,1.72705078125,5.1806640625,2.328125,10.283203125,1.8056640625,15.3076171875-.419921875,3.873046875-1.5703125,7.7197265625-3.4541015625,11.5390625-1.88427734375,3.822265625-4.29296875,7.2216796875-7.22216796875,10.205078125-2.931640625,2.9833984375-6.30712890625,5.3916015625-10.12646484375,7.2216796875-3.82177734375,1.8330078125-7.9287109375,2.748046875-12.32470703125,2.748046875-2.72265625,0-5.49462890625-.2900390625-8.32080078125-.86328125-2.826171875-.57421875-5.5732421875-1.38671875-8.24267578125-2.43359375-2.6689453125-1.044921875-5.15625-2.4072265625-7.45751953125-4.08203125-2.30322265625-1.6728515625-4.1875-3.611328125-5.65185546875-5.8095703125-1.56982421875-2.197265625-2.041015625-4.6044921875-1.4130859375-7.2216796875.6279296875-2.9287109375,1.85693359375-5.4677734375,3.689453125-7.6142578125,1.830078125-2.14453125,3.53271484375-3.8984375,5.1025390625-5.259765625.8369140625-.6279296875,1.88427734375-1.044921875,3.14013671875-1.255859375,1.255859375-.208984375,2.4580078125.3134765625,3.61083984375,1.5703125,1.88427734375,2.197265625,3.92529296875,3.951171875,6.123046875,5.2587890625,2.1982421875,1.310546875,4.369140625,2.041015625,6.515625,2.1982421875,2.14404296875.1572265625,4.18505859375-.3134765625,6.123046875-1.4130859375,1.935546875-1.0986328125,3.583984375-2.904296875,4.9453125-5.416015625.73095703125-1.46484375,1.15087890625-3.03515625,1.25634765625-4.7099609375.10302734375-1.673828125-.2109375-3.21875-.9423828125-4.6318359375-.7333984375-1.4130859375-1.93798828125-2.615234375-3.61083984375-3.611328125-1.67529296875-.9931640625-3.87353515625-1.5947265625-6.59375-1.8056640625-.21142578125.10546875-.3681640625.1328125-.47119140625.0791015625-.10546875-.0517578125-.2109375-.0791015625-.31396484375-.0791015625h-.31396484375c-.10546875.10546875-.2109375.1572265625-.31396484375.1572265625h-.6279296875c-.31396484375-.1025390625-.6552734375-.181640625-1.0205078125-.2353515625-.3681640625-.0517578125-.6552734375-.181640625-.86376953125-.392578125-1.15283203125-.3134765625-1.93798828125-1.255859375-2.35498046875-2.826171875-.41943359375-1.5693359375-.65478515625-3.296875-.70654296875-5.1806640625-.0537109375-1.8837890625.0244140625-3.7412109375.23583984375-5.5732421875.20849609375-1.830078125.470703125-3.1650390625.78466796875-4.00390625.4169921875-1.150390625.94189453125-2.119140625,1.5703125-2.904296875.6279296875-.78515625,1.35888671875-1.177734375,2.19775390625-1.177734375,2.615234375,0,4.91845703125-.8359375,6.908203125-2.51171875,1.98681640625-1.6728515625,3.39990234375-3.5576171875,4.23876953125-5.65234375.83642578125-2.0927734375.966796875-4.0546875.392578125-5.8876953125-.57666015625-1.830078125-2.17333984375-2.8505859375-4.78857421875-3.0615234375-1.78076171875-.2080078125-3.689453125.341796875-5.73046875,1.6494140625-2.041015625,1.3095703125-3.74365234375,3.3232421875-5.1025390625,6.0439453125-.52490234375,1.0478515625-.94189453125,2.068359375-1.255859375,3.0615234375-.31396484375.99609375-1.09912109375,1.75390625-2.35498046875,2.2763671875-1.04736328125.419921875-2.041015625.6279296875-2.98291015625.6279296875-3.037109375,0-5.94189453125-.8876953125-8.7138671875-2.6689453125-2.7744140625-1.7783203125-4.63134765625-4.2900390625-5.5732421875-7.5361328125-.41943359375-1.986328125-.3681640625-3.9248046875.15673828125-5.80859375.5224609375-1.8837890625,1.3076171875-3.7138671875,2.35498046875-5.4951171875,1.77880859375-2.9287109375,4.0283203125-5.4951171875,6.7509765625-7.693359375,2.720703125-2.197265625,5.73095703125-3.94921875,9.02783203125-5.2587890625,3.296875-1.3076171875,6.80224609375-2.1201171875,10.51904296875-2.43359375,3.7138671875-.314453125,7.45751953125,0,11.2255859375.94140625,4.7099609375,1.1533203125,8.58056640625,3.32421875,11.61767578125,6.515625,3.03466796875,3.1943359375,5.154296875,6.986328125,6.3583984375,11.3828125,1.2021484375,4.3955078125,1.4130859375,9.2109375.62841796875,14.4443359375-.78515625,5.234375-2.64453125,10.572265625-5.57373046875,16.013671875Z" style="fill: #e2dddb; stroke-width: 0px;"/>
              </g>
            </g>
          </a>
        </g>
      </a>
      <g id="Pie">
        <g>
          <a xlink:href="https://www.notion.so/dmmnotes/paranoid-ae38b1e6af0c4dd08f61e0d8f6e9f05f?pvs=4">
            <path id="C8" d="M331.308105468759095,517.749511718748181l7.825683593739086,54.4306640625c26.439208984369543-3.767822265628638,51.645751953139552-11.3115234375,75.101318359369543-22.04296875l-22.832519531239086-49.996826171878638c-18.7666015625,8.572265625-38.93505859375,14.601318359378638-60.094482421869543,17.609130859378638Z" style="fill: none; stroke: #181818; stroke-linecap: round; stroke-linejoin: round; stroke-width: 15px;"/>
          </a>
          <a xlink:href="https://www.notion.so/dmmnotes/menacing-a5bd7149286344deba45ec15e759e579?pvs=4">
            <path id="C7" d="M391.402587890628638,500.140380859369543l22.832519531239086,49.996826171878638c23.989990234391371-10.975830078121362,46.116210937520009-25.287109375010914,65.803955078141371-42.36181640625l-35.972900390630457-41.515869140621362c-15.753417968760914,13.65869140625-33.459228515630457,25.104492187492724-52.66357421875,33.880859374992724Z" style="fill: none; stroke: #181818; stroke-linecap: round; stroke-linejoin: round; stroke-width: 15px;"/>
          </a>
          <a xlink:href="https://www.notion.so/dmmnotes/seductively-obsessed-with-rescue-6fb5a68f6d334bc29ccccc16d8a4e56e?pvs=4">
            <path id="C6" d="M444.066162109378638,466.259521484376819l35.972900390630457,41.515869140621362c19.762939453119543-17.141845703128638,37.047119140619543-37.041748046878638,51.26708984375-59.125l-46.223632812510914-29.704833984371362c-11.373291015619543,17.673583984371362-25.201171874989086,33.598876953121362-41.016357421869543,47.31396484375Z" style="fill: none; stroke: #181818; stroke-linecap: round; stroke-linejoin: round; stroke-width: 15px;"/>
          </a>
          <a xlink:href="https://www.notion.so/dmmnotes/punitively-obsessed-with-revenge-33d2e77f37774316b42bccf4a60f9688?pvs=4">
            <path id="C5" d="M485.082519531248181,418.945556640626819l46.223632812510914,29.704833984371362c14.048095703128638-21.809326171882276,25.08837890625-45.71875,32.551513671869543-71.175048828132276l-52.7548828125-15.490234375c-5.9619140625,20.377929687510914-14.789306640619543,39.509765625-26.020263671880457,56.960449218760914Z" style="fill: none; stroke: #181818; stroke-linecap: round; stroke-linejoin: round; stroke-width: 15px;"/>
          </a>
          <a xlink:href="https://www.notion.so/dmmnotes/feigned-helpless-e79a94b0498c4e109a681b7f3dcdb088?pvs=4">
            <path id="C4" d="M519.999999999998181,299.999999999998181c0,21.5380859375-3.142089843739086,42.321533203117724-8.897216796869543,61.985107421867724l52.7548828125,15.490234375c7.2080078125-24.583496093739086,11.142333984369543-50.5634765625,11.142333984369543-77.475341796867724h-55Z" style="fill: none; stroke: #181818; stroke-linecap: round; stroke-linejoin: round; stroke-width: 15px;"/>
          </a>
          <a xlink:href="https://www.notion.so/dmmnotes/disarming-086276e599884c86b9359acf831a8b20?pvs=4">
            <path id="C2" d="M511.102783203128638,238.014892578108629l52.7548828125-15.490234375c-7.463134765619543-25.456298828121362-18.503417968740905-49.365722656242724-32.551513671869543-71.177734374992724l-46.223632812510914,29.70751953125c11.230957031260914,17.45068359375,20.055664062510914,36.585205078121362,26.020263671880457,56.960449218742724Z" style="fill: none; stroke: #181818; stroke-linecap: round; stroke-linejoin: round; stroke-width: 15px;"/>
          </a>
          <a xlink:href="https://www.notion.so/dmmnotes/threatening-348fe6a52f7a4fe69f768e98c6586932?pvs=4">
            <path id="C1" d="M485.082519531248181,181.054443359365905l46.223632812510914-29.70751953125c-3.273382764720736-5.082861773658806-6.709138808490025-10.050169557307527-10.300126729000112-14.894880224830558-18.7746979552212-25.329514182889397-56.293794455550596-26.537787805427797-76.939827532480194-2.708921059358545l-.00003597290015.000041518560465c15.815185546880457,13.71240234375,29.64306640625,29.637695312510914,41.016357421869543,47.311279296878638Z" style="fill: none; stroke: #181818; stroke-linecap: round; stroke-linejoin: round; stroke-width: 15px;"/>
          </a>
          <a xlink:href="https://www.notion.so/dmmnotes/complaining-acceptance-8b40401a720c493ba73f7cde1567cf3d?pvs=4">
            <path id="B5" d="M444.066162109378638,133.743164062487267l.00003597290015-.000041518560465c20.654922513649581-23.839126791601302,14.125719583838872-60.826671837301546-13.629725214659629-75.812167347630748-5.297847529700448-2.860371035199933-10.700612091030052-5.552089440428972-16.201365445751435-8.068162227547873l-22.832519531239086,49.99951171875c19.204345703119543,8.773681640617724,36.910156249989086,20.22216796875,52.66357421875,33.880859374989086Z" style="fill: none; stroke: #181818; stroke-linecap: round; stroke-linejoin: round; stroke-width: 15px;"/>
          </a>
          <a xlink:href="https://www.notion.so/dmmnotes/sentimental-bc554363322342b1b7ca4ccc02125049?pvs=4">
            <path id="B4" d="M391.402587890628638,99.862304687498181l22.832519531239086-49.99951171875c-23.455566406229991-10.7314453125-48.662109375-18.275146484389552-75.101318359369543-22.042968749992724l-7.825683593739086,54.433349609360448c21.159423828119543,3.0078125,41.327880859369543,9.034179687492724,60.094482421869543,17.609130859382276Z" style="fill: none; stroke: #181818; stroke-linecap: round; stroke-linejoin: round; stroke-width: 15px;"/>
          </a>
          <a xlink:href="https://www.notion.so/dmmnotes/comfortably-balanced-e76dc615a8b947aa915377cd02fcf716?pvs=4">
            <path id="B3" d="M299.999999999998181,79.999999999998181c10.634765625,0,21.078857421869543.797607421867724,31.308105468760914,2.253173828117724l7.825683593739086-54.433349609360448c-12.788574218739086-1.823486328139552-25.843017578130457-2.819824218757276-39.1337890625-2.819824218757276s-26.34521484375.996337890617724-39.133789062489086,2.819824218757276l7.825683593739086,54.433349609360448c10.23193359375-1.45556640625,20.67333984375-2.253173828117724,31.30810546875-2.253173828117724Z" style="fill: none; stroke: #181818; stroke-linecap: round; stroke-linejoin: round; stroke-width: 15px;"/>
          </a>
          <a xlink:href="https://www.notion.so/dmmnotes/accepting-317d81273fff4cd9817cdf4a88efd378?pvs=4">
            <path id="B2" d="M268.691894531248181,82.253173828115905l-7.825683593739086-54.433349609360448c-26.439208984391371,3.767822265603172-51.643066406260914,11.311523437492724-75.098632812510914,22.042968749992724l22.83251953125,49.99951171875c18.7666015625-8.574951171889552,38.93505859375-14.601318359382276,60.091796875-17.609130859382276Z" style="fill: none; stroke: #181818; stroke-linecap: round; stroke-linejoin: round; stroke-width: 15px;"/>
          </a>
          <a xlink:href="https://www.notion.so/dmmnotes/distanced-from-past-2eabab7e9c77429f8e577f4e3e203653?pvs=4">
            <path id="B1" d="M208.600097656248181,99.862304687498181l-22.83251953125-49.99951171875c-5.501476919680499,2.516122083477967-10.904678806709853,5.207896667827299-16.20277414614975,8.068330353889905-27.754772116430104,14.984759620980185-34.283385893750165,51.971559756599163-13.6283165142504,75.809313677109458l.00003597290015.000041515868361c15.75341796875-13.658691406257276,33.4619140625-25.1044921875,52.66357421875-33.878173828117724Z" style="fill: none; stroke: #181818; stroke-linecap: round; stroke-linejoin: round; stroke-width: 15px;"/>
          </a>
          <a xlink:href="https://www.notion.so/dmmnotes/idealising-a52277f51ed14a42aae78081bb34b8be?pvs=4">
            <path id="A1" d="M155.936523437498181,133.740478515615905l-.00003597290015-.000041515868361c-20.647012023619027-23.828455119091814-58.166100839880528-22.619561246781814-76.941289455078731,2.709999997550767-3.591451962291103,4.845219097369409-7.02760574713102,9.813063194989809-10.301350353271118,14.896486830817594l46.226318359369543,29.70751953125c11.373291015641371-17.673583984367724,25.201171875010914-33.598876953128638,41.016357421880457-47.31396484375Z" style="fill: none; stroke: #181818; stroke-linecap: round; stroke-linejoin: round; stroke-width: 15px;"/>
          </a>
          <a xlink:href="https://www.notion.so/dmmnotes/distancing-9ac690cdca654729a17a5a255944e2d1?pvs=4">
            <path id="A2" d="M114.920166015617724,181.054443359365905l-46.226318359369543-29.70751953125c-14.04541015625,21.81201171875-25.08837890625,45.721435546871362-32.551513671880457,71.177734374992724l52.754882812510914,15.490234375c5.964599609369543-20.375244140621362,14.7919921875-39.509765624992724,26.022949218739086-56.960449218742724Z" style="fill: none; stroke: #181818; stroke-linecap: round; stroke-linejoin: round; stroke-width: 15px;"/>
          </a>
          <a xlink:href="https://www.notion.so/dmmnotes/compulsive-caregiving-9c380c0928294f41ae10764aa0dee886?pvs=4">
            <path id="A3" d="M88.897216796878638,238.014892578108629l-52.754882812510914-15.490234375c-7.205322265619543,24.580810546878638-11.142333984369543,50.5634765625-11.142333984369543,77.475341796889552h55c0-21.535400390632276,3.14208984375-42.321533203132276,8.897216796880457-61.985107421889552Z" style="fill: none; stroke: #181818; stroke-linecap: round; stroke-linejoin: round; stroke-width: 15px;"/>
          </a>
          <a xlink:href="https://www.notion.so/dmmnotes/compulsive-compliance-6d08b7ea9a424ce1a72b9184b7850414?pvs=4">
            <path id="A4" d="M79.999999999998181,299.999999999998181H24.999999999998181c0,26.911865234367724,3.93701171875,52.894531249989086,11.142333984369543,77.475341796867724l52.754882812510914-15.490234375c-5.755126953130457-19.66357421875-8.897216796880457-40.447021484367724-8.897216796880457-61.985107421867724Z" style="fill: none; stroke: #181818; stroke-linecap: round; stroke-linejoin: round; stroke-width: 15px;"/>
          </a>
          <a xlink:href="https://www.notion.so/dmmnotes/sexual-supplementation-8e85f49046ef412aa229745abf7d38d3?pvs=4">
            <path id="A5" d="M88.897216796878638,361.985107421865905l-52.754882812510914,15.490234375c7.463134765630457,25.456298828132276,18.506103515630457,49.36572265625,32.551513671880457,71.175048828132276l46.223632812510914-29.704833984371362c-11.230957031260914-17.450683593760914-20.055664062510914-36.58251953125-26.020263671880457-56.960449218760914Z" style="fill: none; stroke: #181818; stroke-linecap: round; stroke-linejoin: round; stroke-width: 15px;"/>
          </a>
          <a xlink:href="https://www.notion.so/dmmnotes/compulsive-isolated-self-reliance-b321873a73fa41aaaadd7192fde856a2?pvs=4">
            <path id="A6" d="M114.917480468759095,418.945556640626819l-46.223632812510914,29.704833984371362c14.219970703119543,22.083251953121362,31.504150390630457,41.983154296871362,51.269775390630457,59.125l35.972900390619543-41.515869140621362c-15.815185546869543-13.712402343757276-29.643066406239086-29.637695312507276-41.019042968739086-47.31396484375Z" style="fill: none; stroke: #181818; stroke-linecap: round; stroke-linejoin: round; stroke-width: 15px;"/>
          </a>
          <a xlink:href="https://www.notion.so/dmmnotes/delusional-idealization-743e2420b9994a48a7cab68190432e8a?pvs=4">
            <path id="A7" d="M155.936523437498181,466.259521484376819l-35.972900390619543,41.515869140621362c19.687744140619543,17.074707031239086,41.811279296869543,31.385986328128638,65.803955078119543,42.36181640625l22.83251953125-49.996826171878638c-19.20166015625-8.773681640621362-36.91015625-20.222167968742724-52.66357421875-33.880859374992724Z" style="fill: none; stroke: #181818; stroke-linecap: round; stroke-linejoin: round; stroke-width: 15px;"/>
          </a>
          <a xlink:href="https://www.notion.so/dmmnotes/externally-assembled-self-994ecb0895b844409b931d74a045c162?pvs=4">
            <path id="A8" d="M208.600097656248181,500.140380859369543l-22.83251953125,49.996826171878638c23.45556640625,10.7314453125,48.659423828119543,18.275146484371362,75.098632812510914,22.04296875l7.825683593739086-54.4306640625c-21.15673828125-3.0078125-41.3251953125-9.0341796875-60.091796875-17.609130859378638Z" style="fill: none; stroke: #181818; stroke-linecap: round; stroke-linejoin: round; stroke-width: 15px;"/>
          </a>
          <a xlink:href="https://www.notion.so/dmmnotes/psychopathy-0fe4a3222d9f4fd097ab4546c9776768?pvs=4">
            <path id="AC" d="M299.999999999998181,519.999999999998181c-10.634765625,0-21.076171875-.794921875-31.30810546875-2.25048828125l-7.825683593739086,54.4306640625c12.788574218739086,1.823486328128638,25.843017578119543,2.81982421875,39.133789062489086,2.81982421875s26.345214843760914-.996337890621362,39.1337890625-2.81982421875l-7.825683593739086-54.4306640625c-10.229248046891371,1.45556640625-20.673339843760914,2.25048828125-31.308105468760914,2.25048828125Z" style="fill: none; stroke: #181818; stroke-linecap: round; stroke-linejoin: round; stroke-width: 15px;"/>
          </a>
          <a xlink:href="https://www.notion.so/dmmnotes/aggressive-2d8ccce383534b9dbfc7b4b10b8a5d5c?pvs=4">
            <g id="C3-4" data-name="C3">
              <path d="M520,300.999999999987267c-.55224609375,0-1-.447265625-1-1,0-20.86328125-2.97998046875-41.6240234375-8.85693359375-61.7041015625-.15478515625-.5302734375.1484375-1.0849609375.67822265625-1.2412109375l52.7548828125-15.490234375c.09228515625-.0263671875.18701171875-.0400390625.28173828125-.0400390625.166015625,0,.3310546875.041015625.4794921875.1220703125.23291015625.1279296875.4052734375.341796875.47998046875.5966796875,7.42041015625,25.3046875,11.1826171875,51.4658203125,11.1826171875,77.7568359375,0,.552734375-.44775390625,1-1,1h-55Z" style="fill: none; stroke: #181818; stroke-linecap: round; stroke-linejoin: round; stroke-width: 15px;"/>
              <path d="M563.857666015625,222.524658203112267c7.2080078125,24.580810546875,11.142333984375,50.5634765625,11.142333984375,77.475341796875h-55c0-21.535400390625-3.14208984375-42.321533203125-8.897216796875-61.985107421875l52.7548828125-15.490234375M563.85760498046875,220.524658203112267c-.18902587890625,0-.3787841796875.02679443359375-.56341552734375.08099365234375l-52.7548828125,15.490234375c-1.05914306640625.31103515625-1.66607666015625,1.42138671875-1.35601806640625,2.48077392578125,5.850341796875,19.9888916015625,8.81671142578125,40.6546630859375,8.81671142578125,61.42333984375,0,1.10455322265625.89544677734375,2,2,2h55c1.10455322265625,0,2-.89544677734375,2-2,0-26.385986328125-3.7760009765625-52.641845703125-11.22314453125-78.03814697265625-.1492919921875-.50909423828125-.4947509765625-.93804931640625-.96038818359375-1.1923828125-.29669189453125-.162109375-.62677001953125-.24481201171875-.9588623046875-.24481201171875h0Z" style="fill: none; stroke: #181818; stroke-linecap: round; stroke-linejoin: round; stroke-width: 15px;"/>
            </g>
          </a>
        </g>
        <g>
          <a xlink:href="https://www.notion.so/dmmnotes/paranoid-ae38b1e6af0c4dd08f61e0d8f6e9f05f?pvs=4">
            <path id="C8-2" data-name="C8" d="M331.308105468759095,517.749511718748181l7.825683593739086,54.4306640625c26.439208984369543-3.767822265628638,51.645751953139552-11.3115234375,75.101318359369543-22.04296875l-22.832519531239086-49.996826171878638c-18.7666015625,8.572265625-38.93505859375,14.601318359378638-60.094482421869543,17.609130859378638Z" style="fill: #938480; stroke: #181818; stroke-width: 2px;"/>
          </a>
          <a xlink:href="https://www.notion.so/dmmnotes/menacing-a5bd7149286344deba45ec15e759e579?pvs=4">
            <path id="C7-2" data-name="C7" d="M391.402587890628638,500.140380859369543l22.832519531239086,49.996826171878638c23.989990234391371-10.975830078121362,46.116210937520009-25.287109375010914,65.803955078141371-42.36181640625l-35.972900390630457-41.515869140621362c-15.753417968760914,13.65869140625-33.459228515630457,25.104492187492724-52.66357421875,33.880859374992724Z" style="fill: #958682; stroke: #181818; stroke-width: 2px;"/>
          </a>
          <a xlink:href="https://www.notion.so/dmmnotes/seductively-obsessed-with-rescue-6fb5a68f6d334bc29ccccc16d8a4e56e?pvs=4">
            <path id="C6-2" data-name="C6" d="M444.066162109378638,466.259521484376819l35.972900390630457,41.515869140621362c19.762939453119543-17.141845703128638,37.047119140619543-37.041748046878638,51.26708984375-59.125l-46.223632812510914-29.704833984371362c-11.373291015619543,17.673583984371362-25.201171874989086,33.598876953121362-41.016357421869543,47.31396484375Z" style="fill: #988985; stroke: #181818; stroke-width: 2px;"/>
          </a>
          <a xlink:href="https://www.notion.so/dmmnotes/punitively-obsessed-with-revenge-33d2e77f37774316b42bccf4a60f9688?pvs=4">
            <path id="C5-2" data-name="C5" d="M485.082519531248181,418.945556640626819l46.223632812510914,29.704833984371362c14.048095703128638-21.809326171882276,25.08837890625-45.71875,32.551513671869543-71.175048828132276l-52.7548828125-15.490234375c-5.9619140625,20.377929687510914-14.789306640619543,39.509765625-26.020263671880457,56.960449218760914Z" style="fill: #9b8d89; stroke: #181818; stroke-width: 2px;"/>
          </a>
          <a xlink:href="https://www.notion.so/dmmnotes/feigned-helpless-e79a94b0498c4e109a681b7f3dcdb088?pvs=4">
            <path id="C4-2" data-name="C4" d="M519.999999999998181,299.999999999998181c0,21.5380859375-3.142089843739086,42.321533203117724-8.897216796869543,61.985107421867724l52.7548828125,15.490234375c7.2080078125-24.583496093739086,11.142333984369543-50.5634765625,11.142333984369543-77.475341796867724h-55Z" style="fill: #a1928f; stroke: #181818; stroke-width: 2px;"/>
          </a>
          <a xlink:href="https://www.notion.so/dmmnotes/disarming-086276e599884c86b9359acf831a8b20?pvs=4">
            <path id="C2-2" data-name="C2" d="M511.102783203128638,238.014892578108629l52.7548828125-15.490234375c-7.463134765619543-25.456298828121362-18.503417968740905-49.365722656242724-32.551513671869543-71.177734374992724l-46.223632812510914,29.70751953125c11.230957031260914,17.45068359375,20.055664062510914,36.585205078121362,26.020263671880457,56.960449218742724Z" style="fill: #9b8c88; stroke: #181818; stroke-width: 2px;"/>
          </a>
          <a xlink:href="https://www.notion.so/dmmnotes/threatening-348fe6a52f7a4fe69f768e98c6586932?pvs=4">
            <path id="C1-2" data-name="C1" d="M485.082519531248181,181.054443359365905l46.223632812510914-29.70751953125c-3.273382764720736-5.082861773658806-6.709138808490025-10.050169557307527-10.300126729000112-14.894880224830558-18.7746979552212-25.329514182889397-56.293794455550596-26.537787805427797-76.939827532480194-2.708921059358545l-.00003597290015.000041518560465c15.815185546880457,13.71240234375,29.64306640625,29.637695312510914,41.016357421869543,47.311279296878638Z" style="fill: #988985; stroke: #181818; stroke-width: 2px;"/>
          </a>
          <a xlink:href="https://www.notion.so/dmmnotes/complaining-acceptance-8b40401a720c493ba73f7cde1567cf3d?pvs=4">
            <path id="B5-2" data-name="B5" d="M444.066162109378638,133.743164062487267l.00003597290015-.000041518560465c20.654922513649581-23.839126791601302,14.125719583838872-60.826671837301546-13.629725214659629-75.812167347630748-5.297847529700448-2.860371035199933-10.700612091030052-5.552089440428972-16.201365445751435-8.068162227547873l-22.832519531239086,49.99951171875c19.204345703119543,8.773681640617724,36.910156249989086,20.22216796875,52.66357421875,33.880859374989086Z" style="fill: #958682; stroke: #181818; stroke-width: 2px;"/>
          </a>
          <a xlink:href="https://www.notion.so/dmmnotes/sentimental-bc554363322342b1b7ca4ccc02125049?pvs=4">
            <path id="B4-2" data-name="B4" d="M391.402587890628638,99.862304687498181l22.832519531239086-49.99951171875c-23.455566406229991-10.7314453125-48.662109375-18.275146484389552-75.101318359369543-22.042968749992724l-7.825683593739086,54.433349609360448c21.159423828119543,3.0078125,41.327880859369543,9.034179687492724,60.094482421869543,17.609130859382276Z" style="fill: #92837f; stroke: #181818; stroke-width: 2px;"/>
          </a>
          <a xlink:href="https://www.notion.so/dmmnotes/comfortably-balanced-e76dc615a8b947aa915377cd02fcf716?pvs=4">
            <path id="B3-2" data-name="B3" d="M299.999999999998181,79.999999999998181c10.634765625,0,21.078857421869543.797607421867724,31.308105468760914,2.253173828117724l7.825683593739086-54.433349609360448c-12.788574218739086-1.823486328139552-25.843017578130457-2.819824218757276-39.1337890625-2.819824218757276s-26.34521484375.996337890617724-39.133789062489086,2.819824218757276l7.825683593739086,54.433349609360448c10.23193359375-1.45556640625,20.67333984375-2.253173828117724,31.30810546875-2.253173828117724Z" style="fill: #8f807d; stroke: #181818; stroke-width: 2px;"/>
          </a>
          <a xlink:href="https://www.notion.so/dmmnotes/accepting-317d81273fff4cd9817cdf4a88efd378?pvs=4">
            <path id="B2-2" data-name="B2" d="M268.691894531248181,82.253173828115905l-7.825683593739086-54.433349609360448c-26.439208984391371,3.767822265603172-51.643066406260914,11.311523437492724-75.098632812510914,22.042968749992724l22.83251953125,49.99951171875c18.7666015625-8.574951171889552,38.93505859375-14.601318359382276,60.091796875-17.609130859382276Z" style="fill: #8c7d7a; stroke: #181818; stroke-width: 2px;"/>
          </a>
          <a xlink:href="https://www.notion.so/dmmnotes/distanced-from-past-2eabab7e9c77429f8e577f4e3e203653?pvs=4">
            <path id="B1-2" data-name="B1" d="M208.600097656248181,99.862304687498181l-22.83251953125-49.99951171875c-5.501476919680499,2.516122083477967-10.904678806709853,5.207896667827299-16.20277414614975,8.068330353889905-27.754772116430104,14.984759620980185-34.283385893750165,51.971559756599163-13.6283165142504,75.809313677109458l.00003597290015.000041515868361c15.75341796875-13.658691406257276,33.4619140625-25.1044921875,52.66357421875-33.878173828117724Z" style="fill: #8a7b78; stroke: #181818; stroke-width: 2px;"/>
          </a>
          <a xlink:href="https://www.notion.so/dmmnotes/idealising-a52277f51ed14a42aae78081bb34b8be?pvs=4">
            <path id="A1-2" data-name="A1" d="M155.936523437498181,133.740478515615905l-.00003597290015-.000041515868361c-20.647012023619027-23.828455119091814-58.166100839880528-22.619561246781814-76.941289455078731,2.709999997550767-3.591451962291103,4.845219097369409-7.02760574713102,9.813063194989809-10.301350353271118,14.896486830817594l46.226318359369543,29.70751953125c11.373291015641371-17.673583984367724,25.201171875010914-33.598876953128638,41.016357421880457-47.31396484375Z" style="fill: #877875; stroke: #181818; stroke-width: 2px;"/>
          </a>
          <a xlink:href="https://www.notion.so/dmmnotes/distancing-9ac690cdca654729a17a5a255944e2d1?pvs=4">
            <path id="A2-2" data-name="A2" d="M114.920166015617724,181.054443359365905l-46.226318359369543-29.70751953125c-14.04541015625,21.81201171875-25.08837890625,45.721435546871362-32.551513671880457,71.177734374992724l52.754882812510914,15.490234375c5.964599609369543-20.375244140621362,14.7919921875-39.509765624992724,26.022949218739086-56.960449218742724Z" style="fill: #847572; stroke: #181818; stroke-width: 2px;"/>
          </a>
          <a xlink:href="https://www.notion.so/dmmnotes/compulsive-caregiving-9c380c0928294f41ae10764aa0dee886?pvs=4">
            <path id="A3-2" data-name="A3" d="M88.897216796878638,238.014892578108629l-52.754882812510914-15.490234375c-7.205322265619543,24.580810546878638-11.142333984369543,50.5634765625-11.142333984369543,77.475341796889552h55c0-21.535400390632276,3.14208984375-42.321533203132276,8.897216796880457-61.985107421889552Z" style="fill: #827370; stroke: #181818; stroke-width: 2px;"/>
          </a>
          <a xlink:href="https://www.notion.so/dmmnotes/compulsive-compliance-6d08b7ea9a424ce1a72b9184b7850414?pvs=4">
            <path id="A4-2" data-name="A4" d="M79.999999999998181,299.999999999998181H24.999999999998181c0,26.911865234367724,3.93701171875,52.894531249989086,11.142333984369543,77.475341796867724l52.754882812510914-15.490234375c-5.755126953130457-19.66357421875-8.897216796880457-40.447021484367724-8.897216796880457-61.985107421867724Z" style="fill: #80716e; stroke: #181818; stroke-width: 2px;"/>
          </a>
          <a xlink:href="https://www.notion.so/dmmnotes/sexual-supplementation-8e85f49046ef412aa229745abf7d38d3?pvs=4">
            <path id="A5-2" data-name="A5" d="M88.897216796878638,361.985107421865905l-52.754882812510914,15.490234375c7.463134765630457,25.456298828132276,18.506103515630457,49.36572265625,32.551513671880457,71.175048828132276l46.223632812510914-29.704833984371362c-11.230957031260914-17.450683593760914-20.055664062510914-36.58251953125-26.020263671880457-56.960449218760914Z" style="fill: #837471; stroke: #181818; stroke-width: 2px;"/>
          </a>
          <a xlink:href="https://www.notion.so/dmmnotes/compulsive-isolated-self-reliance-b321873a73fa41aaaadd7192fde856a2?pvs=4">
            <path id="A6-2" data-name="A6" d="M114.917480468759095,418.945556640626819l-46.223632812510914,29.704833984371362c14.219970703119543,22.083251953121362,31.504150390630457,41.983154296871362,51.269775390630457,59.125l35.972900390619543-41.515869140621362c-15.815185546869543-13.712402343757276-29.643066406239086-29.637695312507276-41.019042968739086-47.31396484375Z" style="fill: #867774; stroke: #181818; stroke-width: 2px;"/>
          </a>
          <a xlink:href="https://www.notion.so/dmmnotes/delusional-idealization-743e2420b9994a48a7cab68190432e8a?pvs=4">
            <path id="A7-2" data-name="A7" d="M155.936523437498181,466.259521484376819l-35.972900390619543,41.515869140621362c19.687744140619543,17.074707031239086,41.811279296869543,31.385986328128638,65.803955078119543,42.36181640625l22.83251953125-49.996826171878638c-19.20166015625-8.773681640621362-36.91015625-20.222167968742724-52.66357421875-33.880859374992724Z" style="fill: #8a7b77; stroke: #181818; stroke-width: 2px;"/>
          </a>
          <a xlink:href="https://www.notion.so/dmmnotes/externally-assembled-self-994ecb0895b844409b931d74a045c162?pvs=4">
            <path id="A8-2" data-name="A8" d="M208.600097656248181,500.140380859369543l-22.83251953125,49.996826171878638c23.45556640625,10.7314453125,48.659423828119543,18.275146484371362,75.098632812510914,22.04296875l7.825683593739086-54.4306640625c-21.15673828125-3.0078125-41.3251953125-9.0341796875-60.091796875-17.609130859378638Z" style="fill: #8a7b77; stroke: #181818; stroke-width: 2px;"/>
          </a>
          <a xlink:href="https://www.notion.so/dmmnotes/psychopathy-0fe4a3222d9f4fd097ab4546c9776768?pvs=4">
            <path id="AC-2" data-name="AC" d="M299.999999999998181,519.999999999998181c-10.634765625,0-21.076171875-.794921875-31.30810546875-2.25048828125l-7.825683593739086,54.4306640625c12.788574218739086,1.823486328128638,25.843017578119543,2.81982421875,39.133789062489086,2.81982421875s26.345214843760914-.996337890621362,39.1337890625-2.81982421875l-7.825683593739086-54.4306640625c-10.229248046891371,1.45556640625-20.673339843760914,2.25048828125-31.308105468760914,2.25048828125Z" style="fill: #90817d; stroke: #181818; stroke-width: 2px;"/>
          </a>
          <a xlink:href="https://www.notion.so/dmmnotes/aggressive-2d8ccce383534b9dbfc7b4b10b8a5d5c?pvs=4">
            <g id="C3-5" data-name="C3">
              <path d="M520,300.999999999987267c-.55224609375,0-1-.447265625-1-1,0-20.86328125-2.97998046875-41.6240234375-8.85693359375-61.7041015625-.15478515625-.5302734375.1484375-1.0849609375.67822265625-1.2412109375l52.7548828125-15.490234375c.09228515625-.0263671875.18701171875-.0400390625.28173828125-.0400390625.166015625,0,.3310546875.041015625.4794921875.1220703125.23291015625.1279296875.4052734375.341796875.47998046875.5966796875,7.42041015625,25.3046875,11.1826171875,51.4658203125,11.1826171875,77.7568359375,0,.552734375-.44775390625,1-1,1h-55Z" style="fill: #7e9e4c; stroke-width: 0px;"/>
              <path d="M563.857666015625,222.524658203112267c7.2080078125,24.580810546875,11.142333984375,50.5634765625,11.142333984375,77.475341796875h-55c0-21.535400390625-3.14208984375-42.321533203125-8.897216796875-61.985107421875l52.7548828125-15.490234375M563.85760498046875,220.524658203112267c-.18902587890625,0-.3787841796875.02679443359375-.56341552734375.08099365234375l-52.7548828125,15.490234375c-1.05914306640625.31103515625-1.66607666015625,1.42138671875-1.35601806640625,2.48077392578125,5.850341796875,19.9888916015625,8.81671142578125,40.6546630859375,8.81671142578125,61.42333984375,0,1.10455322265625.89544677734375,2,2,2h55c1.10455322265625,0,2-.89544677734375,2-2,0-26.385986328125-3.7760009765625-52.641845703125-11.22314453125-78.03814697265625-.1492919921875-.50909423828125-.4947509765625-.93804931640625-.96038818359375-1.1923828125-.29669189453125-.162109375-.62677001953125-.24481201171875-.9588623046875-.24481201171875h0Z" style="fill: #181818; stroke-width: 0px;"/>
            </g>
          </a>
        </g>
      </g>
      <g>
        <path d="M549.83642578125,264.778320312487267c.5869140625.7099609375,1.048828125,1.5654296875,1.3828125,2.568359375s.4501953125,1.990234375.349609375,2.962890625c-.0810546875.75-.3037109375,1.494140625-.6689453125,2.2333984375-.3642578125.740234375-.8310546875,1.3984375-1.3974609375,1.9755859375-.5673828125.578125-1.220703125,1.0439453125-1.9609375,1.3984375-.7392578125.3544921875-1.5341796875.53125-2.384765625.53125-.52734375,0-1.064453125-.0556640625-1.611328125-.1669921875s-1.0791015625-.2685546875-1.595703125-.470703125-.998046875-.4658203125-1.443359375-.7900390625-.810546875-.69921875-1.09375-1.125c-.3037109375-.4248046875-.3955078125-.890625-.2734375-1.3974609375.12109375-.5673828125.359375-1.05859375.7138671875-1.474609375.3544921875-.4150390625.68359375-.75390625.9873046875-1.017578125.162109375-.1220703125.365234375-.2021484375.6083984375-.2431640625.2431640625-.0400390625.4755859375.060546875.69921875.3037109375.3642578125.42578125.759765625.7646484375,1.1845703125,1.0185546875.42578125.2529296875.845703125.39453125,1.26171875.4248046875.4150390625.0302734375.8095703125-.060546875,1.1845703125-.2734375s.6943359375-.5615234375.9580078125-1.0478515625c.1416015625-.2841796875.22265625-.587890625.2431640625-.912109375.01953125-.32421875-.041015625-.623046875-.1826171875-.896484375s-.375-.505859375-.69921875-.69921875c-.32421875-.1923828125-.75-.30859375-1.2763671875-.349609375-.041015625.0205078125-.0712890625.0263671875-.0908203125.015625-.0205078125-.009765625-.041015625-.015625-.060546875-.015625h-.0615234375c-.0205078125.0205078125-.0400390625.0302734375-.060546875.0302734375h-.12109375c-.0615234375-.01953125-.126953125-.03515625-.1982421875-.044921875s-.1259765625-.03515625-.1669921875-.076171875c-.22265625-.060546875-.375-.2431640625-.4560546875-.546875s-.1259765625-.638671875-.13671875-1.0029296875c-.009765625-.365234375.0048828125-.724609375.0458984375-1.0791015625.0400390625-.3544921875.0908203125-.6123046875.15234375-.7744140625.080078125-.2236328125.181640625-.4111328125.3037109375-.5625.12109375-.15234375.2626953125-.228515625.42578125-.228515625.505859375,0,.951171875-.1611328125,1.3369140625-.4853515625.384765625-.32421875.658203125-.689453125.8203125-1.0947265625s.1875-.78515625.076171875-1.1396484375-.4208984375-.5517578125-.9267578125-.5927734375c-.3447265625-.0400390625-.71484375.06640625-1.109375.3193359375-.3955078125.25390625-.724609375.6435546875-.98828125,1.169921875-.1015625.203125-.181640625.400390625-.2431640625.5927734375-.060546875.1923828125-.2119140625.33984375-.455078125.4404296875-.203125.0810546875-.3955078125.1220703125-.578125.1220703125-.587890625,0-1.1494140625-.171875-1.6865234375-.5166015625s-.896484375-.8310546875-1.0791015625-1.458984375c-.0810546875-.384765625-.0703125-.759765625.03125-1.1240234375.1005859375-.365234375.2529296875-.7197265625.455078125-1.064453125.3447265625-.56640625.7802734375-1.0634765625,1.3076171875-1.4892578125.5263671875-.4248046875,1.1083984375-.763671875,1.7470703125-1.017578125.6376953125-.2529296875,1.31640625-.41015625,2.0361328125-.470703125.71875-.0615234375,1.443359375,0,2.1728515625.181640625.912109375.2236328125,1.6611328125.6435546875,2.2490234375,1.26171875.5869140625.6181640625.998046875,1.3525390625,1.23046875,2.203125.2333984375.8505859375.2734375,1.783203125.1220703125,2.7958984375-.15234375,1.013671875-.51171875,2.046875-1.0791015625,3.099609375Z" style="fill: none; stroke: #181818; stroke-width: 5.631003379821777px;"/>
        <path d="M549.83642578125,264.778320312487267c.5869140625.7099609375,1.048828125,1.5654296875,1.3828125,2.568359375s.4501953125,1.990234375.349609375,2.962890625c-.0810546875.75-.3037109375,1.494140625-.6689453125,2.2333984375-.3642578125.740234375-.8310546875,1.3984375-1.3974609375,1.9755859375-.5673828125.578125-1.220703125,1.0439453125-1.9609375,1.3984375-.7392578125.3544921875-1.5341796875.53125-2.384765625.53125-.52734375,0-1.064453125-.0556640625-1.611328125-.1669921875s-1.0791015625-.2685546875-1.595703125-.470703125-.998046875-.4658203125-1.443359375-.7900390625-.810546875-.69921875-1.09375-1.125c-.3037109375-.4248046875-.3955078125-.890625-.2734375-1.3974609375.12109375-.5673828125.359375-1.05859375.7138671875-1.474609375.3544921875-.4150390625.68359375-.75390625.9873046875-1.017578125.162109375-.1220703125.365234375-.2021484375.6083984375-.2431640625.2431640625-.0400390625.4755859375.060546875.69921875.3037109375.3642578125.42578125.759765625.7646484375,1.1845703125,1.0185546875.42578125.2529296875.845703125.39453125,1.26171875.4248046875.4150390625.0302734375.8095703125-.060546875,1.1845703125-.2734375s.6943359375-.5615234375.9580078125-1.0478515625c.1416015625-.2841796875.22265625-.587890625.2431640625-.912109375.01953125-.32421875-.041015625-.623046875-.1826171875-.896484375s-.375-.505859375-.69921875-.69921875c-.32421875-.1923828125-.75-.30859375-1.2763671875-.349609375-.041015625.0205078125-.0712890625.0263671875-.0908203125.015625-.0205078125-.009765625-.041015625-.015625-.060546875-.015625h-.0615234375c-.0205078125.0205078125-.0400390625.0302734375-.060546875.0302734375h-.12109375c-.0615234375-.01953125-.126953125-.03515625-.1982421875-.044921875s-.1259765625-.03515625-.1669921875-.076171875c-.22265625-.060546875-.375-.2431640625-.4560546875-.546875s-.1259765625-.638671875-.13671875-1.0029296875c-.009765625-.365234375.0048828125-.724609375.0458984375-1.0791015625.0400390625-.3544921875.0908203125-.6123046875.15234375-.7744140625.080078125-.2236328125.181640625-.4111328125.3037109375-.5625.12109375-.15234375.2626953125-.228515625.42578125-.228515625.505859375,0,.951171875-.1611328125,1.3369140625-.4853515625.384765625-.32421875.658203125-.689453125.8203125-1.0947265625s.1875-.78515625.076171875-1.1396484375-.4208984375-.5517578125-.9267578125-.5927734375c-.3447265625-.0400390625-.71484375.06640625-1.109375.3193359375-.3955078125.25390625-.724609375.6435546875-.98828125,1.169921875-.1015625.203125-.181640625.400390625-.2431640625.5927734375-.060546875.1923828125-.2119140625.33984375-.455078125.4404296875-.203125.0810546875-.3955078125.1220703125-.578125.1220703125-.587890625,0-1.1494140625-.171875-1.6865234375-.5166015625s-.896484375-.8310546875-1.0791015625-1.458984375c-.0810546875-.384765625-.0703125-.759765625.03125-1.1240234375.1005859375-.365234375.2529296875-.7197265625.455078125-1.064453125.3447265625-.56640625.7802734375-1.0634765625,1.3076171875-1.4892578125.5263671875-.4248046875,1.1083984375-.763671875,1.7470703125-1.017578125.6376953125-.2529296875,1.31640625-.41015625,2.0361328125-.470703125.71875-.0615234375,1.443359375,0,2.1728515625.181640625.912109375.2236328125,1.6611328125.6435546875,2.2490234375,1.26171875.5869140625.6181640625.998046875,1.3525390625,1.23046875,2.203125.2333984375.8505859375.2734375,1.783203125.1220703125,2.7958984375-.15234375,1.013671875-.51171875,2.046875-1.0791015625,3.099609375Z" style="fill: #231f20; stroke-width: 0px;"/>
        <path d="M549.83642578125,264.778320312487267c.5869140625.7099609375,1.048828125,1.5654296875,1.3828125,2.568359375s.4501953125,1.990234375.349609375,2.962890625c-.0810546875.75-.3037109375,1.494140625-.6689453125,2.2333984375-.3642578125.740234375-.8310546875,1.3984375-1.3974609375,1.9755859375-.5673828125.578125-1.220703125,1.0439453125-1.9609375,1.3984375-.7392578125.3544921875-1.5341796875.53125-2.384765625.53125-.52734375,0-1.064453125-.0556640625-1.611328125-.1669921875s-1.0791015625-.2685546875-1.595703125-.470703125-.998046875-.4658203125-1.443359375-.7900390625-.810546875-.69921875-1.09375-1.125c-.3037109375-.4248046875-.3955078125-.890625-.2734375-1.3974609375.12109375-.5673828125.359375-1.05859375.7138671875-1.474609375.3544921875-.4150390625.68359375-.75390625.9873046875-1.017578125.162109375-.1220703125.365234375-.2021484375.6083984375-.2431640625.2431640625-.0400390625.4755859375.060546875.69921875.3037109375.3642578125.42578125.759765625.7646484375,1.1845703125,1.0185546875.42578125.2529296875.845703125.39453125,1.26171875.4248046875.4150390625.0302734375.8095703125-.060546875,1.1845703125-.2734375s.6943359375-.5615234375.9580078125-1.0478515625c.1416015625-.2841796875.22265625-.587890625.2431640625-.912109375.01953125-.32421875-.041015625-.623046875-.1826171875-.896484375s-.375-.505859375-.69921875-.69921875c-.32421875-.1923828125-.75-.30859375-1.2763671875-.349609375-.041015625.0205078125-.0712890625.0263671875-.0908203125.015625-.0205078125-.009765625-.041015625-.015625-.060546875-.015625h-.0615234375c-.0205078125.0205078125-.0400390625.0302734375-.060546875.0302734375h-.12109375c-.0615234375-.01953125-.126953125-.03515625-.1982421875-.044921875s-.1259765625-.03515625-.1669921875-.076171875c-.22265625-.060546875-.375-.2431640625-.4560546875-.546875s-.1259765625-.638671875-.13671875-1.0029296875c-.009765625-.365234375.0048828125-.724609375.0458984375-1.0791015625.0400390625-.3544921875.0908203125-.6123046875.15234375-.7744140625.080078125-.2236328125.181640625-.4111328125.3037109375-.5625.12109375-.15234375.2626953125-.228515625.42578125-.228515625.505859375,0,.951171875-.1611328125,1.3369140625-.4853515625.384765625-.32421875.658203125-.689453125.8203125-1.0947265625s.1875-.78515625.076171875-1.1396484375-.4208984375-.5517578125-.9267578125-.5927734375c-.3447265625-.0400390625-.71484375.06640625-1.109375.3193359375-.3955078125.25390625-.724609375.6435546875-.98828125,1.169921875-.1015625.203125-.181640625.400390625-.2431640625.5927734375-.060546875.1923828125-.2119140625.33984375-.455078125.4404296875-.203125.0810546875-.3955078125.1220703125-.578125.1220703125-.587890625,0-1.1494140625-.171875-1.6865234375-.5166015625s-.896484375-.8310546875-1.0791015625-1.458984375c-.0810546875-.384765625-.0703125-.759765625.03125-1.1240234375.1005859375-.365234375.2529296875-.7197265625.455078125-1.064453125.3447265625-.56640625.7802734375-1.0634765625,1.3076171875-1.4892578125.5263671875-.4248046875,1.1083984375-.763671875,1.7470703125-1.017578125.6376953125-.2529296875,1.31640625-.41015625,2.0361328125-.470703125.71875-.0615234375,1.443359375,0,2.1728515625.181640625.912109375.2236328125,1.6611328125.6435546875,2.2490234375,1.26171875.5869140625.6181640625.998046875,1.3525390625,1.23046875,2.203125.2333984375.8505859375.2734375,1.783203125.1220703125,2.7958984375-.15234375,1.013671875-.51171875,2.046875-1.0791015625,3.099609375Z" style="fill: #e2dddb; stroke-width: 0px;"/>
      </g>
    </g>
  </g>
</svg>