<?xml version="1.0" encoding="UTF-8"?>
<svg id="Layer_1" data-name="Layer 1" xmlns="http://www.w3.org/2000/svg" width="600" height="599.999999999994543" xmlns:xlink="http://www.w3.org/1999/xlink" viewBox="0 0 600 599.999999999994543">
  <defs>
    <linearGradient id="B4" x1="274.723112131378002" y1="378.332518488946334" x2="320.033822594305093" y2="323.290648731973931" gradientUnits="userSpaceOnUse">
      <stop offset="0" stop-color="#008c8d"/>
      <stop offset=".5" stop-color="#008f82"/>
      <stop offset="1" stop-color="#1f9276"/>
    </linearGradient>
  </defs>
  <g id="pie_with_links_-5" data-name="pie (with links)">
    <g id="pie_with_links_-6" data-name="pie (with links)">
      <a xlink:href="https://www.notion.so/dmmnotes/B5-8b40401a720c493ba73f7cde1567cf3d?pvs=4#a11cc441cb204c82a43dfc3e3b7e8747">
        <g id="B5">
          <g id="B5-2" data-name="B5">
            <path d="M300.0546875,414.710937499994543c-23.908203125-.0009765625-46.1787109375-12.8505859375-58.12060546875-33.5341796875-8.95458984375-15.509765625-11.33349609375-33.578125-6.6982421875-50.8779296875,4.63525390625-17.298828125,15.72998046875-31.7578125,31.23974609375-40.71240234375,10.189453125-5.8828125,21.76318359375-8.99267578125,33.4697265625-8.99267578125,23.908203125,0,46.1787109375,12.849609375,58.12109375,33.5341796875,18.4853515625,32.017578125,7.4755859375,73.10546875-24.5419921875,91.5908203125-10.189453125,5.8828125-21.7626953125,8.9921875-33.46728515625,8.9921875h-.00244140625Z" style="fill: url(#B4); stroke-width: 0px;"/>
            <path d="M299.945526123050513,289.093933105463293c20.233734130859375,0,39.91534423828125,10.501800537109375,50.759307861329944,29.28411865234375,16.167755126951306,28.00347900390625,6.573120117191138,63.811309814453125-21.430297851558862,79.97906494140625-9.221130371101026,5.32379150390625-19.286071777351026,7.85382080078125-29.2197265625,7.85382080078125-20.233764648441138,0-39.915374755861194-10.5018310546875-50.759338378911707-29.284118652342841-16.167755126949487-28.00341796875-6.573120117189319-63.811279296875,21.430358886720569-79.979064941407159,9.221099853521082-5.32379150390625,19.286041259771082-7.85382080078125,29.219696044920056-7.85382080078125M299.945526123050513,272.093933105463293c-13.196411132808862,0-26.239654541010168,3.50335693359375-37.719696044920056,10.13140869140625-17.476242065429688,10.089874267578125-29.977233886720569,26.3814697265625-35.200119018549231,45.8736572265625-5.222946166999463,19.4921875-2.542587280280713,39.851593017578125,7.547348022459119,57.327819824219659,13.455703735349744,23.306030273436591,38.546875,37.784118652342841,65.481781005861194,37.784118652342841,13.196411132808862,0,26.239624023430224-3.503356933592841,37.719696044920056-10.13140869140625,36.076599121088293-20.82879638671875,48.481536865228918-67.124755859375,27.652770996088293-103.20147705078125-13.455780029298694-23.306060791015625-38.546936035159888-37.78411865234375-65.481781005859375-37.78411865234375h0Z" style="fill: #181818; stroke-width: 0px;"/>
          </g>
          <a xlink:href="https://www.notion.so/dmmnotes/B5-8b40401a720c493ba73f7cde1567cf3d?pvs=4#a11cc441cb204c82a43dfc3e3b7e8747">
            <g>
              <g>
                <path d="M284.300781250010914,266.791992187487267c4.603515625,3.5595703125,8.03125,7.982421875,10.283203125,13.2666015625,2.25,5.287109375,2.9560546875,10.7548828125,2.119140625,16.40625-.94140625,6.3857421875-3.453125,11.7509765625-7.53515625,16.0927734375-4.08203125,4.3447265625-8.8984375,7.771484375-14.4453125,10.283203125-5.548828125,2.5126953125-11.5390625,4.1875-17.9765625,5.0244140625-6.435546875.8369140625-12.48046875.9423828125-18.1328125.314453125-.525390625.2080078125-.99609375.337890625-1.4130859375.392578125-.4189453125.05078125-.8896484375.1298828125-1.4130859375.2353515625-1.8837890625.1025390625-3.822265625.1025390625-5.80859375,0-1.990234375-.10546875-3.794921875-.447265625-5.416015625-1.0205078125-1.625-.57421875-3.0107421875-1.5166015625-4.1611328125-2.826171875-1.1533203125-1.3076171875-1.8330078125-3.1650390625-2.041015625-5.5732421875-.2109375-1.1513671875-.2626953125-3.478515625-.1572265625-6.9873046875.103515625-3.5048828125.208984375-7.771484375.314453125-12.794921875.208984375-5.126953125.392578125-10.701171875.548828125-16.720703125.1572265625-6.017578125.287109375-12.0615234375.392578125-18.1337890625.103515625-7.953125.208984375-15.9599609375.314453125-24.0205078125.103515625-8.05859375-.2109375-16.1708984375-.94140625-24.3349609375-.2119140625-.9423828125-.10546875-1.7783203125.3134765625-2.51171875.2080078125-.62890625.6787109375-1.2294921875,1.4130859375-1.8056640625.73046875-.57421875,1.830078125-.966796875,3.296875-1.177734375,1.044921875-.103515625,2.197265625-.259765625,3.453125-.470703125,1.2568359375-.208984375,2.564453125-.3662109375,3.92578125-.4716796875,1.359375-.1025390625,2.6689453125-.1025390625,3.9248046875,0,1.2568359375.10546875,2.3544921875.314453125,3.2978515625.6279296875,5.337890625-.73046875,10.935546875-.7578125,16.798828125-.078125,5.859375.681640625,11.3818359375,2.068359375,16.5625,4.16015625,5.181640625,2.095703125,9.6806640625,4.89453125,13.501953125,8.3994140625,3.8203125,3.5087890625,6.359375,7.771484375,7.615234375,12.7958984375.5224609375,2.1982421875.8359375,4.501953125.94140625,6.908203125.103515625,2.4091796875-.15625,4.8935546875-.78515625,7.45703125-.626953125,2.56640625-1.6484375,5.2353515625-3.060546875,8.0068359375-1.4140625,2.775390625-3.32421875,5.6279296875-5.73046875,8.556640625ZM243.480468750010914,257.529296874987267c5.0234375.2109375,9.2626953125-.314453125,12.716796875-1.5703125s6.044921875-2.904296875,7.771484375-4.9453125,2.5634765625-4.263671875,2.51171875-6.6728515625c-.0537109375-2.40625-.96875-4.552734375-2.7470703125-6.4365234375-1.78125-1.8837890625-4.4501953125-3.3212890625-8.0068359375-4.3173828125-3.5595703125-.9931640625-8.060546875-1.1240234375-13.501953125-.392578125.3134765625,4.08203125.548828125,8.1123046875.7060546875,12.0888671875.1572265625,3.9794921875.3388671875,8.0615234375.5498046875,12.24609375ZM243.951171875010914,303.059570312487267c5.65234375.6279296875,10.4140625.3681640625,14.287109375-.78515625,3.87109375-1.150390625,6.775390625-2.720703125,8.712890625-4.7099609375,1.935546875-1.9873046875,2.9296875-4.1337890625,2.984375-6.4375.05078125-2.30078125-.8642578125-4.2900390625-2.748046875-5.9658203125-1.884765625-1.6728515625-4.763671875-2.798828125-8.634765625-3.375-3.8740234375-.57421875-8.740234375-.181640625-14.6015625,1.1767578125v20.0966796875Z" style="fill: none; stroke: #181818; stroke-linecap: round; stroke-linejoin: round; stroke-width: 33px;"/>
                <path d="M380.070312500010914,320.800781249987267c-.2109375,1.15234375-.576171875,2.251953125-1.099609375,3.296875-.5244140625.8388671875-1.3095703125,1.6240234375-2.3544921875,2.3544921875-1.0478515625.7333984375-2.4599609375,1.2021484375-4.2392578125,1.4130859375-1.78125.208984375-3.6376953125.3388671875-5.5732421875.392578125-1.9384765625.0517578125-3.7431640625-.1328125-5.4169921875-.5498046875-1.6748046875-.4189453125-3.1396484375-1.1767578125-4.3955078125-2.2763671875-1.255859375-1.0986328125-2.041015625-2.7470703125-2.3544921875-4.9453125-.2109375-1.150390625-.314453125-3.505859375-.314453125-7.0654296875,0-3.556640625.0517578125-7.9521484375.1572265625-13.1875-7.2216796875,0-14.4716796875-.1298828125-21.7451171875-.392578125-7.275390625-.259765625-14.6796875-.4951171875-22.21484375-.7060546875-.314453125.10546875-.681640625,0-1.099609375-.314453125-.3134765625-.208984375-.626953125-.6796875-.94140625-1.4130859375-.314453125-.73046875-.576171875-1.830078125-.78515625-3.296875-.10546875-.7314453125-.2626953125-1.908203125-.470703125-3.5322265625-.2109375-1.6220703125-.392578125-3.3486328125-.5498046875-5.181640625-.1572265625-1.830078125-.2353515625-3.556640625-.2353515625-5.1806640625,0-1.62109375.259765625-2.8505859375.78515625-3.689453125.416015625-.7314453125,1.46484375-2.013671875,3.1396484375-3.8466796875,1.6728515625-1.830078125,3.7138671875-4.1064453125,6.123046875-6.8291015625,6.0693359375-6.5947265625,12.03515625-13.345703125,17.8974609375-20.2529296875,5.861328125-6.908203125,11.669921875-14.287109375,17.427734375-22.1376953125,1.044921875-1.4638671875,2.013671875-2.58984375,2.904296875-3.375.888671875-.78515625,2.484375-1.2802734375,4.7890625-1.4912109375,2.197265625-.208984375,4.9453125-.4443359375,8.2421875-.70703125,3.296875-.259765625,6.095703125-.078125,8.3994140625.5498046875.5224609375.3134765625,1.0205078125.7060546875,1.4912109375,1.177734375.470703125.470703125.7578125,1.07421875.86328125,1.8046875.41796875,2.6181640625.65234375,5.078125.70703125,7.37890625.05078125,2.3037109375.1298828125,4.501953125.2353515625,6.5947265625l.6279296875,85.408203125ZM341.919921875010914,274.956054687487267c2.197265625-.1025390625,4.3955078125-.181640625,6.59375-.2353515625,2.197265625-.0517578125,4.3955078125-.078125,6.59375-.078125,0-2.826171875.05078125-5.65234375.15625-8.478515625.103515625-2.826171875.2607421875-5.7548828125.4716796875-8.7919921875-2.1982421875,3.037109375-4.4501953125,5.9931640625-6.7509765625,8.87109375-2.3037109375,2.8798828125-4.658203125,5.7841796875-7.064453125,8.712890625Z" style="fill: none; stroke: #181818; stroke-linecap: round; stroke-linejoin: round; stroke-width: 33px;"/>
              </g>
              <g>
                <path d="M284.300781250010914,266.791992187487267c4.603515625,3.5595703125,8.03125,7.982421875,10.283203125,13.2666015625,2.25,5.287109375,2.9560546875,10.7548828125,2.119140625,16.40625-.94140625,6.3857421875-3.453125,11.7509765625-7.53515625,16.0927734375-4.08203125,4.3447265625-8.8984375,7.771484375-14.4453125,10.283203125-5.548828125,2.5126953125-11.5390625,4.1875-17.9765625,5.0244140625-6.435546875.8369140625-12.48046875.9423828125-18.1328125.314453125-.525390625.2080078125-.99609375.337890625-1.4130859375.392578125-.4189453125.05078125-.8896484375.1298828125-1.4130859375.2353515625-1.8837890625.1025390625-3.822265625.1025390625-5.80859375,0-1.990234375-.10546875-3.794921875-.447265625-5.416015625-1.0205078125-1.625-.57421875-3.0107421875-1.5166015625-4.1611328125-2.826171875-1.1533203125-1.3076171875-1.8330078125-3.1650390625-2.041015625-5.5732421875-.2109375-1.1513671875-.2626953125-3.478515625-.1572265625-6.9873046875.103515625-3.5048828125.208984375-7.771484375.314453125-12.794921875.208984375-5.126953125.392578125-10.701171875.548828125-16.720703125.1572265625-6.017578125.287109375-12.0615234375.392578125-18.1337890625.103515625-7.953125.208984375-15.9599609375.314453125-24.0205078125.103515625-8.05859375-.2109375-16.1708984375-.94140625-24.3349609375-.2119140625-.9423828125-.10546875-1.7783203125.3134765625-2.51171875.2080078125-.62890625.6787109375-1.2294921875,1.4130859375-1.8056640625.73046875-.57421875,1.830078125-.966796875,3.296875-1.177734375,1.044921875-.103515625,2.197265625-.259765625,3.453125-.470703125,1.2568359375-.208984375,2.564453125-.3662109375,3.92578125-.4716796875,1.359375-.1025390625,2.6689453125-.1025390625,3.9248046875,0,1.2568359375.10546875,2.3544921875.314453125,3.2978515625.6279296875,5.337890625-.73046875,10.935546875-.7578125,16.798828125-.078125,5.859375.681640625,11.3818359375,2.068359375,16.5625,4.16015625,5.181640625,2.095703125,9.6806640625,4.89453125,13.501953125,8.3994140625,3.8203125,3.5087890625,6.359375,7.771484375,7.615234375,12.7958984375.5224609375,2.1982421875.8359375,4.501953125.94140625,6.908203125.103515625,2.4091796875-.15625,4.8935546875-.78515625,7.45703125-.626953125,2.56640625-1.6484375,5.2353515625-3.060546875,8.0068359375-1.4140625,2.775390625-3.32421875,5.6279296875-5.73046875,8.556640625ZM243.480468750010914,257.529296874987267c5.0234375.2109375,9.2626953125-.314453125,12.716796875-1.5703125s6.044921875-2.904296875,7.771484375-4.9453125,2.5634765625-4.263671875,2.51171875-6.6728515625c-.0537109375-2.40625-.96875-4.552734375-2.7470703125-6.4365234375-1.78125-1.8837890625-4.4501953125-3.3212890625-8.0068359375-4.3173828125-3.5595703125-.9931640625-8.060546875-1.1240234375-13.501953125-.392578125.3134765625,4.08203125.548828125,8.1123046875.7060546875,12.0888671875.1572265625,3.9794921875.3388671875,8.0615234375.5498046875,12.24609375ZM243.951171875010914,303.059570312487267c5.65234375.6279296875,10.4140625.3681640625,14.287109375-.78515625,3.87109375-1.150390625,6.775390625-2.720703125,8.712890625-4.7099609375,1.935546875-1.9873046875,2.9296875-4.1337890625,2.984375-6.4375.05078125-2.30078125-.8642578125-4.2900390625-2.748046875-5.9658203125-1.884765625-1.6728515625-4.763671875-2.798828125-8.634765625-3.375-3.8740234375-.57421875-8.740234375-.181640625-14.6015625,1.1767578125v20.0966796875Z" style="fill: #e2dddb; stroke-width: 0px;"/>
                <path d="M380.070312500010914,320.800781249987267c-.2109375,1.15234375-.576171875,2.251953125-1.099609375,3.296875-.5244140625.8388671875-1.3095703125,1.6240234375-2.3544921875,2.3544921875-1.0478515625.7333984375-2.4599609375,1.2021484375-4.2392578125,1.4130859375-1.78125.208984375-3.6376953125.3388671875-5.5732421875.392578125-1.9384765625.0517578125-3.7431640625-.1328125-5.4169921875-.5498046875-1.6748046875-.4189453125-3.1396484375-1.1767578125-4.3955078125-2.2763671875-1.255859375-1.0986328125-2.041015625-2.7470703125-2.3544921875-4.9453125-.2109375-1.150390625-.314453125-3.505859375-.314453125-7.0654296875,0-3.556640625.0517578125-7.9521484375.1572265625-13.1875-7.2216796875,0-14.4716796875-.1298828125-21.7451171875-.392578125-7.275390625-.259765625-14.6796875-.4951171875-22.21484375-.7060546875-.314453125.10546875-.681640625,0-1.099609375-.314453125-.3134765625-.208984375-.626953125-.6796875-.94140625-1.4130859375-.314453125-.73046875-.576171875-1.830078125-.78515625-3.296875-.10546875-.7314453125-.2626953125-1.908203125-.470703125-3.5322265625-.2109375-1.6220703125-.392578125-3.3486328125-.5498046875-5.181640625-.1572265625-1.830078125-.2353515625-3.556640625-.2353515625-5.1806640625,0-1.62109375.259765625-2.8505859375.78515625-3.689453125.416015625-.7314453125,1.46484375-2.013671875,3.1396484375-3.8466796875,1.6728515625-1.830078125,3.7138671875-4.1064453125,6.123046875-6.8291015625,6.0693359375-6.5947265625,12.03515625-13.345703125,17.8974609375-20.2529296875,5.861328125-6.908203125,11.669921875-14.287109375,17.427734375-22.1376953125,1.044921875-1.4638671875,2.013671875-2.58984375,2.904296875-3.375.888671875-.78515625,2.484375-1.2802734375,4.7890625-1.4912109375,2.197265625-.208984375,4.9453125-.4443359375,8.2421875-.70703125,3.296875-.259765625,6.095703125-.078125,8.3994140625.5498046875.5224609375.3134765625,1.0205078125.7060546875,1.4912109375,1.177734375.470703125.470703125.7578125,1.07421875.86328125,1.8046875.41796875,2.6181640625.65234375,5.078125.70703125,7.37890625.05078125,2.3037109375.1298828125,4.501953125.2353515625,6.5947265625l.6279296875,85.408203125ZM341.919921875010914,274.956054687487267c2.197265625-.1025390625,4.3955078125-.181640625,6.59375-.2353515625,2.197265625-.0517578125,4.3955078125-.078125,6.59375-.078125,0-2.826171875.05078125-5.65234375.15625-8.478515625.103515625-2.826171875.2607421875-5.7548828125.4716796875-8.7919921875-2.1982421875,3.037109375-4.4501953125,5.9931640625-6.7509765625,8.87109375-2.3037109375,2.8798828125-4.658203125,5.7841796875-7.064453125,8.712890625Z" style="fill: #e2dddb; stroke-width: 0px;"/>
              </g>
            </g>
          </a>
        </g>
      </a>
      <g id="Pie">
        <g>
          <a xlink:href="https://www.notion.so/dmmnotes/paranoid-ae38b1e6af0c4dd08f61e0d8f6e9f05f?pvs=4">
            <path id="C8" d="M331.308105468760914,517.749511718747272l7.825683593739086,54.4306640625c26.439208984369543-3.767822265628638,51.645751953139552-11.3115234375,75.101318359369543-22.04296875l-22.832519531239086-49.996826171878638c-18.7666015625,8.572265625-38.93505859375,14.601318359378638-60.094482421869543,17.609130859378638Z" style="fill: none; stroke: #181818; stroke-linecap: round; stroke-linejoin: round; stroke-width: 15px;"/>
          </a>
          <a xlink:href="https://www.notion.so/dmmnotes/menacing-a5bd7149286344deba45ec15e759e579?pvs=4">
            <path id="C7" d="M391.402587890630457,500.140380859368634l22.832519531239086,49.996826171878638c23.989990234391371-10.975830078119543,46.116210937520009-25.287109375010914,65.803955078141371-42.36181640625l-35.972900390630457-41.515869140619543c-15.753417968760914,13.65869140625-33.459228515630457,25.104492187490905-52.66357421875,33.880859374990905Z" style="fill: none; stroke: #181818; stroke-linecap: round; stroke-linejoin: round; stroke-width: 15px;"/>
          </a>
          <a xlink:href="https://www.notion.so/dmmnotes/seductively-obsessed-with-rescue-6fb5a68f6d334bc29ccccc16d8a4e56e?pvs=4">
            <path id="C6" d="M444.066162109380457,466.259521484377728l35.972900390630457,41.515869140619543c19.762939453119543-17.141845703128638,37.047119140619543-37.041748046878638,51.26708984375-59.125l-46.223632812510914-29.704833984369543c-11.373291015619543,17.673583984369543-25.201171874989086,33.598876953119543-41.016357421869543,47.31396484375Z" style="fill: none; stroke: #181818; stroke-linecap: round; stroke-linejoin: round; stroke-width: 15px;"/>
          </a>
          <a xlink:href="https://www.notion.so/dmmnotes/punitively-obsessed-with-revenge-33d2e77f37774316b42bccf4a60f9688?pvs=4">
            <path id="C5" d="M485.08251953125,418.945556640627728l46.223632812510914,29.704833984369543c14.048095703128638-21.809326171880457,25.08837890625-45.71875,32.551513671869543-71.175048828130457l-52.7548828125-15.490234375c-5.9619140625,20.377929687510914-14.789306640619543,39.509765625-26.020263671880457,56.960449218760914Z" style="fill: none; stroke: #181818; stroke-linecap: round; stroke-linejoin: round; stroke-width: 15px;"/>
          </a>
          <a xlink:href="https://www.notion.so/dmmnotes/feigned-helpless-e79a94b0498c4e109a681b7f3dcdb088?pvs=4">
            <path id="C4" d="M520,299.999999999997272c0,21.5380859375-3.142089843739086,42.321533203119543-8.897216796869543,61.985107421869543l52.7548828125,15.490234375c7.2080078125-24.583496093739086,11.142333984369543-50.5634765625,11.142333984369543-77.475341796869543h-55Z" style="fill: none; stroke: #181818; stroke-linecap: round; stroke-linejoin: round; stroke-width: 15px;"/>
          </a>
          <a xlink:href="https://www.notion.so/dmmnotes/aggressive-2d8ccce383534b9dbfc7b4b10b8a5d5c?pvs=4">
            <path id="C3" d="M520,299.999999999997272h55c0-26.911865234389552-3.934326171869543-52.894531250010914-11.142333984369543-77.475341796889552l-52.7548828125,15.490234375c5.755126953130457,19.663574218759095,8.897216796869543,40.449707031259095,8.897216796869543,61.985107421889552Z" style="fill: none; stroke: #181818; stroke-linecap: round; stroke-linejoin: round; stroke-width: 15px;"/>
          </a>
          <a xlink:href="https://www.notion.so/dmmnotes/disarming-086276e599884c86b9359acf831a8b20?pvs=4">
            <path id="C2" d="M511.102783203130457,238.01489257810772l52.7548828125-15.490234375c-7.463134765619543-25.456298828121362-18.503417968740905-49.365722656240905-32.551513671869543-71.177734374990905l-46.223632812510914,29.70751953125c11.230957031260914,17.45068359375,20.055664062510914,36.585205078119543,26.020263671880457,56.960449218740905Z" style="fill: none; stroke: #181818; stroke-linecap: round; stroke-linejoin: round; stroke-width: 15px;"/>
          </a>
          <a xlink:href="https://www.notion.so/dmmnotes/threatening-348fe6a52f7a4fe69f768e98c6586932?pvs=4">
            <path id="C1" d="M485.08251953125,181.054443359366815l46.223632812510914-29.70751953125c-3.273382764720736-5.082861773660625-6.709138808490025-10.050169557309346-10.300126729000112-14.894880224830558-18.7746979552212-25.329514182889397-56.293794455550596-26.537787805429616-76.939827532480194-2.708921059358545l-.00003597290015.000041518558646c15.815185546880457,13.71240234375,29.64306640625,29.637695312510914,41.016357421869543,47.311279296880457Z" style="fill: none; stroke: #181818; stroke-linecap: round; stroke-linejoin: round; stroke-width: 15px;"/>
          </a>
          <a xlink:href="https://www.notion.so/dmmnotes/complaining-acceptance-8b40401a720c493ba73f7cde1567cf3d?pvs=4">
            <path id="B5-3" data-name="B5" d="M444.066162109380457,133.743164062486358l.00003597290015-.000041518558646c20.654922513649581-23.839126791601302,14.125719583838872-60.826671837301546-13.629725214659629-75.812167347630748-5.297847529700448-2.860371035199933-10.700612091030052-5.552089440430791-16.201365445751435-8.068162227549692l-22.832519531239086,49.99951171875c19.204345703119543,8.773681640619543,36.910156249989086,20.22216796875,52.66357421875,33.880859374989086Z" style="fill: none; stroke: #181818; stroke-linecap: round; stroke-linejoin: round; stroke-width: 15px;"/>
          </a>
          <a xlink:href="https://www.notion.so/dmmnotes/comfortably-balanced-e76dc615a8b947aa915377cd02fcf716?pvs=4">
            <path id="B3" d="M300,79.999999999997272c10.634765625,0,21.078857421869543.797607421869543,31.308105468760914,2.253173828119543l7.825683593739086-54.433349609360448c-12.788574218739086-1.823486328139552-25.843017578130457-2.819824218759095-39.1337890625-2.819824218759095s-26.34521484375.996337890619543-39.133789062489086,2.819824218759095l7.825683593739086,54.433349609360448c10.23193359375-1.45556640625,20.67333984375-2.253173828119543,31.30810546875-2.253173828119543Z" style="fill: none; stroke: #181818; stroke-linecap: round; stroke-linejoin: round; stroke-width: 15px;"/>
          </a>
          <a xlink:href="https://www.notion.so/dmmnotes/accepting-317d81273fff4cd9817cdf4a88efd378?pvs=4">
            <path id="B2" d="M268.69189453125,82.253173828116815l-7.825683593739086-54.433349609360448c-26.439208984391371,3.767822265601353-51.643066406260914,11.311523437490905-75.098632812510914,22.042968749990905l22.83251953125,49.99951171875c18.7666015625-8.574951171889552,38.93505859375-14.601318359380457,60.091796875-17.609130859380457Z" style="fill: none; stroke: #181818; stroke-linecap: round; stroke-linejoin: round; stroke-width: 15px;"/>
          </a>
          <a xlink:href="https://www.notion.so/dmmnotes/distanced-from-past-2eabab7e9c77429f8e577f4e3e203653?pvs=4">
            <path id="B1" d="M208.60009765625,99.862304687497272l-22.83251953125-49.99951171875c-5.501476919680499,2.516122083479786-10.904678806709853,5.207896667829118-16.20277414614975,8.068330353889905-27.754772116430104,14.984759620980185-34.283385893750165,51.971559756599163-13.6283165142504,75.809313677109458l.00003597290015.00004151587018c15.75341796875-13.658691406259095,33.4619140625-25.1044921875,52.66357421875-33.878173828119543Z" style="fill: none; stroke: #181818; stroke-linecap: round; stroke-linejoin: round; stroke-width: 15px;"/>
          </a>
          <a xlink:href="https://www.notion.so/dmmnotes/idealising-a52277f51ed14a42aae78081bb34b8be?pvs=4">
            <path id="A1" d="M155.9365234375,133.740478515616815l-.00003597290015-.00004151587018c-20.647012023619027-23.828455119089995-58.166100839880528-22.619561246779995-76.941289455078731,2.709999997550767-3.591451962291103,4.845219097369409-7.02760574713102,9.813063194989809-10.301350353271118,14.896486830819413l46.226318359369543,29.70751953125c11.373291015641371-17.673583984369543,25.201171875010914-33.598876953130457,41.016357421880457-47.31396484375Z" style="fill: none; stroke: #181818; stroke-linecap: round; stroke-linejoin: round; stroke-width: 15px;"/>
          </a>
          <a xlink:href="https://www.notion.so/dmmnotes/distancing-9ac690cdca654729a17a5a255944e2d1?pvs=4">
            <path id="A2" d="M114.920166015619543,181.054443359366815l-46.226318359369543-29.70751953125c-14.04541015625,21.81201171875-25.08837890625,45.721435546869543-32.551513671880457,71.177734374990905l52.754882812510914,15.490234375c5.964599609369543-20.375244140621362,14.7919921875-39.509765624990905,26.022949218739086-56.960449218740905Z" style="fill: none; stroke: #181818; stroke-linecap: round; stroke-linejoin: round; stroke-width: 15px;"/>
          </a>
          <a xlink:href="https://www.notion.so/dmmnotes/compulsive-caregiving-9c380c0928294f41ae10764aa0dee886?pvs=4">
            <path id="A3" d="M88.897216796880457,238.01489257810772l-52.754882812510914-15.490234375c-7.205322265619543,24.580810546878638-11.142333984369543,50.5634765625-11.142333984369543,77.475341796889552h55c0-21.535400390630457,3.14208984375-42.321533203130457,8.897216796880457-61.985107421889552Z" style="fill: none; stroke: #181818; stroke-linecap: round; stroke-linejoin: round; stroke-width: 15px;"/>
          </a>
          <a xlink:href="https://www.notion.so/dmmnotes/compulsive-compliance-6d08b7ea9a424ce1a72b9184b7850414?pvs=4">
            <path id="A4" d="M80,299.999999999997272H25c0,26.911865234369543,3.93701171875,52.894531249989086,11.142333984369543,77.475341796869543l52.754882812510914-15.490234375c-5.755126953130457-19.66357421875-8.897216796880457-40.447021484369543-8.897216796880457-61.985107421869543Z" style="fill: none; stroke: #181818; stroke-linecap: round; stroke-linejoin: round; stroke-width: 15px;"/>
          </a>
          <a xlink:href="https://www.notion.so/dmmnotes/sexual-supplementation-8e85f49046ef412aa229745abf7d38d3?pvs=4">
            <path id="A5" d="M88.897216796880457,361.985107421866815l-52.754882812510914,15.490234375c7.463134765630457,25.456298828130457,18.506103515630457,49.36572265625,32.551513671880457,71.175048828130457l46.223632812510914-29.704833984369543c-11.230957031260914-17.450683593760914-20.055664062510914-36.58251953125-26.020263671880457-56.960449218760914Z" style="fill: none; stroke: #181818; stroke-linecap: round; stroke-linejoin: round; stroke-width: 15px;"/>
          </a>
          <a xlink:href="https://www.notion.so/dmmnotes/compulsive-isolated-self-reliance-b321873a73fa41aaaadd7192fde856a2?pvs=4">
            <path id="A6" d="M114.917480468760914,418.945556640627728l-46.223632812510914,29.704833984369543c14.219970703119543,22.083251953121362,31.504150390630457,41.983154296871362,51.269775390630457,59.125l35.972900390619543-41.515869140619543c-15.815185546869543-13.712402343759095-29.643066406239086-29.637695312509095-41.019042968739086-47.31396484375Z" style="fill: none; stroke: #181818; stroke-linecap: round; stroke-linejoin: round; stroke-width: 15px;"/>
          </a>
          <a xlink:href="https://www.notion.so/dmmnotes/delusional-idealization-743e2420b9994a48a7cab68190432e8a?pvs=4">
            <path id="A7" d="M155.9365234375,466.259521484377728l-35.972900390619543,41.515869140619543c19.687744140619543,17.074707031239086,41.811279296869543,31.385986328130457,65.803955078119543,42.36181640625l22.83251953125-49.996826171878638c-19.20166015625-8.773681640621362-36.91015625-20.222167968740905-52.66357421875-33.880859374990905Z" style="fill: none; stroke: #181818; stroke-linecap: round; stroke-linejoin: round; stroke-width: 15px;"/>
          </a>
          <a xlink:href="https://www.notion.so/dmmnotes/externally-assembled-self-994ecb0895b844409b931d74a045c162?pvs=4">
            <path id="A8" d="M208.60009765625,500.140380859368634l-22.83251953125,49.996826171878638c23.45556640625,10.7314453125,48.659423828119543,18.275146484371362,75.098632812510914,22.04296875l7.825683593739086-54.4306640625c-21.15673828125-3.0078125-41.3251953125-9.0341796875-60.091796875-17.609130859378638Z" style="fill: none; stroke: #181818; stroke-linecap: round; stroke-linejoin: round; stroke-width: 15px;"/>
          </a>
          <a xlink:href="https://www.notion.so/dmmnotes/psychopathy-0fe4a3222d9f4fd097ab4546c9776768?pvs=4">
            <path id="AC" d="M300,519.999999999997272c-10.634765625,0-21.076171875-.794921875-31.30810546875-2.25048828125l-7.825683593739086,54.4306640625c12.788574218739086,1.823486328130457,25.843017578119543,2.81982421875,39.133789062489086,2.81982421875s26.345214843760914-.996337890619543,39.1337890625-2.81982421875l-7.825683593739086-54.4306640625c-10.229248046891371,1.45556640625-20.673339843760914,2.25048828125-31.308105468760914,2.25048828125Z" style="fill: none; stroke: #181818; stroke-linecap: round; stroke-linejoin: round; stroke-width: 15px;"/>
          </a>
          <a xlink:href="https://www.notion.so/dmmnotes/sentimental-bc554363322342b1b7ca4ccc02125049?pvs=4">
            <g id="B4-2" data-name="B4">
              <path d="M391.402343750010914,100.862304687487267c-.1416015625,0-.2841796875-.0302734375-.416015625-.09033203125-19.0234375-8.69287109375-39.1494140625-14.59033203125-59.818359375-17.5283203125-.2626953125-.03759765625-.5-.177734375-.6591796875-.39013671875s-.2275390625-.4794921875-.1904296875-.7421875l7.8251953125-54.43359375c.072265625-.49853515625.5-.85791015625.9892578125-.85791015625.046875,0,.09375.00341796875.1416015625.009765625,26.0400390625,3.7109375,51.400390625,11.154296875,75.376953125,22.1240234375.501953125.2294921875.72265625.822265625.4931640625,1.32470703125l-22.8330078125,49.99951171875c-.109375.2412109375-.3115234375.4287109375-.5595703125.521484375-.11328125.0419921875-.2314453125.06298828125-.349609375.06298828125Z" style="fill: none; stroke: #181818; stroke-linecap: round; stroke-linejoin: round; stroke-width: 15px;"/>
              <path d="M339.133789062510914,27.819824218737267c26.439208984375,3.767822265625,51.645751953125,11.3115234375,75.101318359375,22.04296875l-22.83251953125,49.99951171875c-18.7666015625-8.574951171875-38.93505859375-14.601318359375-60.094482421875-17.609130859375l7.82568359375-54.433349609375M339.131347656260914,25.819564819323205c-.978759765625,0-1.833984375.718887329101562-1.977294921875,1.715667724609375l-7.82568359375,54.433341979980469c-.075439453125.52557373046875.06103515625,1.059623718261719.379638671875,1.484443664550781s.79296875.705520629882812,1.318603515625.780258178710938c20.572998046875,2.9244384765625,40.606689453125,8.794837951660156,59.544677734375,17.448127746582031.263427734375.120353698730469.547119140625.180900573730469.831298828125.180900573730469.236328125,0,.47314453125-.0418701171875.69873046875-.12603759765625.4970703125-.185356140136719.900146484375-.560600280761719,1.12060546875-1.043174743652344l22.83251953125-49.999519348144531c.45849609375-1.004241943359375.0166015625-2.190155029296875-.9873046875-2.64947509765625-24.062255859375-11.009033203125-49.514892578125-18.4796142578125-75.651123046875-22.204269409179688-.095703125-.013626098632812-.19091796875-.020263671875-.28466796875-.020263671875h0Z" style="fill: none; stroke: #181818; stroke-linecap: round; stroke-linejoin: round; stroke-width: 15px;"/>
            </g>
          </a>
        </g>
        <g>
          <a xlink:href="https://www.notion.so/dmmnotes/paranoid-ae38b1e6af0c4dd08f61e0d8f6e9f05f?pvs=4">
            <path id="C8-2" data-name="C8" d="M331.308105468760914,517.749511718747272l7.825683593739086,54.4306640625c26.439208984369543-3.767822265628638,51.645751953139552-11.3115234375,75.101318359369543-22.04296875l-22.832519531239086-49.996826171878638c-18.7666015625,8.572265625-38.93505859375,14.601318359378638-60.094482421869543,17.609130859378638Z" style="fill: #938480; stroke: #181818; stroke-width: 2px;"/>
          </a>
          <a xlink:href="https://www.notion.so/dmmnotes/menacing-a5bd7149286344deba45ec15e759e579?pvs=4">
            <path id="C7-2" data-name="C7" d="M391.402587890630457,500.140380859368634l22.832519531239086,49.996826171878638c23.989990234391371-10.975830078119543,46.116210937520009-25.287109375010914,65.803955078141371-42.36181640625l-35.972900390630457-41.515869140619543c-15.753417968760914,13.65869140625-33.459228515630457,25.104492187490905-52.66357421875,33.880859374990905Z" style="fill: #958682; stroke: #181818; stroke-width: 2px;"/>
          </a>
          <a xlink:href="https://www.notion.so/dmmnotes/seductively-obsessed-with-rescue-6fb5a68f6d334bc29ccccc16d8a4e56e?pvs=4">
            <path id="C6-2" data-name="C6" d="M444.066162109380457,466.259521484377728l35.972900390630457,41.515869140619543c19.762939453119543-17.141845703128638,37.047119140619543-37.041748046878638,51.26708984375-59.125l-46.223632812510914-29.704833984369543c-11.373291015619543,17.673583984369543-25.201171874989086,33.598876953119543-41.016357421869543,47.31396484375Z" style="fill: #988985; stroke: #181818; stroke-width: 2px;"/>
          </a>
          <a xlink:href="https://www.notion.so/dmmnotes/punitively-obsessed-with-revenge-33d2e77f37774316b42bccf4a60f9688?pvs=4">
            <path id="C5-2" data-name="C5" d="M485.08251953125,418.945556640627728l46.223632812510914,29.704833984369543c14.048095703128638-21.809326171880457,25.08837890625-45.71875,32.551513671869543-71.175048828130457l-52.7548828125-15.490234375c-5.9619140625,20.377929687510914-14.789306640619543,39.509765625-26.020263671880457,56.960449218760914Z" style="fill: #9b8d89; stroke: #181818; stroke-width: 2px;"/>
          </a>
          <a xlink:href="https://www.notion.so/dmmnotes/feigned-helpless-e79a94b0498c4e109a681b7f3dcdb088?pvs=4">
            <path id="C4-2" data-name="C4" d="M520,299.999999999997272c0,21.5380859375-3.142089843739086,42.321533203119543-8.897216796869543,61.985107421869543l52.7548828125,15.490234375c7.2080078125-24.583496093739086,11.142333984369543-50.5634765625,11.142333984369543-77.475341796869543h-55Z" style="fill: #a1928f; stroke: #181818; stroke-width: 2px;"/>
          </a>
          <a xlink:href="https://www.notion.so/dmmnotes/aggressive-2d8ccce383534b9dbfc7b4b10b8a5d5c?pvs=4">
            <path id="C3-2" data-name="C3" d="M520,299.999999999997272h55c0-26.911865234389552-3.934326171869543-52.894531250010914-11.142333984369543-77.475341796889552l-52.7548828125,15.490234375c5.755126953130457,19.663574218759095,8.897216796869543,40.449707031259095,8.897216796869543,61.985107421889552Z" style="fill: #9e8f8b; stroke: #181818; stroke-width: 2px;"/>
          </a>
          <a xlink:href="https://www.notion.so/dmmnotes/disarming-086276e599884c86b9359acf831a8b20?pvs=4">
            <path id="C2-2" data-name="C2" d="M511.102783203130457,238.01489257810772l52.7548828125-15.490234375c-7.463134765619543-25.456298828121362-18.503417968740905-49.365722656240905-32.551513671869543-71.177734374990905l-46.223632812510914,29.70751953125c11.230957031260914,17.45068359375,20.055664062510914,36.585205078119543,26.020263671880457,56.960449218740905Z" style="fill: #9b8c88; stroke: #181818; stroke-width: 2px;"/>
          </a>
          <a xlink:href="https://www.notion.so/dmmnotes/threatening-348fe6a52f7a4fe69f768e98c6586932?pvs=4">
            <path id="C1-2" data-name="C1" d="M485.08251953125,181.054443359366815l46.223632812510914-29.70751953125c-3.273382764720736-5.082861773660625-6.709138808490025-10.050169557309346-10.300126729000112-14.894880224830558-18.7746979552212-25.329514182889397-56.293794455550596-26.537787805429616-76.939827532480194-2.708921059358545l-.00003597290015.000041518558646c15.815185546880457,13.71240234375,29.64306640625,29.637695312510914,41.016357421869543,47.311279296880457Z" style="fill: #988985; stroke: #181818; stroke-width: 2px;"/>
          </a>
          <a xlink:href="https://www.notion.so/dmmnotes/complaining-acceptance-8b40401a720c493ba73f7cde1567cf3d?pvs=4">
            <path id="B5-4" data-name="B5" d="M444.066162109380457,133.743164062486358l.00003597290015-.000041518558646c20.654922513649581-23.839126791601302,14.125719583838872-60.826671837301546-13.629725214659629-75.812167347630748-5.297847529700448-2.860371035199933-10.700612091030052-5.552089440430791-16.201365445751435-8.068162227549692l-22.832519531239086,49.99951171875c19.204345703119543,8.773681640619543,36.910156249989086,20.22216796875,52.66357421875,33.880859374989086Z" style="fill: #958682; stroke: #181818; stroke-width: 2px;"/>
          </a>
          <a xlink:href="https://www.notion.so/dmmnotes/comfortably-balanced-e76dc615a8b947aa915377cd02fcf716?pvs=4">
            <path id="B3-2" data-name="B3" d="M300,79.999999999997272c10.634765625,0,21.078857421869543.797607421869543,31.308105468760914,2.253173828119543l7.825683593739086-54.433349609360448c-12.788574218739086-1.823486328139552-25.843017578130457-2.819824218759095-39.1337890625-2.819824218759095s-26.34521484375.996337890619543-39.133789062489086,2.819824218759095l7.825683593739086,54.433349609360448c10.23193359375-1.45556640625,20.67333984375-2.253173828119543,31.30810546875-2.253173828119543Z" style="fill: #8f807d; stroke: #181818; stroke-width: 2px;"/>
          </a>
          <a xlink:href="https://www.notion.so/dmmnotes/accepting-317d81273fff4cd9817cdf4a88efd378?pvs=4">
            <path id="B2-2" data-name="B2" d="M268.69189453125,82.253173828116815l-7.825683593739086-54.433349609360448c-26.439208984391371,3.767822265601353-51.643066406260914,11.311523437490905-75.098632812510914,22.042968749990905l22.83251953125,49.99951171875c18.7666015625-8.574951171889552,38.93505859375-14.601318359380457,60.091796875-17.609130859380457Z" style="fill: #8c7d7a; stroke: #181818; stroke-width: 2px;"/>
          </a>
          <a xlink:href="https://www.notion.so/dmmnotes/distanced-from-past-2eabab7e9c77429f8e577f4e3e203653?pvs=4">
            <path id="B1-2" data-name="B1" d="M208.60009765625,99.862304687497272l-22.83251953125-49.99951171875c-5.501476919680499,2.516122083479786-10.904678806709853,5.207896667829118-16.20277414614975,8.068330353889905-27.754772116430104,14.984759620980185-34.283385893750165,51.971559756599163-13.6283165142504,75.809313677109458l.00003597290015.00004151587018c15.75341796875-13.658691406259095,33.4619140625-25.1044921875,52.66357421875-33.878173828119543Z" style="fill: #8a7b78; stroke: #181818; stroke-width: 2px;"/>
          </a>
          <a xlink:href="https://www.notion.so/dmmnotes/idealising-a52277f51ed14a42aae78081bb34b8be?pvs=4">
            <path id="A1-2" data-name="A1" d="M155.9365234375,133.740478515616815l-.00003597290015-.00004151587018c-20.647012023619027-23.828455119089995-58.166100839880528-22.619561246779995-76.941289455078731,2.709999997550767-3.591451962291103,4.845219097369409-7.02760574713102,9.813063194989809-10.301350353271118,14.896486830819413l46.226318359369543,29.70751953125c11.373291015641371-17.673583984369543,25.201171875010914-33.598876953130457,41.016357421880457-47.31396484375Z" style="fill: #877875; stroke: #181818; stroke-width: 2px;"/>
          </a>
          <a xlink:href="https://www.notion.so/dmmnotes/distancing-9ac690cdca654729a17a5a255944e2d1?pvs=4">
            <path id="A2-2" data-name="A2" d="M114.920166015619543,181.054443359366815l-46.226318359369543-29.70751953125c-14.04541015625,21.81201171875-25.08837890625,45.721435546869543-32.551513671880457,71.177734374990905l52.754882812510914,15.490234375c5.964599609369543-20.375244140621362,14.7919921875-39.509765624990905,26.022949218739086-56.960449218740905Z" style="fill: #847572; stroke: #181818; stroke-width: 2px;"/>
          </a>
          <a xlink:href="https://www.notion.so/dmmnotes/compulsive-caregiving-9c380c0928294f41ae10764aa0dee886?pvs=4">
            <path id="A3-2" data-name="A3" d="M88.897216796880457,238.01489257810772l-52.754882812510914-15.490234375c-7.205322265619543,24.580810546878638-11.142333984369543,50.5634765625-11.142333984369543,77.475341796889552h55c0-21.535400390630457,3.14208984375-42.321533203130457,8.897216796880457-61.985107421889552Z" style="fill: #827370; stroke: #181818; stroke-width: 2px;"/>
          </a>
          <a xlink:href="https://www.notion.so/dmmnotes/compulsive-compliance-6d08b7ea9a424ce1a72b9184b7850414?pvs=4">
            <path id="A4-2" data-name="A4" d="M80,299.999999999997272H25c0,26.911865234369543,3.93701171875,52.894531249989086,11.142333984369543,77.475341796869543l52.754882812510914-15.490234375c-5.755126953130457-19.66357421875-8.897216796880457-40.447021484369543-8.897216796880457-61.985107421869543Z" style="fill: #80716e; stroke: #181818; stroke-width: 2px;"/>
          </a>
          <a xlink:href="https://www.notion.so/dmmnotes/sexual-supplementation-8e85f49046ef412aa229745abf7d38d3?pvs=4">
            <path id="A5-2" data-name="A5" d="M88.897216796880457,361.985107421866815l-52.754882812510914,15.490234375c7.463134765630457,25.456298828130457,18.506103515630457,49.36572265625,32.551513671880457,71.175048828130457l46.223632812510914-29.704833984369543c-11.230957031260914-17.450683593760914-20.055664062510914-36.58251953125-26.020263671880457-56.960449218760914Z" style="fill: #837471; stroke: #181818; stroke-width: 2px;"/>
          </a>
          <a xlink:href="https://www.notion.so/dmmnotes/compulsive-isolated-self-reliance-b321873a73fa41aaaadd7192fde856a2?pvs=4">
            <path id="A6-2" data-name="A6" d="M114.917480468760914,418.945556640627728l-46.223632812510914,29.704833984369543c14.219970703119543,22.083251953121362,31.504150390630457,41.983154296871362,51.269775390630457,59.125l35.972900390619543-41.515869140619543c-15.815185546869543-13.712402343759095-29.643066406239086-29.637695312509095-41.019042968739086-47.31396484375Z" style="fill: #867774; stroke: #181818; stroke-width: 2px;"/>
          </a>
          <a xlink:href="https://www.notion.so/dmmnotes/delusional-idealization-743e2420b9994a48a7cab68190432e8a?pvs=4">
            <path id="A7-2" data-name="A7" d="M155.9365234375,466.259521484377728l-35.972900390619543,41.515869140619543c19.687744140619543,17.074707031239086,41.811279296869543,31.385986328130457,65.803955078119543,42.36181640625l22.83251953125-49.996826171878638c-19.20166015625-8.773681640621362-36.91015625-20.222167968740905-52.66357421875-33.880859374990905Z" style="fill: #8a7b77; stroke: #181818; stroke-width: 2px;"/>
          </a>
          <a xlink:href="https://www.notion.so/dmmnotes/externally-assembled-self-994ecb0895b844409b931d74a045c162?pvs=4">
            <path id="A8-2" data-name="A8" d="M208.60009765625,500.140380859368634l-22.83251953125,49.996826171878638c23.45556640625,10.7314453125,48.659423828119543,18.275146484371362,75.098632812510914,22.04296875l7.825683593739086-54.4306640625c-21.15673828125-3.0078125-41.3251953125-9.0341796875-60.091796875-17.609130859378638Z" style="fill: #8a7b77; stroke: #181818; stroke-width: 2px;"/>
          </a>
          <a xlink:href="https://www.notion.so/dmmnotes/psychopathy-0fe4a3222d9f4fd097ab4546c9776768?pvs=4">
            <path id="AC-2" data-name="AC" d="M300,519.999999999997272c-10.634765625,0-21.076171875-.794921875-31.30810546875-2.25048828125l-7.825683593739086,54.4306640625c12.788574218739086,1.823486328130457,25.843017578119543,2.81982421875,39.133789062489086,2.81982421875s26.345214843760914-.996337890619543,39.1337890625-2.81982421875l-7.825683593739086-54.4306640625c-10.229248046891371,1.45556640625-20.673339843760914,2.25048828125-31.308105468760914,2.25048828125Z" style="fill: #90817d; stroke: #181818; stroke-width: 2px;"/>
          </a>
          <a xlink:href="https://www.notion.so/dmmnotes/sentimental-bc554363322342b1b7ca4ccc02125049?pvs=4">
            <g id="B4-3" data-name="B4">
              <path d="M391.402343750010914,100.862304687487267c-.1416015625,0-.2841796875-.0302734375-.416015625-.09033203125-19.0234375-8.69287109375-39.1494140625-14.59033203125-59.818359375-17.5283203125-.2626953125-.03759765625-.5-.177734375-.6591796875-.39013671875s-.2275390625-.4794921875-.1904296875-.7421875l7.8251953125-54.43359375c.072265625-.49853515625.5-.85791015625.9892578125-.85791015625.046875,0,.09375.00341796875.1416015625.009765625,26.0400390625,3.7109375,51.400390625,11.154296875,75.376953125,22.1240234375.501953125.2294921875.72265625.822265625.4931640625,1.32470703125l-22.8330078125,49.99951171875c-.109375.2412109375-.3115234375.4287109375-.5595703125.521484375-.11328125.0419921875-.2314453125.06298828125-.349609375.06298828125Z" style="fill: #008f82; stroke-width: 0px;"/>
              <path d="M339.133789062510914,27.819824218737267c26.439208984375,3.767822265625,51.645751953125,11.3115234375,75.101318359375,22.04296875l-22.83251953125,49.99951171875c-18.7666015625-8.574951171875-38.93505859375-14.601318359375-60.094482421875-17.609130859375l7.82568359375-54.433349609375M339.131347656260914,25.819564819323205c-.978759765625,0-1.833984375.718887329101562-1.977294921875,1.715667724609375l-7.82568359375,54.433341979980469c-.075439453125.52557373046875.06103515625,1.059623718261719.379638671875,1.484443664550781s.79296875.705520629882812,1.318603515625.780258178710938c20.572998046875,2.9244384765625,40.606689453125,8.794837951660156,59.544677734375,17.448127746582031.263427734375.120353698730469.547119140625.180900573730469.831298828125.180900573730469.236328125,0,.47314453125-.0418701171875.69873046875-.12603759765625.4970703125-.185356140136719.900146484375-.560600280761719,1.12060546875-1.043174743652344l22.83251953125-49.999519348144531c.45849609375-1.004241943359375.0166015625-2.190155029296875-.9873046875-2.64947509765625-24.062255859375-11.009033203125-49.514892578125-18.4796142578125-75.651123046875-22.204269409179688-.095703125-.013626098632812-.19091796875-.020263671875-.28466796875-.020263671875h0Z" style="fill: #181818; stroke-width: 0px;"/>
            </g>
          </a>
        </g>
      </g>
      <g>
        <path d="M375.962890625010914,71.275390624987267c-.041015625.22314453125-.11328125.43603515625-.212890625.63818359375-.1015625.16259765625-.25390625.314453125-.45703125.4560546875-.203125.14208984375-.4765625.232421875-.8203125.2734375-.34375.04052734375-.703125.0654296875-1.078125.076171875-.375.009765625-.724609375-.02587890625-1.048828125-.1064453125-.32421875-.08154296875-.607421875-.22802734375-.8515625-.44091796875-.2421875-.21240234375-.39453125-.53173828125-.455078125-.95703125-.041015625-.22265625-.060546875-.6787109375-.060546875-1.36767578125,0-.6884765625.009765625-1.53955078125.029296875-2.552734375-1.396484375,0-2.80078125-.025390625-4.208984375-.076171875-1.408203125-.05029296875-2.841796875-.095703125-4.298828125-.13671875-.0625.0205078125-.1328125,0-.212890625-.060546875-.060546875-.04052734375-.123046875-.1318359375-.18359375-.27392578125-.060546875-.14111328125-.111328125-.35400390625-.15234375-.63818359375-.01953125-.14111328125-.05078125-.369140625-.08984375-.68359375-.041015625-.31396484375-.076171875-.6484375-.107421875-1.0029296875-.029296875-.35400390625-.044921875-.6884765625-.044921875-1.0029296875,0-.31396484375.05078125-.5517578125.15234375-.71435546875.080078125-.14111328125.283203125-.3896484375.607421875-.744140625s.71875-.794921875,1.185546875-1.322265625c1.173828125-1.2763671875,2.330078125-2.5830078125,3.46484375-3.92041015625,1.1328125-1.3369140625,2.2578125-2.765625,3.373046875-4.28515625.201171875-.283203125.388671875-.50146484375.5625-.6533203125.171875-.15185546875.48046875-.24755859375.92578125-.28857421875.42578125-.04052734375.95703125-.0859375,1.595703125-.13671875.638671875-.05029296875,1.1796875-.01513671875,1.626953125.1064453125.099609375.060546875.197265625.13671875.287109375.2275390625.091796875.09130859375.1484375.2080078125.16796875.349609375.080078125.5068359375.126953125.98291015625.13671875,1.4287109375s.025390625.87109375.044921875,1.2763671875l.123046875,16.5322265625ZM368.578125000010914,62.401367187487267c.423828125-.02001953125.849609375-.03515625,1.275390625-.04541015625s.8515625-.01513671875,1.27734375-.01513671875c0-.54736328125.009765625-1.09423828125.029296875-1.64111328125.01953125-.54736328125.05078125-1.1142578125.091796875-1.7021484375-.42578125.587890625-.861328125,1.16015625-1.306640625,1.71728515625-.447265625.55712890625-.90234375,1.11962890625-1.3671875,1.6865234375Z" style="fill: none; stroke: #181818; stroke-width: 5.631003379821777px;"/>
        <path d="M375.962890625010914,71.275390624987267c-.041015625.22314453125-.11328125.43603515625-.212890625.63818359375-.1015625.16259765625-.25390625.314453125-.45703125.4560546875-.203125.14208984375-.4765625.232421875-.8203125.2734375-.34375.04052734375-.703125.0654296875-1.078125.076171875-.375.009765625-.724609375-.02587890625-1.048828125-.1064453125-.32421875-.08154296875-.607421875-.22802734375-.8515625-.44091796875-.2421875-.21240234375-.39453125-.53173828125-.455078125-.95703125-.041015625-.22265625-.060546875-.6787109375-.060546875-1.36767578125,0-.6884765625.009765625-1.53955078125.029296875-2.552734375-1.396484375,0-2.80078125-.025390625-4.208984375-.076171875-1.408203125-.05029296875-2.841796875-.095703125-4.298828125-.13671875-.0625.0205078125-.1328125,0-.212890625-.060546875-.060546875-.04052734375-.123046875-.1318359375-.18359375-.27392578125-.060546875-.14111328125-.111328125-.35400390625-.15234375-.63818359375-.01953125-.14111328125-.05078125-.369140625-.08984375-.68359375-.041015625-.31396484375-.076171875-.6484375-.107421875-1.0029296875-.029296875-.35400390625-.044921875-.6884765625-.044921875-1.0029296875,0-.31396484375.05078125-.5517578125.15234375-.71435546875.080078125-.14111328125.283203125-.3896484375.607421875-.744140625s.71875-.794921875,1.185546875-1.322265625c1.173828125-1.2763671875,2.330078125-2.5830078125,3.46484375-3.92041015625,1.1328125-1.3369140625,2.2578125-2.765625,3.373046875-4.28515625.201171875-.283203125.388671875-.50146484375.5625-.6533203125.171875-.15185546875.48046875-.24755859375.92578125-.28857421875.42578125-.04052734375.95703125-.0859375,1.595703125-.13671875.638671875-.05029296875,1.1796875-.01513671875,1.626953125.1064453125.099609375.060546875.197265625.13671875.287109375.2275390625.091796875.09130859375.1484375.2080078125.16796875.349609375.080078125.5068359375.126953125.98291015625.13671875,1.4287109375s.025390625.87109375.044921875,1.2763671875l.123046875,16.5322265625ZM368.578125000010914,62.401367187487267c.423828125-.02001953125.849609375-.03515625,1.275390625-.04541015625s.8515625-.01513671875,1.27734375-.01513671875c0-.54736328125.009765625-1.09423828125.029296875-1.64111328125.01953125-.54736328125.05078125-1.1142578125.091796875-1.7021484375-.42578125.587890625-.861328125,1.16015625-1.306640625,1.71728515625-.447265625.55712890625-.90234375,1.11962890625-1.3671875,1.6865234375Z" style="fill: #231f20; stroke-width: 0px;"/>
        <path d="M375.962890625010914,71.275390624987267c-.041015625.22314453125-.11328125.43603515625-.212890625.63818359375-.1015625.16259765625-.25390625.314453125-.45703125.4560546875-.203125.14208984375-.4765625.232421875-.8203125.2734375-.34375.04052734375-.703125.0654296875-1.078125.076171875-.375.009765625-.724609375-.02587890625-1.048828125-.1064453125-.32421875-.08154296875-.607421875-.22802734375-.8515625-.44091796875-.2421875-.21240234375-.39453125-.53173828125-.455078125-.95703125-.041015625-.22265625-.060546875-.6787109375-.060546875-1.36767578125,0-.6884765625.009765625-1.53955078125.029296875-2.552734375-1.396484375,0-2.80078125-.025390625-4.208984375-.076171875-1.408203125-.05029296875-2.841796875-.095703125-4.298828125-.13671875-.0625.0205078125-.1328125,0-.212890625-.060546875-.060546875-.04052734375-.123046875-.1318359375-.18359375-.27392578125-.060546875-.14111328125-.111328125-.35400390625-.15234375-.63818359375-.01953125-.14111328125-.05078125-.369140625-.08984375-.68359375-.041015625-.31396484375-.076171875-.6484375-.107421875-1.0029296875-.029296875-.35400390625-.044921875-.6884765625-.044921875-1.0029296875,0-.31396484375.05078125-.5517578125.15234375-.71435546875.080078125-.14111328125.283203125-.3896484375.607421875-.744140625s.71875-.794921875,1.185546875-1.322265625c1.173828125-1.2763671875,2.330078125-2.5830078125,3.46484375-3.92041015625,1.1328125-1.3369140625,2.2578125-2.765625,3.373046875-4.28515625.201171875-.283203125.388671875-.50146484375.5625-.6533203125.171875-.15185546875.48046875-.24755859375.92578125-.28857421875.42578125-.04052734375.95703125-.0859375,1.595703125-.13671875.638671875-.05029296875,1.1796875-.01513671875,1.626953125.1064453125.099609375.060546875.197265625.13671875.287109375.2275390625.091796875.09130859375.1484375.2080078125.16796875.349609375.080078125.5068359375.126953125.98291015625.13671875,1.4287109375s.025390625.87109375.044921875,1.2763671875l.123046875,16.5322265625ZM368.578125000010914,62.401367187487267c.423828125-.02001953125.849609375-.03515625,1.275390625-.04541015625s.8515625-.01513671875,1.27734375-.01513671875c0-.54736328125.009765625-1.09423828125.029296875-1.64111328125.01953125-.54736328125.05078125-1.1142578125.091796875-1.7021484375-.42578125.587890625-.861328125,1.16015625-1.306640625,1.71728515625-.447265625.55712890625-.90234375,1.11962890625-1.3671875,1.6865234375Z" style="fill: #e2dddb; stroke-width: 0px;"/>
      </g>
    </g>
  </g>
</svg>