<?xml version="1.0" encoding="UTF-8"?>
<svg id="Layer_1" data-name="Layer 1" xmlns="http://www.w3.org/2000/svg" xmlns:xlink="http://www.w3.org/1999/xlink" viewBox="0 0 600.000000000001819 600">
  <defs>
    <linearGradient id="B3-3" data-name="B3" x1="277.779492019999452" y1="378.484269323493209" x2="320.970298578608833" y2="318.564629238670534" gradientUnits="userSpaceOnUse">
      <stop offset="0" stop-color="#008693"/>
      <stop offset=".5" stop-color="#008c8d"/>
      <stop offset="1" stop-color="#008f82"/>
    </linearGradient>
  </defs>
  <g id="pie_with_links_-5" data-name="pie (with links)">
    <g id="pie_with_links_-6" data-name="pie (with links)">
      <g id="Pie">
        <g>
          <a xlink:href="https://www.notion.so/dmmnotes/paranoid-ae38b1e6af0c4dd08f61e0d8f6e9f05f?pvs=4">
            <path id="C8" d="M331.308105468762733,517.74951171875l7.825683593739086,54.4306640625c26.439208984371362-3.767822265630457,51.645751953139552-11.3115234375,75.101318359371362-22.04296875l-22.832519531239086-49.996826171880457c-18.766601562501819,8.572265625-38.935058593751819,14.601318359380457-60.094482421871362,17.609130859380457Z" fill="none" stroke="#181818" stroke-linecap="round" stroke-linejoin="round" stroke-width="15"/>
          </a>
          <a xlink:href="https://www.notion.so/dmmnotes/menacing-a5bd7149286344deba45ec15e759e579?pvs=4">
            <path id="C7" d="M391.402587890634095,500.140380859369543l22.832519531239086,49.996826171880457c23.989990234389552-10.975830078121362,46.11621093751819-25.287109375010914,65.803955078139552-42.36181640625l-35.972900390628638-41.515869140621362c-15.753417968760914,13.65869140625-33.459228515632276,25.104492187490905-52.66357421875,33.880859374990905Z" fill="none" stroke="#181818" stroke-linecap="round" stroke-linejoin="round" stroke-width="15"/>
          </a>
          <a xlink:href="https://www.notion.so/dmmnotes/seductively-obsessed-with-rescue-6fb5a68f6d334bc29ccccc16d8a4e56e?pvs=4">
            <path id="C6" d="M444.066162109384095,466.259521484378638l35.972900390628638,41.515869140621362c19.762939453121362-17.141845703130457,37.047119140621362-37.041748046880457,51.26708984375-59.125l-46.223632812510914-29.704833984371362c-11.373291015617724,17.673583984371362-25.201171874989086,33.598876953121362-41.016357421867724,47.31396484375Z" fill="none" stroke="#181818" stroke-linecap="round" stroke-linejoin="round" stroke-width="15"/>
          </a>
          <a xlink:href="https://www.notion.so/dmmnotes/punitively-obsessed-with-revenge-33d2e77f37774316b42bccf4a60f9688?pvs=4">
            <path id="C5" d="M485.082519531251819,418.945556640628638l46.223632812510914,29.704833984371362c14.048095703128638-21.809326171880457,25.08837890625-45.71875,32.551513671871362-71.175048828130457l-52.7548828125-15.490234375c-5.9619140625,20.377929687509095-14.789306640621362,39.509765625-26.020263671882276,56.960449218759095Z" fill="none" stroke="#181818" stroke-linecap="round" stroke-linejoin="round" stroke-width="15"/>
          </a>
          <a xlink:href="https://www.notion.so/dmmnotes/feigned-helpless-e79a94b0498c4e109a681b7f3dcdb088?pvs=4">
            <path id="C4" d="M520.000000000001819,300c0,21.5380859375-3.142089843739086,42.321533203119543-8.897216796867724,61.985107421869543l52.7548828125,15.490234375c7.2080078125-24.583496093740905,11.142333984367724-50.5634765625,11.142333984367724-77.475341796869543h-55Z" fill="none" stroke="#181818" stroke-linecap="round" stroke-linejoin="round" stroke-width="15"/>
          </a>
          <a xlink:href="https://www.notion.so/dmmnotes/aggressive-2d8ccce383534b9dbfc7b4b10b8a5d5c?pvs=4">
            <path id="C3" d="M520.000000000001819,300h55c0-26.911865234391371-3.934326171867724-52.894531250010914-11.142333984367724-77.475341796891371l-52.7548828125,15.490234375c5.755126953128638,19.663574218760914,8.897216796867724,40.449707031260914,8.897216796867724,61.985107421891371Z" fill="none" stroke="#181818" stroke-linecap="round" stroke-linejoin="round" stroke-width="15"/>
          </a>
          <a xlink:href="https://www.notion.so/dmmnotes/disarming-086276e599884c86b9359acf831a8b20?pvs=4">
            <path id="C2" d="M511.102783203134095,238.014892578108629l52.7548828125-15.490234375c-7.463134765621362-25.456298828119543-18.503417968742724-49.365722656239086-32.551513671871362-71.177734374989086l-46.223632812510914,29.70751953125c11.230957031260914,17.45068359375,20.055664062510914,36.585205078119543,26.020263671882276,56.960449218739086Z" fill="none" stroke="#181818" stroke-linecap="round" stroke-linejoin="round" stroke-width="15"/>
          </a>
          <a xlink:href="https://www.notion.so/dmmnotes/threatening-348fe6a52f7a4fe69f768e98c6586932?pvs=4">
            <path id="C1" d="M485.082519531251819,181.054443359369543l46.223632812510914-29.70751953125c-14.219970703128638-22.08056640625-31.504150390628638-41.980468750010914-51.26708984375-59.122314453119543l-35.972900390628638,41.518554687489086c15.815185546878638,13.71240234375,29.64306640625,29.637695312510914,41.016357421867724,47.311279296880457Z" fill="none" stroke="#181818" stroke-linecap="round" stroke-linejoin="round" stroke-width="15"/>
          </a>
          <a xlink:href="https://www.notion.so/dmmnotes/idealising-a52277f51ed14a42aae78081bb34b8be?pvs=4">
            <path id="A1" d="M155.9365234375,133.740478515619543l-35.972900390619543-41.515869140619543c-19.765625,17.141845703108629-37.049804687510914,37.041748046869543-51.269775390630457,59.122314453119543l46.226318359369543,29.70751953125c11.373291015640461-17.673583984369543,25.201171875010914-33.598876953130457,41.016357421880457-47.31396484375Z" fill="none" stroke="#181818" stroke-linecap="round" stroke-linejoin="round" stroke-width="15"/>
          </a>
          <a xlink:href="https://www.notion.so/dmmnotes/distancing-9ac690cdca654729a17a5a255944e2d1?pvs=4">
            <path id="A2" d="M114.920166015619543,181.054443359369543l-46.226318359369543-29.70751953125c-14.04541015625,21.81201171875-25.08837890625,45.721435546869543-32.551513671880457,71.177734374989086l52.754882812510914,15.490234375c5.964599609369543-20.375244140619543,14.7919921875-39.509765624989086,26.022949218739086-56.960449218739086Z" fill="none" stroke="#181818" stroke-linecap="round" stroke-linejoin="round" stroke-width="15"/>
          </a>
          <a xlink:href="https://www.notion.so/dmmnotes/compulsive-caregiving-9c380c0928294f41ae10764aa0dee886?pvs=4">
            <path id="A3" d="M88.897216796880457,238.014892578108629l-52.754882812510914-15.490234375c-7.205322265619543,24.580810546880457-11.142333984369543,50.5634765625-11.142333984369543,77.475341796891371h55c0-21.535400390630457,3.14208984375-42.321533203130457,8.897216796880457-61.985107421891371Z" fill="none" stroke="#181818" stroke-linecap="round" stroke-linejoin="round" stroke-width="15"/>
          </a>
          <a xlink:href="https://www.notion.so/dmmnotes/compulsive-compliance-6d08b7ea9a424ce1a72b9184b7850414?pvs=4">
            <path id="A4" d="M80,300H25c0,26.911865234369543,3.93701171875,52.894531249989086,11.142333984369543,77.475341796869543l52.754882812510914-15.490234375c-5.755126953130457-19.66357421875-8.897216796880457-40.447021484369543-8.897216796880457-61.985107421869543Z" fill="none" stroke="#181818" stroke-linecap="round" stroke-linejoin="round" stroke-width="15"/>
          </a>
          <a xlink:href="https://www.notion.so/dmmnotes/sexual-supplementation-8e85f49046ef412aa229745abf7d38d3?pvs=4">
            <path id="A5" d="M88.897216796880457,361.985107421869543l-52.754882812510914,15.490234375c7.463134765630457,25.456298828130457,18.506103515630457,49.36572265625,32.551513671880457,71.175048828130457l46.223632812510004-29.704833984371362c-11.230957031260004-17.450683593759095-20.055664062510004-36.58251953125-26.020263671879547-56.960449218759095Z" fill="none" stroke="#181818" stroke-linecap="round" stroke-linejoin="round" stroke-width="15"/>
          </a>
          <a xlink:href="https://www.notion.so/dmmnotes/compulsive-isolated-self-reliance-b321873a73fa41aaaadd7192fde856a2?pvs=4">
            <path id="A6" d="M114.917480468760004,418.945556640628638l-46.223632812510004,29.704833984371362c14.219970703119543,22.083251953119543,31.504150390630457,41.983154296869543,51.269775390630457,59.125l35.972900390619543-41.515869140621362c-15.815185546869543-13.712402343759095-29.643066406239996-29.637695312509095-41.019042968739996-47.31396484375Z" fill="none" stroke="#181818" stroke-linecap="round" stroke-linejoin="round" stroke-width="15"/>
          </a>
          <a xlink:href="https://www.notion.so/dmmnotes/delusional-idealization-743e2420b9994a48a7cab68190432e8a?pvs=4">
            <path id="A7" d="M155.9365234375,466.259521484378638l-35.972900390619543,41.515869140621362c19.687744140619543,17.074707031239086,41.811279296869543,31.385986328128638,65.803955078119543,42.36181640625l22.83251953125-49.996826171880457c-19.20166015625-8.773681640619543-36.91015625-20.222167968740905-52.66357421875-33.880859374990905Z" fill="none" stroke="#181818" stroke-linecap="round" stroke-linejoin="round" stroke-width="15"/>
          </a>
          <a xlink:href="https://www.notion.so/dmmnotes/externally-assembled-self-994ecb0895b844409b931d74a045c162?pvs=4">
            <path id="A8" d="M208.60009765625,500.140380859369543l-22.83251953125,49.996826171880457c23.45556640625,10.7314453125,48.659423828119543,18.275146484369543,75.098632812512733,22.04296875l7.825683593739086-54.4306640625c-21.15673828125-3.0078125-41.325195312501819-9.0341796875-60.091796875001819-17.609130859380457Z" fill="none" stroke="#181818" stroke-linecap="round" stroke-linejoin="round" stroke-width="15"/>
          </a>
          <a xlink:href="https://www.notion.so/dmmnotes/psychopathy-0fe4a3222d9f4fd097ab4546c9776768?pvs=4">
            <path id="AC" d="M300.000000000001819,520c-10.634765625,0-21.076171875-.794921875-31.30810546875-2.25048828125l-7.825683593739086,54.4306640625c12.788574218739086,1.823486328128638,25.843017578119543,2.81982421875,39.133789062489086,2.81982421875,13.290771484371362,0,26.345214843760914-.996337890621362,39.1337890625-2.81982421875l-7.825683593739086-54.4306640625c-10.229248046889552,1.45556640625-20.673339843760914,2.25048828125-31.308105468760914,2.25048828125Z" fill="none" stroke="#181818" stroke-linecap="round" stroke-linejoin="round" stroke-width="15"/>
          </a>
          <a xlink:href="https://www.notion.so/dmmnotes/complaining-acceptance-8b40401a720c493ba73f7cde1567cf3d?pvs=4">
            <g id="B5">
              <path d="M444.066406250012733,134.7431640625c-.240234375,0-.47265625-.08642578125-.6552734375-.24462890625-15.81640625-13.712890625-33.455078125-25.060546875-52.4248046875-33.7265625-.501953125-.2294921875-.72265625-.82275390625-.4931640625-1.3251953125l22.8330078125-49.99951171875c.109375-.2412109375.3115234375-.4287109375.5595703125-.521484375.11328125-.0419921875.2314453125-.06298828125.349609375-.06298828125.142578125,0,.2841796875.0302734375.416015625.0908203125,23.8994140625,10.931640625,46.119140625,25.236328125,66.04296875,42.515625.4169921875.36181640625.4619140625.9931640625.1005859375,1.41015625l-35.97265625,41.5185546875c-.173828125.20068359375-.419921875.32373046875-.6845703125.3427734375-.0234375.00146484375-.0478515625.00244140625-.0712890625.00244140625Z" fill="none" stroke="#181818" stroke-linecap="round" stroke-linejoin="round" stroke-width="15"/>
              <path d="M414.234863281262733,49.86279296875c23.990234375,10.97314453125,46.11669921875,25.287109375,65.80419921875,42.36181640625l-35.97314453125,41.5185546875c-15.75341796875-13.65869140625-33.458984375-25.107177734371362-52.66357421875-33.880859375l22.83251953125-49.99951171875M414.234863281262733,47.86279296875c-.236328125,0-.47265625.041839599609375-.6982421875.125915527338293-.49755859375.185272216800513-.900390625.560607910161707-1.12109375,1.043304443361194l-22.83251953125,49.99951171875c-.45849609375,1.004638671878638-.01611328125,2.190979003909888.98828125,2.649932861329944,18.88330078125,8.626800537109375,36.4404296875,19.922332763670056,52.1845703125,33.572814941409888.36474609375.316284179689319.830078125.488891601560681,1.31005859375.488891601560681.04736328125,0,.0947265625-.001678466800513.142578125-.005096435550513.52880859375-.037750244140625,1.021484375-.284271240230737,1.369140625-.685241699209655l35.97314453125-41.5185546875c.72314453125-.834503173829944.6328125-2.097106933601026-.201171875-2.820587158210401-19.99609375-17.342346191400793-42.296875-31.698516845701306-66.28271484375-42.669647216789599-.263671875-.12057495118097-.5478515625-.181243896489832-.83203125-.181243896489832h0Z" fill="none" stroke="#181818" stroke-linecap="round" stroke-linejoin="round" stroke-width="15"/>
            </g>
          </a>
          <a xlink:href="https://www.notion.so/dmmnotes/sentimental-bc554363322342b1b7ca4ccc02125049?pvs=4">
            <g id="B4">
              <path d="M391.402343750012733,100.8623046875c-.1416015625,0-.2841796875-.0302734375-.416015625-.09033203125-19.0244140625-8.693359375-39.150390625-14.5908203125-59.818359375-17.52880859375-.2626953125-.03759765625-.5-.177734375-.6591796875-.39013671875s-.2275390625-.4794921875-.1904296875-.7421875l7.8251953125-54.43310546875c.072265625-.49853515625.5-.85791015625.9892578125-.85791015625.046875,0,.09375.00341796875.1416015625.009765625,26.0400390625,3.7109375,51.400390625,11.154296875,75.376953125,22.1240234375.501953125.2294921875.72265625.822265625.4931640625,1.32470703125l-22.8330078125,49.99951171875c-.109375.2412109375-.3115234375.4287109375-.5595703125.521484375-.11328125.0419921875-.2314453125.06298828125-.349609375.06298828125Z" fill="none" stroke="#181818" stroke-linecap="round" stroke-linejoin="round" stroke-width="15"/>
              <path d="M339.133789062512733,27.81982421875c26.439208984380457,3.767822265628638,51.64599609375,11.3115234375,75.10107421875,22.04296875l-22.83251953125,49.99951171875c-18.766357421869543-8.574951171871362-38.934814453119543-14.601318359371362-60.09423828125-17.609130859371362l7.82568359375-54.433349609378638M339.131347656262733,25.819549560548694c-.978759765619543,0-1.833984375.718902587890625-1.977294921869543,1.715667724611194l-7.82568359375,54.433349609369543c-.075439453130457.525573730470569.06103515625,1.059631347659888.379638671869543,1.484466552739832.318603515630457.4248046875.79296875.705505371090112,1.318603515630457.780242919920056,20.572998046869543,2.924468994138806,40.606689453119543,8.794860839840112,59.544677734369543,17.448120117189319.26318359375.120361328121362.546875.180908203121362.8310546875.180908203121362.236328125,0,.47314453125-.041870117191138.69873046875-.126037597661707.4970703125-.185333251949487.900390625-.56057739256903,1.12060546875-1.043182373039599l22.83251953125-49.99951171875c.45849609375-1.004241943359375.0166015625-2.190124511720569-.9873046875-2.649475097659888-24.0615234375-11.008941650388806-49.51416015625-18.479553222648974-75.65087890625-22.204284667970569-.095703125-.013610839840112-.19091796875-.020263671869543-.28466796875-.020263671869543h0Z" fill="none" stroke="#181818" stroke-linecap="round" stroke-linejoin="round" stroke-width="15"/>
            </g>
          </a>
          <a xlink:href="https://www.notion.so/dmmnotes/comfortably-balanced-e76dc615a8b947aa915377cd02fcf716?pvs=4">
            <g id="B3">
              <path d="M268.690429687512733,83.2529296875c-.4892578125,0-.9169921875-.359375-.9892578125-.85791015625l-7.8251953125-54.43310546875c-.037109375-.2626953125.03125-.529296875.1904296875-.74169921875s.3955078125-.35302734375.658203125-.39013671875c13.1669921875-1.8779296875,26.380859375-2.830078125,39.275390625-2.830078125s26.1083984375.9521484375,39.275390625,2.830078125c.2626953125.037109375.4990234375.177734375.658203125.39013671875s.2275390625.47900390625.1904296875.74169921875l-7.8251953125,54.43310546875c-.072265625.49853515625-.5.85791015625-.9892578125.85791015625-.046875,0-.09375-.00341796875-.1416015625-.009765625-10.4599609375-1.48828125-20.9462890625-2.2431640625-31.16796875-2.2431640625-10.21875,0-20.705078125.7548828125-31.16796875,2.2431640625-.0478515625.0068359375-.0947265625.009765625-.1416015625.009765625Z" fill="none" stroke="#181818" stroke-linecap="round" stroke-linejoin="round" stroke-width="15"/>
              <path d="M300.000000000012733,25c13.290771484380457,0,26.34521484375.996337890628638,39.1337890625,2.81982421875l-7.82568359375,54.433349609378638c-10.229248046869543-1.45556640625-20.67333984375-2.253173828128638-31.30810546875-2.253173828128638s-21.076171875.797607421878638-31.30810546875,2.253173828128638l-7.82568359375-54.433349609378638c12.78857421875-1.823486328121362,25.843017578130457-2.81982421875,39.1337890625-2.81982421875M300.000000000012733,23c-12.93896484375,0-26.200439453119543.955474853519263-39.416015625,2.83984375-.525634765619543.074951171878638-.999755859369543.355712890628638-1.318115234369543.780487060548694s-.454833984380457.958679199220569-.37939453125,1.484100341789599l7.82568359375,54.433349609380457c.143310546869543.996643066409888.99853515625,1.71563720703125,1.977294921869543,1.71563720703125.09375,0,.1884765625-.006591796871362.2841796875-.020172119140625,10.416748046880457-1.481872558590112,20.85546875-2.233245849609375,31.0263671875-2.233245849609375,10.173583984380457,0,20.6123046875.751373291019263,31.0263671875,2.233215332029431.095458984380457.013610839849207.1904296875.020202636720569.2841796875.020202636720569.978759765630457,0,1.833984375-.718902587890625,1.977294921880457-1.71563720703125l7.82568359375-54.433349609380457c.075439453119543-.52542114256903-.06103515625-1.059326171869543-.37939453125-1.484100341789599s-.79248046875-.705535888670056-1.318115234380457-.780487060548694c-13.215576171869543-1.884368896480737-26.47705078125-2.83984375-39.416015625-2.83984375h0Z" fill="none" stroke="#181818" stroke-linecap="round" stroke-linejoin="round" stroke-width="15"/>
            </g>
          </a>
          <a xlink:href="https://www.notion.so/dmmnotes/accepting-317d81273fff4cd9817cdf4a88efd378?pvs=4">
            <g id="B2">
              <path d="M208.599609375010004,100.8623046875c-.1181640625,0-.236328125-.02099609375-.349609375-.06298828125-.248046875-.0927734375-.4501953125-.2802734375-.5595703125-.521484375l-22.83203125-49.99951171875c-.2294921875-.50244140625-.0087890625-1.09521484375.4931640625-1.32470703125,23.9755859375-10.9697265625,49.3349609375-18.41357421875,75.374023437502728-22.1240234375.0478515625-.00634765625.0947265625-.009765625.1416015625-.009765625.4892578125,0,.9169921875.359375.9892578125.85791015625l7.8251953125,54.43310546875c.037109375.2626953125-.03125.52978515625-.1904296875.7421875s-.396484375.3525390625-.6591796875.39013671875c-20.6669921875,2.93798828125-40.791992187502728,8.83544921875-59.816406250002728,17.52880859375-.1318359375.06005859375-.2744140625.09033203125-.416015625.09033203125Z" fill="none" stroke="#181818" stroke-linecap="round" stroke-linejoin="round" stroke-width="15"/>
              <path d="M260.866210937512733,27.81982421875l7.82568359375,54.433349609378638c-21.15673828125,3.0078125-41.325195312502728,9.0341796875-60.091796875002728,17.609130859371362l-22.83251953125-49.99951171875c23.45556640625-10.7314453125,48.659423828129547-18.275146484371362,75.098632812502728-22.04296875M260.868652343762733,25.819549560548694c-.093994140619543,0-.18896484375.006622314451306-.28466796875.020263671869543-26.133544921873181,3.724304199220569-51.585449218752728,11.194885253909888-75.648437500002728,22.204284667970569-1.00390625.459320068361194-1.44580078125,1.645233154300513-.9873046875,2.649475097659888l22.83251953125,49.99951171875c.220458984379547.482574462890625.62353515625.857849121090112,1.12060546875,1.043182373039599.2255859375.084167480470569.46240234375.126037597661707.69873046875.126037597661707.2841796875,0,.567626953129547-.060516357421875.831298828129547-.180908203121362,18.9375-8.653106689460401,38.970458984373181-14.523529052739832,59.541992187503638-17.448120117189319.525634765619543-.074737548829944,1-.35546875,1.318603515619543-.7802734375.318603515630457-.4248046875.455078125-.958862304689319.379638671880457-1.484436035159888l-7.82568359375-54.433349609369543c-.143310546880457-.996704101571595-.99853515625-1.715667724611194-1.977294921880457-1.715667724611194h0Z" fill="none" stroke="#181818" stroke-linecap="round" stroke-linejoin="round" stroke-width="15"/>
            </g>
          </a>
          <a xlink:href="https://www.notion.so/dmmnotes/distanced-from-past-2eabab7e9c77429f8e577f4e3e203653?pvs=4">
            <g id="B1">
              <path d="M155.865234375010004,134.73779296875c-.2646484375-.01904296875-.5107421875-.14208984375-.6845703125-.3427734375l-35.97265625-41.515625c-.361328125-.4169921875-.31640625-1.04833984375.1005859375-1.41015625,19.927734375-17.283203125,42.1474609375-31.58740234375,66.04296875-42.515625.1318359375-.060546875.2734375-.0908203125.416015625-.0908203125.1181640625,0,.236328125.02099609375.349609375.06298828125.248046875.0927734375.4501953125.2802734375.5595703125.521484375l22.83203125,49.99951171875c.2294921875.50244140625.0087890625,1.095703125-.4931640625,1.3251953125-18.978515625,8.67138671875-36.6162109375,20.01806640625-52.423828125,33.7236328125-.1826171875.158203125-.4150390625.24462890625-.6552734375.24462890625-.0234375,0-.0478515625-.0009765625-.0712890625-.00244140625Z" fill="none" stroke="#181818" stroke-linecap="round" stroke-linejoin="round" stroke-width="15"/>
              <path d="M185.767578125010004,49.86279296875l22.83251953125,49.99951171875c-19.20166015625,8.773681640628638-36.91015625,20.219482421878638-52.66357421875,33.878173828128638l-35.972900390620453-41.515869140628638c19.687744140620453-17.07470703125,41.811279296870453-31.388671875,65.803955078120453-42.36181640625M185.767578125010004,47.86279296875c-.284423828120453,0-.568359375.060638427739832-.831787109370453.181182861328125-23.982421875,10.968383789060681-46.282958984379547,25.324554443361194-66.282470703129547,42.669708251951306-.834228515620453.723480224609375-.92431640625,1.986114501960401-.201171875,2.820617675779431l35.972900390629547,41.515869140630457c.347412109370453.400970458978918.83984375.6474609375,1.369140625.685241699220569.047607421870453.003387451168237.094970703120453.00506591796875.142333984370453.00506591796875.479736328129547,0,.9453125-.172576904300513,1.310302734379547-.488891601569776,15.736328125-13.643890380859375,33.293701171870453-24.938537597648974,52.1845703125-33.570190429680224,1.00439453125-.458984375,1.44677734375-1.645263671878638.988037109370453-2.649871826179151l-22.83251953125-49.99951171875c-.220458984370453-.482696533199487-.623779296870453-.858001708980737-1.120849609370453-1.043304443361194-.2255859375-.084075927728918-.462158203129547-.125915527338293-.698486328129547-.125915527338293h0Z" fill="none" stroke="#181818" stroke-linecap="round" stroke-linejoin="round" stroke-width="15"/>
            </g>
          </a>
        </g>
        <g>
          <a xlink:href="https://www.notion.so/dmmnotes/paranoid-ae38b1e6af0c4dd08f61e0d8f6e9f05f?pvs=4">
            <path id="C8-2" data-name="C8" d="M331.308105468762733,517.74951171875l7.825683593739086,54.4306640625c26.439208984371362-3.767822265630457,51.645751953139552-11.3115234375,75.101318359371362-22.04296875l-22.832519531239086-49.996826171880457c-18.766601562501819,8.572265625-38.935058593751819,14.601318359380457-60.094482421871362,17.609130859380457Z" fill="#8f807d" stroke="#181818" stroke-linecap="round" stroke-linejoin="round" stroke-width="2"/>
          </a>
          <a xlink:href="https://www.notion.so/dmmnotes/menacing-a5bd7149286344deba45ec15e759e579?pvs=4">
            <path id="C7-2" data-name="C7" d="M391.402587890634095,500.140380859369543l22.832519531239086,49.996826171880457c23.989990234389552-10.975830078121362,46.11621093751819-25.287109375010914,65.803955078139552-42.36181640625l-35.972900390628638-41.515869140621362c-15.753417968760914,13.65869140625-33.459228515632276,25.104492187490905-52.66357421875,33.880859374990905Z" fill="#8f807d" stroke="#181818" stroke-linecap="round" stroke-linejoin="round" stroke-width="2"/>
          </a>
          <a xlink:href="https://www.notion.so/dmmnotes/seductively-obsessed-with-rescue-6fb5a68f6d334bc29ccccc16d8a4e56e?pvs=4">
            <path id="C6-2" data-name="C6" d="M444.066162109384095,466.259521484378638l35.972900390628638,41.515869140621362c19.762939453121362-17.141845703130457,37.047119140621362-37.041748046880457,51.26708984375-59.125l-46.223632812510914-29.704833984371362c-11.373291015617724,17.673583984371362-25.201171874989086,33.598876953121362-41.016357421867724,47.31396484375Z" fill="#8f807d" stroke="#181818" stroke-linecap="round" stroke-linejoin="round" stroke-width="2"/>
          </a>
          <a xlink:href="https://www.notion.so/dmmnotes/punitively-obsessed-with-revenge-33d2e77f37774316b42bccf4a60f9688?pvs=4">
            <path id="C5-2" data-name="C5" d="M485.082519531251819,418.945556640628638l46.223632812510914,29.704833984371362c14.048095703128638-21.809326171880457,25.08837890625-45.71875,32.551513671871362-71.175048828130457l-52.7548828125-15.490234375c-5.9619140625,20.377929687509095-14.789306640621362,39.509765625-26.020263671882276,56.960449218759095Z" fill="#8f807d" stroke="#181818" stroke-linecap="round" stroke-linejoin="round" stroke-width="2"/>
          </a>
          <a xlink:href="https://www.notion.so/dmmnotes/feigned-helpless-e79a94b0498c4e109a681b7f3dcdb088?pvs=4">
            <path id="C4-2" data-name="C4" d="M520.000000000001819,300c0,21.5380859375-3.142089843739086,42.321533203119543-8.897216796867724,61.985107421869543l52.7548828125,15.490234375c7.2080078125-24.583496093740905,11.142333984367724-50.5634765625,11.142333984367724-77.475341796869543h-55Z" fill="#8f807d" stroke="#181818" stroke-linecap="round" stroke-linejoin="round" stroke-width="2"/>
          </a>
          <a xlink:href="https://www.notion.so/dmmnotes/aggressive-2d8ccce383534b9dbfc7b4b10b8a5d5c?pvs=4">
            <path id="C3-2" data-name="C3" d="M520.000000000001819,300h55c0-26.911865234391371-3.934326171867724-52.894531250010914-11.142333984367724-77.475341796891371l-52.7548828125,15.490234375c5.755126953128638,19.663574218760914,8.897216796867724,40.449707031260914,8.897216796867724,61.985107421891371Z" fill="#8f807d" stroke="#181818" stroke-linecap="round" stroke-linejoin="round" stroke-width="2"/>
          </a>
          <a xlink:href="https://www.notion.so/dmmnotes/disarming-086276e599884c86b9359acf831a8b20?pvs=4">
            <path id="C2-2" data-name="C2" d="M511.102783203134095,238.014892578108629l52.7548828125-15.490234375c-7.463134765621362-25.456298828119543-18.503417968742724-49.365722656239086-32.551513671871362-71.177734374989086l-46.223632812510914,29.70751953125c11.230957031260914,17.45068359375,20.055664062510914,36.585205078119543,26.020263671882276,56.960449218739086Z" fill="#8f807d" stroke="#181818" stroke-linecap="round" stroke-linejoin="round" stroke-width="2"/>
          </a>
          <a xlink:href="https://www.notion.so/dmmnotes/threatening-348fe6a52f7a4fe69f768e98c6586932?pvs=4">
            <path id="C1-2" data-name="C1" d="M485.082519531251819,181.054443359369543l46.223632812510914-29.70751953125c-14.219970703128638-22.08056640625-31.504150390628638-41.980468750010914-51.26708984375-59.122314453119543l-35.972900390628638,41.518554687489086c15.815185546878638,13.71240234375,29.64306640625,29.637695312510914,41.016357421867724,47.311279296880457Z" fill="#8f807d" stroke="#181818" stroke-linecap="round" stroke-linejoin="round" stroke-width="2"/>
          </a>
          <a xlink:href="https://www.notion.so/dmmnotes/idealising-a52277f51ed14a42aae78081bb34b8be?pvs=4">
            <path id="A1-2" data-name="A1" d="M155.9365234375,133.740478515619543l-35.972900390619543-41.515869140619543c-19.765625,17.141845703108629-37.049804687510914,37.041748046869543-51.269775390630457,59.122314453119543l46.226318359369543,29.70751953125c11.373291015640461-17.673583984369543,25.201171875010914-33.598876953130457,41.016357421880457-47.31396484375Z" fill="#8f807d" stroke="#181818" stroke-linecap="round" stroke-linejoin="round" stroke-width="2"/>
          </a>
          <a xlink:href="https://www.notion.so/dmmnotes/distancing-9ac690cdca654729a17a5a255944e2d1?pvs=4">
            <path id="A2-2" data-name="A2" d="M114.920166015619543,181.054443359369543l-46.226318359369543-29.70751953125c-14.04541015625,21.81201171875-25.08837890625,45.721435546869543-32.551513671880457,71.177734374989086l52.754882812510914,15.490234375c5.964599609369543-20.375244140619543,14.7919921875-39.509765624989086,26.022949218739086-56.960449218739086Z" fill="#8f807d" stroke="#181818" stroke-linecap="round" stroke-linejoin="round" stroke-width="2"/>
          </a>
          <a xlink:href="https://www.notion.so/dmmnotes/compulsive-caregiving-9c380c0928294f41ae10764aa0dee886?pvs=4">
            <path id="A3-2" data-name="A3" d="M88.897216796880457,238.014892578108629l-52.754882812510914-15.490234375c-7.205322265619543,24.580810546880457-11.142333984369543,50.5634765625-11.142333984369543,77.475341796891371h55c0-21.535400390630457,3.14208984375-42.321533203130457,8.897216796880457-61.985107421891371Z" fill="#8f807d" stroke="#181818" stroke-linecap="round" stroke-linejoin="round" stroke-width="2"/>
          </a>
          <a xlink:href="https://www.notion.so/dmmnotes/compulsive-compliance-6d08b7ea9a424ce1a72b9184b7850414?pvs=4">
            <path id="A4-2" data-name="A4" d="M80,300H25c0,26.911865234369543,3.93701171875,52.894531249989086,11.142333984369543,77.475341796869543l52.754882812510914-15.490234375c-5.755126953130457-19.66357421875-8.897216796880457-40.447021484369543-8.897216796880457-61.985107421869543Z" fill="#8f807d" stroke="#181818" stroke-linecap="round" stroke-linejoin="round" stroke-width="2"/>
          </a>
          <a xlink:href="https://www.notion.so/dmmnotes/sexual-supplementation-8e85f49046ef412aa229745abf7d38d3?pvs=4">
            <path id="A5-2" data-name="A5" d="M88.897216796880457,361.985107421869543l-52.754882812510914,15.490234375c7.463134765630457,25.456298828130457,18.506103515630457,49.36572265625,32.551513671880457,71.175048828130457l46.223632812510004-29.704833984371362c-11.230957031260004-17.450683593759095-20.055664062510004-36.58251953125-26.020263671879547-56.960449218759095Z" fill="#8f807d" stroke="#181818" stroke-linecap="round" stroke-linejoin="round" stroke-width="2"/>
          </a>
          <a xlink:href="https://www.notion.so/dmmnotes/compulsive-isolated-self-reliance-b321873a73fa41aaaadd7192fde856a2?pvs=4">
            <path id="A6-2" data-name="A6" d="M114.917480468760004,418.945556640628638l-46.223632812510004,29.704833984371362c14.219970703119543,22.083251953119543,31.504150390630457,41.983154296869543,51.269775390630457,59.125l35.972900390619543-41.515869140621362c-15.815185546869543-13.712402343759095-29.643066406239996-29.637695312509095-41.019042968739996-47.31396484375Z" fill="#8f807d" stroke="#181818" stroke-linecap="round" stroke-linejoin="round" stroke-width="2"/>
          </a>
          <a xlink:href="https://www.notion.so/dmmnotes/delusional-idealization-743e2420b9994a48a7cab68190432e8a?pvs=4">
            <path id="A7-2" data-name="A7" d="M155.9365234375,466.259521484378638l-35.972900390619543,41.515869140621362c19.687744140619543,17.074707031239086,41.811279296869543,31.385986328128638,65.803955078119543,42.36181640625l22.83251953125-49.996826171880457c-19.20166015625-8.773681640619543-36.91015625-20.222167968740905-52.66357421875-33.880859374990905Z" fill="#8f807d" stroke="#181818" stroke-linecap="round" stroke-linejoin="round" stroke-width="2"/>
          </a>
          <a xlink:href="https://www.notion.so/dmmnotes/externally-assembled-self-994ecb0895b844409b931d74a045c162?pvs=4">
            <path id="A8-2" data-name="A8" d="M208.60009765625,500.140380859369543l-22.83251953125,49.996826171880457c23.45556640625,10.7314453125,48.659423828119543,18.275146484369543,75.098632812512733,22.04296875l7.825683593739086-54.4306640625c-21.15673828125-3.0078125-41.325195312501819-9.0341796875-60.091796875001819-17.609130859380457Z" fill="#8f807d" stroke="#181818" stroke-linecap="round" stroke-linejoin="round" stroke-width="2"/>
          </a>
          <a xlink:href="https://www.notion.so/dmmnotes/psychopathy-0fe4a3222d9f4fd097ab4546c9776768?pvs=4">
            <path id="AC-2" data-name="AC" d="M300.000000000001819,520c-10.634765625,0-21.076171875-.794921875-31.30810546875-2.25048828125l-7.825683593739086,54.4306640625c12.788574218739086,1.823486328128638,25.843017578119543,2.81982421875,39.133789062489086,2.81982421875,13.290771484371362,0,26.345214843760914-.996337890621362,39.1337890625-2.81982421875l-7.825683593739086-54.4306640625c-10.229248046889552,1.45556640625-20.673339843760914,2.25048828125-31.308105468760914,2.25048828125Z" fill="#8f807d" stroke="#181818" stroke-linecap="round" stroke-linejoin="round" stroke-width="2"/>
          </a>
          <a xlink:href="https://www.notion.so/dmmnotes/complaining-acceptance-8b40401a720c493ba73f7cde1567cf3d?pvs=4">
            <g id="B5-2" data-name="B5">
              <path d="M444.066406250012733,134.7431640625c-.240234375,0-.47265625-.08642578125-.6552734375-.24462890625-15.81640625-13.712890625-33.455078125-25.060546875-52.4248046875-33.7265625-.501953125-.2294921875-.72265625-.82275390625-.4931640625-1.3251953125l22.8330078125-49.99951171875c.109375-.2412109375.3115234375-.4287109375.5595703125-.521484375.11328125-.0419921875.2314453125-.06298828125.349609375-.06298828125.142578125,0,.2841796875.0302734375.416015625.0908203125,23.8994140625,10.931640625,46.119140625,25.236328125,66.04296875,42.515625.4169921875.36181640625.4619140625.9931640625.1005859375,1.41015625l-35.97265625,41.5185546875c-.173828125.20068359375-.419921875.32373046875-.6845703125.3427734375-.0234375.00146484375-.0478515625.00244140625-.0712890625.00244140625Z" fill="#3d9174" stroke-width="0"/>
              <path d="M414.234863281262733,49.86279296875c23.990234375,10.97314453125,46.11669921875,25.287109375,65.80419921875,42.36181640625l-35.97314453125,41.5185546875c-15.75341796875-13.65869140625-33.458984375-25.107177734371362-52.66357421875-33.880859375l22.83251953125-49.99951171875M414.234863281262733,47.86279296875c-.236328125,0-.47265625.041839599609375-.6982421875.125915527338293-.49755859375.185272216800513-.900390625.560607910161707-1.12109375,1.043304443361194l-22.83251953125,49.99951171875c-.45849609375,1.004638671878638-.01611328125,2.190979003909888.98828125,2.649932861329944,18.88330078125,8.626800537109375,36.4404296875,19.922332763670056,52.1845703125,33.572814941409888.36474609375.316284179689319.830078125.488891601560681,1.31005859375.488891601560681.04736328125,0,.0947265625-.001678466800513.142578125-.005096435550513.52880859375-.037750244140625,1.021484375-.284271240230737,1.369140625-.685241699209655l35.97314453125-41.5185546875c.72314453125-.834503173829944.6328125-2.097106933601026-.201171875-2.820587158210401-19.99609375-17.342346191400793-42.296875-31.698516845701306-66.28271484375-42.669647216789599-.263671875-.12057495118097-.5478515625-.181243896489832-.83203125-.181243896489832h0Z" fill="#181818" stroke-width="0"/>
            </g>
          </a>
          <a xlink:href="https://www.notion.so/dmmnotes/sentimental-bc554363322342b1b7ca4ccc02125049?pvs=4">
            <g id="B4-2" data-name="B4">
              <path d="M391.402343750012733,100.8623046875c-.1416015625,0-.2841796875-.0302734375-.416015625-.09033203125-19.0244140625-8.693359375-39.150390625-14.5908203125-59.818359375-17.52880859375-.2626953125-.03759765625-.5-.177734375-.6591796875-.39013671875s-.2275390625-.4794921875-.1904296875-.7421875l7.8251953125-54.43310546875c.072265625-.49853515625.5-.85791015625.9892578125-.85791015625.046875,0,.09375.00341796875.1416015625.009765625,26.0400390625,3.7109375,51.400390625,11.154296875,75.376953125,22.1240234375.501953125.2294921875.72265625.822265625.4931640625,1.32470703125l-22.8330078125,49.99951171875c-.109375.2412109375-.3115234375.4287109375-.5595703125.521484375-.11328125.0419921875-.2314453125.06298828125-.349609375.06298828125Z" fill="#2c8d7e" stroke-width="0"/>
              <path d="M339.133789062512733,27.81982421875c26.439208984380457,3.767822265628638,51.64599609375,11.3115234375,75.10107421875,22.04296875l-22.83251953125,49.99951171875c-18.766357421869543-8.574951171871362-38.934814453119543-14.601318359371362-60.09423828125-17.609130859371362l7.82568359375-54.433349609378638M339.131347656262733,25.819549560548694c-.978759765619543,0-1.833984375.718902587890625-1.977294921869543,1.715667724611194l-7.82568359375,54.433349609369543c-.075439453130457.525573730470569.06103515625,1.059631347659888.379638671869543,1.484466552739832.318603515630457.4248046875.79296875.705505371090112,1.318603515630457.780242919920056,20.572998046869543,2.924468994138806,40.606689453119543,8.794860839840112,59.544677734369543,17.448120117189319.26318359375.120361328121362.546875.180908203121362.8310546875.180908203121362.236328125,0,.47314453125-.041870117191138.69873046875-.126037597661707.4970703125-.185333251949487.900390625-.56057739256903,1.12060546875-1.043182373039599l22.83251953125-49.99951171875c.45849609375-1.004241943359375.0166015625-2.190124511720569-.9873046875-2.649475097659888-24.0615234375-11.008941650388806-49.51416015625-18.479553222648974-75.65087890625-22.204284667970569-.095703125-.013610839840112-.19091796875-.020263671869543-.28466796875-.020263671869543h0Z" fill="#181818" stroke-width="0"/>
            </g>
          </a>
          <a xlink:href="https://www.notion.so/dmmnotes/comfortably-balanced-e76dc615a8b947aa915377cd02fcf716?pvs=4">
            <g id="B3-2" data-name="B3">
              <path d="M268.690429687512733,83.2529296875c-.4892578125,0-.9169921875-.359375-.9892578125-.85791015625l-7.8251953125-54.43310546875c-.037109375-.2626953125.03125-.529296875.1904296875-.74169921875s.3955078125-.35302734375.658203125-.39013671875c13.1669921875-1.8779296875,26.380859375-2.830078125,39.275390625-2.830078125s26.1083984375.9521484375,39.275390625,2.830078125c.2626953125.037109375.4990234375.177734375.658203125.39013671875s.2275390625.47900390625.1904296875.74169921875l-7.8251953125,54.43310546875c-.072265625.49853515625-.5.85791015625-.9892578125.85791015625-.046875,0-.09375-.00341796875-.1416015625-.009765625-10.4599609375-1.48828125-20.9462890625-2.2431640625-31.16796875-2.2431640625-10.21875,0-20.705078125.7548828125-31.16796875,2.2431640625-.0478515625.0068359375-.0947265625.009765625-.1416015625.009765625Z" fill="#268887" stroke-width="0"/>
              <path d="M300.000000000012733,25c13.290771484380457,0,26.34521484375.996337890628638,39.1337890625,2.81982421875l-7.82568359375,54.433349609378638c-10.229248046869543-1.45556640625-20.67333984375-2.253173828128638-31.30810546875-2.253173828128638s-21.076171875.797607421878638-31.30810546875,2.253173828128638l-7.82568359375-54.433349609378638c12.78857421875-1.823486328121362,25.843017578130457-2.81982421875,39.1337890625-2.81982421875M300.000000000012733,23c-12.93896484375,0-26.200439453119543.955474853519263-39.416015625,2.83984375-.525634765619543.074951171878638-.999755859369543.355712890628638-1.318115234369543.780487060548694s-.454833984380457.958679199220569-.37939453125,1.484100341789599l7.82568359375,54.433349609380457c.143310546869543.996643066409888.99853515625,1.71563720703125,1.977294921869543,1.71563720703125.09375,0,.1884765625-.006591796871362.2841796875-.020172119140625,10.416748046880457-1.481872558590112,20.85546875-2.233245849609375,31.0263671875-2.233245849609375,10.173583984380457,0,20.6123046875.751373291019263,31.0263671875,2.233215332029431.095458984380457.013610839849207.1904296875.020202636720569.2841796875.020202636720569.978759765630457,0,1.833984375-.718902587890625,1.977294921880457-1.71563720703125l7.82568359375-54.433349609380457c.075439453119543-.52542114256903-.06103515625-1.059326171869543-.37939453125-1.484100341789599s-.79248046875-.705535888670056-1.318115234380457-.780487060548694c-13.215576171869543-1.884368896480737-26.47705078125-2.83984375-39.416015625-2.83984375h0Z" fill="#181818" stroke-width="0"/>
            </g>
          </a>
          <a xlink:href="https://www.notion.so/dmmnotes/accepting-317d81273fff4cd9817cdf4a88efd378?pvs=4">
            <g id="B2-2" data-name="B2">
              <path d="M208.599609375010004,100.8623046875c-.1181640625,0-.236328125-.02099609375-.349609375-.06298828125-.248046875-.0927734375-.4501953125-.2802734375-.5595703125-.521484375l-22.83203125-49.99951171875c-.2294921875-.50244140625-.0087890625-1.09521484375.4931640625-1.32470703125,23.9755859375-10.9697265625,49.3349609375-18.41357421875,75.374023437502728-22.1240234375.0478515625-.00634765625.0947265625-.009765625.1416015625-.009765625.4892578125,0,.9169921875.359375.9892578125.85791015625l7.8251953125,54.43310546875c.037109375.2626953125-.03125.52978515625-.1904296875.7421875s-.396484375.3525390625-.6591796875.39013671875c-20.6669921875,2.93798828125-40.791992187502728,8.83544921875-59.816406250002728,17.52880859375-.1318359375.06005859375-.2744140625.09033203125-.416015625.09033203125Z" fill="#2e8390" stroke-width="0"/>
              <path d="M260.866210937512733,27.81982421875l7.82568359375,54.433349609378638c-21.15673828125,3.0078125-41.325195312502728,9.0341796875-60.091796875002728,17.609130859371362l-22.83251953125-49.99951171875c23.45556640625-10.7314453125,48.659423828129547-18.275146484371362,75.098632812502728-22.04296875M260.868652343762733,25.819549560548694c-.093994140619543,0-.18896484375.006622314451306-.28466796875.020263671869543-26.133544921873181,3.724304199220569-51.585449218752728,11.194885253909888-75.648437500002728,22.204284667970569-1.00390625.459320068361194-1.44580078125,1.645233154300513-.9873046875,2.649475097659888l22.83251953125,49.99951171875c.220458984379547.482574462890625.62353515625.857849121090112,1.12060546875,1.043182373039599.2255859375.084167480470569.46240234375.126037597661707.69873046875.126037597661707.2841796875,0,.567626953129547-.060516357421875.831298828129547-.180908203121362,18.9375-8.653106689460401,38.970458984373181-14.523529052739832,59.541992187503638-17.448120117189319.525634765619543-.074737548829944,1-.35546875,1.318603515619543-.7802734375.318603515630457-.4248046875.455078125-.958862304689319.379638671880457-1.484436035159888l-7.82568359375-54.433349609369543c-.143310546880457-.996704101571595-.99853515625-1.715667724611194-1.977294921880457-1.715667724611194h0Z" fill="#181818" stroke-width="0"/>
            </g>
          </a>
          <a xlink:href="https://www.notion.so/dmmnotes/distanced-from-past-2eabab7e9c77429f8e577f4e3e203653?pvs=4">
            <g id="B1-2" data-name="B1">
              <path d="M155.865234375010004,134.73779296875c-.2646484375-.01904296875-.5107421875-.14208984375-.6845703125-.3427734375l-35.97265625-41.515625c-.361328125-.4169921875-.31640625-1.04833984375.1005859375-1.41015625,19.927734375-17.283203125,42.1474609375-31.58740234375,66.04296875-42.515625.1318359375-.060546875.2734375-.0908203125.416015625-.0908203125.1181640625,0,.236328125.02099609375.349609375.06298828125.248046875.0927734375.4501953125.2802734375.5595703125.521484375l22.83203125,49.99951171875c.2294921875.50244140625.0087890625,1.095703125-.4931640625,1.3251953125-18.978515625,8.67138671875-36.6162109375,20.01806640625-52.423828125,33.7236328125-.1826171875.158203125-.4150390625.24462890625-.6552734375.24462890625-.0234375,0-.0478515625-.0009765625-.0712890625-.00244140625Z" fill="#477e96" stroke-width="0"/>
              <path d="M185.767578125010004,49.86279296875l22.83251953125,49.99951171875c-19.20166015625,8.773681640628638-36.91015625,20.219482421878638-52.66357421875,33.878173828128638l-35.972900390620453-41.515869140628638c19.687744140620453-17.07470703125,41.811279296870453-31.388671875,65.803955078120453-42.36181640625M185.767578125010004,47.86279296875c-.284423828120453,0-.568359375.060638427739832-.831787109370453.181182861328125-23.982421875,10.968383789060681-46.282958984379547,25.324554443361194-66.282470703129547,42.669708251951306-.834228515620453.723480224609375-.92431640625,1.986114501960401-.201171875,2.820617675779431l35.972900390629547,41.515869140630457c.347412109370453.400970458978918.83984375.6474609375,1.369140625.685241699220569.047607421870453.003387451168237.094970703120453.00506591796875.142333984370453.00506591796875.479736328129547,0,.9453125-.172576904300513,1.310302734379547-.488891601569776,15.736328125-13.643890380859375,33.293701171870453-24.938537597648974,52.1845703125-33.570190429680224,1.00439453125-.458984375,1.44677734375-1.645263671878638.988037109370453-2.649871826179151l-22.83251953125-49.99951171875c-.220458984370453-.482696533199487-.623779296870453-.858001708980737-1.120849609370453-1.043304443361194-.2255859375-.084075927728918-.462158203129547-.125915527338293-.698486328129547-.125915527338293h0Z" fill="#181818" stroke-width="0"/>
            </g>
          </a>
        </g>
      </g>
      <a xlink:href="https://www.notion.so/dmmnotes/Type-B-a682dff89e1b420883ef126b542c812f?pvs=4">
        <g id="B">
          <a xlink:href="https://www.notion.so/dmmnotes/Type-B-a682dff89e1b420883ef126b542c812f?pvs=4">
            <g id="B-2" data-name="B">
              <path d="M300.000000000012733,414.7060546875c-36.970703125,0-67.048828125002728-30.078125-67.048828125002728-67.048828125s30.078125000002728-67.048828125,67.048828125002728-67.048828125,67.048828125,30.078125,67.048828125,67.048828125-30.078125,67.048828125-67.048828125,67.048828125Z" fill="url(#B3-3)" stroke-width="0"/>
              <path d="M300.000000000012733,289.108566284179688c32.33544921875,0,58.548828125,26.213165283199487,58.548828125,58.5487213134802,0,32.3355560302698-26.21337890625,58.548721313469287-58.548828125,58.548721313469287s-58.548828125002728-26.213165283199487-58.548828125002728-58.548721313469287c0-32.335556030280713,26.213378906252728-58.5487213134802,58.548828125002728-58.5487213134802M300.000000000012733,272.108566284179688c-41.65771484375,0-75.548828125002728,33.8910064697302-75.548828125002728,75.5487213134802,0,41.657722473139074,33.891113281252728,75.548721313469287,75.548828125002728,75.548721313469287s75.548828125-33.890998840330212,75.548828125-75.548721313469287c0-41.65771484375-33.89111328125-75.5487213134802-75.548828125-75.5487213134802h0Z" fill="#181818" stroke-width="0"/>
            </g>
          </a>
          <a xlink:href="https://www.notion.so/dmmnotes/Type-B-a682dff89e1b420883ef126b542c812f?pvs=4">
            <g>
              <path d="M326.21923828125,266.796874999989086c4.6044921875,3.5595703125,8.03173828125,7.982421875,10.28369140625,13.2666015625,2.24951171875,5.287109375,2.9560546875,10.7548828125,2.119140625,16.40625-.94189453125,6.3857421875-3.45361328125,11.7509765625-7.53564453125,16.0927734375-4.08203125,4.3447265625-8.8974609375,7.771484375-14.4443359375,10.283203125-5.548828125,2.5126953125-11.53955078125,4.1875-17.9765625,5.0244140625-6.4365234375.8369140625-12.4814453125.9423828125-18.13330078125.314453125-.52490234375.2080078125-.99609375.337890625-1.4130859375.392578125-.41943359375.05078125-.89013671875.1298828125-1.4130859375.2353515625-1.8837890625.1025390625-3.82177734375.1025390625-5.80859375,0-1.98974609375-.10546875-3.79541015625-.447265625-5.41650390625-1.0205078125-1.6240234375-.57421875-3.01025390625-1.5166015625-4.16064453125-2.826171875-1.15283203125-1.3076171875-1.83251953125-3.1650390625-2.041015625-5.5732421875-.2109375-1.1513671875-.2626953125-3.478515625-.1572265625-6.9873046875.10302734375-3.5048828125.20849609375-7.771484375.31396484375-12.794921875.208984375-5.126953125.392578125-10.701171875.5498046875-16.720703125.15673828125-6.017578125.287109375-12.0615234375.392578125-18.1337890625.10302734375-7.953125.20849609375-15.9599609375.31396484375-24.0205078125.10302734375-8.05859375-.2109375-16.1708984375-.94189453125-24.3349609375-.21142578125-.9423828125-.10546875-1.7783203125.31396484375-2.51171875.20849609375-.62890625.67919921875-1.2294921875,1.41259765625-1.8056640625.7314453125-.57421875,1.830078125-.966796875,3.29736328125-1.177734375,1.044921875-.103515625,2.19775390625-.259765625,3.45361328125-.470703125,1.25634765625-.208984375,2.56396484375-.3662109375,3.92529296875-.4716796875,1.35888671875-.1025390625,2.6689453125-.1025390625,3.9248046875,0,1.25634765625.10546875,2.35498046875.314453125,3.29736328125.6279296875,5.337890625-.73046875,10.93603515625-.7578125,16.798828125-.078125,5.8603515625.681640625,11.38232421875,2.068359375,16.5634765625,4.16015625,5.18115234375,2.095703125,9.68017578125,4.89453125,13.501953125,8.3994140625,3.8193359375,3.5087890625,6.3583984375,7.771484375,7.61474609375,12.7958984375.5224609375,2.1982421875.83642578125,4.501953125.94189453125,6.908203125.10302734375,2.4091796875-.1572265625,4.8935546875-.78515625,7.45703125-.6279296875,2.56640625-1.6484375,5.2353515625-3.0615234375,8.0068359375-1.4130859375,2.775390625-3.32373046875,5.6279296875-5.73046875,8.556640625ZM285.3994140625,257.534179687489086c5.02392578125.2109375,9.2626953125-.314453125,12.716796875-1.5703125s6.04443359375-2.904296875,7.771484375-4.9453125,2.5634765625-4.263671875,2.51220703125-6.6728515625c-.05419921875-2.40625-.96923828125-4.552734375-2.74755859375-6.4365234375-1.78125-1.8837890625-4.4501953125-3.3212890625-8.0068359375-4.3173828125-3.5595703125-.9931640625-8.06103515625-1.1240234375-13.50244140625-.392578125.31396484375,4.08203125.5498046875,8.1123046875.70654296875,12.0888671875.1572265625,3.9794921875.3388671875,8.0615234375.5498046875,12.24609375ZM285.8701171875,303.064453124989086c5.65234375.6279296875,10.41357421875.3681640625,14.287109375-.78515625,3.87109375-1.150390625,6.775390625-2.720703125,8.71337890625-4.7099609375,1.935546875-1.9873046875,2.92919921875-4.1337890625,2.9833984375-6.4375.05126953125-2.30078125-.86376953125-4.2900390625-2.74755859375-5.9658203125-1.88427734375-1.6728515625-4.76416015625-2.798828125-8.63525390625-3.375-3.87353515625-.57421875-8.740234375-.181640625-14.60107421875,1.1767578125v20.0966796875Z" fill="none" stroke="#181818" stroke-miterlimit="10" stroke-width="33"/>
              <path d="M326.21923828125,266.796874999989086c4.6044921875,3.5595703125,8.03173828125,7.982421875,10.28369140625,13.2666015625,2.24951171875,5.287109375,2.9560546875,10.7548828125,2.119140625,16.40625-.94189453125,6.3857421875-3.45361328125,11.7509765625-7.53564453125,16.0927734375-4.08203125,4.3447265625-8.8974609375,7.771484375-14.4443359375,10.283203125-5.548828125,2.5126953125-11.53955078125,4.1875-17.9765625,5.0244140625-6.4365234375.8369140625-12.4814453125.9423828125-18.13330078125.314453125-.52490234375.2080078125-.99609375.337890625-1.4130859375.392578125-.41943359375.05078125-.89013671875.1298828125-1.4130859375.2353515625-1.8837890625.1025390625-3.82177734375.1025390625-5.80859375,0-1.98974609375-.10546875-3.79541015625-.447265625-5.41650390625-1.0205078125-1.6240234375-.57421875-3.01025390625-1.5166015625-4.16064453125-2.826171875-1.15283203125-1.3076171875-1.83251953125-3.1650390625-2.041015625-5.5732421875-.2109375-1.1513671875-.2626953125-3.478515625-.1572265625-6.9873046875.10302734375-3.5048828125.20849609375-7.771484375.31396484375-12.794921875.208984375-5.126953125.392578125-10.701171875.5498046875-16.720703125.15673828125-6.017578125.287109375-12.0615234375.392578125-18.1337890625.10302734375-7.953125.20849609375-15.9599609375.31396484375-24.0205078125.10302734375-8.05859375-.2109375-16.1708984375-.94189453125-24.3349609375-.21142578125-.9423828125-.10546875-1.7783203125.31396484375-2.51171875.20849609375-.62890625.67919921875-1.2294921875,1.41259765625-1.8056640625.7314453125-.57421875,1.830078125-.966796875,3.29736328125-1.177734375,1.044921875-.103515625,2.19775390625-.259765625,3.45361328125-.470703125,1.25634765625-.208984375,2.56396484375-.3662109375,3.92529296875-.4716796875,1.35888671875-.1025390625,2.6689453125-.1025390625,3.9248046875,0,1.25634765625.10546875,2.35498046875.314453125,3.29736328125.6279296875,5.337890625-.73046875,10.93603515625-.7578125,16.798828125-.078125,5.8603515625.681640625,11.38232421875,2.068359375,16.5634765625,4.16015625,5.18115234375,2.095703125,9.68017578125,4.89453125,13.501953125,8.3994140625,3.8193359375,3.5087890625,6.3583984375,7.771484375,7.61474609375,12.7958984375.5224609375,2.1982421875.83642578125,4.501953125.94189453125,6.908203125.10302734375,2.4091796875-.1572265625,4.8935546875-.78515625,7.45703125-.6279296875,2.56640625-1.6484375,5.2353515625-3.0615234375,8.0068359375-1.4130859375,2.775390625-3.32373046875,5.6279296875-5.73046875,8.556640625ZM285.3994140625,257.534179687489086c5.02392578125.2109375,9.2626953125-.314453125,12.716796875-1.5703125s6.04443359375-2.904296875,7.771484375-4.9453125,2.5634765625-4.263671875,2.51220703125-6.6728515625c-.05419921875-2.40625-.96923828125-4.552734375-2.74755859375-6.4365234375-1.78125-1.8837890625-4.4501953125-3.3212890625-8.0068359375-4.3173828125-3.5595703125-.9931640625-8.06103515625-1.1240234375-13.50244140625-.392578125.31396484375,4.08203125.5498046875,8.1123046875.70654296875,12.0888671875.1572265625,3.9794921875.3388671875,8.0615234375.5498046875,12.24609375ZM285.8701171875,303.064453124989086c5.65234375.6279296875,10.41357421875.3681640625,14.287109375-.78515625,3.87109375-1.150390625,6.775390625-2.720703125,8.71337890625-4.7099609375,1.935546875-1.9873046875,2.92919921875-4.1337890625,2.9833984375-6.4375.05126953125-2.30078125-.86376953125-4.2900390625-2.74755859375-5.9658203125-1.88427734375-1.6728515625-4.76416015625-2.798828125-8.63525390625-3.375-3.87353515625-.57421875-8.740234375-.181640625-14.60107421875,1.1767578125v20.0966796875Z" fill="#fff" stroke-width="0"/>
            </g>
          </a>
        </g>
      </a>
      <g>
        <path d="M168.7041015625,81.270507812489086c-.486328125,6.1591796875-.69921875,12.3486328125-.638671875,18.568359375-.0205078125.2236328125-.0810546875.42578125-.181640625.6083984375-.1015625.162109375-.25390625.318359375-.4560546875.470703125-.203125.15234375-.4765625.248046875-.8203125.2890625-.365234375.0400390625-.7353515625.0654296875-1.109375.076171875-.375.009765625-.724609375-.0263671875-1.048828125-.1064453125-.32421875-.08203125-.6025390625-.22265625-.8359375-.42578125-.232421875-.2021484375-.3798828125-.5166015625-.4404296875-.9423828125-.041015625-.22265625-.06640625-.658203125-.076171875-1.306640625s.0048828125-1.4287109375.0458984375-2.33984375c.0400390625-.931640625.0908203125-1.9501953125.15234375-3.0546875.060546875-1.103515625.12109375-2.212890625.181640625-3.3271484375.0205078125-.041015625.0302734375-.1015625.0302734375-.1826171875-.12109375-.0205078125-.2685546875-.060546875-.4404296875-.1220703125-.171875-.060546875-.400390625-.181640625-.68359375-.3642578125-.3037109375-.2021484375-.61328125-.41015625-.9267578125-.623046875-.314453125-.212890625-.59765625-.4306640625-.8515625-.6533203125-.2529296875-.22265625-.4501953125-.435546875-.591796875-.638671875-.142578125-.2021484375-.1826171875-.39453125-.1220703125-.5771484375s.333984375-.5869140625.8203125-1.2158203125c.22265625-.283203125.4658203125-.607421875.7294921875-.97265625.263671875-.3642578125.537109375-.7392578125.8203125-1.1240234375.2841796875-.3642578125.5419921875-.71875.775390625-1.0634765625.232421875-.3447265625.4501953125-.658203125.6533203125-.9423828125.22265625-.32421875.435546875-.6376953125.638671875-.9423828125.080078125-.1611328125.349609375-.2578125.8046875-.2880859375.4560546875-.0302734375.9423828125,0,1.458984375.0908203125s.9873046875.2333984375,1.4130859375.42578125.658203125.4208984375.69921875.68359375Z" fill="none" stroke="#181818" stroke-width="5.631003379821777"/>
        <path d="M168.7041015625,81.270507812489086c-.486328125,6.1591796875-.69921875,12.3486328125-.638671875,18.568359375-.0205078125.2236328125-.0810546875.42578125-.181640625.6083984375-.1015625.162109375-.25390625.318359375-.4560546875.470703125-.203125.15234375-.4765625.248046875-.8203125.2890625-.365234375.0400390625-.7353515625.0654296875-1.109375.076171875-.375.009765625-.724609375-.0263671875-1.048828125-.1064453125-.32421875-.08203125-.6025390625-.22265625-.8359375-.42578125-.232421875-.2021484375-.3798828125-.5166015625-.4404296875-.9423828125-.041015625-.22265625-.06640625-.658203125-.076171875-1.306640625s.0048828125-1.4287109375.0458984375-2.33984375c.0400390625-.931640625.0908203125-1.9501953125.15234375-3.0546875.060546875-1.103515625.12109375-2.212890625.181640625-3.3271484375.0205078125-.041015625.0302734375-.1015625.0302734375-.1826171875-.12109375-.0205078125-.2685546875-.060546875-.4404296875-.1220703125-.171875-.060546875-.400390625-.181640625-.68359375-.3642578125-.3037109375-.2021484375-.61328125-.41015625-.9267578125-.623046875-.314453125-.212890625-.59765625-.4306640625-.8515625-.6533203125-.2529296875-.22265625-.4501953125-.435546875-.591796875-.638671875-.142578125-.2021484375-.1826171875-.39453125-.1220703125-.5771484375s.333984375-.5869140625.8203125-1.2158203125c.22265625-.283203125.4658203125-.607421875.7294921875-.97265625.263671875-.3642578125.537109375-.7392578125.8203125-1.1240234375.2841796875-.3642578125.5419921875-.71875.775390625-1.0634765625.232421875-.3447265625.4501953125-.658203125.6533203125-.9423828125.22265625-.32421875.435546875-.6376953125.638671875-.9423828125.080078125-.1611328125.349609375-.2578125.8046875-.2880859375.4560546875-.0302734375.9423828125,0,1.458984375.0908203125s.9873046875.2333984375,1.4130859375.42578125.658203125.4208984375.69921875.68359375Z" fill="#231f20" stroke-width="0"/>
        <path d="M168.7041015625,81.270507812489086c-.486328125,6.1591796875-.69921875,12.3486328125-.638671875,18.568359375-.0205078125.2236328125-.0810546875.42578125-.181640625.6083984375-.1015625.162109375-.25390625.318359375-.4560546875.470703125-.203125.15234375-.4765625.248046875-.8203125.2890625-.365234375.0400390625-.7353515625.0654296875-1.109375.076171875-.375.009765625-.724609375-.0263671875-1.048828125-.1064453125-.32421875-.08203125-.6025390625-.22265625-.8359375-.42578125-.232421875-.2021484375-.3798828125-.5166015625-.4404296875-.9423828125-.041015625-.22265625-.06640625-.658203125-.076171875-1.306640625s.0048828125-1.4287109375.0458984375-2.33984375c.0400390625-.931640625.0908203125-1.9501953125.15234375-3.0546875.060546875-1.103515625.12109375-2.212890625.181640625-3.3271484375.0205078125-.041015625.0302734375-.1015625.0302734375-.1826171875-.12109375-.0205078125-.2685546875-.060546875-.4404296875-.1220703125-.171875-.060546875-.400390625-.181640625-.68359375-.3642578125-.3037109375-.2021484375-.61328125-.41015625-.9267578125-.623046875-.314453125-.212890625-.59765625-.4306640625-.8515625-.6533203125-.2529296875-.22265625-.4501953125-.435546875-.591796875-.638671875-.142578125-.2021484375-.1826171875-.39453125-.1220703125-.5771484375s.333984375-.5869140625.8203125-1.2158203125c.22265625-.283203125.4658203125-.607421875.7294921875-.97265625.263671875-.3642578125.537109375-.7392578125.8203125-1.1240234375.2841796875-.3642578125.5419921875-.71875.775390625-1.0634765625.232421875-.3447265625.4501953125-.658203125.6533203125-.9423828125.22265625-.32421875.435546875-.6376953125.638671875-.9423828125.080078125-.1611328125.349609375-.2578125.8046875-.2880859375.4560546875-.0302734375.9423828125,0,1.458984375.0908203125s.9873046875.2333984375,1.4130859375.42578125.658203125.4208984375.69921875.68359375Z" fill="#e2dddb" stroke-width="0"/>
      </g>
      <g>
        <path d="M440.7802734375,91.293945312489086c.6279296875.8505859375,1.0537109375,1.783203125,1.2763671875,2.7958984375.2236328125,1.013671875.248046875,2.0205078125.076171875,3.0234375s-.5166015625,1.9658203125-1.033203125,2.8876953125-1.2001953125,1.697265625-2.05078125,2.32421875c-1.1552734375.8515625-2.330078125,1.322265625-3.525390625,1.4130859375-1.1962890625.091796875-2.330078125-.15625-3.404296875-.744140625-.708984375-.3642578125-1.3173828125-.830078125-1.8232421875-1.3974609375-.5068359375-.5673828125-.7802734375-1.27734375-.8203125-2.1279296875-.0205078125-.4658203125.076171875-.9111328125.2880859375-1.3369140625.212890625-.42578125.4912109375-.759765625.8359375-1.0029296875s.71875-.359375,1.125-.349609375c.404296875.0107421875.7998046875.2177734375,1.1845703125.623046875.2841796875.3642578125.6484375.68359375,1.0947265625.95703125.4453125.2734375.931640625.3603515625,1.4580078125.2587890625,1.013671875-.162109375,1.69140625-.861328125,2.0361328125-2.09765625.0810546875-.34375.111328125-.703125.091796875-1.078125-.0205078125-.375-.0966796875-.724609375-.228515625-1.048828125s-.3291015625-.6123046875-.591796875-.8662109375c-.263671875-.2529296875-.6083984375-.4296875-1.033203125-.53125-.587890625-.162109375-1.2158203125-.2177734375-1.884765625-.16796875-.6689453125.05078125-1.2568359375.1572265625-1.7626953125.3193359375-.1826171875.041015625-.470703125.05078125-.8662109375.0302734375-.39453125-.01953125-.7041015625-.0302734375-.9267578125-.0302734375-.2431640625-.01953125-.451171875-.1416015625-.623046875-.3642578125s-.3037109375-.486328125-.39453125-.7900390625c-.091796875-.3046875-.1474609375-.6083984375-.16796875-.912109375s.0107421875-.5673828125.091796875-.7900390625c.060546875-.2021484375.1064453125-.5927734375.13671875-1.169921875.0302734375-.578125.0556640625-1.2255859375.076171875-1.9453125.01953125-.71875.03515625-1.443359375.044921875-2.1728515625s.025390625-1.3369140625.0458984375-1.8232421875c.01953125-.384765625.076171875-.6484375.1669921875-.7900390625s.2275390625-.22265625.41015625-.2431640625.4052734375-.0048828125.6689453125.044921875c.2626953125.05078125.56640625.0869140625.9111328125.1064453125,1.3984375.1015625,2.80078125.1728515625,4.2099609375.212890625,1.4072265625.041015625,2.8505859375.0205078125,4.330078125-.060546875.2431640625-.0205078125.4609375-.0205078125.6533203125,0s.3291015625.05078125.41015625.0908203125c.1015625.0615234375.1982421875.1572265625.2890625.2890625s.15625.33984375.197265625.623046875c.041015625.3642578125.0556640625.759765625.0458984375,1.185546875-.0107421875.4248046875-.0556640625.8251953125-.13671875,1.2001953125s-.203125.7041015625-.365234375.9873046875c-.162109375.2841796875-.3642578125.4560546875-.607421875.5166015625-.12109375.041015625-.375.06640625-.759765625.076171875-.384765625.0107421875-.8505859375.0048828125-1.3974609375-.015625-1.9453125-.060546875-3.890625-.2421875-5.8349609375-.546875v1.8544921875c1.701171875-.2841796875,3.255859375-.203125,4.6640625.2431640625,1.408203125.4453125,2.5478515625,1.2255859375,3.4189453125,2.33984375Z" fill="none" stroke="#181818" stroke-width="5.631003379821777"/>
        <path d="M440.7802734375,91.293945312489086c.6279296875.8505859375,1.0537109375,1.783203125,1.2763671875,2.7958984375.2236328125,1.013671875.248046875,2.0205078125.076171875,3.0234375s-.5166015625,1.9658203125-1.033203125,2.8876953125-1.2001953125,1.697265625-2.05078125,2.32421875c-1.1552734375.8515625-2.330078125,1.322265625-3.525390625,1.4130859375-1.1962890625.091796875-2.330078125-.15625-3.404296875-.744140625-.708984375-.3642578125-1.3173828125-.830078125-1.8232421875-1.3974609375-.5068359375-.5673828125-.7802734375-1.27734375-.8203125-2.1279296875-.0205078125-.4658203125.076171875-.9111328125.2880859375-1.3369140625.212890625-.42578125.4912109375-.759765625.8359375-1.0029296875s.71875-.359375,1.125-.349609375c.404296875.0107421875.7998046875.2177734375,1.1845703125.623046875.2841796875.3642578125.6484375.68359375,1.0947265625.95703125.4453125.2734375.931640625.3603515625,1.4580078125.2587890625,1.013671875-.162109375,1.69140625-.861328125,2.0361328125-2.09765625.0810546875-.34375.111328125-.703125.091796875-1.078125-.0205078125-.375-.0966796875-.724609375-.228515625-1.048828125s-.3291015625-.6123046875-.591796875-.8662109375c-.263671875-.2529296875-.6083984375-.4296875-1.033203125-.53125-.587890625-.162109375-1.2158203125-.2177734375-1.884765625-.16796875-.6689453125.05078125-1.2568359375.1572265625-1.7626953125.3193359375-.1826171875.041015625-.470703125.05078125-.8662109375.0302734375-.39453125-.01953125-.7041015625-.0302734375-.9267578125-.0302734375-.2431640625-.01953125-.451171875-.1416015625-.623046875-.3642578125s-.3037109375-.486328125-.39453125-.7900390625c-.091796875-.3046875-.1474609375-.6083984375-.16796875-.912109375s.0107421875-.5673828125.091796875-.7900390625c.060546875-.2021484375.1064453125-.5927734375.13671875-1.169921875.0302734375-.578125.0556640625-1.2255859375.076171875-1.9453125.01953125-.71875.03515625-1.443359375.044921875-2.1728515625s.025390625-1.3369140625.0458984375-1.8232421875c.01953125-.384765625.076171875-.6484375.1669921875-.7900390625s.2275390625-.22265625.41015625-.2431640625.4052734375-.0048828125.6689453125.044921875c.2626953125.05078125.56640625.0869140625.9111328125.1064453125,1.3984375.1015625,2.80078125.1728515625,4.2099609375.212890625,1.4072265625.041015625,2.8505859375.0205078125,4.330078125-.060546875.2431640625-.0205078125.4609375-.0205078125.6533203125,0s.3291015625.05078125.41015625.0908203125c.1015625.0615234375.1982421875.1572265625.2890625.2890625s.15625.33984375.197265625.623046875c.041015625.3642578125.0556640625.759765625.0458984375,1.185546875-.0107421875.4248046875-.0556640625.8251953125-.13671875,1.2001953125s-.203125.7041015625-.365234375.9873046875c-.162109375.2841796875-.3642578125.4560546875-.607421875.5166015625-.12109375.041015625-.375.06640625-.759765625.076171875-.384765625.0107421875-.8505859375.0048828125-1.3974609375-.015625-1.9453125-.060546875-3.890625-.2421875-5.8349609375-.546875v1.8544921875c1.701171875-.2841796875,3.255859375-.203125,4.6640625.2431640625,1.408203125.4453125,2.5478515625,1.2255859375,3.4189453125,2.33984375Z" fill="#231f20" stroke-width="0"/>
        <path d="M440.7802734375,91.293945312489086c.6279296875.8505859375,1.0537109375,1.783203125,1.2763671875,2.7958984375.2236328125,1.013671875.248046875,2.0205078125.076171875,3.0234375s-.5166015625,1.9658203125-1.033203125,2.8876953125-1.2001953125,1.697265625-2.05078125,2.32421875c-1.1552734375.8515625-2.330078125,1.322265625-3.525390625,1.4130859375-1.1962890625.091796875-2.330078125-.15625-3.404296875-.744140625-.708984375-.3642578125-1.3173828125-.830078125-1.8232421875-1.3974609375-.5068359375-.5673828125-.7802734375-1.27734375-.8203125-2.1279296875-.0205078125-.4658203125.076171875-.9111328125.2880859375-1.3369140625.212890625-.42578125.4912109375-.759765625.8359375-1.0029296875s.71875-.359375,1.125-.349609375c.404296875.0107421875.7998046875.2177734375,1.1845703125.623046875.2841796875.3642578125.6484375.68359375,1.0947265625.95703125.4453125.2734375.931640625.3603515625,1.4580078125.2587890625,1.013671875-.162109375,1.69140625-.861328125,2.0361328125-2.09765625.0810546875-.34375.111328125-.703125.091796875-1.078125-.0205078125-.375-.0966796875-.724609375-.228515625-1.048828125s-.3291015625-.6123046875-.591796875-.8662109375c-.263671875-.2529296875-.6083984375-.4296875-1.033203125-.53125-.587890625-.162109375-1.2158203125-.2177734375-1.884765625-.16796875-.6689453125.05078125-1.2568359375.1572265625-1.7626953125.3193359375-.1826171875.041015625-.470703125.05078125-.8662109375.0302734375-.39453125-.01953125-.7041015625-.0302734375-.9267578125-.0302734375-.2431640625-.01953125-.451171875-.1416015625-.623046875-.3642578125s-.3037109375-.486328125-.39453125-.7900390625c-.091796875-.3046875-.1474609375-.6083984375-.16796875-.912109375s.0107421875-.5673828125.091796875-.7900390625c.060546875-.2021484375.1064453125-.5927734375.13671875-1.169921875.0302734375-.578125.0556640625-1.2255859375.076171875-1.9453125.01953125-.71875.03515625-1.443359375.044921875-2.1728515625s.025390625-1.3369140625.0458984375-1.8232421875c.01953125-.384765625.076171875-.6484375.1669921875-.7900390625s.2275390625-.22265625.41015625-.2431640625.4052734375-.0048828125.6689453125.044921875c.2626953125.05078125.56640625.0869140625.9111328125.1064453125,1.3984375.1015625,2.80078125.1728515625,4.2099609375.212890625,1.4072265625.041015625,2.8505859375.0205078125,4.330078125-.060546875.2431640625-.0205078125.4609375-.0205078125.6533203125,0s.3291015625.05078125.41015625.0908203125c.1015625.0615234375.1982421875.1572265625.2890625.2890625s.15625.33984375.197265625.623046875c.041015625.3642578125.0556640625.759765625.0458984375,1.185546875-.0107421875.4248046875-.0556640625.8251953125-.13671875,1.2001953125s-.203125.7041015625-.365234375.9873046875c-.162109375.2841796875-.3642578125.4560546875-.607421875.5166015625-.12109375.041015625-.375.06640625-.759765625.076171875-.384765625.0107421875-.8505859375.0048828125-1.3974609375-.015625-1.9453125-.060546875-3.890625-.2421875-5.8349609375-.546875v1.8544921875c1.701171875-.2841796875,3.255859375-.203125,4.6640625.2431640625,1.408203125.4453125,2.5478515625,1.2255859375,3.4189453125,2.33984375Z" fill="#e2dddb" stroke-width="0"/>
      </g>
    </g>
  </g>
</svg>