<?xml version="1.0" encoding="UTF-8"?>
<svg id="Layer_1" data-name="Layer 1" xmlns="http://www.w3.org/2000/svg" xmlns:xlink="http://www.w3.org/1999/xlink" viewBox="0 0 600 600.000000000002728">
  <g id="pie_with_links_-5" data-name="pie (with links)">
    <g id="pie_with_links_-6" data-name="pie (with links)">
      <g id="Pie">
        <g>
          <a xlink:href="https://www.notion.so/dmmnotes/paranoid-ae38b1e6af0c4dd08f61e0d8f6e9f05f?pvs=4">
            <path id="C8" d="M331.308105468760914,517.749511718752728l7.825683593739086,54.4306640625c26.439208984369543-3.767822265632276,51.645751953139552-11.3115234375,75.101318359369543-22.04296875l-22.832519531239086-49.996826171882276c-18.7666015625,8.572265625-38.93505859375,14.601318359382276-60.094482421869543,17.609130859382276Z" fill="none" stroke="#181818" stroke-linecap="round" stroke-linejoin="round" stroke-width="15"/>
          </a>
          <a xlink:href="https://www.notion.so/dmmnotes/menacing-a5bd7149286344deba45ec15e759e579?pvs=4">
            <path id="C7" d="M391.402587890630457,500.140380859370453l22.832519531239086,49.996826171882276c23.989990234391371-10.975830078121362,46.116210937520009-25.287109375010914,65.803955078141371-42.36181640625l-35.972900390630457-41.515869140621362c-15.753417968760914,13.65869140625-33.459228515630457,25.104492187489086-52.66357421875,33.880859374989086Z" fill="none" stroke="#181818" stroke-linecap="round" stroke-linejoin="round" stroke-width="15"/>
          </a>
          <a xlink:href="https://www.notion.so/dmmnotes/seductively-obsessed-with-rescue-6fb5a68f6d334bc29ccccc16d8a4e56e?pvs=4">
            <path id="C6" d="M444.066162109380457,466.259521484381366l35.972900390630457,41.515869140621362c19.762939453119543-17.141845703132276,37.047119140619543-37.041748046882276,51.26708984375-59.125l-46.223632812510914-29.704833984371362c-11.373291015619543,17.673583984371362-25.201171874989086,33.598876953121362-41.016357421869543,47.31396484375Z" fill="none" stroke="#181818" stroke-linecap="round" stroke-linejoin="round" stroke-width="15"/>
          </a>
          <a xlink:href="https://www.notion.so/dmmnotes/punitively-obsessed-with-revenge-33d2e77f37774316b42bccf4a60f9688?pvs=4">
            <path id="C5" d="M485.08251953125,418.945556640631366l46.223632812510914,29.704833984371362c14.048095703128638-21.809326171882276,25.08837890625-45.71875,32.551513671869543-71.175048828133185l-52.7548828125-15.490234375c-5.9619140625,20.377929687511823-14.789306640619543,39.509765625000909-26.020263671880457,56.960449218761823Z" fill="none" stroke="#181818" stroke-linecap="round" stroke-linejoin="round" stroke-width="15"/>
          </a>
          <a xlink:href="https://www.notion.so/dmmnotes/feigned-helpless-e79a94b0498c4e109a681b7f3dcdb088?pvs=4">
            <g id="C4">
              <path d="M563.857421875,378.47509765625c-.0947265625,0-.189453125-.01318359375-.2822265625-.04052734375l-52.75390625-15.490234375c-.5302734375-.1552734375-.833984375-.71044921875-.6787109375-1.240234375,5.876953125-20.078125,8.857421875-40.83837890625,8.857421875-61.7041015625,0-.55224609375.447265625-1,1-1h55c.552734375,0,1,.44775390625,1,1,0,26.28759765625-3.7626953125,52.44873046875-11.1826171875,77.75634765625-.0751953125.2548828125-.248046875.46923828125-.48046875.59619140625-.1484375.0810546875-.3134765625.12255859375-.4794921875.12255859375Z" fill="none" stroke="#181818" stroke-linecap="round" stroke-linejoin="round" stroke-width="15"/>
              <path d="M575,300h.0050048828125M575,300c0,26.911865234375-3.934326171875,52.891845703125-11.142333984375,77.475341796875l-52.7548828125-15.490234375c5.755126953125-19.66357421875,8.897216796875-40.447021484375,8.897216796875-61.985107421875h55M575.0050048828125,298h-55.0050048828125c-1.1046142578125,0-2,.895431518554688-2,2,0,20.768646240234375-2.96630859375,41.4344482421875-8.816650390625,61.423324584960938-.3101806640625,1.0594482421875.2967529296875,2.169769287109375,1.35595703125,2.48077392578125l52.7548828125,15.490226745605469c.1846923828125.054214477539062.3743896484375.081016540527344.5634765625.081016540527344.3321533203125,0,.662109375-.082710266113281.9588623046875-.244827270507812.465576171875-.254356384277344.81103515625-.683311462402344.9603271484375-1.192459106445312,7.4376220703125-25.366455078125,11.2135009765625-51.587844848632812,11.22314453125-77.936935424804688.001708984375-.03350830078125.0025634765625-.067214965820312.0025634765625-.101119995117188,0-1.104568481445312-.8929443359375-2-1.99755859375-2h0ZM575,302h.0050048828125-.0050048828125Z" fill="none" stroke="#181818" stroke-linecap="round" stroke-linejoin="round" stroke-width="15"/>
            </g>
          </a>
          <a xlink:href="https://www.notion.so/dmmnotes/aggressive-2d8ccce383534b9dbfc7b4b10b8a5d5c?pvs=4">
            <g id="C3">
              <path d="M520,301c-.552734375,0-1-.44775390625-1-1,0-20.86572265625-2.98046875-41.62646484375-8.857421875-61.70458984375-.1552734375-.52978515625.1484375-1.0849609375.6787109375-1.240234375l52.75390625-15.490234375c.0927734375-.02734375.1875-.04052734375.2822265625-.04052734375.166015625,0,.3310546875.04150390625.4794921875.12255859375.232421875.126953125.4052734375.34130859375.48046875.59619140625,7.419921875,25.3056640625,11.1826171875,51.466796875,11.1826171875,77.7568359375,0,.55224609375-.447265625,1-1,1h-55Z" fill="none" stroke="#181818" stroke-linecap="round" stroke-linejoin="round" stroke-width="15"/>
              <path d="M563.857666015625,222.524658203125c7.2080078125,24.580810546875,11.142333984375,50.5634765625,11.142333984375,77.475341796875h-55c0-21.535400390625-3.14208984375-42.321533203125-8.897216796875-61.985107421875l52.7548828125-15.490234375M563.857666015625,220.524658203125c-.1890869140625,0-.3787841796875.02679443359375-.5634765625.081024169921875l-52.7548828125,15.490203857421875c-1.0592041015625.311004638671875-1.6661376953125,1.421356201171875-1.35595703125,2.48077392578125,5.850341796875,19.9888916015625,8.816650390625,40.654693603515625,8.816650390625,61.42333984375,0,1.104568481445312.8953857421875,2,2,2h55c1.1046142578125,0,2-.895431518554688,2-2,0-26.386016845703125-3.7760009765625-52.641845703125-11.22314453125-78.038116455078125-.1492919921875-.509124755859375-.4947509765625-.93804931640625-.9603271484375-1.192413330078125-.2967529296875-.162078857421875-.6268310546875-.24481201171875-.9588623046875-.24481201171875h0Z" fill="none" stroke="#181818" stroke-linecap="round" stroke-linejoin="round" stroke-width="15"/>
            </g>
          </a>
          <a xlink:href="https://www.notion.so/dmmnotes/disarming-086276e599884c86b9359acf831a8b20?pvs=4">
            <path id="C2" d="M511.102783203130457,238.014892578114086l52.7548828125-15.490234375c-7.463134765619543-25.456298828121362-18.503417968740905-49.365722656242724-32.551513671869543-71.177734374992724l-46.223632812510914,29.70751953125c11.230957031260914,17.45068359375,20.055664062510914,36.585205078121362,26.020263671880457,56.960449218742724Z" fill="none" stroke="#181818" stroke-linecap="round" stroke-linejoin="round" stroke-width="15"/>
          </a>
          <a xlink:href="https://www.notion.so/dmmnotes/threatening-348fe6a52f7a4fe69f768e98c6586932?pvs=4">
            <path id="C1" d="M485.08251953125,181.054443359371362l46.223632812510914-29.70751953125c-14.219970703130457-22.08056640625-31.504150390630457-41.980468750009095-51.26708984375-59.122314453126819l-35.972900390630457,41.518554687498181c15.815185546880457,13.71240234375,29.64306640625,29.637695312510914,41.016357421869543,47.311279296878638Z" fill="none" stroke="#181818" stroke-linecap="round" stroke-linejoin="round" stroke-width="15"/>
          </a>
          <a xlink:href="https://www.notion.so/dmmnotes/complaining-acceptance-8b40401a720c493ba73f7cde1567cf3d?pvs=4">
            <path id="B5" d="M444.066162109380457,133.743164062492724l35.972900390630457-41.518554687498181c-19.687744140621362-17.07470703125-41.81396484375-31.388671875-65.803955078141371-42.36181640625l-22.832519531239086,49.99951171875c19.204345703119543,8.773681640626819,36.910156249989086,20.22216796875,52.66357421875,33.880859374998181Z" fill="none" stroke="#181818" stroke-linecap="round" stroke-linejoin="round" stroke-width="15"/>
          </a>
          <a xlink:href="https://www.notion.so/dmmnotes/sentimental-bc554363322342b1b7ca4ccc02125049?pvs=4">
            <path id="B4" d="M391.402587890630457,99.862304687494543l22.832519531239086-49.99951171875c-23.455566406229991-10.7314453125-48.662109375-18.275146484382276-75.101318359369543-22.042968749989086l-7.825683593739086,54.433349609365905c21.159423828119543,3.0078125,41.327880859369543,9.034179687490905,60.094482421869543,17.609130859373181Z" fill="none" stroke="#181818" stroke-linecap="round" stroke-linejoin="round" stroke-width="15"/>
          </a>
          <a xlink:href="https://www.notion.so/dmmnotes/comfortably-balanced-e76dc615a8b947aa915377cd02fcf716?pvs=4">
            <path id="B3" d="M300,79.999999999994543c10.634765625,0,21.078857421869543.797607421876819,31.308105468760914,2.253173828126819l7.825683593739086-54.433349609365905c-12.788574218739086-1.823486328134095-25.843017578130457-2.819824218760914-39.1337890625-2.819824218760914s-26.34521484375.996337890626819-39.133789062489086,2.819824218760914l7.825683593739086,54.433349609365905c10.23193359375-1.45556640625,20.67333984375-2.253173828126819,31.30810546875-2.253173828126819Z" fill="none" stroke="#181818" stroke-linecap="round" stroke-linejoin="round" stroke-width="15"/>
          </a>
          <a xlink:href="https://www.notion.so/dmmnotes/accepting-317d81273fff4cd9817cdf4a88efd378?pvs=4">
            <path id="B2" d="M268.69189453125,82.253173828121362l-7.825683593739086-54.433349609365905c-26.439208984391371,3.76782226560681-51.643066406260914,11.311523437489086-75.098632812510914,22.042968749989086l22.83251953125,49.99951171875c18.7666015625-8.574951171882276,38.93505859375-14.601318359373181,60.091796875-17.609130859373181Z" fill="none" stroke="#181818" stroke-linecap="round" stroke-linejoin="round" stroke-width="15"/>
          </a>
          <a xlink:href="https://www.notion.so/dmmnotes/distanced-from-past-2eabab7e9c77429f8e577f4e3e203653?pvs=4">
            <path id="B1" d="M208.60009765625,99.862304687494543l-22.83251953125-49.99951171875c-23.99267578125,10.97314453125-46.1162109375,25.287109375-65.803955078119543,42.36181640625l35.972900390619543,41.515869140626819c15.75341796875-13.658691406259095,33.4619140625-25.1044921875,52.66357421875-33.878173828126819Z" fill="none" stroke="#181818" stroke-linecap="round" stroke-linejoin="round" stroke-width="15"/>
          </a>
          <a xlink:href="https://www.notion.so/dmmnotes/idealising-a52277f51ed14a42aae78081bb34b8be?pvs=4">
            <path id="A1" d="M155.9365234375,133.740478515621362l-35.972900390619543-41.515869140626819c-19.765625,17.141845703117724-37.049804687510914,37.041748046876819-51.269775390630457,59.122314453126819l46.226318359369543,29.70751953125c11.373291015641371-17.673583984367724,25.201171875010914-33.598876953128638,41.016357421880457-47.31396484375Z" fill="none" stroke="#181818" stroke-linecap="round" stroke-linejoin="round" stroke-width="15"/>
          </a>
          <a xlink:href="https://www.notion.so/dmmnotes/distancing-9ac690cdca654729a17a5a255944e2d1?pvs=4">
            <path id="A2" d="M114.920166015619543,181.054443359371362l-46.226318359369543-29.70751953125c-14.04541015625,21.81201171875-25.08837890625,45.721435546871362-32.551513671880457,71.177734374992724l52.754882812510914,15.490234375c5.964599609369543-20.375244140621362,14.7919921875-39.509765624992724,26.022949218739086-56.960449218742724Z" fill="none" stroke="#181818" stroke-linecap="round" stroke-linejoin="round" stroke-width="15"/>
          </a>
          <a xlink:href="https://www.notion.so/dmmnotes/compulsive-caregiving-9c380c0928294f41ae10764aa0dee886?pvs=4">
            <path id="A3" d="M88.897216796880457,238.014892578114086l-52.754882812510914-15.490234375c-7.205322265619543,24.580810546878638-11.142333984369543,50.5634765625-11.142333984369543,77.475341796889552h55c0-21.535400390632276,3.14208984375-42.321533203132276,8.897216796880457-61.985107421889552Z" fill="none" stroke="#181818" stroke-linecap="round" stroke-linejoin="round" stroke-width="15"/>
          </a>
          <a xlink:href="https://www.notion.so/dmmnotes/compulsive-compliance-6d08b7ea9a424ce1a72b9184b7850414?pvs=4">
            <path id="A4" d="M80,300.000000000003638H25c0,26.911865234365905,3.93701171875,52.894531249988177,11.142333984369543,77.475341796865905l52.754882812510914-15.490234375c-5.755126953130457-19.66357421875-8.897216796880457-40.447021484366815-8.897216796880457-61.985107421865905Z" fill="none" stroke="#181818" stroke-linecap="round" stroke-linejoin="round" stroke-width="15"/>
          </a>
          <a xlink:href="https://www.notion.so/dmmnotes/sexual-supplementation-8e85f49046ef412aa229745abf7d38d3?pvs=4">
            <path id="A5" d="M88.897216796880457,361.985107421869543l-52.754882812510914,15.490234375c7.463134765630457,25.456298828133185,18.506103515630457,49.365722656250909,32.551513671880457,71.175048828133185l46.223632812510914-29.704833984371362c-11.230957031260914-17.450683593760914-20.055664062510914-36.58251953125-26.020263671880457-56.960449218761823Z" fill="none" stroke="#181818" stroke-linecap="round" stroke-linejoin="round" stroke-width="15"/>
          </a>
          <a xlink:href="https://www.notion.so/dmmnotes/compulsive-isolated-self-reliance-b321873a73fa41aaaadd7192fde856a2?pvs=4">
            <path id="A6" d="M114.917480468760914,418.945556640631366l-46.223632812510914,29.704833984371362c14.219970703119543,22.083251953117724,31.504150390630457,41.983154296867724,51.269775390630457,59.125l35.972900390619543-41.515869140621362c-15.815185546869543-13.712402343760914-29.643066406239086-29.637695312510914-41.019042968739086-47.31396484375Z" fill="none" stroke="#181818" stroke-linecap="round" stroke-linejoin="round" stroke-width="15"/>
          </a>
          <a xlink:href="https://www.notion.so/dmmnotes/delusional-idealization-743e2420b9994a48a7cab68190432e8a?pvs=4">
            <path id="A7" d="M155.9365234375,466.259521484381366l-35.972900390619543,41.515869140621362c19.687744140619543,17.074707031239086,41.811279296869543,31.385986328128638,65.803955078119543,42.36181640625l22.83251953125-49.996826171882276c-19.20166015625-8.773681640617724-36.91015625-20.222167968739086-52.66357421875-33.880859374989086Z" fill="none" stroke="#181818" stroke-linecap="round" stroke-linejoin="round" stroke-width="15"/>
          </a>
          <a xlink:href="https://www.notion.so/dmmnotes/externally-assembled-self-994ecb0895b844409b931d74a045c162?pvs=4">
            <path id="A8" d="M208.60009765625,500.140380859370453l-22.83251953125,49.996826171882276c23.45556640625,10.7314453125,48.659423828119543,18.275146484367724,75.098632812510914,22.04296875l7.825683593739086-54.4306640625c-21.15673828125-3.0078125-41.3251953125-9.0341796875-60.091796875-17.609130859382276Z" fill="none" stroke="#181818" stroke-linecap="round" stroke-linejoin="round" stroke-width="15"/>
          </a>
          <a xlink:href="https://www.notion.so/dmmnotes/psychopathy-0fe4a3222d9f4fd097ab4546c9776768?pvs=4">
            <path id="AC" d="M300,520.000000000002728c-10.634765625,0-21.076171875-.794921875-31.30810546875-2.25048828125l-7.825683593739086,54.4306640625c12.788574218739086,1.823486328128638,25.843017578119543,2.81982421875,39.133789062489086,2.81982421875s26.345214843760914-.996337890621362,39.1337890625-2.81982421875l-7.825683593739086-54.4306640625c-10.229248046891371,1.45556640625-20.673339843760914,2.25048828125-31.308105468760914,2.25048828125Z" fill="none" stroke="#181818" stroke-linecap="round" stroke-linejoin="round" stroke-width="15"/>
          </a>
        </g>
        <g>
          <a xlink:href="https://www.notion.so/dmmnotes/paranoid-ae38b1e6af0c4dd08f61e0d8f6e9f05f?pvs=4">
            <path id="C8-2" data-name="C8" d="M331.308105468760914,517.749511718752728l7.825683593739086,54.4306640625c26.439208984369543-3.767822265632276,51.645751953139552-11.3115234375,75.101318359369543-22.04296875l-22.832519531239086-49.996826171882276c-18.7666015625,8.572265625-38.93505859375,14.601318359382276-60.094482421869543,17.609130859382276Z" fill="#8f807d" stroke="#181818" stroke-linecap="round" stroke-linejoin="round" stroke-width="2"/>
          </a>
          <a xlink:href="https://www.notion.so/dmmnotes/menacing-a5bd7149286344deba45ec15e759e579?pvs=4">
            <path id="C7-2" data-name="C7" d="M391.402587890630457,500.140380859370453l22.832519531239086,49.996826171882276c23.989990234391371-10.975830078121362,46.116210937520009-25.287109375010914,65.803955078141371-42.36181640625l-35.972900390630457-41.515869140621362c-15.753417968760914,13.65869140625-33.459228515630457,25.104492187489086-52.66357421875,33.880859374989086Z" fill="#8f807d" stroke="#181818" stroke-linecap="round" stroke-linejoin="round" stroke-width="2"/>
          </a>
          <a xlink:href="https://www.notion.so/dmmnotes/seductively-obsessed-with-rescue-6fb5a68f6d334bc29ccccc16d8a4e56e?pvs=4">
            <path id="C6-2" data-name="C6" d="M444.066162109380457,466.259521484381366l35.972900390630457,41.515869140621362c19.762939453119543-17.141845703132276,37.047119140619543-37.041748046882276,51.26708984375-59.125l-46.223632812510914-29.704833984371362c-11.373291015619543,17.673583984371362-25.201171874989086,33.598876953121362-41.016357421869543,47.31396484375Z" fill="#8f807d" stroke="#181818" stroke-linecap="round" stroke-linejoin="round" stroke-width="2"/>
          </a>
          <a xlink:href="https://www.notion.so/dmmnotes/punitively-obsessed-with-revenge-33d2e77f37774316b42bccf4a60f9688?pvs=4">
            <path id="C5-2" data-name="C5" d="M485.08251953125,418.945556640631366l46.223632812510914,29.704833984371362c14.048095703128638-21.809326171882276,25.08837890625-45.71875,32.551513671869543-71.175048828133185l-52.7548828125-15.490234375c-5.9619140625,20.377929687511823-14.789306640619543,39.509765625000909-26.020263671880457,56.960449218761823Z" fill="#8f807d" stroke="#181818" stroke-linecap="round" stroke-linejoin="round" stroke-width="2"/>
          </a>
          <a xlink:href="https://www.notion.so/dmmnotes/feigned-helpless-e79a94b0498c4e109a681b7f3dcdb088?pvs=4">
            <g id="C4-2" data-name="C4">
              <path d="M563.857421875,378.47509765625c-.0947265625,0-.189453125-.01318359375-.2822265625-.04052734375l-52.75390625-15.490234375c-.5302734375-.1552734375-.833984375-.71044921875-.6787109375-1.240234375,5.876953125-20.078125,8.857421875-40.83837890625,8.857421875-61.7041015625,0-.55224609375.447265625-1,1-1h55c.552734375,0,1,.44775390625,1,1,0,26.28759765625-3.7626953125,52.44873046875-11.1826171875,77.75634765625-.0751953125.2548828125-.248046875.46923828125-.48046875.59619140625-.1484375.0810546875-.3134765625.12255859375-.4794921875.12255859375Z" fill="#999555" stroke-width="0"/>
              <path d="M575,300h.0050048828125M575,300c0,26.911865234375-3.934326171875,52.891845703125-11.142333984375,77.475341796875l-52.7548828125-15.490234375c5.755126953125-19.66357421875,8.897216796875-40.447021484375,8.897216796875-61.985107421875h55M575.0050048828125,298h-55.0050048828125c-1.1046142578125,0-2,.895431518554688-2,2,0,20.768646240234375-2.96630859375,41.4344482421875-8.816650390625,61.423324584960938-.3101806640625,1.0594482421875.2967529296875,2.169769287109375,1.35595703125,2.48077392578125l52.7548828125,15.490226745605469c.1846923828125.054214477539062.3743896484375.081016540527344.5634765625.081016540527344.3321533203125,0,.662109375-.082710266113281.9588623046875-.244827270507812.465576171875-.254356384277344.81103515625-.683311462402344.9603271484375-1.192459106445312,7.4376220703125-25.366455078125,11.2135009765625-51.587844848632812,11.22314453125-77.936935424804688.001708984375-.03350830078125.0025634765625-.067214965820312.0025634765625-.101119995117188,0-1.104568481445312-.8929443359375-2-1.99755859375-2h0ZM575,302h.0050048828125-.0050048828125Z" fill="#181818" stroke-width="0"/>
            </g>
          </a>
          <a xlink:href="https://www.notion.so/dmmnotes/aggressive-2d8ccce383534b9dbfc7b4b10b8a5d5c?pvs=4">
            <g id="C3-2" data-name="C3">
              <path d="M520,301c-.552734375,0-1-.44775390625-1-1,0-20.86572265625-2.98046875-41.62646484375-8.857421875-61.70458984375-.1552734375-.52978515625.1484375-1.0849609375.6787109375-1.240234375l52.75390625-15.490234375c.0927734375-.02734375.1875-.04052734375.2822265625-.04052734375.166015625,0,.3310546875.04150390625.4794921875.12255859375.232421875.126953125.4052734375.34130859375.48046875.59619140625,7.419921875,25.3056640625,11.1826171875,51.466796875,11.1826171875,77.7568359375,0,.55224609375-.447265625,1-1,1h-55Z" fill="#859658" stroke-width="0"/>
              <path d="M563.857666015625,222.524658203125c7.2080078125,24.580810546875,11.142333984375,50.5634765625,11.142333984375,77.475341796875h-55c0-21.535400390625-3.14208984375-42.321533203125-8.897216796875-61.985107421875l52.7548828125-15.490234375M563.857666015625,220.524658203125c-.1890869140625,0-.3787841796875.02679443359375-.5634765625.081024169921875l-52.7548828125,15.490203857421875c-1.0592041015625.311004638671875-1.6661376953125,1.421356201171875-1.35595703125,2.48077392578125,5.850341796875,19.9888916015625,8.816650390625,40.654693603515625,8.816650390625,61.42333984375,0,1.104568481445312.8953857421875,2,2,2h55c1.1046142578125,0,2-.895431518554688,2-2,0-26.386016845703125-3.7760009765625-52.641845703125-11.22314453125-78.038116455078125-.1492919921875-.509124755859375-.4947509765625-.93804931640625-.9603271484375-1.192413330078125-.2967529296875-.162078857421875-.6268310546875-.24481201171875-.9588623046875-.24481201171875h0Z" fill="#181818" stroke-width="0"/>
            </g>
          </a>
          <a xlink:href="https://www.notion.so/dmmnotes/disarming-086276e599884c86b9359acf831a8b20?pvs=4">
            <path id="C2-2" data-name="C2" d="M511.102783203130457,238.014892578114086l52.7548828125-15.490234375c-7.463134765619543-25.456298828121362-18.503417968740905-49.365722656242724-32.551513671869543-71.177734374992724l-46.223632812510914,29.70751953125c11.230957031260914,17.45068359375,20.055664062510914,36.585205078121362,26.020263671880457,56.960449218742724Z" fill="#8f807d" stroke="#181818" stroke-linecap="round" stroke-linejoin="round" stroke-width="2"/>
          </a>
          <a xlink:href="https://www.notion.so/dmmnotes/threatening-348fe6a52f7a4fe69f768e98c6586932?pvs=4">
            <path id="C1-2" data-name="C1" d="M485.08251953125,181.054443359371362l46.223632812510914-29.70751953125c-14.219970703130457-22.08056640625-31.504150390630457-41.980468750009095-51.26708984375-59.122314453126819l-35.972900390630457,41.518554687498181c15.815185546880457,13.71240234375,29.64306640625,29.637695312510914,41.016357421869543,47.311279296878638Z" fill="#8f807d" stroke="#181818" stroke-linecap="round" stroke-linejoin="round" stroke-width="2"/>
          </a>
          <a xlink:href="https://www.notion.so/dmmnotes/complaining-acceptance-8b40401a720c493ba73f7cde1567cf3d?pvs=4">
            <path id="B5-2" data-name="B5" d="M444.066162109380457,133.743164062492724l35.972900390630457-41.518554687498181c-19.687744140621362-17.07470703125-41.81396484375-31.388671875-65.803955078141371-42.36181640625l-22.832519531239086,49.99951171875c19.204345703119543,8.773681640626819,36.910156249989086,20.22216796875,52.66357421875,33.880859374998181Z" fill="#8f807d" stroke="#181818" stroke-linecap="round" stroke-linejoin="round" stroke-width="2"/>
          </a>
          <a xlink:href="https://www.notion.so/dmmnotes/sentimental-bc554363322342b1b7ca4ccc02125049?pvs=4">
            <path id="B4-2" data-name="B4" d="M391.402587890630457,99.862304687494543l22.832519531239086-49.99951171875c-23.455566406229991-10.7314453125-48.662109375-18.275146484382276-75.101318359369543-22.042968749989086l-7.825683593739086,54.433349609365905c21.159423828119543,3.0078125,41.327880859369543,9.034179687490905,60.094482421869543,17.609130859373181Z" fill="#8f807d" stroke="#181818" stroke-linecap="round" stroke-linejoin="round" stroke-width="2"/>
          </a>
          <a xlink:href="https://www.notion.so/dmmnotes/comfortably-balanced-e76dc615a8b947aa915377cd02fcf716?pvs=4">
            <path id="B3-2" data-name="B3" d="M300,79.999999999994543c10.634765625,0,21.078857421869543.797607421876819,31.308105468760914,2.253173828126819l7.825683593739086-54.433349609365905c-12.788574218739086-1.823486328134095-25.843017578130457-2.819824218760914-39.1337890625-2.819824218760914s-26.34521484375.996337890626819-39.133789062489086,2.819824218760914l7.825683593739086,54.433349609365905c10.23193359375-1.45556640625,20.67333984375-2.253173828126819,31.30810546875-2.253173828126819Z" fill="#8f807d" stroke="#181818" stroke-linecap="round" stroke-linejoin="round" stroke-width="2"/>
          </a>
          <a xlink:href="https://www.notion.so/dmmnotes/accepting-317d81273fff4cd9817cdf4a88efd378?pvs=4">
            <path id="B2-2" data-name="B2" d="M268.69189453125,82.253173828121362l-7.825683593739086-54.433349609365905c-26.439208984391371,3.76782226560681-51.643066406260914,11.311523437489086-75.098632812510914,22.042968749989086l22.83251953125,49.99951171875c18.7666015625-8.574951171882276,38.93505859375-14.601318359373181,60.091796875-17.609130859373181Z" fill="#8f807d" stroke="#181818" stroke-linecap="round" stroke-linejoin="round" stroke-width="2"/>
          </a>
          <a xlink:href="https://www.notion.so/dmmnotes/distanced-from-past-2eabab7e9c77429f8e577f4e3e203653?pvs=4">
            <path id="B1-2" data-name="B1" d="M208.60009765625,99.862304687494543l-22.83251953125-49.99951171875c-23.99267578125,10.97314453125-46.1162109375,25.287109375-65.803955078119543,42.36181640625l35.972900390619543,41.515869140626819c15.75341796875-13.658691406259095,33.4619140625-25.1044921875,52.66357421875-33.878173828126819Z" fill="#8f807d" stroke="#181818" stroke-linecap="round" stroke-linejoin="round" stroke-width="2"/>
          </a>
          <a xlink:href="https://www.notion.so/dmmnotes/idealising-a52277f51ed14a42aae78081bb34b8be?pvs=4">
            <path id="A1-2" data-name="A1" d="M155.9365234375,133.740478515621362l-35.972900390619543-41.515869140626819c-19.765625,17.141845703117724-37.049804687510914,37.041748046876819-51.269775390630457,59.122314453126819l46.226318359369543,29.70751953125c11.373291015641371-17.673583984367724,25.201171875010914-33.598876953128638,41.016357421880457-47.31396484375Z" fill="#8f807d" stroke="#181818" stroke-linecap="round" stroke-linejoin="round" stroke-width="2"/>
          </a>
          <a xlink:href="https://www.notion.so/dmmnotes/distancing-9ac690cdca654729a17a5a255944e2d1?pvs=4">
            <path id="A2-2" data-name="A2" d="M114.920166015619543,181.054443359371362l-46.226318359369543-29.70751953125c-14.04541015625,21.81201171875-25.08837890625,45.721435546871362-32.551513671880457,71.177734374992724l52.754882812510914,15.490234375c5.964599609369543-20.375244140621362,14.7919921875-39.509765624992724,26.022949218739086-56.960449218742724Z" fill="#8f807d" stroke="#181818" stroke-linecap="round" stroke-linejoin="round" stroke-width="2"/>
          </a>
          <a xlink:href="https://www.notion.so/dmmnotes/compulsive-caregiving-9c380c0928294f41ae10764aa0dee886?pvs=4">
            <path id="A3-2" data-name="A3" d="M88.897216796880457,238.014892578114086l-52.754882812510914-15.490234375c-7.205322265619543,24.580810546878638-11.142333984369543,50.5634765625-11.142333984369543,77.475341796889552h55c0-21.535400390632276,3.14208984375-42.321533203132276,8.897216796880457-61.985107421889552Z" fill="#8f807d" stroke="#181818" stroke-linecap="round" stroke-linejoin="round" stroke-width="2"/>
          </a>
          <a xlink:href="https://www.notion.so/dmmnotes/compulsive-compliance-6d08b7ea9a424ce1a72b9184b7850414?pvs=4">
            <path id="A4-2" data-name="A4" d="M80,300.000000000003638H25c0,26.911865234365905,3.93701171875,52.894531249988177,11.142333984369543,77.475341796865905l52.754882812510914-15.490234375c-5.755126953130457-19.66357421875-8.897216796880457-40.447021484366815-8.897216796880457-61.985107421865905Z" fill="#8f807d" stroke="#181818" stroke-linecap="round" stroke-linejoin="round" stroke-width="2"/>
          </a>
          <a xlink:href="https://www.notion.so/dmmnotes/sexual-supplementation-8e85f49046ef412aa229745abf7d38d3?pvs=4">
            <path id="A5-2" data-name="A5" d="M88.897216796880457,361.985107421869543l-52.754882812510914,15.490234375c7.463134765630457,25.456298828133185,18.506103515630457,49.365722656250909,32.551513671880457,71.175048828133185l46.223632812510914-29.704833984371362c-11.230957031260914-17.450683593760914-20.055664062510914-36.58251953125-26.020263671880457-56.960449218761823Z" fill="#8f807d" stroke="#181818" stroke-linecap="round" stroke-linejoin="round" stroke-width="2"/>
          </a>
          <a xlink:href="https://www.notion.so/dmmnotes/compulsive-isolated-self-reliance-b321873a73fa41aaaadd7192fde856a2?pvs=4">
            <path id="A6-2" data-name="A6" d="M114.917480468760914,418.945556640631366l-46.223632812510914,29.704833984371362c14.219970703119543,22.083251953117724,31.504150390630457,41.983154296867724,51.269775390630457,59.125l35.972900390619543-41.515869140621362c-15.815185546869543-13.712402343760914-29.643066406239086-29.637695312510914-41.019042968739086-47.31396484375Z" fill="#8f807d" stroke="#181818" stroke-linecap="round" stroke-linejoin="round" stroke-width="2"/>
          </a>
          <a xlink:href="https://www.notion.so/dmmnotes/delusional-idealization-743e2420b9994a48a7cab68190432e8a?pvs=4">
            <path id="A7-2" data-name="A7" d="M155.9365234375,466.259521484381366l-35.972900390619543,41.515869140621362c19.687744140619543,17.074707031239086,41.811279296869543,31.385986328128638,65.803955078119543,42.36181640625l22.83251953125-49.996826171882276c-19.20166015625-8.773681640617724-36.91015625-20.222167968739086-52.66357421875-33.880859374989086Z" fill="#8f807d" stroke="#181818" stroke-linecap="round" stroke-linejoin="round" stroke-width="2"/>
          </a>
          <a xlink:href="https://www.notion.so/dmmnotes/externally-assembled-self-994ecb0895b844409b931d74a045c162?pvs=4">
            <path id="A8-2" data-name="A8" d="M208.60009765625,500.140380859370453l-22.83251953125,49.996826171882276c23.45556640625,10.7314453125,48.659423828119543,18.275146484367724,75.098632812510914,22.04296875l7.825683593739086-54.4306640625c-21.15673828125-3.0078125-41.3251953125-9.0341796875-60.091796875-17.609130859382276Z" fill="#8f807d" stroke="#181818" stroke-linecap="round" stroke-linejoin="round" stroke-width="2"/>
          </a>
          <a xlink:href="https://www.notion.so/dmmnotes/psychopathy-0fe4a3222d9f4fd097ab4546c9776768?pvs=4">
            <path id="AC-2" data-name="AC" d="M300,520.000000000002728c-10.634765625,0-21.076171875-.794921875-31.30810546875-2.25048828125l-7.825683593739086,54.4306640625c12.788574218739086,1.823486328128638,25.843017578119543,2.81982421875,39.133789062489086,2.81982421875s26.345214843760914-.996337890621362,39.1337890625-2.81982421875l-7.825683593739086-54.4306640625c-10.229248046891371,1.45556640625-20.673339843760914,2.25048828125-31.308105468760914,2.25048828125Z" fill="#8f807d" stroke="#181818" stroke-linecap="round" stroke-linejoin="round" stroke-width="2"/>
          </a>
        </g>
      </g>
    </g>
  </g>
</svg>