<?xml version="1.0" encoding="UTF-8"?>
<svg id="Layer_1" data-name="Layer 1" xmlns="http://www.w3.org/2000/svg" xmlns:xlink="http://www.w3.org/1999/xlink" viewBox="0 0 600 600.000000000002728">
  <g id="pie_with_links_-5" data-name="pie (with links)">
    <g id="pie_with_links_-6" data-name="pie (with links)">
      <g id="Pie">
        <g>
          <a xlink:href="https://www.notion.so/dmmnotes/paranoid-ae38b1e6af0c4dd08f61e0d8f6e9f05f?pvs=4">
            <path id="C8" d="M331.308105468760004,517.74951171875l7.825683593739996,54.430664062502728c26.439208984369543-3.767822265632276,51.645751953139552-11.3115234375,75.101318359369543-22.042968750002728l-22.832519531239086-49.996826171880457c-18.7666015625,8.572265625-38.93505859375,14.601318359380457-60.094482421870453,17.609130859380457Z" fill="none" stroke="#181818" stroke-linecap="round" stroke-linejoin="round" stroke-width="15"/>
          </a>
          <a xlink:href="https://www.notion.so/dmmnotes/menacing-a5bd7149286344deba45ec15e759e579?pvs=4">
            <path id="C7" d="M391.402587890630457,500.140380859369543l22.832519531239086,49.996826171880457c23.989990234390461-10.975830078120453,46.116210937520009-25.287109375010004,65.803955078140461-42.36181640625l-35.972900390629547-41.515869140620453c-15.753417968760914,13.65869140625-33.459228515630457,25.104492187489996-52.66357421875,33.880859374989996Z" fill="none" stroke="#181818" stroke-linecap="round" stroke-linejoin="round" stroke-width="15"/>
          </a>
          <a xlink:href="https://www.notion.so/dmmnotes/seductively-obsessed-with-rescue-6fb5a68f6d334bc29ccccc16d8a4e56e?pvs=4">
            <path id="C6" d="M444.066162109380457,466.259521484379547l35.972900390629547,41.515869140620453c19.762939453120453-17.141845703130457,37.047119140620453-37.041748046880457,51.26708984375-59.125l-46.223632812510004-29.704833984370453c-11.373291015619543,17.673583984370453-25.201171874989996,33.598876953120453-41.016357421869543,47.31396484375Z" fill="none" stroke="#181818" stroke-linecap="round" stroke-linejoin="round" stroke-width="15"/>
          </a>
          <a xlink:href="https://www.notion.so/dmmnotes/punitively-obsessed-with-revenge-33d2e77f37774316b42bccf4a60f9688?pvs=4">
            <path id="C5" d="M485.08251953125,418.945556640629547l46.223632812510004,29.704833984370453c14.048095703129547-21.809326171880457,25.08837890625-45.71875,32.551513671870453-71.175048828130457l-52.7548828125-15.490234375c-5.9619140625,20.377929687510914-14.789306640620453,39.509765625-26.020263671880457,56.960449218760004Z" fill="none" stroke="#181818" stroke-linecap="round" stroke-linejoin="round" stroke-width="15"/>
          </a>
          <a xlink:href="https://www.notion.so/dmmnotes/feigned-helpless-e79a94b0498c4e109a681b7f3dcdb088?pvs=4">
            <path id="C4" d="M520,300c0,21.5380859375-3.142089843739996,42.321533203119543-8.897216796869543,61.985107421869543l52.7548828125,15.490234375c7.2080078125-24.583496093739086,11.142333984369543-50.5634765625,11.142333984369543-77.475341796869543h-55Z" fill="none" stroke="#181818" stroke-linecap="round" stroke-linejoin="round" stroke-width="15"/>
          </a>
          <a xlink:href="https://www.notion.so/dmmnotes/aggressive-2d8ccce383534b9dbfc7b4b10b8a5d5c?pvs=4">
            <path id="C3" d="M520,300h55c0-26.911865234389552-3.934326171869543-52.894531250010004-11.142333984369543-77.475341796889552l-52.7548828125,15.490234375c5.755126953129547,19.663574218759095,8.897216796869543,40.449707031259095,8.897216796869543,61.985107421889552Z" fill="none" stroke="#181818" stroke-linecap="round" stroke-linejoin="round" stroke-width="15"/>
          </a>
          <a xlink:href="https://www.notion.so/dmmnotes/disarming-086276e599884c86b9359acf831a8b20?pvs=4">
            <path id="C2" d="M511.102783203130457,238.014892578110448l52.7548828125-15.490234375c-7.463134765620453-25.456298828120453-18.503417968740905-49.365722656240905-32.551513671870453-71.177734374990905l-46.223632812510004,29.70751953125c11.230957031260004,17.45068359375,20.055664062510004,36.585205078120453,26.020263671880457,56.960449218740905Z" fill="none" stroke="#181818" stroke-linecap="round" stroke-linejoin="round" stroke-width="15"/>
          </a>
          <a xlink:href="https://www.notion.so/dmmnotes/threatening-348fe6a52f7a4fe69f768e98c6586932?pvs=4">
            <path id="C1" d="M485.08251953125,181.054443359369543l46.223632812510004-29.70751953125c-14.219970703129547-22.08056640625-31.504150390629547-41.980468750009095-51.26708984375-59.122314453129547l-35.972900390629547,41.5185546875c15.815185546879547,13.71240234375,29.64306640625,29.637695312510004,41.016357421869543,47.311279296879547Z" fill="none" stroke="#181818" stroke-linecap="round" stroke-linejoin="round" stroke-width="15"/>
          </a>
          <a xlink:href="https://www.notion.so/dmmnotes/complaining-acceptance-8b40401a720c493ba73f7cde1567cf3d?pvs=4">
            <path id="B5" d="M444.066162109380457,133.743164062489996l35.972900390629547-41.5185546875c-19.687744140620453-17.07470703125-41.81396484375-31.388671875-65.803955078140461-42.36181640625l-22.832519531239086,49.99951171875c19.204345703119543,8.773681640629547,36.910156249989086,20.22216796875,52.66357421875,33.880859375Z" fill="none" stroke="#181818" stroke-linecap="round" stroke-linejoin="round" stroke-width="15"/>
          </a>
          <a xlink:href="https://www.notion.so/dmmnotes/sentimental-bc554363322342b1b7ca4ccc02125049?pvs=4">
            <path id="B4" d="M391.402587890630457,99.862304687489996l22.832519531239086-49.99951171875c-23.455566406229991-10.7314453125-48.662109375-18.275146484379547-75.101318359369543-22.042968749989996l-7.825683593739996,54.433349609369543c21.159423828120453,3.0078125,41.327880859370453,9.034179687490905,60.094482421870453,17.609130859370453Z" fill="none" stroke="#181818" stroke-linecap="round" stroke-linejoin="round" stroke-width="15"/>
          </a>
          <a xlink:href="https://www.notion.so/dmmnotes/comfortably-balanced-e76dc615a8b947aa915377cd02fcf716?pvs=4">
            <path id="B3" d="M300,79.999999999989996c10.634765625,0,21.078857421869543.797607421879547,31.308105468760004,2.253173828129547l7.825683593739996-54.433349609369543c-12.788574218739996-1.823486328130457-25.843017578130457-2.819824218760004-39.1337890625-2.819824218760004s-26.34521484375.996337890629547-39.133789062489996,2.819824218760004l7.825683593739996,54.433349609369543c10.23193359375-1.45556640625,20.67333984375-2.253173828129547,31.30810546875-2.253173828129547Z" fill="none" stroke="#181818" stroke-linecap="round" stroke-linejoin="round" stroke-width="15"/>
          </a>
          <a xlink:href="https://www.notion.so/dmmnotes/accepting-317d81273fff4cd9817cdf4a88efd378?pvs=4">
            <path id="B2" d="M268.69189453125,82.253173828119543l-7.825683593739996-54.433349609369543c-26.439208984390461,3.767822265610448-51.643066406260004,11.311523437489996-75.098632812510004,22.042968749989996l22.83251953125,49.99951171875c18.7666015625-8.574951171879547,38.93505859375-14.601318359370453,60.091796875-17.609130859370453Z" fill="none" stroke="#181818" stroke-linecap="round" stroke-linejoin="round" stroke-width="15"/>
          </a>
          <a xlink:href="https://www.notion.so/dmmnotes/distanced-from-past-2eabab7e9c77429f8e577f4e3e203653?pvs=4">
            <path id="B1" d="M208.60009765625,99.862304687489996l-22.83251953125-49.99951171875c-23.99267578125,10.97314453125-46.1162109375,25.287109375-65.803955078119543,42.36181640625l35.972900390619543,41.515869140629547c15.75341796875-13.658691406259095,33.4619140625-25.1044921875,52.66357421875-33.878173828129547Z" fill="none" stroke="#181818" stroke-linecap="round" stroke-linejoin="round" stroke-width="15"/>
          </a>
          <a xlink:href="https://www.notion.so/dmmnotes/idealising-a52277f51ed14a42aae78081bb34b8be?pvs=4">
            <path id="A1" d="M155.9365234375,133.740478515619543l-35.972900390619543-41.515869140629547c-19.765625,17.141845703120453-37.049804687510914,37.041748046879547-51.269775390630457,59.122314453129547l46.226318359369543,29.70751953125c11.373291015640461-17.673583984369543,25.201171875010914-33.598876953129547,41.016357421880457-47.31396484375Z" fill="none" stroke="#181818" stroke-linecap="round" stroke-linejoin="round" stroke-width="15"/>
          </a>
          <a xlink:href="https://www.notion.so/dmmnotes/distancing-9ac690cdca654729a17a5a255944e2d1?pvs=4">
            <path id="A2" d="M114.920166015619543,181.054443359369543l-46.226318359369543-29.70751953125c-14.04541015625,21.81201171875-25.08837890625,45.721435546870453-32.551513671880457,71.177734374990905l52.754882812510914,15.490234375c5.964599609369543-20.375244140620453,14.7919921875-39.509765624990905,26.022949218739086-56.960449218740905Z" fill="none" stroke="#181818" stroke-linecap="round" stroke-linejoin="round" stroke-width="15"/>
          </a>
          <a xlink:href="https://www.notion.so/dmmnotes/compulsive-caregiving-9c380c0928294f41ae10764aa0dee886?pvs=4">
            <path id="A3" d="M88.897216796880457,238.014892578110448l-52.754882812510914-15.490234375c-7.205322265619543,24.580810546879547-11.142333984369543,50.5634765625-11.142333984369543,77.475341796889552h55c0-21.535400390630457,3.14208984375-42.321533203130457,8.897216796880457-61.985107421889552Z" fill="none" stroke="#181818" stroke-linecap="round" stroke-linejoin="round" stroke-width="15"/>
          </a>
          <a xlink:href="https://www.notion.so/dmmnotes/compulsive-compliance-6d08b7ea9a424ce1a72b9184b7850414?pvs=4">
            <path id="A4" d="M80,300H25c0,26.911865234369543,3.93701171875,52.894531249989996,11.142333984369543,77.475341796869543l52.754882812510914-15.490234375c-5.755126953130457-19.66357421875-8.897216796880457-40.447021484369543-8.897216796880457-61.985107421869543Z" fill="none" stroke="#181818" stroke-linecap="round" stroke-linejoin="round" stroke-width="15"/>
          </a>
          <a xlink:href="https://www.notion.so/dmmnotes/sexual-supplementation-8e85f49046ef412aa229745abf7d38d3?pvs=4">
            <path id="A5" d="M88.897216796880457,361.985107421869543l-52.754882812510914,15.490234375c7.463134765630457,25.456298828130457,18.506103515630457,49.36572265625,32.551513671880457,71.175048828130457l46.223632812510004-29.704833984370453c-11.230957031260004-17.450683593760004-20.055664062510004-36.582519531249091-26.020263671879547-56.960449218760004Z" fill="none" stroke="#181818" stroke-linecap="round" stroke-linejoin="round" stroke-width="15"/>
          </a>
          <a xlink:href="https://www.notion.so/dmmnotes/compulsive-isolated-self-reliance-b321873a73fa41aaaadd7192fde856a2?pvs=4">
            <path id="A6" d="M114.917480468760004,418.945556640629547l-46.223632812510004,29.704833984370453c14.219970703119543,22.083251953119543,31.504150390630457,41.983154296869543,51.269775390630457,59.125l35.972900390619543-41.515869140620453c-15.815185546869543-13.712402343760004-29.643066406239996-29.637695312510004-41.019042968739996-47.31396484375Z" fill="none" stroke="#181818" stroke-linecap="round" stroke-linejoin="round" stroke-width="15"/>
          </a>
          <a xlink:href="https://www.notion.so/dmmnotes/delusional-idealization-743e2420b9994a48a7cab68190432e8a?pvs=4">
            <g id="A7">
              <path d="M185.767578125,551.13720703125c-.14208984375,0-.2841796875-.0302734375-.416015625-.0908203125-23.9013671875-10.93359375-46.12158203125-25.23828125-66.04296875-42.515625-.4169921875-.36181640625-.4619140625-.9931640625-.1005859375-1.41015625l35.97265625-41.515625c.173828125-.20068359375.419921875-.32373046875.6845703125-.3427734375.02392578125-.00146484375.0478515625-.00244140625.0712890625-.00244140625.23974609375,0,.47265625.08642578125.6552734375.24462890625,15.8125,13.7099609375,33.4501953125,25.05712890625,52.423828125,33.72607421875.50244140625.2294921875.7236328125.82275390625.494140625,1.3251953125l-22.83251953125,49.9970703125c-.1103515625.2412109375-.31201171875.4287109375-.560546875.521484375-.11279296875.0419921875-.23095703125.06298828125-.34912109375.06298828125Z" fill="none" stroke="#181818" stroke-linecap="round" stroke-linejoin="round" stroke-width="15"/>
              <path d="M155.9365234375,466.259513854980469c15.75341796875,13.658700942993164,33.4619140625,25.107183933258057,52.66357421875,33.880867123603821l-22.83251953125,49.996833682060242c-23.99267578125-10.975833892822266-46.1162109375-25.287117004394531-65.803955078125-42.361817359924316l35.972900390625-41.515883445739746M155.9365234375,464.259513854980469c-.04736328125,0-.0947265625.001686096191406-.142333984375.005084991455078-.529296875.037765502929688-1.021728515625.284248352050781-1.369140625.685214996337891l-35.972900390625,41.515883922576904c-.72314453125.834516048431396-.633056640625,2.09714937210083.201171875,2.820616245269775,19.992919921875,17.339483261108398,42.29345703125,31.695615768432617,66.2822265625,42.669633865356445.263671875.120601654052734.547607421875.181270599365234.83203125.181270599365234.236328125,0,.47265625-.041820526123047.6982421875-.125888824462891.497314453125-.185283660888672.900634765625-.560581207275391,1.12109375-1.043300628662109l22.83251953125-49.99683141708374c.458740234375-1.004599988460541.016357421875-2.190933346748352-.988037109375-2.649916708469391-18.886474609375-8.629666745662689-36.444091796875-19.925216138362885-52.1845703125-33.572867810726166-.364990234375-.316280364990234-.83056640625-.488899230957031-1.310302734375-.488899230957031h0Z" fill="none" stroke="#181818" stroke-linecap="round" stroke-linejoin="round" stroke-width="15"/>
            </g>
          </a>
          <a xlink:href="https://www.notion.so/dmmnotes/externally-assembled-self-994ecb0895b844409b931d74a045c162?pvs=4">
            <g id="A8">
              <path d="M260.86767578125,573.18017578125c-.04736328125,0-.0947265625-.00341796875-.142578125-.009765625-26.0390625-3.71142578125-51.3984375-11.15478515625-75.37353515625-22.1240234375-.501953125-.2294921875-.72314453125-.822265625-.49365234375-1.32470703125l22.83251953125-49.9970703125c.1103515625-.2412109375.3115234375-.4287109375.56005859375-.521484375.11328125-.0419921875.2314453125-.06298828125.349609375-.06298828125.14208984375,0,.28369140625.0302734375.41552734375.09033203125,19.02490234375,8.693359375,39.14990234375,14.5908203125,59.81689453125,17.52880859375.26318359375.03759765625.5.177734375.65966796875.39013671875.1591796875.21240234375.2275390625.4794921875.189453125.7421875l-7.82568359375,54.4306640625c-.07177734375.49853515625-.4990234375.85791015625-.98828125.85791015625Z" fill="none" stroke="#181818" stroke-linecap="round" stroke-linejoin="round" stroke-width="15"/>
              <path d="M208.60009765625,500.140385985374451c18.7666015625,8.574938416481018,38.93505859375,14.601307511329651,60.091796875,17.609123826026917l-7.82568359375,54.430658340454102c-26.439208984375-3.767814636230469-51.64306640625-11.311519622802734-75.0986328125-22.042964935302734l22.83251953125-49.996817231178284M208.60009765625,498.140388786792755c-.236328125,0-.47314453125.041865527629852-.69873046875.126028001308441-.4970703125.18533843755722-.900146484375.560584604740143-1.12060546875,1.04315385222435l-22.83251953125,49.996814399957657c-.45849609375,1.004245758056641-.0166015625,2.190185546875.9873046875,2.649509429931641,24.06298828125,11.009414672851562,49.514892578125,18.480010986328125,75.6484375,22.204277038574219.095703125.013626098632812.19091796875.020256042480469.28466796875.020256042480469.978759765625,0,1.833984375-.718879699707031,1.977294921875-1.715644836425781l7.82568359375-54.430658340454102c.075439453125-.525569915771484-.06103515625-1.059616088867188-.379638671875-1.484430313110352-.318603515625-.424831390380859-.79296875-.705539703369141-1.318603515625-.780277252197266-20.571533203125-2.924615859985352-40.6044921875-8.795015335083008-59.5419921875-17.448123097419739-.263427734375-.120357990264893-.547119140625-.180904924869537-.831298828125-.180904924869537h0Z" fill="none" stroke="#181818" stroke-linecap="round" stroke-linejoin="round" stroke-width="15"/>
            </g>
          </a>
          <a xlink:href="https://www.notion.so/dmmnotes/psychopathy-0fe4a3222d9f4fd097ab4546c9776768?pvs=4">
            <path id="AC" d="M300,520c-10.634765625,0-21.076171875-.794921875-31.30810546875-2.25048828125l-7.825683593739996,54.430664062502728c12.788574218739996,1.823486328127728,25.843017578120453,2.81982421875,39.133789062489996,2.81982421875s26.345214843760004-.996337890622272,39.1337890625-2.81982421875l-7.825683593739996-54.430664062502728c-10.229248046890461,1.45556640625-20.673339843760004,2.25048828125-31.308105468760004,2.25048828125Z" fill="none" stroke="#181818" stroke-linecap="round" stroke-linejoin="round" stroke-width="15"/>
          </a>
        </g>
        <g>
          <a xlink:href="https://www.notion.so/dmmnotes/paranoid-ae38b1e6af0c4dd08f61e0d8f6e9f05f?pvs=4">
            <path id="C8-2" data-name="C8" d="M331.308105468760004,517.74951171875l7.825683593739996,54.430664062502728c26.439208984369543-3.767822265632276,51.645751953139552-11.3115234375,75.101318359369543-22.042968750002728l-22.832519531239086-49.996826171880457c-18.7666015625,8.572265625-38.93505859375,14.601318359380457-60.094482421870453,17.609130859380457Z" fill="#8f807d" stroke="#181818" stroke-linecap="round" stroke-linejoin="round" stroke-width="2"/>
          </a>
          <a xlink:href="https://www.notion.so/dmmnotes/menacing-a5bd7149286344deba45ec15e759e579?pvs=4">
            <path id="C7-2" data-name="C7" d="M391.402587890630457,500.140380859369543l22.832519531239086,49.996826171880457c23.989990234390461-10.975830078120453,46.116210937520009-25.287109375010004,65.803955078140461-42.36181640625l-35.972900390629547-41.515869140620453c-15.753417968760914,13.65869140625-33.459228515630457,25.104492187489996-52.66357421875,33.880859374989996Z" fill="#8f807d" stroke="#181818" stroke-linecap="round" stroke-linejoin="round" stroke-width="2"/>
          </a>
          <a xlink:href="https://www.notion.so/dmmnotes/seductively-obsessed-with-rescue-6fb5a68f6d334bc29ccccc16d8a4e56e?pvs=4">
            <path id="C6-2" data-name="C6" d="M444.066162109380457,466.259521484379547l35.972900390629547,41.515869140620453c19.762939453120453-17.141845703130457,37.047119140620453-37.041748046880457,51.26708984375-59.125l-46.223632812510004-29.704833984370453c-11.373291015619543,17.673583984370453-25.201171874989996,33.598876953120453-41.016357421869543,47.31396484375Z" fill="#8f807d" stroke="#181818" stroke-linecap="round" stroke-linejoin="round" stroke-width="2"/>
          </a>
          <a xlink:href="https://www.notion.so/dmmnotes/punitively-obsessed-with-revenge-33d2e77f37774316b42bccf4a60f9688?pvs=4">
            <path id="C5-2" data-name="C5" d="M485.08251953125,418.945556640629547l46.223632812510004,29.704833984370453c14.048095703129547-21.809326171880457,25.08837890625-45.71875,32.551513671870453-71.175048828130457l-52.7548828125-15.490234375c-5.9619140625,20.377929687510914-14.789306640620453,39.509765625-26.020263671880457,56.960449218760004Z" fill="#8f807d" stroke="#181818" stroke-linecap="round" stroke-linejoin="round" stroke-width="2"/>
          </a>
          <a xlink:href="https://www.notion.so/dmmnotes/feigned-helpless-e79a94b0498c4e109a681b7f3dcdb088?pvs=4">
            <path id="C4-2" data-name="C4" d="M520,300c0,21.5380859375-3.142089843739996,42.321533203119543-8.897216796869543,61.985107421869543l52.7548828125,15.490234375c7.2080078125-24.583496093739086,11.142333984369543-50.5634765625,11.142333984369543-77.475341796869543h-55Z" fill="#8f807d" stroke="#181818" stroke-linecap="round" stroke-linejoin="round" stroke-width="2"/>
          </a>
          <a xlink:href="https://www.notion.so/dmmnotes/aggressive-2d8ccce383534b9dbfc7b4b10b8a5d5c?pvs=4">
            <path id="C3-2" data-name="C3" d="M520,300h55c0-26.911865234389552-3.934326171869543-52.894531250010004-11.142333984369543-77.475341796889552l-52.7548828125,15.490234375c5.755126953129547,19.663574218759095,8.897216796869543,40.449707031259095,8.897216796869543,61.985107421889552Z" fill="#8f807d" stroke="#181818" stroke-linecap="round" stroke-linejoin="round" stroke-width="2"/>
          </a>
          <a xlink:href="https://www.notion.so/dmmnotes/disarming-086276e599884c86b9359acf831a8b20?pvs=4">
            <path id="C2-2" data-name="C2" d="M511.102783203130457,238.014892578110448l52.7548828125-15.490234375c-7.463134765620453-25.456298828120453-18.503417968740905-49.365722656240905-32.551513671870453-71.177734374990905l-46.223632812510004,29.70751953125c11.230957031260004,17.45068359375,20.055664062510004,36.585205078120453,26.020263671880457,56.960449218740905Z" fill="#8f807d" stroke="#181818" stroke-linecap="round" stroke-linejoin="round" stroke-width="2"/>
          </a>
          <a xlink:href="https://www.notion.so/dmmnotes/threatening-348fe6a52f7a4fe69f768e98c6586932?pvs=4">
            <path id="C1-2" data-name="C1" d="M485.08251953125,181.054443359369543l46.223632812510004-29.70751953125c-14.219970703129547-22.08056640625-31.504150390629547-41.980468750009095-51.26708984375-59.122314453129547l-35.972900390629547,41.5185546875c15.815185546879547,13.71240234375,29.64306640625,29.637695312510004,41.016357421869543,47.311279296879547Z" fill="#8f807d" stroke="#181818" stroke-linecap="round" stroke-linejoin="round" stroke-width="2"/>
          </a>
          <a xlink:href="https://www.notion.so/dmmnotes/complaining-acceptance-8b40401a720c493ba73f7cde1567cf3d?pvs=4">
            <path id="B5-2" data-name="B5" d="M444.066162109380457,133.743164062489996l35.972900390629547-41.5185546875c-19.687744140620453-17.07470703125-41.81396484375-31.388671875-65.803955078140461-42.36181640625l-22.832519531239086,49.99951171875c19.204345703119543,8.773681640629547,36.910156249989086,20.22216796875,52.66357421875,33.880859375Z" fill="#8f807d" stroke="#181818" stroke-linecap="round" stroke-linejoin="round" stroke-width="2"/>
          </a>
          <a xlink:href="https://www.notion.so/dmmnotes/sentimental-bc554363322342b1b7ca4ccc02125049?pvs=4">
            <path id="B4-2" data-name="B4" d="M391.402587890630457,99.862304687489996l22.832519531239086-49.99951171875c-23.455566406229991-10.7314453125-48.662109375-18.275146484379547-75.101318359369543-22.042968749989996l-7.825683593739996,54.433349609369543c21.159423828120453,3.0078125,41.327880859370453,9.034179687490905,60.094482421870453,17.609130859370453Z" fill="#8f807d" stroke="#181818" stroke-linecap="round" stroke-linejoin="round" stroke-width="2"/>
          </a>
          <a xlink:href="https://www.notion.so/dmmnotes/comfortably-balanced-e76dc615a8b947aa915377cd02fcf716?pvs=4">
            <path id="B3-2" data-name="B3" d="M300,79.999999999989996c10.634765625,0,21.078857421869543.797607421879547,31.308105468760004,2.253173828129547l7.825683593739996-54.433349609369543c-12.788574218739996-1.823486328130457-25.843017578130457-2.819824218760004-39.1337890625-2.819824218760004s-26.34521484375.996337890629547-39.133789062489996,2.819824218760004l7.825683593739996,54.433349609369543c10.23193359375-1.45556640625,20.67333984375-2.253173828129547,31.30810546875-2.253173828129547Z" fill="#8f807d" stroke="#181818" stroke-linecap="round" stroke-linejoin="round" stroke-width="2"/>
          </a>
          <a xlink:href="https://www.notion.so/dmmnotes/accepting-317d81273fff4cd9817cdf4a88efd378?pvs=4">
            <path id="B2-2" data-name="B2" d="M268.69189453125,82.253173828119543l-7.825683593739996-54.433349609369543c-26.439208984390461,3.767822265610448-51.643066406260004,11.311523437489996-75.098632812510004,22.042968749989996l22.83251953125,49.99951171875c18.7666015625-8.574951171879547,38.93505859375-14.601318359370453,60.091796875-17.609130859370453Z" fill="#8f807d" stroke="#181818" stroke-linecap="round" stroke-linejoin="round" stroke-width="2"/>
          </a>
          <a xlink:href="https://www.notion.so/dmmnotes/distanced-from-past-2eabab7e9c77429f8e577f4e3e203653?pvs=4">
            <path id="B1-2" data-name="B1" d="M208.60009765625,99.862304687489996l-22.83251953125-49.99951171875c-23.99267578125,10.97314453125-46.1162109375,25.287109375-65.803955078119543,42.36181640625l35.972900390619543,41.515869140629547c15.75341796875-13.658691406259095,33.4619140625-25.1044921875,52.66357421875-33.878173828129547Z" fill="#8f807d" stroke="#181818" stroke-linecap="round" stroke-linejoin="round" stroke-width="2"/>
          </a>
          <a xlink:href="https://www.notion.so/dmmnotes/idealising-a52277f51ed14a42aae78081bb34b8be?pvs=4">
            <path id="A1-2" data-name="A1" d="M155.9365234375,133.740478515619543l-35.972900390619543-41.515869140629547c-19.765625,17.141845703120453-37.049804687510914,37.041748046879547-51.269775390630457,59.122314453129547l46.226318359369543,29.70751953125c11.373291015640461-17.673583984369543,25.201171875010914-33.598876953129547,41.016357421880457-47.31396484375Z" fill="#8f807d" stroke="#181818" stroke-linecap="round" stroke-linejoin="round" stroke-width="2"/>
          </a>
          <a xlink:href="https://www.notion.so/dmmnotes/distancing-9ac690cdca654729a17a5a255944e2d1?pvs=4">
            <path id="A2-2" data-name="A2" d="M114.920166015619543,181.054443359369543l-46.226318359369543-29.70751953125c-14.04541015625,21.81201171875-25.08837890625,45.721435546870453-32.551513671880457,71.177734374990905l52.754882812510914,15.490234375c5.964599609369543-20.375244140620453,14.7919921875-39.509765624990905,26.022949218739086-56.960449218740905Z" fill="#8f807d" stroke="#181818" stroke-linecap="round" stroke-linejoin="round" stroke-width="2"/>
          </a>
          <a xlink:href="https://www.notion.so/dmmnotes/compulsive-caregiving-9c380c0928294f41ae10764aa0dee886?pvs=4">
            <path id="A3-2" data-name="A3" d="M88.897216796880457,238.014892578110448l-52.754882812510914-15.490234375c-7.205322265619543,24.580810546879547-11.142333984369543,50.5634765625-11.142333984369543,77.475341796889552h55c0-21.535400390630457,3.14208984375-42.321533203130457,8.897216796880457-61.985107421889552Z" fill="#8f807d" stroke="#181818" stroke-linecap="round" stroke-linejoin="round" stroke-width="2"/>
          </a>
          <a xlink:href="https://www.notion.so/dmmnotes/compulsive-compliance-6d08b7ea9a424ce1a72b9184b7850414?pvs=4">
            <path id="A4-2" data-name="A4" d="M80,300H25c0,26.911865234369543,3.93701171875,52.894531249989996,11.142333984369543,77.475341796869543l52.754882812510914-15.490234375c-5.755126953130457-19.66357421875-8.897216796880457-40.447021484369543-8.897216796880457-61.985107421869543Z" fill="#8f807d" stroke="#181818" stroke-linecap="round" stroke-linejoin="round" stroke-width="2"/>
          </a>
          <a xlink:href="https://www.notion.so/dmmnotes/sexual-supplementation-8e85f49046ef412aa229745abf7d38d3?pvs=4">
            <path id="A5-2" data-name="A5" d="M88.897216796880457,361.985107421869543l-52.754882812510914,15.490234375c7.463134765630457,25.456298828130457,18.506103515630457,49.36572265625,32.551513671880457,71.175048828130457l46.223632812510004-29.704833984370453c-11.230957031260004-17.450683593760004-20.055664062510004-36.582519531249091-26.020263671879547-56.960449218760004Z" fill="#8f807d" stroke="#181818" stroke-linecap="round" stroke-linejoin="round" stroke-width="2"/>
          </a>
          <a xlink:href="https://www.notion.so/dmmnotes/compulsive-isolated-self-reliance-b321873a73fa41aaaadd7192fde856a2?pvs=4">
            <path id="A6-2" data-name="A6" d="M114.917480468760004,418.945556640629547l-46.223632812510004,29.704833984370453c14.219970703119543,22.083251953119543,31.504150390630457,41.983154296869543,51.269775390630457,59.125l35.972900390619543-41.515869140620453c-15.815185546869543-13.712402343760004-29.643066406239996-29.637695312510004-41.019042968739996-47.31396484375Z" fill="#8f807d" stroke="#181818" stroke-linecap="round" stroke-linejoin="round" stroke-width="2"/>
          </a>
          <a xlink:href="https://www.notion.so/dmmnotes/delusional-idealization-743e2420b9994a48a7cab68190432e8a?pvs=4">
            <g id="A7-2" data-name="A7">
              <path d="M185.767578125,551.13720703125c-.14208984375,0-.2841796875-.0302734375-.416015625-.0908203125-23.9013671875-10.93359375-46.12158203125-25.23828125-66.04296875-42.515625-.4169921875-.36181640625-.4619140625-.9931640625-.1005859375-1.41015625l35.97265625-41.515625c.173828125-.20068359375.419921875-.32373046875.6845703125-.3427734375.02392578125-.00146484375.0478515625-.00244140625.0712890625-.00244140625.23974609375,0,.47265625.08642578125.6552734375.24462890625,15.8125,13.7099609375,33.4501953125,25.05712890625,52.423828125,33.72607421875.50244140625.2294921875.7236328125.82275390625.494140625,1.3251953125l-22.83251953125,49.9970703125c-.1103515625.2412109375-.31201171875.4287109375-.560546875.521484375-.11279296875.0419921875-.23095703125.06298828125-.34912109375.06298828125Z" fill="#c46681" stroke-width="0"/>
              <path d="M155.9365234375,466.259513854980469c15.75341796875,13.658700942993164,33.4619140625,25.107183933258057,52.66357421875,33.880867123603821l-22.83251953125,49.996833682060242c-23.99267578125-10.975833892822266-46.1162109375-25.287117004394531-65.803955078125-42.361817359924316l35.972900390625-41.515883445739746M155.9365234375,464.259513854980469c-.04736328125,0-.0947265625.001686096191406-.142333984375.005084991455078-.529296875.037765502929688-1.021728515625.284248352050781-1.369140625.685214996337891l-35.972900390625,41.515883922576904c-.72314453125.834516048431396-.633056640625,2.09714937210083.201171875,2.820616245269775,19.992919921875,17.339483261108398,42.29345703125,31.695615768432617,66.2822265625,42.669633865356445.263671875.120601654052734.547607421875.181270599365234.83203125.181270599365234.236328125,0,.47265625-.041820526123047.6982421875-.125888824462891.497314453125-.185283660888672.900634765625-.560581207275391,1.12109375-1.043300628662109l22.83251953125-49.99683141708374c.458740234375-1.004599988460541.016357421875-2.190933346748352-.988037109375-2.649916708469391-18.886474609375-8.629666745662689-36.444091796875-19.925216138362885-52.1845703125-33.572867810726166-.364990234375-.316280364990234-.83056640625-.488899230957031-1.310302734375-.488899230957031h0Z" fill="#181818" stroke-width="0"/>
            </g>
          </a>
          <a xlink:href="https://www.notion.so/dmmnotes/externally-assembled-self-994ecb0895b844409b931d74a045c162?pvs=4">
            <g id="A8-2" data-name="A8">
              <path d="M260.86767578125,573.18017578125c-.04736328125,0-.0947265625-.00341796875-.142578125-.009765625-26.0390625-3.71142578125-51.3984375-11.15478515625-75.37353515625-22.1240234375-.501953125-.2294921875-.72314453125-.822265625-.49365234375-1.32470703125l22.83251953125-49.9970703125c.1103515625-.2412109375.3115234375-.4287109375.56005859375-.521484375.11328125-.0419921875.2314453125-.06298828125.349609375-.06298828125.14208984375,0,.28369140625.0302734375.41552734375.09033203125,19.02490234375,8.693359375,39.14990234375,14.5908203125,59.81689453125,17.52880859375.26318359375.03759765625.5.177734375.65966796875.39013671875.1591796875.21240234375.2275390625.4794921875.189453125.7421875l-7.82568359375,54.4306640625c-.07177734375.49853515625-.4990234375.85791015625-.98828125.85791015625Z" fill="#cc6a7a" stroke-width="0"/>
              <path d="M208.60009765625,500.140385985374451c18.7666015625,8.574938416481018,38.93505859375,14.601307511329651,60.091796875,17.609123826026917l-7.82568359375,54.430658340454102c-26.439208984375-3.767814636230469-51.64306640625-11.311519622802734-75.0986328125-22.042964935302734l22.83251953125-49.996817231178284M208.60009765625,498.140388786792755c-.236328125,0-.47314453125.041865527629852-.69873046875.126028001308441-.4970703125.18533843755722-.900146484375.560584604740143-1.12060546875,1.04315385222435l-22.83251953125,49.996814399957657c-.45849609375,1.004245758056641-.0166015625,2.190185546875.9873046875,2.649509429931641,24.06298828125,11.009414672851562,49.514892578125,18.480010986328125,75.6484375,22.204277038574219.095703125.013626098632812.19091796875.020256042480469.28466796875.020256042480469.978759765625,0,1.833984375-.718879699707031,1.977294921875-1.715644836425781l7.82568359375-54.430658340454102c.075439453125-.525569915771484-.06103515625-1.059616088867188-.379638671875-1.484430313110352-.318603515625-.424831390380859-.79296875-.705539703369141-1.318603515625-.780277252197266-20.571533203125-2.924615859985352-40.6044921875-8.795015335083008-59.5419921875-17.448123097419739-.263427734375-.120357990264893-.547119140625-.180904924869537-.831298828125-.180904924869537h0Z" fill="#181818" stroke-width="0"/>
            </g>
          </a>
          <a xlink:href="https://www.notion.so/dmmnotes/psychopathy-0fe4a3222d9f4fd097ab4546c9776768?pvs=4">
            <path id="AC-2" data-name="AC" d="M300,520c-10.634765625,0-21.076171875-.794921875-31.30810546875-2.25048828125l-7.825683593739996,54.430664062502728c12.788574218739996,1.823486328127728,25.843017578120453,2.81982421875,39.133789062489996,2.81982421875s26.345214843760004-.996337890622272,39.1337890625-2.81982421875l-7.825683593739996-54.430664062502728c-10.229248046890461,1.45556640625-20.673339843760004,2.25048828125-31.308105468760004,2.25048828125Z" fill="#8f807d" stroke="#181818" stroke-linecap="round" stroke-linejoin="round" stroke-width="2"/>
          </a>
        </g>
      </g>
    </g>
  </g>
</svg>