<?xml version="1.0" encoding="UTF-8"?>
<svg id="Layer_1" data-name="Layer 1" xmlns="http://www.w3.org/2000/svg" xmlns:xlink="http://www.w3.org/1999/xlink" viewBox="0 0 600 599.999999999998181">
  <defs>
    <linearGradient id="B4-3" data-name="B4" x1="274.723112131378912" y1="378.332518488947244" x2="320.033822594305889" y2="323.290648731974898" gradientUnits="userSpaceOnUse">
      <stop offset="0" stop-color="#008c8d"/>
      <stop offset=".5" stop-color="#008f82"/>
      <stop offset="1" stop-color="#1f9276"/>
    </linearGradient>
  </defs>
  <g id="pie_with_links_-5" data-name="pie (with links)">
    <g id="pie_with_links_-6" data-name="pie (with links)">
      <g id="Pie">
        <g>
          <a xlink:href="https://www.notion.so/dmmnotes/paranoid-ae38b1e6af0c4dd08f61e0d8f6e9f05f?pvs=4">
            <path id="C8" d="M331.308105468759095,517.749511718748181l7.825683593739086,54.4306640625c26.439208984371362-3.767822265628638,51.645751953139552-11.3115234375,75.101318359371362-22.04296875l-22.832519531239086-49.996826171878638c-18.7666015625,8.572265625-38.93505859375,14.601318359378638-60.094482421871362,17.609130859378638Z" fill="none" stroke="#181818" stroke-linecap="round" stroke-linejoin="round" stroke-width="15"/>
          </a>
          <a xlink:href="https://www.notion.so/dmmnotes/menacing-a5bd7149286344deba45ec15e759e579?pvs=4">
            <path id="C7" d="M391.402587890630457,500.140380859369543l22.832519531239086,49.996826171878638c23.989990234389552-10.975830078117724,46.11621093751819-25.287109375010914,65.803955078139552-42.36181640625l-35.972900390628638-41.515869140617724c-15.753417968760914,13.65869140625-33.459228515632276,25.104492187489086-52.66357421875,33.880859374989086Z" fill="none" stroke="#181818" stroke-linecap="round" stroke-linejoin="round" stroke-width="15"/>
          </a>
          <a xlink:href="https://www.notion.so/dmmnotes/seductively-obsessed-with-rescue-6fb5a68f6d334bc29ccccc16d8a4e56e?pvs=4">
            <path id="C6" d="M444.066162109380457,466.259521484380457l35.972900390628638,41.515869140617724c19.762939453121362-17.141845703128638,37.047119140621362-37.041748046878638,51.26708984375-59.125l-46.223632812510914-29.704833984367724c-11.373291015617724,17.673583984367724-25.201171874989086,33.598876953117724-41.016357421867724,47.31396484375Z" fill="none" stroke="#181818" stroke-linecap="round" stroke-linejoin="round" stroke-width="15"/>
          </a>
          <a xlink:href="https://www.notion.so/dmmnotes/punitively-obsessed-with-revenge-33d2e77f37774316b42bccf4a60f9688?pvs=4">
            <path id="C5" d="M485.082519531248181,418.945556640630457l46.223632812510914,29.704833984367724c14.048095703128638-21.809326171878638,25.08837890625-45.71875,32.551513671871362-71.175048828128638l-52.7548828125-15.490234375c-5.9619140625,20.377929687510914-14.789306640621362,39.509765625-26.020263671882276,56.960449218760914Z" fill="none" stroke="#181818" stroke-linecap="round" stroke-linejoin="round" stroke-width="15"/>
          </a>
          <a xlink:href="https://www.notion.so/dmmnotes/feigned-helpless-e79a94b0498c4e109a681b7f3dcdb088?pvs=4">
            <path id="C4" d="M519.999999999998181,300c0,21.538085937498181-3.142089843739086,42.321533203119543-8.897216796867724,61.985107421869543l52.7548828125,15.490234375c7.2080078125-24.583496093739086,11.142333984367724-50.5634765625,11.142333984367724-77.475341796869543h-55Z" fill="none" stroke="#181818" stroke-linecap="round" stroke-linejoin="round" stroke-width="15"/>
          </a>
          <a xlink:href="https://www.notion.so/dmmnotes/aggressive-2d8ccce383534b9dbfc7b4b10b8a5d5c?pvs=4">
            <path id="C3" d="M519.999999999998181,300h55c0-26.911865234390461-3.934326171867724-52.894531250011823-11.142333984367724-77.475341796890461l-52.7548828125,15.490234375c5.755126953128638,19.663574218760914,8.897216796867724,40.449707031260914,8.897216796867724,61.985107421890461Z" fill="none" stroke="#181818" stroke-linecap="round" stroke-linejoin="round" stroke-width="15"/>
          </a>
          <a xlink:href="https://www.notion.so/dmmnotes/disarming-086276e599884c86b9359acf831a8b20?pvs=4">
            <path id="C2" d="M511.102783203130457,238.014892578109539l52.7548828125-15.490234375c-7.463134765621362-25.456298828121362-18.503417968742724-49.365722656239086-32.551513671871362-71.177734374989086l-46.223632812510914,29.70751953125c11.230957031260914,17.45068359375,20.055664062510914,36.585205078117724,26.020263671882276,56.960449218739086Z" fill="none" stroke="#181818" stroke-linecap="round" stroke-linejoin="round" stroke-width="15"/>
          </a>
          <a xlink:href="https://www.notion.so/dmmnotes/threatening-348fe6a52f7a4fe69f768e98c6586932?pvs=4">
            <path id="C1" d="M485.082519531248181,181.054443359370453l46.223632812510914-29.70751953125c-14.219970703128638-22.08056640625-31.504150390628638-41.980468750010914-51.26708984375-59.122314453120453l-35.972900390628638,41.518554687488177c15.815185546878638,13.71240234375,29.64306640625,29.637695312511823,41.016357421867724,47.311279296882276Z" fill="none" stroke="#181818" stroke-linecap="round" stroke-linejoin="round" stroke-width="15"/>
          </a>
          <a xlink:href="https://www.notion.so/dmmnotes/complaining-acceptance-8b40401a720c493ba73f7cde1567cf3d?pvs=4">
            <path id="B5" d="M444.066162109380457,133.743164062488177l35.972900390628638-41.518554687488177c-19.687744140621362-17.07470703125-41.81396484375-31.388671875-65.803955078139552-42.36181640625l-22.832519531239086,49.99951171875c19.204345703117724,8.773681640620453,36.910156249989086,20.22216796875,52.66357421875,33.880859374988177Z" fill="none" stroke="#181818" stroke-linecap="round" stroke-linejoin="round" stroke-width="15"/>
          </a>
          <a xlink:href="https://www.notion.so/dmmnotes/sentimental-bc554363322342b1b7ca4ccc02125049?pvs=4">
            <g id="B4">
              <path d="M391.40234375,100.862304687494543c-.1416015625,0-.2841796875-.0302734375-.416015625-.09033203125-19.0234375-8.69287109375-39.1494140625-14.59033203125-59.818359375-17.5283203125-.2626953125-.03759765625-.5-.177734375-.6591796875-.39013671875s-.2275390625-.4794921875-.1904296875-.7421875l7.8251953125-54.43359375c.072265625-.49853515625.5-.85791015625.9892578125-.85791015625.046875,0,.09375.00341796875.1416015625.009765625,26.0400390625,3.7109375,51.400390625,11.154296875,75.376953125,22.1240234375.501953125.2294921875.72265625.822265625.4931640625,1.32470703125l-22.8330078125,49.99951171875c-.109375.2412109375-.3115234375.4287109375-.5595703125.521484375-.11328125.0419921875-.2314453125.06298828125-.349609375.06298828125Z" fill="none" stroke="#181818" stroke-linecap="round" stroke-linejoin="round" stroke-width="15"/>
              <path d="M339.1337890625,27.819824218744543c26.439208984375,3.767822265625,51.645751953125,11.3115234375,75.101318359375,22.04296875l-22.83251953125,49.99951171875c-18.7666015625-8.574951171875-38.93505859375-14.601318359375-60.094482421875-17.609130859375l7.82568359375-54.433349609375M339.131317138671875,25.819564819330481c-.97869873046875,0-1.8338623046875.7188720703125-1.9771728515625,1.715652465820312l-7.82568359375,54.433349609375c-.0755615234375.52557373046875.06097412109375,1.05963134765625.3795166015625,1.484451293945312s.792938232421875.705520629882812,1.318634033203125.780242919921875c20.572998046875,2.924453735351562,40.60675048828125,8.79486083984375,59.544769287109375,17.448135375976562.263427734375.120361328125.547119140625.180908203125.83123779296875.180908203125.236358642578125,0,.4730224609375-.0418701171875.69873046875-.12603759765625.497100830078125-.185348510742188.900146484375-.56060791015625,1.120513916015625-1.043167114257812l22.83251953125-49.999526977539062c.4586181640625-1.004241943359375.016754150390625-2.190155029296875-.9871826171875-2.64947509765625-24.062255859375-11.009017944335938-49.5150146484375-18.4796142578125-75.6512451171875-22.20428466796875-.095611572265625-.013626098632812-.190765380859375-.020248413085938-.284637451171875-.020248413085938h0Z" fill="none" stroke="#181818" stroke-linecap="round" stroke-linejoin="round" stroke-width="15"/>
            </g>
          </a>
          <a xlink:href="https://www.notion.so/dmmnotes/comfortably-balanced-e76dc615a8b947aa915377cd02fcf716?pvs=4">
            <path id="B3" d="M299.999999999998181,80c10.634765625,0,21.078857421871362.797607421870453,31.308105468760914,2.253173828120453l7.825683593739086-54.433349609361358c-12.788574218739086-1.823486328138642-25.843017578128638-2.819824218759095-39.1337890625-2.819824218759095-13.290771484367724,0-26.34521484375.996337890620453-39.133789062489086,2.819824218759095l7.825683593739086,54.433349609361358c10.23193359375-1.45556640625,20.67333984375-2.253173828120453,31.30810546875-2.253173828120453Z" fill="none" stroke="#181818" stroke-linecap="round" stroke-linejoin="round" stroke-width="15"/>
          </a>
          <a xlink:href="https://www.notion.so/dmmnotes/accepting-317d81273fff4cd9817cdf4a88efd378?pvs=4">
            <path id="B2" d="M268.691894531248181,82.253173828120453l-7.825683593739086-54.433349609361358c-26.439208984389552,3.767822265600444-51.643066406260914,11.311523437490905-75.098632812510914,22.042968749990905l22.83251953125,49.99951171875c18.7666015625-8.574951171890461,38.93505859375-14.601318359379547,60.091796875-17.609130859379547Z" fill="none" stroke="#181818" stroke-linecap="round" stroke-linejoin="round" stroke-width="15"/>
          </a>
          <a xlink:href="https://www.notion.so/dmmnotes/distanced-from-past-2eabab7e9c77429f8e577f4e3e203653?pvs=4">
            <path id="B1" d="M208.600097656248181,99.8623046875l-22.83251953125-49.99951171875c-23.99267578125,10.97314453125-46.1162109375,25.287109375-65.803955078117724,42.36181640625l35.972900390617724,41.515869140620453c15.75341796875-13.658691406260914,33.4619140625-25.1044921875,52.66357421875-33.878173828120453Z" fill="none" stroke="#181818" stroke-linecap="round" stroke-linejoin="round" stroke-width="15"/>
          </a>
          <a xlink:href="https://www.notion.so/dmmnotes/idealising-a52277f51ed14a42aae78081bb34b8be?pvs=4">
            <path id="A1" d="M155.936523437498181,133.740478515620453l-35.972900390617724-41.515869140620453c-19.765625,17.141845703109539-37.049804687510914,37.041748046870453-51.269775390632276,59.122314453120453l46.226318359371362,29.70751953125c11.373291015639552-17.673583984370453,25.201171875010914-33.598876953132276,41.016357421878638-47.31396484375Z" fill="none" stroke="#181818" stroke-linecap="round" stroke-linejoin="round" stroke-width="15"/>
          </a>
          <a xlink:href="https://www.notion.so/dmmnotes/distancing-9ac690cdca654729a17a5a255944e2d1?pvs=4">
            <path id="A2" d="M114.920166015619543,181.054443359370453l-46.226318359371362-29.70751953125c-14.04541015625,21.81201171875-25.08837890625,45.721435546867724-32.551513671878638,71.177734374989086l52.754882812510914,15.490234375c5.964599609367724-20.375244140621362,14.7919921875-39.509765624989086,26.022949218739086-56.960449218739086Z" fill="none" stroke="#181818" stroke-linecap="round" stroke-linejoin="round" stroke-width="15"/>
          </a>
          <a xlink:href="https://www.notion.so/dmmnotes/compulsive-caregiving-9c380c0928294f41ae10764aa0dee886?pvs=4">
            <path id="A3" d="M88.897216796880457,238.014892578109539l-52.754882812510914-15.490234375c-7.205322265621362,24.580810546878638-11.142333984371362,50.5634765625-11.142333984371362,77.475341796890461h55c0-21.535400390629547,3.14208984375-42.321533203129547,8.897216796882276-61.985107421890461Z" fill="none" stroke="#181818" stroke-linecap="round" stroke-linejoin="round" stroke-width="15"/>
          </a>
          <a xlink:href="https://www.notion.so/dmmnotes/compulsive-compliance-6d08b7ea9a424ce1a72b9184b7850414?pvs=4">
            <path id="A4" d="M79.999999999998181,300H24.999999999998181c0,26.911865234369543,3.93701171875,52.894531249987267,11.142333984371362,77.475341796869543l52.754882812510914-15.490234375c-5.755126953132276-19.66357421875-8.897216796882276-40.447021484371362-8.897216796882276-61.985107421869543Z" fill="none" stroke="#181818" stroke-linecap="round" stroke-linejoin="round" stroke-width="15"/>
          </a>
          <a xlink:href="https://www.notion.so/dmmnotes/sexual-supplementation-8e85f49046ef412aa229745abf7d38d3?pvs=4">
            <path id="A5" d="M88.897216796880457,361.985107421869543l-52.754882812510914,15.490234375c7.463134765628638,25.456298828128638,18.506103515628638,49.36572265625,32.551513671878638,71.175048828128638l46.223632812510914-29.704833984367724c-11.230957031260914-17.450683593760914-20.055664062510914-36.58251953125-26.020263671878638-56.960449218760914Z" fill="none" stroke="#181818" stroke-linecap="round" stroke-linejoin="round" stroke-width="15"/>
          </a>
          <a xlink:href="https://www.notion.so/dmmnotes/compulsive-isolated-self-reliance-b321873a73fa41aaaadd7192fde856a2?pvs=4">
            <path id="A6" d="M114.917480468759095,418.945556640630457l-46.223632812510914,29.704833984367724c14.219970703121362,22.083251953121362,31.504150390632276,41.983154296871362,51.269775390632276,59.125l35.972900390617724-41.515869140617724c-15.815185546867724-13.712402343760914-29.643066406239086-29.637695312510914-41.019042968739086-47.31396484375Z" fill="none" stroke="#181818" stroke-linecap="round" stroke-linejoin="round" stroke-width="15"/>
          </a>
          <a xlink:href="https://www.notion.so/dmmnotes/delusional-idealization-743e2420b9994a48a7cab68190432e8a?pvs=4">
            <path id="A7" d="M155.936523437498181,466.259521484380457l-35.972900390617724,41.515869140617724c19.687744140617724,17.074707031239086,41.811279296867724,31.385986328132276,65.803955078117724,42.36181640625l22.83251953125-49.996826171878638c-19.20166015625-8.773681640621362-36.91015625-20.222167968739086-52.66357421875-33.880859374989086Z" fill="none" stroke="#181818" stroke-linecap="round" stroke-linejoin="round" stroke-width="15"/>
          </a>
          <a xlink:href="https://www.notion.so/dmmnotes/externally-assembled-self-994ecb0895b844409b931d74a045c162?pvs=4">
            <path id="A8" d="M208.600097656248181,500.140380859369543l-22.83251953125,49.996826171878638c23.45556640625,10.7314453125,48.659423828121362,18.275146484371362,75.098632812510914,22.04296875l7.825683593739086-54.4306640625c-21.15673828125-3.0078125-41.3251953125-9.0341796875-60.091796875-17.609130859378638Z" fill="none" stroke="#181818" stroke-linecap="round" stroke-linejoin="round" stroke-width="15"/>
          </a>
          <a xlink:href="https://www.notion.so/dmmnotes/psychopathy-0fe4a3222d9f4fd097ab4546c9776768?pvs=4">
            <path id="AC" d="M299.999999999998181,519.999999999998181c-10.634765625,0-21.076171875-.794921875-31.30810546875-2.25048828125l-7.825683593739086,54.4306640625c12.788574218739086,1.823486328132276,25.843017578121362,2.81982421875,39.133789062489086,2.81982421875,13.290771484371362,0,26.345214843760914-.996337890617724,39.1337890625-2.81982421875l-7.825683593739086-54.4306640625c-10.229248046889552,1.45556640625-20.673339843760914,2.25048828125-31.308105468760914,2.25048828125Z" fill="none" stroke="#181818" stroke-linecap="round" stroke-linejoin="round" stroke-width="15"/>
          </a>
        </g>
        <g>
          <a xlink:href="https://www.notion.so/dmmnotes/paranoid-ae38b1e6af0c4dd08f61e0d8f6e9f05f?pvs=4">
            <path id="C8-2" data-name="C8" d="M331.308105468759095,517.749511718748181l7.825683593739086,54.4306640625c26.439208984371362-3.767822265628638,51.645751953139552-11.3115234375,75.101318359371362-22.04296875l-22.832519531239086-49.996826171878638c-18.7666015625,8.572265625-38.93505859375,14.601318359378638-60.094482421871362,17.609130859378638Z" fill="#8f807d" stroke="#181818" stroke-linecap="round" stroke-linejoin="round" stroke-width="2"/>
          </a>
          <a xlink:href="https://www.notion.so/dmmnotes/menacing-a5bd7149286344deba45ec15e759e579?pvs=4">
            <path id="C7-2" data-name="C7" d="M391.402587890630457,500.140380859369543l22.832519531239086,49.996826171878638c23.989990234389552-10.975830078117724,46.11621093751819-25.287109375010914,65.803955078139552-42.36181640625l-35.972900390628638-41.515869140617724c-15.753417968760914,13.65869140625-33.459228515632276,25.104492187489086-52.66357421875,33.880859374989086Z" fill="#8f807d" stroke="#181818" stroke-linecap="round" stroke-linejoin="round" stroke-width="2"/>
          </a>
          <a xlink:href="https://www.notion.so/dmmnotes/seductively-obsessed-with-rescue-6fb5a68f6d334bc29ccccc16d8a4e56e?pvs=4">
            <path id="C6-2" data-name="C6" d="M444.066162109380457,466.259521484380457l35.972900390628638,41.515869140617724c19.762939453121362-17.141845703128638,37.047119140621362-37.041748046878638,51.26708984375-59.125l-46.223632812510914-29.704833984367724c-11.373291015617724,17.673583984367724-25.201171874989086,33.598876953117724-41.016357421867724,47.31396484375Z" fill="#8f807d" stroke="#181818" stroke-linecap="round" stroke-linejoin="round" stroke-width="2"/>
          </a>
          <a xlink:href="https://www.notion.so/dmmnotes/punitively-obsessed-with-revenge-33d2e77f37774316b42bccf4a60f9688?pvs=4">
            <path id="C5-2" data-name="C5" d="M485.082519531248181,418.945556640630457l46.223632812510914,29.704833984367724c14.048095703128638-21.809326171878638,25.08837890625-45.71875,32.551513671871362-71.175048828128638l-52.7548828125-15.490234375c-5.9619140625,20.377929687510914-14.789306640621362,39.509765625-26.020263671882276,56.960449218760914Z" fill="#8f807d" stroke="#181818" stroke-linecap="round" stroke-linejoin="round" stroke-width="2"/>
          </a>
          <a xlink:href="https://www.notion.so/dmmnotes/feigned-helpless-e79a94b0498c4e109a681b7f3dcdb088?pvs=4">
            <path id="C4-2" data-name="C4" d="M519.999999999998181,300c0,21.538085937498181-3.142089843739086,42.321533203119543-8.897216796867724,61.985107421869543l52.7548828125,15.490234375c7.2080078125-24.583496093739086,11.142333984367724-50.5634765625,11.142333984367724-77.475341796869543h-55Z" fill="#8f807d" stroke="#181818" stroke-linecap="round" stroke-linejoin="round" stroke-width="2"/>
          </a>
          <a xlink:href="https://www.notion.so/dmmnotes/aggressive-2d8ccce383534b9dbfc7b4b10b8a5d5c?pvs=4">
            <path id="C3-2" data-name="C3" d="M519.999999999998181,300h55c0-26.911865234390461-3.934326171867724-52.894531250011823-11.142333984367724-77.475341796890461l-52.7548828125,15.490234375c5.755126953128638,19.663574218760914,8.897216796867724,40.449707031260914,8.897216796867724,61.985107421890461Z" fill="#8f807d" stroke="#181818" stroke-linecap="round" stroke-linejoin="round" stroke-width="2"/>
          </a>
          <a xlink:href="https://www.notion.so/dmmnotes/disarming-086276e599884c86b9359acf831a8b20?pvs=4">
            <path id="C2-2" data-name="C2" d="M511.102783203130457,238.014892578109539l52.7548828125-15.490234375c-7.463134765621362-25.456298828121362-18.503417968742724-49.365722656239086-32.551513671871362-71.177734374989086l-46.223632812510914,29.70751953125c11.230957031260914,17.45068359375,20.055664062510914,36.585205078117724,26.020263671882276,56.960449218739086Z" fill="#8f807d" stroke="#181818" stroke-linecap="round" stroke-linejoin="round" stroke-width="2"/>
          </a>
          <a xlink:href="https://www.notion.so/dmmnotes/threatening-348fe6a52f7a4fe69f768e98c6586932?pvs=4">
            <path id="C1-2" data-name="C1" d="M485.082519531248181,181.054443359370453l46.223632812510914-29.70751953125c-14.219970703128638-22.08056640625-31.504150390628638-41.980468750010914-51.26708984375-59.122314453120453l-35.972900390628638,41.518554687488177c15.815185546878638,13.71240234375,29.64306640625,29.637695312511823,41.016357421867724,47.311279296882276Z" fill="#8f807d" stroke="#181818" stroke-linecap="round" stroke-linejoin="round" stroke-width="2"/>
          </a>
          <a xlink:href="https://www.notion.so/dmmnotes/complaining-acceptance-8b40401a720c493ba73f7cde1567cf3d?pvs=4">
            <path id="B5-2" data-name="B5" d="M444.066162109380457,133.743164062488177l35.972900390628638-41.518554687488177c-19.687744140621362-17.07470703125-41.81396484375-31.388671875-65.803955078139552-42.36181640625l-22.832519531239086,49.99951171875c19.204345703117724,8.773681640620453,36.910156249989086,20.22216796875,52.66357421875,33.880859374988177Z" fill="#8f807d" stroke="#181818" stroke-linecap="round" stroke-linejoin="round" stroke-width="2"/>
          </a>
          <a xlink:href="https://www.notion.so/dmmnotes/sentimental-bc554363322342b1b7ca4ccc02125049?pvs=4">
            <g id="B4-2" data-name="B4">
              <path d="M391.40234375,100.862304687494543c-.1416015625,0-.2841796875-.0302734375-.416015625-.09033203125-19.0234375-8.69287109375-39.1494140625-14.59033203125-59.818359375-17.5283203125-.2626953125-.03759765625-.5-.177734375-.6591796875-.39013671875s-.2275390625-.4794921875-.1904296875-.7421875l7.8251953125-54.43359375c.072265625-.49853515625.5-.85791015625.9892578125-.85791015625.046875,0,.09375.00341796875.1416015625.009765625,26.0400390625,3.7109375,51.400390625,11.154296875,75.376953125,22.1240234375.501953125.2294921875.72265625.822265625.4931640625,1.32470703125l-22.8330078125,49.99951171875c-.109375.2412109375-.3115234375.4287109375-.5595703125.521484375-.11328125.0419921875-.2314453125.06298828125-.349609375.06298828125Z" fill="#2c8d7e" stroke-width="0"/>
              <path d="M339.1337890625,27.819824218744543c26.439208984375,3.767822265625,51.645751953125,11.3115234375,75.101318359375,22.04296875l-22.83251953125,49.99951171875c-18.7666015625-8.574951171875-38.93505859375-14.601318359375-60.094482421875-17.609130859375l7.82568359375-54.433349609375M339.131317138671875,25.819564819330481c-.97869873046875,0-1.8338623046875.7188720703125-1.9771728515625,1.715652465820312l-7.82568359375,54.433349609375c-.0755615234375.52557373046875.06097412109375,1.05963134765625.3795166015625,1.484451293945312s.792938232421875.705520629882812,1.318634033203125.780242919921875c20.572998046875,2.924453735351562,40.60675048828125,8.79486083984375,59.544769287109375,17.448135375976562.263427734375.120361328125.547119140625.180908203125.83123779296875.180908203125.236358642578125,0,.4730224609375-.0418701171875.69873046875-.12603759765625.497100830078125-.185348510742188.900146484375-.56060791015625,1.120513916015625-1.043167114257812l22.83251953125-49.999526977539062c.4586181640625-1.004241943359375.016754150390625-2.190155029296875-.9871826171875-2.64947509765625-24.062255859375-11.009017944335938-49.5150146484375-18.4796142578125-75.6512451171875-22.20428466796875-.095611572265625-.013626098632812-.190765380859375-.020248413085938-.284637451171875-.020248413085938h0Z" fill="#181818" stroke-width="0"/>
            </g>
          </a>
          <a xlink:href="https://www.notion.so/dmmnotes/comfortably-balanced-e76dc615a8b947aa915377cd02fcf716?pvs=4">
            <path id="B3-2" data-name="B3" d="M299.999999999998181,80c10.634765625,0,21.078857421871362.797607421870453,31.308105468760914,2.253173828120453l7.825683593739086-54.433349609361358c-12.788574218739086-1.823486328138642-25.843017578128638-2.819824218759095-39.1337890625-2.819824218759095-13.290771484367724,0-26.34521484375.996337890620453-39.133789062489086,2.819824218759095l7.825683593739086,54.433349609361358c10.23193359375-1.45556640625,20.67333984375-2.253173828120453,31.30810546875-2.253173828120453Z" fill="#8f807d" stroke="#181818" stroke-linecap="round" stroke-linejoin="round" stroke-width="2"/>
          </a>
          <a xlink:href="https://www.notion.so/dmmnotes/accepting-317d81273fff4cd9817cdf4a88efd378?pvs=4">
            <path id="B2-2" data-name="B2" d="M268.691894531248181,82.253173828120453l-7.825683593739086-54.433349609361358c-26.439208984389552,3.767822265600444-51.643066406260914,11.311523437490905-75.098632812510914,22.042968749990905l22.83251953125,49.99951171875c18.7666015625-8.574951171890461,38.93505859375-14.601318359379547,60.091796875-17.609130859379547Z" fill="#8f807d" stroke="#181818" stroke-linecap="round" stroke-linejoin="round" stroke-width="2"/>
          </a>
          <a xlink:href="https://www.notion.so/dmmnotes/distanced-from-past-2eabab7e9c77429f8e577f4e3e203653?pvs=4">
            <path id="B1-2" data-name="B1" d="M208.600097656248181,99.8623046875l-22.83251953125-49.99951171875c-23.99267578125,10.97314453125-46.1162109375,25.287109375-65.803955078117724,42.36181640625l35.972900390617724,41.515869140620453c15.75341796875-13.658691406260914,33.4619140625-25.1044921875,52.66357421875-33.878173828120453Z" fill="#8f807d" stroke="#181818" stroke-linecap="round" stroke-linejoin="round" stroke-width="2"/>
          </a>
          <a xlink:href="https://www.notion.so/dmmnotes/idealising-a52277f51ed14a42aae78081bb34b8be?pvs=4">
            <path id="A1-2" data-name="A1" d="M155.936523437498181,133.740478515620453l-35.972900390617724-41.515869140620453c-19.765625,17.141845703109539-37.049804687510914,37.041748046870453-51.269775390632276,59.122314453120453l46.226318359371362,29.70751953125c11.373291015639552-17.673583984370453,25.201171875010914-33.598876953132276,41.016357421878638-47.31396484375Z" fill="#8f807d" stroke="#181818" stroke-linecap="round" stroke-linejoin="round" stroke-width="2"/>
          </a>
          <a xlink:href="https://www.notion.so/dmmnotes/distancing-9ac690cdca654729a17a5a255944e2d1?pvs=4">
            <path id="A2-2" data-name="A2" d="M114.920166015619543,181.054443359370453l-46.226318359371362-29.70751953125c-14.04541015625,21.81201171875-25.08837890625,45.721435546867724-32.551513671878638,71.177734374989086l52.754882812510914,15.490234375c5.964599609367724-20.375244140621362,14.7919921875-39.509765624989086,26.022949218739086-56.960449218739086Z" fill="#8f807d" stroke="#181818" stroke-linecap="round" stroke-linejoin="round" stroke-width="2"/>
          </a>
          <a xlink:href="https://www.notion.so/dmmnotes/compulsive-caregiving-9c380c0928294f41ae10764aa0dee886?pvs=4">
            <path id="A3-2" data-name="A3" d="M88.897216796880457,238.014892578109539l-52.754882812510914-15.490234375c-7.205322265621362,24.580810546878638-11.142333984371362,50.5634765625-11.142333984371362,77.475341796890461h55c0-21.535400390629547,3.14208984375-42.321533203129547,8.897216796882276-61.985107421890461Z" fill="#8f807d" stroke="#181818" stroke-linecap="round" stroke-linejoin="round" stroke-width="2"/>
          </a>
          <a xlink:href="https://www.notion.so/dmmnotes/compulsive-compliance-6d08b7ea9a424ce1a72b9184b7850414?pvs=4">
            <path id="A4-2" data-name="A4" d="M79.999999999998181,300H24.999999999998181c0,26.911865234369543,3.93701171875,52.894531249987267,11.142333984371362,77.475341796869543l52.754882812510914-15.490234375c-5.755126953132276-19.66357421875-8.897216796882276-40.447021484371362-8.897216796882276-61.985107421869543Z" fill="#8f807d" stroke="#181818" stroke-linecap="round" stroke-linejoin="round" stroke-width="2"/>
          </a>
          <a xlink:href="https://www.notion.so/dmmnotes/sexual-supplementation-8e85f49046ef412aa229745abf7d38d3?pvs=4">
            <path id="A5-2" data-name="A5" d="M88.897216796880457,361.985107421869543l-52.754882812510914,15.490234375c7.463134765628638,25.456298828128638,18.506103515628638,49.36572265625,32.551513671878638,71.175048828128638l46.223632812510914-29.704833984367724c-11.230957031260914-17.450683593760914-20.055664062510914-36.58251953125-26.020263671878638-56.960449218760914Z" fill="#8f807d" stroke="#181818" stroke-linecap="round" stroke-linejoin="round" stroke-width="2"/>
          </a>
          <a xlink:href="https://www.notion.so/dmmnotes/compulsive-isolated-self-reliance-b321873a73fa41aaaadd7192fde856a2?pvs=4">
            <path id="A6-2" data-name="A6" d="M114.917480468759095,418.945556640630457l-46.223632812510914,29.704833984367724c14.219970703121362,22.083251953121362,31.504150390632276,41.983154296871362,51.269775390632276,59.125l35.972900390617724-41.515869140617724c-15.815185546867724-13.712402343760914-29.643066406239086-29.637695312510914-41.019042968739086-47.31396484375Z" fill="#8f807d" stroke="#181818" stroke-linecap="round" stroke-linejoin="round" stroke-width="2"/>
          </a>
          <a xlink:href="https://www.notion.so/dmmnotes/delusional-idealization-743e2420b9994a48a7cab68190432e8a?pvs=4">
            <path id="A7-2" data-name="A7" d="M155.936523437498181,466.259521484380457l-35.972900390617724,41.515869140617724c19.687744140617724,17.074707031239086,41.811279296867724,31.385986328132276,65.803955078117724,42.36181640625l22.83251953125-49.996826171878638c-19.20166015625-8.773681640621362-36.91015625-20.222167968739086-52.66357421875-33.880859374989086Z" fill="#8f807d" stroke="#181818" stroke-linecap="round" stroke-linejoin="round" stroke-width="2"/>
          </a>
          <a xlink:href="https://www.notion.so/dmmnotes/externally-assembled-self-994ecb0895b844409b931d74a045c162?pvs=4">
            <path id="A8-2" data-name="A8" d="M208.600097656248181,500.140380859369543l-22.83251953125,49.996826171878638c23.45556640625,10.7314453125,48.659423828121362,18.275146484371362,75.098632812510914,22.04296875l7.825683593739086-54.4306640625c-21.15673828125-3.0078125-41.3251953125-9.0341796875-60.091796875-17.609130859378638Z" fill="#8f807d" stroke="#181818" stroke-linecap="round" stroke-linejoin="round" stroke-width="2"/>
          </a>
          <a xlink:href="https://www.notion.so/dmmnotes/psychopathy-0fe4a3222d9f4fd097ab4546c9776768?pvs=4">
            <path id="AC-2" data-name="AC" d="M299.999999999998181,519.999999999998181c-10.634765625,0-21.076171875-.794921875-31.30810546875-2.25048828125l-7.825683593739086,54.4306640625c12.788574218739086,1.823486328132276,25.843017578121362,2.81982421875,39.133789062489086,2.81982421875,13.290771484371362,0,26.345214843760914-.996337890617724,39.1337890625-2.81982421875l-7.825683593739086-54.4306640625c-10.229248046889552,1.45556640625-20.673339843760914,2.25048828125-31.308105468760914,2.25048828125Z" fill="#8f807d" stroke="#181818" stroke-linecap="round" stroke-linejoin="round" stroke-width="2"/>
          </a>
        </g>
      </g>
      <a xlink:href="https://www.notion.so/dmmnotes/B5-8b40401a720c493ba73f7cde1567cf3d?pvs=4#a11cc441cb204c82a43dfc3e3b7e8747">
        <g id="B5-3" data-name="B5">
          <g id="B5-4" data-name="B5">
            <path d="M300.0546875,414.710937499994543c-23.908203125-.0009765625-46.1787109375-12.8505859375-58.12060546875-33.5341796875-8.95458984375-15.509765625-11.33349609375-33.578125-6.6982421875-50.8779296875,4.63525390625-17.298828125,15.72998046875-31.7578125,31.23974609375-40.71240234375,10.189453125-5.8828125,21.76318359375-8.99267578125,33.4697265625-8.99267578125,23.908203125,0,46.1787109375,12.849609375,58.12109375,33.5341796875,18.4853515625,32.017578125,7.4755859375,73.10546875-24.5419921875,91.5908203125-10.189453125,5.8828125-21.7626953125,8.9921875-33.46728515625,8.9921875h-.00244140625Z" fill="url(#B4-3)" stroke-width="0"/>
            <path d="M299.945526123046875,289.093933105463293c20.233734130859375,0,39.91534423828125,10.501800537109375,50.759307861328125,29.28411865234375,16.167755126953125,28.00347900390625,6.5731201171875,63.811309814453125-21.4302978515625,79.97906494140625-9.22113037109375,5.32379150390625-19.28607177734375,7.85382080078125-29.2197265625,7.85382080078125-20.2337646484375,0-39.915374755859375-10.5018310546875-50.75933837890625-29.28411865234375-16.167755126953125-28.00341796875-6.5731201171875-63.811279296875,21.43035888671875-79.97906494140625,9.221099853515625-5.32379150390625,19.286041259765625-7.85382080078125,29.219696044921875-7.85382080078125M299.945526123046875,272.093933105463293c-13.1964111328125,0-26.239654541015625,3.50335693359375-37.719696044921875,10.13140869140625-17.476242065429688,10.089874267578125-29.97723388671875,26.3814697265625-35.200119018554688,45.8736572265625-5.222946166992188,19.4921875-2.542587280273438,39.851593017578125,7.547348022460938,57.32781982421875,13.455703735351562,23.3060302734375,38.546875,37.78411865234375,65.481781005859375,37.78411865234375,13.1964111328125,0,26.2396240234375-3.50335693359375,37.719696044921875-10.13140869140625,36.07659912109375-20.82879638671875,48.481536865234375-67.124755859375,27.65277099609375-103.20147705078125-13.455780029296875-23.306060791015625-38.54693603515625-37.78411865234375-65.481781005859375-37.78411865234375h0Z" fill="#181818" stroke-width="0"/>
          </g>
          <a xlink:href="https://www.notion.so/dmmnotes/B5-8b40401a720c493ba73f7cde1567cf3d?pvs=4#a11cc441cb204c82a43dfc3e3b7e8747">
            <g>
              <g>
                <path d="M284.30078125,266.791992187494543c4.6044921875,3.5595703125,8.03125,7.982421875,10.283203125,13.2666015625,2.25,5.287109375,2.9560546875,10.7548828125,2.119140625,16.40625-.94140625,6.3857421875-3.453125,11.7509765625-7.53515625,16.0927734375-4.08203125,4.3447265625-8.8974609375,7.771484375-14.4443359375,10.283203125-5.548828125,2.5126953125-11.5400390625,4.1875-17.9765625,5.0244140625s-12.4814453125.9423828125-18.1337890625.314453125c-.5244140625.2080078125-.99609375.337890625-1.4130859375.392578125-.4189453125.05078125-.8896484375.1298828125-1.4130859375.2353515625-1.8837890625.1025390625-3.8212890625.1025390625-5.80859375,0-1.9892578125-.10546875-3.794921875-.447265625-5.416015625-1.0205078125-1.6240234375-.57421875-3.0107421875-1.5166015625-4.1611328125-2.826171875-1.15234375-1.3076171875-1.83203125-3.1650390625-2.041015625-5.5732421875-.2109375-1.1513671875-.2626953125-3.478515625-.1572265625-6.9873046875.103515625-3.5048828125.208984375-7.771484375.314453125-12.794921875.208984375-5.126953125.392578125-10.701171875.5498046875-16.720703125.15625-6.017578125.287109375-12.0615234375.392578125-18.1337890625.1025390625-7.953125.2080078125-15.9599609375.3134765625-24.0205078125.103515625-8.05859375-.2109375-16.1708984375-.94140625-24.3349609375-.2119140625-.9423828125-.10546875-1.7783203125.3134765625-2.51171875.208984375-.62890625.6796875-1.2294921875,1.4130859375-1.8056640625.7314453125-.57421875,1.830078125-.966796875,3.296875-1.177734375,1.044921875-.103515625,2.1982421875-.259765625,3.4541015625-.470703125,1.255859375-.208984375,2.5634765625-.3662109375,3.9248046875-.4716796875,1.359375-.1025390625,2.6689453125-.1025390625,3.9248046875,0,1.2568359375.10546875,2.35546875.314453125,3.2978515625.6279296875,5.337890625-.73046875,10.935546875-.7578125,16.798828125-.078125,5.8603515625.681640625,11.3818359375,2.068359375,16.5634765625,4.16015625,5.1806640625,2.095703125,9.6796875,4.89453125,13.501953125,8.3994140625,3.8193359375,3.5087890625,6.3583984375,7.771484375,7.6142578125,12.7958984375.5224609375,2.1982421875.8369140625,4.501953125.9423828125,6.908203125.1025390625,2.4091796875-.1572265625,4.8935546875-.78515625,7.45703125-.6279296875,2.56640625-1.6484375,5.2353515625-3.0615234375,8.0068359375-1.4130859375,2.775390625-3.32421875,5.6279296875-5.73046875,8.556640625ZM243.48046875,257.529296874994543c5.0244140625.2109375,9.2626953125-.314453125,12.716796875-1.5703125s6.044921875-2.904296875,7.771484375-4.9453125c1.7275390625-2.041015625,2.5634765625-4.263671875,2.5126953125-6.6728515625-.0546875-2.40625-.9697265625-4.552734375-2.748046875-6.4365234375-1.78125-1.8837890625-4.4501953125-3.3212890625-8.0068359375-4.3173828125-3.5595703125-.9931640625-8.060546875-1.1240234375-13.501953125-.392578125.3134765625,4.08203125.5498046875,8.1123046875.7060546875,12.0888671875.1572265625,3.9794921875.3388671875,8.0615234375.5498046875,12.24609375ZM243.951171875,303.059570312494543c5.65234375.6279296875,10.4140625.3681640625,14.287109375-.78515625,3.87109375-1.150390625,6.775390625-2.720703125,8.7138671875-4.7099609375,1.935546875-1.9873046875,2.9287109375-4.1337890625,2.9833984375-6.4375.05078125-2.30078125-.8642578125-4.2900390625-2.748046875-5.9658203125-1.8837890625-1.6728515625-4.763671875-2.798828125-8.634765625-3.375-3.8740234375-.57421875-8.740234375-.181640625-14.6015625,1.1767578125v20.0966796875Z" fill="none" stroke="#181818" stroke-linecap="round" stroke-linejoin="round" stroke-width="33"/>
                <path d="M380.0703125,320.800781249994543c-.2109375,1.15234375-.576171875,2.251953125-1.0986328125,3.296875-.525390625.8388671875-1.310546875,1.6240234375-2.35546875,2.3544921875-1.046875.7333984375-2.4599609375,1.2021484375-4.23828125,1.4130859375-1.78125.208984375-3.638671875.3388671875-5.57421875.392578125-1.9375.0517578125-3.7431640625-.1328125-5.416015625-.5498046875-1.67578125-.4189453125-3.140625-1.1767578125-4.396484375-2.2763671875-1.255859375-1.0986328125-2.041015625-2.7470703125-2.3544921875-4.9453125-.2109375-1.150390625-.314453125-3.505859375-.314453125-7.0654296875,0-3.556640625.0517578125-7.9521484375.1572265625-13.1875-7.2216796875,0-14.470703125-.1298828125-21.744140625-.392578125-7.2763671875-.259765625-14.6796875-.4951171875-22.2158203125-.7060546875-.314453125.10546875-.681640625,0-1.0986328125-.314453125-.314453125-.208984375-.6279296875-.6796875-.9423828125-1.4130859375-.314453125-.73046875-.576171875-1.830078125-.78515625-3.296875-.10546875-.7314453125-.2626953125-1.908203125-.470703125-3.5322265625-.2109375-1.6220703125-.392578125-3.3486328125-.5498046875-5.181640625-.1572265625-1.830078125-.2353515625-3.556640625-.2353515625-5.1806640625,0-1.62109375.259765625-2.8505859375.78515625-3.689453125.4169921875-.7314453125,1.46484375-2.013671875,3.1396484375-3.8466796875,1.6728515625-1.830078125,3.7138671875-4.1064453125,6.123046875-6.8291015625,6.0693359375-6.5947265625,12.03515625-13.345703125,17.8984375-20.2529296875,5.8603515625-6.908203125,11.6689453125-14.287109375,17.4267578125-22.1376953125,1.044921875-1.4638671875,2.013671875-2.58984375,2.904296875-3.375.888671875-.78515625,2.4853515625-1.2802734375,4.7890625-1.4912109375,2.197265625-.208984375,4.9453125-.4443359375,8.2421875-.70703125,3.296875-.259765625,6.095703125-.078125,8.3994140625.5498046875.5224609375.3134765625,1.0205078125.7060546875,1.4912109375,1.177734375.4716796875.470703125.7587890625,1.07421875.8642578125,1.8046875.4169921875,2.6181640625.65234375,5.078125.7060546875,7.37890625.0517578125,2.3037109375.1298828125,4.501953125.2353515625,6.5947265625l.6279296875,85.408203125ZM341.919921875,274.956054687494543c2.197265625-.1025390625,4.3955078125-.181640625,6.59375-.2353515625,2.1982421875-.0517578125,4.3955078125-.078125,6.59375-.078125,0-2.826171875.0517578125-5.65234375.1572265625-8.478515625.1025390625-2.826171875.259765625-5.7548828125.470703125-8.7919921875-2.1982421875,3.037109375-4.4501953125,5.9931640625-6.7509765625,8.87109375-2.3037109375,2.8798828125-4.658203125,5.7841796875-7.064453125,8.712890625Z" fill="none" stroke="#181818" stroke-linecap="round" stroke-linejoin="round" stroke-width="33"/>
              </g>
              <g>
                <path d="M284.30078125,266.791992187494543c4.6044921875,3.5595703125,8.03125,7.982421875,10.283203125,13.2666015625,2.25,5.287109375,2.9560546875,10.7548828125,2.119140625,16.40625-.94140625,6.3857421875-3.453125,11.7509765625-7.53515625,16.0927734375-4.08203125,4.3447265625-8.8974609375,7.771484375-14.4443359375,10.283203125-5.548828125,2.5126953125-11.5400390625,4.1875-17.9765625,5.0244140625s-12.4814453125.9423828125-18.1337890625.314453125c-.5244140625.2080078125-.99609375.337890625-1.4130859375.392578125-.4189453125.05078125-.8896484375.1298828125-1.4130859375.2353515625-1.8837890625.1025390625-3.8212890625.1025390625-5.80859375,0-1.9892578125-.10546875-3.794921875-.447265625-5.416015625-1.0205078125-1.6240234375-.57421875-3.0107421875-1.5166015625-4.1611328125-2.826171875-1.15234375-1.3076171875-1.83203125-3.1650390625-2.041015625-5.5732421875-.2109375-1.1513671875-.2626953125-3.478515625-.1572265625-6.9873046875.103515625-3.5048828125.208984375-7.771484375.314453125-12.794921875.208984375-5.126953125.392578125-10.701171875.5498046875-16.720703125.15625-6.017578125.287109375-12.0615234375.392578125-18.1337890625.1025390625-7.953125.2080078125-15.9599609375.3134765625-24.0205078125.103515625-8.05859375-.2109375-16.1708984375-.94140625-24.3349609375-.2119140625-.9423828125-.10546875-1.7783203125.3134765625-2.51171875.208984375-.62890625.6796875-1.2294921875,1.4130859375-1.8056640625.7314453125-.57421875,1.830078125-.966796875,3.296875-1.177734375,1.044921875-.103515625,2.1982421875-.259765625,3.4541015625-.470703125,1.255859375-.208984375,2.5634765625-.3662109375,3.9248046875-.4716796875,1.359375-.1025390625,2.6689453125-.1025390625,3.9248046875,0,1.2568359375.10546875,2.35546875.314453125,3.2978515625.6279296875,5.337890625-.73046875,10.935546875-.7578125,16.798828125-.078125,5.8603515625.681640625,11.3818359375,2.068359375,16.5634765625,4.16015625,5.1806640625,2.095703125,9.6796875,4.89453125,13.501953125,8.3994140625,3.8193359375,3.5087890625,6.3583984375,7.771484375,7.6142578125,12.7958984375.5224609375,2.1982421875.8369140625,4.501953125.9423828125,6.908203125.1025390625,2.4091796875-.1572265625,4.8935546875-.78515625,7.45703125-.6279296875,2.56640625-1.6484375,5.2353515625-3.0615234375,8.0068359375-1.4130859375,2.775390625-3.32421875,5.6279296875-5.73046875,8.556640625ZM243.48046875,257.529296874994543c5.0244140625.2109375,9.2626953125-.314453125,12.716796875-1.5703125s6.044921875-2.904296875,7.771484375-4.9453125c1.7275390625-2.041015625,2.5634765625-4.263671875,2.5126953125-6.6728515625-.0546875-2.40625-.9697265625-4.552734375-2.748046875-6.4365234375-1.78125-1.8837890625-4.4501953125-3.3212890625-8.0068359375-4.3173828125-3.5595703125-.9931640625-8.060546875-1.1240234375-13.501953125-.392578125.3134765625,4.08203125.5498046875,8.1123046875.7060546875,12.0888671875.1572265625,3.9794921875.3388671875,8.0615234375.5498046875,12.24609375ZM243.951171875,303.059570312494543c5.65234375.6279296875,10.4140625.3681640625,14.287109375-.78515625,3.87109375-1.150390625,6.775390625-2.720703125,8.7138671875-4.7099609375,1.935546875-1.9873046875,2.9287109375-4.1337890625,2.9833984375-6.4375.05078125-2.30078125-.8642578125-4.2900390625-2.748046875-5.9658203125-1.8837890625-1.6728515625-4.763671875-2.798828125-8.634765625-3.375-3.8740234375-.57421875-8.740234375-.181640625-14.6015625,1.1767578125v20.0966796875Z" fill="#fff" stroke-width="0"/>
                <path d="M380.0703125,320.800781249994543c-.2109375,1.15234375-.576171875,2.251953125-1.0986328125,3.296875-.525390625.8388671875-1.310546875,1.6240234375-2.35546875,2.3544921875-1.046875.7333984375-2.4599609375,1.2021484375-4.23828125,1.4130859375-1.78125.208984375-3.638671875.3388671875-5.57421875.392578125-1.9375.0517578125-3.7431640625-.1328125-5.416015625-.5498046875-1.67578125-.4189453125-3.140625-1.1767578125-4.396484375-2.2763671875-1.255859375-1.0986328125-2.041015625-2.7470703125-2.3544921875-4.9453125-.2109375-1.150390625-.314453125-3.505859375-.314453125-7.0654296875,0-3.556640625.0517578125-7.9521484375.1572265625-13.1875-7.2216796875,0-14.470703125-.1298828125-21.744140625-.392578125-7.2763671875-.259765625-14.6796875-.4951171875-22.2158203125-.7060546875-.314453125.10546875-.681640625,0-1.0986328125-.314453125-.314453125-.208984375-.6279296875-.6796875-.9423828125-1.4130859375-.314453125-.73046875-.576171875-1.830078125-.78515625-3.296875-.10546875-.7314453125-.2626953125-1.908203125-.470703125-3.5322265625-.2109375-1.6220703125-.392578125-3.3486328125-.5498046875-5.181640625-.1572265625-1.830078125-.2353515625-3.556640625-.2353515625-5.1806640625,0-1.62109375.259765625-2.8505859375.78515625-3.689453125.4169921875-.7314453125,1.46484375-2.013671875,3.1396484375-3.8466796875,1.6728515625-1.830078125,3.7138671875-4.1064453125,6.123046875-6.8291015625,6.0693359375-6.5947265625,12.03515625-13.345703125,17.8984375-20.2529296875,5.8603515625-6.908203125,11.6689453125-14.287109375,17.4267578125-22.1376953125,1.044921875-1.4638671875,2.013671875-2.58984375,2.904296875-3.375.888671875-.78515625,2.4853515625-1.2802734375,4.7890625-1.4912109375,2.197265625-.208984375,4.9453125-.4443359375,8.2421875-.70703125,3.296875-.259765625,6.095703125-.078125,8.3994140625.5498046875.5224609375.3134765625,1.0205078125.7060546875,1.4912109375,1.177734375.4716796875.470703125.7587890625,1.07421875.8642578125,1.8046875.4169921875,2.6181640625.65234375,5.078125.7060546875,7.37890625.0517578125,2.3037109375.1298828125,4.501953125.2353515625,6.5947265625l.6279296875,85.408203125ZM341.919921875,274.956054687494543c2.197265625-.1025390625,4.3955078125-.181640625,6.59375-.2353515625,2.1982421875-.0517578125,4.3955078125-.078125,6.59375-.078125,0-2.826171875.0517578125-5.65234375.1572265625-8.478515625.1025390625-2.826171875.259765625-5.7548828125.470703125-8.7919921875-2.1982421875,3.037109375-4.4501953125,5.9931640625-6.7509765625,8.87109375-2.3037109375,2.8798828125-4.658203125,5.7841796875-7.064453125,8.712890625Z" fill="#fff" stroke-width="0"/>
              </g>
            </g>
          </a>
        </g>
      </a>
    </g>
  </g>
</svg>