<?xml version="1.0" encoding="UTF-8"?>
<svg id="Layer_1" data-name="Layer 1" xmlns="http://www.w3.org/2000/svg" xmlns:xlink="http://www.w3.org/1999/xlink" viewBox="0 0 600 599.999999999998181">
  <defs>
    <linearGradient id="C3-5" data-name="C3" x1="257.367568776780899" y1="414.270400348761541" x2="344.968624797301857" y2="277.393750316717444" gradientUnits="userSpaceOnUse">
      <stop offset="0" stop-color="#679a5a"/>
      <stop offset=".203304411159916" stop-color="#6c9a56"/>
      <stop offset=".454423858001689" stop-color="#7b9d4d"/>
      <stop offset=".487179487179487" stop-color="#7e9e4c"/>
      <stop offset="1" stop-color="#91a23d"/>
    </linearGradient>
  </defs>
  <g id="pie_with_links_-5" data-name="pie (with links)">
    <g id="pie_with_links_-6" data-name="pie (with links)">
      <g id="Pie">
        <g>
          <a xlink:href="https://www.notion.so/dmmnotes/paranoid-ae38b1e6af0c4dd08f61e0d8f6e9f05f?pvs=4">
            <path id="C8" d="M331.30810546875,517.749511718748181l7.825683593739086,54.4306640625c26.439208984371362-3.767822265628638,51.645751953141371-11.3115234375,75.101318359371362-22.04296875l-22.832519531240905-49.996826171878638c-18.7666015625,8.572265625-38.93505859375,14.601318359378638-60.094482421869543,17.609130859378638Z" fill="none" stroke="#181818" stroke-linecap="round" stroke-linejoin="round" stroke-width="15"/>
          </a>
          <a xlink:href="https://www.notion.so/dmmnotes/menacing-a5bd7149286344deba45ec15e759e579?pvs=4">
            <path id="C7" d="M391.402587890619543,500.140380859369543l22.832519531240905,49.996826171878638c23.989990234389552-10.975830078117724,46.116210937520009-25.287109375010914,65.803955078139552-42.36181640625l-35.972900390630457-41.515869140617724c-15.753417968759095,13.65869140625-33.459228515630457,25.104492187489086-52.66357421875,33.880859374989086Z" fill="none" stroke="#181818" stroke-linecap="round" stroke-linejoin="round" stroke-width="15"/>
          </a>
          <a xlink:href="https://www.notion.so/dmmnotes/seductively-obsessed-with-rescue-6fb5a68f6d334bc29ccccc16d8a4e56e?pvs=4">
            <path id="C6" d="M444.066162109369543,466.259521484380457l35.972900390630457,41.515869140617724c19.762939453119543-17.141845703128638,37.047119140619543-37.041748046878638,51.26708984375-59.125l-46.223632812510914-29.704833984367724c-11.373291015619543,17.673583984367724-25.201171874989086,33.598876953117724-41.016357421869543,47.31396484375Z" fill="none" stroke="#181818" stroke-linecap="round" stroke-linejoin="round" stroke-width="15"/>
          </a>
          <a xlink:href="https://www.notion.so/dmmnotes/punitively-obsessed-with-revenge-33d2e77f37774316b42bccf4a60f9688?pvs=4">
            <path id="C5" d="M485.082519531239086,418.945556640630457l46.223632812510914,29.704833984367724c14.048095703130457-21.809326171878638,25.08837890625-45.71875,32.551513671869543-71.175048828128638l-52.7548828125-15.490234375c-5.9619140625,20.377929687510914-14.789306640619543,39.509765625-26.020263671880457,56.960449218760914Z" fill="none" stroke="#181818" stroke-linecap="round" stroke-linejoin="round" stroke-width="15"/>
          </a>
          <a xlink:href="https://www.notion.so/dmmnotes/feigned-helpless-e79a94b0498c4e109a681b7f3dcdb088?pvs=4">
            <path id="C4" d="M519.999999999989086,300c0,21.538085937498181-3.142089843739086,42.321533203119543-8.897216796869543,61.985107421869543l52.7548828125,15.490234375c7.2080078125-24.583496093739086,11.142333984369543-50.5634765625,11.142333984369543-77.475341796869543h-55Z" fill="none" stroke="#181818" stroke-linecap="round" stroke-linejoin="round" stroke-width="15"/>
          </a>
          <a xlink:href="https://www.notion.so/dmmnotes/disarming-086276e599884c86b9359acf831a8b20?pvs=4">
            <path id="C2" d="M511.102783203119543,238.014892578109539l52.7548828125-15.490234375c-7.463134765619543-25.456298828121362-18.503417968739086-49.365722656239086-32.551513671869543-71.177734374989086l-46.223632812510914,29.70751953125c11.230957031260914,17.45068359375,20.055664062510914,36.585205078117724,26.020263671880457,56.960449218739086Z" fill="none" stroke="#181818" stroke-linecap="round" stroke-linejoin="round" stroke-width="15"/>
          </a>
          <a xlink:href="https://www.notion.so/dmmnotes/threatening-348fe6a52f7a4fe69f768e98c6586932?pvs=4">
            <path id="C1" d="M485.082519531239086,181.054443359370453l46.223632812510914-29.70751953125c-14.219970703130457-22.08056640625-31.504150390630457-41.980468750010914-51.26708984375-59.122314453120453l-35.972900390630457,41.518554687488177c15.815185546880457,13.71240234375,29.64306640625,29.637695312511823,41.016357421869543,47.311279296882276Z" fill="none" stroke="#181818" stroke-linecap="round" stroke-linejoin="round" stroke-width="15"/>
          </a>
          <a xlink:href="https://www.notion.so/dmmnotes/complaining-acceptance-8b40401a720c493ba73f7cde1567cf3d?pvs=4">
            <path id="B5" d="M444.066162109369543,133.743164062488177l35.972900390630457-41.518554687488177c-19.687744140619543-17.07470703125-41.81396484375-31.388671875-65.803955078139552-42.36181640625l-22.832519531240905,49.99951171875c19.204345703119543,8.773681640620453,36.910156249990905,20.22216796875,52.66357421875,33.880859374988177Z" fill="none" stroke="#181818" stroke-linecap="round" stroke-linejoin="round" stroke-width="15"/>
          </a>
          <a xlink:href="https://www.notion.so/dmmnotes/sentimental-bc554363322342b1b7ca4ccc02125049?pvs=4">
            <path id="B4" d="M391.402587890619543,99.8623046875l22.832519531240905-49.99951171875c-23.455566406229991-10.7314453125-48.662109375-18.275146484390461-75.101318359371362-22.042968749990905l-7.825683593739086,54.433349609361358c21.159423828119543,3.0078125,41.327880859369543,9.034179687489086,60.094482421869543,17.609130859379547Z" fill="none" stroke="#181818" stroke-linecap="round" stroke-linejoin="round" stroke-width="15"/>
          </a>
          <a xlink:href="https://www.notion.so/dmmnotes/comfortably-balanced-e76dc615a8b947aa915377cd02fcf716?pvs=4">
            <path id="B3" d="M299.999999999989086,80c10.634765625,0,21.078857421871362.797607421870453,31.308105468760914,2.253173828120453l7.825683593739086-54.433349609361358c-12.788574218739086-1.823486328138642-25.843017578128638-2.819824218759095-39.1337890625-2.819824218759095-13.290771484358629,0-26.34521484375.996337890620453-39.133789062489086,2.819824218759095l7.825683593739086,54.433349609361358c10.23193359375-1.45556640625,20.67333984375-2.253173828120453,31.30810546875-2.253173828120453Z" fill="none" stroke="#181818" stroke-linecap="round" stroke-linejoin="round" stroke-width="15"/>
          </a>
          <a xlink:href="https://www.notion.so/dmmnotes/accepting-317d81273fff4cd9817cdf4a88efd378?pvs=4">
            <path id="B2" d="M268.691894531239086,82.253173828120453l-7.825683593739086-54.433349609361358c-26.439208984389552,3.767822265600444-51.643066406260914,11.311523437490905-75.098632812510914,22.042968749990905l22.83251953125,49.99951171875c18.7666015625-8.574951171890461,38.93505859375-14.601318359379547,60.091796875-17.609130859379547Z" fill="none" stroke="#181818" stroke-linecap="round" stroke-linejoin="round" stroke-width="15"/>
          </a>
          <a xlink:href="https://www.notion.so/dmmnotes/distanced-from-past-2eabab7e9c77429f8e577f4e3e203653?pvs=4">
            <path id="B1" d="M208.600097656239086,99.8623046875l-22.83251953125-49.99951171875c-23.99267578125,10.97314453125-46.1162109375,25.287109375-65.803955078108629,42.36181640625l35.972900390608629,41.515869140620453c15.75341796875-13.658691406260914,33.4619140625-25.1044921875,52.66357421875-33.878173828120453Z" fill="none" stroke="#181818" stroke-linecap="round" stroke-linejoin="round" stroke-width="15"/>
          </a>
          <a xlink:href="https://www.notion.so/dmmnotes/idealising-a52277f51ed14a42aae78081bb34b8be?pvs=4">
            <path id="A1" d="M155.936523437489086,133.740478515620453l-35.972900390608629-41.515869140620453c-19.765625,17.141845703109539-37.049804687520009,37.041748046870453-51.269775390641371,59.122314453120453l46.226318359371362,29.70751953125c11.373291015639552-17.673583984370453,25.201171875020009-33.598876953132276,41.016357421878638-47.31396484375Z" fill="none" stroke="#181818" stroke-linecap="round" stroke-linejoin="round" stroke-width="15"/>
          </a>
          <a xlink:href="https://www.notion.so/dmmnotes/distancing-9ac690cdca654729a17a5a255944e2d1?pvs=4">
            <path id="A2" d="M114.920166015610448,181.054443359370453l-46.226318359371362-29.70751953125c-14.04541015625,21.81201171875-25.08837890625,45.721435546867724-32.551513671878638,71.177734374989086l52.754882812520009,15.490234375c5.964599609358629-20.375244140621362,14.7919921875-39.509765624989086,26.022949218729991-56.960449218739086Z" fill="none" stroke="#181818" stroke-linecap="round" stroke-linejoin="round" stroke-width="15"/>
          </a>
          <a xlink:href="https://www.notion.so/dmmnotes/compulsive-caregiving-9c380c0928294f41ae10764aa0dee886?pvs=4">
            <path id="A3" d="M88.897216796880457,238.014892578109539l-52.754882812520009-15.490234375c-7.205322265621362,24.580810546878638-11.142333984371362,50.5634765625-11.142333984371362,77.475341796890461h55c0-21.535400390629547,3.14208984375-42.321533203129547,8.897216796891371-61.985107421890461Z" fill="none" stroke="#181818" stroke-linecap="round" stroke-linejoin="round" stroke-width="15"/>
          </a>
          <a xlink:href="https://www.notion.so/dmmnotes/compulsive-compliance-6d08b7ea9a424ce1a72b9184b7850414?pvs=4">
            <path id="A4" d="M79.999999999989086,300H24.999999999989086c0,26.911865234369543,3.93701171875,52.894531249987267,11.142333984371362,77.475341796869543l52.754882812520009-15.490234375c-5.755126953141371-19.66357421875-8.897216796891371-40.447021484371362-8.897216796891371-61.985107421869543Z" fill="none" stroke="#181818" stroke-linecap="round" stroke-linejoin="round" stroke-width="15"/>
          </a>
          <a xlink:href="https://www.notion.so/dmmnotes/sexual-supplementation-8e85f49046ef412aa229745abf7d38d3?pvs=4">
            <path id="A5" d="M88.897216796880457,361.985107421869543l-52.754882812520009,15.490234375c7.463134765628638,25.456298828128638,18.506103515628638,49.36572265625,32.551513671878638,71.175048828128638l46.223632812510914-29.704833984367724c-11.230957031260914-17.450683593760914-20.055664062510914-36.58251953125-26.020263671869543-56.960449218760914Z" fill="none" stroke="#181818" stroke-linecap="round" stroke-linejoin="round" stroke-width="15"/>
          </a>
          <a xlink:href="https://www.notion.so/dmmnotes/compulsive-isolated-self-reliance-b321873a73fa41aaaadd7192fde856a2?pvs=4">
            <path id="A6" d="M114.91748046875,418.945556640630457l-46.223632812510914,29.704833984367724c14.219970703121362,22.083251953121362,31.504150390641371,41.983154296871362,51.269775390641371,59.125l35.972900390608629-41.515869140617724c-15.815185546858629-13.712402343760914-29.643066406239086-29.637695312510914-41.019042968739086-47.31396484375Z" fill="none" stroke="#181818" stroke-linecap="round" stroke-linejoin="round" stroke-width="15"/>
          </a>
          <a xlink:href="https://www.notion.so/dmmnotes/delusional-idealization-743e2420b9994a48a7cab68190432e8a?pvs=4">
            <path id="A7" d="M155.936523437489086,466.259521484380457l-35.972900390608629,41.515869140617724c19.687744140608629,17.074707031239086,41.811279296858629,31.385986328132276,65.803955078108629,42.36181640625l22.83251953125-49.996826171878638c-19.20166015625-8.773681640621362-36.91015625-20.222167968739086-52.66357421875-33.880859374989086Z" fill="none" stroke="#181818" stroke-linecap="round" stroke-linejoin="round" stroke-width="15"/>
          </a>
          <a xlink:href="https://www.notion.so/dmmnotes/externally-assembled-self-994ecb0895b844409b931d74a045c162?pvs=4">
            <path id="A8" d="M208.600097656239086,500.140380859369543l-22.83251953125,49.996826171878638c23.45556640625,10.7314453125,48.659423828121362,18.275146484371362,75.098632812510914,22.04296875l7.825683593739086-54.4306640625c-21.15673828125-3.0078125-41.3251953125-9.0341796875-60.091796875-17.609130859378638Z" fill="none" stroke="#181818" stroke-linecap="round" stroke-linejoin="round" stroke-width="15"/>
          </a>
          <a xlink:href="https://www.notion.so/dmmnotes/psychopathy-0fe4a3222d9f4fd097ab4546c9776768?pvs=4">
            <path id="AC" d="M299.999999999989086,519.999999999998181c-10.634765625,0-21.076171875-.794921875-31.30810546875-2.25048828125l-7.825683593739086,54.4306640625c12.788574218739086,1.823486328132276,25.843017578130457,2.81982421875,39.133789062489086,2.81982421875,13.290771484371362,0,26.345214843760914-.996337890617724,39.1337890625-2.81982421875l-7.825683593739086-54.4306640625c-10.229248046889552,1.45556640625-20.673339843760914,2.25048828125-31.308105468760914,2.25048828125Z" fill="none" stroke="#181818" stroke-linecap="round" stroke-linejoin="round" stroke-width="15"/>
          </a>
          <a xlink:href="https://www.notion.so/dmmnotes/aggressive-2d8ccce383534b9dbfc7b4b10b8a5d5c?pvs=4">
            <g id="C3">
              <path d="M520,300.999999999994543c-.552734375,0-1-.44775390625-1-1,0-20.86181640625-2.98046875-41.62255859375-8.857421875-61.70458984375-.1552734375-.52978515625.1484375-1.0849609375.6787109375-1.240234375l52.75390625-15.490234375c.0927734375-.02734375.1875-.04052734375.2822265625-.04052734375.166015625,0,.3310546875.04150390625.4794921875.12255859375.232421875.126953125.4052734375.34130859375.48046875.59619140625,7.419921875,25.3056640625,11.1826171875,51.466796875,11.1826171875,77.7568359375,0,.55224609375-.447265625,1-1,1h-55Z" fill="none" stroke="#181818" stroke-linecap="round" stroke-linejoin="round" stroke-width="15"/>
              <path d="M563.857666015625,222.524658203119543c7.2080078125,24.580810546875,11.142333984375,50.5634765625,11.142333984375,77.475341796875h-55c0-21.535400390625-3.14208984375-42.321533203125-8.897216796875-61.985107421875l52.7548828125-15.490234375M563.857666015625,220.524658203119543c-.189208984375,0-.37890625.02679443359375-.5634765625.081024169921875l-52.7548828125,15.490203857421875c-1.05908203125.311004638671875-1.666015625,1.421356201171875-1.35595703125,2.48077392578125,5.850341796875,19.988861083984375,8.816650390625,40.6546630859375,8.816650390625,61.42333984375,0,1.104583740234375.8955078125,2,2,2h55c1.1044921875,0,2-.895416259765625,2-2,0-26.385986328125-3.776123046875-52.641815185546875-11.22314453125-78.038116455078125-.149169921875-.509124755859375-.494873046875-.93804931640625-.96044921875-1.192413330078125-.296630859375-.162078857421875-.626708984375-.24481201171875-.958740234375-.24481201171875h0Z" fill="none" stroke="#181818" stroke-linecap="round" stroke-linejoin="round" stroke-width="15"/>
            </g>
          </a>
        </g>
        <g>
          <a xlink:href="https://www.notion.so/dmmnotes/paranoid-ae38b1e6af0c4dd08f61e0d8f6e9f05f?pvs=4">
            <path id="C8-2" data-name="C8" d="M331.30810546875,517.749511718748181l7.825683593739086,54.4306640625c26.439208984371362-3.767822265628638,51.645751953141371-11.3115234375,75.101318359371362-22.04296875l-22.832519531240905-49.996826171878638c-18.7666015625,8.572265625-38.93505859375,14.601318359378638-60.094482421869543,17.609130859378638Z" fill="#8f807d" stroke="#181818" stroke-linecap="round" stroke-linejoin="round" stroke-width="2"/>
          </a>
          <a xlink:href="https://www.notion.so/dmmnotes/menacing-a5bd7149286344deba45ec15e759e579?pvs=4">
            <path id="C7-2" data-name="C7" d="M391.402587890619543,500.140380859369543l22.832519531240905,49.996826171878638c23.989990234389552-10.975830078117724,46.116210937520009-25.287109375010914,65.803955078139552-42.36181640625l-35.972900390630457-41.515869140617724c-15.753417968759095,13.65869140625-33.459228515630457,25.104492187489086-52.66357421875,33.880859374989086Z" fill="#8f807d" stroke="#181818" stroke-linecap="round" stroke-linejoin="round" stroke-width="2"/>
          </a>
          <a xlink:href="https://www.notion.so/dmmnotes/seductively-obsessed-with-rescue-6fb5a68f6d334bc29ccccc16d8a4e56e?pvs=4">
            <path id="C6-2" data-name="C6" d="M444.066162109369543,466.259521484380457l35.972900390630457,41.515869140617724c19.762939453119543-17.141845703128638,37.047119140619543-37.041748046878638,51.26708984375-59.125l-46.223632812510914-29.704833984367724c-11.373291015619543,17.673583984367724-25.201171874989086,33.598876953117724-41.016357421869543,47.31396484375Z" fill="#8f807d" stroke="#181818" stroke-linecap="round" stroke-linejoin="round" stroke-width="2"/>
          </a>
          <a xlink:href="https://www.notion.so/dmmnotes/punitively-obsessed-with-revenge-33d2e77f37774316b42bccf4a60f9688?pvs=4">
            <path id="C5-2" data-name="C5" d="M485.082519531239086,418.945556640630457l46.223632812510914,29.704833984367724c14.048095703130457-21.809326171878638,25.08837890625-45.71875,32.551513671869543-71.175048828128638l-52.7548828125-15.490234375c-5.9619140625,20.377929687510914-14.789306640619543,39.509765625-26.020263671880457,56.960449218760914Z" fill="#8f807d" stroke="#181818" stroke-linecap="round" stroke-linejoin="round" stroke-width="2"/>
          </a>
          <a xlink:href="https://www.notion.so/dmmnotes/feigned-helpless-e79a94b0498c4e109a681b7f3dcdb088?pvs=4">
            <path id="C4-2" data-name="C4" d="M519.999999999989086,300c0,21.538085937498181-3.142089843739086,42.321533203119543-8.897216796869543,61.985107421869543l52.7548828125,15.490234375c7.2080078125-24.583496093739086,11.142333984369543-50.5634765625,11.142333984369543-77.475341796869543h-55Z" fill="#8f807d" stroke="#181818" stroke-linecap="round" stroke-linejoin="round" stroke-width="2"/>
          </a>
          <a xlink:href="https://www.notion.so/dmmnotes/disarming-086276e599884c86b9359acf831a8b20?pvs=4">
            <path id="C2-2" data-name="C2" d="M511.102783203119543,238.014892578109539l52.7548828125-15.490234375c-7.463134765619543-25.456298828121362-18.503417968739086-49.365722656239086-32.551513671869543-71.177734374989086l-46.223632812510914,29.70751953125c11.230957031260914,17.45068359375,20.055664062510914,36.585205078117724,26.020263671880457,56.960449218739086Z" fill="#8f807d" stroke="#181818" stroke-linecap="round" stroke-linejoin="round" stroke-width="2"/>
          </a>
          <a xlink:href="https://www.notion.so/dmmnotes/threatening-348fe6a52f7a4fe69f768e98c6586932?pvs=4">
            <path id="C1-2" data-name="C1" d="M485.082519531239086,181.054443359370453l46.223632812510914-29.70751953125c-14.219970703130457-22.08056640625-31.504150390630457-41.980468750010914-51.26708984375-59.122314453120453l-35.972900390630457,41.518554687488177c15.815185546880457,13.71240234375,29.64306640625,29.637695312511823,41.016357421869543,47.311279296882276Z" fill="#8f807d" stroke="#181818" stroke-linecap="round" stroke-linejoin="round" stroke-width="2"/>
          </a>
          <a xlink:href="https://www.notion.so/dmmnotes/complaining-acceptance-8b40401a720c493ba73f7cde1567cf3d?pvs=4">
            <path id="B5-2" data-name="B5" d="M444.066162109369543,133.743164062488177l35.972900390630457-41.518554687488177c-19.687744140619543-17.07470703125-41.81396484375-31.388671875-65.803955078139552-42.36181640625l-22.832519531240905,49.99951171875c19.204345703119543,8.773681640620453,36.910156249990905,20.22216796875,52.66357421875,33.880859374988177Z" fill="#8f807d" stroke="#181818" stroke-linecap="round" stroke-linejoin="round" stroke-width="2"/>
          </a>
          <a xlink:href="https://www.notion.so/dmmnotes/sentimental-bc554363322342b1b7ca4ccc02125049?pvs=4">
            <path id="B4-2" data-name="B4" d="M391.402587890619543,99.8623046875l22.832519531240905-49.99951171875c-23.455566406229991-10.7314453125-48.662109375-18.275146484390461-75.101318359371362-22.042968749990905l-7.825683593739086,54.433349609361358c21.159423828119543,3.0078125,41.327880859369543,9.034179687489086,60.094482421869543,17.609130859379547Z" fill="#8f807d" stroke="#181818" stroke-linecap="round" stroke-linejoin="round" stroke-width="2"/>
          </a>
          <a xlink:href="https://www.notion.so/dmmnotes/comfortably-balanced-e76dc615a8b947aa915377cd02fcf716?pvs=4">
            <path id="B3-2" data-name="B3" d="M299.999999999989086,80c10.634765625,0,21.078857421871362.797607421870453,31.308105468760914,2.253173828120453l7.825683593739086-54.433349609361358c-12.788574218739086-1.823486328138642-25.843017578128638-2.819824218759095-39.1337890625-2.819824218759095-13.290771484358629,0-26.34521484375.996337890620453-39.133789062489086,2.819824218759095l7.825683593739086,54.433349609361358c10.23193359375-1.45556640625,20.67333984375-2.253173828120453,31.30810546875-2.253173828120453Z" fill="#8f807d" stroke="#181818" stroke-linecap="round" stroke-linejoin="round" stroke-width="2"/>
          </a>
          <a xlink:href="https://www.notion.so/dmmnotes/accepting-317d81273fff4cd9817cdf4a88efd378?pvs=4">
            <path id="B2-2" data-name="B2" d="M268.691894531239086,82.253173828120453l-7.825683593739086-54.433349609361358c-26.439208984389552,3.767822265600444-51.643066406260914,11.311523437490905-75.098632812510914,22.042968749990905l22.83251953125,49.99951171875c18.7666015625-8.574951171890461,38.93505859375-14.601318359379547,60.091796875-17.609130859379547Z" fill="#8f807d" stroke="#181818" stroke-linecap="round" stroke-linejoin="round" stroke-width="2"/>
          </a>
          <a xlink:href="https://www.notion.so/dmmnotes/distanced-from-past-2eabab7e9c77429f8e577f4e3e203653?pvs=4">
            <path id="B1-2" data-name="B1" d="M208.600097656239086,99.8623046875l-22.83251953125-49.99951171875c-23.99267578125,10.97314453125-46.1162109375,25.287109375-65.803955078108629,42.36181640625l35.972900390608629,41.515869140620453c15.75341796875-13.658691406260914,33.4619140625-25.1044921875,52.66357421875-33.878173828120453Z" fill="#8f807d" stroke="#181818" stroke-linecap="round" stroke-linejoin="round" stroke-width="2"/>
          </a>
          <a xlink:href="https://www.notion.so/dmmnotes/idealising-a52277f51ed14a42aae78081bb34b8be?pvs=4">
            <path id="A1-2" data-name="A1" d="M155.936523437489086,133.740478515620453l-35.972900390608629-41.515869140620453c-19.765625,17.141845703109539-37.049804687520009,37.041748046870453-51.269775390641371,59.122314453120453l46.226318359371362,29.70751953125c11.373291015639552-17.673583984370453,25.201171875020009-33.598876953132276,41.016357421878638-47.31396484375Z" fill="#8f807d" stroke="#181818" stroke-linecap="round" stroke-linejoin="round" stroke-width="2"/>
          </a>
          <a xlink:href="https://www.notion.so/dmmnotes/distancing-9ac690cdca654729a17a5a255944e2d1?pvs=4">
            <path id="A2-2" data-name="A2" d="M114.920166015610448,181.054443359370453l-46.226318359371362-29.70751953125c-14.04541015625,21.81201171875-25.08837890625,45.721435546867724-32.551513671878638,71.177734374989086l52.754882812520009,15.490234375c5.964599609358629-20.375244140621362,14.7919921875-39.509765624989086,26.022949218729991-56.960449218739086Z" fill="#8f807d" stroke="#181818" stroke-linecap="round" stroke-linejoin="round" stroke-width="2"/>
          </a>
          <a xlink:href="https://www.notion.so/dmmnotes/compulsive-caregiving-9c380c0928294f41ae10764aa0dee886?pvs=4">
            <path id="A3-2" data-name="A3" d="M88.897216796880457,238.014892578109539l-52.754882812520009-15.490234375c-7.205322265621362,24.580810546878638-11.142333984371362,50.5634765625-11.142333984371362,77.475341796890461h55c0-21.535400390629547,3.14208984375-42.321533203129547,8.897216796891371-61.985107421890461Z" fill="#8f807d" stroke="#181818" stroke-linecap="round" stroke-linejoin="round" stroke-width="2"/>
          </a>
          <a xlink:href="https://www.notion.so/dmmnotes/compulsive-compliance-6d08b7ea9a424ce1a72b9184b7850414?pvs=4">
            <path id="A4-2" data-name="A4" d="M79.999999999989086,300H24.999999999989086c0,26.911865234369543,3.93701171875,52.894531249987267,11.142333984371362,77.475341796869543l52.754882812520009-15.490234375c-5.755126953141371-19.66357421875-8.897216796891371-40.447021484371362-8.897216796891371-61.985107421869543Z" fill="#8f807d" stroke="#181818" stroke-linecap="round" stroke-linejoin="round" stroke-width="2"/>
          </a>
          <a xlink:href="https://www.notion.so/dmmnotes/sexual-supplementation-8e85f49046ef412aa229745abf7d38d3?pvs=4">
            <path id="A5-2" data-name="A5" d="M88.897216796880457,361.985107421869543l-52.754882812520009,15.490234375c7.463134765628638,25.456298828128638,18.506103515628638,49.36572265625,32.551513671878638,71.175048828128638l46.223632812510914-29.704833984367724c-11.230957031260914-17.450683593760914-20.055664062510914-36.58251953125-26.020263671869543-56.960449218760914Z" fill="#8f807d" stroke="#181818" stroke-linecap="round" stroke-linejoin="round" stroke-width="2"/>
          </a>
          <a xlink:href="https://www.notion.so/dmmnotes/compulsive-isolated-self-reliance-b321873a73fa41aaaadd7192fde856a2?pvs=4">
            <path id="A6-2" data-name="A6" d="M114.91748046875,418.945556640630457l-46.223632812510914,29.704833984367724c14.219970703121362,22.083251953121362,31.504150390641371,41.983154296871362,51.269775390641371,59.125l35.972900390608629-41.515869140617724c-15.815185546858629-13.712402343760914-29.643066406239086-29.637695312510914-41.019042968739086-47.31396484375Z" fill="#8f807d" stroke="#181818" stroke-linecap="round" stroke-linejoin="round" stroke-width="2"/>
          </a>
          <a xlink:href="https://www.notion.so/dmmnotes/delusional-idealization-743e2420b9994a48a7cab68190432e8a?pvs=4">
            <path id="A7-2" data-name="A7" d="M155.936523437489086,466.259521484380457l-35.972900390608629,41.515869140617724c19.687744140608629,17.074707031239086,41.811279296858629,31.385986328132276,65.803955078108629,42.36181640625l22.83251953125-49.996826171878638c-19.20166015625-8.773681640621362-36.91015625-20.222167968739086-52.66357421875-33.880859374989086Z" fill="#8f807d" stroke="#181818" stroke-linecap="round" stroke-linejoin="round" stroke-width="2"/>
          </a>
          <a xlink:href="https://www.notion.so/dmmnotes/externally-assembled-self-994ecb0895b844409b931d74a045c162?pvs=4">
            <path id="A8-2" data-name="A8" d="M208.600097656239086,500.140380859369543l-22.83251953125,49.996826171878638c23.45556640625,10.7314453125,48.659423828121362,18.275146484371362,75.098632812510914,22.04296875l7.825683593739086-54.4306640625c-21.15673828125-3.0078125-41.3251953125-9.0341796875-60.091796875-17.609130859378638Z" fill="#8f807d" stroke="#181818" stroke-linecap="round" stroke-linejoin="round" stroke-width="2"/>
          </a>
          <a xlink:href="https://www.notion.so/dmmnotes/psychopathy-0fe4a3222d9f4fd097ab4546c9776768?pvs=4">
            <path id="AC-2" data-name="AC" d="M299.999999999989086,519.999999999998181c-10.634765625,0-21.076171875-.794921875-31.30810546875-2.25048828125l-7.825683593739086,54.4306640625c12.788574218739086,1.823486328132276,25.843017578130457,2.81982421875,39.133789062489086,2.81982421875,13.290771484371362,0,26.345214843760914-.996337890617724,39.1337890625-2.81982421875l-7.825683593739086-54.4306640625c-10.229248046889552,1.45556640625-20.673339843760914,2.25048828125-31.308105468760914,2.25048828125Z" fill="#8f807d" stroke="#181818" stroke-linecap="round" stroke-linejoin="round" stroke-width="2"/>
          </a>
          <a xlink:href="https://www.notion.so/dmmnotes/aggressive-2d8ccce383534b9dbfc7b4b10b8a5d5c?pvs=4">
            <g id="C3-2" data-name="C3">
              <path d="M520,300.999999999994543c-.552734375,0-1-.44775390625-1-1,0-20.86181640625-2.98046875-41.62255859375-8.857421875-61.70458984375-.1552734375-.52978515625.1484375-1.0849609375.6787109375-1.240234375l52.75390625-15.490234375c.0927734375-.02734375.1875-.04052734375.2822265625-.04052734375.166015625,0,.3310546875.04150390625.4794921875.12255859375.232421875.126953125.4052734375.34130859375.48046875.59619140625,7.419921875,25.3056640625,11.1826171875,51.466796875,11.1826171875,77.7568359375,0,.55224609375-.447265625,1-1,1h-55Z" fill="#859658" stroke-width="0"/>
              <path d="M563.857666015625,222.524658203119543c7.2080078125,24.580810546875,11.142333984375,50.5634765625,11.142333984375,77.475341796875h-55c0-21.535400390625-3.14208984375-42.321533203125-8.897216796875-61.985107421875l52.7548828125-15.490234375M563.857666015625,220.524658203119543c-.189208984375,0-.37890625.02679443359375-.5634765625.081024169921875l-52.7548828125,15.490203857421875c-1.05908203125.311004638671875-1.666015625,1.421356201171875-1.35595703125,2.48077392578125,5.850341796875,19.988861083984375,8.816650390625,40.6546630859375,8.816650390625,61.42333984375,0,1.104583740234375.8955078125,2,2,2h55c1.1044921875,0,2-.895416259765625,2-2,0-26.385986328125-3.776123046875-52.641815185546875-11.22314453125-78.038116455078125-.149169921875-.509124755859375-.494873046875-.93804931640625-.96044921875-1.192413330078125-.296630859375-.162078857421875-.626708984375-.24481201171875-.958740234375-.24481201171875h0Z" fill="#181818" stroke-width="0"/>
            </g>
          </a>
        </g>
      </g>
      <a xlink:href="https://www.notion.so/dmmnotes/C3-2d8ccce383534b9dbfc7b4b10b8a5d5c?pvs=4#f60ac57c7e0640f689cfeee0c2565c2b">
        <g id="C3-3" data-name="C3">
          <g id="C3-4" data-name="C3">
            <path d="M300,414.706054687494543c-36.970703125,0-67.048828125-30.078125-67.048828125-67.048828125s30.078125-67.048828125,67.048828125-67.048828125,67.048828125,30.078125,67.048828125,67.048828125-30.078125,67.048828125-67.048828125,67.048828125Z" fill="url(#C3-5)" stroke-width="0"/>
            <path d="M300,289.108551025385168c32.335693359375,0,58.548828125,26.21319580078125,58.548828125,58.548736572265625s-26.213134765625,58.5487060546875-58.548828125,58.5487060546875c-32.33544921875,0-58.548583984375-26.213165283203125-58.548583984375-58.5487060546875s26.213134765625-58.548736572265625,58.548583984375-58.548736572265625M300,272.108551025385168c-41.65771484375,0-75.548583984375,33.891021728515625-75.548583984375,75.548736572265625s33.890869140625,75.5487060546875,75.548583984375,75.5487060546875,75.548828125-33.8909912109375,75.548828125-75.5487060546875-33.89111328125-75.548736572265625-75.548828125-75.548736572265625h0Z" fill="#181818" stroke-width="0"/>
          </g>
          <a xlink:href="https://www.notion.so/dmmnotes/C3-2d8ccce383534b9dbfc7b4b10b8a5d5c?pvs=4#f60ac57c7e0640f689cfeee0c2565c2b">
            <g>
              <g>
                <path d="M278.806640625,243.247070312494543c.103515625-3.0341796875-.392578125-5.310546875-1.4912109375-6.8291015625-1.0986328125-1.5166015625-2.4873046875-2.4580078125-4.1611328125-2.826171875-1.6748046875-.365234375-3.48046875-.181640625-5.416015625.5498046875-1.9375.7333984375-3.689453125,1.7802734375-5.259765625,3.1396484375-3.6640625,3.1396484375-6.62109375,7.1435546875-8.8701171875,12.0107421875-2.251953125,4.8662109375-3.7685546875,9.96875-4.5537109375,15.3076171875-.7841796875,5.337890625-.837890625,10.6513671875-.15625,15.935546875.6796875,5.2861328125,2.1708984375,9.8662109375,4.474609375,13.7373046875,1.46484375,2.51171875,3.21875,4.37109375,5.259765625,5.5732421875,2.041015625,1.2041015625,4.2109375,1.8837890625,6.515625,2.041015625,2.30078125.1572265625,4.5771484375-.208984375,6.8291015625-1.0986328125,2.2490234375-.888671875,4.2626953125-2.22265625,6.0439453125-4.00390625,2.720703125-2.720703125,4.9189453125-4.65625,6.59375-5.80859375,1.673828125-1.1513671875,3.5576171875-1.779296875,5.65234375-1.884765625,5.966796875,0,9.916015625,1.67578125,11.853515625,5.0244140625,1.935546875,3.3505859375,2.06640625,7.4326171875.392578125,12.24609375-1.361328125,3.767578125-3.4296875,7.064453125-6.201171875,9.890625-2.7744140625,2.826171875-5.9931640625,5.1025390625-9.65625,6.830078125-3.6640625,1.7265625-7.58984375,2.9306640625-11.7744140625,3.6103515625-4.1875.6796875-8.3212890625.8642578125-12.4033203125.5498046875s-7.955078125-1.177734375-11.6171875-2.5908203125c-3.666015625-1.4130859375-6.8056640625-3.3212890625-9.419921875-5.73046875-2.931640625-2.720703125-5.49609375-5.8330078125-7.693359375-9.3408203125-2.1982421875-3.505859375-4.03125-7.22265625-5.4951171875-11.1474609375-1.4677734375-3.9248046875-2.5654296875-8.0068359375-3.296875-12.24609375-.7333984375-4.2392578125-1.0986328125-8.501953125-1.0986328125-12.794921875.2080078125-9.62890625,2.2490234375-18.943359375,6.123046875-27.9462890625,3.87109375-9.0009765625,9-16.8505859375,15.384765625-23.5498046875,2.9296875-3.03515625,6.41015625-5.625,10.44140625-7.771484375,4.02734375-2.14453125,8.1640625-3.533203125,12.40234375-4.1611328125,4.2392578125-.6279296875,8.400390625-.4169921875,12.482421875.6279296875,4.08203125,1.0478515625,7.6923828125,3.24609375,10.83203125,6.5947265625,2.40625,2.51171875,4.341796875,5.3916015625,5.8095703125,8.634765625,1.4638671875,3.2451171875,2.5634765625,6.4912109375,3.296875,9.7333984375.4169921875,2.095703125.6005859375,4.08203125.5498046875,5.966796875-.0546875,1.8837890625-.498046875,3.6650390625-1.3349609375,5.337890625-1.1533203125,2.0947265625-2.9306640625,3.5859375-5.337890625,4.474609375-2.4091796875.890625-4.7880859375,1.1767578125-7.1435546875.86328125-2.35546875-.314453125-4.396484375-1.2294921875-6.123046875-2.748046875-1.7265625-1.515625-2.5390625-3.583984375-2.43359375-6.201171875Z" fill="none" stroke="#181818" stroke-linecap="round" stroke-linejoin="round" stroke-width="33"/>
                <path d="M366.25390625,267.739257812494543c3.0341796875,3.6650390625,5.416015625,8.0849609375,7.142578125,13.2666015625,1.7275390625,5.1806640625,2.328125,10.283203125,1.806640625,15.3076171875-.419921875,3.873046875-1.5703125,7.7197265625-3.455078125,11.5390625-1.8837890625,3.822265625-4.29296875,7.2216796875-7.2216796875,10.205078125-2.931640625,2.9833984375-6.3076171875,5.3916015625-10.1259765625,7.2216796875-3.822265625,1.8330078125-7.9296875,2.748046875-12.3251953125,2.748046875-2.72265625,0-5.4951171875-.2900390625-8.3212890625-.86328125-2.826171875-.57421875-5.572265625-1.38671875-8.2421875-2.43359375-2.6689453125-1.044921875-5.15625-2.4072265625-7.45703125-4.08203125-2.3037109375-1.6728515625-4.1875-3.611328125-5.65234375-5.8095703125-1.5703125-2.197265625-2.041015625-4.6044921875-1.4130859375-7.2216796875.6279296875-2.9287109375,1.8564453125-5.4677734375,3.689453125-7.6142578125,1.830078125-2.14453125,3.5322265625-3.8984375,5.1025390625-5.259765625.8369140625-.6279296875,1.884765625-1.044921875,3.140625-1.255859375,1.255859375-.208984375,2.45703125.3134765625,3.6103515625,1.5703125,1.8837890625,2.197265625,3.9248046875,3.951171875,6.123046875,5.2587890625,2.1982421875,1.310546875,4.369140625,2.041015625,6.515625,2.1982421875,2.1435546875.1572265625,4.1845703125-.3134765625,6.123046875-1.4130859375,1.935546875-1.0986328125,3.583984375-2.904296875,4.9453125-5.416015625.7314453125-1.46484375,1.1513671875-3.03515625,1.2568359375-4.7099609375.1025390625-1.673828125-.2109375-3.21875-.943359375-4.6318359375s-1.9375-2.615234375-3.6103515625-3.611328125c-1.6748046875-.9931640625-3.8740234375-1.5947265625-6.59375-1.8056640625-.2119140625.10546875-.3681640625.1328125-.4716796875.0791015625-.10546875-.0517578125-.2109375-.0791015625-.3134765625-.0791015625h-.3134765625c-.10546875.10546875-.2109375.1572265625-.314453125.1572265625h-.6279296875c-.3134765625-.1025390625-.6552734375-.181640625-1.0205078125-.2353515625-.3681640625-.0517578125-.6552734375-.181640625-.86328125-.392578125-1.1533203125-.3134765625-1.9384765625-1.255859375-2.35546875-2.826171875-.419921875-1.5693359375-.654296875-3.296875-.70703125-5.1806640625s.025390625-3.7412109375.236328125-5.5732421875c.208984375-1.830078125.470703125-3.1650390625.78515625-4.00390625.416015625-1.150390625.94140625-2.119140625,1.5703125-2.904296875.626953125-.78515625,1.3583984375-1.177734375,2.197265625-1.177734375,2.615234375,0,4.91796875-.8359375,6.908203125-2.51171875,1.986328125-1.6728515625,3.400390625-3.5576171875,4.23828125-5.65234375.8369140625-2.0927734375.966796875-4.0546875.392578125-5.8876953125-.576171875-1.830078125-2.1728515625-2.8505859375-4.7880859375-3.0615234375-1.7802734375-.2080078125-3.689453125.341796875-5.73046875,1.6494140625-2.041015625,1.3095703125-3.7431640625,3.3232421875-5.1025390625,6.0439453125-.525390625,1.0478515625-.94140625,2.068359375-1.255859375,3.0615234375-.314453125.99609375-1.099609375,1.75390625-2.35546875,2.2763671875-1.046875.419921875-2.041015625.6279296875-2.982421875.6279296875-3.037109375,0-5.94140625-.8876953125-8.7138671875-2.6689453125-2.7744140625-1.7783203125-4.6318359375-4.2900390625-5.5732421875-7.5361328125-.419921875-1.986328125-.3681640625-3.9248046875.15625-5.80859375.5234375-1.8837890625,1.30859375-3.7138671875,2.35546875-5.4951171875,1.779296875-2.9287109375,4.0283203125-5.4951171875,6.7509765625-7.693359375,2.720703125-2.197265625,5.7314453125-3.94921875,9.0283203125-5.2587890625,3.296875-1.3076171875,6.8017578125-2.1201171875,10.5185546875-2.43359375,3.7138671875-.314453125,7.4580078125,0,11.2255859375.94140625,4.7099609375,1.1533203125,8.580078125,3.32421875,11.6171875,6.515625,3.03515625,3.1943359375,5.154296875,6.986328125,6.359375,11.3828125,1.201171875,4.3955078125,1.412109375,9.2109375.6279296875,14.4443359375-.78515625,5.234375-2.64453125,10.572265625-5.5732421875,16.013671875Z" fill="none" stroke="#181818" stroke-linecap="round" stroke-linejoin="round" stroke-width="33"/>
              </g>
              <g>
                <path d="M278.806640625,243.247070312494543c.103515625-3.0341796875-.392578125-5.310546875-1.4912109375-6.8291015625-1.0986328125-1.5166015625-2.4873046875-2.4580078125-4.1611328125-2.826171875-1.6748046875-.365234375-3.48046875-.181640625-5.416015625.5498046875-1.9375.7333984375-3.689453125,1.7802734375-5.259765625,3.1396484375-3.6640625,3.1396484375-6.62109375,7.1435546875-8.8701171875,12.0107421875-2.251953125,4.8662109375-3.7685546875,9.96875-4.5537109375,15.3076171875-.7841796875,5.337890625-.837890625,10.6513671875-.15625,15.935546875.6796875,5.2861328125,2.1708984375,9.8662109375,4.474609375,13.7373046875,1.46484375,2.51171875,3.21875,4.37109375,5.259765625,5.5732421875,2.041015625,1.2041015625,4.2109375,1.8837890625,6.515625,2.041015625,2.30078125.1572265625,4.5771484375-.208984375,6.8291015625-1.0986328125,2.2490234375-.888671875,4.2626953125-2.22265625,6.0439453125-4.00390625,2.720703125-2.720703125,4.9189453125-4.65625,6.59375-5.80859375,1.673828125-1.1513671875,3.5576171875-1.779296875,5.65234375-1.884765625,5.966796875,0,9.916015625,1.67578125,11.853515625,5.0244140625,1.935546875,3.3505859375,2.06640625,7.4326171875.392578125,12.24609375-1.361328125,3.767578125-3.4296875,7.064453125-6.201171875,9.890625-2.7744140625,2.826171875-5.9931640625,5.1025390625-9.65625,6.830078125-3.6640625,1.7265625-7.58984375,2.9306640625-11.7744140625,3.6103515625-4.1875.6796875-8.3212890625.8642578125-12.4033203125.5498046875s-7.955078125-1.177734375-11.6171875-2.5908203125c-3.666015625-1.4130859375-6.8056640625-3.3212890625-9.419921875-5.73046875-2.931640625-2.720703125-5.49609375-5.8330078125-7.693359375-9.3408203125-2.1982421875-3.505859375-4.03125-7.22265625-5.4951171875-11.1474609375-1.4677734375-3.9248046875-2.5654296875-8.0068359375-3.296875-12.24609375-.7333984375-4.2392578125-1.0986328125-8.501953125-1.0986328125-12.794921875.2080078125-9.62890625,2.2490234375-18.943359375,6.123046875-27.9462890625,3.87109375-9.0009765625,9-16.8505859375,15.384765625-23.5498046875,2.9296875-3.03515625,6.41015625-5.625,10.44140625-7.771484375,4.02734375-2.14453125,8.1640625-3.533203125,12.40234375-4.1611328125,4.2392578125-.6279296875,8.400390625-.4169921875,12.482421875.6279296875,4.08203125,1.0478515625,7.6923828125,3.24609375,10.83203125,6.5947265625,2.40625,2.51171875,4.341796875,5.3916015625,5.8095703125,8.634765625,1.4638671875,3.2451171875,2.5634765625,6.4912109375,3.296875,9.7333984375.4169921875,2.095703125.6005859375,4.08203125.5498046875,5.966796875-.0546875,1.8837890625-.498046875,3.6650390625-1.3349609375,5.337890625-1.1533203125,2.0947265625-2.9306640625,3.5859375-5.337890625,4.474609375-2.4091796875.890625-4.7880859375,1.1767578125-7.1435546875.86328125-2.35546875-.314453125-4.396484375-1.2294921875-6.123046875-2.748046875-1.7265625-1.515625-2.5390625-3.583984375-2.43359375-6.201171875Z" fill="#fff" stroke-width="0"/>
                <path d="M366.25390625,267.739257812494543c3.0341796875,3.6650390625,5.416015625,8.0849609375,7.142578125,13.2666015625,1.7275390625,5.1806640625,2.328125,10.283203125,1.806640625,15.3076171875-.419921875,3.873046875-1.5703125,7.7197265625-3.455078125,11.5390625-1.8837890625,3.822265625-4.29296875,7.2216796875-7.2216796875,10.205078125-2.931640625,2.9833984375-6.3076171875,5.3916015625-10.1259765625,7.2216796875-3.822265625,1.8330078125-7.9296875,2.748046875-12.3251953125,2.748046875-2.72265625,0-5.4951171875-.2900390625-8.3212890625-.86328125-2.826171875-.57421875-5.572265625-1.38671875-8.2421875-2.43359375-2.6689453125-1.044921875-5.15625-2.4072265625-7.45703125-4.08203125-2.3037109375-1.6728515625-4.1875-3.611328125-5.65234375-5.8095703125-1.5703125-2.197265625-2.041015625-4.6044921875-1.4130859375-7.2216796875.6279296875-2.9287109375,1.8564453125-5.4677734375,3.689453125-7.6142578125,1.830078125-2.14453125,3.5322265625-3.8984375,5.1025390625-5.259765625.8369140625-.6279296875,1.884765625-1.044921875,3.140625-1.255859375,1.255859375-.208984375,2.45703125.3134765625,3.6103515625,1.5703125,1.8837890625,2.197265625,3.9248046875,3.951171875,6.123046875,5.2587890625,2.1982421875,1.310546875,4.369140625,2.041015625,6.515625,2.1982421875,2.1435546875.1572265625,4.1845703125-.3134765625,6.123046875-1.4130859375,1.935546875-1.0986328125,3.583984375-2.904296875,4.9453125-5.416015625.7314453125-1.46484375,1.1513671875-3.03515625,1.2568359375-4.7099609375.1025390625-1.673828125-.2109375-3.21875-.943359375-4.6318359375s-1.9375-2.615234375-3.6103515625-3.611328125c-1.6748046875-.9931640625-3.8740234375-1.5947265625-6.59375-1.8056640625-.2119140625.10546875-.3681640625.1328125-.4716796875.0791015625-.10546875-.0517578125-.2109375-.0791015625-.3134765625-.0791015625h-.3134765625c-.10546875.10546875-.2109375.1572265625-.314453125.1572265625h-.6279296875c-.3134765625-.1025390625-.6552734375-.181640625-1.0205078125-.2353515625-.3681640625-.0517578125-.6552734375-.181640625-.86328125-.392578125-1.1533203125-.3134765625-1.9384765625-1.255859375-2.35546875-2.826171875-.419921875-1.5693359375-.654296875-3.296875-.70703125-5.1806640625s.025390625-3.7412109375.236328125-5.5732421875c.208984375-1.830078125.470703125-3.1650390625.78515625-4.00390625.416015625-1.150390625.94140625-2.119140625,1.5703125-2.904296875.626953125-.78515625,1.3583984375-1.177734375,2.197265625-1.177734375,2.615234375,0,4.91796875-.8359375,6.908203125-2.51171875,1.986328125-1.6728515625,3.400390625-3.5576171875,4.23828125-5.65234375.8369140625-2.0927734375.966796875-4.0546875.392578125-5.8876953125-.576171875-1.830078125-2.1728515625-2.8505859375-4.7880859375-3.0615234375-1.7802734375-.2080078125-3.689453125.341796875-5.73046875,1.6494140625-2.041015625,1.3095703125-3.7431640625,3.3232421875-5.1025390625,6.0439453125-.525390625,1.0478515625-.94140625,2.068359375-1.255859375,3.0615234375-.314453125.99609375-1.099609375,1.75390625-2.35546875,2.2763671875-1.046875.419921875-2.041015625.6279296875-2.982421875.6279296875-3.037109375,0-5.94140625-.8876953125-8.7138671875-2.6689453125-2.7744140625-1.7783203125-4.6318359375-4.2900390625-5.5732421875-7.5361328125-.419921875-1.986328125-.3681640625-3.9248046875.15625-5.80859375.5234375-1.8837890625,1.30859375-3.7138671875,2.35546875-5.4951171875,1.779296875-2.9287109375,4.0283203125-5.4951171875,6.7509765625-7.693359375,2.720703125-2.197265625,5.7314453125-3.94921875,9.0283203125-5.2587890625,3.296875-1.3076171875,6.8017578125-2.1201171875,10.5185546875-2.43359375,3.7138671875-.314453125,7.4580078125,0,11.2255859375.94140625,4.7099609375,1.1533203125,8.580078125,3.32421875,11.6171875,6.515625,3.03515625,3.1943359375,5.154296875,6.986328125,6.359375,11.3828125,1.201171875,4.3955078125,1.412109375,9.2109375.6279296875,14.4443359375-.78515625,5.234375-2.64453125,10.572265625-5.5732421875,16.013671875Z" fill="#fff" stroke-width="0"/>
              </g>
            </g>
          </a>
        </g>
      </a>
    </g>
  </g>
</svg>