<?xml version="1.0" encoding="UTF-8"?>
<svg id="Layer_1" data-name="Layer 1" xmlns="http://www.w3.org/2000/svg" xmlns:xlink="http://www.w3.org/1999/xlink" viewBox="0 0 600 600.000000000003638">
  <defs>
    <linearGradient id="linear-gradient" x1="263.726254692981456" y1="239.14426569369698" x2="263.726254692981456" y2="105.226067153475924" gradientTransform="translate(60.243014960376058 60.931896348381997) rotate(4.075560294936937)" gradientUnits="userSpaceOnUse">
      <stop offset="0" stop-color="#2d7f98"/>
      <stop offset=".5" stop-color="#008c8d"/>
      <stop offset="1" stop-color="#1f9276"/>
    </linearGradient>
    <linearGradient id="linear-gradient-2" x1="595.370694547119456" y1="315.075230657479551" x2="595.370694547119456" y2="194.219802477432495" gradientTransform="translate(-382.449437039558688 134.146102342213624) rotate(-5.481680164276503)" gradientUnits="userSpaceOnUse">
      <stop offset="0" stop-color="#7d67a2"/>
      <stop offset=".5" stop-color="#8e5ba6"/>
      <stop offset="1" stop-color="#a25d99"/>
    </linearGradient>
    <linearGradient id="linear-gradient-3" x1="1113.011633229607469" y1="-166.609593602022869" x2="1113.011633229607469" y2="-271.941758472330548" gradientTransform="translate(-757.942132792830307 421.398570967303158) rotate(6.084168734692867) skewX(1.000000000000039)" gradientUnits="userSpaceOnUse">
      <stop offset="0" stop-color="#7e9e4c"/>
      <stop offset=".5" stop-color="#91a23d"/>
      <stop offset="1" stop-color="#b4924e"/>
    </linearGradient>
  </defs>
  <g id="pie_with_links_-5" data-name="pie (with links)">
    <g id="pie_with_links_-6" data-name="pie (with links)">
      <g id="Pie">
        <g>
          <path d="M563.857666015619543,222.524658203125c-7.463134765619543-25.456298828125-18.50341796875-49.36572265625-32.551513671869543-71.177734375-14.219970703130457-22.08056640625-31.504150390630457-41.98046875-51.26708984375-59.122314453125l-35.972900390630457,41.5185546875c15.815185546880457,13.71240234375,29.64306640625,29.6376953125,41.016357421880457,47.311279296875,11.23095703125,17.45068359375,20.0556640625,36.585205078125,26.020263671869543,56.96044921875,5.755126953130457,19.66357421875,8.897216796880457,40.44970703125,8.897216796880457,61.985107421875,0,21.5380859375-3.14208984375,42.321533203125-8.897216796880457,61.985107421875-5.9619140625,20.3779296875-14.789306640619543,39.509765625-26.020263671869543,56.96044921875-11.373291015630457,17.673583984375-25.201171875,33.598876953125-41.016357421880457,47.31396484375-15.75341796875,13.65869140625-33.459228515619543,25.1044921875-52.66357421875,33.880859375-18.7666015625,8.572265625-38.93505859375,14.601318359375-60.094482421869543,17.609130859375l7.82568359375,54.4306640625c26.439208984369543-3.767822265625,51.645751953119543-11.3115234375,75.101318359369543-22.04296875,23.989990234380457-10.975830078125,46.1162109375-25.287109375,65.803955078130457-42.36181640625,19.762939453119543-17.141845703125,37.047119140619543-37.041748046875,51.26708984375-59.125,14.048095703119543-21.809326171875,25.08837890625-45.71875,32.551513671869543-71.175048828125,7.2080078125-24.58349609375,11.142333984380457-50.5634765625,11.142333984380457-77.475341796875s-3.934326171880457-52.89453125-11.142333984380457-77.475341796875Z" fill="none" stroke="#181818" stroke-linecap="round" stroke-linejoin="round" stroke-width="15"/>
          <path d="M414.235107421869543,49.86279296875c-23.45556640625-10.7314453125-48.662109375-18.275146484375-75.101318359369543-22.04296875-12.78857421875-1.823486328125-25.843017578130457-2.81982421875-39.1337890625-2.81982421875-13.290771484380457,0-26.34521484375.996337890625-39.1337890625,2.81982421875-26.439208984380457,3.767822265625-51.64306640625,11.3115234375-75.0986328125,22.04296875-23.99267578125,10.97314453125-46.1162109375,25.287109375-65.803955078130457,42.36181640625l35.972900390630457,41.515869140625c15.75341796875-13.65869140625,33.4619140625-25.1044921875,52.66357421875-33.878173828125,18.7666015625-8.574951171875,38.93505859375-14.601318359375,60.091796875-17.609130859375,10.23193359375-1.45556640625,20.67333984375-2.253173828125,31.30810546875-2.253173828125s21.078857421869543.797607421875,31.30810546875,2.253173828125c21.159423828119543,3.0078125,41.327880859369543,9.0341796875,60.094482421869543,17.609130859375,19.204345703130457,8.773681640625,36.91015625,20.22216796875,52.66357421875,33.880859375l35.972900390630457-41.5185546875c-19.687744140630457-17.07470703125-41.81396484375-31.388671875-65.803955078130457-42.36181640625Z" fill="none" stroke="#181818" stroke-linecap="round" stroke-linejoin="round" stroke-width="15"/>
          <path d="M208.60009765625,500.140380859375c-19.20166015625-8.773681640625-36.91015625-20.22216796875-52.66357421875-33.880859375-15.815185546880457-13.71240234375-29.64306640625-29.6376953125-41.01904296875-47.31396484375-11.23095703125-17.45068359375-20.0556640625-36.58251953125-26.020263671880457-56.96044921875-5.755126953119543-19.66357421875-8.897216796869543-40.447021484375-8.897216796869543-61.985107421875,0-21.535400390625,3.14208984375-42.321533203125,8.897216796869543-61.985107421875,5.964599609380457-20.375244140625,14.7919921875-39.509765625,26.02294921875-56.96044921875,11.373291015630457-17.673583984375,25.201171875-33.598876953125,41.016357421880457-47.31396484375l-35.972900390630457-41.515869140625c-19.765625,17.141845703125-37.0498046875,37.041748046875-51.269775390619543,59.122314453125-14.04541015625,21.81201171875-25.08837890625,45.721435546875-32.551513671880457,71.177734375-7.205322265619543,24.580810546875-11.142333984369543,50.5634765625-11.142333984369543,77.475341796875s3.93701171875,52.89453125,11.142333984369543,77.475341796875c7.463134765630457,25.456298828125,18.506103515630457,49.36572265625,32.551513671880457,71.175048828125,14.219970703119543,22.083251953125,31.504150390619543,41.983154296875,51.269775390619543,59.125,19.687744140630457,17.07470703125,41.811279296880457,31.385986328125,65.803955078130457,42.36181640625,23.45556640625,10.7314453125,48.659423828119543,18.275146484375,75.0986328125,22.04296875l7.82568359375-54.4306640625c-21.15673828125-3.0078125-41.3251953125-9.0341796875-60.091796875-17.609130859375Z" fill="none" stroke="#181818" stroke-linecap="round" stroke-linejoin="round" stroke-width="15"/>
          <a xlink:href="https://www.notion.so/dmmnotes/psychopathy-0fe4a3222d9f4fd097ab4546c9776768?pvs=4">
            <path id="AC" d="M300,520.000000000003638c-10.634765625,0-21.076171875-.794921875-31.30810546875-2.25048828125l-7.825683593739996,54.4306640625c12.788574218739996,1.823486328130457,25.843017578120453,2.81982421875,39.133789062489996,2.81982421875s26.345214843760004-.996337890619543,39.1337890625-2.81982421875l-7.825683593739996-54.4306640625c-10.229248046890461,1.45556640625-20.673339843760004,2.25048828125-31.308105468760004,2.25048828125Z" fill="none" stroke="#181818" stroke-linecap="round" stroke-linejoin="round" stroke-width="15"/>
          </a>
        </g>
        <g>
          <path d="M563.857666015619543,222.524658203125c-7.463134765619543-25.456298828125-18.50341796875-49.36572265625-32.551513671869543-71.177734375-14.219970703130457-22.08056640625-31.504150390630457-41.98046875-51.26708984375-59.122314453125l-35.972900390630457,41.5185546875c15.815185546880457,13.71240234375,29.64306640625,29.6376953125,41.016357421880457,47.311279296875,11.23095703125,17.45068359375,20.0556640625,36.585205078125,26.020263671869543,56.96044921875,5.755126953130457,19.66357421875,8.897216796880457,40.44970703125,8.897216796880457,61.985107421875,0,21.5380859375-3.14208984375,42.321533203125-8.897216796880457,61.985107421875-5.9619140625,20.3779296875-14.789306640619543,39.509765625-26.020263671869543,56.96044921875-11.373291015630457,17.673583984375-25.201171875,33.598876953125-41.016357421880457,47.31396484375-15.75341796875,13.65869140625-33.459228515619543,25.1044921875-52.66357421875,33.880859375-18.7666015625,8.572265625-38.93505859375,14.601318359375-60.094482421869543,17.609130859375l7.82568359375,54.4306640625c26.439208984369543-3.767822265625,51.645751953119543-11.3115234375,75.101318359369543-22.04296875,23.989990234380457-10.975830078125,46.1162109375-25.287109375,65.803955078130457-42.36181640625,19.762939453119543-17.141845703125,37.047119140619543-37.041748046875,51.26708984375-59.125,14.048095703119543-21.809326171875,25.08837890625-45.71875,32.551513671869543-71.175048828125,7.2080078125-24.58349609375,11.142333984380457-50.5634765625,11.142333984380457-77.475341796875s-3.934326171880457-52.89453125-11.142333984380457-77.475341796875Z" fill="#91a23d" stroke="#181818" stroke-linecap="round" stroke-linejoin="round" stroke-width="2"/>
          <path d="M414.235107421869543,49.86279296875c-23.45556640625-10.7314453125-48.662109375-18.275146484375-75.101318359369543-22.04296875-12.78857421875-1.823486328125-25.843017578130457-2.81982421875-39.1337890625-2.81982421875-13.290771484380457,0-26.34521484375.996337890625-39.1337890625,2.81982421875-26.439208984380457,3.767822265625-51.64306640625,11.3115234375-75.0986328125,22.04296875-23.99267578125,10.97314453125-46.1162109375,25.287109375-65.803955078130457,42.36181640625l35.972900390630457,41.515869140625c15.75341796875-13.65869140625,33.4619140625-25.1044921875,52.66357421875-33.878173828125,18.7666015625-8.574951171875,38.93505859375-14.601318359375,60.091796875-17.609130859375,10.23193359375-1.45556640625,20.67333984375-2.253173828125,31.30810546875-2.253173828125s21.078857421869543.797607421875,31.30810546875,2.253173828125c21.159423828119543,3.0078125,41.327880859369543,9.0341796875,60.094482421869543,17.609130859375,19.204345703130457,8.773681640625,36.91015625,20.22216796875,52.66357421875,33.880859375l35.972900390630457-41.5185546875c-19.687744140630457-17.07470703125-41.81396484375-31.388671875-65.803955078130457-42.36181640625Z" fill="#008c8d" stroke="#181818" stroke-linecap="round" stroke-linejoin="round" stroke-width="2"/>
          <path d="M208.60009765625,500.140380859375c-19.20166015625-8.773681640625-36.91015625-20.22216796875-52.66357421875-33.880859375-15.815185546880457-13.71240234375-29.64306640625-29.6376953125-41.01904296875-47.31396484375-11.23095703125-17.45068359375-20.0556640625-36.58251953125-26.020263671880457-56.96044921875-5.755126953119543-19.66357421875-8.897216796869543-40.447021484375-8.897216796869543-61.985107421875,0-21.535400390625,3.14208984375-42.321533203125,8.897216796869543-61.985107421875,5.964599609380457-20.375244140625,14.7919921875-39.509765625,26.02294921875-56.96044921875,11.373291015630457-17.673583984375,25.201171875-33.598876953125,41.016357421880457-47.31396484375l-35.972900390630457-41.515869140625c-19.765625,17.141845703125-37.0498046875,37.041748046875-51.269775390619543,59.122314453125-14.04541015625,21.81201171875-25.08837890625,45.721435546875-32.551513671880457,71.177734375-7.205322265619543,24.580810546875-11.142333984369543,50.5634765625-11.142333984369543,77.475341796875s3.93701171875,52.89453125,11.142333984369543,77.475341796875c7.463134765630457,25.456298828125,18.506103515630457,49.36572265625,32.551513671880457,71.175048828125,14.219970703119543,22.083251953125,31.504150390619543,41.983154296875,51.269775390619543,59.125,19.687744140630457,17.07470703125,41.811279296880457,31.385986328125,65.803955078130457,42.36181640625,23.45556640625,10.7314453125,48.659423828119543,18.275146484375,75.0986328125,22.04296875l7.82568359375-54.4306640625c-21.15673828125-3.0078125-41.3251953125-9.0341796875-60.091796875-17.609130859375Z" fill="#8e5ba6" stroke="#181818" stroke-linecap="round" stroke-linejoin="round" stroke-width="2"/>
          <a xlink:href="https://www.notion.so/dmmnotes/psychopathy-0fe4a3222d9f4fd097ab4546c9776768?pvs=4">
            <path id="AC-2" data-name="AC" d="M300,520.000000000003638c-10.634765625,0-21.076171875-.794921875-31.30810546875-2.25048828125l-7.825683593739996,54.4306640625c12.788574218739996,1.823486328130457,25.843017578120453,2.81982421875,39.133789062489996,2.81982421875s26.345214843760004-.996337890619543,39.1337890625-2.81982421875l-7.825683593739996-54.4306640625c-10.229248046890461,1.45556640625-20.673339843760004,2.25048828125-31.308105468760004,2.25048828125Z" fill="#f1666a" stroke="#181818" stroke-linecap="round" stroke-linejoin="round" stroke-width="2"/>
          </a>
        </g>
      </g>
      <a xlink:href="https://www.notion.so/dmmnotes/major-strategies-3fa9d56be0d24b57bb3cf996db249b1b?pvs=4">
        <g id="Major_strategies" data-name="Major strategies">
          <g id="B">
            <path d="M341.24609375,250.65283203125c4.8837890625,4.36328125,8.376953125,9.6025390625,10.482421875,15.71484375,2.10205078125,6.11328125,2.45751953125,12.3076171875,1.06640625,18.5849609375-1.56787109375,7.091796875-4.81689453125,12.9130859375-9.74560546875,17.4599609375-4.9296875,4.55078125-10.60888671875,8.0126953125-17.03564453125,10.388671875-6.4296875,2.3759765625-13.2880859375,3.77734375-20.58056640625,4.2021484375-7.2919921875.423828125-14.0849609375.05859375-20.37939453125-1.09765625-.60595703125.19140625-1.14501953125.2998046875-1.6171875.3271484375-.47509765625.0234375-1.01025390625.0751953125-1.60498046875.150390625-2.123046875-.0341796875-4.29833984375-.189453125-6.5205078125-.4638671875-2.22509765625-.27734375-4.22412109375-.8046875-5.99853515625-1.5791015625-1.77685546875-.7734375-3.25732421875-1.9423828125-4.4443359375-3.50390625-1.189453125-1.560546875-1.8037109375-3.69921875-1.84521484375-6.419921875-.14453125-1.30859375-.01611328125-3.92578125.3828125-7.8544921875.39599609375-3.9267578125.85546875-8.70703125,1.3759765625-14.337890625.6435546875-5.7392578125,1.2958984375-11.9794921875,1.9541015625-18.724609375.6572265625-6.7421875,1.28662109375-13.5166015625,1.890625-20.3232421875.751953125-8.9189453125,1.5107421875-17.8984375,2.2734375-26.9384765625.76025390625-9.037109375,1.056640625-18.1689453125.888671875-27.390625-.1611328125-1.07421875.02392578125-2.0048828125.5537109375-2.794921875.2841796875-.6884765625.861328125-1.3251953125,1.73046875-1.9130859375.86669921875-.5869140625,2.13134765625-.9384765625,3.794921875-1.0576171875,1.18115234375-.033203125,2.48779296875-.1171875,3.9150390625-.2529296875,1.42626953125-.1337890625,2.90673828125-.205078125,4.443359375-.21484375,1.53369140625-.0068359375,3.00439453125.09765625,4.40576171875.3134765625,1.40087890625.2197265625,2.6181640625.541015625,3.650390625.96875,6.05029296875-.3935546875,12.3359375.0234375,18.86328125,1.255859375,6.5234375,1.234375,12.61083984375,3.2314453125,18.25927734375,5.9951171875,5.64794921875,2.765625,10.47412109375,6.2666015625,14.48388671875,10.5078125,4.0068359375,4.2431640625,6.515625,9.232421875,7.52392578125,14.970703125.41064453125,2.509765625.57861328125,5.12109375.5048828125,7.830078125-.0771484375,2.712890625-.56787109375,5.48046875-1.4775390625,8.3076171875-.91015625,2.830078125-2.26953125,5.7451171875-4.0771484375,8.744140625-1.80810546875,3.0009765625-4.18115234375,6.0498046875-7.11669921875,9.1455078125ZM293.05419921875,288.13427734375c6.29443359375,1.158203125,11.66015625,1.2470703125,16.10009765625.26171875,4.43701171875-.9814453125,7.8232421875-2.51171875,10.1572265625-4.58984375,2.33154296875-2.0751953125,3.61865234375-4.4052734375,3.86328125-6.986328125.2421875-2.5791015625-.62646484375-4.884765625-2.60693359375-6.9169921875-1.98095703125-2.02734375-5.12353515625-3.5224609375-9.42236328125-4.4794921875-4.30224609375-.9541015625-9.79638671875-.90234375-16.48388671875.154296875l-1.607421875,22.556640625ZM296.1669921875,236.99072265625c5.62255859375.638671875,10.4228515625.388671875,14.40087890625-.7451171875,3.97705078125-1.1337890625,7.0166015625-2.77734375,9.11865234375-4.9296875,2.1015625-2.15234375,3.21826171875-4.5810546875,3.35302734375-7.2890625.1318359375-2.705078125-.72314453125-5.1884765625-2.56884765625-7.4453125-1.8486328125-2.2568359375-4.7294921875-4.083984375-8.642578125-5.486328125-3.916015625-1.400390625-8.95849609375-1.90625-15.12451171875-1.5205078125.02587890625,4.607421875-.0322265625,9.1494140625-.173828125,13.6259765625-.14208984375,4.4794921875-.2646484375,9.0751953125-.36279296875,13.7900390625Z" fill="none" stroke="#181818" stroke-linecap="round" stroke-linejoin="round" stroke-width="42"/>
            <path d="M341.24609375,250.65283203125c4.8837890625,4.36328125,8.376953125,9.6025390625,10.482421875,15.71484375,2.10205078125,6.11328125,2.45751953125,12.3076171875,1.06640625,18.5849609375-1.56787109375,7.091796875-4.81689453125,12.9130859375-9.74560546875,17.4599609375-4.9296875,4.55078125-10.60888671875,8.0126953125-17.03564453125,10.388671875-6.4296875,2.3759765625-13.2880859375,3.77734375-20.58056640625,4.2021484375-7.2919921875.423828125-14.0849609375.05859375-20.37939453125-1.09765625-.60595703125.19140625-1.14501953125.2998046875-1.6171875.3271484375-.47509765625.0234375-1.01025390625.0751953125-1.60498046875.150390625-2.123046875-.0341796875-4.29833984375-.189453125-6.5205078125-.4638671875-2.22509765625-.27734375-4.22412109375-.8046875-5.99853515625-1.5791015625-1.77685546875-.7734375-3.25732421875-1.9423828125-4.4443359375-3.50390625-1.189453125-1.560546875-1.8037109375-3.69921875-1.84521484375-6.419921875-.14453125-1.30859375-.01611328125-3.92578125.3828125-7.8544921875.39599609375-3.9267578125.85546875-8.70703125,1.3759765625-14.337890625.6435546875-5.7392578125,1.2958984375-11.9794921875,1.9541015625-18.724609375.6572265625-6.7421875,1.28662109375-13.5166015625,1.890625-20.3232421875.751953125-8.9189453125,1.5107421875-17.8984375,2.2734375-26.9384765625.76025390625-9.037109375,1.056640625-18.1689453125.888671875-27.390625-.1611328125-1.07421875.02392578125-2.0048828125.5537109375-2.794921875.2841796875-.6884765625.861328125-1.3251953125,1.73046875-1.9130859375.86669921875-.5869140625,2.13134765625-.9384765625,3.794921875-1.0576171875,1.18115234375-.033203125,2.48779296875-.1171875,3.9150390625-.2529296875,1.42626953125-.1337890625,2.90673828125-.205078125,4.443359375-.21484375,1.53369140625-.0068359375,3.00439453125.09765625,4.40576171875.3134765625,1.40087890625.2197265625,2.6181640625.541015625,3.650390625.96875,6.05029296875-.3935546875,12.3359375.0234375,18.86328125,1.255859375,6.5234375,1.234375,12.61083984375,3.2314453125,18.25927734375,5.9951171875,5.64794921875,2.765625,10.47412109375,6.2666015625,14.48388671875,10.5078125,4.0068359375,4.2431640625,6.515625,9.232421875,7.52392578125,14.970703125.41064453125,2.509765625.57861328125,5.12109375.5048828125,7.830078125-.0771484375,2.712890625-.56787109375,5.48046875-1.4775390625,8.3076171875-.91015625,2.830078125-2.26953125,5.7451171875-4.0771484375,8.744140625-1.80810546875,3.0009765625-4.18115234375,6.0498046875-7.11669921875,9.1455078125ZM293.05419921875,288.13427734375c6.29443359375,1.158203125,11.66015625,1.2470703125,16.10009765625.26171875,4.43701171875-.9814453125,7.8232421875-2.51171875,10.1572265625-4.58984375,2.33154296875-2.0751953125,3.61865234375-4.4052734375,3.86328125-6.986328125.2421875-2.5791015625-.62646484375-4.884765625-2.60693359375-6.9169921875-1.98095703125-2.02734375-5.12353515625-3.5224609375-9.42236328125-4.4794921875-4.30224609375-.9541015625-9.79638671875-.90234375-16.48388671875.154296875l-1.607421875,22.556640625ZM296.1669921875,236.99072265625c5.62255859375.638671875,10.4228515625.388671875,14.40087890625-.7451171875,3.97705078125-1.1337890625,7.0166015625-2.77734375,9.11865234375-4.9296875,2.1015625-2.15234375,3.21826171875-4.5810546875,3.35302734375-7.2890625.1318359375-2.705078125-.72314453125-5.1884765625-2.56884765625-7.4453125-1.8486328125-2.2568359375-4.7294921875-4.083984375-8.642578125-5.486328125-3.916015625-1.400390625-8.95849609375-1.90625-15.12451171875-1.5205078125.02587890625,4.607421875-.0322265625,9.1494140625-.173828125,13.6259765625-.14208984375,4.4794921875-.2646484375,9.0751953125-.36279296875,13.7900390625Z" fill="url(#linear-gradient)" stroke-width="0"/>
          </g>
          <g id="A">
            <path d="M247.13623046875,273.14599609375c4.22607421875,1.93505859375,7.9248046875,4.4521484375,11.09375,7.55029296875,3.1689453125,3.099609375,5.91845703125,6.5576171875,8.25390625,10.3740234375,2.3330078125,3.81884765625,4.29345703125,7.91015625,5.8837890625,12.27734375,1.5888671875,4.369140625,2.91748046875,8.7880859375,3.98486328125,13.25634765625,2.333984375,8.8173828125,4.04541015625,17.7978515625,5.1376953125,26.9462890625,1.08984375,9.1474609375,1.81689453125,18.384765625,2.1806640625,27.70703125.04052734375,2.654296875.0380859375,4.8369140625-.01025390625,6.5400390625-.05078125,1.7080078125-.31396484375,3.1171875-.79150390625,4.224609375-.47900390625,1.1103515625-1.21533203125,2.0302734375-2.20703125,2.7646484375-.994140625.732421875-2.4130859375,1.4521484375-4.2587890625,2.1630859375-1.77294921875.3818359375-3.62744140625.7197265625-5.56640625,1.0126953125-1.94091796875.291015625-3.80908203125-.060546875-5.60498046875-1.0576171875-1.68115234375-.900390625-3.17236328125-2.56640625-4.46728515625-4.9951171875-1.29736328125-2.427734375-2.2265625-6.0078125-2.78564453125-10.7392578125l-.1513671875-1.5810546875c-2.666015625-.0625-5.8251953125-.0244140625-9.48095703125.1123046875-3.65576171875.1396484375-7.38330078125.3642578125-11.18212890625.6748046875-3.79833984375.3115234375-7.4638671875.6357421875-10.9931640625.974609375-3.53173828125.3388671875-6.5078125.625-8.9306640625.857421875-.01513671875.958984375.00537109375,2.5517578125.0595703125,4.7802734375.0546875,2.2275390625-.076171875,4.4736328125-.39013671875,6.73828125-.31640625,2.2626953125-.8349609375,4.333984375-1.55712890625,6.2099609375-.724609375,1.87890625-1.87158203125,2.943359375-3.44189453125,3.201171875-1.46728515625.24609375-3.14111328125.513671875-5.02783203125.8017578125-1.88720703125.2861328125-3.751953125.2529296875-5.5927734375-.1015625-1.833984375-.248046875-3.41650390625-.9482421875-4.748046875-2.095703125-1.333984375-1.1484375-2.185546875-3.0849609375-2.55224609375-5.81640625-.3134765625-3.265625-.62060546875-7.01171875-.9189453125-11.2392578125-.30029296875-4.2236328125-.52783203125-8.8271484375-.6875-13.8125-.1845703125-4.1298828125-.2734375-8.6669921875-.26953125-13.61328125.00341796875-4.9453125.20556640625-10.0419921875.6064453125-15.29296875.3984375-5.2470703125,1.0634765625-10.5224609375,1.99072265625-15.82470703125.92724609375-5.29736328125,2.24755859375-10.36962890625,3.96337890625-15.2158203125,1.7138671875-4.8427734375,3.8603515625-9.35693359375,6.4375-13.53857421875,2.5751953125-4.18115234375,5.79345703125-7.78759765625,9.650390625-10.81689453125,4.55224609375-3.52099609375,9.72802734375-5.56005859375,15.52490234375-6.1162109375,5.79443359375-.55615234375,11.4111328125.3408203125,16.8486328125,2.68994140625ZM215.6279296875,348.75341796875c6.58837890625-1.1630859375,13.162109375-2.1923828125,19.7236328125-3.0888671875,6.5595703125-.89453125,13.17138671875-1.5556640625,19.830078125-1.9833984375-.40185546875-7.5107421875-1.35986328125-14.1708984375-2.875-19.9833984375-1.5146484375-5.8095703125-3.3115234375-10.66162109375-5.38525390625-14.55810546875-2.076171875-3.89306640625-4.37744140625-6.81103515625-6.9013671875-8.75-2.52685546875-1.935546875-5.00146484375-2.7900390625-7.42431640625-2.5576171875-2.109375.20263671875-4.19140625,1.494140625-6.2490234375,3.86962890625-2.0595703125,2.37890625-3.86328125,5.7421875-5.41259765625,10.09130859375-1.55126953125,4.3515625-2.82177734375,9.65771484375-3.81640625,15.91943359375-.99365234375,6.2646484375-1.4921875,13.279296875-1.48974609375,21.041015625Z" fill="none" stroke="#181818" stroke-linecap="round" stroke-linejoin="round" stroke-width="42"/>
            <path d="M247.13623046875,273.14599609375c4.22607421875,1.93505859375,7.9248046875,4.4521484375,11.09375,7.55029296875,3.1689453125,3.099609375,5.91845703125,6.5576171875,8.25390625,10.3740234375,2.3330078125,3.81884765625,4.29345703125,7.91015625,5.8837890625,12.27734375,1.5888671875,4.369140625,2.91748046875,8.7880859375,3.98486328125,13.25634765625,2.333984375,8.8173828125,4.04541015625,17.7978515625,5.1376953125,26.9462890625,1.08984375,9.1474609375,1.81689453125,18.384765625,2.1806640625,27.70703125.04052734375,2.654296875.0380859375,4.8369140625-.01025390625,6.5400390625-.05078125,1.7080078125-.31396484375,3.1171875-.79150390625,4.224609375-.47900390625,1.1103515625-1.21533203125,2.0302734375-2.20703125,2.7646484375-.994140625.732421875-2.4130859375,1.4521484375-4.2587890625,2.1630859375-1.77294921875.3818359375-3.62744140625.7197265625-5.56640625,1.0126953125-1.94091796875.291015625-3.80908203125-.060546875-5.60498046875-1.0576171875-1.68115234375-.900390625-3.17236328125-2.56640625-4.46728515625-4.9951171875-1.29736328125-2.427734375-2.2265625-6.0078125-2.78564453125-10.7392578125l-.1513671875-1.5810546875c-2.666015625-.0625-5.8251953125-.0244140625-9.48095703125.1123046875-3.65576171875.1396484375-7.38330078125.3642578125-11.18212890625.6748046875-3.79833984375.3115234375-7.4638671875.6357421875-10.9931640625.974609375-3.53173828125.3388671875-6.5078125.625-8.9306640625.857421875-.01513671875.958984375.00537109375,2.5517578125.0595703125,4.7802734375.0546875,2.2275390625-.076171875,4.4736328125-.39013671875,6.73828125-.31640625,2.2626953125-.8349609375,4.333984375-1.55712890625,6.2099609375-.724609375,1.87890625-1.87158203125,2.943359375-3.44189453125,3.201171875-1.46728515625.24609375-3.14111328125.513671875-5.02783203125.8017578125-1.88720703125.2861328125-3.751953125.2529296875-5.5927734375-.1015625-1.833984375-.248046875-3.41650390625-.9482421875-4.748046875-2.095703125-1.333984375-1.1484375-2.185546875-3.0849609375-2.55224609375-5.81640625-.3134765625-3.265625-.62060546875-7.01171875-.9189453125-11.2392578125-.30029296875-4.2236328125-.52783203125-8.8271484375-.6875-13.8125-.1845703125-4.1298828125-.2734375-8.6669921875-.26953125-13.61328125.00341796875-4.9453125.20556640625-10.0419921875.6064453125-15.29296875.3984375-5.2470703125,1.0634765625-10.5224609375,1.99072265625-15.82470703125.92724609375-5.29736328125,2.24755859375-10.36962890625,3.96337890625-15.2158203125,1.7138671875-4.8427734375,3.8603515625-9.35693359375,6.4375-13.53857421875,2.5751953125-4.18115234375,5.79345703125-7.78759765625,9.650390625-10.81689453125,4.55224609375-3.52099609375,9.72802734375-5.56005859375,15.52490234375-6.1162109375,5.79443359375-.55615234375,11.4111328125.3408203125,16.8486328125,2.68994140625ZM215.6279296875,348.75341796875c6.58837890625-1.1630859375,13.162109375-2.1923828125,19.7236328125-3.0888671875,6.5595703125-.89453125,13.17138671875-1.5556640625,19.830078125-1.9833984375-.40185546875-7.5107421875-1.35986328125-14.1708984375-2.875-19.9833984375-1.5146484375-5.8095703125-3.3115234375-10.66162109375-5.38525390625-14.55810546875-2.076171875-3.89306640625-4.37744140625-6.81103515625-6.9013671875-8.75-2.52685546875-1.935546875-5.00146484375-2.7900390625-7.42431640625-2.5576171875-2.109375.20263671875-4.19140625,1.494140625-6.2490234375,3.86962890625-2.0595703125,2.37890625-3.86328125,5.7421875-5.41259765625,10.09130859375-1.55126953125,4.3515625-2.82177734375,9.65771484375-3.81640625,15.91943359375-.99365234375,6.2646484375-1.4921875,13.279296875-1.48974609375,21.041015625Z" fill="url(#linear-gradient-2)" stroke-width="0"/>
          </g>
          <g id="C">
            <path d="M386.25634765625,300.98583984375c.6455078125-2.654296875.62451171875-4.7587890625-.06640625-6.3154296875-.69189453125-1.5546875-1.74365234375-2.6611328125-3.15087890625-3.31689453125-1.41015625-.65478515625-3.0361328125-.8515625-4.8759765625-.591796875-1.841796875.26171875-3.578125.83740234375-5.2099609375,1.72314453125-3.80517578125,2.0400390625-7.1435546875,4.9814453125-10.0166015625,8.8251953125-2.875,3.8427734375-5.14453125,8.0390625-6.8125,12.587890625-1.66845703125,4.5498046875-2.68701171875,9.22265625-3.05224609375,14.015625-.3671875,4.7939453125.1103515625,9.126953125,1.43310546875,12.9970703125.83154296875,2.5048828125,2.0380859375,4.4921875,3.61767578125,5.95703125,1.57861328125,1.466796875,3.36865234375,2.4970703125,5.37060546875,3.0927734375,2,.595703125,4.07373046875.7255859375,6.22119140625.3876953125,2.14599609375-.3369140625,4.16552734375-1.1123046875,6.06103515625-2.328125,2.89599609375-1.8583984375,5.1875-3.1279296875,6.87548828125-3.8115234375,1.685546875-.681640625,3.4609375-.861328125,5.3271484375-.5380859375,5.25927734375,1.1845703125,8.4345703125,3.4462890625,9.53125,6.7822265625,1.09326171875,3.337890625.46142578125,6.9619140625-1.8935546875,10.8720703125-1.88916015625,3.05078125-4.31494140625,5.5458984375-7.275390625,7.4873046875-2.962890625,1.939453125-6.2158203125,3.306640625-9.7607421875,4.1015625-3.54638671875.794921875-7.22705078125,1.0771484375-11.04052734375.8447265625-3.81591796875-.232421875-7.49365234375-.8916015625-11.03466796875-1.978515625-3.54150390625-1.0869140625-6.7978515625-2.6181640625-9.7685546875-4.5908203125-2.97216796875-1.9736328125-5.39208984375-4.2783203125-7.2568359375-6.921875-2.08642578125-2.9794921875-3.77734375-6.232421875-5.07421875-9.7607421875-1.2958984375-3.5263671875-2.23193359375-7.166015625-2.8056640625-10.9169921875-.57568359375-3.7509765625-.7978515625-7.5673828125-.66748046875-11.44921875.12841796875-3.8818359375.5859375-7.7119140625,1.37060546875-11.49609375,1.94384765625-8.4453125,5.4462890625-16.2509765625,10.50732421875-23.41650390625,5.05859375-7.16455078125,11.015625-13.06494140625,17.8701171875-17.70263671875,3.13671875-2.09228515625,6.67919921875-3.6845703125,10.625-4.7763671875,3.94287109375-1.08984375,7.8427734375-1.49267578125,11.69482421875-1.20458984375,3.8515625.28857421875,7.48095703125,1.30029296875,10.88818359375,3.0322265625,3.40673828125,1.73388671875,6.1884765625,4.38818359375,8.34423828125,7.96337890625,1.66259765625,2.69189453125,2.8427734375,5.61474609375,3.54248046875,8.7646484375.69775390625,3.1513671875,1.0732421875,6.23046875,1.12646484375,9.23486328125-.01513671875,1.92919921875-.2158203125,3.71728515625-.6064453125,5.36767578125-.3916015625,1.650390625-1.1083984375,3.130859375-2.15185546875,4.4404296875-1.3994140625,1.6171875-3.24072265625,2.5791015625-5.52392578125,2.8837890625-2.28662109375.3056640625-4.4365234375.0869140625-6.45556640625-.6572265625-2.0185546875-.7451171875-3.650390625-1.95703125-4.89599609375-3.638671875-1.2451171875-1.6787109375-1.58251953125-3.6630859375-1.0107421875-5.94921875Z" fill="none" stroke="#181818" stroke-linecap="round" stroke-linejoin="round" stroke-width="42"/>
            <path d="M386.25634765625,300.98583984375c.6455078125-2.654296875.62451171875-4.7587890625-.06640625-6.3154296875-.69189453125-1.5546875-1.74365234375-2.6611328125-3.15087890625-3.31689453125-1.41015625-.65478515625-3.0361328125-.8515625-4.8759765625-.591796875-1.841796875.26171875-3.578125.83740234375-5.2099609375,1.72314453125-3.80517578125,2.0400390625-7.1435546875,4.9814453125-10.0166015625,8.8251953125-2.875,3.8427734375-5.14453125,8.0390625-6.8125,12.587890625-1.66845703125,4.5498046875-2.68701171875,9.22265625-3.05224609375,14.015625-.3671875,4.7939453125.1103515625,9.126953125,1.43310546875,12.9970703125.83154296875,2.5048828125,2.0380859375,4.4921875,3.61767578125,5.95703125,1.57861328125,1.466796875,3.36865234375,2.4970703125,5.37060546875,3.0927734375,2,.595703125,4.07373046875.7255859375,6.22119140625.3876953125,2.14599609375-.3369140625,4.16552734375-1.1123046875,6.06103515625-2.328125,2.89599609375-1.8583984375,5.1875-3.1279296875,6.87548828125-3.8115234375,1.685546875-.681640625,3.4609375-.861328125,5.3271484375-.5380859375,5.25927734375,1.1845703125,8.4345703125,3.4462890625,9.53125,6.7822265625,1.09326171875,3.337890625.46142578125,6.9619140625-1.8935546875,10.8720703125-1.88916015625,3.05078125-4.31494140625,5.5458984375-7.275390625,7.4873046875-2.962890625,1.939453125-6.2158203125,3.306640625-9.7607421875,4.1015625-3.54638671875.794921875-7.22705078125,1.0771484375-11.04052734375.8447265625-3.81591796875-.232421875-7.49365234375-.8916015625-11.03466796875-1.978515625-3.54150390625-1.0869140625-6.7978515625-2.6181640625-9.7685546875-4.5908203125-2.97216796875-1.9736328125-5.39208984375-4.2783203125-7.2568359375-6.921875-2.08642578125-2.9794921875-3.77734375-6.232421875-5.07421875-9.7607421875-1.2958984375-3.5263671875-2.23193359375-7.166015625-2.8056640625-10.9169921875-.57568359375-3.7509765625-.7978515625-7.5673828125-.66748046875-11.44921875.12841796875-3.8818359375.5859375-7.7119140625,1.37060546875-11.49609375,1.94384765625-8.4453125,5.4462890625-16.2509765625,10.50732421875-23.41650390625,5.05859375-7.16455078125,11.015625-13.06494140625,17.8701171875-17.70263671875,3.13671875-2.09228515625,6.67919921875-3.6845703125,10.625-4.7763671875,3.94287109375-1.08984375,7.8427734375-1.49267578125,11.69482421875-1.20458984375,3.8515625.28857421875,7.48095703125,1.30029296875,10.88818359375,3.0322265625,3.40673828125,1.73388671875,6.1884765625,4.38818359375,8.34423828125,7.96337890625,1.66259765625,2.69189453125,2.8427734375,5.61474609375,3.54248046875,8.7646484375.69775390625,3.1513671875,1.0732421875,6.23046875,1.12646484375,9.23486328125-.01513671875,1.92919921875-.2158203125,3.71728515625-.6064453125,5.36767578125-.3916015625,1.650390625-1.1083984375,3.130859375-2.15185546875,4.4404296875-1.3994140625,1.6171875-3.24072265625,2.5791015625-5.52392578125,2.8837890625-2.28662109375.3056640625-4.4365234375.0869140625-6.45556640625-.6572265625-2.0185546875-.7451171875-3.650390625-1.95703125-4.89599609375-3.638671875-1.2451171875-1.6787109375-1.58251953125-3.6630859375-1.0107421875-5.94921875Z" fill="url(#linear-gradient-3)" stroke-width="0"/>
          </g>
        </g>
      </a>
      <circle cx="207.557616264558874" cy="199.580249495442558" r="5.583760938982436" fill="#181818" stroke-width="0"/>
      <circle cx="189.628682944908633" cy="224.638679970431895" r="9.754998206971322" fill="#181818" stroke-width="0"/>
      <circle cx="410.657239767347164" cy="402.759435469688924" r="9.469173630104022" fill="#181818" stroke-width="0"/>
      <circle cx="405.682940380652326" cy="231.295449420606246" r="6.656769450172192" fill="#181818" stroke-width="0"/>
    </g>
  </g>
</svg>