<?xml version="1.0" encoding="UTF-8"?>
<svg id="Layer_1" data-name="Layer 1" xmlns="http://www.w3.org/2000/svg" xmlns:xlink="http://www.w3.org/1999/xlink" viewBox="0 0 600 600">
  <defs>
    <linearGradient id="B3-3" data-name="B3" x1="277.779492019997633" y1="378.484269323493209" x2="320.970298578606503" y2="318.564629238671273" gradientUnits="userSpaceOnUse">
      <stop offset="0" stop-color="#008693"/>
      <stop offset=".5" stop-color="#008c8d"/>
      <stop offset="1" stop-color="#008f82"/>
    </linearGradient>
  </defs>
  <g id="pie_with_links_-5" data-name="pie (with links)">
    <g id="pie_with_links_-6" data-name="pie (with links)">
      <g id="Pie">
        <g>
          <a xlink:href="https://www.notion.so/dmmnotes/paranoid-ae38b1e6af0c4dd08f61e0d8f6e9f05f?pvs=4">
            <path id="C8" d="M331.308105468760914,517.74951171875l7.825683593739086,54.4306640625c26.439208984371362-3.767822265628638,51.645751953139552-11.3115234375,75.101318359371362-22.04296875l-22.832519531239086-49.996826171878638c-18.766601562501819,8.572265625-38.935058593751819,14.601318359378638-60.094482421871362,17.609130859378638Z" fill="none" stroke="#181818" stroke-linecap="round" stroke-linejoin="round" stroke-width="15"/>
          </a>
          <a xlink:href="https://www.notion.so/dmmnotes/menacing-a5bd7149286344deba45ec15e759e579?pvs=4">
            <path id="C7" d="M391.402587890632276,500.140380859371362l22.832519531239086,49.996826171878638c23.989990234389552-10.975830078117724,46.11621093751819-25.287109375010914,65.803955078139552-42.36181640625l-35.972900390628638-41.515869140617724c-15.753417968760914,13.65869140625-33.459228515632276,25.104492187489086-52.66357421875,33.880859374989086Z" fill="none" stroke="#181818" stroke-linecap="round" stroke-linejoin="round" stroke-width="15"/>
          </a>
          <a xlink:href="https://www.notion.so/dmmnotes/seductively-obsessed-with-rescue-6fb5a68f6d334bc29ccccc16d8a4e56e?pvs=4">
            <path id="C6" d="M444.066162109382276,466.259521484382276l35.972900390628638,41.515869140617724c19.762939453121362-17.141845703128638,37.047119140621362-37.041748046878638,51.26708984375-59.125l-46.223632812510914-29.704833984367724c-11.373291015617724,17.673583984367724-25.201171874989086,33.598876953117724-41.016357421867724,47.31396484375Z" fill="none" stroke="#181818" stroke-linecap="round" stroke-linejoin="round" stroke-width="15"/>
          </a>
          <a xlink:href="https://www.notion.so/dmmnotes/punitively-obsessed-with-revenge-33d2e77f37774316b42bccf4a60f9688?pvs=4">
            <path id="C5" d="M485.08251953125,418.945556640632276l46.223632812510914,29.704833984367724c14.048095703128638-21.809326171878638,25.08837890625-45.71875,32.551513671871362-71.175048828128638l-52.7548828125-15.490234375c-5.9619140625,20.377929687510914-14.789306640621362,39.509765625-26.020263671882276,56.960449218760914Z" fill="none" stroke="#181818" stroke-linecap="round" stroke-linejoin="round" stroke-width="15"/>
          </a>
          <a xlink:href="https://www.notion.so/dmmnotes/feigned-helpless-e79a94b0498c4e109a681b7f3dcdb088?pvs=4">
            <path id="C4" d="M520,300c0,21.5380859375-3.142089843739086,42.321533203121362-8.897216796867724,61.985107421871362l52.7548828125,15.490234375c7.2080078125-24.583496093739086,11.142333984367724-50.5634765625,11.142333984367724-77.475341796871362h-55Z" fill="none" stroke="#181818" stroke-linecap="round" stroke-linejoin="round" stroke-width="15"/>
          </a>
          <a xlink:href="https://www.notion.so/dmmnotes/aggressive-2d8ccce383534b9dbfc7b4b10b8a5d5c?pvs=4">
            <path id="C3" d="M520,300h55c0-26.911865234389552-3.934326171867724-52.894531250010914-11.142333984367724-77.475341796889552l-52.7548828125,15.490234375c5.755126953128638,19.663574218760914,8.897216796867724,40.449707031260914,8.897216796867724,61.985107421889552Z" fill="none" stroke="#181818" stroke-linecap="round" stroke-linejoin="round" stroke-width="15"/>
          </a>
          <a xlink:href="https://www.notion.so/dmmnotes/disarming-086276e599884c86b9359acf831a8b20?pvs=4">
            <path id="C2" d="M511.102783203132276,238.014892578110448l52.7548828125-15.490234375c-7.463134765621362-25.456298828121362-18.503417968742724-49.365722656239086-32.551513671871362-71.177734374989086l-46.223632812510914,29.70751953125c11.230957031260914,17.45068359375,20.055664062510914,36.585205078117724,26.020263671882276,56.960449218739086Z" fill="none" stroke="#181818" stroke-linecap="round" stroke-linejoin="round" stroke-width="15"/>
          </a>
          <a xlink:href="https://www.notion.so/dmmnotes/threatening-348fe6a52f7a4fe69f768e98c6586932?pvs=4">
            <path id="C1" d="M485.08251953125,181.054443359371362l46.223632812510914-29.70751953125c-14.219970703128638-22.08056640625-31.504150390628638-41.980468750010914-51.26708984375-59.122314453121362l-35.972900390628638,41.518554687489086c15.815185546878638,13.71240234375,29.64306640625,29.637695312510914,41.016357421867724,47.311279296882276Z" fill="none" stroke="#181818" stroke-linecap="round" stroke-linejoin="round" stroke-width="15"/>
          </a>
          <a xlink:href="https://www.notion.so/dmmnotes/idealising-a52277f51ed14a42aae78081bb34b8be?pvs=4">
            <path id="A1" d="M155.9365234375,133.740478515621362l-35.972900390619543-41.515869140621362c-19.765625,17.141845703110448-37.049804687509095,37.041748046871362-51.269775390630457,59.122314453121362l46.226318359371362,29.70751953125c11.373291015639552-17.673583984371362,25.201171875009095-33.598876953132276,41.016357421878638-47.31396484375Z" fill="none" stroke="#181818" stroke-linecap="round" stroke-linejoin="round" stroke-width="15"/>
          </a>
          <a xlink:href="https://www.notion.so/dmmnotes/distancing-9ac690cdca654729a17a5a255944e2d1?pvs=4">
            <path id="A2" d="M114.920166015621362,181.054443359371362l-46.226318359371362-29.70751953125c-14.04541015625,21.81201171875-25.08837890625,45.721435546867724-32.551513671878638,71.177734374989086l52.754882812509095,15.490234375c5.964599609369543-20.375244140621362,14.7919921875-39.509765624989086,26.022949218740905-56.960449218739086Z" fill="none" stroke="#181818" stroke-linecap="round" stroke-linejoin="round" stroke-width="15"/>
          </a>
          <a xlink:href="https://www.notion.so/dmmnotes/compulsive-caregiving-9c380c0928294f41ae10764aa0dee886?pvs=4">
            <path id="A3" d="M88.897216796880457,238.014892578110448l-52.754882812509095-15.490234375c-7.205322265621362,24.580810546878638-11.142333984371362,50.5634765625-11.142333984371362,77.475341796889552h55c0-21.535400390628638,3.14208984375-42.321533203128638,8.897216796880457-61.985107421889552Z" fill="none" stroke="#181818" stroke-linecap="round" stroke-linejoin="round" stroke-width="15"/>
          </a>
          <a xlink:href="https://www.notion.so/dmmnotes/compulsive-compliance-6d08b7ea9a424ce1a72b9184b7850414?pvs=4">
            <path id="A4" d="M80,300H25c0,26.911865234371362,3.93701171875,52.894531249989086,11.142333984371362,77.475341796871362l52.754882812509095-15.490234375c-5.755126953130457-19.66357421875-8.897216796880457-40.447021484371362-8.897216796880457-61.985107421871362Z" fill="none" stroke="#181818" stroke-linecap="round" stroke-linejoin="round" stroke-width="15"/>
          </a>
          <a xlink:href="https://www.notion.so/dmmnotes/sexual-supplementation-8e85f49046ef412aa229745abf7d38d3?pvs=4">
            <path id="A5" d="M88.897216796880457,361.985107421871362l-52.754882812509095,15.490234375c7.463134765628638,25.456298828128638,18.506103515628638,49.36572265625,32.551513671878638,71.175048828128638l46.223632812510914-29.704833984367724c-11.230957031260914-17.450683593760914-20.055664062510914-36.58251953125-26.020263671880457-56.960449218760914Z" fill="none" stroke="#181818" stroke-linecap="round" stroke-linejoin="round" stroke-width="15"/>
          </a>
          <a xlink:href="https://www.notion.so/dmmnotes/compulsive-isolated-self-reliance-b321873a73fa41aaaadd7192fde856a2?pvs=4">
            <path id="A6" d="M114.917480468760914,418.945556640632276l-46.223632812510914,29.704833984367724c14.219970703121362,22.083251953121362,31.504150390630457,41.983154296871362,51.269775390630457,59.125l35.972900390619543-41.515869140617724c-15.815185546869543-13.712402343760914-29.643066406239086-29.637695312510914-41.019042968739086-47.31396484375Z" fill="none" stroke="#181818" stroke-linecap="round" stroke-linejoin="round" stroke-width="15"/>
          </a>
          <a xlink:href="https://www.notion.so/dmmnotes/delusional-idealization-743e2420b9994a48a7cab68190432e8a?pvs=4">
            <path id="A7" d="M155.9365234375,466.259521484382276l-35.972900390619543,41.515869140617724c19.687744140619543,17.074707031239086,41.811279296869543,31.385986328132276,65.803955078119543,42.36181640625l22.83251953125-49.996826171878638c-19.20166015625-8.773681640621362-36.91015625-20.222167968739086-52.66357421875-33.880859374989086Z" fill="none" stroke="#181818" stroke-linecap="round" stroke-linejoin="round" stroke-width="15"/>
          </a>
          <a xlink:href="https://www.notion.so/dmmnotes/externally-assembled-self-994ecb0895b844409b931d74a045c162?pvs=4">
            <path id="A8" d="M208.60009765625,500.140380859371362l-22.83251953125,49.996826171878638c23.45556640625,10.7314453125,48.659423828121362,18.275146484371362,75.098632812510914,22.04296875l7.825683593739086-54.4306640625c-21.15673828125-3.0078125-41.3251953125-9.0341796875-60.091796875-17.609130859378638Z" fill="none" stroke="#181818" stroke-linecap="round" stroke-linejoin="round" stroke-width="15"/>
          </a>
          <a xlink:href="https://www.notion.so/dmmnotes/psychopathy-0fe4a3222d9f4fd097ab4546c9776768?pvs=4">
            <path id="AC" d="M300,520c-10.634765625,0-21.076171875-.794921875-31.30810546875-2.25048828125l-7.825683593739086,54.4306640625c12.788574218739086,1.823486328132276,25.843017578119543,2.81982421875,39.133789062489086,2.81982421875,13.290771484371362,0,26.345214843760914-.996337890617724,39.1337890625-2.81982421875l-7.825683593739086-54.4306640625c-10.229248046889552,1.45556640625-20.673339843760914,2.25048828125-31.308105468760914,2.25048828125Z" fill="none" stroke="#181818" stroke-linecap="round" stroke-linejoin="round" stroke-width="15"/>
          </a>
          <a xlink:href="https://www.notion.so/dmmnotes/complaining-acceptance-8b40401a720c493ba73f7cde1567cf3d?pvs=4">
            <g id="B5">
              <path d="M444.066406250010914,134.7431640625c-.240234375,0-.47265625-.08642578125-.6552734375-.24462890625-15.81640625-13.712890625-33.455078125-25.060546875-52.4248046875-33.7265625-.501953125-.2294921875-.72265625-.82275390625-.4931640625-1.3251953125l22.8330078125-49.99951171875c.109375-.2412109375.3115234375-.4287109375.5595703125-.521484375.11328125-.0419921875.2314453125-.06298828125.349609375-.06298828125.142578125,0,.2841796875.0302734375.416015625.0908203125,23.8994140625,10.931640625,46.119140625,25.236328125,66.04296875,42.515625.4169921875.36181640625.4619140625.9931640625.1005859375,1.41015625l-35.97265625,41.5185546875c-.173828125.20068359375-.419921875.32373046875-.6845703125.3427734375-.0234375.00146484375-.0478515625.00244140625-.0712890625.00244140625Z" fill="none" stroke="#181818" stroke-linecap="round" stroke-linejoin="round" stroke-width="15"/>
              <path d="M414.234863281260914,49.86279296875c23.990234375,10.97314453125,46.11669921875,25.287109375,65.80419921875,42.36181640625l-35.97314453125,41.5185546875c-15.75341796875-13.65869140625-33.458984375-25.107177734375-52.66357421875-33.880859375l22.83251953125-49.99951171875M414.234863281260914,47.86279296875c-.236328125,0-.47265625.041839599609375-.6982421875.12591552734375-.49755859375.185272216796875-.900390625.56060791015625-1.12109375,1.043304443359375l-22.83251953125,49.99951171875c-.45849609375,1.004638671875-.01611328125,2.19097900390625.98828125,2.649932861328125,18.88330078125,8.626800537109375,36.4404296875,19.922332763671875,52.1845703125,33.57281494140625.36474609375.3162841796875.830078125.4888916015625,1.31005859375.4888916015625.04736328125,0,.0947265625-.001678466796875.142578125-.005096435546875.52880859375-.037750244140625,1.021484375-.284271240234375,1.369140625-.68524169921875l35.97314453125-41.5185546875c.72314453125-.834503173828125.6328125-2.09710693359375-.201171875-2.820587158203125-19.99609375-17.34234619140625-42.296875-31.698516845703125-66.28271484375-42.669647216796875-.263671875-.120574951171875-.5478515625-.181243896484375-.83203125-.181243896484375h0Z" fill="none" stroke="#181818" stroke-linecap="round" stroke-linejoin="round" stroke-width="15"/>
            </g>
          </a>
          <a xlink:href="https://www.notion.so/dmmnotes/sentimental-bc554363322342b1b7ca4ccc02125049?pvs=4">
            <g id="B4">
              <path d="M391.402343750010914,100.8623046875c-.1416015625,0-.2841796875-.0302734375-.416015625-.09033203125-19.0244140625-8.693359375-39.150390625-14.5908203125-59.818359375-17.52880859375-.2626953125-.03759765625-.5-.177734375-.6591796875-.39013671875s-.2275390625-.4794921875-.1904296875-.7421875l7.8251953125-54.43310546875c.072265625-.49853515625.5-.85791015625.9892578125-.85791015625.046875,0,.09375.00341796875.1416015625.009765625,26.0400390625,3.7109375,51.400390625,11.154296875,75.376953125,22.1240234375.501953125.2294921875.72265625.822265625.4931640625,1.32470703125l-22.8330078125,49.99951171875c-.109375.2412109375-.3115234375.4287109375-.5595703125.521484375-.11328125.0419921875-.2314453125.06298828125-.349609375.06298828125Z" fill="none" stroke="#181818" stroke-linecap="round" stroke-linejoin="round" stroke-width="15"/>
              <path d="M339.133789062510914,27.81982421875c26.439208984375,3.767822265625,51.64599609375,11.3115234375,75.10107421875,22.04296875l-22.83251953125,49.99951171875c-18.766357421875-8.574951171875-38.934814453125-14.601318359375-60.09423828125-17.609130859375l7.82568359375-54.433349609375M339.131347656260914,25.819549560546875c-.978759765625,0-1.833984375.718902587890625-1.977294921875,1.715667724609375l-7.82568359375,54.433349609375c-.075439453125.52557373046875.06103515625,1.05963134765625.379638671875,1.484466552734375.318603515625.4248046875.79296875.70550537109375,1.318603515625.780242919921875,20.572998046875,2.924468994140625,40.606689453125,8.79486083984375,59.544677734375,17.4481201171875.26318359375.120361328125.546875.180908203125.8310546875.180908203125.236328125,0,.47314453125-.0418701171875.69873046875-.12603759765625.4970703125-.185333251953125.900390625-.560577392578125,1.12060546875-1.043182373046875l22.83251953125-49.99951171875c.45849609375-1.004241943359375.0166015625-2.19012451171875-.9873046875-2.64947509765625-24.0615234375-11.008941650390625-49.51416015625-18.47955322265625-75.65087890625-22.20428466796875-.095703125-.01361083984375-.19091796875-.020263671875-.28466796875-.020263671875h0Z" fill="none" stroke="#181818" stroke-linecap="round" stroke-linejoin="round" stroke-width="15"/>
            </g>
          </a>
          <a xlink:href="https://www.notion.so/dmmnotes/comfortably-balanced-e76dc615a8b947aa915377cd02fcf716?pvs=4">
            <g id="B3">
              <path d="M268.690429687510914,83.2529296875c-.4892578125,0-.9169921875-.359375-.9892578125-.85791015625l-7.8251953125-54.43310546875c-.037109375-.2626953125.03125-.529296875.1904296875-.74169921875s.3955078125-.35302734375.658203125-.39013671875c13.1669921875-1.8779296875,26.380859375-2.830078125,39.275390625-2.830078125s26.1083984375.9521484375,39.275390625,2.830078125c.2626953125.037109375.4990234375.177734375.658203125.39013671875s.2275390625.47900390625.1904296875.74169921875l-7.8251953125,54.43310546875c-.072265625.49853515625-.5.85791015625-.9892578125.85791015625-.046875,0-.09375-.00341796875-.1416015625-.009765625-10.4599609375-1.48828125-20.9462890625-2.2431640625-31.16796875-2.2431640625-10.21875,0-20.705078125.7548828125-31.16796875,2.2431640625-.0478515625.0068359375-.0947265625.009765625-.1416015625.009765625Z" fill="none" stroke="#181818" stroke-linecap="round" stroke-linejoin="round" stroke-width="15"/>
              <path d="M300.000000000010914,25c13.290771484375,0,26.34521484375.996337890625,39.1337890625,2.81982421875l-7.82568359375,54.433349609375c-10.229248046875-1.45556640625-20.67333984375-2.253173828125-31.30810546875-2.253173828125s-21.076171875.797607421875-31.30810546875,2.253173828125l-7.82568359375-54.433349609375c12.78857421875-1.823486328125,25.843017578125-2.81982421875,39.1337890625-2.81982421875M300.000000000010914,23c-12.93896484375,0-26.200439453125.955474853515625-39.416015625,2.83984375-.525634765625.074951171875-.999755859375.355712890625-1.318115234375.780487060546875s-.454833984375.95867919921875-.37939453125,1.484100341796875l7.82568359375,54.433349609375c.143310546875.99664306640625.99853515625,1.71563720703125,1.977294921875,1.71563720703125.09375,0,.1884765625-.006591796875.2841796875-.020172119140625,10.416748046875-1.48187255859375,20.85546875-2.233245849609375,31.0263671875-2.233245849609375,10.173583984375,0,20.6123046875.751373291015625,31.0263671875,2.23321533203125.095458984375.01361083984375.1904296875.02020263671875.2841796875.02020263671875.978759765625,0,1.833984375-.718902587890625,1.977294921875-1.71563720703125l7.82568359375-54.433349609375c.075439453125-.525421142578125-.06103515625-1.059326171875-.37939453125-1.484100341796875s-.79248046875-.705535888671875-1.318115234375-.780487060546875c-13.215576171875-1.884368896484375-26.47705078125-2.83984375-39.416015625-2.83984375h0Z" fill="none" stroke="#181818" stroke-linecap="round" stroke-linejoin="round" stroke-width="15"/>
            </g>
          </a>
          <a xlink:href="https://www.notion.so/dmmnotes/accepting-317d81273fff4cd9817cdf4a88efd378?pvs=4">
            <g id="B2">
              <path d="M208.599609375010914,100.8623046875c-.1181640625,0-.236328125-.02099609375-.349609375-.06298828125-.248046875-.0927734375-.4501953125-.2802734375-.5595703125-.521484375l-22.83203125-49.99951171875c-.2294921875-.50244140625-.0087890625-1.09521484375.4931640625-1.32470703125,23.9755859375-10.9697265625,49.3349609375-18.41357421875,75.3740234375-22.1240234375.0478515625-.00634765625.0947265625-.009765625.1416015625-.009765625.4892578125,0,.9169921875.359375.9892578125.85791015625l7.8251953125,54.43310546875c.037109375.2626953125-.03125.52978515625-.1904296875.7421875s-.396484375.3525390625-.6591796875.39013671875c-20.6669921875,2.93798828125-40.7919921875,8.83544921875-59.81640625,17.52880859375-.1318359375.06005859375-.2744140625.09033203125-.416015625.09033203125Z" fill="none" stroke="#181818" stroke-linecap="round" stroke-linejoin="round" stroke-width="15"/>
              <path d="M260.866210937510914,27.81982421875l7.82568359375,54.433349609375c-21.15673828125,3.0078125-41.3251953125,9.0341796875-60.091796875,17.609130859375l-22.83251953125-49.99951171875c23.45556640625-10.7314453125,48.659423828125-18.275146484375,75.0986328125-22.04296875M260.868652343760914,25.819549560546875c-.093994140625,0-.18896484375.006622314453125-.28466796875.020263671875-26.133544921875,3.72430419921875-51.58544921875,11.19488525390625-75.6484375,22.20428466796875-1.00390625.459320068359375-1.44580078125,1.645233154296875-.9873046875,2.64947509765625l22.83251953125,49.99951171875c.220458984375.482574462890625.62353515625.85784912109375,1.12060546875,1.043182373046875.2255859375.08416748046875.46240234375.12603759765625.69873046875.12603759765625.2841796875,0,.567626953125-.060516357421875.831298828125-.180908203125,18.9375-8.653106689453125,38.970458984375-14.523529052734375,59.5419921875-17.4481201171875.525634765625-.074737548828125,1-.35546875,1.318603515625-.7802734375s.455078125-.9588623046875.379638671875-1.48443603515625l-7.82568359375-54.433349609375c-.143310546875-.9967041015625-.99853515625-1.715667724609375-1.977294921875-1.715667724609375h0Z" fill="none" stroke="#181818" stroke-linecap="round" stroke-linejoin="round" stroke-width="15"/>
            </g>
          </a>
          <a xlink:href="https://www.notion.so/dmmnotes/distanced-from-past-2eabab7e9c77429f8e577f4e3e203653?pvs=4">
            <g id="B1">
              <path d="M155.865234375010914,134.73779296875c-.2646484375-.01904296875-.5107421875-.14208984375-.6845703125-.3427734375l-35.97265625-41.515625c-.361328125-.4169921875-.31640625-1.04833984375.1005859375-1.41015625,19.927734375-17.283203125,42.1474609375-31.58740234375,66.04296875-42.515625.1318359375-.060546875.2734375-.0908203125.416015625-.0908203125.1181640625,0,.236328125.02099609375.349609375.06298828125.248046875.0927734375.4501953125.2802734375.5595703125.521484375l22.83203125,49.99951171875c.2294921875.50244140625.0087890625,1.095703125-.4931640625,1.3251953125-18.978515625,8.67138671875-36.6162109375,20.01806640625-52.423828125,33.7236328125-.1826171875.158203125-.4150390625.24462890625-.6552734375.24462890625-.0234375,0-.0478515625-.0009765625-.0712890625-.00244140625Z" fill="none" stroke="#181818" stroke-linecap="round" stroke-linejoin="round" stroke-width="15"/>
              <path d="M185.767578125010914,49.86279296875l22.83251953125,49.99951171875c-19.20166015625,8.773681640625-36.91015625,20.219482421875-52.66357421875,33.878173828125l-35.972900390625-41.515869140625c19.687744140625-17.07470703125,41.811279296875-31.388671875,65.803955078125-42.36181640625M185.767578125010914,47.86279296875c-.284423828125,0-.568359375.060638427734375-.831787109375.181182861328125-23.982421875,10.9683837890625-46.282958984375,25.324554443359375-66.282470703125,42.669708251953125-.834228515625.723480224609375-.92431640625,1.986114501953125-.201171875,2.82061767578125l35.972900390625,41.515869140625c.347412109375.400970458984375.83984375.6474609375,1.369140625.68524169921875.047607421875.003387451171875.094970703125.00506591796875.142333984375.00506591796875.479736328125,0,.9453125-.172576904296875,1.310302734375-.4888916015625,15.736328125-13.643890380859375,33.293701171875-24.93853759765625,52.1845703125-33.5701904296875,1.00439453125-.458984375,1.44677734375-1.645263671875.988037109375-2.649871826171875l-22.83251953125-49.99951171875c-.220458984375-.482696533203125-.623779296875-.858001708984375-1.120849609375-1.043304443359375-.2255859375-.084075927734375-.462158203125-.12591552734375-.698486328125-.12591552734375h0Z" fill="none" stroke="#181818" stroke-linecap="round" stroke-linejoin="round" stroke-width="15"/>
            </g>
          </a>
        </g>
        <g>
          <a xlink:href="https://www.notion.so/dmmnotes/paranoid-ae38b1e6af0c4dd08f61e0d8f6e9f05f?pvs=4">
            <path id="C8-2" data-name="C8" d="M331.308105468760914,517.74951171875l7.825683593739086,54.4306640625c26.439208984371362-3.767822265628638,51.645751953139552-11.3115234375,75.101318359371362-22.04296875l-22.832519531239086-49.996826171878638c-18.766601562501819,8.572265625-38.935058593751819,14.601318359378638-60.094482421871362,17.609130859378638Z" fill="#8f807d" stroke="#181818" stroke-linecap="round" stroke-linejoin="round" stroke-width="2"/>
          </a>
          <a xlink:href="https://www.notion.so/dmmnotes/menacing-a5bd7149286344deba45ec15e759e579?pvs=4">
            <path id="C7-2" data-name="C7" d="M391.402587890632276,500.140380859371362l22.832519531239086,49.996826171878638c23.989990234389552-10.975830078117724,46.11621093751819-25.287109375010914,65.803955078139552-42.36181640625l-35.972900390628638-41.515869140617724c-15.753417968760914,13.65869140625-33.459228515632276,25.104492187489086-52.66357421875,33.880859374989086Z" fill="#8f807d" stroke="#181818" stroke-linecap="round" stroke-linejoin="round" stroke-width="2"/>
          </a>
          <a xlink:href="https://www.notion.so/dmmnotes/seductively-obsessed-with-rescue-6fb5a68f6d334bc29ccccc16d8a4e56e?pvs=4">
            <path id="C6-2" data-name="C6" d="M444.066162109382276,466.259521484382276l35.972900390628638,41.515869140617724c19.762939453121362-17.141845703128638,37.047119140621362-37.041748046878638,51.26708984375-59.125l-46.223632812510914-29.704833984367724c-11.373291015617724,17.673583984367724-25.201171874989086,33.598876953117724-41.016357421867724,47.31396484375Z" fill="#8f807d" stroke="#181818" stroke-linecap="round" stroke-linejoin="round" stroke-width="2"/>
          </a>
          <a xlink:href="https://www.notion.so/dmmnotes/punitively-obsessed-with-revenge-33d2e77f37774316b42bccf4a60f9688?pvs=4">
            <path id="C5-2" data-name="C5" d="M485.08251953125,418.945556640632276l46.223632812510914,29.704833984367724c14.048095703128638-21.809326171878638,25.08837890625-45.71875,32.551513671871362-71.175048828128638l-52.7548828125-15.490234375c-5.9619140625,20.377929687510914-14.789306640621362,39.509765625-26.020263671882276,56.960449218760914Z" fill="#8f807d" stroke="#181818" stroke-linecap="round" stroke-linejoin="round" stroke-width="2"/>
          </a>
          <a xlink:href="https://www.notion.so/dmmnotes/feigned-helpless-e79a94b0498c4e109a681b7f3dcdb088?pvs=4">
            <path id="C4-2" data-name="C4" d="M520,300c0,21.5380859375-3.142089843739086,42.321533203121362-8.897216796867724,61.985107421871362l52.7548828125,15.490234375c7.2080078125-24.583496093739086,11.142333984367724-50.5634765625,11.142333984367724-77.475341796871362h-55Z" fill="#8f807d" stroke="#181818" stroke-linecap="round" stroke-linejoin="round" stroke-width="2"/>
          </a>
          <a xlink:href="https://www.notion.so/dmmnotes/aggressive-2d8ccce383534b9dbfc7b4b10b8a5d5c?pvs=4">
            <path id="C3-2" data-name="C3" d="M520,300h55c0-26.911865234389552-3.934326171867724-52.894531250010914-11.142333984367724-77.475341796889552l-52.7548828125,15.490234375c5.755126953128638,19.663574218760914,8.897216796867724,40.449707031260914,8.897216796867724,61.985107421889552Z" fill="#8f807d" stroke="#181818" stroke-linecap="round" stroke-linejoin="round" stroke-width="2"/>
          </a>
          <a xlink:href="https://www.notion.so/dmmnotes/disarming-086276e599884c86b9359acf831a8b20?pvs=4">
            <path id="C2-2" data-name="C2" d="M511.102783203132276,238.014892578110448l52.7548828125-15.490234375c-7.463134765621362-25.456298828121362-18.503417968742724-49.365722656239086-32.551513671871362-71.177734374989086l-46.223632812510914,29.70751953125c11.230957031260914,17.45068359375,20.055664062510914,36.585205078117724,26.020263671882276,56.960449218739086Z" fill="#8f807d" stroke="#181818" stroke-linecap="round" stroke-linejoin="round" stroke-width="2"/>
          </a>
          <a xlink:href="https://www.notion.so/dmmnotes/threatening-348fe6a52f7a4fe69f768e98c6586932?pvs=4">
            <path id="C1-2" data-name="C1" d="M485.08251953125,181.054443359371362l46.223632812510914-29.70751953125c-14.219970703128638-22.08056640625-31.504150390628638-41.980468750010914-51.26708984375-59.122314453121362l-35.972900390628638,41.518554687489086c15.815185546878638,13.71240234375,29.64306640625,29.637695312510914,41.016357421867724,47.311279296882276Z" fill="#8f807d" stroke="#181818" stroke-linecap="round" stroke-linejoin="round" stroke-width="2"/>
          </a>
          <a xlink:href="https://www.notion.so/dmmnotes/idealising-a52277f51ed14a42aae78081bb34b8be?pvs=4">
            <path id="A1-2" data-name="A1" d="M155.9365234375,133.740478515621362l-35.972900390619543-41.515869140621362c-19.765625,17.141845703110448-37.049804687509095,37.041748046871362-51.269775390630457,59.122314453121362l46.226318359371362,29.70751953125c11.373291015639552-17.673583984371362,25.201171875009095-33.598876953132276,41.016357421878638-47.31396484375Z" fill="#8f807d" stroke="#181818" stroke-linecap="round" stroke-linejoin="round" stroke-width="2"/>
          </a>
          <a xlink:href="https://www.notion.so/dmmnotes/distancing-9ac690cdca654729a17a5a255944e2d1?pvs=4">
            <path id="A2-2" data-name="A2" d="M114.920166015621362,181.054443359371362l-46.226318359371362-29.70751953125c-14.04541015625,21.81201171875-25.08837890625,45.721435546867724-32.551513671878638,71.177734374989086l52.754882812509095,15.490234375c5.964599609369543-20.375244140621362,14.7919921875-39.509765624989086,26.022949218740905-56.960449218739086Z" fill="#8f807d" stroke="#181818" stroke-linecap="round" stroke-linejoin="round" stroke-width="2"/>
          </a>
          <a xlink:href="https://www.notion.so/dmmnotes/compulsive-caregiving-9c380c0928294f41ae10764aa0dee886?pvs=4">
            <path id="A3-2" data-name="A3" d="M88.897216796880457,238.014892578110448l-52.754882812509095-15.490234375c-7.205322265621362,24.580810546878638-11.142333984371362,50.5634765625-11.142333984371362,77.475341796889552h55c0-21.535400390628638,3.14208984375-42.321533203128638,8.897216796880457-61.985107421889552Z" fill="#8f807d" stroke="#181818" stroke-linecap="round" stroke-linejoin="round" stroke-width="2"/>
          </a>
          <a xlink:href="https://www.notion.so/dmmnotes/compulsive-compliance-6d08b7ea9a424ce1a72b9184b7850414?pvs=4">
            <path id="A4-2" data-name="A4" d="M80,300H25c0,26.911865234371362,3.93701171875,52.894531249989086,11.142333984371362,77.475341796871362l52.754882812509095-15.490234375c-5.755126953130457-19.66357421875-8.897216796880457-40.447021484371362-8.897216796880457-61.985107421871362Z" fill="#8f807d" stroke="#181818" stroke-linecap="round" stroke-linejoin="round" stroke-width="2"/>
          </a>
          <a xlink:href="https://www.notion.so/dmmnotes/sexual-supplementation-8e85f49046ef412aa229745abf7d38d3?pvs=4">
            <path id="A5-2" data-name="A5" d="M88.897216796880457,361.985107421871362l-52.754882812509095,15.490234375c7.463134765628638,25.456298828128638,18.506103515628638,49.36572265625,32.551513671878638,71.175048828128638l46.223632812510914-29.704833984367724c-11.230957031260914-17.450683593760914-20.055664062510914-36.58251953125-26.020263671880457-56.960449218760914Z" fill="#8f807d" stroke="#181818" stroke-linecap="round" stroke-linejoin="round" stroke-width="2"/>
          </a>
          <a xlink:href="https://www.notion.so/dmmnotes/compulsive-isolated-self-reliance-b321873a73fa41aaaadd7192fde856a2?pvs=4">
            <path id="A6-2" data-name="A6" d="M114.917480468760914,418.945556640632276l-46.223632812510914,29.704833984367724c14.219970703121362,22.083251953121362,31.504150390630457,41.983154296871362,51.269775390630457,59.125l35.972900390619543-41.515869140617724c-15.815185546869543-13.712402343760914-29.643066406239086-29.637695312510914-41.019042968739086-47.31396484375Z" fill="#8f807d" stroke="#181818" stroke-linecap="round" stroke-linejoin="round" stroke-width="2"/>
          </a>
          <a xlink:href="https://www.notion.so/dmmnotes/delusional-idealization-743e2420b9994a48a7cab68190432e8a?pvs=4">
            <path id="A7-2" data-name="A7" d="M155.9365234375,466.259521484382276l-35.972900390619543,41.515869140617724c19.687744140619543,17.074707031239086,41.811279296869543,31.385986328132276,65.803955078119543,42.36181640625l22.83251953125-49.996826171878638c-19.20166015625-8.773681640621362-36.91015625-20.222167968739086-52.66357421875-33.880859374989086Z" fill="#8f807d" stroke="#181818" stroke-linecap="round" stroke-linejoin="round" stroke-width="2"/>
          </a>
          <a xlink:href="https://www.notion.so/dmmnotes/externally-assembled-self-994ecb0895b844409b931d74a045c162?pvs=4">
            <path id="A8-2" data-name="A8" d="M208.60009765625,500.140380859371362l-22.83251953125,49.996826171878638c23.45556640625,10.7314453125,48.659423828121362,18.275146484371362,75.098632812510914,22.04296875l7.825683593739086-54.4306640625c-21.15673828125-3.0078125-41.3251953125-9.0341796875-60.091796875-17.609130859378638Z" fill="#8f807d" stroke="#181818" stroke-linecap="round" stroke-linejoin="round" stroke-width="2"/>
          </a>
          <a xlink:href="https://www.notion.so/dmmnotes/psychopathy-0fe4a3222d9f4fd097ab4546c9776768?pvs=4">
            <path id="AC-2" data-name="AC" d="M300,520c-10.634765625,0-21.076171875-.794921875-31.30810546875-2.25048828125l-7.825683593739086,54.4306640625c12.788574218739086,1.823486328132276,25.843017578119543,2.81982421875,39.133789062489086,2.81982421875,13.290771484371362,0,26.345214843760914-.996337890617724,39.1337890625-2.81982421875l-7.825683593739086-54.4306640625c-10.229248046889552,1.45556640625-20.673339843760914,2.25048828125-31.308105468760914,2.25048828125Z" fill="#8f807d" stroke="#181818" stroke-linecap="round" stroke-linejoin="round" stroke-width="2"/>
          </a>
          <a xlink:href="https://www.notion.so/dmmnotes/complaining-acceptance-8b40401a720c493ba73f7cde1567cf3d?pvs=4">
            <g id="B5-2" data-name="B5">
              <path d="M444.066406250010914,134.7431640625c-.240234375,0-.47265625-.08642578125-.6552734375-.24462890625-15.81640625-13.712890625-33.455078125-25.060546875-52.4248046875-33.7265625-.501953125-.2294921875-.72265625-.82275390625-.4931640625-1.3251953125l22.8330078125-49.99951171875c.109375-.2412109375.3115234375-.4287109375.5595703125-.521484375.11328125-.0419921875.2314453125-.06298828125.349609375-.06298828125.142578125,0,.2841796875.0302734375.416015625.0908203125,23.8994140625,10.931640625,46.119140625,25.236328125,66.04296875,42.515625.4169921875.36181640625.4619140625.9931640625.1005859375,1.41015625l-35.97265625,41.5185546875c-.173828125.20068359375-.419921875.32373046875-.6845703125.3427734375-.0234375.00146484375-.0478515625.00244140625-.0712890625.00244140625Z" fill="#3d9174" stroke-width="0"/>
              <path d="M414.234863281260914,49.86279296875c23.990234375,10.97314453125,46.11669921875,25.287109375,65.80419921875,42.36181640625l-35.97314453125,41.5185546875c-15.75341796875-13.65869140625-33.458984375-25.107177734375-52.66357421875-33.880859375l22.83251953125-49.99951171875M414.234863281260914,47.86279296875c-.236328125,0-.47265625.041839599609375-.6982421875.12591552734375-.49755859375.185272216796875-.900390625.56060791015625-1.12109375,1.043304443359375l-22.83251953125,49.99951171875c-.45849609375,1.004638671875-.01611328125,2.19097900390625.98828125,2.649932861328125,18.88330078125,8.626800537109375,36.4404296875,19.922332763671875,52.1845703125,33.57281494140625.36474609375.3162841796875.830078125.4888916015625,1.31005859375.4888916015625.04736328125,0,.0947265625-.001678466796875.142578125-.005096435546875.52880859375-.037750244140625,1.021484375-.284271240234375,1.369140625-.68524169921875l35.97314453125-41.5185546875c.72314453125-.834503173828125.6328125-2.09710693359375-.201171875-2.820587158203125-19.99609375-17.34234619140625-42.296875-31.698516845703125-66.28271484375-42.669647216796875-.263671875-.120574951171875-.5478515625-.181243896484375-.83203125-.181243896484375h0Z" fill="#181818" stroke-width="0"/>
            </g>
          </a>
          <a xlink:href="https://www.notion.so/dmmnotes/sentimental-bc554363322342b1b7ca4ccc02125049?pvs=4">
            <g id="B4-2" data-name="B4">
              <path d="M391.402343750010914,100.8623046875c-.1416015625,0-.2841796875-.0302734375-.416015625-.09033203125-19.0244140625-8.693359375-39.150390625-14.5908203125-59.818359375-17.52880859375-.2626953125-.03759765625-.5-.177734375-.6591796875-.39013671875s-.2275390625-.4794921875-.1904296875-.7421875l7.8251953125-54.43310546875c.072265625-.49853515625.5-.85791015625.9892578125-.85791015625.046875,0,.09375.00341796875.1416015625.009765625,26.0400390625,3.7109375,51.400390625,11.154296875,75.376953125,22.1240234375.501953125.2294921875.72265625.822265625.4931640625,1.32470703125l-22.8330078125,49.99951171875c-.109375.2412109375-.3115234375.4287109375-.5595703125.521484375-.11328125.0419921875-.2314453125.06298828125-.349609375.06298828125Z" fill="#2c8d7e" stroke-width="0"/>
              <path d="M339.133789062510914,27.81982421875c26.439208984375,3.767822265625,51.64599609375,11.3115234375,75.10107421875,22.04296875l-22.83251953125,49.99951171875c-18.766357421875-8.574951171875-38.934814453125-14.601318359375-60.09423828125-17.609130859375l7.82568359375-54.433349609375M339.131347656260914,25.819549560546875c-.978759765625,0-1.833984375.718902587890625-1.977294921875,1.715667724609375l-7.82568359375,54.433349609375c-.075439453125.52557373046875.06103515625,1.05963134765625.379638671875,1.484466552734375.318603515625.4248046875.79296875.70550537109375,1.318603515625.780242919921875,20.572998046875,2.924468994140625,40.606689453125,8.79486083984375,59.544677734375,17.4481201171875.26318359375.120361328125.546875.180908203125.8310546875.180908203125.236328125,0,.47314453125-.0418701171875.69873046875-.12603759765625.4970703125-.185333251953125.900390625-.560577392578125,1.12060546875-1.043182373046875l22.83251953125-49.99951171875c.45849609375-1.004241943359375.0166015625-2.19012451171875-.9873046875-2.64947509765625-24.0615234375-11.008941650390625-49.51416015625-18.47955322265625-75.65087890625-22.20428466796875-.095703125-.01361083984375-.19091796875-.020263671875-.28466796875-.020263671875h0Z" fill="#181818" stroke-width="0"/>
            </g>
          </a>
          <a xlink:href="https://www.notion.so/dmmnotes/comfortably-balanced-e76dc615a8b947aa915377cd02fcf716?pvs=4">
            <g id="B3-2" data-name="B3">
              <path d="M268.690429687510914,83.2529296875c-.4892578125,0-.9169921875-.359375-.9892578125-.85791015625l-7.8251953125-54.43310546875c-.037109375-.2626953125.03125-.529296875.1904296875-.74169921875s.3955078125-.35302734375.658203125-.39013671875c13.1669921875-1.8779296875,26.380859375-2.830078125,39.275390625-2.830078125s26.1083984375.9521484375,39.275390625,2.830078125c.2626953125.037109375.4990234375.177734375.658203125.39013671875s.2275390625.47900390625.1904296875.74169921875l-7.8251953125,54.43310546875c-.072265625.49853515625-.5.85791015625-.9892578125.85791015625-.046875,0-.09375-.00341796875-.1416015625-.009765625-10.4599609375-1.48828125-20.9462890625-2.2431640625-31.16796875-2.2431640625-10.21875,0-20.705078125.7548828125-31.16796875,2.2431640625-.0478515625.0068359375-.0947265625.009765625-.1416015625.009765625Z" fill="#268887" stroke-width="0"/>
              <path d="M300.000000000010914,25c13.290771484375,0,26.34521484375.996337890625,39.1337890625,2.81982421875l-7.82568359375,54.433349609375c-10.229248046875-1.45556640625-20.67333984375-2.253173828125-31.30810546875-2.253173828125s-21.076171875.797607421875-31.30810546875,2.253173828125l-7.82568359375-54.433349609375c12.78857421875-1.823486328125,25.843017578125-2.81982421875,39.1337890625-2.81982421875M300.000000000010914,23c-12.93896484375,0-26.200439453125.955474853515625-39.416015625,2.83984375-.525634765625.074951171875-.999755859375.355712890625-1.318115234375.780487060546875s-.454833984375.95867919921875-.37939453125,1.484100341796875l7.82568359375,54.433349609375c.143310546875.99664306640625.99853515625,1.71563720703125,1.977294921875,1.71563720703125.09375,0,.1884765625-.006591796875.2841796875-.020172119140625,10.416748046875-1.48187255859375,20.85546875-2.233245849609375,31.0263671875-2.233245849609375,10.173583984375,0,20.6123046875.751373291015625,31.0263671875,2.23321533203125.095458984375.01361083984375.1904296875.02020263671875.2841796875.02020263671875.978759765625,0,1.833984375-.718902587890625,1.977294921875-1.71563720703125l7.82568359375-54.433349609375c.075439453125-.525421142578125-.06103515625-1.059326171875-.37939453125-1.484100341796875s-.79248046875-.705535888671875-1.318115234375-.780487060546875c-13.215576171875-1.884368896484375-26.47705078125-2.83984375-39.416015625-2.83984375h0Z" fill="#181818" stroke-width="0"/>
            </g>
          </a>
          <a xlink:href="https://www.notion.so/dmmnotes/accepting-317d81273fff4cd9817cdf4a88efd378?pvs=4">
            <g id="B2-2" data-name="B2">
              <path d="M208.599609375010914,100.8623046875c-.1181640625,0-.236328125-.02099609375-.349609375-.06298828125-.248046875-.0927734375-.4501953125-.2802734375-.5595703125-.521484375l-22.83203125-49.99951171875c-.2294921875-.50244140625-.0087890625-1.09521484375.4931640625-1.32470703125,23.9755859375-10.9697265625,49.3349609375-18.41357421875,75.3740234375-22.1240234375.0478515625-.00634765625.0947265625-.009765625.1416015625-.009765625.4892578125,0,.9169921875.359375.9892578125.85791015625l7.8251953125,54.43310546875c.037109375.2626953125-.03125.52978515625-.1904296875.7421875s-.396484375.3525390625-.6591796875.39013671875c-20.6669921875,2.93798828125-40.7919921875,8.83544921875-59.81640625,17.52880859375-.1318359375.06005859375-.2744140625.09033203125-.416015625.09033203125Z" fill="#2e8390" stroke-width="0"/>
              <path d="M260.866210937510914,27.81982421875l7.82568359375,54.433349609375c-21.15673828125,3.0078125-41.3251953125,9.0341796875-60.091796875,17.609130859375l-22.83251953125-49.99951171875c23.45556640625-10.7314453125,48.659423828125-18.275146484375,75.0986328125-22.04296875M260.868652343760914,25.819549560546875c-.093994140625,0-.18896484375.006622314453125-.28466796875.020263671875-26.133544921875,3.72430419921875-51.58544921875,11.19488525390625-75.6484375,22.20428466796875-1.00390625.459320068359375-1.44580078125,1.645233154296875-.9873046875,2.64947509765625l22.83251953125,49.99951171875c.220458984375.482574462890625.62353515625.85784912109375,1.12060546875,1.043182373046875.2255859375.08416748046875.46240234375.12603759765625.69873046875.12603759765625.2841796875,0,.567626953125-.060516357421875.831298828125-.180908203125,18.9375-8.653106689453125,38.970458984375-14.523529052734375,59.5419921875-17.4481201171875.525634765625-.074737548828125,1-.35546875,1.318603515625-.7802734375s.455078125-.9588623046875.379638671875-1.48443603515625l-7.82568359375-54.433349609375c-.143310546875-.9967041015625-.99853515625-1.715667724609375-1.977294921875-1.715667724609375h0Z" fill="#181818" stroke-width="0"/>
            </g>
          </a>
          <a xlink:href="https://www.notion.so/dmmnotes/distanced-from-past-2eabab7e9c77429f8e577f4e3e203653?pvs=4">
            <g id="B1-2" data-name="B1">
              <path d="M155.865234375010914,134.73779296875c-.2646484375-.01904296875-.5107421875-.14208984375-.6845703125-.3427734375l-35.97265625-41.515625c-.361328125-.4169921875-.31640625-1.04833984375.1005859375-1.41015625,19.927734375-17.283203125,42.1474609375-31.58740234375,66.04296875-42.515625.1318359375-.060546875.2734375-.0908203125.416015625-.0908203125.1181640625,0,.236328125.02099609375.349609375.06298828125.248046875.0927734375.4501953125.2802734375.5595703125.521484375l22.83203125,49.99951171875c.2294921875.50244140625.0087890625,1.095703125-.4931640625,1.3251953125-18.978515625,8.67138671875-36.6162109375,20.01806640625-52.423828125,33.7236328125-.1826171875.158203125-.4150390625.24462890625-.6552734375.24462890625-.0234375,0-.0478515625-.0009765625-.0712890625-.00244140625Z" fill="#477e96" stroke-width="0"/>
              <path d="M185.767578125010914,49.86279296875l22.83251953125,49.99951171875c-19.20166015625,8.773681640625-36.91015625,20.219482421875-52.66357421875,33.878173828125l-35.972900390625-41.515869140625c19.687744140625-17.07470703125,41.811279296875-31.388671875,65.803955078125-42.36181640625M185.767578125010914,47.86279296875c-.284423828125,0-.568359375.060638427734375-.831787109375.181182861328125-23.982421875,10.9683837890625-46.282958984375,25.324554443359375-66.282470703125,42.669708251953125-.834228515625.723480224609375-.92431640625,1.986114501953125-.201171875,2.82061767578125l35.972900390625,41.515869140625c.347412109375.400970458984375.83984375.6474609375,1.369140625.68524169921875.047607421875.003387451171875.094970703125.00506591796875.142333984375.00506591796875.479736328125,0,.9453125-.172576904296875,1.310302734375-.4888916015625,15.736328125-13.643890380859375,33.293701171875-24.93853759765625,52.1845703125-33.5701904296875,1.00439453125-.458984375,1.44677734375-1.645263671875.988037109375-2.649871826171875l-22.83251953125-49.99951171875c-.220458984375-.482696533203125-.623779296875-.858001708984375-1.120849609375-1.043304443359375-.2255859375-.084075927734375-.462158203125-.12591552734375-.698486328125-.12591552734375h0Z" fill="#181818" stroke-width="0"/>
            </g>
          </a>
        </g>
      </g>
      <a xlink:href="https://www.notion.so/dmmnotes/Type-B-a682dff89e1b420883ef126b542c812f?pvs=4">
        <g id="B">
          <a xlink:href="https://www.notion.so/dmmnotes/Type-B-a682dff89e1b420883ef126b542c812f?pvs=4">
            <g id="B-2" data-name="B">
              <path d="M300.000000000010914,414.7060546875c-36.970703125,0-67.048828125-30.078125-67.048828125-67.048828125s30.078125-67.048828125,67.048828125-67.048828125,67.048828125,30.078125,67.048828125,67.048828125-30.078125,67.048828125-67.048828125,67.048828125Z" fill="url(#B3-3)" stroke-width="0"/>
              <path d="M300.000000000010914,289.108566284179688c32.33544921875,0,58.548828125,26.213165283203125,58.548828125,58.548721313476562s-26.21337890625,58.548721313476562-58.548828125,58.548721313476562-58.548828125-26.213165283203125-58.548828125-58.548721313476562,26.21337890625-58.548721313476562,58.548828125-58.548721313476562M300.000000000010914,272.108566284179688c-41.65771484375,0-75.548828125,33.891006469726562-75.548828125,75.548721313476562,0,41.657722473144531,33.89111328125,75.548721313476562,75.548828125,75.548721313476562s75.548828125-33.890998840332031,75.548828125-75.548721313476562c0-41.65771484375-33.89111328125-75.548721313476562-75.548828125-75.548721313476562h0Z" fill="#181818" stroke-width="0"/>
            </g>
          </a>
          <a xlink:href="https://www.notion.so/dmmnotes/Type-B-a682dff89e1b420883ef126b542c812f?pvs=4">
            <g>
              <path d="M326.218750000010914,266.796875c4.60546875,3.5595703125,8.0322265625,7.982421875,10.2841796875,13.2666015625,2.2490234375,5.287109375,2.9560546875,10.7548828125,2.119140625,16.40625-.9423828125,6.3857421875-3.4541015625,11.7509765625-7.5361328125,16.0927734375-4.08203125,4.3447265625-8.896484375,7.771484375-14.443359375,10.283203125-5.548828125,2.5126953125-11.5400390625,4.1875-17.9765625,5.0244140625-6.4375.8369140625-12.482421875.9423828125-18.1337890625.314453125-.5244140625.2080078125-.99609375.337890625-1.4130859375.392578125-.419921875.05078125-.890625.1298828125-1.4130859375.2353515625-1.8837890625.1025390625-3.8212890625.1025390625-5.80859375,0-1.9892578125-.10546875-3.7958984375-.447265625-5.4169921875-1.0205078125-1.623046875-.57421875-3.009765625-1.5166015625-4.16015625-2.826171875-1.15234375-1.3076171875-1.83203125-3.1650390625-2.041015625-5.5732421875-.2109375-1.1513671875-.2626953125-3.478515625-.1572265625-6.9873046875.1025390625-3.5048828125.2080078125-7.771484375.3134765625-12.794921875.208984375-5.126953125.392578125-10.701171875.55078125-16.720703125.15625-6.017578125.287109375-12.0615234375.392578125-18.1337890625.1025390625-7.953125.2080078125-15.9599609375.3134765625-24.0205078125.1025390625-8.05859375-.2109375-16.1708984375-.9423828125-24.3349609375-.2109375-.9423828125-.10546875-1.7783203125.314453125-2.51171875.208984375-.62890625.6796875-1.2294921875,1.412109375-1.8056640625.732421875-.57421875,1.830078125-.966796875,3.2978515625-1.177734375,1.044921875-.103515625,2.1982421875-.259765625,3.4541015625-.470703125,1.255859375-.208984375,2.5634765625-.3662109375,3.9248046875-.4716796875,1.3583984375-.1025390625,2.6689453125-.1025390625,3.9248046875,0,1.255859375.10546875,2.35546875.314453125,3.296875.6279296875,5.337890625-.73046875,10.9365234375-.7578125,16.798828125-.078125,5.861328125.681640625,11.3828125,2.068359375,16.564453125,4.16015625,5.1806640625,2.095703125,9.6796875,4.89453125,13.501953125,8.3994140625,3.818359375,3.5087890625,6.357421875,7.771484375,7.6142578125,12.7958984375.5224609375,2.1982421875.8369140625,4.501953125.9423828125,6.908203125.1025390625,2.4091796875-.158203125,4.8935546875-.78515625,7.45703125-.62890625,2.56640625-1.6484375,5.2353515625-3.0625,8.0068359375-1.412109375,2.775390625-3.3232421875,5.6279296875-5.73046875,8.556640625ZM285.399414062510914,257.5341796875c5.0244140625.2109375,9.2626953125-.314453125,12.716796875-1.5703125s6.0439453125-2.904296875,7.771484375-4.9453125,2.5634765625-4.263671875,2.5126953125-6.6728515625c-.0546875-2.40625-.9697265625-4.552734375-2.748046875-6.4365234375-1.78125-1.8837890625-4.4501953125-3.3212890625-8.0068359375-4.3173828125-3.5595703125-.9931640625-8.0615234375-1.1240234375-13.5029296875-.392578125.314453125,4.08203125.55078125,8.1123046875.70703125,12.0888671875.1572265625,3.9794921875.3388671875,8.0615234375.5498046875,12.24609375ZM285.870117187510914,303.064453125c5.65234375.6279296875,10.4130859375.3681640625,14.287109375-.78515625,3.87109375-1.150390625,6.775390625-2.720703125,8.7138671875-4.7099609375,1.935546875-1.9873046875,2.9287109375-4.1337890625,2.982421875-6.4375.0517578125-2.30078125-.86328125-4.2900390625-2.7470703125-5.9658203125-1.8837890625-1.6728515625-4.7646484375-2.798828125-8.6357421875-3.375-3.873046875-.57421875-8.740234375-.181640625-14.6005859375,1.1767578125v20.0966796875Z" fill="none" stroke="#181818" stroke-miterlimit="10" stroke-width="33"/>
              <path d="M326.218750000010914,266.796875c4.60546875,3.5595703125,8.0322265625,7.982421875,10.2841796875,13.2666015625,2.2490234375,5.287109375,2.9560546875,10.7548828125,2.119140625,16.40625-.9423828125,6.3857421875-3.4541015625,11.7509765625-7.5361328125,16.0927734375-4.08203125,4.3447265625-8.896484375,7.771484375-14.443359375,10.283203125-5.548828125,2.5126953125-11.5400390625,4.1875-17.9765625,5.0244140625-6.4375.8369140625-12.482421875.9423828125-18.1337890625.314453125-.5244140625.2080078125-.99609375.337890625-1.4130859375.392578125-.419921875.05078125-.890625.1298828125-1.4130859375.2353515625-1.8837890625.1025390625-3.8212890625.1025390625-5.80859375,0-1.9892578125-.10546875-3.7958984375-.447265625-5.4169921875-1.0205078125-1.623046875-.57421875-3.009765625-1.5166015625-4.16015625-2.826171875-1.15234375-1.3076171875-1.83203125-3.1650390625-2.041015625-5.5732421875-.2109375-1.1513671875-.2626953125-3.478515625-.1572265625-6.9873046875.1025390625-3.5048828125.2080078125-7.771484375.3134765625-12.794921875.208984375-5.126953125.392578125-10.701171875.55078125-16.720703125.15625-6.017578125.287109375-12.0615234375.392578125-18.1337890625.1025390625-7.953125.2080078125-15.9599609375.3134765625-24.0205078125.1025390625-8.05859375-.2109375-16.1708984375-.9423828125-24.3349609375-.2109375-.9423828125-.10546875-1.7783203125.314453125-2.51171875.208984375-.62890625.6796875-1.2294921875,1.412109375-1.8056640625.732421875-.57421875,1.830078125-.966796875,3.2978515625-1.177734375,1.044921875-.103515625,2.1982421875-.259765625,3.4541015625-.470703125,1.255859375-.208984375,2.5634765625-.3662109375,3.9248046875-.4716796875,1.3583984375-.1025390625,2.6689453125-.1025390625,3.9248046875,0,1.255859375.10546875,2.35546875.314453125,3.296875.6279296875,5.337890625-.73046875,10.9365234375-.7578125,16.798828125-.078125,5.861328125.681640625,11.3828125,2.068359375,16.564453125,4.16015625,5.1806640625,2.095703125,9.6796875,4.89453125,13.501953125,8.3994140625,3.818359375,3.5087890625,6.357421875,7.771484375,7.6142578125,12.7958984375.5224609375,2.1982421875.8369140625,4.501953125.9423828125,6.908203125.1025390625,2.4091796875-.158203125,4.8935546875-.78515625,7.45703125-.62890625,2.56640625-1.6484375,5.2353515625-3.0625,8.0068359375-1.412109375,2.775390625-3.3232421875,5.6279296875-5.73046875,8.556640625ZM285.399414062510914,257.5341796875c5.0244140625.2109375,9.2626953125-.314453125,12.716796875-1.5703125s6.0439453125-2.904296875,7.771484375-4.9453125,2.5634765625-4.263671875,2.5126953125-6.6728515625c-.0546875-2.40625-.9697265625-4.552734375-2.748046875-6.4365234375-1.78125-1.8837890625-4.4501953125-3.3212890625-8.0068359375-4.3173828125-3.5595703125-.9931640625-8.0615234375-1.1240234375-13.5029296875-.392578125.314453125,4.08203125.55078125,8.1123046875.70703125,12.0888671875.1572265625,3.9794921875.3388671875,8.0615234375.5498046875,12.24609375ZM285.870117187510914,303.064453125c5.65234375.6279296875,10.4130859375.3681640625,14.287109375-.78515625,3.87109375-1.150390625,6.775390625-2.720703125,8.7138671875-4.7099609375,1.935546875-1.9873046875,2.9287109375-4.1337890625,2.982421875-6.4375.0517578125-2.30078125-.86328125-4.2900390625-2.7470703125-5.9658203125-1.8837890625-1.6728515625-4.7646484375-2.798828125-8.6357421875-3.375-3.873046875-.57421875-8.740234375-.181640625-14.6005859375,1.1767578125v20.0966796875Z" fill="#fff" stroke-width="0"/>
            </g>
          </a>
        </g>
      </a>
    </g>
  </g>
</svg>