<?xml version="1.0" encoding="UTF-8"?>
<svg id="Layer_1" data-name="Layer 1" xmlns="http://www.w3.org/2000/svg" xmlns:xlink="http://www.w3.org/1999/xlink" viewBox="0 0 600 600.000000000003638">
  <g id="pie_with_links_-5" data-name="pie (with links)">
    <g id="pie_with_links_-6" data-name="pie (with links)">
      <g id="Pie">
        <g>
          <a xlink:href="https://www.notion.so/dmmnotes/paranoid-ae38b1e6af0c4dd08f61e0d8f6e9f05f?pvs=4">
            <path id="C8" d="M331.308105468760914,517.74951171875l7.825683593739086,54.430664062503638c26.439208984371362-3.767822265632276,51.645751953139552-11.3115234375,75.101318359371362-22.042968750003638l-22.832519531242724-49.996826171880457c-18.7666015625,8.572265625-38.93505859375,14.601318359380457-60.094482421867724,17.609130859380457Z" fill="none" stroke="#181818" stroke-linecap="round" stroke-linejoin="round" stroke-width="15"/>
          </a>
          <a xlink:href="https://www.notion.so/dmmnotes/menacing-a5bd7149286344deba45ec15e759e579?pvs=4">
            <path id="C7" d="M391.402587890628638,500.140380859369543l22.832519531242724,49.996826171880457c23.989990234389552-10.975830078121362,46.11621093751819-25.287109375010914,65.803955078139552-42.36181640625l-35.972900390632276-41.515869140621362c-15.753417968757276,13.65869140625-33.459228515628638,25.104492187490905-52.66357421875,33.880859374990905Z" fill="none" stroke="#181818" stroke-linecap="round" stroke-linejoin="round" stroke-width="15"/>
          </a>
          <a xlink:href="https://www.notion.so/dmmnotes/seductively-obsessed-with-rescue-6fb5a68f6d334bc29ccccc16d8a4e56e?pvs=4">
            <path id="C6" d="M444.066162109378638,466.259521484378638l35.972900390632276,41.515869140621362c19.762939453117724-17.141845703130457,37.047119140617724-37.041748046880457,51.26708984375-59.125l-46.223632812510914-29.704833984371362c-11.373291015621362,17.673583984371362-25.201171874989086,33.598876953121362-41.016357421871362,47.31396484375Z" fill="none" stroke="#181818" stroke-linecap="round" stroke-linejoin="round" stroke-width="15"/>
          </a>
          <a xlink:href="https://www.notion.so/dmmnotes/punitively-obsessed-with-revenge-33d2e77f37774316b42bccf4a60f9688?pvs=4">
            <path id="C5" d="M485.08251953125,418.945556640628638l46.223632812510914,29.704833984371362c14.048095703128638-21.809326171880457,25.08837890625-45.71875,32.551513671867724-71.175048828130457l-52.7548828125-15.490234375c-5.9619140625,20.377929687509095-14.789306640617724,39.509765625-26.020263671878638,56.960449218759095Z" fill="none" stroke="#181818" stroke-linecap="round" stroke-linejoin="round" stroke-width="15"/>
          </a>
          <a xlink:href="https://www.notion.so/dmmnotes/feigned-helpless-e79a94b0498c4e109a681b7f3dcdb088?pvs=4">
            <path id="C4" d="M520,300c0,21.5380859375-3.142089843739086,42.321533203119543-8.897216796871362,61.985107421869543l52.7548828125,15.490234375c7.2080078125-24.583496093740905,11.142333984371362-50.5634765625,11.142333984371362-77.475341796869543h-55Z" fill="none" stroke="#181818" stroke-linecap="round" stroke-linejoin="round" stroke-width="15"/>
          </a>
          <a xlink:href="https://www.notion.so/dmmnotes/aggressive-2d8ccce383534b9dbfc7b4b10b8a5d5c?pvs=4">
            <path id="C3" d="M520,300h55c0-26.911865234389552-3.934326171871362-52.894531250010914-11.142333984371362-77.475341796889552l-52.7548828125,15.490234375c5.755126953132276,19.663574218759095,8.897216796871362,40.449707031259095,8.897216796871362,61.985107421889552Z" fill="none" stroke="#181818" stroke-linecap="round" stroke-linejoin="round" stroke-width="15"/>
          </a>
          <a xlink:href="https://www.notion.so/dmmnotes/disarming-086276e599884c86b9359acf831a8b20?pvs=4">
            <path id="C2" d="M511.102783203128638,238.014892578110448l52.7548828125-15.490234375c-7.463134765617724-25.456298828121362-18.503417968739086-49.365722656240905-32.551513671867724-71.177734374990905l-46.223632812510914,29.70751953125c11.230957031260914,17.45068359375,20.055664062510914,36.585205078119543,26.020263671878638,56.960449218740905Z" fill="none" stroke="#181818" stroke-linecap="round" stroke-linejoin="round" stroke-width="15"/>
          </a>
          <a xlink:href="https://www.notion.so/dmmnotes/threatening-348fe6a52f7a4fe69f768e98c6586932?pvs=4">
            <path id="C1" d="M485.08251953125,181.054443359369543l46.223632812510914-29.70751953125c-14.219970703132276-22.08056640625-31.504150390632276-41.980468750009095-51.26708984375-59.122314453130457l-35.972900390632276,41.5185546875c15.815185546882276,13.71240234375,29.64306640625,29.637695312510914,41.016357421871362,47.311279296880457Z" fill="none" stroke="#181818" stroke-linecap="round" stroke-linejoin="round" stroke-width="15"/>
          </a>
          <a xlink:href="https://www.notion.so/dmmnotes/complaining-acceptance-8b40401a720c493ba73f7cde1567cf3d?pvs=4">
            <path id="B5" d="M444.066162109378638,133.743164062489086l35.972900390632276-41.5185546875c-19.687744140621362-17.07470703125-41.81396484375-31.388671875-65.803955078139552-42.36181640625l-22.832519531242724,49.99951171875c19.204345703121362,8.773681640630457,36.910156249992724,20.22216796875,52.66357421875,33.880859375Z" fill="none" stroke="#181818" stroke-linecap="round" stroke-linejoin="round" stroke-width="15"/>
          </a>
          <a xlink:href="https://www.notion.so/dmmnotes/sentimental-bc554363322342b1b7ca4ccc02125049?pvs=4">
            <path id="B4" d="M391.402587890628638,99.862304687489086l22.832519531242724-49.99951171875c-23.45556640623181-10.7314453125-48.662109375-18.275146484378638-75.101318359371362-22.042968749989086l-7.825683593739086,54.433349609369543c21.159423828117724,3.0078125,41.327880859367724,9.034179687490905,60.094482421867724,17.609130859369543Z" fill="none" stroke="#181818" stroke-linecap="round" stroke-linejoin="round" stroke-width="15"/>
          </a>
          <a xlink:href="https://www.notion.so/dmmnotes/comfortably-balanced-e76dc615a8b947aa915377cd02fcf716?pvs=4">
            <path id="B3" d="M300,79.999999999989086c10.634765625,0,21.078857421871362.797607421880457,31.308105468760914,2.253173828130457l7.825683593739086-54.433349609369543c-12.788574218739086-1.823486328130457-25.843017578128638-2.819824218760914-39.1337890625-2.819824218760914s-26.34521484375.996337890630457-39.133789062489086,2.819824218760914l7.825683593739086,54.433349609369543c10.23193359375-1.45556640625,20.67333984375-2.253173828130457,31.30810546875-2.253173828130457Z" fill="none" stroke="#181818" stroke-linecap="round" stroke-linejoin="round" stroke-width="15"/>
          </a>
          <a xlink:href="https://www.notion.so/dmmnotes/accepting-317d81273fff4cd9817cdf4a88efd378?pvs=4">
            <g id="B2">
              <path d="M208.60009765625,100.8623046875c-.1181640625,0-.236328125-.02099609375-.349609375-.06298828125-.24853515625-.0927734375-.44970703125-.2802734375-.56005859375-.521484375l-22.83251953125-49.99951171875c-.2294921875-.50244140625-.00830078125-1.09521484375.49365234375-1.32470703125,23.9765625-10.97021484375,49.3359375-18.41357421875,75.37353515625-22.1240234375.0478515625-.00634765625.09521484375-.009765625.142578125-.009765625.4892578125,0,.91650390625.359375.98828125.85791015625l7.82568359375,54.43310546875c.0380859375.2626953125-.0302734375.52978515625-.189453125.7421875-.15966796875.21240234375-.396484375.3525390625-.65966796875.39013671875-20.6669921875,2.93798828125-40.7919921875,8.83544921875-59.81689453125,17.52880859375-.1318359375.06005859375-.2734375.09033203125-.41552734375.09033203125Z" fill="none" stroke="#181818" stroke-linecap="round" stroke-linejoin="round" stroke-width="15"/>
              <path d="M260.8662109375,27.81982421875l7.82568359375,54.433349609375c-21.15673828125,3.0078125-41.3251953125,9.0341796875-60.091796875,17.609130859375l-22.83251953125-49.99951171875c23.45556640625-10.7314453125,48.659423828125-18.275146484375,75.0986328125-22.04296875M260.86871337890625,25.819549560546875c-.093963623046875,0-.18896484375.006622314453125-.28466796875.020263671875-26.13360595703125,3.72430419921875-51.58544921875,11.19488525390625-75.6485595703125,22.20428466796875-1.00390625.459320068359375-1.445770263671875,1.645233154296875-.9871826171875,2.64947509765625l22.832489013671875,49.99951171875c.22039794921875.482574462890625.623443603515625.85784912109375,1.120513916015625,1.043182373046875.2257080078125.08416748046875.462432861328125.12603759765625.698760986328125.12603759765625.284149169921875,0,.567779541015625-.060516357421875.83123779296875-.180908203125,18.937652587890625-8.653106689453125,38.97052001953125-14.523529052734375,59.542083740234375-17.4481201171875.52569580078125-.074737548828125,1.000091552734375-.35546875,1.318634033203125-.7802734375s.455078125-.9588623046875.3795166015625-1.48443603515625l-7.82568359375-54.433349609375c-.143280029296875-.9967041015625-.99853515625-1.715667724609375-1.977142333984375-1.715667724609375h0Z" fill="none" stroke="#181818" stroke-linecap="round" stroke-linejoin="round" stroke-width="15"/>
            </g>
          </a>
          <a xlink:href="https://www.notion.so/dmmnotes/distanced-from-past-2eabab7e9c77429f8e577f4e3e203653?pvs=4">
            <g id="B1">
              <path d="M155.865234375,134.73779296875c-.2646484375-.01904296875-.5107421875-.14208984375-.6845703125-.3427734375l-35.97265625-41.515625c-.361328125-.4169921875-.31640625-1.04833984375.1005859375-1.41015625,19.92724609375-17.28271484375,42.1474609375-31.5869140625,66.04296875-42.515625.1318359375-.060546875.27392578125-.0908203125.416015625-.0908203125.1181640625,0,.236328125.02099609375.34912109375.06298828125.24853515625.0927734375.4501953125.2802734375.560546875.521484375l22.83251953125,49.99951171875c.2294921875.50244140625.00830078125,1.095703125-.494140625,1.3251953125-18.9775390625,8.6708984375-36.615234375,20.01708984375-52.423828125,33.7236328125-.1826171875.158203125-.41552734375.24462890625-.6552734375.24462890625-.0234375,0-.04736328125-.0009765625-.0712890625-.00244140625Z" fill="none" stroke="#181818" stroke-linecap="round" stroke-linejoin="round" stroke-width="15"/>
              <path d="M185.767578125,49.86279296875l22.83251953125,49.99951171875c-19.20166015625,8.773681640625-36.91015625,20.219482421875-52.66357421875,33.878173828125l-35.972900390625-41.515869140625c19.687744140625-17.07470703125,41.811279296875-31.388671875,65.803955078125-42.36181640625M185.767608642578125,47.86279296875c-.284393310546875,0-.568267822265625.060638427734375-.831878662109375.181182861328125-23.9822998046875,10.968414306640625-46.282928466796875,25.3245849609375-66.282501220703125,42.669708251953125-.834197998046875.723480224609375-.924224853515625,1.986114501953125-.20111083984375,2.82061767578125l35.972900390625,41.515869140625c.347412109375.400970458984375.839935302734375.6474609375,1.369140625.68524169921875.04754638671875.003387451171875.0950927734375.00506591796875.142486572265625.00506591796875.47967529296875,0,.94525146484375-.172576904296875,1.31005859375-.4888916015625,15.736328125-13.643890380859375,33.29376220703125-24.93853759765625,52.1845703125-33.5701904296875,1.0045166015625-.458984375,1.446868896484375-1.645263671875.98809814453125-2.649871826171875l-22.83251953125-49.99951171875c-.22039794921875-.482696533203125-.62359619140625-.858001708984375-1.120849609375-1.043304443359375-.225616455078125-.084075927734375-.462188720703125-.12591552734375-.698394775390625-.12591552734375h0Z" fill="none" stroke="#181818" stroke-linecap="round" stroke-linejoin="round" stroke-width="15"/>
            </g>
          </a>
          <a xlink:href="https://www.notion.so/dmmnotes/idealising-a52277f51ed14a42aae78081bb34b8be?pvs=4">
            <path id="A1" d="M155.9365234375,133.740478515619543l-35.972900390621362-41.515869140630457c-19.765625,17.141845703121362-37.049804687507276,37.041748046880457-51.269775390628638,59.122314453130457l46.226318359371362,29.70751953125c11.373291015639552-17.673583984369543,25.201171875007276-33.598876953130457,41.016357421878638-47.31396484375Z" fill="none" stroke="#181818" stroke-linecap="round" stroke-linejoin="round" stroke-width="15"/>
          </a>
          <a xlink:href="https://www.notion.so/dmmnotes/distancing-9ac690cdca654729a17a5a255944e2d1?pvs=4">
            <path id="A2" d="M114.920166015621362,181.054443359369543l-46.226318359371362-29.70751953125c-14.04541015625,21.81201171875-25.08837890625,45.721435546869543-32.551513671878638,71.177734374990905l52.754882812507276,15.490234375c5.964599609371362-20.375244140621362,14.7919921875-39.509765624990905,26.022949218742724-56.960449218740905Z" fill="none" stroke="#181818" stroke-linecap="round" stroke-linejoin="round" stroke-width="15"/>
          </a>
          <a xlink:href="https://www.notion.so/dmmnotes/compulsive-caregiving-9c380c0928294f41ae10764aa0dee886?pvs=4">
            <path id="A3" d="M88.897216796878638,238.014892578110448l-52.754882812507276-15.490234375c-7.205322265621362,24.580810546878638-11.142333984371362,50.5634765625-11.142333984371362,77.475341796889552h55c0-21.535400390630457,3.14208984375-42.321533203130457,8.897216796878638-61.985107421889552Z" fill="none" stroke="#181818" stroke-linecap="round" stroke-linejoin="round" stroke-width="15"/>
          </a>
          <a xlink:href="https://www.notion.so/dmmnotes/compulsive-compliance-6d08b7ea9a424ce1a72b9184b7850414?pvs=4">
            <path id="A4" d="M80,300H25c0,26.911865234369543,3.93701171875,52.894531249989086,11.142333984371362,77.475341796869543l52.754882812507276-15.490234375c-5.755126953128638-19.66357421875-8.897216796878638-40.447021484369543-8.897216796878638-61.985107421869543Z" fill="none" stroke="#181818" stroke-linecap="round" stroke-linejoin="round" stroke-width="15"/>
          </a>
          <a xlink:href="https://www.notion.so/dmmnotes/sexual-supplementation-8e85f49046ef412aa229745abf7d38d3?pvs=4">
            <path id="A5" d="M88.897216796878638,361.985107421869543l-52.754882812507276,15.490234375c7.463134765628638,25.456298828130457,18.506103515628638,49.36572265625,32.551513671878638,71.175048828130457l46.223632812510914-29.704833984371362c-11.230957031260914-17.450683593759095-20.055664062510914-36.58251953125-26.020263671882276-56.960449218759095Z" fill="none" stroke="#181818" stroke-linecap="round" stroke-linejoin="round" stroke-width="15"/>
          </a>
          <a xlink:href="https://www.notion.so/dmmnotes/compulsive-isolated-self-reliance-b321873a73fa41aaaadd7192fde856a2?pvs=4">
            <path id="A6" d="M114.917480468760914,418.945556640628638l-46.223632812510914,29.704833984371362c14.219970703121362,22.083251953119543,31.504150390628638,41.983154296869543,51.269775390628638,59.125l35.972900390621362-41.515869140621362c-15.815185546871362-13.712402343759095-29.643066406239086-29.637695312509095-41.019042968739086-47.31396484375Z" fill="none" stroke="#181818" stroke-linecap="round" stroke-linejoin="round" stroke-width="15"/>
          </a>
          <a xlink:href="https://www.notion.so/dmmnotes/delusional-idealization-743e2420b9994a48a7cab68190432e8a?pvs=4">
            <path id="A7" d="M155.9365234375,466.259521484378638l-35.972900390621362,41.515869140621362c19.687744140621362,17.074707031239086,41.811279296871362,31.385986328128638,65.803955078121362,42.36181640625l22.83251953125-49.996826171880457c-19.20166015625-8.773681640619543-36.91015625-20.222167968740905-52.66357421875-33.880859374990905Z" fill="none" stroke="#181818" stroke-linecap="round" stroke-linejoin="round" stroke-width="15"/>
          </a>
          <a xlink:href="https://www.notion.so/dmmnotes/externally-assembled-self-994ecb0895b844409b931d74a045c162?pvs=4">
            <path id="A8" d="M208.60009765625,500.140380859369543l-22.83251953125,49.996826171880457c23.45556640625,10.731445312503638,48.659423828121362,18.275146484371362,75.098632812510914,22.042968750003638l7.825683593739086-54.430664062503638c-21.15673828125-3.0078125-41.3251953125-9.0341796875-60.091796875-17.609130859380457Z" fill="none" stroke="#181818" stroke-linecap="round" stroke-linejoin="round" stroke-width="15"/>
          </a>
          <a xlink:href="https://www.notion.so/dmmnotes/psychopathy-0fe4a3222d9f4fd097ab4546c9776768?pvs=4">
            <path id="AC" d="M300,520c-10.634765625,0-21.076171875-.794921875-31.30810546875-2.25048828125l-7.825683593739086,54.430664062503638c12.788574218739086,1.823486328126819,25.843017578117724,2.81982421875,39.133789062489086,2.81982421875s26.345214843760914-.996337890623181,39.1337890625-2.81982421875l-7.825683593739086-54.430664062503638c-10.229248046889552,1.45556640625-20.673339843760914,2.25048828125-31.308105468760914,2.25048828125Z" fill="none" stroke="#181818" stroke-linecap="round" stroke-linejoin="round" stroke-width="15"/>
          </a>
        </g>
        <g>
          <a xlink:href="https://www.notion.so/dmmnotes/paranoid-ae38b1e6af0c4dd08f61e0d8f6e9f05f?pvs=4">
            <path id="C8-2" data-name="C8" d="M331.308105468760914,517.74951171875l7.825683593739086,54.430664062503638c26.439208984371362-3.767822265632276,51.645751953139552-11.3115234375,75.101318359371362-22.042968750003638l-22.832519531242724-49.996826171880457c-18.7666015625,8.572265625-38.93505859375,14.601318359380457-60.094482421867724,17.609130859380457Z" fill="#8f807d" stroke="#181818" stroke-linecap="round" stroke-linejoin="round" stroke-width="2"/>
          </a>
          <a xlink:href="https://www.notion.so/dmmnotes/menacing-a5bd7149286344deba45ec15e759e579?pvs=4">
            <path id="C7-2" data-name="C7" d="M391.402587890628638,500.140380859369543l22.832519531242724,49.996826171880457c23.989990234389552-10.975830078121362,46.11621093751819-25.287109375010914,65.803955078139552-42.36181640625l-35.972900390632276-41.515869140621362c-15.753417968757276,13.65869140625-33.459228515628638,25.104492187490905-52.66357421875,33.880859374990905Z" fill="#8f807d" stroke="#181818" stroke-linecap="round" stroke-linejoin="round" stroke-width="2"/>
          </a>
          <a xlink:href="https://www.notion.so/dmmnotes/seductively-obsessed-with-rescue-6fb5a68f6d334bc29ccccc16d8a4e56e?pvs=4">
            <path id="C6-2" data-name="C6" d="M444.066162109378638,466.259521484378638l35.972900390632276,41.515869140621362c19.762939453117724-17.141845703130457,37.047119140617724-37.041748046880457,51.26708984375-59.125l-46.223632812510914-29.704833984371362c-11.373291015621362,17.673583984371362-25.201171874989086,33.598876953121362-41.016357421871362,47.31396484375Z" fill="#8f807d" stroke="#181818" stroke-linecap="round" stroke-linejoin="round" stroke-width="2"/>
          </a>
          <a xlink:href="https://www.notion.so/dmmnotes/punitively-obsessed-with-revenge-33d2e77f37774316b42bccf4a60f9688?pvs=4">
            <path id="C5-2" data-name="C5" d="M485.08251953125,418.945556640628638l46.223632812510914,29.704833984371362c14.048095703128638-21.809326171880457,25.08837890625-45.71875,32.551513671867724-71.175048828130457l-52.7548828125-15.490234375c-5.9619140625,20.377929687509095-14.789306640617724,39.509765625-26.020263671878638,56.960449218759095Z" fill="#8f807d" stroke="#181818" stroke-linecap="round" stroke-linejoin="round" stroke-width="2"/>
          </a>
          <a xlink:href="https://www.notion.so/dmmnotes/feigned-helpless-e79a94b0498c4e109a681b7f3dcdb088?pvs=4">
            <path id="C4-2" data-name="C4" d="M520,300c0,21.5380859375-3.142089843739086,42.321533203119543-8.897216796871362,61.985107421869543l52.7548828125,15.490234375c7.2080078125-24.583496093740905,11.142333984371362-50.5634765625,11.142333984371362-77.475341796869543h-55Z" fill="#8f807d" stroke="#181818" stroke-linecap="round" stroke-linejoin="round" stroke-width="2"/>
          </a>
          <a xlink:href="https://www.notion.so/dmmnotes/aggressive-2d8ccce383534b9dbfc7b4b10b8a5d5c?pvs=4">
            <path id="C3-2" data-name="C3" d="M520,300h55c0-26.911865234389552-3.934326171871362-52.894531250010914-11.142333984371362-77.475341796889552l-52.7548828125,15.490234375c5.755126953132276,19.663574218759095,8.897216796871362,40.449707031259095,8.897216796871362,61.985107421889552Z" fill="#8f807d" stroke="#181818" stroke-linecap="round" stroke-linejoin="round" stroke-width="2"/>
          </a>
          <a xlink:href="https://www.notion.so/dmmnotes/disarming-086276e599884c86b9359acf831a8b20?pvs=4">
            <path id="C2-2" data-name="C2" d="M511.102783203128638,238.014892578110448l52.7548828125-15.490234375c-7.463134765617724-25.456298828121362-18.503417968739086-49.365722656240905-32.551513671867724-71.177734374990905l-46.223632812510914,29.70751953125c11.230957031260914,17.45068359375,20.055664062510914,36.585205078119543,26.020263671878638,56.960449218740905Z" fill="#8f807d" stroke="#181818" stroke-linecap="round" stroke-linejoin="round" stroke-width="2"/>
          </a>
          <a xlink:href="https://www.notion.so/dmmnotes/threatening-348fe6a52f7a4fe69f768e98c6586932?pvs=4">
            <path id="C1-2" data-name="C1" d="M485.08251953125,181.054443359369543l46.223632812510914-29.70751953125c-14.219970703132276-22.08056640625-31.504150390632276-41.980468750009095-51.26708984375-59.122314453130457l-35.972900390632276,41.5185546875c15.815185546882276,13.71240234375,29.64306640625,29.637695312510914,41.016357421871362,47.311279296880457Z" fill="#8f807d" stroke="#181818" stroke-linecap="round" stroke-linejoin="round" stroke-width="2"/>
          </a>
          <a xlink:href="https://www.notion.so/dmmnotes/complaining-acceptance-8b40401a720c493ba73f7cde1567cf3d?pvs=4">
            <path id="B5-2" data-name="B5" d="M444.066162109378638,133.743164062489086l35.972900390632276-41.5185546875c-19.687744140621362-17.07470703125-41.81396484375-31.388671875-65.803955078139552-42.36181640625l-22.832519531242724,49.99951171875c19.204345703121362,8.773681640630457,36.910156249992724,20.22216796875,52.66357421875,33.880859375Z" fill="#8f807d" stroke="#181818" stroke-linecap="round" stroke-linejoin="round" stroke-width="2"/>
          </a>
          <a xlink:href="https://www.notion.so/dmmnotes/sentimental-bc554363322342b1b7ca4ccc02125049?pvs=4">
            <path id="B4-2" data-name="B4" d="M391.402587890628638,99.862304687489086l22.832519531242724-49.99951171875c-23.45556640623181-10.7314453125-48.662109375-18.275146484378638-75.101318359371362-22.042968749989086l-7.825683593739086,54.433349609369543c21.159423828117724,3.0078125,41.327880859367724,9.034179687490905,60.094482421867724,17.609130859369543Z" fill="#8f807d" stroke="#181818" stroke-linecap="round" stroke-linejoin="round" stroke-width="2"/>
          </a>
          <a xlink:href="https://www.notion.so/dmmnotes/comfortably-balanced-e76dc615a8b947aa915377cd02fcf716?pvs=4">
            <path id="B3-2" data-name="B3" d="M300,79.999999999989086c10.634765625,0,21.078857421871362.797607421880457,31.308105468760914,2.253173828130457l7.825683593739086-54.433349609369543c-12.788574218739086-1.823486328130457-25.843017578128638-2.819824218760914-39.1337890625-2.819824218760914s-26.34521484375.996337890630457-39.133789062489086,2.819824218760914l7.825683593739086,54.433349609369543c10.23193359375-1.45556640625,20.67333984375-2.253173828130457,31.30810546875-2.253173828130457Z" fill="#8f807d" stroke="#181818" stroke-linecap="round" stroke-linejoin="round" stroke-width="2"/>
          </a>
          <a xlink:href="https://www.notion.so/dmmnotes/accepting-317d81273fff4cd9817cdf4a88efd378?pvs=4">
            <g id="B2-2" data-name="B2">
              <path d="M208.60009765625,100.8623046875c-.1181640625,0-.236328125-.02099609375-.349609375-.06298828125-.24853515625-.0927734375-.44970703125-.2802734375-.56005859375-.521484375l-22.83251953125-49.99951171875c-.2294921875-.50244140625-.00830078125-1.09521484375.49365234375-1.32470703125,23.9765625-10.97021484375,49.3359375-18.41357421875,75.37353515625-22.1240234375.0478515625-.00634765625.09521484375-.009765625.142578125-.009765625.4892578125,0,.91650390625.359375.98828125.85791015625l7.82568359375,54.43310546875c.0380859375.2626953125-.0302734375.52978515625-.189453125.7421875-.15966796875.21240234375-.396484375.3525390625-.65966796875.39013671875-20.6669921875,2.93798828125-40.7919921875,8.83544921875-59.81689453125,17.52880859375-.1318359375.06005859375-.2734375.09033203125-.41552734375.09033203125Z" fill="#2e8390" stroke-width="0"/>
              <path d="M260.8662109375,27.81982421875l7.82568359375,54.433349609375c-21.15673828125,3.0078125-41.3251953125,9.0341796875-60.091796875,17.609130859375l-22.83251953125-49.99951171875c23.45556640625-10.7314453125,48.659423828125-18.275146484375,75.0986328125-22.04296875M260.86871337890625,25.819549560546875c-.093963623046875,0-.18896484375.006622314453125-.28466796875.020263671875-26.13360595703125,3.72430419921875-51.58544921875,11.19488525390625-75.6485595703125,22.20428466796875-1.00390625.459320068359375-1.445770263671875,1.645233154296875-.9871826171875,2.64947509765625l22.832489013671875,49.99951171875c.22039794921875.482574462890625.623443603515625.85784912109375,1.120513916015625,1.043182373046875.2257080078125.08416748046875.462432861328125.12603759765625.698760986328125.12603759765625.284149169921875,0,.567779541015625-.060516357421875.83123779296875-.180908203125,18.937652587890625-8.653106689453125,38.97052001953125-14.523529052734375,59.542083740234375-17.4481201171875.52569580078125-.074737548828125,1.000091552734375-.35546875,1.318634033203125-.7802734375s.455078125-.9588623046875.3795166015625-1.48443603515625l-7.82568359375-54.433349609375c-.143280029296875-.9967041015625-.99853515625-1.715667724609375-1.977142333984375-1.715667724609375h0Z" fill="#181818" stroke-width="0"/>
            </g>
          </a>
          <a xlink:href="https://www.notion.so/dmmnotes/distanced-from-past-2eabab7e9c77429f8e577f4e3e203653?pvs=4">
            <g id="B1-2" data-name="B1">
              <path d="M155.865234375,134.73779296875c-.2646484375-.01904296875-.5107421875-.14208984375-.6845703125-.3427734375l-35.97265625-41.515625c-.361328125-.4169921875-.31640625-1.04833984375.1005859375-1.41015625,19.92724609375-17.28271484375,42.1474609375-31.5869140625,66.04296875-42.515625.1318359375-.060546875.27392578125-.0908203125.416015625-.0908203125.1181640625,0,.236328125.02099609375.34912109375.06298828125.24853515625.0927734375.4501953125.2802734375.560546875.521484375l22.83251953125,49.99951171875c.2294921875.50244140625.00830078125,1.095703125-.494140625,1.3251953125-18.9775390625,8.6708984375-36.615234375,20.01708984375-52.423828125,33.7236328125-.1826171875.158203125-.41552734375.24462890625-.6552734375.24462890625-.0234375,0-.04736328125-.0009765625-.0712890625-.00244140625Z" fill="#477e96" stroke-width="0"/>
              <path d="M185.767578125,49.86279296875l22.83251953125,49.99951171875c-19.20166015625,8.773681640625-36.91015625,20.219482421875-52.66357421875,33.878173828125l-35.972900390625-41.515869140625c19.687744140625-17.07470703125,41.811279296875-31.388671875,65.803955078125-42.36181640625M185.767608642578125,47.86279296875c-.284393310546875,0-.568267822265625.060638427734375-.831878662109375.181182861328125-23.9822998046875,10.968414306640625-46.282928466796875,25.3245849609375-66.282501220703125,42.669708251953125-.834197998046875.723480224609375-.924224853515625,1.986114501953125-.20111083984375,2.82061767578125l35.972900390625,41.515869140625c.347412109375.400970458984375.839935302734375.6474609375,1.369140625.68524169921875.04754638671875.003387451171875.0950927734375.00506591796875.142486572265625.00506591796875.47967529296875,0,.94525146484375-.172576904296875,1.31005859375-.4888916015625,15.736328125-13.643890380859375,33.29376220703125-24.93853759765625,52.1845703125-33.5701904296875,1.0045166015625-.458984375,1.446868896484375-1.645263671875.98809814453125-2.649871826171875l-22.83251953125-49.99951171875c-.22039794921875-.482696533203125-.62359619140625-.858001708984375-1.120849609375-1.043304443359375-.225616455078125-.084075927734375-.462188720703125-.12591552734375-.698394775390625-.12591552734375h0Z" fill="#181818" stroke-width="0"/>
            </g>
          </a>
          <a xlink:href="https://www.notion.so/dmmnotes/idealising-a52277f51ed14a42aae78081bb34b8be?pvs=4">
            <path id="A1-2" data-name="A1" d="M155.9365234375,133.740478515619543l-35.972900390621362-41.515869140630457c-19.765625,17.141845703121362-37.049804687507276,37.041748046880457-51.269775390628638,59.122314453130457l46.226318359371362,29.70751953125c11.373291015639552-17.673583984369543,25.201171875007276-33.598876953130457,41.016357421878638-47.31396484375Z" fill="#8f807d" stroke="#181818" stroke-linecap="round" stroke-linejoin="round" stroke-width="2"/>
          </a>
          <a xlink:href="https://www.notion.so/dmmnotes/distancing-9ac690cdca654729a17a5a255944e2d1?pvs=4">
            <path id="A2-2" data-name="A2" d="M114.920166015621362,181.054443359369543l-46.226318359371362-29.70751953125c-14.04541015625,21.81201171875-25.08837890625,45.721435546869543-32.551513671878638,71.177734374990905l52.754882812507276,15.490234375c5.964599609371362-20.375244140621362,14.7919921875-39.509765624990905,26.022949218742724-56.960449218740905Z" fill="#8f807d" stroke="#181818" stroke-linecap="round" stroke-linejoin="round" stroke-width="2"/>
          </a>
          <a xlink:href="https://www.notion.so/dmmnotes/compulsive-caregiving-9c380c0928294f41ae10764aa0dee886?pvs=4">
            <path id="A3-2" data-name="A3" d="M88.897216796878638,238.014892578110448l-52.754882812507276-15.490234375c-7.205322265621362,24.580810546878638-11.142333984371362,50.5634765625-11.142333984371362,77.475341796889552h55c0-21.535400390630457,3.14208984375-42.321533203130457,8.897216796878638-61.985107421889552Z" fill="#8f807d" stroke="#181818" stroke-linecap="round" stroke-linejoin="round" stroke-width="2"/>
          </a>
          <a xlink:href="https://www.notion.so/dmmnotes/compulsive-compliance-6d08b7ea9a424ce1a72b9184b7850414?pvs=4">
            <path id="A4-2" data-name="A4" d="M80,300H25c0,26.911865234369543,3.93701171875,52.894531249989086,11.142333984371362,77.475341796869543l52.754882812507276-15.490234375c-5.755126953128638-19.66357421875-8.897216796878638-40.447021484369543-8.897216796878638-61.985107421869543Z" fill="#8f807d" stroke="#181818" stroke-linecap="round" stroke-linejoin="round" stroke-width="2"/>
          </a>
          <a xlink:href="https://www.notion.so/dmmnotes/sexual-supplementation-8e85f49046ef412aa229745abf7d38d3?pvs=4">
            <path id="A5-2" data-name="A5" d="M88.897216796878638,361.985107421869543l-52.754882812507276,15.490234375c7.463134765628638,25.456298828130457,18.506103515628638,49.36572265625,32.551513671878638,71.175048828130457l46.223632812510914-29.704833984371362c-11.230957031260914-17.450683593759095-20.055664062510914-36.58251953125-26.020263671882276-56.960449218759095Z" fill="#8f807d" stroke="#181818" stroke-linecap="round" stroke-linejoin="round" stroke-width="2"/>
          </a>
          <a xlink:href="https://www.notion.so/dmmnotes/compulsive-isolated-self-reliance-b321873a73fa41aaaadd7192fde856a2?pvs=4">
            <path id="A6-2" data-name="A6" d="M114.917480468760914,418.945556640628638l-46.223632812510914,29.704833984371362c14.219970703121362,22.083251953119543,31.504150390628638,41.983154296869543,51.269775390628638,59.125l35.972900390621362-41.515869140621362c-15.815185546871362-13.712402343759095-29.643066406239086-29.637695312509095-41.019042968739086-47.31396484375Z" fill="#8f807d" stroke="#181818" stroke-linecap="round" stroke-linejoin="round" stroke-width="2"/>
          </a>
          <a xlink:href="https://www.notion.so/dmmnotes/delusional-idealization-743e2420b9994a48a7cab68190432e8a?pvs=4">
            <path id="A7-2" data-name="A7" d="M155.9365234375,466.259521484378638l-35.972900390621362,41.515869140621362c19.687744140621362,17.074707031239086,41.811279296871362,31.385986328128638,65.803955078121362,42.36181640625l22.83251953125-49.996826171880457c-19.20166015625-8.773681640619543-36.91015625-20.222167968740905-52.66357421875-33.880859374990905Z" fill="#8f807d" stroke="#181818" stroke-linecap="round" stroke-linejoin="round" stroke-width="2"/>
          </a>
          <a xlink:href="https://www.notion.so/dmmnotes/externally-assembled-self-994ecb0895b844409b931d74a045c162?pvs=4">
            <path id="A8-2" data-name="A8" d="M208.60009765625,500.140380859369543l-22.83251953125,49.996826171880457c23.45556640625,10.731445312503638,48.659423828121362,18.275146484371362,75.098632812510914,22.042968750003638l7.825683593739086-54.430664062503638c-21.15673828125-3.0078125-41.3251953125-9.0341796875-60.091796875-17.609130859380457Z" fill="#8f807d" stroke="#181818" stroke-linecap="round" stroke-linejoin="round" stroke-width="2"/>
          </a>
          <a xlink:href="https://www.notion.so/dmmnotes/psychopathy-0fe4a3222d9f4fd097ab4546c9776768?pvs=4">
            <path id="AC-2" data-name="AC" d="M300,520c-10.634765625,0-21.076171875-.794921875-31.30810546875-2.25048828125l-7.825683593739086,54.430664062503638c12.788574218739086,1.823486328126819,25.843017578117724,2.81982421875,39.133789062489086,2.81982421875s26.345214843760914-.996337890623181,39.1337890625-2.81982421875l-7.825683593739086-54.430664062503638c-10.229248046889552,1.45556640625-20.673339843760914,2.25048828125-31.308105468760914,2.25048828125Z" fill="#8f807d" stroke="#181818" stroke-linecap="round" stroke-linejoin="round" stroke-width="2"/>
          </a>
        </g>
      </g>
    </g>
  </g>
</svg>