<?xml version="1.0" encoding="UTF-8"?>
<svg id="Layer_1" data-name="Layer 1" xmlns="http://www.w3.org/2000/svg" xmlns:xlink="http://www.w3.org/1999/xlink" viewBox="0 0 600 599.999999999998181">
  <defs>
    <linearGradient id="C8-5" data-name="C8" x1="350.550333578134087" y1="273.618859200556471" x2="260.213388594325863" y2="405.930546298093986" gradientUnits="userSpaceOnUse">
      <stop offset="0" stop-color="#d3805f"/>
      <stop offset=".497863247863248" stop-color="#e17465"/>
      <stop offset="1" stop-color="#f1666a"/>
    </linearGradient>
  </defs>
  <g id="pie_with_links_-5" data-name="pie (with links)">
    <g id="pie_with_links_-6" data-name="pie (with links)">
      <g id="Pie">
        <g>
          <a xlink:href="https://www.notion.so/dmmnotes/menacing-a5bd7149286344deba45ec15e759e579?pvs=4">
            <path id="C7" d="M391.402587890621362,500.140380859369543l22.832519531239086,49.996826171878638c23.989990234389552-10.975830078117724,46.11621093751819-25.287109375010914,65.803955078139552-42.36181640625l-35.972900390628638-41.515869140617724c-15.753417968760914,13.65869140625-33.459228515632276,25.104492187489086-52.66357421875,33.880859374989086Z" fill="none" stroke="#181818" stroke-linecap="round" stroke-linejoin="round" stroke-width="15"/>
          </a>
          <a xlink:href="https://www.notion.so/dmmnotes/seductively-obsessed-with-rescue-6fb5a68f6d334bc29ccccc16d8a4e56e?pvs=4">
            <path id="C6" d="M444.066162109371362,466.259521484380457l35.972900390628638,41.515869140617724c19.762939453121362-17.141845703128638,37.047119140621362-37.041748046878638,51.26708984375-59.125l-46.223632812510914-29.704833984367724c-11.373291015617724,17.673583984367724-25.201171874989086,33.598876953117724-41.016357421867724,47.31396484375Z" fill="none" stroke="#181818" stroke-linecap="round" stroke-linejoin="round" stroke-width="15"/>
          </a>
          <a xlink:href="https://www.notion.so/dmmnotes/punitively-obsessed-with-revenge-33d2e77f37774316b42bccf4a60f9688?pvs=4">
            <path id="C5" d="M485.082519531239086,418.945556640630457l46.223632812510914,29.704833984367724c14.048095703128638-21.809326171878638,25.08837890625-45.71875,32.551513671871362-71.175048828128638l-52.7548828125-15.490234375c-5.9619140625,20.377929687510914-14.789306640621362,39.509765625-26.020263671882276,56.960449218760914Z" fill="none" stroke="#181818" stroke-linecap="round" stroke-linejoin="round" stroke-width="15"/>
          </a>
          <a xlink:href="https://www.notion.so/dmmnotes/feigned-helpless-e79a94b0498c4e109a681b7f3dcdb088?pvs=4">
            <path id="C4" d="M519.999999999989086,300c0,21.538085937498181-3.142089843739086,42.321533203119543-8.897216796867724,61.985107421869543l52.7548828125,15.490234375c7.2080078125-24.583496093739086,11.142333984367724-50.5634765625,11.142333984367724-77.475341796869543h-55Z" fill="none" stroke="#181818" stroke-linecap="round" stroke-linejoin="round" stroke-width="15"/>
          </a>
          <a xlink:href="https://www.notion.so/dmmnotes/aggressive-2d8ccce383534b9dbfc7b4b10b8a5d5c?pvs=4">
            <path id="C3" d="M519.999999999989086,300h55c0-26.911865234390461-3.934326171867724-52.894531250011823-11.142333984367724-77.475341796890461l-52.7548828125,15.490234375c5.755126953128638,19.663574218760914,8.897216796867724,40.449707031260914,8.897216796867724,61.985107421890461Z" fill="none" stroke="#181818" stroke-linecap="round" stroke-linejoin="round" stroke-width="15"/>
          </a>
          <a xlink:href="https://www.notion.so/dmmnotes/disarming-086276e599884c86b9359acf831a8b20?pvs=4">
            <path id="C2" d="M511.102783203121362,238.014892578109539l52.7548828125-15.490234375c-7.463134765621362-25.456298828121362-18.503417968742724-49.365722656239086-32.551513671871362-71.177734374989086l-46.223632812510914,29.70751953125c11.230957031260914,17.45068359375,20.055664062510914,36.585205078117724,26.020263671882276,56.960449218739086Z" fill="none" stroke="#181818" stroke-linecap="round" stroke-linejoin="round" stroke-width="15"/>
          </a>
          <a xlink:href="https://www.notion.so/dmmnotes/threatening-348fe6a52f7a4fe69f768e98c6586932?pvs=4">
            <path id="C1" d="M485.082519531239086,181.054443359370453l46.223632812510914-29.70751953125c-14.219970703128638-22.08056640625-31.504150390628638-41.980468750010914-51.26708984375-59.122314453120453l-35.972900390628638,41.518554687488177c15.815185546878638,13.71240234375,29.64306640625,29.637695312511823,41.016357421867724,47.311279296882276Z" fill="none" stroke="#181818" stroke-linecap="round" stroke-linejoin="round" stroke-width="15"/>
          </a>
          <a xlink:href="https://www.notion.so/dmmnotes/complaining-acceptance-8b40401a720c493ba73f7cde1567cf3d?pvs=4">
            <path id="B5" d="M444.066162109371362,133.743164062488177l35.972900390628638-41.518554687488177c-19.687744140621362-17.07470703125-41.81396484375-31.388671875-65.803955078139552-42.36181640625l-22.832519531239086,49.99951171875c19.204345703117724,8.773681640620453,36.910156249989086,20.22216796875,52.66357421875,33.880859374988177Z" fill="none" stroke="#181818" stroke-linecap="round" stroke-linejoin="round" stroke-width="15"/>
          </a>
          <a xlink:href="https://www.notion.so/dmmnotes/sentimental-bc554363322342b1b7ca4ccc02125049?pvs=4">
            <path id="B4" d="M391.402587890621362,99.8623046875l22.832519531239086-49.99951171875c-23.45556640623181-10.7314453125-48.662109375-18.275146484390461-75.101318359371362-22.042968749990905l-7.825683593739086,54.433349609361358c21.159423828121362,3.0078125,41.327880859371362,9.034179687489086,60.094482421871362,17.609130859379547Z" fill="none" stroke="#181818" stroke-linecap="round" stroke-linejoin="round" stroke-width="15"/>
          </a>
          <a xlink:href="https://www.notion.so/dmmnotes/comfortably-balanced-e76dc615a8b947aa915377cd02fcf716?pvs=4">
            <path id="B3" d="M299.999999999989086,80c10.634765625,0,21.078857421871362.797607421870453,31.308105468760914,2.253173828120453l7.825683593739086-54.433349609361358c-12.788574218739086-1.823486328138642-25.843017578128638-2.819824218759095-39.1337890625-2.819824218759095-13.290771484360448,0-26.34521484375.996337890620453-39.133789062489086,2.819824218759095l7.825683593739086,54.433349609361358c10.23193359375-1.45556640625,20.67333984375-2.253173828120453,31.30810546875-2.253173828120453Z" fill="none" stroke="#181818" stroke-linecap="round" stroke-linejoin="round" stroke-width="15"/>
          </a>
          <a xlink:href="https://www.notion.so/dmmnotes/accepting-317d81273fff4cd9817cdf4a88efd378?pvs=4">
            <path id="B2" d="M268.691894531239086,82.253173828120453l-7.825683593739086-54.433349609361358c-26.439208984389552,3.767822265600444-51.643066406260914,11.311523437490905-75.098632812510914,22.042968749990905l22.83251953125,49.99951171875c18.7666015625-8.574951171890461,38.93505859375-14.601318359379547,60.091796875-17.609130859379547Z" fill="none" stroke="#181818" stroke-linecap="round" stroke-linejoin="round" stroke-width="15"/>
          </a>
          <a xlink:href="https://www.notion.so/dmmnotes/distanced-from-past-2eabab7e9c77429f8e577f4e3e203653?pvs=4">
            <path id="B1" d="M208.600097656239086,99.8623046875l-22.83251953125-49.99951171875c-23.99267578125,10.97314453125-46.1162109375,25.287109375-65.803955078110448,42.36181640625l35.972900390610448,41.515869140620453c15.75341796875-13.658691406260914,33.4619140625-25.1044921875,52.66357421875-33.878173828120453Z" fill="none" stroke="#181818" stroke-linecap="round" stroke-linejoin="round" stroke-width="15"/>
          </a>
          <a xlink:href="https://www.notion.so/dmmnotes/idealising-a52277f51ed14a42aae78081bb34b8be?pvs=4">
            <path id="A1" d="M155.936523437489086,133.740478515620453l-35.972900390610448-41.515869140620453c-19.765625,17.141845703109539-37.04980468751819,37.041748046870453-51.269775390639552,59.122314453120453l46.226318359371362,29.70751953125c11.373291015639552-17.673583984370453,25.20117187501819-33.598876953132276,41.016357421878638-47.31396484375Z" fill="none" stroke="#181818" stroke-linecap="round" stroke-linejoin="round" stroke-width="15"/>
          </a>
          <a xlink:href="https://www.notion.so/dmmnotes/distancing-9ac690cdca654729a17a5a255944e2d1?pvs=4">
            <path id="A2" d="M114.920166015610448,181.054443359370453l-46.226318359371362-29.70751953125c-14.04541015625,21.81201171875-25.08837890625,45.721435546867724-32.551513671878638,71.177734374989086l52.75488281251819,15.490234375c5.964599609360448-20.375244140621362,14.7919921875-39.509765624989086,26.02294921873181-56.960449218739086Z" fill="none" stroke="#181818" stroke-linecap="round" stroke-linejoin="round" stroke-width="15"/>
          </a>
          <a xlink:href="https://www.notion.so/dmmnotes/compulsive-caregiving-9c380c0928294f41ae10764aa0dee886?pvs=4">
            <path id="A3" d="M88.897216796878638,238.014892578109539l-52.75488281251819-15.490234375c-7.205322265621362,24.580810546878638-11.142333984371362,50.5634765625-11.142333984371362,77.475341796890461h55c0-21.535400390629547,3.14208984375-42.321533203129547,8.897216796889552-61.985107421890461Z" fill="none" stroke="#181818" stroke-linecap="round" stroke-linejoin="round" stroke-width="15"/>
          </a>
          <a xlink:href="https://www.notion.so/dmmnotes/compulsive-compliance-6d08b7ea9a424ce1a72b9184b7850414?pvs=4">
            <path id="A4" d="M79.999999999989086,300H24.999999999989086c0,26.911865234369543,3.93701171875,52.894531249987267,11.142333984371362,77.475341796869543l52.75488281251819-15.490234375c-5.755126953139552-19.66357421875-8.897216796889552-40.447021484371362-8.897216796889552-61.985107421869543Z" fill="none" stroke="#181818" stroke-linecap="round" stroke-linejoin="round" stroke-width="15"/>
          </a>
          <a xlink:href="https://www.notion.so/dmmnotes/sexual-supplementation-8e85f49046ef412aa229745abf7d38d3?pvs=4">
            <path id="A5" d="M88.897216796878638,361.985107421869543l-52.75488281251819,15.490234375c7.463134765628638,25.456298828128638,18.506103515628638,49.36572265625,32.551513671878638,71.175048828128638l46.223632812510914-29.704833984367724c-11.230957031260914-17.450683593760914-20.055664062510914-36.58251953125-26.020263671871362-56.960449218760914Z" fill="none" stroke="#181818" stroke-linecap="round" stroke-linejoin="round" stroke-width="15"/>
          </a>
          <a xlink:href="https://www.notion.so/dmmnotes/compulsive-isolated-self-reliance-b321873a73fa41aaaadd7192fde856a2?pvs=4">
            <path id="A6" d="M114.91748046875,418.945556640630457l-46.223632812510914,29.704833984367724c14.219970703121362,22.083251953121362,31.504150390639552,41.983154296871362,51.269775390639552,59.125l35.972900390610448-41.515869140617724c-15.815185546860448-13.712402343760914-29.643066406239086-29.637695312510914-41.019042968739086-47.31396484375Z" fill="none" stroke="#181818" stroke-linecap="round" stroke-linejoin="round" stroke-width="15"/>
          </a>
          <a xlink:href="https://www.notion.so/dmmnotes/delusional-idealization-743e2420b9994a48a7cab68190432e8a?pvs=4">
            <path id="A7" d="M155.936523437489086,466.259521484380457l-35.972900390610448,41.515869140617724c19.687744140610448,17.074707031239086,41.811279296860448,31.385986328132276,65.803955078110448,42.36181640625l22.83251953125-49.996826171878638c-19.20166015625-8.773681640621362-36.91015625-20.222167968739086-52.66357421875-33.880859374989086Z" fill="none" stroke="#181818" stroke-linecap="round" stroke-linejoin="round" stroke-width="15"/>
          </a>
          <a xlink:href="https://www.notion.so/dmmnotes/externally-assembled-self-994ecb0895b844409b931d74a045c162?pvs=4">
            <path id="A8" d="M208.600097656239086,500.140380859369543l-22.83251953125,49.996826171878638c23.45556640625,10.7314453125,48.659423828121362,18.275146484371362,75.098632812510914,22.04296875l7.825683593739086-54.4306640625c-21.15673828125-3.0078125-41.3251953125-9.0341796875-60.091796875-17.609130859378638Z" fill="none" stroke="#181818" stroke-linecap="round" stroke-linejoin="round" stroke-width="15"/>
          </a>
          <a xlink:href="https://www.notion.so/dmmnotes/psychopathy-0fe4a3222d9f4fd097ab4546c9776768?pvs=4">
            <path id="AC" d="M299.999999999989086,519.999999999998181c-10.634765625,0-21.076171875-.794921875-31.30810546875-2.25048828125l-7.825683593739086,54.4306640625c12.788574218739086,1.823486328132276,25.843017578128638,2.81982421875,39.133789062489086,2.81982421875,13.290771484371362,0,26.345214843760914-.996337890617724,39.1337890625-2.81982421875l-7.825683593739086-54.4306640625c-10.229248046889552,1.45556640625-20.673339843760914,2.25048828125-31.308105468760914,2.25048828125Z" fill="none" stroke="#181818" stroke-linecap="round" stroke-linejoin="round" stroke-width="15"/>
          </a>
          <a xlink:href="https://www.notion.so/dmmnotes/paranoid-ae38b1e6af0c4dd08f61e0d8f6e9f05f?pvs=4">
            <g id="C8">
              <path d="M339.1328125,573.180664062494543c-.4892578125,0-.9169921875-.359375-.9892578125-.857421875l-7.8251953125-54.4306640625c-.037109375-.2626953125.03125-.5302734375.1904296875-.7421875.1591796875-.212890625.396484375-.353515625.6591796875-.390625,20.658203125-2.9365234375,40.7841796875-8.833984375,59.8193359375-17.5283203125.130859375-.060546875.2734375-.0908203125.4150390625-.0908203125.1181640625,0,.236328125.0205078125.349609375.0634765625.248046875.091796875.4501953125.2802734375.5595703125.521484375l22.8330078125,49.9970703125c.2294921875.501953125.0087890625,1.0947265625-.4931640625,1.32421875-23.9736328125,10.96875-49.333984375,18.412109375-75.376953125,22.1240234375-.046875.0068359375-.0947265625.009765625-.1416015625.009765625Z" fill="none" stroke="#181818" stroke-linecap="round" stroke-linejoin="round" stroke-width="15"/>
              <path d="M391.40234375,500.140380859369543l22.83251953125,49.996826171875c-23.455078125,10.7314453125-48.662109375,18.275146484375-75.10107421875,22.04296875l-7.82568359375-54.4306640625c21.1591796875-3.0078125,41.32763671875-9.036865234375,60.09423828125-17.609130859375M391.40234375,498.140380859369543c-.2841796875,0-.5673828125.06048583984375-.8310546875.1807861328125-18.94677734375,8.65460205078125-38.98046875,14.5250244140625-59.54443359375,17.4482421875-.52587890625.07470703125-1.00048828125.35546875-1.31884765625.7802734375s-.455078125.9588623046875-.37939453125,1.48443603515625l7.82568359375,54.4306640625c.14306640625.9967041015625.99853515625,1.71563720703125,1.97705078125,1.71563720703125.09375,0,.18896484375-.006591796875.28466796875-.020263671875,26.13671875-3.7247314453125,51.58935546875-11.1953125,75.65087890625-22.20428466796875,1.00390625-.45928955078125,1.44580078125-1.645263671875.9873046875-2.64947509765625l-22.83251953125-49.996826171875c-.22021484375-.4825439453125-.62353515625-.85772705078125-1.12060546875-1.0430908203125-.2255859375-.084228515625-.46240234375-.1260986328125-.69873046875-.1260986328125h0Z" fill="none" stroke="#181818" stroke-linecap="round" stroke-linejoin="round" stroke-width="15"/>
            </g>
          </a>
        </g>
        <g>
          <a xlink:href="https://www.notion.so/dmmnotes/menacing-a5bd7149286344deba45ec15e759e579?pvs=4">
            <path id="C7-2" data-name="C7" d="M391.402587890621362,500.140380859369543l22.832519531239086,49.996826171878638c23.989990234389552-10.975830078117724,46.11621093751819-25.287109375010914,65.803955078139552-42.36181640625l-35.972900390628638-41.515869140617724c-15.753417968760914,13.65869140625-33.459228515632276,25.104492187489086-52.66357421875,33.880859374989086Z" fill="#8f807d" stroke="#181818" stroke-linecap="round" stroke-linejoin="round" stroke-width="2"/>
          </a>
          <a xlink:href="https://www.notion.so/dmmnotes/seductively-obsessed-with-rescue-6fb5a68f6d334bc29ccccc16d8a4e56e?pvs=4">
            <path id="C6-2" data-name="C6" d="M444.066162109371362,466.259521484380457l35.972900390628638,41.515869140617724c19.762939453121362-17.141845703128638,37.047119140621362-37.041748046878638,51.26708984375-59.125l-46.223632812510914-29.704833984367724c-11.373291015617724,17.673583984367724-25.201171874989086,33.598876953117724-41.016357421867724,47.31396484375Z" fill="#8f807d" stroke="#181818" stroke-linecap="round" stroke-linejoin="round" stroke-width="2"/>
          </a>
          <a xlink:href="https://www.notion.so/dmmnotes/punitively-obsessed-with-revenge-33d2e77f37774316b42bccf4a60f9688?pvs=4">
            <path id="C5-2" data-name="C5" d="M485.082519531239086,418.945556640630457l46.223632812510914,29.704833984367724c14.048095703128638-21.809326171878638,25.08837890625-45.71875,32.551513671871362-71.175048828128638l-52.7548828125-15.490234375c-5.9619140625,20.377929687510914-14.789306640621362,39.509765625-26.020263671882276,56.960449218760914Z" fill="#8f807d" stroke="#181818" stroke-linecap="round" stroke-linejoin="round" stroke-width="2"/>
          </a>
          <a xlink:href="https://www.notion.so/dmmnotes/feigned-helpless-e79a94b0498c4e109a681b7f3dcdb088?pvs=4">
            <path id="C4-2" data-name="C4" d="M519.999999999989086,300c0,21.538085937498181-3.142089843739086,42.321533203119543-8.897216796867724,61.985107421869543l52.7548828125,15.490234375c7.2080078125-24.583496093739086,11.142333984367724-50.5634765625,11.142333984367724-77.475341796869543h-55Z" fill="#8f807d" stroke="#181818" stroke-linecap="round" stroke-linejoin="round" stroke-width="2"/>
          </a>
          <a xlink:href="https://www.notion.so/dmmnotes/aggressive-2d8ccce383534b9dbfc7b4b10b8a5d5c?pvs=4">
            <path id="C3-2" data-name="C3" d="M519.999999999989086,300h55c0-26.911865234390461-3.934326171867724-52.894531250011823-11.142333984367724-77.475341796890461l-52.7548828125,15.490234375c5.755126953128638,19.663574218760914,8.897216796867724,40.449707031260914,8.897216796867724,61.985107421890461Z" fill="#8f807d" stroke="#181818" stroke-linecap="round" stroke-linejoin="round" stroke-width="2"/>
          </a>
          <a xlink:href="https://www.notion.so/dmmnotes/disarming-086276e599884c86b9359acf831a8b20?pvs=4">
            <path id="C2-2" data-name="C2" d="M511.102783203121362,238.014892578109539l52.7548828125-15.490234375c-7.463134765621362-25.456298828121362-18.503417968742724-49.365722656239086-32.551513671871362-71.177734374989086l-46.223632812510914,29.70751953125c11.230957031260914,17.45068359375,20.055664062510914,36.585205078117724,26.020263671882276,56.960449218739086Z" fill="#8f807d" stroke="#181818" stroke-linecap="round" stroke-linejoin="round" stroke-width="2"/>
          </a>
          <a xlink:href="https://www.notion.so/dmmnotes/threatening-348fe6a52f7a4fe69f768e98c6586932?pvs=4">
            <path id="C1-2" data-name="C1" d="M485.082519531239086,181.054443359370453l46.223632812510914-29.70751953125c-14.219970703128638-22.08056640625-31.504150390628638-41.980468750010914-51.26708984375-59.122314453120453l-35.972900390628638,41.518554687488177c15.815185546878638,13.71240234375,29.64306640625,29.637695312511823,41.016357421867724,47.311279296882276Z" fill="#8f807d" stroke="#181818" stroke-linecap="round" stroke-linejoin="round" stroke-width="2"/>
          </a>
          <a xlink:href="https://www.notion.so/dmmnotes/complaining-acceptance-8b40401a720c493ba73f7cde1567cf3d?pvs=4">
            <path id="B5-2" data-name="B5" d="M444.066162109371362,133.743164062488177l35.972900390628638-41.518554687488177c-19.687744140621362-17.07470703125-41.81396484375-31.388671875-65.803955078139552-42.36181640625l-22.832519531239086,49.99951171875c19.204345703117724,8.773681640620453,36.910156249989086,20.22216796875,52.66357421875,33.880859374988177Z" fill="#8f807d" stroke="#181818" stroke-linecap="round" stroke-linejoin="round" stroke-width="2"/>
          </a>
          <a xlink:href="https://www.notion.so/dmmnotes/sentimental-bc554363322342b1b7ca4ccc02125049?pvs=4">
            <path id="B4-2" data-name="B4" d="M391.402587890621362,99.8623046875l22.832519531239086-49.99951171875c-23.45556640623181-10.7314453125-48.662109375-18.275146484390461-75.101318359371362-22.042968749990905l-7.825683593739086,54.433349609361358c21.159423828121362,3.0078125,41.327880859371362,9.034179687489086,60.094482421871362,17.609130859379547Z" fill="#8f807d" stroke="#181818" stroke-linecap="round" stroke-linejoin="round" stroke-width="2"/>
          </a>
          <a xlink:href="https://www.notion.so/dmmnotes/comfortably-balanced-e76dc615a8b947aa915377cd02fcf716?pvs=4">
            <path id="B3-2" data-name="B3" d="M299.999999999989086,80c10.634765625,0,21.078857421871362.797607421870453,31.308105468760914,2.253173828120453l7.825683593739086-54.433349609361358c-12.788574218739086-1.823486328138642-25.843017578128638-2.819824218759095-39.1337890625-2.819824218759095-13.290771484360448,0-26.34521484375.996337890620453-39.133789062489086,2.819824218759095l7.825683593739086,54.433349609361358c10.23193359375-1.45556640625,20.67333984375-2.253173828120453,31.30810546875-2.253173828120453Z" fill="#8f807d" stroke="#181818" stroke-linecap="round" stroke-linejoin="round" stroke-width="2"/>
          </a>
          <a xlink:href="https://www.notion.so/dmmnotes/accepting-317d81273fff4cd9817cdf4a88efd378?pvs=4">
            <path id="B2-2" data-name="B2" d="M268.691894531239086,82.253173828120453l-7.825683593739086-54.433349609361358c-26.439208984389552,3.767822265600444-51.643066406260914,11.311523437490905-75.098632812510914,22.042968749990905l22.83251953125,49.99951171875c18.7666015625-8.574951171890461,38.93505859375-14.601318359379547,60.091796875-17.609130859379547Z" fill="#8f807d" stroke="#181818" stroke-linecap="round" stroke-linejoin="round" stroke-width="2"/>
          </a>
          <a xlink:href="https://www.notion.so/dmmnotes/distanced-from-past-2eabab7e9c77429f8e577f4e3e203653?pvs=4">
            <path id="B1-2" data-name="B1" d="M208.600097656239086,99.8623046875l-22.83251953125-49.99951171875c-23.99267578125,10.97314453125-46.1162109375,25.287109375-65.803955078110448,42.36181640625l35.972900390610448,41.515869140620453c15.75341796875-13.658691406260914,33.4619140625-25.1044921875,52.66357421875-33.878173828120453Z" fill="#8f807d" stroke="#181818" stroke-linecap="round" stroke-linejoin="round" stroke-width="2"/>
          </a>
          <a xlink:href="https://www.notion.so/dmmnotes/idealising-a52277f51ed14a42aae78081bb34b8be?pvs=4">
            <path id="A1-2" data-name="A1" d="M155.936523437489086,133.740478515620453l-35.972900390610448-41.515869140620453c-19.765625,17.141845703109539-37.04980468751819,37.041748046870453-51.269775390639552,59.122314453120453l46.226318359371362,29.70751953125c11.373291015639552-17.673583984370453,25.20117187501819-33.598876953132276,41.016357421878638-47.31396484375Z" fill="#8f807d" stroke="#181818" stroke-linecap="round" stroke-linejoin="round" stroke-width="2"/>
          </a>
          <a xlink:href="https://www.notion.so/dmmnotes/distancing-9ac690cdca654729a17a5a255944e2d1?pvs=4">
            <path id="A2-2" data-name="A2" d="M114.920166015610448,181.054443359370453l-46.226318359371362-29.70751953125c-14.04541015625,21.81201171875-25.08837890625,45.721435546867724-32.551513671878638,71.177734374989086l52.75488281251819,15.490234375c5.964599609360448-20.375244140621362,14.7919921875-39.509765624989086,26.02294921873181-56.960449218739086Z" fill="#8f807d" stroke="#181818" stroke-linecap="round" stroke-linejoin="round" stroke-width="2"/>
          </a>
          <a xlink:href="https://www.notion.so/dmmnotes/compulsive-caregiving-9c380c0928294f41ae10764aa0dee886?pvs=4">
            <path id="A3-2" data-name="A3" d="M88.897216796878638,238.014892578109539l-52.75488281251819-15.490234375c-7.205322265621362,24.580810546878638-11.142333984371362,50.5634765625-11.142333984371362,77.475341796890461h55c0-21.535400390629547,3.14208984375-42.321533203129547,8.897216796889552-61.985107421890461Z" fill="#8f807d" stroke="#181818" stroke-linecap="round" stroke-linejoin="round" stroke-width="2"/>
          </a>
          <a xlink:href="https://www.notion.so/dmmnotes/compulsive-compliance-6d08b7ea9a424ce1a72b9184b7850414?pvs=4">
            <path id="A4-2" data-name="A4" d="M79.999999999989086,300H24.999999999989086c0,26.911865234369543,3.93701171875,52.894531249987267,11.142333984371362,77.475341796869543l52.75488281251819-15.490234375c-5.755126953139552-19.66357421875-8.897216796889552-40.447021484371362-8.897216796889552-61.985107421869543Z" fill="#8f807d" stroke="#181818" stroke-linecap="round" stroke-linejoin="round" stroke-width="2"/>
          </a>
          <a xlink:href="https://www.notion.so/dmmnotes/sexual-supplementation-8e85f49046ef412aa229745abf7d38d3?pvs=4">
            <path id="A5-2" data-name="A5" d="M88.897216796878638,361.985107421869543l-52.75488281251819,15.490234375c7.463134765628638,25.456298828128638,18.506103515628638,49.36572265625,32.551513671878638,71.175048828128638l46.223632812510914-29.704833984367724c-11.230957031260914-17.450683593760914-20.055664062510914-36.58251953125-26.020263671871362-56.960449218760914Z" fill="#8f807d" stroke="#181818" stroke-linecap="round" stroke-linejoin="round" stroke-width="2"/>
          </a>
          <a xlink:href="https://www.notion.so/dmmnotes/compulsive-isolated-self-reliance-b321873a73fa41aaaadd7192fde856a2?pvs=4">
            <path id="A6-2" data-name="A6" d="M114.91748046875,418.945556640630457l-46.223632812510914,29.704833984367724c14.219970703121362,22.083251953121362,31.504150390639552,41.983154296871362,51.269775390639552,59.125l35.972900390610448-41.515869140617724c-15.815185546860448-13.712402343760914-29.643066406239086-29.637695312510914-41.019042968739086-47.31396484375Z" fill="#8f807d" stroke="#181818" stroke-linecap="round" stroke-linejoin="round" stroke-width="2"/>
          </a>
          <a xlink:href="https://www.notion.so/dmmnotes/delusional-idealization-743e2420b9994a48a7cab68190432e8a?pvs=4">
            <path id="A7-2" data-name="A7" d="M155.936523437489086,466.259521484380457l-35.972900390610448,41.515869140617724c19.687744140610448,17.074707031239086,41.811279296860448,31.385986328132276,65.803955078110448,42.36181640625l22.83251953125-49.996826171878638c-19.20166015625-8.773681640621362-36.91015625-20.222167968739086-52.66357421875-33.880859374989086Z" fill="#8f807d" stroke="#181818" stroke-linecap="round" stroke-linejoin="round" stroke-width="2"/>
          </a>
          <a xlink:href="https://www.notion.so/dmmnotes/externally-assembled-self-994ecb0895b844409b931d74a045c162?pvs=4">
            <path id="A8-2" data-name="A8" d="M208.600097656239086,500.140380859369543l-22.83251953125,49.996826171878638c23.45556640625,10.7314453125,48.659423828121362,18.275146484371362,75.098632812510914,22.04296875l7.825683593739086-54.4306640625c-21.15673828125-3.0078125-41.3251953125-9.0341796875-60.091796875-17.609130859378638Z" fill="#8f807d" stroke="#181818" stroke-linecap="round" stroke-linejoin="round" stroke-width="2"/>
          </a>
          <a xlink:href="https://www.notion.so/dmmnotes/psychopathy-0fe4a3222d9f4fd097ab4546c9776768?pvs=4">
            <path id="AC-2" data-name="AC" d="M299.999999999989086,519.999999999998181c-10.634765625,0-21.076171875-.794921875-31.30810546875-2.25048828125l-7.825683593739086,54.4306640625c12.788574218739086,1.823486328132276,25.843017578128638,2.81982421875,39.133789062489086,2.81982421875,13.290771484371362,0,26.345214843760914-.996337890617724,39.1337890625-2.81982421875l-7.825683593739086-54.4306640625c-10.229248046889552,1.45556640625-20.673339843760914,2.25048828125-31.308105468760914,2.25048828125Z" fill="#8f807d" stroke="#181818" stroke-linecap="round" stroke-linejoin="round" stroke-width="2"/>
          </a>
          <a xlink:href="https://www.notion.so/dmmnotes/paranoid-ae38b1e6af0c4dd08f61e0d8f6e9f05f?pvs=4">
            <g id="C8-2" data-name="C8">
              <path d="M339.1328125,573.180664062494543c-.4892578125,0-.9169921875-.359375-.9892578125-.857421875l-7.8251953125-54.4306640625c-.037109375-.2626953125.03125-.5302734375.1904296875-.7421875.1591796875-.212890625.396484375-.353515625.6591796875-.390625,20.658203125-2.9365234375,40.7841796875-8.833984375,59.8193359375-17.5283203125.130859375-.060546875.2734375-.0908203125.4150390625-.0908203125.1181640625,0,.236328125.0205078125.349609375.0634765625.248046875.091796875.4501953125.2802734375.5595703125.521484375l22.8330078125,49.9970703125c.2294921875.501953125.0087890625,1.0947265625-.4931640625,1.32421875-23.9736328125,10.96875-49.333984375,18.412109375-75.376953125,22.1240234375-.046875.0068359375-.0947265625.009765625-.1416015625.009765625Z" fill="#cd7969" stroke-width="0"/>
              <path d="M391.40234375,500.140380859369543l22.83251953125,49.996826171875c-23.455078125,10.7314453125-48.662109375,18.275146484375-75.10107421875,22.04296875l-7.82568359375-54.4306640625c21.1591796875-3.0078125,41.32763671875-9.036865234375,60.09423828125-17.609130859375M391.40234375,498.140380859369543c-.2841796875,0-.5673828125.06048583984375-.8310546875.1807861328125-18.94677734375,8.65460205078125-38.98046875,14.5250244140625-59.54443359375,17.4482421875-.52587890625.07470703125-1.00048828125.35546875-1.31884765625.7802734375s-.455078125.9588623046875-.37939453125,1.48443603515625l7.82568359375,54.4306640625c.14306640625.9967041015625.99853515625,1.71563720703125,1.97705078125,1.71563720703125.09375,0,.18896484375-.006591796875.28466796875-.020263671875,26.13671875-3.7247314453125,51.58935546875-11.1953125,75.65087890625-22.20428466796875,1.00390625-.45928955078125,1.44580078125-1.645263671875.9873046875-2.64947509765625l-22.83251953125-49.996826171875c-.22021484375-.4825439453125-.62353515625-.85772705078125-1.12060546875-1.0430908203125-.2255859375-.084228515625-.46240234375-.1260986328125-.69873046875-.1260986328125h0Z" fill="#181818" stroke-width="0"/>
            </g>
          </a>
        </g>
      </g>
      <g id="C8-3" data-name="C8">
        <g id="C8-4" data-name="C8">
          <path d="M300,414.706054687494543c-36.970703125,0-67.048828125-30.078125-67.048828125-67.048828125s30.078125-67.048828125,67.048828125-67.048828125,67.048828125,30.078125,67.048828125,67.048828125-30.078125,67.048828125-67.048828125,67.048828125Z" fill="url(#C8-5)" stroke-width="0"/>
          <path d="M300,289.108428955072668c32.33544921875,0,58.548828125,26.21319580078125,58.548828125,58.548736572265625s-26.21337890625,58.5487060546875-58.548828125,58.5487060546875-58.548828125-26.213165283203125-58.548828125-58.5487060546875,26.21337890625-58.548736572265625,58.548828125-58.548736572265625M300,272.108428955072668c-41.65771484375,0-75.548828125,33.891021728515625-75.548828125,75.548736572265625s33.89111328125,75.5487060546875,75.548828125,75.5487060546875,75.548828125-33.8909912109375,75.548828125-75.5487060546875-33.89111328125-75.548736572265625-75.548828125-75.548736572265625h0Z" fill="#181818" stroke-width="0"/>
        </g>
        <a xlink:href="https://www.notion.so/dmmnotes/C8-ae38b1e6af0c4dd08f61e0d8f6e9f05f?pvs=4#bab770dbe6a349e1908b845ec7c4b293">
          <g>
            <g>
              <path d="M273.154296875,243.247070312494543c.103515625-3.0341796875-.392578125-5.310546875-1.4912109375-6.8291015625-1.0986328125-1.5166015625-2.4873046875-2.4580078125-4.1611328125-2.826171875-1.6748046875-.365234375-3.48046875-.181640625-5.416015625.5498046875-1.9375.7333984375-3.689453125,1.7802734375-5.259765625,3.1396484375-3.6640625,3.1396484375-6.62109375,7.1435546875-8.8701171875,12.0107421875-2.251953125,4.8662109375-3.7685546875,9.96875-4.5537109375,15.3076171875-.7841796875,5.337890625-.837890625,10.6513671875-.15625,15.935546875.6796875,5.2861328125,2.1708984375,9.8662109375,4.474609375,13.7373046875,1.46484375,2.51171875,3.21875,4.37109375,5.259765625,5.5732421875,2.041015625,1.2041015625,4.2109375,1.8837890625,6.515625,2.041015625,2.30078125.1572265625,4.5771484375-.208984375,6.8291015625-1.0986328125,2.2490234375-.888671875,4.2626953125-2.22265625,6.0439453125-4.00390625,2.720703125-2.720703125,4.9189453125-4.65625,6.59375-5.80859375,1.673828125-1.1513671875,3.5576171875-1.779296875,5.65234375-1.884765625,5.966796875,0,9.916015625,1.67578125,11.853515625,5.0244140625,1.935546875,3.3505859375,2.06640625,7.4326171875.392578125,12.24609375-1.361328125,3.767578125-3.4296875,7.064453125-6.201171875,9.890625-2.7744140625,2.826171875-5.9931640625,5.1025390625-9.65625,6.830078125-3.6640625,1.7265625-7.58984375,2.9306640625-11.7744140625,3.6103515625-4.1875.6796875-8.3212890625.8642578125-12.4033203125.5498046875s-7.955078125-1.177734375-11.6171875-2.5908203125c-3.666015625-1.4130859375-6.8056640625-3.3212890625-9.419921875-5.73046875-2.931640625-2.720703125-5.49609375-5.8330078125-7.693359375-9.3408203125-2.1982421875-3.505859375-4.03125-7.22265625-5.4951171875-11.1474609375-1.4677734375-3.9248046875-2.5654296875-8.0068359375-3.296875-12.24609375-.7333984375-4.2392578125-1.0986328125-8.501953125-1.0986328125-12.794921875.2080078125-9.62890625,2.2490234375-18.943359375,6.123046875-27.9462890625,3.87109375-9.0009765625,9-16.8505859375,15.384765625-23.5498046875,2.9296875-3.03515625,6.41015625-5.625,10.44140625-7.771484375,4.02734375-2.14453125,8.1640625-3.533203125,12.40234375-4.1611328125,4.2392578125-.6279296875,8.400390625-.4169921875,12.482421875.6279296875,4.08203125,1.0478515625,7.6923828125,3.24609375,10.83203125,6.5947265625,2.40625,2.51171875,4.341796875,5.3916015625,5.8095703125,8.634765625,1.4638671875,3.2451171875,2.5634765625,6.4912109375,3.296875,9.7333984375.4169921875,2.095703125.6005859375,4.08203125.5498046875,5.966796875-.0546875,1.8837890625-.498046875,3.6650390625-1.3349609375,5.337890625-1.1533203125,2.0947265625-2.9306640625,3.5859375-5.337890625,4.474609375-2.4091796875.890625-4.7880859375,1.1767578125-7.1435546875.86328125-2.35546875-.314453125-4.396484375-1.2294921875-6.123046875-2.748046875-1.7265625-1.515625-2.5390625-3.583984375-2.43359375-6.201171875Z" fill="none" stroke="#181818" stroke-linecap="round" stroke-linejoin="round" stroke-width="33"/>
              <path d="M367.98046875,267.896484374994543c4.708984375,3.4541015625,8.05859375,7.4052734375,10.046875,11.853515625,1.98828125,4.44921875,2.8515625,8.9755859375,2.591796875,13.580078125-.263671875,4.607421875-1.51953125,9.1064453125-3.7685546875,13.501953125-2.251953125,4.396484375-5.2080078125,8.26953125-8.8701171875,11.6181640625-3.666015625,3.3505859375-7.9287109375,5.9931640625-12.7958984375,7.9287109375s-10.0234375,2.7470703125-15.4638671875,2.43359375c-3.560546875-.2109375-7.25-.9423828125-11.0693359375-2.1982421875-3.8212890625-1.255859375-7.3544921875-3.0078125-10.5966796875-5.259765625-3.24609375-2.2490234375-6.0205078125-4.9970703125-8.322265625-8.2421875-2.302734375-3.2431640625-3.767578125-6.908203125-4.3955078125-10.990234375-.6279296875-5.9658203125.3134765625-11.328125,2.826171875-16.0927734375,2.5126953125-4.7607421875,5.9658203125-9.0791015625,10.3623046875-12.9521484375-5.65234375-4.9189453125-9.16015625-10.4130859375-10.51953125-16.4853515625-1.361328125-6.068359375-.99609375-11.8779296875,1.099609375-17.4267578125,1.3583984375-3.662109375,3.2421875-6.7236328125,5.6513671875-9.1845703125,2.4072265625-2.4580078125,5.1025390625-4.474609375,8.0859375-6.0439453125,2.9833984375-1.5703125,6.2255859375-2.748046875,9.7333984375-3.533203125,3.505859375-.7841796875,7.0390625-1.2802734375,10.59765625-1.4912109375,4.08203125-.2080078125,8.13671875.314453125,12.16796875,1.5703125,4.02734375,1.255859375,7.666015625,3.037109375,10.9111328125,5.337890625,3.2431640625,2.3037109375,5.9384765625,5.05078125,8.0849609375,8.2421875,2.14453125,3.1943359375,3.478515625,6.62109375,4.00390625,10.283203125.5234375,3.6650390625.025390625,7.51171875-1.4912109375,11.5400390625-1.5185546875,4.0302734375-4.3720703125,7.982421875-8.556640625,11.853515625-.10546875,0-.1572265625.02734375-.1572265625.078125,0,.0546875-.0537109375.0791015625-.15625.0791015625ZM330.45703125,295.841796874994543c-.8388671875,2.5126953125-.94140625,4.685546875-.314453125,6.515625.62890625,1.8330078125,1.673828125,3.2724609375,3.140625,4.3173828125,1.46484375,1.0478515625,3.2421875,1.67578125,5.337890625,1.884765625,2.091796875.2109375,4.1328125-.0517578125,6.123046875-.78515625,2.720703125-.9423828125,4.7890625-2.4853515625,6.201171875-4.6318359375,1.4130859375-2.1435546875,2.171875-4.4208984375,2.27734375-6.8291015625.1025390625-2.4072265625-.4716796875-4.7890625-1.7275390625-7.1435546875-1.255859375-2.35546875-3.2451171875-4.2119140625-5.9658203125-5.57421875-1.466796875.1064453125-2.958984375.498046875-4.474609375,1.177734375-1.5185546875.6826171875-2.958984375,1.5703125-4.3173828125,2.6689453125-1.3623046875,1.099609375-2.5908203125,2.3818359375-3.6904296875,3.8466796875-1.09765625,1.466796875-1.9619140625,2.9833984375-2.58984375,4.552734375ZM342.232421875,237.594726562494543c-2.51171875,0-4.763671875.83984375-6.751953125,2.5126953125-1.98828125,1.6748046875-3.375,3.6650390625-4.16015625,5.9658203125-.78515625,2.3037109375-.759765625,4.685546875.078125,7.1435546875.8369140625,2.4599609375,2.7724609375,4.5283203125,5.8095703125,6.201171875,1.3583984375-.73046875,2.7998046875-1.4638671875,4.3173828125-2.1982421875,1.515625-.73046875,2.8505859375-1.6728515625,4.00390625-2.8251953125,2.826171875-2.615234375,4.6044921875-4.9970703125,5.337890625-7.1435546875.73046875-2.14453125.7578125-3.9765625.078125-5.4951171875-.681640625-1.5166015625-1.83203125-2.642578125-3.453125-3.3759765625-1.625-.73046875-3.3759765625-.9931640625-5.259765625-.78515625Z" fill="none" stroke="#181818" stroke-linecap="round" stroke-linejoin="round" stroke-width="33"/>
            </g>
            <g>
              <path d="M273.154296875,243.247070312494543c.103515625-3.0341796875-.392578125-5.310546875-1.4912109375-6.8291015625-1.0986328125-1.5166015625-2.4873046875-2.4580078125-4.1611328125-2.826171875-1.6748046875-.365234375-3.48046875-.181640625-5.416015625.5498046875-1.9375.7333984375-3.689453125,1.7802734375-5.259765625,3.1396484375-3.6640625,3.1396484375-6.62109375,7.1435546875-8.8701171875,12.0107421875-2.251953125,4.8662109375-3.7685546875,9.96875-4.5537109375,15.3076171875-.7841796875,5.337890625-.837890625,10.6513671875-.15625,15.935546875.6796875,5.2861328125,2.1708984375,9.8662109375,4.474609375,13.7373046875,1.46484375,2.51171875,3.21875,4.37109375,5.259765625,5.5732421875,2.041015625,1.2041015625,4.2109375,1.8837890625,6.515625,2.041015625,2.30078125.1572265625,4.5771484375-.208984375,6.8291015625-1.0986328125,2.2490234375-.888671875,4.2626953125-2.22265625,6.0439453125-4.00390625,2.720703125-2.720703125,4.9189453125-4.65625,6.59375-5.80859375,1.673828125-1.1513671875,3.5576171875-1.779296875,5.65234375-1.884765625,5.966796875,0,9.916015625,1.67578125,11.853515625,5.0244140625,1.935546875,3.3505859375,2.06640625,7.4326171875.392578125,12.24609375-1.361328125,3.767578125-3.4296875,7.064453125-6.201171875,9.890625-2.7744140625,2.826171875-5.9931640625,5.1025390625-9.65625,6.830078125-3.6640625,1.7265625-7.58984375,2.9306640625-11.7744140625,3.6103515625-4.1875.6796875-8.3212890625.8642578125-12.4033203125.5498046875s-7.955078125-1.177734375-11.6171875-2.5908203125c-3.666015625-1.4130859375-6.8056640625-3.3212890625-9.419921875-5.73046875-2.931640625-2.720703125-5.49609375-5.8330078125-7.693359375-9.3408203125-2.1982421875-3.505859375-4.03125-7.22265625-5.4951171875-11.1474609375-1.4677734375-3.9248046875-2.5654296875-8.0068359375-3.296875-12.24609375-.7333984375-4.2392578125-1.0986328125-8.501953125-1.0986328125-12.794921875.2080078125-9.62890625,2.2490234375-18.943359375,6.123046875-27.9462890625,3.87109375-9.0009765625,9-16.8505859375,15.384765625-23.5498046875,2.9296875-3.03515625,6.41015625-5.625,10.44140625-7.771484375,4.02734375-2.14453125,8.1640625-3.533203125,12.40234375-4.1611328125,4.2392578125-.6279296875,8.400390625-.4169921875,12.482421875.6279296875,4.08203125,1.0478515625,7.6923828125,3.24609375,10.83203125,6.5947265625,2.40625,2.51171875,4.341796875,5.3916015625,5.8095703125,8.634765625,1.4638671875,3.2451171875,2.5634765625,6.4912109375,3.296875,9.7333984375.4169921875,2.095703125.6005859375,4.08203125.5498046875,5.966796875-.0546875,1.8837890625-.498046875,3.6650390625-1.3349609375,5.337890625-1.1533203125,2.0947265625-2.9306640625,3.5859375-5.337890625,4.474609375-2.4091796875.890625-4.7880859375,1.1767578125-7.1435546875.86328125-2.35546875-.314453125-4.396484375-1.2294921875-6.123046875-2.748046875-1.7265625-1.515625-2.5390625-3.583984375-2.43359375-6.201171875Z" fill="#fff" stroke-width="0"/>
              <path d="M367.98046875,267.896484374994543c4.708984375,3.4541015625,8.05859375,7.4052734375,10.046875,11.853515625,1.98828125,4.44921875,2.8515625,8.9755859375,2.591796875,13.580078125-.263671875,4.607421875-1.51953125,9.1064453125-3.7685546875,13.501953125-2.251953125,4.396484375-5.2080078125,8.26953125-8.8701171875,11.6181640625-3.666015625,3.3505859375-7.9287109375,5.9931640625-12.7958984375,7.9287109375s-10.0234375,2.7470703125-15.4638671875,2.43359375c-3.560546875-.2109375-7.25-.9423828125-11.0693359375-2.1982421875-3.8212890625-1.255859375-7.3544921875-3.0078125-10.5966796875-5.259765625-3.24609375-2.2490234375-6.0205078125-4.9970703125-8.322265625-8.2421875-2.302734375-3.2431640625-3.767578125-6.908203125-4.3955078125-10.990234375-.6279296875-5.9658203125.3134765625-11.328125,2.826171875-16.0927734375,2.5126953125-4.7607421875,5.9658203125-9.0791015625,10.3623046875-12.9521484375-5.65234375-4.9189453125-9.16015625-10.4130859375-10.51953125-16.4853515625-1.361328125-6.068359375-.99609375-11.8779296875,1.099609375-17.4267578125,1.3583984375-3.662109375,3.2421875-6.7236328125,5.6513671875-9.1845703125,2.4072265625-2.4580078125,5.1025390625-4.474609375,8.0859375-6.0439453125,2.9833984375-1.5703125,6.2255859375-2.748046875,9.7333984375-3.533203125,3.505859375-.7841796875,7.0390625-1.2802734375,10.59765625-1.4912109375,4.08203125-.2080078125,8.13671875.314453125,12.16796875,1.5703125,4.02734375,1.255859375,7.666015625,3.037109375,10.9111328125,5.337890625,3.2431640625,2.3037109375,5.9384765625,5.05078125,8.0849609375,8.2421875,2.14453125,3.1943359375,3.478515625,6.62109375,4.00390625,10.283203125.5234375,3.6650390625.025390625,7.51171875-1.4912109375,11.5400390625-1.5185546875,4.0302734375-4.3720703125,7.982421875-8.556640625,11.853515625-.10546875,0-.1572265625.02734375-.1572265625.078125,0,.0546875-.0537109375.0791015625-.15625.0791015625ZM330.45703125,295.841796874994543c-.8388671875,2.5126953125-.94140625,4.685546875-.314453125,6.515625.62890625,1.8330078125,1.673828125,3.2724609375,3.140625,4.3173828125,1.46484375,1.0478515625,3.2421875,1.67578125,5.337890625,1.884765625,2.091796875.2109375,4.1328125-.0517578125,6.123046875-.78515625,2.720703125-.9423828125,4.7890625-2.4853515625,6.201171875-4.6318359375,1.4130859375-2.1435546875,2.171875-4.4208984375,2.27734375-6.8291015625.1025390625-2.4072265625-.4716796875-4.7890625-1.7275390625-7.1435546875-1.255859375-2.35546875-3.2451171875-4.2119140625-5.9658203125-5.57421875-1.466796875.1064453125-2.958984375.498046875-4.474609375,1.177734375-1.5185546875.6826171875-2.958984375,1.5703125-4.3173828125,2.6689453125-1.3623046875,1.099609375-2.5908203125,2.3818359375-3.6904296875,3.8466796875-1.09765625,1.466796875-1.9619140625,2.9833984375-2.58984375,4.552734375ZM342.232421875,237.594726562494543c-2.51171875,0-4.763671875.83984375-6.751953125,2.5126953125-1.98828125,1.6748046875-3.375,3.6650390625-4.16015625,5.9658203125-.78515625,2.3037109375-.759765625,4.685546875.078125,7.1435546875.8369140625,2.4599609375,2.7724609375,4.5283203125,5.8095703125,6.201171875,1.3583984375-.73046875,2.7998046875-1.4638671875,4.3173828125-2.1982421875,1.515625-.73046875,2.8505859375-1.6728515625,4.00390625-2.8251953125,2.826171875-2.615234375,4.6044921875-4.9970703125,5.337890625-7.1435546875.73046875-2.14453125.7578125-3.9765625.078125-5.4951171875-.681640625-1.5166015625-1.83203125-2.642578125-3.453125-3.3759765625-1.625-.73046875-3.3759765625-.9931640625-5.259765625-.78515625Z" fill="#fff" stroke-width="0"/>
            </g>
          </g>
        </a>
      </g>
    </g>
  </g>
</svg>