<?xml version="1.0" encoding="UTF-8"?>
<svg id="Layer_1" data-name="Layer 1" xmlns="http://www.w3.org/2000/svg" xmlns:xlink="http://www.w3.org/1999/xlink" viewBox="0 0 600 599.999999999998181">
  <defs>
    <linearGradient id="A3-5" data-name="A3" x1="266.237557107635439" y1="402.053168096123045" x2="336.580046729481467" y2="288.774353640180607" gradientUnits="userSpaceOnUse">
      <stop offset="0" stop-color="#6a70a0"/>
      <stop offset=".467948717948718" stop-color="#7d67a2"/>
      <stop offset="1" stop-color="#8e5ba6"/>
    </linearGradient>
  </defs>
  <g id="pie_with_links_-5" data-name="pie (with links)">
    <g id="pie_with_links_-6" data-name="pie (with links)">
      <g id="Pie">
        <g>
          <a xlink:href="https://www.notion.so/dmmnotes/paranoid-ae38b1e6af0c4dd08f61e0d8f6e9f05f?pvs=4">
            <path id="C8" d="M331.308105468760004,517.749511718748181l7.825683593739996,54.4306640625c26.439208984369543-3.767822265628638,51.645751953139552-11.3115234375,75.101318359369543-22.04296875l-22.832519531239086-49.996826171878638c-18.7666015625,8.572265625-38.93505859375,14.601318359378638-60.094482421870453,17.609130859378638Z" fill="none" stroke="#181818" stroke-linecap="round" stroke-linejoin="round" stroke-width="15"/>
          </a>
          <a xlink:href="https://www.notion.so/dmmnotes/menacing-a5bd7149286344deba45ec15e759e579?pvs=4">
            <path id="C7" d="M391.402587890630457,500.140380859369543l22.832519531239086,49.996826171878638c23.989990234390461-10.975830078117724,46.116210937520009-25.287109375010914,65.803955078140461-42.36181640625l-35.972900390629547-41.515869140617724c-15.753417968760914,13.65869140625-33.459228515630457,25.104492187489086-52.66357421875,33.880859374989086Z" fill="none" stroke="#181818" stroke-linecap="round" stroke-linejoin="round" stroke-width="15"/>
          </a>
          <a xlink:href="https://www.notion.so/dmmnotes/seductively-obsessed-with-rescue-6fb5a68f6d334bc29ccccc16d8a4e56e?pvs=4">
            <path id="C6" d="M444.066162109380457,466.259521484380457l35.972900390629547,41.515869140617724c19.762939453120453-17.141845703128638,37.047119140620453-37.041748046878638,51.26708984375-59.125l-46.223632812510004-29.704833984367724c-11.373291015619543,17.673583984367724-25.201171874989996,33.598876953117724-41.016357421869543,47.31396484375Z" fill="none" stroke="#181818" stroke-linecap="round" stroke-linejoin="round" stroke-width="15"/>
          </a>
          <a xlink:href="https://www.notion.so/dmmnotes/punitively-obsessed-with-revenge-33d2e77f37774316b42bccf4a60f9688?pvs=4">
            <path id="C5" d="M485.08251953125,418.945556640630457l46.223632812510004,29.704833984367724c14.048095703129547-21.809326171878638,25.08837890625-45.71875,32.551513671870453-71.175048828128638l-52.7548828125-15.490234375c-5.9619140625,20.377929687510914-14.789306640620453,39.509765625-26.020263671880457,56.960449218760914Z" fill="none" stroke="#181818" stroke-linecap="round" stroke-linejoin="round" stroke-width="15"/>
          </a>
          <a xlink:href="https://www.notion.so/dmmnotes/feigned-helpless-e79a94b0498c4e109a681b7f3dcdb088?pvs=4">
            <path id="C4" d="M520,300c0,21.538085937498181-3.142089843739996,42.321533203119543-8.897216796869543,61.985107421869543l52.7548828125,15.490234375c7.2080078125-24.583496093739086,11.142333984369543-50.5634765625,11.142333984369543-77.475341796869543h-55Z" fill="none" stroke="#181818" stroke-linecap="round" stroke-linejoin="round" stroke-width="15"/>
          </a>
          <a xlink:href="https://www.notion.so/dmmnotes/aggressive-2d8ccce383534b9dbfc7b4b10b8a5d5c?pvs=4">
            <path id="C3" d="M520,300h55c0-26.911865234390461-3.934326171869543-52.894531250011823-11.142333984369543-77.475341796890461l-52.7548828125,15.490234375c5.755126953129547,19.663574218760914,8.897216796869543,40.449707031260914,8.897216796869543,61.985107421890461Z" fill="none" stroke="#181818" stroke-linecap="round" stroke-linejoin="round" stroke-width="15"/>
          </a>
          <a xlink:href="https://www.notion.so/dmmnotes/disarming-086276e599884c86b9359acf831a8b20?pvs=4">
            <path id="C2" d="M511.102783203130457,238.014892578109539l52.7548828125-15.490234375c-7.463134765620453-25.456298828121362-18.503417968740905-49.365722656239086-32.551513671870453-71.177734374989086l-46.223632812510004,29.70751953125c11.230957031260004,17.45068359375,20.055664062510004,36.585205078117724,26.020263671880457,56.960449218739086Z" fill="none" stroke="#181818" stroke-linecap="round" stroke-linejoin="round" stroke-width="15"/>
          </a>
          <a xlink:href="https://www.notion.so/dmmnotes/threatening-348fe6a52f7a4fe69f768e98c6586932?pvs=4">
            <path id="C1" d="M485.08251953125,181.054443359370453l46.223632812510004-29.70751953125c-14.219970703129547-22.08056640625-31.504150390629547-41.980468750010914-51.26708984375-59.122314453120453l-35.972900390629547,41.518554687488177c15.815185546879547,13.71240234375,29.64306640625,29.637695312511823,41.016357421869543,47.311279296882276Z" fill="none" stroke="#181818" stroke-linecap="round" stroke-linejoin="round" stroke-width="15"/>
          </a>
          <a xlink:href="https://www.notion.so/dmmnotes/complaining-acceptance-8b40401a720c493ba73f7cde1567cf3d?pvs=4">
            <path id="B5" d="M444.066162109380457,133.743164062488177l35.972900390629547-41.518554687488177c-19.687744140620453-17.07470703125-41.81396484375-31.388671875-65.803955078140461-42.36181640625l-22.832519531239086,49.99951171875c19.204345703119543,8.773681640620453,36.910156249989086,20.22216796875,52.66357421875,33.880859374988177Z" fill="none" stroke="#181818" stroke-linecap="round" stroke-linejoin="round" stroke-width="15"/>
          </a>
          <a xlink:href="https://www.notion.so/dmmnotes/sentimental-bc554363322342b1b7ca4ccc02125049?pvs=4">
            <path id="B4" d="M391.402587890630457,99.8623046875l22.832519531239086-49.99951171875c-23.455566406229991-10.7314453125-48.662109375-18.275146484390461-75.101318359369543-22.042968749990905l-7.825683593739996,54.433349609361358c21.159423828120453,3.0078125,41.327880859370453,9.034179687489086,60.094482421870453,17.609130859379547Z" fill="none" stroke="#181818" stroke-linecap="round" stroke-linejoin="round" stroke-width="15"/>
          </a>
          <a xlink:href="https://www.notion.so/dmmnotes/comfortably-balanced-e76dc615a8b947aa915377cd02fcf716?pvs=4">
            <path id="B3" d="M300,80c10.634765625,0,21.078857421869543.797607421870453,31.308105468760004,2.253173828120453l7.825683593739996-54.433349609361358c-12.788574218739996-1.823486328138642-25.843017578130457-2.819824218759095-39.1337890625-2.819824218759095s-26.34521484375.996337890620453-39.133789062489996,2.819824218759095l7.825683593739996,54.433349609361358c10.23193359375-1.45556640625,20.67333984375-2.253173828120453,31.30810546875-2.253173828120453Z" fill="none" stroke="#181818" stroke-linecap="round" stroke-linejoin="round" stroke-width="15"/>
          </a>
          <a xlink:href="https://www.notion.so/dmmnotes/accepting-317d81273fff4cd9817cdf4a88efd378?pvs=4">
            <path id="B2" d="M268.69189453125,82.253173828120453l-7.825683593739996-54.433349609361358c-26.439208984390461,3.767822265600444-51.643066406260004,11.311523437490905-75.098632812510004,22.042968749990905l22.83251953125,49.99951171875c18.7666015625-8.574951171890461,38.93505859375-14.601318359379547,60.091796875-17.609130859379547Z" fill="none" stroke="#181818" stroke-linecap="round" stroke-linejoin="round" stroke-width="15"/>
          </a>
          <a xlink:href="https://www.notion.so/dmmnotes/distanced-from-past-2eabab7e9c77429f8e577f4e3e203653?pvs=4">
            <path id="B1" d="M208.60009765625,99.8623046875l-22.83251953125-49.99951171875c-23.99267578125,10.97314453125-46.1162109375,25.287109375-65.803955078119543,42.36181640625l35.972900390619543,41.515869140620453c15.75341796875-13.658691406260914,33.4619140625-25.1044921875,52.66357421875-33.878173828120453Z" fill="none" stroke="#181818" stroke-linecap="round" stroke-linejoin="round" stroke-width="15"/>
          </a>
          <a xlink:href="https://www.notion.so/dmmnotes/idealising-a52277f51ed14a42aae78081bb34b8be?pvs=4">
            <path id="A1" d="M155.9365234375,133.740478515620453l-35.972900390619543-41.515869140620453c-19.765625,17.141845703109539-37.049804687510914,37.041748046870453-51.269775390630457,59.122314453120453l46.226318359369543,29.70751953125c11.373291015640461-17.673583984370453,25.201171875010914-33.598876953132276,41.016357421880457-47.31396484375Z" fill="none" stroke="#181818" stroke-linecap="round" stroke-linejoin="round" stroke-width="15"/>
          </a>
          <a xlink:href="https://www.notion.so/dmmnotes/distancing-9ac690cdca654729a17a5a255944e2d1?pvs=4">
            <path id="A2" d="M114.920166015619543,181.054443359370453l-46.226318359369543-29.70751953125c-14.04541015625,21.81201171875-25.08837890625,45.721435546867724-32.551513671880457,71.177734374989086l52.754882812510914,15.490234375c5.964599609369543-20.375244140621362,14.7919921875-39.509765624989086,26.022949218739086-56.960449218739086Z" fill="none" stroke="#181818" stroke-linecap="round" stroke-linejoin="round" stroke-width="15"/>
          </a>
          <a xlink:href="https://www.notion.so/dmmnotes/compulsive-caregiving-9c380c0928294f41ae10764aa0dee886?pvs=4">
            <g id="A3">
              <path d="M25,300.999999999994543c-.55224609375,0-1-.44775390625-1-1,0-26.28076171875,3.76220703125-52.44189453125,11.1826171875-77.7568359375.07470703125-.25439453125.2470703125-.46923828125.47998046875-.59619140625.1484375-.0810546875.3134765625-.12255859375.4794921875-.12255859375.0947265625,0,.189453125.01318359375.28173828125.04052734375l52.75537109375,15.490234375c.52978515625.1552734375.8330078125.71044921875.67822265625,1.240234375-5.87744140625,20.08056640625-8.857421875,40.8408203125-8.857421875,61.70458984375,0,.55224609375-.44775390625,1-1,1H25Z" fill="none" stroke="#181818" stroke-linecap="round" stroke-linejoin="round" stroke-width="15"/>
              <path d="M36.142333984375,222.524658203119543l52.7548828125,15.490234375c-5.755126953125,19.66357421875-8.897216796875,40.44970703125-8.897216796875,61.985107421875H25c0-26.911865234375,3.93701171875-52.89453125,11.142333984375-77.475341796875M36.142333984375,220.524658203119543c-.33203125,0-.662109375.082733154296875-.958984375.244842529296875-.465576171875.254425048828125-.81103515625.68341064453125-.960205078125,1.19256591796875-7.447265625,25.4056396484375-11.22314453125,51.661376953125-11.22314453125,78.037933349609375,0,1.104583740234375.8955078125,2,2,2h55c1.1044921875,0,2-.895416259765625,2-2,0-20.7686767578125,2.96630859375-41.434478759765625,8.816650390625-61.42333984375.31005859375-1.059417724609375-.296875-2.169769287109375-1.35595703125-2.48077392578125l-52.7548828125-15.490203857421875c-.1845703125-.054229736328125-.37451171875-.081024169921875-.5634765625-.081024169921875h0Z" fill="none" stroke="#181818" stroke-linecap="round" stroke-linejoin="round" stroke-width="15"/>
            </g>
          </a>
          <a xlink:href="https://www.notion.so/dmmnotes/compulsive-compliance-6d08b7ea9a424ce1a72b9184b7850414?pvs=4">
            <path id="A4" d="M80,300H25c0,26.911865234369543,3.93701171875,52.894531249987267,11.142333984369543,77.475341796869543l52.754882812510914-15.490234375c-5.755126953130457-19.66357421875-8.897216796880457-40.447021484371362-8.897216796880457-61.985107421869543Z" fill="none" stroke="#181818" stroke-linecap="round" stroke-linejoin="round" stroke-width="15"/>
          </a>
          <a xlink:href="https://www.notion.so/dmmnotes/sexual-supplementation-8e85f49046ef412aa229745abf7d38d3?pvs=4">
            <path id="A5" d="M88.897216796880457,361.985107421869543l-52.754882812510914,15.490234375c7.463134765630457,25.456298828128638,18.506103515630457,49.36572265625,32.551513671880457,71.175048828128638l46.223632812510004-29.704833984367724c-11.230957031260004-17.450683593760914-20.055664062510004-36.58251953125-26.020263671879547-56.960449218760914Z" fill="none" stroke="#181818" stroke-linecap="round" stroke-linejoin="round" stroke-width="15"/>
          </a>
          <a xlink:href="https://www.notion.so/dmmnotes/compulsive-isolated-self-reliance-b321873a73fa41aaaadd7192fde856a2?pvs=4">
            <path id="A6" d="M114.917480468760004,418.945556640630457l-46.223632812510004,29.704833984367724c14.219970703119543,22.083251953121362,31.504150390630457,41.983154296871362,51.269775390630457,59.125l35.972900390619543-41.515869140617724c-15.815185546869543-13.712402343760914-29.643066406239996-29.637695312510914-41.019042968739996-47.31396484375Z" fill="none" stroke="#181818" stroke-linecap="round" stroke-linejoin="round" stroke-width="15"/>
          </a>
          <a xlink:href="https://www.notion.so/dmmnotes/delusional-idealization-743e2420b9994a48a7cab68190432e8a?pvs=4">
            <path id="A7" d="M155.9365234375,466.259521484380457l-35.972900390619543,41.515869140617724c19.687744140619543,17.074707031239086,41.811279296869543,31.385986328132276,65.803955078119543,42.36181640625l22.83251953125-49.996826171878638c-19.20166015625-8.773681640621362-36.91015625-20.222167968739086-52.66357421875-33.880859374989086Z" fill="none" stroke="#181818" stroke-linecap="round" stroke-linejoin="round" stroke-width="15"/>
          </a>
          <a xlink:href="https://www.notion.so/dmmnotes/externally-assembled-self-994ecb0895b844409b931d74a045c162?pvs=4">
            <path id="A8" d="M208.60009765625,500.140380859369543l-22.83251953125,49.996826171878638c23.45556640625,10.7314453125,48.659423828119543,18.275146484371362,75.098632812510004,22.04296875l7.825683593739996-54.4306640625c-21.15673828125-3.0078125-41.3251953125-9.0341796875-60.091796875-17.609130859378638Z" fill="none" stroke="#181818" stroke-linecap="round" stroke-linejoin="round" stroke-width="15"/>
          </a>
          <a xlink:href="https://www.notion.so/dmmnotes/psychopathy-0fe4a3222d9f4fd097ab4546c9776768?pvs=4">
            <path id="AC" d="M300,519.999999999998181c-10.634765625,0-21.076171875-.794921875-31.30810546875-2.25048828125l-7.825683593739996,54.4306640625c12.788574218739996,1.823486328132276,25.843017578120453,2.81982421875,39.133789062489996,2.81982421875s26.345214843760004-.996337890617724,39.1337890625-2.81982421875l-7.825683593739996-54.4306640625c-10.229248046890461,1.45556640625-20.673339843760004,2.25048828125-31.308105468760004,2.25048828125Z" fill="none" stroke="#181818" stroke-linecap="round" stroke-linejoin="round" stroke-width="15"/>
          </a>
        </g>
        <g>
          <a xlink:href="https://www.notion.so/dmmnotes/paranoid-ae38b1e6af0c4dd08f61e0d8f6e9f05f?pvs=4">
            <path id="C8-2" data-name="C8" d="M331.308105468760004,517.749511718748181l7.825683593739996,54.4306640625c26.439208984369543-3.767822265628638,51.645751953139552-11.3115234375,75.101318359369543-22.04296875l-22.832519531239086-49.996826171878638c-18.7666015625,8.572265625-38.93505859375,14.601318359378638-60.094482421870453,17.609130859378638Z" fill="#8f807d" stroke="#181818" stroke-linecap="round" stroke-linejoin="round" stroke-width="2"/>
          </a>
          <a xlink:href="https://www.notion.so/dmmnotes/menacing-a5bd7149286344deba45ec15e759e579?pvs=4">
            <path id="C7-2" data-name="C7" d="M391.402587890630457,500.140380859369543l22.832519531239086,49.996826171878638c23.989990234390461-10.975830078117724,46.116210937520009-25.287109375010914,65.803955078140461-42.36181640625l-35.972900390629547-41.515869140617724c-15.753417968760914,13.65869140625-33.459228515630457,25.104492187489086-52.66357421875,33.880859374989086Z" fill="#8f807d" stroke="#181818" stroke-linecap="round" stroke-linejoin="round" stroke-width="2"/>
          </a>
          <a xlink:href="https://www.notion.so/dmmnotes/seductively-obsessed-with-rescue-6fb5a68f6d334bc29ccccc16d8a4e56e?pvs=4">
            <path id="C6-2" data-name="C6" d="M444.066162109380457,466.259521484380457l35.972900390629547,41.515869140617724c19.762939453120453-17.141845703128638,37.047119140620453-37.041748046878638,51.26708984375-59.125l-46.223632812510004-29.704833984367724c-11.373291015619543,17.673583984367724-25.201171874989996,33.598876953117724-41.016357421869543,47.31396484375Z" fill="#8f807d" stroke="#181818" stroke-linecap="round" stroke-linejoin="round" stroke-width="2"/>
          </a>
          <a xlink:href="https://www.notion.so/dmmnotes/punitively-obsessed-with-revenge-33d2e77f37774316b42bccf4a60f9688?pvs=4">
            <path id="C5-2" data-name="C5" d="M485.08251953125,418.945556640630457l46.223632812510004,29.704833984367724c14.048095703129547-21.809326171878638,25.08837890625-45.71875,32.551513671870453-71.175048828128638l-52.7548828125-15.490234375c-5.9619140625,20.377929687510914-14.789306640620453,39.509765625-26.020263671880457,56.960449218760914Z" fill="#8f807d" stroke="#181818" stroke-linecap="round" stroke-linejoin="round" stroke-width="2"/>
          </a>
          <a xlink:href="https://www.notion.so/dmmnotes/feigned-helpless-e79a94b0498c4e109a681b7f3dcdb088?pvs=4">
            <path id="C4-2" data-name="C4" d="M520,300c0,21.538085937498181-3.142089843739996,42.321533203119543-8.897216796869543,61.985107421869543l52.7548828125,15.490234375c7.2080078125-24.583496093739086,11.142333984369543-50.5634765625,11.142333984369543-77.475341796869543h-55Z" fill="#8f807d" stroke="#181818" stroke-linecap="round" stroke-linejoin="round" stroke-width="2"/>
          </a>
          <a xlink:href="https://www.notion.so/dmmnotes/aggressive-2d8ccce383534b9dbfc7b4b10b8a5d5c?pvs=4">
            <path id="C3-2" data-name="C3" d="M520,300h55c0-26.911865234390461-3.934326171869543-52.894531250011823-11.142333984369543-77.475341796890461l-52.7548828125,15.490234375c5.755126953129547,19.663574218760914,8.897216796869543,40.449707031260914,8.897216796869543,61.985107421890461Z" fill="#8f807d" stroke="#181818" stroke-linecap="round" stroke-linejoin="round" stroke-width="2"/>
          </a>
          <a xlink:href="https://www.notion.so/dmmnotes/disarming-086276e599884c86b9359acf831a8b20?pvs=4">
            <path id="C2-2" data-name="C2" d="M511.102783203130457,238.014892578109539l52.7548828125-15.490234375c-7.463134765620453-25.456298828121362-18.503417968740905-49.365722656239086-32.551513671870453-71.177734374989086l-46.223632812510004,29.70751953125c11.230957031260004,17.45068359375,20.055664062510004,36.585205078117724,26.020263671880457,56.960449218739086Z" fill="#8f807d" stroke="#181818" stroke-linecap="round" stroke-linejoin="round" stroke-width="2"/>
          </a>
          <a xlink:href="https://www.notion.so/dmmnotes/threatening-348fe6a52f7a4fe69f768e98c6586932?pvs=4">
            <path id="C1-2" data-name="C1" d="M485.08251953125,181.054443359370453l46.223632812510004-29.70751953125c-14.219970703129547-22.08056640625-31.504150390629547-41.980468750010914-51.26708984375-59.122314453120453l-35.972900390629547,41.518554687488177c15.815185546879547,13.71240234375,29.64306640625,29.637695312511823,41.016357421869543,47.311279296882276Z" fill="#8f807d" stroke="#181818" stroke-linecap="round" stroke-linejoin="round" stroke-width="2"/>
          </a>
          <a xlink:href="https://www.notion.so/dmmnotes/complaining-acceptance-8b40401a720c493ba73f7cde1567cf3d?pvs=4">
            <path id="B5-2" data-name="B5" d="M444.066162109380457,133.743164062488177l35.972900390629547-41.518554687488177c-19.687744140620453-17.07470703125-41.81396484375-31.388671875-65.803955078140461-42.36181640625l-22.832519531239086,49.99951171875c19.204345703119543,8.773681640620453,36.910156249989086,20.22216796875,52.66357421875,33.880859374988177Z" fill="#8f807d" stroke="#181818" stroke-linecap="round" stroke-linejoin="round" stroke-width="2"/>
          </a>
          <a xlink:href="https://www.notion.so/dmmnotes/sentimental-bc554363322342b1b7ca4ccc02125049?pvs=4">
            <path id="B4-2" data-name="B4" d="M391.402587890630457,99.8623046875l22.832519531239086-49.99951171875c-23.455566406229991-10.7314453125-48.662109375-18.275146484390461-75.101318359369543-22.042968749990905l-7.825683593739996,54.433349609361358c21.159423828120453,3.0078125,41.327880859370453,9.034179687489086,60.094482421870453,17.609130859379547Z" fill="#8f807d" stroke="#181818" stroke-linecap="round" stroke-linejoin="round" stroke-width="2"/>
          </a>
          <a xlink:href="https://www.notion.so/dmmnotes/comfortably-balanced-e76dc615a8b947aa915377cd02fcf716?pvs=4">
            <path id="B3-2" data-name="B3" d="M300,80c10.634765625,0,21.078857421869543.797607421870453,31.308105468760004,2.253173828120453l7.825683593739996-54.433349609361358c-12.788574218739996-1.823486328138642-25.843017578130457-2.819824218759095-39.1337890625-2.819824218759095s-26.34521484375.996337890620453-39.133789062489996,2.819824218759095l7.825683593739996,54.433349609361358c10.23193359375-1.45556640625,20.67333984375-2.253173828120453,31.30810546875-2.253173828120453Z" fill="#8f807d" stroke="#181818" stroke-linecap="round" stroke-linejoin="round" stroke-width="2"/>
          </a>
          <a xlink:href="https://www.notion.so/dmmnotes/accepting-317d81273fff4cd9817cdf4a88efd378?pvs=4">
            <path id="B2-2" data-name="B2" d="M268.69189453125,82.253173828120453l-7.825683593739996-54.433349609361358c-26.439208984390461,3.767822265600444-51.643066406260004,11.311523437490905-75.098632812510004,22.042968749990905l22.83251953125,49.99951171875c18.7666015625-8.574951171890461,38.93505859375-14.601318359379547,60.091796875-17.609130859379547Z" fill="#8f807d" stroke="#181818" stroke-linecap="round" stroke-linejoin="round" stroke-width="2"/>
          </a>
          <a xlink:href="https://www.notion.so/dmmnotes/distanced-from-past-2eabab7e9c77429f8e577f4e3e203653?pvs=4">
            <path id="B1-2" data-name="B1" d="M208.60009765625,99.8623046875l-22.83251953125-49.99951171875c-23.99267578125,10.97314453125-46.1162109375,25.287109375-65.803955078119543,42.36181640625l35.972900390619543,41.515869140620453c15.75341796875-13.658691406260914,33.4619140625-25.1044921875,52.66357421875-33.878173828120453Z" fill="#8f807d" stroke="#181818" stroke-linecap="round" stroke-linejoin="round" stroke-width="2"/>
          </a>
          <a xlink:href="https://www.notion.so/dmmnotes/idealising-a52277f51ed14a42aae78081bb34b8be?pvs=4">
            <path id="A1-2" data-name="A1" d="M155.9365234375,133.740478515620453l-35.972900390619543-41.515869140620453c-19.765625,17.141845703109539-37.049804687510914,37.041748046870453-51.269775390630457,59.122314453120453l46.226318359369543,29.70751953125c11.373291015640461-17.673583984370453,25.201171875010914-33.598876953132276,41.016357421880457-47.31396484375Z" fill="#8f807d" stroke="#181818" stroke-linecap="round" stroke-linejoin="round" stroke-width="2"/>
          </a>
          <a xlink:href="https://www.notion.so/dmmnotes/distancing-9ac690cdca654729a17a5a255944e2d1?pvs=4">
            <path id="A2-2" data-name="A2" d="M114.920166015619543,181.054443359370453l-46.226318359369543-29.70751953125c-14.04541015625,21.81201171875-25.08837890625,45.721435546867724-32.551513671880457,71.177734374989086l52.754882812510914,15.490234375c5.964599609369543-20.375244140621362,14.7919921875-39.509765624989086,26.022949218739086-56.960449218739086Z" fill="#8f807d" stroke="#181818" stroke-linecap="round" stroke-linejoin="round" stroke-width="2"/>
          </a>
          <a xlink:href="https://www.notion.so/dmmnotes/compulsive-caregiving-9c380c0928294f41ae10764aa0dee886?pvs=4">
            <g id="A3-2" data-name="A3">
              <path d="M25,300.999999999994543c-.55224609375,0-1-.44775390625-1-1,0-26.28076171875,3.76220703125-52.44189453125,11.1826171875-77.7568359375.07470703125-.25439453125.2470703125-.46923828125.47998046875-.59619140625.1484375-.0810546875.3134765625-.12255859375.4794921875-.12255859375.0947265625,0,.189453125.01318359375.28173828125.04052734375l52.75537109375,15.490234375c.52978515625.1552734375.8330078125.71044921875.67822265625,1.240234375-5.87744140625,20.08056640625-8.857421875,40.8408203125-8.857421875,61.70458984375,0,.55224609375-.44775390625,1-1,1H25Z" fill="#866c99" stroke-width="0"/>
              <path d="M36.142333984375,222.524658203119543l52.7548828125,15.490234375c-5.755126953125,19.66357421875-8.897216796875,40.44970703125-8.897216796875,61.985107421875H25c0-26.911865234375,3.93701171875-52.89453125,11.142333984375-77.475341796875M36.142333984375,220.524658203119543c-.33203125,0-.662109375.082733154296875-.958984375.244842529296875-.465576171875.254425048828125-.81103515625.68341064453125-.960205078125,1.19256591796875-7.447265625,25.4056396484375-11.22314453125,51.661376953125-11.22314453125,78.037933349609375,0,1.104583740234375.8955078125,2,2,2h55c1.1044921875,0,2-.895416259765625,2-2,0-20.7686767578125,2.96630859375-41.434478759765625,8.816650390625-61.42333984375.31005859375-1.059417724609375-.296875-2.169769287109375-1.35595703125-2.48077392578125l-52.7548828125-15.490203857421875c-.1845703125-.054229736328125-.37451171875-.081024169921875-.5634765625-.081024169921875h0Z" fill="#181818" stroke-width="0"/>
            </g>
          </a>
          <a xlink:href="https://www.notion.so/dmmnotes/compulsive-compliance-6d08b7ea9a424ce1a72b9184b7850414?pvs=4">
            <path id="A4-2" data-name="A4" d="M80,300H25c0,26.911865234369543,3.93701171875,52.894531249987267,11.142333984369543,77.475341796869543l52.754882812510914-15.490234375c-5.755126953130457-19.66357421875-8.897216796880457-40.447021484371362-8.897216796880457-61.985107421869543Z" fill="#8f807d" stroke="#181818" stroke-linecap="round" stroke-linejoin="round" stroke-width="2"/>
          </a>
          <a xlink:href="https://www.notion.so/dmmnotes/sexual-supplementation-8e85f49046ef412aa229745abf7d38d3?pvs=4">
            <path id="A5-2" data-name="A5" d="M88.897216796880457,361.985107421869543l-52.754882812510914,15.490234375c7.463134765630457,25.456298828128638,18.506103515630457,49.36572265625,32.551513671880457,71.175048828128638l46.223632812510004-29.704833984367724c-11.230957031260004-17.450683593760914-20.055664062510004-36.58251953125-26.020263671879547-56.960449218760914Z" fill="#8f807d" stroke="#181818" stroke-linecap="round" stroke-linejoin="round" stroke-width="2"/>
          </a>
          <a xlink:href="https://www.notion.so/dmmnotes/compulsive-isolated-self-reliance-b321873a73fa41aaaadd7192fde856a2?pvs=4">
            <path id="A6-2" data-name="A6" d="M114.917480468760004,418.945556640630457l-46.223632812510004,29.704833984367724c14.219970703119543,22.083251953121362,31.504150390630457,41.983154296871362,51.269775390630457,59.125l35.972900390619543-41.515869140617724c-15.815185546869543-13.712402343760914-29.643066406239996-29.637695312510914-41.019042968739996-47.31396484375Z" fill="#8f807d" stroke="#181818" stroke-linecap="round" stroke-linejoin="round" stroke-width="2"/>
          </a>
          <a xlink:href="https://www.notion.so/dmmnotes/delusional-idealization-743e2420b9994a48a7cab68190432e8a?pvs=4">
            <path id="A7-2" data-name="A7" d="M155.9365234375,466.259521484380457l-35.972900390619543,41.515869140617724c19.687744140619543,17.074707031239086,41.811279296869543,31.385986328132276,65.803955078119543,42.36181640625l22.83251953125-49.996826171878638c-19.20166015625-8.773681640621362-36.91015625-20.222167968739086-52.66357421875-33.880859374989086Z" fill="#8f807d" stroke="#181818" stroke-linecap="round" stroke-linejoin="round" stroke-width="2"/>
          </a>
          <a xlink:href="https://www.notion.so/dmmnotes/externally-assembled-self-994ecb0895b844409b931d74a045c162?pvs=4">
            <path id="A8-2" data-name="A8" d="M208.60009765625,500.140380859369543l-22.83251953125,49.996826171878638c23.45556640625,10.7314453125,48.659423828119543,18.275146484371362,75.098632812510004,22.04296875l7.825683593739996-54.4306640625c-21.15673828125-3.0078125-41.3251953125-9.0341796875-60.091796875-17.609130859378638Z" fill="#8f807d" stroke="#181818" stroke-linecap="round" stroke-linejoin="round" stroke-width="2"/>
          </a>
          <a xlink:href="https://www.notion.so/dmmnotes/psychopathy-0fe4a3222d9f4fd097ab4546c9776768?pvs=4">
            <path id="AC-2" data-name="AC" d="M300,519.999999999998181c-10.634765625,0-21.076171875-.794921875-31.30810546875-2.25048828125l-7.825683593739996,54.4306640625c12.788574218739996,1.823486328132276,25.843017578120453,2.81982421875,39.133789062489996,2.81982421875s26.345214843760004-.996337890617724,39.1337890625-2.81982421875l-7.825683593739996-54.4306640625c-10.229248046890461,1.45556640625-20.673339843760004,2.25048828125-31.308105468760004,2.25048828125Z" fill="#8f807d" stroke="#181818" stroke-linecap="round" stroke-linejoin="round" stroke-width="2"/>
          </a>
        </g>
      </g>
      <a xlink:href="https://www.notion.so/dmmnotes/A3-9c380c0928294f41ae10764aa0dee886?pvs=4#24262cc5be5c45f6b184ccddfa18723e">
        <g id="A3-3" data-name="A3">
          <g id="A3-4" data-name="A3">
            <path d="M299.98828125,414.713867187494543c-29.12744140625,0-54.74853515625-18.6240234375-63.75537109375-46.3447265625-11.42431640625-35.1611328125,7.88671875-73.0615234375,43.04736328125-84.48681640625,6.734375-2.18798828125,13.708984375-3.29736328125,20.7314453125-3.29736328125,29.126953125,0,54.74853515625,18.62451171875,63.75537109375,46.3447265625,5.5341796875,17.033203125,4.1044921875,35.2021484375-4.0263671875,51.1591796875-8.130859375,15.9580078125-21.9892578125,27.7939453125-39.02197265625,33.328125-6.73388671875,2.1875-13.70849609375,3.296875-20.73046875,3.296875Z" fill="url(#A3-5)" stroke-width="0"/>
            <path d="M300.01171875,289.085052490228918c24.680908203125-.000823974609375,47.6318359375,15.729217529296875,55.67138671875,40.471923828125,9.9921875,30.75299072265625-6.837646484375,63.783477783203125-37.590576171875,73.775726318359375-6.01025390625,1.95281982421875-12.109130859375,2.88140869140625-18.1044921875,2.88140869140625-24.680908203125,0-47.6318359375-15.729248046875-55.67138671875-40.471954345703125-9.9921875-30.75299072265625,6.837646484375-63.783538818359375,37.590576171875-73.77569580078125,6.01025390625-1.952850341796875,12.109375-2.8812255859375,18.1044921875-2.88140869140625M300.013916015625,272.085052490228918h-.002685546875c-7.915771484375.000213623046875-15.7744140625,1.2496337890625-23.357177734375,3.713470458984375-39.618896484375,12.872802734375-61.378173828125,55.577972412109375-48.50537109375,95.196868896484375,5.029052734375,15.477935791015625,14.6689453125,28.649627685546875,27.877197265625,38.091156005859375,12.929443359375,9.2423095703125,28.13134765625,14.1275634765625,43.962158203125,14.1275634765625,7.91552734375,0,15.774169921875-1.24945068359375,23.357666015625-3.7135009765625,39.618896484375-12.87286376953125,61.378173828125-55.578033447265625,48.50537109375-95.196868896484375-5.029052734375-15.47723388671875-14.66845703125-28.648590087890625-27.876220703125-38.090423583984375-12.928955078125-9.24224853515625-28.132080078125-14.127685546875-43.9609375-14.128265380859375h0Z" fill="#181818" stroke-width="0"/>
          </g>
          <a xlink:href="https://www.notion.so/dmmnotes/A3-9c380c0928294f41ae10764aa0dee886?pvs=4#24262cc5be5c45f6b184ccddfa18723e">
            <g>
              <g>
                <path d="M281.23974609375,213.095214843744543c3.9765625,2.302734375,7.37890625,5.12890625,10.205078125,8.4775390625,2.82568359375,3.3515625,5.20556640625,7.013671875,7.1435546875,10.990234375,1.935546875,3.978515625,3.478515625,8.1904296875,4.63134765625,12.638671875,1.150390625,4.44921875,2.041015625,8.923828125,2.6689453125,13.4228515625,1.46435546875,8.8974609375,2.30126953125,17.8984375,2.51220703125,27.00390625.20849609375,9.1064453125.05126953125,18.26708984375-.47119140625,27.47607421875-.2109375,2.6171875-.41943359375,4.763671875-.6279296875,6.4365234375-.2109375,1.67578125-.603515625,3.037109375-1.177734375,4.08203125-.576171875,1.0478515625-1.38818359375,1.884765625-2.43310546875,2.5126953125-1.0478515625.6279296875-2.51220703125,1.2021484375-4.39599609375,1.7265625-1.78125.208984375-3.63818359375.365234375-5.57373046875.470703125-1.93798828125.103515625-3.74365234375-.4189453125-5.41650390625-1.5693359375-1.56982421875-1.044921875-2.8798828125-2.826171875-3.9248046875-5.337890625-1.0478515625-2.5126953125-1.6240234375-6.123046875-1.72705078125-10.8330078125v-1.5703125c-2.61767578125-.314453125-5.73046875-.57421875-9.341796875-.78515625-3.61083984375-.2080078125-7.30029296875-.3388671875-11.068359375-.392578125-3.76806640625-.0517578125-7.40576171875-.078125-10.91162109375-.078125h-8.8701171875c-.10546875.94140625-.23583984375,2.51171875-.392578125,4.7099609375-.1572265625,2.1982421875-.498046875,4.3955078125-1.0205078125,6.59375-.52490234375,2.1982421875-1.2314453125,4.1875-2.11962890625,5.9658203125-.890625,1.78125-2.11962890625,2.720703125-3.689453125,2.826171875-1.466796875.103515625-3.14013671875.208984375-5.02392578125.314453125-1.88427734375.1025390625-3.716796875-.10546875-5.4951171875-.6279296875-1.78076171875-.41796875-3.2724609375-1.2568359375-4.474609375-2.5126953125-1.20458984375-1.255859375-1.859375-3.2431640625-1.96240234375-5.9658203125,0-3.2431640625.0517578125-6.958984375.1572265625-11.146484375.10302734375-4.185546875.31396484375-8.73876953125.6279296875-13.65966796875.20849609375-4.08203125.54931640625-8.556640625,1.0205078125-13.423828125.470703125-4.8671875,1.150390625-9.8642578125,2.041015625-14.9931640625.8876953125-5.126953125,2.041015625-10.2568359375,3.45361328125-15.38671875,1.4130859375-5.126953125,3.19189453125-9.9931640625,5.33837890625-14.6005859375,2.14404296875-4.6044921875,4.68310546875-8.84375,7.6142578125-12.716796875,2.92919921875-3.87109375,6.43701171875-7.1162109375,10.51904296875-9.734375,4.81298828125-3.0341796875,10.099609375-4.552734375,15.85693359375-4.552734375,5.75537109375,0,11.19873046875,1.4130859375,16.328125,4.2392578125ZM243.0888671875,284.529785156244543c6.59375-.5224609375,13.16064453125-.9150390625,19.703125-1.177734375,6.5400390625-.259765625,13.10986328125-.287109375,19.70361328125-.078125.31396484375-7.4306640625,0-14.076171875-.94189453125-19.939453125-.94189453125-5.8603515625-2.251953125-10.8056640625-3.9248046875-14.8359375-1.67578125-4.0283203125-3.6650390625-7.1162109375-5.96630859375-9.2626953125-2.30322265625-2.14453125-4.658203125-3.21875-7.06494140625-3.21875-2.0947265625,0-4.26611328125,1.07421875-6.515625,3.21875-2.251953125,2.146484375-4.34423828125,5.2861328125-6.27978515625,9.419921875-1.93798828125,4.1357421875-3.689453125,9.23828125-5.25927734375,15.306640625-1.5703125,6.072265625-2.72314453125,12.9287109375-3.4541015625,20.5673828125Z" fill="none" stroke="#181818" stroke-linecap="round" stroke-linejoin="round" stroke-width="33"/>
                <path d="M370.728515625,267.730957031244543c3.03466796875,3.6650390625,5.41650390625,8.0849609375,7.1435546875,13.2666015625,1.72705078125,5.1806640625,2.328125,10.283203125,1.8056640625,15.3076171875-.419921875,3.873046875-1.5703125,7.72021484375-3.4541015625,11.53955078125-1.88427734375,3.822265625-4.29296875,7.2216796875-7.22216796875,10.205078125-2.931640625,2.9833984375-6.30712890625,5.3916015625-10.12646484375,7.2216796875-3.82177734375,1.8330078125-7.9287109375,2.748046875-12.32470703125,2.748046875-2.72265625,0-5.49462890625-.2900390625-8.32080078125-.86328125-2.826171875-.57421875-5.5732421875-1.38671875-8.24267578125-2.43359375-2.6689453125-1.044921875-5.15625-2.4072265625-7.45751953125-4.08203125-2.30322265625-1.6728515625-4.1875-3.611328125-5.65185546875-5.8095703125-1.56982421875-2.197265625-2.041015625-4.6044921875-1.4130859375-7.2216796875.6279296875-2.9287109375,1.85693359375-5.4677734375,3.689453125-7.61474609375,1.830078125-2.14453125,3.53271484375-3.8984375,5.1025390625-5.259765625.8369140625-.6279296875,1.88427734375-1.044921875,3.14013671875-1.255859375,1.255859375-.208984375,2.4580078125.3134765625,3.61083984375,1.5703125,1.88427734375,2.197265625,3.92529296875,3.951171875,6.123046875,5.2587890625,2.1982421875,1.31103515625,4.369140625,2.04150390625,6.515625,2.19873046875,2.14404296875.1572265625,4.18505859375-.3134765625,6.123046875-1.4130859375,1.935546875-1.09912109375,3.583984375-2.90478515625,4.9453125-5.41650390625.73095703125-1.46484375,1.15087890625-3.03515625,1.25634765625-4.7099609375.10302734375-1.673828125-.2109375-3.21875-.9423828125-4.6318359375-.7333984375-1.4130859375-1.93798828125-2.615234375-3.61083984375-3.611328125-1.67529296875-.9931640625-3.87353515625-1.5947265625-6.59375-1.8056640625-.21142578125.10546875-.3681640625.1328125-.47119140625.0791015625-.10546875-.0517578125-.2109375-.0791015625-.31396484375-.0791015625h-.31396484375c-.10546875.10546875-.2109375.1572265625-.31396484375.1572265625h-.6279296875c-.31396484375-.1025390625-.6552734375-.181640625-1.0205078125-.2353515625-.3681640625-.0517578125-.6552734375-.181640625-.86376953125-.392578125-1.15283203125-.3134765625-1.93798828125-1.255859375-2.35498046875-2.826171875-.41943359375-1.5693359375-.65478515625-3.296875-.70654296875-5.1806640625-.0537109375-1.8837890625.0244140625-3.7412109375.23583984375-5.5732421875.20849609375-1.830078125.470703125-3.1650390625.78466796875-4.00390625.4169921875-1.150390625.94189453125-2.119140625,1.5703125-2.904296875.6279296875-.78515625,1.35888671875-1.177734375,2.19775390625-1.177734375,2.615234375,0,4.91845703125-.8359375,6.908203125-2.51171875,1.98681640625-1.6728515625,3.39990234375-3.5576171875,4.23876953125-5.65234375.83642578125-2.0927734375.966796875-4.0546875.392578125-5.8876953125-.57666015625-1.830078125-2.17333984375-2.8505859375-4.78857421875-3.0615234375-1.78076171875-.2080078125-3.689453125.341796875-5.73046875,1.6494140625-2.041015625,1.3095703125-3.74365234375,3.3232421875-5.1025390625,6.0439453125-.52490234375,1.0478515625-.94189453125,2.068359375-1.255859375,3.0615234375-.31396484375.99609375-1.09912109375,1.75390625-2.35498046875,2.2763671875-1.04736328125.419921875-2.041015625.6279296875-2.98291015625.6279296875-3.037109375,0-5.94189453125-.8876953125-8.7138671875-2.6689453125-2.7744140625-1.7783203125-4.63134765625-4.2900390625-5.5732421875-7.5361328125-.41943359375-1.986328125-.3681640625-3.9248046875.15673828125-5.80859375.5224609375-1.8837890625,1.3076171875-3.7138671875,2.35498046875-5.4951171875,1.77880859375-2.9287109375,4.0283203125-5.4951171875,6.7509765625-7.693359375,2.720703125-2.197265625,5.73095703125-3.94921875,9.02783203125-5.2587890625,3.296875-1.3076171875,6.80224609375-2.1201171875,10.51904296875-2.43359375,3.7138671875-.314453125,7.45751953125,0,11.2255859375.94140625,4.7099609375,1.1533203125,8.58056640625,3.32421875,11.61767578125,6.515625,3.03466796875,3.1943359375,5.154296875,6.986328125,6.3583984375,11.3828125,1.2021484375,4.3955078125,1.4130859375,9.2109375.62841796875,14.4443359375-.78515625,5.234375-2.64453125,10.572265625-5.57373046875,16.013671875Z" fill="none" stroke="#181818" stroke-linecap="round" stroke-linejoin="round" stroke-width="33"/>
              </g>
              <g>
                <path d="M281.23974609375,213.095214843744543c3.9765625,2.302734375,7.37890625,5.12890625,10.205078125,8.4775390625,2.82568359375,3.3515625,5.20556640625,7.013671875,7.1435546875,10.990234375,1.935546875,3.978515625,3.478515625,8.1904296875,4.63134765625,12.638671875,1.150390625,4.44921875,2.041015625,8.923828125,2.6689453125,13.4228515625,1.46435546875,8.8974609375,2.30126953125,17.8984375,2.51220703125,27.00390625.20849609375,9.1064453125.05126953125,18.26708984375-.47119140625,27.47607421875-.2109375,2.6171875-.41943359375,4.763671875-.6279296875,6.4365234375-.2109375,1.67578125-.603515625,3.037109375-1.177734375,4.08203125-.576171875,1.0478515625-1.38818359375,1.884765625-2.43310546875,2.5126953125-1.0478515625.6279296875-2.51220703125,1.2021484375-4.39599609375,1.7265625-1.78125.208984375-3.63818359375.365234375-5.57373046875.470703125-1.93798828125.103515625-3.74365234375-.4189453125-5.41650390625-1.5693359375-1.56982421875-1.044921875-2.8798828125-2.826171875-3.9248046875-5.337890625-1.0478515625-2.5126953125-1.6240234375-6.123046875-1.72705078125-10.8330078125v-1.5703125c-2.61767578125-.314453125-5.73046875-.57421875-9.341796875-.78515625-3.61083984375-.2080078125-7.30029296875-.3388671875-11.068359375-.392578125-3.76806640625-.0517578125-7.40576171875-.078125-10.91162109375-.078125h-8.8701171875c-.10546875.94140625-.23583984375,2.51171875-.392578125,4.7099609375-.1572265625,2.1982421875-.498046875,4.3955078125-1.0205078125,6.59375-.52490234375,2.1982421875-1.2314453125,4.1875-2.11962890625,5.9658203125-.890625,1.78125-2.11962890625,2.720703125-3.689453125,2.826171875-1.466796875.103515625-3.14013671875.208984375-5.02392578125.314453125-1.88427734375.1025390625-3.716796875-.10546875-5.4951171875-.6279296875-1.78076171875-.41796875-3.2724609375-1.2568359375-4.474609375-2.5126953125-1.20458984375-1.255859375-1.859375-3.2431640625-1.96240234375-5.9658203125,0-3.2431640625.0517578125-6.958984375.1572265625-11.146484375.10302734375-4.185546875.31396484375-8.73876953125.6279296875-13.65966796875.20849609375-4.08203125.54931640625-8.556640625,1.0205078125-13.423828125.470703125-4.8671875,1.150390625-9.8642578125,2.041015625-14.9931640625.8876953125-5.126953125,2.041015625-10.2568359375,3.45361328125-15.38671875,1.4130859375-5.126953125,3.19189453125-9.9931640625,5.33837890625-14.6005859375,2.14404296875-4.6044921875,4.68310546875-8.84375,7.6142578125-12.716796875,2.92919921875-3.87109375,6.43701171875-7.1162109375,10.51904296875-9.734375,4.81298828125-3.0341796875,10.099609375-4.552734375,15.85693359375-4.552734375,5.75537109375,0,11.19873046875,1.4130859375,16.328125,4.2392578125ZM243.0888671875,284.529785156244543c6.59375-.5224609375,13.16064453125-.9150390625,19.703125-1.177734375,6.5400390625-.259765625,13.10986328125-.287109375,19.70361328125-.078125.31396484375-7.4306640625,0-14.076171875-.94189453125-19.939453125-.94189453125-5.8603515625-2.251953125-10.8056640625-3.9248046875-14.8359375-1.67578125-4.0283203125-3.6650390625-7.1162109375-5.96630859375-9.2626953125-2.30322265625-2.14453125-4.658203125-3.21875-7.06494140625-3.21875-2.0947265625,0-4.26611328125,1.07421875-6.515625,3.21875-2.251953125,2.146484375-4.34423828125,5.2861328125-6.27978515625,9.419921875-1.93798828125,4.1357421875-3.689453125,9.23828125-5.25927734375,15.306640625-1.5703125,6.072265625-2.72314453125,12.9287109375-3.4541015625,20.5673828125Z" fill="#fff" stroke-width="0"/>
                <path d="M370.728515625,267.730957031244543c3.03466796875,3.6650390625,5.41650390625,8.0849609375,7.1435546875,13.2666015625,1.72705078125,5.1806640625,2.328125,10.283203125,1.8056640625,15.3076171875-.419921875,3.873046875-1.5703125,7.72021484375-3.4541015625,11.53955078125-1.88427734375,3.822265625-4.29296875,7.2216796875-7.22216796875,10.205078125-2.931640625,2.9833984375-6.30712890625,5.3916015625-10.12646484375,7.2216796875-3.82177734375,1.8330078125-7.9287109375,2.748046875-12.32470703125,2.748046875-2.72265625,0-5.49462890625-.2900390625-8.32080078125-.86328125-2.826171875-.57421875-5.5732421875-1.38671875-8.24267578125-2.43359375-2.6689453125-1.044921875-5.15625-2.4072265625-7.45751953125-4.08203125-2.30322265625-1.6728515625-4.1875-3.611328125-5.65185546875-5.8095703125-1.56982421875-2.197265625-2.041015625-4.6044921875-1.4130859375-7.2216796875.6279296875-2.9287109375,1.85693359375-5.4677734375,3.689453125-7.61474609375,1.830078125-2.14453125,3.53271484375-3.8984375,5.1025390625-5.259765625.8369140625-.6279296875,1.88427734375-1.044921875,3.14013671875-1.255859375,1.255859375-.208984375,2.4580078125.3134765625,3.61083984375,1.5703125,1.88427734375,2.197265625,3.92529296875,3.951171875,6.123046875,5.2587890625,2.1982421875,1.31103515625,4.369140625,2.04150390625,6.515625,2.19873046875,2.14404296875.1572265625,4.18505859375-.3134765625,6.123046875-1.4130859375,1.935546875-1.09912109375,3.583984375-2.90478515625,4.9453125-5.41650390625.73095703125-1.46484375,1.15087890625-3.03515625,1.25634765625-4.7099609375.10302734375-1.673828125-.2109375-3.21875-.9423828125-4.6318359375-.7333984375-1.4130859375-1.93798828125-2.615234375-3.61083984375-3.611328125-1.67529296875-.9931640625-3.87353515625-1.5947265625-6.59375-1.8056640625-.21142578125.10546875-.3681640625.1328125-.47119140625.0791015625-.10546875-.0517578125-.2109375-.0791015625-.31396484375-.0791015625h-.31396484375c-.10546875.10546875-.2109375.1572265625-.31396484375.1572265625h-.6279296875c-.31396484375-.1025390625-.6552734375-.181640625-1.0205078125-.2353515625-.3681640625-.0517578125-.6552734375-.181640625-.86376953125-.392578125-1.15283203125-.3134765625-1.93798828125-1.255859375-2.35498046875-2.826171875-.41943359375-1.5693359375-.65478515625-3.296875-.70654296875-5.1806640625-.0537109375-1.8837890625.0244140625-3.7412109375.23583984375-5.5732421875.20849609375-1.830078125.470703125-3.1650390625.78466796875-4.00390625.4169921875-1.150390625.94189453125-2.119140625,1.5703125-2.904296875.6279296875-.78515625,1.35888671875-1.177734375,2.19775390625-1.177734375,2.615234375,0,4.91845703125-.8359375,6.908203125-2.51171875,1.98681640625-1.6728515625,3.39990234375-3.5576171875,4.23876953125-5.65234375.83642578125-2.0927734375.966796875-4.0546875.392578125-5.8876953125-.57666015625-1.830078125-2.17333984375-2.8505859375-4.78857421875-3.0615234375-1.78076171875-.2080078125-3.689453125.341796875-5.73046875,1.6494140625-2.041015625,1.3095703125-3.74365234375,3.3232421875-5.1025390625,6.0439453125-.52490234375,1.0478515625-.94189453125,2.068359375-1.255859375,3.0615234375-.31396484375.99609375-1.09912109375,1.75390625-2.35498046875,2.2763671875-1.04736328125.419921875-2.041015625.6279296875-2.98291015625.6279296875-3.037109375,0-5.94189453125-.8876953125-8.7138671875-2.6689453125-2.7744140625-1.7783203125-4.63134765625-4.2900390625-5.5732421875-7.5361328125-.41943359375-1.986328125-.3681640625-3.9248046875.15673828125-5.80859375.5224609375-1.8837890625,1.3076171875-3.7138671875,2.35498046875-5.4951171875,1.77880859375-2.9287109375,4.0283203125-5.4951171875,6.7509765625-7.693359375,2.720703125-2.197265625,5.73095703125-3.94921875,9.02783203125-5.2587890625,3.296875-1.3076171875,6.80224609375-2.1201171875,10.51904296875-2.43359375,3.7138671875-.314453125,7.45751953125,0,11.2255859375.94140625,4.7099609375,1.1533203125,8.58056640625,3.32421875,11.61767578125,6.515625,3.03466796875,3.1943359375,5.154296875,6.986328125,6.3583984375,11.3828125,1.2021484375,4.3955078125,1.4130859375,9.2109375.62841796875,14.4443359375-.78515625,5.234375-2.64453125,10.572265625-5.57373046875,16.013671875Z" fill="#fff" stroke-width="0"/>
              </g>
            </g>
          </a>
        </g>
      </a>
    </g>
  </g>
</svg>