<?xml version="1.0" encoding="UTF-8"?>
<svg id="Layer_1" data-name="Layer 1" xmlns="http://www.w3.org/2000/svg" xmlns:xlink="http://www.w3.org/1999/xlink" viewBox="0 0 599.999999999998181 600.000000000002728">
  <g id="pie_with_links_-5" data-name="pie (with links)">
    <g id="pie_with_links_-6" data-name="pie (with links)">
      <g id="Pie">
        <g>
          <a xlink:href="https://www.notion.so/dmmnotes/paranoid-ae38b1e6af0c4dd08f61e0d8f6e9f05f?pvs=4">
            <path id="C8" d="M331.308105468757276,517.749511718749091l7.825683593740905,54.4306640625c26.439208984369543-3.767822265632276,51.645751953139552-11.3115234375,75.101318359369543-22.04296875l-22.832519531239086-49.996826171882276c-18.7666015625,8.572265625-38.93505859375,14.601318359382276-60.094482421871362,17.609130859382276Z" fill="none" stroke="#181818" stroke-linecap="round" stroke-linejoin="round" stroke-width="15"/>
          </a>
          <a xlink:href="https://www.notion.so/dmmnotes/menacing-a5bd7149286344deba45ec15e759e579?pvs=4">
            <path id="C7" d="M391.402587890628638,500.140380859366815l22.832519531239086,49.996826171882276c23.989990234391371-10.975830078121362,46.116210937520009-25.287109375010914,65.803955078141371-42.36181640625l-35.972900390630457-41.515869140617724c-15.753417968760914,13.658691406246362-33.459228515630457,25.104492187485448-52.66357421875,33.880859374985448Z" fill="none" stroke="#181818" stroke-linecap="round" stroke-linejoin="round" stroke-width="15"/>
          </a>
          <a xlink:href="https://www.notion.so/dmmnotes/seductively-obsessed-with-rescue-6fb5a68f6d334bc29ccccc16d8a4e56e?pvs=4">
            <path id="C6" d="M444.066162109378638,466.259521484381366l35.972900390630457,41.515869140617724c19.762939453119543-17.141845703132276,37.047119140619543-37.041748046882276,51.26708984375-59.124999999996362l-46.223632812510914-29.704833984371362c-11.373291015619543,17.673583984371362-25.201171874989086,33.598876953121362-41.016357421869543,47.31396484375Z" fill="none" stroke="#181818" stroke-linecap="round" stroke-linejoin="round" stroke-width="15"/>
          </a>
          <a xlink:href="https://www.notion.so/dmmnotes/punitively-obsessed-with-revenge-33d2e77f37774316b42bccf4a60f9688?pvs=4">
            <path id="C5" d="M485.082519531248181,418.945556640631366l46.223632812510914,29.704833984371362c14.048095703128638-21.809326171882276,25.08837890625-45.71875,32.551513671869543-71.175048828133185l-52.7548828125-15.490234375c-5.9619140625,20.377929687511823-14.789306640619543,39.509765625000909-26.020263671880457,56.960449218761823Z" fill="none" stroke="#181818" stroke-linecap="round" stroke-linejoin="round" stroke-width="15"/>
          </a>
          <a xlink:href="https://www.notion.so/dmmnotes/feigned-helpless-e79a94b0498c4e109a681b7f3dcdb088?pvs=4">
            <path id="C4" d="M519.999999999998181,300.000000000003638c0,21.538085937499091-3.142089843739086,42.321533203115905-8.897216796869543,61.985107421865905l52.7548828125,15.490234375c7.2080078125-24.583496093738177,11.142333984369543-50.5634765625,11.142333984369543-77.475341796865905h-55Z" fill="none" stroke="#181818" stroke-linecap="round" stroke-linejoin="round" stroke-width="15"/>
          </a>
          <a xlink:href="https://www.notion.so/dmmnotes/aggressive-2d8ccce383534b9dbfc7b4b10b8a5d5c?pvs=4">
            <path id="C3" d="M519.999999999998181,300.000000000003638h55c0-26.911865234389552-3.934326171869543-52.894531250010914-11.142333984369543-77.475341796889552l-52.7548828125,15.490234375c5.755126953130457,19.663574218757276,8.897216796869543,40.449707031257276,8.897216796869543,61.985107421889552Z" fill="none" stroke="#181818" stroke-linecap="round" stroke-linejoin="round" stroke-width="15"/>
          </a>
          <a xlink:href="https://www.notion.so/dmmnotes/disarming-086276e599884c86b9359acf831a8b20?pvs=4">
            <g id="C2">
              <path d="M511.102539062498181,239.0146484375c-.166015625,0-.3310546875-.04150390625-.4794921875-.12255859375-.2333984375-.12744140625-.4052734375-.341796875-.48046875-.5966796875-5.8623046875-20.02734375-14.576171875-39.10400390625-25.9013671875-56.7001953125-.1435546875-.22314453125-.1923828125-.494140625-.13671875-.75341796875.056640625-.25927734375.2138671875-.4853515625.4365234375-.62890625l46.224609375-29.70751953125c.16796875-.107421875.3544921875-.15869140625.5400390625-.15869140625.3291015625,0,.650390625.16162109375.841796875.45849609375,14.2822265625,22.17626953125,25.2744140625,46.21142578125,32.669921875,71.43798828125.1552734375.52978515625-.1484375,1.0849609375-.6787109375,1.24072265625l-52.7548828125,15.490234375c-.091796875.02734375-.1865234375.04052734375-.28125.04052734375Z" fill="none" stroke="#181818" stroke-linecap="round" stroke-linejoin="round" stroke-width="15"/>
              <path d="M531.306152343748181,151.346923828125c14.048095703125,21.81201171875,25.08837890625,45.721435546875,32.551513671875,71.177734375l-52.7548828125,15.490234375c-5.964599609375-20.375244140625-14.789306640625-39.509765625-26.020263671875-56.96044921875l46.2236328125-29.70751953125M531.304321289060681,149.3466796875c-.370361328125,0-.744873046875.10272216796875-1.0794677734375.317779541015625l-46.2236328125,29.70751953125c-.4464111328125.286895751953125-.760498046875.73944091796875-.8731689453125,1.25799560546875-.112548828125.5185546875-.0145263671875,1.060638427734375.272705078125,1.506866455078125,11.2718505859375,17.51434326171875,19.9464111328125,36.503509521484375,25.7825927734375,56.43994140625.1490478515625.50933837890625.4945068359375.93853759765625.960205078125,1.193084716796875.296875.1622314453125.6270751953125.245025634765625.959228515625.245025634765625.1890869140625,0,.3787841796875-.02679443359375.5634765625-.081024169921875l52.7548828125-15.490234375c1.0594482421875-.31109619140625,1.6663818359375-1.4219970703125,1.355712890625-2.48162841796875-7.422607421875-25.3182373046875-18.45458984375-49.440948486328125-32.789306640625-71.698028564453125-.3822021484375-.593597412109375-1.0260009765625-.91729736328125-1.6832275390625-.91729736328125h0Z" fill="none" stroke="#181818" stroke-linecap="round" stroke-linejoin="round" stroke-width="15"/>
            </g>
          </a>
          <a xlink:href="https://www.notion.so/dmmnotes/threatening-348fe6a52f7a4fe69f768e98c6586932?pvs=4">
            <g id="C1">
              <path d="M485.083007812498181,182.05419921875c-.3291015625,0-.650390625-.16162109375-.841796875-.458984375-11.2978515625-17.55615234375-25.03515625-33.40185546875-40.830078125-47.0966796875-.4169921875-.361328125-.4619140625-.99267578125-.1005859375-1.41015625l35.97265625-41.5185546875c.173828125-.20068359375.419921875-.32373046875.6845703125-.3427734375.0234375-.00146484375.0478515625-.00244140625.0712890625-.00244140625.240234375,0,.47265625.08642578125.6552734375.24462890625,19.90234375,17.26220703125,37.212890625,37.22607421875,51.453125,59.3359375.1435546875.22314453125.1923828125.494140625.13671875.75341796875-.056640625.25927734375-.2138671875.48583984375-.4365234375.62939453125l-46.224609375,29.70751953125c-.16796875.107421875-.3544921875.15869140625-.5400390625.15869140625Z" fill="none" stroke="#181818" stroke-linecap="round" stroke-linejoin="round" stroke-width="15"/>
              <path d="M480.039062499998181,92.224609375c19.762939453125,17.141845703125,37.047119140625,37.041748046875,51.26708984375,59.122314453125l-46.2236328125,29.70751953125c-11.373291015625-17.673583984375-25.201171875-33.598876953125-41.016357421875-47.311279296875l35.972900390625-41.5185546875M480.039184570310681,90.224609375c-.04736328125,0-.0948486328125.001678466796875-.142333984375.00506591796875-.529296875.0377197265625-1.0218505859375.28424072265625-1.369384765625.685272216796875l-35.972900390625,41.5185546875c-.72314453125.8345947265625-.6329345703125,2.09735107421875.201416015625,2.820770263671875,15.723876953125,13.63323974609375,29.398681640625,29.40679931640625,40.6446533203125,46.882476806640625.38232421875.593963623046875,1.0262451171875.917938232421875,1.6837158203125.917938232421875.370361328125,0,.744873046875-.102691650390625,1.0794677734375-.3177490234375l46.2236328125-29.70751953125c.446533203125-.286956787109375.7606201171875-.7396240234375.8731689453125-1.25830078125s.014404296875-1.06085205078125-.27294921875-1.507080078125c-14.2900390625-22.189300537109375-31.66357421875-42.22491455078125-51.63818359375-59.55029296875-.3648681640625-.31646728515625-.83056640625-.4891357421875-1.310302734375-.4891357421875h0Z" fill="none" stroke="#181818" stroke-linecap="round" stroke-linejoin="round" stroke-width="15"/>
            </g>
          </a>
          <a xlink:href="https://www.notion.so/dmmnotes/complaining-acceptance-8b40401a720c493ba73f7cde1567cf3d?pvs=4">
            <path id="B5" d="M444.066162109378638,133.743164062492724l35.972900390630457-41.518554687498181c-19.687744140621362-17.07470703125-41.81396484375-31.388671875-65.803955078141371-42.36181640625l-22.832519531239086,49.99951171875c19.204345703119543,8.773681640626819,36.910156249989086,20.22216796875,52.66357421875,33.880859374998181Z" fill="none" stroke="#181818" stroke-linecap="round" stroke-linejoin="round" stroke-width="15"/>
          </a>
          <a xlink:href="https://www.notion.so/dmmnotes/sentimental-bc554363322342b1b7ca4ccc02125049?pvs=4">
            <path id="B4" d="M391.402587890628638,99.862304687494543l22.832519531239086-49.99951171875c-23.455566406229991-10.7314453125-48.662109375-18.275146484382276-75.101318359369543-22.042968749989086l-7.825683593740905,54.433349609365905c21.159423828121362,3.0078125,41.327880859371362,9.034179687490905,60.094482421871362,17.609130859373181Z" fill="none" stroke="#181818" stroke-linecap="round" stroke-linejoin="round" stroke-width="15"/>
          </a>
          <a xlink:href="https://www.notion.so/dmmnotes/comfortably-balanced-e76dc615a8b947aa915377cd02fcf716?pvs=4">
            <path id="B3" d="M299.999999999998181,79.999999999994543c10.634765625,0,21.078857421869543.797607421876819,31.308105468759095,2.253173828126819l7.825683593740905-54.433349609365905c-12.788574218740905-1.823486328134095-25.843017578130457-2.819824218760914-39.1337890625-2.819824218760914-13.290771484367724,0-26.34521484375.996337890626819-39.133789062489086,2.819824218760914l7.825683593739086,54.433349609365905c10.23193359375-1.45556640625,20.67333984375-2.253173828126819,31.30810546875-2.253173828126819Z" fill="none" stroke="#181818" stroke-linecap="round" stroke-linejoin="round" stroke-width="15"/>
          </a>
          <a xlink:href="https://www.notion.so/dmmnotes/accepting-317d81273fff4cd9817cdf4a88efd378?pvs=4">
            <path id="B2" d="M268.691894531248181,82.253173828121362l-7.825683593739086-54.433349609365905c-26.439208984389552,3.76782226560681-51.643066406260914,11.311523437489086-75.098632812510914,22.042968749989086l22.83251953125,49.99951171875c18.7666015625-8.574951171882276,38.93505859375-14.601318359373181,60.091796875-17.609130859373181Z" fill="none" stroke="#181818" stroke-linecap="round" stroke-linejoin="round" stroke-width="15"/>
          </a>
          <a xlink:href="https://www.notion.so/dmmnotes/distanced-from-past-2eabab7e9c77429f8e577f4e3e203653?pvs=4">
            <path id="B1" d="M208.600097656248181,99.862304687494543l-22.83251953125-49.99951171875c-23.99267578125,10.97314453125-46.1162109375,25.287109375-65.803955078121362,42.36181640625l35.972900390621362,41.515869140626819c15.75341796875-13.658691406259095,33.4619140625-25.1044921875,52.66357421875-33.878173828126819Z" fill="none" stroke="#181818" stroke-linecap="round" stroke-linejoin="round" stroke-width="15"/>
          </a>
          <a xlink:href="https://www.notion.so/dmmnotes/idealising-a52277f51ed14a42aae78081bb34b8be?pvs=4">
            <path id="A1" d="M155.936523437498181,133.740478515621362l-35.972900390621362-41.515869140626819c-19.765625,17.141845703117724-37.049804687507276,37.041748046876819-51.269775390630457,59.122314453126819l46.226318359373181,29.70751953125c11.373291015639552-17.673583984367724,25.201171875007276-33.598876953128638,41.016357421878638-47.31396484375Z" fill="none" stroke="#181818" stroke-linecap="round" stroke-linejoin="round" stroke-width="15"/>
          </a>
          <a xlink:href="https://www.notion.so/dmmnotes/distancing-9ac690cdca654729a17a5a255944e2d1?pvs=4">
            <path id="A2" d="M114.920166015619543,181.054443359371362l-46.226318359373181-29.70751953125c-14.04541015625,21.81201171875-25.08837890625,45.721435546871362-32.551513671876819,71.177734374992724l52.754882812510914,15.490234375c5.964599609367724-20.375244140621362,14.791992187496362-39.509765624992724,26.022949218739086-56.960449218742724Z" fill="none" stroke="#181818" stroke-linecap="round" stroke-linejoin="round" stroke-width="15"/>
          </a>
          <a xlink:href="https://www.notion.so/dmmnotes/compulsive-caregiving-9c380c0928294f41ae10764aa0dee886?pvs=4">
            <path id="A3" d="M88.897216796880457,238.014892578114086l-52.754882812510914-15.490234375c-7.205322265623181,24.580810546878638-11.142333984373181,50.5634765625-11.142333984373181,77.475341796889552h55.000000000001819c0-21.535400390632276,3.14208984375-42.321533203132276,8.897216796882276-61.985107421889552Z" fill="none" stroke="#181818" stroke-linecap="round" stroke-linejoin="round" stroke-width="15"/>
          </a>
          <a xlink:href="https://www.notion.so/dmmnotes/compulsive-compliance-6d08b7ea9a424ce1a72b9184b7850414?pvs=4">
            <path id="A4" d="M79.999999999998181,300.000000000003638H24.999999999996362c0,26.911865234365905,3.93701171875,52.894531249988177,11.142333984373181,77.475341796865905l52.754882812510914-15.490234375c-5.755126953132276-19.66357421875-8.897216796882276-40.447021484366815-8.897216796882276-61.985107421865905Z" fill="none" stroke="#181818" stroke-linecap="round" stroke-linejoin="round" stroke-width="15"/>
          </a>
          <a xlink:href="https://www.notion.so/dmmnotes/sexual-supplementation-8e85f49046ef412aa229745abf7d38d3?pvs=4">
            <path id="A5" d="M88.897216796880457,361.985107421869543l-52.754882812510914,15.490234375c7.463134765626819,25.456298828133185,18.506103515626819,49.365722656250909,32.551513671876819,71.175048828133185l46.223632812512733-29.704833984371362c-11.230957031260914-17.450683593760914-20.055664062510914-36.58251953125-26.020263671878638-56.960449218761823Z" fill="none" stroke="#181818" stroke-linecap="round" stroke-linejoin="round" stroke-width="15"/>
          </a>
          <a xlink:href="https://www.notion.so/dmmnotes/compulsive-isolated-self-reliance-b321873a73fa41aaaadd7192fde856a2?pvs=4">
            <path id="A6" d="M114.917480468759095,418.945556640631366l-46.223632812512733,29.704833984371362c14.219970703123181,22.083251953114086,31.504150390630457,41.983154296864086,51.269775390630457,59.124999999996362l35.972900390621362-41.515869140617724c-15.815185546871362-13.712402343760914-29.643066406239086-29.637695312510914-41.019042968739086-47.31396484375Z" fill="none" stroke="#181818" stroke-linecap="round" stroke-linejoin="round" stroke-width="15"/>
          </a>
          <a xlink:href="https://www.notion.so/dmmnotes/delusional-idealization-743e2420b9994a48a7cab68190432e8a?pvs=4">
            <path id="A7" d="M155.936523437498181,466.259521484381366l-35.972900390621362,41.515869140617724c19.687744140621362,17.074707031239086,41.811279296871362,31.385986328128638,65.803955078121362,42.36181640625l22.83251953125-49.996826171882276c-19.20166015625-8.773681640617724-36.91015625-20.222167968739086-52.66357421875-33.880859374985448Z" fill="none" stroke="#181818" stroke-linecap="round" stroke-linejoin="round" stroke-width="15"/>
          </a>
          <a xlink:href="https://www.notion.so/dmmnotes/externally-assembled-self-994ecb0895b844409b931d74a045c162?pvs=4">
            <path id="A8" d="M208.600097656248181,500.140380859366815l-22.83251953125,49.996826171882276c23.45556640625,10.7314453125,48.659423828121362,18.275146484367724,75.098632812510914,22.04296875l7.825683593739086-54.4306640625c-21.15673828125-3.0078125-41.3251953125-9.0341796875-60.091796875-17.609130859382276Z" fill="none" stroke="#181818" stroke-linecap="round" stroke-linejoin="round" stroke-width="15"/>
          </a>
          <a xlink:href="https://www.notion.so/dmmnotes/psychopathy-0fe4a3222d9f4fd097ab4546c9776768?pvs=4">
            <path id="AC" d="M299.999999999998181,519.999999999999091c-10.634765625,0-21.076171875-.794921875-31.30810546875-2.25048828125l-7.825683593739086,54.4306640625c12.788574218739086,1.823486328128638,25.843017578121362,2.81982421875,39.133789062489086,2.81982421875,13.290771484369543,0,26.345214843759095-.996337890621362,39.1337890625-2.81982421875l-7.825683593740905-54.4306640625c-10.229248046889552,1.45556640625-20.673339843759095,2.25048828125-31.308105468759095,2.25048828125Z" fill="none" stroke="#181818" stroke-linecap="round" stroke-linejoin="round" stroke-width="15"/>
          </a>
        </g>
        <g>
          <a xlink:href="https://www.notion.so/dmmnotes/paranoid-ae38b1e6af0c4dd08f61e0d8f6e9f05f?pvs=4">
            <path id="C8-2" data-name="C8" d="M331.308105468757276,517.749511718749091l7.825683593740905,54.4306640625c26.439208984369543-3.767822265632276,51.645751953139552-11.3115234375,75.101318359369543-22.04296875l-22.832519531239086-49.996826171882276c-18.7666015625,8.572265625-38.93505859375,14.601318359382276-60.094482421871362,17.609130859382276Z" fill="#8f807d" stroke="#181818" stroke-linecap="round" stroke-linejoin="round" stroke-width="2"/>
          </a>
          <a xlink:href="https://www.notion.so/dmmnotes/menacing-a5bd7149286344deba45ec15e759e579?pvs=4">
            <path id="C7-2" data-name="C7" d="M391.402587890628638,500.140380859366815l22.832519531239086,49.996826171882276c23.989990234391371-10.975830078121362,46.116210937520009-25.287109375010914,65.803955078141371-42.36181640625l-35.972900390630457-41.515869140617724c-15.753417968760914,13.658691406246362-33.459228515630457,25.104492187485448-52.66357421875,33.880859374985448Z" fill="#8f807d" stroke="#181818" stroke-linecap="round" stroke-linejoin="round" stroke-width="2"/>
          </a>
          <a xlink:href="https://www.notion.so/dmmnotes/seductively-obsessed-with-rescue-6fb5a68f6d334bc29ccccc16d8a4e56e?pvs=4">
            <path id="C6-2" data-name="C6" d="M444.066162109378638,466.259521484381366l35.972900390630457,41.515869140617724c19.762939453119543-17.141845703132276,37.047119140619543-37.041748046882276,51.26708984375-59.124999999996362l-46.223632812510914-29.704833984371362c-11.373291015619543,17.673583984371362-25.201171874989086,33.598876953121362-41.016357421869543,47.31396484375Z" fill="#8f807d" stroke="#181818" stroke-linecap="round" stroke-linejoin="round" stroke-width="2"/>
          </a>
          <a xlink:href="https://www.notion.so/dmmnotes/punitively-obsessed-with-revenge-33d2e77f37774316b42bccf4a60f9688?pvs=4">
            <path id="C5-2" data-name="C5" d="M485.082519531248181,418.945556640631366l46.223632812510914,29.704833984371362c14.048095703128638-21.809326171882276,25.08837890625-45.71875,32.551513671869543-71.175048828133185l-52.7548828125-15.490234375c-5.9619140625,20.377929687511823-14.789306640619543,39.509765625000909-26.020263671880457,56.960449218761823Z" fill="#8f807d" stroke="#181818" stroke-linecap="round" stroke-linejoin="round" stroke-width="2"/>
          </a>
          <a xlink:href="https://www.notion.so/dmmnotes/feigned-helpless-e79a94b0498c4e109a681b7f3dcdb088?pvs=4">
            <path id="C4-2" data-name="C4" d="M519.999999999998181,300.000000000003638c0,21.538085937499091-3.142089843739086,42.321533203115905-8.897216796869543,61.985107421865905l52.7548828125,15.490234375c7.2080078125-24.583496093738177,11.142333984369543-50.5634765625,11.142333984369543-77.475341796865905h-55Z" fill="#8f807d" stroke="#181818" stroke-linecap="round" stroke-linejoin="round" stroke-width="2"/>
          </a>
          <a xlink:href="https://www.notion.so/dmmnotes/aggressive-2d8ccce383534b9dbfc7b4b10b8a5d5c?pvs=4">
            <path id="C3-2" data-name="C3" d="M519.999999999998181,300.000000000003638h55c0-26.911865234389552-3.934326171869543-52.894531250010914-11.142333984369543-77.475341796889552l-52.7548828125,15.490234375c5.755126953130457,19.663574218757276,8.897216796869543,40.449707031257276,8.897216796869543,61.985107421889552Z" fill="#8f807d" stroke="#181818" stroke-linecap="round" stroke-linejoin="round" stroke-width="2"/>
          </a>
          <a xlink:href="https://www.notion.so/dmmnotes/disarming-086276e599884c86b9359acf831a8b20?pvs=4">
            <g id="C2-2" data-name="C2">
              <path d="M511.102539062498181,239.0146484375c-.166015625,0-.3310546875-.04150390625-.4794921875-.12255859375-.2333984375-.12744140625-.4052734375-.341796875-.48046875-.5966796875-5.8623046875-20.02734375-14.576171875-39.10400390625-25.9013671875-56.7001953125-.1435546875-.22314453125-.1923828125-.494140625-.13671875-.75341796875.056640625-.25927734375.2138671875-.4853515625.4365234375-.62890625l46.224609375-29.70751953125c.16796875-.107421875.3544921875-.15869140625.5400390625-.15869140625.3291015625,0,.650390625.16162109375.841796875.45849609375,14.2822265625,22.17626953125,25.2744140625,46.21142578125,32.669921875,71.43798828125.1552734375.52978515625-.1484375,1.0849609375-.6787109375,1.24072265625l-52.7548828125,15.490234375c-.091796875.02734375-.1865234375.04052734375-.28125.04052734375Z" fill="#6e975f" stroke-width="0"/>
              <path d="M531.306152343748181,151.346923828125c14.048095703125,21.81201171875,25.08837890625,45.721435546875,32.551513671875,71.177734375l-52.7548828125,15.490234375c-5.964599609375-20.375244140625-14.789306640625-39.509765625-26.020263671875-56.96044921875l46.2236328125-29.70751953125M531.304321289060681,149.3466796875c-.370361328125,0-.744873046875.10272216796875-1.0794677734375.317779541015625l-46.2236328125,29.70751953125c-.4464111328125.286895751953125-.760498046875.73944091796875-.8731689453125,1.25799560546875-.112548828125.5185546875-.0145263671875,1.060638427734375.272705078125,1.506866455078125,11.2718505859375,17.51434326171875,19.9464111328125,36.503509521484375,25.7825927734375,56.43994140625.1490478515625.50933837890625.4945068359375.93853759765625.960205078125,1.193084716796875.296875.1622314453125.6270751953125.245025634765625.959228515625.245025634765625.1890869140625,0,.3787841796875-.02679443359375.5634765625-.081024169921875l52.7548828125-15.490234375c1.0594482421875-.31109619140625,1.6663818359375-1.4219970703125,1.355712890625-2.48162841796875-7.422607421875-25.3182373046875-18.45458984375-49.440948486328125-32.789306640625-71.698028564453125-.3822021484375-.593597412109375-1.0260009765625-.91729736328125-1.6832275390625-.91729736328125h0Z" fill="#181818" stroke-width="0"/>
            </g>
          </a>
          <a xlink:href="https://www.notion.so/dmmnotes/threatening-348fe6a52f7a4fe69f768e98c6586932?pvs=4">
            <g id="C1-2" data-name="C1">
              <path d="M485.083007812498181,182.05419921875c-.3291015625,0-.650390625-.16162109375-.841796875-.458984375-11.2978515625-17.55615234375-25.03515625-33.40185546875-40.830078125-47.0966796875-.4169921875-.361328125-.4619140625-.99267578125-.1005859375-1.41015625l35.97265625-41.5185546875c.173828125-.20068359375.419921875-.32373046875.6845703125-.3427734375.0234375-.00146484375.0478515625-.00244140625.0712890625-.00244140625.240234375,0,.47265625.08642578125.6552734375.24462890625,19.90234375,17.26220703125,37.212890625,37.22607421875,51.453125,59.3359375.1435546875.22314453125.1923828125.494140625.13671875.75341796875-.056640625.25927734375-.2138671875.48583984375-.4365234375.62939453125l-46.224609375,29.70751953125c-.16796875.107421875-.3544921875.15869140625-.5400390625.15869140625Z" fill="#589569" stroke-width="0"/>
              <path d="M480.039062499998181,92.224609375c19.762939453125,17.141845703125,37.047119140625,37.041748046875,51.26708984375,59.122314453125l-46.2236328125,29.70751953125c-11.373291015625-17.673583984375-25.201171875-33.598876953125-41.016357421875-47.311279296875l35.972900390625-41.5185546875M480.039184570310681,90.224609375c-.04736328125,0-.0948486328125.001678466796875-.142333984375.00506591796875-.529296875.0377197265625-1.0218505859375.28424072265625-1.369384765625.685272216796875l-35.972900390625,41.5185546875c-.72314453125.8345947265625-.6329345703125,2.09735107421875.201416015625,2.820770263671875,15.723876953125,13.63323974609375,29.398681640625,29.40679931640625,40.6446533203125,46.882476806640625.38232421875.593963623046875,1.0262451171875.917938232421875,1.6837158203125.917938232421875.370361328125,0,.744873046875-.102691650390625,1.0794677734375-.3177490234375l46.2236328125-29.70751953125c.446533203125-.286956787109375.7606201171875-.7396240234375.8731689453125-1.25830078125s.014404296875-1.06085205078125-.27294921875-1.507080078125c-14.2900390625-22.189300537109375-31.66357421875-42.22491455078125-51.63818359375-59.55029296875-.3648681640625-.31646728515625-.83056640625-.4891357421875-1.310302734375-.4891357421875h0Z" fill="#181818" stroke-width="0"/>
            </g>
          </a>
          <a xlink:href="https://www.notion.so/dmmnotes/complaining-acceptance-8b40401a720c493ba73f7cde1567cf3d?pvs=4">
            <path id="B5-2" data-name="B5" d="M444.066162109378638,133.743164062492724l35.972900390630457-41.518554687498181c-19.687744140621362-17.07470703125-41.81396484375-31.388671875-65.803955078141371-42.36181640625l-22.832519531239086,49.99951171875c19.204345703119543,8.773681640626819,36.910156249989086,20.22216796875,52.66357421875,33.880859374998181Z" fill="#8f807d" stroke="#181818" stroke-linecap="round" stroke-linejoin="round" stroke-width="2"/>
          </a>
          <a xlink:href="https://www.notion.so/dmmnotes/sentimental-bc554363322342b1b7ca4ccc02125049?pvs=4">
            <path id="B4-2" data-name="B4" d="M391.402587890628638,99.862304687494543l22.832519531239086-49.99951171875c-23.455566406229991-10.7314453125-48.662109375-18.275146484382276-75.101318359369543-22.042968749989086l-7.825683593740905,54.433349609365905c21.159423828121362,3.0078125,41.327880859371362,9.034179687490905,60.094482421871362,17.609130859373181Z" fill="#8f807d" stroke="#181818" stroke-linecap="round" stroke-linejoin="round" stroke-width="2"/>
          </a>
          <a xlink:href="https://www.notion.so/dmmnotes/comfortably-balanced-e76dc615a8b947aa915377cd02fcf716?pvs=4">
            <path id="B3-2" data-name="B3" d="M299.999999999998181,79.999999999994543c10.634765625,0,21.078857421869543.797607421876819,31.308105468759095,2.253173828126819l7.825683593740905-54.433349609365905c-12.788574218740905-1.823486328134095-25.843017578130457-2.819824218760914-39.1337890625-2.819824218760914-13.290771484367724,0-26.34521484375.996337890626819-39.133789062489086,2.819824218760914l7.825683593739086,54.433349609365905c10.23193359375-1.45556640625,20.67333984375-2.253173828126819,31.30810546875-2.253173828126819Z" fill="#8f807d" stroke="#181818" stroke-linecap="round" stroke-linejoin="round" stroke-width="2"/>
          </a>
          <a xlink:href="https://www.notion.so/dmmnotes/accepting-317d81273fff4cd9817cdf4a88efd378?pvs=4">
            <path id="B2-2" data-name="B2" d="M268.691894531248181,82.253173828121362l-7.825683593739086-54.433349609365905c-26.439208984389552,3.76782226560681-51.643066406260914,11.311523437489086-75.098632812510914,22.042968749989086l22.83251953125,49.99951171875c18.7666015625-8.574951171882276,38.93505859375-14.601318359373181,60.091796875-17.609130859373181Z" fill="#8f807d" stroke="#181818" stroke-linecap="round" stroke-linejoin="round" stroke-width="2"/>
          </a>
          <a xlink:href="https://www.notion.so/dmmnotes/distanced-from-past-2eabab7e9c77429f8e577f4e3e203653?pvs=4">
            <path id="B1-2" data-name="B1" d="M208.600097656248181,99.862304687494543l-22.83251953125-49.99951171875c-23.99267578125,10.97314453125-46.1162109375,25.287109375-65.803955078121362,42.36181640625l35.972900390621362,41.515869140626819c15.75341796875-13.658691406259095,33.4619140625-25.1044921875,52.66357421875-33.878173828126819Z" fill="#8f807d" stroke="#181818" stroke-linecap="round" stroke-linejoin="round" stroke-width="2"/>
          </a>
          <a xlink:href="https://www.notion.so/dmmnotes/idealising-a52277f51ed14a42aae78081bb34b8be?pvs=4">
            <path id="A1-2" data-name="A1" d="M155.936523437498181,133.740478515621362l-35.972900390621362-41.515869140626819c-19.765625,17.141845703117724-37.049804687507276,37.041748046876819-51.269775390630457,59.122314453126819l46.226318359373181,29.70751953125c11.373291015639552-17.673583984367724,25.201171875007276-33.598876953128638,41.016357421878638-47.31396484375Z" fill="#8f807d" stroke="#181818" stroke-linecap="round" stroke-linejoin="round" stroke-width="2"/>
          </a>
          <a xlink:href="https://www.notion.so/dmmnotes/distancing-9ac690cdca654729a17a5a255944e2d1?pvs=4">
            <path id="A2-2" data-name="A2" d="M114.920166015619543,181.054443359371362l-46.226318359373181-29.70751953125c-14.04541015625,21.81201171875-25.08837890625,45.721435546871362-32.551513671876819,71.177734374992724l52.754882812510914,15.490234375c5.964599609367724-20.375244140621362,14.791992187496362-39.509765624992724,26.022949218739086-56.960449218742724Z" fill="#8f807d" stroke="#181818" stroke-linecap="round" stroke-linejoin="round" stroke-width="2"/>
          </a>
          <a xlink:href="https://www.notion.so/dmmnotes/compulsive-caregiving-9c380c0928294f41ae10764aa0dee886?pvs=4">
            <path id="A3-2" data-name="A3" d="M88.897216796880457,238.014892578114086l-52.754882812510914-15.490234375c-7.205322265623181,24.580810546878638-11.142333984373181,50.5634765625-11.142333984373181,77.475341796889552h55.000000000001819c0-21.535400390632276,3.14208984375-42.321533203132276,8.897216796882276-61.985107421889552Z" fill="#8f807d" stroke="#181818" stroke-linecap="round" stroke-linejoin="round" stroke-width="2"/>
          </a>
          <a xlink:href="https://www.notion.so/dmmnotes/compulsive-compliance-6d08b7ea9a424ce1a72b9184b7850414?pvs=4">
            <path id="A4-2" data-name="A4" d="M79.999999999998181,300.000000000003638H24.999999999996362c0,26.911865234365905,3.93701171875,52.894531249988177,11.142333984373181,77.475341796865905l52.754882812510914-15.490234375c-5.755126953132276-19.66357421875-8.897216796882276-40.447021484366815-8.897216796882276-61.985107421865905Z" fill="#8f807d" stroke="#181818" stroke-linecap="round" stroke-linejoin="round" stroke-width="2"/>
          </a>
          <a xlink:href="https://www.notion.so/dmmnotes/sexual-supplementation-8e85f49046ef412aa229745abf7d38d3?pvs=4">
            <path id="A5-2" data-name="A5" d="M88.897216796880457,361.985107421869543l-52.754882812510914,15.490234375c7.463134765626819,25.456298828133185,18.506103515626819,49.365722656250909,32.551513671876819,71.175048828133185l46.223632812512733-29.704833984371362c-11.230957031260914-17.450683593760914-20.055664062510914-36.58251953125-26.020263671878638-56.960449218761823Z" fill="#8f807d" stroke="#181818" stroke-linecap="round" stroke-linejoin="round" stroke-width="2"/>
          </a>
          <a xlink:href="https://www.notion.so/dmmnotes/compulsive-isolated-self-reliance-b321873a73fa41aaaadd7192fde856a2?pvs=4">
            <path id="A6-2" data-name="A6" d="M114.917480468759095,418.945556640631366l-46.223632812512733,29.704833984371362c14.219970703123181,22.083251953114086,31.504150390630457,41.983154296864086,51.269775390630457,59.124999999996362l35.972900390621362-41.515869140617724c-15.815185546871362-13.712402343760914-29.643066406239086-29.637695312510914-41.019042968739086-47.31396484375Z" fill="#8f807d" stroke="#181818" stroke-linecap="round" stroke-linejoin="round" stroke-width="2"/>
          </a>
          <a xlink:href="https://www.notion.so/dmmnotes/delusional-idealization-743e2420b9994a48a7cab68190432e8a?pvs=4">
            <path id="A7-2" data-name="A7" d="M155.936523437498181,466.259521484381366l-35.972900390621362,41.515869140617724c19.687744140621362,17.074707031239086,41.811279296871362,31.385986328128638,65.803955078121362,42.36181640625l22.83251953125-49.996826171882276c-19.20166015625-8.773681640617724-36.91015625-20.222167968739086-52.66357421875-33.880859374985448Z" fill="#8f807d" stroke="#181818" stroke-linecap="round" stroke-linejoin="round" stroke-width="2"/>
          </a>
          <a xlink:href="https://www.notion.so/dmmnotes/externally-assembled-self-994ecb0895b844409b931d74a045c162?pvs=4">
            <path id="A8-2" data-name="A8" d="M208.600097656248181,500.140380859366815l-22.83251953125,49.996826171882276c23.45556640625,10.7314453125,48.659423828121362,18.275146484367724,75.098632812510914,22.04296875l7.825683593739086-54.4306640625c-21.15673828125-3.0078125-41.3251953125-9.0341796875-60.091796875-17.609130859382276Z" fill="#8f807d" stroke="#181818" stroke-linecap="round" stroke-linejoin="round" stroke-width="2"/>
          </a>
          <a xlink:href="https://www.notion.so/dmmnotes/psychopathy-0fe4a3222d9f4fd097ab4546c9776768?pvs=4">
            <path id="AC-2" data-name="AC" d="M299.999999999998181,519.999999999999091c-10.634765625,0-21.076171875-.794921875-31.30810546875-2.25048828125l-7.825683593739086,54.4306640625c12.788574218739086,1.823486328128638,25.843017578121362,2.81982421875,39.133789062489086,2.81982421875,13.290771484369543,0,26.345214843759095-.996337890621362,39.1337890625-2.81982421875l-7.825683593740905-54.4306640625c-10.229248046889552,1.45556640625-20.673339843759095,2.25048828125-31.308105468759095,2.25048828125Z" fill="#8f807d" stroke="#181818" stroke-linecap="round" stroke-linejoin="round" stroke-width="2"/>
          </a>
        </g>
      </g>
    </g>
  </g>
</svg>