<?xml version="1.0" encoding="UTF-8"?>
<svg id="Layer_1" data-name="Layer 1" xmlns="http://www.w3.org/2000/svg" xmlns:xlink="http://www.w3.org/1999/xlink" viewBox="0 0 600 599.999999999998181">
  <defs>
    <linearGradient id="A1-5" data-name="A1" x1="304.494626481100568" y1="271.984443673953137" x2="294.149260594404382" y2="446.942837346340525" gradientUnits="userSpaceOnUse">
      <stop offset="0" stop-color="#6a70a0"/>
      <stop offset=".5" stop-color="#52789c"/>
      <stop offset=".718915170605863" stop-color="#4f789b"/>
      <stop offset=".841614944399044" stop-color="#47799a"/>
      <stop offset=".940237931979561" stop-color="#397c99"/>
      <stop offset="1" stop-color="#2d7f98"/>
    </linearGradient>
  </defs>
  <g id="pie_with_links_-5" data-name="pie (with links)">
    <g id="pie_with_links_-6" data-name="pie (with links)">
      <g id="Pie">
        <g>
          <a xlink:href="https://www.notion.so/dmmnotes/paranoid-ae38b1e6af0c4dd08f61e0d8f6e9f05f?pvs=4">
            <path id="C8" d="M331.308105468760004,517.749511718748181l7.825683593739996,54.4306640625c26.439208984369543-3.767822265628638,51.645751953139552-11.3115234375,75.101318359369543-22.04296875l-22.832519531239086-49.996826171878638c-18.7666015625,8.572265625-38.93505859375,14.601318359378638-60.094482421870453,17.609130859378638Z" fill="none" stroke="#181818" stroke-linecap="round" stroke-linejoin="round" stroke-width="15"/>
          </a>
          <a xlink:href="https://www.notion.so/dmmnotes/menacing-a5bd7149286344deba45ec15e759e579?pvs=4">
            <path id="C7" d="M391.402587890630457,500.140380859369543l22.832519531239086,49.996826171878638c23.989990234390461-10.975830078117724,46.116210937520009-25.287109375010914,65.803955078140461-42.36181640625l-35.972900390629547-41.515869140617724c-15.753417968760914,13.65869140625-33.459228515630457,25.104492187489086-52.66357421875,33.880859374989086Z" fill="none" stroke="#181818" stroke-linecap="round" stroke-linejoin="round" stroke-width="15"/>
          </a>
          <a xlink:href="https://www.notion.so/dmmnotes/seductively-obsessed-with-rescue-6fb5a68f6d334bc29ccccc16d8a4e56e?pvs=4">
            <path id="C6" d="M444.066162109380457,466.259521484380457l35.972900390629547,41.515869140617724c19.762939453120453-17.141845703128638,37.047119140620453-37.041748046878638,51.26708984375-59.125l-46.223632812510004-29.704833984367724c-11.373291015619543,17.673583984367724-25.201171874989996,33.598876953117724-41.016357421869543,47.31396484375Z" fill="none" stroke="#181818" stroke-linecap="round" stroke-linejoin="round" stroke-width="15"/>
          </a>
          <a xlink:href="https://www.notion.so/dmmnotes/punitively-obsessed-with-revenge-33d2e77f37774316b42bccf4a60f9688?pvs=4">
            <path id="C5" d="M485.08251953125,418.945556640630457l46.223632812510004,29.704833984367724c14.048095703129547-21.809326171878638,25.08837890625-45.71875,32.551513671870453-71.175048828128638l-52.7548828125-15.490234375c-5.9619140625,20.377929687510914-14.789306640620453,39.509765625-26.020263671880457,56.960449218760914Z" fill="none" stroke="#181818" stroke-linecap="round" stroke-linejoin="round" stroke-width="15"/>
          </a>
          <a xlink:href="https://www.notion.so/dmmnotes/feigned-helpless-e79a94b0498c4e109a681b7f3dcdb088?pvs=4">
            <path id="C4" d="M520,300c0,21.538085937498181-3.142089843739996,42.321533203119543-8.897216796869543,61.985107421869543l52.7548828125,15.490234375c7.2080078125-24.583496093739086,11.142333984369543-50.5634765625,11.142333984369543-77.475341796869543h-55Z" fill="none" stroke="#181818" stroke-linecap="round" stroke-linejoin="round" stroke-width="15"/>
          </a>
          <a xlink:href="https://www.notion.so/dmmnotes/aggressive-2d8ccce383534b9dbfc7b4b10b8a5d5c?pvs=4">
            <path id="C3" d="M520,300h55c0-26.911865234390461-3.934326171869543-52.894531250011823-11.142333984369543-77.475341796890461l-52.7548828125,15.490234375c5.755126953129547,19.663574218760914,8.897216796869543,40.449707031260914,8.897216796869543,61.985107421890461Z" fill="none" stroke="#181818" stroke-linecap="round" stroke-linejoin="round" stroke-width="15"/>
          </a>
          <a xlink:href="https://www.notion.so/dmmnotes/disarming-086276e599884c86b9359acf831a8b20?pvs=4">
            <path id="C2" d="M511.102783203130457,238.014892578109539l52.7548828125-15.490234375c-7.463134765620453-25.456298828121362-18.503417968740905-49.365722656239086-32.551513671870453-71.177734374989086l-46.223632812510004,29.70751953125c11.230957031260004,17.45068359375,20.055664062510004,36.585205078117724,26.020263671880457,56.960449218739086Z" fill="none" stroke="#181818" stroke-linecap="round" stroke-linejoin="round" stroke-width="15"/>
          </a>
          <a xlink:href="https://www.notion.so/dmmnotes/threatening-348fe6a52f7a4fe69f768e98c6586932?pvs=4">
            <path id="C1" d="M485.08251953125,181.054443359370453l46.223632812510004-29.70751953125c-14.219970703129547-22.08056640625-31.504150390629547-41.980468750010914-51.26708984375-59.122314453120453l-35.972900390629547,41.518554687488177c15.815185546879547,13.71240234375,29.64306640625,29.637695312511823,41.016357421869543,47.311279296882276Z" fill="none" stroke="#181818" stroke-linecap="round" stroke-linejoin="round" stroke-width="15"/>
          </a>
          <a xlink:href="https://www.notion.so/dmmnotes/complaining-acceptance-8b40401a720c493ba73f7cde1567cf3d?pvs=4">
            <path id="B5" d="M444.066162109380457,133.743164062488177l35.972900390629547-41.518554687488177c-19.687744140620453-17.07470703125-41.81396484375-31.388671875-65.803955078140461-42.36181640625l-22.832519531239086,49.99951171875c19.204345703119543,8.773681640620453,36.910156249989086,20.22216796875,52.66357421875,33.880859374988177Z" fill="none" stroke="#181818" stroke-linecap="round" stroke-linejoin="round" stroke-width="15"/>
          </a>
          <a xlink:href="https://www.notion.so/dmmnotes/sentimental-bc554363322342b1b7ca4ccc02125049?pvs=4">
            <path id="B4" d="M391.402587890630457,99.8623046875l22.832519531239086-49.99951171875c-23.455566406229991-10.7314453125-48.662109375-18.275146484390461-75.101318359369543-22.042968749990905l-7.825683593739996,54.433349609361358c21.159423828120453,3.0078125,41.327880859370453,9.034179687489086,60.094482421870453,17.609130859379547Z" fill="none" stroke="#181818" stroke-linecap="round" stroke-linejoin="round" stroke-width="15"/>
          </a>
          <a xlink:href="https://www.notion.so/dmmnotes/comfortably-balanced-e76dc615a8b947aa915377cd02fcf716?pvs=4">
            <path id="B3" d="M300,80c10.634765625,0,21.078857421869543.797607421870453,31.308105468760004,2.253173828120453l7.825683593739996-54.433349609361358c-12.788574218739996-1.823486328138642-25.843017578130457-2.819824218759095-39.1337890625-2.819824218759095s-26.34521484375.996337890620453-39.133789062489996,2.819824218759095l7.825683593739996,54.433349609361358c10.23193359375-1.45556640625,20.67333984375-2.253173828120453,31.30810546875-2.253173828120453Z" fill="none" stroke="#181818" stroke-linecap="round" stroke-linejoin="round" stroke-width="15"/>
          </a>
          <a xlink:href="https://www.notion.so/dmmnotes/accepting-317d81273fff4cd9817cdf4a88efd378?pvs=4">
            <path id="B2" d="M268.69189453125,82.253173828120453l-7.825683593739996-54.433349609361358c-26.439208984390461,3.767822265600444-51.643066406260004,11.311523437490905-75.098632812510004,22.042968749990905l22.83251953125,49.99951171875c18.7666015625-8.574951171890461,38.93505859375-14.601318359379547,60.091796875-17.609130859379547Z" fill="none" stroke="#181818" stroke-linecap="round" stroke-linejoin="round" stroke-width="15"/>
          </a>
          <a xlink:href="https://www.notion.so/dmmnotes/distanced-from-past-2eabab7e9c77429f8e577f4e3e203653?pvs=4">
            <path id="B1" d="M208.60009765625,99.8623046875l-22.83251953125-49.99951171875c-23.99267578125,10.97314453125-46.1162109375,25.287109375-65.803955078119543,42.36181640625l35.972900390619543,41.515869140620453c15.75341796875-13.658691406260914,33.4619140625-25.1044921875,52.66357421875-33.878173828120453Z" fill="none" stroke="#181818" stroke-linecap="round" stroke-linejoin="round" stroke-width="15"/>
          </a>
          <a xlink:href="https://www.notion.so/dmmnotes/idealising-a52277f51ed14a42aae78081bb34b8be?pvs=4">
            <g id="A1">
              <path d="M114.9189453125,182.054687499994543c-.18505859375,0-.37255859375-.05126953125-.53955078125-.15869140625l-46.22607421875-29.70751953125c-.22314453125-.1435546875-.38037109375-.36962890625-.4365234375-.62939453125-.056640625-.25927734375-.00732421875-.5302734375.13623046875-.75341796875,14.23974609375-22.111328125,31.5517578125-42.0751953125,51.45556640625-59.33642578125.1826171875-.158203125.41552734375-.24462890625.6552734375-.24462890625.0234375,0,.04736328125.0009765625.0712890625.00244140625.2646484375.01904296875.5107421875.14208984375.6845703125.3427734375l35.97265625,41.51611328125c.361328125.4169921875.31640625,1.04833984375-.1005859375,1.41015625-15.79736328125,13.69970703125-29.53466796875,29.54638671875-40.8310546875,47.099609375-.19091796875.296875-.51318359375.458984375-.841796875.458984375Z" fill="none" stroke="#181818" stroke-linecap="round" stroke-linejoin="round" stroke-width="15"/>
              <path d="M119.963623046875,92.224609374994543l35.972900390625,41.515869140625c-15.815185546875,13.715087890625-29.64306640625,29.640380859375-41.016357421875,47.31396484375l-46.226318359375-29.70751953125c14.219970703125-22.08056640625,31.504150390625-41.98046875,51.269775390625-59.122314453125M119.963623046875,90.224609374994543c-.479736328125,0-.945556640625.172637939453125-1.310302734375.489059448242188-19.975341796875,17.323638916015625-37.349853515625,37.359268188476562-51.640869140625,59.550369262695312-.287353515625.44622802734375-.3857421875.9884033203125-.273193359375,1.507080078125.11279296875.518707275390625.4267578125.97137451171875.873291015625,1.258331298828125l46.226318359375,29.70751953125c.334716796875.21502685546875.709228515625.317718505859375,1.079345703125.317718505859375.65771484375,0,1.301513671875-.323944091796875,1.683837890625-.917938232421875,11.24462890625-17.473663330078125,24.91943359375-33.2481689453125,40.644775390625-46.88531494140625.834228515625-.723434448242188.92431640625-1.986129760742188.201171875-2.820663452148438l-35.972900390625-41.515853881835938c-.347412109375-.4010009765625-.840087890625-.647506713867188-1.369140625-.68524169921875-.047607421875-.003387451171875-.094970703125-.00506591796875-.142333984375-.00506591796875h0Z" fill="none" stroke="#181818" stroke-linecap="round" stroke-linejoin="round" stroke-width="15"/>
            </g>
          </a>
          <a xlink:href="https://www.notion.so/dmmnotes/distancing-9ac690cdca654729a17a5a255944e2d1?pvs=4">
            <path id="A2" d="M114.920166015619543,181.054443359370453l-46.226318359369543-29.70751953125c-14.04541015625,21.81201171875-25.08837890625,45.721435546867724-32.551513671880457,71.177734374989086l52.754882812510914,15.490234375c5.964599609369543-20.375244140621362,14.7919921875-39.509765624989086,26.022949218739086-56.960449218739086Z" fill="none" stroke="#181818" stroke-linecap="round" stroke-linejoin="round" stroke-width="15"/>
          </a>
          <a xlink:href="https://www.notion.so/dmmnotes/compulsive-caregiving-9c380c0928294f41ae10764aa0dee886?pvs=4">
            <path id="A3" d="M88.897216796880457,238.014892578109539l-52.754882812510914-15.490234375c-7.205322265619543,24.580810546878638-11.142333984369543,50.5634765625-11.142333984369543,77.475341796890461h55c0-21.535400390629547,3.14208984375-42.321533203129547,8.897216796880457-61.985107421890461Z" fill="none" stroke="#181818" stroke-linecap="round" stroke-linejoin="round" stroke-width="15"/>
          </a>
          <a xlink:href="https://www.notion.so/dmmnotes/compulsive-compliance-6d08b7ea9a424ce1a72b9184b7850414?pvs=4">
            <path id="A4" d="M80,300H25c0,26.911865234369543,3.93701171875,52.894531249987267,11.142333984369543,77.475341796869543l52.754882812510914-15.490234375c-5.755126953130457-19.66357421875-8.897216796880457-40.447021484371362-8.897216796880457-61.985107421869543Z" fill="none" stroke="#181818" stroke-linecap="round" stroke-linejoin="round" stroke-width="15"/>
          </a>
          <a xlink:href="https://www.notion.so/dmmnotes/sexual-supplementation-8e85f49046ef412aa229745abf7d38d3?pvs=4">
            <path id="A5" d="M88.897216796880457,361.985107421869543l-52.754882812510914,15.490234375c7.463134765630457,25.456298828128638,18.506103515630457,49.36572265625,32.551513671880457,71.175048828128638l46.223632812510004-29.704833984367724c-11.230957031260004-17.450683593760914-20.055664062510004-36.58251953125-26.020263671879547-56.960449218760914Z" fill="none" stroke="#181818" stroke-linecap="round" stroke-linejoin="round" stroke-width="15"/>
          </a>
          <a xlink:href="https://www.notion.so/dmmnotes/compulsive-isolated-self-reliance-b321873a73fa41aaaadd7192fde856a2?pvs=4">
            <path id="A6" d="M114.917480468760004,418.945556640630457l-46.223632812510004,29.704833984367724c14.219970703119543,22.083251953121362,31.504150390630457,41.983154296871362,51.269775390630457,59.125l35.972900390619543-41.515869140617724c-15.815185546869543-13.712402343760914-29.643066406239996-29.637695312510914-41.019042968739996-47.31396484375Z" fill="none" stroke="#181818" stroke-linecap="round" stroke-linejoin="round" stroke-width="15"/>
          </a>
          <a xlink:href="https://www.notion.so/dmmnotes/delusional-idealization-743e2420b9994a48a7cab68190432e8a?pvs=4">
            <path id="A7" d="M155.9365234375,466.259521484380457l-35.972900390619543,41.515869140617724c19.687744140619543,17.074707031239086,41.811279296869543,31.385986328132276,65.803955078119543,42.36181640625l22.83251953125-49.996826171878638c-19.20166015625-8.773681640621362-36.91015625-20.222167968739086-52.66357421875-33.880859374989086Z" fill="none" stroke="#181818" stroke-linecap="round" stroke-linejoin="round" stroke-width="15"/>
          </a>
          <a xlink:href="https://www.notion.so/dmmnotes/externally-assembled-self-994ecb0895b844409b931d74a045c162?pvs=4">
            <path id="A8" d="M208.60009765625,500.140380859369543l-22.83251953125,49.996826171878638c23.45556640625,10.7314453125,48.659423828119543,18.275146484371362,75.098632812510004,22.04296875l7.825683593739996-54.4306640625c-21.15673828125-3.0078125-41.3251953125-9.0341796875-60.091796875-17.609130859378638Z" fill="none" stroke="#181818" stroke-linecap="round" stroke-linejoin="round" stroke-width="15"/>
          </a>
          <a xlink:href="https://www.notion.so/dmmnotes/psychopathy-0fe4a3222d9f4fd097ab4546c9776768?pvs=4">
            <path id="AC" d="M300,519.999999999998181c-10.634765625,0-21.076171875-.794921875-31.30810546875-2.25048828125l-7.825683593739996,54.4306640625c12.788574218739996,1.823486328132276,25.843017578120453,2.81982421875,39.133789062489996,2.81982421875s26.345214843760004-.996337890617724,39.1337890625-2.81982421875l-7.825683593739996-54.4306640625c-10.229248046890461,1.45556640625-20.673339843760004,2.25048828125-31.308105468760004,2.25048828125Z" fill="none" stroke="#181818" stroke-linecap="round" stroke-linejoin="round" stroke-width="15"/>
          </a>
        </g>
        <g>
          <a xlink:href="https://www.notion.so/dmmnotes/paranoid-ae38b1e6af0c4dd08f61e0d8f6e9f05f?pvs=4">
            <path id="C8-2" data-name="C8" d="M331.308105468760004,517.749511718748181l7.825683593739996,54.4306640625c26.439208984369543-3.767822265628638,51.645751953139552-11.3115234375,75.101318359369543-22.04296875l-22.832519531239086-49.996826171878638c-18.7666015625,8.572265625-38.93505859375,14.601318359378638-60.094482421870453,17.609130859378638Z" fill="#8f807d" stroke="#181818" stroke-linecap="round" stroke-linejoin="round" stroke-width="2"/>
          </a>
          <a xlink:href="https://www.notion.so/dmmnotes/menacing-a5bd7149286344deba45ec15e759e579?pvs=4">
            <path id="C7-2" data-name="C7" d="M391.402587890630457,500.140380859369543l22.832519531239086,49.996826171878638c23.989990234390461-10.975830078117724,46.116210937520009-25.287109375010914,65.803955078140461-42.36181640625l-35.972900390629547-41.515869140617724c-15.753417968760914,13.65869140625-33.459228515630457,25.104492187489086-52.66357421875,33.880859374989086Z" fill="#8f807d" stroke="#181818" stroke-linecap="round" stroke-linejoin="round" stroke-width="2"/>
          </a>
          <a xlink:href="https://www.notion.so/dmmnotes/seductively-obsessed-with-rescue-6fb5a68f6d334bc29ccccc16d8a4e56e?pvs=4">
            <path id="C6-2" data-name="C6" d="M444.066162109380457,466.259521484380457l35.972900390629547,41.515869140617724c19.762939453120453-17.141845703128638,37.047119140620453-37.041748046878638,51.26708984375-59.125l-46.223632812510004-29.704833984367724c-11.373291015619543,17.673583984367724-25.201171874989996,33.598876953117724-41.016357421869543,47.31396484375Z" fill="#8f807d" stroke="#181818" stroke-linecap="round" stroke-linejoin="round" stroke-width="2"/>
          </a>
          <a xlink:href="https://www.notion.so/dmmnotes/punitively-obsessed-with-revenge-33d2e77f37774316b42bccf4a60f9688?pvs=4">
            <path id="C5-2" data-name="C5" d="M485.08251953125,418.945556640630457l46.223632812510004,29.704833984367724c14.048095703129547-21.809326171878638,25.08837890625-45.71875,32.551513671870453-71.175048828128638l-52.7548828125-15.490234375c-5.9619140625,20.377929687510914-14.789306640620453,39.509765625-26.020263671880457,56.960449218760914Z" fill="#8f807d" stroke="#181818" stroke-linecap="round" stroke-linejoin="round" stroke-width="2"/>
          </a>
          <a xlink:href="https://www.notion.so/dmmnotes/feigned-helpless-e79a94b0498c4e109a681b7f3dcdb088?pvs=4">
            <path id="C4-2" data-name="C4" d="M520,300c0,21.538085937498181-3.142089843739996,42.321533203119543-8.897216796869543,61.985107421869543l52.7548828125,15.490234375c7.2080078125-24.583496093739086,11.142333984369543-50.5634765625,11.142333984369543-77.475341796869543h-55Z" fill="#8f807d" stroke="#181818" stroke-linecap="round" stroke-linejoin="round" stroke-width="2"/>
          </a>
          <a xlink:href="https://www.notion.so/dmmnotes/aggressive-2d8ccce383534b9dbfc7b4b10b8a5d5c?pvs=4">
            <path id="C3-2" data-name="C3" d="M520,300h55c0-26.911865234390461-3.934326171869543-52.894531250011823-11.142333984369543-77.475341796890461l-52.7548828125,15.490234375c5.755126953129547,19.663574218760914,8.897216796869543,40.449707031260914,8.897216796869543,61.985107421890461Z" fill="#8f807d" stroke="#181818" stroke-linecap="round" stroke-linejoin="round" stroke-width="2"/>
          </a>
          <a xlink:href="https://www.notion.so/dmmnotes/disarming-086276e599884c86b9359acf831a8b20?pvs=4">
            <path id="C2-2" data-name="C2" d="M511.102783203130457,238.014892578109539l52.7548828125-15.490234375c-7.463134765620453-25.456298828121362-18.503417968740905-49.365722656239086-32.551513671870453-71.177734374989086l-46.223632812510004,29.70751953125c11.230957031260004,17.45068359375,20.055664062510004,36.585205078117724,26.020263671880457,56.960449218739086Z" fill="#8f807d" stroke="#181818" stroke-linecap="round" stroke-linejoin="round" stroke-width="2"/>
          </a>
          <a xlink:href="https://www.notion.so/dmmnotes/threatening-348fe6a52f7a4fe69f768e98c6586932?pvs=4">
            <path id="C1-2" data-name="C1" d="M485.08251953125,181.054443359370453l46.223632812510004-29.70751953125c-14.219970703129547-22.08056640625-31.504150390629547-41.980468750010914-51.26708984375-59.122314453120453l-35.972900390629547,41.518554687488177c15.815185546879547,13.71240234375,29.64306640625,29.637695312511823,41.016357421869543,47.311279296882276Z" fill="#8f807d" stroke="#181818" stroke-linecap="round" stroke-linejoin="round" stroke-width="2"/>
          </a>
          <a xlink:href="https://www.notion.so/dmmnotes/complaining-acceptance-8b40401a720c493ba73f7cde1567cf3d?pvs=4">
            <path id="B5-2" data-name="B5" d="M444.066162109380457,133.743164062488177l35.972900390629547-41.518554687488177c-19.687744140620453-17.07470703125-41.81396484375-31.388671875-65.803955078140461-42.36181640625l-22.832519531239086,49.99951171875c19.204345703119543,8.773681640620453,36.910156249989086,20.22216796875,52.66357421875,33.880859374988177Z" fill="#8f807d" stroke="#181818" stroke-linecap="round" stroke-linejoin="round" stroke-width="2"/>
          </a>
          <a xlink:href="https://www.notion.so/dmmnotes/sentimental-bc554363322342b1b7ca4ccc02125049?pvs=4">
            <path id="B4-2" data-name="B4" d="M391.402587890630457,99.8623046875l22.832519531239086-49.99951171875c-23.455566406229991-10.7314453125-48.662109375-18.275146484390461-75.101318359369543-22.042968749990905l-7.825683593739996,54.433349609361358c21.159423828120453,3.0078125,41.327880859370453,9.034179687489086,60.094482421870453,17.609130859379547Z" fill="#8f807d" stroke="#181818" stroke-linecap="round" stroke-linejoin="round" stroke-width="2"/>
          </a>
          <a xlink:href="https://www.notion.so/dmmnotes/comfortably-balanced-e76dc615a8b947aa915377cd02fcf716?pvs=4">
            <path id="B3-2" data-name="B3" d="M300,80c10.634765625,0,21.078857421869543.797607421870453,31.308105468760004,2.253173828120453l7.825683593739996-54.433349609361358c-12.788574218739996-1.823486328138642-25.843017578130457-2.819824218759095-39.1337890625-2.819824218759095s-26.34521484375.996337890620453-39.133789062489996,2.819824218759095l7.825683593739996,54.433349609361358c10.23193359375-1.45556640625,20.67333984375-2.253173828120453,31.30810546875-2.253173828120453Z" fill="#8f807d" stroke="#181818" stroke-linecap="round" stroke-linejoin="round" stroke-width="2"/>
          </a>
          <a xlink:href="https://www.notion.so/dmmnotes/accepting-317d81273fff4cd9817cdf4a88efd378?pvs=4">
            <path id="B2-2" data-name="B2" d="M268.69189453125,82.253173828120453l-7.825683593739996-54.433349609361358c-26.439208984390461,3.767822265600444-51.643066406260004,11.311523437490905-75.098632812510004,22.042968749990905l22.83251953125,49.99951171875c18.7666015625-8.574951171890461,38.93505859375-14.601318359379547,60.091796875-17.609130859379547Z" fill="#8f807d" stroke="#181818" stroke-linecap="round" stroke-linejoin="round" stroke-width="2"/>
          </a>
          <a xlink:href="https://www.notion.so/dmmnotes/distanced-from-past-2eabab7e9c77429f8e577f4e3e203653?pvs=4">
            <path id="B1-2" data-name="B1" d="M208.60009765625,99.8623046875l-22.83251953125-49.99951171875c-23.99267578125,10.97314453125-46.1162109375,25.287109375-65.803955078119543,42.36181640625l35.972900390619543,41.515869140620453c15.75341796875-13.658691406260914,33.4619140625-25.1044921875,52.66357421875-33.878173828120453Z" fill="#8f807d" stroke="#181818" stroke-linecap="round" stroke-linejoin="round" stroke-width="2"/>
          </a>
          <a xlink:href="https://www.notion.so/dmmnotes/idealising-a52277f51ed14a42aae78081bb34b8be?pvs=4">
            <g id="A1-2" data-name="A1">
              <path d="M114.9189453125,182.054687499994543c-.18505859375,0-.37255859375-.05126953125-.53955078125-.15869140625l-46.22607421875-29.70751953125c-.22314453125-.1435546875-.38037109375-.36962890625-.4365234375-.62939453125-.056640625-.25927734375-.00732421875-.5302734375.13623046875-.75341796875,14.23974609375-22.111328125,31.5517578125-42.0751953125,51.45556640625-59.33642578125.1826171875-.158203125.41552734375-.24462890625.6552734375-.24462890625.0234375,0,.04736328125.0009765625.0712890625.00244140625.2646484375.01904296875.5107421875.14208984375.6845703125.3427734375l35.97265625,41.51611328125c.361328125.4169921875.31640625,1.04833984375-.1005859375,1.41015625-15.79736328125,13.69970703125-29.53466796875,29.54638671875-40.8310546875,47.099609375-.19091796875.296875-.51318359375.458984375-.841796875.458984375Z" fill="#5e779a" stroke-width="0"/>
              <path d="M119.963623046875,92.224609374994543l35.972900390625,41.515869140625c-15.815185546875,13.715087890625-29.64306640625,29.640380859375-41.016357421875,47.31396484375l-46.226318359375-29.70751953125c14.219970703125-22.08056640625,31.504150390625-41.98046875,51.269775390625-59.122314453125M119.963623046875,90.224609374994543c-.479736328125,0-.945556640625.172637939453125-1.310302734375.489059448242188-19.975341796875,17.323638916015625-37.349853515625,37.359268188476562-51.640869140625,59.550369262695312-.287353515625.44622802734375-.3857421875.9884033203125-.273193359375,1.507080078125.11279296875.518707275390625.4267578125.97137451171875.873291015625,1.258331298828125l46.226318359375,29.70751953125c.334716796875.21502685546875.709228515625.317718505859375,1.079345703125.317718505859375.65771484375,0,1.301513671875-.323944091796875,1.683837890625-.917938232421875,11.24462890625-17.473663330078125,24.91943359375-33.2481689453125,40.644775390625-46.88531494140625.834228515625-.723434448242188.92431640625-1.986129760742188.201171875-2.820663452148438l-35.972900390625-41.515853881835938c-.347412109375-.4010009765625-.840087890625-.647506713867188-1.369140625-.68524169921875-.047607421875-.003387451171875-.094970703125-.00506591796875-.142333984375-.00506591796875h0Z" fill="#181818" stroke-width="0"/>
            </g>
          </a>
          <a xlink:href="https://www.notion.so/dmmnotes/distancing-9ac690cdca654729a17a5a255944e2d1?pvs=4">
            <path id="A2-2" data-name="A2" d="M114.920166015619543,181.054443359370453l-46.226318359369543-29.70751953125c-14.04541015625,21.81201171875-25.08837890625,45.721435546867724-32.551513671880457,71.177734374989086l52.754882812510914,15.490234375c5.964599609369543-20.375244140621362,14.7919921875-39.509765624989086,26.022949218739086-56.960449218739086Z" fill="#8f807d" stroke="#181818" stroke-linecap="round" stroke-linejoin="round" stroke-width="2"/>
          </a>
          <a xlink:href="https://www.notion.so/dmmnotes/compulsive-caregiving-9c380c0928294f41ae10764aa0dee886?pvs=4">
            <path id="A3-2" data-name="A3" d="M88.897216796880457,238.014892578109539l-52.754882812510914-15.490234375c-7.205322265619543,24.580810546878638-11.142333984369543,50.5634765625-11.142333984369543,77.475341796890461h55c0-21.535400390629547,3.14208984375-42.321533203129547,8.897216796880457-61.985107421890461Z" fill="#8f807d" stroke="#181818" stroke-linecap="round" stroke-linejoin="round" stroke-width="2"/>
          </a>
          <a xlink:href="https://www.notion.so/dmmnotes/compulsive-compliance-6d08b7ea9a424ce1a72b9184b7850414?pvs=4">
            <path id="A4-2" data-name="A4" d="M80,300H25c0,26.911865234369543,3.93701171875,52.894531249987267,11.142333984369543,77.475341796869543l52.754882812510914-15.490234375c-5.755126953130457-19.66357421875-8.897216796880457-40.447021484371362-8.897216796880457-61.985107421869543Z" fill="#8f807d" stroke="#181818" stroke-linecap="round" stroke-linejoin="round" stroke-width="2"/>
          </a>
          <a xlink:href="https://www.notion.so/dmmnotes/sexual-supplementation-8e85f49046ef412aa229745abf7d38d3?pvs=4">
            <path id="A5-2" data-name="A5" d="M88.897216796880457,361.985107421869543l-52.754882812510914,15.490234375c7.463134765630457,25.456298828128638,18.506103515630457,49.36572265625,32.551513671880457,71.175048828128638l46.223632812510004-29.704833984367724c-11.230957031260004-17.450683593760914-20.055664062510004-36.58251953125-26.020263671879547-56.960449218760914Z" fill="#8f807d" stroke="#181818" stroke-linecap="round" stroke-linejoin="round" stroke-width="2"/>
          </a>
          <a xlink:href="https://www.notion.so/dmmnotes/compulsive-isolated-self-reliance-b321873a73fa41aaaadd7192fde856a2?pvs=4">
            <path id="A6-2" data-name="A6" d="M114.917480468760004,418.945556640630457l-46.223632812510004,29.704833984367724c14.219970703119543,22.083251953121362,31.504150390630457,41.983154296871362,51.269775390630457,59.125l35.972900390619543-41.515869140617724c-15.815185546869543-13.712402343760914-29.643066406239996-29.637695312510914-41.019042968739996-47.31396484375Z" fill="#8f807d" stroke="#181818" stroke-linecap="round" stroke-linejoin="round" stroke-width="2"/>
          </a>
          <a xlink:href="https://www.notion.so/dmmnotes/delusional-idealization-743e2420b9994a48a7cab68190432e8a?pvs=4">
            <path id="A7-2" data-name="A7" d="M155.9365234375,466.259521484380457l-35.972900390619543,41.515869140617724c19.687744140619543,17.074707031239086,41.811279296869543,31.385986328132276,65.803955078119543,42.36181640625l22.83251953125-49.996826171878638c-19.20166015625-8.773681640621362-36.91015625-20.222167968739086-52.66357421875-33.880859374989086Z" fill="#8f807d" stroke="#181818" stroke-linecap="round" stroke-linejoin="round" stroke-width="2"/>
          </a>
          <a xlink:href="https://www.notion.so/dmmnotes/externally-assembled-self-994ecb0895b844409b931d74a045c162?pvs=4">
            <path id="A8-2" data-name="A8" d="M208.60009765625,500.140380859369543l-22.83251953125,49.996826171878638c23.45556640625,10.7314453125,48.659423828119543,18.275146484371362,75.098632812510004,22.04296875l7.825683593739996-54.4306640625c-21.15673828125-3.0078125-41.3251953125-9.0341796875-60.091796875-17.609130859378638Z" fill="#8f807d" stroke="#181818" stroke-linecap="round" stroke-linejoin="round" stroke-width="2"/>
          </a>
          <a xlink:href="https://www.notion.so/dmmnotes/psychopathy-0fe4a3222d9f4fd097ab4546c9776768?pvs=4">
            <path id="AC-2" data-name="AC" d="M300,519.999999999998181c-10.634765625,0-21.076171875-.794921875-31.30810546875-2.25048828125l-7.825683593739996,54.4306640625c12.788574218739996,1.823486328132276,25.843017578120453,2.81982421875,39.133789062489996,2.81982421875s26.345214843760004-.996337890617724,39.1337890625-2.81982421875l-7.825683593739996-54.4306640625c-10.229248046890461,1.45556640625-20.673339843760004,2.25048828125-31.308105468760004,2.25048828125Z" fill="#8f807d" stroke="#181818" stroke-linecap="round" stroke-linejoin="round" stroke-width="2"/>
          </a>
        </g>
      </g>
      <a xlink:href="https://www.notion.so/dmmnotes/A1-a52277f51ed14a42aae78081bb34b8be?pvs=4#15be845ece034f67b1ee123f668be41b">
        <g id="A1-3" data-name="A1">
          <g id="A1-4" data-name="A1">
            <path d="M299.9453125,414.710937499994543c-11.70654296875,0-23.2802734375-3.109375-33.4697265625-8.9921875-32.017578125-18.4853515625-43.02685546875-59.5732421875-24.54150390625-91.5908203125,11.9423828125-20.6845703125,34.21337890625-33.53369140625,58.12109375-33.53369140625,11.7060546875,0,23.27978515625,3.109375,33.46923828125,8.9921875,15.509765625,8.95458984375,26.6044921875,23.41357421875,31.23974609375,40.71240234375,4.63525390625,17.2998046875,2.25634765625,35.3681640625-6.6982421875,50.8779296875-11.94189453125,20.6845703125-34.21240234375,33.5341796875-58.12060546875,33.5341796875Z" fill="url(#A1-5)" stroke-width="0"/>
            <path d="M300.0546875,289.094055175775793c9.93359375-.000396728515625,19.99853515625,2.530029296875,29.2197265625,7.85382080078125,28.00341796875,16.167816162109375,37.59814453125,51.97564697265625,21.430419921875,79.97906494140625-10.843994140625,18.78228759765625-30.525634765625,29.28411865234375-50.75927734375,29.28411865234375-9.93359375,0-19.99853515625-2.530029296875-29.2197265625-7.85382080078125-28.00341796875-16.167755126953125-37.59814453125-51.9755859375-21.430419921875-79.97906494140625,10.843994140625-18.782318115234375,30.525634765625-29.283294677734375,50.75927734375-29.28411865234375M300.05712890625,272.094055175775793v17l-.00048828125-17h-.002685546875c-26.93505859375.001129150390625-52.02587890625,14.4791259765625-65.48095703125,37.78411865234375-20.828857421875,36.07672119140625-8.423828125,82.3726806640625,27.65283203125,103.20147705078125,11.47998046875,6.6280517578125,24.523193359375,10.13140869140625,37.7197265625,10.13140869140625,26.934814453125,0,52.02587890625-14.47808837890625,65.481689453125-37.78411865234375,20.828857421875-36.07666015625,8.423828125-82.372589111328125-27.65283203125-103.20147705078125-11.47998046875-6.6280517578125-24.5224609375-10.13140869140625-37.71728515625-10.13140869140625h0Z" fill="#181818" stroke-width="0"/>
          </g>
          <a xlink:href="https://www.notion.so/dmmnotes/A1-a52277f51ed14a42aae78081bb34b8be?pvs=4#15be845ece034f67b1ee123f668be41b">
            <g>
              <g>
                <path d="M290.58154296875,213.098632812494543c3.9765625,2.302734375,7.37890625,5.12890625,10.205078125,8.4775390625,2.82568359375,3.3515625,5.20556640625,7.013671875,7.1435546875,10.990234375,1.935546875,3.978515625,3.478515625,8.1904296875,4.63134765625,12.638671875,1.150390625,4.44921875,2.041015625,8.923828125,2.6689453125,13.4228515625,1.46435546875,8.8974609375,2.30126953125,17.8984375,2.51220703125,27.00390625.20849609375,9.1064453125.05126953125,18.2666015625-.47119140625,27.4755859375-.2109375,2.6171875-.41943359375,4.763671875-.6279296875,6.4365234375-.2109375,1.67578125-.603515625,3.037109375-1.177734375,4.08203125-.576171875,1.0478515625-1.38818359375,1.884765625-2.43310546875,2.5126953125-1.0478515625.6279296875-2.51220703125,1.2021484375-4.39599609375,1.7265625-1.78125.208984375-3.63818359375.365234375-5.57373046875.470703125-1.93798828125.103515625-3.74365234375-.4189453125-5.41650390625-1.5693359375-1.56982421875-1.044921875-2.8798828125-2.826171875-3.9248046875-5.337890625-1.0478515625-2.5126953125-1.6240234375-6.123046875-1.72705078125-10.8330078125v-1.5703125c-2.61767578125-.314453125-5.73046875-.57421875-9.341796875-.78515625-3.61083984375-.2080078125-7.30029296875-.3388671875-11.068359375-.392578125-3.76806640625-.0517578125-7.40576171875-.078125-10.91162109375-.078125h-8.8701171875c-.10546875.94140625-.23583984375,2.51171875-.392578125,4.7099609375-.1572265625,2.1982421875-.498046875,4.3955078125-1.0205078125,6.59375-.52490234375,2.1982421875-1.2314453125,4.1875-2.11962890625,5.9658203125-.890625,1.78125-2.11962890625,2.720703125-3.689453125,2.826171875-1.466796875.103515625-3.14013671875.208984375-5.02392578125.314453125-1.88427734375.1025390625-3.716796875-.10546875-5.4951171875-.6279296875-1.78076171875-.41796875-3.2724609375-1.2568359375-4.474609375-2.5126953125-1.20458984375-1.255859375-1.859375-3.2431640625-1.96240234375-5.9658203125,0-3.2431640625.0517578125-6.958984375.1572265625-11.146484375.10302734375-4.185546875.31396484375-8.73828125.6279296875-13.6591796875.20849609375-4.08203125.54931640625-8.556640625,1.0205078125-13.423828125.470703125-4.8671875,1.150390625-9.8642578125,2.041015625-14.9931640625.8876953125-5.126953125,2.041015625-10.2568359375,3.45361328125-15.38671875,1.4130859375-5.126953125,3.19189453125-9.9931640625,5.33837890625-14.6005859375,2.14404296875-4.6044921875,4.68310546875-8.84375,7.6142578125-12.716796875,2.92919921875-3.87109375,6.43701171875-7.1162109375,10.51904296875-9.734375,4.81298828125-3.0341796875,10.099609375-4.552734375,15.85693359375-4.552734375,5.75537109375,0,11.19873046875,1.4130859375,16.328125,4.2392578125ZM252.4306640625,284.533203124994543c6.59375-.5224609375,13.16064453125-.9150390625,19.703125-1.177734375,6.5400390625-.259765625,13.10986328125-.287109375,19.70361328125-.078125.31396484375-7.4306640625,0-14.076171875-.94189453125-19.939453125-.94189453125-5.8603515625-2.251953125-10.8056640625-3.9248046875-14.8359375-1.67578125-4.0283203125-3.6650390625-7.1162109375-5.96630859375-9.2626953125-2.30322265625-2.14453125-4.658203125-3.21875-7.06494140625-3.21875-2.0947265625,0-4.26611328125,1.07421875-6.515625,3.21875-2.251953125,2.146484375-4.34423828125,5.2861328125-6.27978515625,9.419921875-1.93798828125,4.1357421875-3.689453125,9.23828125-5.25927734375,15.306640625-1.5703125,6.072265625-2.72314453125,12.9287109375-3.4541015625,20.5673828125Z" fill="none" stroke="#181818" stroke-linecap="round" stroke-linejoin="round" stroke-width="33"/>
                <path d="M370.80712890625,224.873046874994543c-2.51171875,31.8193359375-3.61083984375,63.7958984375-3.296875,95.927734375-.10546875,1.15234375-.41943359375,2.197265625-.94189453125,3.1396484375-.52490234375.8388671875-1.31005859375,1.6484375-2.35498046875,2.43359375-1.04736328125.78515625-2.46044921875,1.2802734375-4.2392578125,1.4912109375-1.8837890625.208984375-3.794921875.3388671875-5.73046875.392578125-1.93798828125.0517578125-3.7431640625-.1328125-5.41650390625-.5498046875-1.67529296875-.4189453125-3.115234375-1.150390625-4.3173828125-2.197265625-1.20458984375-1.0458984375-1.96240234375-2.669921875-2.2763671875-4.8671875-.2109375-1.150390625-.34130859375-3.400390625-.392578125-6.7509765625-.05419921875-3.3486328125.0244140625-7.37890625.2353515625-12.0888671875.20849609375-4.8134765625.47119140625-10.0732421875.78515625-15.779296875.31396484375-5.703125.6279296875-11.43359375.94189453125-17.19140625.10302734375-.2080078125.1572265625-.5224609375.1572265625-.94140625-.6279296875-.103515625-1.388671875-.314453125-2.27685546875-.6279296875-.89013671875-.314453125-2.06787109375-.9423828125-3.5322265625-1.884765625-1.56982421875-1.044921875-3.1669921875-2.119140625-4.78857421875-3.2177734375-1.6240234375-1.099609375-3.08837890625-2.22265625-4.39599609375-3.3759765625-1.31005859375-1.150390625-2.33056640625-2.2490234375-3.0615234375-3.296875-.7333984375-1.044921875-.94189453125-2.041015625-.6279296875-2.9833984375.31396484375-.94140625,1.72705078125-3.0341796875,4.23876953125-6.279296875,1.15087890625-1.46484375,2.40673828125-3.140625,3.76806640625-5.0244140625,1.359375-1.8837890625,2.77197265625-3.8193359375,4.2392578125-5.80859375,1.46435546875-1.8837890625,2.798828125-3.7138671875,4.00341796875-5.4951171875,1.2021484375-1.7783203125,2.328125-3.400390625,3.37548828125-4.8671875,1.150390625-1.6728515625,2.24951171875-3.296875,3.296875-4.8671875.4169921875-.8359375,1.8056640625-1.333984375,4.16064453125-1.4912109375s4.8671875,0,7.5361328125.470703125c2.6689453125.4716796875,5.1025390625,1.205078125,7.30029296875,2.1982421875,2.1982421875.99609375,3.39990234375,2.173828125,3.61083984375,3.5322265625Z" fill="none" stroke="#181818" stroke-linecap="round" stroke-linejoin="round" stroke-width="33"/>
              </g>
              <g>
                <path d="M290.58154296875,213.098632812494543c3.9765625,2.302734375,7.37890625,5.12890625,10.205078125,8.4775390625,2.82568359375,3.3515625,5.20556640625,7.013671875,7.1435546875,10.990234375,1.935546875,3.978515625,3.478515625,8.1904296875,4.63134765625,12.638671875,1.150390625,4.44921875,2.041015625,8.923828125,2.6689453125,13.4228515625,1.46435546875,8.8974609375,2.30126953125,17.8984375,2.51220703125,27.00390625.20849609375,9.1064453125.05126953125,18.2666015625-.47119140625,27.4755859375-.2109375,2.6171875-.41943359375,4.763671875-.6279296875,6.4365234375-.2109375,1.67578125-.603515625,3.037109375-1.177734375,4.08203125-.576171875,1.0478515625-1.38818359375,1.884765625-2.43310546875,2.5126953125-1.0478515625.6279296875-2.51220703125,1.2021484375-4.39599609375,1.7265625-1.78125.208984375-3.63818359375.365234375-5.57373046875.470703125-1.93798828125.103515625-3.74365234375-.4189453125-5.41650390625-1.5693359375-1.56982421875-1.044921875-2.8798828125-2.826171875-3.9248046875-5.337890625-1.0478515625-2.5126953125-1.6240234375-6.123046875-1.72705078125-10.8330078125v-1.5703125c-2.61767578125-.314453125-5.73046875-.57421875-9.341796875-.78515625-3.61083984375-.2080078125-7.30029296875-.3388671875-11.068359375-.392578125-3.76806640625-.0517578125-7.40576171875-.078125-10.91162109375-.078125h-8.8701171875c-.10546875.94140625-.23583984375,2.51171875-.392578125,4.7099609375-.1572265625,2.1982421875-.498046875,4.3955078125-1.0205078125,6.59375-.52490234375,2.1982421875-1.2314453125,4.1875-2.11962890625,5.9658203125-.890625,1.78125-2.11962890625,2.720703125-3.689453125,2.826171875-1.466796875.103515625-3.14013671875.208984375-5.02392578125.314453125-1.88427734375.1025390625-3.716796875-.10546875-5.4951171875-.6279296875-1.78076171875-.41796875-3.2724609375-1.2568359375-4.474609375-2.5126953125-1.20458984375-1.255859375-1.859375-3.2431640625-1.96240234375-5.9658203125,0-3.2431640625.0517578125-6.958984375.1572265625-11.146484375.10302734375-4.185546875.31396484375-8.73828125.6279296875-13.6591796875.20849609375-4.08203125.54931640625-8.556640625,1.0205078125-13.423828125.470703125-4.8671875,1.150390625-9.8642578125,2.041015625-14.9931640625.8876953125-5.126953125,2.041015625-10.2568359375,3.45361328125-15.38671875,1.4130859375-5.126953125,3.19189453125-9.9931640625,5.33837890625-14.6005859375,2.14404296875-4.6044921875,4.68310546875-8.84375,7.6142578125-12.716796875,2.92919921875-3.87109375,6.43701171875-7.1162109375,10.51904296875-9.734375,4.81298828125-3.0341796875,10.099609375-4.552734375,15.85693359375-4.552734375,5.75537109375,0,11.19873046875,1.4130859375,16.328125,4.2392578125ZM252.4306640625,284.533203124994543c6.59375-.5224609375,13.16064453125-.9150390625,19.703125-1.177734375,6.5400390625-.259765625,13.10986328125-.287109375,19.70361328125-.078125.31396484375-7.4306640625,0-14.076171875-.94189453125-19.939453125-.94189453125-5.8603515625-2.251953125-10.8056640625-3.9248046875-14.8359375-1.67578125-4.0283203125-3.6650390625-7.1162109375-5.96630859375-9.2626953125-2.30322265625-2.14453125-4.658203125-3.21875-7.06494140625-3.21875-2.0947265625,0-4.26611328125,1.07421875-6.515625,3.21875-2.251953125,2.146484375-4.34423828125,5.2861328125-6.27978515625,9.419921875-1.93798828125,4.1357421875-3.689453125,9.23828125-5.25927734375,15.306640625-1.5703125,6.072265625-2.72314453125,12.9287109375-3.4541015625,20.5673828125Z" fill="#fff" stroke-width="0"/>
                <path d="M370.80712890625,224.873046874994543c-2.51171875,31.8193359375-3.61083984375,63.7958984375-3.296875,95.927734375-.10546875,1.15234375-.41943359375,2.197265625-.94189453125,3.1396484375-.52490234375.8388671875-1.31005859375,1.6484375-2.35498046875,2.43359375-1.04736328125.78515625-2.46044921875,1.2802734375-4.2392578125,1.4912109375-1.8837890625.208984375-3.794921875.3388671875-5.73046875.392578125-1.93798828125.0517578125-3.7431640625-.1328125-5.41650390625-.5498046875-1.67529296875-.4189453125-3.115234375-1.150390625-4.3173828125-2.197265625-1.20458984375-1.0458984375-1.96240234375-2.669921875-2.2763671875-4.8671875-.2109375-1.150390625-.34130859375-3.400390625-.392578125-6.7509765625-.05419921875-3.3486328125.0244140625-7.37890625.2353515625-12.0888671875.20849609375-4.8134765625.47119140625-10.0732421875.78515625-15.779296875.31396484375-5.703125.6279296875-11.43359375.94189453125-17.19140625.10302734375-.2080078125.1572265625-.5224609375.1572265625-.94140625-.6279296875-.103515625-1.388671875-.314453125-2.27685546875-.6279296875-.89013671875-.314453125-2.06787109375-.9423828125-3.5322265625-1.884765625-1.56982421875-1.044921875-3.1669921875-2.119140625-4.78857421875-3.2177734375-1.6240234375-1.099609375-3.08837890625-2.22265625-4.39599609375-3.3759765625-1.31005859375-1.150390625-2.33056640625-2.2490234375-3.0615234375-3.296875-.7333984375-1.044921875-.94189453125-2.041015625-.6279296875-2.9833984375.31396484375-.94140625,1.72705078125-3.0341796875,4.23876953125-6.279296875,1.15087890625-1.46484375,2.40673828125-3.140625,3.76806640625-5.0244140625,1.359375-1.8837890625,2.77197265625-3.8193359375,4.2392578125-5.80859375,1.46435546875-1.8837890625,2.798828125-3.7138671875,4.00341796875-5.4951171875,1.2021484375-1.7783203125,2.328125-3.400390625,3.37548828125-4.8671875,1.150390625-1.6728515625,2.24951171875-3.296875,3.296875-4.8671875.4169921875-.8359375,1.8056640625-1.333984375,4.16064453125-1.4912109375s4.8671875,0,7.5361328125.470703125c2.6689453125.4716796875,5.1025390625,1.205078125,7.30029296875,2.1982421875,2.1982421875.99609375,3.39990234375,2.173828125,3.61083984375,3.5322265625Z" fill="#fff" stroke-width="0"/>
              </g>
            </g>
          </a>
        </g>
      </a>
    </g>
  </g>
</svg>