<?xml version="1.0" encoding="UTF-8"?>
<svg id="Layer_1" data-name="Layer 1" xmlns="http://www.w3.org/2000/svg" xmlns:xlink="http://www.w3.org/1999/xlink" viewBox="0 0 600 599.999999999998181">
  <defs>
    <linearGradient id="C1-5" data-name="C1" x1="268.771196114703343" y1="381.07991370223499" x2="333.58654114325293" y2="311.700107756189368" gradientUnits="userSpaceOnUse">
      <stop offset="0" stop-color="#1f9276"/>
      <stop offset=".5" stop-color="#4b9669"/>
      <stop offset="1" stop-color="#679a5a"/>
    </linearGradient>
  </defs>
  <g id="pie_with_links_-5" data-name="pie (with links)">
    <g id="pie_with_links_-6" data-name="pie (with links)">
      <g id="Pie">
        <g>
          <a xlink:href="https://www.notion.so/dmmnotes/paranoid-ae38b1e6af0c4dd08f61e0d8f6e9f05f?pvs=4">
            <path id="C8" d="M331.30810546875,517.749511718748181l7.825683593739086,54.4306640625c26.439208984371362-3.767822265628638,51.645751953141371-11.3115234375,75.101318359371362-22.04296875l-22.832519531240905-49.996826171878638c-18.7666015625,8.572265625-38.93505859375,14.601318359378638-60.094482421869543,17.609130859378638Z" fill="none" stroke="#181818" stroke-linecap="round" stroke-linejoin="round" stroke-width="15"/>
          </a>
          <a xlink:href="https://www.notion.so/dmmnotes/menacing-a5bd7149286344deba45ec15e759e579?pvs=4">
            <path id="C7" d="M391.402587890619543,500.140380859369543l22.832519531240905,49.996826171878638c23.989990234389552-10.975830078117724,46.116210937520009-25.287109375010914,65.803955078139552-42.36181640625l-35.972900390630457-41.515869140617724c-15.753417968759095,13.65869140625-33.459228515630457,25.104492187489086-52.66357421875,33.880859374989086Z" fill="none" stroke="#181818" stroke-linecap="round" stroke-linejoin="round" stroke-width="15"/>
          </a>
          <a xlink:href="https://www.notion.so/dmmnotes/seductively-obsessed-with-rescue-6fb5a68f6d334bc29ccccc16d8a4e56e?pvs=4">
            <path id="C6" d="M444.066162109369543,466.259521484380457l35.972900390630457,41.515869140617724c19.762939453119543-17.141845703128638,37.047119140619543-37.041748046878638,51.26708984375-59.125l-46.223632812510914-29.704833984367724c-11.373291015619543,17.673583984367724-25.201171874989086,33.598876953117724-41.016357421869543,47.31396484375Z" fill="none" stroke="#181818" stroke-linecap="round" stroke-linejoin="round" stroke-width="15"/>
          </a>
          <a xlink:href="https://www.notion.so/dmmnotes/punitively-obsessed-with-revenge-33d2e77f37774316b42bccf4a60f9688?pvs=4">
            <path id="C5" d="M485.082519531239086,418.945556640630457l46.223632812510914,29.704833984367724c14.048095703130457-21.809326171878638,25.08837890625-45.71875,32.551513671869543-71.175048828128638l-52.7548828125-15.490234375c-5.9619140625,20.377929687510914-14.789306640619543,39.509765625-26.020263671880457,56.960449218760914Z" fill="none" stroke="#181818" stroke-linecap="round" stroke-linejoin="round" stroke-width="15"/>
          </a>
          <a xlink:href="https://www.notion.so/dmmnotes/feigned-helpless-e79a94b0498c4e109a681b7f3dcdb088?pvs=4">
            <path id="C4" d="M519.999999999989086,300c0,21.538085937498181-3.142089843739086,42.321533203119543-8.897216796869543,61.985107421869543l52.7548828125,15.490234375c7.2080078125-24.583496093739086,11.142333984369543-50.5634765625,11.142333984369543-77.475341796869543h-55Z" fill="none" stroke="#181818" stroke-linecap="round" stroke-linejoin="round" stroke-width="15"/>
          </a>
          <a xlink:href="https://www.notion.so/dmmnotes/aggressive-2d8ccce383534b9dbfc7b4b10b8a5d5c?pvs=4">
            <path id="C3" d="M519.999999999989086,300h55c0-26.911865234390461-3.934326171869543-52.894531250011823-11.142333984369543-77.475341796890461l-52.7548828125,15.490234375c5.755126953130457,19.663574218760914,8.897216796869543,40.449707031260914,8.897216796869543,61.985107421890461Z" fill="none" stroke="#181818" stroke-linecap="round" stroke-linejoin="round" stroke-width="15"/>
          </a>
          <a xlink:href="https://www.notion.so/dmmnotes/disarming-086276e599884c86b9359acf831a8b20?pvs=4">
            <path id="C2" d="M511.102783203119543,238.014892578109539l52.7548828125-15.490234375c-7.463134765619543-25.456298828121362-18.503417968739086-49.365722656239086-32.551513671869543-71.177734374989086l-46.223632812510914,29.70751953125c11.230957031260914,17.45068359375,20.055664062510914,36.585205078117724,26.020263671880457,56.960449218739086Z" fill="none" stroke="#181818" stroke-linecap="round" stroke-linejoin="round" stroke-width="15"/>
          </a>
          <a xlink:href="https://www.notion.so/dmmnotes/threatening-348fe6a52f7a4fe69f768e98c6586932?pvs=4">
            <g id="C1">
              <path d="M485.0830078125,182.054687499994543c-.3291015625,0-.650390625-.16162109375-.841796875-.458984375-11.296875-17.5546875-25.033203125-33.400390625-40.830078125-47.09716796875-.4169921875-.361328125-.4619140625-.99267578125-.1005859375-1.41015625l35.97265625-41.5185546875c.173828125-.20068359375.419921875-.32373046875.6845703125-.3427734375.0234375-.00146484375.0478515625-.00244140625.0712890625-.00244140625.240234375,0,.47265625.08642578125.6552734375.24462890625,19.9013671875,17.26220703125,37.212890625,37.2255859375,51.453125,59.33642578125.1435546875.22314453125.1923828125.494140625.13671875.75341796875-.056640625.25927734375-.2138671875.48583984375-.4365234375.62939453125l-46.224609375,29.70751953125c-.16796875.107421875-.3544921875.15869140625-.5400390625.15869140625Z" fill="none" stroke="#181818" stroke-linecap="round" stroke-linejoin="round" stroke-width="15"/>
              <path d="M480.0390625,92.224609374994543c19.762939453125,17.141845703125,37.047119140625,37.041748046875,51.26708984375,59.122314453125l-46.2236328125,29.70751953125c-11.373291015625-17.673583984375-25.201171875-33.598876953125-41.016357421875-47.311279296875l35.972900390625-41.5185546875M480.0391845703125,90.224609374994543c-.04736328125,0-.0948486328125.001678466796875-.142333984375.00506591796875-.529296875.037734985351562-1.0218505859375.284255981445312-1.369384765625.685287475585938l-35.972900390625,41.518539428710938c-.72314453125.834609985351562-.6329345703125,2.097335815429688.201416015625,2.820770263671875,15.723876953125,13.63323974609375,29.398681640625,29.40679931640625,40.6446533203125,46.882476806640625.38232421875.593963623046875,1.0262451171875.917938232421875,1.6837158203125.917938232421875.370361328125,0,.744873046875-.102691650390625,1.0794677734375-.3177490234375l46.2236328125-29.70751953125c.446533203125-.286956787109375.7606201171875-.7396240234375.8731689453125-1.25830078125s.014404296875-1.06085205078125-.27294921875-1.507080078125c-14.2900390625-22.189315795898438-31.66357421875-42.22491455078125-51.63818359375-59.550277709960938-.3648681640625-.31646728515625-.83056640625-.489151000976562-1.310302734375-.489151000976562h0Z" fill="none" stroke="#181818" stroke-linecap="round" stroke-linejoin="round" stroke-width="15"/>
            </g>
          </a>
          <a xlink:href="https://www.notion.so/dmmnotes/complaining-acceptance-8b40401a720c493ba73f7cde1567cf3d?pvs=4">
            <path id="B5" d="M444.066162109369543,133.743164062488177l35.972900390630457-41.518554687488177c-19.687744140619543-17.07470703125-41.81396484375-31.388671875-65.803955078139552-42.36181640625l-22.832519531240905,49.99951171875c19.204345703119543,8.773681640620453,36.910156249990905,20.22216796875,52.66357421875,33.880859374988177Z" fill="none" stroke="#181818" stroke-linecap="round" stroke-linejoin="round" stroke-width="15"/>
          </a>
          <a xlink:href="https://www.notion.so/dmmnotes/sentimental-bc554363322342b1b7ca4ccc02125049?pvs=4">
            <path id="B4" d="M391.402587890619543,99.8623046875l22.832519531240905-49.99951171875c-23.455566406229991-10.7314453125-48.662109375-18.275146484390461-75.101318359371362-22.042968749990905l-7.825683593739086,54.433349609361358c21.159423828119543,3.0078125,41.327880859369543,9.034179687489086,60.094482421869543,17.609130859379547Z" fill="none" stroke="#181818" stroke-linecap="round" stroke-linejoin="round" stroke-width="15"/>
          </a>
          <a xlink:href="https://www.notion.so/dmmnotes/comfortably-balanced-e76dc615a8b947aa915377cd02fcf716?pvs=4">
            <path id="B3" d="M299.999999999989086,80c10.634765625,0,21.078857421871362.797607421870453,31.308105468760914,2.253173828120453l7.825683593739086-54.433349609361358c-12.788574218739086-1.823486328138642-25.843017578128638-2.819824218759095-39.1337890625-2.819824218759095-13.290771484358629,0-26.34521484375.996337890620453-39.133789062489086,2.819824218759095l7.825683593739086,54.433349609361358c10.23193359375-1.45556640625,20.67333984375-2.253173828120453,31.30810546875-2.253173828120453Z" fill="none" stroke="#181818" stroke-linecap="round" stroke-linejoin="round" stroke-width="15"/>
          </a>
          <a xlink:href="https://www.notion.so/dmmnotes/accepting-317d81273fff4cd9817cdf4a88efd378?pvs=4">
            <path id="B2" d="M268.691894531239086,82.253173828120453l-7.825683593739086-54.433349609361358c-26.439208984389552,3.767822265600444-51.643066406260914,11.311523437490905-75.098632812510914,22.042968749990905l22.83251953125,49.99951171875c18.7666015625-8.574951171890461,38.93505859375-14.601318359379547,60.091796875-17.609130859379547Z" fill="none" stroke="#181818" stroke-linecap="round" stroke-linejoin="round" stroke-width="15"/>
          </a>
          <a xlink:href="https://www.notion.so/dmmnotes/distanced-from-past-2eabab7e9c77429f8e577f4e3e203653?pvs=4">
            <path id="B1" d="M208.600097656239086,99.8623046875l-22.83251953125-49.99951171875c-23.99267578125,10.97314453125-46.1162109375,25.287109375-65.803955078108629,42.36181640625l35.972900390608629,41.515869140620453c15.75341796875-13.658691406260914,33.4619140625-25.1044921875,52.66357421875-33.878173828120453Z" fill="none" stroke="#181818" stroke-linecap="round" stroke-linejoin="round" stroke-width="15"/>
          </a>
          <a xlink:href="https://www.notion.so/dmmnotes/idealising-a52277f51ed14a42aae78081bb34b8be?pvs=4">
            <path id="A1" d="M155.936523437489086,133.740478515620453l-35.972900390608629-41.515869140620453c-19.765625,17.141845703109539-37.049804687520009,37.041748046870453-51.269775390641371,59.122314453120453l46.226318359371362,29.70751953125c11.373291015639552-17.673583984370453,25.201171875020009-33.598876953132276,41.016357421878638-47.31396484375Z" fill="none" stroke="#181818" stroke-linecap="round" stroke-linejoin="round" stroke-width="15"/>
          </a>
          <a xlink:href="https://www.notion.so/dmmnotes/distancing-9ac690cdca654729a17a5a255944e2d1?pvs=4">
            <path id="A2" d="M114.920166015610448,181.054443359370453l-46.226318359371362-29.70751953125c-14.04541015625,21.81201171875-25.08837890625,45.721435546867724-32.551513671878638,71.177734374989086l52.754882812520009,15.490234375c5.964599609358629-20.375244140621362,14.7919921875-39.509765624989086,26.022949218729991-56.960449218739086Z" fill="none" stroke="#181818" stroke-linecap="round" stroke-linejoin="round" stroke-width="15"/>
          </a>
          <a xlink:href="https://www.notion.so/dmmnotes/compulsive-caregiving-9c380c0928294f41ae10764aa0dee886?pvs=4">
            <path id="A3" d="M88.897216796880457,238.014892578109539l-52.754882812520009-15.490234375c-7.205322265621362,24.580810546878638-11.142333984371362,50.5634765625-11.142333984371362,77.475341796890461h55c0-21.535400390629547,3.14208984375-42.321533203129547,8.897216796891371-61.985107421890461Z" fill="none" stroke="#181818" stroke-linecap="round" stroke-linejoin="round" stroke-width="15"/>
          </a>
          <a xlink:href="https://www.notion.so/dmmnotes/compulsive-compliance-6d08b7ea9a424ce1a72b9184b7850414?pvs=4">
            <path id="A4" d="M79.999999999989086,300H24.999999999989086c0,26.911865234369543,3.93701171875,52.894531249987267,11.142333984371362,77.475341796869543l52.754882812520009-15.490234375c-5.755126953141371-19.66357421875-8.897216796891371-40.447021484371362-8.897216796891371-61.985107421869543Z" fill="none" stroke="#181818" stroke-linecap="round" stroke-linejoin="round" stroke-width="15"/>
          </a>
          <a xlink:href="https://www.notion.so/dmmnotes/sexual-supplementation-8e85f49046ef412aa229745abf7d38d3?pvs=4">
            <path id="A5" d="M88.897216796880457,361.985107421869543l-52.754882812520009,15.490234375c7.463134765628638,25.456298828128638,18.506103515628638,49.36572265625,32.551513671878638,71.175048828128638l46.223632812510914-29.704833984367724c-11.230957031260914-17.450683593760914-20.055664062510914-36.58251953125-26.020263671869543-56.960449218760914Z" fill="none" stroke="#181818" stroke-linecap="round" stroke-linejoin="round" stroke-width="15"/>
          </a>
          <a xlink:href="https://www.notion.so/dmmnotes/compulsive-isolated-self-reliance-b321873a73fa41aaaadd7192fde856a2?pvs=4">
            <path id="A6" d="M114.91748046875,418.945556640630457l-46.223632812510914,29.704833984367724c14.219970703121362,22.083251953121362,31.504150390641371,41.983154296871362,51.269775390641371,59.125l35.972900390608629-41.515869140617724c-15.815185546858629-13.712402343760914-29.643066406239086-29.637695312510914-41.019042968739086-47.31396484375Z" fill="none" stroke="#181818" stroke-linecap="round" stroke-linejoin="round" stroke-width="15"/>
          </a>
          <a xlink:href="https://www.notion.so/dmmnotes/delusional-idealization-743e2420b9994a48a7cab68190432e8a?pvs=4">
            <path id="A7" d="M155.936523437489086,466.259521484380457l-35.972900390608629,41.515869140617724c19.687744140608629,17.074707031239086,41.811279296858629,31.385986328132276,65.803955078108629,42.36181640625l22.83251953125-49.996826171878638c-19.20166015625-8.773681640621362-36.91015625-20.222167968739086-52.66357421875-33.880859374989086Z" fill="none" stroke="#181818" stroke-linecap="round" stroke-linejoin="round" stroke-width="15"/>
          </a>
          <a xlink:href="https://www.notion.so/dmmnotes/externally-assembled-self-994ecb0895b844409b931d74a045c162?pvs=4">
            <path id="A8" d="M208.600097656239086,500.140380859369543l-22.83251953125,49.996826171878638c23.45556640625,10.7314453125,48.659423828121362,18.275146484371362,75.098632812510914,22.04296875l7.825683593739086-54.4306640625c-21.15673828125-3.0078125-41.3251953125-9.0341796875-60.091796875-17.609130859378638Z" fill="none" stroke="#181818" stroke-linecap="round" stroke-linejoin="round" stroke-width="15"/>
          </a>
          <a xlink:href="https://www.notion.so/dmmnotes/psychopathy-0fe4a3222d9f4fd097ab4546c9776768?pvs=4">
            <path id="AC" d="M299.999999999989086,519.999999999998181c-10.634765625,0-21.076171875-.794921875-31.30810546875-2.25048828125l-7.825683593739086,54.4306640625c12.788574218739086,1.823486328132276,25.843017578130457,2.81982421875,39.133789062489086,2.81982421875,13.290771484371362,0,26.345214843760914-.996337890617724,39.1337890625-2.81982421875l-7.825683593739086-54.4306640625c-10.229248046889552,1.45556640625-20.673339843760914,2.25048828125-31.308105468760914,2.25048828125Z" fill="none" stroke="#181818" stroke-linecap="round" stroke-linejoin="round" stroke-width="15"/>
          </a>
        </g>
        <g>
          <a xlink:href="https://www.notion.so/dmmnotes/paranoid-ae38b1e6af0c4dd08f61e0d8f6e9f05f?pvs=4">
            <path id="C8-2" data-name="C8" d="M331.30810546875,517.749511718748181l7.825683593739086,54.4306640625c26.439208984371362-3.767822265628638,51.645751953141371-11.3115234375,75.101318359371362-22.04296875l-22.832519531240905-49.996826171878638c-18.7666015625,8.572265625-38.93505859375,14.601318359378638-60.094482421869543,17.609130859378638Z" fill="#8f807d" stroke="#181818" stroke-linecap="round" stroke-linejoin="round" stroke-width="2"/>
          </a>
          <a xlink:href="https://www.notion.so/dmmnotes/menacing-a5bd7149286344deba45ec15e759e579?pvs=4">
            <path id="C7-2" data-name="C7" d="M391.402587890619543,500.140380859369543l22.832519531240905,49.996826171878638c23.989990234389552-10.975830078117724,46.116210937520009-25.287109375010914,65.803955078139552-42.36181640625l-35.972900390630457-41.515869140617724c-15.753417968759095,13.65869140625-33.459228515630457,25.104492187489086-52.66357421875,33.880859374989086Z" fill="#8f807d" stroke="#181818" stroke-linecap="round" stroke-linejoin="round" stroke-width="2"/>
          </a>
          <a xlink:href="https://www.notion.so/dmmnotes/seductively-obsessed-with-rescue-6fb5a68f6d334bc29ccccc16d8a4e56e?pvs=4">
            <path id="C6-2" data-name="C6" d="M444.066162109369543,466.259521484380457l35.972900390630457,41.515869140617724c19.762939453119543-17.141845703128638,37.047119140619543-37.041748046878638,51.26708984375-59.125l-46.223632812510914-29.704833984367724c-11.373291015619543,17.673583984367724-25.201171874989086,33.598876953117724-41.016357421869543,47.31396484375Z" fill="#8f807d" stroke="#181818" stroke-linecap="round" stroke-linejoin="round" stroke-width="2"/>
          </a>
          <a xlink:href="https://www.notion.so/dmmnotes/punitively-obsessed-with-revenge-33d2e77f37774316b42bccf4a60f9688?pvs=4">
            <path id="C5-2" data-name="C5" d="M485.082519531239086,418.945556640630457l46.223632812510914,29.704833984367724c14.048095703130457-21.809326171878638,25.08837890625-45.71875,32.551513671869543-71.175048828128638l-52.7548828125-15.490234375c-5.9619140625,20.377929687510914-14.789306640619543,39.509765625-26.020263671880457,56.960449218760914Z" fill="#8f807d" stroke="#181818" stroke-linecap="round" stroke-linejoin="round" stroke-width="2"/>
          </a>
          <a xlink:href="https://www.notion.so/dmmnotes/feigned-helpless-e79a94b0498c4e109a681b7f3dcdb088?pvs=4">
            <path id="C4-2" data-name="C4" d="M519.999999999989086,300c0,21.538085937498181-3.142089843739086,42.321533203119543-8.897216796869543,61.985107421869543l52.7548828125,15.490234375c7.2080078125-24.583496093739086,11.142333984369543-50.5634765625,11.142333984369543-77.475341796869543h-55Z" fill="#8f807d" stroke="#181818" stroke-linecap="round" stroke-linejoin="round" stroke-width="2"/>
          </a>
          <a xlink:href="https://www.notion.so/dmmnotes/aggressive-2d8ccce383534b9dbfc7b4b10b8a5d5c?pvs=4">
            <path id="C3-2" data-name="C3" d="M519.999999999989086,300h55c0-26.911865234390461-3.934326171869543-52.894531250011823-11.142333984369543-77.475341796890461l-52.7548828125,15.490234375c5.755126953130457,19.663574218760914,8.897216796869543,40.449707031260914,8.897216796869543,61.985107421890461Z" fill="#8f807d" stroke="#181818" stroke-linecap="round" stroke-linejoin="round" stroke-width="2"/>
          </a>
          <a xlink:href="https://www.notion.so/dmmnotes/disarming-086276e599884c86b9359acf831a8b20?pvs=4">
            <path id="C2-2" data-name="C2" d="M511.102783203119543,238.014892578109539l52.7548828125-15.490234375c-7.463134765619543-25.456298828121362-18.503417968739086-49.365722656239086-32.551513671869543-71.177734374989086l-46.223632812510914,29.70751953125c11.230957031260914,17.45068359375,20.055664062510914,36.585205078117724,26.020263671880457,56.960449218739086Z" fill="#8f807d" stroke="#181818" stroke-linecap="round" stroke-linejoin="round" stroke-width="2"/>
          </a>
          <a xlink:href="https://www.notion.so/dmmnotes/threatening-348fe6a52f7a4fe69f768e98c6586932?pvs=4">
            <g id="C1-2" data-name="C1">
              <path d="M485.0830078125,182.054687499994543c-.3291015625,0-.650390625-.16162109375-.841796875-.458984375-11.296875-17.5546875-25.033203125-33.400390625-40.830078125-47.09716796875-.4169921875-.361328125-.4619140625-.99267578125-.1005859375-1.41015625l35.97265625-41.5185546875c.173828125-.20068359375.419921875-.32373046875.6845703125-.3427734375.0234375-.00146484375.0478515625-.00244140625.0712890625-.00244140625.240234375,0,.47265625.08642578125.6552734375.24462890625,19.9013671875,17.26220703125,37.212890625,37.2255859375,51.453125,59.33642578125.1435546875.22314453125.1923828125.494140625.13671875.75341796875-.056640625.25927734375-.2138671875.48583984375-.4365234375.62939453125l-46.224609375,29.70751953125c-.16796875.107421875-.3544921875.15869140625-.5400390625.15869140625Z" fill="#589569" stroke-width="0"/>
              <path d="M480.0390625,92.224609374994543c19.762939453125,17.141845703125,37.047119140625,37.041748046875,51.26708984375,59.122314453125l-46.2236328125,29.70751953125c-11.373291015625-17.673583984375-25.201171875-33.598876953125-41.016357421875-47.311279296875l35.972900390625-41.5185546875M480.0391845703125,90.224609374994543c-.04736328125,0-.0948486328125.001678466796875-.142333984375.00506591796875-.529296875.037734985351562-1.0218505859375.284255981445312-1.369384765625.685287475585938l-35.972900390625,41.518539428710938c-.72314453125.834609985351562-.6329345703125,2.097335815429688.201416015625,2.820770263671875,15.723876953125,13.63323974609375,29.398681640625,29.40679931640625,40.6446533203125,46.882476806640625.38232421875.593963623046875,1.0262451171875.917938232421875,1.6837158203125.917938232421875.370361328125,0,.744873046875-.102691650390625,1.0794677734375-.3177490234375l46.2236328125-29.70751953125c.446533203125-.286956787109375.7606201171875-.7396240234375.8731689453125-1.25830078125s.014404296875-1.06085205078125-.27294921875-1.507080078125c-14.2900390625-22.189315795898438-31.66357421875-42.22491455078125-51.63818359375-59.550277709960938-.3648681640625-.31646728515625-.83056640625-.489151000976562-1.310302734375-.489151000976562h0Z" fill="#181818" stroke-width="0"/>
            </g>
          </a>
          <a xlink:href="https://www.notion.so/dmmnotes/complaining-acceptance-8b40401a720c493ba73f7cde1567cf3d?pvs=4">
            <path id="B5-2" data-name="B5" d="M444.066162109369543,133.743164062488177l35.972900390630457-41.518554687488177c-19.687744140619543-17.07470703125-41.81396484375-31.388671875-65.803955078139552-42.36181640625l-22.832519531240905,49.99951171875c19.204345703119543,8.773681640620453,36.910156249990905,20.22216796875,52.66357421875,33.880859374988177Z" fill="#8f807d" stroke="#181818" stroke-linecap="round" stroke-linejoin="round" stroke-width="2"/>
          </a>
          <a xlink:href="https://www.notion.so/dmmnotes/sentimental-bc554363322342b1b7ca4ccc02125049?pvs=4">
            <path id="B4-2" data-name="B4" d="M391.402587890619543,99.8623046875l22.832519531240905-49.99951171875c-23.455566406229991-10.7314453125-48.662109375-18.275146484390461-75.101318359371362-22.042968749990905l-7.825683593739086,54.433349609361358c21.159423828119543,3.0078125,41.327880859369543,9.034179687489086,60.094482421869543,17.609130859379547Z" fill="#8f807d" stroke="#181818" stroke-linecap="round" stroke-linejoin="round" stroke-width="2"/>
          </a>
          <a xlink:href="https://www.notion.so/dmmnotes/comfortably-balanced-e76dc615a8b947aa915377cd02fcf716?pvs=4">
            <path id="B3-2" data-name="B3" d="M299.999999999989086,80c10.634765625,0,21.078857421871362.797607421870453,31.308105468760914,2.253173828120453l7.825683593739086-54.433349609361358c-12.788574218739086-1.823486328138642-25.843017578128638-2.819824218759095-39.1337890625-2.819824218759095-13.290771484358629,0-26.34521484375.996337890620453-39.133789062489086,2.819824218759095l7.825683593739086,54.433349609361358c10.23193359375-1.45556640625,20.67333984375-2.253173828120453,31.30810546875-2.253173828120453Z" fill="#8f807d" stroke="#181818" stroke-linecap="round" stroke-linejoin="round" stroke-width="2"/>
          </a>
          <a xlink:href="https://www.notion.so/dmmnotes/accepting-317d81273fff4cd9817cdf4a88efd378?pvs=4">
            <path id="B2-2" data-name="B2" d="M268.691894531239086,82.253173828120453l-7.825683593739086-54.433349609361358c-26.439208984389552,3.767822265600444-51.643066406260914,11.311523437490905-75.098632812510914,22.042968749990905l22.83251953125,49.99951171875c18.7666015625-8.574951171890461,38.93505859375-14.601318359379547,60.091796875-17.609130859379547Z" fill="#8f807d" stroke="#181818" stroke-linecap="round" stroke-linejoin="round" stroke-width="2"/>
          </a>
          <a xlink:href="https://www.notion.so/dmmnotes/distanced-from-past-2eabab7e9c77429f8e577f4e3e203653?pvs=4">
            <path id="B1-2" data-name="B1" d="M208.600097656239086,99.8623046875l-22.83251953125-49.99951171875c-23.99267578125,10.97314453125-46.1162109375,25.287109375-65.803955078108629,42.36181640625l35.972900390608629,41.515869140620453c15.75341796875-13.658691406260914,33.4619140625-25.1044921875,52.66357421875-33.878173828120453Z" fill="#8f807d" stroke="#181818" stroke-linecap="round" stroke-linejoin="round" stroke-width="2"/>
          </a>
          <a xlink:href="https://www.notion.so/dmmnotes/idealising-a52277f51ed14a42aae78081bb34b8be?pvs=4">
            <path id="A1-2" data-name="A1" d="M155.936523437489086,133.740478515620453l-35.972900390608629-41.515869140620453c-19.765625,17.141845703109539-37.049804687520009,37.041748046870453-51.269775390641371,59.122314453120453l46.226318359371362,29.70751953125c11.373291015639552-17.673583984370453,25.201171875020009-33.598876953132276,41.016357421878638-47.31396484375Z" fill="#8f807d" stroke="#181818" stroke-linecap="round" stroke-linejoin="round" stroke-width="2"/>
          </a>
          <a xlink:href="https://www.notion.so/dmmnotes/distancing-9ac690cdca654729a17a5a255944e2d1?pvs=4">
            <path id="A2-2" data-name="A2" d="M114.920166015610448,181.054443359370453l-46.226318359371362-29.70751953125c-14.04541015625,21.81201171875-25.08837890625,45.721435546867724-32.551513671878638,71.177734374989086l52.754882812520009,15.490234375c5.964599609358629-20.375244140621362,14.7919921875-39.509765624989086,26.022949218729991-56.960449218739086Z" fill="#8f807d" stroke="#181818" stroke-linecap="round" stroke-linejoin="round" stroke-width="2"/>
          </a>
          <a xlink:href="https://www.notion.so/dmmnotes/compulsive-caregiving-9c380c0928294f41ae10764aa0dee886?pvs=4">
            <path id="A3-2" data-name="A3" d="M88.897216796880457,238.014892578109539l-52.754882812520009-15.490234375c-7.205322265621362,24.580810546878638-11.142333984371362,50.5634765625-11.142333984371362,77.475341796890461h55c0-21.535400390629547,3.14208984375-42.321533203129547,8.897216796891371-61.985107421890461Z" fill="#8f807d" stroke="#181818" stroke-linecap="round" stroke-linejoin="round" stroke-width="2"/>
          </a>
          <a xlink:href="https://www.notion.so/dmmnotes/compulsive-compliance-6d08b7ea9a424ce1a72b9184b7850414?pvs=4">
            <path id="A4-2" data-name="A4" d="M79.999999999989086,300H24.999999999989086c0,26.911865234369543,3.93701171875,52.894531249987267,11.142333984371362,77.475341796869543l52.754882812520009-15.490234375c-5.755126953141371-19.66357421875-8.897216796891371-40.447021484371362-8.897216796891371-61.985107421869543Z" fill="#8f807d" stroke="#181818" stroke-linecap="round" stroke-linejoin="round" stroke-width="2"/>
          </a>
          <a xlink:href="https://www.notion.so/dmmnotes/sexual-supplementation-8e85f49046ef412aa229745abf7d38d3?pvs=4">
            <path id="A5-2" data-name="A5" d="M88.897216796880457,361.985107421869543l-52.754882812520009,15.490234375c7.463134765628638,25.456298828128638,18.506103515628638,49.36572265625,32.551513671878638,71.175048828128638l46.223632812510914-29.704833984367724c-11.230957031260914-17.450683593760914-20.055664062510914-36.58251953125-26.020263671869543-56.960449218760914Z" fill="#8f807d" stroke="#181818" stroke-linecap="round" stroke-linejoin="round" stroke-width="2"/>
          </a>
          <a xlink:href="https://www.notion.so/dmmnotes/compulsive-isolated-self-reliance-b321873a73fa41aaaadd7192fde856a2?pvs=4">
            <path id="A6-2" data-name="A6" d="M114.91748046875,418.945556640630457l-46.223632812510914,29.704833984367724c14.219970703121362,22.083251953121362,31.504150390641371,41.983154296871362,51.269775390641371,59.125l35.972900390608629-41.515869140617724c-15.815185546858629-13.712402343760914-29.643066406239086-29.637695312510914-41.019042968739086-47.31396484375Z" fill="#8f807d" stroke="#181818" stroke-linecap="round" stroke-linejoin="round" stroke-width="2"/>
          </a>
          <a xlink:href="https://www.notion.so/dmmnotes/delusional-idealization-743e2420b9994a48a7cab68190432e8a?pvs=4">
            <path id="A7-2" data-name="A7" d="M155.936523437489086,466.259521484380457l-35.972900390608629,41.515869140617724c19.687744140608629,17.074707031239086,41.811279296858629,31.385986328132276,65.803955078108629,42.36181640625l22.83251953125-49.996826171878638c-19.20166015625-8.773681640621362-36.91015625-20.222167968739086-52.66357421875-33.880859374989086Z" fill="#8f807d" stroke="#181818" stroke-linecap="round" stroke-linejoin="round" stroke-width="2"/>
          </a>
          <a xlink:href="https://www.notion.so/dmmnotes/externally-assembled-self-994ecb0895b844409b931d74a045c162?pvs=4">
            <path id="A8-2" data-name="A8" d="M208.600097656239086,500.140380859369543l-22.83251953125,49.996826171878638c23.45556640625,10.7314453125,48.659423828121362,18.275146484371362,75.098632812510914,22.04296875l7.825683593739086-54.4306640625c-21.15673828125-3.0078125-41.3251953125-9.0341796875-60.091796875-17.609130859378638Z" fill="#8f807d" stroke="#181818" stroke-linecap="round" stroke-linejoin="round" stroke-width="2"/>
          </a>
          <a xlink:href="https://www.notion.so/dmmnotes/psychopathy-0fe4a3222d9f4fd097ab4546c9776768?pvs=4">
            <path id="AC-2" data-name="AC" d="M299.999999999989086,519.999999999998181c-10.634765625,0-21.076171875-.794921875-31.30810546875-2.25048828125l-7.825683593739086,54.4306640625c12.788574218739086,1.823486328132276,25.843017578130457,2.81982421875,39.133789062489086,2.81982421875,13.290771484371362,0,26.345214843760914-.996337890617724,39.1337890625-2.81982421875l-7.825683593739086-54.4306640625c-10.229248046889552,1.45556640625-20.673339843760914,2.25048828125-31.308105468760914,2.25048828125Z" fill="#8f807d" stroke="#181818" stroke-linecap="round" stroke-linejoin="round" stroke-width="2"/>
          </a>
        </g>
      </g>
      <a xlink:href="https://www.notion.so/dmmnotes/C1-348fe6a52f7a4fe69f768e98c6586932?pvs=4#aafe9eb6b5d2405bb7eb70c05c77aa3e">
        <g id="C1-3" data-name="C1">
          <g id="C1-4" data-name="C1">
            <path d="M299.9443359375,414.710937499994543c-11.70703125-.0009765625-23.2802734375-3.1103515625-33.46875-8.9921875-32.017578125-18.4853515625-43.02734375-59.5732421875-24.5419921875-91.5908203125,11.9423828125-20.6845703125,34.212890625-33.5341796875,58.12109375-33.5341796875,11.7060546875,0,23.2802734375,3.10986328125,33.4697265625,8.99267578125,15.509765625,8.95458984375,26.6044921875,23.41357421875,31.2392578125,40.71240234375,4.6357421875,17.2998046875,2.2568359375,35.3681640625-6.6982421875,50.8779296875-11.9423828125,20.6845703125-34.2119140625,33.5341796875-58.1171875,33.5341796875h-.00390625Z" fill="url(#C1-5)" stroke-width="0"/>
            <path d="M300.054443359375,289.093902587885168c9.931884765625,0,20.000244140625,2.530975341796875,29.2196044921875,7.853790283203125,28.00341796875,16.167816162109375,37.59814453125,51.97564697265625,21.4302978515625,79.97906494140625-10.844970703125,18.78399658203125-30.5235595703125,29.28411865234375-50.75927734375,29.28411865234375-9.931884765625,0-20.0003662109375-2.531005859375-29.2197265625-7.85382080078125-28.00341796875-16.167755126953125-37.59814453125-51.9755859375-21.4302978515625-79.97900390625,10.844970703125-18.784027099609375,30.523681640625-29.284149169921875,50.7593994140625-29.284149169921875M300.054443359375,272.093872070307043c-26.934814453125,0-52.0260009765625,14.478057861328125-65.4818115234375,37.7841796875-10.0899658203125,17.476165771484375-12.770263671875,37.835601806640625-7.54736328125,57.3277587890625,5.222900390625,19.4921875,17.723876953125,35.78375244140625,35.2000732421875,45.8736572265625,11.4801025390625,6.6280517578125,24.5233154296875,10.13140869140625,37.7197265625,10.13140869140625,26.934814453125,0,52.02587890625-14.47802734375,65.481689453125-37.78411865234375,10.0899658203125-17.476165771484375,12.770263671875-37.835601806640625,7.54736328125-57.32781982421875-5.222900390625-19.4921875-17.723876953125-35.783782958984375-35.2000732421875-45.8736572265625-11.4801025390625-6.6280517578125-24.5233154296875-10.13140869140625-37.7196044921875-10.13140869140625h0Z" fill="#181818" stroke-width="0"/>
          </g>
          <a xlink:href="https://www.notion.so/dmmnotes/C1-348fe6a52f7a4fe69f768e98c6586932?pvs=4#aafe9eb6b5d2405bb7eb70c05c77aa3e">
            <g>
              <g>
                <path d="M288.1484375,243.242187499994543c.1025390625-3.0341796875-.392578125-5.310546875-1.4912109375-6.8291015625-1.099609375-1.5166015625-2.48828125-2.4580078125-4.1611328125-2.826171875-1.6748046875-.365234375-3.48046875-.181640625-5.416015625.5498046875-1.9384765625.7333984375-3.689453125,1.7802734375-5.259765625,3.1396484375-3.6650390625,3.1396484375-6.62109375,7.1435546875-8.8701171875,12.0107421875-2.251953125,4.8662109375-3.7685546875,9.96875-4.5537109375,15.3076171875-.7841796875,5.337890625-.8388671875,10.6513671875-.15625,15.935546875.6787109375,5.2861328125,2.1708984375,9.8662109375,4.474609375,13.7373046875,1.4638671875,2.51171875,3.2177734375,4.37109375,5.2587890625,5.5732421875,2.041015625,1.2041015625,4.2119140625,1.8837890625,6.515625,2.041015625,2.30078125.1572265625,4.578125-.208984375,6.830078125-1.0986328125,2.2490234375-.888671875,4.2626953125-2.22265625,6.0439453125-4.00390625,2.720703125-2.720703125,4.9189453125-4.65625,6.59375-5.80859375,1.673828125-1.1513671875,3.5576171875-1.779296875,5.65234375-1.884765625,5.9658203125,0,9.916015625,1.67578125,11.853515625,5.0244140625,1.935546875,3.3505859375,2.0654296875,7.4326171875.392578125,12.24609375-1.361328125,3.767578125-3.4296875,7.064453125-6.201171875,9.890625-2.7744140625,2.826171875-5.9931640625,5.1025390625-9.65625,6.830078125-3.6650390625,1.7265625-7.58984375,2.9306640625-11.7744140625,3.6103515625-4.1875.6796875-8.3212890625.8642578125-12.4033203125.5498046875s-7.955078125-1.177734375-11.6181640625-2.5908203125c-3.6650390625-1.4130859375-6.8046875-3.3212890625-9.419921875-5.73046875-2.931640625-2.720703125-5.4951171875-5.8330078125-7.6923828125-9.3408203125-2.1982421875-3.505859375-4.03125-7.22265625-5.4951171875-11.1474609375-1.4677734375-3.9248046875-2.56640625-8.0068359375-3.296875-12.24609375-.734375-4.2392578125-1.099609375-8.501953125-1.099609375-12.794921875.208984375-9.62890625,2.25-18.943359375,6.123046875-27.9462890625,3.87109375-9.0009765625,9.0009765625-16.8505859375,15.3857421875-23.5498046875,2.9296875-3.03515625,6.41015625-5.625,10.4404296875-7.771484375,4.0283203125-2.14453125,8.1640625-3.533203125,12.4033203125-4.1611328125s8.3994140625-.4169921875,12.4814453125.6279296875c4.08203125,1.0478515625,7.693359375,3.24609375,10.8330078125,6.5947265625,2.40625,2.51171875,4.341796875,5.3916015625,5.8095703125,8.634765625,1.4638671875,3.2451171875,2.5634765625,6.4912109375,3.296875,9.7333984375.4169921875,2.095703125.6005859375,4.08203125.548828125,5.966796875-.0537109375,1.8837890625-.498046875,3.6650390625-1.333984375,5.337890625-1.1533203125,2.0947265625-2.931640625,3.5859375-5.337890625,4.474609375-2.4091796875.890625-4.7890625,1.1767578125-7.1435546875.86328125-2.35546875-.314453125-4.396484375-1.2294921875-6.123046875-2.748046875-1.7275390625-1.515625-2.5390625-3.583984375-2.43359375-6.201171875Z" fill="none" stroke="#181818" stroke-linecap="round" stroke-linejoin="round" stroke-width="33"/>
                <path d="M366.33203125,224.873046874994543c-2.51171875,31.8193359375-3.611328125,63.7958984375-3.296875,95.927734375-.10546875,1.15234375-.419921875,2.197265625-.9423828125,3.1396484375-.5244140625.8388671875-1.3095703125,1.6484375-2.3544921875,2.43359375-1.0478515625.78515625-2.4609375,1.2802734375-4.2392578125,1.4912109375-1.8837890625.208984375-3.794921875.3388671875-5.73046875.392578125-1.9384765625.0517578125-3.7431640625-.1328125-5.4169921875-.5498046875-1.6748046875-.4189453125-3.115234375-1.150390625-4.3173828125-2.197265625-1.2041015625-1.0458984375-1.9619140625-2.669921875-2.2763671875-4.8671875-.2109375-1.150390625-.3408203125-3.400390625-.392578125-6.7509765625-.0537109375-3.3486328125.0244140625-7.37890625.2353515625-12.0888671875.208984375-4.8134765625.4716796875-10.0732421875.78515625-15.779296875.314453125-5.703125.6279296875-11.43359375.9423828125-17.19140625.1025390625-.2080078125.1572265625-.5224609375.1572265625-.94140625-.6279296875-.103515625-1.388671875-.314453125-2.27734375-.6279296875-.8896484375-.314453125-2.0673828125-.9423828125-3.5322265625-1.884765625-1.5693359375-1.044921875-3.1669921875-2.119140625-4.7880859375-3.2177734375-1.6240234375-1.099609375-3.0888671875-2.22265625-4.396484375-3.3759765625-1.3095703125-1.150390625-2.330078125-2.2490234375-3.0615234375-3.296875-.7333984375-1.044921875-.94140625-2.041015625-.6279296875-2.9833984375.314453125-.94140625,1.7275390625-3.0341796875,4.2392578125-6.279296875,1.150390625-1.46484375,2.40625-3.140625,3.767578125-5.0244140625,1.359375-1.8837890625,2.7724609375-3.8193359375,4.2392578125-5.80859375,1.46484375-1.8837890625,2.798828125-3.7138671875,4.00390625-5.4951171875,1.2021484375-1.7783203125,2.328125-3.400390625,3.375-4.8671875,1.150390625-1.6728515625,2.25-3.296875,3.296875-4.8671875.4169921875-.8359375,1.8056640625-1.333984375,4.1611328125-1.4912109375,2.3544921875-.1572265625,4.8671875,0,7.5361328125.470703125,2.6689453125.4716796875,5.1025390625,1.205078125,7.2998046875,2.1982421875,2.1982421875.99609375,3.400390625,2.173828125,3.611328125,3.5322265625Z" fill="none" stroke="#181818" stroke-linecap="round" stroke-linejoin="round" stroke-width="33"/>
              </g>
              <g>
                <path d="M288.1484375,243.242187499994543c.1025390625-3.0341796875-.392578125-5.310546875-1.4912109375-6.8291015625-1.099609375-1.5166015625-2.48828125-2.4580078125-4.1611328125-2.826171875-1.6748046875-.365234375-3.48046875-.181640625-5.416015625.5498046875-1.9384765625.7333984375-3.689453125,1.7802734375-5.259765625,3.1396484375-3.6650390625,3.1396484375-6.62109375,7.1435546875-8.8701171875,12.0107421875-2.251953125,4.8662109375-3.7685546875,9.96875-4.5537109375,15.3076171875-.7841796875,5.337890625-.8388671875,10.6513671875-.15625,15.935546875.6787109375,5.2861328125,2.1708984375,9.8662109375,4.474609375,13.7373046875,1.4638671875,2.51171875,3.2177734375,4.37109375,5.2587890625,5.5732421875,2.041015625,1.2041015625,4.2119140625,1.8837890625,6.515625,2.041015625,2.30078125.1572265625,4.578125-.208984375,6.830078125-1.0986328125,2.2490234375-.888671875,4.2626953125-2.22265625,6.0439453125-4.00390625,2.720703125-2.720703125,4.9189453125-4.65625,6.59375-5.80859375,1.673828125-1.1513671875,3.5576171875-1.779296875,5.65234375-1.884765625,5.9658203125,0,9.916015625,1.67578125,11.853515625,5.0244140625,1.935546875,3.3505859375,2.0654296875,7.4326171875.392578125,12.24609375-1.361328125,3.767578125-3.4296875,7.064453125-6.201171875,9.890625-2.7744140625,2.826171875-5.9931640625,5.1025390625-9.65625,6.830078125-3.6650390625,1.7265625-7.58984375,2.9306640625-11.7744140625,3.6103515625-4.1875.6796875-8.3212890625.8642578125-12.4033203125.5498046875s-7.955078125-1.177734375-11.6181640625-2.5908203125c-3.6650390625-1.4130859375-6.8046875-3.3212890625-9.419921875-5.73046875-2.931640625-2.720703125-5.4951171875-5.8330078125-7.6923828125-9.3408203125-2.1982421875-3.505859375-4.03125-7.22265625-5.4951171875-11.1474609375-1.4677734375-3.9248046875-2.56640625-8.0068359375-3.296875-12.24609375-.734375-4.2392578125-1.099609375-8.501953125-1.099609375-12.794921875.208984375-9.62890625,2.25-18.943359375,6.123046875-27.9462890625,3.87109375-9.0009765625,9.0009765625-16.8505859375,15.3857421875-23.5498046875,2.9296875-3.03515625,6.41015625-5.625,10.4404296875-7.771484375,4.0283203125-2.14453125,8.1640625-3.533203125,12.4033203125-4.1611328125s8.3994140625-.4169921875,12.4814453125.6279296875c4.08203125,1.0478515625,7.693359375,3.24609375,10.8330078125,6.5947265625,2.40625,2.51171875,4.341796875,5.3916015625,5.8095703125,8.634765625,1.4638671875,3.2451171875,2.5634765625,6.4912109375,3.296875,9.7333984375.4169921875,2.095703125.6005859375,4.08203125.548828125,5.966796875-.0537109375,1.8837890625-.498046875,3.6650390625-1.333984375,5.337890625-1.1533203125,2.0947265625-2.931640625,3.5859375-5.337890625,4.474609375-2.4091796875.890625-4.7890625,1.1767578125-7.1435546875.86328125-2.35546875-.314453125-4.396484375-1.2294921875-6.123046875-2.748046875-1.7275390625-1.515625-2.5390625-3.583984375-2.43359375-6.201171875Z" fill="#fff" stroke-width="0"/>
                <path d="M366.33203125,224.873046874994543c-2.51171875,31.8193359375-3.611328125,63.7958984375-3.296875,95.927734375-.10546875,1.15234375-.419921875,2.197265625-.9423828125,3.1396484375-.5244140625.8388671875-1.3095703125,1.6484375-2.3544921875,2.43359375-1.0478515625.78515625-2.4609375,1.2802734375-4.2392578125,1.4912109375-1.8837890625.208984375-3.794921875.3388671875-5.73046875.392578125-1.9384765625.0517578125-3.7431640625-.1328125-5.4169921875-.5498046875-1.6748046875-.4189453125-3.115234375-1.150390625-4.3173828125-2.197265625-1.2041015625-1.0458984375-1.9619140625-2.669921875-2.2763671875-4.8671875-.2109375-1.150390625-.3408203125-3.400390625-.392578125-6.7509765625-.0537109375-3.3486328125.0244140625-7.37890625.2353515625-12.0888671875.208984375-4.8134765625.4716796875-10.0732421875.78515625-15.779296875.314453125-5.703125.6279296875-11.43359375.9423828125-17.19140625.1025390625-.2080078125.1572265625-.5224609375.1572265625-.94140625-.6279296875-.103515625-1.388671875-.314453125-2.27734375-.6279296875-.8896484375-.314453125-2.0673828125-.9423828125-3.5322265625-1.884765625-1.5693359375-1.044921875-3.1669921875-2.119140625-4.7880859375-3.2177734375-1.6240234375-1.099609375-3.0888671875-2.22265625-4.396484375-3.3759765625-1.3095703125-1.150390625-2.330078125-2.2490234375-3.0615234375-3.296875-.7333984375-1.044921875-.94140625-2.041015625-.6279296875-2.9833984375.314453125-.94140625,1.7275390625-3.0341796875,4.2392578125-6.279296875,1.150390625-1.46484375,2.40625-3.140625,3.767578125-5.0244140625,1.359375-1.8837890625,2.7724609375-3.8193359375,4.2392578125-5.80859375,1.46484375-1.8837890625,2.798828125-3.7138671875,4.00390625-5.4951171875,1.2021484375-1.7783203125,2.328125-3.400390625,3.375-4.8671875,1.150390625-1.6728515625,2.25-3.296875,3.296875-4.8671875.4169921875-.8359375,1.8056640625-1.333984375,4.1611328125-1.4912109375,2.3544921875-.1572265625,4.8671875,0,7.5361328125.470703125,2.6689453125.4716796875,5.1025390625,1.205078125,7.2998046875,2.1982421875,2.1982421875.99609375,3.400390625,2.173828125,3.611328125,3.5322265625Z" fill="#fff" stroke-width="0"/>
              </g>
            </g>
          </a>
        </g>
      </a>
    </g>
  </g>
</svg>