<?xml version="1.0" encoding="UTF-8"?>
<svg id="Layer_1" data-name="Layer 1" xmlns="http://www.w3.org/2000/svg" xmlns:xlink="http://www.w3.org/1999/xlink" viewBox="0 0 600 599.999999999998181">
  <defs>
    <linearGradient id="B3-5" data-name="B3" x1="277.779492019987629" y1="378.484269323489571" x2="320.970298578596726" y2="318.564629238667294" gradientUnits="userSpaceOnUse">
      <stop offset="0" stop-color="#008693"/>
      <stop offset=".5" stop-color="#008c8d"/>
      <stop offset="1" stop-color="#008f82"/>
    </linearGradient>
  </defs>
  <g id="pie_with_links_-5" data-name="pie (with links)">
    <g id="pie_with_links_-6" data-name="pie (with links)">
      <g id="Pie">
        <g>
          <a xlink:href="https://www.notion.so/dmmnotes/paranoid-ae38b1e6af0c4dd08f61e0d8f6e9f05f?pvs=4">
            <path id="C8" d="M331.308105468757276,517.749511718748181l7.825683593742724,54.4306640625c26.439208984367724-3.767822265628638,51.645751953139552-11.3115234375,75.101318359367724-22.04296875l-22.832519531239086-49.996826171878638c-18.7666015625,8.572265625-38.93505859375,14.601318359378638-60.094482421871362,17.609130859378638Z" fill="none" stroke="#181818" stroke-linecap="round" stroke-linejoin="round" stroke-width="15"/>
          </a>
          <a xlink:href="https://www.notion.so/dmmnotes/menacing-a5bd7149286344deba45ec15e759e579?pvs=4">
            <path id="C7" d="M391.402587890628638,500.140380859369543l22.832519531239086,49.996826171878638c23.989990234389552-10.975830078117724,46.116210937521828-25.287109375010914,65.803955078139552-42.36181640625l-35.972900390628638-41.515869140617724c-15.753417968760914,13.65869140625-33.459228515628638,25.104492187489086-52.66357421875,33.880859374989086Z" fill="none" stroke="#181818" stroke-linecap="round" stroke-linejoin="round" stroke-width="15"/>
          </a>
          <a xlink:href="https://www.notion.so/dmmnotes/seductively-obsessed-with-rescue-6fb5a68f6d334bc29ccccc16d8a4e56e?pvs=4">
            <path id="C6" d="M444.066162109378638,466.259521484380457l35.972900390628638,41.515869140617724c19.762939453121362-17.141845703128638,37.047119140621362-37.041748046878638,51.26708984375-59.125l-46.223632812507276-29.704833984367724c-11.373291015621362,17.673583984367724-25.201171874992724,33.598876953117724-41.016357421871362,47.31396484375Z" fill="none" stroke="#181818" stroke-linecap="round" stroke-linejoin="round" stroke-width="15"/>
          </a>
          <a xlink:href="https://www.notion.so/dmmnotes/punitively-obsessed-with-revenge-33d2e77f37774316b42bccf4a60f9688?pvs=4">
            <path id="C5" d="M485.08251953125,418.945556640630457l46.223632812507276,29.704833984367724c14.048095703132276-21.809326171878638,25.08837890625-45.71875,32.551513671871362-71.175048828128638l-52.7548828125-15.490234375c-5.9619140625,20.377929687510914-14.789306640621362,39.509765625-26.020263671878638,56.960449218760914Z" fill="none" stroke="#181818" stroke-linecap="round" stroke-linejoin="round" stroke-width="15"/>
          </a>
          <a xlink:href="https://www.notion.so/dmmnotes/feigned-helpless-e79a94b0498c4e109a681b7f3dcdb088?pvs=4">
            <path id="C4" d="M520,300c0,21.538085937498181-3.142089843742724,42.321533203119543-8.897216796871362,61.985107421869543l52.7548828125,15.490234375c7.2080078125-24.583496093739086,11.142333984371362-50.5634765625,11.142333984371362-77.475341796869543h-55Z" fill="none" stroke="#181818" stroke-linecap="round" stroke-linejoin="round" stroke-width="15"/>
          </a>
          <a xlink:href="https://www.notion.so/dmmnotes/aggressive-2d8ccce383534b9dbfc7b4b10b8a5d5c?pvs=4">
            <path id="C3" d="M520,300h55c0-26.911865234390461-3.934326171871362-52.894531250011823-11.142333984371362-77.475341796890461l-52.7548828125,15.490234375c5.755126953128638,19.663574218760914,8.897216796871362,40.449707031260914,8.897216796871362,61.985107421890461Z" fill="none" stroke="#181818" stroke-linecap="round" stroke-linejoin="round" stroke-width="15"/>
          </a>
          <a xlink:href="https://www.notion.so/dmmnotes/disarming-086276e599884c86b9359acf831a8b20?pvs=4">
            <path id="C2" d="M511.102783203128638,238.014892578109539l52.7548828125-15.490234375c-7.463134765621362-25.456298828121362-18.503417968739086-49.365722656239086-32.551513671871362-71.177734374989086l-46.223632812507276,29.70751953125c11.230957031257276,17.45068359375,20.055664062507276,36.585205078117724,26.020263671878638,56.960449218739086Z" fill="none" stroke="#181818" stroke-linecap="round" stroke-linejoin="round" stroke-width="15"/>
          </a>
          <a xlink:href="https://www.notion.so/dmmnotes/threatening-348fe6a52f7a4fe69f768e98c6586932?pvs=4">
            <path id="C1" d="M485.08251953125,181.054443359370453l46.223632812507276-29.70751953125c-14.219970703128638-22.08056640625-31.504150390628638-41.980468750010914-51.26708984375-59.122314453120453l-35.972900390628638,41.518554687488177c15.815185546878638,13.71240234375,29.64306640625,29.637695312511823,41.016357421871362,47.311279296882276Z" fill="none" stroke="#181818" stroke-linecap="round" stroke-linejoin="round" stroke-width="15"/>
          </a>
          <a xlink:href="https://www.notion.so/dmmnotes/complaining-acceptance-8b40401a720c493ba73f7cde1567cf3d?pvs=4">
            <path id="B5" d="M444.066162109378638,133.743164062488177l35.972900390628638-41.518554687488177c-19.687744140617724-17.07470703125-41.81396484375-31.388671875-65.803955078139552-42.36181640625l-22.832519531239086,49.99951171875c19.204345703121362,8.773681640620453,36.910156249989086,20.22216796875,52.66357421875,33.880859374988177Z" fill="none" stroke="#181818" stroke-linecap="round" stroke-linejoin="round" stroke-width="15"/>
          </a>
          <a xlink:href="https://www.notion.so/dmmnotes/sentimental-bc554363322342b1b7ca4ccc02125049?pvs=4">
            <path id="B4" d="M391.402587890628638,99.8623046875l22.832519531239086-49.99951171875c-23.455566406228172-10.7314453125-48.662109375-18.275146484390461-75.101318359367724-22.042968749990905l-7.825683593742724,54.433349609361358c21.159423828121362,3.0078125,41.327880859371362,9.034179687489086,60.094482421871362,17.609130859379547Z" fill="none" stroke="#181818" stroke-linecap="round" stroke-linejoin="round" stroke-width="15"/>
          </a>
          <a xlink:href="https://www.notion.so/dmmnotes/comfortably-balanced-e76dc615a8b947aa915377cd02fcf716?pvs=4">
            <g id="B3">
              <path d="M268.6904296875,83.253417968744543c-.4892578125,0-.91650390625-.359375-.98828125-.85791015625l-7.82568359375-54.43359375c-.03759765625-.2626953125.0302734375-.529296875.189453125-.74169921875s.396484375-.35302734375.6591796875-.39013671875c13.1708984375-1.8779296875,26.384765625-2.830078125,39.27490234375-2.830078125s26.10400390625.9521484375,39.27490234375,2.830078125c.2626953125.037109375.5.177734375.6591796875.39013671875s.22705078125.47900390625.189453125.74169921875l-7.82568359375,54.43359375c-.07177734375.49853515625-.4990234375.85791015625-.98828125.85791015625-.046875,0-.0947265625-.00341796875-.142578125-.009765625-10.4619140625-1.48876953125-20.94775390625-2.24365234375-31.1669921875-2.24365234375-10.216796875,0-20.70263671875.7548828125-31.16748046875,2.24365234375-.04736328125.0068359375-.09521484375.009765625-.14208984375.009765625Z" fill="none" stroke="#181818" stroke-linecap="round" stroke-linejoin="round" stroke-width="15"/>
              <path d="M300,24.999999999994543c13.290771484375,0,26.34521484375.996337890625,39.1337890625,2.81982421875l-7.82568359375,54.433349609375c-10.229248046875-1.45556640625-20.67333984375-2.253173828125-31.30810546875-2.253173828125s-21.076171875.797607421875-31.30810546875,2.253173828125l-7.82568359375-54.433349609375c12.78857421875-1.823486328125,25.843017578125-2.81982421875,39.1337890625-2.81982421875M300,22.999999999994543c-12.93890380859375,0-26.200408935546875.955474853515625-39.416107177734375,2.839859008789062-.5255126953125.074920654296875-.99969482421875.355697631835938-1.31805419921875.780471801757812s-.454803466796875.958663940429688-.3792724609375,1.484100341796875l7.82568359375,54.433334350585938c.143280029296875.996673583984375.99853515625,1.715667724609375,1.9771728515625,1.715667724609375.093780517578125,0,.188629150390625-.006591796875.284149169921875-.020187377929688,10.416778564453125-1.48187255859375,20.855560302734375-2.233245849609375,31.02642822265625-2.233245849609375,10.173583984375,0,20.61236572265625.751373291015625,31.026336669921875,2.233230590820312.095489501953125.013580322265625.190521240234375.02020263671875.28424072265625.02020263671875.978729248046875,0,1.8338623046875-.718902587890625,1.9771728515625-1.715667724609375l7.82568359375-54.433334350585938c.075531005859375-.525436401367188-.0609130859375-1.059326171875-.3792724609375-1.484100341796875s-.79254150390625-.705551147460938-1.31805419921875-.780471801757812c-13.2156982421875-1.884384155273438-26.477203369140625-2.839859008789062-39.416107177734375-2.839859008789062h0Z" fill="none" stroke="#181818" stroke-linecap="round" stroke-linejoin="round" stroke-width="15"/>
            </g>
          </a>
          <a xlink:href="https://www.notion.so/dmmnotes/accepting-317d81273fff4cd9817cdf4a88efd378?pvs=4">
            <path id="B2" d="M268.69189453125,82.253173828120453l-7.825683593742724-54.433349609361358c-26.439208984389552,3.767822265600444-51.643066406257276,11.311523437490905-75.098632812507276,22.042968749990905l22.83251953125,49.99951171875c18.7666015625-8.574951171890461,38.93505859375-14.601318359379547,60.091796875-17.609130859379547Z" fill="none" stroke="#181818" stroke-linecap="round" stroke-linejoin="round" stroke-width="15"/>
          </a>
          <a xlink:href="https://www.notion.so/dmmnotes/distanced-from-past-2eabab7e9c77429f8e577f4e3e203653?pvs=4">
            <path id="B1" d="M208.60009765625,99.8623046875l-22.83251953125-49.99951171875c-23.99267578125,10.97314453125-46.1162109375,25.287109375-65.803955078121362,42.36181640625l35.972900390621362,41.515869140620453c15.75341796875-13.658691406260914,33.4619140625-25.1044921875,52.66357421875-33.878173828120453Z" fill="none" stroke="#181818" stroke-linecap="round" stroke-linejoin="round" stroke-width="15"/>
          </a>
          <a xlink:href="https://www.notion.so/dmmnotes/idealising-a52277f51ed14a42aae78081bb34b8be?pvs=4">
            <path id="A1" d="M155.9365234375,133.740478515620453l-35.972900390621362-41.515869140620453c-19.765625,17.141845703109539-37.049804687510914,37.041748046870453-51.269775390628638,59.122314453120453l46.226318359367724,29.70751953125c11.373291015639552-17.673583984370453,25.201171875010914-33.598876953132276,41.016357421882276-47.31396484375Z" fill="none" stroke="#181818" stroke-linecap="round" stroke-linejoin="round" stroke-width="15"/>
          </a>
          <a xlink:href="https://www.notion.so/dmmnotes/distancing-9ac690cdca654729a17a5a255944e2d1?pvs=4">
            <path id="A2" d="M114.920166015617724,181.054443359370453l-46.226318359367724-29.70751953125c-14.04541015625,21.81201171875-25.08837890625,45.721435546867724-32.551513671882276,71.177734374989086l52.754882812510914,15.490234375c5.964599609371362-20.375244140621362,14.7919921875-39.509765624989086,26.022949218739086-56.960449218739086Z" fill="none" stroke="#181818" stroke-linecap="round" stroke-linejoin="round" stroke-width="15"/>
          </a>
          <a xlink:href="https://www.notion.so/dmmnotes/compulsive-caregiving-9c380c0928294f41ae10764aa0dee886?pvs=4">
            <path id="A3" d="M88.897216796878638,238.014892578109539l-52.754882812510914-15.490234375c-7.205322265617724,24.580810546878638-11.142333984367724,50.5634765625-11.142333984367724,77.475341796890461h55c0-21.535400390629547,3.14208984375-42.321533203129547,8.897216796878638-61.985107421890461Z" fill="none" stroke="#181818" stroke-linecap="round" stroke-linejoin="round" stroke-width="15"/>
          </a>
          <a xlink:href="https://www.notion.so/dmmnotes/compulsive-compliance-6d08b7ea9a424ce1a72b9184b7850414?pvs=4">
            <path id="A4" d="M80,300H25c0,26.911865234369543,3.93701171875,52.894531249987267,11.142333984367724,77.475341796869543l52.754882812510914-15.490234375c-5.755126953128638-19.66357421875-8.897216796878638-40.447021484371362-8.897216796878638-61.985107421869543Z" fill="none" stroke="#181818" stroke-linecap="round" stroke-linejoin="round" stroke-width="15"/>
          </a>
          <a xlink:href="https://www.notion.so/dmmnotes/sexual-supplementation-8e85f49046ef412aa229745abf7d38d3?pvs=4">
            <path id="A5" d="M88.897216796878638,361.985107421869543l-52.754882812510914,15.490234375c7.463134765632276,25.456298828128638,18.506103515632276,49.36572265625,32.551513671882276,71.175048828128638l46.223632812507276-29.704833984367724c-11.230957031257276-17.450683593760914-20.055664062507276-36.58251953125-26.020263671878638-56.960449218760914Z" fill="none" stroke="#181818" stroke-linecap="round" stroke-linejoin="round" stroke-width="15"/>
          </a>
          <a xlink:href="https://www.notion.so/dmmnotes/compulsive-isolated-self-reliance-b321873a73fa41aaaadd7192fde856a2?pvs=4">
            <path id="A6" d="M114.917480468757276,418.945556640630457l-46.223632812507276,29.704833984367724c14.219970703117724,22.083251953121362,31.504150390628638,41.983154296871362,51.269775390628638,59.125l35.972900390621362-41.515869140617724c-15.815185546871362-13.712402343760914-29.643066406242724-29.637695312510914-41.019042968742724-47.31396484375Z" fill="none" stroke="#181818" stroke-linecap="round" stroke-linejoin="round" stroke-width="15"/>
          </a>
          <a xlink:href="https://www.notion.so/dmmnotes/delusional-idealization-743e2420b9994a48a7cab68190432e8a?pvs=4">
            <path id="A7" d="M155.9365234375,466.259521484380457l-35.972900390621362,41.515869140617724c19.687744140621362,17.074707031239086,41.811279296871362,31.385986328132276,65.803955078121362,42.36181640625l22.83251953125-49.996826171878638c-19.20166015625-8.773681640621362-36.91015625-20.222167968739086-52.66357421875-33.880859374989086Z" fill="none" stroke="#181818" stroke-linecap="round" stroke-linejoin="round" stroke-width="15"/>
          </a>
          <a xlink:href="https://www.notion.so/dmmnotes/externally-assembled-self-994ecb0895b844409b931d74a045c162?pvs=4">
            <path id="A8" d="M208.60009765625,500.140380859369543l-22.83251953125,49.996826171878638c23.45556640625,10.7314453125,48.659423828117724,18.275146484371362,75.098632812507276,22.04296875l7.825683593742724-54.4306640625c-21.15673828125-3.0078125-41.3251953125-9.0341796875-60.091796875-17.609130859378638Z" fill="none" stroke="#181818" stroke-linecap="round" stroke-linejoin="round" stroke-width="15"/>
          </a>
          <a xlink:href="https://www.notion.so/dmmnotes/psychopathy-0fe4a3222d9f4fd097ab4546c9776768?pvs=4">
            <path id="AC" d="M300,519.999999999998181c-10.634765625,0-21.076171875-.794921875-31.30810546875-2.25048828125l-7.825683593742724,54.4306640625c12.788574218742724,1.823486328132276,25.843017578121362,2.81982421875,39.133789062492724,2.81982421875,13.290771484367724,0,26.345214843757276-.996337890617724,39.1337890625-2.81982421875l-7.825683593742724-54.4306640625c-10.229248046889552,1.45556640625-20.673339843757276,2.25048828125-31.308105468757276,2.25048828125Z" fill="none" stroke="#181818" stroke-linecap="round" stroke-linejoin="round" stroke-width="15"/>
          </a>
        </g>
        <g>
          <a xlink:href="https://www.notion.so/dmmnotes/paranoid-ae38b1e6af0c4dd08f61e0d8f6e9f05f?pvs=4">
            <path id="C8-2" data-name="C8" d="M331.308105468757276,517.749511718748181l7.825683593742724,54.4306640625c26.439208984367724-3.767822265628638,51.645751953139552-11.3115234375,75.101318359367724-22.04296875l-22.832519531239086-49.996826171878638c-18.7666015625,8.572265625-38.93505859375,14.601318359378638-60.094482421871362,17.609130859378638Z" fill="#8f807d" stroke="#181818" stroke-linecap="round" stroke-linejoin="round" stroke-width="2"/>
          </a>
          <a xlink:href="https://www.notion.so/dmmnotes/menacing-a5bd7149286344deba45ec15e759e579?pvs=4">
            <path id="C7-2" data-name="C7" d="M391.402587890628638,500.140380859369543l22.832519531239086,49.996826171878638c23.989990234389552-10.975830078117724,46.116210937521828-25.287109375010914,65.803955078139552-42.36181640625l-35.972900390628638-41.515869140617724c-15.753417968760914,13.65869140625-33.459228515628638,25.104492187489086-52.66357421875,33.880859374989086Z" fill="#8f807d" stroke="#181818" stroke-linecap="round" stroke-linejoin="round" stroke-width="2"/>
          </a>
          <a xlink:href="https://www.notion.so/dmmnotes/seductively-obsessed-with-rescue-6fb5a68f6d334bc29ccccc16d8a4e56e?pvs=4">
            <path id="C6-2" data-name="C6" d="M444.066162109378638,466.259521484380457l35.972900390628638,41.515869140617724c19.762939453121362-17.141845703128638,37.047119140621362-37.041748046878638,51.26708984375-59.125l-46.223632812507276-29.704833984367724c-11.373291015621362,17.673583984367724-25.201171874992724,33.598876953117724-41.016357421871362,47.31396484375Z" fill="#8f807d" stroke="#181818" stroke-linecap="round" stroke-linejoin="round" stroke-width="2"/>
          </a>
          <a xlink:href="https://www.notion.so/dmmnotes/punitively-obsessed-with-revenge-33d2e77f37774316b42bccf4a60f9688?pvs=4">
            <path id="C5-2" data-name="C5" d="M485.08251953125,418.945556640630457l46.223632812507276,29.704833984367724c14.048095703132276-21.809326171878638,25.08837890625-45.71875,32.551513671871362-71.175048828128638l-52.7548828125-15.490234375c-5.9619140625,20.377929687510914-14.789306640621362,39.509765625-26.020263671878638,56.960449218760914Z" fill="#8f807d" stroke="#181818" stroke-linecap="round" stroke-linejoin="round" stroke-width="2"/>
          </a>
          <a xlink:href="https://www.notion.so/dmmnotes/feigned-helpless-e79a94b0498c4e109a681b7f3dcdb088?pvs=4">
            <path id="C4-2" data-name="C4" d="M520,300c0,21.538085937498181-3.142089843742724,42.321533203119543-8.897216796871362,61.985107421869543l52.7548828125,15.490234375c7.2080078125-24.583496093739086,11.142333984371362-50.5634765625,11.142333984371362-77.475341796869543h-55Z" fill="#8f807d" stroke="#181818" stroke-linecap="round" stroke-linejoin="round" stroke-width="2"/>
          </a>
          <a xlink:href="https://www.notion.so/dmmnotes/aggressive-2d8ccce383534b9dbfc7b4b10b8a5d5c?pvs=4">
            <path id="C3-2" data-name="C3" d="M520,300h55c0-26.911865234390461-3.934326171871362-52.894531250011823-11.142333984371362-77.475341796890461l-52.7548828125,15.490234375c5.755126953128638,19.663574218760914,8.897216796871362,40.449707031260914,8.897216796871362,61.985107421890461Z" fill="#8f807d" stroke="#181818" stroke-linecap="round" stroke-linejoin="round" stroke-width="2"/>
          </a>
          <a xlink:href="https://www.notion.so/dmmnotes/disarming-086276e599884c86b9359acf831a8b20?pvs=4">
            <path id="C2-2" data-name="C2" d="M511.102783203128638,238.014892578109539l52.7548828125-15.490234375c-7.463134765621362-25.456298828121362-18.503417968739086-49.365722656239086-32.551513671871362-71.177734374989086l-46.223632812507276,29.70751953125c11.230957031257276,17.45068359375,20.055664062507276,36.585205078117724,26.020263671878638,56.960449218739086Z" fill="#8f807d" stroke="#181818" stroke-linecap="round" stroke-linejoin="round" stroke-width="2"/>
          </a>
          <a xlink:href="https://www.notion.so/dmmnotes/threatening-348fe6a52f7a4fe69f768e98c6586932?pvs=4">
            <path id="C1-2" data-name="C1" d="M485.08251953125,181.054443359370453l46.223632812507276-29.70751953125c-14.219970703128638-22.08056640625-31.504150390628638-41.980468750010914-51.26708984375-59.122314453120453l-35.972900390628638,41.518554687488177c15.815185546878638,13.71240234375,29.64306640625,29.637695312511823,41.016357421871362,47.311279296882276Z" fill="#8f807d" stroke="#181818" stroke-linecap="round" stroke-linejoin="round" stroke-width="2"/>
          </a>
          <a xlink:href="https://www.notion.so/dmmnotes/complaining-acceptance-8b40401a720c493ba73f7cde1567cf3d?pvs=4">
            <path id="B5-2" data-name="B5" d="M444.066162109378638,133.743164062488177l35.972900390628638-41.518554687488177c-19.687744140617724-17.07470703125-41.81396484375-31.388671875-65.803955078139552-42.36181640625l-22.832519531239086,49.99951171875c19.204345703121362,8.773681640620453,36.910156249989086,20.22216796875,52.66357421875,33.880859374988177Z" fill="#8f807d" stroke="#181818" stroke-linecap="round" stroke-linejoin="round" stroke-width="2"/>
          </a>
          <a xlink:href="https://www.notion.so/dmmnotes/sentimental-bc554363322342b1b7ca4ccc02125049?pvs=4">
            <path id="B4-2" data-name="B4" d="M391.402587890628638,99.8623046875l22.832519531239086-49.99951171875c-23.455566406228172-10.7314453125-48.662109375-18.275146484390461-75.101318359367724-22.042968749990905l-7.825683593742724,54.433349609361358c21.159423828121362,3.0078125,41.327880859371362,9.034179687489086,60.094482421871362,17.609130859379547Z" fill="#8f807d" stroke="#181818" stroke-linecap="round" stroke-linejoin="round" stroke-width="2"/>
          </a>
          <a xlink:href="https://www.notion.so/dmmnotes/comfortably-balanced-e76dc615a8b947aa915377cd02fcf716?pvs=4">
            <g id="B3-2" data-name="B3">
              <path d="M268.6904296875,83.253417968744543c-.4892578125,0-.91650390625-.359375-.98828125-.85791015625l-7.82568359375-54.43359375c-.03759765625-.2626953125.0302734375-.529296875.189453125-.74169921875s.396484375-.35302734375.6591796875-.39013671875c13.1708984375-1.8779296875,26.384765625-2.830078125,39.27490234375-2.830078125s26.10400390625.9521484375,39.27490234375,2.830078125c.2626953125.037109375.5.177734375.6591796875.39013671875s.22705078125.47900390625.189453125.74169921875l-7.82568359375,54.43359375c-.07177734375.49853515625-.4990234375.85791015625-.98828125.85791015625-.046875,0-.0947265625-.00341796875-.142578125-.009765625-10.4619140625-1.48876953125-20.94775390625-2.24365234375-31.1669921875-2.24365234375-10.216796875,0-20.70263671875.7548828125-31.16748046875,2.24365234375-.04736328125.0068359375-.09521484375.009765625-.14208984375.009765625Z" fill="#268887" stroke-width="0"/>
              <path d="M300,24.999999999994543c13.290771484375,0,26.34521484375.996337890625,39.1337890625,2.81982421875l-7.82568359375,54.433349609375c-10.229248046875-1.45556640625-20.67333984375-2.253173828125-31.30810546875-2.253173828125s-21.076171875.797607421875-31.30810546875,2.253173828125l-7.82568359375-54.433349609375c12.78857421875-1.823486328125,25.843017578125-2.81982421875,39.1337890625-2.81982421875M300,22.999999999994543c-12.93890380859375,0-26.200408935546875.955474853515625-39.416107177734375,2.839859008789062-.5255126953125.074920654296875-.99969482421875.355697631835938-1.31805419921875.780471801757812s-.454803466796875.958663940429688-.3792724609375,1.484100341796875l7.82568359375,54.433334350585938c.143280029296875.996673583984375.99853515625,1.715667724609375,1.9771728515625,1.715667724609375.093780517578125,0,.188629150390625-.006591796875.284149169921875-.020187377929688,10.416778564453125-1.48187255859375,20.855560302734375-2.233245849609375,31.02642822265625-2.233245849609375,10.173583984375,0,20.61236572265625.751373291015625,31.026336669921875,2.233230590820312.095489501953125.013580322265625.190521240234375.02020263671875.28424072265625.02020263671875.978729248046875,0,1.8338623046875-.718902587890625,1.9771728515625-1.715667724609375l7.82568359375-54.433334350585938c.075531005859375-.525436401367188-.0609130859375-1.059326171875-.3792724609375-1.484100341796875s-.79254150390625-.705551147460938-1.31805419921875-.780471801757812c-13.2156982421875-1.884384155273438-26.477203369140625-2.839859008789062-39.416107177734375-2.839859008789062h0Z" fill="#181818" stroke-width="0"/>
            </g>
          </a>
          <a xlink:href="https://www.notion.so/dmmnotes/accepting-317d81273fff4cd9817cdf4a88efd378?pvs=4">
            <path id="B2-2" data-name="B2" d="M268.69189453125,82.253173828120453l-7.825683593742724-54.433349609361358c-26.439208984389552,3.767822265600444-51.643066406257276,11.311523437490905-75.098632812507276,22.042968749990905l22.83251953125,49.99951171875c18.7666015625-8.574951171890461,38.93505859375-14.601318359379547,60.091796875-17.609130859379547Z" fill="#8f807d" stroke="#181818" stroke-linecap="round" stroke-linejoin="round" stroke-width="2"/>
          </a>
          <a xlink:href="https://www.notion.so/dmmnotes/distanced-from-past-2eabab7e9c77429f8e577f4e3e203653?pvs=4">
            <path id="B1-2" data-name="B1" d="M208.60009765625,99.8623046875l-22.83251953125-49.99951171875c-23.99267578125,10.97314453125-46.1162109375,25.287109375-65.803955078121362,42.36181640625l35.972900390621362,41.515869140620453c15.75341796875-13.658691406260914,33.4619140625-25.1044921875,52.66357421875-33.878173828120453Z" fill="#8f807d" stroke="#181818" stroke-linecap="round" stroke-linejoin="round" stroke-width="2"/>
          </a>
          <a xlink:href="https://www.notion.so/dmmnotes/idealising-a52277f51ed14a42aae78081bb34b8be?pvs=4">
            <path id="A1-2" data-name="A1" d="M155.9365234375,133.740478515620453l-35.972900390621362-41.515869140620453c-19.765625,17.141845703109539-37.049804687510914,37.041748046870453-51.269775390628638,59.122314453120453l46.226318359367724,29.70751953125c11.373291015639552-17.673583984370453,25.201171875010914-33.598876953132276,41.016357421882276-47.31396484375Z" fill="#8f807d" stroke="#181818" stroke-linecap="round" stroke-linejoin="round" stroke-width="2"/>
          </a>
          <a xlink:href="https://www.notion.so/dmmnotes/distancing-9ac690cdca654729a17a5a255944e2d1?pvs=4">
            <path id="A2-2" data-name="A2" d="M114.920166015617724,181.054443359370453l-46.226318359367724-29.70751953125c-14.04541015625,21.81201171875-25.08837890625,45.721435546867724-32.551513671882276,71.177734374989086l52.754882812510914,15.490234375c5.964599609371362-20.375244140621362,14.7919921875-39.509765624989086,26.022949218739086-56.960449218739086Z" fill="#8f807d" stroke="#181818" stroke-linecap="round" stroke-linejoin="round" stroke-width="2"/>
          </a>
          <a xlink:href="https://www.notion.so/dmmnotes/compulsive-caregiving-9c380c0928294f41ae10764aa0dee886?pvs=4">
            <path id="A3-2" data-name="A3" d="M88.897216796878638,238.014892578109539l-52.754882812510914-15.490234375c-7.205322265617724,24.580810546878638-11.142333984367724,50.5634765625-11.142333984367724,77.475341796890461h55c0-21.535400390629547,3.14208984375-42.321533203129547,8.897216796878638-61.985107421890461Z" fill="#8f807d" stroke="#181818" stroke-linecap="round" stroke-linejoin="round" stroke-width="2"/>
          </a>
          <a xlink:href="https://www.notion.so/dmmnotes/compulsive-compliance-6d08b7ea9a424ce1a72b9184b7850414?pvs=4">
            <path id="A4-2" data-name="A4" d="M80,300H25c0,26.911865234369543,3.93701171875,52.894531249987267,11.142333984367724,77.475341796869543l52.754882812510914-15.490234375c-5.755126953128638-19.66357421875-8.897216796878638-40.447021484371362-8.897216796878638-61.985107421869543Z" fill="#8f807d" stroke="#181818" stroke-linecap="round" stroke-linejoin="round" stroke-width="2"/>
          </a>
          <a xlink:href="https://www.notion.so/dmmnotes/sexual-supplementation-8e85f49046ef412aa229745abf7d38d3?pvs=4">
            <path id="A5-2" data-name="A5" d="M88.897216796878638,361.985107421869543l-52.754882812510914,15.490234375c7.463134765632276,25.456298828128638,18.506103515632276,49.36572265625,32.551513671882276,71.175048828128638l46.223632812507276-29.704833984367724c-11.230957031257276-17.450683593760914-20.055664062507276-36.58251953125-26.020263671878638-56.960449218760914Z" fill="#8f807d" stroke="#181818" stroke-linecap="round" stroke-linejoin="round" stroke-width="2"/>
          </a>
          <a xlink:href="https://www.notion.so/dmmnotes/compulsive-isolated-self-reliance-b321873a73fa41aaaadd7192fde856a2?pvs=4">
            <path id="A6-2" data-name="A6" d="M114.917480468757276,418.945556640630457l-46.223632812507276,29.704833984367724c14.219970703117724,22.083251953121362,31.504150390628638,41.983154296871362,51.269775390628638,59.125l35.972900390621362-41.515869140617724c-15.815185546871362-13.712402343760914-29.643066406242724-29.637695312510914-41.019042968742724-47.31396484375Z" fill="#8f807d" stroke="#181818" stroke-linecap="round" stroke-linejoin="round" stroke-width="2"/>
          </a>
          <a xlink:href="https://www.notion.so/dmmnotes/delusional-idealization-743e2420b9994a48a7cab68190432e8a?pvs=4">
            <path id="A7-2" data-name="A7" d="M155.9365234375,466.259521484380457l-35.972900390621362,41.515869140617724c19.687744140621362,17.074707031239086,41.811279296871362,31.385986328132276,65.803955078121362,42.36181640625l22.83251953125-49.996826171878638c-19.20166015625-8.773681640621362-36.91015625-20.222167968739086-52.66357421875-33.880859374989086Z" fill="#8f807d" stroke="#181818" stroke-linecap="round" stroke-linejoin="round" stroke-width="2"/>
          </a>
          <a xlink:href="https://www.notion.so/dmmnotes/externally-assembled-self-994ecb0895b844409b931d74a045c162?pvs=4">
            <path id="A8-2" data-name="A8" d="M208.60009765625,500.140380859369543l-22.83251953125,49.996826171878638c23.45556640625,10.7314453125,48.659423828117724,18.275146484371362,75.098632812507276,22.04296875l7.825683593742724-54.4306640625c-21.15673828125-3.0078125-41.3251953125-9.0341796875-60.091796875-17.609130859378638Z" fill="#8f807d" stroke="#181818" stroke-linecap="round" stroke-linejoin="round" stroke-width="2"/>
          </a>
          <a xlink:href="https://www.notion.so/dmmnotes/psychopathy-0fe4a3222d9f4fd097ab4546c9776768?pvs=4">
            <path id="AC-2" data-name="AC" d="M300,519.999999999998181c-10.634765625,0-21.076171875-.794921875-31.30810546875-2.25048828125l-7.825683593742724,54.4306640625c12.788574218742724,1.823486328132276,25.843017578121362,2.81982421875,39.133789062492724,2.81982421875,13.290771484367724,0,26.345214843757276-.996337890617724,39.1337890625-2.81982421875l-7.825683593742724-54.4306640625c-10.229248046889552,1.45556640625-20.673339843757276,2.25048828125-31.308105468757276,2.25048828125Z" fill="#8f807d" stroke="#181818" stroke-linecap="round" stroke-linejoin="round" stroke-width="2"/>
          </a>
        </g>
      </g>
      <a xlink:href="https://www.notion.so/dmmnotes/B3-e76dc615a8b947aa915377cd02fcf716?pvs=4#7be300007d3d476f91f22034c8a9d783">
        <g id="B3-3" data-name="B3">
          <a xlink:href="https://www.notion.so/dmmnotes/B3-e76dc615a8b947aa915377cd02fcf716?pvs=4#7be300007d3d476f91f22034c8a9d783">
            <g id="B3-4" data-name="B3">
              <path d="M300,414.706054687494543c-36.970703125,0-67.048828125-30.078125-67.048828125-67.048828125s30.078125-67.048828125,67.048828125-67.048828125,67.048828125,30.078125,67.048828125,67.048828125-30.078125,67.048828125-67.048828125,67.048828125Z" fill="url(#B3-5)" stroke-width="0"/>
              <path d="M300,289.108612060541418c32.335540771484375,0,58.548736572265625,26.21319580078125,58.548736572265625,58.548736572265625s-26.21319580078125,58.5487060546875-58.548736572265625,58.5487060546875-58.548736572265625-26.213165283203125-58.548736572265625-58.54876708984375c0-32.335479736328125,26.21319580078125-58.548675537109375,58.548736572265625-58.548675537109375M300,272.108612060541418c-41.65771484375,0-75.548736572265625,33.891021728515625-75.548736572265625,75.548675537109375,0,41.65771484375,33.891021728515625,75.54876708984375,75.548736572265625,75.54876708984375s75.548721313476562-33.8909912109375,75.548721313476562-75.5487060546875-33.891006469726562-75.548736572265625-75.548721313476562-75.548736572265625h0Z" fill="#181818" stroke-width="0"/>
            </g>
          </a>
          <a xlink:href="https://www.notion.so/dmmnotes/B3-e76dc615a8b947aa915377cd02fcf716?pvs=4#7be300007d3d476f91f22034c8a9d783">
            <g>
              <g>
                <path d="M290.10986328125,266.796874999994543c4.6044921875,3.5595703125,8.03173828125,7.982421875,10.28369140625,13.2666015625,2.24951171875,5.287109375,2.9560546875,10.7548828125,2.119140625,16.40625-.94189453125,6.3857421875-3.45361328125,11.7509765625-7.53564453125,16.0927734375-4.08203125,4.3447265625-8.8974609375,7.771484375-14.4443359375,10.283203125-5.548828125,2.5126953125-11.53955078125,4.1875-17.9765625,5.0244140625-6.4365234375.8369140625-12.4814453125.9423828125-18.13330078125.314453125-.52490234375.2080078125-.99609375.337890625-1.4130859375.392578125-.41943359375.05078125-.89013671875.1298828125-1.4130859375.2353515625-1.8837890625.1025390625-3.82177734375.1025390625-5.80859375,0-1.98974609375-.10546875-3.79541015625-.447265625-5.41650390625-1.0205078125-1.6240234375-.57421875-3.01025390625-1.5166015625-4.16064453125-2.826171875-1.15283203125-1.3076171875-1.83251953125-3.1650390625-2.041015625-5.5732421875-.2109375-1.1513671875-.2626953125-3.478515625-.1572265625-6.9873046875.10302734375-3.5048828125.20849609375-7.771484375.31396484375-12.794921875.208984375-5.126953125.392578125-10.701171875.5498046875-16.720703125.15673828125-6.017578125.287109375-12.0615234375.392578125-18.1337890625.10302734375-7.953125.20849609375-15.9599609375.31396484375-24.0205078125.10302734375-8.05859375-.2109375-16.1708984375-.94189453125-24.3349609375-.21142578125-.9423828125-.10546875-1.7783203125.31396484375-2.51171875.20849609375-.62890625.67919921875-1.2294921875,1.41259765625-1.8056640625.7314453125-.57421875,1.830078125-.966796875,3.29736328125-1.177734375,1.044921875-.103515625,2.19775390625-.259765625,3.45361328125-.470703125,1.25634765625-.208984375,2.56396484375-.3662109375,3.92529296875-.4716796875,1.35888671875-.1025390625,2.6689453125-.1025390625,3.9248046875,0,1.25634765625.10546875,2.35498046875.314453125,3.29736328125.6279296875,5.337890625-.73046875,10.93603515625-.7578125,16.798828125-.078125,5.8603515625.681640625,11.38232421875,2.068359375,16.5634765625,4.16015625,5.18115234375,2.095703125,9.68017578125,4.89453125,13.501953125,8.3994140625,3.8193359375,3.5087890625,6.3583984375,7.771484375,7.61474609375,12.7958984375.5224609375,2.1982421875.83642578125,4.501953125.94189453125,6.908203125.10302734375,2.4091796875-.1572265625,4.8935546875-.78515625,7.45703125-.6279296875,2.56640625-1.6484375,5.2353515625-3.0615234375,8.0068359375-1.4130859375,2.775390625-3.32373046875,5.6279296875-5.73046875,8.556640625ZM249.2900390625,257.534179687494543c5.02392578125.2109375,9.2626953125-.314453125,12.716796875-1.5703125s6.04443359375-2.904296875,7.771484375-4.9453125,2.5634765625-4.263671875,2.51220703125-6.6728515625c-.05419921875-2.40625-.96923828125-4.552734375-2.74755859375-6.4365234375-1.78125-1.8837890625-4.4501953125-3.3212890625-8.0068359375-4.3173828125-3.5595703125-.9931640625-8.06103515625-1.1240234375-13.50244140625-.392578125.31396484375,4.08203125.5498046875,8.1123046875.70654296875,12.0888671875.1572265625,3.9794921875.3388671875,8.0615234375.5498046875,12.24609375ZM249.7607421875,303.064453124994543c5.65234375.6279296875,10.41357421875.3681640625,14.287109375-.78515625,3.87109375-1.150390625,6.775390625-2.720703125,8.71337890625-4.7099609375,1.935546875-1.9873046875,2.92919921875-4.1337890625,2.9833984375-6.4375.05126953125-2.30078125-.86376953125-4.2900390625-2.74755859375-5.9658203125-1.88427734375-1.6728515625-4.76416015625-2.798828125-8.63525390625-3.375-3.87353515625-.57421875-8.740234375-.181640625-14.60107421875,1.1767578125v20.0966796875Z" fill="none" stroke="#181818" stroke-miterlimit="10" stroke-width="33"/>
                <path d="M366.56884765625,267.739257812494543c3.03466796875,3.6650390625,5.41650390625,8.0849609375,7.1435546875,13.2666015625,1.72705078125,5.1806640625,2.328125,10.283203125,1.8056640625,15.3076171875-.419921875,3.873046875-1.5703125,7.7197265625-3.4541015625,11.5390625-1.88427734375,3.822265625-4.29296875,7.2216796875-7.22216796875,10.205078125-2.931640625,2.9833984375-6.30712890625,5.3916015625-10.12646484375,7.2216796875-3.82177734375,1.8330078125-7.9287109375,2.748046875-12.32470703125,2.748046875-2.72265625,0-5.49462890625-.2900390625-8.32080078125-.86328125-2.826171875-.57421875-5.5732421875-1.38671875-8.24267578125-2.43359375-2.6689453125-1.044921875-5.15625-2.4072265625-7.45751953125-4.08203125-2.30322265625-1.6728515625-4.1875-3.611328125-5.65185546875-5.8095703125-1.56982421875-2.197265625-2.041015625-4.6044921875-1.4130859375-7.2216796875.6279296875-2.9287109375,1.85693359375-5.4677734375,3.689453125-7.6142578125,1.830078125-2.14453125,3.53271484375-3.8984375,5.1025390625-5.259765625.8369140625-.6279296875,1.88427734375-1.044921875,3.14013671875-1.255859375,1.255859375-.208984375,2.4580078125.3134765625,3.61083984375,1.5703125,1.88427734375,2.197265625,3.92529296875,3.951171875,6.123046875,5.2587890625,2.1982421875,1.310546875,4.369140625,2.041015625,6.515625,2.1982421875,2.14404296875.1572265625,4.18505859375-.3134765625,6.123046875-1.4130859375,1.935546875-1.0986328125,3.583984375-2.904296875,4.9453125-5.416015625.73095703125-1.46484375,1.15087890625-3.03515625,1.25634765625-4.7099609375.10302734375-1.673828125-.2109375-3.21875-.9423828125-4.6318359375-.7333984375-1.4130859375-1.93798828125-2.615234375-3.61083984375-3.611328125-1.67529296875-.9931640625-3.87353515625-1.5947265625-6.59375-1.8056640625-.21142578125.10546875-.3681640625.1328125-.47119140625.0791015625-.10546875-.0517578125-.2109375-.0791015625-.31396484375-.0791015625h-.31396484375c-.10546875.10546875-.2109375.1572265625-.31396484375.1572265625h-.6279296875c-.31396484375-.1025390625-.6552734375-.181640625-1.0205078125-.2353515625-.3681640625-.0517578125-.6552734375-.181640625-.86376953125-.392578125-1.15283203125-.3134765625-1.93798828125-1.255859375-2.35498046875-2.826171875-.41943359375-1.5693359375-.65478515625-3.296875-.70654296875-5.1806640625-.0537109375-1.8837890625.0244140625-3.7412109375.23583984375-5.5732421875.20849609375-1.830078125.470703125-3.1650390625.78466796875-4.00390625.4169921875-1.150390625.94189453125-2.119140625,1.5703125-2.904296875.6279296875-.78515625,1.35888671875-1.177734375,2.19775390625-1.177734375,2.615234375,0,4.91845703125-.8359375,6.908203125-2.51171875,1.98681640625-1.6728515625,3.39990234375-3.5576171875,4.23876953125-5.65234375.83642578125-2.0927734375.966796875-4.0546875.392578125-5.8876953125-.57666015625-1.830078125-2.17333984375-2.8505859375-4.78857421875-3.0615234375-1.78076171875-.2080078125-3.689453125.341796875-5.73046875,1.6494140625-2.041015625,1.3095703125-3.74365234375,3.3232421875-5.1025390625,6.0439453125-.52490234375,1.0478515625-.94189453125,2.068359375-1.255859375,3.0615234375-.31396484375.99609375-1.09912109375,1.75390625-2.35498046875,2.2763671875-1.04736328125.419921875-2.041015625.6279296875-2.98291015625.6279296875-3.037109375,0-5.94189453125-.8876953125-8.7138671875-2.6689453125-2.7744140625-1.7783203125-4.63134765625-4.2900390625-5.5732421875-7.5361328125-.41943359375-1.986328125-.3681640625-3.9248046875.15673828125-5.80859375.5224609375-1.8837890625,1.3076171875-3.7138671875,2.35498046875-5.4951171875,1.77880859375-2.9287109375,4.0283203125-5.4951171875,6.7509765625-7.693359375,2.720703125-2.197265625,5.73095703125-3.94921875,9.02783203125-5.2587890625,3.296875-1.3076171875,6.80224609375-2.1201171875,10.51904296875-2.43359375,3.7138671875-.314453125,7.45751953125,0,11.2255859375.94140625,4.7099609375,1.1533203125,8.58056640625,3.32421875,11.61767578125,6.515625,3.03466796875,3.1943359375,5.154296875,6.986328125,6.3583984375,11.3828125,1.2021484375,4.3955078125,1.4130859375,9.2109375.62841796875,14.4443359375-.78515625,5.234375-2.64453125,10.572265625-5.57373046875,16.013671875Z" fill="none" stroke="#181818" stroke-miterlimit="10" stroke-width="33"/>
              </g>
              <g>
                <path d="M290.10986328125,266.796874999994543c4.6044921875,3.5595703125,8.03173828125,7.982421875,10.28369140625,13.2666015625,2.24951171875,5.287109375,2.9560546875,10.7548828125,2.119140625,16.40625-.94189453125,6.3857421875-3.45361328125,11.7509765625-7.53564453125,16.0927734375-4.08203125,4.3447265625-8.8974609375,7.771484375-14.4443359375,10.283203125-5.548828125,2.5126953125-11.53955078125,4.1875-17.9765625,5.0244140625-6.4365234375.8369140625-12.4814453125.9423828125-18.13330078125.314453125-.52490234375.2080078125-.99609375.337890625-1.4130859375.392578125-.41943359375.05078125-.89013671875.1298828125-1.4130859375.2353515625-1.8837890625.1025390625-3.82177734375.1025390625-5.80859375,0-1.98974609375-.10546875-3.79541015625-.447265625-5.41650390625-1.0205078125-1.6240234375-.57421875-3.01025390625-1.5166015625-4.16064453125-2.826171875-1.15283203125-1.3076171875-1.83251953125-3.1650390625-2.041015625-5.5732421875-.2109375-1.1513671875-.2626953125-3.478515625-.1572265625-6.9873046875.10302734375-3.5048828125.20849609375-7.771484375.31396484375-12.794921875.208984375-5.126953125.392578125-10.701171875.5498046875-16.720703125.15673828125-6.017578125.287109375-12.0615234375.392578125-18.1337890625.10302734375-7.953125.20849609375-15.9599609375.31396484375-24.0205078125.10302734375-8.05859375-.2109375-16.1708984375-.94189453125-24.3349609375-.21142578125-.9423828125-.10546875-1.7783203125.31396484375-2.51171875.20849609375-.62890625.67919921875-1.2294921875,1.41259765625-1.8056640625.7314453125-.57421875,1.830078125-.966796875,3.29736328125-1.177734375,1.044921875-.103515625,2.19775390625-.259765625,3.45361328125-.470703125,1.25634765625-.208984375,2.56396484375-.3662109375,3.92529296875-.4716796875,1.35888671875-.1025390625,2.6689453125-.1025390625,3.9248046875,0,1.25634765625.10546875,2.35498046875.314453125,3.29736328125.6279296875,5.337890625-.73046875,10.93603515625-.7578125,16.798828125-.078125,5.8603515625.681640625,11.38232421875,2.068359375,16.5634765625,4.16015625,5.18115234375,2.095703125,9.68017578125,4.89453125,13.501953125,8.3994140625,3.8193359375,3.5087890625,6.3583984375,7.771484375,7.61474609375,12.7958984375.5224609375,2.1982421875.83642578125,4.501953125.94189453125,6.908203125.10302734375,2.4091796875-.1572265625,4.8935546875-.78515625,7.45703125-.6279296875,2.56640625-1.6484375,5.2353515625-3.0615234375,8.0068359375-1.4130859375,2.775390625-3.32373046875,5.6279296875-5.73046875,8.556640625ZM249.2900390625,257.534179687494543c5.02392578125.2109375,9.2626953125-.314453125,12.716796875-1.5703125s6.04443359375-2.904296875,7.771484375-4.9453125,2.5634765625-4.263671875,2.51220703125-6.6728515625c-.05419921875-2.40625-.96923828125-4.552734375-2.74755859375-6.4365234375-1.78125-1.8837890625-4.4501953125-3.3212890625-8.0068359375-4.3173828125-3.5595703125-.9931640625-8.06103515625-1.1240234375-13.50244140625-.392578125.31396484375,4.08203125.5498046875,8.1123046875.70654296875,12.0888671875.1572265625,3.9794921875.3388671875,8.0615234375.5498046875,12.24609375ZM249.7607421875,303.064453124994543c5.65234375.6279296875,10.41357421875.3681640625,14.287109375-.78515625,3.87109375-1.150390625,6.775390625-2.720703125,8.71337890625-4.7099609375,1.935546875-1.9873046875,2.92919921875-4.1337890625,2.9833984375-6.4375.05126953125-2.30078125-.86376953125-4.2900390625-2.74755859375-5.9658203125-1.88427734375-1.6728515625-4.76416015625-2.798828125-8.63525390625-3.375-3.87353515625-.57421875-8.740234375-.181640625-14.60107421875,1.1767578125v20.0966796875Z" fill="#fff" stroke-width="0"/>
                <path d="M366.56884765625,267.739257812494543c3.03466796875,3.6650390625,5.41650390625,8.0849609375,7.1435546875,13.2666015625,1.72705078125,5.1806640625,2.328125,10.283203125,1.8056640625,15.3076171875-.419921875,3.873046875-1.5703125,7.7197265625-3.4541015625,11.5390625-1.88427734375,3.822265625-4.29296875,7.2216796875-7.22216796875,10.205078125-2.931640625,2.9833984375-6.30712890625,5.3916015625-10.12646484375,7.2216796875-3.82177734375,1.8330078125-7.9287109375,2.748046875-12.32470703125,2.748046875-2.72265625,0-5.49462890625-.2900390625-8.32080078125-.86328125-2.826171875-.57421875-5.5732421875-1.38671875-8.24267578125-2.43359375-2.6689453125-1.044921875-5.15625-2.4072265625-7.45751953125-4.08203125-2.30322265625-1.6728515625-4.1875-3.611328125-5.65185546875-5.8095703125-1.56982421875-2.197265625-2.041015625-4.6044921875-1.4130859375-7.2216796875.6279296875-2.9287109375,1.85693359375-5.4677734375,3.689453125-7.6142578125,1.830078125-2.14453125,3.53271484375-3.8984375,5.1025390625-5.259765625.8369140625-.6279296875,1.88427734375-1.044921875,3.14013671875-1.255859375,1.255859375-.208984375,2.4580078125.3134765625,3.61083984375,1.5703125,1.88427734375,2.197265625,3.92529296875,3.951171875,6.123046875,5.2587890625,2.1982421875,1.310546875,4.369140625,2.041015625,6.515625,2.1982421875,2.14404296875.1572265625,4.18505859375-.3134765625,6.123046875-1.4130859375,1.935546875-1.0986328125,3.583984375-2.904296875,4.9453125-5.416015625.73095703125-1.46484375,1.15087890625-3.03515625,1.25634765625-4.7099609375.10302734375-1.673828125-.2109375-3.21875-.9423828125-4.6318359375-.7333984375-1.4130859375-1.93798828125-2.615234375-3.61083984375-3.611328125-1.67529296875-.9931640625-3.87353515625-1.5947265625-6.59375-1.8056640625-.21142578125.10546875-.3681640625.1328125-.47119140625.0791015625-.10546875-.0517578125-.2109375-.0791015625-.31396484375-.0791015625h-.31396484375c-.10546875.10546875-.2109375.1572265625-.31396484375.1572265625h-.6279296875c-.31396484375-.1025390625-.6552734375-.181640625-1.0205078125-.2353515625-.3681640625-.0517578125-.6552734375-.181640625-.86376953125-.392578125-1.15283203125-.3134765625-1.93798828125-1.255859375-2.35498046875-2.826171875-.41943359375-1.5693359375-.65478515625-3.296875-.70654296875-5.1806640625-.0537109375-1.8837890625.0244140625-3.7412109375.23583984375-5.5732421875.20849609375-1.830078125.470703125-3.1650390625.78466796875-4.00390625.4169921875-1.150390625.94189453125-2.119140625,1.5703125-2.904296875.6279296875-.78515625,1.35888671875-1.177734375,2.19775390625-1.177734375,2.615234375,0,4.91845703125-.8359375,6.908203125-2.51171875,1.98681640625-1.6728515625,3.39990234375-3.5576171875,4.23876953125-5.65234375.83642578125-2.0927734375.966796875-4.0546875.392578125-5.8876953125-.57666015625-1.830078125-2.17333984375-2.8505859375-4.78857421875-3.0615234375-1.78076171875-.2080078125-3.689453125.341796875-5.73046875,1.6494140625-2.041015625,1.3095703125-3.74365234375,3.3232421875-5.1025390625,6.0439453125-.52490234375,1.0478515625-.94189453125,2.068359375-1.255859375,3.0615234375-.31396484375.99609375-1.09912109375,1.75390625-2.35498046875,2.2763671875-1.04736328125.419921875-2.041015625.6279296875-2.98291015625.6279296875-3.037109375,0-5.94189453125-.8876953125-8.7138671875-2.6689453125-2.7744140625-1.7783203125-4.63134765625-4.2900390625-5.5732421875-7.5361328125-.41943359375-1.986328125-.3681640625-3.9248046875.15673828125-5.80859375.5224609375-1.8837890625,1.3076171875-3.7138671875,2.35498046875-5.4951171875,1.77880859375-2.9287109375,4.0283203125-5.4951171875,6.7509765625-7.693359375,2.720703125-2.197265625,5.73095703125-3.94921875,9.02783203125-5.2587890625,3.296875-1.3076171875,6.80224609375-2.1201171875,10.51904296875-2.43359375,3.7138671875-.314453125,7.45751953125,0,11.2255859375.94140625,4.7099609375,1.1533203125,8.58056640625,3.32421875,11.61767578125,6.515625,3.03466796875,3.1943359375,5.154296875,6.986328125,6.3583984375,11.3828125,1.2021484375,4.3955078125,1.4130859375,9.2109375.62841796875,14.4443359375-.78515625,5.234375-2.64453125,10.572265625-5.57373046875,16.013671875Z" fill="#fff" stroke-width="0"/>
              </g>
            </g>
          </a>
        </g>
      </a>
    </g>
  </g>
</svg>