<?xml version="1.0" encoding="UTF-8"?>
<svg id="Layer_1" data-name="Layer 1" xmlns="http://www.w3.org/2000/svg" xmlns:xlink="http://www.w3.org/1999/xlink" viewBox="0 0 600 599.999999999998181">
  <defs>
    <linearGradient id="B1-5" data-name="B1" x1="257.717390740173869" y1="421.918890795825064" x2="339.206367074824129" y2="278.799596224908328" gradientUnits="userSpaceOnUse">
      <stop offset="0" stop-color="#52789c"/>
      <stop offset=".5" stop-color="#2d7f98"/>
      <stop offset="1" stop-color="#008693"/>
    </linearGradient>
  </defs>
  <g id="pie_with_links_-5" data-name="pie (with links)">
    <g id="pie_with_links_-6" data-name="pie (with links)">
      <g id="Pie">
        <g>
          <a xlink:href="https://www.notion.so/dmmnotes/paranoid-ae38b1e6af0c4dd08f61e0d8f6e9f05f?pvs=4">
            <path id="C8" d="M331.308105468760004,517.749511718748181l7.825683593739996,54.4306640625c26.439208984369543-3.767822265628638,51.645751953139552-11.3115234375,75.101318359369543-22.04296875l-22.832519531239086-49.996826171878638c-18.7666015625,8.572265625-38.93505859375,14.601318359378638-60.094482421870453,17.609130859378638Z" fill="none" stroke="#181818" stroke-linecap="round" stroke-linejoin="round" stroke-width="15"/>
          </a>
          <a xlink:href="https://www.notion.so/dmmnotes/menacing-a5bd7149286344deba45ec15e759e579?pvs=4">
            <path id="C7" d="M391.402587890630457,500.140380859369543l22.832519531239086,49.996826171878638c23.989990234390461-10.975830078117724,46.116210937520009-25.287109375010914,65.803955078140461-42.36181640625l-35.972900390629547-41.515869140617724c-15.753417968760914,13.65869140625-33.459228515630457,25.104492187489086-52.66357421875,33.880859374989086Z" fill="none" stroke="#181818" stroke-linecap="round" stroke-linejoin="round" stroke-width="15"/>
          </a>
          <a xlink:href="https://www.notion.so/dmmnotes/seductively-obsessed-with-rescue-6fb5a68f6d334bc29ccccc16d8a4e56e?pvs=4">
            <path id="C6" d="M444.066162109380457,466.259521484380457l35.972900390629547,41.515869140617724c19.762939453120453-17.141845703128638,37.047119140620453-37.041748046878638,51.26708984375-59.125l-46.223632812510004-29.704833984367724c-11.373291015619543,17.673583984367724-25.201171874989996,33.598876953117724-41.016357421869543,47.31396484375Z" fill="none" stroke="#181818" stroke-linecap="round" stroke-linejoin="round" stroke-width="15"/>
          </a>
          <a xlink:href="https://www.notion.so/dmmnotes/punitively-obsessed-with-revenge-33d2e77f37774316b42bccf4a60f9688?pvs=4">
            <path id="C5" d="M485.08251953125,418.945556640630457l46.223632812510004,29.704833984367724c14.048095703129547-21.809326171878638,25.08837890625-45.71875,32.551513671870453-71.175048828128638l-52.7548828125-15.490234375c-5.9619140625,20.377929687510914-14.789306640620453,39.509765625-26.020263671880457,56.960449218760914Z" fill="none" stroke="#181818" stroke-linecap="round" stroke-linejoin="round" stroke-width="15"/>
          </a>
          <a xlink:href="https://www.notion.so/dmmnotes/feigned-helpless-e79a94b0498c4e109a681b7f3dcdb088?pvs=4">
            <path id="C4" d="M520,300c0,21.538085937498181-3.142089843739996,42.321533203119543-8.897216796869543,61.985107421869543l52.7548828125,15.490234375c7.2080078125-24.583496093739086,11.142333984369543-50.5634765625,11.142333984369543-77.475341796869543h-55Z" fill="none" stroke="#181818" stroke-linecap="round" stroke-linejoin="round" stroke-width="15"/>
          </a>
          <a xlink:href="https://www.notion.so/dmmnotes/aggressive-2d8ccce383534b9dbfc7b4b10b8a5d5c?pvs=4">
            <path id="C3" d="M520,300h55c0-26.911865234390461-3.934326171869543-52.894531250011823-11.142333984369543-77.475341796890461l-52.7548828125,15.490234375c5.755126953129547,19.663574218760914,8.897216796869543,40.449707031260914,8.897216796869543,61.985107421890461Z" fill="none" stroke="#181818" stroke-linecap="round" stroke-linejoin="round" stroke-width="15"/>
          </a>
          <a xlink:href="https://www.notion.so/dmmnotes/disarming-086276e599884c86b9359acf831a8b20?pvs=4">
            <path id="C2" d="M511.102783203130457,238.014892578109539l52.7548828125-15.490234375c-7.463134765620453-25.456298828121362-18.503417968740905-49.365722656239086-32.551513671870453-71.177734374989086l-46.223632812510004,29.70751953125c11.230957031260004,17.45068359375,20.055664062510004,36.585205078117724,26.020263671880457,56.960449218739086Z" fill="none" stroke="#181818" stroke-linecap="round" stroke-linejoin="round" stroke-width="15"/>
          </a>
          <a xlink:href="https://www.notion.so/dmmnotes/threatening-348fe6a52f7a4fe69f768e98c6586932?pvs=4">
            <path id="C1" d="M485.08251953125,181.054443359370453l46.223632812510004-29.70751953125c-14.219970703129547-22.08056640625-31.504150390629547-41.980468750010914-51.26708984375-59.122314453120453l-35.972900390629547,41.518554687488177c15.815185546879547,13.71240234375,29.64306640625,29.637695312511823,41.016357421869543,47.311279296882276Z" fill="none" stroke="#181818" stroke-linecap="round" stroke-linejoin="round" stroke-width="15"/>
          </a>
          <a xlink:href="https://www.notion.so/dmmnotes/complaining-acceptance-8b40401a720c493ba73f7cde1567cf3d?pvs=4">
            <path id="B5" d="M444.066162109380457,133.743164062488177l35.972900390629547-41.518554687488177c-19.687744140620453-17.07470703125-41.81396484375-31.388671875-65.803955078140461-42.36181640625l-22.832519531239086,49.99951171875c19.204345703119543,8.773681640620453,36.910156249989086,20.22216796875,52.66357421875,33.880859374988177Z" fill="none" stroke="#181818" stroke-linecap="round" stroke-linejoin="round" stroke-width="15"/>
          </a>
          <a xlink:href="https://www.notion.so/dmmnotes/sentimental-bc554363322342b1b7ca4ccc02125049?pvs=4">
            <path id="B4" d="M391.402587890630457,99.8623046875l22.832519531239086-49.99951171875c-23.455566406229991-10.7314453125-48.662109375-18.275146484390461-75.101318359369543-22.042968749990905l-7.825683593739996,54.433349609361358c21.159423828120453,3.0078125,41.327880859370453,9.034179687489086,60.094482421870453,17.609130859379547Z" fill="none" stroke="#181818" stroke-linecap="round" stroke-linejoin="round" stroke-width="15"/>
          </a>
          <a xlink:href="https://www.notion.so/dmmnotes/comfortably-balanced-e76dc615a8b947aa915377cd02fcf716?pvs=4">
            <path id="B3" d="M300,80c10.634765625,0,21.078857421869543.797607421870453,31.308105468760004,2.253173828120453l7.825683593739996-54.433349609361358c-12.788574218739996-1.823486328138642-25.843017578130457-2.819824218759095-39.1337890625-2.819824218759095s-26.34521484375.996337890620453-39.133789062489996,2.819824218759095l7.825683593739996,54.433349609361358c10.23193359375-1.45556640625,20.67333984375-2.253173828120453,31.30810546875-2.253173828120453Z" fill="none" stroke="#181818" stroke-linecap="round" stroke-linejoin="round" stroke-width="15"/>
          </a>
          <a xlink:href="https://www.notion.so/dmmnotes/accepting-317d81273fff4cd9817cdf4a88efd378?pvs=4">
            <path id="B2" d="M268.69189453125,82.253173828120453l-7.825683593739996-54.433349609361358c-26.439208984390461,3.767822265600444-51.643066406260004,11.311523437490905-75.098632812510004,22.042968749990905l22.83251953125,49.99951171875c18.7666015625-8.574951171890461,38.93505859375-14.601318359379547,60.091796875-17.609130859379547Z" fill="none" stroke="#181818" stroke-linecap="round" stroke-linejoin="round" stroke-width="15"/>
          </a>
          <a xlink:href="https://www.notion.so/dmmnotes/distanced-from-past-2eabab7e9c77429f8e577f4e3e203653?pvs=4">
            <g id="B1">
              <path d="M155.865234375,134.738281249994543c-.2646484375-.01904296875-.5107421875-.14208984375-.6845703125-.3427734375l-35.97265625-41.51611328125c-.361328125-.4169921875-.31640625-1.04833984375.1005859375-1.41015625,19.92724609375-17.28271484375,42.1474609375-31.5869140625,66.04296875-42.515625.1318359375-.060546875.27392578125-.0908203125.416015625-.0908203125.1181640625,0,.236328125.02099609375.34912109375.06298828125.24853515625.0927734375.4501953125.2802734375.560546875.521484375l22.83251953125,49.99951171875c.2294921875.50244140625.00830078125,1.095703125-.494140625,1.3251953125-18.97900390625,8.671875-36.61669921875,20.0185546875-52.423828125,33.72412109375-.1826171875.158203125-.41552734375.24462890625-.6552734375.24462890625-.0234375,0-.04736328125-.0009765625-.0712890625-.00244140625Z" fill="none" stroke="#181818" stroke-linecap="round" stroke-linejoin="round" stroke-width="15"/>
              <path d="M185.767578125,49.862792968744543l22.83251953125,49.99951171875c-19.20166015625,8.773681640625-36.91015625,20.219482421875-52.66357421875,33.878173828125l-35.972900390625-41.515869140625c19.687744140625-17.07470703125,41.811279296875-31.388671875,65.803955078125-42.36181640625M185.767578125,47.862792968744543c-.284423828125,0-.5682373046875.060638427734375-.831787109375.181198120117188-23.9822998046875,10.968399047851562-46.282958984375,25.324554443359375-66.2825927734375,42.669692993164062-.8341064453125.723464965820312-.9241943359375,1.986099243164062-.2010498046875,2.82061767578125l35.972900390625,41.515869140625c.347412109375.400970458984375.83984375.6474609375,1.369140625.68524169921875.0474853515625.003387451171875.0950927734375.00506591796875.1424560546875.00506591796875.4796142578125,0,.9451904296875-.172576904296875,1.31005859375-.4888916015625,15.736328125-13.643890380859375,33.293701171875-24.93853759765625,52.1845703125-33.5701904296875,1.0045166015625-.458984375,1.4468994140625-1.645278930664062.9881591796875-2.649871826171875l-22.83251953125-49.999526977539062c-.220458984375-.482681274414062-.6236572265625-.858001708984375-1.120849609375-1.043289184570312-.2257080078125-.084075927734375-.4622802734375-.12591552734375-.698486328125-.12591552734375h0Z" fill="none" stroke="#181818" stroke-linecap="round" stroke-linejoin="round" stroke-width="15"/>
            </g>
          </a>
          <a xlink:href="https://www.notion.so/dmmnotes/idealising-a52277f51ed14a42aae78081bb34b8be?pvs=4">
            <path id="A1" d="M155.9365234375,133.740478515620453l-35.972900390619543-41.515869140620453c-19.765625,17.141845703109539-37.049804687510914,37.041748046870453-51.269775390630457,59.122314453120453l46.226318359369543,29.70751953125c11.373291015640461-17.673583984370453,25.201171875010914-33.598876953132276,41.016357421880457-47.31396484375Z" fill="none" stroke="#181818" stroke-linecap="round" stroke-linejoin="round" stroke-width="15"/>
          </a>
          <a xlink:href="https://www.notion.so/dmmnotes/distancing-9ac690cdca654729a17a5a255944e2d1?pvs=4">
            <path id="A2" d="M114.920166015619543,181.054443359370453l-46.226318359369543-29.70751953125c-14.04541015625,21.81201171875-25.08837890625,45.721435546867724-32.551513671880457,71.177734374989086l52.754882812510914,15.490234375c5.964599609369543-20.375244140621362,14.7919921875-39.509765624989086,26.022949218739086-56.960449218739086Z" fill="none" stroke="#181818" stroke-linecap="round" stroke-linejoin="round" stroke-width="15"/>
          </a>
          <a xlink:href="https://www.notion.so/dmmnotes/compulsive-caregiving-9c380c0928294f41ae10764aa0dee886?pvs=4">
            <path id="A3" d="M88.897216796880457,238.014892578109539l-52.754882812510914-15.490234375c-7.205322265619543,24.580810546878638-11.142333984369543,50.5634765625-11.142333984369543,77.475341796890461h55c0-21.535400390629547,3.14208984375-42.321533203129547,8.897216796880457-61.985107421890461Z" fill="none" stroke="#181818" stroke-linecap="round" stroke-linejoin="round" stroke-width="15"/>
          </a>
          <a xlink:href="https://www.notion.so/dmmnotes/compulsive-compliance-6d08b7ea9a424ce1a72b9184b7850414?pvs=4">
            <path id="A4" d="M80,300H25c0,26.911865234369543,3.93701171875,52.894531249987267,11.142333984369543,77.475341796869543l52.754882812510914-15.490234375c-5.755126953130457-19.66357421875-8.897216796880457-40.447021484371362-8.897216796880457-61.985107421869543Z" fill="none" stroke="#181818" stroke-linecap="round" stroke-linejoin="round" stroke-width="15"/>
          </a>
          <a xlink:href="https://www.notion.so/dmmnotes/sexual-supplementation-8e85f49046ef412aa229745abf7d38d3?pvs=4">
            <path id="A5" d="M88.897216796880457,361.985107421869543l-52.754882812510914,15.490234375c7.463134765630457,25.456298828128638,18.506103515630457,49.36572265625,32.551513671880457,71.175048828128638l46.223632812510004-29.704833984367724c-11.230957031260004-17.450683593760914-20.055664062510004-36.58251953125-26.020263671879547-56.960449218760914Z" fill="none" stroke="#181818" stroke-linecap="round" stroke-linejoin="round" stroke-width="15"/>
          </a>
          <a xlink:href="https://www.notion.so/dmmnotes/compulsive-isolated-self-reliance-b321873a73fa41aaaadd7192fde856a2?pvs=4">
            <path id="A6" d="M114.917480468760004,418.945556640630457l-46.223632812510004,29.704833984367724c14.219970703119543,22.083251953121362,31.504150390630457,41.983154296871362,51.269775390630457,59.125l35.972900390619543-41.515869140617724c-15.815185546869543-13.712402343760914-29.643066406239996-29.637695312510914-41.019042968739996-47.31396484375Z" fill="none" stroke="#181818" stroke-linecap="round" stroke-linejoin="round" stroke-width="15"/>
          </a>
          <a xlink:href="https://www.notion.so/dmmnotes/delusional-idealization-743e2420b9994a48a7cab68190432e8a?pvs=4">
            <path id="A7" d="M155.9365234375,466.259521484380457l-35.972900390619543,41.515869140617724c19.687744140619543,17.074707031239086,41.811279296869543,31.385986328132276,65.803955078119543,42.36181640625l22.83251953125-49.996826171878638c-19.20166015625-8.773681640621362-36.91015625-20.222167968739086-52.66357421875-33.880859374989086Z" fill="none" stroke="#181818" stroke-linecap="round" stroke-linejoin="round" stroke-width="15"/>
          </a>
          <a xlink:href="https://www.notion.so/dmmnotes/externally-assembled-self-994ecb0895b844409b931d74a045c162?pvs=4">
            <path id="A8" d="M208.60009765625,500.140380859369543l-22.83251953125,49.996826171878638c23.45556640625,10.7314453125,48.659423828119543,18.275146484371362,75.098632812510004,22.04296875l7.825683593739996-54.4306640625c-21.15673828125-3.0078125-41.3251953125-9.0341796875-60.091796875-17.609130859378638Z" fill="none" stroke="#181818" stroke-linecap="round" stroke-linejoin="round" stroke-width="15"/>
          </a>
          <a xlink:href="https://www.notion.so/dmmnotes/psychopathy-0fe4a3222d9f4fd097ab4546c9776768?pvs=4">
            <path id="AC" d="M300,519.999999999998181c-10.634765625,0-21.076171875-.794921875-31.30810546875-2.25048828125l-7.825683593739996,54.4306640625c12.788574218739996,1.823486328132276,25.843017578120453,2.81982421875,39.133789062489996,2.81982421875s26.345214843760004-.996337890617724,39.1337890625-2.81982421875l-7.825683593739996-54.4306640625c-10.229248046890461,1.45556640625-20.673339843760004,2.25048828125-31.308105468760004,2.25048828125Z" fill="none" stroke="#181818" stroke-linecap="round" stroke-linejoin="round" stroke-width="15"/>
          </a>
        </g>
        <g>
          <a xlink:href="https://www.notion.so/dmmnotes/paranoid-ae38b1e6af0c4dd08f61e0d8f6e9f05f?pvs=4">
            <path id="C8-2" data-name="C8" d="M331.308105468760004,517.749511718748181l7.825683593739996,54.4306640625c26.439208984369543-3.767822265628638,51.645751953139552-11.3115234375,75.101318359369543-22.04296875l-22.832519531239086-49.996826171878638c-18.7666015625,8.572265625-38.93505859375,14.601318359378638-60.094482421870453,17.609130859378638Z" fill="#8f807d" stroke="#181818" stroke-linecap="round" stroke-linejoin="round" stroke-width="2"/>
          </a>
          <a xlink:href="https://www.notion.so/dmmnotes/menacing-a5bd7149286344deba45ec15e759e579?pvs=4">
            <path id="C7-2" data-name="C7" d="M391.402587890630457,500.140380859369543l22.832519531239086,49.996826171878638c23.989990234390461-10.975830078117724,46.116210937520009-25.287109375010914,65.803955078140461-42.36181640625l-35.972900390629547-41.515869140617724c-15.753417968760914,13.65869140625-33.459228515630457,25.104492187489086-52.66357421875,33.880859374989086Z" fill="#8f807d" stroke="#181818" stroke-linecap="round" stroke-linejoin="round" stroke-width="2"/>
          </a>
          <a xlink:href="https://www.notion.so/dmmnotes/seductively-obsessed-with-rescue-6fb5a68f6d334bc29ccccc16d8a4e56e?pvs=4">
            <path id="C6-2" data-name="C6" d="M444.066162109380457,466.259521484380457l35.972900390629547,41.515869140617724c19.762939453120453-17.141845703128638,37.047119140620453-37.041748046878638,51.26708984375-59.125l-46.223632812510004-29.704833984367724c-11.373291015619543,17.673583984367724-25.201171874989996,33.598876953117724-41.016357421869543,47.31396484375Z" fill="#8f807d" stroke="#181818" stroke-linecap="round" stroke-linejoin="round" stroke-width="2"/>
          </a>
          <a xlink:href="https://www.notion.so/dmmnotes/punitively-obsessed-with-revenge-33d2e77f37774316b42bccf4a60f9688?pvs=4">
            <path id="C5-2" data-name="C5" d="M485.08251953125,418.945556640630457l46.223632812510004,29.704833984367724c14.048095703129547-21.809326171878638,25.08837890625-45.71875,32.551513671870453-71.175048828128638l-52.7548828125-15.490234375c-5.9619140625,20.377929687510914-14.789306640620453,39.509765625-26.020263671880457,56.960449218760914Z" fill="#8f807d" stroke="#181818" stroke-linecap="round" stroke-linejoin="round" stroke-width="2"/>
          </a>
          <a xlink:href="https://www.notion.so/dmmnotes/feigned-helpless-e79a94b0498c4e109a681b7f3dcdb088?pvs=4">
            <path id="C4-2" data-name="C4" d="M520,300c0,21.538085937498181-3.142089843739996,42.321533203119543-8.897216796869543,61.985107421869543l52.7548828125,15.490234375c7.2080078125-24.583496093739086,11.142333984369543-50.5634765625,11.142333984369543-77.475341796869543h-55Z" fill="#8f807d" stroke="#181818" stroke-linecap="round" stroke-linejoin="round" stroke-width="2"/>
          </a>
          <a xlink:href="https://www.notion.so/dmmnotes/aggressive-2d8ccce383534b9dbfc7b4b10b8a5d5c?pvs=4">
            <path id="C3-2" data-name="C3" d="M520,300h55c0-26.911865234390461-3.934326171869543-52.894531250011823-11.142333984369543-77.475341796890461l-52.7548828125,15.490234375c5.755126953129547,19.663574218760914,8.897216796869543,40.449707031260914,8.897216796869543,61.985107421890461Z" fill="#8f807d" stroke="#181818" stroke-linecap="round" stroke-linejoin="round" stroke-width="2"/>
          </a>
          <a xlink:href="https://www.notion.so/dmmnotes/disarming-086276e599884c86b9359acf831a8b20?pvs=4">
            <path id="C2-2" data-name="C2" d="M511.102783203130457,238.014892578109539l52.7548828125-15.490234375c-7.463134765620453-25.456298828121362-18.503417968740905-49.365722656239086-32.551513671870453-71.177734374989086l-46.223632812510004,29.70751953125c11.230957031260004,17.45068359375,20.055664062510004,36.585205078117724,26.020263671880457,56.960449218739086Z" fill="#8f807d" stroke="#181818" stroke-linecap="round" stroke-linejoin="round" stroke-width="2"/>
          </a>
          <a xlink:href="https://www.notion.so/dmmnotes/threatening-348fe6a52f7a4fe69f768e98c6586932?pvs=4">
            <path id="C1-2" data-name="C1" d="M485.08251953125,181.054443359370453l46.223632812510004-29.70751953125c-14.219970703129547-22.08056640625-31.504150390629547-41.980468750010914-51.26708984375-59.122314453120453l-35.972900390629547,41.518554687488177c15.815185546879547,13.71240234375,29.64306640625,29.637695312511823,41.016357421869543,47.311279296882276Z" fill="#8f807d" stroke="#181818" stroke-linecap="round" stroke-linejoin="round" stroke-width="2"/>
          </a>
          <a xlink:href="https://www.notion.so/dmmnotes/complaining-acceptance-8b40401a720c493ba73f7cde1567cf3d?pvs=4">
            <path id="B5-2" data-name="B5" d="M444.066162109380457,133.743164062488177l35.972900390629547-41.518554687488177c-19.687744140620453-17.07470703125-41.81396484375-31.388671875-65.803955078140461-42.36181640625l-22.832519531239086,49.99951171875c19.204345703119543,8.773681640620453,36.910156249989086,20.22216796875,52.66357421875,33.880859374988177Z" fill="#8f807d" stroke="#181818" stroke-linecap="round" stroke-linejoin="round" stroke-width="2"/>
          </a>
          <a xlink:href="https://www.notion.so/dmmnotes/sentimental-bc554363322342b1b7ca4ccc02125049?pvs=4">
            <path id="B4-2" data-name="B4" d="M391.402587890630457,99.8623046875l22.832519531239086-49.99951171875c-23.455566406229991-10.7314453125-48.662109375-18.275146484390461-75.101318359369543-22.042968749990905l-7.825683593739996,54.433349609361358c21.159423828120453,3.0078125,41.327880859370453,9.034179687489086,60.094482421870453,17.609130859379547Z" fill="#8f807d" stroke="#181818" stroke-linecap="round" stroke-linejoin="round" stroke-width="2"/>
          </a>
          <a xlink:href="https://www.notion.so/dmmnotes/comfortably-balanced-e76dc615a8b947aa915377cd02fcf716?pvs=4">
            <path id="B3-2" data-name="B3" d="M300,80c10.634765625,0,21.078857421869543.797607421870453,31.308105468760004,2.253173828120453l7.825683593739996-54.433349609361358c-12.788574218739996-1.823486328138642-25.843017578130457-2.819824218759095-39.1337890625-2.819824218759095s-26.34521484375.996337890620453-39.133789062489996,2.819824218759095l7.825683593739996,54.433349609361358c10.23193359375-1.45556640625,20.67333984375-2.253173828120453,31.30810546875-2.253173828120453Z" fill="#8f807d" stroke="#181818" stroke-linecap="round" stroke-linejoin="round" stroke-width="2"/>
          </a>
          <a xlink:href="https://www.notion.so/dmmnotes/accepting-317d81273fff4cd9817cdf4a88efd378?pvs=4">
            <path id="B2-2" data-name="B2" d="M268.69189453125,82.253173828120453l-7.825683593739996-54.433349609361358c-26.439208984390461,3.767822265600444-51.643066406260004,11.311523437490905-75.098632812510004,22.042968749990905l22.83251953125,49.99951171875c18.7666015625-8.574951171890461,38.93505859375-14.601318359379547,60.091796875-17.609130859379547Z" fill="#8f807d" stroke="#181818" stroke-linecap="round" stroke-linejoin="round" stroke-width="2"/>
          </a>
          <a xlink:href="https://www.notion.so/dmmnotes/distanced-from-past-2eabab7e9c77429f8e577f4e3e203653?pvs=4">
            <g id="B1-2" data-name="B1">
              <path d="M155.865234375,134.738281249994543c-.2646484375-.01904296875-.5107421875-.14208984375-.6845703125-.3427734375l-35.97265625-41.51611328125c-.361328125-.4169921875-.31640625-1.04833984375.1005859375-1.41015625,19.92724609375-17.28271484375,42.1474609375-31.5869140625,66.04296875-42.515625.1318359375-.060546875.27392578125-.0908203125.416015625-.0908203125.1181640625,0,.236328125.02099609375.34912109375.06298828125.24853515625.0927734375.4501953125.2802734375.560546875.521484375l22.83251953125,49.99951171875c.2294921875.50244140625.00830078125,1.095703125-.494140625,1.3251953125-18.97900390625,8.671875-36.61669921875,20.0185546875-52.423828125,33.72412109375-.1826171875.158203125-.41552734375.24462890625-.6552734375.24462890625-.0234375,0-.04736328125-.0009765625-.0712890625-.00244140625Z" fill="#477e96" stroke-width="0"/>
              <path d="M185.767578125,49.862792968744543l22.83251953125,49.99951171875c-19.20166015625,8.773681640625-36.91015625,20.219482421875-52.66357421875,33.878173828125l-35.972900390625-41.515869140625c19.687744140625-17.07470703125,41.811279296875-31.388671875,65.803955078125-42.36181640625M185.767578125,47.862792968744543c-.284423828125,0-.5682373046875.060638427734375-.831787109375.181198120117188-23.9822998046875,10.968399047851562-46.282958984375,25.324554443359375-66.2825927734375,42.669692993164062-.8341064453125.723464965820312-.9241943359375,1.986099243164062-.2010498046875,2.82061767578125l35.972900390625,41.515869140625c.347412109375.400970458984375.83984375.6474609375,1.369140625.68524169921875.0474853515625.003387451171875.0950927734375.00506591796875.1424560546875.00506591796875.4796142578125,0,.9451904296875-.172576904296875,1.31005859375-.4888916015625,15.736328125-13.643890380859375,33.293701171875-24.93853759765625,52.1845703125-33.5701904296875,1.0045166015625-.458984375,1.4468994140625-1.645278930664062.9881591796875-2.649871826171875l-22.83251953125-49.999526977539062c-.220458984375-.482681274414062-.6236572265625-.858001708984375-1.120849609375-1.043289184570312-.2257080078125-.084075927734375-.4622802734375-.12591552734375-.698486328125-.12591552734375h0Z" fill="#181818" stroke-width="0"/>
            </g>
          </a>
          <a xlink:href="https://www.notion.so/dmmnotes/idealising-a52277f51ed14a42aae78081bb34b8be?pvs=4">
            <path id="A1-2" data-name="A1" d="M155.9365234375,133.740478515620453l-35.972900390619543-41.515869140620453c-19.765625,17.141845703109539-37.049804687510914,37.041748046870453-51.269775390630457,59.122314453120453l46.226318359369543,29.70751953125c11.373291015640461-17.673583984370453,25.201171875010914-33.598876953132276,41.016357421880457-47.31396484375Z" fill="#8f807d" stroke="#181818" stroke-linecap="round" stroke-linejoin="round" stroke-width="2"/>
          </a>
          <a xlink:href="https://www.notion.so/dmmnotes/distancing-9ac690cdca654729a17a5a255944e2d1?pvs=4">
            <path id="A2-2" data-name="A2" d="M114.920166015619543,181.054443359370453l-46.226318359369543-29.70751953125c-14.04541015625,21.81201171875-25.08837890625,45.721435546867724-32.551513671880457,71.177734374989086l52.754882812510914,15.490234375c5.964599609369543-20.375244140621362,14.7919921875-39.509765624989086,26.022949218739086-56.960449218739086Z" fill="#8f807d" stroke="#181818" stroke-linecap="round" stroke-linejoin="round" stroke-width="2"/>
          </a>
          <a xlink:href="https://www.notion.so/dmmnotes/compulsive-caregiving-9c380c0928294f41ae10764aa0dee886?pvs=4">
            <path id="A3-2" data-name="A3" d="M88.897216796880457,238.014892578109539l-52.754882812510914-15.490234375c-7.205322265619543,24.580810546878638-11.142333984369543,50.5634765625-11.142333984369543,77.475341796890461h55c0-21.535400390629547,3.14208984375-42.321533203129547,8.897216796880457-61.985107421890461Z" fill="#8f807d" stroke="#181818" stroke-linecap="round" stroke-linejoin="round" stroke-width="2"/>
          </a>
          <a xlink:href="https://www.notion.so/dmmnotes/compulsive-compliance-6d08b7ea9a424ce1a72b9184b7850414?pvs=4">
            <path id="A4-2" data-name="A4" d="M80,300H25c0,26.911865234369543,3.93701171875,52.894531249987267,11.142333984369543,77.475341796869543l52.754882812510914-15.490234375c-5.755126953130457-19.66357421875-8.897216796880457-40.447021484371362-8.897216796880457-61.985107421869543Z" fill="#8f807d" stroke="#181818" stroke-linecap="round" stroke-linejoin="round" stroke-width="2"/>
          </a>
          <a xlink:href="https://www.notion.so/dmmnotes/sexual-supplementation-8e85f49046ef412aa229745abf7d38d3?pvs=4">
            <path id="A5-2" data-name="A5" d="M88.897216796880457,361.985107421869543l-52.754882812510914,15.490234375c7.463134765630457,25.456298828128638,18.506103515630457,49.36572265625,32.551513671880457,71.175048828128638l46.223632812510004-29.704833984367724c-11.230957031260004-17.450683593760914-20.055664062510004-36.58251953125-26.020263671879547-56.960449218760914Z" fill="#8f807d" stroke="#181818" stroke-linecap="round" stroke-linejoin="round" stroke-width="2"/>
          </a>
          <a xlink:href="https://www.notion.so/dmmnotes/compulsive-isolated-self-reliance-b321873a73fa41aaaadd7192fde856a2?pvs=4">
            <path id="A6-2" data-name="A6" d="M114.917480468760004,418.945556640630457l-46.223632812510004,29.704833984367724c14.219970703119543,22.083251953121362,31.504150390630457,41.983154296871362,51.269775390630457,59.125l35.972900390619543-41.515869140617724c-15.815185546869543-13.712402343760914-29.643066406239996-29.637695312510914-41.019042968739996-47.31396484375Z" fill="#8f807d" stroke="#181818" stroke-linecap="round" stroke-linejoin="round" stroke-width="2"/>
          </a>
          <a xlink:href="https://www.notion.so/dmmnotes/delusional-idealization-743e2420b9994a48a7cab68190432e8a?pvs=4">
            <path id="A7-2" data-name="A7" d="M155.9365234375,466.259521484380457l-35.972900390619543,41.515869140617724c19.687744140619543,17.074707031239086,41.811279296869543,31.385986328132276,65.803955078119543,42.36181640625l22.83251953125-49.996826171878638c-19.20166015625-8.773681640621362-36.91015625-20.222167968739086-52.66357421875-33.880859374989086Z" fill="#8f807d" stroke="#181818" stroke-linecap="round" stroke-linejoin="round" stroke-width="2"/>
          </a>
          <a xlink:href="https://www.notion.so/dmmnotes/externally-assembled-self-994ecb0895b844409b931d74a045c162?pvs=4">
            <path id="A8-2" data-name="A8" d="M208.60009765625,500.140380859369543l-22.83251953125,49.996826171878638c23.45556640625,10.7314453125,48.659423828119543,18.275146484371362,75.098632812510004,22.04296875l7.825683593739996-54.4306640625c-21.15673828125-3.0078125-41.3251953125-9.0341796875-60.091796875-17.609130859378638Z" fill="#8f807d" stroke="#181818" stroke-linecap="round" stroke-linejoin="round" stroke-width="2"/>
          </a>
          <a xlink:href="https://www.notion.so/dmmnotes/psychopathy-0fe4a3222d9f4fd097ab4546c9776768?pvs=4">
            <path id="AC-2" data-name="AC" d="M300,519.999999999998181c-10.634765625,0-21.076171875-.794921875-31.30810546875-2.25048828125l-7.825683593739996,54.4306640625c12.788574218739996,1.823486328132276,25.843017578120453,2.81982421875,39.133789062489996,2.81982421875s26.345214843760004-.996337890617724,39.1337890625-2.81982421875l-7.825683593739996-54.4306640625c-10.229248046890461,1.45556640625-20.673339843760004,2.25048828125-31.308105468760004,2.25048828125Z" fill="#8f807d" stroke="#181818" stroke-linecap="round" stroke-linejoin="round" stroke-width="2"/>
          </a>
        </g>
      </g>
      <a xlink:href="https://www.notion.so/dmmnotes/B1-2eabab7e9c77429f8e577f4e3e203653?pvs=4#2ad70543dd8a4e99a4d56f18bb81192e">
        <g id="B1-3" data-name="B1">
          <a xlink:href="https://www.notion.so/dmmnotes/B1-2eabab7e9c77429f8e577f4e3e203653?pvs=4#2ad70543dd8a4e99a4d56f18bb81192e">
            <g id="B1-4" data-name="B1">
              <path d="M300.00048828125,414.706054687494543c-17.90966796875,0-34.7470703125-6.974609375-47.41064453125-19.6376953125-12.6640625-12.6640625-19.63818359375-29.5009765625-19.63818359375-47.4111328125,0-17.9091796875,6.97412109375-34.7470703125,19.63818359375-47.41064453125,12.66357421875-12.66357421875,29.5009765625-19.6376953125,47.41064453125-19.6376953125,17.9091796875,0,34.74658203125,6.97412109375,47.41015625,19.6376953125,12.6640625,12.66357421875,19.63818359375,29.50146484375,19.63818359375,47.41064453125,0,17.91015625-6.97412109375,34.7470703125-19.63818359375,47.4111328125-12.66357421875,12.6630859375-29.5009765625,19.6376953125-47.41015625,19.6376953125Z" fill="url(#B1-5)" stroke-width="0"/>
              <path d="M300.0001220703125,289.108764648432043c14.98388671875,0,29.9677734375,5.716156005859375,41.400146484375,17.148468017578125,22.86474609375,22.864715576171875,22.86474609375,59.935699462890625,0,82.8004150390625-11.432373046875,11.432342529296875-26.416259765625,17.148529052734375-41.400146484375,17.148529052734375s-29.9677734375-5.7161865234375-41.400146484375-17.148529052734375c-22.86474609375-22.864715576171875-22.86474609375-59.935699462890625,0-82.8004150390625,11.432373046875-11.43231201171875,26.416259765625-17.148468017578125,41.400146484375-17.148468017578125M300.0001220703125,272.108764648432043c-20.1798095703125,0-39.1517333984375,7.8583984375-53.4208984375,22.127716064453125-14.269287109375,14.26922607421875-22.1278076171875,33.241180419921875-22.1278076171875,53.420928955078125,0,20.179840087890625,7.8585205078125,39.151763916015625,22.1278076171875,53.42108154296875,14.2691650390625,14.26922607421875,33.2410888671875,22.127685546875,53.4208984375,22.127685546875s39.1517333984375-7.85845947265625,53.4208984375-22.12774658203125c14.269287109375-14.269256591796875,22.1278076171875-33.241180419921875,22.1278076171875-53.4210205078125,0-20.17974853515625-7.8585205078125-39.151702880859375-22.1278076171875-53.420989990234375-14.2691650390625-14.269256591796875-33.2410888671875-22.127655029296875-53.4208984375-22.127655029296875h0Z" fill="#181818" stroke-width="0"/>
            </g>
          </a>
          <a xlink:href="https://www.notion.so/dmmnotes/B1-2eabab7e9c77429f8e577f4e3e203653?pvs=4#2ad70543dd8a4e99a4d56f18bb81192e">
            <g>
              <g>
                <path d="M299.45166015625,266.796874999994543c4.6044921875,3.5595703125,8.03173828125,7.982421875,10.28369140625,13.2666015625,2.24951171875,5.287109375,2.9560546875,10.7548828125,2.119140625,16.40625-.94189453125,6.3857421875-3.45361328125,11.7509765625-7.53564453125,16.0927734375-4.08203125,4.3447265625-8.8974609375,7.771484375-14.4443359375,10.283203125-5.548828125,2.5126953125-11.53955078125,4.1875-17.9765625,5.0244140625-6.4365234375.8369140625-12.4814453125.9423828125-18.13330078125.314453125-.52490234375.2080078125-.99609375.337890625-1.4130859375.392578125-.41943359375.05078125-.89013671875.1298828125-1.4130859375.2353515625-1.8837890625.1025390625-3.82177734375.1025390625-5.80859375,0-1.98974609375-.10546875-3.79541015625-.447265625-5.41650390625-1.0205078125-1.6240234375-.57421875-3.01025390625-1.5166015625-4.16064453125-2.826171875-1.15283203125-1.3076171875-1.83251953125-3.1650390625-2.041015625-5.5732421875-.2109375-1.1513671875-.2626953125-3.478515625-.1572265625-6.9873046875.10302734375-3.5048828125.20849609375-7.771484375.31396484375-12.794921875.208984375-5.126953125.392578125-10.701171875.5498046875-16.720703125.15673828125-6.017578125.287109375-12.0615234375.392578125-18.1337890625.10302734375-7.953125.20849609375-15.9599609375.31396484375-24.0205078125.10302734375-8.05859375-.2109375-16.1708984375-.94189453125-24.3349609375-.21142578125-.9423828125-.10546875-1.7783203125.31396484375-2.51171875.20849609375-.62890625.67919921875-1.2294921875,1.41259765625-1.8056640625.7314453125-.57421875,1.830078125-.966796875,3.29736328125-1.177734375,1.044921875-.103515625,2.19775390625-.259765625,3.45361328125-.470703125,1.25634765625-.208984375,2.56396484375-.3662109375,3.92529296875-.4716796875,1.35888671875-.1025390625,2.6689453125-.1025390625,3.9248046875,0,1.25634765625.10546875,2.35498046875.314453125,3.29736328125.6279296875,5.337890625-.73046875,10.93603515625-.7578125,16.798828125-.078125,5.8603515625.681640625,11.38232421875,2.068359375,16.5634765625,4.16015625,5.18115234375,2.095703125,9.68017578125,4.89453125,13.501953125,8.3994140625,3.8193359375,3.5087890625,6.3583984375,7.771484375,7.61474609375,12.7958984375.5224609375,2.1982421875.83642578125,4.501953125.94189453125,6.908203125.10302734375,2.4091796875-.1572265625,4.8935546875-.78515625,7.45703125-.6279296875,2.56640625-1.6484375,5.2353515625-3.0615234375,8.0068359375-1.4130859375,2.775390625-3.32373046875,5.6279296875-5.73046875,8.556640625ZM258.6318359375,257.534179687494543c5.02392578125.2109375,9.2626953125-.314453125,12.716796875-1.5703125s6.04443359375-2.904296875,7.771484375-4.9453125,2.5634765625-4.263671875,2.51220703125-6.6728515625c-.05419921875-2.40625-.96923828125-4.552734375-2.74755859375-6.4365234375-1.78125-1.8837890625-4.4501953125-3.3212890625-8.0068359375-4.3173828125-3.5595703125-.9931640625-8.06103515625-1.1240234375-13.50244140625-.392578125.31396484375,4.08203125.5498046875,8.1123046875.70654296875,12.0888671875.1572265625,3.9794921875.3388671875,8.0615234375.5498046875,12.24609375ZM259.1025390625,303.064453124994543c5.65234375.6279296875,10.41357421875.3681640625,14.287109375-.78515625,3.87109375-1.150390625,6.775390625-2.720703125,8.71337890625-4.7099609375,1.935546875-1.9873046875,2.92919921875-4.1337890625,2.9833984375-6.4375.05126953125-2.30078125-.86376953125-4.2900390625-2.74755859375-5.9658203125-1.88427734375-1.6728515625-4.76416015625-2.798828125-8.63525390625-3.375-3.87353515625-.57421875-8.740234375-.181640625-14.60107421875,1.1767578125v20.0966796875Z" fill="none" stroke="#181818" stroke-linecap="round" stroke-linejoin="round" stroke-width="33"/>
                <path d="M366.6474609375,224.877929687494543c-2.51171875,31.8193359375-3.61083984375,63.7958984375-3.296875,95.927734375-.10546875,1.15234375-.41943359375,2.197265625-.94189453125,3.1396484375-.52490234375.8388671875-1.31005859375,1.6484375-2.35498046875,2.43359375-1.04736328125.78515625-2.46044921875,1.2802734375-4.2392578125,1.4912109375-1.8837890625.208984375-3.794921875.3388671875-5.73046875.392578125-1.93798828125.0517578125-3.7431640625-.1328125-5.41650390625-.5498046875-1.67529296875-.4189453125-3.115234375-1.150390625-4.3173828125-2.197265625-1.20458984375-1.0458984375-1.96240234375-2.669921875-2.2763671875-4.8671875-.2109375-1.150390625-.34130859375-3.400390625-.392578125-6.7509765625-.05419921875-3.3486328125.0244140625-7.37890625.2353515625-12.0888671875.20849609375-4.8134765625.47119140625-10.0732421875.78515625-15.779296875.31396484375-5.703125.6279296875-11.43359375.94189453125-17.19140625.10302734375-.2080078125.1572265625-.5224609375.1572265625-.94140625-.6279296875-.103515625-1.388671875-.314453125-2.27685546875-.6279296875-.89013671875-.314453125-2.06787109375-.9423828125-3.5322265625-1.884765625-1.56982421875-1.044921875-3.1669921875-2.119140625-4.78857421875-3.2177734375-1.6240234375-1.099609375-3.08837890625-2.22265625-4.39599609375-3.3759765625-1.31005859375-1.150390625-2.33056640625-2.2490234375-3.0615234375-3.296875-.7333984375-1.044921875-.94189453125-2.041015625-.6279296875-2.9833984375.31396484375-.94140625,1.72705078125-3.0341796875,4.23876953125-6.279296875,1.15087890625-1.46484375,2.40673828125-3.140625,3.76806640625-5.0244140625,1.359375-1.8837890625,2.77197265625-3.8193359375,4.2392578125-5.80859375,1.46435546875-1.8837890625,2.798828125-3.7138671875,4.00341796875-5.4951171875,1.2021484375-1.7783203125,2.328125-3.400390625,3.37548828125-4.8671875,1.150390625-1.6728515625,2.24951171875-3.296875,3.296875-4.8671875.4169921875-.8359375,1.8056640625-1.333984375,4.16064453125-1.4912109375s4.8671875,0,7.5361328125.470703125c2.6689453125.4716796875,5.1025390625,1.205078125,7.30029296875,2.1982421875,2.1982421875.99609375,3.39990234375,2.173828125,3.61083984375,3.5322265625Z" fill="none" stroke="#181818" stroke-linecap="round" stroke-linejoin="round" stroke-width="33"/>
              </g>
              <g>
                <path d="M299.45166015625,266.796874999994543c4.6044921875,3.5595703125,8.03173828125,7.982421875,10.28369140625,13.2666015625,2.24951171875,5.287109375,2.9560546875,10.7548828125,2.119140625,16.40625-.94189453125,6.3857421875-3.45361328125,11.7509765625-7.53564453125,16.0927734375-4.08203125,4.3447265625-8.8974609375,7.771484375-14.4443359375,10.283203125-5.548828125,2.5126953125-11.53955078125,4.1875-17.9765625,5.0244140625-6.4365234375.8369140625-12.4814453125.9423828125-18.13330078125.314453125-.52490234375.2080078125-.99609375.337890625-1.4130859375.392578125-.41943359375.05078125-.89013671875.1298828125-1.4130859375.2353515625-1.8837890625.1025390625-3.82177734375.1025390625-5.80859375,0-1.98974609375-.10546875-3.79541015625-.447265625-5.41650390625-1.0205078125-1.6240234375-.57421875-3.01025390625-1.5166015625-4.16064453125-2.826171875-1.15283203125-1.3076171875-1.83251953125-3.1650390625-2.041015625-5.5732421875-.2109375-1.1513671875-.2626953125-3.478515625-.1572265625-6.9873046875.10302734375-3.5048828125.20849609375-7.771484375.31396484375-12.794921875.208984375-5.126953125.392578125-10.701171875.5498046875-16.720703125.15673828125-6.017578125.287109375-12.0615234375.392578125-18.1337890625.10302734375-7.953125.20849609375-15.9599609375.31396484375-24.0205078125.10302734375-8.05859375-.2109375-16.1708984375-.94189453125-24.3349609375-.21142578125-.9423828125-.10546875-1.7783203125.31396484375-2.51171875.20849609375-.62890625.67919921875-1.2294921875,1.41259765625-1.8056640625.7314453125-.57421875,1.830078125-.966796875,3.29736328125-1.177734375,1.044921875-.103515625,2.19775390625-.259765625,3.45361328125-.470703125,1.25634765625-.208984375,2.56396484375-.3662109375,3.92529296875-.4716796875,1.35888671875-.1025390625,2.6689453125-.1025390625,3.9248046875,0,1.25634765625.10546875,2.35498046875.314453125,3.29736328125.6279296875,5.337890625-.73046875,10.93603515625-.7578125,16.798828125-.078125,5.8603515625.681640625,11.38232421875,2.068359375,16.5634765625,4.16015625,5.18115234375,2.095703125,9.68017578125,4.89453125,13.501953125,8.3994140625,3.8193359375,3.5087890625,6.3583984375,7.771484375,7.61474609375,12.7958984375.5224609375,2.1982421875.83642578125,4.501953125.94189453125,6.908203125.10302734375,2.4091796875-.1572265625,4.8935546875-.78515625,7.45703125-.6279296875,2.56640625-1.6484375,5.2353515625-3.0615234375,8.0068359375-1.4130859375,2.775390625-3.32373046875,5.6279296875-5.73046875,8.556640625ZM258.6318359375,257.534179687494543c5.02392578125.2109375,9.2626953125-.314453125,12.716796875-1.5703125s6.04443359375-2.904296875,7.771484375-4.9453125,2.5634765625-4.263671875,2.51220703125-6.6728515625c-.05419921875-2.40625-.96923828125-4.552734375-2.74755859375-6.4365234375-1.78125-1.8837890625-4.4501953125-3.3212890625-8.0068359375-4.3173828125-3.5595703125-.9931640625-8.06103515625-1.1240234375-13.50244140625-.392578125.31396484375,4.08203125.5498046875,8.1123046875.70654296875,12.0888671875.1572265625,3.9794921875.3388671875,8.0615234375.5498046875,12.24609375ZM259.1025390625,303.064453124994543c5.65234375.6279296875,10.41357421875.3681640625,14.287109375-.78515625,3.87109375-1.150390625,6.775390625-2.720703125,8.71337890625-4.7099609375,1.935546875-1.9873046875,2.92919921875-4.1337890625,2.9833984375-6.4375.05126953125-2.30078125-.86376953125-4.2900390625-2.74755859375-5.9658203125-1.88427734375-1.6728515625-4.76416015625-2.798828125-8.63525390625-3.375-3.87353515625-.57421875-8.740234375-.181640625-14.60107421875,1.1767578125v20.0966796875Z" fill="#fff" stroke-width="0"/>
                <path d="M366.6474609375,224.877929687494543c-2.51171875,31.8193359375-3.61083984375,63.7958984375-3.296875,95.927734375-.10546875,1.15234375-.41943359375,2.197265625-.94189453125,3.1396484375-.52490234375.8388671875-1.31005859375,1.6484375-2.35498046875,2.43359375-1.04736328125.78515625-2.46044921875,1.2802734375-4.2392578125,1.4912109375-1.8837890625.208984375-3.794921875.3388671875-5.73046875.392578125-1.93798828125.0517578125-3.7431640625-.1328125-5.41650390625-.5498046875-1.67529296875-.4189453125-3.115234375-1.150390625-4.3173828125-2.197265625-1.20458984375-1.0458984375-1.96240234375-2.669921875-2.2763671875-4.8671875-.2109375-1.150390625-.34130859375-3.400390625-.392578125-6.7509765625-.05419921875-3.3486328125.0244140625-7.37890625.2353515625-12.0888671875.20849609375-4.8134765625.47119140625-10.0732421875.78515625-15.779296875.31396484375-5.703125.6279296875-11.43359375.94189453125-17.19140625.10302734375-.2080078125.1572265625-.5224609375.1572265625-.94140625-.6279296875-.103515625-1.388671875-.314453125-2.27685546875-.6279296875-.89013671875-.314453125-2.06787109375-.9423828125-3.5322265625-1.884765625-1.56982421875-1.044921875-3.1669921875-2.119140625-4.78857421875-3.2177734375-1.6240234375-1.099609375-3.08837890625-2.22265625-4.39599609375-3.3759765625-1.31005859375-1.150390625-2.33056640625-2.2490234375-3.0615234375-3.296875-.7333984375-1.044921875-.94189453125-2.041015625-.6279296875-2.9833984375.31396484375-.94140625,1.72705078125-3.0341796875,4.23876953125-6.279296875,1.15087890625-1.46484375,2.40673828125-3.140625,3.76806640625-5.0244140625,1.359375-1.8837890625,2.77197265625-3.8193359375,4.2392578125-5.80859375,1.46435546875-1.8837890625,2.798828125-3.7138671875,4.00341796875-5.4951171875,1.2021484375-1.7783203125,2.328125-3.400390625,3.37548828125-4.8671875,1.150390625-1.6728515625,2.24951171875-3.296875,3.296875-4.8671875.4169921875-.8359375,1.8056640625-1.333984375,4.16064453125-1.4912109375s4.8671875,0,7.5361328125.470703125c2.6689453125.4716796875,5.1025390625,1.205078125,7.30029296875,2.1982421875,2.1982421875.99609375,3.39990234375,2.173828125,3.61083984375,3.5322265625Z" fill="#fff" stroke-width="0"/>
              </g>
            </g>
          </a>
        </g>
      </a>
    </g>
  </g>
</svg>