<?xml version="1.0" encoding="UTF-8"?>
<svg id="Layer_1" data-name="Layer 1" xmlns="http://www.w3.org/2000/svg" xmlns:xlink="http://www.w3.org/1999/xlink" viewBox="0 0 600 599.999999999998181">
  <defs>
    <linearGradient id="A6-5" data-name="A6" x1="250.085806467070142" y1="408.729918248389367" x2="354.155425152723012" y2="281.381569067276359" gradientUnits="userSpaceOnUse">
      <stop offset=".017956120092377" stop-color="#a25d99"/>
      <stop offset=".399476200618371" stop-color="#ae5e92"/>
      <stop offset=".570512820512821" stop-color="#b6608e"/>
      <stop offset=".965646651270213" stop-color="#c96282"/>
    </linearGradient>
  </defs>
  <g id="pie_with_links_-5" data-name="pie (with links)">
    <g id="pie_with_links_-6" data-name="pie (with links)">
      <g id="Pie">
        <g>
          <a xlink:href="https://www.notion.so/dmmnotes/paranoid-ae38b1e6af0c4dd08f61e0d8f6e9f05f?pvs=4">
            <path id="C8" d="M331.308105468760004,517.749511718748181l7.825683593739996,54.4306640625c26.439208984370453-3.767822265628638,51.645751953139552-11.3115234375,75.101318359370453-22.04296875l-22.832519531240905-49.996826171878638c-18.7666015625,8.572265625-38.93505859375,14.601318359378638-60.094482421869543,17.609130859378638Z" fill="none" stroke="#181818" stroke-linecap="round" stroke-linejoin="round" stroke-width="15"/>
          </a>
          <a xlink:href="https://www.notion.so/dmmnotes/menacing-a5bd7149286344deba45ec15e759e579?pvs=4">
            <path id="C7" d="M391.402587890629547,500.140380859369543l22.832519531240905,49.996826171878638c23.989990234389552-10.975830078117724,46.116210937519099-25.287109375010914,65.803955078139552-42.36181640625l-35.972900390630457-41.515869140617724c-15.753417968759095,13.65869140625-33.459228515629547,25.104492187489086-52.66357421875,33.880859374989086Z" fill="none" stroke="#181818" stroke-linecap="round" stroke-linejoin="round" stroke-width="15"/>
          </a>
          <a xlink:href="https://www.notion.so/dmmnotes/seductively-obsessed-with-rescue-6fb5a68f6d334bc29ccccc16d8a4e56e?pvs=4">
            <path id="C6" d="M444.066162109379547,466.259521484380457l35.972900390630457,41.515869140617724c19.762939453119543-17.141845703128638,37.047119140619543-37.041748046878638,51.26708984375-59.125l-46.223632812510004-29.704833984367724c-11.373291015620453,17.673583984367724-25.201171874989996,33.598876953117724-41.016357421870453,47.31396484375Z" fill="none" stroke="#181818" stroke-linecap="round" stroke-linejoin="round" stroke-width="15"/>
          </a>
          <a xlink:href="https://www.notion.so/dmmnotes/punitively-obsessed-with-revenge-33d2e77f37774316b42bccf4a60f9688?pvs=4">
            <path id="C5" d="M485.08251953125,418.945556640630457l46.223632812510004,29.704833984367724c14.048095703129547-21.809326171878638,25.08837890625-45.71875,32.551513671869543-71.175048828128638l-52.7548828125-15.490234375c-5.9619140625,20.377929687510914-14.789306640619543,39.509765625-26.020263671879547,56.960449218760914Z" fill="none" stroke="#181818" stroke-linecap="round" stroke-linejoin="round" stroke-width="15"/>
          </a>
          <a xlink:href="https://www.notion.so/dmmnotes/feigned-helpless-e79a94b0498c4e109a681b7f3dcdb088?pvs=4">
            <path id="C4" d="M520,300c0,21.538085937498181-3.142089843739996,42.321533203119543-8.897216796870453,61.985107421869543l52.7548828125,15.490234375c7.2080078125-24.583496093739086,11.142333984370453-50.5634765625,11.142333984370453-77.475341796869543h-55Z" fill="none" stroke="#181818" stroke-linecap="round" stroke-linejoin="round" stroke-width="15"/>
          </a>
          <a xlink:href="https://www.notion.so/dmmnotes/aggressive-2d8ccce383534b9dbfc7b4b10b8a5d5c?pvs=4">
            <path id="C3" d="M520,300h55c0-26.911865234390461-3.934326171870453-52.894531250011823-11.142333984370453-77.475341796890461l-52.7548828125,15.490234375c5.755126953130457,19.663574218760914,8.897216796870453,40.449707031260914,8.897216796870453,61.985107421890461Z" fill="none" stroke="#181818" stroke-linecap="round" stroke-linejoin="round" stroke-width="15"/>
          </a>
          <a xlink:href="https://www.notion.so/dmmnotes/disarming-086276e599884c86b9359acf831a8b20?pvs=4">
            <path id="C2" d="M511.102783203129547,238.014892578109539l52.7548828125-15.490234375c-7.463134765619543-25.456298828121362-18.503417968739996-49.365722656239086-32.551513671869543-71.177734374989086l-46.223632812510004,29.70751953125c11.230957031260004,17.45068359375,20.055664062510004,36.585205078117724,26.020263671879547,56.960449218739086Z" fill="none" stroke="#181818" stroke-linecap="round" stroke-linejoin="round" stroke-width="15"/>
          </a>
          <a xlink:href="https://www.notion.so/dmmnotes/threatening-348fe6a52f7a4fe69f768e98c6586932?pvs=4">
            <path id="C1" d="M485.08251953125,181.054443359370453l46.223632812510004-29.70751953125c-14.219970703130457-22.08056640625-31.504150390630457-41.980468750010914-51.26708984375-59.122314453120453l-35.972900390630457,41.518554687488177c15.815185546880457,13.71240234375,29.64306640625,29.637695312511823,41.016357421870453,47.311279296882276Z" fill="none" stroke="#181818" stroke-linecap="round" stroke-linejoin="round" stroke-width="15"/>
          </a>
          <a xlink:href="https://www.notion.so/dmmnotes/complaining-acceptance-8b40401a720c493ba73f7cde1567cf3d?pvs=4">
            <path id="B5" d="M444.066162109379547,133.743164062488177l35.972900390630457-41.518554687488177c-19.687744140620453-17.07470703125-41.81396484375-31.388671875-65.803955078139552-42.36181640625l-22.832519531240905,49.99951171875c19.204345703120453,8.773681640620453,36.910156249990905,20.22216796875,52.66357421875,33.880859374988177Z" fill="none" stroke="#181818" stroke-linecap="round" stroke-linejoin="round" stroke-width="15"/>
          </a>
          <a xlink:href="https://www.notion.so/dmmnotes/sentimental-bc554363322342b1b7ca4ccc02125049?pvs=4">
            <path id="B4" d="M391.402587890629547,99.8623046875l22.832519531240905-49.99951171875c-23.455566406230901-10.7314453125-48.662109375-18.275146484390461-75.101318359370453-22.042968749990905l-7.825683593739996,54.433349609361358c21.159423828119543,3.0078125,41.327880859369543,9.034179687489086,60.094482421869543,17.609130859379547Z" fill="none" stroke="#181818" stroke-linecap="round" stroke-linejoin="round" stroke-width="15"/>
          </a>
          <a xlink:href="https://www.notion.so/dmmnotes/comfortably-balanced-e76dc615a8b947aa915377cd02fcf716?pvs=4">
            <path id="B3" d="M300,80c10.634765625,0,21.078857421870453.797607421870453,31.308105468760004,2.253173828120453l7.825683593739996-54.433349609361358c-12.788574218739996-1.823486328138642-25.843017578129547-2.819824218759095-39.1337890625-2.819824218759095s-26.34521484375.996337890620453-39.133789062489996,2.819824218759095l7.825683593739996,54.433349609361358c10.23193359375-1.45556640625,20.67333984375-2.253173828120453,31.30810546875-2.253173828120453Z" fill="none" stroke="#181818" stroke-linecap="round" stroke-linejoin="round" stroke-width="15"/>
          </a>
          <a xlink:href="https://www.notion.so/dmmnotes/accepting-317d81273fff4cd9817cdf4a88efd378?pvs=4">
            <path id="B2" d="M268.69189453125,82.253173828120453l-7.825683593739996-54.433349609361358c-26.439208984389552,3.767822265600444-51.643066406260004,11.311523437490905-75.098632812510004,22.042968749990905l22.83251953125,49.99951171875c18.7666015625-8.574951171890461,38.93505859375-14.601318359379547,60.091796875-17.609130859379547Z" fill="none" stroke="#181818" stroke-linecap="round" stroke-linejoin="round" stroke-width="15"/>
          </a>
          <a xlink:href="https://www.notion.so/dmmnotes/distanced-from-past-2eabab7e9c77429f8e577f4e3e203653?pvs=4">
            <path id="B1" d="M208.60009765625,99.8623046875l-22.83251953125-49.99951171875c-23.99267578125,10.97314453125-46.1162109375,25.287109375-65.803955078120453,42.36181640625l35.972900390620453,41.515869140620453c15.75341796875-13.658691406260914,33.4619140625-25.1044921875,52.66357421875-33.878173828120453Z" fill="none" stroke="#181818" stroke-linecap="round" stroke-linejoin="round" stroke-width="15"/>
          </a>
          <a xlink:href="https://www.notion.so/dmmnotes/idealising-a52277f51ed14a42aae78081bb34b8be?pvs=4">
            <path id="A1" d="M155.9365234375,133.740478515620453l-35.972900390620453-41.515869140620453c-19.765625,17.141845703109539-37.049804687509095,37.041748046870453-51.269775390629547,59.122314453120453l46.226318359370453,29.70751953125c11.373291015639552-17.673583984370453,25.201171875009095-33.598876953132276,41.016357421879547-47.31396484375Z" fill="none" stroke="#181818" stroke-linecap="round" stroke-linejoin="round" stroke-width="15"/>
          </a>
          <a xlink:href="https://www.notion.so/dmmnotes/distancing-9ac690cdca654729a17a5a255944e2d1?pvs=4">
            <path id="A2" d="M114.920166015620453,181.054443359370453l-46.226318359370453-29.70751953125c-14.04541015625,21.81201171875-25.08837890625,45.721435546867724-32.551513671879547,71.177734374989086l52.754882812509095,15.490234375c5.964599609370453-20.375244140621362,14.7919921875-39.509765624989086,26.022949218740905-56.960449218739086Z" fill="none" stroke="#181818" stroke-linecap="round" stroke-linejoin="round" stroke-width="15"/>
          </a>
          <a xlink:href="https://www.notion.so/dmmnotes/compulsive-caregiving-9c380c0928294f41ae10764aa0dee886?pvs=4">
            <path id="A3" d="M88.897216796879547,238.014892578109539l-52.754882812509095-15.490234375c-7.205322265620453,24.580810546878638-11.142333984370453,50.5634765625-11.142333984370453,77.475341796890461h55c0-21.535400390629547,3.14208984375-42.321533203129547,8.897216796879547-61.985107421890461Z" fill="none" stroke="#181818" stroke-linecap="round" stroke-linejoin="round" stroke-width="15"/>
          </a>
          <a xlink:href="https://www.notion.so/dmmnotes/compulsive-compliance-6d08b7ea9a424ce1a72b9184b7850414?pvs=4">
            <path id="A4" d="M80,300H25c0,26.911865234369543,3.93701171875,52.894531249987267,11.142333984370453,77.475341796869543l52.754882812509095-15.490234375c-5.755126953129547-19.66357421875-8.897216796879547-40.447021484371362-8.897216796879547-61.985107421869543Z" fill="none" stroke="#181818" stroke-linecap="round" stroke-linejoin="round" stroke-width="15"/>
          </a>
          <a xlink:href="https://www.notion.so/dmmnotes/sexual-supplementation-8e85f49046ef412aa229745abf7d38d3?pvs=4">
            <path id="A5" d="M88.897216796879547,361.985107421869543l-52.754882812509095,15.490234375c7.463134765629547,25.456298828128638,18.506103515629547,49.36572265625,32.551513671879547,71.175048828128638l46.223632812510004-29.704833984367724c-11.230957031260004-17.450683593760914-20.055664062510004-36.58251953125-26.020263671880457-56.960449218760914Z" fill="none" stroke="#181818" stroke-linecap="round" stroke-linejoin="round" stroke-width="15"/>
          </a>
          <a xlink:href="https://www.notion.so/dmmnotes/compulsive-isolated-self-reliance-b321873a73fa41aaaadd7192fde856a2?pvs=4">
            <g id="A6">
              <path d="M119.963623046875,508.775390624994543c-.239990234375,0-.47265625-.0859375-.6552734375-.244140625-19.904052734375-17.26171875-37.216064453125-37.2265625-51.455322265625-59.33984375-.1435546875-.22265625-.192626953125-.494140625-.136474609375-.7529296875.056396484375-.259765625.21337890625-.486328125.436767578125-.62890625l46.2236328125-29.705078125c.167236328125-.1083984375.3544921875-.1591796875.53955078125-.1591796875.328857421875,0,.65087890625.162109375.841796875.458984375,11.299072265625,17.556640625,25.037353515625,33.4033203125,40.833251953125,47.099609375.417236328125.3623046875.46240234375.9931640625.100830078125,1.4111328125l-35.972900390625,41.515625c-.173828125.2001953125-.420166015625.3232421875-.684814453125.341796875-.023681640625.001953125-.04736328125.0029296875-.071044921875.0029296875Z" fill="none" stroke="#181818" stroke-linecap="round" stroke-linejoin="round" stroke-width="15"/>
              <path d="M114.91748046875,418.945556640619543c11.3759765625,17.67626953125,25.2041015625,33.6015625,41.01904296875,47.31396484375l-35.97265625,41.515869140625c-19.765625-17.141845703125-37.05029296875-37.041748046875-51.27001953125-59.125l46.2236328125-29.704833984375M114.91552734375,416.945312499994543c-.3701171875,0-.74462890625.1026611328125-1.0791015625.31768798828125l-46.2236328125,29.704833984375c-.44677734375.28692626953125-.7607421875.7396240234375-.87353515625,1.25830078125-.1123046875.51861572265625-.01416015625,1.060791015625.27294921875,1.50701904296875,14.2890625,22.1910400390625,31.6640625,42.22760009765625,51.64111328125,59.55316162109375.365234375.31640625.83056640625.48907470703125,1.310546875.48907470703125.04736328125,0,.0947265625-.00164794921875.14208984375-.00506591796875.529296875-.0377197265625,1.02197265625-.28424072265625,1.36962890625-.68524169921875l35.97265625-41.515869140625c.72314453125-.8345947265625.6328125-2.09735107421875-.20166015625-2.82080078125-15.72314453125-13.633056640625-29.39892578125-29.40753173828125-40.6474609375-46.88519287109375-.3818359375-.59393310546875-1.02587890625-.91790771484375-1.68359375-.91790771484375h0Z" fill="none" stroke="#181818" stroke-linecap="round" stroke-linejoin="round" stroke-width="15"/>
            </g>
          </a>
          <a xlink:href="https://www.notion.so/dmmnotes/delusional-idealization-743e2420b9994a48a7cab68190432e8a?pvs=4">
            <path id="A7" d="M155.9365234375,466.259521484380457l-35.972900390620453,41.515869140617724c19.687744140620453,17.074707031239086,41.811279296870453,31.385986328132276,65.803955078120453,42.36181640625l22.83251953125-49.996826171878638c-19.20166015625-8.773681640621362-36.91015625-20.222167968739086-52.66357421875-33.880859374989086Z" fill="none" stroke="#181818" stroke-linecap="round" stroke-linejoin="round" stroke-width="15"/>
          </a>
          <a xlink:href="https://www.notion.so/dmmnotes/externally-assembled-self-994ecb0895b844409b931d74a045c162?pvs=4">
            <path id="A8" d="M208.60009765625,500.140380859369543l-22.83251953125,49.996826171878638c23.45556640625,10.7314453125,48.659423828120453,18.275146484371362,75.098632812510004,22.04296875l7.825683593739996-54.4306640625c-21.15673828125-3.0078125-41.3251953125-9.0341796875-60.091796875-17.609130859378638Z" fill="none" stroke="#181818" stroke-linecap="round" stroke-linejoin="round" stroke-width="15"/>
          </a>
          <a xlink:href="https://www.notion.so/dmmnotes/psychopathy-0fe4a3222d9f4fd097ab4546c9776768?pvs=4">
            <path id="AC" d="M300,519.999999999998181c-10.634765625,0-21.076171875-.794921875-31.30810546875-2.25048828125l-7.825683593739996,54.4306640625c12.788574218739996,1.823486328132276,25.843017578119543,2.81982421875,39.133789062489996,2.81982421875s26.345214843760004-.996337890617724,39.1337890625-2.81982421875l-7.825683593739996-54.4306640625c-10.229248046889552,1.45556640625-20.673339843760004,2.25048828125-31.308105468760004,2.25048828125Z" fill="none" stroke="#181818" stroke-linecap="round" stroke-linejoin="round" stroke-width="15"/>
          </a>
        </g>
        <g>
          <a xlink:href="https://www.notion.so/dmmnotes/paranoid-ae38b1e6af0c4dd08f61e0d8f6e9f05f?pvs=4">
            <path id="C8-2" data-name="C8" d="M331.308105468760004,517.749511718748181l7.825683593739996,54.4306640625c26.439208984370453-3.767822265628638,51.645751953139552-11.3115234375,75.101318359370453-22.04296875l-22.832519531240905-49.996826171878638c-18.7666015625,8.572265625-38.93505859375,14.601318359378638-60.094482421869543,17.609130859378638Z" fill="#8f807d" stroke="#181818" stroke-linecap="round" stroke-linejoin="round" stroke-width="2"/>
          </a>
          <a xlink:href="https://www.notion.so/dmmnotes/menacing-a5bd7149286344deba45ec15e759e579?pvs=4">
            <path id="C7-2" data-name="C7" d="M391.402587890629547,500.140380859369543l22.832519531240905,49.996826171878638c23.989990234389552-10.975830078117724,46.116210937519099-25.287109375010914,65.803955078139552-42.36181640625l-35.972900390630457-41.515869140617724c-15.753417968759095,13.65869140625-33.459228515629547,25.104492187489086-52.66357421875,33.880859374989086Z" fill="#8f807d" stroke="#181818" stroke-linecap="round" stroke-linejoin="round" stroke-width="2"/>
          </a>
          <a xlink:href="https://www.notion.so/dmmnotes/seductively-obsessed-with-rescue-6fb5a68f6d334bc29ccccc16d8a4e56e?pvs=4">
            <path id="C6-2" data-name="C6" d="M444.066162109379547,466.259521484380457l35.972900390630457,41.515869140617724c19.762939453119543-17.141845703128638,37.047119140619543-37.041748046878638,51.26708984375-59.125l-46.223632812510004-29.704833984367724c-11.373291015620453,17.673583984367724-25.201171874989996,33.598876953117724-41.016357421870453,47.31396484375Z" fill="#8f807d" stroke="#181818" stroke-linecap="round" stroke-linejoin="round" stroke-width="2"/>
          </a>
          <a xlink:href="https://www.notion.so/dmmnotes/punitively-obsessed-with-revenge-33d2e77f37774316b42bccf4a60f9688?pvs=4">
            <path id="C5-2" data-name="C5" d="M485.08251953125,418.945556640630457l46.223632812510004,29.704833984367724c14.048095703129547-21.809326171878638,25.08837890625-45.71875,32.551513671869543-71.175048828128638l-52.7548828125-15.490234375c-5.9619140625,20.377929687510914-14.789306640619543,39.509765625-26.020263671879547,56.960449218760914Z" fill="#8f807d" stroke="#181818" stroke-linecap="round" stroke-linejoin="round" stroke-width="2"/>
          </a>
          <a xlink:href="https://www.notion.so/dmmnotes/feigned-helpless-e79a94b0498c4e109a681b7f3dcdb088?pvs=4">
            <path id="C4-2" data-name="C4" d="M520,300c0,21.538085937498181-3.142089843739996,42.321533203119543-8.897216796870453,61.985107421869543l52.7548828125,15.490234375c7.2080078125-24.583496093739086,11.142333984370453-50.5634765625,11.142333984370453-77.475341796869543h-55Z" fill="#8f807d" stroke="#181818" stroke-linecap="round" stroke-linejoin="round" stroke-width="2"/>
          </a>
          <a xlink:href="https://www.notion.so/dmmnotes/aggressive-2d8ccce383534b9dbfc7b4b10b8a5d5c?pvs=4">
            <path id="C3-2" data-name="C3" d="M520,300h55c0-26.911865234390461-3.934326171870453-52.894531250011823-11.142333984370453-77.475341796890461l-52.7548828125,15.490234375c5.755126953130457,19.663574218760914,8.897216796870453,40.449707031260914,8.897216796870453,61.985107421890461Z" fill="#8f807d" stroke="#181818" stroke-linecap="round" stroke-linejoin="round" stroke-width="2"/>
          </a>
          <a xlink:href="https://www.notion.so/dmmnotes/disarming-086276e599884c86b9359acf831a8b20?pvs=4">
            <path id="C2-2" data-name="C2" d="M511.102783203129547,238.014892578109539l52.7548828125-15.490234375c-7.463134765619543-25.456298828121362-18.503417968739996-49.365722656239086-32.551513671869543-71.177734374989086l-46.223632812510004,29.70751953125c11.230957031260004,17.45068359375,20.055664062510004,36.585205078117724,26.020263671879547,56.960449218739086Z" fill="#8f807d" stroke="#181818" stroke-linecap="round" stroke-linejoin="round" stroke-width="2"/>
          </a>
          <a xlink:href="https://www.notion.so/dmmnotes/threatening-348fe6a52f7a4fe69f768e98c6586932?pvs=4">
            <path id="C1-2" data-name="C1" d="M485.08251953125,181.054443359370453l46.223632812510004-29.70751953125c-14.219970703130457-22.08056640625-31.504150390630457-41.980468750010914-51.26708984375-59.122314453120453l-35.972900390630457,41.518554687488177c15.815185546880457,13.71240234375,29.64306640625,29.637695312511823,41.016357421870453,47.311279296882276Z" fill="#8f807d" stroke="#181818" stroke-linecap="round" stroke-linejoin="round" stroke-width="2"/>
          </a>
          <a xlink:href="https://www.notion.so/dmmnotes/complaining-acceptance-8b40401a720c493ba73f7cde1567cf3d?pvs=4">
            <path id="B5-2" data-name="B5" d="M444.066162109379547,133.743164062488177l35.972900390630457-41.518554687488177c-19.687744140620453-17.07470703125-41.81396484375-31.388671875-65.803955078139552-42.36181640625l-22.832519531240905,49.99951171875c19.204345703120453,8.773681640620453,36.910156249990905,20.22216796875,52.66357421875,33.880859374988177Z" fill="#8f807d" stroke="#181818" stroke-linecap="round" stroke-linejoin="round" stroke-width="2"/>
          </a>
          <a xlink:href="https://www.notion.so/dmmnotes/sentimental-bc554363322342b1b7ca4ccc02125049?pvs=4">
            <path id="B4-2" data-name="B4" d="M391.402587890629547,99.8623046875l22.832519531240905-49.99951171875c-23.455566406230901-10.7314453125-48.662109375-18.275146484390461-75.101318359370453-22.042968749990905l-7.825683593739996,54.433349609361358c21.159423828119543,3.0078125,41.327880859369543,9.034179687489086,60.094482421869543,17.609130859379547Z" fill="#8f807d" stroke="#181818" stroke-linecap="round" stroke-linejoin="round" stroke-width="2"/>
          </a>
          <a xlink:href="https://www.notion.so/dmmnotes/comfortably-balanced-e76dc615a8b947aa915377cd02fcf716?pvs=4">
            <path id="B3-2" data-name="B3" d="M300,80c10.634765625,0,21.078857421870453.797607421870453,31.308105468760004,2.253173828120453l7.825683593739996-54.433349609361358c-12.788574218739996-1.823486328138642-25.843017578129547-2.819824218759095-39.1337890625-2.819824218759095s-26.34521484375.996337890620453-39.133789062489996,2.819824218759095l7.825683593739996,54.433349609361358c10.23193359375-1.45556640625,20.67333984375-2.253173828120453,31.30810546875-2.253173828120453Z" fill="#8f807d" stroke="#181818" stroke-linecap="round" stroke-linejoin="round" stroke-width="2"/>
          </a>
          <a xlink:href="https://www.notion.so/dmmnotes/accepting-317d81273fff4cd9817cdf4a88efd378?pvs=4">
            <path id="B2-2" data-name="B2" d="M268.69189453125,82.253173828120453l-7.825683593739996-54.433349609361358c-26.439208984389552,3.767822265600444-51.643066406260004,11.311523437490905-75.098632812510004,22.042968749990905l22.83251953125,49.99951171875c18.7666015625-8.574951171890461,38.93505859375-14.601318359379547,60.091796875-17.609130859379547Z" fill="#8f807d" stroke="#181818" stroke-linecap="round" stroke-linejoin="round" stroke-width="2"/>
          </a>
          <a xlink:href="https://www.notion.so/dmmnotes/distanced-from-past-2eabab7e9c77429f8e577f4e3e203653?pvs=4">
            <path id="B1-2" data-name="B1" d="M208.60009765625,99.8623046875l-22.83251953125-49.99951171875c-23.99267578125,10.97314453125-46.1162109375,25.287109375-65.803955078120453,42.36181640625l35.972900390620453,41.515869140620453c15.75341796875-13.658691406260914,33.4619140625-25.1044921875,52.66357421875-33.878173828120453Z" fill="#8f807d" stroke="#181818" stroke-linecap="round" stroke-linejoin="round" stroke-width="2"/>
          </a>
          <a xlink:href="https://www.notion.so/dmmnotes/idealising-a52277f51ed14a42aae78081bb34b8be?pvs=4">
            <path id="A1-2" data-name="A1" d="M155.9365234375,133.740478515620453l-35.972900390620453-41.515869140620453c-19.765625,17.141845703109539-37.049804687509095,37.041748046870453-51.269775390629547,59.122314453120453l46.226318359370453,29.70751953125c11.373291015639552-17.673583984370453,25.201171875009095-33.598876953132276,41.016357421879547-47.31396484375Z" fill="#8f807d" stroke="#181818" stroke-linecap="round" stroke-linejoin="round" stroke-width="2"/>
          </a>
          <a xlink:href="https://www.notion.so/dmmnotes/distancing-9ac690cdca654729a17a5a255944e2d1?pvs=4">
            <path id="A2-2" data-name="A2" d="M114.920166015620453,181.054443359370453l-46.226318359370453-29.70751953125c-14.04541015625,21.81201171875-25.08837890625,45.721435546867724-32.551513671879547,71.177734374989086l52.754882812509095,15.490234375c5.964599609370453-20.375244140621362,14.7919921875-39.509765624989086,26.022949218740905-56.960449218739086Z" fill="#8f807d" stroke="#181818" stroke-linecap="round" stroke-linejoin="round" stroke-width="2"/>
          </a>
          <a xlink:href="https://www.notion.so/dmmnotes/compulsive-caregiving-9c380c0928294f41ae10764aa0dee886?pvs=4">
            <path id="A3-2" data-name="A3" d="M88.897216796879547,238.014892578109539l-52.754882812509095-15.490234375c-7.205322265620453,24.580810546878638-11.142333984370453,50.5634765625-11.142333984370453,77.475341796890461h55c0-21.535400390629547,3.14208984375-42.321533203129547,8.897216796879547-61.985107421890461Z" fill="#8f807d" stroke="#181818" stroke-linecap="round" stroke-linejoin="round" stroke-width="2"/>
          </a>
          <a xlink:href="https://www.notion.so/dmmnotes/compulsive-compliance-6d08b7ea9a424ce1a72b9184b7850414?pvs=4">
            <path id="A4-2" data-name="A4" d="M80,300H25c0,26.911865234369543,3.93701171875,52.894531249987267,11.142333984370453,77.475341796869543l52.754882812509095-15.490234375c-5.755126953129547-19.66357421875-8.897216796879547-40.447021484371362-8.897216796879547-61.985107421869543Z" fill="#8f807d" stroke="#181818" stroke-linecap="round" stroke-linejoin="round" stroke-width="2"/>
          </a>
          <a xlink:href="https://www.notion.so/dmmnotes/sexual-supplementation-8e85f49046ef412aa229745abf7d38d3?pvs=4">
            <path id="A5-2" data-name="A5" d="M88.897216796879547,361.985107421869543l-52.754882812509095,15.490234375c7.463134765629547,25.456298828128638,18.506103515629547,49.36572265625,32.551513671879547,71.175048828128638l46.223632812510004-29.704833984367724c-11.230957031260004-17.450683593760914-20.055664062510004-36.58251953125-26.020263671880457-56.960449218760914Z" fill="#8f807d" stroke="#181818" stroke-linecap="round" stroke-linejoin="round" stroke-width="2"/>
          </a>
          <a xlink:href="https://www.notion.so/dmmnotes/compulsive-isolated-self-reliance-b321873a73fa41aaaadd7192fde856a2?pvs=4">
            <g id="A6-2" data-name="A6">
              <path d="M119.963623046875,508.775390624994543c-.239990234375,0-.47265625-.0859375-.6552734375-.244140625-19.904052734375-17.26171875-37.216064453125-37.2265625-51.455322265625-59.33984375-.1435546875-.22265625-.192626953125-.494140625-.136474609375-.7529296875.056396484375-.259765625.21337890625-.486328125.436767578125-.62890625l46.2236328125-29.705078125c.167236328125-.1083984375.3544921875-.1591796875.53955078125-.1591796875.328857421875,0,.65087890625.162109375.841796875.458984375,11.299072265625,17.556640625,25.037353515625,33.4033203125,40.833251953125,47.099609375.417236328125.3623046875.46240234375.9931640625.100830078125,1.4111328125l-35.972900390625,41.515625c-.173828125.2001953125-.420166015625.3232421875-.684814453125.341796875-.023681640625.001953125-.04736328125.0029296875-.071044921875.0029296875Z" fill="#b9638b" stroke-width="0"/>
              <path d="M114.91748046875,418.945556640619543c11.3759765625,17.67626953125,25.2041015625,33.6015625,41.01904296875,47.31396484375l-35.97265625,41.515869140625c-19.765625-17.141845703125-37.05029296875-37.041748046875-51.27001953125-59.125l46.2236328125-29.704833984375M114.91552734375,416.945312499994543c-.3701171875,0-.74462890625.1026611328125-1.0791015625.31768798828125l-46.2236328125,29.704833984375c-.44677734375.28692626953125-.7607421875.7396240234375-.87353515625,1.25830078125-.1123046875.51861572265625-.01416015625,1.060791015625.27294921875,1.50701904296875,14.2890625,22.1910400390625,31.6640625,42.22760009765625,51.64111328125,59.55316162109375.365234375.31640625.83056640625.48907470703125,1.310546875.48907470703125.04736328125,0,.0947265625-.00164794921875.14208984375-.00506591796875.529296875-.0377197265625,1.02197265625-.28424072265625,1.36962890625-.68524169921875l35.97265625-41.515869140625c.72314453125-.8345947265625.6328125-2.09735107421875-.20166015625-2.82080078125-15.72314453125-13.633056640625-29.39892578125-29.40753173828125-40.6474609375-46.88519287109375-.3818359375-.59393310546875-1.02587890625-.91790771484375-1.68359375-.91790771484375h0Z" fill="#181818" stroke-width="0"/>
            </g>
          </a>
          <a xlink:href="https://www.notion.so/dmmnotes/delusional-idealization-743e2420b9994a48a7cab68190432e8a?pvs=4">
            <path id="A7-2" data-name="A7" d="M155.9365234375,466.259521484380457l-35.972900390620453,41.515869140617724c19.687744140620453,17.074707031239086,41.811279296870453,31.385986328132276,65.803955078120453,42.36181640625l22.83251953125-49.996826171878638c-19.20166015625-8.773681640621362-36.91015625-20.222167968739086-52.66357421875-33.880859374989086Z" fill="#8f807d" stroke="#181818" stroke-linecap="round" stroke-linejoin="round" stroke-width="2"/>
          </a>
          <a xlink:href="https://www.notion.so/dmmnotes/externally-assembled-self-994ecb0895b844409b931d74a045c162?pvs=4">
            <path id="A8-2" data-name="A8" d="M208.60009765625,500.140380859369543l-22.83251953125,49.996826171878638c23.45556640625,10.7314453125,48.659423828120453,18.275146484371362,75.098632812510004,22.04296875l7.825683593739996-54.4306640625c-21.15673828125-3.0078125-41.3251953125-9.0341796875-60.091796875-17.609130859378638Z" fill="#8f807d" stroke="#181818" stroke-linecap="round" stroke-linejoin="round" stroke-width="2"/>
          </a>
          <a xlink:href="https://www.notion.so/dmmnotes/psychopathy-0fe4a3222d9f4fd097ab4546c9776768?pvs=4">
            <path id="AC-2" data-name="AC" d="M300,519.999999999998181c-10.634765625,0-21.076171875-.794921875-31.30810546875-2.25048828125l-7.825683593739996,54.4306640625c12.788574218739996,1.823486328132276,25.843017578119543,2.81982421875,39.133789062489996,2.81982421875s26.345214843760004-.996337890617724,39.1337890625-2.81982421875l-7.825683593739996-54.4306640625c-10.229248046889552,1.45556640625-20.673339843760004,2.25048828125-31.308105468760004,2.25048828125Z" fill="#8f807d" stroke="#181818" stroke-linecap="round" stroke-linejoin="round" stroke-width="2"/>
          </a>
        </g>
      </g>
      <a xlink:href="https://www.notion.so/dmmnotes/A6-b321873a73fa41aaaadd7192fde856a2?pvs=4#6240fd0dc246443faceeffc774f1175c">
        <g id="A6-3" data-name="A6">
          <g id="A6-4" data-name="A6">
            <path d="M299.95654296875,414.712890624994543c-10.224609375,0-20.098876953125-2.287109375-29.3486328125-6.798828125-33.228759765625-16.20703125-47.077392578125-56.4267578125-30.87109375-89.6552734375,11.3330078125-23.23583984375,34.441162109375-37.669921875,60.306396484375-37.669921875,10.224853515625,0,20.09912109375,2.287109375,29.348876953125,6.798828125,16.096923828125,7.8505859375,28.1728515625,21.5,34.003662109375,38.43359375s4.71826171875,35.125-3.1328125,51.2216796875c-11.332763671875,23.2353515625-34.44091796875,37.669921875-60.306396484375,37.669921875Z" fill="url(#A6-5)" stroke-width="0"/>
            <path d="M300.04296875,289.088745117182043c8.615234375-.00079345703125,17.3583984375,1.90789794921875,25.623046875,5.938720703125,29.06298828125,14.17498779296875,41.13232421875,49.226287841796875,26.95703125,78.289276123046875-10.14404296875,20.798553466796875-30.98486328125,32.895965576171875-52.666015625,32.895965576171875-8.615234375,0-17.3583984375-1.907958984375-25.623046875-5.93878173828125-29.06298828125-14.1749267578125-41.13232421875-49.226226806640625-26.95703125-78.289276123046875,10.14404296875-20.798583984375,30.98486328125-32.893951416015625,52.666015625-32.895904541015625M300.04833984375,272.088745117182043v17l-.00146484375-17c-13.95263671875.001251220703125-27.623046875,3.856719970703125-39.5380859375,11.14959716796875-12.26220703125,7.505401611328125-22.0869140625,18.32672119140625-28.41162109375,31.2940673828125-8.84619140625,18.137298583984375-10.099609375,38.634124755859375-3.52978515625,57.714569091796875,6.56982421875,19.080352783203125,20.1767578125,34.460235595703125,38.314453125,43.306488037109375,10.419921875,5.082275390625,21.54833984375,7.65924072265625,33.0751953125,7.65924072265625,13.94775390625,0,27.6181640625-3.85528564453125,39.53466796875-11.1490478515625,12.26171875-7.505615234375,22.08642578125-18.32708740234375,28.4111328125-31.294677734375,8.84619140625-18.137237548828125,10.099609375-38.634124755859375,3.52978515625-57.714508056640625-6.56982421875-19.080352783203125-20.1767578125-34.460235595703125-38.314453125-43.306488037109375-10.419921875-5.082275390625-21.54638671875-7.65924072265625-33.06982421875-7.65924072265625h0Z" fill="#181818" stroke-width="0"/>
          </g>
          <a xlink:href="https://www.notion.so/dmmnotes/A6-b321873a73fa41aaaadd7192fde856a2?pvs=4#6240fd0dc246443faceeffc774f1175c">
            <g>
              <g>
                <path d="M273.7822265625,213.096679687494543c3.9765625,2.302734375,7.37890625,5.12890625,10.205078125,8.4775390625,2.82568359375,3.3515625,5.20556640625,7.013671875,7.1435546875,10.990234375,1.935546875,3.978515625,3.478515625,8.1904296875,4.63134765625,12.638671875,1.150390625,4.44921875,2.041015625,8.923828125,2.6689453125,13.4228515625,1.46435546875,8.8974609375,2.30126953125,17.8984375,2.51220703125,27.00390625.20849609375,9.1064453125.05126953125,18.2666015625-.47119140625,27.4755859375-.2109375,2.6171875-.41943359375,4.763671875-.6279296875,6.4365234375-.2109375,1.67578125-.603515625,3.037109375-1.177734375,4.08203125-.576171875,1.0478515625-1.38818359375,1.884765625-2.43310546875,2.5126953125-1.0478515625.6279296875-2.51220703125,1.2021484375-4.39599609375,1.7265625-1.78125.208984375-3.63818359375.365234375-5.57373046875.470703125-1.93798828125.103515625-3.74365234375-.4189453125-5.41650390625-1.5693359375-1.56982421875-1.044921875-2.8798828125-2.826171875-3.9248046875-5.337890625-1.0478515625-2.5126953125-1.6240234375-6.123046875-1.72705078125-10.8330078125v-1.5703125c-2.61767578125-.314453125-5.73046875-.57421875-9.341796875-.78515625-3.61083984375-.2080078125-7.30029296875-.3388671875-11.068359375-.392578125-3.76806640625-.0517578125-7.40576171875-.078125-10.91162109375-.078125h-8.8701171875c-.10546875.94140625-.23583984375,2.51171875-.392578125,4.7099609375-.1572265625,2.1982421875-.498046875,4.3955078125-1.0205078125,6.59375-.52490234375,2.1982421875-1.2314453125,4.1875-2.11962890625,5.9658203125-.890625,1.78125-2.11962890625,2.720703125-3.689453125,2.826171875-1.466796875.103515625-3.14013671875.208984375-5.02392578125.314453125-1.88427734375.1025390625-3.716796875-.10546875-5.4951171875-.6279296875-1.78076171875-.41796875-3.2724609375-1.2568359375-4.474609375-2.5126953125-1.20458984375-1.255859375-1.859375-3.2431640625-1.96240234375-5.9658203125,0-3.2431640625.0517578125-6.958984375.1572265625-11.146484375.10302734375-4.185546875.31396484375-8.73828125.6279296875-13.6591796875.20849609375-4.08203125.54931640625-8.556640625,1.0205078125-13.423828125.470703125-4.8671875,1.150390625-9.8642578125,2.041015625-14.9931640625.8876953125-5.126953125,2.041015625-10.2568359375,3.45361328125-15.38671875,1.4130859375-5.126953125,3.19189453125-9.9931640625,5.33837890625-14.6005859375,2.14404296875-4.6044921875,4.68310546875-8.84375,7.6142578125-12.716796875,2.92919921875-3.87109375,6.43701171875-7.1162109375,10.51904296875-9.734375,4.81298828125-3.0341796875,10.099609375-4.552734375,15.85693359375-4.552734375,5.75537109375,0,11.19873046875,1.4130859375,16.328125,4.2392578125ZM235.63134765625,284.531249999994543c6.59375-.5224609375,13.16064453125-.9150390625,19.703125-1.177734375,6.5400390625-.259765625,13.10986328125-.287109375,19.70361328125-.078125.31396484375-7.4306640625,0-14.076171875-.94189453125-19.939453125-.94189453125-5.8603515625-2.251953125-10.8056640625-3.9248046875-14.8359375-1.67578125-4.0283203125-3.6650390625-7.1162109375-5.96630859375-9.2626953125-2.30322265625-2.14453125-4.658203125-3.21875-7.06494140625-3.21875-2.0947265625,0-4.26611328125,1.07421875-6.515625,3.21875-2.251953125,2.146484375-4.34423828125,5.2861328125-6.27978515625,9.419921875-1.93798828125,4.1357421875-3.689453125,9.23828125-5.25927734375,15.306640625-1.5703125,6.072265625-2.72314453125,12.9287109375-3.4541015625,20.5673828125Z" fill="none" stroke="#181818" stroke-linecap="round" stroke-linejoin="round" stroke-width="33"/>
                <path d="M341.9189453125,254.543945312494543c6.697265625-.94140625,12.84716796875-.8359375,18.44775390625.314453125,5.59765625,1.1533203125,10.38623046875,3.2451171875,14.365234375,6.2802734375,3.9765625,3.037109375,7.01123046875,6.9072265625,9.10595703125,11.6181640625,2.0927734375,4.7099609375,3.03466796875,10.1015625,2.826171875,16.1708984375-.2109375,4.5009765625-1.0205078125,8.8701171875-2.43359375,13.109375-1.4130859375,4.23828125-3.42919921875,8.0849609375-6.04443359375,11.5390625-2.61767578125,3.4541015625-5.78466796875,6.4375-9.49853515625,8.94921875-3.71630859375,2.51171875-7.9287109375,4.29296875-12.638671875,5.337890625-1.78076171875.314453125-3.5078125.5498046875-5.1806640625.70703125-1.67578125.15625-3.40283203125.1298828125-5.18115234375-.0791015625-4.7099609375-.3134765625-9.21142578125-1.4130859375-13.501953125-3.296875-4.29296875-1.8837890625-8.1123046875-4.3955078125-11.4609375-7.5361328125-3.35107421875-3.1396484375-6.123046875-6.8291015625-8.3212890625-11.068359375-2.19775390625-4.2392578125-3.5078125-8.8701171875-3.9248046875-13.89453125-.52490234375-5.65234375-.18408203125-11.4853515625,1.0205078125-17.505859375,1.2021484375-6.017578125,2.98291015625-11.904296875,5.337890625-17.662109375,2.35498046875-5.7548828125,5.154296875-11.2255859375,8.3994140625-16.40625,3.2431640625-5.181640625,6.6455078125-9.70703125,10.205078125-13.5810546875,1.46435546875-1.6728515625,3.0078125-3.2177734375,4.63134765625-4.630859375,1.62158203125-1.4130859375,3.27001953125-2.5908203125,4.94580078125-3.533203125.83642578125-.5224609375,1.7783203125-.7060546875,2.826171875-.548828125,1.044921875.15625,1.93505859375.603515625,2.6689453125,1.333984375,1.150390625.9423828125,2.35498046875,2.1201171875,3.61083984375,3.533203125,1.255859375,1.412109375,2.30078125,2.9580078125,3.14013671875,4.630859375.4169921875.7333984375.7578125,1.4912109375,1.0205078125,2.2763671875.259765625.78515625.33837890625,1.59765625.2353515625,2.43359375,0,1.78125-.7333984375,3.40234375-2.1982421875,4.8671875-4.8154296875,4.9208984375-8.94873046875,10.4677734375-12.40283203125,16.6416015625ZM352.9091796875,276.837890624994543c-3.35107421875-.8359375-6.35888671875-.8359375-9.02783203125,0-2.6689453125.83984375-4.86669921875,2.1201171875-6.59375,3.8466796875-1.72705078125,1.7275390625-2.95849609375,3.794921875-3.689453125,6.2021484375-.7333984375,2.408203125-.83935546875,4.736328125-.31396484375,6.986328125.5224609375,2.251953125,1.75146484375,4.29296875,3.689453125,6.123046875,1.935546875,1.83203125,4.63134765625,3.115234375,8.08544921875,3.8466796875,2.09228515625.3134765625,4.13330078125.2353515625,6.123046875-.236328125,1.98681640625-.470703125,3.76806640625-1.4912109375,5.337890625-3.0615234375,1.7783203125-1.7783203125,2.98291015625-3.8974609375,3.61083984375-6.3583984375.6279296875-2.4580078125.78515625-4.8662109375.47119140625-7.2216796875s-1.1259765625-4.474609375-2.43359375-6.3583984375c-1.31005859375-1.8837890625-3.0615234375-3.1396484375-5.25927734375-3.7685546875Z" fill="none" stroke="#181818" stroke-linecap="round" stroke-linejoin="round" stroke-width="33"/>
              </g>
              <g>
                <path d="M273.7822265625,213.096679687494543c3.9765625,2.302734375,7.37890625,5.12890625,10.205078125,8.4775390625,2.82568359375,3.3515625,5.20556640625,7.013671875,7.1435546875,10.990234375,1.935546875,3.978515625,3.478515625,8.1904296875,4.63134765625,12.638671875,1.150390625,4.44921875,2.041015625,8.923828125,2.6689453125,13.4228515625,1.46435546875,8.8974609375,2.30126953125,17.8984375,2.51220703125,27.00390625.20849609375,9.1064453125.05126953125,18.2666015625-.47119140625,27.4755859375-.2109375,2.6171875-.41943359375,4.763671875-.6279296875,6.4365234375-.2109375,1.67578125-.603515625,3.037109375-1.177734375,4.08203125-.576171875,1.0478515625-1.38818359375,1.884765625-2.43310546875,2.5126953125-1.0478515625.6279296875-2.51220703125,1.2021484375-4.39599609375,1.7265625-1.78125.208984375-3.63818359375.365234375-5.57373046875.470703125-1.93798828125.103515625-3.74365234375-.4189453125-5.41650390625-1.5693359375-1.56982421875-1.044921875-2.8798828125-2.826171875-3.9248046875-5.337890625-1.0478515625-2.5126953125-1.6240234375-6.123046875-1.72705078125-10.8330078125v-1.5703125c-2.61767578125-.314453125-5.73046875-.57421875-9.341796875-.78515625-3.61083984375-.2080078125-7.30029296875-.3388671875-11.068359375-.392578125-3.76806640625-.0517578125-7.40576171875-.078125-10.91162109375-.078125h-8.8701171875c-.10546875.94140625-.23583984375,2.51171875-.392578125,4.7099609375-.1572265625,2.1982421875-.498046875,4.3955078125-1.0205078125,6.59375-.52490234375,2.1982421875-1.2314453125,4.1875-2.11962890625,5.9658203125-.890625,1.78125-2.11962890625,2.720703125-3.689453125,2.826171875-1.466796875.103515625-3.14013671875.208984375-5.02392578125.314453125-1.88427734375.1025390625-3.716796875-.10546875-5.4951171875-.6279296875-1.78076171875-.41796875-3.2724609375-1.2568359375-4.474609375-2.5126953125-1.20458984375-1.255859375-1.859375-3.2431640625-1.96240234375-5.9658203125,0-3.2431640625.0517578125-6.958984375.1572265625-11.146484375.10302734375-4.185546875.31396484375-8.73828125.6279296875-13.6591796875.20849609375-4.08203125.54931640625-8.556640625,1.0205078125-13.423828125.470703125-4.8671875,1.150390625-9.8642578125,2.041015625-14.9931640625.8876953125-5.126953125,2.041015625-10.2568359375,3.45361328125-15.38671875,1.4130859375-5.126953125,3.19189453125-9.9931640625,5.33837890625-14.6005859375,2.14404296875-4.6044921875,4.68310546875-8.84375,7.6142578125-12.716796875,2.92919921875-3.87109375,6.43701171875-7.1162109375,10.51904296875-9.734375,4.81298828125-3.0341796875,10.099609375-4.552734375,15.85693359375-4.552734375,5.75537109375,0,11.19873046875,1.4130859375,16.328125,4.2392578125ZM235.63134765625,284.531249999994543c6.59375-.5224609375,13.16064453125-.9150390625,19.703125-1.177734375,6.5400390625-.259765625,13.10986328125-.287109375,19.70361328125-.078125.31396484375-7.4306640625,0-14.076171875-.94189453125-19.939453125-.94189453125-5.8603515625-2.251953125-10.8056640625-3.9248046875-14.8359375-1.67578125-4.0283203125-3.6650390625-7.1162109375-5.96630859375-9.2626953125-2.30322265625-2.14453125-4.658203125-3.21875-7.06494140625-3.21875-2.0947265625,0-4.26611328125,1.07421875-6.515625,3.21875-2.251953125,2.146484375-4.34423828125,5.2861328125-6.27978515625,9.419921875-1.93798828125,4.1357421875-3.689453125,9.23828125-5.25927734375,15.306640625-1.5703125,6.072265625-2.72314453125,12.9287109375-3.4541015625,20.5673828125Z" fill="#fff" stroke-width="0"/>
                <path d="M341.9189453125,254.543945312494543c6.697265625-.94140625,12.84716796875-.8359375,18.44775390625.314453125,5.59765625,1.1533203125,10.38623046875,3.2451171875,14.365234375,6.2802734375,3.9765625,3.037109375,7.01123046875,6.9072265625,9.10595703125,11.6181640625,2.0927734375,4.7099609375,3.03466796875,10.1015625,2.826171875,16.1708984375-.2109375,4.5009765625-1.0205078125,8.8701171875-2.43359375,13.109375-1.4130859375,4.23828125-3.42919921875,8.0849609375-6.04443359375,11.5390625-2.61767578125,3.4541015625-5.78466796875,6.4375-9.49853515625,8.94921875-3.71630859375,2.51171875-7.9287109375,4.29296875-12.638671875,5.337890625-1.78076171875.314453125-3.5078125.5498046875-5.1806640625.70703125-1.67578125.15625-3.40283203125.1298828125-5.18115234375-.0791015625-4.7099609375-.3134765625-9.21142578125-1.4130859375-13.501953125-3.296875-4.29296875-1.8837890625-8.1123046875-4.3955078125-11.4609375-7.5361328125-3.35107421875-3.1396484375-6.123046875-6.8291015625-8.3212890625-11.068359375-2.19775390625-4.2392578125-3.5078125-8.8701171875-3.9248046875-13.89453125-.52490234375-5.65234375-.18408203125-11.4853515625,1.0205078125-17.505859375,1.2021484375-6.017578125,2.98291015625-11.904296875,5.337890625-17.662109375,2.35498046875-5.7548828125,5.154296875-11.2255859375,8.3994140625-16.40625,3.2431640625-5.181640625,6.6455078125-9.70703125,10.205078125-13.5810546875,1.46435546875-1.6728515625,3.0078125-3.2177734375,4.63134765625-4.630859375,1.62158203125-1.4130859375,3.27001953125-2.5908203125,4.94580078125-3.533203125.83642578125-.5224609375,1.7783203125-.7060546875,2.826171875-.548828125,1.044921875.15625,1.93505859375.603515625,2.6689453125,1.333984375,1.150390625.9423828125,2.35498046875,2.1201171875,3.61083984375,3.533203125,1.255859375,1.412109375,2.30078125,2.9580078125,3.14013671875,4.630859375.4169921875.7333984375.7578125,1.4912109375,1.0205078125,2.2763671875.259765625.78515625.33837890625,1.59765625.2353515625,2.43359375,0,1.78125-.7333984375,3.40234375-2.1982421875,4.8671875-4.8154296875,4.9208984375-8.94873046875,10.4677734375-12.40283203125,16.6416015625ZM352.9091796875,276.837890624994543c-3.35107421875-.8359375-6.35888671875-.8359375-9.02783203125,0-2.6689453125.83984375-4.86669921875,2.1201171875-6.59375,3.8466796875-1.72705078125,1.7275390625-2.95849609375,3.794921875-3.689453125,6.2021484375-.7333984375,2.408203125-.83935546875,4.736328125-.31396484375,6.986328125.5224609375,2.251953125,1.75146484375,4.29296875,3.689453125,6.123046875,1.935546875,1.83203125,4.63134765625,3.115234375,8.08544921875,3.8466796875,2.09228515625.3134765625,4.13330078125.2353515625,6.123046875-.236328125,1.98681640625-.470703125,3.76806640625-1.4912109375,5.337890625-3.0615234375,1.7783203125-1.7783203125,2.98291015625-3.8974609375,3.61083984375-6.3583984375.6279296875-2.4580078125.78515625-4.8662109375.47119140625-7.2216796875s-1.1259765625-4.474609375-2.43359375-6.3583984375c-1.31005859375-1.8837890625-3.0615234375-3.1396484375-5.25927734375-3.7685546875Z" fill="#fff" stroke-width="0"/>
              </g>
            </g>
          </a>
        </g>
      </a>
    </g>
  </g>
</svg>