<?xml version="1.0" encoding="UTF-8"?>
<svg id="Layer_1" data-name="Layer 1" xmlns="http://www.w3.org/2000/svg" xmlns:xlink="http://www.w3.org/1999/xlink" viewBox="0 0 600 599.999999999998181">
  <defs>
    <linearGradient id="A5-4" data-name="A5" x1="264.848659036526442" y1="400.701646062461805" x2="338.337010299231565" y2="289.784445088332006" gradientUnits="userSpaceOnUse">
      <stop offset="0" stop-color="#8e5ba6"/>
      <stop offset=".438390020007055" stop-color="#a25d99"/>
      <stop offset="1" stop-color="#b6608e"/>
    </linearGradient>
  </defs>
  <g id="pie_with_links_-5" data-name="pie (with links)">
    <g id="pie_with_links_-6" data-name="pie (with links)">
      <g id="Pie">
        <g>
          <a xlink:href="https://www.notion.so/dmmnotes/paranoid-ae38b1e6af0c4dd08f61e0d8f6e9f05f?pvs=4">
            <path id="C8" d="M331.308105468760004,517.749511718748181l7.825683593739996,54.4306640625c26.439208984370453-3.767822265628638,51.645751953139552-11.3115234375,75.101318359370453-22.04296875l-22.832519531240905-49.996826171878638c-18.7666015625,8.572265625-38.93505859375,14.601318359378638-60.094482421869543,17.609130859378638Z" fill="none" stroke="#181818" stroke-linecap="round" stroke-linejoin="round" stroke-width="15"/>
          </a>
          <a xlink:href="https://www.notion.so/dmmnotes/menacing-a5bd7149286344deba45ec15e759e579?pvs=4">
            <path id="C7" d="M391.402587890629547,500.140380859369543l22.832519531240905,49.996826171878638c23.989990234389552-10.975830078117724,46.116210937519099-25.287109375010914,65.803955078139552-42.36181640625l-35.972900390630457-41.515869140617724c-15.753417968759095,13.65869140625-33.459228515629547,25.104492187489086-52.66357421875,33.880859374989086Z" fill="none" stroke="#181818" stroke-linecap="round" stroke-linejoin="round" stroke-width="15"/>
          </a>
          <a xlink:href="https://www.notion.so/dmmnotes/seductively-obsessed-with-rescue-6fb5a68f6d334bc29ccccc16d8a4e56e?pvs=4">
            <path id="C6" d="M444.066162109379547,466.259521484380457l35.972900390630457,41.515869140617724c19.762939453119543-17.141845703128638,37.047119140619543-37.041748046878638,51.26708984375-59.125l-46.223632812510004-29.704833984367724c-11.373291015620453,17.673583984367724-25.201171874989996,33.598876953117724-41.016357421870453,47.31396484375Z" fill="none" stroke="#181818" stroke-linecap="round" stroke-linejoin="round" stroke-width="15"/>
          </a>
          <a xlink:href="https://www.notion.so/dmmnotes/punitively-obsessed-with-revenge-33d2e77f37774316b42bccf4a60f9688?pvs=4">
            <path id="C5" d="M485.08251953125,418.945556640630457l46.223632812510004,29.704833984367724c14.048095703129547-21.809326171878638,25.08837890625-45.71875,32.551513671869543-71.175048828128638l-52.7548828125-15.490234375c-5.9619140625,20.377929687510914-14.789306640619543,39.509765625-26.020263671879547,56.960449218760914Z" fill="none" stroke="#181818" stroke-linecap="round" stroke-linejoin="round" stroke-width="15"/>
          </a>
          <a xlink:href="https://www.notion.so/dmmnotes/feigned-helpless-e79a94b0498c4e109a681b7f3dcdb088?pvs=4">
            <path id="C4" d="M520,300c0,21.538085937498181-3.142089843739996,42.321533203119543-8.897216796870453,61.985107421869543l52.7548828125,15.490234375c7.2080078125-24.583496093739086,11.142333984370453-50.5634765625,11.142333984370453-77.475341796869543h-55Z" fill="none" stroke="#181818" stroke-linecap="round" stroke-linejoin="round" stroke-width="15"/>
          </a>
          <a xlink:href="https://www.notion.so/dmmnotes/aggressive-2d8ccce383534b9dbfc7b4b10b8a5d5c?pvs=4">
            <path id="C3" d="M520,300h55c0-26.911865234390461-3.934326171870453-52.894531250011823-11.142333984370453-77.475341796890461l-52.7548828125,15.490234375c5.755126953130457,19.663574218760914,8.897216796870453,40.449707031260914,8.897216796870453,61.985107421890461Z" fill="none" stroke="#181818" stroke-linecap="round" stroke-linejoin="round" stroke-width="15"/>
          </a>
          <a xlink:href="https://www.notion.so/dmmnotes/disarming-086276e599884c86b9359acf831a8b20?pvs=4">
            <path id="C2" d="M511.102783203129547,238.014892578109539l52.7548828125-15.490234375c-7.463134765619543-25.456298828121362-18.503417968739996-49.365722656239086-32.551513671869543-71.177734374989086l-46.223632812510004,29.70751953125c11.230957031260004,17.45068359375,20.055664062510004,36.585205078117724,26.020263671879547,56.960449218739086Z" fill="none" stroke="#181818" stroke-linecap="round" stroke-linejoin="round" stroke-width="15"/>
          </a>
          <a xlink:href="https://www.notion.so/dmmnotes/threatening-348fe6a52f7a4fe69f768e98c6586932?pvs=4">
            <path id="C1" d="M485.08251953125,181.054443359370453l46.223632812510004-29.70751953125c-14.219970703130457-22.08056640625-31.504150390630457-41.980468750010914-51.26708984375-59.122314453120453l-35.972900390630457,41.518554687488177c15.815185546880457,13.71240234375,29.64306640625,29.637695312511823,41.016357421870453,47.311279296882276Z" fill="none" stroke="#181818" stroke-linecap="round" stroke-linejoin="round" stroke-width="15"/>
          </a>
          <a xlink:href="https://www.notion.so/dmmnotes/complaining-acceptance-8b40401a720c493ba73f7cde1567cf3d?pvs=4">
            <path id="B5" d="M444.066162109379547,133.743164062488177l35.972900390630457-41.518554687488177c-19.687744140620453-17.07470703125-41.81396484375-31.388671875-65.803955078139552-42.36181640625l-22.832519531240905,49.99951171875c19.204345703120453,8.773681640620453,36.910156249990905,20.22216796875,52.66357421875,33.880859374988177Z" fill="none" stroke="#181818" stroke-linecap="round" stroke-linejoin="round" stroke-width="15"/>
          </a>
          <a xlink:href="https://www.notion.so/dmmnotes/sentimental-bc554363322342b1b7ca4ccc02125049?pvs=4">
            <path id="B4" d="M391.402587890629547,99.8623046875l22.832519531240905-49.99951171875c-23.455566406230901-10.7314453125-48.662109375-18.275146484390461-75.101318359370453-22.042968749990905l-7.825683593739996,54.433349609361358c21.159423828119543,3.0078125,41.327880859369543,9.034179687489086,60.094482421869543,17.609130859379547Z" fill="none" stroke="#181818" stroke-linecap="round" stroke-linejoin="round" stroke-width="15"/>
          </a>
          <a xlink:href="https://www.notion.so/dmmnotes/comfortably-balanced-e76dc615a8b947aa915377cd02fcf716?pvs=4">
            <path id="B3" d="M300,80c10.634765625,0,21.078857421870453.797607421870453,31.308105468760004,2.253173828120453l7.825683593739996-54.433349609361358c-12.788574218739996-1.823486328138642-25.843017578129547-2.819824218759095-39.1337890625-2.819824218759095s-26.34521484375.996337890620453-39.133789062489996,2.819824218759095l7.825683593739996,54.433349609361358c10.23193359375-1.45556640625,20.67333984375-2.253173828120453,31.30810546875-2.253173828120453Z" fill="none" stroke="#181818" stroke-linecap="round" stroke-linejoin="round" stroke-width="15"/>
          </a>
          <a xlink:href="https://www.notion.so/dmmnotes/accepting-317d81273fff4cd9817cdf4a88efd378?pvs=4">
            <path id="B2" d="M268.69189453125,82.253173828120453l-7.825683593739996-54.433349609361358c-26.439208984389552,3.767822265600444-51.643066406260004,11.311523437490905-75.098632812510004,22.042968749990905l22.83251953125,49.99951171875c18.7666015625-8.574951171890461,38.93505859375-14.601318359379547,60.091796875-17.609130859379547Z" fill="none" stroke="#181818" stroke-linecap="round" stroke-linejoin="round" stroke-width="15"/>
          </a>
          <a xlink:href="https://www.notion.so/dmmnotes/distanced-from-past-2eabab7e9c77429f8e577f4e3e203653?pvs=4">
            <path id="B1" d="M208.60009765625,99.8623046875l-22.83251953125-49.99951171875c-23.99267578125,10.97314453125-46.1162109375,25.287109375-65.803955078120453,42.36181640625l35.972900390620453,41.515869140620453c15.75341796875-13.658691406260914,33.4619140625-25.1044921875,52.66357421875-33.878173828120453Z" fill="none" stroke="#181818" stroke-linecap="round" stroke-linejoin="round" stroke-width="15"/>
          </a>
          <a xlink:href="https://www.notion.so/dmmnotes/idealising-a52277f51ed14a42aae78081bb34b8be?pvs=4">
            <path id="A1" d="M155.9365234375,133.740478515620453l-35.972900390620453-41.515869140620453c-19.765625,17.141845703109539-37.049804687509095,37.041748046870453-51.269775390629547,59.122314453120453l46.226318359370453,29.70751953125c11.373291015639552-17.673583984370453,25.201171875009095-33.598876953132276,41.016357421879547-47.31396484375Z" fill="none" stroke="#181818" stroke-linecap="round" stroke-linejoin="round" stroke-width="15"/>
          </a>
          <a xlink:href="https://www.notion.so/dmmnotes/distancing-9ac690cdca654729a17a5a255944e2d1?pvs=4">
            <path id="A2" d="M114.920166015620453,181.054443359370453l-46.226318359370453-29.70751953125c-14.04541015625,21.81201171875-25.08837890625,45.721435546867724-32.551513671879547,71.177734374989086l52.754882812509095,15.490234375c5.964599609370453-20.375244140621362,14.7919921875-39.509765624989086,26.022949218740905-56.960449218739086Z" fill="none" stroke="#181818" stroke-linecap="round" stroke-linejoin="round" stroke-width="15"/>
          </a>
          <a xlink:href="https://www.notion.so/dmmnotes/compulsive-caregiving-9c380c0928294f41ae10764aa0dee886?pvs=4">
            <path id="A3" d="M88.897216796879547,238.014892578109539l-52.754882812509095-15.490234375c-7.205322265620453,24.580810546878638-11.142333984370453,50.5634765625-11.142333984370453,77.475341796890461h55c0-21.535400390629547,3.14208984375-42.321533203129547,8.897216796879547-61.985107421890461Z" fill="none" stroke="#181818" stroke-linecap="round" stroke-linejoin="round" stroke-width="15"/>
          </a>
          <a xlink:href="https://www.notion.so/dmmnotes/compulsive-compliance-6d08b7ea9a424ce1a72b9184b7850414?pvs=4">
            <path id="A4" d="M80,300H25c0,26.911865234369543,3.93701171875,52.894531249987267,11.142333984370453,77.475341796869543l52.754882812509095-15.490234375c-5.755126953129547-19.66357421875-8.897216796879547-40.447021484371362-8.897216796879547-61.985107421869543Z" fill="none" stroke="#181818" stroke-linecap="round" stroke-linejoin="round" stroke-width="15"/>
          </a>
          <a xlink:href="https://www.notion.so/dmmnotes/sexual-supplementation-8e85f49046ef412aa229745abf7d38d3?pvs=4">
            <g id="A5">
              <path d="M68.69482421875,449.650390624994543c-.32861328125,0-.650634765625-.162109375-.841796875-.458984375-14.28466796875-22.1806640625-25.2763671875-46.21484375-32.67041015625-71.4345703125-.1552734375-.529296875.148193359375-1.0849609375.677978515625-1.2412109375l52.7548828125-15.490234375c.09228515625-.0263671875.187255859375-.0400390625.28173828125-.0400390625.166015625,0,.331298828125.041015625.479736328125.1220703125.232666015625.1279296875.405517578125.3427734375.47998046875.5966796875,5.86181640625,20.02734375,14.576171875,39.103515625,25.9013671875,56.7001953125.1435546875.22265625.192626953125.494140625.136474609375.7529296875-.056396484375.259765625-.21337890625.486328125-.436767578125.62890625l-46.2236328125,29.705078125c-.167236328125.1083984375-.3544921875.1591796875-.53955078125.1591796875Z" fill="none" stroke="#181818" stroke-linecap="round" stroke-linejoin="round" stroke-width="15"/>
              <path d="M88.8974609375,361.985107421869543c5.96435546875,20.3779296875,14.7890625,39.509765625,26.02001953125,56.96044921875l-46.2236328125,29.704833984375c-14.04541015625-21.809326171875-25.08837890625-45.71875-32.5517578125-71.175048828125l52.75537109375-15.490234375M88.8974609375,359.985107421869543c-.18896484375,0-.37890625.02679443359375-.5634765625.081024169921875l-52.75537109375,15.490234375c-1.0595703125.31109619140625-1.66650390625,1.422027587890625-1.35595703125,2.481658935546875,7.42138671875,25.31243896484375,18.45361328125,49.4342041015625,32.78955078125,71.69525146484375.38232421875.5936279296875,1.0263671875.9173583984375,1.68359375.9173583984375.3701171875,0,.74462890625-.1026611328125,1.0791015625-.31768798828125l46.2236328125-29.70489501953125c.44677734375-.286865234375.7607421875-.73944091796875.87353515625-1.25799560546875.1123046875-.5185546875.01416015625-1.0606689453125-.27294921875-1.50689697265625-11.2734375-17.51678466796875-19.94775390625-36.505889892578125-25.7822265625-56.439849853515625-.14892578125-.509368896484375-.49462890625-.9385986328125-.9599609375-1.193145751953125-.296875-.162261962890625-.62744140625-.24505615234375-.95947265625-.24505615234375h0Z" fill="none" stroke="#181818" stroke-linecap="round" stroke-linejoin="round" stroke-width="15"/>
            </g>
          </a>
          <a xlink:href="https://www.notion.so/dmmnotes/compulsive-isolated-self-reliance-b321873a73fa41aaaadd7192fde856a2?pvs=4">
            <path id="A6" d="M114.917480468760004,418.945556640630457l-46.223632812510004,29.704833984367724c14.219970703120453,22.083251953121362,31.504150390629547,41.983154296871362,51.269775390629547,59.125l35.972900390620453-41.515869140617724c-15.815185546870453-13.712402343760914-29.643066406239996-29.637695312510914-41.019042968739996-47.31396484375Z" fill="none" stroke="#181818" stroke-linecap="round" stroke-linejoin="round" stroke-width="15"/>
          </a>
          <a xlink:href="https://www.notion.so/dmmnotes/delusional-idealization-743e2420b9994a48a7cab68190432e8a?pvs=4">
            <path id="A7" d="M155.9365234375,466.259521484380457l-35.972900390620453,41.515869140617724c19.687744140620453,17.074707031239086,41.811279296870453,31.385986328132276,65.803955078120453,42.36181640625l22.83251953125-49.996826171878638c-19.20166015625-8.773681640621362-36.91015625-20.222167968739086-52.66357421875-33.880859374989086Z" fill="none" stroke="#181818" stroke-linecap="round" stroke-linejoin="round" stroke-width="15"/>
          </a>
          <a xlink:href="https://www.notion.so/dmmnotes/externally-assembled-self-994ecb0895b844409b931d74a045c162?pvs=4">
            <path id="A8" d="M208.60009765625,500.140380859369543l-22.83251953125,49.996826171878638c23.45556640625,10.7314453125,48.659423828120453,18.275146484371362,75.098632812510004,22.04296875l7.825683593739996-54.4306640625c-21.15673828125-3.0078125-41.3251953125-9.0341796875-60.091796875-17.609130859378638Z" fill="none" stroke="#181818" stroke-linecap="round" stroke-linejoin="round" stroke-width="15"/>
          </a>
          <a xlink:href="https://www.notion.so/dmmnotes/psychopathy-0fe4a3222d9f4fd097ab4546c9776768?pvs=4">
            <path id="AC" d="M300,519.999999999998181c-10.634765625,0-21.076171875-.794921875-31.30810546875-2.25048828125l-7.825683593739996,54.4306640625c12.788574218739996,1.823486328132276,25.843017578119543,2.81982421875,39.133789062489996,2.81982421875s26.345214843760004-.996337890617724,39.1337890625-2.81982421875l-7.825683593739996-54.4306640625c-10.229248046889552,1.45556640625-20.673339843760004,2.25048828125-31.308105468760004,2.25048828125Z" fill="none" stroke="#181818" stroke-linecap="round" stroke-linejoin="round" stroke-width="15"/>
          </a>
        </g>
        <g>
          <a xlink:href="https://www.notion.so/dmmnotes/paranoid-ae38b1e6af0c4dd08f61e0d8f6e9f05f?pvs=4">
            <path id="C8-2" data-name="C8" d="M331.308105468760004,517.749511718748181l7.825683593739996,54.4306640625c26.439208984370453-3.767822265628638,51.645751953139552-11.3115234375,75.101318359370453-22.04296875l-22.832519531240905-49.996826171878638c-18.7666015625,8.572265625-38.93505859375,14.601318359378638-60.094482421869543,17.609130859378638Z" fill="#8f807d" stroke="#181818" stroke-linecap="round" stroke-linejoin="round" stroke-width="2"/>
          </a>
          <a xlink:href="https://www.notion.so/dmmnotes/menacing-a5bd7149286344deba45ec15e759e579?pvs=4">
            <path id="C7-2" data-name="C7" d="M391.402587890629547,500.140380859369543l22.832519531240905,49.996826171878638c23.989990234389552-10.975830078117724,46.116210937519099-25.287109375010914,65.803955078139552-42.36181640625l-35.972900390630457-41.515869140617724c-15.753417968759095,13.65869140625-33.459228515629547,25.104492187489086-52.66357421875,33.880859374989086Z" fill="#8f807d" stroke="#181818" stroke-linecap="round" stroke-linejoin="round" stroke-width="2"/>
          </a>
          <a xlink:href="https://www.notion.so/dmmnotes/seductively-obsessed-with-rescue-6fb5a68f6d334bc29ccccc16d8a4e56e?pvs=4">
            <path id="C6-2" data-name="C6" d="M444.066162109379547,466.259521484380457l35.972900390630457,41.515869140617724c19.762939453119543-17.141845703128638,37.047119140619543-37.041748046878638,51.26708984375-59.125l-46.223632812510004-29.704833984367724c-11.373291015620453,17.673583984367724-25.201171874989996,33.598876953117724-41.016357421870453,47.31396484375Z" fill="#8f807d" stroke="#181818" stroke-linecap="round" stroke-linejoin="round" stroke-width="2"/>
          </a>
          <a xlink:href="https://www.notion.so/dmmnotes/punitively-obsessed-with-revenge-33d2e77f37774316b42bccf4a60f9688?pvs=4">
            <path id="C5-2" data-name="C5" d="M485.08251953125,418.945556640630457l46.223632812510004,29.704833984367724c14.048095703129547-21.809326171878638,25.08837890625-45.71875,32.551513671869543-71.175048828128638l-52.7548828125-15.490234375c-5.9619140625,20.377929687510914-14.789306640619543,39.509765625-26.020263671879547,56.960449218760914Z" fill="#8f807d" stroke="#181818" stroke-linecap="round" stroke-linejoin="round" stroke-width="2"/>
          </a>
          <a xlink:href="https://www.notion.so/dmmnotes/feigned-helpless-e79a94b0498c4e109a681b7f3dcdb088?pvs=4">
            <path id="C4-2" data-name="C4" d="M520,300c0,21.538085937498181-3.142089843739996,42.321533203119543-8.897216796870453,61.985107421869543l52.7548828125,15.490234375c7.2080078125-24.583496093739086,11.142333984370453-50.5634765625,11.142333984370453-77.475341796869543h-55Z" fill="#8f807d" stroke="#181818" stroke-linecap="round" stroke-linejoin="round" stroke-width="2"/>
          </a>
          <a xlink:href="https://www.notion.so/dmmnotes/aggressive-2d8ccce383534b9dbfc7b4b10b8a5d5c?pvs=4">
            <path id="C3-2" data-name="C3" d="M520,300h55c0-26.911865234390461-3.934326171870453-52.894531250011823-11.142333984370453-77.475341796890461l-52.7548828125,15.490234375c5.755126953130457,19.663574218760914,8.897216796870453,40.449707031260914,8.897216796870453,61.985107421890461Z" fill="#8f807d" stroke="#181818" stroke-linecap="round" stroke-linejoin="round" stroke-width="2"/>
          </a>
          <a xlink:href="https://www.notion.so/dmmnotes/disarming-086276e599884c86b9359acf831a8b20?pvs=4">
            <path id="C2-2" data-name="C2" d="M511.102783203129547,238.014892578109539l52.7548828125-15.490234375c-7.463134765619543-25.456298828121362-18.503417968739996-49.365722656239086-32.551513671869543-71.177734374989086l-46.223632812510004,29.70751953125c11.230957031260004,17.45068359375,20.055664062510004,36.585205078117724,26.020263671879547,56.960449218739086Z" fill="#8f807d" stroke="#181818" stroke-linecap="round" stroke-linejoin="round" stroke-width="2"/>
          </a>
          <a xlink:href="https://www.notion.so/dmmnotes/threatening-348fe6a52f7a4fe69f768e98c6586932?pvs=4">
            <path id="C1-2" data-name="C1" d="M485.08251953125,181.054443359370453l46.223632812510004-29.70751953125c-14.219970703130457-22.08056640625-31.504150390630457-41.980468750010914-51.26708984375-59.122314453120453l-35.972900390630457,41.518554687488177c15.815185546880457,13.71240234375,29.64306640625,29.637695312511823,41.016357421870453,47.311279296882276Z" fill="#8f807d" stroke="#181818" stroke-linecap="round" stroke-linejoin="round" stroke-width="2"/>
          </a>
          <a xlink:href="https://www.notion.so/dmmnotes/complaining-acceptance-8b40401a720c493ba73f7cde1567cf3d?pvs=4">
            <path id="B5-2" data-name="B5" d="M444.066162109379547,133.743164062488177l35.972900390630457-41.518554687488177c-19.687744140620453-17.07470703125-41.81396484375-31.388671875-65.803955078139552-42.36181640625l-22.832519531240905,49.99951171875c19.204345703120453,8.773681640620453,36.910156249990905,20.22216796875,52.66357421875,33.880859374988177Z" fill="#8f807d" stroke="#181818" stroke-linecap="round" stroke-linejoin="round" stroke-width="2"/>
          </a>
          <a xlink:href="https://www.notion.so/dmmnotes/sentimental-bc554363322342b1b7ca4ccc02125049?pvs=4">
            <path id="B4-2" data-name="B4" d="M391.402587890629547,99.8623046875l22.832519531240905-49.99951171875c-23.455566406230901-10.7314453125-48.662109375-18.275146484390461-75.101318359370453-22.042968749990905l-7.825683593739996,54.433349609361358c21.159423828119543,3.0078125,41.327880859369543,9.034179687489086,60.094482421869543,17.609130859379547Z" fill="#8f807d" stroke="#181818" stroke-linecap="round" stroke-linejoin="round" stroke-width="2"/>
          </a>
          <a xlink:href="https://www.notion.so/dmmnotes/comfortably-balanced-e76dc615a8b947aa915377cd02fcf716?pvs=4">
            <path id="B3-2" data-name="B3" d="M300,80c10.634765625,0,21.078857421870453.797607421870453,31.308105468760004,2.253173828120453l7.825683593739996-54.433349609361358c-12.788574218739996-1.823486328138642-25.843017578129547-2.819824218759095-39.1337890625-2.819824218759095s-26.34521484375.996337890620453-39.133789062489996,2.819824218759095l7.825683593739996,54.433349609361358c10.23193359375-1.45556640625,20.67333984375-2.253173828120453,31.30810546875-2.253173828120453Z" fill="#8f807d" stroke="#181818" stroke-linecap="round" stroke-linejoin="round" stroke-width="2"/>
          </a>
          <a xlink:href="https://www.notion.so/dmmnotes/accepting-317d81273fff4cd9817cdf4a88efd378?pvs=4">
            <path id="B2-2" data-name="B2" d="M268.69189453125,82.253173828120453l-7.825683593739996-54.433349609361358c-26.439208984389552,3.767822265600444-51.643066406260004,11.311523437490905-75.098632812510004,22.042968749990905l22.83251953125,49.99951171875c18.7666015625-8.574951171890461,38.93505859375-14.601318359379547,60.091796875-17.609130859379547Z" fill="#8f807d" stroke="#181818" stroke-linecap="round" stroke-linejoin="round" stroke-width="2"/>
          </a>
          <a xlink:href="https://www.notion.so/dmmnotes/distanced-from-past-2eabab7e9c77429f8e577f4e3e203653?pvs=4">
            <path id="B1-2" data-name="B1" d="M208.60009765625,99.8623046875l-22.83251953125-49.99951171875c-23.99267578125,10.97314453125-46.1162109375,25.287109375-65.803955078120453,42.36181640625l35.972900390620453,41.515869140620453c15.75341796875-13.658691406260914,33.4619140625-25.1044921875,52.66357421875-33.878173828120453Z" fill="#8f807d" stroke="#181818" stroke-linecap="round" stroke-linejoin="round" stroke-width="2"/>
          </a>
          <a xlink:href="https://www.notion.so/dmmnotes/idealising-a52277f51ed14a42aae78081bb34b8be?pvs=4">
            <path id="A1-2" data-name="A1" d="M155.9365234375,133.740478515620453l-35.972900390620453-41.515869140620453c-19.765625,17.141845703109539-37.049804687509095,37.041748046870453-51.269775390629547,59.122314453120453l46.226318359370453,29.70751953125c11.373291015639552-17.673583984370453,25.201171875009095-33.598876953132276,41.016357421879547-47.31396484375Z" fill="#8f807d" stroke="#181818" stroke-linecap="round" stroke-linejoin="round" stroke-width="2"/>
          </a>
          <a xlink:href="https://www.notion.so/dmmnotes/distancing-9ac690cdca654729a17a5a255944e2d1?pvs=4">
            <path id="A2-2" data-name="A2" d="M114.920166015620453,181.054443359370453l-46.226318359370453-29.70751953125c-14.04541015625,21.81201171875-25.08837890625,45.721435546867724-32.551513671879547,71.177734374989086l52.754882812509095,15.490234375c5.964599609370453-20.375244140621362,14.7919921875-39.509765624989086,26.022949218740905-56.960449218739086Z" fill="#8f807d" stroke="#181818" stroke-linecap="round" stroke-linejoin="round" stroke-width="2"/>
          </a>
          <a xlink:href="https://www.notion.so/dmmnotes/compulsive-caregiving-9c380c0928294f41ae10764aa0dee886?pvs=4">
            <path id="A3-2" data-name="A3" d="M88.897216796879547,238.014892578109539l-52.754882812509095-15.490234375c-7.205322265620453,24.580810546878638-11.142333984370453,50.5634765625-11.142333984370453,77.475341796890461h55c0-21.535400390629547,3.14208984375-42.321533203129547,8.897216796879547-61.985107421890461Z" fill="#8f807d" stroke="#181818" stroke-linecap="round" stroke-linejoin="round" stroke-width="2"/>
          </a>
          <a xlink:href="https://www.notion.so/dmmnotes/compulsive-compliance-6d08b7ea9a424ce1a72b9184b7850414?pvs=4">
            <path id="A4-2" data-name="A4" d="M80,300H25c0,26.911865234369543,3.93701171875,52.894531249987267,11.142333984370453,77.475341796869543l52.754882812509095-15.490234375c-5.755126953129547-19.66357421875-8.897216796879547-40.447021484371362-8.897216796879547-61.985107421869543Z" fill="#8f807d" stroke="#181818" stroke-linecap="round" stroke-linejoin="round" stroke-width="2"/>
          </a>
          <a xlink:href="https://www.notion.so/dmmnotes/sexual-supplementation-8e85f49046ef412aa229745abf7d38d3?pvs=4">
            <g id="A5-2" data-name="A5">
              <path d="M68.69482421875,449.650390624994543c-.32861328125,0-.650634765625-.162109375-.841796875-.458984375-14.28466796875-22.1806640625-25.2763671875-46.21484375-32.67041015625-71.4345703125-.1552734375-.529296875.148193359375-1.0849609375.677978515625-1.2412109375l52.7548828125-15.490234375c.09228515625-.0263671875.187255859375-.0400390625.28173828125-.0400390625.166015625,0,.331298828125.041015625.479736328125.1220703125.232666015625.1279296875.405517578125.3427734375.47998046875.5966796875,5.86181640625,20.02734375,14.576171875,39.103515625,25.9013671875,56.7001953125.1435546875.22265625.192626953125.494140625.136474609375.7529296875-.056396484375.259765625-.21337890625.486328125-.436767578125.62890625l-46.2236328125,29.705078125c-.167236328125.1083984375-.3544921875.1591796875-.53955078125.1591796875Z" fill="#aa6490" stroke-width="0"/>
              <path d="M88.8974609375,361.985107421869543c5.96435546875,20.3779296875,14.7890625,39.509765625,26.02001953125,56.96044921875l-46.2236328125,29.704833984375c-14.04541015625-21.809326171875-25.08837890625-45.71875-32.5517578125-71.175048828125l52.75537109375-15.490234375M88.8974609375,359.985107421869543c-.18896484375,0-.37890625.02679443359375-.5634765625.081024169921875l-52.75537109375,15.490234375c-1.0595703125.31109619140625-1.66650390625,1.422027587890625-1.35595703125,2.481658935546875,7.42138671875,25.31243896484375,18.45361328125,49.4342041015625,32.78955078125,71.69525146484375.38232421875.5936279296875,1.0263671875.9173583984375,1.68359375.9173583984375.3701171875,0,.74462890625-.1026611328125,1.0791015625-.31768798828125l46.2236328125-29.70489501953125c.44677734375-.286865234375.7607421875-.73944091796875.87353515625-1.25799560546875.1123046875-.5185546875.01416015625-1.0606689453125-.27294921875-1.50689697265625-11.2734375-17.51678466796875-19.94775390625-36.505889892578125-25.7822265625-56.439849853515625-.14892578125-.509368896484375-.49462890625-.9385986328125-.9599609375-1.193145751953125-.296875-.162261962890625-.62744140625-.24505615234375-.95947265625-.24505615234375h0Z" fill="#181818" stroke-width="0"/>
            </g>
          </a>
          <a xlink:href="https://www.notion.so/dmmnotes/compulsive-isolated-self-reliance-b321873a73fa41aaaadd7192fde856a2?pvs=4">
            <path id="A6-2" data-name="A6" d="M114.917480468760004,418.945556640630457l-46.223632812510004,29.704833984367724c14.219970703120453,22.083251953121362,31.504150390629547,41.983154296871362,51.269775390629547,59.125l35.972900390620453-41.515869140617724c-15.815185546870453-13.712402343760914-29.643066406239996-29.637695312510914-41.019042968739996-47.31396484375Z" fill="#8f807d" stroke="#181818" stroke-linecap="round" stroke-linejoin="round" stroke-width="2"/>
          </a>
          <a xlink:href="https://www.notion.so/dmmnotes/delusional-idealization-743e2420b9994a48a7cab68190432e8a?pvs=4">
            <path id="A7-2" data-name="A7" d="M155.9365234375,466.259521484380457l-35.972900390620453,41.515869140617724c19.687744140620453,17.074707031239086,41.811279296870453,31.385986328132276,65.803955078120453,42.36181640625l22.83251953125-49.996826171878638c-19.20166015625-8.773681640621362-36.91015625-20.222167968739086-52.66357421875-33.880859374989086Z" fill="#8f807d" stroke="#181818" stroke-linecap="round" stroke-linejoin="round" stroke-width="2"/>
          </a>
          <a xlink:href="https://www.notion.so/dmmnotes/externally-assembled-self-994ecb0895b844409b931d74a045c162?pvs=4">
            <path id="A8-2" data-name="A8" d="M208.60009765625,500.140380859369543l-22.83251953125,49.996826171878638c23.45556640625,10.7314453125,48.659423828120453,18.275146484371362,75.098632812510004,22.04296875l7.825683593739996-54.4306640625c-21.15673828125-3.0078125-41.3251953125-9.0341796875-60.091796875-17.609130859378638Z" fill="#8f807d" stroke="#181818" stroke-linecap="round" stroke-linejoin="round" stroke-width="2"/>
          </a>
          <a xlink:href="https://www.notion.so/dmmnotes/psychopathy-0fe4a3222d9f4fd097ab4546c9776768?pvs=4">
            <path id="AC-2" data-name="AC" d="M300,519.999999999998181c-10.634765625,0-21.076171875-.794921875-31.30810546875-2.25048828125l-7.825683593739996,54.4306640625c12.788574218739996,1.823486328132276,25.843017578119543,2.81982421875,39.133789062489996,2.81982421875s26.345214843760004-.996337890617724,39.1337890625-2.81982421875l-7.825683593739996-54.4306640625c-10.229248046889552,1.45556640625-20.673339843760004,2.25048828125-31.308105468760004,2.25048828125Z" fill="#8f807d" stroke="#181818" stroke-linecap="round" stroke-linejoin="round" stroke-width="2"/>
          </a>
        </g>
      </g>
      <a xlink:href="https://www.notion.so/dmmnotes/A5-8e85f49046ef412aa229745abf7d38d3?pvs=4#cc754bc8687c4e66850f6931f541d7fa">
        <g id="A5-3" data-name="A5">
          <g>
            <path d="M299.99365234375,414.706054687494543c-17.46484375,0-34.003662109375-6.6826171875-46.56982421875-18.818359375-12.8828125-12.4404296875-20.14990234375-29.1533203125-20.46240234375-47.060546875-.3125-17.90625,6.366943359375-34.8623046875,18.807861328125-47.7451171875,12.7490234375-13.20263671875,29.8798828125-20.4736328125,48.2373046875-20.4736328125,17.464599609375,0,34.00341796875,6.68310546875,46.5693359375,18.818359375,26.594482421875,25.681640625,27.3369140625,68.2119140625,1.655029296875,94.806640625-12.749267578125,13.2021484375-29.880126953125,20.47265625-48.2373046875,20.47265625Z" fill="url(#A5-4)" stroke-width="0"/>
            <path d="M300.00634765625,289.108612060541418c14.642578125-.000518798828125,29.30029296875,5.4576416015625,40.6650390625,16.432342529296875,23.26025390625,22.462127685546875,23.9072265625,59.527557373046875,1.44482421875,82.78778076171875-11.4873046875,11.89556884765625-26.79638671875,17.87738037109375-42.12255859375,17.87738037109375-14.642578125,0-29.30029296875-5.45758056640625-40.6650390625-16.43231201171875-23.26025390625-22.462127685546875-23.9072265625-59.527557373046875-1.4453125-82.78778076171875,11.48779296875-11.895599365234375,26.796875-17.8768310546875,42.123046875-17.877410888671875M300.00830078125,272.108612060541418v17l-.00048828125-17h-.001953125c-20.68408203125.000762939453125-39.986328125,8.1932373046875-54.35107421875,23.068115234375-28.93798828125,29.96630859375-28.10107421875,77.88812255859375,1.86474609375,106.825836181640625,14.1591796875,13.67333984375,32.794921875,21.20355224609375,52.47412109375,21.20355224609375,20.68359375,0,39.986328125-8.19244384765625,54.3515625-23.0682373046875,14.01806640625-14.516021728515625,21.5439453125-33.6221923828125,21.19189453125-53.798980712890625-.35205078125-20.1767578125-8.54052734375-39.008636474609375-23.056640625-53.026702880859375-14.1591796875-13.67333984375-32.7939453125-21.203582763671875-52.47216796875-21.203582763671875h0Z" fill="#181818" stroke-width="0"/>
          </g>
          <a xlink:href="https://www.notion.so/dmmnotes/A5-8e85f49046ef412aa229745abf7d38d3?pvs=4#cc754bc8687c4e66850f6931f541d7fa">
            <g>
              <g>
                <path d="M278.805908203125,213.103515624994543c3.9765625,2.302734375,7.37890625,5.12890625,10.205078125,8.4775390625,2.82568359375,3.3515625,5.20556640625,7.013671875,7.1435546875,10.990234375,1.935546875,3.978515625,3.478515625,8.1904296875,4.63134765625,12.638671875,1.150390625,4.44921875,2.041015625,8.923828125,2.6689453125,13.4228515625,1.46435546875,8.8974609375,2.30126953125,17.8984375,2.51220703125,27.00390625.20849609375,9.1064453125.05126953125,18.2666015625-.47119140625,27.4755859375-.2109375,2.6171875-.41943359375,4.763671875-.6279296875,6.4365234375-.2109375,1.67578125-.603515625,3.037109375-1.177734375,4.08203125-.576171875,1.0478515625-1.38818359375,1.884765625-2.43310546875,2.5126953125-1.0478515625.6279296875-2.51220703125,1.2021484375-4.39599609375,1.7265625-1.78125.208984375-3.63818359375.365234375-5.57373046875.470703125-1.93798828125.103515625-3.74365234375-.4189453125-5.41650390625-1.5693359375-1.56982421875-1.044921875-2.8798828125-2.826171875-3.9248046875-5.337890625-1.0478515625-2.5126953125-1.6240234375-6.123046875-1.72705078125-10.8330078125v-1.5703125c-2.61767578125-.314453125-5.73046875-.57421875-9.341796875-.78515625-3.61083984375-.2080078125-7.30029296875-.3388671875-11.068359375-.392578125-3.76806640625-.0517578125-7.40576171875-.078125-10.91162109375-.078125h-8.8701171875c-.10546875.94140625-.23583984375,2.51171875-.392578125,4.7099609375-.1572265625,2.1982421875-.498046875,4.3955078125-1.0205078125,6.59375-.52490234375,2.1982421875-1.2314453125,4.1875-2.11962890625,5.9658203125-.890625,1.78125-2.11962890625,2.720703125-3.689453125,2.826171875-1.466796875.103515625-3.14013671875.208984375-5.02392578125.314453125-1.88427734375.1025390625-3.716796875-.10546875-5.4951171875-.6279296875-1.78076171875-.41796875-3.2724609375-1.2568359375-4.474609375-2.5126953125-1.20458984375-1.255859375-1.859375-3.2431640625-1.96240234375-5.9658203125,0-3.2431640625.0517578125-6.958984375.1572265625-11.146484375.10302734375-4.185546875.31396484375-8.73828125.6279296875-13.6591796875.20849609375-4.08203125.54931640625-8.556640625,1.0205078125-13.423828125.470703125-4.8671875,1.150390625-9.8642578125,2.041015625-14.9931640625.8876953125-5.126953125,2.041015625-10.2568359375,3.45361328125-15.38671875,1.4130859375-5.126953125,3.19189453125-9.9931640625,5.33837890625-14.6005859375,2.14404296875-4.6044921875,4.68310546875-8.84375,7.6142578125-12.716796875,2.92919921875-3.87109375,6.43701171875-7.1162109375,10.51904296875-9.734375,4.81298828125-3.0341796875,10.099609375-4.552734375,15.85693359375-4.552734375,5.75537109375,0,11.19873046875,1.4130859375,16.328125,4.2392578125ZM240.655029296875,284.538085937494543c6.59375-.5224609375,13.16064453125-.9150390625,19.703125-1.177734375,6.5400390625-.259765625,13.10986328125-.287109375,19.70361328125-.078125.31396484375-7.4306640625,0-14.076171875-.94189453125-19.939453125-.94189453125-5.8603515625-2.251953125-10.8056640625-3.9248046875-14.8359375-1.67578125-4.0283203125-3.6650390625-7.1162109375-5.96630859375-9.2626953125-2.30322265625-2.14453125-4.658203125-3.21875-7.06494140625-3.21875-2.0947265625,0-4.26611328125,1.07421875-6.515625,3.21875-2.251953125,2.146484375-4.34423828125,5.2861328125-6.27978515625,9.419921875-1.93798828125,4.1357421875-3.689453125,9.23828125-5.25927734375,15.306640625-1.5703125,6.072265625-2.72314453125,12.9287109375-3.4541015625,20.5673828125Z" fill="none" stroke="#181818" stroke-linecap="round" stroke-linejoin="round" stroke-width="33"/>
                <path d="M374.103759765625,265.227539062494543c3.2431640625,4.3955078125,5.44091796875,9.2109375,6.59375,14.443359375,1.15087890625,5.2353515625,1.28076171875,10.4404296875.392578125,15.6220703125-.890625,5.1806640625-2.6689453125,10.1533203125-5.337890625,14.9150390625-2.6689453125,4.763671875-6.20166015625,8.767578125-10.59765625,12.009765625-5.9658203125,4.396484375-12.037109375,6.830078125-18.2119140625,7.30078125-6.1767578125.470703125-12.03759765625-.8115234375-17.583984375-3.8466796875-3.6650390625-1.8837890625-6.80517578125-4.2900390625-9.419921875-7.2216796875-2.61767578125-2.9287109375-4.03076171875-6.59375-4.2392578125-10.990234375-.10546875-2.40625.392578125-4.7099609375,1.49169921875-6.908203125,1.09912109375-2.197265625,2.53662109375-3.9248046875,4.3173828125-5.1806640625,1.77880859375-1.255859375,3.71435546875-1.8564453125,5.80908203125-1.8056640625,2.0927734375.0546875,4.1337890625,1.1259765625,6.123046875,3.21875,1.46435546875,1.8837890625,3.3486328125,3.5322265625,5.65185546875,4.9453125,2.30126953125,1.4130859375,4.81298828125,1.859375,7.5361328125,1.3349609375,5.232421875-.8369140625,8.73828125-4.4482421875,10.51904296875-10.8330078125.4169921875-1.7783203125.57421875-3.6357421875.47119140625-5.57421875-.10546875-1.9345703125-.498046875-3.740234375-1.177734375-5.416015625-.68212890625-1.6728515625-1.70263671875-3.1650390625-3.0615234375-4.474609375-1.361328125-1.3076171875-3.14013671875-2.22265625-5.337890625-2.7470703125-3.037109375-.8369140625-6.2802734375-1.1240234375-9.73388671875-.8642578125-3.4541015625.2626953125-6.4912109375.8125-9.10595703125,1.6484375-.9423828125.2119140625-2.43359375.2626953125-4.474609375.1572265625-2.041015625-.1025390625-3.63818359375-.1572265625-4.78857421875-.1572265625-1.255859375-.1025390625-2.33056640625-.73046875-3.21875-1.8837890625-.89013671875-1.150390625-1.56982421875-2.51171875-2.041015625-4.08203125-.470703125-1.5693359375-.76025390625-3.1396484375-.86328125-4.7099609375-.10546875-1.5693359375.0517578125-2.9287109375.47119140625-4.08203125.31396484375-1.044921875.54931640625-3.0615234375.70654296875-6.0439453125.15673828125-2.9833984375.28662109375-6.33203125.39208984375-10.0478515625.10302734375-3.71484375.181640625-7.4580078125.23583984375-11.2255859375.05126953125-3.7685546875.1298828125-6.908203125.2353515625-9.419921875.10302734375-1.9873046875.392578125-3.3486328125.86328125-4.08203125.47119140625-.7314453125,1.177734375-1.1513671875,2.11962890625-1.2568359375.94189453125-.1025390625,2.0927734375-.0244140625,3.4541015625.236328125,1.35888671875.26171875,2.92919921875.4462890625,4.7099609375.548828125,7.22216796875.525390625,14.46875.890625,21.74462890625,1.099609375,7.2734375.2109375,14.73095703125.10546875,22.37255859375-.314453125,1.255859375-.1025390625,2.37939453125-.1025390625,3.37548828125,0,.9931640625.10546875,1.69970703125.2626953125,2.119140625.470703125.52294921875.314453125,1.0205078125.8125,1.49169921875,1.4921875.47119140625.681640625.8095703125,1.75390625,1.0205078125,3.2177734375.20849609375,1.884765625.287109375,3.92578125.2353515625,6.123046875-.0537109375,2.1982421875-.28955078125,4.2666015625-.70654296875,6.2021484375-.41943359375,1.9375-1.04736328125,3.6376953125-1.8837890625,5.1025390625-.8388671875,1.466796875-1.8837890625,2.3544921875-3.14013671875,2.6689453125-.6279296875.2109375-1.93798828125.3408203125-3.9248046875.392578125-1.98974609375.0537109375-4.39599609375.0263671875-7.22216796875-.0791015625-10.0478515625-.3134765625-20.095703125-1.255859375-30.14404296875-2.8251953125v9.576171875c8.7919921875-1.4638671875,16.82373046875-1.044921875,24.099609375,1.2568359375,7.2734375,2.302734375,13.1611328125,6.3330078125,17.66259765625,12.0888671875Z" fill="none" stroke="#181818" stroke-linecap="round" stroke-linejoin="round" stroke-width="33"/>
              </g>
              <g>
                <path d="M278.805908203125,213.103515624994543c3.9765625,2.302734375,7.37890625,5.12890625,10.205078125,8.4775390625,2.82568359375,3.3515625,5.20556640625,7.013671875,7.1435546875,10.990234375,1.935546875,3.978515625,3.478515625,8.1904296875,4.63134765625,12.638671875,1.150390625,4.44921875,2.041015625,8.923828125,2.6689453125,13.4228515625,1.46435546875,8.8974609375,2.30126953125,17.8984375,2.51220703125,27.00390625.20849609375,9.1064453125.05126953125,18.2666015625-.47119140625,27.4755859375-.2109375,2.6171875-.41943359375,4.763671875-.6279296875,6.4365234375-.2109375,1.67578125-.603515625,3.037109375-1.177734375,4.08203125-.576171875,1.0478515625-1.38818359375,1.884765625-2.43310546875,2.5126953125-1.0478515625.6279296875-2.51220703125,1.2021484375-4.39599609375,1.7265625-1.78125.208984375-3.63818359375.365234375-5.57373046875.470703125-1.93798828125.103515625-3.74365234375-.4189453125-5.41650390625-1.5693359375-1.56982421875-1.044921875-2.8798828125-2.826171875-3.9248046875-5.337890625-1.0478515625-2.5126953125-1.6240234375-6.123046875-1.72705078125-10.8330078125v-1.5703125c-2.61767578125-.314453125-5.73046875-.57421875-9.341796875-.78515625-3.61083984375-.2080078125-7.30029296875-.3388671875-11.068359375-.392578125-3.76806640625-.0517578125-7.40576171875-.078125-10.91162109375-.078125h-8.8701171875c-.10546875.94140625-.23583984375,2.51171875-.392578125,4.7099609375-.1572265625,2.1982421875-.498046875,4.3955078125-1.0205078125,6.59375-.52490234375,2.1982421875-1.2314453125,4.1875-2.11962890625,5.9658203125-.890625,1.78125-2.11962890625,2.720703125-3.689453125,2.826171875-1.466796875.103515625-3.14013671875.208984375-5.02392578125.314453125-1.88427734375.1025390625-3.716796875-.10546875-5.4951171875-.6279296875-1.78076171875-.41796875-3.2724609375-1.2568359375-4.474609375-2.5126953125-1.20458984375-1.255859375-1.859375-3.2431640625-1.96240234375-5.9658203125,0-3.2431640625.0517578125-6.958984375.1572265625-11.146484375.10302734375-4.185546875.31396484375-8.73828125.6279296875-13.6591796875.20849609375-4.08203125.54931640625-8.556640625,1.0205078125-13.423828125.470703125-4.8671875,1.150390625-9.8642578125,2.041015625-14.9931640625.8876953125-5.126953125,2.041015625-10.2568359375,3.45361328125-15.38671875,1.4130859375-5.126953125,3.19189453125-9.9931640625,5.33837890625-14.6005859375,2.14404296875-4.6044921875,4.68310546875-8.84375,7.6142578125-12.716796875,2.92919921875-3.87109375,6.43701171875-7.1162109375,10.51904296875-9.734375,4.81298828125-3.0341796875,10.099609375-4.552734375,15.85693359375-4.552734375,5.75537109375,0,11.19873046875,1.4130859375,16.328125,4.2392578125ZM240.655029296875,284.538085937494543c6.59375-.5224609375,13.16064453125-.9150390625,19.703125-1.177734375,6.5400390625-.259765625,13.10986328125-.287109375,19.70361328125-.078125.31396484375-7.4306640625,0-14.076171875-.94189453125-19.939453125-.94189453125-5.8603515625-2.251953125-10.8056640625-3.9248046875-14.8359375-1.67578125-4.0283203125-3.6650390625-7.1162109375-5.96630859375-9.2626953125-2.30322265625-2.14453125-4.658203125-3.21875-7.06494140625-3.21875-2.0947265625,0-4.26611328125,1.07421875-6.515625,3.21875-2.251953125,2.146484375-4.34423828125,5.2861328125-6.27978515625,9.419921875-1.93798828125,4.1357421875-3.689453125,9.23828125-5.25927734375,15.306640625-1.5703125,6.072265625-2.72314453125,12.9287109375-3.4541015625,20.5673828125Z" fill="#fff" stroke-width="0"/>
                <path d="M374.103759765625,265.227539062494543c3.2431640625,4.3955078125,5.44091796875,9.2109375,6.59375,14.443359375,1.15087890625,5.2353515625,1.28076171875,10.4404296875.392578125,15.6220703125-.890625,5.1806640625-2.6689453125,10.1533203125-5.337890625,14.9150390625-2.6689453125,4.763671875-6.20166015625,8.767578125-10.59765625,12.009765625-5.9658203125,4.396484375-12.037109375,6.830078125-18.2119140625,7.30078125-6.1767578125.470703125-12.03759765625-.8115234375-17.583984375-3.8466796875-3.6650390625-1.8837890625-6.80517578125-4.2900390625-9.419921875-7.2216796875-2.61767578125-2.9287109375-4.03076171875-6.59375-4.2392578125-10.990234375-.10546875-2.40625.392578125-4.7099609375,1.49169921875-6.908203125,1.09912109375-2.197265625,2.53662109375-3.9248046875,4.3173828125-5.1806640625,1.77880859375-1.255859375,3.71435546875-1.8564453125,5.80908203125-1.8056640625,2.0927734375.0546875,4.1337890625,1.1259765625,6.123046875,3.21875,1.46435546875,1.8837890625,3.3486328125,3.5322265625,5.65185546875,4.9453125,2.30126953125,1.4130859375,4.81298828125,1.859375,7.5361328125,1.3349609375,5.232421875-.8369140625,8.73828125-4.4482421875,10.51904296875-10.8330078125.4169921875-1.7783203125.57421875-3.6357421875.47119140625-5.57421875-.10546875-1.9345703125-.498046875-3.740234375-1.177734375-5.416015625-.68212890625-1.6728515625-1.70263671875-3.1650390625-3.0615234375-4.474609375-1.361328125-1.3076171875-3.14013671875-2.22265625-5.337890625-2.7470703125-3.037109375-.8369140625-6.2802734375-1.1240234375-9.73388671875-.8642578125-3.4541015625.2626953125-6.4912109375.8125-9.10595703125,1.6484375-.9423828125.2119140625-2.43359375.2626953125-4.474609375.1572265625-2.041015625-.1025390625-3.63818359375-.1572265625-4.78857421875-.1572265625-1.255859375-.1025390625-2.33056640625-.73046875-3.21875-1.8837890625-.89013671875-1.150390625-1.56982421875-2.51171875-2.041015625-4.08203125-.470703125-1.5693359375-.76025390625-3.1396484375-.86328125-4.7099609375-.10546875-1.5693359375.0517578125-2.9287109375.47119140625-4.08203125.31396484375-1.044921875.54931640625-3.0615234375.70654296875-6.0439453125.15673828125-2.9833984375.28662109375-6.33203125.39208984375-10.0478515625.10302734375-3.71484375.181640625-7.4580078125.23583984375-11.2255859375.05126953125-3.7685546875.1298828125-6.908203125.2353515625-9.419921875.10302734375-1.9873046875.392578125-3.3486328125.86328125-4.08203125.47119140625-.7314453125,1.177734375-1.1513671875,2.11962890625-1.2568359375.94189453125-.1025390625,2.0927734375-.0244140625,3.4541015625.236328125,1.35888671875.26171875,2.92919921875.4462890625,4.7099609375.548828125,7.22216796875.525390625,14.46875.890625,21.74462890625,1.099609375,7.2734375.2109375,14.73095703125.10546875,22.37255859375-.314453125,1.255859375-.1025390625,2.37939453125-.1025390625,3.37548828125,0,.9931640625.10546875,1.69970703125.2626953125,2.119140625.470703125.52294921875.314453125,1.0205078125.8125,1.49169921875,1.4921875.47119140625.681640625.8095703125,1.75390625,1.0205078125,3.2177734375.20849609375,1.884765625.287109375,3.92578125.2353515625,6.123046875-.0537109375,2.1982421875-.28955078125,4.2666015625-.70654296875,6.2021484375-.41943359375,1.9375-1.04736328125,3.6376953125-1.8837890625,5.1025390625-.8388671875,1.466796875-1.8837890625,2.3544921875-3.14013671875,2.6689453125-.6279296875.2109375-1.93798828125.3408203125-3.9248046875.392578125-1.98974609375.0537109375-4.39599609375.0263671875-7.22216796875-.0791015625-10.0478515625-.3134765625-20.095703125-1.255859375-30.14404296875-2.8251953125v9.576171875c8.7919921875-1.4638671875,16.82373046875-1.044921875,24.099609375,1.2568359375,7.2734375,2.302734375,13.1611328125,6.3330078125,17.66259765625,12.0888671875Z" fill="#fff" stroke-width="0"/>
              </g>
            </g>
          </a>
        </g>
      </a>
    </g>
  </g>
</svg>