<?xml version="1.0" encoding="UTF-8"?>
<svg id="Layer_1" data-name="Layer 1" xmlns="http://www.w3.org/2000/svg" xmlns:xlink="http://www.w3.org/1999/xlink" viewBox="0 0 600 600.000000000002728">
  <g id="pie_with_links_-5" data-name="pie (with links)">
    <g id="pie_with_links_-6" data-name="pie (with links)">
      <g id="Pie">
        <g>
          <a xlink:href="https://www.notion.so/dmmnotes/paranoid-ae38b1e6af0c4dd08f61e0d8f6e9f05f?pvs=4">
            <path id="C8" d="M331.308105468760004,517.74951171875l7.825683593739996,54.430664062502728c26.439208984369543-3.767822265632276,51.645751953139552-11.3115234375,75.101318359369543-22.042968750002728l-22.832519531239086-49.996826171880457c-18.7666015625,8.572265625-38.93505859375,14.601318359380457-60.094482421870453,17.609130859380457Z" fill="none" stroke="#181818" stroke-linecap="round" stroke-linejoin="round" stroke-width="15"/>
          </a>
          <a xlink:href="https://www.notion.so/dmmnotes/menacing-a5bd7149286344deba45ec15e759e579?pvs=4">
            <path id="C7" d="M391.402587890630457,500.140380859369543l22.832519531239086,49.996826171880457c23.989990234390461-10.975830078120453,46.116210937520009-25.287109375010004,65.803955078140461-42.36181640625l-35.972900390629547-41.515869140620453c-15.753417968760914,13.65869140625-33.459228515630457,25.104492187489996-52.66357421875,33.880859374989996Z" fill="none" stroke="#181818" stroke-linecap="round" stroke-linejoin="round" stroke-width="15"/>
          </a>
          <a xlink:href="https://www.notion.so/dmmnotes/seductively-obsessed-with-rescue-6fb5a68f6d334bc29ccccc16d8a4e56e?pvs=4">
            <path id="C6" d="M444.066162109380457,466.259521484379547l35.972900390629547,41.515869140620453c19.762939453120453-17.141845703130457,37.047119140620453-37.041748046880457,51.26708984375-59.125l-46.223632812510004-29.704833984370453c-11.373291015619543,17.673583984370453-25.201171874989996,33.598876953120453-41.016357421869543,47.31396484375Z" fill="none" stroke="#181818" stroke-linecap="round" stroke-linejoin="round" stroke-width="15"/>
          </a>
          <a xlink:href="https://www.notion.so/dmmnotes/punitively-obsessed-with-revenge-33d2e77f37774316b42bccf4a60f9688?pvs=4">
            <path id="C5" d="M485.08251953125,418.945556640629547l46.223632812510004,29.704833984370453c14.048095703129547-21.809326171880457,25.08837890625-45.71875,32.551513671870453-71.175048828130457l-52.7548828125-15.490234375c-5.9619140625,20.377929687510914-14.789306640620453,39.509765625-26.020263671880457,56.960449218760004Z" fill="none" stroke="#181818" stroke-linecap="round" stroke-linejoin="round" stroke-width="15"/>
          </a>
          <a xlink:href="https://www.notion.so/dmmnotes/feigned-helpless-e79a94b0498c4e109a681b7f3dcdb088?pvs=4">
            <path id="C4" d="M520,300c0,21.5380859375-3.142089843739996,42.321533203119543-8.897216796869543,61.985107421869543l52.7548828125,15.490234375c7.2080078125-24.583496093739086,11.142333984369543-50.5634765625,11.142333984369543-77.475341796869543h-55Z" fill="none" stroke="#181818" stroke-linecap="round" stroke-linejoin="round" stroke-width="15"/>
          </a>
          <a xlink:href="https://www.notion.so/dmmnotes/aggressive-2d8ccce383534b9dbfc7b4b10b8a5d5c?pvs=4">
            <path id="C3" d="M520,300h55c0-26.911865234389552-3.934326171869543-52.894531250010004-11.142333984369543-77.475341796889552l-52.7548828125,15.490234375c5.755126953129547,19.663574218759095,8.897216796869543,40.449707031259095,8.897216796869543,61.985107421889552Z" fill="none" stroke="#181818" stroke-linecap="round" stroke-linejoin="round" stroke-width="15"/>
          </a>
          <a xlink:href="https://www.notion.so/dmmnotes/disarming-086276e599884c86b9359acf831a8b20?pvs=4">
            <path id="C2" d="M511.102783203130457,238.014892578110448l52.7548828125-15.490234375c-7.463134765620453-25.456298828120453-18.503417968740905-49.365722656240905-32.551513671870453-71.177734374990905l-46.223632812510004,29.70751953125c11.230957031260004,17.45068359375,20.055664062510004,36.585205078120453,26.020263671880457,56.960449218740905Z" fill="none" stroke="#181818" stroke-linecap="round" stroke-linejoin="round" stroke-width="15"/>
          </a>
          <a xlink:href="https://www.notion.so/dmmnotes/threatening-348fe6a52f7a4fe69f768e98c6586932?pvs=4">
            <path id="C1" d="M485.08251953125,181.054443359369543l46.223632812510004-29.70751953125c-14.219970703129547-22.08056640625-31.504150390629547-41.980468750009095-51.26708984375-59.122314453129547l-35.972900390629547,41.5185546875c15.815185546879547,13.71240234375,29.64306640625,29.637695312510004,41.016357421869543,47.311279296879547Z" fill="none" stroke="#181818" stroke-linecap="round" stroke-linejoin="round" stroke-width="15"/>
          </a>
          <a xlink:href="https://www.notion.so/dmmnotes/complaining-acceptance-8b40401a720c493ba73f7cde1567cf3d?pvs=4">
            <path id="B5" d="M444.066162109380457,133.743164062489996l35.972900390629547-41.5185546875c-19.687744140620453-17.07470703125-41.81396484375-31.388671875-65.803955078140461-42.36181640625l-22.832519531239086,49.99951171875c19.204345703119543,8.773681640629547,36.910156249989086,20.22216796875,52.66357421875,33.880859375Z" fill="none" stroke="#181818" stroke-linecap="round" stroke-linejoin="round" stroke-width="15"/>
          </a>
          <a xlink:href="https://www.notion.so/dmmnotes/sentimental-bc554363322342b1b7ca4ccc02125049?pvs=4">
            <path id="B4" d="M391.402587890630457,99.862304687489996l22.832519531239086-49.99951171875c-23.455566406229991-10.7314453125-48.662109375-18.275146484379547-75.101318359369543-22.042968749989996l-7.825683593739996,54.433349609369543c21.159423828120453,3.0078125,41.327880859370453,9.034179687490905,60.094482421870453,17.609130859370453Z" fill="none" stroke="#181818" stroke-linecap="round" stroke-linejoin="round" stroke-width="15"/>
          </a>
          <a xlink:href="https://www.notion.so/dmmnotes/comfortably-balanced-e76dc615a8b947aa915377cd02fcf716?pvs=4">
            <path id="B3" d="M300,79.999999999989996c10.634765625,0,21.078857421869543.797607421879547,31.308105468760004,2.253173828129547l7.825683593739996-54.433349609369543c-12.788574218739996-1.823486328130457-25.843017578130457-2.819824218760004-39.1337890625-2.819824218760004s-26.34521484375.996337890629547-39.133789062489996,2.819824218760004l7.825683593739996,54.433349609369543c10.23193359375-1.45556640625,20.67333984375-2.253173828129547,31.30810546875-2.253173828129547Z" fill="none" stroke="#181818" stroke-linecap="round" stroke-linejoin="round" stroke-width="15"/>
          </a>
          <a xlink:href="https://www.notion.so/dmmnotes/accepting-317d81273fff4cd9817cdf4a88efd378?pvs=4">
            <path id="B2" d="M268.69189453125,82.253173828119543l-7.825683593739996-54.433349609369543c-26.439208984390461,3.767822265610448-51.643066406260004,11.311523437489996-75.098632812510004,22.042968749989996l22.83251953125,49.99951171875c18.7666015625-8.574951171879547,38.93505859375-14.601318359370453,60.091796875-17.609130859370453Z" fill="none" stroke="#181818" stroke-linecap="round" stroke-linejoin="round" stroke-width="15"/>
          </a>
          <a xlink:href="https://www.notion.so/dmmnotes/distanced-from-past-2eabab7e9c77429f8e577f4e3e203653?pvs=4">
            <path id="B1" d="M208.60009765625,99.862304687489996l-22.83251953125-49.99951171875c-23.99267578125,10.97314453125-46.1162109375,25.287109375-65.803955078119543,42.36181640625l35.972900390619543,41.515869140629547c15.75341796875-13.658691406259095,33.4619140625-25.1044921875,52.66357421875-33.878173828129547Z" fill="none" stroke="#181818" stroke-linecap="round" stroke-linejoin="round" stroke-width="15"/>
          </a>
          <a xlink:href="https://www.notion.so/dmmnotes/idealising-a52277f51ed14a42aae78081bb34b8be?pvs=4">
            <path id="A1" d="M155.9365234375,133.740478515619543l-35.972900390619543-41.515869140629547c-19.765625,17.141845703120453-37.049804687510914,37.041748046879547-51.269775390630457,59.122314453129547l46.226318359369543,29.70751953125c11.373291015640461-17.673583984369543,25.201171875010914-33.598876953129547,41.016357421880457-47.31396484375Z" fill="none" stroke="#181818" stroke-linecap="round" stroke-linejoin="round" stroke-width="15"/>
          </a>
          <a xlink:href="https://www.notion.so/dmmnotes/distancing-9ac690cdca654729a17a5a255944e2d1?pvs=4">
            <path id="A2" d="M114.920166015619543,181.054443359369543l-46.226318359369543-29.70751953125c-14.04541015625,21.81201171875-25.08837890625,45.721435546870453-32.551513671880457,71.177734374990905l52.754882812510914,15.490234375c5.964599609369543-20.375244140620453,14.7919921875-39.509765624990905,26.022949218739086-56.960449218740905Z" fill="none" stroke="#181818" stroke-linecap="round" stroke-linejoin="round" stroke-width="15"/>
          </a>
          <a xlink:href="https://www.notion.so/dmmnotes/compulsive-caregiving-9c380c0928294f41ae10764aa0dee886?pvs=4">
            <g id="A3">
              <path d="M25,301c-.55224609375,0-1-.44775390625-1-1,0-26.28076171875,3.76220703125-52.44189453125,11.1826171875-77.7568359375.07470703125-.25439453125.2470703125-.46923828125.47998046875-.59619140625.1484375-.0810546875.3134765625-.12255859375.4794921875-.12255859375.0947265625,0,.189453125.01318359375.28173828125.04052734375l52.75537109375,15.490234375c.52978515625.1552734375.8330078125.71044921875.67822265625,1.240234375-5.87744140625,20.080078125-8.857421875,40.84033203125-8.857421875,61.70458984375,0,.55224609375-.44775390625,1-1,1H25Z" fill="none" stroke="#181818" stroke-linecap="round" stroke-linejoin="round" stroke-width="15"/>
              <path d="M36.142333984375,222.524658203125l52.7548828125,15.490234375c-5.755126953125,19.66357421875-8.897216796875,40.44970703125-8.897216796875,61.985107421875H25c0-26.911865234375,3.93701171875-52.89453125,11.142333984375-77.475341796875M36.1424560546875,220.524658203125c-.332275390625,0-.6622314453125.082733154296875-.958984375.244842529296875-.4656982421875.254425048828125-.8111572265625.68341064453125-.9603271484375,1.19256591796875-7.4471435546875,25.4056396484375-11.22314453125,51.661376953125-11.22314453125,78.037933349609375,0,1.104568481445312.8953857421875,2,2,2h55c1.1046142578125,0,2-.895431518554688,2-2,0-20.768646240234375,2.96630859375-41.4344482421875,8.816650390625-61.42333984375.3101806640625-1.059417724609375-.2967529296875-2.169769287109375-1.35595703125-2.48077392578125l-52.7548828125-15.490203857421875c-.1846923828125-.054229736328125-.3743896484375-.081024169921875-.5633544921875-.081024169921875h0Z" fill="none" stroke="#181818" stroke-linecap="round" stroke-linejoin="round" stroke-width="15"/>
            </g>
          </a>
          <a xlink:href="https://www.notion.so/dmmnotes/compulsive-compliance-6d08b7ea9a424ce1a72b9184b7850414?pvs=4">
            <g id="A4">
              <path d="M36.14208984375,378.47509765625c-.166015625,0-.3310546875-.04150390625-.4794921875-.12255859375-.23291015625-.126953125-.4052734375-.341796875-.47998046875-.59619140625-7.42041015625-25.314453125-11.1826171875-51.47509765625-11.1826171875-77.75634765625,0-.55224609375.44775390625-1,1-1h55c.55224609375,0,1,.44775390625,1,1,0,20.86376953125,2.97998046875,41.6240234375,8.857421875,61.7041015625.15478515625.52978515625-.1484375,1.0849609375-.67822265625,1.240234375l-52.75537109375,15.490234375c-.09228515625.02734375-.18701171875.04052734375-.28173828125.04052734375Z" fill="none" stroke="#181818" stroke-linecap="round" stroke-linejoin="round" stroke-width="15"/>
              <path d="M80,300c0,21.5380859375,3.14208984375,42.321533203125,8.897216796875,61.985107421875l-52.7548828125,15.490234375c-7.205322265625-24.580810546875-11.142333984375-50.5634765625-11.142333984375-77.475341796875h55M80,298H25c-1.1046142578125,0-2,.895431518554688-2,2,0,26.376556396484375,3.7760009765625,52.632293701171875,11.22314453125,78.037925720214844.149169921875.509170532226562.49462890625.938156127929688.9603271484375,1.192558288574219.2967529296875.162109375.6268310546875.244865417480469.958984375.244865417480469.18896484375,0,.378662109375-.02679443359375.5633544921875-.081024169921875l52.7548828125-15.490226745605469c1.0592041015625-.311004638671875,1.6661376953125-1.42132568359375,1.35595703125-2.48077392578125-5.850341796875-19.988876342773438-8.816650390625-40.654678344726562-8.816650390625-61.423324584960938,0-1.104568481445312-.8953857421875-2-2-2h0Z" fill="none" stroke="#181818" stroke-linecap="round" stroke-linejoin="round" stroke-width="15"/>
            </g>
          </a>
          <a xlink:href="https://www.notion.so/dmmnotes/sexual-supplementation-8e85f49046ef412aa229745abf7d38d3?pvs=4">
            <path id="A5" d="M88.897216796880457,361.985107421869543l-52.754882812510914,15.490234375c7.463134765630457,25.456298828130457,18.506103515630457,49.36572265625,32.551513671880457,71.175048828130457l46.223632812510004-29.704833984370453c-11.230957031260004-17.450683593760004-20.055664062510004-36.582519531249091-26.020263671879547-56.960449218760004Z" fill="none" stroke="#181818" stroke-linecap="round" stroke-linejoin="round" stroke-width="15"/>
          </a>
          <a xlink:href="https://www.notion.so/dmmnotes/compulsive-isolated-self-reliance-b321873a73fa41aaaadd7192fde856a2?pvs=4">
            <path id="A6" d="M114.917480468760004,418.945556640629547l-46.223632812510004,29.704833984370453c14.219970703119543,22.083251953119543,31.504150390630457,41.983154296869543,51.269775390630457,59.125l35.972900390619543-41.515869140620453c-15.815185546869543-13.712402343760004-29.643066406239996-29.637695312510004-41.019042968739996-47.31396484375Z" fill="none" stroke="#181818" stroke-linecap="round" stroke-linejoin="round" stroke-width="15"/>
          </a>
          <a xlink:href="https://www.notion.so/dmmnotes/delusional-idealization-743e2420b9994a48a7cab68190432e8a?pvs=4">
            <path id="A7" d="M155.9365234375,466.259521484379547l-35.972900390619543,41.515869140620453c19.687744140619543,17.074707031239996,41.811279296869543,31.385986328129547,65.803955078119543,42.36181640625l22.83251953125-49.996826171880457c-19.20166015625-8.773681640619543-36.91015625-20.222167968739996-52.66357421875-33.880859374989996Z" fill="none" stroke="#181818" stroke-linecap="round" stroke-linejoin="round" stroke-width="15"/>
          </a>
          <a xlink:href="https://www.notion.so/dmmnotes/externally-assembled-self-994ecb0895b844409b931d74a045c162?pvs=4">
            <path id="A8" d="M208.60009765625,500.140380859369543l-22.83251953125,49.996826171880457c23.45556640625,10.731445312502728,48.659423828119543,18.275146484370453,75.098632812510004,22.042968750002728l7.825683593739996-54.430664062502728c-21.15673828125-3.0078125-41.3251953125-9.0341796875-60.091796875-17.609130859380457Z" fill="none" stroke="#181818" stroke-linecap="round" stroke-linejoin="round" stroke-width="15"/>
          </a>
          <a xlink:href="https://www.notion.so/dmmnotes/psychopathy-0fe4a3222d9f4fd097ab4546c9776768?pvs=4">
            <path id="AC" d="M300,520c-10.634765625,0-21.076171875-.794921875-31.30810546875-2.25048828125l-7.825683593739996,54.430664062502728c12.788574218739996,1.823486328127728,25.843017578120453,2.81982421875,39.133789062489996,2.81982421875s26.345214843760004-.996337890622272,39.1337890625-2.81982421875l-7.825683593739996-54.430664062502728c-10.229248046890461,1.45556640625-20.673339843760004,2.25048828125-31.308105468760004,2.25048828125Z" fill="none" stroke="#181818" stroke-linecap="round" stroke-linejoin="round" stroke-width="15"/>
          </a>
        </g>
        <g>
          <a xlink:href="https://www.notion.so/dmmnotes/paranoid-ae38b1e6af0c4dd08f61e0d8f6e9f05f?pvs=4">
            <path id="C8-2" data-name="C8" d="M331.308105468760004,517.74951171875l7.825683593739996,54.430664062502728c26.439208984369543-3.767822265632276,51.645751953139552-11.3115234375,75.101318359369543-22.042968750002728l-22.832519531239086-49.996826171880457c-18.7666015625,8.572265625-38.93505859375,14.601318359380457-60.094482421870453,17.609130859380457Z" fill="#8f807d" stroke="#181818" stroke-linecap="round" stroke-linejoin="round" stroke-width="2"/>
          </a>
          <a xlink:href="https://www.notion.so/dmmnotes/menacing-a5bd7149286344deba45ec15e759e579?pvs=4">
            <path id="C7-2" data-name="C7" d="M391.402587890630457,500.140380859369543l22.832519531239086,49.996826171880457c23.989990234390461-10.975830078120453,46.116210937520009-25.287109375010004,65.803955078140461-42.36181640625l-35.972900390629547-41.515869140620453c-15.753417968760914,13.65869140625-33.459228515630457,25.104492187489996-52.66357421875,33.880859374989996Z" fill="#8f807d" stroke="#181818" stroke-linecap="round" stroke-linejoin="round" stroke-width="2"/>
          </a>
          <a xlink:href="https://www.notion.so/dmmnotes/seductively-obsessed-with-rescue-6fb5a68f6d334bc29ccccc16d8a4e56e?pvs=4">
            <path id="C6-2" data-name="C6" d="M444.066162109380457,466.259521484379547l35.972900390629547,41.515869140620453c19.762939453120453-17.141845703130457,37.047119140620453-37.041748046880457,51.26708984375-59.125l-46.223632812510004-29.704833984370453c-11.373291015619543,17.673583984370453-25.201171874989996,33.598876953120453-41.016357421869543,47.31396484375Z" fill="#8f807d" stroke="#181818" stroke-linecap="round" stroke-linejoin="round" stroke-width="2"/>
          </a>
          <a xlink:href="https://www.notion.so/dmmnotes/punitively-obsessed-with-revenge-33d2e77f37774316b42bccf4a60f9688?pvs=4">
            <path id="C5-2" data-name="C5" d="M485.08251953125,418.945556640629547l46.223632812510004,29.704833984370453c14.048095703129547-21.809326171880457,25.08837890625-45.71875,32.551513671870453-71.175048828130457l-52.7548828125-15.490234375c-5.9619140625,20.377929687510914-14.789306640620453,39.509765625-26.020263671880457,56.960449218760004Z" fill="#8f807d" stroke="#181818" stroke-linecap="round" stroke-linejoin="round" stroke-width="2"/>
          </a>
          <a xlink:href="https://www.notion.so/dmmnotes/feigned-helpless-e79a94b0498c4e109a681b7f3dcdb088?pvs=4">
            <path id="C4-2" data-name="C4" d="M520,300c0,21.5380859375-3.142089843739996,42.321533203119543-8.897216796869543,61.985107421869543l52.7548828125,15.490234375c7.2080078125-24.583496093739086,11.142333984369543-50.5634765625,11.142333984369543-77.475341796869543h-55Z" fill="#8f807d" stroke="#181818" stroke-linecap="round" stroke-linejoin="round" stroke-width="2"/>
          </a>
          <a xlink:href="https://www.notion.so/dmmnotes/aggressive-2d8ccce383534b9dbfc7b4b10b8a5d5c?pvs=4">
            <path id="C3-2" data-name="C3" d="M520,300h55c0-26.911865234389552-3.934326171869543-52.894531250010004-11.142333984369543-77.475341796889552l-52.7548828125,15.490234375c5.755126953129547,19.663574218759095,8.897216796869543,40.449707031259095,8.897216796869543,61.985107421889552Z" fill="#8f807d" stroke="#181818" stroke-linecap="round" stroke-linejoin="round" stroke-width="2"/>
          </a>
          <a xlink:href="https://www.notion.so/dmmnotes/disarming-086276e599884c86b9359acf831a8b20?pvs=4">
            <path id="C2-2" data-name="C2" d="M511.102783203130457,238.014892578110448l52.7548828125-15.490234375c-7.463134765620453-25.456298828120453-18.503417968740905-49.365722656240905-32.551513671870453-71.177734374990905l-46.223632812510004,29.70751953125c11.230957031260004,17.45068359375,20.055664062510004,36.585205078120453,26.020263671880457,56.960449218740905Z" fill="#8f807d" stroke="#181818" stroke-linecap="round" stroke-linejoin="round" stroke-width="2"/>
          </a>
          <a xlink:href="https://www.notion.so/dmmnotes/threatening-348fe6a52f7a4fe69f768e98c6586932?pvs=4">
            <path id="C1-2" data-name="C1" d="M485.08251953125,181.054443359369543l46.223632812510004-29.70751953125c-14.219970703129547-22.08056640625-31.504150390629547-41.980468750009095-51.26708984375-59.122314453129547l-35.972900390629547,41.5185546875c15.815185546879547,13.71240234375,29.64306640625,29.637695312510004,41.016357421869543,47.311279296879547Z" fill="#8f807d" stroke="#181818" stroke-linecap="round" stroke-linejoin="round" stroke-width="2"/>
          </a>
          <a xlink:href="https://www.notion.so/dmmnotes/complaining-acceptance-8b40401a720c493ba73f7cde1567cf3d?pvs=4">
            <path id="B5-2" data-name="B5" d="M444.066162109380457,133.743164062489996l35.972900390629547-41.5185546875c-19.687744140620453-17.07470703125-41.81396484375-31.388671875-65.803955078140461-42.36181640625l-22.832519531239086,49.99951171875c19.204345703119543,8.773681640629547,36.910156249989086,20.22216796875,52.66357421875,33.880859375Z" fill="#8f807d" stroke="#181818" stroke-linecap="round" stroke-linejoin="round" stroke-width="2"/>
          </a>
          <a xlink:href="https://www.notion.so/dmmnotes/sentimental-bc554363322342b1b7ca4ccc02125049?pvs=4">
            <path id="B4-2" data-name="B4" d="M391.402587890630457,99.862304687489996l22.832519531239086-49.99951171875c-23.455566406229991-10.7314453125-48.662109375-18.275146484379547-75.101318359369543-22.042968749989996l-7.825683593739996,54.433349609369543c21.159423828120453,3.0078125,41.327880859370453,9.034179687490905,60.094482421870453,17.609130859370453Z" fill="#8f807d" stroke="#181818" stroke-linecap="round" stroke-linejoin="round" stroke-width="2"/>
          </a>
          <a xlink:href="https://www.notion.so/dmmnotes/comfortably-balanced-e76dc615a8b947aa915377cd02fcf716?pvs=4">
            <path id="B3-2" data-name="B3" d="M300,79.999999999989996c10.634765625,0,21.078857421869543.797607421879547,31.308105468760004,2.253173828129547l7.825683593739996-54.433349609369543c-12.788574218739996-1.823486328130457-25.843017578130457-2.819824218760004-39.1337890625-2.819824218760004s-26.34521484375.996337890629547-39.133789062489996,2.819824218760004l7.825683593739996,54.433349609369543c10.23193359375-1.45556640625,20.67333984375-2.253173828129547,31.30810546875-2.253173828129547Z" fill="#8f807d" stroke="#181818" stroke-linecap="round" stroke-linejoin="round" stroke-width="2"/>
          </a>
          <a xlink:href="https://www.notion.so/dmmnotes/accepting-317d81273fff4cd9817cdf4a88efd378?pvs=4">
            <path id="B2-2" data-name="B2" d="M268.69189453125,82.253173828119543l-7.825683593739996-54.433349609369543c-26.439208984390461,3.767822265610448-51.643066406260004,11.311523437489996-75.098632812510004,22.042968749989996l22.83251953125,49.99951171875c18.7666015625-8.574951171879547,38.93505859375-14.601318359370453,60.091796875-17.609130859370453Z" fill="#8f807d" stroke="#181818" stroke-linecap="round" stroke-linejoin="round" stroke-width="2"/>
          </a>
          <a xlink:href="https://www.notion.so/dmmnotes/distanced-from-past-2eabab7e9c77429f8e577f4e3e203653?pvs=4">
            <path id="B1-2" data-name="B1" d="M208.60009765625,99.862304687489996l-22.83251953125-49.99951171875c-23.99267578125,10.97314453125-46.1162109375,25.287109375-65.803955078119543,42.36181640625l35.972900390619543,41.515869140629547c15.75341796875-13.658691406259095,33.4619140625-25.1044921875,52.66357421875-33.878173828129547Z" fill="#8f807d" stroke="#181818" stroke-linecap="round" stroke-linejoin="round" stroke-width="2"/>
          </a>
          <a xlink:href="https://www.notion.so/dmmnotes/idealising-a52277f51ed14a42aae78081bb34b8be?pvs=4">
            <path id="A1-2" data-name="A1" d="M155.9365234375,133.740478515619543l-35.972900390619543-41.515869140629547c-19.765625,17.141845703120453-37.049804687510914,37.041748046879547-51.269775390630457,59.122314453129547l46.226318359369543,29.70751953125c11.373291015640461-17.673583984369543,25.201171875010914-33.598876953129547,41.016357421880457-47.31396484375Z" fill="#8f807d" stroke="#181818" stroke-linecap="round" stroke-linejoin="round" stroke-width="2"/>
          </a>
          <a xlink:href="https://www.notion.so/dmmnotes/distancing-9ac690cdca654729a17a5a255944e2d1?pvs=4">
            <path id="A2-2" data-name="A2" d="M114.920166015619543,181.054443359369543l-46.226318359369543-29.70751953125c-14.04541015625,21.81201171875-25.08837890625,45.721435546870453-32.551513671880457,71.177734374990905l52.754882812510914,15.490234375c5.964599609369543-20.375244140620453,14.7919921875-39.509765624990905,26.022949218739086-56.960449218740905Z" fill="#8f807d" stroke="#181818" stroke-linecap="round" stroke-linejoin="round" stroke-width="2"/>
          </a>
          <a xlink:href="https://www.notion.so/dmmnotes/compulsive-caregiving-9c380c0928294f41ae10764aa0dee886?pvs=4">
            <g id="A3-2" data-name="A3">
              <path d="M25,301c-.55224609375,0-1-.44775390625-1-1,0-26.28076171875,3.76220703125-52.44189453125,11.1826171875-77.7568359375.07470703125-.25439453125.2470703125-.46923828125.47998046875-.59619140625.1484375-.0810546875.3134765625-.12255859375.4794921875-.12255859375.0947265625,0,.189453125.01318359375.28173828125.04052734375l52.75537109375,15.490234375c.52978515625.1552734375.8330078125.71044921875.67822265625,1.240234375-5.87744140625,20.080078125-8.857421875,40.84033203125-8.857421875,61.70458984375,0,.55224609375-.44775390625,1-1,1H25Z" fill="#866c99" stroke-width="0"/>
              <path d="M36.142333984375,222.524658203125l52.7548828125,15.490234375c-5.755126953125,19.66357421875-8.897216796875,40.44970703125-8.897216796875,61.985107421875H25c0-26.911865234375,3.93701171875-52.89453125,11.142333984375-77.475341796875M36.1424560546875,220.524658203125c-.332275390625,0-.6622314453125.082733154296875-.958984375.244842529296875-.4656982421875.254425048828125-.8111572265625.68341064453125-.9603271484375,1.19256591796875-7.4471435546875,25.4056396484375-11.22314453125,51.661376953125-11.22314453125,78.037933349609375,0,1.104568481445312.8953857421875,2,2,2h55c1.1046142578125,0,2-.895431518554688,2-2,0-20.768646240234375,2.96630859375-41.4344482421875,8.816650390625-61.42333984375.3101806640625-1.059417724609375-.2967529296875-2.169769287109375-1.35595703125-2.48077392578125l-52.7548828125-15.490203857421875c-.1846923828125-.054229736328125-.3743896484375-.081024169921875-.5633544921875-.081024169921875h0Z" fill="#181818" stroke-width="0"/>
            </g>
          </a>
          <a xlink:href="https://www.notion.so/dmmnotes/compulsive-compliance-6d08b7ea9a424ce1a72b9184b7850414?pvs=4">
            <g id="A4-2" data-name="A4">
              <path d="M36.14208984375,378.47509765625c-.166015625,0-.3310546875-.04150390625-.4794921875-.12255859375-.23291015625-.126953125-.4052734375-.341796875-.47998046875-.59619140625-7.42041015625-25.314453125-11.1826171875-51.47509765625-11.1826171875-77.75634765625,0-.55224609375.44775390625-1,1-1h55c.55224609375,0,1,.44775390625,1,1,0,20.86376953125,2.97998046875,41.6240234375,8.857421875,61.7041015625.15478515625.52978515625-.1484375,1.0849609375-.67822265625,1.240234375l-52.75537109375,15.490234375c-.09228515625.02734375-.18701171875.04052734375-.28173828125.04052734375Z" fill="#aa6490" stroke-width="0"/>
              <path d="M80,300c0,21.5380859375,3.14208984375,42.321533203125,8.897216796875,61.985107421875l-52.7548828125,15.490234375c-7.205322265625-24.580810546875-11.142333984375-50.5634765625-11.142333984375-77.475341796875h55M80,298H25c-1.1046142578125,0-2,.895431518554688-2,2,0,26.376556396484375,3.7760009765625,52.632293701171875,11.22314453125,78.037925720214844.149169921875.509170532226562.49462890625.938156127929688.9603271484375,1.192558288574219.2967529296875.162109375.6268310546875.244865417480469.958984375.244865417480469.18896484375,0,.378662109375-.02679443359375.5633544921875-.081024169921875l52.7548828125-15.490226745605469c1.0592041015625-.311004638671875,1.6661376953125-1.42132568359375,1.35595703125-2.48077392578125-5.850341796875-19.988876342773438-8.816650390625-40.654678344726562-8.816650390625-61.423324584960938,0-1.104568481445312-.8953857421875-2-2-2h0Z" fill="#181818" stroke-width="0"/>
            </g>
          </a>
          <a xlink:href="https://www.notion.so/dmmnotes/sexual-supplementation-8e85f49046ef412aa229745abf7d38d3?pvs=4">
            <path id="A5-2" data-name="A5" d="M88.897216796880457,361.985107421869543l-52.754882812510914,15.490234375c7.463134765630457,25.456298828130457,18.506103515630457,49.36572265625,32.551513671880457,71.175048828130457l46.223632812510004-29.704833984370453c-11.230957031260004-17.450683593760004-20.055664062510004-36.582519531249091-26.020263671879547-56.960449218760004Z" fill="#8f807d" stroke="#181818" stroke-linecap="round" stroke-linejoin="round" stroke-width="2"/>
          </a>
          <a xlink:href="https://www.notion.so/dmmnotes/compulsive-isolated-self-reliance-b321873a73fa41aaaadd7192fde856a2?pvs=4">
            <path id="A6-2" data-name="A6" d="M114.917480468760004,418.945556640629547l-46.223632812510004,29.704833984370453c14.219970703119543,22.083251953119543,31.504150390630457,41.983154296869543,51.269775390630457,59.125l35.972900390619543-41.515869140620453c-15.815185546869543-13.712402343760004-29.643066406239996-29.637695312510004-41.019042968739996-47.31396484375Z" fill="#8f807d" stroke="#181818" stroke-linecap="round" stroke-linejoin="round" stroke-width="2"/>
          </a>
          <a xlink:href="https://www.notion.so/dmmnotes/delusional-idealization-743e2420b9994a48a7cab68190432e8a?pvs=4">
            <path id="A7-2" data-name="A7" d="M155.9365234375,466.259521484379547l-35.972900390619543,41.515869140620453c19.687744140619543,17.074707031239996,41.811279296869543,31.385986328129547,65.803955078119543,42.36181640625l22.83251953125-49.996826171880457c-19.20166015625-8.773681640619543-36.91015625-20.222167968739996-52.66357421875-33.880859374989996Z" fill="#8f807d" stroke="#181818" stroke-linecap="round" stroke-linejoin="round" stroke-width="2"/>
          </a>
          <a xlink:href="https://www.notion.so/dmmnotes/externally-assembled-self-994ecb0895b844409b931d74a045c162?pvs=4">
            <path id="A8-2" data-name="A8" d="M208.60009765625,500.140380859369543l-22.83251953125,49.996826171880457c23.45556640625,10.731445312502728,48.659423828119543,18.275146484370453,75.098632812510004,22.042968750002728l7.825683593739996-54.430664062502728c-21.15673828125-3.0078125-41.3251953125-9.0341796875-60.091796875-17.609130859380457Z" fill="#8f807d" stroke="#181818" stroke-linecap="round" stroke-linejoin="round" stroke-width="2"/>
          </a>
          <a xlink:href="https://www.notion.so/dmmnotes/psychopathy-0fe4a3222d9f4fd097ab4546c9776768?pvs=4">
            <path id="AC-2" data-name="AC" d="M300,520c-10.634765625,0-21.076171875-.794921875-31.30810546875-2.25048828125l-7.825683593739996,54.430664062502728c12.788574218739996,1.823486328127728,25.843017578120453,2.81982421875,39.133789062489996,2.81982421875s26.345214843760004-.996337890622272,39.1337890625-2.81982421875l-7.825683593739996-54.430664062502728c-10.229248046890461,1.45556640625-20.673339843760004,2.25048828125-31.308105468760004,2.25048828125Z" fill="#8f807d" stroke="#181818" stroke-linecap="round" stroke-linejoin="round" stroke-width="2"/>
          </a>
        </g>
      </g>
    </g>
  </g>
</svg>