<?xml version="1.0" encoding="UTF-8"?>
<svg id="Layer_1" data-name="Layer 1" xmlns="http://www.w3.org/2000/svg" xmlns:xlink="http://www.w3.org/1999/xlink" viewBox="0 0 600 600.000000000002728">
  <g id="pie_with_links_-5" data-name="pie (with links)">
    <g id="pie_with_links_-6" data-name="pie (with links)">
      <g id="Pie">
        <g>
          <a xlink:href="https://www.notion.so/dmmnotes/seductively-obsessed-with-rescue-6fb5a68f6d334bc29ccccc16d8a4e56e?pvs=4">
            <path id="C6" d="M444.066162109380457,466.259521484381366l35.972900390630457,41.515869140621362c19.762939453119543-17.141845703132276,37.047119140619543-37.041748046882276,51.26708984375-59.125l-46.223632812510914-29.704833984371362c-11.373291015619543,17.673583984371362-25.201171874989086,33.598876953121362-41.016357421869543,47.31396484375Z" fill="none" stroke="#181818" stroke-linecap="round" stroke-linejoin="round" stroke-width="15"/>
          </a>
          <a xlink:href="https://www.notion.so/dmmnotes/punitively-obsessed-with-revenge-33d2e77f37774316b42bccf4a60f9688?pvs=4">
            <path id="C5" d="M485.08251953125,418.945556640631366l46.223632812510914,29.704833984371362c14.048095703128638-21.809326171882276,25.08837890625-45.71875,32.551513671869543-71.175048828133185l-52.7548828125-15.490234375c-5.9619140625,20.377929687511823-14.789306640619543,39.509765625000909-26.020263671880457,56.960449218761823Z" fill="none" stroke="#181818" stroke-linecap="round" stroke-linejoin="round" stroke-width="15"/>
          </a>
          <a xlink:href="https://www.notion.so/dmmnotes/feigned-helpless-e79a94b0498c4e109a681b7f3dcdb088?pvs=4">
            <path id="C4" d="M520,300.000000000003638c0,21.538085937499091-3.142089843739086,42.321533203115905-8.897216796869543,61.985107421865905l52.7548828125,15.490234375c7.2080078125-24.583496093738177,11.142333984369543-50.5634765625,11.142333984369543-77.475341796865905h-55Z" fill="none" stroke="#181818" stroke-linecap="round" stroke-linejoin="round" stroke-width="15"/>
          </a>
          <a xlink:href="https://www.notion.so/dmmnotes/aggressive-2d8ccce383534b9dbfc7b4b10b8a5d5c?pvs=4">
            <path id="C3" d="M520,300.000000000003638h55c0-26.911865234389552-3.934326171869543-52.894531250010914-11.142333984369543-77.475341796889552l-52.7548828125,15.490234375c5.755126953130457,19.663574218757276,8.897216796869543,40.449707031257276,8.897216796869543,61.985107421889552Z" fill="none" stroke="#181818" stroke-linecap="round" stroke-linejoin="round" stroke-width="15"/>
          </a>
          <a xlink:href="https://www.notion.so/dmmnotes/disarming-086276e599884c86b9359acf831a8b20?pvs=4">
            <path id="C2" d="M511.102783203130457,238.014892578114086l52.7548828125-15.490234375c-7.463134765619543-25.456298828121362-18.503417968740905-49.365722656242724-32.551513671869543-71.177734374992724l-46.223632812510914,29.70751953125c11.230957031260914,17.45068359375,20.055664062510914,36.585205078121362,26.020263671880457,56.960449218742724Z" fill="none" stroke="#181818" stroke-linecap="round" stroke-linejoin="round" stroke-width="15"/>
          </a>
          <a xlink:href="https://www.notion.so/dmmnotes/threatening-348fe6a52f7a4fe69f768e98c6586932?pvs=4">
            <path id="C1" d="M485.08251953125,181.054443359371362l46.223632812510914-29.70751953125c-14.219970703130457-22.08056640625-31.504150390630457-41.980468750009095-51.26708984375-59.122314453126819l-35.972900390630457,41.518554687498181c15.815185546880457,13.71240234375,29.64306640625,29.637695312510914,41.016357421869543,47.311279296878638Z" fill="none" stroke="#181818" stroke-linecap="round" stroke-linejoin="round" stroke-width="15"/>
          </a>
          <a xlink:href="https://www.notion.so/dmmnotes/complaining-acceptance-8b40401a720c493ba73f7cde1567cf3d?pvs=4">
            <path id="B5" d="M444.066162109380457,133.743164062492724l35.972900390630457-41.518554687498181c-19.687744140621362-17.07470703125-41.81396484375-31.388671875-65.803955078141371-42.36181640625l-22.832519531239086,49.99951171875c19.204345703119543,8.773681640626819,36.910156249989086,20.22216796875,52.66357421875,33.880859374998181Z" fill="none" stroke="#181818" stroke-linecap="round" stroke-linejoin="round" stroke-width="15"/>
          </a>
          <a xlink:href="https://www.notion.so/dmmnotes/sentimental-bc554363322342b1b7ca4ccc02125049?pvs=4">
            <path id="B4" d="M391.402587890630457,99.862304687494543l22.832519531239086-49.99951171875c-23.455566406229991-10.7314453125-48.662109375-18.275146484382276-75.101318359369543-22.042968749989086l-7.825683593739086,54.433349609365905c21.159423828119543,3.0078125,41.327880859369543,9.034179687490905,60.094482421869543,17.609130859373181Z" fill="none" stroke="#181818" stroke-linecap="round" stroke-linejoin="round" stroke-width="15"/>
          </a>
          <a xlink:href="https://www.notion.so/dmmnotes/comfortably-balanced-e76dc615a8b947aa915377cd02fcf716?pvs=4">
            <path id="B3" d="M300,79.999999999994543c10.634765625,0,21.078857421869543.797607421876819,31.308105468760914,2.253173828126819l7.825683593739086-54.433349609365905c-12.788574218739086-1.823486328134095-25.843017578130457-2.819824218760914-39.1337890625-2.819824218760914s-26.34521484375.996337890626819-39.133789062489086,2.819824218760914l7.825683593739086,54.433349609365905c10.23193359375-1.45556640625,20.67333984375-2.253173828126819,31.30810546875-2.253173828126819Z" fill="none" stroke="#181818" stroke-linecap="round" stroke-linejoin="round" stroke-width="15"/>
          </a>
          <a xlink:href="https://www.notion.so/dmmnotes/accepting-317d81273fff4cd9817cdf4a88efd378?pvs=4">
            <path id="B2" d="M268.69189453125,82.253173828121362l-7.825683593739086-54.433349609365905c-26.439208984391371,3.76782226560681-51.643066406260914,11.311523437489086-75.098632812510914,22.042968749989086l22.83251953125,49.99951171875c18.7666015625-8.574951171882276,38.93505859375-14.601318359373181,60.091796875-17.609130859373181Z" fill="none" stroke="#181818" stroke-linecap="round" stroke-linejoin="round" stroke-width="15"/>
          </a>
          <a xlink:href="https://www.notion.so/dmmnotes/distanced-from-past-2eabab7e9c77429f8e577f4e3e203653?pvs=4">
            <path id="B1" d="M208.60009765625,99.862304687494543l-22.83251953125-49.99951171875c-23.99267578125,10.97314453125-46.1162109375,25.287109375-65.803955078119543,42.36181640625l35.972900390619543,41.515869140626819c15.75341796875-13.658691406259095,33.4619140625-25.1044921875,52.66357421875-33.878173828126819Z" fill="none" stroke="#181818" stroke-linecap="round" stroke-linejoin="round" stroke-width="15"/>
          </a>
          <a xlink:href="https://www.notion.so/dmmnotes/idealising-a52277f51ed14a42aae78081bb34b8be?pvs=4">
            <path id="A1" d="M155.9365234375,133.740478515621362l-35.972900390619543-41.515869140626819c-19.765625,17.141845703117724-37.049804687510914,37.041748046876819-51.269775390630457,59.122314453126819l46.226318359369543,29.70751953125c11.373291015641371-17.673583984367724,25.201171875010914-33.598876953128638,41.016357421880457-47.31396484375Z" fill="none" stroke="#181818" stroke-linecap="round" stroke-linejoin="round" stroke-width="15"/>
          </a>
          <a xlink:href="https://www.notion.so/dmmnotes/distancing-9ac690cdca654729a17a5a255944e2d1?pvs=4">
            <path id="A2" d="M114.920166015619543,181.054443359371362l-46.226318359369543-29.70751953125c-14.04541015625,21.81201171875-25.08837890625,45.721435546871362-32.551513671880457,71.177734374992724l52.754882812510914,15.490234375c5.964599609369543-20.375244140621362,14.7919921875-39.509765624992724,26.022949218739086-56.960449218742724Z" fill="none" stroke="#181818" stroke-linecap="round" stroke-linejoin="round" stroke-width="15"/>
          </a>
          <a xlink:href="https://www.notion.so/dmmnotes/compulsive-caregiving-9c380c0928294f41ae10764aa0dee886?pvs=4">
            <path id="A3" d="M88.897216796880457,238.014892578114086l-52.754882812510914-15.490234375c-7.205322265619543,24.580810546878638-11.142333984369543,50.5634765625-11.142333984369543,77.475341796889552h55c0-21.535400390632276,3.14208984375-42.321533203132276,8.897216796880457-61.985107421889552Z" fill="none" stroke="#181818" stroke-linecap="round" stroke-linejoin="round" stroke-width="15"/>
          </a>
          <a xlink:href="https://www.notion.so/dmmnotes/compulsive-compliance-6d08b7ea9a424ce1a72b9184b7850414?pvs=4">
            <path id="A4" d="M80,300.000000000003638H25c0,26.911865234365905,3.93701171875,52.894531249988177,11.142333984369543,77.475341796865905l52.754882812510914-15.490234375c-5.755126953130457-19.66357421875-8.897216796880457-40.447021484366815-8.897216796880457-61.985107421865905Z" fill="none" stroke="#181818" stroke-linecap="round" stroke-linejoin="round" stroke-width="15"/>
          </a>
          <a xlink:href="https://www.notion.so/dmmnotes/sexual-supplementation-8e85f49046ef412aa229745abf7d38d3?pvs=4">
            <path id="A5" d="M88.897216796880457,361.985107421869543l-52.754882812510914,15.490234375c7.463134765630457,25.456298828133185,18.506103515630457,49.365722656250909,32.551513671880457,71.175048828133185l46.223632812510914-29.704833984371362c-11.230957031260914-17.450683593760914-20.055664062510914-36.58251953125-26.020263671880457-56.960449218761823Z" fill="none" stroke="#181818" stroke-linecap="round" stroke-linejoin="round" stroke-width="15"/>
          </a>
          <a xlink:href="https://www.notion.so/dmmnotes/compulsive-isolated-self-reliance-b321873a73fa41aaaadd7192fde856a2?pvs=4">
            <path id="A6" d="M114.917480468760914,418.945556640631366l-46.223632812510914,29.704833984371362c14.219970703119543,22.083251953117724,31.504150390630457,41.983154296867724,51.269775390630457,59.125l35.972900390619543-41.515869140621362c-15.815185546869543-13.712402343760914-29.643066406239086-29.637695312510914-41.019042968739086-47.31396484375Z" fill="none" stroke="#181818" stroke-linecap="round" stroke-linejoin="round" stroke-width="15"/>
          </a>
          <a xlink:href="https://www.notion.so/dmmnotes/delusional-idealization-743e2420b9994a48a7cab68190432e8a?pvs=4">
            <path id="A7" d="M155.9365234375,466.259521484381366l-35.972900390619543,41.515869140621362c19.687744140619543,17.074707031239086,41.811279296869543,31.385986328128638,65.803955078119543,42.36181640625l22.83251953125-49.996826171882276c-19.20166015625-8.773681640617724-36.91015625-20.222167968739086-52.66357421875-33.880859374989086Z" fill="none" stroke="#181818" stroke-linecap="round" stroke-linejoin="round" stroke-width="15"/>
          </a>
          <a xlink:href="https://www.notion.so/dmmnotes/externally-assembled-self-994ecb0895b844409b931d74a045c162?pvs=4">
            <path id="A8" d="M208.60009765625,500.140380859370453l-22.83251953125,49.996826171882276c23.45556640625,10.7314453125,48.659423828119543,18.275146484367724,75.098632812510914,22.04296875l7.825683593739086-54.4306640625c-21.15673828125-3.0078125-41.3251953125-9.0341796875-60.091796875-17.609130859382276Z" fill="none" stroke="#181818" stroke-linecap="round" stroke-linejoin="round" stroke-width="15"/>
          </a>
          <a xlink:href="https://www.notion.so/dmmnotes/psychopathy-0fe4a3222d9f4fd097ab4546c9776768?pvs=4">
            <path id="AC" d="M300,520.000000000002728c-10.634765625,0-21.076171875-.794921875-31.30810546875-2.25048828125l-7.825683593739086,54.4306640625c12.788574218739086,1.823486328128638,25.843017578119543,2.81982421875,39.133789062489086,2.81982421875s26.345214843760914-.996337890621362,39.1337890625-2.81982421875l-7.825683593739086-54.4306640625c-10.229248046891371,1.45556640625-20.673339843760914,2.25048828125-31.308105468760914,2.25048828125Z" fill="none" stroke="#181818" stroke-linecap="round" stroke-linejoin="round" stroke-width="15"/>
          </a>
          <a xlink:href="https://www.notion.so/dmmnotes/paranoid-ae38b1e6af0c4dd08f61e0d8f6e9f05f?pvs=4">
            <g id="C8">
              <path d="M339.1328125,573.18017578125c-.4892578125,0-.9169921875-.359375-.9892578125-.85791015625l-7.8251953125-54.4306640625c-.037109375-.2626953125.03125-.52978515625.1904296875-.7421875s.396484375-.3525390625.6591796875-.39013671875c20.658203125-2.9365234375,40.7841796875-8.833984375,59.8193359375-17.52880859375.130859375-.06005859375.2734375-.09033203125.4150390625-.09033203125.1181640625,0,.236328125.02099609375.349609375.06298828125.248046875.0927734375.4501953125.2802734375.5595703125.521484375l22.8330078125,49.9970703125c.2294921875.50244140625.0087890625,1.09521484375-.4931640625,1.32470703125-23.974609375,10.96923828125-49.3349609375,18.41259765625-75.376953125,22.1240234375-.046875.00634765625-.0947265625.009765625-.1416015625.009765625Z" fill="none" stroke="#181818" stroke-linecap="round" stroke-linejoin="round" stroke-width="15"/>
              <path d="M391.402587890625,500.140385985374451l22.83251953125,49.996817231178284c-23.45556640625,10.7314453125-48.662109375,18.275150299072266-75.101318359375,22.042964935302734l-7.82568359375-54.430658340454102c21.159423828125-3.007816314697266,41.327880859375-9.036862373352051,60.094482421875-17.609123826026917M391.402587890625,498.140382051467896c-.283935546875,0-.567626953125.060501396656036-.8310546875.180803954601288-18.94677734375,8.654569208621979-38.98046875,14.524999678134918-59.544921875,17.448230803012848-.525634765625.074722290039062-1,.355430603027344-1.318603515625.780261993408203-.318603515625.424814224243164-.455078125.95887565612793-.379638671875,1.484445571899414l7.82568359375,54.430658340454102c.143310546875.996696472167969.99853515625,1.715644836425781,1.977294921875,1.715644836425781.093994140625,0,.18896484375-.006622314453125.28466796875-.020256042480469,26.13623046875-3.724632263183594,51.5888671875-11.195232391357422,75.651123046875-22.204277038574219,1.00390625-.459323883056641,1.44580078125-1.645263671875.9873046875-2.649509429931641l-22.83251953125-49.996814399957657c-.220458984375-.482538476586342-.62353515625-.857753843069077-1.120361328125-1.043107718229294-.225830078125-.084187746047974-.462646484375-.126080870628357-.698974609375-.126080870628357h0Z" fill="none" stroke="#181818" stroke-linecap="round" stroke-linejoin="round" stroke-width="15"/>
            </g>
          </a>
          <a xlink:href="https://www.notion.so/dmmnotes/menacing-a5bd7149286344deba45ec15e759e579?pvs=4">
            <g id="C7">
              <path d="M414.2353515625,551.13720703125c-.1181640625,0-.236328125-.02099609375-.349609375-.06298828125-.248046875-.0927734375-.4501953125-.2802734375-.5595703125-.521484375l-22.8330078125-49.9970703125c-.2294921875-.50244140625-.0087890625-1.095703125.4931640625-1.3251953125,18.9765625-8.671875,36.615234375-20.01904296875,52.4248046875-33.72607421875.1826171875-.158203125.4150390625-.24462890625.6552734375-.24462890625.0234375,0,.0478515625.0009765625.0712890625.00244140625.2646484375.01904296875.5107421875.14208984375.6845703125.3427734375l35.97265625,41.515625c.361328125.4169921875.31640625,1.04833984375-.1005859375,1.41015625-19.9189453125,17.275390625-42.138671875,31.57958984375-66.04296875,42.515625-.1318359375.060546875-.2734375.0908203125-.416015625.0908203125Z" fill="none" stroke="#181818" stroke-linecap="round" stroke-linejoin="round" stroke-width="15"/>
              <path d="M444.066162109375,466.259513854980469l35.972900390625,41.515883445739746c-19.687744140625,17.074700355529785-41.81396484375,31.385983467102051-65.803955078125,42.361817359924316l-22.83251953125-49.996833682060242c19.204345703125-8.776366829872131,36.91015625-20.222166180610657,52.66357421875-33.880867123603821M444.066162109375,464.259513854980469c-.479736328125,0-.9453125.172595977783203-1.31005859375.488899230957031-15.7373046875,13.644634246826172-33.294921875,24.940200805664062-52.184814453125,33.572917819023132-1.00439453125.459033355116844-1.44677734375,1.645300030708313-.988037109375,2.649866700172424l22.83251953125,49.99683141708374c.220458984375.482719421386719.623779296875.858036041259766,1.12109375,1.043319702148438.2255859375.084033966064453.462158203125.125862121582031.6982421875.125862121582031.284423828125,0,.568359375-.060665130615234.83203125-.181312561035156,23.99169921875-10.976585388183594,46.292236328125-25.332700729370117,66.2822265625-42.669584274291992.834228515625-.723466873168945.92431640625-1.986100196838379.201171875-2.820616245269775l-35.972900390625-41.515883922576904c-.347412109375-.400966644287109-.83984375-.647449493408203-1.369140625-.685214996337891-.047607421875-.003398895263672-.094970703125-.005084991455078-.142333984375-.005084991455078h0Z" fill="none" stroke="#181818" stroke-linecap="round" stroke-linejoin="round" stroke-width="15"/>
            </g>
          </a>
        </g>
        <g>
          <a xlink:href="https://www.notion.so/dmmnotes/seductively-obsessed-with-rescue-6fb5a68f6d334bc29ccccc16d8a4e56e?pvs=4">
            <path id="C6-2" data-name="C6" d="M444.066162109380457,466.259521484381366l35.972900390630457,41.515869140621362c19.762939453119543-17.141845703132276,37.047119140619543-37.041748046882276,51.26708984375-59.125l-46.223632812510914-29.704833984371362c-11.373291015619543,17.673583984371362-25.201171874989086,33.598876953121362-41.016357421869543,47.31396484375Z" fill="#8f807d" stroke="#181818" stroke-linecap="round" stroke-linejoin="round" stroke-width="2"/>
          </a>
          <a xlink:href="https://www.notion.so/dmmnotes/punitively-obsessed-with-revenge-33d2e77f37774316b42bccf4a60f9688?pvs=4">
            <path id="C5-2" data-name="C5" d="M485.08251953125,418.945556640631366l46.223632812510914,29.704833984371362c14.048095703128638-21.809326171882276,25.08837890625-45.71875,32.551513671869543-71.175048828133185l-52.7548828125-15.490234375c-5.9619140625,20.377929687511823-14.789306640619543,39.509765625000909-26.020263671880457,56.960449218761823Z" fill="#8f807d" stroke="#181818" stroke-linecap="round" stroke-linejoin="round" stroke-width="2"/>
          </a>
          <a xlink:href="https://www.notion.so/dmmnotes/feigned-helpless-e79a94b0498c4e109a681b7f3dcdb088?pvs=4">
            <path id="C4-2" data-name="C4" d="M520,300.000000000003638c0,21.538085937499091-3.142089843739086,42.321533203115905-8.897216796869543,61.985107421865905l52.7548828125,15.490234375c7.2080078125-24.583496093738177,11.142333984369543-50.5634765625,11.142333984369543-77.475341796865905h-55Z" fill="#8f807d" stroke="#181818" stroke-linecap="round" stroke-linejoin="round" stroke-width="2"/>
          </a>
          <a xlink:href="https://www.notion.so/dmmnotes/aggressive-2d8ccce383534b9dbfc7b4b10b8a5d5c?pvs=4">
            <path id="C3-2" data-name="C3" d="M520,300.000000000003638h55c0-26.911865234389552-3.934326171869543-52.894531250010914-11.142333984369543-77.475341796889552l-52.7548828125,15.490234375c5.755126953130457,19.663574218757276,8.897216796869543,40.449707031257276,8.897216796869543,61.985107421889552Z" fill="#8f807d" stroke="#181818" stroke-linecap="round" stroke-linejoin="round" stroke-width="2"/>
          </a>
          <a xlink:href="https://www.notion.so/dmmnotes/disarming-086276e599884c86b9359acf831a8b20?pvs=4">
            <path id="C2-2" data-name="C2" d="M511.102783203130457,238.014892578114086l52.7548828125-15.490234375c-7.463134765619543-25.456298828121362-18.503417968740905-49.365722656242724-32.551513671869543-71.177734374992724l-46.223632812510914,29.70751953125c11.230957031260914,17.45068359375,20.055664062510914,36.585205078121362,26.020263671880457,56.960449218742724Z" fill="#8f807d" stroke="#181818" stroke-linecap="round" stroke-linejoin="round" stroke-width="2"/>
          </a>
          <a xlink:href="https://www.notion.so/dmmnotes/threatening-348fe6a52f7a4fe69f768e98c6586932?pvs=4">
            <path id="C1-2" data-name="C1" d="M485.08251953125,181.054443359371362l46.223632812510914-29.70751953125c-14.219970703130457-22.08056640625-31.504150390630457-41.980468750009095-51.26708984375-59.122314453126819l-35.972900390630457,41.518554687498181c15.815185546880457,13.71240234375,29.64306640625,29.637695312510914,41.016357421869543,47.311279296878638Z" fill="#8f807d" stroke="#181818" stroke-linecap="round" stroke-linejoin="round" stroke-width="2"/>
          </a>
          <a xlink:href="https://www.notion.so/dmmnotes/complaining-acceptance-8b40401a720c493ba73f7cde1567cf3d?pvs=4">
            <path id="B5-2" data-name="B5" d="M444.066162109380457,133.743164062492724l35.972900390630457-41.518554687498181c-19.687744140621362-17.07470703125-41.81396484375-31.388671875-65.803955078141371-42.36181640625l-22.832519531239086,49.99951171875c19.204345703119543,8.773681640626819,36.910156249989086,20.22216796875,52.66357421875,33.880859374998181Z" fill="#8f807d" stroke="#181818" stroke-linecap="round" stroke-linejoin="round" stroke-width="2"/>
          </a>
          <a xlink:href="https://www.notion.so/dmmnotes/sentimental-bc554363322342b1b7ca4ccc02125049?pvs=4">
            <path id="B4-2" data-name="B4" d="M391.402587890630457,99.862304687494543l22.832519531239086-49.99951171875c-23.455566406229991-10.7314453125-48.662109375-18.275146484382276-75.101318359369543-22.042968749989086l-7.825683593739086,54.433349609365905c21.159423828119543,3.0078125,41.327880859369543,9.034179687490905,60.094482421869543,17.609130859373181Z" fill="#8f807d" stroke="#181818" stroke-linecap="round" stroke-linejoin="round" stroke-width="2"/>
          </a>
          <a xlink:href="https://www.notion.so/dmmnotes/comfortably-balanced-e76dc615a8b947aa915377cd02fcf716?pvs=4">
            <path id="B3-2" data-name="B3" d="M300,79.999999999994543c10.634765625,0,21.078857421869543.797607421876819,31.308105468760914,2.253173828126819l7.825683593739086-54.433349609365905c-12.788574218739086-1.823486328134095-25.843017578130457-2.819824218760914-39.1337890625-2.819824218760914s-26.34521484375.996337890626819-39.133789062489086,2.819824218760914l7.825683593739086,54.433349609365905c10.23193359375-1.45556640625,20.67333984375-2.253173828126819,31.30810546875-2.253173828126819Z" fill="#8f807d" stroke="#181818" stroke-linecap="round" stroke-linejoin="round" stroke-width="2"/>
          </a>
          <a xlink:href="https://www.notion.so/dmmnotes/accepting-317d81273fff4cd9817cdf4a88efd378?pvs=4">
            <path id="B2-2" data-name="B2" d="M268.69189453125,82.253173828121362l-7.825683593739086-54.433349609365905c-26.439208984391371,3.76782226560681-51.643066406260914,11.311523437489086-75.098632812510914,22.042968749989086l22.83251953125,49.99951171875c18.7666015625-8.574951171882276,38.93505859375-14.601318359373181,60.091796875-17.609130859373181Z" fill="#8f807d" stroke="#181818" stroke-linecap="round" stroke-linejoin="round" stroke-width="2"/>
          </a>
          <a xlink:href="https://www.notion.so/dmmnotes/distanced-from-past-2eabab7e9c77429f8e577f4e3e203653?pvs=4">
            <path id="B1-2" data-name="B1" d="M208.60009765625,99.862304687494543l-22.83251953125-49.99951171875c-23.99267578125,10.97314453125-46.1162109375,25.287109375-65.803955078119543,42.36181640625l35.972900390619543,41.515869140626819c15.75341796875-13.658691406259095,33.4619140625-25.1044921875,52.66357421875-33.878173828126819Z" fill="#8f807d" stroke="#181818" stroke-linecap="round" stroke-linejoin="round" stroke-width="2"/>
          </a>
          <a xlink:href="https://www.notion.so/dmmnotes/idealising-a52277f51ed14a42aae78081bb34b8be?pvs=4">
            <path id="A1-2" data-name="A1" d="M155.9365234375,133.740478515621362l-35.972900390619543-41.515869140626819c-19.765625,17.141845703117724-37.049804687510914,37.041748046876819-51.269775390630457,59.122314453126819l46.226318359369543,29.70751953125c11.373291015641371-17.673583984367724,25.201171875010914-33.598876953128638,41.016357421880457-47.31396484375Z" fill="#8f807d" stroke="#181818" stroke-linecap="round" stroke-linejoin="round" stroke-width="2"/>
          </a>
          <a xlink:href="https://www.notion.so/dmmnotes/distancing-9ac690cdca654729a17a5a255944e2d1?pvs=4">
            <path id="A2-2" data-name="A2" d="M114.920166015619543,181.054443359371362l-46.226318359369543-29.70751953125c-14.04541015625,21.81201171875-25.08837890625,45.721435546871362-32.551513671880457,71.177734374992724l52.754882812510914,15.490234375c5.964599609369543-20.375244140621362,14.7919921875-39.509765624992724,26.022949218739086-56.960449218742724Z" fill="#8f807d" stroke="#181818" stroke-linecap="round" stroke-linejoin="round" stroke-width="2"/>
          </a>
          <a xlink:href="https://www.notion.so/dmmnotes/compulsive-caregiving-9c380c0928294f41ae10764aa0dee886?pvs=4">
            <path id="A3-2" data-name="A3" d="M88.897216796880457,238.014892578114086l-52.754882812510914-15.490234375c-7.205322265619543,24.580810546878638-11.142333984369543,50.5634765625-11.142333984369543,77.475341796889552h55c0-21.535400390632276,3.14208984375-42.321533203132276,8.897216796880457-61.985107421889552Z" fill="#8f807d" stroke="#181818" stroke-linecap="round" stroke-linejoin="round" stroke-width="2"/>
          </a>
          <a xlink:href="https://www.notion.so/dmmnotes/compulsive-compliance-6d08b7ea9a424ce1a72b9184b7850414?pvs=4">
            <path id="A4-2" data-name="A4" d="M80,300.000000000003638H25c0,26.911865234365905,3.93701171875,52.894531249988177,11.142333984369543,77.475341796865905l52.754882812510914-15.490234375c-5.755126953130457-19.66357421875-8.897216796880457-40.447021484366815-8.897216796880457-61.985107421865905Z" fill="#8f807d" stroke="#181818" stroke-linecap="round" stroke-linejoin="round" stroke-width="2"/>
          </a>
          <a xlink:href="https://www.notion.so/dmmnotes/sexual-supplementation-8e85f49046ef412aa229745abf7d38d3?pvs=4">
            <path id="A5-2" data-name="A5" d="M88.897216796880457,361.985107421869543l-52.754882812510914,15.490234375c7.463134765630457,25.456298828133185,18.506103515630457,49.365722656250909,32.551513671880457,71.175048828133185l46.223632812510914-29.704833984371362c-11.230957031260914-17.450683593760914-20.055664062510914-36.58251953125-26.020263671880457-56.960449218761823Z" fill="#8f807d" stroke="#181818" stroke-linecap="round" stroke-linejoin="round" stroke-width="2"/>
          </a>
          <a xlink:href="https://www.notion.so/dmmnotes/compulsive-isolated-self-reliance-b321873a73fa41aaaadd7192fde856a2?pvs=4">
            <path id="A6-2" data-name="A6" d="M114.917480468760914,418.945556640631366l-46.223632812510914,29.704833984371362c14.219970703119543,22.083251953117724,31.504150390630457,41.983154296867724,51.269775390630457,59.125l35.972900390619543-41.515869140621362c-15.815185546869543-13.712402343760914-29.643066406239086-29.637695312510914-41.019042968739086-47.31396484375Z" fill="#8f807d" stroke="#181818" stroke-linecap="round" stroke-linejoin="round" stroke-width="2"/>
          </a>
          <a xlink:href="https://www.notion.so/dmmnotes/delusional-idealization-743e2420b9994a48a7cab68190432e8a?pvs=4">
            <path id="A7-2" data-name="A7" d="M155.9365234375,466.259521484381366l-35.972900390619543,41.515869140621362c19.687744140619543,17.074707031239086,41.811279296869543,31.385986328128638,65.803955078119543,42.36181640625l22.83251953125-49.996826171882276c-19.20166015625-8.773681640617724-36.91015625-20.222167968739086-52.66357421875-33.880859374989086Z" fill="#8f807d" stroke="#181818" stroke-linecap="round" stroke-linejoin="round" stroke-width="2"/>
          </a>
          <a xlink:href="https://www.notion.so/dmmnotes/externally-assembled-self-994ecb0895b844409b931d74a045c162?pvs=4">
            <path id="A8-2" data-name="A8" d="M208.60009765625,500.140380859370453l-22.83251953125,49.996826171882276c23.45556640625,10.7314453125,48.659423828119543,18.275146484367724,75.098632812510914,22.04296875l7.825683593739086-54.4306640625c-21.15673828125-3.0078125-41.3251953125-9.0341796875-60.091796875-17.609130859382276Z" fill="#8f807d" stroke="#181818" stroke-linecap="round" stroke-linejoin="round" stroke-width="2"/>
          </a>
          <a xlink:href="https://www.notion.so/dmmnotes/psychopathy-0fe4a3222d9f4fd097ab4546c9776768?pvs=4">
            <path id="AC-2" data-name="AC" d="M300,520.000000000002728c-10.634765625,0-21.076171875-.794921875-31.30810546875-2.25048828125l-7.825683593739086,54.4306640625c12.788574218739086,1.823486328128638,25.843017578119543,2.81982421875,39.133789062489086,2.81982421875s26.345214843760914-.996337890621362,39.1337890625-2.81982421875l-7.825683593739086-54.4306640625c-10.229248046891371,1.45556640625-20.673339843760914,2.25048828125-31.308105468760914,2.25048828125Z" fill="#8f807d" stroke="#181818" stroke-linecap="round" stroke-linejoin="round" stroke-width="2"/>
          </a>
          <a xlink:href="https://www.notion.so/dmmnotes/paranoid-ae38b1e6af0c4dd08f61e0d8f6e9f05f?pvs=4">
            <g id="C8-2" data-name="C8">
              <path d="M339.1328125,573.18017578125c-.4892578125,0-.9169921875-.359375-.9892578125-.85791015625l-7.8251953125-54.4306640625c-.037109375-.2626953125.03125-.52978515625.1904296875-.7421875s.396484375-.3525390625.6591796875-.39013671875c20.658203125-2.9365234375,40.7841796875-8.833984375,59.8193359375-17.52880859375.130859375-.06005859375.2734375-.09033203125.4150390625-.09033203125.1181640625,0,.236328125.02099609375.349609375.06298828125.248046875.0927734375.4501953125.2802734375.5595703125.521484375l22.8330078125,49.9970703125c.2294921875.50244140625.0087890625,1.09521484375-.4931640625,1.32470703125-23.974609375,10.96923828125-49.3349609375,18.41259765625-75.376953125,22.1240234375-.046875.00634765625-.0947265625.009765625-.1416015625.009765625Z" fill="#cd7969" stroke-width="0"/>
              <path d="M391.402587890625,500.140385985374451l22.83251953125,49.996817231178284c-23.45556640625,10.7314453125-48.662109375,18.275150299072266-75.101318359375,22.042964935302734l-7.82568359375-54.430658340454102c21.159423828125-3.007816314697266,41.327880859375-9.036862373352051,60.094482421875-17.609123826026917M391.402587890625,498.140382051467896c-.283935546875,0-.567626953125.060501396656036-.8310546875.180803954601288-18.94677734375,8.654569208621979-38.98046875,14.524999678134918-59.544921875,17.448230803012848-.525634765625.074722290039062-1,.355430603027344-1.318603515625.780261993408203-.318603515625.424814224243164-.455078125.95887565612793-.379638671875,1.484445571899414l7.82568359375,54.430658340454102c.143310546875.996696472167969.99853515625,1.715644836425781,1.977294921875,1.715644836425781.093994140625,0,.18896484375-.006622314453125.28466796875-.020256042480469,26.13623046875-3.724632263183594,51.5888671875-11.195232391357422,75.651123046875-22.204277038574219,1.00390625-.459323883056641,1.44580078125-1.645263671875.9873046875-2.649509429931641l-22.83251953125-49.996814399957657c-.220458984375-.482538476586342-.62353515625-.857753843069077-1.120361328125-1.043107718229294-.225830078125-.084187746047974-.462646484375-.126080870628357-.698974609375-.126080870628357h0Z" fill="#181818" stroke-width="0"/>
            </g>
          </a>
          <a xlink:href="https://www.notion.so/dmmnotes/menacing-a5bd7149286344deba45ec15e759e579?pvs=4">
            <g id="C7-2" data-name="C7">
              <path d="M414.2353515625,551.13720703125c-.1181640625,0-.236328125-.02099609375-.349609375-.06298828125-.248046875-.0927734375-.4501953125-.2802734375-.5595703125-.521484375l-22.8330078125-49.9970703125c-.2294921875-.50244140625-.0087890625-1.095703125.4931640625-1.3251953125,18.9765625-8.671875,36.615234375-20.01904296875,52.4248046875-33.72607421875.1826171875-.158203125.4150390625-.24462890625.6552734375-.24462890625.0234375,0,.0478515625.0009765625.0712890625.00244140625.2646484375.01904296875.5107421875.14208984375.6845703125.3427734375l35.97265625,41.515625c.361328125.4169921875.31640625,1.04833984375-.1005859375,1.41015625-19.9189453125,17.275390625-42.138671875,31.57958984375-66.04296875,42.515625-.1318359375.060546875-.2734375.0908203125-.416015625.0908203125Z" fill="#c78361" stroke-width="0"/>
              <path d="M444.066162109375,466.259513854980469l35.972900390625,41.515883445739746c-19.687744140625,17.074700355529785-41.81396484375,31.385983467102051-65.803955078125,42.361817359924316l-22.83251953125-49.996833682060242c19.204345703125-8.776366829872131,36.91015625-20.222166180610657,52.66357421875-33.880867123603821M444.066162109375,464.259513854980469c-.479736328125,0-.9453125.172595977783203-1.31005859375.488899230957031-15.7373046875,13.644634246826172-33.294921875,24.940200805664062-52.184814453125,33.572917819023132-1.00439453125.459033355116844-1.44677734375,1.645300030708313-.988037109375,2.649866700172424l22.83251953125,49.99683141708374c.220458984375.482719421386719.623779296875.858036041259766,1.12109375,1.043319702148438.2255859375.084033966064453.462158203125.125862121582031.6982421875.125862121582031.284423828125,0,.568359375-.060665130615234.83203125-.181312561035156,23.99169921875-10.976585388183594,46.292236328125-25.332700729370117,66.2822265625-42.669584274291992.834228515625-.723466873168945.92431640625-1.986100196838379.201171875-2.820616245269775l-35.972900390625-41.515883922576904c-.347412109375-.400966644287109-.83984375-.647449493408203-1.369140625-.685214996337891-.047607421875-.003398895263672-.094970703125-.005084991455078-.142333984375-.005084991455078h0Z" fill="#181818" stroke-width="0"/>
            </g>
          </a>
        </g>
      </g>
    </g>
  </g>
</svg>