<?xml version="1.0" encoding="UTF-8"?>
<svg id="Layer_1" data-name="Layer 1" xmlns="http://www.w3.org/2000/svg" xmlns:xlink="http://www.w3.org/1999/xlink" viewBox="0 0 600 599.999999999998181">
  <defs>
    <linearGradient id="C4-5" data-name="C4" x1="215.725063613925158" y1="434.796605220573838" x2="375.216655484828721" y2="247.924482556403746" gradientUnits="userSpaceOnUse">
      <stop offset="0" stop-color="#7e9e4c"/>
      <stop offset=".487868088942308" stop-color="#91a23d"/>
      <stop offset=".713373248351595" stop-color="#9d9c43"/>
      <stop offset="1" stop-color="#b4924e"/>
    </linearGradient>
  </defs>
  <g id="pie_with_links_-5" data-name="pie (with links)">
    <g id="pie_with_links_-6" data-name="pie (with links)">
      <g id="Pie">
        <g>
          <a xlink:href="https://www.notion.so/dmmnotes/paranoid-ae38b1e6af0c4dd08f61e0d8f6e9f05f?pvs=4">
            <path id="C8" d="M331.30810546875,517.749511718748181l7.825683593739086,54.4306640625c26.439208984371362-3.767822265628638,51.645751953141371-11.3115234375,75.101318359371362-22.04296875l-22.832519531240905-49.996826171878638c-18.7666015625,8.572265625-38.93505859375,14.601318359378638-60.094482421869543,17.609130859378638Z" fill="none" stroke="#181818" stroke-linecap="round" stroke-linejoin="round" stroke-width="15"/>
          </a>
          <a xlink:href="https://www.notion.so/dmmnotes/menacing-a5bd7149286344deba45ec15e759e579?pvs=4">
            <path id="C7" d="M391.402587890619543,500.140380859369543l22.832519531240905,49.996826171878638c23.989990234389552-10.975830078117724,46.116210937520009-25.287109375010914,65.803955078139552-42.36181640625l-35.972900390630457-41.515869140617724c-15.753417968759095,13.65869140625-33.459228515630457,25.104492187489086-52.66357421875,33.880859374989086Z" fill="none" stroke="#181818" stroke-linecap="round" stroke-linejoin="round" stroke-width="15"/>
          </a>
          <a xlink:href="https://www.notion.so/dmmnotes/seductively-obsessed-with-rescue-6fb5a68f6d334bc29ccccc16d8a4e56e?pvs=4">
            <path id="C6" d="M444.066162109369543,466.259521484380457l35.972900390630457,41.515869140617724c19.762939453119543-17.141845703128638,37.047119140619543-37.041748046878638,51.26708984375-59.125l-46.223632812510914-29.704833984367724c-11.373291015619543,17.673583984367724-25.201171874989086,33.598876953117724-41.016357421869543,47.31396484375Z" fill="none" stroke="#181818" stroke-linecap="round" stroke-linejoin="round" stroke-width="15"/>
          </a>
          <a xlink:href="https://www.notion.so/dmmnotes/punitively-obsessed-with-revenge-33d2e77f37774316b42bccf4a60f9688?pvs=4">
            <path id="C5" d="M485.082519531239086,418.945556640630457l46.223632812510914,29.704833984367724c14.048095703130457-21.809326171878638,25.08837890625-45.71875,32.551513671869543-71.175048828128638l-52.7548828125-15.490234375c-5.9619140625,20.377929687510914-14.789306640619543,39.509765625-26.020263671880457,56.960449218760914Z" fill="none" stroke="#181818" stroke-linecap="round" stroke-linejoin="round" stroke-width="15"/>
          </a>
          <a xlink:href="https://www.notion.so/dmmnotes/aggressive-2d8ccce383534b9dbfc7b4b10b8a5d5c?pvs=4">
            <path id="C3" d="M519.999999999989086,300h55c0-26.911865234390461-3.934326171869543-52.894531250011823-11.142333984369543-77.475341796890461l-52.7548828125,15.490234375c5.755126953130457,19.663574218760914,8.897216796869543,40.449707031260914,8.897216796869543,61.985107421890461Z" fill="none" stroke="#181818" stroke-linecap="round" stroke-linejoin="round" stroke-width="15"/>
          </a>
          <a xlink:href="https://www.notion.so/dmmnotes/disarming-086276e599884c86b9359acf831a8b20?pvs=4">
            <path id="C2" d="M511.102783203119543,238.014892578109539l52.7548828125-15.490234375c-7.463134765619543-25.456298828121362-18.503417968739086-49.365722656239086-32.551513671869543-71.177734374989086l-46.223632812510914,29.70751953125c11.230957031260914,17.45068359375,20.055664062510914,36.585205078117724,26.020263671880457,56.960449218739086Z" fill="none" stroke="#181818" stroke-linecap="round" stroke-linejoin="round" stroke-width="15"/>
          </a>
          <a xlink:href="https://www.notion.so/dmmnotes/threatening-348fe6a52f7a4fe69f768e98c6586932?pvs=4">
            <path id="C1" d="M485.082519531239086,181.054443359370453l46.223632812510914-29.70751953125c-14.219970703130457-22.08056640625-31.504150390630457-41.980468750010914-51.26708984375-59.122314453120453l-35.972900390630457,41.518554687488177c15.815185546880457,13.71240234375,29.64306640625,29.637695312511823,41.016357421869543,47.311279296882276Z" fill="none" stroke="#181818" stroke-linecap="round" stroke-linejoin="round" stroke-width="15"/>
          </a>
          <a xlink:href="https://www.notion.so/dmmnotes/complaining-acceptance-8b40401a720c493ba73f7cde1567cf3d?pvs=4">
            <path id="B5" d="M444.066162109369543,133.743164062488177l35.972900390630457-41.518554687488177c-19.687744140619543-17.07470703125-41.81396484375-31.388671875-65.803955078139552-42.36181640625l-22.832519531240905,49.99951171875c19.204345703119543,8.773681640620453,36.910156249990905,20.22216796875,52.66357421875,33.880859374988177Z" fill="none" stroke="#181818" stroke-linecap="round" stroke-linejoin="round" stroke-width="15"/>
          </a>
          <a xlink:href="https://www.notion.so/dmmnotes/sentimental-bc554363322342b1b7ca4ccc02125049?pvs=4">
            <path id="B4" d="M391.402587890619543,99.8623046875l22.832519531240905-49.99951171875c-23.455566406229991-10.7314453125-48.662109375-18.275146484390461-75.101318359371362-22.042968749990905l-7.825683593739086,54.433349609361358c21.159423828119543,3.0078125,41.327880859369543,9.034179687489086,60.094482421869543,17.609130859379547Z" fill="none" stroke="#181818" stroke-linecap="round" stroke-linejoin="round" stroke-width="15"/>
          </a>
          <a xlink:href="https://www.notion.so/dmmnotes/comfortably-balanced-e76dc615a8b947aa915377cd02fcf716?pvs=4">
            <path id="B3" d="M299.999999999989086,80c10.634765625,0,21.078857421880457.797607421870453,31.308105468760914,2.253173828120453l7.825683593739086-54.433349609361358c-12.788574218728172-1.823486328138642-25.843017578119543-2.819824218759095-39.1337890625-2.819824218759095-13.290771484358629,0-26.34521484375.996337890620453-39.133789062478172,2.819824218759095l7.825683593728172,54.433349609361358c10.23193359375-1.45556640625,20.67333984375-2.253173828120453,31.30810546875-2.253173828120453Z" fill="none" stroke="#181818" stroke-linecap="round" stroke-linejoin="round" stroke-width="15"/>
          </a>
          <a xlink:href="https://www.notion.so/dmmnotes/accepting-317d81273fff4cd9817cdf4a88efd378?pvs=4">
            <path id="B2" d="M268.691894531239086,82.253173828120453l-7.825683593728172-54.433349609361358c-26.439208984391371,3.767822265600444-51.643066406271828,11.311523437490905-75.098632812521828,22.042968749990905l22.83251953125,49.99951171875c18.7666015625-8.574951171890461,38.93505859375-14.601318359379547,60.091796875-17.609130859379547Z" fill="none" stroke="#181818" stroke-linecap="round" stroke-linejoin="round" stroke-width="15"/>
          </a>
          <a xlink:href="https://www.notion.so/dmmnotes/distanced-from-past-2eabab7e9c77429f8e577f4e3e203653?pvs=4">
            <path id="B1" d="M208.600097656239086,99.8623046875l-22.83251953125-49.99951171875c-23.99267578125,10.97314453125-46.1162109375,25.287109375-65.803955078108629,42.36181640625l35.972900390608629,41.515869140620453c15.75341796875-13.658691406260914,33.4619140625-25.1044921875,52.66357421875-33.878173828120453Z" fill="none" stroke="#181818" stroke-linecap="round" stroke-linejoin="round" stroke-width="15"/>
          </a>
          <a xlink:href="https://www.notion.so/dmmnotes/idealising-a52277f51ed14a42aae78081bb34b8be?pvs=4">
            <path id="A1" d="M155.936523437489086,133.740478515620453l-35.972900390608629-41.515869140620453c-19.765625,17.141845703109539-37.049804687510914,37.041748046870453-51.269775390641371,59.122314453120453l46.226318359380457,29.70751953125c11.373291015641371-17.673583984370453,25.201171875010914-33.598876953132276,41.016357421869543-47.31396484375Z" fill="none" stroke="#181818" stroke-linecap="round" stroke-linejoin="round" stroke-width="15"/>
          </a>
          <a xlink:href="https://www.notion.so/dmmnotes/distancing-9ac690cdca654729a17a5a255944e2d1?pvs=4">
            <path id="A2" d="M114.920166015619543,181.054443359370453l-46.226318359380457-29.70751953125c-14.04541015625,21.81201171875-25.08837890625,45.721435546867724-32.551513671869543,71.177734374989086l52.754882812510914,15.490234375c5.964599609358629-20.375244140621362,14.7919921875-39.509765624989086,26.022949218739086-56.960449218739086Z" fill="none" stroke="#181818" stroke-linecap="round" stroke-linejoin="round" stroke-width="15"/>
          </a>
          <a xlink:href="https://www.notion.so/dmmnotes/compulsive-caregiving-9c380c0928294f41ae10764aa0dee886?pvs=4">
            <path id="A3" d="M88.897216796880457,238.014892578109539l-52.754882812510914-15.490234375c-7.205322265630457,24.580810546878638-11.142333984380457,50.5634765625-11.142333984380457,77.475341796890461h55c0-21.535400390629547,3.14208984375-42.321533203129547,8.897216796891371-61.985107421890461Z" fill="none" stroke="#181818" stroke-linecap="round" stroke-linejoin="round" stroke-width="15"/>
          </a>
          <a xlink:href="https://www.notion.so/dmmnotes/compulsive-compliance-6d08b7ea9a424ce1a72b9184b7850414?pvs=4">
            <path id="A4" d="M79.999999999989086,300H24.999999999989086c0,26.911865234369543,3.93701171875,52.894531249987267,11.142333984380457,77.475341796869543l52.754882812510914-15.490234375c-5.755126953141371-19.66357421875-8.897216796891371-40.447021484371362-8.897216796891371-61.985107421869543Z" fill="none" stroke="#181818" stroke-linecap="round" stroke-linejoin="round" stroke-width="15"/>
          </a>
          <a xlink:href="https://www.notion.so/dmmnotes/sexual-supplementation-8e85f49046ef412aa229745abf7d38d3?pvs=4">
            <path id="A5" d="M88.897216796880457,361.985107421869543l-52.754882812510914,15.490234375c7.463134765619543,25.456298828128638,18.506103515619543,49.36572265625,32.551513671869543,71.175048828128638l46.223632812521828-29.704833984367724c-11.230957031271828-17.450683593760914-20.055664062521828-36.58251953125-26.020263671880457-56.960449218760914Z" fill="none" stroke="#181818" stroke-linecap="round" stroke-linejoin="round" stroke-width="15"/>
          </a>
          <a xlink:href="https://www.notion.so/dmmnotes/compulsive-isolated-self-reliance-b321873a73fa41aaaadd7192fde856a2?pvs=4">
            <path id="A6" d="M114.917480468760914,418.945556640630457l-46.223632812521828,29.704833984367724c14.219970703130457,22.083251953121362,31.504150390641371,41.983154296871362,51.269775390641371,59.125l35.972900390608629-41.515869140617724c-15.815185546858629-13.712402343760914-29.643066406228172-29.637695312510914-41.019042968728172-47.31396484375Z" fill="none" stroke="#181818" stroke-linecap="round" stroke-linejoin="round" stroke-width="15"/>
          </a>
          <a xlink:href="https://www.notion.so/dmmnotes/delusional-idealization-743e2420b9994a48a7cab68190432e8a?pvs=4">
            <path id="A7" d="M155.936523437489086,466.259521484380457l-35.972900390608629,41.515869140617724c19.687744140608629,17.074707031239086,41.811279296858629,31.385986328132276,65.803955078108629,42.36181640625l22.83251953125-49.996826171878638c-19.20166015625-8.773681640621362-36.91015625-20.222167968739086-52.66357421875-33.880859374989086Z" fill="none" stroke="#181818" stroke-linecap="round" stroke-linejoin="round" stroke-width="15"/>
          </a>
          <a xlink:href="https://www.notion.so/dmmnotes/externally-assembled-self-994ecb0895b844409b931d74a045c162?pvs=4">
            <path id="A8" d="M208.600097656239086,500.140380859369543l-22.83251953125,49.996826171878638c23.45556640625,10.7314453125,48.659423828130457,18.275146484371362,75.098632812521828,22.04296875l7.825683593728172-54.4306640625c-21.15673828125-3.0078125-41.3251953125-9.0341796875-60.091796875-17.609130859378638Z" fill="none" stroke="#181818" stroke-linecap="round" stroke-linejoin="round" stroke-width="15"/>
          </a>
          <a xlink:href="https://www.notion.so/dmmnotes/psychopathy-0fe4a3222d9f4fd097ab4546c9776768?pvs=4">
            <path id="AC" d="M299.999999999989086,519.999999999998181c-10.634765625,0-21.076171875-.794921875-31.30810546875-2.25048828125l-7.825683593728172,54.4306640625c12.788574218728172,1.823486328132276,25.843017578119543,2.81982421875,39.133789062478172,2.81982421875,13.290771484380457,0,26.345214843771828-.996337890617724,39.1337890625-2.81982421875l-7.825683593739086-54.4306640625c-10.229248046880457,1.45556640625-20.673339843760914,2.25048828125-31.308105468760914,2.25048828125Z" fill="none" stroke="#181818" stroke-linecap="round" stroke-linejoin="round" stroke-width="15"/>
          </a>
          <a xlink:href="https://www.notion.so/dmmnotes/feigned-helpless-e79a94b0498c4e109a681b7f3dcdb088?pvs=4">
            <g id="C4">
              <path d="M563.857421875,378.475585937494543c-.0947265625,0-.189453125-.013671875-.2822265625-.0400390625l-52.75390625-15.490234375c-.5302734375-.15625-.833984375-.7109375-.6787109375-1.2412109375,5.876953125-20.08203125,8.857421875-40.841796875,8.857421875-61.7041015625,0-.55224609375.447265625-1,1-1h55c.552734375,0,1,.44775390625,1,1,0,26.287109375-3.7626953125,52.4482421875-11.1826171875,77.7568359375-.0751953125.2548828125-.248046875.46875-.48046875.5966796875-.1484375.0810546875-.3134765625.1220703125-.4794921875.1220703125Z" fill="none" stroke="#181818" stroke-linecap="round" stroke-linejoin="round" stroke-width="15"/>
              <path d="M575,299.999999999994543h.0048828125M575,299.999999999994543c0,26.911865234375-3.934326171875,52.891845703125-11.142333984375,77.475341796875l-52.7548828125-15.490234375c5.755126953125-19.66357421875,8.897216796875-40.447021484375,8.897216796875-61.985107421875h55M575.0048828125,297.999999999994543h-55.0048828125c-1.1044921875,0-2,.895416259765625-2,2,0,20.7686767578125-2.96630859375,41.434478759765625-8.816650390625,61.42333984375-.31005859375,1.059417724609375.296875,2.169769287109375,1.35595703125,2.48077392578125l52.7548828125,15.490203857421875c.1845703125.054229736328125.37451171875.081024169921875.5634765625.081024169921875.33203125,0,.662109375-.08270263671875.958740234375-.244842529296875.4658203125-.25433349609375.811279296875-.68328857421875.96044921875-1.19244384765625,7.4375-25.366485595703125,11.21337890625-51.587860107421875,11.22314453125-77.93695068359375.001708984375-.033477783203125.00244140625-.06719970703125.00244140625-.101104736328125,0-1.104583740234375-.892822265625-2-1.99755859375-2h0ZM575,301.999999999994543h.0048828125-.0048828125Z" fill="none" stroke="#181818" stroke-linecap="round" stroke-linejoin="round" stroke-width="15"/>
            </g>
          </a>
        </g>
        <g>
          <a xlink:href="https://www.notion.so/dmmnotes/paranoid-ae38b1e6af0c4dd08f61e0d8f6e9f05f?pvs=4">
            <path id="C8-2" data-name="C8" d="M331.30810546875,517.749511718748181l7.825683593739086,54.4306640625c26.439208984371362-3.767822265628638,51.645751953141371-11.3115234375,75.101318359371362-22.04296875l-22.832519531240905-49.996826171878638c-18.7666015625,8.572265625-38.93505859375,14.601318359378638-60.094482421869543,17.609130859378638Z" fill="#8f807d" stroke="#181818" stroke-linecap="round" stroke-linejoin="round" stroke-width="2"/>
          </a>
          <a xlink:href="https://www.notion.so/dmmnotes/menacing-a5bd7149286344deba45ec15e759e579?pvs=4">
            <path id="C7-2" data-name="C7" d="M391.402587890619543,500.140380859369543l22.832519531240905,49.996826171878638c23.989990234389552-10.975830078117724,46.116210937520009-25.287109375010914,65.803955078139552-42.36181640625l-35.972900390630457-41.515869140617724c-15.753417968759095,13.65869140625-33.459228515630457,25.104492187489086-52.66357421875,33.880859374989086Z" fill="#8f807d" stroke="#181818" stroke-linecap="round" stroke-linejoin="round" stroke-width="2"/>
          </a>
          <a xlink:href="https://www.notion.so/dmmnotes/seductively-obsessed-with-rescue-6fb5a68f6d334bc29ccccc16d8a4e56e?pvs=4">
            <path id="C6-2" data-name="C6" d="M444.066162109369543,466.259521484380457l35.972900390630457,41.515869140617724c19.762939453119543-17.141845703128638,37.047119140619543-37.041748046878638,51.26708984375-59.125l-46.223632812510914-29.704833984367724c-11.373291015619543,17.673583984367724-25.201171874989086,33.598876953117724-41.016357421869543,47.31396484375Z" fill="#8f807d" stroke="#181818" stroke-linecap="round" stroke-linejoin="round" stroke-width="2"/>
          </a>
          <a xlink:href="https://www.notion.so/dmmnotes/punitively-obsessed-with-revenge-33d2e77f37774316b42bccf4a60f9688?pvs=4">
            <path id="C5-2" data-name="C5" d="M485.082519531239086,418.945556640630457l46.223632812510914,29.704833984367724c14.048095703130457-21.809326171878638,25.08837890625-45.71875,32.551513671869543-71.175048828128638l-52.7548828125-15.490234375c-5.9619140625,20.377929687510914-14.789306640619543,39.509765625-26.020263671880457,56.960449218760914Z" fill="#8f807d" stroke="#181818" stroke-linecap="round" stroke-linejoin="round" stroke-width="2"/>
          </a>
          <a xlink:href="https://www.notion.so/dmmnotes/aggressive-2d8ccce383534b9dbfc7b4b10b8a5d5c?pvs=4">
            <path id="C3-2" data-name="C3" d="M519.999999999989086,300h55c0-26.911865234390461-3.934326171869543-52.894531250011823-11.142333984369543-77.475341796890461l-52.7548828125,15.490234375c5.755126953130457,19.663574218760914,8.897216796869543,40.449707031260914,8.897216796869543,61.985107421890461Z" fill="#8f807d" stroke="#181818" stroke-linecap="round" stroke-linejoin="round" stroke-width="2"/>
          </a>
          <a xlink:href="https://www.notion.so/dmmnotes/disarming-086276e599884c86b9359acf831a8b20?pvs=4">
            <path id="C2-2" data-name="C2" d="M511.102783203119543,238.014892578109539l52.7548828125-15.490234375c-7.463134765619543-25.456298828121362-18.503417968739086-49.365722656239086-32.551513671869543-71.177734374989086l-46.223632812510914,29.70751953125c11.230957031260914,17.45068359375,20.055664062510914,36.585205078117724,26.020263671880457,56.960449218739086Z" fill="#8f807d" stroke="#181818" stroke-linecap="round" stroke-linejoin="round" stroke-width="2"/>
          </a>
          <a xlink:href="https://www.notion.so/dmmnotes/threatening-348fe6a52f7a4fe69f768e98c6586932?pvs=4">
            <path id="C1-2" data-name="C1" d="M485.082519531239086,181.054443359370453l46.223632812510914-29.70751953125c-14.219970703130457-22.08056640625-31.504150390630457-41.980468750010914-51.26708984375-59.122314453120453l-35.972900390630457,41.518554687488177c15.815185546880457,13.71240234375,29.64306640625,29.637695312511823,41.016357421869543,47.311279296882276Z" fill="#8f807d" stroke="#181818" stroke-linecap="round" stroke-linejoin="round" stroke-width="2"/>
          </a>
          <a xlink:href="https://www.notion.so/dmmnotes/complaining-acceptance-8b40401a720c493ba73f7cde1567cf3d?pvs=4">
            <path id="B5-2" data-name="B5" d="M444.066162109369543,133.743164062488177l35.972900390630457-41.518554687488177c-19.687744140619543-17.07470703125-41.81396484375-31.388671875-65.803955078139552-42.36181640625l-22.832519531240905,49.99951171875c19.204345703119543,8.773681640620453,36.910156249990905,20.22216796875,52.66357421875,33.880859374988177Z" fill="#8f807d" stroke="#181818" stroke-linecap="round" stroke-linejoin="round" stroke-width="2"/>
          </a>
          <a xlink:href="https://www.notion.so/dmmnotes/sentimental-bc554363322342b1b7ca4ccc02125049?pvs=4">
            <path id="B4-2" data-name="B4" d="M391.402587890619543,99.8623046875l22.832519531240905-49.99951171875c-23.455566406229991-10.7314453125-48.662109375-18.275146484390461-75.101318359371362-22.042968749990905l-7.825683593739086,54.433349609361358c21.159423828119543,3.0078125,41.327880859369543,9.034179687489086,60.094482421869543,17.609130859379547Z" fill="#8f807d" stroke="#181818" stroke-linecap="round" stroke-linejoin="round" stroke-width="2"/>
          </a>
          <a xlink:href="https://www.notion.so/dmmnotes/comfortably-balanced-e76dc615a8b947aa915377cd02fcf716?pvs=4">
            <path id="B3-2" data-name="B3" d="M299.999999999989086,80c10.634765625,0,21.078857421880457.797607421870453,31.308105468760914,2.253173828120453l7.825683593739086-54.433349609361358c-12.788574218728172-1.823486328138642-25.843017578119543-2.819824218759095-39.1337890625-2.819824218759095-13.290771484358629,0-26.34521484375.996337890620453-39.133789062478172,2.819824218759095l7.825683593728172,54.433349609361358c10.23193359375-1.45556640625,20.67333984375-2.253173828120453,31.30810546875-2.253173828120453Z" fill="#8f807d" stroke="#181818" stroke-linecap="round" stroke-linejoin="round" stroke-width="2"/>
          </a>
          <a xlink:href="https://www.notion.so/dmmnotes/accepting-317d81273fff4cd9817cdf4a88efd378?pvs=4">
            <path id="B2-2" data-name="B2" d="M268.691894531239086,82.253173828120453l-7.825683593728172-54.433349609361358c-26.439208984391371,3.767822265600444-51.643066406271828,11.311523437490905-75.098632812521828,22.042968749990905l22.83251953125,49.99951171875c18.7666015625-8.574951171890461,38.93505859375-14.601318359379547,60.091796875-17.609130859379547Z" fill="#8f807d" stroke="#181818" stroke-linecap="round" stroke-linejoin="round" stroke-width="2"/>
          </a>
          <a xlink:href="https://www.notion.so/dmmnotes/distanced-from-past-2eabab7e9c77429f8e577f4e3e203653?pvs=4">
            <path id="B1-2" data-name="B1" d="M208.600097656239086,99.8623046875l-22.83251953125-49.99951171875c-23.99267578125,10.97314453125-46.1162109375,25.287109375-65.803955078108629,42.36181640625l35.972900390608629,41.515869140620453c15.75341796875-13.658691406260914,33.4619140625-25.1044921875,52.66357421875-33.878173828120453Z" fill="#8f807d" stroke="#181818" stroke-linecap="round" stroke-linejoin="round" stroke-width="2"/>
          </a>
          <a xlink:href="https://www.notion.so/dmmnotes/idealising-a52277f51ed14a42aae78081bb34b8be?pvs=4">
            <path id="A1-2" data-name="A1" d="M155.936523437489086,133.740478515620453l-35.972900390608629-41.515869140620453c-19.765625,17.141845703109539-37.049804687510914,37.041748046870453-51.269775390641371,59.122314453120453l46.226318359380457,29.70751953125c11.373291015641371-17.673583984370453,25.201171875010914-33.598876953132276,41.016357421869543-47.31396484375Z" fill="#8f807d" stroke="#181818" stroke-linecap="round" stroke-linejoin="round" stroke-width="2"/>
          </a>
          <a xlink:href="https://www.notion.so/dmmnotes/distancing-9ac690cdca654729a17a5a255944e2d1?pvs=4">
            <path id="A2-2" data-name="A2" d="M114.920166015619543,181.054443359370453l-46.226318359380457-29.70751953125c-14.04541015625,21.81201171875-25.08837890625,45.721435546867724-32.551513671869543,71.177734374989086l52.754882812510914,15.490234375c5.964599609358629-20.375244140621362,14.7919921875-39.509765624989086,26.022949218739086-56.960449218739086Z" fill="#8f807d" stroke="#181818" stroke-linecap="round" stroke-linejoin="round" stroke-width="2"/>
          </a>
          <a xlink:href="https://www.notion.so/dmmnotes/compulsive-caregiving-9c380c0928294f41ae10764aa0dee886?pvs=4">
            <path id="A3-2" data-name="A3" d="M88.897216796880457,238.014892578109539l-52.754882812510914-15.490234375c-7.205322265630457,24.580810546878638-11.142333984380457,50.5634765625-11.142333984380457,77.475341796890461h55c0-21.535400390629547,3.14208984375-42.321533203129547,8.897216796891371-61.985107421890461Z" fill="#8f807d" stroke="#181818" stroke-linecap="round" stroke-linejoin="round" stroke-width="2"/>
          </a>
          <a xlink:href="https://www.notion.so/dmmnotes/compulsive-compliance-6d08b7ea9a424ce1a72b9184b7850414?pvs=4">
            <path id="A4-2" data-name="A4" d="M79.999999999989086,300H24.999999999989086c0,26.911865234369543,3.93701171875,52.894531249987267,11.142333984380457,77.475341796869543l52.754882812510914-15.490234375c-5.755126953141371-19.66357421875-8.897216796891371-40.447021484371362-8.897216796891371-61.985107421869543Z" fill="#8f807d" stroke="#181818" stroke-linecap="round" stroke-linejoin="round" stroke-width="2"/>
          </a>
          <a xlink:href="https://www.notion.so/dmmnotes/sexual-supplementation-8e85f49046ef412aa229745abf7d38d3?pvs=4">
            <path id="A5-2" data-name="A5" d="M88.897216796880457,361.985107421869543l-52.754882812510914,15.490234375c7.463134765619543,25.456298828128638,18.506103515619543,49.36572265625,32.551513671869543,71.175048828128638l46.223632812521828-29.704833984367724c-11.230957031271828-17.450683593760914-20.055664062521828-36.58251953125-26.020263671880457-56.960449218760914Z" fill="#8f807d" stroke="#181818" stroke-linecap="round" stroke-linejoin="round" stroke-width="2"/>
          </a>
          <a xlink:href="https://www.notion.so/dmmnotes/compulsive-isolated-self-reliance-b321873a73fa41aaaadd7192fde856a2?pvs=4">
            <path id="A6-2" data-name="A6" d="M114.917480468760914,418.945556640630457l-46.223632812521828,29.704833984367724c14.219970703130457,22.083251953121362,31.504150390641371,41.983154296871362,51.269775390641371,59.125l35.972900390608629-41.515869140617724c-15.815185546858629-13.712402343760914-29.643066406228172-29.637695312510914-41.019042968728172-47.31396484375Z" fill="#8f807d" stroke="#181818" stroke-linecap="round" stroke-linejoin="round" stroke-width="2"/>
          </a>
          <a xlink:href="https://www.notion.so/dmmnotes/delusional-idealization-743e2420b9994a48a7cab68190432e8a?pvs=4">
            <path id="A7-2" data-name="A7" d="M155.936523437489086,466.259521484380457l-35.972900390608629,41.515869140617724c19.687744140608629,17.074707031239086,41.811279296858629,31.385986328132276,65.803955078108629,42.36181640625l22.83251953125-49.996826171878638c-19.20166015625-8.773681640621362-36.91015625-20.222167968739086-52.66357421875-33.880859374989086Z" fill="#8f807d" stroke="#181818" stroke-linecap="round" stroke-linejoin="round" stroke-width="2"/>
          </a>
          <a xlink:href="https://www.notion.so/dmmnotes/externally-assembled-self-994ecb0895b844409b931d74a045c162?pvs=4">
            <path id="A8-2" data-name="A8" d="M208.600097656239086,500.140380859369543l-22.83251953125,49.996826171878638c23.45556640625,10.7314453125,48.659423828130457,18.275146484371362,75.098632812521828,22.04296875l7.825683593728172-54.4306640625c-21.15673828125-3.0078125-41.3251953125-9.0341796875-60.091796875-17.609130859378638Z" fill="#8f807d" stroke="#181818" stroke-linecap="round" stroke-linejoin="round" stroke-width="2"/>
          </a>
          <a xlink:href="https://www.notion.so/dmmnotes/psychopathy-0fe4a3222d9f4fd097ab4546c9776768?pvs=4">
            <path id="AC-2" data-name="AC" d="M299.999999999989086,519.999999999998181c-10.634765625,0-21.076171875-.794921875-31.30810546875-2.25048828125l-7.825683593728172,54.4306640625c12.788574218728172,1.823486328132276,25.843017578119543,2.81982421875,39.133789062478172,2.81982421875,13.290771484380457,0,26.345214843771828-.996337890617724,39.1337890625-2.81982421875l-7.825683593739086-54.4306640625c-10.229248046880457,1.45556640625-20.673339843760914,2.25048828125-31.308105468760914,2.25048828125Z" fill="#8f807d" stroke="#181818" stroke-linecap="round" stroke-linejoin="round" stroke-width="2"/>
          </a>
          <a xlink:href="https://www.notion.so/dmmnotes/feigned-helpless-e79a94b0498c4e109a681b7f3dcdb088?pvs=4">
            <g id="C4-2" data-name="C4">
              <path d="M563.857421875,378.475585937494543c-.0947265625,0-.189453125-.013671875-.2822265625-.0400390625l-52.75390625-15.490234375c-.5302734375-.15625-.833984375-.7109375-.6787109375-1.2412109375,5.876953125-20.08203125,8.857421875-40.841796875,8.857421875-61.7041015625,0-.55224609375.447265625-1,1-1h55c.552734375,0,1,.44775390625,1,1,0,26.287109375-3.7626953125,52.4482421875-11.1826171875,77.7568359375-.0751953125.2548828125-.248046875.46875-.48046875.5966796875-.1484375.0810546875-.3134765625.1220703125-.4794921875.1220703125Z" fill="#999555" stroke-width="0"/>
              <path d="M575,299.999999999994543h.0048828125M575,299.999999999994543c0,26.911865234375-3.934326171875,52.891845703125-11.142333984375,77.475341796875l-52.7548828125-15.490234375c5.755126953125-19.66357421875,8.897216796875-40.447021484375,8.897216796875-61.985107421875h55M575.0048828125,297.999999999994543h-55.0048828125c-1.1044921875,0-2,.895416259765625-2,2,0,20.7686767578125-2.96630859375,41.434478759765625-8.816650390625,61.42333984375-.31005859375,1.059417724609375.296875,2.169769287109375,1.35595703125,2.48077392578125l52.7548828125,15.490203857421875c.1845703125.054229736328125.37451171875.081024169921875.5634765625.081024169921875.33203125,0,.662109375-.08270263671875.958740234375-.244842529296875.4658203125-.25433349609375.811279296875-.68328857421875.96044921875-1.19244384765625,7.4375-25.366485595703125,11.21337890625-51.587860107421875,11.22314453125-77.93695068359375.001708984375-.033477783203125.00244140625-.06719970703125.00244140625-.101104736328125,0-1.104583740234375-.892822265625-2-1.99755859375-2h0ZM575,301.999999999994543h.0048828125-.0048828125Z" fill="#181818" stroke-width="0"/>
            </g>
          </a>
        </g>
      </g>
      <a xlink:href="https://www.notion.so/dmmnotes/C4-e79a94b0498c4e109a681b7f3dcdb088?pvs=4#0d316056d3b34c31a30288010404af14">
        <g id="C4-3" data-name="C4">
          <g id="C4-4" data-name="C4">
            <path d="M290.0966796875,414.706054687494543c-36.970703125,0-67.048828125-30.078125-67.048828125-67.048828125s30.078125-67.04833984375,67.048828125-67.04833984375c17.9091796875-.00048828125,34.74609375,6.9736328125,47.41015625,19.6376953125,12.6640625,12.66357421875,19.638671875,29.50146484375,19.638671875,47.41064453125,0,36.970703125-30.078125,67.048828125-67.048828125,67.048828125Z" fill="url(#C4-5)" stroke-width="0"/>
            <path d="M290.096435546875,289.108673095697668c32.332763671875,0,58.548828125,26.21502685546875,58.548828125,58.548614501953125,0,32.3355712890625-26.213134765625,58.54876708984375-58.548828125,58.548828125-32.33544921875,0-58.548583984375-26.213104248046875-58.548583984375-58.54864501953125-.000244140625-32.3355712890625,26.212890625-58.548797607421875,58.548583984375-58.548797607421875.001953125,0-.001953125,0,0,0M290.096435546875,272.108673095697668c-20.1796875,0-39.15185546875,7.85845947265625-53.421142578125,22.127716064453125-14.269287109375,14.26934814453125-22.127685546875,33.241363525390625-22.12744140625,53.421173095703125,0,41.657562255859375,33.890869140625,75.548553466796875,75.548583984375,75.548553466796875,41.65771484375-.00006103515625,75.548828125-33.89111328125,75.548828125-75.548828125,0-41.65765380859375-33.89111328125-75.548614501953125-75.548828125-75.548614501953125h0Z" fill="#181818" stroke-width="0"/>
          </g>
          <a xlink:href="https://www.notion.so/dmmnotes/C4-e79a94b0498c4e109a681b7f3dcdb088?pvs=4#0d316056d3b34c31a30288010404af14">
            <g>
              <g>
                <path d="M272.998046875,243.247070312494543c.1025390625-3.0341796875-.392578125-5.310546875-1.4921875-6.8291015625-1.0986328125-1.5166015625-2.4873046875-2.4580078125-4.16015625-2.826171875-1.67578125-.365234375-3.48046875-.181640625-5.416015625.5498046875-1.9384765625.7333984375-3.689453125,1.7802734375-5.259765625,3.1396484375-3.6650390625,3.1396484375-6.62109375,7.1435546875-8.87109375,12.0107421875-2.251953125,4.8662109375-3.767578125,9.96875-4.552734375,15.3076171875-.78515625,5.337890625-.8388671875,10.6513671875-.15625,15.935546875.6787109375,5.2861328125,2.169921875,9.8662109375,4.474609375,13.7373046875,1.4638671875,2.51171875,3.2177734375,4.37109375,5.2587890625,5.5732421875,2.041015625,1.2041015625,4.2119140625,1.8837890625,6.515625,2.041015625,2.30078125.1572265625,4.5771484375-.208984375,6.8291015625-1.0986328125,2.25-.888671875,4.263671875-2.22265625,6.044921875-4.00390625,2.720703125-2.720703125,4.91796875-4.65625,6.59375-5.80859375,1.673828125-1.1513671875,3.556640625-1.779296875,5.65234375-1.884765625,5.9658203125,0,9.916015625,1.67578125,11.853515625,5.0244140625,1.935546875,3.3505859375,2.0654296875,7.4326171875.392578125,12.24609375-1.361328125,3.767578125-3.4296875,7.064453125-6.201171875,9.890625-2.775390625,2.826171875-5.994140625,5.1025390625-9.65625,6.830078125-3.6650390625,1.7265625-7.58984375,2.9306640625-11.775390625,3.6103515625-4.1875.6796875-8.3203125.8642578125-12.40234375.5498046875s-7.955078125-1.177734375-11.6181640625-2.5908203125c-3.6650390625-1.4130859375-6.8056640625-3.3212890625-9.419921875-5.73046875-2.931640625-2.720703125-5.4951171875-5.8330078125-7.6923828125-9.3408203125-2.19921875-3.505859375-4.03125-7.22265625-5.49609375-11.1474609375-1.466796875-3.9248046875-2.5654296875-8.0068359375-3.296875-12.24609375-.7333984375-4.2392578125-1.0986328125-8.501953125-1.0986328125-12.794921875.2080078125-9.62890625,2.2490234375-18.943359375,6.123046875-27.9462890625,3.87109375-9.0009765625,9.0009765625-16.8505859375,15.3857421875-23.5498046875,2.9296875-3.03515625,6.41015625-5.625,10.4404296875-7.771484375,4.0283203125-2.14453125,8.1640625-3.533203125,12.4033203125-4.1611328125,4.23828125-.6279296875,8.3994140625-.4169921875,12.4814453125.6279296875,4.08203125,1.0478515625,7.6923828125,3.24609375,10.8330078125,6.5947265625,2.40625,2.51171875,4.341796875,5.3916015625,5.80859375,8.634765625,1.46484375,3.2451171875,2.564453125,6.4912109375,3.296875,9.7333984375.41796875,2.095703125.6015625,4.08203125.5498046875,5.966796875-.0537109375,1.8837890625-.498046875,3.6650390625-1.3349609375,5.337890625-1.15234375,2.0947265625-2.9306640625,3.5859375-5.337890625,4.474609375-2.408203125.890625-4.7880859375,1.1767578125-7.142578125.86328125-2.35546875-.314453125-4.396484375-1.2294921875-6.123046875-2.748046875-1.7275390625-1.515625-2.5390625-3.583984375-2.43359375-6.201171875Z" fill="none" stroke="#181818" stroke-linecap="round" stroke-linejoin="round" stroke-width="33"/>
                <path d="M379.755859375,320.805664062494543c-.2109375,1.15234375-.5771484375,2.251953125-1.099609375,3.296875-.525390625.8388671875-1.310546875,1.6240234375-2.35546875,2.3544921875-1.046875.7333984375-2.4599609375,1.2021484375-4.23828125,1.4130859375-1.78125.208984375-3.638671875.3388671875-5.57421875.392578125-1.9375.0517578125-3.7421875-.1328125-5.416015625-.5498046875-1.67578125-.4189453125-3.140625-1.1767578125-4.396484375-2.2763671875-1.255859375-1.0986328125-2.041015625-2.7470703125-2.3544921875-4.9453125-.2109375-1.150390625-.3134765625-3.505859375-.3134765625-7.0654296875,0-3.556640625.05078125-7.9521484375.15625-13.1875-7.2216796875,0-14.470703125-.1298828125-21.744140625-.392578125-7.275390625-.259765625-14.6796875-.4951171875-22.2158203125-.7060546875-.3134765625.10546875-.681640625,0-1.0986328125-.314453125-.314453125-.208984375-.6279296875-.6796875-.94140625-1.4130859375-.314453125-.73046875-.5771484375-1.830078125-.78515625-3.296875-.10546875-.7314453125-.263671875-1.908203125-.4716796875-3.5322265625-.2109375-1.6220703125-.392578125-3.3486328125-.5498046875-5.181640625-.15625-1.830078125-.234375-3.556640625-.234375-5.1806640625,0-1.62109375.259765625-2.8505859375.7841796875-3.689453125.4169921875-.7314453125,1.46484375-2.013671875,3.1396484375-3.8466796875,1.673828125-1.830078125,3.71484375-4.1064453125,6.123046875-6.8291015625,6.0693359375-6.5947265625,12.03515625-13.345703125,17.8984375-20.2529296875,5.8603515625-6.908203125,11.669921875-14.287109375,17.4267578125-22.1376953125,1.0458984375-1.4638671875,2.0146484375-2.58984375,2.9052734375-3.375.8876953125-.78515625,2.484375-1.2802734375,4.7880859375-1.4912109375,2.1982421875-.208984375,4.9453125-.4443359375,8.2421875-.70703125,3.2978515625-.259765625,6.0966796875-.078125,8.3994140625.5498046875.5234375.3134765625,1.021484375.7060546875,1.4921875,1.177734375.470703125.470703125.7578125,1.07421875.86328125,1.8046875.4169921875,2.6181640625.65234375,5.078125.7060546875,7.37890625.0517578125,2.3037109375.1298828125,4.501953125.2353515625,6.5947265625l.62890625,85.408203125ZM341.6044921875,274.960937499994543c2.1982421875-.1025390625,4.3955078125-.181640625,6.59375-.2353515625,2.1982421875-.0517578125,4.3955078125-.078125,6.5947265625-.078125,0-2.826171875.05078125-5.65234375.15625-8.478515625.103515625-2.826171875.259765625-5.7548828125.470703125-8.7919921875-2.197265625,3.037109375-4.44921875,5.9931640625-6.75,8.87109375-2.3046875,2.8798828125-4.6591796875,5.7841796875-7.0654296875,8.712890625Z" fill="none" stroke="#181818" stroke-linecap="round" stroke-linejoin="round" stroke-width="33"/>
              </g>
              <g>
                <path d="M272.998046875,243.247070312494543c.1025390625-3.0341796875-.392578125-5.310546875-1.4921875-6.8291015625-1.0986328125-1.5166015625-2.4873046875-2.4580078125-4.16015625-2.826171875-1.67578125-.365234375-3.48046875-.181640625-5.416015625.5498046875-1.9384765625.7333984375-3.689453125,1.7802734375-5.259765625,3.1396484375-3.6650390625,3.1396484375-6.62109375,7.1435546875-8.87109375,12.0107421875-2.251953125,4.8662109375-3.767578125,9.96875-4.552734375,15.3076171875-.78515625,5.337890625-.8388671875,10.6513671875-.15625,15.935546875.6787109375,5.2861328125,2.169921875,9.8662109375,4.474609375,13.7373046875,1.4638671875,2.51171875,3.2177734375,4.37109375,5.2587890625,5.5732421875,2.041015625,1.2041015625,4.2119140625,1.8837890625,6.515625,2.041015625,2.30078125.1572265625,4.5771484375-.208984375,6.8291015625-1.0986328125,2.25-.888671875,4.263671875-2.22265625,6.044921875-4.00390625,2.720703125-2.720703125,4.91796875-4.65625,6.59375-5.80859375,1.673828125-1.1513671875,3.556640625-1.779296875,5.65234375-1.884765625,5.9658203125,0,9.916015625,1.67578125,11.853515625,5.0244140625,1.935546875,3.3505859375,2.0654296875,7.4326171875.392578125,12.24609375-1.361328125,3.767578125-3.4296875,7.064453125-6.201171875,9.890625-2.775390625,2.826171875-5.994140625,5.1025390625-9.65625,6.830078125-3.6650390625,1.7265625-7.58984375,2.9306640625-11.775390625,3.6103515625-4.1875.6796875-8.3203125.8642578125-12.40234375.5498046875s-7.955078125-1.177734375-11.6181640625-2.5908203125c-3.6650390625-1.4130859375-6.8056640625-3.3212890625-9.419921875-5.73046875-2.931640625-2.720703125-5.4951171875-5.8330078125-7.6923828125-9.3408203125-2.19921875-3.505859375-4.03125-7.22265625-5.49609375-11.1474609375-1.466796875-3.9248046875-2.5654296875-8.0068359375-3.296875-12.24609375-.7333984375-4.2392578125-1.0986328125-8.501953125-1.0986328125-12.794921875.2080078125-9.62890625,2.2490234375-18.943359375,6.123046875-27.9462890625,3.87109375-9.0009765625,9.0009765625-16.8505859375,15.3857421875-23.5498046875,2.9296875-3.03515625,6.41015625-5.625,10.4404296875-7.771484375,4.0283203125-2.14453125,8.1640625-3.533203125,12.4033203125-4.1611328125,4.23828125-.6279296875,8.3994140625-.4169921875,12.4814453125.6279296875,4.08203125,1.0478515625,7.6923828125,3.24609375,10.8330078125,6.5947265625,2.40625,2.51171875,4.341796875,5.3916015625,5.80859375,8.634765625,1.46484375,3.2451171875,2.564453125,6.4912109375,3.296875,9.7333984375.41796875,2.095703125.6015625,4.08203125.5498046875,5.966796875-.0537109375,1.8837890625-.498046875,3.6650390625-1.3349609375,5.337890625-1.15234375,2.0947265625-2.9306640625,3.5859375-5.337890625,4.474609375-2.408203125.890625-4.7880859375,1.1767578125-7.142578125.86328125-2.35546875-.314453125-4.396484375-1.2294921875-6.123046875-2.748046875-1.7275390625-1.515625-2.5390625-3.583984375-2.43359375-6.201171875Z" fill="#fff" stroke-width="0"/>
                <path d="M379.755859375,320.805664062494543c-.2109375,1.15234375-.5771484375,2.251953125-1.099609375,3.296875-.525390625.8388671875-1.310546875,1.6240234375-2.35546875,2.3544921875-1.046875.7333984375-2.4599609375,1.2021484375-4.23828125,1.4130859375-1.78125.208984375-3.638671875.3388671875-5.57421875.392578125-1.9375.0517578125-3.7421875-.1328125-5.416015625-.5498046875-1.67578125-.4189453125-3.140625-1.1767578125-4.396484375-2.2763671875-1.255859375-1.0986328125-2.041015625-2.7470703125-2.3544921875-4.9453125-.2109375-1.150390625-.3134765625-3.505859375-.3134765625-7.0654296875,0-3.556640625.05078125-7.9521484375.15625-13.1875-7.2216796875,0-14.470703125-.1298828125-21.744140625-.392578125-7.275390625-.259765625-14.6796875-.4951171875-22.2158203125-.7060546875-.3134765625.10546875-.681640625,0-1.0986328125-.314453125-.314453125-.208984375-.6279296875-.6796875-.94140625-1.4130859375-.314453125-.73046875-.5771484375-1.830078125-.78515625-3.296875-.10546875-.7314453125-.263671875-1.908203125-.4716796875-3.5322265625-.2109375-1.6220703125-.392578125-3.3486328125-.5498046875-5.181640625-.15625-1.830078125-.234375-3.556640625-.234375-5.1806640625,0-1.62109375.259765625-2.8505859375.7841796875-3.689453125.4169921875-.7314453125,1.46484375-2.013671875,3.1396484375-3.8466796875,1.673828125-1.830078125,3.71484375-4.1064453125,6.123046875-6.8291015625,6.0693359375-6.5947265625,12.03515625-13.345703125,17.8984375-20.2529296875,5.8603515625-6.908203125,11.669921875-14.287109375,17.4267578125-22.1376953125,1.0458984375-1.4638671875,2.0146484375-2.58984375,2.9052734375-3.375.8876953125-.78515625,2.484375-1.2802734375,4.7880859375-1.4912109375,2.1982421875-.208984375,4.9453125-.4443359375,8.2421875-.70703125,3.2978515625-.259765625,6.0966796875-.078125,8.3994140625.5498046875.5234375.3134765625,1.021484375.7060546875,1.4921875,1.177734375.470703125.470703125.7578125,1.07421875.86328125,1.8046875.4169921875,2.6181640625.65234375,5.078125.7060546875,7.37890625.0517578125,2.3037109375.1298828125,4.501953125.2353515625,6.5947265625l.62890625,85.408203125ZM341.6044921875,274.960937499994543c2.1982421875-.1025390625,4.3955078125-.181640625,6.59375-.2353515625,2.1982421875-.0517578125,4.3955078125-.078125,6.5947265625-.078125,0-2.826171875.05078125-5.65234375.15625-8.478515625.103515625-2.826171875.259765625-5.7548828125.470703125-8.7919921875-2.197265625,3.037109375-4.44921875,5.9931640625-6.75,8.87109375-2.3046875,2.8798828125-4.6591796875,5.7841796875-7.0654296875,8.712890625Z" fill="#fff" stroke-width="0"/>
              </g>
            </g>
          </a>
        </g>
      </a>
    </g>
  </g>
</svg>