<?xml version="1.0" encoding="UTF-8"?>
<svg id="Layer_1" data-name="Layer 1" xmlns="http://www.w3.org/2000/svg" xmlns:xlink="http://www.w3.org/1999/xlink" viewBox="0 0 600 599.999999999998181">
  <defs>
    <linearGradient id="A7-5" data-name="A7" x1="259.88099709207836" y1="415.391259505764538" x2="343.420189405501333" y2="274.333279042138429" gradientUnits="userSpaceOnUse">
      <stop offset="0" stop-color="#b6608e"/>
      <stop offset=".5" stop-color="#c96282"/>
      <stop offset="1" stop-color="#dc6476"/>
    </linearGradient>
  </defs>
  <g id="pie_with_links_-5" data-name="pie (with links)">
    <g id="pie_with_links_-6" data-name="pie (with links)">
      <g id="Pie">
        <g>
          <a xlink:href="https://www.notion.so/dmmnotes/paranoid-ae38b1e6af0c4dd08f61e0d8f6e9f05f?pvs=4">
            <path id="C8" d="M331.308105468760004,517.749511718748181l7.825683593739996,54.4306640625c26.439208984370453-3.767822265628638,51.645751953139552-11.3115234375,75.101318359370453-22.04296875l-22.832519531240905-49.996826171878638c-18.7666015625,8.572265625-38.93505859375,14.601318359378638-60.094482421869543,17.609130859378638Z" fill="none" stroke="#181818" stroke-linecap="round" stroke-linejoin="round" stroke-width="15"/>
          </a>
          <a xlink:href="https://www.notion.so/dmmnotes/menacing-a5bd7149286344deba45ec15e759e579?pvs=4">
            <path id="C7" d="M391.402587890629547,500.140380859369543l22.832519531240905,49.996826171878638c23.989990234389552-10.975830078117724,46.116210937519099-25.287109375010914,65.803955078139552-42.36181640625l-35.972900390630457-41.515869140617724c-15.753417968759095,13.65869140625-33.459228515629547,25.104492187489086-52.66357421875,33.880859374989086Z" fill="none" stroke="#181818" stroke-linecap="round" stroke-linejoin="round" stroke-width="15"/>
          </a>
          <a xlink:href="https://www.notion.so/dmmnotes/seductively-obsessed-with-rescue-6fb5a68f6d334bc29ccccc16d8a4e56e?pvs=4">
            <path id="C6" d="M444.066162109379547,466.259521484380457l35.972900390630457,41.515869140617724c19.762939453119543-17.141845703128638,37.047119140619543-37.041748046878638,51.26708984375-59.125l-46.223632812510004-29.704833984367724c-11.373291015620453,17.673583984367724-25.201171874989996,33.598876953117724-41.016357421870453,47.31396484375Z" fill="none" stroke="#181818" stroke-linecap="round" stroke-linejoin="round" stroke-width="15"/>
          </a>
          <a xlink:href="https://www.notion.so/dmmnotes/punitively-obsessed-with-revenge-33d2e77f37774316b42bccf4a60f9688?pvs=4">
            <path id="C5" d="M485.08251953125,418.945556640630457l46.223632812510004,29.704833984367724c14.048095703129547-21.809326171878638,25.08837890625-45.71875,32.551513671869543-71.175048828128638l-52.7548828125-15.490234375c-5.9619140625,20.377929687510914-14.789306640619543,39.509765625-26.020263671879547,56.960449218760914Z" fill="none" stroke="#181818" stroke-linecap="round" stroke-linejoin="round" stroke-width="15"/>
          </a>
          <a xlink:href="https://www.notion.so/dmmnotes/feigned-helpless-e79a94b0498c4e109a681b7f3dcdb088?pvs=4">
            <path id="C4" d="M520,300c0,21.538085937498181-3.142089843739996,42.321533203119543-8.897216796870453,61.985107421869543l52.7548828125,15.490234375c7.2080078125-24.583496093739086,11.142333984370453-50.5634765625,11.142333984370453-77.475341796869543h-55Z" fill="none" stroke="#181818" stroke-linecap="round" stroke-linejoin="round" stroke-width="15"/>
          </a>
          <a xlink:href="https://www.notion.so/dmmnotes/aggressive-2d8ccce383534b9dbfc7b4b10b8a5d5c?pvs=4">
            <path id="C3" d="M520,300h55c0-26.911865234390461-3.934326171870453-52.894531250011823-11.142333984370453-77.475341796890461l-52.7548828125,15.490234375c5.755126953130457,19.663574218760914,8.897216796870453,40.449707031260914,8.897216796870453,61.985107421890461Z" fill="none" stroke="#181818" stroke-linecap="round" stroke-linejoin="round" stroke-width="15"/>
          </a>
          <a xlink:href="https://www.notion.so/dmmnotes/disarming-086276e599884c86b9359acf831a8b20?pvs=4">
            <path id="C2" d="M511.102783203129547,238.014892578109539l52.7548828125-15.490234375c-7.463134765619543-25.456298828121362-18.503417968739996-49.365722656239086-32.551513671869543-71.177734374989086l-46.223632812510004,29.70751953125c11.230957031260004,17.45068359375,20.055664062510004,36.585205078117724,26.020263671879547,56.960449218739086Z" fill="none" stroke="#181818" stroke-linecap="round" stroke-linejoin="round" stroke-width="15"/>
          </a>
          <a xlink:href="https://www.notion.so/dmmnotes/threatening-348fe6a52f7a4fe69f768e98c6586932?pvs=4">
            <path id="C1" d="M485.08251953125,181.054443359370453l46.223632812510004-29.70751953125c-14.219970703130457-22.08056640625-31.504150390630457-41.980468750010914-51.26708984375-59.122314453120453l-35.972900390630457,41.518554687488177c15.815185546880457,13.71240234375,29.64306640625,29.637695312511823,41.016357421870453,47.311279296882276Z" fill="none" stroke="#181818" stroke-linecap="round" stroke-linejoin="round" stroke-width="15"/>
          </a>
          <a xlink:href="https://www.notion.so/dmmnotes/complaining-acceptance-8b40401a720c493ba73f7cde1567cf3d?pvs=4">
            <path id="B5" d="M444.066162109379547,133.743164062488177l35.972900390630457-41.518554687488177c-19.687744140620453-17.07470703125-41.81396484375-31.388671875-65.803955078139552-42.36181640625l-22.832519531240905,49.99951171875c19.204345703120453,8.773681640620453,36.910156249990905,20.22216796875,52.66357421875,33.880859374988177Z" fill="none" stroke="#181818" stroke-linecap="round" stroke-linejoin="round" stroke-width="15"/>
          </a>
          <a xlink:href="https://www.notion.so/dmmnotes/sentimental-bc554363322342b1b7ca4ccc02125049?pvs=4">
            <path id="B4" d="M391.402587890629547,99.8623046875l22.832519531240905-49.99951171875c-23.455566406230901-10.7314453125-48.662109375-18.275146484390461-75.101318359370453-22.042968749990905l-7.825683593739996,54.433349609361358c21.159423828119543,3.0078125,41.327880859369543,9.034179687489086,60.094482421869543,17.609130859379547Z" fill="none" stroke="#181818" stroke-linecap="round" stroke-linejoin="round" stroke-width="15"/>
          </a>
          <a xlink:href="https://www.notion.so/dmmnotes/comfortably-balanced-e76dc615a8b947aa915377cd02fcf716?pvs=4">
            <path id="B3" d="M300,80c10.634765625,0,21.078857421870453.797607421870453,31.308105468760004,2.253173828120453l7.825683593739996-54.433349609361358c-12.788574218739996-1.823486328138642-25.843017578129547-2.819824218759095-39.1337890625-2.819824218759095s-26.34521484375.996337890620453-39.133789062489996,2.819824218759095l7.825683593739996,54.433349609361358c10.23193359375-1.45556640625,20.67333984375-2.253173828120453,31.30810546875-2.253173828120453Z" fill="none" stroke="#181818" stroke-linecap="round" stroke-linejoin="round" stroke-width="15"/>
          </a>
          <a xlink:href="https://www.notion.so/dmmnotes/accepting-317d81273fff4cd9817cdf4a88efd378?pvs=4">
            <path id="B2" d="M268.69189453125,82.253173828120453l-7.825683593739996-54.433349609361358c-26.439208984389552,3.767822265600444-51.643066406260004,11.311523437490905-75.098632812510004,22.042968749990905l22.83251953125,49.99951171875c18.7666015625-8.574951171890461,38.93505859375-14.601318359379547,60.091796875-17.609130859379547Z" fill="none" stroke="#181818" stroke-linecap="round" stroke-linejoin="round" stroke-width="15"/>
          </a>
          <a xlink:href="https://www.notion.so/dmmnotes/distanced-from-past-2eabab7e9c77429f8e577f4e3e203653?pvs=4">
            <path id="B1" d="M208.60009765625,99.8623046875l-22.83251953125-49.99951171875c-23.99267578125,10.97314453125-46.1162109375,25.287109375-65.803955078120453,42.36181640625l35.972900390620453,41.515869140620453c15.75341796875-13.658691406260914,33.4619140625-25.1044921875,52.66357421875-33.878173828120453Z" fill="none" stroke="#181818" stroke-linecap="round" stroke-linejoin="round" stroke-width="15"/>
          </a>
          <a xlink:href="https://www.notion.so/dmmnotes/idealising-a52277f51ed14a42aae78081bb34b8be?pvs=4">
            <path id="A1" d="M155.9365234375,133.740478515620453l-35.972900390620453-41.515869140620453c-19.765625,17.141845703109539-37.049804687509095,37.041748046870453-51.269775390629547,59.122314453120453l46.226318359370453,29.70751953125c11.373291015639552-17.673583984370453,25.201171875009095-33.598876953132276,41.016357421879547-47.31396484375Z" fill="none" stroke="#181818" stroke-linecap="round" stroke-linejoin="round" stroke-width="15"/>
          </a>
          <a xlink:href="https://www.notion.so/dmmnotes/distancing-9ac690cdca654729a17a5a255944e2d1?pvs=4">
            <path id="A2" d="M114.920166015620453,181.054443359370453l-46.226318359370453-29.70751953125c-14.04541015625,21.81201171875-25.08837890625,45.721435546867724-32.551513671879547,71.177734374989086l52.754882812509095,15.490234375c5.964599609370453-20.375244140621362,14.7919921875-39.509765624989086,26.022949218740905-56.960449218739086Z" fill="none" stroke="#181818" stroke-linecap="round" stroke-linejoin="round" stroke-width="15"/>
          </a>
          <a xlink:href="https://www.notion.so/dmmnotes/compulsive-caregiving-9c380c0928294f41ae10764aa0dee886?pvs=4">
            <path id="A3" d="M88.897216796879547,238.014892578109539l-52.754882812509095-15.490234375c-7.205322265620453,24.580810546878638-11.142333984370453,50.5634765625-11.142333984370453,77.475341796890461h55c0-21.535400390629547,3.14208984375-42.321533203129547,8.897216796879547-61.985107421890461Z" fill="none" stroke="#181818" stroke-linecap="round" stroke-linejoin="round" stroke-width="15"/>
          </a>
          <a xlink:href="https://www.notion.so/dmmnotes/compulsive-compliance-6d08b7ea9a424ce1a72b9184b7850414?pvs=4">
            <path id="A4" d="M80,300H25c0,26.911865234369543,3.93701171875,52.894531249987267,11.142333984370453,77.475341796869543l52.754882812509095-15.490234375c-5.755126953129547-19.66357421875-8.897216796879547-40.447021484371362-8.897216796879547-61.985107421869543Z" fill="none" stroke="#181818" stroke-linecap="round" stroke-linejoin="round" stroke-width="15"/>
          </a>
          <a xlink:href="https://www.notion.so/dmmnotes/sexual-supplementation-8e85f49046ef412aa229745abf7d38d3?pvs=4">
            <path id="A5" d="M88.897216796879547,361.985107421869543l-52.754882812509095,15.490234375c7.463134765629547,25.456298828128638,18.506103515629547,49.36572265625,32.551513671879547,71.175048828128638l46.223632812510004-29.704833984367724c-11.230957031260004-17.450683593760914-20.055664062510004-36.58251953125-26.020263671880457-56.960449218760914Z" fill="none" stroke="#181818" stroke-linecap="round" stroke-linejoin="round" stroke-width="15"/>
          </a>
          <a xlink:href="https://www.notion.so/dmmnotes/compulsive-isolated-self-reliance-b321873a73fa41aaaadd7192fde856a2?pvs=4">
            <path id="A6" d="M114.917480468760004,418.945556640630457l-46.223632812510004,29.704833984367724c14.219970703120453,22.083251953121362,31.504150390629547,41.983154296871362,51.269775390629547,59.125l35.972900390620453-41.515869140617724c-15.815185546870453-13.712402343760914-29.643066406239996-29.637695312510914-41.019042968739996-47.31396484375Z" fill="none" stroke="#181818" stroke-linecap="round" stroke-linejoin="round" stroke-width="15"/>
          </a>
          <a xlink:href="https://www.notion.so/dmmnotes/delusional-idealization-743e2420b9994a48a7cab68190432e8a?pvs=4">
            <g id="A7">
              <path d="M185.767578125,551.137695312494543c-.1422119140625,0-.2841796875-.0302734375-.416015625-.0908203125-23.9017333984375-10.9345703125-46.1219482421875-25.2392578125-66.0430908203125-42.515625-.4171142578125-.3623046875-.462158203125-.9931640625-.1005859375-1.4111328125l35.972900390625-41.515625c.1737060546875-.2001953125.419921875-.3232421875.6845703125-.341796875.023681640625-.001953125.0474853515625-.0029296875.0711669921875-.0029296875.2398681640625,0,.47265625.0859375.655029296875.244140625,15.814697265625,13.7119140625,33.45263671875,25.05859375,52.4241943359375,33.7275390625.502197265625.2294921875.723388671875.822265625.4940185546875,1.32421875l-22.83251953125,49.9970703125c-.1102294921875.2421875-.3118896484375.4296875-.560546875.5224609375-.11279296875.0419921875-.2310791015625.0625-.34912109375.0625Z" fill="none" stroke="#181818" stroke-linecap="round" stroke-linejoin="round" stroke-width="15"/>
              <path d="M155.9365234375,466.259521484369543c15.75341796875,13.65869140625,33.4619140625,25.107177734375,52.66357421875,33.880859375l-22.83251953125,49.996826171875c-23.99267578125-10.975830078125-46.1162109375-25.287109375-65.8037109375-42.36181640625l35.97265625-41.515869140625M155.9365234375,464.259521484369543c-.04736328125,0-.0947265625.00164794921875-.142578125.00506591796875-.52880859375.03778076171875-1.021484375.28424072265625-1.369140625.68524169921875l-35.97265625,41.515869140625c-.72314453125.83453369140625-.6328125,2.09710693359375.201171875,2.82061767578125,19.99267578125,17.33935546875,42.29345703125,31.69549560546875,66.2822265625,42.66961669921875.263671875.12060546875.5478515625.1812744140625.83203125.1812744140625.236328125,0,.47265625-.04180908203125.6982421875-.1258544921875.49755859375-.185302734375.900390625-.56060791015625,1.12109375-1.0433349609375l22.83251953125-49.996826171875c.45849609375-1.00457763671875.0166015625-2.19091796875-.98828125-2.64990234375-18.88623046875-8.62969970703125-36.44384765625-19.92523193359375-52.1845703125-33.5728759765625-.36474609375-.3162841796875-.830078125-.4888916015625-1.31005859375-.4888916015625h0Z" fill="none" stroke="#181818" stroke-linecap="round" stroke-linejoin="round" stroke-width="15"/>
            </g>
          </a>
          <a xlink:href="https://www.notion.so/dmmnotes/externally-assembled-self-994ecb0895b844409b931d74a045c162?pvs=4">
            <path id="A8" d="M208.60009765625,500.140380859369543l-22.83251953125,49.996826171878638c23.45556640625,10.7314453125,48.659423828120453,18.275146484371362,75.098632812510004,22.04296875l7.825683593739996-54.4306640625c-21.15673828125-3.0078125-41.3251953125-9.0341796875-60.091796875-17.609130859378638Z" fill="none" stroke="#181818" stroke-linecap="round" stroke-linejoin="round" stroke-width="15"/>
          </a>
          <a xlink:href="https://www.notion.so/dmmnotes/psychopathy-0fe4a3222d9f4fd097ab4546c9776768?pvs=4">
            <path id="AC" d="M300,519.999999999998181c-10.634765625,0-21.076171875-.794921875-31.30810546875-2.25048828125l-7.825683593739996,54.4306640625c12.788574218739996,1.823486328132276,25.843017578119543,2.81982421875,39.133789062489996,2.81982421875s26.345214843760004-.996337890617724,39.1337890625-2.81982421875l-7.825683593739996-54.4306640625c-10.229248046889552,1.45556640625-20.673339843760004,2.25048828125-31.308105468760004,2.25048828125Z" fill="none" stroke="#181818" stroke-linecap="round" stroke-linejoin="round" stroke-width="15"/>
          </a>
        </g>
        <g>
          <a xlink:href="https://www.notion.so/dmmnotes/paranoid-ae38b1e6af0c4dd08f61e0d8f6e9f05f?pvs=4">
            <path id="C8-2" data-name="C8" d="M331.308105468760004,517.749511718748181l7.825683593739996,54.4306640625c26.439208984370453-3.767822265628638,51.645751953139552-11.3115234375,75.101318359370453-22.04296875l-22.832519531240905-49.996826171878638c-18.7666015625,8.572265625-38.93505859375,14.601318359378638-60.094482421869543,17.609130859378638Z" fill="#8f807d" stroke="#181818" stroke-linecap="round" stroke-linejoin="round" stroke-width="2"/>
          </a>
          <a xlink:href="https://www.notion.so/dmmnotes/menacing-a5bd7149286344deba45ec15e759e579?pvs=4">
            <path id="C7-2" data-name="C7" d="M391.402587890629547,500.140380859369543l22.832519531240905,49.996826171878638c23.989990234389552-10.975830078117724,46.116210937519099-25.287109375010914,65.803955078139552-42.36181640625l-35.972900390630457-41.515869140617724c-15.753417968759095,13.65869140625-33.459228515629547,25.104492187489086-52.66357421875,33.880859374989086Z" fill="#8f807d" stroke="#181818" stroke-linecap="round" stroke-linejoin="round" stroke-width="2"/>
          </a>
          <a xlink:href="https://www.notion.so/dmmnotes/seductively-obsessed-with-rescue-6fb5a68f6d334bc29ccccc16d8a4e56e?pvs=4">
            <path id="C6-2" data-name="C6" d="M444.066162109379547,466.259521484380457l35.972900390630457,41.515869140617724c19.762939453119543-17.141845703128638,37.047119140619543-37.041748046878638,51.26708984375-59.125l-46.223632812510004-29.704833984367724c-11.373291015620453,17.673583984367724-25.201171874989996,33.598876953117724-41.016357421870453,47.31396484375Z" fill="#8f807d" stroke="#181818" stroke-linecap="round" stroke-linejoin="round" stroke-width="2"/>
          </a>
          <a xlink:href="https://www.notion.so/dmmnotes/punitively-obsessed-with-revenge-33d2e77f37774316b42bccf4a60f9688?pvs=4">
            <path id="C5-2" data-name="C5" d="M485.08251953125,418.945556640630457l46.223632812510004,29.704833984367724c14.048095703129547-21.809326171878638,25.08837890625-45.71875,32.551513671869543-71.175048828128638l-52.7548828125-15.490234375c-5.9619140625,20.377929687510914-14.789306640619543,39.509765625-26.020263671879547,56.960449218760914Z" fill="#8f807d" stroke="#181818" stroke-linecap="round" stroke-linejoin="round" stroke-width="2"/>
          </a>
          <a xlink:href="https://www.notion.so/dmmnotes/feigned-helpless-e79a94b0498c4e109a681b7f3dcdb088?pvs=4">
            <path id="C4-2" data-name="C4" d="M520,300c0,21.538085937498181-3.142089843739996,42.321533203119543-8.897216796870453,61.985107421869543l52.7548828125,15.490234375c7.2080078125-24.583496093739086,11.142333984370453-50.5634765625,11.142333984370453-77.475341796869543h-55Z" fill="#8f807d" stroke="#181818" stroke-linecap="round" stroke-linejoin="round" stroke-width="2"/>
          </a>
          <a xlink:href="https://www.notion.so/dmmnotes/aggressive-2d8ccce383534b9dbfc7b4b10b8a5d5c?pvs=4">
            <path id="C3-2" data-name="C3" d="M520,300h55c0-26.911865234390461-3.934326171870453-52.894531250011823-11.142333984370453-77.475341796890461l-52.7548828125,15.490234375c5.755126953130457,19.663574218760914,8.897216796870453,40.449707031260914,8.897216796870453,61.985107421890461Z" fill="#8f807d" stroke="#181818" stroke-linecap="round" stroke-linejoin="round" stroke-width="2"/>
          </a>
          <a xlink:href="https://www.notion.so/dmmnotes/disarming-086276e599884c86b9359acf831a8b20?pvs=4">
            <path id="C2-2" data-name="C2" d="M511.102783203129547,238.014892578109539l52.7548828125-15.490234375c-7.463134765619543-25.456298828121362-18.503417968739996-49.365722656239086-32.551513671869543-71.177734374989086l-46.223632812510004,29.70751953125c11.230957031260004,17.45068359375,20.055664062510004,36.585205078117724,26.020263671879547,56.960449218739086Z" fill="#8f807d" stroke="#181818" stroke-linecap="round" stroke-linejoin="round" stroke-width="2"/>
          </a>
          <a xlink:href="https://www.notion.so/dmmnotes/threatening-348fe6a52f7a4fe69f768e98c6586932?pvs=4">
            <path id="C1-2" data-name="C1" d="M485.08251953125,181.054443359370453l46.223632812510004-29.70751953125c-14.219970703130457-22.08056640625-31.504150390630457-41.980468750010914-51.26708984375-59.122314453120453l-35.972900390630457,41.518554687488177c15.815185546880457,13.71240234375,29.64306640625,29.637695312511823,41.016357421870453,47.311279296882276Z" fill="#8f807d" stroke="#181818" stroke-linecap="round" stroke-linejoin="round" stroke-width="2"/>
          </a>
          <a xlink:href="https://www.notion.so/dmmnotes/complaining-acceptance-8b40401a720c493ba73f7cde1567cf3d?pvs=4">
            <path id="B5-2" data-name="B5" d="M444.066162109379547,133.743164062488177l35.972900390630457-41.518554687488177c-19.687744140620453-17.07470703125-41.81396484375-31.388671875-65.803955078139552-42.36181640625l-22.832519531240905,49.99951171875c19.204345703120453,8.773681640620453,36.910156249990905,20.22216796875,52.66357421875,33.880859374988177Z" fill="#8f807d" stroke="#181818" stroke-linecap="round" stroke-linejoin="round" stroke-width="2"/>
          </a>
          <a xlink:href="https://www.notion.so/dmmnotes/sentimental-bc554363322342b1b7ca4ccc02125049?pvs=4">
            <path id="B4-2" data-name="B4" d="M391.402587890629547,99.8623046875l22.832519531240905-49.99951171875c-23.455566406230901-10.7314453125-48.662109375-18.275146484390461-75.101318359370453-22.042968749990905l-7.825683593739996,54.433349609361358c21.159423828119543,3.0078125,41.327880859369543,9.034179687489086,60.094482421869543,17.609130859379547Z" fill="#8f807d" stroke="#181818" stroke-linecap="round" stroke-linejoin="round" stroke-width="2"/>
          </a>
          <a xlink:href="https://www.notion.so/dmmnotes/comfortably-balanced-e76dc615a8b947aa915377cd02fcf716?pvs=4">
            <path id="B3-2" data-name="B3" d="M300,80c10.634765625,0,21.078857421870453.797607421870453,31.308105468760004,2.253173828120453l7.825683593739996-54.433349609361358c-12.788574218739996-1.823486328138642-25.843017578129547-2.819824218759095-39.1337890625-2.819824218759095s-26.34521484375.996337890620453-39.133789062489996,2.819824218759095l7.825683593739996,54.433349609361358c10.23193359375-1.45556640625,20.67333984375-2.253173828120453,31.30810546875-2.253173828120453Z" fill="#8f807d" stroke="#181818" stroke-linecap="round" stroke-linejoin="round" stroke-width="2"/>
          </a>
          <a xlink:href="https://www.notion.so/dmmnotes/accepting-317d81273fff4cd9817cdf4a88efd378?pvs=4">
            <path id="B2-2" data-name="B2" d="M268.69189453125,82.253173828120453l-7.825683593739996-54.433349609361358c-26.439208984389552,3.767822265600444-51.643066406260004,11.311523437490905-75.098632812510004,22.042968749990905l22.83251953125,49.99951171875c18.7666015625-8.574951171890461,38.93505859375-14.601318359379547,60.091796875-17.609130859379547Z" fill="#8f807d" stroke="#181818" stroke-linecap="round" stroke-linejoin="round" stroke-width="2"/>
          </a>
          <a xlink:href="https://www.notion.so/dmmnotes/distanced-from-past-2eabab7e9c77429f8e577f4e3e203653?pvs=4">
            <path id="B1-2" data-name="B1" d="M208.60009765625,99.8623046875l-22.83251953125-49.99951171875c-23.99267578125,10.97314453125-46.1162109375,25.287109375-65.803955078120453,42.36181640625l35.972900390620453,41.515869140620453c15.75341796875-13.658691406260914,33.4619140625-25.1044921875,52.66357421875-33.878173828120453Z" fill="#8f807d" stroke="#181818" stroke-linecap="round" stroke-linejoin="round" stroke-width="2"/>
          </a>
          <a xlink:href="https://www.notion.so/dmmnotes/idealising-a52277f51ed14a42aae78081bb34b8be?pvs=4">
            <path id="A1-2" data-name="A1" d="M155.9365234375,133.740478515620453l-35.972900390620453-41.515869140620453c-19.765625,17.141845703109539-37.049804687509095,37.041748046870453-51.269775390629547,59.122314453120453l46.226318359370453,29.70751953125c11.373291015639552-17.673583984370453,25.201171875009095-33.598876953132276,41.016357421879547-47.31396484375Z" fill="#8f807d" stroke="#181818" stroke-linecap="round" stroke-linejoin="round" stroke-width="2"/>
          </a>
          <a xlink:href="https://www.notion.so/dmmnotes/distancing-9ac690cdca654729a17a5a255944e2d1?pvs=4">
            <path id="A2-2" data-name="A2" d="M114.920166015620453,181.054443359370453l-46.226318359370453-29.70751953125c-14.04541015625,21.81201171875-25.08837890625,45.721435546867724-32.551513671879547,71.177734374989086l52.754882812509095,15.490234375c5.964599609370453-20.375244140621362,14.7919921875-39.509765624989086,26.022949218740905-56.960449218739086Z" fill="#8f807d" stroke="#181818" stroke-linecap="round" stroke-linejoin="round" stroke-width="2"/>
          </a>
          <a xlink:href="https://www.notion.so/dmmnotes/compulsive-caregiving-9c380c0928294f41ae10764aa0dee886?pvs=4">
            <path id="A3-2" data-name="A3" d="M88.897216796879547,238.014892578109539l-52.754882812509095-15.490234375c-7.205322265620453,24.580810546878638-11.142333984370453,50.5634765625-11.142333984370453,77.475341796890461h55c0-21.535400390629547,3.14208984375-42.321533203129547,8.897216796879547-61.985107421890461Z" fill="#8f807d" stroke="#181818" stroke-linecap="round" stroke-linejoin="round" stroke-width="2"/>
          </a>
          <a xlink:href="https://www.notion.so/dmmnotes/compulsive-compliance-6d08b7ea9a424ce1a72b9184b7850414?pvs=4">
            <path id="A4-2" data-name="A4" d="M80,300H25c0,26.911865234369543,3.93701171875,52.894531249987267,11.142333984370453,77.475341796869543l52.754882812509095-15.490234375c-5.755126953129547-19.66357421875-8.897216796879547-40.447021484371362-8.897216796879547-61.985107421869543Z" fill="#8f807d" stroke="#181818" stroke-linecap="round" stroke-linejoin="round" stroke-width="2"/>
          </a>
          <a xlink:href="https://www.notion.so/dmmnotes/sexual-supplementation-8e85f49046ef412aa229745abf7d38d3?pvs=4">
            <path id="A5-2" data-name="A5" d="M88.897216796879547,361.985107421869543l-52.754882812509095,15.490234375c7.463134765629547,25.456298828128638,18.506103515629547,49.36572265625,32.551513671879547,71.175048828128638l46.223632812510004-29.704833984367724c-11.230957031260004-17.450683593760914-20.055664062510004-36.58251953125-26.020263671880457-56.960449218760914Z" fill="#8f807d" stroke="#181818" stroke-linecap="round" stroke-linejoin="round" stroke-width="2"/>
          </a>
          <a xlink:href="https://www.notion.so/dmmnotes/compulsive-isolated-self-reliance-b321873a73fa41aaaadd7192fde856a2?pvs=4">
            <path id="A6-2" data-name="A6" d="M114.917480468760004,418.945556640630457l-46.223632812510004,29.704833984367724c14.219970703120453,22.083251953121362,31.504150390629547,41.983154296871362,51.269775390629547,59.125l35.972900390620453-41.515869140617724c-15.815185546870453-13.712402343760914-29.643066406239996-29.637695312510914-41.019042968739996-47.31396484375Z" fill="#8f807d" stroke="#181818" stroke-linecap="round" stroke-linejoin="round" stroke-width="2"/>
          </a>
          <a xlink:href="https://www.notion.so/dmmnotes/delusional-idealization-743e2420b9994a48a7cab68190432e8a?pvs=4">
            <g id="A7-2" data-name="A7">
              <path d="M185.767578125,551.137695312494543c-.1422119140625,0-.2841796875-.0302734375-.416015625-.0908203125-23.9017333984375-10.9345703125-46.1219482421875-25.2392578125-66.0430908203125-42.515625-.4171142578125-.3623046875-.462158203125-.9931640625-.1005859375-1.4111328125l35.972900390625-41.515625c.1737060546875-.2001953125.419921875-.3232421875.6845703125-.341796875.023681640625-.001953125.0474853515625-.0029296875.0711669921875-.0029296875.2398681640625,0,.47265625.0859375.655029296875.244140625,15.814697265625,13.7119140625,33.45263671875,25.05859375,52.4241943359375,33.7275390625.502197265625.2294921875.723388671875.822265625.4940185546875,1.32421875l-22.83251953125,49.9970703125c-.1102294921875.2421875-.3118896484375.4296875-.560546875.5224609375-.11279296875.0419921875-.2310791015625.0625-.34912109375.0625Z" fill="#c46681" stroke-width="0"/>
              <path d="M155.9365234375,466.259521484369543c15.75341796875,13.65869140625,33.4619140625,25.107177734375,52.66357421875,33.880859375l-22.83251953125,49.996826171875c-23.99267578125-10.975830078125-46.1162109375-25.287109375-65.8037109375-42.36181640625l35.97265625-41.515869140625M155.9365234375,464.259521484369543c-.04736328125,0-.0947265625.00164794921875-.142578125.00506591796875-.52880859375.03778076171875-1.021484375.28424072265625-1.369140625.68524169921875l-35.97265625,41.515869140625c-.72314453125.83453369140625-.6328125,2.09710693359375.201171875,2.82061767578125,19.99267578125,17.33935546875,42.29345703125,31.69549560546875,66.2822265625,42.66961669921875.263671875.12060546875.5478515625.1812744140625.83203125.1812744140625.236328125,0,.47265625-.04180908203125.6982421875-.1258544921875.49755859375-.185302734375.900390625-.56060791015625,1.12109375-1.0433349609375l22.83251953125-49.996826171875c.45849609375-1.00457763671875.0166015625-2.19091796875-.98828125-2.64990234375-18.88623046875-8.62969970703125-36.44384765625-19.92523193359375-52.1845703125-33.5728759765625-.36474609375-.3162841796875-.830078125-.4888916015625-1.31005859375-.4888916015625h0Z" fill="#181818" stroke-width="0"/>
            </g>
          </a>
          <a xlink:href="https://www.notion.so/dmmnotes/externally-assembled-self-994ecb0895b844409b931d74a045c162?pvs=4">
            <path id="A8-2" data-name="A8" d="M208.60009765625,500.140380859369543l-22.83251953125,49.996826171878638c23.45556640625,10.7314453125,48.659423828120453,18.275146484371362,75.098632812510004,22.04296875l7.825683593739996-54.4306640625c-21.15673828125-3.0078125-41.3251953125-9.0341796875-60.091796875-17.609130859378638Z" fill="#8f807d" stroke="#181818" stroke-linecap="round" stroke-linejoin="round" stroke-width="2"/>
          </a>
          <a xlink:href="https://www.notion.so/dmmnotes/psychopathy-0fe4a3222d9f4fd097ab4546c9776768?pvs=4">
            <path id="AC-2" data-name="AC" d="M300,519.999999999998181c-10.634765625,0-21.076171875-.794921875-31.30810546875-2.25048828125l-7.825683593739996,54.4306640625c12.788574218739996,1.823486328132276,25.843017578119543,2.81982421875,39.133789062489996,2.81982421875s26.345214843760004-.996337890617724,39.1337890625-2.81982421875l-7.825683593739996-54.4306640625c-10.229248046889552,1.45556640625-20.673339843760004,2.25048828125-31.308105468760004,2.25048828125Z" fill="#8f807d" stroke="#181818" stroke-linecap="round" stroke-linejoin="round" stroke-width="2"/>
          </a>
        </g>
      </g>
      <a xlink:href="https://www.notion.so/dmmnotes/A7-743e2420b9994a48a7cab68190432e8a?pvs=4#d7f39fe8e4074488b07c725702ab5dc9">
        <g id="A7-3" data-name="A7">
          <a xlink:href="https://www.notion.so/dmmnotes/A7-743e2420b9994a48a7cab68190432e8a?pvs=4#d7f39fe8e4074488b07c725702ab5dc9">
            <g id="A7-4" data-name="A7">
              <path d="M300.0123291015625,414.713867187494543c-7.0223388671875,0-13.9974365234375-1.109375-20.7315673828125-3.2978515625-17.03271484375-5.5341796875-30.890869140625-17.3701171875-39.0216064453125-33.3271484375-8.1307373046875-15.9580078125-9.560546875-34.1259765625-4.0262451171875-51.1591796875,9.0068359375-27.72021484375,34.6280517578125-46.3447265625,63.755126953125-46.3447265625,7.022216796875,0,13.9971923828125,1.109375,20.731201171875,3.29736328125,17.0325927734375,5.5341796875,30.890869140625,17.36962890625,39.021484375,33.32763671875,8.130859375,15.95703125,9.560546875,34.1259765625,4.0263671875,51.1591796875-9.0068359375,27.7197265625-34.6279296875,46.3447265625-63.7547607421875,46.3447265625Z" fill="url(#A7-5)" stroke-width="0"/>
              <path d="M299.98828125,289.084747314447668c5.9970703125-.000396728515625,12.09228515625.927947998046875,18.1044921875,2.88140869140625,30.7529296875,9.992156982421875,47.58251953125,43.022705078125,37.59033203125,73.775634765625-8.03857421875,24.740875244140625-30.9921875,40.472015380859375-55.67138671875,40.472015380859375-5.9970703125,0-12.09228515625-.927978515625-18.1044921875-2.88140869140625-30.7529296875-9.99224853515625-47.58251953125-43.022735595703125-37.59033203125-73.775726318359375,8.03857421875-24.740814208984375,30.9921875-40.4703369140625,55.67138671875-40.471923828125M299.99169921875,272.084747314447668v17l-.0009765625-17c-15.83349609375.0009765625-31.03466796875,4.886627197265625-43.96435546875,14.128692626953125-13.208984375,9.44189453125-22.8486328125,22.613189697265625-27.87744140625,38.089935302734375-12.873046875,39.61895751953125,8.88623046875,82.324127197265625,48.5048828125,95.196929931640625,7.583984375,2.46405029296875,15.4423828125,3.7135009765625,23.35791015625,3.7135009765625,15.830078125,0,31.03173828125-4.885498046875,43.9619140625-14.12823486328125,13.208984375-9.44207763671875,22.8486328125-22.613555908203125,27.87744140625-38.090484619140625,6.23583984375-19.192169189453125,4.62451171875-39.66387939453125-4.53662109375-57.6441650390625-9.1611328125-17.980438232421875-24.7763671875-31.31689453125-43.96826171875-37.552703857421875-7.583984375-2.464080810546875-15.44140625-3.713470458984375-23.3544921875-3.713470458984375h0Z" fill="#181818" stroke-width="0"/>
            </g>
          </a>
          <a xlink:href="https://www.notion.so/dmmnotes/A7-743e2420b9994a48a7cab68190432e8a?pvs=4#d7f39fe8e4074488b07c725702ab5dc9">
            <g>
              <g>
                <path d="M278.64892578125,213.095703124994543c3.9765625,2.302734375,7.37890625,5.12890625,10.205078125,8.4775390625,2.82568359375,3.3515625,5.20556640625,7.013671875,7.1435546875,10.990234375,1.935546875,3.978515625,3.478515625,8.1904296875,4.63134765625,12.638671875,1.150390625,4.44921875,2.041015625,8.923828125,2.6689453125,13.4228515625,1.46435546875,8.8974609375,2.30126953125,17.8984375,2.51220703125,27.00390625.20849609375,9.1064453125.05126953125,18.2666015625-.47119140625,27.4755859375-.2109375,2.6171875-.41943359375,4.763671875-.6279296875,6.4365234375-.2109375,1.67578125-.603515625,3.037109375-1.177734375,4.08203125-.576171875,1.0478515625-1.38818359375,1.884765625-2.43310546875,2.5126953125-1.0478515625.6279296875-2.51220703125,1.2021484375-4.39599609375,1.7265625-1.78125.208984375-3.63818359375.365234375-5.57373046875.470703125-1.93798828125.103515625-3.74365234375-.4189453125-5.41650390625-1.5693359375-1.56982421875-1.044921875-2.8798828125-2.826171875-3.9248046875-5.337890625-1.0478515625-2.5126953125-1.6240234375-6.123046875-1.72705078125-10.8330078125v-1.5703125c-2.61767578125-.314453125-5.73046875-.57421875-9.341796875-.78515625-3.61083984375-.2080078125-7.30029296875-.3388671875-11.068359375-.392578125-3.76806640625-.0517578125-7.40576171875-.078125-10.91162109375-.078125h-8.8701171875c-.10546875.94140625-.23583984375,2.51171875-.392578125,4.7099609375-.1572265625,2.1982421875-.498046875,4.3955078125-1.0205078125,6.59375-.52490234375,2.1982421875-1.2314453125,4.1875-2.11962890625,5.9658203125-.890625,1.78125-2.11962890625,2.720703125-3.689453125,2.826171875-1.466796875.103515625-3.14013671875.208984375-5.02392578125.314453125-1.88427734375.1025390625-3.716796875-.10546875-5.4951171875-.6279296875-1.78076171875-.41796875-3.2724609375-1.2568359375-4.474609375-2.5126953125-1.20458984375-1.255859375-1.859375-3.2431640625-1.96240234375-5.9658203125,0-3.2431640625.0517578125-6.958984375.1572265625-11.146484375.10302734375-4.185546875.31396484375-8.73828125.6279296875-13.6591796875.20849609375-4.08203125.54931640625-8.556640625,1.0205078125-13.423828125.470703125-4.8671875,1.150390625-9.8642578125,2.041015625-14.9931640625.8876953125-5.126953125,2.041015625-10.2568359375,3.45361328125-15.38671875,1.4130859375-5.126953125,3.19189453125-9.9931640625,5.33837890625-14.6005859375,2.14404296875-4.6044921875,4.68310546875-8.84375,7.6142578125-12.716796875,2.92919921875-3.87109375,6.43701171875-7.1162109375,10.51904296875-9.734375,4.81298828125-3.0341796875,10.099609375-4.552734375,15.85693359375-4.552734375,5.75537109375,0,11.19873046875,1.4130859375,16.328125,4.2392578125ZM240.498046875,284.530273437494543c6.59375-.5224609375,13.16064453125-.9150390625,19.703125-1.177734375,6.5400390625-.259765625,13.10986328125-.287109375,19.70361328125-.078125.31396484375-7.4306640625,0-14.076171875-.94189453125-19.939453125-.94189453125-5.8603515625-2.251953125-10.8056640625-3.9248046875-14.8359375-1.67578125-4.0283203125-3.6650390625-7.1162109375-5.96630859375-9.2626953125-2.30322265625-2.14453125-4.658203125-3.21875-7.06494140625-3.21875-2.0947265625,0-4.26611328125,1.07421875-6.515625,3.21875-2.251953125,2.146484375-4.34423828125,5.2861328125-6.27978515625,9.419921875-1.93798828125,4.1357421875-3.689453125,9.23828125-5.25927734375,15.306640625-1.5703125,6.072265625-2.72314453125,12.9287109375-3.4541015625,20.5673828125Z" fill="none" stroke="#181818" stroke-linecap="round" stroke-linejoin="round" stroke-width="33"/>
                <path d="M381.95361328125,227.696289062494543c.10302734375,1.361328125.20849609375,2.958984375.31396484375,4.7890625.10302734375,1.83203125.13037109375,3.6103515625.07861328125,5.337890625-.05419921875,1.7265625-.2109375,3.2451171875-.47119140625,4.552734375-.26220703125,1.3095703125-.7060546875,2.068359375-1.33447265625,2.2763671875,0,.2109375-.10546875.525390625-.31396484375.9423828125-7.7470703125,12.142578125-14.365234375,24.8837890625-19.8603515625,38.2294921875-5.4951171875,13.3447265625-9.8125,27.08203125-12.95263671875,41.2119140625v.1572265625c0,.2109375-.10546875.419921875-.31396484375.6279296875-.2109375.2109375-.392578125.470703125-.54931640625.78515625-.1572265625.3134765625-.44677734375.6796875-.86376953125,1.0986328125-.52490234375.5224609375-1.361328125,1.0205078125-2.51171875,1.4921875-1.1533203125.470703125-2.6689453125.6005859375-4.55322265625.392578125-1.8837890625-.2119140625-3.76806640625-.4716796875-5.65185546875-.78515625-1.8837890625-.314453125-3.61083984375-.8125-5.18115234375-1.4921875-1.56982421875-.6787109375-2.82568359375-1.6728515625-3.76806640625-2.982421875-.94189453125-1.3076171875-1.361328125-3.0078125-1.255859375-5.1025390625.10302734375-1.150390625.5224609375-3.296875,1.255859375-6.4375.7314453125-3.1396484375,1.830078125-6.9072265625,3.29736328125-11.3037109375,1.46435546875-4.4990234375,3.19140625-9.314453125,5.1806640625-14.4443359375,1.9873046875-5.126953125,4.18505859375-10.205078125,6.59423828125-15.228515625,2.40625-5.126953125,4.8916015625-9.9697265625,7.45751953125-14.5224609375,2.5634765625-4.552734375,4.9453125-8.5029296875,7.1435546875-11.853515625v-.314453125c-12.45703125,0-24.703125-.15625-36.73828125-.470703125-.7333984375-.1025390625-1.4130859375-.470703125-2.041015625-1.0986328125-.52490234375-.5224609375-1.0205078125-1.3076171875-1.4912109375-2.35546875-.47119140625-1.044921875-.7607421875-2.4580078125-.86376953125-4.2392578125-.10546875-1.8837890625-.13232421875-3.7919921875-.07861328125-5.73046875.0517578125-1.935546875.23583984375-3.740234375.5498046875-5.416015625.31396484375-1.6728515625.83642578125-3.0859375,1.56982421875-4.2392578125.73095703125-1.150390625,1.77880859375-1.8837890625,3.14013671875-2.1982421875.6279296875-.1025390625,1.98681640625-.1298828125,4.08203125-.078125,2.09228515625.0537109375,4.63134765625.1572265625,7.6142578125.314453125,2.9833984375.15625,6.2802734375.3671875,9.89111328125.6279296875,3.61083984375.26171875,7.24658203125.498046875,10.91162109375.7060546875,3.66259765625.2109375,7.19482421875.392578125,10.59765625.5498046875,3.39990234375.1572265625,6.46142578125.3408203125,9.18408203125.548828125,3.14013671875.2109375,6.0693359375.3681640625,8.7919921875.4716796875.52294921875-.103515625.99365234375.0537109375,1.4130859375.470703125.4169921875.314453125.78515625.8125,1.09912109375,1.4912109375.31396484375.6826171875.5224609375,1.75390625.6279296875,3.21875Z" fill="none" stroke="#181818" stroke-linecap="round" stroke-linejoin="round" stroke-width="33"/>
              </g>
              <g>
                <path d="M278.64892578125,213.095703124994543c3.9765625,2.302734375,7.37890625,5.12890625,10.205078125,8.4775390625,2.82568359375,3.3515625,5.20556640625,7.013671875,7.1435546875,10.990234375,1.935546875,3.978515625,3.478515625,8.1904296875,4.63134765625,12.638671875,1.150390625,4.44921875,2.041015625,8.923828125,2.6689453125,13.4228515625,1.46435546875,8.8974609375,2.30126953125,17.8984375,2.51220703125,27.00390625.20849609375,9.1064453125.05126953125,18.2666015625-.47119140625,27.4755859375-.2109375,2.6171875-.41943359375,4.763671875-.6279296875,6.4365234375-.2109375,1.67578125-.603515625,3.037109375-1.177734375,4.08203125-.576171875,1.0478515625-1.38818359375,1.884765625-2.43310546875,2.5126953125-1.0478515625.6279296875-2.51220703125,1.2021484375-4.39599609375,1.7265625-1.78125.208984375-3.63818359375.365234375-5.57373046875.470703125-1.93798828125.103515625-3.74365234375-.4189453125-5.41650390625-1.5693359375-1.56982421875-1.044921875-2.8798828125-2.826171875-3.9248046875-5.337890625-1.0478515625-2.5126953125-1.6240234375-6.123046875-1.72705078125-10.8330078125v-1.5703125c-2.61767578125-.314453125-5.73046875-.57421875-9.341796875-.78515625-3.61083984375-.2080078125-7.30029296875-.3388671875-11.068359375-.392578125-3.76806640625-.0517578125-7.40576171875-.078125-10.91162109375-.078125h-8.8701171875c-.10546875.94140625-.23583984375,2.51171875-.392578125,4.7099609375-.1572265625,2.1982421875-.498046875,4.3955078125-1.0205078125,6.59375-.52490234375,2.1982421875-1.2314453125,4.1875-2.11962890625,5.9658203125-.890625,1.78125-2.11962890625,2.720703125-3.689453125,2.826171875-1.466796875.103515625-3.14013671875.208984375-5.02392578125.314453125-1.88427734375.1025390625-3.716796875-.10546875-5.4951171875-.6279296875-1.78076171875-.41796875-3.2724609375-1.2568359375-4.474609375-2.5126953125-1.20458984375-1.255859375-1.859375-3.2431640625-1.96240234375-5.9658203125,0-3.2431640625.0517578125-6.958984375.1572265625-11.146484375.10302734375-4.185546875.31396484375-8.73828125.6279296875-13.6591796875.20849609375-4.08203125.54931640625-8.556640625,1.0205078125-13.423828125.470703125-4.8671875,1.150390625-9.8642578125,2.041015625-14.9931640625.8876953125-5.126953125,2.041015625-10.2568359375,3.45361328125-15.38671875,1.4130859375-5.126953125,3.19189453125-9.9931640625,5.33837890625-14.6005859375,2.14404296875-4.6044921875,4.68310546875-8.84375,7.6142578125-12.716796875,2.92919921875-3.87109375,6.43701171875-7.1162109375,10.51904296875-9.734375,4.81298828125-3.0341796875,10.099609375-4.552734375,15.85693359375-4.552734375,5.75537109375,0,11.19873046875,1.4130859375,16.328125,4.2392578125ZM240.498046875,284.530273437494543c6.59375-.5224609375,13.16064453125-.9150390625,19.703125-1.177734375,6.5400390625-.259765625,13.10986328125-.287109375,19.70361328125-.078125.31396484375-7.4306640625,0-14.076171875-.94189453125-19.939453125-.94189453125-5.8603515625-2.251953125-10.8056640625-3.9248046875-14.8359375-1.67578125-4.0283203125-3.6650390625-7.1162109375-5.96630859375-9.2626953125-2.30322265625-2.14453125-4.658203125-3.21875-7.06494140625-3.21875-2.0947265625,0-4.26611328125,1.07421875-6.515625,3.21875-2.251953125,2.146484375-4.34423828125,5.2861328125-6.27978515625,9.419921875-1.93798828125,4.1357421875-3.689453125,9.23828125-5.25927734375,15.306640625-1.5703125,6.072265625-2.72314453125,12.9287109375-3.4541015625,20.5673828125Z" fill="#fff" stroke-width="0"/>
                <path d="M381.95361328125,227.696289062494543c.10302734375,1.361328125.20849609375,2.958984375.31396484375,4.7890625.10302734375,1.83203125.13037109375,3.6103515625.07861328125,5.337890625-.05419921875,1.7265625-.2109375,3.2451171875-.47119140625,4.552734375-.26220703125,1.3095703125-.7060546875,2.068359375-1.33447265625,2.2763671875,0,.2109375-.10546875.525390625-.31396484375.9423828125-7.7470703125,12.142578125-14.365234375,24.8837890625-19.8603515625,38.2294921875-5.4951171875,13.3447265625-9.8125,27.08203125-12.95263671875,41.2119140625v.1572265625c0,.2109375-.10546875.419921875-.31396484375.6279296875-.2109375.2109375-.392578125.470703125-.54931640625.78515625-.1572265625.3134765625-.44677734375.6796875-.86376953125,1.0986328125-.52490234375.5224609375-1.361328125,1.0205078125-2.51171875,1.4921875-1.1533203125.470703125-2.6689453125.6005859375-4.55322265625.392578125-1.8837890625-.2119140625-3.76806640625-.4716796875-5.65185546875-.78515625-1.8837890625-.314453125-3.61083984375-.8125-5.18115234375-1.4921875-1.56982421875-.6787109375-2.82568359375-1.6728515625-3.76806640625-2.982421875-.94189453125-1.3076171875-1.361328125-3.0078125-1.255859375-5.1025390625.10302734375-1.150390625.5224609375-3.296875,1.255859375-6.4375.7314453125-3.1396484375,1.830078125-6.9072265625,3.29736328125-11.3037109375,1.46435546875-4.4990234375,3.19140625-9.314453125,5.1806640625-14.4443359375,1.9873046875-5.126953125,4.18505859375-10.205078125,6.59423828125-15.228515625,2.40625-5.126953125,4.8916015625-9.9697265625,7.45751953125-14.5224609375,2.5634765625-4.552734375,4.9453125-8.5029296875,7.1435546875-11.853515625v-.314453125c-12.45703125,0-24.703125-.15625-36.73828125-.470703125-.7333984375-.1025390625-1.4130859375-.470703125-2.041015625-1.0986328125-.52490234375-.5224609375-1.0205078125-1.3076171875-1.4912109375-2.35546875-.47119140625-1.044921875-.7607421875-2.4580078125-.86376953125-4.2392578125-.10546875-1.8837890625-.13232421875-3.7919921875-.07861328125-5.73046875.0517578125-1.935546875.23583984375-3.740234375.5498046875-5.416015625.31396484375-1.6728515625.83642578125-3.0859375,1.56982421875-4.2392578125.73095703125-1.150390625,1.77880859375-1.8837890625,3.14013671875-2.1982421875.6279296875-.1025390625,1.98681640625-.1298828125,4.08203125-.078125,2.09228515625.0537109375,4.63134765625.1572265625,7.6142578125.314453125,2.9833984375.15625,6.2802734375.3671875,9.89111328125.6279296875,3.61083984375.26171875,7.24658203125.498046875,10.91162109375.7060546875,3.66259765625.2109375,7.19482421875.392578125,10.59765625.5498046875,3.39990234375.1572265625,6.46142578125.3408203125,9.18408203125.548828125,3.14013671875.2109375,6.0693359375.3681640625,8.7919921875.4716796875.52294921875-.103515625.99365234375.0537109375,1.4130859375.470703125.4169921875.314453125.78515625.8125,1.09912109375,1.4912109375.31396484375.6826171875.5224609375,1.75390625.6279296875,3.21875Z" fill="#fff" stroke-width="0"/>
              </g>
            </g>
          </a>
        </g>
      </a>
    </g>
  </g>
</svg>