<?xml version="1.0" encoding="UTF-8"?>
<svg id="Layer_1" data-name="Layer 1" xmlns="http://www.w3.org/2000/svg" xmlns:xlink="http://www.w3.org/1999/xlink" viewBox="0 0 600 599.999999999998181">
  <defs>
    <linearGradient id="B2-5" data-name="B2" x1="263.019836208887682" y1="415.693652994963486" x2="336.23351919160109" y2="280.898367503448299" gradientUnits="userSpaceOnUse">
      <stop offset="0" stop-color="#2d7f98"/>
      <stop offset=".5" stop-color="#008693"/>
      <stop offset="1" stop-color="#008c8d"/>
    </linearGradient>
  </defs>
  <g id="pie_with_links_-5" data-name="pie (with links)">
    <g id="pie_with_links_-6" data-name="pie (with links)">
      <g id="Pie">
        <g>
          <a xlink:href="https://www.notion.so/dmmnotes/paranoid-ae38b1e6af0c4dd08f61e0d8f6e9f05f?pvs=4">
            <path id="C8" d="M331.308105468753638,517.749511718748181l7.825683593743634,54.4306640625c26.439208984367724-3.767822265628638,51.645751953139552-11.3115234375,75.101318359367724-22.04296875l-22.832519531239086-49.996826171878638c-18.7666015625,8.572265625-38.93505859375,14.601318359378638-60.094482421872272,17.609130859378638Z" fill="none" stroke="#181818" stroke-linecap="round" stroke-linejoin="round" stroke-width="15"/>
          </a>
          <a xlink:href="https://www.notion.so/dmmnotes/menacing-a5bd7149286344deba45ec15e759e579?pvs=4">
            <path id="C7" d="M391.402587890625909,500.140380859369543l22.832519531239086,49.996826171878638c23.989990234388642-10.975830078117724,46.116210937521828-25.287109375010914,65.803955078138642-42.36181640625l-35.972900390627728-41.515869140617724c-15.753417968760914,13.65869140625-33.459228515628638,25.104492187489086-52.66357421875,33.880859374989086Z" fill="none" stroke="#181818" stroke-linecap="round" stroke-linejoin="round" stroke-width="15"/>
          </a>
          <a xlink:href="https://www.notion.so/dmmnotes/seductively-obsessed-with-rescue-6fb5a68f6d334bc29ccccc16d8a4e56e?pvs=4">
            <path id="C6" d="M444.066162109375909,466.259521484380457l35.972900390627728,41.515869140617724c19.762939453122272-17.141845703128638,37.047119140622272-37.041748046878638,51.26708984375-59.125l-46.223632812506366-29.704833984367724c-11.373291015621362,17.673583984367724-25.201171874993634,33.598876953117724-41.016357421871362,47.31396484375Z" fill="none" stroke="#181818" stroke-linecap="round" stroke-linejoin="round" stroke-width="15"/>
          </a>
          <a xlink:href="https://www.notion.so/dmmnotes/punitively-obsessed-with-revenge-33d2e77f37774316b42bccf4a60f9688?pvs=4">
            <path id="C5" d="M485.082519531247272,418.945556640630457l46.223632812506366,29.704833984367724c14.048095703133185-21.809326171878638,25.08837890625-45.71875,32.551513671872272-71.175048828128638l-52.7548828125-15.490234375c-5.9619140625,20.377929687510914-14.789306640622272,39.509765625-26.020263671878638,56.960449218760914Z" fill="none" stroke="#181818" stroke-linecap="round" stroke-linejoin="round" stroke-width="15"/>
          </a>
          <a xlink:href="https://www.notion.so/dmmnotes/feigned-helpless-e79a94b0498c4e109a681b7f3dcdb088?pvs=4">
            <path id="C4" d="M519.999999999997272,300c0,21.538085937498181-3.142089843743634,42.321533203119543-8.897216796871362,61.985107421869543l52.7548828125,15.490234375c7.2080078125-24.583496093739086,11.142333984371362-50.5634765625,11.142333984371362-77.475341796869543h-55Z" fill="none" stroke="#181818" stroke-linecap="round" stroke-linejoin="round" stroke-width="15"/>
          </a>
          <a xlink:href="https://www.notion.so/dmmnotes/aggressive-2d8ccce383534b9dbfc7b4b10b8a5d5c?pvs=4">
            <path id="C3" d="M519.999999999997272,300h55c0-26.911865234390461-3.934326171871362-52.894531250011823-11.142333984371362-77.475341796890461l-52.7548828125,15.490234375c5.755126953127728,19.663574218760914,8.897216796871362,40.449707031260914,8.897216796871362,61.985107421890461Z" fill="none" stroke="#181818" stroke-linecap="round" stroke-linejoin="round" stroke-width="15"/>
          </a>
          <a xlink:href="https://www.notion.so/dmmnotes/disarming-086276e599884c86b9359acf831a8b20?pvs=4">
            <path id="C2" d="M511.102783203125909,238.014892578109539l52.7548828125-15.490234375c-7.463134765622272-25.456298828121362-18.503417968739086-49.365722656239086-32.551513671872272-71.177734374989086l-46.223632812506366,29.70751953125c11.230957031256366,17.45068359375,20.055664062506366,36.585205078117724,26.020263671878638,56.960449218739086Z" fill="none" stroke="#181818" stroke-linecap="round" stroke-linejoin="round" stroke-width="15"/>
          </a>
          <a xlink:href="https://www.notion.so/dmmnotes/threatening-348fe6a52f7a4fe69f768e98c6586932?pvs=4">
            <path id="C1" d="M485.082519531247272,181.054443359370453l46.223632812506366-29.70751953125c-14.219970703127728-22.08056640625-31.504150390627728-41.980468750010914-51.26708984375-59.122314453120453l-35.972900390627728,41.518554687488177c15.815185546877728,13.71240234375,29.64306640625,29.637695312511823,41.016357421871362,47.311279296882276Z" fill="none" stroke="#181818" stroke-linecap="round" stroke-linejoin="round" stroke-width="15"/>
          </a>
          <a xlink:href="https://www.notion.so/dmmnotes/complaining-acceptance-8b40401a720c493ba73f7cde1567cf3d?pvs=4">
            <path id="B5" d="M444.066162109375909,133.743164062488177l35.972900390627728-41.518554687488177c-19.687744140616815-17.07470703125-41.81396484375-31.388671875-65.803955078138642-42.36181640625l-22.832519531239086,49.99951171875c19.204345703121362,8.773681640620453,36.910156249989086,20.22216796875,52.66357421875,33.880859374988177Z" fill="none" stroke="#181818" stroke-linecap="round" stroke-linejoin="round" stroke-width="15"/>
          </a>
          <a xlink:href="https://www.notion.so/dmmnotes/sentimental-bc554363322342b1b7ca4ccc02125049?pvs=4">
            <path id="B4" d="M391.402587890625909,99.8623046875l22.832519531239086-49.99951171875c-23.455566406228172-10.7314453125-48.662109375-18.275146484390461-75.101318359367724-22.042968749990905l-7.825683593743634,54.433349609361358c21.159423828122272,3.0078125,41.327880859372272,9.034179687489086,60.094482421872272,17.609130859379547Z" fill="none" stroke="#181818" stroke-linecap="round" stroke-linejoin="round" stroke-width="15"/>
          </a>
          <a xlink:href="https://www.notion.so/dmmnotes/comfortably-balanced-e76dc615a8b947aa915377cd02fcf716?pvs=4">
            <path id="B3" d="M299.999999999997272,80c10.634765625,0,21.078857421871362.797607421870453,31.308105468756366,2.253173828120453l7.825683593743634-54.433349609361358c-12.788574218739086-1.823486328138642-25.843017578128638-2.819824218759095-39.1337890625-2.819824218759095-13.290771484368634,0-26.34521484375.996337890620453-39.133789062489086,2.819824218759095l7.825683593739086,54.433349609361358c10.23193359375-1.45556640625,20.67333984375-2.253173828120453,31.30810546875-2.253173828120453Z" fill="none" stroke="#181818" stroke-linecap="round" stroke-linejoin="round" stroke-width="15"/>
          </a>
          <a xlink:href="https://www.notion.so/dmmnotes/accepting-317d81273fff4cd9817cdf4a88efd378?pvs=4">
            <g id="B2">
              <path d="M208.60009765625,100.862304687494543c-.1181640625,0-.236328125-.02099609375-.349609375-.06298828125-.24853515625-.0927734375-.44970703125-.2802734375-.56005859375-.521484375l-22.83251953125-49.99951171875c-.2294921875-.50244140625-.00830078125-1.09521484375.49365234375-1.32470703125,23.9765625-10.97021484375,49.3359375-18.41357421875,75.37353515625-22.1240234375.0478515625-.00634765625.09521484375-.009765625.142578125-.009765625.4892578125,0,.91650390625.359375.98828125.85791015625l7.82568359375,54.43359375c.0380859375.2626953125-.0302734375.52978515625-.189453125.7421875-.15966796875.21240234375-.396484375.3525390625-.65966796875.39013671875-20.66796875,2.93798828125-40.79296875,8.83544921875-59.81689453125,17.5283203125-.1318359375.06005859375-.2734375.09033203125-.41552734375.09033203125Z" fill="none" stroke="#181818" stroke-linecap="round" stroke-linejoin="round" stroke-width="15"/>
              <path d="M260.8662109375,27.819824218744543l7.82568359375,54.433349609375c-21.15673828125,3.0078125-41.3251953125,9.0341796875-60.091796875,17.609130859375l-22.83251953125-49.99951171875c23.45556640625-10.7314453125,48.659423828125-18.275146484375,75.0986328125-22.04296875M260.86871337890625,25.819564819330481c-.09393310546875,0-.18896484375.006622314453125-.28466796875.020248413085938-26.13360595703125,3.72430419921875-51.58551025390625,11.19488525390625-75.64849853515625,22.20428466796875-1.0040283203125.459320068359375-1.44580078125,1.645233154296875-.9873046875,2.64947509765625l22.83251953125,49.999526977539062c.220458984375.482559204101562.62353515625.857818603515625,1.12060546875,1.043167114257812.2255859375.084152221679688.46240234375.12603759765625.69873046875.12603759765625.2841796875,0,.5677490234375-.060531616210938.8311767578125-.180908203125,18.93768310546875-8.653106689453125,38.9705810546875-14.523513793945312,59.5421142578125-17.448135375976562.52569580078125-.074737548828125,1.00006103515625-.355438232421875,1.318603515625-.780258178710938s.455078125-.9588623046875.3795166015625-1.48443603515625l-7.82562255859375-54.433349609375c-.143310546875-.9967041015625-.99859619140625-1.715652465820312-1.9771728515625-1.715652465820312h0Z" fill="none" stroke="#181818" stroke-linecap="round" stroke-linejoin="round" stroke-width="15"/>
            </g>
          </a>
          <a xlink:href="https://www.notion.so/dmmnotes/distanced-from-past-2eabab7e9c77429f8e577f4e3e203653?pvs=4">
            <path id="B1" d="M208.60009765625,99.8623046875l-22.83251953125-49.99951171875c-23.99267578125,10.97314453125-46.1162109375,25.287109375-65.803955078119543,42.36181640625l35.972900390619543,41.515869140620453c15.75341796875-13.658691406260914,33.4619140625-25.1044921875,52.66357421875-33.878173828120453Z" fill="none" stroke="#181818" stroke-linecap="round" stroke-linejoin="round" stroke-width="15"/>
          </a>
          <a xlink:href="https://www.notion.so/dmmnotes/idealising-a52277f51ed14a42aae78081bb34b8be?pvs=4">
            <path id="A1" d="M155.9365234375,133.740478515620453l-35.972900390619543-41.515869140620453c-19.765625,17.141845703109539-37.049804687510914,37.041748046870453-51.269775390630457,59.122314453120453l46.226318359369543,29.70751953125c11.373291015640461-17.673583984370453,25.201171875010914-33.598876953132276,41.016357421880457-47.31396484375Z" fill="none" stroke="#181818" stroke-linecap="round" stroke-linejoin="round" stroke-width="15"/>
          </a>
          <a xlink:href="https://www.notion.so/dmmnotes/distancing-9ac690cdca654729a17a5a255944e2d1?pvs=4">
            <path id="A2" d="M114.920166015619543,181.054443359370453l-46.226318359369543-29.70751953125c-14.04541015625,21.81201171875-25.08837890625,45.721435546867724-32.551513671880457,71.177734374989086l52.754882812510914,15.490234375c5.964599609369543-20.375244140621362,14.7919921875-39.509765624989086,26.022949218739086-56.960449218739086Z" fill="none" stroke="#181818" stroke-linecap="round" stroke-linejoin="round" stroke-width="15"/>
          </a>
          <a xlink:href="https://www.notion.so/dmmnotes/compulsive-caregiving-9c380c0928294f41ae10764aa0dee886?pvs=4">
            <path id="A3" d="M88.897216796880457,238.014892578109539l-52.754882812510914-15.490234375c-7.205322265619543,24.580810546878638-11.142333984369543,50.5634765625-11.142333984369543,77.475341796890461h55c0-21.535400390629547,3.14208984375-42.321533203129547,8.897216796880457-61.985107421890461Z" fill="none" stroke="#181818" stroke-linecap="round" stroke-linejoin="round" stroke-width="15"/>
          </a>
          <a xlink:href="https://www.notion.so/dmmnotes/compulsive-compliance-6d08b7ea9a424ce1a72b9184b7850414?pvs=4">
            <path id="A4" d="M80,300H25c0,26.911865234369543,3.93701171875,52.894531249987267,11.142333984369543,77.475341796869543l52.754882812510914-15.490234375c-5.755126953130457-19.66357421875-8.897216796880457-40.447021484371362-8.897216796880457-61.985107421869543Z" fill="none" stroke="#181818" stroke-linecap="round" stroke-linejoin="round" stroke-width="15"/>
          </a>
          <a xlink:href="https://www.notion.so/dmmnotes/sexual-supplementation-8e85f49046ef412aa229745abf7d38d3?pvs=4">
            <path id="A5" d="M88.897216796880457,361.985107421869543l-52.754882812510914,15.490234375c7.463134765630457,25.456298828128638,18.506103515630457,49.36572265625,32.551513671880457,71.175048828128638l46.223632812510004-29.704833984367724c-11.230957031260004-17.450683593760914-20.055664062510004-36.58251953125-26.020263671879547-56.960449218760914Z" fill="none" stroke="#181818" stroke-linecap="round" stroke-linejoin="round" stroke-width="15"/>
          </a>
          <a xlink:href="https://www.notion.so/dmmnotes/compulsive-isolated-self-reliance-b321873a73fa41aaaadd7192fde856a2?pvs=4">
            <path id="A6" d="M114.917480468760004,418.945556640630457l-46.223632812510004,29.704833984367724c14.219970703119543,22.083251953121362,31.504150390630457,41.983154296871362,51.269775390630457,59.125l35.972900390619543-41.515869140617724c-15.815185546869543-13.712402343760914-29.643066406239996-29.637695312510914-41.019042968739996-47.31396484375Z" fill="none" stroke="#181818" stroke-linecap="round" stroke-linejoin="round" stroke-width="15"/>
          </a>
          <a xlink:href="https://www.notion.so/dmmnotes/delusional-idealization-743e2420b9994a48a7cab68190432e8a?pvs=4">
            <path id="A7" d="M155.9365234375,466.259521484380457l-35.972900390619543,41.515869140617724c19.687744140619543,17.074707031239086,41.811279296869543,31.385986328132276,65.803955078119543,42.36181640625l22.83251953125-49.996826171878638c-19.20166015625-8.773681640621362-36.91015625-20.222167968739086-52.66357421875-33.880859374989086Z" fill="none" stroke="#181818" stroke-linecap="round" stroke-linejoin="round" stroke-width="15"/>
          </a>
          <a xlink:href="https://www.notion.so/dmmnotes/externally-assembled-self-994ecb0895b844409b931d74a045c162?pvs=4">
            <path id="A8" d="M208.60009765625,500.140380859369543l-22.83251953125,49.996826171878638c23.45556640625,10.7314453125,48.659423828119543,18.275146484371362,75.098632812508185,22.04296875l7.825683593739086-54.4306640625c-21.15673828125-3.0078125-41.325195312497272-9.0341796875-60.091796874997272-17.609130859378638Z" fill="none" stroke="#181818" stroke-linecap="round" stroke-linejoin="round" stroke-width="15"/>
          </a>
          <a xlink:href="https://www.notion.so/dmmnotes/psychopathy-0fe4a3222d9f4fd097ab4546c9776768?pvs=4">
            <path id="AC" d="M299.999999999997272,519.999999999998181c-10.634765625,0-21.076171875-.794921875-31.30810546875-2.25048828125l-7.825683593739086,54.4306640625c12.788574218739086,1.823486328132276,25.843017578120453,2.81982421875,39.133789062489086,2.81982421875,13.290771484371362,0,26.345214843760914-.996337890617724,39.1337890625-2.81982421875l-7.825683593743634-54.4306640625c-10.229248046885004,1.45556640625-20.673339843756366,2.25048828125-31.308105468756366,2.25048828125Z" fill="none" stroke="#181818" stroke-linecap="round" stroke-linejoin="round" stroke-width="15"/>
          </a>
        </g>
        <g>
          <a xlink:href="https://www.notion.so/dmmnotes/paranoid-ae38b1e6af0c4dd08f61e0d8f6e9f05f?pvs=4">
            <path id="C8-2" data-name="C8" d="M331.308105468753638,517.749511718748181l7.825683593743634,54.4306640625c26.439208984367724-3.767822265628638,51.645751953139552-11.3115234375,75.101318359367724-22.04296875l-22.832519531239086-49.996826171878638c-18.7666015625,8.572265625-38.93505859375,14.601318359378638-60.094482421872272,17.609130859378638Z" fill="#8f807d" stroke="#181818" stroke-linecap="round" stroke-linejoin="round" stroke-width="2"/>
          </a>
          <a xlink:href="https://www.notion.so/dmmnotes/menacing-a5bd7149286344deba45ec15e759e579?pvs=4">
            <path id="C7-2" data-name="C7" d="M391.402587890625909,500.140380859369543l22.832519531239086,49.996826171878638c23.989990234388642-10.975830078117724,46.116210937521828-25.287109375010914,65.803955078138642-42.36181640625l-35.972900390627728-41.515869140617724c-15.753417968760914,13.65869140625-33.459228515628638,25.104492187489086-52.66357421875,33.880859374989086Z" fill="#8f807d" stroke="#181818" stroke-linecap="round" stroke-linejoin="round" stroke-width="2"/>
          </a>
          <a xlink:href="https://www.notion.so/dmmnotes/seductively-obsessed-with-rescue-6fb5a68f6d334bc29ccccc16d8a4e56e?pvs=4">
            <path id="C6-2" data-name="C6" d="M444.066162109375909,466.259521484380457l35.972900390627728,41.515869140617724c19.762939453122272-17.141845703128638,37.047119140622272-37.041748046878638,51.26708984375-59.125l-46.223632812506366-29.704833984367724c-11.373291015621362,17.673583984367724-25.201171874993634,33.598876953117724-41.016357421871362,47.31396484375Z" fill="#8f807d" stroke="#181818" stroke-linecap="round" stroke-linejoin="round" stroke-width="2"/>
          </a>
          <a xlink:href="https://www.notion.so/dmmnotes/punitively-obsessed-with-revenge-33d2e77f37774316b42bccf4a60f9688?pvs=4">
            <path id="C5-2" data-name="C5" d="M485.082519531247272,418.945556640630457l46.223632812506366,29.704833984367724c14.048095703133185-21.809326171878638,25.08837890625-45.71875,32.551513671872272-71.175048828128638l-52.7548828125-15.490234375c-5.9619140625,20.377929687510914-14.789306640622272,39.509765625-26.020263671878638,56.960449218760914Z" fill="#8f807d" stroke="#181818" stroke-linecap="round" stroke-linejoin="round" stroke-width="2"/>
          </a>
          <a xlink:href="https://www.notion.so/dmmnotes/feigned-helpless-e79a94b0498c4e109a681b7f3dcdb088?pvs=4">
            <path id="C4-2" data-name="C4" d="M519.999999999997272,300c0,21.538085937498181-3.142089843743634,42.321533203119543-8.897216796871362,61.985107421869543l52.7548828125,15.490234375c7.2080078125-24.583496093739086,11.142333984371362-50.5634765625,11.142333984371362-77.475341796869543h-55Z" fill="#8f807d" stroke="#181818" stroke-linecap="round" stroke-linejoin="round" stroke-width="2"/>
          </a>
          <a xlink:href="https://www.notion.so/dmmnotes/aggressive-2d8ccce383534b9dbfc7b4b10b8a5d5c?pvs=4">
            <path id="C3-2" data-name="C3" d="M519.999999999997272,300h55c0-26.911865234390461-3.934326171871362-52.894531250011823-11.142333984371362-77.475341796890461l-52.7548828125,15.490234375c5.755126953127728,19.663574218760914,8.897216796871362,40.449707031260914,8.897216796871362,61.985107421890461Z" fill="#8f807d" stroke="#181818" stroke-linecap="round" stroke-linejoin="round" stroke-width="2"/>
          </a>
          <a xlink:href="https://www.notion.so/dmmnotes/disarming-086276e599884c86b9359acf831a8b20?pvs=4">
            <path id="C2-2" data-name="C2" d="M511.102783203125909,238.014892578109539l52.7548828125-15.490234375c-7.463134765622272-25.456298828121362-18.503417968739086-49.365722656239086-32.551513671872272-71.177734374989086l-46.223632812506366,29.70751953125c11.230957031256366,17.45068359375,20.055664062506366,36.585205078117724,26.020263671878638,56.960449218739086Z" fill="#8f807d" stroke="#181818" stroke-linecap="round" stroke-linejoin="round" stroke-width="2"/>
          </a>
          <a xlink:href="https://www.notion.so/dmmnotes/threatening-348fe6a52f7a4fe69f768e98c6586932?pvs=4">
            <path id="C1-2" data-name="C1" d="M485.082519531247272,181.054443359370453l46.223632812506366-29.70751953125c-14.219970703127728-22.08056640625-31.504150390627728-41.980468750010914-51.26708984375-59.122314453120453l-35.972900390627728,41.518554687488177c15.815185546877728,13.71240234375,29.64306640625,29.637695312511823,41.016357421871362,47.311279296882276Z" fill="#8f807d" stroke="#181818" stroke-linecap="round" stroke-linejoin="round" stroke-width="2"/>
          </a>
          <a xlink:href="https://www.notion.so/dmmnotes/complaining-acceptance-8b40401a720c493ba73f7cde1567cf3d?pvs=4">
            <path id="B5-2" data-name="B5" d="M444.066162109375909,133.743164062488177l35.972900390627728-41.518554687488177c-19.687744140616815-17.07470703125-41.81396484375-31.388671875-65.803955078138642-42.36181640625l-22.832519531239086,49.99951171875c19.204345703121362,8.773681640620453,36.910156249989086,20.22216796875,52.66357421875,33.880859374988177Z" fill="#8f807d" stroke="#181818" stroke-linecap="round" stroke-linejoin="round" stroke-width="2"/>
          </a>
          <a xlink:href="https://www.notion.so/dmmnotes/sentimental-bc554363322342b1b7ca4ccc02125049?pvs=4">
            <path id="B4-2" data-name="B4" d="M391.402587890625909,99.8623046875l22.832519531239086-49.99951171875c-23.455566406228172-10.7314453125-48.662109375-18.275146484390461-75.101318359367724-22.042968749990905l-7.825683593743634,54.433349609361358c21.159423828122272,3.0078125,41.327880859372272,9.034179687489086,60.094482421872272,17.609130859379547Z" fill="#8f807d" stroke="#181818" stroke-linecap="round" stroke-linejoin="round" stroke-width="2"/>
          </a>
          <a xlink:href="https://www.notion.so/dmmnotes/comfortably-balanced-e76dc615a8b947aa915377cd02fcf716?pvs=4">
            <path id="B3-2" data-name="B3" d="M299.999999999997272,80c10.634765625,0,21.078857421871362.797607421870453,31.308105468756366,2.253173828120453l7.825683593743634-54.433349609361358c-12.788574218739086-1.823486328138642-25.843017578128638-2.819824218759095-39.1337890625-2.819824218759095-13.290771484368634,0-26.34521484375.996337890620453-39.133789062489086,2.819824218759095l7.825683593739086,54.433349609361358c10.23193359375-1.45556640625,20.67333984375-2.253173828120453,31.30810546875-2.253173828120453Z" fill="#8f807d" stroke="#181818" stroke-linecap="round" stroke-linejoin="round" stroke-width="2"/>
          </a>
          <a xlink:href="https://www.notion.so/dmmnotes/accepting-317d81273fff4cd9817cdf4a88efd378?pvs=4">
            <g id="B2-2" data-name="B2">
              <path d="M208.60009765625,100.862304687494543c-.1181640625,0-.236328125-.02099609375-.349609375-.06298828125-.24853515625-.0927734375-.44970703125-.2802734375-.56005859375-.521484375l-22.83251953125-49.99951171875c-.2294921875-.50244140625-.00830078125-1.09521484375.49365234375-1.32470703125,23.9765625-10.97021484375,49.3359375-18.41357421875,75.37353515625-22.1240234375.0478515625-.00634765625.09521484375-.009765625.142578125-.009765625.4892578125,0,.91650390625.359375.98828125.85791015625l7.82568359375,54.43359375c.0380859375.2626953125-.0302734375.52978515625-.189453125.7421875-.15966796875.21240234375-.396484375.3525390625-.65966796875.39013671875-20.66796875,2.93798828125-40.79296875,8.83544921875-59.81689453125,17.5283203125-.1318359375.06005859375-.2734375.09033203125-.41552734375.09033203125Z" fill="#2e8390" stroke-width="0"/>
              <path d="M260.8662109375,27.819824218744543l7.82568359375,54.433349609375c-21.15673828125,3.0078125-41.3251953125,9.0341796875-60.091796875,17.609130859375l-22.83251953125-49.99951171875c23.45556640625-10.7314453125,48.659423828125-18.275146484375,75.0986328125-22.04296875M260.86871337890625,25.819564819330481c-.09393310546875,0-.18896484375.006622314453125-.28466796875.020248413085938-26.13360595703125,3.72430419921875-51.58551025390625,11.19488525390625-75.64849853515625,22.20428466796875-1.0040283203125.459320068359375-1.44580078125,1.645233154296875-.9873046875,2.64947509765625l22.83251953125,49.999526977539062c.220458984375.482559204101562.62353515625.857818603515625,1.12060546875,1.043167114257812.2255859375.084152221679688.46240234375.12603759765625.69873046875.12603759765625.2841796875,0,.5677490234375-.060531616210938.8311767578125-.180908203125,18.93768310546875-8.653106689453125,38.9705810546875-14.523513793945312,59.5421142578125-17.448135375976562.52569580078125-.074737548828125,1.00006103515625-.355438232421875,1.318603515625-.780258178710938s.455078125-.9588623046875.3795166015625-1.48443603515625l-7.82562255859375-54.433349609375c-.143310546875-.9967041015625-.99859619140625-1.715652465820312-1.9771728515625-1.715652465820312h0Z" fill="#181818" stroke-width="0"/>
            </g>
          </a>
          <a xlink:href="https://www.notion.so/dmmnotes/distanced-from-past-2eabab7e9c77429f8e577f4e3e203653?pvs=4">
            <path id="B1-2" data-name="B1" d="M208.60009765625,99.8623046875l-22.83251953125-49.99951171875c-23.99267578125,10.97314453125-46.1162109375,25.287109375-65.803955078119543,42.36181640625l35.972900390619543,41.515869140620453c15.75341796875-13.658691406260914,33.4619140625-25.1044921875,52.66357421875-33.878173828120453Z" fill="#8f807d" stroke="#181818" stroke-linecap="round" stroke-linejoin="round" stroke-width="2"/>
          </a>
          <a xlink:href="https://www.notion.so/dmmnotes/idealising-a52277f51ed14a42aae78081bb34b8be?pvs=4">
            <path id="A1-2" data-name="A1" d="M155.9365234375,133.740478515620453l-35.972900390619543-41.515869140620453c-19.765625,17.141845703109539-37.049804687510914,37.041748046870453-51.269775390630457,59.122314453120453l46.226318359369543,29.70751953125c11.373291015640461-17.673583984370453,25.201171875010914-33.598876953132276,41.016357421880457-47.31396484375Z" fill="#8f807d" stroke="#181818" stroke-linecap="round" stroke-linejoin="round" stroke-width="2"/>
          </a>
          <a xlink:href="https://www.notion.so/dmmnotes/distancing-9ac690cdca654729a17a5a255944e2d1?pvs=4">
            <path id="A2-2" data-name="A2" d="M114.920166015619543,181.054443359370453l-46.226318359369543-29.70751953125c-14.04541015625,21.81201171875-25.08837890625,45.721435546867724-32.551513671880457,71.177734374989086l52.754882812510914,15.490234375c5.964599609369543-20.375244140621362,14.7919921875-39.509765624989086,26.022949218739086-56.960449218739086Z" fill="#8f807d" stroke="#181818" stroke-linecap="round" stroke-linejoin="round" stroke-width="2"/>
          </a>
          <a xlink:href="https://www.notion.so/dmmnotes/compulsive-caregiving-9c380c0928294f41ae10764aa0dee886?pvs=4">
            <path id="A3-2" data-name="A3" d="M88.897216796880457,238.014892578109539l-52.754882812510914-15.490234375c-7.205322265619543,24.580810546878638-11.142333984369543,50.5634765625-11.142333984369543,77.475341796890461h55c0-21.535400390629547,3.14208984375-42.321533203129547,8.897216796880457-61.985107421890461Z" fill="#8f807d" stroke="#181818" stroke-linecap="round" stroke-linejoin="round" stroke-width="2"/>
          </a>
          <a xlink:href="https://www.notion.so/dmmnotes/compulsive-compliance-6d08b7ea9a424ce1a72b9184b7850414?pvs=4">
            <path id="A4-2" data-name="A4" d="M80,300H25c0,26.911865234369543,3.93701171875,52.894531249987267,11.142333984369543,77.475341796869543l52.754882812510914-15.490234375c-5.755126953130457-19.66357421875-8.897216796880457-40.447021484371362-8.897216796880457-61.985107421869543Z" fill="#8f807d" stroke="#181818" stroke-linecap="round" stroke-linejoin="round" stroke-width="2"/>
          </a>
          <a xlink:href="https://www.notion.so/dmmnotes/sexual-supplementation-8e85f49046ef412aa229745abf7d38d3?pvs=4">
            <path id="A5-2" data-name="A5" d="M88.897216796880457,361.985107421869543l-52.754882812510914,15.490234375c7.463134765630457,25.456298828128638,18.506103515630457,49.36572265625,32.551513671880457,71.175048828128638l46.223632812510004-29.704833984367724c-11.230957031260004-17.450683593760914-20.055664062510004-36.58251953125-26.020263671879547-56.960449218760914Z" fill="#8f807d" stroke="#181818" stroke-linecap="round" stroke-linejoin="round" stroke-width="2"/>
          </a>
          <a xlink:href="https://www.notion.so/dmmnotes/compulsive-isolated-self-reliance-b321873a73fa41aaaadd7192fde856a2?pvs=4">
            <path id="A6-2" data-name="A6" d="M114.917480468760004,418.945556640630457l-46.223632812510004,29.704833984367724c14.219970703119543,22.083251953121362,31.504150390630457,41.983154296871362,51.269775390630457,59.125l35.972900390619543-41.515869140617724c-15.815185546869543-13.712402343760914-29.643066406239996-29.637695312510914-41.019042968739996-47.31396484375Z" fill="#8f807d" stroke="#181818" stroke-linecap="round" stroke-linejoin="round" stroke-width="2"/>
          </a>
          <a xlink:href="https://www.notion.so/dmmnotes/delusional-idealization-743e2420b9994a48a7cab68190432e8a?pvs=4">
            <path id="A7-2" data-name="A7" d="M155.9365234375,466.259521484380457l-35.972900390619543,41.515869140617724c19.687744140619543,17.074707031239086,41.811279296869543,31.385986328132276,65.803955078119543,42.36181640625l22.83251953125-49.996826171878638c-19.20166015625-8.773681640621362-36.91015625-20.222167968739086-52.66357421875-33.880859374989086Z" fill="#8f807d" stroke="#181818" stroke-linecap="round" stroke-linejoin="round" stroke-width="2"/>
          </a>
          <a xlink:href="https://www.notion.so/dmmnotes/externally-assembled-self-994ecb0895b844409b931d74a045c162?pvs=4">
            <path id="A8-2" data-name="A8" d="M208.60009765625,500.140380859369543l-22.83251953125,49.996826171878638c23.45556640625,10.7314453125,48.659423828119543,18.275146484371362,75.098632812508185,22.04296875l7.825683593739086-54.4306640625c-21.15673828125-3.0078125-41.325195312497272-9.0341796875-60.091796874997272-17.609130859378638Z" fill="#8f807d" stroke="#181818" stroke-linecap="round" stroke-linejoin="round" stroke-width="2"/>
          </a>
          <a xlink:href="https://www.notion.so/dmmnotes/psychopathy-0fe4a3222d9f4fd097ab4546c9776768?pvs=4">
            <path id="AC-2" data-name="AC" d="M299.999999999997272,519.999999999998181c-10.634765625,0-21.076171875-.794921875-31.30810546875-2.25048828125l-7.825683593739086,54.4306640625c12.788574218739086,1.823486328132276,25.843017578120453,2.81982421875,39.133789062489086,2.81982421875,13.290771484371362,0,26.345214843760914-.996337890617724,39.1337890625-2.81982421875l-7.825683593743634-54.4306640625c-10.229248046885004,1.45556640625-20.673339843756366,2.25048828125-31.308105468756366,2.25048828125Z" fill="#8f807d" stroke="#181818" stroke-linecap="round" stroke-linejoin="round" stroke-width="2"/>
          </a>
        </g>
      </g>
      <a xlink:href="https://www.notion.so/dmmnotes/B2-317d81273fff4cd9817cdf4a88efd378?pvs=4#c9d670214a7a4332a7440ba0b9fa6595">
        <g id="B2-3" data-name="B2">
          <a xlink:href="https://www.notion.so/dmmnotes/B2-317d81273fff4cd9817cdf4a88efd378?pvs=4#c9d670214a7a4332a7440ba0b9fa6595">
            <g id="B2-4" data-name="B2">
              <path d="M300.0546875,414.710937499994543c-23.908203125,0-46.1787109375-12.849609375-58.12060546875-33.5341796875-8.95458984375-15.509765625-11.33349609375-33.578125-6.6982421875-50.8779296875,4.63525390625-17.298828125,15.72998046875-31.7578125,31.23974609375-40.71240234375,10.189453125-5.8828125,21.76318359375-8.99267578125,33.4697265625-8.99267578125,23.90771484375,0,46.17822265625,12.849609375,58.12060546875,33.5341796875,18.4853515625,32.017578125,7.47607421875,73.10546875-24.54150390625,91.5908203125-10.189453125,5.8828125-21.76318359375,8.9921875-33.4697265625,8.9921875Z" fill="url(#B2-5)" stroke-width="0"/>
              <path d="M299.94525146484375,289.093933105463293c20.23565673828125-.001068115234375,39.91436767578125,10.500091552734375,50.75933837890625,29.28411865234375,16.16778564453125,28.00347900390625,6.57305908203125,63.811309814453125-21.43035888671875,79.97906494140625-9.2193603515625,5.32281494140625-19.287841796875,7.85382080078125-29.21966552734375,7.85382080078125-20.2357177734375,0-39.91436767578125-10.5001220703125-50.75933837890625-29.28411865234375-16.16778564453125-28.00341796875-6.5731201171875-63.811279296875,21.4302978515625-79.97906494140625,9.2193603515625-5.32281494140625,19.287841796875-7.853271484375,29.2197265625-7.85382080078125M299.94830322265625,272.093933105463293v17l-.00079345703125-17c-13.20013427734375.000701904296875-26.24310302734375,3.504058837890625-37.72198486328125,10.13140869140625-36.07666015625,20.828826904296875-48.48162841796875,67.12481689453125-27.6527099609375,103.20147705078125,13.45574951171875,23.30609130859375,38.546875,37.78411865234375,65.481689453125,37.78411865234375,13.19635009765625,0,26.23968505859375-3.50335693359375,37.7197265625-10.13140869140625,36.07659912109375-20.828857421875,48.4815673828125-67.124755859375,27.65283203125-103.20147705078125-13.455810546875-23.306121826171875-38.5457763671875-37.78411865234375-65.478759765625-37.78411865234375h0Z" fill="#181818" stroke-width="0"/>
            </g>
          </a>
          <a xlink:href="https://www.notion.so/dmmnotes/B2-317d81273fff4cd9817cdf4a88efd378?pvs=4#c9d670214a7a4332a7440ba0b9fa6595">
            <g>
              <g>
                <path d="M286.96875,266.791992187494543c4.6044921875,3.5595703125,8.0322265625,7.982421875,10.2841796875,13.2666015625,2.2490234375,5.287109375,2.9560546875,10.7548828125,2.119140625,16.40625-.9423828125,6.3857421875-3.4541015625,11.7509765625-7.5361328125,16.0927734375-4.08203125,4.3447265625-8.8974609375,7.771484375-14.4443359375,10.283203125-5.548828125,2.5126953125-11.5390625,4.1875-17.9765625,5.0244140625-6.4365234375.8369140625-12.4814453125.9423828125-18.1328125.314453125-.525390625.2080078125-.99609375.337890625-1.4130859375.392578125-.419921875.05078125-.890625.1298828125-1.4130859375.2353515625-1.8837890625.1025390625-3.822265625.1025390625-5.80859375,0-1.990234375-.10546875-3.7958984375-.447265625-5.4169921875-1.0205078125-1.6240234375-.57421875-3.009765625-1.5166015625-4.16015625-2.826171875-1.1533203125-1.3076171875-1.8330078125-3.1650390625-2.041015625-5.5732421875-.2109375-1.1513671875-.2626953125-3.478515625-.1572265625-6.9873046875.1025390625-3.5048828125.2080078125-7.771484375.3134765625-12.794921875.208984375-5.126953125.392578125-10.701171875.5498046875-16.720703125.1572265625-6.017578125.287109375-12.0615234375.392578125-18.1337890625.103515625-7.953125.208984375-15.9599609375.314453125-24.0205078125.1025390625-8.05859375-.2109375-16.1708984375-.9423828125-24.3349609375-.2109375-.9423828125-.10546875-1.7783203125.314453125-2.51171875.2080078125-.62890625.6787109375-1.2294921875,1.412109375-1.8056640625.7314453125-.57421875,1.830078125-.966796875,3.2978515625-1.177734375,1.044921875-.103515625,2.197265625-.259765625,3.453125-.470703125,1.2568359375-.208984375,2.564453125-.3662109375,3.92578125-.4716796875,1.3583984375-.1025390625,2.6689453125-.1025390625,3.9248046875,0,1.255859375.10546875,2.3544921875.314453125,3.296875.6279296875,5.337890625-.73046875,10.9365234375-.7578125,16.798828125-.078125,5.8603515625.681640625,11.3828125,2.068359375,16.5634765625,4.16015625,5.181640625,2.095703125,9.6806640625,4.89453125,13.501953125,8.3994140625,3.8193359375,3.5087890625,6.3583984375,7.771484375,7.615234375,12.7958984375.5224609375,2.1982421875.8359375,4.501953125.94140625,6.908203125.103515625,2.4091796875-.1572265625,4.8935546875-.78515625,7.45703125-.6279296875,2.56640625-1.6484375,5.2353515625-3.0615234375,8.0068359375-1.4130859375,2.775390625-3.3232421875,5.6279296875-5.73046875,8.556640625ZM246.1494140625,257.529296874994543c5.0234375.2109375,9.2626953125-.314453125,12.716796875-1.5703125s6.0439453125-2.904296875,7.771484375-4.9453125c1.7265625-2.041015625,2.5634765625-4.263671875,2.51171875-6.6728515625-.0537109375-2.40625-.96875-4.552734375-2.7470703125-6.4365234375-1.78125-1.8837890625-4.4501953125-3.3212890625-8.0068359375-4.3173828125-3.5595703125-.9931640625-8.0615234375-1.1240234375-13.5029296875-.392578125.314453125,4.08203125.5498046875,8.1123046875.70703125,12.0888671875.1572265625,3.9794921875.3388671875,8.0615234375.5498046875,12.24609375ZM246.6201171875,303.059570312494543c5.65234375.6279296875,10.4130859375.3681640625,14.287109375-.78515625,3.87109375-1.150390625,6.775390625-2.720703125,8.712890625-4.7099609375,1.935546875-1.9873046875,2.9296875-4.1337890625,2.9833984375-6.4375.0517578125-2.30078125-.86328125-4.2900390625-2.7470703125-5.9658203125-1.884765625-1.6728515625-4.7646484375-2.798828125-8.6357421875-3.375-3.873046875-.57421875-8.740234375-.181640625-14.6005859375,1.1767578125v20.0966796875Z" fill="none" stroke="#181818" stroke-linecap="round" stroke-linejoin="round" stroke-width="33"/>
                <path d="M374.5751953125,303.215820312494543c.73046875,0,1.3076171875.341796875,1.7265625,1.0205078125.4169921875.6826171875.7578125,1.4677734375,1.0205078125,2.35546875.259765625.890625.4169921875,1.8056640625.4716796875,2.7470703125.05078125.9423828125.078125,1.6240234375.078125,2.041015625,0,1.884765625-.0537109375,3.8466796875-.1572265625,5.8876953125-.10546875,2.041015625-.3134765625,3.9248046875-.6279296875,5.65234375-.3134765625,1.7265625-.78515625,3.1943359375-1.4130859375,4.3955078125-.6279296875,1.2021484375-1.5185546875,1.9091796875-2.6689453125,2.1201171875-.5244140625.2080078125-1.6484375.259765625-3.375.1572265625-1.7275390625-.10546875-3.794921875-.2626953125-6.2021484375-.4716796875-2.51171875-.2109375-5.2080078125-.392578125-8.0849609375-.548828125-2.8798828125-.1572265625-5.8359375-.2900390625-8.87109375-.392578125-3.037109375-.10546875-5.9658203125-.1572265625-8.7919921875-.1572265625s-5.337890625.0517578125-7.5361328125.1572265625c-1.8837890625.2080078125-4.2138671875.3134765625-6.986328125.3134765625-2.7744140625,0-5.15625-.1572265625-7.1435546875-.470703125-1.5693359375-.314453125-2.7744140625-1.54296875-3.6103515625-3.689453125-.8388671875-2.14453125-1.3349609375-4.68359375-1.4921875-7.6142578125-.15625-2.9296875.0791015625-5.9912109375.70703125-9.1845703125.6279296875-3.19140625,1.5693359375-5.9912109375,2.826171875-8.3994140625,1.986328125-3.4541015625,4.23828125-6.5673828125,6.7509765625-9.341796875,2.51171875-2.7724609375,5.126953125-5.44140625,7.849609375-8.0068359375,2.720703125-2.5634765625,5.4951171875-5.154296875,8.3212890625-7.771484375,2.826171875-2.615234375,5.59765625-5.44140625,8.3203125-8.478515625,1.1513671875-1.255859375,2.4580078125-3.0859375,3.92578125-5.4951171875,1.4638671875-2.40625,2.5634765625-4.8125,3.296875-7.2216796875.94140625-3.1396484375.8876953125-5.546875-.1572265625-7.2216796875-1.0478515625-1.673828125-2.5390625-2.6943359375-4.474609375-3.0615234375-1.9375-.3662109375-4.0576171875-.103515625-6.3583984375.78515625-2.3037109375.8896484375-4.29296875,2.330078125-5.9658203125,4.3173828125-1.466796875,1.8837890625-2.5390625,4.08203125-3.21875,6.59375-.681640625,2.51171875-.5498046875,5.078125.392578125,7.693359375.208984375.5244140625.4443359375,1.1259765625.7060546875,1.8046875.2607421875.6826171875.4443359375,1.3349609375.5498046875,1.962890625.103515625,1.466796875-.86328125,2.9580078125-2.904296875,4.474609375-2.041015625,1.5185546875-4.4228515625,2.6171875-7.1435546875,3.296875-2.72265625.681640625-5.3916015625.7333984375-8.0068359375.1572265625-2.6171875-.57421875-4.4501953125-2.22265625-5.4951171875-4.9453125-1.1533203125-3.7685546875-1.6484375-7.509765625-1.4912109375-11.2255859375.15625-3.71484375.78515625-7.3251953125,1.8837890625-10.8330078125,1.0986328125-3.505859375,2.6689453125-6.830078125,4.7099609375-9.9697265625s4.4208984375-5.912109375,7.1435546875-8.3212890625c2.9287109375-2.615234375,6.3046875-4.7099609375,10.1259765625-6.2802734375,3.8203125-1.5693359375,7.771484375-2.51171875,11.853515625-2.8251953125,4.08203125-.314453125,8.0859375.0537109375,12.0107421875,1.0986328125,3.9248046875,1.0478515625,7.4580078125,2.931640625,10.59765625,5.65234375,2.51171875,2.0947265625,4.4990234375,4.474609375,5.9658203125,7.1435546875,1.46484375,2.6689453125,2.51171875,5.494140625,3.140625,8.4775390625.6279296875,2.9833984375.86328125,6.044921875.7060546875,9.1845703125s-.603515625,6.2802734375-1.3349609375,9.419921875c-1.15234375,4.607421875-2.904296875,8.7919921875-5.2587890625,12.560546875-2.35546875,3.767578125-5,7.353515625-7.9287109375,10.75390625-2.931640625,3.40234375-6.044921875,6.69921875-9.341796875,9.890625-3.296875,3.1943359375-6.515625,6.46484375-9.6552734375,9.8125,10.1513671875-.4169921875,20.3564453125-.4169921875,30.615234375,0Z" fill="none" stroke="#181818" stroke-linecap="round" stroke-linejoin="round" stroke-width="33"/>
              </g>
              <g>
                <path d="M286.96875,266.791992187494543c4.6044921875,3.5595703125,8.0322265625,7.982421875,10.2841796875,13.2666015625,2.2490234375,5.287109375,2.9560546875,10.7548828125,2.119140625,16.40625-.9423828125,6.3857421875-3.4541015625,11.7509765625-7.5361328125,16.0927734375-4.08203125,4.3447265625-8.8974609375,7.771484375-14.4443359375,10.283203125-5.548828125,2.5126953125-11.5390625,4.1875-17.9765625,5.0244140625-6.4365234375.8369140625-12.4814453125.9423828125-18.1328125.314453125-.525390625.2080078125-.99609375.337890625-1.4130859375.392578125-.419921875.05078125-.890625.1298828125-1.4130859375.2353515625-1.8837890625.1025390625-3.822265625.1025390625-5.80859375,0-1.990234375-.10546875-3.7958984375-.447265625-5.4169921875-1.0205078125-1.6240234375-.57421875-3.009765625-1.5166015625-4.16015625-2.826171875-1.1533203125-1.3076171875-1.8330078125-3.1650390625-2.041015625-5.5732421875-.2109375-1.1513671875-.2626953125-3.478515625-.1572265625-6.9873046875.1025390625-3.5048828125.2080078125-7.771484375.3134765625-12.794921875.208984375-5.126953125.392578125-10.701171875.5498046875-16.720703125.1572265625-6.017578125.287109375-12.0615234375.392578125-18.1337890625.103515625-7.953125.208984375-15.9599609375.314453125-24.0205078125.1025390625-8.05859375-.2109375-16.1708984375-.9423828125-24.3349609375-.2109375-.9423828125-.10546875-1.7783203125.314453125-2.51171875.2080078125-.62890625.6787109375-1.2294921875,1.412109375-1.8056640625.7314453125-.57421875,1.830078125-.966796875,3.2978515625-1.177734375,1.044921875-.103515625,2.197265625-.259765625,3.453125-.470703125,1.2568359375-.208984375,2.564453125-.3662109375,3.92578125-.4716796875,1.3583984375-.1025390625,2.6689453125-.1025390625,3.9248046875,0,1.255859375.10546875,2.3544921875.314453125,3.296875.6279296875,5.337890625-.73046875,10.9365234375-.7578125,16.798828125-.078125,5.8603515625.681640625,11.3828125,2.068359375,16.5634765625,4.16015625,5.181640625,2.095703125,9.6806640625,4.89453125,13.501953125,8.3994140625,3.8193359375,3.5087890625,6.3583984375,7.771484375,7.615234375,12.7958984375.5224609375,2.1982421875.8359375,4.501953125.94140625,6.908203125.103515625,2.4091796875-.1572265625,4.8935546875-.78515625,7.45703125-.6279296875,2.56640625-1.6484375,5.2353515625-3.0615234375,8.0068359375-1.4130859375,2.775390625-3.3232421875,5.6279296875-5.73046875,8.556640625ZM246.1494140625,257.529296874994543c5.0234375.2109375,9.2626953125-.314453125,12.716796875-1.5703125s6.0439453125-2.904296875,7.771484375-4.9453125c1.7265625-2.041015625,2.5634765625-4.263671875,2.51171875-6.6728515625-.0537109375-2.40625-.96875-4.552734375-2.7470703125-6.4365234375-1.78125-1.8837890625-4.4501953125-3.3212890625-8.0068359375-4.3173828125-3.5595703125-.9931640625-8.0615234375-1.1240234375-13.5029296875-.392578125.314453125,4.08203125.5498046875,8.1123046875.70703125,12.0888671875.1572265625,3.9794921875.3388671875,8.0615234375.5498046875,12.24609375ZM246.6201171875,303.059570312494543c5.65234375.6279296875,10.4130859375.3681640625,14.287109375-.78515625,3.87109375-1.150390625,6.775390625-2.720703125,8.712890625-4.7099609375,1.935546875-1.9873046875,2.9296875-4.1337890625,2.9833984375-6.4375.0517578125-2.30078125-.86328125-4.2900390625-2.7470703125-5.9658203125-1.884765625-1.6728515625-4.7646484375-2.798828125-8.6357421875-3.375-3.873046875-.57421875-8.740234375-.181640625-14.6005859375,1.1767578125v20.0966796875Z" fill="#fff" stroke-width="0"/>
                <path d="M374.5751953125,303.215820312494543c.73046875,0,1.3076171875.341796875,1.7265625,1.0205078125.4169921875.6826171875.7578125,1.4677734375,1.0205078125,2.35546875.259765625.890625.4169921875,1.8056640625.4716796875,2.7470703125.05078125.9423828125.078125,1.6240234375.078125,2.041015625,0,1.884765625-.0537109375,3.8466796875-.1572265625,5.8876953125-.10546875,2.041015625-.3134765625,3.9248046875-.6279296875,5.65234375-.3134765625,1.7265625-.78515625,3.1943359375-1.4130859375,4.3955078125-.6279296875,1.2021484375-1.5185546875,1.9091796875-2.6689453125,2.1201171875-.5244140625.2080078125-1.6484375.259765625-3.375.1572265625-1.7275390625-.10546875-3.794921875-.2626953125-6.2021484375-.4716796875-2.51171875-.2109375-5.2080078125-.392578125-8.0849609375-.548828125-2.8798828125-.1572265625-5.8359375-.2900390625-8.87109375-.392578125-3.037109375-.10546875-5.9658203125-.1572265625-8.7919921875-.1572265625s-5.337890625.0517578125-7.5361328125.1572265625c-1.8837890625.2080078125-4.2138671875.3134765625-6.986328125.3134765625-2.7744140625,0-5.15625-.1572265625-7.1435546875-.470703125-1.5693359375-.314453125-2.7744140625-1.54296875-3.6103515625-3.689453125-.8388671875-2.14453125-1.3349609375-4.68359375-1.4921875-7.6142578125-.15625-2.9296875.0791015625-5.9912109375.70703125-9.1845703125.6279296875-3.19140625,1.5693359375-5.9912109375,2.826171875-8.3994140625,1.986328125-3.4541015625,4.23828125-6.5673828125,6.7509765625-9.341796875,2.51171875-2.7724609375,5.126953125-5.44140625,7.849609375-8.0068359375,2.720703125-2.5634765625,5.4951171875-5.154296875,8.3212890625-7.771484375,2.826171875-2.615234375,5.59765625-5.44140625,8.3203125-8.478515625,1.1513671875-1.255859375,2.4580078125-3.0859375,3.92578125-5.4951171875,1.4638671875-2.40625,2.5634765625-4.8125,3.296875-7.2216796875.94140625-3.1396484375.8876953125-5.546875-.1572265625-7.2216796875-1.0478515625-1.673828125-2.5390625-2.6943359375-4.474609375-3.0615234375-1.9375-.3662109375-4.0576171875-.103515625-6.3583984375.78515625-2.3037109375.8896484375-4.29296875,2.330078125-5.9658203125,4.3173828125-1.466796875,1.8837890625-2.5390625,4.08203125-3.21875,6.59375-.681640625,2.51171875-.5498046875,5.078125.392578125,7.693359375.208984375.5244140625.4443359375,1.1259765625.7060546875,1.8046875.2607421875.6826171875.4443359375,1.3349609375.5498046875,1.962890625.103515625,1.466796875-.86328125,2.9580078125-2.904296875,4.474609375-2.041015625,1.5185546875-4.4228515625,2.6171875-7.1435546875,3.296875-2.72265625.681640625-5.3916015625.7333984375-8.0068359375.1572265625-2.6171875-.57421875-4.4501953125-2.22265625-5.4951171875-4.9453125-1.1533203125-3.7685546875-1.6484375-7.509765625-1.4912109375-11.2255859375.15625-3.71484375.78515625-7.3251953125,1.8837890625-10.8330078125,1.0986328125-3.505859375,2.6689453125-6.830078125,4.7099609375-9.9697265625s4.4208984375-5.912109375,7.1435546875-8.3212890625c2.9287109375-2.615234375,6.3046875-4.7099609375,10.1259765625-6.2802734375,3.8203125-1.5693359375,7.771484375-2.51171875,11.853515625-2.8251953125,4.08203125-.314453125,8.0859375.0537109375,12.0107421875,1.0986328125,3.9248046875,1.0478515625,7.4580078125,2.931640625,10.59765625,5.65234375,2.51171875,2.0947265625,4.4990234375,4.474609375,5.9658203125,7.1435546875,1.46484375,2.6689453125,2.51171875,5.494140625,3.140625,8.4775390625.6279296875,2.9833984375.86328125,6.044921875.7060546875,9.1845703125s-.603515625,6.2802734375-1.3349609375,9.419921875c-1.15234375,4.607421875-2.904296875,8.7919921875-5.2587890625,12.560546875-2.35546875,3.767578125-5,7.353515625-7.9287109375,10.75390625-2.931640625,3.40234375-6.044921875,6.69921875-9.341796875,9.890625-3.296875,3.1943359375-6.515625,6.46484375-9.6552734375,9.8125,10.1513671875-.4169921875,20.3564453125-.4169921875,30.615234375,0Z" fill="#fff" stroke-width="0"/>
              </g>
            </g>
          </a>
        </g>
      </a>
    </g>
  </g>
</svg>