<?xml version="1.0" encoding="UTF-8"?>
<svg id="Pattern" xmlns="http://www.w3.org/2000/svg" xmlns:xlink="http://www.w3.org/1999/xlink" viewBox="0 0 280 280">
  <defs>
    <radialGradient id="radial-gradient" cx="172.914893617021335" cy="126.702127659575126" fx="172.914893617021335" fy="126.702127659575126" r="167.196422599870345" gradientUnits="userSpaceOnUse">
      <stop offset="0" stop-color="#b6aaa7"/>
      <stop offset=".254363461884818" stop-color="#a9988f"/>
      <stop offset="1" stop-color="#876c59"/>
    </radialGradient>
  </defs>
  <a xlink:href="https://www.notion.so/dmmnotes/regulate-f212a577efc44d08988e3a5ab4d42ebc?pvs=4">
    <g>
      <g>
        <path d="M157.325380823310297,39.556755604944556l-13.903531738521451,1.697547003008367c-1.129000074535725.137844882076024-2.155980824680228-.665645156505889-2.293825706755342-1.794645231040704l-.465824025666734-3.815269393981907c-.796728305921533-6.52549665413153-6.732564449849633-11.169580987379049-13.258061103982072-10.372852681456607l-34.041485896323138,4.156283701726352c-6.52549665413062.796728305922443-11.169580987376321,6.732564449850543-10.372852681456607,13.258061103982072l.465824025666734,3.815269393981907c.137844882075115,1.129000074534815-.665645156506798,2.155980824680228-1.794645231042523,2.293825706756252l-13.903531738520542,1.697547003008367c-9.787191444133896,1.194963827631-16.817195857637671,10.180363595440213-15.622232030005762,19.967555039576837l20.585492515137048,168.60272383035317c1.194963827631,9.787191444134805,10.180363595440213,16.817195857637671,19.967555039574108,15.622232030005762l89.567934096603494-10.935766605984099c9.787191444136624-1.194963827631909,16.817195857637671-10.180363595440213,15.622232030006671-19.967555039576837l-20.585492515137048-168.602723830351351c-1.194963827631909-9.787191444136624-10.180363595440213-16.81719585763949-19.967555039576837-15.622232030007581Z" fill="url(#radial-gradient)" stroke-width="0"/>
        <path d="M128.86155668218089,25.1826171875c5.93017578125.00006103515625,11.06396484375,4.42620849609375,11.80078125,10.4617919921875l.4658203125,3.81524658203125c.12744140625,1.0443115234375,1.01513671875,1.80999755859375,2.04150390625,1.80999755859375.0830078125,0,.16748046875-.0050048828125.251953125-.015380859375l13.90380859375-1.697509765625c.7294921875-.08905029296875,1.453125-.13238525390625,2.1708984375-.13238525390625,8.9111328125,0,16.6904296875,6.69677734375,17.79638671875,15.754638671875l20.5859375,168.60272216796875c1.19482421875,9.78717041015625-5.83544921875,18.7725830078125-15.62255859375,19.967529296875l-89.56787109375,10.935791015625c-.7294921875.08905029296875-1.453125.13238525390625-2.1708984375.13238525390625-8.9111328125,0-16.6904296875-6.69683837890625-17.79638671875-15.754638671875l-20.5859375-168.60272216796875c-1.19482421875-9.78717041015625,5.83544921875-18.7725830078125,15.62255859375-19.96759033203125l13.9033203125-1.697509765625c1.12890625-.13787841796875,1.9326171875-1.16485595703125,1.794921875-2.2938232421875l-.4658203125-3.8153076171875c-.796875-6.52545166015625,3.84716796875-12.4613037109375,10.37255859375-13.258056640625l34.04150390625-4.15625c.48974609375-.059814453125.97607421875-.0889892578125,1.45751953125-.08892822265625M128.86204496343089,8.1826171875h-.00048828125c-1.169921875,0-2.353515625.07208251953125-3.51806640625.21429443359375l-34.041015625,4.15618896484375c-7.6640625.93572998046875-14.50390625,4.79974365234375-19.26123046875,10.8802490234375-2.37158203125,3.03143310546875-4.083984375,6.43267822265625-5.0888671875,10.03125l-1.2548828125.1531982421875c-19.1171875,2.33416748046875-32.77099609375,19.78564453125-30.43701171875,38.90234375l20.5859375,168.60302734375c2.13623046875,17.49847412109375,17.04150390625,30.69427490234375,34.6708984375,30.69427490234375,1.4072265625,0,2.83056640625-.08673095703125,4.23095703125-.2576904296875l89.568359375-10.935791015625c19.11669921875-2.33404541015625,32.7705078125-19.7855224609375,30.4365234375-38.90228271484375l-20.5859375-168.60302734375c-2.13623046875-17.49847412109375-17.04150390625-30.6942138671875-34.6708984375-30.6942138671875-1.4072265625,0-2.83056640625.086669921875-4.23095703125.25762939453125l-1.2724609375.15533447265625c-5.0029296875-8.80865478515625-14.46435546875-14.6546630859375-25.130859375-14.65478515625h0Z" fill="#000" stroke-width="0"/>
      </g>
      <g opacity=".39">
        <line x1="69.515960716613336" y1="73.470274543862615" x2="89.60106709959291" y2="231.427721352373737" fill="none" stroke="#5b514f" stroke-linecap="round" stroke-width="12"/>
      </g>
      <g>
        <g opacity=".6">
          <path d="M114.15306058843089,66.78173828125c1.117018339466085,29.151369895598691-1.884072400443983,58.144429985804891-5.956797757158711,86.928965926341334-.000233492841289-.000010848216334-16.679920992841289-10.836924910716334-16.679920992841289-10.836924910716334,9.835057124514606-7.573833567305883,19.851357912146341-14.885847400542843,30.035643213816002-21.972963122270812,6.908174899765982-4.881570788952558,23.984523152553265-16.256539520280057,31.170190545929472-21.186977257572835-.000267353495474.000333446249897-3.067650165995474,24.718045848593647-3.067650165995474,24.718045848593647-4.613249176509271,35.464363748472351-10.79082868437672,70.952404884148564-22.55191422765165,104.908651038107564-4.402970393302894-35.663328544954311-3.024914383873693-71.661139533518508-.121737614670565-107.305309984017185.000311998572215-.000008534559129,17.870429186072215,10.540030527940871,17.870429186072215,10.540030527940871-3.35205078125,2.42041015625-6.708984375,4.833740234375-10.09423828125,7.20672607421875-16.095477957819639,11.491981994769958-36.852945894785989,24.421301482456329-53.724239740937264,35.088974669926756.000118647187264.000014587885744,6.100704584687264-25.251572326176756,6.100704584687264-25.251572326176756,6.999082522199387-28.216846675206398,15.070242245556983-56.223340334039676,27.01953125-82.837646484375h0Z" fill="#363639" stroke-width="0"/>
        </g>
        <g opacity=".26">
          <path d="M121.38108793218089,70.942626953125c1.116682461113669,29.151351023309871-1.883523254385182,58.144458365257378-5.956796878419482,86.928966013110767-.000234371580518-.000010934985767-16.679921871580518-10.836924997485767-16.679921871580518-10.836924997485767,9.834919112957323-7.57372425001904,19.851354033798998-14.885488367270227,30.035643065871227-21.972963332978907,6.908174810159835-4.881570582486347,23.984523471753164-16.256539306514242,31.170190693354016-21.186977046873835-.000267352975243.000333446258992-3.067650165475243,24.718045848602742-3.067650165475243,24.718045848602742-4.612985920745814,35.46451223123313-10.790736245450717,70.952395395238455-22.55191467351051,104.908650951091658-4.403096546770939-35.663345046931681-3.024798406295304-71.661194606996105-.121248580515385-107.305309892076366.000311691525894-.000008539484043,17.869940597775894,10.540030523015957,17.869940597775894,10.540030523015957-3.35205078125,2.42041015625-6.708984375,4.833740234375-10.09423828125,7.20672607421875-16.095236679559093,11.491985395547999-36.853107389100842,24.421300623739626-53.72423962314133,35.088974857366338.00011852939133.000014400446162,6.10070446689133-25.251572513616338,6.10070446689133-25.251572513616338,6.999496820419154-28.216877785613178,15.070153484421098-56.223313237416733,27.01953125-82.837646484375h0Z" fill="#363639" stroke-width="0"/>
        </g>
      </g>
      <g>
        <path d="M192.74827543218089,184.84423828125c-2.29541015625,0-4.560791015625-1.0498046875-6.0322265625-3.03564453125l-36.59814453125-49.400390625c-1.18408203125-1.5986328125-1.684814453125-3.6015625-1.391845703125-5.5693359375.29296875-1.96728515625,1.355224609375-3.73779296875,2.95361328125-4.921875l49.40087890625-36.59814453125c1.29931640625-.962890625,2.86669921875-1.4736328125,4.464599609375-1.4736328125.367431640625,0,.736328125.02685546875,1.104248046875.08154296875,1.967529296875.29296875,3.738037109375,1.35546875,4.922119140625,2.9541015625l36.597900390625,49.400390625c1.18408203125,1.5986328125,1.684814453125,3.6015625,1.391845703125,5.5693359375-.29296875,1.96728515625-1.355224609375,3.73779296875-2.95361328125,4.921875l-49.400634765625,36.59765625c-1.34228515625.994140625-2.907470703125,1.47412109375-4.458740234375,1.47412109375Z" fill="#008c8d" stroke-width="0"/>
        <path d="M205.54515043218089,91.34521484375l36.59814453125,49.4007568359375-49.40087890625,36.5980224609375-36.59814453125-49.4007568359375,49.40087890625-36.5980224609375M205.53343168218089,76.34423828125c-3.10302734375,0-6.23291015625.959228515625-8.91748046875,2.94818115234375l-49.40087890625,36.5980224609375c-3.19677734375,2.3681640625-5.3212890625,5.90924072265625-5.9072265625,9.8441162109375s.41552734375,7.9412841796875,2.78369140625,11.13787841796875l36.59814453125,49.4007568359375c2.9423828125,3.97186279296875,7.47412109375,6.07177734375,12.064453125,6.07177734375,3.10302734375,0,6.23291015625-.959228515625,8.91748046875-2.94818115234375l49.40087890625-36.5980224609375c3.19677734375-2.3681640625,5.3212890625-5.90924072265625,5.9072265625-9.8441162109375s-.41552734375-7.9412841796875-2.78369140625-11.13787841796875l-36.59814453125-49.4007568359375c-2.9423828125-3.97186279296875-7.47412109375-6.07177734375-12.064453125-6.07177734375h0Z" fill="#000" stroke-width="0"/>
      </g>
      <g opacity=".53">
        <rect x="147.956673078850542" y="55.374134396104743" width="24.025450607229828" height="18.91383068319761" rx="9.456905978738439" ry="9.456905978738439" transform="translate(-6.900004070957522 20.696302046365318) rotate(-7.24656692824689)" fill="#363639" opacity=".23" stroke-width="0"/>
        <rect x="141.494439299178964" y="52.298839455335468" width="20.42553176934473" height="16.079825444089977" rx="8.039904679319411" ry="8.039904679319411" transform="translate(-6.39934179000943 19.618230041473808) rotate(-7.246566689860019)" fill="#fff" stroke-width="0"/>
      </g>
    </g>
  </a>
</svg>