<?xml version="1.0" encoding="UTF-8"?>
<svg id="Pattern" xmlns="http://www.w3.org/2000/svg" xmlns:xlink="http://www.w3.org/1999/xlink" viewBox="0 0 280 280">
  <defs>
    <radialGradient id="radial-gradient" cx="186.361702127659555" cy="125.869611145094495" fx="186.361702127659555" fy="125.869611145094495" r="167.147289500926064" gradientUnits="userSpaceOnUse">
      <stop offset="0" stop-color="#b6aaa7"/>
      <stop offset=".254363461884818" stop-color="#a9988f"/>
      <stop offset="1" stop-color="#876c59"/>
    </radialGradient>
  </defs>
  <a xlink:href="https://www.notion.so/dmmnotes/upregulate-d5e867bc7f164b3588060781d7f1554f?pvs=4">
    <g>
      <g>
        <path d="M156.659046765838866,35.660409303231063l-13.903531738521451,1.697547003008367c-1.129000074535725.137844882076024-2.155980824680228-.665645156505889-2.293825706755342-1.794645231040704l-.465824025666734-3.815269393981907c-.796728305921533-6.52549665413153-6.732564449849633-11.169580987379049-13.258061103982072-10.372852681456607l-34.041485896323138,4.156283701726352c-6.52549665413062.796728305922443-11.169580987376321,6.732564449850543-10.372852681456607,13.258061103982072l.465824025666734,3.815269393981907c.137844882075115,1.129000074534815-.665645156506798,2.155980824680228-1.794645231042523,2.293825706756252l-13.903531738520542,1.697547003008367c-9.787191444133896,1.194963827631-16.817195857637671,10.180363595440213-15.622232030005762,19.967555039576837l20.585492515137048,168.60272383035317c1.194963827631,9.787191444134805,10.180363595440213,16.817195857637671,19.967555039574108,15.622232030005762l89.567934096603494-10.935766605984099c9.787191444136624-1.194963827631909,16.817195857637671-10.180363595440213,15.622232030006671-19.967555039576837l-20.585492515137048-168.602723830351351c-1.194963827631909-9.787191444136624-10.180363595440213-16.81719585763949-19.967555039576837-15.622232030007581Z" fill="url(#radial-gradient)" stroke-width="0"/>
        <path d="M128.195478723403539,21.286270885786507c5.93017578125.00006103515625,11.0634765625,4.42620849609375,11.80029296875,10.4617919921875l.4658203125,3.81524658203125c.1279296875,1.0443115234375,1.015625,1.80999755859375,2.0419921875,1.80999755859375.0830078125,0,.16748046875-.0050048828125.251953125-.015380859375l13.9033203125-1.697509765625c.7294921875-.08905029296875,1.453125-.13238525390625,2.1708984375-.13238525390625,8.91162109375,0,16.69091796875,6.69677734375,17.796875,15.754638671875l20.58544921875,168.60272216796875c1.19482421875,9.78717041015625-5.8349609375,18.7725830078125-15.6220703125,19.967529296875l-89.56787109375,10.935791015625c-.7294921875.08905029296875-1.453125.13238525390625-2.1708984375.13238525390625-8.91162109375,0-16.69091796875-6.69683837890625-17.796875-15.754638671875l-20.58544921875-168.60272216796875c-1.19482421875-9.78717041015625,5.8349609375-18.7725830078125,15.6220703125-19.96759033203125l13.90380859375-1.697509765625c1.12890625-.13787841796875,1.93212890625-1.16485595703125,1.79443359375-2.2938232421875l-.4658203125-3.8153076171875c-.796875-6.52545166015625,3.84765625-12.4613037109375,10.373046875-13.258056640625l34.04150390625-4.15625c.48974609375-.059814453125.97607421875-.0889892578125,1.45751953125-.08892822265625M128.195967004653539,4.286270885786507h-.00048828125c-1.169921875,0-2.353515625.07208251953125-3.51806640625.21429443359375l-34.041015625,4.15618896484375c-7.66357421875.93572998046875-14.50390625,4.799560546875-19.26123046875,10.8798828125-2.37158203125,3.03143310546875-4.08447265625,6.4329833984375-5.08935546875,10.0316162109375l-1.2548828125.1531982421875c-19.11669921875,2.3341064453125-32.7705078125,19.78564453125-30.4365234375,38.90234375l20.58544921875,168.60302734375c2.13623046875,17.49847412109375,17.04150390625,30.69427490234375,34.67138671875,30.69427490234375,1.4072265625,0,2.83056640625-.08673095703125,4.23095703125-.2576904296875l89.568359375-10.935791015625c19.1162109375-2.333984375,32.77001953125-19.7855224609375,30.43603515625-38.90228271484375l-20.58544921875-168.60296630859375c-2.13623046875-17.49853515625-17.04150390625-30.69427490234375-34.67138671875-30.69427490234375-1.4072265625,0-2.83056640625.086669921875-4.23095703125.25762939453125l-1.2724609375.1553955078125c-5.0029296875-8.80865478515625-14.46435546875-14.65472412109375-25.13037109375-14.65484619140625h0Z" fill="#000" stroke-width="0"/>
      </g>
      <g>
        <g opacity=".6">
          <path d="M121.366548769377005,59.388706872729927c-.674966807443525,29.165027842149357-5.447611771309312,57.919327812624942-11.280529366061273,86.399561305430325-.000232352688727-.000025172617825-15.983142508938727-11.839990992930325-15.983142508938727-11.839990992930325,10.281778537048922-6.955956559269907,20.727096540719685-13.639564844263987,31.327635301578994-20.088442048817342,7.194544680974104-4.448538829814424,24.936831457298467-14.754150584182753,32.411421527832317-19.234323119497276-.00028729816222.000316437846777-4.578900579410401,24.483165558938708-4.578900579411311,24.483165558939618-6.780377904883608,35.114582999463892-15.124280523747984,70.156650534082473-28.946939340487006,103.327067261048796-2.206220710439084-35.866260334554681,1.378225203131478-71.711779868384838,6.463717449834803-107.110464078866244.000311734401294.000010587351426,17.189276578153112,11.616770841253128,17.189276578152203,11.616770841254947-3.494140625,2.21014404296875-6.99267578125,4.41290283203125-10.51708984375,6.57366943359375-16.770499734368059,10.482669015247666-38.28223569353122,22.113863222566579-55.776484738435101,31.726113370387793.000117550935101.000021883518457,7.638789425935101-24.829628995387793,7.638789425935101-24.829628995387793,8.717523756915398-27.734238930288484,18.491866746828237-55.192762036705062,32.05224609375-81.02349853515625h0Z" fill="#363639" stroke-width="0"/>
        </g>
        <g opacity=".26">
          <path d="M128.325533144377005,63.985325525073677c-.674747327325349,29.164884322941361-5.447734612049317,57.919416139696295-11.280040845010262,86.399561315879509-.000232592489738-.000025183067009-15.983142748739738-11.839991003379509-15.983142748739738-11.839991003379509,10.281119335731091-6.956125668574714,20.726827924253485-13.639634344704064,31.327147053249973-20.088503033808593,7.194602017042598-4.448270005565064,24.936905165901408-14.753909608560207,32.411421363849513-19.234262355675128-.000287167088572.000316659004056-4.578412167106762,24.483165780116906-4.578412167099486,24.48316578010872-6.7810416301445,35.114543521394808-15.124199003173999,70.156563896919579-28.947427693875397,103.327067243666534-2.205662921182011-35.8663544590745,1.378260985923589-71.711744261365311,6.463718098309073-107.110525097117716.000311158068143.000010587823454,17.189764283065415,11.616770841734251,17.189764283066324,11.616770841732432-3.494140625,2.21014404296875-6.9931640625,4.41290283203125-10.517578125,6.57373046875-16.76984899409581,10.482517208806712-38.282175030099097,22.113718077961494-55.775996341900282,31.726052557225557.000117435645734.000021661528081,7.63878931065392-24.829568182228286,7.638789310650282-24.829568182225557,8.717297172920553-27.734349977965394,18.491484744380614-55.192676470967854,32.0517578125-81.02349853515625h0Z" fill="#363639" stroke-width="0"/>
        </g>
      </g>
      <g opacity=".39">
        <line x1="72.489361702128008" y1="70.199603057129934" x2="91.38297872340263" y2="223.40152603871411" fill="none" stroke="#5b514f" stroke-linecap="round" stroke-width="12"/>
      </g>
      <g>
        <path d="M218.850019739028539,190.943497448286507c-.264404296875,0-.53125-.00927734375-.799072265625-.0283203125l-48.64453125-3.41943359375c-3.01806640625-.21142578125-5.77392578125-1.58642578125-7.7587890625-3.87109375-1.98486328125-2.28515625-2.961181640625-5.2060546875-2.748779296875-8.22509765625l3.021728515625-42.9892578125-7.569580078125-.5322265625c-3.380859375-.2373046875-6.29736328125-2.4609375-7.422119140625-5.65771484375-1.125-3.197265625-.2431640625-6.7568359375,2.243896484375-9.05908203125l46.428955078125-42.97802734375c1.576171875-1.458984375,3.640380859375-2.26220703125,5.773681640625-2.26220703125.198486328125,0,.397216796875.0068359375.596435546875.02099609375,2.341796875.16455078125,4.51123046875,1.29052734375,5.993896484375,3.1103515625l39.96044921875,49.05029296875c2.140625,2.62744140625,2.515869140625,6.275390625.954833984375,9.28369140625-1.468505859375,2.830078125-4.386962890625,4.5849609375-7.54248046875,4.5849609375-.198486328125,0-.39794921875-.0068359375-.59814453125-.02099609375l-7.56982421875-.53173828125-3.02197265625,42.98974609375c-.41552734375,5.90771484375-5.37841796875,10.53515625-11.298583984375,10.53515625Z" fill="#91a23d" stroke-width="0"/>
        <path d="M201.376142785903539,80.421036510786507l39.9599609375,49.05035400390625-16.048828125-1.12811279296875-3.61767578125,51.46868896484375c-.1044921875,1.4915771484375-1.34765625,2.63153076171875-2.8203125,2.63153076171875-.06640625,0-.1337890625-.0023193359375-.201171875-.007080078125l-48.64599609375-3.41943359375c-1.55908203125-.109619140625-2.73388671875-1.4622802734375-2.62451171875-3.0213623046875l3.6181640625-51.4686279296875-16.048828125-1.12811279296875,46.42919921875-42.97784423828125M201.375166223403539,63.420975475630257c-4.2666015625,0-8.39453125,1.60626220703125-11.54736328125,4.52447509765625l-46.42919921875,42.97784423828125c-4.97412109375,4.6044921875-6.73779296875,11.72393798828125-4.48779296875,18.117919921875,2.14794921875,6.10595703125,7.564453125,10.43603515625,13.9365234375,11.22760009765625l-2.427734375,34.53472900390625c-.765625,10.9083251953125,7.484375,20.40484619140625,18.39013671875,21.171630859375l48.646484375,3.41943359375c.46484375.03253173828125.93212890625.04888916015625,1.39306640625.04888916015625,10.365234375,0,19.05322265625-8.1004638671875,19.77880859375-18.4415283203125l2.42724609375-34.53277587890625c.09521484375.0015869140625.1904296875.00238037109375.28515625.00238037109375,6.31103515625,0,12.1474609375-3.509765625,15.0849609375-9.169921875,3.1220703125-6.01641845703125,2.37158203125-13.3125-1.90966796875-18.567626953125l-39.9599609375-49.05029296875c-2.96533203125-3.64007568359375-7.30419921875-5.89166259765625-11.98779296875-6.22088623046875-.39794921875-.0279541015625-.79638671875-.0418701171875-1.19287109375-.0418701171875h0Z" fill="#000" stroke-width="0"/>
      </g>
      <g opacity=".54">
        <rect x="143.64079791667794" y="49.25788759573269" width="24.025450757802815" height="18.913830756431189" rx="9.456906038068338" ry="9.456906038068338" transform="translate(-6.016221268569836 19.493111333227546) rotate(-7.030504274242593)" fill="#363639" opacity=".23" stroke-width="0"/>
        <rect x="137.195563361678182" y="46.151467897557396" width="20.425531889184384" height="16.079825492324026" rx="8.039904770366954" ry="8.039904770366954" transform="translate(-5.524559021382089 18.449906797498194) rotate(-7.030504182481025)" fill="#fff" stroke-width="0"/>
      </g>
    </g>
  </a>
</svg>