<?xml version="1.0" encoding="UTF-8"?>
<svg id="Pattern" xmlns="http://www.w3.org/2000/svg" xmlns:xlink="http://www.w3.org/1999/xlink" viewBox="0 0 280 280">
  <defs>
    <radialGradient id="radial-gradient" cx="-908.059406453435258" cy="-467.796694552556801" fx="-908.059406453435258" fy="-467.796694552556801" r="8.350839882446651" gradientTransform="translate(7956.885548312206993 23846.360366525987047) rotate(31.304005958933182) scale(21.016598951055695 34.567501017196165)" gradientUnits="userSpaceOnUse">
      <stop offset=".00558659017086" stop-color="#4d6686"/>
      <stop offset="1" stop-color="#00576c"/>
    </radialGradient>
    <radialGradient id="radial-gradient-2" cx="-939.555583755828593" cy="-490.259460128910177" fx="-939.555583755828593" fy="-490.259460128910177" r="8.350839882446417" gradientTransform="translate(6890.690597926038208 24276.243014601161121) rotate(43.383000576864092) scale(22.936198784939201 26.32180011951473)" gradientUnits="userSpaceOnUse">
      <stop offset=".71875" stop-color="#134946" stop-opacity="0"/>
      <stop offset="1" stop-color="#134946"/>
    </radialGradient>
    <radialGradient id="radial-gradient-3" cx="-722.24246616914661" cy="-29.223482738570965" fx="-722.24246616914661" fy="-29.223482738570965" r="8.35083988244792" gradientTransform="translate(-12432.742000003108842 -6083.715813263937889) rotate(-155.631892352993219) scale(19.476000259430069 16.532499694880091)" gradientUnits="userSpaceOnUse">
      <stop offset=".809844970703125" stop-color="#576f9b" stop-opacity="0"/>
      <stop offset="1" stop-color="#576f9b"/>
    </radialGradient>
    <radialGradient id="radial-gradient-4" cx="-1109.698628305215607" cy="79.79870611502156" fx="-1109.698628305215607" fy="79.79870611502156" r="8.350839882453077" gradientTransform="translate(-15765.211328091296309 1264.082147935127068) rotate(177.851501437765137) scale(14.411199570559589 6.984130141550688)" gradientUnits="userSpaceOnUse">
      <stop offset="0" stop-color="#5291ab"/>
      <stop offset=".727772979736328" stop-color="#5291ab" stop-opacity="0"/>
    </radialGradient>
  </defs>
  <a xlink:href="https://www.notion.so/dmmnotes/resolution-1e86dbf88a2f4207ba169c80e5495db3?pvs=4">
    <g>
      <g>
        <g>
          <path d="M143.406360216526991,40.721729292947202c56.178011319222605,1.881289332697634,100.193769301066823,48.947198290803499,98.312480234918439,105.125201650509553-1.881272540145801,56.17750986948522-48.947182001647889,100.193520832634022-105.125193320870494,98.312231499930931-56.178019278743704-1.881289599243246-100.193761104704208-48.947443046037733-98.312488564557498-105.124952915522954,1.881289066148383-56.178003359706054,48.947182371764029-100.193769834166233,105.125201650509553-98.31248023491753Z" fill="none" stroke="#000" stroke-linecap="round" stroke-linejoin="round" stroke-width="45.434028651968788"/>
          <path d="M143.406360216526991,40.721729292947202c56.178011319222605,1.881289332697634,100.193769301066823,48.947198290803499,98.312480234918439,105.125201650509553-1.881272540145801,56.17750986948522-48.947182001647889,100.193520832634022-105.125193320870494,98.312231499930931-56.178019278743704-1.881289599243246-100.193761104704208-48.947443046037733-98.312488564557498-105.124952915522954,1.881289066148383-56.178003359706054,48.947182371764029-100.193769834166233,105.125201650509553-98.31248023491753Z" fill="none" stroke="#000" stroke-linecap="round" stroke-linejoin="round" stroke-width="45.434028651968788"/>
          <path d="M143.406360216526991,40.721729292947202c56.178011319222605,1.881289332697634,100.193769301066823,48.947198290803499,98.312480234918439,105.125201650509553-1.881272540145801,56.17750986948522-48.947182001647889,100.193520832634022-105.125193320870494,98.312231499930931-56.178019278743704-1.881289599243246-100.193761104704208-48.947443046037733-98.312488564557498-105.124952915522954,1.881289066148383-56.178003359706054,48.947182371764029-100.193769834166233,105.125201650509553-98.31248023491753Z" fill="none" stroke="#000" stroke-linecap="round" stroke-linejoin="round" stroke-width="45.434028651968788"/>
          <ellipse cx="150.661143097783679" cy="108.651445324150245" rx="55.9858665269564" ry="42.020166746967185" transform="translate(-30.943726096513217 147.684611932561381) rotate(-47.928096484906433)" fill="none" stroke="#000" stroke-linecap="round" stroke-linejoin="round" stroke-width="45.434028651968788"/>
        </g>
        <g>
          <path d="M143.406360216526991,40.721729292947202c56.178011319222605,1.881289332697634,100.193769301066823,48.947198290803499,98.312480234918439,105.125201650509553-1.881272540145801,56.17750986948522-48.947182001647889,100.193520832634022-105.125193320870494,98.312231499930931-56.178019278743704-1.881289599243246-100.193761104704208-48.947443046037733-98.312488564557498-105.124952915522954,1.881289066148383-56.178003359706054,48.947182371764029-100.193769834166233,105.125201650509553-98.31248023491753Z" fill="url(#radial-gradient)" stroke-width="0"/>
          <path d="M143.406360216526991,40.721729292947202c56.178011319222605,1.881289332697634,100.193769301066823,48.947198290803499,98.312480234918439,105.125201650509553-1.881272540145801,56.17750986948522-48.947182001647889,100.193520832634022-105.125193320870494,98.312231499930931-56.178019278743704-1.881289599243246-100.193761104704208-48.947443046037733-98.312488564557498-105.124952915522954,1.881289066148383-56.178003359706054,48.947182371764029-100.193769834166233,105.125201650509553-98.31248023491753Z" fill="url(#radial-gradient-2)" stroke-width="0"/>
          <path d="M143.406360216526991,40.721729292947202c56.178011319222605,1.881289332697634,100.193769301066823,48.947198290803499,98.312480234918439,105.125201650509553-1.881272540145801,56.17750986948522-48.947182001647889,100.193520832634022-105.125193320870494,98.312231499930931-56.178019278743704-1.881289599243246-100.193761104704208-48.947443046037733-98.312488564557498-105.124952915522954,1.881289066148383-56.178003359706054,48.947182371764029-100.193769834166233,105.125201650509553-98.31248023491753Z" fill="url(#radial-gradient-3)" stroke-width="0"/>
          <ellipse cx="150.661143097783679" cy="108.651445324150245" rx="55.9858665269564" ry="42.020166746967185" transform="translate(-30.943726096513217 147.684611932561381) rotate(-47.928096484906433)" fill="url(#radial-gradient-4)" stroke-width="0"/>
        </g>
      </g>
      <g id="AC">
        <path d="M168.308998919547776,112.070437167552882c1.09765625,4.5966796875,1.13623046875,8.931640625.113525390625,13-1.0224609375,4.0693359375-2.72216796875,7.7958984375-5.097412109375,11.1787109375-2.37744140625,3.3837890625-5.280029296875,6.4013671875-8.7099609375,9.046875-3.431884765625,2.6474609375-7.005615234375,4.849609375-10.72265625,6.6044921875,1.427734375,1.669921875,3.092041015625,3.3076171875,4.99267578125,4.91796875,1.89892578125,1.6103515625,3.856201171875,3.0478515625,5.8740234375,4.3095703125,2.015625,1.263671875,4.026611328125,2.3759765625,6.0341796875,3.337890625,2.006103515625.962890625,3.788818359375,1.6337890625,5.346435546875,2.009765625,1.302978515625.4716796875,2.232177734375,1.2998046875,2.786865234375,2.482421875.5546875,1.1845703125.812744140625,2.5283203125.778564453125,4.029296875-.0361328125,1.50390625-.3486328125,3.037109375-.940185546875,4.6025390625-.591552734375,1.564453125-1.361328125,2.96484375-2.3056640625,4.197265625-.946533203125,1.232421875-2.052001953125,2.1708984375-3.31787109375,2.8154296875-1.265869140625.6416015625-2.592041015625.8134765625-3.9736328125.517578125-.26025390625-.0771484375-.714111328125-.16796875-1.361328125-.2744140625-.6474609375-.107421875-1.44921875-.318359375-2.403076171875-.62890625-5.207275390625-1.7119140625-9.956787109375-4.47265625-14.246826171875-8.27734375-4.29150390625-3.8037109375-8.443603515625-8-12.459716796875-12.587890625-.002685546875-.083984375-.137451171875-.2509765625-.403076171875-.5009765625.0859375,2.5712890625.15087890625,5.16796875.1962890625,7.783203125.04345703125,2.6181640625.111328125,5.2548828125.200439453125,7.912109375-.052001953125,1.03125-.31982421875,1.986328125-.805419921875,2.859375-.4072265625.701171875-1.047119140625,1.408203125-1.924560546875,2.1240234375s-2.044189453125,1.140625-3.498046875,1.275390625c-1.453369140625.2197265625-2.971435546875.3583984375-4.55712890625.4111328125-1.58740234375.052734375-3.07275390625-.0908203125-4.456298828125-.4306640625-1.38525390625-.33984375-2.56640625-1.0078125-3.54345703125-2.005859375-.97900390625-.9970703125-1.6279296875-2.4765625-1.951171875-4.4404296875-.204345703125-.9365234375-.354248046875-2.884765625-.453125-5.8427734375-.09912109375-2.958984375-.154052734375-6.517578125-.164794921875-10.681640625-.010498046875-4.162109375.006103515625-8.775390625.051513671875-13.8427734375.043701171875-5.064453125.065673828125-10.173828125.06640625-15.3232421875-.00146484375-5.150390625-.06005859375-10.083984375-.174072265625-14.80078125-.11572265625-4.7158203125-.151123046875-8.9638671875-.1044921875-12.7431640625-.062255859375-4.375-.071533203125-8.49609375-.02783203125-12.3603515625-.1123046875-.767578125-.048828125-1.45703125.188232421875-2.064453125.153564453125-.5205078125.52392578125-1.0048828125,1.1103515625-1.455078125.584228515625-.447265625,1.47607421875-.7353515625,2.6748046875-.861328125,1.19384765625-.2109375,2.627197265625-.365234375,4.297607421875-.466796875,1.670654296875-.09765625,3.2802734375-.0869140625,4.8291015625.0322265625,3.16845703125-.1904296875,6.47021484375-.30078125,9.903076171875-.3310546875,3.864013671875.04296875,7.82666015625.509765625,11.89208984375,1.404296875,4.0634765625.8935546875,7.867919921875,2.3330078125,11.41064453125,4.31640625,3.54296875,1.986328125,6.6533203125,4.5205078125,9.331787109375,7.6064453125,2.67822265625,3.0869140625,4.518798828125,6.8017578125,5.523193359375,11.1455078125ZM127.595131732047776,138.153444980052882c4.278076171875-.400390625,7.953125-1.48828125,11.028076171875-3.2646484375,3.07275390625-1.77734375,5.407470703125-3.8515625,7.001708984375-6.22265625,1.594482421875-2.37109375,2.43310546875-4.8447265625,2.519775390625-7.4228515625.084716796875-2.578125-.63671875-4.8916015625-2.1640625-6.9453125-1.529052734375-2.05078125-3.91943359375-3.623046875-7.175048828125-4.716796875-3.255126953125-1.0908203125-7.447998046875-1.3369140625-12.578125-.7373046875.248291015625,4.8837890625.476318359375,9.76953125.68408203125,14.6552734375.2060546875,4.8857421875.433837890625,9.7705078125.68359375,14.654296875Z" fill="none" stroke="#000" stroke-linecap="round" stroke-linejoin="round" stroke-width="33.968967437744141"/>
        <path d="M168.308998919547776,112.070437167552882c1.09765625,4.5966796875,1.13623046875,8.931640625.113525390625,13-1.0224609375,4.0693359375-2.72216796875,7.7958984375-5.097412109375,11.1787109375-2.37744140625,3.3837890625-5.280029296875,6.4013671875-8.7099609375,9.046875-3.431884765625,2.6474609375-7.005615234375,4.849609375-10.72265625,6.6044921875,1.427734375,1.669921875,3.092041015625,3.3076171875,4.99267578125,4.91796875,1.89892578125,1.6103515625,3.856201171875,3.0478515625,5.8740234375,4.3095703125,2.015625,1.263671875,4.026611328125,2.3759765625,6.0341796875,3.337890625,2.006103515625.962890625,3.788818359375,1.6337890625,5.346435546875,2.009765625,1.302978515625.4716796875,2.232177734375,1.2998046875,2.786865234375,2.482421875.5546875,1.1845703125.812744140625,2.5283203125.778564453125,4.029296875-.0361328125,1.50390625-.3486328125,3.037109375-.940185546875,4.6025390625-.591552734375,1.564453125-1.361328125,2.96484375-2.3056640625,4.197265625-.946533203125,1.232421875-2.052001953125,2.1708984375-3.31787109375,2.8154296875-1.265869140625.6416015625-2.592041015625.8134765625-3.9736328125.517578125-.26025390625-.0771484375-.714111328125-.16796875-1.361328125-.2744140625-.6474609375-.107421875-1.44921875-.318359375-2.403076171875-.62890625-5.207275390625-1.7119140625-9.956787109375-4.47265625-14.246826171875-8.27734375-4.29150390625-3.8037109375-8.443603515625-8-12.459716796875-12.587890625-.002685546875-.083984375-.137451171875-.2509765625-.403076171875-.5009765625.0859375,2.5712890625.15087890625,5.16796875.1962890625,7.783203125.04345703125,2.6181640625.111328125,5.2548828125.200439453125,7.912109375-.052001953125,1.03125-.31982421875,1.986328125-.805419921875,2.859375-.4072265625.701171875-1.047119140625,1.408203125-1.924560546875,2.1240234375s-2.044189453125,1.140625-3.498046875,1.275390625c-1.453369140625.2197265625-2.971435546875.3583984375-4.55712890625.4111328125-1.58740234375.052734375-3.07275390625-.0908203125-4.456298828125-.4306640625-1.38525390625-.33984375-2.56640625-1.0078125-3.54345703125-2.005859375-.97900390625-.9970703125-1.6279296875-2.4765625-1.951171875-4.4404296875-.204345703125-.9365234375-.354248046875-2.884765625-.453125-5.8427734375-.09912109375-2.958984375-.154052734375-6.517578125-.164794921875-10.681640625-.010498046875-4.162109375.006103515625-8.775390625.051513671875-13.8427734375.043701171875-5.064453125.065673828125-10.173828125.06640625-15.3232421875-.00146484375-5.150390625-.06005859375-10.083984375-.174072265625-14.80078125-.11572265625-4.7158203125-.151123046875-8.9638671875-.1044921875-12.7431640625-.062255859375-4.375-.071533203125-8.49609375-.02783203125-12.3603515625-.1123046875-.767578125-.048828125-1.45703125.188232421875-2.064453125.153564453125-.5205078125.52392578125-1.0048828125,1.1103515625-1.455078125.584228515625-.447265625,1.47607421875-.7353515625,2.6748046875-.861328125,1.19384765625-.2109375,2.627197265625-.365234375,4.297607421875-.466796875,1.670654296875-.09765625,3.2802734375-.0869140625,4.8291015625.0322265625,3.16845703125-.1904296875,6.47021484375-.30078125,9.903076171875-.3310546875,3.864013671875.04296875,7.82666015625.509765625,11.89208984375,1.404296875,4.0634765625.8935546875,7.867919921875,2.3330078125,11.41064453125,4.31640625,3.54296875,1.986328125,6.6533203125,4.5205078125,9.331787109375,7.6064453125,2.67822265625,3.0869140625,4.518798828125,6.8017578125,5.523193359375,11.1455078125ZM127.595131732047776,138.153444980052882c4.278076171875-.400390625,7.953125-1.48828125,11.028076171875-3.2646484375,3.07275390625-1.77734375,5.407470703125-3.8515625,7.001708984375-6.22265625,1.594482421875-2.37109375,2.43310546875-4.8447265625,2.519775390625-7.4228515625.084716796875-2.578125-.63671875-4.8916015625-2.1640625-6.9453125-1.529052734375-2.05078125-3.91943359375-3.623046875-7.175048828125-4.716796875-3.255126953125-1.0908203125-7.447998046875-1.3369140625-12.578125-.7373046875.248291015625,4.8837890625.476318359375,9.76953125.68408203125,14.6552734375.2060546875,4.8857421875.433837890625,9.7705078125.68359375,14.654296875Z" fill="#fff" stroke-width="0"/>
      </g>
    </g>
  </a>
</svg>