<?xml version="1.0" encoding="UTF-8"?>
<svg id="Pattern" xmlns="http://www.w3.org/2000/svg" xmlns:xlink="http://www.w3.org/1999/xlink" viewBox="0 0 280 280">
  <defs>
    <linearGradient id="linear-gradient" x1="4880.638984463254928" y1="-1077.590597151074689" x2="4834.433630933996938" y2="-1104.05007403782156" gradientTransform="translate(-1040.272020784909728 4907.213019268117932) rotate(-90.000000000000014) scale(1 -1)" gradientUnits="userSpaceOnUse">
      <stop offset="0" stop-color="#ffc810"/>
      <stop offset=".755599975585938" stop-color="#ef4e26"/>
    </linearGradient>
    <linearGradient id="linear-gradient-2" x1="4838.378580229435102" y1="-1107.839360426675739" x2="4855.754951657849233" y2="-1092.437323020764097" gradientTransform="translate(-1040.272020784909728 4907.213019268117932) rotate(-90.000000000000014) scale(1 -1)" gradientUnits="userSpaceOnUse">
      <stop offset="0" stop-color="#d23e27"/>
      <stop offset="1" stop-color="#d23e27" stop-opacity="0"/>
    </linearGradient>
    <linearGradient id="linear-gradient-3" x1="4838.926844578882083" y1="-1079.841453335980077" x2="4856.777122947488351" y2="-1080.451838280876927" xlink:href="#linear-gradient-2"/>
    <linearGradient id="linear-gradient-4" x1="4853.195413598554296" y1="-1068.966591387895278" x2="4862.466189658849544" y2="-1084.233029176556329" xlink:href="#linear-gradient-2"/>
    <linearGradient id="linear-gradient-5" x1="4878.19746010136987" y1="-1093.523357599930023" x2="4862.263643217413119" y2="-1101.593323701369627" xlink:href="#linear-gradient-2"/>
    <linearGradient id="linear-gradient-6" x1="4872.648879885055976" y1="-1075.884891299423543" x2="4864.929342575456758" y2="-1091.991652089095169" xlink:href="#linear-gradient-2"/>
    <linearGradient id="linear-gradient-7" x1="4867.797786674374038" y1="-1119.026193054348369" x2="4858.221193190792292" y2="-1102.045052785517555" xlink:href="#linear-gradient-2"/>
    <radialGradient id="radial-gradient" cx="-1711.983236654342363" cy="2124.011838850952699" fx="-1711.983236654342363" fy="2124.011838850952699" r="6.31868084352137" gradientTransform="translate(747.832638579667218 7374.930889270219268) rotate(46.679000554437977) scale(3.393360063220485 -2.127890109186671)" gradientUnits="userSpaceOnUse">
      <stop offset="0" stop-color="#e1dfe1"/>
      <stop offset=".394388008117676" stop-color="#c2bec5"/>
    </radialGradient>
    <linearGradient id="linear-gradient-8" x1="4842.012192789778055" y1="-1099.388998760046888" x2="4843.591863052156441" y2="-1100.672510959947203" gradientTransform="translate(-1040.272020784909728 4907.213019268117932) rotate(-90.000000000000014) scale(1 -1)" gradientUnits="userSpaceOnUse">
      <stop offset="0" stop-color="#a3a1a8"/>
      <stop offset="1" stop-color="#b8b6bd" stop-opacity="0"/>
    </linearGradient>
    <radialGradient id="radial-gradient-2" cx="-909.33285087573222" cy="-153.156283639455978" fx="-909.33285087573222" fy="-153.156283639455978" r="6.318680534166555" gradientTransform="translate(-13866.117598755412473 14084.888372500974583) rotate(150.613998431500903) scale(21.016598951055695 -34.567501017196157)" gradientUnits="userSpaceOnUse">
      <stop offset=".00558659017086" stop-color="#5c266f"/>
      <stop offset="1" stop-color="#2e265b"/>
    </radialGradient>
    <radialGradient id="radial-gradient-3" cx="-929.119508452770788" cy="-159.351962807691962" fx="-929.119508452770788" fy="-159.351962807691962" r="6.318680534165991" gradientTransform="translate(-13033.262969888073712 17333.336798605618242) rotate(138.535003813569972) scale(22.936198784939201 -26.32180011951473)" gradientUnits="userSpaceOnUse">
      <stop offset=".71875" stop-color="#29233a" stop-opacity="0"/>
      <stop offset="1" stop-color="#29233a"/>
    </radialGradient>
    <radialGradient id="radial-gradient-4" cx="-572.432844509150527" cy="251.855286414885995" fx="-572.432844509150527" fy="251.855286414885995" r="6.318680534167614" gradientTransform="translate(11983.684310184067726 -283.412636372804627) rotate(-22.450103256572724) scale(19.476000259430069 -16.532499694880091)" gradientUnits="userSpaceOnUse">
      <stop offset=".809844970703125" stop-color="#672b80" stop-opacity="0"/>
      <stop offset="1" stop-color="#672b80"/>
    </radialGradient>
    <radialGradient id="radial-gradient-5" cx="-988.907375039277213" cy="582.055992793499172" fx="-988.907375039277213" fy="582.055992793499172" r="6.318680534170718" gradientTransform="translate(-4481.550640521313653 14143.212086532417743) rotate(92.148493896129068) scale(14.411199570559589 -6.984130141550686)" gradientUnits="userSpaceOnUse">
      <stop offset="0" stop-color="#67568f"/>
      <stop offset=".727772979736328" stop-color="#67568f" stop-opacity="0"/>
    </radialGradient>
    <linearGradient id="linear-gradient-9" x1="4871.257312663250559" y1="-1069.629418810213792" x2="4861.431762494331451" y2="-1066.470079413777512" gradientTransform="translate(-1040.272020784909728 4907.213019268117932) rotate(-90.000000000000014) scale(1 -1)" gradientUnits="userSpaceOnUse">
      <stop offset="0" stop-color="#ffd35d"/>
      <stop offset="1" stop-color="#ffd35d" stop-opacity="0"/>
    </linearGradient>
    <linearGradient id="linear-gradient-10" x1="4868.095177356064596" y1="-1078.878593416499825" x2="4863.603231495171713" y2="-1085.295973730023434" gradientTransform="translate(-1040.272020784909728 4907.213019268117932) rotate(-90.000000000000014) scale(1 -1)" gradientUnits="userSpaceOnUse">
      <stop offset="0" stop-color="#febb12"/>
      <stop offset="1" stop-color="#febb12" stop-opacity="0"/>
    </linearGradient>
    <linearGradient id="linear-gradient-11" x1="4874.54288611964148" y1="-1092.186442419269952" x2="4866.731731069739908" y2="-1092.771111858994118" xlink:href="#linear-gradient-10"/>
  </defs>
  <a xlink:href="https://www.notion.so/dmmnotes/denied-bfa029478ea0407889d79bc2020eac41?pvs=4">
    <g>
      <g>
        <g>
          <path d="M28.362167618485728,34.008239362017775c-.363513225444876-.025911642358551-.726901412149346.066972556552173-1.008904444488508.297610277390959-1.877595267514153,1.537331715118853-4.834927165584304,5.352549883948996-4.576176819279681,10.179394726204009.02110443010406.394278781273897.211612248086567.756981514647123.504672923151702,1.021726187984314l.622894791408726.561728250537271c.966758856895467.871980999007064,2.175521907976872,1.429924944565755,3.466301333082811,1.600532018618651l3.615675925311734.476424713509005c1.647722844019881.217356497640139,1.647722844019881,2.602035073638945,0,2.819391571278175l-3.615675925311734.476424713509914c-1.290779425105939.170607074051077-2.499542476187344.728551019610677-3.466301333082811,1.600532018622289l-.622894791408726.561728250533633c-.293060675065135.264756725266125-.483568493047642.628074106900385-.504672923151702,1.021726187985223-.258750346304623,4.826844842253195,2.698581551765528,8.642689711268758,4.576176819279681,10.179394726208557.282003032339162.230637720833329.645391219043631.323521919742234,1.008904444488508.297610277385502l.779408643704301-.055607589692954c1.192524586371292-.085291485099333,2.337786035787758-.50107090356687,3.307071277811701-1.201179376217624l3.510343592637582-2.535050465165114c1.476294732460701-1.06659551100347,3.287102741797753.79930788114234,2.177225749110221,2.243128697166867l-2.072461363480215,2.696184724847626c-.79350186546344,1.032476506583407-1.255018345671488,2.281044058498992-1.323512457964171,3.581422843203654l-.04410402567737.837223242469008c-.020726300905153.394290833199193.100974054688777.786050761793376.364399042055084,1.079864682276821,3.225939213905804,3.599753823678839,8.014422773545448,4.212039906631617,10.429107633993226,3.973194823726772.362630421815993-.035384456728025.68564013467585-.226214663748578.924675035425935-.50107090356687l.512381636753162-.590170797498104c.784086297746398-.902303646527798,1.300954264205757-2.006175766748129,1.492664261871141-3.186505309814493l.500311632186822-3.079725239447725c.287248633425406-1.768608188075632,2.831148225751349-1.768608188075632,3.118460131790926,0l.500311632185912,3.079725239447725c.191709997667203,1.180329543066364.708577964126562,2.284201663286694,1.492597976274737,3.186505309814493l.512444909367332.590170797498104c.238974641117238.274856239818291.561984353978005.465686446838845.924678048409078.50107090356687,2.414618574849555.238845082904845,7.203105147471433-.373441000047933,10.429104621011902-3.973194823726772.263364727731641-.293813920483444.385125342959327-.685573849077628.364335769440913-1.079864682276821l-.044104025679189-.837223242469008c-.068491099311359-1.300378784704662-.529947319884741-2.548946336620247-1.323446172366857-3.581422843203654l-2.072527649076619-2.696184724847626c-1.109873979706208-1.443820816024527.70099428926369-3.309724208170337,2.177289021724391-2.243128697166867l3.510346605618906,2.535050465165114c.969282229044438.700108472650754,2.114480405843096,1.115887891118291,3.307259589168098,1.201179376217624l.779090774136421.055607589692954c.363323407599637.025911642356732.727279541349162-.066972556552173,1.009095768824409-.297610277385502,1.877280410930325-1.536705014939798,4.835052204323802-5.352549883955362,4.575990014417584-10.179394726208557-.020855859118456-.393652081084838-.211680040174542-.756969462719098-.504867260471656-1.021726187985223l-.622385597504945-.561728250533633c-.966757350404805-.871980999011612-2.175523414468444-1.429924944571212-3.466429384804542-1.600532018622289l-2.428330654428464-.31971351091579c-1.830778051841662-.242014739621482-1.830778051841662-2.890799236843122,0-3.132175224351158l2.428330654428464-.320352263030145c1.290905970336098-.170607074052896,2.499672034399737-.728551019611587,3.466429384804542-1.600532018618651l.622385597504945-.561728250537271c.293187220297114-.264744673337191.4840114013532-.627447406710417.504867260471656-1.021726187984314.259062189906217-4.826844842255014-2.698709603487259-8.642063011085156-4.575990014417584-10.179394726204009-.281816227475247-.230637720838786-.645772361224772-.32352191974951-1.009095768824409-.297610277390959l-.779090774136421.055607589692045c-1.192779183325001.085303537029176-2.337977360123659.50107090356687-3.307259589168098,1.201179376217624l-3.510346605618906,2.535050465166933c-1.476294732460701,1.06659551100347-3.287163001430599-.79930788114325-2.177289021724391-2.243128697168686l2.072527649076619-2.696184724847626c.793498852482116-1.031837754464505,1.254955073055498-2.281044058498082,1.323446172366857-3.580796143012776l.044104025679189-.837849942659886c.020789573518414-.394290833197374-.100971041709272-.786050761793376-.364335769440913-1.079864682275911-3.225999473540469-3.599753823678839-8.014486046162347-4.211401154517262-10.429104621011902-3.973194823727681-.362693694431073.035384456727115-.68570340729184.226214663750397-.924678048409078.501709655681225l-.512444909367332.589532045383748c-.784020012148176.902942398642153-1.300887978607534,2.006175766748129-1.492597976274737,3.186505309815402l-.500311632185912,3.079725239446816c-.287311906039577,1.768608188077451-2.831211498365519,1.768608188077451-3.118460131790926,0l-.500311632186822-3.079725239446816c-.191709997665384-1.180329543067273-.708577964124743-2.283562911173249-1.492664261871141-3.186505309815402l-.512381636753162-.589532045383748c-.239034900750084-.275494991930827-.562044613609942-.46632519895411-.924675035425935-.501709655681225-2.414684860447778-.238206330789581-7.203168420087422.373441000048842-10.429107633993226,3.973194823727681-.263424987366307.293813920482535-.385125342960237.685573849078537-.364399042055084,1.079864682275911l.04410402567737.837849942659886c.068494112292683,1.299752084514694.53001059250073,2.548958388548272,1.323512457964171,3.580796143012776l2.072461363480215,2.696184724847626c1.109876992687532,1.443820816025436-.70093101664952,3.309724208172156-2.177225749110221,2.243128697168686l-3.510343592637582-2.535050465166933c-.969285242023943-.700108472650754-2.11454669144041-1.115875839188448-3.307071277811701-1.201179376217624l-.779408643704301-.055607589692045Z" fill="none" stroke="#000" stroke-linecap="round" stroke-linejoin="round" stroke-width="34.377753744593065"/>
          <path d="M28.362167618485728,34.008239362017775c-.363513225444876-.025911642358551-.726901412149346.066972556552173-1.008904444488508.297610277390959-1.877595267514153,1.537331715118853-4.834927165584304,5.352549883948996-4.576176819279681,10.179394726204009.02110443010406.394278781273897.211612248086567.756981514647123.504672923151702,1.021726187984314l.622894791408726.561728250537271c.966758856895467.871980999007064,2.175521907976872,1.429924944565755,3.466301333082811,1.600532018618651l3.615675925311734.476424713509005c1.647722844019881.217356497640139,1.647722844019881,2.602035073638945,0,2.819391571278175l-3.615675925311734.476424713509914c-1.290779425105939.170607074051077-2.499542476187344.728551019610677-3.466301333082811,1.600532018622289l-.622894791408726.561728250533633c-.293060675065135.264756725266125-.483568493047642.628074106900385-.504672923151702,1.021726187985223-.258750346304623,4.826844842253195,2.698581551765528,8.642689711268758,4.576176819279681,10.179394726208557.282003032339162.230637720833329.645391219043631.323521919742234,1.008904444488508.297610277385502l.779408643704301-.055607589692954c1.192524586371292-.085291485099333,2.337786035787758-.50107090356687,3.307071277811701-1.201179376217624l3.510343592637582-2.535050465165114c1.476294732460701-1.06659551100347,3.287102741797753.79930788114234,2.177225749110221,2.243128697166867l-2.072461363480215,2.696184724847626c-.79350186546344,1.032476506583407-1.255018345671488,2.281044058498992-1.323512457964171,3.581422843203654l-.04410402567737.837223242469008c-.020726300905153.394290833199193.100974054688777.786050761793376.364399042055084,1.079864682276821,3.225939213905804,3.599753823678839,8.014422773545448,4.212039906631617,10.429107633993226,3.973194823726772.362630421815993-.035384456728025.68564013467585-.226214663748578.924675035425935-.50107090356687l.512381636753162-.590170797498104c.784086297746398-.902303646527798,1.300954264205757-2.006175766748129,1.492664261871141-3.186505309814493l.500311632186822-3.079725239447725c.287248633425406-1.768608188075632,2.831148225751349-1.768608188075632,3.118460131790926,0l.500311632185912,3.079725239447725c.191709997667203,1.180329543066364.708577964126562,2.284201663286694,1.492597976274737,3.186505309814493l.512444909367332.590170797498104c.238974641117238.274856239818291.561984353978005.465686446838845.924678048409078.50107090356687,2.414618574849555.238845082904845,7.203105147471433-.373441000047933,10.429104621011902-3.973194823726772.263364727731641-.293813920483444.385125342959327-.685573849077628.364335769440913-1.079864682276821l-.044104025679189-.837223242469008c-.068491099311359-1.300378784704662-.529947319884741-2.548946336620247-1.323446172366857-3.581422843203654l-2.072527649076619-2.696184724847626c-1.109873979706208-1.443820816024527.70099428926369-3.309724208170337,2.177289021724391-2.243128697166867l3.510346605618906,2.535050465165114c.969282229044438.700108472650754,2.114480405843096,1.115887891118291,3.307259589168098,1.201179376217624l.779090774136421.055607589692954c.363323407599637.025911642356732.727279541349162-.066972556552173,1.009095768824409-.297610277385502,1.877280410930325-1.536705014939798,4.835052204323802-5.352549883955362,4.575990014417584-10.179394726208557-.020855859118456-.393652081084838-.211680040174542-.756969462719098-.504867260471656-1.021726187985223l-.622385597504945-.561728250533633c-.966757350404805-.871980999011612-2.175523414468444-1.429924944571212-3.466429384804542-1.600532018622289l-2.428330654428464-.31971351091579c-1.830778051841662-.242014739621482-1.830778051841662-2.890799236843122,0-3.132175224351158l2.428330654428464-.320352263030145c1.290905970336098-.170607074052896,2.499672034399737-.728551019611587,3.466429384804542-1.600532018618651l.622385597504945-.561728250537271c.293187220297114-.264744673337191.4840114013532-.627447406710417.504867260471656-1.021726187984314.259062189906217-4.826844842255014-2.698709603487259-8.642063011085156-4.575990014417584-10.179394726204009-.281816227475247-.230637720838786-.645772361224772-.32352191974951-1.009095768824409-.297610277390959l-.779090774136421.055607589692045c-1.192779183325001.085303537029176-2.337977360123659.50107090356687-3.307259589168098,1.201179376217624l-3.510346605618906,2.535050465166933c-1.476294732460701,1.06659551100347-3.287163001430599-.79930788114325-2.177289021724391-2.243128697168686l2.072527649076619-2.696184724847626c.793498852482116-1.031837754464505,1.254955073055498-2.281044058498082,1.323446172366857-3.580796143012776l.044104025679189-.837849942659886c.020789573518414-.394290833197374-.100971041709272-.786050761793376-.364335769440913-1.079864682275911-3.225999473540469-3.599753823678839-8.014486046162347-4.211401154517262-10.429104621011902-3.973194823727681-.362693694431073.035384456727115-.68570340729184.226214663750397-.924678048409078.501709655681225l-.512444909367332.589532045383748c-.784020012148176.902942398642153-1.300887978607534,2.006175766748129-1.492597976274737,3.186505309815402l-.500311632185912,3.079725239446816c-.287311906039577,1.768608188077451-2.831211498365519,1.768608188077451-3.118460131790926,0l-.500311632186822-3.079725239446816c-.191709997665384-1.180329543067273-.708577964124743-2.283562911173249-1.492664261871141-3.186505309815402l-.512381636753162-.589532045383748c-.239034900750084-.275494991930827-.562044613609942-.46632519895411-.924675035425935-.501709655681225-2.414684860447778-.238206330789581-7.203168420087422.373441000048842-10.429107633993226,3.973194823727681-.263424987366307.293813920482535-.385125342960237.685573849078537-.364399042055084,1.079864682275911l.04410402567737.837849942659886c.068494112292683,1.299752084514694.53001059250073,2.548958388548272,1.323512457964171,3.580796143012776l2.072461363480215,2.696184724847626c1.109876992687532,1.443820816025436-.70093101664952,3.309724208172156-2.177225749110221,2.243128697168686l-3.510343592637582-2.535050465166933c-.969285242023943-.700108472650754-2.11454669144041-1.115875839188448-3.307071277811701-1.201179376217624l-.779408643704301-.055607589692045Z" fill="none" stroke="#000" stroke-linecap="round" stroke-linejoin="round" stroke-width="34.377753744593065"/>
          <path d="M51.147392559858417,51.363760997831378l-13.427196135108716,20.733483852832251,7.898350667711384,2.171733083527215,1.480970880012137-3.060140858597151,4.047874587385195-19.845076077762315Z" fill="none" stroke="#000" stroke-linecap="round" stroke-linejoin="round" stroke-width="34.377753744593065"/>
          <path d="M55.491485427099178,48.303620139231498l12.637361068337668,11.748326593077763,5.232500642311606-6.022335709079925-17.869861710649275-5.725990883997838Z" fill="none" stroke="#000" stroke-linecap="round" stroke-linejoin="round" stroke-width="34.377753744593065"/>
          <g>
            <polygon points="48.876586613074323 49.290600622603051 26.267524683955344 54.325955848315061 27.847194817497439 58.76862142385653 48.876586613074323 49.290600622603051" fill="none" stroke="#000" stroke-linecap="round" stroke-linejoin="round" stroke-width="34.377753744593065"/>
            <polygon points="48.876586613074323 49.290600622603051 26.267524683955344 54.325955848315061 27.847194817497439 58.76862142385653 48.876586613074323 49.290600622603051" fill="none" stroke="#000" stroke-linecap="round" stroke-linejoin="round" stroke-width="34.377753744593065"/>
          </g>
          <g>
            <polygon points="62.106703617181665 26.78030121962729 52.527139307701873 47.949775571967621 51.937543989704864 36.258322020880769 54.83067828734238 24.998435912205423 62.106703617181665 26.78030121962729" fill="none" stroke="#000" stroke-linecap="round" stroke-linejoin="round" stroke-width="34.377753744593065"/>
            <polygon points="62.106703617181665 26.78030121962729 52.527139307701873 47.949775571967621 51.937543989704864 36.258322020880769 54.83067828734238 24.998435912205423 62.106703617181665 26.78030121962729" fill="none" stroke="#000" stroke-linecap="round" stroke-linejoin="round" stroke-width="34.377753744593065"/>
          </g>
          <path d="M54.898413128255925,47.019668130587888l-29.618813497425435,12.143870826652346,4.739010400627194,4.344092867243489,24.879803096798241-16.487963693895836Z" fill="none" stroke="#000" stroke-linecap="round" stroke-linejoin="round" stroke-width="34.377753744593065"/>
          <g>
            <polygon points="54.109210787634765 51.956450647999191 28.439571117574815 40.800187004909276 25.773846130916354 45.934114938920175 54.109210787634765 51.956450647999191" fill="none" stroke="#000" stroke-linecap="round" stroke-linejoin="round" stroke-width="34.377753744593065"/>
            <polygon points="54.109210787634765 51.956450647999191 28.439571117574815 40.800187004909276 25.773846130916354 45.934114938920175 54.109210787634765 51.956450647999191" fill="none" stroke="#000" stroke-linecap="round" stroke-linejoin="round" stroke-width="34.377753744593065"/>
          </g>
          <g>
            <polygon points="53.220363117239685 52.548513597987039 64.969126592661269 28.557743469955312 60.427574958728655 26.385383686242676 53.220363117239685 52.548513597987039" fill="none" stroke="#000" stroke-linecap="round" stroke-linejoin="round" stroke-width="34.377753744593065"/>
            <polygon points="53.220363117239685 52.548513597987039 64.969126592661269 28.557743469955312 60.427574958728655 26.385383686242676 53.220363117239685 52.548513597987039" fill="none" stroke="#000" stroke-linecap="round" stroke-linejoin="round" stroke-width="34.377753744593065"/>
          </g>
          <g>
            <polygon points="51.686375811771541 54.942652936427294 47.003286350931376 27.348344679741786 43.939990900525117 31.519311620253575 51.686375811771541 54.942652936427294" fill="none" stroke="#000" stroke-linecap="round" stroke-linejoin="round" stroke-width="34.377753744593065"/>
            <polygon points="51.686375811771541 54.942652936427294 47.003286350931376 27.348344679741786 43.939990900525117 31.519311620253575 51.686375811771541 54.942652936427294" fill="none" stroke="#000" stroke-linecap="round" stroke-linejoin="round" stroke-width="34.377753744593065"/>
          </g>
          <path d="M76.224342579746008,44.255245396889222l-1.776815550140782-5.824563592296727-20.437012482518185,11.649753884780694,4.640311147096327,2.369505200311323,17.57351688556264-8.19469549279529Z" fill="none" stroke="#000" stroke-linecap="round" stroke-linejoin="round" stroke-width="34.377753744593065"/>
          <path d="M53.609465596004156,52.844858423073674l18.018037136173007,16.093046160505764" fill="none" stroke="#000" stroke-linecap="round" stroke-linejoin="round" stroke-width="34.377753744593065"/>
          <path d="M53.609465596004156,52.844858423073674l18.018037136173007,16.093046160505764" fill="none" stroke="#000" stroke-linecap="round" stroke-linejoin="round" stroke-width="34.377753744593065"/>
          <path d="M198.451632512663309,113.465013147844729c0,42.530658702344226-34.47787464618159,77.008730698822546-77.008919010180762,77.008730698822546-42.531038338033795,0-77.008919010178033-34.47807199647832-77.008919010178033-77.008730698822546,0-42.531032312072057,34.477880672144238-77.008919010178943,77.008919010178033-77.008919010178943,42.531044363999172,0,77.008919010180762,34.477886698106886,77.008919010180762,77.008919010178943Z" fill="none" stroke="#000" stroke-linecap="round" stroke-linejoin="round" stroke-width="34.377753744593065"/>
          <path d="M198.451632512663309,113.465013147844729c0,42.530658702344226-34.47787464618159,77.008730698822546-77.008919010180762,77.008730698822546-42.531038338033795,0-77.008919010178033-34.47807199647832-77.008919010178033-77.008730698822546,0-42.531032312072057,34.477880672144238-77.008919010178943,77.008919010178033-77.008919010178943,42.531044363999172,0,77.008919010180762,34.477886698106886,77.008919010180762,77.008919010178943Z" fill="none" stroke="#000" stroke-linecap="round" stroke-linejoin="round" stroke-width="34.377753744593065"/>
          <path d="M198.451632512663309,113.465013147844729c0,42.530658702344226-34.47787464618159,77.008730698822546-77.008919010180762,77.008730698822546-42.531038338033795,0-77.008919010178033-34.47807199647832-77.008919010178033-77.008730698822546,0-42.531032312072057,34.477880672144238-77.008919010178943,77.008919010178033-77.008919010178943,42.531044363999172,0,77.008919010180762,34.477886698106886,77.008919010180762,77.008919010178943Z" fill="none" stroke="#000" stroke-linecap="round" stroke-linejoin="round" stroke-width="34.377753744593065"/>
          <ellipse cx="114.23615132503528" cy="87.642735685459911" rx="31.794647413201609" ry="42.361823480285153" transform="translate(-29.592064967253918 94.320428862465008) rotate(-40.153894458553637)" fill="none" stroke="#000" stroke-linecap="round" stroke-linejoin="round" stroke-width="34.377753744593065"/>
          <path d="M36.041827037677649,27.866481111485882l8.934994127940627-3.159340267088737c0,1.62895046173071-.197458766692762,4.393373195430286-2.912531873627813,5.627418175700768-2.476544387103786,1.125987405675005-5.430146213867374-1.530389805357117-6.022462254312813-2.468077908612031Z" fill="none" stroke="#000" stroke-linecap="round" stroke-linejoin="round" stroke-width="34.377753744593065"/>
          <path d="M24.161319432268101,44.225549449553l3.849591770205734-8.660393991560341c1.182857434686412,1.120310948211227,3.054387570097788,3.164402076290571,2.083585291802592,5.984432399682191-.88550024775941,2.572327074373788-4.844847407730413,2.890787184915098-5.933177062008326,2.675961591878149Z" fill="none" stroke="#000" stroke-linecap="round" stroke-linejoin="round" stroke-width="34.377753744593065"/>
          <path d="M39.05305816483542,38.479974184708226l8.638775848082332,7.947630995897271" fill="none" stroke="#000" stroke-linecap="round" stroke-linejoin="round" stroke-width="34.377753744593065"/>
          <path d="M52.924458187477285,34.185161645651533l-1.03322975199535,10.15412183596618" fill="none" stroke="#000" stroke-linecap="round" stroke-linejoin="round" stroke-width="34.377753744593065"/>
        </g>
        <g>
          <path d="M28.362167618485728,34.008239362017775c-.363513225444876-.025911642358551-.726901412149346.066972556552173-1.008904444488508.297610277390959-1.877595267514153,1.537331715118853-4.834927165584304,5.352549883948996-4.576176819279681,10.179394726204009.02110443010406.394278781273897.211612248086567.756981514647123.504672923151702,1.021726187984314l.622894791408726.561728250537271c.966758856895467.871980999007064,2.175521907976872,1.429924944565755,3.466301333082811,1.600532018618651l3.615675925311734.476424713509005c1.647722844019881.217356497640139,1.647722844019881,2.602035073638945,0,2.819391571278175l-3.615675925311734.476424713509914c-1.290779425105939.170607074051077-2.499542476187344.728551019610677-3.466301333082811,1.600532018622289l-.622894791408726.561728250533633c-.293060675065135.264756725266125-.483568493047642.628074106900385-.504672923151702,1.021726187985223-.258750346304623,4.826844842253195,2.698581551765528,8.642689711268758,4.576176819279681,10.179394726208557.282003032339162.230637720833329.645391219043631.323521919742234,1.008904444488508.297610277385502l.779408643704301-.055607589692954c1.192524586371292-.085291485099333,2.337786035787758-.50107090356687,3.307071277811701-1.201179376217624l3.510343592637582-2.535050465165114c1.476294732460701-1.06659551100347,3.287102741797753.79930788114234,2.177225749110221,2.243128697166867l-2.072461363480215,2.696184724847626c-.79350186546344,1.032476506583407-1.255018345671488,2.281044058498992-1.323512457964171,3.581422843203654l-.04410402567737.837223242469008c-.020726300905153.394290833199193.100974054688777.786050761793376.364399042055084,1.079864682276821,3.225939213905804,3.599753823678839,8.014422773545448,4.212039906631617,10.429107633993226,3.973194823726772.362630421815993-.035384456728025.68564013467585-.226214663748578.924675035425935-.50107090356687l.512381636753162-.590170797498104c.784086297746398-.902303646527798,1.300954264205757-2.006175766748129,1.492664261871141-3.186505309814493l.500311632186822-3.079725239447725c.287248633425406-1.768608188075632,2.831148225751349-1.768608188075632,3.118460131790926,0l.500311632185912,3.079725239447725c.191709997667203,1.180329543066364.708577964126562,2.284201663286694,1.492597976274737,3.186505309814493l.512444909367332.590170797498104c.238974641117238.274856239818291.561984353978005.465686446838845.924678048409078.50107090356687,2.414618574849555.238845082904845,7.203105147471433-.373441000047933,10.429104621011902-3.973194823726772.263364727731641-.293813920483444.385125342959327-.685573849077628.364335769440913-1.079864682276821l-.044104025679189-.837223242469008c-.068491099311359-1.300378784704662-.529947319884741-2.548946336620247-1.323446172366857-3.581422843203654l-2.072527649076619-2.696184724847626c-1.109873979706208-1.443820816024527.70099428926369-3.309724208170337,2.177289021724391-2.243128697166867l3.510346605618906,2.535050465165114c.969282229044438.700108472650754,2.114480405843096,1.115887891118291,3.307259589168098,1.201179376217624l.779090774136421.055607589692954c.363323407599637.025911642356732.727279541349162-.066972556552173,1.009095768824409-.297610277385502,1.877280410930325-1.536705014939798,4.835052204323802-5.352549883955362,4.575990014417584-10.179394726208557-.020855859118456-.393652081084838-.211680040174542-.756969462719098-.504867260471656-1.021726187985223l-.622385597504945-.561728250533633c-.966757350404805-.871980999011612-2.175523414468444-1.429924944571212-3.466429384804542-1.600532018622289l-2.428330654428464-.31971351091579c-1.830778051841662-.242014739621482-1.830778051841662-2.890799236843122,0-3.132175224351158l2.428330654428464-.320352263030145c1.290905970336098-.170607074052896,2.499672034399737-.728551019611587,3.466429384804542-1.600532018618651l.622385597504945-.561728250537271c.293187220297114-.264744673337191.4840114013532-.627447406710417.504867260471656-1.021726187984314.259062189906217-4.826844842255014-2.698709603487259-8.642063011085156-4.575990014417584-10.179394726204009-.281816227475247-.230637720838786-.645772361224772-.32352191974951-1.009095768824409-.297610277390959l-.779090774136421.055607589692045c-1.192779183325001.085303537029176-2.337977360123659.50107090356687-3.307259589168098,1.201179376217624l-3.510346605618906,2.535050465166933c-1.476294732460701,1.06659551100347-3.287163001430599-.79930788114325-2.177289021724391-2.243128697168686l2.072527649076619-2.696184724847626c.793498852482116-1.031837754464505,1.254955073055498-2.281044058498082,1.323446172366857-3.580796143012776l.044104025679189-.837849942659886c.020789573518414-.394290833197374-.100971041709272-.786050761793376-.364335769440913-1.079864682275911-3.225999473540469-3.599753823678839-8.014486046162347-4.211401154517262-10.429104621011902-3.973194823727681-.362693694431073.035384456727115-.68570340729184.226214663750397-.924678048409078.501709655681225l-.512444909367332.589532045383748c-.784020012148176.902942398642153-1.300887978607534,2.006175766748129-1.492597976274737,3.186505309815402l-.500311632185912,3.079725239446816c-.287311906039577,1.768608188077451-2.831211498365519,1.768608188077451-3.118460131790926,0l-.500311632186822-3.079725239446816c-.191709997665384-1.180329543067273-.708577964124743-2.283562911173249-1.492664261871141-3.186505309815402l-.512381636753162-.589532045383748c-.239034900750084-.275494991930827-.562044613609942-.46632519895411-.924675035425935-.501709655681225-2.414684860447778-.238206330789581-7.203168420087422.373441000048842-10.429107633993226,3.973194823727681-.263424987366307.293813920482535-.385125342960237.685573849078537-.364399042055084,1.079864682275911l.04410402567737.837849942659886c.068494112292683,1.299752084514694.53001059250073,2.548958388548272,1.323512457964171,3.580796143012776l2.072461363480215,2.696184724847626c1.109876992687532,1.443820816025436-.70093101664952,3.309724208172156-2.177225749110221,2.243128697168686l-3.510343592637582-2.535050465166933c-.969285242023943-.700108472650754-2.11454669144041-1.115875839188448-3.307071277811701-1.201179376217624l-.779408643704301-.055607589692045Z" fill="url(#linear-gradient)" fill-rule="evenodd" stroke-width="0"/>
          <path d="M28.362167618485728,34.008239362017775c-.363513225444876-.025911642358551-.726901412149346.066972556552173-1.008904444488508.297610277390959-1.877595267514153,1.537331715118853-4.834927165584304,5.352549883948996-4.576176819279681,10.179394726204009.02110443010406.394278781273897.211612248086567.756981514647123.504672923151702,1.021726187984314l.622894791408726.561728250537271c.966758856895467.871980999007064,2.175521907976872,1.429924944565755,3.466301333082811,1.600532018618651l3.615675925311734.476424713509005c1.647722844019881.217356497640139,1.647722844019881,2.602035073638945,0,2.819391571278175l-3.615675925311734.476424713509914c-1.290779425105939.170607074051077-2.499542476187344.728551019610677-3.466301333082811,1.600532018622289l-.622894791408726.561728250533633c-.293060675065135.264756725266125-.483568493047642.628074106900385-.504672923151702,1.021726187985223-.258750346304623,4.826844842253195,2.698581551765528,8.642689711268758,4.576176819279681,10.179394726208557.282003032339162.230637720833329.645391219043631.323521919742234,1.008904444488508.297610277385502l.779408643704301-.055607589692954c1.192524586371292-.085291485099333,2.337786035787758-.50107090356687,3.307071277811701-1.201179376217624l3.510343592637582-2.535050465165114c1.476294732460701-1.06659551100347,3.287102741797753.79930788114234,2.177225749110221,2.243128697166867l-2.072461363480215,2.696184724847626c-.79350186546344,1.032476506583407-1.255018345671488,2.281044058498992-1.323512457964171,3.581422843203654l-.04410402567737.837223242469008c-.020726300905153.394290833199193.100974054688777.786050761793376.364399042055084,1.079864682276821,3.225939213905804,3.599753823678839,8.014422773545448,4.212039906631617,10.429107633993226,3.973194823726772.362630421815993-.035384456728025.68564013467585-.226214663748578.924675035425935-.50107090356687l.512381636753162-.590170797498104c.784086297746398-.902303646527798,1.300954264205757-2.006175766748129,1.492664261871141-3.186505309814493l.500311632186822-3.079725239447725c.287248633425406-1.768608188075632,2.831148225751349-1.768608188075632,3.118460131790926,0l.500311632185912,3.079725239447725c.191709997667203,1.180329543066364.708577964126562,2.284201663286694,1.492597976274737,3.186505309814493l.512444909367332.590170797498104c.238974641117238.274856239818291.561984353978005.465686446838845.924678048409078.50107090356687,2.414618574849555.238845082904845,7.203105147471433-.373441000047933,10.429104621011902-3.973194823726772.263364727731641-.293813920483444.385125342959327-.685573849077628.364335769440913-1.079864682276821l-.044104025679189-.837223242469008c-.068491099311359-1.300378784704662-.529947319884741-2.548946336620247-1.323446172366857-3.581422843203654l-2.072527649076619-2.696184724847626c-1.109873979706208-1.443820816024527.70099428926369-3.309724208170337,2.177289021724391-2.243128697166867l3.510346605618906,2.535050465165114c.969282229044438.700108472650754,2.114480405843096,1.115887891118291,3.307259589168098,1.201179376217624l.779090774136421.055607589692954c.363323407599637.025911642356732.727279541349162-.066972556552173,1.009095768824409-.297610277385502,1.877280410930325-1.536705014939798,4.835052204323802-5.352549883955362,4.575990014417584-10.179394726208557-.020855859118456-.393652081084838-.211680040174542-.756969462719098-.504867260471656-1.021726187985223l-.622385597504945-.561728250533633c-.966757350404805-.871980999011612-2.175523414468444-1.429924944571212-3.466429384804542-1.600532018622289l-2.428330654428464-.31971351091579c-1.830778051841662-.242014739621482-1.830778051841662-2.890799236843122,0-3.132175224351158l2.428330654428464-.320352263030145c1.290905970336098-.170607074052896,2.499672034399737-.728551019611587,3.466429384804542-1.600532018618651l.622385597504945-.561728250537271c.293187220297114-.264744673337191.4840114013532-.627447406710417.504867260471656-1.021726187984314.259062189906217-4.826844842255014-2.698709603487259-8.642063011085156-4.575990014417584-10.179394726204009-.281816227475247-.230637720838786-.645772361224772-.32352191974951-1.009095768824409-.297610277390959l-.779090774136421.055607589692045c-1.192779183325001.085303537029176-2.337977360123659.50107090356687-3.307259589168098,1.201179376217624l-3.510346605618906,2.535050465166933c-1.476294732460701,1.06659551100347-3.287163001430599-.79930788114325-2.177289021724391-2.243128697168686l2.072527649076619-2.696184724847626c.793498852482116-1.031837754464505,1.254955073055498-2.281044058498082,1.323446172366857-3.580796143012776l.044104025679189-.837849942659886c.020789573518414-.394290833197374-.100971041709272-.786050761793376-.364335769440913-1.079864682275911-3.225999473540469-3.599753823678839-8.014486046162347-4.211401154517262-10.429104621011902-3.973194823727681-.362693694431073.035384456727115-.68570340729184.226214663750397-.924678048409078.501709655681225l-.512444909367332.589532045383748c-.784020012148176.902942398642153-1.300887978607534,2.006175766748129-1.492597976274737,3.186505309815402l-.500311632185912,3.079725239446816c-.287311906039577,1.768608188077451-2.831211498365519,1.768608188077451-3.118460131790926,0l-.500311632186822-3.079725239446816c-.191709997665384-1.180329543067273-.708577964124743-2.283562911173249-1.492664261871141-3.186505309815402l-.512381636753162-.589532045383748c-.239034900750084-.275494991930827-.562044613609942-.46632519895411-.924675035425935-.501709655681225-2.414684860447778-.238206330789581-7.203168420087422.373441000048842-10.429107633993226,3.973194823727681-.263424987366307.293813920482535-.385125342960237.685573849078537-.364399042055084,1.079864682275911l.04410402567737.837849942659886c.068494112292683,1.299752084514694.53001059250073,2.548958388548272,1.323512457964171,3.580796143012776l2.072461363480215,2.696184724847626c1.109876992687532,1.443820816025436-.70093101664952,3.309724208172156-2.177225749110221,2.243128697168686l-3.510343592637582-2.535050465166933c-.969285242023943-.700108472650754-2.11454669144041-1.115875839188448-3.307071277811701-1.201179376217624l-.779408643704301-.055607589692045Z" fill="url(#linear-gradient-2)" fill-rule="evenodd" stroke-width="0"/>
          <path d="M51.147392559858417,51.363760997831378l-13.427196135108716,20.733483852832251,7.898350667711384,2.171733083527215,1.480970880012137-3.060140858597151,4.047874587385195-19.845076077762315Z" fill="#d23e27" stroke-width="0"/>
          <path d="M55.491485427099178,48.303620139231498l12.637361068337668,11.748326593077763,5.232500642311606-6.022335709079925-17.869861710649275-5.725990883997838Z" fill="#d23e27" stroke-width="0"/>
          <polygon points="48.876586613074323 49.290600622603051 26.267524683955344 54.325955848315061 27.847194817497439 58.76862142385653 48.876586613074323 49.290600622603051" fill="#febb12" opacity=".5" stroke-width="0"/>
          <polygon points="62.106703617181665 26.78030121962729 52.527139307701873 47.949775571967621 51.937543989704864 36.258322020880769 54.83067828734238 24.998435912205423 62.106703617181665 26.78030121962729" fill="#febb12" opacity=".5" stroke-width="0"/>
          <path d="M54.898413128255925,47.019668130587888l-29.618813497425435,12.143870826652346,4.739010400627194,4.344092867243489,24.879803096798241-16.487963693895836Z" fill="url(#linear-gradient-3)" stroke-width="0"/>
          <polygon points="54.109210787634765 51.956450647999191 28.439571117574815 40.800187004909276 25.773846130916354 45.934114938920175 54.109210787634765 51.956450647999191" fill="url(#linear-gradient-4)" opacity=".600000023841858" stroke-width="0"/>
          <polygon points="53.220363117239685 52.548513597987039 64.969126592661269 28.557743469955312 60.427574958728655 26.385383686242676 53.220363117239685 52.548513597987039" fill="url(#linear-gradient-5)" opacity=".600000023841858" stroke-width="0"/>
          <polygon points="51.686375811771541 54.942652936427294 47.003286350931376 27.348344679741786 43.939990900525117 31.519311620253575 51.686375811771541 54.942652936427294" fill="url(#linear-gradient-6)" opacity=".300000011920929" stroke-width="0"/>
          <path d="M76.224342579746008,44.255245396889222l-1.776815550140782-5.824563592296727-20.437012482518185,11.649753884780694,4.640311147096327,2.369505200311323,17.57351688556264-8.19469549279529Z" fill="url(#linear-gradient-7)" stroke-width="0"/>
          <path d="M53.609465596004156,52.844858423073674l18.018037136173007,16.093046160505764" fill="none" stroke="url(#radial-gradient)" stroke-linecap="round" stroke-width="11.373625501844428"/>
          <path d="M53.609465596004156,52.844858423073674l18.018037136173007,16.093046160505764" fill="none" stroke="url(#linear-gradient-8)" stroke-linecap="round" stroke-width="11.373625501844428"/>
          <path d="M198.451632512663309,113.465013147844729c0,42.530658702344226-34.47787464618159,77.008730698822546-77.008919010180762,77.008730698822546-42.531038338033795,0-77.008919010178033-34.47807199647832-77.008919010178033-77.008730698822546,0-42.531032312072057,34.477880672144238-77.008919010178943,77.008919010178033-77.008919010178943,42.531044363999172,0,77.008919010180762,34.477886698106886,77.008919010180762,77.008919010178943Z" fill="url(#radial-gradient-2)" stroke-width="0"/>
          <path d="M198.451632512663309,113.465013147844729c0,42.530658702344226-34.47787464618159,77.008730698822546-77.008919010180762,77.008730698822546-42.531038338033795,0-77.008919010178033-34.47807199647832-77.008919010178033-77.008730698822546,0-42.531032312072057,34.477880672144238-77.008919010178943,77.008919010178033-77.008919010178943,42.531044363999172,0,77.008919010180762,34.477886698106886,77.008919010180762,77.008919010178943Z" fill="url(#radial-gradient-3)" stroke-width="0"/>
          <path d="M198.451632512663309,113.465013147844729c0,42.530658702344226-34.47787464618159,77.008730698822546-77.008919010180762,77.008730698822546-42.531038338033795,0-77.008919010178033-34.47807199647832-77.008919010178033-77.008730698822546,0-42.531032312072057,34.477880672144238-77.008919010178943,77.008919010178033-77.008919010178943,42.531044363999172,0,77.008919010180762,34.477886698106886,77.008919010180762,77.008919010178943Z" fill="url(#radial-gradient-4)" stroke-width="0"/>
          <ellipse cx="114.23615132503528" cy="87.642735685459911" rx="31.794647413201609" ry="42.361823480285153" transform="translate(-29.592064967253918 94.320428862465008) rotate(-40.153894458553637)" fill="url(#radial-gradient-5)" stroke-width="0"/>
          <path d="M36.041827037677649,27.866481111485882l8.934994127940627-3.159340267088737c0,1.62895046173071-.197458766692762,4.393373195430286-2.912531873627813,5.627418175700768-2.476544387103786,1.125987405675005-5.430146213867374-1.530389805357117-6.022462254312813-2.468077908612031Z" fill="#ffd35d" stroke-width="0"/>
          <path d="M24.161319432268101,44.225549449553l3.849591770205734-8.660393991560341c1.182857434686412,1.120310948211227,3.054387570097788,3.164402076290571,2.083585291802592,5.984432399682191-.88550024775941,2.572327074373788-4.844847407730413,2.890787184915098-5.933177062008326,2.675961591878149Z" fill="url(#linear-gradient-9)" stroke-width="0"/>
          <path d="M39.05305816483542,38.479974184708226l8.638775848082332,7.947630995897271" fill="none" stroke="url(#linear-gradient-10)" stroke-linecap="round" stroke-width=".631868109590158"/>
          <path d="M52.924458187477285,34.185161645651533l-1.03322975199535,10.15412183596618" fill="none" stroke="url(#linear-gradient-11)" stroke-linecap="round" stroke-width=".631868109590158"/>
        </g>
      </g>
      <g id="AC">
        <g>
          <path d="M134.749802609706421,102.743725066489787c3.4072265625,31.18017578125,7.85498046875,62.3076171875,13.342041015625,93.380859375.065673828125,1.1318359375-.060546875,2.244140625-.37939453125,3.3349609375-.347412109375.9052734375-.909423828125,1.794921875-1.6875,2.6669921875-.780029296875.873046875-1.947998046875,1.5126953125-3.504638671875,1.92578125-2.10498046875.5859375-4.29443359375,1.064453125-6.5703125,1.4384765625-2.278076171875.3720703125-4.228759765625.1982421875-5.85107421875-.5185546875-5.69873046875,2.0478515625-11.640869140625,3.232421875-17.82373046875,3.544921875-6.184814453125.3125-11.97900390625-.8076171875-17.38427734375-3.365234375-4.68701171875-2.18359375-8.4921875-5.181640625-11.4130859375-8.9970703125-2.9228515625-3.8115234375-4.995849609375-8.009765625-6.220703125-12.58984375-1.22509765625-4.580078125-1.6484375-9.3681640625-1.2685546875-14.3681640625.3779296875-4.9990234375,1.5341796875-9.728515625,3.464599609375-14.189453125,1.582763671875-3.552734375,3.693115234375-6.75537109375,6.330322265625-9.6064453125,2.635498046875-2.84814453125,5.594970703125-5.26806640625,8.876708984375-7.25927734375,3.281982421875-1.98876953125,6.849853515625-3.47412109375,10.703857421875-4.453125,3.854248046875-.97802734375,7.75048828125-1.32177734375,11.692626953125-1.02880859375-.360107421875-3.84716796875-.653076171875-7.3955078125-.87890625-10.64453125-.227783203125-3.248046875-.420654296875-6.09521484375-.579345703125-8.546875-.213623046875-2.82275390625-.39404296875-5.41064453125-.5390625-7.7685546875-.214111328125-.8251953125-.1806640625-1.58935546875.099609375-2.29638671875.19970703125-.59912109375.58837890625-1.201171875,1.168212890625-1.80810546875.577880859375-.6025390625,1.519775390625-1.00146484375,2.825927734375-1.18798828125,1.2099609375-.1728515625,2.68115234375-.35791015625,4.4130859375-.55859375,1.73046875-.19873046875,3.38525390625-.2705078125,4.962890625-.2109375,1.57763671875.0615234375,2.96875.314453125,4.173828125.759765625,1.204833984375.44677734375,1.88720703125,1.22705078125,2.046875,2.34619140625ZM119.174119015956421,153.468334441489787c-3.7294921875-.7978515625-6.956298828125-.7646484375-9.685546875.1005859375-2.729248046875.8662109375-4.962890625,2.2060546875-6.699951171875,4.0234375-1.737548828125,1.8173828125-2.97705078125,3.9697265625-3.714599609375,6.451171875-.7392578125,2.4833984375-1.00146484375,4.9716796875-.78857421875,7.458984375.212890625,2.4892578125.905517578125,4.83984375,2.0771484375,7.0498046875s2.779296875,3.978515625,4.82275390625,5.3017578125c2.0439453125,1.326171875,4.5185546875,2.017578125,7.42919921875,2.076171875,2.908203125.060546875,6.273193359375-.8466796875,10.0947265625-2.7255859375-.65234375-4.5654296875-1.248291015625-9.236328125-1.78759765625-14.0087890625-.539306640625-4.7734375-1.123291015625-10.015625-1.74755859375-15.7275390625Z" fill="none" stroke="#000" stroke-linecap="round" stroke-linejoin="round" stroke-width="37.276771545410156"/>
          <path d="M181.299119015956421,122.554271941489787c4.2333984375-1.318359375,8.530029296875-2.02587890625,12.890625-2.1279296875,4.358642578125-.0986328125,8.5673828125.5595703125,12.62109375,1.9765625,4.05419921875,1.41845703125,7.564453125,3.86572265625,10.534423828125,7.3388671875,2.515380859375,2.970703125,4.628662109375,6.78125,6.341064453125,11.43359375,1.71044921875,4.6552734375,3.0654296875,10.4736328125,4.06396484375,17.4638671875l2.97607421875,22.826171875c.10693359375.7470703125.18505859375,1.638671875.239990234375,2.67578125.052490234375,1.0390625-.08056640625,2.1044921875-.399658203125,3.1953125-.320556640625,1.0927734375-.8896484375,2.1025390625-1.707275390625,3.025390625-.8193359375.9267578125-2.008056640625,1.591796875-3.564697265625,2.0078125-2.463134765625.73046875-5.102294921875,1.2275390625-7.91796875,1.4873046875-2.81591796875.259765625-5.110595703125-.482421875-6.8798828125-2.2255859375-.99853515625-1-1.7880859375-2.359375-2.36669921875-4.0849609375-.58056640625-1.72265625-1.0390625-3.607421875-1.3779296875-5.6513671875-.3408203125-2.0419921875-.582275390625-4.0751953125-.72900390625-6.1015625-.146484375-2.0224609375-.234375-3.7939453125-.259765625-5.3115234375-.0947265625-3.3134765625-.2197265625-6.5302734375-.379638671875-9.6455078125s-.679931640625-6.0830078125-1.557861328125-8.90625c-.99853515625-2.99560546875-2.447021484375-5.47509765625-4.343505859375-7.439453125-1.898681640625-1.9619140625-3.964111328125-3.28515625-6.200927734375-3.96484375-2.23681640625-.677734375-4.48046875-.73681640625-6.72998046875-.17822265625-2.25146484375.5595703125-4.2607421875,1.79833984375-6.031005859375,3.71435546875-1.772216796875,1.91748046875-3.12841796875,4.560546875-4.07373046875,7.9287109375-.945068359375,3.3681640625-1.218017578125,7.4482421875-.818603515625,12.2421875l4.61376953125,29.294921875c-.068115234375.8662109375-.2802734375,1.7041015625-.63916015625,2.517578125-.3740234375.71875-.965576171875,1.3994140625-1.77734375,2.03515625-.8134765625.640625-1.998046875,1.1630859375-3.554443359375,1.5791015625-1.651123046875.42578125-3.336181640625.783203125-5.052734375,1.078125-1.71875.2919921875-3.368408203125.384765625-4.952392578125.279296875-1.58447265625-.107421875-2.9462890625-.482421875-4.083984375-1.1279296875-1.1396484375-.64453125-1.95361328125-1.693359375-2.4462890625-3.1455078125-.26806640625-.5322265625-.6494140625-2.546875-1.148681640625-6.041015625-.499267578125-3.4951171875-1.034912109375-7.744140625-1.607666015625-12.7509765625-.572509765625-5.00390625-1.17333984375-10.3642578125-1.7978515625-16.076171875-.62646484375-5.7099609375-1.203125-11.07177734375-1.727783203125-16.0859375-.5263671875-5.0107421875-.946533203125-9.27880859375-1.258056640625-12.80078125-.31396484375-3.521484375-.51611328125-5.60693359375-.609375-6.26025390625-.173828125-.54541015625-.10693359375-1.0771484375.19970703125-1.59814453125.212890625-.5048828125.621826171875-.966796875,1.22802734375-1.38818359375.6044921875-.41845703125,1.55322265625-.76708984375,2.845947265625-1.04736328125,1.197021484375-.2646484375,2.654541015625-.5458984375,4.373291015625-.83935546875,1.716796875-.29296875,3.373779296875-.5048828125,4.97265625-.6396484375,1.596923828125-.13232421875,2.982421875-.09130859375,4.15380859375.1201171875,1.171630859375.21337890625,1.8173828125.73876953125,1.93701171875,1.57763671875l.6591796875,4.61328125c3.328125-1.99609375,7.109375-3.654296875,11.34326171875-4.97265625Z" fill="none" stroke="#000" stroke-linecap="round" stroke-linejoin="round" stroke-width="37.276771545410156"/>
        </g>
        <g>
          <path d="M134.749802609706421,102.743725066489787c3.4072265625,31.18017578125,7.85498046875,62.3076171875,13.342041015625,93.380859375.065673828125,1.1318359375-.060546875,2.244140625-.37939453125,3.3349609375-.347412109375.9052734375-.909423828125,1.794921875-1.6875,2.6669921875-.780029296875.873046875-1.947998046875,1.5126953125-3.504638671875,1.92578125-2.10498046875.5859375-4.29443359375,1.064453125-6.5703125,1.4384765625-2.278076171875.3720703125-4.228759765625.1982421875-5.85107421875-.5185546875-5.69873046875,2.0478515625-11.640869140625,3.232421875-17.82373046875,3.544921875-6.184814453125.3125-11.97900390625-.8076171875-17.38427734375-3.365234375-4.68701171875-2.18359375-8.4921875-5.181640625-11.4130859375-8.9970703125-2.9228515625-3.8115234375-4.995849609375-8.009765625-6.220703125-12.58984375-1.22509765625-4.580078125-1.6484375-9.3681640625-1.2685546875-14.3681640625.3779296875-4.9990234375,1.5341796875-9.728515625,3.464599609375-14.189453125,1.582763671875-3.552734375,3.693115234375-6.75537109375,6.330322265625-9.6064453125,2.635498046875-2.84814453125,5.594970703125-5.26806640625,8.876708984375-7.25927734375,3.281982421875-1.98876953125,6.849853515625-3.47412109375,10.703857421875-4.453125,3.854248046875-.97802734375,7.75048828125-1.32177734375,11.692626953125-1.02880859375-.360107421875-3.84716796875-.653076171875-7.3955078125-.87890625-10.64453125-.227783203125-3.248046875-.420654296875-6.09521484375-.579345703125-8.546875-.213623046875-2.82275390625-.39404296875-5.41064453125-.5390625-7.7685546875-.214111328125-.8251953125-.1806640625-1.58935546875.099609375-2.29638671875.19970703125-.59912109375.58837890625-1.201171875,1.168212890625-1.80810546875.577880859375-.6025390625,1.519775390625-1.00146484375,2.825927734375-1.18798828125,1.2099609375-.1728515625,2.68115234375-.35791015625,4.4130859375-.55859375,1.73046875-.19873046875,3.38525390625-.2705078125,4.962890625-.2109375,1.57763671875.0615234375,2.96875.314453125,4.173828125.759765625,1.204833984375.44677734375,1.88720703125,1.22705078125,2.046875,2.34619140625ZM119.174119015956421,153.468334441489787c-3.7294921875-.7978515625-6.956298828125-.7646484375-9.685546875.1005859375-2.729248046875.8662109375-4.962890625,2.2060546875-6.699951171875,4.0234375-1.737548828125,1.8173828125-2.97705078125,3.9697265625-3.714599609375,6.451171875-.7392578125,2.4833984375-1.00146484375,4.9716796875-.78857421875,7.458984375.212890625,2.4892578125.905517578125,4.83984375,2.0771484375,7.0498046875s2.779296875,3.978515625,4.82275390625,5.3017578125c2.0439453125,1.326171875,4.5185546875,2.017578125,7.42919921875,2.076171875,2.908203125.060546875,6.273193359375-.8466796875,10.0947265625-2.7255859375-.65234375-4.5654296875-1.248291015625-9.236328125-1.78759765625-14.0087890625-.539306640625-4.7734375-1.123291015625-10.015625-1.74755859375-15.7275390625Z" fill="#fff" stroke-width="0"/>
          <path d="M181.299119015956421,122.554271941489787c4.2333984375-1.318359375,8.530029296875-2.02587890625,12.890625-2.1279296875,4.358642578125-.0986328125,8.5673828125.5595703125,12.62109375,1.9765625,4.05419921875,1.41845703125,7.564453125,3.86572265625,10.534423828125,7.3388671875,2.515380859375,2.970703125,4.628662109375,6.78125,6.341064453125,11.43359375,1.71044921875,4.6552734375,3.0654296875,10.4736328125,4.06396484375,17.4638671875l2.97607421875,22.826171875c.10693359375.7470703125.18505859375,1.638671875.239990234375,2.67578125.052490234375,1.0390625-.08056640625,2.1044921875-.399658203125,3.1953125-.320556640625,1.0927734375-.8896484375,2.1025390625-1.707275390625,3.025390625-.8193359375.9267578125-2.008056640625,1.591796875-3.564697265625,2.0078125-2.463134765625.73046875-5.102294921875,1.2275390625-7.91796875,1.4873046875-2.81591796875.259765625-5.110595703125-.482421875-6.8798828125-2.2255859375-.99853515625-1-1.7880859375-2.359375-2.36669921875-4.0849609375-.58056640625-1.72265625-1.0390625-3.607421875-1.3779296875-5.6513671875-.3408203125-2.0419921875-.582275390625-4.0751953125-.72900390625-6.1015625-.146484375-2.0224609375-.234375-3.7939453125-.259765625-5.3115234375-.0947265625-3.3134765625-.2197265625-6.5302734375-.379638671875-9.6455078125s-.679931640625-6.0830078125-1.557861328125-8.90625c-.99853515625-2.99560546875-2.447021484375-5.47509765625-4.343505859375-7.439453125-1.898681640625-1.9619140625-3.964111328125-3.28515625-6.200927734375-3.96484375-2.23681640625-.677734375-4.48046875-.73681640625-6.72998046875-.17822265625-2.25146484375.5595703125-4.2607421875,1.79833984375-6.031005859375,3.71435546875-1.772216796875,1.91748046875-3.12841796875,4.560546875-4.07373046875,7.9287109375-.945068359375,3.3681640625-1.218017578125,7.4482421875-.818603515625,12.2421875l4.61376953125,29.294921875c-.068115234375.8662109375-.2802734375,1.7041015625-.63916015625,2.517578125-.3740234375.71875-.965576171875,1.3994140625-1.77734375,2.03515625-.8134765625.640625-1.998046875,1.1630859375-3.554443359375,1.5791015625-1.651123046875.42578125-3.336181640625.783203125-5.052734375,1.078125-1.71875.2919921875-3.368408203125.384765625-4.952392578125.279296875-1.58447265625-.107421875-2.9462890625-.482421875-4.083984375-1.1279296875-1.1396484375-.64453125-1.95361328125-1.693359375-2.4462890625-3.1455078125-.26806640625-.5322265625-.6494140625-2.546875-1.148681640625-6.041015625-.499267578125-3.4951171875-1.034912109375-7.744140625-1.607666015625-12.7509765625-.572509765625-5.00390625-1.17333984375-10.3642578125-1.7978515625-16.076171875-.62646484375-5.7099609375-1.203125-11.07177734375-1.727783203125-16.0859375-.5263671875-5.0107421875-.946533203125-9.27880859375-1.258056640625-12.80078125-.31396484375-3.521484375-.51611328125-5.60693359375-.609375-6.26025390625-.173828125-.54541015625-.10693359375-1.0771484375.19970703125-1.59814453125.212890625-.5048828125.621826171875-.966796875,1.22802734375-1.38818359375.6044921875-.41845703125,1.55322265625-.76708984375,2.845947265625-1.04736328125,1.197021484375-.2646484375,2.654541015625-.5458984375,4.373291015625-.83935546875,1.716796875-.29296875,3.373779296875-.5048828125,4.97265625-.6396484375,1.596923828125-.13232421875,2.982421875-.09130859375,4.15380859375.1201171875,1.171630859375.21337890625,1.8173828125.73876953125,1.93701171875,1.57763671875l.6591796875,4.61328125c3.328125-1.99609375,7.109375-3.654296875,11.34326171875-4.97265625Z" fill="#fff" stroke-width="0"/>
        </g>
      </g>
    </g>
  </a>
</svg>