<?xml version="1.0" encoding="UTF-8"?>
<svg id="Pattern" xmlns="http://www.w3.org/2000/svg" xmlns:xlink="http://www.w3.org/1999/xlink" viewBox="0 0 280 280">
  <defs>
    <linearGradient id="linear-gradient" x1="4709.521667284376235" y1="-1258.511239035554354" x2="4662.184096917333591" y2="-1285.619079433494562" gradientTransform="translate(-959.157845392783202 4800.206910410576711) rotate(-93.164895084524758) scale(1 -1)" gradientUnits="userSpaceOnUse">
      <stop offset="0" stop-color="#ffc810"/>
      <stop offset=".755599975585938" stop-color="#ef4e26"/>
    </linearGradient>
    <linearGradient id="linear-gradient-2" x1="4666.225713323303353" y1="-1289.501218566128045" x2="4684.027875678701093" y2="-1273.721769350649993" gradientTransform="translate(-959.157845392783202 4800.206910410576711) rotate(-93.164895084524758) scale(1 -1)" gradientUnits="userSpaceOnUse">
      <stop offset="0" stop-color="#d23e27"/>
      <stop offset="1" stop-color="#d23e27" stop-opacity="0"/>
    </linearGradient>
    <linearGradient id="linear-gradient-3" x1="4666.787412352511637" y1="-1260.817250242062073" x2="4685.075094272532624" y2="-1261.442592070942283" xlink:href="#linear-gradient-2"/>
    <linearGradient id="linear-gradient-4" x1="4681.405618651441728" y1="-1249.675910475586534" x2="4690.903565979849191" y2="-1265.316437338286278" xlink:href="#linear-gradient-2"/>
    <linearGradient id="linear-gradient-5" x1="4707.020315764359111" y1="-1274.834416141237853" x2="4690.696056336665606" y2="-1283.102128841339891" xlink:href="#linear-gradient-2"/>
    <linearGradient id="linear-gradient-6" x1="4701.335773035760212" y1="-1256.763736536151555" x2="4693.427076041098189" y2="-1273.265177690223936" xlink:href="#linear-gradient-2"/>
    <linearGradient id="linear-gradient-7" x1="4696.365808547291635" y1="-1300.962173547493876" x2="4686.554550039799324" y2="-1283.564927103324862" xlink:href="#linear-gradient-2"/>
    <radialGradient id="radial-gradient" cx="-2165.398388684216116" cy="2703.802073184847359" fx="-2165.398388684216116" fy="2703.802073184847359" r="6.473513540692628" gradientTransform="translate(1419.235733497481306 9280.889768672994251) rotate(43.514105469913233) scale(3.393360063220485 -2.127890109186671)" gradientUnits="userSpaceOnUse">
      <stop offset="0" stop-color="#e1dfe1"/>
      <stop offset=".394388008117676" stop-color="#c2bec5"/>
    </radialGradient>
    <linearGradient id="linear-gradient-8" x1="4669.94836434487388" y1="-1280.843789366725105" x2="4671.566742747627359" y2="-1282.158752668535726" gradientTransform="translate(-959.157845392783202 4800.206910410576711) rotate(-93.164895084524758) scale(1 -1)" gradientUnits="userSpaceOnUse">
      <stop offset="0" stop-color="#a3a1a8"/>
      <stop offset="1" stop-color="#b8b6bd" stop-opacity="0"/>
    </linearGradient>
    <radialGradient id="radial-gradient-2" cx="-1422.692856198083064" cy="156.456028848168899" fx="-1422.692856198083064" fy="156.456028848168899" r="6.473513598886069" gradientTransform="translate(-27917.613074515742483 11618.059316171918908) rotate(147.449103346976159) scale(21.016598951055698 -34.567501017196157)" gradientUnits="userSpaceOnUse">
      <stop offset=".00558659017086" stop-color="#5c266f"/>
      <stop offset="1" stop-color="#2e265b"/>
    </radialGradient>
    <radialGradient id="radial-gradient-3" cx="-1439.84274432622351" cy="154.638032450840001" fx="-1439.84274432622351" fy="154.638032450840001" r="6.4735135988854" gradientTransform="translate(-26197.311481863405788 20379.194098555020901) rotate(135.370108729045228) scale(22.936198784939201 -26.32180011951473)" gradientUnits="userSpaceOnUse">
      <stop offset=".71875" stop-color="#29233a" stop-opacity="0"/>
      <stop offset="1" stop-color="#29233a"/>
    </radialGradient>
    <radialGradient id="radial-gradient-4" cx="-1028.46810183838079" cy="568.38392691853096" fx="-1028.46810183838079" fy="568.38392691853096" r="6.473513598887816" gradientTransform="translate(22221.056326827121666 -59.391600988162281) rotate(-25.614998341097486) scale(19.476000259430069 -16.532499694880091)" gradientUnits="userSpaceOnUse">
      <stop offset=".809844970703125" stop-color="#672b80" stop-opacity="0"/>
      <stop offset="1" stop-color="#672b80"/>
    </radialGradient>
    <radialGradient id="radial-gradient-5" cx="-1470.529554196004938" cy="975.761318336471049" fx="-1470.529554196004938" fy="975.761318336471049" r="6.473513598890269" gradientTransform="translate(-7484.170464098850971 20974.046973685064586) rotate(92.14849389612597) scale(14.411199570559589 -6.984130141550686)" gradientUnits="userSpaceOnUse">
      <stop offset="0" stop-color="#67568f"/>
      <stop offset=".727772979736328" stop-color="#67568f" stop-opacity="0"/>
    </radialGradient>
    <linearGradient id="linear-gradient-9" x1="4699.910106825002003" y1="-1250.354979833327889" x2="4689.843791192949539" y2="-1247.118223925866687" gradientTransform="translate(-959.157845392783202 4800.206910410576711) rotate(-93.164895084524758) scale(1 -1)" gradientUnits="userSpaceOnUse">
      <stop offset="0" stop-color="#ffd35d"/>
      <stop offset="1" stop-color="#ffd35d" stop-opacity="0"/>
    </linearGradient>
    <linearGradient id="linear-gradient-10" x1="4696.670486480328691" y1="-1259.83079640732376" x2="4692.06846991571274" y2="-1266.405428297122398" gradientTransform="translate(-959.157845392783202 4800.206910410576711) rotate(-93.164895084524758) scale(1 -1)" gradientUnits="userSpaceOnUse">
      <stop offset="0" stop-color="#febb12"/>
      <stop offset="1" stop-color="#febb12" stop-opacity="0"/>
    </linearGradient>
    <linearGradient id="linear-gradient-11" x1="4703.2761899991674" y1="-1273.464741168875662" x2="4695.273630302866877" y2="-1274.06373735626471" xlink:href="#linear-gradient-10"/>
  </defs>
  <a xlink:href="https://www.notion.so/dmmnotes/vicarious-65d8380137f340cb861438dd5c338245?pvs=4">
    <g>
      <g>
        <g>
          <path d="M28.680971152983147,36.497565621575632c-.37331836629437-.005944833917056-.739789421928435.109624446540693-1.015216532618069.361504153624082-1.833714473549662,1.678801989090061-4.643093059239618,5.748821114872044-4.105387648463875,10.671765049637543.043890034415199.402130375774505.259283787638196.762378405683194.574042342433131,1.016620420572508l.668957702617263.539382537989695c1.038259205597569.837303075426462,2.306311769186323,1.339676250662706,3.636353493026945,1.441187434902531l3.725572502947216.282842491321389c1.69781820227945.129143453171309,1.832701856936183,2.568529948744981.159472158161407,2.884072425496925l-3.671676848266543.691866657315586c-1.310741759569282.247530901920072-2.515676786708354.886645673767816-3.455292942360757,1.833313565992285l-.605412065802739.60984765372632c-.284808571385838.287406899198686-.459136728829435.669834918755441-.458459333737665,1.073711660429581.008332515954862,4.952215126869305,3.249343977375247,8.688326482886623,5.256934005002222,10.154084000339935.301518055609449.219978049546626.678496657485994.294438958274441,1.048883763314734.24737160758923l.794144076322482-.100968697460303c1.215058487787246-.154700501413572,2.363076293486301-.644797473031758,3.314998352564544-1.415792737540869l3.447486787516937-2.791762340721107c1.449833603610386-1.17456781925921,3.407724499184042.631718016500599,2.354051629109563,2.171439680708318l-1.967503319139723,2.875262871572886c-.75330635681712,1.101045526711459-1.154788436815579,2.404361573481765-1.151301077788048,3.738447103812177l.002239700615064.85892497389068c.00110032860357.404508759695091.147751629276172.798372528188338.433838844144702,1.084026952088607,3.503558336808055,3.499869742618102,8.43652902418853,3.855353390574237,10.893100488757227,3.474447973076167.368948242282386-.056707551214458.688574402141967-.270185948530525.917546516130642-.564868220477365l.490754797319823-.632691800240536c.751037699863446-.967353746903427,1.217325459868334-2.125785667665696,1.346671032897575-3.344037268550892l.337592181856962-3.178677452338889c.193801422899924-1.825430110053276,2.796061691465184-1.969319721652937,3.190002044320863-.176388257817052l.68598680393734,3.122079584521998c.262870622545961,1.196564363551261.854034168614817,2.296525477394425,1.707077368573664,3.175183031824417l.557582727942645.574724931530909c.260003646907535.267644802573159.601217517581972.444582652244208.974233358802849.460263975189264,2.483523062914173.107747389683027,7.347231829230623-.789434726557374,10.443628833509138-4.654242988997794.252787805836306-.31545102740165.355182817062996-.72308558489749.311614180806828-1.125246098197749l-.092471370176099-.853935695899054c-.143615206295181-1.326337288634932-.686280134090339-2.577447586470043-1.556382549749287-3.588728203590108l-2.272577639068004-2.640811456549272c-1.217002348000278-1.41416674598986.529869441660594-3.425304060399867,2.100361906394028-2.417742420395371l3.734268033284934,2.394653748528981c1.031118908067583.661344820241538,2.226107131390563,1.021887407325266,3.451074675708696,1.041668891492009l.80010953567762.012815895915992c.373124193757576.005955570511105.740176225949654-.109645834517323,1.015412246207234-.361514975423233,1.833427841507728-1.678143102404647,4.643220966545414-5.748828187394793,4.105196558027274-10.671754483470067-.043600313050774-.401503358016271-.259352453281281-.762362242769996-.574241138122488-1.016609428346783l-.668436827079859-.539411339324033c-1.038257664548837-.837303160641568-2.306313310240512-1.339676165456694-3.636484482438391-1.441180191965941l-2.502123846817085-.189695463426688c-1.886467691660982-.14401330918372-2.036289867687628-2.853564691597057-.177164019306474-3.204031780617697l2.465920053281479-.465054330091334c1.310871207927448-.247538059647013,2.515809317168532-.886653001916784,3.455423931773112-1.833320808926146l.604891190265334-.609818852391982c.284938701430292-.287401728512123.459625245882307-.669218893222933.458658129427022-1.073722652655306-.008013518214284-4.952232765559529-3.24943951898149-8.687678162369593-5.25674291456653-10.15409456650832-.301326965175576-.219988615723196-.678886543611043-.29441739988124-1.049079476902079-.247360785790079l-.793818914375152.100950717928754c-1.21531824387057.154727230498793-2.363272007076375.644808294835457-3.315190984053515,1.415803388922541l-3.447489869619858,2.791762511143133c-1.449833603608568,1.1745678192583-3.407786141259749-.631714608059156-2.354116353288191-2.171436101843938l1.967571125422182-2.875266620860202c.75333940420569-1.100391950288213,1.15472371263786-2.404357994617385,1.151268719304426-3.737802276940783l-.002275148410263-.859566051476577c-.00103560442767-.404512338558561-.147748547176889-.798372698607636-.433774119966984-1.084030530950258-3.503619978884672-3.499866334176659-8.436557618882944-3.854696405714094-10.893097406655215-3.474448143500013-.369012966461014.056711130079748-.688639126321505.270189527394905-.91751346874662.565521796896064l-.490855650987214.632041973107334c-.750933764089496.968003403614603-1.217257653581328,2.125781918381108-1.346603226613297,3.344033519265395l-.337592181858781,3.178677452338889c-.193866147079461,1.825433688918565-2.796126415644721,1.969323300518226-3.190002044319044.176388257817052l-.68598680393734-3.122079584521089c-.262870622542323-1.19656436355308-.853998039123326-2.295872071399572-1.707145174857942-3.175179282538011l-.557481874275254-.574075104398617c-.260101418472004-.268294800126569-.601315289144623-.445232649799436-.974266406186871-.460917551608873-2.483554739709689-.107090234399038-7.347296553409251.789438305421754-10.443631915612059,4.65424315942073-.252849447913832.315454435844003-.355182817064815.72308558489749-.311678904985456,1.12524967706122l.092506817973117.854576773484041c.143582840601084,1.325696040627918.686345539961621,2.577456336020987,1.556414908235638,3.588083376718714l2.272509832782816,2.640815205835679c1.217005430105019,1.414166575567833-.529804717479237,3.425300481536397-2.1002971822154,2.417738841530991l-3.734264951181103-2.394653918950098c-1.031121990169595-.661344649819512-2.226174255986734-1.021871329621717-3.450882044223363-1.041679542875499l-.800434697624041-.012797916382624Z" fill="none" stroke="#000" stroke-linecap="round" stroke-linejoin="round" stroke-width="35.22014377359131"/>
          <path d="M28.680971152983147,36.497565621575632c-.37331836629437-.005944833917056-.739789421928435.109624446540693-1.015216532618069.361504153624082-1.833714473549662,1.678801989090061-4.643093059239618,5.748821114872044-4.105387648463875,10.671765049637543.043890034415199.402130375774505.259283787638196.762378405683194.574042342433131,1.016620420572508l.668957702617263.539382537989695c1.038259205597569.837303075426462,2.306311769186323,1.339676250662706,3.636353493026945,1.441187434902531l3.725572502947216.282842491321389c1.69781820227945.129143453171309,1.832701856936183,2.568529948744981.159472158161407,2.884072425496925l-3.671676848266543.691866657315586c-1.310741759569282.247530901920072-2.515676786708354.886645673767816-3.455292942360757,1.833313565992285l-.605412065802739.60984765372632c-.284808571385838.287406899198686-.459136728829435.669834918755441-.458459333737665,1.073711660429581.008332515954862,4.952215126869305,3.249343977375247,8.688326482886623,5.256934005002222,10.154084000339935.301518055609449.219978049546626.678496657485994.294438958274441,1.048883763314734.24737160758923l.794144076322482-.100968697460303c1.215058487787246-.154700501413572,2.363076293486301-.644797473031758,3.314998352564544-1.415792737540869l3.447486787516937-2.791762340721107c1.449833603610386-1.17456781925921,3.407724499184042.631718016500599,2.354051629109563,2.171439680708318l-1.967503319139723,2.875262871572886c-.75330635681712,1.101045526711459-1.154788436815579,2.404361573481765-1.151301077788048,3.738447103812177l.002239700615064.85892497389068c.00110032860357.404508759695091.147751629276172.798372528188338.433838844144702,1.084026952088607,3.503558336808055,3.499869742618102,8.43652902418853,3.855353390574237,10.893100488757227,3.474447973076167.368948242282386-.056707551214458.688574402141967-.270185948530525.917546516130642-.564868220477365l.490754797319823-.632691800240536c.751037699863446-.967353746903427,1.217325459868334-2.125785667665696,1.346671032897575-3.344037268550892l.337592181856962-3.178677452338889c.193801422899924-1.825430110053276,2.796061691465184-1.969319721652937,3.190002044320863-.176388257817052l.68598680393734,3.122079584521998c.262870622545961,1.196564363551261.854034168614817,2.296525477394425,1.707077368573664,3.175183031824417l.557582727942645.574724931530909c.260003646907535.267644802573159.601217517581972.444582652244208.974233358802849.460263975189264,2.483523062914173.107747389683027,7.347231829230623-.789434726557374,10.443628833509138-4.654242988997794.252787805836306-.31545102740165.355182817062996-.72308558489749.311614180806828-1.125246098197749l-.092471370176099-.853935695899054c-.143615206295181-1.326337288634932-.686280134090339-2.577447586470043-1.556382549749287-3.588728203590108l-2.272577639068004-2.640811456549272c-1.217002348000278-1.41416674598986.529869441660594-3.425304060399867,2.100361906394028-2.417742420395371l3.734268033284934,2.394653748528981c1.031118908067583.661344820241538,2.226107131390563,1.021887407325266,3.451074675708696,1.041668891492009l.80010953567762.012815895915992c.373124193757576.005955570511105.740176225949654-.109645834517323,1.015412246207234-.361514975423233,1.833427841507728-1.678143102404647,4.643220966545414-5.748828187394793,4.105196558027274-10.671754483470067-.043600313050774-.401503358016271-.259352453281281-.762362242769996-.574241138122488-1.016609428346783l-.668436827079859-.539411339324033c-1.038257664548837-.837303160641568-2.306313310240512-1.339676165456694-3.636484482438391-1.441180191965941l-2.502123846817085-.189695463426688c-1.886467691660982-.14401330918372-2.036289867687628-2.853564691597057-.177164019306474-3.204031780617697l2.465920053281479-.465054330091334c1.310871207927448-.247538059647013,2.515809317168532-.886653001916784,3.455423931773112-1.833320808926146l.604891190265334-.609818852391982c.284938701430292-.287401728512123.459625245882307-.669218893222933.458658129427022-1.073722652655306-.008013518214284-4.952232765559529-3.24943951898149-8.687678162369593-5.25674291456653-10.15409456650832-.301326965175576-.219988615723196-.678886543611043-.29441739988124-1.049079476902079-.247360785790079l-.793818914375152.100950717928754c-1.21531824387057.154727230498793-2.363272007076375.644808294835457-3.315190984053515,1.415803388922541l-3.447489869619858,2.791762511143133c-1.449833603608568,1.1745678192583-3.407786141259749-.631714608059156-2.354116353288191-2.171436101843938l1.967571125422182-2.875266620860202c.75333940420569-1.100391950288213,1.15472371263786-2.404357994617385,1.151268719304426-3.737802276940783l-.002275148410263-.859566051476577c-.00103560442767-.404512338558561-.147748547176889-.798372698607636-.433774119966984-1.084030530950258-3.503619978884672-3.499866334176659-8.436557618882944-3.854696405714094-10.893097406655215-3.474448143500013-.369012966461014.056711130079748-.688639126321505.270189527394905-.91751346874662.565521796896064l-.490855650987214.632041973107334c-.750933764089496.968003403614603-1.217257653581328,2.125781918381108-1.346603226613297,3.344033519265395l-.337592181858781,3.178677452338889c-.193866147079461,1.825433688918565-2.796126415644721,1.969323300518226-3.190002044319044.176388257817052l-.68598680393734-3.122079584521089c-.262870622542323-1.19656436355308-.853998039123326-2.295872071399572-1.707145174857942-3.175179282538011l-.557481874275254-.574075104398617c-.260101418472004-.268294800126569-.601315289144623-.445232649799436-.974266406186871-.460917551608873-2.483554739709689-.107090234399038-7.347296553409251.789438305421754-10.443631915612059,4.65424315942073-.252849447913832.315454435844003-.355182817064815.72308558489749-.311678904985456,1.12524967706122l.092506817973117.854576773484041c.143582840601084,1.325696040627918.686345539961621,2.577456336020987,1.556414908235638,3.588083376718714l2.272509832782816,2.640815205835679c1.217005430105019,1.414166575567833-.529804717479237,3.425300481536397-2.1002971822154,2.417738841530991l-3.734264951181103-2.394653918950098c-1.031121990169595-.661344649819512-2.226174255986734-1.021871329621717-3.450882044223363-1.041679542875499l-.800434697624041-.012797916382624Z" fill="none" stroke="#000" stroke-linecap="round" stroke-linejoin="round" stroke-width="35.22014377359131"/>
          <path d="M52.970595251715167,52.962455726678854l-12.562495067935743,21.968616789940825,8.202388971090841,1.774804367653815,1.341856891942371-3.21411242877457,3.018249204902531-20.52930872882007Z" fill="none" stroke="#000" stroke-linecap="round" stroke-linejoin="round" stroke-width="35.22014377359131"/>
          <path d="M57.241258223069963,49.586397633083834l13.591796178732693,11.303047740666443,5.011902599886525-6.456460575079291-18.603698778619219-4.846587165587152Z" fill="none" stroke="#000" stroke-linecap="round" stroke-linejoin="round" stroke-width="35.22014377359131"/>
          <g>
            <polygon points="50.530430414693001 50.970176823687325 27.687497291365617 57.399877913672753 29.554696085067008 61.855114286194294 50.530430414693001 50.970176823687325" fill="none" stroke="#000" stroke-linecap="round" stroke-linejoin="round" stroke-width="35.22014377359131"/>
            <polygon points="50.530430414693001 50.970176823687325 27.687497291365617 57.399877913672753 29.554696085067008 61.855114286194294 50.530430414693001 50.970176823687325" fill="none" stroke="#000" stroke-linecap="round" stroke-linejoin="round" stroke-width="35.22014377359131"/>
          </g>
          <g>
            <polygon points="62.790823743205692 27.195129117624674 54.188891412071825 49.392106534346567 52.924470760109216 37.465783456197641 55.24708907938566 25.78393629949278 62.790823743205692 27.195129117624674" fill="none" stroke="#000" stroke-linecap="round" stroke-linejoin="round" stroke-width="35.22014377359131"/>
            <polygon points="62.790823743205692 27.195129117624674 54.188891412071825 49.392106534346567 52.924470760109216 37.465783456197641 55.24708907938566 25.78393629949278 62.790823743205692 27.195129117624674" fill="none" stroke="#000" stroke-linecap="round" stroke-linejoin="round" stroke-width="35.22014377359131"/>
          </g>
          <path d="M56.561956319522324,48.306535658214671l-29.61142213986659,14.097786027852635,5.093443291695621,4.175701720899269,24.517978848170969-18.273487748751904Z" fill="none" stroke="#000" stroke-linecap="round" stroke-linejoin="round" stroke-width="35.22014377359131"/>
          <g>
            <polygon points="56.033885879979607 53.40121433852255 29.144320713721754 43.440952063057011 26.707828588798293 48.843439983086682 56.033885879979607 53.40121433852255" fill="none" stroke="#000" stroke-linecap="round" stroke-linejoin="round" stroke-width="35.22014377359131"/>
            <polygon points="56.033885879979607 53.40121433852255 29.144320713721754 43.440952063057011 26.707828588798293 48.843439983086682 56.033885879979607 53.40121433852255" fill="none" stroke="#000" stroke-linecap="round" stroke-linejoin="round" stroke-width="35.22014377359131"/>
          </g>
          <g>
            <polygon points="55.158135407642476 54.05713560300228 65.819451555090382 28.851442295326706 61.050835916036704 26.88612752087738 55.158135407642476 54.05713560300228" fill="none" stroke="#000" stroke-linecap="round" stroke-linejoin="round" stroke-width="35.22014377359131"/>
            <polygon points="55.158135407642476 54.05713560300228 65.819451555090382 28.851442295326706 61.050835916036704 26.88612752087738 55.158135407642476 54.05713560300228" fill="none" stroke="#000" stroke-linecap="round" stroke-linejoin="round" stroke-width="35.22014377359131"/>
          </g>
          <g>
            <polygon points="53.724375030863484 56.592966236754364 47.37304261812551 28.630493069234035 44.475391606019912 33.07041592524547 53.724375030863484 56.592966236754364" fill="none" stroke="#000" stroke-linecap="round" stroke-linejoin="round" stroke-width="35.22014377359131"/>
            <polygon points="53.724375030863484 56.592966236754364 47.37304261812551 28.630493069234035 44.475391606019912 33.07041592524547 53.724375030863484 56.592966236754364" fill="none" stroke="#000" stroke-linecap="round" stroke-linejoin="round" stroke-width="35.22014377359131"/>
          </g>
          <path d="M78.220769959251811,44.272442810308348l-2.147030771265236-5.857686035847109-20.246926091373098,13.072986670388673,4.880791896140181,2.161396891156983,17.513164966498152-9.376697525698546Z" fill="none" stroke="#000" stroke-linecap="round" stroke-linejoin="round" stroke-width="35.22014377359131"/>
          <path d="M55.572926488962366,54.338270346578611l19.341661308839321,15.44309625146343" fill="none" stroke="#000" stroke-linecap="round" stroke-linejoin="round" stroke-width="35.22014377359131"/>
          <path d="M55.572926488962366,54.338270346578611l19.341661308839321,15.44309625146343" fill="none" stroke="#000" stroke-linecap="round" stroke-linejoin="round" stroke-width="35.22014377359131"/>
          <path d="M207.166813237381575,108.156486044489611c2.405645246458789,43.50637252776869-30.913031010934901,80.725579280417151-74.419798047985751,83.131246340909456-43.506760872842278,2.405666719645524-80.725783074550236-30.913222237350055-83.13142832100948-74.419594765118745-2.40566637880147-43.506754708638255,30.913026523759982-80.725772252744719,74.41978739660135-83.131438972392061,43.506767037052214-2.405667060491396,80.725772593591046,30.913032687964915,83.13143897239388,74.41978739660135Z" fill="none" stroke="#000" stroke-linecap="round" stroke-linejoin="round" stroke-width="35.22014377359131"/>
          <path d="M207.166813237381575,108.156486044489611c2.405645246458789,43.50637252776869-30.913031010934901,80.725579280417151-74.419798047985751,83.131246340909456-43.506760872842278,2.405666719645524-80.725783074550236-30.913222237350055-83.13142832100948-74.419594765118745-2.40566637880147-43.506754708638255,30.913026523759982-80.725772252744719,74.41978739660135-83.131438972392061,43.506767037052214-2.405667060491396,80.725772593591046,30.913032687964915,83.13143897239388,74.41978739660135Z" fill="none" stroke="#000" stroke-linecap="round" stroke-linejoin="round" stroke-width="35.22014377359131"/>
          <path d="M207.166813237381575,108.156486044489611c2.405645246458789,43.50637252776869-30.913031010934901,80.725579280417151-74.419798047985751,83.131246340909456-43.506760872842278,2.405666719645524-80.725783074550236-30.913222237350055-83.13142832100948-74.419594765118745-2.40566637880147-43.506754708638255,30.913026523759982-80.725772252744719,74.41978739660135-83.131438972392061,43.506767037052214-2.405667060491396,80.725772593591046,30.913032687964915,83.13143897239388,74.41978739660135Z" fill="none" stroke="#000" stroke-linecap="round" stroke-linejoin="round" stroke-width="35.22014377359131"/>
          <ellipse cx="119.558733563339047" cy="86.505256581028107" rx="32.573744041687704" ry="43.399858386636275" transform="translate(-26.773496612437896 105.592650305747043) rotate(-43.318789543075269)" fill="none" stroke="#000" stroke-linecap="round" stroke-linejoin="round" stroke-width="35.22014377359131"/>
          <path d="M36.189418982876305,29.780525083860994l8.961275061256856-3.737206655211594c.092137696769896,1.666320903075757.04651192201527,4.505332211720088-2.661048014821063,5.921259572794952-2.469671047703741,1.291898983974534-5.641284342675135-1.258355858821233-6.300227046435793-2.184052917583358Z" fill="none" stroke="#000" stroke-linecap="round" stroke-linejoin="round" stroke-width="35.22014377359131"/>
          <path d="M24.961667302422939,47.186886296152807l3.448052357299275-9.076818726902275c1.273361583390397,1.079106966483778,3.303446421203262,3.064233816175147,2.469880844987529,6.003870762550832-.760317339073481,2.681426126524457-4.792484620035793,3.231143191630508-5.917933202286804,3.072947964351442Z" fill="none" stroke="#000" stroke-linecap="round" stroke-linejoin="round" stroke-width="35.22014377359131"/>
          <path d="M39.870058952287764,40.467183684623706l9.286500444788544,7.641329212439814" fill="none" stroke="#000" stroke-linecap="round" stroke-linejoin="round" stroke-width="35.22014377359131"/>
          <path d="M53.816762803008714,35.28923938499247l-.482589835110957,10.445514014688342" fill="none" stroke="#000" stroke-linecap="round" stroke-linejoin="round" stroke-width="35.22014377359131"/>
        </g>
        <g>
          <path d="M28.680971152983147,36.497565621575632c-.37331836629437-.005944833917056-.739789421928435.109624446540693-1.015216532618069.361504153624082-1.833714473549662,1.678801989090061-4.643093059239618,5.748821114872044-4.105387648463875,10.671765049637543.043890034415199.402130375774505.259283787638196.762378405683194.574042342433131,1.016620420572508l.668957702617263.539382537989695c1.038259205597569.837303075426462,2.306311769186323,1.339676250662706,3.636353493026945,1.441187434902531l3.725572502947216.282842491321389c1.69781820227945.129143453171309,1.832701856936183,2.568529948744981.159472158161407,2.884072425496925l-3.671676848266543.691866657315586c-1.310741759569282.247530901920072-2.515676786708354.886645673767816-3.455292942360757,1.833313565992285l-.605412065802739.60984765372632c-.284808571385838.287406899198686-.459136728829435.669834918755441-.458459333737665,1.073711660429581.008332515954862,4.952215126869305,3.249343977375247,8.688326482886623,5.256934005002222,10.154084000339935.301518055609449.219978049546626.678496657485994.294438958274441,1.048883763314734.24737160758923l.794144076322482-.100968697460303c1.215058487787246-.154700501413572,2.363076293486301-.644797473031758,3.314998352564544-1.415792737540869l3.447486787516937-2.791762340721107c1.449833603610386-1.17456781925921,3.407724499184042.631718016500599,2.354051629109563,2.171439680708318l-1.967503319139723,2.875262871572886c-.75330635681712,1.101045526711459-1.154788436815579,2.404361573481765-1.151301077788048,3.738447103812177l.002239700615064.85892497389068c.00110032860357.404508759695091.147751629276172.798372528188338.433838844144702,1.084026952088607,3.503558336808055,3.499869742618102,8.43652902418853,3.855353390574237,10.893100488757227,3.474447973076167.368948242282386-.056707551214458.688574402141967-.270185948530525.917546516130642-.564868220477365l.490754797319823-.632691800240536c.751037699863446-.967353746903427,1.217325459868334-2.125785667665696,1.346671032897575-3.344037268550892l.337592181856962-3.178677452338889c.193801422899924-1.825430110053276,2.796061691465184-1.969319721652937,3.190002044320863-.176388257817052l.68598680393734,3.122079584521998c.262870622545961,1.196564363551261.854034168614817,2.296525477394425,1.707077368573664,3.175183031824417l.557582727942645.574724931530909c.260003646907535.267644802573159.601217517581972.444582652244208.974233358802849.460263975189264,2.483523062914173.107747389683027,7.347231829230623-.789434726557374,10.443628833509138-4.654242988997794.252787805836306-.31545102740165.355182817062996-.72308558489749.311614180806828-1.125246098197749l-.092471370176099-.853935695899054c-.143615206295181-1.326337288634932-.686280134090339-2.577447586470043-1.556382549749287-3.588728203590108l-2.272577639068004-2.640811456549272c-1.217002348000278-1.41416674598986.529869441660594-3.425304060399867,2.100361906394028-2.417742420395371l3.734268033284934,2.394653748528981c1.031118908067583.661344820241538,2.226107131390563,1.021887407325266,3.451074675708696,1.041668891492009l.80010953567762.012815895915992c.373124193757576.005955570511105.740176225949654-.109645834517323,1.015412246207234-.361514975423233,1.833427841507728-1.678143102404647,4.643220966545414-5.748828187394793,4.105196558027274-10.671754483470067-.043600313050774-.401503358016271-.259352453281281-.762362242769996-.574241138122488-1.016609428346783l-.668436827079859-.539411339324033c-1.038257664548837-.837303160641568-2.306313310240512-1.339676165456694-3.636484482438391-1.441180191965941l-2.502123846817085-.189695463426688c-1.886467691660982-.14401330918372-2.036289867687628-2.853564691597057-.177164019306474-3.204031780617697l2.465920053281479-.465054330091334c1.310871207927448-.247538059647013,2.515809317168532-.886653001916784,3.455423931773112-1.833320808926146l.604891190265334-.609818852391982c.284938701430292-.287401728512123.459625245882307-.669218893222933.458658129427022-1.073722652655306-.008013518214284-4.952232765559529-3.24943951898149-8.687678162369593-5.25674291456653-10.15409456650832-.301326965175576-.219988615723196-.678886543611043-.29441739988124-1.049079476902079-.247360785790079l-.793818914375152.100950717928754c-1.21531824387057.154727230498793-2.363272007076375.644808294835457-3.315190984053515,1.415803388922541l-3.447489869619858,2.791762511143133c-1.449833603608568,1.1745678192583-3.407786141259749-.631714608059156-2.354116353288191-2.171436101843938l1.967571125422182-2.875266620860202c.75333940420569-1.100391950288213,1.15472371263786-2.404357994617385,1.151268719304426-3.737802276940783l-.002275148410263-.859566051476577c-.00103560442767-.404512338558561-.147748547176889-.798372698607636-.433774119966984-1.084030530950258-3.503619978884672-3.499866334176659-8.436557618882944-3.854696405714094-10.893097406655215-3.474448143500013-.369012966461014.056711130079748-.688639126321505.270189527394905-.91751346874662.565521796896064l-.490855650987214.632041973107334c-.750933764089496.968003403614603-1.217257653581328,2.125781918381108-1.346603226613297,3.344033519265395l-.337592181858781,3.178677452338889c-.193866147079461,1.825433688918565-2.796126415644721,1.969323300518226-3.190002044319044.176388257817052l-.68598680393734-3.122079584521089c-.262870622542323-1.19656436355308-.853998039123326-2.295872071399572-1.707145174857942-3.175179282538011l-.557481874275254-.574075104398617c-.260101418472004-.268294800126569-.601315289144623-.445232649799436-.974266406186871-.460917551608873-2.483554739709689-.107090234399038-7.347296553409251.789438305421754-10.443631915612059,4.65424315942073-.252849447913832.315454435844003-.355182817064815.72308558489749-.311678904985456,1.12524967706122l.092506817973117.854576773484041c.143582840601084,1.325696040627918.686345539961621,2.577456336020987,1.556414908235638,3.588083376718714l2.272509832782816,2.640815205835679c1.217005430105019,1.414166575567833-.529804717479237,3.425300481536397-2.1002971822154,2.417738841530991l-3.734264951181103-2.394653918950098c-1.031121990169595-.661344649819512-2.226174255986734-1.021871329621717-3.450882044223363-1.041679542875499l-.800434697624041-.012797916382624Z" fill="url(#linear-gradient)" fill-rule="evenodd" stroke-width="0"/>
          <path d="M28.680971152983147,36.497565621575632c-.37331836629437-.005944833917056-.739789421928435.109624446540693-1.015216532618069.361504153624082-1.833714473549662,1.678801989090061-4.643093059239618,5.748821114872044-4.105387648463875,10.671765049637543.043890034415199.402130375774505.259283787638196.762378405683194.574042342433131,1.016620420572508l.668957702617263.539382537989695c1.038259205597569.837303075426462,2.306311769186323,1.339676250662706,3.636353493026945,1.441187434902531l3.725572502947216.282842491321389c1.69781820227945.129143453171309,1.832701856936183,2.568529948744981.159472158161407,2.884072425496925l-3.671676848266543.691866657315586c-1.310741759569282.247530901920072-2.515676786708354.886645673767816-3.455292942360757,1.833313565992285l-.605412065802739.60984765372632c-.284808571385838.287406899198686-.459136728829435.669834918755441-.458459333737665,1.073711660429581.008332515954862,4.952215126869305,3.249343977375247,8.688326482886623,5.256934005002222,10.154084000339935.301518055609449.219978049546626.678496657485994.294438958274441,1.048883763314734.24737160758923l.794144076322482-.100968697460303c1.215058487787246-.154700501413572,2.363076293486301-.644797473031758,3.314998352564544-1.415792737540869l3.447486787516937-2.791762340721107c1.449833603610386-1.17456781925921,3.407724499184042.631718016500599,2.354051629109563,2.171439680708318l-1.967503319139723,2.875262871572886c-.75330635681712,1.101045526711459-1.154788436815579,2.404361573481765-1.151301077788048,3.738447103812177l.002239700615064.85892497389068c.00110032860357.404508759695091.147751629276172.798372528188338.433838844144702,1.084026952088607,3.503558336808055,3.499869742618102,8.43652902418853,3.855353390574237,10.893100488757227,3.474447973076167.368948242282386-.056707551214458.688574402141967-.270185948530525.917546516130642-.564868220477365l.490754797319823-.632691800240536c.751037699863446-.967353746903427,1.217325459868334-2.125785667665696,1.346671032897575-3.344037268550892l.337592181856962-3.178677452338889c.193801422899924-1.825430110053276,2.796061691465184-1.969319721652937,3.190002044320863-.176388257817052l.68598680393734,3.122079584521998c.262870622545961,1.196564363551261.854034168614817,2.296525477394425,1.707077368573664,3.175183031824417l.557582727942645.574724931530909c.260003646907535.267644802573159.601217517581972.444582652244208.974233358802849.460263975189264,2.483523062914173.107747389683027,7.347231829230623-.789434726557374,10.443628833509138-4.654242988997794.252787805836306-.31545102740165.355182817062996-.72308558489749.311614180806828-1.125246098197749l-.092471370176099-.853935695899054c-.143615206295181-1.326337288634932-.686280134090339-2.577447586470043-1.556382549749287-3.588728203590108l-2.272577639068004-2.640811456549272c-1.217002348000278-1.41416674598986.529869441660594-3.425304060399867,2.100361906394028-2.417742420395371l3.734268033284934,2.394653748528981c1.031118908067583.661344820241538,2.226107131390563,1.021887407325266,3.451074675708696,1.041668891492009l.80010953567762.012815895915992c.373124193757576.005955570511105.740176225949654-.109645834517323,1.015412246207234-.361514975423233,1.833427841507728-1.678143102404647,4.643220966545414-5.748828187394793,4.105196558027274-10.671754483470067-.043600313050774-.401503358016271-.259352453281281-.762362242769996-.574241138122488-1.016609428346783l-.668436827079859-.539411339324033c-1.038257664548837-.837303160641568-2.306313310240512-1.339676165456694-3.636484482438391-1.441180191965941l-2.502123846817085-.189695463426688c-1.886467691660982-.14401330918372-2.036289867687628-2.853564691597057-.177164019306474-3.204031780617697l2.465920053281479-.465054330091334c1.310871207927448-.247538059647013,2.515809317168532-.886653001916784,3.455423931773112-1.833320808926146l.604891190265334-.609818852391982c.284938701430292-.287401728512123.459625245882307-.669218893222933.458658129427022-1.073722652655306-.008013518214284-4.952232765559529-3.24943951898149-8.687678162369593-5.25674291456653-10.15409456650832-.301326965175576-.219988615723196-.678886543611043-.29441739988124-1.049079476902079-.247360785790079l-.793818914375152.100950717928754c-1.21531824387057.154727230498793-2.363272007076375.644808294835457-3.315190984053515,1.415803388922541l-3.447489869619858,2.791762511143133c-1.449833603608568,1.1745678192583-3.407786141259749-.631714608059156-2.354116353288191-2.171436101843938l1.967571125422182-2.875266620860202c.75333940420569-1.100391950288213,1.15472371263786-2.404357994617385,1.151268719304426-3.737802276940783l-.002275148410263-.859566051476577c-.00103560442767-.404512338558561-.147748547176889-.798372698607636-.433774119966984-1.084030530950258-3.503619978884672-3.499866334176659-8.436557618882944-3.854696405714094-10.893097406655215-3.474448143500013-.369012966461014.056711130079748-.688639126321505.270189527394905-.91751346874662.565521796896064l-.490855650987214.632041973107334c-.750933764089496.968003403614603-1.217257653581328,2.125781918381108-1.346603226613297,3.344033519265395l-.337592181858781,3.178677452338889c-.193866147079461,1.825433688918565-2.796126415644721,1.969323300518226-3.190002044319044.176388257817052l-.68598680393734-3.122079584521089c-.262870622542323-1.19656436355308-.853998039123326-2.295872071399572-1.707145174857942-3.175179282538011l-.557481874275254-.574075104398617c-.260101418472004-.268294800126569-.601315289144623-.445232649799436-.974266406186871-.460917551608873-2.483554739709689-.107090234399038-7.347296553409251.789438305421754-10.443631915612059,4.65424315942073-.252849447913832.315454435844003-.355182817064815.72308558489749-.311678904985456,1.12524967706122l.092506817973117.854576773484041c.143582840601084,1.325696040627918.686345539961621,2.577456336020987,1.556414908235638,3.588083376718714l2.272509832782816,2.640815205835679c1.217005430105019,1.414166575567833-.529804717479237,3.425300481536397-2.1002971822154,2.417738841530991l-3.734264951181103-2.394653918950098c-1.031121990169595-.661344649819512-2.226174255986734-1.021871329621717-3.450882044223363-1.041679542875499l-.800434697624041-.012797916382624Z" fill="url(#linear-gradient-2)" fill-rule="evenodd" stroke-width="0"/>
          <path d="M52.970595251715167,52.962455726678854l-12.562495067935743,21.968616789940825,8.202388971090841,1.774804367653815,1.341856891942371-3.21411242877457,3.018249204902531-20.52930872882007Z" fill="#d23e27" stroke-width="0"/>
          <path d="M57.241258223069963,49.586397633083834l13.591796178732693,11.303047740666443,5.011902599886525-6.456460575079291-18.603698778619219-4.846587165587152Z" fill="#d23e27" stroke-width="0"/>
          <polygon points="50.530430414693001 50.970176823687325 27.687497291365617 57.399877913672753 29.554696085067008 61.855114286194294 50.530430414693001 50.970176823687325" fill="#febb12" opacity=".5" stroke-width="0"/>
          <polygon points="62.790823743205692 27.195129117624674 54.188891412071825 49.392106534346567 52.924470760109216 37.465783456197641 55.24708907938566 25.78393629949278 62.790823743205692 27.195129117624674" fill="#febb12" opacity=".5" stroke-width="0"/>
          <path d="M56.561956319522324,48.306535658214671l-29.61142213986659,14.097786027852635,5.093443291695621,4.175701720899269,24.517978848170969-18.273487748751904Z" fill="url(#linear-gradient-3)" stroke-width="0"/>
          <polygon points="56.033885879979607 53.40121433852255 29.144320713721754 43.440952063057011 26.707828588798293 48.843439983086682 56.033885879979607 53.40121433852255" fill="url(#linear-gradient-4)" opacity=".600000023841858" stroke-width="0"/>
          <polygon points="55.158135407642476 54.05713560300228 65.819451555090382 28.851442295326706 61.050835916036704 26.88612752087738 55.158135407642476 54.05713560300228" fill="url(#linear-gradient-5)" opacity=".600000023841858" stroke-width="0"/>
          <polygon points="53.724375030863484 56.592966236754364 47.37304261812551 28.630493069234035 44.475391606019912 33.07041592524547 53.724375030863484 56.592966236754364" fill="url(#linear-gradient-6)" opacity=".300000011920929" stroke-width="0"/>
          <path d="M78.220769959251811,44.272442810308348l-2.147030771265236-5.857686035847109-20.246926091373098,13.072986670388673,4.880791896140181,2.161396891156983,17.513164966498152-9.376697525698546Z" fill="url(#linear-gradient-7)" stroke-width="0"/>
          <path d="M55.572926488962366,54.338270346578611l19.341661308839321,15.44309625146343" fill="none" stroke="url(#radial-gradient)" stroke-linecap="round" stroke-width="11.652324010987737"/>
          <path d="M55.572926488962366,54.338270346578611l19.341661308839321,15.44309625146343" fill="none" stroke="url(#linear-gradient-8)" stroke-linecap="round" stroke-width="11.652324010987737"/>
          <path d="M207.166813237381575,108.156486044489611c2.405645246458789,43.50637252776869-30.913031010934901,80.725579280417151-74.419798047985751,83.131246340909456-43.506760872842278,2.405666719645524-80.725783074550236-30.913222237350055-83.13142832100948-74.419594765118745-2.40566637880147-43.506754708638255,30.913026523759982-80.725772252744719,74.41978739660135-83.131438972392061,43.506767037052214-2.405667060491396,80.725772593591046,30.913032687964915,83.13143897239388,74.41978739660135Z" fill="url(#radial-gradient-2)" stroke-width="0"/>
          <path d="M207.166813237381575,108.156486044489611c2.405645246458789,43.50637252776869-30.913031010934901,80.725579280417151-74.419798047985751,83.131246340909456-43.506760872842278,2.405666719645524-80.725783074550236-30.913222237350055-83.13142832100948-74.419594765118745-2.40566637880147-43.506754708638255,30.913026523759982-80.725772252744719,74.41978739660135-83.131438972392061,43.506767037052214-2.405667060491396,80.725772593591046,30.913032687964915,83.13143897239388,74.41978739660135Z" fill="url(#radial-gradient-3)" stroke-width="0"/>
          <path d="M207.166813237381575,108.156486044489611c2.405645246458789,43.50637252776869-30.913031010934901,80.725579280417151-74.419798047985751,83.131246340909456-43.506760872842278,2.405666719645524-80.725783074550236-30.913222237350055-83.13142832100948-74.419594765118745-2.40566637880147-43.506754708638255,30.913026523759982-80.725772252744719,74.41978739660135-83.131438972392061,43.506767037052214-2.405667060491396,80.725772593591046,30.913032687964915,83.13143897239388,74.41978739660135Z" fill="url(#radial-gradient-4)" stroke-width="0"/>
          <ellipse cx="119.558733563339047" cy="86.505256581028107" rx="32.573744041687704" ry="43.399858386636275" transform="translate(-26.773496612437896 105.592650305747043) rotate(-43.318789543075269)" fill="url(#radial-gradient-5)" stroke-width="0"/>
          <path d="M36.189418982876305,29.780525083860994l8.961275061256856-3.737206655211594c.092137696769896,1.666320903075757.04651192201527,4.505332211720088-2.661048014821063,5.921259572794952-2.469671047703741,1.291898983974534-5.641284342675135-1.258355858821233-6.300227046435793-2.184052917583358Z" fill="#ffd35d" stroke-width="0"/>
          <path d="M24.961667302422939,47.186886296152807l3.448052357299275-9.076818726902275c1.273361583390397,1.079106966483778,3.303446421203262,3.064233816175147,2.469880844987529,6.003870762550832-.760317339073481,2.681426126524457-4.792484620035793,3.231143191630508-5.917933202286804,3.072947964351442Z" fill="url(#linear-gradient-9)" stroke-width="0"/>
          <path d="M39.870058952287764,40.467183684623706l9.286500444788544,7.641329212439814" fill="none" stroke="url(#linear-gradient-10)" stroke-linecap="round" stroke-width=".647351360739004"/>
          <path d="M53.816762803008714,35.28923938499247l-.482589835110957,10.445514014688342" fill="none" stroke="url(#linear-gradient-11)" stroke-linecap="round" stroke-width=".647351360739004"/>
        </g>
      </g>
      <g id="AC">
        <path d="M208.915885762965445,110.868548454122902c5.321044921875.06201171875,9.432861328125,1.12109375,12.335205078125,3.1748046875,2.902099609375,2.05615234375,4.4150390625,5.158203125,4.5380859375,9.3056640625.06298828125.95166015625.0390625,1.92626953125-.07470703125,2.923828125-.1171875,1-.26318359375,2.0263671875-.438720703125,3.08154296875-.551513671875,3.5185546875-1.571044921875,7.9599609375-3.052001953125,13.318359375-1.48388671875,5.3603515625-3.36572265625,10.9931640625-5.648193359375,16.89990234375s-4.94970703125,11.79248046875-7.998046875,17.65625c-3.051025390625,5.86328125-6.5087890625,11.1142578125-10.3759765625,15.74853515625-3.869873046875,4.63623046875-8.09765625,8.33251953125-12.689208984375,11.09326171875-4.591064453125,2.759765625-9.541015625,3.9921875-14.848876953125,3.6953125-4.837890625-.2705078125-9.078125-1.66162109375-12.72314453125-4.17236328125-3.647705078125-2.51171875-6.775390625-5.79248046875-9.388671875-9.84326171875-3.708251953125-5.64794921875-6.656494140625-11.64208984375-8.84521484375-17.9765625-2.191650390625-6.33447265625-3.837890625-12.84375-4.942138671875-19.533203125-1.106689453125-6.68701171875-1.7607421875-13.49853515625-1.96337890625-20.43212890625-.205810546875-6.93310546875-.178955078125-13.7646484375.080810546875-20.494140625-.07275390625-.8310546875.095458984375-1.708984375.502197265625-2.634765625.40673828125-.9228515625.95654296875-1.779296875,1.652587890625-2.5693359375.69287109375-.7880859375,1.501220703125-1.4521484375,2.418701171875-1.9951171875.91748046875-.53955078125,1.9072265625-.7802734375,2.96875-.72119140625,1.656982421875-.02392578125,3.5810546875-.06591796875,5.775146484375-.12060546875,2.191162109375-.0556640625,4.280517578125.12255859375,6.270751953125.52783203125,1.98828125.408203125,3.664794921875,1.12255859375,5.027587890625,2.14501953125,1.3623046875,1.0244140625,2.100341796875,2.60205078125,2.219482421875,4.73828125-.24658203125,8.625-.084716796875,17.38916015625.482177734375,26.294921875.567138671875,8.90576171875,2.298095703125,18.115234375,5.199951171875,27.62353515625,1.0986328125,3.61083984375,2.263671875,6.57666015625,3.49609375,8.89208984375,1.22900390625,2.31787109375,2.380615234375,3.44677734375,3.44921875,3.38720703125.948974609375-.0634765625,1.995361328125-.77587890625,3.135986328125-2.1318359375,1.14111328125-1.3564453125,2.33544921875-3.18017578125,3.58984375-5.47900390625,1.25146484375-2.294921875,2.521240234375-4.9169921875,3.81201171875-7.8623046875,1.287841796875-2.9453125,2.559326171875-6.09619140625,3.812255859375-9.45947265625,2.366943359375-6.37353515625,4.412353515625-12.798828125,6.135986328125-19.26904296875,1.720458984375-6.470703125,3.362548828125-12.02783203125,4.925537109375-16.67431640625,1.107421875-2.8935546875,2.33154296875-5.19384765625,3.6689453125-6.89404296875s3.833740234375-2.4482421875,7.490966796875-2.24365234375Z" fill="none" stroke="#000" stroke-linecap="round" stroke-linejoin="round" stroke-width="46.778934478759766"/>
        <path d="M208.915885762965445,110.868548454122902c5.321044921875.06201171875,9.432861328125,1.12109375,12.335205078125,3.1748046875,2.902099609375,2.05615234375,4.4150390625,5.158203125,4.5380859375,9.3056640625.06298828125.95166015625.0390625,1.92626953125-.07470703125,2.923828125-.1171875,1-.26318359375,2.0263671875-.438720703125,3.08154296875-.551513671875,3.5185546875-1.571044921875,7.9599609375-3.052001953125,13.318359375-1.48388671875,5.3603515625-3.36572265625,10.9931640625-5.648193359375,16.89990234375s-4.94970703125,11.79248046875-7.998046875,17.65625c-3.051025390625,5.86328125-6.5087890625,11.1142578125-10.3759765625,15.74853515625-3.869873046875,4.63623046875-8.09765625,8.33251953125-12.689208984375,11.09326171875-4.591064453125,2.759765625-9.541015625,3.9921875-14.848876953125,3.6953125-4.837890625-.2705078125-9.078125-1.66162109375-12.72314453125-4.17236328125-3.647705078125-2.51171875-6.775390625-5.79248046875-9.388671875-9.84326171875-3.708251953125-5.64794921875-6.656494140625-11.64208984375-8.84521484375-17.9765625-2.191650390625-6.33447265625-3.837890625-12.84375-4.942138671875-19.533203125-1.106689453125-6.68701171875-1.7607421875-13.49853515625-1.96337890625-20.43212890625-.205810546875-6.93310546875-.178955078125-13.7646484375.080810546875-20.494140625-.07275390625-.8310546875.095458984375-1.708984375.502197265625-2.634765625.40673828125-.9228515625.95654296875-1.779296875,1.652587890625-2.5693359375.69287109375-.7880859375,1.501220703125-1.4521484375,2.418701171875-1.9951171875.91748046875-.53955078125,1.9072265625-.7802734375,2.96875-.72119140625,1.656982421875-.02392578125,3.5810546875-.06591796875,5.775146484375-.12060546875,2.191162109375-.0556640625,4.280517578125.12255859375,6.270751953125.52783203125,1.98828125.408203125,3.664794921875,1.12255859375,5.027587890625,2.14501953125,1.3623046875,1.0244140625,2.100341796875,2.60205078125,2.219482421875,4.73828125-.24658203125,8.625-.084716796875,17.38916015625.482177734375,26.294921875.567138671875,8.90576171875,2.298095703125,18.115234375,5.199951171875,27.62353515625,1.0986328125,3.61083984375,2.263671875,6.57666015625,3.49609375,8.89208984375,1.22900390625,2.31787109375,2.380615234375,3.44677734375,3.44921875,3.38720703125.948974609375-.0634765625,1.995361328125-.77587890625,3.135986328125-2.1318359375,1.14111328125-1.3564453125,2.33544921875-3.18017578125,3.58984375-5.47900390625,1.25146484375-2.294921875,2.521240234375-4.9169921875,3.81201171875-7.8623046875,1.287841796875-2.9453125,2.559326171875-6.09619140625,3.812255859375-9.45947265625,2.366943359375-6.37353515625,4.412353515625-12.798828125,6.135986328125-19.26904296875,1.720458984375-6.470703125,3.362548828125-12.02783203125,4.925537109375-16.67431640625,1.107421875-2.8935546875,2.33154296875-5.19384765625,3.6689453125-6.89404296875s3.833740234375-2.4482421875,7.490966796875-2.24365234375Z" fill="#fff" stroke-width="0"/>
      </g>
    </g>
  </a>
</svg>