<?xml version="1.0" encoding="UTF-8"?>
<svg id="Pattern" xmlns="http://www.w3.org/2000/svg" xmlns:xlink="http://www.w3.org/1999/xlink" viewBox="0 0 280 280">
  <defs>
    <linearGradient id="linear-gradient" x1="5007.145966170376596" y1="-953.807639814115646" x2="4962.836347438750636" y2="-979.18152494081744" gradientTransform="translate(-730.545650097473299 5069.078787028564875) rotate(-92.134596065951641) scale(1 -1)" gradientUnits="userSpaceOnUse">
      <stop offset="0" stop-color="#ffc810"/>
      <stop offset=".755599975585938" stop-color="#ef4e26"/>
    </linearGradient>
    <linearGradient id="linear-gradient-2" x1="4966.61944151433454" y1="-982.815342720148692" x2="4983.282887070368815" y2="-968.0452272893898" gradientTransform="translate(-730.545650097473299 5069.078787028564875) rotate(-92.134596065951641) scale(1 -1)" gradientUnits="userSpaceOnUse">
      <stop offset="0" stop-color="#d23e27"/>
      <stop offset="1" stop-color="#d23e27" stop-opacity="0"/>
    </linearGradient>
    <linearGradient id="linear-gradient-3" x1="4967.145211418306644" y1="-955.966146821528127" x2="4984.263120239530508" y2="-956.5514886081844" xlink:href="#linear-gradient-2"/>
    <linearGradient id="linear-gradient-4" x1="4980.828362932494201" y1="-945.537463782156919" x2="4989.718773268124096" y2="-960.177543040014257" xlink:href="#linear-gradient-2"/>
    <linearGradient id="linear-gradient-5" x1="5004.804613808893009" y1="-969.086703535252127" x2="4989.524536996569623" y2="-976.825571303150014" xlink:href="#linear-gradient-2"/>
    <linearGradient id="linear-gradient-6" x1="4999.483683329893211" y1="-952.171916457792577" x2="4992.080866797901763" y2="-967.61784155259636" xlink:href="#linear-gradient-2"/>
    <linearGradient id="linear-gradient-7" x1="4994.831623034311633" y1="-993.543196760542742" x2="4985.647942495289499" y2="-977.258766635715119" xlink:href="#linear-gradient-2"/>
    <radialGradient id="radial-gradient" cx="-1924.792046606113217" cy="2598.436884919100521" fx="-1924.792046606113217" fy="2598.436884919100521" r="6.059434777517587" gradientTransform="translate(825.79106800689533 8571.8777076910701) rotate(44.544404488486343) scale(3.393360063220485 -2.127890109186671)" gradientUnits="userSpaceOnUse">
      <stop offset="0" stop-color="#e1dfe1"/>
      <stop offset=".394388008117676" stop-color="#c2bec5"/>
    </radialGradient>
    <linearGradient id="linear-gradient-8" x1="4970.103972787085695" y1="-974.711686647826355" x2="4971.61883150450376" y2="-975.942538232007337" gradientTransform="translate(-730.545650097473299 5069.078787028564875) rotate(-92.134596065951641) scale(1 -1)" gradientUnits="userSpaceOnUse">
      <stop offset="0" stop-color="#a3a1a8"/>
      <stop offset="1" stop-color="#b8b6bd" stop-opacity="0"/>
    </linearGradient>
    <radialGradient id="radial-gradient-2" cx="-1107.869224669056166" cy="151.983578497811322" fx="-1107.869224669056166" fy="151.983578497811322" r="6.05943476178777" gradientTransform="translate(-22411.762154270720202 7783.594701421740865) rotate(148.479402365549277) scale(21.016598951055698 -34.567501017196157)" gradientUnits="userSpaceOnUse">
      <stop offset=".00558659017086" stop-color="#5c266f"/>
      <stop offset="1" stop-color="#2e265b"/>
    </radialGradient>
    <radialGradient id="radial-gradient-3" cx="-1127.82017926998833" cy="146.793219877578849" fx="-1127.82017926998833" fy="146.793219877578849" r="6.05943476178656" gradientTransform="translate(-21243.34319680237968 15116.74990192511541) rotate(136.400407747618345) scale(22.936198784939197 -26.321800119514734)" gradientUnits="userSpaceOnUse">
      <stop offset=".71875" stop-color="#29233a" stop-opacity="0"/>
      <stop offset="1" stop-color="#29233a"/>
    </radialGradient>
    <radialGradient id="radial-gradient-4" cx="-741.257723302315753" cy="575.63250211725699" fx="-741.257723302315753" fy="575.63250211725699" r="6.059434761789291" gradientTransform="translate(17177.274455010527163 2770.803021873175567) rotate(-24.584699322524358) scale(19.476000259430069 -16.532499694880091)" gradientUnits="userSpaceOnUse">
      <stop offset=".809844970703125" stop-color="#672b80" stop-opacity="0"/>
      <stop offset="1" stop-color="#672b80"/>
    </radialGradient>
    <radialGradient id="radial-gradient-5" cx="-1181.816016296242196" cy="940.806010240531577" fx="-1181.816016296242196" fy="940.806010240531577" r="6.059434761792885" gradientTransform="translate(-7091.846715810249407 16826.75217877956311) rotate(92.148493896129196) scale(14.411199570559587 -6.984130141550687)" gradientUnits="userSpaceOnUse">
      <stop offset="0" stop-color="#67568f"/>
      <stop offset=".727772979736328" stop-color="#67568f" stop-opacity="0"/>
    </radialGradient>
    <linearGradient id="linear-gradient-9" x1="4998.149209977173996" y1="-946.173096411813276" x2="4988.72678706383067" y2="-943.143379865845532" gradientTransform="translate(-730.545650097473299 5069.078787028564875) rotate(-92.134596065951641) scale(1 -1)" gradientUnits="userSpaceOnUse">
      <stop offset="0" stop-color="#ffd35d"/>
      <stop offset="1" stop-color="#ffd35d" stop-opacity="0"/>
    </linearGradient>
    <linearGradient id="linear-gradient-10" x1="4995.116812220841894" y1="-955.042791584458428" x2="4990.809164025599785" y2="-961.196876602802035" gradientTransform="translate(-730.545650097473299 5069.078787028564875) rotate(-92.134596065951641) scale(1 -1)" gradientUnits="userSpaceOnUse">
      <stop offset="0" stop-color="#febb12"/>
      <stop offset="1" stop-color="#febb12" stop-opacity="0"/>
    </linearGradient>
    <linearGradient id="linear-gradient-11" x1="5001.299981367000328" y1="-967.804639936204694" x2="4993.809306061146344" y2="-968.365321283105345" xlink:href="#linear-gradient-10"/>
  </defs>
  <a xlink:href="https://www.notion.so/dmmnotes/preoccupied-40bcf67ef7fa4f568f3c4b65f01f0c40?pvs=4">
    <g>
      <g>
        <g>
          <path d="M27.780964337523073,37.324928690054548c-.349282473382118-.011846984893054-.694201862244881.090144342042549-.956208955089096.321238718066525-1.744399149895798,1.540300018831658-4.442152844092561,5.302079523286011-4.021781127563372,9.918432045126792.034307716068724.377085929552777.229827867972745.717861434089173.520126091207203.96110005591072l.616988197994033.516058473926023c.957597118916965.801093119030156,2.135891266431827,1.292598489042575,3.378946949934289,1.409987040166925l3.481941632527196.32741266550056c1.586786574318467.149439175052976,1.671964717239462,2.434691175594708.100705621557609,2.701840111042657l-3.447906880216578.585708742652059c-1.230867882694838.209599044779679-2.369303720066455.787455835867149-3.264608400157158,1.657612119146506l-.576859545278239.560556732179975c-.27138500521778.264185792783792-.440972502826298.619159785455849-.447136179574954.997152799293872-.075552348444035,4.634837087601227,2.89477467476172,8.185951760592616,4.748975096231334,9.591519859088294.278483353373304.210948688600183.630038188747676.286980348506404.97746959037795.249164764085435l.74492580632068-.081128726690622c1.139757053109861-.12433103965941,2.22241688226859-.563682490124847,3.126281713607568-1.269222524546421l3.273434376185833-2.554739979026635c1.376644592236516-1.074856626299152,3.17860098795245.648569850401145,2.166570827424948,2.071835737684523l-1.889747538498341,2.657796321188471c-.723538724006175,1.017771552911654-1.121215293016576,2.230766311051411-1.140405492328682,3.479373754615153l-.012360446478851.803891479567937c-.005778497697975.378591627513742.124840935634893.749670547405003.387777420992279,1.021824960533195,3.220016510888854,3.334438945203146,7.830719662406409,3.750156966461873,10.136195579681953,3.435020334110959.346247046838471-.046861907321727.64897297272455-.241273214787725.86822400568235-.513207691565185l.469938179163364-.583865987618992c.719165362083004-.892689794541184,1.175053961950653-1.968999134686783,1.316610723761187-3.106963797298704l.369447224716168-2.969190041602815c.212099340457826-1.705128207236157,2.649933810500443-1.795993552877917,2.988439333716997-.111388027498833l.589456142683957,2.933448859424061c.225876954500563,1.124269314529556.760623793938066,2.163654723743093,1.544184257387315,3.000333454687279l.512159340519247.547260290359191c.23882842178682.254860492264015.555186845412209.426196683641137.904022315930888.447150796991082,2.322474972128475.142639130020143,6.889440615962485-.615157919786725,9.852356237418462-4.180053145836609.241889306432313-.290970772738547.344580003959891-.670745855532914.31057358639282-1.047854580856438l-.072169866266449-.800740783251058c-.112083563119995-1.243714479768641-.598897353580469-2.423741649987278-1.396191081397774-3.384827251455135l-2.082420672557419-2.509741790873704c-1.115170713176667-1.343978780217185.553547322293525-3.196767621619983,2.006387193667251-2.227374301765849l3.454535792300703,2.303968508552316c.953876180818042.636296498301817,2.066177758891172.993835204961215,3.212271833251179,1.03296577045603l.748593676056771.025460810901677c.34910056978606.011853764980515.694564225761496-.090157848409945.956392302367021-.321245551961511,1.744119805966875-1.539688201895842,4.442272669477461-5.302083989538914,4.021602111323773-9.918425372661659-.034047123923301-.37649423763196-.229892403061058-.717847463193721-.520312325841587-.961093114392497l-.616500234375962-.516076661778243c-.957595675238736-.801093172844958-2.135892710110966-1.292598435237778-3.379069662678376-1.409982466301699l-2.338503874385424-.219646056348211c-1.763090260429635-.166530784200404-1.857701981582977-2.704877097286044-.11187791579141-3.001582590434737l2.315641416308608-.393732872413239c1.230989151759786-.209603564838289,2.369427876489681-.787460463546267,3.264731112900336-1.657616693011732l.576371581661078-.560538544326846c.271506704764761-.264178763407472.441419329606106-.618575035053254.447322414209339-.997159740813913.075851190068533-4.634848226317445-2.894875002451045-8.185346616119205-4.748796079991735-9.591526531549789-.278304337134614-.210955361074411-.630403439621659-.286966734524867-.977652937654966-.249157930194087l-.744621189978716.081117372734298c-1.140000604437773.124351683024543-2.222600229545606.563689324022562-3.126462173524487,1.269229250825447l-3.27343726354502,2.554740086647143c-1.376644592237426,1.074856626298242-3.178658735126191-.648567697993712-2.166631461957877-2.071833477656583l1.889811060389547-2.657798688837829c.723558652183783-1.017159325246212,1.121154658483647-2.230764051022561,1.140364355490419-3.478770816355791l.012338061425908-.804492050177032c.005839132230903-.378593887542593-.124838048275706-.749670655025511-.38771678645935-1.021827220562045-3.220074258063505-3.334436792795714-7.830757481404362-3.749542586392636-10.136192692324585-3.435020441732377-.34630768137049.046864167351487-.649033607257479.241275474818394-.868204077507471.51381991922608l-.470021629230359.583256127607456c-.719079024655002.893299546933122-1.174990440056717,1.968996767037424-1.316547201869071,3.106961429650255l-.369447224715259,2.969190041601905c-.212159974990755,1.705130467266827-2.649994445033371,1.795995812907677-2.988439333716997.111388027498833l-.589456142685776-2.933448859423152c-.225876954496925-1.124269314531375-.760600978400362-2.163042603702706-1.544247779278521-3.000331087037921l-.512075890452252-.546650430347654c-.238908984493719-.25547045989515-.555267408119107-.426806651274092-.904042244105767-.447763024653796-2.322515678484706-.142024642328579-6.889501250494504.615160179817394-9.85235912477674,4.180053253458937-.241947053605145.290972925146889-.344580003959891.670745855532914-.31063422092484,1.047856840883469l.072192251319393.801341353861972c.112064065425329,1.243113801539039.598958418596339,2.423750939393358,1.396232218236037,3.384224313195773l2.082357150666212,2.509744158523972c1.115173600534945,1.343978672595767-.553486687760596,3.196765361590224-2.006326559134322,2.227372041736089l-3.454532904942425-2.303968616172824c-.953879068178139-.636296390682219-2.066240850301256-.993821287874198-3.212091373333351-1.032972496734146l-.748898292399645-.025449456943534Z" fill="none" stroke="#000" stroke-linecap="round" stroke-linejoin="round" stroke-width="32.967284917831421"/>
          <path d="M27.780964337523073,37.324928690054548c-.349282473382118-.011846984893054-.694201862244881.090144342042549-.956208955089096.321238718066525-1.744399149895798,1.540300018831658-4.442152844092561,5.302079523286011-4.021781127563372,9.918432045126792.034307716068724.377085929552777.229827867972745.717861434089173.520126091207203.96110005591072l.616988197994033.516058473926023c.957597118916965.801093119030156,2.135891266431827,1.292598489042575,3.378946949934289,1.409987040166925l3.481941632527196.32741266550056c1.586786574318467.149439175052976,1.671964717239462,2.434691175594708.100705621557609,2.701840111042657l-3.447906880216578.585708742652059c-1.230867882694838.209599044779679-2.369303720066455.787455835867149-3.264608400157158,1.657612119146506l-.576859545278239.560556732179975c-.27138500521778.264185792783792-.440972502826298.619159785455849-.447136179574954.997152799293872-.075552348444035,4.634837087601227,2.89477467476172,8.185951760592616,4.748975096231334,9.591519859088294.278483353373304.210948688600183.630038188747676.286980348506404.97746959037795.249164764085435l.74492580632068-.081128726690622c1.139757053109861-.12433103965941,2.22241688226859-.563682490124847,3.126281713607568-1.269222524546421l3.273434376185833-2.554739979026635c1.376644592236516-1.074856626299152,3.17860098795245.648569850401145,2.166570827424948,2.071835737684523l-1.889747538498341,2.657796321188471c-.723538724006175,1.017771552911654-1.121215293016576,2.230766311051411-1.140405492328682,3.479373754615153l-.012360446478851.803891479567937c-.005778497697975.378591627513742.124840935634893.749670547405003.387777420992279,1.021824960533195,3.220016510888854,3.334438945203146,7.830719662406409,3.750156966461873,10.136195579681953,3.435020334110959.346247046838471-.046861907321727.64897297272455-.241273214787725.86822400568235-.513207691565185l.469938179163364-.583865987618992c.719165362083004-.892689794541184,1.175053961950653-1.968999134686783,1.316610723761187-3.106963797298704l.369447224716168-2.969190041602815c.212099340457826-1.705128207236157,2.649933810500443-1.795993552877917,2.988439333716997-.111388027498833l.589456142683957,2.933448859424061c.225876954500563,1.124269314529556.760623793938066,2.163654723743093,1.544184257387315,3.000333454687279l.512159340519247.547260290359191c.23882842178682.254860492264015.555186845412209.426196683641137.904022315930888.447150796991082,2.322474972128475.142639130020143,6.889440615962485-.615157919786725,9.852356237418462-4.180053145836609.241889306432313-.290970772738547.344580003959891-.670745855532914.31057358639282-1.047854580856438l-.072169866266449-.800740783251058c-.112083563119995-1.243714479768641-.598897353580469-2.423741649987278-1.396191081397774-3.384827251455135l-2.082420672557419-2.509741790873704c-1.115170713176667-1.343978780217185.553547322293525-3.196767621619983,2.006387193667251-2.227374301765849l3.454535792300703,2.303968508552316c.953876180818042.636296498301817,2.066177758891172.993835204961215,3.212271833251179,1.03296577045603l.748593676056771.025460810901677c.34910056978606.011853764980515.694564225761496-.090157848409945.956392302367021-.321245551961511,1.744119805966875-1.539688201895842,4.442272669477461-5.302083989538914,4.021602111323773-9.918425372661659-.034047123923301-.37649423763196-.229892403061058-.717847463193721-.520312325841587-.961093114392497l-.616500234375962-.516076661778243c-.957595675238736-.801093172844958-2.135892710110966-1.292598435237778-3.379069662678376-1.409982466301699l-2.338503874385424-.219646056348211c-1.763090260429635-.166530784200404-1.857701981582977-2.704877097286044-.11187791579141-3.001582590434737l2.315641416308608-.393732872413239c1.230989151759786-.209603564838289,2.369427876489681-.787460463546267,3.264731112900336-1.657616693011732l.576371581661078-.560538544326846c.271506704764761-.264178763407472.441419329606106-.618575035053254.447322414209339-.997159740813913.075851190068533-4.634848226317445-2.894875002451045-8.185346616119205-4.748796079991735-9.591526531549789-.278304337134614-.210955361074411-.630403439621659-.286966734524867-.977652937654966-.249157930194087l-.744621189978716.081117372734298c-1.140000604437773.124351683024543-2.222600229545606.563689324022562-3.126462173524487,1.269229250825447l-3.27343726354502,2.554740086647143c-1.376644592237426,1.074856626298242-3.178658735126191-.648567697993712-2.166631461957877-2.071833477656583l1.889811060389547-2.657798688837829c.723558652183783-1.017159325246212,1.121154658483647-2.230764051022561,1.140364355490419-3.478770816355791l.012338061425908-.804492050177032c.005839132230903-.378593887542593-.124838048275706-.749670655025511-.38771678645935-1.021827220562045-3.220074258063505-3.334436792795714-7.830757481404362-3.749542586392636-10.136192692324585-3.435020441732377-.34630768137049.046864167351487-.649033607257479.241275474818394-.868204077507471.51381991922608l-.470021629230359.583256127607456c-.719079024655002.893299546933122-1.174990440056717,1.968996767037424-1.316547201869071,3.106961429650255l-.369447224715259,2.969190041601905c-.212159974990755,1.705130467266827-2.649994445033371,1.795995812907677-2.988439333716997.111388027498833l-.589456142685776-2.933448859423152c-.225876954496925-1.124269314531375-.760600978400362-2.163042603702706-1.544247779278521-3.000331087037921l-.512075890452252-.546650430347654c-.238908984493719-.25547045989515-.555267408119107-.426806651274092-.904042244105767-.447763024653796-2.322515678484706-.142024642328579-6.889501250494504.615160179817394-9.85235912477674,4.180053253458937-.241947053605145.290972925146889-.344580003959891.670745855532914-.31063422092484,1.047856840883469l.072192251319393.801341353861972c.112064065425329,1.243113801539039.598958418596339,2.423750939393358,1.396232218236037,3.384224313195773l2.082357150666212,2.509744158523972c1.115173600534945,1.343978672595767-.553486687760596,3.196765361590224-2.006326559134322,2.227372041736089l-3.454532904942425-2.303968616172824c-.953879068178139-.636296390682219-2.066240850301256-.993821287874198-3.212091373333351-1.032972496734146l-.748898292399645-.025449456943534Z" fill="none" stroke="#000" stroke-linecap="round" stroke-linejoin="round" stroke-width="32.967284917831421"/>
          <path d="M50.236104632484057,53.142967134229366l-12.126786171358617,20.348628772327174,7.646609500699014,1.799064483967413,1.309918486424976-2.985450299249351,3.170258184234626-19.162242957045237Z" fill="none" stroke="#000" stroke-linecap="round" stroke-linejoin="round" stroke-width="32.967284917831421"/>
          <path d="M54.289770353845597,50.055249210197871l12.530097601143098,10.807100026818262,4.799225901603677-5.958140253223064-17.329323502746774-4.848959773595197Z" fill="none" stroke="#000" stroke-linecap="round" stroke-linejoin="round" stroke-width="32.967284917831421"/>
          <g>
            <polygon points="47.985926416654365 51.237355658036904 26.499382145014351 56.870338503822495 28.171876868775144 61.071347866957694 47.985926416654365 51.237355658036904" fill="none" stroke="#000" stroke-linecap="round" stroke-linejoin="round" stroke-width="32.967284917831421"/>
            <polygon points="47.985926416654365 51.237355658036904 26.499382145014351 56.870338503822495 28.171876868775144 61.071347866957694 47.985926416654365 51.237355658036904" fill="none" stroke="#000" stroke-linecap="round" stroke-linejoin="round" stroke-width="32.967284917831421"/>
          </g>
          <g>
            <polygon points="59.860384524467008 29.193033178024962 51.436380470924632 49.822041048145365 50.453761595123069 38.639109624595221 52.824078840460061 27.745352569080751 59.860384524467008 29.193033178024962" fill="none" stroke="#000" stroke-linecap="round" stroke-linejoin="round" stroke-width="32.967284917831421"/>
            <polygon points="59.860384524467008 29.193033178024962 51.436380470924632 49.822041048145365 50.453761595123069 38.639109624595221 52.824078840460061 27.745352569080751 59.860384524467008 29.193033178024962" fill="none" stroke="#000" stroke-linecap="round" stroke-linejoin="round" stroke-width="32.967284917831421"/>
          </g>
          <path d="M53.675564179547109,48.846014083778755l-27.950123385440747,12.695497386891475,4.696588829393477,3.99369831475542,23.253534556047271-16.689195701646895Z" fill="none" stroke="#000" stroke-linecap="round" stroke-linejoin="round" stroke-width="32.967284917831421"/>
          <g>
            <polygon points="53.095603309845501 53.605152287201236 28.09774161551195 43.830928705460792 25.726539488626258 48.846019924088068 53.095603309845501 53.605152287201236" fill="none" stroke="#000" stroke-linecap="round" stroke-linejoin="round" stroke-width="32.967284917831421"/>
            <polygon points="53.095603309845501 53.605152287201236 28.09774161551195 43.830928705460792 25.726539488626258 48.846019924088068 53.095603309845501 53.605152287201236" fill="none" stroke="#000" stroke-linecap="round" stroke-linejoin="round" stroke-width="32.967284917831421"/>
          </g>
          <g>
            <polygon points="52.264963023849305 54.204278496153165 62.66695020946463 30.794124253162408 58.237159278534818 28.874557962955805 52.264963023849305 54.204278496153165" fill="none" stroke="#000" stroke-linecap="round" stroke-linejoin="round" stroke-width="32.967284917831421"/>
            <polygon points="52.264963023849305 54.204278496153165 62.66695020946463 30.794124253162408 58.237159278534818 28.874557962955805 52.264963023849305 54.204278496153165" fill="none" stroke="#000" stroke-linecap="round" stroke-linejoin="round" stroke-width="32.967284917831421"/>
          </g>
          <g>
            <polygon points="50.880449719157696 56.553389172566312 45.406977686920982 30.276870435649471 42.620385437133336 34.383351057919754 50.880449719157696 56.553389172566312" fill="none" stroke="#000" stroke-linecap="round" stroke-linejoin="round" stroke-width="32.967284917831421"/>
            <polygon points="50.880449719157696 56.553389172566312 45.406977686920982 30.276870435649471 42.620385437133336 34.383351057919754 50.880449719157696 56.553389172566312" fill="none" stroke="#000" stroke-linecap="round" stroke-linejoin="round" stroke-width="32.967284917831421"/>
          </g>
          <path d="M74.013590040085546,45.435111779735962l-1.910780281474217-5.518248826131639-19.168796885021948,11.894018098124434,4.531474595111831,2.10496436028734,16.548102571384334-8.480733632280135Z" fill="none" stroke="#000" stroke-linecap="round" stroke-linejoin="round" stroke-width="32.967284917831421"/>
          <path d="M52.648427415688275,54.474369226332783l17.841620931810212,14.778479307639827" fill="none" stroke="#000" stroke-linecap="round" stroke-linejoin="round" stroke-width="32.967284917831421"/>
          <path d="M52.648427415688275,54.474369226332783l17.841620931810212,14.778479307639827" fill="none" stroke="#000" stroke-linecap="round" stroke-linejoin="round" stroke-width="32.967284917831421"/>
          <path d="M193.616844415621927,107.393426886112138c1.519149189303789,40.757389218878416-30.289688542085969,75.029448003488142-71.047447342877604,76.548610968209687-40.75775302607326,1.519162749480529-75.029635512542882-30.289870937803244-76.548784701846671-71.04726015668075-1.519162534240422-40.757747251358523,30.289687590523499-75.029628678646077,71.047440616596759-76.548791428127515,40.757758800791635-1.519162964721545,75.029628893887093,30.289693365240964,76.548791428127515,71.047440616598578Z" fill="none" stroke="#000" stroke-linecap="round" stroke-linejoin="round" stroke-width="32.967284917831421"/>
          <path d="M193.616844415621927,107.393426886112138c1.519149189303789,40.757389218878416-30.289688542085969,75.029448003488142-71.047447342877604,76.548610968209687-40.75775302607326,1.519162749480529-75.029635512542882-30.289870937803244-76.548784701846671-71.04726015668075-1.519162534240422-40.757747251358523,30.289687590523499-75.029628678646077,71.047440616596759-76.548791428127515,40.757758800791635-1.519162964721545,75.029628893887093,30.289693365240964,76.548791428127515,71.047440616598578Z" fill="none" stroke="#000" stroke-linecap="round" stroke-linejoin="round" stroke-width="32.967284917831421"/>
          <path d="M193.616844415621927,107.393426886112138c1.519149189303789,40.757389218878416-30.289688542085969,75.029448003488142-71.047447342877604,76.548610968209687-40.75775302607326,1.519162749480529-75.029635512542882-30.289870937803244-76.548784701846671-71.04726015668075-1.519162534240422-40.757747251358523,30.289687590523499-75.029628678646077,71.047440616596759-76.548791428127515,40.757758800791635-1.519162964721545,75.029628893887093,30.289693365240964,76.548791428127515,71.047440616598578Z" fill="none" stroke="#000" stroke-linecap="round" stroke-linejoin="round" stroke-width="32.967284917831421"/>
          <ellipse cx="111.990292116278397" cy="85.655867175371668" rx="30.490161788143766" ry="40.623782826362564" transform="translate(-28.491091877872208 97.644772919528862) rotate(-42.288490524505391)" fill="none" stroke="#000" stroke-linecap="round" stroke-linejoin="round" stroke-width="32.967284917831421"/>
          <path d="M34.921051752452513,31.16493521994289l8.449611059410927-3.346763355410985c.05818435098081,1.561033146739646-.032299393485118,4.217249299866126-2.590091731173743,5.496821597691451-2.333068512833961,1.167500077864133-5.258406053649196-1.272622912185398-5.859519328237184-2.150058242280465Z" fill="none" stroke="#000" stroke-linecap="round" stroke-linejoin="round" stroke-width="32.967284917831421"/>
          <path d="M24.120217220286577,47.266288923464344l3.379747316089379-8.436811558246518c1.173555779467279,1.031350413743894,3.040067231818284,2.923366354083555,2.210469934057983,5.660494593932526-.756699534962536,2.496705811570791-4.539590977083208,2.943311678579448-5.590217250147361,2.776316964313992Z" fill="none" stroke="#000" stroke-linecap="round" stroke-linejoin="round" stroke-width="32.967284917831421"/>
          <path d="M38.185835386471808,41.228352338098375l8.5624722943503,7.307695437232724" fill="none" stroke="#000" stroke-linecap="round" stroke-linejoin="round" stroke-width="32.967284917831421"/>
          <path d="M51.325476431247807,36.617135903668895l-.627456099050505,9.767662638189904" fill="none" stroke="#000" stroke-linecap="round" stroke-linejoin="round" stroke-width="32.967284917831421"/>
        </g>
        <g>
          <path d="M27.780964337523073,37.324928690054548c-.349282473382118-.011846984893054-.694201862244881.090144342042549-.956208955089096.321238718066525-1.744399149895798,1.540300018831658-4.442152844092561,5.302079523286011-4.021781127563372,9.918432045126792.034307716068724.377085929552777.229827867972745.717861434089173.520126091207203.96110005591072l.616988197994033.516058473926023c.957597118916965.801093119030156,2.135891266431827,1.292598489042575,3.378946949934289,1.409987040166925l3.481941632527196.32741266550056c1.586786574318467.149439175052976,1.671964717239462,2.434691175594708.100705621557609,2.701840111042657l-3.447906880216578.585708742652059c-1.230867882694838.209599044779679-2.369303720066455.787455835867149-3.264608400157158,1.657612119146506l-.576859545278239.560556732179975c-.27138500521778.264185792783792-.440972502826298.619159785455849-.447136179574954.997152799293872-.075552348444035,4.634837087601227,2.89477467476172,8.185951760592616,4.748975096231334,9.591519859088294.278483353373304.210948688600183.630038188747676.286980348506404.97746959037795.249164764085435l.74492580632068-.081128726690622c1.139757053109861-.12433103965941,2.22241688226859-.563682490124847,3.126281713607568-1.269222524546421l3.273434376185833-2.554739979026635c1.376644592236516-1.074856626299152,3.17860098795245.648569850401145,2.166570827424948,2.071835737684523l-1.889747538498341,2.657796321188471c-.723538724006175,1.017771552911654-1.121215293016576,2.230766311051411-1.140405492328682,3.479373754615153l-.012360446478851.803891479567937c-.005778497697975.378591627513742.124840935634893.749670547405003.387777420992279,1.021824960533195,3.220016510888854,3.334438945203146,7.830719662406409,3.750156966461873,10.136195579681953,3.435020334110959.346247046838471-.046861907321727.64897297272455-.241273214787725.86822400568235-.513207691565185l.469938179163364-.583865987618992c.719165362083004-.892689794541184,1.175053961950653-1.968999134686783,1.316610723761187-3.106963797298704l.369447224716168-2.969190041602815c.212099340457826-1.705128207236157,2.649933810500443-1.795993552877917,2.988439333716997-.111388027498833l.589456142683957,2.933448859424061c.225876954500563,1.124269314529556.760623793938066,2.163654723743093,1.544184257387315,3.000333454687279l.512159340519247.547260290359191c.23882842178682.254860492264015.555186845412209.426196683641137.904022315930888.447150796991082,2.322474972128475.142639130020143,6.889440615962485-.615157919786725,9.852356237418462-4.180053145836609.241889306432313-.290970772738547.344580003959891-.670745855532914.31057358639282-1.047854580856438l-.072169866266449-.800740783251058c-.112083563119995-1.243714479768641-.598897353580469-2.423741649987278-1.396191081397774-3.384827251455135l-2.082420672557419-2.509741790873704c-1.115170713176667-1.343978780217185.553547322293525-3.196767621619983,2.006387193667251-2.227374301765849l3.454535792300703,2.303968508552316c.953876180818042.636296498301817,2.066177758891172.993835204961215,3.212271833251179,1.03296577045603l.748593676056771.025460810901677c.34910056978606.011853764980515.694564225761496-.090157848409945.956392302367021-.321245551961511,1.744119805966875-1.539688201895842,4.442272669477461-5.302083989538914,4.021602111323773-9.918425372661659-.034047123923301-.37649423763196-.229892403061058-.717847463193721-.520312325841587-.961093114392497l-.616500234375962-.516076661778243c-.957595675238736-.801093172844958-2.135892710110966-1.292598435237778-3.379069662678376-1.409982466301699l-2.338503874385424-.219646056348211c-1.763090260429635-.166530784200404-1.857701981582977-2.704877097286044-.11187791579141-3.001582590434737l2.315641416308608-.393732872413239c1.230989151759786-.209603564838289,2.369427876489681-.787460463546267,3.264731112900336-1.657616693011732l.576371581661078-.560538544326846c.271506704764761-.264178763407472.441419329606106-.618575035053254.447322414209339-.997159740813913.075851190068533-4.634848226317445-2.894875002451045-8.185346616119205-4.748796079991735-9.591526531549789-.278304337134614-.210955361074411-.630403439621659-.286966734524867-.977652937654966-.249157930194087l-.744621189978716.081117372734298c-1.140000604437773.124351683024543-2.222600229545606.563689324022562-3.126462173524487,1.269229250825447l-3.27343726354502,2.554740086647143c-1.376644592237426,1.074856626298242-3.178658735126191-.648567697993712-2.166631461957877-2.071833477656583l1.889811060389547-2.657798688837829c.723558652183783-1.017159325246212,1.121154658483647-2.230764051022561,1.140364355490419-3.478770816355791l.012338061425908-.804492050177032c.005839132230903-.378593887542593-.124838048275706-.749670655025511-.38771678645935-1.021827220562045-3.220074258063505-3.334436792795714-7.830757481404362-3.749542586392636-10.136192692324585-3.435020441732377-.34630768137049.046864167351487-.649033607257479.241275474818394-.868204077507471.51381991922608l-.470021629230359.583256127607456c-.719079024655002.893299546933122-1.174990440056717,1.968996767037424-1.316547201869071,3.106961429650255l-.369447224715259,2.969190041601905c-.212159974990755,1.705130467266827-2.649994445033371,1.795995812907677-2.988439333716997.111388027498833l-.589456142685776-2.933448859423152c-.225876954496925-1.124269314531375-.760600978400362-2.163042603702706-1.544247779278521-3.000331087037921l-.512075890452252-.546650430347654c-.238908984493719-.25547045989515-.555267408119107-.426806651274092-.904042244105767-.447763024653796-2.322515678484706-.142024642328579-6.889501250494504.615160179817394-9.85235912477674,4.180053253458937-.241947053605145.290972925146889-.344580003959891.670745855532914-.31063422092484,1.047856840883469l.072192251319393.801341353861972c.112064065425329,1.243113801539039.598958418596339,2.423750939393358,1.396232218236037,3.384224313195773l2.082357150666212,2.509744158523972c1.115173600534945,1.343978672595767-.553486687760596,3.196765361590224-2.006326559134322,2.227372041736089l-3.454532904942425-2.303968616172824c-.953879068178139-.636296390682219-2.066240850301256-.993821287874198-3.212091373333351-1.032972496734146l-.748898292399645-.025449456943534Z" fill="url(#linear-gradient)" fill-rule="evenodd" stroke-width="0"/>
          <path d="M27.780964337523073,37.324928690054548c-.349282473382118-.011846984893054-.694201862244881.090144342042549-.956208955089096.321238718066525-1.744399149895798,1.540300018831658-4.442152844092561,5.302079523286011-4.021781127563372,9.918432045126792.034307716068724.377085929552777.229827867972745.717861434089173.520126091207203.96110005591072l.616988197994033.516058473926023c.957597118916965.801093119030156,2.135891266431827,1.292598489042575,3.378946949934289,1.409987040166925l3.481941632527196.32741266550056c1.586786574318467.149439175052976,1.671964717239462,2.434691175594708.100705621557609,2.701840111042657l-3.447906880216578.585708742652059c-1.230867882694838.209599044779679-2.369303720066455.787455835867149-3.264608400157158,1.657612119146506l-.576859545278239.560556732179975c-.27138500521778.264185792783792-.440972502826298.619159785455849-.447136179574954.997152799293872-.075552348444035,4.634837087601227,2.89477467476172,8.185951760592616,4.748975096231334,9.591519859088294.278483353373304.210948688600183.630038188747676.286980348506404.97746959037795.249164764085435l.74492580632068-.081128726690622c1.139757053109861-.12433103965941,2.22241688226859-.563682490124847,3.126281713607568-1.269222524546421l3.273434376185833-2.554739979026635c1.376644592236516-1.074856626299152,3.17860098795245.648569850401145,2.166570827424948,2.071835737684523l-1.889747538498341,2.657796321188471c-.723538724006175,1.017771552911654-1.121215293016576,2.230766311051411-1.140405492328682,3.479373754615153l-.012360446478851.803891479567937c-.005778497697975.378591627513742.124840935634893.749670547405003.387777420992279,1.021824960533195,3.220016510888854,3.334438945203146,7.830719662406409,3.750156966461873,10.136195579681953,3.435020334110959.346247046838471-.046861907321727.64897297272455-.241273214787725.86822400568235-.513207691565185l.469938179163364-.583865987618992c.719165362083004-.892689794541184,1.175053961950653-1.968999134686783,1.316610723761187-3.106963797298704l.369447224716168-2.969190041602815c.212099340457826-1.705128207236157,2.649933810500443-1.795993552877917,2.988439333716997-.111388027498833l.589456142683957,2.933448859424061c.225876954500563,1.124269314529556.760623793938066,2.163654723743093,1.544184257387315,3.000333454687279l.512159340519247.547260290359191c.23882842178682.254860492264015.555186845412209.426196683641137.904022315930888.447150796991082,2.322474972128475.142639130020143,6.889440615962485-.615157919786725,9.852356237418462-4.180053145836609.241889306432313-.290970772738547.344580003959891-.670745855532914.31057358639282-1.047854580856438l-.072169866266449-.800740783251058c-.112083563119995-1.243714479768641-.598897353580469-2.423741649987278-1.396191081397774-3.384827251455135l-2.082420672557419-2.509741790873704c-1.115170713176667-1.343978780217185.553547322293525-3.196767621619983,2.006387193667251-2.227374301765849l3.454535792300703,2.303968508552316c.953876180818042.636296498301817,2.066177758891172.993835204961215,3.212271833251179,1.03296577045603l.748593676056771.025460810901677c.34910056978606.011853764980515.694564225761496-.090157848409945.956392302367021-.321245551961511,1.744119805966875-1.539688201895842,4.442272669477461-5.302083989538914,4.021602111323773-9.918425372661659-.034047123923301-.37649423763196-.229892403061058-.717847463193721-.520312325841587-.961093114392497l-.616500234375962-.516076661778243c-.957595675238736-.801093172844958-2.135892710110966-1.292598435237778-3.379069662678376-1.409982466301699l-2.338503874385424-.219646056348211c-1.763090260429635-.166530784200404-1.857701981582977-2.704877097286044-.11187791579141-3.001582590434737l2.315641416308608-.393732872413239c1.230989151759786-.209603564838289,2.369427876489681-.787460463546267,3.264731112900336-1.657616693011732l.576371581661078-.560538544326846c.271506704764761-.264178763407472.441419329606106-.618575035053254.447322414209339-.997159740813913.075851190068533-4.634848226317445-2.894875002451045-8.185346616119205-4.748796079991735-9.591526531549789-.278304337134614-.210955361074411-.630403439621659-.286966734524867-.977652937654966-.249157930194087l-.744621189978716.081117372734298c-1.140000604437773.124351683024543-2.222600229545606.563689324022562-3.126462173524487,1.269229250825447l-3.27343726354502,2.554740086647143c-1.376644592237426,1.074856626298242-3.178658735126191-.648567697993712-2.166631461957877-2.071833477656583l1.889811060389547-2.657798688837829c.723558652183783-1.017159325246212,1.121154658483647-2.230764051022561,1.140364355490419-3.478770816355791l.012338061425908-.804492050177032c.005839132230903-.378593887542593-.124838048275706-.749670655025511-.38771678645935-1.021827220562045-3.220074258063505-3.334436792795714-7.830757481404362-3.749542586392636-10.136192692324585-3.435020441732377-.34630768137049.046864167351487-.649033607257479.241275474818394-.868204077507471.51381991922608l-.470021629230359.583256127607456c-.719079024655002.893299546933122-1.174990440056717,1.968996767037424-1.316547201869071,3.106961429650255l-.369447224715259,2.969190041601905c-.212159974990755,1.705130467266827-2.649994445033371,1.795995812907677-2.988439333716997.111388027498833l-.589456142685776-2.933448859423152c-.225876954496925-1.124269314531375-.760600978400362-2.163042603702706-1.544247779278521-3.000331087037921l-.512075890452252-.546650430347654c-.238908984493719-.25547045989515-.555267408119107-.426806651274092-.904042244105767-.447763024653796-2.322515678484706-.142024642328579-6.889501250494504.615160179817394-9.85235912477674,4.180053253458937-.241947053605145.290972925146889-.344580003959891.670745855532914-.31063422092484,1.047856840883469l.072192251319393.801341353861972c.112064065425329,1.243113801539039.598958418596339,2.423750939393358,1.396232218236037,3.384224313195773l2.082357150666212,2.509744158523972c1.115173600534945,1.343978672595767-.553486687760596,3.196765361590224-2.006326559134322,2.227372041736089l-3.454532904942425-2.303968616172824c-.953879068178139-.636296390682219-2.066240850301256-.993821287874198-3.212091373333351-1.032972496734146l-.748898292399645-.025449456943534Z" fill="url(#linear-gradient-2)" fill-rule="evenodd" stroke-width="0"/>
          <path d="M50.236104632484057,53.142967134229366l-12.126786171358617,20.348628772327174,7.646609500699014,1.799064483967413,1.309918486424976-2.985450299249351,3.170258184234626-19.162242957045237Z" fill="#d23e27" stroke-width="0"/>
          <path d="M54.289770353845597,50.055249210197871l12.530097601143098,10.807100026818262,4.799225901603677-5.958140253223064-17.329323502746774-4.848959773595197Z" fill="#d23e27" stroke-width="0"/>
          <polygon points="47.985926416654365 51.237355658036904 26.499382145014351 56.870338503822495 28.171876868775144 61.071347866957694 47.985926416654365 51.237355658036904" fill="#febb12" opacity=".5" stroke-width="0"/>
          <polygon points="59.860384524467008 29.193033178024962 51.436380470924632 49.822041048145365 50.453761595123069 38.639109624595221 52.824078840460061 27.745352569080751 59.860384524467008 29.193033178024962" fill="#febb12" opacity=".5" stroke-width="0"/>
          <path d="M53.675564179547109,48.846014083778755l-27.950123385440747,12.695497386891475,4.696588829393477,3.99369831475542,23.253534556047271-16.689195701646895Z" fill="url(#linear-gradient-3)" stroke-width="0"/>
          <polygon points="53.095603309845501 53.605152287201236 28.09774161551195 43.830928705460792 25.726539488626258 48.846019924088068 53.095603309845501 53.605152287201236" fill="url(#linear-gradient-4)" opacity=".600000023841858" stroke-width="0"/>
          <polygon points="52.264963023849305 54.204278496153165 62.66695020946463 30.794124253162408 58.237159278534818 28.874557962955805 52.264963023849305 54.204278496153165" fill="url(#linear-gradient-5)" opacity=".600000023841858" stroke-width="0"/>
          <polygon points="50.880449719157696 56.553389172566312 45.406977686920982 30.276870435649471 42.620385437133336 34.383351057919754 50.880449719157696 56.553389172566312" fill="url(#linear-gradient-6)" opacity=".300000011920929" stroke-width="0"/>
          <path d="M74.013590040085546,45.435111779735962l-1.910780281474217-5.518248826131639-19.168796885021948,11.894018098124434,4.531474595111831,2.10496436028734,16.548102571384334-8.480733632280135Z" fill="url(#linear-gradient-7)" stroke-width="0"/>
          <path d="M52.648427415688275,54.474369226332783l17.841620931810212,14.778479307639827" fill="none" stroke="url(#radial-gradient)" stroke-linecap="round" stroke-width="10.906982325073871"/>
          <path d="M52.648427415688275,54.474369226332783l17.841620931810212,14.778479307639827" fill="none" stroke="url(#linear-gradient-8)" stroke-linecap="round" stroke-width="10.906982325073871"/>
          <path d="M193.616844415621927,107.393426886112138c1.519149189303789,40.757389218878416-30.289688542085969,75.029448003488142-71.047447342877604,76.548610968209687-40.75775302607326,1.519162749480529-75.029635512542882-30.289870937803244-76.548784701846671-71.04726015668075-1.519162534240422-40.757747251358523,30.289687590523499-75.029628678646077,71.047440616596759-76.548791428127515,40.757758800791635-1.519162964721545,75.029628893887093,30.289693365240964,76.548791428127515,71.047440616598578Z" fill="url(#radial-gradient-2)" stroke-width="0"/>
          <path d="M193.616844415621927,107.393426886112138c1.519149189303789,40.757389218878416-30.289688542085969,75.029448003488142-71.047447342877604,76.548610968209687-40.75775302607326,1.519162749480529-75.029635512542882-30.289870937803244-76.548784701846671-71.04726015668075-1.519162534240422-40.757747251358523,30.289687590523499-75.029628678646077,71.047440616596759-76.548791428127515,40.757758800791635-1.519162964721545,75.029628893887093,30.289693365240964,76.548791428127515,71.047440616598578Z" fill="url(#radial-gradient-3)" stroke-width="0"/>
          <path d="M193.616844415621927,107.393426886112138c1.519149189303789,40.757389218878416-30.289688542085969,75.029448003488142-71.047447342877604,76.548610968209687-40.75775302607326,1.519162749480529-75.029635512542882-30.289870937803244-76.548784701846671-71.04726015668075-1.519162534240422-40.757747251358523,30.289687590523499-75.029628678646077,71.047440616596759-76.548791428127515,40.757758800791635-1.519162964721545,75.029628893887093,30.289693365240964,76.548791428127515,71.047440616598578Z" fill="url(#radial-gradient-4)" stroke-width="0"/>
          <ellipse cx="111.990292116278397" cy="85.655867175371668" rx="30.490161788143766" ry="40.623782826362564" transform="translate(-28.491091877872208 97.644772919528862) rotate(-42.288490524505391)" fill="url(#radial-gradient-5)" stroke-width="0"/>
          <path d="M34.921051752452513,31.16493521994289l8.449611059410927-3.346763355410985c.05818435098081,1.561033146739646-.032299393485118,4.217249299866126-2.590091731173743,5.496821597691451-2.333068512833961,1.167500077864133-5.258406053649196-1.272622912185398-5.859519328237184-2.150058242280465Z" fill="#ffd35d" stroke-width="0"/>
          <path d="M24.120217220286577,47.266288923464344l3.379747316089379-8.436811558246518c1.173555779467279,1.031350413743894,3.040067231818284,2.923366354083555,2.210469934057983,5.660494593932526-.756699534962536,2.496705811570791-4.539590977083208,2.943311678579448-5.590217250147361,2.776316964313992Z" fill="url(#linear-gradient-9)" stroke-width="0"/>
          <path d="M38.185835386471808,41.228352338098375l8.5624722943503,7.307695437232724" fill="none" stroke="url(#linear-gradient-10)" stroke-linecap="round" stroke-width=".605943487585386"/>
          <path d="M51.325476431247807,36.617135903668895l-.627456099050505,9.767662638189904" fill="none" stroke="url(#linear-gradient-11)" stroke-linecap="round" stroke-width=".605943487585386"/>
        </g>
      </g>
      <g id="AC">
        <path d="M178.054194024268327,100.454485954122902c5.330078125,2.89892578125,9.658935546875,6.50537109375,12.982177734375,10.8212890625s5.630859375,8.95068359375,6.923095703125,13.9033203125c1.29248046875,4.95458984375,1.6337890625,10.0048828125,1.02587890625,15.1552734375-.610107421875,5.15087890625-2.097900390625,10.07080078125-4.4677734375,14.7548828125-2.369873046875,4.68701171875-5.668701171875,8.943359375-9.8935546875,12.771484375-4.227783203125,3.8271484375-9.224609375,6.8447265625-14.995361328125,9.04736328125-5.9951171875,2.19482421875-12.628173828125,3.75-19.902099609375,4.66455078125-.140380859375.66162109375-.316162109375,2.15771484375-.524658203125,4.48583984375-.197021484375,1.9951171875-.38037109375,5.01953125-.552734375,9.0771484375-.17236328125,4.05517578125-.40966796875,9.63916015625-.712158203125,16.75146484375-.173095703125,1.43798828125-.563232421875,2.75732421875-1.169921875,3.9580078125-.599853515625.97607421875-1.47314453125,1.88330078125-2.62060546875,2.72705078125-1.14990234375.8408203125-2.67333984375,1.33203125-4.571044921875,1.4755859375-2.009765625.13623046875-4.09912109375.18603515625-6.268310546875.15087890625-2.169189453125-.037109375-4.159912109375-.34375-5.97216796875-.921875s-3.302001953125-1.5595703125-4.466796875-2.94482421875c-1.167236328125-1.3857421875-1.749267578125-3.41455078125-1.744873046875-6.08544921875.02001953125-3.1171875.150634765625-7.48193359375.388916015625-13.09130859375.238525390625-5.61279296875.531494140625-11.89013671875.884033203125-18.83154296875.349853515625-6.94140625.69384765625-14.35693359375,1.029296875-22.24853515625.335205078125-7.88818359375.633544921875-15.5859375.8974609375-23.08837890625.261474609375-7.5029296875.48046875-14.61669921875.65673828125-21.34521484375.173828125-6.72705078125.251708984375-12.484375.2333984375-17.27294921875.075439453125-1.7763671875.74755859375-3.224609375,2.021240234375-4.3388671875,1.270751953125-1.115234375,3.026611328125-1.84716796875,5.269775390625-2.19775390625,1.564208984375-.15478515625,3.35498046875-.3583984375,5.369140625-.6064453125,2.01416015625-.24853515625,3.96435546875-.33251953125,5.85498046875-.251953125,1.88818359375.080078125,3.488525390625.4267578125,4.79833984375,1.0380859375,1.3095703125.6142578125,2.043212890625,1.6474609375,2.205810546875,3.1005859375.0859375.5615234375.123046875,1.03515625.106689453125,1.42333984375-.0166015625.39013671875.022705078125.75244140625.12060546875,1.0908203125,4.23583984375-.154296875,8.669921875.31298828125,13.299072265625,1.3994140625,4.629150390625,1.08935546875,9.227783203125,2.8974609375,13.79541015625,5.4287109375ZM150.080072930518327,157.542376579122902c4.3525390625-.2587890625,8.156982421875-1.3779296875,11.41357421875-3.35595703125,3.2568359375-1.974609375,5.807373046875-4.3994140625,7.65625-7.27197265625,1.846923828125-2.86962890625,2.950439453125-5.94091796875,3.313720703125-9.2099609375.36083984375-3.26708984375-.1474609375-6.35205078125-1.527099609375-9.2490234375-1.3798828125-2.8974609375-3.67138671875-5.33251953125-6.869873046875-7.30517578125-3.200927734375-1.97216796875-7.409912109375-3.125-12.626953125-3.45849609375-.2646484375,6.22412109375-.504150390625,12.4755859375-.713623046875,18.7548828125-.212158203125,6.28125-.413330078125,12.98046875-.603515625,20.095703125l-.021240234375.5-.021240234375.5Z" fill="none" stroke="#000" stroke-linecap="round" stroke-linejoin="round" stroke-width="44.039710998535156"/>
        <path d="M178.054194024268327,100.454485954122902c5.330078125,2.89892578125,9.658935546875,6.50537109375,12.982177734375,10.8212890625s5.630859375,8.95068359375,6.923095703125,13.9033203125c1.29248046875,4.95458984375,1.6337890625,10.0048828125,1.02587890625,15.1552734375-.610107421875,5.15087890625-2.097900390625,10.07080078125-4.4677734375,14.7548828125-2.369873046875,4.68701171875-5.668701171875,8.943359375-9.8935546875,12.771484375-4.227783203125,3.8271484375-9.224609375,6.8447265625-14.995361328125,9.04736328125-5.9951171875,2.19482421875-12.628173828125,3.75-19.902099609375,4.66455078125-.140380859375.66162109375-.316162109375,2.15771484375-.524658203125,4.48583984375-.197021484375,1.9951171875-.38037109375,5.01953125-.552734375,9.0771484375-.17236328125,4.05517578125-.40966796875,9.63916015625-.712158203125,16.75146484375-.173095703125,1.43798828125-.563232421875,2.75732421875-1.169921875,3.9580078125-.599853515625.97607421875-1.47314453125,1.88330078125-2.62060546875,2.72705078125-1.14990234375.8408203125-2.67333984375,1.33203125-4.571044921875,1.4755859375-2.009765625.13623046875-4.09912109375.18603515625-6.268310546875.15087890625-2.169189453125-.037109375-4.159912109375-.34375-5.97216796875-.921875s-3.302001953125-1.5595703125-4.466796875-2.94482421875c-1.167236328125-1.3857421875-1.749267578125-3.41455078125-1.744873046875-6.08544921875.02001953125-3.1171875.150634765625-7.48193359375.388916015625-13.09130859375.238525390625-5.61279296875.531494140625-11.89013671875.884033203125-18.83154296875.349853515625-6.94140625.69384765625-14.35693359375,1.029296875-22.24853515625.335205078125-7.88818359375.633544921875-15.5859375.8974609375-23.08837890625.261474609375-7.5029296875.48046875-14.61669921875.65673828125-21.34521484375.173828125-6.72705078125.251708984375-12.484375.2333984375-17.27294921875.075439453125-1.7763671875.74755859375-3.224609375,2.021240234375-4.3388671875,1.270751953125-1.115234375,3.026611328125-1.84716796875,5.269775390625-2.19775390625,1.564208984375-.15478515625,3.35498046875-.3583984375,5.369140625-.6064453125,2.01416015625-.24853515625,3.96435546875-.33251953125,5.85498046875-.251953125,1.88818359375.080078125,3.488525390625.4267578125,4.79833984375,1.0380859375,1.3095703125.6142578125,2.043212890625,1.6474609375,2.205810546875,3.1005859375.0859375.5615234375.123046875,1.03515625.106689453125,1.42333984375-.0166015625.39013671875.022705078125.75244140625.12060546875,1.0908203125,4.23583984375-.154296875,8.669921875.31298828125,13.299072265625,1.3994140625,4.629150390625,1.08935546875,9.227783203125,2.8974609375,13.79541015625,5.4287109375ZM150.080072930518327,157.542376579122902c4.3525390625-.2587890625,8.156982421875-1.3779296875,11.41357421875-3.35595703125,3.2568359375-1.974609375,5.807373046875-4.3994140625,7.65625-7.27197265625,1.846923828125-2.86962890625,2.950439453125-5.94091796875,3.313720703125-9.2099609375.36083984375-3.26708984375-.1474609375-6.35205078125-1.527099609375-9.2490234375-1.3798828125-2.8974609375-3.67138671875-5.33251953125-6.869873046875-7.30517578125-3.200927734375-1.97216796875-7.409912109375-3.125-12.626953125-3.45849609375-.2646484375,6.22412109375-.504150390625,12.4755859375-.713623046875,18.7548828125-.212158203125,6.28125-.413330078125,12.98046875-.603515625,20.095703125l-.021240234375.5-.021240234375.5Z" fill="#fff" stroke-width="0"/>
      </g>
    </g>
  </a>
</svg>