<?xml version="1.0" encoding="UTF-8"?>
<svg id="Pattern" xmlns="http://www.w3.org/2000/svg" xmlns:xlink="http://www.w3.org/1999/xlink" viewBox="0 0 280 280">
  <defs>
    <linearGradient id="linear-gradient" x1="3770.625686341387336" y1="-2183.913512236598763" x2="3720.083423739704813" y2="-2212.856518337965099" gradientTransform="translate(-2137.548616529590618 3809.936423523437043) rotate(-90.000000000000014) scale(1 -1)" gradientUnits="userSpaceOnUse">
      <stop offset="0" stop-color="#ffc810"/>
      <stop offset=".755599975585938" stop-color="#ef4e26"/>
    </linearGradient>
    <linearGradient id="linear-gradient-2" x1="3724.398652344421862" y1="-2217.001473264391279" x2="3743.40599804610747" y2="-2200.153775763764315" gradientTransform="translate(-2137.548616529590618 3809.936423523437043) rotate(-90.000000000000014) scale(1 -1)" gradientUnits="userSpaceOnUse">
      <stop offset="0" stop-color="#d23e27"/>
      <stop offset="1" stop-color="#d23e27" stop-opacity="0"/>
    </linearGradient>
    <linearGradient id="linear-gradient-3" x1="3724.998377670782247" y1="-2186.375637416619611" x2="3744.524111983102102" y2="-2187.04331407780046" xlink:href="#linear-gradient-2"/>
    <linearGradient id="linear-gradient-4" x1="3740.606217612657929" y1="-2174.480043370595013" x2="3750.747163679959158" y2="-2191.179413654995187" xlink:href="#linear-gradient-2"/>
    <linearGradient id="linear-gradient-5" x1="3767.954996561499684" y1="-2201.341747301737087" x2="3750.525605902557345" y2="-2210.169173448954552" xlink:href="#linear-gradient-2"/>
    <linearGradient id="linear-gradient-6" x1="3761.885617648904372" y1="-2182.047706080160424" x2="3753.441512105633137" y2="-2199.666273438994267" xlink:href="#linear-gradient-2"/>
    <linearGradient id="linear-gradient-7" x1="3756.579192998256985" y1="-2229.238320061610466" x2="3746.103724990632145" y2="-2210.663302554175061" xlink:href="#linear-gradient-2"/>
    <radialGradient id="radial-gradient" cx="-2896.437982709233438" cy="3014.652545772137273" fx="-2896.437982709233438" fy="3014.652545772137273" r="6.91176203996231" gradientTransform="translate(2136.874500012332646 11614.013827078964823) rotate(46.679000554437977) scale(3.393360063220485 -2.127890109186671)" gradientUnits="userSpaceOnUse">
      <stop offset="0" stop-color="#e1dfe1"/>
      <stop offset=".394388008117676" stop-color="#c2bec5"/>
    </radialGradient>
    <linearGradient id="linear-gradient-8" x1="3728.373322009279946" y1="-2207.757947305740345" x2="3730.10126253922499" y2="-2209.161931924370492" gradientTransform="translate(-2137.548616529590618 3809.936423523437043) rotate(-90.000000000000014) scale(1 -1)" gradientUnits="userSpaceOnUse">
      <stop offset="0" stop-color="#a3a1a8"/>
      <stop offset="1" stop-color="#b8b6bd" stop-opacity="0"/>
    </linearGradient>
    <radialGradient id="radial-gradient-2" cx="-2383.206932404242252" cy="170.279567004030469" fx="-2383.206932404242252" fy="170.279567004030469" r="6.911762089467487" gradientTransform="translate(-46319.293070446772617 19561.693937624851969) rotate(150.613998431500903) scale(21.016598951055695 -34.567501017196157)" gradientUnits="userSpaceOnUse">
      <stop offset=".00558659017086" stop-color="#5c266f"/>
      <stop offset="1" stop-color="#2e265b"/>
    </radialGradient>
    <radialGradient id="radial-gradient-3" cx="-2391.977524769751653" cy="178.708275641580258" fx="-2391.977524769751653" fy="178.708275641580258" r="6.911762089466457" gradientTransform="translate(-44047.833085160105838 32900.077677664456132) rotate(138.535003813569972) scale(22.936198784939201 -26.32180011951473)" gradientUnits="userSpaceOnUse">
      <stop offset=".71875" stop-color="#29233a" stop-opacity="0"/>
      <stop offset="1" stop-color="#29233a"/>
    </radialGradient>
    <radialGradient id="radial-gradient-4" cx="-1907.056082167713612" cy="545.606821371412479" fx="-1907.056082167713612" fy="545.606821371412479" r="6.911762089469597" gradientTransform="translate(37875.402436197000497 -5699.193188891936188) rotate(-22.450103256572724) scale(19.476000259430069 -16.532499694880091)" gradientUnits="userSpaceOnUse">
      <stop offset=".809844970703125" stop-color="#672b80" stop-opacity="0"/>
      <stop offset="1" stop-color="#672b80"/>
    </radialGradient>
    <radialGradient id="radial-gradient-5" cx="-2351.992249037734837" cy="1078.9186355247557" fx="-2351.992249037734837" fy="1078.9186355247557" r="6.911762089471009" gradientTransform="translate(-8669.356999639383503 33658.334941837420047) rotate(92.148493896126979) scale(14.411199570559591 -6.984130141550687)" gradientUnits="userSpaceOnUse">
      <stop offset="0" stop-color="#67568f"/>
      <stop offset=".727772979736328" stop-color="#67568f" stop-opacity="0"/>
    </radialGradient>
    <linearGradient id="linear-gradient-9" x1="3760.363435681224473" y1="-2175.205084844788871" x2="3749.615643511883263" y2="-2171.749204752422884" gradientTransform="translate(-2137.548616529590618 3809.936423523437043) rotate(-90.000000000000014) scale(1 -1)" gradientUnits="userSpaceOnUse">
      <stop offset="0" stop-color="#ffd35d"/>
      <stop offset="1" stop-color="#ffd35d" stop-opacity="0"/>
    </linearGradient>
    <linearGradient id="linear-gradient-10" x1="3756.904497233468646" y1="-2185.322401933512992" x2="3751.990930104110703" y2="-2192.342127892287408" gradientTransform="translate(-2137.548616529590618 3809.936423523437043) rotate(-90.000000000000014) scale(1 -1)" gradientUnits="userSpaceOnUse">
      <stop offset="0" stop-color="#febb12"/>
      <stop offset="1" stop-color="#febb12" stop-opacity="0"/>
    </linearGradient>
    <linearGradient id="linear-gradient-11" x1="3763.957398330012438" y1="-2199.87934710672198" x2="3755.413075700311765" y2="-2200.518894560691933" xlink:href="#linear-gradient-10"/>
  </defs>
  <a xlink:href="https://www.notion.so/dmmnotes/suggested-5168e86be82a4800afc274f4212285ec?pvs=4">
    <g>
      <g>
        <g>
          <path d="M36.567823975774445,47.442728180112681c-.397633163611317-.028343750937893-.795129552143408.073258708825961-1.103601844341028.325544458465629-2.053829390360988,1.681628151643054-5.288741234458939,5.85494885677781-5.005704162946131,11.134849147993009.023085325983629.431286424175596.23147451530167.828033021621195.552042338421415,1.11762705738056l.681360702081292.614452970939965c1.057500403861923.953826543229297,2.379719906243736,1.564140008218601,3.791653971921733,1.750760537654969l3.955049104513819.521142706221326c1.802380770110176.237757929390682,1.802380770110176,2.846266286163882,0,3.084024215554564l-3.955049104513819.521142706219507c-1.411934065677997.186620529438187-2.73415356805981.796933994426581-3.791653971921733,1.750760537660426l-.681360702081292.614452970937236c-.320567823119745.289607218900528-.528957012437786.687026156486354-.552042338421415,1.11762705738056-.283037071512808,5.27990029121338,2.951874772585143,9.45390651962407,5.005704162946131,11.134849147997556.308472292197621.252285749633302.705968680729711.353888209398065,1.103601844341028.325544458458353l.852565197214972-.060827007829175c1.304456869164824-.093297081578385,2.557214407038373-.548102227464369,3.617478326616947-1.313924011555173l3.839830109052855-2.772994394204943c1.614862139260367-1.166707887491611,3.595635511575892.874332209202294,2.381583672659872,2.453672377807379l-2.266985932669741,2.949252975622585c-.867981231521298,1.129386418238028-1.372816393595713,2.495146536161883-1.447739473840556,3.917580972824908l-.048243700725834.915806367553159c-.022671704965433.431299607313122.110451642468433.859830755231997.398602124399076,1.181222524600344,3.528731076217809,3.937632528719405,8.766669432903655,4.607388771843034,11.408000512425133,4.346125303884037.396667498605893-.038705698957529.74999542455771-.247447537271,1.011466526969343-.54810222746346l.560474604325464-.645565181274833c.857681903419689-.986995323396513,1.423063931601064-2.194478662821894,1.63276813912853-3.485595842229486l.547271689643821-3.368793222079148c.314210253871352-1.934612607706185,3.096884368596875-1.934612607706185,3.411163833950923,0l.547271689643821,3.368793222079148c.209704207529285,1.291117179407593.77508623571066,2.498600518832973,1.632695631857132,3.485595842229486l.560543815809979.645565181274833c.261405186714001.300654690192459.614733112663998.509396528505931,1.011469822758954.54810222746346,2.641258572248262.261263467958997,7.87920022471917-.408492775164632,11.407997216637341-4.346125303884037.288084566231191-.321391769368347.421273829366328-.749922917287222.398532912913652-1.181222524600344l-.048243700726744-.915806367553159c-.074919784457961-1.422434436663025-.579689030832014-2.78819455458688-1.44766696656734-3.917580972824908l-2.267058439940229-2.949252975622585c-1.214048543131867-1.579340168605086.766790744881291-3.620380265298991,2.381652884141658-2.453672377807379l3.839833404840647,2.772994394204943c1.060260623792601.765821784090804,2.312948950181635,1.220626929976788,3.61768431317887,1.313924011555173l.852217491896226.060827007829175c.397425529157772.028343750939712.795543173160695-.073258708825051,1.103811126688925-.325544458458353,2.053484980829126-1.680942628373487,5.288878009537257-5.854948856784176,5.00549982427674-11.134849147997556-.022813423722255-.430600900894206-.231548670462871-.828019838480031-.552254916554375-1.11762705738056l-.68080371441647-.614452970937236c-1.057498755966662-.953826543233845-2.379721554138087-1.564140008222239-3.791794042785114-1.750760537660426l-2.656257689752238-.349722337167805c-2.002617835246383-.26473063377216-2.002617835246383-3.162134319884899,0-3.426166247238143l2.656257689752238-.350421043589449c1.412072488647027-.186620529436368,2.734295286818451-.796933994425672,3.791794042785114-1.750760537654969l.68080371441647-.614452970939965c.320706246091504-.289594035759364.52944149283212-.686340633204964.552254916554375-1.11762705738056.283378185260517-5.279900291215199-2.952014843447614-9.453220996349955-5.00549982427674-11.134849147993009-.30826795352823-.252285749639668-.706385597531153-.353888209403522-1.103811126688925-.325544458465629l-.852217491896226.060827007830994c-1.304735362997235.093310264721367-2.557423689386269.54810222746255-3.61768431317887,1.313924011555173l-3.839833404840647,2.772994394205853c-1.614862139260367,1.166707887491611-3.595701427273525-.874332209205022-2.381652884141658-2.453672377808289l2.267058439940229-2.949252975623494c.867977935735325-1.128687711813654,1.372747182109379-2.495146536161883,1.44766696656734-3.916895449542608l.048243700726744-.91649189083455c.022740916452676-.431299607313122-.11044834668246-.859830755231087-.398532912913652-1.181222524599434-3.528796991918171-3.937632528720314-8.766738644389079-4.606690065425028-11.407997216637341-4.346125303885856-.396736710094956.038705698958438-.750064636044954.24744753727191-1.011469822758954.548800933882376l-.560543815809979.644866474856826c-.857609396146472.98769402981543-1.422991424327847,2.194478662821894-1.632695631857132,3.485595842229486l-.547271689643821,3.368793222079148c-.314279465354048,1.934612607707095-3.096953580079571,1.934612607707095-3.411163833950923,0l-.547271689643821-3.368793222079148c-.209704207527466-1.291117179407593-.775086235708841-2.497901812414057-1.63276813912853-3.485595842229486l-.560474604325464-.644866474856826c-.261471102411633-.301353396610466-.61479902836345-.510095234923938-1.011466526969343-.548800933882376-2.641331079521478-.260564761539172-7.879269436207323.408492775165541-11.408000512425133,4.346125303885856-.288150481930643.321391769368347-.421273829364509.749922917286312-.398602124399076,1.181222524599434l.048243700725834.91649189083455c.074923080244844,1.421748913380725.579758242319258,2.788207737728953,1.447739473840556,3.916895449542608l2.266985932669741,2.949252975623494c1.214051838916021,1.579340168603267-.766721533399505,3.6203802652999-2.381583672659872,2.453672377808289l-3.839830109052855-2.772994394205853c-1.060263919578574-.765821784092623-2.313021457452123-1.220613746833806-3.617478326616947-1.313924011555173l-.852565197214972-.060827007830994Z" fill="none" stroke="#000" stroke-linecap="round" stroke-linejoin="round" stroke-width="37.604502017889132"/>
          <path d="M36.567823975774445,47.442728180112681c-.397633163611317-.028343750937893-.795129552143408.073258708825961-1.103601844341028.325544458465629-2.053829390360988,1.681628151643054-5.288741234458939,5.85494885677781-5.005704162946131,11.134849147993009.023085325983629.431286424175596.23147451530167.828033021621195.552042338421415,1.11762705738056l.681360702081292.614452970939965c1.057500403861923.953826543229297,2.379719906243736,1.564140008218601,3.791653971921733,1.750760537654969l3.955049104513819.521142706221326c1.802380770110176.237757929390682,1.802380770110176,2.846266286163882,0,3.084024215554564l-3.955049104513819.521142706219507c-1.411934065677997.186620529438187-2.73415356805981.796933994426581-3.791653971921733,1.750760537660426l-.681360702081292.614452970937236c-.320567823119745.289607218900528-.528957012437786.687026156486354-.552042338421415,1.11762705738056-.283037071512808,5.27990029121338,2.951874772585143,9.45390651962407,5.005704162946131,11.134849147997556.308472292197621.252285749633302.705968680729711.353888209398065,1.103601844341028.325544458458353l.852565197214972-.060827007829175c1.304456869164824-.093297081578385,2.557214407038373-.548102227464369,3.617478326616947-1.313924011555173l3.839830109052855-2.772994394204943c1.614862139260367-1.166707887491611,3.595635511575892.874332209202294,2.381583672659872,2.453672377807379l-2.266985932669741,2.949252975622585c-.867981231521298,1.129386418238028-1.372816393595713,2.495146536161883-1.447739473840556,3.917580972824908l-.048243700725834.915806367553159c-.022671704965433.431299607313122.110451642468433.859830755231997.398602124399076,1.181222524600344,3.528731076217809,3.937632528719405,8.766669432903655,4.607388771843034,11.408000512425133,4.346125303884037.396667498605893-.038705698957529.74999542455771-.247447537271,1.011466526969343-.54810222746346l.560474604325464-.645565181274833c.857681903419689-.986995323396513,1.423063931601064-2.194478662821894,1.63276813912853-3.485595842229486l.547271689643821-3.368793222079148c.314210253871352-1.934612607706185,3.096884368596875-1.934612607706185,3.411163833950923,0l.547271689643821,3.368793222079148c.209704207529285,1.291117179407593.77508623571066,2.498600518832973,1.632695631857132,3.485595842229486l.560543815809979.645565181274833c.261405186714001.300654690192459.614733112663998.509396528505931,1.011469822758954.54810222746346,2.641258572248262.261263467958997,7.87920022471917-.408492775164632,11.407997216637341-4.346125303884037.288084566231191-.321391769368347.421273829366328-.749922917287222.398532912913652-1.181222524600344l-.048243700726744-.915806367553159c-.074919784457961-1.422434436663025-.579689030832014-2.78819455458688-1.44766696656734-3.917580972824908l-2.267058439940229-2.949252975622585c-1.214048543131867-1.579340168605086.766790744881291-3.620380265298991,2.381652884141658-2.453672377807379l3.839833404840647,2.772994394204943c1.060260623792601.765821784090804,2.312948950181635,1.220626929976788,3.61768431317887,1.313924011555173l.852217491896226.060827007829175c.397425529157772.028343750939712.795543173160695-.073258708825051,1.103811126688925-.325544458458353,2.053484980829126-1.680942628373487,5.288878009537257-5.854948856784176,5.00549982427674-11.134849147997556-.022813423722255-.430600900894206-.231548670462871-.828019838480031-.552254916554375-1.11762705738056l-.68080371441647-.614452970937236c-1.057498755966662-.953826543233845-2.379721554138087-1.564140008222239-3.791794042785114-1.750760537660426l-2.656257689752238-.349722337167805c-2.002617835246383-.26473063377216-2.002617835246383-3.162134319884899,0-3.426166247238143l2.656257689752238-.350421043589449c1.412072488647027-.186620529436368,2.734295286818451-.796933994425672,3.791794042785114-1.750760537654969l.68080371441647-.614452970939965c.320706246091504-.289594035759364.52944149283212-.686340633204964.552254916554375-1.11762705738056.283378185260517-5.279900291215199-2.952014843447614-9.453220996349955-5.00549982427674-11.134849147993009-.30826795352823-.252285749639668-.706385597531153-.353888209403522-1.103811126688925-.325544458465629l-.852217491896226.060827007830994c-1.304735362997235.093310264721367-2.557423689386269.54810222746255-3.61768431317887,1.313924011555173l-3.839833404840647,2.772994394205853c-1.614862139260367,1.166707887491611-3.595701427273525-.874332209205022-2.381652884141658-2.453672377808289l2.267058439940229-2.949252975623494c.867977935735325-1.128687711813654,1.372747182109379-2.495146536161883,1.44766696656734-3.916895449542608l.048243700726744-.91649189083455c.022740916452676-.431299607313122-.11044834668246-.859830755231087-.398532912913652-1.181222524599434-3.528796991918171-3.937632528720314-8.766738644389079-4.606690065425028-11.407997216637341-4.346125303885856-.396736710094956.038705698958438-.750064636044954.24744753727191-1.011469822758954.548800933882376l-.560543815809979.644866474856826c-.857609396146472.98769402981543-1.422991424327847,2.194478662821894-1.632695631857132,3.485595842229486l-.547271689643821,3.368793222079148c-.314279465354048,1.934612607707095-3.096953580079571,1.934612607707095-3.411163833950923,0l-.547271689643821-3.368793222079148c-.209704207527466-1.291117179407593-.775086235708841-2.497901812414057-1.63276813912853-3.485595842229486l-.560474604325464-.644866474856826c-.261471102411633-.301353396610466-.61479902836345-.510095234923938-1.011466526969343-.548800933882376-2.641331079521478-.260564761539172-7.879269436207323.408492775165541-11.408000512425133,4.346125303885856-.288150481930643.321391769368347-.421273829364509.749922917286312-.398602124399076,1.181222524599434l.048243700725834.91649189083455c.074923080244844,1.421748913380725.579758242319258,2.788207737728953,1.447739473840556,3.916895449542608l2.266985932669741,2.949252975623494c1.214051838916021,1.579340168603267-.766721533399505,3.6203802652999-2.381583672659872,2.453672377808289l-3.839830109052855-2.772994394205853c-1.060263919578574-.765821784092623-2.313021457452123-1.220613746833806-3.617478326616947-1.313924011555173l-.852565197214972-.060827007830994Z" fill="none" stroke="#000" stroke-linecap="round" stroke-linejoin="round" stroke-width="37.604502017889132"/>
          <path d="M61.491706912758673,66.42726709400813l-14.687494440124283,22.679562117708883,8.639702611839311,2.375575456616389,1.619977197569824-3.347370619627327,4.427814630715147-21.707766954697945Z" fill="none" stroke="#000" stroke-linecap="round" stroke-linejoin="round" stroke-width="37.604502017889132"/>
          <path d="M66.243543349270112,63.079896474376255l13.823524178937078,12.851043492648387,5.723631599523287-6.587601860703217-19.547155778460365-6.26344163194517Z" fill="none" stroke="#000" stroke-linecap="round" stroke-linejoin="round" stroke-width="37.604502017889132"/>
          <g>
            <polygon points="59.007759454005281 64.159516539218203 34.276574473986329 69.667498335084929 36.004514996355283 74.52715967342283 59.007759454005281 64.159516539218203" fill="none" stroke="#000" stroke-linecap="round" stroke-linejoin="round" stroke-width="37.604502017889132"/>
            <polygon points="59.007759454005281 64.159516539218203 34.276574473986329 69.667498335084929 36.004514996355283 74.52715967342283 59.007759454005281 64.159516539218203" fill="none" stroke="#000" stroke-linecap="round" stroke-linejoin="round" stroke-width="37.604502017889132"/>
          </g>
          <g>
            <polygon points="73.479676597742582 39.536364095482895 63.000958917706157 62.692839484811884 62.356023231366635 49.904007229687522 65.520711784620289 37.587250033808232 73.479676597742582 39.536364095482895" fill="none" stroke="#000" stroke-linecap="round" stroke-linejoin="round" stroke-width="37.604502017889132"/>
            <polygon points="73.479676597742582 39.536364095482895 63.000958917706157 62.692839484811884 62.356023231366635 49.904007229687522 65.520711784620289 37.587250033808232 73.479676597742582 39.536364095482895" fill="none" stroke="#000" stroke-linecap="round" stroke-linejoin="round" stroke-width="37.604502017889132"/>
          </g>
          <path d="M65.594804327049133,61.675430657495781l-32.39888314649761,13.283714146517923,5.183821567103223,4.751836436513258,27.215061579394387-18.035550583031181Z" fill="none" stroke="#000" stroke-linecap="round" stroke-linejoin="round" stroke-width="37.604502017889132"/>
          <g>
            <polygon points="64.731526180712535 67.075587551530589 36.652492692242959 54.872178993135094 33.736558455006161 60.487985690827372 64.731526180712535 67.075587551530589" fill="none" stroke="#000" stroke-linecap="round" stroke-linejoin="round" stroke-width="37.604502017889132"/>
            <polygon points="64.731526180712535 67.075587551530589 36.652492692242959 54.872178993135094 33.736558455006161 60.487985690827372 64.731526180712535 67.075587551530589" fill="none" stroke="#000" stroke-linecap="round" stroke-linejoin="round" stroke-width="37.604502017889132"/>
          </g>
          <g>
            <polygon points="63.759249833090507 67.723222485782571 76.610771214564011 41.480639944785253 71.642942212758498 39.104378964892021 63.759249833090507 67.723222485782571" fill="none" stroke="#000" stroke-linecap="round" stroke-linejoin="round" stroke-width="37.604502017889132"/>
            <polygon points="63.759249833090507 67.723222485782571 76.610771214564011 41.480639944785253 71.642942212758498 39.104378964892021 63.759249833090507 67.723222485782571" fill="none" stroke="#000" stroke-linecap="round" stroke-linejoin="round" stroke-width="37.604502017889132"/>
          </g>
          <g>
            <polygon points="62.081280002787025 70.342079607432424 56.958628205153218 40.157725031766859 53.607806898638046 44.720185662586118 62.081280002787025 70.342079607432424" fill="none" stroke="#000" stroke-linecap="round" stroke-linejoin="round" stroke-width="37.604502017889132"/>
            <polygon points="62.081280002787025 70.342079607432424 56.958628205153218 40.157725031766859 53.607806898638046 44.720185662586118 62.081280002787025 70.342079607432424" fill="none" stroke="#000" stroke-linecap="round" stroke-linejoin="round" stroke-width="37.604502017889132"/>
          </g>
          <path d="M88.922419943702153,58.651534743351476l-1.943590326024605-6.371266533770722-22.355263465978169,12.743218590821925,5.075858242305003,2.591910783548883,19.222995549697771-8.963862840600086Z" fill="none" stroke="#000" stroke-linecap="round" stroke-linejoin="round" stroke-width="37.604502017889132"/>
          <path d="M64.184874098647015,68.047382714546984l19.709239188628089,17.603565452436669" fill="none" stroke="#000" stroke-linecap="round" stroke-linejoin="round" stroke-width="37.604502017889132"/>
          <path d="M64.184874098647015,68.047382714546984l19.709239188628089,17.603565452436669" fill="none" stroke="#000" stroke-linecap="round" stroke-linejoin="round" stroke-width="37.604502017889132"/>
          <path d="M222.622160623521268,134.357443022032385c0,46.522654986181806-37.714023618751526,84.236894478850445-84.237100465415097,84.236894478850445-46.523070255089806,0-84.237100465407821-37.714239492668639-84.237100465407821-84.236894478850445,0-46.523063663523317,37.714030210318015-84.237100465410549,84.237100465407821-84.237100465410549,46.523076846663571,0,84.237100465415097,37.714036801887232,84.237100465415097,84.237100465410549Z" fill="none" stroke="#000" stroke-linecap="round" stroke-linejoin="round" stroke-width="37.604502017889132"/>
          <path d="M222.622160623521268,134.357443022032385c0,46.522654986181806-37.714023618751526,84.236894478850445-84.237100465415097,84.236894478850445-46.523070255089806,0-84.237100465407821-37.714239492668639-84.237100465407821-84.236894478850445,0-46.523063663523317,37.714030210318015-84.237100465410549,84.237100465407821-84.237100465410549,46.523076846663571,0,84.237100465415097,37.714036801887232,84.237100465415097,84.237100465410549Z" fill="none" stroke="#000" stroke-linecap="round" stroke-linejoin="round" stroke-width="37.604502017889132"/>
          <path d="M222.622160623521268,134.357443022032385c0,46.522654986181806-37.714023618751526,84.236894478850445-84.237100465415097,84.236894478850445-46.523070255089806,0-84.237100465407821-37.714239492668639-84.237100465407821-84.236894478850445,0-46.523063663523317,37.714030210318015-84.237100465410549,84.237100465407821-84.237100465410549,46.523076846663571,0,84.237100465415097,37.714036801887232,84.237100465415097,84.237100465410549Z" fill="none" stroke="#000" stroke-linecap="round" stroke-linejoin="round" stroke-width="37.604502017889132"/>
          <ellipse cx="130.50207842099644" cy="106.111444911643275" rx="34.778944346097234" ry="46.337972617628068" transform="translate(-37.66784804158371 109.162190231559961) rotate(-40.153894458551548)" fill="none" stroke="#000" stroke-linecap="round" stroke-linejoin="round" stroke-width="37.604502017889132"/>
          <path d="M44.968308625469945,40.724494585431785l9.773647100715607-3.455881044738817c0,1.781846381713876-.215992565294073,4.805742295857272-3.185906817041541,6.155616730117799-2.708996841207409,1.231674401274176-5.939828503485842-1.674034663024941-6.587740283674066-2.699735685378982Z" fill="none" stroke="#000" stroke-linecap="round" stroke-linejoin="round" stroke-width="37.604502017889132"/>
          <path d="M31.972677397289772,58.619051486459284l4.210920668224389-9.473272552243543c1.293882343015866,1.225465142350004,3.341077318184034,3.461417963524582,2.279153970865082,6.546140885497152-.968614730495574,2.813769846130526-5.299592606550505,3.162121136742826-6.490074639089471,2.927131666746391Z" fill="none" stroke="#000" stroke-linecap="round" stroke-linejoin="round" stroke-width="37.604502017889132"/>
          <path d="M48.262178767308797,52.33418725206775l9.449625294919315,8.693608471180596" fill="none" stroke="#000" stroke-linecap="round" stroke-linejoin="round" stroke-width="37.604502017889132"/>
          <path d="M63.435570788937184,47.636256674898505l-1.130210364481172,11.10720410347767" fill="none" stroke="#000" stroke-linecap="round" stroke-linejoin="round" stroke-width="37.604502017889132"/>
        </g>
        <g>
          <path d="M36.567823975774445,47.442728180112681c-.397633163611317-.028343750937893-.795129552143408.073258708825961-1.103601844341028.325544458465629-2.053829390360988,1.681628151643054-5.288741234458939,5.85494885677781-5.005704162946131,11.134849147993009.023085325983629.431286424175596.23147451530167.828033021621195.552042338421415,1.11762705738056l.681360702081292.614452970939965c1.057500403861923.953826543229297,2.379719906243736,1.564140008218601,3.791653971921733,1.750760537654969l3.955049104513819.521142706221326c1.802380770110176.237757929390682,1.802380770110176,2.846266286163882,0,3.084024215554564l-3.955049104513819.521142706219507c-1.411934065677997.186620529438187-2.73415356805981.796933994426581-3.791653971921733,1.750760537660426l-.681360702081292.614452970937236c-.320567823119745.289607218900528-.528957012437786.687026156486354-.552042338421415,1.11762705738056-.283037071512808,5.27990029121338,2.951874772585143,9.45390651962407,5.005704162946131,11.134849147997556.308472292197621.252285749633302.705968680729711.353888209398065,1.103601844341028.325544458458353l.852565197214972-.060827007829175c1.304456869164824-.093297081578385,2.557214407038373-.548102227464369,3.617478326616947-1.313924011555173l3.839830109052855-2.772994394204943c1.614862139260367-1.166707887491611,3.595635511575892.874332209202294,2.381583672659872,2.453672377807379l-2.266985932669741,2.949252975622585c-.867981231521298,1.129386418238028-1.372816393595713,2.495146536161883-1.447739473840556,3.917580972824908l-.048243700725834.915806367553159c-.022671704965433.431299607313122.110451642468433.859830755231997.398602124399076,1.181222524600344,3.528731076217809,3.937632528719405,8.766669432903655,4.607388771843034,11.408000512425133,4.346125303884037.396667498605893-.038705698957529.74999542455771-.247447537271,1.011466526969343-.54810222746346l.560474604325464-.645565181274833c.857681903419689-.986995323396513,1.423063931601064-2.194478662821894,1.63276813912853-3.485595842229486l.547271689643821-3.368793222079148c.314210253871352-1.934612607706185,3.096884368596875-1.934612607706185,3.411163833950923,0l.547271689643821,3.368793222079148c.209704207529285,1.291117179407593.77508623571066,2.498600518832973,1.632695631857132,3.485595842229486l.560543815809979.645565181274833c.261405186714001.300654690192459.614733112663998.509396528505931,1.011469822758954.54810222746346,2.641258572248262.261263467958997,7.87920022471917-.408492775164632,11.407997216637341-4.346125303884037.288084566231191-.321391769368347.421273829366328-.749922917287222.398532912913652-1.181222524600344l-.048243700726744-.915806367553159c-.074919784457961-1.422434436663025-.579689030832014-2.78819455458688-1.44766696656734-3.917580972824908l-2.267058439940229-2.949252975622585c-1.214048543131867-1.579340168605086.766790744881291-3.620380265298991,2.381652884141658-2.453672377807379l3.839833404840647,2.772994394204943c1.060260623792601.765821784090804,2.312948950181635,1.220626929976788,3.61768431317887,1.313924011555173l.852217491896226.060827007829175c.397425529157772.028343750939712.795543173160695-.073258708825051,1.103811126688925-.325544458458353,2.053484980829126-1.680942628373487,5.288878009537257-5.854948856784176,5.00549982427674-11.134849147997556-.022813423722255-.430600900894206-.231548670462871-.828019838480031-.552254916554375-1.11762705738056l-.68080371441647-.614452970937236c-1.057498755966662-.953826543233845-2.379721554138087-1.564140008222239-3.791794042785114-1.750760537660426l-2.656257689752238-.349722337167805c-2.002617835246383-.26473063377216-2.002617835246383-3.162134319884899,0-3.426166247238143l2.656257689752238-.350421043589449c1.412072488647027-.186620529436368,2.734295286818451-.796933994425672,3.791794042785114-1.750760537654969l.68080371441647-.614452970939965c.320706246091504-.289594035759364.52944149283212-.686340633204964.552254916554375-1.11762705738056.283378185260517-5.279900291215199-2.952014843447614-9.453220996349955-5.00549982427674-11.134849147993009-.30826795352823-.252285749639668-.706385597531153-.353888209403522-1.103811126688925-.325544458465629l-.852217491896226.060827007830994c-1.304735362997235.093310264721367-2.557423689386269.54810222746255-3.61768431317887,1.313924011555173l-3.839833404840647,2.772994394205853c-1.614862139260367,1.166707887491611-3.595701427273525-.874332209205022-2.381652884141658-2.453672377808289l2.267058439940229-2.949252975623494c.867977935735325-1.128687711813654,1.372747182109379-2.495146536161883,1.44766696656734-3.916895449542608l.048243700726744-.91649189083455c.022740916452676-.431299607313122-.11044834668246-.859830755231087-.398532912913652-1.181222524599434-3.528796991918171-3.937632528720314-8.766738644389079-4.606690065425028-11.407997216637341-4.346125303885856-.396736710094956.038705698958438-.750064636044954.24744753727191-1.011469822758954.548800933882376l-.560543815809979.644866474856826c-.857609396146472.98769402981543-1.422991424327847,2.194478662821894-1.632695631857132,3.485595842229486l-.547271689643821,3.368793222079148c-.314279465354048,1.934612607707095-3.096953580079571,1.934612607707095-3.411163833950923,0l-.547271689643821-3.368793222079148c-.209704207527466-1.291117179407593-.775086235708841-2.497901812414057-1.63276813912853-3.485595842229486l-.560474604325464-.644866474856826c-.261471102411633-.301353396610466-.61479902836345-.510095234923938-1.011466526969343-.548800933882376-2.641331079521478-.260564761539172-7.879269436207323.408492775165541-11.408000512425133,4.346125303885856-.288150481930643.321391769368347-.421273829364509.749922917286312-.398602124399076,1.181222524599434l.048243700725834.91649189083455c.074923080244844,1.421748913380725.579758242319258,2.788207737728953,1.447739473840556,3.916895449542608l2.266985932669741,2.949252975623494c1.214051838916021,1.579340168603267-.766721533399505,3.6203802652999-2.381583672659872,2.453672377808289l-3.839830109052855-2.772994394205853c-1.060263919578574-.765821784092623-2.313021457452123-1.220613746833806-3.617478326616947-1.313924011555173l-.852565197214972-.060827007830994Z" fill="url(#linear-gradient)" fill-rule="evenodd" stroke-width="0"/>
          <path d="M36.567823975774445,47.442728180112681c-.397633163611317-.028343750937893-.795129552143408.073258708825961-1.103601844341028.325544458465629-2.053829390360988,1.681628151643054-5.288741234458939,5.85494885677781-5.005704162946131,11.134849147993009.023085325983629.431286424175596.23147451530167.828033021621195.552042338421415,1.11762705738056l.681360702081292.614452970939965c1.057500403861923.953826543229297,2.379719906243736,1.564140008218601,3.791653971921733,1.750760537654969l3.955049104513819.521142706221326c1.802380770110176.237757929390682,1.802380770110176,2.846266286163882,0,3.084024215554564l-3.955049104513819.521142706219507c-1.411934065677997.186620529438187-2.73415356805981.796933994426581-3.791653971921733,1.750760537660426l-.681360702081292.614452970937236c-.320567823119745.289607218900528-.528957012437786.687026156486354-.552042338421415,1.11762705738056-.283037071512808,5.27990029121338,2.951874772585143,9.45390651962407,5.005704162946131,11.134849147997556.308472292197621.252285749633302.705968680729711.353888209398065,1.103601844341028.325544458458353l.852565197214972-.060827007829175c1.304456869164824-.093297081578385,2.557214407038373-.548102227464369,3.617478326616947-1.313924011555173l3.839830109052855-2.772994394204943c1.614862139260367-1.166707887491611,3.595635511575892.874332209202294,2.381583672659872,2.453672377807379l-2.266985932669741,2.949252975622585c-.867981231521298,1.129386418238028-1.372816393595713,2.495146536161883-1.447739473840556,3.917580972824908l-.048243700725834.915806367553159c-.022671704965433.431299607313122.110451642468433.859830755231997.398602124399076,1.181222524600344,3.528731076217809,3.937632528719405,8.766669432903655,4.607388771843034,11.408000512425133,4.346125303884037.396667498605893-.038705698957529.74999542455771-.247447537271,1.011466526969343-.54810222746346l.560474604325464-.645565181274833c.857681903419689-.986995323396513,1.423063931601064-2.194478662821894,1.63276813912853-3.485595842229486l.547271689643821-3.368793222079148c.314210253871352-1.934612607706185,3.096884368596875-1.934612607706185,3.411163833950923,0l.547271689643821,3.368793222079148c.209704207529285,1.291117179407593.77508623571066,2.498600518832973,1.632695631857132,3.485595842229486l.560543815809979.645565181274833c.261405186714001.300654690192459.614733112663998.509396528505931,1.011469822758954.54810222746346,2.641258572248262.261263467958997,7.87920022471917-.408492775164632,11.407997216637341-4.346125303884037.288084566231191-.321391769368347.421273829366328-.749922917287222.398532912913652-1.181222524600344l-.048243700726744-.915806367553159c-.074919784457961-1.422434436663025-.579689030832014-2.78819455458688-1.44766696656734-3.917580972824908l-2.267058439940229-2.949252975622585c-1.214048543131867-1.579340168605086.766790744881291-3.620380265298991,2.381652884141658-2.453672377807379l3.839833404840647,2.772994394204943c1.060260623792601.765821784090804,2.312948950181635,1.220626929976788,3.61768431317887,1.313924011555173l.852217491896226.060827007829175c.397425529157772.028343750939712.795543173160695-.073258708825051,1.103811126688925-.325544458458353,2.053484980829126-1.680942628373487,5.288878009537257-5.854948856784176,5.00549982427674-11.134849147997556-.022813423722255-.430600900894206-.231548670462871-.828019838480031-.552254916554375-1.11762705738056l-.68080371441647-.614452970937236c-1.057498755966662-.953826543233845-2.379721554138087-1.564140008222239-3.791794042785114-1.750760537660426l-2.656257689752238-.349722337167805c-2.002617835246383-.26473063377216-2.002617835246383-3.162134319884899,0-3.426166247238143l2.656257689752238-.350421043589449c1.412072488647027-.186620529436368,2.734295286818451-.796933994425672,3.791794042785114-1.750760537654969l.68080371441647-.614452970939965c.320706246091504-.289594035759364.52944149283212-.686340633204964.552254916554375-1.11762705738056.283378185260517-5.279900291215199-2.952014843447614-9.453220996349955-5.00549982427674-11.134849147993009-.30826795352823-.252285749639668-.706385597531153-.353888209403522-1.103811126688925-.325544458465629l-.852217491896226.060827007830994c-1.304735362997235.093310264721367-2.557423689386269.54810222746255-3.61768431317887,1.313924011555173l-3.839833404840647,2.772994394205853c-1.614862139260367,1.166707887491611-3.595701427273525-.874332209205022-2.381652884141658-2.453672377808289l2.267058439940229-2.949252975623494c.867977935735325-1.128687711813654,1.372747182109379-2.495146536161883,1.44766696656734-3.916895449542608l.048243700726744-.91649189083455c.022740916452676-.431299607313122-.11044834668246-.859830755231087-.398532912913652-1.181222524599434-3.528796991918171-3.937632528720314-8.766738644389079-4.606690065425028-11.407997216637341-4.346125303885856-.396736710094956.038705698958438-.750064636044954.24744753727191-1.011469822758954.548800933882376l-.560543815809979.644866474856826c-.857609396146472.98769402981543-1.422991424327847,2.194478662821894-1.632695631857132,3.485595842229486l-.547271689643821,3.368793222079148c-.314279465354048,1.934612607707095-3.096953580079571,1.934612607707095-3.411163833950923,0l-.547271689643821-3.368793222079148c-.209704207527466-1.291117179407593-.775086235708841-2.497901812414057-1.63276813912853-3.485595842229486l-.560474604325464-.644866474856826c-.261471102411633-.301353396610466-.61479902836345-.510095234923938-1.011466526969343-.548800933882376-2.641331079521478-.260564761539172-7.879269436207323.408492775165541-11.408000512425133,4.346125303885856-.288150481930643.321391769368347-.421273829364509.749922917286312-.398602124399076,1.181222524599434l.048243700725834.91649189083455c.074923080244844,1.421748913380725.579758242319258,2.788207737728953,1.447739473840556,3.916895449542608l2.266985932669741,2.949252975623494c1.214051838916021,1.579340168603267-.766721533399505,3.6203802652999-2.381583672659872,2.453672377808289l-3.839830109052855-2.772994394205853c-1.060263919578574-.765821784092623-2.313021457452123-1.220613746833806-3.617478326616947-1.313924011555173l-.852565197214972-.060827007830994Z" fill="url(#linear-gradient-2)" fill-rule="evenodd" stroke-width="0"/>
          <path d="M61.491706912758673,66.42726709400813l-14.687494440124283,22.679562117708883,8.639702611839311,2.375575456616389,1.619977197569824-3.347370619627327,4.427814630715147-21.707766954697945Z" fill="#d23e27" stroke-width="0"/>
          <path d="M66.243543349270112,63.079896474376255l13.823524178937078,12.851043492648387,5.723631599523287-6.587601860703217-19.547155778460365-6.26344163194517Z" fill="#d23e27" stroke-width="0"/>
          <polygon points="59.007759454005281 64.159516539218203 34.276574473986329 69.667498335084929 36.004514996355283 74.52715967342283 59.007759454005281 64.159516539218203" fill="#febb12" opacity=".5" stroke-width="0"/>
          <polygon points="73.479676597742582 39.536364095482895 63.000958917706157 62.692839484811884 62.356023231366635 49.904007229687522 65.520711784620289 37.587250033808232 73.479676597742582 39.536364095482895" fill="#febb12" opacity=".5" stroke-width="0"/>
          <path d="M65.594804327049133,61.675430657495781l-32.39888314649761,13.283714146517923,5.183821567103223,4.751836436513258,27.215061579394387-18.035550583031181Z" fill="url(#linear-gradient-3)" stroke-width="0"/>
          <polygon points="64.731526180712535 67.075587551530589 36.652492692242959 54.872178993135094 33.736558455006161 60.487985690827372 64.731526180712535 67.075587551530589" fill="url(#linear-gradient-4)" opacity=".600000023841858" stroke-width="0"/>
          <polygon points="63.759249833090507 67.723222485782571 76.610771214564011 41.480639944785253 71.642942212758498 39.104378964892021 63.759249833090507 67.723222485782571" fill="url(#linear-gradient-5)" opacity=".600000023841858" stroke-width="0"/>
          <polygon points="62.081280002787025 70.342079607432424 56.958628205153218 40.157725031766859 53.607806898638046 44.720185662586118 62.081280002787025 70.342079607432424" fill="url(#linear-gradient-6)" opacity=".300000011920929" stroke-width="0"/>
          <path d="M88.922419943702153,58.651534743351476l-1.943590326024605-6.371266533770722-22.355263465978169,12.743218590821925,5.075858242305003,2.591910783548883,19.222995549697771-8.963862840600086Z" fill="url(#linear-gradient-7)" stroke-width="0"/>
          <path d="M64.184874098647015,68.047382714546984l19.709239188628089,17.603565452436669" fill="none" stroke="url(#radial-gradient)" stroke-linecap="round" stroke-width="12.441171296774813"/>
          <path d="M64.184874098647015,68.047382714546984l19.709239188628089,17.603565452436669" fill="none" stroke="url(#linear-gradient-8)" stroke-linecap="round" stroke-width="12.441171296774813"/>
          <path d="M222.622160623521268,134.357443022032385c0,46.522654986181806-37.714023618751526,84.236894478850445-84.237100465415097,84.236894478850445-46.523070255089806,0-84.237100465407821-37.714239492668639-84.237100465407821-84.236894478850445,0-46.523063663523317,37.714030210318015-84.237100465410549,84.237100465407821-84.237100465410549,46.523076846663571,0,84.237100465415097,37.714036801887232,84.237100465415097,84.237100465410549Z" fill="url(#radial-gradient-2)" stroke-width="0"/>
          <path d="M222.622160623521268,134.357443022032385c0,46.522654986181806-37.714023618751526,84.236894478850445-84.237100465415097,84.236894478850445-46.523070255089806,0-84.237100465407821-37.714239492668639-84.237100465407821-84.236894478850445,0-46.523063663523317,37.714030210318015-84.237100465410549,84.237100465407821-84.237100465410549,46.523076846663571,0,84.237100465415097,37.714036801887232,84.237100465415097,84.237100465410549Z" fill="url(#radial-gradient-3)" stroke-width="0"/>
          <path d="M222.622160623521268,134.357443022032385c0,46.522654986181806-37.714023618751526,84.236894478850445-84.237100465415097,84.236894478850445-46.523070255089806,0-84.237100465407821-37.714239492668639-84.237100465407821-84.236894478850445,0-46.523063663523317,37.714030210318015-84.237100465410549,84.237100465407821-84.237100465410549,46.523076846663571,0,84.237100465415097,37.714036801887232,84.237100465415097,84.237100465410549Z" fill="url(#radial-gradient-4)" stroke-width="0"/>
          <ellipse cx="130.50207842099644" cy="106.111444911643275" rx="34.778944346097234" ry="46.337972617628068" transform="translate(-37.66784804158371 109.162190231559961) rotate(-40.153894458551548)" fill="url(#radial-gradient-5)" stroke-width="0"/>
          <path d="M44.968308625469945,40.724494585431785l9.773647100715607-3.455881044738817c0,1.781846381713876-.215992565294073,4.805742295857272-3.185906817041541,6.155616730117799-2.708996841207409,1.231674401274176-5.939828503485842-1.674034663024941-6.587740283674066-2.699735685378982Z" fill="#ffd35d" stroke-width="0"/>
          <path d="M31.972677397289772,58.619051486459284l4.210920668224389-9.473272552243543c1.293882343015866,1.225465142350004,3.341077318184034,3.461417963524582,2.279153970865082,6.546140885497152-.968614730495574,2.813769846130526-5.299592606550505,3.162121136742826-6.490074639089471,2.927131666746391Z" fill="url(#linear-gradient-9)" stroke-width="0"/>
          <path d="M48.262178767308797,52.33418725206775l9.449625294919315,8.693608471180596" fill="none" stroke="url(#linear-gradient-10)" stroke-linecap="round" stroke-width=".691176211763401"/>
          <path d="M63.435570788937184,47.636256674898505l-1.130210364481172,11.10720410347767" fill="none" stroke="url(#linear-gradient-11)" stroke-linecap="round" stroke-width=".691176211763401"/>
        </g>
      </g>
      <g id="AC">
        <path d="M191.874262383642417,141.125872672872902c5.01123046875-2.08740234375,9.99072265625-3.314453125,14.93896484375-3.67578125,4.9443359375-.361328125,9.6162109375.1455078125,14.0166015625,1.51953125,4.3974609375,1.375,8.3740234375,3.6015625,11.9306640625,6.6796875,3.5537109375,3.078125,6.4296875,6.92138671875,8.623046875,11.5263671875,2.19287109375,4.60791015625,3.5771484375,10.05322265625,4.15185546875,16.33642578125.5751953125,6.28662109375.08447265625,13.29345703125-1.47119140625,21.02294921875l-5.2138671875,33.18212890625c-.40576171875,1.51318359375-1.0244140625,2.8232421875-1.8623046875,3.92724609375-.69580078125.8837890625-1.7099609375,1.69921875-3.0478515625,2.45166015625-1.33837890625.75244140625-3.01416015625,1.01904296875-5.0244140625.80126953125-2.14111328125-.1142578125-4.337890625-.291015625-6.58349609375-.53466796875-2.248046875-.24365234375-4.255859375-.76123046875-6.0244140625-1.55029296875-1.771484375-.78955078125-3.22509765625-1.994140625-4.36572265625-3.615234375-1.142578125-1.61865234375-1.67626953125-3.861328125-1.603515625-6.72607421875.6025390625-5.55810546875,1.4619140625-10.9990234375,2.5771484375-16.32470703125,1.1162109375-5.32275390625,2.16015625-10.80615234375,3.13037109375-16.44482421875,1.24462890625-5.96826171875,1.41845703125-10.88623046875.52294921875-14.7529296875-.89892578125-3.8671875-2.3515625-6.7451171875-4.3583984375-8.640625-2.01123046875-1.89208984375-4.35693359375-2.86474609375-7.04443359375-2.91748046875-2.68701171875-.0498046875-5.3232421875.7998046875-7.9052734375,2.55322265625-2.5859375,1.755859375-4.84228515625,4.3525390625-6.76904296875,7.79296875-1.93017578125,3.44189453125-3.046875,7.6572265625-3.3466796875,12.65087890625-.8896484375,11.51318359375-1.5693359375,22.748046875-2.03955078125,33.70654296875-.24365234375,2.24853515625-1.19921875,4.14990234375-2.8623046875,5.70263671875-1.66650390625,1.5556640625-3.69970703125,2.3818359375-6.103515625,2.48046875-2.16650390625.12353515625-4.36181640625.2138671875-6.58154296875.2734375-2.22216796875.05615234375-4.255859375-.22314453125-6.10205078125-.84130859375-1.84814453125-.62109375-3.44384765625-1.63037109375-4.78662109375-3.03271484375-1.34619140625-1.40234375-2.10693359375-3.4873046875-2.283203125-6.2607421875.7236328125-18.8291015625,2.1884765625-37.8466796875,4.392578125-57.056640625,2.2001953125-19.20751953125,5.07177734375-38.4931640625,8.607421875-57.85595703125.2578125-1.28759765625.60009765625-2.5068359375,1.02490234375-3.65869140625.421875-1.1494140625,1.01123046875-2.16162109375,1.765625-3.0400390625.75146484375-.87451171875,1.71875-1.51904296875,2.90185546875-1.9287109375,1.1806640625-.41064453125,2.65966796875-.51953125,4.43359375-.3271484375,1.52294921875.2861328125,3.37255859375.607421875,5.55029296875.9609375,2.17431640625.35693359375,4.2197265625.81689453125,6.13330078125,1.38330078125,1.9130859375.56591796875,3.5068359375,1.30859375,4.78466796875,2.2236328125,1.27490234375.91845703125,1.837890625,2.08447265625,1.68408203125,3.50439453125-2.2265625,12.8037109375-4.1572265625,25.63916015625-5.79052734375,38.5048828125Z" fill="none" stroke="#000" stroke-linecap="round" stroke-linejoin="round" stroke-width="47.110599517822266"/>
        <path d="M191.874262383642417,141.125872672872902c5.01123046875-2.08740234375,9.99072265625-3.314453125,14.93896484375-3.67578125,4.9443359375-.361328125,9.6162109375.1455078125,14.0166015625,1.51953125,4.3974609375,1.375,8.3740234375,3.6015625,11.9306640625,6.6796875,3.5537109375,3.078125,6.4296875,6.92138671875,8.623046875,11.5263671875,2.19287109375,4.60791015625,3.5771484375,10.05322265625,4.15185546875,16.33642578125.5751953125,6.28662109375.08447265625,13.29345703125-1.47119140625,21.02294921875l-5.2138671875,33.18212890625c-.40576171875,1.51318359375-1.0244140625,2.8232421875-1.8623046875,3.92724609375-.69580078125.8837890625-1.7099609375,1.69921875-3.0478515625,2.45166015625-1.33837890625.75244140625-3.01416015625,1.01904296875-5.0244140625.80126953125-2.14111328125-.1142578125-4.337890625-.291015625-6.58349609375-.53466796875-2.248046875-.24365234375-4.255859375-.76123046875-6.0244140625-1.55029296875-1.771484375-.78955078125-3.22509765625-1.994140625-4.36572265625-3.615234375-1.142578125-1.61865234375-1.67626953125-3.861328125-1.603515625-6.72607421875.6025390625-5.55810546875,1.4619140625-10.9990234375,2.5771484375-16.32470703125,1.1162109375-5.32275390625,2.16015625-10.80615234375,3.13037109375-16.44482421875,1.24462890625-5.96826171875,1.41845703125-10.88623046875.52294921875-14.7529296875-.89892578125-3.8671875-2.3515625-6.7451171875-4.3583984375-8.640625-2.01123046875-1.89208984375-4.35693359375-2.86474609375-7.04443359375-2.91748046875-2.68701171875-.0498046875-5.3232421875.7998046875-7.9052734375,2.55322265625-2.5859375,1.755859375-4.84228515625,4.3525390625-6.76904296875,7.79296875-1.93017578125,3.44189453125-3.046875,7.6572265625-3.3466796875,12.65087890625-.8896484375,11.51318359375-1.5693359375,22.748046875-2.03955078125,33.70654296875-.24365234375,2.24853515625-1.19921875,4.14990234375-2.8623046875,5.70263671875-1.66650390625,1.5556640625-3.69970703125,2.3818359375-6.103515625,2.48046875-2.16650390625.12353515625-4.36181640625.2138671875-6.58154296875.2734375-2.22216796875.05615234375-4.255859375-.22314453125-6.10205078125-.84130859375-1.84814453125-.62109375-3.44384765625-1.63037109375-4.78662109375-3.03271484375-1.34619140625-1.40234375-2.10693359375-3.4873046875-2.283203125-6.2607421875.7236328125-18.8291015625,2.1884765625-37.8466796875,4.392578125-57.056640625,2.2001953125-19.20751953125,5.07177734375-38.4931640625,8.607421875-57.85595703125.2578125-1.28759765625.60009765625-2.5068359375,1.02490234375-3.65869140625.421875-1.1494140625,1.01123046875-2.16162109375,1.765625-3.0400390625.75146484375-.87451171875,1.71875-1.51904296875,2.90185546875-1.9287109375,1.1806640625-.41064453125,2.65966796875-.51953125,4.43359375-.3271484375,1.52294921875.2861328125,3.37255859375.607421875,5.55029296875.9609375,2.17431640625.35693359375,4.2197265625.81689453125,6.13330078125,1.38330078125,1.9130859375.56591796875,3.5068359375,1.30859375,4.78466796875,2.2236328125,1.27490234375.91845703125,1.837890625,2.08447265625,1.68408203125,3.50439453125-2.2265625,12.8037109375-4.1572265625,25.63916015625-5.79052734375,38.5048828125Z" fill="#fff" stroke-width="0"/>
      </g>
    </g>
  </a>
</svg>