<?xml version="1.0" encoding="UTF-8"?>
<svg id="Pattern" xmlns="http://www.w3.org/2000/svg" xmlns:xlink="http://www.w3.org/1999/xlink" viewBox="0 0 280 280">
  <defs>
    <linearGradient id="linear-gradient" x1="2846.596717587245621" y1="-3110.004805509684047" x2="2796.967954452290996" y2="-3138.424696513346134" gradientTransform="translate(-3061.293297380654622 2886.191742672373948) rotate(-90.000000000000014) scale(1 -1)" gradientUnits="userSpaceOnUse">
      <stop offset="0" stop-color="#ffc810"/>
      <stop offset=".755599975585938" stop-color="#ef4e26"/>
    </linearGradient>
    <linearGradient id="linear-gradient-2" x1="2801.205189733670522" y1="-3142.494735638223574" x2="2819.868997190951632" y2="-3125.951542959704057" gradientTransform="translate(-3061.293297380654622 2886.191742672373948) rotate(-90.000000000000014) scale(1 -1)" gradientUnits="userSpaceOnUse">
      <stop offset="0" stop-color="#d23e27"/>
      <stop offset="1" stop-color="#d23e27" stop-opacity="0"/>
    </linearGradient>
    <linearGradient id="linear-gradient-3" x1="2801.794075640946176" y1="-3112.422430306794922" x2="2820.966902367345028" y2="-3113.07803939833093" xlink:href="#linear-gradient-2"/>
    <linearGradient id="linear-gradient-4" x1="2817.119819912194544" y1="-3100.741836900988346" x2="2827.077478798673837" y2="-3117.139383225314759" xlink:href="#linear-gradient-2"/>
    <linearGradient id="linear-gradient-5" x1="2843.974297781119276" y1="-3127.118043132712955" x2="2826.859925450458377" y2="-3135.785922622084399" xlink:href="#linear-gradient-2"/>
    <linearGradient id="linear-gradient-6" x1="2838.014616656368162" y1="-3108.172721882495352" x2="2829.723129644870824" y2="-3125.472851738566987" xlink:href="#linear-gradient-2"/>
    <linearGradient id="linear-gradient-7" x1="2832.80410017918075" y1="-3154.510414002368634" x2="2822.51796549274286" y2="-3136.271120851422893" xlink:href="#linear-gradient-2"/>
    <radialGradient id="radial-gradient" cx="-3633.021240402424155" cy="3331.236274696194414" fx="-3633.021240402424155" fy="3331.236274696194414" r="6.786839083344113" gradientTransform="translate(3363.730832831844054 13894.501019841623929) rotate(46.679000554437977) scale(3.393360063220485 -2.127890109186671)" gradientUnits="userSpaceOnUse">
      <stop offset="0" stop-color="#e1dfe1"/>
      <stop offset=".394388008117676" stop-color="#c2bec5"/>
    </radialGradient>
    <linearGradient id="linear-gradient-8" x1="2805.10802128990963" y1="-3133.418276882941427" x2="2806.804731084160267" y2="-3134.796885933499198" gradientTransform="translate(-3061.293297380654622 2886.191742672373948) rotate(-90.000000000000014) scale(1 -1)" gradientUnits="userSpaceOnUse">
      <stop offset="0" stop-color="#a3a1a8"/>
      <stop offset="1" stop-color="#b8b6bd" stop-opacity="0"/>
    </linearGradient>
    <radialGradient id="radial-gradient-2" cx="-3345.247645223626932" cy="183.356691432228217" fx="-3345.247645223626932" fy="183.356691432228217" r="6.786839091211087" gradientTransform="translate(-64159.085790835619264 29087.952792105341359) rotate(150.613998431500903) scale(21.016598951055695 -34.567501017196157)" gradientUnits="userSpaceOnUse">
      <stop offset=".00558659017086" stop-color="#5c266f"/>
      <stop offset="1" stop-color="#2e265b"/>
    </radialGradient>
    <radialGradient id="radial-gradient-3" cx="-3345.922528197176689" cy="201.923588366953481" fx="-3345.922528197176689" fy="201.923588366953481" r="6.786839091210245" gradientTransform="translate(-60848.420087204118317 46929.438565719479811) rotate(138.535003813569972) scale(22.936198784939201 -26.32180011951473)" gradientUnits="userSpaceOnUse">
      <stop offset=".71875" stop-color="#29233a" stop-opacity="0"/>
      <stop offset="1" stop-color="#29233a"/>
    </radialGradient>
    <radialGradient id="radial-gradient-4" cx="-2786.870496512277896" cy="524.333116484508537" fx="-2786.870496512277896" fy="524.333116484508537" r="6.786839091213527" gradientTransform="translate(53579.026772601988341 -12569.516502747042978) rotate(-22.450103256572724) scale(19.476000259430069 -16.532499694880091)" gradientUnits="userSpaceOnUse">
      <stop offset=".809844970703125" stop-color="#672b80" stop-opacity="0"/>
      <stop offset="1" stop-color="#672b80"/>
    </radialGradient>
    <radialGradient id="radial-gradient-5" cx="-3236.238249665948388" cy="1183.311804058682355" fx="-3236.238249665948388" fy="1183.311804058682355" r="6.786839091216375" gradientTransform="translate(-9874.860030808860756 46364.825349670463766) rotate(92.148493896127746) scale(14.411199570559587 -6.984130141550686)" gradientUnits="userSpaceOnUse">
      <stop offset="0" stop-color="#67568f"/>
      <stop offset=".727772979736328" stop-color="#67568f" stop-opacity="0"/>
    </radialGradient>
    <linearGradient id="linear-gradient-9" x1="2836.519946563785197" y1="-3101.453773995482152" x2="2825.966409695051425" y2="-3098.060355385030562" gradientTransform="translate(-3061.293297380654622 2886.191742672373948) rotate(-90.000000000000014) scale(1 -1)" gradientUnits="userSpaceOnUse">
      <stop offset="0" stop-color="#ffd35d"/>
      <stop offset="1" stop-color="#ffd35d" stop-opacity="0"/>
    </linearGradient>
    <linearGradient id="linear-gradient-10" x1="2833.123524876251395" y1="-3111.388230970499535" x2="2828.29876542204056" y2="-3118.281082598231478" gradientTransform="translate(-3061.293297380654622 2886.191742672373948) rotate(-90.000000000000014) scale(1 -1)" gradientUnits="userSpaceOnUse">
      <stop offset="0" stop-color="#febb12"/>
      <stop offset="1" stop-color="#febb12" stop-opacity="0"/>
    </linearGradient>
    <linearGradient id="linear-gradient-11" x1="2840.04895203412616" y1="-3125.682074318389823" x2="2831.659059252563111" y2="-3126.31006260957156" xlink:href="#linear-gradient-10"/>
  </defs>
  <a xlink:href="https://www.notion.so/dmmnotes/delusional-revenge-7687c19827ba4e5196be44ae3799b457?pvs=4">
    <g>
      <g>
        <g>
          <path d="M39.09150840330858,47.580038701140438c-.390446352727849-.027831466762109-.780758402447645.071934632934244-1.083655374904083.31966057685986-2.016708534343707,1.651234450596348-5.193152670579366,5.749126671877093-4.915231203325675,10.933598190176781.022668082435302.423491365185328.227290851265934.8130671755207.542064740351634,1.097427096628053l.669045807457223.60334736481218c1.038387170592614.93658710847285,2.336708913989241,1.535869784650458,3.72312372212582,1.719117339761397l3.883565655576604.511723587254892c1.769804589551313.233460699103489,1.769804589551313,2.794822947446846,0,3.028283646548516l-3.883565655576604.511723587255801c-1.386414808136578.183247555110938-2.684736551533206.782530231288547-3.72312372212582,1.719117339765035l-.669045807457223.603347364809451c-.3147738890857.284372865976366-.519396657916332.67460886459412-.542064740351634,1.097427096627143-.277921467253691,5.184471518299688,2.898522668981968,9.28303687272728,4.915231203325675,10.933598190182238.302896972456438.247725943920159.693209022176234.347492043615603,1.083655374904083.319660576853494l.837155957245159-.059727622159699c1.280880151523888-.091610832687365,2.510995384049238-.538195842851565,3.552096122652074-1.290176185042583l3.770429125077499-2.722875369650865c1.585675165288194-1.145620841161872,3.530648094050775.858529552857362,2.338538994741612,2.409324770612329l-2.226012491157235,2.895948258306817c-.8522933625718,1.108973919120217-1.348004147786924,2.450049326166663-1.421573070335398,3.846774721871952l-.047371745403325.89925410840624c-.022261937193434.423504310051612.10845534251348.844290197766895.391397800545747,1.159873141119533,3.464952887618892,3.866463866494996,8.608220890244411,4.524114953666867,11.201812624345621,4.267573554456249.389498141126751-.038006133218005.736440027843855-.242975177275184.993185308729153-.538195842851565l.550344601713732-.633897253911528c.842180184243261-.969156397017287,1.39734351316838-2.154815715714903,1.603257532606222-3.422597278666217l.53738031615103-3.307905745868084c.30853122636654-1.899646472545101,3.040911365535976-1.899646472545101,3.349510552461652,0l.537380316149211,3.307905745868084c.20591401943966,1.267781562951313.761077348364779,2.45344088164893,1.603186335829378,3.422597278666217l.550412562271958.633897253911528c.256680556545689.29522066557638.603622443260974.50018970963356.993188544949589.538195842851565,2.593520537324366.256541399210619,7.736791776165774-.401109687961252,11.201809388127003-4.267573554456249.282877733691748-.315582943352638.41365973774009-.736368831067921.39132983998752-1.159873141119533l-.047371745403325-.89925410840624c-.073565686331676-1.396725395705289-.569211747204463-2.737800802751735-1.421501873558555-3.846774721871952l-2.226083687934079-2.895948258306817c-1.192105863090546-1.550795217754967.752931790009825-3.554945611774201,2.338606955298019-2.409324770612329l3.770432361296116,2.722875369650865c1.041097502386037.751980342191018,2.271144774353161,1.198565352355217,3.552298386219263,1.290176185042583l.836814536343809.059727622159699c.39024247105317.027831466762109.781164547689514-.071934632933335,1.083860874687161-.319660576853494,2.016370349660065-1.650561317454958,5.193286973588329-5.74912667188255,4.915030557869613-10.933598190182238-.022401094529414-.422818232033023-.227363666150268-.813054230650778-.542273476355149-1.097427096627143l-.668498886771886-.603347364809451c-1.038385552483305-.936587108476488-2.33671053209855-1.535869784654096-3.723261261349762-1.719117339765035l-2.608248561191431-.343401465248462c-1.966422575469551-.259945899564627-1.966422575469551-3.104981990996748,0-3.364241812543696l2.608248561191431-.344087543267051c1.386550729251212-.183247555110938,2.684875708866457-.782530231288547,3.723261261349762-1.719117339761397l.668498886771886-.60334736481218c.314909810204881-.284359921107352.519872381825735-.673935731442725.542273476355149-1.097427096628053.278256415718715-5.184471518299688-2.898660208209549-9.282363739580433-4.915030557869613-10.933598190176781-.302696326997648-.247725943925616-.693618403633991-.347492043621969-1.083860874687161-.31966057685986l-.836814536343809.059727622160608c-1.281153611866102.091623777558198-2.511200883833226.538195842851565-3.552298386219263,1.290176185041673l-3.770432361296116,2.722875369652684c-1.585675165288194,1.145620841161872-3.530712818388565-.858529552858272-2.338606955298019-2.409324770613239l2.226083687934079-2.895948258307726c.852290126354092-1.108287841096171,1.347936187226878-2.450049326165754,1.421501873558555-3.846101588717829l.047371745403325-.899927241559453c.02232989775257-.423504310051612-.108452106295772-.844290197766895-.39132983998752-1.159873141118624-3.46501761196123-3.866463866495906-8.608288850802637-4.523428875649188-11.201809388127003-4.267573554457158-.389566101688615.038006133217095-.736507988403901.242975177276094-.993188544949589.538881920870153l-.550412562271958.633211175892939c-.842108987464599.969842475035875-1.397272316389717,2.154815715714903-1.603186335829378,3.422597278667126l-.537380316149211,3.307905745867174c-.308599186925676,1.89964647254601-3.040979326095112,1.89964647254601-3.349510552461652,0l-.53738031615103-3.307905745867174c-.205914019437841-1.267781562952223-.76107734836296-2.452754803631251-1.603257532606222-3.422597278667126l-.550344601713732-.633211175892939c-.256745280885298-.29590674359406-.603687167602402-.500875787653058-.993185308729153-.538881920870153-2.59359173410121-.25585532119203-7.736859736726728.401109687961252-11.201812624345621,4.267573554457158-.282942458032267.315582943351728-.413659737739181.736368831067011-.391397800545747,1.159873141118624l.047371745403325.899927241559453c.073568922548475,1.396052262552075.569279707763599,2.737813747621658,1.421573070335398,3.846101588717829l2.226012491157235,2.895948258307726c1.192109099309164,1.550795217754967-.752863829453418,3.554945611775111-2.338538994741612,2.409324770613239l-3.770429125077499-2.722875369652684c-1.041100738602836-.751980342190109-2.271215971128186-1.198552407483476-3.552096122652074-1.290176185041673l-.837155957245159-.059727622160608Z" fill="none" stroke="#000" stroke-linecap="round" stroke-linejoin="round" stroke-width="36.924839615821838"/>
          <path d="M39.09150840330858,47.580038701140438c-.390446352727849-.027831466762109-.780758402447645.071934632934244-1.083655374904083.31966057685986-2.016708534343707,1.651234450596348-5.193152670579366,5.749126671877093-4.915231203325675,10.933598190176781.022668082435302.423491365185328.227290851265934.8130671755207.542064740351634,1.097427096628053l.669045807457223.60334736481218c1.038387170592614.93658710847285,2.336708913989241,1.535869784650458,3.72312372212582,1.719117339761397l3.883565655576604.511723587254892c1.769804589551313.233460699103489,1.769804589551313,2.794822947446846,0,3.028283646548516l-3.883565655576604.511723587255801c-1.386414808136578.183247555110938-2.684736551533206.782530231288547-3.72312372212582,1.719117339765035l-.669045807457223.603347364809451c-.3147738890857.284372865976366-.519396657916332.67460886459412-.542064740351634,1.097427096627143-.277921467253691,5.184471518299688,2.898522668981968,9.28303687272728,4.915231203325675,10.933598190182238.302896972456438.247725943920159.693209022176234.347492043615603,1.083655374904083.319660576853494l.837155957245159-.059727622159699c1.280880151523888-.091610832687365,2.510995384049238-.538195842851565,3.552096122652074-1.290176185042583l3.770429125077499-2.722875369650865c1.585675165288194-1.145620841161872,3.530648094050775.858529552857362,2.338538994741612,2.409324770612329l-2.226012491157235,2.895948258306817c-.8522933625718,1.108973919120217-1.348004147786924,2.450049326166663-1.421573070335398,3.846774721871952l-.047371745403325.89925410840624c-.022261937193434.423504310051612.10845534251348.844290197766895.391397800545747,1.159873141119533,3.464952887618892,3.866463866494996,8.608220890244411,4.524114953666867,11.201812624345621,4.267573554456249.389498141126751-.038006133218005.736440027843855-.242975177275184.993185308729153-.538195842851565l.550344601713732-.633897253911528c.842180184243261-.969156397017287,1.39734351316838-2.154815715714903,1.603257532606222-3.422597278666217l.53738031615103-3.307905745868084c.30853122636654-1.899646472545101,3.040911365535976-1.899646472545101,3.349510552461652,0l.537380316149211,3.307905745868084c.20591401943966,1.267781562951313.761077348364779,2.45344088164893,1.603186335829378,3.422597278666217l.550412562271958.633897253911528c.256680556545689.29522066557638.603622443260974.50018970963356.993188544949589.538195842851565,2.593520537324366.256541399210619,7.736791776165774-.401109687961252,11.201809388127003-4.267573554456249.282877733691748-.315582943352638.41365973774009-.736368831067921.39132983998752-1.159873141119533l-.047371745403325-.89925410840624c-.073565686331676-1.396725395705289-.569211747204463-2.737800802751735-1.421501873558555-3.846774721871952l-2.226083687934079-2.895948258306817c-1.192105863090546-1.550795217754967.752931790009825-3.554945611774201,2.338606955298019-2.409324770612329l3.770432361296116,2.722875369650865c1.041097502386037.751980342191018,2.271144774353161,1.198565352355217,3.552298386219263,1.290176185042583l.836814536343809.059727622159699c.39024247105317.027831466762109.781164547689514-.071934632933335,1.083860874687161-.319660576853494,2.016370349660065-1.650561317454958,5.193286973588329-5.74912667188255,4.915030557869613-10.933598190182238-.022401094529414-.422818232033023-.227363666150268-.813054230650778-.542273476355149-1.097427096627143l-.668498886771886-.603347364809451c-1.038385552483305-.936587108476488-2.33671053209855-1.535869784654096-3.723261261349762-1.719117339765035l-2.608248561191431-.343401465248462c-1.966422575469551-.259945899564627-1.966422575469551-3.104981990996748,0-3.364241812543696l2.608248561191431-.344087543267051c1.386550729251212-.183247555110938,2.684875708866457-.782530231288547,3.723261261349762-1.719117339761397l.668498886771886-.60334736481218c.314909810204881-.284359921107352.519872381825735-.673935731442725.542273476355149-1.097427096628053.278256415718715-5.184471518299688-2.898660208209549-9.282363739580433-4.915030557869613-10.933598190176781-.302696326997648-.247725943925616-.693618403633991-.347492043621969-1.083860874687161-.31966057685986l-.836814536343809.059727622160608c-1.281153611866102.091623777558198-2.511200883833226.538195842851565-3.552298386219263,1.290176185041673l-3.770432361296116,2.722875369652684c-1.585675165288194,1.145620841161872-3.530712818388565-.858529552858272-2.338606955298019-2.409324770613239l2.226083687934079-2.895948258307726c.852290126354092-1.108287841096171,1.347936187226878-2.450049326165754,1.421501873558555-3.846101588717829l.047371745403325-.899927241559453c.02232989775257-.423504310051612-.108452106295772-.844290197766895-.39132983998752-1.159873141118624-3.46501761196123-3.866463866495906-8.608288850802637-4.523428875649188-11.201809388127003-4.267573554457158-.389566101688615.038006133217095-.736507988403901.242975177276094-.993188544949589.538881920870153l-.550412562271958.633211175892939c-.842108987464599.969842475035875-1.397272316389717,2.154815715714903-1.603186335829378,3.422597278667126l-.537380316149211,3.307905745867174c-.308599186925676,1.89964647254601-3.040979326095112,1.89964647254601-3.349510552461652,0l-.53738031615103-3.307905745867174c-.205914019437841-1.267781562952223-.76107734836296-2.452754803631251-1.603257532606222-3.422597278667126l-.550344601713732-.633211175892939c-.256745280885298-.29590674359406-.603687167602402-.500875787653058-.993185308729153-.538881920870153-2.59359173410121-.25585532119203-7.736859736726728.401109687961252-11.201812624345621,4.267573554457158-.282942458032267.315582943351728-.413659737739181.736368831067011-.391397800545747,1.159873141118624l.047371745403325.899927241559453c.073568922548475,1.396052262552075.569279707763599,2.737813747621658,1.421573070335398,3.846101588717829l2.226012491157235,2.895948258307726c1.192109099309164,1.550795217754967-.752863829453418,3.554945611775111-2.338538994741612,2.409324770613239l-3.770429125077499-2.722875369652684c-1.041100738602836-.751980342190109-2.271215971128186-1.198552407483476-3.552096122652074-1.290176185041673l-.837155957245159-.059727622160608Z" fill="none" stroke="#000" stroke-linecap="round" stroke-linejoin="round" stroke-width="36.924839615821838"/>
          <path d="M63.564917764324491,66.221451579887798l-14.422033068829478,22.269652334615785,8.483548864018303,2.332639371029472,1.590697774174259-3.28687033494316,4.347786430636916-21.315421370702097Z" fill="none" stroke="#000" stroke-linecap="round" stroke-linejoin="round" stroke-width="36.924839615821838"/>
          <path d="M68.230869639533921,62.934581244940091l13.573678182425283,12.61877408536202,5.620182839123117-6.468537725522765-19.1938610215484-6.150236359839255Z" fill="none" stroke="#000" stroke-linecap="round" stroke-linejoin="round" stroke-width="36.924839615821838"/>
          <g>
            <polygon points="61.125865103747856 63.994688286368728 36.841670882114158 69.403118970468313 38.538380654918001 74.174946923189054 61.125865103747856 63.994688286368728" fill="none" stroke="#000" stroke-linecap="round" stroke-linejoin="round" stroke-width="36.924839615821838"/>
            <polygon points="61.125865103747856 63.994688286368728 36.841670882114158 69.403118970468313 38.538380654918001 74.174946923189054 61.125865103747856 63.994688286368728" fill="none" stroke="#000" stroke-linecap="round" stroke-linejoin="round" stroke-width="36.924839615821838"/>
          </g>
          <g>
            <polygon points="75.336217214327917 39.81657402392284 65.046891589967345 62.554519912779142 64.413612453517999 49.996832660743166 67.521102512740981 37.902688196290001 75.336217214327917 39.81657402392284" fill="none" stroke="#000" stroke-linecap="round" stroke-linejoin="round" stroke-width="36.924839615821838"/>
            <polygon points="75.336217214327917 39.81657402392284 65.046891589967345 62.554519912779142 64.413612453517999 49.996832660743166 67.521102512740981 37.902688196290001 75.336217214327917 39.81657402392284" fill="none" stroke="#000" stroke-linecap="round" stroke-linejoin="round" stroke-width="36.924839615821838"/>
          </g>
          <path d="M67.593855908591649,61.555499704676549l-31.813306621954325,13.043624661711874,5.090129318410618,4.665951875212158,26.723177303543707-17.709576536924033Z" fill="none" stroke="#000" stroke-linecap="round" stroke-linejoin="round" stroke-width="36.924839615821838"/>
          <g>
            <polygon points="66.746180627771537 66.858054311259366 39.174646819719783 54.875209824128433 36.311415097836289 60.38951658573751 66.746180627771537 66.858054311259366" fill="none" stroke="#000" stroke-linecap="round" stroke-linejoin="round" stroke-width="36.924839615821838"/>
            <polygon points="66.746180627771537 66.858054311259366 39.174646819719783 54.875209824128433 36.311415097836289 60.38951658573751 66.746180627771537 66.858054311259366" fill="none" stroke="#000" stroke-linecap="round" stroke-linejoin="round" stroke-width="36.924839615821838"/>
          </g>
          <g>
            <polygon points="65.791477176164335 67.493983909488634 78.410720513003071 41.7257090849007 73.532679916194866 39.392396580723471 65.791477176164335 67.493983909488634" fill="none" stroke="#000" stroke-linecap="round" stroke-linejoin="round" stroke-width="36.924839615821838"/>
            <polygon points="65.791477176164335 67.493983909488634 78.410720513003071 41.7257090849007 73.532679916194866 39.392396580723471 65.791477176164335 67.493983909488634" fill="none" stroke="#000" stroke-linecap="round" stroke-linejoin="round" stroke-width="36.924839615821838"/>
          </g>
          <g>
            <polygon points="64.143834926509044 70.065507879417964 59.113769796835186 40.426704499703192 55.82351114262201 44.906703342332548 64.143834926509044 70.065507879417964" fill="none" stroke="#000" stroke-linecap="round" stroke-linejoin="round" stroke-width="36.924839615821838"/>
            <polygon points="64.143834926509044 70.065507879417964 59.113769796835186 40.426704499703192 55.82351114262201 44.906703342332548 64.143834926509044 70.065507879417964" fill="none" stroke="#000" stroke-linecap="round" stroke-linejoin="round" stroke-width="36.924839615821838"/>
          </g>
          <path d="M90.499848841001949,58.586257602270052l-1.908461927829194-6.256112437349657-21.951215047813093,12.512898007850708,4.984117319781035,2.545064659202581,18.875559655861252-8.801850229703632Z" fill="none" stroke="#000" stroke-linecap="round" stroke-linejoin="round" stroke-width="36.924839615821838"/>
          <path d="M66.209408720431384,67.812285275177601l19.353014940609683,17.285399093720116" fill="none" stroke="#000" stroke-linecap="round" stroke-linejoin="round" stroke-width="36.924839615821838"/>
          <path d="M66.209408720431384,67.812285275177601l19.353014940609683,17.285399093720116" fill="none" stroke="#000" stroke-linecap="round" stroke-linejoin="round" stroke-width="36.924839615821838"/>
          <path d="M221.78310407823119,132.923859373076084c0,45.681805797146808-37.032381391229137,82.714399160594439-82.714601424162538,82.714399160594439-45.682213560497075,0-82.714601424157081-37.032593363447631-82.714601424157081-82.714399160594439,0-45.682207088066207,37.032387863660006-82.71460142415981,82.714601424157081-82.71460142415981,45.682220032933401,0,82.714601424162538,37.032394336093603,82.714601424162538,82.71460142415981Z" fill="none" stroke="#000" stroke-linecap="round" stroke-linejoin="round" stroke-width="36.924839615821838"/>
          <path d="M221.78310407823119,132.923859373076084c0,45.681805797146808-37.032381391229137,82.714399160594439-82.714601424162538,82.714399160594439-45.682213560497075,0-82.714601424157081-37.032593363447631-82.714601424157081-82.714399160594439,0-45.682207088066207,37.032387863660006-82.71460142415981,82.714601424157081-82.71460142415981,45.682220032933401,0,82.714601424162538,37.032394336093603,82.714601424162538,82.71460142415981Z" fill="none" stroke="#000" stroke-linecap="round" stroke-linejoin="round" stroke-width="36.924839615821838"/>
          <path d="M221.78310407823119,132.923859373076084c0,45.681805797146808-37.032381391229137,82.714399160594439-82.714601424162538,82.714399160594439-45.682213560497075,0-82.714601424157081-37.032593363447631-82.714601424157081-82.714399160594439,0-45.682207088066207,37.032387863660006-82.71460142415981,82.714601424157081-82.71460142415981,45.682220032933401,0,82.714601424162538,37.032394336093603,82.714601424162538,82.71460142415981Z" fill="none" stroke="#000" stroke-linecap="round" stroke-linejoin="round" stroke-width="36.924839615821838"/>
          <ellipse cx="131.327997712462547" cy="105.188378657097019" rx="34.150350660772574" ry="45.500461372652673" transform="translate(-36.877958718589468 109.477225680297977) rotate(-40.153894458552315)" fill="none" stroke="#000" stroke-linecap="round" stroke-linejoin="round" stroke-width="36.924839615821838"/>
          <path d="M47.340162924063407,40.983230276013273l9.596998471332881-3.393419545610413c0,1.749641339128175-.212088721598775,4.718883441534672-3.128324824691845,6.044360282328853-2.660034506670854,1.209413151957961-5.832472206180682-1.643778206483148-6.468673646641037-2.650940736718439Z" fill="none" stroke="#000" stroke-linecap="round" stroke-linejoin="round" stroke-width="36.924839615821838"/>
          <path d="M34.579414377933062,58.554361446872463l4.134812603669161-9.302052884205295c1.270496749069025,1.203316119009287,3.280690778457029,3.398856390278524,2.23796060456425,6.42782611484472-.951108014447527,2.762913847177515-5.203807915268044,3.104969046126826-6.372773208233411,2.874226769360575Z" fill="none" stroke="#000" stroke-linecap="round" stroke-linejoin="round" stroke-width="36.924839615821838"/>
          <path d="M50.574499747384834,52.383089676113741l9.278833026761276,8.536480430338088" fill="none" stroke="#000" stroke-linecap="round" stroke-linejoin="round" stroke-width="36.924839615821838"/>
          <path d="M65.473648298169792,47.770069367224096l-1.109782973380788,10.906452801437808" fill="none" stroke="#000" stroke-linecap="round" stroke-linejoin="round" stroke-width="36.924839615821838"/>
        </g>
        <g>
          <path d="M39.09150840330858,47.580038701140438c-.390446352727849-.027831466762109-.780758402447645.071934632934244-1.083655374904083.31966057685986-2.016708534343707,1.651234450596348-5.193152670579366,5.749126671877093-4.915231203325675,10.933598190176781.022668082435302.423491365185328.227290851265934.8130671755207.542064740351634,1.097427096628053l.669045807457223.60334736481218c1.038387170592614.93658710847285,2.336708913989241,1.535869784650458,3.72312372212582,1.719117339761397l3.883565655576604.511723587254892c1.769804589551313.233460699103489,1.769804589551313,2.794822947446846,0,3.028283646548516l-3.883565655576604.511723587255801c-1.386414808136578.183247555110938-2.684736551533206.782530231288547-3.72312372212582,1.719117339765035l-.669045807457223.603347364809451c-.3147738890857.284372865976366-.519396657916332.67460886459412-.542064740351634,1.097427096627143-.277921467253691,5.184471518299688,2.898522668981968,9.28303687272728,4.915231203325675,10.933598190182238.302896972456438.247725943920159.693209022176234.347492043615603,1.083655374904083.319660576853494l.837155957245159-.059727622159699c1.280880151523888-.091610832687365,2.510995384049238-.538195842851565,3.552096122652074-1.290176185042583l3.770429125077499-2.722875369650865c1.585675165288194-1.145620841161872,3.530648094050775.858529552857362,2.338538994741612,2.409324770612329l-2.226012491157235,2.895948258306817c-.8522933625718,1.108973919120217-1.348004147786924,2.450049326166663-1.421573070335398,3.846774721871952l-.047371745403325.89925410840624c-.022261937193434.423504310051612.10845534251348.844290197766895.391397800545747,1.159873141119533,3.464952887618892,3.866463866494996,8.608220890244411,4.524114953666867,11.201812624345621,4.267573554456249.389498141126751-.038006133218005.736440027843855-.242975177275184.993185308729153-.538195842851565l.550344601713732-.633897253911528c.842180184243261-.969156397017287,1.39734351316838-2.154815715714903,1.603257532606222-3.422597278666217l.53738031615103-3.307905745868084c.30853122636654-1.899646472545101,3.040911365535976-1.899646472545101,3.349510552461652,0l.537380316149211,3.307905745868084c.20591401943966,1.267781562951313.761077348364779,2.45344088164893,1.603186335829378,3.422597278666217l.550412562271958.633897253911528c.256680556545689.29522066557638.603622443260974.50018970963356.993188544949589.538195842851565,2.593520537324366.256541399210619,7.736791776165774-.401109687961252,11.201809388127003-4.267573554456249.282877733691748-.315582943352638.41365973774009-.736368831067921.39132983998752-1.159873141119533l-.047371745403325-.89925410840624c-.073565686331676-1.396725395705289-.569211747204463-2.737800802751735-1.421501873558555-3.846774721871952l-2.226083687934079-2.895948258306817c-1.192105863090546-1.550795217754967.752931790009825-3.554945611774201,2.338606955298019-2.409324770612329l3.770432361296116,2.722875369650865c1.041097502386037.751980342191018,2.271144774353161,1.198565352355217,3.552298386219263,1.290176185042583l.836814536343809.059727622159699c.39024247105317.027831466762109.781164547689514-.071934632933335,1.083860874687161-.319660576853494,2.016370349660065-1.650561317454958,5.193286973588329-5.74912667188255,4.915030557869613-10.933598190182238-.022401094529414-.422818232033023-.227363666150268-.813054230650778-.542273476355149-1.097427096627143l-.668498886771886-.603347364809451c-1.038385552483305-.936587108476488-2.33671053209855-1.535869784654096-3.723261261349762-1.719117339765035l-2.608248561191431-.343401465248462c-1.966422575469551-.259945899564627-1.966422575469551-3.104981990996748,0-3.364241812543696l2.608248561191431-.344087543267051c1.386550729251212-.183247555110938,2.684875708866457-.782530231288547,3.723261261349762-1.719117339761397l.668498886771886-.60334736481218c.314909810204881-.284359921107352.519872381825735-.673935731442725.542273476355149-1.097427096628053.278256415718715-5.184471518299688-2.898660208209549-9.282363739580433-4.915030557869613-10.933598190176781-.302696326997648-.247725943925616-.693618403633991-.347492043621969-1.083860874687161-.31966057685986l-.836814536343809.059727622160608c-1.281153611866102.091623777558198-2.511200883833226.538195842851565-3.552298386219263,1.290176185041673l-3.770432361296116,2.722875369652684c-1.585675165288194,1.145620841161872-3.530712818388565-.858529552858272-2.338606955298019-2.409324770613239l2.226083687934079-2.895948258307726c.852290126354092-1.108287841096171,1.347936187226878-2.450049326165754,1.421501873558555-3.846101588717829l.047371745403325-.899927241559453c.02232989775257-.423504310051612-.108452106295772-.844290197766895-.39132983998752-1.159873141118624-3.46501761196123-3.866463866495906-8.608288850802637-4.523428875649188-11.201809388127003-4.267573554457158-.389566101688615.038006133217095-.736507988403901.242975177276094-.993188544949589.538881920870153l-.550412562271958.633211175892939c-.842108987464599.969842475035875-1.397272316389717,2.154815715714903-1.603186335829378,3.422597278667126l-.537380316149211,3.307905745867174c-.308599186925676,1.89964647254601-3.040979326095112,1.89964647254601-3.349510552461652,0l-.53738031615103-3.307905745867174c-.205914019437841-1.267781562952223-.76107734836296-2.452754803631251-1.603257532606222-3.422597278667126l-.550344601713732-.633211175892939c-.256745280885298-.29590674359406-.603687167602402-.500875787653058-.993185308729153-.538881920870153-2.59359173410121-.25585532119203-7.736859736726728.401109687961252-11.201812624345621,4.267573554457158-.282942458032267.315582943351728-.413659737739181.736368831067011-.391397800545747,1.159873141118624l.047371745403325.899927241559453c.073568922548475,1.396052262552075.569279707763599,2.737813747621658,1.421573070335398,3.846101588717829l2.226012491157235,2.895948258307726c1.192109099309164,1.550795217754967-.752863829453418,3.554945611775111-2.338538994741612,2.409324770613239l-3.770429125077499-2.722875369652684c-1.041100738602836-.751980342190109-2.271215971128186-1.198552407483476-3.552096122652074-1.290176185041673l-.837155957245159-.059727622160608Z" fill="url(#linear-gradient)" fill-rule="evenodd" stroke-width="0"/>
          <path d="M39.09150840330858,47.580038701140438c-.390446352727849-.027831466762109-.780758402447645.071934632934244-1.083655374904083.31966057685986-2.016708534343707,1.651234450596348-5.193152670579366,5.749126671877093-4.915231203325675,10.933598190176781.022668082435302.423491365185328.227290851265934.8130671755207.542064740351634,1.097427096628053l.669045807457223.60334736481218c1.038387170592614.93658710847285,2.336708913989241,1.535869784650458,3.72312372212582,1.719117339761397l3.883565655576604.511723587254892c1.769804589551313.233460699103489,1.769804589551313,2.794822947446846,0,3.028283646548516l-3.883565655576604.511723587255801c-1.386414808136578.183247555110938-2.684736551533206.782530231288547-3.72312372212582,1.719117339765035l-.669045807457223.603347364809451c-.3147738890857.284372865976366-.519396657916332.67460886459412-.542064740351634,1.097427096627143-.277921467253691,5.184471518299688,2.898522668981968,9.28303687272728,4.915231203325675,10.933598190182238.302896972456438.247725943920159.693209022176234.347492043615603,1.083655374904083.319660576853494l.837155957245159-.059727622159699c1.280880151523888-.091610832687365,2.510995384049238-.538195842851565,3.552096122652074-1.290176185042583l3.770429125077499-2.722875369650865c1.585675165288194-1.145620841161872,3.530648094050775.858529552857362,2.338538994741612,2.409324770612329l-2.226012491157235,2.895948258306817c-.8522933625718,1.108973919120217-1.348004147786924,2.450049326166663-1.421573070335398,3.846774721871952l-.047371745403325.89925410840624c-.022261937193434.423504310051612.10845534251348.844290197766895.391397800545747,1.159873141119533,3.464952887618892,3.866463866494996,8.608220890244411,4.524114953666867,11.201812624345621,4.267573554456249.389498141126751-.038006133218005.736440027843855-.242975177275184.993185308729153-.538195842851565l.550344601713732-.633897253911528c.842180184243261-.969156397017287,1.39734351316838-2.154815715714903,1.603257532606222-3.422597278666217l.53738031615103-3.307905745868084c.30853122636654-1.899646472545101,3.040911365535976-1.899646472545101,3.349510552461652,0l.537380316149211,3.307905745868084c.20591401943966,1.267781562951313.761077348364779,2.45344088164893,1.603186335829378,3.422597278666217l.550412562271958.633897253911528c.256680556545689.29522066557638.603622443260974.50018970963356.993188544949589.538195842851565,2.593520537324366.256541399210619,7.736791776165774-.401109687961252,11.201809388127003-4.267573554456249.282877733691748-.315582943352638.41365973774009-.736368831067921.39132983998752-1.159873141119533l-.047371745403325-.89925410840624c-.073565686331676-1.396725395705289-.569211747204463-2.737800802751735-1.421501873558555-3.846774721871952l-2.226083687934079-2.895948258306817c-1.192105863090546-1.550795217754967.752931790009825-3.554945611774201,2.338606955298019-2.409324770612329l3.770432361296116,2.722875369650865c1.041097502386037.751980342191018,2.271144774353161,1.198565352355217,3.552298386219263,1.290176185042583l.836814536343809.059727622159699c.39024247105317.027831466762109.781164547689514-.071934632933335,1.083860874687161-.319660576853494,2.016370349660065-1.650561317454958,5.193286973588329-5.74912667188255,4.915030557869613-10.933598190182238-.022401094529414-.422818232033023-.227363666150268-.813054230650778-.542273476355149-1.097427096627143l-.668498886771886-.603347364809451c-1.038385552483305-.936587108476488-2.33671053209855-1.535869784654096-3.723261261349762-1.719117339765035l-2.608248561191431-.343401465248462c-1.966422575469551-.259945899564627-1.966422575469551-3.104981990996748,0-3.364241812543696l2.608248561191431-.344087543267051c1.386550729251212-.183247555110938,2.684875708866457-.782530231288547,3.723261261349762-1.719117339761397l.668498886771886-.60334736481218c.314909810204881-.284359921107352.519872381825735-.673935731442725.542273476355149-1.097427096628053.278256415718715-5.184471518299688-2.898660208209549-9.282363739580433-4.915030557869613-10.933598190176781-.302696326997648-.247725943925616-.693618403633991-.347492043621969-1.083860874687161-.31966057685986l-.836814536343809.059727622160608c-1.281153611866102.091623777558198-2.511200883833226.538195842851565-3.552298386219263,1.290176185041673l-3.770432361296116,2.722875369652684c-1.585675165288194,1.145620841161872-3.530712818388565-.858529552858272-2.338606955298019-2.409324770613239l2.226083687934079-2.895948258307726c.852290126354092-1.108287841096171,1.347936187226878-2.450049326165754,1.421501873558555-3.846101588717829l.047371745403325-.899927241559453c.02232989775257-.423504310051612-.108452106295772-.844290197766895-.39132983998752-1.159873141118624-3.46501761196123-3.866463866495906-8.608288850802637-4.523428875649188-11.201809388127003-4.267573554457158-.389566101688615.038006133217095-.736507988403901.242975177276094-.993188544949589.538881920870153l-.550412562271958.633211175892939c-.842108987464599.969842475035875-1.397272316389717,2.154815715714903-1.603186335829378,3.422597278667126l-.537380316149211,3.307905745867174c-.308599186925676,1.89964647254601-3.040979326095112,1.89964647254601-3.349510552461652,0l-.53738031615103-3.307905745867174c-.205914019437841-1.267781562952223-.76107734836296-2.452754803631251-1.603257532606222-3.422597278667126l-.550344601713732-.633211175892939c-.256745280885298-.29590674359406-.603687167602402-.500875787653058-.993185308729153-.538881920870153-2.59359173410121-.25585532119203-7.736859736726728.401109687961252-11.201812624345621,4.267573554457158-.282942458032267.315582943351728-.413659737739181.736368831067011-.391397800545747,1.159873141118624l.047371745403325.899927241559453c.073568922548475,1.396052262552075.569279707763599,2.737813747621658,1.421573070335398,3.846101588717829l2.226012491157235,2.895948258307726c1.192109099309164,1.550795217754967-.752863829453418,3.554945611775111-2.338538994741612,2.409324770613239l-3.770429125077499-2.722875369652684c-1.041100738602836-.751980342190109-2.271215971128186-1.198552407483476-3.552096122652074-1.290176185041673l-.837155957245159-.059727622160608Z" fill="url(#linear-gradient-2)" fill-rule="evenodd" stroke-width="0"/>
          <path d="M63.564917764324491,66.221451579887798l-14.422033068829478,22.269652334615785,8.483548864018303,2.332639371029472,1.590697774174259-3.28687033494316,4.347786430636916-21.315421370702097Z" fill="#d23e27" stroke-width="0"/>
          <path d="M68.230869639533921,62.934581244940091l13.573678182425283,12.61877408536202,5.620182839123117-6.468537725522765-19.1938610215484-6.150236359839255Z" fill="#d23e27" stroke-width="0"/>
          <polygon points="61.125865103747856 63.994688286368728 36.841670882114158 69.403118970468313 38.538380654918001 74.174946923189054 61.125865103747856 63.994688286368728" fill="#febb12" opacity=".5" stroke-width="0"/>
          <polygon points="75.336217214327917 39.81657402392284 65.046891589967345 62.554519912779142 64.413612453517999 49.996832660743166 67.521102512740981 37.902688196290001 75.336217214327917 39.81657402392284" fill="#febb12" opacity=".5" stroke-width="0"/>
          <path d="M67.593855908591649,61.555499704676549l-31.813306621954325,13.043624661711874,5.090129318410618,4.665951875212158,26.723177303543707-17.709576536924033Z" fill="url(#linear-gradient-3)" stroke-width="0"/>
          <polygon points="66.746180627771537 66.858054311259366 39.174646819719783 54.875209824128433 36.311415097836289 60.38951658573751 66.746180627771537 66.858054311259366" fill="url(#linear-gradient-4)" opacity=".600000023841858" stroke-width="0"/>
          <polygon points="65.791477176164335 67.493983909488634 78.410720513003071 41.7257090849007 73.532679916194866 39.392396580723471 65.791477176164335 67.493983909488634" fill="url(#linear-gradient-5)" opacity=".600000023841858" stroke-width="0"/>
          <polygon points="64.143834926509044 70.065507879417964 59.113769796835186 40.426704499703192 55.82351114262201 44.906703342332548 64.143834926509044 70.065507879417964" fill="url(#linear-gradient-6)" opacity=".300000011920929" stroke-width="0"/>
          <path d="M90.499848841001949,58.586257602270052l-1.908461927829194-6.256112437349657-21.951215047813093,12.512898007850708,4.984117319781035,2.545064659202581,18.875559655861252-8.801850229703632Z" fill="url(#linear-gradient-7)" stroke-width="0"/>
          <path d="M66.209408720431384,67.812285275177601l19.353014940609683,17.285399093720116" fill="none" stroke="url(#radial-gradient)" stroke-linecap="round" stroke-width="12.216310019152413"/>
          <path d="M66.209408720431384,67.812285275177601l19.353014940609683,17.285399093720116" fill="none" stroke="url(#linear-gradient-8)" stroke-linecap="round" stroke-width="12.216310019152413"/>
          <path d="M221.78310407823119,132.923859373076084c0,45.681805797146808-37.032381391229137,82.714399160594439-82.714601424162538,82.714399160594439-45.682213560497075,0-82.714601424157081-37.032593363447631-82.714601424157081-82.714399160594439,0-45.682207088066207,37.032387863660006-82.71460142415981,82.714601424157081-82.71460142415981,45.682220032933401,0,82.714601424162538,37.032394336093603,82.714601424162538,82.71460142415981Z" fill="url(#radial-gradient-2)" stroke-width="0"/>
          <path d="M221.78310407823119,132.923859373076084c0,45.681805797146808-37.032381391229137,82.714399160594439-82.714601424162538,82.714399160594439-45.682213560497075,0-82.714601424157081-37.032593363447631-82.714601424157081-82.714399160594439,0-45.682207088066207,37.032387863660006-82.71460142415981,82.714601424157081-82.71460142415981,45.682220032933401,0,82.714601424162538,37.032394336093603,82.714601424162538,82.71460142415981Z" fill="url(#radial-gradient-3)" stroke-width="0"/>
          <path d="M221.78310407823119,132.923859373076084c0,45.681805797146808-37.032381391229137,82.714399160594439-82.714601424162538,82.714399160594439-45.682213560497075,0-82.714601424157081-37.032593363447631-82.714601424157081-82.714399160594439,0-45.682207088066207,37.032387863660006-82.71460142415981,82.714601424157081-82.71460142415981,45.682220032933401,0,82.714601424162538,37.032394336093603,82.714601424162538,82.71460142415981Z" fill="url(#radial-gradient-4)" stroke-width="0"/>
          <ellipse cx="131.327997712462547" cy="105.188378657097019" rx="34.150350660772574" ry="45.500461372652673" transform="translate(-36.877958718589468 109.477225680297977) rotate(-40.153894458552315)" fill="url(#radial-gradient-5)" stroke-width="0"/>
          <path d="M47.340162924063407,40.983230276013273l9.596998471332881-3.393419545610413c0,1.749641339128175-.212088721598775,4.718883441534672-3.128324824691845,6.044360282328853-2.660034506670854,1.209413151957961-5.832472206180682-1.643778206483148-6.468673646641037-2.650940736718439Z" fill="#ffd35d" stroke-width="0"/>
          <path d="M34.579414377933062,58.554361446872463l4.134812603669161-9.302052884205295c1.270496749069025,1.203316119009287,3.280690778457029,3.398856390278524,2.23796060456425,6.42782611484472-.951108014447527,2.762913847177515-5.203807915268044,3.104969046126826-6.372773208233411,2.874226769360575Z" fill="url(#linear-gradient-9)" stroke-width="0"/>
          <path d="M50.574499747384834,52.383089676113741l9.278833026761276,8.536480430338088" fill="none" stroke="url(#linear-gradient-10)" stroke-linecap="round" stroke-width=".678683918045074"/>
          <path d="M65.473648298169792,47.770069367224096l-1.109782973380788,10.906452801437808" fill="none" stroke="url(#linear-gradient-11)" stroke-linecap="round" stroke-width=".678683918045074"/>
        </g>
      </g>
      <g id="AC">
        <g>
          <path d="M132.571476063829323,122.812396110372902c-3.03271484375,34.25830078125-4.9365234375,68.68359375-5.7109375,103.2724609375-.17236328125,1.2314453125-.546875,2.400390625-1.1240234375,3.50439453125-.56884765625.8994140625-1.36328125,1.73486328125-2.38671875,2.50390625-1.02685546875.7724609375-2.419921875,1.208984375-4.1826171875,1.31982421875-2.38916015625.17822265625-4.84619140625.2216796875-7.37353515625.13525390625-2.529296875-.0888671875-4.58935546875-.6953125-6.18017578125-1.81494140625-6.56689453125.97900390625-13.2109375.97509765625-19.92578125-.0166015625-6.71728515625-.99169921875-12.70703125-3.4404296875-17.96923828125-7.3515625-4.57080078125-3.35400390625-8.0185546875-7.39453125-10.33984375-12.12451171875-2.32373046875-4.7275390625-3.6513671875-9.68603515625-3.98486328125-14.87451171875-.33349609375-5.18701171875.240234375-10.427734375,1.72265625-15.72216796875,1.4794921875-5.2919921875,3.7392578125-10.1298828125,6.7724609375-14.5126953125,2.4658203125-3.48095703125,5.421875-6.4697265625,8.8701171875-8.96875,3.4453125-2.49658203125,7.1474609375-4.462890625,11.103515625-5.89892578125,3.9560546875-1.43359375,8.111328125-2.26513671875,12.46630859375-2.48974609375,4.35400390625-.22412109375,8.6171875.244140625,12.79248046875,1.4052734375.439453125-4.2138671875.88623046875-8.09228515625,1.34130859375-11.6337890625.45263671875-3.541015625.85693359375-6.64501953125,1.212890625-9.314453125.3759765625-3.0810546875.73876953125-5.9033203125,1.0888671875-8.46923828125-.05224609375-.93310546875.1474609375-1.74853515625.6005859375-2.44775390625.34326171875-.6015625.890625-1.1640625,1.64453125-1.6923828125.75146484375-.525390625,1.8486328125-.7509765625,3.29345703125-.6708984375,1.33837890625.07421875,2.9599609375.1904296875,4.865234375.3466796875,1.9033203125.15869140625,3.69775390625.43701171875,5.3818359375.84033203125,1.68310546875.4033203125,3.12451171875.97509765625,4.32421875,1.71240234375,1.19970703125.73974609375,1.765625,1.72607421875,1.697265625,2.96240234375ZM104.928897938829323,174.008196891622902c-3.83837890625-1.65869140625-7.31494140625-2.31591796875-10.43603515625-1.97265625-3.1201171875.34619140625-5.81005859375,1.3076171875-8.06787109375,2.88818359375-2.2587890625,1.58056640625-4.05322265625,3.62841796875-5.37939453125,6.13818359375-1.3291015625,2.51171875-2.14501953125,5.12939453125-2.4501953125,7.8505859375-.30615234375,2.72314453125-.06591796875,5.3994140625.71923828125,8.025390625.78466796875,2.62890625,2.13427734375,4.87548828125,4.04736328125,6.7373046875,1.912109375,1.865234375,4.4248046875,3.14013671875,7.541015625,3.82861328125,3.11474609375.69091796875,6.927734375.43603515625,11.4404296875-.76318359375.279296875-5.04833984375.64208984375-10.19921875,1.0869140625-15.44677734375.4453125-5.248046875.943359375-11.00830078125,1.49853515625-17.28564453125Z" fill="none" stroke="#000" stroke-linecap="round" stroke-linejoin="round" stroke-width="40.873256683349609"/>
          <path d="M162.845401845079323,228.694720329122902c-.27587890625,1.2255859375-.69873046875,2.3408203125-1.26953125,3.341796875-.5634765625.79736328125-1.353515625,1.55322265625-2.37451171875,2.2724609375-1.0234375.71826171875-2.41552734375,1.130859375-4.17822265625,1.24169921875-1.76513671875.10791015625-3.62890625.16064453125-5.59130859375.15673828125-1.96484375-.00732421875-3.76025390625-.26123046875-5.38525390625-.763671875-1.626953125-.50439453125-3.0009765625-1.37939453125-4.119140625-2.630859375-1.12060546875-1.25-1.771484375-3.017578125-1.955078125-5.30322265625-.14501953125-1.14453125-.1171875-3.49560546875.07958984375-7.05126953125.1962890625-3.5556640625.484375-7.8291015625.86474609375-12.8232421875.37744140625-4.9921875.8125-10.5,1.30029296875-16.5205078125.48828125-6.02099609375,1.0048828125-12.11767578125,1.5546875-18.29052734375,1.20263671875-14.3017578125,2.603515625-30.25,4.1962890625-47.84033203125-.052734375-.93310546875.1474609375-1.74853515625.6005859375-2.44775390625.34326171875-.60107421875.861328125-1.11572265625,1.55859375-1.5419921875.6943359375-.42724609375,1.765625-.65087890625,3.21630859375-.67529296875,1.44189453125.07958984375,3.11865234375.1220703125,5.0322265625.12353515625,1.912109375.00390625,3.7138671875.154296875,5.40283203125.45361328125,1.68896484375.3017578125,3.13525390625.79345703125,4.33837890625,1.48095703125,1.2021484375.6865234375,1.8173828125,1.70458984375,1.8466796875,3.04736328125l-5.1181640625,103.7705078125Z" fill="none" stroke="#000" stroke-linecap="round" stroke-linejoin="round" stroke-width="40.873256683349609"/>
          <path d="M242.762394032579323,154.803118766622902c4.64892578125.05078125,8.2421875.97412109375,10.77978515625,2.7666015625,2.53662109375,1.79541015625,3.85986328125,4.5048828125,3.9697265625,8.12841796875.0556640625.83203125.03515625,1.68359375-.0634765625,2.55517578125-.10205078125.8740234375-.2294921875,1.7705078125-.38232421875,2.69287109375-.47998046875,3.07470703125-1.36767578125,6.95556640625-2.65869140625,11.63818359375-1.2939453125,4.685546875-2.93505859375,9.607421875-4.9267578125,14.76953125-1.99072265625,5.16259765625-4.31787109375,10.306640625-6.97802734375,15.431640625-2.6630859375,5.12548828125-5.681640625,9.71484375-9.05810546875,13.765625-3.37890625,4.05322265625-7.07080078125,7.28515625-11.08154296875,9.69970703125-4.009765625,2.41455078125-8.333984375,3.4931640625-12.97216796875,3.23681640625-4.2275390625-.23388671875-7.9326171875-1.44677734375-11.11865234375-3.638671875-3.18896484375-2.1923828125-5.92333984375-5.05712890625-8.20849609375-8.5947265625-3.2431640625-4.93359375-5.82275390625-10.16943359375-7.73876953125-15.70263671875-1.91845703125-5.53369140625-3.3603515625-11.220703125-4.32861328125-17.06494140625-.97119140625-5.8427734375-1.54541015625-11.79345703125-1.7265625-17.8515625-.18359375-6.0576171875-.1640625-12.02685546875.0595703125-17.9072265625-.06396484375-.7255859375.08251953125-1.49267578125.43701171875-2.3017578125.35546875-.80712890625.8349609375-1.55517578125,1.44287109375-2.24609375.60498046875-.68896484375,1.31103515625-1.27001953125,2.1123046875-1.744140625.8017578125-.47216796875,1.66650390625-.68359375,2.59375-.63232421875,1.447265625-.021484375,3.12890625-.0595703125,5.04541015625-.10888671875,1.9150390625-.048828125,3.74072265625.10546875,5.47998046875.45849609375,1.73779296875.35498046875,3.20263671875.97900390625,4.3935546875,1.87158203125,1.19140625.89404296875,1.83740234375,2.27197265625,1.9423828125,4.138671875-.21044921875,7.5361328125-.06494140625,15.193359375.435546875,22.97509765625.5,7.78076171875,2.017578125,15.8271484375,4.55810546875,24.1328125.9619140625,3.154296875,1.9814453125,5.7451171875,3.0595703125,7.767578125,1.0751953125,2.02490234375,2.08251953125,3.0107421875,3.01513671875,2.95849609375.82958984375-.05615234375,1.7431640625-.67919921875,2.73974609375-1.86474609375.99609375-1.185546875,2.0390625-2.7802734375,3.13330078125-4.7890625,1.0927734375-2.00634765625,2.2001953125-4.2978515625,3.326171875-6.8720703125,1.12353515625-2.5732421875,2.23291015625-5.328125,3.326171875-8.26708984375,2.06494140625-5.56982421875,3.84814453125-11.185546875,5.35107421875-16.83935546875,1.49951171875-5.65478515625,2.93115234375-10.51123046875,4.294921875-14.572265625.9658203125-2.529296875,2.0341796875-4.53955078125,3.20166015625-6.025390625,1.16748046875-1.486328125,3.3486328125-2.14111328125,6.54443359375-1.96435546875Z" fill="none" stroke="#000" stroke-linecap="round" stroke-linejoin="round" stroke-width="40.873256683349609"/>
        </g>
        <g>
          <path d="M132.571476063829323,122.812396110372902c-3.03271484375,34.25830078125-4.9365234375,68.68359375-5.7109375,103.2724609375-.17236328125,1.2314453125-.546875,2.400390625-1.1240234375,3.50439453125-.56884765625.8994140625-1.36328125,1.73486328125-2.38671875,2.50390625-1.02685546875.7724609375-2.419921875,1.208984375-4.1826171875,1.31982421875-2.38916015625.17822265625-4.84619140625.2216796875-7.37353515625.13525390625-2.529296875-.0888671875-4.58935546875-.6953125-6.18017578125-1.81494140625-6.56689453125.97900390625-13.2109375.97509765625-19.92578125-.0166015625-6.71728515625-.99169921875-12.70703125-3.4404296875-17.96923828125-7.3515625-4.57080078125-3.35400390625-8.0185546875-7.39453125-10.33984375-12.12451171875-2.32373046875-4.7275390625-3.6513671875-9.68603515625-3.98486328125-14.87451171875-.33349609375-5.18701171875.240234375-10.427734375,1.72265625-15.72216796875,1.4794921875-5.2919921875,3.7392578125-10.1298828125,6.7724609375-14.5126953125,2.4658203125-3.48095703125,5.421875-6.4697265625,8.8701171875-8.96875,3.4453125-2.49658203125,7.1474609375-4.462890625,11.103515625-5.89892578125,3.9560546875-1.43359375,8.111328125-2.26513671875,12.46630859375-2.48974609375,4.35400390625-.22412109375,8.6171875.244140625,12.79248046875,1.4052734375.439453125-4.2138671875.88623046875-8.09228515625,1.34130859375-11.6337890625.45263671875-3.541015625.85693359375-6.64501953125,1.212890625-9.314453125.3759765625-3.0810546875.73876953125-5.9033203125,1.0888671875-8.46923828125-.05224609375-.93310546875.1474609375-1.74853515625.6005859375-2.44775390625.34326171875-.6015625.890625-1.1640625,1.64453125-1.6923828125.75146484375-.525390625,1.8486328125-.7509765625,3.29345703125-.6708984375,1.33837890625.07421875,2.9599609375.1904296875,4.865234375.3466796875,1.9033203125.15869140625,3.69775390625.43701171875,5.3818359375.84033203125,1.68310546875.4033203125,3.12451171875.97509765625,4.32421875,1.71240234375,1.19970703125.73974609375,1.765625,1.72607421875,1.697265625,2.96240234375ZM104.928897938829323,174.008196891622902c-3.83837890625-1.65869140625-7.31494140625-2.31591796875-10.43603515625-1.97265625-3.1201171875.34619140625-5.81005859375,1.3076171875-8.06787109375,2.88818359375-2.2587890625,1.58056640625-4.05322265625,3.62841796875-5.37939453125,6.13818359375-1.3291015625,2.51171875-2.14501953125,5.12939453125-2.4501953125,7.8505859375-.30615234375,2.72314453125-.06591796875,5.3994140625.71923828125,8.025390625.78466796875,2.62890625,2.13427734375,4.87548828125,4.04736328125,6.7373046875,1.912109375,1.865234375,4.4248046875,3.14013671875,7.541015625,3.82861328125,3.11474609375.69091796875,6.927734375.43603515625,11.4404296875-.76318359375.279296875-5.04833984375.64208984375-10.19921875,1.0869140625-15.44677734375.4453125-5.248046875.943359375-11.00830078125,1.49853515625-17.28564453125Z" fill="#fff" stroke-width="0"/>
          <path d="M162.845401845079323,228.694720329122902c-.27587890625,1.2255859375-.69873046875,2.3408203125-1.26953125,3.341796875-.5634765625.79736328125-1.353515625,1.55322265625-2.37451171875,2.2724609375-1.0234375.71826171875-2.41552734375,1.130859375-4.17822265625,1.24169921875-1.76513671875.10791015625-3.62890625.16064453125-5.59130859375.15673828125-1.96484375-.00732421875-3.76025390625-.26123046875-5.38525390625-.763671875-1.626953125-.50439453125-3.0009765625-1.37939453125-4.119140625-2.630859375-1.12060546875-1.25-1.771484375-3.017578125-1.955078125-5.30322265625-.14501953125-1.14453125-.1171875-3.49560546875.07958984375-7.05126953125.1962890625-3.5556640625.484375-7.8291015625.86474609375-12.8232421875.37744140625-4.9921875.8125-10.5,1.30029296875-16.5205078125.48828125-6.02099609375,1.0048828125-12.11767578125,1.5546875-18.29052734375,1.20263671875-14.3017578125,2.603515625-30.25,4.1962890625-47.84033203125-.052734375-.93310546875.1474609375-1.74853515625.6005859375-2.44775390625.34326171875-.60107421875.861328125-1.11572265625,1.55859375-1.5419921875.6943359375-.42724609375,1.765625-.65087890625,3.21630859375-.67529296875,1.44189453125.07958984375,3.11865234375.1220703125,5.0322265625.12353515625,1.912109375.00390625,3.7138671875.154296875,5.40283203125.45361328125,1.68896484375.3017578125,3.13525390625.79345703125,4.33837890625,1.48095703125,1.2021484375.6865234375,1.8173828125,1.70458984375,1.8466796875,3.04736328125l-5.1181640625,103.7705078125Z" fill="#fff" stroke-width="0"/>
          <path d="M242.762394032579323,154.803118766622902c4.64892578125.05078125,8.2421875.97412109375,10.77978515625,2.7666015625,2.53662109375,1.79541015625,3.85986328125,4.5048828125,3.9697265625,8.12841796875.0556640625.83203125.03515625,1.68359375-.0634765625,2.55517578125-.10205078125.8740234375-.2294921875,1.7705078125-.38232421875,2.69287109375-.47998046875,3.07470703125-1.36767578125,6.95556640625-2.65869140625,11.63818359375-1.2939453125,4.685546875-2.93505859375,9.607421875-4.9267578125,14.76953125-1.99072265625,5.16259765625-4.31787109375,10.306640625-6.97802734375,15.431640625-2.6630859375,5.12548828125-5.681640625,9.71484375-9.05810546875,13.765625-3.37890625,4.05322265625-7.07080078125,7.28515625-11.08154296875,9.69970703125-4.009765625,2.41455078125-8.333984375,3.4931640625-12.97216796875,3.23681640625-4.2275390625-.23388671875-7.9326171875-1.44677734375-11.11865234375-3.638671875-3.18896484375-2.1923828125-5.92333984375-5.05712890625-8.20849609375-8.5947265625-3.2431640625-4.93359375-5.82275390625-10.16943359375-7.73876953125-15.70263671875-1.91845703125-5.53369140625-3.3603515625-11.220703125-4.32861328125-17.06494140625-.97119140625-5.8427734375-1.54541015625-11.79345703125-1.7265625-17.8515625-.18359375-6.0576171875-.1640625-12.02685546875.0595703125-17.9072265625-.06396484375-.7255859375.08251953125-1.49267578125.43701171875-2.3017578125.35546875-.80712890625.8349609375-1.55517578125,1.44287109375-2.24609375.60498046875-.68896484375,1.31103515625-1.27001953125,2.1123046875-1.744140625.8017578125-.47216796875,1.66650390625-.68359375,2.59375-.63232421875,1.447265625-.021484375,3.12890625-.0595703125,5.04541015625-.10888671875,1.9150390625-.048828125,3.74072265625.10546875,5.47998046875.45849609375,1.73779296875.35498046875,3.20263671875.97900390625,4.3935546875,1.87158203125,1.19140625.89404296875,1.83740234375,2.27197265625,1.9423828125,4.138671875-.21044921875,7.5361328125-.06494140625,15.193359375.435546875,22.97509765625.5,7.78076171875,2.017578125,15.8271484375,4.55810546875,24.1328125.9619140625,3.154296875,1.9814453125,5.7451171875,3.0595703125,7.767578125,1.0751953125,2.02490234375,2.08251953125,3.0107421875,3.01513671875,2.95849609375.82958984375-.05615234375,1.7431640625-.67919921875,2.73974609375-1.86474609375.99609375-1.185546875,2.0390625-2.7802734375,3.13330078125-4.7890625,1.0927734375-2.00634765625,2.2001953125-4.2978515625,3.326171875-6.8720703125,1.12353515625-2.5732421875,2.23291015625-5.328125,3.326171875-8.26708984375,2.06494140625-5.56982421875,3.84814453125-11.185546875,5.35107421875-16.83935546875,1.49951171875-5.65478515625,2.93115234375-10.51123046875,4.294921875-14.572265625.9658203125-2.529296875,2.0341796875-4.53955078125,3.20166015625-6.025390625,1.16748046875-1.486328125,3.3486328125-2.14111328125,6.54443359375-1.96435546875Z" fill="#fff" stroke-width="0"/>
        </g>
      </g>
    </g>
  </a>
</svg>