<?xml version="1.0" encoding="UTF-8"?>
<svg id="Pattern" xmlns="http://www.w3.org/2000/svg" xmlns:xlink="http://www.w3.org/1999/xlink" viewBox="0 0 280 280">
  <defs>
    <linearGradient id="A8-3" data-name="A8" x1="88.285766477587458" y1="249.026599726485983" x2="206.903859557944401" y2="119.002920773031718" gradientUnits="userSpaceOnUse">
      <stop offset="0" stop-color="#c96282"/>
      <stop offset=".489316239316239" stop-color="#dc6476"/>
      <stop offset="1" stop-color="#f1666a"/>
    </linearGradient>
  </defs>
  <g id="A8">
    <a xlink:href="https://www.notion.so/dmmnotes/A8-994ecb0895b844409b931d74a045c162?pvs=4#15168e3230824a0d9f2d8f5151a027c4">
      <g id="A8-2" data-name="A8">
        <path d="M140,259.388671875c-36.970703125,0-67.048828125-30.078125-67.048828125-67.048828125s30.078125-67.048828125,67.048828125-67.048828125,67.048828125,30.078125,67.048828125,67.048828125-30.078125,67.048828125-67.048828125,67.048828125Z" fill="url(#A8-3)" stroke-width="0"/>
        <path d="M140,133.79099178314209c32.335540771484375,0,58.548721313476562,26.213166236877441,58.548721313476562,58.548722267150879s-26.213180541992188,58.548721313477472-58.548721313476562,58.548721313477472-58.548736572265625-26.213165283204034-58.548736572265625-58.548721313477472,26.21319580078125-58.548722267150879,58.548736572265625-58.548722267150879M140,116.790992736816406c-41.65771484375,0-75.548736572265625,33.890998840332031-75.548736572265625,75.548721313476562s33.891021728515625,75.548721313477472,75.548736572265625,75.548721313477472,75.548721313476562-33.890998840332941,75.548721313476562-75.548721313477472-33.891006469726562-75.548721313476562-75.548721313476562-75.548721313476562h0Z" fill="#181818" stroke-width="0"/>
      </g>
    </a>
    <a xlink:href="https://www.notion.so/dmmnotes/A8-994ecb0895b844409b931d74a045c162?pvs=4#15168e3230824a0d9f2d8f5151a027c4">
      <g>
        <g>
          <path d="M115.58740234375,57.78515625c3.9765625,2.302734375,7.37890625,5.12890625,10.205078125,8.4775390625,2.82568359375,3.3515625,5.20556640625,7.013671875,7.1435546875,10.990234375,1.935546875,3.978515625,3.478515625,8.1904296875,4.63134765625,12.638671875,1.150390625,4.44921875,2.041015625,8.923828125,2.6689453125,13.4228515625,1.46435546875,8.8974609375,2.30126953125,17.8984375,2.51220703125,27.00390625.20849609375,9.1064453125.05126953125,18.2666015625-.47119140625,27.4755859375-.2109375,2.6171875-.41943359375,4.763671875-.6279296875,6.4365234375-.2109375,1.67578125-.603515625,3.037109375-1.177734375,4.08203125-.576171875,1.0478515625-1.38818359375,1.884765625-2.43310546875,2.5126953125-1.0478515625.6279296875-2.51220703125,1.2021484375-4.39599609375,1.7265625-1.78125.208984375-3.63818359375.365234375-5.57373046875.470703125-1.93798828125.103515625-3.74365234375-.4189453125-5.41650390625-1.5693359375-1.56982421875-1.044921875-2.8798828125-2.826171875-3.9248046875-5.337890625-1.0478515625-2.5126953125-1.6240234375-6.123046875-1.72705078125-10.8330078125v-1.5703125c-2.61767578125-.314453125-5.73046875-.57421875-9.341796875-.78515625-3.61083984375-.2080078125-7.30029296875-.3388671875-11.068359375-.392578125-3.76806640625-.0517578125-7.40576171875-.078125-10.91162109375-.078125h-8.8701171875c-.10546875.94140625-.23583984375,2.51171875-.392578125,4.7099609375-.1572265625,2.1982421875-.498046875,4.3955078125-1.0205078125,6.59375-.52490234375,2.1982421875-1.2314453125,4.1875-2.11962890625,5.9658203125-.890625,1.78125-2.11962890625,2.720703125-3.689453125,2.826171875-1.466796875.103515625-3.14013671875.208984375-5.02392578125.314453125-1.88427734375.1025390625-3.716796875-.10546875-5.4951171875-.6279296875-1.78076171875-.41796875-3.2724609375-1.2568359375-4.474609375-2.5126953125-1.20458984375-1.255859375-1.859375-3.2431640625-1.96240234375-5.9658203125,0-3.2431640625.0517578125-6.958984375.1572265625-11.146484375.10302734375-4.185546875.31396484375-8.73828125.6279296875-13.6591796875.20849609375-4.08203125.54931640625-8.556640625,1.0205078125-13.423828125.470703125-4.8671875,1.150390625-9.8642578125,2.041015625-14.9931640625.8876953125-5.126953125,2.041015625-10.2568359375,3.45361328125-15.38671875,1.4130859375-5.126953125,3.19189453125-9.9931640625,5.33837890625-14.6005859375,2.14404296875-4.6044921875,4.68310546875-8.84375,7.6142578125-12.716796875,2.92919921875-3.87109375,6.43701171875-7.1162109375,10.51904296875-9.734375,4.81298828125-3.0341796875,10.099609375-4.552734375,15.85693359375-4.552734375,5.75537109375,0,11.19873046875,1.4130859375,16.328125,4.2392578125ZM77.4365234375,129.2197265625c6.59375-.5224609375,13.16064453125-.9150390625,19.703125-1.177734375,6.5400390625-.259765625,13.10986328125-.287109375,19.70361328125-.078125.31396484375-7.4306640625,0-14.076171875-.94189453125-19.939453125-.94189453125-5.8603515625-2.251953125-10.8056640625-3.9248046875-14.8359375-1.67578125-4.0283203125-3.6650390625-7.1162109375-5.96630859375-9.2626953125-2.30322265625-2.14453125-4.658203125-3.21875-7.06494140625-3.21875-2.0947265625,0-4.26611328125,1.07421875-6.515625,3.21875-2.251953125,2.146484375-4.34423828125,5.2861328125-6.27978515625,9.419921875-1.93798828125,4.1357421875-3.689453125,9.23828125-5.25927734375,15.306640625-1.5703125,6.072265625-2.72314453125,12.9287109375-3.4541015625,20.5673828125Z" fill="none" stroke="#181818" stroke-linecap="round" stroke-linejoin="round" stroke-width="33"/>
          <path d="M212.455078125,112.578125c4.7099609375,3.4541015625,8.05859375,7.4052734375,10.0478515625,11.853515625,1.9873046875,4.44921875,2.8505859375,8.9755859375,2.5908203125,13.580078125-.2626953125,4.607421875-1.5185546875,9.1064453125-3.76806640625,13.501953125-2.251953125,4.396484375-5.2080078125,8.26953125-8.87060546875,11.6181640625-3.6650390625,3.3505859375-7.92822265625,5.9931640625-12.79541015625,7.9287109375s-10.0234375,2.7470703125-15.46435546875,2.43359375c-3.5595703125-.2109375-7.2490234375-.9423828125-11.06884765625-2.1982421875-3.82177734375-1.255859375-7.3544921875-3.0078125-10.59716796875-5.259765625-3.24560546875-2.2490234375-6.02001953125-4.9970703125-8.3212890625-8.2421875-2.30322265625-3.2431640625-3.76806640625-6.908203125-4.39599609375-10.990234375-.6279296875-5.9658203125.31396484375-11.328125,2.826171875-16.0927734375,2.51220703125-4.7607421875,5.9658203125-9.0791015625,10.36181640625-12.9521484375-5.65185546875-4.9189453125-9.15966796875-10.4130859375-10.51904296875-16.4853515625-1.361328125-6.068359375-.99560546875-11.8779296875,1.09912109375-17.4267578125,1.35888671875-3.662109375,3.2431640625-6.7236328125,5.65185546875-9.1845703125,2.40673828125-2.4580078125,5.1025390625-4.474609375,8.0859375-6.0439453125,2.98291015625-1.5703125,6.22607421875-2.748046875,9.73388671875-3.533203125,3.50537109375-.7841796875,7.0380859375-1.2802734375,10.59765625-1.4912109375,4.08154296875-.2080078125,8.13671875.314453125,12.16748046875,1.5703125,4.02783203125,1.255859375,7.666015625,3.037109375,10.9111328125,5.337890625,3.2431640625,2.3037109375,5.93896484375,5.05078125,8.08544921875,8.2421875,2.14404296875,3.1943359375,3.478515625,6.62109375,4.00390625,10.283203125.5224609375,3.6650390625.0244140625,7.51171875-1.49169921875,11.5400390625-1.5185546875,4.0302734375-4.37158203125,7.982421875-8.556640625,11.853515625-.10546875,0-.15673828125.02734375-.15673828125.078125,0,.0546875-.05419921875.0791015625-.1572265625.0791015625ZM174.93212890625,140.5234375c-.8388671875,2.5126953125-.94189453125,4.685546875-.31396484375,6.515625.6279296875,1.8330078125,1.6728515625,3.2724609375,3.14013671875,4.3173828125,1.46435546875,1.0478515625,3.24267578125,1.67578125,5.337890625,1.884765625,2.09228515625.2109375,4.13330078125-.0517578125,6.123046875-.78515625,2.72021484375-.9423828125,4.78857421875-2.4853515625,6.20166015625-4.6318359375,1.41259765625-2.1435546875,2.1708984375-4.4208984375,2.2763671875-6.8291015625.10302734375-2.4072265625-.47119140625-4.7890625-1.72705078125-7.1435546875-1.255859375-2.35546875-3.24560546875-4.2119140625-5.9658203125-5.57421875-1.46728515625.1064453125-2.95849609375.498046875-4.474609375,1.177734375-1.5185546875.6826171875-2.95849609375,1.5703125-4.3173828125,2.6689453125-1.36181640625,1.099609375-2.5908203125,2.3818359375-3.68994140625,3.8466796875-1.0986328125,1.466796875-1.96240234375,2.9833984375-2.59033203125,4.552734375ZM186.70703125,82.2763671875c-2.51171875,0-4.763671875.83984375-6.7509765625,2.5126953125-1.9892578125,1.6748046875-3.37548828125,3.6650390625-4.16015625,5.9658203125-.78515625,2.3037109375-.7607421875,4.685546875.078125,7.1435546875.83642578125,2.4599609375,2.77197265625,4.5283203125,5.80908203125,6.201171875,1.35888671875-.73046875,2.79931640625-1.4638671875,4.3173828125-2.1982421875,1.51611328125-.73046875,2.8505859375-1.6728515625,4.00390625-2.8251953125,2.82568359375-2.615234375,4.6044921875-4.9970703125,5.337890625-7.1435546875.73095703125-2.14453125.7578125-3.9765625.07861328125-5.4951171875-.68212890625-1.5166015625-1.83251953125-2.642578125-3.4541015625-3.3759765625-1.6240234375-.73046875-3.37548828125-.9931640625-5.259765625-.78515625Z" fill="none" stroke="#181818" stroke-linecap="round" stroke-linejoin="round" stroke-width="33"/>
        </g>
        <g>
          <path d="M115.58740234375,57.78515625c3.9765625,2.302734375,7.37890625,5.12890625,10.205078125,8.4775390625,2.82568359375,3.3515625,5.20556640625,7.013671875,7.1435546875,10.990234375,1.935546875,3.978515625,3.478515625,8.1904296875,4.63134765625,12.638671875,1.150390625,4.44921875,2.041015625,8.923828125,2.6689453125,13.4228515625,1.46435546875,8.8974609375,2.30126953125,17.8984375,2.51220703125,27.00390625.20849609375,9.1064453125.05126953125,18.2666015625-.47119140625,27.4755859375-.2109375,2.6171875-.41943359375,4.763671875-.6279296875,6.4365234375-.2109375,1.67578125-.603515625,3.037109375-1.177734375,4.08203125-.576171875,1.0478515625-1.38818359375,1.884765625-2.43310546875,2.5126953125-1.0478515625.6279296875-2.51220703125,1.2021484375-4.39599609375,1.7265625-1.78125.208984375-3.63818359375.365234375-5.57373046875.470703125-1.93798828125.103515625-3.74365234375-.4189453125-5.41650390625-1.5693359375-1.56982421875-1.044921875-2.8798828125-2.826171875-3.9248046875-5.337890625-1.0478515625-2.5126953125-1.6240234375-6.123046875-1.72705078125-10.8330078125v-1.5703125c-2.61767578125-.314453125-5.73046875-.57421875-9.341796875-.78515625-3.61083984375-.2080078125-7.30029296875-.3388671875-11.068359375-.392578125-3.76806640625-.0517578125-7.40576171875-.078125-10.91162109375-.078125h-8.8701171875c-.10546875.94140625-.23583984375,2.51171875-.392578125,4.7099609375-.1572265625,2.1982421875-.498046875,4.3955078125-1.0205078125,6.59375-.52490234375,2.1982421875-1.2314453125,4.1875-2.11962890625,5.9658203125-.890625,1.78125-2.11962890625,2.720703125-3.689453125,2.826171875-1.466796875.103515625-3.14013671875.208984375-5.02392578125.314453125-1.88427734375.1025390625-3.716796875-.10546875-5.4951171875-.6279296875-1.78076171875-.41796875-3.2724609375-1.2568359375-4.474609375-2.5126953125-1.20458984375-1.255859375-1.859375-3.2431640625-1.96240234375-5.9658203125,0-3.2431640625.0517578125-6.958984375.1572265625-11.146484375.10302734375-4.185546875.31396484375-8.73828125.6279296875-13.6591796875.20849609375-4.08203125.54931640625-8.556640625,1.0205078125-13.423828125.470703125-4.8671875,1.150390625-9.8642578125,2.041015625-14.9931640625.8876953125-5.126953125,2.041015625-10.2568359375,3.45361328125-15.38671875,1.4130859375-5.126953125,3.19189453125-9.9931640625,5.33837890625-14.6005859375,2.14404296875-4.6044921875,4.68310546875-8.84375,7.6142578125-12.716796875,2.92919921875-3.87109375,6.43701171875-7.1162109375,10.51904296875-9.734375,4.81298828125-3.0341796875,10.099609375-4.552734375,15.85693359375-4.552734375,5.75537109375,0,11.19873046875,1.4130859375,16.328125,4.2392578125ZM77.4365234375,129.2197265625c6.59375-.5224609375,13.16064453125-.9150390625,19.703125-1.177734375,6.5400390625-.259765625,13.10986328125-.287109375,19.70361328125-.078125.31396484375-7.4306640625,0-14.076171875-.94189453125-19.939453125-.94189453125-5.8603515625-2.251953125-10.8056640625-3.9248046875-14.8359375-1.67578125-4.0283203125-3.6650390625-7.1162109375-5.96630859375-9.2626953125-2.30322265625-2.14453125-4.658203125-3.21875-7.06494140625-3.21875-2.0947265625,0-4.26611328125,1.07421875-6.515625,3.21875-2.251953125,2.146484375-4.34423828125,5.2861328125-6.27978515625,9.419921875-1.93798828125,4.1357421875-3.689453125,9.23828125-5.25927734375,15.306640625-1.5703125,6.072265625-2.72314453125,12.9287109375-3.4541015625,20.5673828125Z" fill="#fff" stroke-width="0"/>
          <path d="M212.455078125,112.578125c4.7099609375,3.4541015625,8.05859375,7.4052734375,10.0478515625,11.853515625,1.9873046875,4.44921875,2.8505859375,8.9755859375,2.5908203125,13.580078125-.2626953125,4.607421875-1.5185546875,9.1064453125-3.76806640625,13.501953125-2.251953125,4.396484375-5.2080078125,8.26953125-8.87060546875,11.6181640625-3.6650390625,3.3505859375-7.92822265625,5.9931640625-12.79541015625,7.9287109375s-10.0234375,2.7470703125-15.46435546875,2.43359375c-3.5595703125-.2109375-7.2490234375-.9423828125-11.06884765625-2.1982421875-3.82177734375-1.255859375-7.3544921875-3.0078125-10.59716796875-5.259765625-3.24560546875-2.2490234375-6.02001953125-4.9970703125-8.3212890625-8.2421875-2.30322265625-3.2431640625-3.76806640625-6.908203125-4.39599609375-10.990234375-.6279296875-5.9658203125.31396484375-11.328125,2.826171875-16.0927734375,2.51220703125-4.7607421875,5.9658203125-9.0791015625,10.36181640625-12.9521484375-5.65185546875-4.9189453125-9.15966796875-10.4130859375-10.51904296875-16.4853515625-1.361328125-6.068359375-.99560546875-11.8779296875,1.09912109375-17.4267578125,1.35888671875-3.662109375,3.2431640625-6.7236328125,5.65185546875-9.1845703125,2.40673828125-2.4580078125,5.1025390625-4.474609375,8.0859375-6.0439453125,2.98291015625-1.5703125,6.22607421875-2.748046875,9.73388671875-3.533203125,3.50537109375-.7841796875,7.0380859375-1.2802734375,10.59765625-1.4912109375,4.08154296875-.2080078125,8.13671875.314453125,12.16748046875,1.5703125,4.02783203125,1.255859375,7.666015625,3.037109375,10.9111328125,5.337890625,3.2431640625,2.3037109375,5.93896484375,5.05078125,8.08544921875,8.2421875,2.14404296875,3.1943359375,3.478515625,6.62109375,4.00390625,10.283203125.5224609375,3.6650390625.0244140625,7.51171875-1.49169921875,11.5400390625-1.5185546875,4.0302734375-4.37158203125,7.982421875-8.556640625,11.853515625-.10546875,0-.15673828125.02734375-.15673828125.078125,0,.0546875-.05419921875.0791015625-.1572265625.0791015625ZM174.93212890625,140.5234375c-.8388671875,2.5126953125-.94189453125,4.685546875-.31396484375,6.515625.6279296875,1.8330078125,1.6728515625,3.2724609375,3.14013671875,4.3173828125,1.46435546875,1.0478515625,3.24267578125,1.67578125,5.337890625,1.884765625,2.09228515625.2109375,4.13330078125-.0517578125,6.123046875-.78515625,2.72021484375-.9423828125,4.78857421875-2.4853515625,6.20166015625-4.6318359375,1.41259765625-2.1435546875,2.1708984375-4.4208984375,2.2763671875-6.8291015625.10302734375-2.4072265625-.47119140625-4.7890625-1.72705078125-7.1435546875-1.255859375-2.35546875-3.24560546875-4.2119140625-5.9658203125-5.57421875-1.46728515625.1064453125-2.95849609375.498046875-4.474609375,1.177734375-1.5185546875.6826171875-2.95849609375,1.5703125-4.3173828125,2.6689453125-1.36181640625,1.099609375-2.5908203125,2.3818359375-3.68994140625,3.8466796875-1.0986328125,1.466796875-1.96240234375,2.9833984375-2.59033203125,4.552734375ZM186.70703125,82.2763671875c-2.51171875,0-4.763671875.83984375-6.7509765625,2.5126953125-1.9892578125,1.6748046875-3.37548828125,3.6650390625-4.16015625,5.9658203125-.78515625,2.3037109375-.7607421875,4.685546875.078125,7.1435546875.83642578125,2.4599609375,2.77197265625,4.5283203125,5.80908203125,6.201171875,1.35888671875-.73046875,2.79931640625-1.4638671875,4.3173828125-2.1982421875,1.51611328125-.73046875,2.8505859375-1.6728515625,4.00390625-2.8251953125,2.82568359375-2.615234375,4.6044921875-4.9970703125,5.337890625-7.1435546875.73095703125-2.14453125.7578125-3.9765625.07861328125-5.4951171875-.68212890625-1.5166015625-1.83251953125-2.642578125-3.4541015625-3.3759765625-1.6240234375-.73046875-3.37548828125-.9931640625-5.259765625-.78515625Z" fill="#fff" stroke-width="0"/>
        </g>
      </g>
    </a>
  </g>
</svg>