<?xml version="1.0" encoding="UTF-8"?>
<svg id="Pattern" xmlns="http://www.w3.org/2000/svg" xmlns:xlink="http://www.w3.org/1999/xlink" viewBox="0 0 280 280">
  <defs>
    <linearGradient id="B2-3" data-name="B2" x1="103.056734568408501" y1="260.400542407927787" x2="176.27021561642141" y2="125.605628702730314" gradientUnits="userSpaceOnUse">
      <stop offset="0" stop-color="#2d7f98"/>
      <stop offset=".5" stop-color="#008693"/>
      <stop offset="1" stop-color="#008c8d"/>
    </linearGradient>
  </defs>
  <a xlink:href="https://www.notion.so/dmmnotes/B2-317d81273fff4cd9817cdf4a88efd378?pvs=4#c9d670214a7a4332a7440ba0b9fa6595">
    <g id="B2">
      <a xlink:href="https://www.notion.so/dmmnotes/B2-317d81273fff4cd9817cdf4a88efd378?pvs=4#c9d670214a7a4332a7440ba0b9fa6595">
        <g id="B2-2" data-name="B2">
          <path d="M140.0546875,259.3974609375c-23.908203125,0-46.17822265625-12.8486328125-58.12060546875-33.533203125-18.4853515625-32.017578125-7.47607421875-73.10546875,24.54150390625-91.5908203125,10.189453125-5.8828125,21.76318359375-8.9921875,33.4697265625-8.9921875,23.908203125,0,46.1787109375,12.849609375,58.12060546875,33.5341796875,8.95458984375,15.509765625,11.33349609375,33.578125,6.6982421875,50.8779296875-4.63525390625,17.298828125-15.72998046875,31.7578125-31.23974609375,40.7119140625-10.189453125,5.8828125-21.76318359375,8.9921875-33.4697265625,8.9921875Z" fill="url(#B2-3)" stroke-width="0"/>
          <path d="M139.945281982421875,133.781219482421875c20.235687255859375-.001068115234375,39.9144287109375,10.5001220703125,50.759429931641534,29.284149169921875,16.167755126952216,28.00341796875,6.573059082030341,63.811248779296875-21.430358886719659,79.97906494140625-9.219390869140625,5.322784423828125-19.28778076171875,7.853759765625-29.219635009765625,7.853759765625-20.235687255859375,0-39.9144287109375-10.500091552734375-50.759429931639716-29.28411865234375-16.167755126954034-28.00341796875-6.573059082032159-63.811248779296875,21.430358886717841-79.97906494140625,9.219390869140625-5.32281494140625,19.28778076171875-7.853271484375,29.219635009765625-7.853790283203125M139.948364257813409,116.78118896484375v17l-.000762939454034-17c-13.2001953125.000701904296875-26.243072509765625,3.504058837890625-37.721954345703125,10.13140869140625-36.076644897460938,20.828887939453125-48.481582641601562,67.1248779296875-27.652770996092841,103.20147705078125,13.455825805663153,23.306121826171875,38.546997070311591,37.78411865234375,65.481842041014716,37.78411865234375,13.1962890625,0,26.239471435546875-3.50335693359375,37.719573974610284-10.13128662109375,36.076721191405341-20.828948974609375,48.481658935545966-67.12493896484375,27.65283203125-103.2015380859375-13.455841064454034-23.306121826171875-38.545837402344659-37.7841796875-65.478759765625-37.7841796875h0Z" fill="#181818" stroke-width="0"/>
        </g>
      </a>
      <a xlink:href="https://www.notion.so/dmmnotes/B2-317d81273fff4cd9817cdf4a88efd378?pvs=4#c9d670214a7a4332a7440ba0b9fa6595">
        <g>
          <g>
            <path d="M126.96875,111.4794921875c4.6044921875,3.5595703125,8.0322265625,7.982421875,10.2841796875,13.2666015625,2.2490234375,5.287109375,2.9560546875,10.7548828125,2.119140625,16.40625-.9423828125,6.3857421875-3.4541015625,11.7509765625-7.5361328125,16.0927734375-4.08203125,4.3447265625-8.8974609375,7.771484375-14.4443359375,10.283203125-5.548828125,2.5126953125-11.5390625,4.1875-17.9765625,5.0244140625-6.4365234375.8369140625-12.4814453125.9423828125-18.1328125.314453125-.525390625.2080078125-.99609375.337890625-1.4130859375.392578125-.419921875.05078125-.890625.1298828125-1.4130859375.2353515625-1.8837890625.1025390625-3.822265625.1025390625-5.80859375,0-1.990234375-.10546875-3.7958984375-.447265625-5.4169921875-1.0205078125-1.6240234375-.57421875-3.009765625-1.5166015625-4.16015625-2.826171875-1.1533203125-1.3076171875-1.8330078125-3.1650390625-2.041015625-5.5732421875-.2109375-1.1513671875-.2626953125-3.478515625-.1572265625-6.9873046875.1025390625-3.5048828125.2080078125-7.771484375.3134765625-12.794921875.208984375-5.126953125.392578125-10.701171875.5498046875-16.720703125.1572265625-6.017578125.287109375-12.0615234375.392578125-18.1337890625.103515625-7.953125.208984375-15.9599609375.314453125-24.0205078125.1025390625-8.05859375-.2109375-16.1708984375-.9423828125-24.3349609375-.2109375-.9423828125-.10546875-1.7783203125.314453125-2.51171875.2080078125-.62890625.6787109375-1.2294921875,1.412109375-1.8056640625.7314453125-.57421875,1.830078125-.966796875,3.2978515625-1.177734375,1.044921875-.103515625,2.197265625-.259765625,3.453125-.470703125,1.2568359375-.208984375,2.564453125-.3662109375,3.92578125-.4716796875,1.3583984375-.1025390625,2.6689453125-.1025390625,3.9248046875,0,1.255859375.10546875,2.3544921875.314453125,3.296875.6279296875,5.337890625-.73046875,10.9365234375-.7578125,16.798828125-.078125,5.8603515625.681640625,11.3828125,2.068359375,16.5634765625,4.16015625,5.181640625,2.095703125,9.6806640625,4.89453125,13.501953125,8.3994140625,3.8193359375,3.5087890625,6.3583984375,7.771484375,7.615234375,12.7958984375.5224609375,2.1982421875.8359375,4.501953125.94140625,6.908203125.103515625,2.4091796875-.1572265625,4.8935546875-.78515625,7.45703125-.6279296875,2.56640625-1.6484375,5.2353515625-3.0615234375,8.0068359375-1.4130859375,2.775390625-3.3232421875,5.6279296875-5.73046875,8.556640625ZM86.1494140625,102.216796875c5.0234375.2109375,9.2626953125-.314453125,12.716796875-1.5703125s6.0439453125-2.904296875,7.771484375-4.9453125c1.7265625-2.041015625,2.5634765625-4.263671875,2.51171875-6.6728515625-.0537109375-2.40625-.96875-4.552734375-2.7470703125-6.4365234375-1.78125-1.8837890625-4.4501953125-3.3212890625-8.0068359375-4.3173828125-3.5595703125-.9931640625-8.0615234375-1.1240234375-13.5029296875-.392578125.314453125,4.08203125.5498046875,8.1123046875.70703125,12.0888671875.1572265625,3.9794921875.3388671875,8.0615234375.5498046875,12.24609375ZM86.6201171875,147.7470703125c5.65234375.6279296875,10.4130859375.3681640625,14.287109375-.78515625,3.87109375-1.150390625,6.775390625-2.720703125,8.712890625-4.7099609375,1.935546875-1.9873046875,2.9296875-4.1337890625,2.9833984375-6.4375.0517578125-2.30078125-.86328125-4.2900390625-2.7470703125-5.9658203125-1.884765625-1.6728515625-4.7646484375-2.798828125-8.6357421875-3.375-3.873046875-.57421875-8.740234375-.181640625-14.6005859375,1.1767578125v20.0966796875Z" fill="none" stroke="#181818" stroke-linecap="round" stroke-linejoin="round" stroke-width="33"/>
            <path d="M214.5751953125,147.9033203125c.73046875,0,1.3076171875.341796875,1.7265625,1.0205078125.4169921875.6826171875.7578125,1.4677734375,1.0205078125,2.35546875.259765625.890625.4169921875,1.8056640625.4716796875,2.7470703125.05078125.9423828125.078125,1.6240234375.078125,2.041015625,0,1.884765625-.0537109375,3.8466796875-.1572265625,5.8876953125-.10546875,2.041015625-.3134765625,3.9248046875-.6279296875,5.65234375-.3134765625,1.7265625-.78515625,3.1943359375-1.4130859375,4.3955078125-.6279296875,1.2021484375-1.5185546875,1.9091796875-2.6689453125,2.1201171875-.5244140625.2080078125-1.6484375.259765625-3.375.1572265625-1.7275390625-.10546875-3.794921875-.2626953125-6.2021484375-.4716796875-2.51171875-.2109375-5.2080078125-.392578125-8.0849609375-.548828125-2.8798828125-.1572265625-5.8359375-.2900390625-8.87109375-.392578125-3.037109375-.10546875-5.9658203125-.1572265625-8.7919921875-.1572265625s-5.337890625.0517578125-7.5361328125.1572265625c-1.8837890625.2080078125-4.2138671875.3134765625-6.986328125.3134765625-2.7744140625,0-5.15625-.1572265625-7.1435546875-.470703125-1.5693359375-.314453125-2.7744140625-1.54296875-3.6103515625-3.689453125-.8388671875-2.14453125-1.3349609375-4.68359375-1.4921875-7.6142578125-.15625-2.9296875.0791015625-5.9912109375.70703125-9.1845703125.6279296875-3.19140625,1.5693359375-5.9912109375,2.826171875-8.3994140625,1.986328125-3.4541015625,4.23828125-6.5673828125,6.7509765625-9.341796875,2.51171875-2.7724609375,5.126953125-5.44140625,7.849609375-8.0068359375,2.720703125-2.5634765625,5.4951171875-5.154296875,8.3212890625-7.771484375,2.826171875-2.615234375,5.59765625-5.44140625,8.3203125-8.478515625,1.1513671875-1.255859375,2.4580078125-3.0859375,3.92578125-5.4951171875,1.4638671875-2.40625,2.5634765625-4.8125,3.296875-7.2216796875.94140625-3.1396484375.8876953125-5.546875-.1572265625-7.2216796875-1.0478515625-1.673828125-2.5390625-2.6943359375-4.474609375-3.0615234375-1.9375-.3662109375-4.0576171875-.103515625-6.3583984375.78515625-2.3037109375.8896484375-4.29296875,2.330078125-5.9658203125,4.3173828125-1.466796875,1.8837890625-2.5390625,4.08203125-3.21875,6.59375-.681640625,2.51171875-.5498046875,5.078125.392578125,7.693359375.208984375.5244140625.4443359375,1.1259765625.7060546875,1.8046875.2607421875.6826171875.4443359375,1.3349609375.5498046875,1.962890625.103515625,1.466796875-.86328125,2.9580078125-2.904296875,4.474609375-2.041015625,1.5185546875-4.4228515625,2.6171875-7.1435546875,3.296875-2.72265625.681640625-5.3916015625.7333984375-8.0068359375.1572265625-2.6171875-.57421875-4.4501953125-2.22265625-5.4951171875-4.9453125-1.1533203125-3.7685546875-1.6484375-7.509765625-1.4912109375-11.2255859375.15625-3.71484375.78515625-7.3251953125,1.8837890625-10.8330078125,1.0986328125-3.505859375,2.6689453125-6.830078125,4.7099609375-9.9697265625s4.4208984375-5.912109375,7.1435546875-8.3212890625c2.9287109375-2.615234375,6.3046875-4.7099609375,10.1259765625-6.2802734375,3.8203125-1.5693359375,7.771484375-2.51171875,11.853515625-2.8251953125,4.08203125-.314453125,8.0859375.0537109375,12.0107421875,1.0986328125,3.9248046875,1.0478515625,7.4580078125,2.931640625,10.59765625,5.65234375,2.51171875,2.0947265625,4.4990234375,4.474609375,5.9658203125,7.1435546875,1.46484375,2.6689453125,2.51171875,5.494140625,3.140625,8.4775390625.6279296875,2.9833984375.86328125,6.044921875.7060546875,9.1845703125s-.603515625,6.2802734375-1.3349609375,9.419921875c-1.15234375,4.607421875-2.904296875,8.7919921875-5.2587890625,12.560546875-2.35546875,3.767578125-5,7.353515625-7.9287109375,10.75390625-2.931640625,3.40234375-6.044921875,6.69921875-9.341796875,9.890625-3.296875,3.1943359375-6.515625,6.46484375-9.6552734375,9.8125,10.1513671875-.4169921875,20.3564453125-.4169921875,30.615234375,0Z" fill="none" stroke="#181818" stroke-linecap="round" stroke-linejoin="round" stroke-width="33"/>
          </g>
          <g>
            <path d="M126.96875,111.4794921875c4.6044921875,3.5595703125,8.0322265625,7.982421875,10.2841796875,13.2666015625,2.2490234375,5.287109375,2.9560546875,10.7548828125,2.119140625,16.40625-.9423828125,6.3857421875-3.4541015625,11.7509765625-7.5361328125,16.0927734375-4.08203125,4.3447265625-8.8974609375,7.771484375-14.4443359375,10.283203125-5.548828125,2.5126953125-11.5390625,4.1875-17.9765625,5.0244140625-6.4365234375.8369140625-12.4814453125.9423828125-18.1328125.314453125-.525390625.2080078125-.99609375.337890625-1.4130859375.392578125-.419921875.05078125-.890625.1298828125-1.4130859375.2353515625-1.8837890625.1025390625-3.822265625.1025390625-5.80859375,0-1.990234375-.10546875-3.7958984375-.447265625-5.4169921875-1.0205078125-1.6240234375-.57421875-3.009765625-1.5166015625-4.16015625-2.826171875-1.1533203125-1.3076171875-1.8330078125-3.1650390625-2.041015625-5.5732421875-.2109375-1.1513671875-.2626953125-3.478515625-.1572265625-6.9873046875.1025390625-3.5048828125.2080078125-7.771484375.3134765625-12.794921875.208984375-5.126953125.392578125-10.701171875.5498046875-16.720703125.1572265625-6.017578125.287109375-12.0615234375.392578125-18.1337890625.103515625-7.953125.208984375-15.9599609375.314453125-24.0205078125.1025390625-8.05859375-.2109375-16.1708984375-.9423828125-24.3349609375-.2109375-.9423828125-.10546875-1.7783203125.314453125-2.51171875.2080078125-.62890625.6787109375-1.2294921875,1.412109375-1.8056640625.7314453125-.57421875,1.830078125-.966796875,3.2978515625-1.177734375,1.044921875-.103515625,2.197265625-.259765625,3.453125-.470703125,1.2568359375-.208984375,2.564453125-.3662109375,3.92578125-.4716796875,1.3583984375-.1025390625,2.6689453125-.1025390625,3.9248046875,0,1.255859375.10546875,2.3544921875.314453125,3.296875.6279296875,5.337890625-.73046875,10.9365234375-.7578125,16.798828125-.078125,5.8603515625.681640625,11.3828125,2.068359375,16.5634765625,4.16015625,5.181640625,2.095703125,9.6806640625,4.89453125,13.501953125,8.3994140625,3.8193359375,3.5087890625,6.3583984375,7.771484375,7.615234375,12.7958984375.5224609375,2.1982421875.8359375,4.501953125.94140625,6.908203125.103515625,2.4091796875-.1572265625,4.8935546875-.78515625,7.45703125-.6279296875,2.56640625-1.6484375,5.2353515625-3.0615234375,8.0068359375-1.4130859375,2.775390625-3.3232421875,5.6279296875-5.73046875,8.556640625ZM86.1494140625,102.216796875c5.0234375.2109375,9.2626953125-.314453125,12.716796875-1.5703125s6.0439453125-2.904296875,7.771484375-4.9453125c1.7265625-2.041015625,2.5634765625-4.263671875,2.51171875-6.6728515625-.0537109375-2.40625-.96875-4.552734375-2.7470703125-6.4365234375-1.78125-1.8837890625-4.4501953125-3.3212890625-8.0068359375-4.3173828125-3.5595703125-.9931640625-8.0615234375-1.1240234375-13.5029296875-.392578125.314453125,4.08203125.5498046875,8.1123046875.70703125,12.0888671875.1572265625,3.9794921875.3388671875,8.0615234375.5498046875,12.24609375ZM86.6201171875,147.7470703125c5.65234375.6279296875,10.4130859375.3681640625,14.287109375-.78515625,3.87109375-1.150390625,6.775390625-2.720703125,8.712890625-4.7099609375,1.935546875-1.9873046875,2.9296875-4.1337890625,2.9833984375-6.4375.0517578125-2.30078125-.86328125-4.2900390625-2.7470703125-5.9658203125-1.884765625-1.6728515625-4.7646484375-2.798828125-8.6357421875-3.375-3.873046875-.57421875-8.740234375-.181640625-14.6005859375,1.1767578125v20.0966796875Z" fill="#fff" stroke-width="0"/>
            <path d="M214.5751953125,147.9033203125c.73046875,0,1.3076171875.341796875,1.7265625,1.0205078125.4169921875.6826171875.7578125,1.4677734375,1.0205078125,2.35546875.259765625.890625.4169921875,1.8056640625.4716796875,2.7470703125.05078125.9423828125.078125,1.6240234375.078125,2.041015625,0,1.884765625-.0537109375,3.8466796875-.1572265625,5.8876953125-.10546875,2.041015625-.3134765625,3.9248046875-.6279296875,5.65234375-.3134765625,1.7265625-.78515625,3.1943359375-1.4130859375,4.3955078125-.6279296875,1.2021484375-1.5185546875,1.9091796875-2.6689453125,2.1201171875-.5244140625.2080078125-1.6484375.259765625-3.375.1572265625-1.7275390625-.10546875-3.794921875-.2626953125-6.2021484375-.4716796875-2.51171875-.2109375-5.2080078125-.392578125-8.0849609375-.548828125-2.8798828125-.1572265625-5.8359375-.2900390625-8.87109375-.392578125-3.037109375-.10546875-5.9658203125-.1572265625-8.7919921875-.1572265625s-5.337890625.0517578125-7.5361328125.1572265625c-1.8837890625.2080078125-4.2138671875.3134765625-6.986328125.3134765625-2.7744140625,0-5.15625-.1572265625-7.1435546875-.470703125-1.5693359375-.314453125-2.7744140625-1.54296875-3.6103515625-3.689453125-.8388671875-2.14453125-1.3349609375-4.68359375-1.4921875-7.6142578125-.15625-2.9296875.0791015625-5.9912109375.70703125-9.1845703125.6279296875-3.19140625,1.5693359375-5.9912109375,2.826171875-8.3994140625,1.986328125-3.4541015625,4.23828125-6.5673828125,6.7509765625-9.341796875,2.51171875-2.7724609375,5.126953125-5.44140625,7.849609375-8.0068359375,2.720703125-2.5634765625,5.4951171875-5.154296875,8.3212890625-7.771484375,2.826171875-2.615234375,5.59765625-5.44140625,8.3203125-8.478515625,1.1513671875-1.255859375,2.4580078125-3.0859375,3.92578125-5.4951171875,1.4638671875-2.40625,2.5634765625-4.8125,3.296875-7.2216796875.94140625-3.1396484375.8876953125-5.546875-.1572265625-7.2216796875-1.0478515625-1.673828125-2.5390625-2.6943359375-4.474609375-3.0615234375-1.9375-.3662109375-4.0576171875-.103515625-6.3583984375.78515625-2.3037109375.8896484375-4.29296875,2.330078125-5.9658203125,4.3173828125-1.466796875,1.8837890625-2.5390625,4.08203125-3.21875,6.59375-.681640625,2.51171875-.5498046875,5.078125.392578125,7.693359375.208984375.5244140625.4443359375,1.1259765625.7060546875,1.8046875.2607421875.6826171875.4443359375,1.3349609375.5498046875,1.962890625.103515625,1.466796875-.86328125,2.9580078125-2.904296875,4.474609375-2.041015625,1.5185546875-4.4228515625,2.6171875-7.1435546875,3.296875-2.72265625.681640625-5.3916015625.7333984375-8.0068359375.1572265625-2.6171875-.57421875-4.4501953125-2.22265625-5.4951171875-4.9453125-1.1533203125-3.7685546875-1.6484375-7.509765625-1.4912109375-11.2255859375.15625-3.71484375.78515625-7.3251953125,1.8837890625-10.8330078125,1.0986328125-3.505859375,2.6689453125-6.830078125,4.7099609375-9.9697265625s4.4208984375-5.912109375,7.1435546875-8.3212890625c2.9287109375-2.615234375,6.3046875-4.7099609375,10.1259765625-6.2802734375,3.8203125-1.5693359375,7.771484375-2.51171875,11.853515625-2.8251953125,4.08203125-.314453125,8.0859375.0537109375,12.0107421875,1.0986328125,3.9248046875,1.0478515625,7.4580078125,2.931640625,10.59765625,5.65234375,2.51171875,2.0947265625,4.4990234375,4.474609375,5.9658203125,7.1435546875,1.46484375,2.6689453125,2.51171875,5.494140625,3.140625,8.4775390625.6279296875,2.9833984375.86328125,6.044921875.7060546875,9.1845703125s-.603515625,6.2802734375-1.3349609375,9.419921875c-1.15234375,4.607421875-2.904296875,8.7919921875-5.2587890625,12.560546875-2.35546875,3.767578125-5,7.353515625-7.9287109375,10.75390625-2.931640625,3.40234375-6.044921875,6.69921875-9.341796875,9.890625-3.296875,3.1943359375-6.515625,6.46484375-9.6552734375,9.8125,10.1513671875-.4169921875,20.3564453125-.4169921875,30.615234375,0Z" fill="#fff" stroke-width="0"/>
          </g>
        </g>
      </a>
    </g>
  </a>
</svg>