<?xml version="1.0" encoding="UTF-8"?>
<svg id="Pattern" xmlns="http://www.w3.org/2000/svg" xmlns:xlink="http://www.w3.org/1999/xlink" viewBox="0 0 280 280">
  <defs>
    <linearGradient id="A4" x1="42.049091139237134" y1="252.537361128755947" x2="132.478373808004136" y2="139.27240101839493" gradientUnits="userSpaceOnUse">
      <stop offset="0" stop-color="#7d67a2"/>
      <stop offset=".385181145631382" stop-color="#895ea4"/>
      <stop offset=".489316239316239" stop-color="#8e5ba6"/>
      <stop offset=".841924594895194" stop-color="#9a5c9d"/>
      <stop offset="1" stop-color="#a25d99"/>
    </linearGradient>
    <linearGradient id="C4" x1="115.541848108841805" y1="279.469808407133314" x2="274.992643595555876" y2="92.645485798258164" gradientUnits="userSpaceOnUse">
      <stop offset="0" stop-color="#7e9e4c"/>
      <stop offset=".487868088942308" stop-color="#91a23d"/>
      <stop offset=".713373248351595" stop-color="#9d9c43"/>
      <stop offset="1" stop-color="#b4924e"/>
    </linearGradient>
  </defs>
  <a xlink:href="https://www.notion.so/dmmnotes/Type-AC-fcafcf3712bd425293abdb7055fe3005?pvs=4">
    <g id="AC">
      <a xlink:href="https://www.notion.so/dmmnotes/Type-AC-fcafcf3712bd425293abdb7055fe3005?pvs=4">
        <g id="A">
          <path d="M90.09765625,259.404296875c-29.12646484375,0-54.74755859375-18.625-63.75439453125-46.3447265625-5.5341796875-17.033203125-4.1044921875-35.2021484375,4.0263671875-51.1591796875,8.13037109375-15.9580078125,21.98876953125-27.7939453125,39.021484375-33.328125,6.73388671875-2.1875,13.70849609375-3.296875,20.73095703125-3.296875,29.126953125,0,54.74853515625,18.6240234375,63.75537109375,46.3447265625,5.5341796875,17.033203125,4.1044921875,35.201171875-4.0263671875,51.1591796875-8.130859375,15.95703125-21.98876953125,27.79296875-39.02197265625,33.3271484375-6.73388671875,2.1884765625-13.708984375,3.2978515625-20.7314453125,3.2978515625Z" fill="url(#A4)" stroke-width="0"/>
          <path d="M90.1221923828125,133.775146484375c24.6810302734375-.00079345703125,47.6318359375,15.729248046875,55.67120361328125,40.4720458984375,9.99224853515625,30.7529296875-6.83758544921875,63.783447265625-37.590576171875,73.775634765626819-6.01019287109375,1.952819824220569-12.1092529296875,2.881408691400793-18.10443115234375,2.881408691400793-24.6810302734375,0-47.63189697265625-15.729187011715112-55.6712646484375-40.471984863277612-9.9921875-30.7529296875,6.837646484375-63.783447265625,37.59063720703125-73.77569580078125,6.01019287109375-1.95281982421875,12.10919189453125-2.8812255859375,18.10443115234375-2.88140869140625M90.1240234375,116.775146484375h-.00250244140625c-7.91595458984375.00030517578125-15.7744140625,1.24969482421875-23.3570556640625,3.71343994140625-39.6187744140625,12.8729248046875-61.378173828125,55.57806396484375-48.50531005859375,95.1968994140625,5.029052734375,15.47796630859375,14.66876220703125,28.649658203126819,27.876953125,38.091247558595569,12.92950439453125,9.242309570310681,28.13134765625,14.127563476560681,43.9622802734375,14.127563476560681,7.9154052734375,0,15.7740478515625-1.24951171875,23.35772705078125-3.713500976560681,19.192138671875-6.23583984375,34.80712890625-19.572326660159888,43.96856689453125-37.552673339845569,9.16143798828125-17.98028564453125,10.7725830078125-38.45208740234375,4.53668212890625-57.64422607421875-5.02880859375-15.47711181640625-14.668212890625-28.6485595703125-27.876220703125-38.09039306640625-12.92950439453125-9.242919921875-28.131103515625-14.12835693359375-43.96112060546875-14.12835693359375h0Z" fill="#181818" stroke-width="0"/>
        </g>
      </a>
      <a xlink:href="https://www.notion.so/dmmnotes/Type-AC-fcafcf3712bd425293abdb7055fe3005?pvs=4">
        <g id="C">
          <path d="M189.90576171875,259.388671875c-36.970703125,0-67.048828125-30.078125-67.048828125-67.048828125s30.07763671875-67.048828125,67.04833984375-67.048828125,67.048828125,30.078125,67.048828125,67.048828125-30.07763671875,67.048828125-67.04833984375,67.048828125Z" fill="url(#C4)" stroke-width="0"/>
          <path d="M189.90557861328125,133.791015625c32.33282470703125,0,58.548614501953125,26.215087890625,58.548675537109375,58.54864501953125.000030517578125,32.3355712890625-26.213104248046875,58.548706054689319-58.548675537109375,58.548767089849207-.001953125,0,.00189208984375,0-.0001220703125,0-32.33282470703125,0-58.548583984375-26.215087890630457-58.54864501953125-58.548645019536707-.00006103515625-32.3355712890625,26.21307373046875-58.54876708984375,58.54864501953125-58.54876708984375.001953125,0-.00189208984375,0,.0001220703125,0M189.90557861328125,116.791015625c-20.1798095703125,0-39.15185546875,7.8583984375-53.421142578125,22.127685546875-14.26922607421875,14.26934814453125-22.127685546875,33.24127197265625-22.12762451171875,53.421142578125.00006103515625,41.6575927734375,33.89105224609375,75.548583984380457,75.54864501953125,75.548583984380457,20.17987060546875,0,39.151824951171875-7.858459472659888,53.421112060546875-22.127746582040345,14.269287109375-14.269287109371362,22.127716064453125-33.241210937496362,22.127685546875-53.421081542965112-.00006103515625-41.6575927734375-33.891082763671875-75.548583984375-75.548675537109375-75.548583984375h0Z" fill="#181818" stroke-width="0"/>
        </g>
      </a>
      <a xlink:href="https://www.notion.so/dmmnotes/Type-AC-fcafcf3712bd425293abdb7055fe3005?pvs=4">
        <g id="AC-2" data-name="AC">
          <g>
            <path d="M113.861328125,57.78515625c3.9765625,2.302734375,7.37890625,5.12890625,10.205078125,8.478515625,2.82568359375,3.3515625,5.20556640625,7.013671875,7.1435546875,10.990234375,1.935546875,3.978515625,3.478515625,8.189453125,4.63134765625,12.638671875,1.150390625,4.44921875,2.041015625,8.923828125,2.6689453125,13.421875,1.46435546875,8.8984375,2.30126953125,17.8984375,2.51220703125,27.00390625.20849609375,9.107421875.05126953125,18.267578125-.47119140625,27.4765625-.2109375,2.6171875-.41943359375,4.763671875-.6279296875,6.435546875-.2109375,1.67578125-.603515625,3.037109375-1.177734375,4.08203125-.576171875,1.048828125-1.38818359375,1.884765625-2.43310546875,2.513671875-1.0478515625.626953125-2.51220703125,1.201171875-4.39599609375,1.7265625-1.78125.208984375-3.63818359375.365234375-5.57373046875.470703125-1.93798828125.103515625-3.74365234375-.419921875-5.41650390625-1.5703125-1.56982421875-1.044921875-2.8798828125-2.826171875-3.9248046875-5.337890625-1.0478515625-2.51171875-1.6240234375-6.123046875-1.72705078125-10.83203125v-1.5703125c-2.61767578125-.314453125-5.73046875-.57421875-9.341796875-.78515625-3.61083984375-.208984375-7.30029296875-.33984375-11.068359375-.392578125s-7.40576171875-.078125-10.91162109375-.078125h-8.8701171875c-.10546875.94140625-.23583984375,2.51171875-.392578125,4.708984375-.1572265625,2.19921875-.498046875,4.396484375-1.0205078125,6.59375-.52490234375,2.19921875-1.2314453125,4.1875-2.11962890625,5.966796875-.890625,1.78125-2.11962890625,2.720703125-3.689453125,2.826171875-1.466796875.103515625-3.14013671875.208984375-5.02392578125.314453125-1.88427734375.1015625-3.716796875-.10546875-5.4951171875-.62890625-1.78076171875-.41796875-3.2724609375-1.255859375-4.474609375-2.51171875-1.20458984375-1.255859375-1.859375-3.244140625-1.96240234375-5.966796875,0-3.2421875.0517578125-6.958984375.1572265625-11.146484375.10302734375-4.185546875.31396484375-8.73828125.6279296875-13.658203125.20849609375-4.08203125.54931640625-8.556640625,1.0205078125-13.423828125.470703125-4.8671875,1.150390625-9.865234375,2.041015625-14.994140625.8876953125-5.126953125,2.041015625-10.255859375,3.45361328125-15.38671875,1.4130859375-5.126953125,3.19189453125-9.9921875,5.33837890625-14.599609375,2.14404296875-4.60546875,4.68310546875-8.84375,7.6142578125-12.716796875,2.92919921875-3.87109375,6.43701171875-7.1171875,10.51904296875-9.734375,4.81298828125-3.03515625,10.099609375-4.552734375,15.85693359375-4.552734375,5.75537109375,0,11.19873046875,1.412109375,16.328125,4.23828125ZM75.71044921875,129.220703125c6.59375-.5234375,13.16064453125-.916015625,19.703125-1.177734375,6.5400390625-.259765625,13.10986328125-.287109375,19.70361328125-.078125.31396484375-7.431640625,0-14.076171875-.94189453125-19.939453125-.94189453125-5.861328125-2.251953125-10.806640625-3.9248046875-14.8359375-1.67578125-4.029296875-3.6650390625-7.1171875-5.96630859375-9.263671875-2.30322265625-2.14453125-4.658203125-3.21875-7.06494140625-3.21875-2.0947265625,0-4.26611328125,1.07421875-6.515625,3.21875-2.251953125,2.146484375-4.34423828125,5.287109375-6.27978515625,9.419921875-1.93798828125,4.13671875-3.689453125,9.23828125-5.25927734375,15.306640625-1.5703125,6.072265625-2.72314453125,12.9296875-3.4541015625,20.568359375Z" fill="none" stroke="#181818" stroke-linecap="round" stroke-linejoin="round" stroke-width="33"/>
            <path d="M202.87890625,87.9296875c.10302734375-3.03515625-.39208984375-5.310546875-1.4912109375-6.830078125-1.09912109375-1.515625-2.48779296875-2.45703125-4.16064453125-2.826171875-1.67529296875-.365234375-3.48095703125-.181640625-5.41650390625.55078125-1.93798828125.732421875-3.689453125,1.779296875-5.25927734375,3.138671875-3.6650390625,3.140625-6.62109375,7.14453125-8.87060546875,12.01171875-2.251953125,4.865234375-3.76806640625,9.96875-4.55322265625,15.306640625-.78466796875,5.337890625-.8388671875,10.65234375-.15673828125,15.935546875.67919921875,5.287109375,2.1708984375,9.8671875,4.474609375,13.73828125,1.46435546875,2.51171875,3.21826171875,4.37109375,5.25927734375,5.572265625,2.041015625,1.205078125,4.2119140625,1.884765625,6.515625,2.041015625,2.30078125.158203125,4.57763671875-.208984375,6.82958984375-1.09765625,2.24951171875-.888671875,4.26318359375-2.22265625,6.04443359375-4.00390625,2.72021484375-2.720703125,4.91845703125-4.65625,6.59375-5.80859375,1.67333984375-1.15234375,3.55712890625-1.779296875,5.65234375-1.884765625,5.9658203125,0,9.91552734375,1.67578125,11.853515625,5.0234375,1.93505859375,3.3515625,2.0654296875,7.43359375.39208984375,12.24609375-1.361328125,3.767578125-3.42919921875,7.064453125-6.201171875,9.890625-2.7744140625,2.826171875-5.9931640625,5.103515625-9.65576171875,6.830078125-3.6650390625,1.7265625-7.58984375,2.931640625-11.77490234375,3.611328125-4.1875.6796875-8.32080078125.86328125-12.40283203125.548828125s-7.95556640625-1.177734375-11.6181640625-2.58984375c-3.6650390625-1.4140625-6.80517578125-3.322265625-9.419921875-5.73046875-2.931640625-2.720703125-5.4951171875-5.833984375-7.69287109375-9.341796875-2.1982421875-3.505859375-4.03076171875-7.22265625-5.4951171875-11.146484375-1.46728515625-3.92578125-2.56591796875-8.0078125-3.296875-12.24609375-.73388671875-4.240234375-1.09912109375-8.501953125-1.09912109375-12.794921875.20849609375-9.62890625,2.24951171875-18.943359375,6.123046875-27.947265625,3.87109375-9,9.00048828125-16.849609375,15.3857421875-23.548828125,2.92919921875-3.03515625,6.41015625-5.625,10.4404296875-7.771484375,4.0283203125-2.14453125,8.1640625-3.533203125,12.4033203125-4.162109375,4.23876953125-.626953125,8.3994140625-.416015625,12.4814453125.62890625,4.08203125,1.046875,7.69287109375,3.24609375,10.8330078125,6.59375,2.40625,2.51171875,4.341796875,5.392578125,5.80908203125,8.634765625,1.46435546875,3.24609375,2.5634765625,6.4921875,3.296875,9.734375.4169921875,2.095703125.60107421875,4.08203125.54931640625,5.966796875-.0537109375,1.8828125-.498046875,3.6640625-1.33447265625,5.337890625-1.15283203125,2.09375-2.93115234375,3.5859375-5.337890625,4.474609375-2.4091796875.890625-4.78857421875,1.17578125-7.1435546875.86328125-2.35498046875-.314453125-4.39599609375-1.23046875-6.123046875-2.748046875-1.72705078125-1.515625-2.5390625-3.583984375-2.43359375-6.201171875Z" fill="none" stroke="#181818" stroke-linecap="round" stroke-linejoin="round" stroke-width="33"/>
          </g>
          <g>
            <path d="M113.861328125,57.78515625c3.9765625,2.302734375,7.37890625,5.12890625,10.205078125,8.478515625,2.82568359375,3.3515625,5.20556640625,7.013671875,7.1435546875,10.990234375,1.935546875,3.978515625,3.478515625,8.189453125,4.63134765625,12.638671875,1.150390625,4.44921875,2.041015625,8.923828125,2.6689453125,13.421875,1.46435546875,8.8984375,2.30126953125,17.8984375,2.51220703125,27.00390625.20849609375,9.107421875.05126953125,18.267578125-.47119140625,27.4765625-.2109375,2.6171875-.41943359375,4.763671875-.6279296875,6.435546875-.2109375,1.67578125-.603515625,3.037109375-1.177734375,4.08203125-.576171875,1.048828125-1.38818359375,1.884765625-2.43310546875,2.513671875-1.0478515625.626953125-2.51220703125,1.201171875-4.39599609375,1.7265625-1.78125.208984375-3.63818359375.365234375-5.57373046875.470703125-1.93798828125.103515625-3.74365234375-.419921875-5.41650390625-1.5703125-1.56982421875-1.044921875-2.8798828125-2.826171875-3.9248046875-5.337890625-1.0478515625-2.51171875-1.6240234375-6.123046875-1.72705078125-10.83203125v-1.5703125c-2.61767578125-.314453125-5.73046875-.57421875-9.341796875-.78515625-3.61083984375-.208984375-7.30029296875-.33984375-11.068359375-.392578125s-7.40576171875-.078125-10.91162109375-.078125h-8.8701171875c-.10546875.94140625-.23583984375,2.51171875-.392578125,4.708984375-.1572265625,2.19921875-.498046875,4.396484375-1.0205078125,6.59375-.52490234375,2.19921875-1.2314453125,4.1875-2.11962890625,5.966796875-.890625,1.78125-2.11962890625,2.720703125-3.689453125,2.826171875-1.466796875.103515625-3.14013671875.208984375-5.02392578125.314453125-1.88427734375.1015625-3.716796875-.10546875-5.4951171875-.62890625-1.78076171875-.41796875-3.2724609375-1.255859375-4.474609375-2.51171875-1.20458984375-1.255859375-1.859375-3.244140625-1.96240234375-5.966796875,0-3.2421875.0517578125-6.958984375.1572265625-11.146484375.10302734375-4.185546875.31396484375-8.73828125.6279296875-13.658203125.20849609375-4.08203125.54931640625-8.556640625,1.0205078125-13.423828125.470703125-4.8671875,1.150390625-9.865234375,2.041015625-14.994140625.8876953125-5.126953125,2.041015625-10.255859375,3.45361328125-15.38671875,1.4130859375-5.126953125,3.19189453125-9.9921875,5.33837890625-14.599609375,2.14404296875-4.60546875,4.68310546875-8.84375,7.6142578125-12.716796875,2.92919921875-3.87109375,6.43701171875-7.1171875,10.51904296875-9.734375,4.81298828125-3.03515625,10.099609375-4.552734375,15.85693359375-4.552734375,5.75537109375,0,11.19873046875,1.412109375,16.328125,4.23828125ZM75.71044921875,129.220703125c6.59375-.5234375,13.16064453125-.916015625,19.703125-1.177734375,6.5400390625-.259765625,13.10986328125-.287109375,19.70361328125-.078125.31396484375-7.431640625,0-14.076171875-.94189453125-19.939453125-.94189453125-5.861328125-2.251953125-10.806640625-3.9248046875-14.8359375-1.67578125-4.029296875-3.6650390625-7.1171875-5.96630859375-9.263671875-2.30322265625-2.14453125-4.658203125-3.21875-7.06494140625-3.21875-2.0947265625,0-4.26611328125,1.07421875-6.515625,3.21875-2.251953125,2.146484375-4.34423828125,5.287109375-6.27978515625,9.419921875-1.93798828125,4.13671875-3.689453125,9.23828125-5.25927734375,15.306640625-1.5703125,6.072265625-2.72314453125,12.9296875-3.4541015625,20.568359375Z" fill="#fff" stroke-width="0"/>
            <path d="M202.87890625,87.9296875c.10302734375-3.03515625-.39208984375-5.310546875-1.4912109375-6.830078125-1.09912109375-1.515625-2.48779296875-2.45703125-4.16064453125-2.826171875-1.67529296875-.365234375-3.48095703125-.181640625-5.41650390625.55078125-1.93798828125.732421875-3.689453125,1.779296875-5.25927734375,3.138671875-3.6650390625,3.140625-6.62109375,7.14453125-8.87060546875,12.01171875-2.251953125,4.865234375-3.76806640625,9.96875-4.55322265625,15.306640625-.78466796875,5.337890625-.8388671875,10.65234375-.15673828125,15.935546875.67919921875,5.287109375,2.1708984375,9.8671875,4.474609375,13.73828125,1.46435546875,2.51171875,3.21826171875,4.37109375,5.25927734375,5.572265625,2.041015625,1.205078125,4.2119140625,1.884765625,6.515625,2.041015625,2.30078125.158203125,4.57763671875-.208984375,6.82958984375-1.09765625,2.24951171875-.888671875,4.26318359375-2.22265625,6.04443359375-4.00390625,2.72021484375-2.720703125,4.91845703125-4.65625,6.59375-5.80859375,1.67333984375-1.15234375,3.55712890625-1.779296875,5.65234375-1.884765625,5.9658203125,0,9.91552734375,1.67578125,11.853515625,5.0234375,1.93505859375,3.3515625,2.0654296875,7.43359375.39208984375,12.24609375-1.361328125,3.767578125-3.42919921875,7.064453125-6.201171875,9.890625-2.7744140625,2.826171875-5.9931640625,5.103515625-9.65576171875,6.830078125-3.6650390625,1.7265625-7.58984375,2.931640625-11.77490234375,3.611328125-4.1875.6796875-8.32080078125.86328125-12.40283203125.548828125s-7.95556640625-1.177734375-11.6181640625-2.58984375c-3.6650390625-1.4140625-6.80517578125-3.322265625-9.419921875-5.73046875-2.931640625-2.720703125-5.4951171875-5.833984375-7.69287109375-9.341796875-2.1982421875-3.505859375-4.03076171875-7.22265625-5.4951171875-11.146484375-1.46728515625-3.92578125-2.56591796875-8.0078125-3.296875-12.24609375-.73388671875-4.240234375-1.09912109375-8.501953125-1.09912109375-12.794921875.20849609375-9.62890625,2.24951171875-18.943359375,6.123046875-27.947265625,3.87109375-9,9.00048828125-16.849609375,15.3857421875-23.548828125,2.92919921875-3.03515625,6.41015625-5.625,10.4404296875-7.771484375,4.0283203125-2.14453125,8.1640625-3.533203125,12.4033203125-4.162109375,4.23876953125-.626953125,8.3994140625-.416015625,12.4814453125.62890625,4.08203125,1.046875,7.69287109375,3.24609375,10.8330078125,6.59375,2.40625,2.51171875,4.341796875,5.392578125,5.80908203125,8.634765625,1.46435546875,3.24609375,2.5634765625,6.4921875,3.296875,9.734375.4169921875,2.095703125.60107421875,4.08203125.54931640625,5.966796875-.0537109375,1.8828125-.498046875,3.6640625-1.33447265625,5.337890625-1.15283203125,2.09375-2.93115234375,3.5859375-5.337890625,4.474609375-2.4091796875.890625-4.78857421875,1.17578125-7.1435546875.86328125-2.35498046875-.314453125-4.39599609375-1.23046875-6.123046875-2.748046875-1.72705078125-1.515625-2.5390625-3.583984375-2.43359375-6.201171875Z" fill="#fff" stroke-width="0"/>
          </g>
        </g>
      </a>
    </g>
  </a>
</svg>