<?xml version="1.0" encoding="UTF-8"?>
<svg id="Pattern" xmlns="http://www.w3.org/2000/svg" xmlns:xlink="http://www.w3.org/1999/xlink" viewBox="0 0 280 280">
  <defs>
    <linearGradient id="C8-3" data-name="C8" x1="190.550333578135906" y1="118.301476388063747" x2="100.213388594328222" y2="250.613163485600495" gradientUnits="userSpaceOnUse">
      <stop offset="0" stop-color="#d3805f"/>
      <stop offset=".497863247863248" stop-color="#e17465"/>
      <stop offset="1" stop-color="#f1666a"/>
    </linearGradient>
  </defs>
  <g id="C8">
    <g id="C8-2" data-name="C8">
      <path d="M140,259.388671875c-36.970703125,0-67.048828125-30.078125-67.048828125-67.048828125s30.078125-67.048828125,67.048828125-67.048828125,67.048828125,30.078125,67.048828125,67.048828125-30.078125,67.048828125-67.048828125,67.048828125Z" fill="url(#C8-3)" stroke-width="0"/>
      <path d="M140,133.79099178314209c32.3355712890625,0,58.5487060546875,26.213166236877441,58.5487060546875,58.548722267150879s-26.213134765625,58.548721313477472-58.5487060546875,58.548721313477472-58.5487060546875-26.213165283204034-58.5487060546875-58.548721313477472,26.213134765625-58.548722267150879,58.5487060546875-58.548722267150879M140,116.790992736816406c-41.65771484375,0-75.5487060546875,33.890998840332031-75.5487060546875,75.548721313476562s33.8909912109375,75.548721313477472,75.5487060546875,75.548721313477472,75.5487060546875-33.890998840332941,75.5487060546875-75.548721313477472-33.8909912109375-75.548721313476562-75.5487060546875-75.548721313476562h0Z" fill="#181818" stroke-width="0"/>
    </g>
    <a xlink:href="https://www.notion.so/dmmnotes/C8-ae38b1e6af0c4dd08f61e0d8f6e9f05f?pvs=4#bab770dbe6a349e1908b845ec7c4b293">
      <g>
        <g>
          <path d="M113.154296875,87.9296875c.1025390625-3.0341796875-.392578125-5.310546875-1.4921875-6.8291015625-1.0986328125-1.5166015625-2.4873046875-2.4580078125-4.16015625-2.826171875-1.67578125-.365234375-3.48046875-.181640625-5.416015625.5498046875-1.9384765625.7333984375-3.689453125,1.7802734375-5.259765625,3.1396484375-3.6650390625,3.1396484375-6.62109375,7.1435546875-8.87109375,12.0107421875-2.251953125,4.8662109375-3.767578125,9.96875-4.552734375,15.3076171875-.78515625,5.337890625-.8388671875,10.6513671875-.15625,15.935546875.6787109375,5.2861328125,2.169921875,9.8662109375,4.474609375,13.7373046875,1.4638671875,2.51171875,3.2177734375,4.37109375,5.2587890625,5.5732421875,2.041015625,1.2041015625,4.2119140625,1.8837890625,6.515625,2.041015625,2.30078125.1572265625,4.5771484375-.208984375,6.8291015625-1.0986328125,2.25-.888671875,4.263671875-2.22265625,6.044921875-4.00390625,2.720703125-2.720703125,4.91796875-4.65625,6.59375-5.80859375,1.673828125-1.1513671875,3.556640625-1.779296875,5.65234375-1.884765625,5.9658203125,0,9.916015625,1.67578125,11.853515625,5.0244140625,1.935546875,3.3505859375,2.0654296875,7.4326171875.392578125,12.24609375-1.361328125,3.767578125-3.4296875,7.064453125-6.201171875,9.890625-2.775390625,2.826171875-5.994140625,5.1025390625-9.65625,6.830078125-3.6650390625,1.7265625-7.58984375,2.9306640625-11.775390625,3.6103515625-4.1875.6796875-8.3203125.8642578125-12.40234375.5498046875s-7.955078125-1.177734375-11.6181640625-2.5908203125c-3.6650390625-1.4130859375-6.8056640625-3.3212890625-9.419921875-5.73046875-2.931640625-2.720703125-5.4951171875-5.8330078125-7.6923828125-9.3408203125-2.19921875-3.505859375-4.03125-7.22265625-5.49609375-11.1474609375-1.466796875-3.9248046875-2.5654296875-8.0068359375-3.296875-12.24609375-.7333984375-4.2392578125-1.0986328125-8.501953125-1.0986328125-12.794921875.2080078125-9.62890625,2.2490234375-18.943359375,6.123046875-27.9462890625,3.87109375-9.0009765625,9.0009765625-16.8505859375,15.3857421875-23.5498046875,2.9296875-3.03515625,6.41015625-5.625,10.4404296875-7.771484375,4.0283203125-2.14453125,8.1640625-3.533203125,12.4033203125-4.1611328125,4.23828125-.6279296875,8.3994140625-.4169921875,12.4814453125.6279296875,4.08203125,1.0478515625,7.6923828125,3.24609375,10.8330078125,6.5947265625,2.40625,2.51171875,4.341796875,5.3916015625,5.80859375,8.634765625,1.46484375,3.2451171875,2.564453125,6.4912109375,3.296875,9.7333984375.41796875,2.095703125.6015625,4.08203125.5498046875,5.966796875-.0537109375,1.8837890625-.498046875,3.6650390625-1.3349609375,5.337890625-1.15234375,2.0947265625-2.9306640625,3.5859375-5.337890625,4.474609375-2.408203125.890625-4.7880859375,1.1767578125-7.142578125.86328125-2.35546875-.314453125-4.396484375-1.2294921875-6.123046875-2.748046875-1.7275390625-1.515625-2.5390625-3.583984375-2.43359375-6.201171875Z" fill="none" stroke="#181818" stroke-linecap="round" stroke-linejoin="round" stroke-width="33"/>
          <path d="M207.9794921875,112.5791015625c4.7099609375,3.4541015625,8.05859375,7.4052734375,10.0478515625,11.853515625,1.9873046875,4.44921875,2.8505859375,8.9755859375,2.5908203125,13.580078125-.2626953125,4.607421875-1.5185546875,9.1064453125-3.7685546875,13.501953125-2.251953125,4.396484375-5.20703125,8.26953125-8.8701171875,11.6181640625-3.6650390625,3.3505859375-7.9287109375,5.9931640625-12.7958984375,7.9287109375s-10.0234375,2.7470703125-15.4638671875,2.43359375c-3.5595703125-.2109375-7.2490234375-.9423828125-11.0693359375-2.1982421875-3.8212890625-1.255859375-7.353515625-3.0078125-10.5966796875-5.259765625-3.2451171875-2.2490234375-6.0205078125-4.9970703125-8.3212890625-8.2421875-2.302734375-3.2431640625-3.767578125-6.908203125-4.396484375-10.990234375-.626953125-5.9658203125.314453125-11.328125,2.826171875-16.0927734375,2.5126953125-4.7607421875,5.966796875-9.0791015625,10.3623046875-12.9521484375-5.6513671875-4.9189453125-9.1591796875-10.4130859375-10.5185546875-16.4853515625-1.361328125-6.068359375-.99609375-11.8779296875,1.0986328125-17.4267578125,1.3583984375-3.662109375,3.2431640625-6.7236328125,5.6513671875-9.1845703125,2.4072265625-2.4580078125,5.103515625-4.474609375,8.0859375-6.0439453125,2.9833984375-1.5703125,6.2265625-2.748046875,9.734375-3.533203125,3.505859375-.7841796875,7.0380859375-1.2802734375,10.59765625-1.4912109375,4.08203125-.2080078125,8.13671875.314453125,12.16796875,1.5703125,4.02734375,1.255859375,7.666015625,3.037109375,10.91015625,5.337890625,3.244140625,2.3037109375,5.939453125,5.05078125,8.0859375,8.2421875,2.14453125,3.1943359375,3.478515625,6.62109375,4.00390625,10.283203125.5224609375,3.6650390625.0244140625,7.51171875-1.4921875,11.5400390625-1.517578125,4.0302734375-4.37109375,7.982421875-8.556640625,11.853515625-.10546875,0-.15625.02734375-.15625.078125,0,.0546875-.0546875.0791015625-.1572265625.0791015625ZM170.45703125,140.5244140625c-.83984375,2.5126953125-.9423828125,4.685546875-.314453125,6.515625.6279296875,1.8330078125,1.6728515625,3.2724609375,3.140625,4.3173828125,1.4638671875,1.0478515625,3.2421875,1.67578125,5.337890625,1.884765625,2.091796875.2109375,4.1328125-.0517578125,6.123046875-.78515625,2.7197265625-.9423828125,4.7880859375-2.4853515625,6.201171875-4.6318359375,1.412109375-2.1435546875,2.1708984375-4.4208984375,2.2763671875-6.8291015625.1025390625-2.4072265625-.4716796875-4.7890625-1.7275390625-7.1435546875-1.255859375-2.35546875-3.2451171875-4.2119140625-5.96484375-5.57421875-1.4677734375.1064453125-2.958984375.498046875-4.474609375,1.177734375-1.51953125.6826171875-2.958984375,1.5703125-4.318359375,2.6689453125-1.361328125,1.099609375-2.58984375,2.3818359375-3.689453125,3.8466796875-1.0986328125,1.466796875-1.962890625,2.9833984375-2.58984375,4.552734375ZM182.2314453125,82.27734375c-2.51171875,0-4.763671875.83984375-6.7509765625,2.5126953125-1.9892578125,1.6748046875-3.375,3.6650390625-4.16015625,5.9658203125-.78515625,2.3037109375-.7607421875,4.685546875.078125,7.1435546875.8359375,2.4599609375,2.771484375,4.5283203125,5.80859375,6.201171875,1.359375-.73046875,2.7998046875-1.4638671875,4.318359375-2.1982421875,1.515625-.73046875,2.849609375-1.6728515625,4.00390625-2.8251953125,2.8251953125-2.615234375,4.603515625-4.9970703125,5.337890625-7.1435546875.73046875-2.14453125.7578125-3.9765625.078125-5.4951171875-.681640625-1.5166015625-1.83203125-2.642578125-3.4541015625-3.3759765625-1.6240234375-.73046875-3.3759765625-.9931640625-5.259765625-.78515625Z" fill="none" stroke="#181818" stroke-linecap="round" stroke-linejoin="round" stroke-width="33"/>
        </g>
        <g>
          <path d="M113.154296875,87.9296875c.1025390625-3.0341796875-.392578125-5.310546875-1.4921875-6.8291015625-1.0986328125-1.5166015625-2.4873046875-2.4580078125-4.16015625-2.826171875-1.67578125-.365234375-3.48046875-.181640625-5.416015625.5498046875-1.9384765625.7333984375-3.689453125,1.7802734375-5.259765625,3.1396484375-3.6650390625,3.1396484375-6.62109375,7.1435546875-8.87109375,12.0107421875-2.251953125,4.8662109375-3.767578125,9.96875-4.552734375,15.3076171875-.78515625,5.337890625-.8388671875,10.6513671875-.15625,15.935546875.6787109375,5.2861328125,2.169921875,9.8662109375,4.474609375,13.7373046875,1.4638671875,2.51171875,3.2177734375,4.37109375,5.2587890625,5.5732421875,2.041015625,1.2041015625,4.2119140625,1.8837890625,6.515625,2.041015625,2.30078125.1572265625,4.5771484375-.208984375,6.8291015625-1.0986328125,2.25-.888671875,4.263671875-2.22265625,6.044921875-4.00390625,2.720703125-2.720703125,4.91796875-4.65625,6.59375-5.80859375,1.673828125-1.1513671875,3.556640625-1.779296875,5.65234375-1.884765625,5.9658203125,0,9.916015625,1.67578125,11.853515625,5.0244140625,1.935546875,3.3505859375,2.0654296875,7.4326171875.392578125,12.24609375-1.361328125,3.767578125-3.4296875,7.064453125-6.201171875,9.890625-2.775390625,2.826171875-5.994140625,5.1025390625-9.65625,6.830078125-3.6650390625,1.7265625-7.58984375,2.9306640625-11.775390625,3.6103515625-4.1875.6796875-8.3203125.8642578125-12.40234375.5498046875s-7.955078125-1.177734375-11.6181640625-2.5908203125c-3.6650390625-1.4130859375-6.8056640625-3.3212890625-9.419921875-5.73046875-2.931640625-2.720703125-5.4951171875-5.8330078125-7.6923828125-9.3408203125-2.19921875-3.505859375-4.03125-7.22265625-5.49609375-11.1474609375-1.466796875-3.9248046875-2.5654296875-8.0068359375-3.296875-12.24609375-.7333984375-4.2392578125-1.0986328125-8.501953125-1.0986328125-12.794921875.2080078125-9.62890625,2.2490234375-18.943359375,6.123046875-27.9462890625,3.87109375-9.0009765625,9.0009765625-16.8505859375,15.3857421875-23.5498046875,2.9296875-3.03515625,6.41015625-5.625,10.4404296875-7.771484375,4.0283203125-2.14453125,8.1640625-3.533203125,12.4033203125-4.1611328125,4.23828125-.6279296875,8.3994140625-.4169921875,12.4814453125.6279296875,4.08203125,1.0478515625,7.6923828125,3.24609375,10.8330078125,6.5947265625,2.40625,2.51171875,4.341796875,5.3916015625,5.80859375,8.634765625,1.46484375,3.2451171875,2.564453125,6.4912109375,3.296875,9.7333984375.41796875,2.095703125.6015625,4.08203125.5498046875,5.966796875-.0537109375,1.8837890625-.498046875,3.6650390625-1.3349609375,5.337890625-1.15234375,2.0947265625-2.9306640625,3.5859375-5.337890625,4.474609375-2.408203125.890625-4.7880859375,1.1767578125-7.142578125.86328125-2.35546875-.314453125-4.396484375-1.2294921875-6.123046875-2.748046875-1.7275390625-1.515625-2.5390625-3.583984375-2.43359375-6.201171875Z" fill="#fff" stroke-width="0"/>
          <path d="M207.9794921875,112.5791015625c4.7099609375,3.4541015625,8.05859375,7.4052734375,10.0478515625,11.853515625,1.9873046875,4.44921875,2.8505859375,8.9755859375,2.5908203125,13.580078125-.2626953125,4.607421875-1.5185546875,9.1064453125-3.7685546875,13.501953125-2.251953125,4.396484375-5.20703125,8.26953125-8.8701171875,11.6181640625-3.6650390625,3.3505859375-7.9287109375,5.9931640625-12.7958984375,7.9287109375s-10.0234375,2.7470703125-15.4638671875,2.43359375c-3.5595703125-.2109375-7.2490234375-.9423828125-11.0693359375-2.1982421875-3.8212890625-1.255859375-7.353515625-3.0078125-10.5966796875-5.259765625-3.2451171875-2.2490234375-6.0205078125-4.9970703125-8.3212890625-8.2421875-2.302734375-3.2431640625-3.767578125-6.908203125-4.396484375-10.990234375-.626953125-5.9658203125.314453125-11.328125,2.826171875-16.0927734375,2.5126953125-4.7607421875,5.966796875-9.0791015625,10.3623046875-12.9521484375-5.6513671875-4.9189453125-9.1591796875-10.4130859375-10.5185546875-16.4853515625-1.361328125-6.068359375-.99609375-11.8779296875,1.0986328125-17.4267578125,1.3583984375-3.662109375,3.2431640625-6.7236328125,5.6513671875-9.1845703125,2.4072265625-2.4580078125,5.103515625-4.474609375,8.0859375-6.0439453125,2.9833984375-1.5703125,6.2265625-2.748046875,9.734375-3.533203125,3.505859375-.7841796875,7.0380859375-1.2802734375,10.59765625-1.4912109375,4.08203125-.2080078125,8.13671875.314453125,12.16796875,1.5703125,4.02734375,1.255859375,7.666015625,3.037109375,10.91015625,5.337890625,3.244140625,2.3037109375,5.939453125,5.05078125,8.0859375,8.2421875,2.14453125,3.1943359375,3.478515625,6.62109375,4.00390625,10.283203125.5224609375,3.6650390625.0244140625,7.51171875-1.4921875,11.5400390625-1.517578125,4.0302734375-4.37109375,7.982421875-8.556640625,11.853515625-.10546875,0-.15625.02734375-.15625.078125,0,.0546875-.0546875.0791015625-.1572265625.0791015625ZM170.45703125,140.5244140625c-.83984375,2.5126953125-.9423828125,4.685546875-.314453125,6.515625.6279296875,1.8330078125,1.6728515625,3.2724609375,3.140625,4.3173828125,1.4638671875,1.0478515625,3.2421875,1.67578125,5.337890625,1.884765625,2.091796875.2109375,4.1328125-.0517578125,6.123046875-.78515625,2.7197265625-.9423828125,4.7880859375-2.4853515625,6.201171875-4.6318359375,1.412109375-2.1435546875,2.1708984375-4.4208984375,2.2763671875-6.8291015625.1025390625-2.4072265625-.4716796875-4.7890625-1.7275390625-7.1435546875-1.255859375-2.35546875-3.2451171875-4.2119140625-5.96484375-5.57421875-1.4677734375.1064453125-2.958984375.498046875-4.474609375,1.177734375-1.51953125.6826171875-2.958984375,1.5703125-4.318359375,2.6689453125-1.361328125,1.099609375-2.58984375,2.3818359375-3.689453125,3.8466796875-1.0986328125,1.466796875-1.962890625,2.9833984375-2.58984375,4.552734375ZM182.2314453125,82.27734375c-2.51171875,0-4.763671875.83984375-6.7509765625,2.5126953125-1.9892578125,1.6748046875-3.375,3.6650390625-4.16015625,5.9658203125-.78515625,2.3037109375-.7607421875,4.685546875.078125,7.1435546875.8359375,2.4599609375,2.771484375,4.5283203125,5.80859375,6.201171875,1.359375-.73046875,2.7998046875-1.4638671875,4.318359375-2.1982421875,1.515625-.73046875,2.849609375-1.6728515625,4.00390625-2.8251953125,2.8251953125-2.615234375,4.603515625-4.9970703125,5.337890625-7.1435546875.73046875-2.14453125.7578125-3.9765625.078125-5.4951171875-.681640625-1.5166015625-1.83203125-2.642578125-3.4541015625-3.3759765625-1.6240234375-.73046875-3.3759765625-.9931640625-5.259765625-.78515625Z" fill="#fff" stroke-width="0"/>
        </g>
      </g>
    </a>
  </g>
</svg>