<?xml version="1.0" encoding="UTF-8"?>
<svg id="Pattern" xmlns="http://www.w3.org/2000/svg" xmlns:xlink="http://www.w3.org/1999/xlink" viewBox="0 0 280 280">
  <defs>
    <linearGradient id="linear-gradient" x1="213.507625054100572" y1="-686.896300313723259" x2="67.806605379448797" y2="-832.134752845492585" gradientTransform="translate(.000000000015461 -619.889831542999673) scale(1 -1)" gradientUnits="userSpaceOnUse">
      <stop offset="0" stop-color="#ded7eb"/>
      <stop offset="1" stop-color="#c1b4d5"/>
    </linearGradient>
    <linearGradient id="linear-gradient-2" x1="167.626051205701515" y1="-706.383514579230905" x2="112.78226993988784" y2="-813.699213211435108" gradientTransform="translate(.000000000015461 -619.889831542999673) scale(1 -1)" gradientUnits="userSpaceOnUse">
      <stop offset="0" stop-color="#d1ccd9"/>
      <stop offset=".837238998413086" stop-color="#a38fbe"/>
    </linearGradient>
    <radialGradient id="radial-gradient" cx="-828.665864065009373" cy="96.819010068411444" fx="-828.665864065009373" fy="96.819010068411444" r="7.40068619858758" gradientTransform="translate(2582.957728385898008 2572.849823117204323) rotate(26.763998443829927) scale(4.024949982064243 -11.14360045078339)" gradientUnits="userSpaceOnUse">
      <stop offset="0" stop-color="#918c9b"/>
      <stop offset="1" stop-color="#918c9b" stop-opacity="0"/>
    </radialGradient>
    <radialGradient id="radial-gradient-2" cx="-1230.435689791431287" cy="190.960002380903461" fx="-1230.435689791431287" fy="190.960002380903461" r="7.400686198590951" gradientTransform="translate(-15189.974567412744364 10762.204866408679663) rotate(133.809995465649848) scale(14.896700049223734 -19.43429938625502)" gradientUnits="userSpaceOnUse">
      <stop offset=".032715001106262" stop-color="#e6dfef"/>
      <stop offset="1" stop-color="#9c8cae"/>
    </radialGradient>
    <linearGradient id="linear-gradient-3" x1="151.323649871979796" y1="-719.936063840385032" x2="129.815776996379867" y2="-797.758723466198717" gradientTransform="translate(.000000000015461 -619.889831542999673) scale(1 -1)" gradientUnits="userSpaceOnUse">
      <stop offset="0" stop-color="#afa9b8"/>
      <stop offset="1" stop-color="#9889ac"/>
    </linearGradient>
    <radialGradient id="radial-gradient-3" cx="-1224.889904719329934" cy="253.032871222036192" fx="-1224.889904719329934" fy="253.032871222036192" r="7.400686198576866" gradientTransform="translate(-10562.986503124182491 9003.560530185917742) rotate(128.710006702880918) scale(11.143200186896692 -11.143200186896694)" gradientUnits="userSpaceOnUse">
      <stop offset="0" stop-color="#e7e0ef"/>
      <stop offset="1" stop-color="#a89aba"/>
    </radialGradient>
    <radialGradient id="radial-gradient-4" cx="-917.544082051901569" cy="110.642489125337306" fx="-917.544082051901569" fy="110.642489125337306" r="7.400686198591535" gradientTransform="translate(3592.358077049291751 3759.14696192736028) rotate(32.574101326852421) scale(5.339999879623098 -10.764899729742325)" gradientUnits="userSpaceOnUse">
      <stop offset="0" stop-color="#90899a"/>
      <stop offset="1" stop-color="#90899a" stop-opacity="0"/>
    </radialGradient>
    <radialGradient id="radial-gradient-5" cx="-1249.608077625873193" cy="274.671181225679902" fx="-1249.608077625873193" fy="274.671181225679902" r="7.400686198585706" gradientTransform="translate(-10168.449669361109045 6410.152515887952177) rotate(136.337996248697294) scale(9.460129523301775 -9.404390123639166)" gradientUnits="userSpaceOnUse">
      <stop offset=".24621898651123" stop-color="#c9bfd7"/>
      <stop offset="1" stop-color="#ada4bc"/>
    </radialGradient>
    <radialGradient id="radial-gradient-6" cx="-1148.199297317456512" cy="-87.414307296596235" fx="-1148.199297317456512" fy="-87.414307296596235" r="7.400686198584808" gradientTransform="translate(3571.709884405158846 -4329.142013311404298) rotate(-45.51619995385758) scale(4.905749693347098 -7.798560073926967)" gradientUnits="userSpaceOnUse">
      <stop offset=".342772979736328" stop-color="#bdb6c5"/>
      <stop offset="1" stop-color="#bdb6c5" stop-opacity="0"/>
    </radialGradient>
    <radialGradient id="radial-gradient-7" cx="-851.237736278966622" cy="172.295393552107271" fx="-851.237736278966622" fy="172.295393552107271" r="7.400686198590922" gradientTransform="translate(1465.34553861616223 3626.104748249120348) rotate(49.258897879462793) scale(4.165749979116627 -7.395389996104267)" gradientUnits="userSpaceOnUse">
      <stop offset=".19361400604248" stop-color="#a294b2"/>
      <stop offset="1" stop-color="#a294b2" stop-opacity="0"/>
    </radialGradient>
    <radialGradient id="radial-gradient-8" cx="-1326.766271409687761" cy="314.06422509616641" fx="-1326.766271409687761" fy="314.06422509616641" r="6.985399197642054" gradientTransform="translate(-8893.987461805319981 2399.470878362579242) rotate(152.789000181218199) scale(6.859439815446054 -6.79771998514888)" gradientUnits="userSpaceOnUse">
      <stop offset=".588231010437012" stop-color="#ccc2d9"/>
      <stop offset="1" stop-color="#a197af"/>
    </radialGradient>
  </defs>
  <g>
    <path d="M117.146378075880421,70.517101553399698c-.395938010260579,4.701360692570233-6.071524718950968,7.049597260251176-9.671956973610577,4.000809649020084-4.709798345489617-3.987784397269934-9.704521867450239-7.892684999398625-13.415818741179464-9.977381658996819-10.078996973041285-5.661601590107239-16.124319444839784-6.765931908999846-25.879163742511082,2.739216442290854l-.26494441910836.266571252228459c-.047661622911619.047068763979041-.094656279521587.095542038985513-.141576828771576.144092950278718l-.121592542489452.124182771360211c-9.505144822360307,9.754844297676755-8.404145806009183,15.796835466944685-2.742544215889211,25.875832439991427,2.108379256318585,3.753255758396335,6.078624910369399,8.819764615249369,10.113481600539671,13.576187080529053,3.055743116839949,3.601914401964677.701066266179623,9.287120952509213-4.006731180430506,9.674180194582732-6.212286366699118.509908080852256-12.595894847179807,1.284760580814691-16.737910788140653,2.447406338660585-11.130336996549886,3.12308906763792-16.185967950808845,6.616954930430438-16.362474051258687,20.235693754551903l.00118395337995.375950195066252c-.000442879731054.067345950801609.000666966288918.1346919016014.001776812328899.202051968090018l.001850919670687.173905284818829c.176506100458937,13.618745881965879,5.227325369329265,17.112604686917621,16.35766236587915,20.236434828211713,4.081625495760818,1.144895279301636,10.340091338050115,1.914567321508002,16.466303763971155,2.424468344515844,4.701657122030156.392232641985174,7.053076777508977,6.066344261203994,4.007620468810273,9.669740810488292-3.940867376930328,4.662426094206239-7.781527479781289,9.586853486423934-9.842763864749941,13.256099723505031-5.661601590119972,10.078996973044923-6.762600606471096,16.120921092791832,2.742544215889211,25.875765390466768l.121521964050771.124330986094719c.047065235048649.048106267100593.09391167693866.096946550009307.141647407210257.144318801298141l.26494441910836.266419508574472c9.754844297671298,9.504700178174971,15.800166769469797,8.400514545090118,25.879163742511082,2.73899412019091,3.760878230299568-2.112158731970339,8.838489076319092-6.093728697285769,13.603056293979535-10.135982008336214,3.60191440195922-3.056484190494302,9.287854968330066-.701577959904171,9.674173136740137,4.00673823827492.510649154510247,6.219527715005825,1.285501654470863,12.613722962019892,2.449629559629102,16.76106757546404,3.123089067641558,11.129895881274933,6.616954930430438,16.185302748965114,20.235693754560998,16.362186444099279l.375957252899752-.001482147314164c.124330986100176.000734015813578.250144119510878-.003698310440086.375957252910666-.003698310440086,13.618745881978612-.176149679322407,17.112604686930354-5.227110105070096,20.236434828209894-16.35700598634503,1.1323040849893-4.036324721797428,1.896795669430503-10.201097680324892,2.407444823949845-16.261527467962878.395930952419803-4.700919577298919,6.071524718960063-7.049149087133628,9.671956973608758-4.000809649018265,4.709798345500531,3.988232570385662,9.704521867450239,7.89282968520638,13.415959898060464,9.977603981091306,10.07899697305038,5.661534540586217,16.123871271729513,6.765706057982243,25.878715569409906-2.738994120192729l.26495147696005-.267167640075058.088801797621272-.088801797628548.053286724849386-.055502887978946.12136669147003-.123596970281142c9.505448309679196-9.754844297676755,8.404226971219032-15.796768417425483,2.742706546330737-25.875751274781578-2.108460421541167-3.753629824146628-6.078935455541796-8.820145738845895-10.113778030021422-13.576568204121941-3.055750174678906-3.601914401970134-.700843944088774-9.287120952511032,4.006724122589731-9.67343912092656,6.212131094120195-.510635038823239,12.595965425631221-1.285487538782036,16.738129581310204-2.447406338660585,11.12989588128039-3.123830141294093,16.186050880471157-6.617688946245835,16.362186444110193-20.236434828211713l-.000748131509681-.375957252908847c0-.066597819299204-.00073401580994-.134684843756986-.002216163120465-.202030794556777l-.001482147308707-.173919400509476c-.176869579450795-13.618738824121465-5.22784412089095-17.112604686913983-16.35774000217134-20.235693754551903-4.081480809949426-1.145629295115214-10.340236023859688-1.914560263665408-16.466529614979663-2.425202360331241-4.701653593110677-.391498626171597-7.052847397570076-6.065603187547822-4.00745813839967-9.668999736830301,3.940860319100466-4.663174225706825,7.78180979355966-9.586846428577701,9.84291207950082-13.256699640274746,5.661520424888295-10.078996973043104,6.762741763348458-16.12099167123597-2.742706546330737-25.87576186154547l-.12136669147003-.124108663996594c-.047358135590912-.048621489737343-.093982255380979-.097024186299677-.142088522470658-.144237636086473l-.26495147696005-.266574781151576c-9.754844297680393-9.505144822369402-15.799718596359526-8.400740396109541-25.878715569409906-2.739142334923599-3.761026445019525,2.112303417778094-8.838637291039049,6.093576953633601-13.603204508699491,10.136274908876658-3.601914401970134,3.056558297861557-9.287854968319152.701585017750403-9.674173136740137-4.006731180428687-.510649154519342-6.219534772850238-1.285501654470863-12.613800598308444-2.449622501790145-16.760926418575764-3.12309612548961-11.13033346762677-6.616954930439533-16.185964421874814-20.235700812389041-16.362472286798948l-.375957252910666.001185717852422c-.067345950810704-.000444644194431-.134691901610495.000665201830998-.202037852399371.001700940489172l-.173912342670519.001925027045218c-13.618745881969517.176506100462575-17.112611744760216,5.227327133785366-20.23644188605067,16.357660601412135-1.132304084980206,4.036038879099578-1.896795669430503,10.200589515528918-2.407437766109069,16.26101224532249ZM140.252800615449814,180.01018384766212c22.096960235530787,0,40.009585695359419-17.913359475644029,40.009585695359419-40.010340884698962,0-22.096960235521692-17.912625459828632-40.009585695353962-40.009585695359419-40.009585695353962-22.09697435121052,0-40.010333826860006,17.91262545983227-40.010333826860006,40.009585695353962,0,22.096981409054933,17.913359475649486,40.010340884698962,40.010333826860006,40.010340884698962Z" fill="none" stroke="#181818" stroke-width="40"/>
    <path d="M117.146378075880421,70.517101553399698c-.395938010260579,4.701360692570233-6.071524718950968,7.049597260251176-9.671956973610577,4.000809649020084-4.709798345489617-3.987784397269934-9.704521867450239-7.892684999398625-13.415818741179464-9.977381658996819-10.078996973041285-5.661601590107239-16.124319444839784-6.765931908999846-25.879163742511082,2.739216442290854l-.26494441910836.266571252228459c-.047661622911619.047068763979041-.094656279521587.095542038985513-.141576828771576.144092950278718l-.121592542489452.124182771360211c-9.505144822360307,9.754844297676755-8.404145806009183,15.796835466944685-2.742544215889211,25.875832439991427,2.108379256318585,3.753255758396335,6.078624910369399,8.819764615249369,10.113481600539671,13.576187080529053,3.055743116839949,3.601914401964677.701066266179623,9.287120952509213-4.006731180430506,9.674180194582732-6.212286366699118.509908080852256-12.595894847179807,1.284760580814691-16.737910788140653,2.447406338660585-11.130336996549886,3.12308906763792-16.185967950808845,6.616954930430438-16.362474051258687,20.235693754551903l.00118395337995.375950195066252c-.000442879731054.067345950801609.000666966288918.1346919016014.001776812328899.202051968090018l.001850919670687.173905284818829c.176506100458937,13.618745881965879,5.227325369329265,17.112604686917621,16.35766236587915,20.236434828211713,4.081625495760818,1.144895279301636,10.340091338050115,1.914567321508002,16.466303763971155,2.424468344515844,4.701657122030156.392232641985174,7.053076777508977,6.066344261203994,4.007620468810273,9.669740810488292-3.940867376930328,4.662426094206239-7.781527479781289,9.586853486423934-9.842763864749941,13.256099723505031-5.661601590119972,10.078996973044923-6.762600606471096,16.120921092791832,2.742544215889211,25.875765390466768l.121521964050771.124330986094719c.047065235048649.048106267100593.09391167693866.096946550009307.141647407210257.144318801298141l.26494441910836.266419508574472c9.754844297671298,9.504700178174971,15.800166769469797,8.400514545090118,25.879163742511082,2.73899412019091,3.760878230299568-2.112158731970339,8.838489076319092-6.093728697285769,13.603056293979535-10.135982008336214,3.60191440195922-3.056484190494302,9.287854968330066-.701577959904171,9.674173136740137,4.00673823827492.510649154510247,6.219527715005825,1.285501654470863,12.613722962019892,2.449629559629102,16.76106757546404,3.123089067641558,11.129895881274933,6.616954930430438,16.185302748965114,20.235693754560998,16.362186444099279l.375957252899752-.001482147314164c.124330986100176.000734015813578.250144119510878-.003698310440086.375957252910666-.003698310440086,13.618745881978612-.176149679322407,17.112604686930354-5.227110105070096,20.236434828209894-16.35700598634503,1.1323040849893-4.036324721797428,1.896795669430503-10.201097680324892,2.407444823949845-16.261527467962878.395930952419803-4.700919577298919,6.071524718960063-7.049149087133628,9.671956973608758-4.000809649018265,4.709798345500531,3.988232570385662,9.704521867450239,7.89282968520638,13.415959898060464,9.977603981091306,10.07899697305038,5.661534540586217,16.123871271729513,6.765706057982243,25.878715569409906-2.738994120192729l.26495147696005-.267167640075058.088801797621272-.088801797628548.053286724849386-.055502887978946.12136669147003-.123596970281142c9.505448309679196-9.754844297676755,8.404226971219032-15.796768417425483,2.742706546330737-25.875751274781578-2.108460421541167-3.753629824146628-6.078935455541796-8.820145738845895-10.113778030021422-13.576568204121941-3.055750174678906-3.601914401970134-.700843944088774-9.287120952511032,4.006724122589731-9.67343912092656,6.212131094120195-.510635038823239,12.595965425631221-1.285487538782036,16.738129581310204-2.447406338660585,11.12989588128039-3.123830141294093,16.186050880471157-6.617688946245835,16.362186444110193-20.236434828211713l-.000748131509681-.375957252908847c0-.066597819299204-.00073401580994-.134684843756986-.002216163120465-.202030794556777l-.001482147308707-.173919400509476c-.176869579450795-13.618738824121465-5.22784412089095-17.112604686913983-16.35774000217134-20.235693754551903-4.081480809949426-1.145629295115214-10.340236023859688-1.914560263665408-16.466529614979663-2.425202360331241-4.701653593110677-.391498626171597-7.052847397570076-6.065603187547822-4.00745813839967-9.668999736830301,3.940860319100466-4.663174225706825,7.78180979355966-9.586846428577701,9.84291207950082-13.256699640274746,5.661520424888295-10.078996973043104,6.762741763348458-16.12099167123597-2.742706546330737-25.87576186154547l-.12136669147003-.124108663996594c-.047358135590912-.048621489737343-.093982255380979-.097024186299677-.142088522470658-.144237636086473l-.26495147696005-.266574781151576c-9.754844297680393-9.505144822369402-15.799718596359526-8.400740396109541-25.878715569409906-2.739142334923599-3.761026445019525,2.112303417778094-8.838637291039049,6.093576953633601-13.603204508699491,10.136274908876658-3.601914401970134,3.056558297861557-9.287854968319152.701585017750403-9.674173136740137-4.006731180428687-.510649154519342-6.219534772850238-1.285501654470863-12.613800598308444-2.449622501790145-16.760926418575764-3.12309612548961-11.13033346762677-6.616954930439533-16.185964421874814-20.235700812389041-16.362472286798948l-.375957252910666.001185717852422c-.067345950810704-.000444644194431-.134691901610495.000665201830998-.202037852399371.001700940489172l-.173912342670519.001925027045218c-13.618745881969517.176506100462575-17.112611744760216,5.227327133785366-20.23644188605067,16.357660601412135-1.132304084980206,4.036038879099578-1.896795669430503,10.200589515528918-2.407437766109069,16.26101224532249ZM140.252800615449814,180.01018384766212c22.096960235530787,0,40.009585695359419-17.913359475644029,40.009585695359419-40.010340884698962,0-22.096960235521692-17.912625459828632-40.009585695353962-40.009585695359419-40.009585695353962-22.09697435121052,0-40.010333826860006,17.91262545983227-40.010333826860006,40.009585695353962,0,22.096981409054933,17.913359475649486,40.010340884698962,40.010333826860006,40.010340884698962Z" fill="none" stroke="#181818" stroke-width="40"/>
    <g>
      <path d="M140.281660141010434,200.245870544373247c33.272739162919606,0,60.24602758141009-26.97254028698444,60.24602758141009-60.24602758141009,0-33.272739162926882-26.973288418490483-60.24609463093293-60.24602758141009-60.24609463093293-33.272746220771296,0-60.246175796150055,26.973355468006048-60.246175796150055,60.24609463093293,0,33.273487294425649,26.973429575378759,60.24602758141009,60.246175796150055,60.24602758141009ZM140.281660141010434,177.023995786907108c20.44809958030055,0,37.024152823940312-16.576053243636125,37.024152823940312-37.02415282394395,0-20.448092522465231-16.576053243639763-37.024145766101356-37.024152823940312-37.024145766101356-20.448092522470688,0-37.024152823951226,16.576053243636125-37.024152823951226,37.024145766101356,0,20.448099580307826,16.576060301480538,37.02415282394395,37.024152823951226,37.02415282394395Z" fill="none" stroke="#181818" stroke-width="40"/>
      <path d="M140.281660141010434,200.245870544373247c33.272739162919606,0,60.24602758141009-26.97254028698444,60.24602758141009-60.24602758141009,0-33.272739162926882-26.973288418490483-60.24609463093293-60.24602758141009-60.24609463093293-33.272746220771296,0-60.246175796150055,26.973355468006048-60.246175796150055,60.24609463093293,0,33.273487294425649,26.973429575378759,60.24602758141009,60.246175796150055,60.24602758141009ZM140.281660141010434,177.023995786907108c20.44809958030055,0,37.024152823940312-16.576053243636125,37.024152823940312-37.02415282394395,0-20.448092522465231-16.576053243639763-37.024145766101356-37.024152823940312-37.024145766101356-20.448092522470688,0-37.024152823951226,16.576053243636125-37.024152823951226,37.024145766101356,0,20.448099580307826,16.576060301480538,37.02415282394395,37.024152823951226,37.02415282394395Z" fill="none" stroke="#181818" stroke-width="40"/>
    </g>
    <path d="M140.281660141010434,198.424565578125112c32.26699634284887,0,58.424722615149221-26.157726272307627,58.424722615149221-58.424722615161954,0-32.266982227165499-26.157726272300351-58.424856714203997-58.424722615149221-58.424856714203997-32.266989285020827,0-58.424941408349696,26.157874487038498-58.424941408349696,58.424856714203997,0,32.266996342854327,26.157952123328869,58.424722615161954,58.424941408349696,58.424722615161954ZM140.281660141010434,175.905016912065548c19.829394828770091,0,35.905173949098753-16.075030988822618,35.905173949098753-35.905173949102391,0-19.829394828779186-16.075779120328662-35.905159833411744-35.905173949098753-35.905159833411744-19.829401886619962,0-35.905166891259796,16.075765004632558-35.905166891259796,35.905159833411744,0,19.830142960279773,16.075765004639834,35.905173949102391,35.905166891259796,35.905173949102391Z" fill="none" stroke="#181818" stroke-width="40"/>
    <path d="M140.281660141010434,180.761350221979228c22.512152045170296,0,40.761493143319967-18.249355213838498,40.761493143319967-40.761507259016071,0-22.512137929492383-18.249341098149671-40.761493143329062-40.761493143319967-40.761493143329062-22.512144987340434,0-40.761500201180752,18.249355213836679-40.761500201180752,40.761493143329062,0,22.512152045177572,18.249355213840317,40.761507259016071,40.761500201180752,40.761507259016071ZM176.186834090109187,139.999842962963157c0,19.830142960279773-16.075779120328662,35.905173949102391-35.905173949098753,35.905173949102391-19.829401886619962,0-35.905166891259796-16.075030988822618-35.905166891259796-35.905173949102391,0-19.829394828779186,16.075765004639834-35.905159833411744,35.905166891259796-35.905159833411744,19.829394828770091,0,35.905173949098753,16.075765004632558,35.905173949098753,35.905159833411744Z" fill="none" stroke="#181818" stroke-width="40"/>
    <path d="M140.281660141010434,180.472726735075412c22.35229187062032,0,40.472869656419789-18.120591901490116,40.472869656419789-40.472883772112255,0-22.352284812775906-18.120577785799469-40.472128582765436-40.472869656419789-40.472128582765436-22.352291870631234,0-40.472869656430703,18.119843769989529-40.472869656430703,40.472128582765436,0,22.352291870622139,18.120577785799469,40.472883772112255,40.472869656430703,40.472883772112255ZM140.281660141010434,172.030754412264287c17.690599792220382,0,32.030911449290215-14.340311657073471,32.030911449290215-32.030911449301129,0-17.689851660727072-14.340311657069833-32.030904391456716-32.030911449290215-32.030904391456716-17.690599792231296,0-32.030911449301129,14.341052730729643-32.030911449301129,32.030904391456716,0,17.690599792227658,14.340311657069833,32.030911449301129,32.030911449301129,32.030911449301129Z" fill="none" stroke="#181818" stroke-width="40"/>
    <path d="M140.281660141010434,180.472726735075412c22.35229187062032,0,40.472869656419789-18.120591901490116,40.472869656419789-40.472883772112255,0-22.352284812775906-18.120577785799469-40.472128582765436-40.472869656419789-40.472128582765436-22.352291870631234,0-40.472869656430703,18.119843769989529-40.472869656430703,40.472128582765436,0,22.352291870622139,18.120577785799469,40.472883772112255,40.472869656430703,40.472883772112255ZM140.281660141010434,172.030754412264287c17.690599792220382,0,32.030911449290215-14.340311657073471,32.030911449290215-32.030911449301129,0-17.689851660727072-14.340311657069833-32.030904391456716-32.030911449290215-32.030904391456716-17.690599792231296,0-32.030911449301129,14.341052730729643-32.030911449301129,32.030904391456716,0,17.690599792227658,14.340311657069833,32.030911449301129,32.030911449301129,32.030911449301129Z" fill="none" stroke="#181818" stroke-width="40"/>
    <path d="M140.281660141010434,176.540731068480454c20.180931940229129,0,36.540888105519116-16.35995616528453,36.540888105519116-36.540888105517297,0-20.180924882386535-16.359956165289987-36.540881047674702-36.540888105519116-36.540881047674702-20.180931940240043,0-36.540888105520935,16.359956165288168-36.540888105520935,36.540881047674702,0,20.180931940232767,16.359956165280892,36.540888105517297,36.540888105520935,36.540888105517297ZM172.312571590300649,139.999842962963157c0,17.690599792227658-14.340311657069833,32.030911449301129-32.030911449290215,32.030911449301129-17.690599792231296,0-32.030911449301129-14.340311657073471-32.030911449301129-32.030911449301129,0-17.689851660727072,14.340311657069833-32.030904391456716,32.030911449301129-32.030904391456716,17.690599792220382,0,32.030911449290215,14.341052730729643,32.030911449290215,32.030904391456716Z" fill="none" stroke="#181818" stroke-width="40"/>
    <path d="M140.281660141010434,176.540731068480454c20.180931940229129,0,36.540888105519116-16.35995616528453,36.540888105519116-36.540888105517297,0-20.180924882386535-16.359956165289987-36.540881047674702-36.540888105519116-36.540881047674702-20.180931940240043,0-36.540888105520935,16.359956165288168-36.540888105520935,36.540881047674702,0,20.180931940232767,16.359956165280892,36.540888105517297,36.540888105520935,36.540888105517297ZM172.312571590300649,139.999842962963157c0,17.690599792227658-14.340311657069833,32.030911449301129-32.030911449290215,32.030911449301129-17.690599792231296,0-32.030911449301129-14.340311657073471-32.030911449301129-32.030911449301129,0-17.689851660727072,14.340311657069833-32.030904391456716,32.030911449301129-32.030904391456716,17.690599792220382,0,32.030911449290215,14.341052730729643,32.030911449290215,32.030904391456716Z" fill="none" stroke="#181818" stroke-width="40"/>
    <path d="M140.281660141010434,176.540731068480454c20.180931940229129,0,36.540888105519116-16.35995616528453,36.540888105519116-36.540888105517297,0-20.180924882386535-16.359956165289987-36.540881047674702-36.540888105519116-36.540881047674702-20.180931940240043,0-36.540888105520935,16.359956165288168-36.540888105520935,36.540881047674702,0,20.180931940232767,16.359956165280892,36.540888105517297,36.540888105520935,36.540888105517297ZM172.312571590300649,139.999842962963157c0,17.690599792227658-14.340311657069833,32.030911449301129-32.030911449290215,32.030911449301129-17.690599792231296,0-32.030911449301129-14.340311657073471-32.030911449301129-32.030911449301129,0-17.689851660727072,14.340311657069833-32.030904391456716,32.030911449301129-32.030904391456716,17.690599792220382,0,32.030911449290215,14.341052730729643,32.030911449290215,32.030904391456716Z" fill="none" stroke="#181818" stroke-width="40"/>
    <path d="M140.281660141010434,176.540731068480454c20.180931940229129,0,36.540888105519116-16.35995616528453,36.540888105519116-36.540888105517297,0-20.180924882386535-16.359956165289987-36.540881047674702-36.540888105519116-36.540881047674702-20.180931940240043,0-36.540888105520935,16.359956165288168-36.540888105520935,36.540881047674702,0,20.180931940232767,16.359956165280892,36.540888105517297,36.540888105520935,36.540888105517297Z" fill="none" stroke="#181818" stroke-width="40"/>
  </g>
  <g>
    <path d="M117.146378075880421,70.517101553399698c-.395938010260579,4.701360692570233-6.071524718950968,7.049597260251176-9.671956973610577,4.000809649020084-4.709798345489617-3.987784397269934-9.704521867450239-7.892684999398625-13.415818741179464-9.977381658996819-10.078996973041285-5.661601590107239-16.124319444839784-6.765931908999846-25.879163742511082,2.739216442290854l-.26494441910836.266571252228459c-.047661622911619.047068763979041-.094656279521587.095542038985513-.141576828771576.144092950278718l-.121592542489452.124182771360211c-9.505144822360307,9.754844297676755-8.404145806009183,15.796835466944685-2.742544215889211,25.875832439991427,2.108379256318585,3.753255758396335,6.078624910369399,8.819764615249369,10.113481600539671,13.576187080529053,3.055743116839949,3.601914401964677.701066266179623,9.287120952509213-4.006731180430506,9.674180194582732-6.212286366699118.509908080852256-12.595894847179807,1.284760580814691-16.737910788140653,2.447406338660585-11.130336996549886,3.12308906763792-16.185967950808845,6.616954930430438-16.362474051258687,20.235693754551903l.00118395337995.375950195066252c-.000442879731054.067345950801609.000666966288918.1346919016014.001776812328899.202051968090018l.001850919670687.173905284818829c.176506100458937,13.618745881965879,5.227325369329265,17.112604686917621,16.35766236587915,20.236434828211713,4.081625495760818,1.144895279301636,10.340091338050115,1.914567321508002,16.466303763971155,2.424468344515844,4.701657122030156.392232641985174,7.053076777508977,6.066344261203994,4.007620468810273,9.669740810488292-3.940867376930328,4.662426094206239-7.781527479781289,9.586853486423934-9.842763864749941,13.256099723505031-5.661601590119972,10.078996973044923-6.762600606471096,16.120921092791832,2.742544215889211,25.875765390466768l.121521964050771.124330986094719c.047065235048649.048106267100593.09391167693866.096946550009307.141647407210257.144318801298141l.26494441910836.266419508574472c9.754844297671298,9.504700178174971,15.800166769469797,8.400514545090118,25.879163742511082,2.73899412019091,3.760878230299568-2.112158731970339,8.838489076319092-6.093728697285769,13.603056293979535-10.135982008336214,3.60191440195922-3.056484190494302,9.287854968330066-.701577959904171,9.674173136740137,4.00673823827492.510649154510247,6.219527715005825,1.285501654470863,12.613722962019892,2.449629559629102,16.76106757546404,3.123089067641558,11.129895881274933,6.616954930430438,16.185302748965114,20.235693754560998,16.362186444099279l.375957252899752-.001482147314164c.124330986100176.000734015813578.250144119510878-.003698310440086.375957252910666-.003698310440086,13.618745881978612-.176149679322407,17.112604686930354-5.227110105070096,20.236434828209894-16.35700598634503,1.1323040849893-4.036324721797428,1.896795669430503-10.201097680324892,2.407444823949845-16.261527467962878.395930952419803-4.700919577298919,6.071524718960063-7.049149087133628,9.671956973608758-4.000809649018265,4.709798345500531,3.988232570385662,9.704521867450239,7.89282968520638,13.415959898060464,9.977603981091306,10.07899697305038,5.661534540586217,16.123871271729513,6.765706057982243,25.878715569409906-2.738994120192729l.26495147696005-.267167640075058.088801797621272-.088801797628548.053286724849386-.055502887978946.12136669147003-.123596970281142c9.505448309679196-9.754844297676755,8.404226971219032-15.796768417425483,2.742706546330737-25.875751274781578-2.108460421541167-3.753629824146628-6.078935455541796-8.820145738845895-10.113778030021422-13.576568204121941-3.055750174678906-3.601914401970134-.700843944088774-9.287120952511032,4.006724122589731-9.67343912092656,6.212131094120195-.510635038823239,12.595965425631221-1.285487538782036,16.738129581310204-2.447406338660585,11.12989588128039-3.123830141294093,16.186050880471157-6.617688946245835,16.362186444110193-20.236434828211713l-.000748131509681-.375957252908847c0-.066597819299204-.00073401580994-.134684843756986-.002216163120465-.202030794556777l-.001482147308707-.173919400509476c-.176869579450795-13.618738824121465-5.22784412089095-17.112604686913983-16.35774000217134-20.235693754551903-4.081480809949426-1.145629295115214-10.340236023859688-1.914560263665408-16.466529614979663-2.425202360331241-4.701653593110677-.391498626171597-7.052847397570076-6.065603187547822-4.00745813839967-9.668999736830301,3.940860319100466-4.663174225706825,7.78180979355966-9.586846428577701,9.84291207950082-13.256699640274746,5.661520424888295-10.078996973043104,6.762741763348458-16.12099167123597-2.742706546330737-25.87576186154547l-.12136669147003-.124108663996594c-.047358135590912-.048621489737343-.093982255380979-.097024186299677-.142088522470658-.144237636086473l-.26495147696005-.266574781151576c-9.754844297680393-9.505144822369402-15.799718596359526-8.400740396109541-25.878715569409906-2.739142334923599-3.761026445019525,2.112303417778094-8.838637291039049,6.093576953633601-13.603204508699491,10.136274908876658-3.601914401970134,3.056558297861557-9.287854968319152.701585017750403-9.674173136740137-4.006731180428687-.510649154519342-6.219534772850238-1.285501654470863-12.613800598308444-2.449622501790145-16.760926418575764-3.12309612548961-11.13033346762677-6.616954930439533-16.185964421874814-20.235700812389041-16.362472286798948l-.375957252910666.001185717852422c-.067345950810704-.000444644194431-.134691901610495.000665201830998-.202037852399371.001700940489172l-.173912342670519.001925027045218c-13.618745881969517.176506100462575-17.112611744760216,5.227327133785366-20.23644188605067,16.357660601412135-1.132304084980206,4.036038879099578-1.896795669430503,10.200589515528918-2.407437766109069,16.26101224532249ZM140.252800615449814,180.01018384766212c22.096960235530787,0,40.009585695359419-17.913359475644029,40.009585695359419-40.010340884698962,0-22.096960235521692-17.912625459828632-40.009585695353962-40.009585695359419-40.009585695353962-22.09697435121052,0-40.010333826860006,17.91262545983227-40.010333826860006,40.009585695353962,0,22.096981409054933,17.913359475649486,40.010340884698962,40.010333826860006,40.010340884698962Z" fill="url(#linear-gradient)" fill-rule="evenodd" stroke-width="0"/>
    <path d="M117.146378075880421,70.517101553399698c-.395938010260579,4.701360692570233-6.071524718950968,7.049597260251176-9.671956973610577,4.000809649020084-4.709798345489617-3.987784397269934-9.704521867450239-7.892684999398625-13.415818741179464-9.977381658996819-10.078996973041285-5.661601590107239-16.124319444839784-6.765931908999846-25.879163742511082,2.739216442290854l-.26494441910836.266571252228459c-.047661622911619.047068763979041-.094656279521587.095542038985513-.141576828771576.144092950278718l-.121592542489452.124182771360211c-9.505144822360307,9.754844297676755-8.404145806009183,15.796835466944685-2.742544215889211,25.875832439991427,2.108379256318585,3.753255758396335,6.078624910369399,8.819764615249369,10.113481600539671,13.576187080529053,3.055743116839949,3.601914401964677.701066266179623,9.287120952509213-4.006731180430506,9.674180194582732-6.212286366699118.509908080852256-12.595894847179807,1.284760580814691-16.737910788140653,2.447406338660585-11.130336996549886,3.12308906763792-16.185967950808845,6.616954930430438-16.362474051258687,20.235693754551903l.00118395337995.375950195066252c-.000442879731054.067345950801609.000666966288918.1346919016014.001776812328899.202051968090018l.001850919670687.173905284818829c.176506100458937,13.618745881965879,5.227325369329265,17.112604686917621,16.35766236587915,20.236434828211713,4.081625495760818,1.144895279301636,10.340091338050115,1.914567321508002,16.466303763971155,2.424468344515844,4.701657122030156.392232641985174,7.053076777508977,6.066344261203994,4.007620468810273,9.669740810488292-3.940867376930328,4.662426094206239-7.781527479781289,9.586853486423934-9.842763864749941,13.256099723505031-5.661601590119972,10.078996973044923-6.762600606471096,16.120921092791832,2.742544215889211,25.875765390466768l.121521964050771.124330986094719c.047065235048649.048106267100593.09391167693866.096946550009307.141647407210257.144318801298141l.26494441910836.266419508574472c9.754844297671298,9.504700178174971,15.800166769469797,8.400514545090118,25.879163742511082,2.73899412019091,3.760878230299568-2.112158731970339,8.838489076319092-6.093728697285769,13.603056293979535-10.135982008336214,3.60191440195922-3.056484190494302,9.287854968330066-.701577959904171,9.674173136740137,4.00673823827492.510649154510247,6.219527715005825,1.285501654470863,12.613722962019892,2.449629559629102,16.76106757546404,3.123089067641558,11.129895881274933,6.616954930430438,16.185302748965114,20.235693754560998,16.362186444099279l.375957252899752-.001482147314164c.124330986100176.000734015813578.250144119510878-.003698310440086.375957252910666-.003698310440086,13.618745881978612-.176149679322407,17.112604686930354-5.227110105070096,20.236434828209894-16.35700598634503,1.1323040849893-4.036324721797428,1.896795669430503-10.201097680324892,2.407444823949845-16.261527467962878.395930952419803-4.700919577298919,6.071524718960063-7.049149087133628,9.671956973608758-4.000809649018265,4.709798345500531,3.988232570385662,9.704521867450239,7.89282968520638,13.415959898060464,9.977603981091306,10.07899697305038,5.661534540586217,16.123871271729513,6.765706057982243,25.878715569409906-2.738994120192729l.26495147696005-.267167640075058.088801797621272-.088801797628548.053286724849386-.055502887978946.12136669147003-.123596970281142c9.505448309679196-9.754844297676755,8.404226971219032-15.796768417425483,2.742706546330737-25.875751274781578-2.108460421541167-3.753629824146628-6.078935455541796-8.820145738845895-10.113778030021422-13.576568204121941-3.055750174678906-3.601914401970134-.700843944088774-9.287120952511032,4.006724122589731-9.67343912092656,6.212131094120195-.510635038823239,12.595965425631221-1.285487538782036,16.738129581310204-2.447406338660585,11.12989588128039-3.123830141294093,16.186050880471157-6.617688946245835,16.362186444110193-20.236434828211713l-.000748131509681-.375957252908847c0-.066597819299204-.00073401580994-.134684843756986-.002216163120465-.202030794556777l-.001482147308707-.173919400509476c-.176869579450795-13.618738824121465-5.22784412089095-17.112604686913983-16.35774000217134-20.235693754551903-4.081480809949426-1.145629295115214-10.340236023859688-1.914560263665408-16.466529614979663-2.425202360331241-4.701653593110677-.391498626171597-7.052847397570076-6.065603187547822-4.00745813839967-9.668999736830301,3.940860319100466-4.663174225706825,7.78180979355966-9.586846428577701,9.84291207950082-13.256699640274746,5.661520424888295-10.078996973043104,6.762741763348458-16.12099167123597-2.742706546330737-25.87576186154547l-.12136669147003-.124108663996594c-.047358135590912-.048621489737343-.093982255380979-.097024186299677-.142088522470658-.144237636086473l-.26495147696005-.266574781151576c-9.754844297680393-9.505144822369402-15.799718596359526-8.400740396109541-25.878715569409906-2.739142334923599-3.761026445019525,2.112303417778094-8.838637291039049,6.093576953633601-13.603204508699491,10.136274908876658-3.601914401970134,3.056558297861557-9.287854968319152.701585017750403-9.674173136740137-4.006731180428687-.510649154519342-6.219534772850238-1.285501654470863-12.613800598308444-2.449622501790145-16.760926418575764-3.12309612548961-11.13033346762677-6.616954930439533-16.185964421874814-20.235700812389041-16.362472286798948l-.375957252910666.001185717852422c-.067345950810704-.000444644194431-.134691901610495.000665201830998-.202037852399371.001700940489172l-.173912342670519.001925027045218c-13.618745881969517.176506100462575-17.112611744760216,5.227327133785366-20.23644188605067,16.357660601412135-1.132304084980206,4.036038879099578-1.896795669430503,10.200589515528918-2.407437766109069,16.26101224532249ZM140.252800615449814,180.01018384766212c22.096960235530787,0,40.009585695359419-17.913359475644029,40.009585695359419-40.010340884698962,0-22.096960235521692-17.912625459828632-40.009585695353962-40.009585695359419-40.009585695353962-22.09697435121052,0-40.010333826860006,17.91262545983227-40.010333826860006,40.009585695353962,0,22.096981409054933,17.913359475649486,40.010340884698962,40.010333826860006,40.010340884698962Z" fill="url(#linear-gradient)" fill-rule="evenodd" stroke-width="0"/>
    <g>
      <path d="M140.281660141010434,200.245870544373247c33.272739162919606,0,60.24602758141009-26.97254028698444,60.24602758141009-60.24602758141009,0-33.272739162926882-26.973288418490483-60.24609463093293-60.24602758141009-60.24609463093293-33.272746220771296,0-60.246175796150055,26.973355468006048-60.246175796150055,60.24609463093293,0,33.273487294425649,26.973429575378759,60.24602758141009,60.246175796150055,60.24602758141009ZM140.281660141010434,177.023995786907108c20.44809958030055,0,37.024152823940312-16.576053243636125,37.024152823940312-37.02415282394395,0-20.448092522465231-16.576053243639763-37.024145766101356-37.024152823940312-37.024145766101356-20.448092522470688,0-37.024152823951226,16.576053243636125-37.024152823951226,37.024145766101356,0,20.448099580307826,16.576060301480538,37.02415282394395,37.024152823951226,37.02415282394395Z" fill="url(#linear-gradient-2)" fill-rule="evenodd" stroke-width="0"/>
      <path d="M140.281660141010434,200.245870544373247c33.272739162919606,0,60.24602758141009-26.97254028698444,60.24602758141009-60.24602758141009,0-33.272739162926882-26.973288418490483-60.24609463093293-60.24602758141009-60.24609463093293-33.272746220771296,0-60.246175796150055,26.973355468006048-60.246175796150055,60.24609463093293,0,33.273487294425649,26.973429575378759,60.24602758141009,60.246175796150055,60.24602758141009ZM140.281660141010434,177.023995786907108c20.44809958030055,0,37.024152823940312-16.576053243636125,37.024152823940312-37.02415282394395,0-20.448092522465231-16.576053243639763-37.024145766101356-37.024152823940312-37.024145766101356-20.448092522470688,0-37.024152823951226,16.576053243636125-37.024152823951226,37.024145766101356,0,20.448099580307826,16.576060301480538,37.02415282394395,37.024152823951226,37.02415282394395Z" fill="url(#radial-gradient)" fill-rule="evenodd" stroke-width="0"/>
    </g>
    <path d="M140.281660141010434,198.424565578125112c32.26699634284887,0,58.424722615149221-26.157726272307627,58.424722615149221-58.424722615161954,0-32.266982227165499-26.157726272300351-58.424856714203997-58.424722615149221-58.424856714203997-32.266989285020827,0-58.424941408349696,26.157874487038498-58.424941408349696,58.424856714203997,0,32.266996342854327,26.157952123328869,58.424722615161954,58.424941408349696,58.424722615161954ZM140.281660141010434,175.905016912065548c19.829394828770091,0,35.905173949098753-16.075030988822618,35.905173949098753-35.905173949102391,0-19.829394828779186-16.075779120328662-35.905159833411744-35.905173949098753-35.905159833411744-19.829401886619962,0-35.905166891259796,16.075765004632558-35.905166891259796,35.905159833411744,0,19.830142960279773,16.075765004639834,35.905173949102391,35.905166891259796,35.905173949102391Z" fill="url(#radial-gradient-2)" fill-rule="evenodd" stroke-width="0"/>
    <path d="M140.281660141010434,180.761350221979228c22.512152045170296,0,40.761493143319967-18.249355213838498,40.761493143319967-40.761507259016071,0-22.512137929492383-18.249341098149671-40.761493143329062-40.761493143319967-40.761493143329062-22.512144987340434,0-40.761500201180752,18.249355213836679-40.761500201180752,40.761493143329062,0,22.512152045177572,18.249355213840317,40.761507259016071,40.761500201180752,40.761507259016071ZM176.186834090109187,139.999842962963157c0,19.830142960279773-16.075779120328662,35.905173949102391-35.905173949098753,35.905173949102391-19.829401886619962,0-35.905166891259796-16.075030988822618-35.905166891259796-35.905173949102391,0-19.829394828779186,16.075765004639834-35.905159833411744,35.905166891259796-35.905159833411744,19.829394828770091,0,35.905173949098753,16.075765004632558,35.905173949098753,35.905159833411744Z" fill="url(#linear-gradient-3)" fill-rule="evenodd" stroke-width="0"/>
    <path d="M140.281660141010434,180.472726735075412c22.35229187062032,0,40.472869656419789-18.120591901490116,40.472869656419789-40.472883772112255,0-22.352284812775906-18.120577785799469-40.472128582765436-40.472869656419789-40.472128582765436-22.352291870631234,0-40.472869656430703,18.119843769989529-40.472869656430703,40.472128582765436,0,22.352291870622139,18.120577785799469,40.472883772112255,40.472869656430703,40.472883772112255ZM140.281660141010434,172.030754412264287c17.690599792220382,0,32.030911449290215-14.340311657073471,32.030911449290215-32.030911449301129,0-17.689851660727072-14.340311657069833-32.030904391456716-32.030911449290215-32.030904391456716-17.690599792231296,0-32.030911449301129,14.341052730729643-32.030911449301129,32.030904391456716,0,17.690599792227658,14.340311657069833,32.030911449301129,32.030911449301129,32.030911449301129Z" fill="url(#radial-gradient-3)" fill-rule="evenodd" stroke-width="0"/>
    <path d="M140.281660141010434,180.472726735075412c22.35229187062032,0,40.472869656419789-18.120591901490116,40.472869656419789-40.472883772112255,0-22.352284812775906-18.120577785799469-40.472128582765436-40.472869656419789-40.472128582765436-22.352291870631234,0-40.472869656430703,18.119843769989529-40.472869656430703,40.472128582765436,0,22.352291870622139,18.120577785799469,40.472883772112255,40.472869656430703,40.472883772112255ZM140.281660141010434,172.030754412264287c17.690599792220382,0,32.030911449290215-14.340311657073471,32.030911449290215-32.030911449301129,0-17.689851660727072-14.340311657069833-32.030904391456716-32.030911449290215-32.030904391456716-17.690599792231296,0-32.030911449301129,14.341052730729643-32.030911449301129,32.030904391456716,0,17.690599792227658,14.340311657069833,32.030911449301129,32.030911449301129,32.030911449301129Z" fill="url(#radial-gradient-4)" fill-rule="evenodd" stroke-width="0"/>
    <path d="M140.281660141010434,176.540731068480454c20.180931940229129,0,36.540888105519116-16.35995616528453,36.540888105519116-36.540888105517297,0-20.180924882386535-16.359956165289987-36.540881047674702-36.540888105519116-36.540881047674702-20.180931940240043,0-36.540888105520935,16.359956165288168-36.540888105520935,36.540881047674702,0,20.180931940232767,16.359956165280892,36.540888105517297,36.540888105520935,36.540888105517297ZM172.312571590300649,139.999842962963157c0,17.690599792227658-14.340311657069833,32.030911449301129-32.030911449290215,32.030911449301129-17.690599792231296,0-32.030911449301129-14.340311657073471-32.030911449301129-32.030911449301129,0-17.689851660727072,14.340311657069833-32.030904391456716,32.030911449301129-32.030904391456716,17.690599792220382,0,32.030911449290215,14.341052730729643,32.030911449290215,32.030904391456716Z" fill="url(#radial-gradient-5)" fill-rule="evenodd" stroke-width="0"/>
    <path d="M140.281660141010434,176.540731068480454c20.180931940229129,0,36.540888105519116-16.35995616528453,36.540888105519116-36.540888105517297,0-20.180924882386535-16.359956165289987-36.540881047674702-36.540888105519116-36.540881047674702-20.180931940240043,0-36.540888105520935,16.359956165288168-36.540888105520935,36.540881047674702,0,20.180931940232767,16.359956165280892,36.540888105517297,36.540888105520935,36.540888105517297ZM172.312571590300649,139.999842962963157c0,17.690599792227658-14.340311657069833,32.030911449301129-32.030911449290215,32.030911449301129-17.690599792231296,0-32.030911449301129-14.340311657073471-32.030911449301129-32.030911449301129,0-17.689851660727072,14.340311657069833-32.030904391456716,32.030911449301129-32.030904391456716,17.690599792220382,0,32.030911449290215,14.341052730729643,32.030911449290215,32.030904391456716Z" fill="url(#radial-gradient-6)" fill-rule="evenodd" stroke-width="0"/>
    <path d="M140.281660141010434,176.540731068480454c20.180931940229129,0,36.540888105519116-16.35995616528453,36.540888105519116-36.540888105517297,0-20.180924882386535-16.359956165289987-36.540881047674702-36.540888105519116-36.540881047674702-20.180931940240043,0-36.540888105520935,16.359956165288168-36.540888105520935,36.540881047674702,0,20.180931940232767,16.359956165280892,36.540888105517297,36.540888105520935,36.540888105517297ZM172.312571590300649,139.999842962963157c0,17.690599792227658-14.340311657069833,32.030911449301129-32.030911449290215,32.030911449301129-17.690599792231296,0-32.030911449301129-14.340311657073471-32.030911449301129-32.030911449301129,0-17.689851660727072,14.340311657069833-32.030904391456716,32.030911449301129-32.030904391456716,17.690599792220382,0,32.030911449290215,14.341052730729643,32.030911449290215,32.030904391456716Z" fill="url(#radial-gradient-7)" fill-rule="evenodd" stroke-width="0"/>
    <path d="M140.281660141010434,176.540731068480454c20.180931940229129,0,36.540888105519116-16.35995616528453,36.540888105519116-36.540888105517297,0-20.180924882386535-16.359956165289987-36.540881047674702-36.540888105519116-36.540881047674702-20.180931940240043,0-36.540888105520935,16.359956165288168-36.540888105520935,36.540881047674702,0,20.180931940232767,16.359956165280892,36.540888105517297,36.540888105520935,36.540888105517297Z" fill="none" stroke="url(#radial-gradient-8)" stroke-width=".100000001490116"/>
  </g>
</svg>