<?xml version="1.0" encoding="UTF-8"?>
<svg id="Genral_2" data-name="Genral 2" xmlns="http://www.w3.org/2000/svg" xmlns:xlink="http://www.w3.org/1999/xlink" viewBox="0 0 280 280">
  <defs>
    <linearGradient id="linear-gradient" x1="74.764186426180459" y1="1060.685515218847286" x2="98.967875145389755" y2="1060.685515218847286" gradientTransform="translate(-168.318994018948842 1097.880384244587958) rotate(12.565238464849202) scale(.999999999999999 -1)" gradientUnits="userSpaceOnUse">
      <stop offset="0" stop-color="#67656e"/>
      <stop offset="1" stop-color="#a49fac"/>
    </linearGradient>
    <linearGradient id="linear-gradient-2" x1="97.237753700414032" y1="1077.486059727332758" x2="92.524458879064355" y2="1067.345281647393449" gradientTransform="translate(-168.318994018948842 1097.880384244587958) rotate(12.565238464849202) scale(.999999999999999 -1)" gradientUnits="userSpaceOnUse">
      <stop offset="0" stop-color="#696576"/>
      <stop offset="1" stop-color="#696576" stop-opacity="0"/>
    </linearGradient>
    <linearGradient id="linear-gradient-3" x1="22.786799726092795" y1="1027.367895174646037" x2="47.926472886737074" y2="1051.470467841484151" gradientTransform="translate(-168.318994018948842 1097.880384244587958) rotate(12.565238464849202) scale(.999999999999999 -1)" gradientUnits="userSpaceOnUse">
      <stop offset="0" stop-color="#948c9d"/>
      <stop offset="1" stop-color="#a19da8"/>
    </linearGradient>
    <linearGradient id="linear-gradient-4" x1="158.605295761739399" y1="1046.675656189891015" x2="143.711633125915284" y2="1030.177860625664835" gradientTransform="translate(-168.318994018948842 1097.880384244587958) rotate(12.565238464849202) scale(.999999999999999 -1)" gradientUnits="userSpaceOnUse">
      <stop offset="0" stop-color="#b7b6be"/>
      <stop offset="1" stop-color="#9993a0"/>
    </linearGradient>
    <linearGradient id="linear-gradient-5" x1="131.765422280514031" y1="1051.346937133095707" x2="137.951799970626013" y2="1045.160182146642455" gradientTransform="translate(-168.318994018948842 1097.880384244587958) rotate(12.565238464849202) scale(.999999999999999 -1)" gradientUnits="userSpaceOnUse">
      <stop offset="0" stop-color="#74717e"/>
      <stop offset="1" stop-color="#74717e" stop-opacity="0"/>
    </linearGradient>
    <linearGradient id="linear-gradient-6" x1="164.887423382848283" y1="1018.948728082252273" x2="162.25288382348154" y2="1021.469621832913845" gradientTransform="translate(-168.318994018948842 1097.880384244587958) rotate(12.565238464849202) scale(.999999999999999 -1)" gradientUnits="userSpaceOnUse">
      <stop offset="0" stop-color="#918a9d"/>
      <stop offset="1" stop-color="#918a9d" stop-opacity="0"/>
    </linearGradient>
    <linearGradient id="linear-gradient-7" x1="89.429165789493709" y1="1057.019290045187518" x2="89.429165789493723" y2="895.705382404015836" gradientTransform="translate(-168.318994018948842 1097.880384244587958) rotate(12.565238464849202) scale(.999999999999999 -1)" gradientUnits="userSpaceOnUse">
      <stop offset=".37388599395752" stop-color="#4c2350"/>
      <stop offset="1" stop-color="#262f63"/>
    </linearGradient>
    <linearGradient id="linear-gradient-8" x1="149.552092349682425" y1="1051.223786933009251" x2="49.817586263113185" y2="926.516770159314547" gradientTransform="translate(-168.318994018948842 1097.880384244587958) rotate(12.565238464849202) scale(.999999999999999 -1)" gradientUnits="userSpaceOnUse">
      <stop offset="0" stop-color="#5d3860"/>
      <stop offset="1" stop-color="#403f6a"/>
    </linearGradient>
    <linearGradient id="linear-gradient-9" x1="89.429347601499103" y1="1046.708031744257823" x2="89.429347601499117" y2="906.016277080922009" gradientTransform="translate(-168.318994018948842 1097.880384244587958) rotate(12.565238464849202) scale(.999999999999999 -1)" gradientUnits="userSpaceOnUse">
      <stop offset="0" stop-color="#3a1d41"/>
      <stop offset="1" stop-color="#2f2a44"/>
    </linearGradient>
    <linearGradient id="linear-gradient-10" x1="89.356243096841354" y1="1101.013992129141116" x2="89.356243096841354" y2="1071.684190739835685" gradientTransform="translate(-168.318994018948842 1097.880384244587958) rotate(12.565238464849202) scale(.999999999999999 -1)" gradientUnits="userSpaceOnUse">
      <stop offset="0" stop-color="#4d234f"/>
      <stop offset="1" stop-color="#212153"/>
    </linearGradient>
    <linearGradient id="linear-gradient-11" x1="118.686519651117123" y1="1086.349091434485672" x2="108.965898639366429" y2="1086.349091434485672" gradientTransform="translate(-168.318994018948842 1097.880384244587958) rotate(12.565238464849202) scale(.999999999999999 -1)" gradientUnits="userSpaceOnUse">
      <stop offset="0" stop-color="#5d385f"/>
      <stop offset="1" stop-color="#5d385f" stop-opacity="0"/>
    </linearGradient>
    <linearGradient id="linear-gradient-12" x1="33.460063073092897" y1="950.377527898517656" x2="156.846872521455282" y2="1007.662296516984156" gradientTransform="translate(-168.318994018948842 1097.880384244587958) rotate(12.565238464849202) scale(.999999999999999 -1)" gradientUnits="userSpaceOnUse">
      <stop offset="0" stop-color="#938d9c"/>
      <stop offset="1" stop-color="#897c91"/>
    </linearGradient>
    <radialGradient id="radial-gradient" cx="-844.753324226889163" cy="388.971006806717924" fx="-844.753324226889163" fy="388.971006806717924" r="7.332450347314001" gradientTransform="translate(15774.427290694351541 -2691.345766539612669) rotate(-43.197261257780077) scale(15.877200423760092 -22.157700090371893)" gradientUnits="userSpaceOnUse">
      <stop offset=".455460014343262" stop-color="#e4ddea"/>
      <stop offset="1" stop-color="#d2c2da"/>
    </radialGradient>
    <radialGradient id="radial-gradient-2" cx="-847.011810221828455" cy="417.676698418526939" fx="-847.011810221828455" fy="417.676698418526939" r="7.332450347317225" gradientTransform="translate(16471.984007226470567 4367.552509781085973) rotate(-11.944859912174396) scale(17.928000159243073 -17.928000159243073)" gradientUnits="userSpaceOnUse">
      <stop offset=".809954986572266" stop-color="#ad98b6" stop-opacity="0"/>
      <stop offset="1" stop-color="#ad98b6"/>
    </radialGradient>
    <linearGradient id="linear-gradient-13" x1="112.076857177649799" y1="1000.680533459601065" x2="76.570927419094019" y2="966.729830664173733" gradientTransform="translate(-168.318994018948842 1097.880384244587958) rotate(12.565238464849202) scale(.999999999999999 -1)" gradientUnits="userSpaceOnUse">
      <stop offset="0" stop-color="#b7a1ac"/>
      <stop offset="1" stop-color="#bb9cc0"/>
    </linearGradient>
    <radialGradient id="radial-gradient-3" cx="-1220.118626996579223" cy="-186.815514985103619" fx="-1220.118626996579223" fy="-186.815514985103619" r="7.33245034732749" gradientTransform="translate(-1358.710553866261762 -980.471905129162224) rotate(-133.415765998669627) scale(1.508119978001524 -1.78161001539098)" gradientUnits="userSpaceOnUse">
      <stop offset="0" stop-color="#aba4b3"/>
      <stop offset="1" stop-color="#aba4b3" stop-opacity="0"/>
    </radialGradient>
    <radialGradient id="radial-gradient-4" cx="-1340.698649059664604" cy="1020.358873771203434" fx="-1340.698649059664604" fy="1020.358873771203434" r="7.332450347327048" gradientTransform="translate(-2292.528233446214472 1760.766102465596759) rotate(121.017240981672487) scale(1.927210021707146 -1.245190103787388)" xlink:href="#radial-gradient-3"/>
    <linearGradient id="linear-gradient-14" x1="137.090021371222974" y1="986.90273359888306" x2="137.090021371222974" y2="979.341507802219098" gradientTransform="translate(-168.318994018948842 1097.880384244587958) rotate(12.565238464849202) scale(.999999999999999 -1)" gradientUnits="userSpaceOnUse">
      <stop offset="0" stop-color="#86808e"/>
      <stop offset="1" stop-color="#86808e" stop-opacity="0"/>
    </linearGradient>
    <radialGradient id="radial-gradient-5" cx="-1684.070951374240394" cy="653.837465623550088" fx="-1684.070951374240394" fy="653.837465623550088" r="7.332450347328427" gradientTransform="translate(-2246.196931300093638 848.752077249391959) rotate(148.935233187737651) scale(1.404000004606247 -.931237987397657)" xlink:href="#radial-gradient-3"/>
    <radialGradient id="radial-gradient-6" cx="-1108.442869479271394" cy="1350.790602539220345" fx="-1108.442869479271394" fy="1350.790602539220345" r="7.332450347327471" gradientTransform="translate(-1492.86718580292677 2195.54608182674383) rotate(92.24793947116693) scale(1.863549852906684 -1.162339971198334)" xlink:href="#radial-gradient-3"/>
    <radialGradient id="radial-gradient-7" cx="-1780.162872532590882" cy="-111.481472330390716" fx="-1780.162872532590882" fy="-111.481472330390716" r="7.332450347320616" gradientTransform="translate(-1862.602806711849098 -125.037574345122948) rotate(-169.038765429587443) scale(1.116689984568872 -1.113600061063176)" gradientUnits="userSpaceOnUse">
      <stop offset="0" stop-color="#a69faf"/>
      <stop offset="1" stop-color="#a69faf" stop-opacity="0"/>
    </radialGradient>
    <linearGradient id="linear-gradient-15" x1="130.841309365412599" y1="1017.848607132853431" x2="115.296079836906713" y2="1002.303394164118799" gradientTransform="translate(-168.318994018948842 1097.880384244587958) rotate(12.565238464849202) scale(.999999999999999 -1)" gradientUnits="userSpaceOnUse">
      <stop offset="0" stop-color="#9b9b9b"/>
      <stop offset="1" stop-color="#d3d3d3"/>
    </linearGradient>
    <radialGradient id="radial-gradient-8" cx="-1560.819219778839397" cy="530.8827100761373" fx="-1560.819219778839397" fy="530.8827100761373" r="7.332450347330046" gradientTransform="translate(-2531.04735037597402 757.781141036831514) rotate(155.789239935238697) scale(1.688549974178536 -1.053190012538554)" xlink:href="#radial-gradient-3"/>
    <linearGradient id="linear-gradient-16" x1="90.863527615356361" y1="977.797816129470448" x2="131.421523129717656" y2="1018.3550609640738" gradientTransform="translate(-168.318994018948842 1097.880384244587958) rotate(12.565238464849202) scale(.999999999999999 -1)" gradientUnits="userSpaceOnUse">
      <stop offset="0" stop-color="#ca2b7c"/>
      <stop offset="1" stop-color="#d82145"/>
    </linearGradient>
    <linearGradient id="linear-gradient-17" x1="84.27516174201628" y1="972.728661757571899" x2="90.23643517313468" y2="978.300584536699262" gradientTransform="translate(-168.318994018948842 1097.880384244587958) rotate(12.565238464849202) scale(.999999999999999 -1)" gradientUnits="userSpaceOnUse">
      <stop offset="0" stop-color="#a0356c"/>
      <stop offset="1" stop-color="#a0356c" stop-opacity="0"/>
    </linearGradient>
    <radialGradient id="radial-gradient-9" cx="-2072.631127154414571" cy="634.004090670201549" fx="-2072.631127154414571" fy="634.004090670201549" r="7.332450347327503" gradientTransform="translate(-1938.918483376760832 607.799321782074912) rotate(150.427237094183994) scale(1.000979994434934 -1.000979994434934)" gradientUnits="userSpaceOnUse">
      <stop offset="0" stop-color="#e05661"/>
      <stop offset="1" stop-color="#e05661" stop-opacity="0"/>
    </radialGradient>
    <linearGradient id="linear-gradient-18" x1="127.848516903957716" y1="1015.353153558913618" x2="84.048118067709595" y2="970.646470560849025" gradientTransform="translate(-168.318994018948842 1097.880384244587958) rotate(12.565238464849202) scale(.999999999999999 -1)" gradientUnits="userSpaceOnUse">
      <stop offset="0" stop-color="#e24f60"/>
      <stop offset="1" stop-color="#e24f60" stop-opacity="0"/>
    </linearGradient>
  </defs>
  <a xlink:href="https://www.notion.so/dmmnotes/timeline-4fcb082531f646b9965f2f24f9dd8758?pvs=4">
    <g>
      <g>
        <path d="M166.42792293372986,74.509940061489033l-28.62732810397938-6.380732352652558-4.785548123531044,21.470490959018207,28.627328103981199,6.380732352652558,4.785548123529225-21.470490959018207Z" fill="none" stroke="#181818" stroke-width="29"/>
        <path d="M166.42792293372986,74.509940061489033l-28.62732810397938-6.380732352652558-4.785548123531044,21.470490959018207,28.627328103981199,6.380732352652558,4.785548123529225-21.470490959018207Z" fill="none" stroke="#181818" stroke-width="29"/>
        <path d="M105.403238100770977,99.896678692271962l-21.442430248111123,13.626035588185914c-4.376006513750326,2.780823805915134-10.101472134549113,1.504677335386077-12.810725999199349-2.855376986184638l-5.728498967710038-9.014571841946236c-2.780823805909677-4.376006513757602-1.50467733538062-10.101472134552751,2.85537850746914-12.810732824487786l21.442480820571291-13.626246411389729c4.376006513759421-2.780823805915134,10.101472134560026-1.504677335386077,12.810725999208444,2.855376986190095l5.784113304151106,9.10209321475304c2.741158249009459,4.21691443904092,1.44901242647029,10.014161584942485-2.911043416379471,12.72342227487934Z" fill="none" stroke="#181818" stroke-width="29"/>
        <path d="M182.196024154729457,117.012988417203815l13.626042413470714,21.442431769386531c2.780823805909677,4.376006513757602,8.506282601420025,5.652151463003975,12.810719173920006,2.855375464900135l9.102100040039659-5.784111782857508c4.376006513759421-2.780823805915134,5.652152984290296-8.506289426712101,2.855376986179181-12.810725999204806l-13.625978519508863-21.442718431366302c-2.780823045270154-4.376009926400002-8.506281840780503-5.652154875650012-12.810719173920006-2.855375464901954l-9.102100040030564,5.784111782859327c-4.36005432157981,2.709253864650236-5.652215356969464,8.506569263407073-2.855440880150127,12.811012661184577Z" fill="none" stroke="#181818" stroke-width="29"/>
        <path d="M182.196024154729457,117.012988417203815l13.626042413470714,21.442431769386531c2.780823805909677,4.376006513757602,8.506282601420025,5.652151463003975,12.810719173920006,2.855375464900135l9.102100040039659-5.784111782857508c4.376006513759421-2.780823805915134,5.652152984290296-8.506289426712101,2.855376986179181-12.810725999204806l-13.625978519508863-21.442718431366302c-2.780823045270154-4.376009926400002-8.506281840780503-5.652154875650012-12.810719173920006-2.855375464901954l-9.102100040030564,5.784111782859327c-4.36005432157981,2.709253864650236-5.652215356969464,8.506569263407073-2.855440880150127,12.811012661184577Z" fill="none" stroke="#181818" stroke-width="29"/>
        <path d="M182.196024154729457,117.012988417203815l13.626042413470714,21.442431769386531c2.780823805909677,4.376006513757602,8.506282601420025,5.652151463003975,12.810719173920006,2.855375464900135l9.102100040039659-5.784111782857508c4.376006513759421-2.780823805915134,5.652152984290296-8.506289426712101,2.855376986179181-12.810725999204806l-13.625978519508863-21.442718431366302c-2.780823045270154-4.376009926400002-8.506281840780503-5.652154875650012-12.810719173920006-2.855375464901954l-9.102100040030564,5.784111782859327c-4.36005432157981,2.709253864650236-5.652215356969464,8.506569263407073-2.855440880150127,12.811012661184577Z" fill="none" stroke="#181818" stroke-width="29"/>
        <path d="M113.829870480880345,243.083500796687076c43.478466307198687,9.690895902071134,86.581255747169052-17.699662726945462,96.272150127959321-61.178122208859349s-17.699664248229965-86.581248921891529-61.178130555419557-96.272144823962662c-43.478602812911049-9.690926327768466-86.581102178259243,17.699696955854961-96.271996559049512,61.178156437768848-9.690894380790269,43.478459481912068,17.699374173609613,86.581184267288336,61.177976986509748,96.272110595053164Z" fill="none" stroke="#181818" stroke-width="29"/>
        <path d="M116.755016601859097,235.7535816846339c39.958018295101283,8.906224819775161,79.571215677471628-16.266191105103644,88.477598710871462-56.224919229871375,8.906224819769704-39.958018295099464-16.266980041580609-79.571018976257619-56.224998336680073-88.477243796030962-39.958734950050712-8.906384554677061-79.571154865940116,16.266577206275542-88.47737968570982,56.224595501375006-8.906383033390739,39.958728124762274,16.26604436146954,79.57118296985027,56.224779311518432,88.477567524527331Z" fill="none" stroke="#181818" stroke-width="29"/>
        <path d="M116.073017056980461,233.019563074481994c37.920472710889953,8.452077196147002,75.512990154789804-15.436865177140135,83.965065829648665-53.357331062748926,8.452075674871594-37.920465885608792-15.436945805218784-75.512628414675419-53.357418516119651-83.964705610826059-37.920465885608792-8.452075674866137-75.512402564228978,15.43662359802147-83.964478239098753,53.357089483628442-8.45207567486068,37.920465885610611,15.436365039959128,75.512871515078587,53.356830925569739,83.964947189946542Z" fill="none" stroke="#181818" stroke-width="29"/>
        <g>
          <path d="M171.652405790959165,75.674422707998019l-39.147863759699248-8.725649837857418c-5.009779858710317-1.116627591234646-8.1799165395405-6.105275758660355-7.063288948300396-11.115055617372491l2.328966814300657-10.448972539736133c1.188191087529049-4.993830894134589,6.105273106650202-8.179920712820604,11.115052965369614-7.063293121587776l39.076293818430713,8.70969764567235c5.009786683998755,1.11662911251733,8.179923745139604,6.105275573618201,7.063295773588834,11.115057138655175l-2.328966814298838,10.448972539736133c-1.045057649969749,5.025732050900842-6.033703165390762,8.195872905005672-11.043489849391335,7.079243792490161Z" fill="none" stroke="#181818" stroke-width="29"/>
          <path d="M171.652405790959165,75.674422707998019l-39.147863759699248-8.725649837857418c-5.009779858710317-1.116627591234646-8.1799165395405-6.105275758660355-7.063288948300396-11.115055617372491l2.328966814300657-10.448972539736133c1.188191087529049-4.993830894134589,6.105273106650202-8.179920712820604,11.115052965369614-7.063293121587776l39.076293818430713,8.70969764567235c5.009786683998755,1.11662911251733,8.179923745139604,6.105275573618201,7.063295773588834,11.115057138655175l-2.328966814298838,10.448972539736133c-1.045057649969749,5.025732050900842-6.033703165390762,8.195872905005672-11.043489849391335,7.079243792490161Z" fill="none" stroke="#181818" stroke-width="29"/>
        </g>
        <path d="M117.020235896570739,228.769840157339786c35.573748529568547,7.92901689334758,70.839108700869474-14.481085280907791,78.768124072928913-50.054826985196996,7.929015372059439-35.573741704287386-14.48108680219957-70.839101875582855-50.054835331769937-78.768118768930435-35.573025049328862-7.928855637159359-70.838955131948751,14.48111950981729-78.767970504010009,50.054861214104676-7.929015372070353,35.573741704289205,14.481656713509437,70.839228902865216,50.054681762851033,78.768084540022755Z" fill="none" stroke="#181818" stroke-width="29"/>
        <g>
          <path d="M117.418234420299996,226.984209026899407c34.587535760820174,7.709200370569306,68.876163612749224-14.080217059010465,76.585362462039484-48.667745994544021,7.709360105471205-34.588252415771422-14.0802155377296-68.876170438035842-48.66775129853886-76.585370808606967-34.587528935529917-7.709198849284803-68.875933733639613,14.079523202834025-76.585293839110818,48.667775618603628-7.70919884929026,34.587528935531736,14.080153740080277,68.876142335260738,48.667682675610195,76.58534118454736Z" fill="none" stroke="#181818" stroke-width="29"/>
          <path d="M117.418234420299996,226.984209026899407c34.587535760820174,7.709200370569306,68.876163612749224-14.080217059010465,76.585362462039484-48.667745994544021,7.709360105471205-34.588252415771422-14.0802155377296-68.876170438035842-48.66775129853886-76.585370808606967-34.587528935529917-7.709198849284803-68.875933733639613,14.079523202834025-76.585293839110818,48.667775618603628-7.70919884929026,34.587528935531736,14.080153740080277,68.876142335260738,48.667682675610195,76.58534118454736Z" fill="none" stroke="#181818" stroke-width="29"/>
        </g>
        <path d="M121.488983880999513,168.949398972958079c-2.169045999338778-3.413281260212898-1.164082232129658-7.922078355355552,2.249207374650723-10.091129658694626l43.322454470320736-27.530149313763104c3.413294910778859-2.169042956769772,7.922092005928789-1.164079189558834,10.091143309258769,2.249210417221548,2.169039174059435,3.413279738926576,1.164073885560356,7.92208365935403-2.249207374650723,10.091129658690988l-43.322468120888516,27.530146271195918c-3.413289606780381,2.169051303342712-7.922093527209654,1.164086014845452-10.091129658690988-2.249207374650723Z" fill="none" stroke="#181818" stroke-width="29"/>
        <g>
          <path d="M133.791146194529574,119.822202654391731l1.59518270784065-7.156830319672736c.877350793569349-3.936258040877874,4.815761811929406-6.438996884116932,8.752013027520661-5.561647611832086,3.936258040868779.877350793571168,6.439005230678958,4.815756507925471,5.56165443710961,8.752014548801526l-1.59518270784065,7.156830319672736c-.877350793569349,3.936258040879693-4.815761811920311,6.438996884118751-8.752019852800004,5.561646090549402-4.007821156859791-.893301464475371-6.438998405399616-4.815754986640968-5.561647611830267-8.752013027518842Z" fill="none" stroke="#181818" stroke-width="29"/>
          <path d="M133.791146194529574,119.822202654391731l1.59518270784065-7.156830319672736c.877350793569349-3.936258040877874,4.815761811929406-6.438996884116932,8.752013027520661-5.561647611832086,3.936258040868779.877350793571168,6.439005230678958,4.815756507925471,5.56165443710961,8.752014548801526l-1.59518270784065,7.156830319672736c-.877350793569349,3.936258040879693-4.815761811920311,6.438996884118751-8.752019852800004,5.561646090549402-4.007821156859791-.893301464475371-6.438998405399616-4.815754986640968-5.561647611830267-8.752013027518842Z" fill="none" stroke="#181818" stroke-width="29"/>
        </g>
        <g>
          <path d="M113.053770992579302,212.860996810150027l1.59518270784065-7.156830319674555c.877349272279389-3.936251215591255,4.815761811920311-6.438996884115113,8.752013027520661-5.561647611832086,3.936258040868779.877350793571168,6.439003709399913,4.815763333210271,5.56165443710961,8.752014548803345l-1.59518270784065,7.156830319672736c-.877349272290303,3.936251215593074-4.815761811929406,6.438996884116932-8.752019852800004,5.561646090545764-4.007821156859791-.893301464469914-6.438996884118751-4.81576181192213-5.561647611830267-8.752013027515204Z" fill="none" stroke="#181818" stroke-width="29"/>
          <path d="M113.053770992579302,212.860996810150027l1.59518270784065-7.156830319674555c.877349272279389-3.936251215591255,4.815761811920311-6.438996884115113,8.752013027520661-5.561647611832086,3.936258040868779.877350793571168,6.439003709399913,4.815763333210271,5.56165443710961,8.752014548803345l-1.59518270784065,7.156830319672736c-.877349272290303,3.936251215593074-4.815761811929406,6.438996884116932-8.752019852800004,5.561646090545764-4.007821156859791-.893301464469914-6.438996884118751-4.81576181192213-5.561647611830267-8.752013027515204Z" fill="none" stroke="#181818" stroke-width="29"/>
        </g>
        <g>
          <path d="M175.913051718320276,166.772634728942649l7.156830319669098,1.595182707842469c3.936251215591255.877349272286665,6.43899688412057,4.81576181192213,5.561647611830267,8.752013027515204s-4.815761811920311,6.438996884116932-8.752013027509747,5.561647611832086l-7.156830319680012-1.59518270784065c-3.936264866159036-.877352314859309-6.43899688412057-4.815761811925768-5.561647611830267-8.752013027518842s4.744178220091271-6.454952118872825,8.752013027520661-5.561647611830267Z" fill="none" stroke="#181818" stroke-width="29"/>
          <path d="M175.913051718320276,166.772634728942649l7.156830319669098,1.595182707842469c3.936251215591255.877349272286665,6.43899688412057,4.81576181192213,5.561647611830267,8.752013027515204s-4.815761811920311,6.438996884116932-8.752013027509747,5.561647611832086l-7.156830319680012-1.59518270784065c-3.936264866159036-.877352314859309-6.43899688412057-4.815761811925768-5.561647611830267-8.752013027518842s4.744178220091271-6.454952118872825,8.752013027520661-5.561647611830267Z" fill="none" stroke="#181818" stroke-width="29"/>
        </g>
        <g>
          <path d="M82.874394068259789,146.035289952686071l7.156830319680012,1.595182707842469c3.936114709889807.877318846589333,6.438853553130684,4.815729864943933,5.561504280840381,8.751981080533369-.877349272279389,3.936251215594893-4.815754986640968,6.438998405403254-8.751869696530775,5.561679558813921l-7.156830319669098-1.595182707842469c-3.936251215589436-.877349272286665-6.438993471479989-4.815761051282607-5.561644199189686-8.752012266872043.877349272288484-3.936251215593074,4.74418845802029-6.454949836948799,8.752009614869166-5.561648372475247Z" fill="none" stroke="#181818" stroke-width="29"/>
          <path d="M82.874394068259789,146.035289952686071l7.156830319680012,1.595182707842469c3.936114709889807.877318846589333,6.438853553130684,4.815729864943933,5.561504280840381,8.751981080533369-.877349272279389,3.936251215594893-4.815754986640968,6.438998405403254-8.751869696530775,5.561679558813921l-7.156830319669098-1.595182707842469c-3.936251215589436-.877349272286665-6.438993471479989-4.815761051282607-5.561644199189686-8.752012266872043.877349272288484-3.936251215593074,4.74418845802029-6.454949836948799,8.752009614869166-5.561648372475247Z" fill="none" stroke="#181818" stroke-width="29"/>
        </g>
        <g>
          <path d="M161.156082524659723,197.590417093426368l3.948778363130259,6.213924279396451c2.169036131490429,3.413293389497994,1.164072364279491,7.922090484642467-2.249210417219729,10.091143309266045-3.413293389499813,2.169036131484972-7.922090484640648,1.164072364274034-10.091129658690988-2.249207374654361l-3.948775320559434-6.21393792996605c-2.169039174059435-3.413279738928395-1.164072364279491-7.922090484640648,2.249207374650723-10.091129658694626,3.341723448229459-2.18498832367186,7.850520543379389-1.180024556460921,10.091129658689169,2.249207374652542Z" fill="none" stroke="#181818" stroke-width="29"/>
          <path d="M161.156082524659723,197.590417093426368l3.948778363130259,6.213924279396451c2.169036131490429,3.413293389497994,1.164072364279491,7.922090484642467-2.249210417219729,10.091143309266045-3.413293389499813,2.169036131484972-7.922090484640648,1.164072364274034-10.091129658690988-2.249207374654361l-3.948775320559434-6.21393792996605c-2.169039174059435-3.413279738928395-1.164072364279491-7.922090484640648,2.249207374650723-10.091129658694626,3.341723448229459-2.18498832367186,7.850520543379389-1.180024556460921,10.091129658689169,2.249207374652542Z" fill="none" stroke="#181818" stroke-width="29"/>
        </g>
        <g>
          <path d="M109.97313309933088,117.142752195904905l3.948770016559138,6.213929583398567c2.169045999340597,3.413281260211079,1.164080710839698,7.922085180638533-2.249207374650723,10.091129658692807-3.413279738928395,2.169039174055797-7.922083659359487,1.164073885560356-10.091129658700083-2.249207374650723l-3.948770016548224-6.213929583398567c-2.169037652771294-3.413286564213195-1.16407236428131-7.922090484640648,2.249207374648904-10.091129658694626,3.429240277679128-2.240614419320991,7.938044198110219-1.23564913082555,10.091129658690988,2.249207374652542Z" fill="none" stroke="#181818" stroke-width="29"/>
          <path d="M109.97313309933088,117.142752195904905l3.948770016559138,6.213929583398567c2.169045999340597,3.413281260211079,1.164080710839698,7.922085180638533-2.249207374650723,10.091129658692807-3.413279738928395,2.169039174055797-7.922083659359487,1.164073885560356-10.091129658700083-2.249207374650723l-3.948770016548224-6.213929583398567c-2.169037652771294-3.413286564213195-1.16407236428131-7.922090484640648,2.249207374648904-10.091129658694626,3.429240277679128-2.240614419320991,7.938044198110219-1.23564913082555,10.091129658690988,2.249207374652542Z" fill="none" stroke="#181818" stroke-width="29"/>
        </g>
        <path d="M164.536803218979912,134.562336440720173l6.213936408690643-3.948768495274635c3.41328126020926-2.169045999336959,7.922092005919694-1.164079189560653,10.091129658689169,2.249207374650723s1.164072364270396,7.922090484640648-2.249207374650723,10.091129658696445l-6.213936408679729,3.948768495274635c-3.413281260218355,2.169045999338778-7.92207835535919,1.164082232129658-10.091129658700083-2.249207374652542-2.184989844958181-3.341716622944659-1.164073885558537-7.922083659355849,2.249207374650723-10.091129658694626Z" fill="none" stroke="#181818" stroke-width="29"/>
        <g>
          <path d="M84.105647433700142,185.674592314640904l6.213928062110426-3.948763191274338c3.413289606778562-2.169051303339074,7.922093527209654-1.164086014839995,10.091129658689169,2.249207374652542,2.169045999340597,3.413281260211079,1.164082232129658,7.922078355355552-2.249207374650723,10.091129658694626l-6.213928062108607,3.948763191274338c-3.413282781501039,2.169052824625396-7.922086701930311,1.164087536129955-10.091129658700083-2.249207374650723-2.184991366240865-3.341709797663498-1.180024556450007-7.850520543375751,2.249207374659818-10.091129658696445Z" fill="none" stroke="#181818" stroke-width="29"/>
          <path d="M84.105647433700142,185.674592314640904l6.213928062110426-3.948763191274338c3.413289606778562-2.169051303339074,7.922093527209654-1.164086014839995,10.091129658689169,2.249207374652542,2.169045999340597,3.413281260211079,1.164082232129658,7.922078355355552-2.249207374650723,10.091129658694626l-6.213928062108607,3.948763191274338c-3.413282781501039,2.169052824625396-7.922086701930311,1.164087536129955-10.091129658700083-2.249207374650723-2.184991366240865-3.341709797663498-1.180024556450007-7.850520543375751,2.249207374659818-10.091129658696445Z" fill="none" stroke="#181818" stroke-width="29"/>
        </g>
        <g>
          <path d="M125.163110418649012,168.306420641885779c-2.169039174048521-3.413279738928395-1.164072364268577-7.922090484642467,2.249207374650723-10.091129658696445l43.322469642180295-27.530153096478898c3.41328126020926-2.169045999340597,7.922092005919694-1.164079189560653,10.091129658690988,2.249207374650723,2.169039174059435,3.413279738928395,1.164073885558537,7.922083659355849-2.249207374650723,10.091129658694626l-43.3224696421712,27.530153096480717c-3.413279738928395,2.169039174053978-7.922083659359487,1.164073885556718-10.091129658700083-2.249207374650723Z" fill="none" stroke="#181818" stroke-width="29"/>
          <path d="M125.163110418649012,168.306420641885779c-2.169039174048521-3.413279738928395-1.164072364268577-7.922090484642467,2.249207374650723-10.091129658696445l43.322469642180295-27.530153096478898c3.41328126020926-2.169045999340597,7.922092005919694-1.164079189560653,10.091129658690988,2.249207374650723,2.169039174059435,3.413279738928395,1.164073885558537,7.922083659355849-2.249207374650723,10.091129658694626l-43.3224696421712,27.530153096480717c-3.413279738928395,2.169039174053978-7.922083659359487,1.164073885556718-10.091129658700083-2.249207374650723Z" fill="none" stroke="#181818" stroke-width="29"/>
          <path d="M125.163110418649012,168.306420641885779c-2.169039174048521-3.413279738928395-1.164072364268577-7.922090484642467,2.249207374650723-10.091129658696445l43.322469642180295-27.530153096478898c3.41328126020926-2.169045999340597,7.922092005919694-1.164079189560653,10.091129658690988,2.249207374650723,2.169039174059435,3.413279738928395,1.164073885558537,7.922083659355849-2.249207374650723,10.091129658694626l-43.3224696421712,27.530153096480717c-3.413279738928395,2.169039174053978-7.922083659359487,1.164073885556718-10.091129658700083-2.249207374650723Z" fill="none" stroke="#181818" stroke-width="29"/>
        </g>
        <path d="M175.547706608860608,136.210474876961598l-44.208103221861165,27.984833519256426" fill="none" stroke="#181818" stroke-width="29"/>
      </g>
      <g>
        <path d="M166.42792293372986,74.509940061489033l-28.62732810397938-6.380732352652558-4.785548123531044,21.470490959018207,28.627328103981199,6.380732352652558,4.785548123529225-21.470490959018207Z" fill="url(#linear-gradient)" stroke-width="0"/>
        <path d="M166.42792293372986,74.509940061489033l-28.62732810397938-6.380732352652558-4.785548123531044,21.470490959018207,28.627328103981199,6.380732352652558,4.785548123529225-21.470490959018207Z" fill="url(#linear-gradient-2)" stroke-width="0"/>
        <path d="M105.403238100770977,99.896678692271962l-21.442430248111123,13.626035588185914c-4.376006513750326,2.780823805915134-10.101472134549113,1.504677335386077-12.810725999199349-2.855376986184638l-5.728498967710038-9.014571841946236c-2.780823805909677-4.376006513757602-1.50467733538062-10.101472134552751,2.85537850746914-12.810732824487786l21.442480820571291-13.626246411389729c4.376006513759421-2.780823805915134,10.101472134560026-1.504677335386077,12.810725999208444,2.855376986190095l5.784113304151106,9.10209321475304c2.741158249009459,4.21691443904092,1.44901242647029,10.014161584942485-2.911043416379471,12.72342227487934Z" fill="url(#linear-gradient-3)" stroke-width="0"/>
        <path d="M182.196024154729457,117.012988417203815l13.626042413470714,21.442431769386531c2.780823805909677,4.376006513757602,8.506282601420025,5.652151463003975,12.810719173920006,2.855375464900135l9.102100040039659-5.784111782857508c4.376006513759421-2.780823805915134,5.652152984290296-8.506289426712101,2.855376986179181-12.810725999204806l-13.625978519508863-21.442718431366302c-2.780823045270154-4.376009926400002-8.506281840780503-5.652154875650012-12.810719173920006-2.855375464901954l-9.102100040030564,5.784111782859327c-4.36005432157981,2.709253864650236-5.652215356969464,8.506569263407073-2.855440880150127,12.811012661184577Z" fill="url(#linear-gradient-4)" stroke-width="0"/>
        <path d="M182.196024154729457,117.012988417203815l13.626042413470714,21.442431769386531c2.780823805909677,4.376006513757602,8.506282601420025,5.652151463003975,12.810719173920006,2.855375464900135l9.102100040039659-5.784111782857508c4.376006513759421-2.780823805915134,5.652152984290296-8.506289426712101,2.855376986179181-12.810725999204806l-13.625978519508863-21.442718431366302c-2.780823045270154-4.376009926400002-8.506281840780503-5.652154875650012-12.810719173920006-2.855375464901954l-9.102100040030564,5.784111782859327c-4.36005432157981,2.709253864650236-5.652215356969464,8.506569263407073-2.855440880150127,12.811012661184577Z" fill="url(#linear-gradient-5)" stroke-width="0"/>
        <path d="M182.196024154729457,117.012988417203815l13.626042413470714,21.442431769386531c2.780823805909677,4.376006513757602,8.506282601420025,5.652151463003975,12.810719173920006,2.855375464900135l9.102100040039659-5.784111782857508c4.376006513759421-2.780823805915134,5.652152984290296-8.506289426712101,2.855376986179181-12.810725999204806l-13.625978519508863-21.442718431366302c-2.780823045270154-4.376009926400002-8.506281840780503-5.652154875650012-12.810719173920006-2.855375464901954l-9.102100040030564,5.784111782859327c-4.36005432157981,2.709253864650236-5.652215356969464,8.506569263407073-2.855440880150127,12.811012661184577Z" fill="url(#linear-gradient-6)" stroke-width="0"/>
        <path d="M113.829870480880345,243.083500796687076c43.478466307198687,9.690895902071134,86.581255747169052-17.699662726945462,96.272150127959321-61.178122208859349s-17.699664248229965-86.581248921891529-61.178130555419557-96.272144823962662c-43.478602812911049-9.690926327768466-86.581102178259243,17.699696955854961-96.271996559049512,61.178156437768848-9.690894380790269,43.478459481912068,17.699374173609613,86.581184267288336,61.177976986509748,96.272110595053164Z" fill="url(#linear-gradient-7)" stroke-width="0"/>
        <path d="M116.755016601859097,235.7535816846339c39.958018295101283,8.906224819775161,79.571215677471628-16.266191105103644,88.477598710871462-56.224919229871375,8.906224819769704-39.958018295099464-16.266980041580609-79.571018976257619-56.224998336680073-88.477243796030962-39.958734950050712-8.906384554677061-79.571154865940116,16.266577206275542-88.47737968570982,56.224595501375006-8.906383033390739,39.958728124762274,16.26604436146954,79.57118296985027,56.224779311518432,88.477567524527331Z" fill="none" stroke="url(#linear-gradient-8)" stroke-width="3.66622526856952"/>
        <path d="M116.073017056980461,233.019563074481994c37.920472710889953,8.452077196147002,75.512990154789804-15.436865177140135,83.965065829648665-53.357331062748926,8.452075674871594-37.920465885608792-15.436945805218784-75.512628414675419-53.357418516119651-83.964705610826059-37.920465885608792-8.452075674866137-75.512402564228978,15.43662359802147-83.964478239098753,53.357089483628442-8.45207567486068,37.920465885610611,15.436365039959128,75.512871515078587,53.356830925569739,83.964947189946542Z" fill="url(#linear-gradient-9)" stroke-width="0"/>
        <g>
          <path d="M171.652405790959165,75.674422707998019l-39.147863759699248-8.725649837857418c-5.009779858710317-1.116627591234646-8.1799165395405-6.105275758660355-7.063288948300396-11.115055617372491l2.328966814300657-10.448972539736133c1.188191087529049-4.993830894134589,6.105273106650202-8.179920712820604,11.115052965369614-7.063293121587776l39.076293818430713,8.70969764567235c5.009786683998755,1.11662911251733,8.179923745139604,6.105275573618201,7.063295773588834,11.115057138655175l-2.328966814298838,10.448972539736133c-1.045057649969749,5.025732050900842-6.033703165390762,8.195872905005672-11.043489849391335,7.079243792490161Z" fill="url(#linear-gradient-10)" stroke-width="0"/>
          <path d="M171.652405790959165,75.674422707998019l-39.147863759699248-8.725649837857418c-5.009779858710317-1.116627591234646-8.1799165395405-6.105275758660355-7.063288948300396-11.115055617372491l2.328966814300657-10.448972539736133c1.188191087529049-4.993830894134589,6.105273106650202-8.179920712820604,11.115052965369614-7.063293121587776l39.076293818430713,8.70969764567235c5.009786683998755,1.11662911251733,8.179923745139604,6.105275573618201,7.063295773588834,11.115057138655175l-2.328966814298838,10.448972539736133c-1.045057649969749,5.025732050900842-6.033703165390762,8.195872905005672-11.043489849391335,7.079243792490161Z" fill="url(#linear-gradient-11)" stroke-width="0"/>
        </g>
        <path d="M117.020235896570739,228.769840157339786c35.573748529568547,7.92901689334758,70.839108700869474-14.481085280907791,78.768124072928913-50.054826985196996,7.929015372059439-35.573741704287386-14.48108680219957-70.839101875582855-50.054835331769937-78.768118768930435-35.573025049328862-7.928855637159359-70.838955131948751,14.48111950981729-78.767970504010009,50.054861214104676-7.929015372070353,35.573741704289205,14.481656713509437,70.839228902865216,50.054681762851033,78.768084540022755Z" fill="url(#linear-gradient-12)" stroke-width="0"/>
        <g>
          <path d="M117.418234420299996,226.984209026899407c34.587535760820174,7.709200370569306,68.876163612749224-14.080217059010465,76.585362462039484-48.667745994544021,7.709360105471205-34.588252415771422-14.0802155377296-68.876170438035842-48.66775129853886-76.585370808606967-34.587528935529917-7.709198849284803-68.875933733639613,14.079523202834025-76.585293839110818,48.667775618603628-7.70919884929026,34.587528935531736,14.080153740080277,68.876142335260738,48.667682675610195,76.58534118454736Z" fill="url(#radial-gradient)" stroke-width="0"/>
          <path d="M117.418234420299996,226.984209026899407c34.587535760820174,7.709200370569306,68.876163612749224-14.080217059010465,76.585362462039484-48.667745994544021,7.709360105471205-34.588252415771422-14.0802155377296-68.876170438035842-48.66775129853886-76.585370808606967-34.587528935529917-7.709198849284803-68.875933733639613,14.079523202834025-76.585293839110818,48.667775618603628-7.70919884929026,34.587528935531736,14.080153740080277,68.876142335260738,48.667682675610195,76.58534118454736Z" fill="url(#radial-gradient-2)" stroke-width="0"/>
        </g>
        <path d="M121.488983880999513,168.949398972958079c-2.169045999338778-3.413281260212898-1.164082232129658-7.922078355355552,2.249207374650723-10.091129658694626l43.322454470320736-27.530149313763104c3.413294910778859-2.169042956769772,7.922092005928789-1.164079189558834,10.091143309258769,2.249210417221548,2.169039174059435,3.413279738926576,1.164073885560356,7.92208365935403-2.249207374650723,10.091129658690988l-43.322468120888516,27.530146271195918c-3.413289606780381,2.169051303342712-7.922093527209654,1.164086014845452-10.091129658690988-2.249207374650723Z" fill="url(#linear-gradient-13)" stroke-width="0"/>
        <g>
          <path d="M133.791146194529574,119.822202654391731l1.59518270784065-7.156830319672736c.877350793569349-3.936258040877874,4.815761811929406-6.438996884116932,8.752013027520661-5.561647611832086,3.936258040868779.877350793571168,6.439005230678958,4.815756507925471,5.56165443710961,8.752014548801526l-1.59518270784065,7.156830319672736c-.877350793569349,3.936258040879693-4.815761811920311,6.438996884118751-8.752019852800004,5.561646090549402-4.007821156859791-.893301464475371-6.438998405399616-4.815754986640968-5.561647611830267-8.752013027518842Z" fill="#9b93a5" stroke-width="0"/>
          <path d="M133.791146194529574,119.822202654391731l1.59518270784065-7.156830319672736c.877350793569349-3.936258040877874,4.815761811929406-6.438996884116932,8.752013027520661-5.561647611832086,3.936258040868779.877350793571168,6.439005230678958,4.815756507925471,5.56165443710961,8.752014548801526l-1.59518270784065,7.156830319672736c-.877350793569349,3.936258040879693-4.815761811920311,6.438996884118751-8.752019852800004,5.561646090549402-4.007821156859791-.893301464475371-6.438998405399616-4.815754986640968-5.561647611830267-8.752013027518842Z" fill="url(#radial-gradient-3)" stroke-width="0"/>
        </g>
        <g>
          <path d="M113.053770992579302,212.860996810150027l1.59518270784065-7.156830319674555c.877349272279389-3.936251215591255,4.815761811920311-6.438996884115113,8.752013027520661-5.561647611832086,3.936258040868779.877350793571168,6.439003709399913,4.815763333210271,5.56165443710961,8.752014548803345l-1.59518270784065,7.156830319672736c-.877349272290303,3.936251215593074-4.815761811929406,6.438996884116932-8.752019852800004,5.561646090545764-4.007821156859791-.893301464469914-6.438996884118751-4.81576181192213-5.561647611830267-8.752013027515204Z" fill="#9b93a5" stroke-width="0"/>
          <path d="M113.053770992579302,212.860996810150027l1.59518270784065-7.156830319674555c.877349272279389-3.936251215591255,4.815761811920311-6.438996884115113,8.752013027520661-5.561647611832086,3.936258040868779.877350793571168,6.439003709399913,4.815763333210271,5.56165443710961,8.752014548803345l-1.59518270784065,7.156830319672736c-.877349272290303,3.936251215593074-4.815761811929406,6.438996884116932-8.752019852800004,5.561646090545764-4.007821156859791-.893301464469914-6.438996884118751-4.81576181192213-5.561647611830267-8.752013027515204Z" fill="url(#radial-gradient-4)" stroke-width="0"/>
        </g>
        <g>
          <path d="M175.913051718320276,166.772634728942649l7.156830319669098,1.595182707842469c3.936251215591255.877349272286665,6.43899688412057,4.81576181192213,5.561647611830267,8.752013027515204s-4.815761811920311,6.438996884116932-8.752013027509747,5.561647611832086l-7.156830319680012-1.59518270784065c-3.936264866159036-.877352314859309-6.43899688412057-4.815761811925768-5.561647611830267-8.752013027518842s4.744178220091271-6.454952118872825,8.752013027520661-5.561647611830267Z" fill="#9b93a5" stroke-width="0"/>
          <path d="M175.913051718320276,166.772634728942649l7.156830319669098,1.595182707842469c3.936251215591255.877349272286665,6.43899688412057,4.81576181192213,5.561647611830267,8.752013027515204s-4.815761811920311,6.438996884116932-8.752013027509747,5.561647611832086l-7.156830319680012-1.59518270784065c-3.936264866159036-.877352314859309-6.43899688412057-4.815761811925768-5.561647611830267-8.752013027518842s4.744178220091271-6.454952118872825,8.752013027520661-5.561647611830267Z" fill="url(#linear-gradient-14)" stroke-width="0"/>
        </g>
        <g>
          <path d="M82.874394068259789,146.035289952686071l7.156830319680012,1.595182707842469c3.936114709889807.877318846589333,6.438853553130684,4.815729864943933,5.561504280840381,8.751981080533369-.877349272279389,3.936251215594893-4.815754986640968,6.438998405403254-8.751869696530775,5.561679558813921l-7.156830319669098-1.595182707842469c-3.936251215589436-.877349272286665-6.438993471479989-4.815761051282607-5.561644199189686-8.752012266872043.877349272288484-3.936251215593074,4.74418845802029-6.454949836948799,8.752009614869166-5.561648372475247Z" fill="#9b93a5" stroke-width="0"/>
          <path d="M82.874394068259789,146.035289952686071l7.156830319680012,1.595182707842469c3.936114709889807.877318846589333,6.438853553130684,4.815729864943933,5.561504280840381,8.751981080533369-.877349272279389,3.936251215594893-4.815754986640968,6.438998405403254-8.751869696530775,5.561679558813921l-7.156830319669098-1.595182707842469c-3.936251215589436-.877349272286665-6.438993471479989-4.815761051282607-5.561644199189686-8.752012266872043.877349272288484-3.936251215593074,4.74418845802029-6.454949836948799,8.752009614869166-5.561648372475247Z" fill="url(#radial-gradient-5)" stroke-width="0"/>
        </g>
        <g>
          <path d="M161.156082524659723,197.590417093426368l3.948778363130259,6.213924279396451c2.169036131490429,3.413293389497994,1.164072364279491,7.922090484642467-2.249210417219729,10.091143309266045-3.413293389499813,2.169036131484972-7.922090484640648,1.164072364274034-10.091129658690988-2.249207374654361l-3.948775320559434-6.21393792996605c-2.169039174059435-3.413279738928395-1.164072364279491-7.922090484640648,2.249207374650723-10.091129658694626,3.341723448229459-2.18498832367186,7.850520543379389-1.180024556460921,10.091129658689169,2.249207374652542Z" fill="#9b93a5" stroke-width="0"/>
          <path d="M161.156082524659723,197.590417093426368l3.948778363130259,6.213924279396451c2.169036131490429,3.413293389497994,1.164072364279491,7.922090484642467-2.249210417219729,10.091143309266045-3.413293389499813,2.169036131484972-7.922090484640648,1.164072364274034-10.091129658690988-2.249207374654361l-3.948775320559434-6.21393792996605c-2.169039174059435-3.413279738928395-1.164072364279491-7.922090484640648,2.249207374650723-10.091129658694626,3.341723448229459-2.18498832367186,7.850520543379389-1.180024556460921,10.091129658689169,2.249207374652542Z" fill="url(#radial-gradient-6)" stroke-width="0"/>
        </g>
        <g>
          <path d="M109.97313309933088,117.142752195904905l3.948770016559138,6.213929583398567c2.169045999340597,3.413281260211079,1.164080710839698,7.922085180638533-2.249207374650723,10.091129658692807-3.413279738928395,2.169039174055797-7.922083659359487,1.164073885560356-10.091129658700083-2.249207374650723l-3.948770016548224-6.213929583398567c-2.169037652771294-3.413286564213195-1.16407236428131-7.922090484640648,2.249207374648904-10.091129658694626,3.429240277679128-2.240614419320991,7.938044198110219-1.23564913082555,10.091129658690988,2.249207374652542Z" fill="#9b93a5" stroke-width="0"/>
          <path d="M109.97313309933088,117.142752195904905l3.948770016559138,6.213929583398567c2.169045999340597,3.413281260211079,1.164080710839698,7.922085180638533-2.249207374650723,10.091129658692807-3.413279738928395,2.169039174055797-7.922083659359487,1.164073885560356-10.091129658700083-2.249207374650723l-3.948770016548224-6.213929583398567c-2.169037652771294-3.413286564213195-1.16407236428131-7.922090484640648,2.249207374648904-10.091129658694626,3.429240277679128-2.240614419320991,7.938044198110219-1.23564913082555,10.091129658690988,2.249207374652542Z" fill="url(#radial-gradient-7)" stroke-width="0"/>
        </g>
        <path d="M164.536803218979912,134.562336440720173l6.213936408690643-3.948768495274635c3.41328126020926-2.169045999336959,7.922092005919694-1.164079189560653,10.091129658689169,2.249207374650723s1.164072364270396,7.922090484640648-2.249207374650723,10.091129658696445l-6.213936408679729,3.948768495274635c-3.413281260218355,2.169045999338778-7.92207835535919,1.164082232129658-10.091129658700083-2.249207374652542-2.184989844958181-3.341716622944659-1.164073885558537-7.922083659355849,2.249207374650723-10.091129658694626Z" fill="url(#linear-gradient-15)" stroke-width="0"/>
        <g>
          <path d="M84.105647433700142,185.674592314640904l6.213928062110426-3.948763191274338c3.413289606778562-2.169051303339074,7.922093527209654-1.164086014839995,10.091129658689169,2.249207374652542,2.169045999340597,3.413281260211079,1.164082232129658,7.922078355355552-2.249207374650723,10.091129658694626l-6.213928062108607,3.948763191274338c-3.413282781501039,2.169052824625396-7.922086701930311,1.164087536129955-10.091129658700083-2.249207374650723-2.184991366240865-3.341709797663498-1.180024556450007-7.850520543375751,2.249207374659818-10.091129658696445Z" fill="#9b93a5" stroke-width="0"/>
          <path d="M84.105647433700142,185.674592314640904l6.213928062110426-3.948763191274338c3.413289606778562-2.169051303339074,7.922093527209654-1.164086014839995,10.091129658689169,2.249207374652542,2.169045999340597,3.413281260211079,1.164082232129658,7.922078355355552-2.249207374650723,10.091129658694626l-6.213928062108607,3.948763191274338c-3.413282781501039,2.169052824625396-7.922086701930311,1.164087536129955-10.091129658700083-2.249207374650723-2.184991366240865-3.341709797663498-1.180024556450007-7.850520543375751,2.249207374659818-10.091129658696445Z" fill="url(#radial-gradient-8)" stroke-width="0"/>
        </g>
        <g>
          <path d="M125.163110418649012,168.306420641885779c-2.169039174048521-3.413279738928395-1.164072364268577-7.922090484642467,2.249207374650723-10.091129658696445l43.322469642180295-27.530153096478898c3.41328126020926-2.169045999340597,7.922092005919694-1.164079189560653,10.091129658690988,2.249207374650723,2.169039174059435,3.413279738928395,1.164073885558537,7.922083659355849-2.249207374650723,10.091129658694626l-43.3224696421712,27.530153096480717c-3.413279738928395,2.169039174053978-7.922083659359487,1.164073885556718-10.091129658700083-2.249207374650723Z" fill="url(#linear-gradient-16)" stroke-width="0"/>
          <path d="M125.163110418649012,168.306420641885779c-2.169039174048521-3.413279738928395-1.164072364268577-7.922090484642467,2.249207374650723-10.091129658696445l43.322469642180295-27.530153096478898c3.41328126020926-2.169045999340597,7.922092005919694-1.164079189560653,10.091129658690988,2.249207374650723,2.169039174059435,3.413279738928395,1.164073885558537,7.922083659355849-2.249207374650723,10.091129658694626l-43.3224696421712,27.530153096480717c-3.413279738928395,2.169039174053978-7.922083659359487,1.164073885556718-10.091129658700083-2.249207374650723Z" fill="url(#linear-gradient-17)" stroke-width="0"/>
          <path d="M125.163110418649012,168.306420641885779c-2.169039174048521-3.413279738928395-1.164072364268577-7.922090484642467,2.249207374650723-10.091129658696445l43.322469642180295-27.530153096478898c3.41328126020926-2.169045999340597,7.922092005919694-1.164079189560653,10.091129658690988,2.249207374650723,2.169039174059435,3.413279738928395,1.164073885558537,7.922083659355849-2.249207374650723,10.091129658694626l-43.3224696421712,27.530153096480717c-3.413279738928395,2.169039174053978-7.922083659359487,1.164073885556718-10.091129658700083-2.249207374650723Z" fill="url(#radial-gradient-9)" stroke-width="0"/>
        </g>
        <path d="M175.547706608860608,136.210474876961598l-44.208103221861165,27.984833519256426" fill="none" stroke="url(#linear-gradient-18)" stroke-width="3.66622526856952"/>
      </g>
    </g>
  </a>
  <circle cx="220.893248030522045" cy="54.778159412020614" r="4.672136546173078" fill="#181818" stroke-width="0"/>
  <circle cx="37.397297604689811" cy="27.717239329750555" r="5.851534946819355" fill="#181818" stroke-width="0"/>
  <circle cx="248.45423734213" cy="149.14918811685402" r="5.851534946819355" fill="#181818" stroke-width="0"/>
  <circle cx="24.475757192632045" cy="237.544895753803758" r="12.921540412051398" fill="#181818" stroke-width="0"/>
</svg>