<?xml version="1.0" encoding="UTF-8"?>
<svg id="Pattern" xmlns="http://www.w3.org/2000/svg" xmlns:xlink="http://www.w3.org/1999/xlink" viewBox="0 0 280 280">
  <defs>
    <linearGradient id="B3" x1="117.779492019990357" y1="223.166886510996846" x2="160.970298578599738" y2="163.247246426174144" gradientUnits="userSpaceOnUse">
      <stop offset="0" stop-color="#008693"/>
      <stop offset=".5" stop-color="#008c8d"/>
      <stop offset="1" stop-color="#008f82"/>
    </linearGradient>
  </defs>
  <a xlink:href="https://www.notion.so/dmmnotes/Type-B-a682dff89e1b420883ef126b542c812f?pvs=4">
    <g id="B">
      <a xlink:href="https://www.notion.so/dmmnotes/Type-B-a682dff89e1b420883ef126b542c812f?pvs=4">
        <g id="B-2" data-name="B">
          <path d="M140,259.388671875c-36.970703125,0-67.048828125-30.078125-67.048828125-67.048828125s30.078125-67.048828125,67.048828125-67.048828125,67.048828125,30.078125,67.048828125,67.048828125-30.078125,67.048828125-67.048828125,67.048828125Z" fill="url(#B3)" stroke-width="0"/>
          <path d="M140,133.79099178314209c32.3355712890625,0,58.5487060546875,26.213166236877441,58.5487060546875,58.548722267150879s-26.213134765625,58.548721313477472-58.5487060546875,58.548721313477472-58.5487060546875-26.213165283204034-58.5487060546875-58.548721313477472,26.213134765625-58.548722267150879,58.5487060546875-58.548722267150879M140,116.790992736816406c-41.65771484375,0-75.5487060546875,33.890998840332031-75.5487060546875,75.548721313476562s33.8909912109375,75.548721313477472,75.5487060546875,75.548721313477472,75.5487060546875-33.890998840332941,75.5487060546875-75.548721313477472-33.8909912109375-75.548721313476562-75.5487060546875-75.548721313476562h0Z" fill="#181818" stroke-width="0"/>
        </g>
      </a>
      <a xlink:href="https://www.notion.so/dmmnotes/Type-B-a682dff89e1b420883ef126b542c812f?pvs=4">
        <g>
          <path d="M166.21875,111.4794921875c4.6044921875,3.5595703125,8.0322265625,7.982421875,10.2841796875,13.2666015625,2.2490234375,5.287109375,2.9560546875,10.7548828125,2.119140625,16.40625-.9423828125,6.3857421875-3.4541015625,11.7509765625-7.5361328125,16.0927734375-4.08203125,4.3447265625-8.8974609375,7.771484375-14.4443359375,10.283203125-5.548828125,2.5126953125-11.5390625,4.1875-17.9765625,5.0244140625-6.4365234375.8369140625-12.4814453125.9423828125-18.1328125.314453125-.525390625.2080078125-.99609375.337890625-1.4130859375.392578125-.419921875.05078125-.890625.1298828125-1.4130859375.2353515625-1.8837890625.1025390625-3.822265625.1025390625-5.80859375,0-1.990234375-.10546875-3.7958984375-.447265625-5.4169921875-1.0205078125-1.6240234375-.57421875-3.009765625-1.5166015625-4.16015625-2.826171875-1.1533203125-1.3076171875-1.8330078125-3.1650390625-2.041015625-5.5732421875-.2109375-1.1513671875-.2626953125-3.478515625-.1572265625-6.9873046875.1025390625-3.5048828125.2080078125-7.771484375.3134765625-12.794921875.208984375-5.126953125.392578125-10.701171875.5498046875-16.720703125.1572265625-6.017578125.287109375-12.0615234375.392578125-18.1337890625.103515625-7.953125.208984375-15.9599609375.314453125-24.0205078125.1025390625-8.05859375-.2109375-16.1708984375-.9423828125-24.3349609375-.2109375-.9423828125-.10546875-1.7783203125.314453125-2.51171875.2080078125-.62890625.6787109375-1.2294921875,1.412109375-1.8056640625.7314453125-.57421875,1.830078125-.966796875,3.2978515625-1.177734375,1.044921875-.103515625,2.197265625-.259765625,3.453125-.470703125,1.2568359375-.208984375,2.564453125-.3662109375,3.92578125-.4716796875,1.3583984375-.1025390625,2.6689453125-.1025390625,3.9248046875,0,1.255859375.10546875,2.3544921875.314453125,3.296875.6279296875,5.337890625-.73046875,10.9365234375-.7578125,16.798828125-.078125,5.8603515625.681640625,11.3828125,2.068359375,16.5634765625,4.16015625,5.181640625,2.095703125,9.6806640625,4.89453125,13.501953125,8.3994140625,3.8193359375,3.5087890625,6.3583984375,7.771484375,7.615234375,12.7958984375.5224609375,2.1982421875.8359375,4.501953125.94140625,6.908203125.103515625,2.4091796875-.1572265625,4.8935546875-.78515625,7.45703125-.6279296875,2.56640625-1.6484375,5.2353515625-3.0615234375,8.0068359375-1.4130859375,2.775390625-3.3232421875,5.6279296875-5.73046875,8.556640625ZM125.3994140625,102.216796875c5.0234375.2109375,9.2626953125-.314453125,12.716796875-1.5703125s6.0439453125-2.904296875,7.771484375-4.9453125c1.7265625-2.041015625,2.5634765625-4.263671875,2.51171875-6.6728515625-.0537109375-2.40625-.96875-4.552734375-2.7470703125-6.4365234375-1.78125-1.8837890625-4.4501953125-3.3212890625-8.0068359375-4.3173828125-3.5595703125-.9931640625-8.0615234375-1.1240234375-13.5029296875-.392578125.314453125,4.08203125.5498046875,8.1123046875.70703125,12.0888671875.1572265625,3.9794921875.3388671875,8.0615234375.5498046875,12.24609375ZM125.8701171875,147.7470703125c5.65234375.6279296875,10.4130859375.3681640625,14.287109375-.78515625,3.87109375-1.150390625,6.775390625-2.720703125,8.712890625-4.7099609375,1.935546875-1.9873046875,2.9296875-4.1337890625,2.9833984375-6.4375.0517578125-2.30078125-.86328125-4.2900390625-2.7470703125-5.9658203125-1.884765625-1.6728515625-4.7646484375-2.798828125-8.6357421875-3.375-3.873046875-.57421875-8.740234375-.181640625-14.6005859375,1.1767578125v20.0966796875Z" fill="none" stroke="#181818" stroke-miterlimit="10" stroke-width="33"/>
          <path d="M166.21875,111.4794921875c4.6044921875,3.5595703125,8.0322265625,7.982421875,10.2841796875,13.2666015625,2.2490234375,5.287109375,2.9560546875,10.7548828125,2.119140625,16.40625-.9423828125,6.3857421875-3.4541015625,11.7509765625-7.5361328125,16.0927734375-4.08203125,4.3447265625-8.8974609375,7.771484375-14.4443359375,10.283203125-5.548828125,2.5126953125-11.5390625,4.1875-17.9765625,5.0244140625-6.4365234375.8369140625-12.4814453125.9423828125-18.1328125.314453125-.525390625.2080078125-.99609375.337890625-1.4130859375.392578125-.419921875.05078125-.890625.1298828125-1.4130859375.2353515625-1.8837890625.1025390625-3.822265625.1025390625-5.80859375,0-1.990234375-.10546875-3.7958984375-.447265625-5.4169921875-1.0205078125-1.6240234375-.57421875-3.009765625-1.5166015625-4.16015625-2.826171875-1.1533203125-1.3076171875-1.8330078125-3.1650390625-2.041015625-5.5732421875-.2109375-1.1513671875-.2626953125-3.478515625-.1572265625-6.9873046875.1025390625-3.5048828125.2080078125-7.771484375.3134765625-12.794921875.208984375-5.126953125.392578125-10.701171875.5498046875-16.720703125.1572265625-6.017578125.287109375-12.0615234375.392578125-18.1337890625.103515625-7.953125.208984375-15.9599609375.314453125-24.0205078125.1025390625-8.05859375-.2109375-16.1708984375-.9423828125-24.3349609375-.2109375-.9423828125-.10546875-1.7783203125.314453125-2.51171875.2080078125-.62890625.6787109375-1.2294921875,1.412109375-1.8056640625.7314453125-.57421875,1.830078125-.966796875,3.2978515625-1.177734375,1.044921875-.103515625,2.197265625-.259765625,3.453125-.470703125,1.2568359375-.208984375,2.564453125-.3662109375,3.92578125-.4716796875,1.3583984375-.1025390625,2.6689453125-.1025390625,3.9248046875,0,1.255859375.10546875,2.3544921875.314453125,3.296875.6279296875,5.337890625-.73046875,10.9365234375-.7578125,16.798828125-.078125,5.8603515625.681640625,11.3828125,2.068359375,16.5634765625,4.16015625,5.181640625,2.095703125,9.6806640625,4.89453125,13.501953125,8.3994140625,3.8193359375,3.5087890625,6.3583984375,7.771484375,7.615234375,12.7958984375.5224609375,2.1982421875.8359375,4.501953125.94140625,6.908203125.103515625,2.4091796875-.1572265625,4.8935546875-.78515625,7.45703125-.6279296875,2.56640625-1.6484375,5.2353515625-3.0615234375,8.0068359375-1.4130859375,2.775390625-3.3232421875,5.6279296875-5.73046875,8.556640625ZM125.3994140625,102.216796875c5.0234375.2109375,9.2626953125-.314453125,12.716796875-1.5703125s6.0439453125-2.904296875,7.771484375-4.9453125c1.7265625-2.041015625,2.5634765625-4.263671875,2.51171875-6.6728515625-.0537109375-2.40625-.96875-4.552734375-2.7470703125-6.4365234375-1.78125-1.8837890625-4.4501953125-3.3212890625-8.0068359375-4.3173828125-3.5595703125-.9931640625-8.0615234375-1.1240234375-13.5029296875-.392578125.314453125,4.08203125.5498046875,8.1123046875.70703125,12.0888671875.1572265625,3.9794921875.3388671875,8.0615234375.5498046875,12.24609375ZM125.8701171875,147.7470703125c5.65234375.6279296875,10.4130859375.3681640625,14.287109375-.78515625,3.87109375-1.150390625,6.775390625-2.720703125,8.712890625-4.7099609375,1.935546875-1.9873046875,2.9296875-4.1337890625,2.9833984375-6.4375.0517578125-2.30078125-.86328125-4.2900390625-2.7470703125-5.9658203125-1.884765625-1.6728515625-4.7646484375-2.798828125-8.6357421875-3.375-3.873046875-.57421875-8.740234375-.181640625-14.6005859375,1.1767578125v20.0966796875Z" fill="#fff" stroke-width="0"/>
        </g>
      </a>
    </g>
  </a>
</svg>