<?xml version="1.0" encoding="UTF-8"?>
<svg xmlns="http://www.w3.org/2000/svg" xmlns:xlink="http://www.w3.org/1999/xlink" viewBox="0 0 280 280">
  <defs>
    <linearGradient id="linear-gradient" x1="-173.014123682245554" y1="-524.578937617328847" x2="-61.062396089743231" y2="-563.262879203887223" gradientTransform="translate(116.766396714319626 -415.157208044300887) rotate(-15.614070734869957) scale(1 -1)" gradientUnits="userSpaceOnUse">
      <stop offset="0" stop-color="#fcbf83"/>
      <stop offset=".736387023925781" stop-color="#ffd8a4"/>
    </linearGradient>
    <linearGradient id="linear-gradient-2" x1="-129.445146948299225" y1="-442.964547956037677" x2="-129.445146948299225" y2="-490.721047829221845" gradientTransform="translate(116.766396714319626 -415.157208044300887) rotate(-15.614070734869957) scale(1 -1)" gradientUnits="userSpaceOnUse">
      <stop offset="0" stop-color="#ffd27d"/>
      <stop offset="1" stop-color="#ffd27d" stop-opacity="0"/>
    </linearGradient>
    <linearGradient id="linear-gradient-3" x1="-129.445146948299225" y1="-440.849495544037381" x2="-129.445146948299225" y2="-453.317382341372195" gradientTransform="translate(116.766396714319626 -415.157208044300887) rotate(-15.614070734869957) scale(1 -1)" gradientUnits="userSpaceOnUse">
      <stop offset="0" stop-color="#f8b76c"/>
      <stop offset="1" stop-color="#fec574" stop-opacity="0"/>
    </linearGradient>
    <radialGradient id="radial-gradient" cx="-1726.447274871403351" cy="808.184119808631294" fx="-1726.447274871403351" fy="808.184119808631294" r="7.124507226653472" gradientTransform="translate(2657.98313452221646 -6061.497857000138538) rotate(-105.614070734869969) scale(3.125940084457398 -5.10624980926514)" gradientUnits="userSpaceOnUse">
      <stop offset="0" stop-color="#ffda8d"/>
      <stop offset="1" stop-color="#ffda8d" stop-opacity="0"/>
    </radialGradient>
    <radialGradient id="radial-gradient-2" cx="-1788.533348959012073" cy="958.590675340430607" fx="-1788.533348959012073" fy="958.590675340430607" r="7.124507226653348" gradientTransform="translate(18201.464210408070358 -9960.984257836731558) rotate(-105.614070734869983) scale(2.76952004432678 -20.941400527954059)" gradientUnits="userSpaceOnUse">
      <stop offset="0" stop-color="#ffdd93"/>
      <stop offset="1" stop-color="#ffdd93" stop-opacity="0"/>
    </radialGradient>
    <radialGradient id="radial-gradient-3" cx="-956.32251775624718" cy="762.967027424774642" fx="-956.32251775624718" fy="762.967027424774642" r="7.124507226649297" gradientTransform="translate(4842.432294218991956 3452.014573776519683) rotate(-15.614070734869934) scale(3.906249999999997 -5.936769962310791)" gradientUnits="userSpaceOnUse">
      <stop offset="0" stop-color="#ec9261"/>
      <stop offset="1" stop-color="#c46242"/>
    </radialGradient>
    <linearGradient id="linear-gradient-4" x1="-96.285593912136392" y1="-622.413363341188415" x2="-96.285593912136392" y2="-642.784457635637409" gradientTransform="translate(116.766396714319626 -415.157208044300887) rotate(-15.614070734869957) scale(1 -1)" gradientUnits="userSpaceOnUse">
      <stop offset="0" stop-color="#e58f4f"/>
      <stop offset="1" stop-color="#ee9880"/>
    </linearGradient>
    <linearGradient id="linear-gradient-5" x1="-96.285593912136392" y1="-642.784457635637409" x2="-96.285593912136392" y2="-636.32823986229846" gradientTransform="translate(116.766396714319626 -415.157208044300887) rotate(-15.614070734869957) scale(1 -1)" gradientUnits="userSpaceOnUse">
      <stop offset="0" stop-color="#e07e98"/>
      <stop offset="1" stop-color="#e07e98" stop-opacity="0"/>
    </linearGradient>
    <linearGradient id="linear-gradient-6" x1="-169.130829349434862" y1="-518.787829839695405" x2="-79.852208271794751" y2="-518.787829839695405" gradientTransform="translate(260.862096369903043 -401.768375881129487) scale(1 -1)" gradientUnits="userSpaceOnUse">
      <stop offset="0" stop-color="#d37e48"/>
      <stop offset="1" stop-color="#de8650"/>
    </linearGradient>
    <linearGradient id="linear-gradient-7" x1="-169.130829349442138" y1="-540.105779634915962" x2="-79.852208271792193" y2="-540.105779634915962" gradientTransform="translate(266.599957898984826 -402.555082909870976) scale(1 -1)" xlink:href="#linear-gradient-6"/>
    <linearGradient id="linear-gradient-8" x1="-169.130829349436681" y1="-561.423732827372078" x2="-79.852208271793302" y2="-561.423732827372078" gradientTransform="translate(272.33782025238861 -403.341790086079016) scale(1 -1)" xlink:href="#linear-gradient-6"/>
    <linearGradient id="linear-gradient-9" x1="-169.581811602669404" y1="-582.740969204341127" x2="-111.751475689099891" y2="-582.740969204341127" gradientTransform="translate(278.719430351912251 -399.431877336032187) scale(1 -1)" xlink:href="#linear-gradient-6"/>
    <linearGradient id="A4" x1="33.371396416738207" y1="245.003842142112262" x2="95.219432676699654" y2="167.537614907422522" gradientUnits="userSpaceOnUse">
      <stop offset="0" stop-color="#7d67a2"/>
      <stop offset=".385181145631382" stop-color="#895ea4"/>
      <stop offset=".489316239316239" stop-color="#8e5ba6"/>
      <stop offset=".841924594895194" stop-color="#9a5c9d"/>
      <stop offset="1" stop-color="#a25d99"/>
    </linearGradient>
  </defs>
  <g id="Genral_2" data-name="Genral 2">
    <g>
      <a xlink:href="https://www.notion.so/dmmnotes/semantic-constructions-2477648bf2934c578347c35b7291e8b9?pvs=4">
        <g>
          <g>
            <g>
              <path d="M100.280872407140123,234.671881654518074c3.177282717118942,11.368967855207302,14.968961813669011,18.009130625458056,26.337445433589892,14.831983237454551l115.628739895229955-32.314736179310785-48.029977628360939-171.861090232856441c-3.177186249398801-11.368622673970094-14.969308859439479-18.009034518510816-26.337583080308832-14.831945651209026L34.775320465010736,67.694685097885667l-.589684073540411.16479886646448.002723041379795.009743599372086c.194024887250634-.061177482457424.389690771300593-.119411393390692.586961032160616-.174542465836566,9.65144088740999-2.69728586776364,19.662182025789662,2.940236249673944,22.359487095669465,12.591745846149934l43.146064846459922,154.385450710482473Z" fill="none" stroke="#181818" stroke-linecap="round" stroke-linejoin="round" stroke-width="31"/>
              <path d="M100.280872407140123,234.671881654518074c3.177282717118942,11.368967855207302,14.968961813669011,18.009130625458056,26.337445433589892,14.831983237454551l115.628739895229955-32.314736179310785-48.029977628360939-171.861090232856441c-3.177186249398801-11.368622673970094-14.969308859439479-18.009034518510816-26.337583080308832-14.831945651209026L34.775320465010736,67.694685097885667l-.589684073540411.16479886646448.002723041379795.009743599372086c.194024887250634-.061177482457424.389690771300593-.119411393390692.586961032160616-.174542465836566,9.65144088740999-2.69728586776364,19.662182025789662,2.940236249673944,22.359487095669465,12.591745846149934l43.146064846459922,154.385450710482473Z" fill="none" stroke="#181818" stroke-linecap="round" stroke-linejoin="round" stroke-width="31"/>
              <path d="M100.280872407140123,234.671881654518074c3.177282717118942,11.368967855207302,14.968961813669011,18.009130625458056,26.337445433589892,14.831983237454551l115.628739895229955-32.314736179310785-48.029977628360939-171.861090232856441c-3.177186249398801-11.368622673970094-14.969308859439479-18.009034518510816-26.337583080308832-14.831945651209026L34.775320465010736,67.694685097885667l-.589684073540411.16479886646448.002723041379795.009743599372086c.194024887250634-.061177482457424.389690771300593-.119411393390692.586961032160616-.174542465836566,9.65144088740999-2.69728586776364,19.662182025789662,2.940236249673944,22.359487095669465,12.591745846149934l43.146064846459922,154.385450710482473Z" fill="none" stroke="#181818" stroke-linecap="round" stroke-linejoin="round" stroke-width="31"/>
              <path d="M100.280872407140123,234.671881654518074c3.177282717118942,11.368967855207302,14.968961813669011,18.009130625458056,26.337445433589892,14.831983237454551l115.628739895229955-32.314736179310785-48.029977628360939-171.861090232856441c-3.177186249398801-11.368622673970094-14.969308859439479-18.009034518510816-26.337583080308832-14.831945651209026L34.775320465010736,67.694685097885667l-.589684073540411.16479886646448.002723041379795.009743599372086c.194024887250634-.061177482457424.389690771300593-.119411393390692.586961032160616-.174542465836566,9.65144088740999-2.69728586776364,19.662182025789662,2.940236249673944,22.359487095669465,12.591745846149934l43.146064846459922,154.385450710482473Z" fill="none" stroke="#181818" stroke-linecap="round" stroke-linejoin="round" stroke-width="31"/>
              <path d="M100.280872407140123,234.671881654518074c3.177282717118942,11.368967855207302,14.968961813669011,18.009130625458056,26.337445433589892,14.831983237454551l115.628739895229955-32.314736179310785-48.029977628360939-171.861090232856441c-3.177186249398801-11.368622673970094-14.969308859439479-18.009034518510816-26.337583080308832-14.831945651209026L34.775320465010736,67.694685097885667l-.589684073540411.16479886646448.002723041379795.009743599372086c.194024887250634-.061177482457424.389690771300593-.119411393390692.586961032160616-.174542465836566,9.65144088740999-2.69728586776364,19.662182025789662,2.940236249673944,22.359487095669465,12.591745846149934l43.146064846459922,154.385450710482473Z" fill="none" stroke="#181818" stroke-linecap="round" stroke-linejoin="round" stroke-width="31"/>
            </g>
            <path d="M34.775320465010736,67.694685097885667c-9.65144088740999,2.697285867765459-15.288964508599747,12.708024780858977-12.591659438730858,22.359534377332238l1.351317969989395,4.835292270421633c.105890465640186.378897758608218.498935471679943.600241462960184.877900303430579.494332252412278l34.264988394019383-9.576028080420656-1.543060133039035-5.521384973595559c-2.697305069879803-9.651509596475989-12.708046208259475-15.289031713913573-22.359487095669465-12.591745846149934Z" fill="none" stroke="#181818" stroke-linecap="round" stroke-linejoin="round" stroke-width="31"/>
            <g>
              <path d="M147.67044073336001,222.468768324097255c-.946902487139596.264630610758104-1.500819863349534,1.247202449497308-1.235995402770641,2.194798570979401l.023583842579683.084387815637456-.027912284358536.003370220836587c2.54823177210892,11.0609640418661-4.343720531860527,20.429679770944858-15.388820043441228,23.516451079827675l113.094069139890053-31.606372351820937c10.444013005610032-2.918785807364657,16.5443922625509-13.751434250490092,13.625606455190791-24.195447256092848-.109495889460959-.391798702974484-.515092897099748-.620209657608939-.906891600079689-.510713768149799l-109.183640107010433,30.513525688782465Z" fill="none" stroke="#181818" stroke-linecap="round" stroke-linejoin="round" stroke-width="31"/>
              <path d="M147.67044073336001,222.468768324097255c-.946902487139596.264630610758104-1.500819863349534,1.247202449497308-1.235995402770641,2.194798570979401l.023583842579683.084387815637456-.027912284358536.003370220836587c2.54823177210892,11.0609640418661-4.343720531860527,20.429679770944858-15.388820043441228,23.516451079827675l113.094069139890053-31.606372351820937c10.444013005610032-2.918785807364657,16.5443922625509-13.751434250490092,13.625606455190791-24.195447256092848-.109495889460959-.391798702974484-.515092897099748-.620209657608939-.906891600079689-.510713768149799l-109.183640107010433,30.513525688782465Z" fill="none" stroke="#181818" stroke-linecap="round" stroke-linejoin="round" stroke-width="31"/>
            </g>
            <rect x="90.450993740405096" y="113.415451763380162" width="99.074825337672621" height="7.208004368133558" rx="3.603998783815572" ry="3.603998783815572" transform="translate(-26.330466031124899 41.997195908097325) rotate(-15.614070740302662)" fill="none" stroke="#181818" stroke-linecap="round" stroke-linejoin="round" stroke-width="31"/>
            <rect x="96.188855229931178" y="133.946694547609098" width="99.074825312696461" height="7.208004316079126" rx="3.604004260297156" ry="3.604004260297156" transform="translate(-31.644833139525389 44.299252549717437) rotate(-15.614070744830395)" fill="none" stroke="#181818" stroke-linecap="round" stroke-linejoin="round" stroke-width="31"/>
            <rect x="101.926717630020093" y="154.477937159820556" width="99.074825310663314" height="7.208011138617707" rx="3.603998775835255" ry="3.603998775835255" transform="translate(-36.959201077394113 46.601309530897936) rotate(-15.614070739974842)" fill="none" stroke="#181818" stroke-linecap="round" stroke-linejoin="round" stroke-width="31"/>
            <rect x="108.308327905578693" y="179.705086327917655" width="64.17619807860487" height="7.20801114242073" rx="3.60399683510577" ry="3.60399683510577" transform="translate(-44.157685375187185 44.553337072440115) rotate(-15.614070722647698)" fill="none" stroke="#181818" stroke-linecap="round" stroke-linejoin="round" stroke-width="31"/>
          </g>
          <g>
            <g>
              <path d="M100.280872407140123,234.671881654518074c3.177282717118942,11.368967855207302,14.968961813669011,18.009130625458056,26.337445433589892,14.831983237454551l115.628739895229955-32.314736179310785-48.029977628360939-171.861090232856441c-3.177186249398801-11.368622673970094-14.969308859439479-18.009034518510816-26.337583080308832-14.831945651209026L34.775320465010736,67.694685097885667l-.589684073540411.16479886646448.002723041379795.009743599372086c.194024887250634-.061177482457424.389690771300593-.119411393390692.586961032160616-.174542465836566,9.65144088740999-2.69728586776364,19.662182025789662,2.940236249673944,22.359487095669465,12.591745846149934l43.146064846459922,154.385450710482473Z" fill="url(#linear-gradient)" stroke-width="0"/>
              <path d="M100.280872407140123,234.671881654518074c3.177282717118942,11.368967855207302,14.968961813669011,18.009130625458056,26.337445433589892,14.831983237454551l115.628739895229955-32.314736179310785-48.029977628360939-171.861090232856441c-3.177186249398801-11.368622673970094-14.969308859439479-18.009034518510816-26.337583080308832-14.831945651209026L34.775320465010736,67.694685097885667l-.589684073540411.16479886646448.002723041379795.009743599372086c.194024887250634-.061177482457424.389690771300593-.119411393390692.586961032160616-.174542465836566,9.65144088740999-2.69728586776364,19.662182025789662,2.940236249673944,22.359487095669465,12.591745846149934l43.146064846459922,154.385450710482473Z" fill="url(#linear-gradient-2)" stroke-width="0"/>
              <path d="M100.280872407140123,234.671881654518074c3.177282717118942,11.368967855207302,14.968961813669011,18.009130625458056,26.337445433589892,14.831983237454551l115.628739895229955-32.314736179310785-48.029977628360939-171.861090232856441c-3.177186249398801-11.368622673970094-14.969308859439479-18.009034518510816-26.337583080308832-14.831945651209026L34.775320465010736,67.694685097885667l-.589684073540411.16479886646448.002723041379795.009743599372086c.194024887250634-.061177482457424.389690771300593-.119411393390692.586961032160616-.174542465836566,9.65144088740999-2.69728586776364,19.662182025789662,2.940236249673944,22.359487095669465,12.591745846149934l43.146064846459922,154.385450710482473Z" fill="url(#linear-gradient-3)" stroke-width="0"/>
              <path d="M100.280872407140123,234.671881654518074c3.177282717118942,11.368967855207302,14.968961813669011,18.009130625458056,26.337445433589892,14.831983237454551l115.628739895229955-32.314736179310785-48.029977628360939-171.861090232856441c-3.177186249398801-11.368622673970094-14.969308859439479-18.009034518510816-26.337583080308832-14.831945651209026L34.775320465010736,67.694685097885667l-.589684073540411.16479886646448.002723041379795.009743599372086c.194024887250634-.061177482457424.389690771300593-.119411393390692.586961032160616-.174542465836566,9.65144088740999-2.69728586776364,19.662182025789662,2.940236249673944,22.359487095669465,12.591745846149934l43.146064846459922,154.385450710482473Z" fill="url(#radial-gradient)" stroke-width="0"/>
              <path d="M100.280872407140123,234.671881654518074c3.177282717118942,11.368967855207302,14.968961813669011,18.009130625458056,26.337445433589892,14.831983237454551l115.628739895229955-32.314736179310785-48.029977628360939-171.861090232856441c-3.177186249398801-11.368622673970094-14.969308859439479-18.009034518510816-26.337583080308832-14.831945651209026L34.775320465010736,67.694685097885667l-.589684073540411.16479886646448.002723041379795.009743599372086c.194024887250634-.061177482457424.389690771300593-.119411393390692.586961032160616-.174542465836566,9.65144088740999-2.69728586776364,19.662182025789662,2.940236249673944,22.359487095669465,12.591745846149934l43.146064846459922,154.385450710482473Z" fill="url(#radial-gradient-2)" stroke-width="0"/>
            </g>
            <path d="M34.775320465010736,67.694685097885667c-9.65144088740999,2.697285867765459-15.288964508599747,12.708024780858977-12.591659438730858,22.359534377332238l1.351317969989395,4.835292270421633c.105890465640186.378897758608218.498935471679943.600241462960184.877900303430579.494332252412278l34.264988394019383-9.576028080420656-1.543060133039035-5.521384973595559c-2.697305069879803-9.651509596475989-12.708046208259475-15.289031713913573-22.359487095669465-12.591745846149934Z" fill="url(#radial-gradient-3)" stroke-width="0"/>
            <g>
              <path d="M147.67044073336001,222.468768324097255c-.946902487139596.264630610758104-1.500819863349534,1.247202449497308-1.235995402770641,2.194798570979401l.023583842579683.084387815637456-.027912284358536.003370220836587c2.54823177210892,11.0609640418661-4.343720531860527,20.429679770944858-15.388820043441228,23.516451079827675l113.094069139890053-31.606372351820937c10.444013005610032-2.918785807364657,16.5443922625509-13.751434250490092,13.625606455190791-24.195447256092848-.109495889460959-.391798702974484-.515092897099748-.620209657608939-.906891600079689-.510713768149799l-109.183640107010433,30.513525688782465Z" fill="url(#linear-gradient-4)" stroke-width="0"/>
              <path d="M147.67044073336001,222.468768324097255c-.946902487139596.264630610758104-1.500819863349534,1.247202449497308-1.235995402770641,2.194798570979401l.023583842579683.084387815637456-.027912284358536.003370220836587c2.54823177210892,11.0609640418661-4.343720531860527,20.429679770944858-15.388820043441228,23.516451079827675l113.094069139890053-31.606372351820937c10.444013005610032-2.918785807364657,16.5443922625509-13.751434250490092,13.625606455190791-24.195447256092848-.109495889460959-.391798702974484-.515092897099748-.620209657608939-.906891600079689-.510713768149799l-109.183640107010433,30.513525688782465Z" fill="url(#linear-gradient-5)" stroke-width="0"/>
            </g>
            <rect x="90.450993740405096" y="113.415451763380162" width="99.074825337672621" height="7.208004368133558" rx="3.603998783815572" ry="3.603998783815572" transform="translate(-26.330466031124899 41.997195908097325) rotate(-15.614070740302662)" fill="url(#linear-gradient-6)" stroke-width="0"/>
            <rect x="96.188855229931178" y="133.946694547609098" width="99.074825312696461" height="7.208004316079126" rx="3.604004260297156" ry="3.604004260297156" transform="translate(-31.644833139525389 44.299252549717437) rotate(-15.614070744830395)" fill="url(#linear-gradient-7)" stroke-width="0"/>
            <rect x="101.926717630020093" y="154.477937159820556" width="99.074825310663314" height="7.208011138617707" rx="3.603998775835255" ry="3.603998775835255" transform="translate(-36.959201077394113 46.601309530897936) rotate(-15.614070739974842)" fill="url(#linear-gradient-8)" stroke-width="0"/>
            <rect x="108.308327905578693" y="179.705086327917655" width="64.17619807860487" height="7.20801114242073" rx="3.60399683510577" ry="3.60399683510577" transform="translate(-44.157685375187185 44.553337072440115) rotate(-15.614070722647698)" fill="url(#linear-gradient-9)" stroke-width="0"/>
          </g>
        </g>
      </a>
      <circle cx="247.418401731764789" cy="63.73672669078087" r="9.557636136986897" fill="#181818" stroke-width="0"/>
      <circle cx="38.817212098702385" cy="216.124211745668163" r="15.346860807350822" fill="#181818" stroke-width="0"/>
    </g>
  </g>
  <g id="Pattern">
    <a xlink:href="https://www.notion.so/dmmnotes/Type-A-d0420320e0bf4731b311ee86887d6ca3?pvs=4">
      <g id="A">
        <a xlink:href="https://www.notion.so/dmmnotes/Type-A-d0420320e0bf4731b311ee86887d6ca3?pvs=4">
          <g id="A-2" data-name="A">
            <path d="M66.245497924739539,249.709151180853041c-19.9208984375,0-37.4453125-12.73828125-43.60546875-31.69677734375-3.78515625-11.64990234375-2.8076171875-24.076171875,2.75390625-34.990234375,5.560546875-10.9140625,15.0390625-19.00927734375,26.6884765625-22.79443359375,4.6044921875-1.49609375,9.3740234375-2.25439453125,14.177734375-2.25439453125,19.921875,0,37.4462890625,12.73779296875,43.6064453125,31.69677734375,7.8134765625,24.048828125-5.39453125,49.970703125-29.4423828125,57.7841796875-4.6044921875,1.49609375-9.375,2.2548828125-14.1787109375,2.2548828125Z" fill="url(#A4)" stroke-width="0"/>
            <path d="M66.26075671380022,166.473402889837416c15.747924804689319-.000518798828125,30.391967773439319,10.036224365234375,35.521606445308862,25.8236083984375,6.375732421880457,19.62225341796875-4.36279296875,40.697784423828125-23.985107421869543,47.07342529296875-3.834838867189319,1.24603271484375-7.726440429689319,1.8385009765625-11.5517578125,1.8385009765625-15.747924804689319,0-30.391967773439319-10.036224365234375-35.521606445308862-25.8236083984375-6.375732421880457-19.62225341796875,4.36279296875-40.697723388671875,23.985107421869543-47.07342529296875,3.834838867189319-1.24603271484375,7.726440429689319-1.83837890625,11.5517578125-1.8385009765625M66.261855346609082,149.473372372259291h-.001831054678405c-5.697631835941138.000213623046875-11.351318359380457.898742675782159-16.804443359380457,2.670654296875-13.808715820310681,4.486663818359375-25.043823242191138,14.082366943359375-31.635498046869543,27.019287109375-6.591674804691138,12.93695068359375-7.750854492191138,27.666534423828125-3.26416015625,41.475372314453125,7.301513671869543,22.471893310546875,28.073974609369543,37.570281982421875,51.689575195308862,37.570281982421875,5.697387695310681,0,11.351440429691138-.898529052734375,16.80517578125-2.670654296875,13.808715820310681-4.486663818359375,25.043823242191138-14.082305908203125,31.635498046869543-27.019256591796875,6.591796875-12.936981201170966,7.7509765625-27.66656494140625,3.26416015625-41.47540283203125-7.301635742178405-22.471893310546875-28.073608398428405-37.570281982421875-51.6884765625-37.570281982421875h0Z" fill="#181818" stroke-width="0"/>
          </g>
        </a>
        <a xlink:href="https://www.notion.so/dmmnotes/Type-A-d0420320e0bf4731b311ee86887d6ca3?pvs=4">
          <g>
            <path d="M77.322265625,117.9873046875c2.537109375,1.4697265625,4.7080078125,3.27294921875,6.51171875,5.4091796875,1.802734375,2.13818359375,3.3212890625,4.47509765625,4.5576171875,7.0126953125,1.2353515625,2.53857421875,2.2197265625,5.22607421875,2.955078125,8.06396484375.734375,2.83935546875,1.302734375,5.6943359375,1.703125,8.56494140625.9345703125,5.67724609375,1.46875,11.419921875,1.603515625,17.23046875.1328125,5.81005859375.0322265625,11.65478515625-.30078125,17.53076171875-.134765625,1.669921875-.267578125,3.03955078125-.4013671875,4.10693359375-.1337890625,1.0693359375-.384765625,1.93798828125-.7509765625,2.6044921875-.3681640625.66845703125-.8857421875,1.2021484375-1.552734375,1.60302734375-.66796875.40087890625-1.6025390625.76708984375-2.8046875,1.10205078125-1.13671875.1328125-2.3212890625.23291015625-3.556640625.30029296875-1.236328125.06591796875-2.388671875-.267578125-3.4560546875-1.00146484375-1.0009765625-.6669921875-1.8369140625-1.80322265625-2.50390625-3.40625-.6689453125-1.6025390625-1.0361328125-3.90673828125-1.1025390625-6.912109375v-1.001953125c-1.669921875-.2001953125-3.65625-.3662109375-5.9599609375-.50048828125-2.3037109375-.13330078125-4.658203125-.21630859375-7.0625-.25048828125-2.404296875-.033203125-4.7255859375-.05029296875-6.9619140625-.05029296875h-5.66015625c-.0673828125.60107421875-.150390625,1.60302734375-.25,3.00537109375-.1005859375,1.40234375-.318359375,2.8046875-.6513671875,4.20751953125-.3349609375,1.40234375-.7861328125,2.671875-1.3525390625,3.806640625-.568359375,1.13623046875-1.3525390625,1.73583984375-2.3544921875,1.80322265625-.935546875.0654296875-2.0029296875.1328125-3.205078125.2001953125-1.2021484375.06591796875-2.37109375-.0673828125-3.5068359375-.40087890625-1.1357421875-.26611328125-2.087890625-.80126953125-2.8544921875-1.6025390625-.7685546875-.8017578125-1.1865234375-2.0693359375-1.251953125-3.806640625,0-2.0693359375.0322265625-4.44091796875.099609375-7.11279296875.06640625-2.669921875.2001953125-5.5751953125.4013671875-8.71533203125.1328125-2.6044921875.3505859375-5.45947265625.650390625-8.56494140625.30078125-3.10546875.734375-6.2939453125,1.302734375-9.56640625.56640625-3.271484375,1.3017578125-6.54443359375,2.2041015625-9.8173828125.9013671875-3.271484375,2.0361328125-6.376953125,3.4052734375-9.31640625,1.3681640625-2.93798828125,2.98828125-5.642578125,4.859375-8.1142578125,1.8681640625-2.4697265625,4.1064453125-4.54052734375,6.7109375-6.2109375,3.0712890625-1.93603515625,6.4443359375-2.90478515625,10.1181640625-2.90478515625,3.671875,0,7.1455078125.9013671875,10.41796875,2.70458984375ZM52.9794921875,163.5673828125c4.2080078125-.33349609375,8.3974609375-.583984375,12.572265625-.75146484375,4.1728515625-.166015625,8.365234375-.18310546875,12.572265625-.05029296875.2001953125-4.7412109375,0-8.9814453125-.6015625-12.72216796875-.6005859375-3.7392578125-1.4365234375-6.89501953125-2.50390625-9.466796875-1.0693359375-2.56982421875-2.3388671875-4.54052734375-3.806640625-5.91015625-1.4697265625-1.3681640625-2.97265625-2.0537109375-4.5078125-2.0537109375-1.3369140625,0-2.72265625.685546875-4.1572265625,2.0537109375-1.4375,1.36962890625-2.7724609375,3.373046875-4.0068359375,6.0107421875-1.2373046875,2.638671875-2.3544921875,5.89453125-3.3564453125,9.76708984375-1.001953125,3.8740234375-1.7373046875,8.24853515625-2.2041015625,13.123046875Z" fill="none" stroke="#181818" stroke-linecap="round" stroke-linejoin="round" stroke-width="33"/>
            <path d="M77.322265625,117.9873046875c2.537109375,1.4697265625,4.7080078125,3.27294921875,6.51171875,5.4091796875,1.802734375,2.13818359375,3.3212890625,4.47509765625,4.5576171875,7.0126953125,1.2353515625,2.53857421875,2.2197265625,5.22607421875,2.955078125,8.06396484375.734375,2.83935546875,1.302734375,5.6943359375,1.703125,8.56494140625.9345703125,5.67724609375,1.46875,11.419921875,1.603515625,17.23046875.1328125,5.81005859375.0322265625,11.65478515625-.30078125,17.53076171875-.134765625,1.669921875-.267578125,3.03955078125-.4013671875,4.10693359375-.1337890625,1.0693359375-.384765625,1.93798828125-.7509765625,2.6044921875-.3681640625.66845703125-.8857421875,1.2021484375-1.552734375,1.60302734375-.66796875.40087890625-1.6025390625.76708984375-2.8046875,1.10205078125-1.13671875.1328125-2.3212890625.23291015625-3.556640625.30029296875-1.236328125.06591796875-2.388671875-.267578125-3.4560546875-1.00146484375-1.0009765625-.6669921875-1.8369140625-1.80322265625-2.50390625-3.40625-.6689453125-1.6025390625-1.0361328125-3.90673828125-1.1025390625-6.912109375v-1.001953125c-1.669921875-.2001953125-3.65625-.3662109375-5.9599609375-.50048828125-2.3037109375-.13330078125-4.658203125-.21630859375-7.0625-.25048828125-2.404296875-.033203125-4.7255859375-.05029296875-6.9619140625-.05029296875h-5.66015625c-.0673828125.60107421875-.150390625,1.60302734375-.25,3.00537109375-.1005859375,1.40234375-.318359375,2.8046875-.6513671875,4.20751953125-.3349609375,1.40234375-.7861328125,2.671875-1.3525390625,3.806640625-.568359375,1.13623046875-1.3525390625,1.73583984375-2.3544921875,1.80322265625-.935546875.0654296875-2.0029296875.1328125-3.205078125.2001953125-1.2021484375.06591796875-2.37109375-.0673828125-3.5068359375-.40087890625-1.1357421875-.26611328125-2.087890625-.80126953125-2.8544921875-1.6025390625-.7685546875-.8017578125-1.1865234375-2.0693359375-1.251953125-3.806640625,0-2.0693359375.0322265625-4.44091796875.099609375-7.11279296875.06640625-2.669921875.2001953125-5.5751953125.4013671875-8.71533203125.1328125-2.6044921875.3505859375-5.45947265625.650390625-8.56494140625.30078125-3.10546875.734375-6.2939453125,1.302734375-9.56640625.56640625-3.271484375,1.3017578125-6.54443359375,2.2041015625-9.8173828125.9013671875-3.271484375,2.0361328125-6.376953125,3.4052734375-9.31640625,1.3681640625-2.93798828125,2.98828125-5.642578125,4.859375-8.1142578125,1.8681640625-2.4697265625,4.1064453125-4.54052734375,6.7109375-6.2109375,3.0712890625-1.93603515625,6.4443359375-2.90478515625,10.1181640625-2.90478515625,3.671875,0,7.1455078125.9013671875,10.41796875,2.70458984375ZM52.9794921875,163.5673828125c4.2080078125-.33349609375,8.3974609375-.583984375,12.572265625-.75146484375,4.1728515625-.166015625,8.365234375-.18310546875,12.572265625-.05029296875.2001953125-4.7412109375,0-8.9814453125-.6015625-12.72216796875-.6005859375-3.7392578125-1.4365234375-6.89501953125-2.50390625-9.466796875-1.0693359375-2.56982421875-2.3388671875-4.54052734375-3.806640625-5.91015625-1.4697265625-1.3681640625-2.97265625-2.0537109375-4.5078125-2.0537109375-1.3369140625,0-2.72265625.685546875-4.1572265625,2.0537109375-1.4375,1.36962890625-2.7724609375,3.373046875-4.0068359375,6.0107421875-1.2373046875,2.638671875-2.3544921875,5.89453125-3.3564453125,9.76708984375-1.001953125,3.8740234375-1.7373046875,8.24853515625-2.2041015625,13.123046875Z" fill="#fff" stroke-width="0"/>
          </g>
        </a>
      </g>
    </a>
  </g>
</svg>