<?xml version="1.0" encoding="UTF-8"?>
<svg id="Layer_1" data-name="Layer 1" xmlns="http://www.w3.org/2000/svg" width="2601" height="301" xmlns:xlink="http://www.w3.org/1999/xlink" viewBox="0 0 2601 301">
  <defs>
    <clipPath id="clippath">
      <rect y="633" width="2601" height="301" fill="none" stroke-width="0"/>
    </clipPath>
    <clipPath id="clippath-1">
      <rect y="-957" width="2601" height="301" fill="none" stroke-width="0"/>
    </clipPath>
  </defs>
  <g clip-path="url(#clippath)">
    <g>
      <path d="M1129.825085600219609,43.30891653441995c104.668689237560102-5.332781589950173,209.345251183820437-5.957457667539529,314.031397297190324-.511063115959587,20.474519325270194,33.94670576667977,16.142818073750277,72.664642488779464,15.898764103600115,108.730380008089924-2.143430520510265,316.646870403639696,25.089295798839885,631.814948551669659,44.741288209229879,947.369812435409585.463462939120291,7.443229394790251-.195106259439854,14.886116501280412-1.000176298429778,22.290581750429737-1.429410069270034,17.574020648340593-7.31648472948018,33.278377239210386-19.60509844984017,46.241347142150516-78.958476325289666,57.087093002329311-151.686901723749543,55.237795096460104-240.401375605019894-5.996034624310596-36.269226757160141-52.345373713029403-47.629716578359876-113.661352616609292-58.328385430009803-174.043911430519074-37.845993396050289-213.601737974749994-52.490771918040082-429.557050036930377-61.186007547630652-646.0425238304706-3.069329523689703-76.414613629320229-15.50564210534958-152.390841567519601-10.888983027529321-229.196080978989812,1.4417325698696-23.985400685220156-2.105436143679981-49.116033715020421,16.7385767484393-68.842507355830094Z" fill="#008f90" stroke-width="0"/>
      <path d="M1488.744271947090056,1129.309159905000342c-14.819176134600184-227.957992246930189-32.594383245760127-455.77680152944049-43.332757932680124-683.926860277200831-6.303985930390354-133.922507263428997-1.41161090173-268.371988698740097-1.555373408669766-402.584456905859042,123.911643086469667,10.512752864109643,249.355041455489754,7.776885574379776,370.426005862679631,42.845120223559206,12.609683319240048,28.81799750800019,4.99540482536031,58.996269961030521,5.395543803070268,88.505433041460492,3.086101816169958,227.564895571369561-.866340250310259,454.797878493989629-35.631537351250245,680.299695747019541-1.6368388292899,10.996181551220616-2.76229388378988,24.399762019030277-11.193280333930034,30.726275960020757-89.045469938989754,66.81954629134998-130.859821964779712,181.137578938009028-234.702219078919825,232.913812843909909-15.713242011299826,7.834636022039376-28.651525346449944,26.20550374360937-49.406381560299906,11.220979367089967Z" fill="#00918a" stroke-width="0"/>
      <path d="M1769.092798445789867,871.401372619739959c10.837639275060155-117.582778086750295,25.853290835840198-234.970537436410268,31.350495268859959-352.802373019580045,5.627617564300181-120.62747496062002,1.985976346220014-241.689827157720174,2.266313234790232-362.562145190519914.056135836040085-24.137280404829653-2.094482809809961-48.537823268929969,11.572539518979738-70.393880767649534,170.379450546040061,24.108303564189555,333.697765958330365,73.630087923919746,493.161534725530146,137.023713789969406,15.256624905799981,57.391986271470159-6.523737191069813,109.84772655587949-21.586967295840168,163.210167052529869-92.535133649699674,185.925293212510041-224.772337347879784,343.542662606010708-357.650653368749772,500.72708013447027-10.982428657070159,12.991294256599758-21.672540216619836,25.624726135600213-39.968715269720178,27.853022719239561-40.97197219328973-10.856014508039152-87.761876126789957-5.688745337369255-119.144546813849956-43.055584718459613Z" fill="#009483" stroke-width="0"/>
      <path d="M51.906473170000027,330.307424848469964c139.694883746939922-74.06604550773045,286.151568550650154-131.123145501149338,438.169808623800236-174.190774487789895,24.997903919419514,102.709903862600186,31.799581957269766,208.636354699409821,57.378526008979861,311.47801814973991,25.584934156209783,102.86553805657968,59.609069762889703,202.896330301839953,91.194719418120258,303.847664040909876,4.446197819569534,50.027483176880196,37.826996207599223,98.717132682900228,7.093652843689597,150.408821388139586-36.986327833549694,18.313962298100705-76.891034558469983,12.889805786990109-115.085652033890256,10.057028133180211-61.008187018159333-4.524794103459499-122.067888934660004-9.059600138580208-182.990160740329884-14.192554911009211-29.651359353189946-7.931161311830692-44.432027673429729-32.331693479430214-59.779188729449743-55.578885349240409-89.475046001470218-135.532973534710436-170.332385439580321-275.574739196659721-223.221413731060238-430.141550029809878-6.774979286559756-33.568637685149952-33.706317778819539-64.668007850380491-12.760291659859831-101.687766934120191Z" fill="#00849c" stroke-width="0"/>
      <path d="M625.114800627669865,770.536980099140237c-75.157327182800145-189.537204522030152-115.598747267079489-387.616640475080203-143.992869267669448-588.566463004730394-1.135381513310676-8.03585873387965,5.786783197019759-17.210189619169796,8.95452157965974-25.853973698839582,113.819686243399701-36.27009430805083,228.984407656099393-66.664853390069766,348.126900719869809-79.680546381840031,17.118007079309791,18.249601408359922,14.761671131839648,41.280574061869629,15.347161056030018,63.470159382070051,6.440218020349675,244.09059423924009,59.957864988089568,480.312366416279474,122.252555297750405,714.700414803379317,15.225647508469592,57.28698934716067,45.454966368819441,110.147506894050821,66.390381445579806,166.018021842250164,7.816230587000064,20.859388956190742,18.36856974407965,41.015974539060153,16.106706301149643,64.327088741750231-6.090567065879441,19.189107811160284-19.533217196310034,15.330406664949805-30.405427931369559,7.110097344049791-128.583411125310704-97.220134970320032-264.244216239339949-185.220564467719669-383.933862558760666-294.036484451679826-8.393676656649404-7.631316794600025-11.69114358725983-18.918357796179407-18.846066642239748-27.488314576409721Z" fill="#008998" stroke-width="0"/>
      <path d="M1051.162691580910177,1095.682418787429924c-15.198948757159997-41.7265649703495-28.621745969940093-84.204367103059667-45.900630140410613-125.050994524639464-79.262089048319467-187.371675048359975-113.277496217099724-385.799603237860538-144.679677530119989-584.895934830380611-16.155996303539723-102.431709077899541-24.292098468519725-205.521724055120103-22.378859105009724-309.29951381167939,96.124575386110337-20.572209104620924,193.151602795090184-33.200998699060619,291.621560794849756-33.127064434530439-5.506959745959648,184.554032953609749,12.403623725900616,368.336430503760312,24.7042176551804,551.921969517409707,10.49911280032029,156.699737349890711,22.907186318119784,314.605441817850078,65.263214932630035,467.44673473776038,9.400014205390107,33.919397581319572,22.15380232328971,66.909482532129914,33.363341512180341,100.327427810049812-30.815151076209986,24.229388036770615-63.037120970619981,14.392707972059725-93.885132048450032,1.737369644330101-32.315244378060015-13.257252235920532-63.672414334740097-29.016717236930162-93.705771206410645-47.168434898980195-7.498926196639331-5.515034044539789-12.72520676233944-12.547004092890347-14.40226486443953-21.891559209339903Z" fill="#008c94" stroke-width="0"/>
      <path d="M2273.772448312679899,389.314284352590221c11.22374429374031-55.549234628570048,22.447488587510179-111.098426471099629,33.671232881270043-166.647618313640123,196.125946376709635,71.353004566460186,379.908170072069424,166.506467191719821,551.149853368190179,285.839365160550187,21.512005417180262,35.377973436469802,2.622638877079225,61.626092068670005-22.595358594639947,82.371584605789394-160.689172993269494,132.190657017320518-323.351315248760329,261.883679375050633-502.458861425980103,368.935959090640608-18.229085883120206,10.895548802269332-41.379641588030154,34.345033034729568-59.790142063300209-2.4319580993606-7.791243294139804-27.298943595619676-5.824777573870051-55.249604041509883-5.581408187069883-82.940210980539632,1.20110151650988-136.731068022740146-7.925079342289791-273.211752182010059-9.690962136180133-409.874362552400271-.345030016689634-26.702121225290284,5.66971944136003-51.092684247279976,15.295646157710053-75.252758911039564Z" fill="#009776" stroke-width="0"/>
    </g>
  </g>
  <g clip-path="url(#clippath-1)">
    <g>
      <path d="M-670.867672925210172-1069.288641849259875l-.096806869790271,1.01147208186967c2.406920041890771,28.116053719040337-20.995914209199327,40.345448706750176-35.938125499259513,57.498440899730213-26.49383522215976,30.414003831800073-61.220192563620003,53.787007833920143-83.492731135899703,95.619592611799817,147.747266854189547,143.240292988009969,323.836666089830032,236.938782283089495,510.045464890089534,314.513392713150097,77.162124632220184,37.082905697340721,150.341612924979927,82.098806007309577,229.49830629258031,115.341901776479972,17.101055842139431,7.182040836350097,34.254235121829879,15.320048216930445,46.432592312509769,30.460072797480279,2.869938655820079,3.986378718969718,4.744481592049851,8.445137634779712,5.687290533790474,13.265290684869797-4.265460434899978,23.886293936080619-22.891456613030641,22.392511227530122-40.197659462110096,22.073662117610183-160.274345521990654-2.953821896470799-320.812700820089958-3.753924265520254-479.217651800729982-32.359660122569949-77.32453449005061-13.963704515320387-154.340343346620102-30.442019945860011-228.222374930410297-58.766278395830341-96.018637025140379-48.22635154263935-177.272526158600158-117.630306672109327-265.957365681650117-188.645931584079335-87.003269457190072,76.547038687579516-163.32142226176984,161.723001966989614-245.678083692850123,240.522994656339506-73.430525945469526,76.356067531489316-148.441105588549362,151.056999138929314-224.436319294779423,224.794515573219542-107.905387589260499,111.599133722240367-218.935812540660663,220.065885081870874-328.603622250490844,329.888722793790294-13.291596367829698,13.310362915450241-27.035671030719641,26.555084224370148-47.511907376359886,27.999185508200753-59.758396145739425,58.642602499408895-119.516792247899502,117.28479698684896-179.275389632569386,175.901490745919546,1.930782922289836-14.027862703060237,13.98944634478994-20.440243103680587,22.599419577200024-29.05511195723011,437.334000531050151-437.577965650019905,874.822417155060066-875.001923262660057,1312.413233810560087-1312.323072788280115,9.952066854029908-9.945947327620161,21.270419837429472-18.524384359100168,31.951730210169444-27.740680112469818Z" fill="#e47860" stroke-width="0"/>
      <path d="M2545.837277927969808-231.400406455210032c68.319319669910328-12.469258027209435,135.843946232739654-27.918550812950343,200.654340207819587-53.548065081189634,91.346898460810735,28.658442065829149,186.13691371071036,39.118569279309668,280.546799978110357,49.239781123739704,76.16109557216987,8.164958251790267,152.174011668970707,16.040753825819593,227.342564460859649,30.915524385999561-.837481426879094,13.238089716930517-10.821921493328773,18.289375570861012-20.916639452529125,22.981571642940253-82.621890048070782,38.404232148470328-165.459811556370369,77.184011411840402-253.358990649110638,101.363825884260223-95.916238366399739,26.385159527309952-187.2753044309502,64.855810740859852-280.83058095970955,97.445101559400428-80.678709930820332,6.194078457809155-159.652373116399758-9.247167382211046-238.985924425410303-19.711342432539823-10.280329487980453-1.355949955141114-22.239810065929305-4.830730886251331-22.808335083570455-19.528588370190846,23.213849589960773-58.324836274609879,44.082250373350689-117.68118239252999,74.931688944540838-172.676844235149474,8.236933461389526-14.684262488630338,12.890067430959789-32.944367385240184,33.425076978999641-36.48096447727039Z" fill="#6c70a0" stroke-width="0"/>
      <path d="M212.851785423779802,390.553470493469831c-109.210972871289414,2.223292879640212-218.421741714760174,4.44638173147996-327.632918613820038,6.669878638939736-18.644959838339673-7.307543641169104-39.812174912090086-9.586274034869348-53.479144441849712-26.818425155239311-7.261508740670251-52.367972404570537,3.913165784610101-104.33459395266982,3.500327544219545-156.563145681060632-.120365493849931-15.262899961890071-2.963908507709675-31.448636230839838,9.915301158610418-43.910902165359403,5.017476477049968-12.892898981010148,17.027228018680034-14.038859295010298,27.526345389000198-13.557914436109968,94.362512979419989,4.324233439399904,188.282533297950067-12.329014722059583,282.676024472879362-5.807027964519875,45.636738471580429,11.606127379020108,94.17278715916018,13.877242614918941,134.942074211130603,41.441443086279833,17.417100363819372,56.47862868555967,1.954594333449677,112.578461705139489-2.090327890549815,168.864964839959612-21.538121596769997,18.954049583730011-44.041345978620484,35.533572413710317-75.35768182962056,29.681128837110009Z" fill="#c0895d" stroke-width="0"/>
      <path d="M152.644421607209551,156.479337392720481c-102.496356816349362,4.483574238020083-204.992713632729647,8.967148476029251-307.488866508479987,13.451334710240189-110.639743287119927-23.42888085154118-221.850933372469626-44.704213347110453-327.517253508789508-86.868516278540483,1.051513151729523-25.452104737050831,21.210229228419848-43.273569698690153,26.743767043950356-66.93600047992004,9.770195843279907-18.544780759129935,28.872807560859655-17.58962479082038,45.112295510849435-19.484942867169593,101.146823306799888-11.807449474560599,201.111202446620155-32.927850520691209,303.029543825140536-38.69945690340046C-30.932004887389667-28.839894478309361,45.534914475369987-15.12049755552016,122.481547178240362-4.202970256119443c21.353188323349968,3.029860619699321,43.453653614319592,6.031692607529294,58.584420568789938,24.664800593589462-.364093973440504,47.222531497420277-13.67657100039014,91.769887189439942-28.421546139820748,136.017507055250462Z" fill="#ca855f" stroke-width="0"/>
      <path d="M2773.189425553140609,89.428297015680073c70.172244273989236,4.346452562580453,140.036089049849579,3.85600682903987,210.419784290788812-1.336577693229628,58.657593028420706-4.327417758389856,117.999808716251209,11.12525801504944,177.276388012220195,1.244679855510185,66.824445618640311,57.916898378409314,133.648687231299846,115.833796778639226,200.472418872550406,173.750287221319013-47.722580541980278,21.182296552070511-99.051237179060081,6.212718153220521-148.584594920750533,15.165864485380553-81.176676064369531,14.67262095731985-163.756746230489625,21.571998216249995-245.744937119809038,31.749790667930029-71.755135222390891,6.715584774139643-142.938674974329842-3.485476943280446-214.216833973950997-8.326270932940133-26.455816078429052-1.796609405119852-53.254333496119216-1.952157953869573-79.589468886939358-6.718291568470704-24.680687952420158-8.200547297528828-49.293531217879718-16.519935335309128-73.94535418400028-24.703043202749541-16.502888192469982-5.478450624099423-37.430842316730377-9.31071225309006-34.388698284269594-35.159311244549826,4.677834441209598-12.199548319500536,12.847807404929881-22.150303464619356,24.055383916260325-27.852142076920245,65.316681662119663-33.230780859489641,118.355467645938916-85.575816534169462,184.245912277900061-117.814985511279701Z" fill="#5476a0" stroke-width="0"/>
      <path d="M2679.539045601830367,289.976195936349541c39.246319648759709-11.962615193770034,78.274967806499262.879474259720155,116.468652585889686,4.815260989220405,56.95540003078986,5.868881861880254,115.446856771880448-4.438035985049282,171.020174547789793,15.210272674390581,51.554585264270827,70.438989388600021,100.888822421630721,142.290141431380107,140.289485371339651,220.462613241979852-42.346991436699682,2.267765254879123-84.693829994179396,4.536703527909594-127.040719547740082,6.805590804879103-16.770149179759755,4.67276342264995-33.39800602366995,5.542533819010714-50.724438157879376,1.709479531760735-108.176674173730134-23.931559683770502-217.883799409780295-39.285625691140012-326.943376215390344-58.295089344950611-20.094216850139674-3.502268966689371-50.190856182440257.714281281791045-50.152380881860154-34.812347513699933,24.428978319519956-47.509996029539252,61.59445839367072-86.417093316179489,88.728874101760084-132.127739369539995,8.146711215820687-13.723639605230346,21.180618032620259-22.933046408369592,38.353728196090742-23.768041014040136Z" fill="#477b9c" stroke-width="0"/>
      <path d="M2131.391535727840164-258.075828932240256c13.0334226622399-5.631243532940061,29.541182376010056-.877320734380191,40.246212235109851-13.471856360540187,122.628156235659844,32.975693245240109,248.622288793209918,34.627333904691113,374.2002440840497,40.146360734320297-29.732383544120239,55.761789072040301-61.673637918659551,110.529896826920776-79.324255373109736,171.82722036819996-4.900817695669502,17.018907850419964-14.431484467910195,30.544605438590224-27.53243817980001,41.953714086020227-24.94390702228975,31.438152418550089-62.300576132439801,21.012947471469488-94.477473435829779,27.222042479360425-16.558896197200283,3.195482420779626-34.134479419140007,1.832151366329526-51.254678541670273.068919918459869-67.762567137309816-24.48990524393048-133.029222198709704-53.761569657120162-189.452567089790136-99.813773961260267-3.479449558119995-58.023218617140628,17.280470289270397-112.119666478380168,27.594956301040384-167.932627264560324Z" fill="#78719c" stroke-width="0"/>
      <path d="M2298.463996514619794,2.529499370119993c46.844366410050043-6.67538717439038,95.163819839710413-3.047608912879696,140.516383854440392-20.148971349330168,84.033475523269772,14.921102167520075,168.755863304760169,23.306492573309697,254.000217957869609,26.752433986030155,26.736309812060426,26.764465646960161,53.472007584329731,53.529135365340153,80.208215273570204,80.294723056219482-45.942053099530312,51.612814227029958-104.400126248059678,86.483784832530546-163.505459718269776,119.924844516520352-16.636368458490324,9.412675515720366-30.620646803590716,20.621952624180267-43.749019937700723,33.759709032129649-27.741690138409467,14.666710039430654-59.0442011619798,11.169922256160135-87.730313269728867,11.287637334050487-84.068052925140819.344976435450008-169.118159066710632,7.079015627160516-251.602748104260627-18.075804888119819-31.08224260732004-40.201060623389822-67.581293406310124-77.153869225820017-77.747297598149999-129.895984438319829,39.703298778340013-49.263834867720107,91.928397800500079-80.512625291890799,149.610021542229788-103.898587249180309Z" fill="#67769b" stroke-width="0"/>
      <path d="M-108.012113680239963-37.321371888880094c-11.575409359609694-52.463802506999855-46.383981955849777-97.848359590660039-46.80826458627962-153.709440913959952,49.957721709199177-8.770453281139453,101.16528158031997,2.558650999760175,151.056868514299822-9.687241416129837,10.404578720599602-2.554042290580583,21.316407269019692-2.139035447339666,29.49263289081955-10.464985481660733,103.085258718119803,15.211714022800152,207.884743434759912,21.213598148130586,307.196135732060611,57.05724990914041,22.752247581459415,41.362846412490399,47.929399432850005,81.892681354959677,46.68412159952004,131.79268169388979-6.649843168180269,12.056648723790204-18.028322301600383,18.204156693380355-30.626649742110203,19.524196985000344-56.93973161014037,5.966932505510158-110.152868389770447,36.604320471290521-169.592720101780287,25.6288217798201C104.958724254680419-2.932793505060545,25.713445514160412-3.265428057400641-50.265908534740447-20.720634905310362c-19.481278893319541-4.475443044079839-40.887190043479677-2.849065112989592-57.746205145499516-16.600736983569732Z" fill="#ce8064" stroke-width="0"/>
      <path d="M179.39001062628995,22.819910667220029C243.186147982430157,3.780357502069819,310.716187105180325.209568434329412,373.260689477810047-24.015683548119341c57.031161870209871-.569555556280648,113.319582891080245,2.259912161369357,163.000670643469675,35.529820651639966,6.905775036179875,48.053691531578806-7.020924597949488,94.141766127198935-13.485980081659363,140.972033659689259-74.569600811470082,37.267007739959809-154.348795590240115,46.787919959499959-236.39707230148997,44.128896352260199-44.577758073950463-13.378236586020648-89.155516104310664-26.756881184080157-133.733478162480424-40.135321754300094-3.751333666429673-47.085611952219551,11.745703683480315-90.322870426310146,26.745181050639985-133.659834693949961Z" fill="#c18466" stroke-width="0"/>
      <path d="M286.378307738130388,196.615067115470083c77.48646824763-18.068722715739568,158.275253774749217-19.621880459740169,233.934600066500025-46.827224711720191,38.808417081189873.487917690270478,68.904646646699803,19.209598000959886,95.416295213699414,45.493143499499638,7.230130913199901,55.822205329830467,4.947389384819871,110.415066464720439-21.944850836320256,161.665469554850461-79.374688153129682,11.780031450110073-158.368801966409592-4.147868516280141-237.585051279489562-3.137534677930489-23.284460423120436.29707146697001-46.550306640720009,2.039319442470514-69.824446227819863,3.117936789150917-13.492553961310477-53.43548233294041,8.46929924053984-106.876587287310031.003453063430243-160.311790453850335Z" fill="#b58766" stroke-width="0"/>
      <path d="M2552.560822151999673,457.054043989319325c-60.159807772909517,11.168103347110446-120.319615545849956,22.336206694230896-180.479423318789486,33.504310041311328-38.522900768590262,4.194601510059329-77.002335362610211,7.313372742459251-114.936803942950064-4.511863665800774-56.741659932310085-31.111076954040072-114.429874936829947-60.618769669279573-167.295118348580218-98.3828962541902-8.712894430109827-31.496677663959417,7.982876231750197-57.486989001199618,18.366342506390083-84.893345837419474,38.798829684109933-31.037842323770747,77.785112646080051-61.811312893070863,130.132615353340043-66.318806042330834,92.071560609189874-.778833951109846,183.805124805609466,18.110076539431248,276.223196625109722,3.894452463040579,16.58698021868986-2.551234475509773,34.2145855441604,1.671949119130659,51.362192848540872,2.766853987230206,34.000132433318868,24.994549840350373,80.8485217043999,18.855290001540197,113.605119778239896,46.862937251080439-49.693867248960487,50.094288259499081-76.711859930241189,117.419561473019712-126.978121501300848,167.078358057078731Z" fill="#577c98" stroke-width="0"/>
      <path d="M1877.435696776490204-70.963576810860104c75.740220300879628-8.924375323919776,151.480338587859933-17.848648633949779,227.220354882759693-26.773023936059872,61.801917864730058,38.834713648249817,126.992666686150187,71.121492829749513,193.808658887260208,100.265998037780264-44.231174494980223,42.227845536929635-100.2496143028402,68.244695232870072-147.047317212090093,106.941981050949835-83.893784236709962-.1003872723104-168.033068371899844,1.509739973149408-246.720778968679952-35.30065478141023-18.920363107530193-46.510837030099538-41.283188605049872-92.411532470800012-27.260917589249857-145.134300371259997Z" fill="#7b7596" stroke-width="0"/>
      <path d="M1910.818527779219949,69.401021496360045c55.937465390320085,27.31787529840949,118.196792288620145,17.185490183139336,176.666230009090214,29.672776968010112,21.089251123230042,4.504036156819893,42.609782367389926,6.9908149349003,63.933043514539804,10.397987845860371,28.97646968024992,42.326620019150141,57.953449321069911,84.653749998798958,86.930429027190257,126.98026796043996-42.374561260770406,24.506156135359561-84.749122586900285,49.012924288729664-127.123887919030039,73.519692463879437-30.416386259750197,5.822621624490239-58.572000364560154-5.337069574009547-86.967436359000203-12.556257286659275-84.583384685629881-21.503705004641233-168.885633372759912-44.10978645015075-252.885733399689798-67.818654592791063-15.130362830860122-4.270575688469762-30.033137194630399-8.726311127679764-40.522559395710232-21.668963467559479-7.226382004019797-10.697710811610705-11.648326149299919-22.045174237689935-8.215537547179792-35.225756436940173,53.2395599197298-51.689891851920038,114.111341079459635-89.529407528600132,188.18545206978979-103.30109345423989Z" fill="#737a92" stroke-width="0"/>
      <path d="M533.691005093720378,16.115766926290235c-50.172233132580004-26.575603186030094-108.540843779330316-20.411856291780168-160.429907603910578-40.131450517999838-7.775960394649701-45.209346957560228-31.044745937730113-84.710991474890761-46.760932255409898-126.994860407260603,57.952051337760167-31.191770373849977,115.904510687510083-62.383540791320229,173.856969993669736-93.57490319676981,55.301321151310731,21.133603384259914,114.159522230870607,32.385592325149446,167.083060263230436,60.122307820999595,11.067789588530104,60.599207947250761-1.817983768790327,117.327308251869908-27.768488833759875,171.991039138039923-34.177977336120421,13.711017318530139-68.262571604940604,27.905926893150536-105.980701563819821,28.587867162990733Z" fill="#c57d6d" stroke-width="0"/>
      <path d="M634.077573000909979-17.40518385589985c21.987158181909763-53.518221924549835,22.318928977810174-111.356814142939584,33.362622490390095-167.057955518840572,51.257423370329889-20.038863442359798,102.514846740679786-40.077726884689582,153.772474095219877-60.116386342830083,50.596302320560426,44.322039743240566,82.578455660470354,101.337382694320695,110.113766373569888,161.422674832880148-17.300649121600145,39.367661307680464-49.52370910009995,67.125098890400295-76.873062082409888,98.668367296510041-14.034934981929837,8.935329651410939-30.111379802699958,10.434246658650409-45.284766000590025,6.913703620220986-58.307549733460291-13.528754699280398-119.636814102679637-13.894515618320838-175.091034876179947-39.83040388794052Z" fill="#bb7c74" stroke-width="0"/>
      <path d="M821.142916977200002,356.954406275579458c-60.166628454499914,11.041518353220454-122.001676445270277,13.079818143930424-180.435048538350202,33.471766345210199-11.837931292269786-16.487316555399957-31.321111412119535-22.262685621710261-46.922700319989417-33.478901225829759,6.713800167269255-51.225195333950069,13.428416271399328-102.449574731010216,20.142828391289186-153.674158112339683,6.680004973210089-17.496063894969666,23.47279806853021-21.684264487030305,38.021204909100561-22.873745203820363,68.348318584589833-5.58767976639956,135.807860547410201-19.541754633280107,204.5013635264595-21.367600645169659,8.071724280180206-.214660355420165,15.279163187450649,2.566599690239855,20.498147525920103,9.243974666769645-14.754226677139741,64.016414169670497-22.518614836310007,130.121103246569874-55.805795494429731,188.67866417517962Z" fill="#aa866c" stroke-width="0"/>
      <path d="M874.495781966529648,169.833589877900522c-87.464379180659307,6.397381131298971-175.364763751549617,9.391784760029623-260.567989440599376,33.439319420499487-26.984036694690076-25.213891594500637-64.262303848509873-32.414790101690414-93.614680693530318-53.485270922420568-8.904856659280085-45.892238474779333,6.857612957240235-89.32108693030932,13.378097332670222-133.67248348945941,30.72129340579977-19.38262692976059,65.645601580709808-26.173024448999968,100.385343740459575-33.519726615470063,70.664299267999922,1.073684773989953,137.29375007822,27.146083566740344,207.124337817120249,33.379169095309408,45.778278499489716,29.173272837560944,65.27043632358982,73.138155935540453,70.48049161093968,125.21706693095075-7.371228642629831,16.066667683759988-17.66505262830924,28.363616643279784-37.185600367060033,28.641925580590396Z" fill="#b5826e" stroke-width="0"/>
      <path d="M1910.818527779219949,69.401021496360045c-63.795606118770138,33.166968535369961-127.552050384249924,66.402274897869574-187.21118929710974,106.820602898780635-22.864096002330371.202877803109004-36.289929129020038-16.086485346770132-49.76727989992014-30.408307137670818-28.615427836430172-30.40903613240971-62.124199145980128-55.522267939009907-90.790339588229926-85.771051943070233-.202576165330356-62.096650362569562,18.840419959009978-116.106620317039415,67.012009240660063-157.743779312389961,38.734964245769788-17.558547134540277,84.615597702289961-13.647450081009083,120.392302212919731-40.09432464738984,35.660317425069934,22.27752263991988,71.320328852049897,44.55494330952024,106.981054310910167,66.832261899879995,8.886139422540055,47.321914514410309,16.559330367079838,94.932321052479892,33.383443020769846,140.364598241860222Z" fill="#867790" stroke-width="0"/>
      <path d="M1650.061728234620205-97.701513997990332c-31.237914239130077,44.941573683210663-41.838766526580002,99.255018958410801-66.803188565910204,147.045682425459745-57.170391342259791,7.211801745770572-113.869161527580218,7.164203655460369-169.461108318189872-10.925395179448969-33.728875946580047-55.842631920300846-69.152318208250108-110.819281399650208-90.186617815330465-173.319780853450538,4.658487528090518-33.526333382939811,2.698211795700445-69.986892178939343,39.035525379940736-89.753752186469683,32.281523998389275-12.628868959929605,66.689489225889702-14.608647875080351,100.403797697679693-20.068287036940092,62.338285224770061,49.007313498059375,124.674938445079988,98.014219158470041,187.011591621810112,147.021532830849537Z" fill="#977789" stroke-width="0"/>
      <path d="M1737.14106276684015,203.279126667439414c84.227552844379716,35.299648686460387,174.719559230829873,49.200643099490662,261.287815384249825,76.480667980900762,37.177924013889879,11.715867989589242,77.228083573900221,12.597384638429503,112.796586194890097,30.212869993400091.638866436579974,26.539378180139465-13.862643202859999,48.966898408440102-20.023507531630003,73.659932492470034-58.975159848419935,48.555646237159635-130.864401863970215,61.702534450749226-203.049485287489915,74.200613180890286-69.005719100880015-18.371734568650936-130.991586894519969-51.115319457380792-188.791452757500338-92.481154945870003-20.837265003179709-45.934723367980041-7.694723103779779-91.454659510690362,1.766134343410158-137.085181709120661,8.022609982770064-14.064622378329659,18.376142931359936-24.799809789879873,36.013909654070176-24.987746992670509Z" fill="#6e7e8e" stroke-width="0"/>
      <path d="M1737.14106276684015,203.279126667439414c-11.24252832853017,11.10259515827056-22.484954665000259,22.205292308641219-33.727381001430331,33.307989459030068-54.201526787319835,22.818351599260495-112.54292544971986,22.510209276721071-169.383351112249784,26.988091389970577-44.169404453200059,3.479653521209912-88.323703728699911,24.068880548699781-133.563177995220485,5.173066384149934-40.650357517009979-34.193898123819963-82.078657525209564-67.754682547900302-93.673052677239866-123.91486772206008,28.577696023060525-47.039083256359845,61.885854193150408-89.031665320039792,115.999233683230159-108.828372651720201,53.287368513329966,6.85819269133026,107.743250991440163-.306397762339657,160.465001933410349,13.339746940440818,54.730109300860022,33.503262127309426,94.49471264865997,83.560047307619243,140.348900652989869,126.878986001789599,4.511343652759933,9.017093352180382,9.022585095539853,18.036124772299445,13.533826516510089,27.055360198399285Z" fill="#8a7d86" stroke-width="0"/>
      <path d="M1061.838369353579765-137.723421854349908c21.065203638329876,29.099817981909837,57.86883587938064,39.305979551059863,80.241069511990645,66.836851808940082,22.397667616929539,15.740036823470291,14.522009217569575,39.680675919169516,13.868046163079271,59.941601548329345-1.848084937019848,57.25386896334021-3.958938754639348,114.593448510240705-11.016902109279727,171.596538503270494-8.081265403439829,13.144153575569362-20.860519642090367,18.036154225870632-35.247654801410135,20.134464443959587-60.804157114209374-4.146864185519007-119.523669684389461-20.796254652609605-179.427159642369588-30.492586213609684-8.997121042049912-1.456253948619633-18.729251979480068-3.134591930289389-22.264540569310157-13.952856487840108-17.775999855570262-42.611894594419937-41.285724177329939-82.041499261599711-66.790133286570381-120.364974374079793,26.586384298710072-35.492335047879351,53.300872426360002-70.872888489990146,86.926239934240584-100.262319826149906,40.113223490810014-28.969973891030349,89.483804213059557-34.765446985299604,133.711034799629488-53.436719402820017Z" fill="#aa7d7a" stroke-width="0"/>
      <path d="M907.991227906280074,136.340591748699808c67.380800759239719,10.83001033661003,134.918565777799813,20.876824879330343,200.588274032489608,40.229368568330756,26.224574225920151,41.919615947499551,17.157783638020192,85.365905831469718,5.620661612139884,129.025645818299381-43.264914440819666,50.957975058230659-87.318207385019377,100.935785491179558-152.673468144249455,124.821463671310084-46.794524829620059-24.48735051165022-93.589457671209857-48.974700979650152-140.383982457249658-73.462459503270111,13.453644864699527-63.608467274279974,25.266315393359946-127.684341040429899,53.35449712450918-187.121632596030395,11.163788548460616-11.163788548449702,22.328801176510751-22.327985239649934,33.494017832360441-33.492385958639716Z" fill="#9f8572" stroke-width="0"/>
      <path d="M961.52669540666011,430.417069806640029c51.142983762980293-46.853603727459813,108.015212815619634-87.422598522710359,153.766949600620137-140.189760368769385,13.501008960270156-.898456299109966,24.431374593459623,5.504124633389438,33.237785229869587,14.271361934259403,52.64406664552007,52.411066910070076,109.932193263680347,100.370634944749327,154.765290177329916,160.310357435580045,7.692335757340516,17.345298525870021,3.838964396380106,32.664418527690032-8.337177443299879,46.445508157009499-48.961193675780123,30.168536080270314-103.470328515850269,38.351836177070254-159.70603629831021,39.551583311770628-52.42009296373999-44.537275295399922-113.107739988799949-75.638444534960399-173.718055557599655-106.863045662969853-.002578639459898-4.507920283270323-.005565160129663-9.017064558980564-.008755708609897-13.526004806880337Z" fill="#918676" stroke-width="0"/>
      <path d="M1141.988676967679567,156.22679008168052c-12.157659889770002-58.986322123309947,6.68802100107041-117.383726020610993,3.377776781380817-176.196873936950396-.955484665130825-16.980031266460173-2.184032986170678-33.944834922499467-3.287320881599953-50.91658816043946,60.828961365709802-26.579603997730374,131.509890554409139-25.538051944620747,187.110111356759262-66.77329648362047,31.201023013119993,57.889490079030111,62.402862180930242,115.777756034930462,93.604293380330091,173.665614022370391-37.844202530230177,37.90050217308999-75.688303133760201,75.801718356269703-113.53230172332951,113.702832525608756-55.065500183860422,20.027947815950029-110.595974804510661,28.05906651469013-167.272558913540706,6.518312033031179Z" fill="#9f7b81" stroke-width="0"/>
      <path d="M1416.146615337310323,269.987873818330627c95.116515341669583-16.651743900400106,190.976967942039664-26.893086749150825,287.268902547479684-33.401369905970569,8.315692783050054,40.110771387980094-12.908178185609813,80.269476948759802.169729526930041,120.371885496279901-27.221742618729877,60.152342048289938-85.111640660690227,87.21043423052015-133.807129282849928,124.183970039989617-61.712254939210197,3.167153871470873-120.997817950740227-5.506459609089688-175.317634138879839-37.446467586229119-3.931905370130153-59.254448501030311-8.802627228200436-118.687914002560319,21.686131347320043-173.708018044069831Z" fill="#7f8084" stroke-width="0"/>
      <path d="M1416.146615337310323,269.987873818330627c-6.676026755960265,55.698124829528751-13.352155525830312,111.39635167302913-20.028284295670346,167.094578516489491-20.389852887859888,38.814522962699812-53.390546114110293,48.073289628089697-93.774510341600035,40.027321952969942-62.350228463959866-62.29514096083949-124.700354892200266-124.590587941549529-187.050175518439573-186.884096897930249-2.237775754150789-37.885103049339705-4.475551333970543-75.771838146670234-6.713939084350386-113.657145136629879,11.136595384569773-6.778268684900468,22.273190899830297-13.557761405789279,33.409378664529868-20.33970215510999,55.756295834260527-2.174946610970437,111.512693464510448-4.347955175820061,167.270723099190036-6.520555902970045,32.579674661010358,42.803915239609523,66.971808792630327,83.995683506030218,106.886807476340437,120.279599623180729Z" fill="#8e827d" stroke-width="0"/>
    </g>
  </g>
</svg>