<?xml version="1.0" encoding="UTF-8"?>
<svg id="Layer_1" data-name="Layer 1" xmlns="http://www.w3.org/2000/svg" width="2601" height="301" xmlns:xlink="http://www.w3.org/1999/xlink" viewBox="0 0 2601 301">
  <defs>
    <clipPath id="clippath">
      <rect y="-319" width="2601" height="301" fill="none" stroke-width="0"/>
    </clipPath>
  </defs>
  <g clip-path="url(#clippath)">
    <g>
      <path d="M2599.375741430560083-47.980196500509919c67.413586151929849-18.697056429709846,117.632715647740042-68.293218138380325,178.107244866880137-99.9129564922805,82.605188246639955-43.190746615679018,157.046813121689411-101.823594966239398,226.038315477890137-163.31928943920957,68.732543091339721-61.264885029590005,148.374664305580154-109.281089842059828,210.619014364889154-177.77816798918002,104.721766229800778,104.719432661960127,209.443596240070292,209.438597559229947,314.165525054509999,314.15786763656024-23.01438118329952,63.59316470335034-79.745477435059001,94.024780328900306-130.293667576809639,129.285169626689822-80.68492649512973,56.282907020269704-166.604942171280527,104.346920454509927-252.14716135945946,152.8615172905902-35.774873874580408,20.289616312229555-75.064551523590126,30.88259086124981-113.7502949489608,43.147279069369688-123.454027163819774,18.154928489209851-246.95408351397964,16.495167228869832-370.421229176229645-.583625954130184-29.804887129420422-4.122787134339887-59.51265658083048-2.138920069999585-89.390583835950565.00225379253061-23.11079246205918,1.656140884059823-47.79178257400963,4.402912532669689-63.428198210479422-19.775126503880529,8.028189457129884-70.604222562379618,61.037006506040598-118.360650105069908,90.501035343720105-178.084921037059758Z" fill="#7864a6" stroke-width="0"/>
      <path d="M-670.867672925210172-431.288641849259875l-.096806869790271,1.01147208186967c2.406920041890771,28.116053719040337-20.995914209199327,40.345448706750176-35.938125499259513,57.498440899730213-26.49383522215976,30.414003831800073-61.220192563620003,53.787007833920143-83.492731135899703,95.619592611799817C-642.648069575970112-133.918843267850207-466.558670340329627-40.220353972770681-280.349871540070126,37.354256457289921c77.162124632220184,37.082905697340721,150.341612924979927,82.098806007309577,229.49830629258031,115.341901776479972,17.101055842139431,7.182040836350097,34.254235121829879,15.320048216930445,46.432592312509769,30.460072797480279,2.869938655820079,3.986378718969718,4.744481592049851,8.445137634779712,5.687290533790474,13.265290684869797-4.265460434899978,23.886293936080619-22.891456613030641,22.392511227530122-40.197659462110096,22.073662117610183-160.274345521990654-2.953821896470799-320.812700820089958-3.753924265520254-479.217651800729982-32.359660122569949-77.32453449005061-13.963704515320387-154.340343346620102-30.442019945860011-228.222374930410297-58.766278395830341-96.018637025140379-48.22635154263935-177.272526158600158-117.630306672109327-265.957365681650117-188.645931584079335-87.003269457190072,76.547038687579516-163.32142226176984,161.723001966989614-245.678083692850123,240.522994656339506-73.430525945469526,76.356067531489316-148.441105588549362,151.056999138929314-224.436319294779423,224.794515573219542-107.905387589260499,111.599133722240367-218.935812540660663,220.065885081870874-328.603622250490844,329.888722793790294-13.291596367829698,13.310362915450241-27.035671030719641,26.555084224370148-47.511907376359886,27.999185508200753-59.758396145739425,58.642602499408895-119.516792247899502,117.28479698684896-179.275389632569386,175.901490745919546,1.930782922289836-14.027862703060237,13.98944634478994-20.440243103680587,22.599419577200024-29.05511195723011C-1577.898636414889552,471.197145401470152-1140.410219790879637,33.77318778883-702.819403135379616-403.547961736790057c9.952066854029908-9.945947327620161,21.270419837429472-18.524384359100168,31.951730210169444-27.740680112469818Z" fill="#e47860" stroke-width="0"/>
      <path d="M2599.375741430560083-47.980196500509919c-.402953061579865,34.291054387999793-18.997958319479949,63.050592990630321-37.738659257230211,87.366182475680034-22.332673265899757,28.975827137830493-33.764575501970285,61.617599896029787-49.130304045139383,93.10420080997028-.924541390861123,15.629559337659884-13.25204676939029,21.209062958680079-24.933986961820665,24.033804628879807-95.070474769629982,22.988777328429933-184.23411658563964,68.016762898470006-283.292127639929731,76.052326377230202-7.763209552860189.629881616579951-15.487871514650124,1.349113743749513-23.339261646330215.536886371549372-44.238048281210013-7.065409233019636-77.180816806049734-33.022674306969748-106.203923130839939-64.644278556599602-30.525537667159824-33.258693932930328-68.858421896330128-59.485589282509864-90.926586260290151-100.371848739260713-.934574053649612-4.564024397929643-2.427387970439668-10.294291471229371,1.413339426880157-13.238712235669482,77.76060123103025-59.61375765458979,160.238965023309902-109.403651278399593,259.840313595289899-122.865730355089909,65.867843619460018,65.724820139129406,148.294277084470195,42.300616363700101,225.740648373090153,39.604667977870122,43.03073732483972-1.49791963960979,85.724782516730556-12.73168361083026,128.570547546320086-19.577498754560111Z" fill="#8c65a0" stroke-width="0"/>
      <path d="M2245.064545511149845-68.00736572381993c-91.17991767147987,33.403837087499596-175.915627659189795,80.036519951069749-260.515397442209633,126.948166499640138-5.0943942418603.547178160740259-9.923835262610282-.342282220350171-14.510055856459985-2.610747127490868-46.518456936470102-46.901417097039484-73.549201427080334-103.722463134668942-85.405664063240238-168.274407086399151,8.538789738840023-72.741596944430057,30.020632277529785-140.653510159330835,75.304734303450005-199.609858060530314,38.992466266439806-10.830405789320139,73.780211236899959,9.900232552259695,110.542461885850116,15.512438452240531,32.519811132579889,4.963919920279295,63.67696239884981,17.107721499420222,95.579332087550029,25.576275417470242,15.848419746269883,4.206900129079258,35.241654520460088,6.440071640448878,38.952872155509795,28.486348577069293,6.708361678320216,11.157391652320257,13.416519372410221,22.314579320420307,20.125391163790027,33.471052891270119-6.575980555940077,48.71055167016948-8.509275223909754,96.762229136550559,19.926325765759884,140.500730436730009Z" fill="#97619e" stroke-width="0"/>
      <path d="M2191.618301409730066,226.038461854459456c92.913840331059873-12.623206197209583,179.176319553309895-50.073487101310093,269.473455979970367-72.528737958469719,17.829424805779126-4.433781523630387,36.629246830720149-8.312158351580365,51.414867783019872-21.019996108009764,89.91318663651964,8.205463748489819,181.251335980459771.35438115955003,270.043920353169597,17.607885650229946,80.433000016169899,15.629285515370611,158.519419292970269-15.046306988049764,237.931434169360728-4.322389679519802-90.727299975350434,69.889700642299431-171.802143800240628,152.538894624840395-273.989800570200714,207.276559652489595-.761346595029863,13.813072493670916-11.42339892748987,17.491113333890098-21.916021673299838,20.667230319970258-58.077897318330542,17.579891546749423-115.662591439760035,37.3724304849502-176.965618488019572,41.093365936059854-109.359368320951035-.819032733819768-218.826645377900604-.78071873232966-326.090920190520592-26.936398260309943-17.95522240461969-4.378193163989636-37.704058523670028-4.046818285529298-52.001167593009995-18.741373488459431,2.349714187670088-48.456877854350751-14.313614297479944-99.876544278689835,22.099850229530148-143.096146063980996Z" fill="#7c6aa1" stroke-width="0"/>
      <path d="M-395.508694295350324,380.099081838649909c-58.809892019299696-43.346625866429349-118.108243125159788-86.049764644199968-176.28562760172008-130.22921055075949-53.229824301159169-40.421775798580711-105.247886512839614-82.439619944290826-157.79909150928961-123.754198471480777,56.131897913730427,12.853115186630021,112.102754236970213,26.46331383477991,168.430801118929594,38.387568759300848,93.024428305750007,19.692760266740152,187.382865409920669,31.617849650159769,282.06120517582076,37.613470508299542,83.930968378969737,5.315388652060392,168.459671521549353-2.713930943539708,252.43564899931971,7.135486228030459,9.854794343419599,1.155865517779603,18.367988952310043-2.891706695330868,25.580929876819937-9.603662392160913,37.133268044670331-.89996021889965,64.163197339249564,18.665408375460174,88.540470623819601,43.642931416230567-3.914233815859916,66.581039895920185-24.507685510899137,128.325042860649774-54.757870290709434,187.270502850949924-26.118892032350232,24.869284742169839-60.212559000220608,20.865636143829761-91.746663339350562,23.534750407079628-32.1944777569297,2.725286441550452-64.770628026259146,1.417619052899681-97.185241449269597.446136298270176-64.830937575729877-12.66715267913969-128.661589048850146-29.573044829930041-192.195306052700289-47.469009806570284-17.384664225899542-4.896939352519439-38.007862510439736-6.546369341009267-47.07925555167003-26.97476524718968Z" fill="#dc7b62" stroke-width="0"/>
      <path d="M-281.751784229710211,52.480634980780451C-253.94458683214998,1.321324853839542-226.40686940059004-49.949955785829843-214.91881399993963-107.906022926390506-90.816214817329637-66.237179520110658,37.857033342250361-44.592829084380355,166.090442780880039-21.021595013360638,216.052532366539708-3.83412144922022,265.790785252490423,13.747719616890208,301.617289394170257,55.858687725350137c-.077604277320461,6.498211372600053-1.524721430890168,13.189354679610005-6.998368901260619,16.658653270919785C201.419407287489776,131.587847519460411,105.405963749510192,183.725510699190636-7.700824318309969,192.771384266659879c-91.350319955949999-46.76371909927002-182.70063995549026-93.527030186569391-274.050959911400241-140.290749285879428Z" fill="#e67267" stroke-width="0"/>
      <path d="M-7.700824318309969,192.771384266659879c24.444703536039924-19.969697866399656,56.070432615380014-19.062392747769991,84.221886917929623-27.213194944140014,80.53916279177065-23.319551141519696,150.277669035860526-67.960247759449885,223.246964889380251-106.370538209300321,42.139769040730243-27.546330458590091,89.131339110789668-31.4813207706502,137.61670123146996-28.338686493849309,34.323559027539886,69.161304054679931,61.601897986940457,140.952793866549655,79.864240120310569,216.112365608849359-2.303468320160391,9.893312925640203-8.381551160100571,16.860766935150423-16.951564499290726,21.892062143449948-96.384964104089704,17.995054869060368-193.102149428999837,13.999522569420151-289.704088615389992,2.52491403401109-26.550839933030147-3.153749164450346-53.30761662507939-1.600445920980746-79.582339721219796-5.659807204320714-16.28226612096023-2.515695064089414-35.25887441804025-.883864417090081-45.125292328540127-19.275787532319555-28.989626534109448-15.598874665180119-57.979253111770049-31.197341318330473-86.969695800639784-46.794991860329901-2.206284142779623-2.291567758729798-4.411344162380374-4.58395167216986-6.616812194009981-6.876335542050583Z" fill="#dd746c" stroke-width="0"/>
      <path d="M2191.618301409730066,226.038461854459456c-18.691459705939906,45.095176265091141-3.333508823719967,95.028084381830922-19.979329410759874,140.413852722020238-4.71153063815018,23.035024543270083-24.115110523620388,18.814988711530532-39.792249359750258,21.603793003790088-111.451054628729707-4.519478160419567-220.68577891815994-22.495836729659459-327.621461651439859-54.760408987030132-25.538755553240208-23.309751954879175-47.96425864918001-48.706715774559598-56.599891985620161-83.488306285109502,7.717209939050008-27.406990104310353,29.188219644760011-44.507842025970604,49.190885186000287-61.505820106500323,44.113466747369785-37.487243565150493,92.240343808629859-70.201889412339369,130.199409828889657-114.863876679009991,12.546925566350183-14.762602090349901,30.674994519069969-21.390857038650211,50.603699242550192-21.116557316369835,2.308704219230094,2.206690324600459,4.617510408800172,4.413686647269969,6.927846719650006,6.619968785559649,34.010791664629778,34.06853152902022,69.231457138780115,67.02999729198018,101.669515230969864,102.534185002140475,29.302648408850018,32.072325648930018,64.027208344390147,53.225977177529785,105.401576199510146,64.563169860509333Z" fill="#8f6b9a" stroke-width="0"/>
      <path d="M1977.61936325960005,52.321138206249998c-75.696013897460034,66.817805001249326-151.39202779488005,133.63561000251957-227.088245676539827,200.453211019580522-18.580622604330074,1.537741589789221-32.328832826050075-7.620251427721087-44.617844931110085-20.066772986130673-23.194899549870115-95.231399182239329-46.53882231353009-190.492465321509371-44.270590655740307-289.735607880809766,35.00415618363013-35.252200986889875,44.034521291520377-90.061927130809636,88.772549285750301-117.969217692289931,44.52762034251009,25.347171895909923,101.746353684070073,21.070093284969516,140.401523499569976,60.123933400799615,21.193309935430079,59.750889617540452,43.579611013779868,118.883207636599764,86.802608478069942,167.194454138850233Z" fill="#9d6896" stroke-width="0"/>
      <path d="M433.522724385229594,32.447968093159943c-44.584422915109826,8.91288761253054-89.168845830179635,17.825775225020152-133.754288840669687,26.73927496450051-41.141078119580015-32.431947904500703-95.365349137719932-43.064049511171106-133.677584708079848-80.209246126611106,1.891923055350162-24.56436038631,11.459293169569719-48.429799941949568,6.724553974359878-73.599146404729254,51.499176547329625-25.826131439940582,85.346859618170129-70.974539923119664,121.038671056419844-113.408845545170152,11.715512063390634-13.928740776790619,12.861599558150374-34.769912026379643,5.952918174550177-53.700726868140009,11.331467786339999-34.912450802979947,23.940343064289664-69.093880534170239,53.545143446270231-93.549711406119968,16.22638124219975,1.441099433220188,23.392713847199957,14.719696550790104,32.40263519220025,25.259214232370141,56.332584905179829,65.896387529770436,102.927940159229365,138.696663989049739,149.554914796509365,211.511421497310039,1.771644690240464,5.200535717610364,2.241819379770277,10.529632209870215,1.59484517933015,15.971459326279728-13.910533731859687,41.804966921269624-42.471462990720283,75.114648663869957-65.565161616429577,111.552994518419837-8.308524428470264,13.109904839229785-20.294791617610827,23.585056976820852-37.816646654460783,23.433311811890235Z" fill="#e66b6e" stroke-width="0"/>
      <path d="M801.211826350720003-241.769039880229684c26.644238366009631-59.541180400410667,79.331151589310139-99.822181744060799,113.666114663329608-153.675578244270127,22.758921271950385,1.797514252299607,30.228608918670034,20.824151997539957,38.880640606850648,36.730187707360074,26.868434744979822,49.395551019890263,53.328219737719337,99.03207676871989,78.682639121910142,149.240753392809893-4.182490493450132,100.858768506800516-13.487462956450145,200.700094165219525-62.289757798390383,292.197916707789773-6.835807020959692,4.53200931686024-14.055347264889861,7.134570878769409-22.361402609850302,4.766540314340091-34.582161728720166-15.442110784420038-53.402879187809958-46.566111995340179-75.451486312409543-74.780438913339822-27.836180397360295-35.620044587880329-56.305341890210002-70.748673124270681-83.817231315480058-106.588160798610261-.932611884159996-49.678319226190069-14.992777251590269-100.578966400759782,12.690483644039887-147.89122016607962Z" fill="#cb6b7e" stroke-width="0"/>
      <path d="M326.500165234399901,486.989456001029794c-88.706614763839752-16.121280378190022-177.418332749839465-32.213795365490114-266.113516597610214-48.396686776200113-12.101400030869627-2.208092526529072-25.308836533369686-1.382905734859378-34.657933553769908-11.775400869890291,20.052662968860204-60.125769624269196,40.104713897900183-120.251335177189503,60.156968680450518-180.375472709889436,118.542001982959846,13.069836291650063,236.659488782069275,33.580836733510296,356.747523605879906,17.292616617120075,16.556958719819704-2.245834288740298,33.938878939439746,1.601698498259793,50.938793197869927,2.628277130479546,26.710558314929585,43.438388706060323,16.095173667139534,88.649903884340347,6.374965697029438,133.876827912779845-54.358978885079523,35.809878440140892-105.615694033159343,77.869761350961198-173.446801029849667,86.749838695600374Z" fill="#d47a69" stroke-width="0"/>
      <path d="M500.357543196490042,393.414960772679478c-2.260963509779685-42.350791889749416-4.522131047399853-84.701379751719287-6.784522621020187-127.051967482999316,6.708230948910568-6.720062033249633,13.417481906009925-13.439920169470497,20.126324894709796-20.160186274080843,41.089506470720153-17.62397851877904,82.063880695230182-35.520802764909604,123.559160791370232-52.243016102359434,84.860856279609834,6.958149648559811,171.843119427659985-8.523159113279689,254.459680928740454,23.498999246699896,10.496677953139624,11.860807752559595,10.892963576879993,26.149753607000093,9.935630403309915,40.803810761390196-15.841864820340561,51.414671763720435-44.813709203380313,95.670645274899471-75.943609993199971,138.774419380670224-48.422791962540032,31.798894521979491-100.032731680600591,55.601706293969983-158.37977634464005,62.314635034140338-45.410692675710379-11.673065488580505-89.16408954643066-28.618435008800589-133.728680901600455-43.029759379730422-12.996161336639489-4.202563616719999-27.712418520489337-7.269650141350212-33.244207157669734-22.906935183730639Z" fill="#c77773" stroke-width="0"/>
      <path d="M640.738877678330027,199.418007719719753c-40.785365830010051,19.836595100799968-77.155282826380244,51.667863353050052-127.039328354660029,46.786227316089935-31.911580496040187-69.307425945729847-57.165566575739831-141.111576326539762-80.176926865189671-213.756980952739468,44.243690770579633-39.080850333990384,62.558565478760102-96.686348255720077,100.318930309669668-140.399380396809647,49.221816864460379,25.174081475759522,99.97552478425041,46.434144254179046,153.685984242320046,60.14169117056008,11.641113428559947,59.972032274888988-9.801349594759813,116.363518517578996-20.756966111140173,173.52155932820915-4.790485858449756,24.991042493650639-6.962050344709496,52.900111098660091-26.031693220999841,73.70688353468995Z" fill="#d77072" stroke-width="0"/>
      <path d="M1710.179655609710153,225.970536491409803c13.449467214549713,8.935352375739967,26.898934429129895,17.870704751510857,40.350033822399837,26.80483291695964,22.264802758909809,26.779121625480911,44.528075352990072,53.559365447410528,66.79134794706988,80.339609269340144-12.888112351629843,58.572008775870927-11.229845230939645,120.611075980430542-41.700387006560049,175.066897483300636-41.28877122538961,25.759861041369732-85.772057049559862,38.960127926179666-134.861823960459787,34.253954221499953-66.980256623839978-39.279607695030791-126.470258907640073-87.829843943030028-179.183611910790205-144.769836629840029,16.72364671646028-60.646751412209596,52.205034062610139-110.797459467840781,89.721463612970183-159.809215369969934,51.678334442769938-20.476093251840211,103.616525909179927-38.605533250780354,158.882977495370142-11.88624189129041Z" fill="#97728f" stroke-width="0"/>
      <path d="M1710.179757623619935,225.970434477510025c-50.129261314999894-7.741467943879798-98.399944112410139,4.743448391539459-147.009596823319953,13.538646429370601-17.590498493929772-1.149531174571166-27.020677435129983-13.550150700561062-36.722276915899783-26.03917783909128-39.159483745770103-50.410800215869131-81.387646151840272-98.720214910548748-107.191013718570048-158.170825353699911-6.879870920460235-69.021838881729309,26.950032209339952-123.426813662129462,63.852759013199829-176.720487935049277,60.135802605439949,24.492351838270224,120.271401226700164,48.984499692339341,180.406693806280146,73.476953588110518,15.55447819821984,91.305099707438785,31.10905841037993,182.610097400998711,46.663434638309809,273.914891110359349Z" fill="#a66b90" stroke-width="0"/>
      <path d="M1483.10962917902998-121.421410220959842c-13.827799379540011,57.948360793669963-54.11783125068996,106.367979498460045-60.203798710709634,167.10417345902988-60.538184484900739,17.344119367200619-115.773167710380221,53.178164073379776-181.604264649320612,52.158738719070243-17.0539580814293-15.519057022360357-16.712330812129949-37.665780747980534-17.045444920699993-57.026526488950367-1.567033909519523-91.089531198130317-12.970491943940033-181.515400371369651-16.219369717049631-272.432570883750486-.604600269260118-16.924579109539991-3.150627148859712-34.771261993939333,7.666096087279584-50.231889828229214,36.86362929967072-50.144225485570132,102.001822072330469-65.381760178310287,140.349297338850192-113.693864260620103,35.666439171050115,49.004959925910043,71.332878342090225,98.009919851840095,107.000133580680085,147.014471678589871-1.171775943440025,43.610283535379494,6.851663616580026,85.76818433274002,20.057350990970008,127.107467604860176Z" fill="#b6698a" stroke-width="0"/>
      <path d="M1215.702847268529695-281.849485243789786c8.89368181196005,124.737600173509236,17.787363623930105,249.475200347079408,26.680943422000382,374.212902534499335.236624537649732,7.850533579690818-3.966539528780231,12.892480730910393-10.411987615860198,16.530698075620421-84.13158324647975-.774397695669904-166.376216743729856-20.615295577949837-250.167824727909647-25.203111718589753-6.338735330799864-.347051241700683-11.269601746440458-4.734591654370888-13.307324344750668-11.338864233340246,36.745539739980813-87.672238412379556,41.120367924940183-182.426351948609408,60.000295774460028-274.007477294920136,42.616245883040392-43.022582435789445,89.035274108620797-81.349556922949887,140.323589358040408-113.663668627099469,15.614037784110224,11.173985032819473,35.090792728049564,16.939868506369749,46.882308134019695,33.469521263829847Z" fill="#c06b83" stroke-width="0"/>
      <path d="M968.496654002009564,72.352139414399971c87.252331197080821,7.776570310349598,174.844716097870332,12.915408739239865,260.444759557530233,33.511994492329904,3.281221499680214.102876597599789,8.243199137500596.66723926432951,8.522072055709941,2.608122554400325,9.148070158650626,63.679597550320068,29.298626751629854,127.032426449389277,6.792285328519938,191.898945526559146-50.383754295709878,32.329519552030433-95.663391281539589,74.310731810141078-158.147273510960076,83.925577688831254-66.165698342329961-24.600749045610428-122.071718909719493-66.50597465392093-178.957663986869193-106.67245447932055-7.797643287610299-5.505799130140076-10.431143772920223-15.177850291550385-12.292724942200039-24.481141048639984-2.316006970910166-11.19060372317017-4.632421953860103-22.381207402780092-6.948734922890253-33.5719130962907,11.081257560199447-50.222972298109198,30.575375444260317-96.241157427150029,66.916735421759768-133.838652189659115,4.556848333149901-4.460159816049782,9.113696666279793-8.920319632130486,13.670544999399681-13.380479448210281Z" fill="#b77380" stroke-width="0"/>
      <path d="M954.826109002609883,85.732618862610252c-18.548192451919931,46.489949978769801-38.462132157779706,92.297237742310244-66.914899345970298,133.838447987560357-81.5929876848395-16.494861084040167-165.509990665459554-4.534513221929956-247.172536093239614-20.152039078629969,15.596695943910163-82.410909047181121,31.193085758960478-164.820696028620659,46.789271502660085-247.229870970320917,33.119819260929944-20.593556695529514,70.366251537629978-34.311225914179886,100.308019106700158-60.202274977140405,63.921080588909717,57.464213140180618,101.821962767829973,137.356462695530354,166.990144829849669,193.745737038530933Z" fill="#ce7077" stroke-width="0"/>
      <path d="M928.127130613310328,553.712685552270159c-40.865227708130078-49.944464333030737-75.692671718410566-103.916651926810118-106.914562909930282-160.293333291920135,24.547425669789845-46.759674615740551,49.095055454529756-93.520369283270156,73.644011027719898-140.278718023389956,59.734181237469784,49.657248722719487,130.296319874330038,82.769270517939731,193.717797600360427,126.789133673740253.044279274979999,43.840068420209718,2.772005382709722,88.130295491209836-21.43735571184061,127.955056076139954-44.862104058160185,19.690044178409153-90.130671218509633,38.248510491359411-139.009890006309433,45.827861565429885Z" fill="#b6787a" stroke-width="0"/>
      <path d="M1242.26688175470008,293.055555274950166c2.812005893490095-62.915138381780707-6.978248876290309-124.930590412770471-13.324550157270096-187.191523469260574,4.479636234040299-4.499218718528937,8.960496504089861-8.998437567799556,13.441254934609788-13.499186451159403,62.914347365990579-4.956312863920175,115.095071245150393-51.450364846910816,180.521937938180599-46.682184086779671,42.784683065659465,67.483063074540041,90.017652857859503,131.74582438608013,140.265452354079571,193.826419551979598-40.67560247720985,46.502615512069497-58.370506838699839,107.96478063036011-100.119412191259926,153.768076204910358-35.552306628930182,24.61834483192979-74.40970222110036,29.065643496069242-115.749835325590084,19.041735774979315-38.909345119629506-36.340023168670086-87.525087374299801-64.124528133330386-105.034847552749852-119.263337524669623Z" fill="#a8718a" stroke-width="0"/>
      <path d="M1362.6463389151304,413.345240208100222c-18.111301892450683,26.323706316689822-21.54089479240065,58.291098614469774-33.457604847520088,86.99611738601925-.55872315013039,10.044397033290807-4.972321304409888,18.924433520211096-13.920203439230136,22.510794594780236-58.498368140820276,23.44572094114028-116.755644369820402,48.250810107379948-181.774131218789989,46.723935046060433-28.146853586580619-18.690369579180697-64.466678285740272-28.965026832110198-71.656030056010422-69.29950908931005,21.120757914250134-37.4056335924206,3.991195786969911-83.301481792120285,26.736210962089899-120.346606250749574,51.231447195370492-28.958410953950079,102.463098375010304-57.916617923659942,153.693525518599927-86.874824762680873,40.125227650470151,40.096867787760857,80.251883364740024,80.193531416980477,120.378233080860809,120.290093075880577Z" fill="#aa7781" stroke-width="0"/>
    </g>
  </g>
</svg>