<?xml version="1.0" encoding="UTF-8"?>
<svg id="Layer_1" data-name="Layer 1" xmlns="http://www.w3.org/2000/svg" width="2601" height="301" xmlns:xlink="http://www.w3.org/1999/xlink" viewBox="0 0 2601 301">
  <defs>
    <clipPath id="clippath">
      <rect y="954" width="2601" height="301" fill="none" stroke-width="0"/>
    </clipPath>
  </defs>
  <g>
    <path d="M635.73974609375,81.70068359375c.01904296875.01123046875.03759765625.02294921875.05615234375.03369140625h0c-.00390625-.0234375-.0087890625-.046875-.0126953125-.0703125-.0146484375.01220703125-.02880859375.02490234375-.04345703125.03662109375Z" fill="none" stroke-width="0"/>
    <path d="M551.22265625,8.32421875c.2392578125.0263671875.478515625.052734375.7177734375.07958984375-.115234375-.1923828125-.23046875-.38427734375-.34521484375-.57666015625-.1181640625.16552734375-.2451171875.3310546875-.37255859375.4970703125Z" fill="none" stroke-width="0"/>
    <path d="M478.5791015625,155.09130859375c-.0791015625-.1865234375-.158203125-.373046875-.23681640625-.5595703125-.07958984375.05224609375-.15869140625.10107421875-.23779296875.150390625.1572265625.1376953125.3173828125.27099609375.474609375.4091796875h0Z" fill="none" stroke-width="0"/>
    <path d="M2366.56640625,28.572265625c63.66015625-1.36962890625,127.894287109369543-1.9677734375,190.27880859375-17.3095703125,15.5576171875-3.82568359375,29.6259765625,3.201171875,44.15478515625,3.37646484375V0h-344.044921875c-5.56201171875,13.400390625-11.41943359375,26.693359375-17.6640625,39.84716796875,42.39208984375-3.966796875,84.380126953119998-10.35205078125,127.275390625-11.27490234375Z" fill="#239d62" stroke-width="0"/>
    <path d="M279.46630859375,29.39111328125h0v-.00048828125c18.8662109375,10.328125,39.07421875,18.80859375,56.33984375,31.34033203125,46.076171875,33.44287109375,99.15576171875,56.193359375,142.29833984375,93.951171875.0791015625-.04931640625.158203125-.09814453125.23779296875-.150390625-19.10400390625-45.16259765625-38.2333984375-90.314453125-57.28759765625-135.49755859375-2.65771484375-6.30224609375-5.16015625-12.669921875-7.6708984375-19.0341796875h-174.009765625c7.70458984375,4.7001953125,15.548828125,9.181640625,23.62744140625,13.30908203125,7.197265625,3.67724609375,12.93408203125,8.71728515625,16.46484375,16.08203125Z" fill="#3977a5" stroke-width="0"/>
    <path d="M30.00048828125,291.1171875c-10.025390625-.2529296875-20.01025390625-2.11328125-30.00048828125-3.74853515625v13.63134765625h112.58154296875c-26.92626953125-5.626953125-54.3916015625-9.17041015625-82.5810546875-9.8828125Z" fill="#686ca5" stroke-width="0"/>
    <path d="M2592.33447265625,72.005859375c-52.53271484375,17.46875-106.113037109380457,32.5810546875-156.952392578130457,54.1259765625-51.219726562499545,21.7060546875-92.093994140619543,60.94677734375-137.566406249999545,92.4453125-35.59619140625,24.65771484375-67.233154296869998,53.26806640625-98.545654296869998,82.4228515625h401.72998046875V71.025390625c-3.0185546875-.064453125-5.966796875.0830078125-8.66552734375.98046875Z" fill="#4e9f58" stroke-width="0"/>
    <path d="M2556.84521484375,11.2626953125c-62.384521484380457,15.341796875-126.61865234375,15.93994140625-190.27880859375,17.3095703125-42.895263671880002.9228515625-84.88330078125,7.30810546875-127.275390625,11.27490234375h0c-29.40673828125,28.64404296875-60.68603515625,55.04150390625-94.334228515630002,78.5966796875-.48876953125,20.43017578125-16.563232421869998,33.81787109375-23.327392578119998,51.53515625-14.21044921875,37.22216796875-29.77392578125,73.927734375-44.78173828125,110.845703125,17.61181640625,9.06103515625,36.422607421869998,14.6962890625,55.2880859375,20.17529296875h67.13427734375c31.3125-29.15478515625,62.949462890619998-57.76513671875,98.545654296869998-82.4228515625,45.472412109380002-31.49853515625,86.3466796875-70.7392578125,137.566406249999545-92.4453125,50.83935546875-21.544921875,104.419677734380457-36.6572265625,156.952392578130457-54.1259765625,2.69873046875-.8974609375,5.64697265625-1.044921875,8.66552734375-.98046875V14.63916015625c-14.52880859375-.17529296875-28.59716796875-7.2021484375-44.15478515625-3.37646484375Z" fill="#3e9c61" stroke-width="0"/>
    <path d="M2003.466552734369998,24.1171875c6.439208984380002-8.0390625,12.87841796875-16.078125,19.317626953130002-24.1171875h-50.68603515625c10.047607421869998,8.55517578125,20.38134765625,16.7490234375,31.368408203119998,24.1171875h0Z" fill="#009970" stroke-width="0"/>
    <path d="M112.58154296875,301h214.0791015625c-.00927734375-27.669921875-.0185546875-55.34033203125-.02783203125-83.01025390625h0c-40.16015625-26.224609375-77.27783203125-57.1123046875-120.5234375-78.609375h0c-39.59228515625-15.4208984375-77.00048828125-37.20068359375-119.60693359375-43.869140625-28.85400390625-4.51611328125-56.86865234375-15.13671875-86.50244140625-14.302734375v206.16015625c9.990234375,1.63525390625,19.97509765625,3.49560546875,30.00048828125,3.74853515625,28.189453125.71240234375,55.65478515625,4.255859375,82.5810546875,9.8828125Z" fill="#5371a6" stroke-width="0"/>
    <path d="M86.50244140625,95.51123046875c42.6064453125,6.66845703125,80.0146484375,28.4482421875,119.60693359375,43.869140625,20.626953125-30.216796875,41.0703125-60.56201171875,62.03076171875-90.54541015625,4.36083984375-6.23779296875,11.53271484375-10.6064453125,11.326171875-19.44384765625h0c-3.53076171875-7.36474609375-9.267578125-12.40478515625-16.46484375-16.08203125-8.07861328125-4.12744140625-15.9228515625-8.60888671875-23.62744140625-13.30908203125H0v81.20849609375c29.6337890625-.833984375,57.6484375,9.78662109375,86.50244140625,14.302734375Z" fill="#4774a6" stroke-width="0"/>
    <path d="M2003.466552734369998,24.1171875c0,.00048828125.000244140630002.00048828125.000244140630002.00048828125-13.923583984380002,36.6884765625-22.2451171875,75.50732421875-41.86376953125,110.0302734375,61.117919921869998-5.23486328125,122.23583984375-10.4697265625,183.353759765619998-15.7041015625,33.648193359380002-23.55517578125,64.927490234380002-49.95263671875,94.334228515630002-78.5966796875h0c6.24462890625-13.15380859375,12.10205078125-26.44677734375,17.6640625-39.84716796875h-234.1708984375c-6.439208984380002,8.0390625-12.87841796875,16.078125-19.317626953130002,24.1171875h0Z" fill="#239a68" stroke-width="0"/>
    <path d="M551.59521484375,7.8271484375c-1.5625-2.60986328125-3.12646484375-5.21875-4.6904296875-7.8271484375h-70.61474609375c24.9775390625,2.7744140625,49.955078125,5.54931640625,74.9326171875,8.32421875.12744140625-.166015625.25439453125-.33154296875.37255859375-.4970703125Z" fill="#2b7aa4" stroke-width="0"/>
    <path d="M551.9404296875,8.40380859375c26.5439453125,15.15771484375,35.8466796875,48.14306640625,63.96923828125,61.7607421875,6.86328125,3.3232421875,13.23486328125,7.66064453125,19.830078125,11.5361328125.0146484375-.01171875.02880859375-.0244140625.04345703125-.03662109375-5.0458984375-27.24267578125-10.59765625-54.41015625-15.568359375-81.6640625h-73.31005859375c1.56396484375,2.6083984375,3.1279296875,5.21728515625,4.6904296875,7.8271484375.11474609375.1923828125.22998046875.38427734375.34521484375.57666015625Z" fill="#1a7ca2" stroke-width="0"/>
    <path d="M478.34228515625,154.53173828125c.07861328125.1865234375.15771484375.373046875.23681640625.5595703125h0l.02099609375.0498046875h0v-.00048828125c27.00341796875,10.4013671875,41.25244140625,36.38330078125,64.17333984375,52.28662109375,37.5634765625,26.06298828125,72.63037109375,55.72216796875,108.75,83.8642578125h0c7.40087890625-47.80859375,16.22509765625-95.30078125,31.41943359375-141.376953125v-.00048828125c-19.70947265625-19.96533203125-31.87841796875-45.14306640625-47.146484375-68.17919921875l-.00048828125-.00048828125h0c-.0185546875-.0107421875-.037109375-.0224609375-.05615234375-.03369140625-6.59521484375-3.87548828125-12.966796875-8.212890625-19.830078125-11.5361328125-28.12255859375-13.61767578125-37.42529296875-46.60302734375-63.96923828125-61.7607421875-.2392578125-.02685546875-.478515625-.05322265625-.7177734375-.07958984375-24.9775390625-2.77490234375-49.955078125-5.5498046875-74.9326171875-8.32421875h-62.90625c2.5107421875,6.3642578125,5.01318359375,12.73193359375,7.6708984375,19.0341796875,19.05419921875,45.18310546875,38.18359375,90.3349609375,57.28759765625,135.49755859375Z" fill="#3e7aa0" stroke-width="0"/>
    <path d="M478.60009765625,155.14111328125h0l-.02099609375-.0498046875h0c-.1572265625-.13818359375-.3173828125-.271484375-.474609375-.4091796875-43.142578125-37.7578125-96.22216796875-60.50830078125-142.29833984375-93.951171875-17.265625-12.53173828125-37.4736328125-21.01220703125-56.33984375-31.34033203125v.00048828125c.20654296875,8.83740234375-6.96533203125,13.2060546875-11.326171875,19.44384765625-20.96044921875,29.9833984375-41.40380859375,60.32861328125-62.03076171875,90.54541015625h0c43.24560546875,21.4970703125,80.36328125,52.384765625,120.5234375,78.609375h0c42.9521484375,15.82421875,82.32763671875,38.6845703125,121.69140625,61.611328125,12.8759765625,7.4990234375,26.15234375,14.31103515625,39.26806640625,21.39892578125h1.4228515625c-3.4716796875-48.61962890625-6.943359375-97.23974609375-10.4150390625-145.85888671875Z" fill="#4c75a4" stroke-width="0"/>
    <path d="M326.6328125,217.98974609375h0c.00927734375,27.669921875.0185546875,55.34033203125.02783203125,83.01025390625h160.931640625c-13.11572265625-7.087890625-26.39208984375-13.89990234375-39.26806640625-21.39892578125-39.36376953125-22.9267578125-78.7392578125-45.787109375-121.69140625-61.611328125Z" fill="#5b73a2" stroke-width="0"/>
    <path d="M2032.7490234375,301h99.38671875c-18.865478515630002-5.47900390625-37.67626953125-11.1142578125-55.2880859375-20.17529296875-14.490234375,7.17529296875-29.258544921880002,13.75244140625-44.0986328125,20.17529296875Z" fill="#559962" stroke-width="0"/>
    <path d="M2076.84765625,280.82470703125c15.0078125-36.91796875,30.5712890625-73.62353515625,44.78173828125-110.845703125,6.76416015625-17.71728515625,22.838623046869998-31.10498046875,23.327392578119998-51.53515625-61.117919921869998,5.234375-122.23583984375,10.46923828125-183.353759765619998,15.7041015625-32.239501953130002,47.484375-66.3271484375,93.546875-104.8349609375,136.20947265625h0c-.00146484375,10.21435546875-.003173828130002,20.42822265625-.004638671880002,30.642578125h175.985595703130002c14.840087890619998-6.4228515625,29.6083984375-13,44.0986328125-20.17529296875Z" fill="#3c9967" stroke-width="0"/>
    <path d="M1751.958984375,128.9423828125c18.6376953125,36.81982421875,36.8173828125,73.88232421875,56.177978515619998,110.31787109375,6.199462890630002,11.66650390625,11.432861328130002,23.0478515625,11.892822265630002,36.3125,11.790771484369998-4.94287109375,25.46728515625,3.3896484375,36.73828125-5.21533203125h0c38.5078125-42.66259765625,72.595458984369998-88.72509765625,104.8349609375-136.20947265625,19.61865234375-34.52294921875,27.940185546869998-73.341796875,41.86376953125-110.0302734375,0,0-.000244140630002,0-.000244140630002-.00048828125-10.987060546869998-7.3681640625-21.32080078125-15.56201171875-31.368408203119998-24.1171875h-155.633056640630002c-13.294189453119998,41.359375-39.462158203119998,76.44580078125-58.550537109369998,114.98193359375-2.2421875,4.5263671875-3.982421875,9.30126953125-5.95556640625,13.96044921875Z" fill="#089673" stroke-width="0"/>
    <path d="M1558.059326171869998,71.21240234375l.00048828125.0009765625c8.745849609380002-1.71875,17.491943359380002-3.4365234375,26.23828125-5.15478515625.000244140630002.00048828125.00048828125.0009765625.000732421880002.0009765625-.000244140630002,0-.000244140630002-.00048828125-.00048828125-.00048828125,11.259033203119998-24.52880859375,29.444091796869998-44.359375,44.89404296875-66.05908203125h-67.53515625c-2.17724609375,23.68701171875-3.890625,47.3974609375-3.597900390630002,71.21240234375Z" fill="#009482" stroke-width="0"/>
    <path d="M1584.298828125,66.0595703125c24.441650390619998,43.64599609375,48.88330078125,87.29150390625,73.32470703125,130.93701171875,31.445068359369998-22.68505859375,62.89013671875-45.36962890625,94.33544921875-68.05419921875h0c1.97314453125-4.6591796875,3.71337890625-9.43408203125,5.95556640625-13.96044921875,19.08837890625-38.5361328125,45.25634765625-73.62255859375,58.550537109369998-114.98193359375h-187.272705078119998c-15.449951171880002,21.69970703125-33.635009765630002,41.5302734375-44.89404296875,66.05908203125.000244140619998,0,.000244140619998.00048828125.00048828125.00048828125Z" fill="#00937c" stroke-width="0"/>
    <path d="M1290.8349609375,170.7939453125h0c49.4619140625,25.1630859375,85.10009765625-2.646484375,120.4853515625-31.427734375h-.00048828125c4.55224609375-7.7841796875,5.66650390625-16.220703125,5.30615234375-25.1123046875-1.546875-38.16064453125,1.20947265625-76.115234375,2.70654296875-114.25390625h-158.21728515625c5.02294921875,57.54443359375,12.48193359375,115.0341796875,29.7197265625,170.79296875v.0009765625Z" fill="#008f8e" stroke-width="0"/>
    <path d="M1170.2744140625,86.9677734375h-.00048828125q.00048828125.00048828125.0009765625.00048828125c16.1337890625,36.19921875,42.3759765625,65.10205078125,68.1376953125,94.3515625,18.50390625,1.619140625,35.9072265625-2.24072265625,52.42236328125-10.52587890625v-.0009765625c-17.23779296875-55.7587890625-24.69677734375-113.24853515625-29.7197265625-170.79296875h-116.97705078125c3.06103515625,11.7958984375,6.345703125,23.5595703125,9.88916015625,35.28515625,5.224609375,17.29052734375,16.35400390625,32.72412109375,16.2470703125,51.6826171875Z" fill="#008d94" stroke-width="0"/>
    <path d="M824.44140625,13.6435546875h0c37.6767578125,24.52978515625,65.8291015625,60.96044921875,104.8154296875,83.85498046875h0c8.73193359375-19.2236328125,17.4638671875-38.44775390625,26.19580078125-57.671875q0,.00048828125.00048828125.00048828125-.00048828125-.00048828125-.00048828125-.0009765625c-8.57080078125-12.62646484375-15.2626953125-26.02099609375-20.927734375-39.826171875h-115.98486328125c1.98779296875,4.54052734375,3.96044921875,9.08642578125,5.9013671875,13.6435546875h0Z" fill="#00849d" stroke-width="0"/>
    <path d="M955.453125,39.8271484375c31.572265625,18.31201171875,56.28076171875,46.341796875,89.08935546875,62.904296875h.00048828125c11.5087890625-26.94921875.5546875-56.70263671875,10.470703125-83.85107421875h.00048828125s0-.00048828125-.00048828125-.00048828125c-2.3935546875-6.2783203125-4.72509765625-12.57470703125-7.02783203125-18.8798828125h-113.4609375c5.6650390625,13.80517578125,12.35693359375,27.19970703125,20.927734375,39.826171875q0,.00048828125.00048828125.0009765625Z" fill="#00879a" stroke-width="0"/>
    <path d="M1055.01416015625,18.88037109375c35.36865234375,14.294921875,62.66650390625,42.11962890625,97.14990234375,57.93701171875,6.27001953125,2.8759765625,12.0849609375,6.7421875,18.10986328125,10.150390625h.00048828125c.10693359375-18.95849609375-11.0224609375-34.39208984375-16.2470703125-51.6826171875-3.54345703125-11.7255859375-6.828125-23.4892578125-9.88916015625-35.28515625h-96.15234375c2.302734375,6.30517578125,4.63427734375,12.6015625,7.02783203125,18.8798828125.00048828125,0,.00048828125.00048828125.00048828125.00048828125Z" fill="#008a98" stroke-width="0"/>
    <path d="M803.46484375,76.533203125s0,.00048828125.00048828125.0009765625c-.00048828125-.00048828125-.00048828125-.0009765625-.00048828125-.0009765625,2.7265625-22.38525390625,11.21630859375-42.84912109375,20.9765625-62.8896484375h0c-1.94091796875-4.55712890625-3.91357421875-9.10302734375-5.9013671875-13.6435546875h-89.91357421875c22.93798828125,27.3095703125,47.24365234375,53.35546875,74.83837890625,76.533203125Z" fill="#0080a0" stroke-width="0"/>
    <path d="M1416.6259765625,114.25390625c.3603515625,8.8916015625-.75390625,17.328125-5.30615234375,25.1123046875h.00048828125c23.27880859375-.154296875,46.04345703125,3.01904296875,68.138671875,10.525390625,28.342529296869998-24.08642578125,54.6494140625-50.20556640625,78.600341796869998-78.67822265625h.00048828125l-.00048828125-.0009765625c-.292724609369998-23.81494140625,1.420654296880002-47.525390625,3.597900390630002-71.21240234375h-142.32470703125c-1.4970703125,38.138671875-4.25341796875,76.09326171875-2.70654296875,114.25390625Z" fill="#009287" stroke-width="0"/>
    <path d="M635.7958984375,81.734375l.00048828125.00048828125c15.26806640625,23.0361328125,27.43701171875,48.2138671875,47.146484375,68.17919921875v.00048828125-.00048828125c17.48486328125,15.70654296875,34.96923828125,31.4130859375,52.4541015625,47.11962890625,36.82421875,1.56396484375,73.43896484375-1.25927734375,109.99853515625-5.24169921875-13.9560546875-38.4267578125-35.787109375-73.990234375-41.93017578125-115.2578125-.00048828125-.00048828125-.00048828125-.0009765625-.00048828125-.0009765625-27.5947265625-23.177734375-51.900390625-49.2236328125-74.83837890625-76.533203125h-108.41162109375c4.970703125,27.25390625,10.5224609375,54.42138671875,15.568359375,81.6640625.00390625.0234375.0087890625.046875.0126953125.0703125Z" fill="#257e9e" stroke-width="0"/>
    <path d="M651.5234375,291.2919921875v-.00048828125h0c-36.11962890625-28.14208984375-71.1865234375-57.80126953125-108.75-83.8642578125-22.9208984375-15.9033203125-37.169921875-41.88525390625-64.17333984375-52.28662109375v.00048828125c3.4716796875,48.619140625,6.943359375,97.2392578125,10.4150390625,145.85888671875h167.81591796875c-1.91552734375-3.11572265625-3.69921875-6.33984375-5.3076171875-9.7080078125Z" fill="#5476a0" stroke-width="0"/>
    <path d="M735.39697265625,197.03369140625h0c-17.48486328125-15.70654296875-34.96923828125-31.4130859375-52.4541015625-47.11962890625v.00048828125c-15.1943359375,46.076171875-24.0185546875,93.568359375-31.41943359375,141.376953125v.00048828125c1.6083984375,3.3681640625,3.39208984375,6.59228515625,5.3076171875,9.7080078125h148.66162109375c-7.5400390625-10.8916015625-15.06591796875-21.79345703125-22.56640625-32.71240234375-16.16455078125-23.53076171875-31.70703125-47.48876953125-47.529296875-71.25390625Z" fill="#477b9c" stroke-width="0"/>
    <path d="M1856.76806640625,270.357421875c-11.27099609375,8.60498046875-24.947509765630002.2724609375-36.73828125,5.21533203125-14.93994140625,8.4794921875-29.8828125,16.953125-44.82568359375,25.42724609375h81.559326171869998c.00146484375-10.21435546875.003173828130002-20.42822265625.004638671880002-30.642578125h0Z" fill="#459273" stroke-width="0"/>
    <path d="M1820.02978515625,275.57275390625c-.4599609375-13.2646484375-5.693359375-24.64599609375-11.892822265630002-36.3125-19.360595703119998-36.435546875-37.540283203119998-73.498046875-56.177978515619998-110.31787109375h0c-31.4453125,22.6845703125-62.890380859380002,45.369140625-94.33544921875,68.05419921875-16.980224609380002,37.13623046875-40.4365234375,70.28955078125-62.980712890630002,104.00341796875h180.561279296880002c14.94287109375-8.47412109375,29.8857421875-16.94775390625,44.82568359375-25.42724609375Z" fill="#239377" stroke-width="0"/>
    <path d="M1657.62353515625,196.99658203125c-24.44140625-43.6455078125-48.883056640630002-87.291015625-73.32470703125-130.93701171875-.000244140630002,0-.00048828125-.00048828125-.000732421880002-.0009765625-8.746337890619998,1.71826171875-17.492431640619998,3.43603515625-26.23828125,5.15478515625h-.00048828125c-23.950927734369998,28.47265625-50.2578125,54.591796875-78.600341796869998,78.67822265625-8.793212890630002,47.41650390625-27.20166015625,91.8662109375-42.38525390625,137.310546875-1.53466796875,4.5947265625-3.04296875,9.1982421875-4.56201171875,13.7978515625h162.131103515619998c22.544189453130002-33.7138671875,46.00048828125-66.8671875,62.980712890630002-104.00341796875Z" fill="#009080" stroke-width="0"/>
    <path d="M1479.458984375,149.8916015625c-22.09521484375-7.50634765625-44.85986328125-10.6796875-68.138671875-10.525390625h0c-35.38525390625,28.78125-71.0234375,56.5908203125-120.4853515625,31.427734375h0c-16.51513671875,8.28515625-33.91845703125,12.14501953125-52.42236328125,10.52587890625,6.998046875,29.68603515625,13.99658203125,59.37158203125,20.9951171875,89.05712890625h0c37.42333984375,9.044921875,72.89697265625,25.8662109375,111.36376953125,30.623046875h61.740234375c1.51904296875-4.599609375,3.02734375-9.203125,4.56201171875-13.7978515625,15.18359375-45.4443359375,33.592041015619998-89.89404296875,42.38525390625-137.310546875Z" fill="#008c8a" stroke-width="0"/>
    <path d="M1259.4072265625,270.376953125h.00048828125c-6.99853515625-29.685546875-13.9970703125-59.37109375-20.9951171875-89.05712890625-25.76171875-29.24951171875-52.00390625-58.15234375-68.1376953125-94.3515625q-.00048828125,0-.0009765625-.00048828125c-6.02490234375-3.408203125-11.83984375-7.2744140625-18.10986328125-10.150390625-34.4833984375-15.8173828125-61.78125-43.64208984375-97.14990234375-57.93701171875h-.00048828125c-9.916015625,27.1484375,1.0380859375,56.90185546875-10.470703125,83.85107421875h0c41.15771484375,69.068359375,82.03662109375,138.33154296875,136.2431640625,198.2685546875h56.0390625c8.78173828125-8.9541015625,15.69091796875-19.77978515625,22.58203125-30.623046875Z" fill="#008892" stroke-width="0"/>
    <path d="M1018.33935546875,259.91015625h0c-27.00537109375-55.611328125-58.3583984375-108.8388671875-89.08251953125-162.41162109375-38.986328125-22.89453125-67.138671875-59.3251953125-104.8154296875-83.85498046875h0c-9.76025390625,20.04052734375-18.25,40.50439453125-20.9765625,62.8896484375,0,0,0,.00048828125.00048828125.0009765625,6.14306640625,41.267578125,27.97412109375,76.8310546875,41.93017578125,115.2578125,29.767578125,35.99658203125,57.8076171875,73.42236328125,87.830078125,109.2080078125h83.30224609375c2.28955078125-13.51904296875,3.6669921875-27.13427734375,1.8115234375-41.08984375Z" fill="#208298" stroke-width="0"/>
    <path d="M1044.54296875,102.7314453125h-.00048828125c-32.80859375-16.5625-57.51708984375-44.59228515625-89.08935546875-62.904296875q-.00048828125,0-.00048828125-.00048828125c-8.73193359375,19.22412109375-17.4638671875,38.4482421875-26.19580078125,57.671875h0c30.72412109375,53.57275390625,62.0771484375,106.80029296875,89.08251953125,162.41162109375,18.69140625,13.7060546875,37.40625,27.380859375,56.09521484375,41.08984375h106.3515625c-54.20654296875-59.93701171875-95.08544921875-129.2001953125-136.2431640625-198.2685546875Z" fill="#008594" stroke-width="0"/>
    <path d="M845.3955078125,191.7919921875c-36.5595703125,3.982421875-73.17431640625,6.8056640625-109.99853515625,5.24169921875h0c15.822265625,23.76513671875,31.36474609375,47.72314453125,47.529296875,71.25390625,7.50048828125,10.9189453125,15.0263671875,21.82080078125,22.56640625,32.71240234375h127.73291015625c-30.0224609375-35.78564453125-58.0625-73.21142578125-87.830078125-109.2080078125Z" fill="#3c7f99" stroke-width="0"/>
    <path d="M1259.4072265625,270.376953125c-6.89111328125,10.84326171875-13.80029296875,21.6689453125-22.58203125,30.623046875h133.9462890625c-38.466796875-4.7568359375-73.9404296875-21.578125-111.36376953125-30.623046875h-.00048828125Z" fill="#008a89" stroke-width="0"/>
    <path d="M1018.33935546875,259.91015625h0c1.85546875,13.95556640625.47802734375,27.57080078125-1.8115234375,41.08984375h57.90673828125c-18.68896484375-13.708984375-37.40380859375-27.3837890625-56.09521484375-41.08984375Z" fill="#2f8392" stroke-width="0"/>
  </g>
  <g clip-path="url(#clippath)">
    <g>
      <path d="M1300.358631380449879-1125.784890832000201c73.514768747470043,58.478520005890459,133.921891403129848,130.500396383070438,201.376916815080222,195.247947527230281,37.15042391031011,35.659293187909498,72.198663627939823,73.508483780189636,108.194642157319777,110.370362623330038-3.778567039549671,29.575634548599737-24.013168993629733,50.937861233360309-39.278917743200054,74.088823729120122-64.952897400070015,98.502996885209541-99.000855721679727,208.286213891019543-128.44094736012994,321.330867191280049-33.3402965291898,128.018753158259642-42.950009553789641,260.155663537550026-75.161120468529589,388.058216684219587-3.753057909259951,14.902427035410255.82500055122,36.767658071479673-24.132728222440164,39.556790520859977-33.377326380589693-14.261554743199667-62.169942066439944-34.561411684499944-84.267206988610269-63.70865283899002-22.801721861599617-80.016928780190028-37.481009716570043-161.814422378060044-50.982190716839796-243.829257186329414-25.721168495870188-156.247028591090384-72.587896610119969-305.749375048600086-141.898006507410173-448.151216304619993-10.366534173669606-21.29875118128075-23.694418193639649-40.698910267120482-38.236644034459459-59.419166170780045-9.3638374983002-12.054096921380733-22.06145190118059-24.703968821560011-6.005426965490187-41.064746171869956,81.197571512299874-80.908321897930364,161.93617617568998-162.134040862480106,243.219794472439389-242.811826045950511,10.920967679920068-10.839781963059977,19.439230958060762-24.979034220669746,35.611835562270244-29.668143557500116Z" fill="#cb5289" stroke-width="0"/>
      <path d="M1349.516197113949602,1.683769781139745c32.758608215220193-168.935205213229892,51.136899641200216-341.115553564729453,99.774302696180257-506.35604445411991,33.491449245429976-113.784123221379559,77.882079543170221-225.25129032058976,160.639961517130359-315.494576982870058,109.170067744229982,109.180345644130284,218.340406462879855,218.360420313850227,327.510745181529728,327.54049498357017-.631267331430081,9.605348807790506-3.0588566842398,18.895375061700179-9.787406787279906,25.807918925100239-115.755135233499914,118.926681780620129-180.844820997070201,267.473652604069684-244.124924802179976,417.116184633719968-21.210710175109853,39.658634450270256-56.842276190040138,67.170812842209671-86.895531728990136,98.780059959600294-53.021198950310009,55.76723442867933-96.891100294490116,119.2077891575791-151.106464205609882,173.690780356399955-12.708765362049689,4.369482757259902-22.333328126419929-1.662966748280269-26.780455953200089-12.158906445140019-26.611280581710162-62.80968693585055-59.475135382340341-123.28452045188078-73.040007162359871-191.067736966990196-1.250246424820034-6.248621221589929.764344961719871-12.280069734830249,3.809781244779515-17.858174009270442Z" fill="#c5538c" stroke-width="0"/>
      <path d="M2231.583185283529929-198.550482901289797c69.069344000969977,69.075292686219655,138.138484017780229,138.150381388240021,207.207828018749751,207.225674074459675-1.412437389159095,26.968395558150405-17.700012637479631,46.227204856249955-34.160464803499053,65.256226235170288-66.814125811090435,77.241390822429821-127.081425688930722,159.861688753309863-174.565362288120468,249.735176733260232-40.818605742450018,77.257529655179496-82.795989114700205,154.496848029839384-115.158101215880379,236.18356679281942-40.124963322909935,39.087091646080353-59.573632852699575,98.419978449840073-117.468162059089991,120.131787915330278-16.556331939549636-2.190225223770085-28.87156328762967-12.207185538989961-39.527973493879927-23.632066413740176-48.034495571019761-51.4983773642698-103.00832827143995-95.627010909239743-153.06455324737999-144.934759940049844-12.320440638849959-48.153127180650245-2.375638513579815-94.181104750859959,13.805820270890308-139.631034384880422C1916.964466549240115,175.280773246409808,2046.072305423399939-.362800126399634,2185.314987255289907-169.114246211110185c12.098363097999936-14.66285262655947,25.304240568460045-28.348908934989595,46.268198028240022-29.436236690179612Z" fill="#ac5697" stroke-width="0"/>
      <path d="M2231.583185283529929-198.550482901289797c-71.498769694780094,72.554999950819365-128.66620755842996,156.574103705869675-190.544093053099914,236.893385980889434-83.220840872229928,108.023689326000749-147.78980071540991,227.554563547540056-216.975295828859998,344.285922983550336-15.952672426400113-.811566152849991-19.645646090250011-13.648249223049788-24.000806737330095-25.206712986129787-45.246773050429965-120.081615827310088-77.394568199929836-244.533317103379886-121.529110489710092-364.99934801856034-6.042400767859817-16.492959171810071-6.29758025395995-33.745336737910293-1.473153426029967-50.852061012249578,59.878227796410101-160.869587856240287,131.951535842870271-314.427653620709862,260.380754922630331-434.197334880830567,98.046984101179987,98.025497424589958,196.094446348859947,196.050924671059875,294.141704612399735,294.076147933330503Z" fill="#b95392" stroke-width="0"/>
      <path d="M2899.99000332632022,469.871598970480136c-90.376623274470148,86.872582459830028-183.361794922269837,170.941196179349845-273.658637030979662,257.973474939699827-103.33008696034085,99.594320079419958-214.560508187911182,191.051327614330148-323.480544712280334,284.739047000700339-23.442544829670169,20.16411055485969-51.68210308416019,34.751005418499517-77.711836733470136,51.907017824369177-19.183936623230238-2.598313601260088-21.4231588431403-17.866648433539012-24.456686718260244-32.579747108538868,38.190617688840121-91.983702525440094,31.112716806360368-193.083525534480486,57.823066391360044-287.60924274124045,16.209201110630147-57.365055969870355,33.450015120949956-113.827138561210177,62.534526837720023-166.248260207139992,87.392981600219628-109.349026374380173,189.627335395909995-205.203161948970319,280.682946891370648-311.166755683400424,15.06466803765943-17.53124514387946,31.344709903809417-35.973927638609894,57.620313647659714-37.623333257270133,80.215547022279679,80.20253387484081,160.431301216680367,160.405268545950548,240.646851426879948,240.607799232820526Z" fill="#9856a1" stroke-width="0"/>
      <path d="M-670.867672925210172,841.711358150740125c10.270926028950271-11.835484944340351,19.861360722619793-24.351461223980095,30.911302505420281-35.408338470040235C-268.160890734279747,434.266022686700126,103.747290207270453,62.341930976530421,475.803869685700192-309.433966224500182c12.155056560649427-12.145673286850069,26.025671230700027-22.574666311439614,39.096565858189933-33.803991461989426,8.870336867399601-12.921871310340066,17.88269544457944-25.680195979130076,36.356602573059718-30.847804910830746,30.448671122680025,19.000773877590291,51.381502671099952,49.272875468450366,72.686472492589928,77.341468519940463,120.62274006141979,158.916409798030145,208.361370823140533,335.738776087429869,278.050226908540026,521.989320297249833,3.860731607940579,10.317803084520165,6.407109702040543,21.055692892169645,7.081085158310088,32.12672046464013-10.521536277119594,77.631526489560201-47.910273754730042,146.846696850589979-69.931248470669743,220.922810906469749-2.210280964310186,7.434316664830021-9.198103634879772,12.258274801610241-16.694731308630253,15.303558974489988-53.991260127239912-10.969552414699592-108.175350525850263-21.521483955119947-150.541421186539992-61.233357104499646-17.496537905710284-40.455785038390331-30.923580182129626-82.671556444080124-43.84463079347006-124.463967439360204-39.554217738329498-127.936811767979634-106.620260290909755-241.699102518829932-174.300162370130238-355.4101222031004-24.22411965611991-40.699975727439778-58.414197534439154-73.186625592719793-94.801333047299522-116.038381610309443C285.441018837819684-93.988808550710019,217.962265187319645-24.311513050150097,149.732844098070018,44.666938070099604,77.051795060920085,119.497980714540063,3.520245241929842,193.371816043309991-71.373308781029664,265.898745224520098c-69.900067602520721,72.23119919121018-140.817300675860679,143.428298605069813-213.171499820210556,213.181699030859818-60.998509768220174,63.054262669049876-122.753393434829377,125.356231995499911-186.12943847671977,186.007455917199877-53.144289938390102,54.562796157160392-106.732860151319983,108.706203430040205-161.72953286521988,161.436611535040356-9.03456879291025,7.257866295799886-17.945744654440205,14.803163865599799-29.965780380140131,16.734548373869984-2.826041689540034-.500124891249925-5.662077123910422-1.024117416970057-8.49811260189017-1.547701930750009Z" fill="#d8597f" stroke-width="0"/>
      <path d="M901.546557670540096,262.480758921599772c-81.809091915200042-228.897213850539629-189.397672237900224-443.324640011289375-351.703516502019738-627.199588065529497-16.69046048951077-.80812125733064-21.930138579620689,16.748531595439999-34.963822423080273,21.482505771409706,7.838585140960276-9.659756196570015,14.857304194600147-20.11560924296009,23.59045977129972-28.858964030349853,244.008187124390133-244.292133149149777,488.155924954070542-488.444766599960531,732.484634992540123-732.41609629686991,8.503481647900117-8.491242595140648,14.72912983435981-20.999604548760544,29.411892010680276-21.277409555919803-94.73941713999011,95.390534748619757-189.471260140529921,190.777167073549208-284.203294373530298,286.163582662549743-2.413994855390229,22.368138560979787-18.8655858987795,35.610649962010029-33.131960163889744,49.985951796969857-60.925654790709814,61.389106923180407-122.353162057950613,122.279319772779672-183.279479764680218,183.667457738270059-13.111448414369988,13.210584741959792-28.892077298010008,24.670012052720267-34.910797164199721,47.89969592512989,152.541564159119844,183.799845650360112,250.489721684819415,397.434310070369975,311.223911896800018,629.299562953409804.764193998399605,56.94375585834041,4.975573619659372,114.418834188440087-21.820915988550041,167.862189537940139-47.593533044299875,29.172126716850471-101.680770689709789,16.224032371859721-152.697112291370104,23.391111562989863Z" fill="#d35782" stroke-width="0"/>
      <path d="M2659.343148711499452,229.263802925590426c-113.541765686839426,122.44771643599961-227.083544125409389,244.895445623779779-340.625297060539651,367.343149308039756-47.986591217789737,25.254590496630044-95.413040361439926,8.077607439890016-141.594303492289782-4.655441922980117-24.762794013340226-6.827425151110219-57.585465824569837-6.887008510930173-65.599545364730147-42.132269036660091-2.129361803019947-18.163395696530188,5.421669858630139-34.442911841869773,13.03616355676013-49.441226090139935,79.215133149079975-156.026204573799987,155.995240433559957-313.627712914920266,278.04362381710007-442.8902019831703,13.80774426158041-14.623273146019528,24.207452959500188-32.464325942210053,36.18724549360013-48.813052355059881,73.517356110619403,73.529967578349897,147.034734580359327,147.059504829159778,220.552113050099251,220.589042079970568Z" fill="#a3559c" stroke-width="0"/>
      <path d="M1068.706627141609715,81.952788021339984c-36.715135695059871-143.522867295279866-95.433645572259593-278.439227595889861-163.558700900619442-409.227745915030027-43.378489512690066-83.279388159729933-92.399355278030271-163.418878394520107-169.979250282970497-231.381719521849845,95.335861089840364-95.335861089840364,188.159119954149901-188.159119954149901,280.988396243829811-280.975341254170417,62.530395630300518,55.568712423810211,83.959427898950707,134.244116855850734,115.49228662258065,206.989211835450078,65.421916136219807,150.926596183579932,79.418201253440202,315.01179295457041,118.613408045189317,472.66257582515027,7.120014890040693,28.638009718940339,8.333746148440696,58.745646432020294,12.273835024390792,88.174927028229831-1.962211936090171,24.646888319820391-18.072974725010681,40.415365598960307-36.913196326030629,51.994157177769921-47.003823270590146,28.887169357710263-93.582891643499352,58.116972427879773-134.830430578049345,95.121639727460206-5.911538253370054,5.303665297999942-13.895155011240604,7.166939722409552-22.086347848320656,6.642295096989983Z" fill="#cf5486" stroke-width="0"/>
      <path d="M1068.706627141609715,81.952788021339984c39.285995702910441-43.450945368380417,84.537960813940117-78.952057119099663,137.738008430790615-104.02961719617997,23.467532437659429-11.061620558100003,37.373463279839598-33.16812474012022,56.092476303949297-49.728168851510418,22.943622008659986,31.654792501680276,61.553875646940469,44.7704476832605,86.978626131500278,73.489634882030259,22.984799425979872,75.885940753189971,54.595080322110334,148.374515421100114,86.86947971337031,220.601228462290237-4.500964454990026,52.820336914040126-3.909770866410327,105.974903824590001-10.328535167450354,158.705835926599775-19.402539272509784,48.593904089520038-24.883676279159772,102.610228852820001-56.797336792389615,146.375780122570177-79.573414540650447,8.189547092829798-159.109840766690468,6.236319979720065-238.633995837750263-1.735697430819982-37.730703149790315-87.888894877330131-60.030165992179718-180.764222408310161-86.934917084749941-272.152364372430384-1.717515535149687-5.833164101409238,3.014534882639964-11.837668041249344,4.930166254919641-17.708961276299306,18.648907742980555-49.714071542610327,13.627686034500584-102.514214913390788,20.086028047810032-153.817670266250389Z" fill="#c75c88" stroke-width="0"/>
      <path d="M1416.32519271468027,376.175852933659826c10.697020132090074-50.774206471799971-8.643028506819974-105.457580999770016,20.059718921279455-153.889273561999744,46.733302361960341-73.691855981110166,109.01349187554024-134.948860681170117,165.093877141870053-200.878827667030237,23.253585403600027-27.337757320699893,49.233669813000233-54.290030490269601,75.581758489940057-79.837277146109955,45.791478744049982,141.718969416009713,91.534988983850326,283.452861893790214,137.545603302570271,425.100380305500039,1.864307908249884,5.738999655300177,6.247871347759883,10.659156180759965,9.457747670830031,15.959501233230185-12.67969794974033,36.874265479699716-4.789755558800152,77.36774659078992-20.038146954610056,113.791739160959878-.438440538050145,26.0833358240302-10.38749666431022,49.862521606560222-24.144342329720075,70.463445593939923-35.713391730720105,53.480008733730301-62.438579213810044,112.157283375539919-98.211328999700072,165.565284331139992-9.31492468082979,5.831282287480008-19.034723604249848,9.025218261549981-29.925420208070136,4.627706052980102-20.948266247009997-15.644053794059801-31.012413244459822-39.323791284280105-43.935796466229931-60.708104915469903-45.591159806189808-75.440017328749946-90.885894600279698-150.920255497810103-150.805194380529883-216.494491500890035-21.411344113220366-23.432137352549944-36.358589116500298-51.312193851630127-40.678476187629713-83.700081886250246Z" fill="#b85b90" stroke-width="0"/>
      <path d="M299.80638204556999,1011.269074172349974c-87.970700346870217-74.987391973199919-175.944257126389857-149.971519545390038-263.901389407409624-224.974519426610186-3.586914792730568-3.058890873959626-7.282979790100399-6.052284164899902-10.487955214880458-9.486994880449856-100.817099470389621-108.046416129519912-220.126037560169607-196.796071934300016-319.571555510619874-306.258130173850077,71.326170390970219-71.265383095450034,142.645710968209642-142.534335587809892,213.965047561239771-213.803492064379952,54.821294169380053,16.366340465329813,84.846671163730207,63.370298003849712,119.534563485750368,102.169758336360246,82.548510399619772,92.333275120030066,166.751644424739425,183.402760367099745,242.803385560489914,281.412380245479653,9.647543882149876,12.432931262020247,19.405779899349909,24.689079503900302,26.521439533209559,38.711895917580023,20.677670444890282,79.941622409970023,42.69996207073018,159.718060359890387,48.915218904420726,242.715299177820725-21.444573787210174,28.401251394849169-28.69172223851001,66.017569510318935-57.778754912200384,89.513802868049424Z" fill="#ef5f6c" stroke-width="0"/>
      <path d="M147.084110803410113,29.586179488540438c69.85503450888973-69.85503450889064,139.710069017799469-139.710069017800379,213.960882247690279-213.960882247690279C522.308178409430184-3.990032985349899,617.037196764180408,204.639743065459697,680.927127512220068,429.60655306830995c.79476264169989,6.149267944730127,4.468883766609906,13.086813559899838,1.44250248877961,18.370484141230008-28.639929329089682,50.011763316550059-49.835147543829407,103.635983780539846-75.974192466279419,154.838161012889941-2.877392489210251,5.635667020339952-8.907402913940132,8.511265571839886-15.219002152100074,10.043514694270016-39.299303162330034-5.772232653830088-64.988474531160136-33.263785513529911-92.566135133730313-57.836728862710061-70.949060483069843-129.345486287939821-145.557321807289554-256.338494604569405-237.827072068020243-372.099188416980269-29.297354003259898-36.75640595313962-59.920863755120081-72.419606129139538-88.991241200359582-109.362191797649757-10.610237985810272-13.483561342869507-24.371370466599728-24.852467993850041-24.707876177099934-43.97442435081939Z" fill="#e15979" stroke-width="0"/>
      <path d="M147.084110803410113,29.586179488540438c145.837983236419859,155.576433648700004,266.518943915580167,328.557673815479575,359.963295282469517,520.381980888939779-2.512135246139223,5.780778278749949,2.096269056390156-1.005769452520326-.708498255039558,4.63886607537961-15.138662828439919,30.465628641320109-165.684522379940063,137.814567296150017-199.759730564829624,142.441798523780108C187.365783944639588,541.743935862719809,58.28838711940989,395.104439015829939-80.196610191420405,256.740838239619734-4.431610082940097,181.026018247550383,71.326250360209997,105.306098868039953,147.084110803410113,29.586179488540438Z" fill="#e75b74" stroke-width="0"/>
      <path d="M921.611674470290382,737.108364780030115c-33.415028801280641-82.434133380990261-66.830057602560373-164.868266762000076-100.244576377960584-247.302502200489926,26.726860518920148-75.774864587600405,53.45331302581053-151.549729131590539,80.179867546609785-227.324695689540022,30.406633749420507-18.611042635749982,64.350411665340289-17.035865440579983,97.886593998690842-16.494445113419715,17.392909517559929.280282715769317,33.268151336449591-4.54187052557063,49.187243483969723-10.21646751678054,28.97045211853947,95.805059234289729,57.940904280630093,191.609710456550147,86.911458413050241,287.414667676910085,1.77014654146933,55.520859583420133,5.06174195173935,111.302684353180211-27.599720618960419,160.967862969399903-59.576353667470357,26.477875230440077-122.377965197059893,41.729134784809958-186.320866445399588,52.955579873920215Z" fill="#cd6082" stroke-width="0"/>
    </g>
  </g>
</svg>