<?xml version="1.0" encoding="UTF-8"?>
<svg id="Layer_1" data-name="Layer 1" xmlns="http://www.w3.org/2000/svg" width="2601" height="301" xmlns:xlink="http://www.w3.org/1999/xlink" viewBox="0 0 2601 301">
  <defs>
    <clipPath id="clippath">
      <rect x=".000111283561182" y=".000015423328932" width="2600.995997898656242" height="301.000034129368032" fill="none" stroke-width="0"/>
    </clipPath>
  </defs>
  <g opacity=".5">
    <g clip-path="url(#clippath)">
      <path d="M-49.703296613784914,197.520913616823236c-2.573055611199379-29.219624543477948-2.875319794551615-58.441447218289795-.246383409958071-87.665944178575955,16.378146674269374-5.715727061813595,35.057565198243537-4.506469207569353,52.456806004498503-4.438333594983305,152.76279424376844.598391200203878,304.814378644365206-7.003948281032535,457.051385611217484-12.490024800296851,3.59160970803714-.129381881125482,7.180679380915535.054466005780341,10.754508842874202.279213631817584,8.478637344711387.39903654808586,16.055562209683558,2.042495310633967,22.309128759319719,5.473021212302228,27.539061141813363,22.04228977270941,26.647508802689117,42.345373253471735-2.893100040631907,67.111164971968719-25.253029503033758,10.125020636375666-54.83681894397705,13.296443332074887-83.965942092319892,16.283110326262431-103.051766240964753,10.5651808272778-207.238928195851258,14.653441016401302-311.680093666163884,17.080810967267098-36.866070228028548.856836330294755-73.518777503100864,4.328586344382529-110.572810332543668,3.039779530919986-11.57240016252581-.402481220104164-23.695987953511576.587755775337428-33.213499676292486-4.672798066681935Z" fill="#008f90" stroke-width="0"/>
      <path d="M474.22975464261981,97.324062122178475c-109.975902071305427,4.136942016465582-219.885763228603537,9.099101144628548-329.955646600616092,12.096838453526289-64.610874217332821,1.759825524553889-129.473211914930289.394041773652134-194.223788065746703.434166461582208,5.072450202938853-34.591539967292192,3.751631922750676-69.61069577820308,20.670806084866854-103.409232058319503C-15.377261539952087,2.925690193539594-.81778003609179,5.051316922288606,13.419117003188148,4.939606208631631c109.787939469897537-.861500990321474,219.413316689922794.241896351588366,328.205562379374896,9.947076056149854,5.30613343711957.456947225885415,11.773062939706506.77112427872089,14.82364515989957,3.124753848567707,32.23812617708154,24.858200068952101,87.389909480179085,36.531229041444021,112.368615186561328,65.520187940585856,3.779572309447758,4.386560174501028,12.641754962442064,7.99844805810244,5.412814913595867,13.792438068243428Z" fill="#00918a" stroke-width="0"/>
      <path d="M2649.08913479180319,100.466039330851345c3.177583977902032,28.172815627661294,7.241640224619914,56.343389347949596.660409140089541,84.54171851305091-10.49034518683402,5.250946077640947-23.350543172538892,4.61779526618102-35.857676271809396,4.807756010641242-133.58044875926862,2.02870657558833-267.232018502852952,3.18752725504055-400.218099036041167,12.00127033413446-18.707358910665789,1.240015904839311-37.678881477369941.506292152593232-56.470061548125159,1.357493573569627-31.021449338219099-2.691985349715651-33.172859113825325-17.600312001781276-39.098761128569095-30.942107580694028-.012700175773716-10.080210207741402,2.82959916177424-19.853162399046596,9.741034816348474-29.178723458765489,14.460420132847503-9.214193377987613,33.861208640611949-13.669925437239726,53.427099433400144-17.33369869316266,73.081891456580706-13.68300944980092,148.541255817493948-19.979221158428118,224.884552412066114-23.439451615162398,65.329704165967996-2.960953952828277,130.811810441189664-4.102730682176116,196.238035943022624-5.858353706862545,15.85743946765615-.425405512408361,32.512449973730327-2.576448179554973,46.693466239617919,4.04409662325088Z" fill="#f16469" stroke-width="0"/>
      <path d="M2649.08913479180319,100.466039330851345c-127.011917850510144,1.546916088027501-254.178777845430886,3.674431645269578-379.455851685625021,16.438284906786976-47.940623500329821,4.884481774081905-96.777879410092282,11.842991960589643-139.478410387313488,27.387708851096249-16.891233775420915-12.490785498699552-21.834142185487508-25.887904394080579-9.255888101899473-40.629872046151831,21.976384154120751-13.663997730801384,53.117215144588044-19.174565868137506,78.860471432382838-29.571820369650595,82.396200367025813-33.280997273373941,175.991415728911306-51.70228800498262,271.773601358559972-66.720874302617631,22.365009532712065-3.506767975745788,46.223559736092284-3.754922148168589,68.852732924839074-7.371299587636713,19.62177156618236-1.514358196306603,39.467066225928647-1.475077453022095,59.020256842944946-3.453444452855365,9.852796363136804-.996646955962206,19.837674554284604-.625690225971994,27.88196588763094,3.726652873115199,13.535847336719598,32.941593739102245,21.112772201695407,66.317204670665888,21.801121728480211,100.194664127913711Z" fill="#ef6a65" stroke-width="0"/>
      <path d="M2151.816292513864937,200.664713631107588c31.869821079719259-6.43157440154846,65.494806450989927-3.537821694018021,98.202839131596193-5.709117597372824,80.902659696357659-5.370710147424688,162.549549692896107-5.589230093504739,243.896715541237427-7.739730224809136,51.994519606432732-1.37440834847439,103.928078369159266-.89920292559691,155.833696745194175-2.208060600783028,1.798344889175496,33.882909215441941-6.6904525961545,67.165488167384865-17.485602001495863,100.313429242811253-11.292996295562261,10.762280654503229-30.167997526408726,8.161702547437017-45.974636290982744,7.288994890805952-55.962054517285651-3.090123412513094-112.307654342859678-2.854025592163453-168.094446434510246-6.856263709230916-81.898353476801276-11.408730770525835-156.885271299035594-32.37053601138814-229.857941243983078-56.104642000705098-16.903933951189174-7.65334933275517-34.087271769338258-15.214728793095674-36.520625447055863-28.984610000716202Z" fill="#ef5f6d" stroke-width="0"/>
      <path d="M349.80359257908276,19.061108053962926c-56.726605098703658-3.025478400909378-113.359228896701097-7.21731126603845-170.205215647649311-8.751935616069204-58.197285452983124-1.571034533298189-116.602853788608627-.554431444091279-174.916980858684838-.632705874659223-11.643521146841522-.015673257697927-23.416584086548028.584698628919796-33.960270011624743-3.23063158426703C-17.648052967804688-41.117805896900791,6.243517692581008-86.710221726257259,36.825540949123024-131.226590909558581c27.688923215910108-4.259084345228075,52.995293457184744,1.821198097733031,78.741089780136463,6.026292950145944,89.69880143534283,25.832399245574379,165.739833846566398,62.748145542532257,241.572583375145769,99.842876997723579,6.266266725404421,3.06587292148015,12.362351095480335,6.050164527253401,13.436785965707713,11.157786413763461-5.237552487958055,11.437849731346432-2.743237966534252,24.499862320801185-20.772407491030208,33.260742601888523Z" fill="#009483" stroke-width="0"/>
      <path d="M301.141599094957201,338.417408989417709c-91.438725515970873,20.981129850901198-187.002468122360369,32.2708701675665-283.947989852631508,40.197427920579685-3.878633680460553.316955754932678-8.303374919069029-1.615459320135415-12.474112642265027-2.499775521478114-17.498302177269579-31.774240319997261-32.161925122451066-63.923972854809108-38.440892023631022-97.184152826935133,8.803761844450491-4.778713119662825,19.916415644067456-4.120907068208908,30.620123783854069-4.284356755625595,117.761109818924524-1.797843221428593,231.724867082325545-16.73796563153337,344.802152076907987-34.128317697208331,27.638122512825248-4.250432477333561,53.140075460972184-12.689333523456298,80.094928517321932-18.533724826391335,10.063619280930652-2.181998786378244,19.786873851200653-5.127819146793627,31.034149513987359-4.49638780078385,9.25842813705367,1.700261404182129,7.396582369026873,5.452950256657459,3.429047458168498,8.488067998109727-46.901749122263027,35.895721500207401-89.358436724682178,73.767186308390592-141.855883291646023,107.180103037947447-3.680510938431325,2.343203695863849-9.126346309030851,3.263734882392782-13.261523540066264,5.261116471785499Z" fill="#008998" stroke-width="0"/>
      <path d="M458.006550112759214,219.480637471737282c-20.12977859701914,4.24298337408618-40.622782221089437,7.990126304607656-60.328374947355769,12.81374646518907-90.397311102749882,22.12702296331554-186.128696029314597,31.622846984655553-282.180125385308202,40.38915262417504-49.416383924919501,4.510155006628338-99.15281227926971,6.781445432927285-149.2194452036656,6.247326071522366-9.923917347452516-26.834425631012891-16.017461682371504-53.920783091432895-15.981901190214558-81.409949015800521,89.0358522601,1.537357123168476,177.70085938768716-3.462598668751525,266.271885214568101-6.896452984761709,75.59652625923809-2.930949424241589,151.777260603942523-6.394809704121144,225.514481130308923-18.219031431572148,16.365446498493839-2.624133025522497,32.281306774701079-6.18451570659272,48.402909898394682-9.313800734148572,11.689241779617987,8.602451651666343,6.944456111576983,17.597632334005539.838211600883369,26.209254258761575-6.395808518268495,9.021218545507509-13.998133734782641,17.774979837748106-22.756174946457577,26.159179492170551-2.659416806443915,2.093421915909857-6.052903772454556,3.552404138908059-10.56146617115337,4.020575254464347Z" fill="#008c94" stroke-width="0"/>
      <path d="M2573.248765157763955,413.567969840498336c-83.681458155051587-5.08144237914621-165.483290295995175-14.595327964118042-242.90102176079381-34.459970719433841-.873772093045773-15.128379477194358,14.521380976548244-27.459914917784772,21.811281869098821-41.165254453962916,8.463397133786202-15.913902484966457,25.156508167176071-29.923521383037951,37.760162602304263-44.909727763670162,4.310439656674134-5.127199105829277,10.597026663315773-9.784935344098812,21.542038142753881-10.942919255306151,63.185914495827092,2.082005698717694,126.369288956500895,4.218735753614055,189.565363592942958,6.192773948943795,10.655447471859588.332812728468525,21.633479408303174.851442548017076,31.2373523263268-2.961729004035078-12.004206138739391,43.930625670535846-30.846186912580379,86.807330971632837-59.015176772632913,128.246827247464353Z" fill="#e75b74" stroke-width="0"/>
      <path d="M2259.955749168685543-46.700930309248179c43.348239941540669-5.382139282138269,79.805364509742503-20.285581676334004,120.476407398760784-29.576803661840131,64.387351123763437-14.709943684513746,130.95913248013494-22.623136110082669,198.226883468758388-29.905769839888308,22.253247985925555,34.560692929340803,39.406105382226087,69.901213675371764,48.628973027118263,106.454879013914251-30.65060420570444-.727847715889766-60.615398919781001,5.261346116586537-91.410785129273791,3.130563862044255-105.050773907316398,9.29242762071317-205.354222111440322-3.68416858485034-304.578155375025744-21.712674848095958-12.446172255569763-7.560331705933095-1.056654624146177-12.833343778431299,5.547436776769246-18.453418039329335,5.65665828839883-4.81273499699364,15.077648675316595-6.873383729179295,23.109239832892854-9.936776486804774Z" fill="#e87461" stroke-width="0"/>
      <path d="M349.80359257908276,19.061004713801594c5.425515089365945-11.484869504439303,10.85103017873098-22.969739008879515,16.276545268097834-34.454608513317908,6.393268483116117-3.774614189892418,14.508680800777256-3.963910399709675,22.616473012978531-3.186183832950519,62.896350488248572,6.034031979956126,126.201646636322948,10.960774138616216,187.045648719980818,22.682154824049576,26.738950068240229,25.467275493542729,52.291703719471116,51.258855375665007,59.817827881359335,81.459075779945124.911872620356007,3.653355993617879.19558270687412,7.243175011800304-4.869247390597593,10.032526886760024-46.421682478118782,4.344977242082678-92.924646081175524,7.964598414370812-140.123579316480573,4.880164451813471-5.445835370600435-1.049958996613896-10.891670741201779-2.099826135307922-16.337506111801304-3.149882730963327-16.804872580172741-18.861542780431591-35.253147905112201-36.784067967817464-69.80524610766588-46.949042493803063-23.807749500298087-7.004384606151689-33.731666847748784-22.424321123243317-54.620915955871169-31.314204371533378Z" fill="#008f85" stroke-width="0"/>
      <path d="M490.567260754421113,100.474134310101363c46.434382653892499-5.327667535237197,93.455513428400991-6.271840654074367,140.60110592547062-6.284252955591001,27.274897485775909,3.212472421593702,32.705492645451159,16.925499317500908,41.646416388229227,28.974433865451829-9.674993902339338,20.923810508464157-23.683287777739679,40.917771992584676-39.172422148039914,60.607103188847759-46.828088102792208,16.019958913024311-99.264573826056221,23.84945154959405-149.971295609306253,34.195058935261841-6.792054002327859,1.385978140626321-14.170856125272621,1.806515183244301-20.178039264949803-1.653442570290281,7.884269118631892-17.929638435110064,34.432716550308214-32.689656886213925,26.992953583661802-53.221406307440702,2.014247877279558-4.980383596075626,2.369852798868124-10.463863693805251,6.337387709722861-14.851946700396184,15.257991171267349-16.864913277763662,10.068699351239047-32.473947936029617-6.25610658478854-47.765547455843262Z" fill="#008b8c" stroke-width="0"/>
      <path d="M2124.683636996719542,103.583903835376987c-10.835789967808523,14.138817063355418,2.364772728558819,27.196532424465659,5.471235722145138,40.708223981838273-1.844065521947414,9.402006943556444-3.685591008745178,18.804061968991846-5.529656530692591,28.206164739916858-10.718948350713617,10.030184846179509-30.676004557246415,9.70949808086425-46.701086345081421,12.953019914890319-34.023770890480591,6.886081651417953-66.188236048090403,17.832063794264286-103.783296365372735,17.904582751993985-22.527571782578889-7.921050583617216-33.464963156557133-20.067404762173283-37.689041617988551-34.673156088537326,1.780564643093385-25.151361393077423,9.751194956967083-49.355392410119748,32.840114508626357-71.230925610269878,12.847497809932975-6.369898984282372,24.450378394305517-14.02052128502055,43.249178570524236-14.46761674892241,38.809197120992394,4.245236763702451,79.18813596727523,5.665670236223377,112.142552057839566,20.599707059090179Z" fill="#df706e" stroke-width="0"/>
      <path d="M1973.218800716743317,200.662862119897c33.261760344223148-1.697482702083107,62.799829152392704-10.697961451462106,93.623155748582576-16.842296135383549,19.197585695428643-3.826742124537304,38.926038738083662-6.88498150929081,57.785799758001303-11.322464543884962,5.339153894126866,10.591813726139662,7.668366130523282,22.156856536596024,27.185996255382634,28.1666121904791,12.618894646053377,8.354388888637914,20.063737683009094,19.320924241210378,37.833823621776901,25.072438574766238,4.602543699404123,8.239821967763419-1.780564643095204,15.59718785707355-7.587085005587141,22.344668823870052-13.871131977075493,16.114755569414228-22.682513926987667,33.926672338193384-45.197385533798297,47.294215853709829-1.729763940013072.3272668065174-3.802432625836445.837962398175478-5.227392347342175.4222019674271-58.629091429196706-17.118619113262866-114.489544540316274-36.476722847823112-157.967326274718289-65.823255926151433-2.428273607414667-9.760624571305925-13.121821606589947-19.485085827509465-.449586222297512-29.312120804832375Z" fill="#df6a73" stroke-width="0"/>
      <path d="M2124.683636996719542,103.583903835376987c-37.864304043627271-6.259635032880396-75.73114812240965-12.519270065759883-113.597992201190209-18.77880749959877-2.888019970325331-9.099629327673938,8.412596430702251-14.403126747559327,17.328119821937435-19.725167985164262,52.416165442025886-31.288185615530892,112.825821514317795-57.088836467311012,172.973853965720991-83.013036222258052,7.165439169992169-3.088435523220141,15.052248323778258-8.214681603124518,26.134421701543033-3.70333244352787,101.05275857460947,15.484822655734206,203.040250085961816,27.130627237015688,308.355187649318395,25.038379380153856-49.063319038486952,7.001502563894974-98.411122014245848,13.278797282003325-146.608289065150529,22.288979959524113-65.080780720856637,12.166455275079898-125.713959886716111,29.382237103828629-183.230515918372475,50.701438549153863-26.342704584185412,9.764588814692615-54.189109979659406,18.169806709566728-81.35478595380664,27.191546261717122Z" fill="#e57366" stroke-width="0"/>
      <path d="M2135.488946542675876,294.581247707947114c19.316967347675018-22.6149837196308,40.762484154571212-44.669691534976664,54.158629557810855-68.844382558073448,67.808778476464795,20.702949620690561,135.005408480774349,42.211188925433817,210.421592244061685,52.794656655301878,4.056436141256199.56922056930398,7.604865251671072,2.344397848832159,11.392057666578694,3.55838064486943-24.760262683123074,19.120444329560996-41.872479516950989,40.618343877119514-56.564042848831377,62.719348084431658-7.691226446911969,11.570239959371065-14.061634613643037,23.413217567161155-24.551979800478875,34.299138982751174-31.829180517253917.758401956719354-61.534891645596872-5.514460616719589-91.984833074122434-9.31946829608205-10.558926136000082,2.342399939057032-17.447501474187447-1.714872554674002-24.943145214225297-4.748755955316483-27.892126028247731-17.627741638030784-49.980271729151355-37.718366360191794-72.446882668029502-57.637124912961553-4.272339129362081-3.789770746787326-9.654673621107577-7.697877459750089-5.481395862763748-12.821792644920606Z" fill="#e46274" stroke-width="0"/>
      <path d="M577.055457754860981,6.544857817344564c-21.961143943196475.190915205666897-42.121402962064167-4.811793453309292-63.01065207019019-7.567221049976979-48.875356437075425-6.447691160768954-98.279040186225757-10.842093705239677-147.964667837490197-14.371148708964938-39.926812588833855-18.247495545886522-79.482780045159416-36.989037435331738-116.986399096892455-56.647321372081024-39.987773432537324-20.960691463575131-92.144855288838698-29.586104276298101-131.871005100491857-49.786166228579532,93.765397717214-1.055883832491418,187.530795434431639-2.11183655842342,281.296193151648367-3.168179680518733,32.474349446419183,8.357256578095075,64.951238927992563,16.714605014109111,97.425588374415383,25.071976414603341,26.177602299162572,7.842967045293335,32.730892996994044,24.356816573990727,47.351335344555082,37.080562370942971,19.667492198952459,17.116230807326247,44.153431085422199,33.125366991445844,50.079333100165059,54.614184087105969-2.636556490054318,5.957583225561393-.817891319649789,13.582215475896191-16.319725865719192,14.773314167468925Z" fill="#00927e" stroke-width="0"/>
      <path d="M463.49302604582499,216.31303477378151c58.309046999766906-7.552813709247857,112.571817998896222-21.704429164443354,167.710901126223689-34.427015972788467,6.982556638893584-.488763077839394,10.365883464281978,2.438712968779328,10.530985749305728,5.372400189638029,1.028714237452732,18.247933306290179,11.239655557325932,36.461372528130596,1.12523557331042,54.766968208779872-13.365664981389273,14.905457527327599-40.287497580731724,20.17178119498567-62.500105004194666,28.478912054045395-57.277792727163614,21.421221148363657-116.780656249401545,40.673045268823444-178.800694609451057,57.191797714031964-9.436230597846588,2.513140848920557-18.204431950138314,7.143698624940953-30.056235979624034,4.489555867943636-23.454684613865538,2.077366873729261-46.906829192573241,4.154779676417093-70.36151380643787,6.231951352064243,52.289163684319647-39.646027787868661,104.578327368635655-79.291802966456999,156.864951017802014-118.937250901202788,1.828825311022229-1.055550847529958,3.657650622042638-2.111434680020466,5.486475933065776-3.167318512511883Z" fill="#008792" stroke-width="0"/>
      <path d="M371.50311290139507,332.185652835431938c84.636511373028043-22.59305264109571,164.800020839515128-49.849387442413899,243.67827251797371-78.428057198202623,7.521044091582553-2.724942249279593,14.27499756659472-6.158861152892314,21.384555963194543-9.263635903736031,2.646716630673836-1.098792963637607,5.019109464696157-.928367815376987,7.127338642678296.506539020751916,1.059194659301284,1.449334270782856,2.316512060628156,3.085811831368119,1.452900108200993,4.52090238333858-21.646179584074162,35.948620180217404-45.989876501908839,71.235656651997488-77.565053503740273,104.722002306810282-2.697517333757787,2.86216650037386-7.787747782773295,4.256833826172624-12.123587790985766,6.093222927523129-62.776968836003107,20.200245668122989-123.656531411817923,42.42044700961651-189.37486095638269,59.484869949741551-2.943900743714948-29.310507550101647,9.25842813705458-58.307148067851813,5.420435019061188-87.635843486226804Z" fill="#008496" stroke-width="0"/>
      <path d="M1940.703810707857883-93.652981149948573c45.095784127628576-14.6171671847369,90.191568255258971-29.234242511548473,135.287352382885729-43.85138673180245,28.857339386844615,10.433957481898688,57.717218808840698,20.867914963797375,86.577098230838601,31.301780587774374-5.951302366283926,13.399039300034929-30.190857842797413,18.847017746740676-39.855691604518142,30.723649800178464-3.777032274292651,4.643417884901282-9.433690562691481,8.774934542933806-14.236897039283576,13.13949474545916-3.269025243449505,6.066136323193859-12.997359884027901,8.289419503749741-20.896869213584068,11.460515673246846-35.288708397270966,14.164514316638815-66.947706559194557,31.022256935476435-101.609026273379641,45.642478396071056-8.631039453961421,3.641029808901294-16.748991806780396,7.842392933287556-27.754964129919244,9.120067715001824-37.188654692612545,2.94079688038164-73.826121756761495,8.482895248955174-111.748846608936219,7.794316794109363-9.614033058640416-3.192602405149955-6.507570065055916-7.877092262785482-3.792272485217836-12.235073141750036,19.903715468295559-31.964535484698899,54.623455991026276-59.144926750185732,85.050537103163151-87.704151332412948,2.854999513316216-2.680322264361166,8.831702231145755-3.435118797699033,12.979579637951247-5.391692505875653Z" fill="#d08063" stroke-width="0"/>
      <path d="M1962.324589940390979.273924260232889c50.081873135319256-19.805038447099832,92.383618593330539-45.689968941003826,146.151082737389515-62.613550724414381,49.368123256994295,8.869341520800845,100.620952598397707,11.616674138219423,151.480076490905049,15.638696154933314-9.207627433966991,9.049635654404483-26.9650131969629,14.395284377592361-32.43370888395475,25.064306278234653-34.234593808279897,6.489899875271476-57.892481234479419,22.107147205751062-84.781293376818212,34.440921683154556-47.323394957860728,21.705728092851132-98.718466267901022,41.338108095999814-131.655102112383247,72.000890541559784-14.871905827831142,1.925916127184792-22.149106544608003,11.538761398213865-37.927804922486757,12.545908862723081-26.543367361366109,2.332496506996904-44.282972878283545-7.004390347273329-62.48740482842004-15.763462175548739-4.536502785398625-7.436105350600883-.558807733923459-14.697818438996364,4.05643614125438-21.2299614754902,14.404539359453338-20.393859200208681,20.477763413140565-43.061741599849483,47.597718754514062-60.083749145152069Z" fill="#da7967" stroke-width="0"/>
      <path d="M587.944588460904924-9.138906129868701c-6.929215900649069-17.741335439058275-28.168989860054353-31.069850820573265-43.190757761979512-46.276217672334496-15.054788358932456-15.238287479160135-32.443869024570631-29.703912059431786-48.809315523065379-44.508079005970103,22.659653610596251-3.824114126839959,44.028969362866519-9.438079836019824,64.958859033456065-15.663405935565606,63.267195620761413,19.693557378248443,125.805401152268132,40.076072125266364,184.665635780494995,64.044949736202398,8.016350946651073,3.26396452719564,17.485602001499501,5.331204065182646,26.284283775639778,7.952484651095801,11.033912709835931,4.74363487624305,18.720059086437686,10.547861303407444,18.008849243262375,19.022741948794646-25.146348026555643,14.140149003205806-49.695787791880321,28.705715001059616-80.597855477851226,38.892080940296182-40.64056246716882-7.467543723915696-84.717792497963273-9.003603353955441-121.319699069957096-23.464554662518822Z" fill="#29917a" stroke-width="0"/>
      <path d="M587.944588460904924-9.138906129868701c41.450833681357835,7.370851780274279,84.336787224835462,12.019046277044254,124.44394230961916,21.941022156397594,13.076100973809844,1.831026895234572,18.895321512076407,8.134615943105928,22.116086087600706,14.367485874379781,9.962017874762751,19.283606960977522,22.659653610600799,37.93588591610569,35.557952123617724,56.578129393411473,2.989621376487776,4.319480928003031,3.464607950323625,9.046879916785656,2.692437263449392,13.74952893709451-1.877085978952891,7.13510416824829-6.64727199853769,13.32908949351895-17.170637642379006,17.649994219289511-28.186770106132826,4.926150823301214-56.294799122486438,10.285164873932445-86.493277070745535,7.245167180453791-13.020220200418407-9.23025129072812-19.207745836046342-21.535555553874474-37.922724852175634-28.202350819687126-1.595142076836964-32.614315450344293-39.708369565574685-57.679494378826348-54.112908925030752-87.645408192207469,7.42198272056703-4.34566043536779,8.521817942334565-10.162000625807195,10.889130706043943-15.683568749132064Z" fill="#178d82" stroke-width="0"/>
      <path d="M669.091091532067367,122.392421631157958c28.194390211598147-5.184438072587909,57.625777543288677-6.553069419026542,86.582178301143358-9.378148283969495,7.744567185148298,1.23763046946442,12.575714048432928,4.680482555851995,13.901612398924044,8.701350607435415,6.184985600473738,18.763691130541702,20.010396944772765,36.405423878101828,24.033812629022577,55.466053630930219-7.13241871298851,17.846741685274537-26.723709857316862,31.218156150977848-47.531677840504926,44.163391488345951-24.757722647969786,8.336944495407806-50.864203962812098,15.160966074518001-76.521099055367813,22.489614881410489-8.725020754671277,2.492312065431179-17.978368821411095,5.298003168013565-27.493340509035988.69749441426211-1.831365346178245-.012705098640254-3.66273069235649-.02537000943812-5.496636073685295-.038126778155856,4.757485843811082-21.057107833456939,2.641636560363622-41.91708856936566-5.362014210514644-62.608128236543052,12.629054786672896-19.831087343985928,25.258109573346701-39.662269416450727,37.887164360018687-59.493501723715781Z" fill="#1d888b" stroke-width="0"/>
      <path d="M788.096818576548685-24.769025051468816c-3.253785032527958-6.897450504367953-15.151309694791053-11.297192290469866-16.243524811097814-18.819873731210464,1.132855678773922-30.73903600187441,14.927786601221669-60.465958470409532,21.658879759845149-90.757141180537474,21.036571147069481,4.269877650895978,42.611629746825201,6.667943489822392,64.994419525617559,6.261632942651886,37.043872688822375,22.494649843682964,70.658697919476253,46.690485411872942,103.938238509777875,71.014623530622885,10.878970565428972,7.951543107407815,28.077548594503241,13.497465061925141,30.584563291695304,24.953089300904139-7.668366130523282,13.974184705209154-4.117396984953302,29.613121987186787-18.811500351986979,42.550047053301569-25.517193159072121,7.195678725744983-52.799710750312443,11.140195621974271-80.417512981908658,14.463787421860616-37.7220620749913-11.446553269321157-70.346273595509047-27.068875749911967-103.008585643338847-42.636450909841187-3.454447809711382-1.646415439367956-4.549202961170522-4.330653147594603-2.69497729860359-7.029714427751969Z" fill="#559074" stroke-width="0"/>
      <path d="M1913.62957599926176,81.676220363027824c19.842754624592999,5.224763699717187,39.685509249191455,10.449630739594795,59.528263873780816,15.674687236436512-17.190957923608948,23.041405410284824-26.609408275375245,47.257185629478045-32.484509587036882,72.007694127621107-2.01424787727592,2.999858450913962-5.283273120730883,5.525237596078114-10.33286300727741,6.814037053728498-38.273249703453985,9.769505007543557-77.636174488057804,17.652847914767335-118.667902368970317,22.625722843478798-18.991842847937733-8.04388615262269-29.243424730280822-19.042192863474156-32.614051379900047-32.371852880795814,8.819002055373858-18.077745696872626,20.73938703402564-35.396066800019071,38.283409844068956-51.311639950914468,28.547455098030696-14.547693891182462,60.66619962286677-25.683399957287293,96.287652625334886-33.438648429554632Z" fill="#d07572" stroke-width="0"/>
      <path d="M1810.890234082263305,197.533211095938896c41.925820255193685-11.451516467593137,88.720887900979506-15.39201099159618,129.783096203742389-28.174705173795701,7.193379556687432,11.706465255579133,18.118070754893779,22.114909917680961,32.545470430737623,31.304356197753805,1.793264818867101,10.443990089160252,3.589069672882033,20.888026107283622,5.384874526902422,31.332019067003785,3.256325067683065,5.866224782432255-3.202984329445826,10.090431823439758-8.547218293877449,13.882298079040993-18.217132125906573,12.927084786376327-29.7819121829707,29.205479500169531-56.3633800716525,37.984030948726286-40.622782221085799-15.516450486011308-81.644349961379703-30.785596485363385-108.469661224864467-55.406584956681399-1.483380530055001-10.520628300518183-6.959696322501259-21.283437138064073,5.666818429011983-30.921414162047768Z" fill="#d07076" stroke-width="0"/>
      <path d="M1913.657516385958843,282.062287662671224c24.282736074130298-15.545104416110007,44.961162264457016-32.655777819244577,64.946158857686896-50.067647602811121,49.868510182364844,22.898991186679268,100.864795973198852,44.850795166501484,156.885271299030137,62.586848775129511,23.045738954038825,24.538281896081571,53.246756937454848,46.254975528202522,81.126182789930681,68.887171125699751-46.881428841032175.008060532531999-93.762857682062531.016373674342503-140.646826558246175.024629404952975-22.235467739850719-.116820310486219-37.330896661249426-9.176835909915098-53.223896621064341-15.823571702322624-32.48450958704052-13.584603781827354-65.73864982579471-26.761955472801674-94.814432235900313-42.93983465700876-4.932748269451622-7.513357861801524-16.154623580696352-13.713985662955565-14.272457531436885-22.667595343639732Z" fill="#d76978" stroke-width="0"/>
      <path d="M1908.277721929366635,413.570656684675669c-.012700175770078,7.321627417086347-.025400351543794,14.643300763136722-.040640562467161,21.96536450534677-27.881965887632759,6.423463634218933-56.673264360462781,10.739339138841387-86.564398055066704,12.511416213550547-10.840870038115099-2.097966012417601-21.681740076232018-4.196230563078643-32.522610114348936-6.294472149255853-4.094536668564615-1.074668777249826-8.638659559424923-1.906855608667684-11.30569647133234-4.106439445718934-34.173632964580975-28.175166616315437-76.775102570787567-52.418561622882407-111.675185589467219-80.245529309033373-4.73970559773079-3.779161156959162-9.657213656259046-7.559952792011245-12.006746173894498-12.176789291144814-2.821979056314376-9.056720196527749-3.71607143059191-18.085251493680516.96775339375381-27.046175361290807,13.622208531958677-9.689104568463335,31.43547506835057-15.75025759946675,51.544933384137039-19.811916308905893,8.638659559424923-.636977267964539,15.438333667212646,1.75171906306241,22.118626122755813,4.466155062677899,40.879325771658841,16.61073667042092,83.0185089798033,32.173960061363687,123.079943431810534,49.479108164588979,25.618794565240023,15.129883650644842,36.259001826174426,35.698226970976975,56.917107735269383,52.650996608645983,3.098842888120998,2.543821394395309,3.972614981164952,5.827443516593121-.513087101149722,8.608281310539496Z" fill="#bc6a86" stroke-width="0"/>
      <path d="M696.178026416433568,329.039702771690827c-22.085605665753064,3.902423004127741-38.895558316234201,13.399211533634116-59.556204260479717,18.812559544284341-26.124261560926243,6.187951408114714-53.470280031016955,9.713642115499169-81.164283317237278,12.484547771783582,33.88152892184371-37.346582908917298,61.776194985244729-76.192287081566974,86.605038617532045-115.805010632108861,27.696543321369973-1.603890963262529,48.580712359187601-12.413036380616177,73.224133425214859-18.146583879020909,9.862956503749047-2.295276825806468,19.710672796575636-4.616405915131509,29.566009194865728-6.925737002784444,23.350543172538892,10.195838787298271,26.992953583660892,26.932374879943382,40.185896174562913,40.507086711947522-.744230300179879,8.428681852458794-10.464944835294773,14.197686508206061-18.979142672164926,20.034476568211176-23.619786898889288,16.193919873589948-41.814058708407174,34.979633940586609-69.881447162293625,49.038660917687594Z" fill="#2b8392" stroke-width="0"/>
      <path d="M1940.703810707857883-93.652981149948573c-33.967890117086426,33.956566350218964-76.505858844440809,65.208536980564531-97.372247636179964,103.300937311084454-26.970093267271295,18.720116029469864-61.738094457930856,32.126400622989422-94.877933114754342,46.668083561494313-4.988629042842149,1.216026634767331-10.007738507538306,2.178846911479923-15.270691347035608.484458673093286-23.086379516502348-17.934558574978837-41.135869322233702-37.34172592136656-51.232509060169832-59.068007223945642,2.176810127148201-6.903765736407877,8.839322336607438-12.680365893960698,17.109676798674627-17.222487456951967,46.513123743670803-25.545228421387037,87.933477003176449-54.149945638777353,138.431915903785921-77.289759587594745,4.782886195353058-2.191086979398278,9.456550879080169-4.987219117120731,16.621990049072338-3.13488118431269,29.79207232358749-2.207896978861754,56.80788622363616,8.430076944629036,86.58979840660686,6.26165590713299Z" fill="#c48366" stroke-width="0"/>
      <path d="M1854.114012301251023-99.914637057081563c-60.125172135018147,29.901498446581172-118.667902368972136,60.719830798390831-167.705821055915294,97.038248002349974-12.969419497338095,5.358635136708472-27.521280895736709,5.952795131447601-42.680210695987626,4.770296637688261-23.335302961619163-14.706521976971089-25.86771801035502-33.157264654363644-27.69654332137543-51.733760825020909,39.688049284342924-28.170711507170381,79.373558533530741-56.341331156419074,119.061607817873664-84.511835983265883,45.085623987011786,2.076609045883743,90.173788009178679,4.153126233847615,135.261952031347391,6.229459705970839-5.415354948750974,9.402438962840279-10.82816986234684,18.804969783596789-16.240984775942707,28.207592462277717Z" fill="#ba8862" stroke-width="0"/>
      <path d="M1745.969475576118384,53.536717584372127c26.49764672859601-13.476429598115828,57.633397648753089-23.733124257790223,81.245564442177056-39.216787207278685,4.244398742664998-2.782468272038386,9.377809789295497-4.69395122345486,16.11652305338248-4.671687159957401,39.665188967957874-3.125029422328225,79.327837900755185-6.249668448494958,118.993026868713059-9.374318956903153-16.472127974971954,27.086156521220801-42.047741942593348,52.348359207087015-48.695013941129218,81.402296102794935-27.79052462207801,14.049565611279832-63.668521175122805,20.86350004248925-91.992453179585937,34.436150812402957-10.396363886133258,1.616314747020624-14.849045511442455-3.002060372283267-18.826740562913983-6.772667260392154-16.403547025807711-15.54959971309836-34.041551136562703-30.558454812268792-54.016387589172155-44.657049588656264-4.549202961170522-3.21065248654304-8.857102582689549-6.847479795577783-2.824519091471302-11.145936742010235Z" fill="#cc7c6c" stroke-width="0"/>
      <path d="M788.096818576548685-24.769025051468816c15.057328394083015,12.082772709441997,38.905718456848263,17.999559536026027,57.757859371303311,27.452738517739817,14.140375703420432,7.091144412134781,29.97749488984482,13.050254775624126,45.057683600319251,19.513332138088117,7.127338642678296,20.446218214932742-6.76157358047567,38.53815237233448-18.966442496395757,56.82922876041448-27.978487223492266,8.324382924768543-58.118544363204819,13.438388936759111-87.654073136218358,19.450145370973587-5.964002542054914,1.213741668993862-12.336950743939269,1.629691556703619-17.780246079382778-1.175235976912518,2.02440801789453-19.675289134295781-24.889804475985329-33.894091481991381-29.421227191076468-52.409433242027262-2.921040427327171-11.930541170573633-12.080407193364408-22.522459829135187-24.701841874573802-32.089726348200202,21.984004259581525-14.718360166484672,47.231953692308707-27.234552991902092,75.7082878060246-37.57104922007602Z" fill="#3d8d7e" stroke-width="0"/>
      <path d="M766.511599836174355,97.301183758834668c35.494451244761876-3.97977311437171,66.399058965887889-16.385311592219296,102.774902409155402-18.744848774585989,5.158811398174294-1.06218758228988,9.133966414494353.461057867830277,11.470798756358818,2.646880240153223,18.816580422296283,17.60021296746163,42.87325336770391,33.509488109676568,52.616828219207491,54.081367959952331-1.732303975162722,9.237797993014283-9.575932531326544,16.826166458644366-19.278866820362964,23.927871661084282-35.959277677979117,10.511539928091224-75.07073898231738,15.486516824374121-113.603072271498604,21.460379892842866-4.346000148834719.673663024994312-8.826622160840998-.007550290485597-12.339490779095286-1.938769059664082-10.856110249040285-21.901963881517077-17.914867942557976-44.432009165495401-32.479429516728487-65.720079387428086,3.61192998927072-5.237376940437571,7.22640001369291-10.475138535917722,10.83833000296363-15.712802532354544Z" fill="#438885" stroke-width="0"/>
      <path d="M788.152699349939212,178.734065678617299c41.460993821972806-7.298209298758593,82.919447608792325-14.596418776927749,124.377901395610024-21.894628165389804,27.234256923309658,19.48628428631946,24.206535019505282,42.389757852466573,22.055125243899965,65.197011682095763-.680729421324941,1.662846524906854-1.851685627410916,3.223501113180646-3.393486966010641,4.679764915845226-6.157045213775746,4.795241804244142-15.313871944658786,6.942317357446882-24.470698675540916,9.031775029972778-31.557396755756599,7.201844688662277-63.503418890103603,13.816883757351206-93.887319404618211,22.713730984245558-9.034905043481558,2.645634417103793-19.263626609434141,6.209170587762856-30.112116753014561,1.693756715181735-19.106144429875712-11.545455544176548-23.645187250427625-27.630018563323574-37.869384113935666-40.696092995203799,12.613814575744982-14.222907248522461,34.859442456209763-25.016336349778612,43.299979273610006-40.725318166747456Z" fill="#45858c" stroke-width="0"/>
      <path d="M1101.938482158930128-59.248883010703139c32.464189305805121,4.156456083464946,64.930918646764439,8.312912166935348,97.395107952567741,12.468334848799714l-.017780246080292.140565582953968c5.737939413333152,8.077847748194472-.170182355330326,15.55140816590847-4.958148620993597,22.654413732037028-14.709343577958862,21.818575548273657-28.008967645342636,43.935390800164896-42.49986820004051,65.804717849556255-30.414380936367706,7.205243431723829-62.230861277849726,11.434508399484912-94.458827314311748,14.778837124940765-31.633597810380707-13.667356286023278-63.483098608866385-27.243268012116459-85.274060196730716-46.934620800274388,6.449149256508463-14.493997195485463,6.278966901176318-29.808515266481663,16.238444740783962-43.867852264062094,37.856683938167407-8.348438217719377,75.715907911488102-16.696417145836676,113.57513188480516-25.044396073951248Z" fill="#738d72" stroke-width="0"/>
      <path d="M972.124905533341007,9.663365327310203c27.60510205582159,14.274238602762125,57.280332762316903,27.265061303775838,81.174443457855887,43.839973385172925,6.235786303555869,18.479413830853446,2.722917685297944,36.247416772478573-11.546999810983834,53.236929578378295-29.548228948786345,11.966560957677757-65.070620580241666,17.302449776806498-95.34275954797431,28.559319310706087-5.229932382490915,1.944548932263388-11.907684802878066,2.504213407265524-17.55926302097123-.413372124812668-16.700731138849733-19.89344308397267-36.746688575779444-38.60257635081598-59.563824365937762-56.329978091547673,7.208619767612618-18.786431707002521,14.417239535225235-37.572961013046552,21.625859302841491-56.359295121008472,27.259657274851634-3.770503547946646,52.873371769782352-11.106839714566377,81.212543985169759-12.533576936888494Z" fill="#5e8a7e" stroke-width="0"/>
      <path d="M1031.688729899278769,310.276356108351138c-32.781693700075266,8.365707506786748-61.184366794317611,21.048174650679357-92.068654234210044,31.282318190854312-19.842754624594818-10.433865623978818-39.682969214034529-20.867685318996337-59.52318380347424-31.301505014014765-6.063063913069527-4.308584282175616-3.65511058688935-9.032297471894708-.297184113040203-13.091154514756454,19.154405097807285-23.162135423515792,33.365901785542519-47.438162956366796,48.946477421392046-71.407310399945345l.093981300707128-.065741565528697c4.051356070943257-4.565482180415529,11.084713412918973-6.484086991236836,19.347447769526298-7.389806088075602,30.640444065085831-3.358090190177791,60.310594701273658-9.844749203190986,92.078814374828653-9.556883703477979,6.306907287870672,1.375850804883157,10.132200230094895,4.407483686471096,12.047386736358021,7.74899926310809,9.763895132737161,17.042408615347995,26.647508802691846,32.221832390782765,37.744922391379987,48.904522518612794-8.011270876338131,19.927881192506902-30.513442307375044,33.569333544930487-58.370007843467647,44.876561313223647Z" fill="#647f8f" stroke-width="0"/>
      <path d="M928.74618516994633,225.758704370488886c.833131530576793,21.009714887559312-17.480521931187468,38.638920511200013-30.686164697863205,57.095352638551049-6.474549608051348,9.047591815668966-14.798244808356685,17.640670640351345-17.963128610488639,27.403066347189451-32.461649270650014,11.48071293353496-64.925838576450587,22.961414384829368-97.387487847099692,34.442219176282379-28.844639211073627-5.219849300965507-57.689278422142706-10.439744530894131-86.531377598061226-15.659593831860548,16.693111033389869-19.255992173606501,44.455695268769887-33.84477526088267,64.920758506144011-51.517699513597108,6.858094916332448-5.924032120070478,14.396919253995293-11.585247247145162,21.623319267687293-17.366572346485555,48.674693659894729-11.465608046719353,97.349387319789457-22.931164423359405,146.024080979681457-34.396772470079668Z" fill="#498192" stroke-width="0"/>
      <path d="M1031.688729899278769,310.276356108351138c17.023315603435549-15.031297137394176,43.533662507798908-26.14889571090589,54.041787940715039-43.868357482628198,9.659753691415062-9.497035397668697,26.299523986568602-6.757849429581256,40.782804435803882-7.817981690897795,27.368878786483037,11.62023363264143,55.24830463895978,22.943616912715697,75.004698068311882,39.448200273677685-13.154842063593605,20.547365267723762-32.471809411268623,39.038812486170173-56.226218173326743,56.038510039014-18.049489805729536,4.174460235901279-36.09897961146271,8.348931954041291-54.151009452347353,12.523162545141531-14.821105124745372-20.540694086242183-40.09699494416509-37.385966992364047-59.452062819156708-56.323533684307222Z" fill="#797a90" stroke-width="0"/>
      <path d="M1145.29180217078283,354.076727247516828c13.208182801829935-20.330086838852367,36.02785862714245-37.57047510807206,54.079888468025274-56.343524264270854,26.368104935731026-13.017576320380613,57.554656558973875-18.675438633354133,91.540326922140594-20.091795910648216,17.846286993393733,13.407777284727672,28.53221488710733,28.839173077409214,37.592520282127225,44.744188308559387-1.363998877803169,9.197618764443177-5.374714386280175,17.579906625895092-20.937509776051229,22.324460081342295-36.05833904899373,7.304805935383229-72.116678097985641,14.609657799728666-108.17501714698119,21.914590039753421-18.031709559651063-4.182543732911654-36.065959154455413-8.365236734945029-54.100208749260673-12.547918254736032Z" fill="#867790" stroke-width="0"/>
      <path d="M1486.067998528279531-106.176063319409877c-9.728334640574758,20.491343418412725.629928718242809,42.706676290117684-16.045402069066768,62.601930697462194,4.064056246716063,5.175734534614094-.828051460268398,9.281645797287638-6.124024756769359,12.578105063881594-21.882402853416352,13.623298930870078-38.915878597466872,29.585024945733494-61.877796391414449,42.677798456339588-8.841862371764364,3.752063070392978-18.389854516395644,6.232192479108562-29.715871268965202,5.470242510205935-46.586784763139804-16.452316204155068-91.357444391031095-34.505853750757524-136.031582683064698-52.626757599859047-6.698072701621641-2.716927645709802-17.145237290837031-4.35013850899395-15.179250081488135-11.237668357940493,33.200799500518769-13.23190381355289,66.266977137865979-26.581041298234595,99.709079978038062-39.606264790501882,7.561684654046985-2.945286436251081,15.255451136112242-5.499372953267994,19.266166644592886-10.492149474581311,49.378283397605628.591312399201342,98.273960115917362-1.330952375642482,145.998680628137663-9.365236505006578Z" fill="#958e66" stroke-width="0"/>
      <path d="M1221.09407127751092-46.712412549320106c42.377946512639028,17.921089907377791,85.070857384394913,35.579603948800468,129.927878207530739,51.398582755095958,8.427836641631075,2.972051537857624,17.201118064225739,5.611565921002693,21.460757017817741,11.206712238707041,4.660964507953395,6.489153529667419-3.101382923274286,10.898735595511425-8.458317063477807,15.389060773538404-16.769312088013976,14.058073951176084-34.768001190663199,27.590112037956715-54.666636588648544,40.253656450212475-23.571526230956806,7.444504609213254-48.707714116899297,12.244046512364548-75.179960493949693,14.782178456800466-35.509691455685243-10.368703911572993-61.207227110706299-26.808584849731233-83.49349555363824-45.350496513293365-1.02109413198923-13.352409923102641,8.907903285770772-25.302631653158642,17.330659857091632-36.925000982453639,12.047386736361659-16.624687592107875,22.006864575969303-33.554756841157541,31.300853205180829-50.6830210360813,7.259420470700206-.023331911825153,14.518840941394956-.04749054493459,21.778261412093343-.07167214252604Z" fill="#878a72" stroke-width="0"/>
      <path d="M1745.969475576118384,53.536717584372127c25.222549081188845,20.858648796060152,50.44763819752734,41.717291850999572,75.66764724355744,62.575843048019124-12.623974716363591,16.699508738975965-25.250489467882289,33.399300228111315-37.874464184244061,50.098996988767794-13.977813453553608,7.114223355856666-31.270372783328639,7.490946323281605-48.390209722625514,7.540584047110315-20.691126366094977.060004751333508-41.369552556419876.780343441036166-62.055598852210096.398644447525839-9.004424621629369-1.376282829771299-13.081181044119148-5.491128076961104-15.049708288621332-10.139218515930224-6.42120886981138-15.160689065477527-16.030161858141582-29.882780959983393-18.956282355777148-45.523061664045599,24.496099027084711-19.053887524988568,49.322402624211463-37.998837297298451,75.146940036942397-56.484933791872209,4.757485843812901-3.406252446159669,10.863730354505606-7.288282991921733,20.579364819313923-5.391991044118186,3.644950446274379-1.024916231019233,7.287360857391832-2.049843944278109,10.932311303664392-3.074863515456855Z" fill="#c17a72" stroke-width="0"/>
      <path d="M1670.182446680316389,172.48177113865404c11.381897525961904-4.154019807784607,24.155734316424059-3.381931738538697,36.530785587674472-3.050305268996453,25.946459100130596.695264347948068,51.51191292713338-.998828222755947,77.049426367440901-3.219812084737896,3.063282395962233,12.174302309710583,19.113764535339214,20.582634403382144,27.127575446831543,31.321557311019205-.010160140614971,11.486830096931044-.02286031638323,22.973611394343607-.035560492158766,34.46044149127556.744230300180789.989665753999361,1.656102920538615,2.349369658782962.680729421324941,2.93641066467444-31.112890603768392,18.750452107739875-60.018490658538212,39.148370279813207-104.850111130135701,47.851908253980582-27.541601176964832-24.889787711388635-51.014066036910663-50.946779572762352-67.371892429942818-79.049174622066857,8.199233477749658-11.100833067729582,7.170519240300564-25.272382050509805,30.869047228965428-31.251025745148581Z" fill="#bf757a" stroke-width="0"/>
      <path d="M1708.061990934870664,282.025843032684861c37.305496309703813-14.585631212377848,71.181945161242766-31.530994805203591,102.792682655233875-50.032379902431785,34.267614265283555,16.689860786754252,68.535228530568929,33.379486187588554,102.802842795854303,50.069019730500258,7.218779908227589,6.869123818110893,17.843746958240445,12.895026372095344,16.233364670479205,21.950931329578452-24.285276109289043,18.188970568244258-49.568786034173172,35.834946003509685-81.143963036009154,50.06735480568932-41.453373716507485-16.151642265645023-82.990568593104399-32.232255394208551-124.255979708208542-48.54309891844332-5.209612101258244-2.059454579216435-9.535291968857564-4.707477302258667-16.375606639112448-4.675705943980574-9.045065184096529-6.27009535358502-8.87996289907278-12.548974620823174-.053340738237239-18.836121100912351Z" fill="#c66e7e" stroke-width="0"/>
      <path d="M1399.732203637094244,9.66297493114962c20.886709072972735-18.869178470077713,50.775302732417913-33.759737790913277,70.29039282211852-53.237015695176524,49.11665977672601,1.389374013127053,97.207145351154395-5.202786692220798,146.00884076875991-6.265628762197593,9.006964656784476,16.697496476403103,18.013929313572589,33.39519963312614,27.020893970357065,50.092891307609534-35.900856869431664,22.228617823466266-71.954115848120637,44.356123040864077-119.305451192674809,58.829279970622338-33.513223824489614-5.685913425467334-57.823900285316995-20.147048449872273-85.921769161051998-30.889648544891315-13.561247688263393-5.185023666830602-32.131444700606153-7.815180024321307-38.092907207508688-18.529878275966439Z" fill="#a9876a" stroke-width="0"/>
      <path d="M1659.346656712507865,347.848289460911474c-33.546244281491454,20.39284876308102-76.277255680561211,34.875283342817056-108.220737779754927,56.299329122236486-21.663959830153544-7.298456256623467-43.330459695460377-14.596407294685378-64.99441952561574-21.894335368266184-14.671243050646808-24.497956268950475-19.200125730580112-50.004788079540958-22.545352028659181-75.633113472325022,8.044291333342699-11.852668618411371,18.803880246525296-22.555838701024186,38.245309316755083-29.487265153765293,54.481214022393033,5.581769508019534,101.769048488093176,21.849187200306915,151.581677897067493,34.370742231838449,3.307125770768835.831038607410846,4.818446687515461,2.976070321879888,5.847160924964555,5.013536411362111.027940386698901,10.443705903720911.058420808547453,20.887411807438184.086361195242716,31.331106228919452Z" fill="#a8708a" stroke-width="0"/>
      <path d="M1659.260295517265149,316.517183231992021c-52.093580977443708-12.768560979948234-103.110187049509477-27.046623168652332-156.824310455331215-37.550002274022518-7.589625040744068-3.203590908899059-10.520825608688028-7.62692869834882-10.162680651947085-12.925850445568358,5.336613858971759-18.036176399616124,18.524476379565385-34.04329170947949,37.663641266448394-48.520803278785024,30.98080877575012-7.016897377272471,63.846323635918452-10.247850464261319,95.553582465769068-15.827837354509029,6.184985600473738-1.08875174469722,12.491892888348957-.711307549069716,17.584663372512296,2.123241293374122,21.661419795000256,26.070368671057622,43.322839590000513,52.140737342113425,64.986799420154057,78.210485972205788.017780246080292,6.278121439396273.035560492156947,12.556851437513615.053340738237239,18.83554698891021-17.833586817621836,3.599372241921628-29.794612358738959,13.335864015160951-48.855036155842754,15.655219098394809Z" fill="#b17581" stroke-width="0"/>
      <path d="M1524.044064118695132,56.615462096971896c44.620797553796365-15.286616227618651,75.710827841177888-40.14090085270891,119.010807114787895-56.362045117505659,14.142915738577358-2.468096021119891,28.516974676178506-3.867402171908907,43.353320011852702-3.129610836118445,11.567320092217415,21.100016964603128,33.904389238230578,39.252152506699531,48.628973027118263,59.488062012484079-21.834142185485689,8.035616069210846-34.795941577360281,20.483679023165678-48.253047824300666,32.649095155520627-11.67654160384518,10.556168704099036-25.989639697751045,19.620622189314417-43.691144687356427,26.869337381949663-22.088145700903624,8.516638681966469-46.91952936834241,3.78034956880947-70.513915915686084,4.664803557033338-15.054788358935184.564248759351358-30.381360479361319.834379939272367-45.382808100057446-1.177251110047109-10.914531057585918-1.872977259336949-16.451807693736555-6.557093944170447-19.525250230319216-12.524993962431836.022860316388687-17.400117710856648-3.38840689569588-35.20109190484709,16.373066603960979-50.477397080884657Z" fill="#b4816f" stroke-width="0"/>
      <path d="M1042.466099058539839,210.066653116503403c-37.874464184241333,5.208992842981388-75.751468403641411,10.417936886439747-113.625932587886382,15.626591003338035,2.504474662037865-23.581340526286112-2.748318036840828-46.547070798099412-16.309565725104221-68.853950134614024,5.438215265135113-7.317374682421359,10.878970565428972-14.634892892845528,16.317185830567723-21.952794323029593,37.419797891640883-7.639915111870323,69.375980166606496-22.306191837390543,108.18771732274854-28.14976790127821,6.159585248930853-1.490371796796353,10.713868280410679.519152261468662,13.639988778042607,2.98266112768215,17.582123337359008,14.795291174961676,41.313671783029349,26.584316607216351,59.51048362770689,41.070197294252466,1.524021092516705,3.215719024974533.510547065991886,6.398374939663881-2.987081341337216,8.790359497190366-23.449604543556234,16.03262346500469-38.108147418432964,35.831746764370109-64.732795904737941,50.486703436458811Z" fill="#658584" stroke-width="0"/>
      <path d="M1107.346217002221238,150.572871513186328c-29.733651515041856-11.230510616535867-45.822234181732711-29.788761507720665-70.310713103355738-43.836231610188406,13.312324243152034-16.937440847174912,7.107018361448354-35.871120800854442,16.263845092331394-53.233301190514794,33.033157180341732-2.6883483501706,63.564379733800706-11.889446233356466,97.384947811948223-12.535965242820566,27.041214251589736,14.609049241003959,54.084968538337307,29.218293680088209,81.128722825079421,43.827446261252589-11.902604732569671,23.606325880681652-31.090030287381524,44.798263918177327-61.585692348680823,62.275967125195166-20.594605030234561,3.354268039516683-40.643102502320289,10.080249947055563-62.881110277322477,3.502084657076011Z" fill="#77877c" stroke-width="0"/>
      <path d="M1107.346217002221238,150.572871513186328c21.66903990046012-2.08768510171376,43.335539765768772-4.175466367186345,65.00457966623344-6.26315290418097,24.579920187170501,12.21654367683368,48.382589617162012,24.839719762378991,64.638814604026265,41.426428051349831,2.153949810757695,7.248481241993431-1.41479958088712,13.91020422825477-6.228166198092367,20.448851953749909-25.374951190437059,18.584378728465708-56.411640739583163,34.014092372978666-85.116578017173197,50.748475545609836-4.30535958636392,2.510138243142137-9.481951230622144,4.829355539497556-16.545788994445502,3.242515702739183-13.081181044118239,5.282192123436289-30.297539319270982.926163225285563-43.368560222776068,6.232100621188692-17.747225622380938-17.925481864204812-33.449722945631038-36.376660866721068-43.264418781453969-56.341532095620096,14.455340062542746-18.408700455371218,35.971977853752833-34.144244281827014,56.93996805165807-50.065117204155285,3.840533153144861-2.917632896318537,8.067151649729567-5.493894489472041,7.940149892023328-9.4285696706811Z" fill="#798086" stroke-width="0"/>
      <path d="M1129.099078062769877,260.175989862454117c32.443869024569722-17.738183564158135,64.887738049139443-35.47641879839648,97.331607073710984-53.214654032635735,33.520843929951297,14.026360004095295,63.892044268692189,29.83448809352376,85.507743430918708,50.619030512162681-1.56720169014261,8.834119749380989-5.605857585316699,16.879438311454578-20.607305206009187,21.378076631293879-30.653144240857728,6.258234199588514-61.306288481720912,12.516422470218458-91.959432722582278,18.774714081009733-23.558826055181271-12.434175184588639-51.76083637224383-21.96017453283639-70.272612576038227-37.557167191830558Z" fill="#847c89" stroke-width="0"/>
      <path d="M1291.331123361390382,278.958442973274941c5.19183185518159-7.377810017758748,14.562021539015404-13.719807158671756,16.25876502202118-21.963688098298917,17.348440103174653-10.079299791692392,36.266621931639747-18.71676321536961,60.849082153965355-22.182258279178313,38.425651812705837,5.185500179793053,75.510165063993554,12.654720310761149,111.309420527260954,22.242729496514585,7.38134215809805,1.977040801104522,14.181016265887592,4.531466044203626,17.188417888459298,9.315966212859166,1.833905381330624,4.19845237653044,3.66527072750614,8.396864565221222,5.499176108836764,12.595655667834762-10.851030178733708,8.353042595988882-21.702060357467417,16.705763689252308-32.553090536199306,25.058898143163788-48.796615347298939,5.9224590531785-96.320673082338544,15.16143684636063-146.011380803913198,18.743413494572451-10.089019632474447-14.792374685983305-26.030280260220025-28.128675026267047-32.540390360431047-43.810716637467522Z" fill="#977789" stroke-width="0"/>
      <path d="M1524.044064118695132,56.615462096971896c-5.356934140203521,16.570123987291481-10.068699351240866,33.187457204634484-10.924691198206347,50.086294760687451-7.39150229871484,4.528739012187543-17.566883126432003,5.46125765735087-27.213936642077897,5.982603026674042-40.307817861963485,2.178559855479762-79.241476705510649,9.816655032298513-120.019201071003408,9.971160054701613-31.318633451259302-13.45340770677285-52.012299852511205-30.820083393420646-58.270946472453943-53.454236712849706,19.568430827939665-18.606499263965816,48.755974784829959-33.293616255214147,64.86995780306097-53.308021867778734,9.080625676258933-2.07707981772819,18.161251352516047-4.153688863613752,27.244417063924629-6.230378285177721,41.440673540739226,15.650890293888551,82.876267011170057,31.301780587777102,124.314400516755995,46.952579023743056Z" fill="#9c8474" stroke-width="0"/>
      <path d="M1307.615288734953538,69.201283226185296c14.732203894351187,17.882767931139824,33.01537693426144,34.479461821953009,54.125609100803558,50.052473822557658,1.737384045471117,17.020095752328416-10.447164589217209,31.353655913138027-25.928678854050304,45.065628595880298-25.35209087405201,7.993758146113578-52.886071945556978,13.223582777699448-78.687749041899224,20.681515866675909-8.110332247353654,2.344158157070524-16.840433072333326,4.195537322831115-25.247949432725363.007018519245321-17.897087696481321-14.518273700969985-45.535210209307479-24.266721894911825-59.525723838627528-40.698296150018905,19.819894308202493-19.838107298509385,39.64232865156373-39.676220338137682,59.462222959769861-59.514614692648138,25.268269713962582-5.198004339231375,50.533999392768237-10.395819221502279,75.802269106729-15.593725961692144Z" fill="#8b837d" stroke-width="0"/>
      <path d="M1524.115185103014483,116.153598158408386c39.657568862490734-.007830887730961,79.317677760134757-.015656034338463,118.977786657782417-.023389323027004,9.029824973174982,18.78394867258794,18.059649946346326,37.56780261669428,27.089474919519489,56.351610071186769-13.604428285880203,9.121168417782428-15.529774932761939,21.625183609965461-27.107255165599781,31.333825209911083-38.466292375171179,3.734813875244072-74.473830721080958,13.461416569221001-113.590372095728526,15.613980633179381-16.985215076123495-17.899684141325451-33.85866860546048-35.827223479423992-41.006327529370537-56.147127724249913,4.46030173077088-11.645498866638263,13.071020903502358-22.542655654140617,18.412714832780694-34.051224502089099,2.555275365122725-5.507800917478562,6.75141343985706-10.813118272418251,17.223978380616245-13.077674364911218Z" fill="#af7b7a" stroke-width="0"/>
      <path d="M1491.521454004344378,163.11212282958877c10.884050635737367,19.172048387003997,33.216039711445774,35.760859002368306,37.963365414643704,56.317786105511004-7.703926622680228,16.377202260169724-27.630502407364474,29.917697016761849-32.548010465890911,46.941903411037856-41.100308830078575-12.723229096145587-85.144518403867551-20.89965187535563-129.79071630920771-28.143843065401597-10.693547999171642-16.855934166028419,2.903260181248697-31.702433261151782,11.546999810983834-46.964359802058425,36.088819470844101-11.387779988235707,71.420708465739153-23.848597199167671,112.828361549471083-28.151486649088838Z" fill="#9f7b81" stroke-width="0"/>
      <path d="M1491.521454004344378,163.11212282958877c-35.352209276123176,10.28172971064123-70.498675704762718,20.828624891193613-108.149616795435577,28.156218767278006-26.644968767537648-3.368325171923971-44.948462088688757-11.564907894136923-48.720414292673013-28.176553814445469,9.029824973173163-14.612675475947071,18.059649946349964-29.225353104813621,27.089474919521308-43.838030733678352,40.864085560737294-3.527217845313317,81.829772527637033-6.729459591003433,122.526215768197289-10.819307199817558,9.68261400780284-.973228927337914,19.162025203271696-1.553725056390249,28.852259316534401-1.73241167638389,3.665270727511597,3.150072187925616,7.32800141986263,6.300339573934252,10.993272147368771,9.451175330824299-15.961580908979158,14.468101873565502-15.100508991707102,32.846226558906892-32.591191063513179,46.958909326222965Z" fill="#9b7f7c" stroke-width="0"/>
      <path d="M1334.651422916235788,163.091787782421306c10.513205503226345,12.708314025115214,29.50250831601079,20.508294792959532,48.720414292673013,28.176553814445469-5.410274878442578,15.653271423423575-10.818009721733688,31.306595952206408-16.228284600174447,46.959725282908948-23.045738954035187,2.861776104211458-36.474904814280308,15.940552764170207-59.553664225322791,18.76702098016267-27.053914427358905-16.678441699004907-54.105288819568159-33.356550413045625-81.159203246930701-50.034228543083373,1.816125135250331-7.317376117704043,3.629710235349194-14.635134019887118,5.445835370601344-21.952939286310539,27.556841387893655-1.778706633072034,49.192860831350117-12.265213534165923,74.740534412268971-17.082431398399422,9.296528664368452-1.752862263589122,17.490682071811534-5.481853207835229,28.034367996884612-4.833700849723755Z" fill="#8f7d83" stroke-width="0"/>
    </g>
  </g>
</svg>