<?xml version="1.0" encoding="UTF-8"?>
<svg id="Pattern" xmlns="http://www.w3.org/2000/svg" width="280" height="280" xmlns:xlink="http://www.w3.org/1999/xlink" viewBox="0 0 280 280">
  <defs>
    <linearGradient id="linear-gradient" x1="-612.224753287494423" y1="-6567.206534771248698" x2="-659.75616305031167" y2="-6594.425377220260089" gradientTransform="translate(-6528.484786742359574 -580.999746689300082) rotate(-90) scale(1 -1)" gradientUnits="userSpaceOnUse">
      <stop offset="0" stop-color="#ffc810"/>
      <stop offset=".755599975585938" stop-color="#ef4e26"/>
    </linearGradient>
    <linearGradient id="linear-gradient-2" x1="-655.697996904336833" y1="-6598.323413060265921" x2="-637.822937685673196" y2="-6582.479349651921439" gradientTransform="translate(-6528.484786742359574 -580.999746689300082) rotate(-90) scale(1 -1)" gradientUnits="userSpaceOnUse">
      <stop offset="0" stop-color="#d23e27"/>
      <stop offset="1" stop-color="#d23e27" stop-opacity="0"/>
    </linearGradient>
    <linearGradient id="linear-gradient-3" x1="-655.133997811998597" y1="-6569.521988706131197" x2="-636.771430907684021" y2="-6570.14989120471455" xlink:href="#linear-gradient-2"/>
    <linearGradient id="linear-gradient-4" x1="-640.455932414803101" y1="-6558.335027025570525" x2="-630.919092588174408" y2="-6574.039599217449904" xlink:href="#linear-gradient-2"/>
    <linearGradient id="linear-gradient-5" x1="-614.736347421652681" y1="-6583.596552544144288" x2="-631.127451948475482" y2="-6591.898120138396735" xlink:href="#linear-gradient-2"/>
    <linearGradient id="linear-gradient-6" x1="-620.444167397456113" y1="-6565.45187654277197" x2="-628.385249177288642" y2="-6582.020888325372653" xlink:href="#linear-gradient-2"/>
    <linearGradient id="linear-gradient-7" x1="-625.434483055327291" y1="-6609.831298726318892" x2="-635.285917017668794" y2="-6592.362813481492594" xlink:href="#linear-gradient-2"/>
    <radialGradient id="radial-gradient" cx="-5623.418533121036489" cy="3233.673784347347464" fx="-5623.418533121036489" fy="3233.673784347347464" r="6.500021474713377" gradientTransform="translate(8138.099543035235911 18656.520404098933795) rotate(46.679000554437955) scale(3.393360063220487 -2.127890109186673)" gradientUnits="userSpaceOnUse">
      <stop offset="0" stop-color="#e1dfe1"/>
      <stop offset=".394388008117676" stop-color="#c2bec5"/>
    </radialGradient>
    <linearGradient id="linear-gradient-8" x1="-651.960102237331739" y1="-6589.630533155392186" x2="-650.335096852510105" y2="-6590.950881006457166" gradientTransform="translate(-6528.484786742359574 -580.999746689300082) rotate(-90) scale(1 -1)" gradientUnits="userSpaceOnUse">
      <stop offset="0" stop-color="#a3a1a8"/>
      <stop offset="1" stop-color="#b8b6bd" stop-opacity="0"/>
    </linearGradient>
    <radialGradient id="radial-gradient-2" cx="-6135.310335455860695" cy="-529.979488366971964" fx="-6135.310335455860695" fy="-529.979488366971964" r="6.500021549226688" gradientTransform="translate(-103169.288541751302546 79335.026288253779057) rotate(150.613998431500988) scale(21.016598951055666 -34.56750101719615)" gradientUnits="userSpaceOnUse">
      <stop offset=".00558659017086" stop-color="#5c266f"/>
      <stop offset="1" stop-color="#2e265b"/>
    </radialGradient>
    <radialGradient id="radial-gradient-3" cx="-6108.26799779902376" cy="-479.508447546194475" fx="-6108.26799779902376" fy="-479.508447546194475" r="6.500021549226082" gradientTransform="translate(-96464.780772836747929 102312.682798221911071) rotate(138.535003813569915) scale(22.936198784939176 -26.321800119514737)" gradientUnits="userSpaceOnUse">
      <stop offset=".71875" stop-color="#29233a" stop-opacity="0"/>
      <stop offset="1" stop-color="#29233a"/>
    </radialGradient>
    <radialGradient id="radial-gradient-4" cx="-5371.025963534188122" cy="-350.535391169532886" fx="-5371.025963534188122" fy="-350.535391169532886" r="6.500021549228607" gradientTransform="translate(94557.948951559985289 -45169.559596205152047) rotate(-22.45010325657281) scale(19.476000259430034 -16.532499694880073)" gradientUnits="userSpaceOnUse">
      <stop offset=".809844970703125" stop-color="#672b80" stop-opacity="0"/>
      <stop offset="1" stop-color="#672b80"/>
    </radialGradient>
    <radialGradient id="radial-gradient-5" cx="-5776.651559044575151" cy="648.576436615529019" fx="-5776.651559044575151" fy="648.576436615529019" r="6.500021549230748" gradientTransform="translate(-7528.846803641914448 83079.874737456470029) rotate(92.148493896132479) scale(14.411199570559582 -6.984130141550692)" gradientUnits="userSpaceOnUse">
      <stop offset="0" stop-color="#67568f"/>
      <stop offset=".727772979736328" stop-color="#67568f" stop-opacity="0"/>
    </radialGradient>
    <linearGradient id="linear-gradient-9" x1="-621.875671471771057" y1="-6559.016877058217688" x2="-631.983206974737413" y2="-6555.766867179238034" gradientTransform="translate(-6528.484786742359574 -580.999746689300082) rotate(-90) scale(1 -1)" gradientUnits="userSpaceOnUse">
      <stop offset="0" stop-color="#ffd35d"/>
      <stop offset="1" stop-color="#ffd35d" stop-opacity="0"/>
    </linearGradient>
    <linearGradient id="linear-gradient-10" x1="-625.128557518016351" y1="-6568.531495509650085" x2="-629.749418566227178" y2="-6575.133049410929743" gradientTransform="translate(-6528.484786742359574 -580.999746689300082) rotate(-90) scale(1 -1)" gradientUnits="userSpaceOnUse">
      <stop offset="0" stop-color="#febb12"/>
      <stop offset="1" stop-color="#febb12" stop-opacity="0"/>
    </linearGradient>
    <linearGradient id="linear-gradient-11" x1="-618.495804754164965" y1="-6582.221268983049413" x2="-626.531133585849261" y2="-6582.82271795903398" xlink:href="#linear-gradient-10"/>
  </defs>
  <a xlink:href="https://www.notion.so/dmmnotes/displaced-7f31c93966424c11b47cf8a6d4c060aa?pvs=4">
    <g>
      <g>
        <g>
          <path d="M29.508297602210405,38.872566806621762c-.373945760680726-.02665528551006-.747762894110565.068894614698365-1.037859185130401.306151451375626-1.93148073140037,1.581451890557219-4.973685660370393,5.506163731630295-4.707509388641483,10.471535112534184.021710110161621.405594263047533.217685348261512.77870627118682.519156627411576,1.051048902283583l.640771367559864.577849396491729c.994504053300261.897006147632055,2.23795762519967,1.470962632658484,3.565781374660219,1.646465991594596l3.719442896729561.490097717021854c1.695011155480643.223594453129408,1.695011155480643,2.67671137337129,0,2.90030582649706l-3.719442896729561.490097717025492c-1.327823749460549.175503358936112-2.571277321359958.749459843962541-3.565781374660219,1.646465991596415l-.640771367559864.57784939648991c-.301471279150064.272355028906532-.497446517249955.646099325213072-.519156627411576,1.051048902283583-.266176271728909,4.96537138090207,2.776028657241113,8.890727907946712,4.707509388641483,10.471535112537822.290096291019836.237256836673623.663913424449674.332806736882048,1.037859185130401.30615145137017l.801777040679553-.057203482492696c1.22674907640976-.087739281660106,2.404878602099416-.515451232779014,3.40198154573045-1.235652251711144l3.611087611408948-2.607804360872251c1.518663195910449-1.097205938540355,3.381439928900363.822247370126206,2.239710365191058,2.307504674503434l-2.131939326520296,2.773563043334434c-.816274726500524,1.06210774632018-1.291036356000404,2.346508176004136-1.361496193860148,3.684206778903899l-.045369775500149.861250871625089c-.021321128960153.405606660850026.103871928300578.808609782186977.374856999509575,1.110855924285715,3.318521057281032,3.703063843677228,8.244430217820991,4.332922041437996,10.728414578580669,4.087222298050619.373037621299773-.036399961985808.70531745137032-.232706841430627.951212460229726-.515451232780833l.527086574849818-.60710822152214c.806588939610265-.928199030582618,1.33829059819891-2.063751386842341,1.535502517570421-3.277955432075032l.514670170919999-3.168110860149682c.295492436619497-1.819365811021271,2.912399887430183-1.819365811021271,3.207957412540054,0l.514670170919999,3.168110860149682c.197211919379697,1.214204045232691.728913577960157,2.349756401492414,1.535434329630334,3.277955432075032l.527151663339282.60710822152214c.245833019819656.282744391350207.578112849900208.479051270795026.95121555968035.515451232780833,2.48391617281959.245699743387377,7.409828432810173-.384158454373392,10.728411479130045-4.087222298050619.270923082170157-.302246142098738.396178128469728-.705249263435689.374791911020111-1.110855924285715l-.045369775500149-.861250871625089c-.07045673841003-1.337698602899764-.545156378870161-2.622099032583719-1.361428005920061-3.684206778903899l-2.132007514460383-2.773563043334434c-1.141726464259591-1.485257304377228.721112257760069-3.40471061304379,2.239775453680522-2.307504674503434l3.611090710859571,2.607804360872251c.997099844180411.72020101893213,2.175164281379693,1.147912970051038,3.402175261469893,1.235652251711144l.801450048520564.057203482492696c.373750495209606.026655285511879.7481518752993-.068894614696546,1.038056000319557-.30615145137017,1.931156838680181-1.58080720459111,4.973814287610367-5.506163731635752,4.707317222620077-10.471535112537822-.0214544053797-.404949577070511-.217755085929639-.778693873377051-.519356542049536-1.051048902283583l-.640247560211719-.57784939648991c-.994502503568583-.897006147633874-2.237959174918615-1.470962632660303-3.565913101358092-1.646465991596415l-2.49802177797028-.328889029806305c-1.883319899540766-.248960366687243-1.883319899540766-2.973762834244553,0-3.222066117150462l2.49802177797028-.329546113587639c1.327953926439477-.175503358936112,2.571410597789509-.749459843962541,3.565913101358092-1.646465991594596l.640247560211719-.577849396491729c.301601456119897-.272342631096762.497902136669836-.64545463923605.519356542049536-1.051048902283583.26649706499029-4.965371380903889-2.776160383939896-8.890083221976965-4.707317222620077-10.471535112534184-.289904125020257-.237256836677261-.664305505109951-.332806736885686-1.038056000319557-.306151451375626l-.801450048520564.057203482494515c-1.227010980090199.087751679468056-2.405075417289481.515451232779014-3.402175261469893,1.235652251711144l-3.611090710859571,2.607804360872251c-1.518663195920453,1.097205938540355-3.381501917940113-.822247370128025-2.239775453680522-2.307504674503434l2.132007514460383-2.773563043334434c.8162716270499-1.061450662535208,1.290971267510031-2.346508176004136,1.361428005920061-3.683562092926877l.045369775500149-.861895557602111c.021386217449617-.405606660851845-.103868828849954-.808609782186977-.374791911020111-1.110855924285715-3.318583046319873-3.703063843677228-8.244495306310455-4.332264957658481-10.728411479130045-4.087222298050619-.373102709780142.036399961983989-.705382539860693.232706841430627-.95121555968035.516108316562168l-.527151663339282.606451137738986c-.806520751670178.928856114363953-1.338222410250637,2.063751386840522-1.535434329630334,3.277955432076851l-.514670170919999,3.168110860146044c-.295557525109871,1.819365811024909-2.912464975920557,1.819365811024909-3.207957412540054,0l-.514670170919999-3.168110860146044c-.197211919371512-1.214204045236329-.728913577960157-2.349099317712898-1.535502517570421-3.277955432076851l-.527086574849818-.606451137738986c-.245895008859407-.283401475131541-.578174838929954-.479708354578179-.951212460229726-.516108316562168-2.483984360759678-.245042659607861-7.409893521299637.384158454373392-10.728414578580669,4.087222298050619-.270985071208997.302246142098738-.396178128469728.705249263433871-.374856999509575,1.110855924285715l.045369775500149.861895557602111c.070459837859744,1.337053916922741.545221467359625,2.622111430391669,1.361496193860148,3.683562092926877l2.131939326520296,2.773563043334434c1.141729563709305,1.485257304375409-.72104716928061,3.40471061304379-2.239710365191058,2.307504674503434l-3.611087611408948-2.607804360872251c-.997102943631035-.72020101893213-2.17523246932069-1.147900572243088-3.40198154573045-1.235652251711144l-.801777040679553-.057203482494515Z" fill="none" stroke="#181818" stroke-linecap="round" stroke-linejoin="round" stroke-width="35.364364211497801"/>
          <path d="M29.508297602210405,38.872566806621762c-.373945760680726-.02665528551006-.747762894110565.068894614698365-1.037859185130401.306151451375626-1.93148073140037,1.581451890557219-4.973685660370393,5.506163731630295-4.707509388641483,10.471535112534184.021710110161621.405594263047533.217685348261512.77870627118682.519156627411576,1.051048902283583l.640771367559864.577849396491729c.994504053300261.897006147632055,2.23795762519967,1.470962632658484,3.565781374660219,1.646465991594596l3.719442896729561.490097717021854c1.695011155480643.223594453129408,1.695011155480643,2.67671137337129,0,2.90030582649706l-3.719442896729561.490097717025492c-1.327823749460549.175503358936112-2.571277321359958.749459843962541-3.565781374660219,1.646465991596415l-.640771367559864.57784939648991c-.301471279150064.272355028906532-.497446517249955.646099325213072-.519156627411576,1.051048902283583-.266176271728909,4.96537138090207,2.776028657241113,8.890727907946712,4.707509388641483,10.471535112537822.290096291019836.237256836673623.663913424449674.332806736882048,1.037859185130401.30615145137017l.801777040679553-.057203482492696c1.22674907640976-.087739281660106,2.404878602099416-.515451232779014,3.40198154573045-1.235652251711144l3.611087611408948-2.607804360872251c1.518663195910449-1.097205938540355,3.381439928900363.822247370126206,2.239710365191058,2.307504674503434l-2.131939326520296,2.773563043334434c-.816274726500524,1.06210774632018-1.291036356000404,2.346508176004136-1.361496193860148,3.684206778903899l-.045369775500149.861250871625089c-.021321128960153.405606660850026.103871928300578.808609782186977.374856999509575,1.110855924285715,3.318521057281032,3.703063843677228,8.244430217820991,4.332922041437996,10.728414578580669,4.087222298050619.373037621299773-.036399961985808.70531745137032-.232706841430627.951212460229726-.515451232780833l.527086574849818-.60710822152214c.806588939610265-.928199030582618,1.33829059819891-2.063751386842341,1.535502517570421-3.277955432075032l.514670170919999-3.168110860149682c.295492436619497-1.819365811021271,2.912399887430183-1.819365811021271,3.207957412540054,0l.514670170919999,3.168110860149682c.197211919379697,1.214204045232691.728913577960157,2.349756401492414,1.535434329630334,3.277955432075032l.527151663339282.60710822152214c.245833019819656.282744391350207.578112849900208.479051270795026.95121555968035.515451232780833,2.48391617281959.245699743387377,7.409828432810173-.384158454373392,10.728411479130045-4.087222298050619.270923082170157-.302246142098738.396178128469728-.705249263435689.374791911020111-1.110855924285715l-.045369775500149-.861250871625089c-.07045673841003-1.337698602899764-.545156378870161-2.622099032583719-1.361428005920061-3.684206778903899l-2.132007514460383-2.773563043334434c-1.141726464259591-1.485257304377228.721112257760069-3.40471061304379,2.239775453680522-2.307504674503434l3.611090710859571,2.607804360872251c.997099844180411.72020101893213,2.175164281379693,1.147912970051038,3.402175261469893,1.235652251711144l.801450048520564.057203482492696c.373750495209606.026655285511879.7481518752993-.068894614696546,1.038056000319557-.30615145137017,1.931156838680181-1.58080720459111,4.973814287610367-5.506163731635752,4.707317222620077-10.471535112537822-.0214544053797-.404949577070511-.217755085929639-.778693873377051-.519356542049536-1.051048902283583l-.640247560211719-.57784939648991c-.994502503568583-.897006147633874-2.237959174918615-1.470962632660303-3.565913101358092-1.646465991596415l-2.49802177797028-.328889029806305c-1.883319899540766-.248960366687243-1.883319899540766-2.973762834244553,0-3.222066117150462l2.49802177797028-.329546113587639c1.327953926439477-.175503358936112,2.571410597789509-.749459843962541,3.565913101358092-1.646465991594596l.640247560211719-.577849396491729c.301601456119897-.272342631096762.497902136669836-.64545463923605.519356542049536-1.051048902283583.26649706499029-4.965371380903889-2.776160383939896-8.890083221976965-4.707317222620077-10.471535112534184-.289904125020257-.237256836677261-.664305505109951-.332806736885686-1.038056000319557-.306151451375626l-.801450048520564.057203482494515c-1.227010980090199.087751679468056-2.405075417289481.515451232779014-3.402175261469893,1.235652251711144l-3.611090710859571,2.607804360872251c-1.518663195920453,1.097205938540355-3.381501917940113-.822247370128025-2.239775453680522-2.307504674503434l2.132007514460383-2.773563043334434c.8162716270499-1.061450662535208,1.290971267510031-2.346508176004136,1.361428005920061-3.683562092926877l.045369775500149-.861895557602111c.021386217449617-.405606660851845-.103868828849954-.808609782186977-.374791911020111-1.110855924285715-3.318583046319873-3.703063843677228-8.244495306310455-4.332264957658481-10.728411479130045-4.087222298050619-.373102709780142.036399961983989-.705382539860693.232706841430627-.95121555968035.516108316562168l-.527151663339282.606451137738986c-.806520751670178.928856114363953-1.338222410250637,2.063751386840522-1.535434329630334,3.277955432076851l-.514670170919999,3.168110860146044c-.295557525109871,1.819365811024909-2.912464975920557,1.819365811024909-3.207957412540054,0l-.514670170919999-3.168110860146044c-.197211919371512-1.214204045236329-.728913577960157-2.349099317712898-1.535502517570421-3.277955432076851l-.527086574849818-.606451137738986c-.245895008859407-.283401475131541-.578174838929954-.479708354578179-.951212460229726-.516108316562168-2.483984360759678-.245042659607861-7.409893521299637.384158454373392-10.728414578580669,4.087222298050619-.270985071208997.302246142098738-.396178128469728.705249263433871-.374856999509575,1.110855924285715l.045369775500149.861895557602111c.070459837859744,1.337053916922741.545221467359625,2.622111430391669,1.361496193860148,3.683562092926877l2.131939326520296,2.773563043334434c1.141729563709305,1.485257304375409-.72104716928061,3.40471061304379-2.239710365191058,2.307504674503434l-3.611087611408948-2.607804360872251c-.997102943631035-.72020101893213-2.17523246932069-1.147900572243088-3.40198154573045-1.235652251711144l-.801777040679553-.057203482494515Z" fill="none" stroke="#181818" stroke-linecap="round" stroke-linejoin="round" stroke-width="35.364364211497801"/>
          <path d="M52.947440050069417,56.726177860524331l-13.812545792109631,21.328518051392166,8.125026936540053,2.234060064558435,1.523473545120396-3.147964423424128,4.164045310449183-20.414613692526473Z" fill="none" stroke="#181818" stroke-linecap="round" stroke-linejoin="round" stroke-width="35.364364211497801"/>
          <path d="M57.416204865169675,53.578213437092927l13.000043098460083,12.085494053615548,5.382669173960494-6.195171867611862-18.382712272420576-5.890322186003687Z" fill="none" stroke="#181818" stroke-linecap="round" stroke-linejoin="round" stroke-width="35.364364211497801"/>
          <g>
            <polygon points="50.611463811300382 54.593519461173855 27.353540111501388 59.773385304710246 28.978545498809581 64.343551785019372 50.611463811300382 54.593519461173855" fill="none" stroke="#181818" stroke-linecap="round" stroke-linejoin="round" stroke-width="35.364364211497801"/>
            <polygon points="50.611463811300382 54.593519461173855 27.353540111501388 59.773385304710246 28.978545498809581 64.343551785019372 50.611463811300382 54.593519461173855" fill="none" stroke="#181818" stroke-linecap="round" stroke-linejoin="round" stroke-width="35.364364211497801"/>
          </g>
          <g>
            <polygon points="64.221274460929635 31.437192692046665 54.366784412390189 53.214213817260315 53.760268186169924 41.187225015892182 56.736433095559732 29.604189293087984 64.221274460929635 31.437192692046665" fill="none" stroke="#181818" stroke-linecap="round" stroke-linejoin="round" stroke-width="35.364364211497801"/>
            <polygon points="64.221274460929635 31.437192692046665 54.366784412390189 53.214213817260315 53.760268186169924 41.187225015892182 56.736433095559732 29.604189293087984 64.221274460929635 31.437192692046665" fill="none" stroke="#181818" stroke-linecap="round" stroke-linejoin="round" stroke-width="35.364364211497801"/>
          </g>
          <path d="M56.806111871559551,52.257413045426802l-30.46884946227965,12.49239008641598,4.87501616192003,4.468764815097529,25.59383330035962-16.96115490151351Z" fill="none" stroke="#181818" stroke-linecap="round" stroke-linejoin="round" stroke-width="35.364364211497801"/>
          <g>
            <polygon points="55.99426006279009 57.335877223747957 29.587922519040148 45.859437847388108 26.845693383719663 51.140705356134276 55.99426006279009 57.335877223747957" fill="none" stroke="#181818" stroke-linecap="round" stroke-linejoin="round" stroke-width="35.364364211497801"/>
            <polygon points="55.99426006279009 57.335877223747957 29.587922519040148 45.859437847388108 26.845693383719663 51.140705356134276 55.99426006279009 57.335877223747957" fill="none" stroke="#181818" stroke-linecap="round" stroke-linejoin="round" stroke-width="35.364364211497801"/>
          </g>
          <g>
            <polygon points="55.079903183959686 57.944931901001837 67.165846658080227 33.265646095755073 62.493956169580088 31.030941345223255 55.079903183959686 57.944931901001837" fill="none" stroke="#181818" stroke-linecap="round" stroke-linejoin="round" stroke-width="35.364364211497801"/>
            <polygon points="55.079903183959686 57.944931901001837 67.165846658080227 33.265646095755073 62.493956169580088 31.030941345223255 55.079903183959686 57.944931901001837" fill="none" stroke="#181818" stroke-linecap="round" stroke-linejoin="round" stroke-width="35.364364211497801"/>
          </g>
          <g>
            <polygon points="53.501891684899419 60.407781099907879 48.684401348459687 32.021538539520407 45.533191798989719 36.312208853971242 53.501891684899419 60.407781099907879" fill="none" stroke="#181818" stroke-linecap="round" stroke-linejoin="round" stroke-width="35.364364211497801"/>
            <polygon points="53.501891684899419 60.407781099907879 48.684401348459687 32.021538539520407 45.533191798989719 36.312208853971242 53.501891684899419 60.407781099907879" fill="none" stroke="#181818" stroke-linecap="round" stroke-linejoin="round" stroke-width="35.364364211497801"/>
          </g>
          <path d="M78.744078230589366,49.413653617637465l-1.827808717729567-5.991723851213465-21.02353819280961,11.984092388403951,4.773484319729505,2.437508080958651,18.077862590809673-8.429876618149137Z" fill="none" stroke="#181818" stroke-linecap="round" stroke-linejoin="round" stroke-width="35.364364211497801"/>
          <path d="M55.480172588800087,58.249781582617288l18.535140212679835,16.554903554684643" fill="none" stroke="#181818" stroke-linecap="round" stroke-linejoin="round" stroke-width="35.364364211497801"/>
          <path d="M55.480172588800087,58.249781582617288l18.535140212679835,16.554903554684643" fill="none" stroke="#181818" stroke-linecap="round" stroke-linejoin="round" stroke-width="35.364364211497801"/>
          <path d="M204.479192416470141,120.609685663515847c0,43.751254169790627-35.467361731600249,79.218818915487645-79.219012631230726,79.218818915487645-43.751644700719226,0-79.219012631219812-35.467564745697018-79.219012631219812-79.218818915487645,0-43.751638501817069,35.467367930500586-79.219012631225269,79.219012631219812-79.219012631225269,43.751650899630476,0,79.219012631230726,35.467374129408199,79.219012631230726,79.219012631225269Z" fill="none" stroke="#181818" stroke-linecap="round" stroke-linejoin="round" stroke-width="35.364364211497801"/>
          <path d="M204.479192416470141,120.609685663515847c0,43.751254169790627-35.467361731600249,79.218818915487645-79.219012631230726,79.218818915487645-43.751644700719226,0-79.219012631219812-35.467564745697018-79.219012631219812-79.218818915487645,0-43.751638501817069,35.467367930500586-79.219012631225269,79.219012631219812-79.219012631225269,43.751650899630476,0,79.219012631230726,35.467374129408199,79.219012631230726,79.219012631225269Z" fill="none" stroke="#181818" stroke-linecap="round" stroke-linejoin="round" stroke-width="35.364364211497801"/>
          <path d="M204.479192416470141,120.609685663515847c0,43.751254169790627-35.467361731600249,79.218818915487645-79.219012631230726,79.218818915487645-43.751644700719226,0-79.219012631219812-35.467564745697018-79.219012631219812-79.218818915487645,0-43.751638501817069,35.467367930500586-79.219012631225269,79.219012631219812-79.219012631225269,43.751650899630476,0,79.219012631230726,35.467374129408199,79.219012631230726,79.219012631225269Z" fill="none" stroke="#181818" stroke-linecap="round" stroke-linejoin="round" stroke-width="35.364364211497801"/>
          <ellipse cx="117.846795108497417" cy="94.046329746400261" rx="32.707128049660248" ry="43.577573513566165" transform="translate(-32.870402915895596 98.157956649309099) rotate(-40.15389445855709)" fill="none" stroke="#181818" stroke-linecap="round" stroke-linejoin="round" stroke-width="35.364364211497801"/>
          <path d="M37.408357028470164,32.554545067316212l9.191421224689293-3.250010774618204c0,1.675700021010925-.203125673409886,4.519459448800262-2.996119180099413,5.78892052079209-2.547619205740375,1.15830233250017-5.585987013389968-1.574310753607278-6.19530204458988-2.538909746173886Z" fill="none" stroke="#181818" stroke-linecap="round" stroke-linejoin="round" stroke-width="35.364364211497801"/>
          <path d="M25.186888474489933,49.383105420660286l3.960071936980057-8.908940286750294c1.216804485289686,1.15246296530313,3.142046020199814,3.255217853646172,2.143382502589702,6.156180763924567-.9109133878801,2.646150778580704-4.983890605440138,2.973750436432965-6.103454439569759,2.752759522825727Z" fill="none" stroke="#181818" stroke-linecap="round" stroke-linejoin="round" stroke-width="35.364364211497801"/>
          <path d="M40.506008050760101,43.472636797936502l8.886701720060046,8.175721570240057" fill="none" stroke="#181818" stroke-linecap="round" stroke-linejoin="round" stroke-width="35.364364211497801"/>
          <path d="M54.775506022309855,39.054566616541706l-1.062882609269764,10.445536910810915" fill="none" stroke="#181818" stroke-linecap="round" stroke-linejoin="round" stroke-width="35.364364211497801"/>
        </g>
        <g>
          <path d="M29.508297602210405,38.872566806621762c-.373945760680726-.02665528551006-.747762894110565.068894614698365-1.037859185130401.306151451375626-1.93148073140037,1.581451890557219-4.973685660370393,5.506163731630295-4.707509388641483,10.471535112534184.021710110161621.405594263047533.217685348261512.77870627118682.519156627411576,1.051048902283583l.640771367559864.577849396491729c.994504053300261.897006147632055,2.23795762519967,1.470962632658484,3.565781374660219,1.646465991594596l3.719442896729561.490097717021854c1.695011155480643.223594453129408,1.695011155480643,2.67671137337129,0,2.90030582649706l-3.719442896729561.490097717025492c-1.327823749460549.175503358936112-2.571277321359958.749459843962541-3.565781374660219,1.646465991596415l-.640771367559864.57784939648991c-.301471279150064.272355028906532-.497446517249955.646099325213072-.519156627411576,1.051048902283583-.266176271728909,4.96537138090207,2.776028657241113,8.890727907946712,4.707509388641483,10.471535112537822.290096291019836.237256836673623.663913424449674.332806736882048,1.037859185130401.30615145137017l.801777040679553-.057203482492696c1.22674907640976-.087739281660106,2.404878602099416-.515451232779014,3.40198154573045-1.235652251711144l3.611087611408948-2.607804360872251c1.518663195910449-1.097205938540355,3.381439928900363.822247370126206,2.239710365191058,2.307504674503434l-2.131939326520296,2.773563043334434c-.816274726500524,1.06210774632018-1.291036356000404,2.346508176004136-1.361496193860148,3.684206778903899l-.045369775500149.861250871625089c-.021321128960153.405606660850026.103871928300578.808609782186977.374856999509575,1.110855924285715,3.318521057281032,3.703063843677228,8.244430217820991,4.332922041437996,10.728414578580669,4.087222298050619.373037621299773-.036399961985808.70531745137032-.232706841430627.951212460229726-.515451232780833l.527086574849818-.60710822152214c.806588939610265-.928199030582618,1.33829059819891-2.063751386842341,1.535502517570421-3.277955432075032l.514670170919999-3.168110860149682c.295492436619497-1.819365811021271,2.912399887430183-1.819365811021271,3.207957412540054,0l.514670170919999,3.168110860149682c.197211919379697,1.214204045232691.728913577960157,2.349756401492414,1.535434329630334,3.277955432075032l.527151663339282.60710822152214c.245833019819656.282744391350207.578112849900208.479051270795026.95121555968035.515451232780833,2.48391617281959.245699743387377,7.409828432810173-.384158454373392,10.728411479130045-4.087222298050619.270923082170157-.302246142098738.396178128469728-.705249263435689.374791911020111-1.110855924285715l-.045369775500149-.861250871625089c-.07045673841003-1.337698602899764-.545156378870161-2.622099032583719-1.361428005920061-3.684206778903899l-2.132007514460383-2.773563043334434c-1.141726464259591-1.485257304377228.721112257760069-3.40471061304379,2.239775453680522-2.307504674503434l3.611090710859571,2.607804360872251c.997099844180411.72020101893213,2.175164281379693,1.147912970051038,3.402175261469893,1.235652251711144l.801450048520564.057203482492696c.373750495209606.026655285511879.7481518752993-.068894614696546,1.038056000319557-.30615145137017,1.931156838680181-1.58080720459111,4.973814287610367-5.506163731635752,4.707317222620077-10.471535112537822-.0214544053797-.404949577070511-.217755085929639-.778693873377051-.519356542049536-1.051048902283583l-.640247560211719-.57784939648991c-.994502503568583-.897006147633874-2.237959174918615-1.470962632660303-3.565913101358092-1.646465991596415l-2.49802177797028-.328889029806305c-1.883319899540766-.248960366687243-1.883319899540766-2.973762834244553,0-3.222066117150462l2.49802177797028-.329546113587639c1.327953926439477-.175503358936112,2.571410597789509-.749459843962541,3.565913101358092-1.646465991594596l.640247560211719-.577849396491729c.301601456119897-.272342631096762.497902136669836-.64545463923605.519356542049536-1.051048902283583.26649706499029-4.965371380903889-2.776160383939896-8.890083221976965-4.707317222620077-10.471535112534184-.289904125020257-.237256836677261-.664305505109951-.332806736885686-1.038056000319557-.306151451375626l-.801450048520564.057203482494515c-1.227010980090199.087751679468056-2.405075417289481.515451232779014-3.402175261469893,1.235652251711144l-3.611090710859571,2.607804360872251c-1.518663195920453,1.097205938540355-3.381501917940113-.822247370128025-2.239775453680522-2.307504674503434l2.132007514460383-2.773563043334434c.8162716270499-1.061450662535208,1.290971267510031-2.346508176004136,1.361428005920061-3.683562092926877l.045369775500149-.861895557602111c.021386217449617-.405606660851845-.103868828849954-.808609782186977-.374791911020111-1.110855924285715-3.318583046319873-3.703063843677228-8.244495306310455-4.332264957658481-10.728411479130045-4.087222298050619-.373102709780142.036399961983989-.705382539860693.232706841430627-.95121555968035.516108316562168l-.527151663339282.606451137738986c-.806520751670178.928856114363953-1.338222410250637,2.063751386840522-1.535434329630334,3.277955432076851l-.514670170919999,3.168110860146044c-.295557525109871,1.819365811024909-2.912464975920557,1.819365811024909-3.207957412540054,0l-.514670170919999-3.168110860146044c-.197211919371512-1.214204045236329-.728913577960157-2.349099317712898-1.535502517570421-3.277955432076851l-.527086574849818-.606451137738986c-.245895008859407-.283401475131541-.578174838929954-.479708354578179-.951212460229726-.516108316562168-2.483984360759678-.245042659607861-7.409893521299637.384158454373392-10.728414578580669,4.087222298050619-.270985071208997.302246142098738-.396178128469728.705249263433871-.374856999509575,1.110855924285715l.045369775500149.861895557602111c.070459837859744,1.337053916922741.545221467359625,2.622111430391669,1.361496193860148,3.683562092926877l2.131939326520296,2.773563043334434c1.141729563709305,1.485257304375409-.72104716928061,3.40471061304379-2.239710365191058,2.307504674503434l-3.611087611408948-2.607804360872251c-.997102943631035-.72020101893213-2.17523246932069-1.147900572243088-3.40198154573045-1.235652251711144l-.801777040679553-.057203482494515Z" fill="url(#linear-gradient)" fill-rule="evenodd" stroke-width="0"/>
          <path d="M29.508297602210405,38.872566806621762c-.373945760680726-.02665528551006-.747762894110565.068894614698365-1.037859185130401.306151451375626-1.93148073140037,1.581451890557219-4.973685660370393,5.506163731630295-4.707509388641483,10.471535112534184.021710110161621.405594263047533.217685348261512.77870627118682.519156627411576,1.051048902283583l.640771367559864.577849396491729c.994504053300261.897006147632055,2.23795762519967,1.470962632658484,3.565781374660219,1.646465991594596l3.719442896729561.490097717021854c1.695011155480643.223594453129408,1.695011155480643,2.67671137337129,0,2.90030582649706l-3.719442896729561.490097717025492c-1.327823749460549.175503358936112-2.571277321359958.749459843962541-3.565781374660219,1.646465991596415l-.640771367559864.57784939648991c-.301471279150064.272355028906532-.497446517249955.646099325213072-.519156627411576,1.051048902283583-.266176271728909,4.96537138090207,2.776028657241113,8.890727907946712,4.707509388641483,10.471535112537822.290096291019836.237256836673623.663913424449674.332806736882048,1.037859185130401.30615145137017l.801777040679553-.057203482492696c1.22674907640976-.087739281660106,2.404878602099416-.515451232779014,3.40198154573045-1.235652251711144l3.611087611408948-2.607804360872251c1.518663195910449-1.097205938540355,3.381439928900363.822247370126206,2.239710365191058,2.307504674503434l-2.131939326520296,2.773563043334434c-.816274726500524,1.06210774632018-1.291036356000404,2.346508176004136-1.361496193860148,3.684206778903899l-.045369775500149.861250871625089c-.021321128960153.405606660850026.103871928300578.808609782186977.374856999509575,1.110855924285715,3.318521057281032,3.703063843677228,8.244430217820991,4.332922041437996,10.728414578580669,4.087222298050619.373037621299773-.036399961985808.70531745137032-.232706841430627.951212460229726-.515451232780833l.527086574849818-.60710822152214c.806588939610265-.928199030582618,1.33829059819891-2.063751386842341,1.535502517570421-3.277955432075032l.514670170919999-3.168110860149682c.295492436619497-1.819365811021271,2.912399887430183-1.819365811021271,3.207957412540054,0l.514670170919999,3.168110860149682c.197211919379697,1.214204045232691.728913577960157,2.349756401492414,1.535434329630334,3.277955432075032l.527151663339282.60710822152214c.245833019819656.282744391350207.578112849900208.479051270795026.95121555968035.515451232780833,2.48391617281959.245699743387377,7.409828432810173-.384158454373392,10.728411479130045-4.087222298050619.270923082170157-.302246142098738.396178128469728-.705249263435689.374791911020111-1.110855924285715l-.045369775500149-.861250871625089c-.07045673841003-1.337698602899764-.545156378870161-2.622099032583719-1.361428005920061-3.684206778903899l-2.132007514460383-2.773563043334434c-1.141726464259591-1.485257304377228.721112257760069-3.40471061304379,2.239775453680522-2.307504674503434l3.611090710859571,2.607804360872251c.997099844180411.72020101893213,2.175164281379693,1.147912970051038,3.402175261469893,1.235652251711144l.801450048520564.057203482492696c.373750495209606.026655285511879.7481518752993-.068894614696546,1.038056000319557-.30615145137017,1.931156838680181-1.58080720459111,4.973814287610367-5.506163731635752,4.707317222620077-10.471535112537822-.0214544053797-.404949577070511-.217755085929639-.778693873377051-.519356542049536-1.051048902283583l-.640247560211719-.57784939648991c-.994502503568583-.897006147633874-2.237959174918615-1.470962632660303-3.565913101358092-1.646465991596415l-2.49802177797028-.328889029806305c-1.883319899540766-.248960366687243-1.883319899540766-2.973762834244553,0-3.222066117150462l2.49802177797028-.329546113587639c1.327953926439477-.175503358936112,2.571410597789509-.749459843962541,3.565913101358092-1.646465991594596l.640247560211719-.577849396491729c.301601456119897-.272342631096762.497902136669836-.64545463923605.519356542049536-1.051048902283583.26649706499029-4.965371380903889-2.776160383939896-8.890083221976965-4.707317222620077-10.471535112534184-.289904125020257-.237256836677261-.664305505109951-.332806736885686-1.038056000319557-.306151451375626l-.801450048520564.057203482494515c-1.227010980090199.087751679468056-2.405075417289481.515451232779014-3.402175261469893,1.235652251711144l-3.611090710859571,2.607804360872251c-1.518663195920453,1.097205938540355-3.381501917940113-.822247370128025-2.239775453680522-2.307504674503434l2.132007514460383-2.773563043334434c.8162716270499-1.061450662535208,1.290971267510031-2.346508176004136,1.361428005920061-3.683562092926877l.045369775500149-.861895557602111c.021386217449617-.405606660851845-.103868828849954-.808609782186977-.374791911020111-1.110855924285715-3.318583046319873-3.703063843677228-8.244495306310455-4.332264957658481-10.728411479130045-4.087222298050619-.373102709780142.036399961983989-.705382539860693.232706841430627-.95121555968035.516108316562168l-.527151663339282.606451137738986c-.806520751670178.928856114363953-1.338222410250637,2.063751386840522-1.535434329630334,3.277955432076851l-.514670170919999,3.168110860146044c-.295557525109871,1.819365811024909-2.912464975920557,1.819365811024909-3.207957412540054,0l-.514670170919999-3.168110860146044c-.197211919371512-1.214204045236329-.728913577960157-2.349099317712898-1.535502517570421-3.277955432076851l-.527086574849818-.606451137738986c-.245895008859407-.283401475131541-.578174838929954-.479708354578179-.951212460229726-.516108316562168-2.483984360759678-.245042659607861-7.409893521299637.384158454373392-10.728414578580669,4.087222298050619-.270985071208997.302246142098738-.396178128469728.705249263433871-.374856999509575,1.110855924285715l.045369775500149.861895557602111c.070459837859744,1.337053916922741.545221467359625,2.622111430391669,1.361496193860148,3.683562092926877l2.131939326520296,2.773563043334434c1.141729563709305,1.485257304375409-.72104716928061,3.40471061304379-2.239710365191058,2.307504674503434l-3.611087611408948-2.607804360872251c-.997102943631035-.72020101893213-2.17523246932069-1.147900572243088-3.40198154573045-1.235652251711144l-.801777040679553-.057203482494515Z" fill="url(#linear-gradient-2)" fill-rule="evenodd" stroke-width="0"/>
          <path d="M52.947440050069417,56.726177860524331l-13.812545792109631,21.328518051392166,8.125026936540053,2.234060064558435,1.523473545120396-3.147964423424128,4.164045310449183-20.414613692526473Z" fill="#d23e27" stroke-width="0"/>
          <path d="M57.416204865169675,53.578213437092927l13.000043098460083,12.085494053615548,5.382669173960494-6.195171867611862-18.382712272420576-5.890322186003687Z" fill="#d23e27" stroke-width="0"/>
          <polygon points="50.611463811300382 54.593519461173855 27.353540111501388 59.773385304710246 28.978545498809581 64.343551785019372 50.611463811300382 54.593519461173855" fill="#febb12" opacity=".5" stroke-width="0"/>
          <polygon points="64.221274460929635 31.437192692046665 54.366784412390189 53.214213817260315 53.760268186169924 41.187225015892182 56.736433095559732 29.604189293087984 64.221274460929635 31.437192692046665" fill="#febb12" opacity=".5" stroke-width="0"/>
          <path d="M56.806111871559551,52.257413045426802l-30.46884946227965,12.49239008641598,4.87501616192003,4.468764815097529,25.59383330035962-16.96115490151351Z" fill="url(#linear-gradient-3)" stroke-width="0"/>
          <polygon points="55.99426006279009 57.335877223747957 29.587922519040148 45.859437847388108 26.845693383719663 51.140705356134276 55.99426006279009 57.335877223747957" fill="url(#linear-gradient-4)" opacity=".600000023841858" stroke-width="0"/>
          <polygon points="55.079903183959686 57.944931901001837 67.165846658080227 33.265646095755073 62.493956169580088 31.030941345223255 55.079903183959686 57.944931901001837" fill="url(#linear-gradient-5)" opacity=".600000023841858" stroke-width="0"/>
          <polygon points="53.501891684899419 60.407781099907879 48.684401348459687 32.021538539520407 45.533191798989719 36.312208853971242 53.501891684899419 60.407781099907879" fill="url(#linear-gradient-6)" opacity=".300000011920929" stroke-width="0"/>
          <path d="M78.744078230589366,49.413653617637465l-1.827808717729567-5.991723851213465-21.02353819280961,11.984092388403951,4.773484319729505,2.437508080958651,18.077862590809673-8.429876618149137Z" fill="url(#linear-gradient-7)" stroke-width="0"/>
          <path d="M55.480172588800087,58.249781582617288l18.535140212679835,16.554903554684643" fill="none" stroke="url(#radial-gradient)" stroke-linecap="round" stroke-width="11.700038275935"/>
          <path d="M55.480172588800087,58.249781582617288l18.535140212679835,16.554903554684643" fill="none" stroke="url(#linear-gradient-8)" stroke-linecap="round" stroke-width="11.700038275935"/>
          <path d="M204.479192416470141,120.609685663515847c0,43.751254169790627-35.467361731600249,79.218818915487645-79.219012631230726,79.218818915487645-43.751644700719226,0-79.219012631219812-35.467564745697018-79.219012631219812-79.218818915487645,0-43.751638501817069,35.467367930500586-79.219012631225269,79.219012631219812-79.219012631225269,43.751650899630476,0,79.219012631230726,35.467374129408199,79.219012631230726,79.219012631225269Z" fill="url(#radial-gradient-2)" stroke-width="0"/>
          <path d="M204.479192416470141,120.609685663515847c0,43.751254169790627-35.467361731600249,79.218818915487645-79.219012631230726,79.218818915487645-43.751644700719226,0-79.219012631219812-35.467564745697018-79.219012631219812-79.218818915487645,0-43.751638501817069,35.467367930500586-79.219012631225269,79.219012631219812-79.219012631225269,43.751650899630476,0,79.219012631230726,35.467374129408199,79.219012631230726,79.219012631225269Z" fill="url(#radial-gradient-3)" stroke-width="0"/>
          <path d="M204.479192416470141,120.609685663515847c0,43.751254169790627-35.467361731600249,79.218818915487645-79.219012631230726,79.218818915487645-43.751644700719226,0-79.219012631219812-35.467564745697018-79.219012631219812-79.218818915487645,0-43.751638501817069,35.467367930500586-79.219012631225269,79.219012631219812-79.219012631225269,43.751650899630476,0,79.219012631230726,35.467374129408199,79.219012631230726,79.219012631225269Z" fill="url(#radial-gradient-4)" stroke-width="0"/>
          <ellipse cx="117.846795108497417" cy="94.046329746400261" rx="32.707128049660248" ry="43.577573513566165" transform="translate(-32.870402915895596 98.157956649309099) rotate(-40.15389445855709)" fill="url(#radial-gradient-5)" stroke-width="0"/>
          <path d="M37.408357028470164,32.554545067316212l9.191421224689293-3.250010774618204c0,1.675700021010925-.203125673409886,4.519459448800262-2.996119180099413,5.78892052079209-2.547619205740375,1.15830233250017-5.585987013389968-1.574310753607278-6.19530204458988-2.538909746173886Z" fill="#ffd35d" stroke-width="0"/>
          <path d="M25.186888474489933,49.383105420660286l3.960071936980057-8.908940286750294c1.216804485289686,1.15246296530313,3.142046020199814,3.255217853646172,2.143382502589702,6.156180763924567-.9109133878801,2.646150778580704-4.983890605440138,2.973750436432965-6.103454439569759,2.752759522825727Z" fill="url(#linear-gradient-9)" stroke-width="0"/>
          <path d="M40.506008050760101,43.472636797936502l8.886701720060046,8.175721570240057" fill="none" stroke="url(#linear-gradient-10)" stroke-linecap="round" stroke-width=".650002153345795"/>
          <path d="M54.775506022309855,39.054566616541706l-1.062882609269764,10.445536910810915" fill="none" stroke="url(#linear-gradient-11)" stroke-linecap="round" stroke-width=".650002153345795"/>
        </g>
      </g>
      <g id="AC">
        <g>
          <path d="M111.33203125,100.7353515625c-1.0166015625,30.724609375-1.0166015625,61.5419921875,0,92.4501953125-.0927734375,1.1064453125-.3701171875,2.1689453125-.83056640625,3.1826171875-.46240234375.8310546875-1.130859375,1.615234375-2.0068359375,2.3525390625-.8779296875.740234375-2.099609375,1.1982421875-3.66748046875,1.384765625-2.12353515625.2763671875-4.31396484375.4365234375-6.57373046875.484375-2.26220703125.044921875-4.13037109375-.3935546875-5.60498046875-1.3154296875-5.81298828125,1.1982421875-11.7421875,1.5224609375-17.7841796875.96875-6.0439453125-.552734375-11.5107421875-2.443359375-16.400390625-5.673828125-4.2451171875-2.767578125-7.52099609375-6.2041015625-9.826171875-10.310546875-2.3076171875-4.1044921875-3.73681640625-8.4638671875-4.2900390625-13.0791015625-.5537109375-4.6123046875-.30078125-9.3173828125.7607421875-14.1162109375,1.0595703125-4.7958984375,2.83740234375-9.2255859375,5.328125-13.2861328125,2.02880859375-3.228515625,4.52001953125-6.0419921875,7.4736328125-8.4423828125,2.9521484375-2.3984375,6.1591796875-4.3359375,9.619140625-5.8125,3.4599609375-1.474609375,7.126953125-2.421875,11.00244140625-2.8369140625,3.875-.416015625,7.70263671875-.2080078125,11.48681640625.6220703125.18359375-3.7822265625.3916015625-7.265625.623046875-10.4482421875.22900390625-3.18359375.4365234375-5.9736328125.62255859375-8.3740234375.18408203125-2.767578125.36767578125-5.3037109375.5537109375-7.611328125-.09326171875-.830078125.04541015625-1.5673828125.4150390625-2.21484375.27685546875-.552734375.73779296875-1.0830078125,1.38427734375-1.5908203125.64453125-.5068359375,1.61328125-.76171875,2.90625-.76171875,1.1982421875,0,2.6513671875.0244140625,4.359375.0693359375,1.7060546875.0478515625,3.3212890625.2080078125,4.84375.484375,1.5224609375.27734375,2.83740234375.7158203125,3.9443359375,1.314453125,1.107421875.6015625,1.6611328125,1.453125,1.6611328125,2.560546875ZM89.1884765625,147.791015625c-3.5078125-1.291015625-6.6435546875-1.7060546875-9.4111328125-1.24609375-2.76806640625.462890625-5.12109375,1.453125-7.05859375,2.9755859375s-3.4384765625,3.4384765625-4.498046875,5.744140625c-1.0615234375,2.306640625-1.66015625,4.68359375-1.798828125,7.126953125-.138671875,2.4462890625.20751953125,4.822265625,1.0380859375,7.1279296875.830078125,2.306640625,2.14501953125,4.2451171875,3.9443359375,5.8125,1.798828125,1.5703125,4.1044921875,2.583984375,6.919921875,3.044921875,2.8134765625.462890625,6.2041015625.046875,10.171875-1.24609375,0-4.51953125.0693359375-9.1337890625.2080078125-13.83984375.13818359375-4.705078125.2978515625-9.87109375.484375-15.5Z" fill="none" stroke="#181818" stroke-linecap="round" stroke-linejoin="round" stroke-width="36.534084320068359"/>
          <path d="M164.0595703125,129.9375c4.51953125,2.2138671875,8.234375,5.0517578125,11.140625,8.51171875,2.90673828125,3.4599609375,4.982421875,7.2197265625,6.228515625,11.279296875,1.2451171875,4.060546875,1.7060546875,8.234375,1.3837890625,12.5244140625-.32421875,4.291015625-1.3837890625,8.4208984375-3.18359375,12.38671875-1.798828125,3.96875-4.3828125,7.6123046875-7.75,10.93359375-3.369140625,3.3212890625-7.404296875,5.9990234375-12.10986328125,8.02734375-4.89111328125,2.0302734375-10.33447265625,3.552734375-16.33056640625,4.5673828125-.09326171875.552734375-.1865234375,1.798828125-.27734375,3.736328125-.0927734375,1.6611328125-.13818359375,4.173828125-.13818359375,7.54296875v13.9091796875c-.09326171875,1.197265625-.36962890625,2.3046875-.83056640625,3.3212890625-.46240234375.830078125-1.154296875,1.61328125-2.07568359375,2.3525390625-.92333984375.7373046875-2.1689453125,1.1982421875-3.73681640625,1.3837890625-1.66064453125.18359375-3.390625.298828125-5.18994140625.3466796875-1.79931640625.044921875-3.4599609375-.138671875-4.98193359375-.5537109375-1.5224609375-.416015625-2.7919921875-1.1767578125-3.80615234375-2.2841796875-1.01611328125-1.1064453125-1.56982421875-2.767578125-1.66064453125-4.982421875-.09326171875-2.583984375-.138671875-6.2060546875-.138671875-10.8642578125,0-4.66015625.021484375-9.873046875.0693359375-15.638671875.04541015625-5.7646484375.0693359375-11.923828125.0693359375-18.4755859375,0-6.55078125-.02392578125-12.9404296875-.0693359375-19.1689453125-.0478515625-6.2275390625-.1171875-12.130859375-.2080078125-17.71484375-.0927734375-5.5810546875-.23095703125-10.35546875-.4150390625-14.32421875,0-1.474609375.505859375-2.6982421875,1.5224609375-3.6669921875,1.01416015625-.96875,2.443359375-1.63671875,4.29052734375-2.0068359375,1.29052734375-.18359375,2.76806640625-.4150390625,4.4287109375-.6923828125,1.66064453125-.2763671875,3.27392578125-.4150390625,4.84375-.4150390625,1.56787109375,0,2.90673828125.2314453125,4.013671875.6923828125,1.10693359375.462890625,1.75146484375,1.29296875,1.9375,2.4912109375.0908203125.462890625.13818359375.853515625.13818359375,1.17578125,0,.3251953125.0458984375.623046875.138671875.900390625,3.50537109375-.27734375,7.1962890625-.0458984375,11.07177734375.69140625,3.87548828125.7392578125,7.75048828125,2.076171875,11.62548828125,4.013671875ZM142.884765625,178.23828125c3.59814453125-.3671875,6.7119140625-1.4296875,9.341796875-3.18359375,2.62939453125-1.7509765625,4.658203125-3.8505859375,6.08935546875-6.296875,1.42919921875-2.443359375,2.23583984375-5.02734375,2.42236328125-7.75.18359375-2.720703125-.3466796875-5.2587890625-1.591796875-7.6123046875-1.24560546875-2.3525390625-3.23095703125-4.2900390625-5.951171875-5.8125-2.72265625-1.5224609375-6.251953125-2.3291015625-10.58740234375-2.421875,0,5.16796875.021484375,10.3583984375.06884765625,15.5703125.0458984375,5.212890625.115234375,10.7734375.2080078125,16.6767578125v.830078125Z" fill="none" stroke="#181818" stroke-linecap="round" stroke-linejoin="round" stroke-width="36.534084320068359"/>
          <path d="M214.2958984375,193.7392578125c-.18603515625,1.1064453125-.50830078125,2.123046875-.96875,3.0439453125-.462890625.740234375-1.130859375,1.453125-2.0068359375,2.1455078125-.8779296875.6923828125-2.099609375,1.12890625-3.66748046875,1.314453125-1.56982421875.1845703125-3.23095703125.322265625-4.982421875.416015625-1.75341796875.0908203125-3.369140625-.0478515625-4.84423828125-.416015625-1.4765625-.369140625-2.74609375-1.0830078125-3.8056640625-2.14453125-1.0615234375-1.0595703125-1.72998046875-2.6064453125-2.0068359375-4.63671875-.185546875-1.013671875-.2763671875-3.1142578125-.2763671875-6.296875,0-3.18359375.044921875-7.0107421875.13818359375-11.4873046875.0908203125-4.4736328125.20751953125-9.4111328125.34619140625-14.80859375.13818359375-5.3974609375.2978515625-10.8642578125.484375-16.3994140625.3671875-12.82421875.830078125-27.1259765625,1.3837890625-42.9033203125-.0927734375-.8310546875.04541015625-1.568359375.4150390625-2.21484375.27685546875-.5537109375.7138671875-1.0380859375,1.31494140625-1.453125.59912109375-.4150390625,1.5439453125-.66796875,2.83740234375-.7607421875,1.291015625,0,2.7890625-.0458984375,4.49755859375-.138671875,1.70654296875-.0908203125,3.32177734375-.0458984375,4.84423828125.138671875,1.5224609375.185546875,2.8369140625.552734375,3.9443359375,1.1064453125,1.10693359375.5537109375,1.7060546875,1.431640625,1.798828125,2.6298828125l.5537109375,92.865234375Z" fill="none" stroke="#181818" stroke-linecap="round" stroke-linejoin="round" stroke-width="36.534084320068359"/>
        </g>
        <g>
          <path d="M111.33203125,100.7353515625c-1.0166015625,30.724609375-1.0166015625,61.5419921875,0,92.4501953125-.0927734375,1.1064453125-.3701171875,2.1689453125-.83056640625,3.1826171875-.46240234375.8310546875-1.130859375,1.615234375-2.0068359375,2.3525390625-.8779296875.740234375-2.099609375,1.1982421875-3.66748046875,1.384765625-2.12353515625.2763671875-4.31396484375.4365234375-6.57373046875.484375-2.26220703125.044921875-4.13037109375-.3935546875-5.60498046875-1.3154296875-5.81298828125,1.1982421875-11.7421875,1.5224609375-17.7841796875.96875-6.0439453125-.552734375-11.5107421875-2.443359375-16.400390625-5.673828125-4.2451171875-2.767578125-7.52099609375-6.2041015625-9.826171875-10.310546875-2.3076171875-4.1044921875-3.73681640625-8.4638671875-4.2900390625-13.0791015625-.5537109375-4.6123046875-.30078125-9.3173828125.7607421875-14.1162109375,1.0595703125-4.7958984375,2.83740234375-9.2255859375,5.328125-13.2861328125,2.02880859375-3.228515625,4.52001953125-6.0419921875,7.4736328125-8.4423828125,2.9521484375-2.3984375,6.1591796875-4.3359375,9.619140625-5.8125,3.4599609375-1.474609375,7.126953125-2.421875,11.00244140625-2.8369140625,3.875-.416015625,7.70263671875-.2080078125,11.48681640625.6220703125.18359375-3.7822265625.3916015625-7.265625.623046875-10.4482421875.22900390625-3.18359375.4365234375-5.9736328125.62255859375-8.3740234375.18408203125-2.767578125.36767578125-5.3037109375.5537109375-7.611328125-.09326171875-.830078125.04541015625-1.5673828125.4150390625-2.21484375.27685546875-.552734375.73779296875-1.0830078125,1.38427734375-1.5908203125.64453125-.5068359375,1.61328125-.76171875,2.90625-.76171875,1.1982421875,0,2.6513671875.0244140625,4.359375.0693359375,1.7060546875.0478515625,3.3212890625.2080078125,4.84375.484375,1.5224609375.27734375,2.83740234375.7158203125,3.9443359375,1.314453125,1.107421875.6015625,1.6611328125,1.453125,1.6611328125,2.560546875ZM89.1884765625,147.791015625c-3.5078125-1.291015625-6.6435546875-1.7060546875-9.4111328125-1.24609375-2.76806640625.462890625-5.12109375,1.453125-7.05859375,2.9755859375s-3.4384765625,3.4384765625-4.498046875,5.744140625c-1.0615234375,2.306640625-1.66015625,4.68359375-1.798828125,7.126953125-.138671875,2.4462890625.20751953125,4.822265625,1.0380859375,7.1279296875.830078125,2.306640625,2.14501953125,4.2451171875,3.9443359375,5.8125,1.798828125,1.5703125,4.1044921875,2.583984375,6.919921875,3.044921875,2.8134765625.462890625,6.2041015625.046875,10.171875-1.24609375,0-4.51953125.0693359375-9.1337890625.2080078125-13.83984375.13818359375-4.705078125.2978515625-9.87109375.484375-15.5Z" fill="#fff" stroke-width="0"/>
          <path d="M164.0595703125,129.9375c4.51953125,2.2138671875,8.234375,5.0517578125,11.140625,8.51171875,2.90673828125,3.4599609375,4.982421875,7.2197265625,6.228515625,11.279296875,1.2451171875,4.060546875,1.7060546875,8.234375,1.3837890625,12.5244140625-.32421875,4.291015625-1.3837890625,8.4208984375-3.18359375,12.38671875-1.798828125,3.96875-4.3828125,7.6123046875-7.75,10.93359375-3.369140625,3.3212890625-7.404296875,5.9990234375-12.10986328125,8.02734375-4.89111328125,2.0302734375-10.33447265625,3.552734375-16.33056640625,4.5673828125-.09326171875.552734375-.1865234375,1.798828125-.27734375,3.736328125-.0927734375,1.6611328125-.13818359375,4.173828125-.13818359375,7.54296875v13.9091796875c-.09326171875,1.197265625-.36962890625,2.3046875-.83056640625,3.3212890625-.46240234375.830078125-1.154296875,1.61328125-2.07568359375,2.3525390625-.92333984375.7373046875-2.1689453125,1.1982421875-3.73681640625,1.3837890625-1.66064453125.18359375-3.390625.298828125-5.18994140625.3466796875-1.79931640625.044921875-3.4599609375-.138671875-4.98193359375-.5537109375-1.5224609375-.416015625-2.7919921875-1.1767578125-3.80615234375-2.2841796875-1.01611328125-1.1064453125-1.56982421875-2.767578125-1.66064453125-4.982421875-.09326171875-2.583984375-.138671875-6.2060546875-.138671875-10.8642578125,0-4.66015625.021484375-9.873046875.0693359375-15.638671875.04541015625-5.7646484375.0693359375-11.923828125.0693359375-18.4755859375,0-6.55078125-.02392578125-12.9404296875-.0693359375-19.1689453125-.0478515625-6.2275390625-.1171875-12.130859375-.2080078125-17.71484375-.0927734375-5.5810546875-.23095703125-10.35546875-.4150390625-14.32421875,0-1.474609375.505859375-2.6982421875,1.5224609375-3.6669921875,1.01416015625-.96875,2.443359375-1.63671875,4.29052734375-2.0068359375,1.29052734375-.18359375,2.76806640625-.4150390625,4.4287109375-.6923828125,1.66064453125-.2763671875,3.27392578125-.4150390625,4.84375-.4150390625,1.56787109375,0,2.90673828125.2314453125,4.013671875.6923828125,1.10693359375.462890625,1.75146484375,1.29296875,1.9375,2.4912109375.0908203125.462890625.13818359375.853515625.13818359375,1.17578125,0,.3251953125.0458984375.623046875.138671875.900390625,3.50537109375-.27734375,7.1962890625-.0458984375,11.07177734375.69140625,3.87548828125.7392578125,7.75048828125,2.076171875,11.62548828125,4.013671875ZM142.884765625,178.23828125c3.59814453125-.3671875,6.7119140625-1.4296875,9.341796875-3.18359375,2.62939453125-1.7509765625,4.658203125-3.8505859375,6.08935546875-6.296875,1.42919921875-2.443359375,2.23583984375-5.02734375,2.42236328125-7.75.18359375-2.720703125-.3466796875-5.2587890625-1.591796875-7.6123046875-1.24560546875-2.3525390625-3.23095703125-4.2900390625-5.951171875-5.8125-2.72265625-1.5224609375-6.251953125-2.3291015625-10.58740234375-2.421875,0,5.16796875.021484375,10.3583984375.06884765625,15.5703125.0458984375,5.212890625.115234375,10.7734375.2080078125,16.6767578125v.830078125Z" fill="#fff" stroke-width="0"/>
          <path d="M214.2958984375,193.7392578125c-.18603515625,1.1064453125-.50830078125,2.123046875-.96875,3.0439453125-.462890625.740234375-1.130859375,1.453125-2.0068359375,2.1455078125-.8779296875.6923828125-2.099609375,1.12890625-3.66748046875,1.314453125-1.56982421875.1845703125-3.23095703125.322265625-4.982421875.416015625-1.75341796875.0908203125-3.369140625-.0478515625-4.84423828125-.416015625-1.4765625-.369140625-2.74609375-1.0830078125-3.8056640625-2.14453125-1.0615234375-1.0595703125-1.72998046875-2.6064453125-2.0068359375-4.63671875-.185546875-1.013671875-.2763671875-3.1142578125-.2763671875-6.296875,0-3.18359375.044921875-7.0107421875.13818359375-11.4873046875.0908203125-4.4736328125.20751953125-9.4111328125.34619140625-14.80859375.13818359375-5.3974609375.2978515625-10.8642578125.484375-16.3994140625.3671875-12.82421875.830078125-27.1259765625,1.3837890625-42.9033203125-.0927734375-.8310546875.04541015625-1.568359375.4150390625-2.21484375.27685546875-.5537109375.7138671875-1.0380859375,1.31494140625-1.453125.59912109375-.4150390625,1.5439453125-.66796875,2.83740234375-.7607421875,1.291015625,0,2.7890625-.0458984375,4.49755859375-.138671875,1.70654296875-.0908203125,3.32177734375-.0458984375,4.84423828125.138671875,1.5224609375.185546875,2.8369140625.552734375,3.9443359375,1.1064453125,1.10693359375.5537109375,1.7060546875,1.431640625,1.798828125,2.6298828125l.5537109375,92.865234375Z" fill="#fff" stroke-width="0"/>
        </g>
      </g>
    </g>
  </a>
</svg>