<?xml version="1.0" encoding="UTF-8"?>
<svg id="Pattern" xmlns="http://www.w3.org/2000/svg" width="280" height="280" xmlns:xlink="http://www.w3.org/1999/xlink" viewBox="0 0 280 280">
  <defs>
    <linearGradient id="linear-gradient" x1="569.682897221524399" y1="-5835.388390321513725" x2="524.265282721509948" y2="-5861.396768773880467" gradientTransform="translate(-5805.868657065451771 -379.457853433772016) rotate(-80.433590980962848) scale(1 -1)" gradientUnits="userSpaceOnUse">
      <stop offset="0" stop-color="#ffc810"/>
      <stop offset=".755599975585938" stop-color="#ef4e26"/>
    </linearGradient>
    <linearGradient id="linear-gradient-2" x1="528.142975946149818" y1="-5865.121452934776244" x2="545.22310365137389" y2="-5849.981999516818178" gradientTransform="translate(-5805.868657065451771 -379.457853433772016) rotate(-80.433590980962848) scale(1 -1)" gradientUnits="userSpaceOnUse">
      <stop offset="0" stop-color="#d23e27"/>
      <stop offset="1" stop-color="#d23e27" stop-opacity="0"/>
    </linearGradient>
    <linearGradient id="linear-gradient-3" x1="528.681893127069998" y1="-5837.600872440852982" x2="546.227848297607238" y2="-5838.200851144757507" xlink:href="#linear-gradient-2"/>
    <linearGradient id="linear-gradient-4" x1="542.707202267747562" y1="-5826.911412238228877" x2="551.819924085920661" y2="-5841.917577829730362" xlink:href="#linear-gradient-2"/>
    <linearGradient id="linear-gradient-5" x1="567.282997560754666" y1="-5851.049518669533427" x2="551.620830788434546" y2="-5858.981902720901417" xlink:href="#linear-gradient-2"/>
    <linearGradient id="linear-gradient-6" x1="561.829013162017873" y1="-5833.711764456676974" x2="554.241083563686743" y2="-5849.543926674120485" xlink:href="#linear-gradient-2"/>
    <linearGradient id="linear-gradient-7" x1="557.060624555117101" y1="-5876.117565137188649" x2="547.647299088727664" y2="-5859.425930432743371" xlink:href="#linear-gradient-2"/>
    <radialGradient id="radial-gradient" cx="-6511.118512077934611" cy="5168.383776880507867" fx="-6511.118512077934611" fy="5168.383776880507867" r="6.210955988662949" gradientTransform="translate(3184.902102729649414 24531.810929158629733) rotate(56.245409573475136) scale(3.393360063220488 -2.127890109186668)" gradientUnits="userSpaceOnUse">
      <stop offset="0" stop-color="#e1dfe1"/>
      <stop offset=".394388008117676" stop-color="#c2bec5"/>
    </radialGradient>
    <linearGradient id="linear-gradient-8" x1="531.714640175425302" y1="-5856.815158442745997" x2="533.267379236426791" y2="-5858.076788528164798" gradientTransform="translate(-5805.868657065451771 -379.457853433772016) rotate(-80.433590980962848) scale(1 -1)" gradientUnits="userSpaceOnUse">
      <stop offset="0" stop-color="#a3a1a8"/>
      <stop offset="1" stop-color="#b8b6bd" stop-opacity="0"/>
    </linearGradient>
    <radialGradient id="radial-gradient-2" cx="-6796.110520868594904" cy="631.574386459615198" fx="-6796.110520868594904" fy="631.574386459615198" r="6.210955543664574" gradientTransform="translate(-141594.614603202324361 28008.315261957439361) rotate(160.180407450538041) scale(21.01659895105573 -34.567501017196157)" gradientUnits="userSpaceOnUse">
      <stop offset=".00558659017086" stop-color="#5c266f"/>
      <stop offset="1" stop-color="#2e265b"/>
    </radialGradient>
    <radialGradient id="radial-gradient-3" cx="-6774.89573305122849" cy="681.331777210100881" fx="-6774.89573305122849" fy="681.331777210100881" r="6.210955543663724" gradientTransform="translate(-141248.640218005661154 66984.768728936702246) rotate(148.101412832607082) scale(22.936198784939169 -26.321800119514716)" gradientUnits="userSpaceOnUse">
      <stop offset=".71875" stop-color="#29233a" stop-opacity="0"/>
      <stop offset="1" stop-color="#29233a"/>
    </radialGradient>
    <radialGradient id="radial-gradient-4" cx="-5913.894897005973689" cy="938.573085505879135" fx="-5913.894897005973689" fy="938.573085505879135" r="6.210955543666521" gradientTransform="translate(115816.962855055258842 -10422.128274547652836) rotate(-12.883694237535614) scale(19.47600025943003 -16.532499694880062)" gradientUnits="userSpaceOnUse">
      <stop offset=".809844970703125" stop-color="#672b80" stop-opacity="0"/>
      <stop offset="1" stop-color="#672b80"/>
    </radialGradient>
    <radialGradient id="radial-gradient-5" cx="-6454.273450814672287" cy="2058.346043787705639" fx="-6454.273450814672287" fy="2058.346043787705639" r="6.210955543668963" gradientTransform="translate(-17744.294853662227979 92477.037855993345147) rotate(92.148493896121096) scale(14.411199570559607 -6.984130141550685)" gradientUnits="userSpaceOnUse">
      <stop offset="0" stop-color="#67568f"/>
      <stop offset=".727772979736328" stop-color="#67568f" stop-opacity="0"/>
    </radialGradient>
    <linearGradient id="linear-gradient-9" x1="560.461170286604101" y1="-5827.562939345972154" x2="550.803132510963337" y2="-5824.457462429943917" gradientTransform="translate(-5805.868657065451771 -379.457853433772016) rotate(-80.433590980962848) scale(1 -1)" gradientUnits="userSpaceOnUse">
      <stop offset="0" stop-color="#ffd35d"/>
      <stop offset="1" stop-color="#ffd35d" stop-opacity="0"/>
    </linearGradient>
    <linearGradient id="linear-gradient-10" x1="557.352945132131936" y1="-5836.654427977540763" x2="552.937580888762795" y2="-5842.96240061343542" gradientTransform="translate(-5805.868657065451771 -379.457853433772016) rotate(-80.433590980962848) scale(1 -1)" gradientUnits="userSpaceOnUse">
      <stop offset="0" stop-color="#febb12"/>
      <stop offset="1" stop-color="#febb12" stop-opacity="0"/>
    </linearGradient>
    <linearGradient id="linear-gradient-11" x1="563.690729155074223" y1="-5849.735396090609356" x2="556.012743759911473" y2="-5850.310097705226326" xlink:href="#linear-gradient-10"/>
  </defs>
  <a xlink:href="https://www.notion.so/dmmnotes/delusionally-repaired-d36b468dd5e848eeaed44876d511bdcc?pvs=4">
    <g>
      <g>
        <g>
          <path d="M33.150975218330132,34.311230066501594c-.348113995540189-.084498239672939-.715512964510708-.053829374232009-1.026529809760177.123656371687503-2.071053832100006,1.183389123113557-5.560786467360231,4.398309855738262-6.098484872960398,9.119152788910469-.043952182559224.385614917211569.081453480430355.768297022141269.322263956149982,1.072782896447279l.511998327589026.646227551250377c.794617541261687,1.003122693021396,1.875105663200884,1.741388058908342,3.098365102530806,2.117612715313044l3.426782382759484,1.052437092228502c1.561601434919794.479847357793915,1.172046714009412,2.79127354800039-.460568274369507,2.732785702816727l-3.582437319370001-.128857225699903c-1.278999270920394-.04549190007674-2.541775857389439.297852860794592-3.621282371199413.985121265978705l-.695523180011151.442718693440838c-.327308409499892.208750338239042-.571314778730084.529786514397529-.65607687668853.907898855717576-1.039302548981141,4.636305402662401,1.203840016738468,8.8180372597526,2.772727421688614,10.614256826475867.235664121510126.269620269755251.572716461339951.419013381788318.929296170219459.453280240697495l.764550732061252.073422673913228c1.1698256906202.112136122932498,2.347827695750311-.103784562600595,3.401706352678957-.624047305860586l3.816632180401939-1.883738615927541c1.60518220954873-.792668343248806,3.055556955168868,1.311727120439173,1.743914373519146,2.529890211784732l-2.449241176780561,2.274811764242259c-.937789735549813.871136622462473-1.589092044980134,2.005958666549304-1.867908564010577,3.255203493647969l-.179515793410246.804300763040374c-.084499928938385.378793242468419-.030534811397956.778399762557456.176801649000481,1.106220730193854,2.538798877079898,4.016157654476956,7.080168722890448,5.391869458016117,9.459696561250894,5.554817668630676.35727147678881.024940817331299.7015325131797-.107261477361135.978124537950862-.334626600136289l.593051058998753-.488340677964516c.907398703950093-.746500504992582,1.588715157500701-1.732029790384331,1.96735170177999-2.844784822026668l.988038782139483-2.903392888475537c.567340058780246-1.667356039059996,3.033096325531005-1.251791398331989,3.022667496690701.509423315368622l-.018152591559556,3.066852031530289c-.006994416929956,1.175389497672768.313670836048914,2.329787123180722.92620946462921,3.33244928536169l.400294938630395.65575360445655c.186734054210319.305451484409787.468648065070738.543185786481445.814420250249896.636731978895114,2.301429399709377.625953895867497,7.042845003199545.814710345827734,10.757794622830261-2.147475842661152.303271365930414-.241766007229671.485288602540095-.601601393592318.529547938718679-.987176558386636l.094017310661002-.818710194639607c.14603920935042-1.271622365275107-.097279372659614-2.557218763805395-.697740980600429-3.68760358347663l-1.568422360000113-2.951926094944611c-.839922239279986-1.580775679567523,1.220128900740747-3.093543782657434,2.476838724300251-1.818548313010069l2.988396958910016,3.030619809158452c.825140037341043.836941945957733,1.867239483590311,1.427025996486009,3.009445972209505,1.704546724427928l.74607481223029.181169627056988c.347930008510957.084467231537019.715879478360876.053891144409135,1.026715256999523-.12362511745232,2.07064627120053-1.182833107992337,5.56090766518173-4.398289429746001,6.098303806360491-9.119183304855142.044090741899709-.384966862061447-.081521158848773-.768296414756151-.322452323829566-1.07281464287189l-.511504775069625-.646144370692127c-.794616081040658-1.003122446928501-1.875107123420094-1.741388305008513-3.098489220770716-2.117633633503829l-2.301509822269509-.706578181981058c-1.735005461439869-.53365155933443-1.302307102869236-3.101070883981265.511663776249407-3.035961290023806l2.406069257000127.086173902659539c1.27912192895019.045512572167354,2.541901435850377-.297831696512731,3.621406489441142-.985100347787011l.69502962748993-.442801874001816c.327429098748325-.208717984429313.571641705750153-.529106712819157.656265244369933-.907867109291146,1.039604813389815-4.636254460724558-1.204066511039855-8.817450728686708-2.772546355090526-10.614226310528466-.235483054899305-.269589753816945-.573085895619442-.419075644162149-.929481617460624-.453311494936315l-.764242626788473-.073370747588342c-1.170074435651259-.112166031492052-2.348013143000571.103753308369051-3.401888879499893.62401654381938l-3.816635100831263,1.883738123737203c-1.60518220954873.792668343247897-3.055615363749894-1.311736964293232-1.743975702529497-2.529900547830948l2.449305426220235-2.274800936004794c.937682470288564-.870517983679747,1.589030715969784-2.00596900259643,1.867741938498511-3.254606872626027l.179618169480818-.80490821229796c.084561257950554-.378782906424021.030537731829099-.778399270365298-.176740319990131-1.106210394149457-2.538857285659105-4.016167498331015-7.080334396729086-5.391260663091998-9.459693640819751-5.554817176439428-.35733280579916-.024951153375696-.70159384219005.107251141317647-.978231803219387.335245238916286l-.593008043169903.487711210946145c-.907438799340525.747130464202201-1.588650908061027,1.732040618623614-1.967287452351229,2.844795650264132l-.988038782119474,2.903392888477356c-.567401387799691,1.667345703016508-3.03315765455045,1.251781062286682-3.022667496699796-.50942331537135l.018152591559556-3.066852031526651c.006994416929956-1.175389497675496-.313775180889934-2.329167992209477-.926273714070703-3.332460113600973l-.400337954459246-.655124137437269c-.18668811795942-.306080459235091-.468602128810744-.543814761308568-.814312984970456-.63735061767602-2.301597993988253-.625345593131897-7.042906332229904-.814720681871222-10.75779754326868,2.147475350468994-.303329774509621.241756163373793-.485288602540095.601601393592318-.529609267730848.98716622234133l-.094119686729755.819317643894465c-.145933912850523,1.271015408212406.097338732899516,2.557240781570727.697907606108856,3.687006962459236l1.568358110560439,2.951915266705328c.839925159711129,1.580776171761499-1.220067571730397,3.09355411870547-2.476777395289901,1.818558649058104l-2.988394038478873-3.030619316967204c-.825142957770368-.8369424381508-1.867305701800433-1.427025143005267-3.009263445390388-1.704515962389451l-.746382917499432-.181221553380055Z" fill="none" stroke="#181818" stroke-linecap="round" stroke-linejoin="round" stroke-width="33.7916605162143"/>
          <path d="M33.150975218330132,34.311230066501594c-.348113995540189-.084498239672939-.715512964510708-.053829374232009-1.026529809760177.123656371687503-2.071053832100006,1.183389123113557-5.560786467360231,4.398309855738262-6.098484872960398,9.119152788910469-.043952182559224.385614917211569.081453480430355.768297022141269.322263956149982,1.072782896447279l.511998327589026.646227551250377c.794617541261687,1.003122693021396,1.875105663200884,1.741388058908342,3.098365102530806,2.117612715313044l3.426782382759484,1.052437092228502c1.561601434919794.479847357793915,1.172046714009412,2.79127354800039-.460568274369507,2.732785702816727l-3.582437319370001-.128857225699903c-1.278999270920394-.04549190007674-2.541775857389439.297852860794592-3.621282371199413.985121265978705l-.695523180011151.442718693440838c-.327308409499892.208750338239042-.571314778730084.529786514397529-.65607687668853.907898855717576-1.039302548981141,4.636305402662401,1.203840016738468,8.8180372597526,2.772727421688614,10.614256826475867.235664121510126.269620269755251.572716461339951.419013381788318.929296170219459.453280240697495l.764550732061252.073422673913228c1.1698256906202.112136122932498,2.347827695750311-.103784562600595,3.401706352678957-.624047305860586l3.816632180401939-1.883738615927541c1.60518220954873-.792668343248806,3.055556955168868,1.311727120439173,1.743914373519146,2.529890211784732l-2.449241176780561,2.274811764242259c-.937789735549813.871136622462473-1.589092044980134,2.005958666549304-1.867908564010577,3.255203493647969l-.179515793410246.804300763040374c-.084499928938385.378793242468419-.030534811397956.778399762557456.176801649000481,1.106220730193854,2.538798877079898,4.016157654476956,7.080168722890448,5.391869458016117,9.459696561250894,5.554817668630676.35727147678881.024940817331299.7015325131797-.107261477361135.978124537950862-.334626600136289l.593051058998753-.488340677964516c.907398703950093-.746500504992582,1.588715157500701-1.732029790384331,1.96735170177999-2.844784822026668l.988038782139483-2.903392888475537c.567340058780246-1.667356039059996,3.033096325531005-1.251791398331989,3.022667496690701.509423315368622l-.018152591559556,3.066852031530289c-.006994416929956,1.175389497672768.313670836048914,2.329787123180722.92620946462921,3.33244928536169l.400294938630395.65575360445655c.186734054210319.305451484409787.468648065070738.543185786481445.814420250249896.636731978895114,2.301429399709377.625953895867497,7.042845003199545.814710345827734,10.757794622830261-2.147475842661152.303271365930414-.241766007229671.485288602540095-.601601393592318.529547938718679-.987176558386636l.094017310661002-.818710194639607c.14603920935042-1.271622365275107-.097279372659614-2.557218763805395-.697740980600429-3.68760358347663l-1.568422360000113-2.951926094944611c-.839922239279986-1.580775679567523,1.220128900740747-3.093543782657434,2.476838724300251-1.818548313010069l2.988396958910016,3.030619809158452c.825140037341043.836941945957733,1.867239483590311,1.427025996486009,3.009445972209505,1.704546724427928l.74607481223029.181169627056988c.347930008510957.084467231537019.715879478360876.053891144409135,1.026715256999523-.12362511745232,2.07064627120053-1.182833107992337,5.56090766518173-4.398289429746001,6.098303806360491-9.119183304855142.044090741899709-.384966862061447-.081521158848773-.768296414756151-.322452323829566-1.07281464287189l-.511504775069625-.646144370692127c-.794616081040658-1.003122446928501-1.875107123420094-1.741388305008513-3.098489220770716-2.117633633503829l-2.301509822269509-.706578181981058c-1.735005461439869-.53365155933443-1.302307102869236-3.101070883981265.511663776249407-3.035961290023806l2.406069257000127.086173902659539c1.27912192895019.045512572167354,2.541901435850377-.297831696512731,3.621406489441142-.985100347787011l.69502962748993-.442801874001816c.327429098748325-.208717984429313.571641705750153-.529106712819157.656265244369933-.907867109291146,1.039604813389815-4.636254460724558-1.204066511039855-8.817450728686708-2.772546355090526-10.614226310528466-.235483054899305-.269589753816945-.573085895619442-.419075644162149-.929481617460624-.453311494936315l-.764242626788473-.073370747588342c-1.170074435651259-.112166031492052-2.348013143000571.103753308369051-3.401888879499893.62401654381938l-3.816635100831263,1.883738123737203c-1.60518220954873.792668343247897-3.055615363749894-1.311736964293232-1.743975702529497-2.529900547830948l2.449305426220235-2.274800936004794c.937682470288564-.870517983679747,1.589030715969784-2.00596900259643,1.867741938498511-3.254606872626027l.179618169480818-.80490821229796c.084561257950554-.378782906424021.030537731829099-.778399270365298-.176740319990131-1.106210394149457-2.538857285659105-4.016167498331015-7.080334396729086-5.391260663091998-9.459693640819751-5.554817176439428-.35733280579916-.024951153375696-.70159384219005.107251141317647-.978231803219387.335245238916286l-.593008043169903.487711210946145c-.907438799340525.747130464202201-1.588650908061027,1.732040618623614-1.967287452351229,2.844795650264132l-.988038782119474,2.903392888477356c-.567401387799691,1.667345703016508-3.03315765455045,1.251781062286682-3.022667496699796-.50942331537135l.018152591559556-3.066852031526651c.006994416929956-1.175389497675496-.313775180889934-2.329167992209477-.926273714070703-3.332460113600973l-.400337954459246-.655124137437269c-.18668811795942-.306080459235091-.468602128810744-.543814761308568-.814312984970456-.63735061767602-2.301597993988253-.625345593131897-7.042906332229904-.814720681871222-10.75779754326868,2.147475350468994-.303329774509621.241756163373793-.485288602540095.601601393592318-.529609267730848.98716622234133l-.094119686729755.819317643894465c-.145933912850523,1.271015408212406.097338732899516,2.557240781570727.697907606108856,3.687006962459236l1.568358110560439,2.951915266705328c.839925159711129,1.580776171761499-1.220067571730397,3.09355411870547-2.476777395289901,1.818558649058104l-2.988394038478873-3.030619316967204c-.825142957770368-.8369424381508-1.867305701800433-1.427025143005267-3.009263445390388-1.704515962389451l-.746382917499432-.181221553380055Z" fill="none" stroke="#181818" stroke-linecap="round" stroke-linejoin="round" stroke-width="33.7916605162143"/>
          <path d="M52.401133606268559,54.855759501006105l-16.401707012839324,17.90316329356574,7.300961183111212,3.39527540475865,1.935374957249223-2.724212224590701,7.165370872478888-18.574226473733688Z" fill="none" stroke="#181818" stroke-linecap="round" stroke-linejoin="round" stroke-width="33.7916605162143"/>
          <path d="M57.111681374510226,52.599259234689271l10.329992272068921,13.451847877996443,6.055561733381182-4.982574706898959-16.385554005450103-8.469273171097484Z" fill="none" stroke="#181818" stroke-linecap="round" stroke-linejoin="round" stroke-width="33.7916605162143"/>
          <g>
            <polygon points="50.53874805392843 52.475329525344932 27.80162749424926 53.66265311879306 28.607031454999742 58.226899903735102 50.53874805392843 52.475329525344932" fill="none" stroke="#181818" stroke-linecap="round" stroke-linejoin="round" stroke-width="33.7916605162143"/>
            <polygon points="50.53874805392843 52.475329525344932 27.80162749424926 53.66265311879306 28.607031454999742 58.226899903735102 50.53874805392843 52.475329525344932" fill="none" stroke="#181818" stroke-linecap="round" stroke-linejoin="round" stroke-width="33.7916605162143"/>
          </g>
          <g>
            <polygon points="67.039685639469099 32.817736454218903 54.296196930128644 51.772036377449695 55.634597374319128 40.343405343724953 60.278245490779227 29.902014299623261 67.039685639469099 32.817736454218903" fill="none" stroke="#181818" stroke-linecap="round" stroke-linejoin="round" stroke-width="33.7916605162143"/>
            <polygon points="67.039685639469099 32.817736454218903 54.296196930128644 51.772036377449695 55.634597374319128 40.343405343724953 60.278245490779227 29.902014299623261 67.039685639469099 32.817736454218903" fill="none" stroke="#181818" stroke-linecap="round" stroke-linejoin="round" stroke-width="33.7916605162143"/>
          </g>
          <path d="M56.746569997809274,51.257864865740885l-30.692775197459923,6.932386033146031,3.883798413929981,4.984803411093708,26.808976783529943-11.917189444239739Z" fill="none" stroke="#181818" stroke-linecap="round" stroke-linejoin="round" stroke-width="33.7916605162143"/>
          <g>
            <polygon points="55.175150716018834 55.914077665367586 32.116486621740478 40.907187576705837 28.693982433689598 45.447946168289491 55.175150716018834 55.914077665367586" fill="none" stroke="#181818" stroke-linecap="round" stroke-linejoin="round" stroke-width="33.7916605162143"/>
            <polygon points="55.175150716018834 55.914077665367586 32.116486621740478 40.907187576705837 28.693982433689598 45.447946168289491 55.175150716018834 55.914077665367586" fill="none" stroke="#181818" stroke-linecap="round" stroke-linejoin="round" stroke-width="33.7916605162143"/>
          </g>
          <g>
            <polygon points="54.216888783070317 56.342753887386607 69.523822693769034 35.008177130325748 65.47664900808013 32.160651997930472 54.216888783070317 56.342753887386607" fill="none" stroke="#181818" stroke-linecap="round" stroke-linejoin="round" stroke-width="33.7916605162143"/>
            <polygon points="54.216888783070317 56.342753887386607 69.523822693769034 35.008177130325748 65.47664900808013 32.160651997930472 54.216888783070317 56.342753887386607" fill="none" stroke="#181818" stroke-linecap="round" stroke-linejoin="round" stroke-width="33.7916605162143"/>
          </g>
          <g>
            <polygon points="52.338922184069816 58.412762157227007 52.307420001659921 30.901076903985995 48.656864626009337 34.443508620185639 52.338922184069816 58.412762157227007" fill="none" stroke="#181818" stroke-linecap="round" stroke-linejoin="round" stroke-width="33.7916605162143"/>
            <polygon points="52.338922184069816 58.412762157227007 52.307420001659921 30.901076903985995 48.656864626009337 34.443508620185639 52.338922184069816 58.412762157227007" fill="none" stroke="#181818" stroke-linecap="round" stroke-linejoin="round" stroke-width="33.7916605162143"/>
          </g>
          <path d="M77.86899978693873,52.062106329250128l-.770750310630319-5.935900905875314-21.712302465388348,7.953361822410443,4.110694362658251,3.054747740408857,18.372358413360416-5.072208656943985Z" fill="none" stroke="#181818" stroke-linecap="round" stroke-linejoin="round" stroke-width="33.7916605162143"/>
          <path d="M54.545628740879692,56.693558354696506l14.835643337110014,18.542079527367605" fill="none" stroke="#181818" stroke-linecap="round" stroke-linejoin="round" stroke-width="33.7916605162143"/>
          <path d="M54.545628740879692,56.693558354696506l14.835643337110014,18.542079527367605" fill="none" stroke="#181818" stroke-linecap="round" stroke-linejoin="round" stroke-width="33.7916605162143"/>
          <path d="M185.035797828930299,139.112616911002078c-6.947694774169577,41.224204972858388-45.998726259480463,69.010968536035762-87.223305047269605,62.063210761208211-41.224572946932312-6.947756790441417-69.011118824240839-45.998948309629668-62.063424050071262-87.223153282485328,6.947755806058922-41.224567106070936,45.998762862380318-69.011150078469655,87.223335809310811-62.063393288028237,41.224578787780047,6.947757774827551,69.011149094079883,45.998768703234418,62.063393288030056,87.223335809305354Z" fill="none" stroke="#181818" stroke-linecap="round" stroke-linejoin="round" stroke-width="33.7916605162143"/>
          <path d="M185.035797828930299,139.112616911002078c-6.947694774169577,41.224204972858388-45.998726259480463,69.010968536035762-87.223305047269605,62.063210761208211-41.224572946932312-6.947756790441417-69.011118824240839-45.998948309629668-62.063424050071262-87.223153282485328,6.947755806058922-41.224567106070936,45.998762862380318-69.011150078469655,87.223335809310811-62.063393288028237,41.224578787780047,6.947757774827551,69.011149094079883,45.998768703234418,62.063393288030056,87.223335809305354Z" fill="none" stroke="#181818" stroke-linecap="round" stroke-linejoin="round" stroke-width="33.7916605162143"/>
          <path d="M185.035797828930299,139.112616911002078c-6.947694774169577,41.224204972858388-45.998726259480463,69.010968536035762-87.223305047269605,62.063210761208211-41.224572946932312-6.947756790441417-69.011118824240839-45.998948309629668-62.063424050071262-87.223153282485328,6.947755806058922-41.224567106070936,45.998762862380318-69.011150078469655,87.223335809310811-62.063393288028237,41.224578787780047,6.947757774827551,69.011149094079883,45.998768703234418,62.063393288030056,87.223335809305354Z" fill="none" stroke="#181818" stroke-linecap="round" stroke-linejoin="round" stroke-width="33.7916605162143"/>
          <ellipse cx="107.625500019392348" cy="100.32633031544492" rx="31.252591508950218" ry="41.639611460323842" transform="translate(-36.075649452487255 68.725690299006899) rotate(-30.587485439508484)" fill="none" stroke="#181818" stroke-linecap="round" stroke-linejoin="round" stroke-width="33.7916605162143"/>
          <path d="M41.598032627769499,29.612662550815912l9.176631002979775-1.602695110286732c-.266100995278975,1.578912478054917-.909082949630829,4.226161535544634-3.742344926140504,4.978772121708971-2.584408368129516.686837730789193-5.013342981399546-2.370433578354096-5.434286076839271-3.37607701142224Z" fill="none" stroke="#181818" stroke-linecap="round" stroke-linejoin="round" stroke-width="33.7916605162143"/>
          <path d="M27.410095908218864,43.528446218100726l5.146079109801576-7.765505602456869c.963511501369794,1.279125746927093,2.443634842678875,3.566154792712041,1.041980980078733,6.140971960062416-1.278507992790765,2.348657560807624-5.168255002939986,2.010546862815318-6.18806008988031,1.624533642394454Z" fill="none" stroke="#181818" stroke-linecap="round" stroke-linejoin="round" stroke-width="33.7916605162143"/>
          <path d="M42.782973100918753,40.392037775241988l7.075106784599484,9.114703577753062" fill="none" stroke="#181818" stroke-linecap="round" stroke-linejoin="round" stroke-width="33.7916605162143"/>
          <path d="M56.929861552340299,38.495147827052278l-2.6602412882512,9.673422596535602" fill="none" stroke="#181818" stroke-linecap="round" stroke-linejoin="round" stroke-width="33.7916605162143"/>
        </g>
        <g>
          <path d="M33.150975218330132,34.311230066501594c-.348113995540189-.084498239672939-.715512964510708-.053829374232009-1.026529809760177.123656371687503-2.071053832100006,1.183389123113557-5.560786467360231,4.398309855738262-6.098484872960398,9.119152788910469-.043952182559224.385614917211569.081453480430355.768297022141269.322263956149982,1.072782896447279l.511998327589026.646227551250377c.794617541261687,1.003122693021396,1.875105663200884,1.741388058908342,3.098365102530806,2.117612715313044l3.426782382759484,1.052437092228502c1.561601434919794.479847357793915,1.172046714009412,2.79127354800039-.460568274369507,2.732785702816727l-3.582437319370001-.128857225699903c-1.278999270920394-.04549190007674-2.541775857389439.297852860794592-3.621282371199413.985121265978705l-.695523180011151.442718693440838c-.327308409499892.208750338239042-.571314778730084.529786514397529-.65607687668853.907898855717576-1.039302548981141,4.636305402662401,1.203840016738468,8.8180372597526,2.772727421688614,10.614256826475867.235664121510126.269620269755251.572716461339951.419013381788318.929296170219459.453280240697495l.764550732061252.073422673913228c1.1698256906202.112136122932498,2.347827695750311-.103784562600595,3.401706352678957-.624047305860586l3.816632180401939-1.883738615927541c1.60518220954873-.792668343248806,3.055556955168868,1.311727120439173,1.743914373519146,2.529890211784732l-2.449241176780561,2.274811764242259c-.937789735549813.871136622462473-1.589092044980134,2.005958666549304-1.867908564010577,3.255203493647969l-.179515793410246.804300763040374c-.084499928938385.378793242468419-.030534811397956.778399762557456.176801649000481,1.106220730193854,2.538798877079898,4.016157654476956,7.080168722890448,5.391869458016117,9.459696561250894,5.554817668630676.35727147678881.024940817331299.7015325131797-.107261477361135.978124537950862-.334626600136289l.593051058998753-.488340677964516c.907398703950093-.746500504992582,1.588715157500701-1.732029790384331,1.96735170177999-2.844784822026668l.988038782139483-2.903392888475537c.567340058780246-1.667356039059996,3.033096325531005-1.251791398331989,3.022667496690701.509423315368622l-.018152591559556,3.066852031530289c-.006994416929956,1.175389497672768.313670836048914,2.329787123180722.92620946462921,3.33244928536169l.400294938630395.65575360445655c.186734054210319.305451484409787.468648065070738.543185786481445.814420250249896.636731978895114,2.301429399709377.625953895867497,7.042845003199545.814710345827734,10.757794622830261-2.147475842661152.303271365930414-.241766007229671.485288602540095-.601601393592318.529547938718679-.987176558386636l.094017310661002-.818710194639607c.14603920935042-1.271622365275107-.097279372659614-2.557218763805395-.697740980600429-3.68760358347663l-1.568422360000113-2.951926094944611c-.839922239279986-1.580775679567523,1.220128900740747-3.093543782657434,2.476838724300251-1.818548313010069l2.988396958910016,3.030619809158452c.825140037341043.836941945957733,1.867239483590311,1.427025996486009,3.009445972209505,1.704546724427928l.74607481223029.181169627056988c.347930008510957.084467231537019.715879478360876.053891144409135,1.026715256999523-.12362511745232,2.07064627120053-1.182833107992337,5.56090766518173-4.398289429746001,6.098303806360491-9.119183304855142.044090741899709-.384966862061447-.081521158848773-.768296414756151-.322452323829566-1.07281464287189l-.511504775069625-.646144370692127c-.794616081040658-1.003122446928501-1.875107123420094-1.741388305008513-3.098489220770716-2.117633633503829l-2.301509822269509-.706578181981058c-1.735005461439869-.53365155933443-1.302307102869236-3.101070883981265.511663776249407-3.035961290023806l2.406069257000127.086173902659539c1.27912192895019.045512572167354,2.541901435850377-.297831696512731,3.621406489441142-.985100347787011l.69502962748993-.442801874001816c.327429098748325-.208717984429313.571641705750153-.529106712819157.656265244369933-.907867109291146,1.039604813389815-4.636254460724558-1.204066511039855-8.817450728686708-2.772546355090526-10.614226310528466-.235483054899305-.269589753816945-.573085895619442-.419075644162149-.929481617460624-.453311494936315l-.764242626788473-.073370747588342c-1.170074435651259-.112166031492052-2.348013143000571.103753308369051-3.401888879499893.62401654381938l-3.816635100831263,1.883738123737203c-1.60518220954873.792668343247897-3.055615363749894-1.311736964293232-1.743975702529497-2.529900547830948l2.449305426220235-2.274800936004794c.937682470288564-.870517983679747,1.589030715969784-2.00596900259643,1.867741938498511-3.254606872626027l.179618169480818-.80490821229796c.084561257950554-.378782906424021.030537731829099-.778399270365298-.176740319990131-1.106210394149457-2.538857285659105-4.016167498331015-7.080334396729086-5.391260663091998-9.459693640819751-5.554817176439428-.35733280579916-.024951153375696-.70159384219005.107251141317647-.978231803219387.335245238916286l-.593008043169903.487711210946145c-.907438799340525.747130464202201-1.588650908061027,1.732040618623614-1.967287452351229,2.844795650264132l-.988038782119474,2.903392888477356c-.567401387799691,1.667345703016508-3.03315765455045,1.251781062286682-3.022667496699796-.50942331537135l.018152591559556-3.066852031526651c.006994416929956-1.175389497675496-.313775180889934-2.329167992209477-.926273714070703-3.332460113600973l-.400337954459246-.655124137437269c-.18668811795942-.306080459235091-.468602128810744-.543814761308568-.814312984970456-.63735061767602-2.301597993988253-.625345593131897-7.042906332229904-.814720681871222-10.75779754326868,2.147475350468994-.303329774509621.241756163373793-.485288602540095.601601393592318-.529609267730848.98716622234133l-.094119686729755.819317643894465c-.145933912850523,1.271015408212406.097338732899516,2.557240781570727.697907606108856,3.687006962459236l1.568358110560439,2.951915266705328c.839925159711129,1.580776171761499-1.220067571730397,3.09355411870547-2.476777395289901,1.818558649058104l-2.988394038478873-3.030619316967204c-.825142957770368-.8369424381508-1.867305701800433-1.427025143005267-3.009263445390388-1.704515962389451l-.746382917499432-.181221553380055Z" fill="url(#linear-gradient)" fill-rule="evenodd" stroke-width="0"/>
          <path d="M33.150975218330132,34.311230066501594c-.348113995540189-.084498239672939-.715512964510708-.053829374232009-1.026529809760177.123656371687503-2.071053832100006,1.183389123113557-5.560786467360231,4.398309855738262-6.098484872960398,9.119152788910469-.043952182559224.385614917211569.081453480430355.768297022141269.322263956149982,1.072782896447279l.511998327589026.646227551250377c.794617541261687,1.003122693021396,1.875105663200884,1.741388058908342,3.098365102530806,2.117612715313044l3.426782382759484,1.052437092228502c1.561601434919794.479847357793915,1.172046714009412,2.79127354800039-.460568274369507,2.732785702816727l-3.582437319370001-.128857225699903c-1.278999270920394-.04549190007674-2.541775857389439.297852860794592-3.621282371199413.985121265978705l-.695523180011151.442718693440838c-.327308409499892.208750338239042-.571314778730084.529786514397529-.65607687668853.907898855717576-1.039302548981141,4.636305402662401,1.203840016738468,8.8180372597526,2.772727421688614,10.614256826475867.235664121510126.269620269755251.572716461339951.419013381788318.929296170219459.453280240697495l.764550732061252.073422673913228c1.1698256906202.112136122932498,2.347827695750311-.103784562600595,3.401706352678957-.624047305860586l3.816632180401939-1.883738615927541c1.60518220954873-.792668343248806,3.055556955168868,1.311727120439173,1.743914373519146,2.529890211784732l-2.449241176780561,2.274811764242259c-.937789735549813.871136622462473-1.589092044980134,2.005958666549304-1.867908564010577,3.255203493647969l-.179515793410246.804300763040374c-.084499928938385.378793242468419-.030534811397956.778399762557456.176801649000481,1.106220730193854,2.538798877079898,4.016157654476956,7.080168722890448,5.391869458016117,9.459696561250894,5.554817668630676.35727147678881.024940817331299.7015325131797-.107261477361135.978124537950862-.334626600136289l.593051058998753-.488340677964516c.907398703950093-.746500504992582,1.588715157500701-1.732029790384331,1.96735170177999-2.844784822026668l.988038782139483-2.903392888475537c.567340058780246-1.667356039059996,3.033096325531005-1.251791398331989,3.022667496690701.509423315368622l-.018152591559556,3.066852031530289c-.006994416929956,1.175389497672768.313670836048914,2.329787123180722.92620946462921,3.33244928536169l.400294938630395.65575360445655c.186734054210319.305451484409787.468648065070738.543185786481445.814420250249896.636731978895114,2.301429399709377.625953895867497,7.042845003199545.814710345827734,10.757794622830261-2.147475842661152.303271365930414-.241766007229671.485288602540095-.601601393592318.529547938718679-.987176558386636l.094017310661002-.818710194639607c.14603920935042-1.271622365275107-.097279372659614-2.557218763805395-.697740980600429-3.68760358347663l-1.568422360000113-2.951926094944611c-.839922239279986-1.580775679567523,1.220128900740747-3.093543782657434,2.476838724300251-1.818548313010069l2.988396958910016,3.030619809158452c.825140037341043.836941945957733,1.867239483590311,1.427025996486009,3.009445972209505,1.704546724427928l.74607481223029.181169627056988c.347930008510957.084467231537019.715879478360876.053891144409135,1.026715256999523-.12362511745232,2.07064627120053-1.182833107992337,5.56090766518173-4.398289429746001,6.098303806360491-9.119183304855142.044090741899709-.384966862061447-.081521158848773-.768296414756151-.322452323829566-1.07281464287189l-.511504775069625-.646144370692127c-.794616081040658-1.003122446928501-1.875107123420094-1.741388305008513-3.098489220770716-2.117633633503829l-2.301509822269509-.706578181981058c-1.735005461439869-.53365155933443-1.302307102869236-3.101070883981265.511663776249407-3.035961290023806l2.406069257000127.086173902659539c1.27912192895019.045512572167354,2.541901435850377-.297831696512731,3.621406489441142-.985100347787011l.69502962748993-.442801874001816c.327429098748325-.208717984429313.571641705750153-.529106712819157.656265244369933-.907867109291146,1.039604813389815-4.636254460724558-1.204066511039855-8.817450728686708-2.772546355090526-10.614226310528466-.235483054899305-.269589753816945-.573085895619442-.419075644162149-.929481617460624-.453311494936315l-.764242626788473-.073370747588342c-1.170074435651259-.112166031492052-2.348013143000571.103753308369051-3.401888879499893.62401654381938l-3.816635100831263,1.883738123737203c-1.60518220954873.792668343247897-3.055615363749894-1.311736964293232-1.743975702529497-2.529900547830948l2.449305426220235-2.274800936004794c.937682470288564-.870517983679747,1.589030715969784-2.00596900259643,1.867741938498511-3.254606872626027l.179618169480818-.80490821229796c.084561257950554-.378782906424021.030537731829099-.778399270365298-.176740319990131-1.106210394149457-2.538857285659105-4.016167498331015-7.080334396729086-5.391260663091998-9.459693640819751-5.554817176439428-.35733280579916-.024951153375696-.70159384219005.107251141317647-.978231803219387.335245238916286l-.593008043169903.487711210946145c-.907438799340525.747130464202201-1.588650908061027,1.732040618623614-1.967287452351229,2.844795650264132l-.988038782119474,2.903392888477356c-.567401387799691,1.667345703016508-3.03315765455045,1.251781062286682-3.022667496699796-.50942331537135l.018152591559556-3.066852031526651c.006994416929956-1.175389497675496-.313775180889934-2.329167992209477-.926273714070703-3.332460113600973l-.400337954459246-.655124137437269c-.18668811795942-.306080459235091-.468602128810744-.543814761308568-.814312984970456-.63735061767602-2.301597993988253-.625345593131897-7.042906332229904-.814720681871222-10.75779754326868,2.147475350468994-.303329774509621.241756163373793-.485288602540095.601601393592318-.529609267730848.98716622234133l-.094119686729755.819317643894465c-.145933912850523,1.271015408212406.097338732899516,2.557240781570727.697907606108856,3.687006962459236l1.568358110560439,2.951915266705328c.839925159711129,1.580776171761499-1.220067571730397,3.09355411870547-2.476777395289901,1.818558649058104l-2.988394038478873-3.030619316967204c-.825142957770368-.8369424381508-1.867305701800433-1.427025143005267-3.009263445390388-1.704515962389451l-.746382917499432-.181221553380055Z" fill="url(#linear-gradient-2)" fill-rule="evenodd" stroke-width="0"/>
          <path d="M52.401133606268559,54.855759501006105l-16.401707012839324,17.90316329356574,7.300961183111212,3.39527540475865,1.935374957249223-2.724212224590701,7.165370872478888-18.574226473733688Z" fill="#d23e27" stroke-width="0"/>
          <path d="M57.111681374510226,52.599259234689271l10.329992272068921,13.451847877996443,6.055561733381182-4.982574706898959-16.385554005450103-8.469273171097484Z" fill="#d23e27" stroke-width="0"/>
          <polygon points="50.53874805392843 52.475329525344932 27.80162749424926 53.66265311879306 28.607031454999742 58.226899903735102 50.53874805392843 52.475329525344932" fill="#febb12" opacity=".5" stroke-width="0"/>
          <polygon points="67.039685639469099 32.817736454218903 54.296196930128644 51.772036377449695 55.634597374319128 40.343405343724953 60.278245490779227 29.902014299623261 67.039685639469099 32.817736454218903" fill="#febb12" opacity=".5" stroke-width="0"/>
          <path d="M56.746569997809274,51.257864865740885l-30.692775197459923,6.932386033146031,3.883798413929981,4.984803411093708,26.808976783529943-11.917189444239739Z" fill="url(#linear-gradient-3)" stroke-width="0"/>
          <polygon points="55.175150716018834 55.914077665367586 32.116486621740478 40.907187576705837 28.693982433689598 45.447946168289491 55.175150716018834 55.914077665367586" fill="url(#linear-gradient-4)" opacity=".600000023841858" stroke-width="0"/>
          <polygon points="54.216888783070317 56.342753887386607 69.523822693769034 35.008177130325748 65.47664900808013 32.160651997930472 54.216888783070317 56.342753887386607" fill="url(#linear-gradient-5)" opacity=".600000023841858" stroke-width="0"/>
          <polygon points="52.338922184069816 58.412762157227007 52.307420001659921 30.901076903985995 48.656864626009337 34.443508620185639 52.338922184069816 58.412762157227007" fill="url(#linear-gradient-6)" opacity=".300000011920929" stroke-width="0"/>
          <path d="M77.86899978693873,52.062106329250128l-.770750310630319-5.935900905875314-21.712302465388348,7.953361822410443,4.110694362658251,3.054747740408857,18.372358413360416-5.072208656943985Z" fill="url(#linear-gradient-7)" stroke-width="0"/>
          <path d="M54.545628740879692,56.693558354696506l14.835643337110014,18.542079527367605" fill="none" stroke="url(#radial-gradient)" stroke-linecap="round" stroke-width="11.1797208931178"/>
          <path d="M54.545628740879692,56.693558354696506l14.835643337110014,18.542079527367605" fill="none" stroke="url(#linear-gradient-8)" stroke-linecap="round" stroke-width="11.1797208931178"/>
          <path d="M185.035797828930299,139.112616911002078c-6.947694774169577,41.224204972858388-45.998726259480463,69.010968536035762-87.223305047269605,62.063210761208211-41.224572946932312-6.947756790441417-69.011118824240839-45.998948309629668-62.063424050071262-87.223153282485328,6.947755806058922-41.224567106070936,45.998762862380318-69.011150078469655,87.223335809310811-62.063393288028237,41.224578787780047,6.947757774827551,69.011149094079883,45.998768703234418,62.063393288030056,87.223335809305354Z" fill="url(#radial-gradient-2)" stroke-width="0"/>
          <path d="M185.035797828930299,139.112616911002078c-6.947694774169577,41.224204972858388-45.998726259480463,69.010968536035762-87.223305047269605,62.063210761208211-41.224572946932312-6.947756790441417-69.011118824240839-45.998948309629668-62.063424050071262-87.223153282485328,6.947755806058922-41.224567106070936,45.998762862380318-69.011150078469655,87.223335809310811-62.063393288028237,41.224578787780047,6.947757774827551,69.011149094079883,45.998768703234418,62.063393288030056,87.223335809305354Z" fill="url(#radial-gradient-3)" stroke-width="0"/>
          <path d="M185.035797828930299,139.112616911002078c-6.947694774169577,41.224204972858388-45.998726259480463,69.010968536035762-87.223305047269605,62.063210761208211-41.224572946932312-6.947756790441417-69.011118824240839-45.998948309629668-62.063424050071262-87.223153282485328,6.947755806058922-41.224567106070936,45.998762862380318-69.011150078469655,87.223335809310811-62.063393288028237,41.224578787780047,6.947757774827551,69.011149094079883,45.998768703234418,62.063393288030056,87.223335809305354Z" fill="url(#radial-gradient-4)" stroke-width="0"/>
          <ellipse cx="107.625500019392348" cy="100.32633031544492" rx="31.252591508950218" ry="41.639611460323842" transform="translate(-36.075649452487255 68.725690299006899) rotate(-30.587485439508484)" fill="url(#radial-gradient-5)" stroke-width="0"/>
          <path d="M41.598032627769499,29.612662550815912l9.176631002979775-1.602695110286732c-.266100995278975,1.578912478054917-.909082949630829,4.226161535544634-3.742344926140504,4.978772121708971-2.584408368129516.686837730789193-5.013342981399546-2.370433578354096-5.434286076839271-3.37607701142224Z" fill="#ffd35d" stroke-width="0"/>
          <path d="M27.410095908218864,43.528446218100726l5.146079109801576-7.765505602456869c.963511501369794,1.279125746927093,2.443634842678875,3.566154792712041,1.041980980078733,6.140971960062416-1.278507992790765,2.348657560807624-5.168255002939986,2.010546862815318-6.18806008988031,1.624533642394454Z" fill="url(#linear-gradient-9)" stroke-width="0"/>
          <path d="M42.782973100918753,40.392037775241988l7.075106784599484,9.114703577753062" fill="none" stroke="url(#linear-gradient-10)" stroke-linecap="round" stroke-width=".62109563088167"/>
          <path d="M56.929861552340299,38.495147827052278l-2.6602412882512,9.673422596535602" fill="none" stroke="url(#linear-gradient-11)" stroke-linecap="round" stroke-width=".62109563088167"/>
        </g>
      </g>
      <g id="AC">
        <g>
          <path d="M110.580078125,112.67626953125c.0478515625,31.59814453125,1.1416015625,63.25634765625,3.2822265625,94.97119140625-.0556640625,1.14013671875-.3017578125,2.24072265625-.7392578125,3.298828125-.4462890625.86962890625-1.1044921875,1.69970703125-1.9775390625,2.48876953125-.8759765625.791015625-2.115234375,1.3046875-3.71875,1.5517578125-2.171875.359375-4.4169921875.6015625-6.736328125.73046875-2.3212890625.12744140625-4.2568359375-.2568359375-5.8046875-1.15087890625-5.9287109375,1.43701171875-12.0078125,1.98046875-18.234375,1.62646484375-6.228515625-.3544921875-11.9111328125-2.1015625-17.048828125-5.2470703125-4.458984375-2.69287109375-7.9462890625-6.10595703125-10.4609375-10.24267578125-2.515625-4.13427734375-4.138671875-8.56201171875-4.87109375-13.283203125-.732421875-4.71875-.6396484375-9.56103515625.28125-14.5283203125.91796875-4.96484375,2.5869140625-9.5771484375,5.001953125-13.837890625,1.96875-3.38818359375,4.427734375-6.3662109375,7.376953125-8.93701171875,2.947265625-2.56884765625,6.1728515625-4.67333984375,9.6748046875-6.3134765625,3.501953125-1.63720703125,7.236328125-2.74072265625,11.2021484375-3.3046875s7.9052734375-.48681640625,11.822265625.23193359375c.0537109375-3.89208984375.1435546875-7.47802734375.2685546875-10.75634765625.1220703125-3.27783203125.236328125-6.1513671875.3427734375-8.62353515625.0908203125-2.85009765625.1884765625-5.4619140625.2978515625-7.83935546875-.125-.849609375-.0087890625-1.61181640625.34765625-2.2890625.265625-.578125.7197265625-1.13916015625,1.3662109375-1.68408203125.6435546875-.54248046875,1.6298828125-.83935546875,2.9580078125-.88525390625,1.23046875-.04248046875,2.724609375-.06982421875,4.48046875-.08349609375,1.7548828125-.01171875,3.419921875.095703125,4.994140625.32568359375,1.5732421875.22998046875,2.939453125.63427734375,4.09765625,1.21044921875,1.1591796875.57861328125,1.7578125,1.43359375,1.796875,2.57080078125ZM89.50390625,161.80078125c-3.6484375-1.201171875-6.884765625-1.51611328125-9.7119140625-.9453125-2.8271484375.57373046875-5.2080078125,1.6748046875-7.14453125,3.3076171875-1.9375,1.6328125-3.41015625,3.65380859375-4.4169921875,6.0595703125-1.0087890625,2.40771484375-1.5400390625,4.87060546875-1.595703125,7.3857421875-.0556640625,2.517578125.384765625,4.9462890625,1.3203125,7.28466796875.9345703125,2.3408203125,2.353515625,4.28466796875,4.2578125,5.83154296875,1.9033203125,1.548828125,4.3076171875,2.5087890625,7.216796875,2.8818359375,2.90625.3759765625,6.3740234375-.17138671875,10.4052734375-1.64013671875-.16015625-4.64306640625-.25390625-9.38623046875-.2783203125-14.224609375-.0244140625-4.8388671875-.0439453125-10.1513671875-.052734375-15.94091796875Z" fill="none" stroke="#181818" stroke-linecap="round" stroke-linejoin="round" stroke-width="37.552799224853516"/>
          <path d="M147.0068359375,207.0712890625c-.15234375,1.1435546875-.447265625,2.19921875-.8876953125,3.16162109375-.44921875.7763671875-1.1103515625,1.53369140625-1.9853515625,2.27490234375-.8779296875.7421875-2.1171875,1.23486328125-3.720703125,1.4814453125-1.6064453125.244140625-3.3076171875.4453125-5.103515625.60302734375-1.798828125.15576171875-3.462890625.07080078125-4.990234375-.25439453125-1.5302734375-.3271484375-2.8603515625-1.015625-3.986328125-2.06884765625-1.1279296875-1.05029296875-1.8701171875-2.61474609375-2.2255859375-4.69140625-.2275390625-1.03515625-.3955078125-3.18896484375-.5078125-6.458984375-.11328125-3.27001953125-.203125-7.203125-.2666015625-11.8046875-.0654296875-4.60009765625-.1201171875-9.6748046875-.169921875-15.22509765625-.0498046875-5.54931640625-.0791015625-11.1708984375-.0849609375-16.8642578125-.0771484375-13.1865234375-.109375-27.8955078125-.1015625-44.12255859375-.125-.849609375-.0087890625-1.61181640625.3486328125-2.2890625.263671875-.57861328125.6962890625-1.091796875,1.298828125-1.53955078125.6005859375-.44775390625,1.5625-.7412109375,2.8876953125-.8828125,1.326171875-.0458984375,2.86328125-.1455078125,4.615234375-.3017578125,1.7490234375-.15380859375,3.41015625-.1650390625,4.98046875-.02978515625,1.5712890625.13720703125,2.9345703125.4677734375,4.091796875.9970703125,1.15625.52978515625,1.802734375,1.41015625,1.94140625,2.63720703125l3.8662109375,95.3779296875Z" fill="none" stroke="#181818" stroke-linecap="round" stroke-linejoin="round" stroke-width="37.552799224853516"/>
          <path d="M216.2939453125,152.57958984375c.47265625,2.73681640625.4921875,5.36962890625.05859375,7.89794921875-.4345703125,2.5302734375-1.3076171875,4.74267578125-2.6162109375,6.63818359375-1.3115234375,1.8955078125-3.1103515625,3.40576171875-5.3955078125,4.52783203125-2.287109375,1.1240234375-5.046875,1.59765625-8.27734375,1.4248046875-2.763671875-.2822265625-4.4873046875-1.43310546875-5.1728515625-3.451171875-.6875-2.015625-.884765625-4.31103515625-.5927734375-6.88330078125.265625-3.2333984375.314453125-5.939453125.1455078125-8.1181640625-.29296875-2.9296875-1.2763671875-4.62841796875-2.951171875-5.09326171875-1.677734375-.46240234375-3.48046875.19189453125-5.412109375,1.96630859375-1.931640625,1.77490234375-3.634765625,4.705078125-5.10546875,8.7880859375-1.4736328125,4.08544921875-2.1015625,9.20703125-1.888671875,15.36669921875l1.5361328125,32.1162109375c-.1572265625.955078125-.4609375,1.77294921875-.9111328125,2.451171875-.4521484375.6806640625-1.119140625,1.2734375-2.0029296875,1.77685546875-.884765625.5048828125-2.12890625.87890625-3.732421875,1.1259765625-1.69921875.248046875-3.4267578125.42529296875-5.1767578125.53466796875-1.75390625.10791015625-3.392578125.0458984375-4.91796875-.185546875-1.5263671875-.23193359375-2.8486328125-.70703125-3.9638671875-1.42919921875-1.1171875-.71923828125-1.892578125-1.87841796875-2.326171875-3.47802734375-.216796875-.7509765625-.3642578125-2.31201171875-.4462890625-4.68212890625-.08203125-2.3681640625-.16015625-5.2607421875-.228515625-8.6748046875-.0712890625-3.41357421875-.130859375-7.18359375-.1767578125-11.3095703125-.0498046875-4.1259765625-.0517578125-8.2763671875-.00390625-12.455078125.0400390625-9.77392578125.1416015625-20.59521484375.30078125-32.46435546875-.115234375-.56494140625.009765625-1.08984375.373046875-1.57861328125.2705078125-.3876953125.70703125-.75830078125,1.3134765625-1.11279296875.603515625-.35205078125,1.5673828125-.59912109375,2.892578125-.74072265625,1.2275390625-.1357421875,2.7177734375-.25830078125,4.470703125-.3681640625,1.7509765625-.10693359375,3.412109375-.1396484375,4.978515625-.1005859375,1.5673828125.04150390625,2.92578125.23291015625,4.0771484375.57080078125,1.150390625.3408203125,1.787109375.9345703125,1.9111328125,1.78466796875l.236328125,2.6962890625c3.0517578125-2.28759765625,6.552734375-3.97412109375,10.5-5.06005859375,3.9482421875-1.083984375,7.9775390625-1.17626953125,12.08984375-.27587890625,4.8798828125,1.16162109375,8.654296875,3.2841796875,11.322265625,6.36962890625,2.6689453125,3.08837890625,4.3671875,6.8955078125,5.0927734375,11.42529296875Z" fill="none" stroke="#181818" stroke-linecap="round" stroke-linejoin="round" stroke-width="37.552799224853516"/>
        </g>
        <g>
          <path d="M110.580078125,112.67626953125c.0478515625,31.59814453125,1.1416015625,63.25634765625,3.2822265625,94.97119140625-.0556640625,1.14013671875-.3017578125,2.24072265625-.7392578125,3.298828125-.4462890625.86962890625-1.1044921875,1.69970703125-1.9775390625,2.48876953125-.8759765625.791015625-2.115234375,1.3046875-3.71875,1.5517578125-2.171875.359375-4.4169921875.6015625-6.736328125.73046875-2.3212890625.12744140625-4.2568359375-.2568359375-5.8046875-1.15087890625-5.9287109375,1.43701171875-12.0078125,1.98046875-18.234375,1.62646484375-6.228515625-.3544921875-11.9111328125-2.1015625-17.048828125-5.2470703125-4.458984375-2.69287109375-7.9462890625-6.10595703125-10.4609375-10.24267578125-2.515625-4.13427734375-4.138671875-8.56201171875-4.87109375-13.283203125-.732421875-4.71875-.6396484375-9.56103515625.28125-14.5283203125.91796875-4.96484375,2.5869140625-9.5771484375,5.001953125-13.837890625,1.96875-3.38818359375,4.427734375-6.3662109375,7.376953125-8.93701171875,2.947265625-2.56884765625,6.1728515625-4.67333984375,9.6748046875-6.3134765625,3.501953125-1.63720703125,7.236328125-2.74072265625,11.2021484375-3.3046875s7.9052734375-.48681640625,11.822265625.23193359375c.0537109375-3.89208984375.1435546875-7.47802734375.2685546875-10.75634765625.1220703125-3.27783203125.236328125-6.1513671875.3427734375-8.62353515625.0908203125-2.85009765625.1884765625-5.4619140625.2978515625-7.83935546875-.125-.849609375-.0087890625-1.61181640625.34765625-2.2890625.265625-.578125.7197265625-1.13916015625,1.3662109375-1.68408203125.6435546875-.54248046875,1.6298828125-.83935546875,2.9580078125-.88525390625,1.23046875-.04248046875,2.724609375-.06982421875,4.48046875-.08349609375,1.7548828125-.01171875,3.419921875.095703125,4.994140625.32568359375,1.5732421875.22998046875,2.939453125.63427734375,4.09765625,1.21044921875,1.1591796875.57861328125,1.7578125,1.43359375,1.796875,2.57080078125ZM89.50390625,161.80078125c-3.6484375-1.201171875-6.884765625-1.51611328125-9.7119140625-.9453125-2.8271484375.57373046875-5.2080078125,1.6748046875-7.14453125,3.3076171875-1.9375,1.6328125-3.41015625,3.65380859375-4.4169921875,6.0595703125-1.0087890625,2.40771484375-1.5400390625,4.87060546875-1.595703125,7.3857421875-.0556640625,2.517578125.384765625,4.9462890625,1.3203125,7.28466796875.9345703125,2.3408203125,2.353515625,4.28466796875,4.2578125,5.83154296875,1.9033203125,1.548828125,4.3076171875,2.5087890625,7.216796875,2.8818359375,2.90625.3759765625,6.3740234375-.17138671875,10.4052734375-1.64013671875-.16015625-4.64306640625-.25390625-9.38623046875-.2783203125-14.224609375-.0244140625-4.8388671875-.0439453125-10.1513671875-.052734375-15.94091796875Z" fill="#fff" stroke-width="0"/>
          <path d="M147.0068359375,207.0712890625c-.15234375,1.1435546875-.447265625,2.19921875-.8876953125,3.16162109375-.44921875.7763671875-1.1103515625,1.53369140625-1.9853515625,2.27490234375-.8779296875.7421875-2.1171875,1.23486328125-3.720703125,1.4814453125-1.6064453125.244140625-3.3076171875.4453125-5.103515625.60302734375-1.798828125.15576171875-3.462890625.07080078125-4.990234375-.25439453125-1.5302734375-.3271484375-2.8603515625-1.015625-3.986328125-2.06884765625-1.1279296875-1.05029296875-1.8701171875-2.61474609375-2.2255859375-4.69140625-.2275390625-1.03515625-.3955078125-3.18896484375-.5078125-6.458984375-.11328125-3.27001953125-.203125-7.203125-.2666015625-11.8046875-.0654296875-4.60009765625-.1201171875-9.6748046875-.169921875-15.22509765625-.0498046875-5.54931640625-.0791015625-11.1708984375-.0849609375-16.8642578125-.0771484375-13.1865234375-.109375-27.8955078125-.1015625-44.12255859375-.125-.849609375-.0087890625-1.61181640625.3486328125-2.2890625.263671875-.57861328125.6962890625-1.091796875,1.298828125-1.53955078125.6005859375-.44775390625,1.5625-.7412109375,2.8876953125-.8828125,1.326171875-.0458984375,2.86328125-.1455078125,4.615234375-.3017578125,1.7490234375-.15380859375,3.41015625-.1650390625,4.98046875-.02978515625,1.5712890625.13720703125,2.9345703125.4677734375,4.091796875.9970703125,1.15625.52978515625,1.802734375,1.41015625,1.94140625,2.63720703125l3.8662109375,95.3779296875Z" fill="#fff" stroke-width="0"/>
          <path d="M216.2939453125,152.57958984375c.47265625,2.73681640625.4921875,5.36962890625.05859375,7.89794921875-.4345703125,2.5302734375-1.3076171875,4.74267578125-2.6162109375,6.63818359375-1.3115234375,1.8955078125-3.1103515625,3.40576171875-5.3955078125,4.52783203125-2.287109375,1.1240234375-5.046875,1.59765625-8.27734375,1.4248046875-2.763671875-.2822265625-4.4873046875-1.43310546875-5.1728515625-3.451171875-.6875-2.015625-.884765625-4.31103515625-.5927734375-6.88330078125.265625-3.2333984375.314453125-5.939453125.1455078125-8.1181640625-.29296875-2.9296875-1.2763671875-4.62841796875-2.951171875-5.09326171875-1.677734375-.46240234375-3.48046875.19189453125-5.412109375,1.96630859375-1.931640625,1.77490234375-3.634765625,4.705078125-5.10546875,8.7880859375-1.4736328125,4.08544921875-2.1015625,9.20703125-1.888671875,15.36669921875l1.5361328125,32.1162109375c-.1572265625.955078125-.4609375,1.77294921875-.9111328125,2.451171875-.4521484375.6806640625-1.119140625,1.2734375-2.0029296875,1.77685546875-.884765625.5048828125-2.12890625.87890625-3.732421875,1.1259765625-1.69921875.248046875-3.4267578125.42529296875-5.1767578125.53466796875-1.75390625.10791015625-3.392578125.0458984375-4.91796875-.185546875-1.5263671875-.23193359375-2.8486328125-.70703125-3.9638671875-1.42919921875-1.1171875-.71923828125-1.892578125-1.87841796875-2.326171875-3.47802734375-.216796875-.7509765625-.3642578125-2.31201171875-.4462890625-4.68212890625-.08203125-2.3681640625-.16015625-5.2607421875-.228515625-8.6748046875-.0712890625-3.41357421875-.130859375-7.18359375-.1767578125-11.3095703125-.0498046875-4.1259765625-.0517578125-8.2763671875-.00390625-12.455078125.0400390625-9.77392578125.1416015625-20.59521484375.30078125-32.46435546875-.115234375-.56494140625.009765625-1.08984375.373046875-1.57861328125.2705078125-.3876953125.70703125-.75830078125,1.3134765625-1.11279296875.603515625-.35205078125,1.5673828125-.59912109375,2.892578125-.74072265625,1.2275390625-.1357421875,2.7177734375-.25830078125,4.470703125-.3681640625,1.7509765625-.10693359375,3.412109375-.1396484375,4.978515625-.1005859375,1.5673828125.04150390625,2.92578125.23291015625,4.0771484375.57080078125,1.150390625.3408203125,1.787109375.9345703125,1.9111328125,1.78466796875l.236328125,2.6962890625c3.0517578125-2.28759765625,6.552734375-3.97412109375,10.5-5.06005859375,3.9482421875-1.083984375,7.9775390625-1.17626953125,12.08984375-.27587890625,4.8798828125,1.16162109375,8.654296875,3.2841796875,11.322265625,6.36962890625,2.6689453125,3.08837890625,4.3671875,6.8955078125,5.0927734375,11.42529296875Z" fill="#fff" stroke-width="0"/>
        </g>
      </g>
    </g>
  </a>
</svg>