<?xml version="1.0" encoding="UTF-8"?>
<svg id="Pattern" xmlns="http://www.w3.org/2000/svg" xmlns:xlink="http://www.w3.org/1999/xlink" viewBox="0 0 280 280">
  <defs>
    <linearGradient id="linear-gradient" x1="-1207.573781494162176" y1="-7165.803363108527265" x2="-1253.779135023421304" y2="-7192.262839995274589" gradientTransform="translate(-7128.484786742359574 -1180.999746689300082) rotate(-90) scale(1 -1)" gradientUnits="userSpaceOnUse">
      <stop offset="0" stop-color="#ffc810"/>
      <stop offset=".755599975585938" stop-color="#ef4e26"/>
    </linearGradient>
    <linearGradient id="linear-gradient-2" x1="-1249.834185727981094" y1="-7196.052126384126495" x2="-1232.457814299567644" y2="-7180.650088978215535" gradientTransform="translate(-7128.484786742359574 -1180.999746689300082) rotate(-90) scale(1 -1)" gradientUnits="userSpaceOnUse">
      <stop offset="0" stop-color="#d23e27"/>
      <stop offset="1" stop-color="#d23e27" stop-opacity="0"/>
    </linearGradient>
    <linearGradient id="linear-gradient-3" x1="-1249.285921378534113" y1="-7168.054219293430833" x2="-1231.435643009928754" y2="-7168.664604238327229" xlink:href="#linear-gradient-2"/>
    <linearGradient id="linear-gradient-4" x1="-1235.017352358865537" y1="-7157.179357345348762" x2="-1225.746576298569835" y2="-7172.44579513401095" xlink:href="#linear-gradient-2"/>
    <linearGradient id="linear-gradient-5" x1="-1210.015305856049054" y1="-7181.73612355737896" x2="-1225.949122740003077" y2="-7189.806089658817655" xlink:href="#linear-gradient-2"/>
    <linearGradient id="linear-gradient-6" x1="-1215.563886072365676" y1="-7164.097657256874299" x2="-1223.283423381962621" y2="-7180.204418046540923" xlink:href="#linear-gradient-2"/>
    <linearGradient id="linear-gradient-7" x1="-1220.414979283043067" y1="-7207.238959011801853" x2="-1229.99157276662595" y2="-7190.257818742968993" xlink:href="#linear-gradient-2"/>
    <radialGradient id="radial-gradient" cx="-6103.59317076575644" cy="3439.900128844812571" fx="-6103.59317076575644" fy="3439.900128844812571" r="6.318680843520877" gradientTransform="translate(8934.979692876544505 20137.765540359920124) rotate(46.679000554437955) scale(3.393360063220487 -2.127890109186673)" gradientUnits="userSpaceOnUse">
      <stop offset="0" stop-color="#e1dfe1"/>
      <stop offset=".394388008117676" stop-color="#c2bec5"/>
    </radialGradient>
    <linearGradient id="linear-gradient-8" x1="-1246.20057316763814" y1="-7187.601764717497645" x2="-1244.620902905259754" y2="-7188.885276917398187" gradientTransform="translate(-7128.484786742359574 -1180.999746689300082) rotate(-90) scale(1 -1)" gradientUnits="userSpaceOnUse">
      <stop offset="0" stop-color="#a3a1a8"/>
      <stop offset="1" stop-color="#b8b6bd" stop-opacity="0"/>
    </linearGradient>
    <radialGradient id="radial-gradient-2" cx="-6760.102152863751144" cy="-521.709943493109677" fx="-6760.102152863751144" fy="-521.709943493109677" r="6.318680534166575" gradientTransform="translate(-114756.771375613607233 85522.618413192714797) rotate(150.613998431500988) scale(21.016598951055666 -34.56750101719615)" gradientUnits="userSpaceOnUse">
      <stop offset=".00558659017086" stop-color="#5c266f"/>
      <stop offset="1" stop-color="#2e265b"/>
    </radialGradient>
    <radialGradient id="radial-gradient-3" cx="-6727.889257001857914" cy="-464.712839853752484" fx="-6727.889257001857914" fy="-464.712839853752484" r="6.318680534166837" gradientTransform="translate(-107377.268184335756814 111425.175359562243102) rotate(138.535003813569915) scale(22.936198784939176 -26.321800119514737)" gradientUnits="userSpaceOnUse">
      <stop offset=".71875" stop-color="#29233a" stop-opacity="0"/>
      <stop offset="1" stop-color="#29233a"/>
    </radialGradient>
    <radialGradient id="radial-gradient-4" cx="-5942.544707159751852" cy="-363.908150602250316" fx="-5942.544707159751852" fy="-363.908150602250316" r="6.318680534168911" gradientTransform="translate(104757.926063376362436 -49632.041571760579245) rotate(-22.45010325657281) scale(19.476000259430034 -16.532499694880073)" gradientUnits="userSpaceOnUse">
      <stop offset=".809844970703125" stop-color="#672b80" stop-opacity="0"/>
      <stop offset="1" stop-color="#672b80"/>
    </radialGradient>
    <radialGradient id="radial-gradient-5" cx="-6351.453802452040691" cy="716.42781820340133" fx="-6351.453802452040691" fy="716.42781820340133" r="6.318680534171802" gradientTransform="translate(-8316.577440375876904 91334.429374595245463) rotate(92.148493896133644) scale(14.411199570559582 -6.984130141550692)" gradientUnits="userSpaceOnUse">
      <stop offset="0" stop-color="#67568f"/>
      <stop offset=".727772979736328" stop-color="#67568f" stop-opacity="0"/>
    </radialGradient>
    <linearGradient id="linear-gradient-9" x1="-1216.955453294169274" y1="-7157.842184767668186" x2="-1226.781003463088155" y2="-7154.682845371232361" gradientTransform="translate(-7128.484786742359574 -1180.999746689300082) rotate(-90) scale(1 -1)" gradientUnits="userSpaceOnUse">
      <stop offset="0" stop-color="#ffd35d"/>
      <stop offset="1" stop-color="#ffd35d" stop-opacity="0"/>
    </linearGradient>
    <linearGradient id="linear-gradient-10" x1="-1220.117588601354328" y1="-7167.091359373947853" x2="-1224.609534462246529" y2="-7173.508739687470552" gradientTransform="translate(-7128.484786742359574 -1180.999746689300082) rotate(-90) scale(1 -1)" gradientUnits="userSpaceOnUse">
      <stop offset="0" stop-color="#febb12"/>
      <stop offset="1" stop-color="#febb12" stop-opacity="0"/>
    </linearGradient>
    <linearGradient id="linear-gradient-11" x1="-1213.669879837778353" y1="-7180.399208376724346" x2="-1221.481034887679925" y2="-7180.983877816448512" xlink:href="#linear-gradient-10"/>
  </defs>
  <a xlink:href="https://www.notion.so/dmmnotes/denied-bfa029478ea0407889d79bc2020eac41?pvs=4">
    <g>
      <g>
        <g>
          <path d="M28.362167618490275,34.008239362017775c-.363513225451243-.025911642358551-.726901412150255.066972556553083-1.008904444490327.297610277390049-1.877595267509605,1.537331715120672-4.834927165580666,5.352549883949905-4.57617681928059,10.179394726204919.021104430099513.394278781273897.211612248091114.756981514647123.504672923150792,1.021726187984314l.622894791409635.561728250537271c.966758856899105.871980999007064,2.17552190798051,1.429924944564846,3.466301333079173,1.60053201861956l3.615675925320829.476424713508095c1.647722844019881.217356497640139,1.647722844019881,2.602035073638035,0,2.819391571278175l-3.615675925320829.476424713509914c-1.290779425098663.170607074051077-2.499542476180068.728551019610677-3.466301333079173,1.600532018623198l-.622894791409635.561728250533633c-.293060675059678.264756725264306-.48356849305128.628074106898566-.504672923150792,1.021726187984314-.258750346300076,4.826844842253195,2.698581551770985,8.642689711268758,4.57617681928059,10.179394726208557.282003032340072.230637720833329.645391219039084.323521919741324,1.008904444490327.297610277386411l.779408643700663-.055607589692954c1.192524586369473-.085291485100242,2.337786035788668-.50107090356687,3.307071277809882-1.201179376217624l3.510343592639401-2.535050465165114c1.476294732459792-1.066595511005289,3.287102741800481.799307881141431,2.177225749110221,2.243128697165957l-2.072461363481125,2.696184724847626c-.793501865458893,1.032476506583407-1.255018345669669,2.281044058499901-1.323512457958714,3.581422843204564l-.044104025681008.837223242468099c-.020726300899696.394290833199193.100974054690596.786050761793376.364399042060541,1.079864682276821,3.225939213900347,3.599753823678839,8.014422773539991,4.212039906631617,10.429107633990498,3.973194823725862.362630421819631-.035384456727115.685640134679488-.226214663747669.924675035428663-.50107090356687l.512381636750433-.590170797497194c.784086297740942-.902303646527798,1.300954264201209-2.006175766748129,1.492664261870232-3.186505309813583l.500311632191369-3.079725239447725c.287248633419949-1.768608188076541,2.83114822574862-1.768608188076541,3.118460131789107,0l.500311632180455,3.079725239447725c.191709997669022,1.180329543065454.70857796412929,2.284201663285785,1.492597976279285,3.186505309813583l.512444909369151.590170797497194c.238974641109962.274856239819201.561984353971638.465686446839754.924678048400892.50107090356687,2.414618574848646.238845082905755,7.203105147478709-.373441000047023,10.429104621020088-3.973194823725862.263364727730732-.293813920483444.385125342958418-.685573849077628.364335769440004-1.079864682276821l-.044104025681008-.837223242468099c-.06849109930954-1.300378784704662-.529947319890198-2.548946336621157-1.323446172369586-3.581422843204564l-2.072527649079348-2.696184724847626c-1.109873979699842-1.443820816024527.700994289270966-3.309724208171247,2.177289021730758-2.243128697165957l3.510346605618906,2.535050465165114c.969282229039891.700108472650754,2.114480405840368,1.115887891117382,3.307259589169917,1.201179376217624l.779090774129145.055607589692954c.363323407600546.025911642354913.727279541351891-.066972556553083,1.009095768829866-.297610277386411,1.877280410932144-1.536705014939798,4.835052204321983-5.352549883955362,4.575990014411218-10.179394726208557-.02085585911118-.393652081085747-.211680040170904-.756969462720008-.504867260469837-1.021726187984314l-.622385597500397-.561728250533633c-.966757350410262-.871980999012521-2.175523414471172-1.429924944572122-3.466429384809089-1.600532018623198l-2.428330654431193-.31971351091488c-1.830778051840753-.242014739622391-1.830778051840753-2.890799236844032,0-3.132175224352977l2.428330654431193-.320352263028326c1.290905970337917-.170607074054715,2.499672034398827-.728551019612496,3.466429384809089-1.60053201861956l.622385597500397-.561728250537271c.293187220298933-.264744673337191.484011401358657-.627447406710417.504867260469837-1.021726187984314.259062189910765-4.826844842255014-2.698709603479074-8.642063011084247-4.575990014411218-10.179394726204919-.281816227477975-.230637720836967-.645772361229319-.3235219197486-1.009095768829866-.297610277390049l-.779090774129145.055607589692954c-1.192779183329549.085303537027357-2.337977360130026.50107090356687-3.307259589169917,1.201179376217624l-3.510346605618906,2.535050465165114c-1.476294732459792,1.066595511005289-3.287163001430599-.799307881141431-2.177289021730758-2.243128697167776l2.072527649079348-2.696184724847626c.793498852479388-1.031837754464505,1.254955073060046-2.281044058498082,1.323446172369586-3.580796143012776l.044104025681008-.837849942659886c.020789573518414-.394290833197374-.100971041709272-.786050761793376-.364335769440004-1.079864682276821-3.225999473541378-3.59975382367702-8.014486046171442-4.211401154516352-10.429104621020088-3.973194823727681-.362693694429254.035384456728934-.68570340729093.226214663751307-.924678048400892.501709655682134l-.512444909369151.589532045383748c-.784020012149995.902942398643063-1.300887978610263,2.006175766748129-1.492597976279285,3.186505309815402l-.500311632180455,3.079725239447725c-.287311906040486,1.768608188076541-2.831211498369157,1.768608188076541-3.118460131789107,0l-.500311632191369-3.079725239447725c-.191709997669022-1.180329543067273-.70857796412929-2.283562911172339-1.492664261870232-3.186505309815402l-.512381636750433-.589532045383748c-.239034900749175-.275494991930827-.562044613609032-.4663251989532-.924675035428663-.501709655682134-2.414684860450507-.238206330788671-7.203168420090151.373441000050661-10.429107633990498,3.973194823727681-.263424987369945.293813920483444-.385125342960237.685573849079447-.364399042060541,1.079864682276821l.044104025681008.837849942659886c.068494112289045,1.299752084514694.530010592499821,2.548958388548272,1.323512457958714,3.580796143012776l2.072461363481125,2.696184724847626c1.109876992690261,1.443820816026346-.700931016650429,3.309724208173066-2.177225749110221,2.243128697167776l-3.510343592639401-2.535050465165114c-.969285242021215-.700108472650754-2.11454669144041-1.115875839190267-3.307071277809882-1.201179376217624l-.779408643700663-.055607589692954Z" fill="none" stroke="#181818" stroke-linecap="round" stroke-linejoin="round" stroke-width="34.3777537445931"/>
          <path d="M28.362167618490275,34.008239362017775c-.363513225451243-.025911642358551-.726901412150255.066972556553083-1.008904444490327.297610277390049-1.877595267509605,1.537331715120672-4.834927165580666,5.352549883949905-4.57617681928059,10.179394726204919.021104430099513.394278781273897.211612248091114.756981514647123.504672923150792,1.021726187984314l.622894791409635.561728250537271c.966758856899105.871980999007064,2.17552190798051,1.429924944564846,3.466301333079173,1.60053201861956l3.615675925320829.476424713508095c1.647722844019881.217356497640139,1.647722844019881,2.602035073638035,0,2.819391571278175l-3.615675925320829.476424713509914c-1.290779425098663.170607074051077-2.499542476180068.728551019610677-3.466301333079173,1.600532018623198l-.622894791409635.561728250533633c-.293060675059678.264756725264306-.48356849305128.628074106898566-.504672923150792,1.021726187984314-.258750346300076,4.826844842253195,2.698581551770985,8.642689711268758,4.57617681928059,10.179394726208557.282003032340072.230637720833329.645391219039084.323521919741324,1.008904444490327.297610277386411l.779408643700663-.055607589692954c1.192524586369473-.085291485100242,2.337786035788668-.50107090356687,3.307071277809882-1.201179376217624l3.510343592639401-2.535050465165114c1.476294732459792-1.066595511005289,3.287102741800481.799307881141431,2.177225749110221,2.243128697165957l-2.072461363481125,2.696184724847626c-.793501865458893,1.032476506583407-1.255018345669669,2.281044058499901-1.323512457958714,3.581422843204564l-.044104025681008.837223242468099c-.020726300899696.394290833199193.100974054690596.786050761793376.364399042060541,1.079864682276821,3.225939213900347,3.599753823678839,8.014422773539991,4.212039906631617,10.429107633990498,3.973194823725862.362630421819631-.035384456727115.685640134679488-.226214663747669.924675035428663-.50107090356687l.512381636750433-.590170797497194c.784086297740942-.902303646527798,1.300954264201209-2.006175766748129,1.492664261870232-3.186505309813583l.500311632191369-3.079725239447725c.287248633419949-1.768608188076541,2.83114822574862-1.768608188076541,3.118460131789107,0l.500311632180455,3.079725239447725c.191709997669022,1.180329543065454.70857796412929,2.284201663285785,1.492597976279285,3.186505309813583l.512444909369151.590170797497194c.238974641109962.274856239819201.561984353971638.465686446839754.924678048400892.50107090356687,2.414618574848646.238845082905755,7.203105147478709-.373441000047023,10.429104621020088-3.973194823725862.263364727730732-.293813920483444.385125342958418-.685573849077628.364335769440004-1.079864682276821l-.044104025681008-.837223242468099c-.06849109930954-1.300378784704662-.529947319890198-2.548946336621157-1.323446172369586-3.581422843204564l-2.072527649079348-2.696184724847626c-1.109873979699842-1.443820816024527.700994289270966-3.309724208171247,2.177289021730758-2.243128697165957l3.510346605618906,2.535050465165114c.969282229039891.700108472650754,2.114480405840368,1.115887891117382,3.307259589169917,1.201179376217624l.779090774129145.055607589692954c.363323407600546.025911642354913.727279541351891-.066972556553083,1.009095768829866-.297610277386411,1.877280410932144-1.536705014939798,4.835052204321983-5.352549883955362,4.575990014411218-10.179394726208557-.02085585911118-.393652081085747-.211680040170904-.756969462720008-.504867260469837-1.021726187984314l-.622385597500397-.561728250533633c-.966757350410262-.871980999012521-2.175523414471172-1.429924944572122-3.466429384809089-1.600532018623198l-2.428330654431193-.31971351091488c-1.830778051840753-.242014739622391-1.830778051840753-2.890799236844032,0-3.132175224352977l2.428330654431193-.320352263028326c1.290905970337917-.170607074054715,2.499672034398827-.728551019612496,3.466429384809089-1.60053201861956l.622385597500397-.561728250537271c.293187220298933-.264744673337191.484011401358657-.627447406710417.504867260469837-1.021726187984314.259062189910765-4.826844842255014-2.698709603479074-8.642063011084247-4.575990014411218-10.179394726204919-.281816227477975-.230637720836967-.645772361229319-.3235219197486-1.009095768829866-.297610277390049l-.779090774129145.055607589692954c-1.192779183329549.085303537027357-2.337977360130026.50107090356687-3.307259589169917,1.201179376217624l-3.510346605618906,2.535050465165114c-1.476294732459792,1.066595511005289-3.287163001430599-.799307881141431-2.177289021730758-2.243128697167776l2.072527649079348-2.696184724847626c.793498852479388-1.031837754464505,1.254955073060046-2.281044058498082,1.323446172369586-3.580796143012776l.044104025681008-.837849942659886c.020789573518414-.394290833197374-.100971041709272-.786050761793376-.364335769440004-1.079864682276821-3.225999473541378-3.59975382367702-8.014486046171442-4.211401154516352-10.429104621020088-3.973194823727681-.362693694429254.035384456728934-.68570340729093.226214663751307-.924678048400892.501709655682134l-.512444909369151.589532045383748c-.784020012149995.902942398643063-1.300887978610263,2.006175766748129-1.492597976279285,3.186505309815402l-.500311632180455,3.079725239447725c-.287311906040486,1.768608188076541-2.831211498369157,1.768608188076541-3.118460131789107,0l-.500311632191369-3.079725239447725c-.191709997669022-1.180329543067273-.70857796412929-2.283562911172339-1.492664261870232-3.186505309815402l-.512381636750433-.589532045383748c-.239034900749175-.275494991930827-.562044613609032-.4663251989532-.924675035428663-.501709655682134-2.414684860450507-.238206330788671-7.203168420090151.373441000050661-10.429107633990498,3.973194823727681-.263424987369945.293813920483444-.385125342960237.685573849079447-.364399042060541,1.079864682276821l.044104025681008.837849942659886c.068494112289045,1.299752084514694.530010592499821,2.548958388548272,1.323512457958714,3.580796143012776l2.072461363481125,2.696184724847626c1.109876992690261,1.443820816026346-.700931016650429,3.309724208173066-2.177225749110221,2.243128697167776l-3.510343592639401-2.535050465165114c-.969285242021215-.700108472650754-2.11454669144041-1.115875839190267-3.307071277809882-1.201179376217624l-.779408643700663-.055607589692954Z" fill="none" stroke="#181818" stroke-linecap="round" stroke-linejoin="round" stroke-width="34.3777537445931"/>
          <path d="M51.147392559860236,51.363760997832287l-13.427196135109625,20.733483852831341,7.898350667710474,2.171733083527215,1.480970880020323-3.060140858597151,4.047874587378828-19.845076077761405Z" fill="none" stroke="#181818" stroke-linecap="round" stroke-linejoin="round" stroke-width="34.3777537445931"/>
          <path d="M55.491485427100997,48.303620139231498l12.637361068340397,11.748326593078673,5.232500642308878-6.022335709079925-17.869861710649275-5.725990883998747Z" fill="none" stroke="#181818" stroke-linecap="round" stroke-linejoin="round" stroke-width="34.3777537445931"/>
          <g>
            <polygon points="48.87658661307978 49.290600622603961 26.267524683960801 54.325955848315061 27.847194817499258 58.76862142385653 48.87658661307978 49.290600622603961" fill="none" stroke="#181818" stroke-linecap="round" stroke-linejoin="round" stroke-width="34.3777537445931"/>
            <polygon points="48.87658661307978 49.290600622603961 26.267524683960801 54.325955848315061 27.847194817499258 58.76862142385653 48.87658661307978 49.290600622603961" fill="none" stroke="#181818" stroke-linecap="round" stroke-linejoin="round" stroke-width="34.3777537445931"/>
          </g>
          <g>
            <polygon points="62.106703617180756 26.78030121962729 52.527139307709149 47.949775571967621 51.937543989710321 36.258322020879859 54.830678287349656 24.998435912206332 62.106703617180756 26.78030121962729" fill="none" stroke="#181818" stroke-linecap="round" stroke-linejoin="round" stroke-width="34.3777537445931"/>
            <polygon points="62.106703617180756 26.78030121962729 52.527139307709149 47.949775571967621 51.937543989710321 36.258322020879859 54.830678287349656 24.998435912206332 62.106703617180756 26.78030121962729" fill="none" stroke="#181818" stroke-linecap="round" stroke-linejoin="round" stroke-width="34.3777537445931"/>
          </g>
          <path d="M54.898413128259563,47.019668130587888l-29.618813497429073,12.143870826652346,4.739010400629923,4.34409286724258,24.879803096799151-16.487963693894926Z" fill="none" stroke="#181818" stroke-linecap="round" stroke-linejoin="round" stroke-width="34.3777537445931"/>
          <g>
            <polygon points="54.109210787639313 51.956450647998281 28.439571117580272 40.800187004908366 25.773846130919992 45.934114938920175 54.109210787639313 51.956450647998281" fill="none" stroke="#181818" stroke-linecap="round" stroke-linejoin="round" stroke-width="34.3777537445931"/>
            <polygon points="54.109210787639313 51.956450647998281 28.439571117580272 40.800187004908366 25.773846130919992 45.934114938920175 54.109210787639313 51.956450647998281" fill="none" stroke="#181818" stroke-linecap="round" stroke-linejoin="round" stroke-width="34.3777537445931"/>
          </g>
          <g>
            <polygon points="53.220363117239685 52.548513597987039 64.96912659265945 28.557743469955312 60.427574958730474 26.385383686243586 53.220363117239685 52.548513597987039" fill="none" stroke="#181818" stroke-linecap="round" stroke-linejoin="round" stroke-width="34.3777537445931"/>
            <polygon points="53.220363117239685 52.548513597987039 64.96912659265945 28.557743469955312 60.427574958730474 26.385383686243586 53.220363117239685 52.548513597987039" fill="none" stroke="#181818" stroke-linecap="round" stroke-linejoin="round" stroke-width="34.3777537445931"/>
          </g>
          <g>
            <polygon points="51.686375811768812 54.942652936428203 47.003286350929557 27.348344679741786 43.939990900529665 31.519311620253575 51.686375811768812 54.942652936428203" fill="none" stroke="#181818" stroke-linecap="round" stroke-linejoin="round" stroke-width="34.3777537445931"/>
            <polygon points="51.686375811768812 54.942652936428203 47.003286350929557 27.348344679741786 43.939990900529665 31.519311620253575 51.686375811768812 54.942652936428203" fill="none" stroke="#181818" stroke-linecap="round" stroke-linejoin="round" stroke-width="34.3777537445931"/>
          </g>
          <path d="M76.224342579749646,44.255245396889222l-1.776815550139872-5.824563592297636-20.437012482520004,11.649753884781603,4.640311147099055,2.369505200311323,17.573516885560821-8.19469549279529Z" fill="none" stroke="#181818" stroke-linecap="round" stroke-linejoin="round" stroke-width="34.3777537445931"/>
          <path d="M53.609465596009613,52.844858423073674l18.018037136169369,16.093046160505764" fill="none" stroke="#181818" stroke-linecap="round" stroke-linejoin="round" stroke-width="34.3777537445931"/>
          <path d="M53.609465596009613,52.844858423073674l18.018037136169369,16.093046160505764" fill="none" stroke="#181818" stroke-linecap="round" stroke-linejoin="round" stroke-width="34.3777537445931"/>
          <path d="M198.451632512669676,113.465013147844729c0,42.530658702344226-34.477874646190685,77.008730698822546-77.008919010178943,77.008730698822546-42.531038338040162,0-77.008919010180762-34.47807199647832-77.008919010180762-77.008730698822546,0-42.531032312072057,34.4778806721406-77.008919010178943,77.008919010180762-77.008919010178943,42.531044363988258,0,77.008919010178943,34.477886698106886,77.008919010178943,77.008919010178943Z" fill="none" stroke="#181818" stroke-linecap="round" stroke-linejoin="round" stroke-width="34.3777537445931"/>
          <path d="M198.451632512669676,113.465013147844729c0,42.530658702344226-34.477874646190685,77.008730698822546-77.008919010178943,77.008730698822546-42.531038338040162,0-77.008919010180762-34.47807199647832-77.008919010180762-77.008730698822546,0-42.531032312072057,34.4778806721406-77.008919010178943,77.008919010180762-77.008919010178943,42.531044363988258,0,77.008919010178943,34.477886698106886,77.008919010178943,77.008919010178943Z" fill="none" stroke="#181818" stroke-linecap="round" stroke-linejoin="round" stroke-width="34.3777537445931"/>
          <path d="M198.451632512669676,113.465013147844729c0,42.530658702344226-34.477874646190685,77.008730698822546-77.008919010178943,77.008730698822546-42.531038338040162,0-77.008919010180762-34.47807199647832-77.008919010180762-77.008730698822546,0-42.531032312072057,34.4778806721406-77.008919010178943,77.008919010180762-77.008919010178943,42.531044363988258,0,77.008919010178943,34.477886698106886,77.008919010178943,77.008919010178943Z" fill="none" stroke="#181818" stroke-linecap="round" stroke-linejoin="round" stroke-width="34.3777537445931"/>
          <ellipse cx="114.236151325039827" cy="87.642735685459684" rx="31.794647413199382" ry="42.361823480285814" transform="translate(-29.592064967252185 94.320428862479517) rotate(-40.153894458558263)" fill="none" stroke="#181818" stroke-linecap="round" stroke-linejoin="round" stroke-width="34.3777537445931"/>
          <path d="M36.041827037679468,27.866481111486792l8.934994127939717-3.159340267089647c0,1.62895046173071-.197458766688214,4.393373195429376-2.912531873629632,5.627418175701678-2.476544387100148,1.125987405674095-5.430146213859189-1.530389805357117-6.022462254310085-2.468077908612031Z" fill="none" stroke="#181818" stroke-linecap="round" stroke-linejoin="round" stroke-width="34.3777537445931"/>
          <path d="M24.16131943227083,44.225549449553l3.849591770209372-8.660393991560341c1.182857434680045,1.120310948212136,3.054387570089602,3.164402076290571,2.083585291798954,5.984432399682191-.88550024775941,2.572327074374698-4.844847407730413,2.890787184915098-5.933177062008326,2.675961591878149Z" fill="none" stroke="#181818" stroke-linecap="round" stroke-linejoin="round" stroke-width="34.3777537445931"/>
          <path d="M39.053058164839968,38.479974184709135l8.638775848079604,7.947630995895452" fill="none" stroke="#181818" stroke-linecap="round" stroke-linejoin="round" stroke-width="34.3777537445931"/>
          <path d="M52.924458187480923,34.185161645651533l-1.033229751990802,10.154121835967089" fill="none" stroke="#181818" stroke-linecap="round" stroke-linejoin="round" stroke-width="34.3777537445931"/>
        </g>
        <g>
          <path d="M28.362167618490275,34.008239362017775c-.363513225451243-.025911642358551-.726901412150255.066972556553083-1.008904444490327.297610277390049-1.877595267509605,1.537331715120672-4.834927165580666,5.352549883949905-4.57617681928059,10.179394726204919.021104430099513.394278781273897.211612248091114.756981514647123.504672923150792,1.021726187984314l.622894791409635.561728250537271c.966758856899105.871980999007064,2.17552190798051,1.429924944564846,3.466301333079173,1.60053201861956l3.615675925320829.476424713508095c1.647722844019881.217356497640139,1.647722844019881,2.602035073638035,0,2.819391571278175l-3.615675925320829.476424713509914c-1.290779425098663.170607074051077-2.499542476180068.728551019610677-3.466301333079173,1.600532018623198l-.622894791409635.561728250533633c-.293060675059678.264756725264306-.48356849305128.628074106898566-.504672923150792,1.021726187984314-.258750346300076,4.826844842253195,2.698581551770985,8.642689711268758,4.57617681928059,10.179394726208557.282003032340072.230637720833329.645391219039084.323521919741324,1.008904444490327.297610277386411l.779408643700663-.055607589692954c1.192524586369473-.085291485100242,2.337786035788668-.50107090356687,3.307071277809882-1.201179376217624l3.510343592639401-2.535050465165114c1.476294732459792-1.066595511005289,3.287102741800481.799307881141431,2.177225749110221,2.243128697165957l-2.072461363481125,2.696184724847626c-.793501865458893,1.032476506583407-1.255018345669669,2.281044058499901-1.323512457958714,3.581422843204564l-.044104025681008.837223242468099c-.020726300899696.394290833199193.100974054690596.786050761793376.364399042060541,1.079864682276821,3.225939213900347,3.599753823678839,8.014422773539991,4.212039906631617,10.429107633990498,3.973194823725862.362630421819631-.035384456727115.685640134679488-.226214663747669.924675035428663-.50107090356687l.512381636750433-.590170797497194c.784086297740942-.902303646527798,1.300954264201209-2.006175766748129,1.492664261870232-3.186505309813583l.500311632191369-3.079725239447725c.287248633419949-1.768608188076541,2.83114822574862-1.768608188076541,3.118460131789107,0l.500311632180455,3.079725239447725c.191709997669022,1.180329543065454.70857796412929,2.284201663285785,1.492597976279285,3.186505309813583l.512444909369151.590170797497194c.238974641109962.274856239819201.561984353971638.465686446839754.924678048400892.50107090356687,2.414618574848646.238845082905755,7.203105147478709-.373441000047023,10.429104621020088-3.973194823725862.263364727730732-.293813920483444.385125342958418-.685573849077628.364335769440004-1.079864682276821l-.044104025681008-.837223242468099c-.06849109930954-1.300378784704662-.529947319890198-2.548946336621157-1.323446172369586-3.581422843204564l-2.072527649079348-2.696184724847626c-1.109873979699842-1.443820816024527.700994289270966-3.309724208171247,2.177289021730758-2.243128697165957l3.510346605618906,2.535050465165114c.969282229039891.700108472650754,2.114480405840368,1.115887891117382,3.307259589169917,1.201179376217624l.779090774129145.055607589692954c.363323407600546.025911642354913.727279541351891-.066972556553083,1.009095768829866-.297610277386411,1.877280410932144-1.536705014939798,4.835052204321983-5.352549883955362,4.575990014411218-10.179394726208557-.02085585911118-.393652081085747-.211680040170904-.756969462720008-.504867260469837-1.021726187984314l-.622385597500397-.561728250533633c-.966757350410262-.871980999012521-2.175523414471172-1.429924944572122-3.466429384809089-1.600532018623198l-2.428330654431193-.31971351091488c-1.830778051840753-.242014739622391-1.830778051840753-2.890799236844032,0-3.132175224352977l2.428330654431193-.320352263028326c1.290905970337917-.170607074054715,2.499672034398827-.728551019612496,3.466429384809089-1.60053201861956l.622385597500397-.561728250537271c.293187220298933-.264744673337191.484011401358657-.627447406710417.504867260469837-1.021726187984314.259062189910765-4.826844842255014-2.698709603479074-8.642063011084247-4.575990014411218-10.179394726204919-.281816227477975-.230637720836967-.645772361229319-.3235219197486-1.009095768829866-.297610277390049l-.779090774129145.055607589692954c-1.192779183329549.085303537027357-2.337977360130026.50107090356687-3.307259589169917,1.201179376217624l-3.510346605618906,2.535050465165114c-1.476294732459792,1.066595511005289-3.287163001430599-.799307881141431-2.177289021730758-2.243128697167776l2.072527649079348-2.696184724847626c.793498852479388-1.031837754464505,1.254955073060046-2.281044058498082,1.323446172369586-3.580796143012776l.044104025681008-.837849942659886c.020789573518414-.394290833197374-.100971041709272-.786050761793376-.364335769440004-1.079864682276821-3.225999473541378-3.59975382367702-8.014486046171442-4.211401154516352-10.429104621020088-3.973194823727681-.362693694429254.035384456728934-.68570340729093.226214663751307-.924678048400892.501709655682134l-.512444909369151.589532045383748c-.784020012149995.902942398643063-1.300887978610263,2.006175766748129-1.492597976279285,3.186505309815402l-.500311632180455,3.079725239447725c-.287311906040486,1.768608188076541-2.831211498369157,1.768608188076541-3.118460131789107,0l-.500311632191369-3.079725239447725c-.191709997669022-1.180329543067273-.70857796412929-2.283562911172339-1.492664261870232-3.186505309815402l-.512381636750433-.589532045383748c-.239034900749175-.275494991930827-.562044613609032-.4663251989532-.924675035428663-.501709655682134-2.414684860450507-.238206330788671-7.203168420090151.373441000050661-10.429107633990498,3.973194823727681-.263424987369945.293813920483444-.385125342960237.685573849079447-.364399042060541,1.079864682276821l.044104025681008.837849942659886c.068494112289045,1.299752084514694.530010592499821,2.548958388548272,1.323512457958714,3.580796143012776l2.072461363481125,2.696184724847626c1.109876992690261,1.443820816026346-.700931016650429,3.309724208173066-2.177225749110221,2.243128697167776l-3.510343592639401-2.535050465165114c-.969285242021215-.700108472650754-2.11454669144041-1.115875839190267-3.307071277809882-1.201179376217624l-.779408643700663-.055607589692954Z" fill="url(#linear-gradient)" fill-rule="evenodd" stroke-width="0"/>
          <path d="M28.362167618490275,34.008239362017775c-.363513225451243-.025911642358551-.726901412150255.066972556553083-1.008904444490327.297610277390049-1.877595267509605,1.537331715120672-4.834927165580666,5.352549883949905-4.57617681928059,10.179394726204919.021104430099513.394278781273897.211612248091114.756981514647123.504672923150792,1.021726187984314l.622894791409635.561728250537271c.966758856899105.871980999007064,2.17552190798051,1.429924944564846,3.466301333079173,1.60053201861956l3.615675925320829.476424713508095c1.647722844019881.217356497640139,1.647722844019881,2.602035073638035,0,2.819391571278175l-3.615675925320829.476424713509914c-1.290779425098663.170607074051077-2.499542476180068.728551019610677-3.466301333079173,1.600532018623198l-.622894791409635.561728250533633c-.293060675059678.264756725264306-.48356849305128.628074106898566-.504672923150792,1.021726187984314-.258750346300076,4.826844842253195,2.698581551770985,8.642689711268758,4.57617681928059,10.179394726208557.282003032340072.230637720833329.645391219039084.323521919741324,1.008904444490327.297610277386411l.779408643700663-.055607589692954c1.192524586369473-.085291485100242,2.337786035788668-.50107090356687,3.307071277809882-1.201179376217624l3.510343592639401-2.535050465165114c1.476294732459792-1.066595511005289,3.287102741800481.799307881141431,2.177225749110221,2.243128697165957l-2.072461363481125,2.696184724847626c-.793501865458893,1.032476506583407-1.255018345669669,2.281044058499901-1.323512457958714,3.581422843204564l-.044104025681008.837223242468099c-.020726300899696.394290833199193.100974054690596.786050761793376.364399042060541,1.079864682276821,3.225939213900347,3.599753823678839,8.014422773539991,4.212039906631617,10.429107633990498,3.973194823725862.362630421819631-.035384456727115.685640134679488-.226214663747669.924675035428663-.50107090356687l.512381636750433-.590170797497194c.784086297740942-.902303646527798,1.300954264201209-2.006175766748129,1.492664261870232-3.186505309813583l.500311632191369-3.079725239447725c.287248633419949-1.768608188076541,2.83114822574862-1.768608188076541,3.118460131789107,0l.500311632180455,3.079725239447725c.191709997669022,1.180329543065454.70857796412929,2.284201663285785,1.492597976279285,3.186505309813583l.512444909369151.590170797497194c.238974641109962.274856239819201.561984353971638.465686446839754.924678048400892.50107090356687,2.414618574848646.238845082905755,7.203105147478709-.373441000047023,10.429104621020088-3.973194823725862.263364727730732-.293813920483444.385125342958418-.685573849077628.364335769440004-1.079864682276821l-.044104025681008-.837223242468099c-.06849109930954-1.300378784704662-.529947319890198-2.548946336621157-1.323446172369586-3.581422843204564l-2.072527649079348-2.696184724847626c-1.109873979699842-1.443820816024527.700994289270966-3.309724208171247,2.177289021730758-2.243128697165957l3.510346605618906,2.535050465165114c.969282229039891.700108472650754,2.114480405840368,1.115887891117382,3.307259589169917,1.201179376217624l.779090774129145.055607589692954c.363323407600546.025911642354913.727279541351891-.066972556553083,1.009095768829866-.297610277386411,1.877280410932144-1.536705014939798,4.835052204321983-5.352549883955362,4.575990014411218-10.179394726208557-.02085585911118-.393652081085747-.211680040170904-.756969462720008-.504867260469837-1.021726187984314l-.622385597500397-.561728250533633c-.966757350410262-.871980999012521-2.175523414471172-1.429924944572122-3.466429384809089-1.600532018623198l-2.428330654431193-.31971351091488c-1.830778051840753-.242014739622391-1.830778051840753-2.890799236844032,0-3.132175224352977l2.428330654431193-.320352263028326c1.290905970337917-.170607074054715,2.499672034398827-.728551019612496,3.466429384809089-1.60053201861956l.622385597500397-.561728250537271c.293187220298933-.264744673337191.484011401358657-.627447406710417.504867260469837-1.021726187984314.259062189910765-4.826844842255014-2.698709603479074-8.642063011084247-4.575990014411218-10.179394726204919-.281816227477975-.230637720836967-.645772361229319-.3235219197486-1.009095768829866-.297610277390049l-.779090774129145.055607589692954c-1.192779183329549.085303537027357-2.337977360130026.50107090356687-3.307259589169917,1.201179376217624l-3.510346605618906,2.535050465165114c-1.476294732459792,1.066595511005289-3.287163001430599-.799307881141431-2.177289021730758-2.243128697167776l2.072527649079348-2.696184724847626c.793498852479388-1.031837754464505,1.254955073060046-2.281044058498082,1.323446172369586-3.580796143012776l.044104025681008-.837849942659886c.020789573518414-.394290833197374-.100971041709272-.786050761793376-.364335769440004-1.079864682276821-3.225999473541378-3.59975382367702-8.014486046171442-4.211401154516352-10.429104621020088-3.973194823727681-.362693694429254.035384456728934-.68570340729093.226214663751307-.924678048400892.501709655682134l-.512444909369151.589532045383748c-.784020012149995.902942398643063-1.300887978610263,2.006175766748129-1.492597976279285,3.186505309815402l-.500311632180455,3.079725239447725c-.287311906040486,1.768608188076541-2.831211498369157,1.768608188076541-3.118460131789107,0l-.500311632191369-3.079725239447725c-.191709997669022-1.180329543067273-.70857796412929-2.283562911172339-1.492664261870232-3.186505309815402l-.512381636750433-.589532045383748c-.239034900749175-.275494991930827-.562044613609032-.4663251989532-.924675035428663-.501709655682134-2.414684860450507-.238206330788671-7.203168420090151.373441000050661-10.429107633990498,3.973194823727681-.263424987369945.293813920483444-.385125342960237.685573849079447-.364399042060541,1.079864682276821l.044104025681008.837849942659886c.068494112289045,1.299752084514694.530010592499821,2.548958388548272,1.323512457958714,3.580796143012776l2.072461363481125,2.696184724847626c1.109876992690261,1.443820816026346-.700931016650429,3.309724208173066-2.177225749110221,2.243128697167776l-3.510343592639401-2.535050465165114c-.969285242021215-.700108472650754-2.11454669144041-1.115875839190267-3.307071277809882-1.201179376217624l-.779408643700663-.055607589692954Z" fill="url(#linear-gradient-2)" fill-rule="evenodd" stroke-width="0"/>
          <path d="M51.147392559860236,51.363760997832287l-13.427196135109625,20.733483852831341,7.898350667710474,2.171733083527215,1.480970880020323-3.060140858597151,4.047874587378828-19.845076077761405Z" fill="#d23e27" stroke-width="0"/>
          <path d="M55.491485427100997,48.303620139231498l12.637361068340397,11.748326593078673,5.232500642308878-6.022335709079925-17.869861710649275-5.725990883998747Z" fill="#d23e27" stroke-width="0"/>
          <polygon points="48.87658661307978 49.290600622603961 26.267524683960801 54.325955848315061 27.847194817499258 58.76862142385653 48.87658661307978 49.290600622603961" fill="#febb12" opacity=".5" stroke-width="0"/>
          <polygon points="62.106703617180756 26.78030121962729 52.527139307709149 47.949775571967621 51.937543989710321 36.258322020879859 54.830678287349656 24.998435912206332 62.106703617180756 26.78030121962729" fill="#febb12" opacity=".5" stroke-width="0"/>
          <path d="M54.898413128259563,47.019668130587888l-29.618813497429073,12.143870826652346,4.739010400629923,4.34409286724258,24.879803096799151-16.487963693894926Z" fill="url(#linear-gradient-3)" stroke-width="0"/>
          <polygon points="54.109210787639313 51.956450647998281 28.439571117580272 40.800187004908366 25.773846130919992 45.934114938920175 54.109210787639313 51.956450647998281" fill="url(#linear-gradient-4)" opacity=".600000023841858" stroke-width="0"/>
          <polygon points="53.220363117239685 52.548513597987039 64.96912659265945 28.557743469955312 60.427574958730474 26.385383686243586 53.220363117239685 52.548513597987039" fill="url(#linear-gradient-5)" opacity=".600000023841858" stroke-width="0"/>
          <polygon points="51.686375811768812 54.942652936428203 47.003286350929557 27.348344679741786 43.939990900529665 31.519311620253575 51.686375811768812 54.942652936428203" fill="url(#linear-gradient-6)" opacity=".300000011920929" stroke-width="0"/>
          <path d="M76.224342579749646,44.255245396889222l-1.776815550139872-5.824563592297636-20.437012482520004,11.649753884781603,4.640311147099055,2.369505200311323,17.573516885560821-8.19469549279529Z" fill="url(#linear-gradient-7)" stroke-width="0"/>
          <path d="M53.609465596009613,52.844858423073674l18.018037136169369,16.093046160505764" fill="none" stroke="url(#radial-gradient)" stroke-linecap="round" stroke-width="11.373625501844399"/>
          <path d="M53.609465596009613,52.844858423073674l18.018037136169369,16.093046160505764" fill="none" stroke="url(#linear-gradient-8)" stroke-linecap="round" stroke-width="11.373625501844399"/>
          <path d="M198.451632512669676,113.465013147844729c0,42.530658702344226-34.477874646190685,77.008730698822546-77.008919010178943,77.008730698822546-42.531038338040162,0-77.008919010180762-34.47807199647832-77.008919010180762-77.008730698822546,0-42.531032312072057,34.4778806721406-77.008919010178943,77.008919010180762-77.008919010178943,42.531044363988258,0,77.008919010178943,34.477886698106886,77.008919010178943,77.008919010178943Z" fill="url(#radial-gradient-2)" stroke-width="0"/>
          <path d="M198.451632512669676,113.465013147844729c0,42.530658702344226-34.477874646190685,77.008730698822546-77.008919010178943,77.008730698822546-42.531038338040162,0-77.008919010180762-34.47807199647832-77.008919010180762-77.008730698822546,0-42.531032312072057,34.4778806721406-77.008919010178943,77.008919010180762-77.008919010178943,42.531044363988258,0,77.008919010178943,34.477886698106886,77.008919010178943,77.008919010178943Z" fill="url(#radial-gradient-3)" stroke-width="0"/>
          <path d="M198.451632512669676,113.465013147844729c0,42.530658702344226-34.477874646190685,77.008730698822546-77.008919010178943,77.008730698822546-42.531038338040162,0-77.008919010180762-34.47807199647832-77.008919010180762-77.008730698822546,0-42.531032312072057,34.4778806721406-77.008919010178943,77.008919010180762-77.008919010178943,42.531044363988258,0,77.008919010178943,34.477886698106886,77.008919010178943,77.008919010178943Z" fill="url(#radial-gradient-4)" stroke-width="0"/>
          <ellipse cx="114.236151325039827" cy="87.642735685459684" rx="31.794647413199382" ry="42.361823480285814" transform="translate(-29.592064967252185 94.320428862479517) rotate(-40.153894458558263)" fill="url(#radial-gradient-5)" stroke-width="0"/>
          <path d="M36.041827037679468,27.866481111486792l8.934994127939717-3.159340267089647c0,1.62895046173071-.197458766688214,4.393373195429376-2.912531873629632,5.627418175701678-2.476544387100148,1.125987405674095-5.430146213859189-1.530389805357117-6.022462254310085-2.468077908612031Z" fill="#ffd35d" stroke-width="0"/>
          <path d="M24.16131943227083,44.225549449553l3.849591770209372-8.660393991560341c1.182857434680045,1.120310948212136,3.054387570089602,3.164402076290571,2.083585291798954,5.984432399682191-.88550024775941,2.572327074374698-4.844847407730413,2.890787184915098-5.933177062008326,2.675961591878149Z" fill="url(#linear-gradient-9)" stroke-width="0"/>
          <path d="M39.053058164839968,38.479974184709135l8.638775848079604,7.947630995895452" fill="none" stroke="url(#linear-gradient-10)" stroke-linecap="round" stroke-width=".631868109590158"/>
          <path d="M52.924458187480923,34.185161645651533l-1.033229751990802,10.154121835967089" fill="none" stroke="url(#linear-gradient-11)" stroke-linecap="round" stroke-width=".631868109590158"/>
        </g>
      </g>
      <g id="AC">
        <g>
          <path d="M134.7509765625,102.771484375c3.4072265625,31.1796875,7.8544921875,62.30859375,13.341796875,93.380859375.06640625,1.1328125-.060546875,2.2451171875-.37890625,3.3359375-.34765625.9052734375-.9091796875,1.794921875-1.6875,2.6650390625-.7802734375.8740234375-1.9482421875,1.5146484375-3.5048828125,1.927734375-2.10546875.5859375-4.294921875,1.064453125-6.5703125,1.4384765625-2.2783203125.3720703125-4.228515625.1982421875-5.8515625-.51953125-5.6982421875,2.048828125-11.640625,3.2314453125-17.8232421875,3.544921875-6.1845703125.3125-11.9794921875-.806640625-17.3837890625-3.3642578125-4.6875-2.18359375-8.4921875-5.181640625-11.4140625-8.9970703125-2.921875-3.8125-4.9951171875-8.009765625-6.220703125-12.5908203125-1.224609375-4.5791015625-1.6484375-9.369140625-1.267578125-14.3681640625.376953125-4.998046875,1.533203125-9.7275390625,3.4638671875-14.189453125,1.5830078125-3.5537109375,3.693359375-6.7548828125,6.3310546875-9.6064453125,2.634765625-2.84765625,5.5947265625-5.2685546875,8.8759765625-7.2587890625,3.2822265625-1.9892578125,6.8505859375-3.474609375,10.7041015625-4.453125,3.8544921875-.9794921875,7.75-1.3212890625,11.693359375-1.0302734375-.361328125-3.845703125-.654296875-7.39453125-.87890625-10.6435546875-.228515625-3.248046875-.421875-6.0947265625-.580078125-8.546875-.212890625-2.822265625-.39453125-5.4111328125-.5390625-7.767578125-.2138671875-.8271484375-.1806640625-1.5908203125.099609375-2.2978515625.19921875-.5986328125.587890625-1.201171875,1.16796875-1.806640625.578125-.6044921875,1.51953125-1.001953125,2.826171875-1.1884765625,1.2099609375-.1728515625,2.681640625-.359375,4.4130859375-.5595703125,1.73046875-.1982421875,3.3857421875-.26953125,4.962890625-.2099609375,1.5771484375.060546875,2.96875.3134765625,4.173828125.7587890625,1.205078125.4482421875,1.8876953125,1.228515625,2.046875,2.3466796875ZM119.1748046875,153.49609375c-3.7294921875-.796875-6.9560546875-.763671875-9.6845703125.1005859375-2.7294921875.8662109375-4.962890625,2.20703125-6.701171875,4.0244140625-1.736328125,1.8173828125-2.9765625,3.96875-3.7138671875,6.451171875-.7392578125,2.482421875-1.0009765625,4.9697265625-.7880859375,7.458984375s.9052734375,4.83984375,2.076171875,7.048828125c1.171875,2.2109375,2.779296875,3.9775390625,4.8232421875,5.302734375s4.5185546875,2.017578125,7.4287109375,2.076171875c2.908203125.060546875,6.2734375-.84765625,10.095703125-2.7255859375-.65234375-4.56640625-1.248046875-9.2373046875-1.7880859375-14.009765625-.5390625-4.7724609375-1.123046875-10.0146484375-1.748046875-15.7275390625Z" fill="none" stroke="#181818" stroke-linecap="round" stroke-linejoin="round" stroke-width="37.276771545410156"/>
          <path d="M181.30078125,122.5830078125c4.2333984375-1.3193359375,8.529296875-2.0263671875,12.890625-2.12890625,4.3583984375-.0986328125,8.5673828125.5595703125,12.62109375,1.9775390625s7.564453125,3.865234375,10.5341796875,7.337890625c2.515625,2.9716796875,4.62890625,6.7822265625,6.3408203125,11.43359375,1.7109375,4.6552734375,3.06640625,10.474609375,4.064453125,17.4638671875l2.9765625,22.826171875c.1064453125.748046875.1845703125,1.638671875.2392578125,2.6767578125.052734375,1.0390625-.0810546875,2.103515625-.3994140625,3.1953125-.3203125,1.0927734375-.8896484375,2.1025390625-1.70703125,3.0244140625-.8203125.9267578125-2.0078125,1.5927734375-3.564453125,2.0078125-2.4638671875.73046875-5.103515625,1.228515625-7.9189453125,1.48828125s-5.1103515625-.482421875-6.8798828125-2.2275390625c-.998046875-.998046875-1.787109375-2.357421875-2.3662109375-4.083984375-.5810546875-1.7216796875-1.0390625-3.6064453125-1.3779296875-5.650390625-.3408203125-2.04296875-.58203125-4.076171875-.7294921875-6.1025390625-.1455078125-2.021484375-.234375-3.79296875-.259765625-5.310546875-.0947265625-3.3134765625-.2197265625-6.53125-.3798828125-9.646484375-.1591796875-3.115234375-.6796875-6.0830078125-1.556640625-8.90625-.9990234375-2.99609375-2.447265625-5.474609375-4.34375-7.4384765625-1.8984375-1.962890625-3.96484375-3.28515625-6.201171875-3.96484375s-4.48046875-.7373046875-6.73046875-.1787109375c-2.2509765625.55859375-4.2607421875,1.7978515625-6.03125,3.71484375-1.771484375,1.9169921875-3.1279296875,4.560546875-4.0732421875,7.927734375-.9453125,3.369140625-1.2177734375,7.44921875-.818359375,12.2421875l4.61328125,29.2958984375c-.0673828125.865234375-.2802734375,1.7041015625-.638671875,2.515625-.3740234375.720703125-.9658203125,1.400390625-1.77734375,2.037109375-.8134765625.640625-1.998046875,1.1630859375-3.5546875,1.578125-1.6513671875.4248046875-3.3359375.7841796875-5.052734375,1.078125-1.71875.29296875-3.3681640625.3857421875-4.9521484375.2802734375-1.5849609375-.1083984375-2.947265625-.482421875-4.083984375-1.12890625-1.140625-.6435546875-1.9541015625-1.693359375-2.447265625-3.14453125-.267578125-.5322265625-.6484375-2.546875-1.1484375-6.0419921875-.4990234375-3.494140625-1.03515625-7.7431640625-1.607421875-12.7509765625-.572265625-5.00390625-1.1728515625-10.36328125-1.7978515625-16.0751953125-.6259765625-5.7099609375-1.2021484375-11.0732421875-1.7275390625-16.0869140625-.5263671875-5.01171875-.947265625-9.279296875-1.2578125-12.80078125-.314453125-3.5205078125-.5166015625-5.607421875-.609375-6.2607421875-.173828125-.544921875-.107421875-1.0771484375.19921875-1.59765625.212890625-.5048828125.6220703125-.966796875,1.228515625-1.3876953125.6044921875-.41796875,1.552734375-.767578125,2.845703125-1.0478515625,1.197265625-.2646484375,2.654296875-.544921875,4.373046875-.83984375,1.716796875-.2919921875,3.3740234375-.5048828125,4.97265625-.638671875,1.59765625-.1318359375,2.982421875-.091796875,4.154296875.119140625,1.171875.2138671875,1.81640625.7392578125,1.9375,1.578125l.658203125,4.61328125c3.328125-1.9951171875,7.109375-3.654296875,11.34375-4.9716796875Z" fill="none" stroke="#181818" stroke-linecap="round" stroke-linejoin="round" stroke-width="37.276771545410156"/>
        </g>
        <g>
          <path d="M134.7509765625,102.771484375c3.4072265625,31.1796875,7.8544921875,62.30859375,13.341796875,93.380859375.06640625,1.1328125-.060546875,2.2451171875-.37890625,3.3359375-.34765625.9052734375-.9091796875,1.794921875-1.6875,2.6650390625-.7802734375.8740234375-1.9482421875,1.5146484375-3.5048828125,1.927734375-2.10546875.5859375-4.294921875,1.064453125-6.5703125,1.4384765625-2.2783203125.3720703125-4.228515625.1982421875-5.8515625-.51953125-5.6982421875,2.048828125-11.640625,3.2314453125-17.8232421875,3.544921875-6.1845703125.3125-11.9794921875-.806640625-17.3837890625-3.3642578125-4.6875-2.18359375-8.4921875-5.181640625-11.4140625-8.9970703125-2.921875-3.8125-4.9951171875-8.009765625-6.220703125-12.5908203125-1.224609375-4.5791015625-1.6484375-9.369140625-1.267578125-14.3681640625.376953125-4.998046875,1.533203125-9.7275390625,3.4638671875-14.189453125,1.5830078125-3.5537109375,3.693359375-6.7548828125,6.3310546875-9.6064453125,2.634765625-2.84765625,5.5947265625-5.2685546875,8.8759765625-7.2587890625,3.2822265625-1.9892578125,6.8505859375-3.474609375,10.7041015625-4.453125,3.8544921875-.9794921875,7.75-1.3212890625,11.693359375-1.0302734375-.361328125-3.845703125-.654296875-7.39453125-.87890625-10.6435546875-.228515625-3.248046875-.421875-6.0947265625-.580078125-8.546875-.212890625-2.822265625-.39453125-5.4111328125-.5390625-7.767578125-.2138671875-.8271484375-.1806640625-1.5908203125.099609375-2.2978515625.19921875-.5986328125.587890625-1.201171875,1.16796875-1.806640625.578125-.6044921875,1.51953125-1.001953125,2.826171875-1.1884765625,1.2099609375-.1728515625,2.681640625-.359375,4.4130859375-.5595703125,1.73046875-.1982421875,3.3857421875-.26953125,4.962890625-.2099609375,1.5771484375.060546875,2.96875.3134765625,4.173828125.7587890625,1.205078125.4482421875,1.8876953125,1.228515625,2.046875,2.3466796875ZM119.1748046875,153.49609375c-3.7294921875-.796875-6.9560546875-.763671875-9.6845703125.1005859375-2.7294921875.8662109375-4.962890625,2.20703125-6.701171875,4.0244140625-1.736328125,1.8173828125-2.9765625,3.96875-3.7138671875,6.451171875-.7392578125,2.482421875-1.0009765625,4.9697265625-.7880859375,7.458984375s.9052734375,4.83984375,2.076171875,7.048828125c1.171875,2.2109375,2.779296875,3.9775390625,4.8232421875,5.302734375s4.5185546875,2.017578125,7.4287109375,2.076171875c2.908203125.060546875,6.2734375-.84765625,10.095703125-2.7255859375-.65234375-4.56640625-1.248046875-9.2373046875-1.7880859375-14.009765625-.5390625-4.7724609375-1.123046875-10.0146484375-1.748046875-15.7275390625Z" fill="#fff" stroke-width="0"/>
          <path d="M181.30078125,122.5830078125c4.2333984375-1.3193359375,8.529296875-2.0263671875,12.890625-2.12890625,4.3583984375-.0986328125,8.5673828125.5595703125,12.62109375,1.9775390625s7.564453125,3.865234375,10.5341796875,7.337890625c2.515625,2.9716796875,4.62890625,6.7822265625,6.3408203125,11.43359375,1.7109375,4.6552734375,3.06640625,10.474609375,4.064453125,17.4638671875l2.9765625,22.826171875c.1064453125.748046875.1845703125,1.638671875.2392578125,2.6767578125.052734375,1.0390625-.0810546875,2.103515625-.3994140625,3.1953125-.3203125,1.0927734375-.8896484375,2.1025390625-1.70703125,3.0244140625-.8203125.9267578125-2.0078125,1.5927734375-3.564453125,2.0078125-2.4638671875.73046875-5.103515625,1.228515625-7.9189453125,1.48828125s-5.1103515625-.482421875-6.8798828125-2.2275390625c-.998046875-.998046875-1.787109375-2.357421875-2.3662109375-4.083984375-.5810546875-1.7216796875-1.0390625-3.6064453125-1.3779296875-5.650390625-.3408203125-2.04296875-.58203125-4.076171875-.7294921875-6.1025390625-.1455078125-2.021484375-.234375-3.79296875-.259765625-5.310546875-.0947265625-3.3134765625-.2197265625-6.53125-.3798828125-9.646484375-.1591796875-3.115234375-.6796875-6.0830078125-1.556640625-8.90625-.9990234375-2.99609375-2.447265625-5.474609375-4.34375-7.4384765625-1.8984375-1.962890625-3.96484375-3.28515625-6.201171875-3.96484375s-4.48046875-.7373046875-6.73046875-.1787109375c-2.2509765625.55859375-4.2607421875,1.7978515625-6.03125,3.71484375-1.771484375,1.9169921875-3.1279296875,4.560546875-4.0732421875,7.927734375-.9453125,3.369140625-1.2177734375,7.44921875-.818359375,12.2421875l4.61328125,29.2958984375c-.0673828125.865234375-.2802734375,1.7041015625-.638671875,2.515625-.3740234375.720703125-.9658203125,1.400390625-1.77734375,2.037109375-.8134765625.640625-1.998046875,1.1630859375-3.5546875,1.578125-1.6513671875.4248046875-3.3359375.7841796875-5.052734375,1.078125-1.71875.29296875-3.3681640625.3857421875-4.9521484375.2802734375-1.5849609375-.1083984375-2.947265625-.482421875-4.083984375-1.12890625-1.140625-.6435546875-1.9541015625-1.693359375-2.447265625-3.14453125-.267578125-.5322265625-.6484375-2.546875-1.1484375-6.0419921875-.4990234375-3.494140625-1.03515625-7.7431640625-1.607421875-12.7509765625-.572265625-5.00390625-1.1728515625-10.36328125-1.7978515625-16.0751953125-.6259765625-5.7099609375-1.2021484375-11.0732421875-1.7275390625-16.0869140625-.5263671875-5.01171875-.947265625-9.279296875-1.2578125-12.80078125-.314453125-3.5205078125-.5166015625-5.607421875-.609375-6.2607421875-.173828125-.544921875-.107421875-1.0771484375.19921875-1.59765625.212890625-.5048828125.6220703125-.966796875,1.228515625-1.3876953125.6044921875-.41796875,1.552734375-.767578125,2.845703125-1.0478515625,1.197265625-.2646484375,2.654296875-.544921875,4.373046875-.83984375,1.716796875-.2919921875,3.3740234375-.5048828125,4.97265625-.638671875,1.59765625-.1318359375,2.982421875-.091796875,4.154296875.119140625,1.171875.2138671875,1.81640625.7392578125,1.9375,1.578125l.658203125,4.61328125c3.328125-1.9951171875,7.109375-3.654296875,11.34375-4.9716796875Z" fill="#fff" stroke-width="0"/>
        </g>
      </g>
    </g>
  </a>
</svg>