<?xml version="1.0" encoding="UTF-8"?>
<svg xmlns="http://www.w3.org/2000/svg" width="280" height="280" xmlns:xlink="http://www.w3.org/1999/xlink" viewBox="0 0 280 280">
  <g id="Genral_2" data-name="Genral 2">
    <rect x="-2432.435833233270387" y="-1829.802274437080086" width="6875.234042553189283" height="4669.27659574467998" fill="#181818" stroke="#181818" stroke-miterlimit="10"/>
    <rect x="-2134.478386424760174" y="-1829.802274437080086" width="6875.234042553189283" height="4669.27659574467998" fill="#181818" stroke="#181818" stroke-miterlimit="10"/>
  </g>
  <g id="Pattern">
    <a xlink:href="https://www.notion.so/dmmnotes/disorientation-588ac5ef3d7b4514ac631e379aff4284?pvs=4">
      <g>
        <g id="AC">
          <g>
            <path d="M150.87353515625,44.0087890625c4.59765625.40234375,8.640625,1.50537109375,12.130859375,3.30908203125,3.490234375,1.8046875,6.44140625,4.0712890625,8.85546875,6.798828125,2.412109375,2.728515625,4.2646484375,5.7978515625,5.556640625,9.2080078125,1.2900390625,3.4091796875,2.03515625,6.9365234375,2.232421875,10.5791015625.1953125,3.64306640625-.1630859375,7.28125-1.0732421875,10.916015625-.9140625,3.63525390625-2.369140625,7.056640625-4.3662109375,10.2646484375-1.9970703125,3.208984375-4.57421875,6.08154296875-7.728515625,8.61865234375-3.158203125,2.53759765625-6.849609375,4.51708984375-11.0771484375,5.9375-2.0849609375.71337890625-4.275390625,1.20751953125-6.5732421875,1.4873046875-2.2978515625.2783203125-4.5791015625.28955078125-6.841796875.03076171875-1.728515625-.2265625-3.3173828125-.74365234375-4.767578125-1.55224609375-1.4501953125-.80908203125-2.2353515625-2.20751953125-2.3525390625-4.1953125-.0205078125-.66064453125.033203125-2.0234375.16015625-4.0859375.1259765625-2.06298828125.306640625-4.52685546875.54296875-7.3935546875.4833984375-7.89208984375,1.0419921875-15.779296875,1.6748046875-23.66259765625.6328125-7.8828125,1.17578125-16.01025390625,1.6298828125-24.38525390625-.03125-.4814453125.0859375-.92431640625.3515625-1.32861328125.201171875-.34765625.5048828125-.65869140625.912109375-.9345703125.4072265625-.27392578125,1.0322265625-.44580078125,1.876953125-.5146484375.6005859375-.0224609375,1.3232421875-.05419921875,2.1669921875-.09228515625.841796875-.03857421875,1.6806640625-.0322265625,2.51953125.01904296875.8359375.05126953125,1.6240234375.14453125,2.3681640625.2802734375.7412109375.13525390625,1.341796875.3681640625,1.8017578125.69580078125ZM149.85400390625,95.8876953125c3.2431640625-1.00146484375,6.0205078125-2.51171875,8.3359375-4.5302734375,2.3134765625-2.01904296875,4.1328125-4.29296875,5.4580078125-6.822265625,1.326171875-2.529296875,2.1025390625-5.16650390625,2.33203125-7.9140625.2265625-2.74560546875-.1357421875-5.3779296875-1.0908203125-7.8984375-.9580078125-2.5185546875-2.5439453125-4.79150390625-4.7587890625-6.81787109375-2.216796875-2.0263671875-5.123046875-3.5390625-8.71875-4.5400390625-.0947265625,6.416015625-.294921875,12.82470703125-.5966796875,19.2275390625-.3046875,6.4033203125-.6240234375,12.833984375-.9609375,19.29541015625Z" fill="#fff" stroke-width="0"/>
            <path d="M210.53759765625,114.81982421875c-3.828125-.23486328125-7.404296875-1.353515625-10.7314453125-3.35791015625-3.3291015625-2.00439453125-6.2041015625-4.791015625-8.625-8.36083984375-2.3134765625-3.38232421875-3.990234375-7.115234375-5.0302734375-11.2001953125-1.0400390625-4.083984375-1.427734375-8.279296875-1.1640625-12.58447265625.275390625-4.4833984375,1.1767578125-8.673828125,2.7060546875-12.57177734375,1.529296875-3.89697265625,3.646484375-7.3525390625,6.3515625-10.3681640625,2.8388671875-3.24658203125,6.033203125-5.67578125,9.5849609375-7.28955078125,3.5478515625-1.61181640625,7.2353515625-2.3017578125,11.0634765625-2.06689453125,3.884765625.23828125,7.4765625,1.37353515625,10.7734375,3.4052734375,3.2958984375,2.03369140625,6.154296875,4.83349609375,8.576171875,8.40283203125,2.3173828125,3.3232421875,3.982421875,7.0107421875,4.9951171875,11.06298828125,1.0107421875,4.05419921875,1.3798828125,8.322265625,1.1044921875,12.8056640625-.263671875,4.30517578125-1.146484375,8.4228515625-2.646484375,12.3505859375-1.501953125,3.9296875-3.607421875,7.4306640625-6.31640625,10.50537109375-2.83984375,3.2470703125-6.017578125,5.66259765625-9.5361328125,7.24755859375-3.517578125,1.58447265625-7.220703125,2.2578125-11.10546875,2.01953125ZM213.94677734375,59.93701171875c-1.9677734375-.12109375-3.8642578125.31884765625-5.6904296875,1.31640625-1.8271484375.99951171875-3.4697265625,2.42919921875-4.9306640625,4.28857421875-1.458984375,1.86181640625-2.6552734375,4.03857421875-3.5849609375,6.5322265625-.931640625,2.49462890625-1.484375,5.1748046875-1.66015625,8.04443359375-.171875,2.8115234375.05078125,5.51025390625.669921875,8.09814453125.619140625,2.58935546875,1.541015625,4.880859375,2.763671875,6.8759765625,1.224609375,1.99609375,2.681640625,3.6005859375,4.373046875,4.81396484375,1.6904296875,1.21484375,3.51953125,1.880859375,5.4873046875,2.001953125,1.966796875.1201171875,3.876953125-.31689453125,5.734375-1.314453125,1.85546875-.99560546875,3.5126953125-2.40966796875,4.9697265625-4.2412109375,1.4580078125-1.83056640625,2.6533203125-3.9921875,3.583984375-6.48681640625.9306640625-2.4931640625,1.4833984375-5.14404296875,1.6552734375-7.95556640625.17578125-2.86962890625-.046875-5.59765625-.6650390625-8.18701171875-.6201171875-2.58837890625-1.541015625-4.89501953125-2.7626953125-6.92138671875-1.220703125-2.02392578125-2.6923828125-3.64404296875-4.412109375-4.861328125-1.7216796875-1.21484375-3.564453125-1.8837890625-5.53125-2.00390625Z" fill="#fff" stroke-width="0"/>
          </g>
        </g>
        <g id="AC-2" data-name="AC">
          <g>
            <path d="M150.87353515625,44.0087890625c4.59765625.40234375,8.640625,1.50537109375,12.130859375,3.30908203125,3.490234375,1.8046875,6.44140625,4.0712890625,8.85546875,6.798828125,2.412109375,2.728515625,4.2646484375,5.7978515625,5.556640625,9.2080078125,1.2900390625,3.4091796875,2.03515625,6.9365234375,2.232421875,10.5791015625.1953125,3.64306640625-.1630859375,7.28125-1.0732421875,10.916015625-.9140625,3.63525390625-2.369140625,7.056640625-4.3662109375,10.2646484375-1.9970703125,3.208984375-4.57421875,6.08154296875-7.728515625,8.61865234375-3.158203125,2.53759765625-6.849609375,4.51708984375-11.0771484375,5.9375-2.0849609375.71337890625-4.275390625,1.20751953125-6.5732421875,1.4873046875-2.2978515625.2783203125-4.5791015625.28955078125-6.841796875.03076171875-1.728515625-.2265625-3.3173828125-.74365234375-4.767578125-1.55224609375-1.4501953125-.80908203125-2.2353515625-2.20751953125-2.3525390625-4.1953125-.0205078125-.66064453125.033203125-2.0234375.16015625-4.0859375.1259765625-2.06298828125.306640625-4.52685546875.54296875-7.3935546875.4833984375-7.89208984375,1.0419921875-15.779296875,1.6748046875-23.66259765625.6328125-7.8828125,1.17578125-16.01025390625,1.6298828125-24.38525390625-.03125-.4814453125.0859375-.92431640625.3515625-1.32861328125.201171875-.34765625.5048828125-.65869140625.912109375-.9345703125.4072265625-.27392578125,1.0322265625-.44580078125,1.876953125-.5146484375.6005859375-.0224609375,1.3232421875-.05419921875,2.1669921875-.09228515625.841796875-.03857421875,1.6806640625-.0322265625,2.51953125.01904296875.8359375.05126953125,1.6240234375.14453125,2.3681640625.2802734375.7412109375.13525390625,1.341796875.3681640625,1.8017578125.69580078125ZM149.85400390625,95.8876953125c3.2431640625-1.00146484375,6.0205078125-2.51171875,8.3359375-4.5302734375,2.3134765625-2.01904296875,4.1328125-4.29296875,5.4580078125-6.822265625,1.326171875-2.529296875,2.1025390625-5.16650390625,2.33203125-7.9140625.2265625-2.74560546875-.1357421875-5.3779296875-1.0908203125-7.8984375-.9580078125-2.5185546875-2.5439453125-4.79150390625-4.7587890625-6.81787109375-2.216796875-2.0263671875-5.123046875-3.5390625-8.71875-4.5400390625-.0947265625,6.416015625-.294921875,12.82470703125-.5966796875,19.2275390625-.3046875,6.4033203125-.6240234375,12.833984375-.9609375,19.29541015625Z" fill="none" stroke="#665450" stroke-linecap="round" stroke-linejoin="round" stroke-width="45"/>
            <path d="M210.53759765625,114.81982421875c-3.828125-.23486328125-7.404296875-1.353515625-10.7314453125-3.35791015625-3.3291015625-2.00439453125-6.2041015625-4.791015625-8.625-8.36083984375-2.3134765625-3.38232421875-3.990234375-7.115234375-5.0302734375-11.2001953125-1.0400390625-4.083984375-1.427734375-8.279296875-1.1640625-12.58447265625.275390625-4.4833984375,1.1767578125-8.673828125,2.7060546875-12.57177734375,1.529296875-3.89697265625,3.646484375-7.3525390625,6.3515625-10.3681640625,2.8388671875-3.24658203125,6.033203125-5.67578125,9.5849609375-7.28955078125,3.5478515625-1.61181640625,7.2353515625-2.3017578125,11.0634765625-2.06689453125,3.884765625.23828125,7.4765625,1.37353515625,10.7734375,3.4052734375,3.2958984375,2.03369140625,6.154296875,4.83349609375,8.576171875,8.40283203125,2.3173828125,3.3232421875,3.982421875,7.0107421875,4.9951171875,11.06298828125,1.0107421875,4.05419921875,1.3798828125,8.322265625,1.1044921875,12.8056640625-.263671875,4.30517578125-1.146484375,8.4228515625-2.646484375,12.3505859375-1.501953125,3.9296875-3.607421875,7.4306640625-6.31640625,10.50537109375-2.83984375,3.2470703125-6.017578125,5.66259765625-9.5361328125,7.24755859375-3.517578125,1.58447265625-7.220703125,2.2578125-11.10546875,2.01953125ZM213.94677734375,59.93701171875c-1.9677734375-.12109375-3.8642578125.31884765625-5.6904296875,1.31640625-1.8271484375.99951171875-3.4697265625,2.42919921875-4.9306640625,4.28857421875-1.458984375,1.86181640625-2.6552734375,4.03857421875-3.5849609375,6.5322265625-.931640625,2.49462890625-1.484375,5.1748046875-1.66015625,8.04443359375-.171875,2.8115234375.05078125,5.51025390625.669921875,8.09814453125.619140625,2.58935546875,1.541015625,4.880859375,2.763671875,6.8759765625,1.224609375,1.99609375,2.681640625,3.6005859375,4.373046875,4.81396484375,1.6904296875,1.21484375,3.51953125,1.880859375,5.4873046875,2.001953125,1.966796875.1201171875,3.876953125-.31689453125,5.734375-1.314453125,1.85546875-.99560546875,3.5126953125-2.40966796875,4.9697265625-4.2412109375,1.4580078125-1.83056640625,2.6533203125-3.9921875,3.583984375-6.48681640625.9306640625-2.4931640625,1.4833984375-5.14404296875,1.6552734375-7.95556640625.17578125-2.86962890625-.046875-5.59765625-.6650390625-8.18701171875-.6201171875-2.58837890625-1.541015625-4.89501953125-2.7626953125-6.92138671875-1.220703125-2.02392578125-2.6923828125-3.64404296875-4.412109375-4.861328125-1.7216796875-1.21484375-3.564453125-1.8837890625-5.53125-2.00390625Z" fill="none" stroke="#665450" stroke-linecap="round" stroke-linejoin="round" stroke-width="45"/>
          </g>
          <g>
            <path d="M150.87353515625,44.0087890625c4.59765625.40234375,8.640625,1.50537109375,12.130859375,3.30908203125,3.490234375,1.8046875,6.44140625,4.0712890625,8.85546875,6.798828125,2.412109375,2.728515625,4.2646484375,5.7978515625,5.556640625,9.2080078125,1.2900390625,3.4091796875,2.03515625,6.9365234375,2.232421875,10.5791015625.1953125,3.64306640625-.1630859375,7.28125-1.0732421875,10.916015625-.9140625,3.63525390625-2.369140625,7.056640625-4.3662109375,10.2646484375-1.9970703125,3.208984375-4.57421875,6.08154296875-7.728515625,8.61865234375-3.158203125,2.53759765625-6.849609375,4.51708984375-11.0771484375,5.9375-2.0849609375.71337890625-4.275390625,1.20751953125-6.5732421875,1.4873046875-2.2978515625.2783203125-4.5791015625.28955078125-6.841796875.03076171875-1.728515625-.2265625-3.3173828125-.74365234375-4.767578125-1.55224609375-1.4501953125-.80908203125-2.2353515625-2.20751953125-2.3525390625-4.1953125-.0205078125-.66064453125.033203125-2.0234375.16015625-4.0859375.1259765625-2.06298828125.306640625-4.52685546875.54296875-7.3935546875.4833984375-7.89208984375,1.0419921875-15.779296875,1.6748046875-23.66259765625.6328125-7.8828125,1.17578125-16.01025390625,1.6298828125-24.38525390625-.03125-.4814453125.0859375-.92431640625.3515625-1.32861328125.201171875-.34765625.5048828125-.65869140625.912109375-.9345703125.4072265625-.27392578125,1.0322265625-.44580078125,1.876953125-.5146484375.6005859375-.0224609375,1.3232421875-.05419921875,2.1669921875-.09228515625.841796875-.03857421875,1.6806640625-.0322265625,2.51953125.01904296875.8359375.05126953125,1.6240234375.14453125,2.3681640625.2802734375.7412109375.13525390625,1.341796875.3681640625,1.8017578125.69580078125ZM149.85400390625,95.8876953125c3.2431640625-1.00146484375,6.0205078125-2.51171875,8.3359375-4.5302734375,2.3134765625-2.01904296875,4.1328125-4.29296875,5.4580078125-6.822265625,1.326171875-2.529296875,2.1025390625-5.16650390625,2.33203125-7.9140625.2265625-2.74560546875-.1357421875-5.3779296875-1.0908203125-7.8984375-.9580078125-2.5185546875-2.5439453125-4.79150390625-4.7587890625-6.81787109375-2.216796875-2.0263671875-5.123046875-3.5390625-8.71875-4.5400390625-.0947265625,6.416015625-.294921875,12.82470703125-.5966796875,19.2275390625-.3046875,6.4033203125-.6240234375,12.833984375-.9609375,19.29541015625Z" fill="none" stroke="#665450" stroke-linecap="round" stroke-linejoin="round" stroke-width="45"/>
            <path d="M210.53759765625,114.81982421875c-3.828125-.23486328125-7.404296875-1.353515625-10.7314453125-3.35791015625-3.3291015625-2.00439453125-6.2041015625-4.791015625-8.625-8.36083984375-2.3134765625-3.38232421875-3.990234375-7.115234375-5.0302734375-11.2001953125-1.0400390625-4.083984375-1.427734375-8.279296875-1.1640625-12.58447265625.275390625-4.4833984375,1.1767578125-8.673828125,2.7060546875-12.57177734375,1.529296875-3.89697265625,3.646484375-7.3525390625,6.3515625-10.3681640625,2.8388671875-3.24658203125,6.033203125-5.67578125,9.5849609375-7.28955078125,3.5478515625-1.61181640625,7.2353515625-2.3017578125,11.0634765625-2.06689453125,3.884765625.23828125,7.4765625,1.37353515625,10.7734375,3.4052734375,3.2958984375,2.03369140625,6.154296875,4.83349609375,8.576171875,8.40283203125,2.3173828125,3.3232421875,3.982421875,7.0107421875,4.9951171875,11.06298828125,1.0107421875,4.05419921875,1.3798828125,8.322265625,1.1044921875,12.8056640625-.263671875,4.30517578125-1.146484375,8.4228515625-2.646484375,12.3505859375-1.501953125,3.9296875-3.607421875,7.4306640625-6.31640625,10.50537109375-2.83984375,3.2470703125-6.017578125,5.66259765625-9.5361328125,7.24755859375-3.517578125,1.58447265625-7.220703125,2.2578125-11.10546875,2.01953125ZM213.94677734375,59.93701171875c-1.9677734375-.12109375-3.8642578125.31884765625-5.6904296875,1.31640625-1.8271484375.99951171875-3.4697265625,2.42919921875-4.9306640625,4.28857421875-1.458984375,1.86181640625-2.6552734375,4.03857421875-3.5849609375,6.5322265625-.931640625,2.49462890625-1.484375,5.1748046875-1.66015625,8.04443359375-.171875,2.8115234375.05078125,5.51025390625.669921875,8.09814453125.619140625,2.58935546875,1.541015625,4.880859375,2.763671875,6.8759765625,1.224609375,1.99609375,2.681640625,3.6005859375,4.373046875,4.81396484375,1.6904296875,1.21484375,3.51953125,1.880859375,5.4873046875,2.001953125,1.966796875.1201171875,3.876953125-.31689453125,5.734375-1.314453125,1.85546875-.99560546875,3.5126953125-2.40966796875,4.9697265625-4.2412109375,1.4580078125-1.83056640625,2.6533203125-3.9921875,3.583984375-6.48681640625.9306640625-2.4931640625,1.4833984375-5.14404296875,1.6552734375-7.95556640625.17578125-2.86962890625-.046875-5.59765625-.6650390625-8.18701171875-.6201171875-2.58837890625-1.541015625-4.89501953125-2.7626953125-6.92138671875-1.220703125-2.02392578125-2.6923828125-3.64404296875-4.412109375-4.861328125-1.7216796875-1.21484375-3.564453125-1.8837890625-5.53125-2.00390625Z" fill="none" stroke="#665450" stroke-linecap="round" stroke-linejoin="round" stroke-width="45"/>
          </g>
          <g>
            <path d="M150.87353515625,44.0087890625c4.59765625.40234375,8.640625,1.50537109375,12.130859375,3.30908203125,3.490234375,1.8046875,6.44140625,4.0712890625,8.85546875,6.798828125,2.412109375,2.728515625,4.2646484375,5.7978515625,5.556640625,9.2080078125,1.2900390625,3.4091796875,2.03515625,6.9365234375,2.232421875,10.5791015625.1953125,3.64306640625-.1630859375,7.28125-1.0732421875,10.916015625-.9140625,3.63525390625-2.369140625,7.056640625-4.3662109375,10.2646484375-1.9970703125,3.208984375-4.57421875,6.08154296875-7.728515625,8.61865234375-3.158203125,2.53759765625-6.849609375,4.51708984375-11.0771484375,5.9375-2.0849609375.71337890625-4.275390625,1.20751953125-6.5732421875,1.4873046875-2.2978515625.2783203125-4.5791015625.28955078125-6.841796875.03076171875-1.728515625-.2265625-3.3173828125-.74365234375-4.767578125-1.55224609375-1.4501953125-.80908203125-2.2353515625-2.20751953125-2.3525390625-4.1953125-.0205078125-.66064453125.033203125-2.0234375.16015625-4.0859375.1259765625-2.06298828125.306640625-4.52685546875.54296875-7.3935546875.4833984375-7.89208984375,1.0419921875-15.779296875,1.6748046875-23.66259765625.6328125-7.8828125,1.17578125-16.01025390625,1.6298828125-24.38525390625-.03125-.4814453125.0859375-.92431640625.3515625-1.32861328125.201171875-.34765625.5048828125-.65869140625.912109375-.9345703125.4072265625-.27392578125,1.0322265625-.44580078125,1.876953125-.5146484375.6005859375-.0224609375,1.3232421875-.05419921875,2.1669921875-.09228515625.841796875-.03857421875,1.6806640625-.0322265625,2.51953125.01904296875.8359375.05126953125,1.6240234375.14453125,2.3681640625.2802734375.7412109375.13525390625,1.341796875.3681640625,1.8017578125.69580078125ZM149.85400390625,95.8876953125c3.2431640625-1.00146484375,6.0205078125-2.51171875,8.3359375-4.5302734375,2.3134765625-2.01904296875,4.1328125-4.29296875,5.4580078125-6.822265625,1.326171875-2.529296875,2.1025390625-5.16650390625,2.33203125-7.9140625.2265625-2.74560546875-.1357421875-5.3779296875-1.0908203125-7.8984375-.9580078125-2.5185546875-2.5439453125-4.79150390625-4.7587890625-6.81787109375-2.216796875-2.0263671875-5.123046875-3.5390625-8.71875-4.5400390625-.0947265625,6.416015625-.294921875,12.82470703125-.5966796875,19.2275390625-.3046875,6.4033203125-.6240234375,12.833984375-.9609375,19.29541015625Z" fill="none" stroke="#665450" stroke-linecap="round" stroke-linejoin="round" stroke-width="45"/>
            <path d="M210.53759765625,114.81982421875c-3.828125-.23486328125-7.404296875-1.353515625-10.7314453125-3.35791015625-3.3291015625-2.00439453125-6.2041015625-4.791015625-8.625-8.36083984375-2.3134765625-3.38232421875-3.990234375-7.115234375-5.0302734375-11.2001953125-1.0400390625-4.083984375-1.427734375-8.279296875-1.1640625-12.58447265625.275390625-4.4833984375,1.1767578125-8.673828125,2.7060546875-12.57177734375,1.529296875-3.89697265625,3.646484375-7.3525390625,6.3515625-10.3681640625,2.8388671875-3.24658203125,6.033203125-5.67578125,9.5849609375-7.28955078125,3.5478515625-1.61181640625,7.2353515625-2.3017578125,11.0634765625-2.06689453125,3.884765625.23828125,7.4765625,1.37353515625,10.7734375,3.4052734375,3.2958984375,2.03369140625,6.154296875,4.83349609375,8.576171875,8.40283203125,2.3173828125,3.3232421875,3.982421875,7.0107421875,4.9951171875,11.06298828125,1.0107421875,4.05419921875,1.3798828125,8.322265625,1.1044921875,12.8056640625-.263671875,4.30517578125-1.146484375,8.4228515625-2.646484375,12.3505859375-1.501953125,3.9296875-3.607421875,7.4306640625-6.31640625,10.50537109375-2.83984375,3.2470703125-6.017578125,5.66259765625-9.5361328125,7.24755859375-3.517578125,1.58447265625-7.220703125,2.2578125-11.10546875,2.01953125ZM213.94677734375,59.93701171875c-1.9677734375-.12109375-3.8642578125.31884765625-5.6904296875,1.31640625-1.8271484375.99951171875-3.4697265625,2.42919921875-4.9306640625,4.28857421875-1.458984375,1.86181640625-2.6552734375,4.03857421875-3.5849609375,6.5322265625-.931640625,2.49462890625-1.484375,5.1748046875-1.66015625,8.04443359375-.171875,2.8115234375.05078125,5.51025390625.669921875,8.09814453125.619140625,2.58935546875,1.541015625,4.880859375,2.763671875,6.8759765625,1.224609375,1.99609375,2.681640625,3.6005859375,4.373046875,4.81396484375,1.6904296875,1.21484375,3.51953125,1.880859375,5.4873046875,2.001953125,1.966796875.1201171875,3.876953125-.31689453125,5.734375-1.314453125,1.85546875-.99560546875,3.5126953125-2.40966796875,4.9697265625-4.2412109375,1.4580078125-1.83056640625,2.6533203125-3.9921875,3.583984375-6.48681640625.9306640625-2.4931640625,1.4833984375-5.14404296875,1.6552734375-7.95556640625.17578125-2.86962890625-.046875-5.59765625-.6650390625-8.18701171875-.6201171875-2.58837890625-1.541015625-4.89501953125-2.7626953125-6.92138671875-1.220703125-2.02392578125-2.6923828125-3.64404296875-4.412109375-4.861328125-1.7216796875-1.21484375-3.564453125-1.8837890625-5.53125-2.00390625Z" fill="none" stroke="#665450" stroke-linecap="round" stroke-linejoin="round" stroke-width="45"/>
          </g>
        </g>
        <g id="AC-3" data-name="AC">
          <g>
            <path d="M150.87353515625,44.0087890625c4.59765625.40234375,8.640625,1.50537109375,12.130859375,3.30908203125,3.490234375,1.8046875,6.44140625,4.0712890625,8.85546875,6.798828125,2.412109375,2.728515625,4.2646484375,5.7978515625,5.556640625,9.2080078125,1.2900390625,3.4091796875,2.03515625,6.9365234375,2.232421875,10.5791015625.1953125,3.64306640625-.1630859375,7.28125-1.0732421875,10.916015625-.9140625,3.63525390625-2.369140625,7.056640625-4.3662109375,10.2646484375-1.9970703125,3.208984375-4.57421875,6.08154296875-7.728515625,8.61865234375-3.158203125,2.53759765625-6.849609375,4.51708984375-11.0771484375,5.9375-2.0849609375.71337890625-4.275390625,1.20751953125-6.5732421875,1.4873046875-2.2978515625.2783203125-4.5791015625.28955078125-6.841796875.03076171875-1.728515625-.2265625-3.3173828125-.74365234375-4.767578125-1.55224609375-1.4501953125-.80908203125-2.2353515625-2.20751953125-2.3525390625-4.1953125-.0205078125-.66064453125.033203125-2.0234375.16015625-4.0859375.1259765625-2.06298828125.306640625-4.52685546875.54296875-7.3935546875.4833984375-7.89208984375,1.0419921875-15.779296875,1.6748046875-23.66259765625.6328125-7.8828125,1.17578125-16.01025390625,1.6298828125-24.38525390625-.03125-.4814453125.0859375-.92431640625.3515625-1.32861328125.201171875-.34765625.5048828125-.65869140625.912109375-.9345703125.4072265625-.27392578125,1.0322265625-.44580078125,1.876953125-.5146484375.6005859375-.0224609375,1.3232421875-.05419921875,2.1669921875-.09228515625.841796875-.03857421875,1.6806640625-.0322265625,2.51953125.01904296875.8359375.05126953125,1.6240234375.14453125,2.3681640625.2802734375.7412109375.13525390625,1.341796875.3681640625,1.8017578125.69580078125ZM149.85400390625,95.8876953125c3.2431640625-1.00146484375,6.0205078125-2.51171875,8.3359375-4.5302734375,2.3134765625-2.01904296875,4.1328125-4.29296875,5.4580078125-6.822265625,1.326171875-2.529296875,2.1025390625-5.16650390625,2.33203125-7.9140625.2265625-2.74560546875-.1357421875-5.3779296875-1.0908203125-7.8984375-.9580078125-2.5185546875-2.5439453125-4.79150390625-4.7587890625-6.81787109375-2.216796875-2.0263671875-5.123046875-3.5390625-8.71875-4.5400390625-.0947265625,6.416015625-.294921875,12.82470703125-.5966796875,19.2275390625-.3046875,6.4033203125-.6240234375,12.833984375-.9609375,19.29541015625Z" fill="none" stroke="#000" stroke-linecap="round" stroke-linejoin="round"/>
            <path d="M210.53759765625,114.81982421875c-3.828125-.23486328125-7.404296875-1.353515625-10.7314453125-3.35791015625-3.3291015625-2.00439453125-6.2041015625-4.791015625-8.625-8.36083984375-2.3134765625-3.38232421875-3.990234375-7.115234375-5.0302734375-11.2001953125-1.0400390625-4.083984375-1.427734375-8.279296875-1.1640625-12.58447265625.275390625-4.4833984375,1.1767578125-8.673828125,2.7060546875-12.57177734375,1.529296875-3.89697265625,3.646484375-7.3525390625,6.3515625-10.3681640625,2.8388671875-3.24658203125,6.033203125-5.67578125,9.5849609375-7.28955078125,3.5478515625-1.61181640625,7.2353515625-2.3017578125,11.0634765625-2.06689453125,3.884765625.23828125,7.4765625,1.37353515625,10.7734375,3.4052734375,3.2958984375,2.03369140625,6.154296875,4.83349609375,8.576171875,8.40283203125,2.3173828125,3.3232421875,3.982421875,7.0107421875,4.9951171875,11.06298828125,1.0107421875,4.05419921875,1.3798828125,8.322265625,1.1044921875,12.8056640625-.263671875,4.30517578125-1.146484375,8.4228515625-2.646484375,12.3505859375-1.501953125,3.9296875-3.607421875,7.4306640625-6.31640625,10.50537109375-2.83984375,3.2470703125-6.017578125,5.66259765625-9.5361328125,7.24755859375-3.517578125,1.58447265625-7.220703125,2.2578125-11.10546875,2.01953125ZM213.94677734375,59.93701171875c-1.9677734375-.12109375-3.8642578125.31884765625-5.6904296875,1.31640625-1.8271484375.99951171875-3.4697265625,2.42919921875-4.9306640625,4.28857421875-1.458984375,1.86181640625-2.6552734375,4.03857421875-3.5849609375,6.5322265625-.931640625,2.49462890625-1.484375,5.1748046875-1.66015625,8.04443359375-.171875,2.8115234375.05078125,5.51025390625.669921875,8.09814453125.619140625,2.58935546875,1.541015625,4.880859375,2.763671875,6.8759765625,1.224609375,1.99609375,2.681640625,3.6005859375,4.373046875,4.81396484375,1.6904296875,1.21484375,3.51953125,1.880859375,5.4873046875,2.001953125,1.966796875.1201171875,3.876953125-.31689453125,5.734375-1.314453125,1.85546875-.99560546875,3.5126953125-2.40966796875,4.9697265625-4.2412109375,1.4580078125-1.83056640625,2.6533203125-3.9921875,3.583984375-6.48681640625.9306640625-2.4931640625,1.4833984375-5.14404296875,1.6552734375-7.95556640625.17578125-2.86962890625-.046875-5.59765625-.6650390625-8.18701171875-.6201171875-2.58837890625-1.541015625-4.89501953125-2.7626953125-6.92138671875-1.220703125-2.02392578125-2.6923828125-3.64404296875-4.412109375-4.861328125-1.7216796875-1.21484375-3.564453125-1.8837890625-5.53125-2.00390625Z" fill="none" stroke="#000" stroke-linecap="round" stroke-linejoin="round"/>
          </g>
          <g>
            <path d="M150.87353515625,44.0087890625c4.59765625.40234375,8.640625,1.50537109375,12.130859375,3.30908203125,3.490234375,1.8046875,6.44140625,4.0712890625,8.85546875,6.798828125,2.412109375,2.728515625,4.2646484375,5.7978515625,5.556640625,9.2080078125,1.2900390625,3.4091796875,2.03515625,6.9365234375,2.232421875,10.5791015625.1953125,3.64306640625-.1630859375,7.28125-1.0732421875,10.916015625-.9140625,3.63525390625-2.369140625,7.056640625-4.3662109375,10.2646484375-1.9970703125,3.208984375-4.57421875,6.08154296875-7.728515625,8.61865234375-3.158203125,2.53759765625-6.849609375,4.51708984375-11.0771484375,5.9375-2.0849609375.71337890625-4.275390625,1.20751953125-6.5732421875,1.4873046875-2.2978515625.2783203125-4.5791015625.28955078125-6.841796875.03076171875-1.728515625-.2265625-3.3173828125-.74365234375-4.767578125-1.55224609375-1.4501953125-.80908203125-2.2353515625-2.20751953125-2.3525390625-4.1953125-.0205078125-.66064453125.033203125-2.0234375.16015625-4.0859375.1259765625-2.06298828125.306640625-4.52685546875.54296875-7.3935546875.4833984375-7.89208984375,1.0419921875-15.779296875,1.6748046875-23.66259765625.6328125-7.8828125,1.17578125-16.01025390625,1.6298828125-24.38525390625-.03125-.4814453125.0859375-.92431640625.3515625-1.32861328125.201171875-.34765625.5048828125-.65869140625.912109375-.9345703125.4072265625-.27392578125,1.0322265625-.44580078125,1.876953125-.5146484375.6005859375-.0224609375,1.3232421875-.05419921875,2.1669921875-.09228515625.841796875-.03857421875,1.6806640625-.0322265625,2.51953125.01904296875.8359375.05126953125,1.6240234375.14453125,2.3681640625.2802734375.7412109375.13525390625,1.341796875.3681640625,1.8017578125.69580078125ZM149.85400390625,95.8876953125c3.2431640625-1.00146484375,6.0205078125-2.51171875,8.3359375-4.5302734375,2.3134765625-2.01904296875,4.1328125-4.29296875,5.4580078125-6.822265625,1.326171875-2.529296875,2.1025390625-5.16650390625,2.33203125-7.9140625.2265625-2.74560546875-.1357421875-5.3779296875-1.0908203125-7.8984375-.9580078125-2.5185546875-2.5439453125-4.79150390625-4.7587890625-6.81787109375-2.216796875-2.0263671875-5.123046875-3.5390625-8.71875-4.5400390625-.0947265625,6.416015625-.294921875,12.82470703125-.5966796875,19.2275390625-.3046875,6.4033203125-.6240234375,12.833984375-.9609375,19.29541015625Z" fill="none" stroke="#000" stroke-linecap="round" stroke-linejoin="round"/>
            <path d="M210.53759765625,114.81982421875c-3.828125-.23486328125-7.404296875-1.353515625-10.7314453125-3.35791015625-3.3291015625-2.00439453125-6.2041015625-4.791015625-8.625-8.36083984375-2.3134765625-3.38232421875-3.990234375-7.115234375-5.0302734375-11.2001953125-1.0400390625-4.083984375-1.427734375-8.279296875-1.1640625-12.58447265625.275390625-4.4833984375,1.1767578125-8.673828125,2.7060546875-12.57177734375,1.529296875-3.89697265625,3.646484375-7.3525390625,6.3515625-10.3681640625,2.8388671875-3.24658203125,6.033203125-5.67578125,9.5849609375-7.28955078125,3.5478515625-1.61181640625,7.2353515625-2.3017578125,11.0634765625-2.06689453125,3.884765625.23828125,7.4765625,1.37353515625,10.7734375,3.4052734375,3.2958984375,2.03369140625,6.154296875,4.83349609375,8.576171875,8.40283203125,2.3173828125,3.3232421875,3.982421875,7.0107421875,4.9951171875,11.06298828125,1.0107421875,4.05419921875,1.3798828125,8.322265625,1.1044921875,12.8056640625-.263671875,4.30517578125-1.146484375,8.4228515625-2.646484375,12.3505859375-1.501953125,3.9296875-3.607421875,7.4306640625-6.31640625,10.50537109375-2.83984375,3.2470703125-6.017578125,5.66259765625-9.5361328125,7.24755859375-3.517578125,1.58447265625-7.220703125,2.2578125-11.10546875,2.01953125ZM213.94677734375,59.93701171875c-1.9677734375-.12109375-3.8642578125.31884765625-5.6904296875,1.31640625-1.8271484375.99951171875-3.4697265625,2.42919921875-4.9306640625,4.28857421875-1.458984375,1.86181640625-2.6552734375,4.03857421875-3.5849609375,6.5322265625-.931640625,2.49462890625-1.484375,5.1748046875-1.66015625,8.04443359375-.171875,2.8115234375.05078125,5.51025390625.669921875,8.09814453125.619140625,2.58935546875,1.541015625,4.880859375,2.763671875,6.8759765625,1.224609375,1.99609375,2.681640625,3.6005859375,4.373046875,4.81396484375,1.6904296875,1.21484375,3.51953125,1.880859375,5.4873046875,2.001953125,1.966796875.1201171875,3.876953125-.31689453125,5.734375-1.314453125,1.85546875-.99560546875,3.5126953125-2.40966796875,4.9697265625-4.2412109375,1.4580078125-1.83056640625,2.6533203125-3.9921875,3.583984375-6.48681640625.9306640625-2.4931640625,1.4833984375-5.14404296875,1.6552734375-7.95556640625.17578125-2.86962890625-.046875-5.59765625-.6650390625-8.18701171875-.6201171875-2.58837890625-1.541015625-4.89501953125-2.7626953125-6.92138671875-1.220703125-2.02392578125-2.6923828125-3.64404296875-4.412109375-4.861328125-1.7216796875-1.21484375-3.564453125-1.8837890625-5.53125-2.00390625Z" fill="none" stroke="#000" stroke-linecap="round" stroke-linejoin="round"/>
          </g>
          <g>
            <path d="M150.87353515625,44.0087890625c4.59765625.40234375,8.640625,1.50537109375,12.130859375,3.30908203125,3.490234375,1.8046875,6.44140625,4.0712890625,8.85546875,6.798828125,2.412109375,2.728515625,4.2646484375,5.7978515625,5.556640625,9.2080078125,1.2900390625,3.4091796875,2.03515625,6.9365234375,2.232421875,10.5791015625.1953125,3.64306640625-.1630859375,7.28125-1.0732421875,10.916015625-.9140625,3.63525390625-2.369140625,7.056640625-4.3662109375,10.2646484375-1.9970703125,3.208984375-4.57421875,6.08154296875-7.728515625,8.61865234375-3.158203125,2.53759765625-6.849609375,4.51708984375-11.0771484375,5.9375-2.0849609375.71337890625-4.275390625,1.20751953125-6.5732421875,1.4873046875-2.2978515625.2783203125-4.5791015625.28955078125-6.841796875.03076171875-1.728515625-.2265625-3.3173828125-.74365234375-4.767578125-1.55224609375-1.4501953125-.80908203125-2.2353515625-2.20751953125-2.3525390625-4.1953125-.0205078125-.66064453125.033203125-2.0234375.16015625-4.0859375.1259765625-2.06298828125.306640625-4.52685546875.54296875-7.3935546875.4833984375-7.89208984375,1.0419921875-15.779296875,1.6748046875-23.66259765625.6328125-7.8828125,1.17578125-16.01025390625,1.6298828125-24.38525390625-.03125-.4814453125.0859375-.92431640625.3515625-1.32861328125.201171875-.34765625.5048828125-.65869140625.912109375-.9345703125.4072265625-.27392578125,1.0322265625-.44580078125,1.876953125-.5146484375.6005859375-.0224609375,1.3232421875-.05419921875,2.1669921875-.09228515625.841796875-.03857421875,1.6806640625-.0322265625,2.51953125.01904296875.8359375.05126953125,1.6240234375.14453125,2.3681640625.2802734375.7412109375.13525390625,1.341796875.3681640625,1.8017578125.69580078125ZM149.85400390625,95.8876953125c3.2431640625-1.00146484375,6.0205078125-2.51171875,8.3359375-4.5302734375,2.3134765625-2.01904296875,4.1328125-4.29296875,5.4580078125-6.822265625,1.326171875-2.529296875,2.1025390625-5.16650390625,2.33203125-7.9140625.2265625-2.74560546875-.1357421875-5.3779296875-1.0908203125-7.8984375-.9580078125-2.5185546875-2.5439453125-4.79150390625-4.7587890625-6.81787109375-2.216796875-2.0263671875-5.123046875-3.5390625-8.71875-4.5400390625-.0947265625,6.416015625-.294921875,12.82470703125-.5966796875,19.2275390625-.3046875,6.4033203125-.6240234375,12.833984375-.9609375,19.29541015625Z" fill="none" stroke="#000" stroke-linecap="round" stroke-linejoin="round"/>
            <path d="M210.53759765625,114.81982421875c-3.828125-.23486328125-7.404296875-1.353515625-10.7314453125-3.35791015625-3.3291015625-2.00439453125-6.2041015625-4.791015625-8.625-8.36083984375-2.3134765625-3.38232421875-3.990234375-7.115234375-5.0302734375-11.2001953125-1.0400390625-4.083984375-1.427734375-8.279296875-1.1640625-12.58447265625.275390625-4.4833984375,1.1767578125-8.673828125,2.7060546875-12.57177734375,1.529296875-3.89697265625,3.646484375-7.3525390625,6.3515625-10.3681640625,2.8388671875-3.24658203125,6.033203125-5.67578125,9.5849609375-7.28955078125,3.5478515625-1.61181640625,7.2353515625-2.3017578125,11.0634765625-2.06689453125,3.884765625.23828125,7.4765625,1.37353515625,10.7734375,3.4052734375,3.2958984375,2.03369140625,6.154296875,4.83349609375,8.576171875,8.40283203125,2.3173828125,3.3232421875,3.982421875,7.0107421875,4.9951171875,11.06298828125,1.0107421875,4.05419921875,1.3798828125,8.322265625,1.1044921875,12.8056640625-.263671875,4.30517578125-1.146484375,8.4228515625-2.646484375,12.3505859375-1.501953125,3.9296875-3.607421875,7.4306640625-6.31640625,10.50537109375-2.83984375,3.2470703125-6.017578125,5.66259765625-9.5361328125,7.24755859375-3.517578125,1.58447265625-7.220703125,2.2578125-11.10546875,2.01953125ZM213.94677734375,59.93701171875c-1.9677734375-.12109375-3.8642578125.31884765625-5.6904296875,1.31640625-1.8271484375.99951171875-3.4697265625,2.42919921875-4.9306640625,4.28857421875-1.458984375,1.86181640625-2.6552734375,4.03857421875-3.5849609375,6.5322265625-.931640625,2.49462890625-1.484375,5.1748046875-1.66015625,8.04443359375-.171875,2.8115234375.05078125,5.51025390625.669921875,8.09814453125.619140625,2.58935546875,1.541015625,4.880859375,2.763671875,6.8759765625,1.224609375,1.99609375,2.681640625,3.6005859375,4.373046875,4.81396484375,1.6904296875,1.21484375,3.51953125,1.880859375,5.4873046875,2.001953125,1.966796875.1201171875,3.876953125-.31689453125,5.734375-1.314453125,1.85546875-.99560546875,3.5126953125-2.40966796875,4.9697265625-4.2412109375,1.4580078125-1.83056640625,2.6533203125-3.9921875,3.583984375-6.48681640625.9306640625-2.4931640625,1.4833984375-5.14404296875,1.6552734375-7.95556640625.17578125-2.86962890625-.046875-5.59765625-.6650390625-8.18701171875-.6201171875-2.58837890625-1.541015625-4.89501953125-2.7626953125-6.92138671875-1.220703125-2.02392578125-2.6923828125-3.64404296875-4.412109375-4.861328125-1.7216796875-1.21484375-3.564453125-1.8837890625-5.53125-2.00390625Z" fill="none" stroke="#000" stroke-linecap="round" stroke-linejoin="round"/>
          </g>
        </g>
        <g id="AC-4" data-name="AC">
          <g>
            <path d="M150.87353515625,44.0087890625c4.59765625.40234375,8.640625,1.50537109375,12.130859375,3.30908203125,3.490234375,1.8046875,6.44140625,4.0712890625,8.85546875,6.798828125,2.412109375,2.728515625,4.2646484375,5.7978515625,5.556640625,9.2080078125,1.2900390625,3.4091796875,2.03515625,6.9365234375,2.232421875,10.5791015625.1953125,3.64306640625-.1630859375,7.28125-1.0732421875,10.916015625-.9140625,3.63525390625-2.369140625,7.056640625-4.3662109375,10.2646484375-1.9970703125,3.208984375-4.57421875,6.08154296875-7.728515625,8.61865234375-3.158203125,2.53759765625-6.849609375,4.51708984375-11.0771484375,5.9375-2.0849609375.71337890625-4.275390625,1.20751953125-6.5732421875,1.4873046875-2.2978515625.2783203125-4.5791015625.28955078125-6.841796875.03076171875-1.728515625-.2265625-3.3173828125-.74365234375-4.767578125-1.55224609375-1.4501953125-.80908203125-2.2353515625-2.20751953125-2.3525390625-4.1953125-.0205078125-.66064453125.033203125-2.0234375.16015625-4.0859375.1259765625-2.06298828125.306640625-4.52685546875.54296875-7.3935546875.4833984375-7.89208984375,1.0419921875-15.779296875,1.6748046875-23.66259765625.6328125-7.8828125,1.17578125-16.01025390625,1.6298828125-24.38525390625-.03125-.4814453125.0859375-.92431640625.3515625-1.32861328125.201171875-.34765625.5048828125-.65869140625.912109375-.9345703125.4072265625-.27392578125,1.0322265625-.44580078125,1.876953125-.5146484375.6005859375-.0224609375,1.3232421875-.05419921875,2.1669921875-.09228515625.841796875-.03857421875,1.6806640625-.0322265625,2.51953125.01904296875.8359375.05126953125,1.6240234375.14453125,2.3681640625.2802734375.7412109375.13525390625,1.341796875.3681640625,1.8017578125.69580078125ZM149.85400390625,95.8876953125c3.2431640625-1.00146484375,6.0205078125-2.51171875,8.3359375-4.5302734375,2.3134765625-2.01904296875,4.1328125-4.29296875,5.4580078125-6.822265625,1.326171875-2.529296875,2.1025390625-5.16650390625,2.33203125-7.9140625.2265625-2.74560546875-.1357421875-5.3779296875-1.0908203125-7.8984375-.9580078125-2.5185546875-2.5439453125-4.79150390625-4.7587890625-6.81787109375-2.216796875-2.0263671875-5.123046875-3.5390625-8.71875-4.5400390625-.0947265625,6.416015625-.294921875,12.82470703125-.5966796875,19.2275390625-.3046875,6.4033203125-.6240234375,12.833984375-.9609375,19.29541015625Z" fill="#fff" stroke-width="0"/>
            <path d="M210.53759765625,114.81982421875c-3.828125-.23486328125-7.404296875-1.353515625-10.7314453125-3.35791015625-3.3291015625-2.00439453125-6.2041015625-4.791015625-8.625-8.36083984375-2.3134765625-3.38232421875-3.990234375-7.115234375-5.0302734375-11.2001953125-1.0400390625-4.083984375-1.427734375-8.279296875-1.1640625-12.58447265625.275390625-4.4833984375,1.1767578125-8.673828125,2.7060546875-12.57177734375,1.529296875-3.89697265625,3.646484375-7.3525390625,6.3515625-10.3681640625,2.8388671875-3.24658203125,6.033203125-5.67578125,9.5849609375-7.28955078125,3.5478515625-1.61181640625,7.2353515625-2.3017578125,11.0634765625-2.06689453125,3.884765625.23828125,7.4765625,1.37353515625,10.7734375,3.4052734375,3.2958984375,2.03369140625,6.154296875,4.83349609375,8.576171875,8.40283203125,2.3173828125,3.3232421875,3.982421875,7.0107421875,4.9951171875,11.06298828125,1.0107421875,4.05419921875,1.3798828125,8.322265625,1.1044921875,12.8056640625-.263671875,4.30517578125-1.146484375,8.4228515625-2.646484375,12.3505859375-1.501953125,3.9296875-3.607421875,7.4306640625-6.31640625,10.50537109375-2.83984375,3.2470703125-6.017578125,5.66259765625-9.5361328125,7.24755859375-3.517578125,1.58447265625-7.220703125,2.2578125-11.10546875,2.01953125ZM213.94677734375,59.93701171875c-1.9677734375-.12109375-3.8642578125.31884765625-5.6904296875,1.31640625-1.8271484375.99951171875-3.4697265625,2.42919921875-4.9306640625,4.28857421875-1.458984375,1.86181640625-2.6552734375,4.03857421875-3.5849609375,6.5322265625-.931640625,2.49462890625-1.484375,5.1748046875-1.66015625,8.04443359375-.171875,2.8115234375.05078125,5.51025390625.669921875,8.09814453125.619140625,2.58935546875,1.541015625,4.880859375,2.763671875,6.8759765625,1.224609375,1.99609375,2.681640625,3.6005859375,4.373046875,4.81396484375,1.6904296875,1.21484375,3.51953125,1.880859375,5.4873046875,2.001953125,1.966796875.1201171875,3.876953125-.31689453125,5.734375-1.314453125,1.85546875-.99560546875,3.5126953125-2.40966796875,4.9697265625-4.2412109375,1.4580078125-1.83056640625,2.6533203125-3.9921875,3.583984375-6.48681640625.9306640625-2.4931640625,1.4833984375-5.14404296875,1.6552734375-7.95556640625.17578125-2.86962890625-.046875-5.59765625-.6650390625-8.18701171875-.6201171875-2.58837890625-1.541015625-4.89501953125-2.7626953125-6.92138671875-1.220703125-2.02392578125-2.6923828125-3.64404296875-4.412109375-4.861328125-1.7216796875-1.21484375-3.564453125-1.8837890625-5.53125-2.00390625Z" fill="#fff" stroke-width="0"/>
          </g>
          <g>
            <path d="M150.87353515625,44.0087890625c4.59765625.40234375,8.640625,1.50537109375,12.130859375,3.30908203125,3.490234375,1.8046875,6.44140625,4.0712890625,8.85546875,6.798828125,2.412109375,2.728515625,4.2646484375,5.7978515625,5.556640625,9.2080078125,1.2900390625,3.4091796875,2.03515625,6.9365234375,2.232421875,10.5791015625.1953125,3.64306640625-.1630859375,7.28125-1.0732421875,10.916015625-.9140625,3.63525390625-2.369140625,7.056640625-4.3662109375,10.2646484375-1.9970703125,3.208984375-4.57421875,6.08154296875-7.728515625,8.61865234375-3.158203125,2.53759765625-6.849609375,4.51708984375-11.0771484375,5.9375-2.0849609375.71337890625-4.275390625,1.20751953125-6.5732421875,1.4873046875-2.2978515625.2783203125-4.5791015625.28955078125-6.841796875.03076171875-1.728515625-.2265625-3.3173828125-.74365234375-4.767578125-1.55224609375-1.4501953125-.80908203125-2.2353515625-2.20751953125-2.3525390625-4.1953125-.0205078125-.66064453125.033203125-2.0234375.16015625-4.0859375.1259765625-2.06298828125.306640625-4.52685546875.54296875-7.3935546875.4833984375-7.89208984375,1.0419921875-15.779296875,1.6748046875-23.66259765625.6328125-7.8828125,1.17578125-16.01025390625,1.6298828125-24.38525390625-.03125-.4814453125.0859375-.92431640625.3515625-1.32861328125.201171875-.34765625.5048828125-.65869140625.912109375-.9345703125.4072265625-.27392578125,1.0322265625-.44580078125,1.876953125-.5146484375.6005859375-.0224609375,1.3232421875-.05419921875,2.1669921875-.09228515625.841796875-.03857421875,1.6806640625-.0322265625,2.51953125.01904296875.8359375.05126953125,1.6240234375.14453125,2.3681640625.2802734375.7412109375.13525390625,1.341796875.3681640625,1.8017578125.69580078125ZM149.85400390625,95.8876953125c3.2431640625-1.00146484375,6.0205078125-2.51171875,8.3359375-4.5302734375,2.3134765625-2.01904296875,4.1328125-4.29296875,5.4580078125-6.822265625,1.326171875-2.529296875,2.1025390625-5.16650390625,2.33203125-7.9140625.2265625-2.74560546875-.1357421875-5.3779296875-1.0908203125-7.8984375-.9580078125-2.5185546875-2.5439453125-4.79150390625-4.7587890625-6.81787109375-2.216796875-2.0263671875-5.123046875-3.5390625-8.71875-4.5400390625-.0947265625,6.416015625-.294921875,12.82470703125-.5966796875,19.2275390625-.3046875,6.4033203125-.6240234375,12.833984375-.9609375,19.29541015625Z" fill="#fff" stroke-width="0"/>
            <path d="M210.53759765625,114.81982421875c-3.828125-.23486328125-7.404296875-1.353515625-10.7314453125-3.35791015625-3.3291015625-2.00439453125-6.2041015625-4.791015625-8.625-8.36083984375-2.3134765625-3.38232421875-3.990234375-7.115234375-5.0302734375-11.2001953125-1.0400390625-4.083984375-1.427734375-8.279296875-1.1640625-12.58447265625.275390625-4.4833984375,1.1767578125-8.673828125,2.7060546875-12.57177734375,1.529296875-3.89697265625,3.646484375-7.3525390625,6.3515625-10.3681640625,2.8388671875-3.24658203125,6.033203125-5.67578125,9.5849609375-7.28955078125,3.5478515625-1.61181640625,7.2353515625-2.3017578125,11.0634765625-2.06689453125,3.884765625.23828125,7.4765625,1.37353515625,10.7734375,3.4052734375,3.2958984375,2.03369140625,6.154296875,4.83349609375,8.576171875,8.40283203125,2.3173828125,3.3232421875,3.982421875,7.0107421875,4.9951171875,11.06298828125,1.0107421875,4.05419921875,1.3798828125,8.322265625,1.1044921875,12.8056640625-.263671875,4.30517578125-1.146484375,8.4228515625-2.646484375,12.3505859375-1.501953125,3.9296875-3.607421875,7.4306640625-6.31640625,10.50537109375-2.83984375,3.2470703125-6.017578125,5.66259765625-9.5361328125,7.24755859375-3.517578125,1.58447265625-7.220703125,2.2578125-11.10546875,2.01953125ZM213.94677734375,59.93701171875c-1.9677734375-.12109375-3.8642578125.31884765625-5.6904296875,1.31640625-1.8271484375.99951171875-3.4697265625,2.42919921875-4.9306640625,4.28857421875-1.458984375,1.86181640625-2.6552734375,4.03857421875-3.5849609375,6.5322265625-.931640625,2.49462890625-1.484375,5.1748046875-1.66015625,8.04443359375-.171875,2.8115234375.05078125,5.51025390625.669921875,8.09814453125.619140625,2.58935546875,1.541015625,4.880859375,2.763671875,6.8759765625,1.224609375,1.99609375,2.681640625,3.6005859375,4.373046875,4.81396484375,1.6904296875,1.21484375,3.51953125,1.880859375,5.4873046875,2.001953125,1.966796875.1201171875,3.876953125-.31689453125,5.734375-1.314453125,1.85546875-.99560546875,3.5126953125-2.40966796875,4.9697265625-4.2412109375,1.4580078125-1.83056640625,2.6533203125-3.9921875,3.583984375-6.48681640625.9306640625-2.4931640625,1.4833984375-5.14404296875,1.6552734375-7.95556640625.17578125-2.86962890625-.046875-5.59765625-.6650390625-8.18701171875-.6201171875-2.58837890625-1.541015625-4.89501953125-2.7626953125-6.92138671875-1.220703125-2.02392578125-2.6923828125-3.64404296875-4.412109375-4.861328125-1.7216796875-1.21484375-3.564453125-1.8837890625-5.53125-2.00390625Z" fill="#fff" stroke-width="0"/>
          </g>
          <g>
            <path d="M150.87353515625,44.0087890625c4.59765625.40234375,8.640625,1.50537109375,12.130859375,3.30908203125,3.490234375,1.8046875,6.44140625,4.0712890625,8.85546875,6.798828125,2.412109375,2.728515625,4.2646484375,5.7978515625,5.556640625,9.2080078125,1.2900390625,3.4091796875,2.03515625,6.9365234375,2.232421875,10.5791015625.1953125,3.64306640625-.1630859375,7.28125-1.0732421875,10.916015625-.9140625,3.63525390625-2.369140625,7.056640625-4.3662109375,10.2646484375-1.9970703125,3.208984375-4.57421875,6.08154296875-7.728515625,8.61865234375-3.158203125,2.53759765625-6.849609375,4.51708984375-11.0771484375,5.9375-2.0849609375.71337890625-4.275390625,1.20751953125-6.5732421875,1.4873046875-2.2978515625.2783203125-4.5791015625.28955078125-6.841796875.03076171875-1.728515625-.2265625-3.3173828125-.74365234375-4.767578125-1.55224609375-1.4501953125-.80908203125-2.2353515625-2.20751953125-2.3525390625-4.1953125-.0205078125-.66064453125.033203125-2.0234375.16015625-4.0859375.1259765625-2.06298828125.306640625-4.52685546875.54296875-7.3935546875.4833984375-7.89208984375,1.0419921875-15.779296875,1.6748046875-23.66259765625.6328125-7.8828125,1.17578125-16.01025390625,1.6298828125-24.38525390625-.03125-.4814453125.0859375-.92431640625.3515625-1.32861328125.201171875-.34765625.5048828125-.65869140625.912109375-.9345703125.4072265625-.27392578125,1.0322265625-.44580078125,1.876953125-.5146484375.6005859375-.0224609375,1.3232421875-.05419921875,2.1669921875-.09228515625.841796875-.03857421875,1.6806640625-.0322265625,2.51953125.01904296875.8359375.05126953125,1.6240234375.14453125,2.3681640625.2802734375.7412109375.13525390625,1.341796875.3681640625,1.8017578125.69580078125ZM149.85400390625,95.8876953125c3.2431640625-1.00146484375,6.0205078125-2.51171875,8.3359375-4.5302734375,2.3134765625-2.01904296875,4.1328125-4.29296875,5.4580078125-6.822265625,1.326171875-2.529296875,2.1025390625-5.16650390625,2.33203125-7.9140625.2265625-2.74560546875-.1357421875-5.3779296875-1.0908203125-7.8984375-.9580078125-2.5185546875-2.5439453125-4.79150390625-4.7587890625-6.81787109375-2.216796875-2.0263671875-5.123046875-3.5390625-8.71875-4.5400390625-.0947265625,6.416015625-.294921875,12.82470703125-.5966796875,19.2275390625-.3046875,6.4033203125-.6240234375,12.833984375-.9609375,19.29541015625Z" fill="#fff" stroke-width="0"/>
            <path d="M210.53759765625,114.81982421875c-3.828125-.23486328125-7.404296875-1.353515625-10.7314453125-3.35791015625-3.3291015625-2.00439453125-6.2041015625-4.791015625-8.625-8.36083984375-2.3134765625-3.38232421875-3.990234375-7.115234375-5.0302734375-11.2001953125-1.0400390625-4.083984375-1.427734375-8.279296875-1.1640625-12.58447265625.275390625-4.4833984375,1.1767578125-8.673828125,2.7060546875-12.57177734375,1.529296875-3.89697265625,3.646484375-7.3525390625,6.3515625-10.3681640625,2.8388671875-3.24658203125,6.033203125-5.67578125,9.5849609375-7.28955078125,3.5478515625-1.61181640625,7.2353515625-2.3017578125,11.0634765625-2.06689453125,3.884765625.23828125,7.4765625,1.37353515625,10.7734375,3.4052734375,3.2958984375,2.03369140625,6.154296875,4.83349609375,8.576171875,8.40283203125,2.3173828125,3.3232421875,3.982421875,7.0107421875,4.9951171875,11.06298828125,1.0107421875,4.05419921875,1.3798828125,8.322265625,1.1044921875,12.8056640625-.263671875,4.30517578125-1.146484375,8.4228515625-2.646484375,12.3505859375-1.501953125,3.9296875-3.607421875,7.4306640625-6.31640625,10.50537109375-2.83984375,3.2470703125-6.017578125,5.66259765625-9.5361328125,7.24755859375-3.517578125,1.58447265625-7.220703125,2.2578125-11.10546875,2.01953125ZM213.94677734375,59.93701171875c-1.9677734375-.12109375-3.8642578125.31884765625-5.6904296875,1.31640625-1.8271484375.99951171875-3.4697265625,2.42919921875-4.9306640625,4.28857421875-1.458984375,1.86181640625-2.6552734375,4.03857421875-3.5849609375,6.5322265625-.931640625,2.49462890625-1.484375,5.1748046875-1.66015625,8.04443359375-.171875,2.8115234375.05078125,5.51025390625.669921875,8.09814453125.619140625,2.58935546875,1.541015625,4.880859375,2.763671875,6.8759765625,1.224609375,1.99609375,2.681640625,3.6005859375,4.373046875,4.81396484375,1.6904296875,1.21484375,3.51953125,1.880859375,5.4873046875,2.001953125,1.966796875.1201171875,3.876953125-.31689453125,5.734375-1.314453125,1.85546875-.99560546875,3.5126953125-2.40966796875,4.9697265625-4.2412109375,1.4580078125-1.83056640625,2.6533203125-3.9921875,3.583984375-6.48681640625.9306640625-2.4931640625,1.4833984375-5.14404296875,1.6552734375-7.95556640625.17578125-2.86962890625-.046875-5.59765625-.6650390625-8.18701171875-.6201171875-2.58837890625-1.541015625-4.89501953125-2.7626953125-6.92138671875-1.220703125-2.02392578125-2.6923828125-3.64404296875-4.412109375-4.861328125-1.7216796875-1.21484375-3.564453125-1.8837890625-5.53125-2.00390625Z" fill="#fff" stroke-width="0"/>
          </g>
        </g>
      </g>
    </a>
    <g>
      <g>
        <path d="M108.692192566714766,244.311972683212844c-.595436378945124-.494892772043386-.606776233520577-1.238047595627904-.773730092845653-1.900191516669111-2.826328352729433-11.209088615495602-5.613848623046579-22.427991786998064-8.463350985711259-33.631157463408272-2.379724589645775-9.356179048730155-4.824535883919452-18.695804688740282-7.249235309411233-28.040512142779335-.760054618996946-2.929227311839895-2.202415836351065-3.793825246670167-5.226344495998092-3.033826884571681-7.453728854784458,1.873337634579912-14.911232856798961,3.735407113914334-22.33315351980491,5.728847511648382-1.798434752516187.483039249941612-3.302845476625407.475370462684623-4.693515821278197-.813480606041594l-.471429886305486-1.848259315545874c2.716354042273451-8.890631104015483,5.417125551583922-17.786064433101274,8.156954859461621-26.669455002450377,1.054608388188171-3.419355487786561,1.786940111595868-6.941891266036691,3.241080709087328-10.234788838632085,1.060753548769753.663942271753513.723936415565731,1.658857228094348.552956641873607,2.564795039234923-.600479921151418,3.181638139705683-1.581713051314182,6.268241081252199-2.462197837605345,9.376863243409389-.65712166164667,2.320044157512712-1.328079090316351,4.630677418052983-1.73285496846529,7.014001782274136-1.203413872540295,4.804116323489325-2.377685878541342,9.611738998783949-3.679912338630857,14.388380240086917-.779001015576796,2.857423383896275-.376914789544571,3.200914074497632,2.444645831662456,2.48170777442283,22.202226136982972-5.659287701688299,44.402733715852264-11.325321908832848,66.60561657164908-16.982043749860168,1.041370933396138-.265318948899221,2.067231269311378-.63656905514199,3.164022776009915-.603080366228824,1.363317678124076.371240595485688,1.06955764772465,1.398174091351393.817138916542717,2.299575105026634-.700792323303176,2.502454132910316-1.398624458126505,5.008718845099793-2.26307580556022,7.460733403433551-.397834329085526,1.128427758904763-.193018586529433,1.534226406666676,1.07113483480407,1.269417650828473.853901625856452-.178862112402385,1.909252609399118-.634288758668845,2.28913785304394.758206227530536-1.794914392888131,6.60647144635459-3.773307192050197,13.156438886505384-6.039944062825271,19.617631892164354-2.945519067226087.044065167742701-4.437816188242323,1.513578524981313-5.318197946739929,4.385176389865592-2.025141326673292,6.605529213475165-.463743343807437,5.486055529703663-7.771418742942842,7.377888444269956-5.161400538547241,1.336207027335149-10.333646040206986,2.630461145587105-15.496599616749336,3.960732499845108-2.353700940313502.606442851053544-2.447893953659332.760312364607671-1.838521711492831,3.161920306751199,2.435460128675004,9.59841874770882,4.900177170282404,19.189435097579008,7.324047215484825,28.790762033441752.255449723267702,1.01187428465164.805185944829645,2.0489373320097.146746932747192,3.120156341953589Z" fill="none" stroke="#7d3131" stroke-linecap="round" stroke-linejoin="round" stroke-width="38"/>
        <path d="M90.366955675202007,79.590493291518214c-.033821454723693-.123319749101029-.067637280853887-.24664098080757-.101458746818025-.369960773976345l6.65301588263992-1.696964541045418c.998245256157134.751215523410792,1.560739276522327,1.725763709350758,1.873862013669168,2.961616052406498,4.57338805676045,18.05050941668469,9.186298778532546,36.091003237820587,13.779690288423808,54.136453237248134.15273009606517.600008902862101.479199163528392,1.197213882488541.204763234706661,1.851144914873657-.101217912434549-.059055230867671-.202441464700314-.118109023202123-.304792297867607-.176142380371857-.260124483569598-.252908213121373-.410047427442805-.571819890176812-.545010674502009-.900728908341989-1.575640152393134-5.75756165871644-3.027840764935718-11.546936069113144-4.38747606632478-17.12021347548216-1.217285391168843.897649757798717-2.664733091542075,1.446428116776588-4.349539440557237,1.348524414796884-.859680030445816-.788606895305747-.961638290752489-1.904061167905638-1.225589428248895-2.933828741814978-2.896852566915186-11.301552312623244-5.767713063998599-22.609765882361899-8.670229345447297-33.909855546326071-.260711999422711-1.01501958119934-.322092025902748-2.154366582111834-1.306955702905725-2.845700940778443-.536612706441701-.131569621010385-1.138314092558176.037663252527636-1.620279716767982-.344343311187913Z" fill="none" stroke="#7d3131" stroke-linecap="round" stroke-linejoin="round" stroke-width="38"/>
        <path d="M110.212013408526218,245.392814016598095c-.076007639122508-.073102924461637-.12025474296388-.162008401557614-.132749828732813-.266726273633139,1.716656320524635-1.571326914393467,3.737535180899613-1.999450732355399,5.980874592125474-1.591616942234396-.013467157421474.123282697817558.008421886673204.239926127982471.065667132289491.34993029049383l-5.913791895682152,1.508412925373705Z" fill="none" stroke="#7d3131" stroke-linecap="round" stroke-linejoin="round" stroke-width="38"/>
        <path d="M136.270788717384676,162.376484218279984c-23.80607109723951,6.069793308109183-47.612012597463035,12.140118256092137-71.418421376861261,18.2085979710846-2.425455764789149.618269156640963-2.621966240842994.558270799539059-2.087476212605907-1.941906572901644,1.174671408194627-5.494749070279795,2.553461870209503-10.945497801065358,4.212710960075128-16.319417453235474,1.29092784133627-4.789883204059151,2.76591467189246-9.527014930670703,4.123680791260085-14.297847892247773.201188436485609-.706922330991802.093048005838682-2.198334918047294,1.679511089300831-1.325989773855326.685716208700796,1.347173885992561,1.785837247162817.899419401600426,2.821633629790995.636789898254392,6.649762002322859-1.686048155637764,13.30968551852493-3.334901153959436,19.936214062727231-5.108216050055489,2.575008112249634-.68908927913435,5.066892786009703-1.0847450841311,7.651301282930945-.122658632045386.958766037133501.35691155411314,2.007112333671103.278253608053092,3.021353716246267.125867135210683,2.211500971805435-.332285223474173,2.494862843528608-.679057696775089,2.425750747290294-2.923174304574786-.068616423251115-2.228161222310518,1.442781638919769-3.278868561554191,4.014928217740817-2.791128821647362,0,0,.124834364358321-.044618866076235.124847082712222-.044616102706641.476408439687475,1.844039816657641.969751220317448,3.683916434892126,1.4251574469763,5.533126992732832.644092743399597,2.615386209403368,1.965818578528342,3.489361885835024,4.520923234391375,2.842096599173601,8.799865723831317-2.229212100400218,17.596077005171537-4.473081281580562,26.386475285816232-6.739293114873362,2.59935721511647-.670128916208341,3.599568555222504.207650125416876,2.847223604531791,2.750599324447649-1.328692867476093,4.49100568220274-2.598987203994511,9.002974011442348-4.249078492891385,13.392900256911162-3.495765837196814.258822620819956-5.140310564718675,2.311590123144015-5.765180697047981,5.614557230574064-.170149839239457.899424357531643-.018529991812102,2.424375771726773-1.67155437238398,2.509713309754261Z" fill="none" stroke="#7d3131" stroke-linecap="round" stroke-linejoin="round" stroke-width="38"/>
        <path d="M116.060141049298181,243.534482081609895c-1.993645639196984.530524255126693-3.987291278393968,1.061048510253386-5.98090578359006,1.591588853732901-.622517148764018.001738052753353-1.13172045732972-.189680898183724-1.386966331413532-.81406967176008-2.738328935052778-10.847469131632351-5.433494339574281-21.706140090674126-8.257038541860311-32.531332956896222-.473284188436082-1.814517351781433-.245545379364557-2.512406330822159,1.705846539977756-2.969087351320013,6.745085410436332-1.578505540032893,13.433303801887632-3.398517628146692,20.158614546956414-5.064252999874952,1.289054424567439-.319267454671717,2.087242823205088-.762241900523804,2.387458795157727-2.236907740430979.41478096730134-2.037416975975248,1.159306876274968-4.012528589274552,1.829194384666152-5.991778969692859.681708246281232-2.014176779796799,3.523981862129403-3.094340526256019,5.12978348985871-2.003266420039836-2.700772853697345,8.97835984989797-5.384620295358218,17.961894281629611-8.107786529158147,26.933494576273915-2.117069122250541,6.974787048527105-4.282434288987133,13.934907572328484-6.428476491589208,20.900900755282237-.240229695601556.779771958364108-.357237677475496,1.621240875294461-1.0497240790055,2.184711924725889Z" fill="none" stroke="#7d3131" stroke-linecap="round" stroke-linejoin="round" stroke-width="38"/>
        <path d="M136.270788717384676,162.376484218279984c1.279117791568751-1.418832905840645,1.409401648846142-3.292599838728165,1.953501924643206-4.996694550266511.804663568867909-2.520177448833238,2.682892869791431-3.619708186785829,5.483213462842286-3.127558955044151-1.838267136652576,6.600270032857225-3.748032030544891,13.178641328255253-6.021448927413076,19.645492535503763-.798924675237686-1.000236244945881-1.725979505757095-.350862414343283-2.611987057791339-.199435035088754-.48513616919081.082915903893991-1.025007651694978.414886649638902-1.439651103706638.009418580256352-.509143409804892-.497883822521544-.053059165773448-1.042952114024047.108772170056909-1.561974596464097.822416892631736-2.63779507876643,1.640713962586233-5.276882213684985,2.456281077255881-7.916804914725617.18812510907901-.608973725481519.30557559728004-1.225079689998893.07131845411277-1.852443064170984Z" fill="none" stroke="#7d3131" stroke-linecap="round" stroke-linejoin="round" stroke-width="38"/>
        <path d="M72.354960817361643,146.380382913256653c-1.44707643660422,2.531748104581311-1.821707382060595,5.433313519740295-2.799473376502647,8.127253377399029-.936245710032381,2.579547504879883-1.285861126142663,5.353286645144181-2.577866908485703,7.816141197626166.158244687226215-3.247895168162358,1.569326020036897-6.191496891115094,2.270130481522756-9.309021979000136.523238287247295-2.327634361552555,1.179268170728392-4.625683284115439,1.790787039743009-6.933026358343341.202285206341912-.763251141876935.155599552770582-1.493761949097461-.159042953209791-2.21252755848036,2.339030129030107-7.951219325470447,4.645408006828802-15.912186413222116,7.024561551090301-23.851331408754959,3.871415690003232-12.918774449745797,7.788360250558981-25.823899182656533,11.695924732716776-38.731804867032224.179351514286282-.592456464381939.228887960233806-1.259036054790158.766948879270785-1.695553904126427.485540228347418-.115949854492101.971055067477209-.231881499828887,1.456569906607911-.347813145164764.694953939672814.534517762245741.292152953109508,1.171395968969591.104023968574438,1.730476205223567-2.595465633818094,7.713280216877138-4.317486752794139,15.668448960529531-6.539614103080567,23.483501211021576-1.736017058341531,6.105443848960022-3.795968332985467,12.118565051448968-5.622341798811249,18.199305999455646-2.209361000448553,7.35586419783067-4.689641955861589,14.6316463063622-6.576832218045638,22.083605048982463-.153375672151014.605631094701494-.201797711188192,1.274236564412604-.833775201390381,1.640796181193764Z" fill="none" stroke="#7d3131" stroke-linecap="round" stroke-linejoin="round" stroke-width="38"/>
        <path d="M72.354960817361643,146.380382913256653c1.41720694408923-6.693092192178483,3.762109376037188-13.118781813528585,5.675172270416624-19.66878633111719,3.099926041095387-10.613623091355294,6.826151574993673-21.039922844805005,9.378491774772556-31.819246144583303,1.149764411649812-4.855811425994943,2.573217735747676-9.646660291631633,4.1706173104767-14.379495761575527.14126606433274-.418552129392992.394733317057216-.801493058565939.244402339500994-1.270414748531948,1.477860046819842-.254688934455771,1.432462523940558.941265745115743,1.652720807329388,1.800769962311279,3.181260932998157,12.413854673398419,6.344231018451865,24.832394637208381,9.51188108498809,37.249736386916993.109767488757825.430300635272033.22256992617713.859830159112789.333956046559251,1.289717934934743.805491618912129.566103379484048.943707006601471,1.473332486086292,1.164395811856593,2.326517678165146,1.017411289670235,3.933388292547534,2.005545120410716,7.874310378983864,3.021344856977521,11.808115732887018.564681752868637,2.186798285217264.575009151464656,2.175501433286627,2.75990053417172,1.91497349000565.747794428148154-.089176512993618,1.512770072507919-.286321020145806,2.231238570045207.144594159806729.051364646661568.246592558921293.102722214797723.493180915936136.153487311225945.740154681589047-.61606361718168.152535804497347-1.226985543908995.327255083054297-1.847912563765931.452340028697108-1.476835800886874.297514460244201-2.135680929973205,1.148906068156975-1.584239743706348,2.597437764329698.718973381128308,1.888596648983366-.070446934661959,2.671504252574778-1.854098404994147,3.027741181668716-1.698282698988805.339190001459428-3.327243138453923.500973379152128-5.021067248514555-.119010307496865-1.554836314370732-.569102506412491-3.133866189372384-.636789817216595-4.829933997107219-.183519500610601-7.533895016972565,2.01343480055948-15.103277033363156,3.894170503428541-22.660850151901286,5.818872030644343q-2.2293153578903.567747612203675-2.499506608331103-1.730498238041037Z" fill="none" stroke="#7d3131" stroke-linecap="round" stroke-linejoin="round" stroke-width="38"/>
        <path d="M112.499082224456288,135.776865272476243c-1.223692522213241.651445629953741-2.691315282596406.099728658714412-3.962327162712427.952555154282891-.657119132952175.440928151181652-.994654231848472-.632646688791283-1.160154459771547-1.261856346209242-.662705295069827-2.519482443704874-1.296614760068223-5.046550048348763-1.939673010646402-7.571193989032508-.705790448184416-2.770941221720022-1.409940424762681-5.542303877250561-2.114762720339968-8.313594168547752.275450421242567-.153761190283149.545883110727118-.31723306503045.827031482974235-.459558733261474,3.326617205661933-1.683974561891773,3.773495409859606-1.49037343488726,4.670803158473063,2.055368916596308,1.23113364009987,4.864881695503755,2.453156075036532,9.732075343612451,3.679082712023046,14.598279166171778Z" fill="none" stroke="#7d3131" stroke-linecap="round" stroke-linejoin="round" stroke-width="38"/>
      </g>
      <g>
        <path d="M108.692192566714766,244.311972683212844c-.595436378945124-.494892772043386-.606776233520577-1.238047595627904-.773730092845653-1.900191516669111-2.826328352729433-11.209088615495602-5.613848623046579-22.427991786998064-8.463350985711259-33.631157463408272-2.379724589645775-9.356179048730155-4.824535883919452-18.695804688740282-7.249235309411233-28.040512142779335-.760054618996946-2.929227311839895-2.202415836351065-3.793825246670167-5.226344495998092-3.033826884571681-7.453728854784458,1.873337634579912-14.911232856798961,3.735407113914334-22.33315351980491,5.728847511648382-1.798434752516187.483039249941612-3.302845476625407.475370462684623-4.693515821278197-.813480606041594l-.471429886305486-1.848259315545874c2.716354042273451-8.890631104015483,5.417125551583922-17.786064433101274,8.156954859461621-26.669455002450377,1.054608388188171-3.419355487786561,1.786940111595868-6.941891266036691,3.241080709087328-10.234788838632085,1.060753548769753.663942271753513.723936415565731,1.658857228094348.552956641873607,2.564795039234923-.600479921151418,3.181638139705683-1.581713051314182,6.268241081252199-2.462197837605345,9.376863243409389-.65712166164667,2.320044157512712-1.328079090316351,4.630677418052983-1.73285496846529,7.014001782274136-1.203413872540295,4.804116323489325-2.377685878541342,9.611738998783949-3.679912338630857,14.388380240086917-.779001015576796,2.857423383896275-.376914789544571,3.200914074497632,2.444645831662456,2.48170777442283,22.202226136982972-5.659287701688299,44.402733715852264-11.325321908832848,66.60561657164908-16.982043749860168,1.041370933396138-.265318948899221,2.067231269311378-.63656905514199,3.164022776009915-.603080366228824,1.363317678124076.371240595485688,1.06955764772465,1.398174091351393.817138916542717,2.299575105026634-.700792323303176,2.502454132910316-1.398624458126505,5.008718845099793-2.26307580556022,7.460733403433551-.397834329085526,1.128427758904763-.193018586529433,1.534226406666676,1.07113483480407,1.269417650828473.853901625856452-.178862112402385,1.909252609399118-.634288758668845,2.28913785304394.758206227530536-1.794914392888131,6.60647144635459-3.773307192050197,13.156438886505384-6.039944062825271,19.617631892164354-2.945519067226087.044065167742701-4.437816188242323,1.513578524981313-5.318197946739929,4.385176389865592-2.025141326673292,6.605529213475165-.463743343807437,5.486055529703663-7.771418742942842,7.377888444269956-5.161400538547241,1.336207027335149-10.333646040206986,2.630461145587105-15.496599616749336,3.960732499845108-2.353700940313502.606442851053544-2.447893953659332.760312364607671-1.838521711492831,3.161920306751199,2.435460128675004,9.59841874770882,4.900177170282404,19.189435097579008,7.324047215484825,28.790762033441752.255449723267702,1.01187428465164.805185944829645,2.0489373320097.146746932747192,3.120156341953589Z" fill="none" stroke="#000" stroke-linecap="round" stroke-linejoin="round"/>
        <path d="M90.366955675202007,79.590493291518214c-.033821454723693-.123319749101029-.067637280853887-.24664098080757-.101458746818025-.369960773976345l6.65301588263992-1.696964541045418c.998245256157134.751215523410792,1.560739276522327,1.725763709350758,1.873862013669168,2.961616052406498,4.57338805676045,18.05050941668469,9.186298778532546,36.091003237820587,13.779690288423808,54.136453237248134.15273009606517.600008902862101.479199163528392,1.197213882488541.204763234706661,1.851144914873657-.101217912434549-.059055230867671-.202441464700314-.118109023202123-.304792297867607-.176142380371857-.260124483569598-.252908213121373-.410047427442805-.571819890176812-.545010674502009-.900728908341989-1.575640152393134-5.75756165871644-3.027840764935718-11.546936069113144-4.38747606632478-17.12021347548216-1.217285391168843.897649757798717-2.664733091542075,1.446428116776588-4.349539440557237,1.348524414796884-.859680030445816-.788606895305747-.961638290752489-1.904061167905638-1.225589428248895-2.933828741814978-2.896852566915186-11.301552312623244-5.767713063998599-22.609765882361899-8.670229345447297-33.909855546326071-.260711999422711-1.01501958119934-.322092025902748-2.154366582111834-1.306955702905725-2.845700940778443-.536612706441701-.131569621010385-1.138314092558176.037663252527636-1.620279716767982-.344343311187913Z" fill="none" stroke="#000" stroke-linecap="round" stroke-linejoin="round"/>
        <path d="M110.212013408526218,245.392814016598095c-.076007639122508-.073102924461637-.12025474296388-.162008401557614-.132749828732813-.266726273633139,1.716656320524635-1.571326914393467,3.737535180899613-1.999450732355399,5.980874592125474-1.591616942234396-.013467157421474.123282697817558.008421886673204.239926127982471.065667132289491.34993029049383l-5.913791895682152,1.508412925373705Z" fill="none" stroke="#000" stroke-linecap="round" stroke-linejoin="round"/>
        <path d="M136.270788717384676,162.376484218279984c-23.80607109723951,6.069793308109183-47.612012597463035,12.140118256092137-71.418421376861261,18.2085979710846-2.425455764789149.618269156640963-2.621966240842994.558270799539059-2.087476212605907-1.941906572901644,1.174671408194627-5.494749070279795,2.553461870209503-10.945497801065358,4.212710960075128-16.319417453235474,1.29092784133627-4.789883204059151,2.76591467189246-9.527014930670703,4.123680791260085-14.297847892247773.201188436485609-.706922330991802.093048005838682-2.198334918047294,1.679511089300831-1.325989773855326.685716208700796,1.347173885992561,1.785837247162817.899419401600426,2.821633629790995.636789898254392,6.649762002322859-1.686048155637764,13.30968551852493-3.334901153959436,19.936214062727231-5.108216050055489,2.575008112249634-.68908927913435,5.066892786009703-1.0847450841311,7.651301282930945-.122658632045386.958766037133501.35691155411314,2.007112333671103.278253608053092,3.021353716246267.125867135210683,2.211500971805435-.332285223474173,2.494862843528608-.679057696775089,2.425750747290294-2.923174304574786-.068616423251115-2.228161222310518,1.442781638919769-3.278868561554191,4.014928217740817-2.791128821647362,0,0,.124834364358321-.044618866076235.124847082712222-.044616102706641.476408439687475,1.844039816657641.969751220317448,3.683916434892126,1.4251574469763,5.533126992732832.644092743399597,2.615386209403368,1.965818578528342,3.489361885835024,4.520923234391375,2.842096599173601,8.799865723831317-2.229212100400218,17.596077005171537-4.473081281580562,26.386475285816232-6.739293114873362,2.59935721511647-.670128916208341,3.599568555222504.207650125416876,2.847223604531791,2.750599324447649-1.328692867476093,4.49100568220274-2.598987203994511,9.002974011442348-4.249078492891385,13.392900256911162-3.495765837196814.258822620819956-5.140310564718675,2.311590123144015-5.765180697047981,5.614557230574064-.170149839239457.899424357531643-.018529991812102,2.424375771726773-1.67155437238398,2.509713309754261Z" fill="none" stroke="#000" stroke-linecap="round" stroke-linejoin="round"/>
        <path d="M116.060141049298181,243.534482081609895c-1.993645639196984.530524255126693-3.987291278393968,1.061048510253386-5.98090578359006,1.591588853732901-.622517148764018.001738052753353-1.13172045732972-.189680898183724-1.386966331413532-.81406967176008-2.738328935052778-10.847469131632351-5.433494339574281-21.706140090674126-8.257038541860311-32.531332956896222-.473284188436082-1.814517351781433-.245545379364557-2.512406330822159,1.705846539977756-2.969087351320013,6.745085410436332-1.578505540032893,13.433303801887632-3.398517628146692,20.158614546956414-5.064252999874952,1.289054424567439-.319267454671717,2.087242823205088-.762241900523804,2.387458795157727-2.236907740430979.41478096730134-2.037416975975248,1.159306876274968-4.012528589274552,1.829194384666152-5.991778969692859.681708246281232-2.014176779796799,3.523981862129403-3.094340526256019,5.12978348985871-2.003266420039836-2.700772853697345,8.97835984989797-5.384620295358218,17.961894281629611-8.107786529158147,26.933494576273915-2.117069122250541,6.974787048527105-4.282434288987133,13.934907572328484-6.428476491589208,20.900900755282237-.240229695601556.779771958364108-.357237677475496,1.621240875294461-1.0497240790055,2.184711924725889Z" fill="none" stroke="#000" stroke-linecap="round" stroke-linejoin="round"/>
        <path d="M136.270788717384676,162.376484218279984c1.279117791568751-1.418832905840645,1.409401648846142-3.292599838728165,1.953501924643206-4.996694550266511.804663568867909-2.520177448833238,2.682892869791431-3.619708186785829,5.483213462842286-3.127558955044151-1.838267136652576,6.600270032857225-3.748032030544891,13.178641328255253-6.021448927413076,19.645492535503763-.798924675237686-1.000236244945881-1.725979505757095-.350862414343283-2.611987057791339-.199435035088754-.48513616919081.082915903893991-1.025007651694978.414886649638902-1.439651103706638.009418580256352-.509143409804892-.497883822521544-.053059165773448-1.042952114024047.108772170056909-1.561974596464097.822416892631736-2.63779507876643,1.640713962586233-5.276882213684985,2.456281077255881-7.916804914725617.18812510907901-.608973725481519.30557559728004-1.225079689998893.07131845411277-1.852443064170984Z" fill="none" stroke="#000" stroke-linecap="round" stroke-linejoin="round"/>
        <path d="M72.354960817361643,146.380382913256653c-1.44707643660422,2.531748104581311-1.821707382060595,5.433313519740295-2.799473376502647,8.127253377399029-.936245710032381,2.579547504879883-1.285861126142663,5.353286645144181-2.577866908485703,7.816141197626166.158244687226215-3.247895168162358,1.569326020036897-6.191496891115094,2.270130481522756-9.309021979000136.523238287247295-2.327634361552555,1.179268170728392-4.625683284115439,1.790787039743009-6.933026358343341.202285206341912-.763251141876935.155599552770582-1.493761949097461-.159042953209791-2.21252755848036,2.339030129030107-7.951219325470447,4.645408006828802-15.912186413222116,7.024561551090301-23.851331408754959,3.871415690003232-12.918774449745797,7.788360250558981-25.823899182656533,11.695924732716776-38.731804867032224.179351514286282-.592456464381939.228887960233806-1.259036054790158.766948879270785-1.695553904126427.485540228347418-.115949854492101.971055067477209-.231881499828887,1.456569906607911-.347813145164764.694953939672814.534517762245741.292152953109508,1.171395968969591.104023968574438,1.730476205223567-2.595465633818094,7.713280216877138-4.317486752794139,15.668448960529531-6.539614103080567,23.483501211021576-1.736017058341531,6.105443848960022-3.795968332985467,12.118565051448968-5.622341798811249,18.199305999455646-2.209361000448553,7.35586419783067-4.689641955861589,14.6316463063622-6.576832218045638,22.083605048982463-.153375672151014.605631094701494-.201797711188192,1.274236564412604-.833775201390381,1.640796181193764Z" fill="none" stroke="#000" stroke-linecap="round" stroke-linejoin="round"/>
        <path d="M72.354960817361643,146.380382913256653c1.41720694408923-6.693092192178483,3.762109376037188-13.118781813528585,5.675172270416624-19.66878633111719,3.099926041095387-10.613623091355294,6.826151574993673-21.039922844805005,9.378491774772556-31.819246144583303,1.149764411649812-4.855811425994943,2.573217735747676-9.646660291631633,4.1706173104767-14.379495761575527.14126606433274-.418552129392992.394733317057216-.801493058565939.244402339500994-1.270414748531948,1.477860046819842-.254688934455771,1.432462523940558.941265745115743,1.652720807329388,1.800769962311279,3.181260932998157,12.413854673398419,6.344231018451865,24.832394637208381,9.51188108498809,37.249736386916993.109767488757825.430300635272033.22256992617713.859830159112789.333956046559251,1.289717934934743.805491618912129.566103379484048.943707006601471,1.473332486086292,1.164395811856593,2.326517678165146,1.017411289670235,3.933388292547534,2.005545120410716,7.874310378983864,3.021344856977521,11.808115732887018.564681752868637,2.186798285217264.575009151464656,2.175501433286627,2.75990053417172,1.91497349000565.747794428148154-.089176512993618,1.512770072507919-.286321020145806,2.231238570045207.144594159806729.051364646661568.246592558921293.102722214797723.493180915936136.153487311225945.740154681589047-.61606361718168.152535804497347-1.226985543908995.327255083054297-1.847912563765931.452340028697108-1.476835800886874.297514460244201-2.135680929973205,1.148906068156975-1.584239743706348,2.597437764329698.718973381128308,1.888596648983366-.070446934661959,2.671504252574778-1.854098404994147,3.027741181668716-1.698282698988805.339190001459428-3.327243138453923.500973379152128-5.021067248514555-.119010307496865-1.554836314370732-.569102506412491-3.133866189372384-.636789817216595-4.829933997107219-.183519500610601-7.533895016972565,2.01343480055948-15.103277033363156,3.894170503428541-22.660850151901286,5.818872030644343q-2.2293153578903.567747612203675-2.499506608331103-1.730498238041037Z" fill="none" stroke="#000" stroke-linecap="round" stroke-linejoin="round"/>
        <path d="M112.499082224456288,135.776865272476243c-1.223692522213241.651445629953741-2.691315282596406.099728658714412-3.962327162712427.952555154282891-.657119132952175.440928151181652-.994654231848472-.632646688791283-1.160154459771547-1.261856346209242-.662705295069827-2.519482443704874-1.296614760068223-5.046550048348763-1.939673010646402-7.571193989032508-.705790448184416-2.770941221720022-1.409940424762681-5.542303877250561-2.114762720339968-8.313594168547752.275450421242567-.153761190283149.545883110727118-.31723306503045.827031482974235-.459558733261474,3.326617205661933-1.683974561891773,3.773495409859606-1.49037343488726,4.670803158473063,2.055368916596308,1.23113364009987,4.864881695503755,2.453156075036532,9.732075343612451,3.679082712023046,14.598279166171778Z" fill="none" stroke="#000" stroke-linecap="round" stroke-linejoin="round"/>
      </g>
      <g>
        <path d="M108.692192566714766,244.311972683212844c-.595436378945124-.494892772043386-.606776233520577-1.238047595627904-.773730092845653-1.900191516669111-2.826328352729433-11.209088615495602-5.613848623046579-22.427991786998064-8.463350985711259-33.631157463408272-2.379724589645775-9.356179048730155-4.824535883919452-18.695804688740282-7.249235309411233-28.040512142779335-.760054618996946-2.929227311839895-2.202415836351065-3.793825246670167-5.226344495998092-3.033826884571681-7.453728854784458,1.873337634579912-14.911232856798961,3.735407113914334-22.33315351980491,5.728847511648382-1.798434752516187.483039249941612-3.302845476625407.475370462684623-4.693515821278197-.813480606041594l-.471429886305486-1.848259315545874c2.716354042273451-8.890631104015483,5.417125551583922-17.786064433101274,8.156954859461621-26.669455002450377,1.054608388188171-3.419355487786561,1.786940111595868-6.941891266036691,3.241080709087328-10.234788838632085,1.060753548769753.663942271753513.723936415565731,1.658857228094348.552956641873607,2.564795039234923-.600479921151418,3.181638139705683-1.581713051314182,6.268241081252199-2.462197837605345,9.376863243409389-.65712166164667,2.320044157512712-1.328079090316351,4.630677418052983-1.73285496846529,7.014001782274136-1.203413872540295,4.804116323489325-2.377685878541342,9.611738998783949-3.679912338630857,14.388380240086917-.779001015576796,2.857423383896275-.376914789544571,3.200914074497632,2.444645831662456,2.48170777442283,22.202226136982972-5.659287701688299,44.402733715852264-11.325321908832848,66.60561657164908-16.982043749860168,1.041370933396138-.265318948899221,2.067231269311378-.63656905514199,3.164022776009915-.603080366228824,1.363317678124076.371240595485688,1.06955764772465,1.398174091351393.817138916542717,2.299575105026634-.700792323303176,2.502454132910316-1.398624458126505,5.008718845099793-2.26307580556022,7.460733403433551-.397834329085526,1.128427758904763-.193018586529433,1.534226406666676,1.07113483480407,1.269417650828473.853901625856452-.178862112402385,1.909252609399118-.634288758668845,2.28913785304394.758206227530536-1.794914392888131,6.60647144635459-3.773307192050197,13.156438886505384-6.039944062825271,19.617631892164354-2.945519067226087.044065167742701-4.437816188242323,1.513578524981313-5.318197946739929,4.385176389865592-2.025141326673292,6.605529213475165-.463743343807437,5.486055529703663-7.771418742942842,7.377888444269956-5.161400538547241,1.336207027335149-10.333646040206986,2.630461145587105-15.496599616749336,3.960732499845108-2.353700940313502.606442851053544-2.447893953659332.760312364607671-1.838521711492831,3.161920306751199,2.435460128675004,9.59841874770882,4.900177170282404,19.189435097579008,7.324047215484825,28.790762033441752.255449723267702,1.01187428465164.805185944829645,2.0489373320097.146746932747192,3.120156341953589Z" fill="#d94b58" stroke-width="0"/>
        <path d="M90.366955675202007,79.590493291518214c-.033821454723693-.123319749101029-.067637280853887-.24664098080757-.101458746818025-.369960773976345l6.65301588263992-1.696964541045418c.998245256157134.751215523410792,1.560739276522327,1.725763709350758,1.873862013669168,2.961616052406498,4.57338805676045,18.05050941668469,9.186298778532546,36.091003237820587,13.779690288423808,54.136453237248134.15273009606517.600008902862101.479199163528392,1.197213882488541.204763234706661,1.851144914873657-.101217912434549-.059055230867671-.202441464700314-.118109023202123-.304792297867607-.176142380371857-.260124483569598-.252908213121373-.410047427442805-.571819890176812-.545010674502009-.900728908341989-1.575640152393134-5.75756165871644-3.027840764935718-11.546936069113144-4.38747606632478-17.12021347548216-1.217285391168843.897649757798717-2.664733091542075,1.446428116776588-4.349539440557237,1.348524414796884-.859680030445816-.788606895305747-.961638290752489-1.904061167905638-1.225589428248895-2.933828741814978-2.896852566915186-11.301552312623244-5.767713063998599-22.609765882361899-8.670229345447297-33.909855546326071-.260711999422711-1.01501958119934-.322092025902748-2.154366582111834-1.306955702905725-2.845700940778443-.536612706441701-.131569621010385-1.138314092558176.037663252527636-1.620279716767982-.344343311187913Z" fill="#f5c6c4" stroke-width="0"/>
        <path d="M110.212013408526218,245.392814016598095c-.076007639122508-.073102924461637-.12025474296388-.162008401557614-.132749828732813-.266726273633139,1.716656320524635-1.571326914393467,3.737535180899613-1.999450732355399,5.980874592125474-1.591616942234396-.013467157421474.123282697817558.008421886673204.239926127982471.065667132289491.34993029049383l-5.913791895682152,1.508412925373705Z" fill="#e7938d" stroke-width="0"/>
        <path d="M136.270788717384676,162.376484218279984c-23.80607109723951,6.069793308109183-47.612012597463035,12.140118256092137-71.418421376861261,18.2085979710846-2.425455764789149.618269156640963-2.621966240842994.558270799539059-2.087476212605907-1.941906572901644,1.174671408194627-5.494749070279795,2.553461870209503-10.945497801065358,4.212710960075128-16.319417453235474,1.29092784133627-4.789883204059151,2.76591467189246-9.527014930670703,4.123680791260085-14.297847892247773.201188436485609-.706922330991802.093048005838682-2.198334918047294,1.679511089300831-1.325989773855326.685716208700796,1.347173885992561,1.785837247162817.899419401600426,2.821633629790995.636789898254392,6.649762002322859-1.686048155637764,13.30968551852493-3.334901153959436,19.936214062727231-5.108216050055489,2.575008112249634-.68908927913435,5.066892786009703-1.0847450841311,7.651301282930945-.122658632045386.958766037133501.35691155411314,2.007112333671103.278253608053092,3.021353716246267.125867135210683,2.211500971805435-.332285223474173,2.494862843528608-.679057696775089,2.425750747290294-2.923174304574786-.068616423251115-2.228161222310518,1.442781638919769-3.278868561554191,4.014928217740817-2.791128821647362,0,0,.124834364358321-.044618866076235.124847082712222-.044616102706641.476408439687475,1.844039816657641.969751220317448,3.683916434892126,1.4251574469763,5.533126992732832.644092743399597,2.615386209403368,1.965818578528342,3.489361885835024,4.520923234391375,2.842096599173601,8.799865723831317-2.229212100400218,17.596077005171537-4.473081281580562,26.386475285816232-6.739293114873362,2.59935721511647-.670128916208341,3.599568555222504.207650125416876,2.847223604531791,2.750599324447649-1.328692867476093,4.49100568220274-2.598987203994511,9.002974011442348-4.249078492891385,13.392900256911162-3.495765837196814.258822620819956-5.140310564718675,2.311590123144015-5.765180697047981,5.614557230574064-.170149839239457.899424357531643-.018529991812102,2.424375771726773-1.67155437238398,2.509713309754261Z" fill="#ed6367" stroke-width="0"/>
        <path d="M116.060141049298181,243.534482081609895c-1.993645639196984.530524255126693-3.987291278393968,1.061048510253386-5.98090578359006,1.591588853732901-.622517148764018.001738052753353-1.13172045732972-.189680898183724-1.386966331413532-.81406967176008-2.738328935052778-10.847469131632351-5.433494339574281-21.706140090674126-8.257038541860311-32.531332956896222-.473284188436082-1.814517351781433-.245545379364557-2.512406330822159,1.705846539977756-2.969087351320013,6.745085410436332-1.578505540032893,13.433303801887632-3.398517628146692,20.158614546956414-5.064252999874952,1.289054424567439-.319267454671717,2.087242823205088-.762241900523804,2.387458795157727-2.236907740430979.41478096730134-2.037416975975248,1.159306876274968-4.012528589274552,1.829194384666152-5.991778969692859.681708246281232-2.014176779796799,3.523981862129403-3.094340526256019,5.12978348985871-2.003266420039836-2.700772853697345,8.97835984989797-5.384620295358218,17.961894281629611-8.107786529158147,26.933494576273915-2.117069122250541,6.974787048527105-4.282434288987133,13.934907572328484-6.428476491589208,20.900900755282237-.240229695601556.779771958364108-.357237677475496,1.621240875294461-1.0497240790055,2.184711924725889Z" fill="#cd3a4f" stroke-width="0"/>
        <path d="M136.270788717384676,162.376484218279984c1.279117791568751-1.418832905840645,1.409401648846142-3.292599838728165,1.953501924643206-4.996694550266511.804663568867909-2.520177448833238,2.682892869791431-3.619708186785829,5.483213462842286-3.127558955044151-1.838267136652576,6.600270032857225-3.748032030544891,13.178641328255253-6.021448927413076,19.645492535503763-.798924675237686-1.000236244945881-1.725979505757095-.350862414343283-2.611987057791339-.199435035088754-.48513616919081.082915903893991-1.025007651694978.414886649638902-1.439651103706638.009418580256352-.509143409804892-.497883822521544-.053059165773448-1.042952114024047.108772170056909-1.561974596464097.822416892631736-2.63779507876643,1.640713962586233-5.276882213684985,2.456281077255881-7.916804914725617.18812510907901-.608973725481519.30557559728004-1.225079689998893.07131845411277-1.852443064170984Z" fill="#e1555e" stroke-width="0"/>
        <path d="M72.354960817361643,146.380382913256653c-1.44707643660422,2.531748104581311-1.821707382060595,5.433313519740295-2.799473376502647,8.127253377399029-.936245710032381,2.579547504879883-1.285861126142663,5.353286645144181-2.577866908485703,7.816141197626166.158244687226215-3.247895168162358,1.569326020036897-6.191496891115094,2.270130481522756-9.309021979000136.523238287247295-2.327634361552555,1.179268170728392-4.625683284115439,1.790787039743009-6.933026358343341.202285206341912-.763251141876935.155599552770582-1.493761949097461-.159042953209791-2.21252755848036,2.339030129030107-7.951219325470447,4.645408006828802-15.912186413222116,7.024561551090301-23.851331408754959,3.871415690003232-12.918774449745797,7.788360250558981-25.823899182656533,11.695924732716776-38.731804867032224.179351514286282-.592456464381939.228887960233806-1.259036054790158.766948879270785-1.695553904126427.485540228347418-.115949854492101.971055067477209-.231881499828887,1.456569906607911-.347813145164764.694953939672814.534517762245741.292152953109508,1.171395968969591.104023968574438,1.730476205223567-2.595465633818094,7.713280216877138-4.317486752794139,15.668448960529531-6.539614103080567,23.483501211021576-1.736017058341531,6.105443848960022-3.795968332985467,12.118565051448968-5.622341798811249,18.199305999455646-2.209361000448553,7.35586419783067-4.689641955861589,14.6316463063622-6.576832218045638,22.083605048982463-.153375672151014.605631094701494-.201797711188192,1.274236564412604-.833775201390381,1.640796181193764Z" fill="#da535b" stroke-width="0"/>
        <path d="M72.354960817361643,146.380382913256653c1.41720694408923-6.693092192178483,3.762109376037188-13.118781813528585,5.675172270416624-19.66878633111719,3.099926041095387-10.613623091355294,6.826151574993673-21.039922844805005,9.378491774772556-31.819246144583303,1.149764411649812-4.855811425994943,2.573217735747676-9.646660291631633,4.1706173104767-14.379495761575527.14126606433274-.418552129392992.394733317057216-.801493058565939.244402339500994-1.270414748531948,1.477860046819842-.254688934455771,1.432462523940558.941265745115743,1.652720807329388,1.800769962311279,3.181260932998157,12.413854673398419,6.344231018451865,24.832394637208381,9.51188108498809,37.249736386916993.109767488757825.430300635272033.22256992617713.859830159112789.333956046559251,1.289717934934743.805491618912129.566103379484048.943707006601471,1.473332486086292,1.164395811856593,2.326517678165146,1.017411289670235,3.933388292547534,2.005545120410716,7.874310378983864,3.021344856977521,11.808115732887018.564681752868637,2.186798285217264.575009151464656,2.175501433286627,2.75990053417172,1.91497349000565.747794428148154-.089176512993618,1.512770072507919-.286321020145806,2.231238570045207.144594159806729.051364646661568.246592558921293.102722214797723.493180915936136.153487311225945.740154681589047-.61606361718168.152535804497347-1.226985543908995.327255083054297-1.847912563765931.452340028697108-1.476835800886874.297514460244201-2.135680929973205,1.148906068156975-1.584239743706348,2.597437764329698.718973381128308,1.888596648983366-.070446934661959,2.671504252574778-1.854098404994147,3.027741181668716-1.698282698988805.339190001459428-3.327243138453923.500973379152128-5.021067248514555-.119010307496865-1.554836314370732-.569102506412491-3.133866189372384-.636789817216595-4.829933997107219-.183519500610601-7.533895016972565,2.01343480055948-15.103277033363156,3.894170503428541-22.660850151901286,5.818872030644343q-2.2293153578903.567747612203675-2.499506608331103-1.730498238041037Z" fill="#f27070" stroke-width="0"/>
        <path d="M112.499082224456288,135.776865272476243c-1.223692522213241.651445629953741-2.691315282596406.099728658714412-3.962327162712427.952555154282891-.657119132952175.440928151181652-.994654231848472-.632646688791283-1.160154459771547-1.261856346209242-.662705295069827-2.519482443704874-1.296614760068223-5.046550048348763-1.939673010646402-7.571193989032508-.705790448184416-2.770941221720022-1.409940424762681-5.542303877250561-2.114762720339968-8.313594168547752.275450421242567-.153761190283149.545883110727118-.31723306503045.827031482974235-.459558733261474,3.326617205661933-1.683974561891773,3.773495409859606-1.49037343488726,4.670803158473063,2.055368916596308,1.23113364009987,4.864881695503755,2.453156075036532,9.732075343612451,3.679082712023046,14.598279166171778Z" fill="#f7a4a4" stroke-width="0"/>
      </g>
    </g>
    <path d="M92.148933410644531,180.531913757324219c5.664345608530311,21.22108018515155,11.180063309359866,42.48087135937385,16.543301018110469,63.780048844868361-5.665662914358109-21.220738611539673-11.178826392262636-42.481184591951205-16.543301018110469-63.780048844868361h0Z" fill="#fff" stroke-width="0"/>
  </g>
</svg>