<?xml version="1.0" encoding="UTF-8"?>
<svg id="Pattern" xmlns="http://www.w3.org/2000/svg" width="280" height="280" xmlns:xlink="http://www.w3.org/1999/xlink" viewBox="0 0 280 280">
  <a xlink:href="https://www.notion.so/dmmnotes/disorientation-588ac5ef3d7b4514ac631e379aff4284?pvs=4">
    <g>
      <g>
        <path d="M160.12365903189675,126.941401485917595c-1.778760723230334,3.418578957200225-3.933402883250892,6.613433201606313-5.911489124882792,9.913204399729693-1.346028171621583,2.245410552799513-2.765372991160802,4.446856742956697-4.151932515175758,6.667956555589626-2.015629636644007-.291978198692959-4.024099008522171-.236195784405027-6.025085963702622.1253965871947-.679822615781632-.560384469877135-.055371638121869-.999756851486381.188512136552163-1.401425720194311,2.591452717286302-4.268114331081961,5.187122569696839-8.534537161547632,7.850903543440836-12.757273885922586,1.034882503115114-1.640534744161414,1.815770422396781-3.167014141942673.377566547793322-4.934968438575197,1.78688671240343-.013634101711432,3.574249312096981-.00664801714538,5.36049906768767-.047975849150134,1.240269810739846-.028681983912065,1.816757908344698.772349407620823,2.311026473689708,1.715254397807257l-.000000165402525.719831953520952Z" fill="none" stroke="#181900" stroke-linecap="round" stroke-linejoin="round" stroke-width="39"/>
        <path d="M87.922783492722374,244.070281110627548c-.006655182547547.067747854447589-.010487959333659.135656804747669-.011505651769767.203712205881857-2.31911337159454-.000000532887498-4.638223082482909-.000001065772267-6.957336454077449-.000001598657036-.002211052351413-.066268709607357-.004744247003146-.132508129252528-.007603244664097-.198732903952987.344703333692451-.412418289182824.820287856650793-.386847977452817,1.28852168413232-.387419025588315,1.420017890862255-.030095186901235,2.84050068938177-.050407501278642,4.26069428079154-.022039773947654.504127066096771.010061243609016,1.041482393039587-.045809378823833,1.427229385587452.404481096264135Z" fill="none" stroke="#181900" stroke-linecap="round" stroke-linejoin="round" stroke-width="39"/>
        <path d="M152.452133655921898,124.55429098373952c1.314223239747662.807724334542399,1.5635244285113,2.29316130445477.68215742450775,3.706529878102629-2.960664505878412,4.747738604919505-5.856131813226057,9.536139118926258-8.774727469828576,14.310099639293185-.185832246185782.303957318043103-.356121128773339.617426579230596-.533628926342317.926480365654243.159233382958519.390421587062519-.061551302101179.693280520678854-.247259082940218.991672731687686-1.299646966286673,2.088247546505954-2.582937891887923,4.186307259219575-3.833216558202366,6.304584427679401-.270416598583324.458140054275646-.625358920922736.821050855776775-1.183587614813405.922364966082569-.676645277957505.121311855975364-1.357485690959948.084992053438327-2.035836830936205.085035832623362-30.408138825401693.002094572984788-60.816273989534238.001750750376232-91.224410526467182.001560700461596-.359617420542236-.000000082633051-.719442130149218.006436320354624-1.078792773483656-.007132371935768-1.56042844059175-.058924590834977-2.067159714288209-.753486681220238-1.630132848664289-2.252360297979976.134247874217181-.460439353482798.372684520285475-.88283824724931.538369635603885-1.329123183047159.078516831717025-.601053512237741.370482658197943-1.116631324456648.664197846286697-1.635753230769296,1.423108556973602-2.515281615073036,2.854196083343595-5.025862177344607,4.340964799971516-7.504201718409604,2.223498293572447-3.404263349339999,4.231527349752469-6.939907209923149,6.320748150357758-10.425567603417221,3.606675413559969-6.017402987778951,7.268420678782604-12.000939357422794,10.938768606425583-17.979393903641721.207996010236457-.338812457184758.401764683118017-.694759589383466.742935391692299-.924451982486062.308667278010944-.207805420292061.51906828261599-.151773530838909.571917830154234.251037717500367-.166258628712058,1.120922361829798-.698972394511657,2.118928998463161-1.054233357861449,3.175632910367312-.250478618872876.745028650438144-.067481756892448,1.16319523067159.777795832168522,1.16862872679576.399211179118538.002570292491328.798466286122675.007776688341437,1.197708581845291.007791425096002,10.301462683196405.000456362647128,20.602976612833118.016019061976294,30.904325822007195-.01800627166358,1.420277795288712-.004693402105659,2.651831384819161.295976434952536,3.799455797166956,1.14904170875343,2.193766697347201,1.630701356062673,4.663053119135839,2.372267084553641,7.415283199361511,2.144830578327856.543739599024775-.044923469572495,1.118353610623672-.098817005930869,1.657766193045973.116735824066382.530311971346237.612506056670099.345226407834161,1.359233544291783.353206591110393,2.055406472120922.036364743271406,3.173070282710796,1.230641136015038,4.37955647824856,4.432750198500798,4.39421687763388,1.62324574257309.007425397409861,3.248468282568865-.051095723411891,4.844588092733829.334061309636127,10.470964439338786.010092823822561,20.941921557259775.020185647644212,31.412885996599471.030278471467682Z" fill="none" stroke="#181900" stroke-linecap="round" stroke-linejoin="round" stroke-width="39"/>
        <path d="M43.527399293036979,147.818310006266984c.062004851607526.952966018629922-.821050024796023,1.619812091998938-.743898087984235,2.611733863545851.05272822337156.677932567461539.174014247397281,1.082054560691176.944406130171046.988861161943532.196823457313258-.02380543248546.398997486632652-.003258424954765.59871289772309-.003258379064391,31.55505828951118-.000373519761524,63.110118866964513-.000761684544159,94.665179444421483-.001149849322246.168062954396191.634305083595791-.295221691315419,1.04972557434121-.571744348713764,1.499261678796756-2.524769224367446,4.10433910356096-5.01681172460485,8.228646697483782-7.535401674849709,12.336603122055749-3.305583911791473,5.553800348618097-6.784443747538717,11.002039363456788-10.091631049149328,16.554770625348283-1.102246898357407,1.850661455350746-2.271316349414519,3.660023942933549-3.358400597717264,5.519853183400301-1.887234752146469,3.123196229913447-3.817563351653916,6.219606710931657-5.728387702174587,9.328011466653152-.27833104785077.452779975654266-.594792015634084.846115812109929-1.164998542959438.935040233940526-.693242953380832.233426791942293-1.408076718660595.278167159467557-2.128438142699451.278577054462403-9.211519850656259.005138284900568-18.423039700087429.004960428053892-27.634552226163578-.003667604513794-.587463083850707-.000556645694815-1.210270322979341.087694093193932-1.703616500535645-.37385842590902-.014155094474518-3.755832179675963-.038552849679036-7.511664361704788-.04040796557365-11.267496538554042-.004361534238342-8.832762190415451.002863072064429-17.665539023185374.003677778811834-26.498301212411207.00031193545874-3.374036541824353-1.692940792035188-5.0924394766771-5.074574633757948-5.095684125324624-10.310010434000105-.009887756580611-20.620039174226804-.008074143313934-30.930048697626262.001948002873178-1.309960531279103.001273815613786-2.44942341136084-.284223761028443-3.170318677085561-1.495733089166606.864377504720323-1.739425271341133,1.955952238793543-3.343091168187129,2.986516021564967-4.982813114809687.144268551481218-.229553310669871.337396570922465-.456880567287953.677926574297999-.332698053944114Z" fill="none" stroke="#181900" stroke-linecap="round" stroke-linejoin="round" stroke-width="39"/>
        <path d="M79.074632553112679,197.489088137604995c8.763965361426017-.001389262983139,17.527930722320889-.000464613027361,26.291899745414412-.006027706304849,1.86433264608695-.001185818120575,3.734134365409773.103731524669456,5.584754077076468-.234348304144078.179579576046308.483886100349991-.109521255448271.853848493430633-.329947205381359,1.218729080840603-4.560870398432598,7.549813578264548-9.193746911370908,15.05573601927972-13.773363792402961,22.59419970383351-3.563993355050115,5.866676466302124-7.159201562089947,11.714387626364442-10.718538497352711,17.583993097454368-.889636555517427,1.46709382242625-1.775290261620285,2.937629225136334-2.70412933276566,4.381305653839263-.316223044321305.491486751070624-.682235352833231.878115157628599-1.289323510977738.961064403399178-.396564494571066.029084915788189-.793128989143952.058169831578198-1.189671519467083.087254747370935-1.242532053468494-.296679072017469-1.917412674357365-1.02772926484613-1.916391030513296-2.360909241514491.011205135348973-14.662475445163182.011860110499583-29.324950892754714.016659007005728-43.987426339390368.000025643170375-.079273485597696.018299915276657-.158561612021913.0280520593642-.237835095384071Z" fill="none" stroke="#181900" stroke-linecap="round" stroke-linejoin="round" stroke-width="39"/>
        <path d="M110.202620851609936,35.787363285110587c1.867627284681475-.007601422434163,3.736323505391738-.055773493400011,5.602457208202395-.00661969124485,1.015978224356331.026760915732666,1.700457261045813.585209097837833,1.867414582499805,1.651035031271931.195664741267137.42005853648061.098677843402584.86612793169661.098831493723992,1.298760773508548.005706989020837,16.169025673082615.004912560794764,32.338052488813446.004623310257557,48.507079304657964-.000029646972507,1.57241001674538-.080089348690308,1.658259097299378-1.683764956392224,1.692692828753934-1.58072296899536.033939467354685-3.190995118230603-.167166297871518-4.670602186820361.621778819622705-.434474674334524-.455526080428172-.367630014369752-1.036633080035244-.373018449730807-1.587952128437792-.017556341795171-1.798854959410164-.003659881183012-3.59791494185356-.007261604397172-5.396887058208449-.028952875171854-14.467740642260651.015425550512191-28.935479437041067.006584604599993-43.403226024222022-.000644041231681-1.059101657818246-.050319612674684-2.081363439407141-.773514227421401-2.939224516029753-.101357650004502-.133208938473217-.124895968333476-.279137629779143-.071749774521777-.437437339672215Z" fill="none" stroke="#181900" stroke-linecap="round" stroke-linejoin="round" stroke-width="39"/>
        <path d="M111.424384414343876,89.512911266353512c.731424348251494-1.153302368055847,1.890258001222719-.966098490453078,2.996296967331546-.964366462861108q3.237295789120253.005078904060611,3.238365456430984-3.218007769773976c.004477053799746-15.96629582260266.008873572029188-31.932595306480835.013372590061408-47.898825226495319.270357829796012.401208126442725.148975972819244.85424259535921.149100338454446,1.28261808449497.006335482275063,21.167314911182075.00553990553999,42.334633481980745.005513077468095,63.501950222326741-.000007999626177,2.951557045738809.003959529533859,5.903136059917415-.004643812254471,8.854663813642219-.001259382831449.432196465699235.096539986478092.881373853208061-.134816847818001,1.292137281337091-.444504997703007-.526481197781322-1.003385227763829-.729095158331802-1.694644033608711-.686500280613473-.67645490285031.041686889968332-1.358393533781964.029553335375567-2.036473775410741.003646141686659-.795962356711243-.030425209009081-1.503555255332685.07345174522834-1.988408868049191.81962265326456-.163501915911183.251623349258807-.439841500551665.538555812399863-.739726587123187.079800536298535-.213646121621423-.493610400520083-.189543900703939-1.016012852946915-.189909852888377-1.532183855588301-.004713472402727-6.612350375134156-.007406234035443-13.224715394822852.003687230314426-19.837051121304285.000981204418167-.586207142463536-.087878676160472-1.209535766431145.382288117091775-1.697504016414314Z" fill="none" stroke="#181900" stroke-linecap="round" stroke-linejoin="round" stroke-width="39"/>
        <path d="M110.202620851609936,35.787363285110587c.005124974680257.071346012368849.012907623369756.142401756497748.02333330323745.21316728959755.348653021239443.528866254328932-.034096045433216.922441086835533-.285023016452215,1.299420512042161-5.635171237900067,8.466075715620718-10.224467381494833,17.531422628486325-15.194564955025271,26.380516532847651-2.73868652913734,4.876131533868829-5.830664271939895,9.5519960186557-8.739456554355456,14.3328982800831-4.654057401884529,7.649447279543892-9.390352595386503,15.248501031236628-14.036089209405873,22.903238825656445-1.596559788083141,2.630640386616506-3.092041953536864,5.321464500334514-4.747381720298108,7.916275835474153-.19086205775875.299183040827302-.326654267500089.648100577427613-.663476044876916.833411242704642-1.508162644101503,1.761436586346463-2.533406603261938,3.837045544862121-3.725988816352583,5.799287376056782-4.734344080003211,7.789750200399794-9.423337486397941,15.607055013688296-14.136237142467508,23.409868575594373-.076074115192569.125947142356381-.242181498582795.197502664996136-.366276773472237.294438014499974-.285241364256763-.352139537433686-.107947709192558-.699951365592824.067015893719145-.997428265410235,1.352607391414494-2.299824117841126,2.437883382684049-4.73705518398765,3.673328916022001-7.096755487237715.09242650905253-.176538355302.220821298437841-.330281730911338.359180532440405-.473956653951973,1.309956351060464-1.723198488362868,2.237806233222727-3.6775027803169,3.31135135403747-5.540458735362336,7.299302563682431-12.666657960171506,14.691352810052194-25.277100995192086,22.3052510779371-37.758722734502044,5.283717698537657-8.661707158240461,10.597661858430001-17.306616473218128,15.754126046130295-26.044618715648539,2.027641275909446-3.435991827109319,3.679620755501674-7.086992750278114,5.518186492925452-10.632078110219481.110699856244537-.213450205133995.189350217666288-.439646160371922.182109394133477-.686466898081562,2.603350034395589-4.339485911112206,5.214848803479981-8.674120200286779,7.804595649142357-13.021708928713451.687122461175022-1.153509582367406,1.715268919940172-1.306559801582807,2.896015572981014-1.130327955429493Z" fill="none" stroke="#181900" stroke-linecap="round" stroke-linejoin="round" stroke-width="39"/>
        <path d="M99.502009629486565,49.939400169253531c.258672630978253,1.355027658128165-.64695012338143,2.332084509991546-1.210754289804754,3.366405293691969-.93691465601205,1.718795915367991-1.803455870734069,3.470554122487556-2.680510637434054,5.217344004636288-2.400290667979789,4.78057469597934-5.406025734588184,9.201659812248181-8.14852299186532,13.77840689155164-4.522941803362301,7.547997604675402-9.101954662050957,15.062362911283344-13.642325093378531,22.599944242482707-3.102180244695774,5.150000620403262-6.211004673434218,10.296464467293845-9.257549486879725,15.4793871022639-2.845738432896724,4.841298332561564-5.584417647076407,9.745533657099259-8.429310456564963,14.587344565507919-1.14343537532568,1.946059096950194-2.059865709319638,4.031597403072738-3.485454683877833,5.80872614580403-.34581141329727-.456741596596657-.015326275923144-.83958427401376.166393180006708-1.209173243792065,1.527754146896768-3.10724056476829,3.192694221114834-6.141439067814645,4.863590266671054-9.17377032962213,1.784978394439349-3.239375185850804,3.574128164965259-6.476238750052289,5.385066466213175-9.701108039027531.094997239488293-.169164587856358.243651301036152-.320345080556763.165206042104728-.541733844538612,3.316035229662702-5.539821675976782,6.619245170934846-11.08736127969496,9.950655371691028-16.617919977882593,8.024864173859896-13.322282324235857,16.062310199064996-26.636989509719569,24.096699533585706-39.953527323229537.734828821459814-1.217934495546615,1.484197972721631-2.42709296036719,2.226816779532783-3.640325487845985Z" fill="none" stroke="#181900" stroke-linecap="round" stroke-linejoin="round" stroke-width="39"/>
        <path d="M111.428530309589405,112.785288334134748c.514256552051847-1.326743373067984,1.523133076791055-1.620844404482341,2.835672539113148-1.45813794640253.786356643749059.097470101885847,1.598338272529872.065844370826198,2.392045654217327.004650343044887.803832899945519-.061962888929884,1.094500350956878.279485786180885,1.031140645780397,1.030943642776947.036921287986843,2.663387023513678-.002768719979031,5.330310801413361.131725077854753,7.988418318147524.136792711991802,2.703404559746559.737199904679983,3.375618373296675,3.220155397000781,4.172901078140967-2.262229614810167-.072119913841561-4.542235724375132.278532564762827-6.785144028959621-.202139428120972-1.70359819901023-.365093382280975-2.781896003953079-1.744778863472675-2.827171234674097-3.506069356579246-.025610083545871-.996571553105241-.010893808514993-1.994190215776143-.014341966242682-2.991332919514207-.574503791583993-1.681577778553219-.610890842206572-3.361456611301037.015917915909995-5.039233731493368Z" fill="none" stroke="#181900" stroke-linecap="round" stroke-linejoin="round" stroke-width="39"/>
        <path d="M63.227836114322599,110.151172958211646c.173248234720631,1.123602478241082-.625785640199865,1.895138486273936-1.084606153951427,2.751571745220645-1.836987945618603,3.428903681925476-3.832001310994201,6.773796178420525-5.641089174509943,10.216766407107571-1.328392776224973,2.528117995626417-2.862048743965715,4.958700120308094-3.854597233622371,7.657483917191712-1.438713762091538,2.797674182363153-2.87746779198369,5.595392299774176-4.316153183574897,8.393000579559157-1.534292077427381,2.699039960229129-3.070169698798964,5.397340346653436-4.599379341576423,8.099404504385348-.094967038336108.16780260113228-.137603348724952.365217441868481-.204599836744819.548887927066062-1.037381738854492,1.150563679279912-1.684108117678988,2.557503143682879-2.520266035332497,3.840113679275419-.340912009660315.522914955282431-.551116865276526,1.147847140064187-1.14420012633218,1.475368199434342-1.103643434777041-1.433857410763267-.882506902114073-2.870680133382848-.01351868988877-4.311969437805601,3.271974465707899-5.426842690223566,6.543794724116196-10.853773250591985,9.813465689690929-16.281999895597437,4.340174476007633-7.205457984464374,8.677620809820837-14.412563534145193,13.019879143515936-21.61675472402203.162174913298259-.269058244188273.362510870917504-.515109155411665.545064942326462-.771872901815186Z" fill="none" stroke="#181900" stroke-linecap="round" stroke-linejoin="round" stroke-width="39"/>
        <path d="M82.13598403672313,243.98800406652299c.767683496120299-.439657926561267,1.132443933563991-1.222478021200004,1.561054419810716-1.924516178651174,7.014753637084141-11.489879524639036,14.014798551849708-22.988751094070722,21.011962489894358-34.489365421372895,2.090462684327576-3.435896620053427,4.16196290433254-6.883318874095494,6.242219536439734-10.325439629395078,2.082145538521218-3.360006135653748,4.164210541473949-6.720041561365178,6.246282865844478-10.080076987075699,1.655533467263922-1.215170036730342,3.524207627750002-.845646498393762,5.353844049313011-.694714516436761.390809847647688.032233775706118.739301864445224.270801208541343.878196345998731.697147021521232-2.763147310233762,4.575161751295127-5.510839113838301,9.159754898109895-8.292304603887715,13.723757141036003-8.452087216061045,13.868742788316013-16.918890475857552,27.728508176861396-25.372635992363939,41.596225813495948-.449154387030831.736820071871989-.926207013065323,1.404105589088431-1.841823315754482,1.5792451559646-1.928929491297822-.027401273004216-3.857862643295448-.054831836045196-5.786795795294893-.082262399086176Z" fill="none" stroke="#181900" stroke-linecap="round" stroke-linejoin="round" stroke-width="39"/>
        <path d="M123.429543744024159,187.171038355112614c-1.614606286670096-.813560443471033-3.296350207205251-.535656957222272-4.971570738164701-.292930804117532-.425352309052869.061626140471162-.840784115428505.191834905258474-1.260623406885315.290512944016882,2.685100978679657-4.405806774305347,5.370421599775909-8.81136458324454,8.054878293925867-13.217449613050121,1.797005583664031-2.94947704018341,3.592803133886264-5.89968633157423,5.389149790217743-8.849558787413116,1.891751594330344-1.071765960460652,3.890886044820036-.62176801502028,5.870296653898549-.401579705757285.194844834237301.021674672277186.314198508295704.224640012280361.39373100503326.413150709789988-4.426654167479683,7.392526109493701-8.868280628207685,14.775899078931616-13.475861598025404,22.057855256531184Z" fill="none" stroke="#181900" stroke-linecap="round" stroke-linejoin="round" stroke-width="39"/>
        <path d="M136.905405342049562,165.11318309858143c-2.087262323967479-.488075014013702-4.175740151596983-.329279557382506-6.264276587052336-.011644229181911,2.783852271218166-4.562303420219905,5.567455614310347-9.124665420569727,8.350868600594367-13.687034743475124,1.611070836166618-2.639024656422407,3.222339350557377-5.27804931279843,4.833776257515638-7.917088614153727,1.741713742086176-.732982779998565,3.57649708097415-.41669389200888,5.37775574376974-.478795679428913.394609672989645-.013605131590339.68951626818307.134521976654469.856678749304592.503913318852028-4.382484021227356,7.198384430763326-8.62326938051865,14.483123246176547-13.154802764132,21.590649947387647Z" fill="none" stroke="#181900" stroke-linecap="round" stroke-linejoin="round" stroke-width="39"/>
        <path d="M111.428530309589405,112.785288334134748c-.005235198282207,1.679732372998842-.010470396561686,3.359457423487584-.015815416083569,5.039211763988533-3.109654346117168.518916229007118-6.102414780999425.227259996197972-8.698478570410771-1.683761753049112-1.494703393904274-1.100280589788781-3.030293399690891-1.481461486381704-4.869103592706779-1.469489606208299-10.46208357991236.068082287425568-20.924837045761706.033415124302337-31.387365385844532.032555986634179-1.695037717422565-.000139517160278-1.704983859412096-.006239169686523-1.160989493142552-1.565852976450515.405531659067492-1.162645964799594.841022549267109-2.314835379444048,1.263179311972635-3.471674590552539.898146004285081-2.046912073804378,2.159932042693981-3.890045952941364,3.308580255779816-5.791262001785981,5.025828068864939-8.318633012111604,10.092095972410789-16.612900365261339,15.162972706535584-24.904205762341007,3.013400705255663-4.927151054243041,6.1115650904012-9.803092120269866,9.076882403813215-14.758760697999605,1.698104212416183-2.837874698778251,3.237476491444795-5.772785496550568,4.79386373746911-8.693036626810681,3.33829982149382-6.263650799138304,6.860400101255436-12.417711966654679,10.772790362977503-18.342974376782877.243861802993706-.369323857781637.50730838846539-.717571012206463.550870917814791-1.175488640183175.869271630715048.3028544359031,1.19732947983357.959750641573919,1.197190172719274,1.831084740257211-.001855033566244,11.817228422115477-.004705779682808,23.6344577593145-.005213672737227,35.451686181740115-.000228206961765,5.409840575425733.004148756625,10.819681151909208.006468402359133,16.229554679211105.001403929320986,7.75749563514637.002785894400404,15.51495465773769.004167859484369,23.272413680332647Z" fill="none" stroke="#181900" stroke-linecap="round" stroke-linejoin="round" stroke-width="39"/>
      </g>
      <g>
        <path d="M160.12365903189675,126.941401485917595c-1.778760723230334,3.418578957200225-3.933402883250892,6.613433201606313-5.911489124882792,9.913204399729693-1.346028171621583,2.245410552799513-2.765372991160802,4.446856742956697-4.151932515175758,6.667956555589626-2.015629636644007-.291978198692959-4.024099008522171-.236195784405027-6.025085963702622.1253965871947-.679822615781632-.560384469877135-.055371638121869-.999756851486381.188512136552163-1.401425720194311,2.591452717286302-4.268114331081961,5.187122569696839-8.534537161547632,7.850903543440836-12.757273885922586,1.034882503115114-1.640534744161414,1.815770422396781-3.167014141942673.377566547793322-4.934968438575197,1.78688671240343-.013634101711432,3.574249312096981-.00664801714538,5.36049906768767-.047975849150134,1.240269810739846-.028681983912065,1.816757908344698.772349407620823,2.311026473689708,1.715254397807257l-.000000165402525.719831953520952Z" fill="#ec7323" stroke-width="0"/>
        <path d="M87.922783492722374,244.070281110627548c-.006655182547547.067747854447589-.010487959333659.135656804747669-.011505651769767.203712205881857-2.31911337159454-.000000532887498-4.638223082482909-.000001065772267-6.957336454077449-.000001598657036-.002211052351413-.066268709607357-.004744247003146-.132508129252528-.007603244664097-.198732903952987.344703333692451-.412418289182824.820287856650793-.386847977452817,1.28852168413232-.387419025588315,1.420017890862255-.030095186901235,2.84050068938177-.050407501278642,4.26069428079154-.022039773947654.504127066096771.010061243609016,1.041482393039587-.045809378823833,1.427229385587452.404481096264135Z" fill="#f5ad1c" stroke-width="0"/>
        <path d="M152.452133655921898,124.55429098373952c1.314223239747662.807724334542399,1.5635244285113,2.29316130445477.68215742450775,3.706529878102629-2.960664505878412,4.747738604919505-5.856131813226057,9.536139118926258-8.774727469828576,14.310099639293185-.185832246185782.303957318043103-.356121128773339.617426579230596-.533628926342317.926480365654243.159233382958519.390421587062519-.061551302101179.693280520678854-.247259082940218.991672731687686-1.299646966286673,2.088247546505954-2.582937891887923,4.186307259219575-3.833216558202366,6.304584427679401-.270416598583324.458140054275646-.625358920922736.821050855776775-1.183587614813405.922364966082569-.676645277957505.121311855975364-1.357485690959948.084992053438327-2.035836830936205.085035832623362-30.408138825401693.002094572984788-60.816273989534238.001750750376232-91.224410526467182.001560700461596-.359617420542236-.000000082633051-.719442130149218.006436320354624-1.078792773483656-.007132371935768-1.56042844059175-.058924590834977-2.067159714288209-.753486681220238-1.630132848664289-2.252360297979976.134247874217181-.460439353482798.372684520285475-.88283824724931.538369635603885-1.329123183047159.078516831717025-.601053512237741.370482658197943-1.116631324456648.664197846286697-1.635753230769296,1.423108556973602-2.515281615073036,2.854196083343595-5.025862177344607,4.340964799971516-7.504201718409604,2.223498293572447-3.404263349339999,4.231527349752469-6.939907209923149,6.320748150357758-10.425567603417221,3.606675413559969-6.017402987778951,7.268420678782604-12.000939357422794,10.938768606425583-17.979393903641721.207996010236457-.338812457184758.401764683118017-.694759589383466.742935391692299-.924451982486062.308667278010944-.207805420292061.51906828261599-.151773530838909.571917830154234.251037717500367-.166258628712058,1.120922361829798-.698972394511657,2.118928998463161-1.054233357861449,3.175632910367312-.250478618872876.745028650438144-.067481756892448,1.16319523067159.777795832168522,1.16862872679576.399211179118538.002570292491328.798466286122675.007776688341437,1.197708581845291.007791425096002,10.301462683196405.000456362647128,20.602976612833118.016019061976294,30.904325822007195-.01800627166358,1.420277795288712-.004693402105659,2.651831384819161.295976434952536,3.799455797166956,1.14904170875343,2.193766697347201,1.630701356062673,4.663053119135839,2.372267084553641,7.415283199361511,2.144830578327856.543739599024775-.044923469572495,1.118353610623672-.098817005930869,1.657766193045973.116735824066382.530311971346237.612506056670099.345226407834161,1.359233544291783.353206591110393,2.055406472120922.036364743271406,3.173070282710796,1.230641136015038,4.37955647824856,4.432750198500798,4.39421687763388,1.62324574257309.007425397409861,3.248468282568865-.051095723411891,4.844588092733829.334061309636127,10.470964439338786.010092823822561,20.941921557259775.020185647644212,31.412885996599471.030278471467682Z" fill="#ee7423" stroke-width="0"/>
        <path d="M43.527399293036979,147.818310006266984c.062004851607526.952966018629922-.821050024796023,1.619812091998938-.743898087984235,2.611733863545851.05272822337156.677932567461539.174014247397281,1.082054560691176.944406130171046.988861161943532.196823457313258-.02380543248546.398997486632652-.003258424954765.59871289772309-.003258379064391,31.55505828951118-.000373519761524,63.110118866964513-.000761684544159,94.665179444421483-.001149849322246.168062954396191.634305083595791-.295221691315419,1.04972557434121-.571744348713764,1.499261678796756-2.524769224367446,4.10433910356096-5.01681172460485,8.228646697483782-7.535401674849709,12.336603122055749-3.305583911791473,5.553800348618097-6.784443747538717,11.002039363456788-10.091631049149328,16.554770625348283-1.102246898357407,1.850661455350746-2.271316349414519,3.660023942933549-3.358400597717264,5.519853183400301-1.887234752146469,3.123196229913447-3.817563351653916,6.219606710931657-5.728387702174587,9.328011466653152-.27833104785077.452779975654266-.594792015634084.846115812109929-1.164998542959438.935040233940526-.693242953380832.233426791942293-1.408076718660595.278167159467557-2.128438142699451.278577054462403-9.211519850656259.005138284900568-18.423039700087429.004960428053892-27.634552226163578-.003667604513794-.587463083850707-.000556645694815-1.210270322979341.087694093193932-1.703616500535645-.37385842590902-.014155094474518-3.755832179675963-.038552849679036-7.511664361704788-.04040796557365-11.267496538554042-.004361534238342-8.832762190415451.002863072064429-17.665539023185374.003677778811834-26.498301212411207.00031193545874-3.374036541824353-1.692940792035188-5.0924394766771-5.074574633757948-5.095684125324624-10.310010434000105-.009887756580611-20.620039174226804-.008074143313934-30.930048697626262.001948002873178-1.309960531279103.001273815613786-2.44942341136084-.284223761028443-3.170318677085561-1.495733089166606.864377504720323-1.739425271341133,1.955952238793543-3.343091168187129,2.986516021564967-4.982813114809687.144268551481218-.229553310669871.337396570922465-.456880567287953.677926574297999-.332698053944114Z" fill="#eb5024" stroke-width="0"/>
        <path d="M79.074632553112679,197.489088137604995c8.763965361426017-.001389262983139,17.527930722320889-.000464613027361,26.291899745414412-.006027706304849,1.86433264608695-.001185818120575,3.734134365409773.103731524669456,5.584754077076468-.234348304144078.179579576046308.483886100349991-.109521255448271.853848493430633-.329947205381359,1.218729080840603-4.560870398432598,7.549813578264548-9.193746911370908,15.05573601927972-13.773363792402961,22.59419970383351-3.563993355050115,5.866676466302124-7.159201562089947,11.714387626364442-10.718538497352711,17.583993097454368-.889636555517427,1.46709382242625-1.775290261620285,2.937629225136334-2.70412933276566,4.381305653839263-.316223044321305.491486751070624-.682235352833231.878115157628599-1.289323510977738.961064403399178-.396564494571066.029084915788189-.793128989143952.058169831578198-1.189671519467083.087254747370935-1.242532053468494-.296679072017469-1.917412674357365-1.02772926484613-1.916391030513296-2.360909241514491.011205135348973-14.662475445163182.011860110499583-29.324950892754714.016659007005728-43.987426339390368.000025643170375-.079273485597696.018299915276657-.158561612021913.0280520593642-.237835095384071Z" fill="#e81e25" stroke-width="0"/>
        <path d="M110.202620851609936,35.787363285110587c1.867627284681475-.007601422434163,3.736323505391738-.055773493400011,5.602457208202395-.00661969124485,1.015978224356331.026760915732666,1.700457261045813.585209097837833,1.867414582499805,1.651035031271931.195664741267137.42005853648061.098677843402584.86612793169661.098831493723992,1.298760773508548.005706989020837,16.169025673082615.004912560794764,32.338052488813446.004623310257557,48.507079304657964-.000029646972507,1.57241001674538-.080089348690308,1.658259097299378-1.683764956392224,1.692692828753934-1.58072296899536.033939467354685-3.190995118230603-.167166297871518-4.670602186820361.621778819622705-.434474674334524-.455526080428172-.367630014369752-1.036633080035244-.373018449730807-1.587952128437792-.017556341795171-1.798854959410164-.003659881183012-3.59791494185356-.007261604397172-5.396887058208449-.028952875171854-14.467740642260651.015425550512191-28.935479437041067.006584604599993-43.403226024222022-.000644041231681-1.059101657818246-.050319612674684-2.081363439407141-.773514227421401-2.939224516029753-.101357650004502-.133208938473217-.124895968333476-.279137629779143-.071749774521777-.437437339672215Z" fill="#f39b1f" stroke-width="0"/>
        <path d="M111.424384414343876,89.512911266353512c.731424348251494-1.153302368055847,1.890258001222719-.966098490453078,2.996296967331546-.964366462861108q3.237295789120253.005078904060611,3.238365456430984-3.218007769773976c.004477053799746-15.96629582260266.008873572029188-31.932595306480835.013372590061408-47.898825226495319.270357829796012.401208126442725.148975972819244.85424259535921.149100338454446,1.28261808449497.006335482275063,21.167314911182075.00553990553999,42.334633481980745.005513077468095,63.501950222326741-.000007999626177,2.951557045738809.003959529533859,5.903136059917415-.004643812254471,8.854663813642219-.001259382831449.432196465699235.096539986478092.881373853208061-.134816847818001,1.292137281337091-.444504997703007-.526481197781322-1.003385227763829-.729095158331802-1.694644033608711-.686500280613473-.67645490285031.041686889968332-1.358393533781964.029553335375567-2.036473775410741.003646141686659-.795962356711243-.030425209009081-1.503555255332685.07345174522834-1.988408868049191.81962265326456-.163501915911183.251623349258807-.439841500551665.538555812399863-.739726587123187.079800536298535-.213646121621423-.493610400520083-.189543900703939-1.016012852946915-.189909852888377-1.532183855588301-.004713472402727-6.612350375134156-.007406234035443-13.224715394822852.003687230314426-19.837051121304285.000981204418167-.586207142463536-.087878676160472-1.209535766431145.382288117091775-1.697504016414314Z" fill="#f08b21" stroke-width="0"/>
        <path d="M110.202620851609936,35.787363285110587c.005124974680257.071346012368849.012907623369756.142401756497748.02333330323745.21316728959755.348653021239443.528866254328932-.034096045433216.922441086835533-.285023016452215,1.299420512042161-5.635171237900067,8.466075715620718-10.224467381494833,17.531422628486325-15.194564955025271,26.380516532847651-2.73868652913734,4.876131533868829-5.830664271939895,9.5519960186557-8.739456554355456,14.3328982800831-4.654057401884529,7.649447279543892-9.390352595386503,15.248501031236628-14.036089209405873,22.903238825656445-1.596559788083141,2.630640386616506-3.092041953536864,5.321464500334514-4.747381720298108,7.916275835474153-.19086205775875.299183040827302-.326654267500089.648100577427613-.663476044876916.833411242704642-1.508162644101503,1.761436586346463-2.533406603261938,3.837045544862121-3.725988816352583,5.799287376056782-4.734344080003211,7.789750200399794-9.423337486397941,15.607055013688296-14.136237142467508,23.409868575594373-.076074115192569.125947142356381-.242181498582795.197502664996136-.366276773472237.294438014499974-.285241364256763-.352139537433686-.107947709192558-.699951365592824.067015893719145-.997428265410235,1.352607391414494-2.299824117841126,2.437883382684049-4.73705518398765,3.673328916022001-7.096755487237715.09242650905253-.176538355302.220821298437841-.330281730911338.359180532440405-.473956653951973,1.309956351060464-1.723198488362868,2.237806233222727-3.6775027803169,3.31135135403747-5.540458735362336,7.299302563682431-12.666657960171506,14.691352810052194-25.277100995192086,22.3052510779371-37.758722734502044,5.283717698537657-8.661707158240461,10.597661858430001-17.306616473218128,15.754126046130295-26.044618715648539,2.027641275909446-3.435991827109319,3.679620755501674-7.086992750278114,5.518186492925452-10.632078110219481.110699856244537-.213450205133995.189350217666288-.439646160371922.182109394133477-.686466898081562,2.603350034395589-4.339485911112206,5.214848803479981-8.674120200286779,7.804595649142357-13.021708928713451.687122461175022-1.153509582367406,1.715268919940172-1.306559801582807,2.896015572981014-1.130327955429493Z" fill="#d36d28" stroke-width="0"/>
        <path d="M99.502009629486565,49.939400169253531c.258672630978253,1.355027658128165-.64695012338143,2.332084509991546-1.210754289804754,3.366405293691969-.93691465601205,1.718795915367991-1.803455870734069,3.470554122487556-2.680510637434054,5.217344004636288-2.400290667979789,4.78057469597934-5.406025734588184,9.201659812248181-8.14852299186532,13.77840689155164-4.522941803362301,7.547997604675402-9.101954662050957,15.062362911283344-13.642325093378531,22.599944242482707-3.102180244695774,5.150000620403262-6.211004673434218,10.296464467293845-9.257549486879725,15.4793871022639-2.845738432896724,4.841298332561564-5.584417647076407,9.745533657099259-8.429310456564963,14.587344565507919-1.14343537532568,1.946059096950194-2.059865709319638,4.031597403072738-3.485454683877833,5.80872614580403-.34581141329727-.456741596596657-.015326275923144-.83958427401376.166393180006708-1.209173243792065,1.527754146896768-3.10724056476829,3.192694221114834-6.141439067814645,4.863590266671054-9.17377032962213,1.784978394439349-3.239375185850804,3.574128164965259-6.476238750052289,5.385066466213175-9.701108039027531.094997239488293-.169164587856358.243651301036152-.320345080556763.165206042104728-.541733844538612,3.316035229662702-5.539821675976782,6.619245170934846-11.08736127969496,9.950655371691028-16.617919977882593,8.024864173859896-13.322282324235857,16.062310199064996-26.636989509719569,24.096699533585706-39.953527323229537.734828821459814-1.217934495546615,1.484197972721631-2.42709296036719,2.226816779532783-3.640325487845985Z" fill="#cd6128" stroke-width="0"/>
        <path d="M111.428530309589405,112.785288334134748c.514256552051847-1.326743373067984,1.523133076791055-1.620844404482341,2.835672539113148-1.45813794640253.786356643749059.097470101885847,1.598338272529872.065844370826198,2.392045654217327.004650343044887.803832899945519-.061962888929884,1.094500350956878.279485786180885,1.031140645780397,1.030943642776947.036921287986843,2.663387023513678-.002768719979031,5.330310801413361.131725077854753,7.988418318147524.136792711991802,2.703404559746559.737199904679983,3.375618373296675,3.220155397000781,4.172901078140967-2.262229614810167-.072119913841561-4.542235724375132.278532564762827-6.785144028959621-.202139428120972-1.70359819901023-.365093382280975-2.781896003953079-1.744778863472675-2.827171234674097-3.506069356579246-.025610083545871-.996571553105241-.010893808514993-1.994190215776143-.014341966242682-2.991332919514207-.574503791583993-1.681577778553219-.610890842206572-3.361456611301037.015917915909995-5.039233731493368Z" fill="#ed7a23" stroke-width="0"/>
        <path d="M63.227836114322599,110.151172958211646c.173248234720631,1.123602478241082-.625785640199865,1.895138486273936-1.084606153951427,2.751571745220645-1.836987945618603,3.428903681925476-3.832001310994201,6.773796178420525-5.641089174509943,10.216766407107571-1.328392776224973,2.528117995626417-2.862048743965715,4.958700120308094-3.854597233622371,7.657483917191712-1.438713762091538,2.797674182363153-2.87746779198369,5.595392299774176-4.316153183574897,8.393000579559157-1.534292077427381,2.699039960229129-3.070169698798964,5.397340346653436-4.599379341576423,8.099404504385348-.094967038336108.16780260113228-.137603348724952.365217441868481-.204599836744819.548887927066062-1.037381738854492,1.150563679279912-1.684108117678988,2.557503143682879-2.520266035332497,3.840113679275419-.340912009660315.522914955282431-.551116865276526,1.147847140064187-1.14420012633218,1.475368199434342-1.103643434777041-1.433857410763267-.882506902114073-2.870680133382848-.01351868988877-4.311969437805601,3.271974465707899-5.426842690223566,6.543794724116196-10.853773250591985,9.813465689690929-16.281999895597437,4.340174476007633-7.205457984464374,8.677620809820837-14.412563534145193,13.019879143515936-21.61675472402203.162174913298259-.269058244188273.362510870917504-.515109155411665.545064942326462-.771872901815186Z" fill="#ce5828" stroke-width="0"/>
        <path d="M82.13598403672313,243.98800406652299c.767683496120299-.439657926561267,1.132443933563991-1.222478021200004,1.561054419810716-1.924516178651174,7.014753637084141-11.489879524639036,14.014798551849708-22.988751094070722,21.011962489894358-34.489365421372895,2.090462684327576-3.435896620053427,4.16196290433254-6.883318874095494,6.242219536439734-10.325439629395078,2.082145538521218-3.360006135653748,4.164210541473949-6.720041561365178,6.246282865844478-10.080076987075699,1.655533467263922-1.215170036730342,3.524207627750002-.845646498393762,5.353844049313011-.694714516436761.390809847647688.032233775706118.739301864445224.270801208541343.878196345998731.697147021521232-2.763147310233762,4.575161751295127-5.510839113838301,9.159754898109895-8.292304603887715,13.723757141036003-8.452087216061045,13.868742788316013-16.918890475857552,27.728508176861396-25.372635992363939,41.596225813495948-.449154387030831.736820071871989-.926207013065323,1.404105589088431-1.841823315754482,1.5792451559646-1.928929491297822-.027401273004216-3.857862643295448-.054831836045196-5.786795795294893-.082262399086176Z" fill="#e53426" stroke-width="0"/>
        <path d="M123.429543744024159,187.171038355112614c-1.614606286670096-.813560443471033-3.296350207205251-.535656957222272-4.971570738164701-.292930804117532-.425352309052869.061626140471162-.840784115428505.191834905258474-1.260623406885315.290512944016882,2.685100978679657-4.405806774305347,5.370421599775909-8.81136458324454,8.054878293925867-13.217449613050121,1.797005583664031-2.94947704018341,3.592803133886264-5.89968633157423,5.389149790217743-8.849558787413116,1.891751594330344-1.071765960460652,3.890886044820036-.62176801502028,5.870296653898549-.401579705757285.194844834237301.021674672277186.314198508295704.224640012280361.39373100503326.413150709789988-4.426654167479683,7.392526109493701-8.868280628207685,14.775899078931616-13.475861598025404,22.057855256531184Z" fill="#e84d25" stroke-width="0"/>
        <path d="M136.905405342049562,165.11318309858143c-2.087262323967479-.488075014013702-4.175740151596983-.329279557382506-6.264276587052336-.011644229181911,2.783852271218166-4.562303420219905,5.567455614310347-9.124665420569727,8.350868600594367-13.687034743475124,1.611070836166618-2.639024656422407,3.222339350557377-5.27804931279843,4.833776257515638-7.917088614153727,1.741713742086176-.732982779998565,3.57649708097415-.41669389200888,5.37775574376974-.478795679428913.394609672989645-.013605131590339.68951626818307.134521976654469.856678749304592.503913318852028-4.382484021227356,7.198384430763326-8.62326938051865,14.483123246176547-13.154802764132,21.590649947387647Z" fill="#ea6124" stroke-width="0"/>
        <path d="M111.428530309589405,112.785288334134748c-.005235198282207,1.679732372998842-.010470396561686,3.359457423487584-.015815416083569,5.039211763988533-3.109654346117168.518916229007118-6.102414780999425.227259996197972-8.698478570410771-1.683761753049112-1.494703393904274-1.100280589788781-3.030293399690891-1.481461486381704-4.869103592706779-1.469489606208299-10.46208357991236.068082287425568-20.924837045761706.033415124302337-31.387365385844532.032555986634179-1.695037717422565-.000139517160278-1.704983859412096-.006239169686523-1.160989493142552-1.565852976450515.405531659067492-1.162645964799594.841022549267109-2.314835379444048,1.263179311972635-3.471674590552539.898146004285081-2.046912073804378,2.159932042693981-3.890045952941364,3.308580255779816-5.791262001785981,5.025828068864939-8.318633012111604,10.092095972410789-16.612900365261339,15.162972706535584-24.904205762341007,3.013400705255663-4.927151054243041,6.1115650904012-9.803092120269866,9.076882403813215-14.758760697999605,1.698104212416183-2.837874698778251,3.237476491444795-5.772785496550568,4.79386373746911-8.693036626810681,3.33829982149382-6.263650799138304,6.860400101255436-12.417711966654679,10.772790362977503-18.342974376782877.243861802993706-.369323857781637.50730838846539-.717571012206463.550870917814791-1.175488640183175.869271630715048.3028544359031,1.19732947983357.959750641573919,1.197190172719274,1.831084740257211-.001855033566244,11.817228422115477-.004705779682808,23.6344577593145-.005213672737227,35.451686181740115-.000228206961765,5.409840575425733.004148756625,10.819681151909208.006468402359133,16.229554679211105.001403929320986,7.75749563514637.002785894400404,15.51495465773769.004167859484369,23.272413680332647Z" fill="#e98324" stroke-width="0"/>
      </g>
    </g>
  </a>
  <a xlink:href="https://www.notion.so/dmmnotes/disorientation-588ac5ef3d7b4514ac631e379aff4284?pvs=4">
    <g id="AC">
      <g>
        <path d="M129.509765625,88.84375c6.580078125.17236328125,12.4345703125,1.39013671875,17.5625,3.6533203125,5.12744140625,2.265625,9.52783203125,5.23583984375,13.20361328125,8.90966796875,3.67333984375,3.67529296875,6.57958984375,7.8837890625,8.716796875,12.62646484375,2.13525390625,4.7431640625,3.50341796875,9.70068359375,4.10205078125,14.87060546875.59716796875,5.17138671875.40478515625,10.38330078125-.57666015625,15.63916015625-.9833984375,5.255859375-2.75634765625,10.25537109375-5.31982421875,14.99853515625-2.56396484375,4.7431640625-5.98291015625,9.0595703125-10.25537109375,12.947265625-4.2744140625,3.8896484375-9.35791015625,7.03076171875-15.2548828125,9.421875-2.90625,1.1982421875-5.98291015625,2.09326171875-9.22998046875,2.6923828125-3.24853515625.5966796875-6.49560546875.81103515625-9.7421875.640625-2.47998046875-.171875-4.787109375-.76904296875-6.92236328125-1.79443359375-2.13720703125-1.025390625-3.37744140625-2.9482421875-3.7177734375-5.7685546875-.0859375-.939453125-.1279296875-2.88427734375-.1279296875-5.8330078125,0-2.9482421875.0419921875-6.4736328125.1279296875-10.57568359375,0-11.28076171875.1064453125-22.5615234375.3203125-33.84228515625.21240234375-11.28125.27685546875-22.90234375.1923828125-34.8681640625-.0859375-.68310546875.0419921875-1.32421875.384765625-1.9228515625.25634765625-.51318359375.6611328125-.9814453125,1.2177734375-1.41015625.5546875-.4267578125,1.43017578125-.72509765625,2.6279296875-.8974609375.85302734375-.083984375,1.87890625-.1923828125,3.07666015625-.3203125,1.19580078125-.12841796875,2.3916015625-.1923828125,3.58935546875-.1923828125,1.19580078125,0,2.32763671875.06396484375,3.39697265625.1923828125,1.0673828125.1279296875,1.94287109375.40625,2.6279296875.8330078125ZM132.58642578125,162.810546875c4.52880859375-1.708984375,8.3525390625-4.1025390625,11.47314453125-7.1787109375,3.11865234375-3.07666015625,5.51220703125-6.47412109375,7.1787109375-10.19140625,1.66650390625-3.7177734375,2.5419921875-7.54150390625,2.6279296875-11.47314453125.083984375-3.9296875-.6630859375-7.6474609375-2.2431640625-11.15283203125-1.58251953125-3.5029296875-4.0380859375-6.6015625-7.37109375-9.2939453125-3.3330078125-2.69189453125-7.603515625-4.5927734375-12.8115234375-5.70458984375.4248046875,9.14599609375.69921875,18.28955078125.82763671875,27.43310546875.1259765625,9.14599609375.232421875,18.33154296875.318359375,27.5615234375Z" fill="none" stroke="#181818" stroke-linecap="round" stroke-linejoin="round" stroke-width="37"/>
        <path d="M220.6533203125,184.474609375c-5.47021484375,0-10.662109375-1.28173828125-15.5751953125-3.845703125-4.91552734375-2.56396484375-9.251953125-6.28125-13.01171875-11.15283203125-3.58935546875-4.61474609375-6.30322265625-9.7841796875-8.14013671875-15.5107421875-1.8388671875-5.724609375-2.755859375-11.66552734375-2.755859375-17.81884765625,0-6.40966796875.9169921875-12.45458984375,2.755859375-18.13916015625,1.8369140625-5.6826171875,4.55078125-10.7880859375,8.14013671875-15.31884765625,3.759765625-4.87109375,8.09619140625-8.60888671875,13.01171875-11.216796875,4.9130859375-2.60595703125,10.10498046875-3.90966796875,15.5751953125-3.90966796875,5.55419921875,0,10.76806640625,1.3037109375,15.63916015625,3.90966796875,4.87158203125,2.60791015625,9.18603515625,6.345703125,12.947265625,11.216796875,3.58935546875,4.53076171875,6.28173828125,9.63623046875,8.076171875,15.31884765625,1.794921875,5.6845703125,2.69189453125,11.7294921875,2.69189453125,18.13916015625,0,6.1533203125-.89697265625,12.09423828125-2.69189453125,17.81884765625-1.79443359375,5.7265625-4.48681640625,10.89599609375-8.076171875,15.5107421875-3.76123046875,4.87158203125-8.07568359375,8.5888671875-12.947265625,11.15283203125-4.87109375,2.56396484375-10.0849609375,3.845703125-15.63916015625,3.845703125ZM220.71728515625,106.021484375c-2.81201171875,0-5.47412109375.791015625-7.98779296875,2.37158203125-2.513671875,1.58251953125-4.72900390625,3.76171875-6.64599609375,6.53759765625-1.9169921875,2.7783203125-3.42919921875,5.98291015625-4.53662109375,9.6142578125-1.10791015625,3.6337890625-1.66064453125,7.49951171875-1.66064453125,11.6015625,0,4.01806640625.552734375,7.841796875,1.66064453125,11.47314453125,1.107421875,3.63330078125,2.61962890625,6.81640625,4.53662109375,9.55029296875,1.9169921875,2.73583984375,4.13232421875,4.89306640625,6.64599609375,6.4736328125,2.513671875,1.58251953125,5.17578125,2.37158203125,7.98779296875,2.37158203125s5.49609375-.7890625,8.05224609375-2.37158203125c2.5556640625-1.58056640625,4.791015625-3.73779296875,6.7080078125-6.4736328125,1.91650390625-2.73388671875,3.42919921875-5.9169921875,4.53662109375-9.55029296875,1.10791015625-3.63134765625,1.66259765625-7.455078125,1.66259765625-11.47314453125,0-4.10205078125-.5546875-7.9677734375-1.66259765625-11.6015625-1.107421875-3.63134765625-2.6201171875-6.8359375-4.53662109375-9.6142578125-1.9169921875-2.77587890625-4.15234375-4.955078125-6.7080078125-6.53759765625-2.55615234375-1.58056640625-5.240234375-2.37158203125-8.05224609375-2.37158203125Z" fill="none" stroke="#181818" stroke-linecap="round" stroke-linejoin="round" stroke-width="37"/>
      </g>
      <g>
        <path d="M129.509765625,88.84375c6.580078125.17236328125,12.4345703125,1.39013671875,17.5625,3.6533203125,5.12744140625,2.265625,9.52783203125,5.23583984375,13.20361328125,8.90966796875,3.67333984375,3.67529296875,6.57958984375,7.8837890625,8.716796875,12.62646484375,2.13525390625,4.7431640625,3.50341796875,9.70068359375,4.10205078125,14.87060546875.59716796875,5.17138671875.40478515625,10.38330078125-.57666015625,15.63916015625-.9833984375,5.255859375-2.75634765625,10.25537109375-5.31982421875,14.99853515625-2.56396484375,4.7431640625-5.98291015625,9.0595703125-10.25537109375,12.947265625-4.2744140625,3.8896484375-9.35791015625,7.03076171875-15.2548828125,9.421875-2.90625,1.1982421875-5.98291015625,2.09326171875-9.22998046875,2.6923828125-3.24853515625.5966796875-6.49560546875.81103515625-9.7421875.640625-2.47998046875-.171875-4.787109375-.76904296875-6.92236328125-1.79443359375-2.13720703125-1.025390625-3.37744140625-2.9482421875-3.7177734375-5.7685546875-.0859375-.939453125-.1279296875-2.88427734375-.1279296875-5.8330078125,0-2.9482421875.0419921875-6.4736328125.1279296875-10.57568359375,0-11.28076171875.1064453125-22.5615234375.3203125-33.84228515625.21240234375-11.28125.27685546875-22.90234375.1923828125-34.8681640625-.0859375-.68310546875.0419921875-1.32421875.384765625-1.9228515625.25634765625-.51318359375.6611328125-.9814453125,1.2177734375-1.41015625.5546875-.4267578125,1.43017578125-.72509765625,2.6279296875-.8974609375.85302734375-.083984375,1.87890625-.1923828125,3.07666015625-.3203125,1.19580078125-.12841796875,2.3916015625-.1923828125,3.58935546875-.1923828125,1.19580078125,0,2.32763671875.06396484375,3.39697265625.1923828125,1.0673828125.1279296875,1.94287109375.40625,2.6279296875.8330078125ZM132.58642578125,162.810546875c4.52880859375-1.708984375,8.3525390625-4.1025390625,11.47314453125-7.1787109375,3.11865234375-3.07666015625,5.51220703125-6.47412109375,7.1787109375-10.19140625,1.66650390625-3.7177734375,2.5419921875-7.54150390625,2.6279296875-11.47314453125.083984375-3.9296875-.6630859375-7.6474609375-2.2431640625-11.15283203125-1.58251953125-3.5029296875-4.0380859375-6.6015625-7.37109375-9.2939453125-3.3330078125-2.69189453125-7.603515625-4.5927734375-12.8115234375-5.70458984375.4248046875,9.14599609375.69921875,18.28955078125.82763671875,27.43310546875.1259765625,9.14599609375.232421875,18.33154296875.318359375,27.5615234375Z" fill="#fff" stroke-width="0"/>
        <path d="M220.6533203125,184.474609375c-5.47021484375,0-10.662109375-1.28173828125-15.5751953125-3.845703125-4.91552734375-2.56396484375-9.251953125-6.28125-13.01171875-11.15283203125-3.58935546875-4.61474609375-6.30322265625-9.7841796875-8.14013671875-15.5107421875-1.8388671875-5.724609375-2.755859375-11.66552734375-2.755859375-17.81884765625,0-6.40966796875.9169921875-12.45458984375,2.755859375-18.13916015625,1.8369140625-5.6826171875,4.55078125-10.7880859375,8.14013671875-15.31884765625,3.759765625-4.87109375,8.09619140625-8.60888671875,13.01171875-11.216796875,4.9130859375-2.60595703125,10.10498046875-3.90966796875,15.5751953125-3.90966796875,5.55419921875,0,10.76806640625,1.3037109375,15.63916015625,3.90966796875,4.87158203125,2.60791015625,9.18603515625,6.345703125,12.947265625,11.216796875,3.58935546875,4.53076171875,6.28173828125,9.63623046875,8.076171875,15.31884765625,1.794921875,5.6845703125,2.69189453125,11.7294921875,2.69189453125,18.13916015625,0,6.1533203125-.89697265625,12.09423828125-2.69189453125,17.81884765625-1.79443359375,5.7265625-4.48681640625,10.89599609375-8.076171875,15.5107421875-3.76123046875,4.87158203125-8.07568359375,8.5888671875-12.947265625,11.15283203125-4.87109375,2.56396484375-10.0849609375,3.845703125-15.63916015625,3.845703125ZM220.71728515625,106.021484375c-2.81201171875,0-5.47412109375.791015625-7.98779296875,2.37158203125-2.513671875,1.58251953125-4.72900390625,3.76171875-6.64599609375,6.53759765625-1.9169921875,2.7783203125-3.42919921875,5.98291015625-4.53662109375,9.6142578125-1.10791015625,3.6337890625-1.66064453125,7.49951171875-1.66064453125,11.6015625,0,4.01806640625.552734375,7.841796875,1.66064453125,11.47314453125,1.107421875,3.63330078125,2.61962890625,6.81640625,4.53662109375,9.55029296875,1.9169921875,2.73583984375,4.13232421875,4.89306640625,6.64599609375,6.4736328125,2.513671875,1.58251953125,5.17578125,2.37158203125,7.98779296875,2.37158203125s5.49609375-.7890625,8.05224609375-2.37158203125c2.5556640625-1.58056640625,4.791015625-3.73779296875,6.7080078125-6.4736328125,1.91650390625-2.73388671875,3.42919921875-5.9169921875,4.53662109375-9.55029296875,1.10791015625-3.63134765625,1.66259765625-7.455078125,1.66259765625-11.47314453125,0-4.10205078125-.5546875-7.9677734375-1.66259765625-11.6015625-1.107421875-3.63134765625-2.6201171875-6.8359375-4.53662109375-9.6142578125-1.9169921875-2.77587890625-4.15234375-4.955078125-6.7080078125-6.53759765625-2.55615234375-1.58056640625-5.240234375-2.37158203125-8.05224609375-2.37158203125Z" fill="#fff" stroke-width="0"/>
      </g>
    </g>
  </a>
</svg>