<?xml version="1.0" encoding="UTF-8"?>
<svg id="Pattern" xmlns="http://www.w3.org/2000/svg" width="280" height="280" xmlns:xlink="http://www.w3.org/1999/xlink" viewBox="0 0 280 280">
  <a xlink:href="https://www.notion.so/dmmnotes/delusionally-repaired-d36b468dd5e848eeaed44876d511bdcc?pvs=4">
    <g>
      <g>
        <g>
          <path d="M203.895981420209864,131.244684654680896c-2.175639839089854,4.3174466100063-1.708870524760641,9.196212877919606-2.94225191913938,13.743993527974453-3.08617461735048,11.379298803582969-7.818001093070052,21.815570216433116-15.884837076810072,30.565245562884229-1.944823869000174-2.52956636842373-.130233196790869-4.759235850317964.700329282479288-6.955751132342812,3.427985308941061-9.065730141885069,5.923072255440275-18.281774566484273,5.825507880001169-28.092064199201559-.051907296619902-5.220734690828976-.739919076710066-10.285019666554945-2.892128221261373-15.03533818035703-1.912353225288825-4.220857374390107-2.768267197739988-8.645449212383937-2.002371606069573-13.106167695751537,1.964473943990015-11.441499131198725-2.228111179760162-21.215166710958329-7.829830773589492-30.614062264071435-3.059954191450743-5.13417936420683-6.68662020433112-9.883042141877013-10.955153096590948-14.132137748568312-1.698534798739274-1.690787976725915-3.852527542028838-3.365608585928385-2.973739296869098-6.349901954270535,20.614262554228844,11.499381791174528,32.27940990424031,29.316879423849969,37.073159269490134,52.113166115693275.690542356069273,3.283828226254627-.112229520629626,6.852028027515189,1.881315558359347,9.871133305718104v7.99188466229316Z" fill="none" stroke="#181818" stroke-linecap="round" stroke-linejoin="round" stroke-width="28"/>
          <path d="M41.049331079791955,53.323809197323499c2.827187410239276-2.870793585379943,6.563237474922062-1.638383381382482,9.903396743204212-2.193285605659185,2.265427647811521.364711441860891,4.511714956383003.796142852834237,6.82564276989433.885602030065456,1.713253299440112.066237899426596,3.754380066997328-.179754831114224,4.465651041738965,2.139316665597107-.979795957053284,1.79574197886086-2.783208648286745,2.329375974462891-4.544175119537613,2.611590621065261-5.308346184645416.850729146961385-10.383069041461567,3.119013744632866-15.907398362245658,2.65268277476298l-.40778038278404.212876638946909-.335336690270196-.314869628058659v-5.99391349671987Z" fill="none" stroke="#181818" stroke-linecap="round" stroke-linejoin="round" stroke-width="28"/>
          <path d="M59.215503370945953,39.343115641841905c-.075136002416912-.638397456357779-.014971939412135-1.331023941759668-.245858415009934-1.906994326262065q-3.085060820916624-7.695932935004748,4.058988623790356-11.084922853496209h4.995296022711045c2.736861758843588,2.412046876906061,3.227242795363054,5.523086226668966,2.777892152047571,8.926521563422284-1.849862480603406-.393125924936612-2.546079577103228-2.338120394678299-4.143625719487318-3.072421614042469-.870236117872992-2.470900107028683-2.46180834781444-2.549702781310771-4.64074860679284-1.285779891422862.87887208954271,1.682869553386809,2.969630921998032,1.024463823220685,3.998736905290571,2.1786977577176-.754416533118274,3.726282455977525-3.865081333149647,4.890219710177007-6.80068096254945,6.244899364083722Z" fill="none" stroke="#181818" stroke-linecap="round" stroke-linejoin="round" stroke-width="28"/>
          <path d="M133.03672102317978,202.388125223400493c.045336945710005.267763988451406.020694318700407.528942866861144-.073943125478763.78352139191702h-11.98871045451051c.019512875089276-.288982676367596.001242421340066-.575572153021312-.054826605670314-.859737943339496,4.054813554519569-2.463334185240456,8.094931474990517-2.589685984185962,12.117480185659588.076216551422476Z" fill="none" stroke="#181818" stroke-linecap="round" stroke-linejoin="round" stroke-width="28"/>
          <path d="M133.03672102317978,202.388125223400493c-4.039165143369246-.025410598244889-8.07832266450896-.050821196488869-12.117487807880025-.076216551422476-1.995907966200321-.4412176161768-4.183720485569211.174581632685658-6.029341202509386-1.094469678407222,2.254781316449225-3.313971872340517-1.300921857720823-3.944892485003948-2.685009723290932-5.15873252624715-8.76916990925929-7.690478688044095-17.12874475263925-15.763549220910136-24.004327334436312-25.219721512416072-15.222470245260411-20.935916888205611-25.175957339150045-44.048006860863097-28.409048280374918-69.871775029911078-.248326107708635-1.983459534183567-.620903877543242-3.933437137327928-1.169987416989898-5.852501307214879,2.248190004447679-6.110265684118531,6.266218740538534-11.168510498144315,9.813310715248008-16.506687273057651.565459872310385-3.766942080746958,4.043793734535939-5.300617258372768,6.074939209151125-7.94604421744134,2.763571912175394-2.690105101511108,5.946415294492908-4.845684473767506,9.055414640148229-7.09757489122785,2.666041836706427-1.626598397118869,5.04293487790892-3.832396855106708,8.33945219094494-4.209462999952848.653483137830335-.125143766606016,1.306962464559547-.250291344040306,1.960445602389882-.375435110645412,2.304287614779241,1.077412414198989,2.038474236100228,3.085825247317189,1.896186503399804,5.094070404022204-.256075996670916,3.614284139077427-.962811752400739,7.166032597714548-1.404881273079809,10.751045770219207-.091584746351145,2.148639855249712-.692680387901419,4.187085820456559-1.361682359200131,6.20940436337969-.569158553029411,1.418515779257177-.806910740440799,2.928228473116178-1.155501393899613,4.407606979510092-1.466769862650835,6.530074071001764-.37047022688057,12.69471264290496,3.575974459839927,17.996023471895569,7.643902038409578,10.268145322069358,12.58897908552899,21.55941400876236,15.996064275928802,33.941836953874372,5.714246380910481,20.767379228049322,15.075982671080055,40.040014692936893,26.903422261870219,58.084877730983862,1.096394913480253,1.672739897349857,3.126252233450941,3.269126053485707,1.64251912724103,5.757626944004187-2.160380160990826,1.257618828379236-4.619292066410708.743888785180388-6.920462194500942,1.166128480054795Z" fill="none" stroke="#181818" stroke-linecap="round" stroke-linejoin="round" stroke-width="28"/>
          <path d="M164.941506592360383,61.268500570976357c2.232859820849626,5.403917361341882,7.387963241650141,8.412337079035751,10.642390673339833,13.046829299642923,6.476079331008805,9.222320857607883,11.715149092429783,18.864545372787688,13.161845847049335,30.20423443459822.184503380631213,1.446277658110375.003308042099889,2.979815645944655-.243179205788692,4.433120470096583-.869374807371059,5.12611184223897-1.072141019520132,10.043542766687096,1.132341288059251,15.069803304910238,5.195806058680319,11.846452912208406,3.760801784670548,23.902973883443337.508462840389257,35.976323469232739-1.423509971018575,5.284383132920084-4.359679361128656,10.055066709262974-5.074460366718995,15.555066466153221-3.895196711850076,5.17068328150981-8.550907730281324,9.514173087136442-14.061831477220039,12.927577072461645-1.310502984280902-2.539139167283793.36158272206012-4.457601226414226,1.43690982822045-6.432051964218772,1.983453263899719-3.641931693106017,4.221610525439246-7.119540501348638,5.806574293388621-11.004008504386547,1.701873329709997-4.170966019829393,1.131258933270146-7.453384239882325-1.747515164099241-10.994999708007526-14.317015674520007-17.613484978657652-22.119375978651078-37.685098552094132-21.83187358197938-60.573172836815502.098890641178514-7.87217132497608,1.404408695649181-15.594599991374707,5.154036310448646-22.636014716687896,1.949061821560463-3.660136016414071,1.357265284539608-6.594480867780476-1.327508150028734-9.493465050115447-3.427543220370353-3.701026196250496-7.680976501091209-6.319560145149808-11.682419293350904-9.283297909572866-1.560237296549531-1.155620123025983-4.21676279554049-1.936593976713084-2.81757531842959-4.898108123248676,7.573487999330609,1.170072686589265,14.543936691808995,3.898764322671013,20.943801476720182,8.102164295957664Z" fill="none" stroke="#181818" stroke-linecap="round" stroke-linejoin="round" stroke-width="28"/>
          <path d="M143.997705115640201,53.166336275018693c2.1009649808002,4.772823356021945,7.545339152569795,5.559987899099724,10.77001707196905,9.021846556990567,1.571403844200177,1.686980959982066,3.54697573590056,2.995744905192623,5.133143814111463,4.671148571013873,2.88676980281889,3.0491917618765,3.412222564538752,6.067965498079502,1.284648424778425,10.247719286289794-5.503499707729134,10.811927551493682-5.971862065378446,22.381832517698967-4.503640170420113,34.354027496440722,2.056718012081546,16.770971975939574,8.732880534920696,31.447337820758548,18.385648308150849,45.002184733071772.860212902740386,1.207956123472286,1.914258779510419,2.292029864265714,2.964463058990077,3.347933967653262,3.043917047240029,3.060460379004326,3.357510292120423,6.339570800725596,1.977751845710372,10.469212206374323-2.179572902979999,6.52352706923466-7.146712456709793,11.580967798643542-9.002646033020937,18.201015508598175-2.690535830499357,2.388413315192338-5.72789777125945,4.204013516526174-9.081002422050005,5.498185802966873-1.564871604379732-1.700513208686971-.892691168659439-3.468478065382442.090300402800494-5.026710215875937,1.779848607899112-2.821430030437114,1.293238663149168-5.278224835565197-.647636897529082-7.764241066508475-10.721798928279895-13.733216507604084-18.578802904881741-28.991792967072797-24.085664010241089-45.487638435692133-.845098046758721-2.5315022688319-2.439673430129915-4.260932037127532-4.964890999770432-5.178518342995631-2.654978188969835-.964749107888565-5.229168501749882-2.149382966626945-7.631386358380041-3.620621545330323-1.40660389408913-.861490924021382-3.579728401629836-1.483250307204798-2.518311841178729-4.001132678296926,1.96891769640024-1.077846848542322,3.913528143330041-.178659218187022,5.843702111569655.120041068486898,6.42467510069946.994260156599921,11.8814658636893-1.724826288588702,14.834426997480477-7.522055352711504,1.842045897239586-3.616261958587529,2.750431210359238-7.462499739432133,2.789373116149363-11.533469643797616.12377717912932-12.937393764284934-2.924309220719806-24.985824348586902-9.964287775139383-35.928543313147202.177948274149458-1.410280580876133,1.269960412948421-1.41915599828917,2.202828286528529-1.186840327902246,2.131552936940352.530829226509923,3.831551201310504.55540144268798,4.783878594460475-1.959535158691324.954316791739984-2.520176489289952.348053287179937-4.378457959419393-1.55593074403987-6.185518096165652-2.28043769830947-2.164349991910967-5.971092221479921-3.179523970219634-6.119077561270387-7.171910799242141,3.096860965350061.03629813261432,6.115190230690132.505929279160227,9.014292780340838,1.633419778470852Z" fill="none" stroke="#181818" stroke-linecap="round" stroke-linejoin="round" stroke-width="28"/>
          <path d="M93.015677016310292,75.326502479978444c.454097378849838-3.893465366934834.667931049840263-7.837191738701222,1.46735677334982-11.658422869025344.378911832020094-1.811202506316477.085174461979477-3.191518550000183-.617936929640564-4.688575485496585,9.416273251599705-4.982226425638146,19.432315879021189-7.595608135661678,30.103678598539773-7.620704340630255,2.138008954590987,4.941429611075364,1.68850396138987,6.677856058793623-2.709240750598838,10.507749200186481-3.036477763611401,1.358076053978948-6.362919899929693.397926614969037-9.471633412451411,1.173170889403991-4.612340604659039.568262985741057-8.433030146978126,2.80162134872262-11.921764524078753,5.717712336025215-2.572795447089447,1.673315332312086-3.223618431249633,4.934674919207282-5.586174082600337,6.78307491344367-.464078671779134.182184233689441-.883796041609457.09804878257637-1.264285672519691-.214004643907174Z" fill="none" stroke="#181818" stroke-linecap="round" stroke-linejoin="round" stroke-width="28"/>
          <path d="M66.927730961040652,32.281550689393043c3.794074666700908-2.235924955351038,2.516709270097635,2.08352376818948,3.87423752111863,2.996536128266598,3.692582944035166,2.117882665924299,2.951669168034641-1.573917516776419,3.690757423104515-2.975068783852294,2.122947454134192-4.024641197230267,4.367217733575671-4.604451705041356,8.970933799893828-2.012190315947009,4.749723440832895,2.67447499222817,5.340216578772015,4.722393245714557,2.516021365028791,8.725930556209278-.524652428948684-.459010370104806-.702131936761361-1.081122254839102-.850845198254319-1.73120561394353-.220083888792942-.962067237985138-.390893956879154-2.083969158661603-1.605669519971343-2.206704482243367-1.23314510565433-.12459119660798-1.541414232080569,1.029093978719175-1.994932322448221,1.867592274591516-1.723935836329474,3.187359031707274-2.823566380855482,6.687051585722656-4.863222060565022,9.718157159946713-.998533271580527,1.483901958720708-1.743082845008757,3.288107785616376-4.031291393377614,3.089841859577064-1.262164790687166-.496285979993445-1.440578020063185-1.640570796407701-1.734126740233478-2.768076539028698q-1.247452006648018-4.791372559225238-5.58742412616084-1.938444133499615c-5.643445514318955,3.718300677630396-10.565694022025127,2.720650789907268-14.812734168373936-3.005938868944213.313048256379261-2.936289326135011,2.005310923441357-4.138189091892855,4.863902343415248-3.871462601245184,1.187030693825363.708990178991371,2.207658866445854,1.96427011194919,3.851912048019585,1.172829820337029,1.468833577857367-2.893235548945086,4.82523293187478-3.702388567106937,6.738914328454484-6.104073089316444-.120299542697467-.771353895838729.196346400025504-1.098600615494433.973566700349693-.957723370907843Z" fill="none" stroke="#181818" stroke-linecap="round" stroke-linejoin="round" stroke-width="28"/>
          <path d="M120.967062625919425,61.343493846747151c3.082119598000645-2.702539831874674,3.287660297070033-6.269754534208914,3.001728077069856-9.984694061920891,3.679449864441267-.442583797861516,7.350080824000543-.326439300565653,11.014629254530519.174116711721581,1.872641475600176,3.091350947294814,5.198565301170675,4.587365621449862,7.690115539060571,7.00033972033907,1.475699289669137,1.429182285627576,2.52881525597877,2.686282841456887,1.715768631000174,5.168838840965691-1.793682931451258,5.476788006155402-1.979695510999591,5.70960670578188-8.42934861626054,3.607512298483016-2.061527630899946.828877861670662-3.652695883349224-.722319501127458-5.484878632010805-1.069036215197229-3.000607611209489-1.562542196476898-6.290325906829821-2.368501741134423-9.42427657927874-3.587939888079745-.250877644790307-.275549509179655-.345393133500693-.562097066729621-.286732552771355-.858091665828397.05958286897112-.300689538667029.127214798920249-.451045740483096.20299487866032-.451045740483096Z" fill="none" stroke="#181818" stroke-linecap="round" stroke-linejoin="round" stroke-width="28"/>
          <path d="M73.028250329878574,49.352385730769129c3.689469268460016-3.282202908294494,4.711818156531081-8.115874700852146,7.146861089941012-12.118369750006423.892325302251265-1.466717031788903.36192953292084-4.886145935503919,3.786526766483803-3.863891439568761,3.09399501182088.923568352447546,2.373142910520983,3.392597819493858,2.018004772799031,5.646649928892657-.836919408102403,1.003261331322392-1.699056920591829,1.986953110359536-2.50085696464339,3.017578089054041-.44123869905161.567159751160034-.498672102876299,1.218927496051037.051366119228987,1.780950251643844.552999453344455.565042836443354,1.197598897460921.431519060008213,1.825181742502537.138986597757139,1.051869733859348-.490308696947068,2.080175384384347-1.033993750267655,3.145624097529435-1.491864682931009,4.053056633540109-1.741770180677122,6.779073883390083-.9126131758876,7.408474627140095,3.888337898438294-6.500897269010238,2.347736541699305-12.024794028988254,6.745629721730438-18.631864967353977,8.884809197535105-2.156123152893997-.507935679876937-3.634562629513312-1.865302919927672-4.693966924711276-3.749027380335065-.229767915277989-.78866410372575-.173797977084178-1.520624998608582.444649641083743-2.134158710479824Z" fill="none" stroke="#181818" stroke-linecap="round" stroke-linejoin="round" stroke-width="28"/>
          <path d="M76.980952856614749,54.304639997561935c2.015962018687787.288245281232776,3.278768981143003-.906386283638312,4.718247496428376-2.090591424273953,4.110977859243576-3.38194369831217,8.857869646526524-5.400948726663955,14.210232227816959-5.863371692859801,2.222295428320649,7.150492042879705,1.781727484349176,7.860498760125665-5.617730060279428,8.973656736940939-.938489258493064.141183539853046-2.198235900890722-.049033918357054-2.10066390323118,1.384159263289803.154483279633496,2.269105831012894,2.863194286161161,1.20127383732688,3.713662184680288,2.646453977099554-2.54910559718337,1.576527933661055-5.098146405525767,3.153063488979569-7.647187213868165,4.72960285512454-3.643492056531613-2.353894839054192-6.741713587585764-5.113425597254718-7.276560731546851-9.779909715321082Z" fill="none" stroke="#181818" stroke-linecap="round" stroke-linejoin="round" stroke-width="28"/>
          <path d="M58.62151925769831,95.114708617781616c3.989590245093495,2.584251744070571,2.540759269755654,7.047249102325623,3.116208057223048,10.508448487046735,5.769387403026485,34.701685484921654,22.309302566545739,63.326282350558358,48.111508862788469,86.843417564087758,2.894254819750131,2.637931061236486,6.282025312699261,4.73441974117668,8.820170162080103,8.453223448045719-1.565717670449885.123257406958146-2.672791309709282.210418655163267-3.77968201576914.297610389989131-6.763444527770844-.464692314013519-13.018060348740619-2.644165575142324-19.028128775989899-5.647463540580247-11.610137811141612-12.835553208275996-22.350153837658581-26.268598449762067-30.616524213623052-41.610639654692932-5.474087478538422-10.159689169398007-9.408586245926926-20.880347400566279-13.194092588133572-31.701077963749412-.154309874198589-9.615281964252063,2.485789747521267-18.554225872848292,6.570540511424042-27.143518730146752Z" fill="none" stroke="#181818" stroke-linecap="round" stroke-linejoin="round" stroke-width="28"/>
          <path d="M52.050978746274268,122.258227347928369c2.181282185101736,1.121054011542583,2.540781183628496,3.316532748468489,3.224678872174991,5.356163881048815,7.474597358155734,22.292205664055473,19.077292074556681,42.127929010843218,34.979614516780202,59.504159486582466,2.218385231080902,2.423975958087794,5.306210058381112,4.612412285659957,5.606350090560227,8.451409494121435-25.60738624514488-11.981211396776416-39.849423125469912-32.305452351552958-43.731518199363563-60.042728503889521-.607612636942577-4.34134812053253-1.692013039462836-8.84279672897992-.079125280151857-13.269004357863196Z" fill="none" stroke="#181818" stroke-linecap="round" stroke-linejoin="round" stroke-width="28"/>
          <path d="M75.44289239994032,71.0798381812765c-2.336259003273881,2.508995521196994-4.672518006547762,5.017987231565712-7.008418765630267,7.527584863518314-.766511085676029-1.670380995083178-1.256394772546628-3.390523776587543-1.275362659131133-5.261666789769151-.010688253552871-1.054345474911315.43070098428143-2.607821712595978-1.22028452030645-2.771028024983025-1.148145954659412-.113494066719795-1.467894139634154,1.152241824384873-1.759398200138094,2.070113942320859-.769104544951915,2.421735191475818-1.65105410454089,5.286985928152717-4.531003928854261,5.169357113516526-3.602170113534157-.147132241690997-7.031737032471938-1.535900700927414-8.757055348378344-5.266853326093042-.161252760955904-.312788916205136-.320381781748438-.771178121416597-.131159296128317-.912868501335652,5.321402089301046-3.984784228018725,9.082184818435053-9.818627723444479,15.208907463187643-12.849298863325203,4.455385821220261,3.096095427620639,8.041697912636664,6.865842277459706,9.473775255379223,12.294659586150374Z" fill="none" stroke="#181818" stroke-linecap="round" stroke-linejoin="round" stroke-width="28"/>
          <path d="M66.102608839039021,59.236136686574355c-5.355487690194423,4.111341811653801-9.30489170259716,9.829221824091292-15.211198892122411,13.31123975983337-1.73411149579988-3.161927473911419.726481108429653-4.710426770789127,2.497908119505155-6.539311517034548.766307191375745-.79115829037255,2.140386133469292-1.527558799375583,1.396968459239361-2.816506441215097-1.037691457775509-1.799152669535943-2.305174650256959-.258797111177955-3.361589130903667.184920407885329-6.606067664075454,2.774720716898628-7.593893626561112,2.390726487528809-9.632297238058527-3.956908024336371,6.436249317857801-2.916052879026211,13.621283422467968-2.864961113780737,20.228380085814933-5.103978555705908,1.353637109328702-1.237661524389296,2.769839279964799-1.116648694870491,4.225370183896302-.196493891218779,1.131255122159928,1.73787456219361,1.268365464080489,3.449538252353705-.143541587371146,5.117038261792004Z" fill="none" stroke="#181818" stroke-linecap="round" stroke-linejoin="round" stroke-width="28"/>
          <path d="M121.976175534460708,123.255376111826081c2.804091616848382,3.296899364821911,6.83382045577855,4.501761096307746,10.633808057189526,5.955919545835968,3.02157632970011,1.156258436644748,4.877624239270517,2.864423787093983,5.915457660830725,6.033911942904524,5.331923606858254,16.283475669740255,12.91599124314962,31.413878754685356,23.702175037018606,44.829760028791497,2.478066536310507,3.082227826090275,3.891034981461416,6.207822869937445.667744305519591,9.667795168181328-1.142730369600031,1.226644421881247-.936457937699743,2.758231265998802-.969241092299853,4.236832363568283-6.839491385098881,3.880550472294999-14.086794237338836,6.524152044956281-21.96892104060862,7.242401582238017-4.002929124540969-7.014011064249644-7.8997341241502-14.091205649628137-12.031196691121295-21.028680052940217-8.198738446018979-13.767163359606457-14.115941594509422-28.582517707597617-18.169230705660084-43.928948985890202-3.158631410549788-11.959055245277341-8.524279515779199-22.397643641291324-15.537222067099719-32.329338618767906-3.93475601721002-5.572374994120764-5.694283795033698-11.821972155891672-3.236934444070357-18.650586458810722,4.845534706410035,16.104824073207965,16.402092144331618,26.71636306770597,29.517023246780809,36.051343420796911.690481378340337.491474810184627,1.259327420470072,1.068174968167114,1.476537733520672,1.919590064092517Z" fill="none" stroke="#181818" stroke-linecap="round" stroke-linejoin="round" stroke-width="28"/>
          <path d="M66.263024108920945,54.402189561725208c-1.414001255525363-.028819383505834-2.828002511050727-.057640672425805-4.242123816491585-.086528650827859-2.099747331654726-1.887020826256048-4.642673216543699-.69129174304453-6.970053289986026-.973388253992198-1.698121293475197-.205828513353481-3.745285809538473.418809950058858-4.098106793346233-2.211754781481432.108557517669396-4.278934386573383-4.753146292579913-2.088428779627975-5.997194503022911-4.606762733787036.208863985617427-4.012220281117152,2.777493891217091-4.637546598905828,6.067824822515831-4.227038536711007,7.811037245213811,5.367165740246492,8.177848808012641,5.358408458488157,15.926927910933955-.380293915797665,2.108004098037782-1.561115994259126,4.529563329871962-.238395845776722,5.039682096876277,2.785467250649162.264866318233544,1.570060959274088-.521630219973304,3.368950681708156,1.038185949093531,4.65019092478542-.000640266214759.634872440855361-.001364376812489,1.269440015505097-.002084676303639,1.904007590153924-2.070979179778078,1.442832669988093-4.158814892078226,2.849437707671314-6.763057700269201,3.14610110700869Z" fill="none" stroke="#181818" stroke-linecap="round" stroke-linejoin="round" stroke-width="28"/>
          <path d="M51.023370528590021,42.296716604925678c-2.22614083670851,1.116823992939317-5.082351266699334,1.329129007750453-6.068043008473978,4.226724143436513-2.642565885253134-3.183096621068216-1.905783112581048-6.803120819175092,1.975204596124968-10.274540843441173,3.768033839283817-3.370389745470675,6.163986233674223-1.092484237243298,8.432587582019551,1.92157741066967-1.613619492127327,1.199622796280892-3.856641633563413,1.737521107936118-4.33974916967054,4.12623928933499Z" fill="none" stroke="#181818" stroke-linecap="round" stroke-linejoin="round" stroke-width="28"/>
          <path d="M66.927730961040652,32.28155116574635c-.324079509689909.319919927297633-.64816092493129.63983937824014-.972905473039646.958741338222353-.991181643446907.022903073701855-1.982369003557324.081802271934066-2.972071936937937.062907236128922-1.66782679267817-.031840893415392-3.213057849838151-.936276033336981-3.364602764882875-2.399981082284285-.251361655562505-2.427798218140197,2.068791603545833-1.26158875800138,3.24117811328324-1.658090361635914,2.729016592169501-.922955047386495,6.024819322376061-2.39754501076095,4.068402061577217,3.036422869568923Z" fill="none" stroke="#181818" stroke-linecap="round" stroke-linejoin="round" stroke-width="28"/>
          <path d="M120.990066476319043,62.290606444636978c3.801130933930835-.56556873064801,6.81897237739031,1.454265152700827,9.973983234951447,3.021334612331884,6.860864081088948,8.277799622466773,9.531345859099019,18.111224789368862,10.233527340269575,28.54777820345771.332275298340392,4.938802045468037.540438040010486,9.948676025134773-2.419200155720318,14.500602855588113-3.723384322249331,5.72659918592035-8.780930989829358,7.864793562796876-15.395422156279892,6.074672554605058-9.097809410159243-2.462190936968909-15.687360683139559-8.522877754388901-21.729926431860804-15.291883092440003-3.332372221009791-3.732987607088944-6.096161366358501-7.907383371732976-8.515266244379745-12.292769415676048-.949770139399334-1.721762383222995-1.985347384779743-3.460460084173064-1.158245391960008-5.567504756483686.345271178041003-1.985631705897504.690542356071091-3.971259600969461,1.035985033990073-5.956613116454719.327275124091102-.01119621140333.654454970481311-.019507626336235.981718661250852-.024652243557284,2.265989786299542-.28423819604177,2.591626133778846,1.717177957655622,3.360589667719978,3.017405649106877,2.533922141250514,4.284597276343447,5.341287500230465,8.374560345322607,8.464677591269719,12.239459748783702,3.080412221419465,3.811719304706457,6.892885014000058,6.709007668772756,11.600968284290502,8.184110426632287,5.533965708409596,1.733842706623363,8.943833007950161-.226828078684775,10.548065740040329-5.763869079565666,1.615688923999187-5.576547850309908-.104896948030728-10.802091805533564-1.63420328868051-16.043793669658044-.978906063239265-3.355201215830675-2.708333706790654-6.39065494431452-4.182950641670686-9.535929101740294-.747747093389989-1.594915176692666-2.009284956739066-3.128411245423194-1.164301243230511-5.108349574929889Z" fill="none" stroke="#181818" stroke-linecap="round" stroke-linejoin="round" stroke-width="28"/>
          <path d="M91.979516671339297,81.282837406020008c6.416111540091151,13.883043004387218,15.35205555362154,25.453142322797248,29.985172182359747,31.384809761972065,9.244255062141747,3.747240102204159,17.437162512291252-2.352827807335416,18.081422767751064-12.397788201878939.817863866030166-12.751608298540305-3.675478689459851-23.926928745555415-9.082054287970095-34.957917909144271,1.665294311140315.665892577282648,3.330596244490152,1.331781343738839,4.99589817783999,1.997666299366756,9.692159389820517,12.615759917288415,12.717013272769691,27.10957187814347,10.107341540639027,42.374169445175539-2.213507012309492,12.947355267554485-9.452044315199601,16.807030026416214-22.119825689438585,13.73778950068845-.633360485400772-.153469647942075-1.313186004610543-.115239425748769-1.971333939140095-.166220676994271-12.328958591650007-6.500639238843178-21.095140591909512-16.625245929621997-28.526055025409732-28.09316933919763-1.938897595409799-2.992238943827033-2.894388208540477-6.273094724575458-2.467231555079707-9.877657442520103.161762496698429-1.376364215492686-.453232257241325-2.946192714284734.996665828448386-4.001681437467596Z" fill="none" stroke="#181818" stroke-linecap="round" stroke-linejoin="round" stroke-width="28"/>
          <path d="M66.263024108920945,54.402189561725208c1.720521083188942-2.196029401510714,3.885773746293125-3.436181301717625,6.763023400293605-3.146095390766277,1.318449145324848,1.016355334854779,2.63686017956752,2.032718291366109,3.955092091713595,3.048812584532243,2.425206462588903,3.259861931659543,4.850599669489384,6.519994432076601,7.27618343181166,9.779879228701247-2.938128299832897,2.331380469765463-5.87644334397919,4.662997210839421-8.814598321570884,6.994834979913321-3.113073420550791-3.947331414650762-6.22631643542627-7.894876235644915-9.339837661214915-11.842954572498456.053193545712929-1.611846683591466.106665302340843-3.223161756737682.160137058966939-4.834476829882078Z" fill="none" stroke="#181818" stroke-linecap="round" stroke-linejoin="round" stroke-width="28"/>
          <path d="M120.990066476319043,62.290606444636978c3.364286442880257,6.984484772229735,7.146399945821031,13.734123484565316,8.475851761140802,21.607346597950709.665594840380436,3.941756173913745.380036108999775,7.579755092966479-.673171323909628,11.205658445308472-1.23050781863094,4.236314091017448-5.199030256400874,6.211077316683259-9.757847654469515,5.328672570949493-6.36096099020142-1.231225036620344-11.192775706311295-4.869467848639033-14.886120872030006-9.94912570278575-3.577216881179993-4.919946070644983-6.782736358571128-10.110110302698558-10.151535153820078-15.181590120879264,1.415742932069406-2.513679028281331,2.114288615808618-5.536050185713066,4.980394588799754-7.021083960221404,1.889570419189113,1.162271922550644,2.056969545239554,3.322957803752615,2.92241891095,5.073236609689957,2.066771716079529,4.179822383105602,4.040521897959479,8.430305131033492,8.138682999599041,11.102842317441173,1.959199369941416,1.277652348920128,4.016176537399588,2.668821629526974,6.454226435351302,1.353182951378585,2.491161504829506-1.344288479826901,2.352810647118531-3.844835396299459,2.177049949208595-6.171566656426876-.371423003989548-4.917152734035881-2.005915936908423-9.390725138800008-5.048643918318703-13.31700935277604-1.00088091437101-1.29150470714012-2.474804227511413-2.273493998961385-2.710422194209968-4.075325680279093,3.207832820198746-1.907296334346938,6.710775009469216-.528405540175299,10.056181221259976-.902647861789774.004771507739861.316073849570785.012439457868823.631778048867091.022935250448427.947409842439811Z" fill="none" stroke="#181818" stroke-linecap="round" stroke-linejoin="round" stroke-width="28"/>
          <path d="M110.91095000461064,62.245844463986941c6.669066238970117,4.777931770382565,8.983018824679675,11.637909184210912,9.024948639469585,19.436489617962252.02897204618057,5.386475203547889-3.919023761660355,7.61859123674185-8.710913306009388,5.135238774271784-5.871271669861017-3.042747652454636-8.471541397530018-8.64554067224617-11.007601570599945-14.256153510214062-.605615616141222-1.339818379086864-.836290575220119-2.849089016947801-1.239578256670939-4.280675934773171,3.319951818690242-3.312096945175654,7.011311396920064-5.889927444788555,11.933144493810687-6.034898947246802Z" fill="none" stroke="#181818" stroke-linecap="round" stroke-linejoin="round" stroke-width="28"/>
        </g>
        <g>
          <path d="M203.895981420209864,131.244684654680896c-2.175639839089854,4.3174466100063-1.708870524760641,9.196212877919606-2.94225191913938,13.743993527974453-3.08617461735048,11.379298803582969-7.818001093070052,21.815570216433116-15.884837076810072,30.565245562884229-1.944823869000174-2.52956636842373-.130233196790869-4.759235850317964.700329282479288-6.955751132342812,3.427985308941061-9.065730141885069,5.923072255440275-18.281774566484273,5.825507880001169-28.092064199201559-.051907296619902-5.220734690828976-.739919076710066-10.285019666554945-2.892128221261373-15.03533818035703-1.912353225288825-4.220857374390107-2.768267197739988-8.645449212383937-2.002371606069573-13.106167695751537,1.964473943990015-11.441499131198725-2.228111179760162-21.215166710958329-7.829830773589492-30.614062264071435-3.059954191450743-5.13417936420683-6.68662020433112-9.883042141877013-10.955153096590948-14.132137748568312-1.698534798739274-1.690787976725915-3.852527542028838-3.365608585928385-2.973739296869098-6.349901954270535,20.614262554228844,11.499381791174528,32.27940990424031,29.316879423849969,37.073159269490134,52.113166115693275.690542356069273,3.283828226254627-.112229520629626,6.852028027515189,1.881315558359347,9.871133305718104v7.99188466229316Z" fill="#5d2973" stroke-width="0"/>
          <path d="M41.049331079791955,53.323809197323499c2.827187410239276-2.870793585379943,6.563237474922062-1.638383381382482,9.903396743204212-2.193285605659185,2.265427647811521.364711441860891,4.511714956383003.796142852834237,6.82564276989433.885602030065456,1.713253299440112.066237899426596,3.754380066997328-.179754831114224,4.465651041738965,2.139316665597107-.979795957053284,1.79574197886086-2.783208648286745,2.329375974462891-4.544175119537613,2.611590621065261-5.308346184645416.850729146961385-10.383069041461567,3.119013744632866-15.907398362245658,2.65268277476298l-.40778038278404.212876638946909-.335336690270196-.314869628058659v-5.99391349671987Z" fill="#f89b21" stroke-width="0"/>
          <path d="M59.215503370945953,39.343115641841905c-.075136002416912-.638397456357779-.014971939412135-1.331023941759668-.245858415009934-1.906994326262065q-3.085060820916624-7.695932935004748,4.058988623790356-11.084922853496209h4.995296022711045c2.736861758843588,2.412046876906061,3.227242795363054,5.523086226668966,2.777892152047571,8.926521563422284-1.849862480603406-.393125924936612-2.546079577103228-2.338120394678299-4.143625719487318-3.072421614042469-.870236117872992-2.470900107028683-2.46180834781444-2.549702781310771-4.64074860679284-1.285779891422862.87887208954271,1.682869553386809,2.969630921998032,1.024463823220685,3.998736905290571,2.1786977577176-.754416533118274,3.726282455977525-3.865081333149647,4.890219710177007-6.80068096254945,6.244899364083722Z" fill="#febd20" stroke-width="0"/>
          <path d="M133.03672102317978,202.388125223400493c.045336945710005.267763988451406.020694318700407.528942866861144-.073943125478763.78352139191702h-11.98871045451051c.019512875089276-.288982676367596.001242421340066-.575572153021312-.054826605670314-.859737943339496,4.054813554519569-2.463334185240456,8.094931474990517-2.589685984185962,12.117480185659588.076216551422476Z" fill="#b9b1c3" stroke-width="0"/>
          <path d="M133.03672102317978,202.388125223400493c-4.039165143369246-.025410598244889-8.07832266450896-.050821196488869-12.117487807880025-.076216551422476-1.995907966200321-.4412176161768-4.183720485569211.174581632685658-6.029341202509386-1.094469678407222,2.254781316449225-3.313971872340517-1.300921857720823-3.944892485003948-2.685009723290932-5.15873252624715-8.76916990925929-7.690478688044095-17.12874475263925-15.763549220910136-24.004327334436312-25.219721512416072-15.222470245260411-20.935916888205611-25.175957339150045-44.048006860863097-28.409048280374918-69.871775029911078-.248326107708635-1.983459534183567-.620903877543242-3.933437137327928-1.169987416989898-5.852501307214879,2.248190004447679-6.110265684118531,6.266218740538534-11.168510498144315,9.813310715248008-16.506687273057651.565459872310385-3.766942080746958,4.043793734535939-5.300617258372768,6.074939209151125-7.94604421744134,2.763571912175394-2.690105101511108,5.946415294492908-4.845684473767506,9.055414640148229-7.09757489122785,2.666041836706427-1.626598397118869,5.04293487790892-3.832396855106708,8.33945219094494-4.209462999952848.653483137830335-.125143766606016,1.306962464559547-.250291344040306,1.960445602389882-.375435110645412,2.304287614779241,1.077412414198989,2.038474236100228,3.085825247317189,1.896186503399804,5.094070404022204-.256075996670916,3.614284139077427-.962811752400739,7.166032597714548-1.404881273079809,10.751045770219207-.091584746351145,2.148639855249712-.692680387901419,4.187085820456559-1.361682359200131,6.20940436337969-.569158553029411,1.418515779257177-.806910740440799,2.928228473116178-1.155501393899613,4.407606979510092-1.466769862650835,6.530074071001764-.37047022688057,12.69471264290496,3.575974459839927,17.996023471895569,7.643902038409578,10.268145322069358,12.58897908552899,21.55941400876236,15.996064275928802,33.941836953874372,5.714246380910481,20.767379228049322,15.075982671080055,40.040014692936893,26.903422261870219,58.084877730983862,1.096394913480253,1.672739897349857,3.126252233450941,3.269126053485707,1.64251912724103,5.757626944004187-2.160380160990826,1.257618828379236-4.619292066410708.743888785180388-6.920462194500942,1.166128480054795Z" fill="#392760" stroke-width="0"/>
          <path d="M164.941506592360383,61.268500570976357c2.232859820849626,5.403917361341882,7.387963241650141,8.412337079035751,10.642390673339833,13.046829299642923,6.476079331008805,9.222320857607883,11.715149092429783,18.864545372787688,13.161845847049335,30.20423443459822.184503380631213,1.446277658110375.003308042099889,2.979815645944655-.243179205788692,4.433120470096583-.869374807371059,5.12611184223897-1.072141019520132,10.043542766687096,1.132341288059251,15.069803304910238,5.195806058680319,11.846452912208406,3.760801784670548,23.902973883443337.508462840389257,35.976323469232739-1.423509971018575,5.284383132920084-4.359679361128656,10.055066709262974-5.074460366718995,15.555066466153221-3.895196711850076,5.17068328150981-8.550907730281324,9.514173087136442-14.061831477220039,12.927577072461645-1.310502984280902-2.539139167283793.36158272206012-4.457601226414226,1.43690982822045-6.432051964218772,1.983453263899719-3.641931693106017,4.221610525439246-7.119540501348638,5.806574293388621-11.004008504386547,1.701873329709997-4.170966019829393,1.131258933270146-7.453384239882325-1.747515164099241-10.994999708007526-14.317015674520007-17.613484978657652-22.119375978651078-37.685098552094132-21.83187358197938-60.573172836815502.098890641178514-7.87217132497608,1.404408695649181-15.594599991374707,5.154036310448646-22.636014716687896,1.949061821560463-3.660136016414071,1.357265284539608-6.594480867780476-1.327508150028734-9.493465050115447-3.427543220370353-3.701026196250496-7.680976501091209-6.319560145149808-11.682419293350904-9.283297909572866-1.560237296549531-1.155620123025983-4.21676279554049-1.936593976713084-2.81757531842959-4.898108123248676,7.573487999330609,1.170072686589265,14.543936691808995,3.898764322671013,20.943801476720182,8.102164295957664Z" fill="#54276c" stroke-width="0"/>
          <path d="M143.997705115640201,53.166336275018693c2.1009649808002,4.772823356021945,7.545339152569795,5.559987899099724,10.77001707196905,9.021846556990567,1.571403844200177,1.686980959982066,3.54697573590056,2.995744905192623,5.133143814111463,4.671148571013873,2.88676980281889,3.0491917618765,3.412222564538752,6.067965498079502,1.284648424778425,10.247719286289794-5.503499707729134,10.811927551493682-5.971862065378446,22.381832517698967-4.503640170420113,34.354027496440722,2.056718012081546,16.770971975939574,8.732880534920696,31.447337820758548,18.385648308150849,45.002184733071772.860212902740386,1.207956123472286,1.914258779510419,2.292029864265714,2.964463058990077,3.347933967653262,3.043917047240029,3.060460379004326,3.357510292120423,6.339570800725596,1.977751845710372,10.469212206374323-2.179572902979999,6.52352706923466-7.146712456709793,11.580967798643542-9.002646033020937,18.201015508598175-2.690535830499357,2.388413315192338-5.72789777125945,4.204013516526174-9.081002422050005,5.498185802966873-1.564871604379732-1.700513208686971-.892691168659439-3.468478065382442.090300402800494-5.026710215875937,1.779848607899112-2.821430030437114,1.293238663149168-5.278224835565197-.647636897529082-7.764241066508475-10.721798928279895-13.733216507604084-18.578802904881741-28.991792967072797-24.085664010241089-45.487638435692133-.845098046758721-2.5315022688319-2.439673430129915-4.260932037127532-4.964890999770432-5.178518342995631-2.654978188969835-.964749107888565-5.229168501749882-2.149382966626945-7.631386358380041-3.620621545330323-1.40660389408913-.861490924021382-3.579728401629836-1.483250307204798-2.518311841178729-4.001132678296926,1.96891769640024-1.077846848542322,3.913528143330041-.178659218187022,5.843702111569655.120041068486898,6.42467510069946.994260156599921,11.8814658636893-1.724826288588702,14.834426997480477-7.522055352711504,1.842045897239586-3.616261958587529,2.750431210359238-7.462499739432133,2.789373116149363-11.533469643797616.12377717912932-12.937393764284934-2.924309220719806-24.985824348586902-9.964287775139383-35.928543313147202.177948274149458-1.410280580876133,1.269960412948421-1.41915599828917,2.202828286528529-1.186840327902246,2.131552936940352.530829226509923,3.831551201310504.55540144268798,4.783878594460475-1.959535158691324.954316791739984-2.520176489289952.348053287179937-4.378457959419393-1.55593074403987-6.185518096165652-2.28043769830947-2.164349991910967-5.971092221479921-3.179523970219634-6.119077561270387-7.171910799242141,3.096860965350061.03629813261432,6.115190230690132.505929279160227,9.014292780340838,1.633419778470852Z" fill="#4c2769" stroke-width="0"/>
          <path d="M93.015677016310292,75.326502479978444c.454097378849838-3.893465366934834.667931049840263-7.837191738701222,1.46735677334982-11.658422869025344.378911832020094-1.811202506316477.085174461979477-3.191518550000183-.617936929640564-4.688575485496585,9.416273251599705-4.982226425638146,19.432315879021189-7.595608135661678,30.103678598539773-7.620704340630255,2.138008954590987,4.941429611075364,1.68850396138987,6.677856058793623-2.709240750598838,10.507749200186481-3.036477763611401,1.358076053978948-6.362919899929693.397926614969037-9.471633412451411,1.173170889403991-4.612340604659039.568262985741057-8.433030146978126,2.80162134872262-11.921764524078753,5.717712336025215-2.572795447089447,1.673315332312086-3.223618431249633,4.934674919207282-5.586174082600337,6.78307491344367-.464078671779134.182184233689441-.883796041609457.09804878257637-1.264285672519691-.214004643907174Z" fill="#412863" stroke-width="0"/>
          <path d="M66.927730961040652,32.281550689393043c3.794074666700908-2.235924955351038,2.516709270097635,2.08352376818948,3.87423752111863,2.996536128266598,3.692582944035166,2.117882665924299,2.951669168034641-1.573917516776419,3.690757423104515-2.975068783852294,2.122947454134192-4.024641197230267,4.367217733575671-4.604451705041356,8.970933799893828-2.012190315947009,4.749723440832895,2.67447499222817,5.340216578772015,4.722393245714557,2.516021365028791,8.725930556209278-.524652428948684-.459010370104806-.702131936761361-1.081122254839102-.850845198254319-1.73120561394353-.220083888792942-.962067237985138-.390893956879154-2.083969158661603-1.605669519971343-2.206704482243367-1.23314510565433-.12459119660798-1.541414232080569,1.029093978719175-1.994932322448221,1.867592274591516-1.723935836329474,3.187359031707274-2.823566380855482,6.687051585722656-4.863222060565022,9.718157159946713-.998533271580527,1.483901958720708-1.743082845008757,3.288107785616376-4.031291393377614,3.089841859577064-1.262164790687166-.496285979993445-1.440578020063185-1.640570796407701-1.734126740233478-2.768076539028698q-1.247452006648018-4.791372559225238-5.58742412616084-1.938444133499615c-5.643445514318955,3.718300677630396-10.565694022025127,2.720650789907268-14.812734168373936-3.005938868944213.313048256379261-2.936289326135011,2.005310923441357-4.138189091892855,4.863902343415248-3.871462601245184,1.187030693825363.708990178991371,2.207658866445854,1.96427011194919,3.851912048019585,1.172829820337029,1.468833577857367-2.893235548945086,4.82523293187478-3.702388567106937,6.738914328454484-6.104073089316444-.120299542697467-.771353895838729.196346400025504-1.098600615494433.973566700349693-.957723370907843Z" fill="#f9a620" stroke-width="0"/>
          <path d="M120.967062625919425,61.343493846747151c3.082119598000645-2.702539831874674,3.287660297070033-6.269754534208914,3.001728077069856-9.984694061920891,3.679449864441267-.442583797861516,7.350080824000543-.326439300565653,11.014629254530519.174116711721581,1.872641475600176,3.091350947294814,5.198565301170675,4.587365621449862,7.690115539060571,7.00033972033907,1.475699289669137,1.429182285627576,2.52881525597877,2.686282841456887,1.715768631000174,5.168838840965691-1.793682931451258,5.476788006155402-1.979695510999591,5.70960670578188-8.42934861626054,3.607512298483016-2.061527630899946.828877861670662-3.652695883349224-.722319501127458-5.484878632010805-1.069036215197229-3.000607611209489-1.562542196476898-6.290325906829821-2.368501741134423-9.42427657927874-3.587939888079745-.250877644790307-.275549509179655-.345393133500693-.562097066729621-.286732552771355-.858091665828397.05958286897112-.300689538667029.127214798920249-.451045740483096.20299487866032-.451045740483096Z" fill="#4a2768" stroke-width="0"/>
          <path d="M73.028250329878574,49.352385730769129c3.689469268460016-3.282202908294494,4.711818156531081-8.115874700852146,7.146861089941012-12.118369750006423.892325302251265-1.466717031788903.36192953292084-4.886145935503919,3.786526766483803-3.863891439568761,3.09399501182088.923568352447546,2.373142910520983,3.392597819493858,2.018004772799031,5.646649928892657-.836919408102403,1.003261331322392-1.699056920591829,1.986953110359536-2.50085696464339,3.017578089054041-.44123869905161.567159751160034-.498672102876299,1.218927496051037.051366119228987,1.780950251643844.552999453344455.565042836443354,1.197598897460921.431519060008213,1.825181742502537.138986597757139,1.051869733859348-.490308696947068,2.080175384384347-1.033993750267655,3.145624097529435-1.491864682931009,4.053056633540109-1.741770180677122,6.779073883390083-.9126131758876,7.408474627140095,3.888337898438294-6.500897269010238,2.347736541699305-12.024794028988254,6.745629721730438-18.631864967353977,8.884809197535105-2.156123152893997-.507935679876937-3.634562629513312-1.865302919927672-4.693966924711276-3.749027380335065-.229767915277989-.78866410372575-.173797977084178-1.520624998608582.444649641083743-2.134158710479824Z" fill="#ee7d25" stroke-width="0"/>
          <path d="M76.980952856614749,54.304639997561935c2.015962018687787.288245281232776,3.278768981143003-.906386283638312,4.718247496428376-2.090591424273953,4.110977859243576-3.38194369831217,8.857869646526524-5.400948726663955,14.210232227816959-5.863371692859801,2.222295428320649,7.150492042879705,1.781727484349176,7.860498760125665-5.617730060279428,8.973656736940939-.938489258493064.141183539853046-2.198235900890722-.049033918357054-2.10066390323118,1.384159263289803.154483279633496,2.269105831012894,2.863194286161161,1.20127383732688,3.713662184680288,2.646453977099554-2.54910559718337,1.576527933661055-5.098146405525767,3.153063488979569-7.647187213868165,4.72960285512454-3.643492056531613-2.353894839054192-6.741713587585764-5.113425597254718-7.276560731546851-9.779909715321082Z" fill="#dc5027" stroke-width="0"/>
          <path d="M58.62151925769831,95.114708617781616c3.989590245093495,2.584251744070571,2.540759269755654,7.047249102325623,3.116208057223048,10.508448487046735,5.769387403026485,34.701685484921654,22.309302566545739,63.326282350558358,48.111508862788469,86.843417564087758,2.894254819750131,2.637931061236486,6.282025312699261,4.73441974117668,8.820170162080103,8.453223448045719-1.565717670449885.123257406958146-2.672791309709282.210418655163267-3.77968201576914.297610389989131-6.763444527770844-.464692314013519-13.018060348740619-2.644165575142324-19.028128775989899-5.647463540580247-11.610137811141612-12.835553208275996-22.350153837658581-26.268598449762067-30.616524213623052-41.610639654692932-5.474087478538422-10.159689169398007-9.408586245926926-20.880347400566279-13.194092588133572-31.701077963749412-.154309874198589-9.615281964252063,2.485789747521267-18.554225872848292,6.570540511424042-27.143518730146752Z" fill="#302755" stroke-width="0"/>
          <path d="M52.050978746274268,122.258227347928369c2.181282185101736,1.121054011542583,2.540781183628496,3.316532748468489,3.224678872174991,5.356163881048815,7.474597358155734,22.292205664055473,19.077292074556681,42.127929010843218,34.979614516780202,59.504159486582466,2.218385231080902,2.423975958087794,5.306210058381112,4.612412285659957,5.606350090560227,8.451409494121435-25.60738624514488-11.981211396776416-39.849423125469912-32.305452351552958-43.731518199363563-60.042728503889521-.607612636942577-4.34134812053253-1.692013039462836-8.84279672897992-.079125280151857-13.269004357863196Z" fill="#2e274c" stroke-width="0"/>
          <path d="M75.44289239994032,71.0798381812765c-2.336259003273881,2.508995521196994-4.672518006547762,5.017987231565712-7.008418765630267,7.527584863518314-.766511085676029-1.670380995083178-1.256394772546628-3.390523776587543-1.275362659131133-5.261666789769151-.010688253552871-1.054345474911315.43070098428143-2.607821712595978-1.22028452030645-2.771028024983025-1.148145954659412-.113494066719795-1.467894139634154,1.152241824384873-1.759398200138094,2.070113942320859-.769104544951915,2.421735191475818-1.65105410454089,5.286985928152717-4.531003928854261,5.169357113516526-3.602170113534157-.147132241690997-7.031737032471938-1.535900700927414-8.757055348378344-5.266853326093042-.161252760955904-.312788916205136-.320381781748438-.771178121416597-.131159296128317-.912868501335652,5.321402089301046-3.984784228018725,9.082184818435053-9.818627723444479,15.208907463187643-12.849298863325203,4.455385821220261,3.096095427620639,8.041697912636664,6.865842277459706,9.473775255379223,12.294659586150374Z" fill="#d74427" stroke-width="0"/>
          <path d="M66.102608839039021,59.236136686574355c-5.355487690194423,4.111341811653801-9.30489170259716,9.829221824091292-15.211198892122411,13.31123975983337-1.73411149579988-3.161927473911419.726481108429653-4.710426770789127,2.497908119505155-6.539311517034548.766307191375745-.79115829037255,2.140386133469292-1.527558799375583,1.396968459239361-2.816506441215097-1.037691457775509-1.799152669535943-2.305174650256959-.258797111177955-3.361589130903667.184920407885329-6.606067664075454,2.774720716898628-7.593893626561112,2.390726487528809-9.632297238058527-3.956908024336371,6.436249317857801-2.916052879026211,13.621283422467968-2.864961113780737,20.228380085814933-5.103978555705908,1.353637109328702-1.237661524389296,2.769839279964799-1.116648694870491,4.225370183896302-.196493891218779,1.131255122159928,1.73787456219361,1.268365464080489,3.449538252353705-.143541587371146,5.117038261792004Z" fill="#eb6d26" stroke-width="0"/>
          <path d="M121.976175534460708,123.255376111826081c2.804091616848382,3.296899364821911,6.83382045577855,4.501761096307746,10.633808057189526,5.955919545835968,3.02157632970011,1.156258436644748,4.877624239270517,2.864423787093983,5.915457660830725,6.033911942904524,5.331923606858254,16.283475669740255,12.91599124314962,31.413878754685356,23.702175037018606,44.829760028791497,2.478066536310507,3.082227826090275,3.891034981461416,6.207822869937445.667744305519591,9.667795168181328-1.142730369600031,1.226644421881247-.936457937699743,2.758231265998802-.969241092299853,4.236832363568283-6.839491385098881,3.880550472294999-14.086794237338836,6.524152044956281-21.96892104060862,7.242401582238017-4.002929124540969-7.014011064249644-7.8997341241502-14.091205649628137-12.031196691121295-21.028680052940217-8.198738446018979-13.767163359606457-14.115941594509422-28.582517707597617-18.169230705660084-43.928948985890202-3.158631410549788-11.959055245277341-8.524279515779199-22.397643641291324-15.537222067099719-32.329338618767906-3.93475601721002-5.572374994120764-5.694283795033698-11.821972155891672-3.236934444070357-18.650586458810722,4.845534706410035,16.104824073207965,16.402092144331618,26.71636306770597,29.517023246780809,36.051343420796911.690481378340337.491474810184627,1.259327420470072,1.068174968167114,1.476537733520672,1.919590064092517Z" fill="#442765" stroke-width="0"/>
          <path d="M66.263024108920945,54.402189561725208c-1.414001255525363-.028819383505834-2.828002511050727-.057640672425805-4.242123816491585-.086528650827859-2.099747331654726-1.887020826256048-4.642673216543699-.69129174304453-6.970053289986026-.973388253992198-1.698121293475197-.205828513353481-3.745285809538473.418809950058858-4.098106793346233-2.211754781481432.108557517669396-4.278934386573383-4.753146292579913-2.088428779627975-5.997194503022911-4.606762733787036.208863985617427-4.012220281117152,2.777493891217091-4.637546598905828,6.067824822515831-4.227038536711007,7.811037245213811,5.367165740246492,8.177848808012641,5.358408458488157,15.926927910933955-.380293915797665,2.108004098037782-1.561115994259126,4.529563329871962-.238395845776722,5.039682096876277,2.785467250649162.264866318233544,1.570060959274088-.521630219973304,3.368950681708156,1.038185949093531,4.65019092478542-.000640266214759.634872440855361-.001364376812489,1.269440015505097-.002084676303639,1.904007590153924-2.070979179778078,1.442832669988093-4.158814892078226,2.849437707671314-6.763057700269201,3.14610110700869Z" fill="#f28b24" stroke-width="0"/>
          <path d="M51.023370528590021,42.296716604925678c-2.22614083670851,1.116823992939317-5.082351266699334,1.329129007750453-6.068043008473978,4.226724143436513-2.642565885253134-3.183096621068216-1.905783112581048-6.803120819175092,1.975204596124968-10.274540843441173,3.768033839283817-3.370389745470675,6.163986233674223-1.092484237243298,8.432587582019551,1.92157741066967-1.613619492127327,1.199622796280892-3.856641633563413,1.737521107936118-4.33974916967054,4.12623928933499Z" fill="#fdba2d" stroke-width="0"/>
          <path d="M66.927730961040652,32.28155116574635c-.324079509689909.319919927297633-.64816092493129.63983937824014-.972905473039646.958741338222353-.991181643446907.022903073701855-1.982369003557324.081802271934066-2.972071936937937.062907236128922-1.66782679267817-.031840893415392-3.213057849838151-.936276033336981-3.364602764882875-2.399981082284285-.251361655562505-2.427798218140197,2.068791603545833-1.26158875800138,3.24117811328324-1.658090361635914,2.729016592169501-.922955047386495,6.024819322376061-2.39754501076095,4.068402061577217,3.036422869568923Z" fill="#ffd25a" stroke-width="0"/>
          <path d="M120.990066476319043,62.290606444636978c3.801130933930835-.56556873064801,6.81897237739031,1.454265152700827,9.973983234951447,3.021334612331884,6.860864081088948,8.277799622466773,9.531345859099019,18.111224789368862,10.233527340269575,28.54777820345771.332275298340392,4.938802045468037.540438040010486,9.948676025134773-2.419200155720318,14.500602855588113-3.723384322249331,5.72659918592035-8.780930989829358,7.864793562796876-15.395422156279892,6.074672554605058-9.097809410159243-2.462190936968909-15.687360683139559-8.522877754388901-21.729926431860804-15.291883092440003-3.332372221009791-3.732987607088944-6.096161366358501-7.907383371732976-8.515266244379745-12.292769415676048-.949770139399334-1.721762383222995-1.985347384779743-3.460460084173064-1.158245391960008-5.567504756483686.345271178041003-1.985631705897504.690542356071091-3.971259600969461,1.035985033990073-5.956613116454719.327275124091102-.01119621140333.654454970481311-.019507626336235.981718661250852-.024652243557284,2.265989786299542-.28423819604177,2.591626133778846,1.717177957655622,3.360589667719978,3.017405649106877,2.533922141250514,4.284597276343447,5.341287500230465,8.374560345322607,8.464677591269719,12.239459748783702,3.080412221419465,3.811719304706457,6.892885014000058,6.709007668772756,11.600968284290502,8.184110426632287,5.533965708409596,1.733842706623363,8.943833007950161-.226828078684775,10.548065740040329-5.763869079565666,1.615688923999187-5.576547850309908-.104896948030728-10.802091805533564-1.63420328868051-16.043793669658044-.978906063239265-3.355201215830675-2.708333706790654-6.39065494431452-4.182950641670686-9.535929101740294-.747747093389989-1.594915176692666-2.009284956739066-3.128411245423194-1.164301243230511-5.108349574929889Z" fill="#533a75" stroke-width="0"/>
          <path d="M91.979516671339297,81.282837406020008c6.416111540091151,13.883043004387218,15.35205555362154,25.453142322797248,29.985172182359747,31.384809761972065,9.244255062141747,3.747240102204159,17.437162512291252-2.352827807335416,18.081422767751064-12.397788201878939.817863866030166-12.751608298540305-3.675478689459851-23.926928745555415-9.082054287970095-34.957917909144271,1.665294311140315.665892577282648,3.330596244490152,1.331781343738839,4.99589817783999,1.997666299366756,9.692159389820517,12.615759917288415,12.717013272769691,27.10957187814347,10.107341540639027,42.374169445175539-2.213507012309492,12.947355267554485-9.452044315199601,16.807030026416214-22.119825689438585,13.73778950068845-.633360485400772-.153469647942075-1.313186004610543-.115239425748769-1.971333939140095-.166220676994271-12.328958591650007-6.500639238843178-21.095140591909512-16.625245929621997-28.526055025409732-28.09316933919763-1.938897595409799-2.992238943827033-2.894388208540477-6.273094724575458-2.467231555079707-9.877657442520103.161762496698429-1.376364215492686-.453232257241325-2.946192714284734.996665828448386-4.001681437467596Z" fill="#4c306d" stroke-width="0"/>
          <path d="M66.263024108920945,54.402189561725208c1.720521083188942-2.196029401510714,3.885773746293125-3.436181301717625,6.763023400293605-3.146095390766277,1.318449145324848,1.016355334854779,2.63686017956752,2.032718291366109,3.955092091713595,3.048812584532243,2.425206462588903,3.259861931659543,4.850599669489384,6.519994432076601,7.27618343181166,9.779879228701247-2.938128299832897,2.331380469765463-5.87644334397919,4.662997210839421-8.814598321570884,6.994834979913321-3.113073420550791-3.947331414650762-6.22631643542627-7.894876235644915-9.339837661214915-11.842954572498456.053193545712929-1.611846683591466.106665302340843-3.223161756737682.160137058966939-4.834476829882078Z" fill="#c3bec4" stroke-width="0"/>
          <path d="M120.990066476319043,62.290606444636978c3.364286442880257,6.984484772229735,7.146399945821031,13.734123484565316,8.475851761140802,21.607346597950709.665594840380436,3.941756173913745.380036108999775,7.579755092966479-.673171323909628,11.205658445308472-1.23050781863094,4.236314091017448-5.199030256400874,6.211077316683259-9.757847654469515,5.328672570949493-6.36096099020142-1.231225036620344-11.192775706311295-4.869467848639033-14.886120872030006-9.94912570278575-3.577216881179993-4.919946070644983-6.782736358571128-10.110110302698558-10.151535153820078-15.181590120879264,1.415742932069406-2.513679028281331,2.114288615808618-5.536050185713066,4.980394588799754-7.021083960221404,1.889570419189113,1.162271922550644,2.056969545239554,3.322957803752615,2.92241891095,5.073236609689957,2.066771716079529,4.179822383105602,4.040521897959479,8.430305131033492,8.138682999599041,11.102842317441173,1.959199369941416,1.277652348920128,4.016176537399588,2.668821629526974,6.454226435351302,1.353182951378585,2.491161504829506-1.344288479826901,2.352810647118531-3.844835396299459,2.177049949208595-6.171566656426876-.371423003989548-4.917152734035881-2.005915936908423-9.390725138800008-5.048643918318703-13.31700935277604-1.00088091437101-1.29150470714012-2.474804227511413-2.273493998961385-2.710422194209968-4.075325680279093,3.207832820198746-1.907296334346938,6.710775009469216-.528405540175299,10.056181221259976-.902647861789774.004771507739861.316073849570785.012439457868823.631778048867091.022935250448427.947409842439811Z" fill="#59447d" stroke-width="0"/>
          <path d="M110.91095000461064,62.245844463986941c6.669066238970117,4.777931770382565,8.983018824679675,11.637909184210912,9.024948639469585,19.436489617962252.02897204618057,5.386475203547889-3.919023761660355,7.61859123674185-8.710913306009388,5.135238774271784-5.871271669861017-3.042747652454636-8.471541397530018-8.64554067224617-11.007601570599945-14.256153510214062-.605615616141222-1.339818379086864-.836290575220119-2.849089016947801-1.239578256670939-4.280675934773171,3.319951818690242-3.312096945175654,7.011311396920064-5.889927444788555,11.933144493810687-6.034898947246802Z" fill="#614e87" stroke-width="0"/>
        </g>
      </g>
      <g id="AC">
        <g>
          <path d="M127.5615234375,112.94384765625c.046875,31.59814453125,1.1416015625,63.25634765625,3.2822265625,94.97119140625-.056640625,1.14013671875-.302734375,2.24072265625-.740234375,3.298828125-.4453125.86962890625-1.1044921875,1.69970703125-1.9775390625,2.48876953125-.8759765625.791015625-2.115234375,1.3046875-3.71875,1.5517578125-2.1708984375.359375-4.416015625.6015625-6.7353515625.73046875-2.322265625.12744140625-4.2568359375-.2568359375-5.8046875-1.15087890625-5.9287109375,1.43701171875-12.0087890625,1.98046875-18.234375,1.62646484375-6.2294921875-.3544921875-11.912109375-2.1015625-17.048828125-5.2470703125-4.458984375-2.69287109375-7.9462890625-6.10595703125-10.4609375-10.24267578125-2.515625-4.13427734375-4.138671875-8.56201171875-4.87109375-13.283203125-.732421875-4.71875-.6396484375-9.56103515625.2802734375-14.5283203125.9189453125-4.96484375,2.5869140625-9.5771484375,5.001953125-13.837890625,1.9697265625-3.38818359375,4.4287109375-6.3662109375,7.3779296875-8.93701171875,2.947265625-2.56884765625,6.1728515625-4.67333984375,9.673828125-6.3134765625,3.501953125-1.63720703125,7.236328125-2.74072265625,11.2021484375-3.3046875,3.966796875-.56396484375,7.9052734375-.48681640625,11.822265625.23193359375.0546875-3.89208984375.14453125-7.47802734375.26953125-10.75634765625.1220703125-3.27783203125.236328125-6.1513671875.3427734375-8.62353515625.08984375-2.85009765625.1884765625-5.4619140625.2978515625-7.83935546875-.125-.849609375-.0087890625-1.61181640625.34765625-2.2890625.2646484375-.578125.71875-1.13916015625,1.365234375-1.68408203125.64453125-.54248046875,1.6298828125-.83935546875,2.958984375-.88525390625,1.23046875-.04248046875,2.724609375-.06982421875,4.48046875-.08349609375,1.7548828125-.01171875,3.4189453125.095703125,4.9931640625.32568359375s2.9404296875.63427734375,4.0986328125,1.21044921875c1.1591796875.57861328125,1.7578125,1.43359375,1.796875,2.57080078125ZM106.484375,162.068359375c-3.6484375-1.201171875-6.8837890625-1.51611328125-9.7119140625-.9453125-2.826171875.57373046875-5.2080078125,1.6748046875-7.14453125,3.3076171875s-3.41015625,3.65380859375-4.4169921875,6.0595703125c-1.0087890625,2.40771484375-1.5390625,4.87060546875-1.5947265625,7.3857421875-.0556640625,2.517578125.384765625,4.9462890625,1.3193359375,7.28466796875.9345703125,2.3408203125,2.3544921875,4.28466796875,4.2578125,5.83154296875,1.9033203125,1.548828125,4.3076171875,2.5087890625,7.216796875,2.8818359375,2.90625.3759765625,6.375-.17138671875,10.4052734375-1.64013671875-.16015625-4.64306640625-.2529296875-9.38623046875-.27734375-14.224609375-.025390625-4.8388671875-.044921875-10.1513671875-.0537109375-15.94091796875Z" fill="none" stroke="#181818" stroke-linecap="round" stroke-linejoin="round" stroke-width="37.552799224853516"/>
          <path d="M163.9873046875,207.3388671875c-.1513671875,1.1435546875-.4462890625,2.19921875-.88671875,3.16162109375-.44921875.7763671875-1.1103515625,1.53369140625-1.9853515625,2.27490234375-.8779296875.7421875-2.1171875,1.23486328125-3.720703125,1.4814453125-1.6064453125.244140625-3.3076171875.4453125-5.103515625.60302734375-1.798828125.15576171875-3.4638671875.07080078125-4.9912109375-.25439453125-1.5302734375-.3271484375-2.859375-1.015625-3.9853515625-2.06884765625-1.12890625-1.05029296875-1.8701171875-2.61474609375-2.2265625-4.69140625-.2265625-1.03515625-.39453125-3.18896484375-.5078125-6.458984375s-.2021484375-7.203125-.265625-11.8046875c-.0654296875-4.60009765625-.12109375-9.6748046875-.1708984375-15.22509765625-.048828125-5.54931640625-.078125-11.1708984375-.083984375-16.8642578125-.078125-13.1865234375-.1103515625-27.8955078125-.1015625-44.12255859375-.125-.849609375-.0087890625-1.61181640625.34765625-2.2890625.2646484375-.57861328125.6962890625-1.091796875,1.298828125-1.53955078125.6005859375-.44775390625,1.5625-.7412109375,2.8876953125-.8828125,1.326171875-.0458984375,2.8642578125-.1455078125,4.6162109375-.3017578125,1.7490234375-.15380859375,3.41015625-.1650390625,4.98046875-.02978515625,1.5703125.13720703125,2.9345703125.4677734375,4.0908203125.9970703125,1.1572265625.52978515625,1.8037109375,1.41015625,1.94140625,2.63720703125l3.8662109375,95.3779296875Z" fill="none" stroke="#181818" stroke-linecap="round" stroke-linejoin="round" stroke-width="37.552799224853516"/>
          <path d="M233.2744140625,152.84716796875c.47265625,2.73681640625.4931640625,5.36962890625.0595703125,7.89794921875-.4345703125,2.5302734375-1.30859375,4.74267578125-2.6171875,6.63818359375-1.310546875,1.8955078125-3.109375,3.40576171875-5.39453125,4.52783203125-2.287109375,1.1240234375-5.0478515625,1.59765625-8.2783203125,1.4248046875-2.7626953125-.2822265625-4.486328125-1.43310546875-5.171875-3.451171875-.6884765625-2.015625-.8857421875-4.31103515625-.59375-6.88330078125.2666015625-3.2333984375.3154296875-5.939453125.146484375-8.1181640625-.29296875-2.9296875-1.27734375-4.62841796875-2.9521484375-5.09326171875-1.677734375-.46240234375-3.48046875.19189453125-5.412109375,1.96630859375-1.931640625,1.77490234375-3.6337890625,4.705078125-5.10546875,8.7880859375-1.47265625,4.08544921875-2.1015625,9.20703125-1.888671875,15.36669921875l1.537109375,32.1162109375c-.158203125.955078125-.4609375,1.77294921875-.912109375,2.451171875-.4521484375.6806640625-1.1181640625,1.2734375-2.001953125,1.77685546875-.8857421875.5048828125-2.12890625.87890625-3.732421875,1.1259765625-1.7001953125.248046875-3.4267578125.42529296875-5.177734375.53466796875-1.75390625.10791015625-3.392578125.0458984375-4.9169921875-.185546875-1.52734375-.23193359375-2.8486328125-.70703125-3.9638671875-1.42919921875-1.1171875-.71923828125-1.892578125-1.87841796875-2.326171875-3.47802734375-.2177734375-.7509765625-.365234375-2.31201171875-.447265625-4.68212890625-.0810546875-2.3681640625-.1591796875-5.2607421875-.228515625-8.6748046875-.0712890625-3.41357421875-.1298828125-7.18359375-.1767578125-11.3095703125-.0498046875-4.1259765625-.05078125-8.2763671875-.00390625-12.455078125.041015625-9.77392578125.142578125-20.59521484375.3017578125-32.46435546875-.1162109375-.56494140625.0087890625-1.08984375.3720703125-1.57861328125.271484375-.3876953125.7080078125-.75830078125,1.3134765625-1.11279296875.6044921875-.35205078125,1.5673828125-.59912109375,2.892578125-.74072265625,1.2275390625-.1357421875,2.7177734375-.25830078125,4.4716796875-.3681640625,1.7509765625-.10693359375,3.4111328125-.1396484375,4.978515625-.1005859375,1.56640625.04150390625,2.92578125.23291015625,4.076171875.57080078125,1.150390625.3408203125,1.787109375.9345703125,1.912109375,1.78466796875l.2353515625,2.6962890625c3.052734375-2.28759765625,6.552734375-3.97412109375,10.5-5.06005859375,3.9482421875-1.083984375,7.978515625-1.17626953125,12.08984375-.27587890625,4.8798828125,1.16162109375,8.654296875,3.2841796875,11.3232421875,6.36962890625,2.6689453125,3.08837890625,4.3662109375,6.8955078125,5.091796875,11.42529296875Z" fill="none" stroke="#181818" stroke-linecap="round" stroke-linejoin="round" stroke-width="37.552799224853516"/>
        </g>
        <g>
          <path d="M127.5615234375,112.94384765625c.046875,31.59814453125,1.1416015625,63.25634765625,3.2822265625,94.97119140625-.056640625,1.14013671875-.302734375,2.24072265625-.740234375,3.298828125-.4453125.86962890625-1.1044921875,1.69970703125-1.9775390625,2.48876953125-.8759765625.791015625-2.115234375,1.3046875-3.71875,1.5517578125-2.1708984375.359375-4.416015625.6015625-6.7353515625.73046875-2.322265625.12744140625-4.2568359375-.2568359375-5.8046875-1.15087890625-5.9287109375,1.43701171875-12.0087890625,1.98046875-18.234375,1.62646484375-6.2294921875-.3544921875-11.912109375-2.1015625-17.048828125-5.2470703125-4.458984375-2.69287109375-7.9462890625-6.10595703125-10.4609375-10.24267578125-2.515625-4.13427734375-4.138671875-8.56201171875-4.87109375-13.283203125-.732421875-4.71875-.6396484375-9.56103515625.2802734375-14.5283203125.9189453125-4.96484375,2.5869140625-9.5771484375,5.001953125-13.837890625,1.9697265625-3.38818359375,4.4287109375-6.3662109375,7.3779296875-8.93701171875,2.947265625-2.56884765625,6.1728515625-4.67333984375,9.673828125-6.3134765625,3.501953125-1.63720703125,7.236328125-2.74072265625,11.2021484375-3.3046875,3.966796875-.56396484375,7.9052734375-.48681640625,11.822265625.23193359375.0546875-3.89208984375.14453125-7.47802734375.26953125-10.75634765625.1220703125-3.27783203125.236328125-6.1513671875.3427734375-8.62353515625.08984375-2.85009765625.1884765625-5.4619140625.2978515625-7.83935546875-.125-.849609375-.0087890625-1.61181640625.34765625-2.2890625.2646484375-.578125.71875-1.13916015625,1.365234375-1.68408203125.64453125-.54248046875,1.6298828125-.83935546875,2.958984375-.88525390625,1.23046875-.04248046875,2.724609375-.06982421875,4.48046875-.08349609375,1.7548828125-.01171875,3.4189453125.095703125,4.9931640625.32568359375s2.9404296875.63427734375,4.0986328125,1.21044921875c1.1591796875.57861328125,1.7578125,1.43359375,1.796875,2.57080078125ZM106.484375,162.068359375c-3.6484375-1.201171875-6.8837890625-1.51611328125-9.7119140625-.9453125-2.826171875.57373046875-5.2080078125,1.6748046875-7.14453125,3.3076171875s-3.41015625,3.65380859375-4.4169921875,6.0595703125c-1.0087890625,2.40771484375-1.5390625,4.87060546875-1.5947265625,7.3857421875-.0556640625,2.517578125.384765625,4.9462890625,1.3193359375,7.28466796875.9345703125,2.3408203125,2.3544921875,4.28466796875,4.2578125,5.83154296875,1.9033203125,1.548828125,4.3076171875,2.5087890625,7.216796875,2.8818359375,2.90625.3759765625,6.375-.17138671875,10.4052734375-1.64013671875-.16015625-4.64306640625-.2529296875-9.38623046875-.27734375-14.224609375-.025390625-4.8388671875-.044921875-10.1513671875-.0537109375-15.94091796875Z" fill="#fff" stroke-width="0"/>
          <path d="M163.9873046875,207.3388671875c-.1513671875,1.1435546875-.4462890625,2.19921875-.88671875,3.16162109375-.44921875.7763671875-1.1103515625,1.53369140625-1.9853515625,2.27490234375-.8779296875.7421875-2.1171875,1.23486328125-3.720703125,1.4814453125-1.6064453125.244140625-3.3076171875.4453125-5.103515625.60302734375-1.798828125.15576171875-3.4638671875.07080078125-4.9912109375-.25439453125-1.5302734375-.3271484375-2.859375-1.015625-3.9853515625-2.06884765625-1.12890625-1.05029296875-1.8701171875-2.61474609375-2.2265625-4.69140625-.2265625-1.03515625-.39453125-3.18896484375-.5078125-6.458984375s-.2021484375-7.203125-.265625-11.8046875c-.0654296875-4.60009765625-.12109375-9.6748046875-.1708984375-15.22509765625-.048828125-5.54931640625-.078125-11.1708984375-.083984375-16.8642578125-.078125-13.1865234375-.1103515625-27.8955078125-.1015625-44.12255859375-.125-.849609375-.0087890625-1.61181640625.34765625-2.2890625.2646484375-.57861328125.6962890625-1.091796875,1.298828125-1.53955078125.6005859375-.44775390625,1.5625-.7412109375,2.8876953125-.8828125,1.326171875-.0458984375,2.8642578125-.1455078125,4.6162109375-.3017578125,1.7490234375-.15380859375,3.41015625-.1650390625,4.98046875-.02978515625,1.5703125.13720703125,2.9345703125.4677734375,4.0908203125.9970703125,1.1572265625.52978515625,1.8037109375,1.41015625,1.94140625,2.63720703125l3.8662109375,95.3779296875Z" fill="#fff" stroke-width="0"/>
          <path d="M233.2744140625,152.84716796875c.47265625,2.73681640625.4931640625,5.36962890625.0595703125,7.89794921875-.4345703125,2.5302734375-1.30859375,4.74267578125-2.6171875,6.63818359375-1.310546875,1.8955078125-3.109375,3.40576171875-5.39453125,4.52783203125-2.287109375,1.1240234375-5.0478515625,1.59765625-8.2783203125,1.4248046875-2.7626953125-.2822265625-4.486328125-1.43310546875-5.171875-3.451171875-.6884765625-2.015625-.8857421875-4.31103515625-.59375-6.88330078125.2666015625-3.2333984375.3154296875-5.939453125.146484375-8.1181640625-.29296875-2.9296875-1.27734375-4.62841796875-2.9521484375-5.09326171875-1.677734375-.46240234375-3.48046875.19189453125-5.412109375,1.96630859375-1.931640625,1.77490234375-3.6337890625,4.705078125-5.10546875,8.7880859375-1.47265625,4.08544921875-2.1015625,9.20703125-1.888671875,15.36669921875l1.537109375,32.1162109375c-.158203125.955078125-.4609375,1.77294921875-.912109375,2.451171875-.4521484375.6806640625-1.1181640625,1.2734375-2.001953125,1.77685546875-.8857421875.5048828125-2.12890625.87890625-3.732421875,1.1259765625-1.7001953125.248046875-3.4267578125.42529296875-5.177734375.53466796875-1.75390625.10791015625-3.392578125.0458984375-4.9169921875-.185546875-1.52734375-.23193359375-2.8486328125-.70703125-3.9638671875-1.42919921875-1.1171875-.71923828125-1.892578125-1.87841796875-2.326171875-3.47802734375-.2177734375-.7509765625-.365234375-2.31201171875-.447265625-4.68212890625-.0810546875-2.3681640625-.1591796875-5.2607421875-.228515625-8.6748046875-.0712890625-3.41357421875-.1298828125-7.18359375-.1767578125-11.3095703125-.0498046875-4.1259765625-.05078125-8.2763671875-.00390625-12.455078125.041015625-9.77392578125.142578125-20.59521484375.3017578125-32.46435546875-.1162109375-.56494140625.0087890625-1.08984375.3720703125-1.57861328125.271484375-.3876953125.7080078125-.75830078125,1.3134765625-1.11279296875.6044921875-.35205078125,1.5673828125-.59912109375,2.892578125-.74072265625,1.2275390625-.1357421875,2.7177734375-.25830078125,4.4716796875-.3681640625,1.7509765625-.10693359375,3.4111328125-.1396484375,4.978515625-.1005859375,1.56640625.04150390625,2.92578125.23291015625,4.076171875.57080078125,1.150390625.3408203125,1.787109375.9345703125,1.912109375,1.78466796875l.2353515625,2.6962890625c3.052734375-2.28759765625,6.552734375-3.97412109375,10.5-5.06005859375,3.9482421875-1.083984375,7.978515625-1.17626953125,12.08984375-.27587890625,4.8798828125,1.16162109375,8.654296875,3.2841796875,11.3232421875,6.36962890625,2.6689453125,3.08837890625,4.3662109375,6.8955078125,5.091796875,11.42529296875Z" fill="#fff" stroke-width="0"/>
        </g>
      </g>
    </g>
  </a>
</svg>