<?xml version="1.0" encoding="UTF-8"?>
<svg id="Pattern" xmlns="http://www.w3.org/2000/svg" xmlns:xlink="http://www.w3.org/1999/xlink" viewBox="0 0 280 280">
  <defs>
    <linearGradient id="linear-gradient" x1="-195.875069743162385" y1="-6552.101579326902538" x2="-241.408813879629264" y2="-6578.176459368302858" gradientTransform="translate(-6414.962230029007515 -1094.675491667623191) rotate(-81.828937965245302) scale(1 -1)" gradientUnits="userSpaceOnUse">
      <stop offset="0" stop-color="#ffc810"/>
      <stop offset=".755599975585938" stop-color="#ef4e26"/>
    </linearGradient>
    <linearGradient id="linear-gradient-2" x1="-237.521205666951573" y1="-6581.910667283847943" x2="-220.397405280042051" y2="-6566.732503351458945" gradientTransform="translate(-6414.962230029007515 -1094.675491667623191) rotate(-81.828937965245302) scale(1 -1)" gradientUnits="userSpaceOnUse">
      <stop offset="0" stop-color="#d23e27"/>
      <stop offset="1" stop-color="#d23e27" stop-opacity="0"/>
    </linearGradient>
    <linearGradient id="linear-gradient-3" x1="-236.9809105128179" y1="-6554.319718606944662" x2="-219.390091572625209" y2="-6554.921231414071372" xlink:href="#linear-gradient-2"/>
    <linearGradient id="linear-gradient-4" x1="-222.919739646025846" y1="-6543.602926208637655" x2="-213.783717240991592" y2="-6558.647461506994659" xlink:href="#linear-gradient-2"/>
    <linearGradient id="linear-gradient-5" x1="-198.281105778064557" y1="-6567.802752075347598" x2="-213.983319605991596" y2="-6575.755418673174063" xlink:href="#linear-gradient-2"/>
    <linearGradient id="linear-gradient-6" x1="-203.749035630183243" y1="-6550.420666448007978" x2="-211.356367029230285" y2="-6566.293310387411111" xlink:href="#linear-gradient-2"/>
    <linearGradient id="linear-gradient-7" x1="-208.529616670373798" y1="-6592.934895769485593" x2="-217.967011345956848" y2="-6576.200581732543469" xlink:href="#linear-gradient-2"/>
    <radialGradient id="radial-gradient" cx="-6323.370763734944376" cy="4361.446798325912823" fx="-6323.370763734944376" fy="4361.446798325912823" r="6.226836899870386" gradientTransform="translate(4817.584845667226546 22940.510645044992998) rotate(54.850062589192696) scale(3.39336006322048 -2.127890109186672)" gradientUnits="userSpaceOnUse">
      <stop offset="0" stop-color="#e1dfe1"/>
      <stop offset=".394388008117676" stop-color="#c2bec5"/>
    </radialGradient>
    <linearGradient id="linear-gradient-8" x1="-233.940408883111559" y1="-6573.583134232369957" x2="-232.383699600252811" y2="-6574.847990198728439" gradientTransform="translate(-6414.962230029007515 -1094.675491667623191) rotate(-81.828937965245302) scale(1 -1)" gradientUnits="userSpaceOnUse">
      <stop offset="0" stop-color="#a3a1a8"/>
      <stop offset="1" stop-color="#b8b6bd" stop-opacity="0"/>
    </linearGradient>
    <radialGradient id="radial-gradient-2" cx="-6783.087042872561142" cy="52.538029558299058" fx="-6783.087042872561142" fy="52.538029558299058" r="6.226836518860337" gradientTransform="translate(-133372.947007345064776 50011.45386752745253) rotate(158.785060466255658) scale(21.016598951055741 -34.567501017196193)" gradientUnits="userSpaceOnUse">
      <stop offset=".00558659017086" stop-color="#5c266f"/>
      <stop offset="1" stop-color="#2e265b"/>
    </radialGradient>
    <radialGradient id="radial-gradient-3" cx="-6756.613597749968903" cy="106.074112804482866" fx="-6756.613597749968903" fy="106.074112804482866" r="6.226836518859717" gradientTransform="translate(-130913.912171863412368 82833.909048054061714) rotate(146.706065848324641) scale(22.936198784939251 -26.321800119514762)" gradientUnits="userSpaceOnUse">
      <stop offset=".71875" stop-color="#29233a" stop-opacity="0"/>
      <stop offset="1" stop-color="#29233a"/>
    </radialGradient>
    <radialGradient id="radial-gradient-4" cx="-5923.365821833635891" cy="293.063367155758897" fx="-5923.365821833635891" fy="293.063367155758897" r="6.226836518861662" gradientTransform="translate(113074.574026170972502 -23623.774103347946948) rotate(-14.279041221817948) scale(19.476000259430112 -16.532499694880059)" gradientUnits="userSpaceOnUse">
      <stop offset=".809844970703125" stop-color="#672b80" stop-opacity="0"/>
      <stop offset="1" stop-color="#672b80"/>
    </radialGradient>
    <radialGradient id="radial-gradient-5" cx="-6407.417941515318489" cy="1404.028573451398188" fx="-6407.417941515318489" fy="1404.028573451398188" r="6.226836518863416" gradientTransform="translate(-13150.717560208737268 91973.97751166454691) rotate(92.148493896123384) scale(14.411199570559628 -6.98413014155069)" gradientUnits="userSpaceOnUse">
      <stop offset="0" stop-color="#67568f"/>
      <stop offset=".727772979736328" stop-color="#67568f" stop-opacity="0"/>
    </radialGradient>
    <linearGradient id="linear-gradient-9" x1="-205.120375983345184" y1="-6544.256119225231487" x2="-214.803108680285817" y2="-6541.142701823794596" gradientTransform="translate(-6414.962230029007515 -1094.675491667623191) rotate(-81.828937965245302) scale(1 -1)" gradientUnits="userSpaceOnUse">
      <stop offset="0" stop-color="#ffd35d"/>
      <stop offset="1" stop-color="#ffd35d" stop-opacity="0"/>
    </linearGradient>
    <linearGradient id="linear-gradient-10" x1="-208.23654865295066" y1="-6553.370854155731649" x2="-212.663202667619885" y2="-6559.694955827533704" gradientTransform="translate(-6414.962230029007515 -1094.675491667623191) rotate(-81.828937965245302) scale(1 -1)" gradientUnits="userSpaceOnUse">
      <stop offset="0" stop-color="#febb12"/>
      <stop offset="1" stop-color="#febb12" stop-opacity="0"/>
    </linearGradient>
    <linearGradient id="linear-gradient-11" x1="-201.882559366734313" y1="-6566.485269378144039" x2="-209.580176821736359" y2="-6567.061440463709914" xlink:href="#linear-gradient-10"/>
  </defs>
  <a xlink:href="https://www.notion.so/dmmnotes/disorganized-11dd75f5158a4b4696afefbb7c2e711b?pvs=4">
    <g>
      <g>
        <g>
          <path d="M33.005928543490882,36.452144344785665c-.350963485630928-.076190579470676-.718443917841796-.03648300842724-1.0258305449006.14899672547017-2.046843290911056,1.23662432538822-5.465974790500695,4.544005362496137-5.889637056579886,9.288642678732685-.034637383210793.387559284699819.100394167729974.768044553630716.349182280378955,1.067339489269216l.528931778861079.635188248035774c.820902583080169.985990189906261,1.921855682348905,1.699545538402162,3.157064118659036,2.046756582395574l3.460219099539245.971156308836726c1.576844731151141.442807865948453,1.24283919455047,2.76896735057835-.394892797758075,2.750204790878342l-3.593678169190753-.041689438797221c-1.282999956629283-.014370159316968-2.540247802540762.360578925377922-3.60541515523073,1.075754579522254l-.686286608668524.460699064341497c-.32295173392049.217212703119003-.559671931931007.544931295938113-.635394608631032.925967354509339-.928463691529032,4.672154551361928,1.421837261919791,8.808573212023475,3.038121358029457,10.5705499424339.242778946610997.264476186566753.584240076250353.405978328598394.94246209316043.431617346746862l.768070829430144.054923410393712c1.175206685589728.083830256776309,2.35059922649998-.16133719627851,3.394157964430633-.708504156086747l3.779268209949805-1.9811716077038c1.58945773161031-.833647213467884,3.094484949180696,1.240095060918065,1.809617851969961,2.493032230262543l-2.399240023611128,2.339745975156802c-.918641523458064.895999579814998-1.543710842190194,2.049286325100184-1.792659253389502,3.308160817093267l-.160285834679598.810500759687784c-.075443292260388.381712097913805-.011600536749029.780904121424101.204207606890122,1.104404089038326,2.64258313686878,3.963252386536624,7.227800456139448,5.231203183097932,9.616683271609872,5.336427576898132.358687668929633.016275014750136.700499123560803-.124630542472005.972165424389459-.359261940810939l.582469156201114-.503922460125978c.891224592400249-.770339885323665,1.550020598770061-1.774729266723625,1.90234675299871-2.899242476992185l.919390123141056-2.934074760030853c.527916454930164-1.684974284494274,3.009389733630087-1.328667754579328,3.041934324410249.436781275327121l.05667823272961,3.074225182695955c.02168486248047,1.178216213504129.371257308439453,2.32739388144455,1.009658302638854,3.317367638916949l.417208542230583.647462870099844c.194613071469576.301582909177341.482967975320207.532971966821606.831805248921228.618288115380892,2.321911378458026.571182943239364,7.078649042729012.644612523964497,10.729676509448836-2.414961159258382.298054355271233-.249716153211011.47169813237997-.614808272013761.506644333740041-1.002335213089282l.074242374839741-.822855455126955c.115324763790341-1.278061068986972-.159929224608277-2.560622256242823-.789344034319583-3.678902118065707l-1.644032559250263-2.92030609477024c-.88041204351066-1.563842430164186,1.147362479930962-3.130321402533809,2.43803880796986-1.883125277905492l3.069136962001721,2.9645114257155c.847437036019983.818688780366756,1.90629712658847,1.384665169351138,3.057859777318299,1.634928015754667l.752183614540627.163364890419871c.350778325850115.076163992989677.718812767911004.036535970383738,1.02601717421021-.148969927979124,2.046448383200186-1.236057103988969,5.466096760839719-4.543987849186124,5.889454835849392-9.288668843211781.034792076759913-.386913147859559-.100461984260619-.768042292625069-.349371848740702-1.067366708762165l-.52843508038859-.635116928742718c-.820901113551372-.985989978906218-1.921857151870427-1.699545749409481-3.157189028039284-2.046774517723861l-2.323960284051282-.651987447989995c-1.751954124389158-.492500288887641-1.38095708678884-3.076284637423669.438702254070449-3.055312853892246l2.413609897388596.027628640965304c1.283123396500741.014387883637028,2.540374181451625-.360560779050502,3.605540064610977-1.075736644193967l.685789910199674-.460770383634554c.323073485749774-.217183222621316.56001619385097-.544257939606723.635584176980046-.92594013501639.928767882620377-4.672110873573729-1.422049948889253-8.807979826146948-3.037939137289868-10.570523777955714-.24259672584958-.264450022100391-.584611865340776-.406031712569529-.942648722460945-.431644144238817l-.767760760259989-.054878888588973c-1.175456722859963-.083854160239753-2.350785855807771.16131039879474-3.394341654699019.708477780610338l-3.779271149000124,1.981171185699168c-1.589457731599396.833647213465156-3.09454373005974-1.240103501072554-1.809679571890229-2.493041092425301l2.399304682581715-2.339736690989412c.918549118800001-.895376924433549,1.543649122259012-2.049295187261123,1.7925068168297-3.307558780052204l.160373612268813-.811112080897146c.075505012180656-.381703235751957.011603475790253-.780903699414921-.204145886969854-1.104395226876477-2.642641917749643-3.963260826690203-7.227951641680193-5.230588967875519-9.616680332550459-5.336427154890771-.35874938886991-.016283876910165-.700560843499261.124621680312885-.972257829060254.35988459618693l-.582441410519095.503290520579867c-.891249399039225.770972246878046-1.549955939790379,1.774738550891016-1.902282094019029,2.899251761162304l-.919390123141056,2.934074760030853c-.527978174859527,1.684965422335154-3.00945145355945,1.328658892419298-3.041934324410249-.43678127532803l-.05667823272961-3.074225182695045c-.02168486248047-1.178216213503219-.371346774049016-2.326770804060288-1.00972296161126-3.317376923087068l-.417236287918058-.646830930553733c-.194582386740876-.302214426714272-.482937290591508-.533603484358537-.831712844261347-.618910770756884-2.322065503049089-.570569150023402-7.07871076264928-.644621386123617-10.72967944849006,2.414960737251931-.298113136159373.249707713056523-.471698132389065.614808272011942-.506706053669404,1.002326350927433l-.074330152428956.823466776336318c-.115234047159902,1.27745016978497.159989256499102,2.560642874583209.789496470879385,3.678300081021916l1.643967900268763,2.920296810605578c.880414982570073,1.563842852170637-1.147300759988866,3.130330264694749-2.437977088038679,1.883134140064612l-3.069134022951403-2.964511003708139c-.847439975059388-.818689202375026-1.906363473599413-1.384662697338172-3.057676087049913-1.634901640278258l-.752493683718058-.1634094122237Z" fill="none" stroke="#181818" stroke-linecap="round" stroke-linejoin="round" stroke-width="33.878062872882403"/>
          <path d="M33.005928543490882,36.452144344785665c-.350963485630928-.076190579470676-.718443917841796-.03648300842724-1.0258305449006.14899672547017-2.046843290911056,1.23662432538822-5.465974790500695,4.544005362496137-5.889637056579886,9.288642678732685-.034637383210793.387559284699819.100394167729974.768044553630716.349182280378955,1.067339489269216l.528931778861079.635188248035774c.820902583080169.985990189906261,1.921855682348905,1.699545538402162,3.157064118659036,2.046756582395574l3.460219099539245.971156308836726c1.576844731151141.442807865948453,1.24283919455047,2.76896735057835-.394892797758075,2.750204790878342l-3.593678169190753-.041689438797221c-1.282999956629283-.014370159316968-2.540247802540762.360578925377922-3.60541515523073,1.075754579522254l-.686286608668524.460699064341497c-.32295173392049.217212703119003-.559671931931007.544931295938113-.635394608631032.925967354509339-.928463691529032,4.672154551361928,1.421837261919791,8.808573212023475,3.038121358029457,10.5705499424339.242778946610997.264476186566753.584240076250353.405978328598394.94246209316043.431617346746862l.768070829430144.054923410393712c1.175206685589728.083830256776309,2.35059922649998-.16133719627851,3.394157964430633-.708504156086747l3.779268209949805-1.9811716077038c1.58945773161031-.833647213467884,3.094484949180696,1.240095060918065,1.809617851969961,2.493032230262543l-2.399240023611128,2.339745975156802c-.918641523458064.895999579814998-1.543710842190194,2.049286325100184-1.792659253389502,3.308160817093267l-.160285834679598.810500759687784c-.075443292260388.381712097913805-.011600536749029.780904121424101.204207606890122,1.104404089038326,2.64258313686878,3.963252386536624,7.227800456139448,5.231203183097932,9.616683271609872,5.336427576898132.358687668929633.016275014750136.700499123560803-.124630542472005.972165424389459-.359261940810939l.582469156201114-.503922460125978c.891224592400249-.770339885323665,1.550020598770061-1.774729266723625,1.90234675299871-2.899242476992185l.919390123141056-2.934074760030853c.527916454930164-1.684974284494274,3.009389733630087-1.328667754579328,3.041934324410249.436781275327121l.05667823272961,3.074225182695955c.02168486248047,1.178216213504129.371257308439453,2.32739388144455,1.009658302638854,3.317367638916949l.417208542230583.647462870099844c.194613071469576.301582909177341.482967975320207.532971966821606.831805248921228.618288115380892,2.321911378458026.571182943239364,7.078649042729012.644612523964497,10.729676509448836-2.414961159258382.298054355271233-.249716153211011.47169813237997-.614808272013761.506644333740041-1.002335213089282l.074242374839741-.822855455126955c.115324763790341-1.278061068986972-.159929224608277-2.560622256242823-.789344034319583-3.678902118065707l-1.644032559250263-2.92030609477024c-.88041204351066-1.563842430164186,1.147362479930962-3.130321402533809,2.43803880796986-1.883125277905492l3.069136962001721,2.9645114257155c.847437036019983.818688780366756,1.90629712658847,1.384665169351138,3.057859777318299,1.634928015754667l.752183614540627.163364890419871c.350778325850115.076163992989677.718812767911004.036535970383738,1.02601717421021-.148969927979124,2.046448383200186-1.236057103988969,5.466096760839719-4.543987849186124,5.889454835849392-9.288668843211781.034792076759913-.386913147859559-.100461984260619-.768042292625069-.349371848740702-1.067366708762165l-.52843508038859-.635116928742718c-.820901113551372-.985989978906218-1.921857151870427-1.699545749409481-3.157189028039284-2.046774517723861l-2.323960284051282-.651987447989995c-1.751954124389158-.492500288887641-1.38095708678884-3.076284637423669.438702254070449-3.055312853892246l2.413609897388596.027628640965304c1.283123396500741.014387883637028,2.540374181451625-.360560779050502,3.605540064610977-1.075736644193967l.685789910199674-.460770383634554c.323073485749774-.217183222621316.56001619385097-.544257939606723.635584176980046-.92594013501639.928767882620377-4.672110873573729-1.422049948889253-8.807979826146948-3.037939137289868-10.570523777955714-.24259672584958-.264450022100391-.584611865340776-.406031712569529-.942648722460945-.431644144238817l-.767760760259989-.054878888588973c-1.175456722859963-.083854160239753-2.350785855807771.16131039879474-3.394341654699019.708477780610338l-3.779271149000124,1.981171185699168c-1.589457731599396.833647213465156-3.09454373005974-1.240103501072554-1.809679571890229-2.493041092425301l2.399304682581715-2.339736690989412c.918549118800001-.895376924433549,1.543649122259012-2.049295187261123,1.7925068168297-3.307558780052204l.160373612268813-.811112080897146c.075505012180656-.381703235751957.011603475790253-.780903699414921-.204145886969854-1.104395226876477-2.642641917749643-3.963260826690203-7.227951641680193-5.230588967875519-9.616680332550459-5.336427154890771-.35874938886991-.016283876910165-.700560843499261.124621680312885-.972257829060254.35988459618693l-.582441410519095.503290520579867c-.891249399039225.770972246878046-1.549955939790379,1.774738550891016-1.902282094019029,2.899251761162304l-.919390123141056,2.934074760030853c-.527978174859527,1.684965422335154-3.00945145355945,1.328658892419298-3.041934324410249-.43678127532803l-.05667823272961-3.074225182695045c-.02168486248047-1.178216213503219-.371346774049016-2.326770804060288-1.00972296161126-3.317376923087068l-.417236287918058-.646830930553733c-.194582386740876-.302214426714272-.482937290591508-.533603484358537-.831712844261347-.618910770756884-2.322065503049089-.570569150023402-7.07871076264928-.644621386123617-10.72967944849006,2.414960737251931-.298113136159373.249707713056523-.471698132389065.614808272011942-.506706053669404,1.002326350927433l-.074330152428956.823466776336318c-.115234047159902,1.27745016978497.159989256499102,2.560642874583209.789496470879385,3.678300081021916l1.643967900268763,2.920296810605578c.880414982570073,1.563842852170637-1.147300759988866,3.130330264694749-2.437977088038679,1.883134140064612l-3.069134022951403-2.964511003708139c-.847439975059388-.818689202375026-1.906363473599413-1.384662697338172-3.057676087049913-1.634901640278258l-.752493683718058-.1634094122237Z" fill="none" stroke="#181818" stroke-linecap="round" stroke-linejoin="round" stroke-width="33.878062872882403"/>
          <path d="M52.801144244709576,56.573138020736224l-16.001694494800176,18.34403709745493,7.400348467230287,3.224707279511676,1.873241322120521-2.77761677223134,6.728104705449368-18.791127604735266Z" fill="none" stroke="#181818" stroke-linecap="round" stroke-linejoin="round" stroke-width="33.878062872882403"/>
          <path d="M57.467247646140095,54.196539065036632l10.681737756340226,13.230055494833323,5.947604264269103-5.141669518041454-16.629342020609329-8.088385976791869Z" fill="none" stroke="#181818" stroke-linecap="round" stroke-linejoin="round" stroke-width="33.878062872882403"/>
          <g>
            <polygon points="50.876436322439986 54.232796020380192 28.116924447169367 55.97788967665565 29.035576456000854 60.532787492028547 50.876436322439986 54.232796020380192" fill="none" stroke="#181818" stroke-linecap="round" stroke-linejoin="round" stroke-width="33.878062872882403"/>
            <polygon points="50.876436322439986 54.232796020380192 28.116924447169367 55.97788967665565 29.035576456000854 60.532787492028547 50.876436322439986 54.232796020380192" fill="none" stroke="#181818" stroke-linecap="round" stroke-linejoin="round" stroke-width="33.878062872882403"/>
          </g>
          <g>
            <polygon points="66.934754272830105 34.127942221012745 54.62520601208962 53.436182121866295 55.687620670969409 41.949051762560885 60.086853420440093 31.370700345340992 66.934754272830105 34.127942221012745" fill="none" stroke="#181818" stroke-linecap="round" stroke-linejoin="round" stroke-width="33.878062872882403"/>
            <polygon points="66.934754272830105 34.127942221012745 54.62520601208962 53.436182121866295 55.687620670969409 41.949051762560885 60.086853420440093 31.370700345340992 66.934754272830105 34.127942221012745" fill="none" stroke="#181818" stroke-linecap="round" stroke-linejoin="round" stroke-width="33.878062872882403"/>
          </g>
          <path d="M57.068563444840038,52.861027182560974l-30.592887765500564,7.697361310147244,4.014269687490014,4.901251118151777,26.57861807801055-12.59861242829902Z" fill="none" stroke="#181818" stroke-linecap="round" stroke-linejoin="round" stroke-width="33.878062872882403"/>
          <g>
            <polygon points="55.607266631599487 57.566124816306001 32.130131170019013 43.08826159142518 28.810748048439564 47.722835140984898 55.607266631599487 57.566124816306001" fill="none" stroke="#181818" stroke-linecap="round" stroke-linejoin="round" stroke-width="33.878062872882403"/>
            <polygon points="55.607266631599487 57.566124816306001 32.130131170019013 43.08826159142518 28.810748048439564 47.722835140984898 55.607266631599487 57.566124816306001" fill="none" stroke="#181818" stroke-linecap="round" stroke-linejoin="round" stroke-width="33.878062872882403"/>
          </g>
          <g>
            <polygon points="54.65730475205055 58.019163986608874 69.477980375460902 36.262686635673163 65.352144167589358 33.507531802017184 54.65730475205055 58.019163986608874" fill="none" stroke="#181818" stroke-linecap="round" stroke-linejoin="round" stroke-width="33.878062872882403"/>
            <polygon points="54.65730475205055 58.019163986608874 69.477980375460902 36.262686635673163 65.352144167589358 33.507531802017184 54.65730475205055 58.019163986608874" fill="none" stroke="#181818" stroke-linecap="round" stroke-linejoin="round" stroke-width="33.878062872882403"/>
          </g>
          <g>
            <polygon points="52.825630262119375 60.139697012503348 52.122407090939305 32.566614273724554 48.550085058519471 36.206172558622711 52.825630262119375 60.139697012503348" fill="none" stroke="#181818" stroke-linecap="round" stroke-linejoin="round" stroke-width="33.878062872882403"/>
            <polygon points="52.825630262119375 60.139697012503348 52.122407090939305 32.566614273724554 48.550085058519471 36.206172558622711 52.825630262119375 60.139697012503348" fill="none" stroke="#181818" stroke-linecap="round" stroke-linejoin="round" stroke-width="33.878062872882403"/>
          </g>
          <path d="M78.25835651351008,53.151418665622259l-.9174065965708-5.930497391828794-21.56719703814997,8.501401562509272,4.194559397330522,2.961294944027031,18.290044237390248-5.53219911470751Z" fill="none" stroke="#181818" stroke-linecap="round" stroke-linejoin="round" stroke-width="33.878062872882403"/>
          <path d="M54.995351823570672,58.362735533756677l15.321839105778054,18.221791633584871" fill="none" stroke="#181818" stroke-linecap="round" stroke-linejoin="round" stroke-width="33.878062872882403"/>
          <path d="M54.995351823570672,58.362735533756677l15.321839105778054,18.221791633584871" fill="none" stroke="#181818" stroke-linecap="round" stroke-linejoin="round" stroke-width="33.878062872882403"/>
          <path d="M187.792499509490881,137.78234179078845c-5.956977021811326,41.486972761773359-44.417884491351288,70.289887274382636-85.905233450790547,64.332856235600048-41.487343081349536-5.957030194766048-70.290043323151622-44.418103374218845-64.333066301340295-85.905076135994022,5.957029350749508-41.48733720326436,44.41791674490014-70.290070120633573,85.90525982626059-64.333039925866615,41.487348959439259,5.957031038782588,70.290069276619761,44.41792262299532,64.333039925870253,85.90525982626059Z" fill="none" stroke="#181818" stroke-linecap="round" stroke-linejoin="round" stroke-width="33.878062872882403"/>
          <path d="M187.792499509490881,137.78234179078845c-5.956977021811326,41.486972761773359-44.417884491351288,70.289887274382636-85.905233450790547,64.332856235600048-41.487343081349536-5.957030194766048-70.290043323151622-44.418103374218845-64.333066301340295-85.905076135994022,5.957029350749508-41.48733720326436,44.41791674490014-70.290070120633573,85.90525982626059-64.333039925866615,41.487348959439259,5.957031038782588,70.290069276619761,44.41792262299532,64.333039925870253,85.90525982626059Z" fill="none" stroke="#181818" stroke-linecap="round" stroke-linejoin="round" stroke-width="33.878062872882403"/>
          <path d="M187.792499509490881,137.78234179078845c-5.956977021811326,41.486972761773359-44.417884491351288,70.289887274382636-85.905233450790547,64.332856235600048-41.487343081349536-5.957030194766048-70.290043323151622-44.418103374218845-64.333066301340295-85.905076135994022,5.957029350749508-41.48733720326436,44.41791674490014-70.290070120633573,85.90525982626059-64.333039925866615,41.487348959439259,5.957031038782588,70.290069276619761,44.41792262299532,64.333039925870253,85.90525982626059Z" fill="none" stroke="#181818" stroke-linecap="round" stroke-linejoin="round" stroke-width="33.878062872882403"/>
          <ellipse cx="109.260382618645053" cy="100.798249466881998" rx="31.332502180840198" ry="41.746081009508124" transform="translate(-36.804339893755809 73.171900758885357) rotate(-31.982832423793141)" fill="none" stroke="#181818" stroke-linecap="round" stroke-linejoin="round" stroke-width="33.878062872882403"/>
          <path d="M41.357365947780636,31.536739577204571l9.158239897329622-1.830348065862381c-.228155894270458,1.588976646447918-.807962789600424,4.257904821614829-3.629253248909663,5.081385187104388-2.573480260431097.751483560262386-5.082541342120749-2.25339788554902-5.528986648419959-3.251037121242007Z" fill="none" stroke="#181818" stroke-linecap="round" stroke-linejoin="round" stroke-width="33.878062872882403"/>
          <path d="M27.477099156210897,45.830341658264842l4.96812613226939-7.908685409031023c.996916316180432,1.258493660449858,2.536218030938471,3.514555943354935,1.194256602278983,6.129410209492562-1.22405858555976,2.38517722827055-5.130849413879332,2.141263909312329-6.162382734548373,1.779275199538461Z" fill="none" stroke="#181818" stroke-linecap="round" stroke-linejoin="round" stroke-width="33.878062872882403"/>
          <path d="M42.808143605030637,42.311544074711492l7.313613580758101,8.962573153140511" fill="none" stroke="#181818" stroke-linecap="round" stroke-linejoin="round" stroke-width="33.878062872882403"/>
          <path d="M56.940689698940332,40.06499623028958l-2.430092742150009,9.760226218049866" fill="none" stroke="#181818" stroke-linecap="round" stroke-linejoin="round" stroke-width="33.878062872882403"/>
        </g>
        <g>
          <path d="M33.005928543490882,36.452144344785665c-.350963485630928-.076190579470676-.718443917841796-.03648300842724-1.0258305449006.14899672547017-2.046843290911056,1.23662432538822-5.465974790500695,4.544005362496137-5.889637056579886,9.288642678732685-.034637383210793.387559284699819.100394167729974.768044553630716.349182280378955,1.067339489269216l.528931778861079.635188248035774c.820902583080169.985990189906261,1.921855682348905,1.699545538402162,3.157064118659036,2.046756582395574l3.460219099539245.971156308836726c1.576844731151141.442807865948453,1.24283919455047,2.76896735057835-.394892797758075,2.750204790878342l-3.593678169190753-.041689438797221c-1.282999956629283-.014370159316968-2.540247802540762.360578925377922-3.60541515523073,1.075754579522254l-.686286608668524.460699064341497c-.32295173392049.217212703119003-.559671931931007.544931295938113-.635394608631032.925967354509339-.928463691529032,4.672154551361928,1.421837261919791,8.808573212023475,3.038121358029457,10.5705499424339.242778946610997.264476186566753.584240076250353.405978328598394.94246209316043.431617346746862l.768070829430144.054923410393712c1.175206685589728.083830256776309,2.35059922649998-.16133719627851,3.394157964430633-.708504156086747l3.779268209949805-1.9811716077038c1.58945773161031-.833647213467884,3.094484949180696,1.240095060918065,1.809617851969961,2.493032230262543l-2.399240023611128,2.339745975156802c-.918641523458064.895999579814998-1.543710842190194,2.049286325100184-1.792659253389502,3.308160817093267l-.160285834679598.810500759687784c-.075443292260388.381712097913805-.011600536749029.780904121424101.204207606890122,1.104404089038326,2.64258313686878,3.963252386536624,7.227800456139448,5.231203183097932,9.616683271609872,5.336427576898132.358687668929633.016275014750136.700499123560803-.124630542472005.972165424389459-.359261940810939l.582469156201114-.503922460125978c.891224592400249-.770339885323665,1.550020598770061-1.774729266723625,1.90234675299871-2.899242476992185l.919390123141056-2.934074760030853c.527916454930164-1.684974284494274,3.009389733630087-1.328667754579328,3.041934324410249.436781275327121l.05667823272961,3.074225182695955c.02168486248047,1.178216213504129.371257308439453,2.32739388144455,1.009658302638854,3.317367638916949l.417208542230583.647462870099844c.194613071469576.301582909177341.482967975320207.532971966821606.831805248921228.618288115380892,2.321911378458026.571182943239364,7.078649042729012.644612523964497,10.729676509448836-2.414961159258382.298054355271233-.249716153211011.47169813237997-.614808272013761.506644333740041-1.002335213089282l.074242374839741-.822855455126955c.115324763790341-1.278061068986972-.159929224608277-2.560622256242823-.789344034319583-3.678902118065707l-1.644032559250263-2.92030609477024c-.88041204351066-1.563842430164186,1.147362479930962-3.130321402533809,2.43803880796986-1.883125277905492l3.069136962001721,2.9645114257155c.847437036019983.818688780366756,1.90629712658847,1.384665169351138,3.057859777318299,1.634928015754667l.752183614540627.163364890419871c.350778325850115.076163992989677.718812767911004.036535970383738,1.02601717421021-.148969927979124,2.046448383200186-1.236057103988969,5.466096760839719-4.543987849186124,5.889454835849392-9.288668843211781.034792076759913-.386913147859559-.100461984260619-.768042292625069-.349371848740702-1.067366708762165l-.52843508038859-.635116928742718c-.820901113551372-.985989978906218-1.921857151870427-1.699545749409481-3.157189028039284-2.046774517723861l-2.323960284051282-.651987447989995c-1.751954124389158-.492500288887641-1.38095708678884-3.076284637423669.438702254070449-3.055312853892246l2.413609897388596.027628640965304c1.283123396500741.014387883637028,2.540374181451625-.360560779050502,3.605540064610977-1.075736644193967l.685789910199674-.460770383634554c.323073485749774-.217183222621316.56001619385097-.544257939606723.635584176980046-.92594013501639.928767882620377-4.672110873573729-1.422049948889253-8.807979826146948-3.037939137289868-10.570523777955714-.24259672584958-.264450022100391-.584611865340776-.406031712569529-.942648722460945-.431644144238817l-.767760760259989-.054878888588973c-1.175456722859963-.083854160239753-2.350785855807771.16131039879474-3.394341654699019.708477780610338l-3.779271149000124,1.981171185699168c-1.589457731599396.833647213465156-3.09454373005974-1.240103501072554-1.809679571890229-2.493041092425301l2.399304682581715-2.339736690989412c.918549118800001-.895376924433549,1.543649122259012-2.049295187261123,1.7925068168297-3.307558780052204l.160373612268813-.811112080897146c.075505012180656-.381703235751957.011603475790253-.780903699414921-.204145886969854-1.104395226876477-2.642641917749643-3.963260826690203-7.227951641680193-5.230588967875519-9.616680332550459-5.336427154890771-.35874938886991-.016283876910165-.700560843499261.124621680312885-.972257829060254.35988459618693l-.582441410519095.503290520579867c-.891249399039225.770972246878046-1.549955939790379,1.774738550891016-1.902282094019029,2.899251761162304l-.919390123141056,2.934074760030853c-.527978174859527,1.684965422335154-3.00945145355945,1.328658892419298-3.041934324410249-.43678127532803l-.05667823272961-3.074225182695045c-.02168486248047-1.178216213503219-.371346774049016-2.326770804060288-1.00972296161126-3.317376923087068l-.417236287918058-.646830930553733c-.194582386740876-.302214426714272-.482937290591508-.533603484358537-.831712844261347-.618910770756884-2.322065503049089-.570569150023402-7.07871076264928-.644621386123617-10.72967944849006,2.414960737251931-.298113136159373.249707713056523-.471698132389065.614808272011942-.506706053669404,1.002326350927433l-.074330152428956.823466776336318c-.115234047159902,1.27745016978497.159989256499102,2.560642874583209.789496470879385,3.678300081021916l1.643967900268763,2.920296810605578c.880414982570073,1.563842852170637-1.147300759988866,3.130330264694749-2.437977088038679,1.883134140064612l-3.069134022951403-2.964511003708139c-.847439975059388-.818689202375026-1.906363473599413-1.384662697338172-3.057676087049913-1.634901640278258l-.752493683718058-.1634094122237Z" fill="url(#linear-gradient)" fill-rule="evenodd" stroke-width="0"/>
          <path d="M33.005928543490882,36.452144344785665c-.350963485630928-.076190579470676-.718443917841796-.03648300842724-1.0258305449006.14899672547017-2.046843290911056,1.23662432538822-5.465974790500695,4.544005362496137-5.889637056579886,9.288642678732685-.034637383210793.387559284699819.100394167729974.768044553630716.349182280378955,1.067339489269216l.528931778861079.635188248035774c.820902583080169.985990189906261,1.921855682348905,1.699545538402162,3.157064118659036,2.046756582395574l3.460219099539245.971156308836726c1.576844731151141.442807865948453,1.24283919455047,2.76896735057835-.394892797758075,2.750204790878342l-3.593678169190753-.041689438797221c-1.282999956629283-.014370159316968-2.540247802540762.360578925377922-3.60541515523073,1.075754579522254l-.686286608668524.460699064341497c-.32295173392049.217212703119003-.559671931931007.544931295938113-.635394608631032.925967354509339-.928463691529032,4.672154551361928,1.421837261919791,8.808573212023475,3.038121358029457,10.5705499424339.242778946610997.264476186566753.584240076250353.405978328598394.94246209316043.431617346746862l.768070829430144.054923410393712c1.175206685589728.083830256776309,2.35059922649998-.16133719627851,3.394157964430633-.708504156086747l3.779268209949805-1.9811716077038c1.58945773161031-.833647213467884,3.094484949180696,1.240095060918065,1.809617851969961,2.493032230262543l-2.399240023611128,2.339745975156802c-.918641523458064.895999579814998-1.543710842190194,2.049286325100184-1.792659253389502,3.308160817093267l-.160285834679598.810500759687784c-.075443292260388.381712097913805-.011600536749029.780904121424101.204207606890122,1.104404089038326,2.64258313686878,3.963252386536624,7.227800456139448,5.231203183097932,9.616683271609872,5.336427576898132.358687668929633.016275014750136.700499123560803-.124630542472005.972165424389459-.359261940810939l.582469156201114-.503922460125978c.891224592400249-.770339885323665,1.550020598770061-1.774729266723625,1.90234675299871-2.899242476992185l.919390123141056-2.934074760030853c.527916454930164-1.684974284494274,3.009389733630087-1.328667754579328,3.041934324410249.436781275327121l.05667823272961,3.074225182695955c.02168486248047,1.178216213504129.371257308439453,2.32739388144455,1.009658302638854,3.317367638916949l.417208542230583.647462870099844c.194613071469576.301582909177341.482967975320207.532971966821606.831805248921228.618288115380892,2.321911378458026.571182943239364,7.078649042729012.644612523964497,10.729676509448836-2.414961159258382.298054355271233-.249716153211011.47169813237997-.614808272013761.506644333740041-1.002335213089282l.074242374839741-.822855455126955c.115324763790341-1.278061068986972-.159929224608277-2.560622256242823-.789344034319583-3.678902118065707l-1.644032559250263-2.92030609477024c-.88041204351066-1.563842430164186,1.147362479930962-3.130321402533809,2.43803880796986-1.883125277905492l3.069136962001721,2.9645114257155c.847437036019983.818688780366756,1.90629712658847,1.384665169351138,3.057859777318299,1.634928015754667l.752183614540627.163364890419871c.350778325850115.076163992989677.718812767911004.036535970383738,1.02601717421021-.148969927979124,2.046448383200186-1.236057103988969,5.466096760839719-4.543987849186124,5.889454835849392-9.288668843211781.034792076759913-.386913147859559-.100461984260619-.768042292625069-.349371848740702-1.067366708762165l-.52843508038859-.635116928742718c-.820901113551372-.985989978906218-1.921857151870427-1.699545749409481-3.157189028039284-2.046774517723861l-2.323960284051282-.651987447989995c-1.751954124389158-.492500288887641-1.38095708678884-3.076284637423669.438702254070449-3.055312853892246l2.413609897388596.027628640965304c1.283123396500741.014387883637028,2.540374181451625-.360560779050502,3.605540064610977-1.075736644193967l.685789910199674-.460770383634554c.323073485749774-.217183222621316.56001619385097-.544257939606723.635584176980046-.92594013501639.928767882620377-4.672110873573729-1.422049948889253-8.807979826146948-3.037939137289868-10.570523777955714-.24259672584958-.264450022100391-.584611865340776-.406031712569529-.942648722460945-.431644144238817l-.767760760259989-.054878888588973c-1.175456722859963-.083854160239753-2.350785855807771.16131039879474-3.394341654699019.708477780610338l-3.779271149000124,1.981171185699168c-1.589457731599396.833647213465156-3.09454373005974-1.240103501072554-1.809679571890229-2.493041092425301l2.399304682581715-2.339736690989412c.918549118800001-.895376924433549,1.543649122259012-2.049295187261123,1.7925068168297-3.307558780052204l.160373612268813-.811112080897146c.075505012180656-.381703235751957.011603475790253-.780903699414921-.204145886969854-1.104395226876477-2.642641917749643-3.963260826690203-7.227951641680193-5.230588967875519-9.616680332550459-5.336427154890771-.35874938886991-.016283876910165-.700560843499261.124621680312885-.972257829060254.35988459618693l-.582441410519095.503290520579867c-.891249399039225.770972246878046-1.549955939790379,1.774738550891016-1.902282094019029,2.899251761162304l-.919390123141056,2.934074760030853c-.527978174859527,1.684965422335154-3.00945145355945,1.328658892419298-3.041934324410249-.43678127532803l-.05667823272961-3.074225182695045c-.02168486248047-1.178216213503219-.371346774049016-2.326770804060288-1.00972296161126-3.317376923087068l-.417236287918058-.646830930553733c-.194582386740876-.302214426714272-.482937290591508-.533603484358537-.831712844261347-.618910770756884-2.322065503049089-.570569150023402-7.07871076264928-.644621386123617-10.72967944849006,2.414960737251931-.298113136159373.249707713056523-.471698132389065.614808272011942-.506706053669404,1.002326350927433l-.074330152428956.823466776336318c-.115234047159902,1.27745016978497.159989256499102,2.560642874583209.789496470879385,3.678300081021916l1.643967900268763,2.920296810605578c.880414982570073,1.563842852170637-1.147300759988866,3.130330264694749-2.437977088038679,1.883134140064612l-3.069134022951403-2.964511003708139c-.847439975059388-.818689202375026-1.906363473599413-1.384662697338172-3.057676087049913-1.634901640278258l-.752493683718058-.1634094122237Z" fill="url(#linear-gradient-2)" fill-rule="evenodd" stroke-width="0"/>
          <path d="M52.801144244709576,56.573138020736224l-16.001694494800176,18.34403709745493,7.400348467230287,3.224707279511676,1.873241322120521-2.77761677223134,6.728104705449368-18.791127604735266Z" fill="#d23e27" stroke-width="0"/>
          <path d="M57.467247646140095,54.196539065036632l10.681737756340226,13.230055494833323,5.947604264269103-5.141669518041454-16.629342020609329-8.088385976791869Z" fill="#d23e27" stroke-width="0"/>
          <polygon points="50.876436322439986 54.232796020380192 28.116924447169367 55.97788967665565 29.035576456000854 60.532787492028547 50.876436322439986 54.232796020380192" fill="#febb12" opacity=".5" stroke-width="0"/>
          <polygon points="66.934754272830105 34.127942221012745 54.62520601208962 53.436182121866295 55.687620670969409 41.949051762560885 60.086853420440093 31.370700345340992 66.934754272830105 34.127942221012745" fill="#febb12" opacity=".5" stroke-width="0"/>
          <path d="M57.068563444840038,52.861027182560974l-30.592887765500564,7.697361310147244,4.014269687490014,4.901251118151777,26.57861807801055-12.59861242829902Z" fill="url(#linear-gradient-3)" stroke-width="0"/>
          <polygon points="55.607266631599487 57.566124816306001 32.130131170019013 43.08826159142518 28.810748048439564 47.722835140984898 55.607266631599487 57.566124816306001" fill="url(#linear-gradient-4)" opacity=".600000023841858" stroke-width="0"/>
          <polygon points="54.65730475205055 58.019163986608874 69.477980375460902 36.262686635673163 65.352144167589358 33.507531802017184 54.65730475205055 58.019163986608874" fill="url(#linear-gradient-5)" opacity=".600000023841858" stroke-width="0"/>
          <polygon points="52.825630262119375 60.139697012503348 52.122407090939305 32.566614273724554 48.550085058519471 36.206172558622711 52.825630262119375 60.139697012503348" fill="url(#linear-gradient-6)" opacity=".300000011920929" stroke-width="0"/>
          <path d="M78.25835651351008,53.151418665622259l-.9174065965708-5.930497391828794-21.56719703814997,8.501401562509272,4.194559397330522,2.961294944027031,18.290044237390248-5.53219911470751Z" fill="url(#linear-gradient-7)" stroke-width="0"/>
          <path d="M54.995351823570672,58.362735533756677l15.321839105778054,18.221791633584871" fill="none" stroke="url(#radial-gradient)" stroke-linecap="round" stroke-width="11.208306473622001"/>
          <path d="M54.995351823570672,58.362735533756677l15.321839105778054,18.221791633584871" fill="none" stroke="url(#linear-gradient-8)" stroke-linecap="round" stroke-width="11.208306473622001"/>
          <path d="M187.792499509490881,137.78234179078845c-5.956977021811326,41.486972761773359-44.417884491351288,70.289887274382636-85.905233450790547,64.332856235600048-41.487343081349536-5.957030194766048-70.290043323151622-44.418103374218845-64.333066301340295-85.905076135994022,5.957029350749508-41.48733720326436,44.41791674490014-70.290070120633573,85.90525982626059-64.333039925866615,41.487348959439259,5.957031038782588,70.290069276619761,44.41792262299532,64.333039925870253,85.90525982626059Z" fill="url(#radial-gradient-2)" stroke-width="0"/>
          <path d="M187.792499509490881,137.78234179078845c-5.956977021811326,41.486972761773359-44.417884491351288,70.289887274382636-85.905233450790547,64.332856235600048-41.487343081349536-5.957030194766048-70.290043323151622-44.418103374218845-64.333066301340295-85.905076135994022,5.957029350749508-41.48733720326436,44.41791674490014-70.290070120633573,85.90525982626059-64.333039925866615,41.487348959439259,5.957031038782588,70.290069276619761,44.41792262299532,64.333039925870253,85.90525982626059Z" fill="url(#radial-gradient-3)" stroke-width="0"/>
          <path d="M187.792499509490881,137.78234179078845c-5.956977021811326,41.486972761773359-44.417884491351288,70.289887274382636-85.905233450790547,64.332856235600048-41.487343081349536-5.957030194766048-70.290043323151622-44.418103374218845-64.333066301340295-85.905076135994022,5.957029350749508-41.48733720326436,44.41791674490014-70.290070120633573,85.90525982626059-64.333039925866615,41.487348959439259,5.957031038782588,70.290069276619761,44.41792262299532,64.333039925870253,85.90525982626059Z" fill="url(#radial-gradient-4)" stroke-width="0"/>
          <ellipse cx="109.260382618645053" cy="100.798249466881998" rx="31.332502180840198" ry="41.746081009508124" transform="translate(-36.804339893755809 73.171900758885357) rotate(-31.982832423793141)" fill="url(#radial-gradient-5)" stroke-width="0"/>
          <path d="M41.357365947780636,31.536739577204571l9.158239897329622-1.830348065862381c-.228155894270458,1.588976646447918-.807962789600424,4.257904821614829-3.629253248909663,5.081385187104388-2.573480260431097.751483560262386-5.082541342120749-2.25339788554902-5.528986648419959-3.251037121242007Z" fill="#ffd35d" stroke-width="0"/>
          <path d="M27.477099156210897,45.830341658264842l4.96812613226939-7.908685409031023c.996916316180432,1.258493660449858,2.536218030938471,3.514555943354935,1.194256602278983,6.129410209492562-1.22405858555976,2.38517722827055-5.130849413879332,2.141263909312329-6.162382734548373,1.779275199538461Z" fill="url(#linear-gradient-9)" stroke-width="0"/>
          <path d="M42.808143605030637,42.311544074711492l7.313613580758101,8.962573153140511" fill="none" stroke="url(#linear-gradient-10)" stroke-linecap="round" stroke-width=".622683718753194"/>
          <path d="M56.940689698940332,40.06499623028958l-2.430092742150009,9.760226218049866" fill="none" stroke="url(#linear-gradient-11)" stroke-linecap="round" stroke-width=".622683718753194"/>
        </g>
      </g>
      <g id="AC">
        <g>
          <path d="M128.8115234375,118.1318359375c.0458984375,31.2978515625,1.1298828125,62.654296875,3.2509765625,94.0673828125-.0556640625,1.13037109375-.2998046875,2.220703125-.7333984375,3.2685546875-.44140625.86083984375-1.09375,1.68310546875-1.9580078125,2.4638671875-.8681640625.7841796875-2.095703125,1.29345703125-3.68359375,1.5380859375-2.1513671875.35546875-4.3740234375.595703125-6.671875.7236328125-2.30078125.1259765625-4.216796875-.2548828125-5.75-1.14013671875-5.8720703125,1.4228515625-11.89453125,1.96142578125-18.060546875,1.61083984375-6.169921875-.35107421875-11.798828125-2.08154296875-16.88671875-5.19677734375-4.4169921875-2.66748046875-7.87109375-6.048828125-10.361328125-10.1455078125-2.4921875-4.09521484375-4.099609375-8.4814453125-4.826171875-13.1572265625-.724609375-4.67333984375-.6328125-9.47021484375.279296875-14.39013671875.9091796875-4.91748046875,2.5615234375-9.486328125,4.9541015625-13.7060546875,1.9501953125-3.3564453125,4.3857421875-6.306640625,7.3076171875-8.85302734375,2.91796875-2.54345703125,6.11328125-4.6279296875,9.58203125-6.25244140625,3.46875-1.6220703125,7.1669921875-2.71533203125,11.095703125-3.27392578125,3.927734375-.55908203125,7.830078125-.48193359375,11.7099609375.22998046875.0537109375-3.8544921875.142578125-7.40673828125.2666015625-10.654296875.12109375-3.24658203125.234375-6.09228515625.3388671875-8.54150390625.08984375-2.82275390625.1875-5.41015625.2958984375-7.7646484375-.1240234375-.84130859375-.009765625-1.5966796875.34375-2.26708984375.2626953125-.5732421875.712890625-1.12890625,1.3525390625-1.66796875.6376953125-.53857421875,1.6142578125-.83154296875,2.9306640625-.876953125,1.21875-.04248046875,2.6982421875-.06884765625,4.4384765625-.08251953125,1.7373046875-.01220703125,3.38671875.09375,4.9462890625.322265625,1.55859375.22802734375,2.9111328125.6279296875,4.05859375,1.19873046875,1.1484375.5732421875,1.7412109375,1.419921875,1.7802734375,2.546875ZM107.935546875,166.78955078125c-3.615234375-1.1904296875-6.8203125-1.5029296875-9.6201171875-.9365234375-2.7998046875.56787109375-5.1591796875,1.658203125-7.0771484375,3.27587890625-1.91796875,1.61669921875-3.376953125,3.61962890625-4.375,6.001953125-1,2.38525390625-1.525390625,4.82421875-1.580078125,7.3154296875-.0546875,2.49365234375.380859375,4.8994140625,1.306640625,7.21630859375.9267578125,2.318359375,2.33203125,4.24365234375,4.21875,5.77587890625,1.884765625,1.53369140625,4.2666015625,2.48486328125,7.146484375,2.85400390625,2.8798828125.3720703125,6.3154296875-.169921875,10.3076171875-1.625-.1591796875-4.5986328125-.2509765625-9.29638671875-.2763671875-14.0888671875-.0234375-4.79296875-.04296875-10.0556640625-.05078125-15.7890625Z" fill="none" stroke="#181818" stroke-linecap="round" stroke-linejoin="round" stroke-width="37.195880889892578"/>
          <path d="M213.76953125,202.18505859375c.58984375.73291015625.9462890625,1.56689453125,1.0732421875,2.5009765625.1181640625.74951171875.033203125,1.66845703125-.2568359375,2.75830078125-.29296875,1.091796875-.98046875,2.21923828125-2.068359375,3.384765625s-2.2705078125,2.31201171875-3.546875,3.43603515625c-1.279296875,1.12548828125-2.6083984375,2.04150390625-3.994140625,2.74560546875-1.3857421875.705078125-2.783203125,1.03466796875-4.1953125.9912109375-1.412109375-.0458984375-2.8427734375-.6552734375-4.29296875-1.8251953125-.771484375-.5380859375-2.1083984375-1.8525390625-4.013671875-3.9501953125-1.9052734375-2.09521484375-4.1357421875-4.7431640625-6.689453125-7.94580078125-1.27734375-1.55322265625-2.626953125-3.22265625-4.0498046875-5.00634765625-1.42578125-1.7841796875-2.921875-3.58642578125-4.4873046875-5.4140625-2.7099609375,3.1953125-5.26171875,6.22265625-7.65234375,9.076171875-2.392578125,2.8564453125-4.4921875,5.35009765625-6.296875,7.478515625-2.169921875,2.5205078125-4.158203125,4.8447265625-5.9638671875,6.9736328125-.4541015625.48681640625-1.0048828125.880859375-1.6513671875,1.185546875-.556640625.2060546875-1.2109375.298828125-1.962890625.27880859375-.75390625-.02294921875-1.6591796875-.39013671875-2.716796875-1.10400390625-1.0576171875-.6201171875-2.283203125-1.423828125-3.6796875-2.4111328125-1.396484375-.98486328125-2.6767578125-1.99853515625-3.83984375-3.03955078125-1.1650390625-1.0390625-2.0234375-2.06689453125-2.57421875-3.0830078125-.552734375-1.01416015625-.560546875-1.95458984375-.02734375-2.8193359375l22.9375-29.8359375c-2.55859375-3.29541015625-4.923828125-6.43212890625-7.09375-9.41259765625-2.171875-2.978515625-4.0947265625-5.61474609375-5.771484375-7.9072265625-1.87890625-2.66064453125-3.609375-5.13818359375-5.19140625-7.43408203125-.490234375-.546875-.79296875-1.14697265625-.908203125-1.80126953125-.1142578125-.560546875-.041015625-1.1728515625.21875-1.8408203125.2578125-.66552734375.8896484375-1.39208984375,1.8984375-2.1806640625,1.005859375-.78564453125,2.1962890625-1.69677734375,3.5703125-2.7314453125,1.375-1.0341796875,2.728515625-1.94921875,4.064453125-2.7490234375,1.333984375-.796875,2.583984375-1.33349609375,3.751953125-1.60986328125,1.1640625-.2734375,2.087890625-.0478515625,2.7724609375.67919921875,2.654296875,3.38720703125,5.306640625,6.70361328125,7.95703125,9.947265625,2.6494140625,3.24609375,5.30078125,6.513671875,7.9521484375,9.8056640625l14.716796875-18.8369140625c.63671875-.5859375,1.41796875-1.08203125,2.345703125-1.49072265625.740234375-.3076171875,1.67578125-.45654296875,2.802734375-.44970703125,1.12890625.00927734375,2.36328125.41162109375,3.708984375,1.21142578125,1.4375.7958984375,2.876953125,1.6865234375,4.3212890625,2.67041015625,1.4443359375.9853515625,2.6552734375,2.046875,3.6357421875,3.1875.9775390625,1.14208984375,1.609375,2.412109375,1.8935546875,3.8115234375.2822265625,1.39990234375-.0185546875,2.91552734375-.900390625,4.54345703125-.3564453125.57568359375-1.0517578125,1.5869140625-2.0810546875,3.0322265625-1.03125,1.4453125-2.357421875,3.1611328125-3.98046875,5.142578125-1.6240234375,1.9833984375-3.4501953125,4.2080078125-5.48046875,6.6748046875-2.029296875,2.466796875-4.1728515625,5.056640625-6.427734375,7.76513671875,3.71875,4.29052734375,7.416015625,8.5556640625,11.0869140625,12.79931640625s7.365234375,8.51123046875,11.0869140625,12.798828125Z" fill="none" stroke="#181818" stroke-linecap="round" stroke-linejoin="round" stroke-width="37.195880889892578"/>
        </g>
        <g>
          <path d="M128.8115234375,118.1318359375c.0458984375,31.2978515625,1.1298828125,62.654296875,3.2509765625,94.0673828125-.0556640625,1.13037109375-.2998046875,2.220703125-.7333984375,3.2685546875-.44140625.86083984375-1.09375,1.68310546875-1.9580078125,2.4638671875-.8681640625.7841796875-2.095703125,1.29345703125-3.68359375,1.5380859375-2.1513671875.35546875-4.3740234375.595703125-6.671875.7236328125-2.30078125.1259765625-4.216796875-.2548828125-5.75-1.14013671875-5.8720703125,1.4228515625-11.89453125,1.96142578125-18.060546875,1.61083984375-6.169921875-.35107421875-11.798828125-2.08154296875-16.88671875-5.19677734375-4.4169921875-2.66748046875-7.87109375-6.048828125-10.361328125-10.1455078125-2.4921875-4.09521484375-4.099609375-8.4814453125-4.826171875-13.1572265625-.724609375-4.67333984375-.6328125-9.47021484375.279296875-14.39013671875.9091796875-4.91748046875,2.5615234375-9.486328125,4.9541015625-13.7060546875,1.9501953125-3.3564453125,4.3857421875-6.306640625,7.3076171875-8.85302734375,2.91796875-2.54345703125,6.11328125-4.6279296875,9.58203125-6.25244140625,3.46875-1.6220703125,7.1669921875-2.71533203125,11.095703125-3.27392578125,3.927734375-.55908203125,7.830078125-.48193359375,11.7099609375.22998046875.0537109375-3.8544921875.142578125-7.40673828125.2666015625-10.654296875.12109375-3.24658203125.234375-6.09228515625.3388671875-8.54150390625.08984375-2.82275390625.1875-5.41015625.2958984375-7.7646484375-.1240234375-.84130859375-.009765625-1.5966796875.34375-2.26708984375.2626953125-.5732421875.712890625-1.12890625,1.3525390625-1.66796875.6376953125-.53857421875,1.6142578125-.83154296875,2.9306640625-.876953125,1.21875-.04248046875,2.6982421875-.06884765625,4.4384765625-.08251953125,1.7373046875-.01220703125,3.38671875.09375,4.9462890625.322265625,1.55859375.22802734375,2.9111328125.6279296875,4.05859375,1.19873046875,1.1484375.5732421875,1.7412109375,1.419921875,1.7802734375,2.546875ZM107.935546875,166.78955078125c-3.615234375-1.1904296875-6.8203125-1.5029296875-9.6201171875-.9365234375-2.7998046875.56787109375-5.1591796875,1.658203125-7.0771484375,3.27587890625-1.91796875,1.61669921875-3.376953125,3.61962890625-4.375,6.001953125-1,2.38525390625-1.525390625,4.82421875-1.580078125,7.3154296875-.0546875,2.49365234375.380859375,4.8994140625,1.306640625,7.21630859375.9267578125,2.318359375,2.33203125,4.24365234375,4.21875,5.77587890625,1.884765625,1.53369140625,4.2666015625,2.48486328125,7.146484375,2.85400390625,2.8798828125.3720703125,6.3154296875-.169921875,10.3076171875-1.625-.1591796875-4.5986328125-.2509765625-9.29638671875-.2763671875-14.0888671875-.0234375-4.79296875-.04296875-10.0556640625-.05078125-15.7890625Z" fill="#fff" stroke-width="0"/>
          <path d="M213.76953125,202.18505859375c.58984375.73291015625.9462890625,1.56689453125,1.0732421875,2.5009765625.1181640625.74951171875.033203125,1.66845703125-.2568359375,2.75830078125-.29296875,1.091796875-.98046875,2.21923828125-2.068359375,3.384765625s-2.2705078125,2.31201171875-3.546875,3.43603515625c-1.279296875,1.12548828125-2.6083984375,2.04150390625-3.994140625,2.74560546875-1.3857421875.705078125-2.783203125,1.03466796875-4.1953125.9912109375-1.412109375-.0458984375-2.8427734375-.6552734375-4.29296875-1.8251953125-.771484375-.5380859375-2.1083984375-1.8525390625-4.013671875-3.9501953125-1.9052734375-2.09521484375-4.1357421875-4.7431640625-6.689453125-7.94580078125-1.27734375-1.55322265625-2.626953125-3.22265625-4.0498046875-5.00634765625-1.42578125-1.7841796875-2.921875-3.58642578125-4.4873046875-5.4140625-2.7099609375,3.1953125-5.26171875,6.22265625-7.65234375,9.076171875-2.392578125,2.8564453125-4.4921875,5.35009765625-6.296875,7.478515625-2.169921875,2.5205078125-4.158203125,4.8447265625-5.9638671875,6.9736328125-.4541015625.48681640625-1.0048828125.880859375-1.6513671875,1.185546875-.556640625.2060546875-1.2109375.298828125-1.962890625.27880859375-.75390625-.02294921875-1.6591796875-.39013671875-2.716796875-1.10400390625-1.0576171875-.6201171875-2.283203125-1.423828125-3.6796875-2.4111328125-1.396484375-.98486328125-2.6767578125-1.99853515625-3.83984375-3.03955078125-1.1650390625-1.0390625-2.0234375-2.06689453125-2.57421875-3.0830078125-.552734375-1.01416015625-.560546875-1.95458984375-.02734375-2.8193359375l22.9375-29.8359375c-2.55859375-3.29541015625-4.923828125-6.43212890625-7.09375-9.41259765625-2.171875-2.978515625-4.0947265625-5.61474609375-5.771484375-7.9072265625-1.87890625-2.66064453125-3.609375-5.13818359375-5.19140625-7.43408203125-.490234375-.546875-.79296875-1.14697265625-.908203125-1.80126953125-.1142578125-.560546875-.041015625-1.1728515625.21875-1.8408203125.2578125-.66552734375.8896484375-1.39208984375,1.8984375-2.1806640625,1.005859375-.78564453125,2.1962890625-1.69677734375,3.5703125-2.7314453125,1.375-1.0341796875,2.728515625-1.94921875,4.064453125-2.7490234375,1.333984375-.796875,2.583984375-1.33349609375,3.751953125-1.60986328125,1.1640625-.2734375,2.087890625-.0478515625,2.7724609375.67919921875,2.654296875,3.38720703125,5.306640625,6.70361328125,7.95703125,9.947265625,2.6494140625,3.24609375,5.30078125,6.513671875,7.9521484375,9.8056640625l14.716796875-18.8369140625c.63671875-.5859375,1.41796875-1.08203125,2.345703125-1.49072265625.740234375-.3076171875,1.67578125-.45654296875,2.802734375-.44970703125,1.12890625.00927734375,2.36328125.41162109375,3.708984375,1.21142578125,1.4375.7958984375,2.876953125,1.6865234375,4.3212890625,2.67041015625,1.4443359375.9853515625,2.6552734375,2.046875,3.6357421875,3.1875.9775390625,1.14208984375,1.609375,2.412109375,1.8935546875,3.8115234375.2822265625,1.39990234375-.0185546875,2.91552734375-.900390625,4.54345703125-.3564453125.57568359375-1.0517578125,1.5869140625-2.0810546875,3.0322265625-1.03125,1.4453125-2.357421875,3.1611328125-3.98046875,5.142578125-1.6240234375,1.9833984375-3.4501953125,4.2080078125-5.48046875,6.6748046875-2.029296875,2.466796875-4.1728515625,5.056640625-6.427734375,7.76513671875,3.71875,4.29052734375,7.416015625,8.5556640625,11.0869140625,12.79931640625s7.365234375,8.51123046875,11.0869140625,12.798828125Z" fill="#fff" stroke-width="0"/>
        </g>
      </g>
    </g>
  </a>
</svg>