<?xml version="1.0" encoding="UTF-8"?>
<svg id="Layer_1" data-name="Layer 1" xmlns="http://www.w3.org/2000/svg" width="600" height="600" xmlns:xlink="http://www.w3.org/1999/xlink" viewBox="0 0 600 600">
  <defs>
    <style>
      .cls-1 {
        fill: #b9638b;
      }

      .cls-1, .cls-2, .cls-3, .cls-4, .cls-5, .cls-6, .cls-7, .cls-8, .cls-9 {
        stroke: #181818;
        stroke-linecap: round;
        stroke-linejoin: round;
      }

      .cls-1, .cls-3, .cls-4, .cls-5, .cls-6, .cls-7, .cls-8, .cls-9 {
        stroke-width: 2px;
      }

      .cls-2 {
        fill: none;
        stroke-width: 15px;
      }

      .cls-3 {
        fill: #72729b;
      }

      .cls-4 {
        fill: #aa6490;
      }

      .cls-5 {
        fill: #866c99;
      }

      .cls-6 {
        fill: #5e779a;
      }

      .cls-7 {
        fill: #c46681;
      }

      .cls-8 {
        fill: #8f807d;
      }

      .cls-9 {
        fill: #cc6a7a;
      }
    </style>
  </defs>
  <g id="pie_with_links_-5" data-name="pie (with links)">
    <g id="pie_with_links_-6" data-name="pie (with links)">
      <g id="Pie">
        <g>
          <a xlink:href="https://www.notion.so/dmmnotes/paranoid-ae38b1e6af0c4dd08f61e0d8f6e9f05f?pvs=4">
            <path id="C8" class="cls-2" d="M331.308105468760914,517.74951171875l7.825683593739086,54.4306640625c26.439208984371362-3.767822265628638,51.645751953139552-11.3115234375,75.101318359371362-22.04296875l-22.832519531239086-49.996826171878638c-18.7666015625,8.572265625-38.93505859375,14.601318359378638-60.094482421871362,17.609130859378638Z"/>
          </a>
          <a xlink:href="https://www.notion.so/dmmnotes/menacing-a5bd7149286344deba45ec15e759e579?pvs=4">
            <path id="C7" class="cls-2" d="M391.402587890632276,500.140380859371362l22.832519531239086,49.996826171878638c23.989990234389552-10.975830078117724,46.11621093751819-25.287109375010914,65.803955078139552-42.36181640625l-35.972900390628638-41.515869140617724c-15.753417968760914,13.65869140625-33.459228515632276,25.104492187489086-52.66357421875,33.880859374989086Z"/>
          </a>
          <a xlink:href="https://www.notion.so/dmmnotes/seductively-obsessed-with-rescue-6fb5a68f6d334bc29ccccc16d8a4e56e?pvs=4">
            <path id="C6" class="cls-2" d="M444.066162109382276,466.259521484382276l35.972900390628638,41.515869140617724c19.762939453121362-17.141845703128638,37.047119140621362-37.041748046878638,51.26708984375-59.125l-46.223632812510914-29.704833984367724c-11.373291015617724,17.673583984367724-25.201171874989086,33.598876953117724-41.016357421867724,47.31396484375Z"/>
          </a>
          <a xlink:href="https://www.notion.so/dmmnotes/punitively-obsessed-with-revenge-33d2e77f37774316b42bccf4a60f9688?pvs=4">
            <path id="C5" class="cls-2" d="M485.08251953125,418.945556640632276l46.223632812510914,29.704833984367724c14.048095703128638-21.809326171878638,25.08837890625-45.71875,32.551513671871362-71.175048828128638l-52.7548828125-15.490234375c-5.9619140625,20.377929687510914-14.789306640621362,39.509765625-26.020263671882276,56.960449218760914Z"/>
          </a>
          <a xlink:href="https://www.notion.so/dmmnotes/feigned-helpless-e79a94b0498c4e109a681b7f3dcdb088?pvs=4">
            <path id="C4" class="cls-2" d="M520,300c0,21.5380859375-3.142089843739086,42.321533203121362-8.897216796867724,61.985107421871362l52.7548828125,15.490234375c7.2080078125-24.583496093739086,11.142333984367724-50.5634765625,11.142333984367724-77.475341796871362h-55Z"/>
          </a>
          <a xlink:href="https://www.notion.so/dmmnotes/aggressive-2d8ccce383534b9dbfc7b4b10b8a5d5c?pvs=4">
            <path id="C3" class="cls-2" d="M520,300h55c0-26.911865234389552-3.934326171867724-52.894531250010914-11.142333984367724-77.475341796889552l-52.7548828125,15.490234375c5.755126953128638,19.663574218760914,8.897216796867724,40.449707031260914,8.897216796867724,61.985107421889552Z"/>
          </a>
          <a xlink:href="https://www.notion.so/dmmnotes/disarming-086276e599884c86b9359acf831a8b20?pvs=4">
            <path id="C2" class="cls-2" d="M511.102783203132276,238.014892578110448l52.7548828125-15.490234375c-7.463134765621362-25.456298828121362-18.503417968742724-49.365722656239086-32.551513671871362-71.177734374989086l-46.223632812510914,29.70751953125c11.230957031260914,17.45068359375,20.055664062510914,36.585205078117724,26.020263671882276,56.960449218739086Z"/>
          </a>
          <a xlink:href="https://www.notion.so/dmmnotes/threatening-348fe6a52f7a4fe69f768e98c6586932?pvs=4">
            <path id="C1" class="cls-2" d="M485.08251953125,181.054443359371362l46.223632812510914-29.70751953125c-14.219970703128638-22.08056640625-31.504150390628638-41.980468750010914-51.26708984375-59.122314453121362l-35.972900390628638,41.518554687489086c15.815185546878638,13.71240234375,29.64306640625,29.637695312510914,41.016357421867724,47.311279296882276Z"/>
          </a>
          <a xlink:href="https://www.notion.so/dmmnotes/complaining-acceptance-8b40401a720c493ba73f7cde1567cf3d?pvs=4">
            <path id="B5" class="cls-2" d="M444.066162109382276,133.743164062489086l35.972900390628638-41.518554687489086c-19.687744140621362-17.07470703125-41.81396484375-31.388671875-65.803955078139552-42.36181640625l-22.832519531239086,49.99951171875c19.204345703117724,8.773681640621362,36.910156249989086,20.22216796875,52.66357421875,33.880859374989086Z"/>
          </a>
          <a xlink:href="https://www.notion.so/dmmnotes/sentimental-bc554363322342b1b7ca4ccc02125049?pvs=4">
            <path id="B4" class="cls-2" d="M391.402587890632276,99.8623046875l22.832519531239086-49.99951171875c-23.45556640623181-10.7314453125-48.662109375-18.275146484389552-75.101318359371362-22.042968749989086l-7.825683593739086,54.433349609360448c21.159423828121362,3.0078125,41.327880859371362,9.034179687489086,60.094482421871362,17.609130859378638Z"/>
          </a>
          <a xlink:href="https://www.notion.so/dmmnotes/comfortably-balanced-e76dc615a8b947aa915377cd02fcf716?pvs=4">
            <path id="B3" class="cls-2" d="M300,80c10.634765625,0,21.078857421871362.797607421871362,31.308105468760914,2.253173828121362l7.825683593739086-54.433349609360448c-12.788574218739086-1.823486328139552-25.843017578128638-2.819824218760914-39.1337890625-2.819824218760914-13.290771484367724,0-26.34521484375.996337890621362-39.133789062489086,2.819824218760914l7.825683593739086,54.433349609360448c10.23193359375-1.45556640625,20.67333984375-2.253173828121362,31.30810546875-2.253173828121362Z"/>
          </a>
          <a xlink:href="https://www.notion.so/dmmnotes/accepting-317d81273fff4cd9817cdf4a88efd378?pvs=4">
            <path id="B2" class="cls-2" d="M268.69189453125,82.253173828121362l-7.825683593739086-54.433349609360448c-26.439208984389552,3.767822265599534-51.643066406260914,11.311523437489086-75.098632812510914,22.042968749989086l22.83251953125,49.99951171875c18.7666015625-8.574951171889552,38.93505859375-14.601318359378638,60.091796875-17.609130859378638Z"/>
          </a>
          <a xlink:href="https://www.notion.so/dmmnotes/distanced-from-past-2eabab7e9c77429f8e577f4e3e203653?pvs=4">
            <path id="B1" class="cls-2" d="M208.60009765625,99.8623046875l-22.83251953125-49.99951171875c-23.99267578125,10.97314453125-46.1162109375,25.287109375-65.803955078117724,42.36181640625l35.972900390617724,41.515869140621362c15.75341796875-13.658691406260914,33.4619140625-25.1044921875,52.66357421875-33.878173828121362Z"/>
          </a>
          <a xlink:href="https://www.notion.so/dmmnotes/idealising-a52277f51ed14a42aae78081bb34b8be?pvs=4">
            <path id="A1" class="cls-2" d="M155.9365234375,133.740478515621362l-35.972900390617724-41.515869140621362c-19.765625,17.141845703110448-37.049804687510914,37.041748046871362-51.269775390632276,59.122314453121362l46.226318359371362,29.70751953125c11.373291015639552-17.673583984371362,25.201171875010914-33.598876953132276,41.016357421878638-47.31396484375Z"/>
          </a>
          <a xlink:href="https://www.notion.so/dmmnotes/distancing-9ac690cdca654729a17a5a255944e2d1?pvs=4">
            <path id="A2" class="cls-2" d="M114.920166015621362,181.054443359371362l-46.226318359371362-29.70751953125c-14.04541015625,21.81201171875-25.08837890625,45.721435546867724-32.551513671878638,71.177734374989086l52.754882812510914,15.490234375c5.964599609367724-20.375244140621362,14.7919921875-39.509765624989086,26.022949218739086-56.960449218739086Z"/>
          </a>
          <a xlink:href="https://www.notion.so/dmmnotes/compulsive-caregiving-9c380c0928294f41ae10764aa0dee886?pvs=4">
            <path id="A3" class="cls-2" d="M88.897216796882276,238.014892578110448l-52.754882812510914-15.490234375c-7.205322265621362,24.580810546878638-11.142333984371362,50.5634765625-11.142333984371362,77.475341796889552h55c0-21.535400390628638,3.14208984375-42.321533203128638,8.897216796882276-61.985107421889552Z"/>
          </a>
          <a xlink:href="https://www.notion.so/dmmnotes/compulsive-compliance-6d08b7ea9a424ce1a72b9184b7850414?pvs=4">
            <path id="A4" class="cls-2" d="M80,300H25c0,26.911865234371362,3.93701171875,52.894531249989086,11.142333984371362,77.475341796871362l52.754882812510914-15.490234375c-5.755126953132276-19.66357421875-8.897216796882276-40.447021484371362-8.897216796882276-61.985107421871362Z"/>
          </a>
          <a xlink:href="https://www.notion.so/dmmnotes/sexual-supplementation-8e85f49046ef412aa229745abf7d38d3?pvs=4">
            <path id="A5" class="cls-2" d="M88.897216796882276,361.985107421871362l-52.754882812510914,15.490234375c7.463134765628638,25.456298828128638,18.506103515628638,49.36572265625,32.551513671878638,71.175048828128638l46.223632812510914-29.704833984367724c-11.230957031260914-17.450683593760914-20.055664062510914-36.58251953125-26.020263671878638-56.960449218760914Z"/>
          </a>
          <a xlink:href="https://www.notion.so/dmmnotes/compulsive-isolated-self-reliance-b321873a73fa41aaaadd7192fde856a2?pvs=4">
            <path id="A6" class="cls-2" d="M114.917480468760914,418.945556640632276l-46.223632812510914,29.704833984367724c14.219970703121362,22.083251953121362,31.504150390632276,41.983154296871362,51.269775390632276,59.125l35.972900390617724-41.515869140617724c-15.815185546867724-13.712402343760914-29.643066406239086-29.637695312510914-41.019042968739086-47.31396484375Z"/>
          </a>
          <a xlink:href="https://www.notion.so/dmmnotes/delusional-idealization-743e2420b9994a48a7cab68190432e8a?pvs=4">
            <path id="A7" class="cls-2" d="M155.9365234375,466.259521484382276l-35.972900390617724,41.515869140617724c19.687744140617724,17.074707031239086,41.811279296867724,31.385986328132276,65.803955078117724,42.36181640625l22.83251953125-49.996826171878638c-19.20166015625-8.773681640621362-36.91015625-20.222167968739086-52.66357421875-33.880859374989086Z"/>
          </a>
          <a xlink:href="https://www.notion.so/dmmnotes/externally-assembled-self-994ecb0895b844409b931d74a045c162?pvs=4">
            <path id="A8" class="cls-2" d="M208.60009765625,500.140380859371362l-22.83251953125,49.996826171878638c23.45556640625,10.7314453125,48.659423828121362,18.275146484371362,75.098632812510914,22.04296875l7.825683593739086-54.4306640625c-21.15673828125-3.0078125-41.3251953125-9.0341796875-60.091796875-17.609130859378638Z"/>
          </a>
          <a xlink:href="https://www.notion.so/dmmnotes/psychopathy-0fe4a3222d9f4fd097ab4546c9776768?pvs=4">
            <path id="AC" class="cls-2" d="M300,520c-10.634765625,0-21.076171875-.794921875-31.30810546875-2.25048828125l-7.825683593739086,54.4306640625c12.788574218739086,1.823486328132276,25.843017578121362,2.81982421875,39.133789062489086,2.81982421875,13.290771484371362,0,26.345214843760914-.996337890617724,39.1337890625-2.81982421875l-7.825683593739086-54.4306640625c-10.229248046889552,1.45556640625-20.673339843760914,2.25048828125-31.308105468760914,2.25048828125Z"/>
          </a>
        </g>
        <g>
          <a xlink:href="https://www.notion.so/dmmnotes/paranoid-ae38b1e6af0c4dd08f61e0d8f6e9f05f?pvs=4">
            <path id="C8-2" data-name="C8" class="cls-8" d="M331.308105468760914,517.74951171875l7.825683593739086,54.4306640625c26.439208984371362-3.767822265628638,51.645751953139552-11.3115234375,75.101318359371362-22.04296875l-22.832519531239086-49.996826171878638c-18.7666015625,8.572265625-38.93505859375,14.601318359378638-60.094482421871362,17.609130859378638Z"/>
          </a>
          <a xlink:href="https://www.notion.so/dmmnotes/menacing-a5bd7149286344deba45ec15e759e579?pvs=4">
            <path id="C7-2" data-name="C7" class="cls-8" d="M391.402587890632276,500.140380859371362l22.832519531239086,49.996826171878638c23.989990234389552-10.975830078117724,46.11621093751819-25.287109375010914,65.803955078139552-42.36181640625l-35.972900390628638-41.515869140617724c-15.753417968760914,13.65869140625-33.459228515632276,25.104492187489086-52.66357421875,33.880859374989086Z"/>
          </a>
          <a xlink:href="https://www.notion.so/dmmnotes/seductively-obsessed-with-rescue-6fb5a68f6d334bc29ccccc16d8a4e56e?pvs=4">
            <path id="C6-2" data-name="C6" class="cls-8" d="M444.066162109382276,466.259521484382276l35.972900390628638,41.515869140617724c19.762939453121362-17.141845703128638,37.047119140621362-37.041748046878638,51.26708984375-59.125l-46.223632812510914-29.704833984367724c-11.373291015617724,17.673583984367724-25.201171874989086,33.598876953117724-41.016357421867724,47.31396484375Z"/>
          </a>
          <a xlink:href="https://www.notion.so/dmmnotes/punitively-obsessed-with-revenge-33d2e77f37774316b42bccf4a60f9688?pvs=4">
            <path id="C5-2" data-name="C5" class="cls-8" d="M485.08251953125,418.945556640632276l46.223632812510914,29.704833984367724c14.048095703128638-21.809326171878638,25.08837890625-45.71875,32.551513671871362-71.175048828128638l-52.7548828125-15.490234375c-5.9619140625,20.377929687510914-14.789306640621362,39.509765625-26.020263671882276,56.960449218760914Z"/>
          </a>
          <a xlink:href="https://www.notion.so/dmmnotes/feigned-helpless-e79a94b0498c4e109a681b7f3dcdb088?pvs=4">
            <path id="C4-2" data-name="C4" class="cls-8" d="M520,300c0,21.5380859375-3.142089843739086,42.321533203121362-8.897216796867724,61.985107421871362l52.7548828125,15.490234375c7.2080078125-24.583496093739086,11.142333984367724-50.5634765625,11.142333984367724-77.475341796871362h-55Z"/>
          </a>
          <a xlink:href="https://www.notion.so/dmmnotes/aggressive-2d8ccce383534b9dbfc7b4b10b8a5d5c?pvs=4">
            <path id="C3-2" data-name="C3" class="cls-8" d="M520,300h55c0-26.911865234389552-3.934326171867724-52.894531250010914-11.142333984367724-77.475341796889552l-52.7548828125,15.490234375c5.755126953128638,19.663574218760914,8.897216796867724,40.449707031260914,8.897216796867724,61.985107421889552Z"/>
          </a>
          <a xlink:href="https://www.notion.so/dmmnotes/disarming-086276e599884c86b9359acf831a8b20?pvs=4">
            <path id="C2-2" data-name="C2" class="cls-8" d="M511.102783203132276,238.014892578110448l52.7548828125-15.490234375c-7.463134765621362-25.456298828121362-18.503417968742724-49.365722656239086-32.551513671871362-71.177734374989086l-46.223632812510914,29.70751953125c11.230957031260914,17.45068359375,20.055664062510914,36.585205078117724,26.020263671882276,56.960449218739086Z"/>
          </a>
          <a xlink:href="https://www.notion.so/dmmnotes/threatening-348fe6a52f7a4fe69f768e98c6586932?pvs=4">
            <path id="C1-2" data-name="C1" class="cls-8" d="M485.08251953125,181.054443359371362l46.223632812510914-29.70751953125c-14.219970703128638-22.08056640625-31.504150390628638-41.980468750010914-51.26708984375-59.122314453121362l-35.972900390628638,41.518554687489086c15.815185546878638,13.71240234375,29.64306640625,29.637695312510914,41.016357421867724,47.311279296882276Z"/>
          </a>
          <a xlink:href="https://www.notion.so/dmmnotes/complaining-acceptance-8b40401a720c493ba73f7cde1567cf3d?pvs=4">
            <path id="B5-2" data-name="B5" class="cls-8" d="M444.066162109382276,133.743164062489086l35.972900390628638-41.518554687489086c-19.687744140621362-17.07470703125-41.81396484375-31.388671875-65.803955078139552-42.36181640625l-22.832519531239086,49.99951171875c19.204345703117724,8.773681640621362,36.910156249989086,20.22216796875,52.66357421875,33.880859374989086Z"/>
          </a>
          <a xlink:href="https://www.notion.so/dmmnotes/sentimental-bc554363322342b1b7ca4ccc02125049?pvs=4">
            <path id="B4-2" data-name="B4" class="cls-8" d="M391.402587890632276,99.8623046875l22.832519531239086-49.99951171875c-23.45556640623181-10.7314453125-48.662109375-18.275146484389552-75.101318359371362-22.042968749989086l-7.825683593739086,54.433349609360448c21.159423828121362,3.0078125,41.327880859371362,9.034179687489086,60.094482421871362,17.609130859378638Z"/>
          </a>
          <a xlink:href="https://www.notion.so/dmmnotes/comfortably-balanced-e76dc615a8b947aa915377cd02fcf716?pvs=4">
            <path id="B3-2" data-name="B3" class="cls-8" d="M300,80c10.634765625,0,21.078857421871362.797607421871362,31.308105468760914,2.253173828121362l7.825683593739086-54.433349609360448c-12.788574218739086-1.823486328139552-25.843017578128638-2.819824218760914-39.1337890625-2.819824218760914-13.290771484367724,0-26.34521484375.996337890621362-39.133789062489086,2.819824218760914l7.825683593739086,54.433349609360448c10.23193359375-1.45556640625,20.67333984375-2.253173828121362,31.30810546875-2.253173828121362Z"/>
          </a>
          <a xlink:href="https://www.notion.so/dmmnotes/accepting-317d81273fff4cd9817cdf4a88efd378?pvs=4">
            <path id="B2-2" data-name="B2" class="cls-8" d="M268.69189453125,82.253173828121362l-7.825683593739086-54.433349609360448c-26.439208984389552,3.767822265599534-51.643066406260914,11.311523437489086-75.098632812510914,22.042968749989086l22.83251953125,49.99951171875c18.7666015625-8.574951171889552,38.93505859375-14.601318359378638,60.091796875-17.609130859378638Z"/>
          </a>
          <a xlink:href="https://www.notion.so/dmmnotes/distanced-from-past-2eabab7e9c77429f8e577f4e3e203653?pvs=4">
            <path id="B1-2" data-name="B1" class="cls-8" d="M208.60009765625,99.8623046875l-22.83251953125-49.99951171875c-23.99267578125,10.97314453125-46.1162109375,25.287109375-65.803955078117724,42.36181640625l35.972900390617724,41.515869140621362c15.75341796875-13.658691406260914,33.4619140625-25.1044921875,52.66357421875-33.878173828121362Z"/>
          </a>
          <a xlink:href="https://www.notion.so/dmmnotes/idealising-a52277f51ed14a42aae78081bb34b8be?pvs=4">
            <path id="A1-2" data-name="A1" class="cls-6" d="M155.9365234375,133.740478515621362l-35.972900390617724-41.515869140621362c-19.765625,17.141845703110448-37.049804687510914,37.041748046871362-51.269775390632276,59.122314453121362l46.226318359371362,29.70751953125c11.373291015639552-17.673583984371362,25.201171875010914-33.598876953132276,41.016357421878638-47.31396484375Z"/>
          </a>
          <a xlink:href="https://www.notion.so/dmmnotes/distancing-9ac690cdca654729a17a5a255944e2d1?pvs=4">
            <path id="A2-2" data-name="A2" class="cls-3" d="M114.920166015621362,181.054443359371362l-46.226318359371362-29.70751953125c-14.04541015625,21.81201171875-25.08837890625,45.721435546867724-32.551513671878638,71.177734374989086l52.754882812510914,15.490234375c5.964599609367724-20.375244140621362,14.7919921875-39.509765624989086,26.022949218739086-56.960449218739086Z"/>
          </a>
          <a xlink:href="https://www.notion.so/dmmnotes/compulsive-caregiving-9c380c0928294f41ae10764aa0dee886?pvs=4">
            <path id="A3-2" data-name="A3" class="cls-5" d="M88.897216796882276,238.014892578110448l-52.754882812510914-15.490234375c-7.205322265621362,24.580810546878638-11.142333984371362,50.5634765625-11.142333984371362,77.475341796889552h55c0-21.535400390628638,3.14208984375-42.321533203128638,8.897216796882276-61.985107421889552Z"/>
          </a>
          <a xlink:href="https://www.notion.so/dmmnotes/compulsive-compliance-6d08b7ea9a424ce1a72b9184b7850414?pvs=4">
            <path id="A4-2" data-name="A4" class="cls-4" d="M80,300H25c0,26.911865234371362,3.93701171875,52.894531249989086,11.142333984371362,77.475341796871362l52.754882812510914-15.490234375c-5.755126953132276-19.66357421875-8.897216796882276-40.447021484371362-8.897216796882276-61.985107421871362Z"/>
          </a>
          <a xlink:href="https://www.notion.so/dmmnotes/sexual-supplementation-8e85f49046ef412aa229745abf7d38d3?pvs=4">
            <path id="A5-2" data-name="A5" class="cls-4" d="M88.897216796882276,361.985107421871362l-52.754882812510914,15.490234375c7.463134765628638,25.456298828128638,18.506103515628638,49.36572265625,32.551513671878638,71.175048828128638l46.223632812510914-29.704833984367724c-11.230957031260914-17.450683593760914-20.055664062510914-36.58251953125-26.020263671878638-56.960449218760914Z"/>
          </a>
          <a xlink:href="https://www.notion.so/dmmnotes/compulsive-isolated-self-reliance-b321873a73fa41aaaadd7192fde856a2?pvs=4">
            <path id="A6-2" data-name="A6" class="cls-1" d="M114.917480468760914,418.945556640632276l-46.223632812510914,29.704833984367724c14.219970703121362,22.083251953121362,31.504150390632276,41.983154296871362,51.269775390632276,59.125l35.972900390617724-41.515869140617724c-15.815185546867724-13.712402343760914-29.643066406239086-29.637695312510914-41.019042968739086-47.31396484375Z"/>
          </a>
          <a xlink:href="https://www.notion.so/dmmnotes/delusional-idealization-743e2420b9994a48a7cab68190432e8a?pvs=4">
            <path id="A7-2" data-name="A7" class="cls-7" d="M155.9365234375,466.259521484382276l-35.972900390617724,41.515869140617724c19.687744140617724,17.074707031239086,41.811279296867724,31.385986328132276,65.803955078117724,42.36181640625l22.83251953125-49.996826171878638c-19.20166015625-8.773681640621362-36.91015625-20.222167968739086-52.66357421875-33.880859374989086Z"/>
          </a>
          <a xlink:href="https://www.notion.so/dmmnotes/externally-assembled-self-994ecb0895b844409b931d74a045c162?pvs=4">
            <path id="A8-2" data-name="A8" class="cls-9" d="M208.60009765625,500.140380859371362l-22.83251953125,49.996826171878638c23.45556640625,10.7314453125,48.659423828121362,18.275146484371362,75.098632812510914,22.04296875l7.825683593739086-54.4306640625c-21.15673828125-3.0078125-41.3251953125-9.0341796875-60.091796875-17.609130859378638Z"/>
          </a>
          <a xlink:href="https://www.notion.so/dmmnotes/psychopathy-0fe4a3222d9f4fd097ab4546c9776768?pvs=4">
            <path id="AC-2" data-name="AC" class="cls-8" d="M300,520c-10.634765625,0-21.076171875-.794921875-31.30810546875-2.25048828125l-7.825683593739086,54.4306640625c12.788574218739086,1.823486328132276,25.843017578121362,2.81982421875,39.133789062489086,2.81982421875,13.290771484371362,0,26.345214843760914-.996337890617724,39.1337890625-2.81982421875l-7.825683593739086-54.4306640625c-10.229248046889552,1.45556640625-20.673339843760914,2.25048828125-31.308105468760914,2.25048828125Z"/>
          </a>
        </g>
      </g>
    </g>
  </g>
</svg>