<?xml version="1.0" encoding="UTF-8"?>
<svg id="Layer_1" data-name="Layer 1" xmlns="http://www.w3.org/2000/svg" width="600" height="600.000000000003638" xmlns:xlink="http://www.w3.org/1999/xlink" viewBox="0 0 600 600.000000000003638">
  <defs>
    <style>
      .cls-1 {
        fill: #477e96;
      }

      .cls-1, .cls-2, .cls-3, .cls-4 {
        stroke: #181818;
        stroke-linecap: round;
        stroke-linejoin: round;
      }

      .cls-1, .cls-2, .cls-4 {
        stroke-width: 2px;
      }

      .cls-2 {
        fill: #2e8390;
      }

      .cls-3 {
        fill: none;
        stroke-width: 15px;
      }

      .cls-4 {
        fill: #8f807d;
      }
    </style>
  </defs>
  <g id="pie_with_links_-5" data-name="pie (with links)">
    <g id="pie_with_links_-6" data-name="pie (with links)">
      <g id="Pie">
        <g>
          <a xlink:href="https://www.notion.so/dmmnotes/paranoid-ae38b1e6af0c4dd08f61e0d8f6e9f05f?pvs=4">
            <path id="C8" class="cls-3" d="M331.308105468760914,517.74951171875l7.825683593739086,54.430664062503638c26.439208984371362-3.767822265632276,51.645751953139552-11.3115234375,75.101318359371362-22.042968750003638l-22.832519531242724-49.996826171880457c-18.7666015625,8.572265625-38.93505859375,14.601318359380457-60.094482421867724,17.609130859380457Z"/>
          </a>
          <a xlink:href="https://www.notion.so/dmmnotes/menacing-a5bd7149286344deba45ec15e759e579?pvs=4">
            <path id="C7" class="cls-3" d="M391.402587890628638,500.140380859369543l22.832519531242724,49.996826171880457c23.989990234389552-10.975830078121362,46.11621093751819-25.287109375010914,65.803955078139552-42.36181640625l-35.972900390632276-41.515869140621362c-15.753417968757276,13.65869140625-33.459228515628638,25.104492187490905-52.66357421875,33.880859374990905Z"/>
          </a>
          <a xlink:href="https://www.notion.so/dmmnotes/seductively-obsessed-with-rescue-6fb5a68f6d334bc29ccccc16d8a4e56e?pvs=4">
            <path id="C6" class="cls-3" d="M444.066162109378638,466.259521484378638l35.972900390632276,41.515869140621362c19.762939453117724-17.141845703130457,37.047119140617724-37.041748046880457,51.26708984375-59.125l-46.223632812510914-29.704833984371362c-11.373291015621362,17.673583984371362-25.201171874989086,33.598876953121362-41.016357421871362,47.31396484375Z"/>
          </a>
          <a xlink:href="https://www.notion.so/dmmnotes/punitively-obsessed-with-revenge-33d2e77f37774316b42bccf4a60f9688?pvs=4">
            <path id="C5" class="cls-3" d="M485.08251953125,418.945556640628638l46.223632812510914,29.704833984371362c14.048095703128638-21.809326171880457,25.08837890625-45.71875,32.551513671867724-71.175048828130457l-52.7548828125-15.490234375c-5.9619140625,20.377929687509095-14.789306640617724,39.509765625-26.020263671878638,56.960449218759095Z"/>
          </a>
          <a xlink:href="https://www.notion.so/dmmnotes/feigned-helpless-e79a94b0498c4e109a681b7f3dcdb088?pvs=4">
            <path id="C4" class="cls-3" d="M520,300c0,21.5380859375-3.142089843739086,42.321533203119543-8.897216796871362,61.985107421869543l52.7548828125,15.490234375c7.2080078125-24.583496093740905,11.142333984371362-50.5634765625,11.142333984371362-77.475341796869543h-55Z"/>
          </a>
          <a xlink:href="https://www.notion.so/dmmnotes/aggressive-2d8ccce383534b9dbfc7b4b10b8a5d5c?pvs=4">
            <path id="C3" class="cls-3" d="M520,300h55c0-26.911865234389552-3.934326171871362-52.894531250010914-11.142333984371362-77.475341796889552l-52.7548828125,15.490234375c5.755126953132276,19.663574218759095,8.897216796871362,40.449707031259095,8.897216796871362,61.985107421889552Z"/>
          </a>
          <a xlink:href="https://www.notion.so/dmmnotes/disarming-086276e599884c86b9359acf831a8b20?pvs=4">
            <path id="C2" class="cls-3" d="M511.102783203128638,238.014892578110448l52.7548828125-15.490234375c-7.463134765617724-25.456298828121362-18.503417968739086-49.365722656240905-32.551513671867724-71.177734374990905l-46.223632812510914,29.70751953125c11.230957031260914,17.45068359375,20.055664062510914,36.585205078119543,26.020263671878638,56.960449218740905Z"/>
          </a>
          <a xlink:href="https://www.notion.so/dmmnotes/threatening-348fe6a52f7a4fe69f768e98c6586932?pvs=4">
            <path id="C1" class="cls-3" d="M485.08251953125,181.054443359369543l46.223632812510914-29.70751953125c-14.219970703132276-22.08056640625-31.504150390632276-41.980468750009095-51.26708984375-59.122314453130457l-35.972900390632276,41.5185546875c15.815185546882276,13.71240234375,29.64306640625,29.637695312510914,41.016357421871362,47.311279296880457Z"/>
          </a>
          <a xlink:href="https://www.notion.so/dmmnotes/complaining-acceptance-8b40401a720c493ba73f7cde1567cf3d?pvs=4">
            <path id="B5" class="cls-3" d="M444.066162109378638,133.743164062489086l35.972900390632276-41.5185546875c-19.687744140621362-17.07470703125-41.81396484375-31.388671875-65.803955078139552-42.36181640625l-22.832519531242724,49.99951171875c19.204345703121362,8.773681640630457,36.910156249992724,20.22216796875,52.66357421875,33.880859375Z"/>
          </a>
          <a xlink:href="https://www.notion.so/dmmnotes/sentimental-bc554363322342b1b7ca4ccc02125049?pvs=4">
            <path id="B4" class="cls-3" d="M391.402587890628638,99.862304687489086l22.832519531242724-49.99951171875c-23.45556640623181-10.7314453125-48.662109375-18.275146484378638-75.101318359371362-22.042968749989086l-7.825683593739086,54.433349609369543c21.159423828117724,3.0078125,41.327880859367724,9.034179687490905,60.094482421867724,17.609130859369543Z"/>
          </a>
          <a xlink:href="https://www.notion.so/dmmnotes/comfortably-balanced-e76dc615a8b947aa915377cd02fcf716?pvs=4">
            <path id="B3" class="cls-3" d="M300,79.999999999989086c10.634765625,0,21.078857421871362.797607421880457,31.308105468760914,2.253173828130457l7.825683593739086-54.433349609369543c-12.788574218739086-1.823486328130457-25.843017578128638-2.819824218760914-39.1337890625-2.819824218760914s-26.34521484375.996337890630457-39.133789062489086,2.819824218760914l7.825683593739086,54.433349609369543c10.23193359375-1.45556640625,20.67333984375-2.253173828130457,31.30810546875-2.253173828130457Z"/>
          </a>
          <a xlink:href="https://www.notion.so/dmmnotes/accepting-317d81273fff4cd9817cdf4a88efd378?pvs=4">
            <path id="B2" class="cls-3" d="M268.69189453125,82.253173828119543l-7.825683593739086-54.433349609369543c-26.439208984389552,3.767822265610448-51.643066406260914,11.311523437489086-75.098632812510914,22.042968749989086l22.83251953125,49.99951171875c18.7666015625-8.574951171878638,38.93505859375-14.601318359369543,60.091796875-17.609130859369543Z"/>
          </a>
          <a xlink:href="https://www.notion.so/dmmnotes/distanced-from-past-2eabab7e9c77429f8e577f4e3e203653?pvs=4">
            <path id="B1" class="cls-3" d="M208.60009765625,99.862304687489086l-22.83251953125-49.99951171875c-23.99267578125,10.97314453125-46.1162109375,25.287109375-65.803955078121362,42.36181640625l35.972900390621362,41.515869140630457c15.75341796875-13.658691406259095,33.4619140625-25.1044921875,52.66357421875-33.878173828130457Z"/>
          </a>
          <a xlink:href="https://www.notion.so/dmmnotes/idealising-a52277f51ed14a42aae78081bb34b8be?pvs=4">
            <path id="A1" class="cls-3" d="M155.9365234375,133.740478515619543l-35.972900390621362-41.515869140630457c-19.765625,17.141845703121362-37.049804687507276,37.041748046880457-51.269775390628638,59.122314453130457l46.226318359371362,29.70751953125c11.373291015639552-17.673583984369543,25.201171875007276-33.598876953130457,41.016357421878638-47.31396484375Z"/>
          </a>
          <a xlink:href="https://www.notion.so/dmmnotes/distancing-9ac690cdca654729a17a5a255944e2d1?pvs=4">
            <path id="A2" class="cls-3" d="M114.920166015621362,181.054443359369543l-46.226318359371362-29.70751953125c-14.04541015625,21.81201171875-25.08837890625,45.721435546869543-32.551513671878638,71.177734374990905l52.754882812507276,15.490234375c5.964599609371362-20.375244140621362,14.7919921875-39.509765624990905,26.022949218742724-56.960449218740905Z"/>
          </a>
          <a xlink:href="https://www.notion.so/dmmnotes/compulsive-caregiving-9c380c0928294f41ae10764aa0dee886?pvs=4">
            <path id="A3" class="cls-3" d="M88.897216796878638,238.014892578110448l-52.754882812507276-15.490234375c-7.205322265621362,24.580810546878638-11.142333984371362,50.5634765625-11.142333984371362,77.475341796889552h55c0-21.535400390630457,3.14208984375-42.321533203130457,8.897216796878638-61.985107421889552Z"/>
          </a>
          <a xlink:href="https://www.notion.so/dmmnotes/compulsive-compliance-6d08b7ea9a424ce1a72b9184b7850414?pvs=4">
            <path id="A4" class="cls-3" d="M80,300H25c0,26.911865234369543,3.93701171875,52.894531249989086,11.142333984371362,77.475341796869543l52.754882812507276-15.490234375c-5.755126953128638-19.66357421875-8.897216796878638-40.447021484369543-8.897216796878638-61.985107421869543Z"/>
          </a>
          <a xlink:href="https://www.notion.so/dmmnotes/sexual-supplementation-8e85f49046ef412aa229745abf7d38d3?pvs=4">
            <path id="A5" class="cls-3" d="M88.897216796878638,361.985107421869543l-52.754882812507276,15.490234375c7.463134765628638,25.456298828130457,18.506103515628638,49.36572265625,32.551513671878638,71.175048828130457l46.223632812510914-29.704833984371362c-11.230957031260914-17.450683593759095-20.055664062510914-36.58251953125-26.020263671882276-56.960449218759095Z"/>
          </a>
          <a xlink:href="https://www.notion.so/dmmnotes/compulsive-isolated-self-reliance-b321873a73fa41aaaadd7192fde856a2?pvs=4">
            <path id="A6" class="cls-3" d="M114.917480468760914,418.945556640628638l-46.223632812510914,29.704833984371362c14.219970703121362,22.083251953119543,31.504150390628638,41.983154296869543,51.269775390628638,59.125l35.972900390621362-41.515869140621362c-15.815185546871362-13.712402343759095-29.643066406239086-29.637695312509095-41.019042968739086-47.31396484375Z"/>
          </a>
          <a xlink:href="https://www.notion.so/dmmnotes/delusional-idealization-743e2420b9994a48a7cab68190432e8a?pvs=4">
            <path id="A7" class="cls-3" d="M155.9365234375,466.259521484378638l-35.972900390621362,41.515869140621362c19.687744140621362,17.074707031239086,41.811279296871362,31.385986328128638,65.803955078121362,42.36181640625l22.83251953125-49.996826171880457c-19.20166015625-8.773681640619543-36.91015625-20.222167968740905-52.66357421875-33.880859374990905Z"/>
          </a>
          <a xlink:href="https://www.notion.so/dmmnotes/externally-assembled-self-994ecb0895b844409b931d74a045c162?pvs=4">
            <path id="A8" class="cls-3" d="M208.60009765625,500.140380859369543l-22.83251953125,49.996826171880457c23.45556640625,10.731445312503638,48.659423828121362,18.275146484371362,75.098632812510914,22.042968750003638l7.825683593739086-54.430664062503638c-21.15673828125-3.0078125-41.3251953125-9.0341796875-60.091796875-17.609130859380457Z"/>
          </a>
          <a xlink:href="https://www.notion.so/dmmnotes/psychopathy-0fe4a3222d9f4fd097ab4546c9776768?pvs=4">
            <path id="AC" class="cls-3" d="M300,520c-10.634765625,0-21.076171875-.794921875-31.30810546875-2.25048828125l-7.825683593739086,54.430664062503638c12.788574218739086,1.823486328126819,25.843017578117724,2.81982421875,39.133789062489086,2.81982421875s26.345214843760914-.996337890623181,39.1337890625-2.81982421875l-7.825683593739086-54.430664062503638c-10.229248046889552,1.45556640625-20.673339843760914,2.25048828125-31.308105468760914,2.25048828125Z"/>
          </a>
        </g>
        <g>
          <a xlink:href="https://www.notion.so/dmmnotes/paranoid-ae38b1e6af0c4dd08f61e0d8f6e9f05f?pvs=4">
            <path id="C8-2" data-name="C8" class="cls-4" d="M331.308105468760914,517.74951171875l7.825683593739086,54.430664062503638c26.439208984371362-3.767822265632276,51.645751953139552-11.3115234375,75.101318359371362-22.042968750003638l-22.832519531242724-49.996826171880457c-18.7666015625,8.572265625-38.93505859375,14.601318359380457-60.094482421867724,17.609130859380457Z"/>
          </a>
          <a xlink:href="https://www.notion.so/dmmnotes/menacing-a5bd7149286344deba45ec15e759e579?pvs=4">
            <path id="C7-2" data-name="C7" class="cls-4" d="M391.402587890628638,500.140380859369543l22.832519531242724,49.996826171880457c23.989990234389552-10.975830078121362,46.11621093751819-25.287109375010914,65.803955078139552-42.36181640625l-35.972900390632276-41.515869140621362c-15.753417968757276,13.65869140625-33.459228515628638,25.104492187490905-52.66357421875,33.880859374990905Z"/>
          </a>
          <a xlink:href="https://www.notion.so/dmmnotes/seductively-obsessed-with-rescue-6fb5a68f6d334bc29ccccc16d8a4e56e?pvs=4">
            <path id="C6-2" data-name="C6" class="cls-4" d="M444.066162109378638,466.259521484378638l35.972900390632276,41.515869140621362c19.762939453117724-17.141845703130457,37.047119140617724-37.041748046880457,51.26708984375-59.125l-46.223632812510914-29.704833984371362c-11.373291015621362,17.673583984371362-25.201171874989086,33.598876953121362-41.016357421871362,47.31396484375Z"/>
          </a>
          <a xlink:href="https://www.notion.so/dmmnotes/punitively-obsessed-with-revenge-33d2e77f37774316b42bccf4a60f9688?pvs=4">
            <path id="C5-2" data-name="C5" class="cls-4" d="M485.08251953125,418.945556640628638l46.223632812510914,29.704833984371362c14.048095703128638-21.809326171880457,25.08837890625-45.71875,32.551513671867724-71.175048828130457l-52.7548828125-15.490234375c-5.9619140625,20.377929687509095-14.789306640617724,39.509765625-26.020263671878638,56.960449218759095Z"/>
          </a>
          <a xlink:href="https://www.notion.so/dmmnotes/feigned-helpless-e79a94b0498c4e109a681b7f3dcdb088?pvs=4">
            <path id="C4-2" data-name="C4" class="cls-4" d="M520,300c0,21.5380859375-3.142089843739086,42.321533203119543-8.897216796871362,61.985107421869543l52.7548828125,15.490234375c7.2080078125-24.583496093740905,11.142333984371362-50.5634765625,11.142333984371362-77.475341796869543h-55Z"/>
          </a>
          <a xlink:href="https://www.notion.so/dmmnotes/aggressive-2d8ccce383534b9dbfc7b4b10b8a5d5c?pvs=4">
            <path id="C3-2" data-name="C3" class="cls-4" d="M520,300h55c0-26.911865234389552-3.934326171871362-52.894531250010914-11.142333984371362-77.475341796889552l-52.7548828125,15.490234375c5.755126953132276,19.663574218759095,8.897216796871362,40.449707031259095,8.897216796871362,61.985107421889552Z"/>
          </a>
          <a xlink:href="https://www.notion.so/dmmnotes/disarming-086276e599884c86b9359acf831a8b20?pvs=4">
            <path id="C2-2" data-name="C2" class="cls-4" d="M511.102783203128638,238.014892578110448l52.7548828125-15.490234375c-7.463134765617724-25.456298828121362-18.503417968739086-49.365722656240905-32.551513671867724-71.177734374990905l-46.223632812510914,29.70751953125c11.230957031260914,17.45068359375,20.055664062510914,36.585205078119543,26.020263671878638,56.960449218740905Z"/>
          </a>
          <a xlink:href="https://www.notion.so/dmmnotes/threatening-348fe6a52f7a4fe69f768e98c6586932?pvs=4">
            <path id="C1-2" data-name="C1" class="cls-4" d="M485.08251953125,181.054443359369543l46.223632812510914-29.70751953125c-14.219970703132276-22.08056640625-31.504150390632276-41.980468750009095-51.26708984375-59.122314453130457l-35.972900390632276,41.5185546875c15.815185546882276,13.71240234375,29.64306640625,29.637695312510914,41.016357421871362,47.311279296880457Z"/>
          </a>
          <a xlink:href="https://www.notion.so/dmmnotes/complaining-acceptance-8b40401a720c493ba73f7cde1567cf3d?pvs=4">
            <path id="B5-2" data-name="B5" class="cls-4" d="M444.066162109378638,133.743164062489086l35.972900390632276-41.5185546875c-19.687744140621362-17.07470703125-41.81396484375-31.388671875-65.803955078139552-42.36181640625l-22.832519531242724,49.99951171875c19.204345703121362,8.773681640630457,36.910156249992724,20.22216796875,52.66357421875,33.880859375Z"/>
          </a>
          <a xlink:href="https://www.notion.so/dmmnotes/sentimental-bc554363322342b1b7ca4ccc02125049?pvs=4">
            <path id="B4-2" data-name="B4" class="cls-4" d="M391.402587890628638,99.862304687489086l22.832519531242724-49.99951171875c-23.45556640623181-10.7314453125-48.662109375-18.275146484378638-75.101318359371362-22.042968749989086l-7.825683593739086,54.433349609369543c21.159423828117724,3.0078125,41.327880859367724,9.034179687490905,60.094482421867724,17.609130859369543Z"/>
          </a>
          <a xlink:href="https://www.notion.so/dmmnotes/comfortably-balanced-e76dc615a8b947aa915377cd02fcf716?pvs=4">
            <path id="B3-2" data-name="B3" class="cls-4" d="M300,79.999999999989086c10.634765625,0,21.078857421871362.797607421880457,31.308105468760914,2.253173828130457l7.825683593739086-54.433349609369543c-12.788574218739086-1.823486328130457-25.843017578128638-2.819824218760914-39.1337890625-2.819824218760914s-26.34521484375.996337890630457-39.133789062489086,2.819824218760914l7.825683593739086,54.433349609369543c10.23193359375-1.45556640625,20.67333984375-2.253173828130457,31.30810546875-2.253173828130457Z"/>
          </a>
          <a xlink:href="https://www.notion.so/dmmnotes/accepting-317d81273fff4cd9817cdf4a88efd378?pvs=4">
            <path id="B2-2" data-name="B2" class="cls-2" d="M268.69189453125,82.253173828119543l-7.825683593739086-54.433349609369543c-26.439208984389552,3.767822265610448-51.643066406260914,11.311523437489086-75.098632812510914,22.042968749989086l22.83251953125,49.99951171875c18.7666015625-8.574951171878638,38.93505859375-14.601318359369543,60.091796875-17.609130859369543Z"/>
          </a>
          <a xlink:href="https://www.notion.so/dmmnotes/distanced-from-past-2eabab7e9c77429f8e577f4e3e203653?pvs=4">
            <path id="B1-2" data-name="B1" class="cls-1" d="M208.60009765625,99.862304687489086l-22.83251953125-49.99951171875c-23.99267578125,10.97314453125-46.1162109375,25.287109375-65.803955078121362,42.36181640625l35.972900390621362,41.515869140630457c15.75341796875-13.658691406259095,33.4619140625-25.1044921875,52.66357421875-33.878173828130457Z"/>
          </a>
          <a xlink:href="https://www.notion.so/dmmnotes/idealising-a52277f51ed14a42aae78081bb34b8be?pvs=4">
            <path id="A1-2" data-name="A1" class="cls-4" d="M155.9365234375,133.740478515619543l-35.972900390621362-41.515869140630457c-19.765625,17.141845703121362-37.049804687507276,37.041748046880457-51.269775390628638,59.122314453130457l46.226318359371362,29.70751953125c11.373291015639552-17.673583984369543,25.201171875007276-33.598876953130457,41.016357421878638-47.31396484375Z"/>
          </a>
          <a xlink:href="https://www.notion.so/dmmnotes/distancing-9ac690cdca654729a17a5a255944e2d1?pvs=4">
            <path id="A2-2" data-name="A2" class="cls-4" d="M114.920166015621362,181.054443359369543l-46.226318359371362-29.70751953125c-14.04541015625,21.81201171875-25.08837890625,45.721435546869543-32.551513671878638,71.177734374990905l52.754882812507276,15.490234375c5.964599609371362-20.375244140621362,14.7919921875-39.509765624990905,26.022949218742724-56.960449218740905Z"/>
          </a>
          <a xlink:href="https://www.notion.so/dmmnotes/compulsive-caregiving-9c380c0928294f41ae10764aa0dee886?pvs=4">
            <path id="A3-2" data-name="A3" class="cls-4" d="M88.897216796878638,238.014892578110448l-52.754882812507276-15.490234375c-7.205322265621362,24.580810546878638-11.142333984371362,50.5634765625-11.142333984371362,77.475341796889552h55c0-21.535400390630457,3.14208984375-42.321533203130457,8.897216796878638-61.985107421889552Z"/>
          </a>
          <a xlink:href="https://www.notion.so/dmmnotes/compulsive-compliance-6d08b7ea9a424ce1a72b9184b7850414?pvs=4">
            <path id="A4-2" data-name="A4" class="cls-4" d="M80,300H25c0,26.911865234369543,3.93701171875,52.894531249989086,11.142333984371362,77.475341796869543l52.754882812507276-15.490234375c-5.755126953128638-19.66357421875-8.897216796878638-40.447021484369543-8.897216796878638-61.985107421869543Z"/>
          </a>
          <a xlink:href="https://www.notion.so/dmmnotes/sexual-supplementation-8e85f49046ef412aa229745abf7d38d3?pvs=4">
            <path id="A5-2" data-name="A5" class="cls-4" d="M88.897216796878638,361.985107421869543l-52.754882812507276,15.490234375c7.463134765628638,25.456298828130457,18.506103515628638,49.36572265625,32.551513671878638,71.175048828130457l46.223632812510914-29.704833984371362c-11.230957031260914-17.450683593759095-20.055664062510914-36.58251953125-26.020263671882276-56.960449218759095Z"/>
          </a>
          <a xlink:href="https://www.notion.so/dmmnotes/compulsive-isolated-self-reliance-b321873a73fa41aaaadd7192fde856a2?pvs=4">
            <path id="A6-2" data-name="A6" class="cls-4" d="M114.917480468760914,418.945556640628638l-46.223632812510914,29.704833984371362c14.219970703121362,22.083251953119543,31.504150390628638,41.983154296869543,51.269775390628638,59.125l35.972900390621362-41.515869140621362c-15.815185546871362-13.712402343759095-29.643066406239086-29.637695312509095-41.019042968739086-47.31396484375Z"/>
          </a>
          <a xlink:href="https://www.notion.so/dmmnotes/delusional-idealization-743e2420b9994a48a7cab68190432e8a?pvs=4">
            <path id="A7-2" data-name="A7" class="cls-4" d="M155.9365234375,466.259521484378638l-35.972900390621362,41.515869140621362c19.687744140621362,17.074707031239086,41.811279296871362,31.385986328128638,65.803955078121362,42.36181640625l22.83251953125-49.996826171880457c-19.20166015625-8.773681640619543-36.91015625-20.222167968740905-52.66357421875-33.880859374990905Z"/>
          </a>
          <a xlink:href="https://www.notion.so/dmmnotes/externally-assembled-self-994ecb0895b844409b931d74a045c162?pvs=4">
            <path id="A8-2" data-name="A8" class="cls-4" d="M208.60009765625,500.140380859369543l-22.83251953125,49.996826171880457c23.45556640625,10.731445312503638,48.659423828121362,18.275146484371362,75.098632812510914,22.042968750003638l7.825683593739086-54.430664062503638c-21.15673828125-3.0078125-41.3251953125-9.0341796875-60.091796875-17.609130859380457Z"/>
          </a>
          <a xlink:href="https://www.notion.so/dmmnotes/psychopathy-0fe4a3222d9f4fd097ab4546c9776768?pvs=4">
            <path id="AC-2" data-name="AC" class="cls-4" d="M300,520c-10.634765625,0-21.076171875-.794921875-31.30810546875-2.25048828125l-7.825683593739086,54.430664062503638c12.788574218739086,1.823486328126819,25.843017578117724,2.81982421875,39.133789062489086,2.81982421875s26.345214843760914-.996337890623181,39.1337890625-2.81982421875l-7.825683593739086-54.430664062503638c-10.229248046889552,1.45556640625-20.673339843760914,2.25048828125-31.308105468760914,2.25048828125Z"/>
          </a>
        </g>
      </g>
    </g>
  </g>
</svg>