<?xml version="1.0" encoding="UTF-8"?>
<svg id="Layer_1" data-name="Layer 1" xmlns="http://www.w3.org/2000/svg" width="600" height="599.999999999996362" xmlns:xlink="http://www.w3.org/1999/xlink" viewBox="0 0 600 599.999999999996362">
  <defs>
    <style>
      .cls-1 {
        fill: #999555;
      }

      .cls-1, .cls-2, .cls-3, .cls-4, .cls-5, .cls-6, .cls-7, .cls-8, .cls-9, .cls-10, .cls-11, .cls-12, .cls-13, .cls-14, .cls-15, .cls-16, .cls-17 {
        stroke: #181818;
        stroke-linecap: round;
        stroke-linejoin: round;
      }

      .cls-1, .cls-2, .cls-3, .cls-5, .cls-6, .cls-7, .cls-8, .cls-9, .cls-10, .cls-11, .cls-12, .cls-13, .cls-14, .cls-15, .cls-16, .cls-17 {
        stroke-width: 2px;
      }

      .cls-2 {
        fill: #477e96;
      }

      .cls-3 {
        fill: #2e8390;
      }

      .cls-4 {
        fill: none;
        stroke-width: 15px;
      }

      .cls-5 {
        fill: #589569;
      }

      .cls-6 {
        fill: #bb8a59;
      }

      .cls-7 {
        fill: #ac9156;
      }

      .cls-8 {
        fill: #72729b;
      }

      .cls-9 {
        fill: #3d9174;
      }

      .cls-10 {
        fill: #aa6490;
      }

      .cls-11 {
        fill: #2c8d7e;
      }

      .cls-12 {
        fill: #859658;
      }

      .cls-13 {
        fill: #866c99;
      }

      .cls-14 {
        fill: #268887;
      }

      .cls-15 {
        fill: #5e779a;
      }

      .cls-16 {
        fill: #8f807d;
      }

      .cls-17 {
        fill: #6e975f;
      }
    </style>
  </defs>
  <g id="pie_with_links_-5" data-name="pie (with links)">
    <g id="pie_with_links_-6" data-name="pie (with links)">
      <g id="Pie">
        <g>
          <a xlink:href="https://www.notion.so/dmmnotes/paranoid-ae38b1e6af0c4dd08f61e0d8f6e9f05f?pvs=4">
            <path id="C8" class="cls-4" d="M331.30810546875,517.749511718746362l7.825683593739996,54.4306640625c26.439208984370453-3.767822265619543,51.645751953139552-11.3115234375,75.101318359369543-22.04296875l-22.832519531239086-49.996826171869543c-18.766601562499091,8.572265625-38.93505859375,14.601318359369543-60.094482421870453,17.609130859369543Z"/>
          </a>
          <a xlink:href="https://www.notion.so/dmmnotes/menacing-a5bd7149286344deba45ec15e759e579?pvs=4">
            <path id="C7" class="cls-4" d="M391.402587890620453,500.140380859376819l22.832519531239086,49.996826171869543c23.989990234389552-10.975830078119543,46.116210937520009-25.287109375010914,65.803955078139552-42.36181640625l-35.972900390628638-41.515869140619543c-15.753417968760914,13.65869140625-33.459228515630457,25.1044921875-52.66357421875,33.880859375Z"/>
          </a>
          <a xlink:href="https://www.notion.so/dmmnotes/seductively-obsessed-with-rescue-6fb5a68f6d334bc29ccccc16d8a4e56e?pvs=4">
            <path id="C6" class="cls-4" d="M444.066162109370453,466.259521484376819l35.972900390628638,41.515869140619543c19.762939453121362-17.141845703119543,37.047119140621362-37.041748046869543,51.26708984375-59.125l-46.223632812509095-29.704833984369543c-11.373291015619543,17.673583984369543-25.201171874990905,33.598876953119543-41.016357421869543,47.31396484375Z"/>
          </a>
          <a xlink:href="https://www.notion.so/dmmnotes/punitively-obsessed-with-revenge-33d2e77f37774316b42bccf4a60f9688?pvs=4">
            <path id="C5" class="cls-4" d="M485.082519531239996,418.945556640626819l46.223632812509095,29.704833984369543c14.048095703130457-21.809326171869543,25.08837890625-45.71875,32.551513671871362-71.175048828119543l-52.7548828125-15.490234375c-5.9619140625,20.3779296875-14.789306640621362,39.509765625-26.020263671880457,56.96044921875Z"/>
          </a>
          <a xlink:href="https://www.notion.so/dmmnotes/feigned-helpless-e79a94b0498c4e109a681b7f3dcdb088?pvs=4">
            <path id="C4" class="cls-4" d="M519.999999999989996,299.999999999996362c0,21.5380859375-3.142089843740905,42.321533203130457-8.897216796869543,61.985107421880457l52.7548828125,15.490234375c7.2080078125-24.58349609375,11.142333984369543-50.5634765625,11.142333984369543-77.475341796880457h-55Z"/>
          </a>
          <a xlink:href="https://www.notion.so/dmmnotes/aggressive-2d8ccce383534b9dbfc7b4b10b8a5d5c?pvs=4">
            <path id="C3" class="cls-4" d="M519.999999999989996,299.999999999996362h55c0-26.911865234389552-3.934326171869543-52.894531250007276-11.142333984369543-77.475341796885914l-52.7548828125,15.490234375c5.755126953128638,19.663574218760914,8.897216796869543,40.449707031266371,8.897216796869543,61.985107421885914Z"/>
          </a>
          <a xlink:href="https://www.notion.so/dmmnotes/disarming-086276e599884c86b9359acf831a8b20?pvs=4">
            <path id="C2" class="cls-4" d="M511.102783203120453,238.014892578110448l52.7548828125-15.490234375c-7.463134765621362-25.456298828121362-18.503417968740905-49.365722656239086-32.551513671871362-71.177734374989086l-46.223632812509095,29.70751953125c11.230957031259095,17.45068359375,20.055664062509095,36.585205078117724,26.020263671880457,56.960449218739086Z"/>
          </a>
          <a xlink:href="https://www.notion.so/dmmnotes/threatening-348fe6a52f7a4fe69f768e98c6586932?pvs=4">
            <path id="C1" class="cls-4" d="M485.082519531239996,181.054443359371362l46.223632812509095-29.70751953125c-14.219970703128638-22.08056640625-31.504150390628638-41.980468750010914-51.26708984375-59.122314453121362l-35.972900390628638,41.518554687489086c15.815185546878638,13.71240234375,29.64306640625,29.637695312510914,41.016357421869543,47.311279296882276Z"/>
          </a>
          <a xlink:href="https://www.notion.so/dmmnotes/complaining-acceptance-8b40401a720c493ba73f7cde1567cf3d?pvs=4">
            <path id="B5" class="cls-4" d="M444.066162109370453,133.743164062489086l35.972900390628638-41.518554687489086c-19.687744140619543-17.07470703125-41.81396484375-31.388671875-65.803955078139552-42.36181640625l-22.832519531239086,49.99951171875c19.204345703119543,8.773681640621362,36.910156249989086,20.22216796875,52.66357421875,33.880859374989086Z"/>
          </a>
          <a xlink:href="https://www.notion.so/dmmnotes/sentimental-bc554363322342b1b7ca4ccc02125049?pvs=4">
            <path id="B4" class="cls-4" d="M391.402587890620453,99.8623046875l22.832519531239086-49.99951171875c-23.455566406229991-10.7314453125-48.662109374999091-18.275146484389552-75.101318359369543-22.042968749989086l-7.825683593739996,54.433349609360448c21.159423828120453,3.0078125,41.327880859371362,9.034179687489086,60.094482421870453,17.609130859378638Z"/>
          </a>
          <a xlink:href="https://www.notion.so/dmmnotes/comfortably-balanced-e76dc615a8b947aa915377cd02fcf716?pvs=4">
            <path id="B3" class="cls-4" d="M299.999999999989996,80c10.634765625,0,21.078857421870453.797607421871362,31.308105468760004,2.253173828121362l7.825683593739996-54.433349609360448c-12.788574218739996-1.823486328139552-25.843017578129547-2.819824218760914-39.1337890625-2.819824218760914-13.290771484369543,0-26.34521484375.996337890621362-39.133789062489996,2.819824218760914l7.825683593739996,54.433349609360448c10.23193359375-1.45556640625,20.67333984375-2.253173828121362,31.30810546875-2.253173828121362Z"/>
          </a>
          <a xlink:href="https://www.notion.so/dmmnotes/accepting-317d81273fff4cd9817cdf4a88efd378?pvs=4">
            <path id="B2" class="cls-4" d="M268.691894531239996,82.253173828121362l-7.825683593739996-54.433349609360448c-26.439208984389552,3.767822265599534-51.643066406260004,11.311523437489086-75.098632812510004,22.042968749989086l22.83251953125,49.99951171875c18.7666015625-8.574951171889552,38.93505859375-14.601318359378638,60.091796875-17.609130859378638Z"/>
          </a>
          <a xlink:href="https://www.notion.so/dmmnotes/distanced-from-past-2eabab7e9c77429f8e577f4e3e203653?pvs=4">
            <path id="B1" class="cls-4" d="M208.600097656239996,99.8623046875l-22.83251953125-49.99951171875c-23.99267578125,10.97314453125-46.1162109375,25.287109375-65.803955078119543,42.36181640625l35.972900390619543,41.515869140621362c15.75341796875-13.658691406260914,33.4619140625-25.1044921875,52.66357421875-33.878173828121362Z"/>
          </a>
          <a xlink:href="https://www.notion.so/dmmnotes/idealising-a52277f51ed14a42aae78081bb34b8be?pvs=4">
            <path id="A1" class="cls-4" d="M155.936523437489996,133.740478515621362l-35.972900390619543-41.515869140621362c-19.765625,17.141845703110448-37.049804687510004,37.041748046871362-51.269775390630457,59.122314453121362l46.226318359370453,29.70751953125c11.373291015639552-17.673583984371362,25.201171875010004-33.598876953132276,41.016357421879547-47.31396484375Z"/>
          </a>
          <a xlink:href="https://www.notion.so/dmmnotes/distancing-9ac690cdca654729a17a5a255944e2d1?pvs=4">
            <path id="A2" class="cls-4" d="M114.920166015610448,181.054443359371362l-46.226318359370453-29.70751953125c-14.04541015625,21.81201171875-25.08837890625,45.721435546867724-32.551513671879547,71.177734374989086l52.754882812510004,15.490234375c5.964599609369543-20.375244140621362,14.7919921875-39.509765624989086,26.022949218739996-56.960449218739086Z"/>
          </a>
          <a xlink:href="https://www.notion.so/dmmnotes/compulsive-caregiving-9c380c0928294f41ae10764aa0dee886?pvs=4">
            <path id="A3" class="cls-4" d="M88.897216796870453,238.014892578110448l-52.754882812510004-15.490234375c-7.205322265620453,24.580810546878638-11.142333984370453,50.563476562496362-11.142333984370453,77.475341796885914h55c0-21.535400390619543,3.14208984375-42.321533203125,8.897216796880457-61.985107421885914Z"/>
          </a>
          <a xlink:href="https://www.notion.so/dmmnotes/compulsive-compliance-6d08b7ea9a424ce1a72b9184b7850414?pvs=4">
            <path id="A4" class="cls-4" d="M79.999999999989996,299.999999999996362H24.999999999989996c0,26.911865234380457,3.93701171875,52.894531249989086,11.142333984370453,77.475341796880457l52.754882812510004-15.490234375c-5.755126953130457-19.66357421875-8.897216796880457-40.447021484380457-8.897216796880457-61.985107421880457Z"/>
          </a>
          <a xlink:href="https://www.notion.so/dmmnotes/sexual-supplementation-8e85f49046ef412aa229745abf7d38d3?pvs=4">
            <path id="A5" class="cls-4" d="M88.897216796870453,361.985107421876819l-52.754882812510004,15.490234375c7.463134765629547,25.456298828119543,18.506103515629547,49.36572265625,32.551513671879547,71.175048828119543l46.223632812510004-29.704833984369543c-11.230957031260004-17.45068359375-20.055664062510004-36.58251953125-26.020263671879547-56.96044921875Z"/>
          </a>
          <a xlink:href="https://www.notion.so/dmmnotes/compulsive-isolated-self-reliance-b321873a73fa41aaaadd7192fde856a2?pvs=4">
            <path id="A6" class="cls-4" d="M114.91748046875,418.945556640626819l-46.223632812510004,29.704833984369543c14.219970703120453,22.083251953130457,31.504150390630457,41.983154296880457,51.269775390630457,59.125l35.972900390619543-41.515869140619543c-15.815185546869543-13.71240234375-29.643066406239996-29.6376953125-41.019042968739996-47.31396484375Z"/>
          </a>
          <a xlink:href="https://www.notion.so/dmmnotes/delusional-idealization-743e2420b9994a48a7cab68190432e8a?pvs=4">
            <path id="A7" class="cls-4" d="M155.936523437489996,466.259521484376819l-35.972900390619543,41.515869140619543c19.687744140619543,17.074707031239086,41.811279296869543,31.385986328130457,65.803955078119543,42.36181640625l22.83251953125-49.996826171869543c-19.20166015625-8.773681640630457-36.91015625-20.22216796875-52.66357421875-33.880859375Z"/>
          </a>
          <a xlink:href="https://www.notion.so/dmmnotes/externally-assembled-self-994ecb0895b844409b931d74a045c162?pvs=4">
            <path id="A8" class="cls-4" d="M208.600097656239996,500.140380859376819l-22.83251953125,49.996826171869543c23.45556640625,10.7314453125,48.659423828120453,18.275146484380457,75.098632812510004,22.04296875l7.825683593739996-54.4306640625c-21.15673828125-3.0078125-41.3251953125-9.0341796875-60.091796875-17.609130859369543Z"/>
          </a>
          <a xlink:href="https://www.notion.so/dmmnotes/psychopathy-0fe4a3222d9f4fd097ab4546c9776768?pvs=4">
            <path id="AC" class="cls-4" d="M299.999999999989996,519.999999999996362c-10.634765625,0-21.076171875-.794921875-31.30810546875-2.25048828125l-7.825683593739996,54.4306640625c12.788574218739996,1.823486328130457,25.843017578120453,2.81982421875,39.133789062489996,2.81982421875,13.290771484370453,0,26.345214843760004-.996337890619543,39.1337890625-2.81982421875l-7.825683593739996-54.4306640625c-10.229248046889552,1.45556640625-20.673339843760004,2.25048828125-31.308105468760004,2.25048828125Z"/>
          </a>
        </g>
        <g>
          <a xlink:href="https://www.notion.so/dmmnotes/paranoid-ae38b1e6af0c4dd08f61e0d8f6e9f05f?pvs=4">
            <path id="C8-2" data-name="C8" class="cls-16" d="M331.30810546875,517.749511718746362l7.825683593739996,54.4306640625c26.439208984370453-3.767822265619543,51.645751953139552-11.3115234375,75.101318359369543-22.04296875l-22.832519531239086-49.996826171869543c-18.766601562499091,8.572265625-38.93505859375,14.601318359369543-60.094482421870453,17.609130859369543Z"/>
          </a>
          <a xlink:href="https://www.notion.so/dmmnotes/menacing-a5bd7149286344deba45ec15e759e579?pvs=4">
            <path id="C7-2" data-name="C7" class="cls-16" d="M391.402587890620453,500.140380859376819l22.832519531239086,49.996826171869543c23.989990234389552-10.975830078119543,46.116210937520009-25.287109375010914,65.803955078139552-42.36181640625l-35.972900390628638-41.515869140619543c-15.753417968760914,13.65869140625-33.459228515630457,25.1044921875-52.66357421875,33.880859375Z"/>
          </a>
          <a xlink:href="https://www.notion.so/dmmnotes/seductively-obsessed-with-rescue-6fb5a68f6d334bc29ccccc16d8a4e56e?pvs=4">
            <path id="C6-2" data-name="C6" class="cls-6" d="M444.066162109370453,466.259521484376819l35.972900390628638,41.515869140619543c19.762939453121362-17.141845703119543,37.047119140621362-37.041748046869543,51.26708984375-59.125l-46.223632812509095-29.704833984369543c-11.373291015619543,17.673583984369543-25.201171874990905,33.598876953119543-41.016357421869543,47.31396484375Z"/>
          </a>
          <a xlink:href="https://www.notion.so/dmmnotes/punitively-obsessed-with-revenge-33d2e77f37774316b42bccf4a60f9688?pvs=4">
            <path id="C5-2" data-name="C5" class="cls-7" d="M485.082519531239996,418.945556640626819l46.223632812509095,29.704833984369543c14.048095703130457-21.809326171869543,25.08837890625-45.71875,32.551513671871362-71.175048828119543l-52.7548828125-15.490234375c-5.9619140625,20.3779296875-14.789306640621362,39.509765625-26.020263671880457,56.96044921875Z"/>
          </a>
          <a xlink:href="https://www.notion.so/dmmnotes/feigned-helpless-e79a94b0498c4e109a681b7f3dcdb088?pvs=4">
            <path id="C4-2" data-name="C4" class="cls-1" d="M519.999999999989996,299.999999999996362c0,21.5380859375-3.142089843740905,42.321533203130457-8.897216796869543,61.985107421880457l52.7548828125,15.490234375c7.2080078125-24.58349609375,11.142333984369543-50.5634765625,11.142333984369543-77.475341796880457h-55Z"/>
          </a>
          <a xlink:href="https://www.notion.so/dmmnotes/aggressive-2d8ccce383534b9dbfc7b4b10b8a5d5c?pvs=4">
            <path id="C3-2" data-name="C3" class="cls-12" d="M519.999999999989996,299.999999999996362h55c0-26.911865234389552-3.934326171869543-52.894531250007276-11.142333984369543-77.475341796885914l-52.7548828125,15.490234375c5.755126953128638,19.663574218760914,8.897216796869543,40.449707031266371,8.897216796869543,61.985107421885914Z"/>
          </a>
          <a xlink:href="https://www.notion.so/dmmnotes/disarming-086276e599884c86b9359acf831a8b20?pvs=4">
            <path id="C2-2" data-name="C2" class="cls-17" d="M511.102783203120453,238.014892578110448l52.7548828125-15.490234375c-7.463134765621362-25.456298828121362-18.503417968740905-49.365722656239086-32.551513671871362-71.177734374989086l-46.223632812509095,29.70751953125c11.230957031259095,17.45068359375,20.055664062509095,36.585205078117724,26.020263671880457,56.960449218739086Z"/>
          </a>
          <a xlink:href="https://www.notion.so/dmmnotes/threatening-348fe6a52f7a4fe69f768e98c6586932?pvs=4">
            <path id="C1-2" data-name="C1" class="cls-5" d="M485.082519531239996,181.054443359371362l46.223632812509095-29.70751953125c-14.219970703128638-22.08056640625-31.504150390628638-41.980468750010914-51.26708984375-59.122314453121362l-35.972900390628638,41.518554687489086c15.815185546878638,13.71240234375,29.64306640625,29.637695312510914,41.016357421869543,47.311279296882276Z"/>
          </a>
          <a xlink:href="https://www.notion.so/dmmnotes/complaining-acceptance-8b40401a720c493ba73f7cde1567cf3d?pvs=4">
            <path id="B5-2" data-name="B5" class="cls-9" d="M444.066162109370453,133.743164062489086l35.972900390628638-41.518554687489086c-19.687744140619543-17.07470703125-41.81396484375-31.388671875-65.803955078139552-42.36181640625l-22.832519531239086,49.99951171875c19.204345703119543,8.773681640621362,36.910156249989086,20.22216796875,52.66357421875,33.880859374989086Z"/>
          </a>
          <a xlink:href="https://www.notion.so/dmmnotes/sentimental-bc554363322342b1b7ca4ccc02125049?pvs=4">
            <path id="B4-2" data-name="B4" class="cls-11" d="M391.402587890620453,99.8623046875l22.832519531239086-49.99951171875c-23.455566406229991-10.7314453125-48.662109374999091-18.275146484389552-75.101318359369543-22.042968749989086l-7.825683593739996,54.433349609360448c21.159423828120453,3.0078125,41.327880859371362,9.034179687489086,60.094482421870453,17.609130859378638Z"/>
          </a>
          <a xlink:href="https://www.notion.so/dmmnotes/comfortably-balanced-e76dc615a8b947aa915377cd02fcf716?pvs=4">
            <path id="B3-2" data-name="B3" class="cls-14" d="M299.999999999989996,80c10.634765625,0,21.078857421870453.797607421871362,31.308105468760004,2.253173828121362l7.825683593739996-54.433349609360448c-12.788574218739996-1.823486328139552-25.843017578129547-2.819824218760914-39.1337890625-2.819824218760914-13.290771484369543,0-26.34521484375.996337890621362-39.133789062489996,2.819824218760914l7.825683593739996,54.433349609360448c10.23193359375-1.45556640625,20.67333984375-2.253173828121362,31.30810546875-2.253173828121362Z"/>
          </a>
          <a xlink:href="https://www.notion.so/dmmnotes/accepting-317d81273fff4cd9817cdf4a88efd378?pvs=4">
            <path id="B2-2" data-name="B2" class="cls-3" d="M268.691894531239996,82.253173828121362l-7.825683593739996-54.433349609360448c-26.439208984389552,3.767822265599534-51.643066406260004,11.311523437489086-75.098632812510004,22.042968749989086l22.83251953125,49.99951171875c18.7666015625-8.574951171889552,38.93505859375-14.601318359378638,60.091796875-17.609130859378638Z"/>
          </a>
          <a xlink:href="https://www.notion.so/dmmnotes/distanced-from-past-2eabab7e9c77429f8e577f4e3e203653?pvs=4">
            <path id="B1-2" data-name="B1" class="cls-2" d="M208.600097656239996,99.8623046875l-22.83251953125-49.99951171875c-23.99267578125,10.97314453125-46.1162109375,25.287109375-65.803955078119543,42.36181640625l35.972900390619543,41.515869140621362c15.75341796875-13.658691406260914,33.4619140625-25.1044921875,52.66357421875-33.878173828121362Z"/>
          </a>
          <a xlink:href="https://www.notion.so/dmmnotes/idealising-a52277f51ed14a42aae78081bb34b8be?pvs=4">
            <path id="A1-2" data-name="A1" class="cls-15" d="M155.936523437489996,133.740478515621362l-35.972900390619543-41.515869140621362c-19.765625,17.141845703110448-37.049804687510004,37.041748046871362-51.269775390630457,59.122314453121362l46.226318359370453,29.70751953125c11.373291015639552-17.673583984371362,25.201171875010004-33.598876953132276,41.016357421879547-47.31396484375Z"/>
          </a>
          <a xlink:href="https://www.notion.so/dmmnotes/distancing-9ac690cdca654729a17a5a255944e2d1?pvs=4">
            <path id="A2-2" data-name="A2" class="cls-8" d="M114.920166015610448,181.054443359371362l-46.226318359370453-29.70751953125c-14.04541015625,21.81201171875-25.08837890625,45.721435546867724-32.551513671879547,71.177734374989086l52.754882812510004,15.490234375c5.964599609369543-20.375244140621362,14.7919921875-39.509765624989086,26.022949218739996-56.960449218739086Z"/>
          </a>
          <a xlink:href="https://www.notion.so/dmmnotes/compulsive-caregiving-9c380c0928294f41ae10764aa0dee886?pvs=4">
            <path id="A3-2" data-name="A3" class="cls-13" d="M88.897216796870453,238.014892578110448l-52.754882812510004-15.490234375c-7.205322265620453,24.580810546878638-11.142333984370453,50.563476562496362-11.142333984370453,77.475341796885914h55c0-21.535400390619543,3.14208984375-42.321533203125,8.897216796880457-61.985107421885914Z"/>
          </a>
          <a xlink:href="https://www.notion.so/dmmnotes/compulsive-compliance-6d08b7ea9a424ce1a72b9184b7850414?pvs=4">
            <path id="A4-2" data-name="A4" class="cls-10" d="M79.999999999989996,299.999999999996362H24.999999999989996c0,26.911865234380457,3.93701171875,52.894531249989086,11.142333984370453,77.475341796880457l52.754882812510004-15.490234375c-5.755126953130457-19.66357421875-8.897216796880457-40.447021484380457-8.897216796880457-61.985107421880457Z"/>
          </a>
          <a xlink:href="https://www.notion.so/dmmnotes/sexual-supplementation-8e85f49046ef412aa229745abf7d38d3?pvs=4">
            <path id="A5-2" data-name="A5" class="cls-16" d="M88.897216796870453,361.985107421876819l-52.754882812510004,15.490234375c7.463134765629547,25.456298828119543,18.506103515629547,49.36572265625,32.551513671879547,71.175048828119543l46.223632812510004-29.704833984369543c-11.230957031260004-17.45068359375-20.055664062510004-36.58251953125-26.020263671879547-56.96044921875Z"/>
          </a>
          <a xlink:href="https://www.notion.so/dmmnotes/compulsive-isolated-self-reliance-b321873a73fa41aaaadd7192fde856a2?pvs=4">
            <path id="A6-2" data-name="A6" class="cls-16" d="M114.91748046875,418.945556640626819l-46.223632812510004,29.704833984369543c14.219970703120453,22.083251953130457,31.504150390630457,41.983154296880457,51.269775390630457,59.125l35.972900390619543-41.515869140619543c-15.815185546869543-13.71240234375-29.643066406239996-29.6376953125-41.019042968739996-47.31396484375Z"/>
          </a>
          <a xlink:href="https://www.notion.so/dmmnotes/delusional-idealization-743e2420b9994a48a7cab68190432e8a?pvs=4">
            <path id="A7-2" data-name="A7" class="cls-16" d="M155.936523437489996,466.259521484376819l-35.972900390619543,41.515869140619543c19.687744140619543,17.074707031239086,41.811279296869543,31.385986328130457,65.803955078119543,42.36181640625l22.83251953125-49.996826171869543c-19.20166015625-8.773681640630457-36.91015625-20.22216796875-52.66357421875-33.880859375Z"/>
          </a>
          <a xlink:href="https://www.notion.so/dmmnotes/externally-assembled-self-994ecb0895b844409b931d74a045c162?pvs=4">
            <path id="A8-2" data-name="A8" class="cls-16" d="M208.600097656239996,500.140380859376819l-22.83251953125,49.996826171869543c23.45556640625,10.7314453125,48.659423828120453,18.275146484380457,75.098632812510004,22.04296875l7.825683593739996-54.4306640625c-21.15673828125-3.0078125-41.3251953125-9.0341796875-60.091796875-17.609130859369543Z"/>
          </a>
          <a xlink:href="https://www.notion.so/dmmnotes/psychopathy-0fe4a3222d9f4fd097ab4546c9776768?pvs=4">
            <path id="AC-2" data-name="AC" class="cls-16" d="M299.999999999989996,519.999999999996362c-10.634765625,0-21.076171875-.794921875-31.30810546875-2.25048828125l-7.825683593739996,54.4306640625c12.788574218739996,1.823486328130457,25.843017578120453,2.81982421875,39.133789062489996,2.81982421875,13.290771484370453,0,26.345214843760004-.996337890619543,39.1337890625-2.81982421875l-7.825683593739996-54.4306640625c-10.229248046889552,1.45556640625-20.673339843760004,2.25048828125-31.308105468760004,2.25048828125Z"/>
          </a>
        </g>
      </g>
    </g>
  </g>
</svg>