<?xml version="1.0" encoding="UTF-8"?>
<svg id="Layer_1" data-name="Layer 1" xmlns="http://www.w3.org/2000/svg" width="600" height="599.999999999998181" xmlns:xlink="http://www.w3.org/1999/xlink" viewBox="0 0 600 599.999999999998181">
  <defs>
    <style>
      .cls-1 {
        fill: none;
        stroke-width: 15px;
      }

      .cls-1, .cls-2, .cls-3 {
        stroke: #181818;
        stroke-linecap: round;
        stroke-linejoin: round;
      }

      .cls-2 {
        fill: #268887;
      }

      .cls-2, .cls-3 {
        stroke-width: 2px;
      }

      .cls-3 {
        fill: #8f807d;
      }
    </style>
  </defs>
  <g id="pie_with_links_-5" data-name="pie (with links)">
    <g id="pie_with_links_-6" data-name="pie (with links)">
      <g id="Pie">
        <g>
          <a xlink:href="https://www.notion.so/dmmnotes/paranoid-ae38b1e6af0c4dd08f61e0d8f6e9f05f?pvs=4">
            <path id="C8" class="cls-1" d="M331.308105468757276,517.749511718748181l7.825683593742724,54.4306640625c26.439208984367724-3.767822265628638,51.645751953139552-11.3115234375,75.101318359367724-22.04296875l-22.832519531239086-49.996826171878638c-18.7666015625,8.572265625-38.93505859375,14.601318359378638-60.094482421871362,17.609130859378638Z"/>
          </a>
          <a xlink:href="https://www.notion.so/dmmnotes/menacing-a5bd7149286344deba45ec15e759e579?pvs=4">
            <path id="C7" class="cls-1" d="M391.402587890628638,500.140380859369543l22.832519531239086,49.996826171878638c23.989990234389552-10.975830078117724,46.116210937521828-25.287109375010914,65.803955078139552-42.36181640625l-35.972900390628638-41.515869140617724c-15.753417968760914,13.65869140625-33.459228515628638,25.104492187489086-52.66357421875,33.880859374989086Z"/>
          </a>
          <a xlink:href="https://www.notion.so/dmmnotes/seductively-obsessed-with-rescue-6fb5a68f6d334bc29ccccc16d8a4e56e?pvs=4">
            <path id="C6" class="cls-1" d="M444.066162109378638,466.259521484380457l35.972900390628638,41.515869140617724c19.762939453121362-17.141845703128638,37.047119140621362-37.041748046878638,51.26708984375-59.125l-46.223632812507276-29.704833984367724c-11.373291015621362,17.673583984367724-25.201171874992724,33.598876953117724-41.016357421871362,47.31396484375Z"/>
          </a>
          <a xlink:href="https://www.notion.so/dmmnotes/punitively-obsessed-with-revenge-33d2e77f37774316b42bccf4a60f9688?pvs=4">
            <path id="C5" class="cls-1" d="M485.08251953125,418.945556640630457l46.223632812507276,29.704833984367724c14.048095703132276-21.809326171878638,25.08837890625-45.71875,32.551513671871362-71.175048828128638l-52.7548828125-15.490234375c-5.9619140625,20.377929687510914-14.789306640621362,39.509765625-26.020263671878638,56.960449218760914Z"/>
          </a>
          <a xlink:href="https://www.notion.so/dmmnotes/feigned-helpless-e79a94b0498c4e109a681b7f3dcdb088?pvs=4">
            <path id="C4" class="cls-1" d="M520,300c0,21.538085937498181-3.142089843742724,42.321533203119543-8.897216796871362,61.985107421869543l52.7548828125,15.490234375c7.2080078125-24.583496093739086,11.142333984371362-50.5634765625,11.142333984371362-77.475341796869543h-55Z"/>
          </a>
          <a xlink:href="https://www.notion.so/dmmnotes/aggressive-2d8ccce383534b9dbfc7b4b10b8a5d5c?pvs=4">
            <path id="C3" class="cls-1" d="M520,300h55c0-26.911865234390461-3.934326171871362-52.894531250011823-11.142333984371362-77.475341796890461l-52.7548828125,15.490234375c5.755126953128638,19.663574218760914,8.897216796871362,40.449707031260914,8.897216796871362,61.985107421890461Z"/>
          </a>
          <a xlink:href="https://www.notion.so/dmmnotes/disarming-086276e599884c86b9359acf831a8b20?pvs=4">
            <path id="C2" class="cls-1" d="M511.102783203128638,238.014892578109539l52.7548828125-15.490234375c-7.463134765621362-25.456298828121362-18.503417968739086-49.365722656239086-32.551513671871362-71.177734374989086l-46.223632812507276,29.70751953125c11.230957031257276,17.45068359375,20.055664062507276,36.585205078117724,26.020263671878638,56.960449218739086Z"/>
          </a>
          <a xlink:href="https://www.notion.so/dmmnotes/threatening-348fe6a52f7a4fe69f768e98c6586932?pvs=4">
            <path id="C1" class="cls-1" d="M485.08251953125,181.054443359370453l46.223632812507276-29.70751953125c-14.219970703128638-22.08056640625-31.504150390628638-41.980468750010914-51.26708984375-59.122314453120453l-35.972900390628638,41.518554687488177c15.815185546878638,13.71240234375,29.64306640625,29.637695312511823,41.016357421871362,47.311279296882276Z"/>
          </a>
          <a xlink:href="https://www.notion.so/dmmnotes/complaining-acceptance-8b40401a720c493ba73f7cde1567cf3d?pvs=4">
            <path id="B5" class="cls-1" d="M444.066162109378638,133.743164062488177l35.972900390628638-41.518554687488177c-19.687744140617724-17.07470703125-41.81396484375-31.388671875-65.803955078139552-42.36181640625l-22.832519531239086,49.99951171875c19.204345703121362,8.773681640620453,36.910156249989086,20.22216796875,52.66357421875,33.880859374988177Z"/>
          </a>
          <a xlink:href="https://www.notion.so/dmmnotes/sentimental-bc554363322342b1b7ca4ccc02125049?pvs=4">
            <path id="B4" class="cls-1" d="M391.402587890628638,99.8623046875l22.832519531239086-49.99951171875c-23.455566406228172-10.7314453125-48.662109375-18.275146484390461-75.101318359367724-22.042968749990905l-7.825683593742724,54.433349609361358c21.159423828121362,3.0078125,41.327880859371362,9.034179687489086,60.094482421871362,17.609130859379547Z"/>
          </a>
          <a xlink:href="https://www.notion.so/dmmnotes/comfortably-balanced-e76dc615a8b947aa915377cd02fcf716?pvs=4">
            <path id="B3" class="cls-1" d="M300,80c10.634765625,0,21.078857421867724.797607421870453,31.308105468757276,2.253173828120453l7.825683593742724-54.433349609361358c-12.788574218742724-1.823486328138642-25.843017578132276-2.819824218759095-39.1337890625-2.819824218759095-13.290771484371362,0-26.34521484375.996337890620453-39.133789062492724,2.819824218759095l7.825683593742724,54.433349609361358c10.23193359375-1.45556640625,20.67333984375-2.253173828120453,31.30810546875-2.253173828120453Z"/>
          </a>
          <a xlink:href="https://www.notion.so/dmmnotes/accepting-317d81273fff4cd9817cdf4a88efd378?pvs=4">
            <path id="B2" class="cls-1" d="M268.69189453125,82.253173828120453l-7.825683593742724-54.433349609361358c-26.439208984389552,3.767822265600444-51.643066406257276,11.311523437490905-75.098632812507276,22.042968749990905l22.83251953125,49.99951171875c18.7666015625-8.574951171890461,38.93505859375-14.601318359379547,60.091796875-17.609130859379547Z"/>
          </a>
          <a xlink:href="https://www.notion.so/dmmnotes/distanced-from-past-2eabab7e9c77429f8e577f4e3e203653?pvs=4">
            <path id="B1" class="cls-1" d="M208.60009765625,99.8623046875l-22.83251953125-49.99951171875c-23.99267578125,10.97314453125-46.1162109375,25.287109375-65.803955078121362,42.36181640625l35.972900390621362,41.515869140620453c15.75341796875-13.658691406260914,33.4619140625-25.1044921875,52.66357421875-33.878173828120453Z"/>
          </a>
          <a xlink:href="https://www.notion.so/dmmnotes/idealising-a52277f51ed14a42aae78081bb34b8be?pvs=4">
            <path id="A1" class="cls-1" d="M155.9365234375,133.740478515620453l-35.972900390621362-41.515869140620453c-19.765625,17.141845703109539-37.049804687510914,37.041748046870453-51.269775390628638,59.122314453120453l46.226318359367724,29.70751953125c11.373291015639552-17.673583984370453,25.201171875010914-33.598876953132276,41.016357421882276-47.31396484375Z"/>
          </a>
          <a xlink:href="https://www.notion.so/dmmnotes/distancing-9ac690cdca654729a17a5a255944e2d1?pvs=4">
            <path id="A2" class="cls-1" d="M114.920166015617724,181.054443359370453l-46.226318359367724-29.70751953125c-14.04541015625,21.81201171875-25.08837890625,45.721435546867724-32.551513671882276,71.177734374989086l52.754882812510914,15.490234375c5.964599609371362-20.375244140621362,14.7919921875-39.509765624989086,26.022949218739086-56.960449218739086Z"/>
          </a>
          <a xlink:href="https://www.notion.so/dmmnotes/compulsive-caregiving-9c380c0928294f41ae10764aa0dee886?pvs=4">
            <path id="A3" class="cls-1" d="M88.897216796878638,238.014892578109539l-52.754882812510914-15.490234375c-7.205322265617724,24.580810546878638-11.142333984367724,50.5634765625-11.142333984367724,77.475341796890461h55c0-21.535400390629547,3.14208984375-42.321533203129547,8.897216796878638-61.985107421890461Z"/>
          </a>
          <a xlink:href="https://www.notion.so/dmmnotes/compulsive-compliance-6d08b7ea9a424ce1a72b9184b7850414?pvs=4">
            <path id="A4" class="cls-1" d="M80,300H25c0,26.911865234369543,3.93701171875,52.894531249987267,11.142333984367724,77.475341796869543l52.754882812510914-15.490234375c-5.755126953128638-19.66357421875-8.897216796878638-40.447021484371362-8.897216796878638-61.985107421869543Z"/>
          </a>
          <a xlink:href="https://www.notion.so/dmmnotes/sexual-supplementation-8e85f49046ef412aa229745abf7d38d3?pvs=4">
            <path id="A5" class="cls-1" d="M88.897216796878638,361.985107421869543l-52.754882812510914,15.490234375c7.463134765632276,25.456298828128638,18.506103515632276,49.36572265625,32.551513671882276,71.175048828128638l46.223632812507276-29.704833984367724c-11.230957031257276-17.450683593760914-20.055664062507276-36.58251953125-26.020263671878638-56.960449218760914Z"/>
          </a>
          <a xlink:href="https://www.notion.so/dmmnotes/compulsive-isolated-self-reliance-b321873a73fa41aaaadd7192fde856a2?pvs=4">
            <path id="A6" class="cls-1" d="M114.917480468757276,418.945556640630457l-46.223632812507276,29.704833984367724c14.219970703117724,22.083251953121362,31.504150390628638,41.983154296871362,51.269775390628638,59.125l35.972900390621362-41.515869140617724c-15.815185546871362-13.712402343760914-29.643066406242724-29.637695312510914-41.019042968742724-47.31396484375Z"/>
          </a>
          <a xlink:href="https://www.notion.so/dmmnotes/delusional-idealization-743e2420b9994a48a7cab68190432e8a?pvs=4">
            <path id="A7" class="cls-1" d="M155.9365234375,466.259521484380457l-35.972900390621362,41.515869140617724c19.687744140621362,17.074707031239086,41.811279296871362,31.385986328132276,65.803955078121362,42.36181640625l22.83251953125-49.996826171878638c-19.20166015625-8.773681640621362-36.91015625-20.222167968739086-52.66357421875-33.880859374989086Z"/>
          </a>
          <a xlink:href="https://www.notion.so/dmmnotes/externally-assembled-self-994ecb0895b844409b931d74a045c162?pvs=4">
            <path id="A8" class="cls-1" d="M208.60009765625,500.140380859369543l-22.83251953125,49.996826171878638c23.45556640625,10.7314453125,48.659423828117724,18.275146484371362,75.098632812507276,22.04296875l7.825683593742724-54.4306640625c-21.15673828125-3.0078125-41.3251953125-9.0341796875-60.091796875-17.609130859378638Z"/>
          </a>
          <a xlink:href="https://www.notion.so/dmmnotes/psychopathy-0fe4a3222d9f4fd097ab4546c9776768?pvs=4">
            <path id="AC" class="cls-1" d="M300,519.999999999998181c-10.634765625,0-21.076171875-.794921875-31.30810546875-2.25048828125l-7.825683593742724,54.4306640625c12.788574218742724,1.823486328132276,25.843017578121362,2.81982421875,39.133789062492724,2.81982421875,13.290771484367724,0,26.345214843757276-.996337890617724,39.1337890625-2.81982421875l-7.825683593742724-54.4306640625c-10.229248046889552,1.45556640625-20.673339843757276,2.25048828125-31.308105468757276,2.25048828125Z"/>
          </a>
        </g>
        <g>
          <a xlink:href="https://www.notion.so/dmmnotes/paranoid-ae38b1e6af0c4dd08f61e0d8f6e9f05f?pvs=4">
            <path id="C8-2" data-name="C8" class="cls-3" d="M331.308105468757276,517.749511718748181l7.825683593742724,54.4306640625c26.439208984367724-3.767822265628638,51.645751953139552-11.3115234375,75.101318359367724-22.04296875l-22.832519531239086-49.996826171878638c-18.7666015625,8.572265625-38.93505859375,14.601318359378638-60.094482421871362,17.609130859378638Z"/>
          </a>
          <a xlink:href="https://www.notion.so/dmmnotes/menacing-a5bd7149286344deba45ec15e759e579?pvs=4">
            <path id="C7-2" data-name="C7" class="cls-3" d="M391.402587890628638,500.140380859369543l22.832519531239086,49.996826171878638c23.989990234389552-10.975830078117724,46.116210937521828-25.287109375010914,65.803955078139552-42.36181640625l-35.972900390628638-41.515869140617724c-15.753417968760914,13.65869140625-33.459228515628638,25.104492187489086-52.66357421875,33.880859374989086Z"/>
          </a>
          <a xlink:href="https://www.notion.so/dmmnotes/seductively-obsessed-with-rescue-6fb5a68f6d334bc29ccccc16d8a4e56e?pvs=4">
            <path id="C6-2" data-name="C6" class="cls-3" d="M444.066162109378638,466.259521484380457l35.972900390628638,41.515869140617724c19.762939453121362-17.141845703128638,37.047119140621362-37.041748046878638,51.26708984375-59.125l-46.223632812507276-29.704833984367724c-11.373291015621362,17.673583984367724-25.201171874992724,33.598876953117724-41.016357421871362,47.31396484375Z"/>
          </a>
          <a xlink:href="https://www.notion.so/dmmnotes/punitively-obsessed-with-revenge-33d2e77f37774316b42bccf4a60f9688?pvs=4">
            <path id="C5-2" data-name="C5" class="cls-3" d="M485.08251953125,418.945556640630457l46.223632812507276,29.704833984367724c14.048095703132276-21.809326171878638,25.08837890625-45.71875,32.551513671871362-71.175048828128638l-52.7548828125-15.490234375c-5.9619140625,20.377929687510914-14.789306640621362,39.509765625-26.020263671878638,56.960449218760914Z"/>
          </a>
          <a xlink:href="https://www.notion.so/dmmnotes/feigned-helpless-e79a94b0498c4e109a681b7f3dcdb088?pvs=4">
            <path id="C4-2" data-name="C4" class="cls-3" d="M520,300c0,21.538085937498181-3.142089843742724,42.321533203119543-8.897216796871362,61.985107421869543l52.7548828125,15.490234375c7.2080078125-24.583496093739086,11.142333984371362-50.5634765625,11.142333984371362-77.475341796869543h-55Z"/>
          </a>
          <a xlink:href="https://www.notion.so/dmmnotes/aggressive-2d8ccce383534b9dbfc7b4b10b8a5d5c?pvs=4">
            <path id="C3-2" data-name="C3" class="cls-3" d="M520,300h55c0-26.911865234390461-3.934326171871362-52.894531250011823-11.142333984371362-77.475341796890461l-52.7548828125,15.490234375c5.755126953128638,19.663574218760914,8.897216796871362,40.449707031260914,8.897216796871362,61.985107421890461Z"/>
          </a>
          <a xlink:href="https://www.notion.so/dmmnotes/disarming-086276e599884c86b9359acf831a8b20?pvs=4">
            <path id="C2-2" data-name="C2" class="cls-3" d="M511.102783203128638,238.014892578109539l52.7548828125-15.490234375c-7.463134765621362-25.456298828121362-18.503417968739086-49.365722656239086-32.551513671871362-71.177734374989086l-46.223632812507276,29.70751953125c11.230957031257276,17.45068359375,20.055664062507276,36.585205078117724,26.020263671878638,56.960449218739086Z"/>
          </a>
          <a xlink:href="https://www.notion.so/dmmnotes/threatening-348fe6a52f7a4fe69f768e98c6586932?pvs=4">
            <path id="C1-2" data-name="C1" class="cls-3" d="M485.08251953125,181.054443359370453l46.223632812507276-29.70751953125c-14.219970703128638-22.08056640625-31.504150390628638-41.980468750010914-51.26708984375-59.122314453120453l-35.972900390628638,41.518554687488177c15.815185546878638,13.71240234375,29.64306640625,29.637695312511823,41.016357421871362,47.311279296882276Z"/>
          </a>
          <a xlink:href="https://www.notion.so/dmmnotes/complaining-acceptance-8b40401a720c493ba73f7cde1567cf3d?pvs=4">
            <path id="B5-2" data-name="B5" class="cls-3" d="M444.066162109378638,133.743164062488177l35.972900390628638-41.518554687488177c-19.687744140617724-17.07470703125-41.81396484375-31.388671875-65.803955078139552-42.36181640625l-22.832519531239086,49.99951171875c19.204345703121362,8.773681640620453,36.910156249989086,20.22216796875,52.66357421875,33.880859374988177Z"/>
          </a>
          <a xlink:href="https://www.notion.so/dmmnotes/sentimental-bc554363322342b1b7ca4ccc02125049?pvs=4">
            <path id="B4-2" data-name="B4" class="cls-3" d="M391.402587890628638,99.8623046875l22.832519531239086-49.99951171875c-23.455566406228172-10.7314453125-48.662109375-18.275146484390461-75.101318359367724-22.042968749990905l-7.825683593742724,54.433349609361358c21.159423828121362,3.0078125,41.327880859371362,9.034179687489086,60.094482421871362,17.609130859379547Z"/>
          </a>
          <a xlink:href="https://www.notion.so/dmmnotes/comfortably-balanced-e76dc615a8b947aa915377cd02fcf716?pvs=4">
            <path id="B3-2" data-name="B3" class="cls-2" d="M300,80c10.634765625,0,21.078857421867724.797607421870453,31.308105468757276,2.253173828120453l7.825683593742724-54.433349609361358c-12.788574218742724-1.823486328138642-25.843017578132276-2.819824218759095-39.1337890625-2.819824218759095-13.290771484371362,0-26.34521484375.996337890620453-39.133789062492724,2.819824218759095l7.825683593742724,54.433349609361358c10.23193359375-1.45556640625,20.67333984375-2.253173828120453,31.30810546875-2.253173828120453Z"/>
          </a>
          <a xlink:href="https://www.notion.so/dmmnotes/accepting-317d81273fff4cd9817cdf4a88efd378?pvs=4">
            <path id="B2-2" data-name="B2" class="cls-3" d="M268.69189453125,82.253173828120453l-7.825683593742724-54.433349609361358c-26.439208984389552,3.767822265600444-51.643066406257276,11.311523437490905-75.098632812507276,22.042968749990905l22.83251953125,49.99951171875c18.7666015625-8.574951171890461,38.93505859375-14.601318359379547,60.091796875-17.609130859379547Z"/>
          </a>
          <a xlink:href="https://www.notion.so/dmmnotes/distanced-from-past-2eabab7e9c77429f8e577f4e3e203653?pvs=4">
            <path id="B1-2" data-name="B1" class="cls-3" d="M208.60009765625,99.8623046875l-22.83251953125-49.99951171875c-23.99267578125,10.97314453125-46.1162109375,25.287109375-65.803955078121362,42.36181640625l35.972900390621362,41.515869140620453c15.75341796875-13.658691406260914,33.4619140625-25.1044921875,52.66357421875-33.878173828120453Z"/>
          </a>
          <a xlink:href="https://www.notion.so/dmmnotes/idealising-a52277f51ed14a42aae78081bb34b8be?pvs=4">
            <path id="A1-2" data-name="A1" class="cls-3" d="M155.9365234375,133.740478515620453l-35.972900390621362-41.515869140620453c-19.765625,17.141845703109539-37.049804687510914,37.041748046870453-51.269775390628638,59.122314453120453l46.226318359367724,29.70751953125c11.373291015639552-17.673583984370453,25.201171875010914-33.598876953132276,41.016357421882276-47.31396484375Z"/>
          </a>
          <a xlink:href="https://www.notion.so/dmmnotes/distancing-9ac690cdca654729a17a5a255944e2d1?pvs=4">
            <path id="A2-2" data-name="A2" class="cls-3" d="M114.920166015617724,181.054443359370453l-46.226318359367724-29.70751953125c-14.04541015625,21.81201171875-25.08837890625,45.721435546867724-32.551513671882276,71.177734374989086l52.754882812510914,15.490234375c5.964599609371362-20.375244140621362,14.7919921875-39.509765624989086,26.022949218739086-56.960449218739086Z"/>
          </a>
          <a xlink:href="https://www.notion.so/dmmnotes/compulsive-caregiving-9c380c0928294f41ae10764aa0dee886?pvs=4">
            <path id="A3-2" data-name="A3" class="cls-3" d="M88.897216796878638,238.014892578109539l-52.754882812510914-15.490234375c-7.205322265617724,24.580810546878638-11.142333984367724,50.5634765625-11.142333984367724,77.475341796890461h55c0-21.535400390629547,3.14208984375-42.321533203129547,8.897216796878638-61.985107421890461Z"/>
          </a>
          <a xlink:href="https://www.notion.so/dmmnotes/compulsive-compliance-6d08b7ea9a424ce1a72b9184b7850414?pvs=4">
            <path id="A4-2" data-name="A4" class="cls-3" d="M80,300H25c0,26.911865234369543,3.93701171875,52.894531249987267,11.142333984367724,77.475341796869543l52.754882812510914-15.490234375c-5.755126953128638-19.66357421875-8.897216796878638-40.447021484371362-8.897216796878638-61.985107421869543Z"/>
          </a>
          <a xlink:href="https://www.notion.so/dmmnotes/sexual-supplementation-8e85f49046ef412aa229745abf7d38d3?pvs=4">
            <path id="A5-2" data-name="A5" class="cls-3" d="M88.897216796878638,361.985107421869543l-52.754882812510914,15.490234375c7.463134765632276,25.456298828128638,18.506103515632276,49.36572265625,32.551513671882276,71.175048828128638l46.223632812507276-29.704833984367724c-11.230957031257276-17.450683593760914-20.055664062507276-36.58251953125-26.020263671878638-56.960449218760914Z"/>
          </a>
          <a xlink:href="https://www.notion.so/dmmnotes/compulsive-isolated-self-reliance-b321873a73fa41aaaadd7192fde856a2?pvs=4">
            <path id="A6-2" data-name="A6" class="cls-3" d="M114.917480468757276,418.945556640630457l-46.223632812507276,29.704833984367724c14.219970703117724,22.083251953121362,31.504150390628638,41.983154296871362,51.269775390628638,59.125l35.972900390621362-41.515869140617724c-15.815185546871362-13.712402343760914-29.643066406242724-29.637695312510914-41.019042968742724-47.31396484375Z"/>
          </a>
          <a xlink:href="https://www.notion.so/dmmnotes/delusional-idealization-743e2420b9994a48a7cab68190432e8a?pvs=4">
            <path id="A7-2" data-name="A7" class="cls-3" d="M155.9365234375,466.259521484380457l-35.972900390621362,41.515869140617724c19.687744140621362,17.074707031239086,41.811279296871362,31.385986328132276,65.803955078121362,42.36181640625l22.83251953125-49.996826171878638c-19.20166015625-8.773681640621362-36.91015625-20.222167968739086-52.66357421875-33.880859374989086Z"/>
          </a>
          <a xlink:href="https://www.notion.so/dmmnotes/externally-assembled-self-994ecb0895b844409b931d74a045c162?pvs=4">
            <path id="A8-2" data-name="A8" class="cls-3" d="M208.60009765625,500.140380859369543l-22.83251953125,49.996826171878638c23.45556640625,10.7314453125,48.659423828117724,18.275146484371362,75.098632812507276,22.04296875l7.825683593742724-54.4306640625c-21.15673828125-3.0078125-41.3251953125-9.0341796875-60.091796875-17.609130859378638Z"/>
          </a>
          <a xlink:href="https://www.notion.so/dmmnotes/psychopathy-0fe4a3222d9f4fd097ab4546c9776768?pvs=4">
            <path id="AC-2" data-name="AC" class="cls-3" d="M300,519.999999999998181c-10.634765625,0-21.076171875-.794921875-31.30810546875-2.25048828125l-7.825683593742724,54.4306640625c12.788574218742724,1.823486328132276,25.843017578121362,2.81982421875,39.133789062492724,2.81982421875,13.290771484367724,0,26.345214843757276-.996337890617724,39.1337890625-2.81982421875l-7.825683593742724-54.4306640625c-10.229248046889552,1.45556640625-20.673339843757276,2.25048828125-31.308105468757276,2.25048828125Z"/>
          </a>
        </g>
      </g>
    </g>
  </g>
</svg>