<?xml version="1.0" encoding="UTF-8"?>
<svg id="Layer_1" data-name="Layer 1" xmlns="http://www.w3.org/2000/svg" width="600" height="600.000000000005457" xmlns:xlink="http://www.w3.org/1999/xlink" viewBox="0 0 600 600.000000000005457">
  <defs>
    <style>
      .cls-1 {
        fill: #b9638b;
      }

      .cls-1, .cls-2, .cls-3, .cls-4 {
        stroke: #181818;
        stroke-linecap: round;
        stroke-linejoin: round;
      }

      .cls-1, .cls-3, .cls-4 {
        stroke-width: 2px;
      }

      .cls-2 {
        fill: none;
        stroke-width: 15px;
      }

      .cls-3 {
        fill: #aa6490;
      }

      .cls-4 {
        fill: #8f807d;
      }
    </style>
  </defs>
  <g id="pie_with_links_-5" data-name="pie (with links)">
    <g id="pie_with_links_-6" data-name="pie (with links)">
      <g id="Pie">
        <g>
          <a xlink:href="https://www.notion.so/dmmnotes/paranoid-ae38b1e6af0c4dd08f61e0d8f6e9f05f?pvs=4">
            <path id="C8" class="cls-2" d="M331.308105468760004,517.74951171875l7.825683593739996,54.430664062500909c26.439208984369543-3.767822265630457,51.645751953139552-11.311523437500909,75.101318359369543-22.042968750000909l-22.832519531239086-49.996826171879547c-18.7666015625,8.572265625-38.93505859375,14.601318359379547-60.094482421870453,17.609130859379547Z"/>
          </a>
          <a xlink:href="https://www.notion.so/dmmnotes/menacing-a5bd7149286344deba45ec15e759e579?pvs=4">
            <path id="C7" class="cls-2" d="M391.402587890630457,500.140380859370453l22.832519531239086,49.996826171879547c23.989990234390461-10.975830078119543,46.116210937520009-25.287109375009095,65.803955078140461-42.36181640625l-35.972900390629547-41.515869140619543c-15.753417968760914,13.65869140625-33.459228515630457,25.104492187489996-52.66357421875,33.880859374989996Z"/>
          </a>
          <a xlink:href="https://www.notion.so/dmmnotes/seductively-obsessed-with-rescue-6fb5a68f6d334bc29ccccc16d8a4e56e?pvs=4">
            <path id="C6" class="cls-2" d="M444.066162109380457,466.259521484380457l35.972900390629547,41.515869140619543c19.762939453120453-17.141845703129547,37.047119140620453-37.041748046879547,51.26708984375-59.125l-46.223632812510004-29.704833984369543c-11.373291015619543,17.673583984369543-25.201171874989996,33.598876953119543-41.016357421869543,47.31396484375Z"/>
          </a>
          <a xlink:href="https://www.notion.so/dmmnotes/punitively-obsessed-with-revenge-33d2e77f37774316b42bccf4a60f9688?pvs=4">
            <path id="C5" class="cls-2" d="M485.08251953125,418.945556640630457l46.223632812510004,29.704833984369543c14.048095703129547-21.809326171879547,25.08837890625-45.71875,32.551513671870453-71.175048828130457l-52.7548828125-15.490234375c-5.9619140625,20.377929687510914-14.789306640620453,39.509765625000909-26.020263671880457,56.960449218760914Z"/>
          </a>
          <a xlink:href="https://www.notion.so/dmmnotes/feigned-helpless-e79a94b0498c4e109a681b7f3dcdb088?pvs=4">
            <path id="C4" class="cls-2" d="M520,300c0,21.5380859375-3.142089843739996,42.321533203119543-8.897216796869543,61.985107421869543l52.7548828125,15.490234375c7.2080078125-24.583496093739086,11.142333984369543-50.5634765625,11.142333984369543-77.475341796869543h-55Z"/>
          </a>
          <a xlink:href="https://www.notion.so/dmmnotes/aggressive-2d8ccce383534b9dbfc7b4b10b8a5d5c?pvs=4">
            <path id="C3" class="cls-2" d="M520,300h55c0-26.911865234389552-3.934326171869543-52.894531250009095-11.142333984369543-77.475341796880457l-52.7548828125,15.490234374990905c5.755126953129547,19.663574218759095,8.897216796869543,40.449707031259095,8.897216796869543,61.985107421889552Z"/>
          </a>
          <a xlink:href="https://www.notion.so/dmmnotes/disarming-086276e599884c86b9359acf831a8b20?pvs=4">
            <path id="C2" class="cls-2" d="M511.102783203130457,238.014892578110448l52.7548828125-15.490234374990905c-7.463134765620453-25.456298828128638-18.503417968740905-49.36572265625-32.551513671870453-71.177734375l-46.223632812510004,29.70751953125c11.230957031260004,17.45068359375,20.055664062510004,36.585205078121362,26.020263671880457,56.960449218740905Z"/>
          </a>
          <a xlink:href="https://www.notion.so/dmmnotes/threatening-348fe6a52f7a4fe69f768e98c6586932?pvs=4">
            <path id="C1" class="cls-2" d="M485.08251953125,181.054443359369543l46.223632812510004-29.70751953125c-14.219970703129547-22.08056640625-31.504150390629547-41.980468750009095-51.26708984375-59.122314453128638l-35.972900390629547,41.5185546875c15.815185546879547,13.71240234375,29.64306640625,29.637695312509095,41.016357421869543,47.311279296878638Z"/>
          </a>
          <a xlink:href="https://www.notion.so/dmmnotes/complaining-acceptance-8b40401a720c493ba73f7cde1567cf3d?pvs=4">
            <path id="B5" class="cls-2" d="M444.066162109380457,133.743164062490905l35.972900390629547-41.5185546875c-19.687744140620453-17.07470703125-41.81396484375-31.388671875-65.803955078140461-42.36181640625l-22.832519531239086,49.99951171875c19.204345703119543,8.773681640628638,36.910156249989086,20.22216796875,52.66357421875,33.880859375Z"/>
          </a>
          <a xlink:href="https://www.notion.so/dmmnotes/sentimental-bc554363322342b1b7ca4ccc02125049?pvs=4">
            <path id="B4" class="cls-2" d="M391.402587890630457,99.862304687490905l22.832519531239086-49.99951171875c-23.455566406229991-10.7314453125-48.662109375-18.275146484380457-75.101318359369543-22.042968749979991l-7.825683593739996,54.433349609358629c21.159423828120453,3.0078125,41.327880859370453,9.034179687490905,60.094482421870453,17.609130859371362Z"/>
          </a>
          <a xlink:href="https://www.notion.so/dmmnotes/comfortably-balanced-e76dc615a8b947aa915377cd02fcf716?pvs=4">
            <path id="B3" class="cls-2" d="M300,79.999999999990905c10.634765625,0,21.078857421869543.797607421878638,31.308105468760004,2.253173828128638l7.825683593739996-54.433349609358629c-12.788574218739996-1.823486328141371-25.843017578130457-2.819824218770009-39.1337890625-2.819824218770009s-26.34521484375.996337890628638-39.133789062489996,2.819824218770009l7.825683593739996,54.433349609358629c10.23193359375-1.45556640625,20.67333984375-2.253173828128638,31.30810546875-2.253173828128638Z"/>
          </a>
          <a xlink:href="https://www.notion.so/dmmnotes/accepting-317d81273fff4cd9817cdf4a88efd378?pvs=4">
            <path id="B2" class="cls-2" d="M268.69189453125,82.253173828119543l-7.825683593739996-54.433349609358629c-26.439208984390461,3.767822265599534-51.643066406260004,11.311523437479991-75.098632812510004,22.042968749979991l22.83251953125,49.99951171875c18.7666015625-8.574951171880457,38.93505859375-14.601318359371362,60.091796875-17.609130859371362Z"/>
          </a>
          <a xlink:href="https://www.notion.so/dmmnotes/distanced-from-past-2eabab7e9c77429f8e577f4e3e203653?pvs=4">
            <path id="B1" class="cls-2" d="M208.60009765625,99.862304687490905l-22.83251953125-49.99951171875c-23.99267578125,10.97314453125-46.1162109375,25.287109375-65.803955078119543,42.36181640625l35.972900390619543,41.515869140628638c15.75341796875-13.658691406259095,33.4619140625-25.1044921875,52.66357421875-33.878173828128638Z"/>
          </a>
          <a xlink:href="https://www.notion.so/dmmnotes/idealising-a52277f51ed14a42aae78081bb34b8be?pvs=4">
            <path id="A1" class="cls-2" d="M155.9365234375,133.740478515619543l-35.972900390619543-41.515869140628638c-19.765625,17.141845703119543-37.049804687510914,37.041748046878638-51.269775390630457,59.122314453128638l46.226318359369543,29.70751953125c11.373291015640461-17.673583984369543,25.201171875010914-33.598876953128638,41.016357421880457-47.31396484375Z"/>
          </a>
          <a xlink:href="https://www.notion.so/dmmnotes/distancing-9ac690cdca654729a17a5a255944e2d1?pvs=4">
            <path id="A2" class="cls-2" d="M114.920166015619543,181.054443359369543l-46.226318359369543-29.70751953125c-14.04541015625,21.81201171875-25.08837890625,45.721435546871362-32.551513671880457,71.177734375l52.754882812510914,15.490234374990905c5.964599609369543-20.375244140619543,14.7919921875-39.509765624990905,26.022949218739086-56.960449218740905Z"/>
          </a>
          <a xlink:href="https://www.notion.so/dmmnotes/compulsive-caregiving-9c380c0928294f41ae10764aa0dee886?pvs=4">
            <path id="A3" class="cls-2" d="M88.897216796880457,238.014892578110448l-52.754882812510914-15.490234374990905c-7.205322265619543,24.580810546871362-11.142333984369543,50.563476562490905-11.142333984369543,77.475341796880457h55c0-21.535400390630457,3.14208984375-42.321533203130457,8.897216796880457-61.985107421889552Z"/>
          </a>
          <a xlink:href="https://www.notion.so/dmmnotes/compulsive-compliance-6d08b7ea9a424ce1a72b9184b7850414?pvs=4">
            <path id="A4" class="cls-2" d="M80,300H25c0,26.911865234369543,3.93701171875,52.894531249990905,11.142333984369543,77.475341796869543l52.754882812510914-15.490234375c-5.755126953130457-19.66357421875-8.897216796880457-40.447021484369543-8.897216796880457-61.985107421869543Z"/>
          </a>
          <a xlink:href="https://www.notion.so/dmmnotes/sexual-supplementation-8e85f49046ef412aa229745abf7d38d3?pvs=4">
            <path id="A5" class="cls-2" d="M88.897216796880457,361.985107421869543l-52.754882812510914,15.490234375c7.463134765630457,25.456298828130457,18.506103515630457,49.365722656250909,32.551513671880457,71.175048828130457l46.223632812510004-29.704833984369543c-11.230957031260004-17.450683593760004-20.055664062510004-36.58251953125-26.020263671879547-56.960449218760914Z"/>
          </a>
          <a xlink:href="https://www.notion.so/dmmnotes/compulsive-isolated-self-reliance-b321873a73fa41aaaadd7192fde856a2?pvs=4">
            <path id="A6" class="cls-2" d="M114.917480468760004,418.945556640630457l-46.223632812510004,29.704833984369543c14.219970703119543,22.083251953120453,31.504150390630457,41.983154296870453,51.269775390630457,59.125l35.972900390619543-41.515869140619543c-15.815185546869543-13.712402343760004-29.643066406239996-29.637695312510004-41.019042968739996-47.31396484375Z"/>
          </a>
          <a xlink:href="https://www.notion.so/dmmnotes/delusional-idealization-743e2420b9994a48a7cab68190432e8a?pvs=4">
            <path id="A7" class="cls-2" d="M155.9365234375,466.259521484380457l-35.972900390619543,41.515869140619543c19.687744140619543,17.074707031240905,41.811279296869543,31.385986328130457,65.803955078119543,42.36181640625l22.83251953125-49.996826171879547c-19.20166015625-8.773681640620453-36.91015625-20.222167968739996-52.66357421875-33.880859374989996Z"/>
          </a>
          <a xlink:href="https://www.notion.so/dmmnotes/externally-assembled-self-994ecb0895b844409b931d74a045c162?pvs=4">
            <path id="A8" class="cls-2" d="M208.60009765625,500.140380859370453l-22.83251953125,49.996826171879547c23.45556640625,10.7314453125,48.659423828119543,18.275146484370453,75.098632812510004,22.042968750000909l7.825683593739996-54.430664062500909c-21.15673828125-3.0078125-41.3251953125-9.0341796875-60.091796875-17.609130859379547Z"/>
          </a>
          <a xlink:href="https://www.notion.so/dmmnotes/psychopathy-0fe4a3222d9f4fd097ab4546c9776768?pvs=4">
            <path id="AC" class="cls-2" d="M300,520c-10.634765625,0-21.076171875-.794921875-31.30810546875-2.25048828125l-7.825683593739996,54.430664062500909c12.788574218739996,1.823486328129547,25.843017578120453,2.81982421875,39.133789062489996,2.81982421875s26.345214843760004-.996337890620453,39.1337890625-2.81982421875l-7.825683593739996-54.430664062500909c-10.229248046890461,1.45556640625-20.673339843760004,2.25048828125-31.308105468760004,2.25048828125Z"/>
          </a>
        </g>
        <g>
          <a xlink:href="https://www.notion.so/dmmnotes/paranoid-ae38b1e6af0c4dd08f61e0d8f6e9f05f?pvs=4">
            <path id="C8-2" data-name="C8" class="cls-4" d="M331.308105468760004,517.74951171875l7.825683593739996,54.430664062500909c26.439208984369543-3.767822265630457,51.645751953139552-11.311523437500909,75.101318359369543-22.042968750000909l-22.832519531239086-49.996826171879547c-18.7666015625,8.572265625-38.93505859375,14.601318359379547-60.094482421870453,17.609130859379547Z"/>
          </a>
          <a xlink:href="https://www.notion.so/dmmnotes/menacing-a5bd7149286344deba45ec15e759e579?pvs=4">
            <path id="C7-2" data-name="C7" class="cls-4" d="M391.402587890630457,500.140380859370453l22.832519531239086,49.996826171879547c23.989990234390461-10.975830078119543,46.116210937520009-25.287109375009095,65.803955078140461-42.36181640625l-35.972900390629547-41.515869140619543c-15.753417968760914,13.65869140625-33.459228515630457,25.104492187489996-52.66357421875,33.880859374989996Z"/>
          </a>
          <a xlink:href="https://www.notion.so/dmmnotes/seductively-obsessed-with-rescue-6fb5a68f6d334bc29ccccc16d8a4e56e?pvs=4">
            <path id="C6-2" data-name="C6" class="cls-4" d="M444.066162109380457,466.259521484380457l35.972900390629547,41.515869140619543c19.762939453120453-17.141845703129547,37.047119140620453-37.041748046879547,51.26708984375-59.125l-46.223632812510004-29.704833984369543c-11.373291015619543,17.673583984369543-25.201171874989996,33.598876953119543-41.016357421869543,47.31396484375Z"/>
          </a>
          <a xlink:href="https://www.notion.so/dmmnotes/punitively-obsessed-with-revenge-33d2e77f37774316b42bccf4a60f9688?pvs=4">
            <path id="C5-2" data-name="C5" class="cls-4" d="M485.08251953125,418.945556640630457l46.223632812510004,29.704833984369543c14.048095703129547-21.809326171879547,25.08837890625-45.71875,32.551513671870453-71.175048828130457l-52.7548828125-15.490234375c-5.9619140625,20.377929687510914-14.789306640620453,39.509765625000909-26.020263671880457,56.960449218760914Z"/>
          </a>
          <a xlink:href="https://www.notion.so/dmmnotes/feigned-helpless-e79a94b0498c4e109a681b7f3dcdb088?pvs=4">
            <path id="C4-2" data-name="C4" class="cls-4" d="M520,300c0,21.5380859375-3.142089843739996,42.321533203119543-8.897216796869543,61.985107421869543l52.7548828125,15.490234375c7.2080078125-24.583496093739086,11.142333984369543-50.5634765625,11.142333984369543-77.475341796869543h-55Z"/>
          </a>
          <a xlink:href="https://www.notion.so/dmmnotes/aggressive-2d8ccce383534b9dbfc7b4b10b8a5d5c?pvs=4">
            <path id="C3-2" data-name="C3" class="cls-4" d="M520,300h55c0-26.911865234389552-3.934326171869543-52.894531250009095-11.142333984369543-77.475341796880457l-52.7548828125,15.490234374990905c5.755126953129547,19.663574218759095,8.897216796869543,40.449707031259095,8.897216796869543,61.985107421889552Z"/>
          </a>
          <a xlink:href="https://www.notion.so/dmmnotes/disarming-086276e599884c86b9359acf831a8b20?pvs=4">
            <path id="C2-2" data-name="C2" class="cls-4" d="M511.102783203130457,238.014892578110448l52.7548828125-15.490234374990905c-7.463134765620453-25.456298828128638-18.503417968740905-49.36572265625-32.551513671870453-71.177734375l-46.223632812510004,29.70751953125c11.230957031260004,17.45068359375,20.055664062510004,36.585205078121362,26.020263671880457,56.960449218740905Z"/>
          </a>
          <a xlink:href="https://www.notion.so/dmmnotes/threatening-348fe6a52f7a4fe69f768e98c6586932?pvs=4">
            <path id="C1-2" data-name="C1" class="cls-4" d="M485.08251953125,181.054443359369543l46.223632812510004-29.70751953125c-14.219970703129547-22.08056640625-31.504150390629547-41.980468750009095-51.26708984375-59.122314453128638l-35.972900390629547,41.5185546875c15.815185546879547,13.71240234375,29.64306640625,29.637695312509095,41.016357421869543,47.311279296878638Z"/>
          </a>
          <a xlink:href="https://www.notion.so/dmmnotes/complaining-acceptance-8b40401a720c493ba73f7cde1567cf3d?pvs=4">
            <path id="B5-2" data-name="B5" class="cls-4" d="M444.066162109380457,133.743164062490905l35.972900390629547-41.5185546875c-19.687744140620453-17.07470703125-41.81396484375-31.388671875-65.803955078140461-42.36181640625l-22.832519531239086,49.99951171875c19.204345703119543,8.773681640628638,36.910156249989086,20.22216796875,52.66357421875,33.880859375Z"/>
          </a>
          <a xlink:href="https://www.notion.so/dmmnotes/sentimental-bc554363322342b1b7ca4ccc02125049?pvs=4">
            <path id="B4-2" data-name="B4" class="cls-4" d="M391.402587890630457,99.862304687490905l22.832519531239086-49.99951171875c-23.455566406229991-10.7314453125-48.662109375-18.275146484380457-75.101318359369543-22.042968749979991l-7.825683593739996,54.433349609358629c21.159423828120453,3.0078125,41.327880859370453,9.034179687490905,60.094482421870453,17.609130859371362Z"/>
          </a>
          <a xlink:href="https://www.notion.so/dmmnotes/comfortably-balanced-e76dc615a8b947aa915377cd02fcf716?pvs=4">
            <path id="B3-2" data-name="B3" class="cls-4" d="M300,79.999999999990905c10.634765625,0,21.078857421869543.797607421878638,31.308105468760004,2.253173828128638l7.825683593739996-54.433349609358629c-12.788574218739996-1.823486328141371-25.843017578130457-2.819824218770009-39.1337890625-2.819824218770009s-26.34521484375.996337890628638-39.133789062489996,2.819824218770009l7.825683593739996,54.433349609358629c10.23193359375-1.45556640625,20.67333984375-2.253173828128638,31.30810546875-2.253173828128638Z"/>
          </a>
          <a xlink:href="https://www.notion.so/dmmnotes/accepting-317d81273fff4cd9817cdf4a88efd378?pvs=4">
            <path id="B2-2" data-name="B2" class="cls-4" d="M268.69189453125,82.253173828119543l-7.825683593739996-54.433349609358629c-26.439208984390461,3.767822265599534-51.643066406260004,11.311523437479991-75.098632812510004,22.042968749979991l22.83251953125,49.99951171875c18.7666015625-8.574951171880457,38.93505859375-14.601318359371362,60.091796875-17.609130859371362Z"/>
          </a>
          <a xlink:href="https://www.notion.so/dmmnotes/distanced-from-past-2eabab7e9c77429f8e577f4e3e203653?pvs=4">
            <path id="B1-2" data-name="B1" class="cls-4" d="M208.60009765625,99.862304687490905l-22.83251953125-49.99951171875c-23.99267578125,10.97314453125-46.1162109375,25.287109375-65.803955078119543,42.36181640625l35.972900390619543,41.515869140628638c15.75341796875-13.658691406259095,33.4619140625-25.1044921875,52.66357421875-33.878173828128638Z"/>
          </a>
          <a xlink:href="https://www.notion.so/dmmnotes/idealising-a52277f51ed14a42aae78081bb34b8be?pvs=4">
            <path id="A1-2" data-name="A1" class="cls-4" d="M155.9365234375,133.740478515619543l-35.972900390619543-41.515869140628638c-19.765625,17.141845703119543-37.049804687510914,37.041748046878638-51.269775390630457,59.122314453128638l46.226318359369543,29.70751953125c11.373291015640461-17.673583984369543,25.201171875010914-33.598876953128638,41.016357421880457-47.31396484375Z"/>
          </a>
          <a xlink:href="https://www.notion.so/dmmnotes/distancing-9ac690cdca654729a17a5a255944e2d1?pvs=4">
            <path id="A2-2" data-name="A2" class="cls-4" d="M114.920166015619543,181.054443359369543l-46.226318359369543-29.70751953125c-14.04541015625,21.81201171875-25.08837890625,45.721435546871362-32.551513671880457,71.177734375l52.754882812510914,15.490234374990905c5.964599609369543-20.375244140619543,14.7919921875-39.509765624990905,26.022949218739086-56.960449218740905Z"/>
          </a>
          <a xlink:href="https://www.notion.so/dmmnotes/compulsive-caregiving-9c380c0928294f41ae10764aa0dee886?pvs=4">
            <path id="A3-2" data-name="A3" class="cls-4" d="M88.897216796880457,238.014892578110448l-52.754882812510914-15.490234374990905c-7.205322265619543,24.580810546871362-11.142333984369543,50.563476562490905-11.142333984369543,77.475341796880457h55c0-21.535400390630457,3.14208984375-42.321533203130457,8.897216796880457-61.985107421889552Z"/>
          </a>
          <a xlink:href="https://www.notion.so/dmmnotes/compulsive-compliance-6d08b7ea9a424ce1a72b9184b7850414?pvs=4">
            <path id="A4-2" data-name="A4" class="cls-4" d="M80,300H25c0,26.911865234369543,3.93701171875,52.894531249990905,11.142333984369543,77.475341796869543l52.754882812510914-15.490234375c-5.755126953130457-19.66357421875-8.897216796880457-40.447021484369543-8.897216796880457-61.985107421869543Z"/>
          </a>
          <a xlink:href="https://www.notion.so/dmmnotes/sexual-supplementation-8e85f49046ef412aa229745abf7d38d3?pvs=4">
            <path id="A5-2" data-name="A5" class="cls-3" d="M88.897216796880457,361.985107421869543l-52.754882812510914,15.490234375c7.463134765630457,25.456298828130457,18.506103515630457,49.365722656250909,32.551513671880457,71.175048828130457l46.223632812510004-29.704833984369543c-11.230957031260004-17.450683593760004-20.055664062510004-36.58251953125-26.020263671879547-56.960449218760914Z"/>
          </a>
          <a xlink:href="https://www.notion.so/dmmnotes/compulsive-isolated-self-reliance-b321873a73fa41aaaadd7192fde856a2?pvs=4">
            <path id="A6-2" data-name="A6" class="cls-1" d="M114.917480468760004,418.945556640630457l-46.223632812510004,29.704833984369543c14.219970703119543,22.083251953120453,31.504150390630457,41.983154296870453,51.269775390630457,59.125l35.972900390619543-41.515869140619543c-15.815185546869543-13.712402343760004-29.643066406239996-29.637695312510004-41.019042968739996-47.31396484375Z"/>
          </a>
          <a xlink:href="https://www.notion.so/dmmnotes/delusional-idealization-743e2420b9994a48a7cab68190432e8a?pvs=4">
            <path id="A7-2" data-name="A7" class="cls-4" d="M155.9365234375,466.259521484380457l-35.972900390619543,41.515869140619543c19.687744140619543,17.074707031240905,41.811279296869543,31.385986328130457,65.803955078119543,42.36181640625l22.83251953125-49.996826171879547c-19.20166015625-8.773681640620453-36.91015625-20.222167968739996-52.66357421875-33.880859374989996Z"/>
          </a>
          <a xlink:href="https://www.notion.so/dmmnotes/externally-assembled-self-994ecb0895b844409b931d74a045c162?pvs=4">
            <path id="A8-2" data-name="A8" class="cls-4" d="M208.60009765625,500.140380859370453l-22.83251953125,49.996826171879547c23.45556640625,10.7314453125,48.659423828119543,18.275146484370453,75.098632812510004,22.042968750000909l7.825683593739996-54.430664062500909c-21.15673828125-3.0078125-41.3251953125-9.0341796875-60.091796875-17.609130859379547Z"/>
          </a>
          <a xlink:href="https://www.notion.so/dmmnotes/psychopathy-0fe4a3222d9f4fd097ab4546c9776768?pvs=4">
            <path id="AC-2" data-name="AC" class="cls-4" d="M300,520c-10.634765625,0-21.076171875-.794921875-31.30810546875-2.25048828125l-7.825683593739996,54.430664062500909c12.788574218739996,1.823486328129547,25.843017578120453,2.81982421875,39.133789062489996,2.81982421875s26.345214843760004-.996337890620453,39.1337890625-2.81982421875l-7.825683593739996-54.430664062500909c-10.229248046890461,1.45556640625-20.673339843760004,2.25048828125-31.308105468760004,2.25048828125Z"/>
          </a>
        </g>
      </g>
    </g>
  </g>
</svg>