<?xml version="1.0" encoding="UTF-8"?>
<svg id="Layer_1" data-name="Layer 1" xmlns="http://www.w3.org/2000/svg" xmlns:xlink="http://www.w3.org/1999/xlink" viewBox="0 0 600 600.000000000003638">
  <g id="pie_with_links_-5" data-name="pie (with links)">
    <g id="pie_with_links_-6" data-name="pie (with links)">
      <g id="Pie">
        <g>
          <a xlink:href="https://www.notion.so/dmmnotes/paranoid-ae38b1e6af0c4dd08f61e0d8f6e9f05f?pvs=4">
            <path id="C8" d="M331.308105468759095,517.749511718753638l7.825683593739086,54.4306640625c26.439208984371362-3.767822265632276,51.645751953139552-11.3115234375,75.101318359367724-22.04296875l-22.832519531235448-49.996826171882276c-18.7666015625,8.572265625-38.93505859375,14.601318359382276-60.094482421871362,17.609130859382276Z" fill="none" stroke="#000" stroke-linecap="round" stroke-linejoin="round" stroke-width="7"/>
          </a>
          <a xlink:href="https://www.notion.so/dmmnotes/menacing-a5bd7149286344deba45ec15e759e579?pvs=4">
            <path id="C7" d="M391.402587890630457,500.140380859371362l22.832519531235448,49.996826171882276c23.98999023439319-10.975830078121362,46.116210937521828-25.287109375010914,65.80395507814319-42.36181640625l-35.972900390632276-41.515869140621362c-15.753417968760914,13.65869140625-33.459228515628638,25.104492187489086-52.663574218746362,33.880859374989086Z" fill="none" stroke="#000" stroke-linecap="round" stroke-linejoin="round" stroke-width="7"/>
          </a>
          <a xlink:href="https://www.notion.so/dmmnotes/seductively-obsessed-with-rescue-6fb5a68f6d334bc29ccccc16d8a4e56e?pvs=4">
            <path id="C6" d="M444.066162109376819,466.259521484382276l35.972900390632276,41.515869140621362c19.762939453117724-17.141845703132276,37.047119140617724-37.041748046882276,51.26708984375-59.125l-46.223632812510914-29.704833984371362c-11.373291015621362,17.673583984371362-25.201171874989086,33.598876953121362-41.016357421871362,47.31396484375Z" fill="none" stroke="#000" stroke-linecap="round" stroke-linejoin="round" stroke-width="7"/>
          </a>
          <a xlink:href="https://www.notion.so/dmmnotes/punitively-obsessed-with-revenge-33d2e77f37774316b42bccf4a60f9688?pvs=4">
            <path id="C5" d="M485.082519531248181,418.945556640632276l46.223632812510914,29.704833984371362c14.048095703128638-21.809326171882276,25.088378906253638-45.71875,32.551513671871362-71.175048828132276l-52.754882812503638-15.490234375c-5.9619140625,20.377929687510914-14.789306640617724,39.509765625-26.020263671878638,56.960449218760914Z" fill="none" stroke="#000" stroke-linecap="round" stroke-linejoin="round" stroke-width="7"/>
          </a>
          <a xlink:href="https://www.notion.so/dmmnotes/feigned-helpless-e79a94b0498c4e109a681b7f3dcdb088?pvs=4">
            <path id="C4" d="M519.999999999998181,300.000000000003638c0,21.5380859375-3.142089843739086,42.321533203117724-8.897216796871362,61.985107421867724l52.754882812503638,15.490234375c7.2080078125-24.583496093739086,11.142333984371362-50.5634765625,11.142333984371362-77.475341796867724h-55.000000000003638Z" fill="none" stroke="#000" stroke-linecap="round" stroke-linejoin="round" stroke-width="7"/>
          </a>
          <a xlink:href="https://www.notion.so/dmmnotes/aggressive-2d8ccce383534b9dbfc7b4b10b8a5d5c?pvs=4">
            <path id="C3" d="M519.999999999998181,300.000000000003638h55.000000000003638c0-26.911865234389552-3.934326171871362-52.894531250010914-11.142333984371362-77.475341796888642l-52.754882812503638,15.490234374999091c5.755126953132276,19.663574218757276,8.897216796871362,40.449707031257276,8.897216796871362,61.985107421889552Z" fill="none" stroke="#000" stroke-linecap="round" stroke-linejoin="round" stroke-width="7"/>
          </a>
          <a xlink:href="https://www.notion.so/dmmnotes/disarming-086276e599884c86b9359acf831a8b20?pvs=4">
            <path id="C2" d="M511.102783203126819,238.014892578114086l52.754882812503638-15.490234374999091c-7.463134765617724-25.456298828121362-18.503417968742724-49.365722656242724-32.551513671871362-71.177734374992724l-46.223632812510914,29.70751953125c11.230957031260914,17.45068359375,20.055664062510914,36.585205078121362,26.020263671878638,56.960449218741815Z" fill="none" stroke="#000" stroke-linecap="round" stroke-linejoin="round" stroke-width="7"/>
          </a>
          <a xlink:href="https://www.notion.so/dmmnotes/threatening-348fe6a52f7a4fe69f768e98c6586932?pvs=4">
            <path id="C1" d="M485.082519531248181,181.054443359372272l46.223632812510914-29.70751953125c-14.219970703132276-22.08056640625-31.504150390632276-41.980468750010004-51.26708984375-59.122314453127728l-35.972900390632276,41.518554687499091c15.815185546882276,13.71240234375,29.64306640625,29.637695312510914,41.016357421871362,47.311279296878638Z" fill="none" stroke="#000" stroke-linecap="round" stroke-linejoin="round" stroke-width="7"/>
          </a>
          <a xlink:href="https://www.notion.so/dmmnotes/complaining-acceptance-8b40401a720c493ba73f7cde1567cf3d?pvs=4">
            <path id="B5" d="M444.066162109376819,133.743164062493634l35.972900390632276-41.518554687499091c-19.687744140621362-17.07470703125-41.81396484375-31.388671875-65.80395507814319-42.36181640625l-22.832519531235448,49.99951171875c19.204345703117724,8.773681640628638,36.910156249985448,20.22216796875,52.663574218746362,33.880859374999091Z" fill="none" stroke="#000" stroke-linecap="round" stroke-linejoin="round" stroke-width="7"/>
          </a>
          <a xlink:href="https://www.notion.so/dmmnotes/sentimental-bc554363322342b1b7ca4ccc02125049?pvs=4">
            <path id="B4" d="M391.402587890630457,99.862304687494543l22.832519531235448-49.99951171875c-23.455566406228172-10.7314453125-48.662109374996362-18.275146484382276-75.101318359367724-22.042968749989086l-7.825683593739086,54.433349609367724c21.159423828121362,3.0078125,41.327880859371362,9.034179687489086,60.094482421871362,17.609130859371362Z" fill="none" stroke="#000" stroke-linecap="round" stroke-linejoin="round" stroke-width="7"/>
          </a>
          <a xlink:href="https://www.notion.so/dmmnotes/comfortably-balanced-e76dc615a8b947aa915377cd02fcf716?pvs=4">
            <path id="B3" d="M299.999999999998181,79.999999999994543c10.634765625,0,21.078857421871362.797607421878638,31.308105468760914,2.253173828128638l7.825683593739086-54.433349609367724c-12.788574218739086-1.823486328132276-25.843017578128638-2.819824218760914-39.1337890625-2.819824218760914-13.290771484367724,0-26.34521484375.996337890628638-39.133789062489086,2.819824218760914l7.825683593739086,54.433349609367724c10.23193359375-1.45556640625,20.67333984375-2.253173828128638,31.30810546875-2.253173828128638Z" fill="none" stroke="#000" stroke-linecap="round" stroke-linejoin="round" stroke-width="7"/>
          </a>
          <a xlink:href="https://www.notion.so/dmmnotes/accepting-317d81273fff4cd9817cdf4a88efd378?pvs=4">
            <path id="B2" d="M268.691894531248181,82.253173828123181l-7.825683593739086-54.433349609367724c-26.439208984389552,3.76782226560681-51.643066406260914,11.311523437489086-75.098632812510914,22.042968749989086l22.83251953125,49.99951171875c18.7666015625-8.574951171882276,38.93505859375-14.601318359371362,60.091796875-17.609130859371362Z" fill="none" stroke="#000" stroke-linecap="round" stroke-linejoin="round" stroke-width="7"/>
          </a>
          <a xlink:href="https://www.notion.so/dmmnotes/distanced-from-past-2eabab7e9c77429f8e577f4e3e203653?pvs=4">
            <path id="B1" d="M208.600097656248181,99.862304687494543l-22.83251953125-49.99951171875c-23.99267578125,10.97314453125-46.1162109375,25.287109375-65.803955078121362,42.36181640625l35.972900390621362,41.515869140627728c15.75341796875-13.658691406260004,33.4619140625-25.104492187499091,52.66357421875-33.878173828127728Z" fill="none" stroke="#000" stroke-linecap="round" stroke-linejoin="round" stroke-width="7"/>
          </a>
          <a xlink:href="https://www.notion.so/dmmnotes/idealising-a52277f51ed14a42aae78081bb34b8be?pvs=4">
            <path id="A1" d="M155.936523437498181,133.740478515622272l-35.972900390621362-41.515869140627728c-19.765625,17.141845703117724-37.049804687507276,37.041748046877728-51.269775390628638,59.122314453127728l46.226318359371362,29.70751953125c11.373291015639552-17.673583984367724,25.201171875007276-33.598876953128638,41.016357421878638-47.31396484375Z" fill="none" stroke="#000" stroke-linecap="round" stroke-linejoin="round" stroke-width="7"/>
          </a>
          <a xlink:href="https://www.notion.so/dmmnotes/distancing-9ac690cdca654729a17a5a255944e2d1?pvs=4">
            <path id="A2" d="M114.920166015619543,181.054443359372272l-46.226318359371362-29.70751953125c-14.04541015625,21.81201171875-25.08837890625,45.721435546871362-32.551513671878638,71.177734374992724l52.754882812510914,15.490234374999091c5.964599609367724-20.375244140620453,14.791992187496362-39.509765624991815,26.022949218739086-56.960449218741815Z" fill="none" stroke="#000" stroke-linecap="round" stroke-linejoin="round" stroke-width="7"/>
          </a>
          <a xlink:href="https://www.notion.so/dmmnotes/compulsive-caregiving-9c380c0928294f41ae10764aa0dee886?pvs=4">
            <path id="A3" d="M88.897216796880457,238.014892578114086l-52.754882812510914-15.490234374999091c-7.205322265621362,24.580810546877728-11.142333984371362,50.563476562499091-11.142333984371362,77.475341796888642h55c0-21.535400390632276,3.14208984375-42.321533203132276,8.897216796882276-61.985107421889552Z" fill="none" stroke="#000" stroke-linecap="round" stroke-linejoin="round" stroke-width="7"/>
          </a>
          <a xlink:href="https://www.notion.so/dmmnotes/compulsive-compliance-6d08b7ea9a424ce1a72b9184b7850414?pvs=4">
            <path id="A4" d="M79.999999999998181,300.000000000003638H24.999999999998181c0,26.911865234367724,3.93701171875,52.894531249989086,11.142333984371362,77.475341796867724l52.754882812510914-15.490234375c-5.755126953132276-19.66357421875-8.897216796882276-40.447021484367724-8.897216796882276-61.985107421867724Z" fill="none" stroke="#000" stroke-linecap="round" stroke-linejoin="round" stroke-width="7"/>
          </a>
          <a xlink:href="https://www.notion.so/dmmnotes/sexual-supplementation-8e85f49046ef412aa229745abf7d38d3?pvs=4">
            <path id="A5" d="M88.897216796880457,361.985107421871362l-52.754882812510914,15.490234375c7.463134765628638,25.456298828132276,18.506103515628638,49.36572265625,32.551513671878638,71.175048828132276l46.223632812510914-29.704833984371362c-11.230957031260914-17.450683593760914-20.055664062510914-36.58251953125-26.020263671878638-56.960449218760914Z" fill="none" stroke="#000" stroke-linecap="round" stroke-linejoin="round" stroke-width="7"/>
          </a>
          <a xlink:href="https://www.notion.so/dmmnotes/compulsive-isolated-self-reliance-b321873a73fa41aaaadd7192fde856a2?pvs=4">
            <path id="A6" d="M114.917480468759095,418.945556640632276l-46.223632812510914,29.704833984371362c14.219970703121362,22.083251953117724,31.504150390628638,41.983154296867724,51.269775390628638,59.125l35.972900390621362-41.515869140621362c-15.815185546871362-13.712402343760914-29.643066406239086-29.637695312510914-41.019042968739086-47.31396484375Z" fill="none" stroke="#000" stroke-linecap="round" stroke-linejoin="round" stroke-width="7"/>
          </a>
          <a xlink:href="https://www.notion.so/dmmnotes/delusional-idealization-743e2420b9994a48a7cab68190432e8a?pvs=4">
            <path id="A7" d="M155.936523437498181,466.259521484382276l-35.972900390621362,41.515869140621362c19.687744140621362,17.074707031239086,41.811279296871362,31.385986328128638,65.803955078121362,42.36181640625l22.83251953125-49.996826171882276c-19.20166015625-8.773681640617724-36.91015625-20.222167968739086-52.66357421875-33.880859374989086Z" fill="none" stroke="#000" stroke-linecap="round" stroke-linejoin="round" stroke-width="7"/>
          </a>
          <a xlink:href="https://www.notion.so/dmmnotes/externally-assembled-self-994ecb0895b844409b931d74a045c162?pvs=4">
            <path id="A8" d="M208.600097656248181,500.140380859371362l-22.83251953125,49.996826171882276c23.45556640625,10.7314453125,48.659423828121362,18.275146484367724,75.098632812510914,22.04296875l7.825683593739086-54.4306640625c-21.15673828125-3.0078125-41.3251953125-9.0341796875-60.091796875-17.609130859382276Z" fill="none" stroke="#000" stroke-linecap="round" stroke-linejoin="round" stroke-width="7"/>
          </a>
          <a xlink:href="https://www.notion.so/dmmnotes/psychopathy-0fe4a3222d9f4fd097ab4546c9776768?pvs=4">
            <path id="AC" d="M299.999999999998181,520.000000000003638c-10.634765625,0-21.076171875-.794921875-31.30810546875-2.25048828125l-7.825683593739086,54.4306640625c12.788574218739086,1.823486328128638,25.843017578121362,2.81982421875,39.133789062489086,2.81982421875,13.290771484371362,0,26.345214843760914-.996337890621362,39.1337890625-2.81982421875l-7.825683593739086-54.4306640625c-10.229248046889552,1.45556640625-20.673339843760914,2.25048828125-31.308105468760914,2.25048828125Z" fill="none" stroke="#000" stroke-linecap="round" stroke-linejoin="round" stroke-width="7"/>
          </a>
        </g>
        <g>
          <a xlink:href="https://www.notion.so/dmmnotes/paranoid-ae38b1e6af0c4dd08f61e0d8f6e9f05f?pvs=4">
            <path id="C8-2" data-name="C8" d="M331.308105468759095,517.749511718753638l7.825683593739086,54.4306640625c26.439208984371362-3.767822265632276,51.645751953139552-11.3115234375,75.101318359367724-22.04296875l-22.832519531235448-49.996826171882276c-18.7666015625,8.572265625-38.93505859375,14.601318359382276-60.094482421871362,17.609130859382276Z" fill="#8f807d" stroke="#000" stroke-linecap="round" stroke-linejoin="round" stroke-width="2"/>
          </a>
          <a xlink:href="https://www.notion.so/dmmnotes/menacing-a5bd7149286344deba45ec15e759e579?pvs=4">
            <path id="C7-2" data-name="C7" d="M391.402587890630457,500.140380859371362l22.832519531235448,49.996826171882276c23.98999023439319-10.975830078121362,46.116210937521828-25.287109375010914,65.80395507814319-42.36181640625l-35.972900390632276-41.515869140621362c-15.753417968760914,13.65869140625-33.459228515628638,25.104492187489086-52.663574218746362,33.880859374989086Z" fill="#8f807d" stroke="#000" stroke-linecap="round" stroke-linejoin="round" stroke-width="2"/>
          </a>
          <a xlink:href="https://www.notion.so/dmmnotes/seductively-obsessed-with-rescue-6fb5a68f6d334bc29ccccc16d8a4e56e?pvs=4">
            <path id="C6-2" data-name="C6" d="M444.066162109376819,466.259521484382276l35.972900390632276,41.515869140621362c19.762939453117724-17.141845703132276,37.047119140617724-37.041748046882276,51.26708984375-59.125l-46.223632812510914-29.704833984371362c-11.373291015621362,17.673583984371362-25.201171874989086,33.598876953121362-41.016357421871362,47.31396484375Z" fill="#8f807d" stroke="#000" stroke-linecap="round" stroke-linejoin="round" stroke-width="2"/>
          </a>
          <a xlink:href="https://www.notion.so/dmmnotes/punitively-obsessed-with-revenge-33d2e77f37774316b42bccf4a60f9688?pvs=4">
            <path id="C5-2" data-name="C5" d="M485.082519531248181,418.945556640632276l46.223632812510914,29.704833984371362c14.048095703128638-21.809326171882276,25.088378906253638-45.71875,32.551513671871362-71.175048828132276l-52.754882812503638-15.490234375c-5.9619140625,20.377929687510914-14.789306640617724,39.509765625-26.020263671878638,56.960449218760914Z" fill="#8f807d" stroke="#000" stroke-linecap="round" stroke-linejoin="round" stroke-width="2"/>
          </a>
          <a xlink:href="https://www.notion.so/dmmnotes/feigned-helpless-e79a94b0498c4e109a681b7f3dcdb088?pvs=4">
            <path id="C4-2" data-name="C4" d="M519.999999999998181,300.000000000003638c0,21.5380859375-3.142089843739086,42.321533203117724-8.897216796871362,61.985107421867724l52.754882812503638,15.490234375c7.2080078125-24.583496093739086,11.142333984371362-50.5634765625,11.142333984371362-77.475341796867724h-55.000000000003638Z" fill="#8f807d" stroke="#000" stroke-linecap="round" stroke-linejoin="round" stroke-width="2"/>
          </a>
          <a xlink:href="https://www.notion.so/dmmnotes/aggressive-2d8ccce383534b9dbfc7b4b10b8a5d5c?pvs=4">
            <path id="C3-2" data-name="C3" d="M519.999999999998181,300.000000000003638h55.000000000003638c0-26.911865234389552-3.934326171871362-52.894531250010914-11.142333984371362-77.475341796888642l-52.754882812503638,15.490234374999091c5.755126953132276,19.663574218757276,8.897216796871362,40.449707031257276,8.897216796871362,61.985107421889552Z" fill="#8f807d" stroke="#000" stroke-linecap="round" stroke-linejoin="round" stroke-width="2"/>
          </a>
          <a xlink:href="https://www.notion.so/dmmnotes/disarming-086276e599884c86b9359acf831a8b20?pvs=4">
            <path id="C2-2" data-name="C2" d="M511.102783203126819,238.014892578114086l52.754882812503638-15.490234374999091c-7.463134765617724-25.456298828121362-18.503417968742724-49.365722656242724-32.551513671871362-71.177734374992724l-46.223632812510914,29.70751953125c11.230957031260914,17.45068359375,20.055664062510914,36.585205078121362,26.020263671878638,56.960449218741815Z" fill="#8f807d" stroke="#000" stroke-linecap="round" stroke-linejoin="round" stroke-width="2"/>
          </a>
          <a xlink:href="https://www.notion.so/dmmnotes/threatening-348fe6a52f7a4fe69f768e98c6586932?pvs=4">
            <path id="C1-2" data-name="C1" d="M485.082519531248181,181.054443359372272l46.223632812510914-29.70751953125c-14.219970703132276-22.08056640625-31.504150390632276-41.980468750010004-51.26708984375-59.122314453127728l-35.972900390632276,41.518554687499091c15.815185546882276,13.71240234375,29.64306640625,29.637695312510914,41.016357421871362,47.311279296878638Z" fill="#8f807d" stroke="#000" stroke-linecap="round" stroke-linejoin="round" stroke-width="2"/>
          </a>
          <a xlink:href="https://www.notion.so/dmmnotes/complaining-acceptance-8b40401a720c493ba73f7cde1567cf3d?pvs=4">
            <path id="B5-2" data-name="B5" d="M444.066162109376819,133.743164062493634l35.972900390632276-41.518554687499091c-19.687744140621362-17.07470703125-41.81396484375-31.388671875-65.80395507814319-42.36181640625l-22.832519531235448,49.99951171875c19.204345703117724,8.773681640628638,36.910156249985448,20.22216796875,52.663574218746362,33.880859374999091Z" fill="#8f807d" stroke="#000" stroke-linecap="round" stroke-linejoin="round" stroke-width="2"/>
          </a>
          <a xlink:href="https://www.notion.so/dmmnotes/sentimental-bc554363322342b1b7ca4ccc02125049?pvs=4">
            <path id="B4-2" data-name="B4" d="M391.402587890630457,99.862304687494543l22.832519531235448-49.99951171875c-23.455566406228172-10.7314453125-48.662109374996362-18.275146484382276-75.101318359367724-22.042968749989086l-7.825683593739086,54.433349609367724c21.159423828121362,3.0078125,41.327880859371362,9.034179687489086,60.094482421871362,17.609130859371362Z" fill="#8f807d" stroke="#000" stroke-linecap="round" stroke-linejoin="round" stroke-width="2"/>
          </a>
          <a xlink:href="https://www.notion.so/dmmnotes/comfortably-balanced-e76dc615a8b947aa915377cd02fcf716?pvs=4">
            <path id="B3-2" data-name="B3" d="M299.999999999998181,79.999999999994543c10.634765625,0,21.078857421871362.797607421878638,31.308105468760914,2.253173828128638l7.825683593739086-54.433349609367724c-12.788574218739086-1.823486328132276-25.843017578128638-2.819824218760914-39.1337890625-2.819824218760914-13.290771484367724,0-26.34521484375.996337890628638-39.133789062489086,2.819824218760914l7.825683593739086,54.433349609367724c10.23193359375-1.45556640625,20.67333984375-2.253173828128638,31.30810546875-2.253173828128638Z" fill="#8f807d" stroke="#000" stroke-linecap="round" stroke-linejoin="round" stroke-width="2"/>
          </a>
          <a xlink:href="https://www.notion.so/dmmnotes/accepting-317d81273fff4cd9817cdf4a88efd378?pvs=4">
            <path id="B2-2" data-name="B2" d="M268.691894531248181,82.253173828123181l-7.825683593739086-54.433349609367724c-26.439208984389552,3.76782226560681-51.643066406260914,11.311523437489086-75.098632812510914,22.042968749989086l22.83251953125,49.99951171875c18.7666015625-8.574951171882276,38.93505859375-14.601318359371362,60.091796875-17.609130859371362Z" fill="#8f807d" stroke="#000" stroke-linecap="round" stroke-linejoin="round" stroke-width="2"/>
          </a>
          <a xlink:href="https://www.notion.so/dmmnotes/distanced-from-past-2eabab7e9c77429f8e577f4e3e203653?pvs=4">
            <path id="B1-2" data-name="B1" d="M208.600097656248181,99.862304687494543l-22.83251953125-49.99951171875c-23.99267578125,10.97314453125-46.1162109375,25.287109375-65.803955078121362,42.36181640625l35.972900390621362,41.515869140627728c15.75341796875-13.658691406260004,33.4619140625-25.104492187499091,52.66357421875-33.878173828127728Z" fill="#8f807d" stroke="#000" stroke-linecap="round" stroke-linejoin="round" stroke-width="2"/>
          </a>
          <a xlink:href="https://www.notion.so/dmmnotes/idealising-a52277f51ed14a42aae78081bb34b8be?pvs=4">
            <path id="A1-2" data-name="A1" d="M155.936523437498181,133.740478515622272l-35.972900390621362-41.515869140627728c-19.765625,17.141845703117724-37.049804687507276,37.041748046877728-51.269775390628638,59.122314453127728l46.226318359371362,29.70751953125c11.373291015639552-17.673583984367724,25.201171875007276-33.598876953128638,41.016357421878638-47.31396484375Z" fill="#8f807d" stroke="#000" stroke-linecap="round" stroke-linejoin="round" stroke-width="2"/>
          </a>
          <a xlink:href="https://www.notion.so/dmmnotes/distancing-9ac690cdca654729a17a5a255944e2d1?pvs=4">
            <path id="A2-2" data-name="A2" d="M114.920166015619543,181.054443359372272l-46.226318359371362-29.70751953125c-14.04541015625,21.81201171875-25.08837890625,45.721435546871362-32.551513671878638,71.177734374992724l52.754882812510914,15.490234374999091c5.964599609367724-20.375244140620453,14.791992187496362-39.509765624991815,26.022949218739086-56.960449218741815Z" fill="#8f807d" stroke="#000" stroke-linecap="round" stroke-linejoin="round" stroke-width="2"/>
          </a>
          <a xlink:href="https://www.notion.so/dmmnotes/compulsive-caregiving-9c380c0928294f41ae10764aa0dee886?pvs=4">
            <path id="A3-2" data-name="A3" d="M88.897216796880457,238.014892578114086l-52.754882812510914-15.490234374999091c-7.205322265621362,24.580810546877728-11.142333984371362,50.563476562499091-11.142333984371362,77.475341796888642h55c0-21.535400390632276,3.14208984375-42.321533203132276,8.897216796882276-61.985107421889552Z" fill="#8f807d" stroke="#000" stroke-linecap="round" stroke-linejoin="round" stroke-width="2"/>
          </a>
          <a xlink:href="https://www.notion.so/dmmnotes/compulsive-compliance-6d08b7ea9a424ce1a72b9184b7850414?pvs=4">
            <path id="A4-2" data-name="A4" d="M79.999999999998181,300.000000000003638H24.999999999998181c0,26.911865234367724,3.93701171875,52.894531249989086,11.142333984371362,77.475341796867724l52.754882812510914-15.490234375c-5.755126953132276-19.66357421875-8.897216796882276-40.447021484367724-8.897216796882276-61.985107421867724Z" fill="#8f807d" stroke="#000" stroke-linecap="round" stroke-linejoin="round" stroke-width="2"/>
          </a>
          <a xlink:href="https://www.notion.so/dmmnotes/sexual-supplementation-8e85f49046ef412aa229745abf7d38d3?pvs=4">
            <path id="A5-2" data-name="A5" d="M88.897216796880457,361.985107421871362l-52.754882812510914,15.490234375c7.463134765628638,25.456298828132276,18.506103515628638,49.36572265625,32.551513671878638,71.175048828132276l46.223632812510914-29.704833984371362c-11.230957031260914-17.450683593760914-20.055664062510914-36.58251953125-26.020263671878638-56.960449218760914Z" fill="#aa6490" stroke="#000" stroke-linecap="round" stroke-linejoin="round" stroke-width="2"/>
          </a>
          <a xlink:href="https://www.notion.so/dmmnotes/compulsive-isolated-self-reliance-b321873a73fa41aaaadd7192fde856a2?pvs=4">
            <path id="A6-2" data-name="A6" d="M114.917480468759095,418.945556640632276l-46.223632812510914,29.704833984371362c14.219970703121362,22.083251953117724,31.504150390628638,41.983154296867724,51.269775390628638,59.125l35.972900390621362-41.515869140621362c-15.815185546871362-13.712402343760914-29.643066406239086-29.637695312510914-41.019042968739086-47.31396484375Z" fill="#b9638b" stroke="#000" stroke-linecap="round" stroke-linejoin="round" stroke-width="2"/>
          </a>
          <a xlink:href="https://www.notion.so/dmmnotes/delusional-idealization-743e2420b9994a48a7cab68190432e8a?pvs=4">
            <path id="A7-2" data-name="A7" d="M155.936523437498181,466.259521484382276l-35.972900390621362,41.515869140621362c19.687744140621362,17.074707031239086,41.811279296871362,31.385986328128638,65.803955078121362,42.36181640625l22.83251953125-49.996826171882276c-19.20166015625-8.773681640617724-36.91015625-20.222167968739086-52.66357421875-33.880859374989086Z" fill="#8f807d" stroke="#000" stroke-linecap="round" stroke-linejoin="round" stroke-width="2"/>
          </a>
          <a xlink:href="https://www.notion.so/dmmnotes/externally-assembled-self-994ecb0895b844409b931d74a045c162?pvs=4">
            <path id="A8-2" data-name="A8" d="M208.600097656248181,500.140380859371362l-22.83251953125,49.996826171882276c23.45556640625,10.7314453125,48.659423828121362,18.275146484367724,75.098632812510914,22.04296875l7.825683593739086-54.4306640625c-21.15673828125-3.0078125-41.3251953125-9.0341796875-60.091796875-17.609130859382276Z" fill="#8f807d" stroke="#000" stroke-linecap="round" stroke-linejoin="round" stroke-width="2"/>
          </a>
          <a xlink:href="https://www.notion.so/dmmnotes/psychopathy-0fe4a3222d9f4fd097ab4546c9776768?pvs=4">
            <path id="AC-2" data-name="AC" d="M299.999999999998181,520.000000000003638c-10.634765625,0-21.076171875-.794921875-31.30810546875-2.25048828125l-7.825683593739086,54.4306640625c12.788574218739086,1.823486328128638,25.843017578121362,2.81982421875,39.133789062489086,2.81982421875,13.290771484371362,0,26.345214843760914-.996337890621362,39.1337890625-2.81982421875l-7.825683593739086-54.4306640625c-10.229248046889552,1.45556640625-20.673339843760914,2.25048828125-31.308105468760914,2.25048828125Z" fill="#8f807d" stroke="#000" stroke-linecap="round" stroke-linejoin="round" stroke-width="2"/>
          </a>
        </g>
      </g>
      <g>
        <path d="M211.054336223192877,308.075643985829629c-1.494140625,0-2.2412109375-.470703125-2.2412109375-1.4111328125,0-.4423828125.2216796875-1.162109375.6640625-2.158203125l24.65087890625-49.716796875c.38671875-.830078125,1.189453125-1.66015625,2.4072265625-2.48974609375,1.21630859375-.830078125,2.68310546875-1.53564453125,4.39892578125-2.11669921875,1.71435546875-.5810546875,3.48583984375-.87158203125,5.31201171875-.87158203125.4423828125,0,.87158203125.138671875,1.28662109375.4150390625.4150390625.27734375.70556640625.94140625.87158203125,1.9921875.93994140625,6.36376953125,2.07470703125,12.75439453125,3.40283203125,19.1728515625,1.328125,6.41943359375,2.84912109375,12.69873046875,4.56494140625,18.8408203125.7744140625,2.6015625,1.4384765625,4.7041015625,1.9921875,6.30810546875.55224609375,1.60546875,1.10595703125,2.822265625,1.65966796875,3.65185546875.6083984375.830078125,1.14794921875,1.50830078125,1.61865234375,2.03369140625.4697265625.5263671875.70556640625,1.03759765625.70556640625,1.53564453125,0,.5537109375-.31884765625,1.107421875-.95458984375,1.65966796875-.63671875.5537109375-1.42529296875,1.0517578125-2.365234375,1.494140625-.94189453125.443359375-1.9091796875.8017578125-2.9052734375,1.0791015625-.99609375.2763671875-1.8544921875.4150390625-2.57275390625.4150390625-1.2177734375,0-2.462890625-1.09228515625-3.7353515625-3.27880859375-1.2734375-2.18505859375-2.5185546875-6.12744140625-3.73486328125-11.8271484375l-7.22119140625-34.611328125,1.5771484375-.99560546875-16.18505859375,34.02978515625c-.7197265625,1.5498046875-1.23193359375,2.8505859375-1.53515625,3.90087890625-.30517578125,1.0517578125-.4853515625,2.00634765625-.53955078125,2.86376953125-.05615234375.8583984375-.166015625,1.84033203125-.33203125,2.9462890625-.11181640625,1.0517578125-.63671875,2.00634765625-1.5771484375,2.86376953125-.94140625.8583984375-2.03369140625,1.60546875-3.2783203125,2.24072265625-1.2451171875.63671875-2.42138671875,1.1337890625-3.52783203125,1.494140625-1.107421875.359375-1.90869140625.53955078125-2.40673828125.53955078125ZM221.512344035692877,291.143515079579629v-6.22509765625h30.8759765625v6.22509765625h-30.8759765625Z" fill="#231f20" stroke-width="0"/>
        <path d="M266.000137004442877,299.360311954579629c0-1.49365234375.13720703125-2.60009765625.4150390625-3.31982421875.27587890625-.71826171875.74658203125-1.0791015625,1.41064453125-1.0791015625.4423828125,0,1.1337890625.33203125,2.0751953125.99609375.93994140625.6640625,2.10205078125,1.439453125,3.48583984375,2.32421875,1.38232421875.8857421875,2.91796875,1.65966796875,4.6064453125,2.32373046875,1.6875.6640625,3.4990234375.99609375,5.4365234375.99609375,2.6005859375,0,4.86865234375-.64990234375,6.80615234375-1.95068359375,1.93603515625-1.29931640625,3.4443359375-3.083984375,4.5234375-5.353515625,1.0791015625-2.26806640625,1.61865234375-4.8408203125,1.61865234375-7.71875,0-3.09814453125-.77587890625-5.4638671875-2.32421875-7.0966796875-1.5498046875-1.63134765625-3.763671875-2.4482421875-6.64013671875-2.4482421875-1.82568359375,0-3.638671875.27734375-5.43603515625.830078125-1.798828125.5537109375-3.4033203125,1.09326171875-4.814453125,1.6181640625-1.41064453125.52685546875-2.4482421875.78857421875-3.1123046875.78857421875-1.2734375,0-1.9091796875-1.29931640625-1.9091796875-3.90087890625,0-.2763671875.09619140625-1.13330078125.29052734375-2.5732421875.193359375-1.43798828125.42822265625-3.20849609375.70556640625-5.31201171875l2.490234375-17.0146484375c.1103515625-.6640625.52490234375-.99609375,1.2451171875-.99609375h13.36279296875c3.92822265625,0,7.04052734375-.1103515625,9.33740234375-.33203125,2.29541015625-.220703125,4.03857421875-.4423828125,5.22900390625-.6640625,1.189453125-.22021484375,2.06103515625-.33203125,2.61474609375-.33203125.60791015625,0,1.037109375.09716796875,1.2861328125.29052734375.2490234375.1943359375.37353515625.70556640625.37353515625,1.53564453125,0,.775390625-.111328125,1.6328125-.33203125,2.57275390625-.2216796875.94189453125-.5263671875,1.826171875-.91259765625,2.65625-.38818359375.830078125-.8447265625,1.5224609375-1.36962890625,2.07470703125-.52685546875.5537109375-1.09326171875.830078125-1.70166015625.830078125-.7197265625,0-2.033203125-.1103515625-3.9423828125-.33203125-1.9091796875-.22021484375-4.22021484375-.46923828125-6.9306640625-.7470703125l-16.26806640625-1.74267578125,4.97998046875-2.98828125-3.23681640625,22.41015625-2.82177734375-1.328125c2.21240234375-1.43798828125,4.64794921875-2.46142578125,7.3037109375-3.07080078125,2.65625-.6083984375,5.17333984375-.9130859375,7.55322265625-.9130859375,2.98779296875,0,5.685546875.53955078125,8.09228515625,1.61865234375,2.4072265625,1.0791015625,4.3291015625,2.73876953125,5.7685546875,4.97998046875,1.4384765625,2.24072265625,2.158203125,5.1044921875,2.158203125,8.59033203125,0,4.095703125-1.02490234375,7.8720703125-3.0712890625,11.32958984375-2.0478515625,3.45849609375-4.9384765625,6.2119140625-8.67333984375,8.25830078125-3.73486328125,2.046875-8.1484375,3.0712890625-13.23876953125,3.0712890625-4.03955078125,0-7.26220703125-.4150390625-9.66943359375-1.2451171875-2.40673828125-.830078125-4.13671875-1.921875-5.1875-3.2783203125-1.0517578125-1.35546875-1.57666015625-2.80810546875-1.57666015625-4.35791015625Z" fill="#231f20" stroke-width="0"/>
        <path d="M332.813613566942877,283.258749454579629c2.158203125-.1103515625,3.43017578125-.166015625,3.81787109375-.166015625h.6640625c.6640625,0,1.0791015625.12451171875,1.2451171875.37353515625.166015625.24853515625.2490234375.59521484375.2490234375,1.037109375,0,.7197265625-.18017578125,1.42529296875-.53955078125,2.11669921875-.3603515625.6923828125-.96875,1.2734375-1.826171875,1.7431640625-.8583984375.470703125-2.06201171875.73388671875-3.6103515625.7880859375l-14.85693359375.5810546875h-.2490234375c-.6640625,0-1.0791015625-.166015625-1.2451171875-.498046875s-.2490234375-.77392578125-.2490234375-1.32763671875c0-.830078125.42822265625-1.71484375,1.28662109375-2.65625.857421875-.93994140625,2.3095703125-1.43798828125,4.357421875-1.494140625l10.9560546875-.49755859375Z" fill="#231f20" stroke-width="0"/>
        <path d="M366.593887004442877,308.241659610829629c-2.65576171875,0-5.16015625-.3876953125-7.51123046875-1.162109375-2.3525390625-.7744140625-4.4404296875-2.01904296875-6.2666015625-3.73486328125-1.826171875-1.71484375-3.265625-3.94287109375-4.31591796875-6.681640625-1.0517578125-2.73876953125-1.5771484375-6.1005859375-1.5771484375-10.08447265625,0-5.42236328125.6640625-10.41650390625,1.9921875-14.9814453125s3.25-8.5205078125,5.7685546875-11.869140625c2.51708984375-3.34716796875,5.54638671875-5.947265625,9.08837890625-7.8017578125,3.54052734375-1.853515625,7.5244140625-2.78076171875,11.9521484375-2.78076171875,3.15380859375,0,5.5322265625.236328125,7.1376953125.70556640625,1.6044921875.470703125,2.6689453125,1.12060546875,3.19580078125,1.95068359375.52490234375.82958984375.7880859375,1.79833984375.7880859375,2.90478515625,0,1.5498046875-.2216796875,2.72607421875-.66357421875,3.52734375-.44384765625.802734375-.9130859375,1.20361328125-1.4111328125,1.20361328125-.443359375,0-.94140625-.13720703125-1.494140625-.4150390625-.5537109375-.27587890625-1.328125-.63525390625-2.32373046875-1.0791015625-.77587890625-.38623046875-1.97900390625-.8427734375-3.61083984375-1.369140625-1.6328125-.525390625-3.4169921875-.78857421875-5.353515625-.78857421875-3.20947265625,0-5.86572265625,1.2177734375-7.9677734375,3.65185546875-2.103515625,2.435546875-3.6806640625,5.8515625-4.73095703125,10.25048828125-1.0517578125,4.39892578125-1.5771484375,9.5322265625-1.5771484375,15.396484375,0,5.53369140625.87158203125,9.66943359375,2.61474609375,12.40869140625,1.74267578125,2.73876953125,4.07958984375,4.1083984375,7.01318359375,4.1083984375,3.09814453125,0,5.56103515625-1.2724609375,7.38720703125-3.81787109375,1.82568359375-2.54443359375,2.73876953125-6.00341796875,2.73876953125-10.375,0-1.9921875-.33203125-3.77685546875-.99609375-5.353515625-.66357421875-1.5771484375-1.673828125-2.8076171875-3.029296875-3.693359375-1.3564453125-.884765625-3.1123046875-1.328125-5.2705078125-1.328125-.94140625,0-2.50439453125.2216796875-4.689453125.6640625-2.1865234375.443359375-4.330078125,1.41064453125-6.4326171875,2.90478515625l.2490234375-5.97607421875c1.9365234375-1.27197265625,4.1357421875-2.29541015625,6.5986328125-3.07080078125,2.46142578125-.7744140625,5.1318359375-1.162109375,8.00927734375-1.162109375,3.2646484375,0,6.14208984375.56787109375,8.63232421875,1.70166015625,2.48974609375,1.134765625,4.4404296875,2.87744140625,5.8515625,5.22900390625,1.41064453125,2.3525390625,2.1162109375,5.3818359375,2.1162109375,9.08837890625,0,3.099609375-.5810546875,5.97607421875-1.74267578125,8.6318359375-1.162109375,2.65625-2.767578125,4.96728515625-4.814453125,6.9306640625-2.04736328125,1.96484375-4.3857421875,3.5-7.01318359375,4.6064453125-2.62890625,1.1064453125-5.4091796875,1.66015625-8.341796875,1.66015625Z" fill="#231f20" stroke-width="0"/>
      </g>
    </g>
  </g>
</svg>