<?xml version="1.0" encoding="UTF-8"?>
<svg id="Layer_1" data-name="Layer 1" xmlns="http://www.w3.org/2000/svg" xmlns:xlink="http://www.w3.org/1999/xlink" viewBox="0 0 599.999999999998181 600.000000000003638">
  <g id="pie_with_links_-5" data-name="pie (with links)">
    <g id="pie_with_links_-6" data-name="pie (with links)">
      <g id="Pie">
        <g>
          <a xlink:href="https://www.notion.so/dmmnotes/paranoid-ae38b1e6af0c4dd08f61e0d8f6e9f05f?pvs=4">
            <path id="C8" d="M331.308105468760004,517.749511718753638l7.825683593739996,54.4306640625c26.439208984371362-3.767822265632276,51.645751953139552-11.3115234375,75.101318359367724-22.04296875l-22.832519531235448-49.996826171882276c-18.7666015625,8.572265625-38.93505859375,14.601318359382276-60.094482421872272,17.609130859382276Z" fill="none" stroke="#000" stroke-linecap="round" stroke-linejoin="round" stroke-width="7"/>
          </a>
          <a xlink:href="https://www.notion.so/dmmnotes/menacing-a5bd7149286344deba45ec15e759e579?pvs=4">
            <path id="C7" d="M391.402587890632276,500.140380859371362l22.832519531235448,49.996826171882276c23.98999023439319-10.975830078121362,46.116210937521828-25.287109375010914,65.80395507814228-42.36181640625l-35.972900390631366-41.515869140621362c-15.753417968760914,13.65869140625-33.459228515628638,25.104492187489086-52.663574218746362,33.880859374989086Z" fill="none" stroke="#000" stroke-linecap="round" stroke-linejoin="round" stroke-width="7"/>
          </a>
          <a xlink:href="https://www.notion.so/dmmnotes/seductively-obsessed-with-rescue-6fb5a68f6d334bc29ccccc16d8a4e56e?pvs=4">
            <path id="C6" d="M444.066162109378638,466.259521484382276l35.972900390631366,41.515869140621362c19.762939453117724-17.141845703132276,37.047119140617724-37.041748046882276,51.26708984375-59.125l-46.223632812510914-29.704833984371362c-11.373291015621362,17.673583984371362-25.201171874988177,33.598876953121362-41.016357421870453,47.31396484375Z" fill="none" stroke="#000" stroke-linecap="round" stroke-linejoin="round" stroke-width="7"/>
          </a>
          <a xlink:href="https://www.notion.so/dmmnotes/punitively-obsessed-with-revenge-33d2e77f37774316b42bccf4a60f9688?pvs=4">
            <path id="C5" d="M485.082519531249091,418.945556640632276l46.223632812510914,29.704833984371362c14.048095703128638-21.809326171882276,25.088378906253638-45.71875,32.551513671871362-71.175048828132276l-52.754882812503638-15.490234375c-5.9619140625,20.377929687510914-14.789306640617724,39.509765625-26.020263671878638,56.960449218760914Z" fill="none" stroke="#000" stroke-linecap="round" stroke-linejoin="round" stroke-width="7"/>
          </a>
          <a xlink:href="https://www.notion.so/dmmnotes/feigned-helpless-e79a94b0498c4e109a681b7f3dcdb088?pvs=4">
            <path id="C4" d="M519.999999999999091,300.000000000003638c0,21.5380859375-3.142089843739086,42.321533203117724-8.897216796871362,61.985107421867724l52.754882812503638,15.490234375c7.2080078125-24.583496093739086,11.142333984371362-50.5634765625,11.142333984371362-77.475341796867724h-55.000000000003638Z" fill="none" stroke="#000" stroke-linecap="round" stroke-linejoin="round" stroke-width="7"/>
          </a>
          <a xlink:href="https://www.notion.so/dmmnotes/aggressive-2d8ccce383534b9dbfc7b4b10b8a5d5c?pvs=4">
            <path id="C3" d="M519.999999999999091,300.000000000003638h55.000000000003638c0-26.911865234389552-3.934326171871362-52.894531250010914-11.142333984371362-77.475341796888642l-52.754882812503638,15.490234374999091c5.755126953132276,19.663574218757276,8.897216796871362,40.449707031257276,8.897216796871362,61.985107421889552Z" fill="none" stroke="#000" stroke-linecap="round" stroke-linejoin="round" stroke-width="7"/>
          </a>
          <a xlink:href="https://www.notion.so/dmmnotes/disarming-086276e599884c86b9359acf831a8b20?pvs=4">
            <path id="C2" d="M511.102783203127728,238.014892578114086l52.754882812503638-15.490234374999091c-7.463134765617724-25.456298828121362-18.503417968742724-49.365722656242724-32.551513671871362-71.177734374992724l-46.223632812510914,29.70751953125c11.230957031260914,17.45068359375,20.055664062510914,36.585205078121362,26.020263671878638,56.960449218741815Z" fill="none" stroke="#000" stroke-linecap="round" stroke-linejoin="round" stroke-width="7"/>
          </a>
          <a xlink:href="https://www.notion.so/dmmnotes/threatening-348fe6a52f7a4fe69f768e98c6586932?pvs=4">
            <path id="C1" d="M485.082519531249091,181.054443359372272l46.223632812510914-29.70751953125c-14.219970703132276-22.08056640625-31.504150390632276-41.980468750010004-51.26708984375-59.122314453127728l-35.972900390631366,41.518554687499091c15.815185546882276,13.71240234375,29.643066406249091,29.637695312510914,41.016357421870453,47.311279296878638Z" fill="none" stroke="#000" stroke-linecap="round" stroke-linejoin="round" stroke-width="7"/>
          </a>
          <a xlink:href="https://www.notion.so/dmmnotes/complaining-acceptance-8b40401a720c493ba73f7cde1567cf3d?pvs=4">
            <path id="B5" d="M444.066162109378638,133.743164062493634l35.972900390631366-41.518554687499091c-19.687744140620453-17.07470703125-41.813964843749091-31.388671875-65.80395507814228-42.36181640625l-22.832519531235448,49.99951171875c19.204345703117724,8.773681640628638,36.910156249985448,20.22216796875,52.663574218746362,33.880859374999091Z" fill="none" stroke="#000" stroke-linecap="round" stroke-linejoin="round" stroke-width="7"/>
          </a>
          <a xlink:href="https://www.notion.so/dmmnotes/sentimental-bc554363322342b1b7ca4ccc02125049?pvs=4">
            <path id="B4" d="M391.402587890632276,99.862304687494543l22.832519531235448-49.99951171875c-23.455566406228172-10.7314453125-48.662109374996362-18.275146484382276-75.101318359367724-22.042968749989086l-7.825683593739996,54.433349609367724c21.159423828122272,3.0078125,41.327880859372272,9.034179687489086,60.094482421872272,17.609130859371362Z" fill="none" stroke="#000" stroke-linecap="round" stroke-linejoin="round" stroke-width="7"/>
          </a>
          <a xlink:href="https://www.notion.so/dmmnotes/comfortably-balanced-e76dc615a8b947aa915377cd02fcf716?pvs=4">
            <path id="B3" d="M299.999999999999091,79.999999999994543c10.634765625,0,21.078857421871362.797607421878638,31.308105468760914,2.253173828128638l7.825683593739996-54.433349609367724c-12.788574218739996-1.823486328132276-25.843017578129547-2.819824218760914-39.133789062500909-2.819824218760914-13.290771484367724,0-26.34521484375.996337890628638-39.133789062489086,2.819824218760914l7.825683593739086,54.433349609367724c10.23193359375-1.45556640625,20.67333984375-2.253173828128638,31.30810546875-2.253173828128638Z" fill="none" stroke="#000" stroke-linecap="round" stroke-linejoin="round" stroke-width="7"/>
          </a>
          <a xlink:href="https://www.notion.so/dmmnotes/accepting-317d81273fff4cd9817cdf4a88efd378?pvs=4">
            <path id="B2" d="M268.691894531249091,82.253173828123181l-7.825683593739086-54.433349609367724c-26.439208984389552,3.76782226560681-51.643066406260914,11.311523437489086-75.098632812510914,22.042968749989086l22.83251953125,49.99951171875c18.7666015625-8.574951171882276,38.93505859375-14.601318359371362,60.091796875-17.609130859371362Z" fill="none" stroke="#000" stroke-linecap="round" stroke-linejoin="round" stroke-width="7"/>
          </a>
          <a xlink:href="https://www.notion.so/dmmnotes/distanced-from-past-2eabab7e9c77429f8e577f4e3e203653?pvs=4">
            <path id="B1" d="M208.600097656249091,99.862304687494543l-22.83251953125-49.99951171875c-23.99267578125,10.97314453125-46.1162109375,25.287109375-65.803955078120453,42.36181640625l35.972900390620453,41.515869140627728c15.753417968750909-13.658691406260004,33.4619140625-25.104492187499091,52.66357421875-33.878173828127728Z" fill="none" stroke="#000" stroke-linecap="round" stroke-linejoin="round" stroke-width="7"/>
          </a>
          <a xlink:href="https://www.notion.so/dmmnotes/idealising-a52277f51ed14a42aae78081bb34b8be?pvs=4">
            <path id="A1" d="M155.936523437499091,133.740478515622272l-35.972900390620453-41.515869140627728c-19.765625,17.141845703117724-37.049804687509095,37.041748046877728-51.269775390629547,59.122314453127728l46.226318359370453,29.70751953125c11.373291015640461-17.673583984367724,25.201171875009095-33.598876953128638,41.016357421879547-47.31396484375Z" fill="none" stroke="#000" stroke-linecap="round" stroke-linejoin="round" stroke-width="7"/>
          </a>
          <a xlink:href="https://www.notion.so/dmmnotes/distancing-9ac690cdca654729a17a5a255944e2d1?pvs=4">
            <path id="A2" d="M114.920166015619543,181.054443359372272l-46.226318359370453-29.70751953125c-14.04541015625,21.81201171875-25.08837890625,45.721435546871362-32.551513671879547,71.177734374992724l52.754882812509095,15.490234374999091c5.964599609370453-20.375244140620453,14.7919921875-39.509765624991815,26.022949218740905-56.960449218741815Z" fill="none" stroke="#000" stroke-linecap="round" stroke-linejoin="round" stroke-width="7"/>
          </a>
          <a xlink:href="https://www.notion.so/dmmnotes/compulsive-caregiving-9c380c0928294f41ae10764aa0dee886?pvs=4">
            <path id="A3" d="M88.897216796878638,238.014892578114086l-52.754882812509095-15.490234374999091c-7.205322265620453,24.580810546877728-11.142333984370453,50.563476562499091-11.142333984370453,77.475341796888642h55c0-21.535400390632276,3.14208984375-42.321533203132276,8.897216796879547-61.985107421889552Z" fill="none" stroke="#000" stroke-linecap="round" stroke-linejoin="round" stroke-width="7"/>
          </a>
          <a xlink:href="https://www.notion.so/dmmnotes/compulsive-compliance-6d08b7ea9a424ce1a72b9184b7850414?pvs=4">
            <path id="A4" d="M79.999999999999091,300.000000000003638H24.999999999999091c0,26.911865234367724,3.93701171875,52.894531249989086,11.142333984370453,77.475341796867724l52.754882812509095-15.490234375c-5.755126953129547-19.66357421875-8.897216796879547-40.447021484367724-8.897216796879547-61.985107421867724Z" fill="none" stroke="#000" stroke-linecap="round" stroke-linejoin="round" stroke-width="7"/>
          </a>
          <a xlink:href="https://www.notion.so/dmmnotes/sexual-supplementation-8e85f49046ef412aa229745abf7d38d3?pvs=4">
            <path id="A5" d="M88.897216796878638,361.985107421871362l-52.754882812509095,15.490234375c7.463134765629547,25.456298828132276,18.506103515629547,49.36572265625,32.551513671879547,71.175048828132276l46.223632812510914-29.704833984371362c-11.230957031260914-17.450683593760914-20.055664062510914-36.58251953125-26.020263671881366-56.960449218760914Z" fill="none" stroke="#000" stroke-linecap="round" stroke-linejoin="round" stroke-width="7"/>
          </a>
          <a xlink:href="https://www.notion.so/dmmnotes/compulsive-isolated-self-reliance-b321873a73fa41aaaadd7192fde856a2?pvs=4">
            <path id="A6" d="M114.917480468760004,418.945556640632276l-46.223632812510914,29.704833984371362c14.219970703120453,22.083251953117724,31.504150390629547,41.983154296867724,51.269775390629547,59.125l35.972900390620453-41.515869140621362c-15.815185546870453-13.712402343760914-29.643066406239086-29.637695312510914-41.019042968739086-47.31396484375Z" fill="none" stroke="#000" stroke-linecap="round" stroke-linejoin="round" stroke-width="7"/>
          </a>
          <a xlink:href="https://www.notion.so/dmmnotes/delusional-idealization-743e2420b9994a48a7cab68190432e8a?pvs=4">
            <path id="A7" d="M155.936523437499091,466.259521484382276l-35.972900390620453,41.515869140621362c19.687744140620453,17.074707031239086,41.811279296870453,31.385986328128638,65.803955078120453,42.36181640625l22.83251953125-49.996826171882276c-19.20166015625-8.773681640617724-36.910156249999091-20.222167968739086-52.66357421875-33.880859374989086Z" fill="none" stroke="#000" stroke-linecap="round" stroke-linejoin="round" stroke-width="7"/>
          </a>
          <a xlink:href="https://www.notion.so/dmmnotes/externally-assembled-self-994ecb0895b844409b931d74a045c162?pvs=4">
            <path id="A8" d="M208.600097656249091,500.140380859371362l-22.83251953125,49.996826171882276c23.45556640625,10.7314453125,48.659423828121362,18.275146484367724,75.098632812510914,22.04296875l7.825683593739086-54.4306640625c-21.15673828125-3.0078125-41.3251953125-9.0341796875-60.091796875-17.609130859382276Z" fill="none" stroke="#000" stroke-linecap="round" stroke-linejoin="round" stroke-width="7"/>
          </a>
          <a xlink:href="https://www.notion.so/dmmnotes/psychopathy-0fe4a3222d9f4fd097ab4546c9776768?pvs=4">
            <path id="AC" d="M299.999999999999091,520.000000000003638c-10.634765625,0-21.076171875-.794921875-31.30810546875-2.25048828125l-7.825683593739086,54.4306640625c12.788574218739086,1.823486328128638,25.843017578121362,2.81982421875,39.133789062489086,2.81982421875,13.290771484371362,0,26.345214843760914-.996337890621362,39.133789062500909-2.81982421875l-7.825683593739996-54.4306640625c-10.229248046889552,1.45556640625-20.673339843760914,2.25048828125-31.308105468760914,2.25048828125Z" fill="none" stroke="#000" stroke-linecap="round" stroke-linejoin="round" stroke-width="7"/>
          </a>
        </g>
        <g>
          <a xlink:href="https://www.notion.so/dmmnotes/paranoid-ae38b1e6af0c4dd08f61e0d8f6e9f05f?pvs=4">
            <path id="C8-2" data-name="C8" d="M331.308105468760004,517.749511718753638l7.825683593739996,54.4306640625c26.439208984371362-3.767822265632276,51.645751953139552-11.3115234375,75.101318359367724-22.04296875l-22.832519531235448-49.996826171882276c-18.7666015625,8.572265625-38.93505859375,14.601318359382276-60.094482421872272,17.609130859382276Z" fill="#8f807d" stroke="#000" stroke-linecap="round" stroke-linejoin="round" stroke-width="2"/>
          </a>
          <a xlink:href="https://www.notion.so/dmmnotes/menacing-a5bd7149286344deba45ec15e759e579?pvs=4">
            <path id="C7-2" data-name="C7" d="M391.402587890632276,500.140380859371362l22.832519531235448,49.996826171882276c23.98999023439319-10.975830078121362,46.116210937521828-25.287109375010914,65.80395507814228-42.36181640625l-35.972900390631366-41.515869140621362c-15.753417968760914,13.65869140625-33.459228515628638,25.104492187489086-52.663574218746362,33.880859374989086Z" fill="#8f807d" stroke="#000" stroke-linecap="round" stroke-linejoin="round" stroke-width="2"/>
          </a>
          <a xlink:href="https://www.notion.so/dmmnotes/seductively-obsessed-with-rescue-6fb5a68f6d334bc29ccccc16d8a4e56e?pvs=4">
            <path id="C6-2" data-name="C6" d="M444.066162109378638,466.259521484382276l35.972900390631366,41.515869140621362c19.762939453117724-17.141845703132276,37.047119140617724-37.041748046882276,51.26708984375-59.125l-46.223632812510914-29.704833984371362c-11.373291015621362,17.673583984371362-25.201171874988177,33.598876953121362-41.016357421870453,47.31396484375Z" fill="#8f807d" stroke="#000" stroke-linecap="round" stroke-linejoin="round" stroke-width="2"/>
          </a>
          <a xlink:href="https://www.notion.so/dmmnotes/punitively-obsessed-with-revenge-33d2e77f37774316b42bccf4a60f9688?pvs=4">
            <path id="C5-2" data-name="C5" d="M485.082519531249091,418.945556640632276l46.223632812510914,29.704833984371362c14.048095703128638-21.809326171882276,25.088378906253638-45.71875,32.551513671871362-71.175048828132276l-52.754882812503638-15.490234375c-5.9619140625,20.377929687510914-14.789306640617724,39.509765625-26.020263671878638,56.960449218760914Z" fill="#8f807d" stroke="#000" stroke-linecap="round" stroke-linejoin="round" stroke-width="2"/>
          </a>
          <a xlink:href="https://www.notion.so/dmmnotes/feigned-helpless-e79a94b0498c4e109a681b7f3dcdb088?pvs=4">
            <path id="C4-2" data-name="C4" d="M519.999999999999091,300.000000000003638c0,21.5380859375-3.142089843739086,42.321533203117724-8.897216796871362,61.985107421867724l52.754882812503638,15.490234375c7.2080078125-24.583496093739086,11.142333984371362-50.5634765625,11.142333984371362-77.475341796867724h-55.000000000003638Z" fill="#999555" stroke="#000" stroke-linecap="round" stroke-linejoin="round" stroke-width="2"/>
          </a>
          <a xlink:href="https://www.notion.so/dmmnotes/aggressive-2d8ccce383534b9dbfc7b4b10b8a5d5c?pvs=4">
            <path id="C3-2" data-name="C3" d="M519.999999999999091,300.000000000003638h55.000000000003638c0-26.911865234389552-3.934326171871362-52.894531250010914-11.142333984371362-77.475341796888642l-52.754882812503638,15.490234374999091c5.755126953132276,19.663574218757276,8.897216796871362,40.449707031257276,8.897216796871362,61.985107421889552Z" fill="#859658" stroke="#000" stroke-linecap="round" stroke-linejoin="round" stroke-width="2"/>
          </a>
          <a xlink:href="https://www.notion.so/dmmnotes/disarming-086276e599884c86b9359acf831a8b20?pvs=4">
            <path id="C2-2" data-name="C2" d="M511.102783203127728,238.014892578114086l52.754882812503638-15.490234374999091c-7.463134765617724-25.456298828121362-18.503417968742724-49.365722656242724-32.551513671871362-71.177734374992724l-46.223632812510914,29.70751953125c11.230957031260914,17.45068359375,20.055664062510914,36.585205078121362,26.020263671878638,56.960449218741815Z" fill="#8f807d" stroke="#000" stroke-linecap="round" stroke-linejoin="round" stroke-width="2"/>
          </a>
          <a xlink:href="https://www.notion.so/dmmnotes/threatening-348fe6a52f7a4fe69f768e98c6586932?pvs=4">
            <path id="C1-2" data-name="C1" d="M485.082519531249091,181.054443359372272l46.223632812510914-29.70751953125c-14.219970703132276-22.08056640625-31.504150390632276-41.980468750010004-51.26708984375-59.122314453127728l-35.972900390631366,41.518554687499091c15.815185546882276,13.71240234375,29.643066406249091,29.637695312510914,41.016357421870453,47.311279296878638Z" fill="#8f807d" stroke="#000" stroke-linecap="round" stroke-linejoin="round" stroke-width="2"/>
          </a>
          <a xlink:href="https://www.notion.so/dmmnotes/complaining-acceptance-8b40401a720c493ba73f7cde1567cf3d?pvs=4">
            <path id="B5-2" data-name="B5" d="M444.066162109378638,133.743164062493634l35.972900390631366-41.518554687499091c-19.687744140620453-17.07470703125-41.813964843749091-31.388671875-65.80395507814228-42.36181640625l-22.832519531235448,49.99951171875c19.204345703117724,8.773681640628638,36.910156249985448,20.22216796875,52.663574218746362,33.880859374999091Z" fill="#8f807d" stroke="#000" stroke-linecap="round" stroke-linejoin="round" stroke-width="2"/>
          </a>
          <a xlink:href="https://www.notion.so/dmmnotes/sentimental-bc554363322342b1b7ca4ccc02125049?pvs=4">
            <path id="B4-2" data-name="B4" d="M391.402587890632276,99.862304687494543l22.832519531235448-49.99951171875c-23.455566406228172-10.7314453125-48.662109374996362-18.275146484382276-75.101318359367724-22.042968749989086l-7.825683593739996,54.433349609367724c21.159423828122272,3.0078125,41.327880859372272,9.034179687489086,60.094482421872272,17.609130859371362Z" fill="#8f807d" stroke="#000" stroke-linecap="round" stroke-linejoin="round" stroke-width="2"/>
          </a>
          <a xlink:href="https://www.notion.so/dmmnotes/comfortably-balanced-e76dc615a8b947aa915377cd02fcf716?pvs=4">
            <path id="B3-2" data-name="B3" d="M299.999999999999091,79.999999999994543c10.634765625,0,21.078857421871362.797607421878638,31.308105468760914,2.253173828128638l7.825683593739996-54.433349609367724c-12.788574218739996-1.823486328132276-25.843017578129547-2.819824218760914-39.133789062500909-2.819824218760914-13.290771484367724,0-26.34521484375.996337890628638-39.133789062489086,2.819824218760914l7.825683593739086,54.433349609367724c10.23193359375-1.45556640625,20.67333984375-2.253173828128638,31.30810546875-2.253173828128638Z" fill="#8f807d" stroke="#000" stroke-linecap="round" stroke-linejoin="round" stroke-width="2"/>
          </a>
          <a xlink:href="https://www.notion.so/dmmnotes/accepting-317d81273fff4cd9817cdf4a88efd378?pvs=4">
            <path id="B2-2" data-name="B2" d="M268.691894531249091,82.253173828123181l-7.825683593739086-54.433349609367724c-26.439208984389552,3.76782226560681-51.643066406260914,11.311523437489086-75.098632812510914,22.042968749989086l22.83251953125,49.99951171875c18.7666015625-8.574951171882276,38.93505859375-14.601318359371362,60.091796875-17.609130859371362Z" fill="#8f807d" stroke="#000" stroke-linecap="round" stroke-linejoin="round" stroke-width="2"/>
          </a>
          <a xlink:href="https://www.notion.so/dmmnotes/distanced-from-past-2eabab7e9c77429f8e577f4e3e203653?pvs=4">
            <path id="B1-2" data-name="B1" d="M208.600097656249091,99.862304687494543l-22.83251953125-49.99951171875c-23.99267578125,10.97314453125-46.1162109375,25.287109375-65.803955078120453,42.36181640625l35.972900390620453,41.515869140627728c15.753417968750909-13.658691406260004,33.4619140625-25.104492187499091,52.66357421875-33.878173828127728Z" fill="#8f807d" stroke="#000" stroke-linecap="round" stroke-linejoin="round" stroke-width="2"/>
          </a>
          <a xlink:href="https://www.notion.so/dmmnotes/idealising-a52277f51ed14a42aae78081bb34b8be?pvs=4">
            <path id="A1-2" data-name="A1" d="M155.936523437499091,133.740478515622272l-35.972900390620453-41.515869140627728c-19.765625,17.141845703117724-37.049804687509095,37.041748046877728-51.269775390629547,59.122314453127728l46.226318359370453,29.70751953125c11.373291015640461-17.673583984367724,25.201171875009095-33.598876953128638,41.016357421879547-47.31396484375Z" fill="#8f807d" stroke="#000" stroke-linecap="round" stroke-linejoin="round" stroke-width="2"/>
          </a>
          <a xlink:href="https://www.notion.so/dmmnotes/distancing-9ac690cdca654729a17a5a255944e2d1?pvs=4">
            <path id="A2-2" data-name="A2" d="M114.920166015619543,181.054443359372272l-46.226318359370453-29.70751953125c-14.04541015625,21.81201171875-25.08837890625,45.721435546871362-32.551513671879547,71.177734374992724l52.754882812509095,15.490234374999091c5.964599609370453-20.375244140620453,14.7919921875-39.509765624991815,26.022949218740905-56.960449218741815Z" fill="#8f807d" stroke="#000" stroke-linecap="round" stroke-linejoin="round" stroke-width="2"/>
          </a>
          <a xlink:href="https://www.notion.so/dmmnotes/compulsive-caregiving-9c380c0928294f41ae10764aa0dee886?pvs=4">
            <path id="A3-2" data-name="A3" d="M88.897216796878638,238.014892578114086l-52.754882812509095-15.490234374999091c-7.205322265620453,24.580810546877728-11.142333984370453,50.563476562499091-11.142333984370453,77.475341796888642h55c0-21.535400390632276,3.14208984375-42.321533203132276,8.897216796879547-61.985107421889552Z" fill="#8f807d" stroke="#000" stroke-linecap="round" stroke-linejoin="round" stroke-width="2"/>
          </a>
          <a xlink:href="https://www.notion.so/dmmnotes/compulsive-compliance-6d08b7ea9a424ce1a72b9184b7850414?pvs=4">
            <path id="A4-2" data-name="A4" d="M79.999999999999091,300.000000000003638H24.999999999999091c0,26.911865234367724,3.93701171875,52.894531249989086,11.142333984370453,77.475341796867724l52.754882812509095-15.490234375c-5.755126953129547-19.66357421875-8.897216796879547-40.447021484367724-8.897216796879547-61.985107421867724Z" fill="#8f807d" stroke="#000" stroke-linecap="round" stroke-linejoin="round" stroke-width="2"/>
          </a>
          <a xlink:href="https://www.notion.so/dmmnotes/sexual-supplementation-8e85f49046ef412aa229745abf7d38d3?pvs=4">
            <path id="A5-2" data-name="A5" d="M88.897216796878638,361.985107421871362l-52.754882812509095,15.490234375c7.463134765629547,25.456298828132276,18.506103515629547,49.36572265625,32.551513671879547,71.175048828132276l46.223632812510914-29.704833984371362c-11.230957031260914-17.450683593760914-20.055664062510914-36.58251953125-26.020263671881366-56.960449218760914Z" fill="#8f807d" stroke="#000" stroke-linecap="round" stroke-linejoin="round" stroke-width="2"/>
          </a>
          <a xlink:href="https://www.notion.so/dmmnotes/compulsive-isolated-self-reliance-b321873a73fa41aaaadd7192fde856a2?pvs=4">
            <path id="A6-2" data-name="A6" d="M114.917480468760004,418.945556640632276l-46.223632812510914,29.704833984371362c14.219970703120453,22.083251953117724,31.504150390629547,41.983154296867724,51.269775390629547,59.125l35.972900390620453-41.515869140621362c-15.815185546870453-13.712402343760914-29.643066406239086-29.637695312510914-41.019042968739086-47.31396484375Z" fill="#8f807d" stroke="#000" stroke-linecap="round" stroke-linejoin="round" stroke-width="2"/>
          </a>
          <a xlink:href="https://www.notion.so/dmmnotes/delusional-idealization-743e2420b9994a48a7cab68190432e8a?pvs=4">
            <path id="A7-2" data-name="A7" d="M155.936523437499091,466.259521484382276l-35.972900390620453,41.515869140621362c19.687744140620453,17.074707031239086,41.811279296870453,31.385986328128638,65.803955078120453,42.36181640625l22.83251953125-49.996826171882276c-19.20166015625-8.773681640617724-36.910156249999091-20.222167968739086-52.66357421875-33.880859374989086Z" fill="#8f807d" stroke="#000" stroke-linecap="round" stroke-linejoin="round" stroke-width="2"/>
          </a>
          <a xlink:href="https://www.notion.so/dmmnotes/externally-assembled-self-994ecb0895b844409b931d74a045c162?pvs=4">
            <path id="A8-2" data-name="A8" d="M208.600097656249091,500.140380859371362l-22.83251953125,49.996826171882276c23.45556640625,10.7314453125,48.659423828121362,18.275146484367724,75.098632812510914,22.04296875l7.825683593739086-54.4306640625c-21.15673828125-3.0078125-41.3251953125-9.0341796875-60.091796875-17.609130859382276Z" fill="#8f807d" stroke="#000" stroke-linecap="round" stroke-linejoin="round" stroke-width="2"/>
          </a>
          <a xlink:href="https://www.notion.so/dmmnotes/psychopathy-0fe4a3222d9f4fd097ab4546c9776768?pvs=4">
            <path id="AC-2" data-name="AC" d="M299.999999999999091,520.000000000003638c-10.634765625,0-21.076171875-.794921875-31.30810546875-2.25048828125l-7.825683593739086,54.4306640625c12.788574218739086,1.823486328128638,25.843017578121362,2.81982421875,39.133789062489086,2.81982421875,13.290771484371362,0,26.345214843760914-.996337890621362,39.133789062500909-2.81982421875l-7.825683593739996-54.4306640625c-10.229248046889552,1.45556640625-20.673339843760914,2.25048828125-31.308105468760914,2.25048828125Z" fill="#8f807d" stroke="#000" stroke-linecap="round" stroke-linejoin="round" stroke-width="2"/>
          </a>
        </g>
      </g>
      <g>
        <path d="M238.540282214094987,308.241223274393633c-4.64794921875,0-8.7021484375-.92724609375-12.15966796875-2.78076171875-3.45849609375-1.85302734375-6.15625-4.6337890625-8.09228515625-8.34130859375-1.9375-3.70654296875-2.9052734375-8.271484375-2.9052734375-13.69482421875,0-4.98046875.78857421875-9.55810546875,2.36572265625-13.73681640625,1.5771484375-4.17724609375,3.8037109375-7.8017578125,6.681640625-10.873046875,2.87646484375-3.07080078125,6.3076171875-5.44921875,10.2919921875-7.1376953125,3.98388671875-1.6875,8.41015625-2.53173828125,13.27978515625-2.53173828125,4.53662109375,0,7.939453125.48486328125,10.208984375,1.45263671875,2.26806640625.96875,3.40283203125,2.697265625,3.40283203125,5.1875,0,1.328125-.23583984375,2.462890625-.705078125,3.40283203125-.47119140625.94140625-.9833984375,1.4111328125-1.53564453125,1.4111328125-.498046875,0-1.06591796875-.166015625-1.70166015625-.498046875-.63671875-.33203125-1.34228515625-.69140625-2.1162109375-1.0791015625-1.328125-.6640625-2.78076171875-1.36962890625-4.35791015625-2.1162109375-1.57666015625-.7470703125-3.666015625-1.12060546875-6.26611328125-1.12060546875-3.3759765625,0-6.46142578125,1.107421875-9.2548828125,3.31982421875-2.79443359375,2.2138671875-5.03564453125,5.2705078125-6.72265625,9.17138671875-1.6884765625,3.9013671875-2.53173828125,8.453125-2.53173828125,13.65380859375,0,4.37158203125.64990234375,8.0234375,1.95068359375,10.9560546875,1.29931640625,2.93359375,3.029296875,5.11865234375,5.1875,6.556640625,2.15771484375,1.43994140625,4.50927734375,2.158203125,7.0546875,2.158203125,2.1025390625,0,3.984375-.40087890625,5.64404296875-1.20361328125,1.66015625-.80126953125,3.11279296875-1.728515625,4.35791015625-2.7802734375,1.24462890625-1.05078125,2.365234375-1.97802734375,3.361328125-2.78076171875.99609375-.80126953125,1.88037109375-1.203125,2.65576171875-1.203125.6083984375,0,1.12060546875.138671875,1.53564453125.41455078125.4150390625.27783203125.62255859375.85888671875.62255859375,1.7431640625,0,2.158203125-.9130859375,4.1787109375-2.7392578125,6.05908203125-1.82568359375,1.8818359375-4.26123046875,3.41748046875-7.3037109375,4.6064453125-3.0439453125,1.189453125-6.44677734375,1.78466796875-10.208984375,1.78466796875Z" fill="#231f20" stroke-width="0"/>
        <path d="M292.322997057844987,276.452160774393633l.9130859375-2.5732421875c2.32373046875.44384765625,4.412109375,1.30078125,6.2666015625,2.5732421875,1.85302734375,1.2734375,3.31982421875,2.90478515625,4.39892578125,4.89697265625s1.6181640625,4.31591796875,1.6181640625,6.97216796875c0,3.98388671875-1.107421875,7.4697265625-3.31982421875,10.4580078125-2.2138671875,2.98779296875-5.17431640625,5.31201171875-8.880859375,6.9716796875-3.7080078125,1.66015625-7.83056640625,2.490234375-12.3671875,2.490234375-4.42724609375,0-7.9677734375-.44384765625-10.6240234375-1.328125-2.65576171875-.88427734375-4.5517578125-2.03369140625-5.685546875-3.4443359375-1.134765625-1.4111328125-1.701171875-2.89111328125-1.701171875-4.4404296875,0-1.494140625.13720703125-2.6005859375.4150390625-3.3203125.27587890625-.71826171875.74658203125-1.0791015625,1.41064453125-1.0791015625.4423828125,0,1.23095703125.3466796875,2.36572265625,1.03759765625,1.13330078125.6923828125,2.48974609375,1.50830078125,4.06689453125,2.44873046875,1.5771484375.94140625,3.29150390625,1.75732421875,5.14599609375,2.4482421875,1.853515625.69287109375,3.720703125,1.03759765625,5.6025390625,1.03759765625,2.490234375,0,4.67529296875-.6083984375,6.55712890625-1.826171875,1.88037109375-1.21630859375,3.34716796875-2.82177734375,4.39892578125-4.81396484375,1.05029296875-1.99169921875,1.5771484375-4.17724609375,1.5771484375-6.556640625,0-3.0986328125-.802734375-5.4912109375-2.4072265625-7.1796875-1.60546875-1.6875-3.62451171875-2.69775390625-6.05908203125-3.029296875l6.64013671875-.9130859375c-1.328125.7197265625-2.794921875,1.39794921875-4.39892578125,2.033203125-1.60546875.63671875-3.1826171875,1.1494140625-4.73095703125,1.53564453125-1.5498046875.3876953125-2.93359375.5810546875-4.14990234375.5810546875-.72021484375,0-1.43994140625-.359375-2.158203125-1.0791015625-.7197265625-.71826171875-1.30078125-1.61865234375-1.7431640625-2.697265625-.443359375-1.0791015625-.6640625-2.17138671875-.6640625-3.27880859375,0-.830078125.193359375-1.46533203125.5810546875-1.90869140625.38671875-.4423828125.857421875-.6640625,1.4111328125-.6640625.99609375,0,2.2265625.06982421875,3.693359375.20751953125,1.4658203125.138671875,3.015625.3046875,4.64794921875.498046875,1.6318359375.1943359375,3.12548828125.37353515625,4.482421875.53955078125,1.35498046875.16552734375,2.392578125.24853515625,3.1123046875.24853515625l-4.64794921875,1.2451171875c1.66015625-1.05029296875,3.04248046875-2.5859375,4.14990234375-4.6064453125,1.1064453125-2.01904296875,1.66015625-4.052734375,1.66015625-6.1005859375,0-2.76611328125-.734375-4.7998046875-2.19970703125-6.1005859375-1.466796875-1.29931640625-3.4169921875-1.9501953125-5.8515625-1.9501953125-1.99169921875,0-3.9423828125.4150390625-5.8515625,1.2451171875-1.90869140625.82958984375-3.5830078125,1.6328125-5.021484375,2.40673828125-1.107421875.5537109375-1.99169921875,1.03759765625-2.65576171875,1.45263671875s-1.30078125.62255859375-1.9091796875.62255859375c-.3876953125,0-.73388671875-.20751953125-1.03759765625-.62255859375-.3046875-.4150390625-.5537109375-.98193359375-.74658203125-1.70166015625-.19482421875-.71826171875-.29052734375-1.52099609375-.29052734375-2.40673828125,0-1.4384765625.88427734375-2.72509765625,2.65576171875-3.85986328125,1.7705078125-1.13330078125,4.1357421875-2.04638671875,7.0966796875-2.73876953125,2.95947265625-.69140625,6.18359375-1.03759765625,9.66943359375-1.03759765625,4.97998046875,0,8.9912109375,1.107421875,12.03515625,3.31982421875,3.04248046875,2.2138671875,4.56494140625,5.31201171875,4.56494140625,9.29638671875,0,2.6015625-.5537109375,4.828125-1.66015625,6.68115234375-1.107421875,1.8544921875-2.56005859375,3.41748046875-4.357421875,4.68994140625-1.798828125,1.2734375-3.80517578125,2.37939453125-6.017578125,3.31982421875Z" fill="#231f20" stroke-width="0"/>
        <path d="M330.169676745344987,283.258313118143633c2.158203125-.1103515625,3.43017578125-.166015625,3.81787109375-.166015625h.6640625c.6640625,0,1.0791015625.12451171875,1.2451171875.37353515625.166015625.24853515625.2490234375.59521484375.2490234375,1.037109375,0,.7197265625-.18017578125,1.42529296875-.53955078125,2.11669921875-.3603515625.6923828125-.96875,1.2734375-1.826171875,1.7431640625-.8583984375.470703125-2.06201171875.73388671875-3.6103515625.7880859375l-14.85693359375.5810546875h-.2490234375c-.6640625,0-1.0791015625-.166015625-1.2451171875-.498046875s-.2490234375-.77392578125-.2490234375-1.32763671875c0-.830078125.42822265625-1.71484375,1.28662109375-2.65625.857421875-.93994140625,2.3095703125-1.43798828125,4.357421875-1.494140625l10.9560546875-.49755859375Z" fill="#231f20" stroke-width="0"/>
        <path d="M340.544676745344987,290.811047493143633c0-1.10595703125.15185546875-2.087890625.45654296875-2.9462890625.30322265625-.857421875.99609375-1.9921875,2.07470703125-3.4033203125,1.0791015625-1.41064453125,2.72509765625-3.416015625,4.9384765625-6.017578125l20.25244140625-23.65478515625c1.32763671875-1.54833984375,2.419921875-2.724609375,3.2783203125-3.52734375.857421875-.8017578125,1.70166015625-1.34130859375,2.53125-1.61865234375.830078125-.2763671875,1.826171875-.4150390625,2.98828125-.4150390625h2.90478515625c.99609375,0,1.70166015625.26318359375,2.11669921875.78857421875.4150390625.5263671875.62255859375,1.53564453125.62255859375,3.029296875,0,1.328125-.0556640625,2.65625-.166015625,3.984375-.11181640625,1.32763671875-.26318359375,2.87744140625-.45654296875,4.64794921875-.19482421875,1.771484375-.42919921875,3.95654296875-.70556640625,6.556640625l-4.14990234375,39.34228515625h-6.64013671875c-.498046875,0-.9130859375-.19482421875-1.2451171875-.5810546875-.33203125-.38671875-.5810546875-.96728515625-.7470703125-1.7431640625-.16552734375-.77392578125-.24853515625-1.68701171875-.24853515625-2.73876953125,0-1.494140625.05419921875-3.154296875.166015625-4.97998046875.10986328125-1.826171875.24853515625-3.62353515625.41455078125-5.39501953125.166015625-1.7705078125.3037109375-3.3203125.4150390625-4.64794921875l3.5693359375-33.6982421875,2.40673828125,2.4072265625-28.3857421875,34.02978515625-2.490234375-3.31982421875h27.63916015625c2.37841796875,0,4.619140625-.0830078125,6.72314453125-.2490234375,2.10205078125-.166015625,3.8720703125-.33203125,5.31201171875-.498046875,1.43798828125-.166015625,2.35107421875-.2490234375,2.73876953125-.2490234375.4423828125,0,.7744140625.12451171875.99609375.37353515625.22021484375.2490234375.33203125.59521484375.33203125,1.03759765625,0,.830078125-.5537109375,1.701171875-1.66015625,2.6142578125-1.107421875.9130859375-2.47705078125,1.67431640625-4.1083984375,2.28271484375-1.6328125.609375-3.22412109375.9130859375-4.7724609375.9130859375l-34.77734375.166015625c-.82958984375,0-1.4248046875-.17919921875-1.7841796875-.53955078125-.36083984375-.359375-.53955078125-1.00927734375-.53955078125-1.95068359375Z" fill="#231f20" stroke-width="0"/>
      </g>
    </g>
  </g>
</svg>