<?xml version="1.0" encoding="UTF-8"?>
<svg id="Layer_1" data-name="Layer 1" xmlns="http://www.w3.org/2000/svg" xmlns:xlink="http://www.w3.org/1999/xlink" viewBox="0 0 599.999999999998181 600.000000000003638">
  <defs>
    <radialGradient id="radial-gradient" cx="-415.740499302635726" cy="552.038879182298842" fx="-415.740499302635726" fy="552.038879182298842" r="1164.630776817154356" gradientUnits="userSpaceOnUse">
      <stop offset="0" stop-color="#606161" stop-opacity=".600000023841858"/>
      <stop offset=".24811931720048" stop-color="rgba(96, 97, 97, .512047656878147)" stop-opacity=".512047656878147"/>
      <stop offset=".643447143033949" stop-color="rgba(96, 97, 97, .273139587438092)" stop-opacity=".273139587438092"/>
      <stop offset="1" stop-color="#606161" stop-opacity="0"/>
    </radialGradient>
    <symbol id="shadow" viewBox="0 0 600 600.00006103515625">
      <g>
        <rect x=".500244140625" y=".50030517578125" width="599" height="599" fill="url(#radial-gradient)" stroke-width="0"/>
        <path d="M599,1v598.00006103515625H1V1h598M600,0H0v600.00006103515625h600V0h0Z" fill="#000" stroke-width="0"/>
      </g>
    </symbol>
    <linearGradient id="linear-gradient" x1="439.663213224143874" y1="1654.734509895606607" x2="460.523183680413354" y2="1683.674050009543407" gradientTransform="translate(-145.213302612304688 1894.902343750007276) scale(1 -1)" gradientUnits="userSpaceOnUse">
      <stop offset="0" stop-color="#028693"/>
      <stop offset=".5" stop-color="#048d8d"/>
      <stop offset="1" stop-color="#0c8f82"/>
    </linearGradient>
    <linearGradient id="linear-gradient-2" x1="494.527842611763845" y1="1584.477334676821556" x2="543.707669401872749" y2="1661.320789873136391" gradientTransform="translate(-145.213302612304688 1894.902343750007276) scale(1 -1)" gradientUnits="userSpaceOnUse">
      <stop offset="0" stop-color="#679a5a"/>
      <stop offset=".203304405212402" stop-color="#6d9a56"/>
      <stop offset=".454423828125" stop-color="#7b9d4d"/>
      <stop offset=".487179489135742" stop-color="#7d9e4b"/>
      <stop offset="1" stop-color="#91a23c"/>
    </linearGradient>
    <linearGradient id="linear-gradient-3" x1="488.949582278957678" y1="1662.248535486591209" x2="514.215072016802083" y2="1701.725862366363117" gradientTransform="translate(-145.213302612304688 1894.902343750007276) scale(1 -1)" gradientUnits="userSpaceOnUse">
      <stop offset="0" stop-color="#1f9276"/>
      <stop offset=".5" stop-color="#4b966a"/>
      <stop offset="1" stop-color="#679a5a"/>
    </linearGradient>
    <linearGradient id="linear-gradient-4" x1="518.646656122689819" y1="1523.332166832562507" x2="546.21757926951534" y2="1566.411739654821076" gradientTransform="translate(-145.213302612304688 1894.902343750007276) scale(1 -1)" gradientUnits="userSpaceOnUse">
      <stop offset="0" stop-color="#c38a58"/>
      <stop offset=".514957237243652" stop-color="#d3805f"/>
      <stop offset=".79986442565918" stop-color="#d97b62"/>
      <stop offset="1" stop-color="#e17465"/>
    </linearGradient>
    <linearGradient id="linear-gradient-5" x1="391.367999853839137" y1="1582.198494470956575" x2="441.137933528800374" y2="1644.536589523846033" gradientTransform="translate(-145.213302612304688 1894.902343750007276) scale(1 -1)" gradientUnits="userSpaceOnUse">
      <stop offset="0" stop-color="#7e68a3"/>
      <stop offset=".385181159973145" stop-color="#8a5fa5"/>
      <stop offset=".489316215515137" stop-color="#8e5ca6"/>
      <stop offset=".841924591064453" stop-color="#9b5d9e"/>
      <stop offset="1" stop-color="#a25e9a"/>
    </linearGradient>
    <linearGradient id="linear-gradient-6" x1="364.519690981921485" y1="1502.896663656565579" x2="399.2640608301067" y2="1546.414849812833609" gradientTransform="translate(-145.213302612304688 1894.902343750007276) scale(1 -1)" gradientUnits="userSpaceOnUse">
      <stop offset="0" stop-color="#b86190"/>
      <stop offset=".5" stop-color="#c96282"/>
      <stop offset="1" stop-color="#de6577"/>
    </linearGradient>
    <linearGradient id="linear-gradient-7" x1="340.803396631553369" y1="1624.263546791473345" x2="371.648886003419818" y2="1662.898298868381744" gradientTransform="translate(-145.213302612304688 1894.902343750007276) scale(1 -1)" gradientUnits="userSpaceOnUse">
      <stop offset="0" stop-color="#6b70a1"/>
      <stop offset=".5" stop-color="#53789c"/>
      <stop offset=".718915176391602" stop-color="#4f799b"/>
      <stop offset=".841614990234375" stop-color="#487a9a"/>
      <stop offset=".94023796081543" stop-color="#3a7d9a"/>
      <stop offset="1" stop-color="#2e8099"/>
    </linearGradient>
    <linearGradient id="linear-gradient-8" x1="405.499194734884441" y1="1504.181463791537681" x2="487.737101467413765" y2="1566.949624508206625" gradientTransform="translate(-145.213302612304688 1894.902343750007276) scale(1 -1)" gradientUnits="userSpaceOnUse">
      <stop offset="0" stop-color="#de6577"/>
      <stop offset=".5" stop-color="#f1666a"/>
      <stop offset="1" stop-color="#e17465"/>
    </linearGradient>
  </defs>
  <use width="600" height="600.00006103515625" xlink:href="#shadow"/>
  <g id="pie_with_links_-5" data-name="pie (with links)">
    <g id="pie_with_links_-6" data-name="pie (with links)">
      <g id="Pie">
        <g>
          <a xlink:href="https://www.notion.so/dmmnotes/paranoid-ae38b1e6af0c4dd08f61e0d8f6e9f05f?pvs=4">
            <path id="C8" d="M331.308105468760004,517.749511718753638l7.825683593739086,54.4306640625c26.439208984370453-3.767822265632276,51.645751953140461-11.3115234375,75.101318359370453-22.04296875l-22.832519531239086-49.996826171882276c-18.7666015625,8.572265625-38.93505859375,14.601318359382276-60.094482421870453,17.609130859382276Z" fill="none" stroke="#000" stroke-linecap="round" stroke-linejoin="round" stroke-width="7"/>
          </a>
          <a xlink:href="https://www.notion.so/dmmnotes/menacing-a5bd7149286344deba45ec15e759e579?pvs=4">
            <path id="C7" d="M391.402587890630457,500.140380859371362l22.832519531239086,49.996826171882276c23.989990234390461-10.975830078121362,46.116210937520009-25.287109375010914,65.803955078140461-42.36181640625l-35.972900390629547-41.515869140621362c-15.753417968760914,13.65869140625-33.459228515631366,25.104492187489086-52.66357421875,33.880859374989086Z" fill="none" stroke="#000" stroke-linecap="round" stroke-linejoin="round" stroke-width="7"/>
          </a>
          <a xlink:href="https://www.notion.so/dmmnotes/seductively-obsessed-with-rescue-6fb5a68f6d334bc29ccccc16d8a4e56e?pvs=4">
            <path id="C6" d="M444.066162109380457,466.259521484382276l35.972900390629547,41.515869140621362c19.762939453120453-17.141845703132276,37.047119140620453-37.041748046882276,51.26708984375-59.125l-46.223632812510914-29.704833984371362c-11.373291015618634,17.673583984371362-25.201171874989086,33.598876953121362-41.016357421868634,47.31396484375Z" fill="none" stroke="#000" stroke-linecap="round" stroke-linejoin="round" stroke-width="7"/>
          </a>
          <a xlink:href="https://www.notion.so/dmmnotes/punitively-obsessed-with-revenge-33d2e77f37774316b42bccf4a60f9688?pvs=4">
            <path id="C5" d="M485.082519531249091,418.945556640632276l46.223632812510914,29.704833984371362c14.048095703129547-21.809326171882276,25.08837890625-45.71875,32.551513671869543-71.175048828132276l-52.754882812499091-15.490234375c-5.9619140625,20.377929687510914-14.789306640620453,39.509765625-26.020263671881366,56.960449218760914Z" fill="none" stroke="#000" stroke-linecap="round" stroke-linejoin="round" stroke-width="7"/>
          </a>
          <a xlink:href="https://www.notion.so/dmmnotes/feigned-helpless-e79a94b0498c4e109a681b7f3dcdb088?pvs=4">
            <path id="C4" d="M519.999999999999091,300.000000000003638c0,21.5380859375-3.142089843739086,42.321533203117724-8.897216796868634,61.985107421867724l52.754882812499091,15.490234375c7.2080078125-24.583496093739086,11.142333984369543-50.5634765625,11.142333984369543-77.475341796867724h-55Z" fill="none" stroke="#000" stroke-linecap="round" stroke-linejoin="round" stroke-width="7"/>
          </a>
          <a xlink:href="https://www.notion.so/dmmnotes/aggressive-2d8ccce383534b9dbfc7b4b10b8a5d5c?pvs=4">
            <path id="C3" d="M519.999999999999091,300.000000000003638h55c0-26.911865234389552-3.934326171869543-52.894531250010914-11.142333984369543-77.475341796889552l-52.754882812499091,15.490234375c5.755126953129547,19.663574218757276,8.897216796868634,40.449707031257276,8.897216796868634,61.985107421889552Z" fill="none" stroke="#000" stroke-linecap="round" stroke-linejoin="round" stroke-width="7"/>
          </a>
          <a xlink:href="https://www.notion.so/dmmnotes/disarming-086276e599884c86b9359acf831a8b20?pvs=4">
            <path id="C2" d="M511.102783203130457,238.014892578114086l52.754882812499091-15.490234375c-7.463134765619543-25.456298828121362-18.503417968739996-49.365722656242724-32.551513671869543-71.177734374992724l-46.223632812510914,29.70751953125c11.230957031260914,17.45068359375,20.055664062510914,36.585205078121362,26.020263671881366,56.960449218742724Z" fill="none" stroke="#000" stroke-linecap="round" stroke-linejoin="round" stroke-width="7"/>
          </a>
          <a xlink:href="https://www.notion.so/dmmnotes/threatening-348fe6a52f7a4fe69f768e98c6586932?pvs=4">
            <path id="C1" d="M485.082519531249091,181.054443359371362l46.223632812510914-29.70751953125c-14.219970703129547-22.08056640625-31.504150390629547-41.980468750007276-51.26708984375-59.122314453125l-35.972900390629547,41.518554687496362c15.815185546879547,13.71240234375,29.64306640625,29.637695312510914,41.016357421868634,47.311279296878638Z" fill="none" stroke="#000" stroke-linecap="round" stroke-linejoin="round" stroke-width="7"/>
          </a>
          <a xlink:href="https://www.notion.so/dmmnotes/complaining-acceptance-8b40401a720c493ba73f7cde1567cf3d?pvs=4">
            <path id="B5" d="M444.066162109380457,133.743164062492724l35.972900390629547-41.518554687496362c-19.687744140620453-17.074707031251819-41.81396484375-31.388671875001819-65.803955078140461-42.361816406251819l-22.832519531239086,49.999511718751819c19.204345703118634,8.773681640628638,36.910156249989086,20.22216796875,52.66357421875,33.880859374996362Z" fill="none" stroke="#000" stroke-linecap="round" stroke-linejoin="round" stroke-width="7"/>
          </a>
          <a xlink:href="https://www.notion.so/dmmnotes/sentimental-bc554363322342b1b7ca4ccc02125049?pvs=4">
            <path id="B4" d="M391.402587890630457,99.862304687496362l22.832519531239086-49.999511718751819c-23.455566406229991-10.7314453125-48.662109375-18.275146484382276-75.101318359370453-22.042968749989086l-7.825683593739086,54.433349609369543c21.159423828120453,3.0078125,41.327880859370453,9.034179687489086,60.094482421870453,17.609130859371362Z" fill="none" stroke="#000" stroke-linecap="round" stroke-linejoin="round" stroke-width="7"/>
          </a>
          <a xlink:href="https://www.notion.so/dmmnotes/comfortably-balanced-e76dc615a8b947aa915377cd02fcf716?pvs=4">
            <path id="B3" d="M299.999999999999091,79.999999999996362c10.634765625,0,21.078857421870453.797607421878638,31.308105468760914,2.253173828128638l7.825683593739086-54.433349609369543c-12.788574218739086-1.823486328132276-25.843017578129547-2.819824218760914-39.1337890625-2.819824218760914-13.290771484368634,0-26.34521484375.996337890628638-39.133789062489086,2.819824218760914l7.825683593739086,54.433349609369543c10.23193359375-1.45556640625,20.67333984375-2.253173828128638,31.30810546875-2.253173828128638Z" fill="none" stroke="#000" stroke-linecap="round" stroke-linejoin="round" stroke-width="7"/>
          </a>
          <a xlink:href="https://www.notion.so/dmmnotes/accepting-317d81273fff4cd9817cdf4a88efd378?pvs=4">
            <path id="B2" d="M268.691894531249091,82.253173828125l-7.825683593739086-54.433349609369543c-26.439208984390461,3.76782226560681-51.643066406260914,11.311523437489086-75.098632812510914,22.042968749989086l22.83251953125,49.999511718751819c18.7666015625-8.574951171882276,38.93505859375-14.601318359371362,60.091796875-17.609130859371362Z" fill="none" stroke="#000" stroke-linecap="round" stroke-linejoin="round" stroke-width="7"/>
          </a>
          <a xlink:href="https://www.notion.so/dmmnotes/distanced-from-past-2eabab7e9c77429f8e577f4e3e203653?pvs=4">
            <path id="B1" d="M208.600097656249091,99.862304687496362l-22.83251953125-49.999511718751819c-23.99267578125,10.97314453125-46.1162109375,25.287109375-65.803955078120453,42.361816406251819l35.972900390620453,41.515869140625c15.75341796875-13.658691406257276,33.4619140625-25.104492187496362,52.66357421875-33.878173828125Z" fill="none" stroke="#000" stroke-linecap="round" stroke-linejoin="round" stroke-width="7"/>
          </a>
          <a xlink:href="https://www.notion.so/dmmnotes/idealising-a52277f51ed14a42aae78081bb34b8be?pvs=4">
            <path id="A1" d="M155.936523437499091,133.740478515621362l-35.972900390620453-41.515869140625c-19.765625,17.141845703117724-37.049804687509095,37.041748046875-51.269775390629547,59.122314453125l46.226318359370453,29.70751953125c11.373291015640461-17.673583984367724,25.201171875009095-33.598876953128638,41.016357421879547-47.31396484375Z" fill="none" stroke="#000" stroke-linecap="round" stroke-linejoin="round" stroke-width="7"/>
          </a>
          <a xlink:href="https://www.notion.so/dmmnotes/distancing-9ac690cdca654729a17a5a255944e2d1?pvs=4">
            <path id="A2" d="M114.920166015619543,181.054443359371362l-46.226318359370453-29.70751953125c-14.04541015625,21.81201171875-25.08837890625,45.721435546871362-32.551513671879547,71.177734374992724l52.754882812509095,15.490234375c5.964599609370453-20.375244140621362,14.7919921875-39.509765624992724,26.022949218740905-56.960449218742724Z" fill="none" stroke="#000" stroke-linecap="round" stroke-linejoin="round" stroke-width="7"/>
          </a>
          <a xlink:href="https://www.notion.so/dmmnotes/compulsive-caregiving-9c380c0928294f41ae10764aa0dee886?pvs=4">
            <path id="A3" d="M88.897216796878638,238.014892578114086l-52.754882812509095-15.490234375c-7.205322265620453,24.580810546878638-11.142333984370453,50.5634765625-11.142333984370453,77.475341796889552h55c0-21.535400390632276,3.14208984375-42.321533203132276,8.897216796879547-61.985107421889552Z" fill="none" stroke="#000" stroke-linecap="round" stroke-linejoin="round" stroke-width="7"/>
          </a>
          <a xlink:href="https://www.notion.so/dmmnotes/compulsive-compliance-6d08b7ea9a424ce1a72b9184b7850414?pvs=4">
            <path id="A4" d="M79.999999999999091,300.000000000003638H24.999999999999091c0,26.911865234367724,3.93701171875,52.894531249989086,11.142333984370453,77.475341796867724l52.754882812509095-15.490234375c-5.755126953129547-19.66357421875-8.897216796879547-40.447021484367724-8.897216796879547-61.985107421867724Z" fill="none" stroke="#000" stroke-linecap="round" stroke-linejoin="round" stroke-width="7"/>
          </a>
          <a xlink:href="https://www.notion.so/dmmnotes/sexual-supplementation-8e85f49046ef412aa229745abf7d38d3?pvs=4">
            <path id="A5" d="M88.897216796878638,361.985107421871362l-52.754882812509095,15.490234375c7.463134765629547,25.456298828132276,18.506103515629547,49.36572265625,32.551513671879547,71.175048828132276l46.223632812510914-29.704833984371362c-11.230957031260914-17.450683593760914-20.055664062510914-36.58251953125-26.020263671881366-56.960449218760914Z" fill="none" stroke="#000" stroke-linecap="round" stroke-linejoin="round" stroke-width="7"/>
          </a>
          <a xlink:href="https://www.notion.so/dmmnotes/compulsive-isolated-self-reliance-b321873a73fa41aaaadd7192fde856a2?pvs=4">
            <path id="A6" d="M114.917480468760004,418.945556640632276l-46.223632812510914,29.704833984371362c14.219970703120453,22.083251953117724,31.504150390629547,41.983154296867724,51.269775390629547,59.125l35.972900390620453-41.515869140621362c-15.815185546870453-13.712402343760914-29.643066406239086-29.637695312510914-41.019042968739086-47.31396484375Z" fill="none" stroke="#000" stroke-linecap="round" stroke-linejoin="round" stroke-width="7"/>
          </a>
          <a xlink:href="https://www.notion.so/dmmnotes/delusional-idealization-743e2420b9994a48a7cab68190432e8a?pvs=4">
            <path id="A7" d="M155.936523437499091,466.259521484382276l-35.972900390620453,41.515869140621362c19.687744140620453,17.074707031239086,41.811279296870453,31.385986328128638,65.803955078120453,42.36181640625l22.83251953125-49.996826171882276c-19.20166015625-8.773681640617724-36.91015625-20.222167968739086-52.66357421875-33.880859374989086Z" fill="none" stroke="#000" stroke-linecap="round" stroke-linejoin="round" stroke-width="7"/>
          </a>
          <a xlink:href="https://www.notion.so/dmmnotes/externally-assembled-self-994ecb0895b844409b931d74a045c162?pvs=4">
            <path id="A8" d="M208.600097656249091,500.140380859371362l-22.83251953125,49.996826171882276c23.45556640625,10.7314453125,48.659423828120453,18.275146484367724,75.098632812510914,22.04296875l7.825683593739086-54.4306640625c-21.15673828125-3.0078125-41.3251953125-9.0341796875-60.091796875-17.609130859382276Z" fill="none" stroke="#000" stroke-linecap="round" stroke-linejoin="round" stroke-width="7"/>
          </a>
          <a xlink:href="https://www.notion.so/dmmnotes/psychopathy-0fe4a3222d9f4fd097ab4546c9776768?pvs=4">
            <path id="AC" d="M299.999999999999091,520.000000000003638c-10.634765625,0-21.076171875-.794921875-31.30810546875-2.25048828125l-7.825683593739086,54.4306640625c12.788574218739086,1.823486328128638,25.843017578120453,2.81982421875,39.133789062489086,2.81982421875,13.290771484370453,0,26.345214843760914-.996337890621362,39.1337890625-2.81982421875l-7.825683593739086-54.4306640625c-10.229248046890461,1.45556640625-20.673339843760914,2.25048828125-31.308105468760914,2.25048828125Z" fill="none" stroke="#000" stroke-linecap="round" stroke-linejoin="round" stroke-width="7"/>
          </a>
        </g>
        <g>
          <a xlink:href="https://www.notion.so/dmmnotes/paranoid-ae38b1e6af0c4dd08f61e0d8f6e9f05f?pvs=4">
            <path id="C8-2" data-name="C8" d="M331.308105468760004,517.749511718753638l7.825683593739086,54.4306640625c26.439208984370453-3.767822265632276,51.645751953140461-11.3115234375,75.101318359370453-22.04296875l-22.832519531239086-49.996826171882276c-18.7666015625,8.572265625-38.93505859375,14.601318359382276-60.094482421870453,17.609130859382276Z" fill="#cd7969" stroke="#000" stroke-linecap="round" stroke-linejoin="round" stroke-width="2"/>
          </a>
          <a xlink:href="https://www.notion.so/dmmnotes/menacing-a5bd7149286344deba45ec15e759e579?pvs=4">
            <path id="C7-2" data-name="C7" d="M391.402587890630457,500.140380859371362l22.832519531239086,49.996826171882276c23.989990234390461-10.975830078121362,46.116210937520009-25.287109375010914,65.803955078140461-42.36181640625l-35.972900390629547-41.515869140621362c-15.753417968760914,13.65869140625-33.459228515631366,25.104492187489086-52.66357421875,33.880859374989086Z" fill="#c78361" stroke="#000" stroke-linecap="round" stroke-linejoin="round" stroke-width="2"/>
          </a>
          <a xlink:href="https://www.notion.so/dmmnotes/seductively-obsessed-with-rescue-6fb5a68f6d334bc29ccccc16d8a4e56e?pvs=4">
            <path id="C6-2" data-name="C6" d="M444.066162109380457,466.259521484382276l35.972900390629547,41.515869140621362c19.762939453120453-17.141845703132276,37.047119140620453-37.041748046882276,51.26708984375-59.125l-46.223632812510914-29.704833984371362c-11.373291015618634,17.673583984371362-25.201171874989086,33.598876953121362-41.016357421868634,47.31396484375Z" fill="#bb8a59" stroke="#000" stroke-linecap="round" stroke-linejoin="round" stroke-width="2"/>
          </a>
          <a xlink:href="https://www.notion.so/dmmnotes/punitively-obsessed-with-revenge-33d2e77f37774316b42bccf4a60f9688?pvs=4">
            <path id="C5-2" data-name="C5" d="M485.082519531249091,418.945556640632276l46.223632812510914,29.704833984371362c14.048095703129547-21.809326171882276,25.08837890625-45.71875,32.551513671869543-71.175048828132276l-52.754882812499091-15.490234375c-5.9619140625,20.377929687510914-14.789306640620453,39.509765625-26.020263671881366,56.960449218760914Z" fill="#ac9156" stroke="#000" stroke-linecap="round" stroke-linejoin="round" stroke-width="2"/>
          </a>
          <a xlink:href="https://www.notion.so/dmmnotes/feigned-helpless-e79a94b0498c4e109a681b7f3dcdb088?pvs=4">
            <path id="C4-2" data-name="C4" d="M519.999999999999091,300.000000000003638c0,21.5380859375-3.142089843739086,42.321533203117724-8.897216796868634,61.985107421867724l52.754882812499091,15.490234375c7.2080078125-24.583496093739086,11.142333984369543-50.5634765625,11.142333984369543-77.475341796867724h-55Z" fill="#999555" stroke="#000" stroke-linecap="round" stroke-linejoin="round" stroke-width="2"/>
          </a>
          <a xlink:href="https://www.notion.so/dmmnotes/aggressive-2d8ccce383534b9dbfc7b4b10b8a5d5c?pvs=4">
            <path id="C3-2" data-name="C3" d="M519.999999999999091,300.000000000003638h55c0-26.911865234389552-3.934326171869543-52.894531250010914-11.142333984369543-77.475341796889552l-52.754882812499091,15.490234375c5.755126953129547,19.663574218757276,8.897216796868634,40.449707031257276,8.897216796868634,61.985107421889552Z" fill="#859658" stroke="#000" stroke-linecap="round" stroke-linejoin="round" stroke-width="2"/>
          </a>
          <a xlink:href="https://www.notion.so/dmmnotes/disarming-086276e599884c86b9359acf831a8b20?pvs=4">
            <path id="C2-2" data-name="C2" d="M511.102783203130457,238.014892578114086l52.754882812499091-15.490234375c-7.463134765619543-25.456298828121362-18.503417968739996-49.365722656242724-32.551513671869543-71.177734374992724l-46.223632812510914,29.70751953125c11.230957031260914,17.45068359375,20.055664062510914,36.585205078121362,26.020263671881366,56.960449218742724Z" fill="#6e975f" stroke="#000" stroke-linecap="round" stroke-linejoin="round" stroke-width="2"/>
          </a>
          <a xlink:href="https://www.notion.so/dmmnotes/threatening-348fe6a52f7a4fe69f768e98c6586932?pvs=4">
            <path id="C1-2" data-name="C1" d="M485.082519531249091,181.054443359371362l46.223632812510914-29.70751953125c-14.219970703129547-22.08056640625-31.504150390629547-41.980468750007276-51.26708984375-59.122314453125l-35.972900390629547,41.518554687496362c15.815185546879547,13.71240234375,29.64306640625,29.637695312510914,41.016357421868634,47.311279296878638Z" fill="#589569" stroke="#000" stroke-linecap="round" stroke-linejoin="round" stroke-width="2"/>
          </a>
          <a xlink:href="https://www.notion.so/dmmnotes/complaining-acceptance-8b40401a720c493ba73f7cde1567cf3d?pvs=4">
            <path id="B5-2" data-name="B5" d="M444.066162109380457,133.743164062492724l35.972900390629547-41.518554687496362c-19.687744140620453-17.074707031251819-41.81396484375-31.388671875001819-65.803955078140461-42.361816406251819l-22.832519531239086,49.999511718751819c19.204345703118634,8.773681640628638,36.910156249989086,20.22216796875,52.66357421875,33.880859374996362Z" fill="#3d9174" stroke="#000" stroke-linecap="round" stroke-linejoin="round" stroke-width="2"/>
          </a>
          <a xlink:href="https://www.notion.so/dmmnotes/sentimental-bc554363322342b1b7ca4ccc02125049?pvs=4">
            <path id="B4-2" data-name="B4" d="M391.402587890630457,99.862304687496362l22.832519531239086-49.999511718751819c-23.455566406229991-10.7314453125-48.662109375-18.275146484382276-75.101318359370453-22.042968749989086l-7.825683593739086,54.433349609369543c21.159423828120453,3.0078125,41.327880859370453,9.034179687489086,60.094482421870453,17.609130859371362Z" fill="#2c8d7e" stroke="#000" stroke-linecap="round" stroke-linejoin="round" stroke-width="2"/>
          </a>
          <a xlink:href="https://www.notion.so/dmmnotes/comfortably-balanced-e76dc615a8b947aa915377cd02fcf716?pvs=4">
            <path id="B3-2" data-name="B3" d="M299.999999999999091,79.999999999996362c10.634765625,0,21.078857421870453.797607421878638,31.308105468760914,2.253173828128638l7.825683593739086-54.433349609369543c-12.788574218739086-1.823486328132276-25.843017578129547-2.819824218760914-39.1337890625-2.819824218760914-13.290771484368634,0-26.34521484375.996337890628638-39.133789062489086,2.819824218760914l7.825683593739086,54.433349609369543c10.23193359375-1.45556640625,20.67333984375-2.253173828128638,31.30810546875-2.253173828128638Z" fill="#268887" stroke="#000" stroke-linecap="round" stroke-linejoin="round" stroke-width="2"/>
          </a>
          <a xlink:href="https://www.notion.so/dmmnotes/accepting-317d81273fff4cd9817cdf4a88efd378?pvs=4">
            <path id="B2-2" data-name="B2" d="M268.691894531249091,82.253173828125l-7.825683593739086-54.433349609369543c-26.439208984390461,3.76782226560681-51.643066406260914,11.311523437489086-75.098632812510914,22.042968749989086l22.83251953125,49.999511718751819c18.7666015625-8.574951171882276,38.93505859375-14.601318359371362,60.091796875-17.609130859371362Z" fill="#2e8390" stroke="#000" stroke-linecap="round" stroke-linejoin="round" stroke-width="2"/>
          </a>
          <a xlink:href="https://www.notion.so/dmmnotes/distanced-from-past-2eabab7e9c77429f8e577f4e3e203653?pvs=4">
            <path id="B1-2" data-name="B1" d="M208.600097656249091,99.862304687496362l-22.83251953125-49.999511718751819c-23.99267578125,10.97314453125-46.1162109375,25.287109375-65.803955078120453,42.361816406251819l35.972900390620453,41.515869140625c15.75341796875-13.658691406257276,33.4619140625-25.104492187496362,52.66357421875-33.878173828125Z" fill="#477e96" stroke="#000" stroke-linecap="round" stroke-linejoin="round" stroke-width="2"/>
          </a>
          <a xlink:href="https://www.notion.so/dmmnotes/idealising-a52277f51ed14a42aae78081bb34b8be?pvs=4">
            <path id="A1-2" data-name="A1" d="M155.936523437499091,133.740478515621362l-35.972900390620453-41.515869140625c-19.765625,17.141845703117724-37.049804687509095,37.041748046875-51.269775390629547,59.122314453125l46.226318359370453,29.70751953125c11.373291015640461-17.673583984367724,25.201171875009095-33.598876953128638,41.016357421879547-47.31396484375Z" fill="#5e779a" stroke="#000" stroke-linecap="round" stroke-linejoin="round" stroke-width="2"/>
          </a>
          <a xlink:href="https://www.notion.so/dmmnotes/distancing-9ac690cdca654729a17a5a255944e2d1?pvs=4">
            <path id="A2-2" data-name="A2" d="M114.920166015619543,181.054443359371362l-46.226318359370453-29.70751953125c-14.04541015625,21.81201171875-25.08837890625,45.721435546871362-32.551513671879547,71.177734374992724l52.754882812509095,15.490234375c5.964599609370453-20.375244140621362,14.7919921875-39.509765624992724,26.022949218740905-56.960449218742724Z" fill="#72729b" stroke="#000" stroke-linecap="round" stroke-linejoin="round" stroke-width="2"/>
          </a>
          <a xlink:href="https://www.notion.so/dmmnotes/compulsive-caregiving-9c380c0928294f41ae10764aa0dee886?pvs=4">
            <path id="A3-2" data-name="A3" d="M88.897216796878638,238.014892578114086l-52.754882812509095-15.490234375c-7.205322265620453,24.580810546878638-11.142333984370453,50.5634765625-11.142333984370453,77.475341796889552h55c0-21.535400390632276,3.14208984375-42.321533203132276,8.897216796879547-61.985107421889552Z" fill="#866c99" stroke="#000" stroke-linecap="round" stroke-linejoin="round" stroke-width="2"/>
          </a>
          <a xlink:href="https://www.notion.so/dmmnotes/compulsive-compliance-6d08b7ea9a424ce1a72b9184b7850414?pvs=4">
            <path id="A4-2" data-name="A4" d="M79.999999999999091,300.000000000003638H24.999999999999091c0,26.911865234367724,3.93701171875,52.894531249989086,11.142333984370453,77.475341796867724l52.754882812509095-15.490234375c-5.755126953129547-19.66357421875-8.897216796879547-40.447021484367724-8.897216796879547-61.985107421867724Z" fill="#aa6490" stroke="#000" stroke-linecap="round" stroke-linejoin="round" stroke-width="2"/>
          </a>
          <a xlink:href="https://www.notion.so/dmmnotes/sexual-supplementation-8e85f49046ef412aa229745abf7d38d3?pvs=4">
            <path id="A5-2" data-name="A5" d="M88.897216796878638,361.985107421871362l-52.754882812509095,15.490234375c7.463134765629547,25.456298828132276,18.506103515629547,49.36572265625,32.551513671879547,71.175048828132276l46.223632812510914-29.704833984371362c-11.230957031260914-17.450683593760914-20.055664062510914-36.58251953125-26.020263671881366-56.960449218760914Z" fill="#aa6490" stroke="#000" stroke-linecap="round" stroke-linejoin="round" stroke-width="2"/>
          </a>
          <a xlink:href="https://www.notion.so/dmmnotes/compulsive-isolated-self-reliance-b321873a73fa41aaaadd7192fde856a2?pvs=4">
            <path id="A6-2" data-name="A6" d="M114.917480468760004,418.945556640632276l-46.223632812510914,29.704833984371362c14.219970703120453,22.083251953117724,31.504150390629547,41.983154296867724,51.269775390629547,59.125l35.972900390620453-41.515869140621362c-15.815185546870453-13.712402343760914-29.643066406239086-29.637695312510914-41.019042968739086-47.31396484375Z" fill="#b9638b" stroke="#000" stroke-linecap="round" stroke-linejoin="round" stroke-width="2"/>
          </a>
          <a xlink:href="https://www.notion.so/dmmnotes/delusional-idealization-743e2420b9994a48a7cab68190432e8a?pvs=4">
            <path id="A7-2" data-name="A7" d="M155.936523437499091,466.259521484382276l-35.972900390620453,41.515869140621362c19.687744140620453,17.074707031239086,41.811279296870453,31.385986328128638,65.803955078120453,42.36181640625l22.83251953125-49.996826171882276c-19.20166015625-8.773681640617724-36.91015625-20.222167968739086-52.66357421875-33.880859374989086Z" fill="#c46681" stroke="#000" stroke-linecap="round" stroke-linejoin="round" stroke-width="2"/>
          </a>
          <a xlink:href="https://www.notion.so/dmmnotes/externally-assembled-self-994ecb0895b844409b931d74a045c162?pvs=4">
            <path id="A8-2" data-name="A8" d="M208.600097656249091,500.140380859371362l-22.83251953125,49.996826171882276c23.45556640625,10.7314453125,48.659423828120453,18.275146484367724,75.098632812510914,22.04296875l7.825683593739086-54.4306640625c-21.15673828125-3.0078125-41.3251953125-9.0341796875-60.091796875-17.609130859382276Z" fill="#cc6a7a" stroke="#000" stroke-linecap="round" stroke-linejoin="round" stroke-width="2"/>
          </a>
          <a xlink:href="https://www.notion.so/dmmnotes/psychopathy-0fe4a3222d9f4fd097ab4546c9776768?pvs=4">
            <path id="AC-2" data-name="AC" d="M299.999999999999091,520.000000000003638c-10.634765625,0-21.076171875-.794921875-31.30810546875-2.25048828125l-7.825683593739086,54.4306640625c12.788574218739086,1.823486328128638,25.843017578120453,2.81982421875,39.133789062489086,2.81982421875,13.290771484370453,0,26.345214843760914-.996337890621362,39.1337890625-2.81982421875l-7.825683593739086-54.4306640625c-10.229248046890461,1.45556640625-20.673339843760914,2.25048828125-31.308105468760914,2.25048828125Z" fill="#cf7171" stroke="#000" stroke-linecap="round" stroke-linejoin="round" stroke-width="2"/>
          </a>
        </g>
      </g>
      <g id="Pattern_circles_mini" data-name="Pattern circles mini">
        <a xlink:href="https://www.notion.so/dmmnotes/patterns-017f25ab38164ae597bb02f2bf65a9a1?pvs=4">
          <g id="Specific_patterns" data-name="Specific patterns">
            <g id="B">
              <path d="M305.181800345385454,257.662036895753772c-17.85595703125,0-32.3828125-14.52734375-32.3828125-32.3828125s14.52685546875-32.3828125,32.3828125-32.3828125,32.3828125,14.52734375,32.3828125,32.3828125-14.52685546875,32.3828125-32.3828125,32.3828125Z" fill="url(#linear-gradient)" stroke-width="0"/>
              <path d="M305.182044486010454,200.396591186525256c13.7421875,0,24.8828125,11.140472412109375,24.8828125,24.882907867431641,0,13.74237060546875-11.140625,24.882843017578125-24.8828125,24.882843017578125-13.74267578125,0-24.8828125-11.140472412109375-24.8828125-24.882843017578125,0-13.742431640625,11.14013671875-24.882904052734375,24.8828125-24.882904052734375M305.182044486010454,185.396591186525256c-21.9912109375,0-39.8828125,17.89141845703125-39.8828125,39.882907867431641,0,21.991455078125,17.8916015625,39.882843017578125,39.8828125,39.882843017578125s39.8828125-17.891387939453125,39.8828125-39.882843017578125c0-21.991485595703125-17.8916015625-39.882904052734375-39.8828125-39.882904052734375v-.000003814697266Z" fill="#010101" stroke-width="0"/>
            </g>
            <g id="C">
              <path d="M373.248603323901079,310.669513702394397c-20.755615234375,0-37.641357421875-16.8857421875-37.641357421875-37.6416015625s16.8857421875-37.6416015625,37.641357421875-37.6416015625,37.6416015625,16.8857421875,37.6416015625,37.6416015625-16.885986328125,37.6416015625-37.6416015625,37.6416015625Z" fill="url(#linear-gradient-2)" stroke-width="0"/>
              <path d="M373.248603323901079,242.886371612550647c16.646728515625,0,30.1416015625,13.494873046875,30.1416015625,30.14154052734375,0,16.646728515625-13.494873046875,30.1416015625-30.1416015625,30.1416015625-16.646484375-.00006103515625-30.141357421875-13.494873046875-30.141357421875-30.1416015625,0-16.64666748046875,13.494873046875-30.14154052734375,30.141357421875-30.14154052734375M373.248603323901079,227.886371612550647c-24.89111328125,0-45.141357421875,20.250396728515625-45.141357421875,45.14154052734375,0,24.891082763671875,20.250244140625,45.14154052734375,45.141357421875,45.1416015625,24.89111328125,0,45.1416015625-20.250457763671875,45.1416015625-45.1416015625s-20.25048828125-45.14154052734375-45.1416015625-45.14154052734375h0Z" fill="#010101" stroke-width="0"/>
            </g>
            <g id="C-2">
              <path d="M356.032126883471392,232.779438018800647c-10.662841796875,0-19.337890625-8.6748046875-19.337890625-19.337890625s8.675048828125-19.337890625,19.337890625-19.337890625,19.337890625,8.6748046875,19.337890625,19.337890625-8.675048828125,19.337890625-19.337890625,19.337890625Z" fill="url(#linear-gradient-3)" stroke-width="0"/>
              <path d="M356.032126883471392,201.603897094728381c6.537841796875,0,11.837890625,5.299957275390625,11.837890625,11.837799072265625,0,6.537845611572266-5.300048828125,11.837802886962891-11.837890625,11.837802886962891s-11.837890625-5.300018310546875-11.837890625-11.837799072265625c0-6.537841796875,5.300048828125-11.837799072265625,11.837890625-11.837799072265625M356.032126883471392,186.603897094728381c-14.79833984375,0-26.837646484375,12.03936767578125-26.837646484375,26.837799072265625,0,14.798435211181641,12.039306640625,26.837802886962891,26.837646484375,26.837802886962891s26.837890625-12.03936767578125,26.837890625-26.837799072265625-12.03955078125-26.837799072265625-26.837890625-26.837799072265625v-.000003814697266Z" fill="#010101" stroke-width="0"/>
            </g>
            <g id="C-3">
              <path d="M386.851066092455767,371.707355499269397c-11.6357421875,0-21.102294921875-9.466796875-21.102294921875-21.1025390625s9.466552734375-21.1025390625,21.102294921875-21.1025390625c11.635986328125,0,21.1025390625,9.466796875,21.1025390625,21.1025390625s-9.466552734375,21.1025390625-21.1025390625,21.1025390625Z" fill="url(#linear-gradient-4)" stroke-width="0"/>
              <path d="M386.851066092455767,337.002490997316272c7.512451171875,0,13.6025390625,6.089996337890625,13.6025390625,13.602447509765625,0,7.51239013671875-6.090087890625,13.60235595703125-13.6025390625,13.60235595703125s-13.602294921875-6.0899658203125-13.602294921875-13.60235595703125c0-7.512451171875,6.08984375-13.602447509765625,13.602294921875-13.602447509765625M386.851066092455767,322.002490997316272c-15.771484375,0-28.602294921875,12.831024169921875-28.602294921875,28.602447509765625s12.830810546875,28.60235595703125,28.602294921875,28.60235595703125,28.6025390625-12.8309326171875,28.6025390625-28.60235595703125-12.8310546875-28.602447509765625-28.6025390625-28.602447509765625h0Z" fill="#010101" stroke-width="0"/>
            </g>
            <g id="A-2">
              <path d="M272.599814871752642,316.482837677003772c-16.031005859375,0-30.13232421875-10.25-35.08935546875-25.5068359375-3.046142578125-9.375-2.25927734375-19.3740234375,2.2158203125-28.1572265625,4.474853515625-8.7822265625,12.102294921875-15.2958984375,21.47705078125-18.341796875,3.704345703125-1.2041015625,7.543212890625-1.814453125,11.40966796875-1.814453125,16.031005859375,0,30.13232421875,10.25,35.08935546875,25.5068359375,3.046142578125,9.3740234375,2.25927734375,19.3740234375-2.2158203125,28.15625-4.47509765625,8.783203125-12.102294921875,15.296875-21.47705078125,18.3427734375-3.704345703125,1.2041015625-7.543212890625,1.814453125-11.40966796875,1.814453125Z" fill="url(#linear-gradient-5)" stroke-width="0"/>
              <path d="M272.612266043627642,250.162334442140491c12.39453125-.0003662109375,23.919921875,7.898956298828125,27.95751953125,20.324371337890625,5.017578125,15.443626403808594-3.43408203125,32.031059265136719-18.87744140625,37.048973083496094-3.01806640625.980682373046875-6.0810546875,1.446990966796875-9.091796875,1.446990966796875-12.39453125,0-23.919921875-7.898956298828125-27.95751953125-20.324371337890625-5.017578125-15.443634033203125,3.43408203125-32.031036376953125,18.87744140625-37.04901123046875,3.01806640625-.98065185546875,6.0810546875-1.446868896484375,9.091796875-1.44696044921875M272.613242606127642,235.162364959718616h-.00048828125c-4.6552734375.0001220703125-9.2734375.73394775390625-13.7275390625,2.18109130859375-23.28466796875,7.5657958984375-36.0732421875,32.664764404296875-28.50830078125,55.949790954589844,5.96484375,18.356475830078125,22.93310546875,30.689422607421875,42.2236328125,30.689422607421875,4.654296875,0,9.2724609375-.73382568359375,13.72705078125-2.18115234375,23.28466796875-7.565765380859375,36.0732421875-32.664703369140625,28.50830078125-55.94976806640625-5.96484375-18.3564453125-22.9326171875-30.68939208984375-42.22265625-30.68939208984375v.000007629394531Z" fill="#010101" stroke-width="0"/>
            </g>
            <g id="A-3">
              <path d="M237.762198904955767,394.638996124269397c-11.19189453125,0-21.03662109375-7.15625-24.4970703125-17.806640625-4.3896484375-13.5087890625,3.030029296875-28.0712890625,16.53955078125-32.4619140625,2.585693359375-.83984375,5.26513671875-1.265625,7.96484375-1.265625,11.1923828125,0,21.037353515625,7.15625,24.497802734375,17.806640625,2.126220703125,6.5439453125,1.57666015625,13.5244140625-1.54736328125,19.65625-3.1240234375,6.130859375-8.44873046875,10.6787109375-14.9931640625,12.8046875-2.584716796875.83984375-5.2646484375,1.2666015625-7.964599609375,1.2666015625Z" fill="url(#linear-gradient-6)" stroke-width="0"/>
              <path d="M237.769767264330767,350.604938507081897c7.6982421875-.000244140625,14.8564453125,4.90606689453125,17.3642578125,12.62353515625,3.11669921875,9.5921630859375-2.1328125,19.8946533203125-11.724609375,23.0113525390625-1.87451171875.60906982421875-3.77685546875.898681640625-5.64697265625.898681640625-7.6982421875,0-14.8564453125-4.90606689453125-17.3642578125-12.62353515625-3.11669921875-9.5921630859375,2.13232421875-19.8946533203125,11.724609375-23.0113525390625,1.87451171875-.60906982421875,3.77685546875-.89862060546875,5.64697265625-.898681640625M237.770255545580767,335.604938507081897h-.00048828125c-3.48828125.000091552734375-6.94775390625.5494384765625-10.2822265625,1.63287353515625-8.44970703125,2.745452880859375-15.32470703125,8.617156982421875-19.35791015625,16.53350830078125-4.03369140625,7.9161376953125-4.74267578125,16.92926025390625-1.9970703125,25.37896728515625,4.46728515625,13.75,17.1787109375,22.98822021484375,31.6298828125,22.98822021484375,3.48828125,0,6.94775390625-.54937744140625,10.2822265625-1.63287353515625,17.44287109375-5.667724609375,27.02294921875-24.4696044921875,21.35498046875-41.9124755859375-4.46728515625-13.749969482421875-17.17822265625-22.98822021484375-31.62939453125-22.98822021484375h0Z" fill="#010101" stroke-width="0"/>
            </g>
            <g id="A-4">
              <path d="M211.980708579028033,272.980937957765491c-9.9365234375,0-18.6767578125-6.353515625-21.748779296875-15.80859375-1.8876953125-5.8095703125-1.39990234375-12.0068359375,1.37353515625-17.4501953125s7.500732421875-9.48046875,13.310791015625-11.3681640625c2.2939453125-.74609375,4.67333984375-1.1240234375,7.071044921875-1.1240234375,9.935791015625,0,18.675777435302734,6.3525390625,21.747798919677734,15.8076171875,1.887939453125,5.810546875,1.400146484375,12.0078125-1.373291015625,17.451171875s-7.50048828125,9.48046875-13.310791015625,11.3681640625c-2.29443359375.7451171875-4.673095703125,1.1240234375-7.070308685302734,1.1240234375Z" fill="url(#linear-gradient-7)" stroke-width="0"/>
              <path d="M211.986812094653033,234.730052947999866c6.4794921875-.000213623046875,12.504878997802734,4.12945556640625,14.615718841552734,10.625244140625,2.623046875,8.07366943359375-1.79541015625,16.745269775390625-9.869140625,19.368560791015625-1.578125.5126953125-3.17919921875.7564697265625-4.7529296875.7564697265625-6.4794921875,0-12.5048828125-4.129425048828125-14.61572265625-10.625244140625-2.623046875-8.07366943359375,1.79541015625-16.7452392578125,9.869140625-19.36859130859375,1.578125-.512664794921875,3.17919921875-.75640869140625,4.7529296875-.756439208984375M211.987300375903033,219.730052947999866h-.00048828125c-3.185546875.00006103515625-6.34423828125.501556396484375-9.38818359375,1.490570068359375-15.9267578125,5.174957275390625-24.67431640625,22.342529296875-19.5,38.269378662109375,4.080078125,12.55523681640625,15.6865234375,20.990325927734375,28.8818359375,20.990325927734375,3.18505859375,0,6.34375-.501495361328125,9.38818359375-1.490570068359375,15.926753997802734-5.174896240234375,24.674312591552734-22.342437744140625,19.499996185302734-38.269287109375-4.080078125-12.55535888671875-15.68603515625-20.99041748046875-28.88134765625-20.99041748046875h.000003814697266Z" fill="#010101" stroke-width="0"/>
            </g>
            <g id="_" data-name=" ">
              <path d="M312.845664481127642,393.310672760011585c-23.548095703125,0-42.7060546875-19.158203125-42.7060546875-42.7060546875s19.157958984375-42.7060546875,42.7060546875-42.7060546875,42.705810546875,19.158203125,42.705810546875,42.7060546875-19.15771484375,42.7060546875-42.705810546875,42.7060546875Z" fill="url(#linear-gradient-8)" stroke-width="0"/>
              <path d="M312.845420340502642,316.398990631105335c18.8916015625,0,34.2060546875,15.31451416015625,34.2060546875,34.205963134765625,0,18.891387939453125-15.314453125,34.205841064453125-34.2060546875,34.205841064453125-18.89111328125,0-34.20556640625-15.314453125-34.20556640625-34.205841064453125,0-18.891448974609375,15.314453125-34.205963134765625,34.20556640625-34.205963134765625M312.845420340502642,299.398990631105335c-28.23486328125,0-51.20556640625,22.970916748046875-51.20556640625,51.205963134765625,0,28.235015869140625,22.970703125,51.205841064453125,51.20556640625,51.205841064453125,28.235107421875,0,51.2060546875-22.9708251953125,51.2060546875-51.205841064453125,0-28.23504638671875-22.970947265625-51.205963134765625-51.2060546875-51.205963134765625h0Z" fill="#010101" stroke-width="0"/>
            </g>
          </g>
        </a>
        <circle cx="223.114398459399126" cy="194.553184509279163" r="9.469173431396484" fill="#010101" stroke-width="0"/>
        <circle cx="373.248710135424517" cy="398.419116973878772" r="16.496871948242188" fill="#010101" stroke-width="0"/>
        <circle cx="196.608474234545611" cy="308.982685089113147" r="14.863203048706055" fill="#010101" stroke-width="0"/>
        <circle cx="400.453528861010454" cy="206.580528259279163" r="7.431596755981445" fill="#010101" stroke-width="0"/>
      </g>
    </g>
  </g>
</svg>