<?xml version="1.0" encoding="UTF-8"?>
<svg id="Layer_1" data-name="Layer 1" xmlns="http://www.w3.org/2000/svg" xmlns:xlink="http://www.w3.org/1999/xlink" viewBox="0 0 599.999999999998181 600.000000000003638">
  <g id="pie_with_links_-5" data-name="pie (with links)">
    <g id="pie_with_links_-6" data-name="pie (with links)">
      <g id="Pie">
        <g>
          <a xlink:href="https://www.notion.so/dmmnotes/paranoid-ae38b1e6af0c4dd08f61e0d8f6e9f05f?pvs=4">
            <path id="C8" d="M331.308105468760004,517.749511718752728l7.825683593739086,54.4306640625c26.439208984370453-3.767822265632276,51.645751953140461-11.3115234375,75.101318359370453-22.04296875l-22.832519531239086-49.996826171882276c-18.7666015625,8.572265625-38.93505859375,14.601318359382276-60.094482421870453,17.609130859382276Z" fill="none" stroke="#000" stroke-linecap="round" stroke-linejoin="round" stroke-width="7"/>
          </a>
          <a xlink:href="https://www.notion.so/dmmnotes/menacing-a5bd7149286344deba45ec15e759e579?pvs=4">
            <path id="C7" d="M391.402587890630457,500.140380859370453l22.832519531239086,49.996826171882276c23.989990234390461-10.975830078121362,46.116210937520009-25.287109375010914,65.803955078140461-42.36181640625l-35.972900390629547-41.515869140621362c-15.753417968760914,13.65869140625-33.459228515631366,25.104492187489086-52.66357421875,33.880859374989086Z" fill="none" stroke="#000" stroke-linecap="round" stroke-linejoin="round" stroke-width="7"/>
          </a>
          <a xlink:href="https://www.notion.so/dmmnotes/seductively-obsessed-with-rescue-6fb5a68f6d334bc29ccccc16d8a4e56e?pvs=4">
            <path id="C6" d="M444.066162109380457,466.259521484381366l35.972900390629547,41.515869140621362c19.762939453120453-17.141845703132276,37.047119140620453-37.041748046882276,51.26708984375-59.125l-46.223632812510914-29.704833984371362c-11.373291015618634,17.673583984371362-25.201171874989086,33.598876953121362-41.016357421868634,47.31396484375Z" fill="none" stroke="#000" stroke-linecap="round" stroke-linejoin="round" stroke-width="7"/>
          </a>
          <a xlink:href="https://www.notion.so/dmmnotes/punitively-obsessed-with-revenge-33d2e77f37774316b42bccf4a60f9688?pvs=4">
            <path id="C5" d="M485.082519531249091,418.945556640631366l46.223632812510914,29.704833984371362c14.048095703129547-21.809326171882276,25.08837890625-45.71875,32.551513671869543-71.175048828132276l-52.754882812499091-15.490234375c-5.9619140625,20.377929687510914-14.789306640620453,39.509765625-26.020263671881366,56.960449218760914Z" fill="none" stroke="#000" stroke-linecap="round" stroke-linejoin="round" stroke-width="7"/>
          </a>
          <a xlink:href="https://www.notion.so/dmmnotes/feigned-helpless-e79a94b0498c4e109a681b7f3dcdb088?pvs=4">
            <path id="C4" d="M519.999999999999091,300.000000000002728c0,21.5380859375-3.142089843739086,42.321533203117724-8.897216796868634,61.985107421867724l52.754882812499091,15.490234375c7.2080078125-24.583496093739086,11.142333984369543-50.5634765625,11.142333984369543-77.475341796867724h-55Z" fill="none" stroke="#000" stroke-linecap="round" stroke-linejoin="round" stroke-width="7"/>
          </a>
          <a xlink:href="https://www.notion.so/dmmnotes/aggressive-2d8ccce383534b9dbfc7b4b10b8a5d5c?pvs=4">
            <path id="C3" d="M519.999999999999091,300.000000000002728h55c0-26.911865234389552-3.934326171869543-52.894531250010914-11.142333984369543-77.475341796889552l-52.754882812499091,15.490234375c5.755126953129547,19.663574218757276,8.897216796868634,40.449707031257276,8.897216796868634,61.985107421889552Z" fill="none" stroke="#000" stroke-linecap="round" stroke-linejoin="round" stroke-width="7"/>
          </a>
          <a xlink:href="https://www.notion.so/dmmnotes/disarming-086276e599884c86b9359acf831a8b20?pvs=4">
            <path id="C2" d="M511.102783203130457,238.014892578113177l52.754882812499091-15.490234375c-7.463134765619543-25.456298828121362-18.503417968739996-49.365722656242724-32.551513671869543-71.177734374992724l-46.223632812510914,29.70751953125c11.230957031260914,17.45068359375,20.055664062510914,36.585205078121362,26.020263671881366,56.960449218742724Z" fill="none" stroke="#000" stroke-linecap="round" stroke-linejoin="round" stroke-width="7"/>
          </a>
          <a xlink:href="https://www.notion.so/dmmnotes/threatening-348fe6a52f7a4fe69f768e98c6586932?pvs=4">
            <path id="C1" d="M485.082519531249091,181.054443359370453l46.223632812510914-29.70751953125c-14.219970703129547-22.08056640625-31.504150390629547-41.980468750007276-51.26708984375-59.122314453125l-35.972900390629547,41.518554687496362c15.815185546879547,13.71240234375,29.64306640625,29.637695312510914,41.016357421868634,47.311279296878638Z" fill="none" stroke="#000" stroke-linecap="round" stroke-linejoin="round" stroke-width="7"/>
          </a>
          <a xlink:href="https://www.notion.so/dmmnotes/complaining-acceptance-8b40401a720c493ba73f7cde1567cf3d?pvs=4">
            <path id="B5" d="M444.066162109380457,133.743164062491815l35.972900390629547-41.518554687496362c-19.687744140620453-17.074707031250909-41.81396484375-31.388671875000909-65.803955078140461-42.361816406250909l-22.832519531239086,49.999511718750909c19.204345703118634,8.773681640628638,36.910156249989086,20.22216796875,52.66357421875,33.880859374996362Z" fill="none" stroke="#000" stroke-linecap="round" stroke-linejoin="round" stroke-width="7"/>
          </a>
          <a xlink:href="https://www.notion.so/dmmnotes/sentimental-bc554363322342b1b7ca4ccc02125049?pvs=4">
            <path id="B4" d="M391.402587890630457,99.862304687495453l22.832519531239086-49.999511718750909c-23.455566406229991-10.7314453125-48.662109375-18.275146484382276-75.101318359370453-22.042968749989086l-7.825683593739086,54.433349609368634c21.159423828120453,3.0078125,41.327880859370453,9.034179687489086,60.094482421870453,17.609130859371362Z" fill="none" stroke="#000" stroke-linecap="round" stroke-linejoin="round" stroke-width="7"/>
          </a>
          <a xlink:href="https://www.notion.so/dmmnotes/comfortably-balanced-e76dc615a8b947aa915377cd02fcf716?pvs=4">
            <path id="B3" d="M299.999999999999091,79.999999999995453c10.634765625,0,21.078857421870453.797607421878638,31.308105468760914,2.253173828128638l7.825683593739086-54.433349609368634c-12.788574218739086-1.823486328132276-25.843017578129547-2.819824218760914-39.1337890625-2.819824218760914-13.290771484368634,0-26.34521484375.996337890628638-39.133789062489086,2.819824218760914l7.825683593739086,54.433349609368634c10.23193359375-1.45556640625,20.67333984375-2.253173828128638,31.30810546875-2.253173828128638Z" fill="none" stroke="#000" stroke-linecap="round" stroke-linejoin="round" stroke-width="7"/>
          </a>
          <a xlink:href="https://www.notion.so/dmmnotes/accepting-317d81273fff4cd9817cdf4a88efd378?pvs=4">
            <path id="B2" d="M268.691894531249091,82.253173828124091l-7.825683593739086-54.433349609368634c-26.439208984390461,3.76782226560681-51.643066406260914,11.311523437489086-75.098632812510914,22.042968749989086l22.83251953125,49.999511718750909c18.7666015625-8.574951171882276,38.93505859375-14.601318359371362,60.091796875-17.609130859371362Z" fill="none" stroke="#000" stroke-linecap="round" stroke-linejoin="round" stroke-width="7"/>
          </a>
          <a xlink:href="https://www.notion.so/dmmnotes/distanced-from-past-2eabab7e9c77429f8e577f4e3e203653?pvs=4">
            <path id="B1" d="M208.600097656249091,99.862304687495453l-22.83251953125-49.999511718750909c-23.99267578125,10.97314453125-46.1162109375,25.287109375-65.803955078120453,42.361816406250909l35.972900390620453,41.515869140625c15.75341796875-13.658691406257276,33.4619140625-25.104492187496362,52.66357421875-33.878173828125Z" fill="none" stroke="#000" stroke-linecap="round" stroke-linejoin="round" stroke-width="7"/>
          </a>
          <a xlink:href="https://www.notion.so/dmmnotes/idealising-a52277f51ed14a42aae78081bb34b8be?pvs=4">
            <path id="A1" d="M155.936523437499091,133.740478515620453l-35.972900390620453-41.515869140625c-19.765625,17.141845703117724-37.049804687509095,37.041748046875-51.269775390629547,59.122314453125l46.226318359370453,29.70751953125c11.373291015640461-17.673583984367724,25.201171875009095-33.598876953128638,41.016357421879547-47.31396484375Z" fill="none" stroke="#000" stroke-linecap="round" stroke-linejoin="round" stroke-width="7"/>
          </a>
          <a xlink:href="https://www.notion.so/dmmnotes/distancing-9ac690cdca654729a17a5a255944e2d1?pvs=4">
            <path id="A2" d="M114.920166015619543,181.054443359370453l-46.226318359370453-29.70751953125c-14.04541015625,21.81201171875-25.08837890625,45.721435546871362-32.551513671879547,71.177734374992724l52.754882812509095,15.490234375c5.964599609370453-20.375244140621362,14.7919921875-39.509765624992724,26.022949218740905-56.960449218742724Z" fill="none" stroke="#000" stroke-linecap="round" stroke-linejoin="round" stroke-width="7"/>
          </a>
          <a xlink:href="https://www.notion.so/dmmnotes/compulsive-caregiving-9c380c0928294f41ae10764aa0dee886?pvs=4">
            <path id="A3" d="M88.897216796878638,238.014892578113177l-52.754882812509095-15.490234375c-7.205322265620453,24.580810546878638-11.142333984370453,50.5634765625-11.142333984370453,77.475341796889552h55c0-21.535400390632276,3.14208984375-42.321533203132276,8.897216796879547-61.985107421889552Z" fill="none" stroke="#000" stroke-linecap="round" stroke-linejoin="round" stroke-width="7"/>
          </a>
          <a xlink:href="https://www.notion.so/dmmnotes/compulsive-compliance-6d08b7ea9a424ce1a72b9184b7850414?pvs=4">
            <path id="A4" d="M79.999999999999091,300.000000000002728H24.999999999999091c0,26.911865234367724,3.93701171875,52.894531249989086,11.142333984370453,77.475341796867724l52.754882812509095-15.490234375c-5.755126953129547-19.66357421875-8.897216796879547-40.447021484367724-8.897216796879547-61.985107421867724Z" fill="none" stroke="#000" stroke-linecap="round" stroke-linejoin="round" stroke-width="7"/>
          </a>
          <a xlink:href="https://www.notion.so/dmmnotes/sexual-supplementation-8e85f49046ef412aa229745abf7d38d3?pvs=4">
            <path id="A5" d="M88.897216796878638,361.985107421870453l-52.754882812509095,15.490234375c7.463134765629547,25.456298828132276,18.506103515629547,49.36572265625,32.551513671879547,71.175048828132276l46.223632812510914-29.704833984371362c-11.230957031260914-17.450683593760914-20.055664062510914-36.58251953125-26.020263671881366-56.960449218760914Z" fill="none" stroke="#000" stroke-linecap="round" stroke-linejoin="round" stroke-width="7"/>
          </a>
          <a xlink:href="https://www.notion.so/dmmnotes/compulsive-isolated-self-reliance-b321873a73fa41aaaadd7192fde856a2?pvs=4">
            <path id="A6" d="M114.917480468760004,418.945556640631366l-46.223632812510914,29.704833984371362c14.219970703120453,22.083251953117724,31.504150390629547,41.983154296867724,51.269775390629547,59.125l35.972900390620453-41.515869140621362c-15.815185546870453-13.712402343760914-29.643066406239086-29.637695312510914-41.019042968739086-47.31396484375Z" fill="none" stroke="#000" stroke-linecap="round" stroke-linejoin="round" stroke-width="7"/>
          </a>
          <a xlink:href="https://www.notion.so/dmmnotes/delusional-idealization-743e2420b9994a48a7cab68190432e8a?pvs=4">
            <path id="A7" d="M155.936523437499091,466.259521484381366l-35.972900390620453,41.515869140621362c19.687744140620453,17.074707031239086,41.811279296870453,31.385986328128638,65.803955078120453,42.36181640625l22.83251953125-49.996826171882276c-19.20166015625-8.773681640617724-36.91015625-20.222167968739086-52.66357421875-33.880859374989086Z" fill="none" stroke="#000" stroke-linecap="round" stroke-linejoin="round" stroke-width="7"/>
          </a>
          <a xlink:href="https://www.notion.so/dmmnotes/externally-assembled-self-994ecb0895b844409b931d74a045c162?pvs=4">
            <path id="A8" d="M208.600097656249091,500.140380859370453l-22.83251953125,49.996826171882276c23.45556640625,10.7314453125,48.659423828120453,18.275146484367724,75.098632812510914,22.04296875l7.825683593739086-54.4306640625c-21.15673828125-3.0078125-41.3251953125-9.0341796875-60.091796875-17.609130859382276Z" fill="none" stroke="#000" stroke-linecap="round" stroke-linejoin="round" stroke-width="7"/>
          </a>
          <a xlink:href="https://www.notion.so/dmmnotes/psychopathy-0fe4a3222d9f4fd097ab4546c9776768?pvs=4">
            <path id="AC" d="M299.999999999999091,520.000000000002728c-10.634765625,0-21.076171875-.794921875-31.30810546875-2.25048828125l-7.825683593739086,54.4306640625c12.788574218739086,1.823486328128638,25.843017578120453,2.81982421875,39.133789062489086,2.81982421875,13.290771484370453,0,26.345214843760914-.996337890621362,39.1337890625-2.81982421875l-7.825683593739086-54.4306640625c-10.229248046890461,1.45556640625-20.673339843760914,2.25048828125-31.308105468760914,2.25048828125Z" fill="none" stroke="#000" stroke-linecap="round" stroke-linejoin="round" stroke-width="7"/>
          </a>
        </g>
        <g>
          <a xlink:href="https://www.notion.so/dmmnotes/paranoid-ae38b1e6af0c4dd08f61e0d8f6e9f05f?pvs=4">
            <path id="C8-2" data-name="C8" d="M331.308105468760004,517.749511718752728l7.825683593739086,54.4306640625c26.439208984370453-3.767822265632276,51.645751953140461-11.3115234375,75.101318359370453-22.04296875l-22.832519531239086-49.996826171882276c-18.7666015625,8.572265625-38.93505859375,14.601318359382276-60.094482421870453,17.609130859382276Z" fill="#cd7969" stroke="#000" stroke-linecap="round" stroke-linejoin="round" stroke-width="2"/>
          </a>
          <a xlink:href="https://www.notion.so/dmmnotes/menacing-a5bd7149286344deba45ec15e759e579?pvs=4">
            <path id="C7-2" data-name="C7" d="M391.402587890630457,500.140380859370453l22.832519531239086,49.996826171882276c23.989990234390461-10.975830078121362,46.116210937520009-25.287109375010914,65.803955078140461-42.36181640625l-35.972900390629547-41.515869140621362c-15.753417968760914,13.65869140625-33.459228515631366,25.104492187489086-52.66357421875,33.880859374989086Z" fill="#c78361" stroke="#000" stroke-linecap="round" stroke-linejoin="round" stroke-width="2"/>
          </a>
          <a xlink:href="https://www.notion.so/dmmnotes/seductively-obsessed-with-rescue-6fb5a68f6d334bc29ccccc16d8a4e56e?pvs=4">
            <path id="C6-2" data-name="C6" d="M444.066162109380457,466.259521484381366l35.972900390629547,41.515869140621362c19.762939453120453-17.141845703132276,37.047119140620453-37.041748046882276,51.26708984375-59.125l-46.223632812510914-29.704833984371362c-11.373291015618634,17.673583984371362-25.201171874989086,33.598876953121362-41.016357421868634,47.31396484375Z" fill="#bb8a59" stroke="#000" stroke-linecap="round" stroke-linejoin="round" stroke-width="2"/>
          </a>
          <a xlink:href="https://www.notion.so/dmmnotes/punitively-obsessed-with-revenge-33d2e77f37774316b42bccf4a60f9688?pvs=4">
            <path id="C5-2" data-name="C5" d="M485.082519531249091,418.945556640631366l46.223632812510914,29.704833984371362c14.048095703129547-21.809326171882276,25.08837890625-45.71875,32.551513671869543-71.175048828132276l-52.754882812499091-15.490234375c-5.9619140625,20.377929687510914-14.789306640620453,39.509765625-26.020263671881366,56.960449218760914Z" fill="#ac9156" stroke="#000" stroke-linecap="round" stroke-linejoin="round" stroke-width="2"/>
          </a>
          <a xlink:href="https://www.notion.so/dmmnotes/feigned-helpless-e79a94b0498c4e109a681b7f3dcdb088?pvs=4">
            <path id="C4-2" data-name="C4" d="M519.999999999999091,300.000000000002728c0,21.5380859375-3.142089843739086,42.321533203117724-8.897216796868634,61.985107421867724l52.754882812499091,15.490234375c7.2080078125-24.583496093739086,11.142333984369543-50.5634765625,11.142333984369543-77.475341796867724h-55Z" fill="#999555" stroke="#000" stroke-linecap="round" stroke-linejoin="round" stroke-width="2"/>
          </a>
          <a xlink:href="https://www.notion.so/dmmnotes/aggressive-2d8ccce383534b9dbfc7b4b10b8a5d5c?pvs=4">
            <path id="C3-2" data-name="C3" d="M519.999999999999091,300.000000000002728h55c0-26.911865234389552-3.934326171869543-52.894531250010914-11.142333984369543-77.475341796889552l-52.754882812499091,15.490234375c5.755126953129547,19.663574218757276,8.897216796868634,40.449707031257276,8.897216796868634,61.985107421889552Z" fill="#859658" stroke="#000" stroke-linecap="round" stroke-linejoin="round" stroke-width="2"/>
          </a>
          <a xlink:href="https://www.notion.so/dmmnotes/disarming-086276e599884c86b9359acf831a8b20?pvs=4">
            <path id="C2-2" data-name="C2" d="M511.102783203130457,238.014892578113177l52.754882812499091-15.490234375c-7.463134765619543-25.456298828121362-18.503417968739996-49.365722656242724-32.551513671869543-71.177734374992724l-46.223632812510914,29.70751953125c11.230957031260914,17.45068359375,20.055664062510914,36.585205078121362,26.020263671881366,56.960449218742724Z" fill="#6e975f" stroke="#000" stroke-linecap="round" stroke-linejoin="round" stroke-width="2"/>
          </a>
          <a xlink:href="https://www.notion.so/dmmnotes/threatening-348fe6a52f7a4fe69f768e98c6586932?pvs=4">
            <path id="C1-2" data-name="C1" d="M485.082519531249091,181.054443359370453l46.223632812510914-29.70751953125c-14.219970703129547-22.08056640625-31.504150390629547-41.980468750007276-51.26708984375-59.122314453125l-35.972900390629547,41.518554687496362c15.815185546879547,13.71240234375,29.64306640625,29.637695312510914,41.016357421868634,47.311279296878638Z" fill="#589569" stroke="#000" stroke-linecap="round" stroke-linejoin="round" stroke-width="2"/>
          </a>
          <a xlink:href="https://www.notion.so/dmmnotes/complaining-acceptance-8b40401a720c493ba73f7cde1567cf3d?pvs=4">
            <path id="B5-2" data-name="B5" d="M444.066162109380457,133.743164062491815l35.972900390629547-41.518554687496362c-19.687744140620453-17.074707031250909-41.81396484375-31.388671875000909-65.803955078140461-42.361816406250909l-22.832519531239086,49.999511718750909c19.204345703118634,8.773681640628638,36.910156249989086,20.22216796875,52.66357421875,33.880859374996362Z" fill="#3d9174" stroke="#000" stroke-linecap="round" stroke-linejoin="round" stroke-width="2"/>
          </a>
          <a xlink:href="https://www.notion.so/dmmnotes/sentimental-bc554363322342b1b7ca4ccc02125049?pvs=4">
            <path id="B4-2" data-name="B4" d="M391.402587890630457,99.862304687495453l22.832519531239086-49.999511718750909c-23.455566406229991-10.7314453125-48.662109375-18.275146484382276-75.101318359370453-22.042968749989086l-7.825683593739086,54.433349609368634c21.159423828120453,3.0078125,41.327880859370453,9.034179687489086,60.094482421870453,17.609130859371362Z" fill="#2c8d7e" stroke="#000" stroke-linecap="round" stroke-linejoin="round" stroke-width="2"/>
          </a>
          <a xlink:href="https://www.notion.so/dmmnotes/comfortably-balanced-e76dc615a8b947aa915377cd02fcf716?pvs=4">
            <path id="B3-2" data-name="B3" d="M299.999999999999091,79.999999999995453c10.634765625,0,21.078857421870453.797607421878638,31.308105468760914,2.253173828128638l7.825683593739086-54.433349609368634c-12.788574218739086-1.823486328132276-25.843017578129547-2.819824218760914-39.1337890625-2.819824218760914-13.290771484368634,0-26.34521484375.996337890628638-39.133789062489086,2.819824218760914l7.825683593739086,54.433349609368634c10.23193359375-1.45556640625,20.67333984375-2.253173828128638,31.30810546875-2.253173828128638Z" fill="#268887" stroke="#000" stroke-linecap="round" stroke-linejoin="round" stroke-width="2"/>
          </a>
          <a xlink:href="https://www.notion.so/dmmnotes/accepting-317d81273fff4cd9817cdf4a88efd378?pvs=4">
            <path id="B2-2" data-name="B2" d="M268.691894531249091,82.253173828124091l-7.825683593739086-54.433349609368634c-26.439208984390461,3.76782226560681-51.643066406260914,11.311523437489086-75.098632812510914,22.042968749989086l22.83251953125,49.999511718750909c18.7666015625-8.574951171882276,38.93505859375-14.601318359371362,60.091796875-17.609130859371362Z" fill="#2e8390" stroke="#000" stroke-linecap="round" stroke-linejoin="round" stroke-width="2"/>
          </a>
          <a xlink:href="https://www.notion.so/dmmnotes/distanced-from-past-2eabab7e9c77429f8e577f4e3e203653?pvs=4">
            <path id="B1-2" data-name="B1" d="M208.600097656249091,99.862304687495453l-22.83251953125-49.999511718750909c-23.99267578125,10.97314453125-46.1162109375,25.287109375-65.803955078120453,42.361816406250909l35.972900390620453,41.515869140625c15.75341796875-13.658691406257276,33.4619140625-25.104492187496362,52.66357421875-33.878173828125Z" fill="#477e96" stroke="#000" stroke-linecap="round" stroke-linejoin="round" stroke-width="2"/>
          </a>
          <a xlink:href="https://www.notion.so/dmmnotes/idealising-a52277f51ed14a42aae78081bb34b8be?pvs=4">
            <path id="A1-2" data-name="A1" d="M155.936523437499091,133.740478515620453l-35.972900390620453-41.515869140625c-19.765625,17.141845703117724-37.049804687509095,37.041748046875-51.269775390629547,59.122314453125l46.226318359370453,29.70751953125c11.373291015640461-17.673583984367724,25.201171875009095-33.598876953128638,41.016357421879547-47.31396484375Z" fill="#5e779a" stroke="#000" stroke-linecap="round" stroke-linejoin="round" stroke-width="2"/>
          </a>
          <a xlink:href="https://www.notion.so/dmmnotes/distancing-9ac690cdca654729a17a5a255944e2d1?pvs=4">
            <path id="A2-2" data-name="A2" d="M114.920166015619543,181.054443359370453l-46.226318359370453-29.70751953125c-14.04541015625,21.81201171875-25.08837890625,45.721435546871362-32.551513671879547,71.177734374992724l52.754882812509095,15.490234375c5.964599609370453-20.375244140621362,14.7919921875-39.509765624992724,26.022949218740905-56.960449218742724Z" fill="#72729b" stroke="#000" stroke-linecap="round" stroke-linejoin="round" stroke-width="2"/>
          </a>
          <a xlink:href="https://www.notion.so/dmmnotes/compulsive-caregiving-9c380c0928294f41ae10764aa0dee886?pvs=4">
            <path id="A3-2" data-name="A3" d="M88.897216796878638,238.014892578113177l-52.754882812509095-15.490234375c-7.205322265620453,24.580810546878638-11.142333984370453,50.5634765625-11.142333984370453,77.475341796889552h55c0-21.535400390632276,3.14208984375-42.321533203132276,8.897216796879547-61.985107421889552Z" fill="#866c99" stroke="#000" stroke-linecap="round" stroke-linejoin="round" stroke-width="2"/>
          </a>
          <a xlink:href="https://www.notion.so/dmmnotes/compulsive-compliance-6d08b7ea9a424ce1a72b9184b7850414?pvs=4">
            <path id="A4-2" data-name="A4" d="M79.999999999999091,300.000000000002728H24.999999999999091c0,26.911865234367724,3.93701171875,52.894531249989086,11.142333984370453,77.475341796867724l52.754882812509095-15.490234375c-5.755126953129547-19.66357421875-8.897216796879547-40.447021484367724-8.897216796879547-61.985107421867724Z" fill="#aa6490" stroke="#000" stroke-linecap="round" stroke-linejoin="round" stroke-width="2"/>
          </a>
          <a xlink:href="https://www.notion.so/dmmnotes/sexual-supplementation-8e85f49046ef412aa229745abf7d38d3?pvs=4">
            <path id="A5-2" data-name="A5" d="M88.897216796878638,361.985107421870453l-52.754882812509095,15.490234375c7.463134765629547,25.456298828132276,18.506103515629547,49.36572265625,32.551513671879547,71.175048828132276l46.223632812510914-29.704833984371362c-11.230957031260914-17.450683593760914-20.055664062510914-36.58251953125-26.020263671881366-56.960449218760914Z" fill="#aa6490" stroke="#000" stroke-linecap="round" stroke-linejoin="round" stroke-width="2"/>
          </a>
          <a xlink:href="https://www.notion.so/dmmnotes/compulsive-isolated-self-reliance-b321873a73fa41aaaadd7192fde856a2?pvs=4">
            <path id="A6-2" data-name="A6" d="M114.917480468760004,418.945556640631366l-46.223632812510914,29.704833984371362c14.219970703120453,22.083251953117724,31.504150390629547,41.983154296867724,51.269775390629547,59.125l35.972900390620453-41.515869140621362c-15.815185546870453-13.712402343760914-29.643066406239086-29.637695312510914-41.019042968739086-47.31396484375Z" fill="#b9638b" stroke="#000" stroke-linecap="round" stroke-linejoin="round" stroke-width="2"/>
          </a>
          <a xlink:href="https://www.notion.so/dmmnotes/delusional-idealization-743e2420b9994a48a7cab68190432e8a?pvs=4">
            <path id="A7-2" data-name="A7" d="M155.936523437499091,466.259521484381366l-35.972900390620453,41.515869140621362c19.687744140620453,17.074707031239086,41.811279296870453,31.385986328128638,65.803955078120453,42.36181640625l22.83251953125-49.996826171882276c-19.20166015625-8.773681640617724-36.91015625-20.222167968739086-52.66357421875-33.880859374989086Z" fill="#c46681" stroke="#000" stroke-linecap="round" stroke-linejoin="round" stroke-width="2"/>
          </a>
          <a xlink:href="https://www.notion.so/dmmnotes/externally-assembled-self-994ecb0895b844409b931d74a045c162?pvs=4">
            <path id="A8-2" data-name="A8" d="M208.600097656249091,500.140380859370453l-22.83251953125,49.996826171882276c23.45556640625,10.7314453125,48.659423828120453,18.275146484367724,75.098632812510914,22.04296875l7.825683593739086-54.4306640625c-21.15673828125-3.0078125-41.3251953125-9.0341796875-60.091796875-17.609130859382276Z" fill="#cc6a7a" stroke="#000" stroke-linecap="round" stroke-linejoin="round" stroke-width="2"/>
          </a>
          <a xlink:href="https://www.notion.so/dmmnotes/psychopathy-0fe4a3222d9f4fd097ab4546c9776768?pvs=4">
            <path id="AC-2" data-name="AC" d="M299.999999999999091,520.000000000002728c-10.634765625,0-21.076171875-.794921875-31.30810546875-2.25048828125l-7.825683593739086,54.4306640625c12.788574218739086,1.823486328128638,25.843017578120453,2.81982421875,39.133789062489086,2.81982421875,13.290771484370453,0,26.345214843760914-.996337890621362,39.1337890625-2.81982421875l-7.825683593739086-54.4306640625c-10.229248046890461,1.45556640625-20.673339843760914,2.25048828125-31.308105468760914,2.25048828125Z" fill="#cf7171" stroke="#000" stroke-linecap="round" stroke-linejoin="round" stroke-width="2"/>
          </a>
        </g>
      </g>
    </g>
  </g>
</svg>