<?xml version="1.0" encoding="UTF-8"?>
<svg id="Layer_1" data-name="Layer 1" xmlns="http://www.w3.org/2000/svg" xmlns:xlink="http://www.w3.org/1999/xlink" viewBox="0 0 599.999999999998181 600">
  <defs>
    <radialGradient id="radial-gradient" cx="-415.740499302635726" cy="552.038879182298842" fx="-415.740499302635726" fy="552.038879182298842" r="1164.630776817154356" gradientUnits="userSpaceOnUse">
      <stop offset="0" stop-color="#606161" stop-opacity=".600000023841858"/>
      <stop offset=".24811931720048" stop-color="rgba(96, 97, 97, .512047656878147)" stop-opacity=".512047656878147"/>
      <stop offset=".643447143033949" stop-color="rgba(96, 97, 97, .273139587438092)" stop-opacity=".273139587438092"/>
      <stop offset="1" stop-color="#606161" stop-opacity="0"/>
    </radialGradient>
    <symbol id="shadow" viewBox="0 0 600 600.00006103515625">
      <g>
        <rect x=".500244140625" y=".50030517578125" width="599" height="599" fill="url(#radial-gradient)" stroke-width="0"/>
        <path d="M599,1v598.00006103515625H1V1h598M600,0H0v600.00006103515625h600V0h0Z" fill="#000" stroke-width="0"/>
      </g>
    </symbol>
  </defs>
  <use width="600" height="600.00006103515625" transform="translate(0 -.000030517578125)" xlink:href="#shadow"/>
  <g id="pie_with_links_-5" data-name="pie (with links)">
    <g id="pie_with_links_-6" data-name="pie (with links)">
      <a xlink:href="https://www.notion.so/dmmnotes/paranoid-ae38b1e6af0c4dd08f61e0d8f6e9f05f?pvs=4">
        <path id="C8" d="M320.292258210230102,442.796888466858945l5.072186598710687,35.279024702409515c17.136471195732156-2.442099450248861,33.47399467397463-7.331520231229661,48.676629455429975-14.287065065989736l-14.798809355620506-32.405249796949647c-12.163500326642861,5.556080858990754-25.235607861428434,9.463788104751075-38.950006698520156,11.413290160529868Z" fill="#cd7969" stroke="#000" stroke-linecap="round" stroke-linejoin="round" stroke-width="2"/>
      </a>
      <a xlink:href="https://www.notion.so/dmmnotes/menacing-a5bd7149286344deba45ec15e759e579?pvs=4">
        <path id="C7" d="M373.401970870383593,462.388507570040019l18.335927618752976,40.150548633089784c19.265448296695467-8.814271486449798,37.034174202482973-20.307115320900266,52.844652369161849-34.019162815609889l-28.888467472752382-33.339814756340274c-12.650970525960474,10.968775331570214-26.869833239495165,20.160462406509396-42.292112515162444,27.208428938860379Z" fill="#c78361" stroke="#000" stroke-linecap="round" stroke-linejoin="round" stroke-width="2"/>
      </a>
      <a xlink:href="https://www.notion.so/dmmnotes/seductively-obsessed-with-rescue-6fb5a68f6d334bc29ccccc16d8a4e56e?pvs=4">
        <path id="C6" d="M393.375957153379204,409.423850149360078l23.315696461848347,26.90835025036904c12.809272882619553-11.110421091159878,24.011947196052461-24.008465942390103,33.228566290156778-38.321640410898908l-29.959669093048433-19.253073427731579c-7.371554648441816,11.455065204580023-16.334042224551922,21.776982339240931-26.584593658956692,30.666363588261447Z" fill="#bb8a59" stroke="#000" stroke-linecap="round" stroke-linejoin="round" stroke-width="2"/>
      </a>
      <a xlink:href="https://www.notion.so/dmmnotes/punitively-obsessed-with-revenge-33d2e77f37774316b42bccf4a60f9688?pvs=4">
        <path id="C5" d="M448.63275928783969,397.184033843208454l37.120440622698879,23.854821852630266c11.281491104891757-17.514239966119931,20.147522443481648-36.714988447629366,26.140881988588262-57.157973380388285l-42.365438972352422-12.439617796400853c-4.78778632247213,16.364739916640247-11.876729404432808,31.728789358650829-20.89588363893472,45.742769324158871Z" fill="#ac9156" stroke="#000" stroke-linecap="round" stroke-linejoin="round" stroke-width="2"/>
      </a>
      <a xlink:href="https://www.notion.so/dmmnotes/feigned-helpless-e79a94b0498c4e109a681b7f3dcdb088?pvs=4">
        <path id="C4" d="M442.592180927820664,301.663383388889997c0,13.959827220909574-2.036533397556923,27.430538301028719-5.766696706088624,40.175407990729582l34.192873557037274,10.039935587310538c4.671842426546391-15.93369805238035,7.221860740585726-32.77252205925106,7.221860740585726-50.21534357804012h-35.648037591534376Z" fill="#999555" stroke="#000" stroke-linecap="round" stroke-linejoin="round" stroke-width="2"/>
      </a>
      <a xlink:href="https://www.notion.so/dmmnotes/aggressive-2d8ccce383534b9dbfc7b4b10b8a5d5c?pvs=4">
        <path id="C3" d="M476.673659181879884,301.663383388889997h44.168407155050772c0-21.611894926800232-3.159507640725678-42.477585318651109-8.947984437803825-62.217498926571352l-42.365438972352422,12.439617796400853c4.621723463542367,15.791068222140893,7.145016255105475,32.483620535620503,7.145016255105475,49.777881130170499Z" fill="#859658" stroke="#000" stroke-linecap="round" stroke-linejoin="round" stroke-width="2"/>
      </a>
      <a xlink:href="https://www.notion.so/dmmnotes/disarming-086276e599884c86b9359acf831a8b20?pvs=4">
        <path id="C2" d="M436.82548422173204,261.487975398149501l34.192873557037274-10.039935587299624c-4.837201975918106-16.499401773930003-11.992918896754418-31.996202490599899-21.098137873384985-46.133573648730817l-29.959669093048433,19.254814054569579c7.279301426168786,11.310593177240662,12.99900120770144,23.71255938034119,16.864933409396144,36.918695181460862Z" fill="#6e975f" stroke="#000" stroke-linecap="round" stroke-linejoin="round" stroke-width="2"/>
      </a>
      <a xlink:href="https://www.notion.so/dmmnotes/threatening-348fe6a52f7a4fe69f768e98c6586932?pvs=4">
        <path id="C1" d="M448.63275928783969,206.142732934578817l37.120440622698879-23.856978513140348c-11.419517377248667-17.732062677188878-25.299784391404501-33.712917023829505-41.170649052240151-47.478881031178389l-28.888467472752382,33.341971416850356c12.700573717585939,11.011908541679077,23.80521866100753,23.80090533999828,32.938675902293653,37.993888127468381Z" fill="#589569" stroke="#000" stroke-linecap="round" stroke-linejoin="round" stroke-width="2"/>
      </a>
      <a xlink:href="https://www.notion.so/dmmnotes/complaining-acceptance-8b40401a720c493ba73f7cde1567cf3d?pvs=4">
        <path id="B5" d="M415.694083385546037,168.148844807110436l28.888467472752382-33.341971416850356c-15.810478166678877-13.712047494720537-33.579204072466382-25.207047989661078-52.844652369161849-34.019162815609889l-18.335927618752976,40.152705293579857c15.422279275667279,7.045809871859092,29.641141989201969,16.239653607310174,42.292112515162444,27.208428938880388Z" fill="#3d9174" stroke="#000" stroke-linecap="round" stroke-linejoin="round" stroke-width="2"/>
      </a>
      <a xlink:href="https://www.notion.so/dmmnotes/sentimental-bc554363322342b1b7ca4ccc02125049?pvs=4">
        <path id="B4" d="M359.242264908750258,171.944909098288917l14.798809355620506-32.406990423789466c-15.202634781455345-6.955544834760076-31.540158259697819-11.84496561574997-48.676629455429975-14.287065065980642l-5.072186598710687,35.280765329240239c13.714398837091721,1.949502055780613,26.786506371877294,5.855468674690201,38.950006698520156,11.413290160529868Z" fill="#2c8d7e" stroke="#000" stroke-linecap="round" stroke-linejoin="round" stroke-width="2"/>
      </a>
      <a xlink:href="https://www.notion.so/dmmnotes/accepting-317d81273fff4cd9817cdf4a88efd378?pvs=4">
        <path id="B2" d="M274.857682387191744,126.799192932900041l-6.284508713360992-43.713351788361251c-21.232322677818047,3.025794689370741-41.472581523036752,9.083854049660658-60.308854379101831,17.701869430111401l18.335927618762071,40.152705293579857c15.070743613256127-6.886216994440474,31.267264010444705-11.725763169040874,48.257435473700752-14.141222935330006Z" fill="#2e8390" stroke="#000" stroke-linecap="round" stroke-linejoin="round" stroke-width="2"/>
      </a>
      <a xlink:href="https://www.notion.so/dmmnotes/distanced-from-past-2eabab7e9c77429f8e577f4e3e203653?pvs=4">
        <path id="B1" d="M240.759536841454064,171.944909098288917l-14.798809355627782-32.406990423789466c-15.550760148572408,7.112201249949067-29.890044019620291,16.389742283290616-42.650579350844055,27.45664770356052l23.31569646184289,26.908350250359945c10.21051701718352-8.852828085480724,21.688210370630259-16.271379658481237,34.133692244628946-21.958007530130999Z" fill="#477e96" stroke="#000" stroke-linecap="round" stroke-linejoin="round" stroke-width="2"/>
      </a>
      <a xlink:href="https://www.notion.so/dmmnotes/idealising-a52277f51ed14a42aae78081bb34b8be?pvs=4">
        <path id="A1" d="M206.625844596825118,193.902916628419916l-23.31569646184289-26.908350250359945c-12.811013509457553,11.11042109113987-24.013687822896827,24.008465942379189-33.230306916996597,38.319899784059089l29.961409719875519,19.254814054569579c7.371554648455458-11.455065204580023,16.334042224565565-21.776982339248207,26.584593658963968-30.666363588268723Z" fill="#5e779a" stroke="#000" stroke-linecap="round" stroke-linejoin="round" stroke-width="2"/>
      </a>
      <a xlink:href="https://www.notion.so/dmmnotes/distancing-9ac690cdca654729a17a5a255944e2d1?pvs=4">
        <path id="A2" d="M151.369458496026709,206.142732934578817l-37.1225972831935-23.856978513140348c-11.279334444379856,17.516396626620917-20.147522443480739,36.717145108130353-26.140881988593719,57.160130040880176l42.365438972359698,12.439617796400853c4.789942982972207-16.362583256119251,11.87888606494198-31.728789358639915,20.898040299427521-45.742769324140681Z" fill="#72729b" stroke="#000" stroke-linecap="round" stroke-linejoin="round" stroke-width="2"/>
      </a>
      <a xlink:href="https://www.notion.so/dmmnotes/compulsive-caregiving-9c380c0928294f41ae10764aa0dee886?pvs=4">
        <path id="A3" d="M163.17457690163792,261.487975398149501l-34.192873557041821-10.039935587299624c-4.6701017997093,15.931957425549626-7.221860740586635,32.772522059249241-7.221860740586635,50.21534357804012h35.648037591534376c0-13.958086594071574,2.036533397563289-27.430538301030538,5.766696706094081-40.175407990740496Z" fill="#866c99" stroke="#000" stroke-linecap="round" stroke-linejoin="round" stroke-width="2"/>
      </a>
      <a xlink:href="https://www.notion.so/dmmnotes/compulsive-compliance-6d08b7ea9a424ce1a72b9184b7850414?pvs=4">
        <path id="A4" d="M123.326401941483709,301.663383388889997h-44.168407155049863c0,21.611894926789319,3.16166430123576,42.477585318640195,8.947984437805644,62.217498926560438l42.365438972359698-12.439617796400853c-4.621723463542367-15.791068222129979-7.145016255115479-32.481463875099507-7.145016255115479-49.777881130159585Z" fill="#aa6490" stroke="#000" stroke-linecap="round" stroke-linejoin="round" stroke-width="2"/>
      </a>
      <a xlink:href="https://www.notion.so/dmmnotes/sexual-supplementation-8e85f49046ef412aa229745abf7d38d3?pvs=4">
        <path id="A5" d="M163.17457690163792,341.838791379619579l-34.192873557041821,10.039935587310538c4.837201975923563,16.499401773930003,11.994659523599694,31.996202490599899,21.098137873389533,46.131833021900093l29.959669093049342-19.253073427731579c-7.279301426167876-11.310593177238843-12.99900120770144-23.710818753508647-16.864933409397054-36.918695181479052Z" fill="#aa6490" stroke="#000" stroke-linecap="round" stroke-linejoin="round" stroke-width="2"/>
      </a>
      <a xlink:href="https://www.notion.so/dmmnotes/compulsive-isolated-self-reliance-b321873a73fa41aaaadd7192fde856a2?pvs=4">
        <path id="A6" d="M151.367301835532999,397.184033843208454l-37.120440622699789,23.854821852630266c11.419517377241391,17.734219337689865,25.29978439140541,33.715073684321396,41.172805712752051,47.481037691681195l28.888467472742377-33.339814756340274c-12.700573717576845-11.011908541689991-23.805218660998435-23.800905340000099-32.94083256279464-37.996044787971186Z" fill="#b9638b" stroke="#000" stroke-linecap="round" stroke-linejoin="round" stroke-width="2"/>
      </a>
      <a xlink:href="https://www.notion.so/dmmnotes/delusional-idealization-743e2420b9994a48a7cab68190432e8a?pvs=4">
        <path id="A7" d="M206.625844596825118,409.423850149360078l-23.31569646184289,26.90835025036904c12.760535331223764,11.066905420249896,27.099819202271647,20.342705826769816,42.650579350844055,27.456647703549606l14.798809355627782-32.405249796949647c-12.445481873998688-5.686627871658857-23.923175227445427-13.106920071490094-34.133692244628946-21.959748156968999Z" fill="#c46681" stroke="#000" stroke-linecap="round" stroke-linejoin="round" stroke-width="2"/>
      </a>
      <a xlink:href="https://www.notion.so/dmmnotes/externally-assembled-self-994ecb0895b844409b931d74a045c162?pvs=4">
        <path id="A8" d="M226.600246913490992,462.388507570040019l-18.335927618762071,40.150548633089784c18.836272856065079,8.618015380448924,39.076531701283784,14.676074740729746,60.308854379101831,17.701869430109582l6.284508713360992-43.711195127849351c-16.990171463256047-2.415459766300046-33.186691860444625-7.255005940900446-48.257435473700752-14.141222935350015Z" fill="#cc6a7a" stroke="#000" stroke-linecap="round" stroke-linejoin="round" stroke-width="2"/>
      </a>
      <a xlink:href="https://www.notion.so/dmmnotes/psychopathy-0fe4a3222d9f4fd097ab4546c9776768?pvs=4">
        <path id="AC" d="M300.000030561682252,456.906409595620062c-7.504423630110978,0-14.87240319421926-.560936715790376-22.092568353490606-1.588057323750036l-5.522194560129719,38.409004579569228c9.024258920847387,1.286743344660863,18.236128432457917,1.98980929586105,27.614762913620325,1.98980929586105s18.590503992779304-.703065951200188,27.614762913627601-1.98980929586105l-5.52219456012881-38.409004579569228c-7.218270102809583,1.02712060795966-14.588144723388723,1.588057323750036-22.092568353498791,1.588057323750036Z" fill="#cf7171" stroke="#000" stroke-linecap="round" stroke-linejoin="round" stroke-width="2"/>
      </a>
      <g>
        <path d="M217.439207995344987,303.642870963889436c.01416015625.4189453125-.2939453125.7548828125-.78369140625.7548828125-.43359375,0-.7412109375-.3359375-.7412109375-.7548828125,0-.4345703125.32177734375-.76953125.76953125-.76953125.46142578125,0,.75537109375.3349609375.75537109375.76953125ZM216.068114245344987,312.317675651389436v-6.7724609375h1.2314453125v6.7724609375h-1.2314453125Z" fill="#231f20" stroke-width="0"/>
        <path d="M219.341551745344987,307.378222526389436c0-.69921875-.01416015625-1.2734375-.05615234375-1.8330078125h1.09130859375l.0703125,1.119140625h.02783203125c.3359375-.6435546875,1.11962890625-1.2724609375,2.23876953125-1.2724609375.9375,0,2.392578125.5595703125,2.392578125,2.8818359375v4.0439453125h-1.23095703125v-3.904296875c0-1.0908203125-.40625-2-1.5673828125-2-.8115234375,0-1.44140625.5732421875-1.65087890625,1.2587890625-.05615234375.154296875-.083984375.3642578125-.083984375.57421875v4.0712890625h-1.2314453125v-4.939453125Z" fill="#231f20" stroke-width="0"/>
        <path d="M227.105223620344987,302.383105338889436h1.2314453125v4.2255859375h.02783203125c.19580078125-.349609375.50390625-.6572265625.88134765625-.8671875.36376953125-.2099609375.7978515625-.349609375,1.25927734375-.349609375.90966796875,0,2.36474609375.5595703125,2.36474609375,2.896484375v4.029296875h-1.23095703125v-3.8896484375c0-1.091796875-.40625-2.0146484375-1.5673828125-2.0146484375-.79736328125,0-1.42724609375.5595703125-1.65087890625,1.23046875-.0703125.16796875-.083984375.3505859375-.083984375.587890625v4.0859375h-1.2314453125v-9.9345703125Z" fill="#231f20" stroke-width="0"/>
        <path d="M236.239989245344987,303.642870963889436c.01416015625.4189453125-.2939453125.7548828125-.78369140625.7548828125-.43359375,0-.7412109375-.3359375-.7412109375-.7548828125,0-.4345703125.32177734375-.76953125.76953125-.76953125.46142578125,0,.75537109375.3349609375.75537109375.76953125ZM234.868895495344987,312.317675651389436v-6.7724609375h1.2314453125v6.7724609375h-1.2314453125Z" fill="#231f20" stroke-width="0"/>
        <path d="M238.086180651594987,312.317675651389436c.0283203125-.4619140625.05615234375-1.1474609375.05615234375-1.7490234375v-8.185546875h1.21728515625v4.25390625h.02783203125c.43408203125-.755859375,1.21728515625-1.2451171875,2.30908203125-1.2451171875,1.6787109375,0,2.8681640625,1.3984375,2.85400390625,3.4560546875,0,2.419921875-1.52490234375,3.6240234375-3.0361328125,3.6240234375-.9794921875,0-1.76318359375-.3779296875-2.2666015625-1.2734375h-.0419921875l-.05615234375,1.119140625h-1.0634765625ZM239.359618151594987,309.602831901389436c0,.154296875.02783203125.30859375.05615234375.4482421875.23779296875.853515625.951171875,1.44140625,1.8466796875,1.44140625,1.28759765625,0,2.05712890625-1.0498046875,2.05712890625-2.6025390625,0-1.357421875-.69970703125-2.5185546875-2.01513671875-2.5185546875-.83935546875,0-1.623046875.5732421875-1.875,1.5107421875-.02783203125.1396484375-.06982421875.3076171875-.06982421875.50390625v1.216796875Z" fill="#231f20" stroke-width="0"/>
        <path d="M247.472899401594987,303.642870963889436c.01416015625.4189453125-.2939453125.7548828125-.78369140625.7548828125-.43359375,0-.7412109375-.3359375-.7412109375-.7548828125,0-.4345703125.32177734375-.76953125.76953125-.76953125.46142578125,0,.75537109375.3349609375.75537109375.76953125ZM246.101805651594987,312.317675651389436v-6.7724609375h1.2314453125v6.7724609375h-1.2314453125Z" fill="#231f20" stroke-width="0"/>
        <path d="M250.858153307844987,303.600878776389436v1.9443359375h1.76318359375v.9375h-1.76318359375v3.65234375c0,.8388671875.23828125,1.3154296875.923828125,1.3154296875.32177734375,0,.5595703125-.0419921875.71337890625-.083984375l.05615234375.9228515625c-.23779296875.0986328125-.61572265625.16796875-1.09130859375.16796875-.57373046875,0-1.03564453125-.181640625-1.32958984375-.517578125-.349609375-.36328125-.4755859375-.9658203125-.4755859375-1.7626953125v-3.6943359375h-1.04931640625v-.9375h1.04931640625v-1.623046875l1.203125-.3212890625Z" fill="#231f20" stroke-width="0"/>
        <path d="M254.607176745344987,309.155566276389436c.02783203125,1.6650390625,1.09130859375,2.3505859375,2.32275390625,2.3505859375.88134765625,0,1.4130859375-.154296875,1.875-.349609375l.2099609375.880859375c-.43408203125.1962890625-1.17529296875.419921875-2.2529296875.419921875-2.0849609375,0-3.330078125-1.37109375-3.330078125-3.4140625s1.203125-3.6513671875,3.17626953125-3.6513671875c2.2109375,0,2.79833984375,1.9443359375,2.79833984375,3.189453125,0,.251953125-.02783203125.4482421875-.0419921875.57421875h-4.75732421875ZM258.217040026594987,308.273730338889436c.01416015625-.783203125-.32177734375-2.0009765625-1.70703125-2.0009765625-1.2451171875,0-1.791015625,1.1474609375-1.888671875,2.0009765625h3.595703125Z" fill="#231f20" stroke-width="0"/>
        <path d="M266.778563464094987,302.383105338889436v8.185546875c0,.6015625.01416015625,1.287109375.05615234375,1.7490234375h-1.10546875l-.05615234375-1.17578125h-.02783203125c-.3779296875.755859375-1.203125,1.330078125-2.30859375,1.330078125-1.63720703125,0-2.896484375-1.3857421875-2.896484375-3.4423828125-.01416015625-2.2529296875,1.38525390625-3.6376953125,3.0361328125-3.6376953125,1.03564453125,0,1.7353515625.4892578125,2.04296875,1.03515625h.02783203125v-4.0439453125h1.2314453125ZM265.547118151594987,308.302050651389436c0-.154296875-.013671875-.3642578125-.0556640625-.517578125-.18212890625-.7841796875-.853515625-1.427734375-1.77734375-1.427734375-1.27294921875,0-2.02880859375,1.119140625-2.02880859375,2.6171875,0,1.37109375.671875,2.50390625,2.0009765625,2.50390625.82568359375,0,1.5810546875-.544921875,1.80517578125-1.46875.0419921875-.16796875.0556640625-.3359375.0556640625-.5322265625v-1.1748046875Z" fill="#231f20" stroke-width="0"/>
        <path d="M273.156004870344987,303.642870963889436c.01416015625.4189453125-.2939453125.7548828125-.78369140625.7548828125-.43359375,0-.7412109375-.3359375-.7412109375-.7548828125,0-.4345703125.32177734375-.76953125.76953125-.76953125.46142578125,0,.75537109375.3349609375.75537109375.76953125ZM271.784911120344987,312.317675651389436v-6.7724609375h1.2314453125v6.7724609375h-1.2314453125Z" fill="#231f20" stroke-width="0"/>
        <path d="M275.058348620344987,307.378222526389436c0-.69921875-.01416015625-1.2734375-.05615234375-1.8330078125h1.09130859375l.0703125,1.119140625h.02783203125c.3359375-.6435546875,1.11962890625-1.2724609375,2.23876953125-1.2724609375.9375,0,2.392578125.5595703125,2.392578125,2.8818359375v4.0439453125h-1.23095703125v-3.904296875c0-1.0908203125-.40625-2-1.5673828125-2-.8115234375,0-1.44140625.5732421875-1.65087890625,1.2587890625-.05615234375.154296875-.083984375.3642578125-.083984375.57421875v4.0712890625h-1.2314453125v-4.939453125Z" fill="#231f20" stroke-width="0"/>
        <path d="M283.115965807844987,305.545214713889436l1.32958984375,3.8056640625c.2236328125.6162109375.40576171875,1.17578125.54541015625,1.7353515625h.0419921875c.15380859375-.5595703125.35009765625-1.119140625.57373046875-1.7353515625l1.3154296875-3.8056640625h1.287109375l-2.65869140625,6.7724609375h-1.17529296875l-2.57421875-6.7724609375h1.31494140625Z" fill="#231f20" stroke-width="0"/>
        <path d="M295.035887682844987,310.470995963889436c0,.69921875.013671875,1.3154296875.0556640625,1.8466796875h-1.09130859375l-.06982421875-1.10546875h-.02783203125c-.322265625.5458984375-1.03564453125,1.259765625-2.23876953125,1.259765625-1.0634765625,0-2.3369140625-.587890625-2.3369140625-2.966796875v-3.9599609375h1.2314453125v3.75c0,1.287109375.3916015625,2.1552734375,1.51123046875,2.1552734375.8251953125,0,1.39892578125-.57421875,1.623046875-1.1201171875.06982421875-.181640625.11181640625-.4052734375.11181640625-.62890625v-4.15625h1.2314453125v4.92578125Z" fill="#231f20" stroke-width="0"/>
        <path d="M297.076903307844987,302.383105338889436h1.2314453125v9.9345703125h-1.2314453125v-9.9345703125Z" fill="#231f20" stroke-width="0"/>
        <path d="M300.378172839094987,307.378222526389436c0-.69921875-.01416015625-1.2734375-.05615234375-1.8330078125h1.09130859375l.0703125,1.119140625h.02783203125c.3359375-.6435546875,1.11962890625-1.2724609375,2.23876953125-1.2724609375.9375,0,2.392578125.5595703125,2.392578125,2.8818359375v4.0439453125h-1.23095703125v-3.904296875c0-1.0908203125-.40576171875-2-1.5673828125-2-.8115234375,0-1.44140625.5732421875-1.65087890625,1.2587890625-.05615234375.154296875-.083984375.3642578125-.083984375.57421875v4.0712890625h-1.2314453125v-4.939453125Z" fill="#231f20" stroke-width="0"/>
        <path d="M308.827391589094987,309.155566276389436c.02783203125,1.6650390625,1.09130859375,2.3505859375,2.32275390625,2.3505859375.88134765625,0,1.4130859375-.154296875,1.875-.349609375l.2099609375.880859375c-.43408203125.1962890625-1.17529296875.419921875-2.2529296875.419921875-2.0849609375,0-3.330078125-1.37109375-3.330078125-3.4140625s1.203125-3.6513671875,3.17626953125-3.6513671875c2.2109375,0,2.79833984375,1.9443359375,2.79833984375,3.189453125,0,.251953125-.02783203125.4482421875-.0419921875.57421875h-4.75732421875ZM312.437254870344987,308.273730338889436c.01416015625-.783203125-.32177734375-2.0009765625-1.70703125-2.0009765625-1.2451171875,0-1.791015625,1.1474609375-1.888671875,2.0009765625h3.595703125Z" fill="#231f20" stroke-width="0"/>
        <path d="M315.150145495344987,307.658495963889436c0-.7978515625-.01416015625-1.4833984375-.05615234375-2.11328125h1.07763671875l.0419921875,1.3291015625h.0556640625c.30810546875-.9091796875,1.0498046875-1.482421875,1.875-1.482421875.14013671875,0,.23779296875.013671875.35009765625.0419921875v1.1611328125c-.1259765625-.0283203125-.251953125-.0419921875-.419921875-.0419921875-.86767578125,0-1.4833984375.6572265625-1.65087890625,1.5810546875-.0283203125.16796875-.05615234375.36328125-.05615234375.5732421875v3.6103515625h-1.21728515625v-4.6591796875Z" fill="#231f20" stroke-width="0"/>
        <path d="M323.404540026594987,312.317675651389436l-.09814453125-.853515625h-.0419921875c-.37744140625.53125-1.10546875,1.0078125-2.07080078125,1.0078125-1.37109375,0-2.07080078125-.9658203125-2.07080078125-1.9453125,0-1.63671875,1.455078125-2.5322265625,4.07177734375-2.5185546875v-.1396484375c0-.5595703125-.15380859375-1.5673828125-1.5390625-1.5673828125-.6298828125,0-1.28759765625.1962890625-1.76318359375.50390625l-.27978515625-.8115234375c.5595703125-.3642578125,1.37109375-.6015625,2.224609375-.6015625,2.07080078125,0,2.57470703125,1.4130859375,2.57470703125,2.7705078125v2.5322265625c0,.587890625.02783203125,1.1611328125.11181640625,1.623046875h-1.119140625ZM323.222411120344987,308.861620963889436c-1.34326171875-.0283203125-2.8681640625.2099609375-2.8681640625,1.525390625,0,.796875.53173828125,1.1748046875,1.1611328125,1.1748046875.8818359375,0,1.44140625-.5595703125,1.63720703125-1.1328125.0419921875-.1259765625.06982421875-.2666015625.06982421875-.3916015625v-1.17578125Z" fill="#231f20" stroke-width="0"/>
        <path d="M326.341063464094987,312.317675651389436c.0283203125-.4619140625.05615234375-1.1474609375.05615234375-1.7490234375v-8.185546875h1.21728515625v4.25390625h.02783203125c.43408203125-.755859375,1.21728515625-1.2451171875,2.30908203125-1.2451171875,1.6787109375,0,2.8681640625,1.3984375,2.85400390625,3.4560546875,0,2.419921875-1.52490234375,3.6240234375-3.0361328125,3.6240234375-.9794921875,0-1.76318359375-.3779296875-2.2666015625-1.2734375h-.0419921875l-.05615234375,1.119140625h-1.0634765625ZM327.614500964094987,309.602831901389436c0,.154296875.02783203125.30859375.05615234375.4482421875.23779296875.853515625.951171875,1.44140625,1.8466796875,1.44140625,1.28759765625,0,2.05712890625-1.0498046875,2.05712890625-2.6025390625,0-1.357421875-.69970703125-2.5185546875-2.01513671875-2.5185546875-.83935546875,0-1.623046875.5732421875-1.875,1.5107421875-.02783203125.1396484375-.06982421875.3076171875-.06982421875.50390625v1.216796875Z" fill="#231f20" stroke-width="0"/>
        <path d="M334.356688464094987,302.383105338889436h1.2314453125v9.9345703125h-1.2314453125v-9.9345703125Z" fill="#231f20" stroke-width="0"/>
        <path d="M338.343504870344987,309.155566276389436c.02783203125,1.6650390625,1.09130859375,2.3505859375,2.32275390625,2.3505859375.88134765625,0,1.4130859375-.154296875,1.875-.349609375l.2099609375.880859375c-.43408203125.1962890625-1.17529296875.419921875-2.2529296875.419921875-2.0849609375,0-3.330078125-1.37109375-3.330078125-3.4140625s1.203125-3.6513671875,3.17626953125-3.6513671875c2.2109375,0,2.79833984375,1.9443359375,2.79833984375,3.189453125,0,.251953125-.02783203125.4482421875-.0419921875.57421875h-4.75732421875ZM341.953368151594987,308.273730338889436c.01416015625-.783203125-.32177734375-2.0009765625-1.70703125-2.0009765625-1.2451171875,0-1.791015625,1.1474609375-1.888671875,2.0009765625h3.595703125Z" fill="#231f20" stroke-width="0"/>
        <path d="M351.382079089094987,312.317675651389436l-.09814453125-.853515625h-.0419921875c-.37744140625.53125-1.10546875,1.0078125-2.07080078125,1.0078125-1.37109375,0-2.07080078125-.9658203125-2.07080078125-1.9453125,0-1.63671875,1.455078125-2.5322265625,4.07177734375-2.5185546875v-.1396484375c0-.5595703125-.15380859375-1.5673828125-1.5390625-1.5673828125-.6298828125,0-1.28759765625.1962890625-1.76318359375.50390625l-.27978515625-.8115234375c.5595703125-.3642578125,1.37109375-.6015625,2.224609375-.6015625,2.07080078125,0,2.57470703125,1.4130859375,2.57470703125,2.7705078125v2.5322265625c0,.587890625.02783203125,1.1611328125.11181640625,1.623046875h-1.119140625ZM351.199950182844987,308.861620963889436c-1.34326171875-.0283203125-2.8681640625.2099609375-2.8681640625,1.525390625,0,.796875.53173828125,1.1748046875,1.1611328125,1.1748046875.8818359375,0,1.44140625-.5595703125,1.63720703125-1.1328125.0419921875-.1259765625.06982421875-.2666015625.06982421875-.3916015625v-1.17578125Z" fill="#231f20" stroke-width="0"/>
        <path d="M358.558348620344987,312.317675651389436v-5.8349609375h-2.84033203125v5.8349609375h-1.21728515625v-5.8349609375h-.95166015625v-.9375h.95166015625v-.2236328125c0-.951171875.2236328125-1.77734375.75537109375-2.30859375.39208984375-.3916015625.95166015625-.6298828125,1.70703125-.6298828125.39208984375,0,.755859375.1259765625.9658203125.23828125l-.251953125.9091796875c-.18212890625-.083984375-.44775390625-.16796875-.7275390625-.16796875-.9658203125,0-1.2314453125.8251953125-1.2314453125,1.888671875v.2939453125h2.84033203125v-.3212890625c0-.9521484375.22412109375-1.8193359375.7978515625-2.365234375.46142578125-.447265625,1.0771484375-.6298828125,1.63671875-.6298828125.44775390625,0,.8115234375.0986328125,1.0498046875.1962890625l-.154296875.951171875c-.19580078125-.083984375-.43359375-.1533203125-.79736328125-.1533203125-1.03564453125,0-1.3154296875.9228515625-1.3154296875,1.958984375v.36328125h1.63720703125v.9375h-1.623046875v5.8349609375h-1.2314453125Z" fill="#231f20" stroke-width="0"/>
        <path d="M363.033934557844987,309.155566276389436c.02783203125,1.6650390625,1.09130859375,2.3505859375,2.32275390625,2.3505859375.88134765625,0,1.4130859375-.154296875,1.875-.349609375l.2099609375.880859375c-.43408203125.1962890625-1.17529296875.419921875-2.2529296875.419921875-2.0849609375,0-3.330078125-1.37109375-3.330078125-3.4140625s1.203125-3.6513671875,3.17626953125-3.6513671875c2.2109375,0,2.79833984375,1.9443359375,2.79833984375,3.189453125,0,.251953125-.02783203125.4482421875-.0419921875.57421875h-4.75732421875ZM366.643797839094987,308.273730338889436c.01416015625-.783203125-.32177734375-2.0009765625-1.70703125-2.0009765625-1.2451171875,0-1.791015625,1.1474609375-1.888671875,2.0009765625h3.595703125Z" fill="#231f20" stroke-width="0"/>
        <path d="M374.183836901594987,312.065722526389436c-.32177734375.16796875-1.03515625.3916015625-1.94482421875.3916015625-2.04296875,0-3.3720703125-1.384765625-3.3720703125-3.4560546875,0-2.0849609375,1.42724609375-3.595703125,3.63818359375-3.595703125.7275390625,0,1.37109375.181640625,1.70703125.349609375l-.2802734375.951171875c-.29345703125-.16796875-.75537109375-.3212890625-1.4267578125-.3212890625-1.55322265625,0-2.39306640625,1.1474609375-2.39306640625,2.560546875,0,1.5673828125,1.0078125,2.5322265625,2.35107421875,2.5322265625.69921875,0,1.1611328125-.181640625,1.5107421875-.3359375l.2099609375.923828125Z" fill="#231f20" stroke-width="0"/>
        <path d="M377.288329089094987,303.600878776389436v1.9443359375h1.76318359375v.9375h-1.76318359375v3.65234375c0,.8388671875.23828125,1.3154296875.923828125,1.3154296875.32177734375,0,.5595703125-.0419921875.71337890625-.083984375l.05615234375.9228515625c-.23779296875.0986328125-.61572265625.16796875-1.09130859375.16796875-.57373046875,0-1.03564453125-.181640625-1.32958984375-.517578125-.349609375-.36328125-.4755859375-.9658203125-.4755859375-1.7626953125v-3.6943359375h-1.04931640625v-.9375h1.04931640625v-1.623046875l1.203125-.3212890625Z" fill="#231f20" stroke-width="0"/>
        <path d="M380.267821276594987,311.057910026389436c.36376953125.23828125,1.00732421875.490234375,1.623046875.490234375.8955078125,0,1.3154296875-.4482421875,1.3154296875-1.0078125,0-.5869140625-.35009765625-.9091796875-1.25927734375-1.2451171875-1.21728515625-.43359375-1.791015625-1.10546875-1.791015625-1.9169921875,0-1.0908203125.88134765625-1.986328125,2.33642578125-1.986328125.68603515625,0,1.28759765625.1953125,1.6650390625.4189453125l-.3076171875.8955078125c-.265625-.16796875-.75537109375-.3916015625-1.38525390625-.3916015625-.7275390625,0-1.13330078125.419921875-1.13330078125.923828125,0,.5595703125.40576171875.8115234375,1.287109375,1.1474609375,1.17529296875.447265625,1.77734375,1.03515625,1.77734375,2.04296875,0,1.189453125-.923828125,2.0283203125-2.53271484375,2.0283203125-.74169921875,0-1.42724609375-.181640625-1.90283203125-.4619140625l.3076171875-.9375Z" fill="#231f20" stroke-width="0"/>
      </g>
      <g>
        <path d="M222.866942370344987,574.791308463889436c.01416015625.4189453125-.2939453125.7548828125-.78369140625.7548828125-.43359375,0-.7412109375-.3359375-.7412109375-.7548828125,0-.4345703125.32177734375-.76953125.76953125-.76953125.46142578125,0,.75537109375.3349609375.75537109375.76953125ZM221.495848620344987,583.466113151389436v-6.7724609375h1.2314453125v6.7724609375h-1.2314453125Z" fill="#231f20" stroke-width="0"/>
        <path d="M224.769286120344987,578.526660026389436c0-.69921875-.01416015625-1.2734375-.05615234375-1.8330078125h1.09130859375l.0703125,1.119140625h.02783203125c.3359375-.6435546875,1.11962890625-1.2724609375,2.23876953125-1.2724609375.9375,0,2.392578125.5595703125,2.392578125,2.8818359375v4.0439453125h-1.23095703125v-3.904296875c0-1.0908203125-.40625-2-1.5673828125-2-.8115234375,0-1.44140625.5732421875-1.65087890625,1.2587890625-.05615234375.154296875-.083984375.3642578125-.083984375.57421875v4.0712890625h-1.2314453125v-4.939453125Z" fill="#231f20" stroke-width="0"/>
        <path d="M232.532957995344987,573.531542838889436h1.2314453125v4.2255859375h.02783203125c.19580078125-.349609375.50390625-.6572265625.88134765625-.8671875.36376953125-.2099609375.7978515625-.349609375,1.25927734375-.349609375.90966796875,0,2.36474609375.5595703125,2.36474609375,2.896484375v4.029296875h-1.23095703125v-3.8896484375c0-1.091796875-.40625-2.0146484375-1.5673828125-2.0146484375-.79736328125,0-1.42724609375.5595703125-1.65087890625,1.23046875-.0703125.16796875-.083984375.3505859375-.083984375.587890625v4.0859375h-1.2314453125v-9.9345703125Z" fill="#231f20" stroke-width="0"/>
        <path d="M241.667723620344987,574.791308463889436c.01416015625.4189453125-.2939453125.7548828125-.78369140625.7548828125-.43359375,0-.7412109375-.3359375-.7412109375-.7548828125,0-.4345703125.32177734375-.76953125.76953125-.76953125.46142578125,0,.75537109375.3349609375.75537109375.76953125ZM240.296629870344987,583.466113151389436v-6.7724609375h1.2314453125v6.7724609375h-1.2314453125Z" fill="#231f20" stroke-width="0"/>
        <path d="M243.513915026594987,583.466113151389436c.0283203125-.4619140625.05615234375-1.1474609375.05615234375-1.7490234375v-8.185546875h1.21728515625v4.25390625h.02783203125c.43408203125-.755859375,1.21728515625-1.2451171875,2.30908203125-1.2451171875,1.6787109375,0,2.8681640625,1.3984375,2.85400390625,3.4560546875,0,2.419921875-1.52490234375,3.6240234375-3.0361328125,3.6240234375-.9794921875,0-1.76318359375-.3779296875-2.2666015625-1.2734375h-.0419921875l-.05615234375,1.119140625h-1.0634765625ZM244.787352526594987,580.751269401389436c0,.154296875.02783203125.30859375.05615234375.4482421875.23779296875.853515625.951171875,1.44140625,1.8466796875,1.44140625,1.28759765625,0,2.05712890625-1.0498046875,2.05712890625-2.6025390625,0-1.357421875-.69970703125-2.5185546875-2.01513671875-2.5185546875-.83935546875,0-1.623046875.5732421875-1.875,1.5107421875-.02783203125.1396484375-.06982421875.3076171875-.06982421875.50390625v1.216796875Z" fill="#231f20" stroke-width="0"/>
        <path d="M252.900633776594987,574.791308463889436c.01416015625.4189453125-.2939453125.7548828125-.78369140625.7548828125-.43359375,0-.7412109375-.3359375-.7412109375-.7548828125,0-.4345703125.32177734375-.76953125.76953125-.76953125.46142578125,0,.75537109375.3349609375.75537109375.76953125ZM251.529540026594987,583.466113151389436v-6.7724609375h1.2314453125v6.7724609375h-1.2314453125Z" fill="#231f20" stroke-width="0"/>
        <path d="M256.285887682844987,574.749316276389436v1.9443359375h1.76318359375v.9375h-1.76318359375v3.65234375c0,.8388671875.23828125,1.3154296875.923828125,1.3154296875.32177734375,0,.5595703125-.0419921875.71337890625-.083984375l.05615234375.9228515625c-.23779296875.0986328125-.61572265625.16796875-1.09130859375.16796875-.57373046875,0-1.03564453125-.181640625-1.32958984375-.517578125-.349609375-.36328125-.4755859375-.9658203125-.4755859375-1.7626953125v-3.6943359375h-1.04931640625v-.9375h1.04931640625v-1.623046875l1.203125-.3212890625Z" fill="#231f20" stroke-width="0"/>
        <path d="M260.034911120344987,580.304003776389436c.02783203125,1.6650390625,1.09130859375,2.3505859375,2.32275390625,2.3505859375.88134765625,0,1.4130859375-.154296875,1.875-.349609375l.2099609375.880859375c-.43408203125.1962890625-1.17529296875.419921875-2.2529296875.419921875-2.0849609375,0-3.330078125-1.37109375-3.330078125-3.4140625s1.203125-3.6513671875,3.17626953125-3.6513671875c2.2109375,0,2.79833984375,1.9443359375,2.79833984375,3.189453125,0,.251953125-.02783203125.4482421875-.0419921875.57421875h-4.75732421875ZM263.644774401594987,579.422167838889436c.01416015625-.783203125-.32177734375-2.0009765625-1.70703125-2.0009765625-1.2451171875,0-1.791015625,1.1474609375-1.888671875,2.0009765625h3.595703125Z" fill="#231f20" stroke-width="0"/>
        <path d="M272.206297839094987,573.531542838889436v8.185546875c0,.6015625.01416015625,1.287109375.05615234375,1.7490234375h-1.10546875l-.05615234375-1.17578125h-.02783203125c-.3779296875.755859375-1.203125,1.330078125-2.30859375,1.330078125-1.63720703125,0-2.896484375-1.3857421875-2.896484375-3.4423828125-.01416015625-2.2529296875,1.38525390625-3.6376953125,3.0361328125-3.6376953125,1.03564453125,0,1.7353515625.4892578125,2.04296875,1.03515625h.02783203125v-4.0439453125h1.2314453125ZM270.974852526594987,579.450488151389436c0-.154296875-.013671875-.3642578125-.0556640625-.517578125-.18212890625-.7841796875-.853515625-1.427734375-1.77734375-1.427734375-1.27294921875,0-2.02880859375,1.119140625-2.02880859375,2.6171875,0,1.37109375.671875,2.50390625,2.0009765625,2.50390625.82568359375,0,1.5810546875-.544921875,1.80517578125-1.46875.0419921875-.16796875.0556640625-.3359375.0556640625-.5322265625v-1.1748046875Z" fill="#231f20" stroke-width="0"/>
        <path d="M277.688231432844987,576.693652213889436l1.32958984375,3.8056640625c.2236328125.6162109375.40576171875,1.17578125.54541015625,1.7353515625h.0419921875c.15380859375-.5595703125.35009765625-1.119140625.57373046875-1.7353515625l1.3154296875-3.8056640625h1.287109375l-2.65869140625,6.7724609375h-1.17529296875l-2.57421875-6.7724609375h1.31494140625Z" fill="#231f20" stroke-width="0"/>
        <path d="M289.608153307844987,581.619433463889436c0,.69921875.013671875,1.3154296875.0556640625,1.8466796875h-1.09130859375l-.06982421875-1.10546875h-.02783203125c-.322265625.5458984375-1.03564453125,1.259765625-2.23876953125,1.259765625-1.0634765625,0-2.3369140625-.587890625-2.3369140625-2.966796875v-3.9599609375h1.2314453125v3.75c0,1.287109375.3916015625,2.1552734375,1.51123046875,2.1552734375.8251953125,0,1.39892578125-.57421875,1.623046875-1.1201171875.06982421875-.181640625.11181640625-.4052734375.11181640625-.62890625v-4.15625h1.2314453125v4.92578125Z" fill="#231f20" stroke-width="0"/>
        <path d="M291.649168932844987,573.531542838889436h1.2314453125v9.9345703125h-1.2314453125v-9.9345703125Z" fill="#231f20" stroke-width="0"/>
        <path d="M294.950438464094987,578.526660026389436c0-.69921875-.01416015625-1.2734375-.05615234375-1.8330078125h1.09130859375l.0703125,1.119140625h.02783203125c.3359375-.6435546875,1.11962890625-1.2724609375,2.23876953125-1.2724609375.9375,0,2.392578125.5595703125,2.392578125,2.8818359375v4.0439453125h-1.23095703125v-3.904296875c0-1.0908203125-.40576171875-2-1.5673828125-2-.8115234375,0-1.44140625.5732421875-1.65087890625,1.2587890625-.05615234375.154296875-.083984375.3642578125-.083984375.57421875v4.0712890625h-1.2314453125v-4.939453125Z" fill="#231f20" stroke-width="0"/>
        <path d="M303.399657214094987,580.304003776389436c.02783203125,1.6650390625,1.09130859375,2.3505859375,2.32275390625,2.3505859375.88134765625,0,1.4130859375-.154296875,1.875-.349609375l.2099609375.880859375c-.43408203125.1962890625-1.17529296875.419921875-2.2529296875.419921875-2.0849609375,0-3.330078125-1.37109375-3.330078125-3.4140625s1.203125-3.6513671875,3.17626953125-3.6513671875c2.2109375,0,2.79833984375,1.9443359375,2.79833984375,3.189453125,0,.251953125-.02783203125.4482421875-.0419921875.57421875h-4.75732421875ZM307.009520495344987,579.422167838889436c.01416015625-.783203125-.32177734375-2.0009765625-1.70703125-2.0009765625-1.2451171875,0-1.791015625,1.1474609375-1.888671875,2.0009765625h3.595703125Z" fill="#231f20" stroke-width="0"/>
        <path d="M309.722411120344987,578.806933463889436c0-.7978515625-.01416015625-1.4833984375-.05615234375-2.11328125h1.07763671875l.0419921875,1.3291015625h.0556640625c.30810546875-.9091796875,1.0498046875-1.482421875,1.875-1.482421875.14013671875,0,.23779296875.013671875.35009765625.0419921875v1.1611328125c-.1259765625-.0283203125-.251953125-.0419921875-.419921875-.0419921875-.86767578125,0-1.4833984375.6572265625-1.65087890625,1.5810546875-.0283203125.16796875-.05615234375.36328125-.05615234375.5732421875v3.6103515625h-1.21728515625v-4.6591796875Z" fill="#231f20" stroke-width="0"/>
        <path d="M317.976805651594987,583.466113151389436l-.09814453125-.853515625h-.0419921875c-.37744140625.53125-1.10546875,1.0078125-2.07080078125,1.0078125-1.37109375,0-2.07080078125-.9658203125-2.07080078125-1.9453125,0-1.63671875,1.455078125-2.5322265625,4.07177734375-2.5185546875v-.1396484375c0-.5595703125-.15380859375-1.5673828125-1.5390625-1.5673828125-.6298828125,0-1.28759765625.1962890625-1.76318359375.50390625l-.27978515625-.8115234375c.5595703125-.3642578125,1.37109375-.6015625,2.224609375-.6015625,2.07080078125,0,2.57470703125,1.4130859375,2.57470703125,2.7705078125v2.5322265625c0,.587890625.02783203125,1.1611328125.11181640625,1.623046875h-1.119140625ZM317.794676745344987,580.010058463889436c-1.34326171875-.0283203125-2.8681640625.2099609375-2.8681640625,1.525390625,0,.796875.53173828125,1.1748046875,1.1611328125,1.1748046875.8818359375,0,1.44140625-.5595703125,1.63720703125-1.1328125.0419921875-.1259765625.06982421875-.2666015625.06982421875-.3916015625v-1.17578125Z" fill="#231f20" stroke-width="0"/>
        <path d="M320.913329089094987,583.466113151389436c.0283203125-.4619140625.05615234375-1.1474609375.05615234375-1.7490234375v-8.185546875h1.21728515625v4.25390625h.02783203125c.43408203125-.755859375,1.21728515625-1.2451171875,2.30908203125-1.2451171875,1.6787109375,0,2.8681640625,1.3984375,2.85400390625,3.4560546875,0,2.419921875-1.52490234375,3.6240234375-3.0361328125,3.6240234375-.9794921875,0-1.76318359375-.3779296875-2.2666015625-1.2734375h-.0419921875l-.05615234375,1.119140625h-1.0634765625ZM322.186766589094987,580.751269401389436c0,.154296875.02783203125.30859375.05615234375.4482421875.23779296875.853515625.951171875,1.44140625,1.8466796875,1.44140625,1.28759765625,0,2.05712890625-1.0498046875,2.05712890625-2.6025390625,0-1.357421875-.69970703125-2.5185546875-2.01513671875-2.5185546875-.83935546875,0-1.623046875.5732421875-1.875,1.5107421875-.02783203125.1396484375-.06982421875.3076171875-.06982421875.50390625v1.216796875Z" fill="#231f20" stroke-width="0"/>
        <path d="M328.928954089094987,573.531542838889436h1.2314453125v9.9345703125h-1.2314453125v-9.9345703125Z" fill="#231f20" stroke-width="0"/>
        <path d="M332.915770495344987,580.304003776389436c.02783203125,1.6650390625,1.09130859375,2.3505859375,2.32275390625,2.3505859375.88134765625,0,1.4130859375-.154296875,1.875-.349609375l.2099609375.880859375c-.43408203125.1962890625-1.17529296875.419921875-2.2529296875.419921875-2.0849609375,0-3.330078125-1.37109375-3.330078125-3.4140625s1.203125-3.6513671875,3.17626953125-3.6513671875c2.2109375,0,2.79833984375,1.9443359375,2.79833984375,3.189453125,0,.251953125-.02783203125.4482421875-.0419921875.57421875h-4.75732421875ZM336.525633776594987,579.422167838889436c.01416015625-.783203125-.32177734375-2.0009765625-1.70703125-2.0009765625-1.2451171875,0-1.791015625,1.1474609375-1.888671875,2.0009765625h3.595703125Z" fill="#231f20" stroke-width="0"/>
        <path d="M345.954344714094987,583.466113151389436l-.09814453125-.853515625h-.0419921875c-.37744140625.53125-1.10546875,1.0078125-2.07080078125,1.0078125-1.37109375,0-2.07080078125-.9658203125-2.07080078125-1.9453125,0-1.63671875,1.455078125-2.5322265625,4.07177734375-2.5185546875v-.1396484375c0-.5595703125-.15380859375-1.5673828125-1.5390625-1.5673828125-.6298828125,0-1.28759765625.1962890625-1.76318359375.50390625l-.27978515625-.8115234375c.5595703125-.3642578125,1.37109375-.6015625,2.224609375-.6015625,2.07080078125,0,2.57470703125,1.4130859375,2.57470703125,2.7705078125v2.5322265625c0,.587890625.02783203125,1.1611328125.11181640625,1.623046875h-1.119140625ZM345.772215807844987,580.010058463889436c-1.34326171875-.0283203125-2.8681640625.2099609375-2.8681640625,1.525390625,0,.796875.53173828125,1.1748046875,1.1611328125,1.1748046875.8818359375,0,1.44140625-.5595703125,1.63720703125-1.1328125.0419921875-.1259765625.06982421875-.2666015625.06982421875-.3916015625v-1.17578125Z" fill="#231f20" stroke-width="0"/>
        <path d="M353.130614245344987,583.466113151389436v-5.8349609375h-2.84033203125v5.8349609375h-1.21728515625v-5.8349609375h-.95166015625v-.9375h.95166015625v-.2236328125c0-.951171875.2236328125-1.77734375.75537109375-2.30859375.39208984375-.3916015625.95166015625-.6298828125,1.70703125-.6298828125.39208984375,0,.755859375.1259765625.9658203125.23828125l-.251953125.9091796875c-.18212890625-.083984375-.44775390625-.16796875-.7275390625-.16796875-.9658203125,0-1.2314453125.8251953125-1.2314453125,1.888671875v.2939453125h2.84033203125v-.3212890625c0-.9521484375.22412109375-1.8193359375.7978515625-2.365234375.46142578125-.447265625,1.0771484375-.6298828125,1.63671875-.6298828125.44775390625,0,.8115234375.0986328125,1.0498046875.1962890625l-.154296875.951171875c-.19580078125-.083984375-.43359375-.1533203125-.79736328125-.1533203125-1.03564453125,0-1.3154296875.9228515625-1.3154296875,1.958984375v.36328125h1.63720703125v.9375h-1.623046875v5.8349609375h-1.2314453125Z" fill="#231f20" stroke-width="0"/>
        <path d="M357.606200182844987,580.304003776389436c.02783203125,1.6650390625,1.09130859375,2.3505859375,2.32275390625,2.3505859375.88134765625,0,1.4130859375-.154296875,1.875-.349609375l.2099609375.880859375c-.43408203125.1962890625-1.17529296875.419921875-2.2529296875.419921875-2.0849609375,0-3.330078125-1.37109375-3.330078125-3.4140625s1.203125-3.6513671875,3.17626953125-3.6513671875c2.2109375,0,2.79833984375,1.9443359375,2.79833984375,3.189453125,0,.251953125-.02783203125.4482421875-.0419921875.57421875h-4.75732421875ZM361.216063464094987,579.422167838889436c.01416015625-.783203125-.32177734375-2.0009765625-1.70703125-2.0009765625-1.2451171875,0-1.791015625,1.1474609375-1.888671875,2.0009765625h3.595703125Z" fill="#231f20" stroke-width="0"/>
        <path d="M368.756102526594987,583.214160026389436c-.32177734375.16796875-1.03515625.3916015625-1.94482421875.3916015625-2.04296875,0-3.3720703125-1.384765625-3.3720703125-3.4560546875,0-2.0849609375,1.42724609375-3.595703125,3.63818359375-3.595703125.7275390625,0,1.37109375.181640625,1.70703125.349609375l-.2802734375.951171875c-.29345703125-.16796875-.75537109375-.3212890625-1.4267578125-.3212890625-1.55322265625,0-2.39306640625,1.1474609375-2.39306640625,2.560546875,0,1.5673828125,1.0078125,2.5322265625,2.35107421875,2.5322265625.69921875,0,1.1611328125-.181640625,1.5107421875-.3359375l.2099609375.923828125Z" fill="#231f20" stroke-width="0"/>
        <path d="M371.860594714094987,574.749316276389436v1.9443359375h1.76318359375v.9375h-1.76318359375v3.65234375c0,.8388671875.23828125,1.3154296875.923828125,1.3154296875.32177734375,0,.5595703125-.0419921875.71337890625-.083984375l.05615234375.9228515625c-.23779296875.0986328125-.61572265625.16796875-1.09130859375.16796875-.57373046875,0-1.03564453125-.181640625-1.32958984375-.517578125-.349609375-.36328125-.4755859375-.9658203125-.4755859375-1.7626953125v-3.6943359375h-1.04931640625v-.9375h1.04931640625v-1.623046875l1.203125-.3212890625Z" fill="#231f20" stroke-width="0"/>
        <path d="M374.840086901594987,582.206347526389436c.36376953125.23828125,1.00732421875.490234375,1.623046875.490234375.8955078125,0,1.3154296875-.4482421875,1.3154296875-1.0078125,0-.5869140625-.35009765625-.9091796875-1.25927734375-1.2451171875-1.21728515625-.43359375-1.791015625-1.10546875-1.791015625-1.9169921875,0-1.0908203125.88134765625-1.986328125,2.33642578125-1.986328125.68603515625,0,1.28759765625.1953125,1.6650390625.4189453125l-.3076171875.8955078125c-.265625-.16796875-.75537109375-.3916015625-1.38525390625-.3916015625-.7275390625,0-1.13330078125.419921875-1.13330078125.923828125,0,.5595703125.40576171875.8115234375,1.287109375,1.1474609375,1.17529296875.447265625,1.77734375,1.03515625,1.77734375,2.04296875,0,1.189453125-.923828125,2.0283203125-2.53271484375,2.0283203125-.74169921875,0-1.42724609375-.181640625-1.90283203125-.4619140625l.3076171875-.9375Z" fill="#231f20" stroke-width="0"/>
      </g>
      <line x1="299.999961002169584" y1="326.771055177909147" x2="299.999961002169584" y2="351.441264519049582" fill="none" stroke="#000" stroke-linecap="round" stroke-linejoin="round" stroke-width="2"/>
      <g>
        <g>
          <path d="M321.734129870344987,337.606738151389436h-6.0166015625v5.580078125h6.70556640625v1.6767578125h-8.70361328125v-15.478515625h8.359375v1.6767578125h-6.361328125v4.8916015625h6.0166015625v1.6533203125Z" fill="#231f20" stroke-width="0"/>
          <path d="M325.572508776594987,333.748339713889436l2.181640625,6.2470703125c.36767578125,1.009765625.666015625,1.9287109375.89599609375,2.84765625h.06884765625c.25244140625-.9189453125.57373046875-1.837890625.94140625-2.84765625l2.15869140625-6.2470703125h2.11279296875l-4.36328125,11.115234375h-1.92919921875l-4.2255859375-11.115234375h2.15869140625Z" fill="#231f20" stroke-width="0"/>
          <path d="M336.736082995344987,339.673144401389436c.0458984375,2.7333984375,1.791015625,3.8583984375,3.81201171875,3.8583984375,1.44677734375,0,2.3193359375-.2529296875,3.0771484375-.57421875l.3447265625,1.447265625c-.7119140625.3212890625-1.92919921875.6884765625-3.697265625.6884765625-3.421875,0-5.4658203125-2.25-5.4658203125-5.603515625,0-3.3525390625,1.97509765625-5.9931640625,5.212890625-5.9931640625,3.62841796875,0,4.59326171875,3.19140625,4.59326171875,5.2353515625,0,.4140625-.04638671875.7353515625-.0693359375.94140625h-7.8076171875ZM342.660887682844987,338.226855338889436c.02294921875-1.2861328125-.5283203125-3.2841796875-2.8017578125-3.2841796875-2.0439453125,0-2.939453125,1.8837890625-3.10009765625,3.2841796875h5.90185546875Z" fill="#231f20" stroke-width="0"/>
          <path d="M347.118895495344987,336.757128776389436c0-1.1484375-.02294921875-2.08984375-.091796875-3.0087890625h1.79150390625l.11474609375,1.837890625h.0458984375c.55126953125-1.056640625,1.8369140625-2.08984375,3.67431640625-2.08984375,1.53857421875,0,3.9267578125.91796875,3.9267578125,4.73046875v6.63671875h-2.02099609375v-6.4072265625c0-1.791015625-.66552734375-3.2841796875-2.57177734375-3.2841796875-1.33203125,0-2.365234375.9423828125-2.7099609375,2.0673828125-.091796875.251953125-.1376953125.5966796875-.1376953125.94140625v6.6826171875h-2.02099609375v-8.1064453125Z" fill="#231f20" stroke-width="0"/>
          <path d="M375.622801745344987,344.358691276389436c-.73486328125.3671875-2.20458984375.734375-4.08740234375.734375-4.36328125,0-7.6474609375-2.755859375-7.6474609375-7.8310546875,0-4.8447265625,3.2841796875-8.12890625,8.08349609375-8.12890625,1.92919921875,0,3.14599609375.4130859375,3.67431640625.6884765625l-.482421875,1.630859375c-.7578125-.3671875-1.8369140625-.6435546875-3.123046875-.6435546875-3.62841796875,0-6.03955078125,2.3203125-6.03955078125,6.384765625,0,3.7890625,2.181640625,6.2236328125,5.94775390625,6.2236328125,1.21728515625,0,2.45703125-.2529296875,3.26123046875-.6435546875l.4130859375,1.5849609375Z" fill="#231f20" stroke-width="0"/>
        </g>
        <g>
          <path d="M238.588622057844987,336.964160026389436c0,5.3271484375-3.23779296875,8.15234375-7.1875,8.15234375-4.087890625,0-6.95849609375-3.1689453125-6.95849609375-7.8544921875,0-4.9140625,3.05419921875-8.12890625,7.18798828125-8.12890625,4.2255859375,0,6.9580078125,3.23828125,6.9580078125,7.8310546875ZM226.578368151594987,337.216113151389436c0,3.3076171875,1.791015625,6.26953125,4.9375,6.26953125,3.1689453125,0,4.9599609375-2.916015625,4.9599609375-6.4296875,0-3.0771484375-1.607421875-6.29296875-4.93701171875-6.29296875-3.30712890625,0-4.96044921875,3.0546875-4.96044921875,6.453125Z" fill="#231f20" stroke-width="0"/>
          <path d="M250.810301745344987,328.558886588889436v13.4345703125c0,.9873046875.02294921875,2.1123046875.091796875,2.8701171875h-1.81396484375l-.091796875-1.9287109375h-.0458984375c-.6201171875,1.240234375-1.97509765625,2.181640625-3.7890625,2.181640625-2.68701171875,0-4.75390625-2.2734375-4.75390625-5.6494140625-.02294921875-3.697265625,2.2734375-5.970703125,4.9833984375-5.970703125,1.69921875,0,2.84765625.8037109375,3.35302734375,1.69921875h.0458984375v-6.63671875h2.0205078125ZM248.789793932844987,338.272753776389436c0-.2529296875-.02294921875-.5966796875-.09228515625-.849609375-.29833984375-1.2861328125-1.400390625-2.3427734375-2.916015625-2.3427734375-2.08984375,0-3.330078125,1.837890625-3.330078125,4.294921875,0,2.25,1.10205078125,4.1103515625,3.28369140625,4.1103515625,1.35498046875,0,2.59521484375-.8955078125,2.96240234375-2.4111328125.0693359375-.275390625.09228515625-.55078125.09228515625-.873046875v-1.9287109375Z" fill="#231f20" stroke-width="0"/>
          <path d="M263.765379870344987,328.558886588889436v13.4345703125c0,.9873046875.02294921875,2.1123046875.091796875,2.8701171875h-1.81396484375l-.091796875-1.9287109375h-.0458984375c-.6201171875,1.240234375-1.97509765625,2.181640625-3.7890625,2.181640625-2.68701171875,0-4.75390625-2.2734375-4.75390625-5.6494140625-.02294921875-3.697265625,2.2734375-5.970703125,4.9833984375-5.970703125,1.69921875,0,2.84765625.8037109375,3.35302734375,1.69921875h.0458984375v-6.63671875h2.0205078125ZM261.744872057844987,338.272753776389436c0-.2529296875-.02294921875-.5966796875-.09228515625-.849609375-.29833984375-1.2861328125-1.400390625-2.3427734375-2.916015625-2.3427734375-2.08984375,0-3.330078125,1.837890625-3.330078125,4.294921875,0,2.25,1.10205078125,4.1103515625,3.28369140625,4.1103515625,1.35498046875,0,2.59521484375-.8955078125,2.96240234375-2.4111328125.0693359375-.275390625.09228515625-.55078125.09228515625-.873046875v-1.9287109375Z" fill="#231f20" stroke-width="0"/>
          <path d="M274.563719714094987,339.995410026389436l-1.607421875,4.8681640625h-2.06689453125l5.2587890625-15.478515625h2.4111328125l5.28173828125,15.478515625h-2.1357421875l-1.6533203125-4.8681640625h-5.48828125ZM279.638915026594987,338.433886588889436l-1.515625-4.455078125c-.3447265625-1.0107421875-.57421875-1.9296875-.8037109375-2.8251953125h-.04638671875c-.2294921875.9189453125-.48193359375,1.8603515625-.78076171875,2.8017578125l-1.515625,4.478515625h4.662109375Z" fill="#231f20" stroke-width="0"/>
        </g>
      </g>
      <line x1="299.999961002169584" y1="540.473182837478817" x2="299.999961002169584" y2="565.143392178619251" fill="none" stroke="#000" stroke-linecap="round" stroke-linejoin="round" stroke-width="2"/>
      <g>
        <g>
          <path d="M329.140379870344987,550.666308463889436c0,5.3271484375-3.23779296875,8.15234375-7.1875,8.15234375-4.087890625,0-6.95849609375-3.1689453125-6.95849609375-7.8544921875,0-4.9140625,3.05419921875-8.12890625,7.18798828125-8.12890625,4.2255859375,0,6.9580078125,3.23828125,6.9580078125,7.8310546875ZM317.130125964094987,550.918261588889436c0,3.3076171875,1.791015625,6.26953125,4.9375,6.26953125,3.1689453125,0,4.9599609375-2.916015625,4.9599609375-6.4296875,0-3.0771484375-1.607421875-6.29296875-4.93701171875-6.29296875-3.30712890625,0-4.96044921875,3.0546875-4.96044921875,6.453125Z" fill="#231f20" stroke-width="0"/>
          <path d="M341.362059557844987,542.261035026389436v13.4345703125c0,.9873046875.02294921875,2.1123046875.091796875,2.8701171875h-1.81396484375l-.091796875-1.9287109375h-.0458984375c-.6201171875,1.240234375-1.97509765625,2.181640625-3.7890625,2.181640625-2.68701171875,0-4.75390625-2.2734375-4.75390625-5.6494140625-.02294921875-3.697265625,2.2734375-5.970703125,4.9833984375-5.970703125,1.69921875,0,2.84765625.8037109375,3.35302734375,1.69921875h.0458984375v-6.63671875h2.0205078125ZM339.341551745344987,551.974902213889436c0-.2529296875-.02294921875-.5966796875-.09228515625-.849609375-.29833984375-1.2861328125-1.400390625-2.3427734375-2.916015625-2.3427734375-2.08984375,0-3.330078125,1.837890625-3.330078125,4.294921875,0,2.25,1.10205078125,4.1103515625,3.28369140625,4.1103515625,1.35498046875,0,2.59521484375-.8955078125,2.96240234375-2.4111328125.0693359375-.275390625.09228515625-.55078125.09228515625-.873046875v-1.9287109375Z" fill="#231f20" stroke-width="0"/>
          <path d="M354.317137682844987,542.261035026389436v13.4345703125c0,.9873046875.02294921875,2.1123046875.091796875,2.8701171875h-1.81396484375l-.091796875-1.9287109375h-.0458984375c-.6201171875,1.240234375-1.97509765625,2.181640625-3.7890625,2.181640625-2.68701171875,0-4.75390625-2.2734375-4.75390625-5.6494140625-.02294921875-3.697265625,2.2734375-5.970703125,4.9833984375-5.970703125,1.69921875,0,2.84765625.8037109375,3.35302734375,1.69921875h.0458984375v-6.63671875h2.0205078125ZM352.296629870344987,551.974902213889436c0-.2529296875-.02294921875-.5966796875-.09228515625-.849609375-.29833984375-1.2861328125-1.400390625-2.3427734375-2.916015625-2.3427734375-2.08984375,0-3.330078125,1.837890625-3.330078125,4.294921875,0,2.25,1.10205078125,4.1103515625,3.28369140625,4.1103515625,1.35498046875,0,2.59521484375-.8955078125,2.96240234375-2.4111328125.0693359375-.275390625.09228515625-.55078125.09228515625-.873046875v-1.9287109375Z" fill="#231f20" stroke-width="0"/>
          <path d="M373.428465807844987,558.060839713889436c-.73486328125.3671875-2.20458984375.734375-4.08740234375.734375-4.36328125,0-7.6474609375-2.755859375-7.6474609375-7.8310546875,0-4.8447265625,3.2841796875-8.12890625,8.08349609375-8.12890625,1.92919921875,0,3.14599609375.4130859375,3.67431640625.6884765625l-.482421875,1.630859375c-.7578125-.3671875-1.8369140625-.6435546875-3.123046875-.6435546875-3.62841796875,0-6.03955078125,2.3203125-6.03955078125,6.384765625,0,3.7890625,2.181640625,6.2236328125,5.94775390625,6.2236328125,1.21728515625,0,2.45703125-.2529296875,3.26123046875-.6435546875l.4130859375,1.5849609375Z" fill="#231f20" stroke-width="0"/>
        </g>
        <g>
          <path d="M231.182372057844987,551.308886588889436h-6.0166015625v5.580078125h6.70556640625v1.6767578125h-8.70361328125v-15.478515625h8.359375v1.6767578125h-6.361328125v4.8916015625h6.0166015625v1.6533203125Z" fill="#231f20" stroke-width="0"/>
          <path d="M235.020750964094987,547.450488151389436l2.181640625,6.2470703125c.36767578125,1.009765625.666015625,1.9287109375.89599609375,2.84765625h.06884765625c.25244140625-.9189453125.57373046875-1.837890625.94140625-2.84765625l2.15869140625-6.2470703125h2.11279296875l-4.36328125,11.115234375h-1.92919921875l-4.2255859375-11.115234375h2.15869140625Z" fill="#231f20" stroke-width="0"/>
          <path d="M246.184325182844987,553.375292838889436c.0458984375,2.7333984375,1.791015625,3.8583984375,3.81201171875,3.8583984375,1.44677734375,0,2.3193359375-.2529296875,3.0771484375-.57421875l.3447265625,1.447265625c-.7119140625.3212890625-1.92919921875.6884765625-3.697265625.6884765625-3.421875,0-5.4658203125-2.25-5.4658203125-5.603515625,0-3.3525390625,1.97509765625-5.9931640625,5.212890625-5.9931640625,3.62841796875,0,4.59326171875,3.19140625,4.59326171875,5.2353515625,0,.4140625-.04638671875.7353515625-.0693359375.94140625h-7.8076171875ZM252.109129870344987,551.929003776389436c.02294921875-1.2861328125-.5283203125-3.2841796875-2.8017578125-3.2841796875-2.0439453125,0-2.939453125,1.8837890625-3.10009765625,3.2841796875h5.90185546875Z" fill="#231f20" stroke-width="0"/>
          <path d="M256.567137682844987,550.459277213889436c0-1.1484375-.02294921875-2.08984375-.091796875-3.0087890625h1.79150390625l.11474609375,1.837890625h.0458984375c.55126953125-1.056640625,1.8369140625-2.08984375,3.67431640625-2.08984375,1.53857421875,0,3.9267578125.91796875,3.9267578125,4.73046875v6.63671875h-2.02099609375v-6.4072265625c0-1.791015625-.66552734375-3.2841796875-2.57177734375-3.2841796875-1.33203125,0-2.365234375.9423828125-2.7099609375,2.0673828125-.091796875.251953125-.1376953125.5966796875-.1376953125.94140625v6.6826171875h-2.02099609375v-8.1064453125Z" fill="#231f20" stroke-width="0"/>
          <path d="M276.758055651594987,553.697558463889436l-1.607421875,4.8681640625h-2.06689453125l5.2587890625-15.478515625h2.4111328125l5.28173828125,15.478515625h-2.1357421875l-1.6533203125-4.8681640625h-5.48828125ZM281.833250964094987,552.136035026389436l-1.515625-4.455078125c-.3447265625-1.0107421875-.57421875-1.9296875-.8037109375-2.8251953125h-.04638671875c-.2294921875.9189453125-.48193359375,1.8603515625-.78076171875,2.8017578125l-1.515625,4.478515625h4.662109375Z" fill="#231f20" stroke-width="0"/>
        </g>
      </g>
      <a xlink:href="https://www.notion.so/dmmnotes/comfortably-balanced-e76dc615a8b947aa915377cd02fcf716?pvs=4">
        <path id="B3" d="M300.000030561682252,146.420357182159933c7.504423630110068,0,14.874298250689208.562831772258505,22.092568353498791,1.589952380219984l5.52219456012881-38.410899636030081c-9.024258920848297-1.286743344660863-18.236128432465193-1.989809295870145-27.614762913627601-1.989809295870145s-18.590503992772938.703065951209283-27.614762913620325,1.989809295870145l5.522194560129719,38.410899636030081c7.220165159271346-1.027120607961479,14.588144723379628-1.589952380219984,22.092568353490606-1.589952380219984Z" fill="#268887" stroke="#000" stroke-linecap="round" stroke-linejoin="round" stroke-width="2"/>
      </a>
    </g>
    <circle cx="299.999961002170039" cy="301.663383388889542" r="176.41252978036843" fill="none" stroke="#000" stroke-linecap="round" stroke-linejoin="round" stroke-width="12"/>
  </g>
</svg>