<?xml version="1.0" encoding="UTF-8"?>
<svg id="Layer_1" data-name="Layer 1" xmlns="http://www.w3.org/2000/svg" xmlns:xlink="http://www.w3.org/1999/xlink" viewBox="0 0 600.000000000003638 600.000000000003638">
  <defs>
    <radialGradient id="radial-gradient" cx="-415.740499302635726" cy="552.038879182298842" fx="-415.740499302635726" fy="552.038879182298842" r="1164.630776817154356" gradientUnits="userSpaceOnUse">
      <stop offset="0" stop-color="#606161" stop-opacity=".600000023841858"/>
      <stop offset=".24811931720048" stop-color="rgba(96, 97, 97, .512047656878147)" stop-opacity=".512047656878147"/>
      <stop offset=".643447143033949" stop-color="rgba(96, 97, 97, .273139587438092)" stop-opacity=".273139587438092"/>
      <stop offset="1" stop-color="#606161" stop-opacity="0"/>
    </radialGradient>
    <symbol id="shadow" viewBox="0 0 600 600.00006103515625">
      <g>
        <rect x=".500244140625" y=".50030517578125" width="599" height="599" fill="url(#radial-gradient)" stroke-width="0"/>
        <path d="M599,1v598.00006103515625H1V1h598M600,0H0v600.00006103515625h600V0h0Z" fill="#000" stroke-width="0"/>
      </g>
    </symbol>
    <linearGradient id="linear-gradient" x1="8457.307566934940041" y1="2152.540734217400313" x2="8456.513619224590002" y2="2189.376184459794331" gradientTransform="translate(2439.505852879637587 8830.882187958226496) rotate(-89.999999999999844) scale(.999999989084481 -.999999989084481)" gradientUnits="userSpaceOnUse">
      <stop offset="0" stop-color="#010101"/>
      <stop offset=".47101448059082" stop-color="#2c2038"/>
      <stop offset="1" stop-color="#503078"/>
    </linearGradient>
    <linearGradient id="linear-gradient-2" x1="8458.19645411456986" y1="2152.532522615774724" x2="8458.19645411456986" y2="2195.568464693411443" gradientTransform="translate(2437.210705435216369 8830.722028332571426) rotate(-89.999999999999844) scale(.999999989084481 -.999999989084481)" gradientUnits="userSpaceOnUse">
      <stop offset="0" stop-color="#47444b"/>
      <stop offset="1" stop-color="#694f84"/>
    </linearGradient>
    <linearGradient id="linear-gradient-3" x1="1343.683770015606569" y1="-909.945967799552818" x2="1251.399301585810235" y2="-814.529829641173933" gradientTransform="translate(-782.025402055746895 1404.005057458246483) rotate(-11.607514898717529)" gradientUnits="userSpaceOnUse">
      <stop offset="0" stop-color="#a096ac"/>
      <stop offset="1" stop-color="#8f78a8"/>
    </linearGradient>
    <linearGradient id="linear-gradient-4" x1="1304.792142265034272" y1="-894.938461317221481" x2="1321.286099363273252" y2="-878.862046452356822" gradientTransform="translate(-782.025402055746895 1404.005057458246483) rotate(-11.607514898717529)" gradientUnits="userSpaceOnUse">
      <stop offset=".478306999206543" stop-color="#ac9fb7"/>
      <stop offset="1" stop-color="#ac9fb7" stop-opacity="0"/>
    </linearGradient>
    <linearGradient id="linear-gradient-5" x1="1216.761850888018671" y1="-795.101361560431542" x2="1216.761919667550956" y2="-766.405499744106919" gradientTransform="translate(-782.025402055746895 1404.005057458246483) rotate(-11.607514898717529)" gradientUnits="userSpaceOnUse">
      <stop offset="0" stop-color="#6765a8"/>
      <stop offset="1" stop-color="#66489d"/>
    </linearGradient>
    <radialGradient id="radial-gradient-2" cx="4182.525123333598458" cy="3455.217897693089981" fx="4182.525123333598458" fy="3455.217897693089981" r="6.681228160858154" gradientTransform="translate(-9148.468602766599361 -8544.369307136432326) rotate(33.392484815239349) scale(3.049400022606105 .662913016034182)" gradientUnits="userSpaceOnUse">
      <stop offset="0" stop-color="#746fb2"/>
      <stop offset="1" stop-color="#746fb2" stop-opacity="0"/>
    </radialGradient>
    <radialGradient id="radial-gradient-3" cx="4232.954818746598903" cy="-384.124822109311935" fx="4232.954818746598903" fy="-384.124822109311935" r="6.681228160852222" gradientTransform="translate(-16209.152326538060152 5002.618810377236514) rotate(-10.047325108682413) scale(4.017109670050212 4.323539479602872)" gradientUnits="userSpaceOnUse">
      <stop offset=".6953759765625" stop-color="#6d68a0" stop-opacity="0"/>
      <stop offset=".920466003417969" stop-color="#6d68a0"/>
    </radialGradient>
    <linearGradient id="linear-gradient-6" x1="1373.209235284448368" y1="-949.147964473588218" x2="1247.936005699744328" y2="-827.841692594254255" gradientTransform="translate(-782.025402055746895 1404.005057458246483) rotate(-11.607514898717529)" gradientUnits="userSpaceOnUse">
      <stop offset="0" stop-color="#dbd7e0"/>
      <stop offset="1" stop-color="#d9d3e0"/>
    </linearGradient>
    <linearGradient id="linear-gradient-7" x1="1318.531646957504563" y1="-881.225985931516334" x2="1315.974060107557989" y2="-883.940585576066155" gradientTransform="translate(-782.025402055746895 1404.005057458246483) rotate(-11.607514898717529)" gradientUnits="userSpaceOnUse">
      <stop offset="0" stop-color="#c8bfd2"/>
      <stop offset="1" stop-color="#c8bfd2" stop-opacity="0"/>
    </linearGradient>
    <linearGradient id="linear-gradient-8" x1="1285.01850629585897" y1="-824.512764493126269" x2="1269.881505864923611" y2="-823.468512331762668" gradientTransform="translate(-782.025402055746895 1404.005057458246483) rotate(-11.607514898717529)" gradientUnits="userSpaceOnUse">
      <stop offset=".25538501739502" stop-color="#42394a"/>
      <stop offset="1" stop-color="#42394a" stop-opacity="0"/>
    </linearGradient>
    <radialGradient id="radial-gradient-4" cx="6021.029252801819894" cy="-14.729357264404825" fx="6021.029252801819894" fy="-14.729357264404825" r="6.68122816086052" gradientTransform="translate(10025.088788160630429 -15229.459570175013141) rotate(122.562483820076849) scale(3.049720202088267 11.77449934164723)" gradientUnits="userSpaceOnUse">
      <stop offset=".508000030517578" stop-color="#4b3c5a"/>
      <stop offset=".819464950561523" stop-color="#4b3c5a" stop-opacity="0"/>
    </radialGradient>
    <radialGradient id="radial-gradient-5" cx="5671.232213584640704" cy="192.478878458552572" fx="5671.232213584640704" fy="192.478878458552572" r="6.681228160857864" gradientTransform="translate(11314.045240743729664 -21350.519325620873133) rotate(113.590484497936998) scale(4.283070183267712 7.417539600544584)" gradientUnits="userSpaceOnUse">
      <stop offset=".695607986450195" stop-color="#4b2f63" stop-opacity="0"/>
      <stop offset=".917913055419922" stop-color="#4b2f63"/>
    </radialGradient>
    <radialGradient id="radial-gradient-6" cx="5031.989099032954982" cy="2952.763976339208966" fx="5031.989099032954982" fy="2952.763976339208966" r="6.681228160857107" gradientTransform="translate(-7349.488100807577212 -28898.727444561125594) rotate(68.732597682279774) scale(5.959500568458712 1.191640134313628)" gradientUnits="userSpaceOnUse">
      <stop offset=".095358600616455" stop-color="#7a6991"/>
      <stop offset="1" stop-color="#7a6991" stop-opacity="0"/>
    </radialGradient>
    <linearGradient id="linear-gradient-9" x1="1234.906939858845362" y1="-838.719572016916572" x2="1278.126335971578101" y2="-795.500089578936922" gradientTransform="translate(-782.025402055746895 1404.005057458246483) rotate(-11.607514898717529)" gradientUnits="userSpaceOnUse">
      <stop offset="0" stop-color="#675080"/>
      <stop offset="1" stop-color="#544961"/>
    </linearGradient>
  </defs>
  <use width="600" height="600.00006103515625" transform="translate(-.000138057039294 -.000030517576306)" xlink:href="#shadow"/>
  <g id="pie_with_links_-3" data-name="pie (with links)">
    <g id="Pie">
      <g>
        <a xlink:href="https://www.notion.so/dmmnotes/paranoid-ae38b1e6af0c4dd08f61e0d8f6e9f05f?pvs=4">
          <path id="C8" d="M331.308105468759095,517.749511718753638l7.825683593739086,54.4306640625c26.439208984371362-3.767822265630457,51.645751953141371-11.3115234375,75.101318359371362-22.04296875l-22.832519531240905-49.996826171880457c-18.7666015625,8.572265625-38.93505859375,14.601318359380457-60.094482421869543,17.609130859380457Z" fill="none" stroke="#000" stroke-linecap="round" stroke-linejoin="round" stroke-width="7"/>
        </a>
        <a xlink:href="https://www.notion.so/dmmnotes/menacing-a5bd7149286344deba45ec15e759e579?pvs=4">
          <path id="C7" d="M391.402587890628638,500.140380859373181l22.832519531240905,49.996826171880457c23.989990234389552-10.975830078119543,46.116210937520009-25.287109375010914,65.803955078139552-42.36181640625l-35.972900390630457-41.515869140619543c-15.753417968759095,13.65869140625-33.459228515630457,25.104492187489086-52.66357421875,33.880859374989086Z" fill="none" stroke="#000" stroke-linecap="round" stroke-linejoin="round" stroke-width="7"/>
        </a>
        <a xlink:href="https://www.notion.so/dmmnotes/seductively-obsessed-with-rescue-6fb5a68f6d334bc29ccccc16d8a4e56e?pvs=4">
          <path id="C6" d="M444.066162109378638,466.259521484384095l35.972900390630457,41.515869140619543c19.762939453119543-17.141845703130457,37.047119140619543-37.041748046880457,51.267089843753638-59.125l-46.223632812514552-29.704833984369543c-11.373291015619543,17.673583984369543-25.201171874989086,33.598876953119543-41.016357421869543,47.31396484375Z" fill="none" stroke="#000" stroke-linecap="round" stroke-linejoin="round" stroke-width="7"/>
        </a>
        <a xlink:href="https://www.notion.so/dmmnotes/punitively-obsessed-with-revenge-33d2e77f37774316b42bccf4a60f9688?pvs=4">
          <path id="C5" d="M485.082519531248181,418.945556640634095l46.223632812514552,29.704833984369543c14.048095703130457-21.809326171880457,25.08837890625-45.71875,32.551513671869543-71.175048828130457l-52.754882812503638-15.490234375c-5.9619140625,20.377929687510914-14.789306640619543,39.509765625-26.020263671880457,56.960449218760914Z" fill="none" stroke="#000" stroke-linecap="round" stroke-linejoin="round" stroke-width="7"/>
        </a>
        <a xlink:href="https://www.notion.so/dmmnotes/feigned-helpless-e79a94b0498c4e109a681b7f3dcdb088?pvs=4">
          <path id="C4" d="M519.999999999998181,300.000000000003638c0,21.5380859375-3.142089843739086,42.321533203119543-8.897216796869543,61.985107421869543l52.754882812503638,15.490234375c7.2080078125-24.583496093739086,11.142333984371362-50.5634765625,11.142333984371362-77.475341796869543h-55.000000000005457Z" fill="none" stroke="#000" stroke-linecap="round" stroke-linejoin="round" stroke-width="7"/>
        </a>
        <a xlink:href="https://www.notion.so/dmmnotes/aggressive-2d8ccce383534b9dbfc7b4b10b8a5d5c?pvs=4">
          <path id="C3" d="M519.999999999998181,300.000000000003638h55.000000000005457c0-26.911865234389552-3.934326171871362-52.894531250010914-11.142333984371362-77.475341796889552l-52.754882812503638,15.490234375c5.755126953130457,19.663574218759095,8.897216796869543,40.449707031259095,8.897216796869543,61.985107421889552Z" fill="none" stroke="#000" stroke-linecap="round" stroke-linejoin="round" stroke-width="7"/>
        </a>
        <a xlink:href="https://www.notion.so/dmmnotes/disarming-086276e599884c86b9359acf831a8b20?pvs=4">
          <path id="C2" d="M511.102783203128638,238.014892578114086l52.754882812503638-15.490234375c-7.463134765619543-25.456298828119543-18.503417968739086-49.365722656239086-32.551513671869543-71.177734374989086l-46.223632812514552,29.70751953125c11.230957031260914,17.45068359375,20.055664062510914,36.585205078117724,26.020263671880457,56.960449218739086Z" fill="none" stroke="#000" stroke-linecap="round" stroke-linejoin="round" stroke-width="7"/>
        </a>
        <a xlink:href="https://www.notion.so/dmmnotes/threatening-348fe6a52f7a4fe69f768e98c6586932?pvs=4">
          <path id="C1" d="M485.082519531248181,181.054443359375l46.223632812514552-29.70751953125c-14.219970703134095-22.08056640625-31.504150390634095-41.980468750010914-51.267089843753638-59.122314453130457l-35.972900390630457,41.5185546875c15.815185546880457,13.71240234375,29.64306640625,29.637695312510914,41.016357421869543,47.311279296880457Z" fill="none" stroke="#000" stroke-linecap="round" stroke-linejoin="round" stroke-width="7"/>
        </a>
        <a xlink:href="https://www.notion.so/dmmnotes/complaining-acceptance-8b40401a720c493ba73f7cde1567cf3d?pvs=4">
          <path id="B5" d="M444.066162109378638,133.743164062494543l35.972900390630457-41.5185546875c-19.687744140619543-17.07470703125-41.81396484375-31.388671875-65.803955078139552-42.36181640625l-22.832519531240905,49.99951171875c19.204345703119543,8.773681640630457,36.910156249990905,20.22216796875,52.66357421875,33.880859375Z" fill="none" stroke="#000" stroke-linecap="round" stroke-linejoin="round" stroke-width="7"/>
        </a>
        <a xlink:href="https://www.notion.so/dmmnotes/sentimental-bc554363322342b1b7ca4ccc02125049?pvs=4">
          <path id="B4" d="M391.402587890628638,99.862304687494543l22.832519531240905-49.99951171875c-23.455566406229991-10.7314453125-48.662109375-18.275146484380457-75.101318359371362-22.042968749989086l-7.825683593739086,54.433349609369543c21.159423828119543,3.0078125,41.327880859369543,9.034179687489086,60.094482421869543,17.609130859369543Z" fill="none" stroke="#000" stroke-linecap="round" stroke-linejoin="round" stroke-width="7"/>
        </a>
        <a xlink:href="https://www.notion.so/dmmnotes/comfortably-balanced-e76dc615a8b947aa915377cd02fcf716?pvs=4">
          <path id="B3" d="M299.999999999998181,79.999999999994543c10.634765625,0,21.078857421871362.797607421880457,31.308105468760914,2.253173828130457l7.825683593739086-54.433349609369543c-12.788574218739086-1.823486328130457-25.843017578128638-2.819824218760914-39.1337890625-2.819824218760914-13.290771484369543,0-26.34521484375.996337890630457-39.133789062489086,2.819824218760914l7.825683593739086,54.433349609369543c10.23193359375-1.45556640625,20.67333984375-2.253173828130457,31.30810546875-2.253173828130457Z" fill="none" stroke="#000" stroke-linecap="round" stroke-linejoin="round" stroke-width="7"/>
        </a>
        <a xlink:href="https://www.notion.so/dmmnotes/accepting-317d81273fff4cd9817cdf4a88efd378?pvs=4">
          <path id="B2" d="M268.691894531248181,82.253173828125l-7.825683593739086-54.433349609369543c-26.439208984389552,3.767822265608629-51.643066406260914,11.311523437489086-75.098632812510914,22.042968749989086l22.83251953125,49.99951171875c18.7666015625-8.574951171880457,38.93505859375-14.601318359369543,60.091796875-17.609130859369543Z" fill="none" stroke="#000" stroke-linecap="round" stroke-linejoin="round" stroke-width="7"/>
        </a>
        <a xlink:href="https://www.notion.so/dmmnotes/distanced-from-past-2eabab7e9c77429f8e577f4e3e203653?pvs=4">
          <path id="B1" d="M208.600097656248181,99.862304687494543l-22.83251953125-49.99951171875c-23.99267578125,10.97314453125-46.1162109375,25.287109375-65.803955078119543,42.36181640625l35.972900390619543,41.515869140630457c15.75341796875-13.658691406260914,33.4619140625-25.1044921875,52.66357421875-33.878173828130457Z" fill="none" stroke="#000" stroke-linecap="round" stroke-linejoin="round" stroke-width="7"/>
        </a>
        <a xlink:href="https://www.notion.so/dmmnotes/idealising-a52277f51ed14a42aae78081bb34b8be?pvs=4">
          <path id="A1" d="M155.936523437498181,133.740478515625l-35.972900390619543-41.515869140630457c-19.765625,17.141845703119543-37.049804687509095,37.041748046880457-51.269775390630457,59.122314453130457l46.226318359371362,29.70751953125c11.373291015639552-17.673583984369543,25.201171875009095-33.598876953130457,41.016357421878638-47.31396484375Z" fill="none" stroke="#000" stroke-linecap="round" stroke-linejoin="round" stroke-width="7"/>
        </a>
        <a xlink:href="https://www.notion.so/dmmnotes/distancing-9ac690cdca654729a17a5a255944e2d1?pvs=4">
          <path id="A2" d="M114.920166015619543,181.054443359375l-46.226318359371362-29.70751953125c-14.04541015625,21.81201171875-25.08837890625,45.721435546869543-32.551513671878638,71.177734374989086l52.754882812509095,15.490234375c5.964599609369543-20.375244140621362,14.7919921875-39.509765624989086,26.022949218740905-56.960449218739086Z" fill="none" stroke="#000" stroke-linecap="round" stroke-linejoin="round" stroke-width="7"/>
        </a>
        <a xlink:href="https://www.notion.so/dmmnotes/compulsive-caregiving-9c380c0928294f41ae10764aa0dee886?pvs=4">
          <path id="A3" d="M88.897216796878638,238.014892578114086l-52.754882812509095-15.490234375c-7.205322265621362,24.580810546878638-11.142333984371362,50.5634765625-11.142333984371362,77.475341796889552h55c0-21.535400390630457,3.14208984375-42.321533203130457,8.897216796880457-61.985107421889552Z" fill="none" stroke="#000" stroke-linecap="round" stroke-linejoin="round" stroke-width="7"/>
        </a>
        <a xlink:href="https://www.notion.so/dmmnotes/compulsive-compliance-6d08b7ea9a424ce1a72b9184b7850414?pvs=4">
          <path id="A4" d="M79.999999999998181,300.000000000003638H24.999999999998181c0,26.911865234369543,3.93701171875,52.894531249989086,11.142333984371362,77.475341796869543l52.754882812509095-15.490234375c-5.755126953130457-19.66357421875-8.897216796880457-40.447021484369543-8.897216796880457-61.985107421869543Z" fill="none" stroke="#000" stroke-linecap="round" stroke-linejoin="round" stroke-width="7"/>
        </a>
        <a xlink:href="https://www.notion.so/dmmnotes/sexual-supplementation-8e85f49046ef412aa229745abf7d38d3?pvs=4">
          <path id="A5" d="M88.897216796878638,361.985107421873181l-52.754882812509095,15.490234375c7.463134765628638,25.456298828130457,18.506103515628638,49.36572265625,32.551513671878638,71.175048828130457l46.223632812510914-29.704833984369543c-11.230957031260914-17.450683593760914-20.055664062510914-36.58251953125-26.020263671880457-56.960449218760914Z" fill="none" stroke="#000" stroke-linecap="round" stroke-linejoin="round" stroke-width="7"/>
        </a>
        <a xlink:href="https://www.notion.so/dmmnotes/compulsive-isolated-self-reliance-b321873a73fa41aaaadd7192fde856a2?pvs=4">
          <path id="A6" d="M114.917480468759095,418.945556640634095l-46.223632812510914,29.704833984369543c14.219970703121362,22.083251953119543,31.504150390630457,41.983154296869543,51.269775390630457,59.125l35.972900390619543-41.515869140619543c-15.815185546869543-13.712402343760914-29.643066406239086-29.637695312510914-41.019042968739086-47.31396484375Z" fill="none" stroke="#000" stroke-linecap="round" stroke-linejoin="round" stroke-width="7"/>
        </a>
        <a xlink:href="https://www.notion.so/dmmnotes/delusional-idealization-743e2420b9994a48a7cab68190432e8a?pvs=4">
          <path id="A7" d="M155.936523437498181,466.259521484384095l-35.972900390619543,41.515869140619543c19.687744140619543,17.074707031239086,41.811279296869543,31.385986328130457,65.803955078119543,42.36181640625l22.83251953125-49.996826171880457c-19.20166015625-8.773681640619543-36.91015625-20.222167968739086-52.66357421875-33.880859374989086Z" fill="none" stroke="#000" stroke-linecap="round" stroke-linejoin="round" stroke-width="7"/>
        </a>
        <a xlink:href="https://www.notion.so/dmmnotes/externally-assembled-self-994ecb0895b844409b931d74a045c162?pvs=4">
          <path id="A8" d="M208.600097656248181,500.140380859373181l-22.83251953125,49.996826171880457c23.45556640625,10.7314453125,48.659423828121362,18.275146484369543,75.098632812510914,22.04296875l7.825683593739086-54.4306640625c-21.15673828125-3.0078125-41.3251953125-9.0341796875-60.091796875-17.609130859380457Z" fill="none" stroke="#000" stroke-linecap="round" stroke-linejoin="round" stroke-width="7"/>
        </a>
        <a xlink:href="https://www.notion.so/dmmnotes/psychopathy-0fe4a3222d9f4fd097ab4546c9776768?pvs=4">
          <path id="AC" d="M299.999999999998181,520.000000000003638c-10.634765625,0-21.076171875-.794921875-31.30810546875-2.25048828125l-7.825683593739086,54.4306640625c12.788574218739086,1.823486328130457,25.843017578119543,2.81982421875,39.133789062489086,2.81982421875,13.290771484371362,0,26.345214843760914-.996337890619543,39.1337890625-2.81982421875l-7.825683593739086-54.4306640625c-10.229248046889552,1.45556640625-20.673339843760914,2.25048828125-31.308105468760914,2.25048828125Z" fill="none" stroke="#000" stroke-linecap="round" stroke-linejoin="round" stroke-width="7"/>
        </a>
      </g>
      <g>
        <a xlink:href="https://www.notion.so/dmmnotes/paranoid-ae38b1e6af0c4dd08f61e0d8f6e9f05f?pvs=4">
          <path id="C8-2" data-name="C8" d="M331.308105468759095,517.749511718753638l7.825683593739086,54.4306640625c26.439208984371362-3.767822265630457,51.645751953141371-11.3115234375,75.101318359371362-22.04296875l-22.832519531240905-49.996826171880457c-18.7666015625,8.572265625-38.93505859375,14.601318359380457-60.094482421869543,17.609130859380457Z" fill="#8f807d" stroke="#000" stroke-linecap="round" stroke-linejoin="round" stroke-width="2"/>
        </a>
        <a xlink:href="https://www.notion.so/dmmnotes/menacing-a5bd7149286344deba45ec15e759e579?pvs=4">
          <path id="C7-2" data-name="C7" d="M391.402587890628638,500.140380859373181l22.832519531240905,49.996826171880457c23.989990234389552-10.975830078119543,46.116210937520009-25.287109375010914,65.803955078139552-42.36181640625l-35.972900390630457-41.515869140619543c-15.753417968759095,13.65869140625-33.459228515630457,25.104492187489086-52.66357421875,33.880859374989086Z" fill="#c78361" stroke="#000" stroke-linecap="round" stroke-linejoin="round" stroke-width="2"/>
        </a>
        <a xlink:href="https://www.notion.so/dmmnotes/seductively-obsessed-with-rescue-6fb5a68f6d334bc29ccccc16d8a4e56e?pvs=4">
          <path id="C6-2" data-name="C6" d="M444.066162109378638,466.259521484384095l35.972900390630457,41.515869140619543c19.762939453119543-17.141845703130457,37.047119140619543-37.041748046880457,51.267089843753638-59.125l-46.223632812514552-29.704833984369543c-11.373291015619543,17.673583984369543-25.201171874989086,33.598876953119543-41.016357421869543,47.31396484375Z" fill="#8f807d" stroke="#000" stroke-linecap="round" stroke-linejoin="round" stroke-width="2"/>
        </a>
        <a xlink:href="https://www.notion.so/dmmnotes/punitively-obsessed-with-revenge-33d2e77f37774316b42bccf4a60f9688?pvs=4">
          <path id="C5-2" data-name="C5" d="M485.082519531248181,418.945556640634095l46.223632812514552,29.704833984369543c14.048095703130457-21.809326171880457,25.08837890625-45.71875,32.551513671869543-71.175048828130457l-52.754882812503638-15.490234375c-5.9619140625,20.377929687510914-14.789306640619543,39.509765625-26.020263671880457,56.960449218760914Z" fill="#ac9156" stroke="#000" stroke-linecap="round" stroke-linejoin="round" stroke-width="2"/>
        </a>
        <a xlink:href="https://www.notion.so/dmmnotes/feigned-helpless-e79a94b0498c4e109a681b7f3dcdb088?pvs=4">
          <path id="C4-2" data-name="C4" d="M519.999999999998181,300.000000000003638c0,21.5380859375-3.142089843739086,42.321533203119543-8.897216796869543,61.985107421869543l52.754882812503638,15.490234375c7.2080078125-24.583496093739086,11.142333984371362-50.5634765625,11.142333984371362-77.475341796869543h-55.000000000005457Z" fill="#8f807d" stroke="#000" stroke-linecap="round" stroke-linejoin="round" stroke-width="2"/>
        </a>
        <a xlink:href="https://www.notion.so/dmmnotes/aggressive-2d8ccce383534b9dbfc7b4b10b8a5d5c?pvs=4">
          <path id="C3-2" data-name="C3" d="M519.999999999998181,300.000000000003638h55.000000000005457c0-26.911865234389552-3.934326171871362-52.894531250010914-11.142333984371362-77.475341796889552l-52.754882812503638,15.490234375c5.755126953130457,19.663574218759095,8.897216796869543,40.449707031259095,8.897216796869543,61.985107421889552Z" fill="#859658" stroke="#000" stroke-linecap="round" stroke-linejoin="round" stroke-width="2"/>
        </a>
        <a xlink:href="https://www.notion.so/dmmnotes/disarming-086276e599884c86b9359acf831a8b20?pvs=4">
          <path id="C2-2" data-name="C2" d="M511.102783203128638,238.014892578114086l52.754882812503638-15.490234375c-7.463134765619543-25.456298828119543-18.503417968739086-49.365722656239086-32.551513671869543-71.177734374989086l-46.223632812514552,29.70751953125c11.230957031260914,17.45068359375,20.055664062510914,36.585205078117724,26.020263671880457,56.960449218739086Z" fill="#8f807d" stroke="#000" stroke-linecap="round" stroke-linejoin="round" stroke-width="2"/>
        </a>
        <a xlink:href="https://www.notion.so/dmmnotes/threatening-348fe6a52f7a4fe69f768e98c6586932?pvs=4">
          <path id="C1-2" data-name="C1" d="M485.082519531248181,181.054443359375l46.223632812514552-29.70751953125c-14.219970703134095-22.08056640625-31.504150390634095-41.980468750010914-51.267089843753638-59.122314453130457l-35.972900390630457,41.5185546875c15.815185546880457,13.71240234375,29.64306640625,29.637695312510914,41.016357421869543,47.311279296880457Z" fill="#589569" stroke="#000" stroke-linecap="round" stroke-linejoin="round" stroke-width="2"/>
        </a>
        <a xlink:href="https://www.notion.so/dmmnotes/complaining-acceptance-8b40401a720c493ba73f7cde1567cf3d?pvs=4">
          <path id="B5-2" data-name="B5" d="M444.066162109378638,133.743164062494543l35.972900390630457-41.5185546875c-19.687744140619543-17.07470703125-41.81396484375-31.388671875-65.803955078139552-42.36181640625l-22.832519531240905,49.99951171875c19.204345703119543,8.773681640630457,36.910156249990905,20.22216796875,52.66357421875,33.880859375Z" fill="#3d9174" stroke="#000" stroke-linecap="round" stroke-linejoin="round" stroke-width="2"/>
        </a>
        <a xlink:href="https://www.notion.so/dmmnotes/sentimental-bc554363322342b1b7ca4ccc02125049?pvs=4">
          <path id="B4-2" data-name="B4" d="M391.402587890628638,99.862304687494543l22.832519531240905-49.99951171875c-23.455566406229991-10.7314453125-48.662109375-18.275146484380457-75.101318359371362-22.042968749989086l-7.825683593739086,54.433349609369543c21.159423828119543,3.0078125,41.327880859369543,9.034179687489086,60.094482421869543,17.609130859369543Z" fill="#8f807d" stroke="#000" stroke-linecap="round" stroke-linejoin="round" stroke-width="2"/>
        </a>
        <a xlink:href="https://www.notion.so/dmmnotes/comfortably-balanced-e76dc615a8b947aa915377cd02fcf716?pvs=4">
          <path id="B3-2" data-name="B3" d="M299.999999999998181,79.999999999994543c10.634765625,0,21.078857421871362.797607421880457,31.308105468760914,2.253173828130457l7.825683593739086-54.433349609369543c-12.788574218739086-1.823486328130457-25.843017578128638-2.819824218760914-39.1337890625-2.819824218760914-13.290771484369543,0-26.34521484375.996337890630457-39.133789062489086,2.819824218760914l7.825683593739086,54.433349609369543c10.23193359375-1.45556640625,20.67333984375-2.253173828130457,31.30810546875-2.253173828130457Z" fill="#8f807d" stroke="#000" stroke-linecap="round" stroke-linejoin="round" stroke-width="2"/>
        </a>
        <a xlink:href="https://www.notion.so/dmmnotes/accepting-317d81273fff4cd9817cdf4a88efd378?pvs=4">
          <path id="B2-2" data-name="B2" d="M268.691894531248181,82.253173828125l-7.825683593739086-54.433349609369543c-26.439208984389552,3.767822265608629-51.643066406260914,11.311523437489086-75.098632812510914,22.042968749989086l22.83251953125,49.99951171875c18.7666015625-8.574951171880457,38.93505859375-14.601318359369543,60.091796875-17.609130859369543Z" fill="#8f807d" stroke="#000" stroke-linecap="round" stroke-linejoin="round" stroke-width="2"/>
        </a>
        <a xlink:href="https://www.notion.so/dmmnotes/distanced-from-past-2eabab7e9c77429f8e577f4e3e203653?pvs=4">
          <path id="B1-2" data-name="B1" d="M208.600097656248181,99.862304687494543l-22.83251953125-49.99951171875c-23.99267578125,10.97314453125-46.1162109375,25.287109375-65.803955078119543,42.36181640625l35.972900390619543,41.515869140630457c15.75341796875-13.658691406260914,33.4619140625-25.1044921875,52.66357421875-33.878173828130457Z" fill="#8f807d" stroke="#000" stroke-linecap="round" stroke-linejoin="round" stroke-width="2"/>
        </a>
        <a xlink:href="https://www.notion.so/dmmnotes/idealising-a52277f51ed14a42aae78081bb34b8be?pvs=4">
          <path id="A1-2" data-name="A1" d="M155.936523437498181,133.740478515625l-35.972900390619543-41.515869140630457c-19.765625,17.141845703119543-37.049804687509095,37.041748046880457-51.269775390630457,59.122314453130457l46.226318359371362,29.70751953125c11.373291015639552-17.673583984369543,25.201171875009095-33.598876953130457,41.016357421878638-47.31396484375Z" fill="#8f807d" stroke="#000" stroke-linecap="round" stroke-linejoin="round" stroke-width="2"/>
        </a>
        <a xlink:href="https://www.notion.so/dmmnotes/distancing-9ac690cdca654729a17a5a255944e2d1?pvs=4">
          <path id="A2-2" data-name="A2" d="M114.920166015619543,181.054443359375l-46.226318359371362-29.70751953125c-14.04541015625,21.81201171875-25.08837890625,45.721435546869543-32.551513671878638,71.177734374989086l52.754882812509095,15.490234375c5.964599609369543-20.375244140621362,14.7919921875-39.509765624989086,26.022949218740905-56.960449218739086Z" fill="#8f807d" stroke="#000" stroke-linecap="round" stroke-linejoin="round" stroke-width="2"/>
        </a>
        <a xlink:href="https://www.notion.so/dmmnotes/compulsive-caregiving-9c380c0928294f41ae10764aa0dee886?pvs=4">
          <path id="A3-2" data-name="A3" d="M88.897216796878638,238.014892578114086l-52.754882812509095-15.490234375c-7.205322265621362,24.580810546878638-11.142333984371362,50.5634765625-11.142333984371362,77.475341796889552h55c0-21.535400390630457,3.14208984375-42.321533203130457,8.897216796880457-61.985107421889552Z" fill="#8f807d" stroke="#000" stroke-linecap="round" stroke-linejoin="round" stroke-width="2"/>
        </a>
        <a xlink:href="https://www.notion.so/dmmnotes/compulsive-compliance-6d08b7ea9a424ce1a72b9184b7850414?pvs=4">
          <path id="A4-2" data-name="A4" d="M79.999999999998181,300.000000000003638H24.999999999998181c0,26.911865234369543,3.93701171875,52.894531249989086,11.142333984371362,77.475341796869543l52.754882812509095-15.490234375c-5.755126953130457-19.66357421875-8.897216796880457-40.447021484369543-8.897216796880457-61.985107421869543Z" fill="#8f807d" stroke="#000" stroke-linecap="round" stroke-linejoin="round" stroke-width="2"/>
        </a>
        <a xlink:href="https://www.notion.so/dmmnotes/sexual-supplementation-8e85f49046ef412aa229745abf7d38d3?pvs=4">
          <path id="A5-2" data-name="A5" d="M88.897216796878638,361.985107421873181l-52.754882812509095,15.490234375c7.463134765628638,25.456298828130457,18.506103515628638,49.36572265625,32.551513671878638,71.175048828130457l46.223632812510914-29.704833984369543c-11.230957031260914-17.450683593760914-20.055664062510914-36.58251953125-26.020263671880457-56.960449218760914Z" fill="#8f807d" stroke="#000" stroke-linecap="round" stroke-linejoin="round" stroke-width="2"/>
        </a>
        <a xlink:href="https://www.notion.so/dmmnotes/compulsive-isolated-self-reliance-b321873a73fa41aaaadd7192fde856a2?pvs=4">
          <path id="A6-2" data-name="A6" d="M114.917480468759095,418.945556640634095l-46.223632812510914,29.704833984369543c14.219970703121362,22.083251953119543,31.504150390630457,41.983154296869543,51.269775390630457,59.125l35.972900390619543-41.515869140619543c-15.815185546869543-13.712402343760914-29.643066406239086-29.637695312510914-41.019042968739086-47.31396484375Z" fill="#8f807d" stroke="#000" stroke-linecap="round" stroke-linejoin="round" stroke-width="2"/>
        </a>
        <a xlink:href="https://www.notion.so/dmmnotes/delusional-idealization-743e2420b9994a48a7cab68190432e8a?pvs=4">
          <path id="A7-2" data-name="A7" d="M155.936523437498181,466.259521484384095l-35.972900390619543,41.515869140619543c19.687744140619543,17.074707031239086,41.811279296869543,31.385986328130457,65.803955078119543,42.36181640625l22.83251953125-49.996826171880457c-19.20166015625-8.773681640619543-36.91015625-20.222167968739086-52.66357421875-33.880859374989086Z" fill="#8f807d" stroke="#000" stroke-linecap="round" stroke-linejoin="round" stroke-width="2"/>
        </a>
        <a xlink:href="https://www.notion.so/dmmnotes/externally-assembled-self-994ecb0895b844409b931d74a045c162?pvs=4">
          <path id="A8-2" data-name="A8" d="M208.600097656248181,500.140380859373181l-22.83251953125,49.996826171880457c23.45556640625,10.7314453125,48.659423828121362,18.275146484369543,75.098632812510914,22.04296875l7.825683593739086-54.4306640625c-21.15673828125-3.0078125-41.3251953125-9.0341796875-60.091796875-17.609130859380457Z" fill="#8f807d" stroke="#000" stroke-linecap="round" stroke-linejoin="round" stroke-width="2"/>
        </a>
        <a xlink:href="https://www.notion.so/dmmnotes/psychopathy-0fe4a3222d9f4fd097ab4546c9776768?pvs=4">
          <path id="AC-2" data-name="AC" d="M299.999999999998181,520.000000000003638c-10.634765625,0-21.076171875-.794921875-31.30810546875-2.25048828125l-7.825683593739086,54.4306640625c12.788574218739086,1.823486328130457,25.843017578119543,2.81982421875,39.133789062489086,2.81982421875,13.290771484371362,0,26.345214843760914-.996337890619543,39.1337890625-2.81982421875l-7.825683593739086-54.4306640625c-10.229248046889552,1.45556640625-20.673339843760914,2.25048828125-31.308105468760914,2.25048828125Z" fill="#8f807d" stroke="#000" stroke-linecap="round" stroke-linejoin="round" stroke-width="2"/>
        </a>
      </g>
    </g>
  </g>
  <g>
    <g>
      <path d="M459.136185666347956,147.721721892659843c-21.3751220703125,14.09942626953125-52.69757080078125-6.5008544921875-42.69390869140625-31.46148681640625" fill="none" stroke="#494342" stroke-miterlimit="10" stroke-width="7"/>
      <g>
        <path d="M449.051835080410456,138.910320525472343c5.07720947265625-5.19873046875,13.4100341796875-5.29736328125,18.60870361328125-.22027587890625,5.19873046875,5.07708740234375,5.29730224609375,13.409912109375.22015380859375,18.60870361328125-5.0770263671875,5.1986083984375-13.40985107421875,5.29718017578125-18.6085205078125.2200927734375-5.19873046875-5.07708740234375-5.29736328125-13.40985107421875-.2203369140625-18.6085205078125Z" fill="#fff" stroke-width="0"/>
        <path d="M447.799881955410456,137.687664275472343c-5.74334716796875,5.880859375-5.63134765625,15.33978271484375.24957275390625,21.08319091796875,5.88092041015625,5.74334716796875,15.33990478515625,5.6314697265625,21.08319091796875-.2493896484375,5.74359130859375-5.881103515625,5.63153076171875-15.34002685546875-.2493896484375-21.0833740234375-5.88092041015625-5.743408203125-15.33984375-5.631591796875-21.0833740234375.24957275390625-5.74334716796875,5.880859375,5.7435302734375-5.88116455078125,0,0ZM466.628678342129206,156.076030974691093c-4.39642333984375,4.501708984375-11.63201904296875,4.58734130859375-16.1337890625.19085693359375-4.5018310546875-4.39654541015625-4.58746337890625-11.63214111328125-.1910400390625-16.13385009765625,4.3966064453125-4.50189208984375,11.6322021484375-4.58746337890625,16.13397216796875-.19097900390625,4.5018310546875,4.396484375,4.58746337890625,11.632080078125.19085693359375,16.13397216796875-4.39642333984375,4.501708984375,4.3966064453125-4.50189208984375,0,0Z" fill="#494342" stroke-width="0"/>
      </g>
      <g>
        <path d="M427.226517697597956,124.107097869222343c3.9462890625-6.101806640625,2.19842529296875-14.24981689453125-3.9033203125-18.196044921875-6.1016845703125-3.94622802734375-14.24969482421875-2.1983642578125-18.19598388671875,3.9034423828125-3.9461669921875,6.10162353515625-2.1982421875,14.24957275390625,3.9034423828125,18.19580078125s14.24969482421875,2.1983642578125,18.19586181640625-3.9031982421875Z" fill="#fff" stroke-width="0"/>
        <path d="M428.696000119472956,125.057415252034843c-4.46405029296875,6.90234375-13.7132568359375,8.886474609375-20.61572265625,4.42236328125-6.90240478515625-4.464111328125-8.8865966796875-13.71331787109375-4.42254638671875-20.61566162109375,4.4642333984375-6.90264892578125,13.71343994140625-8.88665771484375,20.6158447265625-4.42254638671875,6.9024658203125,4.464111328125,8.88665771484375,13.7132568359375,4.42242431640625,20.6158447265625-4.46405029296875,6.90234375,4.4642333984375-6.902587890625,0,0ZM406.596695920254206,110.764873748128593c-3.41717529296875,5.28363037109375-1.8994140625,12.3587646484375,3.38433837890625,15.7760009765625,5.28369140625,3.417236328125,12.35888671875,1.89947509765625,15.77606201171875-3.3841552734375,3.41729736328125-5.28387451171875,1.89947509765625-12.3590087890625-3.38421630859375-15.7762451171875-5.28375244140625-3.41717529296875-12.35888671875-1.89947509765625-15.77618408203125,3.3843994140625-3.41717529296875,5.28363037109375,3.41729736328125-5.28387451171875,0,0Z" fill="#494342" stroke-width="0"/>
      </g>
    </g>
    <g>
      <path d="M514.016617795254206,260.738140349692912c-53.7554931640625,10.490234375-73.4349365234375-58.648681640626819-40.2423095703125-96.022460937501819" fill="none" stroke="#494342" stroke-miterlimit="10" stroke-width="7"/>
      <g>
        <circle cx="513.265778561855768" cy="260.816692595783934" r="13.159162796217844" transform="translate(240.491542958876551 767.828845281024769) rotate(-88.657061255536192)" fill="#fff" stroke-width="0"/>
        <path d="M509.078568478847956,246.50754952938405c-7.8892822265625,2.30859375-12.43048095703125,10.60693359375-10.12188720703125,18.496215820308862,2.30859375,7.889404296871362,10.60687255859375,12.4306640625,18.49615478515625,10.1220703125,7.8896484375-2.30859375,12.43072509765625-10.60693359375,10.12213134765625-18.496337890628638-2.30859375-7.889282226560681-10.60675048828125-12.430541992180224-18.49639892578125-10.121948242180224-7.8892822265625,2.30859375,7.8896484375-2.30859375,0,0ZM516.46990099384675,271.766704802814274c-6.039098628280044,1.767211914069776-12.386876948592544-1.706665039060681-14.154088862655044-7.745849609371362-1.76715087890625-6.039184570308862,1.70660400390625-12.386962890628638,7.7457275390625-14.154174804689319,6.03936767578125-1.767211914060681,12.3870849609375,1.70654296875,14.154296875,7.745849609380457,1.7672119140625,6.039184570308862-1.70654296875,12.386962890619543-7.745935551407456,14.154174804680224-6.039098628280044,1.767211914069776,6.039392582657456-1.767211914060681,0,0Z" fill="#494342" stroke-width="0"/>
      </g>
      <g>
        <path d="M482.189469357754206,175.038372283284843c5.366943359375-4.89910888671875,5.74639892578125-13.22381591796875.847412109375-18.5906982421875s-13.2237548828125-5.746337890625-18.5906982421875-.84722900390625c-5.3668212890625,4.89886474609375-5.7462158203125,13.2236328125-.84722900390625,18.59051513671875s13.22369384765625,5.74627685546875,18.59051513671875.847412109375Z" fill="#fff" stroke-width="0"/>
        <path d="M483.369278928066706,176.330852752034843c-6.07110595703125,5.54180908203125-15.52093505859375,5.111083984375-21.06280517578125-.9600830078125-5.5418701171875-6.07122802734375-5.1112060546875-15.52105712890625.95989990234375-21.0628662109375,6.07135009765625-5.54205322265625,15.5211181640625-5.1112060546875,21.06298828125.9599609375s5.11126708984375,15.52093505859375-.9600830078125,21.06298828125c-6.07110595703125,5.54180908203125,6.07135009765625-5.54205322265625,0,0ZM465.625992795254206,156.892925505941093c-4.6473388671875,4.2421875-4.976806640625,11.47076416015625-.73455810546875,16.11822509765625,4.24224853515625,4.64739990234375,11.47088623046875,4.97686767578125,16.11822509765625.73468017578125,4.6475830078125-4.24237060546875,4.97698974609375-11.470947265625.7347412109375-16.11834716796875-4.2423095703125-4.64739990234375-11.47088623046875-4.9769287109375-16.118408203125-.73455810546875-4.6473388671875,4.2421875,4.64752197265625-4.24237060546875,0,0Z" fill="#494342" stroke-width="0"/>
      </g>
    </g>
    <g>
      <path d="M500.449601193691706,379.576030974692912c-35.660888671875-27.0615234375-26.767822265625-94.699584960939319,17.7166748046875-102.131225585939319" fill="none" stroke="#494342" stroke-miterlimit="10" stroke-width="7"/>
      <g>
        <path d="M506.407303830410456,367.67454171688405c6.30645751953125,3.610107421869543,8.4930419921875,11.651611328119543,4.88299560546875,17.9580078125-3.61004638671875,6.306396484369543-11.6514892578125,8.492919921869543-17.9580078125,4.8828125-6.30633544921875-3.609985351569776-8.49285888671875-11.6513671875-4.8828125-17.957763671880457,3.61004638671875-6.306518554689319,11.6514892578125-8.493041992189319,17.95782470703125-4.883056640619543Z" fill="#fff" stroke-width="0"/>
        <path d="M507.276688596035456,366.155864959064274c-7.13397216796875-4.083740234371362-16.26214599609375-1.601684570310681-20.345947265625,5.532348632819776-4.08380126953125,7.134033203119543-1.601806640625,16.26220703125,5.53216552734375,20.345947265619543,7.13421630859375,4.083862304689319,16.2623291015625,1.601806640630457,20.34613037109375-5.5322265625,4.08380126953125-7.134033203119543,1.60186767578125-16.26220703125-5.5323486328125-20.346069335939319-7.13397216796875-4.083740234371362,7.13421630859375,4.083862304689319,0,0ZM494.201676389004206,388.996685271564274c-5.4609375-3.126098632810681-7.3594970703125-10.108764648430224-4.2333984375-15.569702148430224,3.1260986328125-5.461059570319776,10.108642578125-7.359741210941138,15.569580078125-4.233642578130457,5.461181640625,3.126220703130457,7.3597412109375,10.108764648439319,4.233642578125,15.56982421875-3.1260986328125,5.4609375-10.108642578125,7.359619140630457-15.56982421875,4.233520507810681-5.4609375-3.126098632810681,5.461181640625,3.126098632819776,0,0Z" fill="#494342" stroke-width="0"/>
      </g>
      <g>
        <path d="M517.902726193691706,290.772075896564274c7.26226806640625-.255126953121362,12.944396972661707-6.350952148430224,12.689331054691138-13.613037109371362-.255065917972388-7.262084960939319-6.350891113284888-12.944213867189319-13.613098144534888-12.689208984378638-7.26202392578125.255126953128638-12.94415283203125,6.350952148439319-12.6890869140625,13.613037109378638s6.35089111328125,12.944213867191138,13.61285400390625,12.689208984371362Z" fill="#fff" stroke-width="0"/>
        <path d="M517.964188596035456,292.520977263753593c-8.21502685546875.28857421875-15.1346435546875-6.161499023439319-15.4232177734375-14.376708984369543-.28851318359375-8.215087890630457,6.1614990234375-15.134765625,14.37652587890625-15.42333984375,8.21539306640625-.288452148441138,15.13494873046875,6.16162109375,15.423461914058862,14.376708984369543.288513183599207,8.215087890630457-6.161376953121362,15.134765625-14.376770019527612,15.42333984375-8.21502685546875.28857421875,8.21539306640625-.28857421875,0,0ZM517.040360471035456,266.218853240314274c-6.2884521484375.220825195319776-11.222412109375,5.514038085939319-11.00152587890625,11.802612304689319s5.51397705078125,11.222534179689319,11.802490234375,11.001708984380457c6.28875732421875-.220947265630457,11.22265625-5.514038085941138,11.00177001953125-11.802734375-.2208251953125-6.28857421875-5.51397705078125-11.222534179691138-11.802734375-11.001586914069776-6.2884521484375.220825195319776,6.28875732421875-.220947265621362,0,0Z" fill="#494342" stroke-width="0"/>
      </g>
    </g>
    <g>
      <path d="M419.245011349941706,485.541485076253593c-19.98486328125-44.251098632810681,31.9957275390625-97.317016601560681,73.25836181640625-85.493041992189319" fill="none" stroke="#494342" stroke-miterlimit="10" stroke-width="7"/>
      <g>
        <path d="M430.179764767910456,477.986309295003593c3.791015625,6.199462890630457,1.83807373046875,14.30078125-4.36126708984375,18.091674804689319-6.1993408203125,3.791015625-14.3006591796875,1.838012695310681-18.09173583984375-4.361328125-3.7908935546875-6.199340820308862-1.837890625-14.300537109378638,4.3614501953125-18.091552734378638s14.30059814453125-1.838012695310681,18.091552734375,4.361206054689319Z" fill="#fff" stroke-width="0"/>
        <path d="M431.672745724941706,477.073345427814274c-4.2884521484375-7.012817382810681-13.484619140625-9.229736328121362-20.49749755859375-4.941284179680224-7.012939453125,4.28857421875-9.2298583984375,13.484741210930224-4.94146728515625,20.49755859375,4.28863525390625,7.013061523430224,13.48480224609375,9.229858398430224,20.4976806640625,4.94140625,7.01287841796875-4.288452148441138,9.22991943359375-13.484619140630457,4.9412841796875-20.497680664069776-4.2884521484375-7.012817382810681,4.28863525390625,7.013061523439319,0,0ZM409.219742795254206,490.803570037192912c-3.28271484375-5.3681640625-1.58685302734375-12.402709960939319,3.78143310546875-15.685546875,5.3682861328125-3.28271484375,12.40289306640625-1.5869140625,15.68560791015625,3.78125,3.28289794921875,5.368408203121362,1.5870361328125,12.402954101560681-3.78125,15.685791015621362-5.36834716796875,3.28271484375-12.40289306640625,1.587036132819776-15.685791015625-3.781494140621362-3.28271484375-5.3681640625,3.28289794921875,5.368530273441138,0,0Z" fill="#494342" stroke-width="0"/>
      </g>
      <g>
        <path d="M486.198380490566706,411.769878630942912c6.5831298828125,3.076904296871362,14.41650390625.233642578121362,17.49334716796875-6.349365234378638,3.07684326171875-6.583129882810681.233642578125-14.416381835930224-6.3494873046875-17.493286132810681-6.58294677734375-3.076904296869543-14.416259765625-.233642578119543-17.49310302734375,6.349365234380457-3.076904296875,6.583129882808862-.23370361328125,14.416381835930224,6.3492431640625,17.493286132808862Z" fill="#fff" stroke-width="0"/>
        <path d="M485.457413693691706,413.35520577938405c-7.44683837890625-3.480590820319776-10.67431640625-12.372680664069776-7.19366455078125-19.819580078130457s12.37261962890625-10.674438476560681,19.8194580078125-7.19384765625c7.44720458984375,3.480712890630457,10.674560546875,12.372802734380457,7.19390869140625,19.819702148439319s-12.37255859375,10.674438476560681-19.8197021484375,7.193725585941138c-7.44683837890625-3.480590820319776,7.4471435546875,3.480712890619543,0,0ZM496.601273556972956,389.512554412192912c-5.70050048828125-2.664306640628638-12.50238037109375-.195434570308862-15.16680908203125,5.505126953121362-2.66436767578125,5.700439453128638-.195556640625,12.50244140625,5.50494384765625,15.166748046878638,5.70068359375,2.664428710941138,12.5025634765625.195556640621362,15.16693115234375-5.505004882808862,2.6644287109375-5.700439453130457.19561767578125-12.50244140625-5.50506591796875-15.166870117191138-5.70050048828125-2.664306640628638,5.70068359375,2.664428710941138,0,0Z" fill="#494342" stroke-width="0"/>
      </g>
    </g>
  </g>
  <g id="pie_with_links_-5" data-name="pie (with links)">
    <g id="pie_with_links_-6" data-name="pie (with links)">
      <g id="_invulnerable_affects" data-name="_invulnerable affects">
        <a xlink:href="https://www.notion.so/dmmnotes/invulnerable-affects-ca8389f84b7649c4b34eb0026e4ebdbc?pvs=4">
          <g>
            <g>
              <rect x="243.93802250357362" y="365.095593402988357" width="43.035941607876794" height="17.885452075279545" transform="translate(-192.935445038465559 389.812920670234064) rotate(-56.607514986389582)" fill="none" stroke="#010101" stroke-linecap="round" stroke-linejoin="round" stroke-width="22.999999748943054"/>
              <rect x="241.642264707596325" y="370.163522099171246" width="43.035941607877589" height="4.724288888862873" transform="translate(-192.70473953524629 387.216014185488973) rotate(-56.607514986389582)" fill="none" stroke="#010101" stroke-linecap="round" stroke-linejoin="round" stroke-width="22.999999748943054"/>
              <g>
                <path d="M387.532762527467639,222.21044653478566c1.951705932617188-2.9605712890625,2.646316528320312-6.575340270996094,1.931549072265625-10.048480987548828l-3.361526489257812-16.331985473632812c-.446502685546875-2.167102813720703-2.563919067382812-3.563055038452148-4.731674194335938-3.118738174438477l-16.334762573242188,3.348047256469727c-3.4735107421875.7119140625-6.522064208984375,2.775508880615234-8.473114013671875,5.735946655273438l-94.456092834472656,143.290306091308594,30.970359802246094,20.415252685546875,94.45526123046875-143.290348052978516Z" fill="none" stroke="#010101" stroke-linecap="round" stroke-linejoin="round" stroke-width="23"/>
                <path d="M387.532762527467639,222.21044653478566c1.951705932617188-2.9605712890625,2.646316528320312-6.575340270996094,1.931549072265625-10.048480987548828l-3.361526489257812-16.331985473632812c-.446502685546875-2.167102813720703-2.563919067382812-3.563055038452148-4.731674194335938-3.118738174438477l-16.334762573242188,3.348047256469727c-3.4735107421875.7119140625-6.522064208984375,2.775508880615234-8.473114013671875,5.735946655273438l-94.456092834472656,143.290306091308594,30.970359802246094,20.415252685546875,94.45526123046875-143.290348052978516Z" fill="none" stroke="#010101" stroke-linecap="round" stroke-linejoin="round" stroke-width="23"/>
              </g>
              <g>
                <path d="M267.456560134889514,403.362458406123551c2.7093505859375-4.110107421875,1.573814392089844-9.638336181640625-2.536300659179688-12.347671508789062l-14.853736877441406-9.791671752929688c-4.110115051269531-2.7093505859375-9.638397216796875-1.57379150390625-12.347740173339844,2.53631591796875-2.7093505859375,4.110107421875-1.573814392089844,9.638320922851562,2.536300659179688,12.347671508789062l14.853675842285156,9.79168701171875c4.110176086425781,2.709335327148438,9.638389587402344,1.57379150390625,12.347801208496094-2.536331176757812Z" fill="none" stroke="#010101" stroke-linecap="round" stroke-linejoin="round" stroke-width="23"/>
                <path d="M267.456560134889514,403.362458406123551c2.7093505859375-4.110107421875,1.573814392089844-9.638336181640625-2.536300659179688-12.347671508789062l-14.853736877441406-9.791671752929688c-4.110115051269531-2.7093505859375-9.638397216796875-1.57379150390625-12.347740173339844,2.53631591796875-2.7093505859375,4.110107421875-1.573814392089844,9.638320922851562,2.536300659179688,12.347671508789062l14.853675842285156,9.79168701171875c4.110176086425781,2.709335327148438,9.638389587402344,1.57379150390625,12.347801208496094-2.536331176757812Z" fill="none" stroke="#010101" stroke-linecap="round" stroke-linejoin="round" stroke-width="23"/>
              </g>
              <path d="M267.456560134889514,403.362458406123551c2.7093505859375-4.110107421875,1.573814392089844-9.638336181640625-2.536300659179688-12.347671508789062l-14.853736877441406-9.791671752929688c-4.110115051269531-2.7093505859375-9.638397216796875-1.57379150390625-12.347740173339844,2.53631591796875-2.7093505859375,4.110107421875-1.573814392089844,9.638320922851562,2.536300659179688,12.347671508789062l14.853675842285156,9.79168701171875c4.110176086425781,2.709335327148438,9.638389587402344,1.57379150390625,12.347801208496094-2.536331176757812Z" fill="none" stroke="#010101" stroke-linecap="round" stroke-linejoin="round" stroke-width="23"/>
              <g>
                <path d="M384.458345413209827,193.343026338252457c-.868331909179688-.601314544677734-1.971282958984375-.860532760620117-3.087875366210938-.63165283203125l-16.3341064453125,3.347915649414062c-3.47418212890625.712051391601562-6.522064208984375,2.775508880615234-8.4737548828125,5.736080169677734l-94.456031799316406,143.290294647216797,15.562156677246094,10.258651733398438,106.78961181640625-162.001289367675781Z" fill="none" stroke="#010101" stroke-linecap="round" stroke-linejoin="round" stroke-width="23"/>
                <path d="M384.458345413209827,193.343026338252457c-.868331909179688-.601314544677734-1.971282958984375-.860532760620117-3.087875366210938-.63165283203125l-16.3341064453125,3.347915649414062c-3.47418212890625.712051391601562-6.522064208984375,2.775508880615234-8.4737548828125,5.736080169677734l-94.456031799316406,143.290294647216797,15.562156677246094,10.258651733398438,106.78961181640625-162.001289367675781Z" fill="none" stroke="#010101" stroke-linecap="round" stroke-linejoin="round" stroke-width="23"/>
              </g>
              <path d="M318.008897781373889,364.954362092646988c.19049072265625.9273681640625-.291946411132812,1.8660888671875-1.171844482421875,2.214614868164062-2.566864013671875,1.018341064453125-5.258636474609375,1.8270263671875-8.057754516601562,2.4019775390625-25.8602294921875,5.311874389648438-51.130462646484375-11.34625244140625-56.442352294921875-37.206527709960938-.53704833984375-2.61456298828125-.84954833984375-5.223419189453125-.95068359375-7.806106567382812-.037254333496094-.954071044921875.637199401855469-1.780136108398438,1.572677612304688-1.9722900390625l13.920013427734375-2.859268188476562c1.341117858886719-.275482177734375,2.559646606445312.847244262695312,2.523902893066406,2.21600341796875-.058441162109375,2.233505249023438.135581970214844,4.509292602539062.604476928710938,6.792037963867188,3.307395935058594,16.101654052734375,19.041336059570312,26.473037719726562,35.142326354980469,23.165771484375,2.450958251953125-.503448486328125,4.768447875976562-1.294586181640625,6.925735473632812-2.331130981445312,1.247848510742188-.599395751953125,2.788604736328125.074493408203125,3.067276000976562,1.431182861328125l2.866195678710938,13.953720092773438.000030517578125.000015258789062Z" fill="none" stroke="#010101" stroke-linecap="round" stroke-linejoin="round" stroke-width="23"/>
              <path d="M318.008897781373889,364.954362092646988c.19049072265625.9273681640625-.291946411132812,1.8660888671875-1.171844482421875,2.214614868164062-2.566864013671875,1.018341064453125-5.258636474609375,1.8270263671875-8.057754516601562,2.4019775390625-25.8602294921875,5.311874389648438-51.130462646484375-11.34625244140625-56.442352294921875-37.206527709960938-.53704833984375-2.61456298828125-.84954833984375-5.223419189453125-.95068359375-7.806106567382812-.037254333496094-.954071044921875.637199401855469-1.780136108398438,1.572677612304688-1.9722900390625l13.920013427734375-2.859268188476562c1.341117858886719-.275482177734375,2.559646606445312.847244262695312,2.523902893066406,2.21600341796875-.058441162109375,2.233505249023438.135581970214844,4.509292602539062.604476928710938,6.792037963867188,3.307395935058594,16.101654052734375,19.041336059570312,26.473037719726562,35.142326354980469,23.165771484375,2.450958251953125-.503448486328125,4.768447875976562-1.294586181640625,6.925735473632812-2.331130981445312,1.247848510742188-.599395751953125,2.788604736328125.074493408203125,3.067276000976562,1.431182861328125l2.866195678710938,13.953720092773438.000030517578125.000015258789062Z" fill="none" stroke="#010101" stroke-linecap="round" stroke-linejoin="round" stroke-width="23"/>
              <path d="M318.008897781373889,364.954362092646988c.19049072265625.9273681640625-.291946411132812,1.8660888671875-1.171844482421875,2.214614868164062-2.566864013671875,1.018341064453125-5.258636474609375,1.8270263671875-8.057754516601562,2.4019775390625-25.8602294921875,5.311874389648438-51.130462646484375-11.34625244140625-56.442352294921875-37.206527709960938-.53704833984375-2.61456298828125-.84954833984375-5.223419189453125-.95068359375-7.806106567382812-.037254333496094-.954071044921875.637199401855469-1.780136108398438,1.572677612304688-1.9722900390625l13.920013427734375-2.859268188476562c1.341117858886719-.275482177734375,2.559646606445312.847244262695312,2.523902893066406,2.21600341796875-.058441162109375,2.233505249023438.135581970214844,4.509292602539062.604476928710938,6.792037963867188,3.307395935058594,16.101654052734375,19.041336059570312,26.473037719726562,35.142326354980469,23.165771484375,2.450958251953125-.503448486328125,4.768447875976562-1.294586181640625,6.925735473632812-2.331130981445312,1.247848510742188-.599395751953125,2.788604736328125.074493408203125,3.067276000976562,1.431182861328125l2.866195678710938,13.953720092773438.000030517578125.000015258789062Z" fill="none" stroke="#010101" stroke-linecap="round" stroke-linejoin="round" stroke-width="23"/>
              <path d="M318.008897781373889,364.954362092646988c.19049072265625.9273681640625-.291946411132812,1.8660888671875-1.171844482421875,2.214614868164062-2.566864013671875,1.018341064453125-5.258636474609375,1.8270263671875-8.057754516601562,2.4019775390625-25.8602294921875,5.311874389648438-51.130462646484375-11.34625244140625-56.442352294921875-37.206527709960938-.53704833984375-2.61456298828125-.84954833984375-5.223419189453125-.95068359375-7.806106567382812-.037254333496094-.954071044921875.637199401855469-1.780136108398438,1.572677612304688-1.9722900390625l13.920013427734375-2.859268188476562c1.341117858886719-.275482177734375,2.559646606445312.847244262695312,2.523902893066406,2.21600341796875-.058441162109375,2.233505249023438.135581970214844,4.509292602539062.604476928710938,6.792037963867188,3.307395935058594,16.101654052734375,19.041336059570312,26.473037719726562,35.142326354980469,23.165771484375,2.450958251953125-.503448486328125,4.768447875976562-1.294586181640625,6.925735473632812-2.331130981445312,1.247848510742188-.599395751953125,2.788604736328125.074493408203125,3.067276000976562,1.431182861328125l2.866195678710938,13.953720092773438.000030517578125.000015258789062Z" fill="none" stroke="#010101" stroke-linecap="round" stroke-linejoin="round" stroke-width="23"/>
              <path d="M318.008897781373889,364.954362092646988c.19049072265625.9273681640625-.291946411132812,1.8660888671875-1.171844482421875,2.214614868164062-2.566864013671875,1.018341064453125-5.258636474609375,1.8270263671875-8.057754516601562,2.4019775390625-25.8602294921875,5.311874389648438-51.130462646484375-11.34625244140625-56.442352294921875-37.206527709960938-.53704833984375-2.61456298828125-.84954833984375-5.223419189453125-.95068359375-7.806106567382812-.037254333496094-.954071044921875.637199401855469-1.780136108398438,1.572677612304688-1.9722900390625l13.920013427734375-2.859268188476562c1.341117858886719-.275482177734375,2.559646606445312.847244262695312,2.523902893066406,2.21600341796875-.058441162109375,2.233505249023438.135581970214844,4.509292602539062.604476928710938,6.792037963867188,3.307395935058594,16.101654052734375,19.041336059570312,26.473037719726562,35.142326354980469,23.165771484375,2.450958251953125-.503448486328125,4.768447875976562-1.294586181640625,6.925735473632812-2.331130981445312,1.247848510742188-.599395751953125,2.788604736328125.074493408203125,3.067276000976562,1.431182861328125l2.866195678710938,13.953720092773438.000030517578125.000015258789062Z" fill="none" stroke="#010101" stroke-linecap="round" stroke-linejoin="round" stroke-width="23"/>
              <path d="M307.973375320436389,365.644074617061051c1.982345581054688-.407196044921875,3.903778076171875-.941680908203125,5.758148193359375-1.593368530273438l-2.04119873046875-9.937301635742188c-1.82843017578125.72821044921875-3.743865966796875,1.305130004882812-5.733413696289062,1.713790893554688-18.270530700683594,3.752899169921875-36.123428344726562-8.015960693359375-39.876197814941406-26.28582763671875-.372505187988281-1.813507080078125-.592155456542969-3.625-.667198181152344-5.421157836914062l-9.917274475097656,2.037078857421875c.142364501953125,1.79052734375.396293640136719,3.592926025390625.767585754394531,5.400527954101562,4.866523742675781,23.692062377929688,28.017532348632812,38.9527587890625,51.70953369140625,34.086257934570312h.000015258789062Z" fill="none" stroke="#010101" stroke-linecap="round" stroke-linejoin="round" stroke-width="23"/>
            </g>
            <g>
              <rect x="243.93802250357362" y="365.095593402988357" width="43.035941607876794" height="17.885452075279545" transform="translate(-192.935445038465559 389.812920670234064) rotate(-56.607514986389582)" fill="url(#linear-gradient)" stroke-width="0"/>
              <rect x="241.642264707596325" y="370.163522099171246" width="43.035941607877589" height="4.724288888862873" transform="translate(-192.70473953524629 387.216014185488973) rotate(-56.607514986389582)" fill="url(#linear-gradient-2)" stroke-width="0"/>
              <g>
                <path d="M387.532762527467639,222.21044653478566c1.951705932617188-2.9605712890625,2.646316528320312-6.575340270996094,1.931549072265625-10.048480987548828l-3.361526489257812-16.331985473632812c-.446502685546875-2.167102813720703-2.563919067382812-3.563055038452148-4.731674194335938-3.118738174438477l-16.334762573242188,3.348047256469727c-3.4735107421875.7119140625-6.522064208984375,2.775508880615234-8.473114013671875,5.735946655273438l-94.456092834472656,143.290306091308594,30.970359802246094,20.415252685546875,94.45526123046875-143.290348052978516Z" fill="url(#linear-gradient-3)" stroke-width="0"/>
                <path d="M387.532762527467639,222.21044653478566c1.951705932617188-2.9605712890625,2.646316528320312-6.575340270996094,1.931549072265625-10.048480987548828l-3.361526489257812-16.331985473632812c-.446502685546875-2.167102813720703-2.563919067382812-3.563055038452148-4.731674194335938-3.118738174438477l-16.334762573242188,3.348047256469727c-3.4735107421875.7119140625-6.522064208984375,2.775508880615234-8.473114013671875,5.735946655273438l-94.456092834472656,143.290306091308594,30.970359802246094,20.415252685546875,94.45526123046875-143.290348052978516Z" fill="url(#linear-gradient-4)" stroke-width="0"/>
              </g>
              <g>
                <path d="M267.456560134889514,403.362458406123551c2.7093505859375-4.110107421875,1.573814392089844-9.638336181640625-2.536300659179688-12.347671508789062l-14.853736877441406-9.791671752929688c-4.110115051269531-2.7093505859375-9.638397216796875-1.57379150390625-12.347740173339844,2.53631591796875-2.7093505859375,4.110107421875-1.573814392089844,9.638320922851562,2.536300659179688,12.347671508789062l14.853675842285156,9.79168701171875c4.110176086425781,2.709335327148438,9.638389587402344,1.57379150390625,12.347801208496094-2.536331176757812Z" fill="url(#linear-gradient-5)" stroke-width="0"/>
                <path d="M267.456560134889514,403.362458406123551c2.7093505859375-4.110107421875,1.573814392089844-9.638336181640625-2.536300659179688-12.347671508789062l-14.853736877441406-9.791671752929688c-4.110115051269531-2.7093505859375-9.638397216796875-1.57379150390625-12.347740173339844,2.53631591796875-2.7093505859375,4.110107421875-1.573814392089844,9.638320922851562,2.536300659179688,12.347671508789062l14.853675842285156,9.79168701171875c4.110176086425781,2.709335327148438,9.638389587402344,1.57379150390625,12.347801208496094-2.536331176757812Z" fill="url(#radial-gradient-2)" stroke-width="0"/>
              </g>
              <path d="M267.456560134889514,403.362458406123551c2.7093505859375-4.110107421875,1.573814392089844-9.638336181640625-2.536300659179688-12.347671508789062l-14.853736877441406-9.791671752929688c-4.110115051269531-2.7093505859375-9.638397216796875-1.57379150390625-12.347740173339844,2.53631591796875-2.7093505859375,4.110107421875-1.573814392089844,9.638320922851562,2.536300659179688,12.347671508789062l14.853675842285156,9.79168701171875c4.110176086425781,2.709335327148438,9.638389587402344,1.57379150390625,12.347801208496094-2.536331176757812Z" fill="url(#radial-gradient-3)" stroke-width="0"/>
              <g>
                <path d="M384.458345413209827,193.343026338252457c-.868331909179688-.601314544677734-1.971282958984375-.860532760620117-3.087875366210938-.63165283203125l-16.3341064453125,3.347915649414062c-3.47418212890625.712051391601562-6.522064208984375,2.775508880615234-8.4737548828125,5.736080169677734l-94.456031799316406,143.290294647216797,15.562156677246094,10.258651733398438,106.78961181640625-162.001289367675781Z" fill="url(#linear-gradient-6)" stroke-width="0"/>
                <path d="M384.458345413209827,193.343026338252457c-.868331909179688-.601314544677734-1.971282958984375-.860532760620117-3.087875366210938-.63165283203125l-16.3341064453125,3.347915649414062c-3.47418212890625.712051391601562-6.522064208984375,2.775508880615234-8.4737548828125,5.736080169677734l-94.456031799316406,143.290294647216797,15.562156677246094,10.258651733398438,106.78961181640625-162.001289367675781Z" fill="url(#linear-gradient-7)" stroke-width="0"/>
              </g>
              <path d="M318.008897781373889,364.954362092646988c.19049072265625.9273681640625-.291946411132812,1.8660888671875-1.171844482421875,2.214614868164062-2.566864013671875,1.018341064453125-5.258636474609375,1.8270263671875-8.057754516601562,2.4019775390625-25.8602294921875,5.311874389648438-51.130462646484375-11.34625244140625-56.442352294921875-37.206527709960938-.53704833984375-2.61456298828125-.84954833984375-5.223419189453125-.95068359375-7.806106567382812-.037254333496094-.954071044921875.637199401855469-1.780136108398438,1.572677612304688-1.9722900390625l13.920013427734375-2.859268188476562c1.341117858886719-.275482177734375,2.559646606445312.847244262695312,2.523902893066406,2.21600341796875-.058441162109375,2.233505249023438.135581970214844,4.509292602539062.604476928710938,6.792037963867188,3.307395935058594,16.101654052734375,19.041336059570312,26.473037719726562,35.142326354980469,23.165771484375,2.450958251953125-.503448486328125,4.768447875976562-1.294586181640625,6.925735473632812-2.331130981445312,1.247848510742188-.599395751953125,2.788604736328125.074493408203125,3.067276000976562,1.431182861328125l2.866195678710938,13.953720092773438.000030517578125.000015258789062Z" fill="#634d77" stroke-width="0"/>
              <path d="M318.008897781373889,364.954362092646988c.19049072265625.9273681640625-.291946411132812,1.8660888671875-1.171844482421875,2.214614868164062-2.566864013671875,1.018341064453125-5.258636474609375,1.8270263671875-8.057754516601562,2.4019775390625-25.8602294921875,5.311874389648438-51.130462646484375-11.34625244140625-56.442352294921875-37.206527709960938-.53704833984375-2.61456298828125-.84954833984375-5.223419189453125-.95068359375-7.806106567382812-.037254333496094-.954071044921875.637199401855469-1.780136108398438,1.572677612304688-1.9722900390625l13.920013427734375-2.859268188476562c1.341117858886719-.275482177734375,2.559646606445312.847244262695312,2.523902893066406,2.21600341796875-.058441162109375,2.233505249023438.135581970214844,4.509292602539062.604476928710938,6.792037963867188,3.307395935058594,16.101654052734375,19.041336059570312,26.473037719726562,35.142326354980469,23.165771484375,2.450958251953125-.503448486328125,4.768447875976562-1.294586181640625,6.925735473632812-2.331130981445312,1.247848510742188-.599395751953125,2.788604736328125.074493408203125,3.067276000976562,1.431182861328125l2.866195678710938,13.953720092773438.000030517578125.000015258789062Z" fill="url(#linear-gradient-8)" stroke-width="0"/>
              <path d="M318.008897781373889,364.954362092646988c.19049072265625.9273681640625-.291946411132812,1.8660888671875-1.171844482421875,2.214614868164062-2.566864013671875,1.018341064453125-5.258636474609375,1.8270263671875-8.057754516601562,2.4019775390625-25.8602294921875,5.311874389648438-51.130462646484375-11.34625244140625-56.442352294921875-37.206527709960938-.53704833984375-2.61456298828125-.84954833984375-5.223419189453125-.95068359375-7.806106567382812-.037254333496094-.954071044921875.637199401855469-1.780136108398438,1.572677612304688-1.9722900390625l13.920013427734375-2.859268188476562c1.341117858886719-.275482177734375,2.559646606445312.847244262695312,2.523902893066406,2.21600341796875-.058441162109375,2.233505249023438.135581970214844,4.509292602539062.604476928710938,6.792037963867188,3.307395935058594,16.101654052734375,19.041336059570312,26.473037719726562,35.142326354980469,23.165771484375,2.450958251953125-.503448486328125,4.768447875976562-1.294586181640625,6.925735473632812-2.331130981445312,1.247848510742188-.599395751953125,2.788604736328125.074493408203125,3.067276000976562,1.431182861328125l2.866195678710938,13.953720092773438.000030517578125.000015258789062Z" fill="url(#radial-gradient-4)" stroke-width="0"/>
              <path d="M318.008897781373889,364.954362092646988c.19049072265625.9273681640625-.291946411132812,1.8660888671875-1.171844482421875,2.214614868164062-2.566864013671875,1.018341064453125-5.258636474609375,1.8270263671875-8.057754516601562,2.4019775390625-25.8602294921875,5.311874389648438-51.130462646484375-11.34625244140625-56.442352294921875-37.206527709960938-.53704833984375-2.61456298828125-.84954833984375-5.223419189453125-.95068359375-7.806106567382812-.037254333496094-.954071044921875.637199401855469-1.780136108398438,1.572677612304688-1.9722900390625l13.920013427734375-2.859268188476562c1.341117858886719-.275482177734375,2.559646606445312.847244262695312,2.523902893066406,2.21600341796875-.058441162109375,2.233505249023438.135581970214844,4.509292602539062.604476928710938,6.792037963867188,3.307395935058594,16.101654052734375,19.041336059570312,26.473037719726562,35.142326354980469,23.165771484375,2.450958251953125-.503448486328125,4.768447875976562-1.294586181640625,6.925735473632812-2.331130981445312,1.247848510742188-.599395751953125,2.788604736328125.074493408203125,3.067276000976562,1.431182861328125l2.866195678710938,13.953720092773438.000030517578125.000015258789062Z" fill="url(#radial-gradient-5)" stroke-width="0"/>
              <path d="M318.008897781373889,364.954362092646988c.19049072265625.9273681640625-.291946411132812,1.8660888671875-1.171844482421875,2.214614868164062-2.566864013671875,1.018341064453125-5.258636474609375,1.8270263671875-8.057754516601562,2.4019775390625-25.8602294921875,5.311874389648438-51.130462646484375-11.34625244140625-56.442352294921875-37.206527709960938-.53704833984375-2.61456298828125-.84954833984375-5.223419189453125-.95068359375-7.806106567382812-.037254333496094-.954071044921875.637199401855469-1.780136108398438,1.572677612304688-1.9722900390625l13.920013427734375-2.859268188476562c1.341117858886719-.275482177734375,2.559646606445312.847244262695312,2.523902893066406,2.21600341796875-.058441162109375,2.233505249023438.135581970214844,4.509292602539062.604476928710938,6.792037963867188,3.307395935058594,16.101654052734375,19.041336059570312,26.473037719726562,35.142326354980469,23.165771484375,2.450958251953125-.503448486328125,4.768447875976562-1.294586181640625,6.925735473632812-2.331130981445312,1.247848510742188-.599395751953125,2.788604736328125.074493408203125,3.067276000976562,1.431182861328125l2.866195678710938,13.953720092773438.000030517578125.000015258789062Z" fill="url(#radial-gradient-6)" stroke-width="0"/>
              <path d="M307.973375320436389,365.644074617061051c1.982345581054688-.407196044921875,3.903778076171875-.941680908203125,5.758148193359375-1.593368530273438l-2.04119873046875-9.937301635742188c-1.82843017578125.72821044921875-3.743865966796875,1.305130004882812-5.733413696289062,1.713790893554688-18.270530700683594,3.752899169921875-36.123428344726562-8.015960693359375-39.876197814941406-26.28582763671875-.372505187988281-1.813507080078125-.592155456542969-3.625-.667198181152344-5.421157836914062l-9.917274475097656,2.037078857421875c.142364501953125,1.79052734375.396293640136719,3.592926025390625.767585754394531,5.400527954101562,4.866523742675781,23.692062377929688,28.017532348632812,38.9527587890625,51.70953369140625,34.086257934570312h.000015258789062Z" fill="url(#linear-gradient-9)" stroke-width="0"/>
            </g>
          </g>
        </a>
        <circle cx="392.865770339967639" cy="302.156556306514176" r="8.51507568359375" fill="#010101" stroke-width="0"/>
        <circle cx="225.956445693971546" cy="358.771622834834488" r="2.928850173950195" fill="#010101" stroke-width="0"/>
        <circle cx="208.438413619996936" cy="280.270333467158707" r="9.819259643554688" fill="#010101" stroke-width="0"/>
        <circle cx="379.448808670045764" cy="382.618470369014176" r="4.689620971679688" fill="#010101" stroke-width="0"/>
        <circle cx="239.055245399476917" cy="212.388489900264176" r="4.689623355865697" fill="#010101" stroke-width="0"/>
        <circle cx="398.871644973756702" cy="276.854371247920426" r="2.344814300537109" fill="#010101" stroke-width="0"/>
      </g>
    </g>
  </g>
</svg>