<?xml version="1.0" encoding="UTF-8"?>
<svg id="Layer_1" data-name="Layer 1" xmlns="http://www.w3.org/2000/svg" width="280" height="280" xmlns:xlink="http://www.w3.org/1999/xlink" viewBox="0 0 280 280">
  <a xlink:href="https://www.notion.so/dmmnotes/Life-constructs-635f461f80934ab59b4746ba45c9c329?pvs=4">
    <g>
      <g>
        <path d="M221.741113840640537,105.744272190732772c-2.428592294296323,27.001057103021594-4.857184588592645,54.002114206043188-7.285776882887149,81.003171309063873-1.466969840401362,8.013952122521914-6.753000716043971,12.027082151736067-14.21875309249117,14.194735023343128-17.693209866245525,5.137145506767411-35.313557692878021,10.524830325152834-52.964832169293004,15.806229158417409-2.003497119541862.599456744528652-4.010306465339454,1.538947217132772-6.19407244951617.63991477854961-6.078426571082673-2.172603807916857-7.705021360157843-4.645011291536321-7.136255734840233-11.055782030211958,1.690135712886331-19.050052698596119,3.420800804797182-38.096508872020422,5.12953592550366-57.144919198583921.177650943593108-1.980348579983911.472760287531855-3.962177201072336-.006740520786479-5.941635056672567-.155858743735735-5.375793410466031.625704466378011-10.684421976605336,1.178322923316955-16.00909855741611.119214831751378-.676647052138833.341502395234784-1.319145858378761.70241909894321-1.904661453865629,7.358236691838101-9.949124996172031,19.109040826266209-11.117549280659659,29.633056588578256-14.534380161139779,12.701943424248384-4.123929104473973,25.497582928741394-7.977613007717991,38.295631443066668-11.807839711802444.633886991143299-.189713678333646,1.26240221120861-.395879596103441,1.917450818033103-.501908310506224,6.103735307899115-.98796861657047,9.530880565838743,1.283322981315905,10.950014052372353,7.256174210824611Z" fill="none" stroke="#181818" stroke-linecap="round" stroke-linejoin="round" stroke-width="43"/>
        <path d="M143.461679123092836,59.475383924311245l5.557827704091324.499895151648161c-1.750468144013212,4.654912388123194,1.387626458566956,6.722490340846889,4.451287623527605,9.244752003370195,10.190206141811359,8.38943292753811,20.277810486750241,16.906429713825673,30.336082854741107,25.45610713006954,1.789941572946191,1.521475749196725,3.429462462763695,3.070424276309495,1.905920029914341,5.695619483280097-1.329451789973973,1.441285523107581-3.142956710753424,1.946044383654225-4.92267852169789,2.452821826091167-8.298011652994319,2.362874549787193-16.414611999322005,5.327846287306784-24.75230660069974,7.544168923906-5.610783867112332,1.49146440390814-9.784902172033981,4.571748221733287-12.216131507719183,9.901877406120548-.386811755752205.848024602824808-.780862950925439,1.71407598739097-1.873148353164652,1.866285135650287-1.057982402231573-.077159577695966-1.686071883490513-.800628178477382-2.093287325811616-1.62905736212997-2.181640592641998-4.438278154327236-6.149217854441304-6.686331439917922-10.309461603084856-8.880630359155475-14.971777846880286-7.896767888780232-30.069317634923209-15.554582657885476-44.949181061378113-23.625037414870349-2.915970377986014-1.581548786806707-5.779299465149961-2.744977722106341-8.888072048934191-.541480310967017-2.254588750751282.369448520667902-3.810009666660335,3.055008372172779-6.504918448947137,1.980642523968527-.920075818943587-2.884863256270364.86137321888782-4.844573809753456,2.485557340934974-6.732445627656489,2.670125999036827-3.103626218519821,6.143236386109493-5.006592759732484,10.056074857118801-6.153913088665831,18.605506564297684-5.455493852783547,37.283497993021228-10.659259213702171,55.889000346061948-16.114417702172432,1.908845940124593-.559676712240616,3.922217433986589-.42168461719848,5.827434715047275-.965187718486959Z" fill="none" stroke="#181818" stroke-linecap="round" stroke-linejoin="round" stroke-width="43"/>
        <path d="M152.989383758676922,60.332347041422508c8.4607713790665,4.971071431989003,17.5268564994185,8.744570691006629,26.222893802865656,13.250661089526147,1.263265349667563.654599408120703,2.770697315274447.895302701227592,3.603710215422325,2.236938273410487,6.651643187120499,3.672688797135379,12.014865505941998,9.030454781871413,17.845867392647051,13.764230988168492,3.475279581285577,2.821330461239995,3.192507180752727,4.905522271003974-.68723012306873,6.859850317815471-3.668618061439702,1.847970904521389-7.604991683061598,3.027418266457971-11.584382054819798,4.02276488998632-1.007358086599197.251973188183911-2.088850767275289.530978673531536-2.968641457504418-.401111230498827.426753217647274-1.722871922379454-.138438630492601-2.946370739546182-1.536556654935339-4.111029864623561-11.040177671442507-9.196745567919606-21.994377694631112-18.496726082754321-33.030811905702649-27.698022023273552-4.405119148284939-3.672633307948672-4.469068872947901-3.595893966961739-1.834726146396861-8.281350405974081l3.969876931492763.357067965463102Z" fill="none" stroke="#181818" stroke-linecap="round" stroke-linejoin="round" stroke-width="43"/>
        <path d="M185.421601534219008,100.0656813698306c5.002078844447169-.767894684946441,9.730116577917215-2.467511434564585,14.31101893462619-4.514286645943685,3.258727716283829-1.456027679527324,3.350392997257586-2.772394954325136.618971349800631-5.077401039978213-5.821563677987797-4.912713041999268-11.687777047554846-9.772485994620183-17.535656861784446-14.65400316729756,7.854648393913521,2.781380352676933,14.95313346779767,7.172093856976971,22.510402330017314,10.587075048806582,1.442543757058957.651860267372285,2.784665104072701,1.565040125875385,4.269826384062981,2.076975239677267,7.156053863054694,2.466679238952565,10.26157772339684,8.240157694333902,12.359237725077037,14.877785170664538l-.214287555378178,2.382446214973243c-4.024188849814891-7.062412440831395-5.865702736669846-7.663169240931893-14.923529781974139-4.896187422196817-17.520573183413944,5.352181326229584-35.029401412621155,10.743513956042989-52.574010105583511,16.015718902560366-3.949269906197515,1.186771273656632-7.074130465212875,3.315148290406796-9.685492027680084,6.459485800845869-.641131715152369.771986884975377-1.012403234692101,2.82565920718298-2.914528272731332,1.605965119636494-.91374742777225-1.122005860427635-.749993639496097-2.165383607152762.229839227462435-3.14920624590377,3.258210482495997-9.392016287236402,11.36563486011255-11.876807833107705,19.778816415320762-14.227396462538309,7.996176218724941-2.234076285521951,15.851907249041687-4.971095709885958,23.76939223876434-7.486970513306005Z" fill="none" stroke="#181818" stroke-linecap="round" stroke-linejoin="round" stroke-width="43"/>
        <path d="M142.006035558712028,217.00614508950548c-1.354753731073288.389316902148494-2.851930830223864.33414237778743-4.025035026477781,1.290387285333054l-8.733729249284806-.785549524019189c-.747300461955092-.602022317041701-1.494593776438705-1.2040562069933-2.241894238397435-1.806078524035001.085712396958115-.250532254197424.113554472553005-.607672810067015.297347635118058-.719334055455874,5.834442518154901-3.544875529619276,5.905698952405146-9.415539482864006,6.372094288908556-15.251395874671289.841027249471153-10.523510662337685,1.798734968084318-21.038969732837359,2.837422505168433-31.549209593811611.394451369867966-6.944581648474923,1.154281041877766-13.854522190196803,1.79782083929058-20.774073351338302.14415907878174-1.550006171285531.253751821410333-3.176287806072651,1.676175269007217-4.250742030534639,1.028832799611337,1.493840406364143.370611964233831,3.104198424140122.23628022183766,4.637821503020859-1.643398823995085,18.76181063266813-3.333941265289468,37.519490905757266-5.014994311208284,56.277988048920633-.795821767074813,8.88038858440359-.670089580908098,9.124347022241636,6.798512066037802,12.930186116591358Z" fill="none" stroke="#181818" stroke-linecap="round" stroke-linejoin="round" stroke-width="43"/>
        <path d="M61.164932427396707,172.241135815166672c.77286253938837-7.960711921137772,1.545725979396593-15.921435977048532,2.318588874448324-23.882153974087487,4.686849802399593-2.701103266343125,9.731055695174291-4.667754723376675,14.618328277487308-6.942475877140168,2.805513051102025-1.305801100222197,4.868604986897481-2.870972773594076,5.618166436832325-5.920996708865459,3.26677022396143-.414522858794044,6.323939073250585-1.400057560600544,9.040490824781955-3.320276000739796,2.155987054356956.922864995857708,4.099861282382335.247181767082111,6.080003063660115-.680628615045862,8.525263402269047-3.994563879372436,17.080800632025785-7.935464994686299,25.512901749461889-12.112788560704757,4.43877907046226-2.19899847693523,8.563803940232901-2.392864061063847,12.953434266855766-.420233122934405,3.2325994028688,1.522471169303572,3.386991761999525,4.696244363722144,4.065072840361609,7.590067304308832-.462272976112217,5.536513000799459-.924557522363102,11.073018853038775-1.386258867634751,16.609015235005245-.79099779455828,8.495371844160218-1.582573822473933,16.991265821183333-2.374149305425817,25.487153739331916-4.681645093194675,2.487294395143181-8.906044344466864,6.621198847049527-14.965344878806718,4.166701542580086-1.341478805881707-.622275021220958-2.213220864196046-1.828517434699279-3.348195005915841-2.708368463393526-3.349783666946678-2.596810257780817-6.904063531072097-1.747325269358953-8.746385482558253,2.046493653838297-1.351044149299923,2.782160027537429-1.482044885760843,5.822355631131359-1.900226765899788,8.802284630774921-.367285640923001,1.986477563395965-1.954824149857814,2.6809692676552-3.553481403527257,3.408713952197104-4.470481387967084,2.035039212054471-8.804863014935108,4.361169448398869-13.307537830613001,6.323084521843157-1.847464835896972.804961108688076-2.677352320937644,1.512982480677238-.939856910539675,3.359460179128291.91912762800348.976779949465708,2.066386332286129,2.226530317641846.944577905998813,3.853784245994575-7.431250154822919-3.801807671065944-14.854994768369579-7.618405439250637-22.296141841083227-11.400739576025444-5.847240833312753-2.972148481164368-8.266120277772643-7.920677109758799-8.333985947883775-14.258098106065518Z" fill="none" stroke="#181818" stroke-linecap="round" stroke-linejoin="round" stroke-width="43"/>
        <path d="M141.371918761285997,126.551650259957569c-1.732895382872812-2.048308413578525-1.500670364990583-5.289895687147691-4.125226262853175-6.796767281465691-8.820813286220073-5.892517758535178-18.47016880405863-10.283539284082508-27.794799831252021-15.255101307782752-11.291262000648203-6.020106367020162-22.607441582225874-12.001601305581062-34.134676689067419-17.567509211759898,2.39084077526968-2.761100214765975,5.147952150493438-2.235485605459871,7.91846742980124-.785479158915223,11.258968468242529,5.89260994749111,22.501357333898341,11.816980008009523,33.741484223759471,17.745519866013638,3.864565193909584,2.038339191160958,7.586789651710205,4.396282295076162,11.583995377292013,6.121636422361007,5.788624623455689,2.498590448092727,10.566835290894232,5.92498602825799,13.312105932356644,11.766050962330155-.076894664360225,1.049901468565622-.153913812495375,2.099761201069668-.23033018219212,3.149436942364446-.089929888601546.54061363497658-.180475215704064,1.08141623035317-.271019997844633,1.622212766854318Z" fill="none" stroke="#181818" stroke-linecap="round" stroke-linejoin="round" stroke-width="43"/>
        <path d="M190.61386091469285,128.466108653104129c1.565067654972154-4.26426589224593,4.272392614131604-7.592443875378194,8.367268222184066-9.584160695506398,5.027438505829195-2.445307974028765,9.362687626900879-.022047971519896,10.031853618384048,5.47361843271392.498118820920354,4.090724434136973-.437154199251381,7.830984096531211-2.843944866563106,11.190187998783585-1.881403899375073.417111396963264-3.769984714475868,1.015311437121454-5.586360633797085-.217155866288522-.162782727060403-.201842113070597-.322908199810627-.417340671443526-.382502230117097-.665758201388599q-1.546082221600955-6.446135993904136-7.947382280302918-4.684956826741654c-.837303474387227-.190542166671548-1.389550446558133-.687714343000152-1.638931829787907-1.511774841572333Z" fill="none" stroke="#181818" stroke-linecap="round" stroke-linejoin="round" stroke-width="43"/>
        <path d="M149.066734189545969,185.669035971464837c1.669235940347789-3.770919537730151,3.8144551373789-7.186913883804664,7.370059605371353-9.472525689599934,2.539823533592426-1.63264361678921,5.280233066532674-2.582670552723357,8.184703349972551-1.077179350142615,2.962174553516888,1.535393899041992,3.560850182335344,4.463455725143831,3.60931516335404,7.417290640494684.045621084143932,2.780689181831804-.615607841051315,5.476826710129899-2.187781444878055,7.862888003204716-1.963016365516523,1.022355561026416-3.901303137885407,2.155533697456121-6.260243390457617,1.401944763869324-.213698911020401-.154999407776813-.464213360733993-.331462814719089-.507109182124623-.569253247247616-1.120486617013739-6.211896635090852-1.828947273636004-7.539646546989388-8.426977438955873-4.286377183205332-.876588499248101-.03090945252552-1.324001066177516-.661186093936522-1.781966662281775-1.276787937373228Z" fill="none" stroke="#181818" stroke-linecap="round" stroke-linejoin="round" stroke-width="43"/>
        <path d="M170.108022513721153,156.36069394725655c1.864180655862583-3.733363699505389,4.246817046108845-7.027834312627419,8.126478181289713-8.876896668174595,5.408780126261263-2.577827151376368,9.985635043773073.07552238504104,10.319174961234239,6.051840631113919.194880511284282,3.491763553601231-.465455590341662,6.869664692163497-2.513859133105143,9.839646846017786-1.578173008096201.957631316457991-3.20546105054018.936318910190494-4.863501464069486.252643327431542-.765776741116497-.360077059534888-1.078483637196769-1.067492288172616-1.408657099678749-1.794576214392691-2.338979662361453-5.150635062237598-2.589504257895896-5.253322175551148-7.933064801125511-3.443242053555878-1.174474678382467-.167009432379928-1.358527712956857-1.176285469668073-1.726570644545063-2.029415868440083Z" fill="none" stroke="#181818" stroke-linecap="round" stroke-linejoin="round" stroke-width="43"/>
        <path d="M200.695873067819775,135.07381345920021c1.779604169618324.676676788983059,3.761756031684854-.995248086423089,5.473175301098308.471960196202417-1.160703020183064,2.615011194407998-3.058531786018648,4.59920034391871-5.4614495473852,6.061605236756805-2.825853325601202,1.719802882952536-5.911094838016652,2.896939683014352-8.823889289302315.495344138595101-3.014042902621441-2.485084157000529-3.554473938893352-6.034637828954146-2.861626310168504-9.708553211566141.256658562471785-1.360975158470865,1.045897291818619-2.621501564947721,1.592011820266634-3.927948489274968.58961372284648.35180597679755,1.179461573328808.703724630403485,1.769309423812956,1.05564328401033.140650571260267.229157108258732.252560372091466.47464528292312.234211507828149.729159823013106-.165584253674751,2.29815245087957-1.007833937261239,4.834448334147055,1.450085074004164,6.432987862815025,2.51559792999069,1.636056484047913,3.991644015535712-.939853715037316,5.901642065495253-1.747112248621306.229425257653929-.096971922873308.48749799516554-.013706963677578.726529954350553.136913408069631Z" fill="none" stroke="#181818" stroke-linecap="round" stroke-linejoin="round" stroke-width="43"/>
        <path d="M170.108022513721153,156.36069394725655c.434793171183628.56466060092589.869573682302871,1.129326171043431,1.304366308530007,1.693992830843854.838767158904375.950281586307938.182651986702695,1.982546164580526.156753731647768,2.9777879362764-.051691504624614,1.986193033310883.684901272730713,3.638749990817814,2.445312034029484,4.534250249950674,1.867352011766343.949914286468811,3.159484015321141-.292077303970473,4.369106092379297-1.569122290833548.581006199172407-.613385766220745,1.037691190947953-1.597964787975798,2.199518320998322-1.111239348884737,1.818919675746656.162984635115208,3.637839896451624.325963211354974,5.456748547016105.488934639038234-1.520422250774573,3.368961842904355-3.954531889166901,5.890894336295787-7.254720682964034,7.500467946211756-5.391497714603247,2.629551816925414-10.331998904928696-.453549048891546-10.301900786125771-6.461286850953002.013827619903168-2.761355038663169.322921010894788-5.523405998292219,1.624816434488821-8.053785111649631Z" fill="none" stroke="#181818" stroke-linecap="round" stroke-linejoin="round" stroke-width="43"/>
        <path d="M159.613436685065608,191.421568931224101c2.143206862781881-.340693803976137,4.28641263564532-.681375490205028,6.429607383326584-1.022070383866776-1.55528065505132,3.07976348738157-3.351481120011158,5.955756961596308-6.446131620394226,7.760140153317479-2.919495643211121,1.702267314146411-5.982491853112151,2.660256571426544-8.865486067914389.244129354955476-2.886469282733742-2.41904174040792-3.261069393629441-5.831534270031625-2.691150419466794-9.349663259748922.186868303575466-1.153512886330645.675706689489743-2.258084535937996,1.026457139007107-3.385056706669275.609952791233809.078694789714064,1.131073694976294.28971010837995,1.370433919495554.920415746913932.825395072602987.837701464319252.644757528816626,1.926285973097947.772762629629142,2.953846848725334.54895662058334,4.4067566534668,3.070122136605278,5.450671428430724,6.706473558469952,2.786694596116831.529457933762387-.387883044704722,1.009906767227221-.830918532750729,1.697033477847071-.908436349744079Z" fill="none" stroke="#181818" stroke-linecap="round" stroke-linejoin="round" stroke-width="43"/>
        <path d="M75.317215978113381,86.932272458949228c5.40477823078254.311935241938045,9.600652955123223,3.624434328832649,14.144121981073113,5.928033010444778,13.436468134150346,6.812462489931022,26.765768319004565,13.841088423482688,40.035634142666822,20.973785318300543,2.834784602135187,1.523728225515697,6.16410610454659,2.653708337928947,7.749636743756128,5.920839637711651-5.827706508836854-2.83662868299507-10.923458639184901-.350318328173671-16.069276749793062,2.12938776079227-8.177764944837691,3.940773135534982-16.462253138104643,7.665805823246046-24.562859138090062,11.756932232044164-2.089645591267981,1.055358124986014-2.820185021222642-.024204571363043-3.911055720975128-1.114170297877536-.601540822161041-3.638001408718083.951534264117072-7.203320664432795.138956603335828-10.922585799340595-.715101484269326-3.273111684453397-1.551192988525145-6.42146171013701-3.412099180444784-9.204378773260032-1.506229527121832-2.252508226562895-3.398949373231517-4.361709638258617-6.363473793337107-3.985209315925204-3.301193737373978.419250865953472-5.061581968526298,3.067562765375442-5.57864057315237,5.995122400451692-1.16109982866692,6.574091632583986-.354684595018625,12.878980945223702,4.059221268989859,18.29826062794109.814831158453671,1.000418326846557,2.087835822683701,1.684252665574604,2.209267573334728,3.169100297272053.944604198108209,3.077241661693733-.843522441313326,4.34528963140292-3.329062543774853,5.445748946983258-4.434996435109497,1.963568032489093-8.773344592853391,4.14561673663502-13.151183875630522,6.238242608693326-1.200781343990457.573979105482067-2.423038933675343,1.037092321793352-3.793378597956689.797482714352554,1.589261126979181-18.302822395898147,3.178024619919597-36.605756737953016,4.765998552729798-54.909290428981876.434138577538761-1.295730323043244-.104750147625964-2.886402898343476,1.18816339865225-3.921843909984091,2.051788922855849-.656906695633552,3.479691443139018-2.728698867031198,5.880029908616052-2.595457029618046Z" fill="none" stroke="#181818" stroke-linecap="round" stroke-linejoin="round" stroke-width="43"/>
        <path d="M137.826547669783395,78.362507329242362c7.115285006544582-1.078521105000618,13.989104722473712-.526535108755525,20.387831167705372,3.087646615237645,1.789260280991584,1.010622299012539,3.463149863509898,2.294982278879615,3.253214861704691,4.59108488608581-.208840928746213,2.284006610025244-2.096450709806959,3.390381892627374-4.002810341260556,3.996486706071664-6.063237875740015,1.927752198541384-12.187116898156091,2.207852160146103-18.295980632414285.091961851272572.494399709414211-2.780888870844137,2.963696285485639-1.9893326863521,4.665603950941659-2.557096712662315,1.889115762869551-.630218348385824,5.206157334710952.05519693694896,5.30248765207034-2.162983858678672.101617549156799-2.340104305478235-3.196053332078009-2.544643857056144-5.226971394571592-3.281218159404489-1.353728623558709-.490969978412977-2.777265175041975-.796414234733675-4.125397290892579-1.308598969662853-1.101943859173844-.418655527196279-2.284186790757303-.861165286683899-1.95797797328305-2.457282358259363Z" fill="none" stroke="#181818" stroke-linecap="round" stroke-linejoin="round" stroke-width="43"/>
        <path d="M137.826547669783395,78.362507329242362c1.588191183969684,2.389233113263799,4.442474861578376,1.80359620406125,6.627294966683621,2.801098662008371,2.539089708830943,1.159248236056555,6.714173240949094,1.379695567854469,6.456842366160345,4.619401873884271-.209810262547762,2.641579152625127-4.263038971726928,2.027167862280294-6.687645215841258,2.730646730020453-1.689138436906433.490090222633626-3.813307220178103-.260837336156328-5.054316773406754,1.616172212465244-2.251288499915972-.335905307575558-4.287460072260728-1.288085770355792-6.118406191024405-2.541396613740289-3.896354868042181-2.667104544637368-3.608710344578867-6.123803445052545.64738203514753-8.058870705292065,1.28713131915174-.585204898545271,2.747712713699002-.78871116526534,4.128848812280921-1.167052159345985Z" fill="none" stroke="#181818" stroke-linecap="round" stroke-linejoin="round" stroke-width="43"/>
        <path d="M91.795060216363709,197.899973497257633c.002724122397922-1.433118014408137-.796003122737602-2.833009800628133-1.710702483320347-3.430824415522693-4.111296078601299-2.687035863474193-1.635525712759772-3.379621681044227,1.022547266356924-4.544270608301304,5.17119221291432-2.265791543178238,10.231711341348273-4.783556546841282,15.352742438039058-7.165389874330685.813988418545705-.378599204618695,1.17393467871625-1.000476846137644,1.36707865310018-1.799399737396016,1.928127422890611.633128401810609,1.740982396664549,2.491625737161485,2.190811432736155,3.925600471377038.962340798036166,3.067769471380416,2.031647248992158,6.059124156048711,4.455362867769509,8.321727702289536,3.601010905862495,3.361649763840433,7.020106774685701,2.776913051862721,9.33230930010177-1.529080401144711,2.620577747884454-4.880299371781803,1.692438798354488-9.754137453257499.1168872962553-14.672292856332206-.50634511096905-1.580590067947924-1.839519788363759-3.020758708454196-1.028957280819668-4.888513163112293,3.229269318269871,1.430431135657273,6.10473788411764.173390298953564,8.891709966341296-1.282029881747803,1.865872225956991-.974411905252055,3.672563443313265-2.02035633752439,5.827041199218002-2.187903825746616-1.065006465074475,11.953769046906018-2.39632511965101,23.892184728815664-3.076248172319538,35.867567827590392-.316629320252105,5.576951740192271-2.340202212999429,9.258500995450049-7.530202291971364,11.189781938415763-12.002849188322216-5.408775453925045-23.506586827452338-11.804757725050877-35.210380191487275-17.804973176038402Z" fill="none" stroke="#181818" stroke-linecap="round" stroke-linejoin="round" stroke-width="43"/>
        <path d="M83.756649135477346,135.877389557504102c-6.638041412750681-4.737696888827486-9.738561279689748-15.177125919944046-6.855496008000046-22.984898164001606,1.009100320767175-2.732798743683816,2.442715125382165-5.043216299989581,5.563197131246852-5.612929835797331,3.17917074894649-.580425272117282,5.468772322365112,1.221411534077561,7.063127954275842,3.502136616453754,4.187032046113018,5.989543300013793,5.971322796023742,12.554922665244703,3.622933836468292,19.811076707034772-.203006317193285.627259218264044-.299924698892937,1.288852372478686-.446558061074029,1.934405601413346-2.158620428566792,3.318437012620961-5.257873978784119,4.12261174082596-8.947204852916911,3.350209074897066Z" fill="none" stroke="#181818" stroke-linecap="round" stroke-linejoin="round" stroke-width="43"/>
        <path d="M122.893139706582588,172.1175306147843c2.970716036556041,6.079736194987163,5.007593685093525,12.293823771568896,2.351313022056274,19.047732164836816-2.491469823555235,6.334864320465385-7.667937307625834,7.108231465884273-12.242053956437303,2.059534267173149-3.198164024739526-3.529993642137924-3.804495695365404-8.029583513166472-5.176339702571568-12.263742054282375.35212640366808-2.587330477904288.245319244109851-5.206215671574682,1.165360318020248-7.750454559005448,2.379268685042916-6.579523594670718,7.480619142050273-7.786857366441836,12.266400094025812-2.779968963969623.541111572234513.56611816912573,1.090026433063031,1.124778058545417,1.635320224906536,1.68689914524748Z" fill="none" stroke="#181818" stroke-linecap="round" stroke-linejoin="round" stroke-width="43"/>
        <path d="M200.695872522859645,135.073819518074743c-.452346962552838.467075081733128-.874370615760199.968931781520041-1.362686617872896,1.394743927060517-1.509877622189379,1.316651350586653-3.060540754215253,2.663105513866867-5.262283553684028,1.603021903581066-2.353372157751437-1.13309661403855-3.063192082894602-3.182029658652937-2.710203024686052-5.606537810261216.146937237048405-1.009305731817221.670515237698055-1.963760263183758,1.022777285181292-2.943170327548614,1.8938268831389-.852463856305803,3.362376385197422-3.054310940859068,5.980980540341989-1.368701985731605,2.737987772079578,1.762458639848774,2.640277909527867,4.251864484923317,2.331415370719697,6.920644292899851Z" fill="none" stroke="#181818" stroke-linecap="round" stroke-linejoin="round" stroke-width="43"/>
        <path d="M159.613436685065608,191.421568931224101c-1.35037974268198,2.755491659470863-3.361874894961147,4.568172211094861-6.531903671317195,3.25810543170428-3.813942305068849-1.576188920000277-2.992143025479891-4.982194325357341-2.644364296769709-8.090161510967846,2.122712914781005-.665827748948686,3.267203561437782-3.682565525605241,6.226563155845724-2.415756650156254,3.456386121073592,1.479566090994922,3.475078946181384,4.219976524607773,2.94970481224118,7.24781272941982Z" fill="none" stroke="#181818" stroke-linecap="round" stroke-linejoin="round" stroke-width="43"/>
        <path d="M180.583079001306032,162.886363324609192c-.359758004135074.368887436738987-.806639423226443.685442634922765-1.064801652162714,1.115354564311019-1.419632644281592,2.364209136446334-3.474849646947405,4.206342883081561-6.074746837821294,2.603058988351222-2.496832676133636-1.539714680627185-4.133411372466071-4.127543102179516-2.352478613447602-7.417259598032615.182361901346667-.336835195069398.217764324670497-.753250791021856.321345224747347-1.132786999333803,5.560490360501717-3.510116743407707,8.623668582940809-1.896252502790958,9.170681878684263,4.831633044704176Z" fill="none" stroke="#181818" stroke-linecap="round" stroke-linejoin="round" stroke-width="43"/>
      </g>
      <g>
        <path d="M221.741113840640537,105.744272190732772c-2.428592294296323,27.001057103021594-4.857184588592645,54.002114206043188-7.285776882887149,81.003171309063873-1.466969840401362,8.013952122521914-6.753000716043971,12.027082151736067-14.21875309249117,14.194735023343128-17.693209866245525,5.137145506767411-35.313557692878021,10.524830325152834-52.964832169293004,15.806229158417409-2.003497119541862.599456744528652-4.010306465339454,1.538947217132772-6.19407244951617.63991477854961-6.078426571082673-2.172603807916857-7.705021360157843-4.645011291536321-7.136255734840233-11.055782030211958,1.690135712886331-19.050052698596119,3.420800804797182-38.096508872020422,5.12953592550366-57.144919198583921.177650943593108-1.980348579983911.472760287531855-3.962177201072336-.006740520786479-5.941635056672567-.155858743735735-5.375793410466031.625704466378011-10.684421976605336,1.178322923316955-16.00909855741611.119214831751378-.676647052138833.341502395234784-1.319145858378761.70241909894321-1.904661453865629,7.358236691838101-9.949124996172031,19.109040826266209-11.117549280659659,29.633056588578256-14.534380161139779,12.701943424248384-4.123929104473973,25.497582928741394-7.977613007717991,38.295631443066668-11.807839711802444.633886991143299-.189713678333646,1.26240221120861-.395879596103441,1.917450818033103-.501908310506224,6.103735307899115-.98796861657047,9.530880565838743,1.283322981315905,10.950014052372353,7.256174210824611Z" fill="#edeaf5" stroke-width="0"/>
        <path d="M143.461679123092836,59.475383924311245l5.557827704091324.499895151648161c-1.750468144013212,4.654912388123194,1.387626458566956,6.722490340846889,4.451287623527605,9.244752003370195,10.190206141811359,8.38943292753811,20.277810486750241,16.906429713825673,30.336082854741107,25.45610713006954,1.789941572946191,1.521475749196725,3.429462462763695,3.070424276309495,1.905920029914341,5.695619483280097-1.329451789973973,1.441285523107581-3.142956710753424,1.946044383654225-4.92267852169789,2.452821826091167-8.298011652994319,2.362874549787193-16.414611999322005,5.327846287306784-24.75230660069974,7.544168923906-5.610783867112332,1.49146440390814-9.784902172033981,4.571748221733287-12.216131507719183,9.901877406120548-.386811755752205.848024602824808-.780862950925439,1.71407598739097-1.873148353164652,1.866285135650287-1.057982402231573-.077159577695966-1.686071883490513-.800628178477382-2.093287325811616-1.62905736212997-2.181640592641998-4.438278154327236-6.149217854441304-6.686331439917922-10.309461603084856-8.880630359155475-14.971777846880286-7.896767888780232-30.069317634923209-15.554582657885476-44.949181061378113-23.625037414870349-2.915970377986014-1.581548786806707-5.779299465149961-2.744977722106341-8.888072048934191-.541480310967017-2.254588750751282.369448520667902-3.810009666660335,3.055008372172779-6.504918448947137,1.980642523968527-.920075818943587-2.884863256270364.86137321888782-4.844573809753456,2.485557340934974-6.732445627656489,2.670125999036827-3.103626218519821,6.143236386109493-5.006592759732484,10.056074857118801-6.153913088665831,18.605506564297684-5.455493852783547,37.283497993021228-10.659259213702171,55.889000346061948-16.114417702172432,1.908845940124593-.559676712240616,3.922217433986589-.42168461719848,5.827434715047275-.965187718486959Z" fill="#ece1e3" stroke-width="0"/>
        <path d="M152.989383758676922,60.332347041422508c8.4607713790665,4.971071431989003,17.5268564994185,8.744570691006629,26.222893802865656,13.250661089526147,1.263265349667563.654599408120703,2.770697315274447.895302701227592,3.603710215422325,2.236938273410487,6.651643187120499,3.672688797135379,12.014865505941998,9.030454781871413,17.845867392647051,13.764230988168492,3.475279581285577,2.821330461239995,3.192507180752727,4.905522271003974-.68723012306873,6.859850317815471-3.668618061439702,1.847970904521389-7.604991683061598,3.027418266457971-11.584382054819798,4.02276488998632-1.007358086599197.251973188183911-2.088850767275289.530978673531536-2.968641457504418-.401111230498827.426753217647274-1.722871922379454-.138438630492601-2.946370739546182-1.536556654935339-4.111029864623561-11.040177671442507-9.196745567919606-21.994377694631112-18.496726082754321-33.030811905702649-27.698022023273552-4.405119148284939-3.672633307948672-4.469068872947901-3.595893966961739-1.834726146396861-8.281350405974081l3.969876931492763.357067965463102Z" fill="#fdf0f1" stroke-width="0"/>
        <path d="M185.421601534219008,100.0656813698306c5.002078844447169-.767894684946441,9.730116577917215-2.467511434564585,14.31101893462619-4.514286645943685,3.258727716283829-1.456027679527324,3.350392997257586-2.772394954325136.618971349800631-5.077401039978213-5.821563677987797-4.912713041999268-11.687777047554846-9.772485994620183-17.535656861784446-14.65400316729756,7.854648393913521,2.781380352676933,14.95313346779767,7.172093856976971,22.510402330017314,10.587075048806582,1.442543757058957.651860267372285,2.784665104072701,1.565040125875385,4.269826384062981,2.076975239677267,7.156053863054694,2.466679238952565,10.26157772339684,8.240157694333902,12.359237725077037,14.877785170664538l-.214287555378178,2.382446214973243c-4.024188849814891-7.062412440831395-5.865702736669846-7.663169240931893-14.923529781974139-4.896187422196817-17.520573183413944,5.352181326229584-35.029401412621155,10.743513956042989-52.574010105583511,16.015718902560366-3.949269906197515,1.186771273656632-7.074130465212875,3.315148290406796-9.685492027680084,6.459485800845869-.641131715152369.771986884975377-1.012403234692101,2.82565920718298-2.914528272731332,1.605965119636494-.91374742777225-1.122005860427635-.749993639496097-2.165383607152762.229839227462435-3.14920624590377,3.258210482495997-9.392016287236402,11.36563486011255-11.876807833107705,19.778816415320762-14.227396462538309,7.996176218724941-2.234076285521951,15.851907249041687-4.971095709885958,23.76939223876434-7.486970513306005Z" fill="#fffefc" stroke-width="0"/>
        <path d="M142.006035558712028,217.00614508950548c-1.354753731073288.389316902148494-2.851930830223864.33414237778743-4.025035026477781,1.290387285333054l-8.733729249284806-.785549524019189c-.747300461955092-.602022317041701-1.494593776438705-1.2040562069933-2.241894238397435-1.806078524035001.085712396958115-.250532254197424.113554472553005-.607672810067015.297347635118058-.719334055455874,5.834442518154901-3.544875529619276,5.905698952405146-9.415539482864006,6.372094288908556-15.251395874671289.841027249471153-10.523510662337685,1.798734968084318-21.038969732837359,2.837422505168433-31.549209593811611.394451369867966-6.944581648474923,1.154281041877766-13.854522190196803,1.79782083929058-20.774073351338302.14415907878174-1.550006171285531.253751821410333-3.176287806072651,1.676175269007217-4.250742030534639,1.028832799611337,1.493840406364143.370611964233831,3.104198424140122.23628022183766,4.637821503020859-1.643398823995085,18.76181063266813-3.333941265289468,37.519490905757266-5.014994311208284,56.277988048920633-.795821767074813,8.88038858440359-.670089580908098,9.124347022241636,6.798512066037802,12.930186116591358Z" fill="#a6aece" stroke-width="0"/>
        <path d="M61.164932427396707,172.241135815166672c.77286253938837-7.960711921137772,1.545725979396593-15.921435977048532,2.318588874448324-23.882153974087487,4.686849802399593-2.701103266343125,9.731055695174291-4.667754723376675,14.618328277487308-6.942475877140168,2.805513051102025-1.305801100222197,4.868604986897481-2.870972773594076,5.618166436832325-5.920996708865459,3.26677022396143-.414522858794044,6.323939073250585-1.400057560600544,9.040490824781955-3.320276000739796,2.155987054356956.922864995857708,4.099861282382335.247181767082111,6.080003063660115-.680628615045862,8.525263402269047-3.994563879372436,17.080800632025785-7.935464994686299,25.512901749461889-12.112788560704757,4.43877907046226-2.19899847693523,8.563803940232901-2.392864061063847,12.953434266855766-.420233122934405,3.2325994028688,1.522471169303572,3.386991761999525,4.696244363722144,4.065072840361609,7.590067304308832-.462272976112217,5.536513000799459-.924557522363102,11.073018853038775-1.386258867634751,16.609015235005245-.79099779455828,8.495371844160218-1.582573822473933,16.991265821183333-2.374149305425817,25.487153739331916-4.681645093194675,2.487294395143181-8.906044344466864,6.621198847049527-14.965344878806718,4.166701542580086-1.341478805881707-.622275021220958-2.213220864196046-1.828517434699279-3.348195005915841-2.708368463393526-3.349783666946678-2.596810257780817-6.904063531072097-1.747325269358953-8.746385482558253,2.046493653838297-1.351044149299923,2.782160027537429-1.482044885760843,5.822355631131359-1.900226765899788,8.802284630774921-.367285640923001,1.986477563395965-1.954824149857814,2.6809692676552-3.553481403527257,3.408713952197104-4.470481387967084,2.035039212054471-8.804863014935108,4.361169448398869-13.307537830613001,6.323084521843157-1.847464835896972.804961108688076-2.677352320937644,1.512982480677238-.939856910539675,3.359460179128291.91912762800348.976779949465708,2.066386332286129,2.226530317641846.944577905998813,3.853784245994575-7.431250154822919-3.801807671065944-14.854994768369579-7.618405439250637-22.296141841083227-11.400739576025444-5.847240833312753-2.972148481164368-8.266120277772643-7.920677109758799-8.333985947883775-14.258098106065518Z" fill="#aeb0bf" stroke-width="0"/>
        <path d="M141.371918761285997,126.551650259957569c-1.732895382872812-2.048308413578525-1.500670364990583-5.289895687147691-4.125226262853175-6.796767281465691-8.820813286220073-5.892517758535178-18.47016880405863-10.283539284082508-27.794799831252021-15.255101307782752-11.291262000648203-6.020106367020162-22.607441582225874-12.001601305581062-34.134676689067419-17.567509211759898,2.39084077526968-2.761100214765975,5.147952150493438-2.235485605459871,7.91846742980124-.785479158915223,11.258968468242529,5.89260994749111,22.501357333898341,11.816980008009523,33.741484223759471,17.745519866013638,3.864565193909584,2.038339191160958,7.586789651710205,4.396282295076162,11.583995377292013,6.121636422361007,5.788624623455689,2.498590448092727,10.566835290894232,5.92498602825799,13.312105932356644,11.766050962330155-.076894664360225,1.049901468565622-.153913812495375,2.099761201069668-.23033018219212,3.149436942364446-.089929888601546.54061363497658-.180475215704064,1.08141623035317-.271019997844633,1.622212766854318Z" fill="#d1c9d3" stroke-width="0"/>
        <path d="M190.61386091469285,128.466108653104129c1.565067654972154-4.26426589224593,4.272392614131604-7.592443875378194,8.367268222184066-9.584160695506398,5.027438505829195-2.445307974028765,9.362687626900879-.022047971519896,10.031853618384048,5.47361843271392.498118820920354,4.090724434136973-.437154199251381,7.830984096531211-2.843944866563106,11.190187998783585-1.881403899375073.417111396963264-3.769984714475868,1.015311437121454-5.586360633797085-.217155866288522-.162782727060403-.201842113070597-.322908199810627-.417340671443526-.382502230117097-.665758201388599q-1.546082221600955-6.446135993904136-7.947382280302918-4.684956826741654c-.837303474387227-.190542166671548-1.389550446558133-.687714343000152-1.638931829787907-1.511774841572333Z" fill="#3f6e7d" stroke-width="0"/>
        <path d="M149.066734189545969,185.669035971464837c1.669235940347789-3.770919537730151,3.8144551373789-7.186913883804664,7.370059605371353-9.472525689599934,2.539823533592426-1.63264361678921,5.280233066532674-2.582670552723357,8.184703349972551-1.077179350142615,2.962174553516888,1.535393899041992,3.560850182335344,4.463455725143831,3.60931516335404,7.417290640494684.045621084143932,2.780689181831804-.615607841051315,5.476826710129899-2.187781444878055,7.862888003204716-1.963016365516523,1.022355561026416-3.901303137885407,2.155533697456121-6.260243390457617,1.401944763869324-.213698911020401-.154999407776813-.464213360733993-.331462814719089-.507109182124623-.569253247247616-1.120486617013739-6.211896635090852-1.828947273636004-7.539646546989388-8.426977438955873-4.286377183205332-.876588499248101-.03090945252552-1.324001066177516-.661186093936522-1.781966662281775-1.276787937373228Z" fill="#40707e" stroke-width="0"/>
        <path d="M170.108022513721153,156.36069394725655c1.864180655862583-3.733363699505389,4.246817046108845-7.027834312627419,8.126478181289713-8.876896668174595,5.408780126261263-2.577827151376368,9.985635043773073.07552238504104,10.319174961234239,6.051840631113919.194880511284282,3.491763553601231-.465455590341662,6.869664692163497-2.513859133105143,9.839646846017786-1.578173008096201.957631316457991-3.20546105054018.936318910190494-4.863501464069486.252643327431542-.765776741116497-.360077059534888-1.078483637196769-1.067492288172616-1.408657099678749-1.794576214392691-2.338979662361453-5.150635062237598-2.589504257895896-5.253322175551148-7.933064801125511-3.443242053555878-1.174474678382467-.167009432379928-1.358527712956857-1.176285469668073-1.726570644545063-2.029415868440083Z" fill="#3f6e7d" stroke-width="0"/>
        <path d="M200.695873067819775,135.07381345920021c1.779604169618324.676676788983059,3.761756031684854-.995248086423089,5.473175301098308.471960196202417-1.160703020183064,2.615011194407998-3.058531786018648,4.59920034391871-5.4614495473852,6.061605236756805-2.825853325601202,1.719802882952536-5.911094838016652,2.896939683014352-8.823889289302315.495344138595101-3.014042902621441-2.485084157000529-3.554473938893352-6.034637828954146-2.861626310168504-9.708553211566141.256658562471785-1.360975158470865,1.045897291818619-2.621501564947721,1.592011820266634-3.927948489274968.58961372284648.35180597679755,1.179461573328808.703724630403485,1.769309423812956,1.05564328401033.140650571260267.229157108258732.252560372091466.47464528292312.234211507828149.729159823013106-.165584253674751,2.29815245087957-1.007833937261239,4.834448334147055,1.450085074004164,6.432987862815025,2.51559792999069,1.636056484047913,3.991644015535712-.939853715037316,5.901642065495253-1.747112248621306.229425257653929-.096971922873308.48749799516554-.013706963677578.726529954350553.136913408069631Z" fill="#3c4c73" stroke-width="0"/>
        <path d="M170.108022513721153,156.36069394725655c.434793171183628.56466060092589.869573682302871,1.129326171043431,1.304366308530007,1.693992830843854.838767158904375.950281586307938.182651986702695,1.982546164580526.156753731647768,2.9777879362764-.051691504624614,1.986193033310883.684901272730713,3.638749990817814,2.445312034029484,4.534250249950674,1.867352011766343.949914286468811,3.159484015321141-.292077303970473,4.369106092379297-1.569122290833548.581006199172407-.613385766220745,1.037691190947953-1.597964787975798,2.199518320998322-1.111239348884737,1.818919675746656.162984635115208,3.637839896451624.325963211354974,5.456748547016105.488934639038234-1.520422250774573,3.368961842904355-3.954531889166901,5.890894336295787-7.254720682964034,7.500467946211756-5.391497714603247,2.629551816925414-10.331998904928696-.453549048891546-10.301900786125771-6.461286850953002.013827619903168-2.761355038663169.322921010894788-5.523405998292219,1.624816434488821-8.053785111649631Z" fill="#3e5074" stroke-width="0"/>
        <path d="M159.613436685065608,191.421568931224101c2.143206862781881-.340693803976137,4.28641263564532-.681375490205028,6.429607383326584-1.022070383866776-1.55528065505132,3.07976348738157-3.351481120011158,5.955756961596308-6.446131620394226,7.760140153317479-2.919495643211121,1.702267314146411-5.982491853112151,2.660256571426544-8.865486067914389.244129354955476-2.886469282733742-2.41904174040792-3.261069393629441-5.831534270031625-2.691150419466794-9.349663259748922.186868303575466-1.153512886330645.675706689489743-2.258084535937996,1.026457139007107-3.385056706669275.609952791233809.078694789714064,1.131073694976294.28971010837995,1.370433919495554.920415746913932.825395072602987.837701464319252.644757528816626,1.926285973097947.772762629629142,2.953846848725334.54895662058334,4.4067566534668,3.070122136605278,5.450671428430724,6.706473558469952,2.786694596116831.529457933762387-.387883044704722,1.009906767227221-.830918532750729,1.697033477847071-.908436349744079Z" fill="#3d4f73" stroke-width="0"/>
        <path d="M75.317215978113381,86.932272458949228c5.40477823078254.311935241938045,9.600652955123223,3.624434328832649,14.144121981073113,5.928033010444778,13.436468134150346,6.812462489931022,26.765768319004565,13.841088423482688,40.035634142666822,20.973785318300543,2.834784602135187,1.523728225515697,6.16410610454659,2.653708337928947,7.749636743756128,5.920839637711651-5.827706508836854-2.83662868299507-10.923458639184901-.350318328173671-16.069276749793062,2.12938776079227-8.177764944837691,3.940773135534982-16.462253138104643,7.665805823246046-24.562859138090062,11.756932232044164-2.089645591267981,1.055358124986014-2.820185021222642-.024204571363043-3.911055720975128-1.114170297877536-.601540822161041-3.638001408718083.951534264117072-7.203320664432795.138956603335828-10.922585799340595-.715101484269326-3.273111684453397-1.551192988525145-6.42146171013701-3.412099180444784-9.204378773260032-1.506229527121832-2.252508226562895-3.398949373231517-4.361709638258617-6.363473793337107-3.985209315925204-3.301193737373978.419250865953472-5.061581968526298,3.067562765375442-5.57864057315237,5.995122400451692-1.16109982866692,6.574091632583986-.354684595018625,12.878980945223702,4.059221268989859,18.29826062794109.814831158453671,1.000418326846557,2.087835822683701,1.684252665574604,2.209267573334728,3.169100297272053.944604198108209,3.077241661693733-.843522441313326,4.34528963140292-3.329062543774853,5.445748946983258-4.434996435109497,1.963568032489093-8.773344592853391,4.14561673663502-13.151183875630522,6.238242608693326-1.200781343990457.573979105482067-2.423038933675343,1.037092321793352-3.793378597956689.797482714352554,1.589261126979181-18.302822395898147,3.178024619919597-36.605756737953016,4.765998552729798-54.909290428981876.434138577538761-1.295730323043244-.104750147625964-2.886402898343476,1.18816339865225-3.921843909984091,2.051788922855849-.656906695633552,3.479691443139018-2.728698867031198,5.880029908616052-2.595457029618046Z" fill="#b9b8c3" stroke-width="0"/>
        <path d="M137.826547669783395,78.362507329242362c7.115285006544582-1.078521105000618,13.989104722473712-.526535108755525,20.387831167705372,3.087646615237645,1.789260280991584,1.010622299012539,3.463149863509898,2.294982278879615,3.253214861704691,4.59108488608581-.208840928746213,2.284006610025244-2.096450709806959,3.390381892627374-4.002810341260556,3.996486706071664-6.063237875740015,1.927752198541384-12.187116898156091,2.207852160146103-18.295980632414285.091961851272572.494399709414211-2.780888870844137,2.963696285485639-1.9893326863521,4.665603950941659-2.557096712662315,1.889115762869551-.630218348385824,5.206157334710952.05519693694896,5.30248765207034-2.162983858678672.101617549156799-2.340104305478235-3.196053332078009-2.544643857056144-5.226971394571592-3.281218159404489-1.353728623558709-.490969978412977-2.777265175041975-.796414234733675-4.125397290892579-1.308598969662853-1.101943859173844-.418655527196279-2.284186790757303-.861165286683899-1.95797797328305-2.457282358259363Z" fill="#cc5865" stroke-width="0"/>
        <path d="M137.826547669783395,78.362507329242362c1.588191183969684,2.389233113263799,4.442474861578376,1.80359620406125,6.627294966683621,2.801098662008371,2.539089708830943,1.159248236056555,6.714173240949094,1.379695567854469,6.456842366160345,4.619401873884271-.209810262547762,2.641579152625127-4.263038971726928,2.027167862280294-6.687645215841258,2.730646730020453-1.689138436906433.490090222633626-3.813307220178103-.260837336156328-5.054316773406754,1.616172212465244-2.251288499915972-.335905307575558-4.287460072260728-1.288085770355792-6.118406191024405-2.541396613740289-3.896354868042181-2.667104544637368-3.608710344578867-6.123803445052545.64738203514753-8.058870705292065,1.28713131915174-.585204898545271,2.747712713699002-.78871116526534,4.128848812280921-1.167052159345985Z" fill="#d25f67" stroke-width="0"/>
        <path d="M91.795060216363709,197.899973497257633c.002724122397922-1.433118014408137-.796003122737602-2.833009800628133-1.710702483320347-3.430824415522693-4.111296078601299-2.687035863474193-1.635525712759772-3.379621681044227,1.022547266356924-4.544270608301304,5.17119221291432-2.265791543178238,10.231711341348273-4.783556546841282,15.352742438039058-7.165389874330685.813988418545705-.378599204618695,1.17393467871625-1.000476846137644,1.36707865310018-1.799399737396016,1.928127422890611.633128401810609,1.740982396664549,2.491625737161485,2.190811432736155,3.925600471377038.962340798036166,3.067769471380416,2.031647248992158,6.059124156048711,4.455362867769509,8.321727702289536,3.601010905862495,3.361649763840433,7.020106774685701,2.776913051862721,9.33230930010177-1.529080401144711,2.620577747884454-4.880299371781803,1.692438798354488-9.754137453257499.1168872962553-14.672292856332206-.50634511096905-1.580590067947924-1.839519788363759-3.020758708454196-1.028957280819668-4.888513163112293,3.229269318269871,1.430431135657273,6.10473788411764.173390298953564,8.891709966341296-1.282029881747803,1.865872225956991-.974411905252055,3.672563443313265-2.02035633752439,5.827041199218002-2.187903825746616-1.065006465074475,11.953769046906018-2.39632511965101,23.892184728815664-3.076248172319538,35.867567827590392-.316629320252105,5.576951740192271-2.340202212999429,9.258500995450049-7.530202291971364,11.189781938415763-12.002849188322216-5.408775453925045-23.506586827452338-11.804757725050877-35.210380191487275-17.804973176038402Z" fill="#a8abbe" stroke-width="0"/>
        <path d="M83.756649135477346,135.877389557504102c-6.638041412750681-4.737696888827486-9.738561279689748-15.177125919944046-6.855496008000046-22.984898164001606,1.009100320767175-2.732798743683816,2.442715125382165-5.043216299989581,5.563197131246852-5.612929835797331,3.17917074894649-.580425272117282,5.468772322365112,1.221411534077561,7.063127954275842,3.502136616453754,4.187032046113018,5.989543300013793,5.971322796023742,12.554922665244703,3.622933836468292,19.811076707034772-.203006317193285.627259218264044-.299924698892937,1.288852372478686-.446558061074029,1.934405601413346-2.158620428566792,3.318437012620961-5.257873978784119,4.12261174082596-8.947204852916911,3.350209074897066Z" fill="#356071" stroke-width="0"/>
        <path d="M122.893139706582588,172.1175306147843c2.970716036556041,6.079736194987163,5.007593685093525,12.293823771568896,2.351313022056274,19.047732164836816-2.491469823555235,6.334864320465385-7.667937307625834,7.108231465884273-12.242053956437303,2.059534267173149-3.198164024739526-3.529993642137924-3.804495695365404-8.029583513166472-5.176339702571568-12.263742054282375.35212640366808-2.587330477904288.245319244109851-5.206215671574682,1.165360318020248-7.750454559005448,2.379268685042916-6.579523594670718,7.480619142050273-7.786857366441836,12.266400094025812-2.779968963969623.541111572234513.56611816912573,1.090026433063031,1.124778058545417,1.635320224906536,1.68689914524748Z" fill="#356071" stroke-width="0"/>
        <path d="M200.695872522859645,135.073819518074743c-.452346962552838.467075081733128-.874370615760199.968931781520041-1.362686617872896,1.394743927060517-1.509877622189379,1.316651350586653-3.060540754215253,2.663105513866867-5.262283553684028,1.603021903581066-2.353372157751437-1.13309661403855-3.063192082894602-3.182029658652937-2.710203024686052-5.606537810261216.146937237048405-1.009305731817221.670515237698055-1.963760263183758,1.022777285181292-2.943170327548614,1.8938268831389-.852463856305803,3.362376385197422-3.054310940859068,5.980980540341989-1.368701985731605,2.737987772079578,1.762458639848774,2.640277909527867,4.251864484923317,2.331415370719697,6.920644292899851Z" fill="#4e6d83" stroke-width="0"/>
        <path d="M159.613436685065608,191.421568931224101c-1.35037974268198,2.755491659470863-3.361874894961147,4.568172211094861-6.531903671317195,3.25810543170428-3.813942305068849-1.576188920000277-2.992143025479891-4.982194325357341-2.644364296769709-8.090161510967846,2.122712914781005-.665827748948686,3.267203561437782-3.682565525605241,6.226563155845724-2.415756650156254,3.456386121073592,1.479566090994922,3.475078946181384,4.219976524607773,2.94970481224118,7.24781272941982Z" fill="#4d6d82" stroke-width="0"/>
        <path d="M180.583079001306032,162.886363324609192c-.359758004135074.368887436738987-.806639423226443.685442634922765-1.064801652162714,1.115354564311019-1.419632644281592,2.364209136446334-3.474849646947405,4.206342883081561-6.074746837821294,2.603058988351222-2.496832676133636-1.539714680627185-4.133411372466071-4.127543102179516-2.352478613447602-7.417259598032615.182361901346667-.336835195069398.217764324670497-.753250791021856.321345224747347-1.132786999333803,5.560490360501717-3.510116743407707,8.623668582940809-1.896252502790958,9.170681878684263,4.831633044704176Z" fill="#4d6d82" stroke-width="0"/>
      </g>
    </g>
  </a>
</svg>