<?xml version="1.0" encoding="UTF-8"?>
<svg id="Layer_1" data-name="Layer 1" xmlns="http://www.w3.org/2000/svg" width="280" height="280" xmlns:xlink="http://www.w3.org/1999/xlink" viewBox="0 0 280 280">
  <a xlink:href="https://www.notion.so/dmmnotes/Transformations-dea6136e589d4869ad05f0598c0a4df9?pvs=4">
    <g>
      <g>
        <path d="M48.489096070647065,209.240362939619445c4.773991628457225-4.635836186249435,9.547985162695113-9.27167212578388,14.321981155997491-13.907507746984265,1.41202400176735,1.271664496573067,3.014067445015826,2.428323729242038,2.827699065115667,4.671221126360251-3.399308577427291,3.081996009501381-6.65038769844432,6.323841635874487-10.023066279031809,9.433181962987874-1.838733322744702,1.695169930510019-3.064559253661173,3.601589013269404-3.323346289619622,6.095208720318624-.974590525684107,1.546075821730483-2.358465249821165.641903435693166-3.602305407135646.601535418125422-.424996490990452-.100826982967192-.758996715029753-.33842560494486-1.002295106087331-.703566516544015.267111629831561-2.063357567210915.534223259663122-4.126715134425467.801332860761249-6.190072964263891Z" fill="none" stroke="#181818" stroke-linecap="round" stroke-linejoin="round" stroke-width="38"/>
        <path d="M215.099707413417491,112.193316671269713c5.767216341715539-1.531265652467482,7.902202321027289,2.312008355147555,9.744409328985057,6.588488863970269l-.667779074577993,5.158393918030924-.482521737641946-.177099640090091-.51107467239126.05458805912167c-.765290889085009-.365466222627219-1.414598297253178-1.02637790931476-2.266310448196236-1.142558386498422-4.152213101355301-.56643890680607-6.07759990986051-2.726219940079318-5.174442614096733-7.011131788334751.26054718213436-1.23613773460238-.343342658549773-2.329097647356321-.642280782080888-3.4706810261996Z" fill="none" stroke="#181818" stroke-linecap="round" stroke-linejoin="round" stroke-width="38"/>
        <path d="M48.640651650981454,215.686673614560277c1.174045208741518-1.264495813304165,2.088876346935649.492578230765503,3.17335258411731.272162018663948,1.38404678679035-.574438230663873,2.564646307466319.148945434939378,3.794760562916053.579122990196993,2.459290866685478,1.460218074340446,5.524683159270353,1.775785566518607,7.5885628338674,3.988892407773164-1.311336126136666.898640684123166-2.622672181627422,1.797265371407775-3.934008307762269,2.69590605553276l-6.188445501864408-.801124240602803c-2.465098266076893-1.594779904622555-5.981202384398784-2.497179836989744-4.434222171274087-6.734959231564062Z" fill="none" stroke="#181818" stroke-linecap="round" stroke-linejoin="round" stroke-width="38"/>
        <path d="M162.561942640106281,124.380672817678715c-28.415025903799688,27.510575502543361-56.82864788659208,55.022605225267398-85.251801462103685,82.524765808266238-.855392324978311.827680213402346-1.810339216037391,1.552374916718691-2.718867239052997,2.325078471856614-4.062798991533782-.531567106143484-5.402685156450389-4.349296527958359-8.019190727805835-6.634679743201559-.532329526764443-.877326917903702-.854703223305478-1.798492592070033-.573666557733304-2.839105744986227,3.554691005016139-6.106731533564016,9.310228271062442-10.156114108967813,14.23948500277038-14.931894319315688,22.997164869240805-22.281150207034443,45.992136869808746-44.564953177314237,69.004194373248538-66.830922505179842,1.367237859576562-1.322909282665933,2.613001415946201-2.788055307339164,4.474076552320184-3.471955929089745.503116997026154-.102387706801892.99813477333737-.063410645725526,1.487094521244217.087072161755714,2.6597818163591,3.098703557014233,7.061784625468135,4.889844801162326,7.358675537112504,9.771641799894496Z" fill="none" stroke="#181818" stroke-linecap="round" stroke-linejoin="round" stroke-width="38"/>
        <path d="M153.970977669272543,115.209589393678471c-11.872192152375646,11.456953901553788-23.752766730420262,22.905235820639064-35.61450343881188,34.373018773150761-15.314577780351101,14.805947299200852-30.620030583615517,29.621350965104284-45.913110367531772,44.449504546813841-2.093728178921083,2.030073181847911-4.093508759029646,4.157124049672348-6.136789008802225,6.23926498748915-.415638790711455.085557656711899-.762841046034737-.031672384830017-1.04164154614773-.351614597155276-.589022763593675-1.651528877620876-2.965716639038874-2.346212120492055-2.453786874217258-4.586978982066285,29.163479763836222-28.063607545129344,58.327023851972626-56.127294796082424,87.49056692116028-84.190974175948213,2.625245196446485.090469455888524,3.562673465981788,1.704214120431061,3.669264314350585,4.067779447716021Z" fill="none" stroke="#181818" stroke-linecap="round" stroke-linejoin="round" stroke-width="38"/>
        <path d="M209.874227409944069,86.484412837246055c-.43410975419647,3.969311610082514-2.038384721816328,7.596004196770082-3.321824890679636,11.315533585253434-.600715789412789,1.740978497382457-1.659513754493673,3.175895769945782-3.642851279955721,3.075009403641161-1.726122320116701-.087804171302196-2.656876013020337-1.485000130676781-3.133512922366208-3.032522665222132-.859173284506141-2.789561627725561-1.935776711727158-5.564058482521432-2.347135212790818-8.427453602469541-.60910212923045-4.240015164697979-2.617466755638816-6.619012031027523-6.77395402150978-8.034013337055512-3.135592169630399-1.067456954984664-8.261981135627138-1.143449101527949-8.200390876456368-5.646518715251659.069360670595415-5.070570272559053,5.60607132594123-4.565501417566338,8.963337409246378-6.181295753680388.273167813849795-.131469485593698.674509187121657.003567164563719,1.016296936672006.014770888796193,6.092642244730087,5.350741877415203,10.80191955598093,12.128388976527276,17.440034857840146,16.916490195988445Z" fill="none" stroke="#181818" stroke-linecap="round" stroke-linejoin="round" stroke-width="38"/>
        <path d="M198.893384326741398,59.78085705189369c.814604928212248-3.40099558028669.612127414874521-8.318414447270698,4.92740511368811-8.568400960026338,4.865729935376294-.281870622122369,4.349759838014506,5.080353571082014,5.160400321174166,8.254334484125138,1.368091549515157,5.356689828880917,2.390417979795529,10.258612378815087,9.164728537858537,11.505656067382006,2.673801474189531.49220716873424,6.771009295725889,1.340653486586234,6.702743575497152,5.323844859585734-.069304487287809,4.044243778595046-4.269777192332185,3.792005254359538-6.906105979365748,5.063106629651884-.598899305261511.288756546666264-1.312141889231498.340265625349275-1.972745607732577.500975344419203-6.07334716452533-4.865985709595407-11.055808931580032-10.830578618244544-16.406892540733679-16.417508350157732-1.477269334738594-1.542382889791043-2.086284753395375-3.582025069170413-.66953342038596-5.662008074979894Z" fill="none" stroke="#181818" stroke-linecap="round" stroke-linejoin="round" stroke-width="38"/>
        <path d="M162.561942640106281,124.380672817678715c-1.761418537102145-3.713839577707404-5.556322272639591-5.677906954360878-7.754183608129097-9.016204616831601-.192956384189529-.672317191336333-.319684793792476-1.432865047690939.132241550871186-1.961572564116068,4.356696529242981-5.096865246459856,8.584873722942575-10.298480890551218,12.774554417228501-15.532202234453507.354651340076089.026360022900917.709294811136715.052719027118656,1.063946151216442.079079050017754.448496441294992.538327618238327.715350820493768,1.153338257729047.838935309331646,1.845341640320839,1.182940831891756,6.624069033154228,1.656293576934331,6.960129585311734,7.684790809104015,5.48952604477563-.49231086220243,9.779632609786859-8.953542752233261,13.405114378716462-14.740284629622693,19.096032680286953Z" fill="none" stroke="#181818" stroke-linecap="round" stroke-linejoin="round" stroke-width="38"/>
        <path d="M195.527273662646621,150.356743838372495c-2.317211722712273,2.945063106111775-1.259922151024512,6.933150409937298-3.145957451657523,10.072955338555403-.750245862009251,1.248964369307942-1.219730762057225,2.509225238385625-2.865471987197452,2.425344365197816-1.375048725160013-.070086363151859-2.059900754136834-1.117734361185285-2.478639355957057-2.295634272582902-.400496843267319-1.12660012838387-.901568360030069-2.265595901912093-1.024800174534903-3.434363918207964-.538957896642387-5.111399878021984-2.88942219382443-8.545417137576806-8.170589993491376-9.682579454733059-1.840989245687524-.396408084197901-3.788150469777975-1.135211534463451-3.674178546825715-3.579016622630661.113203314715065-2.427546471590176,2.295328939411775-2.7430833547769,3.98739177270545-3.426663136533534,1.736012412960918-.701323057814079,3.539056810306647-1.236581650455264,5.312770556824034-1.844526997185312.96153494387363-.568447742944045,2.1698680059053-.839575046535174,2.930956057485673-.121248756549903,3.669352743139825,3.463204828169182,8.824859491147436,5.83070184362623,9.128519122648868,11.885733454670117Z" fill="none" stroke="#181818" stroke-linecap="round" stroke-linejoin="round" stroke-width="38"/>
        <path d="M198.893384326741398,59.78085705189369c-.567503227851375,5.907273279379297,5.098440427696005,7.618250630315742,7.77867372478795,11.308351876263259,2.773157997992712,3.818018131152712,7.1116536674499,6.37463937123357,9.297770720781955,10.771268979930028-2.46098754596278.974858889465395-4.991158611142964,1.858554898537477-6.095212385484047,4.623773204797544-.662239239414703.028844765136455-1.604339162122415.358226133123026-1.94416319373704.041372237790711-5.615512795448012-5.236005352993743-11.701281052231934-10.056721504672169-15.496269982731974-16.9578139606474,4.964563438244113-1.405897227155947,4.535709950305318-6.373015936254887,6.459201116383156-9.786952338134142Z" fill="none" stroke="#181818" stroke-linecap="round" stroke-linejoin="round" stroke-width="38"/>
        <path d="M125.690917338809413,68.267444917111789c1.10518881590815-3.261747086831747,2.198460017366415-6.527601925661656,3.32117245079553-9.783305083634332.477981026131602-1.386088465180364,1.332149684800243-2.620492111080239,2.854937917431016-2.691591096727279,1.680531059533678-.078463802288752,2.22130325510625,1.405800597633061,2.660128357865688,2.741886980707932.485598491090059,1.478482405393152,1.128477514627775,2.95474709487462,1.300316515189479,4.477455539497896.485797774186722,4.304744991230109,2.628828051674645,6.795834373355319,6.920840986955227,7.902380235609598,1.953427857331917.503622453967182,4.840407982708712,1.154211534660135,4.523049314031596,4.159356965321422-.264265859012085,2.502498031864889-2.895465919576964,2.770944184105247-4.732130388651058,3.468256718328121-2.100423587231489.797449849866098-4.268223923349069,1.359928854311875-6.015005131466751,2.868724291129183-3.604882843021187-4.386183128535777-8.826877951222741-7.438744325289008-10.833310022150727-13.143164550232541Z" fill="none" stroke="#181818" stroke-linecap="round" stroke-linejoin="round" stroke-width="38"/>
        <path d="M125.690917338809413,68.267444917111789c3.334753336534959,4.608551779712798,8.943256096558798,7.34191820117303,10.833068287657625,13.142745111397744-.832633713608629,2.984207693896678-1.587849682196975,5.992942913691877-2.534371593008473,8.940218932248172-.412616134768541,1.284809232512998-1.068899050744221,2.698478598451402-2.744286621351421,2.714126513170413-1.662946387048578.015525838312897-2.311772098193615-1.297559374685079-2.794258103840548-2.63692098431784-.407568710799751-1.131397067234502-.987187508904753-2.271145646082005-1.069946617590176-3.437103182823193-.362703547925776-5.11024699963491-2.741630921049364-8.237652916192019-7.954069361279835-9.282770794523458-1.709061733263297-.342675723220964-3.85894764484874-1.119163143825062-3.88848100515861-3.532179226773223-.030521376851539-2.493826155183342,2.256298263069766-2.789171408803668,3.904417619554806-3.525419453073482,2.031974291920051-.907726864124925,4.160901093497159-1.598286246044154,6.247927395016632-2.382696915305132Z" fill="none" stroke="#181818" stroke-linecap="round" stroke-linejoin="round" stroke-width="38"/>
        <path d="M195.527274681597191,150.35673596729066c-3.256112259154179-4.704753089714359-6.244147287012311-9.684470074660567-12.059511750945603-11.764449417429205,2.416552022430551-2.904096513611876,2.40042874001665-6.773477810864279,3.975378545627791-10.00621395392227.649720642165448-1.3336206345557,1.020986377886402-3.094186770109445,3.165395729806733-2.774991042286274,1.672270512714022.248911642145686,2.130268537142911,1.554259630989691,2.533560517897058,2.902592378512054.443991721764178,1.484370423264409,1.121258740924532,2.950065188430017,1.26170081885175,4.464317507237865.389062878104596,4.194579679922754,2.773647402103961,6.370717969817633,6.627185813231335,7.505398926406997,2.056642254543476.605577184329377,4.793726402433094.990525432098366,4.691946158005521,3.929397317533585-.09970428754059,2.879078169529748-2.918063849485407,2.999585360115816-4.905101519501841,3.815659041381878-1.734884741015776.712513170034072-3.524904140809667,1.290729343920248-5.290554312972745,1.92828924256537Z" fill="none" stroke="#181818" stroke-linecap="round" stroke-linejoin="round" stroke-width="38"/>
        <path d="M67.348424370095017,202.17132616458548c2.414290402883125,2.353064578195699,4.828582843665572,4.706113414225911,7.242861443024594,7.059176464401389-3.080218373925163,4.493944292175001-7.096599264785254,8.042469616975723-11.398685242158535,11.297016940074172-3.185516383060531-.012070839142325-5.814251076291839-1.542066126494319-8.425649842843995-3.118955568026649-1.127536643245548-.945976219594741-1.744625383838866-2.042961660185028-1.321316352701615-3.597019840757639.875078832645158-3.212632434948318,10.383768697358391-11.212241975046709,13.902789994679551-11.640217995691273Z" fill="none" stroke="#181818" stroke-linecap="round" stroke-linejoin="round" stroke-width="38"/>
        <path d="M167.714555000076871,97.870693402277539c-2.046402846175624,7.496261303960637-8.807415175269853,11.512604579742401-12.906599242714947,17.493800265623577-.276457578804184-.065119739896545-.555235904845176-.116638713820066-.836750451811895-.154746757725661-1.223340367056153-1.356079184031842-2.446446247771746-2.711991961799868-3.669525464591061-4.067925296774774,3.172777903499082-4.930401693567546,7.933640352870498-8.307874352271028,12.124981473376465-12.223648018769381,1.327487810087405-1.240202269103975,3.303363376608104-1.819063699907929,5.287893685741437-1.04748019235376Z" fill="none" stroke="#181818" stroke-linecap="round" stroke-linejoin="round" stroke-width="38"/>
        <path d="M118.389929109947843,122.779651270411705c-2.162780288294016,3.971463319830946-5.513592271041489,4.827422740305337-9.457766145240385,3.236666435470397-3.629779494005561-1.463960236596904-5.183634773175072-4.457686527537589-4.403677873615379-8.261769508382713.855990455267602-4.174918412241823,3.383866807582308-6.580870574605797,7.960423569129489-6.106833417507005.777006606009309.937108060372339.424221273387957,1.952603081736015.187552550507462,2.949157257487968-.824211269551597,3.470535460262909.343002352568874,5.695620421218337,3.933136535191807,6.546549074286304.80029922972426.189690801234974,2.29198237276978-.094590096305183,1.780331364027006,1.636230158645049Z" fill="none" stroke="#181818" stroke-linecap="round" stroke-linejoin="round" stroke-width="38"/>
        <path d="M162.323477110116073,59.332010819372954c-1.7129840771413,3.881582236585018-4.890413635130244,4.146635507029714-8.169851913447928,2.785222023268943-3.06534297710823-1.272534940117112-4.219245337702887-4.087124766056149-3.332177864562254-7.268888251221142,1.0065475312731-3.610337249014265,3.352466895321413-5.549597811419517,7.36480407365525-4.465327121572045-.980605406941322,4.074587419521777,3.089860465715901,5.812546764140279,4.137225704354933,8.948993349524244Z" fill="none" stroke="#181818" stroke-linecap="round" stroke-linejoin="round" stroke-width="38"/>
        <path d="M118.389929109947843,122.779651270411705c-7.496776242760461-.912392265781818-8.958553128266431-3.670026740310277-5.900946571735403-11.131950935534405,6.344933011112516,1.115476274280809,8.598965553193921,5.367576541928429,5.900946571735403,11.131950935534405Z" fill="none" stroke="#181818" stroke-linecap="round" stroke-linejoin="round" stroke-width="38"/>
        <path d="M215.099707413417491,112.193316671269713c1.276335601603932.492938362534915,3.417252458282746.121191781545349,2.271672340915757,2.778760059163687-1.880462305045512,4.362387258634044-.487755272677532,6.625602776202868,4.435402571454688,6.324962676855648,2.216613025633706-.135342613184548,1.155952635488575,1.549807216651971,1.375714487166988,2.521177029917453-.378785957358559,1.316867062314486-1.255152515239388,2.140575589870423-2.539522199378553,2.559262440632665-8.00040615816215-.816209253982379-11.143628869232998-6.336634706045515-7.669014089833581-13.469032136097667.522753683153496-.79115613779868,1.31620294500317-.777073429953816,2.125746889674701-.715130070471787Z" fill="none" stroke="#181818" stroke-linecap="round" stroke-linejoin="round" stroke-width="38"/>
        <path d="M159.910687015715666,175.410968543495983c-4.519377223889023,3.183449852267586-8.294437167638534,3.029067068049699-11.297029211453264-.462001052246706-2.862791237339479-3.328532220524721-2.45763151034771-7.298378350349594,1.161245661503926-11.378301915839984.78769838073822-.153668218687017,1.50106606598456.199170085288642,1.550758926085109.906032971739478.394471040903227,5.611265258683488,3.936370342027658,8.695603124921035,8.585024623864228,10.934269996347211Z" fill="none" stroke="#181818" stroke-linecap="round" stroke-linejoin="round" stroke-width="38"/>
        <path d="M212.97396052374279,112.9084467417415c-.83368087116105,8.494316527236151-.104681533974144,9.774732507838053,7.668853087507159,13.469163350424424-4.921931739425418,2.246662422694499-8.686464454875022,1.352989493892892-10.993435052556379-2.609957178483455-2.117185493372745-3.636897341699296-.758624876390968-8.074410129296666,3.324581965049219-10.859206171940968Z" fill="none" stroke="#181818" stroke-linecap="round" stroke-linejoin="round" stroke-width="38"/>
        <path d="M159.910687015715666,175.410968543495983c-8.250275909274933.22582963140303-8.753988888633103-6.183286570087148-10.135810213845616-11.84028241087799,1.837864102115418-2.162569183381493,4.163036333697164-1.828840141030014,6.530965844702223-1.276080131334311.698643443243782.931101116559148.488056673548272,1.948614301949419.221951746352715,2.937388334226853-.751492527277151,2.792396163475132-.072072608403687,4.681631898345586,3.05134591465503,5.24269615452431,1.88926563991663.339370032677834,2.697012484461084,1.370507237214042,1.704213374823667,3.274400546237302-.201392309568291.765648830491045-.497263448578451,1.453210293811935-1.372666666688019,1.661877507223835Z" fill="none" stroke="#181818" stroke-linecap="round" stroke-linejoin="round" stroke-width="38"/>
        <path d="M177.302227269728974,105.284640137391762c-1.460983419656259,1.487055381317987-2.624330986343921,3.789475639521697-5.305833531880126,2.313311981148217-2.174016275237591-1.196791205162299-3.72868543804725-2.9398591711888-3.66130492929733-5.610778410889907.034035257885989-1.349064061154422.289135217013609-2.692566847466878.44384898338285-4.037992972498614,4.8790621982007.075770387789817,7.376461819396354,2.920489673564589,8.523289477794606,7.335459402240303Z" fill="none" stroke="#181818" stroke-linecap="round" stroke-linejoin="round" stroke-width="38"/>
        <path d="M161.283353682403686,173.749091036272148c-.212902433229829-.631651132607658-.26476439286489-1.679050047880082-.662621154275257-1.83321692001482q-7.122553790155507-2.759920299966325-4.314967098978741-9.621166069249739c5.962347963279171,1.86564781080051,7.555766232097085,5.532497501870239,4.977588253253998,11.454382989264559Z" fill="none" stroke="#181818" stroke-linecap="round" stroke-linejoin="round" stroke-width="38"/>
        <path d="M162.323477110116073,59.332010819372954c-3.420725349031272-2.038548134676603-7.607391486622873-3.72277344932445-4.137207801055411-8.949008038214743,5.159125292970202,1.701104600730105,6.238012567686383,4.034784169505656,4.137207801055411,8.949008038214743Z" fill="none" stroke="#181818" stroke-linecap="round" stroke-linejoin="round" stroke-width="38"/>
        <path d="M67.348428304601839,202.171326673927979c-4.967031795196817,2.394321397867316-8.043579634984781,6.92693113858877-11.954706090291438,10.519733621023988-1.631581996987734,1.498799218503336-1.245464830408309,3.037500617238038-.626702488305455,4.717368584324504-.984385550735169-.483054450829513-1.968700557499687-.966259829247065-2.953015773491643-1.449529258692564-.389684795676658-1.306164122470364-1.21155897436438-2.733085486768687-.084265268746094-3.924611960796028,4.172179206319925-4.409902106259324,7.841356250275567-9.401401401299154,13.535338934783795-12.114441850166259.347245464265143.117251641131588.694632217573599.234601602734983,1.041758103228858.3517417279254.347022280788224.633111650347928.694307467128965,1.266417394943346,1.041592582821977,1.899739136380958Z" fill="none" stroke="#181818" stroke-linecap="round" stroke-linejoin="round" stroke-width="38"/>
      </g>
      <g>
        <path d="M48.489096070647065,209.240362939619445c4.773991628457225-4.635836186249435,9.547985162695113-9.27167212578388,14.321981155997491-13.907507746984265,1.41202400176735,1.271664496573067,3.014067445015826,2.428323729242038,2.827699065115667,4.671221126360251-3.399308577427291,3.081996009501381-6.65038769844432,6.323841635874487-10.023066279031809,9.433181962987874-1.838733322744702,1.695169930510019-3.064559253661173,3.601589013269404-3.323346289619622,6.095208720318624-.974590525684107,1.546075821730483-2.358465249821165.641903435693166-3.602305407135646.601535418125422-.424996490990452-.100826982967192-.758996715029753-.33842560494486-1.002295106087331-.703566516544015.267111629831561-2.063357567210915.534223259663122-4.126715134425467.801332860761249-6.190072964263891Z" fill="#b0aab6" stroke-width="0"/>
        <path d="M215.099707413417491,112.193316671269713c5.767216341715539-1.531265652467482,7.902202321027289,2.312008355147555,9.744409328985057,6.588488863970269l-.667779074577993,5.158393918030924-.482521737641946-.177099640090091-.51107467239126.05458805912167c-.765290889085009-.365466222627219-1.414598297253178-1.02637790931476-2.266310448196236-1.142558386498422-4.152213101355301-.56643890680607-6.07759990986051-2.726219940079318-5.174442614096733-7.011131788334751.26054718213436-1.23613773460238-.343342658549773-2.329097647356321-.642280782080888-3.4706810261996Z" fill="#f7c35b" stroke-width="0"/>
        <path d="M48.640651650981454,215.686673614560277c1.174045208741518-1.264495813304165,2.088876346935649.492578230765503,3.17335258411731.272162018663948,1.38404678679035-.574438230663873,2.564646307466319.148945434939378,3.794760562916053.579122990196993,2.459290866685478,1.460218074340446,5.524683159270353,1.775785566518607,7.5885628338674,3.988892407773164-1.311336126136666.898640684123166-2.622672181627422,1.797265371407775-3.934008307762269,2.69590605553276l-6.188445501864408-.801124240602803c-2.465098266076893-1.594779904622555-5.981202384398784-2.497179836989744-4.434222171274087-6.734959231564062Z" fill="#a896b9" stroke-width="0"/>
        <path d="M162.561942640106281,124.380672817678715c-28.415025903799688,27.510575502543361-56.82864788659208,55.022605225267398-85.251801462103685,82.524765808266238-.855392324978311.827680213402346-1.810339216037391,1.552374916718691-2.718867239052997,2.325078471856614-4.062798991533782-.531567106143484-5.402685156450389-4.349296527958359-8.019190727805835-6.634679743201559-.532329526764443-.877326917903702-.854703223305478-1.798492592070033-.573666557733304-2.839105744986227,3.554691005016139-6.106731533564016,9.310228271062442-10.156114108967813,14.23948500277038-14.931894319315688,22.997164869240805-22.281150207034443,45.992136869808746-44.564953177314237,69.004194373248538-66.830922505179842,1.367237859576562-1.322909282665933,2.613001415946201-2.788055307339164,4.474076552320184-3.471955929089745.503116997026154-.102387706801892.99813477333737-.063410645725526,1.487094521244217.087072161755714,2.6597818163591,3.098703557014233,7.061784625468135,4.889844801162326,7.358675537112504,9.771641799894496Z" fill="#0f4554" stroke-width="0"/>
        <path d="M153.970977669272543,115.209589393678471c-11.872192152375646,11.456953901553788-23.752766730420262,22.905235820639064-35.61450343881188,34.373018773150761-15.314577780351101,14.805947299200852-30.620030583615517,29.621350965104284-45.913110367531772,44.449504546813841-2.093728178921083,2.030073181847911-4.093508759029646,4.157124049672348-6.136789008802225,6.23926498748915-.415638790711455.085557656711899-.762841046034737-.031672384830017-1.04164154614773-.351614597155276-.589022763593675-1.651528877620876-2.965716639038874-2.346212120492055-2.453786874217258-4.586978982066285,29.163479763836222-28.063607545129344,58.327023851972626-56.127294796082424,87.49056692116028-84.190974175948213,2.625245196446485.090469455888524,3.562673465981788,1.704214120431061,3.669264314350585,4.067779447716021Z" fill="#8b3f71" stroke-width="0"/>
        <path d="M209.874227409944069,86.484412837246055c-.43410975419647,3.969311610082514-2.038384721816328,7.596004196770082-3.321824890679636,11.315533585253434-.600715789412789,1.740978497382457-1.659513754493673,3.175895769945782-3.642851279955721,3.075009403641161-1.726122320116701-.087804171302196-2.656876013020337-1.485000130676781-3.133512922366208-3.032522665222132-.859173284506141-2.789561627725561-1.935776711727158-5.564058482521432-2.347135212790818-8.427453602469541-.60910212923045-4.240015164697979-2.617466755638816-6.619012031027523-6.77395402150978-8.034013337055512-3.135592169630399-1.067456954984664-8.261981135627138-1.143449101527949-8.200390876456368-5.646518715251659.069360670595415-5.070570272559053,5.60607132594123-4.565501417566338,8.963337409246378-6.181295753680388.273167813849795-.131469485593698.674509187121657.003567164563719,1.016296936672006.014770888796193,6.092642244730087,5.350741877415203,10.80191955598093,12.128388976527276,17.440034857840146,16.916490195988445Z" fill="#faab71" stroke-width="0"/>
        <path d="M198.893384326741398,59.78085705189369c.814604928212248-3.40099558028669.612127414874521-8.318414447270698,4.92740511368811-8.568400960026338,4.865729935376294-.281870622122369,4.349759838014506,5.080353571082014,5.160400321174166,8.254334484125138,1.368091549515157,5.356689828880917,2.390417979795529,10.258612378815087,9.164728537858537,11.505656067382006,2.673801474189531.49220716873424,6.771009295725889,1.340653486586234,6.702743575497152,5.323844859585734-.069304487287809,4.044243778595046-4.269777192332185,3.792005254359538-6.906105979365748,5.063106629651884-.598899305261511.288756546666264-1.312141889231498.340265625349275-1.972745607732577.500975344419203-6.07334716452533-4.865985709595407-11.055808931580032-10.830578618244544-16.406892540733679-16.417508350157732-1.477269334738594-1.542382889791043-2.086284753395375-3.582025069170413-.66953342038596-5.662008074979894Z" fill="#fdc965" stroke-width="0"/>
        <path d="M162.561942640106281,124.380672817678715c-1.761418537102145-3.713839577707404-5.556322272639591-5.677906954360878-7.754183608129097-9.016204616831601-.192956384189529-.672317191336333-.319684793792476-1.432865047690939.132241550871186-1.961572564116068,4.356696529242981-5.096865246459856,8.584873722942575-10.298480890551218,12.774554417228501-15.532202234453507.354651340076089.026360022900917.709294811136715.052719027118656,1.063946151216442.079079050017754.448496441294992.538327618238327.715350820493768,1.153338257729047.838935309331646,1.845341640320839,1.182940831891756,6.624069033154228,1.656293576934331,6.960129585311734,7.684790809104015,5.48952604477563-.49231086220243,9.779632609786859-8.953542752233261,13.405114378716462-14.740284629622693,19.096032680286953Z" fill="#cdc6d5" stroke-width="0"/>
        <path d="M195.527273662646621,150.356743838372495c-2.317211722712273,2.945063106111775-1.259922151024512,6.933150409937298-3.145957451657523,10.072955338555403-.750245862009251,1.248964369307942-1.219730762057225,2.509225238385625-2.865471987197452,2.425344365197816-1.375048725160013-.070086363151859-2.059900754136834-1.117734361185285-2.478639355957057-2.295634272582902-.400496843267319-1.12660012838387-.901568360030069-2.265595901912093-1.024800174534903-3.434363918207964-.538957896642387-5.111399878021984-2.88942219382443-8.545417137576806-8.170589993491376-9.682579454733059-1.840989245687524-.396408084197901-3.788150469777975-1.135211534463451-3.674178546825715-3.579016622630661.113203314715065-2.427546471590176,2.295328939411775-2.7430833547769,3.98739177270545-3.426663136533534,1.736012412960918-.701323057814079,3.539056810306647-1.236581650455264,5.312770556824034-1.844526997185312.96153494387363-.568447742944045,2.1698680059053-.839575046535174,2.930956057485673-.121248756549903,3.669352743139825,3.463204828169182,8.824859491147436,5.83070184362623,9.128519122648868,11.885733454670117Z" fill="#fcb643" stroke-width="0"/>
        <path d="M198.893384326741398,59.78085705189369c-.567503227851375,5.907273279379297,5.098440427696005,7.618250630315742,7.77867372478795,11.308351876263259,2.773157997992712,3.818018131152712,7.1116536674499,6.37463937123357,9.297770720781955,10.771268979930028-2.46098754596278.974858889465395-4.991158611142964,1.858554898537477-6.095212385484047,4.623773204797544-.662239239414703.028844765136455-1.604339162122415.358226133123026-1.94416319373704.041372237790711-5.615512795448012-5.236005352993743-11.701281052231934-10.056721504672169-15.496269982731974-16.9578139606474,4.964563438244113-1.405897227155947,4.535709950305318-6.373015936254887,6.459201116383156-9.786952338134142Z" fill="#fcba6c" stroke-width="0"/>
        <path d="M125.690917338809413,68.267444917111789c1.10518881590815-3.261747086831747,2.198460017366415-6.527601925661656,3.32117245079553-9.783305083634332.477981026131602-1.386088465180364,1.332149684800243-2.620492111080239,2.854937917431016-2.691591096727279,1.680531059533678-.078463802288752,2.22130325510625,1.405800597633061,2.660128357865688,2.741886980707932.485598491090059,1.478482405393152,1.128477514627775,2.95474709487462,1.300316515189479,4.477455539497896.485797774186722,4.304744991230109,2.628828051674645,6.795834373355319,6.920840986955227,7.902380235609598,1.953427857331917.503622453967182,4.840407982708712,1.154211534660135,4.523049314031596,4.159356965321422-.264265859012085,2.502498031864889-2.895465919576964,2.770944184105247-4.732130388651058,3.468256718328121-2.100423587231489.797449849866098-4.268223923349069,1.359928854311875-6.015005131466751,2.868724291129183-3.604882843021187-4.386183128535777-8.826877951222741-7.438744325289008-10.833310022150727-13.143164550232541Z" fill="#feca5c" stroke-width="0"/>
        <path d="M125.690917338809413,68.267444917111789c3.334753336534959,4.608551779712798,8.943256096558798,7.34191820117303,10.833068287657625,13.142745111397744-.832633713608629,2.984207693896678-1.587849682196975,5.992942913691877-2.534371593008473,8.940218932248172-.412616134768541,1.284809232512998-1.068899050744221,2.698478598451402-2.744286621351421,2.714126513170413-1.662946387048578.015525838312897-2.311772098193615-1.297559374685079-2.794258103840548-2.63692098431784-.407568710799751-1.131397067234502-.987187508904753-2.271145646082005-1.069946617590176-3.437103182823193-.362703547925776-5.11024699963491-2.741630921049364-8.237652916192019-7.954069361279835-9.282770794523458-1.709061733263297-.342675723220964-3.85894764484874-1.119163143825062-3.88848100515861-3.532179226773223-.030521376851539-2.493826155183342,2.256298263069766-2.789171408803668,3.904417619554806-3.525419453073482,2.031974291920051-.907726864124925,4.160901093497159-1.598286246044154,6.247927395016632-2.382696915305132Z" fill="#fcb442" stroke-width="0"/>
        <path d="M195.527274681597191,150.35673596729066c-3.256112259154179-4.704753089714359-6.244147287012311-9.684470074660567-12.059511750945603-11.764449417429205,2.416552022430551-2.904096513611876,2.40042874001665-6.773477810864279,3.975378545627791-10.00621395392227.649720642165448-1.3336206345557,1.020986377886402-3.094186770109445,3.165395729806733-2.774991042286274,1.672270512714022.248911642145686,2.130268537142911,1.554259630989691,2.533560517897058,2.902592378512054.443991721764178,1.484370423264409,1.121258740924532,2.950065188430017,1.26170081885175,4.464317507237865.389062878104596,4.194579679922754,2.773647402103961,6.370717969817633,6.627185813231335,7.505398926406997,2.056642254543476.605577184329377,4.793726402433094.990525432098366,4.691946158005521,3.929397317533585-.09970428754059,2.879078169529748-2.918063849485407,2.999585360115816-4.905101519501841,3.815659041381878-1.734884741015776.712513170034072-3.524904140809667,1.290729343920248-5.290554312972745,1.92828924256537Z" fill="#fecb5d" stroke-width="0"/>
        <path d="M67.348424370095017,202.17132616458548c2.414290402883125,2.353064578195699,4.828582843665572,4.706113414225911,7.242861443024594,7.059176464401389-3.080218373925163,4.493944292175001-7.096599264785254,8.042469616975723-11.398685242158535,11.297016940074172-3.185516383060531-.012070839142325-5.814251076291839-1.542066126494319-8.425649842843995-3.118955568026649-1.127536643245548-.945976219594741-1.744625383838866-2.042961660185028-1.321316352701615-3.597019840757639.875078832645158-3.212632434948318,10.383768697358391-11.212241975046709,13.902789994679551-11.640217995691273Z" fill="#cec4db" stroke-width="0"/>
        <path d="M167.714555000076871,97.870693402277539c-2.046402846175624,7.496261303960637-8.807415175269853,11.512604579742401-12.906599242714947,17.493800265623577-.276457578804184-.065119739896545-.555235904845176-.116638713820066-.836750451811895-.154746757725661-1.223340367056153-1.356079184031842-2.446446247771746-2.711991961799868-3.669525464591061-4.067925296774774,3.172777903499082-4.930401693567546,7.933640352870498-8.307874352271028,12.124981473376465-12.223648018769381,1.327487810087405-1.240202269103975,3.303363376608104-1.819063699907929,5.287893685741437-1.04748019235376Z" fill="#c5c1c8" stroke-width="0"/>
        <path d="M118.389929109947843,122.779651270411705c-2.162780288294016,3.971463319830946-5.513592271041489,4.827422740305337-9.457766145240385,3.236666435470397-3.629779494005561-1.463960236596904-5.183634773175072-4.457686527537589-4.403677873615379-8.261769508382713.855990455267602-4.174918412241823,3.383866807582308-6.580870574605797,7.960423569129489-6.106833417507005.777006606009309.937108060372339.424221273387957,1.952603081736015.187552550507462,2.949157257487968-.824211269551597,3.470535460262909.343002352568874,5.695620421218337,3.933136535191807,6.546549074286304.80029922972426.189690801234974,2.29198237276978-.094590096305183,1.780331364027006,1.636230158645049Z" fill="#eca13c" stroke-width="0"/>
        <path d="M162.323477110116073,59.332010819372954c-1.7129840771413,3.881582236585018-4.890413635130244,4.146635507029714-8.169851913447928,2.785222023268943-3.06534297710823-1.272534940117112-4.219245337702887-4.087124766056149-3.332177864562254-7.268888251221142,1.0065475312731-3.610337249014265,3.352466895321413-5.549597811419517,7.36480407365525-4.465327121572045-.980605406941322,4.074587419521777,3.089860465715901,5.812546764140279,4.137225704354933,8.948993349524244Z" fill="#eea741" stroke-width="0"/>
        <path d="M118.389929109947843,122.779651270411705c-7.496776242760461-.912392265781818-8.958553128266431-3.670026740310277-5.900946571735403-11.131950935534405,6.344933011112516,1.115476274280809,8.598965553193921,5.367576541928429,5.900946571735403,11.131950935534405Z" fill="#f6be52" stroke-width="0"/>
        <path d="M215.099707413417491,112.193316671269713c1.276335601603932.492938362534915,3.417252458282746.121191781545349,2.271672340915757,2.778760059163687-1.880462305045512,4.362387258634044-.487755272677532,6.625602776202868,4.435402571454688,6.324962676855648,2.216613025633706-.135342613184548,1.155952635488575,1.549807216651971,1.375714487166988,2.521177029917453-.378785957358559,1.316867062314486-1.255152515239388,2.140575589870423-2.539522199378553,2.559262440632665-8.00040615816215-.816209253982379-11.143628869232998-6.336634706045515-7.669014089833581-13.469032136097667.522753683153496-.79115613779868,1.31620294500317-.777073429953816,2.125746889674701-.715130070471787Z" fill="#efab41" stroke-width="0"/>
        <path d="M159.910687015715666,175.410968543495983c-4.519377223889023,3.183449852267586-8.294437167638534,3.029067068049699-11.297029211453264-.462001052246706-2.862791237339479-3.328532220524721-2.45763151034771-7.298378350349594,1.161245661503926-11.378301915839984.78769838073822-.153668218687017,1.50106606598456.199170085288642,1.550758926085109.906032971739478.394471040903227,5.611265258683488,3.936370342027658,8.695603124921035,8.585024623864228,10.934269996347211Z" fill="#e99937" stroke-width="0"/>
        <path d="M212.97396052374279,112.9084467417415c-.83368087116105,8.494316527236151-.104681533974144,9.774732507838053,7.668853087507159,13.469163350424424-4.921931739425418,2.246662422694499-8.686464454875022,1.352989493892892-10.993435052556379-2.609957178483455-2.117185493372745-3.636897341699296-.758624876390968-8.074410129296666,3.324581965049219-10.859206171940968Z" fill="#e99939" stroke-width="0"/>
        <path d="M159.910687015715666,175.410968543495983c-8.250275909274933.22582963140303-8.753988888633103-6.183286570087148-10.135810213845616-11.84028241087799,1.837864102115418-2.162569183381493,4.163036333697164-1.828840141030014,6.530965844702223-1.276080131334311.698643443243782.931101116559148.488056673548272,1.948614301949419.221951746352715,2.937388334226853-.751492527277151,2.792396163475132-.072072608403687,4.681631898345586,3.05134591465503,5.24269615452431,1.88926563991663.339370032677834,2.697012484461084,1.370507237214042,1.704213374823667,3.274400546237302-.201392309568291.765648830491045-.497263448578451,1.453210293811935-1.372666666688019,1.661877507223835Z" fill="#efac42" stroke-width="0"/>
        <path d="M177.302227269728974,105.284640137391762c-1.460983419656259,1.487055381317987-2.624330986343921,3.789475639521697-5.305833531880126,2.313311981148217-2.174016275237591-1.196791205162299-3.72868543804725-2.9398591711888-3.66130492929733-5.610778410889907.034035257885989-1.349064061154422.289135217013609-2.692566847466878.44384898338285-4.037992972498614,4.8790621982007.075770387789817,7.376461819396354,2.920489673564589,8.523289477794606,7.335459402240303Z" fill="#ddd8e3" stroke-width="0"/>
        <path d="M161.283353682403686,173.749091036272148c-.212902433229829-.631651132607658-.26476439286489-1.679050047880082-.662621154275257-1.83321692001482q-7.122553790155507-2.759920299966325-4.314967098978741-9.621166069249739c5.962347963279171,1.86564781080051,7.555766232097085,5.532497501870239,4.977588253253998,11.454382989264559Z" fill="#f7c155" stroke-width="0"/>
        <path d="M162.323477110116073,59.332010819372954c-3.420725349031272-2.038548134676603-7.607391486622873-3.72277344932445-4.137207801055411-8.949008038214743,5.159125292970202,1.701104600730105,6.238012567686383,4.034784169505656,4.137207801055411,8.949008038214743Z" fill="#f7c35b" stroke-width="0"/>
        <path d="M67.348428304601839,202.171326673927979c-4.967031795196817,2.394321397867316-8.043579634984781,6.92693113858877-11.954706090291438,10.519733621023988-1.631581996987734,1.498799218503336-1.245464830408309,3.037500617238038-.626702488305455,4.717368584324504-.984385550735169-.483054450829513-1.968700557499687-.966259829247065-2.953015773491643-1.449529258692564-.389684795676658-1.306164122470364-1.21155897436438-2.733085486768687-.084265268746094-3.924611960796028,4.172179206319925-4.409902106259324,7.841356250275567-9.401401401299154,13.535338934783795-12.114441850166259.347245464265143.117251641131588.694632217573599.234601602734983,1.041758103228858.3517417279254.347022280788224.633111650347928.694307467128965,1.266417394943346,1.041592582821977,1.899739136380958Z" fill="#bfb7c8" stroke-width="0"/>
      </g>
    </g>
  </a>
</svg>