<?xml version="1.0" encoding="UTF-8"?>
<svg id="Layer_1" data-name="Layer 1" xmlns="http://www.w3.org/2000/svg" width="280" height="280" viewBox="0 0 280 280">
  <g>
    <g>
      <path d="M186.14513247636387,87.236781944940958c-5.889239044681744-17.647009689742845-16.920892936339442-31.472267773055137-32.730118703848348-41.279322753873203-9.131063793105568-5.664263600037884-18.982064734198502-9.632744686539809-29.847469062873643-10.560981407608779.124776825588924,1.726849406762994-1.089028088554187,2.571831394245237-2.253758027300137,3.471512092781268-3.020960253063095,2.333177658087152-5.365520902836579,5.345556343665521-7.259830494511334,8.545138982228309-1.246988063821846,2.106213505996493-2.689355327855083,2.710454011563343-4.856765130482017,3.025818023166721-2.838473316671298.41315095979553-5.837426217261964.055180211793413-8.487166901439195,1.528745428186085,1.198550527935367-.067505001377867,2.397090087049946-.135098429678692,3.59564061499259-.202603431056559.000088426922957-.000010968824427-.000021937648853-.000176853849553.000055520453316-.000276249596936,6.389478292388958-.819243003479642,12.7839048773385-1.600042232732449,19.164565734989083-2.480234677050248,2.088814941944293-.288106224568764,3.636699249716912.149388541032749,4.258755243161431,2.331819496075695.441310535394223,1.548324841394788,1.486878772666387,1.961573686112388,2.987197203101459,2.103192788410524,3.936565106449052.371408625134791,7.762430620929081-.323325880865013,11.540007558038269-1.168480376098159,1.696209950370758-.37974387721988,3.309452402438183-.513414058070339,5.019418009891524-.454366569298145,1.548754090221337.053634927746316,2.681870983102272.496607859851792,2.836988179244145,2.138705366092836.159560394033178,1.688774600561374-.735602126251251,2.85068746235811-2.387827435461077,3.127555830036727-2.635318970162189.441823416980696-5.310121970487671.643514391818826-7.950489834012842,1.059835919277248-6.754251194661265,1.064896663503532-10.125335689532221,5.305763810525605-9.747691492046215,12.108361834369134.060229227377931,1.084884142428564-.09305574951577,2.180630397420828-.045482541081583,3.266994654848531.076744097770643,1.750765083917941-.614782038108387,2.898910890064144-2.435617214336162,2.905154148205838-1.698201235703891.006115566919107-2.630163491554413-1.066348888085486-2.887190497889605-2.709901743079172-.169052040746465-1.080543660274998-.226513509138385-2.182202246296583-.452971679234906-3.249250108376145-.343367824532834-1.617938067489376-1.175161940525868-2.893356934086114-2.780670943253426-3.578251381433802-2.609971189478529-1.113478028384634-11.97380016657371.662284835330865-14.068559271992854,2.697585840898682.270651519400417,2.926004215878493,2.122296846015161,3.498211342974173,4.587376427552954,2.990500965215688,3.038384321334888-.625604668701271,5.681727493778453.059128489825525,6.949866243798169,2.968786350964365,1.397610720428929,3.206417436846095.606374680128283,6.089954548573587-2.607144823203271,7.987664960599432.10200215453915,2.568200304323909,1.083083251587595,4.717050448491136,3.051624732166601,6.394497728544593.000099395751022.000077458098531.000121333399875.000254311946264.000220729152716.000331770046614,1.778367829709168-2.137200596180264,3.609635458940829-4.232298245500715,5.319408577050126-6.422314972865934,1.570360184643505-2.011734337389498,3.461390093529189-2.279436752729453,5.410329042118974-.911300236648458,2.138201980220401,1.50124905271332,2.351712697900439,3.583694083748924.8352272471584,5.705469388723941-2.041266040410846,2.855967909630635-4.164726130280542,5.652995087621093-6.253075554295719,8.475386675849222,13.655399955761823,14.464924535759565,30.254918877930322,22.436918682926262,50.282903404438912,23.222810227389346,5.037813664715941.197723153709376,9.882935504292618-.814870965052251,14.824227140565199-1.164371638071316,1.257823098625522-10.90323474732395-.175507225283582-21.576622174730801-3.611982000611533-31.874212926853943Z" fill="none" stroke="#3a3559" stroke-linecap="round" stroke-linejoin="round" stroke-width="40.876930183141539"/>
      <path d="M124.649983931971292,97.052556282476871c-.505697676459022.503675345255033-.989292384720102,1.032083938391224-1.521067506655527,1.50649094336768-1.728050821175202,1.541773237382586-3.740625928354348,1.932746584692723-5.495803496836743.392335913535135-1.701862306281328-1.493510732760114-1.876307346707108-3.513640544544614-.508960881194071-5.492111380393908.745726638828273-1.078908791469075,1.47632183357382-2.168331299440979,2.213721167176118-3.253569717400751-.000021937648853-.000176853845915.000154916204337-.000198791494768.000221405478442-.000386614166928-.000099395752841-.00007745810035-.000121333401694-.000254311948083-.000220729152716-.000331770046614-1.968541480579006-1.677447280053457-2.949622577627451-3.826297424220684-3.051624732166601-6.394497728544593-5.143543180069173,1.07582944130445-6.632559005867734,3.062927921891969-6.185558149019926,8.334215778546422.122872442638254,1.448744259470914.308765933710674,2.895237966862624.538092747510746,4.331405718781753.362701240073875,2.271797005294502.614515633329574,4.275056826456421-2.450759227765957,5.07764620648959-1.735073036006725.454419313979088-1.990229651841219,2.177308053913293-1.727265068104316,3.923739209709311.432964591733253,2.876599523711775.762819332294384,5.770299002224419,1.075101757958691,8.66348459382607.209116301275571,1.936995591498999-.113045099631563,3.737871000572341-2.299173606033946,4.35472903785012-2.118560191671349.597702092036343-3.457200022618053-.53942409803858-4.339313437500095-2.367438810115345-1.471476160613747-3.049105434878584-2.923336718504288-6.108006644826673-4.420885676257967-9.144360427795618-1.794613990163271-3.638971524915178-3.127506069287847-4.131148487575047-6.877769758806608-2.620644436314251-.000607343314186-.000553175519599-.001214686628373-.00110635103556-.001910456867336-.001648557732551.000264604452241.000685477742081.000617635818344.001359986657917.000893209082278.002133891322956-1.41336936503285,2.109792466611907-2.07018585780861,4.519277917626823-2.735575704235089,6.925517039340775-.000088426922957.000010968824427-.000066489274104.000187822673979-.000132978557303.000375645346139.000243343129114-.000209760321013.00033177005389-.00022072914544.000597050822762-.000253635620538,3.78339765509736,2.99756892368714,6.330779757321579,7.188018234490301,9.905599978843384,10.352785514409334,1.917616659880878,1.697591476979142,2.905419903123402,4.947300897267269,6.399959325766758,4.400871710249703.000198791494768.000154916197062.000309156077492.000320801222188.00050794757226.000475717419249,2.174868484289618-3.33081608898101,5.569367730948215-2.777149636347531,8.772396198695787-2.664652275550907.625018529275621.021775254343083,1.393277965995367.530208741787646,1.811777598586559,1.044855774080133,1.501432127370208,1.846546342421789,1.075479996587092,8.167810453969651-.579237862904847,10.047426236516912-.213268260804398,2.097494037903743,1.539804311703847,2.78635142764324,2.748638914985349,3.886784096834162,1.124402913605081,1.023452845087377,2.775902290510203,1.552876847947118,3.159918598714285,3.289320372343354-.000154916197062.000198791498406-.000287894743451.000574436842726-.000354384017555.000762259516705.000088426922957-.000010968824427.000265280768872-.000032906475099.000331770042976-.000220729149078,4.209578881056586-1.806134602073143,8.292757395134686-3.696792898586864,12.973951815172768-4.447883480421297,6.361408012722677-1.020925584456563,11.626738132517858,1.150658100563305,16.917442956808372,3.933600131895219,3.260103710841577-.476944463040127,6.192555644825916.926500991152352,9.185317124922221,1.756444758108046,4.328674978134586,1.20026339906326,8.767458825665017,1.757996528182048,13.132108817177141,2.71119151111634,4.765889944139417,1.041337257351188,8.228797585948996-.654758514610876,10.943202791162548-4.521910127697993.961715283689045-1.370214968688742,1.831519491955987-2.879153691979809,3.327849866431279-3.807666524253364-.000044551623432.000364676518075-.000111040897536.000552499192054-.000089103248683.000729353037968.000154916197062-.000198791494768.000132978548208-.00037564534432.000265957094598-.000751290686821,2.843049146475096-5.719623461542142,3.289380553786032-11.993134476491832,4.195290012015903-18.160599193734015l-.000353707691829.000043875299525c-4.941291636272581.349500673019065-9.786413475849258,1.362094791780692-14.824227140565199,1.164371638071316-20.02798452650859-.785891544463084-36.627503448677089-8.757885691629781-50.282903404438912-23.222810227389346ZM137.5740591688118,130.99081309034591c-3.171888394881535-.647543185872564-6.341049242295412-1.562632426992423-9.325485348937946-2.806811165908584-3.199203966651112-1.333902737995231-4.711749973177575-7.927933469638447-2.809221165292911-10.888982495094751.713462013978642-1.110282850888325,1.699821628995778-1.68031546549355,2.621417592814396-1.664980658028071,2.813998709571024-.266634543781038,13.763308232470081,8.212292789610729,14.184622209944791,10.644632152183476.503932184625228,2.909457842042684-1.681261003237523,5.326799188931545-4.671333288528331,4.716142166847931Z" fill="none" stroke="#3a3559" stroke-linecap="round" stroke-linejoin="round" stroke-width="40.876930183141539"/>
      <path d="M168.79268275553477,160.192829254096068c-1.684038968078312,1.046073864194113-3.336840188301721,1.85249079442292-5.33795207590083,1.806752204074655-.000066489274104.000187822670341-.000132978555484.000375645346139-.000309832403218.000397582994992-.865293194516198,1.014008963264132-1.766987170622087,1.999491408361791-2.587795621444457,3.048566276600468-1.776238401800583,2.270181163123198-3.839673324093383,4.232280612393879-6.70573952488121,2.04663181374417-2.543378315318478-1.939613174550686-1.763636052593938-4.471373571072036-.201384252502976-6.792407851211465-1.793656865003868-.288578402180065-3.587468646213892-.576958012863543-5.381103573568907-.865359561192236-.000154916197062.000198791496587-.00028789474527.000574436840907-.000354384017555.000762259514886-2.847059151361464,5.024985742513309-10.916443365820669,7.019892076528777-15.307112350565149,3.416164055463014-2.644486295237584-2.170575150583318-5.218676919184873-2.491088397433487-8.41363927844759-2.061551267315735-10.905113901171717,1.466025242008982-11.312979812206322.832257908254178-12.941286682982536-9.869020632073443-.928751133962578-6.103299499802233,3.242182883272108-7.385668458371583,7.165790998267767-9.275747546415005.000066489274104-.000187822673979.000199467820494-.000563468018299.000354384017555-.000762259516705-.384016308204082-1.736443524396236-2.035515685109203-2.265867527255978-3.159918598714285-3.289320372343354-1.208834603281502-1.100432669190923-2.961907175789747-1.789290058930419-2.748638914985349-3.886784096834162-8.795630018576048.718426368637665-8.865036466522724,2.807413123684455-10.005555599174841-8.426834569057974.000221405471166-.000386614170566.000486686241857-.000419520643845.000619664797341-.000795165988166-.000198791494768-.000154916197062-.000309156077492-.000320801222188-.00050794757226-.000475717419249-3.494539422643356.546429187017566-4.482342665885881-2.703280233270561-6.399959325766758-4.400871710249703-3.574820221521804-3.164767279919033-6.122202323746023-7.355216590722193-9.905599978843384-10.352785514409334-.000265280768872.000032906475099-.000353707693648.000043875299525-.000597050822762.000253635620538-1.552422522870984,4.324232064160242-3.111496297389749,8.646236399456029-4.654991758918186,12.973670917623167-.651072064481923,1.825333453551139-1.565486136922118,3.432107351727609-3.807937074718211,3.251814636072595-2.321887311523824-.186600871578776-3.361377876277402-1.714058900208329-3.465864702249746-3.943990694950116-.160180112727176-3.413606162072028-.472292227306752-6.605087088119035-5.08420171420039-6.82780693946188-1.051601335631858-.050746476115819-1.64975199125729-1.328929437906481-1.793027749963585-2.506408681851099-.146828981554791-1.206847951491-.325623957924108-2.410089864988549-.451695226345691-3.618973959899449-.171701788081918-1.646953928595394-.51078610255172-3.377298614603205-2.4153078020463-3.605614959375089-1.875060359476265-.22460826736642-2.76088484344109,1.18485775377485-3.093472038350228,2.907474658906722l.000088426922957-.000010968824427c1.097112480794749,6.344415336052407.66770138033462,7.230011680872849-4.558501012726992,9.398393506175125l.000176853845915-.000021937648853c.866966261723064,4.135098930604727,3.959229150179453,6.879002036601378,6.460246963148165,9.908144109924251,7.009411677921889,8.489618947485724,14.838339760932286,16.152098521355583,23.096799775126783,23.481519284183378,10.763265118990603,9.552339660194775,22.809899703470364,17.012359367479803,35.131717570946421,24.228320985428581,7.096006747124193,4.155607295017035,14.448200705435738,4.084921391540774,22.129213971073113,3.006794786191676,1.460835100901022-.204911661836377,3.322033444543194-1.503535477260812,4.552726839470779.632309280386835l.000176853845915-.000021937648853c11.267180985061714-5.763814098878356,20.335519776281217-13.982441028842004,27.347592989994155-24.496685101972616-.000110364573629-.000165885021488-.00022072914544-.000331770044795-.00039758299863-.000309832395942-.000066489274104.000187822673979-.000154916198881.000198791498406-.000309832395942.000397582993173-3.060750701941288.317175468657297-5.054722185877836,2.618495329439611-7.462343803948897,4.114193702156626ZM98.504660392554797,134.729695985302897c-.894405400507821,1.29685940606214-1.975051160068688,2.114369726587029-3.652107689102195,1.449124821585428-1.471167120775135-.583398341741486-1.753401898622542-1.841688554384746-1.88862234753833-3.216981298761311-.117812481448709-1.200211493101961-.326282468531645-2.391511947460458-.443940033790568-3.591922232059005-.375675371480611-3.834196804742533,1.159760755423122-4.836876449877309,4.919403142601368-3.23165920296924.000242666792474.000508623894348.000330417389705.001216039285282.000396230338083.001746600826664,1.380325807122063,2.73627906450929,1.725835875979101,5.600561607030613,1.064870697491642,8.589691311377464Z" fill="none" stroke="#3a3559" stroke-linecap="round" stroke-linejoin="round" stroke-width="40.876930183141539"/>
      <path d="M144.355237291567391,179.942945560576845c-7.681013265637375,1.078126605349098-15.033207223948921,1.148812508825358-22.129213971073113-3.006794786191676-12.321817867476057-7.215961617948778-24.368452451955818-14.675981325233806-35.131717570946421-24.228320985428581-8.258460014194497-7.329420762827795-16.087388097204894-14.991900336697654-23.096799775126783-23.481519284183378-2.501017812968712-3.029142073322873-5.593280701425101-5.773045179319524-6.460246963148165-9.908144109924251l-.000176853845915.000021937648853-.000265280777967.00003290647328c-2.982977998679416.376664641527896-5.613009173213868.226311824948425-6.455161296946244-3.500279065205177-.22628801787323-1.001254701503058-1.315096492176963-1.421440749569229-2.380999157394399-1.213980017642825-1.570677362935385.305989993628828-2.099188765509098,1.598585157542402-2.320823450001626,2.933025032965816-.603748751438616,3.634967344911274,2.511625119732344,7.023371837900413,6.721294475024479,7.422048849022758,4.556098903931343.431485206581783,6.045672280253712,1.960936362827852,6.561245404869624,6.545822316615158.225300666554176,2.003046974394238-.0002066763318,3.576981661530226-2.270905900561047,4.288012171837181-2.237334249348351.700606659329424-2.836580820146992,2.394347643141373-2.437300948813572,4.611416055708105.279680997773539,1.552571400059605.2185527523161,3.183512714824246.630148545606062,4.692066320667436,1.575584747957691,5.774711369473152-.287372471833805,10.467701955672965-4.300495582574513,14.557545915817172-.000419520638388-.000486686243676-.00077255200631-.001161195163149-.001192072653794-.001647881405006-.000044551625251.000364676519894.000021261323127.000895238063094-.000001352653271.001436768428903,23.817904683948655,30.476846228633804,65.165232907167592,38.327467684102885,97.625338590487445,20.921567135183068h0c-1.230693394927584-2.135844757647646-3.091891738569757-.837220942223212-4.552726839470779-.632309280386835Z" fill="none" stroke="#3a3559" stroke-linecap="round" stroke-linejoin="round" stroke-width="40.876930183141539"/>
      <path d="M69.07213140809472,53.203313923186215c-.055910322122145,9.541833375931674,1.18981137774972,18.817874057191148,4.93463979718581,27.682455757625576,3.152254623662884,7.461979732610416,7.544294768908003,14.093712248686643,13.130564485711147,19.929670288451234,1.028853669033197,1.074721880606376,1.950393869352411,2.147132315407362,2.459472592741804,3.546174272809367.000695770238963.000542206696991.001303113553149.001095382212952.001910456867336.001648557732551,3.750263689518761-1.510504051260796,5.083155768643337-1.018327088600927,6.877769758806608,2.620644436314251,1.497548957753679,3.036353782968945,2.94940951564422,6.095254992917035,4.420885676257967,9.144360427795618.882113414882042,1.828014712076765,2.220753245828746,2.965140902151688,4.339313437500095,2.367438810115345,2.186128506402383-.61685803727778,2.508289907309518-2.417733446351122,2.299173606033946-4.35472903785012-.312282425664307-2.89318559160165-.642137166225439-5.786885070114295-1.075101757958691-8.66348459382607-.262964583736903-1.746431155796017-.007807967902409-3.469319895730223,1.727265068104316-3.923739209709311,3.065274861095531-.802589380033169,2.813460467839832-2.805849201195088,2.450759227765957-5.07764620648959-.229326813800071-1.436167751919129-.415220304872491-2.882661459310839-.538092747510746-4.331405718781753-.447000856847808-5.271287856654453,1.042014968950753-7.258386337241973,6.185558149019926-8.334215778546422,3.213519503331554-1.897710412025845,4.0047555436322-4.781247523753336,2.607144823203271-7.987664960599432-1.268138750019716-2.90965786113884-3.911481922463281-3.594391019665636-6.949866243798169-2.968786350964365-2.465079581537793.507710377758485-4.316724908152537-.064496749337195-4.587376427552954-2.990500965215688-2.516332242226781-5.780128392143524-3.555386624049788-11.809228639696812-3.050486539570556-18.098444773282608-1.198550527942643.067505001377867-2.397090087057222.135098429678692-3.59564061499259.202603431056559-3.292123047769564,1.135916373366854-6.4478080056615.275901255103236-9.430204206106282-.97499522472026-5.073131624405505-2.127724939637119-9.98225834686491-4.622732749723582-14.677906613156665-7.51324806005141-.000629957288766-.000011645151972-.001281852230022-.000200144151677-.001812413776861-.000134331203299-3.417031335100546.980903951538494-6.112492352327536,3.144860279684508-8.779350389106185,5.355549603731561,1.507991359449079,1.136500929731483,1.259982592848246,2.885888221982896,1.251380874331517,4.368449625608264Z" fill="none" stroke="#3a3559" stroke-linecap="round" stroke-linejoin="round" stroke-width="40.876930183141539"/>
      <path d="M43.398726882913252,87.56307615919286c4.755433781672764,7.240668177715634,9.658735284017894,14.361803702035104,15.697437601362253,20.62694187098532.853469544837935.885566287724942,1.625537181407708,1.798199834494881,2.999330258955524,1.729787764968933.332587194909138-1.722616905131872,1.218411678873963-3.132082926273142,3.093472038350228-2.907474658906722,1.90452169949458.228316344771883,2.243606013964381,1.958661030779695,2.4153078020463,3.605614959375089.126071268421583,1.2088840949109.304866244790901,2.41212600840845.451695226345691,3.618973959899449.143275758706295,1.177479243944617.741426414331727,2.45566220573528,1.793027749963585,2.506408681851099,4.611909486893637.222719851342845,4.924021601473214,3.414200777389851,5.08420171420039,6.82780693946188.104486825972344,2.229931794741788,1.143977390725922,3.757389823371341,3.465864702249746,3.943990694950116,2.242450937796093.180292715655014,3.156865010236288-1.426481182521457,3.807937074718211-3.251814636072595,1.543495461528437-4.327434518167138,3.102569236047202-8.649438853462925,4.654991758918186-12.973670917623167.000066489283199-.00018782267216.000044551634346-.000364676521713.000132978557303-.000375645346139.665389846426478-2.406239121713952,1.322206339202239-4.815724572728868,2.735575704235089-6.925517039340775-.000275573263934-.000773904665039-.000628604630037-.001448413580874-.000893209082278-.002133891322956-.509078723389393-1.399041957402005-1.430618923708607-2.471452392202991-2.459472592741804-3.546174272809367-5.586269716803145-5.835958039764591-9.978309862048263-12.467690555840818-13.130564485711147-19.929670288451234-3.744828419436089-8.864581700434428-4.990550119307954-18.140622381693902-4.93463979718581-27.682455757625576.008601718516729-1.482561403625368.256610485117562-3.231948695876781-1.251380874331517-4.368449625608264-13.108968894324789,8.972774135281725-22.307293199743071,20.97366335310835-27.771600175790809,35.866102187465003,2.028233934765012-.118884157534922,2.52867777179199,1.612275565790696,3.349576524940858,2.862109674149906Z" fill="none" stroke="#3a3559" stroke-linecap="round" stroke-linejoin="round" stroke-width="40.876930183141539"/>
      <path d="M55.584314548432303,145.096352902939543c-.411595793289962-1.50855360584319-.350467547832523-3.139494920607831-.630148545606062-4.692066320667436-.39927987133342-2.217068412566732.199966699465222-3.910809396378681,2.437300948813572-4.611416055708105,2.270699224229247-.711030510306955,2.496206567115223-2.284965197442943,2.270905900561047-4.288012171837181-.515573124615912-4.584885953787307-2.005146500938281-6.114337110033375-6.561245404869624-6.545822316615158-4.209669355292135-.398677011122345-7.325043226463094-3.787081504111484-6.721294475024479-7.422048849022758.221634684492528-1.334439875423413.750146087066241-2.627035039336988,2.320823450001626-2.933025032965816,1.065902665217436-.207460731926403,2.154711139521169.212725316139768,2.380999157394399,1.213980017642825.842152123732376,3.726590890153602,3.472183298266827,3.876943706733073,6.455161296946244,3.500279065205177l.000265280777967-.00003290647328c5.226202393061612-2.168381825302276,5.655613493521741-3.053978170122718,4.558501012726992-9.398393506175125l-.000088426922957.000010968824427c-1.373793077547816.068412069525948-2.145860714117589-.844221477243991-2.999330258955524-1.729787764968933-6.038702317344359-6.265138168950216-10.942003819689489-13.386273693269686-15.697437601362253-20.62694187098532-.820898753148867-1.249834108359209-1.321342590175846-2.980993831684827-3.349576524940858-2.862109674149906-9.622509214417732,26.986970466135972-5.829974044328992,51.963305978122662,11.233476535231603,74.951284452308755.000419520647483.000486686241857.000772552015405.00116119516133.001192072653794.001647881405006,4.013123110740707-4.089843960144208,5.876080330532204-8.78283454634402,4.300495582574513-14.557545915817172Z" fill="none" stroke="#3a3559" stroke-linecap="round" stroke-linejoin="round" stroke-width="40.876930183141539"/>
      <path d="M100.710024155909196,51.967692309821359c2.649740684177232-1.473565216392672,5.648693584767898-1.115594468390555,8.487166901439195-1.528745428186085,2.167409802626935-.315364011603378,3.609777066660172-.919604517170228,4.856765130482017-3.025818023166721,1.894309591674755-3.199582638562788,4.23887024144824-6.211961324141157,7.259830494511334-8.545138982228309,1.16472993874595-.899680698536031,2.378534852889061-1.744662686018273,2.253758027300137-3.471512092781268l-.000010968828065-.000088426922957c-16.565019987287087-2.589380272229391-32.219698883242017.1116415326469-46.966393632506879,8.0826168575677.000198791502044.000154916197062.000574436844545.00028789474527.000773228339312.00044281094597,4.695648266291755,2.890515310327828,9.60477498875116,5.385523120414291,14.677906613156665,7.51324806005141,2.982396200444782,1.250896479823496,6.138081158336718,2.110911598087114,9.430204206106282.97499522472026Z" fill="none" stroke="#3a3559" stroke-linecap="round" stroke-linejoin="round" stroke-width="40.876930183141539"/>
      <path d="M182.234151452374135,141.079238652131608c-2.714405205213552,3.867151613087117-6.177312847023131,5.563247385049181-10.943202791162548,4.521910127697993-4.364649991512124-.953194982934292-8.803433839042555-1.51092811205308-13.132108817177141-2.71119151111634-2.992761480096306-.829943766955694-5.925213414080645-2.233389221148173-9.185317124922221-1.756444758108046,2.976042079666513,6.168809518932903,2.113423140199302,12.254584900241753-.395124844279053,18.303897208501439,1.793634927355015.288401548328693,3.587446708565039.576781159012171,5.381103573568907.865359561192236,2.191046788715539-2.718316984908597,4.413281904788164-5.412488980504349,6.563355707481605-8.162895556142757,1.688093113843934-2.159223954000481,3.756300892677245-2.734338801721606,5.970699361101651-1.142877292546473,2.314440553636814,1.663272606760074,2.066084807031075,3.886870939322762.567560080782641,6.042692491369962-1.166579044307582,1.678098679389223-2.401547774181381,3.308653260224673-3.606385918134038,4.959892535191102,2.001111887599109.045738590348265,3.653913107822518-.760678339880542,5.33795207590083-1.806752204074655,2.407621618071062-1.495698372717015,4.40159310200761-3.79701823349933,7.462343803948897-4.114193702156626.000154916197062-.000198791494768.000243343121838-.000209760319194.000309832395942-.000397582993173,4.418072181673779-5.617080476575211,7.615260520127777-11.838908366071337,9.306575823677122-18.805936488030056-.000021937648853-.000176853845915.000044551625251-.000364676519894.000089103248683-.000729353037968-1.496330374475292.928512832273555-2.366134582742234,2.437451555564621-3.327849866431279,3.807666524253364Z" fill="none" stroke="#3a3559" stroke-linecap="round" stroke-linejoin="round" stroke-width="40.876930183141539"/>
      <path d="M107.356151310472342,69.863533652047408c2.094759105419143-2.035301005567817,11.458588082514325-3.811063869283316,14.068559271992854-2.697585840898682,1.605509002727558.684894447347688,2.437303118720592,1.960313313944425,2.780670943253426,3.578251381433802.226458170096521,1.067047862079562.283919638488442,2.168706448101148.452971679234906,3.249250108376145.257027006335193,1.643552854993686,1.188989262185714,2.716017309998279,2.887190497889605,2.709901743079172,1.820835176227774-.006243258141694,2.512361312106805-1.154389064287898,2.435617214336162-2.905154148205838-.047573208434187-1.086364257427704.105711768459514-2.182110512419968.045482541081583-3.266994654848531-.377644197486006-6.80259802384353,2.99344029738495-11.043465170865602,9.747691492046215-12.108361834369134,2.640367863525171-.416321527458422,5.315170863850653-.618012502296551,7.950489834012842-1.059835919277248,1.652225309209825-.276868367678617,2.547387829494255-1.438781229475353,2.387827435461077-3.127555830036727-.155117196141873-1.642097506241043-1.288234089022808-2.08507043834652-2.836988179244145-2.138705366092836-1.709965607453341-.059047488772194-3.323208059520766.074622692078265-5.019418009891524.454366569298145-3.777576937109188.845154495233146-7.603442451589217,1.53988900123295-11.540007558038269,1.168480376098159-1.500318430435073-.141619102298137-2.545886667707236-.554867947015737-2.987197203101459-2.103192788410524-.622055993444519-2.182430955042946-2.169940301217139-2.61992572064446-4.258755243161431-2.331819496075695-6.380660857650582.8801924443178-12.775087442600125,1.660991673570607-19.164565734989083,2.480234677050248-.000077458102169.000099395747384.000032906469642.00026528077251-.000055520453316.000276249596936-.504900084479232,6.289216133585796.534154297343775,12.318316381139084,3.050486539570556,18.098444773282608Z" fill="none" stroke="#3a3559" stroke-linecap="round" stroke-linejoin="round" stroke-width="40.876930183141539"/>
      <path d="M117.124152047284952,93.459271758985778c-1.367346465513037,1.978470835849294-1.192901425087257,3.998600647633793.508960881194071,5.492111380393908,1.755177568482395,1.540410671157588,3.767752675661541,1.149437323847451,5.495803496836743-.392335913535135.531775121935425-.474407004976456,1.015369830196505-1.002815598112647,1.521067506655527-1.50649094336768,2.088349424015178-2.822391588228129,4.211809513884873-5.619418766218587,6.253075554295719-8.475386675849222,1.516485450742039-2.121775304975017,1.302974733062001-4.204220336010621-.8352272471584-5.705469388723941-1.948938948589785-1.368136516080995-3.839968857475469-1.10043410074104-5.410329042118974.911300236648458-1.709773118109297,2.190016727365219-3.541040747340958,4.285114376685669-5.319408577050126,6.422314972865934-.000066489274104.00018782267216-.000243343127295.000209760321013-.000221405478442.000386614166928-.737399333602298,1.085238417959772-1.467994528347845,2.174660925931676-2.213721167176118,3.253569717400751Z" fill="none" stroke="#3a3559" stroke-linecap="round" stroke-linejoin="round" stroke-width="40.876930183141539"/>
      <path d="M111.916005178820342,150.923764134695375c1.628306870776214,10.701278540327621,2.036172781810819,11.335045874082425,12.941286682982536,9.869020632073443,3.194962359262718-.429537130117751,5.769152983210006-.109023883267582,8.41363927844759,2.061551267315735,4.39066898474448,3.603728021065763,12.460053199203685,1.608821687050295,15.307112350565149-3.416164055463014.000066489272285-.000187822673979.000199467820494-.000563468018299.000354384017555-.000762259514886,2.508547984478355-6.049312308259687,3.371166923945566-12.135087689568536.395124844279053-18.303897208501439-5.290704824290515-2.782942031331913-10.556034944085695-4.954525716351782-16.917442956808372-3.933600131895219-4.681194420038082.751090581834433-8.764372934116182,2.641748878348153-12.973951815172768,4.447883480421297-.000066489274104.000187822673979-.000243343120019.000209760324651-.000331770042976.000220729149078-3.923608114995659,1.890079088043422-8.094542132230345,3.172448046612772-7.165790998267767,9.275747546415005Z" fill="none" stroke="#3a3559" stroke-linecap="round" stroke-linejoin="round" stroke-width="40.876930183141539"/>
      <path d="M128.06077024739534,115.630038771314503c-.921595963818618-.015334807465479-1.907955578835754.554697807139746-2.621417592814396,1.664980658028071-1.902528807884664,2.961049025456305-.389982801358201,9.55507975709952,2.809221165292911,10.888982495094751,2.984436106642534,1.244178738916162,6.153596954056411,2.15926798003602,9.325485348937946,2.806811165908584,2.990072285290807.610657022083615,5.175265473153559-1.806684324805246,4.671333288528331-4.716142166847931-.421313977474711-2.432339362572748-11.370623500373767-10.911266695964514-14.184622209944791-10.644632152183476Z" fill="none" stroke="#3a3559" stroke-linecap="round" stroke-linejoin="round" stroke-width="40.876930183141539"/>
      <path d="M113.17359304740603,134.471149859586149c1.654717859491939-1.879615782547262,2.080669990275055-8.200879894095124.579237862904847-10.047426236516912-.418499632591192-.514647032292487-1.186759069310938-1.02308051973705-1.811777598586559-1.044855774080133-3.203028467747572-.112497360796624-6.597527714406169-.666163813430103-8.772396198695787,2.664652275550907-.000132978555484.00037564534432-.000398259326175.0004085518176-.000619664797341.000795165988166,1.140519132652116,11.234247692742429,1.209925580598792,9.145260937695639,10.005555599174841,8.426834569057974Z" fill="none" stroke="#3a3559" stroke-linecap="round" stroke-linejoin="round" stroke-width="40.876930183141539"/>
      <path d="M154.160885700905055,167.095177131510354c2.866066200787827,2.185648798649709,4.929501123080627.223549349379027,6.70573952488121-2.04663181374417.820808450822369-1.049074868238677,1.722502426928259-2.034557313336336,2.587795621444457-3.048566276600468.000176853847734-.000021937648853.000243343129114-.000209760324651.000309832403218-.000397582994992,1.204838143952657-1.651239274966429,2.439806873826456-3.28179385580188,3.606385918134038-4.959892535191102,1.498524726248434-2.1558215520472,1.746880472854173-4.379419884609888-.567560080782641-6.042692491369962-2.214398468424406-1.591461509175133-4.282606247257718-1.016346661454008-5.970699361101651,1.142877292546473-2.150073802693441,2.750406575638408-4.372308918766066,5.44457857123416-6.563355707481605,8.162895556142757-1.562251800090962,2.321034280139429-2.341994062815502,4.852794676660778.201384252502976,6.792407851211465Z" fill="none" stroke="#3a3559" stroke-linecap="round" stroke-linejoin="round" stroke-width="40.876930183141539"/>
      <path d="M97.439789695063155,126.140004673925432c-.000065812948378-.000530561541382-.000153563545609-.001237976932316-.000396230338083-.001746600826664-3.759642387178246-1.605217246908069-5.295078514081979-.602537601773292-4.919403142601368,3.23165920296924.117657565258924,1.200410284598547.326127552341859,2.391710738957045.443940033790568,3.591922232059005.135220448915788,1.375292744376566.417455226763195,2.633582957019826,1.88862234753833,3.216981298761311,1.677056529033507.6652449050016,2.757702288594373-.152265415523289,3.652107689102195-1.449124821585428-.355435145644151-2.863949272225-.710892228937155-5.728075398297733-1.065752937744037-8.591736775777463.000353031366103.000674508919474.00061763580743.001359986657917.000882240252395.002045464399998Z" fill="none" stroke="#3a3559" stroke-linecap="round" stroke-linejoin="round" stroke-width="40.876930183141539"/>
      <path d="M97.43890745481076,126.137959209525434c.354860708806882,2.86366137747973.710317792099886,5.727787503552463,1.065752937744037,8.591736775777463.660965178487459-2.989129704346851.31545510963042-5.853412246868174-1.064870697491642-8.589691311377464-.000264604444965-.000685477742081-.000529208886292-.001370955480525-.000882240252395-.002045464399998Z" fill="none" stroke="#3a3559" stroke-linecap="round" stroke-linejoin="round" stroke-width="40.876930183141539"/>
    </g>
    <g>
      <path d="M186.14513247636387,87.236781944940958c-5.889239044681744-17.647009689742845-16.920892936339442-31.472267773055137-32.730118703848348-41.279322753873203-9.131063793105568-5.664263600037884-18.982064734198502-9.632744686539809-29.847469062873643-10.560981407608779.124776825588924,1.726849406762994-1.089028088554187,2.571831394245237-2.253758027300137,3.471512092781268-3.020960253063095,2.333177658087152-5.365520902836579,5.345556343665521-7.259830494511334,8.545138982228309-1.246988063821846,2.106213505996493-2.689355327855083,2.710454011563343-4.856765130482017,3.025818023166721-2.838473316671298.41315095979553-5.837426217261964.055180211793413-8.487166901439195,1.528745428186085,1.198550527935367-.067505001377867,2.397090087049946-.135098429678692,3.59564061499259-.202603431056559.000088426922957-.000010968824427-.000021937648853-.000176853849553.000055520453316-.000276249596936,6.389478292388958-.819243003479642,12.7839048773385-1.600042232732449,19.164565734989083-2.480234677050248,2.088814941944293-.288106224568764,3.636699249716912.149388541032749,4.258755243161431,2.331819496075695.441310535394223,1.548324841394788,1.486878772666387,1.961573686112388,2.987197203101459,2.103192788410524,3.936565106449052.371408625134791,7.762430620929081-.323325880865013,11.540007558038269-1.168480376098159,1.696209950370758-.37974387721988,3.309452402438183-.513414058070339,5.019418009891524-.454366569298145,1.548754090221337.053634927746316,2.681870983102272.496607859851792,2.836988179244145,2.138705366092836.159560394033178,1.688774600561374-.735602126251251,2.85068746235811-2.387827435461077,3.127555830036727-2.635318970162189.441823416980696-5.310121970487671.643514391818826-7.950489834012842,1.059835919277248-6.754251194661265,1.064896663503532-10.125335689532221,5.305763810525605-9.747691492046215,12.108361834369134.060229227377931,1.084884142428564-.09305574951577,2.180630397420828-.045482541081583,3.266994654848531.076744097770643,1.750765083917941-.614782038108387,2.898910890064144-2.435617214336162,2.905154148205838-1.698201235703891.006115566919107-2.630163491554413-1.066348888085486-2.887190497889605-2.709901743079172-.169052040746465-1.080543660274998-.226513509138385-2.182202246296583-.452971679234906-3.249250108376145-.343367824532834-1.617938067489376-1.175161940525868-2.893356934086114-2.780670943253426-3.578251381433802-2.609971189478529-1.113478028384634-11.97380016657371.662284835330865-14.068559271992854,2.697585840898682.270651519400417,2.926004215878493,2.122296846015161,3.498211342974173,4.587376427552954,2.990500965215688,3.038384321334888-.625604668701271,5.681727493778453.059128489825525,6.949866243798169,2.968786350964365,1.397610720428929,3.206417436846095.606374680128283,6.089954548573587-2.607144823203271,7.987664960599432.10200215453915,2.568200304323909,1.083083251587595,4.717050448491136,3.051624732166601,6.394497728544593.000099395751022.000077458098531.000121333399875.000254311946264.000220729152716.000331770046614,1.778367829709168-2.137200596180264,3.609635458940829-4.232298245500715,5.319408577050126-6.422314972865934,1.570360184643505-2.011734337389498,3.461390093529189-2.279436752729453,5.410329042118974-.911300236648458,2.138201980220401,1.50124905271332,2.351712697900439,3.583694083748924.8352272471584,5.705469388723941-2.041266040410846,2.855967909630635-4.164726130280542,5.652995087621093-6.253075554295719,8.475386675849222,13.655399955761823,14.464924535759565,30.254918877930322,22.436918682926262,50.282903404438912,23.222810227389346,5.037813664715941.197723153709376,9.882935504292618-.814870965052251,14.824227140565199-1.164371638071316,1.257823098625522-10.90323474732395-.175507225283582-21.576622174730801-3.611982000611533-31.874212926853943Z" fill="#a1c7cc" stroke-width="0"/>
      <path d="M124.649983931971292,97.052556282476871c-.505697676459022.503675345255033-.989292384720102,1.032083938391224-1.521067506655527,1.50649094336768-1.728050821175202,1.541773237382586-3.740625928354348,1.932746584692723-5.495803496836743.392335913535135-1.701862306281328-1.493510732760114-1.876307346707108-3.513640544544614-.508960881194071-5.492111380393908.745726638828273-1.078908791469075,1.47632183357382-2.168331299440979,2.213721167176118-3.253569717400751-.000021937648853-.000176853845915.000154916204337-.000198791494768.000221405478442-.000386614166928-.000099395752841-.00007745810035-.000121333401694-.000254311948083-.000220729152716-.000331770046614-1.968541480579006-1.677447280053457-2.949622577627451-3.826297424220684-3.051624732166601-6.394497728544593-5.143543180069173,1.07582944130445-6.632559005867734,3.062927921891969-6.185558149019926,8.334215778546422.122872442638254,1.448744259470914.308765933710674,2.895237966862624.538092747510746,4.331405718781753.362701240073875,2.271797005294502.614515633329574,4.275056826456421-2.450759227765957,5.07764620648959-1.735073036006725.454419313979088-1.990229651841219,2.177308053913293-1.727265068104316,3.923739209709311.432964591733253,2.876599523711775.762819332294384,5.770299002224419,1.075101757958691,8.66348459382607.209116301275571,1.936995591498999-.113045099631563,3.737871000572341-2.299173606033946,4.35472903785012-2.118560191671349.597702092036343-3.457200022618053-.53942409803858-4.339313437500095-2.367438810115345-1.471476160613747-3.049105434878584-2.923336718504288-6.108006644826673-4.420885676257967-9.144360427795618-1.794613990163271-3.638971524915178-3.127506069287847-4.131148487575047-6.877769758806608-2.620644436314251-.000607343314186-.000553175519599-.001214686628373-.00110635103556-.001910456867336-.001648557732551.000264604452241.000685477742081.000617635818344.001359986657917.000893209082278.002133891322956-1.41336936503285,2.109792466611907-2.07018585780861,4.519277917626823-2.735575704235089,6.925517039340775-.000088426922957.000010968824427-.000066489274104.000187822673979-.000132978557303.000375645346139.000243343129114-.000209760321013.00033177005389-.00022072914544.000597050822762-.000253635620538,3.78339765509736,2.99756892368714,6.330779757321579,7.188018234490301,9.905599978843384,10.352785514409334,1.917616659880878,1.697591476979142,2.905419903123402,4.947300897267269,6.399959325766758,4.400871710249703.000198791494768.000154916197062.000309156077492.000320801222188.00050794757226.000475717419249,2.174868484289618-3.33081608898101,5.569367730948215-2.777149636347531,8.772396198695787-2.664652275550907.625018529275621.021775254343083,1.393277965995367.530208741787646,1.811777598586559,1.044855774080133,1.501432127370208,1.846546342421789,1.075479996587092,8.167810453969651-.579237862904847,10.047426236516912-.213268260804398,2.097494037903743,1.539804311703847,2.78635142764324,2.748638914985349,3.886784096834162,1.124402913605081,1.023452845087377,2.775902290510203,1.552876847947118,3.159918598714285,3.289320372343354-.000154916197062.000198791498406-.000287894743451.000574436842726-.000354384017555.000762259516705.000088426922957-.000010968824427.000265280768872-.000032906475099.000331770042976-.000220729149078,4.209578881056586-1.806134602073143,8.292757395134686-3.696792898586864,12.973951815172768-4.447883480421297,6.361408012722677-1.020925584456563,11.626738132517858,1.150658100563305,16.917442956808372,3.933600131895219,3.260103710841577-.476944463040127,6.192555644825916.926500991152352,9.185317124922221,1.756444758108046,4.328674978134586,1.20026339906326,8.767458825665017,1.757996528182048,13.132108817177141,2.71119151111634,4.765889944139417,1.041337257351188,8.228797585948996-.654758514610876,10.943202791162548-4.521910127697993.961715283689045-1.370214968688742,1.831519491955987-2.879153691979809,3.327849866431279-3.807666524253364-.000044551623432.000364676518075-.000111040897536.000552499192054-.000089103248683.000729353037968.000154916197062-.000198791494768.000132978548208-.00037564534432.000265957094598-.000751290686821,2.843049146475096-5.719623461542142,3.289380553786032-11.993134476491832,4.195290012015903-18.160599193734015l-.000353707691829.000043875299525c-4.941291636272581.349500673019065-9.786413475849258,1.362094791780692-14.824227140565199,1.164371638071316-20.02798452650859-.785891544463084-36.627503448677089-8.757885691629781-50.282903404438912-23.222810227389346ZM137.5740591688118,130.99081309034591c-3.171888394881535-.647543185872564-6.341049242295412-1.562632426992423-9.325485348937946-2.806811165908584-3.199203966651112-1.333902737995231-4.711749973177575-7.927933469638447-2.809221165292911-10.888982495094751.713462013978642-1.110282850888325,1.699821628995778-1.68031546549355,2.621417592814396-1.664980658028071,2.813998709571024-.266634543781038,13.763308232470081,8.212292789610729,14.184622209944791,10.644632152183476.503932184625228,2.909457842042684-1.681261003237523,5.326799188931545-4.671333288528331,4.716142166847931Z" fill="#94b0c1" stroke-width="0"/>
      <path d="M168.79268275553477,160.192829254096068c-1.684038968078312,1.046073864194113-3.336840188301721,1.85249079442292-5.33795207590083,1.806752204074655-.000066489274104.000187822670341-.000132978555484.000375645346139-.000309832403218.000397582994992-.865293194516198,1.014008963264132-1.766987170622087,1.999491408361791-2.587795621444457,3.048566276600468-1.776238401800583,2.270181163123198-3.839673324093383,4.232280612393879-6.70573952488121,2.04663181374417-2.543378315318478-1.939613174550686-1.763636052593938-4.471373571072036-.201384252502976-6.792407851211465-1.793656865003868-.288578402180065-3.587468646213892-.576958012863543-5.381103573568907-.865359561192236-.000154916197062.000198791496587-.00028789474527.000574436840907-.000354384017555.000762259514886-2.847059151361464,5.024985742513309-10.916443365820669,7.019892076528777-15.307112350565149,3.416164055463014-2.644486295237584-2.170575150583318-5.218676919184873-2.491088397433487-8.41363927844759-2.061551267315735-10.905113901171717,1.466025242008982-11.312979812206322.832257908254178-12.941286682982536-9.869020632073443-.928751133962578-6.103299499802233,3.242182883272108-7.385668458371583,7.165790998267767-9.275747546415005.000066489274104-.000187822673979.000199467820494-.000563468018299.000354384017555-.000762259516705-.384016308204082-1.736443524396236-2.035515685109203-2.265867527255978-3.159918598714285-3.289320372343354-1.208834603281502-1.100432669190923-2.961907175789747-1.789290058930419-2.748638914985349-3.886784096834162-8.795630018576048.718426368637665-8.865036466522724,2.807413123684455-10.005555599174841-8.426834569057974.000221405471166-.000386614170566.000486686241857-.000419520643845.000619664797341-.000795165988166-.000198791494768-.000154916197062-.000309156077492-.000320801222188-.00050794757226-.000475717419249-3.494539422643356.546429187017566-4.482342665885881-2.703280233270561-6.399959325766758-4.400871710249703-3.574820221521804-3.164767279919033-6.122202323746023-7.355216590722193-9.905599978843384-10.352785514409334-.000265280768872.000032906475099-.000353707693648.000043875299525-.000597050822762.000253635620538-1.552422522870984,4.324232064160242-3.111496297389749,8.646236399456029-4.654991758918186,12.973670917623167-.651072064481923,1.825333453551139-1.565486136922118,3.432107351727609-3.807937074718211,3.251814636072595-2.321887311523824-.186600871578776-3.361377876277402-1.714058900208329-3.465864702249746-3.943990694950116-.160180112727176-3.413606162072028-.472292227306752-6.605087088119035-5.08420171420039-6.82780693946188-1.051601335631858-.050746476115819-1.64975199125729-1.328929437906481-1.793027749963585-2.506408681851099-.146828981554791-1.206847951491-.325623957924108-2.410089864988549-.451695226345691-3.618973959899449-.171701788081918-1.646953928595394-.51078610255172-3.377298614603205-2.4153078020463-3.605614959375089-1.875060359476265-.22460826736642-2.76088484344109,1.18485775377485-3.093472038350228,2.907474658906722l.000088426922957-.000010968824427c1.097112480794749,6.344415336052407.66770138033462,7.230011680872849-4.558501012726992,9.398393506175125l.000176853845915-.000021937648853c.866966261723064,4.135098930604727,3.959229150179453,6.879002036601378,6.460246963148165,9.908144109924251,7.009411677921889,8.489618947485724,14.838339760932286,16.152098521355583,23.096799775126783,23.481519284183378,10.763265118990603,9.552339660194775,22.809899703470364,17.012359367479803,35.131717570946421,24.228320985428581,7.096006747124193,4.155607295017035,14.448200705435738,4.084921391540774,22.129213971073113,3.006794786191676,1.460835100901022-.204911661836377,3.322033444543194-1.503535477260812,4.552726839470779.632309280386835l.000176853845915-.000021937648853c11.267180985061714-5.763814098878356,20.335519776281217-13.982441028842004,27.347592989994155-24.496685101972616-.000110364573629-.000165885021488-.00022072914544-.000331770044795-.00039758299863-.000309832395942-.000066489274104.000187822673979-.000154916198881.000198791498406-.000309832395942.000397582993173-3.060750701941288.317175468657297-5.054722185877836,2.618495329439611-7.462343803948897,4.114193702156626ZM98.504660392554797,134.729695985302897c-.894405400507821,1.29685940606214-1.975051160068688,2.114369726587029-3.652107689102195,1.449124821585428-1.471167120775135-.583398341741486-1.753401898622542-1.841688554384746-1.88862234753833-3.216981298761311-.117812481448709-1.200211493101961-.326282468531645-2.391511947460458-.443940033790568-3.591922232059005-.375675371480611-3.834196804742533,1.159760755423122-4.836876449877309,4.919403142601368-3.23165920296924.000242666792474.000508623894348.000330417389705.001216039285282.000396230338083.001746600826664,1.380325807122063,2.73627906450929,1.725835875979101,5.600561607030613,1.064870697491642,8.589691311377464Z" fill="#8084a9" stroke-width="0"/>
      <path d="M144.355237291567391,179.942945560576845c-7.681013265637375,1.078126605349098-15.033207223948921,1.148812508825358-22.129213971073113-3.006794786191676-12.321817867476057-7.215961617948778-24.368452451955818-14.675981325233806-35.131717570946421-24.228320985428581-8.258460014194497-7.329420762827795-16.087388097204894-14.991900336697654-23.096799775126783-23.481519284183378-2.501017812968712-3.029142073322873-5.593280701425101-5.773045179319524-6.460246963148165-9.908144109924251l-.000176853845915.000021937648853-.000265280777967.00003290647328c-2.982977998679416.376664641527896-5.613009173213868.226311824948425-6.455161296946244-3.500279065205177-.22628801787323-1.001254701503058-1.315096492176963-1.421440749569229-2.380999157394399-1.213980017642825-1.570677362935385.305989993628828-2.099188765509098,1.598585157542402-2.320823450001626,2.933025032965816-.603748751438616,3.634967344911274,2.511625119732344,7.023371837900413,6.721294475024479,7.422048849022758,4.556098903931343.431485206581783,6.045672280253712,1.960936362827852,6.561245404869624,6.545822316615158.225300666554176,2.003046974394238-.0002066763318,3.576981661530226-2.270905900561047,4.288012171837181-2.237334249348351.700606659329424-2.836580820146992,2.394347643141373-2.437300948813572,4.611416055708105.279680997773539,1.552571400059605.2185527523161,3.183512714824246.630148545606062,4.692066320667436,1.575584747957691,5.774711369473152-.287372471833805,10.467701955672965-4.300495582574513,14.557545915817172-.000419520638388-.000486686243676-.00077255200631-.001161195163149-.001192072653794-.001647881405006-.000044551625251.000364676519894.000021261323127.000895238063094-.000001352653271.001436768428903,23.817904683948655,30.476846228633804,65.165232907167592,38.327467684102885,97.625338590487445,20.921567135183068h0c-1.230693394927584-2.135844757647646-3.091891738569757-.837220942223212-4.552726839470779-.632309280386835Z" fill="#7b6a9c" stroke-width="0"/>
      <path d="M69.07213140809472,53.203313923186215c-.055910322122145,9.541833375931674,1.18981137774972,18.817874057191148,4.93463979718581,27.682455757625576,3.152254623662884,7.461979732610416,7.544294768908003,14.093712248686643,13.130564485711147,19.929670288451234,1.028853669033197,1.074721880606376,1.950393869352411,2.147132315407362,2.459472592741804,3.546174272809367.000695770238963.000542206696991.001303113553149.001095382212952.001910456867336.001648557732551,3.750263689518761-1.510504051260796,5.083155768643337-1.018327088600927,6.877769758806608,2.620644436314251,1.497548957753679,3.036353782968945,2.94940951564422,6.095254992917035,4.420885676257967,9.144360427795618.882113414882042,1.828014712076765,2.220753245828746,2.965140902151688,4.339313437500095,2.367438810115345,2.186128506402383-.61685803727778,2.508289907309518-2.417733446351122,2.299173606033946-4.35472903785012-.312282425664307-2.89318559160165-.642137166225439-5.786885070114295-1.075101757958691-8.66348459382607-.262964583736903-1.746431155796017-.007807967902409-3.469319895730223,1.727265068104316-3.923739209709311,3.065274861095531-.802589380033169,2.813460467839832-2.805849201195088,2.450759227765957-5.07764620648959-.229326813800071-1.436167751919129-.415220304872491-2.882661459310839-.538092747510746-4.331405718781753-.447000856847808-5.271287856654453,1.042014968950753-7.258386337241973,6.185558149019926-8.334215778546422,3.213519503331554-1.897710412025845,4.0047555436322-4.781247523753336,2.607144823203271-7.987664960599432-1.268138750019716-2.90965786113884-3.911481922463281-3.594391019665636-6.949866243798169-2.968786350964365-2.465079581537793.507710377758485-4.316724908152537-.064496749337195-4.587376427552954-2.990500965215688-2.516332242226781-5.780128392143524-3.555386624049788-11.809228639696812-3.050486539570556-18.098444773282608-1.198550527942643.067505001377867-2.397090087057222.135098429678692-3.59564061499259.202603431056559-3.292123047769564,1.135916373366854-6.4478080056615.275901255103236-9.430204206106282-.97499522472026-5.073131624405505-2.127724939637119-9.98225834686491-4.622732749723582-14.677906613156665-7.51324806005141-.000629957288766-.000011645151972-.001281852230022-.000200144151677-.001812413776861-.000134331203299-3.417031335100546.980903951538494-6.112492352327536,3.144860279684508-8.779350389106185,5.355549603731561,1.507991359449079,1.136500929731483,1.259982592848246,2.885888221982896,1.251380874331517,4.368449625608264Z" fill="#a1ba70" stroke-width="0"/>
      <path d="M43.398726882913252,87.56307615919286c4.755433781672764,7.240668177715634,9.658735284017894,14.361803702035104,15.697437601362253,20.62694187098532.853469544837935.885566287724942,1.625537181407708,1.798199834494881,2.999330258955524,1.729787764968933.332587194909138-1.722616905131872,1.218411678873963-3.132082926273142,3.093472038350228-2.907474658906722,1.90452169949458.228316344771883,2.243606013964381,1.958661030779695,2.4153078020463,3.605614959375089.126071268421583,1.2088840949109.304866244790901,2.41212600840845.451695226345691,3.618973959899449.143275758706295,1.177479243944617.741426414331727,2.45566220573528,1.793027749963585,2.506408681851099,4.611909486893637.222719851342845,4.924021601473214,3.414200777389851,5.08420171420039,6.82780693946188.104486825972344,2.229931794741788,1.143977390725922,3.757389823371341,3.465864702249746,3.943990694950116,2.242450937796093.180292715655014,3.156865010236288-1.426481182521457,3.807937074718211-3.251814636072595,1.543495461528437-4.327434518167138,3.102569236047202-8.649438853462925,4.654991758918186-12.973670917623167.000066489283199-.00018782267216.000044551634346-.000364676521713.000132978557303-.000375645346139.665389846426478-2.406239121713952,1.322206339202239-4.815724572728868,2.735575704235089-6.925517039340775-.000275573263934-.000773904665039-.000628604630037-.001448413580874-.000893209082278-.002133891322956-.509078723389393-1.399041957402005-1.430618923708607-2.471452392202991-2.459472592741804-3.546174272809367-5.586269716803145-5.835958039764591-9.978309862048263-12.467690555840818-13.130564485711147-19.929670288451234-3.744828419436089-8.864581700434428-4.990550119307954-18.140622381693902-4.93463979718581-27.682455757625576.008601718516729-1.482561403625368.256610485117562-3.231948695876781-1.251380874331517-4.368449625608264-13.108968894324789,8.972774135281725-22.307293199743071,20.97366335310835-27.771600175790809,35.866102187465003,2.028233934765012-.118884157534922,2.52867777179199,1.612275565790696,3.349576524940858,2.862109674149906Z" fill="#84a05a" stroke-width="0"/>
      <path d="M55.584314548432303,145.096352902939543c-.411595793289962-1.50855360584319-.350467547832523-3.139494920607831-.630148545606062-4.692066320667436-.39927987133342-2.217068412566732.199966699465222-3.910809396378681,2.437300948813572-4.611416055708105,2.270699224229247-.711030510306955,2.496206567115223-2.284965197442943,2.270905900561047-4.288012171837181-.515573124615912-4.584885953787307-2.005146500938281-6.114337110033375-6.561245404869624-6.545822316615158-4.209669355292135-.398677011122345-7.325043226463094-3.787081504111484-6.721294475024479-7.422048849022758.221634684492528-1.334439875423413.750146087066241-2.627035039336988,2.320823450001626-2.933025032965816,1.065902665217436-.207460731926403,2.154711139521169.212725316139768,2.380999157394399,1.213980017642825.842152123732376,3.726590890153602,3.472183298266827,3.876943706733073,6.455161296946244,3.500279065205177l.000265280777967-.00003290647328c5.226202393061612-2.168381825302276,5.655613493521741-3.053978170122718,4.558501012726992-9.398393506175125l-.000088426922957.000010968824427c-1.373793077547816.068412069525948-2.145860714117589-.844221477243991-2.999330258955524-1.729787764968933-6.038702317344359-6.265138168950216-10.942003819689489-13.386273693269686-15.697437601362253-20.62694187098532-.820898753148867-1.249834108359209-1.321342590175846-2.980993831684827-3.349576524940858-2.862109674149906-9.622509214417732,26.986970466135972-5.829974044328992,51.963305978122662,11.233476535231603,74.951284452308755.000419520647483.000486686241857.000772552015405.00116119516133.001192072653794.001647881405006,4.013123110740707-4.089843960144208,5.876080330532204-8.78283454634402,4.300495582574513-14.557545915817172Z" fill="#73904e" stroke-width="0"/>
      <path d="M100.710024155909196,51.967692309821359c2.649740684177232-1.473565216392672,5.648693584767898-1.115594468390555,8.487166901439195-1.528745428186085,2.167409802626935-.315364011603378,3.609777066660172-.919604517170228,4.856765130482017-3.025818023166721,1.894309591674755-3.199582638562788,4.23887024144824-6.211961324141157,7.259830494511334-8.545138982228309,1.16472993874595-.899680698536031,2.378534852889061-1.744662686018273,2.253758027300137-3.471512092781268l-.000010968828065-.000088426922957c-16.565019987287087-2.589380272229391-32.219698883242017.1116415326469-46.966393632506879,8.0826168575677.000198791502044.000154916197062.000574436844545.00028789474527.000773228339312.00044281094597,4.695648266291755,2.890515310327828,9.60477498875116,5.385523120414291,14.677906613156665,7.51324806005141,2.982396200444782,1.250896479823496,6.138081158336718,2.110911598087114,9.430204206106282.97499522472026Z" fill="#93b0c1" stroke-width="0"/>
      <path d="M182.234151452374135,141.079238652131608c-2.714405205213552,3.867151613087117-6.177312847023131,5.563247385049181-10.943202791162548,4.521910127697993-4.364649991512124-.953194982934292-8.803433839042555-1.51092811205308-13.132108817177141-2.71119151111634-2.992761480096306-.829943766955694-5.925213414080645-2.233389221148173-9.185317124922221-1.756444758108046,2.976042079666513,6.168809518932903,2.113423140199302,12.254584900241753-.395124844279053,18.303897208501439,1.793634927355015.288401548328693,3.587446708565039.576781159012171,5.381103573568907.865359561192236,2.191046788715539-2.718316984908597,4.413281904788164-5.412488980504349,6.563355707481605-8.162895556142757,1.688093113843934-2.159223954000481,3.756300892677245-2.734338801721606,5.970699361101651-1.142877292546473,2.314440553636814,1.663272606760074,2.066084807031075,3.886870939322762.567560080782641,6.042692491369962-1.166579044307582,1.678098679389223-2.401547774181381,3.308653260224673-3.606385918134038,4.959892535191102,2.001111887599109.045738590348265,3.653913107822518-.760678339880542,5.33795207590083-1.806752204074655,2.407621618071062-1.495698372717015,4.40159310200761-3.79701823349933,7.462343803948897-4.114193702156626.000154916197062-.000198791494768.000243343121838-.000209760319194.000309832395942-.000397582993173,4.418072181673779-5.617080476575211,7.615260520127777-11.838908366071337,9.306575823677122-18.805936488030056-.000021937648853-.000176853845915.000044551625251-.000364676519894.000089103248683-.000729353037968-1.496330374475292.928512832273555-2.366134582742234,2.437451555564621-3.327849866431279,3.807666524253364Z" fill="#8fa8bd" stroke-width="0"/>
      <path d="M107.356151310472342,69.863533652047408c2.094759105419143-2.035301005567817,11.458588082514325-3.811063869283316,14.068559271992854-2.697585840898682,1.605509002727558.684894447347688,2.437303118720592,1.960313313944425,2.780670943253426,3.578251381433802.226458170096521,1.067047862079562.283919638488442,2.168706448101148.452971679234906,3.249250108376145.257027006335193,1.643552854993686,1.188989262185714,2.716017309998279,2.887190497889605,2.709901743079172,1.820835176227774-.006243258141694,2.512361312106805-1.154389064287898,2.435617214336162-2.905154148205838-.047573208434187-1.086364257427704.105711768459514-2.182110512419968.045482541081583-3.266994654848531-.377644197486006-6.80259802384353,2.99344029738495-11.043465170865602,9.747691492046215-12.108361834369134,2.640367863525171-.416321527458422,5.315170863850653-.618012502296551,7.950489834012842-1.059835919277248,1.652225309209825-.276868367678617,2.547387829494255-1.438781229475353,2.387827435461077-3.127555830036727-.155117196141873-1.642097506241043-1.288234089022808-2.08507043834652-2.836988179244145-2.138705366092836-1.709965607453341-.059047488772194-3.323208059520766.074622692078265-5.019418009891524.454366569298145-3.777576937109188.845154495233146-7.603442451589217,1.53988900123295-11.540007558038269,1.168480376098159-1.500318430435073-.141619102298137-2.545886667707236-.554867947015737-2.987197203101459-2.103192788410524-.622055993444519-2.182430955042946-2.169940301217139-2.61992572064446-4.258755243161431-2.331819496075695-6.380660857650582.8801924443178-12.775087442600125,1.660991673570607-19.164565734989083,2.480234677050248-.000077458102169.000099395747384.000032906469642.00026528077251-.000055520453316.000276249596936-.504900084479232,6.289216133585796.534154297343775,12.318316381139084,3.050486539570556,18.098444773282608Z" fill="#bcd584" stroke-width="0"/>
      <path d="M117.124152047284952,93.459271758985778c-1.367346465513037,1.978470835849294-1.192901425087257,3.998600647633793.508960881194071,5.492111380393908,1.755177568482395,1.540410671157588,3.767752675661541,1.149437323847451,5.495803496836743-.392335913535135.531775121935425-.474407004976456,1.015369830196505-1.002815598112647,1.521067506655527-1.50649094336768,2.088349424015178-2.822391588228129,4.211809513884873-5.619418766218587,6.253075554295719-8.475386675849222,1.516485450742039-2.121775304975017,1.302974733062001-4.204220336010621-.8352272471584-5.705469388723941-1.948938948589785-1.368136516080995-3.839968857475469-1.10043410074104-5.410329042118974.911300236648458-1.709773118109297,2.190016727365219-3.541040747340958,4.285114376685669-5.319408577050126,6.422314972865934-.000066489274104.00018782267216-.000243343127295.000209760321013-.000221405478442.000386614166928-.737399333602298,1.085238417959772-1.467994528347845,2.174660925931676-2.213721167176118,3.253569717400751Z" fill="#afd080" stroke-width="0"/>
      <path d="M111.916005178820342,150.923764134695375c1.628306870776214,10.701278540327621,2.036172781810819,11.335045874082425,12.941286682982536,9.869020632073443,3.194962359262718-.429537130117751,5.769152983210006-.109023883267582,8.41363927844759,2.061551267315735,4.39066898474448,3.603728021065763,12.460053199203685,1.608821687050295,15.307112350565149-3.416164055463014.000066489272285-.000187822673979.000199467820494-.000563468018299.000354384017555-.000762259514886,2.508547984478355-6.049312308259687,3.371166923945566-12.135087689568536.395124844279053-18.303897208501439-5.290704824290515-2.782942031331913-10.556034944085695-4.954525716351782-16.917442956808372-3.933600131895219-4.681194420038082.751090581834433-8.764372934116182,2.641748878348153-12.973951815172768,4.447883480421297-.000066489274104.000187822673979-.000243343120019.000209760324651-.000331770042976.000220729149078-3.923608114995659,1.890079088043422-8.094542132230345,3.172448046612772-7.165790998267767,9.275747546415005Z" fill="#87b976" stroke-width="0"/>
      <path d="M128.06077024739534,115.630038771314503c-.921595963818618-.015334807465479-1.907955578835754.554697807139746-2.621417592814396,1.664980658028071-1.902528807884664,2.961049025456305-.389982801358201,9.55507975709952,2.809221165292911,10.888982495094751,2.984436106642534,1.244178738916162,6.153596954056411,2.15926798003602,9.325485348937946,2.806811165908584,2.990072285290807.610657022083615,5.175265473153559-1.806684324805246,4.671333288528331-4.716142166847931-.421313977474711-2.432339362572748-11.370623500373767-10.911266695964514-14.184622209944791-10.644632152183476Z" fill="#9dca7d" stroke-width="0"/>
      <path d="M113.17359304740603,134.471149859586149c1.654717859491939-1.879615782547262,2.080669990275055-8.200879894095124.579237862904847-10.047426236516912-.418499632591192-.514647032292487-1.186759069310938-1.02308051973705-1.811777598586559-1.044855774080133-3.203028467747572-.112497360796624-6.597527714406169-.666163813430103-8.772396198695787,2.664652275550907-.000132978555484.00037564534432-.000398259326175.0004085518176-.000619664797341.000795165988166,1.140519132652116,11.234247692742429,1.209925580598792,9.145260937695639,10.005555599174841,8.426834569057974Z" fill="#89c376" stroke-width="0"/>
      <path d="M154.160885700905055,167.095177131510354c2.866066200787827,2.185648798649709,4.929501123080627.223549349379027,6.70573952488121-2.04663181374417.820808450822369-1.049074868238677,1.722502426928259-2.034557313336336,2.587795621444457-3.048566276600468.000176853847734-.000021937648853.000243343129114-.000209760324651.000309832403218-.000397582994992,1.204838143952657-1.651239274966429,2.439806873826456-3.28179385580188,3.606385918134038-4.959892535191102,1.498524726248434-2.1558215520472,1.746880472854173-4.379419884609888-.567560080782641-6.042692491369962-2.214398468424406-1.591461509175133-4.282606247257718-1.016346661454008-5.970699361101651,1.142877292546473-2.150073802693441,2.750406575638408-4.372308918766066,5.44457857123416-6.563355707481605,8.162895556142757-1.562251800090962,2.321034280139429-2.341994062815502,4.852794676660778.201384252502976,6.792407851211465Z" fill="#85b873" stroke-width="0"/>
      <path d="M97.439789695063155,126.140004673925432c-.000065812948378-.000530561541382-.000153563545609-.001237976932316-.000396230338083-.001746600826664-3.759642387178246-1.605217246908069-5.295078514081979-.602537601773292-4.919403142601368,3.23165920296924.117657565258924,1.200410284598547.326127552341859,2.391710738957045.443940033790568,3.591922232059005.135220448915788,1.375292744376566.417455226763195,2.633582957019826,1.88862234753833,3.216981298761311,1.677056529033507.6652449050016,2.757702288594373-.152265415523289,3.652107689102195-1.449124821585428-.355435145644151-2.863949272225-.710892228937155-5.728075398297733-1.065752937744037-8.591736775777463.000353031366103.000674508919474.00061763580743.001359986657917.000882240252395.002045464399998Z" fill="#8bc177" stroke-width="0"/>
      <path d="M97.43890745481076,126.137959209525434c.354860708806882,2.86366137747973.710317792099886,5.727787503552463,1.065752937744037,8.591736775777463.660965178487459-2.989129704346851.31545510963042-5.853412246868174-1.064870697491642-8.589691311377464-.000264604444965-.000685477742081-.000529208886292-.001370955480525-.000882240252395-.002045464399998Z" fill="#94b0c1" stroke-width="0"/>
    </g>
  </g>
  <path d="M175.884041873981914,78.391277518205243c-1.230781854901579-4.101422795063627-2.994518007304578-8.346086652496524-6.823936660908657-10.659788495533576-1.573546913065002-.950723522861153-3.806140465650969-1.726517433940899-5.66681243995663-1.305964250414036-2.335803952708375.527943561237407-1.185425263220168,3.785039649639657-.521242379583782,5.202153420781542.832318503071292,1.775851262858851,2.217390533074649,3.232743839091199,3.767391168201357,4.404148766574508.694618209192413.524954102937045,1.454901203849658.932835318690195,2.183381809947605,1.405490557526718.721576249750797.468175531113957,1.15183512409385,1.044566563041371,1.466835470797378,1.838486241776991.633024862247112,1.595461403541776.975499473335731,3.337678448013321,2.449299833158875,4.407359451497541.889101054144703.645307555705585,1.974386466439682.31943094669623,2.514681507936984-.619206336506977.424806759701823-.738003187496361.367650295835119-1.705447533515326.111661852450197-2.487368034300744-.37535893567474-1.146539441700952-1.071232768206755-2.23855023570286-1.701088988394986-3.258964753909822-.669611240813538-1.084820646010485-1.395170617512122-2.133921622496928-2.121000200335402-3.181516167644077-1.365991256432608-1.971544041221932-2.781318247227318-3.915467807735695-4.847338170329749-5.206606684983853-1.073527081274733-.670890215003965-2.42585424974277.670332786365179-1.746610921009051,1.746610921009051.935738441958165,1.482701091379568,2.032750109279732,2.857328840365881,3.279922986323072,4.089831660092386.998942099240594.987191893540512,2.850622397811094-.319502339216342,2.00497598241418-1.546999072068502-.804399832773925-1.167625320300431-1.745620207635511-2.131016546331011-2.873028818939929-2.986717211771975-1.003421908175369-.761595029463933-2.484006773880537.742968350254159-1.746610921009051,1.746610921009051.714987187539009.973142954580908,2.3333587442321.987897959223119,2.702164776455902-.351369518573847.332859499052574-1.20873267465322-1.056534307070251-2.513452570545269-1.699061387535039-3.401313859816582-.336533902174779-.465031643574548-.857366874733998-.747239990323578-1.441660835856965-.586667358102204-.506972075003432.139323433000754-.986426168337857.679543893658774-.937218301110988,1.23098436343389.264409415325645,2.963063843590135,2.468287755395068,4.826297049046843,4.76028854377364,6.419642459173701,1.044160164472487.725875756210371,2.169173244290505,1.457965354944463,2.935855799441924,2.495195750432686.870600091600863,1.177818474219748,1.153676483427262,2.661303736700575,1.398430157709299,4.073442185597742.117823131624391.679796022775918.951944633610765,1.061564747487864,1.570351283613491.891617443252471.718403196480722-.19742783586662,1.009782244924281-.888583950669272.89161744325429-1.57035128361531-.241499906116587-1.393365406387602-.565888636530872-2.784944689903568-1.250514047023898-4.036213893530658-.683790858487555-1.249743918109743-1.729962391271329-2.205478902284085-2.851847839774564-3.05478424879766-1.751068770472557-1.325618467428285-4.678630518077625-2.726476548563369-4.901010898413006-5.218548412512973l-2.378879136967953.644317005331686c.517983644404012.715763802529182,1.089878910332118,1.415713280377531,1.54503566715357,2.173095671010742l-.174291305613224-.644317005333505.025335272624943.244534263294554.174291305613224-.644317005331686-.072716657376077.10064192128084.762926995495945-.586667358100385.107213207973473-.012693331646005,1.102293915677365.632268215958902-.064016127760624-.087130014069771-1.746610921009051,1.746610921009051c.756835409578343.574436417382458,1.419263741936447,1.29010430237031,1.957074998248572,2.070763391080618l2.00497598241418-1.546999072068502c-1.098677654124913-1.085754294057551-2.056249490342452-2.266740100563766-2.880699288441974-3.573101537282128l-1.746610921009051,1.746610921009051c2.017215254256371,1.260638878369718,3.314974620870998,3.380968606224997,4.628947610852265,5.302687470350065.718998615237069,1.051553732622779,1.421641295451991,2.115839744677942,2.048669856272681,3.225416880331977.284628099290785.503672162438306.625156146654263,1.036426351931368.817607535584102,1.582741926260496.030763278631639.087328329131196.056261561872816.303419850164573.103883741319805.380858025579073.172485517359746.280477792168313-.290820730679116.18633794762718.345383709383896-.068680419435623l.983683925511286.128690447756526c-.991385873636318-.61953604691189-1.1967926881116-2.079945052206313-1.583789475878802-3.088733476710331-.626883549806735-1.634103663245696-1.558233810736056-2.716928992862449-3.061596557934536-3.623660970319179-1.336332291195504-.805989920389038-2.571917984898391-1.678308023261707-3.555462117912612-2.911871420583338-.438560017681084-.5500430201173-.82983043565946-1.175910328118334-1.105763101890261-1.824356347477078-.143954185747134-.338294555669563-.252368933714024-.696564389523701-.338940921785252-1.053564363346595-.042504792692853-.175278519267522-.086350755949752-.358682857338863-.11102473603205-.538029350660508l-.022083675017711-.223764299034883c-.003687512094984-.233857944122065-.010105984609254-.232154823477686-.019255417539171.005109361933137l-.457976910345678.457976910345678c-.259928890218362.036684505177618-.240727689093546.043042663201049.057603603381722.019074474072113.158243079309614-.004822463863093.316460030995586-.004083314113814.474650855054279.002217449251475.281940541188305.011110432171336.554269318270599.042789194674697.830252930605639.100045731021964.588418039100361.122075287581538,1.164494908487541.310245377662795,1.700874065021708.581862250688573,1.09648962328356.55525103679247,2.037677850534237,1.317964210527862,2.842628377684377,2.244399751338278,1.76985944192711,2.036970762717829,2.673831331181646,4.695876089936064,3.436539184476715,7.237502262782073.47107567209423,1.569799304430489,2.936042453877235.90105609784041,2.461968726867781-.678733840362838h0Z" fill="#fff" stroke-width="0"/>
  <path d="M175.577289972392464,87.31737279479421c-.14139821797653-.473178555355844-.38913024282374-.899802809486573-.734499760115796-1.25331932692643-.145801617689358-.14924096523464-.362596190401746-.273028527239148-.563315146557215-.328302296697075l-.3393669201796-.045600857856698c-.175759931855282-.006630342339122-.339707252773223.030018351571925-.491841962757462.109946081734961-.108129832769919.030326517542562-.20201569053097.085043566990862-.281657573277698.164151148348537-.09591388921217.056745080903056-.172243374268874.13307456595976-.22898845517193.22898845517193-.171752515876506.222305687495464-.274908478770158.486400542904448-.274097230083498.77349953603516.002361995695537.835904694406054.088060189913449,1.666290605857284.221186723369101,2.491144229674319.039496200100984.16612557445842.115661657509918.310836446411486.2284963722268.434132615853741.090013722392541.138974732779388.209404051016463.248572859327396.358170985875404.328794379642204l.304950085152086.128690447756526c.1696834600898.053201000831905.3393669201796.060801143808931.5090503802694.022800428929258.267867006323286-.035993388139104.544726917663866-.146009632097048.732998606647016-.351102725626333l.199611848940549-.258365061405129c.115477983044912-.199110756590017.173575084916592-.413883091701791.174291305613224-.644317005331686.039453022400266-.595435975323198-.027648472590954-1.203296078167114-.16033969950513-1.783871234101753l-2.461968726867781.678733840362838c.135084898374771.373989919658925.270169796931441.747979839254185.405254695497206,1.121969758845808.114673984257024.317481188545571.287545653578491.587884132508407.586667358102204.762926995495945.273632162889044.160126652373947.676909417617935.227966894062774.983683925511286.128690447756526.30889493335053-.099962645119376.606915979724363-.291385225638805.762926995497764-.586667358102204.153354142397802-.290253466813738.244510638305655-.663029402245229.128690447756526-.983683925513105-.135084898565765-.373989919589803-.270169797122435-.747979839185064-.405254695497206-1.121969758845808-.114673984058754-.317481188501915-.28754565372401-.587884132593899-.586667358102204-.762926995495945-.273632162889044-.160126652373947-.676909417617935-.227966894062774-.983683925513105-.128690447756526-.30889493335053.099962645121195-.606915979722544.291385225638805-.762926995495945.586667358102204-.164577259907674.311495467287386-.207949216239285.63689632740352-.128690447756526.983683925513105.033987935797995.148710292194664.061474265243305.298345518700444.082605436165977.449419063370442l-.045600857856698-.3393669201796c.043340212207113.330390329037982.054164447446965.662586644313706.032133405482455.995085250548073l2.507569584724479-.339366920181419c-.020258389200535-.125521226389537-.038928911617404-.251255001989193-.05602055579584-.377245977575512l.045600857856698.3393669201796c-.077949107486347-.588488796247475-.117887911339494-1.180904010590893-.119565309716563-1.774531331915568l-2.179267288027404.902682066736816c.049349527678714.050513644921011.095335246482136.103163659514394.138807574452585.158832489312772l-.199611848940549-.258365061405129c.084770816200034.113601620398185.154260923491165.234615666800892.209609030865977.365115051608882l-.128690447756526-.304950085150267c.021772451622383.054646524018608.040942640318463.109708803676767.057780858100159.16605663944938.093228029783859.311980625237993.303500078371144.597220493429631.586667358102204.762926995495945.273632162889044.160126652373947.676909417617935.227966894062774.983683925513105.128690447756526.308894933348711-.099962645119376.606915979722544-.291385225638805.762926995495945-.586667358102204.15864002413764-.300258057992323.228356766001525-.650158049733363.128690447756526-.983683925513105h0Z" fill="#fff" stroke-width="0"/>
  <path d="M173.758688055069797,86.390033264839076c-.070996297203237.439182062767941-.120226785656996.875028390833904-.081363875124225,1.319087225461772-.006630342339122.175759931855282.030018351571925.339707252773223.109946081734961.491841962755643.051483352524883.158263923856794.139469043464487.295210625185064.263957072818812.410840103981172.115629478796109.124488029354325.252576180124379.212473720293929.410840103979353.263957072818812.15213470998242.079927730163035.31608203090218.116576424074083.491841962757462.109946081734961l.3393669201796-.045600857856698c.216259665545294-.060653035083305.40403138106376-.170087133981724.563315146557215-.328302296697075l.199611848940549-.258365061405129c.115477983044912-.199110756590017.173575084916592-.413883091701791.174291305613224-.644317005331686-.025307952922958-.289175975956823-.018901454863226-.579754983633393.019029130515264-.867545360921213l-.045600857854879.339366920181419c.005123375143739-.037464788316356.010699401163947-.07484570421002.016733886750444-.11217494435914.053201000831905-.169683460091619.060801143808931-.339366920181419.022800428927439-.509050380271219-.007704673384069-.16989093859047-.058201632278724-.328102120338372-.151490876683965-.474633545241886-.080221520314808-.148766934857122-.189819646862816-.268157263482863-.328794379642204-.358170985875404-.123296169442256-.112834714716882-.268007041393503-.189000172125816-.434132615853741-.2284963722268l-.339366920181419-.045600857856698c-.230433913629895.000716220696631-.44520624874167.058813322568312-.644317005331686.174291305613224l-.258365061405129.199611848940549c-.158215162715351.159283765493456-.267649261613769.347055481011921-.328302296697075.563315146555396h0Z" fill="#fff" stroke-width="0"/>
</svg>