<?xml version="1.0" encoding="UTF-8"?>
<svg id="Layer_1" data-name="Layer 1" xmlns="http://www.w3.org/2000/svg" width="280" height="280" viewBox="0 0 280 280">
  <path d="M267.511860299619002,86.624566260805295c.517822265630457.44305419921875,1.086975097661707.8052978515625,1.710571289071595,1.08111572265625.026306152340112.009765625.053466796869543.0147705078125.079833984369543.024169921875-.200378417970569-.370849609375-.439514160159888-.7305908203125-.754150390619543-1.068359375-.345397949220569-.0123291015625-.690795898441138-.024658203125-1.036254882821595-.03692626953125Z" fill="#bfe1c6" stroke-width="0"/>
  <g>
    <g>
      <path d="M152.840166608595609,198.12168277580713c.005444338014058.000942289272643.009841687951848.002722169008848.015181327162281.003559759472409-.005339639210433-.005863133248567-.010574579609965-.012040362920743-.016018917627662-.018008194978393v.014448435505983h.00083759046538Z" fill="none" stroke="#181818" stroke-linecap="round" stroke-linejoin="round" stroke-width="48.030788898468003"/>
      <path d="M202.513259683639262,127.412923990450508c-15.5958297424786-15.318273202450655-31.221184548829115-30.607440136274818-46.679230659972745-46.063706367682244-2.898377102166705-2.898063005741278-4.743170099318377-3.028727118138704-7.674317928387609-.018845785441954-9.968373510713718,10.235878965178927-20.201635005695607,20.21398946503723-30.333548054519269,30.290516844424928h0c.245414005976272,1.243507742745351.809321785921384,2.519681513589603.683683216309873,3.723613106905759-.91381119631842,8.746852517650041,1.079235312977289,16.829914592512068,5.263627873938276,24.459840226301822h0c7.545643093341823.355452453195539,15.114424623255218-.432720173508642,22.653576390498529.623690799320684,4.292127634405915.601389953213584,6.399714639661397,3.114789538321929,6.421282594114018,7.151975575219694.090040974890144,16.841850256625548.009213495104632,33.684747501331003-.009004097490106,50.527225950801949.005444338017696.00596783205765.010679278417228.012145061729825.016018917627662.018008194978393,3.658176351898874.608090676927532,5.379110659170692,2.785616485936771,5.232741725572851,6.474574287391079,1.419506439011457.09066916773736,2.839222275637439.181547733091065,4.258833413456159.272216900828425,0,.000314096423608.000104698807263.000628192847216.000104698807263.000837590463561,0-.000104698807263,0-.000209397616345.000104698810901-.00041879523269,3.550441278453945.700644423210179,3.507305369552341-2.596111643435506,4.845042039509281-4.356517401331075.000314096421789,0,.000628192847216.000104698809082.000942289272643.000104698809082.706926351689617-1.047511574148302,1.181630747207237-2.46031728944763,2.159517614029028-3.082437606648455,6.895986989635276-4.387822344926462,11.524616592983875-11.276480417998755,17.995317024484393-16.109586793396375-2.054714107220207-5.174215091896258-5.248446546780542-8.37422945993967-11.430701762201352-7.312792944325338-1.856519263648806.318807870393357-3.989024585214793.620235738657357-5.84240288462388-.528938378070961.000104698807263-.000209397616345.000209397618164-.000209397616345.000314096425427-.000418795230871h-.000523494039953c-3.31999920202361-.423192581980402-4.485506332799559-2.497799462715193-4.471895487760776-5.628607918664784.030990847171779-7.111561835328757-.007747711792035-14.223437767081123-.029734461473709-21.335104301217143-.012354459344351-3.929555662263738,2.147581949917367-5.645569125561451,5.856432524895354-5.730061063624817,3.268173292057327-.074440852496991,6.538021765045414-.077581816736711,9.807242045179009-.112132423380899-.001046988079906-7.983912303674515.005234940399532-15.967929306158112-.00889939867011-23.95194630863989-.003036265439732-1.727111536947632-.236200510880735-3.756069737390135,1.654031768948698-4.481737175712624,1.846049382851561-.708810930233085,2.53580513002089,1.422228608018486,3.592216102850216,2.397183908216903,6.378041986401513,5.886585781601752,11.94089905364126,12.621441305705957,18.8321745969115,17.985684734141614,2.073036398618569,1.613513330255955,3.25728461602921,3.733245397243081,3.473382955759007,6.567651527713679.172648334410042,2.265891602970441.016961206900305,4.914352650412184,2.342845226859936,6.516872605825483-.00670072371031-2.589201522107032-.013192049809732-5.178403044215884-.019892773520041-7.767604566324735-2.083925074650324-4.146072797228044-5.331786797960376-7.32954475360566-8.589280811600474-10.529140326418201Z" fill="none" stroke="#181818" stroke-linecap="round" stroke-linejoin="round" stroke-width="48.030788898468003"/>
      <path d="M114.417798044774827,95.312897647174395c-.000628192849035.000209397616345-.001046988079906.000628192847216-.001675180928942.000837590463561-4.150470147165834,4.887549755561849-8.896467114298503,9.17705991976618-13.571792386021116,13.535671297257068v-.000209397614526c-3.225246780775706,3.753556965995813-6.580948276330673,7.374774638667077-10.540552496493547,10.38277139281854-3.836164325515711,3.919713974310071-7.646572744262812,7.864241566119745-11.521475628744156,11.744274692193358-1.311038473912049,1.312713654839172-2.488271871186953,2.675263942292077-3.150177735429679,4.428236084817399-.04889434334109,3.373500292918834.880621674177746,6.331660414456564,4.318407035214477,7.556322371759961,3.483748137752627,1.240994971352848,6.296376916156078-.146683030023269,8.707381067029928-2.825087936556884,1.305384738279827-1.450183189757809,2.500416932914959-3.111857971698555,4.401747286392492-3.930602650343644v-.000418795230871c7.969045072935842-8.485210196431581,16.097441731666549-16.807613746404968,24.766293637349008-24.584745904259762,0,.00041879523269.000209397616345.000628192849035.000209397616345.000942289272643h0c10.131913048823662-10.076527379387699,20.365174543805551-20.054637879246002,30.333548054519269-30.290516844424928,2.931147829069232-3.00988133269675,4.775940826220904-2.879217220299324,7.674317928387609.018845785441954,15.458046111143631,15.456266231407426,31.083400917494146,30.745433165231589,46.679230659972745,46.063706367682244,3.257494013640098,3.199595572812541,6.50535573695015,6.383067529190157,8.589280811600474,10.529140326418201.234630028749962-.564745370409582-.257140272480683-2.205585089555825,1.251150755730123-.930144210367871,1.303709557350885,1.102478448354304,2.497904161520637,2.334364623409783,3.741097807840561,3.508561755252231,3.559759472369478,3.36177402641988,7.72394516337954,3.63734128910437,10.52882623000005.696979964928687,2.732220093848809-2.864140591946125,2.388703304759474-6.743650223979785-1.015264341291186-10.136101001146017-7.472772722960144-7.447645009044209-14.971406051508893-14.869743508932515-22.489722755959519-22.271321042451746-14.830795552350537-14.600667572343809-29.675411347359841-29.187305504416145-44.529240637473777-43.764311146149339-4.757618534818903-4.668833945628649-7.681228049714264-4.783688538014758-12.346502235872322-.278289431693338-8.098871594869706,7.821210356027223-16.10382835895507,15.739371808271244-24.148151874852374,23.616805424198901h-.000104698807263l.000104698807263.000104698807263c-2.559048265400634,2.309446307104736-5.117991831994914,4.618997313014916-7.676935398586465,6.928548318926914Z" fill="none" stroke="#181818" stroke-linecap="round" stroke-linejoin="round" stroke-width="48.030788898468003"/>
      <path d="M88.057988549498987,183.762241257119967c3.829044806572711.159665682216655,5.141758461413701-.898839266772484,5.076845200446769-4.917074819421032-.230127980008547-14.209931620847783-.081874467865418-28.425935772560479-.075173744151471-42.640055345729706-1.901330353477533.818744678645089-3.096362548112666,2.480419460585836-4.401747286392492,3.930602650343644-2.41100415087385,2.678404906533615-5.223632929277301,4.066082907909731-8.707381067029928,2.825087936556884-3.437785361036731-1.224661957303397-4.367301378555567-4.182822078841127-4.318407035214477-7.556322371759961-.945953730379188.313154134761135-1.889918183404006.63269489681079-2.838384685175697.938206018585333-2.309027511869317.743675633300882-4.977695429259256,1.925934573360792-6.902583014538322.13799302895859-2.157423637871034-2.003830486519291-1.519389101853449-5.057999415002996-.885123722922799-7.706460462446557,2.05345772151486-8.574204183239999,10.355759100351861-15.572063113067998,19.337032249139156-14.856551459122784,3.820878299546166.304464133696456,6.015784110686582,1.230734488168309,5.961131332904188,5.313988000591053-.000209397616345.000104698809082-.000314096423608.000314096423608-.00041879523269.000314096423608,3.959604220162873-3.007996754151463,7.315305715717841-6.629214426822728,10.540552496493547-10.38277139281854-.428951016421706-6.344538367840869.411361616674185-12.723836739942271-.529043076880043-19.055183057975228.000104698809082-.000418795230871.000209397616345-.000837590463561.000209397616345-.001256385694433-8.597656716234269,1.677274904333899-14.247727890538954,6.717894317207538-16.877029056115134,15.039355577908282-.960088069459744,3.038150010859681-2.483351027211029,5.323620290928375-5.617509845014865,6.45593789956547-14.243435239412065,5.145737016116982-19.235683802984568,15.66126649749458-14.149834505049512,29.967311624095601.983750000070359,2.766770700494817.67321333550899,5.016538687032153-1.430604512659556,6.967810371930682-11.95869785099967,11.091372925437099-6.827199872772326,33.141674784175848,12.248504151571979,35.822592462101966,4.504980311090549-.818535281028744,9.063775809498111-.471354033665193,13.568965518205005-.28352437209287Z" fill="none" stroke="#181818" stroke-linecap="round" stroke-linejoin="round" stroke-width="48.030788898468003"/>
      <path d="M102.40675078977074,204.596675858430899c-.896012398958192-4.901369998220616,3.651475628184926-4.076133993479743,5.92741831672538-5.640334185161919.038319763731124-.284047866132823.076534828654985-.568095732265647.114749893578846-.852143598400289.000104698809082-.000104698807263.000314096425427-.000209397614526.00041879523269-.000314096423608h-.001046988079906c-.024604219883258-15.710789033682886-.106583386554121-31.422206260214807-.041460727972662-47.13289059509043.019997472330942-4.813422999490285,3.959499521353791-9.414726213950416,8.419249947384742-10.360365847904177,2.173023760263277-1.498658737868027,4.655013702968972-.335350282059153,6.947394104367959-.806285520491656-4.184392560960987-7.629925633789753-6.177439070256696-15.712987708651781-5.263627873938276-24.459840226301822.12563856961151-1.203931593316156-.438269210333601-2.480105364160408-.683683216309873-3.723613106905759,0-.000314096423608-.000209397616345-.000523494039953-.000209397616345-.000942289272643-8.668851905682459,7.777132157854794-16.797248564413167,16.099535707828181-24.766293637349008,24.584745904259762v.000418795230871c-.006700723713948,14.214119573169228-.154954235857076,28.430123724881923.075173744151471,42.640055345729706.064913260966932,4.018235552648548-1.247800393874058,5.076740501637687-5.076845200446769,4.917074819421032-4.505189708706894-.187829661572323-9.063985207114456-.535010908935874-13.568965518205005.28352437209287,4.655327799394399.074964346536945,9.322800660518624.385082215863804,13.962004843479008.146368933599661,3.397685717567583-.174847009378936,4.780652272582302.596783205661268,4.538483929653012,4.323537276808565-.348123536636194,5.353459451209346-.099882662841992,10.745657461384326-.10616459132325,16.121417758700773,3.175933642201926.339014740338826,6.350610898705781.376287515991862,9.523403576667988-.040413739890937Z" fill="none" stroke="#181818" stroke-linecap="round" stroke-linejoin="round" stroke-width="48.030788898468003"/>
      <path d="M162.347027773594164,204.872871313962605c0-.000209397616345-.000104698807263-.000523494039953-.000104698807263-.000837590463561-1.41961113781872-.09066916773736-2.839326974444703-.181547733091065-4.258833413456159-.272216900828425v.001046988079906c-16.585861671039311.530404161383558-33.170885751613241.445912223318373-49.755700434570826-.038005667307516-.000314096423608-.000314096423608-.000523494039953-.000732891656298-.000732891656298-.000942289272643v.002303373776158c-1.974619519085536.010469880800883-3.949867231016469.022196147298018-5.924905545332876.033189522138855v-.000732891654479c-3.172792677962207.416701255882799-6.347469934466062.379428480229762-9.523403576667988.040413739890937-10.119349191863876.066693140703137-20.239117178960441.111818326955472-30.358256973207972.2083506279414-5.962701815025866.056956151558552-10.52631345860209,3.268487388482754-12.446698995137922,8.650424915473195-1.478242470303485,4.142931832988324-1.217542438358578,4.535447664220555,3.274455220540403,4.537122845149497,27.380413475762907.010155784377275,54.760826951527633.017694098554784,82.141240427295088-.001361084503515,9.548426591779389-.006700723713948,19.096853183559688-.091297360586395,28.645175076532723-.140296402734748-.000209397614526,0-.00041879523269-.000104698809082-.000732891654479-.000104698809082-2.225582561888586-4.114977251249002-3.91332734702155-8.304290656187732-1.79150130387643-13.018354486875978Z" fill="none" stroke="#181818" stroke-linecap="round" stroke-linejoin="round" stroke-width="48.030788898468003"/>
      <path d="M208.779588041899842,139.192796277367961c-.216098339729797-2.834406130470597-1.400346557140438-4.954138197457723-3.473382955759007-6.567651527713679-6.89127554327024-5.364243428435657-12.454132610509987-12.099098952539862-18.8321745969115-17.985684734141614-1.056410972829326-.974955300198417-1.746166719998655-3.105994838449988-3.592216102850216-2.397183908216903-1.890232279829434.725667438322489-1.657068034388431,2.754625638764992-1.654031768948698,4.481737175712624.014134339069642,7.984017002481778.007852410590203,15.968034004965375.00889939867011,23.95194630863989,3.418520780369363.061981694343558,6.83662276549876.151185078768322,10.255352943469916.178720865274954,3.830301192268962.030886148362697,6.088026288220135,1.486199579714594,6.395840783769017,5.71749720666412.549982838479991,7.563232493088435-.331057630928626,15.088040523634845-.259862441478617,22.635149400288356.03099084716996,3.301048717774393-2.443460781360045,4.16942063141687-5.313464506551099,4.180728102681314-7.413303800020003.028792172202884-14.826398202416385.061981694341739-22.239387906009142.093810131978898-.000104698807263.000209397614526-.000209397618164.000209397614526-.000314096425427.000418795230871,1.853378299409087,1.149174116728318,3.985883620975073.847746248464318,5.84240288462388.528938378070961,6.18225521542081-1.061436515614332,9.375987654981145,2.13857785242908,11.430701762201352,7.312792944325338h.000104698799987c4.086185079049756-1.645446466698559,8.256338602130199-2.742689974651512,12.716507823390202-1.952423371785699v.000209397616345-.000104698809082c4.276527512009125-.164377128576234,7.43769862227964,2.491936329466625,10.926367604010011,4.319768119719811.04376410174882-12.660598659902462.087737601110348-25.321197319806743.131711100470056-37.981586582094678l-.000209397610888-.000209397616345c-2.325884019959631-1.6025199554133-2.170196892449894-4.250981002855042-2.342845226859936-6.516872605825483Z" fill="none" stroke="#181818" stroke-linecap="round" stroke-linejoin="round" stroke-width="48.030788898468003"/>
      <path d="M219.961316038650693,204.921660958496432c-1.359618720831349-.264992683076343-3.052389048740224-.022614942530709-2.554232120230154-2.319287995056584,1.644399478620471-7.582706471377605-1.561896817911474-13.528342380697723-6.415733557290878-18.910698702919035-.000209397619983-.000104698809082-.000209397619983-.000209397616345-.000418795229052-.000209397616345-3.48866898173037-1.827831790253185-6.649840092000886-4.484145248296045-10.926367604010011-4.319768119719811v.000104698809082c-.661068273780984,3.622578757174779-2.698297680060932,6.861959877029221-2.583966581711138,10.738433243632244.206884844630622,7.024243029447462,4.840854087191474,13.617231668697059,11.526919966760033,15.913067130759373.539303560070039.185107492563475,1.067090251250193.403928001305758,1.604928028000359.593223446190677,4.658678161249554,1.640420923913553,4.960106029509916,2.842991432726194,1.523681752980337,6.431752474913083-.778645035170484.812986244205604-1.730461898800058,1.460024877711476-2.602602969529471,2.183493641066889h-.000104698810901c-1.161842672499915.872873962385711-2.323999441419801,1.745747924773241-3.486470306759657,2.618726585966215h-.000628192850854c7.397284882390522.077267720313102,14.795093258820998.13003591955021,22.191854647171567.245623403594436,2.466703916739789.038529161347469,2.858382157508458-1.031073861291588,2.217311356049322-3.214776899973003-1.583045977120491-5.392930901831278-4.895088069730264-8.868303134942835-10.494170924539503-9.95968350964722Z" fill="none" stroke="#181818" stroke-linecap="round" stroke-linejoin="round" stroke-width="48.030788898468003"/>
      <path d="M209.533419459579818,215.231771378556004h.000104698810901-.000104698810901c-.125952666039666-.40204342276229-.140715197969257-1.058295551374613-.393981614539371-1.169066890250178-6.311453544511096-2.759965277973606-12.403877182659926-6.296062819730651-19.527898176151211-6.473108504078482-2.467122711959746-.061144103878178-4.735841182749937.72493454666801-3.01857133375961,4.073516523278158.873816251660173,1.704077799186052-.08438723925974,2.30996980114287-1.514049462650291,2.685733823094779-6.87965397557673,1.808043715538588-11.590053347985304-1.06572916674304-13.398515858758401-7.928317236621297-.653634658410738-2.480733557009444-2.01053121023142-4.682549489476514-4.487495610152109-5.904175181347455.000104698807263,0,.000209397618164-.000209397616345.000209397618164-.000314096423608-.000314096425427,0-.000628192850854-.000104698809082-.000942289272643-.000104698809082-1.337736669956939,1.760405757895569-1.294600761055335,5.057161824541254-4.845042039509281,4.356517401331075-.000104698810901.000209397616345-.000104698810901.000314096425427-.000104698810901.00041879523269-2.12182604314512,4.714063830688247-.434081258012156,8.903377235626976,1.79150130387643,13.018354486875978.000314096421789,0,.000523494039953.000104698809082.000732891654479.000104698809082,2.417809573395061.157257609631415,4.837084930102719.456277405310175,7.254999202305044.447692103054578,11.551733584259637-.041041932741791,23.116240423099953.713312978976319,34.652059788539191-.488524638180024h.000628192850854c1.162470865339856-.872978661192974,2.324627634259741-1.745852623580504,3.486470306759657-2.618726585966215Z" fill="none" stroke="#181818" stroke-linecap="round" stroke-linejoin="round" stroke-width="48.030788898468003"/>
      <path d="M107.572066482984155,75.682080542756012c-.389793662223383,5.379738852021546-.090459770121015,10.810466023543995-.065332056197803,16.219101746575689.024394822266913,5.260068114464957.459313670742631,5.547152246032056,5.255566065719904,3.682466475358524.510092592629007-.198194843564124,1.101640857890743-.186782673492417,1.655392853459489-.271798105595735-.000523494039953.000628192847216-.000942289270824.001256385696252-.00157048211986.001884578543468.000628192849035-.000209397616345.001046988079906-.000628192847216.001675180928942-.000837590463561,2.558943566591552-2.309551005911999,5.117887133185832-4.619102011822179,7.676935398586465-6.928548318926914l-.000104698807263-.000104698807263c-1.809509498853004-1.063844588197753-1.540433562266116-2.896178427195991-1.586710435403802-4.543928267670708-.100092060460156-3.551802362959279-.077058322698576-7.106850388967359-.11977543636749-10.660537330471925-.019473978288261-1.610477064823499-.104489410395217-3.531071998973857-2.164333759198598-3.531700191822893-5.332100894376708-.001884578543468-10.707128300036857-1.000292411734335-15.997768466440903.457952586239116,4.3089841424935-.556160068152167,5.65624840397868,1.293449074166347,5.346025835840919,5.576049117042203Z" fill="none" stroke="#181818" stroke-linecap="round" stroke-linejoin="round" stroke-width="48.030788898468003"/>
      <path d="M100.844330477824769,108.849197137280498v.000209397614526c4.675325271722613-4.358611377490888,9.421322238855282-8.648121541695218,13.571792386021116-13.535671297257068.000628192849035-.000628192847216.001046988079906-.001256385696252.00157048211986-.001884578543468-.553751995568746.085015432103319-1.145300260830481.073603262031611-1.655392853459489.271798105595735-4.796252394977273,1.864685770673532-5.231171243452991,1.577601639106433-5.255566065719904-3.682466475358524-.025127713923212-5.408635723031693-.324461606025579-10.839362894554142.065332056197803-16.219101746575689.31022256813776-4.282600042875856-1.037041693347419-6.13220918519437-5.346025835840919-5.576049117042203-1.861544806433812,1.239633886849333-1.454685238502861,3.170279906569704-1.525671030334706,4.964503379451344-.194111590051762,4.905034456500289.441828969806011,9.831532168642298-.384872818247459,14.722222888445685,0,.000418795230871-.000104698807263.000837590463561-.000209397616345.001256385694433.940404693554228,6.331346318032956.100092060458337,12.710644690134359.529043076880043,19.055183057975228Z" fill="none" stroke="#181818" stroke-linecap="round" stroke-linejoin="round" stroke-width="48.030788898468003"/>
      <path d="M108.348198746769413,198.95874974585422c14.830690853542364-.279022323349636,29.661277008281104-.558254044313799,44.491130271360817-.83706697004709v-.014448435505983c.018217592594738-16.842478449470946.09904507238025-33.6853756941764.009004097490106-50.527225950801949-.021567954452621-4.037186036897765-2.129154959708103-6.55058562200611-6.421282594114018-7.151975575219694-7.539151767243311-1.056410972829326-15.107933297156706-.268238346125145-22.653576390498529-.623690799320684h0c-2.292380401398987.470935238432503-4.774370344104682-.692373217376371-6.947394104367959.806285520491656,2.046756997801822.28509485421273,1.799144316857564,1.849295045894905,1.799353714474819,3.256237627943847.0039785547051,16.915767615080767-.037482173268472,33.831639928968798.045858077908633,50.746988748816875.012563856958877,2.555907301160914-.759171056887681,3.649800447259622-3.403758248433405,3.466472834432352-2.261703650650816-.156734115593281-4.54518465336696.003245663048801-6.81819577528222.023557231801533-.000104698807263.000104698809082-.000314096423608.000209397616345-.00041879523269.000314096423608-.038215064923861.284047866134642-.076430129847722.568095732267466-.114749893578846.852143598400289.004397349935971-.003036265432456.009632290338232-.005339639206795.014029640273293-.008375904639252v.010783977224492Z" fill="none" stroke="#181818" stroke-linecap="round" stroke-linejoin="round" stroke-width="48.030788898468003"/>
      <path d="M192.314548795309747,173.388055166557024c2.870003725191054-.011307471264445,5.34445535372106-.879679384906922,5.313464506551099-4.180728102681314-.071195189450009-7.54710887665351.809845279958608-15.07191690719992.259862441478617-22.635149400288356-.307814495548882-4.231297626949527-2.565539591500055-5.686611058301423-6.395840783769017-5.71749720666412-3.418730177971156-.027535786506633-6.836832163100553-.116739170931396-10.255352943469916-.178720865274954-3.269220280133595.034550606644189-6.539068753121683.037691570883908-9.807242045179009.112132423380899-3.708850574977987.084491938063366-5.868786984239705,1.800505401361079-5.856432524895354,5.730061063624817.021986749681673,7.11166653413602.060725308645488,14.223542465888386.029734461473709,21.335104301217143-.013610845038784,3.130808455949591,1.151896285737166,5.205415336684382,4.471895487760776,5.628607918664784h.000523494039953c7.412989703592757-.031828437637159,14.826084105989139-.065017959776014,22.239387906009142-.093810131978898Z" fill="none" stroke="#181818" stroke-linecap="round" stroke-linejoin="round" stroke-width="48.030788898468003"/>
      <path d="M187.348056138500397,181.324015416163093h-.000104698799987c-6.470700431500518,4.83310637539762-11.099330034849118,11.721764448469912-17.995317024484393,16.109586793396375-.977886866821791.622120317200825-1.452591262339411,2.034926032500152-2.159517614029028,3.082437606648455,0,.000104698807263-.000104698810901.000314096423608-.000209397618164.000314096423608,2.476964399920689,1.22162569187094,3.833860951741372,3.423441624338011,4.487495610152109,5.904175181347455,1.808462510773097,6.862588069878257,6.518861883181671,9.736360952159885,13.398515858758401,7.928317236621297,1.429662223390551-.375764021951909,2.387865714310465-.981656023908727,1.514049462650291-2.685733823094779-1.717269848990327-3.348581976610149.551448621799864-4.134660627156336,3.01857133375961-4.073516523278158,7.124020993491285.177045684347831,13.216444631640115,3.713143226104876,19.527898176151211,6.473108504078482.253266416570114.110771338875566.268028948499705.767023467487888.393981614539371,1.169066890250178h.000104698810901c.872141070729413-.723468763355413,1.823957934358987-1.370507396861285,2.602602969529471-2.183493641066889,3.436424276529578-3.588761042186889,3.134996408269217-4.79133155099953-1.523681752980337-6.431752474913083-.537837776750166-.18929544488492-1.06562446793032-.408115953627203-1.604928028000359-.593223446190677-6.686065879568559-2.295835462062314-11.320035122129411-8.888824101311911-11.526919966760033-15.913067130759373-.114331098349794-3.876473366603022,1.922898307930154-7.115854486457465,2.583966581711138-10.738433243632244v-.000209397616345c-4.460169221260003-.790266602865813-8.630322744340447.30697690508714-12.716507823390202,1.952423371785699Z" fill="none" stroke="#181818" stroke-linecap="round" stroke-linejoin="round" stroke-width="48.030788898468003"/>
      <path d="M152.855347935757891,198.12524253527954c-.005339639210433-.000837590463561-.009736989148223-.002617470199766-.015181327162281-.003559759472409h-.00083759046538c-14.829853263079713.278812925733291-29.660439417818452.558044646697454-44.491130271360817.83706697004709-.005863133248567,1.868140831336859-.01151686888079,3.736386361482801-.016542411665796,5.603166108316145.000209397616345.000209397616345.00041879523269.000628192849035.000732891656298.000942289272643,16.584814682957585.483917890625889,33.169838763531516.568409828691074,49.755700434570826.038005667307516v-.001046988079906c.146368933597842-3.688957801454308-1.574565373673977-5.866483610463547-5.232741725572851-6.474574287391079Z" fill="none" stroke="#181818" stroke-linecap="round" stroke-linejoin="round" stroke-width="48.030788898468003"/>
      <path d="M90.303777981331223,119.231968530099039c.000104698809082,0,.000209397616345-.000209397614526.00041879523269-.000314096423608.054652777782394-4.083253512422743-2.140253033358022-5.009523866894597-5.961131332904188-5.313988000591053-8.981273148787295-.715511653945214-17.283574527624296,6.282347275882785-19.337032249139156,14.856551459122784-.63426537893065,2.648461047443561-1.272299914948235,5.702629975927266.885123722922799,7.706460462446557,1.924887585279066,1.787941544402202,4.593555502669005.605682604342292,6.902583014538322-.13799302895859.948466501771691-.305511121774543,1.892430954796509-.625051883824199,2.838384685175697-.938206018585333.661905864242726-1.752972142525323,1.83913926151763-3.115522429978228,3.150177735429679-4.428236084817399,3.874902884481344-3.880033126073613,7.685311303228445-7.824560717883287,11.521475628744156-11.744274692193358Z" fill="none" stroke="#181818" stroke-linecap="round" stroke-linejoin="round" stroke-width="48.030788898468003"/>
      <path d="M115.267533570589876,198.08032674664355c2.644587191545725.18332761282727,3.416322105392283-.910565533271438,3.403758248433405-3.466472834432352-.083340251177106-16.915348819848077-.041879523203534-33.831221133736108-.045858077908633-50.746988748816875-.000209397617255-1.406942582048941.247403283327003-2.971142773731117-1.799353714474819-3.256237627943847-4.459750426030951.94563963395376-8.3992524750538,5.546942848413892-8.419249947384742,10.360365847904177-.065122658581458,15.710684334875623.016856508089404,31.422101561407544.041460727972662,47.13289059509043h.001046988079906c2.27301112191526-.020311568752732,4.556492124631404-.180291347394814,6.81819577528222-.023557231801533Z" fill="none" stroke="#181818" stroke-linecap="round" stroke-linejoin="round" stroke-width="48.030788898468003"/>
      <path d="M108.348198746769413,198.95874974585422v-.010783977224492c-.004397349935061.003036265432456-.009632290337322.005339639206795-.014029640273293.008375904639252-2.275942688540454,1.564200191682176-6.823430715683571.738964186941303-5.92741831672538,5.640334185161919v.000732891654479c1.975038314316407-.010993374840837,3.95028602624734-.022719641337972,5.924905545332876-.033189522138855v-.002303373776158c.005025542785006-1.866779746833345.010679278417228-3.735025276979286.016542411665796-5.603166108316145Z" fill="none" stroke="#181818" stroke-linecap="round" stroke-linejoin="round" stroke-width="48.030788898468003"/>
    </g>
    <g>
      <path d="M202.513259683639262,127.412923990450508c-15.5958297424786-15.318273202450655-31.221184548829115-30.607440136274818-46.679230659972745-46.063706367682244-2.898377102166705-2.898063005741278-4.743170099318377-3.028727118138704-7.674317928387609-.018845785441954-9.968373510713718,10.235878965178927-20.201635005695607,20.21398946503723-30.333548054519269,30.290516844424928h0c.245414005976272,1.243507742745351.809321785921384,2.519681513589603.683683216309873,3.723613106905759-.91381119631842,8.746852517650041,1.079235312977289,16.829914592512068,5.263627873938276,24.459840226301822h0c7.545643093341823.355452453195539,15.114424623255218-.432720173508642,22.653576390498529.623690799320684,4.292127634405915.601389953213584,6.399714639661397,3.114789538321929,6.421282594114018,7.151975575219694.090040974890144,16.841850256625548.009213495104632,33.684747501331003-.009004097490106,50.527225950801949.005444338017696.00596783205765.010679278417228.012145061729825.016018917627662.018008194978393,3.658176351898874.608090676927532,5.379110659170692,2.785616485936771,5.232741725572851,6.474574287391079,1.419506439011457.09066916773736,2.839222275637439.181547733091065,4.258833413456159.272216900828425,0,.000314096423608.000104698807263.000628192847216.000104698807263.000837590463561,0-.000104698807263,0-.000209397616345.000104698810901-.00041879523269,3.550441278453945.700644423210179,3.507305369552341-2.596111643435506,4.845042039509281-4.356517401331075.000314096421789,0,.000628192847216.000104698809082.000942289272643.000104698809082.706926351689617-1.047511574148302,1.181630747207237-2.46031728944763,2.159517614029028-3.082437606648455,6.895986989635276-4.387822344926462,11.524616592983875-11.276480417998755,17.995317024484393-16.109586793396375-2.054714107220207-5.174215091896258-5.248446546780542-8.37422945993967-11.430701762201352-7.312792944325338-1.856519263648806.318807870393357-3.989024585214793.620235738657357-5.84240288462388-.528938378070961.000104698807263-.000209397616345.000209397618164-.000209397616345.000314096425427-.000418795230871h-.000523494039953c-3.31999920202361-.423192581980402-4.485506332799559-2.497799462715193-4.471895487760776-5.628607918664784.030990847171779-7.111561835328757-.007747711792035-14.223437767081123-.029734461473709-21.335104301217143-.012354459344351-3.929555662263738,2.147581949917367-5.645569125561451,5.856432524895354-5.730061063624817,3.268173292057327-.074440852496991,6.538021765045414-.077581816736711,9.807242045179009-.112132423380899-.001046988079906-7.983912303674515.005234940399532-15.967929306158112-.00889939867011-23.95194630863989-.003036265439732-1.727111536947632-.236200510880735-3.756069737390135,1.654031768948698-4.481737175712624,1.846049382851561-.708810930233085,2.53580513002089,1.422228608018486,3.592216102850216,2.397183908216903,6.378041986401513,5.886585781601752,11.94089905364126,12.621441305705957,18.8321745969115,17.985684734141614,2.073036398618569,1.613513330255955,3.25728461602921,3.733245397243081,3.473382955759007,6.567651527713679.172648334410042,2.265891602970441.016961206900305,4.914352650412184,2.342845226859936,6.516872605825483-.00670072371031-2.589201522107032-.013192049809732-5.178403044215884-.019892773520041-7.767604566324735-2.083925074650324-4.146072797228044-5.331786797960376-7.32954475360566-8.589280811600474-10.529140326418201Z" fill="#f8a47e" stroke-width="0"/>
      <path d="M114.417798044774827,95.312897647174395c-.000628192849035.000209397616345-.001046988079906.000628192847216-.001675180928942.000837590463561-4.150470147165834,4.887549755561849-8.896467114298503,9.17705991976618-13.571792386021116,13.535671297257068v-.000209397614526c-3.225246780775706,3.753556965995813-6.580948276330673,7.374774638667077-10.540552496493547,10.38277139281854-3.836164325515711,3.919713974310071-7.646572744262812,7.864241566119745-11.521475628744156,11.744274692193358-1.311038473912049,1.312713654839172-2.488271871186953,2.675263942292077-3.150177735429679,4.428236084817399-.04889434334109,3.373500292918834.880621674177746,6.331660414456564,4.318407035214477,7.556322371759961,3.483748137752627,1.240994971352848,6.296376916156078-.146683030023269,8.707381067029928-2.825087936556884,1.305384738279827-1.450183189757809,2.500416932914959-3.111857971698555,4.401747286392492-3.930602650343644v-.000418795230871c7.969045072935842-8.485210196431581,16.097441731666549-16.807613746404968,24.766293637349008-24.584745904259762,0,.00041879523269.000209397616345.000628192849035.000209397616345.000942289272643h0c10.131913048823662-10.076527379387699,20.365174543805551-20.054637879246002,30.333548054519269-30.290516844424928,2.931147829069232-3.00988133269675,4.775940826220904-2.879217220299324,7.674317928387609.018845785441954,15.458046111143631,15.456266231407426,31.083400917494146,30.745433165231589,46.679230659972745,46.063706367682244,3.257494013640098,3.199595572812541,6.50535573695015,6.383067529190157,8.589280811600474,10.529140326418201.234630028749962-.564745370409582-.257140272480683-2.205585089555825,1.251150755730123-.930144210367871,1.303709557350885,1.102478448354304,2.497904161520637,2.334364623409783,3.741097807840561,3.508561755252231,3.559759472369478,3.36177402641988,7.72394516337954,3.63734128910437,10.52882623000005.696979964928687,2.732220093848809-2.864140591946125,2.388703304759474-6.743650223979785-1.015264341291186-10.136101001146017-7.472772722960144-7.447645009044209-14.971406051508893-14.869743508932515-22.489722755959519-22.271321042451746-14.830795552350537-14.600667572343809-29.675411347359841-29.187305504416145-44.529240637473777-43.764311146149339-4.757618534818903-4.668833945628649-7.681228049714264-4.783688538014758-12.346502235872322-.278289431693338-8.098871594869706,7.821210356027223-16.10382835895507,15.739371808271244-24.148151874852374,23.616805424198901h-.000104698807263l.000104698807263.000104698807263c-2.559048265400634,2.309446307104736-5.117991831994914,4.618997313014916-7.676935398586465,6.928548318926914Z" fill="#e84a49" stroke-width="0"/>
      <path d="M88.057988549498987,183.762241257119967c3.829044806572711.159665682216655,5.141758461413701-.898839266772484,5.076845200446769-4.917074819421032-.230127980008547-14.209931620847783-.081874467865418-28.425935772560479-.075173744151471-42.640055345729706-1.901330353477533.818744678645089-3.096362548112666,2.480419460585836-4.401747286392492,3.930602650343644-2.41100415087385,2.678404906533615-5.223632929277301,4.066082907909731-8.707381067029928,2.825087936556884-3.437785361036731-1.224661957303397-4.367301378555567-4.182822078841127-4.318407035214477-7.556322371759961-.945953730379188.313154134761135-1.889918183404006.63269489681079-2.838384685175697.938206018585333-2.309027511869317.743675633300882-4.977695429259256,1.925934573360792-6.902583014538322.13799302895859-2.157423637871034-2.003830486519291-1.519389101853449-5.057999415002996-.885123722922799-7.706460462446557,2.05345772151486-8.574204183239999,10.355759100351861-15.572063113067998,19.337032249139156-14.856551459122784,3.820878299546166.304464133696456,6.015784110686582,1.230734488168309,5.961131332904188,5.313988000591053-.000209397616345.000104698809082-.000314096423608.000314096423608-.00041879523269.000314096423608,3.959604220162873-3.007996754151463,7.315305715717841-6.629214426822728,10.540552496493547-10.38277139281854-.428951016421706-6.344538367840869.411361616674185-12.723836739942271-.529043076880043-19.055183057975228.000104698809082-.000418795230871.000209397616345-.000837590463561.000209397616345-.001256385694433-8.597656716234269,1.677274904333899-14.247727890538954,6.717894317207538-16.877029056115134,15.039355577908282-.960088069459744,3.038150010859681-2.483351027211029,5.323620290928375-5.617509845014865,6.45593789956547-14.243435239412065,5.145737016116982-19.235683802984568,15.66126649749458-14.149834505049512,29.967311624095601.983750000070359,2.766770700494817.67321333550899,5.016538687032153-1.430604512659556,6.967810371930682-11.95869785099967,11.091372925437099-6.827199872772326,33.141674784175848,12.248504151571979,35.822592462101966,4.504980311090549-.818535281028744,9.063775809498111-.471354033665193,13.568965518205005-.28352437209287Z" fill="#798448" stroke-width="0"/>
      <path d="M102.40675078977074,204.596675858430899c-.896012398958192-4.901369998220616,3.651475628184926-4.076133993479743,5.92741831672538-5.640334185161919.038319763731124-.284047866132823.076534828654985-.568095732265647.114749893578846-.852143598400289.000104698809082-.000104698807263.000314096425427-.000209397614526.00041879523269-.000314096423608h-.001046988079906c-.024604219883258-15.710789033682886-.106583386554121-31.422206260214807-.041460727972662-47.13289059509043.019997472330942-4.813422999490285,3.959499521353791-9.414726213950416,8.419249947384742-10.360365847904177,2.173023760263277-1.498658737868027,4.655013702968972-.335350282059153,6.947394104367959-.806285520491656-4.184392560960987-7.629925633789753-6.177439070256696-15.712987708651781-5.263627873938276-24.459840226301822.12563856961151-1.203931593316156-.438269210333601-2.480105364160408-.683683216309873-3.723613106905759,0-.000314096423608-.000209397616345-.000523494039953-.000209397616345-.000942289272643-8.668851905682459,7.777132157854794-16.797248564413167,16.099535707828181-24.766293637349008,24.584745904259762v.000418795230871c-.006700723713948,14.214119573169228-.154954235857076,28.430123724881923.075173744151471,42.640055345729706.064913260966932,4.018235552648548-1.247800393874058,5.076740501637687-5.076845200446769,4.917074819421032-4.505189708706894-.187829661572323-9.063985207114456-.535010908935874-13.568965518205005.28352437209287,4.655327799394399.074964346536945,9.322800660518624.385082215863804,13.962004843479008.146368933599661,3.397685717567583-.174847009378936,4.780652272582302.596783205661268,4.538483929653012,4.323537276808565-.348123536636194,5.353459451209346-.099882662841992,10.745657461384326-.10616459132325,16.121417758700773,3.175933642201926.339014740338826,6.350610898705781.376287515991862,9.523403576667988-.040413739890937Z" fill="#e08557" stroke-width="0"/>
      <path d="M162.347027773594164,204.872871313962605c0-.000209397616345-.000104698807263-.000523494039953-.000104698807263-.000837590463561-1.41961113781872-.09066916773736-2.839326974444703-.181547733091065-4.258833413456159-.272216900828425v.001046988079906c-16.585861671039311.530404161383558-33.170885751613241.445912223318373-49.755700434570826-.038005667307516-.000314096423608-.000314096423608-.000523494039953-.000732891656298-.000732891656298-.000942289272643v.002303373776158c-1.974619519085536.010469880800883-3.949867231016469.022196147298018-5.924905545332876.033189522138855v-.000732891654479c-3.172792677962207.416701255882799-6.347469934466062.379428480229762-9.523403576667988.040413739890937-10.119349191863876.066693140703137-20.239117178960441.111818326955472-30.358256973207972.2083506279414-5.962701815025866.056956151558552-10.52631345860209,3.268487388482754-12.446698995137922,8.650424915473195-1.478242470303485,4.142931832988324-1.217542438358578,4.535447664220555,3.274455220540403,4.537122845149497,27.380413475762907.010155784377275,54.760826951527633.017694098554784,82.141240427295088-.001361084503515,9.548426591779389-.006700723713948,19.096853183559688-.091297360586395,28.645175076532723-.140296402734748-.000209397614526,0-.00041879523269-.000104698809082-.000732891654479-.000104698809082-2.225582561888586-4.114977251249002-3.91332734702155-8.304290656187732-1.79150130387643-13.018354486875978Z" fill="#bbc369" stroke-width="0"/>
      <path d="M208.779588041899842,139.192796277367961c-.216098339729797-2.834406130470597-1.400346557140438-4.954138197457723-3.473382955759007-6.567651527713679-6.89127554327024-5.364243428435657-12.454132610509987-12.099098952539862-18.8321745969115-17.985684734141614-1.056410972829326-.974955300198417-1.746166719998655-3.105994838449988-3.592216102850216-2.397183908216903-1.890232279829434.725667438322489-1.657068034388431,2.754625638764992-1.654031768948698,4.481737175712624.014134339069642,7.984017002481778.007852410590203,15.968034004965375.00889939867011,23.95194630863989,3.418520780369363.061981694343558,6.83662276549876.151185078768322,10.255352943469916.178720865274954,3.830301192268962.030886148362697,6.088026288220135,1.486199579714594,6.395840783769017,5.71749720666412.549982838479991,7.563232493088435-.331057630928626,15.088040523634845-.259862441478617,22.635149400288356.03099084716996,3.301048717774393-2.443460781360045,4.16942063141687-5.313464506551099,4.180728102681314-7.413303800020003.028792172202884-14.826398202416385.061981694341739-22.239387906009142.093810131978898-.000104698807263.000209397614526-.000209397618164.000209397614526-.000314096425427.000418795230871,1.853378299409087,1.149174116728318,3.985883620975073.847746248464318,5.84240288462388.528938378070961,6.18225521542081-1.061436515614332,9.375987654981145,2.13857785242908,11.430701762201352,7.312792944325338h.000104698799987c4.086185079049756-1.645446466698559,8.256338602130199-2.742689974651512,12.716507823390202-1.952423371785699v.000209397616345-.000104698809082c4.276527512009125-.164377128576234,7.43769862227964,2.491936329466625,10.926367604010011,4.319768119719811.04376410174882-12.660598659902462.087737601110348-25.321197319806743.131711100470056-37.981586582094678l-.000209397610888-.000209397616345c-2.325884019959631-1.6025199554133-2.170196892449894-4.250981002855042-2.342845226859936-6.516872605825483Z" fill="#fab490" stroke-width="0"/>
      <path d="M219.961316038650693,204.921660958496432c-1.359618720831349-.264992683076343-3.052389048740224-.022614942530709-2.554232120230154-2.319287995056584,1.644399478620471-7.582706471377605-1.561896817911474-13.528342380697723-6.415733557290878-18.910698702919035-.000209397619983-.000104698809082-.000209397619983-.000209397616345-.000418795229052-.000209397616345-3.48866898173037-1.827831790253185-6.649840092000886-4.484145248296045-10.926367604010011-4.319768119719811v.000104698809082c-.661068273780984,3.622578757174779-2.698297680060932,6.861959877029221-2.583966581711138,10.738433243632244.206884844630622,7.024243029447462,4.840854087191474,13.617231668697059,11.526919966760033,15.913067130759373.539303560070039.185107492563475,1.067090251250193.403928001305758,1.604928028000359.593223446190677,4.658678161249554,1.640420923913553,4.960106029509916,2.842991432726194,1.523681752980337,6.431752474913083-.778645035170484.812986244205604-1.730461898800058,1.460024877711476-2.602602969529471,2.183493641066889h-.000104698810901c-1.161842672499915.872873962385711-2.323999441419801,1.745747924773241-3.486470306759657,2.618726585966215h-.000628192850854c7.397284882390522.077267720313102,14.795093258820998.13003591955021,22.191854647171567.245623403594436,2.466703916739789.038529161347469,2.858382157508458-1.031073861291588,2.217311356049322-3.214776899973003-1.583045977120491-5.392930901831278-4.895088069730264-8.868303134942835-10.494170924539503-9.95968350964722Z" fill="#c1c56f" stroke-width="0"/>
      <path d="M209.533419459579818,215.231771378556004h.000104698810901-.000104698810901c-.125952666039666-.40204342276229-.140715197969257-1.058295551374613-.393981614539371-1.169066890250178-6.311453544511096-2.759965277973606-12.403877182659926-6.296062819730651-19.527898176151211-6.473108504078482-2.467122711959746-.061144103878178-4.735841182749937.72493454666801-3.01857133375961,4.073516523278158.873816251660173,1.704077799186052-.08438723925974,2.30996980114287-1.514049462650291,2.685733823094779-6.87965397557673,1.808043715538588-11.590053347985304-1.06572916674304-13.398515858758401-7.928317236621297-.653634658410738-2.480733557009444-2.01053121023142-4.682549489476514-4.487495610152109-5.904175181347455.000104698807263,0,.000209397618164-.000209397616345.000209397618164-.000314096423608-.000314096425427,0-.000628192850854-.000104698809082-.000942289272643-.000104698809082-1.337736669956939,1.760405757895569-1.294600761055335,5.057161824541254-4.845042039509281,4.356517401331075-.000104698810901.000209397616345-.000104698810901.000314096425427-.000104698810901.00041879523269-2.12182604314512,4.714063830688247-.434081258012156,8.903377235626976,1.79150130387643,13.018354486875978.000314096421789,0,.000523494039953.000104698809082.000732891654479.000104698809082,2.417809573395061.157257609631415,4.837084930102719.456277405310175,7.254999202305044.447692103054578,11.551733584259637-.041041932741791,23.116240423099953.713312978976319,34.652059788539191-.488524638180024h.000628192850854c1.162470865339856-.872978661192974,2.324627634259741-1.745852623580504,3.486470306759657-2.618726585966215Z" fill="#85935a" stroke-width="0"/>
      <path d="M107.572066482984155,75.682080542756012c-.389793662223383,5.379738852021546-.090459770121015,10.810466023543995-.065332056197803,16.219101746575689.024394822266913,5.260068114464957.459313670742631,5.547152246032056,5.255566065719904,3.682466475358524.510092592629007-.198194843564124,1.101640857890743-.186782673492417,1.655392853459489-.271798105595735-.000523494039953.000628192847216-.000942289270824.001256385696252-.00157048211986.001884578543468.000628192849035-.000209397616345.001046988079906-.000628192847216.001675180928942-.000837590463561,2.558943566591552-2.309551005911999,5.117887133185832-4.619102011822179,7.676935398586465-6.928548318926914l-.000104698807263-.000104698807263c-1.809509498853004-1.063844588197753-1.540433562266116-2.896178427195991-1.586710435403802-4.543928267670708-.100092060460156-3.551802362959279-.077058322698576-7.106850388967359-.11977543636749-10.660537330471925-.019473978288261-1.610477064823499-.104489410395217-3.531071998973857-2.164333759198598-3.531700191822893-5.332100894376708-.001884578543468-10.707128300036857-1.000292411734335-15.997768466440903.457952586239116,4.3089841424935-.556160068152167,5.65624840397868,1.293449074166347,5.346025835840919,5.576049117042203Z" fill="#fab089" stroke-width="0"/>
      <path d="M100.844330477824769,108.849197137280498v.000209397614526c4.675325271722613-4.358611377490888,9.421322238855282-8.648121541695218,13.571792386021116-13.535671297257068.000628192849035-.000628192847216.001046988079906-.001256385696252.00157048211986-.001884578543468-.553751995568746.085015432103319-1.145300260830481.073603262031611-1.655392853459489.271798105595735-4.796252394977273,1.864685770673532-5.231171243452991,1.577601639106433-5.255566065719904-3.682466475358524-.025127713923212-5.408635723031693-.324461606025579-10.839362894554142.065332056197803-16.219101746575689.31022256813776-4.282600042875856-1.037041693347419-6.13220918519437-5.346025835840919-5.576049117042203-1.861544806433812,1.239633886849333-1.454685238502861,3.170279906569704-1.525671030334706,4.964503379451344-.194111590051762,4.905034456500289.441828969806011,9.831532168642298-.384872818247459,14.722222888445685,0,.000418795230871-.000104698807263.000837590463561-.000209397616345.001256385694433.940404693554228,6.331346318032956.100092060458337,12.710644690134359.529043076880043,19.055183057975228Z" fill="#d88663" stroke-width="0"/>
      <path d="M108.348198746769413,198.95874974585422c14.830690853542364-.279022323349636,29.661277008281104-.558254044313799,44.491130271360817-.83706697004709v-.014448435505983c.018217592594738-16.842478449470946.09904507238025-33.6853756941764.009004097490106-50.527225950801949-.021567954452621-4.037186036897765-2.129154959708103-6.55058562200611-6.421282594114018-7.151975575219694-7.539151767243311-1.056410972829326-15.107933297156706-.268238346125145-22.653576390498529-.623690799320684h0c-2.292380401398987.470935238432503-4.774370344104682-.692373217376371-6.947394104367959.806285520491656,2.046756997801822.28509485421273,1.799144316857564,1.849295045894905,1.799353714474819,3.256237627943847.0039785547051,16.915767615080767-.037482173268472,33.831639928968798.045858077908633,50.746988748816875.012563856958877,2.555907301160914-.759171056887681,3.649800447259622-3.403758248433405,3.466472834432352-2.261703650650816-.156734115593281-4.54518465336696.003245663048801-6.81819577528222.023557231801533-.000104698807263.000104698809082-.000314096423608.000209397616345-.00041879523269.000314096423608-.038215064923861.284047866134642-.076430129847722.568095732267466-.114749893578846.852143598400289.004397349935971-.003036265432456.009632290338232-.005339639206795.014029640273293-.008375904639252v.010783977224492Z" fill="#a36058" stroke-width="0"/>
      <path d="M192.314548795309747,173.388055166557024c2.870003725191054-.011307471264445,5.34445535372106-.879679384906922,5.313464506551099-4.180728102681314-.071195189450009-7.54710887665351.809845279958608-15.07191690719992.259862441478617-22.635149400288356-.307814495548882-4.231297626949527-2.565539591500055-5.686611058301423-6.395840783769017-5.71749720666412-3.418730177971156-.027535786506633-6.836832163100553-.116739170931396-10.255352943469916-.178720865274954-3.269220280133595.034550606644189-6.539068753121683.037691570883908-9.807242045179009.112132423380899-3.708850574977987.084491938063366-5.868786984239705,1.800505401361079-5.856432524895354,5.730061063624817.021986749681673,7.11166653413602.060725308645488,14.223542465888386.029734461473709,21.335104301217143-.013610845038784,3.130808455949591,1.151896285737166,5.205415336684382,4.471895487760776,5.628607918664784h.000523494039953c7.412989703592757-.031828437637159,14.826084105989139-.065017959776014,22.239387906009142-.093810131978898Z" fill="#92c4be" stroke-width="0"/>
      <path d="M187.348056138500397,181.324015416163093h-.000104698799987c-6.470700431500518,4.83310637539762-11.099330034849118,11.721764448469912-17.995317024484393,16.109586793396375-.977886866821791.622120317200825-1.452591262339411,2.034926032500152-2.159517614029028,3.082437606648455,0,.000104698807263-.000104698810901.000314096423608-.000209397618164.000314096423608,2.476964399920689,1.22162569187094,3.833860951741372,3.423441624338011,4.487495610152109,5.904175181347455,1.808462510773097,6.862588069878257,6.518861883181671,9.736360952159885,13.398515858758401,7.928317236621297,1.429662223390551-.375764021951909,2.387865714310465-.981656023908727,1.514049462650291-2.685733823094779-1.717269848990327-3.348581976610149.551448621799864-4.134660627156336,3.01857133375961-4.073516523278158,7.124020993491285.177045684347831,13.216444631640115,3.713143226104876,19.527898176151211,6.473108504078482.253266416570114.110771338875566.268028948499705.767023467487888.393981614539371,1.169066890250178h.000104698810901c.872141070729413-.723468763355413,1.823957934358987-1.370507396861285,2.602602969529471-2.183493641066889,3.436424276529578-3.588761042186889,3.134996408269217-4.79133155099953-1.523681752980337-6.431752474913083-.537837776750166-.18929544488492-1.06562446793032-.408115953627203-1.604928028000359-.593223446190677-6.686065879568559-2.295835462062314-11.320035122129411-8.888824101311911-11.526919966760033-15.913067130759373-.114331098349794-3.876473366603022,1.922898307930154-7.115854486457465,2.583966581711138-10.738433243632244v-.000209397616345c-4.460169221260003-.790266602865813-8.630322744340447.30697690508714-12.716507823390202,1.952423371785699Z" fill="#a0b660" stroke-width="0"/>
      <path d="M152.855347935757891,198.12524253527954c-.005339639210433-.000837590463561-.009736989148223-.002617470199766-.015181327162281-.003559759472409h-.00083759046538c-14.829853263079713.278812925733291-29.660439417818452.558044646697454-44.491130271360817.83706697004709-.005863133248567,1.868140831336859-.01151686888079,3.736386361482801-.016542411665796,5.603166108316145.000209397616345.000209397616345.00041879523269.000628192849035.000732891656298.000942289272643,16.584814682957585.483917890625889,33.169838763531516.568409828691074,49.755700434570826.038005667307516v-.001046988079906c.146368933597842-3.688957801454308-1.574565373673977-5.866483610463547-5.232741725572851-6.474574287391079Z" fill="#ccad9d" stroke-width="0"/>
      <path d="M90.303777981331223,119.231968530099039c.000104698809082,0,.000209397616345-.000209397614526.00041879523269-.000314096423608.054652777782394-4.083253512422743-2.140253033358022-5.009523866894597-5.961131332904188-5.313988000591053-8.981273148787295-.715511653945214-17.283574527624296,6.282347275882785-19.337032249139156,14.856551459122784-.63426537893065,2.648461047443561-1.272299914948235,5.702629975927266.885123722922799,7.706460462446557,1.924887585279066,1.787941544402202,4.593555502669005.605682604342292,6.902583014538322-.13799302895859.948466501771691-.305511121774543,1.892430954796509-.625051883824199,2.838384685175697-.938206018585333.661905864242726-1.752972142525323,1.83913926151763-3.115522429978228,3.150177735429679-4.428236084817399,3.874902884481344-3.880033126073613,7.685311303228445-7.824560717883287,11.521475628744156-11.744274692193358Z" fill="#93a453" stroke-width="0"/>
      <path d="M115.267533570589876,198.08032674664355c2.644587191545725.18332761282727,3.416322105392283-.910565533271438,3.403758248433405-3.466472834432352-.083340251177106-16.915348819848077-.041879523203534-33.831221133736108-.045858077908633-50.746988748816875-.000209397617255-1.406942582048941.247403283327003-2.971142773731117-1.799353714474819-3.256237627943847-4.459750426030951.94563963395376-8.3992524750538,5.546942848413892-8.419249947384742,10.360365847904177-.065122658581458,15.710684334875623.016856508089404,31.422101561407544.041460727972662,47.13289059509043h.001046988079906c2.27301112191526-.020311568752732,4.556492124631404-.180291347394814,6.81819577528222-.023557231801533Z" fill="#8b503f" stroke-width="0"/>
      <path d="M108.348198746769413,198.95874974585422v-.010783977224492c-.004397349935061.003036265432456-.009632290337322.005339639206795-.014029640273293.008375904639252-2.275942688540454,1.564200191682176-6.823430715683571.738964186941303-5.92741831672538,5.640334185161919v.000732891654479c1.975038314316407-.010993374840837,3.95028602624734-.022719641337972,5.924905545332876-.033189522138855v-.002303373776158c.005025542785006-1.866779746833345.010679278417228-3.735025276979286.016542411665796-5.603166108316145Z" fill="#a36058" stroke-width="0"/>
    </g>
  </g>
</svg>