<?xml version="1.0" encoding="UTF-8"?>
<svg id="Layer_1" data-name="Layer 1" xmlns="http://www.w3.org/2000/svg" width="280" height="280" viewBox="0 0 280 280">
  <g>
    <path d="M82.37872767452609,77.62754420625788c.994757431937614-5.202530932696391,1.98951514847613-10.405063353848163,2.984272580411925-15.607594286544554,3.46112884127615-6.112502091791612,5.101319505509309-6.657121530051882,14.508728162101761-4.823021772515858,4.472082913549457,1.261014270086889,5.626615746772586,2.482444059267436,4.724857668899858,6.963730452303935-1.633049490232224,8.11544658720959-1.984751960089852,16.408266184007516-3.718885897165819,24.493149565301792-.641651197011015,2.926777923985355-1.583265653769558,5.807537978294931-1.393843944830223,8.870844551694972.055886217545776.480904426798588.060796688056143.95871174927197.041355222878337,1.440731264481656-1.877629201180753,9.160480725151501-2.457871458756927,18.521787390654936-4.29266805957559,27.685070268951677-1.060244442445764,5.295040541646813-.711206592093731,10.788091356567747-2.31048484634448,16.000832244624689-2.435540772405147,16.686513182534327-4.830843912681303,33.378387234084585-7.02850770517216,50.098522412436068-.361411559670159,2.749664856753952,1.35832745506741,5.879127256068386-1.408112655961304,8.21680128211483-2.206100270903335,1.143431255517498-4.404737717910393.280022943143194-6.56495678340616-.132000391184192-4.038015419193471-.770206085522659-7.857899611004541-.878703245587531-11.12918066457496,2.233820143635967-.676780471747406.643933032268251-1.70329185358969,1.577806473131204-2.52687221607448-.024698496625206-.516643195014694-2.235110556943255-.472893349649894-4.520196641937218-.05684342368113-6.712718490865882,1.382165123042796-7.283806315055699,2.190401382129494-14.647086510165536,3.296002632860109-21.96804864762089,2.467228826946666-16.337244987738814,4.88607519823745-32.67908770473332,7.134617641093428-49.048945237493172,1.060369516198989-7.719710997605944,2.513329052411791-15.398163709094661,3.875429850286309-23.079103548410785,1.450436182887643-8.179067055887572,2.914667430517511-16.351648478774223,3.865092438254578-24.607371314285047Z" fill="none" stroke="#181818" stroke-linecap="round" stroke-linejoin="round" stroke-width="42"/>
    <path d="M201.353865067645529,72.064495727041503l4.67476686482587.89384554201024c1.942150674327422,1.307923487316657,5.131775789479434.932948786772613,5.64034127667037,4.187207175909862-1.324193484411808,10.206017150050684-2.002581296201242,20.479015688184518-2.971357497257486,30.717042719945312-.895976022802643,9.468912113134138-1.948367613767914,18.931365160902715-2.605577000049379,28.425645285911742-.19097718262492,2.75885686640504-.22944339949936,5.579009791610588-1.972964568010866,7.962224927838179-2.531786673524039.350989712818773-1.759084378130865-1.682919317672713-1.815314715351633-2.799189510380529-.172748578132087-3.429291281596306.035618675363366-6.86687827599053-.101056951372811-10.308237184033715-.126843348138209-3.194057032262208-1.582554962729773-4.756908959443535-4.685184012982063-5.308561911288052-2.259394262120622-.401721036909294-4.842069074325991-.272279549195446-6.417356514870335-2.535872263468264-.566243136090634-3.846072906892005.213513800990768-7.695688092293494.874391200655737-11.354157532097815,1.713513580345534-9.485500468055761,2.247014075577681-19.145564082527926,4.414505947763246-28.545368759934718.79626098328481-3.453202524144217-.242483475756671-7.189553171318039,1.671182067237169-10.454558551355149.808527686807793-1.373374226730448,2.274958084335594-.281701279029221,3.293623902742183-.880019939057092Z" fill="none" stroke="#181818" stroke-linecap="round" stroke-linejoin="round" stroke-width="42"/>
    <path d="M194.968067885251003,223.72754093092226l-2.088990806289075,10.925316000579187c-6.071525553832544,1.814968218075592-11.726905754396284.256171473363793-17.283822776687884-2.124492003125852-1.170046253824694-1.908760959100618-.499683374104279-3.826298403175315-.025505660571071-5.744158280162083.229707879303533-.675773549151927.561054317089656-1.292430431933099,1.093992957643422-1.779141731267373,4.28874713246114-.999901054250586,8.464104203683746.652453388913273,12.722147089141799.583243029252117,1.259847072969933-.020484320893956,2.611713340784263.632520271215981,3.489365380413801-.854368507507388.551578259970483-.640717919459348,1.025898416850396-1.447372708580588,2.092813816349008-1.006398507768608Z" fill="none" stroke="#181818" stroke-linecap="round" stroke-linejoin="round" stroke-width="42"/>
    <path d="M195.409754126802,217.248102145062148c.237164601690893.121849264000048.4878349023802.200648863357856.752022790615229.236401071240834l-1.044495403144538,5.462658000291412c-4.60085272476681,1.409974042502654-8.823566015040342-.960552446304064-13.249554046000412-1.314751811780297-5.658277293692663-1.512644805976379-6.145391791542352-2.32926871034033-4.321709713251039-7.229364566570439.315708625328625-.422085003858228.728841612297401-.70655539955078,1.23140698010684-.861690921905392,5.730997175071025.385094104723976,11.493276351080567.648863910424552,16.63232939167392,3.706748228723882Z" fill="none" stroke="#181818" stroke-linecap="round" stroke-linejoin="round" stroke-width="42"/>
    <path d="M175.623743536902111,232.156758534987603c5.697729600775347,1.205318616201112,11.455204021909594,1.997955622995505,17.255333542059816,2.496098396513844l-.596854516083113,3.121518857307819c-2.420874918721893,1.859224883546631-5.02894459763229,2.666273249455116-8.086166827142733,1.743798571777006-3.154301323291293-.951750542873924-6.574717814661199-.003031048405319-9.70882465210525-1.237956553659387-1.17137603435549-2.328849750447262-.81793999373258-4.374711644899435,1.13651245327128-6.123459271939282Z" fill="none" stroke="#181818" stroke-linecap="round" stroke-linejoin="round" stroke-width="42"/>
    <path d="M181.769745738007259,220.560224988381378c4.449173870300001.795648620900465,8.898359629147308,1.591299514962884,13.347535776265431,2.386936228213017l-.149213629021688.780379714327864c-.701257527554844.198731478221816-.938373671589943.76205096369813-1.090582995382647,1.392075674371881-2.189573831890812,1.253296382677945-4.354141121022622.183683380437287-6.526142963552047-.070171030180063-3.458716186682068-.404211952220066-6.924384512061806-1.420299295768928-10.35570066222499.147941532140976-.162759887156426.513896414257033-.325533939681918,1.027802462996988-.488293826840163,1.541698877252202-2.263073152978905-1.676307636424099-1.108893749755225-3.661881540694594-.348021759265976-5.468540837580804.761703479642165-1.80862330542368,2.363865018745855-1.016015185619835,3.70569885509758-.817953693187519.634073261624508.093602933664442,1.259392290750839.248715777548568,1.904721204924499.107633534642446Z" fill="none" stroke="#181818" stroke-linecap="round" stroke-linejoin="round" stroke-width="42"/>
    <path d="M83.842299649990309,200.728922187598073c.399934158778706-.669972451414651,1.154709166092289-1.343896230775499,1.147721098170223-2.00933473414625-.159662087515244-15.201719507454982,3.163464534918603-29.973789270718044,5.267243507916646-44.904540889736381.529082922317684-3.7549532573139.847954022470731-7.564029435765406,1.548107433807672-11.312859718143955.670835143922886-.297583735919034,1.456301844169502-.266964005597401,1.810615383852564.291015809303644,2.314461536094313,3.644830478511722,6.036504885201794,3.45303299187799,9.699274745769799,4.10764740158811,15.063122244453552,2.692083506590279,30.262593947943969,4.455643252489608,45.384796301732422,6.709084170459391,8.711665513492335,1.298170785314142,17.354768203511412,3.401171137196798,26.237186934344209,3.547384726763994,1.304272271552691.021471914511494,2.66565559465198.043495716765392,3.704613961221185,1.077642204718359.668989389010676,2.872262086495539.507179491594798,5.755515737911992.043839251196914,8.629264856783266-.903488903672041,5.603650082714012-1.689628952084604,11.244062064755781-2.631358589120282,16.816979445628021-1.651576926908092,9.773653373391426-2.274772421182206,19.706503607467312-4.572886852300144,29.372790565115793-.948408775815551,1.263812660294207-2.331917394769334,1.224672275315243-3.612499056480374.979853840353826-4.159081414356478-.795156760606915-8.427216971591406-.779568635167379-12.561441736963388-1.552655426614365-15.175160480133854-2.837713467224603-30.530805697664618-4.461134566812689-45.772671152772091-6.84786390382942-7.405195139226635-1.159569418863612-14.794367890399371-2.704027834408407-22.307615836976765-3.235374215506454-1.320707525459511-.093401935171642-2.651288227043551-.313306532119896-3.384925393398589-1.669034132737579Z" fill="none" stroke="#181818" stroke-linecap="round" stroke-linejoin="round" stroke-width="42"/>
    <path d="M178.389738328867679,158.257843520797906c-4.064046226229038.085425599827431-8.091047112760862.021511770082725-12.145831917898249-.641616096851067-15.182276147414086-2.482923166955516-30.340837977701085-5.288827124024465-45.621104267436749-6.918392540112109-7.447925946735268-.794284088120548-14.649552626009609-3.296993230913358-22.240279572966756-2.927155976232825-2.078428219963826.101260352384998-3.891483240951857-.795688887685174-4.51522531162118-3.102266339457856-.299149516045873-1.1062734024581-.906426754208951-1.891385058888773-2.062259402706331-2.166042693879717,2.470705528223334-14.891326947708876,3.796359576230316-29.95917842360177,6.913346891804395-44.750510330268298,2.20694559106596-1.069014185182823,4.40951395337288-.181041539226499,6.575228002040603.111506240478775,5.210801481291128.703877790963816,10.289972888009288,2.250305570370983,15.590946173188058,2.422312850318121,2.311827919853386.075017526238298,3.579174283293469,1.418864862193004,4.007520871889938,3.632911350605355.547830024739596,3.822173921636931,2.795219848923807,5.849066323922671,6.588221345367856,6.215187123916621,9.595213422837332.926200815194534,19.007676452207306,3.20679809651665,28.644975015733507,3.838553071876959,1.976828402272076.129588870264342,3.664122291187596-.27603853670189,5.025199029078067-1.760436781079989,1.422237583927199-3.861112956819852,4.251327376465269-4.928847247894737,8.082623803236856-4.213444703822461,4.207879722560392.785722877979424,8.502154501418772.473753905273043,12.749667465666789.859782465728131,1.219636242802153,1.558469354640692.783601300367081,3.294052533083232.41748859342988,4.951198119186301-2.166685587575557,9.807163406436302-2.594857170372052,19.884718356430312-4.727535343517957,29.710338387318188-.773191872853204,3.56218640037514-.492027570526261,7.357120034419495-1.417176921886494,10.95913742407356-.357421233844434,1.391594018668911-.441983989598157,2.915898358834966-1.865804453402234,3.778938428202309Z" fill="none" stroke="#181818" stroke-linecap="round" stroke-linejoin="round" stroke-width="42"/>
    <path d="M185.482021310372147,108.670255542710947c-2.334995831286506,1.526477704353965-4.810642878903309,1.95257654992929-7.478632666872727.995469117207904-2.797166374435619-1.003453350445852-5.744542562155402-.308000799615911-8.615978394536796-.737026919270647-3.036352715071189-.453668814840057-1.327101693776058,3.382118578285372-3.248700952713989,4.132092053943779-1.571460361710706-2.750739309856726-.163884811210664-5.438205062879206.31520628052931-8.078591429924927,2.025060375102839-11.160698119903827,1.972220254596323-11.467036384316089-9.256468157924246-13.428207120459774-7.270225391075655-1.269794447927779-14.629638454640371-1.971343645882371-21.905930172219087-3.296064087529885-5.884454396778892-1.071323975131236-8.252157967070161,1.194530686252619-8.747971825754576,7.178018847298517-.254268401353329,3.068533892450432.269356997740033,6.434526801369429-2.601346450433994,8.750496872029544-.34463879014038-1.824106990683504-1.060425705252783-2.972919513964371-3.291621380483775-2.968092303237427-7.481155603261868.016187452578379-14.624210264988506-2.277865329122505-21.932136146377161-3.466634475618775-.000056695542298.000143446846778-.004828097791687-.017632488777963-.004828097791687-.017632488777963-.847259121679599-3.029587011184049,2.198492141917086-5.650871083782476.917559231209452-8.725939937014118,1.700899821187704-8.331620812659821,1.865403330912159-16.903142595701866,3.934344157858504-25.177320881020933.985273972457435-3.940344710179488-1.050735764401907-5.48325440426197-4.603623818349661-5.820424780940812,10.396246734939268,1.473307491116429,20.795448268707332,2.915242467090138,31.184452977520777,4.427166558802128,19.273076073988705,2.804835283359353,38.540199819955888,5.65054895220419,57.809801836512634,8.47924106267601,1.803802791797352.620028248729795,4.9010843695105-.888778713368083,4.780286117333162,2.909208682222015-1.480040911870674,6.134517741444142-2.690712188910766,12.286194774475007-3.355353838329393,18.600213422989327-.580075352447238,5.510758632901343-.699994199210778,11.29493246545826-3.899058699176749,16.244027806626036Z" fill="none" stroke="#181818" stroke-linecap="round" stroke-linejoin="round" stroke-width="42"/>
    <path d="M83.842298163921441,200.728921903453738c13.989572386637519,1.509261236615203,27.80840151218581,4.213842503451815,41.782518584532227,5.894913007658033,7.431129067896109.893957426213092,14.84581905019877,2.190177164486158,22.273331466407399,3.272648787447906,7.164941942724909,1.04418978704598,14.314427870245709,2.194252444578524,21.478174428506463,3.247014219687117.596213775063006.087622941100562,1.249406540413474-.212143032536915,1.876133343725087-.331923333067607.214227000171377-.042797960881217.428451723520993-.08558401411392.64468206656602-.127838464037268.338286919119128.309407140091935.552910803453415.687581092070104.652683111235092,1.135293282130078-.125039938158807,2.319976360706278,1.22442751935705,5.26710917737546-2.550991925190829,6.053525931531112-6.131797061663747-.730090956554704-12.258189170765036-1.468405695328329-18.377213130437667-2.314732220247606-14.704943684726459-2.033836959233668-29.37059675501223-4.345506588133503-44.078992452117745-6.359662343615128-8.461250531910991-1.158661626659523-16.981466505269054-2.095525108312358-25.374203810506515-3.789510383683591-2.843483826287411-.573932757210059-5.702466506003475-1.057059285085415-8.595451746483377-.353539660209208-1.482927772391122.979278507151321-2.450380183136076,2.286069382416827-2.57643713752077,4.122795949469946,1.012802686340365,4.107394977374497,2.372723565067645,5.537252360358252,7.180169632967591,5.890034776457469,5.81775281219052.426936103034677,11.45601991841977,2.046150552399922,17.208881075222962,2.473429263556682,7.786570316115103.578361607464103,15.295239934583151,2.911625303369874,23.102016224287581,3.142914475569341,2.860357636882327.198648946869071,5.641008211558074.870136321253085,8.447686564730247,1.386487082781969,3.010975976960253.640654485916457,5.981872265374477,1.569938999320584,9.127668846147571,1.229418425658878,10.186378196473015,1.90830230713982,20.606305268511278,2.342899850178583,30.699849303389783,4.845478924185954,3.654008176112256,1.906629156217605,4.097790846404678,3.399670529342984,2.09898791440537,7.046843915797581-19.402384683276978-2.801589545582829-38.804595687537585-5.604441896772187-58.20723184342387-8.404265105718878-11.199681477848571-1.61614585805728-22.400074931985728-3.227391909849757-33.600149113390216-4.840823339169219-2.884247796593627-.547611061167117-5.768493316367312-1.095234029980929-8.652742599029807-1.642845375290563-4.06706933229907-2.161978122660003-5.64720677438163-5.622324279163877-5.052435308087297-10.082653762894552.378620053019404-2.839354240441025.98697455596448-5.648087519321052,1.492232514514399-8.469855963037844,3.253067969115364-4.572750446173814,7.668467964263982-5.382297985241166,12.818449141786914-4.09797461805465,2.024274195993712.504831097123315,4.119479568571478.725018006274695,6.182384847763387,1.074826527094046Z" fill="none" stroke="#181818" stroke-linecap="round" stroke-linejoin="round" stroke-width="42"/>
    <path d="M99.631172577002872,89.008143671357175c1.397018588193532,1.114036433957153,1.418364448421926,2.500539171696801.529575674934676,3.850744493978709-.991367296253884,1.506038021423592-1.012473709593905,3.238685994878324-1.447048874366374,4.87530137955946-1.06268647525394-3.052275964138971.679210242169574-5.810309682376101.917473199431697-8.726045873538169Z" fill="none" stroke="#181818" stroke-linecap="round" stroke-linejoin="round" stroke-width="42"/>
    <path d="M203.359856845616378,162.226750367924978c-1.084227337592893,10.814246165871737-2.895765808185388,21.524387282117459-4.620939452868697,32.246882321194789-1.380601630904494-.443039710893572-1.111677064680407-1.626054570824635-1.09832489323162-2.620222836898392.072317177224249-5.383182756111637-.532831779104527-10.741688059946682-.51639022627387-16.126470153338232.007410080419504-2.427967852698202.192253710220029-5.147012589095539-3.141444663848233-6.002753866167041-3.951652332909362-1.014376897359398-6.688648313891463-.23980552793364-8.689208205631076,2.634008844130221-.373127160593867.535992602710394-.765167211558946,1.089240938348667-1.568224615273721.696829608479675-.86249871963264-1.036873636367091-.742198468138668-2.247244925489213-.498797076132178-3.408917294334969,2.248410099255125-10.730647525559107,2.760573803407169-21.744577272924289,5.302195293155819-32.4238882575155.529875392869144-3.02367077420422,1.580638741110306-5.974701509947408,1.293524985476324-9.117482838993965.092835881032443-1.699307479881099.075104967350853-3.445904671729295,1.778432462246201-4.507538920468505.771229588952338.144328946138558,1.542849652410951.286615730397898,2.313631846373028.433284529653974,9.941196190036862,1.891705458698198,10.288334067739925,2.405402829226659,9.613785251425725,12.803077561859027-.164897615140944,2.541706621310368-.644995503022074,5.119815232852488.127025913729085,7.658046071574063,1.656127552423641,4.33075136111438.387943081206686,8.734686901703753.288255752135228,13.105238333126181-.035333038271347,1.549769440365708-.832817383725342,3.027800705940535-.583522371282015,4.629906897698675Z" fill="none" stroke="#181818" stroke-linecap="round" stroke-linejoin="round" stroke-width="42"/>
    <path d="M191.600679314828085,123.597202927836406c-.269982135801911,1.582268894826484-.539976160147489,3.164535516485557-.809970184498525,4.74680213814645.100274517728394,2.943863594753566-1.492219465488233,5.679262261886834-1.068679032634464,8.662934999088975-1.86177265504557,11.559935346695056-3.729716229412588,23.118888261727989-5.563404953258214,34.683273884098526-.075583958448988.476700196517413.170267019824678,1.004332251655796.266355328061763,1.508241230229032.958835959034332,1.31268234867639.682046965732297,2.776193816944215.438758748332475,4.197973180724148-1.889056838921533,11.040281044284711-3.508642516462714,22.119361085984565-4.86702264017913,33.237029759806319-.163626590301647,1.339131253811502-.571528099668285,2.574716091337905-1.606546451554095,3.519256564721218l-.250414672960687-.117581774415157c-3.3644156037426-.045761354787828-2.865822274003222-2.556575793691081-2.586341902251661-4.50625682629834.582180193083332-4.06146634745528.831009784458729-8.184696598877053,1.552283879002061-12.19480725437279,2.717411396095486-15.108418654359411,4.523240198112035-30.350961334774183,6.780306847856991-45.521511444783755,2.158563831690117-14.508440131126918,4.334234415669926-29.025205581958289,6.290241894106657-43.570252798192087,1.479506370327726-11.001667655280471,3.022330650428557-22.014814433057836,4.971745434329932-32.95603087908421.241180420573073-1.353717740264983.541715911427673-2.617175925322954,2.086766181246276-3.054689251306627.558285575596528.100112669220835,1.116559262645751.200223065277896,1.674768419692555.300348701652183-2.436349071807854,17.021762079837572-4.872598268153524,34.043517413369045-7.308846895291936,51.065269769986116Z" fill="none" stroke="#181818" stroke-linecap="round" stroke-linejoin="round" stroke-width="42"/>
    <path d="M203.359856845616378,162.226750367924978c.098429329971623-5.911666400063041.196857521534184-11.823326846300915.295276735325388-17.735069238589858,1.839652043187016-11.647455459984485,2.315764651530117-23.442227205901872,3.724892809243102-35.122740725522817,1.318025903123271-10.925437448167941,1.369785932387458-21.987011531764438,3.598247246492974-32.804807875265396.223562646346181.242935290689275.447038153184621.485810719270376.670525548570367.728688421020706,1.096729619954203,2.326683807346853.173731504364696,4.686461753553886.08913497834692,7.027068810391938-.323868146006134,8.961351485997511-.902883791961358,17.904119656110197-1.670844343188946,26.842148571617145-.334660071330291,3.895204484915666-.190185119994567,7.837859447767187-.844523990755988,11.720962565026639-1.775567690257958,13.141185669150218-3.35787490688017,26.311137496526499-5.862708984033816,39.343749471321644Z" fill="none" stroke="#181818" stroke-linecap="round" stroke-linejoin="round" stroke-width="42"/>
    <path d="M178.390170129097896,214.152714684651073c1.570217418022366-13.71641661859212,3.409325967295445-27.393256449835462,6.034900393688076-40.954279316030807,1.153900952240292-1.712075586439823-.848505057463626-5.482840608070546,3.680791371565647-5.031596195616657,9.681519145655329.964547035458963,9.766573731687458.840352943196194,9.98814021873477,6.093990806168222.284062807870214,6.734662808989015.436023152586131,13.474985970824491.644920337750591,20.212840706060888-1.10932903014691,7.592017359133024-2.218638836835453,15.184063079896077-3.328565566464022,22.77527494748756-5.673800627380842-1.032644034732584-11.346986608645238-2.064442308643265-17.020186755275063-3.096230948069206Z" fill="none" stroke="#181818" stroke-linecap="round" stroke-linejoin="round" stroke-width="42"/>
    <path d="M209.222565829650193,122.883000896603335c.32465544020306-6.863314292017094-.546968028087576-13.752446030508509.337043216683014-20.597424399833471,1.072226294740176-8.302458523896348.167873880742263-16.764943050893635,2.089210358479249-24.992732395166968,2.590510254487526,2.283436067609728,3.494486582181707,5.394762834099311,3.066688006700133,8.547377377264638-1.678344792049757,12.368277868052246-3.637865404827608,24.698453278750094-5.492941581862397,37.042779417735801Z" fill="none" stroke="#181818" stroke-linecap="round" stroke-linejoin="round" stroke-width="42"/>
    <path d="M197.234757790427466,72.231584456198107c-1.866363556955548,1.591991815528672-.625149112263898,3.75312844216387-.974651491114855,5.624576136156975-1.11055865965136,5.946603361329835-2.200709282047683,11.878765641926293-2.833548799460914,17.934877779409362-1.011485663417261,9.679620925651761-3.208263171727594,19.229236612605746-4.496388928415399,28.888087892497424-1.705063563267686,12.785342592584129-3.721558655704939,25.518222347764095-5.626408622301824,38.270968211249055-1.611692974980542,10.790121547333911-2.738601629618643,21.652027951582568-4.667066284820976,32.406723387475722-.927047138808121,5.169948908225706-.902132533248732,10.489123705390739-2.205306026300605,15.621616465043189-.376638523295696,1.483398763473815.13752816993474,2.599699010201221,1.708600285541252,3.056385084706562-.755698139380911,3.274316933955561-1.470693727782418,6.525694750884213,3.631316741035334,6.525308676709756-5.409382963967801.532843788030732-5.687377446120081.859322855960272-5.263281093515616,6.178902031324469-.295448706359821,1.805880646756123-.590223555715056,3.611717337427763-.884632136940127,5.417636403915822-.378459918531007,2.041262312652179-.757281551561391,4.082418434187275-1.13612923850269,6.123581917039701-.546469997278109-.102871652194153-1.092908882552365-.205712669594504-1.639345491008498-.308565594639731-1.553446180618266-1.675062255995726-1.193789193090197-3.652724561929062-.858499961916095-5.612186918748193.577500499464804-3.375029284383345,1.378980322640928-6.71199667397741,1.854703122286082-10.102104748126294.459464826473777-3.274143859862306.813195233318766-6.581020615816669-1.572794246505509-9.398513254376667l-.28730710081436-.006229522363355c-.386640605776847-.732081192416445-.503524897196257-1.525978306799516-.294809310031269-2.30722511141721,1.743226718417645-6.525079649749387,1.688950618643503-13.30509496362356,2.897631035220911-19.919484883525001,2.554338096273568-13.978420007657405,4.200159035872275-28.104998183976932,6.359141023805932-42.150298674323494,1.878091633700024-12.217918045555052,3.72053794684507-24.451655918686811,5.424891447208211-36.695388019470556,1.778216706396051-12.774271272179249,3.320587130532658-25.575069384434755,5.821883166969201-38.236509022239261-.030179549952663-3.116978829817526-3.047922604015184-1.395963435041267-4.239822884208479-2.626687730020421,3.191308129302342-.233222363254754,6.232559650103212.568859573180816,9.281824793790292,1.314529493722148Z" fill="none" stroke="#181818" stroke-linecap="round" stroke-linejoin="round" stroke-width="42"/>
    <path d="M172.271325618487026,212.858877925835259c2.562395927501711.31749032596781,3.154762861482595,1.57146933166041,3.110143724197769,4.259326175179012-.083416788414979,5.02495277772141-1.323753902717726,9.798071972540129-2.17511904296407,14.657797019805002-.362784608116272,2.070908052652157-.627809713085298,4.107273027773772-.358433595098177,6.195681726267139-1.328382591749687-.259710115005873-2.656753294952068-.519417956840698-3.985625089495443-.779147552620998-.46491958608749-2.054899723538256,1.940637119765597-5.010346404495067-1.87834276628746-6.012611848635061-.151411161896249-.573622339128633.229110015770857-.842407169133367.622147747619238-1.106145010066029.770295096433983-.34833511431134,1.122432267968179-1.001736205354973,1.28220357961618-1.797179923627482.172475783951086-.886636135383014.276325095201173-1.777210908456254.42883107911257-2.664394505391101.835089112173591-2.060755778455132-.340998579798907-4.584994952609122,1.480083821525113-6.412133512209039,1.877971799918669-1.791204666382328.199156369400953-4.409717174206889,1.47411054177428-6.341192568701445Z" fill="none" stroke="#181818" stroke-linecap="round" stroke-linejoin="round" stroke-width="42"/>
    <path d="M176.995641264091319,225.197387107255054c.106141857611874-1.617311452146168.834734050626139-2.064119247361305,2.54815737699937-2.067441969138599,4.892347630027871-.00949404988387,9.58012125732057,1.170542139259851,14.333830424691769,1.989884179418368-.441913841947098,1.821433987872297-1.688664811292256,2.125966014906226-3.313953282438888,1.811361717707769-4.484795984368247-.868112172875044-9.131977003373322-.476221136841559-13.568034519252251-1.733803927987537Z" fill="none" stroke="#181818" stroke-linecap="round" stroke-linejoin="round" stroke-width="42"/>
    <path d="M192.192755880845652,73.54374269249638c.621698699838817,1.869846551348019-.08709751000606,3.675291893829126-.354089524054871,5.475101489169901-3.193249452282544,21.526781397420564-6.468261503769099,43.041436983146923-9.663980914994681,64.567859509739719-2.633372896962101,17.738381280036265-5.277344971911589,35.476124515556876-7.726316547592432,53.240365327856125-.738729297867394,5.358491187384061-1.37150858923269,10.724934735610077-2.46430864389913,16.025747822650374-.243916060037009-.013904707424444-.487762043125258-.028240363400982-.731595387784182-.042190970072625-.578750898417638-.661874235653158-.550343472004897-1.428644816111046-.424874013520821-2.236880480641048,1.130555320416534-7.282173472705836,2.310373043426807-14.557420941033342,3.356806178682746-21.851754046059796,1.455650659416278-10.146882148457735,2.808774122524483-20.308467989581914,4.20556250043046-30.463951242223629,2.451386850614654-15.619677861677701,4.913851809156768-31.23748437759059,7.325803299994732-46.863085602175488.135132479234017-.87540078654456-.146380026164479-1.815068895928562-.233864892088604-2.724762662723151,2.499277368639014-10.292024391690575,2.834190322899303-20.941136126388301,5.16549422353819-31.258574339826737.304907018797167-1.34941727596015-.017272532471907-3.002604923985928,1.545363721288595-3.867874805693646Z" fill="none" stroke="#181818" stroke-linecap="round" stroke-linejoin="round" stroke-width="42"/>
    <path d="M123.942198970446043,104.186442876005458c.594087376251991-3.909864100513005,1.094066831852615-7.836990919478922,1.807420891234869-11.724973100446732.791660540171506-4.31477750281374,3.239542719140445-6.299442707952039,7.527813000251626-5.701511199275046,10.18492423142925,1.420127427456464,20.347650907566276,3.011290282498521,30.49559721233345,4.677884690128849,3.646834496206793.598921518894713,5.554861676815563,3.177698734431033,5.030095585572781,6.81498776053013-.715729393989022,4.960843725613813-1.760659085894076,9.874245031278406-2.664431667366443,14.807974355959232-1.751484249816713,1.80782056103817-3.766173836411326,2.711543640160016-6.378860763601551,2.316069518545191-9.897369608544977-1.498106926183027-19.802240374836401-2.949442566930884-29.7153803427409-4.339323672325918-4.049789398764915-.567798196481817-6.104464087076849-2.747720640125408-6.102253915683832-6.851108353115706Z" fill="none" stroke="#181818" stroke-linecap="round" stroke-linejoin="round" stroke-width="42"/>
    <path d="M169.522205078825209,229.370309550546153c-.055741821886841,1.143744814184174-.542362488899016,1.685006164725564-1.732183729578537,1.242971134644904-1.599319526932959-5.345888164869393-5.826275211751636-5.429143691062563-10.440028409706429-5.895438255567569-9.426957301213406-.95272934478453-18.826104848405521-2.193497175501761-28.29790537869485-2.652095457782707-3.663642769302896-.177391415199963-7.404213274250651-.559216038580416-10.7763678286301,1.511291716054984-.903694569326035.041334000876304-1.828298653177626.228341088446541-2.707939420992261.102175994146819-13.122088831820292-1.882152048463468-26.241824264572642-3.781590991322446-39.353939811238888-5.731870219833581-4.930823433986006-.733418691972474-6.736091607808703-3.006449512589825-6.258191002454623-7.602779727905727,1.516144055012774-1.018781555072565,3.239228176311371-1.171100775440209,4.946109782957137-.923877280054512,9.11472724365558,1.320207555190791,18.273475510552089,2.294613030173423,27.398742365312501,3.518128920153686,12.747871177703928,1.709213886068028,25.503262783702667,3.364272890657958,38.246863616110204,5.09230795941221,7.027311147143337.952925068510012,14.099671522279095,1.666764676858293,21.080914594778733,2.97624613789776,7.02257942741744,1.317224779519165,7.285901530387491,1.588105899541915,7.893925222137113,8.362939078833733Z" fill="none" stroke="#181818" stroke-linecap="round" stroke-linejoin="round" stroke-width="42"/>
    <path d="M118.275719732215293,223.577038687895765c.623774611949557-3.49980660698202,3.643907575860794-2.728774926883489,5.680925651076905-2.730100101931384,5.856566467513403-.003806347825957,11.744234590667475.200216117882519,17.561607110581463.845192517626856,6.744468574112034.747753181651206,13.44873940754951,1.964568361019701,20.243016947213619,2.11687827253445,4.676909858344516.104859244960608,6.522313201261568,2.311135926927818,6.02881691343282,6.804382482428991-.270108869855903.189078816214533-.540152734440198.378268805790867-.808161108076092.566996327903325-10.447952558130055-1.671083244242254-20.897934662929401-3.341702884439655-31.347919044548689-5.012310616986724-2.998901791974276.351142470020932-5.760323116846848-1.252378025896178-8.739944712548095-1.059945803435767-2.872778604287305-.510363980518378-5.745563152844625-1.02072909762137-8.61834175713193-1.531093078139747Z" fill="none" stroke="#181818" stroke-linecap="round" stroke-linejoin="round" stroke-width="42"/>
    <path d="M169.522216967372515,229.370311823713564c-.377350449956793-7.239233552372752-6.150767979559532-7.006105917835157-10.979249060939765-7.708563511056127-15.32629944121436-2.229689138850517-30.656759097253598-4.466332890568083-46.033537219611389-6.298996979156072-7.812789445182716-.93115101550211-15.616456969411956-1.895266354364139-23.414292568693782-2.942988888464242-6.357966993751688-.854256760010685-12.7580786000035-1.395283760568418-19.139496050936941-2.075199131462796.069839238274653-1.631312938254268.673334507362597-2.934932826176009,2.235729956692012-3.649774564741165,8.464622076202431-.011500558319312,16.74051129955842,1.834857662281138,25.039896817024783,3.032011328161389,8.969295944525584,1.293794911935038,17.957455004017902,2.74349675085432,26.932094623209196,3.931892131078712,13.146747642611444,1.740861719985332,26.199591518110537,4.1844880786266,39.415410632549538,5.40814131524894,5.273415186957209.488263677505529,6.794669802604403,2.185707696309692,6.499836487437278,7.147241278014917l-.556393616730929,3.156237022376445Z" fill="none" stroke="#181818" stroke-linecap="round" stroke-linejoin="round" stroke-width="42"/>
    <path d="M170.078610584103444,226.214074801337119c-.72147146108-4.888002333860641-2.972913497151239-6.554309940860549-9.691714642589432-6.478580460567173-2.416019666377906.027243618040302-4.713609313308552-.289405670642736-7.029384398800175-.738775601221278-13.162979299950166-2.554270397047731-26.539057934929588-3.64066456675755-39.765799105798578-5.821408145360692-10.473564609868845-1.726808874458584-21.09397853624796-2.613774118217407-31.557917967063986-4.54572222871866-3.289264889135666-.607291373164117-6.920906303508673.556380030009677-9.842415015627921-1.934798195907206,2.55681880155862-2.332530248348121,5.468507186047646-1.199885008350975,8.262948480381965-.785235136638221,15.255447236737382,2.26366225995298,30.498178521183945,4.613219598419164,45.755946463601504,6.860934098918733,14.855219686596683,2.188382816069861,29.723290462154182,4.289575692486324,44.586326018807085,6.429315719895385-.201325809379341,2.342110411755129.203057708156848,4.745899986368386-.717989832910462,7.014269949599111Z" fill="none" stroke="#181818" stroke-linecap="round" stroke-linejoin="round" stroke-width="42"/>
    <path d="M126.894061489347223,225.108131766035513c3.052092039892159-.789417736064934,5.821895820468853.744708649599488,8.739866046358657,1.059906075970503-3.011924990436455.458986355761226-5.857704984380689-.450152071613047-8.739866046358657-1.059906075970503Z" fill="none" stroke="#181818" stroke-linecap="round" stroke-linejoin="round" stroke-width="42"/>
    <path d="M189.722030097695097,137.006940065071831c-.660030815206483-3.013018134246522.518412887051454-5.799894380161277,1.068143427648465-8.663549644377781.735651319067983,3.022657323408566-.756540098705955,5.770408812697497-1.068143427648465,8.663549644377781Z" fill="none" stroke="#181818" stroke-linecap="round" stroke-linejoin="round" stroke-width="42"/>
  </g>
  <g>
    <path d="M82.37872767452609,77.62754420625788c.994757431937614-5.202530932696391,1.98951514847613-10.405063353848163,2.984272580411925-15.607594286544554,3.46112884127615-6.112502091791612,5.101319505509309-6.657121530051882,14.508728162101761-4.823021772515858,4.472082913549457,1.261014270086889,5.626615746772586,2.482444059267436,4.724857668899858,6.963730452303935-1.633049490232224,8.11544658720959-1.984751960089852,16.408266184007516-3.718885897165819,24.493149565301792-.641651197011015,2.926777923985355-1.583265653769558,5.807537978294931-1.393843944830223,8.870844551694972.055886217545776.480904426798588.060796688056143.95871174927197.041355222878337,1.440731264481656-1.877629201180753,9.160480725151501-2.457871458756927,18.521787390654936-4.29266805957559,27.685070268951677-1.060244442445764,5.295040541646813-.711206592093731,10.788091356567747-2.31048484634448,16.000832244624689-2.435540772405147,16.686513182534327-4.830843912681303,33.378387234084585-7.02850770517216,50.098522412436068-.361411559670159,2.749664856753952,1.35832745506741,5.879127256068386-1.408112655961304,8.21680128211483-2.206100270903335,1.143431255517498-4.404737717910393.280022943143194-6.56495678340616-.132000391184192-4.038015419193471-.770206085522659-7.857899611004541-.878703245587531-11.12918066457496,2.233820143635967-.676780471747406.643933032268251-1.70329185358969,1.577806473131204-2.52687221607448-.024698496625206-.516643195014694-2.235110556943255-.472893349649894-4.520196641937218-.05684342368113-6.712718490865882,1.382165123042796-7.283806315055699,2.190401382129494-14.647086510165536,3.296002632860109-21.96804864762089,2.467228826946666-16.337244987738814,4.88607519823745-32.67908770473332,7.134617641093428-49.048945237493172,1.060369516198989-7.719710997605944,2.513329052411791-15.398163709094661,3.875429850286309-23.079103548410785,1.450436182887643-8.179067055887572,2.914667430517511-16.351648478774223,3.865092438254578-24.607371314285047Z" fill="#4d4458" stroke-width="0"/>
    <path d="M201.353865067645529,72.064495727041503l4.67476686482587.89384554201024c1.942150674327422,1.307923487316657,5.131775789479434.932948786772613,5.64034127667037,4.187207175909862-1.324193484411808,10.206017150050684-2.002581296201242,20.479015688184518-2.971357497257486,30.717042719945312-.895976022802643,9.468912113134138-1.948367613767914,18.931365160902715-2.605577000049379,28.425645285911742-.19097718262492,2.75885686640504-.22944339949936,5.579009791610588-1.972964568010866,7.962224927838179-2.531786673524039.350989712818773-1.759084378130865-1.682919317672713-1.815314715351633-2.799189510380529-.172748578132087-3.429291281596306.035618675363366-6.86687827599053-.101056951372811-10.308237184033715-.126843348138209-3.194057032262208-1.582554962729773-4.756908959443535-4.685184012982063-5.308561911288052-2.259394262120622-.401721036909294-4.842069074325991-.272279549195446-6.417356514870335-2.535872263468264-.566243136090634-3.846072906892005.213513800990768-7.695688092293494.874391200655737-11.354157532097815,1.713513580345534-9.485500468055761,2.247014075577681-19.145564082527926,4.414505947763246-28.545368759934718.79626098328481-3.453202524144217-.242483475756671-7.189553171318039,1.671182067237169-10.454558551355149.808527686807793-1.373374226730448,2.274958084335594-.281701279029221,3.293623902742183-.880019939057092Z" fill="#5b456f" stroke-width="0"/>
    <path d="M194.968067885251003,223.72754093092226l-2.088990806289075,10.925316000579187c-6.071525553832544,1.814968218075592-11.726905754396284.256171473363793-17.283822776687884-2.124492003125852-1.170046253824694-1.908760959100618-.499683374104279-3.826298403175315-.025505660571071-5.744158280162083.229707879303533-.675773549151927.561054317089656-1.292430431933099,1.093992957643422-1.779141731267373,4.28874713246114-.999901054250586,8.464104203683746.652453388913273,12.722147089141799.583243029252117,1.259847072969933-.020484320893956,2.611713340784263.632520271215981,3.489365380413801-.854368507507388.551578259970483-.640717919459348,1.025898416850396-1.447372708580588,2.092813816349008-1.006398507768608Z" fill="#dbcae3" stroke-width="0"/>
    <path d="M195.409754126802,217.248102145062148c.237164601690893.121849264000048.4878349023802.200648863357856.752022790615229.236401071240834l-1.044495403144538,5.462658000291412c-4.60085272476681,1.409974042502654-8.823566015040342-.960552446304064-13.249554046000412-1.314751811780297-5.658277293692663-1.512644805976379-6.145391791542352-2.32926871034033-4.321709713251039-7.229364566570439.315708625328625-.422085003858228.728841612297401-.70655539955078,1.23140698010684-.861690921905392,5.730997175071025.385094104723976,11.493276351080567.648863910424552,16.63232939167392,3.706748228723882Z" fill="#512f6e" stroke-width="0"/>
    <path d="M175.623743536902111,232.156758534987603c5.697729600775347,1.205318616201112,11.455204021909594,1.997955622995505,17.255333542059816,2.496098396513844l-.596854516083113,3.121518857307819c-2.420874918721893,1.859224883546631-5.02894459763229,2.666273249455116-8.086166827142733,1.743798571777006-3.154301323291293-.951750542873924-6.574717814661199-.003031048405319-9.70882465210525-1.237956553659387-1.17137603435549-2.328849750447262-.81793999373258-4.374711644899435,1.13651245327128-6.123459271939282Z" fill="#52306f" stroke-width="0"/>
    <path d="M181.769745738007259,220.560224988381378c4.449173870300001.795648620900465,8.898359629147308,1.591299514962884,13.347535776265431,2.386936228213017l-.149213629021688.780379714327864c-.701257527554844.198731478221816-.938373671589943.76205096369813-1.090582995382647,1.392075674371881-2.189573831890812,1.253296382677945-4.354141121022622.183683380437287-6.526142963552047-.070171030180063-3.458716186682068-.404211952220066-6.924384512061806-1.420299295768928-10.35570066222499.147941532140976-.162759887156426.513896414257033-.325533939681918,1.027802462996988-.488293826840163,1.541698877252202-2.263073152978905-1.676307636424099-1.108893749755225-3.661881540694594-.348021759265976-5.468540837580804.761703479642165-1.80862330542368,2.363865018745855-1.016015185619835,3.70569885509758-.817953693187519.634073261624508.093602933664442,1.259392290750839.248715777548568,1.904721204924499.107633534642446Z" fill="#b69ec1" stroke-width="0"/>
    <path d="M83.842299649990309,200.728922187598073c.399934158778706-.669972451414651,1.154709166092289-1.343896230775499,1.147721098170223-2.00933473414625-.159662087515244-15.201719507454982,3.163464534918603-29.973789270718044,5.267243507916646-44.904540889736381.529082922317684-3.7549532573139.847954022470731-7.564029435765406,1.548107433807672-11.312859718143955.670835143922886-.297583735919034,1.456301844169502-.266964005597401,1.810615383852564.291015809303644,2.314461536094313,3.644830478511722,6.036504885201794,3.45303299187799,9.699274745769799,4.10764740158811,15.063122244453552,2.692083506590279,30.262593947943969,4.455643252489608,45.384796301732422,6.709084170459391,8.711665513492335,1.298170785314142,17.354768203511412,3.401171137196798,26.237186934344209,3.547384726763994,1.304272271552691.021471914511494,2.66565559465198.043495716765392,3.704613961221185,1.077642204718359.668989389010676,2.872262086495539.507179491594798,5.755515737911992.043839251196914,8.629264856783266-.903488903672041,5.603650082714012-1.689628952084604,11.244062064755781-2.631358589120282,16.816979445628021-1.651576926908092,9.773653373391426-2.274772421182206,19.706503607467312-4.572886852300144,29.372790565115793-.948408775815551,1.263812660294207-2.331917394769334,1.224672275315243-3.612499056480374.979853840353826-4.159081414356478-.795156760606915-8.427216971591406-.779568635167379-12.561441736963388-1.552655426614365-15.175160480133854-2.837713467224603-30.530805697664618-4.461134566812689-45.772671152772091-6.84786390382942-7.405195139226635-1.159569418863612-14.794367890399371-2.704027834408407-22.307615836976765-3.235374215506454-1.320707525459511-.093401935171642-2.651288227043551-.313306532119896-3.384925393398589-1.669034132737579Z" fill="#50415f" stroke-width="0"/>
    <path d="M178.389738328867679,158.257843520797906c-4.064046226229038.085425599827431-8.091047112760862.021511770082725-12.145831917898249-.641616096851067-15.182276147414086-2.482923166955516-30.340837977701085-5.288827124024465-45.621104267436749-6.918392540112109-7.447925946735268-.794284088120548-14.649552626009609-3.296993230913358-22.240279572966756-2.927155976232825-2.078428219963826.101260352384998-3.891483240951857-.795688887685174-4.51522531162118-3.102266339457856-.299149516045873-1.1062734024581-.906426754208951-1.891385058888773-2.062259402706331-2.166042693879717,2.470705528223334-14.891326947708876,3.796359576230316-29.95917842360177,6.913346891804395-44.750510330268298,2.20694559106596-1.069014185182823,4.40951395337288-.181041539226499,6.575228002040603.111506240478775,5.210801481291128.703877790963816,10.289972888009288,2.250305570370983,15.590946173188058,2.422312850318121,2.311827919853386.075017526238298,3.579174283293469,1.418864862193004,4.007520871889938,3.632911350605355.547830024739596,3.822173921636931,2.795219848923807,5.849066323922671,6.588221345367856,6.215187123916621,9.595213422837332.926200815194534,19.007676452207306,3.20679809651665,28.644975015733507,3.838553071876959,1.976828402272076.129588870264342,3.664122291187596-.27603853670189,5.025199029078067-1.760436781079989,1.422237583927199-3.861112956819852,4.251327376465269-4.928847247894737,8.082623803236856-4.213444703822461,4.207879722560392.785722877979424,8.502154501418772.473753905273043,12.749667465666789.859782465728131,1.219636242802153,1.558469354640692.783601300367081,3.294052533083232.41748859342988,4.951198119186301-2.166685587575557,9.807163406436302-2.594857170372052,19.884718356430312-4.727535343517957,29.710338387318188-.773191872853204,3.56218640037514-.492027570526261,7.357120034419495-1.417176921886494,10.95913742407356-.357421233844434,1.391594018668911-.441983989598157,2.915898358834966-1.865804453402234,3.778938428202309Z" fill="#574469" stroke-width="0"/>
    <path d="M185.482021310372147,108.670255542710947c-2.334995831286506,1.526477704353965-4.810642878903309,1.95257654992929-7.478632666872727.995469117207904-2.797166374435619-1.003453350445852-5.744542562155402-.308000799615911-8.615978394536796-.737026919270647-3.036352715071189-.453668814840057-1.327101693776058,3.382118578285372-3.248700952713989,4.132092053943779-1.571460361710706-2.750739309856726-.163884811210664-5.438205062879206.31520628052931-8.078591429924927,2.025060375102839-11.160698119903827,1.972220254596323-11.467036384316089-9.256468157924246-13.428207120459774-7.270225391075655-1.269794447927779-14.629638454640371-1.971343645882371-21.905930172219087-3.296064087529885-5.884454396778892-1.071323975131236-8.252157967070161,1.194530686252619-8.747971825754576,7.178018847298517-.254268401353329,3.068533892450432.269356997740033,6.434526801369429-2.601346450433994,8.750496872029544-.34463879014038-1.824106990683504-1.060425705252783-2.972919513964371-3.291621380483775-2.968092303237427-7.481155603261868.016187452578379-14.624210264988506-2.277865329122505-21.932136146377161-3.466634475618775-.000056695542298.000143446846778-.004828097791687-.017632488777963-.004828097791687-.017632488777963-.847259121679599-3.029587011184049,2.198492141917086-5.650871083782476.917559231209452-8.725939937014118,1.700899821187704-8.331620812659821,1.865403330912159-16.903142595701866,3.934344157858504-25.177320881020933.985273972457435-3.940344710179488-1.050735764401907-5.48325440426197-4.603623818349661-5.820424780940812,10.396246734939268,1.473307491116429,20.795448268707332,2.915242467090138,31.184452977520777,4.427166558802128,19.273076073988705,2.804835283359353,38.540199819955888,5.65054895220419,57.809801836512634,8.47924106267601,1.803802791797352.620028248729795,4.9010843695105-.888778713368083,4.780286117333162,2.909208682222015-1.480040911870674,6.134517741444142-2.690712188910766,12.286194774475007-3.355353838329393,18.600213422989327-.580075352447238,5.510758632901343-.699994199210778,11.29493246545826-3.899058699176749,16.244027806626036Z" fill="#5c4671" stroke-width="0"/>
    <path d="M83.842298163921441,200.728921903453738c13.989572386637519,1.509261236615203,27.80840151218581,4.213842503451815,41.782518584532227,5.894913007658033,7.431129067896109.893957426213092,14.84581905019877,2.190177164486158,22.273331466407399,3.272648787447906,7.164941942724909,1.04418978704598,14.314427870245709,2.194252444578524,21.478174428506463,3.247014219687117.596213775063006.087622941100562,1.249406540413474-.212143032536915,1.876133343725087-.331923333067607.214227000171377-.042797960881217.428451723520993-.08558401411392.64468206656602-.127838464037268.338286919119128.309407140091935.552910803453415.687581092070104.652683111235092,1.135293282130078-.125039938158807,2.319976360706278,1.22442751935705,5.26710917737546-2.550991925190829,6.053525931531112-6.131797061663747-.730090956554704-12.258189170765036-1.468405695328329-18.377213130437667-2.314732220247606-14.704943684726459-2.033836959233668-29.37059675501223-4.345506588133503-44.078992452117745-6.359662343615128-8.461250531910991-1.158661626659523-16.981466505269054-2.095525108312358-25.374203810506515-3.789510383683591-2.843483826287411-.573932757210059-5.702466506003475-1.057059285085415-8.595451746483377-.353539660209208-1.482927772391122.979278507151321-2.450380183136076,2.286069382416827-2.57643713752077,4.122795949469946,1.012802686340365,4.107394977374497,2.372723565067645,5.537252360358252,7.180169632967591,5.890034776457469,5.81775281219052.426936103034677,11.45601991841977,2.046150552399922,17.208881075222962,2.473429263556682,7.786570316115103.578361607464103,15.295239934583151,2.911625303369874,23.102016224287581,3.142914475569341,2.860357636882327.198648946869071,5.641008211558074.870136321253085,8.447686564730247,1.386487082781969,3.010975976960253.640654485916457,5.981872265374477,1.569938999320584,9.127668846147571,1.229418425658878,10.186378196473015,1.90830230713982,20.606305268511278,2.342899850178583,30.699849303389783,4.845478924185954,3.654008176112256,1.906629156217605,4.097790846404678,3.399670529342984,2.09898791440537,7.046843915797581-19.402384683276978-2.801589545582829-38.804595687537585-5.604441896772187-58.20723184342387-8.404265105718878-11.199681477848571-1.61614585805728-22.400074931985728-3.227391909849757-33.600149113390216-4.840823339169219-2.884247796593627-.547611061167117-5.768493316367312-1.095234029980929-8.652742599029807-1.642845375290563-4.06706933229907-2.161978122660003-5.64720677438163-5.622324279163877-5.052435308087297-10.082653762894552.378620053019404-2.839354240441025.98697455596448-5.648087519321052,1.492232514514399-8.469855963037844,3.253067969115364-4.572750446173814,7.668467964263982-5.382297985241166,12.818449141786914-4.09797461805465,2.024274195993712.504831097123315,4.119479568571478.725018006274695,6.182384847763387,1.074826527094046Z" fill="#523070" stroke-width="0"/>
    <path d="M99.631172577002872,89.008143671357175c1.397018588193532,1.114036433957153,1.418364448421926,2.500539171696801.529575674934676,3.850744493978709-.991367296253884,1.506038021423592-1.012473709593905,3.238685994878324-1.447048874366374,4.87530137955946-1.06268647525394-3.052275964138971.679210242169574-5.810309682376101.917473199431697-8.726045873538169Z" fill="#574469" stroke-width="0"/>
    <path d="M203.359856845616378,162.226750367924978c-1.084227337592893,10.814246165871737-2.895765808185388,21.524387282117459-4.620939452868697,32.246882321194789-1.380601630904494-.443039710893572-1.111677064680407-1.626054570824635-1.09832489323162-2.620222836898392.072317177224249-5.383182756111637-.532831779104527-10.741688059946682-.51639022627387-16.126470153338232.007410080419504-2.427967852698202.192253710220029-5.147012589095539-3.141444663848233-6.002753866167041-3.951652332909362-1.014376897359398-6.688648313891463-.23980552793364-8.689208205631076,2.634008844130221-.373127160593867.535992602710394-.765167211558946,1.089240938348667-1.568224615273721.696829608479675-.86249871963264-1.036873636367091-.742198468138668-2.247244925489213-.498797076132178-3.408917294334969,2.248410099255125-10.730647525559107,2.760573803407169-21.744577272924289,5.302195293155819-32.4238882575155.529875392869144-3.02367077420422,1.580638741110306-5.974701509947408,1.293524985476324-9.117482838993965.092835881032443-1.699307479881099.075104967350853-3.445904671729295,1.778432462246201-4.507538920468505.771229588952338.144328946138558,1.542849652410951.286615730397898,2.313631846373028.433284529653974,9.941196190036862,1.891705458698198,10.288334067739925,2.405402829226659,9.613785251425725,12.803077561859027-.164897615140944,2.541706621310368-.644995503022074,5.119815232852488.127025913729085,7.658046071574063,1.656127552423641,4.33075136111438.387943081206686,8.734686901703753.288255752135228,13.105238333126181-.035333038271347,1.549769440365708-.832817383725342,3.027800705940535-.583522371282015,4.629906897698675Z" fill="#554366" stroke-width="0"/>
    <path d="M191.600679314828085,123.597202927836406c-.269982135801911,1.582268894826484-.539976160147489,3.164535516485557-.809970184498525,4.74680213814645.100274517728394,2.943863594753566-1.492219465488233,5.679262261886834-1.068679032634464,8.662934999088975-1.86177265504557,11.559935346695056-3.729716229412588,23.118888261727989-5.563404953258214,34.683273884098526-.075583958448988.476700196517413.170267019824678,1.004332251655796.266355328061763,1.508241230229032.958835959034332,1.31268234867639.682046965732297,2.776193816944215.438758748332475,4.197973180724148-1.889056838921533,11.040281044284711-3.508642516462714,22.119361085984565-4.86702264017913,33.237029759806319-.163626590301647,1.339131253811502-.571528099668285,2.574716091337905-1.606546451554095,3.519256564721218l-.250414672960687-.117581774415157c-3.3644156037426-.045761354787828-2.865822274003222-2.556575793691081-2.586341902251661-4.50625682629834.582180193083332-4.06146634745528.831009784458729-8.184696598877053,1.552283879002061-12.19480725437279,2.717411396095486-15.108418654359411,4.523240198112035-30.350961334774183,6.780306847856991-45.521511444783755,2.158563831690117-14.508440131126918,4.334234415669926-29.025205581958289,6.290241894106657-43.570252798192087,1.479506370327726-11.001667655280471,3.022330650428557-22.014814433057836,4.971745434329932-32.95603087908421.241180420573073-1.353717740264983.541715911427673-2.617175925322954,2.086766181246276-3.054689251306627.558285575596528.100112669220835,1.116559262645751.200223065277896,1.674768419692555.300348701652183-2.436349071807854,17.021762079837572-4.872598268153524,34.043517413369045-7.308846895291936,51.065269769986116Z" fill="#8f76b5" stroke-width="0"/>
    <path d="M203.359856845616378,162.226750367924978c.098429329971623-5.911666400063041.196857521534184-11.823326846300915.295276735325388-17.735069238589858,1.839652043187016-11.647455459984485,2.315764651530117-23.442227205901872,3.724892809243102-35.122740725522817,1.318025903123271-10.925437448167941,1.369785932387458-21.987011531764438,3.598247246492974-32.804807875265396.223562646346181.242935290689275.447038153184621.485810719270376.670525548570367.728688421020706,1.096729619954203,2.326683807346853.173731504364696,4.686461753553886.08913497834692,7.027068810391938-.323868146006134,8.961351485997511-.902883791961358,17.904119656110197-1.670844343188946,26.842148571617145-.334660071330291,3.895204484915666-.190185119994567,7.837859447767187-.844523990755988,11.720962565026639-1.775567690257958,13.141185669150218-3.35787490688017,26.311137496526499-5.862708984033816,39.343749471321644Z" fill="#635074" stroke-width="0"/>
    <path d="M178.390170129097896,214.152714684651073c1.570217418022366-13.71641661859212,3.409325967295445-27.393256449835462,6.034900393688076-40.954279316030807,1.153900952240292-1.712075586439823-.848505057463626-5.482840608070546,3.680791371565647-5.031596195616657,9.681519145655329.964547035458963,9.766573731687458.840352943196194,9.98814021873477,6.093990806168222.284062807870214,6.734662808989015.436023152586131,13.474985970824491.644920337750591,20.212840706060888-1.10932903014691,7.592017359133024-2.218638836835453,15.184063079896077-3.328565566464022,22.77527494748756-5.673800627380842-1.032644034732584-11.346986608645238-2.064442308643265-17.020186755275063-3.096230948069206Z" fill="#50415f" stroke-width="0"/>
    <path d="M209.222565829650193,122.883000896603335c.32465544020306-6.863314292017094-.546968028087576-13.752446030508509.337043216683014-20.597424399833471,1.072226294740176-8.302458523896348.167873880742263-16.764943050893635,2.089210358479249-24.992732395166968,2.590510254487526,2.283436067609728,3.494486582181707,5.394762834099311,3.066688006700133,8.547377377264638-1.678344792049757,12.368277868052246-3.637865404827608,24.698453278750094-5.492941581862397,37.042779417735801Z" fill="#68547c" stroke-width="0"/>
    <path d="M197.234757790427466,72.231584456198107c-1.866363556955548,1.591991815528672-.625149112263898,3.75312844216387-.974651491114855,5.624576136156975-1.11055865965136,5.946603361329835-2.200709282047683,11.878765641926293-2.833548799460914,17.934877779409362-1.011485663417261,9.679620925651761-3.208263171727594,19.229236612605746-4.496388928415399,28.888087892497424-1.705063563267686,12.785342592584129-3.721558655704939,25.518222347764095-5.626408622301824,38.270968211249055-1.611692974980542,10.790121547333911-2.738601629618643,21.652027951582568-4.667066284820976,32.406723387475722-.927047138808121,5.169948908225706-.902132533248732,10.489123705390739-2.205306026300605,15.621616465043189-.376638523295696,1.483398763473815.13752816993474,2.599699010201221,1.708600285541252,3.056385084706562-.755698139380911,3.274316933955561-1.470693727782418,6.525694750884213,3.631316741035334,6.525308676709756-5.409382963967801.532843788030732-5.687377446120081.859322855960272-5.263281093515616,6.178902031324469-.295448706359821,1.805880646756123-.590223555715056,3.611717337427763-.884632136940127,5.417636403915822-.378459918531007,2.041262312652179-.757281551561391,4.082418434187275-1.13612923850269,6.123581917039701-.546469997278109-.102871652194153-1.092908882552365-.205712669594504-1.639345491008498-.308565594639731-1.553446180618266-1.675062255995726-1.193789193090197-3.652724561929062-.858499961916095-5.612186918748193.577500499464804-3.375029284383345,1.378980322640928-6.71199667397741,1.854703122286082-10.102104748126294.459464826473777-3.274143859862306.813195233318766-6.581020615816669-1.572794246505509-9.398513254376667l-.28730710081436-.006229522363355c-.386640605776847-.732081192416445-.503524897196257-1.525978306799516-.294809310031269-2.30722511141721,1.743226718417645-6.525079649749387,1.688950618643503-13.30509496362356,2.897631035220911-19.919484883525001,2.554338096273568-13.978420007657405,4.200159035872275-28.104998183976932,6.359141023805932-42.150298674323494,1.878091633700024-12.217918045555052,3.72053794684507-24.451655918686811,5.424891447208211-36.695388019470556,1.778216706396051-12.774271272179249,3.320587130532658-25.575069384434755,5.821883166969201-38.236509022239261-.030179549952663-3.116978829817526-3.047922604015184-1.395963435041267-4.239822884208479-2.626687730020421,3.191308129302342-.233222363254754,6.232559650103212.568859573180816,9.281824793790292,1.314529493722148Z" fill="#836aaf" stroke-width="0"/>
    <path d="M172.271325618487026,212.858877925835259c2.562395927501711.31749032596781,3.154762861482595,1.57146933166041,3.110143724197769,4.259326175179012-.083416788414979,5.02495277772141-1.323753902717726,9.798071972540129-2.17511904296407,14.657797019805002-.362784608116272,2.070908052652157-.627809713085298,4.107273027773772-.358433595098177,6.195681726267139-1.328382591749687-.259710115005873-2.656753294952068-.519417956840698-3.985625089495443-.779147552620998-.46491958608749-2.054899723538256,1.940637119765597-5.010346404495067-1.87834276628746-6.012611848635061-.151411161896249-.573622339128633.229110015770857-.842407169133367.622147747619238-1.106145010066029.770295096433983-.34833511431134,1.122432267968179-1.001736205354973,1.28220357961618-1.797179923627482.172475783951086-.886636135383014.276325095201173-1.777210908456254.42883107911257-2.664394505391101.835089112173591-2.060755778455132-.340998579798907-4.584994952609122,1.480083821525113-6.412133512209039,1.877971799918669-1.791204666382328.199156369400953-4.409717174206889,1.47411054177428-6.341192568701445Z" fill="#7b61a9" stroke-width="0"/>
    <path d="M176.995641264091319,225.197387107255054c.106141857611874-1.617311452146168.834734050626139-2.064119247361305,2.54815737699937-2.067441969138599,4.892347630027871-.00949404988387,9.58012125732057,1.170542139259851,14.333830424691769,1.989884179418368-.441913841947098,1.821433987872297-1.688664811292256,2.125966014906226-3.313953282438888,1.811361717707769-4.484795984368247-.868112172875044-9.131977003373322-.476221136841559-13.568034519252251-1.733803927987537Z" fill="#c8b4d2" stroke-width="0"/>
    <path d="M192.192755880845652,73.54374269249638c.621698699838817,1.869846551348019-.08709751000606,3.675291893829126-.354089524054871,5.475101489169901-3.193249452282544,21.526781397420564-6.468261503769099,43.041436983146923-9.663980914994681,64.567859509739719-2.633372896962101,17.738381280036265-5.277344971911589,35.476124515556876-7.726316547592432,53.240365327856125-.738729297867394,5.358491187384061-1.37150858923269,10.724934735610077-2.46430864389913,16.025747822650374-.243916060037009-.013904707424444-.487762043125258-.028240363400982-.731595387784182-.042190970072625-.578750898417638-.661874235653158-.550343472004897-1.428644816111046-.424874013520821-2.236880480641048,1.130555320416534-7.282173472705836,2.310373043426807-14.557420941033342,3.356806178682746-21.851754046059796,1.455650659416278-10.146882148457735,2.808774122524483-20.308467989581914,4.20556250043046-30.463951242223629,2.451386850614654-15.619677861677701,4.913851809156768-31.23748437759059,7.325803299994732-46.863085602175488.135132479234017-.87540078654456-.146380026164479-1.815068895928562-.233864892088604-2.724762662723151,2.499277368639014-10.292024391690575,2.834190322899303-20.941136126388301,5.16549422353819-31.258574339826737.304907018797167-1.34941727596015-.017272532471907-3.002604923985928,1.545363721288595-3.867874805693646Z" fill="#40324e" stroke-width="0"/>
    <path d="M123.942198970446043,104.186442876005458c.594087376251991-3.909864100513005,1.094066831852615-7.836990919478922,1.807420891234869-11.724973100446732.791660540171506-4.31477750281374,3.239542719140445-6.299442707952039,7.527813000251626-5.701511199275046,10.18492423142925,1.420127427456464,20.347650907566276,3.011290282498521,30.49559721233345,4.677884690128849,3.646834496206793.598921518894713,5.554861676815563,3.177698734431033,5.030095585572781,6.81498776053013-.715729393989022,4.960843725613813-1.760659085894076,9.874245031278406-2.664431667366443,14.807974355959232-1.751484249816713,1.80782056103817-3.766173836411326,2.711543640160016-6.378860763601551,2.316069518545191-9.897369608544977-1.498106926183027-19.802240374836401-2.949442566930884-29.7153803427409-4.339323672325918-4.049789398764915-.567798196481817-6.104464087076849-2.747720640125408-6.102253915683832-6.851108353115706Z" fill="#ded7e6" stroke-width="0"/>
    <path d="M169.522205078825209,229.370309550546153c-.055741821886841,1.143744814184174-.542362488899016,1.685006164725564-1.732183729578537,1.242971134644904-1.599319526932959-5.345888164869393-5.826275211751636-5.429143691062563-10.440028409706429-5.895438255567569-9.426957301213406-.95272934478453-18.826104848405521-2.193497175501761-28.29790537869485-2.652095457782707-3.663642769302896-.177391415199963-7.404213274250651-.559216038580416-10.7763678286301,1.511291716054984-.903694569326035.041334000876304-1.828298653177626.228341088446541-2.707939420992261.102175994146819-13.122088831820292-1.882152048463468-26.241824264572642-3.781590991322446-39.353939811238888-5.731870219833581-4.930823433986006-.733418691972474-6.736091607808703-3.006449512589825-6.258191002454623-7.602779727905727,1.516144055012774-1.018781555072565,3.239228176311371-1.171100775440209,4.946109782957137-.923877280054512,9.11472724365558,1.320207555190791,18.273475510552089,2.294613030173423,27.398742365312501,3.518128920153686,12.747871177703928,1.709213886068028,25.503262783702667,3.364272890657958,38.246863616110204,5.09230795941221,7.027311147143337.952925068510012,14.099671522279095,1.666764676858293,21.080914594778733,2.97624613789776,7.02257942741744,1.317224779519165,7.285901530387491,1.588105899541915,7.893925222137113,8.362939078833733Z" fill="#d5bfdc" stroke-width="0"/>
    <path d="M118.275719732215293,223.577038687895765c.623774611949557-3.49980660698202,3.643907575860794-2.728774926883489,5.680925651076905-2.730100101931384,5.856566467513403-.003806347825957,11.744234590667475.200216117882519,17.561607110581463.845192517626856,6.744468574112034.747753181651206,13.44873940754951,1.964568361019701,20.243016947213619,2.11687827253445,4.676909858344516.104859244960608,6.522313201261568,2.311135926927818,6.02881691343282,6.804382482428991-.270108869855903.189078816214533-.540152734440198.378268805790867-.808161108076092.566996327903325-10.447952558130055-1.671083244242254-20.897934662929401-3.341702884439655-31.347919044548689-5.012310616986724-2.998901791974276.351142470020932-5.760323116846848-1.252378025896178-8.739944712548095-1.059945803435767-2.872778604287305-.510363980518378-5.745563152844625-1.02072909762137-8.61834175713193-1.531093078139747Z" fill="#d9c6e0" stroke-width="0"/>
    <path d="M169.522216967372515,229.370311823713564c-.377350449956793-7.239233552372752-6.150767979559532-7.006105917835157-10.979249060939765-7.708563511056127-15.32629944121436-2.229689138850517-30.656759097253598-4.466332890568083-46.033537219611389-6.298996979156072-7.812789445182716-.93115101550211-15.616456969411956-1.895266354364139-23.414292568693782-2.942988888464242-6.357966993751688-.854256760010685-12.7580786000035-1.395283760568418-19.139496050936941-2.075199131462796.069839238274653-1.631312938254268.673334507362597-2.934932826176009,2.235729956692012-3.649774564741165,8.464622076202431-.011500558319312,16.74051129955842,1.834857662281138,25.039896817024783,3.032011328161389,8.969295944525584,1.293794911935038,17.957455004017902,2.74349675085432,26.932094623209196,3.931892131078712,13.146747642611444,1.740861719985332,26.199591518110537,4.1844880786266,39.415410632549538,5.40814131524894,5.273415186957209.488263677505529,6.794669802604403,2.185707696309692,6.499836487437278,7.147241278014917l-.556393616730929,3.156237022376445Z" fill="#c5aece" stroke-width="0"/>
    <path d="M170.078610584103444,226.214074801337119c-.72147146108-4.888002333860641-2.972913497151239-6.554309940860549-9.691714642589432-6.478580460567173-2.416019666377906.027243618040302-4.713609313308552-.289405670642736-7.029384398800175-.738775601221278-13.162979299950166-2.554270397047731-26.539057934929588-3.64066456675755-39.765799105798578-5.821408145360692-10.473564609868845-1.726808874458584-21.09397853624796-2.613774118217407-31.557917967063986-4.54572222871866-3.289264889135666-.607291373164117-6.920906303508673.556380030009677-9.842415015627921-1.934798195907206,2.55681880155862-2.332530248348121,5.468507186047646-1.199885008350975,8.262948480381965-.785235136638221,15.255447236737382,2.26366225995298,30.498178521183945,4.613219598419164,45.755946463601504,6.860934098918733,14.855219686596683,2.188382816069861,29.723290462154182,4.289575692486324,44.586326018807085,6.429315719895385-.201325809379341,2.342110411755129.203057708156848,4.745899986368386-.717989832910462,7.014269949599111Z" fill="#b69ec2" stroke-width="0"/>
    <path d="M126.894061489347223,225.108131766035513c3.052092039892159-.789417736064934,5.821895820468853.744708649599488,8.739866046358657,1.059906075970503-3.011924990436455.458986355761226-5.857704984380689-.450152071613047-8.739866046358657-1.059906075970503Z" fill="#d5bfdc" stroke-width="0"/>
    <path d="M189.722030097695097,137.006940065071831c-.660030815206483-3.013018134246522.518412887051454-5.799894380161277,1.068143427648465-8.663549644377781.735651319067983,3.022657323408566-.756540098705955,5.770408812697497-1.068143427648465,8.663549644377781Z" fill="#5b456f" stroke-width="0"/>
  </g>
</svg>