<?xml version="1.0" encoding="UTF-8"?>
<svg id="Layer_1" data-name="Layer 1" xmlns="http://www.w3.org/2000/svg" width="280" height="280" viewBox="0 0 280 280">
  <g>
    <g>
      <g>
        <g>
          <path d="M234.644426674869464,150.135049313985292c.471754409718415-4.516286286507238-1.191281727883506-8.618510870630416-2.74015831039469-12.658463848460087-6.290435520806568-16.407764335852335-17.913812838497506-27.588402806615704-34.423008587305958-34.333405751149257,7.264204642606273-1.790652067682458,12.905075376300374-5.380594839452897,16.059539629667597-12.164226294820764,1.188029393068973-2.554743265382058,1.751270036898859-5.27768725873284,2.212816869183371-8.020678010430856.234658831906017-1.394652823526485.473146741948767-2.199786609962757,2.2661670385869-2.585327182518085,3.612422091483495-.776768976085805,6.0453653296845-3.177733469467057,6.829569530151275-6.969371680153927.80048123663255-3.870095232141466-.138970538112517-7.327684562775175-3.480262563123688-9.408735503284333-2.501686273534688-1.558134163800787-1.115282670215493-3.446478577390735-1.323210489320445-5.22459122347027.914964959560166-3.549214910681258,1.532554139317654-7.140222812218781,1.520439151939172-10.819724552795378.121477610221518-1.139524322346915.561442718301805-2.30905429145605-.316776268457943-3.354436101295505-2.331358670622649-.158662073628875-2.234685935787638,1.750318890157359-2.593865485359856,3.155970898780652-1.851948152073419,7.24736919206407-3.888890619834456,14.374414375251945-7.844838277853341,20.877111388777848-8.340980172986747,13.710773469603737-23.874637558917129,21.289177572427434-38.933537395764688,18.752889013028835-1.992345469072461-.33556829913141-3.82824506893121-1.292481808872253-5.836440714893797-1.43422478663706-1.142735476867529-.080670389266743-2.741737714682131-.845772392623985-3.084702607436157,1.238826241567949,1.645599101745574,5.875453052945886,5.854804191727453,9.506955867633224,11.365902451035254,12.653770110489859-16.899465142896588,1.781049596260345-30.827472863708863,8.52144559545377-41.539736065060424,21.366728711704127,1.91144180176525,2.079503059305353,4.486782330202004,1.582233416114832,6.878759091702705,1.747402795657763,8.655016531035471.597472882407601,16.624666161008463,3.064554673690509,23.506273543796851,8.532349919352782.874810490413438.695084910050355,1.700611719803419,1.4479760377817,2.38936019596531,2.332783698517233,1.165934076029771,1.497919384417401,2.010208436365247,2.955786917495061.226307027805888,4.675758187358952-1.445180428931963,1.39335965304781-.683768743276232,2.055429407389965.973267469367784,2.217336874708053.332632444958108.032491365596798.662452169539392.095214155751819.993741958659484.142809714128816,21.534177781787548,3.093925729219336,43.068076430506153,6.189506438908211,64.603653824722642,9.273690139207247.755442063765258.108181013409194,1.52717087946894.40906797045136,2.290738982386756.005757241735409Z" fill="none" stroke="#093747" stroke-linecap="round" stroke-linejoin="round" stroke-width="39.224575996398926"/>
          <path d="M162.956158194487216,87.186661921125051c1.706487314130754-1.321927039642105,3.44195282097553-.405633736172604,5.069566781535286.081998713387293,9.79460721997475,2.934373809233875,19.130189467907257,1.681547918804426,27.915721647512328-3.273179998481282,12.268761474092571-6.919168705546326,18.968106724442805-17.835469406969423,22.365284667158448-31.260056031953354.683461309075028-2.70084534560192.193683882429468-6.094099843092408,2.942812840000443-8.139345565321491-1.439120271220418-7.90377432823152-6.236620647792734-12.708990085224286-13.810620137090154-14.952512235428003-2.660954621716883-.899003409103898-2.427950173007957,1.168994880501486-2.44760684292487,2.585378934354594-.047965914754059,3.450716023655332.102137818586016,6.894177774614946-.517603805657018,10.325393954204628-1.508632722495349,8.352904740051599-4.736355400016691,15.864416287195127-11.342650827899888,21.407525503584111-7.155596467061514,6.004076411194546-15.349758584443407,7.87997558958341-24.369220483209574,4.747622654249426-3.595678554846927-1.248754372414624-4.624800073424012-2.979709614130115-4.511855847630613-6.847868809027204.04096678503538-1.403472399179009.622582114897341-2.900464229252975-.608775040201181-4.121809908407158-2.740070271493096-.760633992938892-3.938223803336768,1.151086593787113-5.185959802130128,2.987260329649871-.918628665865981,1.351892249291268-.984845115731332,3.161171941779685-2.311943149546096,4.292065925275892.42887432648331,3.346117280563703,1.84252256479067,6.081759246237198,5.074533745482768,7.460198452301483,1.774433036176561.756776133635867.919855146157715,2.05817040492002.799187569470632,3.089553192432504-.462230275052207,3.948706253066121-.864819175796583,7.862921792579073.939128685129617,11.617774889178691Z" fill="none" stroke="#093747" stroke-linecap="round" stroke-linejoin="round" stroke-width="39.224575996398926"/>
          <path d="M163.167714754873487,57.879006987137473c.65564370004995.638708999929804.508648326825096,1.423178652354181.381273670092924,2.192296702249223-1.416558546635315,8.554793450761281,2.773072523496012,9.3539774816727,8.236083677516945,10.500961917434324,11.475988597489959,2.409415068930684,23.260446247131767-3.697010723901258,28.930778222693334-14.356859551360685,4.011299855563266-7.541003557598742,5.809131580288522-15.514180459969793,5.102650409810849-24.024922580643761-.113471879746612-1.366776752252918-.191885054596241-2.501055202161297,1.620258230007494-2.546919708987843-5.382915706263702-2.048279417052981-11.13260423065276-1.975525506151826-16.712033397390769-2.887753349308696-.96853146680769,3.572805828091077-.286572444629201,7.096822554993196.869456942342367,10.411998104258601,1.100042698851212,3.154636647575899.348292992248389,5.375451069301562-2.104242708262973,7.316197139256474-1.392601749600544,1.10195877199294-2.779245007848658,2.205920866885208-4.08126959418496,3.423155733968088-4.921903771323741,4.601292845220087-10.185432409742134,5.42192522750338-16.275735524129232,2.604754122978193-4.501330249632701-2.082171365202157-4.63323205571578-1.999064973166242-4.680886693389766,2.949890572625009-.058292866202464.354496963158454-.116587187304503.709004053167519-.174839523804621,1.063506839127513-.559443683537211,1.055310960759016-1.557908333532396,1.965223689321647-1.111493711301591,3.353694058403562Z" fill="none" stroke="#093747" stroke-linecap="round" stroke-linejoin="round" stroke-width="39.224575996398926"/>
          <path d="M234.644426674869464,150.135049313985292c-23.037407200206871-3.309725488796175-46.074814400411924-6.619450977592351-69.561250175816895-9.993687255628174,3.855975146451783-2.534793509512383,4.080564799794047-4.505763741724877.936580065857925-7.513595527922007-4.664184241584735-4.462239737427808-10.271039587466475-7.118172602768027-16.461537627496909-9.089938711915238-5.553682525178374-1.768938449853522-11.269459275808003-1.031005417817141-16.775937796451217-2.330652644301153-3.213302012632084,3.310429133796788-5.352822873445803,7.313934607254851-7.475503081040188,11.351383940173037-1.01453923337067,1.929645242027618-.412091642235282,2.606354898030986,1.519401852726332,2.736644166971018.444307962719904.029992950043379.884469300186538.121384717807814,1.326477507440359.184948923930278,34.365973501748158,4.94254298692249,68.730707429910581,9.893714049359914,103.103565719167818,14.788047411338994,1.081486892296198.153989454607654,2.315680307215189,1.073997201159727,3.388203535612774-.133150302646754Z" fill="none" stroke="#093747" stroke-linecap="round" stroke-linejoin="round" stroke-width="39.224575996398926"/>
          <path d="M164.454047989979699,53.461806089606398c.141649844137646-.765113690587896.312181569811401-1.526253704778355.418502399904355-2.296246643087215.181691198690714-1.315916683908654.614962860708147-1.722773480234537,1.957831972861641-.960309416410382,7.47017277424311,4.241454445314957,14.344455728286448,3.971675445598521,20.349522882651399-2.793908943802307.796394208616221-.897269442199104,1.947054959259731-1.474113812915675,2.904114047077201-2.236332454138392,3.465975050542511-2.760249421213302,3.792439077016752-4.131097887511714,2.19816990102845-8.29562861913837-1.245333888295136-3.253018956691449-.627451603018926-6.810651565325315-1.55550415559992-10.123575419307599-13.703467463451489-2.634940741460014-24.040316159306713,4.770648217878261-25.701132979093927,18.500352077298885-.328552103633228,2.716485567247219-1.074667531759587,5.423843697488337-.571504068829199,8.205649418585381Z" fill="none" stroke="#093747" stroke-linecap="round" stroke-linejoin="round" stroke-width="39.224575996398926"/>
          <path d="M163.167714754873487,57.879006987137473c.840518488671478-.962247727724389,1.102550359361885-2.116111122430084,1.111500985794919-3.353744692651162-6.519689542796186,2.557373953686692-8.680039514322743,5.343949277717911-8.135935189337033,10.494065502862213,1.584394874844293.10980737672071,1.936405945483784-.924617787874013,2.308064653393558-2.203774667021207.700586427559756-2.411471587260166,2.034880620652075-4.352015403688711,4.716369550148556-4.936546143189844Z" fill="none" stroke="#093747" stroke-linecap="round" stroke-linejoin="round" stroke-width="39.224575996398926"/>
          <path d="M221.566318944252998,47.950525266902332c-.506809655882535,3.606551221617337-1.013619311765979,7.213102443234675-1.52043333234451,10.819684045402028,1.188290621829765-3.510763444248369,2.073333021674443-7.064194565740763,1.52043333234451-10.819684045402028Z" fill="none" stroke="#093747" stroke-linecap="round" stroke-linejoin="round" stroke-width="39.224575996398926"/>
        </g>
        <g>
          <path d="M234.644426674869464,150.135049313985292c.471754409718415-4.516286286507238-1.191281727883506-8.618510870630416-2.74015831039469-12.658463848460087-6.290435520806568-16.407764335852335-17.913812838497506-27.588402806615704-34.423008587305958-34.333405751149257,7.264204642606273-1.790652067682458,12.905075376300374-5.380594839452897,16.059539629667597-12.164226294820764,1.188029393068973-2.554743265382058,1.751270036898859-5.27768725873284,2.212816869183371-8.020678010430856.234658831906017-1.394652823526485.473146741948767-2.199786609962757,2.2661670385869-2.585327182518085,3.612422091483495-.776768976085805,6.0453653296845-3.177733469467057,6.829569530151275-6.969371680153927.80048123663255-3.870095232141466-.138970538112517-7.327684562775175-3.480262563123688-9.408735503284333-2.501686273534688-1.558134163800787-1.115282670215493-3.446478577390735-1.323210489320445-5.22459122347027.914964959560166-3.549214910681258,1.532554139317654-7.140222812218781,1.520439151939172-10.819724552795378.121477610221518-1.139524322346915.561442718301805-2.30905429145605-.316776268457943-3.354436101295505-2.331358670622649-.158662073628875-2.234685935787638,1.750318890157359-2.593865485359856,3.155970898780652-1.851948152073419,7.24736919206407-3.888890619834456,14.374414375251945-7.844838277853341,20.877111388777848-8.340980172986747,13.710773469603737-23.874637558917129,21.289177572427434-38.933537395764688,18.752889013028835-1.992345469072461-.33556829913141-3.82824506893121-1.292481808872253-5.836440714893797-1.43422478663706-1.142735476867529-.080670389266743-2.741737714682131-.845772392623985-3.084702607436157,1.238826241567949,1.645599101745574,5.875453052945886,5.854804191727453,9.506955867633224,11.365902451035254,12.653770110489859-16.899465142896588,1.781049596260345-30.827472863708863,8.52144559545377-41.539736065060424,21.366728711704127,1.91144180176525,2.079503059305353,4.486782330202004,1.582233416114832,6.878759091702705,1.747402795657763,8.655016531035471.597472882407601,16.624666161008463,3.064554673690509,23.506273543796851,8.532349919352782.874810490413438.695084910050355,1.700611719803419,1.4479760377817,2.38936019596531,2.332783698517233,1.165934076029771,1.497919384417401,2.010208436365247,2.955786917495061.226307027805888,4.675758187358952-1.445180428931963,1.39335965304781-.683768743276232,2.055429407389965.973267469367784,2.217336874708053.332632444958108.032491365596798.662452169539392.095214155751819.993741958659484.142809714128816,21.534177781787548,3.093925729219336,43.068076430506153,6.189506438908211,64.603653824722642,9.273690139207247.755442063765258.108181013409194,1.52717087946894.40906797045136,2.290738982386756.005757241735409Z" fill="none" stroke="#093747" stroke-linecap="round" stroke-linejoin="round" stroke-width="39.224575996398926"/>
          <path d="M162.956158194487216,87.186661921125051c1.706487314130754-1.321927039642105,3.44195282097553-.405633736172604,5.069566781535286.081998713387293,9.79460721997475,2.934373809233875,19.130189467907257,1.681547918804426,27.915721647512328-3.273179998481282,12.268761474092571-6.919168705546326,18.968106724442805-17.835469406969423,22.365284667158448-31.260056031953354.683461309075028-2.70084534560192.193683882429468-6.094099843092408,2.942812840000443-8.139345565321491-1.439120271220418-7.90377432823152-6.236620647792734-12.708990085224286-13.810620137090154-14.952512235428003-2.660954621716883-.899003409103898-2.427950173007957,1.168994880501486-2.44760684292487,2.585378934354594-.047965914754059,3.450716023655332.102137818586016,6.894177774614946-.517603805657018,10.325393954204628-1.508632722495349,8.352904740051599-4.736355400016691,15.864416287195127-11.342650827899888,21.407525503584111-7.155596467061514,6.004076411194546-15.349758584443407,7.87997558958341-24.369220483209574,4.747622654249426-3.595678554846927-1.248754372414624-4.624800073424012-2.979709614130115-4.511855847630613-6.847868809027204.04096678503538-1.403472399179009.622582114897341-2.900464229252975-.608775040201181-4.121809908407158-2.740070271493096-.760633992938892-3.938223803336768,1.151086593787113-5.185959802130128,2.987260329649871-.918628665865981,1.351892249291268-.984845115731332,3.161171941779685-2.311943149546096,4.292065925275892.42887432648331,3.346117280563703,1.84252256479067,6.081759246237198,5.074533745482768,7.460198452301483,1.774433036176561.756776133635867.919855146157715,2.05817040492002.799187569470632,3.089553192432504-.462230275052207,3.948706253066121-.864819175796583,7.862921792579073.939128685129617,11.617774889178691Z" fill="none" stroke="#093747" stroke-linecap="round" stroke-linejoin="round" stroke-width="39.224575996398926"/>
          <path d="M163.167714754873487,57.879006987137473c.65564370004995.638708999929804.508648326825096,1.423178652354181.381273670092924,2.192296702249223-1.416558546635315,8.554793450761281,2.773072523496012,9.3539774816727,8.236083677516945,10.500961917434324,11.475988597489959,2.409415068930684,23.260446247131767-3.697010723901258,28.930778222693334-14.356859551360685,4.011299855563266-7.541003557598742,5.809131580288522-15.514180459969793,5.102650409810849-24.024922580643761-.113471879746612-1.366776752252918-.191885054596241-2.501055202161297,1.620258230007494-2.546919708987843-5.382915706263702-2.048279417052981-11.13260423065276-1.975525506151826-16.712033397390769-2.887753349308696-.96853146680769,3.572805828091077-.286572444629201,7.096822554993196.869456942342367,10.411998104258601,1.100042698851212,3.154636647575899.348292992248389,5.375451069301562-2.104242708262973,7.316197139256474-1.392601749600544,1.10195877199294-2.779245007848658,2.205920866885208-4.08126959418496,3.423155733968088-4.921903771323741,4.601292845220087-10.185432409742134,5.42192522750338-16.275735524129232,2.604754122978193-4.501330249632701-2.082171365202157-4.63323205571578-1.999064973166242-4.680886693389766,2.949890572625009-.058292866202464.354496963158454-.116587187304503.709004053167519-.174839523804621,1.063506839127513-.559443683537211,1.055310960759016-1.557908333532396,1.965223689321647-1.111493711301591,3.353694058403562Z" fill="none" stroke="#093747" stroke-linecap="round" stroke-linejoin="round" stroke-width="39.224575996398926"/>
          <path d="M234.644426674869464,150.135049313985292c-23.037407200206871-3.309725488796175-46.074814400411924-6.619450977592351-69.561250175816895-9.993687255628174,3.855975146451783-2.534793509512383,4.080564799794047-4.505763741724877.936580065857925-7.513595527922007-4.664184241584735-4.462239737427808-10.271039587466475-7.118172602768027-16.461537627496909-9.089938711915238-5.553682525178374-1.768938449853522-11.269459275808003-1.031005417817141-16.775937796451217-2.330652644301153-3.213302012632084,3.310429133796788-5.352822873445803,7.313934607254851-7.475503081040188,11.351383940173037-1.01453923337067,1.929645242027618-.412091642235282,2.606354898030986,1.519401852726332,2.736644166971018.444307962719904.029992950043379.884469300186538.121384717807814,1.326477507440359.184948923930278,34.365973501748158,4.94254298692249,68.730707429910581,9.893714049359914,103.103565719167818,14.788047411338994,1.081486892296198.153989454607654,2.315680307215189,1.073997201159727,3.388203535612774-.133150302646754Z" fill="none" stroke="#093747" stroke-linecap="round" stroke-linejoin="round" stroke-width="39.224575996398926"/>
          <path d="M164.454047989979699,53.461806089606398c.141649844137646-.765113690587896.312181569811401-1.526253704778355.418502399904355-2.296246643087215.181691198690714-1.315916683908654.614962860708147-1.722773480234537,1.957831972861641-.960309416410382,7.47017277424311,4.241454445314957,14.344455728286448,3.971675445598521,20.349522882651399-2.793908943802307.796394208616221-.897269442199104,1.947054959259731-1.474113812915675,2.904114047077201-2.236332454138392,3.465975050542511-2.760249421213302,3.792439077016752-4.131097887511714,2.19816990102845-8.29562861913837-1.245333888295136-3.253018956691449-.627451603018926-6.810651565325315-1.55550415559992-10.123575419307599-13.703467463451489-2.634940741460014-24.040316159306713,4.770648217878261-25.701132979093927,18.500352077298885-.328552103633228,2.716485567247219-1.074667531759587,5.423843697488337-.571504068829199,8.205649418585381Z" fill="none" stroke="#093747" stroke-linecap="round" stroke-linejoin="round" stroke-width="39.224575996398926"/>
          <path d="M163.167714754873487,57.879006987137473c.840518488671478-.962247727724389,1.102550359361885-2.116111122430084,1.111500985794919-3.353744692651162-6.519689542796186,2.557373953686692-8.680039514322743,5.343949277717911-8.135935189337033,10.494065502862213,1.584394874844293.10980737672071,1.936405945483784-.924617787874013,2.308064653393558-2.203774667021207.700586427559756-2.411471587260166,2.034880620652075-4.352015403688711,4.716369550148556-4.936546143189844Z" fill="none" stroke="#093747" stroke-linecap="round" stroke-linejoin="round" stroke-width="39.224575996398926"/>
          <path d="M221.566318944252998,47.950525266902332c-.506809655882535,3.606551221617337-1.013619311765979,7.213102443234675-1.52043333234451,10.819684045402028,1.188290621829765-3.510763444248369,2.073333021674443-7.064194565740763,1.52043333234451-10.819684045402028Z" fill="none" stroke="#093747" stroke-linecap="round" stroke-linejoin="round" stroke-width="39.224575996398926"/>
        </g>
        <g>
          <path d="M234.644426674869464,150.135049313985292c.471754409718415-4.516286286507238-1.191281727883506-8.618510870630416-2.74015831039469-12.658463848460087-6.290435520806568-16.407764335852335-17.913812838497506-27.588402806615704-34.423008587305958-34.333405751149257,7.264204642606273-1.790652067682458,12.905075376300374-5.380594839452897,16.059539629667597-12.164226294820764,1.188029393068973-2.554743265382058,1.751270036898859-5.27768725873284,2.212816869183371-8.020678010430856.234658831906017-1.394652823526485.473146741948767-2.199786609962757,2.2661670385869-2.585327182518085,3.612422091483495-.776768976085805,6.0453653296845-3.177733469467057,6.829569530151275-6.969371680153927.80048123663255-3.870095232141466-.138970538112517-7.327684562775175-3.480262563123688-9.408735503284333-2.501686273534688-1.558134163800787-1.115282670215493-3.446478577390735-1.323210489320445-5.22459122347027.914964959560166-3.549214910681258,1.532554139317654-7.140222812218781,1.520439151939172-10.819724552795378.121477610221518-1.139524322346915.561442718301805-2.30905429145605-.316776268457943-3.354436101295505-2.331358670622649-.158662073628875-2.234685935787638,1.750318890157359-2.593865485359856,3.155970898780652-1.851948152073419,7.24736919206407-3.888890619834456,14.374414375251945-7.844838277853341,20.877111388777848-8.340980172986747,13.710773469603737-23.874637558917129,21.289177572427434-38.933537395764688,18.752889013028835-1.992345469072461-.33556829913141-3.82824506893121-1.292481808872253-5.836440714893797-1.43422478663706-1.142735476867529-.080670389266743-2.741737714682131-.845772392623985-3.084702607436157,1.238826241567949,1.645599101745574,5.875453052945886,5.854804191727453,9.506955867633224,11.365902451035254,12.653770110489859-16.899465142896588,1.781049596260345-30.827472863708863,8.52144559545377-41.539736065060424,21.366728711704127,1.91144180176525,2.079503059305353,4.486782330202004,1.582233416114832,6.878759091702705,1.747402795657763,8.655016531035471.597472882407601,16.624666161008463,3.064554673690509,23.506273543796851,8.532349919352782.874810490413438.695084910050355,1.700611719803419,1.4479760377817,2.38936019596531,2.332783698517233,1.165934076029771,1.497919384417401,2.010208436365247,2.955786917495061.226307027805888,4.675758187358952-1.445180428931963,1.39335965304781-.683768743276232,2.055429407389965.973267469367784,2.217336874708053.332632444958108.032491365596798.662452169539392.095214155751819.993741958659484.142809714128816,21.534177781787548,3.093925729219336,43.068076430506153,6.189506438908211,64.603653824722642,9.273690139207247.755442063765258.108181013409194,1.52717087946894.40906797045136,2.290738982386756.005757241735409Z" fill="none" stroke="#093747" stroke-linecap="round" stroke-linejoin="round" stroke-width="39.224575996398926"/>
          <path d="M162.956158194487216,87.186661921125051c1.706487314130754-1.321927039642105,3.44195282097553-.405633736172604,5.069566781535286.081998713387293,9.79460721997475,2.934373809233875,19.130189467907257,1.681547918804426,27.915721647512328-3.273179998481282,12.268761474092571-6.919168705546326,18.968106724442805-17.835469406969423,22.365284667158448-31.260056031953354.683461309075028-2.70084534560192.193683882429468-6.094099843092408,2.942812840000443-8.139345565321491-1.439120271220418-7.90377432823152-6.236620647792734-12.708990085224286-13.810620137090154-14.952512235428003-2.660954621716883-.899003409103898-2.427950173007957,1.168994880501486-2.44760684292487,2.585378934354594-.047965914754059,3.450716023655332.102137818586016,6.894177774614946-.517603805657018,10.325393954204628-1.508632722495349,8.352904740051599-4.736355400016691,15.864416287195127-11.342650827899888,21.407525503584111-7.155596467061514,6.004076411194546-15.349758584443407,7.87997558958341-24.369220483209574,4.747622654249426-3.595678554846927-1.248754372414624-4.624800073424012-2.979709614130115-4.511855847630613-6.847868809027204.04096678503538-1.403472399179009.622582114897341-2.900464229252975-.608775040201181-4.121809908407158-2.740070271493096-.760633992938892-3.938223803336768,1.151086593787113-5.185959802130128,2.987260329649871-.918628665865981,1.351892249291268-.984845115731332,3.161171941779685-2.311943149546096,4.292065925275892.42887432648331,3.346117280563703,1.84252256479067,6.081759246237198,5.074533745482768,7.460198452301483,1.774433036176561.756776133635867.919855146157715,2.05817040492002.799187569470632,3.089553192432504-.462230275052207,3.948706253066121-.864819175796583,7.862921792579073.939128685129617,11.617774889178691Z" fill="none" stroke="#093747" stroke-linecap="round" stroke-linejoin="round" stroke-width="39.224575996398926"/>
          <path d="M163.167714754873487,57.879006987137473c.65564370004995.638708999929804.508648326825096,1.423178652354181.381273670092924,2.192296702249223-1.416558546635315,8.554793450761281,2.773072523496012,9.3539774816727,8.236083677516945,10.500961917434324,11.475988597489959,2.409415068930684,23.260446247131767-3.697010723901258,28.930778222693334-14.356859551360685,4.011299855563266-7.541003557598742,5.809131580288522-15.514180459969793,5.102650409810849-24.024922580643761-.113471879746612-1.366776752252918-.191885054596241-2.501055202161297,1.620258230007494-2.546919708987843-5.382915706263702-2.048279417052981-11.13260423065276-1.975525506151826-16.712033397390769-2.887753349308696-.96853146680769,3.572805828091077-.286572444629201,7.096822554993196.869456942342367,10.411998104258601,1.100042698851212,3.154636647575899.348292992248389,5.375451069301562-2.104242708262973,7.316197139256474-1.392601749600544,1.10195877199294-2.779245007848658,2.205920866885208-4.08126959418496,3.423155733968088-4.921903771323741,4.601292845220087-10.185432409742134,5.42192522750338-16.275735524129232,2.604754122978193-4.501330249632701-2.082171365202157-4.63323205571578-1.999064973166242-4.680886693389766,2.949890572625009-.058292866202464.354496963158454-.116587187304503.709004053167519-.174839523804621,1.063506839127513-.559443683537211,1.055310960759016-1.557908333532396,1.965223689321647-1.111493711301591,3.353694058403562Z" fill="none" stroke="#093747" stroke-linecap="round" stroke-linejoin="round" stroke-width="39.224575996398926"/>
          <path d="M234.644426674869464,150.135049313985292c-23.037407200206871-3.309725488796175-46.074814400411924-6.619450977592351-69.561250175816895-9.993687255628174,3.855975146451783-2.534793509512383,4.080564799794047-4.505763741724877.936580065857925-7.513595527922007-4.664184241584735-4.462239737427808-10.271039587466475-7.118172602768027-16.461537627496909-9.089938711915238-5.553682525178374-1.768938449853522-11.269459275808003-1.031005417817141-16.775937796451217-2.330652644301153-3.213302012632084,3.310429133796788-5.352822873445803,7.313934607254851-7.475503081040188,11.351383940173037-1.01453923337067,1.929645242027618-.412091642235282,2.606354898030986,1.519401852726332,2.736644166971018.444307962719904.029992950043379.884469300186538.121384717807814,1.326477507440359.184948923930278,34.365973501748158,4.94254298692249,68.730707429910581,9.893714049359914,103.103565719167818,14.788047411338994,1.081486892296198.153989454607654,2.315680307215189,1.073997201159727,3.388203535612774-.133150302646754Z" fill="none" stroke="#093747" stroke-linecap="round" stroke-linejoin="round" stroke-width="39.224575996398926"/>
          <path d="M164.454047989979699,53.461806089606398c.141649844137646-.765113690587896.312181569811401-1.526253704778355.418502399904355-2.296246643087215.181691198690714-1.315916683908654.614962860708147-1.722773480234537,1.957831972861641-.960309416410382,7.47017277424311,4.241454445314957,14.344455728286448,3.971675445598521,20.349522882651399-2.793908943802307.796394208616221-.897269442199104,1.947054959259731-1.474113812915675,2.904114047077201-2.236332454138392,3.465975050542511-2.760249421213302,3.792439077016752-4.131097887511714,2.19816990102845-8.29562861913837-1.245333888295136-3.253018956691449-.627451603018926-6.810651565325315-1.55550415559992-10.123575419307599-13.703467463451489-2.634940741460014-24.040316159306713,4.770648217878261-25.701132979093927,18.500352077298885-.328552103633228,2.716485567247219-1.074667531759587,5.423843697488337-.571504068829199,8.205649418585381Z" fill="none" stroke="#093747" stroke-linecap="round" stroke-linejoin="round" stroke-width="39.224575996398926"/>
          <path d="M163.167714754873487,57.879006987137473c.840518488671478-.962247727724389,1.102550359361885-2.116111122430084,1.111500985794919-3.353744692651162-6.519689542796186,2.557373953686692-8.680039514322743,5.343949277717911-8.135935189337033,10.494065502862213,1.584394874844293.10980737672071,1.936405945483784-.924617787874013,2.308064653393558-2.203774667021207.700586427559756-2.411471587260166,2.034880620652075-4.352015403688711,4.716369550148556-4.936546143189844Z" fill="none" stroke="#093747" stroke-linecap="round" stroke-linejoin="round" stroke-width="39.224575996398926"/>
          <path d="M221.566318944252998,47.950525266902332c-.506809655882535,3.606551221617337-1.013619311765979,7.213102443234675-1.52043333234451,10.819684045402028,1.188290621829765-3.510763444248369,2.073333021674443-7.064194565740763,1.52043333234451-10.819684045402028Z" fill="none" stroke="#093747" stroke-linecap="round" stroke-linejoin="round" stroke-width="39.224575996398926"/>
        </g>
      </g>
      <g>
        <g>
          <path d="M157.549444361313363,180.239931459516811c-1.030666450703393-5.208462133814464-4.303577811866489-9.218003234944263-7.427467960961621-13.19734752007389-12.687140746966179-16.161655654152128-29.529520162207518-24.643987789908351-50.30059230353163-26.48549491275844,7.498195795375068-4.506096634691858,12.562149035301445-10.462512541982505,13.746659670250665-19.129431260851561.446142138082905-3.264012549931067.136234506811888-6.500446801044745-.294203281603586-9.724202438008433-.218865284019557-1.639090233455136-.230119736166671-2.62087055214397,1.640125198899113-3.670045766722978,3.768002364931817-2.113804391483427,5.658044688913833-5.63539722515452,5.226398351804164-10.142026046103638-.440521938414349-4.599897823331048-2.682677204631545-8.138804355949105-7.13346349800122-9.311369386910883-3.332389478370715-.877935763235655-2.434767247040327-3.46584683868241-3.280365639682714-5.380697412856534-.201941013705436-4.28088641069553-.750535261337973-8.505896553831917-2.03317899697322-12.612581772855265-.257318004398257-1.315014350471756-.169160341987663-2.773402544442433-1.510902219732998-3.638429212491246-2.659397418674416.626853579171438-1.892958769331017,2.726288005034803-1.809418480779641,4.420615730692589.430653657104813,8.735767303212924.61312407510195,17.400911521088346-1.563728914637068,26.030402926033275-4.589799468062665,18.195053589997769-19.330635988287213,32.019665450090542-37.029747615843917,34.380050334133557-2.34165767963259.312277854151034-4.722838862316166-.123592418070984-7.015351997599282.410700577140233-1.304527014644918.304016781678001-3.354880142224829.000735803556381-3.019046684802561,2.448013022820305,3.865039895957125,5.996666204715439,9.820259239261759,8.602093915947989,17.06282222739992,10.216971107885911-18.266346845230146,7.818696285339684-31.502337231769161,20.153247487274712-39.039933316048518,38.199232622619093,2.852775361696331,1.664009801508655,5.558518105379335.220174569223673,8.287884561393184-.420316803061723,9.875753545154112-2.31771192191809,19.630644660119287-2.31024147131393,29.20492363309495,1.425007633941277,1.217111790198942.474838754767916,2.399406899268797,1.031164509360678,3.474081779655535,1.782143171980351,1.819273061308195,1.271380245610999,3.265362595766419,2.608957867092613,1.865568259446263,5.145858981748461-1.134016432578392,2.055170252493554-.054984984491057,2.532236094937616,1.852155947927713,2.141591048948612.382834920431378-.078428844737573.772954589760047-.122111974915242,1.159499084070376-.183202804817483,25.125847614497616-3.97078215376132,50.251954196583029-7.939619030688846,75.376005351756248-11.921768053476626.881318485277916-.139698398288601,1.847299891040166-.069716710899229,2.561276844499844-.783673766954962Z" fill="none" stroke="#093747" stroke-linecap="round" stroke-linejoin="round" stroke-width="39.224575996398926"/>
          <path d="M55.745159988117848,134.638088320703901c1.450595372074531-2.065491495573951,3.705557745461192-1.640362454782007,5.692173965489019-1.656948408937751,11.954970632822551-.099906930843645,21.952882882230369-4.719571296507638,30.059425970155644-13.285406366461757,11.320563286896686-11.961986301843353,15.040123025043613-26.468738927402228,14.205248972619302-42.638872590838218-.167970922738277-3.25321058008376-1.885544864268013-6.875338647241733.480442917977598-10.108567040453636-4.333949399980156-8.333992619611308-11.351261146454817-12.047821372907492-20.587009882266102-11.941988356931688-3.282986614041874-.086598838512145-2.309386397738308,2.143472525829566-1.842818037271172,3.732684556431195,1.136608121286372,3.871800767314198,2.492004261037437,7.667179993470199,2.983079461911984,11.714407824803857,1.195530996880734,9.852495022871153.180228972481018,19.357893799815429-5.28865664843488,27.829440995643381-5.923589689054097,9.176016482964769-14.431362591762081,14.098108617297839-25.588600245419912,13.709468771145112-4.447925517129988-.154953890867546-6.194724087240502-1.73387812821602-7.402717871704226-6.094472402895917-.438306579622804-1.582136831650132-.304838392217789-3.45523351742122-2.101810428660428-4.395050982913745-3.323651866367982.095280181214548-4.002891999527492,2.644377986842301-4.763584443128821,5.126173938493594-.560037639487746,1.827226849341969-.009972576041946,3.871454260131941-1.102591217158079,5.592660817821525,1.63327269239926,3.59047105245736,4.15620716644753,6.159236976056491,8.242561190682864,6.584512803110556,2.243478649269491.233470649029186,1.737583288010683,1.982187495219478,1.95850685402911,3.176103072899423.845541330384549,4.571057517790905,1.745819722096712,9.083009750351266,5.056349441178099,12.65585336908407Z" fill="none" stroke="#093747" stroke-linecap="round" stroke-linejoin="round" stroke-width="39.224575996398926"/>
          <path d="M45.872923141721913,101.821615994653257c.952806445079659.487447184188568,1.059152123791137,1.414583855967066,1.182123761537696,2.317801755260007,1.36803344850432,10.046294329024022,6.324480097964624,9.494111002486534,12.823550987042836,8.89129654547105,13.652401633636146-1.266339110505214,24.712210003699511-12.15325878391377,27.370574914027202-26.018574509738755,1.880568777708504-9.808614305864467,1.139113807916146-19.336613073752233-2.585657561567132-28.601427492616494-.598193870774594-1.487871290088151-1.077027253099004-2.728079818067272.931741266112112-3.404353209009059-6.720454017853626-.431768762171487-13.119106793767969,1.632657433581699-19.667273194437257,2.537903999776972.150231516598978,4.325718773476183,2.127618848769089,8.027652871933242,4.562621568002214,11.3327494474579,2.317080521951539,3.145047626703672,2.243188368092888,5.885504982139537.172521305462396,8.899683919580639-1.175781743017978,1.711472252032763-2.344215485526547,3.42312752228645-3.379041118388159,5.232148875134953-3.911871104694001,6.838349282188574-9.509416502864042,9.57064768206692-17.285388505380979,8.523834316873035-5.747206695958994-.7737043924717-5.865907370704008-.635360454687543-4.212188997203157,4.910216834810853.057143894698129.416161976261719.114289656815345.83233576839848.171480841027005,1.248490270867478-.261038805026146,1.371988582759514-1.062716447013372,2.732957436726792-.085065266234778,4.130229246131421Z" fill="none" stroke="#093747" stroke-linecap="round" stroke-linejoin="round" stroke-width="39.224575996398926"/>
          <path d="M157.549444361313363,180.239931459516811c-26.879738551691844,4.248166924642646-53.759477103385507,8.496333849287112-81.163136190001751,12.827302988818701,3.433742334068484-4.161933527910151,3.004847981830608-6.441432077639547-1.545158812454247-8.717481901527208-6.75006951744399-3.3766268253421-13.930304130225522-4.410046857339694-21.526626010682776-4.477786612771524-6.814892118380158-.06077986436685-12.946228500659345,2.735110335233912-19.546518003377059,3.182357222714927-2.448199253856728,4.806833488208213-3.457682744892736,10.017634094798268-4.436643605558857,15.260549367227213-.467917577516346,2.505792854617539.438563300067472,3.054043693909989,2.641431662544164,2.533409806648706.506740850988535-.119738511490141,1.03002621034102-.169449960951169,1.545776863723404-.250888313441465,40.099576309571603-6.331299231223966,80.200743662120658-12.652531339355846,120.291383756606592-19.040066648303764,1.261386731980565-.200976800191711,2.957592124363146.401197468252576,3.739490339200529-1.317395909365587Z" fill="none" stroke="#093747" stroke-linecap="round" stroke-linejoin="round" stroke-width="39.224575996398926"/>
          <path d="M45.786507566929686,96.442896477654358c-.10564175928539-.903667793158093-.177645130166638-1.812857800756319-.324440575873268-2.709791413741186-.250885387605194-1.532854322145795.092850121518495-2.136849585685923,1.856132795090161-1.748172124816847,9.808863098113761,2.162135739636142,17.395994280437662-.510300936115527,21.771519593999983-10.140267230983227.580278543477107-1.277146598275067,1.666874468304741-2.31849464721563,2.473234045240133-3.500173347663804,2.920258327452757-4.279304346820936,2.812171348312404-5.923464363975654-.405401445014832-10.026334629133999-2.513338104762624-3.204850832225929-3.050093308253054-7.392674064849416-5.229615955448935-10.773887173718322-16.218803153037697,1.78266090615034-25.213195387350424,13.621750290081764-22.333160999841311,29.533877501638926.569882012898233,3.14827151999998.670099978921826,6.430368631747115,2.191732541848069,9.364748418418458Z" fill="none" stroke="#093747" stroke-linecap="round" stroke-linejoin="round" stroke-width="39.224575996398926"/>
          <path d="M45.872923141721913,101.821615994653257c.607163818223853-1.364961580877207.501932054823556-2.744475038034579.08505592912752-4.130288325493893-6.401945890393108,5.105911233751613-7.854435555368582,8.964300537420058-5.470201087618079,14.530515908019879,1.808013566758746-.423798078782056,1.844505423684495-1.700906111656877,1.818537104076313-3.258213424373025-.049029352254365-2.935819104781331.772370223479811-5.564075899421368,3.566608054414246-7.142014158152961Z" fill="none" stroke="#093747" stroke-linecap="round" stroke-linejoin="round" stroke-width="39.224575996398926"/>
          <path d="M107.693355901513314,70.586734942375188c.677721975008353,4.204166353916662,1.355443950016706,8.408332707833324,2.033171527289596,12.612534509367833.116690079549699-4.33220074107885-.120135656742605-8.607476961418797-2.033171527289596-12.612534509367833Z" fill="none" stroke="#093747" stroke-linecap="round" stroke-linejoin="round" stroke-width="39.224575996398926"/>
        </g>
        <g>
          <path d="M157.549444361313363,180.239931459516811c-1.030666450703393-5.208462133814464-4.303577811866489-9.218003234944263-7.427467960961621-13.19734752007389-12.687140746966179-16.161655654152128-29.529520162207518-24.643987789908351-50.30059230353163-26.48549491275844,7.498195795375068-4.506096634691858,12.562149035301445-10.462512541982505,13.746659670250665-19.129431260851561.446142138082905-3.264012549931067.136234506811888-6.500446801044745-.294203281603586-9.724202438008433-.218865284019557-1.639090233455136-.230119736166671-2.62087055214397,1.640125198899113-3.670045766722978,3.768002364931817-2.113804391483427,5.658044688913833-5.63539722515452,5.226398351804164-10.142026046103638-.440521938414349-4.599897823331048-2.682677204631545-8.138804355949105-7.13346349800122-9.311369386910883-3.332389478370715-.877935763235655-2.434767247040327-3.46584683868241-3.280365639682714-5.380697412856534-.201941013705436-4.28088641069553-.750535261337973-8.505896553831917-2.03317899697322-12.612581772855265-.257318004398257-1.315014350471756-.169160341987663-2.773402544442433-1.510902219732998-3.638429212491246-2.659397418674416.626853579171438-1.892958769331017,2.726288005034803-1.809418480779641,4.420615730692589.430653657104813,8.735767303212924.61312407510195,17.400911521088346-1.563728914637068,26.030402926033275-4.589799468062665,18.195053589997769-19.330635988287213,32.019665450090542-37.029747615843917,34.380050334133557-2.34165767963259.312277854151034-4.722838862316166-.123592418070984-7.015351997599282.410700577140233-1.304527014644918.304016781678001-3.354880142224829.000735803556381-3.019046684802561,2.448013022820305,3.865039895957125,5.996666204715439,9.820259239261759,8.602093915947989,17.06282222739992,10.216971107885911-18.266346845230146,7.818696285339684-31.502337231769161,20.153247487274712-39.039933316048518,38.199232622619093,2.852775361696331,1.664009801508655,5.558518105379335.220174569223673,8.287884561393184-.420316803061723,9.875753545154112-2.31771192191809,19.630644660119287-2.31024147131393,29.20492363309495,1.425007633941277,1.217111790198942.474838754767916,2.399406899268797,1.031164509360678,3.474081779655535,1.782143171980351,1.819273061308195,1.271380245610999,3.265362595766419,2.608957867092613,1.865568259446263,5.145858981748461-1.134016432578392,2.055170252493554-.054984984491057,2.532236094937616,1.852155947927713,2.141591048948612.382834920431378-.078428844737573.772954589760047-.122111974915242,1.159499084070376-.183202804817483,25.125847614497616-3.97078215376132,50.251954196583029-7.939619030688846,75.376005351756248-11.921768053476626.881318485277916-.139698398288601,1.847299891040166-.069716710899229,2.561276844499844-.783673766954962Z" fill="none" stroke="#093747" stroke-linecap="round" stroke-linejoin="round" stroke-width="39.224575996398926"/>
          <path d="M55.745159988117848,134.638088320703901c1.450595372074531-2.065491495573951,3.705557745461192-1.640362454782007,5.692173965489019-1.656948408937751,11.954970632822551-.099906930843645,21.952882882230369-4.719571296507638,30.059425970155644-13.285406366461757,11.320563286896686-11.961986301843353,15.040123025043613-26.468738927402228,14.205248972619302-42.638872590838218-.167970922738277-3.25321058008376-1.885544864268013-6.875338647241733.480442917977598-10.108567040453636-4.333949399980156-8.333992619611308-11.351261146454817-12.047821372907492-20.587009882266102-11.941988356931688-3.282986614041874-.086598838512145-2.309386397738308,2.143472525829566-1.842818037271172,3.732684556431195,1.136608121286372,3.871800767314198,2.492004261037437,7.667179993470199,2.983079461911984,11.714407824803857,1.195530996880734,9.852495022871153.180228972481018,19.357893799815429-5.28865664843488,27.829440995643381-5.923589689054097,9.176016482964769-14.431362591762081,14.098108617297839-25.588600245419912,13.709468771145112-4.447925517129988-.154953890867546-6.194724087240502-1.73387812821602-7.402717871704226-6.094472402895917-.438306579622804-1.582136831650132-.304838392217789-3.45523351742122-2.101810428660428-4.395050982913745-3.323651866367982.095280181214548-4.002891999527492,2.644377986842301-4.763584443128821,5.126173938493594-.560037639487746,1.827226849341969-.009972576041946,3.871454260131941-1.102591217158079,5.592660817821525,1.63327269239926,3.59047105245736,4.15620716644753,6.159236976056491,8.242561190682864,6.584512803110556,2.243478649269491.233470649029186,1.737583288010683,1.982187495219478,1.95850685402911,3.176103072899423.845541330384549,4.571057517790905,1.745819722096712,9.083009750351266,5.056349441178099,12.65585336908407Z" fill="none" stroke="#093747" stroke-linecap="round" stroke-linejoin="round" stroke-width="39.224575996398926"/>
          <path d="M45.872923141721913,101.821615994653257c.952806445079659.487447184188568,1.059152123791137,1.414583855967066,1.182123761537696,2.317801755260007,1.36803344850432,10.046294329024022,6.324480097964624,9.494111002486534,12.823550987042836,8.89129654547105,13.652401633636146-1.266339110505214,24.712210003699511-12.15325878391377,27.370574914027202-26.018574509738755,1.880568777708504-9.808614305864467,1.139113807916146-19.336613073752233-2.585657561567132-28.601427492616494-.598193870774594-1.487871290088151-1.077027253099004-2.728079818067272.931741266112112-3.404353209009059-6.720454017853626-.431768762171487-13.119106793767969,1.632657433581699-19.667273194437257,2.537903999776972.150231516598978,4.325718773476183,2.127618848769089,8.027652871933242,4.562621568002214,11.3327494474579,2.317080521951539,3.145047626703672,2.243188368092888,5.885504982139537.172521305462396,8.899683919580639-1.175781743017978,1.711472252032763-2.344215485526547,3.42312752228645-3.379041118388159,5.232148875134953-3.911871104694001,6.838349282188574-9.509416502864042,9.57064768206692-17.285388505380979,8.523834316873035-5.747206695958994-.7737043924717-5.865907370704008-.635360454687543-4.212188997203157,4.910216834810853.057143894698129.416161976261719.114289656815345.83233576839848.171480841027005,1.248490270867478-.261038805026146,1.371988582759514-1.062716447013372,2.732957436726792-.085065266234778,4.130229246131421Z" fill="none" stroke="#093747" stroke-linecap="round" stroke-linejoin="round" stroke-width="39.224575996398926"/>
          <path d="M157.549444361313363,180.239931459516811c-26.879738551691844,4.248166924642646-53.759477103385507,8.496333849287112-81.163136190001751,12.827302988818701,3.433742334068484-4.161933527910151,3.004847981830608-6.441432077639547-1.545158812454247-8.717481901527208-6.75006951744399-3.3766268253421-13.930304130225522-4.410046857339694-21.526626010682776-4.477786612771524-6.814892118380158-.06077986436685-12.946228500659345,2.735110335233912-19.546518003377059,3.182357222714927-2.448199253856728,4.806833488208213-3.457682744892736,10.017634094798268-4.436643605558857,15.260549367227213-.467917577516346,2.505792854617539.438563300067472,3.054043693909989,2.641431662544164,2.533409806648706.506740850988535-.119738511490141,1.03002621034102-.169449960951169,1.545776863723404-.250888313441465,40.099576309571603-6.331299231223966,80.200743662120658-12.652531339355846,120.291383756606592-19.040066648303764,1.261386731980565-.200976800191711,2.957592124363146.401197468252576,3.739490339200529-1.317395909365587Z" fill="none" stroke="#093747" stroke-linecap="round" stroke-linejoin="round" stroke-width="39.224575996398926"/>
          <path d="M45.786507566929686,96.442896477654358c-.10564175928539-.903667793158093-.177645130166638-1.812857800756319-.324440575873268-2.709791413741186-.250885387605194-1.532854322145795.092850121518495-2.136849585685923,1.856132795090161-1.748172124816847,9.808863098113761,2.162135739636142,17.395994280437662-.510300936115527,21.771519593999983-10.140267230983227.580278543477107-1.277146598275067,1.666874468304741-2.31849464721563,2.473234045240133-3.500173347663804,2.920258327452757-4.279304346820936,2.812171348312404-5.923464363975654-.405401445014832-10.026334629133999-2.513338104762624-3.204850832225929-3.050093308253054-7.392674064849416-5.229615955448935-10.773887173718322-16.218803153037697,1.78266090615034-25.213195387350424,13.621750290081764-22.333160999841311,29.533877501638926.569882012898233,3.14827151999998.670099978921826,6.430368631747115,2.191732541848069,9.364748418418458Z" fill="none" stroke="#093747" stroke-linecap="round" stroke-linejoin="round" stroke-width="39.224575996398926"/>
          <path d="M45.872923141721913,101.821615994653257c.607163818223853-1.364961580877207.501932054823556-2.744475038034579.08505592912752-4.130288325493893-6.401945890393108,5.105911233751613-7.854435555368582,8.964300537420058-5.470201087618079,14.530515908019879,1.808013566758746-.423798078782056,1.844505423684495-1.700906111656877,1.818537104076313-3.258213424373025-.049029352254365-2.935819104781331.772370223479811-5.564075899421368,3.566608054414246-7.142014158152961Z" fill="none" stroke="#093747" stroke-linecap="round" stroke-linejoin="round" stroke-width="39.224575996398926"/>
          <path d="M107.693355901513314,70.586734942375188c.677721975008353,4.204166353916662,1.355443950016706,8.408332707833324,2.033171527289596,12.612534509367833.116690079549699-4.33220074107885-.120135656742605-8.607476961418797-2.033171527289596-12.612534509367833Z" fill="none" stroke="#093747" stroke-linecap="round" stroke-linejoin="round" stroke-width="39.224575996398926"/>
        </g>
        <g>
          <path d="M157.549444361313363,180.239931459516811c-1.030666450703393-5.208462133814464-4.303577811866489-9.218003234944263-7.427467960961621-13.19734752007389-12.687140746966179-16.161655654152128-29.529520162207518-24.643987789908351-50.30059230353163-26.48549491275844,7.498195795375068-4.506096634691858,12.562149035301445-10.462512541982505,13.746659670250665-19.129431260851561.446142138082905-3.264012549931067.136234506811888-6.500446801044745-.294203281603586-9.724202438008433-.218865284019557-1.639090233455136-.230119736166671-2.62087055214397,1.640125198899113-3.670045766722978,3.768002364931817-2.113804391483427,5.658044688913833-5.63539722515452,5.226398351804164-10.142026046103638-.440521938414349-4.599897823331048-2.682677204631545-8.138804355949105-7.13346349800122-9.311369386910883-3.332389478370715-.877935763235655-2.434767247040327-3.46584683868241-3.280365639682714-5.380697412856534-.201941013705436-4.28088641069553-.750535261337973-8.505896553831917-2.03317899697322-12.612581772855265-.257318004398257-1.315014350471756-.169160341987663-2.773402544442433-1.510902219732998-3.638429212491246-2.659397418674416.626853579171438-1.892958769331017,2.726288005034803-1.809418480779641,4.420615730692589.430653657104813,8.735767303212924.61312407510195,17.400911521088346-1.563728914637068,26.030402926033275-4.589799468062665,18.195053589997769-19.330635988287213,32.019665450090542-37.029747615843917,34.380050334133557-2.34165767963259.312277854151034-4.722838862316166-.123592418070984-7.015351997599282.410700577140233-1.304527014644918.304016781678001-3.354880142224829.000735803556381-3.019046684802561,2.448013022820305,3.865039895957125,5.996666204715439,9.820259239261759,8.602093915947989,17.06282222739992,10.216971107885911-18.266346845230146,7.818696285339684-31.502337231769161,20.153247487274712-39.039933316048518,38.199232622619093,2.852775361696331,1.664009801508655,5.558518105379335.220174569223673,8.287884561393184-.420316803061723,9.875753545154112-2.31771192191809,19.630644660119287-2.31024147131393,29.20492363309495,1.425007633941277,1.217111790198942.474838754767916,2.399406899268797,1.031164509360678,3.474081779655535,1.782143171980351,1.819273061308195,1.271380245610999,3.265362595766419,2.608957867092613,1.865568259446263,5.145858981748461-1.134016432578392,2.055170252493554-.054984984491057,2.532236094937616,1.852155947927713,2.141591048948612.382834920431378-.078428844737573.772954589760047-.122111974915242,1.159499084070376-.183202804817483,25.125847614497616-3.97078215376132,50.251954196583029-7.939619030688846,75.376005351756248-11.921768053476626.881318485277916-.139698398288601,1.847299891040166-.069716710899229,2.561276844499844-.783673766954962Z" fill="none" stroke="#093747" stroke-linecap="round" stroke-linejoin="round" stroke-width="39.224575996398926"/>
          <path d="M55.745159988117848,134.638088320703901c1.450595372074531-2.065491495573951,3.705557745461192-1.640362454782007,5.692173965489019-1.656948408937751,11.954970632822551-.099906930843645,21.952882882230369-4.719571296507638,30.059425970155644-13.285406366461757,11.320563286896686-11.961986301843353,15.040123025043613-26.468738927402228,14.205248972619302-42.638872590838218-.167970922738277-3.25321058008376-1.885544864268013-6.875338647241733.480442917977598-10.108567040453636-4.333949399980156-8.333992619611308-11.351261146454817-12.047821372907492-20.587009882266102-11.941988356931688-3.282986614041874-.086598838512145-2.309386397738308,2.143472525829566-1.842818037271172,3.732684556431195,1.136608121286372,3.871800767314198,2.492004261037437,7.667179993470199,2.983079461911984,11.714407824803857,1.195530996880734,9.852495022871153.180228972481018,19.357893799815429-5.28865664843488,27.829440995643381-5.923589689054097,9.176016482964769-14.431362591762081,14.098108617297839-25.588600245419912,13.709468771145112-4.447925517129988-.154953890867546-6.194724087240502-1.73387812821602-7.402717871704226-6.094472402895917-.438306579622804-1.582136831650132-.304838392217789-3.45523351742122-2.101810428660428-4.395050982913745-3.323651866367982.095280181214548-4.002891999527492,2.644377986842301-4.763584443128821,5.126173938493594-.560037639487746,1.827226849341969-.009972576041946,3.871454260131941-1.102591217158079,5.592660817821525,1.63327269239926,3.59047105245736,4.15620716644753,6.159236976056491,8.242561190682864,6.584512803110556,2.243478649269491.233470649029186,1.737583288010683,1.982187495219478,1.95850685402911,3.176103072899423.845541330384549,4.571057517790905,1.745819722096712,9.083009750351266,5.056349441178099,12.65585336908407Z" fill="none" stroke="#093747" stroke-linecap="round" stroke-linejoin="round" stroke-width="39.224575996398926"/>
          <path d="M45.872923141721913,101.821615994653257c.952806445079659.487447184188568,1.059152123791137,1.414583855967066,1.182123761537696,2.317801755260007,1.36803344850432,10.046294329024022,6.324480097964624,9.494111002486534,12.823550987042836,8.89129654547105,13.652401633636146-1.266339110505214,24.712210003699511-12.15325878391377,27.370574914027202-26.018574509738755,1.880568777708504-9.808614305864467,1.139113807916146-19.336613073752233-2.585657561567132-28.601427492616494-.598193870774594-1.487871290088151-1.077027253099004-2.728079818067272.931741266112112-3.404353209009059-6.720454017853626-.431768762171487-13.119106793767969,1.632657433581699-19.667273194437257,2.537903999776972.150231516598978,4.325718773476183,2.127618848769089,8.027652871933242,4.562621568002214,11.3327494474579,2.317080521951539,3.145047626703672,2.243188368092888,5.885504982139537.172521305462396,8.899683919580639-1.175781743017978,1.711472252032763-2.344215485526547,3.42312752228645-3.379041118388159,5.232148875134953-3.911871104694001,6.838349282188574-9.509416502864042,9.57064768206692-17.285388505380979,8.523834316873035-5.747206695958994-.7737043924717-5.865907370704008-.635360454687543-4.212188997203157,4.910216834810853.057143894698129.416161976261719.114289656815345.83233576839848.171480841027005,1.248490270867478-.261038805026146,1.371988582759514-1.062716447013372,2.732957436726792-.085065266234778,4.130229246131421Z" fill="none" stroke="#093747" stroke-linecap="round" stroke-linejoin="round" stroke-width="39.224575996398926"/>
          <path d="M157.549444361313363,180.239931459516811c-26.879738551691844,4.248166924642646-53.759477103385507,8.496333849287112-81.163136190001751,12.827302988818701,3.433742334068484-4.161933527910151,3.004847981830608-6.441432077639547-1.545158812454247-8.717481901527208-6.75006951744399-3.3766268253421-13.930304130225522-4.410046857339694-21.526626010682776-4.477786612771524-6.814892118380158-.06077986436685-12.946228500659345,2.735110335233912-19.546518003377059,3.182357222714927-2.448199253856728,4.806833488208213-3.457682744892736,10.017634094798268-4.436643605558857,15.260549367227213-.467917577516346,2.505792854617539.438563300067472,3.054043693909989,2.641431662544164,2.533409806648706.506740850988535-.119738511490141,1.03002621034102-.169449960951169,1.545776863723404-.250888313441465,40.099576309571603-6.331299231223966,80.200743662120658-12.652531339355846,120.291383756606592-19.040066648303764,1.261386731980565-.200976800191711,2.957592124363146.401197468252576,3.739490339200529-1.317395909365587Z" fill="none" stroke="#093747" stroke-linecap="round" stroke-linejoin="round" stroke-width="39.224575996398926"/>
          <path d="M45.786507566929686,96.442896477654358c-.10564175928539-.903667793158093-.177645130166638-1.812857800756319-.324440575873268-2.709791413741186-.250885387605194-1.532854322145795.092850121518495-2.136849585685923,1.856132795090161-1.748172124816847,9.808863098113761,2.162135739636142,17.395994280437662-.510300936115527,21.771519593999983-10.140267230983227.580278543477107-1.277146598275067,1.666874468304741-2.31849464721563,2.473234045240133-3.500173347663804,2.920258327452757-4.279304346820936,2.812171348312404-5.923464363975654-.405401445014832-10.026334629133999-2.513338104762624-3.204850832225929-3.050093308253054-7.392674064849416-5.229615955448935-10.773887173718322-16.218803153037697,1.78266090615034-25.213195387350424,13.621750290081764-22.333160999841311,29.533877501638926.569882012898233,3.14827151999998.670099978921826,6.430368631747115,2.191732541848069,9.364748418418458Z" fill="none" stroke="#093747" stroke-linecap="round" stroke-linejoin="round" stroke-width="39.224575996398926"/>
          <path d="M45.872923141721913,101.821615994653257c.607163818223853-1.364961580877207.501932054823556-2.744475038034579.08505592912752-4.130288325493893-6.401945890393108,5.105911233751613-7.854435555368582,8.964300537420058-5.470201087618079,14.530515908019879,1.808013566758746-.423798078782056,1.844505423684495-1.700906111656877,1.818537104076313-3.258213424373025-.049029352254365-2.935819104781331.772370223479811-5.564075899421368,3.566608054414246-7.142014158152961Z" fill="none" stroke="#093747" stroke-linecap="round" stroke-linejoin="round" stroke-width="39.224575996398926"/>
          <path d="M107.693355901513314,70.586734942375188c.677721975008353,4.204166353916662,1.355443950016706,8.408332707833324,2.033171527289596,12.612534509367833.116690079549699-4.33220074107885-.120135656742605-8.607476961418797-2.033171527289596-12.612534509367833Z" fill="none" stroke="#093747" stroke-linecap="round" stroke-linejoin="round" stroke-width="39.224575996398926"/>
        </g>
      </g>
    </g>
    <g>
      <g>
        <g>
          <path d="M234.644426674869464,150.135049313985292c.471754409718415-4.516286286507238-1.191281727883506-8.618510870630416-2.74015831039469-12.658463848460087-6.290435520806568-16.407764335852335-17.913812838497506-27.588402806615704-34.423008587305958-34.333405751149257,7.264204642606273-1.790652067682458,12.905075376300374-5.380594839452897,16.059539629667597-12.164226294820764,1.188029393068973-2.554743265382058,1.751270036898859-5.27768725873284,2.212816869183371-8.020678010430856.234658831906017-1.394652823526485.473146741948767-2.199786609962757,2.2661670385869-2.585327182518085,3.612422091483495-.776768976085805,6.0453653296845-3.177733469467057,6.829569530151275-6.969371680153927.80048123663255-3.870095232141466-.138970538112517-7.327684562775175-3.480262563123688-9.408735503284333-2.501686273534688-1.558134163800787-1.115282670215493-3.446478577390735-1.323210489320445-5.22459122347027.914964959560166-3.549214910681258,1.532554139317654-7.140222812218781,1.520439151939172-10.819724552795378.121477610221518-1.139524322346915.561442718301805-2.30905429145605-.316776268457943-3.354436101295505-2.331358670622649-.158662073628875-2.234685935787638,1.750318890157359-2.593865485359856,3.155970898780652-1.851948152073419,7.24736919206407-3.888890619834456,14.374414375251945-7.844838277853341,20.877111388777848-8.340980172986747,13.710773469603737-23.874637558917129,21.289177572427434-38.933537395764688,18.752889013028835-1.992345469072461-.33556829913141-3.82824506893121-1.292481808872253-5.836440714893797-1.43422478663706-1.142735476867529-.080670389266743-2.741737714682131-.845772392623985-3.084702607436157,1.238826241567949,1.645599101745574,5.875453052945886,5.854804191727453,9.506955867633224,11.365902451035254,12.653770110489859-16.899465142896588,1.781049596260345-30.827472863708863,8.52144559545377-41.539736065060424,21.366728711704127,1.91144180176525,2.079503059305353,4.486782330202004,1.582233416114832,6.878759091702705,1.747402795657763,8.655016531035471.597472882407601,16.624666161008463,3.064554673690509,23.506273543796851,8.532349919352782.874810490413438.695084910050355,1.700611719803419,1.4479760377817,2.38936019596531,2.332783698517233,1.165934076029771,1.497919384417401,2.010208436365247,2.955786917495061.226307027805888,4.675758187358952-1.445180428931963,1.39335965304781-.683768743276232,2.055429407389965.973267469367784,2.217336874708053.332632444958108.032491365596798.662452169539392.095214155751819.993741958659484.142809714128816,21.534177781787548,3.093925729219336,43.068076430506153,6.189506438908211,64.603653824722642,9.273690139207247.755442063765258.108181013409194,1.52717087946894.40906797045136,2.290738982386756.005757241735409Z" fill="none" stroke="#093747" stroke-linecap="round" stroke-linejoin="round" stroke-width="26.838637804324915"/>
          <path d="M162.956158194487216,87.186661921125051c1.706487314130754-1.321927039642105,3.44195282097553-.405633736172604,5.069566781535286.081998713387293,9.79460721997475,2.934373809233875,19.130189467907257,1.681547918804426,27.915721647512328-3.273179998481282,12.268761474092571-6.919168705546326,18.968106724442805-17.835469406969423,22.365284667158448-31.260056031953354.683461309075028-2.70084534560192.193683882429468-6.094099843092408,2.942812840000443-8.139345565321491-1.439120271220418-7.90377432823152-6.236620647792734-12.708990085224286-13.810620137090154-14.952512235428003-2.660954621716883-.899003409103898-2.427950173007957,1.168994880501486-2.44760684292487,2.585378934354594-.047965914754059,3.450716023655332.102137818586016,6.894177774614946-.517603805657018,10.325393954204628-1.508632722495349,8.352904740051599-4.736355400016691,15.864416287195127-11.342650827899888,21.407525503584111-7.155596467061514,6.004076411194546-15.349758584443407,7.87997558958341-24.369220483209574,4.747622654249426-3.595678554846927-1.248754372414624-4.624800073424012-2.979709614130115-4.511855847630613-6.847868809027204.04096678503538-1.403472399179009.622582114897341-2.900464229252975-.608775040201181-4.121809908407158-2.740070271493096-.760633992938892-3.938223803336768,1.151086593787113-5.185959802130128,2.987260329649871-.918628665865981,1.351892249291268-.984845115731332,3.161171941779685-2.311943149546096,4.292065925275892.42887432648331,3.346117280563703,1.84252256479067,6.081759246237198,5.074533745482768,7.460198452301483,1.774433036176561.756776133635867.919855146157715,2.05817040492002.799187569470632,3.089553192432504-.462230275052207,3.948706253066121-.864819175796583,7.862921792579073.939128685129617,11.617774889178691Z" fill="none" stroke="#093747" stroke-linecap="round" stroke-linejoin="round" stroke-width="26.838637804324915"/>
          <path d="M163.167714754873487,57.879006987137473c.65564370004995.638708999929804.508648326825096,1.423178652354181.381273670092924,2.192296702249223-1.416558546635315,8.554793450761281,2.773072523496012,9.3539774816727,8.236083677516945,10.500961917434324,11.475988597489959,2.409415068930684,23.260446247131767-3.697010723901258,28.930778222693334-14.356859551360685,4.011299855563266-7.541003557598742,5.809131580288522-15.514180459969793,5.102650409810849-24.024922580643761-.113471879746612-1.366776752252918-.191885054596241-2.501055202161297,1.620258230007494-2.546919708987843-5.382915706263702-2.048279417052981-11.13260423065276-1.975525506151826-16.712033397390769-2.887753349308696-.96853146680769,3.572805828091077-.286572444629201,7.096822554993196.869456942342367,10.411998104258601,1.100042698851212,3.154636647575899.348292992248389,5.375451069301562-2.104242708262973,7.316197139256474-1.392601749600544,1.10195877199294-2.779245007848658,2.205920866885208-4.08126959418496,3.423155733968088-4.921903771323741,4.601292845220087-10.185432409742134,5.42192522750338-16.275735524129232,2.604754122978193-4.501330249632701-2.082171365202157-4.63323205571578-1.999064973166242-4.680886693389766,2.949890572625009-.058292866202464.354496963158454-.116587187304503.709004053167519-.174839523804621,1.063506839127513-.559443683537211,1.055310960759016-1.557908333532396,1.965223689321647-1.111493711301591,3.353694058403562Z" fill="none" stroke="#093747" stroke-linecap="round" stroke-linejoin="round" stroke-width="26.838637804324915"/>
          <path d="M234.644426674869464,150.135049313985292c-23.037407200206871-3.309725488796175-46.074814400411924-6.619450977592351-69.561250175816895-9.993687255628174,3.855975146451783-2.534793509512383,4.080564799794047-4.505763741724877.936580065857925-7.513595527922007-4.664184241584735-4.462239737427808-10.271039587466475-7.118172602768027-16.461537627496909-9.089938711915238-5.553682525178374-1.768938449853522-11.269459275808003-1.031005417817141-16.775937796451217-2.330652644301153-3.213302012632084,3.310429133796788-5.352822873445803,7.313934607254851-7.475503081040188,11.351383940173037-1.01453923337067,1.929645242027618-.412091642235282,2.606354898030986,1.519401852726332,2.736644166971018.444307962719904.029992950043379.884469300186538.121384717807814,1.326477507440359.184948923930278,34.365973501748158,4.94254298692249,68.730707429910581,9.893714049359914,103.103565719167818,14.788047411338994,1.081486892296198.153989454607654,2.315680307215189,1.073997201159727,3.388203535612774-.133150302646754Z" fill="none" stroke="#093747" stroke-linecap="round" stroke-linejoin="round" stroke-width="26.838637804324915"/>
          <path d="M164.454047989979699,53.461806089606398c.141649844137646-.765113690587896.312181569811401-1.526253704778355.418502399904355-2.296246643087215.181691198690714-1.315916683908654.614962860708147-1.722773480234537,1.957831972861641-.960309416410382,7.47017277424311,4.241454445314957,14.344455728286448,3.971675445598521,20.349522882651399-2.793908943802307.796394208616221-.897269442199104,1.947054959259731-1.474113812915675,2.904114047077201-2.236332454138392,3.465975050542511-2.760249421213302,3.792439077016752-4.131097887511714,2.19816990102845-8.29562861913837-1.245333888295136-3.253018956691449-.627451603018926-6.810651565325315-1.55550415559992-10.123575419307599-13.703467463451489-2.634940741460014-24.040316159306713,4.770648217878261-25.701132979093927,18.500352077298885-.328552103633228,2.716485567247219-1.074667531759587,5.423843697488337-.571504068829199,8.205649418585381Z" fill="none" stroke="#093747" stroke-linecap="round" stroke-linejoin="round" stroke-width="26.838637804324915"/>
          <path d="M163.167714754873487,57.879006987137473c.840518488671478-.962247727724389,1.102550359361885-2.116111122430084,1.111500985794919-3.353744692651162-6.519689542796186,2.557373953686692-8.680039514322743,5.343949277717911-8.135935189337033,10.494065502862213,1.584394874844293.10980737672071,1.936405945483784-.924617787874013,2.308064653393558-2.203774667021207.700586427559756-2.411471587260166,2.034880620652075-4.352015403688711,4.716369550148556-4.936546143189844Z" fill="none" stroke="#093747" stroke-linecap="round" stroke-linejoin="round" stroke-width="26.838637804324915"/>
          <path d="M221.566318944252998,47.950525266902332c-.506809655882535,3.606551221617337-1.013619311765979,7.213102443234675-1.52043333234451,10.819684045402028,1.188290621829765-3.510763444248369,2.073333021674443-7.064194565740763,1.52043333234451-10.819684045402028Z" fill="none" stroke="#093747" stroke-linecap="round" stroke-linejoin="round" stroke-width="26.838637804324915"/>
        </g>
        <g>
          <path d="M234.644426674869464,150.135049313985292c.471754409718415-4.516286286507238-1.191281727883506-8.618510870630416-2.74015831039469-12.658463848460087-6.290435520806568-16.407764335852335-17.913812838497506-27.588402806615704-34.423008587305958-34.333405751149257,7.264204642606273-1.790652067682458,12.905075376300374-5.380594839452897,16.059539629667597-12.164226294820764,1.188029393068973-2.554743265382058,1.751270036898859-5.27768725873284,2.212816869183371-8.020678010430856.234658831906017-1.394652823526485.473146741948767-2.199786609962757,2.2661670385869-2.585327182518085,3.612422091483495-.776768976085805,6.0453653296845-3.177733469467057,6.829569530151275-6.969371680153927.80048123663255-3.870095232141466-.138970538112517-7.327684562775175-3.480262563123688-9.408735503284333-2.501686273534688-1.558134163800787-1.115282670215493-3.446478577390735-1.323210489320445-5.22459122347027.914964959560166-3.549214910681258,1.532554139317654-7.140222812218781,1.520439151939172-10.819724552795378.121477610221518-1.139524322346915.561442718301805-2.30905429145605-.316776268457943-3.354436101295505-2.331358670622649-.158662073628875-2.234685935787638,1.750318890157359-2.593865485359856,3.155970898780652-1.851948152073419,7.24736919206407-3.888890619834456,14.374414375251945-7.844838277853341,20.877111388777848-8.340980172986747,13.710773469603737-23.874637558917129,21.289177572427434-38.933537395764688,18.752889013028835-1.992345469072461-.33556829913141-3.82824506893121-1.292481808872253-5.836440714893797-1.43422478663706-1.142735476867529-.080670389266743-2.741737714682131-.845772392623985-3.084702607436157,1.238826241567949,1.645599101745574,5.875453052945886,5.854804191727453,9.506955867633224,11.365902451035254,12.653770110489859-16.899465142896588,1.781049596260345-30.827472863708863,8.52144559545377-41.539736065060424,21.366728711704127,1.91144180176525,2.079503059305353,4.486782330202004,1.582233416114832,6.878759091702705,1.747402795657763,8.655016531035471.597472882407601,16.624666161008463,3.064554673690509,23.506273543796851,8.532349919352782.874810490413438.695084910050355,1.700611719803419,1.4479760377817,2.38936019596531,2.332783698517233,1.165934076029771,1.497919384417401,2.010208436365247,2.955786917495061.226307027805888,4.675758187358952-1.445180428931963,1.39335965304781-.683768743276232,2.055429407389965.973267469367784,2.217336874708053.332632444958108.032491365596798.662452169539392.095214155751819.993741958659484.142809714128816,21.534177781787548,3.093925729219336,43.068076430506153,6.189506438908211,64.603653824722642,9.273690139207247.755442063765258.108181013409194,1.52717087946894.40906797045136,2.290738982386756.005757241735409Z" fill="#224c5c" stroke-width="0"/>
          <path d="M162.956158194487216,87.186661921125051c1.706487314130754-1.321927039642105,3.44195282097553-.405633736172604,5.069566781535286.081998713387293,9.79460721997475,2.934373809233875,19.130189467907257,1.681547918804426,27.915721647512328-3.273179998481282,12.268761474092571-6.919168705546326,18.968106724442805-17.835469406969423,22.365284667158448-31.260056031953354.683461309075028-2.70084534560192.193683882429468-6.094099843092408,2.942812840000443-8.139345565321491-1.439120271220418-7.90377432823152-6.236620647792734-12.708990085224286-13.810620137090154-14.952512235428003-2.660954621716883-.899003409103898-2.427950173007957,1.168994880501486-2.44760684292487,2.585378934354594-.047965914754059,3.450716023655332.102137818586016,6.894177774614946-.517603805657018,10.325393954204628-1.508632722495349,8.352904740051599-4.736355400016691,15.864416287195127-11.342650827899888,21.407525503584111-7.155596467061514,6.004076411194546-15.349758584443407,7.87997558958341-24.369220483209574,4.747622654249426-3.595678554846927-1.248754372414624-4.624800073424012-2.979709614130115-4.511855847630613-6.847868809027204.04096678503538-1.403472399179009.622582114897341-2.900464229252975-.608775040201181-4.121809908407158-2.740070271493096-.760633992938892-3.938223803336768,1.151086593787113-5.185959802130128,2.987260329649871-.918628665865981,1.351892249291268-.984845115731332,3.161171941779685-2.311943149546096,4.292065925275892.42887432648331,3.346117280563703,1.84252256479067,6.081759246237198,5.074533745482768,7.460198452301483,1.774433036176561.756776133635867.919855146157715,2.05817040492002.799187569470632,3.089553192432504-.462230275052207,3.948706253066121-.864819175796583,7.862921792579073.939128685129617,11.617774889178691Z" fill="#336175" stroke-width="0"/>
          <path d="M163.167714754873487,57.879006987137473c.65564370004995.638708999929804.508648326825096,1.423178652354181.381273670092924,2.192296702249223-1.416558546635315,8.554793450761281,2.773072523496012,9.3539774816727,8.236083677516945,10.500961917434324,11.475988597489959,2.409415068930684,23.260446247131767-3.697010723901258,28.930778222693334-14.356859551360685,4.011299855563266-7.541003557598742,5.809131580288522-15.514180459969793,5.102650409810849-24.024922580643761-.113471879746612-1.366776752252918-.191885054596241-2.501055202161297,1.620258230007494-2.546919708987843-5.382915706263702-2.048279417052981-11.13260423065276-1.975525506151826-16.712033397390769-2.887753349308696-.96853146680769,3.572805828091077-.286572444629201,7.096822554993196.869456942342367,10.411998104258601,1.100042698851212,3.154636647575899.348292992248389,5.375451069301562-2.104242708262973,7.316197139256474-1.392601749600544,1.10195877199294-2.779245007848658,2.205920866885208-4.08126959418496,3.423155733968088-4.921903771323741,4.601292845220087-10.185432409742134,5.42192522750338-16.275735524129232,2.604754122978193-4.501330249632701-2.082171365202157-4.63323205571578-1.999064973166242-4.680886693389766,2.949890572625009-.058292866202464.354496963158454-.116587187304503.709004053167519-.174839523804621,1.063506839127513-.559443683537211,1.055310960759016-1.557908333532396,1.965223689321647-1.111493711301591,3.353694058403562Z" fill="#3f7088" stroke-width="0"/>
          <path d="M234.644426674869464,150.135049313985292c-23.037407200206871-3.309725488796175-46.074814400411924-6.619450977592351-69.561250175816895-9.993687255628174,3.855975146451783-2.534793509512383,4.080564799794047-4.505763741724877.936580065857925-7.513595527922007-4.664184241584735-4.462239737427808-10.271039587466475-7.118172602768027-16.461537627496909-9.089938711915238-5.553682525178374-1.768938449853522-11.269459275808003-1.031005417817141-16.775937796451217-2.330652644301153-3.213302012632084,3.310429133796788-5.352822873445803,7.313934607254851-7.475503081040188,11.351383940173037-1.01453923337067,1.929645242027618-.412091642235282,2.606354898030986,1.519401852726332,2.736644166971018.444307962719904.029992950043379.884469300186538.121384717807814,1.326477507440359.184948923930278,34.365973501748158,4.94254298692249,68.730707429910581,9.893714049359914,103.103565719167818,14.788047411338994,1.081486892296198.153989454607654,2.315680307215189,1.073997201159727,3.388203535612774-.133150302646754Z" fill="#224c5c" stroke-width="0"/>
          <path d="M164.454047989979699,53.461806089606398c.141649844137646-.765113690587896.312181569811401-1.526253704778355.418502399904355-2.296246643087215.181691198690714-1.315916683908654.614962860708147-1.722773480234537,1.957831972861641-.960309416410382,7.47017277424311,4.241454445314957,14.344455728286448,3.971675445598521,20.349522882651399-2.793908943802307.796394208616221-.897269442199104,1.947054959259731-1.474113812915675,2.904114047077201-2.236332454138392,3.465975050542511-2.760249421213302,3.792439077016752-4.131097887511714,2.19816990102845-8.29562861913837-1.245333888295136-3.253018956691449-.627451603018926-6.810651565325315-1.55550415559992-10.123575419307599-13.703467463451489-2.634940741460014-24.040316159306713,4.770648217878261-25.701132979093927,18.500352077298885-.328552103633228,2.716485567247219-1.074667531759587,5.423843697488337-.571504068829199,8.205649418585381Z" fill="#4e829f" stroke-width="0"/>
          <path d="M163.167714754873487,57.879006987137473c.840518488671478-.962247727724389,1.102550359361885-2.116111122430084,1.111500985794919-3.353744692651162-6.519689542796186,2.557373953686692-8.680039514322743,5.343949277717911-8.135935189337033,10.494065502862213,1.584394874844293.10980737672071,1.936405945483784-.924617787874013,2.308064653393558-2.203774667021207.700586427559756-2.411471587260166,2.034880620652075-4.352015403688711,4.716369550148556-4.936546143189844Z" fill="#4e829f" stroke-width="0"/>
          <path d="M221.566318944252998,47.950525266902332c-.506809655882535,3.606551221617337-1.013619311765979,7.213102443234675-1.52043333234451,10.819684045402028,1.188290621829765-3.510763444248369,2.073333021674443-7.064194565740763,1.52043333234451-10.819684045402028Z" fill="#336175" stroke-width="0"/>
        </g>
      </g>
      <g>
        <g>
          <path d="M157.549444361313363,180.239931459516811c-1.030666450703393-5.208462133814464-4.303577811866489-9.218003234944263-7.427467960961621-13.19734752007389-12.687140746966179-16.161655654152128-29.529520162207518-24.643987789908351-50.30059230353163-26.48549491275844,7.498195795375068-4.506096634691858,12.562149035301445-10.462512541982505,13.746659670250665-19.129431260851561.446142138082905-3.264012549931067.136234506811888-6.500446801044745-.294203281603586-9.724202438008433-.218865284019557-1.639090233455136-.230119736166671-2.62087055214397,1.640125198899113-3.670045766722978,3.768002364931817-2.113804391483427,5.658044688913833-5.63539722515452,5.226398351804164-10.142026046103638-.440521938414349-4.599897823331048-2.682677204631545-8.138804355949105-7.13346349800122-9.311369386910883-3.332389478370715-.877935763235655-2.434767247040327-3.46584683868241-3.280365639682714-5.380697412856534-.201941013705436-4.28088641069553-.750535261337973-8.505896553831917-2.03317899697322-12.612581772855265-.257318004398257-1.315014350471756-.169160341987663-2.773402544442433-1.510902219732998-3.638429212491246-2.659397418674416.626853579171438-1.892958769331017,2.726288005034803-1.809418480779641,4.420615730692589.430653657104813,8.735767303212924.61312407510195,17.400911521088346-1.563728914637068,26.030402926033275-4.589799468062665,18.195053589997769-19.330635988287213,32.019665450090542-37.029747615843917,34.380050334133557-2.34165767963259.312277854151034-4.722838862316166-.123592418070984-7.015351997599282.410700577140233-1.304527014644918.304016781678001-3.354880142224829.000735803556381-3.019046684802561,2.448013022820305,3.865039895957125,5.996666204715439,9.820259239261759,8.602093915947989,17.06282222739992,10.216971107885911-18.266346845230146,7.818696285339684-31.502337231769161,20.153247487274712-39.039933316048518,38.199232622619093,2.852775361696331,1.664009801508655,5.558518105379335.220174569223673,8.287884561393184-.420316803061723,9.875753545154112-2.31771192191809,19.630644660119287-2.31024147131393,29.20492363309495,1.425007633941277,1.217111790198942.474838754767916,2.399406899268797,1.031164509360678,3.474081779655535,1.782143171980351,1.819273061308195,1.271380245610999,3.265362595766419,2.608957867092613,1.865568259446263,5.145858981748461-1.134016432578392,2.055170252493554-.054984984491057,2.532236094937616,1.852155947927713,2.141591048948612.382834920431378-.078428844737573.772954589760047-.122111974915242,1.159499084070376-.183202804817483,25.125847614497616-3.97078215376132,50.251954196583029-7.939619030688846,75.376005351756248-11.921768053476626.881318485277916-.139698398288601,1.847299891040166-.069716710899229,2.561276844499844-.783673766954962Z" fill="none" stroke="#093747" stroke-linecap="round" stroke-linejoin="round" stroke-width="31.381431177093937"/>
          <path d="M55.745159988117848,134.638088320703901c1.450595372074531-2.065491495573951,3.705557745461192-1.640362454782007,5.692173965489019-1.656948408937751,11.954970632822551-.099906930843645,21.952882882230369-4.719571296507638,30.059425970155644-13.285406366461757,11.320563286896686-11.961986301843353,15.040123025043613-26.468738927402228,14.205248972619302-42.638872590838218-.167970922738277-3.25321058008376-1.885544864268013-6.875338647241733.480442917977598-10.108567040453636-4.333949399980156-8.333992619611308-11.351261146454817-12.047821372907492-20.587009882266102-11.941988356931688-3.282986614041874-.086598838512145-2.309386397738308,2.143472525829566-1.842818037271172,3.732684556431195,1.136608121286372,3.871800767314198,2.492004261037437,7.667179993470199,2.983079461911984,11.714407824803857,1.195530996880734,9.852495022871153.180228972481018,19.357893799815429-5.28865664843488,27.829440995643381-5.923589689054097,9.176016482964769-14.431362591762081,14.098108617297839-25.588600245419912,13.709468771145112-4.447925517129988-.154953890867546-6.194724087240502-1.73387812821602-7.402717871704226-6.094472402895917-.438306579622804-1.582136831650132-.304838392217789-3.45523351742122-2.101810428660428-4.395050982913745-3.323651866367982.095280181214548-4.002891999527492,2.644377986842301-4.763584443128821,5.126173938493594-.560037639487746,1.827226849341969-.009972576041946,3.871454260131941-1.102591217158079,5.592660817821525,1.63327269239926,3.59047105245736,4.15620716644753,6.159236976056491,8.242561190682864,6.584512803110556,2.243478649269491.233470649029186,1.737583288010683,1.982187495219478,1.95850685402911,3.176103072899423.845541330384549,4.571057517790905,1.745819722096712,9.083009750351266,5.056349441178099,12.65585336908407Z" fill="none" stroke="#093747" stroke-linecap="round" stroke-linejoin="round" stroke-width="31.381431177093937"/>
          <path d="M45.872923141721913,101.821615994653257c.952806445079659.487447184188568,1.059152123791137,1.414583855967066,1.182123761537696,2.317801755260007,1.36803344850432,10.046294329024022,6.324480097964624,9.494111002486534,12.823550987042836,8.89129654547105,13.652401633636146-1.266339110505214,24.712210003699511-12.15325878391377,27.370574914027202-26.018574509738755,1.880568777708504-9.808614305864467,1.139113807916146-19.336613073752233-2.585657561567132-28.601427492616494-.598193870774594-1.487871290088151-1.077027253099004-2.728079818067272.931741266112112-3.404353209009059-6.720454017853626-.431768762171487-13.119106793767969,1.632657433581699-19.667273194437257,2.537903999776972.150231516598978,4.325718773476183,2.127618848769089,8.027652871933242,4.562621568002214,11.3327494474579,2.317080521951539,3.145047626703672,2.243188368092888,5.885504982139537.172521305462396,8.899683919580639-1.175781743017978,1.711472252032763-2.344215485526547,3.42312752228645-3.379041118388159,5.232148875134953-3.911871104694001,6.838349282188574-9.509416502864042,9.57064768206692-17.285388505380979,8.523834316873035-5.747206695958994-.7737043924717-5.865907370704008-.635360454687543-4.212188997203157,4.910216834810853.057143894698129.416161976261719.114289656815345.83233576839848.171480841027005,1.248490270867478-.261038805026146,1.371988582759514-1.062716447013372,2.732957436726792-.085065266234778,4.130229246131421Z" fill="none" stroke="#093747" stroke-linecap="round" stroke-linejoin="round" stroke-width="31.381431177093937"/>
          <path d="M157.549444361313363,180.239931459516811c-26.879738551691844,4.248166924642646-53.759477103385507,8.496333849287112-81.163136190001751,12.827302988818701,3.433742334068484-4.161933527910151,3.004847981830608-6.441432077639547-1.545158812454247-8.717481901527208-6.75006951744399-3.3766268253421-13.930304130225522-4.410046857339694-21.526626010682776-4.477786612771524-6.814892118380158-.06077986436685-12.946228500659345,2.735110335233912-19.546518003377059,3.182357222714927-2.448199253856728,4.806833488208213-3.457682744892736,10.017634094798268-4.436643605558857,15.260549367227213-.467917577516346,2.505792854617539.438563300067472,3.054043693909989,2.641431662544164,2.533409806648706.506740850988535-.119738511490141,1.03002621034102-.169449960951169,1.545776863723404-.250888313441465,40.099576309571603-6.331299231223966,80.200743662120658-12.652531339355846,120.291383756606592-19.040066648303764,1.261386731980565-.200976800191711,2.957592124363146.401197468252576,3.739490339200529-1.317395909365587Z" fill="none" stroke="#093747" stroke-linecap="round" stroke-linejoin="round" stroke-width="31.381431177093937"/>
          <path d="M45.786507566929686,96.442896477654358c-.10564175928539-.903667793158093-.177645130166638-1.812857800756319-.324440575873268-2.709791413741186-.250885387605194-1.532854322145795.092850121518495-2.136849585685923,1.856132795090161-1.748172124816847,9.808863098113761,2.162135739636142,17.395994280437662-.510300936115527,21.771519593999983-10.140267230983227.580278543477107-1.277146598275067,1.666874468304741-2.31849464721563,2.473234045240133-3.500173347663804,2.920258327452757-4.279304346820936,2.812171348312404-5.923464363975654-.405401445014832-10.026334629133999-2.513338104762624-3.204850832225929-3.050093308253054-7.392674064849416-5.229615955448935-10.773887173718322-16.218803153037697,1.78266090615034-25.213195387350424,13.621750290081764-22.333160999841311,29.533877501638926.569882012898233,3.14827151999998.670099978921826,6.430368631747115,2.191732541848069,9.364748418418458Z" fill="none" stroke="#093747" stroke-linecap="round" stroke-linejoin="round" stroke-width="31.381431177093937"/>
          <path d="M45.872923141721913,101.821615994653257c.607163818223853-1.364961580877207.501932054823556-2.744475038034579.08505592912752-4.130288325493893-6.401945890393108,5.105911233751613-7.854435555368582,8.964300537420058-5.470201087618079,14.530515908019879,1.808013566758746-.423798078782056,1.844505423684495-1.700906111656877,1.818537104076313-3.258213424373025-.049029352254365-2.935819104781331.772370223479811-5.564075899421368,3.566608054414246-7.142014158152961Z" fill="none" stroke="#093747" stroke-linecap="round" stroke-linejoin="round" stroke-width="31.381431177093937"/>
          <path d="M107.693355901513314,70.586734942375188c.677721975008353,4.204166353916662,1.355443950016706,8.408332707833324,2.033171527289596,12.612534509367833.116690079549699-4.33220074107885-.120135656742605-8.607476961418797-2.033171527289596-12.612534509367833Z" fill="none" stroke="#093747" stroke-linecap="round" stroke-linejoin="round" stroke-width="31.381431177093937"/>
        </g>
        <g>
          <path d="M157.549444361313363,180.239931459516811c-1.030666450703393-5.208462133814464-4.303577811866489-9.218003234944263-7.427467960961621-13.19734752007389-12.687140746966179-16.161655654152128-29.529520162207518-24.643987789908351-50.30059230353163-26.48549491275844,7.498195795375068-4.506096634691858,12.562149035301445-10.462512541982505,13.746659670250665-19.129431260851561.446142138082905-3.264012549931067.136234506811888-6.500446801044745-.294203281603586-9.724202438008433-.218865284019557-1.639090233455136-.230119736166671-2.62087055214397,1.640125198899113-3.670045766722978,3.768002364931817-2.113804391483427,5.658044688913833-5.63539722515452,5.226398351804164-10.142026046103638-.440521938414349-4.599897823331048-2.682677204631545-8.138804355949105-7.13346349800122-9.311369386910883-3.332389478370715-.877935763235655-2.434767247040327-3.46584683868241-3.280365639682714-5.380697412856534-.201941013705436-4.28088641069553-.750535261337973-8.505896553831917-2.03317899697322-12.612581772855265-.257318004398257-1.315014350471756-.169160341987663-2.773402544442433-1.510902219732998-3.638429212491246-2.659397418674416.626853579171438-1.892958769331017,2.726288005034803-1.809418480779641,4.420615730692589.430653657104813,8.735767303212924.61312407510195,17.400911521088346-1.563728914637068,26.030402926033275-4.589799468062665,18.195053589997769-19.330635988287213,32.019665450090542-37.029747615843917,34.380050334133557-2.34165767963259.312277854151034-4.722838862316166-.123592418070984-7.015351997599282.410700577140233-1.304527014644918.304016781678001-3.354880142224829.000735803556381-3.019046684802561,2.448013022820305,3.865039895957125,5.996666204715439,9.820259239261759,8.602093915947989,17.06282222739992,10.216971107885911-18.266346845230146,7.818696285339684-31.502337231769161,20.153247487274712-39.039933316048518,38.199232622619093,2.852775361696331,1.664009801508655,5.558518105379335.220174569223673,8.287884561393184-.420316803061723,9.875753545154112-2.31771192191809,19.630644660119287-2.31024147131393,29.20492363309495,1.425007633941277,1.217111790198942.474838754767916,2.399406899268797,1.031164509360678,3.474081779655535,1.782143171980351,1.819273061308195,1.271380245610999,3.265362595766419,2.608957867092613,1.865568259446263,5.145858981748461-1.134016432578392,2.055170252493554-.054984984491057,2.532236094937616,1.852155947927713,2.141591048948612.382834920431378-.078428844737573.772954589760047-.122111974915242,1.159499084070376-.183202804817483,25.125847614497616-3.97078215376132,50.251954196583029-7.939619030688846,75.376005351756248-11.921768053476626.881318485277916-.139698398288601,1.847299891040166-.069716710899229,2.561276844499844-.783673766954962Z" fill="#224c5c" stroke-width="0"/>
          <path d="M55.745159988117848,134.638088320703901c1.450595372074531-2.065491495573951,3.705557745461192-1.640362454782007,5.692173965489019-1.656948408937751,11.954970632822551-.099906930843645,21.952882882230369-4.719571296507638,30.059425970155644-13.285406366461757,11.320563286896686-11.961986301843353,15.040123025043613-26.468738927402228,14.205248972619302-42.638872590838218-.167970922738277-3.25321058008376-1.885544864268013-6.875338647241733.480442917977598-10.108567040453636-4.333949399980156-8.333992619611308-11.351261146454817-12.047821372907492-20.587009882266102-11.941988356931688-3.282986614041874-.086598838512145-2.309386397738308,2.143472525829566-1.842818037271172,3.732684556431195,1.136608121286372,3.871800767314198,2.492004261037437,7.667179993470199,2.983079461911984,11.714407824803857,1.195530996880734,9.852495022871153.180228972481018,19.357893799815429-5.28865664843488,27.829440995643381-5.923589689054097,9.176016482964769-14.431362591762081,14.098108617297839-25.588600245419912,13.709468771145112-4.447925517129988-.154953890867546-6.194724087240502-1.73387812821602-7.402717871704226-6.094472402895917-.438306579622804-1.582136831650132-.304838392217789-3.45523351742122-2.101810428660428-4.395050982913745-3.323651866367982.095280181214548-4.002891999527492,2.644377986842301-4.763584443128821,5.126173938493594-.560037639487746,1.827226849341969-.009972576041946,3.871454260131941-1.102591217158079,5.592660817821525,1.63327269239926,3.59047105245736,4.15620716644753,6.159236976056491,8.242561190682864,6.584512803110556,2.243478649269491.233470649029186,1.737583288010683,1.982187495219478,1.95850685402911,3.176103072899423.845541330384549,4.571057517790905,1.745819722096712,9.083009750351266,5.056349441178099,12.65585336908407Z" fill="#336175" stroke-width="0"/>
          <path d="M45.872923141721913,101.821615994653257c.952806445079659.487447184188568,1.059152123791137,1.414583855967066,1.182123761537696,2.317801755260007,1.36803344850432,10.046294329024022,6.324480097964624,9.494111002486534,12.823550987042836,8.89129654547105,13.652401633636146-1.266339110505214,24.712210003699511-12.15325878391377,27.370574914027202-26.018574509738755,1.880568777708504-9.808614305864467,1.139113807916146-19.336613073752233-2.585657561567132-28.601427492616494-.598193870774594-1.487871290088151-1.077027253099004-2.728079818067272.931741266112112-3.404353209009059-6.720454017853626-.431768762171487-13.119106793767969,1.632657433581699-19.667273194437257,2.537903999776972.150231516598978,4.325718773476183,2.127618848769089,8.027652871933242,4.562621568002214,11.3327494474579,2.317080521951539,3.145047626703672,2.243188368092888,5.885504982139537.172521305462396,8.899683919580639-1.175781743017978,1.711472252032763-2.344215485526547,3.42312752228645-3.379041118388159,5.232148875134953-3.911871104694001,6.838349282188574-9.509416502864042,9.57064768206692-17.285388505380979,8.523834316873035-5.747206695958994-.7737043924717-5.865907370704008-.635360454687543-4.212188997203157,4.910216834810853.057143894698129.416161976261719.114289656815345.83233576839848.171480841027005,1.248490270867478-.261038805026146,1.371988582759514-1.062716447013372,2.732957436726792-.085065266234778,4.130229246131421Z" fill="#3f7088" stroke-width="0"/>
          <path d="M157.549444361313363,180.239931459516811c-26.879738551691844,4.248166924642646-53.759477103385507,8.496333849287112-81.163136190001751,12.827302988818701,3.433742334068484-4.161933527910151,3.004847981830608-6.441432077639547-1.545158812454247-8.717481901527208-6.75006951744399-3.3766268253421-13.930304130225522-4.410046857339694-21.526626010682776-4.477786612771524-6.814892118380158-.06077986436685-12.946228500659345,2.735110335233912-19.546518003377059,3.182357222714927-2.448199253856728,4.806833488208213-3.457682744892736,10.017634094798268-4.436643605558857,15.260549367227213-.467917577516346,2.505792854617539.438563300067472,3.054043693909989,2.641431662544164,2.533409806648706.506740850988535-.119738511490141,1.03002621034102-.169449960951169,1.545776863723404-.250888313441465,40.099576309571603-6.331299231223966,80.200743662120658-12.652531339355846,120.291383756606592-19.040066648303764,1.261386731980565-.200976800191711,2.957592124363146.401197468252576,3.739490339200529-1.317395909365587Z" fill="#224c5c" stroke-width="0"/>
          <path d="M45.786507566929686,96.442896477654358c-.10564175928539-.903667793158093-.177645130166638-1.812857800756319-.324440575873268-2.709791413741186-.250885387605194-1.532854322145795.092850121518495-2.136849585685923,1.856132795090161-1.748172124816847,9.808863098113761,2.162135739636142,17.395994280437662-.510300936115527,21.771519593999983-10.140267230983227.580278543477107-1.277146598275067,1.666874468304741-2.31849464721563,2.473234045240133-3.500173347663804,2.920258327452757-4.279304346820936,2.812171348312404-5.923464363975654-.405401445014832-10.026334629133999-2.513338104762624-3.204850832225929-3.050093308253054-7.392674064849416-5.229615955448935-10.773887173718322-16.218803153037697,1.78266090615034-25.213195387350424,13.621750290081764-22.333160999841311,29.533877501638926.569882012898233,3.14827151999998.670099978921826,6.430368631747115,2.191732541848069,9.364748418418458Z" fill="#4e829f" stroke-width="0"/>
          <path d="M45.872923141721913,101.821615994653257c.607163818223853-1.364961580877207.501932054823556-2.744475038034579.08505592912752-4.130288325493893-6.401945890393108,5.105911233751613-7.854435555368582,8.964300537420058-5.470201087618079,14.530515908019879,1.808013566758746-.423798078782056,1.844505423684495-1.700906111656877,1.818537104076313-3.258213424373025-.049029352254365-2.935819104781331.772370223479811-5.564075899421368,3.566608054414246-7.142014158152961Z" fill="#4e829f" stroke-width="0"/>
          <path d="M107.693355901513314,70.586734942375188c.677721975008353,4.204166353916662,1.355443950016706,8.408332707833324,2.033171527289596,12.612534509367833.116690079549699-4.33220074107885-.120135656742605-8.607476961418797-2.033171527289596-12.612534509367833Z" fill="#336175" stroke-width="0"/>
        </g>
      </g>
    </g>
  </g>
  <path d="M171.807871131354659,32.385229831561446c.012041393452819.058675046666394.022239708227062.11735391120601.030721085300684.176648169546752l-.107162899340437-.797518836629024c.025681453103061.209136669138388.024437384979137.416804519198195-.002763585831417.625747960802983l.107162899340437-.797518836630843c-.031176972896901.208363634987109-.086948653904983.408437721409427-.168782185127384.602627530819518l.302425045216296-.71663860758963c-.076333429674378.171614893153674-.170470620924789.331186789855565-.284000861273853.480780009995215l.469091711883266-.607162899341347c-.12076197893748.153245779591089-.256933278310498.28955262499403-.409688253447712.410943518563727l.607162899341347-.469091711884175c-.166040916563361.127227382567071-.344001048168138.231654843602882-.536439761582187.313715853793838l.71663860758963-.302425045216296c-.064340244482992.026050008449602-.129190518976429.04955809783678-.195278479796798.070747913310697-.390398318160806.092816835356643-.7304716705803.271807135741255-1.020220057260303.536970901157474-.326593314246566.211533991365286-.584151034764545.492103576460067-.77267316155303.841708755282525-.219231531550577.344351687126618-.33790036317987.716151029093453-.356006494886969,1.115398025904142-.089302416117789.398759418314512-.071441932894231.797518836629024.053581449669764,1.196278254943536l.302425045217205.71663860758963c.26670407876918.450798995379955.625455615843748.809550532454523,1.076254611223703,1.076254611223703l.71663860758963.302425045216296c.531679224419349.142883865788463,1.063358448838699.142883865788463,1.595037673258048,0,.189844431736674-.060869913779243.36957980909483-.144303938392113.553597783591613-.221960435917936.180820780544309-.076307265828291.370872215255986-.147370754648364.546239556311775-.239567309252379.123153926330815-.064746192907478.237441836399739-.141883883217815.348519509065227-.225361067148697.299614626534094-.225166630591048.65092608231771-.463048361734764.910510556908775-.75237289395227.2071983947435-.230936687294161.389531492418428-.48730116788829.57543230776264-.73482523583516.045818502392649-.061006629144686.090013854151948-.122750149723288.130360393794945-.187560784164816.210223879947989-.33769297577237.348225539546547-.727416082565469.490066092908819-1.092803060148071.056787636318404-.146287238076184.098234168019189-.298530163623582.124405014754302-.453221823468994.0556085429007-.328693140496398.105109532569259-.664924644250277.132355485153312-.99767613647964.006097710310314-.074470591494901.008582376613049-.149257480696178.007558344349491-.223968174723268-.001025354385092-.074807152454014-.006573712152203-.149198296325267-.014147429240438-.223592432234-.034498491921113-.338867357568233-.074689491857498-.684103182602485-.143347309571254-1.018657540791537-.092816835356643-.390398318160806-.271807135743074-.7304716705803-.536970901158384-1.020220057260303-.211533991365286-.326593314246566-.492103576459158-.584151034763636-.841708755282525-.77267316155303-.344351687126618-.219231531551486-.716151029094362-.33790036317987-1.115398025904142-.356006494886969-.398759418314512-.089302416117789-.797518836629024-.071441932894231-1.196278254943536.053581449670673l-.71663860758963.302425045216296c-.450798995379955.26670407876918-.809550532454523.625455615843748-1.076254611223703,1.076254611223703l-.302425045217205.71663860758963c-.142883865787553.531679224419349-.142883865787553,1.063358448838699,0,1.595037673258048h0Z" fill="#fff" stroke-width="0"/>
  <path d="M60.258206895665353,69.615166569285066c.037463656733053.077720479701384.07257301876416.156490274066527.105328086095142.236309383099069l-.302425045216296-.71663860758963c.14256518885486.362371200715643.240187981364215.731879076676705.299691006970534,1.116496738370188l-.107162899340437-.797518836629024c.066598559131307.518739155788353.060252524523094,1.032290933904733-.008979941788311,1.550438849888451l.107162899341347-.797518836629024c-.080841914672419.518036815084997-.220594726562922,1.015226418812745-.418311784182151,1.500750095723561l.302425045216296-.71663860758963c-.273760839867464.637550777952129-.629850723294112,1.224462101810786-1.049671619493893,1.776105809716682l.469091711883266-.607162899341347c-.45545961175867.581694100585082-.968167635654936,1.109095697673183-1.520474934092817,1.599047128873281-.554545164981391.491936641099528-.878679656439999,1.398600474742125-.878679656439999,2.121320343560001,0,.735801863012966.326822511040518,1.614725630619432.878679656439999,2.121320343560001,1.256551905668857,1.153491546234363,2.98652311854039,1.114301046214678,4.242640687120002,0,1.521336011891435-1.349576148046253,2.685412545042709-2.981661517294924,3.413803034620287-4.879539367379039.355146741620956-.925362349038551.517101471873502-1.972369051130954.512639387547097-2.959685913694557-.005798973783385-1.283127835165942-.330715845188934-2.423416038369396-.864931523795349-3.575400512376291-.298971869421621-.64470393800184-1.133857356632689-1.197195072178147-1.792893218813333-1.378679656439999-.718112891160672-.197753152726364-1.674348682707205-.108468477781571-2.311676280847678.302425045216296-.640567528789688.412982349092999-1.204448771259194,1.027944477604251-1.378679656440909,1.792893218813333-.188716360691615.828546227074185-.053914451385026,1.543264599948088.302425045217205,2.311676280847678h0Z" fill="#fff" stroke-width="0"/>
</svg>