<?xml version="1.0" encoding="UTF-8"?>
<svg id="Layer_1" data-name="Layer 1" xmlns="http://www.w3.org/2000/svg" width="280" height="280" viewBox="0 0 280 280">
  <g>
    <g>
      <path d="M26.099666912537032,133.498284223869632c2.65425017414691-5.164177542654215,7.303911922539555-8.39183025467355,11.787818735921064-11.632684523448916,18.210684772614513-13.162417950321469,38.47323254530329-16.999310359353331,60.862707307481287-12.670648452169189-6.522928654041607-6.9981130477845-10.049629335360805-14.786618544412704-8.680877180393509-24.254330938134444.515429160974236-3.565610774125162,1.817283588904502-6.87421241764423,3.242012852603693-10.133135513544403.724404713808326-1.656966906795788,1.032333368982108-2.685598264470173-.617202423239178-4.352520976532105-3.323331297461664-3.358387865575423-4.248013429879393-7.630231717083007-2.435107993454949-12.237318066165244,1.85036456385933-4.702451828254198,5.27457827750095-7.746252939379701,10.306783374803672-7.636500518701723,3.767713082163937.082159324627355,3.604648837958848-2.90891193133757,5.071028880504855-4.666733555142855,1.503361945986398-4.439068504476381,3.35426615747383-8.714852876799341,5.941100868548347-12.64487241970528.667086289216059-1.304708472947823,1.014256815412409-2.864321436603859,2.685552142955203-3.368958052185917,2.606444637139248,1.460990595522162,1.16760632869682,3.436716693540802.56879298909007,5.192561115507488-3.087341178379575,9.052961996027079-5.8924982193912,18.10653694285611-6.206834351862199,27.834190240382668-.662808585026141,20.510487549207028,10.663022405540687,39.488347316040745,28.556058761477288,47.307462327406029,2.367317580065901,1.034487462718971,5.001817742151616,1.294458281607149,7.250517423579367,2.547501461836873,1.279600387245409.713012095988233,3.526353435971032,1.012582352846948,2.435250716906012,3.483820633869982-5.871397420314679,5.137892487387944-12.917170640424956,6.08060671806561-21.01742759469289,5.593822251981692,16.843112028165706,13.727844752393139,27.036474347977673,30.685534617876328,29.517281994346376,51.928360011643235-3.500627946204077.888792547342746-5.909393681921756-1.44496841448381-8.585275149013796-2.941396937490936-9.682166306414729-5.414786882935005-19.938543807455972-8.348942516347961-31.129338376023952-7.310068796286942-1.422608948429115.132067345521136-2.833195297937891.360292484700039-4.189359642931777.82558995367981-2.295818939396668.787766316632769-4.2193203353836,1.757667439589568-3.512999694159589,4.846569830255248.57222755458497,2.502360831353144-.705906085324386,2.678413328143506-2.592834321259033,1.692595294707644-.378773946262299-.197903048469016-.775684528193779-.361479205401338-1.163586922591094-.542275700589016-25.214171161950617-11.751781535538612-50.429201227045269-23.501596342208359-75.638055821019407-35.264784677679927-.884290298795349-.412647471623131-1.920814454541869-.630417660642706-2.456006577575863-1.596243993493772Z" fill="none" stroke="#093747" stroke-linecap="round" stroke-linejoin="round" stroke-width="42.039960443973541"/>
      <path d="M146.867269017458057,116.266116987142595c-.901895474662524-2.608688334114049-3.400477751270046-2.841883367318587-5.483762303281765-3.458468010239812-12.536667848368779-3.710557274151142-21.652991562155876-11.581947569793556-27.591012022399809-23.031040699626828-8.292271001007975-15.988378227750218-7.827052108165844-32.359347531726598-2.072649426535463-49.105239903479742,1.157713344454351-3.369043687196609,4.055597888411285-6.658535561175086,2.543643739605614-10.770799023037398,7.069226308048201-7.45341810460377,15.565733596798964-9.240939044833794,25.242228631205762-6.344251117609019,3.477120089385608.899095524448057,1.781118945064009,2.949665754196758.811377194084344,4.479496251342425-2.362485779749477,3.727157576080572-4.931908441973974,7.307997559568321-6.668731982857935,11.414248472801773-4.228160655291504,9.996159552962126-6.027660983832902,20.294231366018721-2.833850779464228,30.848711738928614,3.459321886130965,11.432138446267345,10.918034133338551,19.172018252873386,22.763485190655956,22.128435219283347,4.722293356922819,1.17857981569432,7.034681887247643.045672288144488,9.619623464454889-4.173764718247185.937899764279791-1.530916765150323,1.362514118062791-3.540127411135472,3.534893650875347-3.98608814806903,3.465013030005139,1.102547064449027,3.410224688841481,3.986956128535894,3.461354982452576,6.825184440811427.037619990558596,2.08964372229093-1.157121161407304,4.072594227387526-.52768887903494,6.211414563857033-2.799721407835023,3.281639404431189-6.226496207821583,5.22096920828335-10.65024090354018,4.435593284355491-2.428707981978732-.431198657044661-2.424323069778438,1.559588156411337-3.016629774095236,2.747976607774035-2.267413897004189,4.549984463890723-4.574540425262967,9.021330444109481-9.132040782124932,11.778591041154868Z" fill="none" stroke="#093747" stroke-linecap="round" stroke-linejoin="round" stroke-width="42.039960443973541"/>
      <path d="M167.141968184632788,84.747570618050304c-1.148579667265039.22503372932988-1.539985953769246,1.167546038164801-1.941655340335274,2.079901190159944-4.46793993825122,10.14785151203796-9.511511647713633,8.072578295788844-16.161385627346135,5.478837847813338-13.969181580288932-5.44861839863006-22.311585553462464-20.228268611557723-20.924315251835651-35.604924622419276.981398900792556-10.877763761132883,4.634379091083247-20.669766294276997,11.343980494312746-29.285367485887036,1.077539884514408-1.383606012695964,1.95491728547222-2.542872747600995.04730394602484-3.85958712586762,7.194610217125955,1.572977227218871,13.298114812616404,5.672845993942246,19.908385447009096,8.599303215380132-1.462527207130734,4.501790517040718-4.657590758601145,7.796814774548693-8.214005940384595,10.536678589638541-3.384188324414936,2.607188449381283-4.133017721294891,5.510181605906837-2.865434324325179,9.303118446299777.719787284431732,2.153669273402556,1.43179531719943,4.305314824814559,1.973992534080935,6.519014144018001,2.049672507517244,8.368114146669541,7.109645168251518,12.928426809265147,15.599285645742384,14.173219837364741,6.274679736185135.920017369660854,6.357731659118144,1.101240749692806,2.946871544529131,6.431878045972553-.185579994610634.420226001000628-.371165515799476.84046385937836-.556792966050125,1.260667741897123-.139384184720257,1.520931384544383.292862619917287,3.193332048887896-1.156230161422172,4.367260175629781Z" fill="none" stroke="#093747" stroke-linecap="round" stroke-linejoin="round" stroke-width="42.039960443973541"/>
      <path d="M26.099666912537032,133.498284223869632c26.974164937080786,12.572323738342675,53.948329874159754,25.144647476678074,81.448255837369288,37.962021908702809-2.354262859680603-5.410525098852304-1.215937497445339-7.677331647008032,4.253369444558302-8.697613660697243,8.113890410633758-1.513660204785992,15.973265663354141-.434458722827912,23.97878002966354,1.785333449091922,7.181993734066964,1.991434385823595,12.783896747215294,6.779581041104393,19.587087595463345,9.24031916304375,1.123784490276194,5.791196537496944.613389268004539,11.573127491814375.061223772455378,17.379611251768438-.263865432213606,2.775154426604786-1.382086660089044,3.078075079250993-3.540673244695427,1.866426299357045-.496562390381769-.278696031627987-1.031635682482374-.488770884467158-1.549220042505112-.729923935989063-40.2423057586293-18.749078663797263-80.48932016166691-37.488054839492179-120.705271953654119-56.293552515455303-1.265328435395531-.59168794636571-3.229953436695723-.470259694315246-3.533551438655195-2.512621959822354Z" fill="none" stroke="#093747" stroke-linecap="round" stroke-linejoin="round" stroke-width="42.039960443973541"/>
      <path d="M168.854991312105085,79.1196427005234c.383588288877945-.91805464315803.73348211450957-1.852059223007018,1.158299260107015-2.750623375628493.726023510305822-1.535637036780827.546857230445312-2.274211694370024-1.42388874001972-2.397436584469688-10.962943954887123-.685497010170366-18.132378803979918-5.782929817680269-19.827501710935394-17.22536458264949-.224797217782907-1.517516121442895-1.05293922859164-2.939867912400587-1.544180262430928-4.425214796652654-1.77910166271522-5.379039429355544-1.169615625771257-7.074745558624272,3.450022888758213-10.417193544379188,3.608526165679905-2.61086230429828,5.43577011969046-6.851127198506219,8.746586560517244-9.748054061028597,16.511206627060346,6.765373516151158,22.395323251350419,21.923007967798185,14.568906516752577,37.780883337294654-1.54854443629938,3.137520448044597-2.643749360635411,6.557362842604562-5.128244512749006,9.183003607513456Z" fill="none" stroke="#093747" stroke-linecap="round" stroke-linejoin="round" stroke-width="42.039960443973541"/>
      <path d="M167.141968184632788,84.747570618050304c-.22657402250934-1.617933691886719.300095083740416-3.036310359999334,1.156257794312296-4.367319462533487,5.189675170416194,7.298003337222326,5.552836173995274,11.791917255595763,1.367849493293761,16.923930188566374-1.77272902722234-.990771628623406-1.425921412057505-2.344244867592352-.92895086392673-3.973419792446293.936961515418261-3.071280794985796.866188823402808-6.081774341835626-1.595156423679327-8.583190933586593Z" fill="none" stroke="#093747" stroke-linecap="round" stroke-linejoin="round" stroke-width="42.039960443973541"/>
      <path d="M111.577931335312314,33.269539260325473c-1.980354060832724,4.214929806010332-3.960708121668176,8.42985961202794-5.941078762238249,12.644824990182315,1.183900082144646-4.589105943918184,2.722240077203423-9.011756147527194,5.941078762238249-12.644824990182315Z" fill="none" stroke="#093747" stroke-linecap="round" stroke-linejoin="round" stroke-width="42.039960443973541"/>
    </g>
    <g>
      <path d="M26.099666912537032,133.498284223869632c2.65425017414691-5.164177542654215,7.303911922539555-8.39183025467355,11.787818735921064-11.632684523448916,18.210684772614513-13.162417950321469,38.47323254530329-16.999310359353331,60.862707307481287-12.670648452169189-6.522928654041607-6.9981130477845-10.049629335360805-14.786618544412704-8.680877180393509-24.254330938134444.515429160974236-3.565610774125162,1.817283588904502-6.87421241764423,3.242012852603693-10.133135513544403.724404713808326-1.656966906795788,1.032333368982108-2.685598264470173-.617202423239178-4.352520976532105-3.323331297461664-3.358387865575423-4.248013429879393-7.630231717083007-2.435107993454949-12.237318066165244,1.85036456385933-4.702451828254198,5.27457827750095-7.746252939379701,10.306783374803672-7.636500518701723,3.767713082163937.082159324627355,3.604648837958848-2.90891193133757,5.071028880504855-4.666733555142855,1.503361945986398-4.439068504476381,3.35426615747383-8.714852876799341,5.941100868548347-12.64487241970528.667086289216059-1.304708472947823,1.014256815412409-2.864321436603859,2.685552142955203-3.368958052185917,2.606444637139248,1.460990595522162,1.16760632869682,3.436716693540802.56879298909007,5.192561115507488-3.087341178379575,9.052961996027079-5.8924982193912,18.10653694285611-6.206834351862199,27.834190240382668-.662808585026141,20.510487549207028,10.663022405540687,39.488347316040745,28.556058761477288,47.307462327406029,2.367317580065901,1.034487462718971,5.001817742151616,1.294458281607149,7.250517423579367,2.547501461836873,1.279600387245409.713012095988233,3.526353435971032,1.012582352846948,2.435250716906012,3.483820633869982-5.871397420314679,5.137892487387944-12.917170640424956,6.08060671806561-21.01742759469289,5.593822251981692,16.843112028165706,13.727844752393139,27.036474347977673,30.685534617876328,29.517281994346376,51.928360011643235-3.500627946204077.888792547342746-5.909393681921756-1.44496841448381-8.585275149013796-2.941396937490936-9.682166306414729-5.414786882935005-19.938543807455972-8.348942516347961-31.129338376023952-7.310068796286942-1.422608948429115.132067345521136-2.833195297937891.360292484700039-4.189359642931777.82558995367981-2.295818939396668.787766316632769-4.2193203353836,1.757667439589568-3.512999694159589,4.846569830255248.57222755458497,2.502360831353144-.705906085324386,2.678413328143506-2.592834321259033,1.692595294707644-.378773946262299-.197903048469016-.775684528193779-.361479205401338-1.163586922591094-.542275700589016-25.214171161950617-11.751781535538612-50.429201227045269-23.501596342208359-75.638055821019407-35.264784677679927-.884290298795349-.412647471623131-1.920814454541869-.630417660642706-2.456006577575863-1.596243993493772Z" fill="#224c5c" stroke-width="0"/>
      <path d="M146.867269017458057,116.266116987142595c-.901895474662524-2.608688334114049-3.400477751270046-2.841883367318587-5.483762303281765-3.458468010239812-12.536667848368779-3.710557274151142-21.652991562155876-11.581947569793556-27.591012022399809-23.031040699626828-8.292271001007975-15.988378227750218-7.827052108165844-32.359347531726598-2.072649426535463-49.105239903479742,1.157713344454351-3.369043687196609,4.055597888411285-6.658535561175086,2.543643739605614-10.770799023037398,7.069226308048201-7.45341810460377,15.565733596798964-9.240939044833794,25.242228631205762-6.344251117609019,3.477120089385608.899095524448057,1.781118945064009,2.949665754196758.811377194084344,4.479496251342425-2.362485779749477,3.727157576080572-4.931908441973974,7.307997559568321-6.668731982857935,11.414248472801773-4.228160655291504,9.996159552962126-6.027660983832902,20.294231366018721-2.833850779464228,30.848711738928614,3.459321886130965,11.432138446267345,10.918034133338551,19.172018252873386,22.763485190655956,22.128435219283347,4.722293356922819,1.17857981569432,7.034681887247643.045672288144488,9.619623464454889-4.173764718247185.937899764279791-1.530916765150323,1.362514118062791-3.540127411135472,3.534893650875347-3.98608814806903,3.465013030005139,1.102547064449027,3.410224688841481,3.986956128535894,3.461354982452576,6.825184440811427.037619990558596,2.08964372229093-1.157121161407304,4.072594227387526-.52768887903494,6.211414563857033-2.799721407835023,3.281639404431189-6.226496207821583,5.22096920828335-10.65024090354018,4.435593284355491-2.428707981978732-.431198657044661-2.424323069778438,1.559588156411337-3.016629774095236,2.747976607774035-2.267413897004189,4.549984463890723-4.574540425262967,9.021330444109481-9.132040782124932,11.778591041154868Z" fill="#336175" stroke-width="0"/>
      <path d="M167.141968184632788,84.747570618050304c-1.148579667265039.22503372932988-1.539985953769246,1.167546038164801-1.941655340335274,2.079901190159944-4.46793993825122,10.14785151203796-9.511511647713633,8.072578295788844-16.161385627346135,5.478837847813338-13.969181580288932-5.44861839863006-22.311585553462464-20.228268611557723-20.924315251835651-35.604924622419276.981398900792556-10.877763761132883,4.634379091083247-20.669766294276997,11.343980494312746-29.285367485887036,1.077539884514408-1.383606012695964,1.95491728547222-2.542872747600995.04730394602484-3.85958712586762,7.194610217125955,1.572977227218871,13.298114812616404,5.672845993942246,19.908385447009096,8.599303215380132-1.462527207130734,4.501790517040718-4.657590758601145,7.796814774548693-8.214005940384595,10.536678589638541-3.384188324414936,2.607188449381283-4.133017721294891,5.510181605906837-2.865434324325179,9.303118446299777.719787284431732,2.153669273402556,1.43179531719943,4.305314824814559,1.973992534080935,6.519014144018001,2.049672507517244,8.368114146669541,7.109645168251518,12.928426809265147,15.599285645742384,14.173219837364741,6.274679736185135.920017369660854,6.357731659118144,1.101240749692806,2.946871544529131,6.431878045972553-.185579994610634.420226001000628-.371165515799476.84046385937836-.556792966050125,1.260667741897123-.139384184720257,1.520931384544383.292862619917287,3.193332048887896-1.156230161422172,4.367260175629781Z" fill="#3f7088" stroke-width="0"/>
      <path d="M26.099666912537032,133.498284223869632c26.974164937080786,12.572323738342675,53.948329874159754,25.144647476678074,81.448255837369288,37.962021908702809-2.354262859680603-5.410525098852304-1.215937497445339-7.677331647008032,4.253369444558302-8.697613660697243,8.113890410633758-1.513660204785992,15.973265663354141-.434458722827912,23.97878002966354,1.785333449091922,7.181993734066964,1.991434385823595,12.783896747215294,6.779581041104393,19.587087595463345,9.24031916304375,1.123784490276194,5.791196537496944.613389268004539,11.573127491814375.061223772455378,17.379611251768438-.263865432213606,2.775154426604786-1.382086660089044,3.078075079250993-3.540673244695427,1.866426299357045-.496562390381769-.278696031627987-1.031635682482374-.488770884467158-1.549220042505112-.729923935989063-40.2423057586293-18.749078663797263-80.48932016166691-37.488054839492179-120.705271953654119-56.293552515455303-1.265328435395531-.59168794636571-3.229953436695723-.470259694315246-3.533551438655195-2.512621959822354Z" fill="#224c5c" stroke-width="0"/>
      <path d="M168.854991312105085,79.1196427005234c.383588288877945-.91805464315803.73348211450957-1.852059223007018,1.158299260107015-2.750623375628493.726023510305822-1.535637036780827.546857230445312-2.274211694370024-1.42388874001972-2.397436584469688-10.962943954887123-.685497010170366-18.132378803979918-5.782929817680269-19.827501710935394-17.22536458264949-.224797217782907-1.517516121442895-1.05293922859164-2.939867912400587-1.544180262430928-4.425214796652654-1.77910166271522-5.379039429355544-1.169615625771257-7.074745558624272,3.450022888758213-10.417193544379188,3.608526165679905-2.61086230429828,5.43577011969046-6.851127198506219,8.746586560517244-9.748054061028597,16.511206627060346,6.765373516151158,22.395323251350419,21.923007967798185,14.568906516752577,37.780883337294654-1.54854443629938,3.137520448044597-2.643749360635411,6.557362842604562-5.128244512749006,9.183003607513456Z" fill="#4e829f" stroke-width="0"/>
      <path d="M167.141968184632788,84.747570618050304c-.22657402250934-1.617933691886719.300095083740416-3.036310359999334,1.156257794312296-4.367319462533487,5.189675170416194,7.298003337222326,5.552836173995274,11.791917255595763,1.367849493293761,16.923930188566374-1.77272902722234-.990771628623406-1.425921412057505-2.344244867592352-.92895086392673-3.973419792446293.936961515418261-3.071280794985796.866188823402808-6.081774341835626-1.595156423679327-8.583190933586593Z" fill="#4e829f" stroke-width="0"/>
      <path d="M111.577931335312314,33.269539260325473c-1.980354060832724,4.214929806010332-3.960708121668176,8.42985961202794-5.941078762238249,12.644824990182315,1.183900082144646-4.589105943918184,2.722240077203423-9.011756147527194,5.941078762238249-12.644824990182315Z" fill="#336175" stroke-width="0"/>
    </g>
  </g>
  <path d="M167.759190134219352,48.217277533593006c-.256824181178672.261469751649201-.4976374434018.557056994248342-.670082948918207.881495414580058-.132035751529656.248411638940524-.238200192741715.520127450683503-.336888325298787.782696774913347-.028162689336568.074929559572411-.053026119260721.1504706846099-.072221423864903.228201948020796-.19645680341182.795550570846899-.162981121518897,1.48873567395276-.022654944211354,2.284176970551925.030741160015168.174256782667726.081606902839667.344098189423676.145304295872847.509046049024619.14374537398362.3722364548521.295716795054432.752388902941675.490367266183966,1.103032021088438.197278565167835.355377363501248.437580972817159.684292160063706.677408173506592,1.011623306234469.16174413781664.299946691606237.382717941543888.540663717303687.662921411179923.72215107709053.248592055402696.227499473658099.540360836704167.381065701169064.875306343905322.460698682534712.342118983115142.107264858317649.684237966229375.122588409505624,1.026356949343608.045970653565746.342537305168662-.015534307363851.661525664952933-.117347225477715.956965079352813-.305438754345232.549580276980123-.354321665712632,1.033366912255588-.88193357504133,1.182849759626151-1.538227755085245l.091941307129673-.684237966228466c-.001444057636945-.464605189948998-.118580526939695-.897633210770437-.35140940790825-1.299084062467955-.327811066986214-.447417023486196-.652793593908427-.899231991819761-.872852903765306-1.411386694033354l.259468100778577.61484609623767c-.089725989027102-.219758794157315-.157728344444877-.443275979747341-.193744286411857-.678111604476726l.091941307129673.684237966228466c-.026007907237727-.199467985004958-.02959098750398-.397075229690017-.007913124238257-.597129396252058l-.091941307129673.684237966230285c.023972181794306-.178250936740369.067373659008808-.348655951020191.135939068351945-.515070503462994l-.259468100779486.61484609623767c.051149827958398-.113735592542071.111074695555544-.218370320417307.184334015903914-.319324670679634l-.402461163513181.520920495333485c.044109936432505-.056350274495344.09039723476144-.109107176118414.140543973375316-.160160995237675.465171256391841-.473585518018808.75387057142234-1.153956681995624.75387057142234-1.82000455780144,0-.63128737174884-.280400110946175-1.385367380389653-.75387057142234-1.82000455780144-.49051533205602-.45028405613084-1.134506399966995-.784574117935335-1.82000455780053-.75387057142143-.67919861045084.030421389014009-1.333344596064308.25840764908753-1.82000455780053.75387057142143h0Z" fill="#fff" stroke-width="0"/>
</svg>