<?xml version="1.0" encoding="UTF-8"?>
<svg id="Layer_1" data-name="Layer 1" xmlns="http://www.w3.org/2000/svg" width="280" height="280" xmlns:xlink="http://www.w3.org/1999/xlink" viewBox="0 0 280 280">
  <a xlink:href="https://www.notion.so/dmmnotes/Coherence-0ce6a07d24ea48b7b2a0a2c0e87e913b?pvs=4">
    <g>
      <g>
        <path d="M96.948577919830313,201.646061627840936c.177975432090534-.339659741067408-.920870140491388-1.010684817474612-.74289470839085-1.350344558540201-2.063964406736886-31.041508786242957-2.308340956674328-62.151278806190021-3.467157071568181-93.226723939729709-.094732973530881-2.54048632526883-.330827751986362-5.458387400306492,3.184311839105249-6.344845967156289,3.590826298101092-.048103635169355,6.849624911730643,1.358038596116785,10.190653098519761,2.338599736931428,12.591115119425922,3.695363012374401,25.17046815982485,7.431509939309763,37.735453682745174,11.214985794515997,3.342893711164834,1.006591376345568,6.787089180638759,1.901611468138981,8.964859426291696,5.009332619196357,1.296906929062061,3.375299724138131-.991358852395933,5.64457751842474-2.645016857107294,8.008418641165008-16.596958566891772,23.724620996007616-33.144359486263056,47.483961488733257-49.802098146528806,71.166015609625902-.404188137715209.57464366395925-.787661143669538,1.146002426335144-1.022438964462708,1.809298081642737-.55319507596505.547385599552399-1.505948874850219.976018005168953-2.059154744361877,1.523383685850604-.670959120392581-.199416341015421.334441566149508.051296637514497-.336517554242164-.148119703501834Z" fill="none" stroke="#274f5a" stroke-linecap="round" stroke-linejoin="round" stroke-width="46"/>
        <path d="M99.344250218434354,200.270797645492166c-1.709099657600746-2.575186039259279.850824253348947-3.899753357503869,1.873234827103261-5.371349108594586,15.965494709072118-22.980051589455798,32.069631192117413-45.863751336139103,48.109189752097336-68.792479409219595,1.184493588019905-1.69325397260036,2.119910262927988-3.560718212177562,3.171109960460853-5.34720135252519.953392744573648-1.781370264278848,2.119339021611268-3.26541822402487,4.423667667690097-3.171845531393046,13.320096052554618,2.785570906308749,26.111902357402869,7.43756882714024,39.170315998461774,11.149853465222805,4.839765183334748,1.375869332727234,8.717602749717116,2.056471999764653,13.20641028467162,4.517185398430229.519221055502385.438144580527478.961346139899433.944094750285331,1.330179775286524,1.514047358569769-.099691807706222.335424505652554.099691807697127-.335424505658921,0,0-13.171212684918828,6.04712575736994-24.385641440718246,15.415097944209265-36.960953069429706,22.523234635778863-21.579342043295583,12.197634049136468-42.920075273655129,24.817239659882944-64.363787912659973,37.254862898409556-3.312136379224285,1.921072768503109-6.639210798286513,3.816432801562769-9.959367283681786,5.723691645321196Z" fill="none" stroke="#274f5a" stroke-linecap="round" stroke-linejoin="round" stroke-width="46"/>
        <path d="M94.562654557009409,101.407252213200991c-1.135735705078332,9.053698197240919.031124117109357,18.093992959147727.264768382774491,27.1315195813022.576749839591685,22.30891785041149,1.441656091507866,44.610340663899478,2.073955529848718,66.918071605562545.044355271696986,1.565141737944941,1.080109912251828,3.464643261354468-.696118885746728,4.838246435239853-19.258002771091014-38.072014415329249-38.515691634957875-76.145021743136567-57.781482420044085-114.213940683921464-.310467398188848-.613470838253306-.720236270744863-1.176706516163904-1.083663270597754-1.763388258987106.099692527556726-.335424291709387.199385476147654-.670852636007112.299077283845691-1.006277141663304,2.038773393918746-.964345131528717,4.066825864263592-.48535525180705,6.06390555199232.11010357471423,6.780737714960196,2.021776048243737,13.619166432864404,3.853412191172538,20.321391360504094,6.129262837846909,9.769400494445108,3.074060853934498,19.870477254075922,5.104884834009681,29.30868837538128,9.246792042810739.847615433014653.663013066209714,1.349586211051246,1.490984665653741,1.229478092041973,2.609610007095398Z" fill="none" stroke="#274f5a" stroke-linecap="round" stroke-linejoin="round" stroke-width="46"/>
        <path d="M94.562654557009409,101.407252213200991c-.233272331694025-.420427278673742-.466539683219708-.840857254913317-.699812014903728-1.261284533582511-.237105857439019-1.222106937927492.551470811904437-1.984405443319702,1.33757795292604-2.63088768156922,13.810180639037753-11.357272891170396,27.070366718497098-23.164164394839645,41.3158478685109-33.992609409775469,0,0,.663323704649883.56728285501049,1.098223036320633.321811226168393.335483399463556.099709311579318.70966510177368.103882626654013,1.045148501245421.203591938236059l1.002082572819745.309746274031568c5.420933789569062,16.700604041723636,10.385131947616173,33.540339040149775,15.323588492332419,50.387786943746505.340643937262939,1.162114275721251.743264185614862,2.330604196547029.397955156522585,3.57504518758833-.961973274588672.812912761825828-1.923946549177344,1.625825523650747-2.885696184513108,2.439026173045932-1.525827345510152-2.302554594178218-3.844143039741539-3.361942916476437-6.380114266928103-4.110710513363301-17.186705290077953-5.074511696079753-34.370239441123886-10.159749287692648-51.554801114332804-15.241515604526285Z" fill="none" stroke="#274f5a" stroke-linecap="round" stroke-linejoin="round" stroke-width="46"/>
        <path d="M37.938267741076743,82.305206395120877c6.170576260723465-2.329414550611546,10.292046954549733-7.744698936143322,16.069160079136964-10.666653754901745,6.821213793935385,3.93090570464301,13.4815690581745,2.620059681549719,20.394715130286386-.093663084011496,13.266063193671471-5.207539037266542,25.6486805504328-9.906236425642419,39.034173199638644-14.814541891898443,2.839747699466898.818816745537333,7.220473417442918,2.119862070606359,10.044014177804456,2.972795615069117,1.659493579857553,3.587247145227593-2.386849196005642,3.010560587616965-4.083237025955896,3.834748337636483-6.116185940912146,2.971542934282297-12.634558916183778,5.00426418886218-18.971515024739347,7.463040793876644-7.475162219057893,2.900411546390387-14.883287312351968,6.000180644919055-22.482852039151112,8.560632915499809-4.991931192952507,1.681883025666139-9.261504123105624,4.009679615952336-11.381581071138498,9.173016411402386-.487516840139506,1.187319285933881-1.649447632024021,1.754104043115149-2.735215564112877,2.328702653129767-8.728912168701754-2.583933356549096-17.457825297228737-5.167866998368481-26.186738425755721-7.751800640189686l.299076563987001-1.006277355612838Z" fill="none" stroke="#274f5a" stroke-linecap="round" stroke-linejoin="round" stroke-width="46"/>
        <path d="M138.660069899744485,64.048001552944697c17.420690061592722,5.209244031359958,34.841372230712295,10.418486500312611,52.261986272750619,15.627817603180119,6.568734221206796,18.364433215741883,13.137559248623802,36.728785843598416,19.706302311710715,55.093189309857735-18.415018792878072-5.482911203730509-36.829940264319703-10.965868681567372-55.244968799605886-16.448690870844985-3.929795560965431-7.657216776925452-5.097371341608778-16.193205263001801-7.682162518020959-24.27875826151012-3.179207999414757-9.94497738323571-6.041747203921659-19.991133580527276-9.041157266834489-29.99355778068275Z" fill="none" stroke="#274f5a" stroke-linecap="round" stroke-linejoin="round" stroke-width="46"/>
        <path d="M123.480330327943193,59.70314327937831c4.711460626620465,1.380291199636304,9.422928575255355,2.760585880992949,14.134161071920062,4.141138535063874-14.583252265853844,12.100328495978829-29.166284579427156,24.200394934780888-43.750484224572574,36.301071129521006-10.013612374248623-3.026780102561133-20.026061256207868-6.054171102136934-30.038292895476843-9.081815042103699,2.859276334708738-7.666660508052701,8.715889859115123-11.255266568657134,16.334862447929481-13.727089567379153,12.363344721150497-4.01103574368517,24.395275853788917-9.05547870119608,36.510513038919271-13.807896787048776,2.400615194452257-.94168279231144,4.54610243953357-2.533434063846471,6.809240561280603-3.825408268053252Z" fill="none" stroke="#274f5a" stroke-linecap="round" stroke-linejoin="round" stroke-width="46"/>
        <path d="M85.31181327959257,48.121927402601614c9.374873415749789,2.869398013126556,18.749746902797597,5.738795786336595,28.124502870546166,8.608420261707579-4.961454367477018,4.676693617323508-11.726241151212889,5.445745044698924-17.654320884869776,7.982794228601051-8.25545772006717,3.533103943370406-16.787105618317582,6.420212570659714-25.194828815268011,9.59892331307401-6.585588406559509,2.489811318062493-12.896626069375998,1.482685290084191-16.579655378763164-2.673437689927596,10.434712139791372-7.838950754759026,20.869506000339243-15.677824999631412,31.304302208354784-23.516700113455045Z" fill="none" stroke="#274f5a" stroke-linecap="round" stroke-linejoin="round" stroke-width="46"/>
      </g>
      <g>
        <path d="M96.948577919830313,201.646061627840936c.177975432090534-.339659741067408-.920870140491388-1.010684817474612-.74289470839085-1.350344558540201-2.063964406736886-31.041508786242957-2.308340956674328-62.151278806190021-3.467157071568181-93.226723939729709-.094732973530881-2.54048632526883-.330827751986362-5.458387400306492,3.184311839105249-6.344845967156289,3.590826298101092-.048103635169355,6.849624911730643,1.358038596116785,10.190653098519761,2.338599736931428,12.591115119425922,3.695363012374401,25.17046815982485,7.431509939309763,37.735453682745174,11.214985794515997,3.342893711164834,1.006591376345568,6.787089180638759,1.901611468138981,8.964859426291696,5.009332619196357,1.296906929062061,3.375299724138131-.991358852395933,5.64457751842474-2.645016857107294,8.008418641165008-16.596958566891772,23.724620996007616-33.144359486263056,47.483961488733257-49.802098146528806,71.166015609625902-.404188137715209.57464366395925-.787661143669538,1.146002426335144-1.022438964462708,1.809298081642737-.55319507596505.547385599552399-1.505948874850219.976018005168953-2.059154744361877,1.523383685850604-.670959120392581-.199416341015421.334441566149508.051296637514497-.336517554242164-.148119703501834Z" fill="#6ac2bf" stroke-width="0"/>
        <path d="M99.344250218434354,200.270797645492166c-1.709099657600746-2.575186039259279.850824253348947-3.899753357503869,1.873234827103261-5.371349108594586,15.965494709072118-22.980051589455798,32.069631192117413-45.863751336139103,48.109189752097336-68.792479409219595,1.184493588019905-1.69325397260036,2.119910262927988-3.560718212177562,3.171109960460853-5.34720135252519.953392744573648-1.781370264278848,2.119339021611268-3.26541822402487,4.423667667690097-3.171845531393046,13.320096052554618,2.785570906308749,26.111902357402869,7.43756882714024,39.170315998461774,11.149853465222805,4.839765183334748,1.375869332727234,8.717602749717116,2.056471999764653,13.20641028467162,4.517185398430229.519221055502385.438144580527478.961346139899433.944094750285331,1.330179775286524,1.514047358569769-.099691807706222.335424505652554.099691807697127-.335424505658921,0,0-13.171212684918828,6.04712575736994-24.385641440718246,15.415097944209265-36.960953069429706,22.523234635778863-21.579342043295583,12.197634049136468-42.920075273655129,24.817239659882944-64.363787912659973,37.254862898409556-3.312136379224285,1.921072768503109-6.639210798286513,3.816432801562769-9.959367283681786,5.723691645321196Z" fill="#00b1ab" stroke-width="0"/>
        <path d="M94.562654557009409,101.407252213200991c-1.135735705078332,9.053698197240919.031124117109357,18.093992959147727.264768382774491,27.1315195813022.576749839591685,22.30891785041149,1.441656091507866,44.610340663899478,2.073955529848718,66.918071605562545.044355271696986,1.565141737944941,1.080109912251828,3.464643261354468-.696118885746728,4.838246435239853-19.258002771091014-38.072014415329249-38.515691634957875-76.145021743136567-57.781482420044085-114.213940683921464-.310467398188848-.613470838253306-.720236270744863-1.176706516163904-1.083663270597754-1.763388258987106.099692527556726-.335424291709387.199385476147654-.670852636007112.299077283845691-1.006277141663304,2.038773393918746-.964345131528717,4.066825864263592-.48535525180705,6.06390555199232.11010357471423,6.780737714960196,2.021776048243737,13.619166432864404,3.853412191172538,20.321391360504094,6.129262837846909,9.769400494445108,3.074060853934498,19.870477254075922,5.104884834009681,29.30868837538128,9.246792042810739.847615433014653.663013066209714,1.349586211051246,1.490984665653741,1.229478092041973,2.609610007095398Z" fill="#078197" stroke-width="0"/>
        <path d="M94.562654557009409,101.407252213200991c-.233272331694025-.420427278673742-.466539683219708-.840857254913317-.699812014903728-1.261284533582511-.237105857439019-1.222106937927492.551470811904437-1.984405443319702,1.33757795292604-2.63088768156922,13.810180639037753-11.357272891170396,27.070366718497098-23.164164394839645,41.3158478685109-33.992609409775469,0,0,.663323704649883.56728285501049,1.098223036320633.321811226168393.335483399463556.099709311579318.70966510177368.103882626654013,1.045148501245421.203591938236059l1.002082572819745.309746274031568c5.420933789569062,16.700604041723636,10.385131947616173,33.540339040149775,15.323588492332419,50.387786943746505.340643937262939,1.162114275721251.743264185614862,2.330604196547029.397955156522585,3.57504518758833-.961973274588672.812912761825828-1.923946549177344,1.625825523650747-2.885696184513108,2.439026173045932-1.525827345510152-2.302554594178218-3.844143039741539-3.361942916476437-6.380114266928103-4.110710513363301-17.186705290077953-5.074511696079753-34.370239441123886-10.159749287692648-51.554801114332804-15.241515604526285Z" fill="#a5dad2" stroke-width="0"/>
        <path d="M37.938267741076743,82.305206395120877c6.170576260723465-2.329414550611546,10.292046954549733-7.744698936143322,16.069160079136964-10.666653754901745,6.821213793935385,3.93090570464301,13.4815690581745,2.620059681549719,20.394715130286386-.093663084011496,13.266063193671471-5.207539037266542,25.6486805504328-9.906236425642419,39.034173199638644-14.814541891898443,2.839747699466898.818816745537333,7.220473417442918,2.119862070606359,10.044014177804456,2.972795615069117,1.659493579857553,3.587247145227593-2.386849196005642,3.010560587616965-4.083237025955896,3.834748337636483-6.116185940912146,2.971542934282297-12.634558916183778,5.00426418886218-18.971515024739347,7.463040793876644-7.475162219057893,2.900411546390387-14.883287312351968,6.000180644919055-22.482852039151112,8.560632915499809-4.991931192952507,1.681883025666139-9.261504123105624,4.009679615952336-11.381581071138498,9.173016411402386-.487516840139506,1.187319285933881-1.649447632024021,1.754104043115149-2.735215564112877,2.328702653129767-8.728912168701754-2.583933356549096-17.457825297228737-5.167866998368481-26.186738425755721-7.751800640189686l.299076563987001-1.006277355612838Z" fill="#2bada7" stroke-width="0"/>
        <path d="M138.660069899744485,64.048001552944697c17.420690061592722,5.209244031359958,34.841372230712295,10.418486500312611,52.261986272750619,15.627817603180119,6.568734221206796,18.364433215741883,13.137559248623802,36.728785843598416,19.706302311710715,55.093189309857735-18.415018792878072-5.482911203730509-36.829940264319703-10.965868681567372-55.244968799605886-16.448690870844985-3.929795560965431-7.657216776925452-5.097371341608778-16.193205263001801-7.682162518020959-24.27875826151012-3.179207999414757-9.94497738323571-6.041747203921659-19.991133580527276-9.041157266834489-29.99355778068275Z" fill="#52c0a7" stroke-width="0"/>
        <path d="M123.480330327943193,59.70314327937831c4.711460626620465,1.380291199636304,9.422928575255355,2.760585880992949,14.134161071920062,4.141138535063874-14.583252265853844,12.100328495978829-29.166284579427156,24.200394934780888-43.750484224572574,36.301071129521006-10.013612374248623-3.026780102561133-20.026061256207868-6.054171102136934-30.038292895476843-9.081815042103699,2.859276334708738-7.666660508052701,8.715889859115123-11.255266568657134,16.334862447929481-13.727089567379153,12.363344721150497-4.01103574368517,24.395275853788917-9.05547870119608,36.510513038919271-13.807896787048776,2.400615194452257-.94168279231144,4.54610243953357-2.533434063846471,6.809240561280603-3.825408268053252Z" fill="#00b3a3" stroke-width="0"/>
        <path d="M85.31181327959257,48.121927402601614c9.374873415749789,2.869398013126556,18.749746902797597,5.738795786336595,28.124502870546166,8.608420261707579-4.961454367477018,4.676693617323508-11.726241151212889,5.445745044698924-17.654320884869776,7.982794228601051-8.25545772006717,3.533103943370406-16.787105618317582,6.420212570659714-25.194828815268011,9.59892331307401-6.585588406559509,2.489811318062493-12.896626069375998,1.482685290084191-16.579655378763164-2.673437689927596,10.434712139791372-7.838950754759026,20.869506000339243-15.677824999631412,31.304302208354784-23.516700113455045Z" fill="#1ea9a2" stroke-width="0"/>
      </g>
    </g>
  </a>
</svg>