<?xml version="1.0" encoding="UTF-8"?>
<svg id="Layer_1" data-name="Layer 1" xmlns="http://www.w3.org/2000/svg" width="280" height="280" xmlns:xlink="http://www.w3.org/1999/xlink" viewBox="0 0 280 280">
  <a xlink:href="https://www.notion.so/dmmnotes/Coherence-0ce6a07d24ea48b7b2a0a2c0e87e913b?pvs=4">
    <g>
      <g>
        <path d="M148.359056474549106,215.203236367007776c.036364844229865-.381734976434927-1.234607792373936-.587562094521672-1.19824294814407-.969297070958419-13.645576556021297-27.957708369109241-25.632399618731142-56.666480259516902-38.452826877376538-84.997784323072665-1.048095668187671-2.316147787917544-2.369738845561187-4.928263164357304.549434496112553-7.077784538264495,3.306170929610744-1.401991885512871,6.854709325083604-1.332137503629383,10.318490604659928-1.687368052759666,13.053721467851574-1.338747020031406,26.111971451578938-2.635290168986103,39.174812103045952-3.8825851831607,3.475348705484066-.331837216723216,7.002303849960299-.805261767721277,10.193291933055662,1.248566133818713,2.476646539596004,2.634546968324685,1.216056353652675,5.600469148245793.578728779647463,8.414033295996887-6.396583340692814,28.238278924908627-12.734161457564369,56.489966333773737-19.203106248491167,84.711814217115716-.156958458296685.684797366792736-.295980835319824,1.358722555762142-.2625871401724,2.06155013960506-.305212288939401.715891922954143-1.025225433461856,1.472890345763517-1.330455245003577,2.188767908338377-.696554476832716.069028103767778.329015019498911-.078940630425677-.367539457333805-.009912526658809Z" fill="none" stroke="#181818" stroke-linecap="round" stroke-linejoin="round" stroke-width="46"/>
        <path d="M150.057051176886489,213.024380985328207c-2.555780023038096-1.73798539989366-.686557492605061-3.931999105899195-.296333341564605-5.680896629455674,6.093452870681176-27.310247609134422,12.35168345828788-54.583704960067735,18.533106083235907-81.874436430294736.456484635360539-2.015379828585537.616518453473873-4.097882222066801.914356876358397-6.149183050490137.209222441693782-2.009592922398951.727623329185008-3.824280109661231,2.896324518937035-4.608768164080175,13.384672438487542-2.456604941306068,26.985833523240217-2.985575964019517,40.478572868600168-4.485312278615311,5.000739294175219-.555832674638623,8.848099236614871-1.391694897097295,13.934033997225015-.810514092984704.646324320719941.20934672284875,1.246906746036984.510612245167067,1.803831745417483.898837400634875.034508387887399.348220083685192-.03450838788558-.34822008368792,0,0-9.907769178535091,10.577555644928907-16.748568674739545,23.489789280713921-25.703558582841652,34.824348183956317-15.366834984625712,19.450209818233816-30.353247991421085,39.200874763238062-45.503794142934566,58.8219918282457-2.34011437000936,3.030615896436757-4.703778561005493,6.043074267448901-7.056540022433182,9.063933233083844Z" fill="none" stroke="#181818" stroke-linecap="round" stroke-linejoin="round" stroke-width="46"/>
        <path d="M108.256412757719772,123.304980071913633c2.371160395289735,8.811182952265881,6.868976755285985,16.73949545988944,10.501783808003893,25.018033374691186,8.967501367290424,20.435370690582204,18.198942051199083,40.754869336710726,27.217422061311481,61.16814150587652.632742055218841,1.43222677727772,2.30971272772149,2.799217295316339,1.18456559227252,4.74236380181992-32.221444951702324-27.966541394978776-64.4429746464657-55.934120687612449-96.670459476185897-83.894852177415487-.519341457449627-.450578434127237-1.111624709069474-.817110162134668-1.669868490355839-1.222866902371607-.034507640562879-.348220157747164-.06901642336743-.696444226510721-.103524811254829-1.044664310198641,1.522922498156731-1.663510008701451,3.581550784655519-1.986740120800278,5.655534074434399-2.190435498591796,7.041850133201478-.691613367338505,14.065230559815063-1.581065824222605,21.130443323159852-2.00777855574961,10.206528634785172-.847236320015327,20.325740240250525-2.785677504507476,30.629339909501141-2.519109778584607,1.035357136176572.293383450166402,1.813079550310249.870149848313304,2.124764009113278,1.951168540524122Z" fill="none" stroke="#181818" stroke-linecap="round" stroke-linejoin="round" stroke-width="46"/>
        <path d="M108.256412757719772,123.304980071913633c-.374897716885243-.301042819639406-.749791842956256-.602090019339812-1.124689559841499-.903132838979218-.681509717963309-1.04178167563532-.239627791749626-2.045620576079273.243750467164318-2.941304214620686,8.491898777860115-15.735195961728095,16.304645806827466-31.678727744322714,25.399457452602292-47.088898274360872,0,0,.82855208658566.274425972798781,1.138381246050812-.117236689700803.348281224148195-.034514446867433.696273052019023-.172104601450883,1.044554276167219-.206619048318316l1.044814266322646-.092061859087153c11.332065963109017,13.411971500009713,22.293886415913221,27.125411277473177,33.234791254731135,40.855722825881458.754685047604653.947099974003322,1.569157442389951,1.876673251146713,1.719915572319223,3.159304800741666-.583277037157131,1.116247121960441-1.166554074315172,2.232494243919973-1.749515236623665,3.348923346227821-2.283043885270672-1.55486892225781-4.829806257674136-1.659236992416481-7.460646730686676-1.39375368826677-17.829645366296972,1.799237003295275-35.660409683355283,3.587345264211763-53.490813008205805,5.379055640482875Z" fill="none" stroke="#181818" stroke-linecap="round" stroke-linejoin="round" stroke-width="46"/>
        <path d="M48.612805882932662,127.026471128177946c4.832065697044527-4.489245441875028,6.600520514566597-11.060728776300493,10.844320508831515-15.949800019989198,7.801040332350567,1.060540906528331,13.471593711057722-2.67087623999214,18.845842137935506-7.796628253975541,10.312974106739603-9.836130364978999,20.000421677839768-18.867206120872652,30.537083294691911-28.471457157991608,2.938555120287674-.315470544467644,7.48603357353204-.767041658841663,10.422481793906627-1.044800377355386,2.892449650134949,2.693695610865689-1.071627026482929,3.689463328494639-2.330556337776216,5.093783130402699-4.538964619052422,5.063160876480651-9.805177937544613,9.40920956784521-14.742373270039934,14.08111467859726-5.823983202371892,5.511048629633478-11.510539887381128,11.181318370152439-17.578210349505753,16.424664155988467-3.985675903350057,3.444197314419398-7.058420880155609,7.21329910120312-7.069247760598955,12.794934695497432-.00249062871535,1.283508298741253-.863931593999041,2.247483189202285-1.651907735722489,3.189899851325208-9.057968243425421.90765111204928-18.115937483283233,1.815302322844218-27.173906723143773,2.722953533638247l-.10352555857844-1.044664236137578Z" fill="none" stroke="#181818" stroke-linecap="round" stroke-linejoin="round" stroke-width="46"/>
        <path d="M134.958313041833208,72.047744767783115c18.097199970745351-1.762957407054273,36.194392044071719-3.525913276941537,54.291554552649359-5.288761335900745,13.023675262891629,14.518421376000333,26.047404128339622,29.036733816512424,39.071076330613323,43.555124308159975-19.121196635375782,1.885489761620192-38.242320664649924,3.770899892168927-57.363492668887375,5.65647574556715-6.532866397791622-5.60338456188947-10.84070017157137-13.064544043864771-16.290299272905031-19.572937267387715-6.702832496667725-8.00512180908845-13.150744905737156-16.223625967551925-19.708838941470276-24.349901450438665Z" fill="none" stroke="#181818" stroke-linecap="round" stroke-linejoin="round" stroke-width="46"/>
        <path d="M119.262533618298221,73.763785318866212c4.883627670780697-.503235337776459,9.767263436436224-1.006470220185292,14.650778745397474-1.509377264614159-8.926700760010135,16.71535850352484-17.853296956886879,33.430391247136868-26.780743350115699,50.146429789668218-10.414744093143781.983329062613848-20.828641975666869,1.965652721291917-31.242434357123784,2.947660084617382-.251172686966129-8.17863416379987,3.814210595890472-13.714939267016234,9.93335365330131-18.88356969383949,9.929565290570281-8.387158849778643,19.161646682156061-17.605751188708382,28.581247710641037-26.585482040953138,1.866479650113433-1.779318270827389,3.251015435069348-4.064017001383036,4.857797597899662-6.115660874878813Z" fill="none" stroke="#181818" stroke-linecap="round" stroke-linejoin="round" stroke-width="46"/>
        <path d="M79.548347431342336,77.471030975993926c9.763909179805523-.887566362313009,19.527818334929179-1.775132973691143,29.291704393049258-2.662445279772328-2.825317552461456,6.205245632417245-8.797370035227686,9.474552817494441-13.326441399515716,14.064352428305028-6.307194137860279,6.391768749712355-13.114291571140711,12.289890198049761-19.696424792125981,18.411126478541519-5.155644746436337,4.794628484948589-11.379077449520992,6.248032973712725-16.359953862231123,3.792644352721254,6.696968218830079-11.201918721890252,13.394041017440941-22.40379750489592,20.091115660823561-33.605677979795473Z" fill="none" stroke="#181818" stroke-linecap="round" stroke-linejoin="round" stroke-width="46"/>
      </g>
      <g>
        <path d="M148.359056474549106,215.203236367007776c.036364844229865-.381734976434927-1.234607792373936-.587562094521672-1.19824294814407-.969297070958419-13.645576556021297-27.957708369109241-25.632399618731142-56.666480259516902-38.452826877376538-84.997784323072665-1.048095668187671-2.316147787917544-2.369738845561187-4.928263164357304.549434496112553-7.077784538264495,3.306170929610744-1.401991885512871,6.854709325083604-1.332137503629383,10.318490604659928-1.687368052759666,13.053721467851574-1.338747020031406,26.111971451578938-2.635290168986103,39.174812103045952-3.8825851831607,3.475348705484066-.331837216723216,7.002303849960299-.805261767721277,10.193291933055662,1.248566133818713,2.476646539596004,2.634546968324685,1.216056353652675,5.600469148245793.578728779647463,8.414033295996887-6.396583340692814,28.238278924908627-12.734161457564369,56.489966333773737-19.203106248491167,84.711814217115716-.156958458296685.684797366792736-.295980835319824,1.358722555762142-.2625871401724,2.06155013960506-.305212288939401.715891922954143-1.025225433461856,1.472890345763517-1.330455245003577,2.188767908338377-.696554476832716.069028103767778.329015019498911-.078940630425677-.367539457333805-.009912526658809Z" fill="#6ac2bf" stroke-width="0"/>
        <path d="M150.057051176886489,213.024380985328207c-2.555780023038096-1.73798539989366-.686557492605061-3.931999105899195-.296333341564605-5.680896629455674,6.093452870681176-27.310247609134422,12.35168345828788-54.583704960067735,18.533106083235907-81.874436430294736.456484635360539-2.015379828585537.616518453473873-4.097882222066801.914356876358397-6.149183050490137.209222441693782-2.009592922398951.727623329185008-3.824280109661231,2.896324518937035-4.608768164080175,13.384672438487542-2.456604941306068,26.985833523240217-2.985575964019517,40.478572868600168-4.485312278615311,5.000739294175219-.555832674638623,8.848099236614871-1.391694897097295,13.934033997225015-.810514092984704.646324320719941.20934672284875,1.246906746036984.510612245167067,1.803831745417483.898837400634875.034508387887399.348220083685192-.03450838788558-.34822008368792,0,0-9.907769178535091,10.577555644928907-16.748568674739545,23.489789280713921-25.703558582841652,34.824348183956317-15.366834984625712,19.450209818233816-30.353247991421085,39.200874763238062-45.503794142934566,58.8219918282457-2.34011437000936,3.030615896436757-4.703778561005493,6.043074267448901-7.056540022433182,9.063933233083844Z" fill="#00b1ab" stroke-width="0"/>
        <path d="M108.256412757719772,123.304980071913633c2.371160395289735,8.811182952265881,6.868976755285985,16.73949545988944,10.501783808003893,25.018033374691186,8.967501367290424,20.435370690582204,18.198942051199083,40.754869336710726,27.217422061311481,61.16814150587652.632742055218841,1.43222677727772,2.30971272772149,2.799217295316339,1.18456559227252,4.74236380181992-32.221444951702324-27.966541394978776-64.4429746464657-55.934120687612449-96.670459476185897-83.894852177415487-.519341457449627-.450578434127237-1.111624709069474-.817110162134668-1.669868490355839-1.222866902371607-.034507640562879-.348220157747164-.06901642336743-.696444226510721-.103524811254829-1.044664310198641,1.522922498156731-1.663510008701451,3.581550784655519-1.986740120800278,5.655534074434399-2.190435498591796,7.041850133201478-.691613367338505,14.065230559815063-1.581065824222605,21.130443323159852-2.00777855574961,10.206528634785172-.847236320015327,20.325740240250525-2.785677504507476,30.629339909501141-2.519109778584607,1.035357136176572.293383450166402,1.813079550310249.870149848313304,2.124764009113278,1.951168540524122Z" fill="#078197" stroke-width="0"/>
        <path d="M108.256412757719772,123.304980071913633c-.374897716885243-.301042819639406-.749791842956256-.602090019339812-1.124689559841499-.903132838979218-.681509717963309-1.04178167563532-.239627791749626-2.045620576079273.243750467164318-2.941304214620686,8.491898777860115-15.735195961728095,16.304645806827466-31.678727744322714,25.399457452602292-47.088898274360872,0,0,.82855208658566.274425972798781,1.138381246050812-.117236689700803.348281224148195-.034514446867433.696273052019023-.172104601450883,1.044554276167219-.206619048318316l1.044814266322646-.092061859087153c11.332065963109017,13.411971500009713,22.293886415913221,27.125411277473177,33.234791254731135,40.855722825881458.754685047604653.947099974003322,1.569157442389951,1.876673251146713,1.719915572319223,3.159304800741666-.583277037157131,1.116247121960441-1.166554074315172,2.232494243919973-1.749515236623665,3.348923346227821-2.283043885270672-1.55486892225781-4.829806257674136-1.659236992416481-7.460646730686676-1.39375368826677-17.829645366296972,1.799237003295275-35.660409683355283,3.587345264211763-53.490813008205805,5.379055640482875Z" fill="#a5dad2" stroke-width="0"/>
        <path d="M48.612805882932662,127.026471128177946c4.832065697044527-4.489245441875028,6.600520514566597-11.060728776300493,10.844320508831515-15.949800019989198,7.801040332350567,1.060540906528331,13.471593711057722-2.67087623999214,18.845842137935506-7.796628253975541,10.312974106739603-9.836130364978999,20.000421677839768-18.867206120872652,30.537083294691911-28.471457157991608,2.938555120287674-.315470544467644,7.48603357353204-.767041658841663,10.422481793906627-1.044800377355386,2.892449650134949,2.693695610865689-1.071627026482929,3.689463328494639-2.330556337776216,5.093783130402699-4.538964619052422,5.063160876480651-9.805177937544613,9.40920956784521-14.742373270039934,14.08111467859726-5.823983202371892,5.511048629633478-11.510539887381128,11.181318370152439-17.578210349505753,16.424664155988467-3.985675903350057,3.444197314419398-7.058420880155609,7.21329910120312-7.069247760598955,12.794934695497432-.00249062871535,1.283508298741253-.863931593999041,2.247483189202285-1.651907735722489,3.189899851325208-9.057968243425421.90765111204928-18.115937483283233,1.815302322844218-27.173906723143773,2.722953533638247l-.10352555857844-1.044664236137578Z" fill="#2bada7" stroke-width="0"/>
        <path d="M134.958313041833208,72.047744767783115c18.097199970745351-1.762957407054273,36.194392044071719-3.525913276941537,54.291554552649359-5.288761335900745,13.023675262891629,14.518421376000333,26.047404128339622,29.036733816512424,39.071076330613323,43.555124308159975-19.121196635375782,1.885489761620192-38.242320664649924,3.770899892168927-57.363492668887375,5.65647574556715-6.532866397791622-5.60338456188947-10.84070017157137-13.064544043864771-16.290299272905031-19.572937267387715-6.702832496667725-8.00512180908845-13.150744905737156-16.223625967551925-19.708838941470276-24.349901450438665Z" fill="#52c0a7" stroke-width="0"/>
        <path d="M119.262533618298221,73.763785318866212c4.883627670780697-.503235337776459,9.767263436436224-1.006470220185292,14.650778745397474-1.509377264614159-8.926700760010135,16.71535850352484-17.853296956886879,33.430391247136868-26.780743350115699,50.146429789668218-10.414744093143781.983329062613848-20.828641975666869,1.965652721291917-31.242434357123784,2.947660084617382-.251172686966129-8.17863416379987,3.814210595890472-13.714939267016234,9.93335365330131-18.88356969383949,9.929565290570281-8.387158849778643,19.161646682156061-17.605751188708382,28.581247710641037-26.585482040953138,1.866479650113433-1.779318270827389,3.251015435069348-4.064017001383036,4.857797597899662-6.115660874878813Z" fill="#00b3a3" stroke-width="0"/>
        <path d="M79.548347431342336,77.471030975993926c9.763909179805523-.887566362313009,19.527818334929179-1.775132973691143,29.291704393049258-2.662445279772328-2.825317552461456,6.205245632417245-8.797370035227686,9.474552817494441-13.326441399515716,14.064352428305028-6.307194137860279,6.391768749712355-13.114291571140711,12.289890198049761-19.696424792125981,18.411126478541519-5.155644746436337,4.794628484948589-11.379077449520992,6.248032973712725-16.359953862231123,3.792644352721254,6.696968218830079-11.201918721890252,13.394041017440941-22.40379750489592,20.091115660823561-33.605677979795473Z" fill="#1ea9a2" stroke-width="0"/>
      </g>
    </g>
  </a>
</svg>