<?xml version="1.0" encoding="UTF-8"?>
<svg id="Layer_1" data-name="Layer 1" xmlns="http://www.w3.org/2000/svg" width="280" height="280" xmlns:xlink="http://www.w3.org/1999/xlink" viewBox="0 0 280 280">
  <a xlink:href="https://www.notion.so/dmmnotes/Transcripts-ba81088cb946415f86bb25a005fe4ae2?pvs=4">
    <g>
      <g>
        <path d="M153.871101179074685,68.591065835036716h1.448685289637069c4.822477830952266.534471151968319,5.668995823609293,4.175102492714359,6.165721396471781,8.004668051038607,1.332975707900914,10.276874208604568,2.484047862817533,20.576228031386563,3.765474283372896,30.859794517642513,3.337296883768431,26.781957686442183,6.47602290638315,53.588368749557048,9.87409799150555,80.363006174407928.285223179507739,2.247300964065289.870568432033906,4.519295721098388.116825893488567,6.797955812577129-1.277303803879477,1.784740017707009-3.278032887468726,1.848386776831831-5.165218697286036,2.098077058510171-19.898997543157748,2.632707624439718-39.804521641672181,5.218724746873704-59.719363074931607,7.724404140008119-4.382457579424226.551398911466094-8.401345683603722,1.615221660993484-12.009978165500797,4.142179277698233-2.163202180498047-2.855117565459295.097190964464971-4.376162361611932,1.907434157674288-5.869219385256656,1.414035414883983-1.166256670476287,3.302497799035336-1.447085007113856,5.030973919390817-1.956248026495814,2.32104976780829-.683732881638207,3.480858996405004-2.142811069308664,3.153481232435297-4.542430953268195-1.025028400010342-7.513080982495012-1.262415962959494-15.145850590868577-3.37962830969991-22.492861946911944.400302763518994-1.924656773007882,2.059948869526124-1.722010709261667,3.415554758779763-1.971347275015432,3.074924937449396-.565547548436371,6.229295903511229-.615631512589971,9.274577790220064-1.358147559396457,1.002470060499945-.244417703681393,2.455869280467596-.401158072629187,2.311997695265745-1.793759773776401-.151431557867909-1.465743522119737-1.612733380850841-1.150007845202708-2.630544438528887-1.153147074031949-3.982425604401215-.01228057474691-7.896618034395942.73915574552484-11.842045088331361,1.14601748743371-.964012567936152.09940522834404-1.918934379259554.195350672805944-2.828479775664164-.250563517867704-1.186224922585097-.949627774096371-.890562570282782-2.06849756433985.120716405741405-2.691148127301858,2.553817347456061-1.572410980536006,1.563704084393976-3.392235196482943.625808790471638-5.275932770819054-.561554549050925-1.127850858632883-1.861449850217468-2.043289777924656-.995407454454835-3.574763667034858,4.138377672251409-1.887533181390609,8.658672121848213-1.763633125287015,13.017620838887524-2.400957372297853,8.324137804800557-1.217081227348899,16.698741742962738-2.067491684681954,25.057153634396855-3.031544436318654,1.550767025894856-.178858667839449,4.091061527494276.039925684955961,3.792376291387882-2.175761918379067-.223107614565379-1.654970487987157-2.652091465901321-1.16722938926614-4.105816737319401-.988398355486424-10.498536260609399,1.291488688106256-21.025041104333468,2.350210190790676-31.507070319359627,3.777967938724032-1.89561341092849.258196044294891-3.823776704197371.708039797809761-5.579094043321675-.552332942579596-.710764536004717-3.481487672439471-1.831668642072145-6.948876449207091-.410957461845101-10.515195148547718,1.297507941373624-1.520586070813806,3.127999482443556-1.62321895696914,4.920503266090236-1.851619961453252,9.900220791812899-1.261450468598923,19.788261627658358-2.615486080376286,29.714903639753175-3.67309116717297,1.873204281408107-.199573156654878,5.17084446642184.041948497893827,4.837431987427408-2.396701727586333-.362447637198784-2.651067691635035-3.423661834734958-1.139053705173865-5.245902616155945-.943841202646581-10.283508090524265,1.101592978066037-20.528050269276719,2.53590552422429-30.789055283250491,3.831566954875598-1.535061293194303.193836326505334-3.106214824343624.593430311530028-4.566361651493935-.347321403591195-1.823915249053243-3.325825031699424-1.052626721302659-7.221342720320536-2.339667858403118-10.667806989442397.818057569216762-1.779964852728881,2.547909737233567-1.639959668449592,4.043585120165517-1.790277882644659,10.304425120179076-1.035602850946816,20.536947605534806-2.672699631133582,30.846860337456746-3.655151137640132,1.682635496585135-.160338323114047,3.350228415970378-.413643139392661,4.958303129449632-.942376597649854.723524753033416-.237907119948432,1.317944183283544-.737646926036177,1.257652295964363-1.566165683747386-.06346398111782-.871998182337848-.783076116716984-1.122672236429935-1.539040226180077-1.233440588843223-1.330555190332234-.194947215579305-2.638695724846912.030756704980377-3.955136755674175.186601730494658-11.122930319357692,1.316674367277301-22.204838944893709,2.955545253895252-33.331891880923649,4.239114021385831-1.66590739916137.192167229490224-3.357716546801385.604362344318361-4.866550040063885-.566846349098341,3.336169519421674-10.926591639141407-1.364895592520043-21.460948242523955-1.585980582822231-32.214840845039362-.009814701363211-.477534459920207-.141600277616817-.952168725598312-.203439527766022-1.429950510326307-.990058000104909-7.648959711274074-.52325179276886-8.35225059646109,7.046380844662053-10.58897807962785.704641400244327-.208213635298307,1.254552044021693-.71120113388497,1.926350668247323-.983063600862806,5.808446372153412-1.709861396282577,11.88634940186239-1.584489826667777,17.79544619967055-2.610659101541387,10.645823096623644-1.848747746698791,21.450129304579605-2.047010876358399,32.170712130962784-3.115460085096856Z" fill="none" stroke="#181818" stroke-linecap="round" stroke-linejoin="round" stroke-width="44"/>
        <path d="M103.89862629232266,75.127973077827846c-.624896951660048,1.294007532364049-1.791249314497691,1.316433260134545-3.028636683716286,1.467029887452554-3.890280148015336.473464654235613-5.379777132232448,2.24500664651805-4.943249499655394,5.989484872064168,1.130481176714966,9.69712482763498,2.358241738632387,19.382872714171754,3.528573034454894,29.075410288414787.360861590299464,2.988656380493921.575978181121172,5.952469744122027-2.817294552940439,7.554493379691849-1.320845488589839,1.774880186318114-3.34756474139067,1.762185100724309-5.231838193314616,1.966196286861305-6.23746653186754.675326601629422-12.419371685627993,1.793284468005368-18.675146835528722,2.314191961437245-.481379049393581.040085962482408-.972675036624423.076126299078169-1.426516553980036.231700510839801-.798066194114654.273582686999362-1.712662624890072.559246983537378-1.711549076284427,1.592301974462316.001251706002222,1.160287714254082,1.022906302416231,1.193923887929486,1.836081389283208,1.309075001718156,1.686548114023026.238835624248168,3.370123080898338.069538339988867,5.04926319538572-.15099801199176,5.861363417716348-.76981296789927,11.735779946142429-1.436246930117704,17.588149317423813-2.280500519647831,1.880283466343826-.271244845809633,3.861178674262192-.709520983242328,5.467855234899616.893878828344896,2.332262622010603,1.160221392516178,1.917458858276404,3.458037412019621,2.146363557152654,5.423681017751733.1747691050914,1.500739291377613.026752798032248,3.039071953329767.022320708787447,4.560680484239128-1.582946646412893,1.914481913372583-3.918270836307784,1.673921923991657-5.998760947368282,1.951809997006421-6.459156651559169.862746300193976-12.934604823181871,1.605367356418355-19.389307280314824,2.5076082502801-.717313196542818.100267410913148-1.446621218146902.174923578182643-2.135236360532872.390889257203526-1.083151216225815.339710984406338-2.787176240759436.264701101210449-2.514939856413548,1.948963689177617.257273938434082,1.591694025220932,1.799804020418378,1.267844989293735,2.982624744781788,1.159591336028825,8.05345430957459-.737011342736878,16.070498619184946-1.795412290362947,24.099974331227713-2.744846626063008,1.532668407107849-.181229669891763,3.138521549670259-.626254043942026,4.418826132176036.75101628261109-.734284450983978,3.368331737536209,1.907682840985217,6.737625140242017-.002884726414777,10.105619742287672-.963879936836747,1.762008242758384-2.737422999554838,1.724260121463885-4.382518368682213,1.971756259048561-7.12624687175412,1.072112966501663-14.347780899068312,1.394895327845006-21.441908939556015,2.68529523412144-1.500007998849469.272847621094115-4.18054883559671-.00013264347217-3.846882146990538,2.159319654710998.316046094401827,2.045445234338331,2.784675591898122,1.129492321595535,4.367149740020977,1.005874132868485,6.467172543638299-.505227929723333,12.890839323488763-1.406147915684414,19.32606711417975-2.203661261908564,1.761766526331485-.218336681071378,3.607355907563033-.611193483102397,5.115205720177073.848763467565732.980983822376402,1.166577225529181,2.999833629938621,1.748174634032694,2.894811904307971,3.455837741115829-.110023023342364,1.788807750837805,3.093852500609501,5.166905363968908-1.988040708405606,5.154436877637636-.257525384891778-.000630056489172-.517465761055064.980378952262981-.776278772871592,1.504342772353993-1.187612022829853,1.70459019998998-3.093758553579391,1.714892176283684-4.848263527215749,1.977437821082276-6.080760124645167.909956322464495-12.232958675267582,1.236005029297303-18.30907118513278,2.194829417425353-1.064303784351068.167959795920979-2.175431873132766.148284347633307-3.123420946358237.785293566399559-.410755752051045.275997903541793-.768790642043314.596066600530321-.783078879867389,1.12856381729398-.01987808604099.741023807750025.485277851090359,1.059445514963954,1.10404890384234,1.207166127842356,1.79183786500289.427775195930735,3.59913001624227.277103265809274,5.395375102159051.046347839701411,6.098513349944369-.783436557792811,12.200914448995718-1.535911918594138,18.303497915806474-2.285988643281598,1.760401531268144-.216374663059469,3.612793782645895-.72907484168536,5.1091710051478.820200906677201,3.036992442990595,1.766910524396735,2.008885896211723,4.871419923718349,2.393107138912455,7.472105203389219.749094923766279,5.070396184755737,1.308615795958758,10.168570123185418,2.028830297804234,15.243564614955176.448287590064865,3.158837954566479-.681552536338131,5.051660294386238-3.931218947400339,5.563863059995128-.939381867498014.148063275179084-1.841405975297675.518945475414512-2.772172347620653.738415152807647-3.065585497530265.722851652142708-4.798620811932778,2.557819331099381-4.899138606477209,5.784272295315532,1.371947145973536,1.27638391277651,1.102330225843616,2.922091464994082,1.024193929340981,4.523728223774015-.461152806718019,4.981746131228647-3.42846971209292,8.523061536172463-6.806815921161615,11.827486754449637-2.807137221236189,2.624052637916975-5.953611110580823,4.656360641756692-9.762549710521853,5.509678201844508-.57935751101104.301642308057126-1.333909651890281.064188386635578-1.840903082378645.594773326683935h-7.243426448174432c-13.019671094629302-3.005292082561937-18.077624390181882-8.48336797729462-19.746705264715274-22.075455049014636-4.129357375910331-33.627264454975375-8.255287757623591-67.255042903403591-12.339553840934968-100.887798245423255-.649126736607286-5.345374391608857-.431023960034508-10.777511430676896-1.233502555958694-16.123507588559733v-6.519691916390002c1.495135705605207-3.846330449607194,4.987725473751198-4.233490490871191,8.337751834533265-4.650111199860476,10.293039569227403-1.280080658696534,20.592975955631118-2.504985087462046,30.885182435763454-3.793824360389408,6.702247351789083-.839287058710397,13.401101557951733-1.708581248612973,20.112588876337213-2.472523361195272,1.538846805826324-.175160540213255,3.141478117930092-.576009802258341,4.413797202982096.791931266792744Z" fill="none" stroke="#181818" stroke-linecap="round" stroke-linejoin="round" stroke-width="44"/>
        <path d="M191.536918709589372,202.606955227507569c-.250982250649031.484093403249062-.501964501288967.968197860122018-.752946751939817,1.452302316993155-9.792098814230485-2.757370380502834-19.302864961209707.640082125859408-28.856548321473383,1.638743769959547-18.829769829233555,1.968318582410575-37.608283264806232,4.483957289536193-56.407360047098337,6.776191229611868-2.477173150822637.30204023846818-4.796172662881872,1.811202390292237-7.411989523068769,1.005614372734271-.003177620092174-1.69217698176908-.006360766477883-3.384353963543617-.009521807685815-5.076530945312697,2.296910907694837-4.211098614818184,6.500410449807532-4.507236218803882,10.530715881130163-5.043657471600454,16.382681832827075-2.180514976114864,32.763302357303473-4.38122492077855,49.163955704112595-6.419380290990375,5.705812006312044-.709067784715444,11.443123898763588-1.152373320446713,17.088279282237636-2.304415032213001,2.463976356422791-.254786001709363,5.027658141905704-.16448895841495,7.369437045306768-.841711256323833,3.931229999989228-1.136876141514222,7.123428460889045-.878453497954979,9.285978538478957,3.017561603684953v5.795281703456567Z" fill="none" stroke="#181818" stroke-linecap="round" stroke-linejoin="round" stroke-width="44"/>
        <path d="M103.166182097846104,141.039631225710764c-7.112724025901116.793097423978907-14.227431991999765,1.569006464762424-21.33720773908135,2.387737239630951-2.851731665297848.328392074829026-5.685077344423917.830149167048148-8.541149915083224,1.102250668614943-1.84135623864131.175432044821719-3.396958773369988-.354683116263914-3.558417794993147-2.608174109003812-.154432336497848-2.155406672301979.989845237716509-2.905035725272683,3.016791068643215-3.150735649178387,9.659655608771573-1.170866031112382,19.30587402927631-2.45263858492217,28.956836774734256-3.695541074741413,8.460272575859562-1.018828978596503,16.922728038563946-2.01969582041238,25.380010888395191-3.062466945635606,4.409586165569635-.543700063301003,8.806196588576313-1.193039598116229,13.216434857054992-1.730814919686054,1.959480811641697-.238929580043077,3.80537413914135.16512454171334,4.086165229407925,2.480736893659014.280658459163533,2.3146838476423-1.327261518032174,3.068634867062428-3.366354147157836,3.318496479889291-9.297489812659478,1.139269250814323-18.591862794481131,2.304945606103502-27.882262369614182,3.500693341762599-3.330980327657016.428714753857093-6.647647549158137.968640005028647-9.97084685230584,1.457818074688475Z" fill="none" stroke="#181818" stroke-linecap="round" stroke-linejoin="round" stroke-width="44"/>
        <path d="M102.300410490580362,157.612598454405088c-8.127600620505291.881736423878465-16.255394661359787,1.761704268137692-24.38251173097251,2.647867667883474-.83630816114146.091186859917798-1.665860425648134.250259543239736-2.503282135396148.324235912716176-2.010748257900559.177626188917202-3.821320265706163-.316796824683479-3.991966754121677-2.606361314892638-.17318305819208-2.323604121107564,1.654351914614381-2.946453649279647,3.598162914480781-3.17374376468797,8.336196182262938-.974730551097309,16.673796043662151-1.937777423072475,25.006438817716116-2.942004566169999,1.058783014836081-.127603019685921,2.091365861222584-.472713698747611,3.136062348028645-.71719772416327,9.657500353408977-1.097077573220304,19.314320972433052-2.200190424400716,28.972904479818681-3.287662399554392,3.460140913397481-.389573876103896,6.920331563458603-.790090838621836,10.388789552060189-1.089544529395425,1.686128115539759-.145570683276674,3.656915728417516-.288372434082703,3.990980310318264,2.010322348420232.37040550317397,2.548727726480138-1.559863308801141,3.370730373644619-3.568207628024538,3.630678417126546-5.00091087016699.647278034193732-10.037366875007137,1.025168231177304-15.033414604862628,1.703656168878297-8.538812291953946,1.159607916459208-17.157777978387458,1.738320329453927-25.613955569045174,3.499753783838969Z" fill="none" stroke="#181818" stroke-linecap="round" stroke-linejoin="round" stroke-width="44"/>
        <path d="M99.534317068349992,125.090237537475332c-7.441947572675417.175818921612517-14.718327322781988,1.862800700748267-22.118518204286374,2.425612477583854-2.028084247871448.154242250233438-4.047030765606905.432478512360831-6.075764353230625.573124806755004-1.749337887053116.121274820727194-3.480867285848944.088688741201622-3.689078770054039-2.310632694945525-.210654106947914-2.427491593434752,1.438497563307465-3.137277863621421,3.333052688588396-3.396905352046815,4.268444570504471-.584957709783339,8.554578813905209-1.039886129712613,12.831525590520869-1.563943905593987,4.275443624155741-.523875391112597,8.54846949388957-1.06749807905544,12.822517728349339-1.602780808720127,8.946304766330286-1.050331803102381,17.893488213692763-2.093163723249745,26.838643510491238-3.153161919344711,5.011305832598737-.593844822380561,10.01584747911329-1.246246210665049,15.030397247348446-1.810412056274799,1.94329981750343-.218637892290644,3.799317318931571.015569027478705,3.822527761349193,2.58595080069972.020679398930952,2.292018394429761-1.503274039678217,2.969356755378612-3.554391888497776,3.204776810232943-12.414889859726827,1.424928020540392-24.822772376366629,2.911269968437409-37.229533054960484,4.405857918816764-.686299624438107.082675570491119-1.341629887141607.422419715763681-2.011378255618183.642513922837679Z" fill="none" stroke="#181818" stroke-linecap="round" stroke-linejoin="round" stroke-width="44"/>
        <path d="M105.279161301992644,173.601055645029192c-7.507445230647136.848089196582805-15.013746518063272,1.706546691195399-22.5231259522443,2.537082735036165-1.908906915508851.211124192304851-3.825086436307174.381902662000357-5.7425756892153.48262327143857-1.821127232808067.095669103897308-3.47768413945596-.221724616412757-3.547605597232177-2.550711851741653-.065287658737361-2.174457590910606,1.46819864014833-2.915978811679452,3.245483005131973-3.163016223921659,4.15905983432458-.578093410129441,8.333173298451584-1.047971854672141,12.501428889012459-1.559754582618552,4.405922231449949-.540953238078146,8.812115251392242-1.079673644384457,13.218159061350889-1.619720485408834,5.128148304971546-.532198768949456,10.268780512183184-.969358490496234,15.378537304688507-1.641297156787914,2.121948382253322-.279037649768725,3.783280008480688.072533871727501,4.058771381060069,2.305940432141142.247357000596821,2.00532611098788-1.193497527870932,2.794676356896161-3.127811588383338,3.177142753649605-4.461080189958011.882068032555253-9.084622424234112.643641392345671-13.461260814168782,2.031711108213131Z" fill="none" stroke="#181818" stroke-linecap="round" stroke-linejoin="round" stroke-width="44"/>
        <path d="M98.108074066009067,213.47980691680641c3.678390913948533-2.482743126165587,8.032575963996351-2.276880458231972,12.13053430866421-2.833994092601642,13.375796649426775-1.818398298626562,26.786917381683452-3.377213323321484,40.185211581359908-5.029785175194775,11.857363980325317-1.462515864308443,23.716971636753442-2.907025377347964,35.572633517966096-4.383170358360076,2.362878300820739-.294192166400535,3.083883062970926,2.071437827960835,4.787805851030498,2.8264113074747-1.537780230739372,4.197104728566046-3.24071933814048,8.282556814905547-7.281734730750031,10.789883197809104-10.667983542840375.975449036570353-21.265341025184171,2.545074504199874-31.900774685684155,3.794620221222431-18.322157453614636,2.152648793453409-36.610355819462711,4.584534201881979-54.93779641187939,6.693045880156205-1.776626735780155.204403589747017-3.634959755148884.53715079189169-5.092890537685889-1.004774297416589,2.743518503833911-3.277299628332912,5.864284065057291-6.327325721693342,6.537011106978753-10.852236683089359Z" fill="none" stroke="#181818" stroke-linecap="round" stroke-linejoin="round" stroke-width="44"/>
        <path d="M91.571062959030314,224.332043599895769c8.05353720401763-.190398649867348,15.974437782220775-1.634521286112431,23.950032110085886-2.554392708079831,8.928073516439326-1.029700216457059,17.846796540365176-2.141318830254022,26.766956401203061-3.238556681000773,8.682330194220413-1.06797891163842,17.362040924228495-2.157280261337291,26.041519549809891-3.248239654431018,4.395195691278786-.55246005923982,8.786335081425932-1.13724091106269,13.181641298620889-1.688739305131094.972053328350739-.121965672142323,1.582819541610661.425000736648144,1.991875957699449,1.247556064945456-5.191778074964532,4.594736695571555-11.833280383172678,4.211739724934887-18.045290033383935,5.098914531146875-10.911494241543551,1.558372879790113-21.859108352524345,2.869719400956456-32.801052483999229,4.207097203427111-10.826626916743407,1.323273379990496-21.664709844706522,2.55287836178104-32.498228052332706,3.81964562286521-5.947576395545184.695460775254105-11.896097787681356,1.382830298742192-17.842955764772341,2.073283782940052,3.008228073282226-2.031832698063226,6.571218878059881-3.162750936977318,9.255501017069037-5.716568856681988Z" fill="none" stroke="#181818" stroke-linecap="round" stroke-linejoin="round" stroke-width="44"/>
      </g>
      <g>
        <path d="M153.871101179074685,68.591065835036716h1.448685289637069c4.822477830952266.534471151968319,5.668995823609293,4.175102492714359,6.165721396471781,8.004668051038607,1.332975707900914,10.276874208604568,2.484047862817533,20.576228031386563,3.765474283372896,30.859794517642513,3.337296883768431,26.781957686442183,6.47602290638315,53.588368749557048,9.87409799150555,80.363006174407928.285223179507739,2.247300964065289.870568432033906,4.519295721098388.116825893488567,6.797955812577129-1.277303803879477,1.784740017707009-3.278032887468726,1.848386776831831-5.165218697286036,2.098077058510171-19.898997543157748,2.632707624439718-39.804521641672181,5.218724746873704-59.719363074931607,7.724404140008119-4.382457579424226.551398911466094-8.401345683603722,1.615221660993484-12.009978165500797,4.142179277698233-2.163202180498047-2.855117565459295.097190964464971-4.376162361611932,1.907434157674288-5.869219385256656,1.414035414883983-1.166256670476287,3.302497799035336-1.447085007113856,5.030973919390817-1.956248026495814,2.32104976780829-.683732881638207,3.480858996405004-2.142811069308664,3.153481232435297-4.542430953268195-1.025028400010342-7.513080982495012-1.262415962959494-15.145850590868577-3.37962830969991-22.492861946911944.400302763518994-1.924656773007882,2.059948869526124-1.722010709261667,3.415554758779763-1.971347275015432,3.074924937449396-.565547548436371,6.229295903511229-.615631512589971,9.274577790220064-1.358147559396457,1.002470060499945-.244417703681393,2.455869280467596-.401158072629187,2.311997695265745-1.793759773776401-.151431557867909-1.465743522119737-1.612733380850841-1.150007845202708-2.630544438528887-1.153147074031949-3.982425604401215-.01228057474691-7.896618034395942.73915574552484-11.842045088331361,1.14601748743371-.964012567936152.09940522834404-1.918934379259554.195350672805944-2.828479775664164-.250563517867704-1.186224922585097-.949627774096371-.890562570282782-2.06849756433985.120716405741405-2.691148127301858,2.553817347456061-1.572410980536006,1.563704084393976-3.392235196482943.625808790471638-5.275932770819054-.561554549050925-1.127850858632883-1.861449850217468-2.043289777924656-.995407454454835-3.574763667034858,4.138377672251409-1.887533181390609,8.658672121848213-1.763633125287015,13.017620838887524-2.400957372297853,8.324137804800557-1.217081227348899,16.698741742962738-2.067491684681954,25.057153634396855-3.031544436318654,1.550767025894856-.178858667839449,4.091061527494276.039925684955961,3.792376291387882-2.175761918379067-.223107614565379-1.654970487987157-2.652091465901321-1.16722938926614-4.105816737319401-.988398355486424-10.498536260609399,1.291488688106256-21.025041104333468,2.350210190790676-31.507070319359627,3.777967938724032-1.89561341092849.258196044294891-3.823776704197371.708039797809761-5.579094043321675-.552332942579596-.710764536004717-3.481487672439471-1.831668642072145-6.948876449207091-.410957461845101-10.515195148547718,1.297507941373624-1.520586070813806,3.127999482443556-1.62321895696914,4.920503266090236-1.851619961453252,9.900220791812899-1.261450468598923,19.788261627658358-2.615486080376286,29.714903639753175-3.67309116717297,1.873204281408107-.199573156654878,5.17084446642184.041948497893827,4.837431987427408-2.396701727586333-.362447637198784-2.651067691635035-3.423661834734958-1.139053705173865-5.245902616155945-.943841202646581-10.283508090524265,1.101592978066037-20.528050269276719,2.53590552422429-30.789055283250491,3.831566954875598-1.535061293194303.193836326505334-3.106214824343624.593430311530028-4.566361651493935-.347321403591195-1.823915249053243-3.325825031699424-1.052626721302659-7.221342720320536-2.339667858403118-10.667806989442397.818057569216762-1.779964852728881,2.547909737233567-1.639959668449592,4.043585120165517-1.790277882644659,10.304425120179076-1.035602850946816,20.536947605534806-2.672699631133582,30.846860337456746-3.655151137640132,1.682635496585135-.160338323114047,3.350228415970378-.413643139392661,4.958303129449632-.942376597649854.723524753033416-.237907119948432,1.317944183283544-.737646926036177,1.257652295964363-1.566165683747386-.06346398111782-.871998182337848-.783076116716984-1.122672236429935-1.539040226180077-1.233440588843223-1.330555190332234-.194947215579305-2.638695724846912.030756704980377-3.955136755674175.186601730494658-11.122930319357692,1.316674367277301-22.204838944893709,2.955545253895252-33.331891880923649,4.239114021385831-1.66590739916137.192167229490224-3.357716546801385.604362344318361-4.866550040063885-.566846349098341,3.336169519421674-10.926591639141407-1.364895592520043-21.460948242523955-1.585980582822231-32.214840845039362-.009814701363211-.477534459920207-.141600277616817-.952168725598312-.203439527766022-1.429950510326307-.990058000104909-7.648959711274074-.52325179276886-8.35225059646109,7.046380844662053-10.58897807962785.704641400244327-.208213635298307,1.254552044021693-.71120113388497,1.926350668247323-.983063600862806,5.808446372153412-1.709861396282577,11.88634940186239-1.584489826667777,17.79544619967055-2.610659101541387,10.645823096623644-1.848747746698791,21.450129304579605-2.047010876358399,32.170712130962784-3.115460085096856Z" fill="#ebd9de" stroke-width="0"/>
        <path d="M103.89862629232266,75.127973077827846c-.624896951660048,1.294007532364049-1.791249314497691,1.316433260134545-3.028636683716286,1.467029887452554-3.890280148015336.473464654235613-5.379777132232448,2.24500664651805-4.943249499655394,5.989484872064168,1.130481176714966,9.69712482763498,2.358241738632387,19.382872714171754,3.528573034454894,29.075410288414787.360861590299464,2.988656380493921.575978181121172,5.952469744122027-2.817294552940439,7.554493379691849-1.320845488589839,1.774880186318114-3.34756474139067,1.762185100724309-5.231838193314616,1.966196286861305-6.23746653186754.675326601629422-12.419371685627993,1.793284468005368-18.675146835528722,2.314191961437245-.481379049393581.040085962482408-.972675036624423.076126299078169-1.426516553980036.231700510839801-.798066194114654.273582686999362-1.712662624890072.559246983537378-1.711549076284427,1.592301974462316.001251706002222,1.160287714254082,1.022906302416231,1.193923887929486,1.836081389283208,1.309075001718156,1.686548114023026.238835624248168,3.370123080898338.069538339988867,5.04926319538572-.15099801199176,5.861363417716348-.76981296789927,11.735779946142429-1.436246930117704,17.588149317423813-2.280500519647831,1.880283466343826-.271244845809633,3.861178674262192-.709520983242328,5.467855234899616.893878828344896,2.332262622010603,1.160221392516178,1.917458858276404,3.458037412019621,2.146363557152654,5.423681017751733.1747691050914,1.500739291377613.026752798032248,3.039071953329767.022320708787447,4.560680484239128-1.582946646412893,1.914481913372583-3.918270836307784,1.673921923991657-5.998760947368282,1.951809997006421-6.459156651559169.862746300193976-12.934604823181871,1.605367356418355-19.389307280314824,2.5076082502801-.717313196542818.100267410913148-1.446621218146902.174923578182643-2.135236360532872.390889257203526-1.083151216225815.339710984406338-2.787176240759436.264701101210449-2.514939856413548,1.948963689177617.257273938434082,1.591694025220932,1.799804020418378,1.267844989293735,2.982624744781788,1.159591336028825,8.05345430957459-.737011342736878,16.070498619184946-1.795412290362947,24.099974331227713-2.744846626063008,1.532668407107849-.181229669891763,3.138521549670259-.626254043942026,4.418826132176036.75101628261109-.734284450983978,3.368331737536209,1.907682840985217,6.737625140242017-.002884726414777,10.105619742287672-.963879936836747,1.762008242758384-2.737422999554838,1.724260121463885-4.382518368682213,1.971756259048561-7.12624687175412,1.072112966501663-14.347780899068312,1.394895327845006-21.441908939556015,2.68529523412144-1.500007998849469.272847621094115-4.18054883559671-.00013264347217-3.846882146990538,2.159319654710998.316046094401827,2.045445234338331,2.784675591898122,1.129492321595535,4.367149740020977,1.005874132868485,6.467172543638299-.505227929723333,12.890839323488763-1.406147915684414,19.32606711417975-2.203661261908564,1.761766526331485-.218336681071378,3.607355907563033-.611193483102397,5.115205720177073.848763467565732.980983822376402,1.166577225529181,2.999833629938621,1.748174634032694,2.894811904307971,3.455837741115829-.110023023342364,1.788807750837805,3.093852500609501,5.166905363968908-1.988040708405606,5.154436877637636-.257525384891778-.000630056489172-.517465761055064.980378952262981-.776278772871592,1.504342772353993-1.187612022829853,1.70459019998998-3.093758553579391,1.714892176283684-4.848263527215749,1.977437821082276-6.080760124645167.909956322464495-12.232958675267582,1.236005029297303-18.30907118513278,2.194829417425353-1.064303784351068.167959795920979-2.175431873132766.148284347633307-3.123420946358237.785293566399559-.410755752051045.275997903541793-.768790642043314.596066600530321-.783078879867389,1.12856381729398-.01987808604099.741023807750025.485277851090359,1.059445514963954,1.10404890384234,1.207166127842356,1.79183786500289.427775195930735,3.59913001624227.277103265809274,5.395375102159051.046347839701411,6.098513349944369-.783436557792811,12.200914448995718-1.535911918594138,18.303497915806474-2.285988643281598,1.760401531268144-.216374663059469,3.612793782645895-.72907484168536,5.1091710051478.820200906677201,3.036992442990595,1.766910524396735,2.008885896211723,4.871419923718349,2.393107138912455,7.472105203389219.749094923766279,5.070396184755737,1.308615795958758,10.168570123185418,2.028830297804234,15.243564614955176.448287590064865,3.158837954566479-.681552536338131,5.051660294386238-3.931218947400339,5.563863059995128-.939381867498014.148063275179084-1.841405975297675.518945475414512-2.772172347620653.738415152807647-3.065585497530265.722851652142708-4.798620811932778,2.557819331099381-4.899138606477209,5.784272295315532,1.371947145973536,1.27638391277651,1.102330225843616,2.922091464994082,1.024193929340981,4.523728223774015-.461152806718019,4.981746131228647-3.42846971209292,8.523061536172463-6.806815921161615,11.827486754449637-2.807137221236189,2.624052637916975-5.953611110580823,4.656360641756692-9.762549710521853,5.509678201844508-.57935751101104.301642308057126-1.333909651890281.064188386635578-1.840903082378645.594773326683935h-7.243426448174432c-13.019671094629302-3.005292082561937-18.077624390181882-8.48336797729462-19.746705264715274-22.075455049014636-4.129357375910331-33.627264454975375-8.255287757623591-67.255042903403591-12.339553840934968-100.887798245423255-.649126736607286-5.345374391608857-.431023960034508-10.777511430676896-1.233502555958694-16.123507588559733v-6.519691916390002c1.495135705605207-3.846330449607194,4.987725473751198-4.233490490871191,8.337751834533265-4.650111199860476,10.293039569227403-1.280080658696534,20.592975955631118-2.504985087462046,30.885182435763454-3.793824360389408,6.702247351789083-.839287058710397,13.401101557951733-1.708581248612973,20.112588876337213-2.472523361195272,1.538846805826324-.175160540213255,3.141478117930092-.576009802258341,4.413797202982096.791931266792744Z" fill="#f4e1e5" stroke-width="0"/>
        <path d="M191.536918709589372,202.606955227507569c-.250982250649031.484093403249062-.501964501288967.968197860122018-.752946751939817,1.452302316993155-9.792098814230485-2.757370380502834-19.302864961209707.640082125859408-28.856548321473383,1.638743769959547-18.829769829233555,1.968318582410575-37.608283264806232,4.483957289536193-56.407360047098337,6.776191229611868-2.477173150822637.30204023846818-4.796172662881872,1.811202390292237-7.411989523068769,1.005614372734271-.003177620092174-1.69217698176908-.006360766477883-3.384353963543617-.009521807685815-5.076530945312697,2.296910907694837-4.211098614818184,6.500410449807532-4.507236218803882,10.530715881130163-5.043657471600454,16.382681832827075-2.180514976114864,32.763302357303473-4.38122492077855,49.163955704112595-6.419380290990375,5.705812006312044-.709067784715444,11.443123898763588-1.152373320446713,17.088279282237636-2.304415032213001,2.463976356422791-.254786001709363,5.027658141905704-.16448895841495,7.369437045306768-.841711256323833,3.931229999989228-1.136876141514222,7.123428460889045-.878453497954979,9.285978538478957,3.017561603684953v5.795281703456567Z" fill="#e8d2de" stroke-width="0"/>
        <path d="M103.166182097846104,141.039631225710764c-7.112724025901116.793097423978907-14.227431991999765,1.569006464762424-21.33720773908135,2.387737239630951-2.851731665297848.328392074829026-5.685077344423917.830149167048148-8.541149915083224,1.102250668614943-1.84135623864131.175432044821719-3.396958773369988-.354683116263914-3.558417794993147-2.608174109003812-.154432336497848-2.155406672301979.989845237716509-2.905035725272683,3.016791068643215-3.150735649178387,9.659655608771573-1.170866031112382,19.30587402927631-2.45263858492217,28.956836774734256-3.695541074741413,8.460272575859562-1.018828978596503,16.922728038563946-2.01969582041238,25.380010888395191-3.062466945635606,4.409586165569635-.543700063301003,8.806196588576313-1.193039598116229,13.216434857054992-1.730814919686054,1.959480811641697-.238929580043077,3.80537413914135.16512454171334,4.086165229407925,2.480736893659014.280658459163533,2.3146838476423-1.327261518032174,3.068634867062428-3.366354147157836,3.318496479889291-9.297489812659478,1.139269250814323-18.591862794481131,2.304945606103502-27.882262369614182,3.500693341762599-3.330980327657016.428714753857093-6.647647549158137.968640005028647-9.97084685230584,1.457818074688475Z" fill="#a6959c" stroke-width="0"/>
        <path d="M102.300410490580362,157.612598454405088c-8.127600620505291.881736423878465-16.255394661359787,1.761704268137692-24.38251173097251,2.647867667883474-.83630816114146.091186859917798-1.665860425648134.250259543239736-2.503282135396148.324235912716176-2.010748257900559.177626188917202-3.821320265706163-.316796824683479-3.991966754121677-2.606361314892638-.17318305819208-2.323604121107564,1.654351914614381-2.946453649279647,3.598162914480781-3.17374376468797,8.336196182262938-.974730551097309,16.673796043662151-1.937777423072475,25.006438817716116-2.942004566169999,1.058783014836081-.127603019685921,2.091365861222584-.472713698747611,3.136062348028645-.71719772416327,9.657500353408977-1.097077573220304,19.314320972433052-2.200190424400716,28.972904479818681-3.287662399554392,3.460140913397481-.389573876103896,6.920331563458603-.790090838621836,10.388789552060189-1.089544529395425,1.686128115539759-.145570683276674,3.656915728417516-.288372434082703,3.990980310318264,2.010322348420232.37040550317397,2.548727726480138-1.559863308801141,3.370730373644619-3.568207628024538,3.630678417126546-5.00091087016699.647278034193732-10.037366875007137,1.025168231177304-15.033414604862628,1.703656168878297-8.538812291953946,1.159607916459208-17.157777978387458,1.738320329453927-25.613955569045174,3.499753783838969Z" fill="#a6959c" stroke-width="0"/>
        <path d="M99.534317068349992,125.090237537475332c-7.441947572675417.175818921612517-14.718327322781988,1.862800700748267-22.118518204286374,2.425612477583854-2.028084247871448.154242250233438-4.047030765606905.432478512360831-6.075764353230625.573124806755004-1.749337887053116.121274820727194-3.480867285848944.088688741201622-3.689078770054039-2.310632694945525-.210654106947914-2.427491593434752,1.438497563307465-3.137277863621421,3.333052688588396-3.396905352046815,4.268444570504471-.584957709783339,8.554578813905209-1.039886129712613,12.831525590520869-1.563943905593987,4.275443624155741-.523875391112597,8.54846949388957-1.06749807905544,12.822517728349339-1.602780808720127,8.946304766330286-1.050331803102381,17.893488213692763-2.093163723249745,26.838643510491238-3.153161919344711,5.011305832598737-.593844822380561,10.01584747911329-1.246246210665049,15.030397247348446-1.810412056274799,1.94329981750343-.218637892290644,3.799317318931571.015569027478705,3.822527761349193,2.58595080069972.020679398930952,2.292018394429761-1.503274039678217,2.969356755378612-3.554391888497776,3.204776810232943-12.414889859726827,1.424928020540392-24.822772376366629,2.911269968437409-37.229533054960484,4.405857918816764-.686299624438107.082675570491119-1.341629887141607.422419715763681-2.011378255618183.642513922837679Z" fill="#a6959c" stroke-width="0"/>
        <path d="M105.279161301992644,173.601055645029192c-7.507445230647136.848089196582805-15.013746518063272,1.706546691195399-22.5231259522443,2.537082735036165-1.908906915508851.211124192304851-3.825086436307174.381902662000357-5.7425756892153.48262327143857-1.821127232808067.095669103897308-3.47768413945596-.221724616412757-3.547605597232177-2.550711851741653-.065287658737361-2.174457590910606,1.46819864014833-2.915978811679452,3.245483005131973-3.163016223921659,4.15905983432458-.578093410129441,8.333173298451584-1.047971854672141,12.501428889012459-1.559754582618552,4.405922231449949-.540953238078146,8.812115251392242-1.079673644384457,13.218159061350889-1.619720485408834,5.128148304971546-.532198768949456,10.268780512183184-.969358490496234,15.378537304688507-1.641297156787914,2.121948382253322-.279037649768725,3.783280008480688.072533871727501,4.058771381060069,2.305940432141142.247357000596821,2.00532611098788-1.193497527870932,2.794676356896161-3.127811588383338,3.177142753649605-4.461080189958011.882068032555253-9.084622424234112.643641392345671-13.461260814168782,2.031711108213131Z" fill="#a6959c" stroke-width="0"/>
        <path d="M98.108074066009067,213.47980691680641c3.678390913948533-2.482743126165587,8.032575963996351-2.276880458231972,12.13053430866421-2.833994092601642,13.375796649426775-1.818398298626562,26.786917381683452-3.377213323321484,40.185211581359908-5.029785175194775,11.857363980325317-1.462515864308443,23.716971636753442-2.907025377347964,35.572633517966096-4.383170358360076,2.362878300820739-.294192166400535,3.083883062970926,2.071437827960835,4.787805851030498,2.8264113074747-1.537780230739372,4.197104728566046-3.24071933814048,8.282556814905547-7.281734730750031,10.789883197809104-10.667983542840375.975449036570353-21.265341025184171,2.545074504199874-31.900774685684155,3.794620221222431-18.322157453614636,2.152648793453409-36.610355819462711,4.584534201881979-54.93779641187939,6.693045880156205-1.776626735780155.204403589747017-3.634959755148884.53715079189169-5.092890537685889-1.004774297416589,2.743518503833911-3.277299628332912,5.864284065057291-6.327325721693342,6.537011106978753-10.852236683089359Z" fill="#dec4d6" stroke-width="0"/>
        <path d="M91.571062959030314,224.332043599895769c8.05353720401763-.190398649867348,15.974437782220775-1.634521286112431,23.950032110085886-2.554392708079831,8.928073516439326-1.029700216457059,17.846796540365176-2.141318830254022,26.766956401203061-3.238556681000773,8.682330194220413-1.06797891163842,17.362040924228495-2.157280261337291,26.041519549809891-3.248239654431018,4.395195691278786-.55246005923982,8.786335081425932-1.13724091106269,13.181641298620889-1.688739305131094.972053328350739-.121965672142323,1.582819541610661.425000736648144,1.991875957699449,1.247556064945456-5.191778074964532,4.594736695571555-11.833280383172678,4.211739724934887-18.045290033383935,5.098914531146875-10.911494241543551,1.558372879790113-21.859108352524345,2.869719400956456-32.801052483999229,4.207097203427111-10.826626916743407,1.323273379990496-21.664709844706522,2.55287836178104-32.498228052332706,3.81964562286521-5.947576395545184.695460775254105-11.896097787681356,1.382830298742192-17.842955764772341,2.073283782940052,3.008228073282226-2.031832698063226,6.571218878059881-3.162750936977318,9.255501017069037-5.716568856681988Z" fill="#caa7c7" stroke-width="0"/>
      </g>
    </g>
  </a>
  <g>
    <g>
      <path d="M104.59765625,69.2841796875c1.740234375,1.451171875,3.638671875,2.7119140625,5.6982421875,3.78515625,2.05859375,1.0732421875,4.1025390625,2.146484375,6.1337890625,3.21875,2.029296875,1.07421875,3.943359375,2.27734375,5.7421875,3.6103515625,1.796875,1.3349609375,3.3056640625,2.9580078125,4.5234375,4.8720703125,1.1015625,1.798828125,1.8408203125,3.7275390625,2.21875,5.78515625.376953125,2.0595703125.4052734375,4.1044921875.0869140625,6.1337890625-.3193359375,2.03125-.9873046875,4.001953125-2.0009765625,5.916015625-1.015625,1.9140625-2.3349609375,3.5966796875-3.9580078125,5.0458984375-2.4365234375,1.97265625-5.1630859375,3.349609375-8.1787109375,4.1328125-3.0166015625.783203125-6.1201171875,1.087890625-9.30859375.9130859375-2.26171875-.1162109375-4.48046875-.521484375-6.6552734375-1.2177734375-2.17578125-.6962890625-4.1767578125-1.666015625-6.0029296875-2.9140625-1.8271484375-1.2470703125-3.3798828125-2.7841796875-4.6552734375-4.611328125-1.2763671875-1.8271484375-2.1748046875-3.9287109375-2.6962890625-6.3076171875-.1171875-.7529296875-.2041015625-1.4921875-.26171875-2.21875-.0576171875-.724609375-.029296875-1.435546875.0869140625-2.130859375.2900390625-1.16015625.8115234375-2.2041015625,1.56640625-3.1318359375.7529296875-.927734375,1.5947265625-1.740234375,2.5234375-2.4365234375.9267578125-.6962890625,1.83984375-1.2314453125,2.740234375-1.609375.8984375-.376953125,1.6376953125-.623046875,2.21875-.7392578125.5791015625-.0576171875,1.0576171875-.013671875,1.435546875.1298828125.3759765625.1455078125.65234375.3486328125.826171875.609375s.2890625.521484375.34765625.783203125c.0576171875.2607421875.0869140625.4501953125.0869140625.5654296875.0576171875,1.1611328125.3046875,2.3642578125.740234375,3.6103515625.4345703125,1.248046875,1,2.4228515625,1.6962890625,3.5234375.6953125,1.1025390625,1.5361328125,2.087890625,2.5224609375,2.9580078125s2.087890625,1.4794921875,3.306640625,1.8271484375c1.2744140625.40625,2.55078125.4345703125,3.828125.0869140625,1.6806640625-.4638671875,2.8994140625-1.2314453125,3.6533203125-2.3056640625.7529296875-1.072265625,1.1015625-2.1318359375,1.0439453125-3.17578125-.05859375-.9853515625-.3916015625-1.9853515625-1-3.0009765625-.609375-1.0146484375-1.435546875-1.986328125-2.4794921875-2.9150390625-1.9140625-1.623046875-4.0322265625-3.1015625-6.3515625-4.4365234375-2.3203125-1.333984375-4.58203125-2.7255859375-6.78515625-4.17578125-2.205078125-1.44921875-4.2197265625-3.07421875-6.046875-4.8720703125-1.8271484375-1.796875-3.205078125-4.001953125-4.1328125-6.6123046875-1.1025390625-3.4794921875-1.173828125-6.5537109375-.2177734375-9.2216796875.95703125-2.6669921875,2.537109375-4.900390625,4.7421875-6.69921875,2.203125-1.796875,4.798828125-3.1455078125,7.7861328125-4.0458984375,2.986328125-.8984375,5.9296875-1.2607421875,8.8310546875-1.0869140625,2.4931640625.1171875,4.9150390625.5654296875,7.263671875,1.3486328125,2.349609375.7822265625,4.494140625,1.8271484375,6.4384765625,3.1318359375,1.9423828125,1.3046875,3.595703125,2.857421875,4.958984375,4.654296875,1.3623046875,1.798828125,2.275390625,3.7705078125,2.740234375,5.916015625.2314453125,1.3349609375.0283203125,2.56640625-.6083984375,3.697265625-.6396484375,1.130859375-1.4658203125,2.1181640625-2.4794921875,2.9580078125-1.015625.841796875-2.1181640625,1.4794921875-3.306640625,1.9140625-1.189453125.435546875-2.189453125.5654296875-3.0009765625.3916015625-1.1025390625-.4052734375-1.9443359375-1.3046875-2.5234375-2.697265625-1.4501953125-3.4794921875-3.1181640625-5.900390625-5.001953125-7.263671875-1.8857421875-1.3623046875-3.654296875-2.0146484375-5.3076171875-1.9580078125-1.65234375.05859375-3.03125.6826171875-4.1318359375,1.8701171875-1.1025390625,1.189453125-1.5966796875,2.625-1.4794921875,4.306640625.0576171875.6396484375.3330078125,1.3203125.826171875,2.044921875.4921875.7255859375,1.14453125,1.4072265625,1.9580078125,2.0439453125Z" fill="#231f20" stroke-width="0"/>
      <path d="M176.458984375,49.1005859375c2.203125,1.2763671875,4.0888671875,2.8427734375,5.6552734375,4.6982421875,1.5654296875,1.8564453125,2.8837890625,3.88671875,3.9580078125,6.08984375,1.072265625,2.205078125,1.927734375,4.5390625,2.56640625,7.00390625.6376953125,2.4658203125,1.130859375,4.9453125,1.4794921875,7.4384765625.8115234375,4.9296875,1.2744140625,9.91796875,1.3916015625,14.9638671875.115234375,5.0458984375.0283203125,10.1220703125-.2607421875,15.224609375-.1171875,1.4501953125-.232421875,2.6396484375-.3486328125,3.5673828125s-.333984375,1.6826171875-.65234375,2.26171875c-.3193359375.580078125-.76953125,1.0439453125-1.3486328125,1.3916015625-.580078125.3486328125-1.3916015625.666015625-2.435546875.95703125-.9873046875.1162109375-2.015625.203125-3.0888671875.26171875-1.0732421875.056640625-2.07421875-.232421875-3.0009765625-.8701171875-.8701171875-.5791015625-1.595703125-1.56640625-2.1748046875-2.9580078125-.5810546875-1.392578125-.900390625-3.3935546875-.95703125-6.0029296875v-.8701171875c-1.451171875-.173828125-3.17578125-.318359375-5.1767578125-.435546875-2.0009765625-.115234375-4.0458984375-.1875-6.1337890625-.216796875s-4.103515625-.0439453125-6.0458984375-.0439453125h-4.916015625c-.05859375.5224609375-.130859375,1.3916015625-.2177734375,2.6103515625-.0869140625,1.2177734375-.275390625,2.435546875-.5654296875,3.6533203125-.291015625,1.21875-.681640625,2.3212890625-1.173828125,3.306640625-.494140625.986328125-1.1748046875,1.5068359375-2.044921875,1.5654296875-.8125.0576171875-1.740234375.1162109375-2.7841796875.1748046875-1.0439453125.056640625-2.0595703125-.05859375-3.044921875-.3486328125-.986328125-.23046875-1.8134765625-.6962890625-2.4794921875-1.3916015625-.6669921875-.6962890625-1.0302734375-1.796875-1.0869140625-3.306640625,0-1.796875.0283203125-3.8564453125.0869140625-6.1767578125.056640625-2.3193359375.173828125-4.841796875.34765625-7.568359375.115234375-2.2626953125.3046875-4.7421875.5654296875-7.439453125.2607421875-2.6962890625.6376953125-5.4658203125,1.130859375-8.3076171875.4921875-2.841796875,1.130859375-5.68359375,1.9140625-8.5263671875.783203125-2.8408203125,1.7685546875-5.5380859375,2.9580078125-8.0908203125,1.1884765625-2.5517578125,2.5947265625-4.900390625,4.2197265625-7.046875,1.623046875-2.1455078125,3.5673828125-3.9443359375,5.8291015625-5.39453125,2.6669921875-1.681640625,5.5966796875-2.5224609375,8.787109375-2.5224609375,3.1884765625,0,6.205078125.7822265625,9.0478515625,2.3486328125ZM155.3173828125,88.685546875c3.654296875-.2890625,7.2939453125-.5068359375,10.9189453125-.65234375,3.6240234375-.14453125,7.2646484375-.1591796875,10.9189453125-.0439453125.173828125-4.1171875,0-7.7998046875-.5224609375-11.048828125-.521484375-3.2470703125-1.248046875-5.98828125-2.1748046875-8.2216796875-.9287109375-2.2314453125-2.03125-3.943359375-3.306640625-5.1328125-1.2763671875-1.1875-2.5810546875-1.783203125-3.9140625-1.783203125-1.1611328125,0-2.3642578125.595703125-3.611328125,1.783203125-1.2470703125,1.189453125-2.4072265625,2.9296875-3.4794921875,5.2197265625-1.07421875,2.2919921875-2.044921875,5.1201171875-2.9150390625,8.4833984375-.869140625,3.3642578125-1.5087890625,7.1630859375-1.9140625,11.396484375Z" fill="#231f20" stroke-width="0"/>
      <path d="M237.8798828125,49.1005859375c2.203125,1.2763671875,4.0888671875,2.8427734375,5.6552734375,4.6982421875,1.5654296875,1.8564453125,2.8837890625,3.88671875,3.9580078125,6.08984375,1.072265625,2.205078125,1.927734375,4.5390625,2.56640625,7.00390625.6376953125,2.4658203125,1.130859375,4.9453125,1.4794921875,7.4384765625.8115234375,4.9296875,1.2744140625,9.91796875,1.3916015625,14.9638671875.115234375,5.0458984375.0283203125,10.1220703125-.2607421875,15.224609375-.1171875,1.4501953125-.232421875,2.6396484375-.3486328125,3.5673828125s-.333984375,1.6826171875-.65234375,2.26171875c-.3193359375.580078125-.76953125,1.0439453125-1.3486328125,1.3916015625-.580078125.3486328125-1.3916015625.666015625-2.435546875.95703125-.9873046875.1162109375-2.015625.203125-3.0888671875.26171875-1.0732421875.056640625-2.07421875-.232421875-3.0009765625-.8701171875-.8701171875-.5791015625-1.595703125-1.56640625-2.1748046875-2.9580078125-.5810546875-1.392578125-.900390625-3.3935546875-.95703125-6.0029296875v-.8701171875c-1.451171875-.173828125-3.17578125-.318359375-5.1767578125-.435546875-2.0009765625-.115234375-4.0458984375-.1875-6.1337890625-.216796875s-4.103515625-.0439453125-6.0458984375-.0439453125h-4.916015625c-.05859375.5224609375-.130859375,1.3916015625-.2177734375,2.6103515625-.0869140625,1.2177734375-.275390625,2.435546875-.5654296875,3.6533203125-.291015625,1.21875-.681640625,2.3212890625-1.173828125,3.306640625-.494140625.986328125-1.1748046875,1.5068359375-2.044921875,1.5654296875-.8125.0576171875-1.740234375.1162109375-2.7841796875.1748046875-1.0439453125.056640625-2.0595703125-.05859375-3.044921875-.3486328125-.986328125-.23046875-1.8134765625-.6962890625-2.4794921875-1.3916015625-.6669921875-.6962890625-1.0302734375-1.796875-1.0869140625-3.306640625,0-1.796875.0283203125-3.8564453125.0869140625-6.1767578125.056640625-2.3193359375.173828125-4.841796875.34765625-7.568359375.115234375-2.2626953125.3046875-4.7421875.5654296875-7.439453125.2607421875-2.6962890625.6376953125-5.4658203125,1.130859375-8.3076171875.4921875-2.841796875,1.130859375-5.68359375,1.9140625-8.5263671875.783203125-2.8408203125,1.7685546875-5.5380859375,2.9580078125-8.0908203125,1.1884765625-2.5517578125,2.5947265625-4.900390625,4.2197265625-7.046875,1.623046875-2.1455078125,3.5673828125-3.9443359375,5.8291015625-5.39453125,2.6669921875-1.681640625,5.5966796875-2.5224609375,8.787109375-2.5224609375,3.1884765625,0,6.205078125.7822265625,9.0478515625,2.3486328125ZM216.73828125,88.685546875c3.654296875-.2890625,7.2939453125-.5068359375,10.9189453125-.65234375,3.6240234375-.14453125,7.2646484375-.1591796875,10.9189453125-.0439453125.173828125-4.1171875,0-7.7998046875-.5224609375-11.048828125-.521484375-3.2470703125-1.248046875-5.98828125-2.1748046875-8.2216796875-.9287109375-2.2314453125-2.03125-3.943359375-3.306640625-5.1328125-1.2763671875-1.1875-2.5810546875-1.783203125-3.9140625-1.783203125-1.1611328125,0-2.3642578125.595703125-3.611328125,1.783203125-1.2470703125,1.189453125-2.4072265625,2.9296875-3.4794921875,5.2197265625-1.07421875,2.2919921875-2.044921875,5.1201171875-2.9150390625,8.4833984375-.869140625,3.3642578125-1.5087890625,7.1630859375-1.9140625,11.396484375Z" fill="#231f20" stroke-width="0"/>
    </g>
    <g>
      <path d="M104.59765625,69.2841796875c1.740234375,1.451171875,3.638671875,2.7119140625,5.6982421875,3.78515625,2.05859375,1.0732421875,4.1025390625,2.146484375,6.1337890625,3.21875,2.029296875,1.07421875,3.943359375,2.27734375,5.7421875,3.6103515625,1.796875,1.3349609375,3.3056640625,2.9580078125,4.5234375,4.8720703125,1.1015625,1.798828125,1.8408203125,3.7275390625,2.21875,5.78515625.376953125,2.0595703125.4052734375,4.1044921875.0869140625,6.1337890625-.3193359375,2.03125-.9873046875,4.001953125-2.0009765625,5.916015625-1.015625,1.9140625-2.3349609375,3.5966796875-3.9580078125,5.0458984375-2.4365234375,1.97265625-5.1630859375,3.349609375-8.1787109375,4.1328125-3.0166015625.783203125-6.1201171875,1.087890625-9.30859375.9130859375-2.26171875-.1162109375-4.48046875-.521484375-6.6552734375-1.2177734375-2.17578125-.6962890625-4.1767578125-1.666015625-6.0029296875-2.9140625-1.8271484375-1.2470703125-3.3798828125-2.7841796875-4.6552734375-4.611328125-1.2763671875-1.8271484375-2.1748046875-3.9287109375-2.6962890625-6.3076171875-.1171875-.7529296875-.2041015625-1.4921875-.26171875-2.21875-.0576171875-.724609375-.029296875-1.435546875.0869140625-2.130859375.2900390625-1.16015625.8115234375-2.2041015625,1.56640625-3.1318359375.7529296875-.927734375,1.5947265625-1.740234375,2.5234375-2.4365234375.9267578125-.6962890625,1.83984375-1.2314453125,2.740234375-1.609375.8984375-.376953125,1.6376953125-.623046875,2.21875-.7392578125.5791015625-.0576171875,1.0576171875-.013671875,1.435546875.1298828125.3759765625.1455078125.65234375.3486328125.826171875.609375s.2890625.521484375.34765625.783203125c.0576171875.2607421875.0869140625.4501953125.0869140625.5654296875.0576171875,1.1611328125.3046875,2.3642578125.740234375,3.6103515625.4345703125,1.248046875,1,2.4228515625,1.6962890625,3.5234375.6953125,1.1025390625,1.5361328125,2.087890625,2.5224609375,2.9580078125s2.087890625,1.4794921875,3.306640625,1.8271484375c1.2744140625.40625,2.55078125.4345703125,3.828125.0869140625,1.6806640625-.4638671875,2.8994140625-1.2314453125,3.6533203125-2.3056640625.7529296875-1.072265625,1.1015625-2.1318359375,1.0439453125-3.17578125-.05859375-.9853515625-.3916015625-1.9853515625-1-3.0009765625-.609375-1.0146484375-1.435546875-1.986328125-2.4794921875-2.9150390625-1.9140625-1.623046875-4.0322265625-3.1015625-6.3515625-4.4365234375-2.3203125-1.333984375-4.58203125-2.7255859375-6.78515625-4.17578125-2.205078125-1.44921875-4.2197265625-3.07421875-6.046875-4.8720703125-1.8271484375-1.796875-3.205078125-4.001953125-4.1328125-6.6123046875-1.1025390625-3.4794921875-1.173828125-6.5537109375-.2177734375-9.2216796875.95703125-2.6669921875,2.537109375-4.900390625,4.7421875-6.69921875,2.203125-1.796875,4.798828125-3.1455078125,7.7861328125-4.0458984375,2.986328125-.8984375,5.9296875-1.2607421875,8.8310546875-1.0869140625,2.4931640625.1171875,4.9150390625.5654296875,7.263671875,1.3486328125,2.349609375.7822265625,4.494140625,1.8271484375,6.4384765625,3.1318359375,1.9423828125,1.3046875,3.595703125,2.857421875,4.958984375,4.654296875,1.3623046875,1.798828125,2.275390625,3.7705078125,2.740234375,5.916015625.2314453125,1.3349609375.0283203125,2.56640625-.6083984375,3.697265625-.6396484375,1.130859375-1.4658203125,2.1181640625-2.4794921875,2.9580078125-1.015625.841796875-2.1181640625,1.4794921875-3.306640625,1.9140625-1.189453125.435546875-2.189453125.5654296875-3.0009765625.3916015625-1.1025390625-.4052734375-1.9443359375-1.3046875-2.5234375-2.697265625-1.4501953125-3.4794921875-3.1181640625-5.900390625-5.001953125-7.263671875-1.8857421875-1.3623046875-3.654296875-2.0146484375-5.3076171875-1.9580078125-1.65234375.05859375-3.03125.6826171875-4.1318359375,1.8701171875-1.1025390625,1.189453125-1.5966796875,2.625-1.4794921875,4.306640625.0576171875.6396484375.3330078125,1.3203125.826171875,2.044921875.4921875.7255859375,1.14453125,1.4072265625,1.9580078125,2.0439453125Z" fill="none" stroke="#181818" stroke-linecap="round" stroke-linejoin="round" stroke-width="33"/>
      <path d="M176.458984375,49.1005859375c2.203125,1.2763671875,4.0888671875,2.8427734375,5.6552734375,4.6982421875,1.5654296875,1.8564453125,2.8837890625,3.88671875,3.9580078125,6.08984375,1.072265625,2.205078125,1.927734375,4.5390625,2.56640625,7.00390625.6376953125,2.4658203125,1.130859375,4.9453125,1.4794921875,7.4384765625.8115234375,4.9296875,1.2744140625,9.91796875,1.3916015625,14.9638671875.115234375,5.0458984375.0283203125,10.1220703125-.2607421875,15.224609375-.1171875,1.4501953125-.232421875,2.6396484375-.3486328125,3.5673828125s-.333984375,1.6826171875-.65234375,2.26171875c-.3193359375.580078125-.76953125,1.0439453125-1.3486328125,1.3916015625-.580078125.3486328125-1.3916015625.666015625-2.435546875.95703125-.9873046875.1162109375-2.015625.203125-3.0888671875.26171875-1.0732421875.056640625-2.07421875-.232421875-3.0009765625-.8701171875-.8701171875-.5791015625-1.595703125-1.56640625-2.1748046875-2.9580078125-.5810546875-1.392578125-.900390625-3.3935546875-.95703125-6.0029296875v-.8701171875c-1.451171875-.173828125-3.17578125-.318359375-5.1767578125-.435546875-2.0009765625-.115234375-4.0458984375-.1875-6.1337890625-.216796875s-4.103515625-.0439453125-6.0458984375-.0439453125h-4.916015625c-.05859375.5224609375-.130859375,1.3916015625-.2177734375,2.6103515625-.0869140625,1.2177734375-.275390625,2.435546875-.5654296875,3.6533203125-.291015625,1.21875-.681640625,2.3212890625-1.173828125,3.306640625-.494140625.986328125-1.1748046875,1.5068359375-2.044921875,1.5654296875-.8125.0576171875-1.740234375.1162109375-2.7841796875.1748046875-1.0439453125.056640625-2.0595703125-.05859375-3.044921875-.3486328125-.986328125-.23046875-1.8134765625-.6962890625-2.4794921875-1.3916015625-.6669921875-.6962890625-1.0302734375-1.796875-1.0869140625-3.306640625,0-1.796875.0283203125-3.8564453125.0869140625-6.1767578125.056640625-2.3193359375.173828125-4.841796875.34765625-7.568359375.115234375-2.2626953125.3046875-4.7421875.5654296875-7.439453125.2607421875-2.6962890625.6376953125-5.4658203125,1.130859375-8.3076171875.4921875-2.841796875,1.130859375-5.68359375,1.9140625-8.5263671875.783203125-2.8408203125,1.7685546875-5.5380859375,2.9580078125-8.0908203125,1.1884765625-2.5517578125,2.5947265625-4.900390625,4.2197265625-7.046875,1.623046875-2.1455078125,3.5673828125-3.9443359375,5.8291015625-5.39453125,2.6669921875-1.681640625,5.5966796875-2.5224609375,8.787109375-2.5224609375,3.1884765625,0,6.205078125.7822265625,9.0478515625,2.3486328125ZM155.3173828125,88.685546875c3.654296875-.2890625,7.2939453125-.5068359375,10.9189453125-.65234375,3.6240234375-.14453125,7.2646484375-.1591796875,10.9189453125-.0439453125.173828125-4.1171875,0-7.7998046875-.5224609375-11.048828125-.521484375-3.2470703125-1.248046875-5.98828125-2.1748046875-8.2216796875-.9287109375-2.2314453125-2.03125-3.943359375-3.306640625-5.1328125-1.2763671875-1.1875-2.5810546875-1.783203125-3.9140625-1.783203125-1.1611328125,0-2.3642578125.595703125-3.611328125,1.783203125-1.2470703125,1.189453125-2.4072265625,2.9296875-3.4794921875,5.2197265625-1.07421875,2.2919921875-2.044921875,5.1201171875-2.9150390625,8.4833984375-.869140625,3.3642578125-1.5087890625,7.1630859375-1.9140625,11.396484375Z" fill="none" stroke="#181818" stroke-linecap="round" stroke-linejoin="round" stroke-width="33"/>
      <path d="M237.8798828125,49.1005859375c2.203125,1.2763671875,4.0888671875,2.8427734375,5.6552734375,4.6982421875,1.5654296875,1.8564453125,2.8837890625,3.88671875,3.9580078125,6.08984375,1.072265625,2.205078125,1.927734375,4.5390625,2.56640625,7.00390625.6376953125,2.4658203125,1.130859375,4.9453125,1.4794921875,7.4384765625.8115234375,4.9296875,1.2744140625,9.91796875,1.3916015625,14.9638671875.115234375,5.0458984375.0283203125,10.1220703125-.2607421875,15.224609375-.1171875,1.4501953125-.232421875,2.6396484375-.3486328125,3.5673828125s-.333984375,1.6826171875-.65234375,2.26171875c-.3193359375.580078125-.76953125,1.0439453125-1.3486328125,1.3916015625-.580078125.3486328125-1.3916015625.666015625-2.435546875.95703125-.9873046875.1162109375-2.015625.203125-3.0888671875.26171875-1.0732421875.056640625-2.07421875-.232421875-3.0009765625-.8701171875-.8701171875-.5791015625-1.595703125-1.56640625-2.1748046875-2.9580078125-.5810546875-1.392578125-.900390625-3.3935546875-.95703125-6.0029296875v-.8701171875c-1.451171875-.173828125-3.17578125-.318359375-5.1767578125-.435546875-2.0009765625-.115234375-4.0458984375-.1875-6.1337890625-.216796875s-4.103515625-.0439453125-6.0458984375-.0439453125h-4.916015625c-.05859375.5224609375-.130859375,1.3916015625-.2177734375,2.6103515625-.0869140625,1.2177734375-.275390625,2.435546875-.5654296875,3.6533203125-.291015625,1.21875-.681640625,2.3212890625-1.173828125,3.306640625-.494140625.986328125-1.1748046875,1.5068359375-2.044921875,1.5654296875-.8125.0576171875-1.740234375.1162109375-2.7841796875.1748046875-1.0439453125.056640625-2.0595703125-.05859375-3.044921875-.3486328125-.986328125-.23046875-1.8134765625-.6962890625-2.4794921875-1.3916015625-.6669921875-.6962890625-1.0302734375-1.796875-1.0869140625-3.306640625,0-1.796875.0283203125-3.8564453125.0869140625-6.1767578125.056640625-2.3193359375.173828125-4.841796875.34765625-7.568359375.115234375-2.2626953125.3046875-4.7421875.5654296875-7.439453125.2607421875-2.6962890625.6376953125-5.4658203125,1.130859375-8.3076171875.4921875-2.841796875,1.130859375-5.68359375,1.9140625-8.5263671875.783203125-2.8408203125,1.7685546875-5.5380859375,2.9580078125-8.0908203125,1.1884765625-2.5517578125,2.5947265625-4.900390625,4.2197265625-7.046875,1.623046875-2.1455078125,3.5673828125-3.9443359375,5.8291015625-5.39453125,2.6669921875-1.681640625,5.5966796875-2.5224609375,8.787109375-2.5224609375,3.1884765625,0,6.205078125.7822265625,9.0478515625,2.3486328125ZM216.73828125,88.685546875c3.654296875-.2890625,7.2939453125-.5068359375,10.9189453125-.65234375,3.6240234375-.14453125,7.2646484375-.1591796875,10.9189453125-.0439453125.173828125-4.1171875,0-7.7998046875-.5224609375-11.048828125-.521484375-3.2470703125-1.248046875-5.98828125-2.1748046875-8.2216796875-.9287109375-2.2314453125-2.03125-3.943359375-3.306640625-5.1328125-1.2763671875-1.1875-2.5810546875-1.783203125-3.9140625-1.783203125-1.1611328125,0-2.3642578125.595703125-3.611328125,1.783203125-1.2470703125,1.189453125-2.4072265625,2.9296875-3.4794921875,5.2197265625-1.07421875,2.2919921875-2.044921875,5.1201171875-2.9150390625,8.4833984375-.869140625,3.3642578125-1.5087890625,7.1630859375-1.9140625,11.396484375Z" fill="none" stroke="#181818" stroke-linecap="round" stroke-linejoin="round" stroke-width="33"/>
    </g>
    <g>
      <path d="M104.59765625,69.2841796875c1.740234375,1.451171875,3.638671875,2.7119140625,5.6982421875,3.78515625,2.05859375,1.0732421875,4.1025390625,2.146484375,6.1337890625,3.21875,2.029296875,1.07421875,3.943359375,2.27734375,5.7421875,3.6103515625,1.796875,1.3349609375,3.3056640625,2.9580078125,4.5234375,4.8720703125,1.1015625,1.798828125,1.8408203125,3.7275390625,2.21875,5.78515625.376953125,2.0595703125.4052734375,4.1044921875.0869140625,6.1337890625-.3193359375,2.03125-.9873046875,4.001953125-2.0009765625,5.916015625-1.015625,1.9140625-2.3349609375,3.5966796875-3.9580078125,5.0458984375-2.4365234375,1.97265625-5.1630859375,3.349609375-8.1787109375,4.1328125-3.0166015625.783203125-6.1201171875,1.087890625-9.30859375.9130859375-2.26171875-.1162109375-4.48046875-.521484375-6.6552734375-1.2177734375-2.17578125-.6962890625-4.1767578125-1.666015625-6.0029296875-2.9140625-1.8271484375-1.2470703125-3.3798828125-2.7841796875-4.6552734375-4.611328125-1.2763671875-1.8271484375-2.1748046875-3.9287109375-2.6962890625-6.3076171875-.1171875-.7529296875-.2041015625-1.4921875-.26171875-2.21875-.0576171875-.724609375-.029296875-1.435546875.0869140625-2.130859375.2900390625-1.16015625.8115234375-2.2041015625,1.56640625-3.1318359375.7529296875-.927734375,1.5947265625-1.740234375,2.5234375-2.4365234375.9267578125-.6962890625,1.83984375-1.2314453125,2.740234375-1.609375.8984375-.376953125,1.6376953125-.623046875,2.21875-.7392578125.5791015625-.0576171875,1.0576171875-.013671875,1.435546875.1298828125.3759765625.1455078125.65234375.3486328125.826171875.609375s.2890625.521484375.34765625.783203125c.0576171875.2607421875.0869140625.4501953125.0869140625.5654296875.0576171875,1.1611328125.3046875,2.3642578125.740234375,3.6103515625.4345703125,1.248046875,1,2.4228515625,1.6962890625,3.5234375.6953125,1.1025390625,1.5361328125,2.087890625,2.5224609375,2.9580078125s2.087890625,1.4794921875,3.306640625,1.8271484375c1.2744140625.40625,2.55078125.4345703125,3.828125.0869140625,1.6806640625-.4638671875,2.8994140625-1.2314453125,3.6533203125-2.3056640625.7529296875-1.072265625,1.1015625-2.1318359375,1.0439453125-3.17578125-.05859375-.9853515625-.3916015625-1.9853515625-1-3.0009765625-.609375-1.0146484375-1.435546875-1.986328125-2.4794921875-2.9150390625-1.9140625-1.623046875-4.0322265625-3.1015625-6.3515625-4.4365234375-2.3203125-1.333984375-4.58203125-2.7255859375-6.78515625-4.17578125-2.205078125-1.44921875-4.2197265625-3.07421875-6.046875-4.8720703125-1.8271484375-1.796875-3.205078125-4.001953125-4.1328125-6.6123046875-1.1025390625-3.4794921875-1.173828125-6.5537109375-.2177734375-9.2216796875.95703125-2.6669921875,2.537109375-4.900390625,4.7421875-6.69921875,2.203125-1.796875,4.798828125-3.1455078125,7.7861328125-4.0458984375,2.986328125-.8984375,5.9296875-1.2607421875,8.8310546875-1.0869140625,2.4931640625.1171875,4.9150390625.5654296875,7.263671875,1.3486328125,2.349609375.7822265625,4.494140625,1.8271484375,6.4384765625,3.1318359375,1.9423828125,1.3046875,3.595703125,2.857421875,4.958984375,4.654296875,1.3623046875,1.798828125,2.275390625,3.7705078125,2.740234375,5.916015625.2314453125,1.3349609375.0283203125,2.56640625-.6083984375,3.697265625-.6396484375,1.130859375-1.4658203125,2.1181640625-2.4794921875,2.9580078125-1.015625.841796875-2.1181640625,1.4794921875-3.306640625,1.9140625-1.189453125.435546875-2.189453125.5654296875-3.0009765625.3916015625-1.1025390625-.4052734375-1.9443359375-1.3046875-2.5234375-2.697265625-1.4501953125-3.4794921875-3.1181640625-5.900390625-5.001953125-7.263671875-1.8857421875-1.3623046875-3.654296875-2.0146484375-5.3076171875-1.9580078125-1.65234375.05859375-3.03125.6826171875-4.1318359375,1.8701171875-1.1025390625,1.189453125-1.5966796875,2.625-1.4794921875,4.306640625.0576171875.6396484375.3330078125,1.3203125.826171875,2.044921875.4921875.7255859375,1.14453125,1.4072265625,1.9580078125,2.0439453125Z" fill="#fff" stroke-width="0"/>
      <path d="M176.458984375,49.1005859375c2.203125,1.2763671875,4.0888671875,2.8427734375,5.6552734375,4.6982421875,1.5654296875,1.8564453125,2.8837890625,3.88671875,3.9580078125,6.08984375,1.072265625,2.205078125,1.927734375,4.5390625,2.56640625,7.00390625.6376953125,2.4658203125,1.130859375,4.9453125,1.4794921875,7.4384765625.8115234375,4.9296875,1.2744140625,9.91796875,1.3916015625,14.9638671875.115234375,5.0458984375.0283203125,10.1220703125-.2607421875,15.224609375-.1171875,1.4501953125-.232421875,2.6396484375-.3486328125,3.5673828125s-.333984375,1.6826171875-.65234375,2.26171875c-.3193359375.580078125-.76953125,1.0439453125-1.3486328125,1.3916015625-.580078125.3486328125-1.3916015625.666015625-2.435546875.95703125-.9873046875.1162109375-2.015625.203125-3.0888671875.26171875-1.0732421875.056640625-2.07421875-.232421875-3.0009765625-.8701171875-.8701171875-.5791015625-1.595703125-1.56640625-2.1748046875-2.9580078125-.5810546875-1.392578125-.900390625-3.3935546875-.95703125-6.0029296875v-.8701171875c-1.451171875-.173828125-3.17578125-.318359375-5.1767578125-.435546875-2.0009765625-.115234375-4.0458984375-.1875-6.1337890625-.216796875s-4.103515625-.0439453125-6.0458984375-.0439453125h-4.916015625c-.05859375.5224609375-.130859375,1.3916015625-.2177734375,2.6103515625-.0869140625,1.2177734375-.275390625,2.435546875-.5654296875,3.6533203125-.291015625,1.21875-.681640625,2.3212890625-1.173828125,3.306640625-.494140625.986328125-1.1748046875,1.5068359375-2.044921875,1.5654296875-.8125.0576171875-1.740234375.1162109375-2.7841796875.1748046875-1.0439453125.056640625-2.0595703125-.05859375-3.044921875-.3486328125-.986328125-.23046875-1.8134765625-.6962890625-2.4794921875-1.3916015625-.6669921875-.6962890625-1.0302734375-1.796875-1.0869140625-3.306640625,0-1.796875.0283203125-3.8564453125.0869140625-6.1767578125.056640625-2.3193359375.173828125-4.841796875.34765625-7.568359375.115234375-2.2626953125.3046875-4.7421875.5654296875-7.439453125.2607421875-2.6962890625.6376953125-5.4658203125,1.130859375-8.3076171875.4921875-2.841796875,1.130859375-5.68359375,1.9140625-8.5263671875.783203125-2.8408203125,1.7685546875-5.5380859375,2.9580078125-8.0908203125,1.1884765625-2.5517578125,2.5947265625-4.900390625,4.2197265625-7.046875,1.623046875-2.1455078125,3.5673828125-3.9443359375,5.8291015625-5.39453125,2.6669921875-1.681640625,5.5966796875-2.5224609375,8.787109375-2.5224609375,3.1884765625,0,6.205078125.7822265625,9.0478515625,2.3486328125ZM155.3173828125,88.685546875c3.654296875-.2890625,7.2939453125-.5068359375,10.9189453125-.65234375,3.6240234375-.14453125,7.2646484375-.1591796875,10.9189453125-.0439453125.173828125-4.1171875,0-7.7998046875-.5224609375-11.048828125-.521484375-3.2470703125-1.248046875-5.98828125-2.1748046875-8.2216796875-.9287109375-2.2314453125-2.03125-3.943359375-3.306640625-5.1328125-1.2763671875-1.1875-2.5810546875-1.783203125-3.9140625-1.783203125-1.1611328125,0-2.3642578125.595703125-3.611328125,1.783203125-1.2470703125,1.189453125-2.4072265625,2.9296875-3.4794921875,5.2197265625-1.07421875,2.2919921875-2.044921875,5.1201171875-2.9150390625,8.4833984375-.869140625,3.3642578125-1.5087890625,7.1630859375-1.9140625,11.396484375Z" fill="#fff" stroke-width="0"/>
      <path d="M237.8798828125,49.1005859375c2.203125,1.2763671875,4.0888671875,2.8427734375,5.6552734375,4.6982421875,1.5654296875,1.8564453125,2.8837890625,3.88671875,3.9580078125,6.08984375,1.072265625,2.205078125,1.927734375,4.5390625,2.56640625,7.00390625.6376953125,2.4658203125,1.130859375,4.9453125,1.4794921875,7.4384765625.8115234375,4.9296875,1.2744140625,9.91796875,1.3916015625,14.9638671875.115234375,5.0458984375.0283203125,10.1220703125-.2607421875,15.224609375-.1171875,1.4501953125-.232421875,2.6396484375-.3486328125,3.5673828125s-.333984375,1.6826171875-.65234375,2.26171875c-.3193359375.580078125-.76953125,1.0439453125-1.3486328125,1.3916015625-.580078125.3486328125-1.3916015625.666015625-2.435546875.95703125-.9873046875.1162109375-2.015625.203125-3.0888671875.26171875-1.0732421875.056640625-2.07421875-.232421875-3.0009765625-.8701171875-.8701171875-.5791015625-1.595703125-1.56640625-2.1748046875-2.9580078125-.5810546875-1.392578125-.900390625-3.3935546875-.95703125-6.0029296875v-.8701171875c-1.451171875-.173828125-3.17578125-.318359375-5.1767578125-.435546875-2.0009765625-.115234375-4.0458984375-.1875-6.1337890625-.216796875s-4.103515625-.0439453125-6.0458984375-.0439453125h-4.916015625c-.05859375.5224609375-.130859375,1.3916015625-.2177734375,2.6103515625-.0869140625,1.2177734375-.275390625,2.435546875-.5654296875,3.6533203125-.291015625,1.21875-.681640625,2.3212890625-1.173828125,3.306640625-.494140625.986328125-1.1748046875,1.5068359375-2.044921875,1.5654296875-.8125.0576171875-1.740234375.1162109375-2.7841796875.1748046875-1.0439453125.056640625-2.0595703125-.05859375-3.044921875-.3486328125-.986328125-.23046875-1.8134765625-.6962890625-2.4794921875-1.3916015625-.6669921875-.6962890625-1.0302734375-1.796875-1.0869140625-3.306640625,0-1.796875.0283203125-3.8564453125.0869140625-6.1767578125.056640625-2.3193359375.173828125-4.841796875.34765625-7.568359375.115234375-2.2626953125.3046875-4.7421875.5654296875-7.439453125.2607421875-2.6962890625.6376953125-5.4658203125,1.130859375-8.3076171875.4921875-2.841796875,1.130859375-5.68359375,1.9140625-8.5263671875.783203125-2.8408203125,1.7685546875-5.5380859375,2.9580078125-8.0908203125,1.1884765625-2.5517578125,2.5947265625-4.900390625,4.2197265625-7.046875,1.623046875-2.1455078125,3.5673828125-3.9443359375,5.8291015625-5.39453125,2.6669921875-1.681640625,5.5966796875-2.5224609375,8.787109375-2.5224609375,3.1884765625,0,6.205078125.7822265625,9.0478515625,2.3486328125ZM216.73828125,88.685546875c3.654296875-.2890625,7.2939453125-.5068359375,10.9189453125-.65234375,3.6240234375-.14453125,7.2646484375-.1591796875,10.9189453125-.0439453125.173828125-4.1171875,0-7.7998046875-.5224609375-11.048828125-.521484375-3.2470703125-1.248046875-5.98828125-2.1748046875-8.2216796875-.9287109375-2.2314453125-2.03125-3.943359375-3.306640625-5.1328125-1.2763671875-1.1875-2.5810546875-1.783203125-3.9140625-1.783203125-1.1611328125,0-2.3642578125.595703125-3.611328125,1.783203125-1.2470703125,1.189453125-2.4072265625,2.9296875-3.4794921875,5.2197265625-1.07421875,2.2919921875-2.044921875,5.1201171875-2.9150390625,8.4833984375-.869140625,3.3642578125-1.5087890625,7.1630859375-1.9140625,11.396484375Z" fill="#fff" stroke-width="0"/>
    </g>
  </g>
</svg>