<?xml version="1.0" encoding="UTF-8"?>
<svg id="Layer_1" data-name="Layer 1" xmlns="http://www.w3.org/2000/svg" width="280" height="280" xmlns:xlink="http://www.w3.org/1999/xlink" viewBox="0 0 280 280">
  <a xlink:href="https://www.notion.so/dmmnotes/Discourse-analysis-4836229dbfa44858b6498522e4f75888?pvs=4">
    <g>
      <g>
        <path d="M67.904748044216831,188.347428357713397c3.697887385753347-5.507292059264728,7.753156450620736-10.746770401841786,11.92174484615316-15.901311972434996,5.048958123230477,2.359157124377816,8.44237203832563,6.557520930164173,11.695364638913816,10.821555289505341,1.045730608379017,1.37070828038668.185398720463127,3.149024803244174-.628066813609621,4.54140888580514-6.894701946217538,11.801581883450126-13.117837724843412,24.000764009229897-20.863176635832133,35.298547003245403-.532029741127189.776066071150126-.958393381411952,1.797362810793857-2.225090671623548,1.585685622754681-1.673871563845751.085602093509806-1.836986605787388-1.642948148266441-2.839447750786348-2.363594838714562-1.363301086670617-1.447312955786401.003532926257321-2.487843973378403.618849956408667-3.543880974846616,1.980567879236332-3.399153782947906,3.803486742694076-6.896556630583291,5.926802303543809-10.203469765770933,2.094621330033988-3.26226596460765,2.050293347889237-6.430467575059083.340603163005653-9.7596748253236-1.122888922076527-2.186529688044175-2.181561256909845-4.406277987978683-3.277801418182207-6.606591285210015-.615416417624147-1.235243713867021-1.14683105657241-2.457069424808651-.669781617991248-3.868673139009843Z" fill="none" stroke="#181818" stroke-linecap="round" stroke-linejoin="round" stroke-width="50"/>
        <path d="M84.836519556292842,230.683242202024303c-2.37475891000031.622842638769725-4.691294421958446.285467844021696-6.985362489509498-.422607539409-.741766614823064-2.242647435163235.816810233342039-3.763994600978549,1.876185986149721-5.297917354888341,6.572150925898313-9.516171051989659,13.192941188632176-18.998507912683635,19.747976052989543-28.527192980080144,5.152548717702302-7.489928868475545,5.627083730061713-15.932965152858742.797299825859227-22.36796933781261-2.237952517658414-2.981767229732213-5.523503049664214-4.86803372502618-8.272440609216574-7.320016014315115-1.114883641759661-.994454636262162-2.884546790923196-1.634558601133904-2.463589647395565-3.686634125981072,2.497105579597701-1.354839764233475,4.978349338171029-2.760263066491461,7.981161723282639-2.502011436938119-.082934037089217.355196029699073-.253146661205392.659825788432499-.519022911552383.909028576952551-2.032966997458061,1.230296959054613-.977646299550543,2.268093054073688.137302031209401,3.432626708823591,3.989858981847647,4.16734223621097,8.349807058633814,7.964562893219409,12.10991483795442,12.366105961295034,4.660705796602997,5.455745322136863,5.18747757053643,10.056977805048518,1.810859702778544,16.517933241533683-3.778380302008372,7.229716230056511-8.942337548145588,13.501322884167166-13.723705550266459,20.034208315197247-4.131944178267076,5.645575700633344-8.523218596445076,11.100261871028124-12.496578952283016,16.864445985622297Z" fill="none" stroke="#181818" stroke-linecap="round" stroke-linejoin="round" stroke-width="50"/>
        <path d="M89.536588675169696,163.060904849538019c1.981377330721443,2.87654235548689,4.896809760968608,4.852408151278723,7.637285701330256,6.730462704808815,9.064479095794013,6.211922124231933,9.307779292330451,18.991634865913511,2.762477857968406,27.716328912574681-5.780620808938693,7.705440384084795-11.101909838305801,15.759577394135704-16.505407666074461,23.74135227759507-1.977234555191899,2.920680634042583-4.449332246162157,5.559141478977836-5.579795448786172,9.01159975164046-1.391046096916398.216505704760493-2.171554209553506-1.178750760938783-3.434559615563558-1.300260846252058-.991548387841249-1.633660819703437.148873638483565-2.798789410182508.916785542849539-4.017559336260092,6.82324195279034-10.829068762281167,13.975492896519427-21.447713977249805,20.552392427180166-32.43623437315,2.744587556138868-4.585590995910025,3.108485153359652-9.183151679038929,1.439267768329955-14.162430376696648-1.241194276570241-3.702530332466267-4.581587563852736-5.32560727517739-7.123872803947961-7.761565265938771-1.584459867486657-1.518201669448899-4.227085160309798-2.31901866928456-3.89142907693531-5.273098326941181.773064297820383-1.18358936803088,1.976056708455872-1.750380507179216,3.226855313649139-2.248595121380276Z" fill="none" stroke="#181818" stroke-linecap="round" stroke-linejoin="round" stroke-width="50"/>
        <path d="M67.805523408218505,224.693313186588966c8.632430906212903-11.996946471650517,15.168097373598357-25.249103867232407,22.686580662788401-37.912752340538646.96882054429625-1.63183822629253.89800068610748-3.179957556852969-.637219107933561-4.62082113413453-3.392956571053219-3.18446361367387-6.691402491391273-6.469578694401207-10.028392072703355-9.713623326637389,1.077343240684058-1.861656682942339,2.288672152402796-3.618350944807389,3.941458890514696-5.02921631776735,4.617719543683052,2.833927236926684,9.052160064116833,6.113232310754029,12.241464317008649,10.377122404441252,2.587949334734731,3.459930334085584,1.26163371705843,7.811184932155811-.552569414187019,11.585663049258073-2.51385536800808,5.230153590298869-5.965774612430323,9.906776693265783-9.107697802501207,14.750950786396061-5.080624784794054,7.833239256344314-9.80137897800887,15.906884341495243-15.368841730047279,23.421275389227958-1.110484628550694-.894885450052243-2.74777369198091-1.204938148805013-3.174783742939326-2.858598510245429Z" fill="none" stroke="#181818" stroke-linecap="round" stroke-linejoin="round" stroke-width="50"/>
        <path d="M67.904748044216831,188.347428357713397c1.516455523833429,3.197076752339854,2.896710008510126,6.468171127597088,4.583774177772284,9.572556205039291,2.118845511919062,3.898958158602909,2.275609216043449,7.422629626398702-.204975406764788,11.377698149546632-2.638945418872026,4.207569390559001-5.457130106475233,8.366241498210002-7.317467328848579,13.032093024645292-5.980276151793078-6.52184981375467-7.395799232024729-17.388125889579896-3.252380015024755-25.357604273302059,1.645371300852275-3.164744386360326,3.700270092256687-6.056283387071744,6.191048572865839-8.624743105929156Z" fill="none" stroke="#181818" stroke-linecap="round" stroke-linejoin="round" stroke-width="50"/>
        <path d="M70.980307151157831,227.551911696834395c.113359670716818-3.904916355402747,3.262678888186201-6.240060418460416,5.169097228786995-9.054670778381478,2.952929823430168-4.359672757527733,5.377235874910184-9.036045329363333,8.488335466565331-13.311666704896197,3.667517811334619-5.040286681920406,6.619464290466567-10.600125989902153,9.899598632346169-15.923659789126759.851620601786635-1.382111355442248,1.180409092414266-2.905871757731802,1.608764275408248-4.452707715641736,1.585224828333594-5.72445671620153-2.192274459994223-8.604836493301264-5.91795530089621-11.42094956078472-2.367993011284852-1.789888789044198-4.55336645200623-3.713505487750808-6.460181837248456-5.971349136272693.513595441885627-1.104778219225409,1.466067329514772-1.680395257566488,2.541764801369936-2.107418929695996,1.615262658597203,3.238496658799704,4.897521480070282,4.71679987988864,7.434911371517956,6.9698696079613,6.043764149397248,5.366567487393695,7.383812426651275,12.82581148774625,3.372072122303507,19.820376957997723-6.652576662507272,11.598926460035727-14.267109807977249,22.592393037555667-21.418104957081596,33.877448525152431-.611552214682888.965092423917667-1.093125621595391,1.884853243060206-1.282038288574768,2.983220254958724-1.420609567165229.201526353561349-2.443585359302233-.566552941665577-3.436263514497114-1.408492731270599Z" fill="none" stroke="#181818" stroke-linecap="round" stroke-linejoin="round" stroke-width="50"/>
        <path d="M84.836519556292842,230.683242202024303c.824807875880651-4.603973079880234,4.511349313059327-7.402205944990783,6.988496377387492-10.94683744741269,6.105264700105181-8.736264448241855,13.198955197738542-16.773361817595287,18.349239809947903-26.188273374582423,3.379588215586409-6.178026757306725,3.084101258073133-10.617489206524624-1.65656340309215-15.69372044798547-4.188839220609225-4.485332771817411-8.590907477953806-8.773135288820413-12.942260383519169-13.104539601859869-2.041523047713781-2.032151336074094-1.972357058402849-3.297497803258011,1.122502776157489-3.715155048956149,3.088307302963585,3.107321696646977,6.117259225184171,6.273925306635647,9.298130647983271,9.28990883512779.968276082900047,1.46432951202587,2.485308004279432,2.450650165550542,3.447318341341088,3.922539548806526,1.420836645833333,2.364676280889398,3.678078452838236,3.960813942392633,5.504090305625141,5.951783256467024,2.426989726174725,2.646259376584567,2.870951756331124,5.39276680239891,1.584018955751162,8.812115717128108-2.073237068732851,5.508425588954196-5.3671789124528,10.220449587470284-8.857836382412643,14.833721409246209-6.605725108211118,8.730140522720831-13.020546018180539,17.607005039073556-19.960510025877738,26.081571858825555-.740554156362123.25280570574796-1.481097421516097.505608466839476-2.221711037067507.758453618307612-.218533263261634.074123314727331-.436823382682633.073584743709944-.654915982224338-.001568323112224Z" fill="none" stroke="#181818" stroke-linecap="round" stroke-linejoin="round" stroke-width="50"/>
        <path d="M102.713673085372648,160.145355442645268c4.051561107989983,2.930152807848572,7.207411593984943,6.924158510439156,11.477317694858357,9.603902682507396,2.894986683446405,1.81685920302516,5.72279842356329,3.740720505695208,8.580793716038897,5.616365372414293.199824157520197.952834511499532.399512923722796,1.906032804879942.599187854688353,2.859223154029678-1.877608938681078,1.598758522659409-3.469594629012136.14241809575833-5.144453877572232-.469602724475408-6.459308039888128-3.3376543305003-12.013068759155431-7.812187334233386-16.603404950972617-13.442916333944595-1.656170610422123-2.031514302843789-1.587934903996938-2.343077925566831-.371125973604649-3.937502192178727.487229493530322-.07648635649457.974456043031751-.152983601863525,1.461685536563891-.229469958352638Z" fill="none" stroke="#181818" stroke-linecap="round" stroke-linejoin="round" stroke-width="50"/>
        <path d="M101.251987548808756,160.374825400997906c-.992039751930861,2.078086047329634.844370212391368,3.093619636052608,1.800248193898369,4.260381024074377,4.307218594518417,5.257537003633843,9.845818406822218,9.047428357162062,15.562653683502504,12.593876125840325-1.299164917812959,1.379862133553615-2.504379134974442.348192563315024-3.632633082892426-.232274852793125-3.381940050801859-1.739956738731053-6.587893622150659-3.770061002163857-9.559456050872541-6.15540210025938-2.99451989606132-3.193054696335821-7.087264178862824-5.409298571785257-8.725635040158522-9.807287527213703.274050104973867-.157933875090748.547330729059468-.316465960760979.820603695256068-.475112824569806,1.24272843684048-.101972458500313,2.452586420327862-.87260433620213,3.734218601266548-.184179845078688Z" fill="none" stroke="#181818" stroke-linecap="round" stroke-linejoin="round" stroke-width="50"/>
        <path d="M87.713146575584688,229.926356906828914c3.123666809176939-6.761304117895634,8.610627239970199-11.843039285397026,12.731036986084291-17.897843446438856,5.271816849355673-7.746746753005937,12.001003428864351-14.502411337960439,15.339461976593157-23.569838993216763,1.158222842877876-3.145839560322202.545752211548461-5.326892787858014-1.454253372825406-7.649689271735042-1.831038387919762-2.126533479013233-4.438825618984993-3.556184089302405-5.615199323845445-6.26184221807307.896175944470087-.66936929367148,1.656025501113618-.127703446678424,2.27603982376786.397680474403387,3.998630838077588,3.388324675559488,8.718252097569348,5.650268030311054,13.088492266273533,8.455839670979913.591795996569999,5.671652559212816-1.441572055002325,10.552431616386457-4.724537476402475,14.966281610957594-5.849279643687623,7.86418695914108-11.77477073938644,15.672314862857093-17.728087392079033,23.458274740720299-2.330582356418745,3.048056622095828-5.171153040331774,5.520287676650696-8.861141813016729,6.851822485390585-1.683941836596205.41643566759376-3.367883673192409.832871335191157-5.051811674549754,1.249314947011953Z" fill="none" stroke="#181818" stroke-linecap="round" stroke-linejoin="round" stroke-width="50"/>
        <path d="M124.078724931632678,183.400663122748483c-5.326917866155782-1.153763607688234-9.29214009756106-4.671358188050363-13.508190259317416-7.759338027140984-.576614811916443-.422314108509454-1.235555071378258-.732279591265979-1.856364498053154-1.094222729114335-.852217088193356-1.452731499573929-2.698681325133293-2.02269051399162-3.291468787605481-3.705716766886326,3.175958902074854,1.724685764385868,6.345510047300195,3.461117920896868,9.531027583583636,5.167771929613082,1.144492433993946.613164758027779,2.174174801408299,1.617170958212228,3.661331771265395,1.219867018267905,1.574539063713019.382801955918694,3.026642366447049,1.350688009199075,4.7559174975122.995843881873952.961360868619522,1.626013012039039.401108058926184,3.460202054888214.707746692614819,5.175794693386706Z" fill="none" stroke="#181818" stroke-linecap="round" stroke-linejoin="round" stroke-width="50"/>
        <g>
          <path d="M138.763560280471211,47.723204219879335c.063868978977553.210766974480066.133330345059221.419675130691758.208373184041193.626727328220113,1.464226253137895,2.445771648829577-.769517942761013,2.653312135413216-2.06714968522283,3.137924758956615-2.739798813816378,1.023202596652482-5.601078503754252,1.660074278561297-8.324960946240026,2.804889979017389-7.405369635087482,3.112390144938217-14.095440869981758,7.281740112476655-19.944195781819872,12.785586599028647-15.136768582886361,14.563056533823328-22.125664350240186,32.374585600246064-20.260482620673429,53.250770902801378,1.745317989158139,19.534678281499509,10.734774051987188,35.302057422028156,26.600773022886642,47.010034676988653,5.090285980370027,3.756266009020692,10.707266057977904,6.51792937018763,16.626811894260754,8.690980505058178,6.059391790453446,2.162571832725007,12.224028030181216,3.767598228801944,18.731806192676231,3.661846668754151,1.226998267542513-.019945059377278,2.463095683624488.073107844536935,3.63895348132246.517370896053762.69152901959751.373612268003853,1.300251062348252.804644292180456,1.157022753752244,1.733965637326037-11.380890623608138.730150444020182-22.021464082909006-2.178245804716425-32.358599835042696-6.57802862284916-6.011592590568398-1.576634550838207-10.371344553368544-5.775575297180694-14.922584789583198-9.592353885915145-1.925311478025833-1.614604111187873-4.081808791150252-3.157401294554802-5.135654065456038-5.627564220674685-4.392396443921825-6.035714931911571-8.684804969017932-12.079633473471404-11.805540624687637-18.96478327134173-14.727739974581709-32.493297003091357,1.27797926472158-74.102605136841703,34.013423486270767-88.256708405423524,2.490346628357656-1.076772575393989,5.402174367465705-1.349432431018613,7.418108436377224-3.463829007630011l6.423895897138209-1.736830538370668Z" fill="none" stroke="#181818" stroke-linecap="round" stroke-linejoin="round" stroke-width="50"/>
          <path d="M216.007047033030176,89.609181633538356c1.344239952613862,5.008321351611812,2.688481036891972,10.016648239690767,4.032736603072408,15.024994582006002,2.490557935227116,20.895873998277239-2.443066353622271,39.519516327630299-16.913383284118026,55.224384382369863-2.253000190512466,1.642085927294829-4.135781620803755,3.72291134304578-6.369808254039526,5.38336563799021-.654833091326509.48671956923863-1.373657826214185,1.200402021893751-2.282028252715463.658614091449635-.838273026918614-.499967226680383-.844922479418528-1.424778818285631-.743865300870311-2.283035447479051.325001850294939-2.760210031328825,1.234970713441726-5.452347181857476.948322754547917-8.2827286923457.891745575829191-3.184494391362023,3.866579777602965-4.960327158376458,5.276465504595762-7.799732486892026,8.48907524799688-12.36878166112183,12.015235829625453-25.953215704653303,9.998006715348311-40.880867749923709-1.432099635088889-10.59765216303731-5.481608435702583-20.059215121538728-12.382628752313394-28.273068897088706-1.730099949254509-2.059226526875136-3.865948916803973-3.80995313159201-4.945783246113933-6.379147022307734-.646650720153048-1.972418573358482-1.316449116489821-3.949676398880001-1.421062840889135-6.035822895032652-.108366526550526-2.160998725395075-.846141015941612-4.008205627563257-2.237166432618324-5.663459435341792-.851799753689193-1.013598758402622-1.762340751571173-2.099843051440075-1.066519114028779-3.611071161309155,11.674033644914743,6.458115285879103,19.898546091208118,16.116730278017712,25.834667087492562,27.884132117843365.828323391733647,1.642018808559442,1.518122734569261,3.353904205054278,2.272046812649933,5.033442976061451Z" fill="none" stroke="#181818" stroke-linecap="round" stroke-linejoin="round" stroke-width="50"/>
          <path d="M195.354584448343303,154.998561557594257c1.303748350594105,3.533772812894313-1.151109829514098,6.850763006770649-.75212595659832,10.561034511287289,3.41688003764466-1.324753735438208,5.308519149708445-4.522218894522666,8.523377576539133-5.700917960008155-10.45341773508153,11.842343227839592-23.469636960528078,18.963762432995281-39.122031937164138,21.227904310020676.944395914499182-1.832383732124072,3.113372944389994-1.607787891198313,4.501876426946183-2.693076588650001,4.121729241085632-1.544653011436822,8.187363343669858-3.245276025541898,12.31749118740845-4.769542825799363,6.038823620463518-2.228681358437825,8.828638630009664-7.038966324827925,10.547929124762959-12.781675728369009.351474548027909-1.173973199356624.526186403070824-2.393692324854783.926961247387226-3.556912362499133.666455330976532-1.231581742016715,1.31777754864197-2.488973496929248,3.056522330718508-2.286813355982304Z" fill="none" stroke="#181818" stroke-linecap="round" stroke-linejoin="round" stroke-width="50"/>
          <path d="M168.883646051377582,178.955143780783146c-1.158105652810264,1.783037696715837-3.335929740647771,1.231753122327063-4.879891815608062,2.131405388890926-2.903608674267161.84607951727412-5.857939508503478,1.16690862707037-8.873195951449816.856752112658796-.372253152092526-.416210227500414-.744448904117235-.832424289414121-1.11665304577582-1.248647767881266,4.80861347919199-1.845403543547945,9.751516016973255-2.542211619129375,14.869740812833697-1.739509733668456Z" fill="none" stroke="#181818" stroke-linecap="round" stroke-linejoin="round" stroke-width="50"/>
          <path d="M107.910191115241105,66.776211431862066c5.000521218722497-5.807627395201052,11.550895122785732-9.356833563610962,18.315943627807428-12.607637628051634,3.44972380209947-1.65769212932446,7.064698126709118-2.80202831216593,10.771416626492282-3.695263372944282,1.124156519761527-.270896468331557,2.203016435720201-.591555807961413,1.974388345581247-2.123377377667566,2.6637444888147-.561963891502273,5.261212812929443-1.589820310184223,8.067739430951406-1.148207905552226.961531907154495.853959016043518.355826468286978,1.531191207939628-.31884061724304,2.079302203940642-1.138884025229345.925243237799805-2.456344070871637,1.496156410549702-3.883379010270801,1.904880731381127-3.134452188916839.897755087048608-3.344118323797375,1.693630115142696-1.254739624282593,4.063479065863248.655487787997117.743473909950808,2.012079653453839,1.232004557615255,1.054686755251169,2.637754836047861-3.54770331956388,1.028438754422496-7.035243648550022,2.23567389686832-10.53275285142081,3.408328892524878-7.599856037077188,2.98931133467886-14.175253908446393,7.523207074384118-19.949325282255813,13.255881787194994-.945808785898407.93903313912142-1.723279707768597,2.096986949152779-3.26037230062866,2.111184475997106-2.588362047230476-2.380689785280993-2.915011990286075-5.668509189292308-.984765099981814-9.886325708734148Z" fill="none" stroke="#181818" stroke-linecap="round" stroke-linejoin="round" stroke-width="50"/>
          <path d="M187.900333132887681,56.69160653963354c.034785350471793.116927400600616.033142031645184.27155197358752.109572378365556.345387324726289,4.253995891098384,4.109514036929795,4.181815042586095,9.816524240792205,5.544683535696095,14.992622227131505-2.560786983183789.586665294008526-3.445090202723804-1.875659439006085-5.145920744153045-2.849423814609509-1.378894212542946-.789445963961043-2.629231622795487-1.78365289627709-3.871440903107214-2.776899599918579-4.255361541312595-2.883216023431487-8.905616004465628-4.935250149886997-13.764213636732165-6.544912988400938-1.15187624027385-.381619319578022-2.359653437917586-.632110087497495-3.187816425685014-1.639671215618364-.304778568204711-.376093315934668-.707914205042471-.735962656316588-.8174060705187-1.185824174382105-.989127492508487-4.063900118425408-3.563890136449118-6.328693413876863-7.632476068185497-7.192560656849309-1.161985764863857-.24671782167843-2.734829131240986-.761240119697504-2.082227500426598-2.688449799330556,11.168348376517315.317151942434975,21.463833672713008,3.454830873589344,30.847245434746583,9.539732697251566Z" fill="none" stroke="#181818" stroke-linecap="round" stroke-linejoin="round" stroke-width="50"/>
          <path d="M157.053087698141098,47.151873842381974c.556193911104856,1.922849261433839,2.380579793883953,1.889817471027527,3.798069706732349,2.298489809249077,3.058348737684355.881743015313077,5.713357991515295,1.949957271689527,6.051672584835615,5.749762373614431.088462561703636.993548848594401.960680154021247,1.917256697877747,1.472945239036562,2.873041130705133-.82794968039525.76446326446694-1.812166049900043.581004273902181-2.760123088008186.398893576075352-6.968686726242595-1.338751427926582-13.970601295137385-1.62472800924661-21.017599161641556-.740951819690963-.610272532521776.076534940852071-1.208671985936235-.051723800960644-1.715206759883586-.449820865511356-.894556514760552-.607257569074136-1.76014839270465-1.263846556389581-2.690642430385196-1.809890317921599-1.304739842755225-.765656427873182-1.307450347183476-1.852860745250837-1.009446018766539-3.133315488343214.316317987579168-1.359173099234795.959545018868084-2.058669770601227,2.486351588720936-2.027915237265006,2.358079387573525.047497358138571,4.36576086372952-.718279592460931,5.370569419286767-3.108443216757223,3.335708171947772-.44665848864588,6.672590868445695-.651633778114046,10.013408920072834-.04984994415463Z" fill="none" stroke="#181818" stroke-linecap="round" stroke-linejoin="round" stroke-width="50"/>
          <path d="M107.910191115241105,66.776211431862066c.165409796534732,3.238794634447913-1.223614977112447,6.652210636131713,1.083482126661693,9.650412295976821.160761098828516,1.664556256216201-1.019496664397593,2.671324199159244-1.851033679904504,3.8737141764841-9.457004365840476,13.674482281573546-13.300128001772464,28.540693522279071-10.042547724298856,45.113399989179015,3.245669846015517,16.512098145301934,12.135752267859061,28.991110615021171,26.146379134461313,38.023436612913429,1.033659706708931.666371820376298,2.152362949122107,1.219554961002359,2.768643155921382,2.368599616194842.764747063516552,2.759483597457802,2.462555687268832,4.967609399631328,4.194950414321283,7.167447469601029.87208250466756,1.107377791870022,2.129792617131898,2.131771469330488,1.319653948770792,3.838186415692689-12.308120175190197-3.885571297258139-22.146490236993486-11.307686369127623-30.1982538994489-21.223554071413673-6.774958309059002-8.343446321185183-11.03988843811203-17.939729534293292-13.020700622262666-28.423642529337485-2.785561528940889-14.743281672243029-1.146660100950612-29.003917174277376,5.978717391262762-42.402045182823713,2.997530866834495-5.63638104158872,6.186138764986026-11.15855412347355,10.7944543992744-15.706869192772501.874719607305451-.863323742383727,1.621682089036767-1.841987455346498,2.826255355241301-2.279085599694554Z" fill="none" stroke="#181818" stroke-linecap="round" stroke-linejoin="round" stroke-width="50"/>
          <path d="M131.529718491174208,176.811408007903992c-.81667959911465-2.910280904648971-3.6023335197915-4.464111540557496-4.8708392866738-7.072553983538455-.562277478808028-1.156237186625731-1.671529173810995-2.121950746253788-1.074178498754918-3.613555926141998,1.987621414204114-.826722581079594,3.527400368264352.557171552154614,5.179636892073177,1.147463863213488,5.086616636306644,1.817267507625729,10.12564754613777,3.76004283284783,15.604039882726283,4.069342840628451,16.055554072732775,1.773532297800557,30.354712357369863-2.488955708427966,43.020032183821968-12.438563377432729,1.02540048211813-.805533711261887,1.918833680460011-1.993518424758804,3.503472823189441-1.672490828126683-.696960716586545,9.323053478303336-5.875284856138023,15.768746185636701-14.667549542931738,18.449824785358942-3.153173813117974.961520864684644-6.02354254077909,2.75827916342314-9.340704114971231,3.274226315721535-4.920904997132311.883859428611686-9.857555469241561,1.633078033710262-14.869558759486608,1.739296923813527-7.740817476797019.128381576347238-15.308945827066054-.74149512207623-22.484351578992573-3.882990613496077Z" fill="none" stroke="#181818" stroke-linecap="round" stroke-linejoin="round" stroke-width="50"/>
          <path d="M185.018255334805872,65.85283620111386c2.845537045282981,2.058524791011223,5.691074090567781,4.117049582025174,8.536471375289693,6.176175954637074,3.729089764387027,4.838608958767509,8.165258378454382,9.158824909277428,10.91639584008044,14.714634356972056,10.53202612275345,21.268987802298398,9.516986243776046,41.79682748569121-4.009072801820366,61.505773159383352-.694582192863891.369961351574602-1.063219479539839-.004658553132685-1.342687899099474-.585320341249826.432944857147959-3.678004853310995,3.133669463431943-6.275522961848765,4.605474011656042-9.472960693257846,10.798359317430368-23.459050623080657,4.429155158435606-51.104525097993246-15.717590702010057-67.328614720220685-1.67084749975038-1.345527115042387-3.907660448605384-2.211959207872496-4.526422580738654-4.618920790458105.401196740222076-.569068412005436.92720034717604-.646328017690394,1.537432756642374-.39076692580602Z" fill="none" stroke="#181818" stroke-linecap="round" stroke-linejoin="round" stroke-width="50"/>
          <path d="M199.464111368790327,147.655698021016178c.332346754432365.197707721707047.664690786059509.395416179571839.997486598627802.593423144266126-1.180221278478712,2.644652670334835-3.524756266586337,4.408436170817367-5.107223634313414,6.749041491682874-.820873771601327.744089530671772-1.64195787967401,1.487768535665964-2.462765334015785,2.232178997066512-8.358429319920106,7.526950106954246-18.039761394562447,12.511461635653177-29.079370368393938,14.611501263056198-6.000521777763424,1.141460656494019-12.108302792135873,1.277764164620748-18.191754583622242.339727257973209-.383655588748297-1.11749071433951.463594899574673-1.409753790303512,1.190657363700666-1.785622366362077,4.499582823313176-.573418772091827,9.036195837496052-.142241319936147,13.566311618411419-.711576084086118,13.935003792390489-1.751353225243292,25.21201148721957-8.298849871738639,34.673911318737737-18.39694437927028,1.300714838567728-1.388156781778889,2.192006018241955-3.337298387015835,4.412747020867755-3.631729324326443Z" fill="none" stroke="#181818" stroke-linecap="round" stroke-linejoin="round" stroke-width="50"/>
          <path d="M146.857112917185077,171.119828253945343c-.567682096228964.173348630009059-1.072377219205009.420003107796219-1.236763818977124,1.062128953079082-7.109924119327843-.592222972582022-13.535951861984358-3.445622306979203-20.035542118088415-6.056395720732326-8.665858177806513-5.331987834404572-16.397472688950074-11.687195599890401-21.639524483482091-20.57494229391159-11.407831400581927-19.341724002887531-12.241729660114288-39.036325915843008-1.656269687897293-59.019192890939848,1.899783234512142-3.586333714547436,4.047128657430221-7.016658138634739,6.70472152178445-10.104576629303665,6.385545437859037-6.891995121430227,13.757195857479019-12.397556789689588,22.488204131603197-15.992124073143714.545139715388359.369594641970252.689370941139714.89164078991962.578099207807099,1.511683721922964-.717693423255696,1.450006227012636-2.137082246819773,1.94376805497086-3.473162198324644,2.57467341062511-23.439896835554464,11.068489219496769-35.869088504126921,38.272965867721723-29.232896936517136,63.400581529641386,6.147170438460307,23.275938918383872,21.452861641349955,36.54384135415512,44.516589149279753,41.649163014831174,1.092316898275385.241787937575282,2.596638923798309-.121012641959169,2.986545232812205,1.549000977931428Z" fill="none" stroke="#181818" stroke-linecap="round" stroke-linejoin="round" stroke-width="50"/>
          <path d="M131.838472813766202,61.767031308190781c-.118917201909426-.444240068993167-.237839665422143-.888477985105055-.356648424287414-1.332511485761643,3.789122956355641-1.091724292922663,7.42147756376653-2.750200682751711,11.401127008613912-3.152756303254137,8.566290524662691-1.939814959238902,17.041319702329929-.950490784367503,25.492839071968774.791611304063736,5.802507516251353,2.047774450230463,11.698968494743895,3.894916132594517,16.64251917187903,7.779402876614768-.519888229384378.155025262219169-1.039722887639073.309989300957568-1.559557545893767.464953339694148-1.031762595677719.490813220104428-1.941498121943368.029231178700684-2.794902290679602-.442764104089292-11.768478563950339-6.508842886639286-24.36118635260209-8.200429107067976-37.548136535093363-6.452388221458932-3.329857416567393.270793095783119-6.459301482391311,1.29907311779516-9.546122557192575,2.497730288145249-.59865474959588.188063212209272-1.18293272041592.211997581111063-1.731117899314995-.153277693953896Z" fill="none" stroke="#181818" stroke-linecap="round" stroke-linejoin="round" stroke-width="50"/>
          <path d="M143.543058679436399,60.658774197690036c13.839097796736496-2.247204767582843,26.749090920323397.347781759272948,38.796576657061451,7.437431427938463,11.779290560207301,7.971243814666195,20.091004090410024,18.52028299803078,23.63910392859998,32.435991932444267,4.035821542701342,15.828563634408965,1.594137231617424,30.660389465609114-7.389738357915121,44.365228696019585-.317846093449589.484873810952195-.558611703374481,1.020252723780686-.835330603956209,1.532110345098772-12.876195543321046,16.525221756201972-29.821623044661465,23.928707604351075-50.663692172987794,22.597358059612816-11.977530642675447-1.932483299027808-22.614192090184588-6.543802988991956-31.588768651587088-14.964463030248226-27.663866500117365-25.956420829228591-20.146415703140519-72.99490583109764,14.289817331278755-88.877050683620837.965848028974506-.445452987574754,1.890989909693417-.979142332659649,2.835113736381572-1.471703277581582.464868889413992-.15686094704779.929741677334277-.313707474969306,1.394609220817074-.470552584945835,3.097469435842868-1.14380710056048,6.275413871821911-1.991111677350091,9.522308912307381-2.584350884717423Z" fill="none" stroke="#181818" stroke-linecap="round" stroke-linejoin="round" stroke-width="50"/>
          <path d="M143.174136611307404,58.594965438551299c-3.295888560784078.894560271037335-6.591782567173141,1.789122014405621-9.887616601725313,2.683581367322404,3.054900583199924-1.782622307135171,6.359657228309516-2.644296348939861,9.887616601725313-2.683581367322404Z" fill="none" stroke="#181818" stroke-linecap="round" stroke-linejoin="round" stroke-width="50"/>
          <path d="M194.3431233369447,139.924258962400017c-.753288328500275,2.869789621185191-3.253900707433786,4.209335564200956-5.328049051860944,5.839405182534392-1.324498610541923,1.04094491595788-3.211123735603906.986221198367275-4.5543495681286.092916537487326-3.988193565568508-2.652336269446096-7.70235105926804-5.796415703192906-9.954285886396974-10.038704394819433-1.371076160778102-2.582924737758731,1.126492064002377-4.780648437361378,2.4646443615311-6.871085725897501.699042076963451-1.092035403418777,1.950126372972591-1.830865947520579,2.951875410917637-2.729227000717401,4.331714710939195,5.068437364004239,9.618495981485466,9.132487160129131,14.420164733937781,13.706695401412617Z" fill="none" stroke="#181818" stroke-linecap="round" stroke-linejoin="round" stroke-width="50"/>
          <path d="M194.3431233369447,139.924258962400017c-5.872540920257961-3.44837911020295-11.047570222099239-7.630297295550918-14.420471244873625-13.706910493899159,2.195935196539722-.260960012486976,3.692175050144215-2.284465381068003,6.117847386327412-2.182029465567211,4.13066492821963.174420585868575,7.665230920889371,1.021554256299169,9.550887407418486,5.280098176822321,1.704620539838288,3.849683683999501.962593347216171,7.284184296121566-1.248263548872274,10.608841782644049Z" fill="none" stroke="#181818" stroke-linecap="round" stroke-linejoin="round" stroke-width="50"/>
          <path d="M143.84834609470272,62.366600581939565c13.399825550194691-2.175875357154837,25.90003750411779.336742681657597,37.565119257409606,7.201356991596185,11.405399465350456,7.718225429390259,19.453287627118698,17.932423410748925,22.888765832759418,31.406428354365744,3.907718943692089,15.326142970189721,1.543537094721614,29.687185983832933-7.155177766067027,42.95701452166395-.307757215578022.469483240601221-.540880589577682.987868480775433-.80881604669321,1.483479028004695-12.467487155946401,16.000688192521011-28.875043177768021,23.169177084327202-49.055555992014888,21.88008642915247-11.597347131386414-1.871143586523431-21.896386124139099-6.336093564423209-30.586097120907652-14.489470123186038-26.785776832421107-25.132527866167038-19.506940398053302-70.677945813796214,13.836238618708194-86.055969259580706.935190666786184-.431313689085073,1.83096725518044-.948062990749349,2.745123276130471-1.424989364978501.450113303147191-.15188196202871.900230381055735-.303749962614347,1.350342380993425-.455616590263162,2.999151440142668-1.107501069483988,6.076223491787459-1.927911018428858,9.220057559681663-2.502319986774637Z" fill="none" stroke="#181818" stroke-linecap="round" stroke-linejoin="round" stroke-width="50"/>
        </g>
      </g>
      <g>
        <path d="M67.904748044216831,188.347428357713397c3.697887385753347-5.507292059264728,7.753156450620736-10.746770401841786,11.92174484615316-15.901311972434996,5.048958123230477,2.359157124377816,8.44237203832563,6.557520930164173,11.695364638913816,10.821555289505341,1.045730608379017,1.37070828038668.185398720463127,3.149024803244174-.628066813609621,4.54140888580514-6.894701946217538,11.801581883450126-13.117837724843412,24.000764009229897-20.863176635832133,35.298547003245403-.532029741127189.776066071150126-.958393381411952,1.797362810793857-2.225090671623548,1.585685622754681-1.673871563845751.085602093509806-1.836986605787388-1.642948148266441-2.839447750786348-2.363594838714562-1.363301086670617-1.447312955786401.003532926257321-2.487843973378403.618849956408667-3.543880974846616,1.980567879236332-3.399153782947906,3.803486742694076-6.896556630583291,5.926802303543809-10.203469765770933,2.094621330033988-3.26226596460765,2.050293347889237-6.430467575059083.340603163005653-9.7596748253236-1.122888922076527-2.186529688044175-2.181561256909845-4.406277987978683-3.277801418182207-6.606591285210015-.615416417624147-1.235243713867021-1.14683105657241-2.457069424808651-.669781617991248-3.868673139009843Z" fill="#4a769f" stroke-width="0"/>
        <path d="M84.836519556292842,230.683242202024303c-2.37475891000031.622842638769725-4.691294421958446.285467844021696-6.985362489509498-.422607539409-.741766614823064-2.242647435163235.816810233342039-3.763994600978549,1.876185986149721-5.297917354888341,6.572150925898313-9.516171051989659,13.192941188632176-18.998507912683635,19.747976052989543-28.527192980080144,5.152548717702302-7.489928868475545,5.627083730061713-15.932965152858742.797299825859227-22.36796933781261-2.237952517658414-2.981767229732213-5.523503049664214-4.86803372502618-8.272440609216574-7.320016014315115-1.114883641759661-.994454636262162-2.884546790923196-1.634558601133904-2.463589647395565-3.686634125981072,2.497105579597701-1.354839764233475,4.978349338171029-2.760263066491461,7.981161723282639-2.502011436938119-.082934037089217.355196029699073-.253146661205392.659825788432499-.519022911552383.909028576952551-2.032966997458061,1.230296959054613-.977646299550543,2.268093054073688.137302031209401,3.432626708823591,3.989858981847647,4.16734223621097,8.349807058633814,7.964562893219409,12.10991483795442,12.366105961295034,4.660705796602997,5.455745322136863,5.18747757053643,10.056977805048518,1.810859702778544,16.517933241533683-3.778380302008372,7.229716230056511-8.942337548145588,13.501322884167166-13.723705550266459,20.034208315197247-4.131944178267076,5.645575700633344-8.523218596445076,11.100261871028124-12.496578952283016,16.864445985622297Z" fill="#376c8b" stroke-width="0"/>
        <path d="M89.536588675169696,163.060904849538019c1.981377330721443,2.87654235548689,4.896809760968608,4.852408151278723,7.637285701330256,6.730462704808815,9.064479095794013,6.211922124231933,9.307779292330451,18.991634865913511,2.762477857968406,27.716328912574681-5.780620808938693,7.705440384084795-11.101909838305801,15.759577394135704-16.505407666074461,23.74135227759507-1.977234555191899,2.920680634042583-4.449332246162157,5.559141478977836-5.579795448786172,9.01159975164046-1.391046096916398.216505704760493-2.171554209553506-1.178750760938783-3.434559615563558-1.300260846252058-.991548387841249-1.633660819703437.148873638483565-2.798789410182508.916785542849539-4.017559336260092,6.82324195279034-10.829068762281167,13.975492896519427-21.447713977249805,20.552392427180166-32.43623437315,2.744587556138868-4.585590995910025,3.108485153359652-9.183151679038929,1.439267768329955-14.162430376696648-1.241194276570241-3.702530332466267-4.581587563852736-5.32560727517739-7.123872803947961-7.761565265938771-1.584459867486657-1.518201669448899-4.227085160309798-2.31901866928456-3.89142907693531-5.273098326941181.773064297820383-1.18358936803088,1.976056708455872-1.750380507179216,3.226855313649139-2.248595121380276Z" fill="#3d7391" stroke-width="0"/>
        <path d="M67.805523408218505,224.693313186588966c8.632430906212903-11.996946471650517,15.168097373598357-25.249103867232407,22.686580662788401-37.912752340538646.96882054429625-1.63183822629253.89800068610748-3.179957556852969-.637219107933561-4.62082113413453-3.392956571053219-3.18446361367387-6.691402491391273-6.469578694401207-10.028392072703355-9.713623326637389,1.077343240684058-1.861656682942339,2.288672152402796-3.618350944807389,3.941458890514696-5.02921631776735,4.617719543683052,2.833927236926684,9.052160064116833,6.113232310754029,12.241464317008649,10.377122404441252,2.587949334734731,3.459930334085584,1.26163371705843,7.811184932155811-.552569414187019,11.585663049258073-2.51385536800808,5.230153590298869-5.965774612430323,9.906776693265783-9.107697802501207,14.750950786396061-5.080624784794054,7.833239256344314-9.80137897800887,15.906884341495243-15.368841730047279,23.421275389227958-1.110484628550694-.894885450052243-2.74777369198091-1.204938148805013-3.174783742939326-2.858598510245429Z" fill="#447899" stroke-width="0"/>
        <path d="M67.904748044216831,188.347428357713397c1.516455523833429,3.197076752339854,2.896710008510126,6.468171127597088,4.583774177772284,9.572556205039291,2.118845511919062,3.898958158602909,2.275609216043449,7.422629626398702-.204975406764788,11.377698149546632-2.638945418872026,4.207569390559001-5.457130106475233,8.366241498210002-7.317467328848579,13.032093024645292-5.980276151793078-6.52184981375467-7.395799232024729-17.388125889579896-3.252380015024755-25.357604273302059,1.645371300852275-3.164744386360326,3.700270092256687-6.056283387071744,6.191048572865839-8.624743105929156Z" fill="#5076a6" stroke-width="0"/>
        <path d="M70.980307151157831,227.551911696834395c.113359670716818-3.904916355402747,3.262678888186201-6.240060418460416,5.169097228786995-9.054670778381478,2.952929823430168-4.359672757527733,5.377235874910184-9.036045329363333,8.488335466565331-13.311666704896197,3.667517811334619-5.040286681920406,6.619464290466567-10.600125989902153,9.899598632346169-15.923659789126759.851620601786635-1.382111355442248,1.180409092414266-2.905871757731802,1.608764275408248-4.452707715641736,1.585224828333594-5.72445671620153-2.192274459994223-8.604836493301264-5.91795530089621-11.42094956078472-2.367993011284852-1.789888789044198-4.55336645200623-3.713505487750808-6.460181837248456-5.971349136272693.513595441885627-1.104778219225409,1.466067329514772-1.680395257566488,2.541764801369936-2.107418929695996,1.615262658597203,3.238496658799704,4.897521480070282,4.71679987988864,7.434911371517956,6.9698696079613,6.043764149397248,5.366567487393695,7.383812426651275,12.82581148774625,3.372072122303507,19.820376957997723-6.652576662507272,11.598926460035727-14.267109807977249,22.592393037555667-21.418104957081596,33.877448525152431-.611552214682888.965092423917667-1.093125621595391,1.884853243060206-1.282038288574768,2.983220254958724-1.420609567165229.201526353561349-2.443585359302233-.566552941665577-3.436263514497114-1.408492731270599Z" fill="#407094" stroke-width="0"/>
        <path d="M84.836519556292842,230.683242202024303c.824807875880651-4.603973079880234,4.511349313059327-7.402205944990783,6.988496377387492-10.94683744741269,6.105264700105181-8.736264448241855,13.198955197738542-16.773361817595287,18.349239809947903-26.188273374582423,3.379588215586409-6.178026757306725,3.084101258073133-10.617489206524624-1.65656340309215-15.69372044798547-4.188839220609225-4.485332771817411-8.590907477953806-8.773135288820413-12.942260383519169-13.104539601859869-2.041523047713781-2.032151336074094-1.972357058402849-3.297497803258011,1.122502776157489-3.715155048956149,3.088307302963585,3.107321696646977,6.117259225184171,6.273925306635647,9.298130647983271,9.28990883512779.968276082900047,1.46432951202587,2.485308004279432,2.450650165550542,3.447318341341088,3.922539548806526,1.420836645833333,2.364676280889398,3.678078452838236,3.960813942392633,5.504090305625141,5.951783256467024,2.426989726174725,2.646259376584567,2.870951756331124,5.39276680239891,1.584018955751162,8.812115717128108-2.073237068732851,5.508425588954196-5.3671789124528,10.220449587470284-8.857836382412643,14.833721409246209-6.605725108211118,8.730140522720831-13.020546018180539,17.607005039073556-19.960510025877738,26.081571858825555-.740554156362123.25280570574796-1.481097421516097.505608466839476-2.221711037067507.758453618307612-.218533263261634.074123314727331-.436823382682633.073584743709944-.654915982224338-.001568323112224Z" fill="#356b85" stroke-width="0"/>
        <path d="M102.713673085372648,160.145355442645268c4.051561107989983,2.930152807848572,7.207411593984943,6.924158510439156,11.477317694858357,9.603902682507396,2.894986683446405,1.81685920302516,5.72279842356329,3.740720505695208,8.580793716038897,5.616365372414293.199824157520197.952834511499532.399512923722796,1.906032804879942.599187854688353,2.859223154029678-1.877608938681078,1.598758522659409-3.469594629012136.14241809575833-5.144453877572232-.469602724475408-6.459308039888128-3.3376543305003-12.013068759155431-7.812187334233386-16.603404950972617-13.442916333944595-1.656170610422123-2.031514302843789-1.587934903996938-2.343077925566831-.371125973604649-3.937502192178727.487229493530322-.07648635649457.974456043031751-.152983601863525,1.461685536563891-.229469958352638Z" fill="#265b6b" stroke-width="0"/>
        <path d="M101.251987548808756,160.374825400997906c-.992039751930861,2.078086047329634.844370212391368,3.093619636052608,1.800248193898369,4.260381024074377,4.307218594518417,5.257537003633843,9.845818406822218,9.047428357162062,15.562653683502504,12.593876125840325-1.299164917812959,1.379862133553615-2.504379134974442.348192563315024-3.632633082892426-.232274852793125-3.381940050801859-1.739956738731053-6.587893622150659-3.770061002163857-9.559456050872541-6.15540210025938-2.99451989606132-3.193054696335821-7.087264178862824-5.409298571785257-8.725635040158522-9.807287527213703.274050104973867-.157933875090748.547330729059468-.316465960760979.820603695256068-.475112824569806,1.24272843684048-.101972458500313,2.452586420327862-.87260433620213,3.734218601266548-.184179845078688Z" fill="#2c6179" stroke-width="0"/>
        <path d="M87.713146575584688,229.926356906828914c3.123666809176939-6.761304117895634,8.610627239970199-11.843039285397026,12.731036986084291-17.897843446438856,5.271816849355673-7.746746753005937,12.001003428864351-14.502411337960439,15.339461976593157-23.569838993216763,1.158222842877876-3.145839560322202.545752211548461-5.326892787858014-1.454253372825406-7.649689271735042-1.831038387919762-2.126533479013233-4.438825618984993-3.556184089302405-5.615199323845445-6.26184221807307.896175944470087-.66936929367148,1.656025501113618-.127703446678424,2.27603982376786.397680474403387,3.998630838077588,3.388324675559488,8.718252097569348,5.650268030311054,13.088492266273533,8.455839670979913.591795996569999,5.671652559212816-1.441572055002325,10.552431616386457-4.724537476402475,14.966281610957594-5.849279643687623,7.86418695914108-11.77477073938644,15.672314862857093-17.728087392079033,23.458274740720299-2.330582356418745,3.048056622095828-5.171153040331774,5.520287676650696-8.861141813016729,6.851822485390585-1.683941836596205.41643566759376-3.367883673192409.832871335191157-5.051811674549754,1.249314947011953Z" fill="#2f6683" stroke-width="0"/>
        <path d="M124.078724931632678,183.400663122748483c-5.326917866155782-1.153763607688234-9.29214009756106-4.671358188050363-13.508190259317416-7.759338027140984-.576614811916443-.422314108509454-1.235555071378258-.732279591265979-1.856364498053154-1.094222729114335-.852217088193356-1.452731499573929-2.698681325133293-2.02269051399162-3.291468787605481-3.705716766886326,3.175958902074854,1.724685764385868,6.345510047300195,3.461117920896868,9.531027583583636,5.167771929613082,1.144492433993946.613164758027779,2.174174801408299,1.617170958212228,3.661331771265395,1.219867018267905,1.574539063713019.382801955918694,3.026642366447049,1.350688009199075,4.7559174975122.995843881873952.961360868619522,1.626013012039039.401108058926184,3.460202054888214.707746692614819,5.175794693386706Z" fill="#2b6279" stroke-width="0"/>
        <g>
          <path d="M138.763560280471211,47.723204219879335c.063868978977553.210766974480066.133330345059221.419675130691758.208373184041193.626727328220113,1.464226253137895,2.445771648829577-.769517942761013,2.653312135413216-2.06714968522283,3.137924758956615-2.739798813816378,1.023202596652482-5.601078503754252,1.660074278561297-8.324960946240026,2.804889979017389-7.405369635087482,3.112390144938217-14.095440869981758,7.281740112476655-19.944195781819872,12.785586599028647-15.136768582886361,14.563056533823328-22.125664350240186,32.374585600246064-20.260482620673429,53.250770902801378,1.745317989158139,19.534678281499509,10.734774051987188,35.302057422028156,26.600773022886642,47.010034676988653,5.090285980370027,3.756266009020692,10.707266057977904,6.51792937018763,16.626811894260754,8.690980505058178,6.059391790453446,2.162571832725007,12.224028030181216,3.767598228801944,18.731806192676231,3.661846668754151,1.226998267542513-.019945059377278,2.463095683624488.073107844536935,3.63895348132246.517370896053762.69152901959751.373612268003853,1.300251062348252.804644292180456,1.157022753752244,1.733965637326037-11.380890623608138.730150444020182-22.021464082909006-2.178245804716425-32.358599835042696-6.57802862284916-6.011592590568398-1.576634550838207-10.371344553368544-5.775575297180694-14.922584789583198-9.592353885915145-1.925311478025833-1.614604111187873-4.081808791150252-3.157401294554802-5.135654065456038-5.627564220674685-4.392396443921825-6.035714931911571-8.684804969017932-12.079633473471404-11.805540624687637-18.96478327134173-14.727739974581709-32.493297003091357,1.27797926472158-74.102605136841703,34.013423486270767-88.256708405423524,2.490346628357656-1.076772575393989,5.402174367465705-1.349432431018613,7.418108436377224-3.463829007630011l6.423895897138209-1.736830538370668Z" fill="#008c8d" stroke-width="0"/>
          <path d="M216.007047033030176,89.609181633538356c1.344239952613862,5.008321351611812,2.688481036891972,10.016648239690767,4.032736603072408,15.024994582006002,2.490557935227116,20.895873998277239-2.443066353622271,39.519516327630299-16.913383284118026,55.224384382369863-2.253000190512466,1.642085927294829-4.135781620803755,3.72291134304578-6.369808254039526,5.38336563799021-.654833091326509.48671956923863-1.373657826214185,1.200402021893751-2.282028252715463.658614091449635-.838273026918614-.499967226680383-.844922479418528-1.424778818285631-.743865300870311-2.283035447479051.325001850294939-2.760210031328825,1.234970713441726-5.452347181857476.948322754547917-8.2827286923457.891745575829191-3.184494391362023,3.866579777602965-4.960327158376458,5.276465504595762-7.799732486892026,8.48907524799688-12.36878166112183,12.015235829625453-25.953215704653303,9.998006715348311-40.880867749923709-1.432099635088889-10.59765216303731-5.481608435702583-20.059215121538728-12.382628752313394-28.273068897088706-1.730099949254509-2.059226526875136-3.865948916803973-3.80995313159201-4.945783246113933-6.379147022307734-.646650720153048-1.972418573358482-1.316449116489821-3.949676398880001-1.421062840889135-6.035822895032652-.108366526550526-2.160998725395075-.846141015941612-4.008205627563257-2.237166432618324-5.663459435341792-.851799753689193-1.013598758402622-1.762340751571173-2.099843051440075-1.066519114028779-3.611071161309155,11.674033644914743,6.458115285879103,19.898546091208118,16.116730278017712,25.834667087492562,27.884132117843365.828323391733647,1.642018808559442,1.518122734569261,3.353904205054278,2.272046812649933,5.033442976061451Z" fill="#008c8d" stroke-width="0"/>
          <path d="M195.354584448343303,154.998561557594257c1.303748350594105,3.533772812894313-1.151109829514098,6.850763006770649-.75212595659832,10.561034511287289,3.41688003764466-1.324753735438208,5.308519149708445-4.522218894522666,8.523377576539133-5.700917960008155-10.45341773508153,11.842343227839592-23.469636960528078,18.963762432995281-39.122031937164138,21.227904310020676.944395914499182-1.832383732124072,3.113372944389994-1.607787891198313,4.501876426946183-2.693076588650001,4.121729241085632-1.544653011436822,8.187363343669858-3.245276025541898,12.31749118740845-4.769542825799363,6.038823620463518-2.228681358437825,8.828638630009664-7.038966324827925,10.547929124762959-12.781675728369009.351474548027909-1.173973199356624.526186403070824-2.393692324854783.926961247387226-3.556912362499133.666455330976532-1.231581742016715,1.31777754864197-2.488973496929248,3.056522330718508-2.286813355982304Z" fill="#39738f" stroke-width="0"/>
          <path d="M168.883646051377582,178.955143780783146c-1.158105652810264,1.783037696715837-3.335929740647771,1.231753122327063-4.879891815608062,2.131405388890926-2.903608674267161.84607951727412-5.857939508503478,1.16690862707037-8.873195951449816.856752112658796-.372253152092526-.416210227500414-.744448904117235-.832424289414121-1.11665304577582-1.248647767881266,4.80861347919199-1.845403543547945,9.751516016973255-2.542211619129375,14.869740812833697-1.739509733668456Z" fill="#498d90" stroke-width="0"/>
          <path d="M107.910191115241105,66.776211431862066c5.000521218722497-5.807627395201052,11.550895122785732-9.356833563610962,18.315943627807428-12.607637628051634,3.44972380209947-1.65769212932446,7.064698126709118-2.80202831216593,10.771416626492282-3.695263372944282,1.124156519761527-.270896468331557,2.203016435720201-.591555807961413,1.974388345581247-2.123377377667566,2.6637444888147-.561963891502273,5.261212812929443-1.589820310184223,8.067739430951406-1.148207905552226.961531907154495.853959016043518.355826468286978,1.531191207939628-.31884061724304,2.079302203940642-1.138884025229345.925243237799805-2.456344070871637,1.496156410549702-3.883379010270801,1.904880731381127-3.134452188916839.897755087048608-3.344118323797375,1.693630115142696-1.254739624282593,4.063479065863248.655487787997117.743473909950808,2.012079653453839,1.232004557615255,1.054686755251169,2.637754836047861-3.54770331956388,1.028438754422496-7.035243648550022,2.23567389686832-10.53275285142081,3.408328892524878-7.599856037077188,2.98931133467886-14.175253908446393,7.523207074384118-19.949325282255813,13.255881787194994-.945808785898407.93903313912142-1.723279707768597,2.096986949152779-3.26037230062866,2.111184475997106-2.588362047230476-2.380689785280993-2.915011990286075-5.668509189292308-.984765099981814-9.886325708734148Z" fill="#078197" stroke-width="0"/>
          <path d="M187.900333132887681,56.69160653963354c.034785350471793.116927400600616.033142031645184.27155197358752.109572378365556.345387324726289,4.253995891098384,4.109514036929795,4.181815042586095,9.816524240792205,5.544683535696095,14.992622227131505-2.560786983183789.586665294008526-3.445090202723804-1.875659439006085-5.145920744153045-2.849423814609509-1.378894212542946-.789445963961043-2.629231622795487-1.78365289627709-3.871440903107214-2.776899599918579-4.255361541312595-2.883216023431487-8.905616004465628-4.935250149886997-13.764213636732165-6.544912988400938-1.15187624027385-.381619319578022-2.359653437917586-.632110087497495-3.187816425685014-1.639671215618364-.304778568204711-.376093315934668-.707914205042471-.735962656316588-.8174060705187-1.185824174382105-.989127492508487-4.063900118425408-3.563890136449118-6.328693413876863-7.632476068185497-7.192560656849309-1.161985764863857-.24671782167843-2.734829131240986-.761240119697504-2.082227500426598-2.688449799330556,11.168348376517315.317151942434975,21.463833672713008,3.454830873589344,30.847245434746583,9.539732697251566Z" fill="#24648b" stroke-width="0"/>
          <path d="M157.053087698141098,47.151873842381974c.556193911104856,1.922849261433839,2.380579793883953,1.889817471027527,3.798069706732349,2.298489809249077,3.058348737684355.881743015313077,5.713357991515295,1.949957271689527,6.051672584835615,5.749762373614431.088462561703636.993548848594401.960680154021247,1.917256697877747,1.472945239036562,2.873041130705133-.82794968039525.76446326446694-1.812166049900043.581004273902181-2.760123088008186.398893576075352-6.968686726242595-1.338751427926582-13.970601295137385-1.62472800924661-21.017599161641556-.740951819690963-.610272532521776.076534940852071-1.208671985936235-.051723800960644-1.715206759883586-.449820865511356-.894556514760552-.607257569074136-1.76014839270465-1.263846556389581-2.690642430385196-1.809890317921599-1.304739842755225-.765656427873182-1.307450347183476-1.852860745250837-1.009446018766539-3.133315488343214.316317987579168-1.359173099234795.959545018868084-2.058669770601227,2.486351588720936-2.027915237265006,2.358079387573525.047497358138571,4.36576086372952-.718279592460931,5.370569419286767-3.108443216757223,3.335708171947772-.44665848864588,6.672590868445695-.651633778114046,10.013408920072834-.04984994415463Z" fill="#076e8a" stroke-width="0"/>
          <path d="M107.910191115241105,66.776211431862066c.165409796534732,3.238794634447913-1.223614977112447,6.652210636131713,1.083482126661693,9.650412295976821.160761098828516,1.664556256216201-1.019496664397593,2.671324199159244-1.851033679904504,3.8737141764841-9.457004365840476,13.674482281573546-13.300128001772464,28.540693522279071-10.042547724298856,45.113399989179015,3.245669846015517,16.512098145301934,12.135752267859061,28.991110615021171,26.146379134461313,38.023436612913429,1.033659706708931.666371820376298,2.152362949122107,1.219554961002359,2.768643155921382,2.368599616194842.764747063516552,2.759483597457802,2.462555687268832,4.967609399631328,4.194950414321283,7.167447469601029.87208250466756,1.107377791870022,2.129792617131898,2.131771469330488,1.319653948770792,3.838186415692689-12.308120175190197-3.885571297258139-22.146490236993486-11.307686369127623-30.1982538994489-21.223554071413673-6.774958309059002-8.343446321185183-11.03988843811203-17.939729534293292-13.020700622262666-28.423642529337485-2.785561528940889-14.743281672243029-1.146660100950612-29.003917174277376,5.978717391262762-42.402045182823713,2.997530866834495-5.63638104158872,6.186138764986026-11.15855412347355,10.7944543992744-15.706869192772501.874719607305451-.863323742383727,1.621682089036767-1.841987455346498,2.826255355241301-2.279085599694554Z" fill="#52b9c0" stroke-width="0"/>
          <path d="M131.529718491174208,176.811408007903992c-.81667959911465-2.910280904648971-3.6023335197915-4.464111540557496-4.8708392866738-7.072553983538455-.562277478808028-1.156237186625731-1.671529173810995-2.121950746253788-1.074178498754918-3.613555926141998,1.987621414204114-.826722581079594,3.527400368264352.557171552154614,5.179636892073177,1.147463863213488,5.086616636306644,1.817267507625729,10.12564754613777,3.76004283284783,15.604039882726283,4.069342840628451,16.055554072732775,1.773532297800557,30.354712357369863-2.488955708427966,43.020032183821968-12.438563377432729,1.02540048211813-.805533711261887,1.918833680460011-1.993518424758804,3.503472823189441-1.672490828126683-.696960716586545,9.323053478303336-5.875284856138023,15.768746185636701-14.667549542931738,18.449824785358942-3.153173813117974.961520864684644-6.02354254077909,2.75827916342314-9.340704114971231,3.274226315721535-4.920904997132311.883859428611686-9.857555469241561,1.633078033710262-14.869558759486608,1.739296923813527-7.740817476797019.128381576347238-15.308945827066054-.74149512207623-22.484351578992573-3.882990613496077Z" fill="#3faab3" stroke-width="0"/>
          <path d="M185.018255334805872,65.85283620111386c2.845537045282981,2.058524791011223,5.691074090567781,4.117049582025174,8.536471375289693,6.176175954637074,3.729089764387027,4.838608958767509,8.165258378454382,9.158824909277428,10.91639584008044,14.714634356972056,10.53202612275345,21.268987802298398,9.516986243776046,41.79682748569121-4.009072801820366,61.505773159383352-.694582192863891.369961351574602-1.063219479539839-.004658553132685-1.342687899099474-.585320341249826.432944857147959-3.678004853310995,3.133669463431943-6.275522961848765,4.605474011656042-9.472960693257846,10.798359317430368-23.459050623080657,4.429155158435606-51.104525097993246-15.717590702010057-67.328614720220685-1.67084749975038-1.345527115042387-3.907660448605384-2.211959207872496-4.526422580738654-4.618920790458105.401196740222076-.569068412005436.92720034717604-.646328017690394,1.537432756642374-.39076692580602Z" fill="#008c8d" stroke-width="0"/>
          <path d="M199.464111368790327,147.655698021016178c.332346754432365.197707721707047.664690786059509.395416179571839.997486598627802.593423144266126-1.180221278478712,2.644652670334835-3.524756266586337,4.408436170817367-5.107223634313414,6.749041491682874-.820873771601327.744089530671772-1.64195787967401,1.487768535665964-2.462765334015785,2.232178997066512-8.358429319920106,7.526950106954246-18.039761394562447,12.511461635653177-29.079370368393938,14.611501263056198-6.000521777763424,1.141460656494019-12.108302792135873,1.277764164620748-18.191754583622242.339727257973209-.383655588748297-1.11749071433951.463594899574673-1.409753790303512,1.190657363700666-1.785622366362077,4.499582823313176-.573418772091827,9.036195837496052-.142241319936147,13.566311618411419-.711576084086118,13.935003792390489-1.751353225243292,25.21201148721957-8.298849871738639,34.673911318737737-18.39694437927028,1.300714838567728-1.388156781778889,2.192006018241955-3.337298387015835,4.412747020867755-3.631729324326443Z" fill="#3b7787" stroke-width="0"/>
          <path d="M146.857112917185077,171.119828253945343c-.567682096228964.173348630009059-1.072377219205009.420003107796219-1.236763818977124,1.062128953079082-7.109924119327843-.592222972582022-13.535951861984358-3.445622306979203-20.035542118088415-6.056395720732326-8.665858177806513-5.331987834404572-16.397472688950074-11.687195599890401-21.639524483482091-20.57494229391159-11.407831400581927-19.341724002887531-12.241729660114288-39.036325915843008-1.656269687897293-59.019192890939848,1.899783234512142-3.586333714547436,4.047128657430221-7.016658138634739,6.70472152178445-10.104576629303665,6.385545437859037-6.891995121430227,13.757195857479019-12.397556789689588,22.488204131603197-15.992124073143714.545139715388359.369594641970252.689370941139714.89164078991962.578099207807099,1.511683721922964-.717693423255696,1.450006227012636-2.137082246819773,1.94376805497086-3.473162198324644,2.57467341062511-23.439896835554464,11.068489219496769-35.869088504126921,38.272965867721723-29.232896936517136,63.400581529641386,6.147170438460307,23.275938918383872,21.452861641349955,36.54384135415512,44.516589149279753,41.649163014831174,1.092316898275385.241787937575282,2.596638923798309-.121012641959169,2.986545232812205,1.549000977931428Z" fill="#276877" stroke-width="0"/>
          <path d="M131.838472813766202,61.767031308190781c-.118917201909426-.444240068993167-.237839665422143-.888477985105055-.356648424287414-1.332511485761643,3.789122956355641-1.091724292922663,7.42147756376653-2.750200682751711,11.401127008613912-3.152756303254137,8.566290524662691-1.939814959238902,17.041319702329929-.950490784367503,25.492839071968774.791611304063736,5.802507516251353,2.047774450230463,11.698968494743895,3.894916132594517,16.64251917187903,7.779402876614768-.519888229384378.155025262219169-1.039722887639073.309989300957568-1.559557545893767.464953339694148-1.031762595677719.490813220104428-1.941498121943368.029231178700684-2.794902290679602-.442764104089292-11.768478563950339-6.508842886639286-24.36118635260209-8.200429107067976-37.548136535093363-6.452388221458932-3.329857416567393.270793095783119-6.459301482391311,1.29907311779516-9.546122557192575,2.497730288145249-.59865474959588.188063212209272-1.18293272041592.211997581111063-1.731117899314995-.153277693953896Z" fill="#3b7888" stroke-width="0"/>
          <path d="M143.543058679436399,60.658774197690036c13.839097796736496-2.247204767582843,26.749090920323397.347781759272948,38.796576657061451,7.437431427938463,11.779290560207301,7.971243814666195,20.091004090410024,18.52028299803078,23.63910392859998,32.435991932444267,4.035821542701342,15.828563634408965,1.594137231617424,30.660389465609114-7.389738357915121,44.365228696019585-.317846093449589.484873810952195-.558611703374481,1.020252723780686-.835330603956209,1.532110345098772-12.876195543321046,16.525221756201972-29.821623044661465,23.928707604351075-50.663692172987794,22.597358059612816-11.977530642675447-1.932483299027808-22.614192090184588-6.543802988991956-31.588768651587088-14.964463030248226-27.663866500117365-25.956420829228591-20.146415703140519-72.99490583109764,14.289817331278755-88.877050683620837.965848028974506-.445452987574754,1.890989909693417-.979142332659649,2.835113736381572-1.471703277581582.464868889413992-.15686094704779.929741677334277-.313707474969306,1.394609220817074-.470552584945835,3.097469435842868-1.14380710056048,6.275413871821911-1.991111677350091,9.522308912307381-2.584350884717423Z" fill="#51b6b7" stroke-width="0"/>
          <path d="M143.174136611307404,58.594965438551299c-3.295888560784078.894560271037335-6.591782567173141,1.789122014405621-9.887616601725313,2.683581367322404,3.054900583199924-1.782622307135171,6.359657228309516-2.644296348939861,9.887616601725313-2.683581367322404Z" fill="#324b81" stroke-width="0"/>
          <path d="M194.3431233369447,139.924258962400017c-.753288328500275,2.869789621185191-3.253900707433786,4.209335564200956-5.328049051860944,5.839405182534392-1.324498610541923,1.04094491595788-3.211123735603906.986221198367275-4.5543495681286.092916537487326-3.988193565568508-2.652336269446096-7.70235105926804-5.796415703192906-9.954285886396974-10.038704394819433-1.371076160778102-2.582924737758731,1.126492064002377-4.780648437361378,2.4646443615311-6.871085725897501.699042076963451-1.092035403418777,1.950126372972591-1.830865947520579,2.951875410917637-2.729227000717401,4.331714710939195,5.068437364004239,9.618495981485466,9.132487160129131,14.420164733937781,13.706695401412617Z" fill="#a7d8bd" stroke-width="0"/>
          <path d="M194.3431233369447,139.924258962400017c-5.872540920257961-3.44837911020295-11.047570222099239-7.630297295550918-14.420471244873625-13.706910493899159,2.195935196539722-.260960012486976,3.692175050144215-2.284465381068003,6.117847386327412-2.182029465567211,4.13066492821963.174420585868575,7.665230920889371,1.021554256299169,9.550887407418486,5.280098176822321,1.704620539838288,3.849683683999501.962593347216171,7.284184296121566-1.248263548872274,10.608841782644049Z" fill="#bfded6" stroke-width="0"/>
          <path d="M143.84834609470272,62.366600581939565c13.399825550194691-2.175875357154837,25.90003750411779.336742681657597,37.565119257409606,7.201356991596185,11.405399465350456,7.718225429390259,19.453287627118698,17.932423410748925,22.888765832759418,31.406428354365744,3.907718943692089,15.326142970189721,1.543537094721614,29.687185983832933-7.155177766067027,42.95701452166395-.307757215578022.469483240601221-.540880589577682.987868480775433-.80881604669321,1.483479028004695-12.467487155946401,16.000688192521011-28.875043177768021,23.169177084327202-49.055555992014888,21.88008642915247-11.597347131386414-1.871143586523431-21.896386124139099-6.336093564423209-30.586097120907652-14.489470123186038-26.785776832421107-25.132527866167038-19.506940398053302-70.677945813796214,13.836238618708194-86.055969259580706.935190666786184-.431313689085073,1.83096725518044-.948062990749349,2.745123276130471-1.424989364978501.450113303147191-.15188196202871.900230381055735-.303749962614347,1.350342380993425-.455616590263162,2.999151440142668-1.107501069483988,6.076223491787459-1.927911018428858,9.220057559681663-2.502319986774637Z" fill="#a5dad2" stroke-width="0"/>
        </g>
      </g>
    </g>
  </a>
</svg>