<?xml version="1.0" encoding="UTF-8"?>
<svg id="Layer_1" data-name="Layer 1" xmlns="http://www.w3.org/2000/svg" width="280" height="280" viewBox="0 0 280 280">
  <g>
    <path d="M57.411202403573952,228.19760543524535c-.095989367572656-6.766962709578365,2.921441261604741-12.633674137505295,5.761084990175732-18.423225712249405,11.532660505842614-23.513558297556301,30.282005732009566-38.554588391660218,55.690238502614193-46.357779458910954-10.543187241360101-3.629925870922307-18.436004106298242-9.71346767274008-22.210763614695679-20.204951715848438-1.421657054062962-3.95114172832109-1.893391114355836-8.068360344153916-2.211491649151867-12.201729374966817-.161719249736052-2.101578612127923-.407998606027832-3.32860476285714-3.017920921520272-4.140792016245541-5.258243534714893-1.636347142142768-8.548389477273304-5.525790869494813-9.205126458094128-11.258912296889321-.670400761468954-5.851758562163013,1.186711680969893-10.858406287454272,6.424867634843395-13.500399884080252,3.921904679037652-1.978128637700138,2.11662407710628-4.966629466263839,2.663173553529305-7.578187493243604-.883270117858046-5.390770883339428-1.319532533245365-10.80378984008712-.809240256929115-16.263913442166086-.027851986569658-1.707729945625033-.524442793315757-3.502612312437122.919029495134964-4.93684269140067,3.481829125409604.076417268941441,3.082913546225427,2.897118074462924,3.427996033852651,5.031684149525972,1.779295699167051,11.0055689946239,3.849290624111745,21.857284384146624,8.851337014981254,32.038994270049443,10.546635570011858,21.467874944966752,32.590367795867678,34.795404707059788,55.282707195768126,33.045459576540452,3.002277522657096-.231536360064638,5.855465987870048-1.406311452126829,8.855337651998525-1.348018466571375,1.707036573949154.033150701736304,4.182917584258576-.888601350867248,4.413089962967206,2.251603714492376-3.228801626887616,8.501172841355583-9.962709311467734,13.32848692938569-18.564258813993547,17.262153095940448,24.846770367801582,4.904848655161913,44.619246901610495,16.773631393247342,58.801546194494222,37.274070211682556-3.115521079432256,2.831006744825572-6.871747521074212,1.748299427130405-10.444427027292477,1.673430846753035-12.927193456000168-.27115071146909-25.087197879042833,2.324591820859496-36.033633056147664,9.52008310385645-1.391543870757232.914715975162835-2.718074173885725,1.921795135964203-3.858817524815095,3.143024686072749-1.931096656170666,2.067468254979758-3.379372207632514,4.118522069598839-.961529559880546,6.910279059284221,1.958755058845782,2.261624163395027.73995440521503,3.142505916599475-1.741364450218498,3.16112885910843-.49809712631577.003723750116478-.996064030254274.052698476683872-1.494189064967941.079022092315427-32.378662843573693,1.711307626388589-64.757132782904591,3.425109204672481-97.136569708364732,5.12176878378159-1.135830440984137.059504259312234-2.321620085667746.40287644318596-3.401076124288011-.297949896830687Z" fill="none" stroke="#181818" stroke-linecap="round" stroke-linejoin="round" stroke-width="49"/>
    <path d="M172.245521539048241,144.35059459328113c-2.35618886665543-2.19055396499607-5.054861014096787-1.062636458675115-7.536087618434067-.556580265645607-14.931440623531671,3.045201846303826-28.621280028627552-.063536321133142-40.999334978319894-8.593673902538285-17.285620637108877-11.912144249563426-25.769355671272024-29.012338606891717-29.01584724562781-49.39393645020391-.653142842751549-4.100501288143278.527878317028808-9.071817699383246-3.279198821845057-12.475547852311138,3.193695374018716-11.539579912921909,10.957891522298269-18.03040649821196,22.500692688128765-20.347240758765111,4.070127719846823-.978424509910838,3.447569175325043,2.060076074347307,3.287237925926092,4.165145077178749-.390498926031796,5.12855947915159-1.074036027968759,10.219849650391552-.613198810284302,15.395966449865227,1.121770140014632,12.600658725274116,4.9078835701157,24.182388461096707,13.972419237050417,33.294324973663606,9.818225648125917,9.869677965023584,21.730408640083624,13.7505683894924,35.537735429961685,10.307779411068623,5.504400435760544-1.372520608827472,7.263596219849205-3.804205677257414,7.613496212369682-9.56109952054976.126971588323613-2.088754566972057-.536066988527637-4.388664208763657,1.455136822826717-6.036841097920842,4.169051152050088-.762447505439923,5.691771184375284,2.23556478890896,7.298197978203461,5.128071575374634,1.182705298036126,2.12961971036566,1.03891745956571,4.82412108079734,2.857511793819867,6.6803497338733-1.084311527869431,4.909496006992413-3.548712354353484,8.781059788027051-8.530647138868517,10.394738648981729-2.735171363774498.885921125176537-1.640784643400366,2.932013265508431-1.599665950185226,4.479112705099396.157792966478155,5.923189232151344.231670805363137,11.787201576666121-2.948447524721814,17.119431272829388Z" fill="none" stroke="#181818" stroke-linecap="round" stroke-linejoin="round" stroke-width="49"/>
    <path d="M175.852792185484759,100.818864637200022c-1.058676138245573.860357255001873-.945440807389787,2.044468672935182-.859275882879047,3.203167413732444.958085671301887,12.888017091532674-5.367808961933406,13.513739134850766-13.63040659697981,14.485350485978415-17.356995558351628,2.041003389116668-34.032472983317348-8.599930323369335-41.023083556354322-25.181775347919029-4.945286466054313-11.730347694468946-6.547141869946245-23.806043727825454-4.359743568168597-36.3446143265719.351306020797892-2.013621074351249.619464171975778-3.686819258473406-2.064291648111976-3.997359926914214,8.264297562138381-2.320183802668907,16.789232408807038-1.442894500796683,25.193227620814469-2.050463574109017.959626259267679,5.432955629294156-.524159324555512,10.572658192268136-2.683698581040517,15.338933471237397-2.054954509496383,4.535466931967676-1.236219301270467,7.932561219040508,2.144585319034377,11.141491632650286,1.919697597364575,1.822042324423819,3.830282544626243,3.646261089768814,5.600106370120557,5.62729684885926,6.690286985396597,7.488564034985757,14.393515868600844,9.410935113330197,23.810714566835486,6.044077882103011,6.960232611330866-2.488446189447131,7.144904336762011-2.347437328338856,6.553482246458771,5.00502334522389.03909731765998.534004359782557.078195439980846,1.068023946223548.117231817462198,1.602031526417704.689223552101794,1.641324985357642,2.049570921722989,3.125565123820707,1.201151892808412,5.126840569311753Z" fill="none" stroke="#181818" stroke-linecap="round" stroke-linejoin="round" stroke-width="49"/>
    <path d="M57.411202403573952,228.19760543524535c34.638886069542423-1.830505715042818,69.277772139084846-3.661011430085637,104.591814467451513-5.527196046230529-5.384546782441248-4.278494099533418-5.454209651910787-7.234194151151314-.384929644483236-11.278273353371333,7.520416156053216-5.999560434509476,16.198425835999842-9.191764583876648,25.651237638855491-11.290321555457922,8.480403624294013-1.882690036374697,16.866001341701121-.02256565920834,25.213546603648865-1.214969346368889,4.326803295016362,5.343836656145868,6.966985242323062,11.572785992746503,9.577627804633266,17.849867357730545,1.247770069275248,3.000051942923164.262972273042578,3.923933779213257-2.621512485053245,3.8589018210223-.663530709925908-.014926760457456-1.329121316004603.061839894126024-1.993730095660794.097053024594061-51.673145265182029,2.738475202400878-103.345604960959463,5.489923519449803-155.022519462443597,8.155916598061594-1.625930897596845.083876894634159-3.581026425167693,1.284377101728751-5.011534826948264-.650978499979828Z" fill="none" stroke="#181818" stroke-linecap="round" stroke-linejoin="round" stroke-width="49"/>
    <path d="M174.53440847521415,94.089992541470565c-.107890368743028-1.15466477548398-.259183825145556-2.307295473648992-.313980008225371-3.464475918022799-.093630367397054-1.977618042295944-.682329592123097-2.639515132443194-2.777661145928505-1.687408717796643-11.656002727156192,5.296398195860093-21.823891071943763,3.976182393860654-29.832416650423511-6.869917437441472-1.062091571443489-1.438436239342991-2.692918177974207-2.448642967126943-4.0115654846295-3.708110358267731-4.775476569321654-4.560973103278229-5.076653729657664-6.639500555804261-2.1529623392953-12.607898269703583,2.283783827535444-4.662063110848976,1.84262079499058-10.025579977700545,3.663456647273051-14.819015699249576,20.693574746517697-2.077735373706673,35.046438720526567,10.297951216431102,35.674702719020388,30.900134887517197.124233391521557,4.076231113009271.869506776500202,8.194782769518497-.249573737791252,12.256691512964608Z" fill="none" stroke="#181818" stroke-linecap="round" stroke-linejoin="round" stroke-width="49"/>
    <path d="M175.852792185484759,100.818864637200022c-1.118894409756649-1.540791832729155-1.35346248582664-3.288612124415522-1.201155916102834-5.126916702614835,9.335465162313994,4.668410907241196,12.169387776874828,9.093771679337806,10.672661171961408,16.665653338332049-2.366521306096729-.048993655909726-2.750632439217043-1.63156235551287-3.131163390599795-3.580032450776343-.717280431656945-3.673254663750413-2.438227188115889-6.732266633131076-6.340341865258779-7.958704184940871Z" fill="none" stroke="#181818" stroke-linecap="round" stroke-linejoin="round" stroke-width="49"/>
    <path d="M90.496024184345515,78.267714040644933c.269744874773096,5.421268951846287.539489749545282,10.842537903696211.809237038293759,16.263852535525075-1.294131442094113-5.370265018649661-2.132421269532642-10.763290749870066-.809237038293759-16.263852535525075Z" fill="none" stroke="#181818" stroke-linecap="round" stroke-linejoin="round" stroke-width="49"/>
  </g>
  <g>
    <path d="M57.411202403573952,228.19760543524535c-.095989367572656-6.766962709578365,2.921441261604741-12.633674137505295,5.761084990175732-18.423225712249405,11.532660505842614-23.513558297556301,30.282005732009566-38.554588391660218,55.690238502614193-46.357779458910954-10.543187241360101-3.629925870922307-18.436004106298242-9.71346767274008-22.210763614695679-20.204951715848438-1.421657054062962-3.95114172832109-1.893391114355836-8.068360344153916-2.211491649151867-12.201729374966817-.161719249736052-2.101578612127923-.407998606027832-3.32860476285714-3.017920921520272-4.140792016245541-5.258243534714893-1.636347142142768-8.548389477273304-5.525790869494813-9.205126458094128-11.258912296889321-.670400761468954-5.851758562163013,1.186711680969893-10.858406287454272,6.424867634843395-13.500399884080252,3.921904679037652-1.978128637700138,2.11662407710628-4.966629466263839,2.663173553529305-7.578187493243604-.883270117858046-5.390770883339428-1.319532533245365-10.80378984008712-.809240256929115-16.263913442166086-.027851986569658-1.707729945625033-.524442793315757-3.502612312437122.919029495134964-4.93684269140067,3.481829125409604.076417268941441,3.082913546225427,2.897118074462924,3.427996033852651,5.031684149525972,1.779295699167051,11.0055689946239,3.849290624111745,21.857284384146624,8.851337014981254,32.038994270049443,10.546635570011858,21.467874944966752,32.590367795867678,34.795404707059788,55.282707195768126,33.045459576540452,3.002277522657096-.231536360064638,5.855465987870048-1.406311452126829,8.855337651998525-1.348018466571375,1.707036573949154.033150701736304,4.182917584258576-.888601350867248,4.413089962967206,2.251603714492376-3.228801626887616,8.501172841355583-9.962709311467734,13.32848692938569-18.564258813993547,17.262153095940448,24.846770367801582,4.904848655161913,44.619246901610495,16.773631393247342,58.801546194494222,37.274070211682556-3.115521079432256,2.831006744825572-6.871747521074212,1.748299427130405-10.444427027292477,1.673430846753035-12.927193456000168-.27115071146909-25.087197879042833,2.324591820859496-36.033633056147664,9.52008310385645-1.391543870757232.914715975162835-2.718074173885725,1.921795135964203-3.858817524815095,3.143024686072749-1.931096656170666,2.067468254979758-3.379372207632514,4.118522069598839-.961529559880546,6.910279059284221,1.958755058845782,2.261624163395027.73995440521503,3.142505916599475-1.741364450218498,3.16112885910843-.49809712631577.003723750116478-.996064030254274.052698476683872-1.494189064967941.079022092315427-32.378662843573693,1.711307626388589-64.757132782904591,3.425109204672481-97.136569708364732,5.12176878378159-1.135830440984137.059504259312234-2.321620085667746.40287644318596-3.401076124288011-.297949896830687Z" fill="#224c5c" stroke-width="0"/>
    <path d="M172.245521539048241,144.35059459328113c-2.35618886665543-2.19055396499607-5.054861014096787-1.062636458675115-7.536087618434067-.556580265645607-14.931440623531671,3.045201846303826-28.621280028627552-.063536321133142-40.999334978319894-8.593673902538285-17.285620637108877-11.912144249563426-25.769355671272024-29.012338606891717-29.01584724562781-49.39393645020391-.653142842751549-4.100501288143278.527878317028808-9.071817699383246-3.279198821845057-12.475547852311138,3.193695374018716-11.539579912921909,10.957891522298269-18.03040649821196,22.500692688128765-20.347240758765111,4.070127719846823-.978424509910838,3.447569175325043,2.060076074347307,3.287237925926092,4.165145077178749-.390498926031796,5.12855947915159-1.074036027968759,10.219849650391552-.613198810284302,15.395966449865227,1.121770140014632,12.600658725274116,4.9078835701157,24.182388461096707,13.972419237050417,33.294324973663606,9.818225648125917,9.869677965023584,21.730408640083624,13.7505683894924,35.537735429961685,10.307779411068623,5.504400435760544-1.372520608827472,7.263596219849205-3.804205677257414,7.613496212369682-9.56109952054976.126971588323613-2.088754566972057-.536066988527637-4.388664208763657,1.455136822826717-6.036841097920842,4.169051152050088-.762447505439923,5.691771184375284,2.23556478890896,7.298197978203461,5.128071575374634,1.182705298036126,2.12961971036566,1.03891745956571,4.82412108079734,2.857511793819867,6.6803497338733-1.084311527869431,4.909496006992413-3.548712354353484,8.781059788027051-8.530647138868517,10.394738648981729-2.735171363774498.885921125176537-1.640784643400366,2.932013265508431-1.599665950185226,4.479112705099396.157792966478155,5.923189232151344.231670805363137,11.787201576666121-2.948447524721814,17.119431272829388Z" fill="#336175" stroke-width="0"/>
    <path d="M175.852792185484759,100.818864637200022c-1.058676138245573.860357255001873-.945440807389787,2.044468672935182-.859275882879047,3.203167413732444.958085671301887,12.888017091532674-5.367808961933406,13.513739134850766-13.63040659697981,14.485350485978415-17.356995558351628,2.041003389116668-34.032472983317348-8.599930323369335-41.023083556354322-25.181775347919029-4.945286466054313-11.730347694468946-6.547141869946245-23.806043727825454-4.359743568168597-36.3446143265719.351306020797892-2.013621074351249.619464171975778-3.686819258473406-2.064291648111976-3.997359926914214,8.264297562138381-2.320183802668907,16.789232408807038-1.442894500796683,25.193227620814469-2.050463574109017.959626259267679,5.432955629294156-.524159324555512,10.572658192268136-2.683698581040517,15.338933471237397-2.054954509496383,4.535466931967676-1.236219301270467,7.932561219040508,2.144585319034377,11.141491632650286,1.919697597364575,1.822042324423819,3.830282544626243,3.646261089768814,5.600106370120557,5.62729684885926,6.690286985396597,7.488564034985757,14.393515868600844,9.410935113330197,23.810714566835486,6.044077882103011,6.960232611330866-2.488446189447131,7.144904336762011-2.347437328338856,6.553482246458771,5.00502334522389.03909731765998.534004359782557.078195439980846,1.068023946223548.117231817462198,1.602031526417704.689223552101794,1.641324985357642,2.049570921722989,3.125565123820707,1.201151892808412,5.126840569311753Z" fill="#3f7088" stroke-width="0"/>
    <path d="M57.411202403573952,228.19760543524535c34.638886069542423-1.830505715042818,69.277772139084846-3.661011430085637,104.591814467451513-5.527196046230529-5.384546782441248-4.278494099533418-5.454209651910787-7.234194151151314-.384929644483236-11.278273353371333,7.520416156053216-5.999560434509476,16.198425835999842-9.191764583876648,25.651237638855491-11.290321555457922,8.480403624294013-1.882690036374697,16.866001341701121-.02256565920834,25.213546603648865-1.214969346368889,4.326803295016362,5.343836656145868,6.966985242323062,11.572785992746503,9.577627804633266,17.849867357730545,1.247770069275248,3.000051942923164.262972273042578,3.923933779213257-2.621512485053245,3.8589018210223-.663530709925908-.014926760457456-1.329121316004603.061839894126024-1.993730095660794.097053024594061-51.673145265182029,2.738475202400878-103.345604960959463,5.489923519449803-155.022519462443597,8.155916598061594-1.625930897596845.083876894634159-3.581026425167693,1.284377101728751-5.011534826948264-.650978499979828Z" fill="#224c5c" stroke-width="0"/>
    <path d="M174.53440847521415,94.089992541470565c-.107890368743028-1.15466477548398-.259183825145556-2.307295473648992-.313980008225371-3.464475918022799-.093630367397054-1.977618042295944-.682329592123097-2.639515132443194-2.777661145928505-1.687408717796643-11.656002727156192,5.296398195860093-21.823891071943763,3.976182393860654-29.832416650423511-6.869917437441472-1.062091571443489-1.438436239342991-2.692918177974207-2.448642967126943-4.0115654846295-3.708110358267731-4.775476569321654-4.560973103278229-5.076653729657664-6.639500555804261-2.1529623392953-12.607898269703583,2.283783827535444-4.662063110848976,1.84262079499058-10.025579977700545,3.663456647273051-14.819015699249576,20.693574746517697-2.077735373706673,35.046438720526567,10.297951216431102,35.674702719020388,30.900134887517197.124233391521557,4.076231113009271.869506776500202,8.194782769518497-.249573737791252,12.256691512964608Z" fill="#4e829f" stroke-width="0"/>
    <path d="M175.852792185484759,100.818864637200022c-1.118894409756649-1.540791832729155-1.35346248582664-3.288612124415522-1.201155916102834-5.126916702614835,9.335465162313994,4.668410907241196,12.169387776874828,9.093771679337806,10.672661171961408,16.665653338332049-2.366521306096729-.048993655909726-2.750632439217043-1.63156235551287-3.131163390599795-3.580032450776343-.717280431656945-3.673254663750413-2.438227188115889-6.732266633131076-6.340341865258779-7.958704184940871Z" fill="#4e829f" stroke-width="0"/>
    <path d="M90.496024184345515,78.267714040644933c.269744874773096,5.421268951846287.539489749545282,10.842537903696211.809237038293759,16.263852535525075-1.294131442094113-5.370265018649661-2.132421269532642-10.763290749870066-.809237038293759-16.263852535525075Z" fill="#336175" stroke-width="0"/>
  </g>
</svg>