<?xml version="1.0" encoding="UTF-8"?>
<svg id="Layer_1" data-name="Layer 1" xmlns="http://www.w3.org/2000/svg" width="280" height="280" xmlns:xlink="http://www.w3.org/1999/xlink" viewBox="0 0 280 280">
  <a xlink:href="https://www.notion.so/dmmnotes/Classifications-f5f8f379e1b74996831ea1db501f3bf9?pvs=4">
    <g>
      <g>
        <path d="M108.696840351029095,194.968636569957198c-3.730519976368669,3.256162808788758-7.534263228006239,6.413898553911167-11.882223757862448,8.840213807008695-4.181147473544115-6.961569118446278-7.344689323625062-14.419525654120662-10.566837533711805-21.842536876669328-1.007482135933969-2.320979324969812.619033312897955-4.059388059440607,1.850390686428-5.784356473553089,3.406243059271219-4.771674460623217,4.987998729244282-9.930972347732677,3.623319422858913-15.810816982553661-.651841367580346-2.808494561340922-2.292764011064719-5.074427428017771-3.783469152418547-7.427453403605796-1.065412883412137-1.68172938439784-1.452035902691932-3.138052717955361-.304750570156102-5.130420286890512,8.703265528423799-15.11400462230813,16.43612654170829-30.75014831442877,24.626982616950045-46.140794892645317,4.377871735076042-8.226045809663447,8.680737040185704-16.490905934308103,13.016747937846958-24.738573800584163.897019309346433-1.706254846490083,1.471422667413208-3.398110252144761,1.301542662697102-5.323209672420489.865371744683216-1.769220199151277,2.593245212243346-2.193618315664935,4.255415008601631-2.538792592220489,11.219749500660328-2.329938359460357,22.203791338688461-5.782606715244583,33.640062240676343-7.080213145523885l2.391395718024796.182447482552561c1.375328504656864,1.002072203600619,3.752554874377893.353265907090645,4.352916814626951,2.635132412485291-.174752536324377,4.167499087054239-2.959371797272979,7.240703414634481-4.65036290408716,10.75487895506285-1.171867614313669,2.435363084921846-2.529441178434354,4.488344194154706,1.121817072964404,5.859048073022677.303686813418608.114005111160623.236982696022096.694545024122817.028807614920879,1.065771274362305-1.061498530507379.741933870500361-2.266240591128735.571215999931155-3.448513882176485.555470014655839-12.901744858012535-.171839010371514-20.223782735916757,11.708090921291841-14.384612687441404,23.308419290546226.694396307701027,1.379501274733229,1.842117493772093,2.64285523851413,1.396416182831672,4.3968527587258-2.232963110021956,1.027417182920544-3.767367599022691,2.586499284177989-4.971114186868363,4.851044200739125-11.811710189713267,22.22074095062635-23.269379113487958,44.629664143408263-35.294258572843319,66.734425817530791-2.25381212793036,4.143076603521877-2.263335968153115,8.295722887347438-2.319670731862061,12.633464039974569Z" fill="none" stroke="#9e4d25" stroke-linecap="round" stroke-linejoin="round" stroke-width="42"/>
        <path d="M99.667146585114097,91.486440714781565c8.921189251839678-6.650729533287631,17.220347737071279-14.153564103306053,26.961788863245602-19.680608588284485,1.791600990112784.893561765858976,1.508641412121506,2.028932302919202.693054231114729,3.574642454456807-12.544400669603419,23.774165605676899-24.862846797139355,47.670555531965874-37.733187577483477,71.266166716396583-1.735603525252372,3.181930295821076-1.56299460396076,4.807435752475612.098795841124229,7.384023672391777,5.065464264818729,7.853965035566034,4.973130603244499,15.268934064405585-.848465536535514,22.762162634588094-2.236323269335116,2.878468075515229-1.835193527773299,4.927624074459345-.5538987062464,7.828983897588842,2.827227657608091,6.402010602826522,6.852380359938252,12.277386775524064,8.529325488056202,19.18650845162847-.593840352419647.402797659253338-1.187744191251113.805064431100618-1.781647102139686,1.207319040167931-1.859976474566793-.141903752206417-3.719946867498948-.283807040419561-5.57992334206574-.42571079262143-1.685275048665062-.77553570409691-3.197935955626235-1.712157179677888-4.42035784415566-3.205748442768709-5.292847359953157-6.467038857402258-10.164916300996993-13.253666018340482-15.179097849388199-19.929986303925034-.901055632210046-1.19976319901798-2.601505235301374-2.509106574925681-1.297567648331096-4.494153034657757,1.500885510395165-.667254773322384,2.851365797801918-.012622402935449,4.231084921031652.465385794992471,5.472965030021442,1.896198608563282,11.377115682711519.052434092031035,14.840793097393544-4.621002506887635,3.529207656345534-4.761852676344461,3.568956420875111-11.474185456163468.094429553026202-15.94674447833313-3.336745618718851-4.295181241189312-10.292713389642813-6.356326112975694-15.097514646342461-4.473585826458475-5.432405203049711,2.128678249705445-8.776319135726226,7.538012126122339-8.382042212895612,13.608250329037219.095489706542139,1.470164163224581.22360811506951,2.927073063992793-.59366311310805,4.262761719366608-2.035328476169525,1.070400172072368-2.883990521129817-.66913602367822-3.726622871243308-1.800019899448671-5.365654563163844-7.201237656108788-10.599377279198961-14.502573159017629-16.268292184084203-21.472091550074765-1.494807322484121-1.837748713152905-1.771236162054265-4.029423649859382-2.250850124939461-6.189415343531437.101355509195855-1.328498082350052.202711482372251-2.657002246086449.304065851261839-3.985500415436036.378732910976396-.501907899300932.757466962260878-1.00381571160051,1.136202058825802-1.505723444152864,2.230083744092553-.841668134194151,3.062161104815459,1.067738273796749,4.118009958761832,2.246733142967059,3.234907271602424,3.612167125406813,6.942326996431802,6.57345618943782,11.283597335348531,8.728398817927882,4.462492389320687,2.215125558356704,12.853267094196781.184671102860193,15.185371679159289-4.212175623247276,8.466709744767286-15.962754959865379,17.001646778922805-31.891286589030642,25.233319495988326-47.978127108984154.422986443856644-.826630076966467.644398594949962-1.742902853800842,1.003292384621091-2.600743312697887Z" fill="none" stroke="#9e4d25" stroke-linecap="round" stroke-linejoin="round" stroke-width="42"/>
        <path d="M223.609638665926468,106.590320081011669c-.730171339670051.281337044714746-.806522149932789.949352717794682-.989288445736747,1.588070221124326-4.069855425428614,14.223519252220285-18.413461608304715,24.89208853006312-36.045259285050633,20.996896865101007-5.254376987370051.264969242236475-8.995447773297201-2.943381331244382-12.650116468126726-5.920084999163009-2.541159654256262-2.06974574162723-4.65964939976584-4.736111639293085-6.325825170502867-7.658033243156751-.963143175777077-2.262404775254254-2.433328574488769-4.299973047533058-3.003929964750569-6.740366684147375-1.388873685700673-5.918871403736375-1.641692065706593-11.7893146146871.72424031574883-17.549272848001237,2.926712816479267-2.017355312538712,4.653574356272657,1.534059811278894,7.148961127717484,1.547152112982985.291520026261423.298013383745456.459486022127749.655707900259586.511025212332243,1.068822571582132-.407262439117403,3.513748306488196-1.267095821986004,7.005477312769472-.538773743470301,10.575909201073955.464813134798533,2.438473131969658,1.367991914583399,4.708643646361452,2.642823152973506,6.83441535187103,3.472214234569037,6.284783999831234,9.036924858944985,9.507654865252334,15.880236781680651,10.862933762454304,13.734955181073019.810254000906752,23.567306528120753-7.44089831511792,24.804544982713196-20.258706645046914,1.186425028472513-12.291130099342809-10.36555812379811-26.66280863045813-27.840737862083188-22.399870554398149-1.540482764285116.375790482778029-2.949864295766019,1.238247629539728-4.593722135812641,1.255125607177433-2.736031574968365-1.085862385899418-4.773854576669692-2.729738934346642-4.770620513738322-5.998004324395879,5.669871844547743-4.930858693131995,12.622371430437852-5.616569058113782,19.457320460780466-4.653588464124368,10.608697503046642,1.4946673905024,18.551480242596881,7.265401842480969,23.560265305710345,17.005735122138503,2.161145410307654,4.20263274660374,2.037636195396772,8.645851181370745,2.515363436130428,13.066066421428332l-.486507186515155,6.376800525499675Z" fill="none" stroke="#9e4d25" stroke-linecap="round" stroke-linejoin="round" stroke-width="42"/>
        <path d="M108.696840351029095,194.968636569957198c-2.267930232246727-4.542188851373794-.937135691849107-8.653192606610901,1.271378640964031-12.819665859594352,12.211707124679378-23.03796795072958,24.364920209900447-46.107086153883756,36.461129178549527-69.205876894456196,1.152620235579889-2.201041562504543,2.791653033285911-2.579779162902923,4.913283219288132-2.343074075296499,3.464122102357578.468914254043739,5.949369548472532,3.366769925269182,9.432505924809448,3.788506371415679.768124171179807.174999102622678,1.512978152375581.405494337594064,2.150863813132673.891994356948089,2.274797568743452,4.160168821527805,4.202453974432501,8.539056802749656,7.812792198878014,11.835754617686689,3.827611400587557,3.495108079550846,8.305214306976268,5.491108676634212,13.428612540317772,6.099447612955373-2.123578780727257,5.653203884631694-5.977150170676396,9.759748389072229-10.813211342647264,13.355673346853109-21.184093425883475,15.751750119816279-42.20769825098796,31.719311171372283-63.295416232860589,47.600768215516837-.417269106652384.314240828603943-.906355243960206.533110172707893-1.361937940431744.796472307971271Z" fill="none" stroke="#9e4d25" stroke-linecap="round" stroke-linejoin="round" stroke-width="42"/>
        <path d="M184.167405866968693,133.215722699615981c-5.745017162113072,1.808781596748304-9.750325570275891-1.84575675029555-13.535771175553236-4.917620219534001-3.917968175939677-3.179420613967523-6.821115989319878-7.432963858296716-7.89695997603485-12.609985949799011,1.681826395224562-1.393453168296219,3.500449125260275-1.680065912067221,5.478444933298306-.67693649739067,4.340198096751919,7.029458144598721,10.484690616447551,11.720581466605836,18.361683980363523,14.165467609048392-.802266738421167,1.345458069465167-1.604832482227721,2.692269604266585-2.407397762073742,4.039075057675291Z" fill="none" stroke="#9e4d25" stroke-linecap="round" stroke-linejoin="round" stroke-width="42"/>
        <path d="M170.716945428337567,64.76995261524371c3.35247965814051,2.96862524230346,5.513424289649265,6.885730474304182,8.241322597648832,10.352202228404167.90383260651106,2.127543243535001,2.394301509561046,3.792612798372829,4.139137133037366,5.257450242811501,3.971634538329454,1.712866209408276,5.124994338555553,5.93944998038296,7.772324069497699,8.841244039224875,2.305447569508033,2.527058373894761,4.200495430797673,5.456553597099628,6.306137550671338,8.188208595087417,3.222627414284943,4.180752211345862,3.845536675326002,8.810707987438036.854203777706061,13.330089869981748-2.685000957872035,4.056553896643891-3.723312588068438,9.161401679652954-7.825811547480043,12.303580525447614-6.92992946258164-1.526373798939858-12.609794497309849-4.79533035203076-15.895459918401684-11.401837367317057.247558303432015-2.456675190741407,2.461159327625865-3.706082860100651,3.496083288753653-5.697960827026691,3.946184908474606-7.59510414430315,1.159877143232734-16.781731490269522-6.539341870422504-21.391594790607087-1.219124140825443-.729946094190382-2.823869745938282-.945101838878145-3.489817989066069-2.466408158596096-4.909908797053504-1.783009749744451-4.762420533754266-1.7070876348007-2.053533110127319-6.969268644279509,1.749359270652349-3.398230969140968,3.99588525706713-6.579163500945469,4.99475601818267-10.345705713130883Z" fill="none" stroke="#9e4d25" stroke-linecap="round" stroke-linejoin="round" stroke-width="42"/>
        <path d="M167.775722520282216,82.084926972654102c13.904666719470697,4.550222342220877,17.178307244903408,19.360350766012743,6.533087342091676,29.555982948376368-1.543999818650263-1.84169139171081-2.104640067600485-4.085202465719703-2.597696792212446-6.356328064449372,1.678212583141431-3.904881644528359,1.979203456201503-7.90843180713091.860690185241765-12.013677558802556.077236521414306-.150611524707529.05206440513939-.28153506110084-.075516116854487-.392773649867195-2.025785218547753-1.578444376389598-3.597794951783726-3.968792510207095-6.650506770172797-3.70492205248047-5.972121319418875-.540708227290452-10.736259450273792,2.525735759187228-11.740396879831678,7.564939677240545-1.083459905888958,5.437325070464794,1.992810192905381,9.698751721579356,8.300824546608055,11.489985497581074.511808520408522.145329824520559,1.00811726106258.314702755972576,1.449798166542678.617046350685996.932847566755299,1.234096938718722-.227072179177412,1.678867520100539-.930287630444582,2.053315634344472-1.758132520482832.936148293795668-1.837953734304392,2.782564610417467-2.56237927989423,4.281217011496665-3.47341917065387-.608113769746524-6.351506012912068-2.389045644887119-9.021262804002617-4.579475397996248-6.968666310907793-10.062298250375534-6.042449752058019-19.413519409895343,2.449378614526722-25.81705770913959,4.262490433216954-3.214264973380523,9.043889959151784-3.250295598606499,13.984267418401942-2.69825268698969Z" fill="none" stroke="#9e4d25" stroke-linecap="round" stroke-linejoin="round" stroke-width="42"/>
        <path d="M99.667146585114097,91.486440714781565c1.118986089562895,2.167403664670928-.322836582876334,3.819324865803537-1.208960428417413,5.512256714316209-7.859863642845085,15.016218939746068-15.786228769298759,29.997642785522658-23.643698381825743,45.015114811771127-2.292303904638175,4.381129177566436-11.262674721865551,7.77239679792001-15.801195349946283,5.743519606947302-4.772449801042967-2.133448250044239-8.935639606861514-5.127631665693116-12.398089094589523-9.093502595796963-1.10232984904178-1.262615938007002-1.8507662582997-2.992199559457731-3.771703138643716-3.361503157650077,1.206486947239682-3.093888604264976,4.194506443003775-4.331046521323515,6.577275614850805-6.129072049304341,16.712102710225736-12.610883851938524,33.489710061936421-25.134970323791094,50.246370778571873-37.686813330283258Z" fill="none" stroke="#9e4d25" stroke-linecap="round" stroke-linejoin="round" stroke-width="42"/>
        <path d="M68.132584017414047,177.351510371755467c-2.060730246455933-1.933853415441263-3.500640237689367-4.33217080824852-5.001625580485779-6.684708802338719.933240001984814-3.329037206817702-.749130433701794-6.691398130024027.660752397881879-10.187172530186217,2.460232380115485-6.100090325806377,7.286544496842907-9.849495283609031,13.023311467144595-9.832769649766306,7.633264748421425.022252658606703,13.153181169031086,5.806634540092091,14.301705990988921,11.059728265746344,1.647279288663412,7.534245148552145-3.23585604591608,13.836420016506054-7.707260137281992,15.973437571253271-3.702057063364919,1.769300012320855-7.515269007417373,2.827973483274945-11.4331051402296.542849676285186-1.202493812355897-.70137808376694-2.499997183247615-.857830016494518-3.843778998018024-.87136453099356Z" fill="none" stroke="#9e4d25" stroke-linecap="round" stroke-linejoin="round" stroke-width="42"/>
        <path d="M164.029232289558422,109.416956783260503c.546894422759578-.047880453887046,1.093801240778703-.095763020495724,1.640585962153637-.143648785471669.84806368131467,1.913066655889452,1.696248995309361,3.826142591538883,2.543873470795006,5.73855182652278-1.826697362348568.224877751276836-3.652822186910271.450429212584822-5.478982009293759.676118689932991-.790318823505004-.169199339909937-1.580602185205862-.338542777252769-2.371128448357922-.508069899637121-1.553693559186286-3.686526515655714,1.086612653625707-4.705253593480847,3.665651024703038-5.762951831346982Z" fill="none" stroke="#9e4d25" stroke-linecap="round" stroke-linejoin="round" stroke-width="42"/>
        <path d="M166.378778526806855,90.92850651126173c.011461207201137-.779621700494317.022934809645449-1.559245513712085.034155767289121-2.338925302770804,3.302313871812657-.376635112210352,5.209265788040284,1.225752328723502,6.084049170995058,4.289685236061814-2.882420207695759,1.992591197506044-3.960613912733606-1.672426848994292-6.11820493828418-1.95075993329101Z" fill="none" stroke="#9e4d25" stroke-linecap="round" stroke-linejoin="round" stroke-width="42"/>
        <path d="M76.466570682470774,177.142523610638818c-6.898321384594965-.590155009819682-11.721606273951693-6.153678458542345-11.193702262835359-12.911601813099878.535092041125608-6.84993420171304,6.458052056368615-11.899803668031382,13.318772905375226-11.355481650754882,6.396945325872366.507526071731263,11.999322869320167,6.918331450852747,11.385777280842376,13.028779345423573-.677515985016726,6.747561050268814-6.769685051378474,11.815025423818042-13.510847923382244,11.238304118431188Z" fill="none" stroke="#9e4d25" stroke-linecap="round" stroke-linejoin="round" stroke-width="42"/>
      </g>
      <g>
        <path d="M108.696840351029095,194.968636569957198c-3.730519976368669,3.256162808788758-7.534263228006239,6.413898553911167-11.882223757862448,8.840213807008695-4.181147473544115-6.961569118446278-7.344689323625062-14.419525654120662-10.566837533711805-21.842536876669328-1.007482135933969-2.320979324969812.619033312897955-4.059388059440607,1.850390686428-5.784356473553089,3.406243059271219-4.771674460623217,4.987998729244282-9.930972347732677,3.623319422858913-15.810816982553661-.651841367580346-2.808494561340922-2.292764011064719-5.074427428017771-3.783469152418547-7.427453403605796-1.065412883412137-1.68172938439784-1.452035902691932-3.138052717955361-.304750570156102-5.130420286890512,8.703265528423799-15.11400462230813,16.43612654170829-30.75014831442877,24.626982616950045-46.140794892645317,4.377871735076042-8.226045809663447,8.680737040185704-16.490905934308103,13.016747937846958-24.738573800584163.897019309346433-1.706254846490083,1.471422667413208-3.398110252144761,1.301542662697102-5.323209672420489.865371744683216-1.769220199151277,2.593245212243346-2.193618315664935,4.255415008601631-2.538792592220489,11.219749500660328-2.329938359460357,22.203791338688461-5.782606715244583,33.640062240676343-7.080213145523885l2.391395718024796.182447482552561c1.375328504656864,1.002072203600619,3.752554874377893.353265907090645,4.352916814626951,2.635132412485291-.174752536324377,4.167499087054239-2.959371797272979,7.240703414634481-4.65036290408716,10.75487895506285-1.171867614313669,2.435363084921846-2.529441178434354,4.488344194154706,1.121817072964404,5.859048073022677.303686813418608.114005111160623.236982696022096.694545024122817.028807614920879,1.065771274362305-1.061498530507379.741933870500361-2.266240591128735.571215999931155-3.448513882176485.555470014655839-12.901744858012535-.171839010371514-20.223782735916757,11.708090921291841-14.384612687441404,23.308419290546226.694396307701027,1.379501274733229,1.842117493772093,2.64285523851413,1.396416182831672,4.3968527587258-2.232963110021956,1.027417182920544-3.767367599022691,2.586499284177989-4.971114186868363,4.851044200739125-11.811710189713267,22.22074095062635-23.269379113487958,44.629664143408263-35.294258572843319,66.734425817530791-2.25381212793036,4.143076603521877-2.263335968153115,8.295722887347438-2.319670731862061,12.633464039974569Z" fill="#fec74a" stroke-width="0"/>
        <path d="M99.667146585114097,91.486440714781565c8.921189251839678-6.650729533287631,17.220347737071279-14.153564103306053,26.961788863245602-19.680608588284485,1.791600990112784.893561765858976,1.508641412121506,2.028932302919202.693054231114729,3.574642454456807-12.544400669603419,23.774165605676899-24.862846797139355,47.670555531965874-37.733187577483477,71.266166716396583-1.735603525252372,3.181930295821076-1.56299460396076,4.807435752475612.098795841124229,7.384023672391777,5.065464264818729,7.853965035566034,4.973130603244499,15.268934064405585-.848465536535514,22.762162634588094-2.236323269335116,2.878468075515229-1.835193527773299,4.927624074459345-.5538987062464,7.828983897588842,2.827227657608091,6.402010602826522,6.852380359938252,12.277386775524064,8.529325488056202,19.18650845162847-.593840352419647.402797659253338-1.187744191251113.805064431100618-1.781647102139686,1.207319040167931-1.859976474566793-.141903752206417-3.719946867498948-.283807040419561-5.57992334206574-.42571079262143-1.685275048665062-.77553570409691-3.197935955626235-1.712157179677888-4.42035784415566-3.205748442768709-5.292847359953157-6.467038857402258-10.164916300996993-13.253666018340482-15.179097849388199-19.929986303925034-.901055632210046-1.19976319901798-2.601505235301374-2.509106574925681-1.297567648331096-4.494153034657757,1.500885510395165-.667254773322384,2.851365797801918-.012622402935449,4.231084921031652.465385794992471,5.472965030021442,1.896198608563282,11.377115682711519.052434092031035,14.840793097393544-4.621002506887635,3.529207656345534-4.761852676344461,3.568956420875111-11.474185456163468.094429553026202-15.94674447833313-3.336745618718851-4.295181241189312-10.292713389642813-6.356326112975694-15.097514646342461-4.473585826458475-5.432405203049711,2.128678249705445-8.776319135726226,7.538012126122339-8.382042212895612,13.608250329037219.095489706542139,1.470164163224581.22360811506951,2.927073063992793-.59366311310805,4.262761719366608-2.035328476169525,1.070400172072368-2.883990521129817-.66913602367822-3.726622871243308-1.800019899448671-5.365654563163844-7.201237656108788-10.599377279198961-14.502573159017629-16.268292184084203-21.472091550074765-1.494807322484121-1.837748713152905-1.771236162054265-4.029423649859382-2.250850124939461-6.189415343531437.101355509195855-1.328498082350052.202711482372251-2.657002246086449.304065851261839-3.985500415436036.378732910976396-.501907899300932.757466962260878-1.00381571160051,1.136202058825802-1.505723444152864,2.230083744092553-.841668134194151,3.062161104815459,1.067738273796749,4.118009958761832,2.246733142967059,3.234907271602424,3.612167125406813,6.942326996431802,6.57345618943782,11.283597335348531,8.728398817927882,4.462492389320687,2.215125558356704,12.853267094196781.184671102860193,15.185371679159289-4.212175623247276,8.466709744767286-15.962754959865379,17.001646778922805-31.891286589030642,25.233319495988326-47.978127108984154.422986443856644-.826630076966467.644398594949962-1.742902853800842,1.003292384621091-2.600743312697887Z" fill="#febe45" stroke-width="0"/>
        <path d="M223.609638665926468,106.590320081011669c-.730171339670051.281337044714746-.806522149932789.949352717794682-.989288445736747,1.588070221124326-4.069855425428614,14.223519252220285-18.413461608304715,24.89208853006312-36.045259285050633,20.996896865101007-5.254376987370051.264969242236475-8.995447773297201-2.943381331244382-12.650116468126726-5.920084999163009-2.541159654256262-2.06974574162723-4.65964939976584-4.736111639293085-6.325825170502867-7.658033243156751-.963143175777077-2.262404775254254-2.433328574488769-4.299973047533058-3.003929964750569-6.740366684147375-1.388873685700673-5.918871403736375-1.641692065706593-11.7893146146871.72424031574883-17.549272848001237,2.926712816479267-2.017355312538712,4.653574356272657,1.534059811278894,7.148961127717484,1.547152112982985.291520026261423.298013383745456.459486022127749.655707900259586.511025212332243,1.068822571582132-.407262439117403,3.513748306488196-1.267095821986004,7.005477312769472-.538773743470301,10.575909201073955.464813134798533,2.438473131969658,1.367991914583399,4.708643646361452,2.642823152973506,6.83441535187103,3.472214234569037,6.284783999831234,9.036924858944985,9.507654865252334,15.880236781680651,10.862933762454304,13.734955181073019.810254000906752,23.567306528120753-7.44089831511792,24.804544982713196-20.258706645046914,1.186425028472513-12.291130099342809-10.36555812379811-26.66280863045813-27.840737862083188-22.399870554398149-1.540482764285116.375790482778029-2.949864295766019,1.238247629539728-4.593722135812641,1.255125607177433-2.736031574968365-1.085862385899418-4.773854576669692-2.729738934346642-4.770620513738322-5.998004324395879,5.669871844547743-4.930858693131995,12.622371430437852-5.616569058113782,19.457320460780466-4.653588464124368,10.608697503046642,1.4946673905024,18.551480242596881,7.265401842480969,23.560265305710345,17.005735122138503,2.161145410307654,4.20263274660374,2.037636195396772,8.645851181370745,2.515363436130428,13.066066421428332l-.486507186515155,6.376800525499675Z" fill="#fff" stroke-width="0"/>
        <path d="M108.696840351029095,194.968636569957198c-2.267930232246727-4.542188851373794-.937135691849107-8.653192606610901,1.271378640964031-12.819665859594352,12.211707124679378-23.03796795072958,24.364920209900447-46.107086153883756,36.461129178549527-69.205876894456196,1.152620235579889-2.201041562504543,2.791653033285911-2.579779162902923,4.913283219288132-2.343074075296499,3.464122102357578.468914254043739,5.949369548472532,3.366769925269182,9.432505924809448,3.788506371415679.768124171179807.174999102622678,1.512978152375581.405494337594064,2.150863813132673.891994356948089,2.274797568743452,4.160168821527805,4.202453974432501,8.539056802749656,7.812792198878014,11.835754617686689,3.827611400587557,3.495108079550846,8.305214306976268,5.491108676634212,13.428612540317772,6.099447612955373-2.123578780727257,5.653203884631694-5.977150170676396,9.759748389072229-10.813211342647264,13.355673346853109-21.184093425883475,15.751750119816279-42.20769825098796,31.719311171372283-63.295416232860589,47.600768215516837-.417269106652384.314240828603943-.906355243960206.533110172707893-1.361937940431744.796472307971271Z" fill="#ffd848" stroke-width="0"/>
        <path d="M184.167405866968693,133.215722699615981c-5.745017162113072,1.808781596748304-9.750325570275891-1.84575675029555-13.535771175553236-4.917620219534001-3.917968175939677-3.179420613967523-6.821115989319878-7.432963858296716-7.89695997603485-12.609985949799011,1.681826395224562-1.393453168296219,3.500449125260275-1.680065912067221,5.478444933298306-.67693649739067,4.340198096751919,7.029458144598721,10.484690616447551,11.720581466605836,18.361683980363523,14.165467609048392-.802266738421167,1.345458069465167-1.604832482227721,2.692269604266585-2.407397762073742,4.039075057675291Z" fill="#e4a444" stroke-width="0"/>
        <path d="M170.716945428337567,64.76995261524371c3.35247965814051,2.96862524230346,5.513424289649265,6.885730474304182,8.241322597648832,10.352202228404167.90383260651106,2.127543243535001,2.394301509561046,3.792612798372829,4.139137133037366,5.257450242811501,3.971634538329454,1.712866209408276,5.124994338555553,5.93944998038296,7.772324069497699,8.841244039224875,2.305447569508033,2.527058373894761,4.200495430797673,5.456553597099628,6.306137550671338,8.188208595087417,3.222627414284943,4.180752211345862,3.845536675326002,8.810707987438036.854203777706061,13.330089869981748-2.685000957872035,4.056553896643891-3.723312588068438,9.161401679652954-7.825811547480043,12.303580525447614-6.92992946258164-1.526373798939858-12.609794497309849-4.79533035203076-15.895459918401684-11.401837367317057.247558303432015-2.456675190741407,2.461159327625865-3.706082860100651,3.496083288753653-5.697960827026691,3.946184908474606-7.59510414430315,1.159877143232734-16.781731490269522-6.539341870422504-21.391594790607087-1.219124140825443-.729946094190382-2.823869745938282-.945101838878145-3.489817989066069-2.466408158596096-4.909908797053504-1.783009749744451-4.762420533754266-1.7070876348007-2.053533110127319-6.969268644279509,1.749359270652349-3.398230969140968,3.99588525706713-6.579163500945469,4.99475601818267-10.345705713130883Z" fill="#ffd748" stroke-width="0"/>
        <path d="M167.775722520282216,82.084926972654102c13.904666719470697,4.550222342220877,17.178307244903408,19.360350766012743,6.533087342091676,29.555982948376368-1.543999818650263-1.84169139171081-2.104640067600485-4.085202465719703-2.597696792212446-6.356328064449372,1.678212583141431-3.904881644528359,1.979203456201503-7.90843180713091.860690185241765-12.013677558802556.077236521414306-.150611524707529.05206440513939-.28153506110084-.075516116854487-.392773649867195-2.025785218547753-1.578444376389598-3.597794951783726-3.968792510207095-6.650506770172797-3.70492205248047-5.972121319418875-.540708227290452-10.736259450273792,2.525735759187228-11.740396879831678,7.564939677240545-1.083459905888958,5.437325070464794,1.992810192905381,9.698751721579356,8.300824546608055,11.489985497581074.511808520408522.145329824520559,1.00811726106258.314702755972576,1.449798166542678.617046350685996.932847566755299,1.234096938718722-.227072179177412,1.678867520100539-.930287630444582,2.053315634344472-1.758132520482832.936148293795668-1.837953734304392,2.782564610417467-2.56237927989423,4.281217011496665-3.47341917065387-.608113769746524-6.351506012912068-2.389045644887119-9.021262804002617-4.579475397996248-6.968666310907793-10.062298250375534-6.042449752058019-19.413519409895343,2.449378614526722-25.81705770913959,4.262490433216954-3.214264973380523,9.043889959151784-3.250295598606499,13.984267418401942-2.69825268698969Z" fill="#8d2c1c" stroke-width="0"/>
        <path d="M99.667146585114097,91.486440714781565c1.118986089562895,2.167403664670928-.322836582876334,3.819324865803537-1.208960428417413,5.512256714316209-7.859863642845085,15.016218939746068-15.786228769298759,29.997642785522658-23.643698381825743,45.015114811771127-2.292303904638175,4.381129177566436-11.262674721865551,7.77239679792001-15.801195349946283,5.743519606947302-4.772449801042967-2.133448250044239-8.935639606861514-5.127631665693116-12.398089094589523-9.093502595796963-1.10232984904178-1.262615938007002-1.8507662582997-2.992199559457731-3.771703138643716-3.361503157650077,1.206486947239682-3.093888604264976,4.194506443003775-4.331046521323515,6.577275614850805-6.129072049304341,16.712102710225736-12.610883851938524,33.489710061936421-25.134970323791094,50.246370778571873-37.686813330283258Z" fill="#fcb84b" stroke-width="0"/>
        <path d="M68.132584017414047,177.351510371755467c-2.060730246455933-1.933853415441263-3.500640237689367-4.33217080824852-5.001625580485779-6.684708802338719.933240001984814-3.329037206817702-.749130433701794-6.691398130024027.660752397881879-10.187172530186217,2.460232380115485-6.100090325806377,7.286544496842907-9.849495283609031,13.023311467144595-9.832769649766306,7.633264748421425.022252658606703,13.153181169031086,5.806634540092091,14.301705990988921,11.059728265746344,1.647279288663412,7.534245148552145-3.23585604591608,13.836420016506054-7.707260137281992,15.973437571253271-3.702057063364919,1.769300012320855-7.515269007417373,2.827973483274945-11.4331051402296.542849676285186-1.202493812355897-.70137808376694-2.499997183247615-.857830016494518-3.843778998018024-.87136453099356Z" fill="#fcb84b" stroke-width="0"/>
        <path d="M164.029232289558422,109.416956783260503c.546894422759578-.047880453887046,1.093801240778703-.095763020495724,1.640585962153637-.143648785471669.84806368131467,1.913066655889452,1.696248995309361,3.826142591538883,2.543873470795006,5.73855182652278-1.826697362348568.224877751276836-3.652822186910271.450429212584822-5.478982009293759.676118689932991-.790318823505004-.169199339909937-1.580602185205862-.338542777252769-2.371128448357922-.508069899637121-1.553693559186286-3.686526515655714,1.086612653625707-4.705253593480847,3.665651024703038-5.762951831346982Z" fill="#d13b40" stroke-width="0"/>
        <path d="M166.378778526806855,90.92850651126173c.011461207201137-.779621700494317.022934809645449-1.559245513712085.034155767289121-2.338925302770804,3.302313871812657-.376635112210352,5.209265788040284,1.225752328723502,6.084049170995058,4.289685236061814-2.882420207695759,1.992591197506044-3.960613912733606-1.672426848994292-6.11820493828418-1.95075993329101Z" fill="#986786" stroke-width="0"/>
        <path d="M76.466570682470774,177.142523610638818c-6.898321384594965-.590155009819682-11.721606273951693-6.153678458542345-11.193702262835359-12.911601813099878.535092041125608-6.84993420171304,6.458052056368615-11.899803668031382,13.318772905375226-11.355481650754882,6.396945325872366.507526071731263,11.999322869320167,6.918331450852747,11.385777280842376,13.028779345423573-.677515985016726,6.747561050268814-6.769685051378474,11.815025423818042-13.510847923382244,11.238304118431188Z" fill="#faa746" stroke-width="0"/>
      </g>
    </g>
  </a>
  <path d="M193.655776318615608,101.95602920791589c.418386075783928.683894318620332.870871164657729,1.381215906514626,1.202957266763406,2.11283872900367-.103545442098039-.228122189167152.074689258693979.27048858278431.082851072933408.339772712445665-.030334617738845-.257504952546697-.024810601962599.171438743443105-.024212800977693.212311492878143-.01811914298014.186968695993528-.016556741869863.204247001124713.004687203330832.051834915395375-.015004826982477.095822827273878-.032508884123672.191186878207191-.052512171419949.286092152799938-.034694552381552.165498822345398-.077283486130909.329057712370741-.125194202701095.491182892931647-.213177061708848.721370334138555-.353780541567176.969988719561115-.726274830580223,1.727372909464066-.360877165359852.733763355849987-.713674562837696,1.468482322364252-1.005796584771815,2.233265613973344-.280572863055568.73454728377601.309931316920483,1.677147140795569,1.047659132014815,1.845177968643839.856376771320356.195055269559816,1.544763662870537-.261166418817993,1.845177968643839-1.047659132014815.034866484531449-.091281392037672.069850263747867-.182476268124447.106582466361942-.273029616260828-.060397204055334.148893032711385-.014562382661097.034182864200375.022253177774473-.046823209920149.081316753507053-.178923012012092.164086748667614-.357073962563845.249372066782598-.534146517678892.170722222437689-.35445983916452.348760724762542-.705348865078122.519106482901407-1.059991886538228.379436008694029-.78994824435722.752649686532095-1.608056798278994.944148557755398-2.467070088469882.224639393618418-1.007672908894165.2446067259134-1.998828563891948-.16094015514318-2.959828840652335-.357579660865667-.847335213525184-.860430571799952-1.642447639576858-1.339452594227623-2.425457540219213-.409322443108977-.669078895134589-1.36191921491627-.983215087191638-2.052284749828686-.538127305611852-.671636895949632.433013180593662-.976241902995753,1.336142169098821-.538127305611852,2.052284749830505h0Z" fill="#fff" stroke-width="0"/>
</svg>