<?xml version="1.0" encoding="UTF-8"?>
<svg id="Layer_1" data-name="Layer 1" xmlns="http://www.w3.org/2000/svg" width="280" height="280" xmlns:xlink="http://www.w3.org/1999/xlink" viewBox="0 0 280 280">
  <a xlink:href="https://www.notion.so/dmmnotes/Classifications-f5f8f379e1b74996831ea1db501f3bf9?pvs=4">
    <g>
      <g>
        <path d="M134.887004013343358,210.935680412196234c-2.861104170772705,4.041467364142591-5.816506449170447,8.004465614612855-9.472732532883128,11.384373498180139-5.699660800955826-5.784401917262585-10.526819289067134-12.290372533234404-15.402733742734199-18.74860703954073-1.524571065693635-2.019318782855407-.352001272180132-4.091201383944281.439628513022399-6.057181875765309,2.18985115907708-5.438374834273418,2.515214250104691-10.824880616915834-.192671794113267-16.219533127548857-1.29342089372949-2.576742373857996-3.420770013477522-4.393735659723461-5.422567750169037-6.33067625809781-1.430695698412819-1.384351166796478-2.148644119419259-2.709079469386779-1.501555660051963-4.915222866757176,4.908795692937929-16.735701103520114,8.751677594160356-33.750940969731346,13.097412154242193-50.63515597884907,2.322718086461464-9.024332179296835,4.56341017108025-18.068770342930293,6.840359237537996-27.104284644055042.47104633586423-1.869241715769931.631889679212691-3.648692010187006.014483957287666-5.479996782331.425491574493208-1.923009435652602,2.005294526996295-2.741473309303728,3.539845601304478-3.467494461514434,10.358317415824786-4.900678721316581,20.22375170272062-10.837285513541246,31.035064989264356-14.78539640506915l2.367324920918691-.384490939905845c1.572258956801306.650906267995197,3.730517325368055-.538242855443059,4.85017430633161,1.538706217772415.809246178105241,4.091907588493086-1.175416946618498,7.733308630515239-1.993461133790333,11.546402434777519-.566905832436532,2.642514869972729-1.404156113087083,4.956980118018691,2.466935567095788,5.43149581376565.321970895318373.039466296781029.393525191939261.619428375243842.278392365386026,1.029172472830396-.857478264311794.970554493422242-2.068608039417086,1.087655696785987-3.22148902675508,1.350112359497871-12.580998665436709,2.864091759523035-16.907036826225522,16.131735397263583-8.50593651082454,26.035524501446162.999058696796055,1.177748580763364,2.411466263483817,2.136097173036433,2.390322213346735,3.945713123625865-1.929082611308331,1.523269706000065-3.054250408482403,3.399204556291807-3.692274749897479,5.88317204130999-6.260587049468086,24.373815372170611-12.132831075066861,48.847367748782744-18.627868856299756,73.158531828316882-1.217358645861168,4.556620543560712-.250997997818558,8.595272417642263.713347931780845,12.824836087911535Z" fill="none" stroke="#181818" stroke-linecap="round" stroke-linejoin="round" stroke-width="42"/>
        <path d="M101.798062516547361,112.471361092266307c7.108971830741211-8.560510528108352,13.413130867911605-17.803136615001677,21.583393115650324-25.464122893336025,1.951386722716052.447634444169125,1.943089781198069,1.617704330955348,1.513478115897669,3.311763402955876-6.607809843007999,26.055897364787597-12.967274336173432,52.177512511373607-19.933850645755228,78.136429158487772-.939465224580999,3.500629242884315-.389793227506743,5.040084511789246,1.830824546375879,7.154135006627257,6.768884166636781,6.444059445469975,8.42119916192496,13.67317739720238,4.522999059334325,22.324390721347299-1.497464963404127,3.323299401215991-.62613643995428,5.220858881653839,1.300937259769853,7.739984166109934,4.252174961287892,5.558593714711606,9.545018345615972,10.323854290663803,12.79824709755303,16.645611165580704-.482586036014254.531039580739161-.96535850753753,1.06157804895156-1.448132934598107,1.592104476809254-1.841254723076418.299048834751375-3.682503425738105.598096691695901-5.523758148816341.897145526450913-1.820307921472704-.357892007465125-3.510678449412808-.912914787395493-5.049787542351623-2.077506275758424-6.664060010954927-5.042531995857644-12.994202832713199-10.494564263186476-19.436565182060804-15.805989355922065-1.157706202915506-.954489043297144-3.118176102709185-1.827682435798124-2.317100048445354-4.063513340250211,1.302111891083769-1.001194721791762,2.768591015630591-.682165688165696,4.221994706585974-.541686481908982,5.765268291044777.557312224244015,11.070990772406731-2.621959936626808,13.3397485978021-7.978340132876838,2.311681514673182-5.457717120512825.773330013600571-11.991511268668546-3.654723228852163-15.522582727055124-4.25245553843888-3.391028621565056-11.497969836525954-3.760255338944262-15.725956619788121-.80137821012795-4.780243811073888,3.345379871943805-6.759699460197226,9.388922600248407-4.950323541530452,15.196624806538239.438215633364052,1.406580253509674.90503252032704,2.792610507793142.424441736548033,4.282922201047768-1.726881366625094,1.518617555497258-2.960474114604949.027154389670613-4.045209865515062-.874109150383447-6.907321168804629-5.739075443138063-13.709920114964916-11.60644292541474-20.857573558969307-17.049037255917938-1.884726454033625-1.435122105442133-2.668327669012797-3.500508526289195-3.641983262510621-5.487362435203977-.213597219606527-1.31512597184701-.427195416985342-2.630257963870463-.640793765418493-3.945383752379712.250214573488847-.576838646808028.500430275806139-1.153677476951998.750647012882837-1.730516475157856,1.969923505176666-1.342043269629357,3.227304882962926.318431853907896,4.530592381788665,1.216366929136711,3.993001084179014,2.751057749210304,8.292372531486762,4.758443884174994,13.018411112414469,5.833136965573431,4.858006952794312,1.10471173193946,12.53689254373603-2.840229525536415,13.770731793580126-7.661911144394253,4.479456646076869-17.505118907529322,9.033271299984335-34.993001630610706,13.255117050513945-52.56351363493286.216939603757055-.902868774602211.216886395877737-1.845513532392033.364194757914447-2.763661261059497Z" fill="none" stroke="#181818" stroke-linecap="round" stroke-linejoin="round" stroke-width="42"/>
        <path d="M225.819911295875499,98.033579390445993c-.643636956297996.445008074634643-.560907889132068,1.112263863035878-.588499032604886,1.776042664101624-.614283628385238,14.781572268404489-12.049953150648435,28.521400191017165-30.103371353563489,28.877628504427776-5.045056217473757,1.492010049295459-9.435181183295754-.7476164401387-13.686899583032755-2.782378992612394-2.956296658904648-1.414796765590836-5.641923124468121-3.508815960715765-7.947935775918268-5.957504019548651-1.467711709208743-1.97280066980511-3.375450779542007-3.60793406200446-4.503424384674872-5.845965025669102-2.740572130553119-5.426902726791013-4.365509304769148-11.073636278687445-3.419036934996257-17.228223587059802,2.370839450562926-2.648488373931286,4.883731765623452.397816333776973,7.31234893598139-.17572109943103.353375345514905.221182657072859.600676335238859.529403622274003.747829634775371.918846719820976.429652739030644,3.511080799341471.414228736365658,7.107085109648324,1.960998332506279,10.406470012251702,1.024695145504666,2.261017984096725,2.435945326706133,4.255454997073684,4.17452058220988,6.022219302590202,4.851567380732376,5.293115865491018,11.017700167460134,7.118412390621415,17.987876501112623,6.827997448047427,13.540876039775867-2.439299376327654,21.159505200570493-12.769504469373715,19.350712469831706-25.519219691038415-1.734446722244684-12.225840586023878-16.33955718607649-23.481248481403782-32.324079591977352-15.232030859047882-1.409077107418852.727191404892437-2.57638558189683,1.896626976736115-4.17026680168965,2.299238603012782-2.914561726351167-.412669169640139-5.281556832138449-1.531770086453434-6.046255782739536-4.709317038727022,4.352722763811471-6.124917854685009,10.949522956887449-8.424847507775667,17.819404364354341-9.094615616219016,10.662917123116131-1.039563247163642,19.739152278545589,2.703581041566395,26.896124860217242,10.994525720703678,3.088016962436086,3.57726469904992,4.011849354101287,7.925135246492573,5.514685341671793,12.109392657245735.341756235808134,2.104205769080181.683511982731943,4.208408528071232,1.025268218536439,6.312614297151413Z" fill="none" stroke="#181818" stroke-linecap="round" stroke-linejoin="round" stroke-width="42"/>
        <path d="M134.887004013343358,210.935680412196234c-3.271587812386315-3.882228778134959-2.943876476075275-8.190821502492327-1.776044528801322-12.759541615279886,6.457389765160769-25.26214313194032,12.850604325720269-50.540822103526807,19.181439074505761-75.834950601530181.603248412469839-2.410230013959335,2.107424760655704-3.163439278032456,4.225282064241583-3.431812872648152,3.477328031146499-.35806742587647,6.573832645571201,1.874796549501298,10.058558844452818,1.466404623754897.787738580824225-.010361300122895,1.56589649788657.038687275443408,2.300225589417096.361706114462322,3.188511588992696,3.509288025975366,6.090984069138358,7.312730239610573,10.374791856505908,9.668945301689746,4.541613798999606,2.498025945117661,9.362827362718235,3.38619594228021,14.485744915233226,2.773822307221053-.735982952272025,5.993882722670605-3.516906653974729,10.890839286666051-7.372784766082077,15.522293480075859-16.890455950307114,20.287827481135537-33.574212980224729,40.747720372937692-50.340517825497955,61.138981966165375-.331762431625066.403477997773734-.755738212609685.73112655436671-1.136695223975039,1.094151296088967Z" fill="none" stroke="#181818" stroke-linecap="round" stroke-linejoin="round" stroke-width="42"/>
        <path d="M193.737001828898428,133.180253669866033c-5.159261959393916,3.107881769304186-9.911055416838281.496635914861145-14.312247035159089-1.59989835459146-4.555274253885727-2.169946206715395-8.376485939919803-5.622371239684071-10.638500804698197-10.401731737822047,1.307376056989597-1.749576977876131,3.007759350277411-2.455432596960236,5.166065425424677-1.945088668634526,5.87020939105787,5.813023570478435,12.944845602018177,8.929263103867015,21.175761859150953,9.455105544745493-.463711052518192,1.496282525474271-.927394759729395,2.993950880977536-1.391079444718343,4.49161321630254Z" fill="none" stroke="#181818" stroke-linecap="round" stroke-linejoin="round" stroke-width="42"/>
        <path d="M164.582447605855123,69.810305772540232c3.956089651657749,2.097906183695159,6.976829950845058,5.39768241002912,10.442783672098813,8.126238878733602,1.378377021273991,1.855648248163561,3.218317445727735,3.123943721576325,5.258462604731903,4.1378509272663,4.262887906600554.731832120871331,6.376954048901098,4.569145445037975,9.631929570200555,6.767758148540452,2.834622620278424,1.914687212438366,5.364880605096005,4.316965961795177,8.053357993835562,6.477465231697352,4.114647660975606,3.306613241667947,5.807878245543179,7.660631687142086,3.962050649963203,12.756297059990175-1.656806111608603,4.573822599169944-1.466728522316771,9.779726213255344-4.716179302198725,13.797792320234294-7.094566300327642.144458785460301-13.383457661386274-1.698579251992669-18.129282934531147-7.348240717886256-.33653924472128-2.446074292241065,1.521569034297499-4.180572099100573,2.059556126256211-6.359841547638098,2.051346813121199-8.309630469942022-2.815268235888652-16.584513606339897-11.382023250200291-19.256501928327452-1.356493735484037-.423095399131853-2.966871200260357-.255211890299506-3.971593602767825-1.577479970089371-5.191379455653987-.579575284623388-5.030182312202669-.540428940063975-3.633406953513258-6.291745193562747.902018518643672-3.714107452601638,2.338339976930001-7.333802391127392,2.424345426125001-11.229593208958249Z" fill="none" stroke="#181818" stroke-linecap="round" stroke-linejoin="round" stroke-width="42"/>
        <path d="M165.79150913324338,87.331644175061228c14.584501217048455,1.156115994623178,21.245987499794865,14.782605884674922,13.294075700867324,27.193839550966004-1.933468348148381-1.427397200852283-3.005504261122041-3.476396573532838-4.018336026696488-5.568115539724204.713831291966926-4.189861933117754.065808029772597-8.152067791197624-1.985879918251158-11.879626131832993.039690185571089-.164541790388284-.015536391345449-.285886889268113-.16568021963576-.364038306718612-2.339921699460319-1.058328324029389-4.429516749733921-3.012444832345864-7.33479021430594-2.038759482416026-5.931995929574441.877509391678359-9.842359762714295,4.977405188466946-9.634486797141108,10.111473452070641.224304836445299,5.539681997183834,4.21564526027214,8.959096631991088,10.767929656642082,9.218196450381583.531626699739718.021018362988798,1.053836115916056.069048370387463,1.554186695528188.259161413113361,1.196674615230222.980392626563116.173714730533902,1.685224352127079-.421845421487888,2.214404346538686-1.488985064137523,1.322999269222237-1.13277717951496,3.136487781288452-1.484834503027741,4.76338883277549-3.519068249232078.224948325651894-6.735007960131043-.829961145022935-9.844655703976969-2.331851532536348-9.137639133288758-8.143445665199579-10.434312322395272-17.450531832672823-3.684608809104247-25.669896421259182,3.3880282854916-4.125722766864783,8.027132181842717-5.284081377744769,12.958925560589705-5.908176631358401Z" fill="none" stroke="#181818" stroke-linecap="round" stroke-linejoin="round" stroke-width="42"/>
        <path d="M101.798062516547361,112.471361092266307c1.59687315274823,1.843845071662145.583507332157751,3.788269404768471.119921407998845,5.642001263549901-4.111974151423055,16.442504563127841-8.296763139334871,32.866811723288265-12.406115870295253,49.309971848506393-1.198845247112331,4.797053276253791-9.121396272676066,10.20088838835909-14.009546469402267,9.295073947218043-5.140099531912711-.952499522905782-9.890212286798487-2.884781205701074-14.187485478514645-5.926184139385441-1.368113335272938-.968295411976214-2.501947501354152-2.473631469514658-4.455881414785836-2.381295626830251.445842951306986-3.290741787533989,3.059571790836344-5.195273691253533,4.953221581607067-7.50277779643875,13.2815470559799-16.184229247141047,26.647157364765008-32.299480144240988,39.985886243392088-48.436789496619895Z" fill="none" stroke="#181818" stroke-linecap="round" stroke-linejoin="round" stroke-width="42"/>
        <path d="M91.319187701932606,203.341774352868015c-2.457388010199793-1.395579574369549-4.420453058402927-3.388477644022714-6.432128609474603-5.322528700782641.124998605109795-3.455112295483559-2.300231729648658-6.328107089098921-1.75110449776912-10.057271544956166.958222685387227-6.507353888668149,4.768566203016235-11.285701768774743,10.348691450675688-12.617233683120503,7.424838857923532-1.77172058578617,14.149229660746641,2.553914555128358,16.499763217179861,7.390141902686082,3.371259040712175,6.936352895700111.105427590024192,14.20936903054826-3.738754155743663,17.337078301414294-3.18275975690085,2.58953458441465-6.640516964636845,4.514447554052822-10.985557813253763,3.213735902398184-1.333617151993167-.399234113065177-2.63156023963711-.246473038259865-3.9409095916144.056077822360749Z" fill="none" stroke="#181818" stroke-linecap="round" stroke-linejoin="round" stroke-width="42"/>
        <path d="M168.571238074666326,114.778850765696006c.520337953636044-.175027030829369,1.0406874592245-.3500590273743,1.560917534208784-.52506544751941,1.273780178145898,1.660277113982374,2.547680764660981,3.320534671744099,3.820879576574953,4.980275952440024-1.722735865663708.647745624301933-3.44475693811728,1.296011590228773-5.166779603490795,1.944419931495759-.807949418709541.021213114329839-1.615898222271426.042277833137632-2.424126283258374.063221075205547-2.376314193757935-3.218318237683889-.049248307106609-4.828841790971637,2.209108775965433-6.462851511621921Z" fill="none" stroke="#181818" stroke-linecap="round" stroke-linejoin="round" stroke-width="42"/>
        <path d="M166.511365740523615,96.25588969171713c-.172023011298734-.760492891971808-.344034470645056-1.520990749655539-.516304654205669-2.281483660347476,3.121396397405988-1.141934956995101,5.351436076267419-.032415172434412,6.921571262428188,2.740238128098099-2.333604637630742,2.614011348357053-4.242674970030748-.6951138249633-6.405266608222519-.458754467750623Z" fill="none" stroke="#181818" stroke-linecap="round" stroke-linejoin="round" stroke-width="42"/>
        <path d="M99.370808256040618,201.180659906038272c-6.843888767532917,1.047046989595401-12.839258423462525-3.227577318708427-13.913829065024402-9.920372597762253-1.089200725462433-6.783919504232472,3.481566056652809-13.083977281148691,10.278138771509475-14.166740578522877,6.337133400262246-1.009570444794008,13.288848464182593,3.90558137568587,14.128057486852413,9.989144466315338.926711775971853,6.717872678262211-3.804394194823544,13.074786662529732-10.492367193337486,14.097968709969791Z" fill="none" stroke="#181818" stroke-linecap="round" stroke-linejoin="round" stroke-width="42"/>
      </g>
      <g>
        <path d="M134.887004013343358,210.935680412196234c-2.861104170772705,4.041467364142591-5.816506449170447,8.004465614612855-9.472732532883128,11.384373498180139-5.699660800955826-5.784401917262585-10.526819289067134-12.290372533234404-15.402733742734199-18.74860703954073-1.524571065693635-2.019318782855407-.352001272180132-4.091201383944281.439628513022399-6.057181875765309,2.18985115907708-5.438374834273418,2.515214250104691-10.824880616915834-.192671794113267-16.219533127548857-1.29342089372949-2.576742373857996-3.420770013477522-4.393735659723461-5.422567750169037-6.33067625809781-1.430695698412819-1.384351166796478-2.148644119419259-2.709079469386779-1.501555660051963-4.915222866757176,4.908795692937929-16.735701103520114,8.751677594160356-33.750940969731346,13.097412154242193-50.63515597884907,2.322718086461464-9.024332179296835,4.56341017108025-18.068770342930293,6.840359237537996-27.104284644055042.47104633586423-1.869241715769931.631889679212691-3.648692010187006.014483957287666-5.479996782331.425491574493208-1.923009435652602,2.005294526996295-2.741473309303728,3.539845601304478-3.467494461514434,10.358317415824786-4.900678721316581,20.22375170272062-10.837285513541246,31.035064989264356-14.78539640506915l2.367324920918691-.384490939905845c1.572258956801306.650906267995197,3.730517325368055-.538242855443059,4.85017430633161,1.538706217772415.809246178105241,4.091907588493086-1.175416946618498,7.733308630515239-1.993461133790333,11.546402434777519-.566905832436532,2.642514869972729-1.404156113087083,4.956980118018691,2.466935567095788,5.43149581376565.321970895318373.039466296781029.393525191939261.619428375243842.278392365386026,1.029172472830396-.857478264311794.970554493422242-2.068608039417086,1.087655696785987-3.22148902675508,1.350112359497871-12.580998665436709,2.864091759523035-16.907036826225522,16.131735397263583-8.50593651082454,26.035524501446162.999058696796055,1.177748580763364,2.411466263483817,2.136097173036433,2.390322213346735,3.945713123625865-1.929082611308331,1.523269706000065-3.054250408482403,3.399204556291807-3.692274749897479,5.88317204130999-6.260587049468086,24.373815372170611-12.132831075066861,48.847367748782744-18.627868856299756,73.158531828316882-1.217358645861168,4.556620543560712-.250997997818558,8.595272417642263.713347931780845,12.824836087911535Z" fill="#fec74a" stroke-width="0"/>
        <path d="M101.798062516547361,112.471361092266307c7.108971830741211-8.560510528108352,13.413130867911605-17.803136615001677,21.583393115650324-25.464122893336025,1.951386722716052.447634444169125,1.943089781198069,1.617704330955348,1.513478115897669,3.311763402955876-6.607809843007999,26.055897364787597-12.967274336173432,52.177512511373607-19.933850645755228,78.136429158487772-.939465224580999,3.500629242884315-.389793227506743,5.040084511789246,1.830824546375879,7.154135006627257,6.768884166636781,6.444059445469975,8.42119916192496,13.67317739720238,4.522999059334325,22.324390721347299-1.497464963404127,3.323299401215991-.62613643995428,5.220858881653839,1.300937259769853,7.739984166109934,4.252174961287892,5.558593714711606,9.545018345615972,10.323854290663803,12.79824709755303,16.645611165580704-.482586036014254.531039580739161-.96535850753753,1.06157804895156-1.448132934598107,1.592104476809254-1.841254723076418.299048834751375-3.682503425738105.598096691695901-5.523758148816341.897145526450913-1.820307921472704-.357892007465125-3.510678449412808-.912914787395493-5.049787542351623-2.077506275758424-6.664060010954927-5.042531995857644-12.994202832713199-10.494564263186476-19.436565182060804-15.805989355922065-1.157706202915506-.954489043297144-3.118176102709185-1.827682435798124-2.317100048445354-4.063513340250211,1.302111891083769-1.001194721791762,2.768591015630591-.682165688165696,4.221994706585974-.541686481908982,5.765268291044777.557312224244015,11.070990772406731-2.621959936626808,13.3397485978021-7.978340132876838,2.311681514673182-5.457717120512825.773330013600571-11.991511268668546-3.654723228852163-15.522582727055124-4.25245553843888-3.391028621565056-11.497969836525954-3.760255338944262-15.725956619788121-.80137821012795-4.780243811073888,3.345379871943805-6.759699460197226,9.388922600248407-4.950323541530452,15.196624806538239.438215633364052,1.406580253509674.90503252032704,2.792610507793142.424441736548033,4.282922201047768-1.726881366625094,1.518617555497258-2.960474114604949.027154389670613-4.045209865515062-.874109150383447-6.907321168804629-5.739075443138063-13.709920114964916-11.60644292541474-20.857573558969307-17.049037255917938-1.884726454033625-1.435122105442133-2.668327669012797-3.500508526289195-3.641983262510621-5.487362435203977-.213597219606527-1.31512597184701-.427195416985342-2.630257963870463-.640793765418493-3.945383752379712.250214573488847-.576838646808028.500430275806139-1.153677476951998.750647012882837-1.730516475157856,1.969923505176666-1.342043269629357,3.227304882962926.318431853907896,4.530592381788665,1.216366929136711,3.993001084179014,2.751057749210304,8.292372531486762,4.758443884174994,13.018411112414469,5.833136965573431,4.858006952794312,1.10471173193946,12.53689254373603-2.840229525536415,13.770731793580126-7.661911144394253,4.479456646076869-17.505118907529322,9.033271299984335-34.993001630610706,13.255117050513945-52.56351363493286.216939603757055-.902868774602211.216886395877737-1.845513532392033.364194757914447-2.763661261059497Z" fill="#febe45" stroke-width="0"/>
        <path d="M225.819911295875499,98.033579390445993c-.643636956297996.445008074634643-.560907889132068,1.112263863035878-.588499032604886,1.776042664101624-.614283628385238,14.781572268404489-12.049953150648435,28.521400191017165-30.103371353563489,28.877628504427776-5.045056217473757,1.492010049295459-9.435181183295754-.7476164401387-13.686899583032755-2.782378992612394-2.956296658904648-1.414796765590836-5.641923124468121-3.508815960715765-7.947935775918268-5.957504019548651-1.467711709208743-1.97280066980511-3.375450779542007-3.60793406200446-4.503424384674872-5.845965025669102-2.740572130553119-5.426902726791013-4.365509304769148-11.073636278687445-3.419036934996257-17.228223587059802,2.370839450562926-2.648488373931286,4.883731765623452.397816333776973,7.31234893598139-.17572109943103.353375345514905.221182657072859.600676335238859.529403622274003.747829634775371.918846719820976.429652739030644,3.511080799341471.414228736365658,7.107085109648324,1.960998332506279,10.406470012251702,1.024695145504666,2.261017984096725,2.435945326706133,4.255454997073684,4.17452058220988,6.022219302590202,4.851567380732376,5.293115865491018,11.017700167460134,7.118412390621415,17.987876501112623,6.827997448047427,13.540876039775867-2.439299376327654,21.159505200570493-12.769504469373715,19.350712469831706-25.519219691038415-1.734446722244684-12.225840586023878-16.33955718607649-23.481248481403782-32.324079591977352-15.232030859047882-1.409077107418852.727191404892437-2.57638558189683,1.896626976736115-4.17026680168965,2.299238603012782-2.914561726351167-.412669169640139-5.281556832138449-1.531770086453434-6.046255782739536-4.709317038727022,4.352722763811471-6.124917854685009,10.949522956887449-8.424847507775667,17.819404364354341-9.094615616219016,10.662917123116131-1.039563247163642,19.739152278545589,2.703581041566395,26.896124860217242,10.994525720703678,3.088016962436086,3.57726469904992,4.011849354101287,7.925135246492573,5.514685341671793,12.109392657245735.341756235808134,2.104205769080181.683511982731943,4.208408528071232,1.025268218536439,6.312614297151413Z" fill="#fff" stroke-width="0"/>
        <path d="M134.887004013343358,210.935680412196234c-3.271587812386315-3.882228778134959-2.943876476075275-8.190821502492327-1.776044528801322-12.759541615279886,6.457389765160769-25.26214313194032,12.850604325720269-50.540822103526807,19.181439074505761-75.834950601530181.603248412469839-2.410230013959335,2.107424760655704-3.163439278032456,4.225282064241583-3.431812872648152,3.477328031146499-.35806742587647,6.573832645571201,1.874796549501298,10.058558844452818,1.466404623754897.787738580824225-.010361300122895,1.56589649788657.038687275443408,2.300225589417096.361706114462322,3.188511588992696,3.509288025975366,6.090984069138358,7.312730239610573,10.374791856505908,9.668945301689746,4.541613798999606,2.498025945117661,9.362827362718235,3.38619594228021,14.485744915233226,2.773822307221053-.735982952272025,5.993882722670605-3.516906653974729,10.890839286666051-7.372784766082077,15.522293480075859-16.890455950307114,20.287827481135537-33.574212980224729,40.747720372937692-50.340517825497955,61.138981966165375-.331762431625066.403477997773734-.755738212609685.73112655436671-1.136695223975039,1.094151296088967Z" fill="#ffd848" stroke-width="0"/>
        <path d="M193.737001828898428,133.180253669866033c-5.159261959393916,3.107881769304186-9.911055416838281.496635914861145-14.312247035159089-1.59989835459146-4.555274253885727-2.169946206715395-8.376485939919803-5.622371239684071-10.638500804698197-10.401731737822047,1.307376056989597-1.749576977876131,3.007759350277411-2.455432596960236,5.166065425424677-1.945088668634526,5.87020939105787,5.813023570478435,12.944845602018177,8.929263103867015,21.175761859150953,9.455105544745493-.463711052518192,1.496282525474271-.927394759729395,2.993950880977536-1.391079444718343,4.49161321630254Z" fill="#e4a444" stroke-width="0"/>
        <path d="M164.582447605855123,69.810305772540232c3.956089651657749,2.097906183695159,6.976829950845058,5.39768241002912,10.442783672098813,8.126238878733602,1.378377021273991,1.855648248163561,3.218317445727735,3.123943721576325,5.258462604731903,4.1378509272663,4.262887906600554.731832120871331,6.376954048901098,4.569145445037975,9.631929570200555,6.767758148540452,2.834622620278424,1.914687212438366,5.364880605096005,4.316965961795177,8.053357993835562,6.477465231697352,4.114647660975606,3.306613241667947,5.807878245543179,7.660631687142086,3.962050649963203,12.756297059990175-1.656806111608603,4.573822599169944-1.466728522316771,9.779726213255344-4.716179302198725,13.797792320234294-7.094566300327642.144458785460301-13.383457661386274-1.698579251992669-18.129282934531147-7.348240717886256-.33653924472128-2.446074292241065,1.521569034297499-4.180572099100573,2.059556126256211-6.359841547638098,2.051346813121199-8.309630469942022-2.815268235888652-16.584513606339897-11.382023250200291-19.256501928327452-1.356493735484037-.423095399131853-2.966871200260357-.255211890299506-3.971593602767825-1.577479970089371-5.191379455653987-.579575284623388-5.030182312202669-.540428940063975-3.633406953513258-6.291745193562747.902018518643672-3.714107452601638,2.338339976930001-7.333802391127392,2.424345426125001-11.229593208958249Z" fill="#ffd748" stroke-width="0"/>
        <path d="M165.79150913324338,87.331644175061228c14.584501217048455,1.156115994623178,21.245987499794865,14.782605884674922,13.294075700867324,27.193839550966004-1.933468348148381-1.427397200852283-3.005504261122041-3.476396573532838-4.018336026696488-5.568115539724204.713831291966926-4.189861933117754.065808029772597-8.152067791197624-1.985879918251158-11.879626131832993.039690185571089-.164541790388284-.015536391345449-.285886889268113-.16568021963576-.364038306718612-2.339921699460319-1.058328324029389-4.429516749733921-3.012444832345864-7.33479021430594-2.038759482416026-5.931995929574441.877509391678359-9.842359762714295,4.977405188466946-9.634486797141108,10.111473452070641.224304836445299,5.539681997183834,4.21564526027214,8.959096631991088,10.767929656642082,9.218196450381583.531626699739718.021018362988798,1.053836115916056.069048370387463,1.554186695528188.259161413113361,1.196674615230222.980392626563116.173714730533902,1.685224352127079-.421845421487888,2.214404346538686-1.488985064137523,1.322999269222237-1.13277717951496,3.136487781288452-1.484834503027741,4.76338883277549-3.519068249232078.224948325651894-6.735007960131043-.829961145022935-9.844655703976969-2.331851532536348-9.137639133288758-8.143445665199579-10.434312322395272-17.450531832672823-3.684608809104247-25.669896421259182,3.3880282854916-4.125722766864783,8.027132181842717-5.284081377744769,12.958925560589705-5.908176631358401Z" fill="#f47636" stroke-width="0"/>
        <path d="M101.798062516547361,112.471361092266307c1.59687315274823,1.843845071662145.583507332157751,3.788269404768471.119921407998845,5.642001263549901-4.111974151423055,16.442504563127841-8.296763139334871,32.866811723288265-12.406115870295253,49.309971848506393-1.198845247112331,4.797053276253791-9.121396272676066,10.20088838835909-14.009546469402267,9.295073947218043-5.140099531912711-.952499522905782-9.890212286798487-2.884781205701074-14.187485478514645-5.926184139385441-1.368113335272938-.968295411976214-2.501947501354152-2.473631469514658-4.455881414785836-2.381295626830251.445842951306986-3.290741787533989,3.059571790836344-5.195273691253533,4.953221581607067-7.50277779643875,13.2815470559799-16.184229247141047,26.647157364765008-32.299480144240988,39.985886243392088-48.436789496619895Z" fill="#fcb84b" stroke-width="0"/>
        <path d="M91.319187701932606,203.341774352868015c-2.457388010199793-1.395579574369549-4.420453058402927-3.388477644022714-6.432128609474603-5.322528700782641.124998605109795-3.455112295483559-2.300231729648658-6.328107089098921-1.75110449776912-10.057271544956166.958222685387227-6.507353888668149,4.768566203016235-11.285701768774743,10.348691450675688-12.617233683120503,7.424838857923532-1.77172058578617,14.149229660746641,2.553914555128358,16.499763217179861,7.390141902686082,3.371259040712175,6.936352895700111.105427590024192,14.20936903054826-3.738754155743663,17.337078301414294-3.18275975690085,2.58953458441465-6.640516964636845,4.514447554052822-10.985557813253763,3.213735902398184-1.333617151993167-.399234113065177-2.63156023963711-.246473038259865-3.9409095916144.056077822360749Z" fill="#fcb84b" stroke-width="0"/>
        <path d="M168.571238074666326,114.778850765696006c.520337953636044-.175027030829369,1.0406874592245-.3500590273743,1.560917534208784-.52506544751941,1.273780178145898,1.660277113982374,2.547680764660981,3.320534671744099,3.820879576574953,4.980275952440024-1.722735865663708.647745624301933-3.44475693811728,1.296011590228773-5.166779603490795,1.944419931495759-.807949418709541.021213114329839-1.615898222271426.042277833137632-2.424126283258374.063221075205547-2.376314193757935-3.218318237683889-.049248307106609-4.828841790971637,2.209108775965433-6.462851511621921Z" fill="#d13b40" stroke-width="0"/>
        <path d="M166.511365740523615,96.25588969171713c-.172023011298734-.760492891971808-.344034470645056-1.520990749655539-.516304654205669-2.281483660347476,3.121396397405988-1.141934956995101,5.351436076267419-.032415172434412,6.921571262428188,2.740238128098099-2.333604637630742,2.614011348357053-4.242674970030748-.6951138249633-6.405266608222519-.458754467750623Z" fill="#986786" stroke-width="0"/>
        <path d="M99.370808256040618,201.180659906038272c-6.843888767532917,1.047046989595401-12.839258423462525-3.227577318708427-13.913829065024402-9.920372597762253-1.089200725462433-6.783919504232472,3.481566056652809-13.083977281148691,10.278138771509475-14.166740578522877,6.337133400262246-1.009570444794008,13.288848464182593,3.90558137568587,14.128057486852413,9.989144466315338.926711775971853,6.717872678262211-3.804394194823544,13.074786662529732-10.492367193337486,14.097968709969791Z" fill="#faa746" stroke-width="0"/>
      </g>
    </g>
  </a>
</svg>