<?xml version="1.0" encoding="UTF-8"?>
<svg id="Pattern" xmlns="http://www.w3.org/2000/svg" xmlns:xlink="http://www.w3.org/1999/xlink" viewBox="0 0 280 280">
  <defs>
    <linearGradient id="linear-gradient" x1="106.222602317850033" y1="246.734048729525966" x2="176.565029366673087" y2="133.455335040529633" gradientUnits="userSpaceOnUse">
      <stop offset="0" stop-color="#6a70a0"/>
      <stop offset=".467948717948718" stop-color="#7d67a2"/>
      <stop offset="1" stop-color="#8e5ba6"/>
    </linearGradient>
  </defs>
  <a xlink:href="https://www.notion.so/dmmnotes/A3-9c380c0928294f41ae10764aa0dee886?pvs=4#24262cc5be5c45f6b184ccddfa18723e">
    <g id="A3-">
      <g id="A3--2" data-name="A3-">
        <path d="M139.98779296875,259.404296875c-29.126953125,0-54.748046875-18.625-63.7548828125-46.3447265625-11.4248046875-35.162109375,7.88623046875-73.0625,43.0478515625-84.48681640625,6.73388671875-2.18798828125,13.708984375-3.29736328125,20.73095703125-3.29736328125,29.12744140625,0,54.74853515625,18.62451171875,63.75537109375,46.3447265625,11.4248046875,35.1611328125-7.88671875,73.0615234375-43.0478515625,84.486328125-6.73388671875,2.1884765625-13.708984375,3.2978515625-20.7314453125,3.2978515625Z" fill="url(#linear-gradient)" stroke-width="0"/>
        <path d="M140.0118408203125,133.775161743164062c24.6810302734375-.000778198242188,47.6319580078125,15.729217529296875,55.6712646484375,40.471969604492188,9.9923095703125,30.753005981445312-6.837646484375,63.783477783203125-37.590576171875,73.775711059570312-6.0101318359375,1.952835083007812-12.1092529296875,2.88140869140625-18.1044921875,2.88140869140625-24.6810302734375,0-47.6318359375-15.729248046875-55.671142578125-40.472000122070312-9.9923095703125-30.752944946289062,6.837646484375-63.783416748046875,37.590576171875-73.775711059570312,6.0101318359375-1.95281982421875,12.1092529296875-2.881195068359375,18.1043701171875-2.881378173828125M140.013671875,116.775131225585938h-.00244140625c-7.9158935546875.000297546386719-15.7744140625,1.249710083007812-23.3570556640625,3.713470458984375-19.192138671875,6.235946655273438-34.80712890625,19.572418212890625-43.9686279296875,37.552703857421875-9.161376953125,17.980361938476562-10.7725830078125,38.452117919921875-4.53662109375,57.644241333007812,5.029052734375,15.477828979492188,14.668701171875,28.649520874023438,27.876953125,38.091171264648438,12.9293212890625,9.242294311523438,28.13134765625,14.127517700195312,43.962158203125,14.127517700195312,7.91552734375,0,15.774169921875-1.2493896484375,23.3577880859375-3.713470458984375,19.192138671875-6.235870361328125,34.80712890625-19.572341918945312,43.9686279296875-37.552627563476562,9.161376953125-17.980361938476562,10.7725830078125-38.452178955078125,4.53662109375-57.644302368164062-5.02880859375-15.47705078125-14.668212890625-28.648529052734375-27.876220703125-38.090408325195312-12.9295654296875-9.242820739746094-28.131103515625-14.1282958984375-43.961181640625-14.1282958984375h0Z" fill="#000" stroke-width="0"/>
      </g>
      <a xlink:href="https://www.notion.so/dmmnotes/A3-9c380c0928294f41ae10764aa0dee886?pvs=4#24262cc5be5c45f6b184ccddfa18723e">
        <g id="A3--3" data-name="A3-">
          <g>
            <path d="M121.240234375,57.78564453125c3.9765625,2.302734375,7.37890625,5.12890625,10.205078125,8.4775390625,2.8251953125,3.3515625,5.205078125,7.013671875,7.1435546875,10.990234375,1.935546875,3.978515625,3.478515625,8.1904296875,4.630859375,12.638671875,1.150390625,4.44921875,2.041015625,8.923828125,2.6689453125,13.4228515625,1.46484375,8.8974609375,2.3017578125,17.8984375,2.5126953125,27.00390625.2080078125,9.1064453125.05078125,18.2666015625-.4716796875,27.47607421875-.2109375,2.6171875-.4189453125,4.763671875-.6279296875,6.4365234375-.2109375,1.67578125-.603515625,3.037109375-1.177734375,4.08203125-.576171875,1.0478515625-1.3876953125,1.884765625-2.4326171875,2.5126953125-1.0478515625.6279296875-2.5126953125,1.2021484375-4.396484375,1.7265625-1.78125.208984375-3.6376953125.365234375-5.5732421875.470703125-1.9384765625.103515625-3.744140625-.4189453125-5.4169921875-1.5693359375-1.5693359375-1.044921875-2.8798828125-2.826171875-3.9248046875-5.337890625-1.0478515625-2.5126953125-1.6240234375-6.123046875-1.7265625-10.8330078125v-1.5703125c-2.6181640625-.314453125-5.73046875-.57421875-9.341796875-.78515625-3.611328125-.2080078125-7.30078125-.3388671875-11.068359375-.392578125-3.7685546875-.0517578125-7.40625-.078125-10.912109375-.078125h-8.8701171875c-.10546875.94140625-.2353515625,2.51171875-.392578125,4.7099609375s-.498046875,4.3955078125-1.0205078125,6.59375c-.5244140625,2.1982421875-1.2314453125,4.1875-2.119140625,5.9658203125-.890625,1.78125-2.1201171875,2.720703125-3.689453125,2.826171875-1.466796875.103515625-3.140625.208984375-5.0244140625.314453125-1.8837890625.1025390625-3.716796875-.10546875-5.4951171875-.6279296875-1.7802734375-.41796875-3.2724609375-1.2568359375-4.474609375-2.5126953125-1.2041015625-1.255859375-1.859375-3.2431640625-1.9619140625-5.9658203125,0-3.2431640625.0517578125-6.958984375.1572265625-11.146484375.1025390625-4.18603515625.3134765625-8.73876953125.6279296875-13.65966796875.2080078125-4.08203125.548828125-8.556640625,1.0205078125-13.423828125.470703125-4.8671875,1.150390625-9.8642578125,2.041015625-14.9931640625.8876953125-5.126953125,2.041015625-10.2568359375,3.453125-15.38671875,1.4130859375-5.126953125,3.1923828125-9.9931640625,5.3388671875-14.6005859375,2.1435546875-4.6044921875,4.6826171875-8.84375,7.6142578125-12.716796875,2.9287109375-3.87109375,6.4365234375-7.1162109375,10.5185546875-9.734375,4.8134765625-3.0341796875,10.099609375-4.552734375,15.857421875-4.552734375,5.7548828125,0,11.1982421875,1.4130859375,16.328125,4.2392578125ZM83.0888671875,129.22021484375c6.59375-.5224609375,13.1611328125-.9150390625,19.703125-1.177734375,6.5400390625-.259765625,13.1103515625-.287109375,19.7041015625-.078125.3134765625-7.4306640625,0-14.076171875-.9423828125-19.939453125-.94140625-5.8603515625-2.251953125-10.8056640625-3.9248046875-14.8359375-1.67578125-4.0283203125-3.6650390625-7.1162109375-5.9658203125-9.2626953125-2.3037109375-2.14453125-4.658203125-3.21875-7.0654296875-3.21875-2.0947265625,0-4.265625,1.07421875-6.515625,3.21875-2.251953125,2.146484375-4.34375,5.2861328125-6.279296875,9.419921875-1.9384765625,4.1357421875-3.689453125,9.23828125-5.259765625,15.306640625-1.5703125,6.072265625-2.72265625,12.9287109375-3.4541015625,20.5673828125Z" fill="none" stroke="#000" stroke-linecap="round" stroke-linejoin="round" stroke-width="33"/>
            <path d="M210.728515625,112.42138671875c3.03515625,3.6650390625,5.4169921875,8.0849609375,7.1435546875,13.2666015625,1.7275390625,5.1806640625,2.328125,10.283203125,1.8056640625,15.3076171875-.419921875,3.873046875-1.5703125,7.7197265625-3.4541015625,11.53955078125-1.8837890625,3.822265625-4.29296875,7.2216796875-7.2216796875,10.205078125-2.931640625,2.9833984375-6.3076171875,5.3916015625-10.126953125,7.2216796875-3.8212890625,1.8330078125-7.9287109375,2.748046875-12.32421875,2.748046875-2.72265625,0-5.4951171875-.2900390625-8.3212890625-.86328125-2.826171875-.57421875-5.5732421875-1.38671875-8.2421875-2.43359375-2.6689453125-1.044921875-5.15625-2.4072265625-7.4580078125-4.08203125-2.302734375-1.6728515625-4.1875-3.611328125-5.6513671875-5.8095703125-1.5703125-2.197265625-2.041015625-4.6044921875-1.4130859375-7.2216796875.6279296875-2.9287109375,1.8564453125-5.46826171875,3.689453125-7.61474609375,1.830078125-2.14453125,3.5322265625-3.8984375,5.1025390625-5.259765625.8369140625-.6279296875,1.8837890625-1.044921875,3.1396484375-1.255859375,1.255859375-.208984375,2.4580078125.3134765625,3.611328125,1.5703125,1.8837890625,2.197265625,3.9248046875,3.951171875,6.123046875,5.2587890625,2.1982421875,1.310546875,4.369140625,2.041015625,6.515625,2.1982421875,2.1435546875.1572265625,4.1845703125-.3134765625,6.123046875-1.4130859375,1.935546875-1.0986328125,3.583984375-2.904296875,4.9453125-5.416015625.73046875-1.46484375,1.150390625-3.03515625,1.255859375-4.7099609375.103515625-1.673828125-.2109375-3.21875-.9423828125-4.6318359375-.7333984375-1.4130859375-1.9375-2.615234375-3.6103515625-3.611328125-1.67578125-.9931640625-3.8740234375-1.5947265625-6.59375-1.8056640625-.2119140625.10546875-.3681640625.1328125-.4716796875.0791015625-.10546875-.0517578125-.2109375-.0791015625-.3134765625-.0791015625h-.314453125c-.10546875.10546875-.2109375.1572265625-.3134765625.1572265625h-.6279296875c-.314453125-.1025390625-.6552734375-.181640625-1.0205078125-.2353515625-.3681640625-.0517578125-.6552734375-.181640625-.8642578125-.392578125-1.15234375-.3134765625-1.9375-1.255859375-2.3544921875-2.826171875-.419921875-1.5693359375-.6552734375-3.296875-.70703125-5.1806640625-.0537109375-1.8837890625.0244140625-3.7412109375.236328125-5.5732421875.2080078125-1.830078125.470703125-3.1650390625.7841796875-4.00390625.4169921875-1.150390625.9423828125-2.119140625,1.5703125-2.904296875s1.359375-1.177734375,2.1982421875-1.177734375c2.615234375,0,4.91796875-.8359375,6.908203125-2.51171875,1.986328125-1.6728515625,3.3994140625-3.5576171875,4.23828125-5.65234375.8369140625-2.0927734375.966796875-4.0546875.392578125-5.8876953125-.576171875-1.830078125-2.1728515625-2.8505859375-4.7880859375-3.0615234375-1.78125-.2080078125-3.689453125.341796875-5.73046875,1.6494140625-2.041015625,1.3095703125-3.744140625,3.3232421875-5.1025390625,6.0439453125-.525390625,1.0478515625-.9423828125,2.068359375-1.255859375,3.0615234375-.314453125.99609375-1.099609375,1.75390625-2.35546875,2.2763671875-1.046875.419921875-2.041015625.6279296875-2.982421875.6279296875-3.037109375,0-5.9423828125-.8876953125-8.7138671875-2.6689453125-2.7744140625-1.7783203125-4.6318359375-4.2900390625-5.5732421875-7.5361328125-.419921875-1.986328125-.3681640625-3.9248046875.15625-5.80859375.5224609375-1.8837890625,1.3076171875-3.7138671875,2.35546875-5.4951171875,1.7783203125-2.9287109375,4.0283203125-5.4951171875,6.7509765625-7.693359375,2.720703125-2.197265625,5.73046875-3.94921875,9.02734375-5.2587890625,3.296875-1.3076171875,6.802734375-2.1201171875,10.51953125-2.43359375,3.7138671875-.314453125,7.45703125,0,11.2255859375.94140625,4.7099609375,1.1533203125,8.580078125,3.32421875,11.6171875,6.515625,3.03515625,3.1943359375,5.154296875,6.986328125,6.3583984375,11.3828125,1.2021484375,4.3955078125,1.4130859375,9.2109375.62890625,14.4443359375-.78515625,5.234375-2.64453125,10.572265625-5.57421875,16.013671875Z" fill="none" stroke="#000" stroke-linecap="round" stroke-linejoin="round" stroke-width="33"/>
          </g>
          <g>
            <path d="M121.240234375,57.78564453125c3.9765625,2.302734375,7.37890625,5.12890625,10.205078125,8.4775390625,2.8251953125,3.3515625,5.205078125,7.013671875,7.1435546875,10.990234375,1.935546875,3.978515625,3.478515625,8.1904296875,4.630859375,12.638671875,1.150390625,4.44921875,2.041015625,8.923828125,2.6689453125,13.4228515625,1.46484375,8.8974609375,2.3017578125,17.8984375,2.5126953125,27.00390625.2080078125,9.1064453125.05078125,18.2666015625-.4716796875,27.47607421875-.2109375,2.6171875-.4189453125,4.763671875-.6279296875,6.4365234375-.2109375,1.67578125-.603515625,3.037109375-1.177734375,4.08203125-.576171875,1.0478515625-1.3876953125,1.884765625-2.4326171875,2.5126953125-1.0478515625.6279296875-2.5126953125,1.2021484375-4.396484375,1.7265625-1.78125.208984375-3.6376953125.365234375-5.5732421875.470703125-1.9384765625.103515625-3.744140625-.4189453125-5.4169921875-1.5693359375-1.5693359375-1.044921875-2.8798828125-2.826171875-3.9248046875-5.337890625-1.0478515625-2.5126953125-1.6240234375-6.123046875-1.7265625-10.8330078125v-1.5703125c-2.6181640625-.314453125-5.73046875-.57421875-9.341796875-.78515625-3.611328125-.2080078125-7.30078125-.3388671875-11.068359375-.392578125-3.7685546875-.0517578125-7.40625-.078125-10.912109375-.078125h-8.8701171875c-.10546875.94140625-.2353515625,2.51171875-.392578125,4.7099609375s-.498046875,4.3955078125-1.0205078125,6.59375c-.5244140625,2.1982421875-1.2314453125,4.1875-2.119140625,5.9658203125-.890625,1.78125-2.1201171875,2.720703125-3.689453125,2.826171875-1.466796875.103515625-3.140625.208984375-5.0244140625.314453125-1.8837890625.1025390625-3.716796875-.10546875-5.4951171875-.6279296875-1.7802734375-.41796875-3.2724609375-1.2568359375-4.474609375-2.5126953125-1.2041015625-1.255859375-1.859375-3.2431640625-1.9619140625-5.9658203125,0-3.2431640625.0517578125-6.958984375.1572265625-11.146484375.1025390625-4.18603515625.3134765625-8.73876953125.6279296875-13.65966796875.2080078125-4.08203125.548828125-8.556640625,1.0205078125-13.423828125.470703125-4.8671875,1.150390625-9.8642578125,2.041015625-14.9931640625.8876953125-5.126953125,2.041015625-10.2568359375,3.453125-15.38671875,1.4130859375-5.126953125,3.1923828125-9.9931640625,5.3388671875-14.6005859375,2.1435546875-4.6044921875,4.6826171875-8.84375,7.6142578125-12.716796875,2.9287109375-3.87109375,6.4365234375-7.1162109375,10.5185546875-9.734375,4.8134765625-3.0341796875,10.099609375-4.552734375,15.857421875-4.552734375,5.7548828125,0,11.1982421875,1.4130859375,16.328125,4.2392578125ZM83.0888671875,129.22021484375c6.59375-.5224609375,13.1611328125-.9150390625,19.703125-1.177734375,6.5400390625-.259765625,13.1103515625-.287109375,19.7041015625-.078125.3134765625-7.4306640625,0-14.076171875-.9423828125-19.939453125-.94140625-5.8603515625-2.251953125-10.8056640625-3.9248046875-14.8359375-1.67578125-4.0283203125-3.6650390625-7.1162109375-5.9658203125-9.2626953125-2.3037109375-2.14453125-4.658203125-3.21875-7.0654296875-3.21875-2.0947265625,0-4.265625,1.07421875-6.515625,3.21875-2.251953125,2.146484375-4.34375,5.2861328125-6.279296875,9.419921875-1.9384765625,4.1357421875-3.689453125,9.23828125-5.259765625,15.306640625-1.5703125,6.072265625-2.72265625,12.9287109375-3.4541015625,20.5673828125Z" fill="#fbf9f9" stroke-width="0"/>
            <path d="M210.728515625,112.42138671875c3.03515625,3.6650390625,5.4169921875,8.0849609375,7.1435546875,13.2666015625,1.7275390625,5.1806640625,2.328125,10.283203125,1.8056640625,15.3076171875-.419921875,3.873046875-1.5703125,7.7197265625-3.4541015625,11.53955078125-1.8837890625,3.822265625-4.29296875,7.2216796875-7.2216796875,10.205078125-2.931640625,2.9833984375-6.3076171875,5.3916015625-10.126953125,7.2216796875-3.8212890625,1.8330078125-7.9287109375,2.748046875-12.32421875,2.748046875-2.72265625,0-5.4951171875-.2900390625-8.3212890625-.86328125-2.826171875-.57421875-5.5732421875-1.38671875-8.2421875-2.43359375-2.6689453125-1.044921875-5.15625-2.4072265625-7.4580078125-4.08203125-2.302734375-1.6728515625-4.1875-3.611328125-5.6513671875-5.8095703125-1.5703125-2.197265625-2.041015625-4.6044921875-1.4130859375-7.2216796875.6279296875-2.9287109375,1.8564453125-5.46826171875,3.689453125-7.61474609375,1.830078125-2.14453125,3.5322265625-3.8984375,5.1025390625-5.259765625.8369140625-.6279296875,1.8837890625-1.044921875,3.1396484375-1.255859375,1.255859375-.208984375,2.4580078125.3134765625,3.611328125,1.5703125,1.8837890625,2.197265625,3.9248046875,3.951171875,6.123046875,5.2587890625,2.1982421875,1.310546875,4.369140625,2.041015625,6.515625,2.1982421875,2.1435546875.1572265625,4.1845703125-.3134765625,6.123046875-1.4130859375,1.935546875-1.0986328125,3.583984375-2.904296875,4.9453125-5.416015625.73046875-1.46484375,1.150390625-3.03515625,1.255859375-4.7099609375.103515625-1.673828125-.2109375-3.21875-.9423828125-4.6318359375-.7333984375-1.4130859375-1.9375-2.615234375-3.6103515625-3.611328125-1.67578125-.9931640625-3.8740234375-1.5947265625-6.59375-1.8056640625-.2119140625.10546875-.3681640625.1328125-.4716796875.0791015625-.10546875-.0517578125-.2109375-.0791015625-.3134765625-.0791015625h-.314453125c-.10546875.10546875-.2109375.1572265625-.3134765625.1572265625h-.6279296875c-.314453125-.1025390625-.6552734375-.181640625-1.0205078125-.2353515625-.3681640625-.0517578125-.6552734375-.181640625-.8642578125-.392578125-1.15234375-.3134765625-1.9375-1.255859375-2.3544921875-2.826171875-.419921875-1.5693359375-.6552734375-3.296875-.70703125-5.1806640625-.0537109375-1.8837890625.0244140625-3.7412109375.236328125-5.5732421875.2080078125-1.830078125.470703125-3.1650390625.7841796875-4.00390625.4169921875-1.150390625.9423828125-2.119140625,1.5703125-2.904296875s1.359375-1.177734375,2.1982421875-1.177734375c2.615234375,0,4.91796875-.8359375,6.908203125-2.51171875,1.986328125-1.6728515625,3.3994140625-3.5576171875,4.23828125-5.65234375.8369140625-2.0927734375.966796875-4.0546875.392578125-5.8876953125-.576171875-1.830078125-2.1728515625-2.8505859375-4.7880859375-3.0615234375-1.78125-.2080078125-3.689453125.341796875-5.73046875,1.6494140625-2.041015625,1.3095703125-3.744140625,3.3232421875-5.1025390625,6.0439453125-.525390625,1.0478515625-.9423828125,2.068359375-1.255859375,3.0615234375-.314453125.99609375-1.099609375,1.75390625-2.35546875,2.2763671875-1.046875.419921875-2.041015625.6279296875-2.982421875.6279296875-3.037109375,0-5.9423828125-.8876953125-8.7138671875-2.6689453125-2.7744140625-1.7783203125-4.6318359375-4.2900390625-5.5732421875-7.5361328125-.419921875-1.986328125-.3681640625-3.9248046875.15625-5.80859375.5224609375-1.8837890625,1.3076171875-3.7138671875,2.35546875-5.4951171875,1.7783203125-2.9287109375,4.0283203125-5.4951171875,6.7509765625-7.693359375,2.720703125-2.197265625,5.73046875-3.94921875,9.02734375-5.2587890625,3.296875-1.3076171875,6.802734375-2.1201171875,10.51953125-2.43359375,3.7138671875-.314453125,7.45703125,0,11.2255859375.94140625,4.7099609375,1.1533203125,8.580078125,3.32421875,11.6171875,6.515625,3.03515625,3.1943359375,5.154296875,6.986328125,6.3583984375,11.3828125,1.2021484375,4.3955078125,1.4130859375,9.2109375.62890625,14.4443359375-.78515625,5.234375-2.64453125,10.572265625-5.57421875,16.013671875Z" fill="#fbf9f9" stroke-width="0"/>
          </g>
        </g>
      </a>
      <a xlink:href="https://www.notion.so/dmmnotes/A6-b321873a73fa41aaaadd7192fde856a2?pvs=4#6240fd0dc246443faceeffc774f1175c">
        <g id="A3--4" data-name="A3-">
          <path d="M117.4853515625,204.1083984375c14.3798828125-.419921875,28.7998046875-.419921875,43.2646484375,0,.50390625.0849609375.96484375.3369140625,1.38671875.7568359375.419921875.421875.7568359375.9892578125,1.009765625,1.703125.251953125.7158203125.419921875,1.74609375.50390625,3.08984375.0830078125,1.26171875.1259765625,2.5859375.1259765625,3.9736328125s-.1259765625,2.6708984375-.3779296875,3.8466796875c-.251953125,1.1787109375-.630859375,2.166015625-1.134765625,2.96484375-.5048828125.7998046875-1.220703125,1.32421875-2.14453125,1.576171875-.5048828125.0849609375-1.47265625.1064453125-2.9013671875.0634765625-1.4306640625-.0419921875-3.1533203125-.1259765625-5.171875-.251953125-2.017578125-.126953125-4.2470703125-.2724609375-6.6845703125-.4423828125-2.4404296875-.1669921875-4.9189453125-.3349609375-7.4423828125-.50390625-2.439453125-.16796875-4.814453125-.3154296875-7.1259765625-.44140625-2.314453125-.1259765625-4.3955078125-.2724609375-6.244140625-.44140625-2.1875-.0830078125-4.205078125-.16796875-6.0546875-.2529296875-.3369140625.0849609375-.673828125,0-1.0087890625-.251953125-.251953125-.16796875-.484375-.5244140625-.693359375-1.072265625-.2109375-.5458984375-.3583984375-1.32421875-.44140625-2.3330078125-.0849609375-1.009765625-.169921875-2.185546875-.2529296875-3.5322265625-.083984375-1.34375-.1259765625-2.6484375-.1259765625-3.91015625,0-1.2607421875.1259765625-2.3330078125.37890625-3.2158203125.251953125-.8837890625.630859375-1.3251953125,1.134765625-1.3251953125Z" fill="#fff" stroke="#000"/>
          <path d="M117.4853515625,204.1083984375c14.3798828125-.419921875,28.7998046875-.419921875,43.2646484375,0,.50390625.0849609375.96484375.3369140625,1.38671875.7568359375.419921875.421875.7568359375.9892578125,1.009765625,1.703125.251953125.7158203125.419921875,1.74609375.50390625,3.08984375.0830078125,1.26171875.1259765625,2.5859375.1259765625,3.9736328125s-.1259765625,2.6708984375-.3779296875,3.8466796875c-.251953125,1.1787109375-.630859375,2.166015625-1.134765625,2.96484375-.5048828125.7998046875-1.220703125,1.32421875-2.14453125,1.576171875-.5048828125.0849609375-1.47265625.1064453125-2.9013671875.0634765625-1.4306640625-.0419921875-3.1533203125-.1259765625-5.171875-.251953125-2.017578125-.126953125-4.2470703125-.2724609375-6.6845703125-.4423828125-2.4404296875-.1669921875-4.9189453125-.3349609375-7.4423828125-.50390625-2.439453125-.16796875-4.814453125-.3154296875-7.1259765625-.44140625-2.314453125-.1259765625-4.3955078125-.2724609375-6.244140625-.44140625-2.1875-.0830078125-4.205078125-.16796875-6.0546875-.2529296875-.3369140625.0849609375-.673828125,0-1.0087890625-.251953125-.251953125-.16796875-.484375-.5244140625-.693359375-1.072265625-.2109375-.5458984375-.3583984375-1.32421875-.44140625-2.3330078125-.0849609375-1.009765625-.169921875-2.185546875-.2529296875-3.5322265625-.083984375-1.34375-.1259765625-2.6484375-.1259765625-3.91015625,0-1.2607421875.1259765625-2.3330078125.37890625-3.2158203125.251953125-.8837890625.630859375-1.3251953125,1.134765625-1.3251953125Z" fill="none" stroke="#000" stroke-linecap="round" stroke-linejoin="round" stroke-width="22"/>
          <path d="M117.4853515625,204.1083984375c14.3798828125-.419921875,28.7998046875-.419921875,43.2646484375,0,.50390625.0849609375.96484375.3369140625,1.38671875.7568359375.419921875.421875.7568359375.9892578125,1.009765625,1.703125.251953125.7158203125.419921875,1.74609375.50390625,3.08984375.0830078125,1.26171875.1259765625,2.5859375.1259765625,3.9736328125s-.1259765625,2.6708984375-.3779296875,3.8466796875c-.251953125,1.1787109375-.630859375,2.166015625-1.134765625,2.96484375-.5048828125.7998046875-1.220703125,1.32421875-2.14453125,1.576171875-.5048828125.0849609375-1.47265625.1064453125-2.9013671875.0634765625-1.4306640625-.0419921875-3.1533203125-.1259765625-5.171875-.251953125-2.017578125-.126953125-4.2470703125-.2724609375-6.6845703125-.4423828125-2.4404296875-.1669921875-4.9189453125-.3349609375-7.4423828125-.50390625-2.439453125-.16796875-4.814453125-.3154296875-7.1259765625-.44140625-2.314453125-.1259765625-4.3955078125-.2724609375-6.244140625-.44140625-2.1875-.0830078125-4.205078125-.16796875-6.0546875-.2529296875-.3369140625.0849609375-.673828125,0-1.0087890625-.251953125-.251953125-.16796875-.484375-.5244140625-.693359375-1.072265625-.2109375-.5458984375-.3583984375-1.32421875-.44140625-2.3330078125-.0849609375-1.009765625-.169921875-2.185546875-.2529296875-3.5322265625-.083984375-1.34375-.1259765625-2.6484375-.1259765625-3.91015625,0-1.2607421875.1259765625-2.3330078125.37890625-3.2158203125.251953125-.8837890625.630859375-1.3251953125,1.134765625-1.3251953125Z" fill="#fbf9f9" stroke-width="0"/>
        </g>
      </a>
    </g>
  </a>
</svg>