<?xml version="1.0" encoding="UTF-8"?>
<svg id="Pattern" xmlns="http://www.w3.org/2000/svg" xmlns:xlink="http://www.w3.org/1999/xlink" viewBox="0 0 280 280">
  <defs>
    <linearGradient id="linear-gradient" x1="106.222602317849123" y1="246.734048729524147" x2="176.565029366671922" y2="133.455335040528212" gradientUnits="userSpaceOnUse">
      <stop offset="0" stop-color="#6a70a0"/>
      <stop offset=".467948717948718" stop-color="#7d67a2"/>
      <stop offset="1" stop-color="#8e5ba6"/>
    </linearGradient>
  </defs>
  <a xlink:href="https://www.notion.so/dmmnotes/A3-9c380c0928294f41ae10764aa0dee886?pvs=4#24262cc5be5c45f6b184ccddfa18723e">
    <g id="A3">
      <g id="A3-2" data-name="A3">
        <path d="M139.98779296875,259.404296875c-29.126953125,0-54.748046875-18.625-63.7548828125-46.3447265625-11.4248046875-35.162109375,7.88623046875-73.0625,43.0478515625-84.48681640625,6.73388671875-2.18798828125,13.708984375-3.29736328125,20.73095703125-3.29736328125,29.12744140625,0,54.74853515625,18.62451171875,63.75537109375,46.3447265625,11.4248046875,35.1611328125-7.88671875,73.0615234375-43.0478515625,84.486328125-6.73388671875,2.1884765625-13.708984375,3.2978515625-20.7314453125,3.2978515625Z" fill="url(#linear-gradient)" stroke-width="0"/>
        <path d="M140.0118408203125,133.775161743164062c24.6810302734375-.000778198242188,47.6319580078125,15.729217529296875,55.6712646484375,40.471969604492188,9.9923095703125,30.753005981445312-6.837646484375,63.783477783203125-37.590576171875,73.775711059570312-6.0101318359375,1.952835083007812-12.1092529296875,2.88140869140625-18.1044921875,2.88140869140625-24.6810302734375,0-47.6318359375-15.729248046875-55.671142578125-40.472000122070312-9.9923095703125-30.752944946289062,6.837646484375-63.783416748046875,37.590576171875-73.775711059570312,6.0101318359375-1.95281982421875,12.1092529296875-2.881195068359375,18.1043701171875-2.881378173828125M140.013671875,116.775131225585938h-.00244140625c-7.9158935546875.000297546386719-15.7744140625,1.249710083007812-23.3570556640625,3.713470458984375-19.192138671875,6.235946655273438-34.80712890625,19.572418212890625-43.9686279296875,37.552703857421875-9.161376953125,17.980361938476562-10.7725830078125,38.452117919921875-4.53662109375,57.644241333007812,5.029052734375,15.477828979492188,14.668701171875,28.649520874023438,27.876953125,38.091171264648438,12.9293212890625,9.242294311523438,28.13134765625,14.127517700195312,43.962158203125,14.127517700195312,7.91552734375,0,15.774169921875-1.2493896484375,23.3577880859375-3.713470458984375,19.192138671875-6.235870361328125,34.80712890625-19.572341918945312,43.9686279296875-37.552627563476562,9.161376953125-17.980361938476562,10.7725830078125-38.452178955078125,4.53662109375-57.644302368164062-5.02880859375-15.47705078125-14.668212890625-28.648529052734375-27.876220703125-38.090408325195312-12.9295654296875-9.242820739746094-28.131103515625-14.1282958984375-43.961181640625-14.1282958984375h0Z" fill="#000" stroke-width="0"/>
      </g>
      <a xlink:href="https://www.notion.so/dmmnotes/A3-9c380c0928294f41ae10764aa0dee886?pvs=4#24262cc5be5c45f6b184ccddfa18723e">
        <g>
          <g>
            <path d="M121.23974609375,57.78564453125c3.9765625,2.302734375,7.37890625,5.12890625,10.205078125,8.4775390625,2.82568359375,3.3515625,5.20556640625,7.013671875,7.1435546875,10.990234375,1.935546875,3.978515625,3.478515625,8.1904296875,4.63134765625,12.638671875,1.150390625,4.44921875,2.041015625,8.923828125,2.6689453125,13.4228515625,1.46435546875,8.8974609375,2.30126953125,17.8984375,2.51220703125,27.00390625.20849609375,9.1064453125.05126953125,18.2666015625-.47119140625,27.47509765625-.2109375,2.6171875-.41943359375,4.763671875-.6279296875,6.4365234375-.2109375,1.67578125-.603515625,3.037109375-1.177734375,4.08203125-.576171875,1.0478515625-1.38818359375,1.884765625-2.43310546875,2.5126953125-1.0478515625.6279296875-2.51220703125,1.2021484375-4.39599609375,1.7265625-1.78125.208984375-3.63818359375.365234375-5.57373046875.470703125-1.93798828125.103515625-3.74365234375-.4189453125-5.41650390625-1.5693359375-1.56982421875-1.044921875-2.8798828125-2.826171875-3.9248046875-5.337890625-1.0478515625-2.5126953125-1.6240234375-6.123046875-1.72705078125-10.8330078125v-1.5703125c-2.61767578125-.314453125-5.73046875-.57421875-9.341796875-.78515625-3.61083984375-.2080078125-7.30029296875-.3388671875-11.068359375-.392578125-3.76806640625-.0517578125-7.40576171875-.078125-10.91162109375-.078125h-8.8701171875c-.10546875.94140625-.23583984375,2.51171875-.392578125,4.7099609375-.1572265625,2.1982421875-.498046875,4.3955078125-1.0205078125,6.59375-.52490234375,2.1982421875-1.2314453125,4.1875-2.11962890625,5.9658203125-.890625,1.78125-2.11962890625,2.720703125-3.689453125,2.826171875-1.466796875.103515625-3.14013671875.208984375-5.02392578125.314453125-1.88427734375.1025390625-3.716796875-.10546875-5.4951171875-.6279296875-1.78076171875-.41796875-3.2724609375-1.2568359375-4.474609375-2.5126953125-1.20458984375-1.255859375-1.859375-3.2431640625-1.96240234375-5.9658203125,0-3.2431640625.0517578125-6.958984375.1572265625-11.146484375.10302734375-4.18505859375.31396484375-8.73779296875.6279296875-13.65869140625.20849609375-4.08203125.54931640625-8.556640625,1.0205078125-13.423828125.470703125-4.8671875,1.150390625-9.8642578125,2.041015625-14.9931640625.8876953125-5.126953125,2.041015625-10.2568359375,3.45361328125-15.38671875,1.4130859375-5.126953125,3.19189453125-9.9931640625,5.33837890625-14.6005859375,2.14404296875-4.6044921875,4.68310546875-8.84375,7.6142578125-12.716796875,2.92919921875-3.87109375,6.43701171875-7.1162109375,10.51904296875-9.734375,4.81298828125-3.0341796875,10.099609375-4.552734375,15.85693359375-4.552734375,5.75537109375,0,11.19873046875,1.4130859375,16.328125,4.2392578125ZM83.0888671875,129.22021484375c6.59375-.5224609375,13.16064453125-.9150390625,19.703125-1.177734375,6.5400390625-.259765625,13.10986328125-.287109375,19.70361328125-.078125.31396484375-7.4306640625,0-14.076171875-.94189453125-19.939453125-.94189453125-5.8603515625-2.251953125-10.8056640625-3.9248046875-14.8359375-1.67578125-4.0283203125-3.6650390625-7.1162109375-5.96630859375-9.2626953125-2.30322265625-2.14453125-4.658203125-3.21875-7.06494140625-3.21875-2.0947265625,0-4.26611328125,1.07421875-6.515625,3.21875-2.251953125,2.146484375-4.34423828125,5.2861328125-6.27978515625,9.419921875-1.93798828125,4.1357421875-3.689453125,9.23828125-5.25927734375,15.306640625-1.5703125,6.072265625-2.72314453125,12.9287109375-3.4541015625,20.5673828125Z" fill="none" stroke="#000" stroke-linecap="round" stroke-linejoin="round" stroke-width="33"/>
            <path d="M210.728515625,112.42138671875c3.03466796875,3.6650390625,5.41650390625,8.0849609375,7.1435546875,13.2666015625,1.72705078125,5.1806640625,2.328125,10.283203125,1.8056640625,15.3076171875-.419921875,3.873046875-1.5703125,7.7197265625-3.4541015625,11.53857421875-1.88427734375,3.822265625-4.29296875,7.2216796875-7.22216796875,10.205078125-2.931640625,2.9833984375-6.30712890625,5.3916015625-10.12646484375,7.2216796875-3.82177734375,1.8330078125-7.9287109375,2.748046875-12.32470703125,2.748046875-2.72265625,0-5.49462890625-.2900390625-8.32080078125-.86328125-2.826171875-.57421875-5.5732421875-1.38671875-8.24267578125-2.43359375-2.6689453125-1.044921875-5.15625-2.4072265625-7.45751953125-4.08203125-2.30322265625-1.6728515625-4.1875-3.611328125-5.65185546875-5.8095703125-1.56982421875-2.197265625-2.041015625-4.6044921875-1.4130859375-7.2216796875.6279296875-2.9287109375,1.85693359375-5.46728515625,3.689453125-7.61376953125,1.830078125-2.14453125,3.53271484375-3.8984375,5.1025390625-5.259765625.8369140625-.6279296875,1.88427734375-1.044921875,3.14013671875-1.255859375,1.255859375-.208984375,2.4580078125.3134765625,3.61083984375,1.5703125,1.88427734375,2.197265625,3.92529296875,3.951171875,6.123046875,5.2587890625,2.1982421875,1.310546875,4.369140625,2.041015625,6.515625,2.1982421875,2.14404296875.1572265625,4.18505859375-.3134765625,6.123046875-1.4130859375,1.935546875-1.0986328125,3.583984375-2.904296875,4.9453125-5.416015625.73095703125-1.46484375,1.15087890625-3.03515625,1.25634765625-4.7099609375.10302734375-1.673828125-.2109375-3.21875-.9423828125-4.6318359375-.7333984375-1.4130859375-1.93798828125-2.615234375-3.61083984375-3.611328125-1.67529296875-.9931640625-3.87353515625-1.5947265625-6.59375-1.8056640625-.21142578125.10546875-.3681640625.1328125-.47119140625.0791015625-.10546875-.0517578125-.2109375-.0791015625-.31396484375-.0791015625h-.31396484375c-.10546875.10546875-.2109375.1572265625-.31396484375.1572265625h-.6279296875c-.31396484375-.1025390625-.6552734375-.181640625-1.0205078125-.2353515625-.3681640625-.0517578125-.6552734375-.181640625-.86376953125-.392578125-1.15283203125-.3134765625-1.93798828125-1.255859375-2.35498046875-2.826171875-.41943359375-1.5693359375-.65478515625-3.296875-.70654296875-5.1806640625-.0537109375-1.8837890625.0244140625-3.7412109375.23583984375-5.5732421875.20849609375-1.830078125.470703125-3.1650390625.78466796875-4.00390625.4169921875-1.150390625.94189453125-2.119140625,1.5703125-2.904296875.6279296875-.78515625,1.35888671875-1.177734375,2.19775390625-1.177734375,2.615234375,0,4.91845703125-.8359375,6.908203125-2.51171875,1.98681640625-1.6728515625,3.39990234375-3.5576171875,4.23876953125-5.65234375.83642578125-2.0927734375.966796875-4.0546875.392578125-5.8876953125-.57666015625-1.830078125-2.17333984375-2.8505859375-4.78857421875-3.0615234375-1.78076171875-.2080078125-3.689453125.341796875-5.73046875,1.6494140625-2.041015625,1.3095703125-3.74365234375,3.3232421875-5.1025390625,6.0439453125-.52490234375,1.0478515625-.94189453125,2.068359375-1.255859375,3.0615234375-.31396484375.99609375-1.09912109375,1.75390625-2.35498046875,2.2763671875-1.04736328125.419921875-2.041015625.6279296875-2.98291015625.6279296875-3.037109375,0-5.94189453125-.8876953125-8.7138671875-2.6689453125-2.7744140625-1.7783203125-4.63134765625-4.2900390625-5.5732421875-7.5361328125-.41943359375-1.986328125-.3681640625-3.9248046875.15673828125-5.80859375.5224609375-1.8837890625,1.3076171875-3.7138671875,2.35498046875-5.4951171875,1.77880859375-2.9287109375,4.0283203125-5.4951171875,6.7509765625-7.693359375,2.720703125-2.197265625,5.73095703125-3.94921875,9.02783203125-5.2587890625,3.296875-1.3076171875,6.80224609375-2.1201171875,10.51904296875-2.43359375,3.7138671875-.314453125,7.45751953125,0,11.2255859375.94140625,4.7099609375,1.1533203125,8.58056640625,3.32421875,11.61767578125,6.515625,3.03466796875,3.1943359375,5.154296875,6.986328125,6.3583984375,11.3828125,1.2021484375,4.3955078125,1.4130859375,9.2109375.62841796875,14.4443359375-.78515625,5.234375-2.64453125,10.572265625-5.57373046875,16.013671875Z" fill="none" stroke="#000" stroke-linecap="round" stroke-linejoin="round" stroke-width="33"/>
          </g>
          <g>
            <path d="M121.23974609375,57.78564453125c3.9765625,2.302734375,7.37890625,5.12890625,10.205078125,8.4775390625,2.82568359375,3.3515625,5.20556640625,7.013671875,7.1435546875,10.990234375,1.935546875,3.978515625,3.478515625,8.1904296875,4.63134765625,12.638671875,1.150390625,4.44921875,2.041015625,8.923828125,2.6689453125,13.4228515625,1.46435546875,8.8974609375,2.30126953125,17.8984375,2.51220703125,27.00390625.20849609375,9.1064453125.05126953125,18.2666015625-.47119140625,27.47509765625-.2109375,2.6171875-.41943359375,4.763671875-.6279296875,6.4365234375-.2109375,1.67578125-.603515625,3.037109375-1.177734375,4.08203125-.576171875,1.0478515625-1.38818359375,1.884765625-2.43310546875,2.5126953125-1.0478515625.6279296875-2.51220703125,1.2021484375-4.39599609375,1.7265625-1.78125.208984375-3.63818359375.365234375-5.57373046875.470703125-1.93798828125.103515625-3.74365234375-.4189453125-5.41650390625-1.5693359375-1.56982421875-1.044921875-2.8798828125-2.826171875-3.9248046875-5.337890625-1.0478515625-2.5126953125-1.6240234375-6.123046875-1.72705078125-10.8330078125v-1.5703125c-2.61767578125-.314453125-5.73046875-.57421875-9.341796875-.78515625-3.61083984375-.2080078125-7.30029296875-.3388671875-11.068359375-.392578125-3.76806640625-.0517578125-7.40576171875-.078125-10.91162109375-.078125h-8.8701171875c-.10546875.94140625-.23583984375,2.51171875-.392578125,4.7099609375-.1572265625,2.1982421875-.498046875,4.3955078125-1.0205078125,6.59375-.52490234375,2.1982421875-1.2314453125,4.1875-2.11962890625,5.9658203125-.890625,1.78125-2.11962890625,2.720703125-3.689453125,2.826171875-1.466796875.103515625-3.14013671875.208984375-5.02392578125.314453125-1.88427734375.1025390625-3.716796875-.10546875-5.4951171875-.6279296875-1.78076171875-.41796875-3.2724609375-1.2568359375-4.474609375-2.5126953125-1.20458984375-1.255859375-1.859375-3.2431640625-1.96240234375-5.9658203125,0-3.2431640625.0517578125-6.958984375.1572265625-11.146484375.10302734375-4.18505859375.31396484375-8.73779296875.6279296875-13.65869140625.20849609375-4.08203125.54931640625-8.556640625,1.0205078125-13.423828125.470703125-4.8671875,1.150390625-9.8642578125,2.041015625-14.9931640625.8876953125-5.126953125,2.041015625-10.2568359375,3.45361328125-15.38671875,1.4130859375-5.126953125,3.19189453125-9.9931640625,5.33837890625-14.6005859375,2.14404296875-4.6044921875,4.68310546875-8.84375,7.6142578125-12.716796875,2.92919921875-3.87109375,6.43701171875-7.1162109375,10.51904296875-9.734375,4.81298828125-3.0341796875,10.099609375-4.552734375,15.85693359375-4.552734375,5.75537109375,0,11.19873046875,1.4130859375,16.328125,4.2392578125ZM83.0888671875,129.22021484375c6.59375-.5224609375,13.16064453125-.9150390625,19.703125-1.177734375,6.5400390625-.259765625,13.10986328125-.287109375,19.70361328125-.078125.31396484375-7.4306640625,0-14.076171875-.94189453125-19.939453125-.94189453125-5.8603515625-2.251953125-10.8056640625-3.9248046875-14.8359375-1.67578125-4.0283203125-3.6650390625-7.1162109375-5.96630859375-9.2626953125-2.30322265625-2.14453125-4.658203125-3.21875-7.06494140625-3.21875-2.0947265625,0-4.26611328125,1.07421875-6.515625,3.21875-2.251953125,2.146484375-4.34423828125,5.2861328125-6.27978515625,9.419921875-1.93798828125,4.1357421875-3.689453125,9.23828125-5.25927734375,15.306640625-1.5703125,6.072265625-2.72314453125,12.9287109375-3.4541015625,20.5673828125Z" fill="#fbf9f9" stroke-width="0"/>
            <path d="M210.728515625,112.42138671875c3.03466796875,3.6650390625,5.41650390625,8.0849609375,7.1435546875,13.2666015625,1.72705078125,5.1806640625,2.328125,10.283203125,1.8056640625,15.3076171875-.419921875,3.873046875-1.5703125,7.7197265625-3.4541015625,11.53857421875-1.88427734375,3.822265625-4.29296875,7.2216796875-7.22216796875,10.205078125-2.931640625,2.9833984375-6.30712890625,5.3916015625-10.12646484375,7.2216796875-3.82177734375,1.8330078125-7.9287109375,2.748046875-12.32470703125,2.748046875-2.72265625,0-5.49462890625-.2900390625-8.32080078125-.86328125-2.826171875-.57421875-5.5732421875-1.38671875-8.24267578125-2.43359375-2.6689453125-1.044921875-5.15625-2.4072265625-7.45751953125-4.08203125-2.30322265625-1.6728515625-4.1875-3.611328125-5.65185546875-5.8095703125-1.56982421875-2.197265625-2.041015625-4.6044921875-1.4130859375-7.2216796875.6279296875-2.9287109375,1.85693359375-5.46728515625,3.689453125-7.61376953125,1.830078125-2.14453125,3.53271484375-3.8984375,5.1025390625-5.259765625.8369140625-.6279296875,1.88427734375-1.044921875,3.14013671875-1.255859375,1.255859375-.208984375,2.4580078125.3134765625,3.61083984375,1.5703125,1.88427734375,2.197265625,3.92529296875,3.951171875,6.123046875,5.2587890625,2.1982421875,1.310546875,4.369140625,2.041015625,6.515625,2.1982421875,2.14404296875.1572265625,4.18505859375-.3134765625,6.123046875-1.4130859375,1.935546875-1.0986328125,3.583984375-2.904296875,4.9453125-5.416015625.73095703125-1.46484375,1.15087890625-3.03515625,1.25634765625-4.7099609375.10302734375-1.673828125-.2109375-3.21875-.9423828125-4.6318359375-.7333984375-1.4130859375-1.93798828125-2.615234375-3.61083984375-3.611328125-1.67529296875-.9931640625-3.87353515625-1.5947265625-6.59375-1.8056640625-.21142578125.10546875-.3681640625.1328125-.47119140625.0791015625-.10546875-.0517578125-.2109375-.0791015625-.31396484375-.0791015625h-.31396484375c-.10546875.10546875-.2109375.1572265625-.31396484375.1572265625h-.6279296875c-.31396484375-.1025390625-.6552734375-.181640625-1.0205078125-.2353515625-.3681640625-.0517578125-.6552734375-.181640625-.86376953125-.392578125-1.15283203125-.3134765625-1.93798828125-1.255859375-2.35498046875-2.826171875-.41943359375-1.5693359375-.65478515625-3.296875-.70654296875-5.1806640625-.0537109375-1.8837890625.0244140625-3.7412109375.23583984375-5.5732421875.20849609375-1.830078125.470703125-3.1650390625.78466796875-4.00390625.4169921875-1.150390625.94189453125-2.119140625,1.5703125-2.904296875.6279296875-.78515625,1.35888671875-1.177734375,2.19775390625-1.177734375,2.615234375,0,4.91845703125-.8359375,6.908203125-2.51171875,1.98681640625-1.6728515625,3.39990234375-3.5576171875,4.23876953125-5.65234375.83642578125-2.0927734375.966796875-4.0546875.392578125-5.8876953125-.57666015625-1.830078125-2.17333984375-2.8505859375-4.78857421875-3.0615234375-1.78076171875-.2080078125-3.689453125.341796875-5.73046875,1.6494140625-2.041015625,1.3095703125-3.74365234375,3.3232421875-5.1025390625,6.0439453125-.52490234375,1.0478515625-.94189453125,2.068359375-1.255859375,3.0615234375-.31396484375.99609375-1.09912109375,1.75390625-2.35498046875,2.2763671875-1.04736328125.419921875-2.041015625.6279296875-2.98291015625.6279296875-3.037109375,0-5.94189453125-.8876953125-8.7138671875-2.6689453125-2.7744140625-1.7783203125-4.63134765625-4.2900390625-5.5732421875-7.5361328125-.41943359375-1.986328125-.3681640625-3.9248046875.15673828125-5.80859375.5224609375-1.8837890625,1.3076171875-3.7138671875,2.35498046875-5.4951171875,1.77880859375-2.9287109375,4.0283203125-5.4951171875,6.7509765625-7.693359375,2.720703125-2.197265625,5.73095703125-3.94921875,9.02783203125-5.2587890625,3.296875-1.3076171875,6.80224609375-2.1201171875,10.51904296875-2.43359375,3.7138671875-.314453125,7.45751953125,0,11.2255859375.94140625,4.7099609375,1.1533203125,8.58056640625,3.32421875,11.61767578125,6.515625,3.03466796875,3.1943359375,5.154296875,6.986328125,6.3583984375,11.3828125,1.2021484375,4.3955078125,1.4130859375,9.2109375.62841796875,14.4443359375-.78515625,5.234375-2.64453125,10.572265625-5.57373046875,16.013671875Z" fill="#fbf9f9" stroke-width="0"/>
          </g>
        </g>
      </a>
    </g>
  </a>
</svg>