<?xml version="1.0" encoding="UTF-8"?>
<svg id="Pattern" xmlns="http://www.w3.org/2000/svg" xmlns:xlink="http://www.w3.org/1999/xlink" viewBox="0 0 280 280">
  <defs>
    <linearGradient id="linear-gradient" x1="104.853364279251764" y1="245.386920635217393" x2="178.341498848727099" y2="134.470046719813297" gradientUnits="userSpaceOnUse">
      <stop offset="0" stop-color="#8e5ba6"/>
      <stop offset=".438390020007055" stop-color="#a25d99"/>
      <stop offset="1" stop-color="#b6608e"/>
    </linearGradient>
  </defs>
  <a xlink:href="https://www.notion.so/dmmnotes/A5-8e85f49046ef412aa229745abf7d38d3?pvs=4#cc754bc8687c4e66850f6931f541d7fa">
    <g id="A5">
      <g>
        <path d="M139.99365234375,259.388671875c-17.46484375,0-34.00341796875-6.68359375-46.56982421875-18.818359375-12.8828125-12.4404296875-20.14990234375-29.1533203125-20.46240234375-47.060546875-.3125-17.90625,6.3671875-34.86328125,18.80810546875-47.74658203125,12.7490234375-13.20166015625,29.87939453125-20.47216796875,48.236328125-20.47216796875,17.46533203125,0,34.00390625,6.68310546875,46.5703125,18.818359375,12.8828125,12.4404296875,20.14990234375,29.1533203125,20.46240234375,47.060546875.3125,17.90625-6.3671875,34.86328125-18.80810546875,47.7451171875-12.74853515625,13.2021484375-29.87939453125,20.4736328125-48.23681640625,20.4736328125Z" fill="url(#linear-gradient)" stroke-width="0"/>
        <path d="M140.00634765625,133.790939331054688c14.642333984375-.000518798828125,29.30029296875,5.457656860351562,40.6650390625,16.432373046875,23.26025390625,22.462112426757812,23.9072265625,59.5274658203125,1.445068359375,82.787765502929688-11.487548828125,11.895599365234375-26.79638671875,17.877410888671875-42.122802734375,17.877410888671875-14.642333984375,0-29.30029296875-5.4576416015625-40.6650390625-16.432357788085938-23.26025390625-22.462173461914062-23.9072265625-59.52752685546875-1.445068359375-82.787765502929688,11.487548828125-11.8956298828125,26.79638671875-17.876876831054688,42.122802734375-17.877426147460938M140.008544921875,116.79095458984375v17l-.00048828125-17h-.002197265625c-20.684326171875.000709533691406-39.986328125,8.19317626953125-54.35107421875,23.0682373046875-28.937744140625,29.966064453125-28.101318359375,77.8878173828125,1.86474609375,106.825698852539062,14.158935546875,13.673355102539062,32.794677734375,21.203598022460938,52.47412109375,21.203598022460938,20.683837890625,0,39.986083984375-8.192474365234375,54.3515625-23.06817626953125,28.93798828125-29.9661865234375,28.101318359375-77.88800048828125-1.86474609375-106.825759887695312-14.158935546875-13.673362731933594-32.7939453125-21.203598022460938-52.471923828125-21.203598022460938h0Z" fill="#000" stroke-width="0"/>
      </g>
      <a xlink:href="https://www.notion.so/dmmnotes/A5-8e85f49046ef412aa229745abf7d38d3?pvs=4#cc754bc8687c4e66850f6931f541d7fa">
        <g>
          <g>
            <path d="M118.80615234375,57.78564453125c3.9765625,2.302734375,7.37890625,5.12890625,10.205078125,8.4775390625,2.82568359375,3.3515625,5.20556640625,7.013671875,7.1435546875,10.990234375,1.935546875,3.978515625,3.478515625,8.1904296875,4.63134765625,12.638671875,1.150390625,4.44921875,2.041015625,8.923828125,2.6689453125,13.4228515625,1.46435546875,8.8974609375,2.30126953125,17.8984375,2.51220703125,27.00390625.20849609375,9.1064453125.05126953125,18.2666015625-.47119140625,27.47607421875-.2109375,2.6171875-.41943359375,4.763671875-.6279296875,6.435546875-.2109375,1.67578125-.603515625,3.037109375-1.177734375,4.08203125-.576171875,1.048828125-1.38818359375,1.884765625-2.43310546875,2.513671875-1.0478515625.626953125-2.51220703125,1.201171875-4.39599609375,1.7265625-1.78125.208984375-3.63818359375.365234375-5.57373046875.470703125-1.93798828125.103515625-3.74365234375-.419921875-5.41650390625-1.5703125-1.56982421875-1.044921875-2.8798828125-2.826171875-3.9248046875-5.337890625-1.0478515625-2.51171875-1.6240234375-6.123046875-1.72705078125-10.83203125v-1.5703125c-2.61767578125-.314453125-5.73046875-.57421875-9.341796875-.78515625-3.61083984375-.208984375-7.30029296875-.33984375-11.068359375-.392578125s-7.40576171875-.078125-10.91162109375-.078125h-8.8701171875c-.10546875.94140625-.23583984375,2.51171875-.392578125,4.708984375-.1572265625,2.19921875-.498046875,4.396484375-1.0205078125,6.59375-.52490234375,2.19921875-1.2314453125,4.1875-2.11962890625,5.966796875-.890625,1.78125-2.11962890625,2.720703125-3.689453125,2.826171875-1.466796875.103515625-3.14013671875.208984375-5.02392578125.314453125-1.88427734375.1015625-3.716796875-.10546875-5.4951171875-.62890625-1.78076171875-.41796875-3.2724609375-1.255859375-4.474609375-2.51171875-1.20458984375-1.255859375-1.859375-3.244140625-1.96240234375-5.966796875,0-3.2421875.0517578125-6.958984375.1572265625-11.146484375.10302734375-4.18505859375.31396484375-8.73779296875.6279296875-13.65869140625.20849609375-4.08203125.54931640625-8.556640625,1.0205078125-13.423828125.470703125-4.8671875,1.150390625-9.8642578125,2.041015625-14.9931640625.8876953125-5.126953125,2.041015625-10.2568359375,3.45361328125-15.38671875,1.4130859375-5.126953125,3.19189453125-9.9931640625,5.33837890625-14.6005859375,2.14404296875-4.6044921875,4.68310546875-8.84375,7.6142578125-12.716796875,2.92919921875-3.87109375,6.43701171875-7.1162109375,10.51904296875-9.734375,4.81298828125-3.0341796875,10.099609375-4.552734375,15.85693359375-4.552734375,5.75537109375,0,11.19873046875,1.4130859375,16.328125,4.2392578125ZM80.6552734375,129.22021484375c6.59375-.5224609375,13.16064453125-.9150390625,19.703125-1.177734375,6.5400390625-.259765625,13.10986328125-.287109375,19.70361328125-.078125.31396484375-7.4306640625,0-14.076171875-.94189453125-19.939453125-.94189453125-5.8603515625-2.251953125-10.8056640625-3.9248046875-14.8359375-1.67578125-4.0283203125-3.6650390625-7.1162109375-5.96630859375-9.2626953125-2.30322265625-2.14453125-4.658203125-3.21875-7.06494140625-3.21875-2.0947265625,0-4.26611328125,1.07421875-6.515625,3.21875-2.251953125,2.146484375-4.34423828125,5.2861328125-6.27978515625,9.419921875-1.93798828125,4.1357421875-3.689453125,9.23828125-5.25927734375,15.306640625-1.5703125,6.072265625-2.72314453125,12.9287109375-3.4541015625,20.5673828125Z" fill="none" stroke="#000" stroke-linecap="round" stroke-linejoin="round" stroke-width="33"/>
            <path d="M214.10400390625,109.90966796875c3.2431640625,4.3955078125,5.44091796875,9.2109375,6.59375,14.443359375,1.15087890625,5.2353515625,1.28076171875,10.4404296875.392578125,15.6220703125-.890625,5.1806640625-2.6689453125,10.15380859375-5.337890625,14.91552734375-2.6689453125,4.763671875-6.20166015625,8.767578125-10.59765625,12.009765625-5.9658203125,4.396484375-12.037109375,6.830078125-18.2119140625,7.30078125-6.1767578125.470703125-12.03759765625-.8125-17.583984375-3.84765625-3.6650390625-1.8828125-6.80517578125-4.2890625-9.419921875-7.220703125-2.61767578125-2.9296875-4.03076171875-6.59375-4.2392578125-10.990234375-.10546875-2.40625.392578125-4.71044921875,1.49169921875-6.90869140625,1.09912109375-2.197265625,2.53662109375-3.9248046875,4.3173828125-5.1806640625,1.77880859375-1.255859375,3.71435546875-1.8564453125,5.80908203125-1.8056640625,2.0927734375.0546875,4.1337890625,1.1259765625,6.123046875,3.21875,1.46435546875,1.8837890625,3.3486328125,3.5322265625,5.65185546875,4.9453125,2.30126953125,1.4130859375,4.81298828125,1.859375,7.5361328125,1.3349609375,5.232421875-.8369140625,8.73828125-4.4482421875,10.51904296875-10.8330078125.4169921875-1.7783203125.57421875-3.6357421875.47119140625-5.57421875-.10546875-1.9345703125-.498046875-3.740234375-1.177734375-5.416015625-.68212890625-1.6728515625-1.70263671875-3.1650390625-3.0615234375-4.474609375-1.361328125-1.3076171875-3.14013671875-2.22265625-5.337890625-2.7470703125-3.037109375-.8369140625-6.2802734375-1.1240234375-9.73388671875-.8642578125-3.4541015625.2626953125-6.4912109375.8125-9.10595703125,1.6484375-.9423828125.2119140625-2.43359375.2626953125-4.474609375.1572265625-2.041015625-.1025390625-3.63818359375-.1572265625-4.78857421875-.1572265625-1.255859375-.1025390625-2.33056640625-.73046875-3.21875-1.8837890625-.89013671875-1.150390625-1.56982421875-2.51171875-2.041015625-4.08203125-.470703125-1.5693359375-.76025390625-3.1396484375-.86328125-4.7099609375-.10546875-1.5693359375.0517578125-2.9287109375.47119140625-4.08203125.31396484375-1.044921875.54931640625-3.0615234375.70654296875-6.0439453125.15673828125-2.9833984375.28662109375-6.33203125.39208984375-10.0478515625.10302734375-3.71484375.181640625-7.4580078125.23583984375-11.2255859375.05126953125-3.7685546875.1298828125-6.908203125.2353515625-9.419921875.10302734375-1.9873046875.392578125-3.3486328125.86328125-4.08203125.47119140625-.7314453125,1.177734375-1.1513671875,2.11962890625-1.2568359375.94189453125-.1025390625,2.0927734375-.0244140625,3.4541015625.236328125,1.35888671875.26171875,2.92919921875.4462890625,4.7099609375.548828125,7.22216796875.525390625,14.46875.890625,21.74462890625,1.099609375,7.2734375.2109375,14.73095703125.10546875,22.37255859375-.314453125,1.255859375-.1025390625,2.37939453125-.1025390625,3.37548828125,0,.9931640625.10546875,1.69970703125.2626953125,2.119140625.470703125.52294921875.314453125,1.0205078125.8125,1.49169921875,1.4921875.47119140625.681640625.8095703125,1.75390625,1.0205078125,3.2177734375.20849609375,1.884765625.287109375,3.92578125.2353515625,6.123046875-.0537109375,2.1982421875-.28955078125,4.2666015625-.70654296875,6.2021484375-.41943359375,1.9375-1.04736328125,3.6376953125-1.8837890625,5.1025390625-.8388671875,1.466796875-1.8837890625,2.3544921875-3.14013671875,2.6689453125-.6279296875.2109375-1.93798828125.3408203125-3.9248046875.392578125-1.98974609375.0537109375-4.39599609375.0263671875-7.22216796875-.0791015625-10.0478515625-.3134765625-20.095703125-1.255859375-30.14404296875-2.8251953125v9.576171875c8.7919921875-1.4638671875,16.82373046875-1.044921875,24.099609375,1.2568359375,7.2734375,2.302734375,13.1611328125,6.3330078125,17.66259765625,12.0888671875Z" fill="none" stroke="#000" stroke-linecap="round" stroke-linejoin="round" stroke-width="33"/>
          </g>
          <g>
            <path d="M118.80615234375,57.78564453125c3.9765625,2.302734375,7.37890625,5.12890625,10.205078125,8.4775390625,2.82568359375,3.3515625,5.20556640625,7.013671875,7.1435546875,10.990234375,1.935546875,3.978515625,3.478515625,8.1904296875,4.63134765625,12.638671875,1.150390625,4.44921875,2.041015625,8.923828125,2.6689453125,13.4228515625,1.46435546875,8.8974609375,2.30126953125,17.8984375,2.51220703125,27.00390625.20849609375,9.1064453125.05126953125,18.2666015625-.47119140625,27.47607421875-.2109375,2.6171875-.41943359375,4.763671875-.6279296875,6.435546875-.2109375,1.67578125-.603515625,3.037109375-1.177734375,4.08203125-.576171875,1.048828125-1.38818359375,1.884765625-2.43310546875,2.513671875-1.0478515625.626953125-2.51220703125,1.201171875-4.39599609375,1.7265625-1.78125.208984375-3.63818359375.365234375-5.57373046875.470703125-1.93798828125.103515625-3.74365234375-.419921875-5.41650390625-1.5703125-1.56982421875-1.044921875-2.8798828125-2.826171875-3.9248046875-5.337890625-1.0478515625-2.51171875-1.6240234375-6.123046875-1.72705078125-10.83203125v-1.5703125c-2.61767578125-.314453125-5.73046875-.57421875-9.341796875-.78515625-3.61083984375-.208984375-7.30029296875-.33984375-11.068359375-.392578125s-7.40576171875-.078125-10.91162109375-.078125h-8.8701171875c-.10546875.94140625-.23583984375,2.51171875-.392578125,4.708984375-.1572265625,2.19921875-.498046875,4.396484375-1.0205078125,6.59375-.52490234375,2.19921875-1.2314453125,4.1875-2.11962890625,5.966796875-.890625,1.78125-2.11962890625,2.720703125-3.689453125,2.826171875-1.466796875.103515625-3.14013671875.208984375-5.02392578125.314453125-1.88427734375.1015625-3.716796875-.10546875-5.4951171875-.62890625-1.78076171875-.41796875-3.2724609375-1.255859375-4.474609375-2.51171875-1.20458984375-1.255859375-1.859375-3.244140625-1.96240234375-5.966796875,0-3.2421875.0517578125-6.958984375.1572265625-11.146484375.10302734375-4.18505859375.31396484375-8.73779296875.6279296875-13.65869140625.20849609375-4.08203125.54931640625-8.556640625,1.0205078125-13.423828125.470703125-4.8671875,1.150390625-9.8642578125,2.041015625-14.9931640625.8876953125-5.126953125,2.041015625-10.2568359375,3.45361328125-15.38671875,1.4130859375-5.126953125,3.19189453125-9.9931640625,5.33837890625-14.6005859375,2.14404296875-4.6044921875,4.68310546875-8.84375,7.6142578125-12.716796875,2.92919921875-3.87109375,6.43701171875-7.1162109375,10.51904296875-9.734375,4.81298828125-3.0341796875,10.099609375-4.552734375,15.85693359375-4.552734375,5.75537109375,0,11.19873046875,1.4130859375,16.328125,4.2392578125ZM80.6552734375,129.22021484375c6.59375-.5224609375,13.16064453125-.9150390625,19.703125-1.177734375,6.5400390625-.259765625,13.10986328125-.287109375,19.70361328125-.078125.31396484375-7.4306640625,0-14.076171875-.94189453125-19.939453125-.94189453125-5.8603515625-2.251953125-10.8056640625-3.9248046875-14.8359375-1.67578125-4.0283203125-3.6650390625-7.1162109375-5.96630859375-9.2626953125-2.30322265625-2.14453125-4.658203125-3.21875-7.06494140625-3.21875-2.0947265625,0-4.26611328125,1.07421875-6.515625,3.21875-2.251953125,2.146484375-4.34423828125,5.2861328125-6.27978515625,9.419921875-1.93798828125,4.1357421875-3.689453125,9.23828125-5.25927734375,15.306640625-1.5703125,6.072265625-2.72314453125,12.9287109375-3.4541015625,20.5673828125Z" fill="#fbf9f9" stroke-width="0"/>
            <path d="M214.10400390625,109.90966796875c3.2431640625,4.3955078125,5.44091796875,9.2109375,6.59375,14.443359375,1.15087890625,5.2353515625,1.28076171875,10.4404296875.392578125,15.6220703125-.890625,5.1806640625-2.6689453125,10.15380859375-5.337890625,14.91552734375-2.6689453125,4.763671875-6.20166015625,8.767578125-10.59765625,12.009765625-5.9658203125,4.396484375-12.037109375,6.830078125-18.2119140625,7.30078125-6.1767578125.470703125-12.03759765625-.8125-17.583984375-3.84765625-3.6650390625-1.8828125-6.80517578125-4.2890625-9.419921875-7.220703125-2.61767578125-2.9296875-4.03076171875-6.59375-4.2392578125-10.990234375-.10546875-2.40625.392578125-4.71044921875,1.49169921875-6.90869140625,1.09912109375-2.197265625,2.53662109375-3.9248046875,4.3173828125-5.1806640625,1.77880859375-1.255859375,3.71435546875-1.8564453125,5.80908203125-1.8056640625,2.0927734375.0546875,4.1337890625,1.1259765625,6.123046875,3.21875,1.46435546875,1.8837890625,3.3486328125,3.5322265625,5.65185546875,4.9453125,2.30126953125,1.4130859375,4.81298828125,1.859375,7.5361328125,1.3349609375,5.232421875-.8369140625,8.73828125-4.4482421875,10.51904296875-10.8330078125.4169921875-1.7783203125.57421875-3.6357421875.47119140625-5.57421875-.10546875-1.9345703125-.498046875-3.740234375-1.177734375-5.416015625-.68212890625-1.6728515625-1.70263671875-3.1650390625-3.0615234375-4.474609375-1.361328125-1.3076171875-3.14013671875-2.22265625-5.337890625-2.7470703125-3.037109375-.8369140625-6.2802734375-1.1240234375-9.73388671875-.8642578125-3.4541015625.2626953125-6.4912109375.8125-9.10595703125,1.6484375-.9423828125.2119140625-2.43359375.2626953125-4.474609375.1572265625-2.041015625-.1025390625-3.63818359375-.1572265625-4.78857421875-.1572265625-1.255859375-.1025390625-2.33056640625-.73046875-3.21875-1.8837890625-.89013671875-1.150390625-1.56982421875-2.51171875-2.041015625-4.08203125-.470703125-1.5693359375-.76025390625-3.1396484375-.86328125-4.7099609375-.10546875-1.5693359375.0517578125-2.9287109375.47119140625-4.08203125.31396484375-1.044921875.54931640625-3.0615234375.70654296875-6.0439453125.15673828125-2.9833984375.28662109375-6.33203125.39208984375-10.0478515625.10302734375-3.71484375.181640625-7.4580078125.23583984375-11.2255859375.05126953125-3.7685546875.1298828125-6.908203125.2353515625-9.419921875.10302734375-1.9873046875.392578125-3.3486328125.86328125-4.08203125.47119140625-.7314453125,1.177734375-1.1513671875,2.11962890625-1.2568359375.94189453125-.1025390625,2.0927734375-.0244140625,3.4541015625.236328125,1.35888671875.26171875,2.92919921875.4462890625,4.7099609375.548828125,7.22216796875.525390625,14.46875.890625,21.74462890625,1.099609375,7.2734375.2109375,14.73095703125.10546875,22.37255859375-.314453125,1.255859375-.1025390625,2.37939453125-.1025390625,3.37548828125,0,.9931640625.10546875,1.69970703125.2626953125,2.119140625.470703125.52294921875.314453125,1.0205078125.8125,1.49169921875,1.4921875.47119140625.681640625.8095703125,1.75390625,1.0205078125,3.2177734375.20849609375,1.884765625.287109375,3.92578125.2353515625,6.123046875-.0537109375,2.1982421875-.28955078125,4.2666015625-.70654296875,6.2021484375-.41943359375,1.9375-1.04736328125,3.6376953125-1.8837890625,5.1025390625-.8388671875,1.466796875-1.8837890625,2.3544921875-3.14013671875,2.6689453125-.6279296875.2109375-1.93798828125.3408203125-3.9248046875.392578125-1.98974609375.0537109375-4.39599609375.0263671875-7.22216796875-.0791015625-10.0478515625-.3134765625-20.095703125-1.255859375-30.14404296875-2.8251953125v9.576171875c8.7919921875-1.4638671875,16.82373046875-1.044921875,24.099609375,1.2568359375,7.2734375,2.302734375,13.1611328125,6.3330078125,17.66259765625,12.0888671875Z" fill="#fbf9f9" stroke-width="0"/>
          </g>
        </g>
      </a>
    </g>
  </a>
</svg>