<?xml version="1.0" encoding="UTF-8"?>
<svg id="Pattern" xmlns="http://www.w3.org/2000/svg" xmlns:xlink="http://www.w3.org/1999/xlink" viewBox="0 0 280 280">
  <defs>
    <linearGradient id="B3-3" data-name="B3" x1="117.779492019986719" y1="223.166886510993209" x2="160.970298578595589" y2="163.247246426171216" gradientUnits="userSpaceOnUse">
      <stop offset="0" stop-color="#008693"/>
      <stop offset=".5" stop-color="#008c8d"/>
      <stop offset="1" stop-color="#008f82"/>
    </linearGradient>
  </defs>
  <a xlink:href="https://www.notion.so/dmmnotes/B3-e76dc615a8b947aa915377cd02fcf716?pvs=4#7be300007d3d476f91f22034c8a9d783">
    <g id="B3">
      <a xlink:href="https://www.notion.so/dmmnotes/B3-e76dc615a8b947aa915377cd02fcf716?pvs=4#7be300007d3d476f91f22034c8a9d783">
        <g id="B3-2" data-name="B3">
          <path d="M140,259.388671875c-36.970703125,0-67.048828125-30.078125-67.048828125-67.048828125s30.078125-67.048828125,67.048828125-67.048828125,67.048828125,30.078125,67.048828125,67.048828125-30.078125,67.048828125-67.048828125,67.048828125Z" fill="url(#B3-3)" stroke-width="0"/>
          <path d="M140,133.791000366210938c32.335540771484375,0,58.548736572265625,26.213165283203125,58.548736572265625,58.548721313476562s-26.21319580078125,58.548721313476562-58.548736572265625,58.548721313476562-58.548736572265625-26.213165283203125-58.548736572265625-58.548721313476562,26.21319580078125-58.548721313476562,58.548736572265625-58.548721313476562M140,116.791000366210938c-41.65771484375,0-75.548736572265625,33.891006469726562-75.548736572265625,75.548721313476562s33.891021728515625,75.548736572265625,75.548736572265625,75.548736572265625,75.548736572265625-33.891021728515625,75.548736572265625-75.548736572265625-33.891021728515625-75.548721313476562-75.548736572265625-75.548721313476562h0Z" fill="#000" stroke-width="0"/>
        </g>
      </a>
      <a xlink:href="https://www.notion.so/dmmnotes/B3-e76dc615a8b947aa915377cd02fcf716?pvs=4#7be300007d3d476f91f22034c8a9d783">
        <g>
          <g>
            <path d="M130.10986328125,111.4794921875c4.6044921875,3.5595703125,8.03173828125,7.982421875,10.28369140625,13.2666015625,2.24951171875,5.287109375,2.9560546875,10.7548828125,2.119140625,16.40625-.94189453125,6.3857421875-3.45361328125,11.7509765625-7.53564453125,16.0927734375-4.08203125,4.3447265625-8.8974609375,7.771484375-14.4443359375,10.283203125-5.548828125,2.5126953125-11.53955078125,4.1875-17.9765625,5.0244140625-6.4365234375.8369140625-12.4814453125.9423828125-18.13330078125.314453125-.52490234375.2080078125-.99609375.337890625-1.4130859375.392578125-.41943359375.05078125-.89013671875.1298828125-1.4130859375.2353515625-1.8837890625.1025390625-3.82177734375.1025390625-5.80859375,0-1.98974609375-.10546875-3.79541015625-.447265625-5.41650390625-1.0205078125-1.6240234375-.57421875-3.01025390625-1.5166015625-4.16064453125-2.826171875-1.15283203125-1.3076171875-1.83251953125-3.1650390625-2.041015625-5.5732421875-.2109375-1.1513671875-.2626953125-3.478515625-.1572265625-6.9873046875.10302734375-3.5048828125.20849609375-7.771484375.31396484375-12.794921875.208984375-5.126953125.392578125-10.701171875.5498046875-16.720703125.15673828125-6.017578125.287109375-12.0615234375.392578125-18.1337890625.10302734375-7.953125.20849609375-15.9599609375.31396484375-24.0205078125.10302734375-8.05859375-.2109375-16.1708984375-.94189453125-24.3349609375-.21142578125-.9423828125-.10546875-1.7783203125.31396484375-2.51171875.20849609375-.62890625.67919921875-1.2294921875,1.41259765625-1.8056640625.7314453125-.57421875,1.830078125-.966796875,3.29736328125-1.177734375,1.044921875-.103515625,2.19775390625-.259765625,3.45361328125-.470703125,1.25634765625-.208984375,2.56396484375-.3662109375,3.92529296875-.4716796875,1.35888671875-.1025390625,2.6689453125-.1025390625,3.9248046875,0,1.25634765625.10546875,2.35498046875.314453125,3.29736328125.6279296875,5.337890625-.73046875,10.93603515625-.7578125,16.798828125-.078125,5.8603515625.681640625,11.38232421875,2.068359375,16.5634765625,4.16015625,5.18115234375,2.095703125,9.68017578125,4.89453125,13.501953125,8.3994140625,3.8193359375,3.5087890625,6.3583984375,7.771484375,7.61474609375,12.7958984375.5224609375,2.1982421875.83642578125,4.501953125.94189453125,6.908203125.10302734375,2.4091796875-.1572265625,4.8935546875-.78515625,7.45703125-.6279296875,2.56640625-1.6484375,5.2353515625-3.0615234375,8.0068359375-1.4130859375,2.775390625-3.32373046875,5.6279296875-5.73046875,8.556640625ZM89.2900390625,102.216796875c5.02392578125.2109375,9.2626953125-.314453125,12.716796875-1.5703125s6.04443359375-2.904296875,7.771484375-4.9453125,2.5634765625-4.263671875,2.51220703125-6.6728515625c-.05419921875-2.40625-.96923828125-4.552734375-2.74755859375-6.4365234375-1.78125-1.8837890625-4.4501953125-3.3212890625-8.0068359375-4.3173828125-3.5595703125-.9931640625-8.06103515625-1.1240234375-13.50244140625-.392578125.31396484375,4.08203125.5498046875,8.1123046875.70654296875,12.0888671875.1572265625,3.9794921875.3388671875,8.0615234375.5498046875,12.24609375ZM89.7607421875,147.7470703125c5.65234375.6279296875,10.41357421875.3681640625,14.287109375-.78515625,3.87109375-1.150390625,6.775390625-2.720703125,8.71337890625-4.7099609375,1.935546875-1.9873046875,2.92919921875-4.1337890625,2.9833984375-6.4375.05126953125-2.30078125-.86376953125-4.2900390625-2.74755859375-5.9658203125-1.88427734375-1.6728515625-4.76416015625-2.798828125-8.63525390625-3.375-3.87353515625-.57421875-8.740234375-.181640625-14.60107421875,1.1767578125v20.0966796875Z" fill="none" stroke="#000" stroke-miterlimit="10" stroke-width="33"/>
            <path d="M206.56884765625,112.421875c3.03466796875,3.6650390625,5.41650390625,8.0849609375,7.1435546875,13.2666015625,1.72705078125,5.1806640625,2.328125,10.283203125,1.8056640625,15.3076171875-.419921875,3.873046875-1.5703125,7.7197265625-3.4541015625,11.5390625-1.88427734375,3.822265625-4.29296875,7.2216796875-7.22216796875,10.205078125-2.931640625,2.9833984375-6.30712890625,5.3916015625-10.12646484375,7.2216796875-3.82177734375,1.8330078125-7.9287109375,2.748046875-12.32470703125,2.748046875-2.72265625,0-5.49462890625-.2900390625-8.32080078125-.86328125-2.826171875-.57421875-5.5732421875-1.38671875-8.24267578125-2.43359375-2.6689453125-1.044921875-5.15625-2.4072265625-7.45751953125-4.08203125-2.30322265625-1.6728515625-4.1875-3.611328125-5.65185546875-5.8095703125-1.56982421875-2.197265625-2.041015625-4.6044921875-1.4130859375-7.2216796875.6279296875-2.9287109375,1.85693359375-5.4677734375,3.689453125-7.6142578125,1.830078125-2.14453125,3.53271484375-3.8984375,5.1025390625-5.259765625.8369140625-.6279296875,1.88427734375-1.044921875,3.14013671875-1.255859375,1.255859375-.208984375,2.4580078125.3134765625,3.61083984375,1.5703125,1.88427734375,2.197265625,3.92529296875,3.951171875,6.123046875,5.2587890625,2.1982421875,1.310546875,4.369140625,2.041015625,6.515625,2.1982421875,2.14404296875.1572265625,4.18505859375-.3134765625,6.123046875-1.4130859375,1.935546875-1.0986328125,3.583984375-2.904296875,4.9453125-5.416015625.73095703125-1.46484375,1.15087890625-3.03515625,1.25634765625-4.7099609375.10302734375-1.673828125-.2109375-3.21875-.9423828125-4.6318359375-.7333984375-1.4130859375-1.93798828125-2.615234375-3.61083984375-3.611328125-1.67529296875-.9931640625-3.87353515625-1.5947265625-6.59375-1.8056640625-.21142578125.10546875-.3681640625.1328125-.47119140625.0791015625-.10546875-.0517578125-.2109375-.0791015625-.31396484375-.0791015625h-.31396484375c-.10546875.10546875-.2109375.1572265625-.31396484375.1572265625h-.6279296875c-.31396484375-.1025390625-.6552734375-.181640625-1.0205078125-.2353515625-.3681640625-.0517578125-.6552734375-.181640625-.86376953125-.392578125-1.15283203125-.3134765625-1.93798828125-1.255859375-2.35498046875-2.826171875-.41943359375-1.5693359375-.65478515625-3.296875-.70654296875-5.1806640625-.0537109375-1.8837890625.0244140625-3.7412109375.23583984375-5.5732421875.20849609375-1.830078125.470703125-3.1650390625.78466796875-4.00390625.4169921875-1.150390625.94189453125-2.119140625,1.5703125-2.904296875.6279296875-.78515625,1.35888671875-1.177734375,2.19775390625-1.177734375,2.615234375,0,4.91845703125-.8359375,6.908203125-2.51171875,1.98681640625-1.6728515625,3.39990234375-3.5576171875,4.23876953125-5.65234375.83642578125-2.0927734375.966796875-4.0546875.392578125-5.8876953125-.57666015625-1.830078125-2.17333984375-2.8505859375-4.78857421875-3.0615234375-1.78076171875-.2080078125-3.689453125.341796875-5.73046875,1.6494140625-2.041015625,1.3095703125-3.74365234375,3.3232421875-5.1025390625,6.0439453125-.52490234375,1.0478515625-.94189453125,2.068359375-1.255859375,3.0615234375-.31396484375.99609375-1.09912109375,1.75390625-2.35498046875,2.2763671875-1.04736328125.419921875-2.041015625.6279296875-2.98291015625.6279296875-3.037109375,0-5.94189453125-.8876953125-8.7138671875-2.6689453125-2.7744140625-1.7783203125-4.63134765625-4.2900390625-5.5732421875-7.5361328125-.41943359375-1.986328125-.3681640625-3.9248046875.15673828125-5.80859375.5224609375-1.8837890625,1.3076171875-3.7138671875,2.35498046875-5.4951171875,1.77880859375-2.9287109375,4.0283203125-5.4951171875,6.7509765625-7.693359375,2.720703125-2.197265625,5.73095703125-3.94921875,9.02783203125-5.2587890625,3.296875-1.3076171875,6.80224609375-2.1201171875,10.51904296875-2.43359375,3.7138671875-.314453125,7.45751953125,0,11.2255859375.94140625,4.7099609375,1.1533203125,8.58056640625,3.32421875,11.61767578125,6.515625,3.03466796875,3.1943359375,5.154296875,6.986328125,6.3583984375,11.3828125,1.2021484375,4.3955078125,1.4130859375,9.2109375.62841796875,14.4443359375-.78515625,5.234375-2.64453125,10.572265625-5.57373046875,16.013671875Z" fill="none" stroke="#000" stroke-miterlimit="10" stroke-width="33"/>
          </g>
          <g>
            <path d="M130.10986328125,111.4794921875c4.6044921875,3.5595703125,8.03173828125,7.982421875,10.28369140625,13.2666015625,2.24951171875,5.287109375,2.9560546875,10.7548828125,2.119140625,16.40625-.94189453125,6.3857421875-3.45361328125,11.7509765625-7.53564453125,16.0927734375-4.08203125,4.3447265625-8.8974609375,7.771484375-14.4443359375,10.283203125-5.548828125,2.5126953125-11.53955078125,4.1875-17.9765625,5.0244140625-6.4365234375.8369140625-12.4814453125.9423828125-18.13330078125.314453125-.52490234375.2080078125-.99609375.337890625-1.4130859375.392578125-.41943359375.05078125-.89013671875.1298828125-1.4130859375.2353515625-1.8837890625.1025390625-3.82177734375.1025390625-5.80859375,0-1.98974609375-.10546875-3.79541015625-.447265625-5.41650390625-1.0205078125-1.6240234375-.57421875-3.01025390625-1.5166015625-4.16064453125-2.826171875-1.15283203125-1.3076171875-1.83251953125-3.1650390625-2.041015625-5.5732421875-.2109375-1.1513671875-.2626953125-3.478515625-.1572265625-6.9873046875.10302734375-3.5048828125.20849609375-7.771484375.31396484375-12.794921875.208984375-5.126953125.392578125-10.701171875.5498046875-16.720703125.15673828125-6.017578125.287109375-12.0615234375.392578125-18.1337890625.10302734375-7.953125.20849609375-15.9599609375.31396484375-24.0205078125.10302734375-8.05859375-.2109375-16.1708984375-.94189453125-24.3349609375-.21142578125-.9423828125-.10546875-1.7783203125.31396484375-2.51171875.20849609375-.62890625.67919921875-1.2294921875,1.41259765625-1.8056640625.7314453125-.57421875,1.830078125-.966796875,3.29736328125-1.177734375,1.044921875-.103515625,2.19775390625-.259765625,3.45361328125-.470703125,1.25634765625-.208984375,2.56396484375-.3662109375,3.92529296875-.4716796875,1.35888671875-.1025390625,2.6689453125-.1025390625,3.9248046875,0,1.25634765625.10546875,2.35498046875.314453125,3.29736328125.6279296875,5.337890625-.73046875,10.93603515625-.7578125,16.798828125-.078125,5.8603515625.681640625,11.38232421875,2.068359375,16.5634765625,4.16015625,5.18115234375,2.095703125,9.68017578125,4.89453125,13.501953125,8.3994140625,3.8193359375,3.5087890625,6.3583984375,7.771484375,7.61474609375,12.7958984375.5224609375,2.1982421875.83642578125,4.501953125.94189453125,6.908203125.10302734375,2.4091796875-.1572265625,4.8935546875-.78515625,7.45703125-.6279296875,2.56640625-1.6484375,5.2353515625-3.0615234375,8.0068359375-1.4130859375,2.775390625-3.32373046875,5.6279296875-5.73046875,8.556640625ZM89.2900390625,102.216796875c5.02392578125.2109375,9.2626953125-.314453125,12.716796875-1.5703125s6.04443359375-2.904296875,7.771484375-4.9453125,2.5634765625-4.263671875,2.51220703125-6.6728515625c-.05419921875-2.40625-.96923828125-4.552734375-2.74755859375-6.4365234375-1.78125-1.8837890625-4.4501953125-3.3212890625-8.0068359375-4.3173828125-3.5595703125-.9931640625-8.06103515625-1.1240234375-13.50244140625-.392578125.31396484375,4.08203125.5498046875,8.1123046875.70654296875,12.0888671875.1572265625,3.9794921875.3388671875,8.0615234375.5498046875,12.24609375ZM89.7607421875,147.7470703125c5.65234375.6279296875,10.41357421875.3681640625,14.287109375-.78515625,3.87109375-1.150390625,6.775390625-2.720703125,8.71337890625-4.7099609375,1.935546875-1.9873046875,2.92919921875-4.1337890625,2.9833984375-6.4375.05126953125-2.30078125-.86376953125-4.2900390625-2.74755859375-5.9658203125-1.88427734375-1.6728515625-4.76416015625-2.798828125-8.63525390625-3.375-3.87353515625-.57421875-8.740234375-.181640625-14.60107421875,1.1767578125v20.0966796875Z" fill="#fff" stroke-width="0"/>
            <path d="M206.56884765625,112.421875c3.03466796875,3.6650390625,5.41650390625,8.0849609375,7.1435546875,13.2666015625,1.72705078125,5.1806640625,2.328125,10.283203125,1.8056640625,15.3076171875-.419921875,3.873046875-1.5703125,7.7197265625-3.4541015625,11.5390625-1.88427734375,3.822265625-4.29296875,7.2216796875-7.22216796875,10.205078125-2.931640625,2.9833984375-6.30712890625,5.3916015625-10.12646484375,7.2216796875-3.82177734375,1.8330078125-7.9287109375,2.748046875-12.32470703125,2.748046875-2.72265625,0-5.49462890625-.2900390625-8.32080078125-.86328125-2.826171875-.57421875-5.5732421875-1.38671875-8.24267578125-2.43359375-2.6689453125-1.044921875-5.15625-2.4072265625-7.45751953125-4.08203125-2.30322265625-1.6728515625-4.1875-3.611328125-5.65185546875-5.8095703125-1.56982421875-2.197265625-2.041015625-4.6044921875-1.4130859375-7.2216796875.6279296875-2.9287109375,1.85693359375-5.4677734375,3.689453125-7.6142578125,1.830078125-2.14453125,3.53271484375-3.8984375,5.1025390625-5.259765625.8369140625-.6279296875,1.88427734375-1.044921875,3.14013671875-1.255859375,1.255859375-.208984375,2.4580078125.3134765625,3.61083984375,1.5703125,1.88427734375,2.197265625,3.92529296875,3.951171875,6.123046875,5.2587890625,2.1982421875,1.310546875,4.369140625,2.041015625,6.515625,2.1982421875,2.14404296875.1572265625,4.18505859375-.3134765625,6.123046875-1.4130859375,1.935546875-1.0986328125,3.583984375-2.904296875,4.9453125-5.416015625.73095703125-1.46484375,1.15087890625-3.03515625,1.25634765625-4.7099609375.10302734375-1.673828125-.2109375-3.21875-.9423828125-4.6318359375-.7333984375-1.4130859375-1.93798828125-2.615234375-3.61083984375-3.611328125-1.67529296875-.9931640625-3.87353515625-1.5947265625-6.59375-1.8056640625-.21142578125.10546875-.3681640625.1328125-.47119140625.0791015625-.10546875-.0517578125-.2109375-.0791015625-.31396484375-.0791015625h-.31396484375c-.10546875.10546875-.2109375.1572265625-.31396484375.1572265625h-.6279296875c-.31396484375-.1025390625-.6552734375-.181640625-1.0205078125-.2353515625-.3681640625-.0517578125-.6552734375-.181640625-.86376953125-.392578125-1.15283203125-.3134765625-1.93798828125-1.255859375-2.35498046875-2.826171875-.41943359375-1.5693359375-.65478515625-3.296875-.70654296875-5.1806640625-.0537109375-1.8837890625.0244140625-3.7412109375.23583984375-5.5732421875.20849609375-1.830078125.470703125-3.1650390625.78466796875-4.00390625.4169921875-1.150390625.94189453125-2.119140625,1.5703125-2.904296875.6279296875-.78515625,1.35888671875-1.177734375,2.19775390625-1.177734375,2.615234375,0,4.91845703125-.8359375,6.908203125-2.51171875,1.98681640625-1.6728515625,3.39990234375-3.5576171875,4.23876953125-5.65234375.83642578125-2.0927734375.966796875-4.0546875.392578125-5.8876953125-.57666015625-1.830078125-2.17333984375-2.8505859375-4.78857421875-3.0615234375-1.78076171875-.2080078125-3.689453125.341796875-5.73046875,1.6494140625-2.041015625,1.3095703125-3.74365234375,3.3232421875-5.1025390625,6.0439453125-.52490234375,1.0478515625-.94189453125,2.068359375-1.255859375,3.0615234375-.31396484375.99609375-1.09912109375,1.75390625-2.35498046875,2.2763671875-1.04736328125.419921875-2.041015625.6279296875-2.98291015625.6279296875-3.037109375,0-5.94189453125-.8876953125-8.7138671875-2.6689453125-2.7744140625-1.7783203125-4.63134765625-4.2900390625-5.5732421875-7.5361328125-.41943359375-1.986328125-.3681640625-3.9248046875.15673828125-5.80859375.5224609375-1.8837890625,1.3076171875-3.7138671875,2.35498046875-5.4951171875,1.77880859375-2.9287109375,4.0283203125-5.4951171875,6.7509765625-7.693359375,2.720703125-2.197265625,5.73095703125-3.94921875,9.02783203125-5.2587890625,3.296875-1.3076171875,6.80224609375-2.1201171875,10.51904296875-2.43359375,3.7138671875-.314453125,7.45751953125,0,11.2255859375.94140625,4.7099609375,1.1533203125,8.58056640625,3.32421875,11.61767578125,6.515625,3.03466796875,3.1943359375,5.154296875,6.986328125,6.3583984375,11.3828125,1.2021484375,4.3955078125,1.4130859375,9.2109375.62841796875,14.4443359375-.78515625,5.234375-2.64453125,10.572265625-5.57373046875,16.013671875Z" fill="#fff" stroke-width="0"/>
          </g>
        </g>
      </a>
    </g>
  </a>
</svg>