<?xml version="1.0" encoding="UTF-8"?>
<svg id="Pattern" xmlns="http://www.w3.org/2000/svg" xmlns:xlink="http://www.w3.org/1999/xlink" viewBox="0 0 280 280">
  <defs>
    <linearGradient id="B4" x1="114.735457900001165" y1="223.030260370900578" x2="160.046156270586806" y2="167.988405303282519" gradientUnits="userSpaceOnUse">
      <stop offset="0" stop-color="#008c8d"/>
      <stop offset=".5" stop-color="#008f82"/>
      <stop offset="1" stop-color="#1f9276"/>
    </linearGradient>
  </defs>
  <a xlink:href="https://www.notion.so/dmmnotes/B5-8b40401a720c493ba73f7cde1567cf3d?pvs=4#a11cc441cb204c82a43dfc3e3b7e8747">
    <g id="B5">
      <g id="B5-2" data-name="B5">
        <path d="M140.05419921875,259.3974609375c-23.908203125,0-46.17822265625-12.849609375-58.1201171875-33.533203125-8.95458984375-15.509765625-11.33349609375-33.5791015625-6.6982421875-50.8779296875s15.72998046875-31.7578125,31.23974609375-40.71240234375c10.189453125-5.8828125,21.76318359375-8.99267578125,33.4697265625-8.99267578125,23.908203125,0,46.1787109375,12.849609375,58.12060546875,33.5341796875,8.95458984375,15.509765625,11.33349609375,33.578125,6.69775390625,50.8779296875-4.634765625,17.298828125-15.7294921875,31.7578125-31.2392578125,40.7119140625-10.18896484375,5.8828125-21.76318359375,8.9921875-33.4677734375,8.9921875h-.00244140625Z" fill="url(#B4)" stroke-width="0"/>
        <path d="M139.9453125,133.781219482421875c20.2337646484375,0,39.91534423828125,10.501815795898438,50.75933837890625,29.284133911132812,16.16778564453125,28.00341796875,6.5731201171875,63.811233520507812-21.4302978515625,79.97906494140625-9.2210693359375,5.32379150390625-19.2860107421875,7.853790283203125-29.21966552734375,7.853790283203125-20.23370361328125,0-39.91534423828125-10.5018310546875-50.75933837890625-29.284149169921875-16.16778564453125-28.00341796875-6.5731201171875-63.811233520507812,21.4302978515625-79.97900390625,9.2210693359375-5.323806762695312,19.2860107421875-7.853836059570312,29.21966552734375-7.853836059570312M139.94537353515625,116.781234741210938c-13.1964111328125,0-26.23968505859375,3.50335693359375-37.7197265625,10.13140869140625-17.47625732421875,10.089889526367188-29.9771728515625,26.38140869140625-35.2000732421875,45.8736572265625-5.222900390625,19.492172241210938-2.54254150390625,39.851516723632812,7.54736328125,57.3277587890625,13.45574951171875,23.306121826171875,38.546875,37.784164428710938,65.48175048828125,37.784164428710938,13.19635009765625,0,26.2396240234375-3.503326416015625,37.71966552734375-10.13140869140625,36.07659912109375-20.828872680664062,48.48150634765625-67.1248779296875,27.6527099609375-103.201461791992188-13.4556884765625-23.306060791015625-38.546875-37.78411865234375-65.481689453125-37.78411865234375h0Z" fill="#000" stroke-width="0"/>
      </g>
      <a xlink:href="https://www.notion.so/dmmnotes/B5-8b40401a720c493ba73f7cde1567cf3d?pvs=4#a11cc441cb204c82a43dfc3e3b7e8747">
        <g>
          <g>
            <path d="M124.30029296875,111.47900390625c4.6044921875,3.5595703125,8.03173828125,7.982421875,10.28369140625,13.2666015625,2.24951171875,5.287109375,2.9560546875,10.7548828125,2.119140625,16.40625-.94189453125,6.3857421875-3.45361328125,11.75146484375-7.53564453125,16.09326171875-4.08203125,4.3447265625-8.8974609375,7.771484375-14.4443359375,10.283203125-5.548828125,2.5126953125-11.53955078125,4.1875-17.9765625,5.0244140625-6.4365234375.8369140625-12.4814453125.9423828125-18.13330078125.314453125-.52490234375.2080078125-.99609375.337890625-1.4130859375.392578125-.41943359375.05078125-.89013671875.1298828125-1.4130859375.2353515625-1.8837890625.1025390625-3.82177734375.1025390625-5.80859375,0-1.98974609375-.10546875-3.79541015625-.447265625-5.41650390625-1.0205078125-1.6240234375-.57421875-3.01025390625-1.5166015625-4.16064453125-2.826171875-1.15283203125-1.3076171875-1.83251953125-3.1650390625-2.041015625-5.5732421875-.2109375-1.1513671875-.2626953125-3.478515625-.1572265625-6.9873046875.10302734375-3.5048828125.20849609375-7.771484375.31396484375-12.79541015625.208984375-5.126953125.392578125-10.701171875.5498046875-16.720703125.15673828125-6.017578125.287109375-12.0615234375.392578125-18.1337890625.10302734375-7.953125.20849609375-15.9599609375.31396484375-24.0205078125.10302734375-8.05859375-.2109375-16.1708984375-.94189453125-24.3349609375-.21142578125-.9423828125-.10546875-1.7783203125.31396484375-2.51171875.20849609375-.62890625.67919921875-1.2294921875,1.41259765625-1.8056640625.7314453125-.57421875,1.830078125-.966796875,3.29736328125-1.177734375,1.044921875-.103515625,2.19775390625-.259765625,3.45361328125-.470703125,1.25634765625-.208984375,2.56396484375-.3662109375,3.92529296875-.4716796875,1.35888671875-.1025390625,2.6689453125-.1025390625,3.9248046875,0,1.25634765625.10546875,2.35498046875.314453125,3.29736328125.6279296875,5.337890625-.73046875,10.93603515625-.7578125,16.798828125-.078125,5.8603515625.681640625,11.38232421875,2.068359375,16.5634765625,4.16015625,5.18115234375,2.095703125,9.68017578125,4.89453125,13.501953125,8.3994140625,3.8193359375,3.5087890625,6.3583984375,7.771484375,7.61474609375,12.7958984375.5224609375,2.1982421875.83642578125,4.501953125.94189453125,6.908203125.10302734375,2.4091796875-.1572265625,4.8935546875-.78515625,7.45703125-.6279296875,2.56640625-1.6484375,5.2353515625-3.0615234375,8.0068359375-1.4130859375,2.775390625-3.32373046875,5.6279296875-5.73046875,8.556640625ZM83.48046875,102.21630859375c5.02392578125.2109375,9.2626953125-.314453125,12.716796875-1.5703125s6.04443359375-2.904296875,7.771484375-4.9453125,2.5634765625-4.263671875,2.51220703125-6.6728515625c-.05419921875-2.40625-.96923828125-4.552734375-2.74755859375-6.4365234375-1.78125-1.8837890625-4.4501953125-3.3212890625-8.0068359375-4.3173828125-3.5595703125-.9931640625-8.06103515625-1.1240234375-13.50244140625-.392578125.31396484375,4.08203125.5498046875,8.1123046875.70654296875,12.0888671875.1572265625,3.9794921875.3388671875,8.0615234375.5498046875,12.24609375ZM83.951171875,147.74658203125c5.65234375.6279296875,10.41357421875.3681640625,14.287109375-.78515625,3.87109375-1.150390625,6.775390625-2.720703125,8.71337890625-4.7099609375,1.935546875-1.9873046875,2.92919921875-4.1337890625,2.9833984375-6.4375.05126953125-2.30078125-.86376953125-4.2900390625-2.74755859375-5.9658203125-1.88427734375-1.6728515625-4.76416015625-2.798828125-8.63525390625-3.375-3.87353515625-.57421875-8.740234375-.181640625-14.60107421875,1.1767578125v20.0966796875Z" fill="none" stroke="#000" stroke-linecap="round" stroke-linejoin="round" stroke-width="33"/>
            <path d="M220.0703125,165.48828125c-.2109375,1.15234375-.576171875,2.251953125-1.099609375,3.296875-.5244140625.8388671875-1.3095703125,1.6240234375-2.3544921875,2.3544921875-1.0478515625.7333984375-2.4599609375,1.2021484375-4.2392578125,1.4130859375-1.78125.208984375-3.6376953125.3388671875-5.5732421875.392578125-1.9384765625.0517578125-3.7431640625-.1328125-5.4169921875-.5498046875-1.6748046875-.4189453125-3.1396484375-1.1767578125-4.3955078125-2.2763671875-1.255859375-1.0986328125-2.041015625-2.7470703125-2.35498046875-4.9453125-.2109375-1.150390625-.31396484375-3.505859375-.31396484375-7.0654296875,0-3.556640625.0517578125-7.9521484375.1572265625-13.18798828125-7.22216796875,0-14.47119140625-.1298828125-21.74462890625-.392578125-7.27587890625-.259765625-14.6796875-.4951171875-22.2158203125-.7060546875-.31396484375.10546875-.681640625,0-1.0986328125-.314453125-.31396484375-.208984375-.6279296875-.6796875-.94189453125-1.4130859375-.314453125-.73046875-.57666015625-1.830078125-.78515625-3.296875-.10546875-.7314453125-.2626953125-1.908203125-.47119140625-3.5322265625-.2109375-1.6220703125-.392578125-3.3486328125-.54931640625-5.181640625-.1572265625-1.830078125-.2353515625-3.556640625-.2353515625-5.1806640625,0-1.62109375.259765625-2.8505859375.78466796875-3.689453125.4169921875-.7314453125,1.46484375-2.013671875,3.14013671875-3.8466796875,1.6728515625-1.830078125,3.7138671875-4.1064453125,6.123046875-6.8291015625,6.06884765625-6.5947265625,12.03515625-13.345703125,17.89794921875-20.2529296875,5.8603515625-6.908203125,11.66943359375-14.287109375,17.4267578125-22.1376953125,1.04541015625-1.4638671875,2.01416015625-2.58984375,2.90478515625-3.375.88818359375-.78515625,2.48486328125-1.2802734375,4.78857421875-1.4912109375,2.19775390625-.208984375,4.94580078125-.4443359375,8.24267578125-.70703125,3.296875-.259765625,6.095703125-.078125,8.3994140625.5498046875.5224609375.3134765625,1.0205078125.7060546875,1.4912109375,1.177734375.470703125.470703125.7578125,1.07421875.86328125,1.8046875.41796875,2.6181640625.65234375,5.078125.70703125,7.37890625.05078125,2.3037109375.1298828125,4.501953125.2353515625,6.5947265625l.6279296875,85.40869140625ZM181.91943359375,119.64306640625c2.19775390625-.1025390625,4.39599609375-.181640625,6.59375-.2353515625,2.1982421875-.0517578125,4.39599609375-.078125,6.59423828125-.078125,0-2.826171875.05126953125-5.65234375.15673828125-8.478515625.10302734375-2.826171875.26025390625-5.7548828125.47119140625-8.7919921875-2.1982421875,3.037109375-4.4501953125,5.9931640625-6.7509765625,8.87109375-2.3037109375,2.8798828125-4.65869140625,5.7841796875-7.06494140625,8.712890625Z" fill="none" stroke="#000" stroke-linecap="round" stroke-linejoin="round" stroke-width="33"/>
          </g>
          <g>
            <path d="M124.30029296875,111.47900390625c4.6044921875,3.5595703125,8.03173828125,7.982421875,10.28369140625,13.2666015625,2.24951171875,5.287109375,2.9560546875,10.7548828125,2.119140625,16.40625-.94189453125,6.3857421875-3.45361328125,11.75146484375-7.53564453125,16.09326171875-4.08203125,4.3447265625-8.8974609375,7.771484375-14.4443359375,10.283203125-5.548828125,2.5126953125-11.53955078125,4.1875-17.9765625,5.0244140625-6.4365234375.8369140625-12.4814453125.9423828125-18.13330078125.314453125-.52490234375.2080078125-.99609375.337890625-1.4130859375.392578125-.41943359375.05078125-.89013671875.1298828125-1.4130859375.2353515625-1.8837890625.1025390625-3.82177734375.1025390625-5.80859375,0-1.98974609375-.10546875-3.79541015625-.447265625-5.41650390625-1.0205078125-1.6240234375-.57421875-3.01025390625-1.5166015625-4.16064453125-2.826171875-1.15283203125-1.3076171875-1.83251953125-3.1650390625-2.041015625-5.5732421875-.2109375-1.1513671875-.2626953125-3.478515625-.1572265625-6.9873046875.10302734375-3.5048828125.20849609375-7.771484375.31396484375-12.79541015625.208984375-5.126953125.392578125-10.701171875.5498046875-16.720703125.15673828125-6.017578125.287109375-12.0615234375.392578125-18.1337890625.10302734375-7.953125.20849609375-15.9599609375.31396484375-24.0205078125.10302734375-8.05859375-.2109375-16.1708984375-.94189453125-24.3349609375-.21142578125-.9423828125-.10546875-1.7783203125.31396484375-2.51171875.20849609375-.62890625.67919921875-1.2294921875,1.41259765625-1.8056640625.7314453125-.57421875,1.830078125-.966796875,3.29736328125-1.177734375,1.044921875-.103515625,2.19775390625-.259765625,3.45361328125-.470703125,1.25634765625-.208984375,2.56396484375-.3662109375,3.92529296875-.4716796875,1.35888671875-.1025390625,2.6689453125-.1025390625,3.9248046875,0,1.25634765625.10546875,2.35498046875.314453125,3.29736328125.6279296875,5.337890625-.73046875,10.93603515625-.7578125,16.798828125-.078125,5.8603515625.681640625,11.38232421875,2.068359375,16.5634765625,4.16015625,5.18115234375,2.095703125,9.68017578125,4.89453125,13.501953125,8.3994140625,3.8193359375,3.5087890625,6.3583984375,7.771484375,7.61474609375,12.7958984375.5224609375,2.1982421875.83642578125,4.501953125.94189453125,6.908203125.10302734375,2.4091796875-.1572265625,4.8935546875-.78515625,7.45703125-.6279296875,2.56640625-1.6484375,5.2353515625-3.0615234375,8.0068359375-1.4130859375,2.775390625-3.32373046875,5.6279296875-5.73046875,8.556640625ZM83.48046875,102.21630859375c5.02392578125.2109375,9.2626953125-.314453125,12.716796875-1.5703125s6.04443359375-2.904296875,7.771484375-4.9453125,2.5634765625-4.263671875,2.51220703125-6.6728515625c-.05419921875-2.40625-.96923828125-4.552734375-2.74755859375-6.4365234375-1.78125-1.8837890625-4.4501953125-3.3212890625-8.0068359375-4.3173828125-3.5595703125-.9931640625-8.06103515625-1.1240234375-13.50244140625-.392578125.31396484375,4.08203125.5498046875,8.1123046875.70654296875,12.0888671875.1572265625,3.9794921875.3388671875,8.0615234375.5498046875,12.24609375ZM83.951171875,147.74658203125c5.65234375.6279296875,10.41357421875.3681640625,14.287109375-.78515625,3.87109375-1.150390625,6.775390625-2.720703125,8.71337890625-4.7099609375,1.935546875-1.9873046875,2.92919921875-4.1337890625,2.9833984375-6.4375.05126953125-2.30078125-.86376953125-4.2900390625-2.74755859375-5.9658203125-1.88427734375-1.6728515625-4.76416015625-2.798828125-8.63525390625-3.375-3.87353515625-.57421875-8.740234375-.181640625-14.60107421875,1.1767578125v20.0966796875Z" fill="#fff" stroke-width="0"/>
            <path d="M220.0703125,165.48828125c-.2109375,1.15234375-.576171875,2.251953125-1.099609375,3.296875-.5244140625.8388671875-1.3095703125,1.6240234375-2.3544921875,2.3544921875-1.0478515625.7333984375-2.4599609375,1.2021484375-4.2392578125,1.4130859375-1.78125.208984375-3.6376953125.3388671875-5.5732421875.392578125-1.9384765625.0517578125-3.7431640625-.1328125-5.4169921875-.5498046875-1.6748046875-.4189453125-3.1396484375-1.1767578125-4.3955078125-2.2763671875-1.255859375-1.0986328125-2.041015625-2.7470703125-2.35498046875-4.9453125-.2109375-1.150390625-.31396484375-3.505859375-.31396484375-7.0654296875,0-3.556640625.0517578125-7.9521484375.1572265625-13.18798828125-7.22216796875,0-14.47119140625-.1298828125-21.74462890625-.392578125-7.27587890625-.259765625-14.6796875-.4951171875-22.2158203125-.7060546875-.31396484375.10546875-.681640625,0-1.0986328125-.314453125-.31396484375-.208984375-.6279296875-.6796875-.94189453125-1.4130859375-.314453125-.73046875-.57666015625-1.830078125-.78515625-3.296875-.10546875-.7314453125-.2626953125-1.908203125-.47119140625-3.5322265625-.2109375-1.6220703125-.392578125-3.3486328125-.54931640625-5.181640625-.1572265625-1.830078125-.2353515625-3.556640625-.2353515625-5.1806640625,0-1.62109375.259765625-2.8505859375.78466796875-3.689453125.4169921875-.7314453125,1.46484375-2.013671875,3.14013671875-3.8466796875,1.6728515625-1.830078125,3.7138671875-4.1064453125,6.123046875-6.8291015625,6.06884765625-6.5947265625,12.03515625-13.345703125,17.89794921875-20.2529296875,5.8603515625-6.908203125,11.66943359375-14.287109375,17.4267578125-22.1376953125,1.04541015625-1.4638671875,2.01416015625-2.58984375,2.90478515625-3.375.88818359375-.78515625,2.48486328125-1.2802734375,4.78857421875-1.4912109375,2.19775390625-.208984375,4.94580078125-.4443359375,8.24267578125-.70703125,3.296875-.259765625,6.095703125-.078125,8.3994140625.5498046875.5224609375.3134765625,1.0205078125.7060546875,1.4912109375,1.177734375.470703125.470703125.7578125,1.07421875.86328125,1.8046875.41796875,2.6181640625.65234375,5.078125.70703125,7.37890625.05078125,2.3037109375.1298828125,4.501953125.2353515625,6.5947265625l.6279296875,85.40869140625ZM181.91943359375,119.64306640625c2.19775390625-.1025390625,4.39599609375-.181640625,6.59375-.2353515625,2.1982421875-.0517578125,4.39599609375-.078125,6.59423828125-.078125,0-2.826171875.05126953125-5.65234375.15673828125-8.478515625.10302734375-2.826171875.26025390625-5.7548828125.47119140625-8.7919921875-2.1982421875,3.037109375-4.4501953125,5.9931640625-6.7509765625,8.87109375-2.3037109375,2.8798828125-4.65869140625,5.7841796875-7.06494140625,8.712890625Z" fill="#fff" stroke-width="0"/>
          </g>
        </g>
      </a>
    </g>
  </a>
</svg>