<?xml version="1.0" encoding="UTF-8"?>
<svg id="Pattern" xmlns="http://www.w3.org/2000/svg" xmlns:xlink="http://www.w3.org/1999/xlink" viewBox="0 0 280 280">
  <defs>
    <linearGradient id="linear-gradient" x1="108.760108057296748" y1="225.779747587494057" x2="173.575182901772507" y2="156.400230852569649" gradientUnits="userSpaceOnUse">
      <stop offset="0" stop-color="#1f9276"/>
      <stop offset=".5" stop-color="#4b9669"/>
      <stop offset="1" stop-color="#679a5a"/>
    </linearGradient>
  </defs>
  <a xlink:href="https://www.notion.so/dmmnotes/C1-348fe6a52f7a4fe69f768e98c6586932?pvs=4#aafe9eb6b5d2405bb7eb70c05c77aa3e">
    <g id="C1">
      <g id="C1-2" data-name="C1">
        <path d="M139.9453125,259.3974609375c-11.70703125,0-23.28125-3.109375-33.4697265625-8.9921875-15.509765625-8.9541015625-26.6044921875-23.4130859375-31.2392578125-40.7119140625-4.6357421875-17.2998046875-2.2568359375-35.3681640625,6.697265625-50.8779296875,11.9423828125-20.6845703125,34.212890625-33.5341796875,58.12109375-33.5341796875,11.7060546875,0,23.2802734375,3.10986328125,33.4697265625,8.99267578125,32.0166015625,18.48486328125,43.0263671875,59.57177734375,24.5419921875,91.59033203125-11.9423828125,20.6845703125-34.2119140625,33.533203125-58.1171875,33.533203125h-.00390625Z" fill="url(#linear-gradient)" stroke-width="0"/>
        <path d="M140.0546875,133.781219482421875c9.931884765625,0,20.0003662109375,2.531005859375,29.2197265625,7.853836059570312,28.00341796875,16.167770385742188,37.5980224609375,51.9755859375,21.4302978515625,79.97900390625-10.844970703125,18.784027099609375-30.5238037109375,29.284149169921875-50.759521484375,29.284149169921875-9.9317626953125,0-20.000244140625-2.530990600585938-29.2196044921875-7.853790283203125-28.00341796875-16.167831420898438-37.5980224609375-51.97564697265625-21.4302978515625-79.97906494140625,10.844970703125-18.784027099609375,30.523681640625-29.284133911132812,50.7593994140625-29.284133911132812M140.0546875,116.781234741210938c-26.934814453125,0-52.0260009765625,14.477996826171875-65.4818115234375,37.7840576171875-20.8287353515625,36.076705932617188-8.423828125,82.372711181640625,27.6527099609375,103.201522827148438,11.4801025390625,6.628082275390625,24.5233154296875,10.13140869140625,37.7196044921875,10.13140869140625,26.934814453125,0,52.026123046875-14.478042602539062,65.48193359375-37.784103393554688,20.828857421875-36.076766967773438,8.423828125-82.372711181640625-27.6527099609375-103.20147705078125-11.4801025390625-6.6280517578125-24.5233154296875-10.13140869140625-37.7197265625-10.13140869140625h0Z" fill="#000" stroke-width="0"/>
      </g>
      <a xlink:href="https://www.notion.so/dmmnotes/C1-348fe6a52f7a4fe69f768e98c6586932?pvs=4#aafe9eb6b5d2405bb7eb70c05c77aa3e">
        <g>
          <g>
            <path d="M128.1484375,87.92919921875c.103515625-3.0341796875-.392578125-5.310546875-1.4912109375-6.8291015625-1.0986328125-1.5166015625-2.4873046875-2.4580078125-4.1611328125-2.826171875-1.6748046875-.365234375-3.48046875-.181640625-5.416015625.5498046875-1.9375.7333984375-3.689453125,1.7802734375-5.259765625,3.1396484375-3.6640625,3.1396484375-6.62109375,7.1435546875-8.8701171875,12.0107421875-2.251953125,4.8662109375-3.7685546875,9.96875-4.5537109375,15.3076171875-.7841796875,5.337890625-.837890625,10.6513671875-.15625,15.935546875.6796875,5.2861328125,2.1708984375,9.8662109375,4.474609375,13.7373046875,1.46484375,2.51171875,3.21875,4.37109375,5.259765625,5.5732421875,2.041015625,1.2041015625,4.2109375,1.8837890625,6.515625,2.041015625,2.30078125.1572265625,4.5771484375-.208984375,6.8291015625-1.0986328125,2.2490234375-.888671875,4.2626953125-2.22265625,6.0439453125-4.00390625,2.720703125-2.720703125,4.9189453125-4.65625,6.59375-5.80859375,1.673828125-1.1513671875,3.5576171875-1.779296875,5.65234375-1.884765625,5.966796875,0,9.916015625,1.67578125,11.853515625,5.0244140625,1.935546875,3.3505859375,2.06640625,7.4326171875.392578125,12.24658203125-1.361328125,3.767578125-3.4296875,7.064453125-6.201171875,9.890625-2.7744140625,2.826171875-5.9931640625,5.1025390625-9.65625,6.830078125-3.6640625,1.7265625-7.58984375,2.9306640625-11.7744140625,3.6103515625-4.1875.6796875-8.3212890625.8642578125-12.4033203125.5498046875s-7.955078125-1.177734375-11.6171875-2.5908203125c-3.666015625-1.4130859375-6.8056640625-3.3212890625-9.419921875-5.73046875-2.931640625-2.720703125-5.49609375-5.8330078125-7.693359375-9.3408203125-2.1982421875-3.505859375-4.03125-7.22314453125-5.4951171875-11.14794921875-1.4677734375-3.9248046875-2.5654296875-8.0068359375-3.296875-12.24609375-.7333984375-4.2392578125-1.0986328125-8.501953125-1.0986328125-12.794921875.2080078125-9.62890625,2.2490234375-18.943359375,6.123046875-27.9462890625,3.87109375-9.0009765625,9-16.8505859375,15.384765625-23.5498046875,2.9296875-3.03515625,6.41015625-5.625,10.44140625-7.771484375,4.02734375-2.14453125,8.1640625-3.533203125,12.40234375-4.1611328125,4.2392578125-.6279296875,8.400390625-.4169921875,12.482421875.6279296875,4.08203125,1.0478515625,7.6923828125,3.24609375,10.83203125,6.5947265625,2.40625,2.51171875,4.341796875,5.3916015625,5.8095703125,8.634765625,1.4638671875,3.2451171875,2.5634765625,6.4912109375,3.296875,9.7333984375.4169921875,2.095703125.6005859375,4.08203125.5498046875,5.966796875-.0546875,1.8837890625-.498046875,3.6650390625-1.3349609375,5.337890625-1.1533203125,2.0947265625-2.9306640625,3.5859375-5.337890625,4.474609375-2.4091796875.890625-4.7880859375,1.1767578125-7.1435546875.86328125-2.35546875-.314453125-4.396484375-1.2294921875-6.123046875-2.748046875-1.7265625-1.515625-2.5390625-3.583984375-2.43359375-6.201171875Z" fill="none" stroke="#000" stroke-linecap="round" stroke-linejoin="round" stroke-width="33"/>
            <path d="M206.33203125,69.56005859375c-2.51171875,31.8193359375-3.611328125,63.7958984375-3.296875,95.92822265625-.10546875,1.15234375-.419921875,2.197265625-.94140625,3.1396484375-.525390625.8388671875-1.310546875,1.6484375-2.35546875,2.43359375-1.046875.78515625-2.4609375,1.2802734375-4.2392578125,1.4912109375-1.8837890625.208984375-3.794921875.3388671875-5.73046875.392578125-1.9384765625.0517578125-3.7431640625-.1328125-5.4169921875-.5498046875-1.6748046875-.4189453125-3.115234375-1.150390625-4.31640625-2.197265625-1.205078125-1.0458984375-1.962890625-2.669921875-2.27734375-4.8671875-.2109375-1.150390625-.3408203125-3.400390625-.392578125-6.7509765625-.0537109375-3.3486328125.025390625-7.37890625.236328125-12.08935546875.2080078125-4.8134765625.470703125-10.0732421875.78515625-15.779296875.3134765625-5.703125.626953125-11.43359375.94140625-17.19140625.103515625-.2080078125.1572265625-.5224609375.1572265625-.94140625-.6279296875-.103515625-1.388671875-.314453125-2.2763671875-.6279296875-.890625-.314453125-2.068359375-.9423828125-3.533203125-1.884765625-1.5693359375-1.044921875-3.166015625-2.119140625-4.7880859375-3.2177734375-1.6240234375-1.099609375-3.0888671875-2.22265625-4.3955078125-3.3759765625-1.310546875-1.150390625-2.3310546875-2.2490234375-3.0625-3.296875-.732421875-1.044921875-.94140625-2.041015625-.626953125-2.9833984375.3134765625-.94140625,1.7265625-3.0341796875,4.23828125-6.279296875,1.150390625-1.46484375,2.40625-3.140625,3.767578125-5.0244140625,1.359375-1.8837890625,2.7724609375-3.8193359375,4.240234375-5.80859375,1.4638671875-1.8837890625,2.798828125-3.7138671875,4.0029296875-5.4951171875,1.2021484375-1.7783203125,2.328125-3.400390625,3.3759765625-4.8671875,1.150390625-1.6728515625,2.2490234375-3.296875,3.296875-4.8671875.416015625-.8359375,1.8046875-1.333984375,4.16015625-1.4912109375s4.8671875,0,7.5361328125.470703125c2.6689453125.4716796875,5.1025390625,1.205078125,7.2998046875,2.1982421875,2.19921875.99609375,3.400390625,2.173828125,3.611328125,3.5322265625Z" fill="none" stroke="#000" stroke-linecap="round" stroke-linejoin="round" stroke-width="33"/>
          </g>
          <g>
            <path d="M128.1484375,87.92919921875c.103515625-3.0341796875-.392578125-5.310546875-1.4912109375-6.8291015625-1.0986328125-1.5166015625-2.4873046875-2.4580078125-4.1611328125-2.826171875-1.6748046875-.365234375-3.48046875-.181640625-5.416015625.5498046875-1.9375.7333984375-3.689453125,1.7802734375-5.259765625,3.1396484375-3.6640625,3.1396484375-6.62109375,7.1435546875-8.8701171875,12.0107421875-2.251953125,4.8662109375-3.7685546875,9.96875-4.5537109375,15.3076171875-.7841796875,5.337890625-.837890625,10.6513671875-.15625,15.935546875.6796875,5.2861328125,2.1708984375,9.8662109375,4.474609375,13.7373046875,1.46484375,2.51171875,3.21875,4.37109375,5.259765625,5.5732421875,2.041015625,1.2041015625,4.2109375,1.8837890625,6.515625,2.041015625,2.30078125.1572265625,4.5771484375-.208984375,6.8291015625-1.0986328125,2.2490234375-.888671875,4.2626953125-2.22265625,6.0439453125-4.00390625,2.720703125-2.720703125,4.9189453125-4.65625,6.59375-5.80859375,1.673828125-1.1513671875,3.5576171875-1.779296875,5.65234375-1.884765625,5.966796875,0,9.916015625,1.67578125,11.853515625,5.0244140625,1.935546875,3.3505859375,2.06640625,7.4326171875.392578125,12.24658203125-1.361328125,3.767578125-3.4296875,7.064453125-6.201171875,9.890625-2.7744140625,2.826171875-5.9931640625,5.1025390625-9.65625,6.830078125-3.6640625,1.7265625-7.58984375,2.9306640625-11.7744140625,3.6103515625-4.1875.6796875-8.3212890625.8642578125-12.4033203125.5498046875s-7.955078125-1.177734375-11.6171875-2.5908203125c-3.666015625-1.4130859375-6.8056640625-3.3212890625-9.419921875-5.73046875-2.931640625-2.720703125-5.49609375-5.8330078125-7.693359375-9.3408203125-2.1982421875-3.505859375-4.03125-7.22314453125-5.4951171875-11.14794921875-1.4677734375-3.9248046875-2.5654296875-8.0068359375-3.296875-12.24609375-.7333984375-4.2392578125-1.0986328125-8.501953125-1.0986328125-12.794921875.2080078125-9.62890625,2.2490234375-18.943359375,6.123046875-27.9462890625,3.87109375-9.0009765625,9-16.8505859375,15.384765625-23.5498046875,2.9296875-3.03515625,6.41015625-5.625,10.44140625-7.771484375,4.02734375-2.14453125,8.1640625-3.533203125,12.40234375-4.1611328125,4.2392578125-.6279296875,8.400390625-.4169921875,12.482421875.6279296875,4.08203125,1.0478515625,7.6923828125,3.24609375,10.83203125,6.5947265625,2.40625,2.51171875,4.341796875,5.3916015625,5.8095703125,8.634765625,1.4638671875,3.2451171875,2.5634765625,6.4912109375,3.296875,9.7333984375.4169921875,2.095703125.6005859375,4.08203125.5498046875,5.966796875-.0546875,1.8837890625-.498046875,3.6650390625-1.3349609375,5.337890625-1.1533203125,2.0947265625-2.9306640625,3.5859375-5.337890625,4.474609375-2.4091796875.890625-4.7880859375,1.1767578125-7.1435546875.86328125-2.35546875-.314453125-4.396484375-1.2294921875-6.123046875-2.748046875-1.7265625-1.515625-2.5390625-3.583984375-2.43359375-6.201171875Z" fill="#fbf9f9" stroke-width="0"/>
            <path d="M206.33203125,69.56005859375c-2.51171875,31.8193359375-3.611328125,63.7958984375-3.296875,95.92822265625-.10546875,1.15234375-.419921875,2.197265625-.94140625,3.1396484375-.525390625.8388671875-1.310546875,1.6484375-2.35546875,2.43359375-1.046875.78515625-2.4609375,1.2802734375-4.2392578125,1.4912109375-1.8837890625.208984375-3.794921875.3388671875-5.73046875.392578125-1.9384765625.0517578125-3.7431640625-.1328125-5.4169921875-.5498046875-1.6748046875-.4189453125-3.115234375-1.150390625-4.31640625-2.197265625-1.205078125-1.0458984375-1.962890625-2.669921875-2.27734375-4.8671875-.2109375-1.150390625-.3408203125-3.400390625-.392578125-6.7509765625-.0537109375-3.3486328125.025390625-7.37890625.236328125-12.08935546875.2080078125-4.8134765625.470703125-10.0732421875.78515625-15.779296875.3134765625-5.703125.626953125-11.43359375.94140625-17.19140625.103515625-.2080078125.1572265625-.5224609375.1572265625-.94140625-.6279296875-.103515625-1.388671875-.314453125-2.2763671875-.6279296875-.890625-.314453125-2.068359375-.9423828125-3.533203125-1.884765625-1.5693359375-1.044921875-3.166015625-2.119140625-4.7880859375-3.2177734375-1.6240234375-1.099609375-3.0888671875-2.22265625-4.3955078125-3.3759765625-1.310546875-1.150390625-2.3310546875-2.2490234375-3.0625-3.296875-.732421875-1.044921875-.94140625-2.041015625-.626953125-2.9833984375.3134765625-.94140625,1.7265625-3.0341796875,4.23828125-6.279296875,1.150390625-1.46484375,2.40625-3.140625,3.767578125-5.0244140625,1.359375-1.8837890625,2.7724609375-3.8193359375,4.240234375-5.80859375,1.4638671875-1.8837890625,2.798828125-3.7138671875,4.0029296875-5.4951171875,1.2021484375-1.7783203125,2.328125-3.400390625,3.3759765625-4.8671875,1.150390625-1.6728515625,2.2490234375-3.296875,3.296875-4.8671875.416015625-.8359375,1.8046875-1.333984375,4.16015625-1.4912109375s4.8671875,0,7.5361328125.470703125c2.6689453125.4716796875,5.1025390625,1.205078125,7.2998046875,2.1982421875,2.19921875.99609375,3.400390625,2.173828125,3.611328125,3.5322265625Z" fill="#fbf9f9" stroke-width="0"/>
          </g>
        </g>
      </a>
    </g>
  </a>
</svg>