<?xml version="1.0" encoding="UTF-8"?>
<svg id="Pattern" xmlns="http://www.w3.org/2000/svg" xmlns:xlink="http://www.w3.org/1999/xlink" viewBox="0 0 280 280">
  <defs>
    <linearGradient id="linear-gradient" x1="97.367568776782718" y1="258.953017536268817" x2="184.968624797303391" y2="122.076367504225175" gradientUnits="userSpaceOnUse">
      <stop offset="0" stop-color="#679a5a"/>
      <stop offset=".203304411159916" stop-color="#6c9a56"/>
      <stop offset=".454423858001689" stop-color="#7b9d4d"/>
      <stop offset=".487179487179487" stop-color="#7e9e4c"/>
      <stop offset="1" stop-color="#91a23d"/>
    </linearGradient>
  </defs>
  <a xlink:href="https://www.notion.so/dmmnotes/C3-2d8ccce383534b9dbfc7b4b10b8a5d5c?pvs=4#f60ac57c7e0640f689cfeee0c2565c2b">
    <g id="C3">
      <g id="C3-2" data-name="C3">
        <path d="M140,259.388671875c-36.970703125,0-67.048828125-30.078125-67.048828125-67.048828125s30.078125-67.048828125,67.048828125-67.048828125,67.048828125,30.078125,67.048828125,67.048828125-30.078125,67.048828125-67.048828125,67.048828125Z" fill="url(#linear-gradient)" stroke-width="0"/>
        <path d="M140,133.791000366210938c32.3355712890625,0,58.5487060546875,26.213165283203125,58.5487060546875,58.548721313476562s-26.213134765625,58.548721313476562-58.5487060546875,58.548721313476562-58.5487060546875-26.213165283203125-58.5487060546875-58.548721313476562,26.213134765625-58.548721313476562,58.5487060546875-58.548721313476562M140,116.791000366210938c-41.65771484375,0-75.5487060546875,33.891006469726562-75.5487060546875,75.548721313476562s33.8909912109375,75.548736572265625,75.5487060546875,75.548736572265625,75.5487060546875-33.891021728515625,75.5487060546875-75.548736572265625-33.8909912109375-75.548721313476562-75.5487060546875-75.548721313476562h0Z" fill="#000" stroke-width="0"/>
      </g>
      <a xlink:href="https://www.notion.so/dmmnotes/C3-2d8ccce383534b9dbfc7b4b10b8a5d5c?pvs=4#f60ac57c7e0640f689cfeee0c2565c2b">
        <g>
          <g>
            <path d="M118.806640625,87.9296875c.103515625-3.0341796875-.392578125-5.310546875-1.4912109375-6.8291015625-1.0986328125-1.5166015625-2.4873046875-2.4580078125-4.1611328125-2.826171875-1.6748046875-.365234375-3.48046875-.181640625-5.416015625.5498046875-1.9375.7333984375-3.689453125,1.7802734375-5.259765625,3.1396484375-3.6640625,3.1396484375-6.62109375,7.1435546875-8.8701171875,12.0107421875-2.251953125,4.8662109375-3.7685546875,9.96875-4.5537109375,15.3076171875-.7841796875,5.337890625-.837890625,10.6513671875-.15625,15.935546875.6796875,5.2861328125,2.1708984375,9.8662109375,4.474609375,13.7373046875,1.46484375,2.51171875,3.21875,4.37109375,5.259765625,5.5732421875,2.041015625,1.2041015625,4.2109375,1.8837890625,6.515625,2.041015625,2.30078125.1572265625,4.5771484375-.208984375,6.8291015625-1.0986328125,2.2490234375-.888671875,4.2626953125-2.22265625,6.0439453125-4.00390625,2.720703125-2.720703125,4.9189453125-4.65625,6.59375-5.80859375,1.673828125-1.1513671875,3.5576171875-1.779296875,5.65234375-1.884765625,5.966796875,0,9.916015625,1.67578125,11.853515625,5.0244140625,1.935546875,3.3505859375,2.06640625,7.4326171875.392578125,12.24609375-1.361328125,3.767578125-3.4296875,7.064453125-6.201171875,9.890625-2.7744140625,2.826171875-5.9931640625,5.1025390625-9.65625,6.830078125-3.6640625,1.7265625-7.58984375,2.9306640625-11.7744140625,3.6103515625-4.1875.6796875-8.3212890625.8642578125-12.4033203125.5498046875s-7.955078125-1.177734375-11.6171875-2.5908203125c-3.666015625-1.4130859375-6.8056640625-3.3212890625-9.419921875-5.73046875-2.931640625-2.720703125-5.49609375-5.8330078125-7.693359375-9.3408203125-2.1982421875-3.505859375-4.03125-7.22265625-5.4951171875-11.1474609375-1.4677734375-3.9248046875-2.5654296875-8.0068359375-3.296875-12.24609375-.7333984375-4.2392578125-1.0986328125-8.501953125-1.0986328125-12.794921875.2080078125-9.62890625,2.2490234375-18.943359375,6.123046875-27.9462890625,3.87109375-9.0009765625,9-16.8505859375,15.384765625-23.5498046875,2.9296875-3.03515625,6.41015625-5.625,10.44140625-7.771484375,4.02734375-2.14453125,8.1640625-3.533203125,12.40234375-4.1611328125,4.2392578125-.6279296875,8.400390625-.4169921875,12.482421875.6279296875,4.08203125,1.0478515625,7.6923828125,3.24609375,10.83203125,6.5947265625,2.40625,2.51171875,4.341796875,5.3916015625,5.8095703125,8.634765625,1.4638671875,3.2451171875,2.5634765625,6.4912109375,3.296875,9.7333984375.4169921875,2.095703125.6005859375,4.08203125.5498046875,5.966796875-.0546875,1.8837890625-.498046875,3.6650390625-1.3349609375,5.337890625-1.1533203125,2.0947265625-2.9306640625,3.5859375-5.337890625,4.474609375-2.4091796875.890625-4.7880859375,1.1767578125-7.1435546875.86328125-2.35546875-.314453125-4.396484375-1.2294921875-6.123046875-2.748046875-1.7265625-1.515625-2.5390625-3.583984375-2.43359375-6.201171875Z" fill="none" stroke="#000" stroke-linecap="round" stroke-linejoin="round" stroke-width="33"/>
            <path d="M206.25390625,112.421875c3.0341796875,3.6650390625,5.416015625,8.0849609375,7.142578125,13.2666015625,1.7275390625,5.1806640625,2.328125,10.283203125,1.806640625,15.3076171875-.419921875,3.873046875-1.5703125,7.7197265625-3.455078125,11.5390625-1.8837890625,3.822265625-4.29296875,7.2216796875-7.2216796875,10.205078125-2.931640625,2.9833984375-6.3076171875,5.3916015625-10.1259765625,7.2216796875-3.822265625,1.8330078125-7.9296875,2.748046875-12.3251953125,2.748046875-2.72265625,0-5.4951171875-.2900390625-8.3212890625-.86328125-2.826171875-.57421875-5.572265625-1.38671875-8.2421875-2.43359375-2.6689453125-1.044921875-5.15625-2.4072265625-7.45703125-4.08203125-2.3037109375-1.6728515625-4.1875-3.611328125-5.65234375-5.8095703125-1.5703125-2.197265625-2.041015625-4.6044921875-1.4130859375-7.2216796875.6279296875-2.9287109375,1.8564453125-5.4677734375,3.689453125-7.6142578125,1.830078125-2.14453125,3.5322265625-3.8984375,5.1025390625-5.259765625.8369140625-.6279296875,1.884765625-1.044921875,3.140625-1.255859375,1.255859375-.208984375,2.45703125.3134765625,3.6103515625,1.5703125,1.8837890625,2.197265625,3.9248046875,3.951171875,6.123046875,5.2587890625,2.1982421875,1.310546875,4.369140625,2.041015625,6.515625,2.1982421875,2.1435546875.1572265625,4.1845703125-.3134765625,6.123046875-1.4130859375,1.935546875-1.0986328125,3.583984375-2.904296875,4.9453125-5.416015625.7314453125-1.46484375,1.1513671875-3.03515625,1.2568359375-4.7099609375.1025390625-1.673828125-.2109375-3.21875-.943359375-4.6318359375s-1.9375-2.615234375-3.6103515625-3.611328125c-1.6748046875-.9931640625-3.8740234375-1.5947265625-6.59375-1.8056640625-.2119140625.10546875-.3681640625.1328125-.4716796875.0791015625-.10546875-.0517578125-.2109375-.0791015625-.3134765625-.0791015625h-.3134765625c-.10546875.10546875-.2109375.1572265625-.314453125.1572265625h-.6279296875c-.3134765625-.1025390625-.6552734375-.181640625-1.0205078125-.2353515625-.3681640625-.0517578125-.6552734375-.181640625-.86328125-.392578125-1.1533203125-.3134765625-1.9384765625-1.255859375-2.35546875-2.826171875-.419921875-1.5693359375-.654296875-3.296875-.70703125-5.1806640625s.025390625-3.7412109375.236328125-5.5732421875c.208984375-1.830078125.470703125-3.1650390625.78515625-4.00390625.416015625-1.150390625.94140625-2.119140625,1.5703125-2.904296875.626953125-.78515625,1.3583984375-1.177734375,2.197265625-1.177734375,2.615234375,0,4.91796875-.8359375,6.908203125-2.51171875,1.986328125-1.6728515625,3.400390625-3.5576171875,4.23828125-5.65234375.8369140625-2.0927734375.966796875-4.0546875.392578125-5.8876953125-.576171875-1.830078125-2.1728515625-2.8505859375-4.7880859375-3.0615234375-1.7802734375-.2080078125-3.689453125.341796875-5.73046875,1.6494140625-2.041015625,1.3095703125-3.7431640625,3.3232421875-5.1025390625,6.0439453125-.525390625,1.0478515625-.94140625,2.068359375-1.255859375,3.0615234375-.314453125.99609375-1.099609375,1.75390625-2.35546875,2.2763671875-1.046875.419921875-2.041015625.6279296875-2.982421875.6279296875-3.037109375,0-5.94140625-.8876953125-8.7138671875-2.6689453125-2.7744140625-1.7783203125-4.6318359375-4.2900390625-5.5732421875-7.5361328125-.419921875-1.986328125-.3681640625-3.9248046875.15625-5.80859375.5234375-1.8837890625,1.30859375-3.7138671875,2.35546875-5.4951171875,1.779296875-2.9287109375,4.0283203125-5.4951171875,6.7509765625-7.693359375,2.720703125-2.197265625,5.7314453125-3.94921875,9.0283203125-5.2587890625,3.296875-1.3076171875,6.8017578125-2.1201171875,10.5185546875-2.43359375,3.7138671875-.314453125,7.4580078125,0,11.2255859375.94140625,4.7099609375,1.1533203125,8.580078125,3.32421875,11.6171875,6.515625,3.03515625,3.1943359375,5.154296875,6.986328125,6.359375,11.3828125,1.201171875,4.3955078125,1.412109375,9.2109375.6279296875,14.4443359375-.78515625,5.234375-2.64453125,10.572265625-5.5732421875,16.013671875Z" fill="none" stroke="#000" stroke-linecap="round" stroke-linejoin="round" stroke-width="33"/>
          </g>
          <g>
            <path d="M118.806640625,87.9296875c.103515625-3.0341796875-.392578125-5.310546875-1.4912109375-6.8291015625-1.0986328125-1.5166015625-2.4873046875-2.4580078125-4.1611328125-2.826171875-1.6748046875-.365234375-3.48046875-.181640625-5.416015625.5498046875-1.9375.7333984375-3.689453125,1.7802734375-5.259765625,3.1396484375-3.6640625,3.1396484375-6.62109375,7.1435546875-8.8701171875,12.0107421875-2.251953125,4.8662109375-3.7685546875,9.96875-4.5537109375,15.3076171875-.7841796875,5.337890625-.837890625,10.6513671875-.15625,15.935546875.6796875,5.2861328125,2.1708984375,9.8662109375,4.474609375,13.7373046875,1.46484375,2.51171875,3.21875,4.37109375,5.259765625,5.5732421875,2.041015625,1.2041015625,4.2109375,1.8837890625,6.515625,2.041015625,2.30078125.1572265625,4.5771484375-.208984375,6.8291015625-1.0986328125,2.2490234375-.888671875,4.2626953125-2.22265625,6.0439453125-4.00390625,2.720703125-2.720703125,4.9189453125-4.65625,6.59375-5.80859375,1.673828125-1.1513671875,3.5576171875-1.779296875,5.65234375-1.884765625,5.966796875,0,9.916015625,1.67578125,11.853515625,5.0244140625,1.935546875,3.3505859375,2.06640625,7.4326171875.392578125,12.24609375-1.361328125,3.767578125-3.4296875,7.064453125-6.201171875,9.890625-2.7744140625,2.826171875-5.9931640625,5.1025390625-9.65625,6.830078125-3.6640625,1.7265625-7.58984375,2.9306640625-11.7744140625,3.6103515625-4.1875.6796875-8.3212890625.8642578125-12.4033203125.5498046875s-7.955078125-1.177734375-11.6171875-2.5908203125c-3.666015625-1.4130859375-6.8056640625-3.3212890625-9.419921875-5.73046875-2.931640625-2.720703125-5.49609375-5.8330078125-7.693359375-9.3408203125-2.1982421875-3.505859375-4.03125-7.22265625-5.4951171875-11.1474609375-1.4677734375-3.9248046875-2.5654296875-8.0068359375-3.296875-12.24609375-.7333984375-4.2392578125-1.0986328125-8.501953125-1.0986328125-12.794921875.2080078125-9.62890625,2.2490234375-18.943359375,6.123046875-27.9462890625,3.87109375-9.0009765625,9-16.8505859375,15.384765625-23.5498046875,2.9296875-3.03515625,6.41015625-5.625,10.44140625-7.771484375,4.02734375-2.14453125,8.1640625-3.533203125,12.40234375-4.1611328125,4.2392578125-.6279296875,8.400390625-.4169921875,12.482421875.6279296875,4.08203125,1.0478515625,7.6923828125,3.24609375,10.83203125,6.5947265625,2.40625,2.51171875,4.341796875,5.3916015625,5.8095703125,8.634765625,1.4638671875,3.2451171875,2.5634765625,6.4912109375,3.296875,9.7333984375.4169921875,2.095703125.6005859375,4.08203125.5498046875,5.966796875-.0546875,1.8837890625-.498046875,3.6650390625-1.3349609375,5.337890625-1.1533203125,2.0947265625-2.9306640625,3.5859375-5.337890625,4.474609375-2.4091796875.890625-4.7880859375,1.1767578125-7.1435546875.86328125-2.35546875-.314453125-4.396484375-1.2294921875-6.123046875-2.748046875-1.7265625-1.515625-2.5390625-3.583984375-2.43359375-6.201171875Z" fill="#fbf9f9" stroke-width="0"/>
            <path d="M206.25390625,112.421875c3.0341796875,3.6650390625,5.416015625,8.0849609375,7.142578125,13.2666015625,1.7275390625,5.1806640625,2.328125,10.283203125,1.806640625,15.3076171875-.419921875,3.873046875-1.5703125,7.7197265625-3.455078125,11.5390625-1.8837890625,3.822265625-4.29296875,7.2216796875-7.2216796875,10.205078125-2.931640625,2.9833984375-6.3076171875,5.3916015625-10.1259765625,7.2216796875-3.822265625,1.8330078125-7.9296875,2.748046875-12.3251953125,2.748046875-2.72265625,0-5.4951171875-.2900390625-8.3212890625-.86328125-2.826171875-.57421875-5.572265625-1.38671875-8.2421875-2.43359375-2.6689453125-1.044921875-5.15625-2.4072265625-7.45703125-4.08203125-2.3037109375-1.6728515625-4.1875-3.611328125-5.65234375-5.8095703125-1.5703125-2.197265625-2.041015625-4.6044921875-1.4130859375-7.2216796875.6279296875-2.9287109375,1.8564453125-5.4677734375,3.689453125-7.6142578125,1.830078125-2.14453125,3.5322265625-3.8984375,5.1025390625-5.259765625.8369140625-.6279296875,1.884765625-1.044921875,3.140625-1.255859375,1.255859375-.208984375,2.45703125.3134765625,3.6103515625,1.5703125,1.8837890625,2.197265625,3.9248046875,3.951171875,6.123046875,5.2587890625,2.1982421875,1.310546875,4.369140625,2.041015625,6.515625,2.1982421875,2.1435546875.1572265625,4.1845703125-.3134765625,6.123046875-1.4130859375,1.935546875-1.0986328125,3.583984375-2.904296875,4.9453125-5.416015625.7314453125-1.46484375,1.1513671875-3.03515625,1.2568359375-4.7099609375.1025390625-1.673828125-.2109375-3.21875-.943359375-4.6318359375s-1.9375-2.615234375-3.6103515625-3.611328125c-1.6748046875-.9931640625-3.8740234375-1.5947265625-6.59375-1.8056640625-.2119140625.10546875-.3681640625.1328125-.4716796875.0791015625-.10546875-.0517578125-.2109375-.0791015625-.3134765625-.0791015625h-.3134765625c-.10546875.10546875-.2109375.1572265625-.314453125.1572265625h-.6279296875c-.3134765625-.1025390625-.6552734375-.181640625-1.0205078125-.2353515625-.3681640625-.0517578125-.6552734375-.181640625-.86328125-.392578125-1.1533203125-.3134765625-1.9384765625-1.255859375-2.35546875-2.826171875-.419921875-1.5693359375-.654296875-3.296875-.70703125-5.1806640625s.025390625-3.7412109375.236328125-5.5732421875c.208984375-1.830078125.470703125-3.1650390625.78515625-4.00390625.416015625-1.150390625.94140625-2.119140625,1.5703125-2.904296875.626953125-.78515625,1.3583984375-1.177734375,2.197265625-1.177734375,2.615234375,0,4.91796875-.8359375,6.908203125-2.51171875,1.986328125-1.6728515625,3.400390625-3.5576171875,4.23828125-5.65234375.8369140625-2.0927734375.966796875-4.0546875.392578125-5.8876953125-.576171875-1.830078125-2.1728515625-2.8505859375-4.7880859375-3.0615234375-1.7802734375-.2080078125-3.689453125.341796875-5.73046875,1.6494140625-2.041015625,1.3095703125-3.7431640625,3.3232421875-5.1025390625,6.0439453125-.525390625,1.0478515625-.94140625,2.068359375-1.255859375,3.0615234375-.314453125.99609375-1.099609375,1.75390625-2.35546875,2.2763671875-1.046875.419921875-2.041015625.6279296875-2.982421875.6279296875-3.037109375,0-5.94140625-.8876953125-8.7138671875-2.6689453125-2.7744140625-1.7783203125-4.6318359375-4.2900390625-5.5732421875-7.5361328125-.419921875-1.986328125-.3681640625-3.9248046875.15625-5.80859375.5234375-1.8837890625,1.30859375-3.7138671875,2.35546875-5.4951171875,1.779296875-2.9287109375,4.0283203125-5.4951171875,6.7509765625-7.693359375,2.720703125-2.197265625,5.7314453125-3.94921875,9.0283203125-5.2587890625,3.296875-1.3076171875,6.8017578125-2.1201171875,10.5185546875-2.43359375,3.7138671875-.314453125,7.4580078125,0,11.2255859375.94140625,4.7099609375,1.1533203125,8.580078125,3.32421875,11.6171875,6.515625,3.03515625,3.1943359375,5.154296875,6.986328125,6.359375,11.3828125,1.201171875,4.3955078125,1.412109375,9.2109375.6279296875,14.4443359375-.78515625,5.234375-2.64453125,10.572265625-5.5732421875,16.013671875Z" fill="#fbf9f9" stroke-width="0"/>
          </g>
        </g>
      </a>
    </g>
  </a>
</svg>