<?xml version="1.0" encoding="UTF-8"?>
<svg id="Pattern" xmlns="http://www.w3.org/2000/svg" xmlns:xlink="http://www.w3.org/1999/xlink" viewBox="0 0 280 280">
  <defs>
    <linearGradient id="linear-gradient" x1="70.325414311375425" y1="296.503349354483362" x2="207.200337231473895" y2="91.875339588964522" gradientUnits="userSpaceOnUse">
      <stop offset="0" stop-color="#91a23d"/>
      <stop offset=".035609196321219" stop-color="#979f40"/>
      <stop offset=".159034115012051" stop-color="#a79747"/>
      <stop offset=".297510885132642" stop-color="#b0934c"/>
      <stop offset=".480769230769231" stop-color="#b4924e"/>
      <stop offset=".748267662093502" stop-color="#b7904f"/>
      <stop offset=".956523834860437" stop-color="#c08b55"/>
      <stop offset="1" stop-color="#c48a57"/>
    </linearGradient>
  </defs>
  <a xlink:href="https://www.notion.so/dmmnotes/C5-33d2e77f37774316b42bccf4a60f9688?pvs=4#a5a513272b094a408fc2b46c8337e794">
    <g id="C5">
      <g id="C5-2" data-name="C5">
        <path d="M140,259.388671875c-36.970703125,0-67.048828125-30.078125-67.048828125-67.048828125s30.078125-67.048828125,67.048828125-67.048828125,67.048828125,30.078125,67.048828125,67.048828125-30.078125,67.048828125-67.048828125,67.048828125Z" fill="url(#linear-gradient)" stroke-width="0"/>
        <path d="M140,133.791000366210938c32.33544921875,0,58.548583984375,26.213104248046875,58.548828125,58.548660278320312,0,32.335556030273438-26.213134765625,58.548721313476562-58.548828125,58.548782348632812-32.33544921875,0-58.548583984375-26.213104248046875-58.548828125-58.548721313476562,0-32.335556030273438,26.213134765625-58.548721313476562,58.548828125-58.548721313476562M140,116.791000366210938c-41.65771484375,0-75.548828125,33.891006469726562-75.548828125,75.548721313476562.000244140625,41.65777587890625,33.891357421875,75.548736572265625,75.548828125,75.548736572265625,41.65771484375-.00006103515625,75.548828125-33.891128540039062,75.548828125-75.548797607421875-.000244140625-41.65771484375-33.891357421875-75.548660278320312-75.548828125-75.548660278320312h0Z" fill="#000" stroke-width="0"/>
      </g>
      <a xlink:href="https://www.notion.so/dmmnotes/C5-33d2e77f37774316b42bccf4a60f9688?pvs=4#a5a513272b094a408fc2b46c8337e794">
        <g>
          <g>
            <path d="M116.373046875,87.9287109375c.1025390625-3.0341796875-.392578125-5.310546875-1.4921875-6.8291015625-1.0986328125-1.5166015625-2.4873046875-2.4580078125-4.16015625-2.826171875-1.67578125-.365234375-3.48046875-.181640625-5.416015625.5498046875-1.9384765625.7333984375-3.689453125,1.7802734375-5.259765625,3.1396484375-3.6650390625,3.1396484375-6.62109375,7.1435546875-8.87109375,12.0107421875-2.251953125,4.8662109375-3.767578125,9.96875-4.552734375,15.3076171875-.78515625,5.337890625-.8388671875,10.6513671875-.15625,15.935546875.6787109375,5.2861328125,2.169921875,9.8662109375,4.474609375,13.7373046875,1.4638671875,2.51171875,3.2177734375,4.37109375,5.2587890625,5.5732421875,2.041015625,1.2041015625,4.2119140625,1.8837890625,6.515625,2.041015625,2.30078125.1572265625,4.5771484375-.208984375,6.8291015625-1.0986328125,2.25-.888671875,4.263671875-2.22265625,6.044921875-4.00390625,2.720703125-2.720703125,4.91796875-4.65625,6.59375-5.80859375,1.673828125-1.1513671875,3.556640625-1.779296875,5.65234375-1.884765625,5.9658203125,0,9.916015625,1.67578125,11.853515625,5.0244140625,1.935546875,3.3505859375,2.0654296875,7.4326171875.392578125,12.24609375-1.361328125,3.767578125-3.4296875,7.064453125-6.201171875,9.890625-2.775390625,2.826171875-5.994140625,5.1025390625-9.65625,6.830078125-3.6650390625,1.7265625-7.58984375,2.9306640625-11.775390625,3.6103515625-4.1875.6796875-8.3203125.8642578125-12.40234375.5498046875s-7.955078125-1.177734375-11.6181640625-2.5908203125c-3.6650390625-1.4130859375-6.8056640625-3.3212890625-9.419921875-5.73046875-2.931640625-2.720703125-5.4951171875-5.8330078125-7.6923828125-9.3408203125-2.19921875-3.505859375-4.03125-7.22265625-5.49609375-11.1474609375-1.466796875-3.9248046875-2.5654296875-8.0068359375-3.296875-12.24609375-.7333984375-4.2392578125-1.0986328125-8.501953125-1.0986328125-12.794921875.2080078125-9.62890625,2.2490234375-18.943359375,6.123046875-27.9462890625,3.87109375-9.0009765625,9.0009765625-16.8505859375,15.3857421875-23.5498046875,2.9296875-3.03515625,6.41015625-5.625,10.4404296875-7.771484375,4.0283203125-2.14453125,8.1640625-3.533203125,12.4033203125-4.1611328125,4.23828125-.6279296875,8.3994140625-.4169921875,12.4814453125.6279296875,4.08203125,1.0478515625,7.6923828125,3.24609375,10.8330078125,6.5947265625,2.40625,2.51171875,4.341796875,5.3916015625,5.80859375,8.634765625,1.46484375,3.2451171875,2.564453125,6.4912109375,3.296875,9.7333984375.41796875,2.095703125.6015625,4.08203125.5498046875,5.966796875-.0537109375,1.8837890625-.498046875,3.6650390625-1.3349609375,5.337890625-1.15234375,2.0947265625-2.9306640625,3.5859375-5.337890625,4.474609375-2.408203125.890625-4.7880859375,1.1767578125-7.142578125.86328125-2.35546875-.314453125-4.396484375-1.2294921875-6.123046875-2.748046875-1.7275390625-1.515625-2.5390625-3.583984375-2.43359375-6.201171875Z" fill="none" stroke="#000" stroke-linecap="round" stroke-linejoin="round" stroke-width="33"/>
            <path d="M209.62890625,109.9091796875c3.2421875,4.3955078125,5.4404296875,9.2109375,6.59375,14.443359375,1.150390625,5.2353515625,1.2802734375,10.4404296875.392578125,15.6220703125-.890625,5.1806640625-2.669921875,10.1533203125-5.337890625,14.9150390625-2.669921875,4.763671875-6.2021484375,8.767578125-10.59765625,12.009765625-5.966796875,4.396484375-12.037109375,6.830078125-18.212890625,7.30078125s-12.037109375-.8115234375-17.583984375-3.8466796875c-3.6640625-1.8837890625-6.8046875-4.2900390625-9.419921875-7.2216796875-2.6171875-2.9287109375-4.0302734375-6.59375-4.23828125-10.990234375-.10546875-2.40625.392578125-4.7099609375,1.4912109375-6.908203125,1.0986328125-2.197265625,2.5361328125-3.9248046875,4.3173828125-5.1806640625,1.779296875-1.255859375,3.71484375-1.8564453125,5.80859375-1.8056640625,2.09375.0546875,4.134765625,1.1259765625,6.123046875,3.21875,1.46484375,1.8837890625,3.349609375,3.5322265625,5.65234375,4.9453125,2.30078125,1.4130859375,4.8125,1.859375,7.5361328125,1.3349609375,5.232421875-.8369140625,8.73828125-4.4482421875,10.5185546875-10.8330078125.41796875-1.7783203125.57421875-3.6357421875.4716796875-5.57421875-.10546875-1.9345703125-.498046875-3.740234375-1.177734375-5.416015625-.6826171875-1.6728515625-1.7021484375-3.1650390625-3.0615234375-4.474609375-1.361328125-1.3076171875-3.140625-2.22265625-5.337890625-2.7470703125-3.037109375-.8369140625-6.2802734375-1.1240234375-9.734375-.8642578125-3.453125.2626953125-6.490234375.8125-9.10546875,1.6484375-.9423828125.2119140625-2.43359375.2626953125-4.474609375.1572265625-2.041015625-.1025390625-3.638671875-.1572265625-4.7890625-.1572265625-1.255859375-.1025390625-2.330078125-.73046875-3.21875-1.8837890625-.8896484375-1.150390625-1.5693359375-2.51171875-2.041015625-4.08203125-.470703125-1.5693359375-.759765625-3.1396484375-.86328125-4.7099609375-.10546875-1.5693359375.052734375-2.9287109375.4716796875-4.08203125.3134765625-1.044921875.5498046875-3.0615234375.7060546875-6.0439453125.1572265625-2.9833984375.287109375-6.33203125.392578125-10.0478515625.103515625-3.71484375.181640625-7.4580078125.236328125-11.2255859375.05078125-3.7685546875.12890625-6.908203125.234375-9.419921875.103515625-1.9873046875.392578125-3.3486328125.86328125-4.08203125.4716796875-.7314453125,1.177734375-1.1513671875,2.1201171875-1.2568359375.9423828125-.1025390625,2.0927734375-.0244140625,3.4541015625.236328125,1.359375.26171875,2.9296875.4462890625,4.7099609375.548828125,7.2216796875.525390625,14.46875.890625,21.7451171875,1.099609375,7.2734375.2109375,14.73046875.10546875,22.3720703125-.314453125,1.255859375-.1025390625,2.3798828125-.1025390625,3.3759765625,0,.9921875.10546875,1.69921875.2626953125,2.119140625.470703125.5224609375.314453125,1.01953125.8125,1.4912109375,1.4921875.4716796875.681640625.8095703125,1.75390625,1.0205078125,3.2177734375.208984375,1.884765625.287109375,3.92578125.2353515625,6.123046875-.0537109375,2.1982421875-.2900390625,4.2666015625-.7060546875,6.2021484375-.419921875,1.9375-1.0478515625,3.6376953125-1.884765625,5.1025390625-.837890625,1.466796875-1.8828125,2.3544921875-3.1396484375,2.6689453125-.6279296875.2109375-1.9384765625.3408203125-3.9248046875.392578125-1.990234375.0537109375-4.396484375.0263671875-7.22265625-.0791015625-10.046875-.3134765625-20.095703125-1.255859375-30.1435546875-2.8251953125v9.576171875c8.7919921875-1.4638671875,16.8232421875-1.044921875,24.099609375,1.2568359375,7.2734375,2.302734375,13.1611328125,6.3330078125,17.6630859375,12.0888671875Z" fill="none" stroke="#000" stroke-linecap="round" stroke-linejoin="round" stroke-width="33"/>
          </g>
          <g>
            <path d="M116.373046875,87.9287109375c.1025390625-3.0341796875-.392578125-5.310546875-1.4921875-6.8291015625-1.0986328125-1.5166015625-2.4873046875-2.4580078125-4.16015625-2.826171875-1.67578125-.365234375-3.48046875-.181640625-5.416015625.5498046875-1.9384765625.7333984375-3.689453125,1.7802734375-5.259765625,3.1396484375-3.6650390625,3.1396484375-6.62109375,7.1435546875-8.87109375,12.0107421875-2.251953125,4.8662109375-3.767578125,9.96875-4.552734375,15.3076171875-.78515625,5.337890625-.8388671875,10.6513671875-.15625,15.935546875.6787109375,5.2861328125,2.169921875,9.8662109375,4.474609375,13.7373046875,1.4638671875,2.51171875,3.2177734375,4.37109375,5.2587890625,5.5732421875,2.041015625,1.2041015625,4.2119140625,1.8837890625,6.515625,2.041015625,2.30078125.1572265625,4.5771484375-.208984375,6.8291015625-1.0986328125,2.25-.888671875,4.263671875-2.22265625,6.044921875-4.00390625,2.720703125-2.720703125,4.91796875-4.65625,6.59375-5.80859375,1.673828125-1.1513671875,3.556640625-1.779296875,5.65234375-1.884765625,5.9658203125,0,9.916015625,1.67578125,11.853515625,5.0244140625,1.935546875,3.3505859375,2.0654296875,7.4326171875.392578125,12.24609375-1.361328125,3.767578125-3.4296875,7.064453125-6.201171875,9.890625-2.775390625,2.826171875-5.994140625,5.1025390625-9.65625,6.830078125-3.6650390625,1.7265625-7.58984375,2.9306640625-11.775390625,3.6103515625-4.1875.6796875-8.3203125.8642578125-12.40234375.5498046875s-7.955078125-1.177734375-11.6181640625-2.5908203125c-3.6650390625-1.4130859375-6.8056640625-3.3212890625-9.419921875-5.73046875-2.931640625-2.720703125-5.4951171875-5.8330078125-7.6923828125-9.3408203125-2.19921875-3.505859375-4.03125-7.22265625-5.49609375-11.1474609375-1.466796875-3.9248046875-2.5654296875-8.0068359375-3.296875-12.24609375-.7333984375-4.2392578125-1.0986328125-8.501953125-1.0986328125-12.794921875.2080078125-9.62890625,2.2490234375-18.943359375,6.123046875-27.9462890625,3.87109375-9.0009765625,9.0009765625-16.8505859375,15.3857421875-23.5498046875,2.9296875-3.03515625,6.41015625-5.625,10.4404296875-7.771484375,4.0283203125-2.14453125,8.1640625-3.533203125,12.4033203125-4.1611328125,4.23828125-.6279296875,8.3994140625-.4169921875,12.4814453125.6279296875,4.08203125,1.0478515625,7.6923828125,3.24609375,10.8330078125,6.5947265625,2.40625,2.51171875,4.341796875,5.3916015625,5.80859375,8.634765625,1.46484375,3.2451171875,2.564453125,6.4912109375,3.296875,9.7333984375.41796875,2.095703125.6015625,4.08203125.5498046875,5.966796875-.0537109375,1.8837890625-.498046875,3.6650390625-1.3349609375,5.337890625-1.15234375,2.0947265625-2.9306640625,3.5859375-5.337890625,4.474609375-2.408203125.890625-4.7880859375,1.1767578125-7.142578125.86328125-2.35546875-.314453125-4.396484375-1.2294921875-6.123046875-2.748046875-1.7275390625-1.515625-2.5390625-3.583984375-2.43359375-6.201171875Z" fill="#fbf9f9" stroke-width="0"/>
            <path d="M209.62890625,109.9091796875c3.2421875,4.3955078125,5.4404296875,9.2109375,6.59375,14.443359375,1.150390625,5.2353515625,1.2802734375,10.4404296875.392578125,15.6220703125-.890625,5.1806640625-2.669921875,10.1533203125-5.337890625,14.9150390625-2.669921875,4.763671875-6.2021484375,8.767578125-10.59765625,12.009765625-5.966796875,4.396484375-12.037109375,6.830078125-18.212890625,7.30078125s-12.037109375-.8115234375-17.583984375-3.8466796875c-3.6640625-1.8837890625-6.8046875-4.2900390625-9.419921875-7.2216796875-2.6171875-2.9287109375-4.0302734375-6.59375-4.23828125-10.990234375-.10546875-2.40625.392578125-4.7099609375,1.4912109375-6.908203125,1.0986328125-2.197265625,2.5361328125-3.9248046875,4.3173828125-5.1806640625,1.779296875-1.255859375,3.71484375-1.8564453125,5.80859375-1.8056640625,2.09375.0546875,4.134765625,1.1259765625,6.123046875,3.21875,1.46484375,1.8837890625,3.349609375,3.5322265625,5.65234375,4.9453125,2.30078125,1.4130859375,4.8125,1.859375,7.5361328125,1.3349609375,5.232421875-.8369140625,8.73828125-4.4482421875,10.5185546875-10.8330078125.41796875-1.7783203125.57421875-3.6357421875.4716796875-5.57421875-.10546875-1.9345703125-.498046875-3.740234375-1.177734375-5.416015625-.6826171875-1.6728515625-1.7021484375-3.1650390625-3.0615234375-4.474609375-1.361328125-1.3076171875-3.140625-2.22265625-5.337890625-2.7470703125-3.037109375-.8369140625-6.2802734375-1.1240234375-9.734375-.8642578125-3.453125.2626953125-6.490234375.8125-9.10546875,1.6484375-.9423828125.2119140625-2.43359375.2626953125-4.474609375.1572265625-2.041015625-.1025390625-3.638671875-.1572265625-4.7890625-.1572265625-1.255859375-.1025390625-2.330078125-.73046875-3.21875-1.8837890625-.8896484375-1.150390625-1.5693359375-2.51171875-2.041015625-4.08203125-.470703125-1.5693359375-.759765625-3.1396484375-.86328125-4.7099609375-.10546875-1.5693359375.052734375-2.9287109375.4716796875-4.08203125.3134765625-1.044921875.5498046875-3.0615234375.7060546875-6.0439453125.1572265625-2.9833984375.287109375-6.33203125.392578125-10.0478515625.103515625-3.71484375.181640625-7.4580078125.236328125-11.2255859375.05078125-3.7685546875.12890625-6.908203125.234375-9.419921875.103515625-1.9873046875.392578125-3.3486328125.86328125-4.08203125.4716796875-.7314453125,1.177734375-1.1513671875,2.1201171875-1.2568359375.9423828125-.1025390625,2.0927734375-.0244140625,3.4541015625.236328125,1.359375.26171875,2.9296875.4462890625,4.7099609375.548828125,7.2216796875.525390625,14.46875.890625,21.7451171875,1.099609375,7.2734375.2109375,14.73046875.10546875,22.3720703125-.314453125,1.255859375-.1025390625,2.3798828125-.1025390625,3.3759765625,0,.9921875.10546875,1.69921875.2626953125,2.119140625.470703125.5224609375.314453125,1.01953125.8125,1.4912109375,1.4921875.4716796875.681640625.8095703125,1.75390625,1.0205078125,3.2177734375.208984375,1.884765625.287109375,3.92578125.2353515625,6.123046875-.0537109375,2.1982421875-.2900390625,4.2666015625-.7060546875,6.2021484375-.419921875,1.9375-1.0478515625,3.6376953125-1.884765625,5.1025390625-.837890625,1.466796875-1.8828125,2.3544921875-3.1396484375,2.6689453125-.6279296875.2109375-1.9384765625.3408203125-3.9248046875.392578125-1.990234375.0537109375-4.396484375.0263671875-7.22265625-.0791015625-10.046875-.3134765625-20.095703125-1.255859375-30.1435546875-2.8251953125v9.576171875c8.7919921875-1.4638671875,16.8232421875-1.044921875,24.099609375,1.2568359375,7.2734375,2.302734375,13.1611328125,6.3330078125,17.6630859375,12.0888671875Z" fill="#fbf9f9" stroke-width="0"/>
          </g>
        </g>
      </a>
    </g>
  </a>
</svg>