<?xml version="1.0" encoding="UTF-8"?>
<svg id="Genral_2" data-name="Genral 2" xmlns="http://www.w3.org/2000/svg" xmlns:xlink="http://www.w3.org/1999/xlink" viewBox="0 0 280 280">
  <defs>
    <radialGradient id="radial-gradient" cx="5294.913192950353732" cy="391.076279101504952" fx="5294.913192950353732" fy="391.076279101504952" r="8.529868122682887" gradientTransform="translate(43924.337821786393761 -62294.866565432916104) rotate(128.094326000205001) scale(14.374999999999998 -10.235300064086916)" gradientUnits="userSpaceOnUse">
      <stop offset=".878261032104492" stop-color="#8f7ba9" stop-opacity="0"/>
      <stop offset="1" stop-color="#8f7ba9"/>
    </radialGradient>
    <radialGradient id="radial-gradient-2" cx="5367.859597324199058" cy="2671.826385626850424" fx="5367.859597324199058" fy="2671.826385626850424" r="8.529858924192469" gradientTransform="translate(-1587.973847024545648 14675.778304456795013) rotate(-51.905673999794992) scale(2.34375 -2.864579916000367)" gradientUnits="userSpaceOnUse">
      <stop offset=".166667003631592" stop-color="#a18dba"/>
      <stop offset="1" stop-color="#a18dba" stop-opacity="0"/>
    </radialGradient>
    <radialGradient id="radial-gradient-3" cx="5290.243519082571765" cy="-3560.616017543963608" fx="5290.243519082571765" fy="-3560.616017543963608" r="8.529858924189949" gradientTransform="translate(30670.544521392257593 -32253.782160112295969) rotate(128.094326000205001) scale(8.375 -1.142040014266968)" gradientUnits="userSpaceOnUse">
      <stop offset="0" stop-color="#a7a1b3"/>
      <stop offset="1" stop-color="#a7a1b3" stop-opacity="0"/>
    </radialGradient>
    <linearGradient id="linear-gradient" x1="169.683252644679669" y1="815.323439371678433" x2="189.663667273607132" y2="815.323439371678433" gradientTransform="translate(403.556872999226471 924.4130106389307) rotate(-30.274570582321083) scale(1 -1)" gradientUnits="userSpaceOnUse">
      <stop offset="0" stop-color="#67656e"/>
      <stop offset="1" stop-color="#a49fac"/>
    </linearGradient>
    <linearGradient id="linear-gradient-2" x1="188.2354327499379" y1="829.192475995218956" x2="184.344555376184047" y2="820.821150737827679" gradientTransform="translate(403.556872999226471 924.4130106389307) rotate(-30.274570582321083) scale(1 -1)" gradientUnits="userSpaceOnUse">
      <stop offset="0" stop-color="#696576"/>
      <stop offset="1" stop-color="#696576" stop-opacity="0"/>
    </linearGradient>
    <linearGradient id="linear-gradient-3" x1="126.775340976992084" y1="787.819372919028865" x2="147.528421187725598" y2="807.716315120448598" gradientTransform="translate(403.556872999226471 924.4130106389307) rotate(-30.274570582321083) scale(1 -1)" gradientUnits="userSpaceOnUse">
      <stop offset="0" stop-color="#948c9d"/>
      <stop offset="1" stop-color="#a19da8"/>
    </linearGradient>
    <linearGradient id="linear-gradient-4" x1="238.895022259961479" y1="803.758144695367264" x2="226.60013786198877" y2="790.139030697467433" gradientTransform="translate(403.556872999226471 924.4130106389307) rotate(-30.274570582321083) scale(1 -1)" gradientUnits="userSpaceOnUse">
      <stop offset="0" stop-color="#b7b6be"/>
      <stop offset="1" stop-color="#9993a0"/>
    </linearGradient>
    <linearGradient id="linear-gradient-5" x1="216.738407747014207" y1="807.614339144743099" x2="221.8453314367693" y2="802.507103992655857" gradientTransform="translate(403.556872999226471 924.4130106389307) rotate(-30.274570582321083) scale(1 -1)" gradientUnits="userSpaceOnUse">
      <stop offset="0" stop-color="#74717e"/>
      <stop offset="1" stop-color="#74717e" stop-opacity="0"/>
    </linearGradient>
    <linearGradient id="linear-gradient-6" x1="244.080988584255465" y1="780.869256707916975" x2="241.906146833349595" y2="782.950282577900339" gradientTransform="translate(403.556872999226471 924.4130106389307) rotate(-30.274570582321083) scale(1 -1)" gradientUnits="userSpaceOnUse">
      <stop offset="0" stop-color="#918a9d"/>
      <stop offset="1" stop-color="#918a9d" stop-opacity="0"/>
    </linearGradient>
    <linearGradient id="linear-gradient-7" x1="181.789356454015433" y1="812.296929654808082" x2="181.789356454015433" y2="679.130502112483555" gradientTransform="translate(403.556872999226471 924.4130106389307) rotate(-30.274570582321083) scale(1 -1)" gradientUnits="userSpaceOnUse">
      <stop offset=".37388599395752" stop-color="#4c2350"/>
      <stop offset="1" stop-color="#262f63"/>
    </linearGradient>
    <linearGradient id="linear-gradient-8" x1="231.421501991841069" y1="807.512677266685387" x2="149.089556352956777" y2="704.565645906373106" gradientTransform="translate(403.556872999226471 924.4130106389307) rotate(-30.274570582321083) scale(1 -1)" gradientUnits="userSpaceOnUse">
      <stop offset="0" stop-color="#5d3860"/>
      <stop offset="1" stop-color="#403f6a"/>
    </linearGradient>
    <linearGradient id="linear-gradient-9" x1="181.78950654185337" y1="803.784871076107265" x2="181.78950654185337" y2="687.642260515504859" gradientTransform="translate(403.556872999226471 924.4130106389307) rotate(-30.274570582321083) scale(1 -1)" gradientUnits="userSpaceOnUse">
      <stop offset="0" stop-color="#3a1d41"/>
      <stop offset="1" stop-color="#2f2a44"/>
    </linearGradient>
    <linearGradient id="linear-gradient-10" x1="181.729157958983706" y1="848.615046257259564" x2="181.729157958983706" y2="824.402968522289484" gradientTransform="translate(403.556872999226471 924.4130106389307) rotate(-30.274570582321083) scale(1 -1)" gradientUnits="userSpaceOnUse">
      <stop offset="0" stop-color="#4d234f"/>
      <stop offset="1" stop-color="#212153"/>
    </linearGradient>
    <linearGradient id="linear-gradient-11" x1="205.941627947930101" y1="836.509007389778162" x2="197.917147030221003" y2="836.509007389778162" gradientTransform="translate(403.556872999226471 924.4130106389307) rotate(-30.274570582321083) scale(1 -1)" gradientUnits="userSpaceOnUse">
      <stop offset="0" stop-color="#5d385f"/>
      <stop offset="1" stop-color="#5d385f" stop-opacity="0"/>
    </linearGradient>
    <linearGradient id="linear-gradient-12" x1="135.586238753394355" y1="724.262967180359738" x2="237.443424289021721" y2="771.552181737597493" gradientTransform="translate(403.556872999226471 924.4130106389307) rotate(-30.274570582321083) scale(1 -1)" gradientUnits="userSpaceOnUse">
      <stop offset="0" stop-color="#938d9c"/>
      <stop offset="1" stop-color="#897c91"/>
    </linearGradient>
    <radialGradient id="radial-gradient-4" cx="5112.065290674543576" cy="1078.945415421559119" fx="5112.065290674543576" fy="1078.945415421559119" r="6.053019433732101" gradientTransform="translate(18427.958313803155761 82856.885185857623583) rotate(-86.037070304950277) scale(15.877200423760085 -22.157700090371907)" gradientUnits="userSpaceOnUse">
      <stop offset=".455460014343262" stop-color="#e4ddea"/>
      <stop offset="1" stop-color="#d2c2da"/>
    </radialGradient>
    <radialGradient id="radial-gradient-5" cx="5036.731568568924558" cy="1002.948256320610199" fx="5036.731568568924558" fy="1002.948256320610199" r="6.053019433732889" gradientTransform="translate(-37224.370437827630667 84379.494922959958785) rotate(-54.7846689593447) scale(17.928000159243076 -17.928000159243073)" gradientUnits="userSpaceOnUse">
      <stop offset=".809954986572266" stop-color="#ad98b6" stop-opacity="0"/>
      <stop offset="1" stop-color="#ad98b6"/>
    </radialGradient>
    <linearGradient id="linear-gradient-13" x1="200.485277954790945" y1="765.788658567807033" x2="171.174737458595644" y2="737.761975252469369" gradientTransform="translate(403.556872999226471 924.4130106389307) rotate(-30.274570582321083) scale(1 -1)" gradientUnits="userSpaceOnUse">
      <stop offset="0" stop-color="#b7a1ac"/>
      <stop offset="1" stop-color="#bb9cc0"/>
    </linearGradient>
    <radialGradient id="radial-gradient-6" cx="8086.766729040105929" cy="2548.095661470454615" fx="8086.766729040105929" fy="2548.095661470454615" r="6.053019433745206" gradientTransform="translate(12639.998720835810673 -3576.362328177629024) rotate(-176.255575045840004) scale(1.508119978001525 -1.78161001539098)" gradientUnits="userSpaceOnUse">
      <stop offset="0" stop-color="#aba4b3"/>
      <stop offset="1" stop-color="#aba4b3" stop-opacity="0"/>
    </radialGradient>
    <radialGradient id="radial-gradient-7" cx="6220.635469566475876" cy="-2982.032539503188673" fx="6220.635469566475876" fy="-2982.032539503188673" r="6.053019433743142" gradientTransform="translate(1381.264370430937561 -12281.894395173643716) rotate(78.177431934502138) scale(1.927210021707148 -1.245190103787388)" xlink:href="#radial-gradient-6"/>
    <linearGradient id="linear-gradient-14" x1="221.133923604094889" y1="754.41493131964944" x2="221.133923604094889" y2="748.173055204279308" gradientTransform="translate(403.556872999226471 924.4130106389307) rotate(-30.274570582321083) scale(1 -1)" gradientUnits="userSpaceOnUse">
      <stop offset="0" stop-color="#86808e"/>
      <stop offset="1" stop-color="#86808e" stop-opacity="0"/>
    </linearGradient>
    <radialGradient id="radial-gradient-8" cx="8025.742185094493834" cy="-2841.242901863339284" fx="8025.742185094493834" fy="-2841.242901863339284" r="6.053019433742159" gradientTransform="translate(5819.766268641495117 -9891.343485965408036) rotate(106.095424140567474) scale(1.404000004606251 -.931237987397657)" xlink:href="#radial-gradient-6"/>
    <radialGradient id="radial-gradient-9" cx="4886.037137192047339" cy="-3461.087703935726495" fx="4886.037137192047339" fy="-3461.087703935726495" r="6.053019433744125" gradientTransform="translate(-2653.41752923182321 -9340.15306945176053) rotate(49.408130423996631) scale(1.86354985290668 -1.162339971198334)" xlink:href="#radial-gradient-6"/>
    <radialGradient id="radial-gradient-10" cx="9919.999929022664219" cy="856.646590203233245" fx="9919.999929022664219" fy="856.646590203233245" r="6.053019433738271" gradientTransform="translate(9057.490260241544092 -6481.241099238286552) rotate(148.121425523242237) scale(1.116689984568871 -1.113600061063174)" gradientUnits="userSpaceOnUse">
      <stop offset="0" stop-color="#a69faf"/>
      <stop offset="1" stop-color="#a69faf" stop-opacity="0"/>
    </radialGradient>
    <linearGradient id="linear-gradient-15" x1="215.975542242420488" y1="779.961094610559485" x2="203.142782117103906" y2="767.128348155518552" gradientTransform="translate(403.556872999226471 924.4130106389307) rotate(-30.274570582321083) scale(1 -1)" gradientUnits="userSpaceOnUse">
      <stop offset="0" stop-color="#9b9b9b"/>
      <stop offset="1" stop-color="#d3d3d3"/>
    </linearGradient>
    <radialGradient id="radial-gradient-11" cx="7799.281922392216075" cy="-1928.166443655110925" fx="7799.281922392216075" fy="-1928.166443655110925" r="6.053019433746008" gradientTransform="translate(7184.470613871839305 -11116.368244291454175) rotate(112.949430888068377) scale(1.688549974178534 -1.053190012538554)" xlink:href="#radial-gradient-6"/>
    <linearGradient id="linear-gradient-16" x1="182.973438117816841" y1="746.898720534122731" x2="216.454515167533827" y2="780.379177889338166" gradientTransform="translate(403.556872999226471 924.4130106389307) rotate(-30.274570582321083) scale(1 -1)" gradientUnits="userSpaceOnUse">
      <stop offset="0" stop-color="#ca2b7c"/>
      <stop offset="1" stop-color="#d82145"/>
    </linearGradient>
    <linearGradient id="linear-gradient-17" x1="177.534668705282456" y1="742.714077137666209" x2="182.455766321929843" y2="747.31376145433785" gradientTransform="translate(403.556872999226471 924.4130106389307) rotate(-30.274570582321083) scale(1 -1)" gradientUnits="userSpaceOnUse">
      <stop offset="0" stop-color="#a0356c"/>
      <stop offset="1" stop-color="#a0356c" stop-opacity="0"/>
    </linearGradient>
    <radialGradient id="radial-gradient-12" cx="9155.092999243990562" cy="-2460.229368134872857" fx="9155.092999243990562" fy="-2460.229368134872857" r="6.053019433742732" gradientTransform="translate(5313.787005604495789 -7846.654921890038167) rotate(107.587428047013688) scale(1.000979994434934 -1.000979994434934)" gradientUnits="userSpaceOnUse">
      <stop offset="0" stop-color="#e05661"/>
      <stop offset="1" stop-color="#e05661" stop-opacity="0"/>
    </radialGradient>
    <linearGradient id="linear-gradient-18" x1="213.504958730312865" y1="777.90106988966636" x2="177.347241623415613" y2="740.995205112609028" gradientTransform="translate(403.556872999226471 924.4130106389307) rotate(-30.274570582321083) scale(1 -1)" gradientUnits="userSpaceOnUse">
      <stop offset="0" stop-color="#e24f60"/>
      <stop offset="1" stop-color="#e24f60" stop-opacity="0"/>
    </linearGradient>
  </defs>
  <a xlink:href="https://www.notion.so/dmmnotes/cognitive-associations-7cd37a20bcfa492f8849d9170dbc1c7d?pvs=4">
    <g>
      <g>
        <g>
          <path d="M116.286860988144326,38.348282902466963c12.098157204434756-15.432498991694047,34.41599799843425-18.135497010721338,49.848301729638479-6.037492878840567,15.432300530218527,12.098001622493939,18.135160906613237,34.415734512886047,6.037003702174843,49.848233504581003l-62.081420665826045,79.191520298395517-.082619029975831.105389446943263-.051050952067271.065120972804834c-16.533793856388911,20.901224731081129-46.870312061822005,24.524354481938644-67.865110110862588,8.06568713264187-21.051458801079207-16.503085993736022-24.738601303037285-46.947225751030601-8.235201636030069-67.999084676061102l45.389616285825468-57.899330925170034c2.470249774779404-3.151068920193211,7.027867359524862-3.703302559216354,10.179201962022489-1.232844505383582,3.151401823320157,2.470510750939866,3.703090170285577,7.028134988124293,1.232840395507083,10.179203908317504l-45.389616285825468,57.899330925169124c-11.562378165128393,14.749055278390188-8.979267150580199,36.078508228044484,5.76952244551012,47.6406781141186,14.749055278391097,11.562378165125665,36.077998003738685,8.978546736774661,47.640376168866169-5.770508541615527l62.081420665827864-79.191520298396426c7.157085514832033-9.129631325226001,5.558173280813207-22.332851277712507-3.571323602767734-29.489831398327624-9.12963772720741-7.157090533602059-22.332811599164415-5.557821746775517-29.489897113996449,3.571809578449574l-52.707739148177097,67.23438268436621c-2.661284324472035,3.394754007574193-2.066491184960796,8.303724733059425,1.328189199808548,10.964951341649794,3.394677183777276,2.661224099204446,8.303643367500626,2.066871864454697,10.964927691969933-1.327882143117677l35.522308397602501-45.312519854477614c2.47024475600756-3.151062518211802,7.027862340743923-3.703296157240402,10.179200144236347-1.232835594020798,3.15126738167055,2.47040535672204,3.703290232258951,7.028291824757616,1.233045476251391,10.179354342970328l-35.522308397602501,45.312519854478523c-7.602305826349948,9.697557654209049-21.626190090697492,11.395550760043989-31.323536479465474,3.793410553177637-9.615919564830619-7.53830644169193-11.366611090566948-21.391286473416585-3.983224019933004-31.078356643170082l.107256951453564-.14027887442262,52.789836225834733-67.339106325060129Z" fill="none" stroke="#000" stroke-width="23"/>
          <path d="M116.286860988144326,38.348282902466963c12.098157204434756-15.432498991694047,34.41599799843425-18.135497010721338,49.848301729638479-6.037492878840567,15.432300530218527,12.098001622493939,18.135160906613237,34.415734512886047,6.037003702174843,49.848233504581003l-62.081420665826045,79.191520298395517-.082619029975831.105389446943263-.051050952067271.065120972804834c-16.533793856388911,20.901224731081129-46.870312061822005,24.524354481938644-67.865110110862588,8.06568713264187-21.051458801079207-16.503085993736022-24.738601303037285-46.947225751030601-8.235201636030069-67.999084676061102l45.389616285825468-57.899330925170034c2.470249774779404-3.151068920193211,7.027867359524862-3.703302559216354,10.179201962022489-1.232844505383582,3.151401823320157,2.470510750939866,3.703090170285577,7.028134988124293,1.232840395507083,10.179203908317504l-45.389616285825468,57.899330925169124c-11.562378165128393,14.749055278390188-8.979267150580199,36.078508228044484,5.76952244551012,47.6406781141186,14.749055278391097,11.562378165125665,36.077998003738685,8.978546736774661,47.640376168866169-5.770508541615527l62.081420665827864-79.191520298396426c7.157085514832033-9.129631325226001,5.558173280813207-22.332851277712507-3.571323602767734-29.489831398327624-9.12963772720741-7.157090533602059-22.332811599164415-5.557821746775517-29.489897113996449,3.571809578449574l-52.707739148177097,67.23438268436621c-2.661284324472035,3.394754007574193-2.066491184960796,8.303724733059425,1.328189199808548,10.964951341649794,3.394677183777276,2.661224099204446,8.303643367500626,2.066871864454697,10.964927691969933-1.327882143117677l35.522308397602501-45.312519854477614c2.47024475600756-3.151062518211802,7.027862340743923-3.703296157240402,10.179200144236347-1.232835594020798,3.15126738167055,2.47040535672204,3.703290232258951,7.028291824757616,1.233045476251391,10.179354342970328l-35.522308397602501,45.312519854478523c-7.602305826349948,9.697557654209049-21.626190090697492,11.395550760043989-31.323536479465474,3.793410553177637-9.615919564830619-7.53830644169193-11.366611090566948-21.391286473416585-3.983224019933004-31.078356643170082l.107256951453564-.14027887442262,52.789836225834733-67.339106325060129Z" fill="none" stroke="#000" stroke-width="23"/>
          <path d="M116.286860988144326,38.348282902466963c12.098157204434756-15.432498991694047,34.41599799843425-18.135497010721338,49.848301729638479-6.037492878840567,15.432300530218527,12.098001622493939,18.135160906613237,34.415734512886047,6.037003702174843,49.848233504581003l-62.081420665826045,79.191520298395517-.082619029975831.105389446943263-.051050952067271.065120972804834c-16.533793856388911,20.901224731081129-46.870312061822005,24.524354481938644-67.865110110862588,8.06568713264187-21.051458801079207-16.503085993736022-24.738601303037285-46.947225751030601-8.235201636030069-67.999084676061102l45.389616285825468-57.899330925170034c2.470249774779404-3.151068920193211,7.027867359524862-3.703302559216354,10.179201962022489-1.232844505383582,3.151401823320157,2.470510750939866,3.703090170285577,7.028134988124293,1.232840395507083,10.179203908317504l-45.389616285825468,57.899330925169124c-11.562378165128393,14.749055278390188-8.979267150580199,36.078508228044484,5.76952244551012,47.6406781141186,14.749055278391097,11.562378165125665,36.077998003738685,8.978546736774661,47.640376168866169-5.770508541615527l62.081420665827864-79.191520298396426c7.157085514832033-9.129631325226001,5.558173280813207-22.332851277712507-3.571323602767734-29.489831398327624-9.12963772720741-7.157090533602059-22.332811599164415-5.557821746775517-29.489897113996449,3.571809578449574l-52.707739148177097,67.23438268436621c-2.661284324472035,3.394754007574193-2.066491184960796,8.303724733059425,1.328189199808548,10.964951341649794,3.394677183777276,2.661224099204446,8.303643367500626,2.066871864454697,10.964927691969933-1.327882143117677l35.522308397602501-45.312519854477614c2.47024475600756-3.151062518211802,7.027862340743923-3.703296157240402,10.179200144236347-1.232835594020798,3.15126738167055,2.47040535672204,3.703290232258951,7.028291824757616,1.233045476251391,10.179354342970328l-35.522308397602501,45.312519854478523c-7.602305826349948,9.697557654209049-21.626190090697492,11.395550760043989-31.323536479465474,3.793410553177637-9.615919564830619-7.53830644169193-11.366611090566948-21.391286473416585-3.983224019933004-31.078356643170082l.107256951453564-.14027887442262,52.789836225834733-67.339106325060129Z" fill="none" stroke="#000" stroke-width="23"/>
          <path d="M116.286860988144326,38.348282902466963c12.098157204434756-15.432498991694047,34.41599799843425-18.135497010721338,49.848301729638479-6.037492878840567,15.432300530218527,12.098001622493939,18.135160906613237,34.415734512886047,6.037003702174843,49.848233504581003l-62.081420665826045,79.191520298395517-.082619029975831.105389446943263-.051050952067271.065120972804834c-16.533793856388911,20.901224731081129-46.870312061822005,24.524354481938644-67.865110110862588,8.06568713264187-21.051458801079207-16.503085993736022-24.738601303037285-46.947225751030601-8.235201636030069-67.999084676061102l45.389616285825468-57.899330925170034c2.470249774779404-3.151068920193211,7.027867359524862-3.703302559216354,10.179201962022489-1.232844505383582,3.151401823320157,2.470510750939866,3.703090170285577,7.028134988124293,1.232840395507083,10.179203908317504l-45.389616285825468,57.899330925169124c-11.562378165128393,14.749055278390188-8.979267150580199,36.078508228044484,5.76952244551012,47.6406781141186,14.749055278391097,11.562378165125665,36.077998003738685,8.978546736774661,47.640376168866169-5.770508541615527l62.081420665827864-79.191520298396426c7.157085514832033-9.129631325226001,5.558173280813207-22.332851277712507-3.571323602767734-29.489831398327624-9.12963772720741-7.157090533602059-22.332811599164415-5.557821746775517-29.489897113996449,3.571809578449574l-52.707739148177097,67.23438268436621c-2.661284324472035,3.394754007574193-2.066491184960796,8.303724733059425,1.328189199808548,10.964951341649794,3.394677183777276,2.661224099204446,8.303643367500626,2.066871864454697,10.964927691969933-1.327882143117677l35.522308397602501-45.312519854477614c2.47024475600756-3.151062518211802,7.027862340743923-3.703296157240402,10.179200144236347-1.232835594020798,3.15126738167055,2.47040535672204,3.703290232258951,7.028291824757616,1.233045476251391,10.179354342970328l-35.522308397602501,45.312519854478523c-7.602305826349948,9.697557654209049-21.626190090697492,11.395550760043989-31.323536479465474,3.793410553177637-9.615919564830619-7.53830644169193-11.366611090566948-21.391286473416585-3.983224019933004-31.078356643170082l.107256951453564-.14027887442262,52.789836225834733-67.339106325060129Z" fill="none" stroke="#000" stroke-width="23"/>
          <path d="M70.91679841756104,111.504048483486258l52.790358178153838-67.339772131310383c9.627285101887537-12.28063622559057,27.377713491494433-14.439508119648963,39.646464435326379-4.821540368576279,12.268613301196638,9.617859847465297,14.409850838637794,27.370609413125749,4.782565736746619,39.65124563871268M105.972147071985091,158.290891367652875l40.044433048796236-51.080975573856449" fill="none" stroke="#000" stroke-width="23"/>
          <path d="M70.998895495217766,111.399324842793249c-5.131524061707751,6.545810123800948-3.990287834513765,16.008313789369822,2.549149115048749,21.134841663231782,6.539433748561351,5.126525364469671,16.000790732337919,3.975821330966028,21.132314794042941-2.56998879283401l35.522308397601591-45.312519854478523" fill="none" stroke="#000" stroke-width="23"/>
          <path d="M106.053571941409245,158.185640755867098c-14.032627939906888,17.900124198587037-39.904165805795856,21.046890979023374-57.786498893155112,7.028210207397933-17.882269067525158-14.018630583898812-21.003091489979852-39.893675699865526-6.970463550073873-57.793799898451653l45.389616285826378-57.899330925170034" fill="none" stroke="#000" stroke-width="23"/>
        </g>
        <g>
          <path d="M116.286860988144326,38.348282902466963c12.098157204434756-15.432498991694047,34.41599799843425-18.135497010721338,49.848301729638479-6.037492878840567,15.432300530218527,12.098001622493939,18.135160906613237,34.415734512886047,6.037003702174843,49.848233504581003l-62.081420665826045,79.191520298395517-.082619029975831.105389446943263-.051050952067271.065120972804834c-16.533793856388911,20.901224731081129-46.870312061822005,24.524354481938644-67.865110110862588,8.06568713264187-21.051458801079207-16.503085993736022-24.738601303037285-46.947225751030601-8.235201636030069-67.999084676061102l45.389616285825468-57.899330925170034c2.470249774779404-3.151068920193211,7.027867359524862-3.703302559216354,10.179201962022489-1.232844505383582,3.151401823320157,2.470510750939866,3.703090170285577,7.028134988124293,1.232840395507083,10.179203908317504l-45.389616285825468,57.899330925169124c-11.562378165128393,14.749055278390188-8.979267150580199,36.078508228044484,5.76952244551012,47.6406781141186,14.749055278391097,11.562378165125665,36.077998003738685,8.978546736774661,47.640376168866169-5.770508541615527l62.081420665827864-79.191520298396426c7.157085514832033-9.129631325226001,5.558173280813207-22.332851277712507-3.571323602767734-29.489831398327624-9.12963772720741-7.157090533602059-22.332811599164415-5.557821746775517-29.489897113996449,3.571809578449574l-52.707739148177097,67.23438268436621c-2.661284324472035,3.394754007574193-2.066491184960796,8.303724733059425,1.328189199808548,10.964951341649794,3.394677183777276,2.661224099204446,8.303643367500626,2.066871864454697,10.964927691969933-1.327882143117677l35.522308397602501-45.312519854477614c2.47024475600756-3.151062518211802,7.027862340743923-3.703296157240402,10.179200144236347-1.232835594020798,3.15126738167055,2.47040535672204,3.703290232258951,7.028291824757616,1.233045476251391,10.179354342970328l-35.522308397602501,45.312519854478523c-7.602305826349948,9.697557654209049-21.626190090697492,11.395550760043989-31.323536479465474,3.793410553177637-9.615919564830619-7.53830644169193-11.366611090566948-21.391286473416585-3.983224019933004-31.078356643170082l.107256951453564-.14027887442262,52.789836225834733-67.339106325060129Z" fill="#ded7e9" stroke-width="0"/>
          <path d="M116.286860988144326,38.348282902466963c12.098157204434756-15.432498991694047,34.41599799843425-18.135497010721338,49.848301729638479-6.037492878840567,15.432300530218527,12.098001622493939,18.135160906613237,34.415734512886047,6.037003702174843,49.848233504581003l-62.081420665826045,79.191520298395517-.082619029975831.105389446943263-.051050952067271.065120972804834c-16.533793856388911,20.901224731081129-46.870312061822005,24.524354481938644-67.865110110862588,8.06568713264187-21.051458801079207-16.503085993736022-24.738601303037285-46.947225751030601-8.235201636030069-67.999084676061102l45.389616285825468-57.899330925170034c2.470249774779404-3.151068920193211,7.027867359524862-3.703302559216354,10.179201962022489-1.232844505383582,3.151401823320157,2.470510750939866,3.703090170285577,7.028134988124293,1.232840395507083,10.179203908317504l-45.389616285825468,57.899330925169124c-11.562378165128393,14.749055278390188-8.979267150580199,36.078508228044484,5.76952244551012,47.6406781141186,14.749055278391097,11.562378165125665,36.077998003738685,8.978546736774661,47.640376168866169-5.770508541615527l62.081420665827864-79.191520298396426c7.157085514832033-9.129631325226001,5.558173280813207-22.332851277712507-3.571323602767734-29.489831398327624-9.12963772720741-7.157090533602059-22.332811599164415-5.557821746775517-29.489897113996449,3.571809578449574l-52.707739148177097,67.23438268436621c-2.661284324472035,3.394754007574193-2.066491184960796,8.303724733059425,1.328189199808548,10.964951341649794,3.394677183777276,2.661224099204446,8.303643367500626,2.066871864454697,10.964927691969933-1.327882143117677l35.522308397602501-45.312519854477614c2.47024475600756-3.151062518211802,7.027862340743923-3.703296157240402,10.179200144236347-1.232835594020798,3.15126738167055,2.47040535672204,3.703290232258951,7.028291824757616,1.233045476251391,10.179354342970328l-35.522308397602501,45.312519854478523c-7.602305826349948,9.697557654209049-21.626190090697492,11.395550760043989-31.323536479465474,3.793410553177637-9.615919564830619-7.53830644169193-11.366611090566948-21.391286473416585-3.983224019933004-31.078356643170082l.107256951453564-.14027887442262,52.789836225834733-67.339106325060129Z" fill="url(#radial-gradient)" stroke-width="0"/>
          <path d="M116.286860988144326,38.348282902466963c12.098157204434756-15.432498991694047,34.41599799843425-18.135497010721338,49.848301729638479-6.037492878840567,15.432300530218527,12.098001622493939,18.135160906613237,34.415734512886047,6.037003702174843,49.848233504581003l-62.081420665826045,79.191520298395517-.082619029975831.105389446943263-.051050952067271.065120972804834c-16.533793856388911,20.901224731081129-46.870312061822005,24.524354481938644-67.865110110862588,8.06568713264187-21.051458801079207-16.503085993736022-24.738601303037285-46.947225751030601-8.235201636030069-67.999084676061102l45.389616285825468-57.899330925170034c2.470249774779404-3.151068920193211,7.027867359524862-3.703302559216354,10.179201962022489-1.232844505383582,3.151401823320157,2.470510750939866,3.703090170285577,7.028134988124293,1.232840395507083,10.179203908317504l-45.389616285825468,57.899330925169124c-11.562378165128393,14.749055278390188-8.979267150580199,36.078508228044484,5.76952244551012,47.6406781141186,14.749055278391097,11.562378165125665,36.077998003738685,8.978546736774661,47.640376168866169-5.770508541615527l62.081420665827864-79.191520298396426c7.157085514832033-9.129631325226001,5.558173280813207-22.332851277712507-3.571323602767734-29.489831398327624-9.12963772720741-7.157090533602059-22.332811599164415-5.557821746775517-29.489897113996449,3.571809578449574l-52.707739148177097,67.23438268436621c-2.661284324472035,3.394754007574193-2.066491184960796,8.303724733059425,1.328189199808548,10.964951341649794,3.394677183777276,2.661224099204446,8.303643367500626,2.066871864454697,10.964927691969933-1.327882143117677l35.522308397602501-45.312519854477614c2.47024475600756-3.151062518211802,7.027862340743923-3.703296157240402,10.179200144236347-1.232835594020798,3.15126738167055,2.47040535672204,3.703290232258951,7.028291824757616,1.233045476251391,10.179354342970328l-35.522308397602501,45.312519854478523c-7.602305826349948,9.697557654209049-21.626190090697492,11.395550760043989-31.323536479465474,3.793410553177637-9.615919564830619-7.53830644169193-11.366611090566948-21.391286473416585-3.983224019933004-31.078356643170082l.107256951453564-.14027887442262,52.789836225834733-67.339106325060129Z" fill="url(#radial-gradient-2)" stroke-width="0"/>
          <path d="M116.286860988144326,38.348282902466963c12.098157204434756-15.432498991694047,34.41599799843425-18.135497010721338,49.848301729638479-6.037492878840567,15.432300530218527,12.098001622493939,18.135160906613237,34.415734512886047,6.037003702174843,49.848233504581003l-62.081420665826045,79.191520298395517-.082619029975831.105389446943263-.051050952067271.065120972804834c-16.533793856388911,20.901224731081129-46.870312061822005,24.524354481938644-67.865110110862588,8.06568713264187-21.051458801079207-16.503085993736022-24.738601303037285-46.947225751030601-8.235201636030069-67.999084676061102l45.389616285825468-57.899330925170034c2.470249774779404-3.151068920193211,7.027867359524862-3.703302559216354,10.179201962022489-1.232844505383582,3.151401823320157,2.470510750939866,3.703090170285577,7.028134988124293,1.232840395507083,10.179203908317504l-45.389616285825468,57.899330925169124c-11.562378165128393,14.749055278390188-8.979267150580199,36.078508228044484,5.76952244551012,47.6406781141186,14.749055278391097,11.562378165125665,36.077998003738685,8.978546736774661,47.640376168866169-5.770508541615527l62.081420665827864-79.191520298396426c7.157085514832033-9.129631325226001,5.558173280813207-22.332851277712507-3.571323602767734-29.489831398327624-9.12963772720741-7.157090533602059-22.332811599164415-5.557821746775517-29.489897113996449,3.571809578449574l-52.707739148177097,67.23438268436621c-2.661284324472035,3.394754007574193-2.066491184960796,8.303724733059425,1.328189199808548,10.964951341649794,3.394677183777276,2.661224099204446,8.303643367500626,2.066871864454697,10.964927691969933-1.327882143117677l35.522308397602501-45.312519854477614c2.47024475600756-3.151062518211802,7.027862340743923-3.703296157240402,10.179200144236347-1.232835594020798,3.15126738167055,2.47040535672204,3.703290232258951,7.028291824757616,1.233045476251391,10.179354342970328l-35.522308397602501,45.312519854478523c-7.602305826349948,9.697557654209049-21.626190090697492,11.395550760043989-31.323536479465474,3.793410553177637-9.615919564830619-7.53830644169193-11.366611090566948-21.391286473416585-3.983224019933004-31.078356643170082l.107256951453564-.14027887442262,52.789836225834733-67.339106325060129Z" fill="url(#radial-gradient-3)" stroke-width="0"/>
          <path d="M70.91679841756104,111.504048483486258l52.790358178153838-67.339772131310383c9.627285101887537-12.28063622559057,27.377713491494433-14.439508119648963,39.646464435326379-4.821540368576279,12.268613301196638,9.617859847465297,14.409850838637794,27.370609413125749,4.782565736746619,39.65124563871268M105.972147071985091,158.290891367652875l40.044433048796236-51.080975573856449" fill="none" stroke="#e2deea" stroke-linecap="round" stroke-width="2.132464789630774"/>
          <path d="M70.998895495217766,111.399324842793249c-5.131524061707751,6.545810123800948-3.990287834513765,16.008313789369822,2.549149115048749,21.134841663231782,6.539433748561351,5.126525364469671,16.000790732337919,3.975821330966028,21.132314794042941-2.56998879283401l35.522308397601591-45.312519854478523" fill="none" stroke="#e2deea" stroke-linecap="round" stroke-width="2.132464789630774"/>
          <path d="M106.053571941409245,158.185640755867098c-14.032627939906888,17.900124198587037-39.904165805795856,21.046890979023374-57.786498893155112,7.028210207397933-17.882269067525158-14.018630583898812-21.003091489979852-39.893675699865526-6.970463550073873-57.793799898451653l45.389616285826378-57.899330925170034" fill="none" stroke="#e2deea" stroke-linecap="round" stroke-width="2.132464789630774"/>
        </g>
      </g>
      <g>
        <g>
          <path d="M155.390524663054748,114.691379803089148l-20.910024754992264,12.2063857272924,9.154787112796839,15.682514827242812,20.910024754992264-12.20638572729149-9.154787112796839-15.682514827243722Z" fill="none" stroke="#000" stroke-width="23"/>
          <path d="M155.390524663054748,114.691379803089148l-20.910024754992264,12.2063857272924,9.154787112796839,15.682514827242812,20.910024754992264-12.20638572729149-9.154787112796839-15.682514827243722Z" fill="none" stroke="#000" stroke-width="23"/>
          <path d="M132.70128661124636,164.311872687041614l-5.330977218441149,20.283795005252614c-1.087954619073571,4.13955032333979-5.269959570074207,6.580827468799725-9.357233647507201,5.462356194226231l-8.527473947992803-2.241184479146796c-4.13955032333979-1.08795461907539-6.580827468796997-5.269959570073297-5.462359104454663-9.357238632844201l5.330889494029179-20.283951005822018c1.087954619073571-4.13955032333979,5.269959570070569-6.580827468797906,9.357233647507201-5.462356194225322l8.610264356727384,2.262945524668794c4.026240766436786,1.01391878276263,6.498124784474385,5.248354525118884,5.379656420132051,9.335633587890698Z" fill="none" stroke="#000" stroke-width="23"/>
          <path d="M188.792412250390043,131.568252177177783l20.283799990589614,5.330974308214536c4.13955032333979,1.08795461907448,8.321550288999788-1.353319616154295,9.357228662169291-5.462353283998709l2.262950510006704-8.610267266951269c1.087954619076299-4.139550323341609-1.353322526381817-8.321555274340426-5.462356194226231-9.35723364750811l-20.28392222018374-5.331183692376726c-4.139551778454916-1.087957111742071-8.321551744118551,1.353317123488523-9.357228662170201,5.4623532839978l-2.262950510006704,8.610267266953088c-1.118471274574404,4.087274077437542,1.353441845747511,8.321759673166525,5.462478423821267,9.357443031669391Z" fill="none" stroke="#000" stroke-width="23"/>
          <path d="M188.792412250390043,131.568252177177783l20.283799990589614,5.330974308214536c4.13955032333979,1.08795461907448,8.321550288999788-1.353319616154295,9.357228662169291-5.462353283998709l2.262950510006704-8.610267266951269c1.087954619076299-4.139550323341609-1.353322526381817-8.321555274340426-5.462356194226231-9.35723364750811l-20.28392222018374-5.331183692376726c-4.139551778454916-1.087957111742071-8.321551744118551,1.353317123488523-9.357228662170201,5.4623532839978l-2.262950510006704,8.610267266953088c-1.118471274574404,4.087274077437542,1.353441845747511,8.321759673166525,5.462478423821267,9.357443031669391Z" fill="none" stroke="#000" stroke-width="23"/>
          <path d="M188.792412250390043,131.568252177177783l20.283799990589614,5.330974308214536c4.13955032333979,1.08795461907448,8.321550288999788-1.353319616154295,9.357228662169291-5.462353283998709l2.262950510006704-8.610267266951269c1.087954619076299-4.139550323341609-1.353322526381817-8.321555274340426-5.462356194226231-9.35723364750811l-20.28392222018374-5.331183692376726c-4.139551778454916-1.087957111742071-8.321551744118551,1.353317123488523-9.357228662170201,5.4623532839978l-2.262950510006704,8.610267266953088c-1.118471274574404,4.087274077437542,1.353441845747511,8.321759673166525,5.462478423821267,9.357443031669391Z" fill="none" stroke="#000" stroke-width="23"/>
          <path d="M218.173806695270287,246.254692739788879c31.757619973840519-18.538751805583161,42.473755500323023-59.312495035201209,23.935006604967384-91.070110023707457-18.538748895355639-31.757614988504429-59.312492124975506-42.473750514987842-91.070112098816026-23.934998709404681-31.757719680585978,18.538810010153611-42.473643330238701,59.312429555064227-23.934894434883063,91.070044543570475,18.538748895355639,31.757614988504429,59.312280248146635,42.473874199695274,91.069999928731704,23.935064189541663Z" fill="none" stroke="#000" stroke-width="23"/>
          <path d="M215.830098275568162,240.175897150636956c29.186207971496515-17.037670523654015,39.035109594646201-54.510011938173193,21.997136407233484-83.696738384737728-17.037670523654015-29.186207971496515-54.510379081361862-39.034547693353488-83.696587052856557-21.996877169699474-29.186731431902444,17.03797609763933-39.0348560633538,54.510211516024356-21.997185539699785,83.696419487519051,17.037973187411808,29.186726446565444,54.509904753422234,39.03517216455748,83.696636185322859,21.99719606691815Z" fill="none" stroke="#000" stroke-width="23"/>
          <path d="M213.882651568025722,238.903773152054782c27.697940241780998-16.168882935537113,37.044122169782895-51.730100052283888,20.875242144476033-79.428035308726976-16.168880025306862-27.697935256443998-51.729945810175195-37.043857946916432-79.427886051955284-20.874975011380229-27.697935256446726,16.168880025308681-37.043902094043915,51.729624002732635-20.875022068737962,79.427559259174814,16.168880025307772,27.697935256443998,51.729730719771396,37.044331086239254,79.427665976217213,20.875451060932392Z" fill="none" stroke="#000" stroke-width="23"/>
          <g>
            <path d="M159.206600878056634,112.463716335885692l-28.594453430898284,16.692229317197416c-3.659252462624863,2.136116410941213-8.378338759766848.895846316562711-10.514455170707151-2.763406146059424l-4.455329844638072-7.632157415338042c-2.08384587792807-3.689767454226057-.895850264344517-8.378339797317494,2.763402198280346-10.514456208259617l28.542177184995126-16.661712661700221c3.659257447959135-2.136119321168735,8.378343017540828-.895850473123573,10.514460156038695,2.763403235833721l4.455329844637163,7.632157415338042c2.1883926568471,3.628735807124031.948126510251313,8.347823141817571-2.711130937707821,10.483942462988125Z" fill="none" stroke="#000" stroke-width="23"/>
            <path d="M159.206600878056634,112.463716335885692l-28.594453430898284,16.692229317197416c-3.659252462624863,2.136116410941213-8.378338759766848.895846316562711-10.514455170707151-2.763406146059424l-4.455329844638072-7.632157415338042c-2.08384587792807-3.689767454226057-.895850264344517-8.378339797317494,2.763402198280346-10.514456208259617l28.542177184995126-16.661712661700221c3.659257447959135-2.136119321168735,8.378343017540828-.895850473123573,10.514460156038695,2.763403235833721l4.455329844637163,7.632157415338042c2.1883926568471,3.628735807124031.948126510251313,8.347823141817571-2.711130937707821,10.483942462988125Z" fill="none" stroke="#000" stroke-width="23"/>
          </g>
          <path d="M212.070615286738757,235.799682854960338c25.983841722127181-15.168264908983474,34.751450127430871-48.528071993554477,19.583188128672191-74.511908730348296-15.168261998757771-25.98383673679291-48.528069083329683-34.751445142091143-74.511910805456864-19.583180233106759-25.98331327638698,15.167956424771546-34.751337957344731,48.528006513415676-19.58307595858696,74.511843250209495s48.528485358984653,34.751202138018925,74.511798635371633,19.58324571324556Z" fill="none" stroke="#000" stroke-width="23"/>
          <g>
            <path d="M211.309241320378533,234.495418936051465c25.263490408394318-14.747754359733335,33.788265436938673-47.183606560844964,19.04051398743195-72.447091983905011-14.748059933721379-25.264013868803886-47.183609471076124-33.788270422277492-72.447099879470443-19.040516062543247-25.263485423059137,14.747751449505813-33.788515754657965,47.183057528378413-19.040455820935676,72.44707139718048,14.747751449505813,25.263485423060047,47.183556289914122,33.788288098774501,72.447041712974169,19.040536649267779Z" fill="none" stroke="#000" stroke-width="23"/>
            <path d="M211.309241320378533,234.495418936051465c25.263490408394318-14.747754359733335,33.788265436938673-47.183606560844964,19.04051398743195-72.447091983905011-14.748059933721379-25.264013868803886-47.183609471076124-33.788270422277492-72.447099879470443-19.040516062543247-25.263485423059137,14.747751449505813-33.788515754657965,47.183057528378413-19.040455820935676,72.44707139718048,14.747751449505813,25.263485423060047,47.183556289914122,33.788288098774501,72.447041712974169,19.040536649267779Z" fill="none" stroke="#000" stroke-width="23"/>
          </g>
          <path d="M181.197966933887983,197.081292600271809c-3.228849184381943-.848600364579397-5.151351917069405-4.141924091203691-4.302749477378711-7.370781171150156l10.770748238704982-40.981538726387043c.848610335253397-3.228855004837897,4.141934061878601-5.151357737525359,7.370791141823247-4.302755297834665,3.228844199043124.848603274807829,5.151349841958108,4.141931986769123,4.302749477377802,7.370781171150156l-10.770758209378073,40.981544546842997c-.848602439686147,3.228857079944646-4.14193115164926,5.15136272286145-7.370781171149247,4.302749477378711Z" fill="none" stroke="#000" stroke-width="23"/>
          <g>
            <path d="M161.069174780335743,160.438704423016134l-3.051595704267129-5.22750494241518c-1.678378219391561-2.875128715394567-.699214491906787-6.60072533751736,2.175909238151689-8.279100646682309,2.875128715393657-1.678378219388833,6.60072741262411-.699222387473128,8.279105632016581,2.175906327922348l3.05159570426531,5.227504942413361c1.678378219392471,2.875128715395476.699214491908606,6.60072533751736-2.175914223485051,8.279103556908012-2.927399975965272,1.708891964662143-6.600722427289838.699219477248334-8.2791006466814-2.175909238146232Z" fill="none" stroke="#000" stroke-width="23"/>
            <path d="M161.069174780335743,160.438704423016134l-3.051595704267129-5.22750494241518c-1.678378219391561-2.875128715394567-.699214491906787-6.60072533751736,2.175909238151689-8.279100646682309,2.875128715393657-1.678378219388833,6.60072741262411-.699222387473128,8.279105632016581,2.175906327922348l3.05159570426531,5.227504942413361c1.678378219392471,2.875128715395476.699214491908606,6.60072533751736-2.175914223485051,8.279103556908012-2.927399975965272,1.708891964662143-6.600722427289838.699219477248334-8.2791006466814-2.175909238146232Z" fill="none" stroke="#000" stroke-width="23"/>
          </g>
          <g>
            <path d="M200.739918935791138,228.396268674399835l-3.051595704266219-5.22750494241518c-1.67837530916313-2.875123730056657-.699214491907696-6.60072533751736,2.17590923814987-8.2791006466814,2.875128715393657-1.678378219390652,6.600730322853451-.699217402136128,8.27910563201749,2.175906327922348l3.051595704266219,5.227504942413361c1.67837530916222,2.875123730058476.699214491907696,6.60072533751736-2.175914223485961,8.279103556908012-2.927399975965272,1.708891964663053-6.60072533751827.699214491911334-8.2791006466814-2.175909238147142Z" fill="none" stroke="#000" stroke-width="23"/>
            <path d="M200.739918935791138,228.396268674399835l-3.051595704266219-5.22750494241518c-1.67837530916313-2.875123730056657-.699214491907696-6.60072533751736,2.17590923814987-8.2791006466814,2.875128715393657-1.678378219390652,6.600730322853451-.699217402136128,8.27910563201749,2.175906327922348l3.051595704266219,5.227504942413361c1.67837530916222,2.875123730058476.699214491907696,6.60072533751736-2.175914223485961,8.279103556908012-2.927399975965272,1.708891964663053-6.60072533751827.699214491911334-8.2791006466814-2.175909238147142Z" fill="none" stroke="#000" stroke-width="23"/>
          </g>
          <g>
            <path d="M212.919692883901007,165.215056294997339l5.22750494241518-3.051595704267129c2.875123730058476-1.67837530916313,6.600725337515541-.699214491909515,8.279100646678671,2.175909238148961s.699214491912244,6.600725337516451-2.175909238147142,8.27910064668049l-5.227504942414271,3.051595704266219c-2.875133700732476,1.678381129619083-6.60072533751736.699214491909515-8.27910064668049-2.175909238148961s-.751500708488493-6.570202861563303,2.175909238148051-8.279100646679581Z" fill="none" stroke="#000" stroke-width="23"/>
            <path d="M212.919692883901007,165.215056294997339l5.22750494241518-3.051595704267129c2.875123730058476-1.67837530916313,6.600725337515541-.699214491909515,8.279100646678671,2.175909238148961s.699214491912244,6.600725337516451-2.175909238147142,8.27910064668049l-5.227504942414271,3.051595704266219c-2.875133700732476,1.678381129619083-6.60072533751736.699214491909515-8.27910064668049-2.175909238148961s-.751500708488493-6.570202861563303,2.175909238148051-8.279100646679581Z" fill="none" stroke="#000" stroke-width="23"/>
          </g>
          <g>
            <path d="M144.962228339260037,204.885742245884103l5.22750494241609-3.051595704267129c2.875024023313017-1.678317104594498,6.600620645435811-.699153377113362,8.27899595459894,2.175970352945114s.699219477245606,6.600722427288929-2.175804546067411,8.279039531883427l-5.22750494241518,3.051595704267129c-2.875123730058476,1.67837530916222-6.60072284484886.6992130367953-8.27909815401199-2.175910693262267-1.678375309164039-2.875123730059386-.751493230482993-6.570207226906859,2.175906745479551-8.279099191566274Z" fill="none" stroke="#000" stroke-width="23"/>
            <path d="M144.962228339260037,204.885742245884103l5.22750494241609-3.051595704267129c2.875024023313017-1.678317104594498,6.600620645435811-.699153377113362,8.27899595459894,2.175970352945114s.699219477245606,6.600722427288929-2.175804546067411,8.279039531883427l-5.22750494241518,3.051595704267129c-2.875123730058476,1.67837530916222-6.60072284484886.6992130367953-8.27909815401199-2.175910693262267-1.678375309164039-2.875123730059386-.751493230482993-6.570207226906859,2.175906745479551-8.279099191566274Z" fill="none" stroke="#000" stroke-width="23"/>
          </g>
          <g>
            <path d="M221.285356666907319,192.152630976303044l5.87816385007136,1.544887746524182c3.228850019501806.848613245482738,5.151352752188359,4.141936972107942,4.302755297835574,7.370791141825066-.848613245480919,3.228850019499987-4.141936972105213,5.15135275218654-7.370781171150156,4.302749477377802l-5.878169670529132-1.544897717199092c-3.228844199043124-.848603274807829-5.15135275218654-4.141936972106123-4.302749477377802-7.370781171150156.796336999576852-3.198333364002792,4.089660726202055-5.120836096688436,7.370781171150156-4.302749477377802Z" fill="none" stroke="#000" stroke-width="23"/>
            <path d="M221.285356666907319,192.152630976303044l5.87816385007136,1.544887746524182c3.228850019501806.848613245482738,5.151352752188359,4.141936972107942,4.302755297835574,7.370791141825066-.848613245480919,3.228850019499987-4.141936972105213,5.15135275218654-7.370781171150156,4.302749477377802l-5.878169670529132-1.544897717199092c-3.228844199043124-.848603274807829-5.15135275218654-4.141936972106123-4.302749477377802-7.370781171150156.796336999576852-3.198333364002792,4.089660726202055-5.120836096688436,7.370781171150156-4.302749477377802Z" fill="none" stroke="#000" stroke-width="23"/>
          </g>
          <g>
            <path d="M145.147843378075777,172.186019185857731l5.878161774962791,1.544895642091433c3.228849184381033.848600364579397,5.151354827296927,4.141929076540691,4.302749477377802,7.370781171150156-.84860327480601,3.228844199041305-4.141931986767304,5.151349841957199-7.370781171149247,4.302749477378711l-5.878161774962791-1.544895642092342c-3.228847109272465-.848608260144829-5.151352752187449-4.141936972106123-4.302749477378711-7.370781171150156.818088694417384-3.281128340511714,4.111417406379587-5.203633983427608,7.370781171150156-4.302749477377802Z" fill="none" stroke="#000" stroke-width="23"/>
            <path d="M145.147843378075777,172.186019185857731l5.878161774962791,1.544895642091433c3.228849184381033.848600364579397,5.151354827296927,4.141929076540691,4.302749477377802,7.370781171150156-.84860327480601,3.228844199041305-4.141931986767304,5.151349841957199-7.370781171149247,4.302749477378711l-5.878161774962791-1.544895642092342c-3.228847109272465-.848608260144829-5.151352752187449-4.141936972106123-4.302749477378711-7.370781171150156.818088694417384-3.281128340511714,4.111417406379587-5.203633983427608,7.370781171150156-4.302749477377802Z" fill="none" stroke="#000" stroke-width="23"/>
          </g>
          <path d="M187.953641271114975,152.103334423751221l1.544900627428433-5.878164685194861c.848600364580307-3.228849184379214,4.141934061877691-5.15135773752263,7.370781171150156-4.302749477377802,3.228847109271555.848608260144829,5.15135275218654,4.141936972106123,4.302749477377802,7.370781171150156l-1.544900627424795,5.878164685193042c-.848600364581216,3.228849184381033-4.14192409120551,5.151351917067586-7.370781171153794,4.302749477379621-3.198330453771632-.796332014240761-5.15134984195538-4.141931986770942-4.302749477377802-7.370781171150156Z" fill="none" stroke="#000" stroke-width="23"/>
          <g>
            <path d="M167.95734185956826,228.188789353096581l1.544898552316226-5.87815678962761c.848602439689785-3.228857079946465,4.141931151651988-5.15136272286054,7.370781171150156-4.302749477377802,3.228849184381033.848600364579397,5.151351917067586,4.141924091203691,4.302749477377802,7.370781171150156l-1.544898552316226,5.87815678962761c-.848597454352785,3.228854169718034-4.141926166314079,5.151359812633018-7.370781171150156,4.302749477377802-3.198327543545929-.796327028903761-5.120836096688436-4.089660726202055-4.302749477377802-7.370781171150156Z" fill="none" stroke="#000" stroke-width="23"/>
            <path d="M167.95734185956826,228.188789353096581l1.544898552316226-5.87815678962761c.848602439689785-3.228857079946465,4.141931151651988-5.15136272286054,7.370781171150156-4.302749477377802,3.228849184381033.848600364579397,5.151351917067586,4.141924091203691,4.302749477377802,7.370781171150156l-1.544898552316226,5.87815678962761c-.848597454352785,3.228854169718034-4.141926166314079,5.151359812633018-7.370781171150156,4.302749477377802-3.198327543545929-.796327028903761-5.120836096688436-4.089660726202055-4.302749477377802-7.370781171150156Z" fill="none" stroke="#000" stroke-width="23"/>
          </g>
          <g>
            <path d="M183.061052732269673,194.6297766877924c-3.228844199044033-.848603274807829-5.151352752187449-4.141936972106123-4.302749477379621-7.370781171150156l10.770755299150551-40.981549532180907c.848600364579397-3.228849184380124,4.141934061877691-5.15135773752354,7.370781171150156-4.302749477378711,3.228844199044033.848603274809648,5.151349841958108,4.141931986769123,4.302749477377802,7.370781171151066l-10.770755299149641,40.981549532180907c-.848603274808738,3.228844199044033-4.141931986770942,5.151349841959018-7.370781171149247,4.302749477377802Z" fill="none" stroke="#000" stroke-width="23"/>
            <path d="M183.061052732269673,194.6297766877924c-3.228844199044033-.848603274807829-5.151352752187449-4.141936972106123-4.302749477379621-7.370781171150156l10.770755299150551-40.981549532180907c.848600364579397-3.228849184380124,4.141934061877691-5.15135773752354,7.370781171150156-4.302749477378711,3.228844199044033.848603274809648,5.151349841958108,4.141931986769123,4.302749477377802,7.370781171151066l-10.770755299149641,40.981549532180907c-.848603274808738,3.228844199044033-4.141931986770942,5.151349841959018-7.370781171149247,4.302749477377802Z" fill="none" stroke="#000" stroke-width="23"/>
            <path d="M183.061052732269673,194.6297766877924c-3.228844199044033-.848603274807829-5.151352752187449-4.141936972106123-4.302749477379621-7.370781171150156l10.770755299150551-40.981549532180907c.848600364579397-3.228849184380124,4.141934061877691-5.15135773752354,7.370781171150156-4.302749477378711,3.228844199044033.848603274809648,5.151349841958108,4.141931986769123,4.302749477377802,7.370781171151066l-10.770755299149641,40.981549532180907c-.848603274808738,3.228844199044033-4.141931986770942,5.151349841959018-7.370781171149247,4.302749477377802Z" fill="none" stroke="#000" stroke-width="23"/>
          </g>
          <path d="M195.543788574255814,146.920475010500923l-11.051624885461933,41.753885586683282" fill="none" stroke="#000" stroke-width="23"/>
        </g>
        <g>
          <path d="M155.390524663054748,114.691379803089148l-20.910024754992264,12.2063857272924,9.154787112796839,15.682514827242812,20.910024754992264-12.20638572729149-9.154787112796839-15.682514827243722Z" fill="url(#linear-gradient)" stroke-width="0"/>
          <path d="M155.390524663054748,114.691379803089148l-20.910024754992264,12.2063857272924,9.154787112796839,15.682514827242812,20.910024754992264-12.20638572729149-9.154787112796839-15.682514827243722Z" fill="url(#linear-gradient-2)" stroke-width="0"/>
          <path d="M132.70128661124636,164.311872687041614l-5.330977218441149,20.283795005252614c-1.087954619073571,4.13955032333979-5.269959570074207,6.580827468799725-9.357233647507201,5.462356194226231l-8.527473947992803-2.241184479146796c-4.13955032333979-1.08795461907539-6.580827468796997-5.269959570073297-5.462359104454663-9.357238632844201l5.330889494029179-20.283951005822018c1.087954619073571-4.13955032333979,5.269959570070569-6.580827468797906,9.357233647507201-5.462356194225322l8.610264356727384,2.262945524668794c4.026240766436786,1.01391878276263,6.498124784474385,5.248354525118884,5.379656420132051,9.335633587890698Z" fill="url(#linear-gradient-3)" stroke-width="0"/>
          <path d="M188.792412250390043,131.568252177177783l20.283799990589614,5.330974308214536c4.13955032333979,1.08795461907448,8.321550288999788-1.353319616154295,9.357228662169291-5.462353283998709l2.262950510006704-8.610267266951269c1.087954619076299-4.139550323341609-1.353322526381817-8.321555274340426-5.462356194226231-9.35723364750811l-20.28392222018374-5.331183692376726c-4.139551778454916-1.087957111742071-8.321551744118551,1.353317123488523-9.357228662170201,5.4623532839978l-2.262950510006704,8.610267266953088c-1.118471274574404,4.087274077437542,1.353441845747511,8.321759673166525,5.462478423821267,9.357443031669391Z" fill="url(#linear-gradient-4)" stroke-width="0"/>
          <path d="M188.792412250390043,131.568252177177783l20.283799990589614,5.330974308214536c4.13955032333979,1.08795461907448,8.321550288999788-1.353319616154295,9.357228662169291-5.462353283998709l2.262950510006704-8.610267266951269c1.087954619076299-4.139550323341609-1.353322526381817-8.321555274340426-5.462356194226231-9.35723364750811l-20.28392222018374-5.331183692376726c-4.139551778454916-1.087957111742071-8.321551744118551,1.353317123488523-9.357228662170201,5.4623532839978l-2.262950510006704,8.610267266953088c-1.118471274574404,4.087274077437542,1.353441845747511,8.321759673166525,5.462478423821267,9.357443031669391Z" fill="url(#linear-gradient-5)" stroke-width="0"/>
          <path d="M188.792412250390043,131.568252177177783l20.283799990589614,5.330974308214536c4.13955032333979,1.08795461907448,8.321550288999788-1.353319616154295,9.357228662169291-5.462353283998709l2.262950510006704-8.610267266951269c1.087954619076299-4.139550323341609-1.353322526381817-8.321555274340426-5.462356194226231-9.35723364750811l-20.28392222018374-5.331183692376726c-4.139551778454916-1.087957111742071-8.321551744118551,1.353317123488523-9.357228662170201,5.4623532839978l-2.262950510006704,8.610267266953088c-1.118471274574404,4.087274077437542,1.353441845747511,8.321759673166525,5.462478423821267,9.357443031669391Z" fill="url(#linear-gradient-6)" stroke-width="0"/>
          <path d="M218.173806695270287,246.254692739788879c31.757619973840519-18.538751805583161,42.473755500323023-59.312495035201209,23.935006604967384-91.070110023707457-18.538748895355639-31.757614988504429-59.312492124975506-42.473750514987842-91.070112098816026-23.934998709404681-31.757719680585978,18.538810010153611-42.473643330238701,59.312429555064227-23.934894434883063,91.070044543570475,18.538748895355639,31.757614988504429,59.312280248146635,42.473874199695274,91.069999928731704,23.935064189541663Z" fill="url(#linear-gradient-7)" stroke-width="0"/>
          <path d="M215.830098275568162,240.175897150636956c29.186207971496515-17.037670523654015,39.035109594646201-54.510011938173193,21.997136407233484-83.696738384737728-17.037670523654015-29.186207971496515-54.510379081361862-39.034547693353488-83.696587052856557-21.996877169699474-29.186731431902444,17.03797609763933-39.0348560633538,54.510211516024356-21.997185539699785,83.696419487519051,17.037973187411808,29.186726446565444,54.509904753422234,39.03517216455748,83.696636185322859,21.99719606691815Z" fill="none" stroke="url(#linear-gradient-8)" stroke-width="3.026509761810303"/>
          <path d="M213.882651568025722,238.903773152054782c27.697940241780998-16.168882935537113,37.044122169782895-51.730100052283888,20.875242144476033-79.428035308726976-16.168880025306862-27.697935256443998-51.729945810175195-37.043857946916432-79.427886051955284-20.874975011380229-27.697935256446726,16.168880025308681-37.043902094043915,51.729624002732635-20.875022068737962,79.427559259174814,16.168880025307772,27.697935256443998,51.729730719771396,37.044331086239254,79.427665976217213,20.875451060932392Z" fill="url(#linear-gradient-9)" stroke-width="0"/>
          <g>
            <path d="M159.206600878056634,112.463716335885692l-28.594453430898284,16.692229317197416c-3.659252462624863,2.136116410941213-8.378338759766848.895846316562711-10.514455170707151-2.763406146059424l-4.455329844638072-7.632157415338042c-2.08384587792807-3.689767454226057-.895850264344517-8.378339797317494,2.763402198280346-10.514456208259617l28.542177184995126-16.661712661700221c3.659257447959135-2.136119321168735,8.378343017540828-.895850473123573,10.514460156038695,2.763403235833721l4.455329844637163,7.632157415338042c2.1883926568471,3.628735807124031.948126510251313,8.347823141817571-2.711130937707821,10.483942462988125Z" fill="url(#linear-gradient-10)" stroke-width="0"/>
            <path d="M159.206600878056634,112.463716335885692l-28.594453430898284,16.692229317197416c-3.659252462624863,2.136116410941213-8.378338759766848.895846316562711-10.514455170707151-2.763406146059424l-4.455329844638072-7.632157415338042c-2.08384587792807-3.689767454226057-.895850264344517-8.378339797317494,2.763402198280346-10.514456208259617l28.542177184995126-16.661712661700221c3.659257447959135-2.136119321168735,8.378343017540828-.895850473123573,10.514460156038695,2.763403235833721l4.455329844637163,7.632157415338042c2.1883926568471,3.628735807124031.948126510251313,8.347823141817571-2.711130937707821,10.483942462988125Z" fill="url(#linear-gradient-11)" stroke-width="0"/>
          </g>
          <path d="M212.070615286738757,235.799682854960338c25.983841722127181-15.168264908983474,34.751450127430871-48.528071993554477,19.583188128672191-74.511908730348296-15.168261998757771-25.98383673679291-48.528069083329683-34.751445142091143-74.511910805456864-19.583180233106759-25.98331327638698,15.167956424771546-34.751337957344731,48.528006513415676-19.58307595858696,74.511843250209495s48.528485358984653,34.751202138018925,74.511798635371633,19.58324571324556Z" fill="url(#linear-gradient-12)" stroke-width="0"/>
          <g>
            <path d="M211.309241320378533,234.495418936051465c25.263490408394318-14.747754359733335,33.788265436938673-47.183606560844964,19.04051398743195-72.447091983905011-14.748059933721379-25.264013868803886-47.183609471076124-33.788270422277492-72.447099879470443-19.040516062543247-25.263485423059137,14.747751449505813-33.788515754657965,47.183057528378413-19.040455820935676,72.44707139718048,14.747751449505813,25.263485423060047,47.183556289914122,33.788288098774501,72.447041712974169,19.040536649267779Z" fill="url(#radial-gradient-4)" stroke-width="0"/>
            <path d="M211.309241320378533,234.495418936051465c25.263490408394318-14.747754359733335,33.788265436938673-47.183606560844964,19.04051398743195-72.447091983905011-14.748059933721379-25.264013868803886-47.183609471076124-33.788270422277492-72.447099879470443-19.040516062543247-25.263485423059137,14.747751449505813-33.788515754657965,47.183057528378413-19.040455820935676,72.44707139718048,14.747751449505813,25.263485423060047,47.183556289914122,33.788288098774501,72.447041712974169,19.040536649267779Z" fill="url(#radial-gradient-5)" stroke-width="0"/>
          </g>
          <path d="M181.197966933887983,197.081292600271809c-3.228849184381943-.848600364579397-5.151351917069405-4.141924091203691-4.302749477378711-7.370781171150156l10.770748238704982-40.981538726387043c.848610335253397-3.228855004837897,4.141934061878601-5.151357737525359,7.370791141823247-4.302755297834665,3.228844199043124.848603274807829,5.151349841958108,4.141931986769123,4.302749477377802,7.370781171150156l-10.770758209378073,40.981544546842997c-.848602439686147,3.228857079944646-4.14193115164926,5.15136272286145-7.370781171149247,4.302749477378711Z" fill="url(#linear-gradient-13)" stroke-width="0"/>
          <g>
            <path d="M161.069174780335743,160.438704423016134l-3.051595704267129-5.22750494241518c-1.678378219391561-2.875128715394567-.699214491906787-6.60072533751736,2.175909238151689-8.279100646682309,2.875128715393657-1.678378219388833,6.60072741262411-.699222387473128,8.279105632016581,2.175906327922348l3.05159570426531,5.227504942413361c1.678378219392471,2.875128715395476.699214491908606,6.60072533751736-2.175914223485051,8.279103556908012-2.927399975965272,1.708891964662143-6.600722427289838.699219477248334-8.2791006466814-2.175909238146232Z" fill="#9b93a5" stroke-width="0"/>
            <path d="M161.069174780335743,160.438704423016134l-3.051595704267129-5.22750494241518c-1.678378219391561-2.875128715394567-.699214491906787-6.60072533751736,2.175909238151689-8.279100646682309,2.875128715393657-1.678378219388833,6.60072741262411-.699222387473128,8.279105632016581,2.175906327922348l3.05159570426531,5.227504942413361c1.678378219392471,2.875128715395476.699214491908606,6.60072533751736-2.175914223485051,8.279103556908012-2.927399975965272,1.708891964662143-6.600722427289838.699219477248334-8.2791006466814-2.175909238146232Z" fill="url(#radial-gradient-6)" stroke-width="0"/>
          </g>
          <g>
            <path d="M200.739918935791138,228.396268674399835l-3.051595704266219-5.22750494241518c-1.67837530916313-2.875123730056657-.699214491907696-6.60072533751736,2.17590923814987-8.2791006466814,2.875128715393657-1.678378219390652,6.600730322853451-.699217402136128,8.27910563201749,2.175906327922348l3.051595704266219,5.227504942413361c1.67837530916222,2.875123730058476.699214491907696,6.60072533751736-2.175914223485961,8.279103556908012-2.927399975965272,1.708891964663053-6.60072533751827.699214491911334-8.2791006466814-2.175909238147142Z" fill="#9b93a5" stroke-width="0"/>
            <path d="M200.739918935791138,228.396268674399835l-3.051595704266219-5.22750494241518c-1.67837530916313-2.875123730056657-.699214491907696-6.60072533751736,2.17590923814987-8.2791006466814,2.875128715393657-1.678378219390652,6.600730322853451-.699217402136128,8.27910563201749,2.175906327922348l3.051595704266219,5.227504942413361c1.67837530916222,2.875123730058476.699214491907696,6.60072533751736-2.175914223485961,8.279103556908012-2.927399975965272,1.708891964663053-6.60072533751827.699214491911334-8.2791006466814-2.175909238147142Z" fill="url(#radial-gradient-7)" stroke-width="0"/>
          </g>
          <g>
            <path d="M212.919692883901007,165.215056294997339l5.22750494241518-3.051595704267129c2.875123730058476-1.67837530916313,6.600725337515541-.699214491909515,8.279100646678671,2.175909238148961s.699214491912244,6.600725337516451-2.175909238147142,8.27910064668049l-5.227504942414271,3.051595704266219c-2.875133700732476,1.678381129619083-6.60072533751736.699214491909515-8.27910064668049-2.175909238148961s-.751500708488493-6.570202861563303,2.175909238148051-8.279100646679581Z" fill="#9b93a5" stroke-width="0"/>
            <path d="M212.919692883901007,165.215056294997339l5.22750494241518-3.051595704267129c2.875123730058476-1.67837530916313,6.600725337515541-.699214491909515,8.279100646678671,2.175909238148961s.699214491912244,6.600725337516451-2.175909238147142,8.27910064668049l-5.227504942414271,3.051595704266219c-2.875133700732476,1.678381129619083-6.60072533751736.699214491909515-8.27910064668049-2.175909238148961s-.751500708488493-6.570202861563303,2.175909238148051-8.279100646679581Z" fill="url(#linear-gradient-14)" stroke-width="0"/>
          </g>
          <g>
            <path d="M144.962228339260037,204.885742245884103l5.22750494241609-3.051595704267129c2.875024023313017-1.678317104594498,6.600620645435811-.699153377113362,8.27899595459894,2.175970352945114s.699219477245606,6.600722427288929-2.175804546067411,8.279039531883427l-5.22750494241518,3.051595704267129c-2.875123730058476,1.67837530916222-6.60072284484886.6992130367953-8.27909815401199-2.175910693262267-1.678375309164039-2.875123730059386-.751493230482993-6.570207226906859,2.175906745479551-8.279099191566274Z" fill="#9b93a5" stroke-width="0"/>
            <path d="M144.962228339260037,204.885742245884103l5.22750494241609-3.051595704267129c2.875024023313017-1.678317104594498,6.600620645435811-.699153377113362,8.27899595459894,2.175970352945114s.699219477245606,6.600722427288929-2.175804546067411,8.279039531883427l-5.22750494241518,3.051595704267129c-2.875123730058476,1.67837530916222-6.60072284484886.6992130367953-8.27909815401199-2.175910693262267-1.678375309164039-2.875123730059386-.751493230482993-6.570207226906859,2.175906745479551-8.279099191566274Z" fill="url(#radial-gradient-8)" stroke-width="0"/>
          </g>
          <g>
            <path d="M221.285356666907319,192.152630976303044l5.87816385007136,1.544887746524182c3.228850019501806.848613245482738,5.151352752188359,4.141936972107942,4.302755297835574,7.370791141825066-.848613245480919,3.228850019499987-4.141936972105213,5.15135275218654-7.370781171150156,4.302749477377802l-5.878169670529132-1.544897717199092c-3.228844199043124-.848603274807829-5.15135275218654-4.141936972106123-4.302749477377802-7.370781171150156.796336999576852-3.198333364002792,4.089660726202055-5.120836096688436,7.370781171150156-4.302749477377802Z" fill="#9b93a5" stroke-width="0"/>
            <path d="M221.285356666907319,192.152630976303044l5.87816385007136,1.544887746524182c3.228850019501806.848613245482738,5.151352752188359,4.141936972107942,4.302755297835574,7.370791141825066-.848613245480919,3.228850019499987-4.141936972105213,5.15135275218654-7.370781171150156,4.302749477377802l-5.878169670529132-1.544897717199092c-3.228844199043124-.848603274807829-5.15135275218654-4.141936972106123-4.302749477377802-7.370781171150156.796336999576852-3.198333364002792,4.089660726202055-5.120836096688436,7.370781171150156-4.302749477377802Z" fill="url(#radial-gradient-9)" stroke-width="0"/>
          </g>
          <g>
            <path d="M145.147843378075777,172.186019185857731l5.878161774962791,1.544895642091433c3.228849184381033.848600364579397,5.151354827296927,4.141929076540691,4.302749477377802,7.370781171150156-.84860327480601,3.228844199041305-4.141931986767304,5.151349841957199-7.370781171149247,4.302749477378711l-5.878161774962791-1.544895642092342c-3.228847109272465-.848608260144829-5.151352752187449-4.141936972106123-4.302749477378711-7.370781171150156.818088694417384-3.281128340511714,4.111417406379587-5.203633983427608,7.370781171150156-4.302749477377802Z" fill="#9b93a5" stroke-width="0"/>
            <path d="M145.147843378075777,172.186019185857731l5.878161774962791,1.544895642091433c3.228849184381033.848600364579397,5.151354827296927,4.141929076540691,4.302749477377802,7.370781171150156-.84860327480601,3.228844199041305-4.141931986767304,5.151349841957199-7.370781171149247,4.302749477378711l-5.878161774962791-1.544895642092342c-3.228847109272465-.848608260144829-5.151352752187449-4.141936972106123-4.302749477378711-7.370781171150156.818088694417384-3.281128340511714,4.111417406379587-5.203633983427608,7.370781171150156-4.302749477377802Z" fill="url(#radial-gradient-10)" stroke-width="0"/>
          </g>
          <path d="M187.953641271114975,152.103334423751221l1.544900627428433-5.878164685194861c.848600364580307-3.228849184379214,4.141934061877691-5.15135773752263,7.370781171150156-4.302749477377802,3.228847109271555.848608260144829,5.15135275218654,4.141936972106123,4.302749477377802,7.370781171150156l-1.544900627424795,5.878164685193042c-.848600364581216,3.228849184381033-4.14192409120551,5.151351917067586-7.370781171153794,4.302749477379621-3.198330453771632-.796332014240761-5.15134984195538-4.141931986770942-4.302749477377802-7.370781171150156Z" fill="url(#linear-gradient-15)" stroke-width="0"/>
          <g>
            <path d="M167.95734185956826,228.188789353096581l1.544898552316226-5.87815678962761c.848602439689785-3.228857079946465,4.141931151651988-5.15136272286054,7.370781171150156-4.302749477377802,3.228849184381033.848600364579397,5.151351917067586,4.141924091203691,4.302749477377802,7.370781171150156l-1.544898552316226,5.87815678962761c-.848597454352785,3.228854169718034-4.141926166314079,5.151359812633018-7.370781171150156,4.302749477377802-3.198327543545929-.796327028903761-5.120836096688436-4.089660726202055-4.302749477377802-7.370781171150156Z" fill="#9b93a5" stroke-width="0"/>
            <path d="M167.95734185956826,228.188789353096581l1.544898552316226-5.87815678962761c.848602439689785-3.228857079946465,4.141931151651988-5.15136272286054,7.370781171150156-4.302749477377802,3.228849184381033.848600364579397,5.151351917067586,4.141924091203691,4.302749477377802,7.370781171150156l-1.544898552316226,5.87815678962761c-.848597454352785,3.228854169718034-4.141926166314079,5.151359812633018-7.370781171150156,4.302749477377802-3.198327543545929-.796327028903761-5.120836096688436-4.089660726202055-4.302749477377802-7.370781171150156Z" fill="url(#radial-gradient-11)" stroke-width="0"/>
          </g>
          <g>
            <path d="M183.061052732269673,194.6297766877924c-3.228844199044033-.848603274807829-5.151352752187449-4.141936972106123-4.302749477379621-7.370781171150156l10.770755299150551-40.981549532180907c.848600364579397-3.228849184380124,4.141934061877691-5.15135773752354,7.370781171150156-4.302749477378711,3.228844199044033.848603274809648,5.151349841958108,4.141931986769123,4.302749477377802,7.370781171151066l-10.770755299149641,40.981549532180907c-.848603274808738,3.228844199044033-4.141931986770942,5.151349841959018-7.370781171149247,4.302749477377802Z" fill="url(#linear-gradient-16)" stroke-width="0"/>
            <path d="M183.061052732269673,194.6297766877924c-3.228844199044033-.848603274807829-5.151352752187449-4.141936972106123-4.302749477379621-7.370781171150156l10.770755299150551-40.981549532180907c.848600364579397-3.228849184380124,4.141934061877691-5.15135773752354,7.370781171150156-4.302749477378711,3.228844199044033.848603274809648,5.151349841958108,4.141931986769123,4.302749477377802,7.370781171151066l-10.770755299149641,40.981549532180907c-.848603274808738,3.228844199044033-4.141931986770942,5.151349841959018-7.370781171149247,4.302749477377802Z" fill="url(#linear-gradient-17)" stroke-width="0"/>
            <path d="M183.061052732269673,194.6297766877924c-3.228844199044033-.848603274807829-5.151352752187449-4.141936972106123-4.302749477379621-7.370781171150156l10.770755299150551-40.981549532180907c.848600364579397-3.228849184380124,4.141934061877691-5.15135773752354,7.370781171150156-4.302749477378711,3.228844199044033.848603274809648,5.151349841958108,4.141931986769123,4.302749477377802,7.370781171151066l-10.770755299149641,40.981549532180907c-.848603274808738,3.228844199044033-4.141931986770942,5.151349841959018-7.370781171149247,4.302749477377802Z" fill="url(#radial-gradient-12)" stroke-width="0"/>
          </g>
          <path d="M195.543788574255814,146.920475010500923l-11.051624885461933,41.753885586683282" fill="none" stroke="url(#linear-gradient-18)" stroke-width="3.026509761810303"/>
        </g>
      </g>
    </g>
  </a>
  <circle cx="246.182600131573963" cy="41.837398571207586" r="14.120159241457371" fill="#000" stroke-width="0"/>
  <circle cx="215.762939286756591" cy="61.809092759485338" r="5.851534946819583" fill="#000" stroke-width="0"/>
  <circle cx="32.515788540365975" cy="210.877764626554381" r="12.921540412052307" fill="#000" stroke-width="0"/>
  <circle cx="32.515788540366884" cy="33.333758498702991" r="6.460770206026154" fill="#000" stroke-width="0"/>
  <circle cx="262.303022582919766" cy="255.346100897462748" r="6.460770206026154" fill="#000" stroke-width="0"/>
  <circle cx="95.176496063530976" cy="235.76008158995046" r="6.460770206026154" fill="#000" stroke-width="0"/>
</svg>