<?xml version="1.0" encoding="UTF-8"?>
<svg id="Genral_2" data-name="Genral 2" xmlns="http://www.w3.org/2000/svg" xmlns:xlink="http://www.w3.org/1999/xlink" viewBox="0 0 280 280">
  <defs>
    <linearGradient id="linear-gradient" x1="222.113232572788547" y1="857.443923584333788" x2="131.648575273370341" y2="762.211128444584801" gradientTransform="translate(-93.707960271522097 916.921691213191025) rotate(6.721755906102808) scale(1 -1)" gradientUnits="userSpaceOnUse">
      <stop offset="0" stop-color="#ffd05b"/>
      <stop offset="1" stop-color="#f9a158"/>
    </linearGradient>
    <linearGradient id="linear-gradient-2" x1="127.577139248160165" y1="706.195586307821031" x2="176.891119684365719" y2="810.217331446055596" gradientTransform="translate(-93.707960271522097 916.921691213191025) rotate(6.721755906102808) scale(1 -1)" gradientUnits="userSpaceOnUse">
      <stop offset="0" stop-color="#f58870"/>
      <stop offset="1" stop-color="#f58870" stop-opacity="0"/>
    </linearGradient>
    <linearGradient id="linear-gradient-3" x1="82.458632832676813" y1="871.114219734991821" x2="52.18855166916201" y2="839.248789635591493" gradientTransform="translate(-302.496964153713634 843.988677913142055) rotate(21.260038044486294) scale(1 -1)" gradientUnits="userSpaceOnUse">
      <stop offset="0" stop-color="#ffda73"/>
      <stop offset="1" stop-color="#f7aa68"/>
    </linearGradient>
    <linearGradient id="linear-gradient-4" x1="67.190544603670787" y1="815.986229414712398" x2="67.190544603670787" y2="851.010948588375413" gradientTransform="translate(-302.496964153713634 843.988677913142055) rotate(21.260038044486294) scale(1 -1)" gradientUnits="userSpaceOnUse">
      <stop offset="0" stop-color="#f89f72"/>
      <stop offset="1" stop-color="#f89f72" stop-opacity="0"/>
    </linearGradient>
    <radialGradient id="radial-gradient" cx="6412.525394204451004" cy="228.760603661735331" fx="6412.525394204451004" fy="228.760603661735331" r="8.720373499029293" gradientTransform="translate(13510.9711390310149 -43204.705270051919797) rotate(109.187237524069957) scale(7.075980193008844 -6.890669689071997)" gradientUnits="userSpaceOnUse">
      <stop offset=".364600982666016" stop-color="#fdbb66"/>
      <stop offset="1" stop-color="#f68e6d"/>
    </radialGradient>
  </defs>
  <a xlink:href="https://www.notion.so/dmmnotes/positive-cognitions-17f22672ce9446a099f8c4c34fa6db9b?pvs=4">
    <g>
      <g>
        <path d="M152.786783279138945,90.990787200132218c-2.014831316510026,5.205140823466536-7.1807885184935,8.656449576731575-13.055839974747869,10.776614494584464-16.368301360942496,3.588299629140238-29.408410955939871,7.358324674782125-40.286822647853114,11.228514825160346-9.630290133788549,3.425987120713216-11.217988305145809,17.65296546677564-2.611466841397487,23.16744484460196,10.056300607120647,6.44278888075587,22.862603328770092,12.99502568031221,37.042148169022767,20.644178788528734,3.812774327293482,2.057140785316733,8.936816343679311,7.202310671975283,9.694391423766319,12.874010250018728,2.335855672048638,17.477305213302316,6.117544621272827,36.1332726624114,10.658841993626083,53.479864726074084,3.525010789222506,13.465206627794942,15.991558619348325,14.92460653098442,22.574469775060606,2.660581198940235,8.545208100439595-15.92102472309216,15.667263164007636-33.366736530640082,23.329311237603179-49.860622279258678,1.97415149542303-5.139207472821909,6.464340547552638-8.857670319699537,11.832519738140036-10.075360918721344,14.508576437026932-3.292679139704887,28.58971676807505-7.278010516839458,40.100670723300027-10.808017388031658,10.749850197570595-3.296500732132699,12.683040637585691-17.884907712415043,3.155261479577348-23.855023370247181-10.17493700331579-6.375345539669979-22.882896115198491-13.866683711700716-36.781014200522804-20.854353412875753-4.891283097076666-2.458943388037369-8.360880889100372-6.841662323040509-9.52220245027911-12.618513950976194-3.910730241250349-19.466020533843221-5.915717748167481-35.815151321690792-10.472607094518025-53.085214191238265-3.551267298982566-13.458832756170523-16.899588343159849-14.630710724799428-23.48254759057545-2.366277344729497-8.415571254819952,15.679391695925005-14.866552336236055,31.513104242366353-22.175113740202505,48.692173728170019Z" fill="none" stroke="#000" stroke-width="23"/>
        <path d="M152.786783279138945,90.990787200132218c-2.014831316510026,5.205140823466536-7.1807885184935,8.656449576731575-13.055839974747869,10.776614494584464-16.368301360942496,3.588299629140238-29.408410955939871,7.358324674782125-40.286822647853114,11.228514825160346-9.630290133788549,3.425987120713216-11.217988305145809,17.65296546677564-2.611466841397487,23.16744484460196,10.056300607120647,6.44278888075587,22.862603328770092,12.99502568031221,37.042148169022767,20.644178788528734,3.812774327293482,2.057140785316733,8.936816343679311,7.202310671975283,9.694391423766319,12.874010250018728,2.335855672048638,17.477305213302316,6.117544621272827,36.1332726624114,10.658841993626083,53.479864726074084,3.525010789222506,13.465206627794942,15.991558619348325,14.92460653098442,22.574469775060606,2.660581198940235,8.545208100439595-15.92102472309216,15.667263164007636-33.366736530640082,23.329311237603179-49.860622279258678,1.97415149542303-5.139207472821909,6.464340547552638-8.857670319699537,11.832519738140036-10.075360918721344,14.508576437026932-3.292679139704887,28.58971676807505-7.278010516839458,40.100670723300027-10.808017388031658,10.749850197570595-3.296500732132699,12.683040637585691-17.884907712415043,3.155261479577348-23.855023370247181-10.17493700331579-6.375345539669979-22.882896115198491-13.866683711700716-36.781014200522804-20.854353412875753-4.891283097076666-2.458943388037369-8.360880889100372-6.841662323040509-9.52220245027911-12.618513950976194-3.910730241250349-19.466020533843221-5.915717748167481-35.815151321690792-10.472607094518025-53.085214191238265-3.551267298982566-13.458832756170523-16.899588343159849-14.630710724799428-23.48254759057545-2.366277344729497-8.415571254819952,15.679391695925005-14.866552336236055,31.513104242366353-22.175113740202505,48.692173728170019Z" fill="none" stroke="#000" stroke-width="23"/>
        <path d="M66.133650932078126,55.681870132396398c-1.08984771602627,1.516684165052538-3.052714161682161,2.200696455777688-5.133650932078126,2.393882758711698-5.603059024978393-.212803999463176-10.143315547279599-.086807864829098-13.991774452146274.252961691092423-3.406958619835677.300717777265163-5.116127970684829,4.775284158637987-2.791683352510518,7.284204522953587,2.715788059465922,2.93151232944183,6.31345755897928,6.129429164089743,10.263538730248001,9.798010537015216,1.062030630441768.986384840954997,2.28948995052906,3.083247718976963,2.05864610520257,4.983901567256908-.711463246365383,5.856929603505705-1.053514018728492,12.216935657415888-1.039938745708241,18.217211120690081.010891896819885,4.657193167166042,3.92614590543235,6.176892585470341,7.088172256679172,2.757869158956964,4.104932318035935-4.438847471892586,7.877305515683474-9.49141307247919,11.744429978827611-14.190151796632563,1.071360755770911-1.498457812582274,2.837371679984244-2.325849676689359,4.678609388509358-2.26945740595238,4.975445708291772.152294487771542,9.870921651063327.044149158065011,13.896398117693934-.132172404432822,3.758610916619546-.16480907852565,5.609533434879268-4.727627405587555,3.025204743918948-7.461484212591131-2.759906541678902-2.919518145457005-6.246587167584039-6.413447192281637-10.161530588577989-9.844049825864204-1.377883879828914-1.207491717742414-2.133562153596358-2.918265125685139-2.023954105870871-4.886673366171635.368258575410437-6.633430957952442,1.092095020277156-12.0971542412708,1.066785209230147-18.073567598066802-.01972796190239-4.657440122502521-4.244597162964965-6.158122446557172-7.406854596145422-2.738728419794825-4.04276283359286,4.371560058380965-7.462224072025492,8.958025713393909-11.272397757272302,13.908243672829485Z" fill="none" stroke="#000" stroke-width="23"/>
        <path d="M66.133650932078126,55.681870132396398c-1.08984771602627,1.516684165052538-3.052714161682161,2.200696455777688-5.133650932078126,2.393882758711698-5.603059024978393-.212803999463176-10.143315547279599-.086807864829098-13.991774452146274.252961691092423-3.406958619835677.300717777265163-5.116127970684829,4.775284158637987-2.791683352510518,7.284204522953587,2.715788059465922,2.93151232944183,6.31345755897928,6.129429164089743,10.263538730248001,9.798010537015216,1.062030630441768.986384840954997,2.28948995052906,3.083247718976963,2.05864610520257,4.983901567256908-.711463246365383,5.856929603505705-1.053514018728492,12.216935657415888-1.039938745708241,18.217211120690081.010891896819885,4.657193167166042,3.92614590543235,6.176892585470341,7.088172256679172,2.757869158956964,4.104932318035935-4.438847471892586,7.877305515683474-9.49141307247919,11.744429978827611-14.190151796632563,1.071360755770911-1.498457812582274,2.837371679984244-2.325849676689359,4.678609388509358-2.26945740595238,4.975445708291772.152294487771542,9.870921651063327.044149158065011,13.896398117693934-.132172404432822,3.758610916619546-.16480907852565,5.609533434879268-4.727627405587555,3.025204743918948-7.461484212591131-2.759906541678902-2.919518145457005-6.246587167584039-6.413447192281637-10.161530588577989-9.844049825864204-1.377883879828914-1.207491717742414-2.133562153596358-2.918265125685139-2.023954105870871-4.886673366171635.368258575410437-6.633430957952442,1.092095020277156-12.0971542412708,1.066785209230147-18.073567598066802-.01972796190239-4.657440122502521-4.244597162964965-6.158122446557172-7.406854596145422-2.738728419794825-4.04276283359286,4.371560058380965-7.462224072025492,8.958025713393909-11.272397757272302,13.908243672829485Z" fill="none" stroke="#000" stroke-width="23"/>
        <path d="M51.321305490600025,193.019674566226058c.167534505471849,2.669203713492607-1.387571003022458,5.207769107161766-3.518646470251952,7.309333144006814-6.403236431087862,4.846065911771802-11.321246611125389,9.103124941101669-15.278425939870431,12.970312337395626-3.503318690312881,3.423229603772597-1.339490068378836,9.93258072284425,3.512314151622377,10.605343599998378,5.669047989611499.786357930695885,12.556839804926312,1.067721737453212,20.262007660010568,1.550692790560788,2.071690159666105.12980420873464,5.334077612895271,1.341130983778385,6.801913688700552,3.656699914804449,4.523661450565669,7.136874868128871,9.913245651877332,14.497142102223734,15.369939607066954,21.133986985029878,4.23613737816413,5.152352409643754,9.954094094242464,3.286149613622001,10.357512411052994-3.372108365679196.52377573801823-8.642617440069444.122465924241624-17.66360439554046.146759550568277-26.379275944776964-.172014812455927-2.631991191845373,1.035566036655837-5.150960321409002,3.127279000446833-6.758221378366216,5.652966631187155-4.344105938018402,10.980989346333445-8.904309190627828,15.281796151571143-12.750396835792344,4.016076475435511-3.591078391383235,1.930170571174131-10.3275528459817-3.414122875441535-11.013304652771694-5.706326418989192-.732974762071535-12.73994556294565-1.442821556601302-20.190184309939468-1.695156759398742-2.622140257054525-.088151390084022-5.011524951159117-1.299403592082854-6.675816601024962-3.580363986393422-5.608213135297774-7.686176210399935-9.761293959741124-14.398035266887746-15.209804749490104-20.999026738143584-4.246142777995374-5.144494515418046-10.289834253495428-2.975997918253597-10.693331648780259,3.682285806724394-.515969792106262,8.511683998305671-.146169497858864,16.69645160642358.120810373759014,25.639200082801835Z" fill="none" stroke="#000" stroke-width="23"/>
      </g>
      <g>
        <path d="M152.786783279138945,90.990787200132218c-2.014831316510026,5.205140823466536-7.1807885184935,8.656449576731575-13.055839974747869,10.776614494584464-16.368301360942496,3.588299629140238-29.408410955939871,7.358324674782125-40.286822647853114,11.228514825160346-9.630290133788549,3.425987120713216-11.217988305145809,17.65296546677564-2.611466841397487,23.16744484460196,10.056300607120647,6.44278888075587,22.862603328770092,12.99502568031221,37.042148169022767,20.644178788528734,3.812774327293482,2.057140785316733,8.936816343679311,7.202310671975283,9.694391423766319,12.874010250018728,2.335855672048638,17.477305213302316,6.117544621272827,36.1332726624114,10.658841993626083,53.479864726074084,3.525010789222506,13.465206627794942,15.991558619348325,14.92460653098442,22.574469775060606,2.660581198940235,8.545208100439595-15.92102472309216,15.667263164007636-33.366736530640082,23.329311237603179-49.860622279258678,1.97415149542303-5.139207472821909,6.464340547552638-8.857670319699537,11.832519738140036-10.075360918721344,14.508576437026932-3.292679139704887,28.58971676807505-7.278010516839458,40.100670723300027-10.808017388031658,10.749850197570595-3.296500732132699,12.683040637585691-17.884907712415043,3.155261479577348-23.855023370247181-10.17493700331579-6.375345539669979-22.882896115198491-13.866683711700716-36.781014200522804-20.854353412875753-4.891283097076666-2.458943388037369-8.360880889100372-6.841662323040509-9.52220245027911-12.618513950976194-3.910730241250349-19.466020533843221-5.915717748167481-35.815151321690792-10.472607094518025-53.085214191238265-3.551267298982566-13.458832756170523-16.899588343159849-14.630710724799428-23.48254759057545-2.366277344729497-8.415571254819952,15.679391695925005-14.866552336236055,31.513104242366353-22.175113740202505,48.692173728170019Z" fill="url(#linear-gradient)" stroke-width="0"/>
        <path d="M152.786783279138945,90.990787200132218c-2.014831316510026,5.205140823466536-7.1807885184935,8.656449576731575-13.055839974747869,10.776614494584464-16.368301360942496,3.588299629140238-29.408410955939871,7.358324674782125-40.286822647853114,11.228514825160346-9.630290133788549,3.425987120713216-11.217988305145809,17.65296546677564-2.611466841397487,23.16744484460196,10.056300607120647,6.44278888075587,22.862603328770092,12.99502568031221,37.042148169022767,20.644178788528734,3.812774327293482,2.057140785316733,8.936816343679311,7.202310671975283,9.694391423766319,12.874010250018728,2.335855672048638,17.477305213302316,6.117544621272827,36.1332726624114,10.658841993626083,53.479864726074084,3.525010789222506,13.465206627794942,15.991558619348325,14.92460653098442,22.574469775060606,2.660581198940235,8.545208100439595-15.92102472309216,15.667263164007636-33.366736530640082,23.329311237603179-49.860622279258678,1.97415149542303-5.139207472821909,6.464340547552638-8.857670319699537,11.832519738140036-10.075360918721344,14.508576437026932-3.292679139704887,28.58971676807505-7.278010516839458,40.100670723300027-10.808017388031658,10.749850197570595-3.296500732132699,12.683040637585691-17.884907712415043,3.155261479577348-23.855023370247181-10.17493700331579-6.375345539669979-22.882896115198491-13.866683711700716-36.781014200522804-20.854353412875753-4.891283097076666-2.458943388037369-8.360880889100372-6.841662323040509-9.52220245027911-12.618513950976194-3.910730241250349-19.466020533843221-5.915717748167481-35.815151321690792-10.472607094518025-53.085214191238265-3.551267298982566-13.458832756170523-16.899588343159849-14.630710724799428-23.48254759057545-2.366277344729497-8.415571254819952,15.679391695925005-14.866552336236055,31.513104242366353-22.175113740202505,48.692173728170019Z" fill="url(#linear-gradient-2)" stroke-width="0"/>
        <path d="M66.133650932078126,55.681870132396398c-1.08984771602627,1.516684165052538-3.052714161682161,2.200696455777688-5.133650932078126,2.393882758711698-5.603059024978393-.212803999463176-10.143315547279599-.086807864829098-13.991774452146274.252961691092423-3.406958619835677.300717777265163-5.116127970684829,4.775284158637987-2.791683352510518,7.284204522953587,2.715788059465922,2.93151232944183,6.31345755897928,6.129429164089743,10.263538730248001,9.798010537015216,1.062030630441768.986384840954997,2.28948995052906,3.083247718976963,2.05864610520257,4.983901567256908-.711463246365383,5.856929603505705-1.053514018728492,12.216935657415888-1.039938745708241,18.217211120690081.010891896819885,4.657193167166042,3.92614590543235,6.176892585470341,7.088172256679172,2.757869158956964,4.104932318035935-4.438847471892586,7.877305515683474-9.49141307247919,11.744429978827611-14.190151796632563,1.071360755770911-1.498457812582274,2.837371679984244-2.325849676689359,4.678609388509358-2.26945740595238,4.975445708291772.152294487771542,9.870921651063327.044149158065011,13.896398117693934-.132172404432822,3.758610916619546-.16480907852565,5.609533434879268-4.727627405587555,3.025204743918948-7.461484212591131-2.759906541678902-2.919518145457005-6.246587167584039-6.413447192281637-10.161530588577989-9.844049825864204-1.377883879828914-1.207491717742414-2.133562153596358-2.918265125685139-2.023954105870871-4.886673366171635.368258575410437-6.633430957952442,1.092095020277156-12.0971542412708,1.066785209230147-18.073567598066802-.01972796190239-4.657440122502521-4.244597162964965-6.158122446557172-7.406854596145422-2.738728419794825-4.04276283359286,4.371560058380965-7.462224072025492,8.958025713393909-11.272397757272302,13.908243672829485Z" fill="url(#linear-gradient-3)" stroke-width="0"/>
        <path d="M66.133650932078126,55.681870132396398c-1.08984771602627,1.516684165052538-3.052714161682161,2.200696455777688-5.133650932078126,2.393882758711698-5.603059024978393-.212803999463176-10.143315547279599-.086807864829098-13.991774452146274.252961691092423-3.406958619835677.300717777265163-5.116127970684829,4.775284158637987-2.791683352510518,7.284204522953587,2.715788059465922,2.93151232944183,6.31345755897928,6.129429164089743,10.263538730248001,9.798010537015216,1.062030630441768.986384840954997,2.28948995052906,3.083247718976963,2.05864610520257,4.983901567256908-.711463246365383,5.856929603505705-1.053514018728492,12.216935657415888-1.039938745708241,18.217211120690081.010891896819885,4.657193167166042,3.92614590543235,6.176892585470341,7.088172256679172,2.757869158956964,4.104932318035935-4.438847471892586,7.877305515683474-9.49141307247919,11.744429978827611-14.190151796632563,1.071360755770911-1.498457812582274,2.837371679984244-2.325849676689359,4.678609388509358-2.26945740595238,4.975445708291772.152294487771542,9.870921651063327.044149158065011,13.896398117693934-.132172404432822,3.758610916619546-.16480907852565,5.609533434879268-4.727627405587555,3.025204743918948-7.461484212591131-2.759906541678902-2.919518145457005-6.246587167584039-6.413447192281637-10.161530588577989-9.844049825864204-1.377883879828914-1.207491717742414-2.133562153596358-2.918265125685139-2.023954105870871-4.886673366171635.368258575410437-6.633430957952442,1.092095020277156-12.0971542412708,1.066785209230147-18.073567598066802-.01972796190239-4.657440122502521-4.244597162964965-6.158122446557172-7.406854596145422-2.738728419794825-4.04276283359286,4.371560058380965-7.462224072025492,8.958025713393909-11.272397757272302,13.908243672829485Z" fill="url(#linear-gradient-4)" stroke-width="0"/>
        <path d="M51.321305490600025,193.019674566226058c.167534505471849,2.669203713492607-1.387571003022458,5.207769107161766-3.518646470251952,7.309333144006814-6.403236431087862,4.846065911771802-11.321246611125389,9.103124941101669-15.278425939870431,12.970312337395626-3.503318690312881,3.423229603772597-1.339490068378836,9.93258072284425,3.512314151622377,10.605343599998378,5.669047989611499.786357930695885,12.556839804926312,1.067721737453212,20.262007660010568,1.550692790560788,2.071690159666105.12980420873464,5.334077612895271,1.341130983778385,6.801913688700552,3.656699914804449,4.523661450565669,7.136874868128871,9.913245651877332,14.497142102223734,15.369939607066954,21.133986985029878,4.23613737816413,5.152352409643754,9.954094094242464,3.286149613622001,10.357512411052994-3.372108365679196.52377573801823-8.642617440069444.122465924241624-17.66360439554046.146759550568277-26.379275944776964-.172014812455927-2.631991191845373,1.035566036655837-5.150960321409002,3.127279000446833-6.758221378366216,5.652966631187155-4.344105938018402,10.980989346333445-8.904309190627828,15.281796151571143-12.750396835792344,4.016076475435511-3.591078391383235,1.930170571174131-10.3275528459817-3.414122875441535-11.013304652771694-5.706326418989192-.732974762071535-12.73994556294565-1.442821556601302-20.190184309939468-1.695156759398742-2.622140257054525-.088151390084022-5.011524951159117-1.299403592082854-6.675816601024962-3.580363986393422-5.608213135297774-7.686176210399935-9.761293959741124-14.398035266887746-15.209804749490104-20.999026738143584-4.246142777995374-5.144494515418046-10.289834253495428-2.975997918253597-10.693331648780259,3.682285806724394-.515969792106262,8.511683998305671-.146169497858864,16.69645160642358.120810373759014,25.639200082801835Z" fill="url(#radial-gradient)" stroke-width="0"/>
      </g>
    </g>
  </a>
  <circle cx="245.928855312409723" cy="49.520720139644254" r="6.460770206026154" fill="#000" stroke-width="0"/>
  <circle cx="179.805757797063052" cy="257.992458255671863" r="3.518180041344976" fill="#000" stroke-width="0"/>
  <circle cx="24.338345430523987" cy="130.671460455124361" r="6.460770206026154" fill="#000" stroke-width="0"/>
  <circle cx="80.148936170213346" cy="154.204521725702079" r="2.406531505671296" fill="#000" stroke-width="0"/>
  <circle cx="234.356814734888758" cy="209.799852307766514" r="13.895999082048204" fill="#000" stroke-width="0"/>
</svg>