<?xml version="1.0" encoding="UTF-8"?>
<svg id="Genral_2" data-name="Genral 2" xmlns="http://www.w3.org/2000/svg" xmlns:xlink="http://www.w3.org/1999/xlink" viewBox="0 0 280 280">
  <defs>
    <radialGradient id="radial-gradient" cx="4663.6634355027536" cy="442.730541747357165" fx="4663.6634355027536" fy="442.730541747357165" r="9.954642491494006" gradientTransform="translate(37950.162165070600167 -55446.367695671862748) rotate(128.094326000205001) scale(14.374999999999998 -10.235300064086916)" gradientUnits="userSpaceOnUse">
      <stop offset=".878261032104492" stop-color="#8f7ba9" stop-opacity="0"/>
      <stop offset="1" stop-color="#8f7ba9"/>
    </radialGradient>
    <radialGradient id="radial-gradient-2" cx="4924.165507432409868" cy="2486.493518311274784" fx="4924.165507432409868" fy="2486.493518311274784" r="9.954631756546338" gradientTransform="translate(-1317.985447860661225 13559.175227865318448) rotate(-51.905673999794992) scale(2.34375 -2.864579916000367)" gradientUnits="userSpaceOnUse">
      <stop offset=".166667003631592" stop-color="#a18dba"/>
      <stop offset="1" stop-color="#a18dba" stop-opacity="0"/>
    </radialGradient>
    <radialGradient id="radial-gradient-3" cx="4640.659747798648823" cy="-3092.665498524846953" fx="4640.659747798648823" fy="-3092.665498524846953" r="9.954631756544137" gradientTransform="translate(26937.265123982815567 -28263.787166425423493) rotate(128.094326000205001) scale(8.375 -1.142040014266968)" gradientUnits="userSpaceOnUse">
      <stop offset="0" stop-color="#6d605d"/>
      <stop offset="1" stop-color="#a7a1b3" stop-opacity="0"/>
    </radialGradient>
  </defs>
  <a xlink:href="https://www.notion.so/dmmnotes/procedural-actions-8c6df87c57bc40aa99694f09cfa6bd51?pvs=4">
    <g>
      <g>
        <path d="M156.793818213582654,65.3024143024777c14.118955656041635-18.010244473080093,40.164625189378512-21.164733915077704,58.174641786911252-7.045956899846715,18.010012861875566,14.11877408669352,21.164341670299109,40.164317692898294,7.045386014253381,58.174562165979296l-72.451102315279513,92.419163062097141-.096419181935744.12299302305837-.059578175109891.075998361715392c-19.295492556413137,24.392431024693906-54.699227857866845,28.620745091376193-79.200862086366669,9.41292769113079-24.567759228526484-19.259655449674028-28.870778324986532-54.788988715569758-9.610756808073347-79.357214902182022l52.971206172571328-67.570463173290591c2.882864426383094-3.677403227743525,8.201757170860219-4.321878425856994,11.87947045877263-1.438770930826649,3.677791736870859,2.883168994325388,4.321630560845733,8.202069502422091,1.438766134462639,11.879472730166526l-52.971206172571328,67.570463173289681c-13.493683528264228,17.212642712871457-10.479106245727962,42.104830446503001,6.733226406979156,55.598270906118159,17.212642712873276,13.49368352826059,42.104234997608728,10.478265498628389,55.597918525871137-6.734377214243068l72.451102315282242-92.41916306209805c8.352559096634195-10.654586286053018,6.486574835681495-26.06318727181133-4.167854552456902-34.415623369854984-10.654593757379189-8.35256495370686-26.063140965613002-6.486164583656318-34.415700062247197,4.16842170239488l-61.511701260627888,78.464782002824904c-3.105808159903972,3.961791906500366-2.41166459577471,9.6907255629867,1.550041390441038,12.796466366518871,3.961702250549934,3.105737874994702,9.690630606646664,2.412108861526576,12.796438766548818-1.54968304497288l41.455726569838134-52.881232048658603c2.8828585693077-3.677395756416445,8.201751313774821-4.32187095453628,11.879468337356229-1.438760530965737,3.677634838951235,2.883045995733482,4.321864039884531,8.202252536038031,1.439005470575921,11.879648292455386l-41.45572656983768,52.881232048659513c-8.872146148552929,11.317375380234807-25.238489940249565,13.29899034526079-36.555618766620682,4.427037480208128-11.222100988912644-8.797456717862588-13.265216779325783-24.964349531938751-4.648556168942378-36.269485665694447l.125172463522176-.163710156347406,61.607511306683136-78.586998007635884Z" fill="none" stroke="#000" stroke-width="23"/>
        <path d="M156.793818213582654,65.3024143024777c14.118955656041635-18.010244473080093,40.164625189378512-21.164733915077704,58.174641786911252-7.045956899846715,18.010012861875566,14.11877408669352,21.164341670299109,40.164317692898294,7.045386014253381,58.174562165979296l-72.451102315279513,92.419163062097141-.096419181935744.12299302305837-.059578175109891.075998361715392c-19.295492556413137,24.392431024693906-54.699227857866845,28.620745091376193-79.200862086366669,9.41292769113079-24.567759228526484-19.259655449674028-28.870778324986532-54.788988715569758-9.610756808073347-79.357214902182022l52.971206172571328-67.570463173290591c2.882864426383094-3.677403227743525,8.201757170860219-4.321878425856994,11.87947045877263-1.438770930826649,3.677791736870859,2.883168994325388,4.321630560845733,8.202069502422091,1.438766134462639,11.879472730166526l-52.971206172571328,67.570463173289681c-13.493683528264228,17.212642712871457-10.479106245727962,42.104830446503001,6.733226406979156,55.598270906118159,17.212642712873276,13.49368352826059,42.104234997608728,10.478265498628389,55.597918525871137-6.734377214243068l72.451102315282242-92.41916306209805c8.352559096634195-10.654586286053018,6.486574835681495-26.06318727181133-4.167854552456902-34.415623369854984-10.654593757379189-8.35256495370686-26.063140965613002-6.486164583656318-34.415700062247197,4.16842170239488l-61.511701260627888,78.464782002824904c-3.105808159903972,3.961791906500366-2.41166459577471,9.6907255629867,1.550041390441038,12.796466366518871,3.961702250549934,3.105737874994702,9.690630606646664,2.412108861526576,12.796438766548818-1.54968304497288l41.455726569838134-52.881232048658603c2.8828585693077-3.677395756416445,8.201751313774821-4.32187095453628,11.879468337356229-1.438760530965737,3.677634838951235,2.883045995733482,4.321864039884531,8.202252536038031,1.439005470575921,11.879648292455386l-41.45572656983768,52.881232048659513c-8.872146148552929,11.317375380234807-25.238489940249565,13.29899034526079-36.555618766620682,4.427037480208128-11.222100988912644-8.797456717862588-13.265216779325783-24.964349531938751-4.648556168942378-36.269485665694447l.125172463522176-.163710156347406,61.607511306683136-78.586998007635884Z" fill="none" stroke="#000" stroke-width="23"/>
        <path d="M156.793818213582654,65.3024143024777c14.118955656041635-18.010244473080093,40.164625189378512-21.164733915077704,58.174641786911252-7.045956899846715,18.010012861875566,14.11877408669352,21.164341670299109,40.164317692898294,7.045386014253381,58.174562165979296l-72.451102315279513,92.419163062097141-.096419181935744.12299302305837-.059578175109891.075998361715392c-19.295492556413137,24.392431024693906-54.699227857866845,28.620745091376193-79.200862086366669,9.41292769113079-24.567759228526484-19.259655449674028-28.870778324986532-54.788988715569758-9.610756808073347-79.357214902182022l52.971206172571328-67.570463173290591c2.882864426383094-3.677403227743525,8.201757170860219-4.321878425856994,11.87947045877263-1.438770930826649,3.677791736870859,2.883168994325388,4.321630560845733,8.202069502422091,1.438766134462639,11.879472730166526l-52.971206172571328,67.570463173289681c-13.493683528264228,17.212642712871457-10.479106245727962,42.104830446503001,6.733226406979156,55.598270906118159,17.212642712873276,13.49368352826059,42.104234997608728,10.478265498628389,55.597918525871137-6.734377214243068l72.451102315282242-92.41916306209805c8.352559096634195-10.654586286053018,6.486574835681495-26.06318727181133-4.167854552456902-34.415623369854984-10.654593757379189-8.35256495370686-26.063140965613002-6.486164583656318-34.415700062247197,4.16842170239488l-61.511701260627888,78.464782002824904c-3.105808159903972,3.961791906500366-2.41166459577471,9.6907255629867,1.550041390441038,12.796466366518871,3.961702250549934,3.105737874994702,9.690630606646664,2.412108861526576,12.796438766548818-1.54968304497288l41.455726569838134-52.881232048658603c2.8828585693077-3.677395756416445,8.201751313774821-4.32187095453628,11.879468337356229-1.438760530965737,3.677634838951235,2.883045995733482,4.321864039884531,8.202252536038031,1.439005470575921,11.879648292455386l-41.45572656983768,52.881232048659513c-8.872146148552929,11.317375380234807-25.238489940249565,13.29899034526079-36.555618766620682,4.427037480208128-11.222100988912644-8.797456717862588-13.265216779325783-24.964349531938751-4.648556168942378-36.269485665694447l.125172463522176-.163710156347406,61.607511306683136-78.586998007635884Z" fill="none" stroke="#000" stroke-width="23"/>
        <path d="M156.793818213582654,65.3024143024777c14.118955656041635-18.010244473080093,40.164625189378512-21.164733915077704,58.174641786911252-7.045956899846715,18.010012861875566,14.11877408669352,21.164341670299109,40.164317692898294,7.045386014253381,58.174562165979296l-72.451102315279513,92.419163062097141-.096419181935744.12299302305837-.059578175109891.075998361715392c-19.295492556413137,24.392431024693906-54.699227857866845,28.620745091376193-79.200862086366669,9.41292769113079-24.567759228526484-19.259655449674028-28.870778324986532-54.788988715569758-9.610756808073347-79.357214902182022l52.971206172571328-67.570463173290591c2.882864426383094-3.677403227743525,8.201757170860219-4.321878425856994,11.87947045877263-1.438770930826649,3.677791736870859,2.883168994325388,4.321630560845733,8.202069502422091,1.438766134462639,11.879472730166526l-52.971206172571328,67.570463173289681c-13.493683528264228,17.212642712871457-10.479106245727962,42.104830446503001,6.733226406979156,55.598270906118159,17.212642712873276,13.49368352826059,42.104234997608728,10.478265498628389,55.597918525871137-6.734377214243068l72.451102315282242-92.41916306209805c8.352559096634195-10.654586286053018,6.486574835681495-26.06318727181133-4.167854552456902-34.415623369854984-10.654593757379189-8.35256495370686-26.063140965613002-6.486164583656318-34.415700062247197,4.16842170239488l-61.511701260627888,78.464782002824904c-3.105808159903972,3.961791906500366-2.41166459577471,9.6907255629867,1.550041390441038,12.796466366518871,3.961702250549934,3.105737874994702,9.690630606646664,2.412108861526576,12.796438766548818-1.54968304497288l41.455726569838134-52.881232048658603c2.8828585693077-3.677395756416445,8.201751313774821-4.32187095453628,11.879468337356229-1.438760530965737,3.677634838951235,2.883045995733482,4.321864039884531,8.202252536038031,1.439005470575921,11.879648292455386l-41.45572656983768,52.881232048659513c-8.872146148552929,11.317375380234807-25.238489940249565,13.29899034526079-36.555618766620682,4.427037480208128-11.222100988912644-8.797456717862588-13.265216779325783-24.964349531938751-4.648556168942378-36.269485665694447l.125172463522176-.163710156347406,61.607511306683136-78.586998007635884Z" fill="none" stroke="#000" stroke-width="23"/>
        <path d="M103.845431883220044,150.677648957516794l61.608120442563177-78.587775025884184c11.235364952258351-14.331914800506638,31.950710857726335-16.85139078550219,46.268755135368792-5.626899494476675,14.317883644066569,11.224365363892503,16.816779742812287,31.942420159748508,5.581414790549843,46.274334960249689M144.756200754486599,205.279465482563864l46.733197869177275-59.613213550426735" fill="none" stroke="#000" stroke-width="23"/>
        <path d="M103.941241929273929,150.555432952707633c-5.988660872137189,7.639180191585183-4.65679987772819,18.682239675084929,2.974942605540491,24.665069828258311,7.631738747593772,5.982827224626817,18.673460014941156,4.639916982370778,24.662120887074707-2.999263209215314l41.45572656983768-52.881232048658603" fill="none" stroke="#000" stroke-width="23"/>
        <path d="M144.851226310963284,205.156634484796086c-16.376547954645503,20.89004594061953-46.569501287091043,24.562428426821498-67.438784403568206,8.202157285839348-20.869208403179073-16.360212570220028-24.511312952528897-46.557258981262748-8.134764997883394-67.447304921881369l52.971206172571328-67.570463173289681" fill="none" stroke="#000" stroke-width="23"/>
      </g>
      <g>
        <path d="M156.793818213582654,65.3024143024777c14.118955656041635-18.010244473080093,40.164625189378512-21.164733915077704,58.174641786911252-7.045956899846715,18.010012861875566,14.11877408669352,21.164341670299109,40.164317692898294,7.045386014253381,58.174562165979296l-72.451102315279513,92.419163062097141-.096419181935744.12299302305837-.059578175109891.075998361715392c-19.295492556413137,24.392431024693906-54.699227857866845,28.620745091376193-79.200862086366669,9.41292769113079-24.567759228526484-19.259655449674028-28.870778324986532-54.788988715569758-9.610756808073347-79.357214902182022l52.971206172571328-67.570463173290591c2.882864426383094-3.677403227743525,8.201757170860219-4.321878425856994,11.87947045877263-1.438770930826649,3.677791736870859,2.883168994325388,4.321630560845733,8.202069502422091,1.438766134462639,11.879472730166526l-52.971206172571328,67.570463173289681c-13.493683528264228,17.212642712871457-10.479106245727962,42.104830446503001,6.733226406979156,55.598270906118159,17.212642712873276,13.49368352826059,42.104234997608728,10.478265498628389,55.597918525871137-6.734377214243068l72.451102315282242-92.41916306209805c8.352559096634195-10.654586286053018,6.486574835681495-26.06318727181133-4.167854552456902-34.415623369854984-10.654593757379189-8.35256495370686-26.063140965613002-6.486164583656318-34.415700062247197,4.16842170239488l-61.511701260627888,78.464782002824904c-3.105808159903972,3.961791906500366-2.41166459577471,9.6907255629867,1.550041390441038,12.796466366518871,3.961702250549934,3.105737874994702,9.690630606646664,2.412108861526576,12.796438766548818-1.54968304497288l41.455726569838134-52.881232048658603c2.8828585693077-3.677395756416445,8.201751313774821-4.32187095453628,11.879468337356229-1.438760530965737,3.677634838951235,2.883045995733482,4.321864039884531,8.202252536038031,1.439005470575921,11.879648292455386l-41.45572656983768,52.881232048659513c-8.872146148552929,11.317375380234807-25.238489940249565,13.29899034526079-36.555618766620682,4.427037480208128-11.222100988912644-8.797456717862588-13.265216779325783-24.964349531938751-4.648556168942378-36.269485665694447l.125172463522176-.163710156347406,61.607511306683136-78.586998007635884Z" fill="#ded7e9" stroke-width="0"/>
        <path d="M156.793818213582654,65.3024143024777c14.118955656041635-18.010244473080093,40.164625189378512-21.164733915077704,58.174641786911252-7.045956899846715,18.010012861875566,14.11877408669352,21.164341670299109,40.164317692898294,7.045386014253381,58.174562165979296l-72.451102315279513,92.419163062097141-.096419181935744.12299302305837-.059578175109891.075998361715392c-19.295492556413137,24.392431024693906-54.699227857866845,28.620745091376193-79.200862086366669,9.41292769113079-24.567759228526484-19.259655449674028-28.870778324986532-54.788988715569758-9.610756808073347-79.357214902182022l52.971206172571328-67.570463173290591c2.882864426383094-3.677403227743525,8.201757170860219-4.321878425856994,11.87947045877263-1.438770930826649,3.677791736870859,2.883168994325388,4.321630560845733,8.202069502422091,1.438766134462639,11.879472730166526l-52.971206172571328,67.570463173289681c-13.493683528264228,17.212642712871457-10.479106245727962,42.104830446503001,6.733226406979156,55.598270906118159,17.212642712873276,13.49368352826059,42.104234997608728,10.478265498628389,55.597918525871137-6.734377214243068l72.451102315282242-92.41916306209805c8.352559096634195-10.654586286053018,6.486574835681495-26.06318727181133-4.167854552456902-34.415623369854984-10.654593757379189-8.35256495370686-26.063140965613002-6.486164583656318-34.415700062247197,4.16842170239488l-61.511701260627888,78.464782002824904c-3.105808159903972,3.961791906500366-2.41166459577471,9.6907255629867,1.550041390441038,12.796466366518871,3.961702250549934,3.105737874994702,9.690630606646664,2.412108861526576,12.796438766548818-1.54968304497288l41.455726569838134-52.881232048658603c2.8828585693077-3.677395756416445,8.201751313774821-4.32187095453628,11.879468337356229-1.438760530965737,3.677634838951235,2.883045995733482,4.321864039884531,8.202252536038031,1.439005470575921,11.879648292455386l-41.45572656983768,52.881232048659513c-8.872146148552929,11.317375380234807-25.238489940249565,13.29899034526079-36.555618766620682,4.427037480208128-11.222100988912644-8.797456717862588-13.265216779325783-24.964349531938751-4.648556168942378-36.269485665694447l.125172463522176-.163710156347406,61.607511306683136-78.586998007635884Z" fill="url(#radial-gradient)" stroke-width="0"/>
        <path d="M156.793818213582654,65.3024143024777c14.118955656041635-18.010244473080093,40.164625189378512-21.164733915077704,58.174641786911252-7.045956899846715,18.010012861875566,14.11877408669352,21.164341670299109,40.164317692898294,7.045386014253381,58.174562165979296l-72.451102315279513,92.419163062097141-.096419181935744.12299302305837-.059578175109891.075998361715392c-19.295492556413137,24.392431024693906-54.699227857866845,28.620745091376193-79.200862086366669,9.41292769113079-24.567759228526484-19.259655449674028-28.870778324986532-54.788988715569758-9.610756808073347-79.357214902182022l52.971206172571328-67.570463173290591c2.882864426383094-3.677403227743525,8.201757170860219-4.321878425856994,11.87947045877263-1.438770930826649,3.677791736870859,2.883168994325388,4.321630560845733,8.202069502422091,1.438766134462639,11.879472730166526l-52.971206172571328,67.570463173289681c-13.493683528264228,17.212642712871457-10.479106245727962,42.104830446503001,6.733226406979156,55.598270906118159,17.212642712873276,13.49368352826059,42.104234997608728,10.478265498628389,55.597918525871137-6.734377214243068l72.451102315282242-92.41916306209805c8.352559096634195-10.654586286053018,6.486574835681495-26.06318727181133-4.167854552456902-34.415623369854984-10.654593757379189-8.35256495370686-26.063140965613002-6.486164583656318-34.415700062247197,4.16842170239488l-61.511701260627888,78.464782002824904c-3.105808159903972,3.961791906500366-2.41166459577471,9.6907255629867,1.550041390441038,12.796466366518871,3.961702250549934,3.105737874994702,9.690630606646664,2.412108861526576,12.796438766548818-1.54968304497288l41.455726569838134-52.881232048658603c2.8828585693077-3.677395756416445,8.201751313774821-4.32187095453628,11.879468337356229-1.438760530965737,3.677634838951235,2.883045995733482,4.321864039884531,8.202252536038031,1.439005470575921,11.879648292455386l-41.45572656983768,52.881232048659513c-8.872146148552929,11.317375380234807-25.238489940249565,13.29899034526079-36.555618766620682,4.427037480208128-11.222100988912644-8.797456717862588-13.265216779325783-24.964349531938751-4.648556168942378-36.269485665694447l.125172463522176-.163710156347406,61.607511306683136-78.586998007635884Z" fill="url(#radial-gradient-2)" stroke-width="0"/>
        <path d="M156.793818213582654,65.3024143024777c14.118955656041635-18.010244473080093,40.164625189378512-21.164733915077704,58.174641786911252-7.045956899846715,18.010012861875566,14.11877408669352,21.164341670299109,40.164317692898294,7.045386014253381,58.174562165979296l-72.451102315279513,92.419163062097141-.096419181935744.12299302305837-.059578175109891.075998361715392c-19.295492556413137,24.392431024693906-54.699227857866845,28.620745091376193-79.200862086366669,9.41292769113079-24.567759228526484-19.259655449674028-28.870778324986532-54.788988715569758-9.610756808073347-79.357214902182022l52.971206172571328-67.570463173290591c2.882864426383094-3.677403227743525,8.201757170860219-4.321878425856994,11.87947045877263-1.438770930826649,3.677791736870859,2.883168994325388,4.321630560845733,8.202069502422091,1.438766134462639,11.879472730166526l-52.971206172571328,67.570463173289681c-13.493683528264228,17.212642712871457-10.479106245727962,42.104830446503001,6.733226406979156,55.598270906118159,17.212642712873276,13.49368352826059,42.104234997608728,10.478265498628389,55.597918525871137-6.734377214243068l72.451102315282242-92.41916306209805c8.352559096634195-10.654586286053018,6.486574835681495-26.06318727181133-4.167854552456902-34.415623369854984-10.654593757379189-8.35256495370686-26.063140965613002-6.486164583656318-34.415700062247197,4.16842170239488l-61.511701260627888,78.464782002824904c-3.105808159903972,3.961791906500366-2.41166459577471,9.6907255629867,1.550041390441038,12.796466366518871,3.961702250549934,3.105737874994702,9.690630606646664,2.412108861526576,12.796438766548818-1.54968304497288l41.455726569838134-52.881232048658603c2.8828585693077-3.677395756416445,8.201751313774821-4.32187095453628,11.879468337356229-1.438760530965737,3.677634838951235,2.883045995733482,4.321864039884531,8.202252536038031,1.439005470575921,11.879648292455386l-41.45572656983768,52.881232048659513c-8.872146148552929,11.317375380234807-25.238489940249565,13.29899034526079-36.555618766620682,4.427037480208128-11.222100988912644-8.797456717862588-13.265216779325783-24.964349531938751-4.648556168942378-36.269485665694447l.125172463522176-.163710156347406,61.607511306683136-78.586998007635884Z" fill="url(#radial-gradient-3)" stroke-width="0"/>
        <path d="M103.845431883220044,150.677648957516794l61.608120442563177-78.587775025884184c11.235364952258351-14.331914800506638,31.950710857726335-16.85139078550219,46.268755135368792-5.626899494476675,14.317883644066569,11.224365363892503,16.816779742812287,31.942420159748508,5.581414790549843,46.274334960249689M144.756200754486599,205.279465482563864l46.733197869177275-59.613213550426735" fill="none" stroke="#e2deea" stroke-linecap="round" stroke-width="2.488657996857561"/>
        <path d="M103.941241929273929,150.555432952707633c-5.988660872137189,7.639180191585183-4.65679987772819,18.682239675084929,2.974942605540491,24.665069828258311,7.631738747593772,5.982827224626817,18.673460014941156,4.639916982370778,24.662120887074707-2.999263209215314l41.45572656983768-52.881232048658603" fill="none" stroke="#e2deea" stroke-linecap="round" stroke-width="2.488657996857561"/>
        <path d="M144.851226310963284,205.156634484796086c-16.376547954645503,20.89004594061953-46.569501287091043,24.562428426821498-67.438784403568206,8.202157285839348-20.869208403179073-16.360212570220028-24.511312952528897-46.557258981262748-8.134764997883394-67.447304921881369l52.971206172571328-67.570463173289681" fill="none" stroke="#e2deea" stroke-linecap="round" stroke-width="2.488657996857561"/>
      </g>
    </g>
  </a>
  <circle cx="76.018433135947816" cy="33.280255882967367" r="3.804850500011866" fill="#000" stroke-width="0"/>
  <circle cx="232.70230050747432" cy="211.23494065546447" r="3.804850500012208" fill="#000" stroke-width="0"/>
  <circle cx="36.999999999999091" cy="92.672695007176344" r="7.886774193571341" fill="#000" stroke-width="0"/>
  <circle cx="52.357466614635996" cy="255.346100897462293" r="3.804850500012208" fill="#000" stroke-width="0"/>
  <circle cx="241.217610235553366" cy="148.99604652568064" r="10.761113168703671" fill="#000" stroke-width="0"/>
</svg>