<?xml version="1.0" encoding="UTF-8"?>
<svg id="Genral_2" data-name="Genral 2" xmlns="http://www.w3.org/2000/svg" xmlns:xlink="http://www.w3.org/1999/xlink" viewBox="0 0 280.000000000000455 280">
  <defs>
    <radialGradient id="radial-gradient" cx="139.999999999998636" cy="143.102244770122525" fx="139.999999999998636" fy="143.102244770122525" r="133.591606472249396" gradientUnits="userSpaceOnUse">
      <stop offset=".251207729468599" stop-color="#008c8d"/>
      <stop offset="1" stop-color="#008c8d" stop-opacity="0"/>
    </radialGradient>
    <linearGradient id="linear-gradient" x1="70.341954603190516" y1="1259.652541100327653" x2="182.293682195693862" y2="1220.96859951376905" gradientTransform="translate(361.35180340353827 1368.730710559476847) rotate(-15.614070734869957) scale(1 -1)" gradientUnits="userSpaceOnUse">
      <stop offset="0" stop-color="#fcbf83"/>
      <stop offset=".736387023925781" stop-color="#ffd8a4"/>
    </linearGradient>
    <linearGradient id="linear-gradient-2" x1="113.910931337135025" y1="1341.266930761619733" x2="113.910931337135025" y2="1293.510430888435621" gradientTransform="translate(361.35180340353827 1368.730710559476847) rotate(-15.614070734869957) scale(1 -1)" gradientUnits="userSpaceOnUse">
      <stop offset="0" stop-color="#ffd27d"/>
      <stop offset="1" stop-color="#ffd27d" stop-opacity="0"/>
    </linearGradient>
    <linearGradient id="linear-gradient-3" x1="113.910931337135025" y1="1343.381983173620029" x2="113.910931337135025" y2="1330.914096376285215" gradientTransform="translate(361.35180340353827 1368.730710559476847) rotate(-15.614070734869957) scale(1 -1)" gradientUnits="userSpaceOnUse">
      <stop offset="0" stop-color="#f8b76c"/>
      <stop offset="1" stop-color="#fec574" stop-opacity="0"/>
    </linearGradient>
    <radialGradient id="radial-gradient-2" cx="4066.955405352989601" cy="1979.430811298874687" fx="4066.955405352989601" fy="1979.430811298874687" r="7.124507226653463" gradientTransform="translate(13291.052505761763314 9770.278146476737675) rotate(-105.614070734869969) scale(3.125940084457397 -5.106249809265138)" gradientUnits="userSpaceOnUse">
      <stop offset="0" stop-color="#ffda8d"/>
      <stop offset="1" stop-color="#ffda8d" stop-opacity="0"/>
    </radialGradient>
    <radialGradient id="radial-gradient-3" cx="4070.727492741269543" cy="1383.734437143213654" fx="4070.727492741269543" fy="1383.734437143213654" r="7.12450722665327" gradientTransform="translate(31142.429419295651314 3271.182942970579461) rotate(-105.614070734869969) scale(2.769520044326782 -20.941400527954102)" gradientUnits="userSpaceOnUse">
      <stop offset="0" stop-color="#ffdd93"/>
      <stop offset="1" stop-color="#ffdd93" stop-opacity="0"/>
    </radialGradient>
    <radialGradient id="radial-gradient-4" cx="3035.53136168908668" cy="1216.972850123322132" fx="3035.53136168908668" fy="1216.972850123322132" r="7.124507226649281" gradientTransform="translate(-9451.115735336219586 10244.8788026272141) rotate(-15.614070734869957) scale(3.90625 -5.936769962310791)" gradientUnits="userSpaceOnUse">
      <stop offset="0" stop-color="#ec9261"/>
      <stop offset="1" stop-color="#c46242"/>
    </radialGradient>
    <linearGradient id="linear-gradient-4" x1="147.070484373296949" y1="1161.818115376468995" x2="147.070484373296949" y2="1141.447021082020001" gradientTransform="translate(361.35180340353827 1368.730710559476847) rotate(-15.614070734869957) scale(1 -1)" gradientUnits="userSpaceOnUse">
      <stop offset="0" stop-color="#e58f4f"/>
      <stop offset="1" stop-color="#ee9880"/>
    </linearGradient>
    <linearGradient id="linear-gradient-5" x1="147.070484373296949" y1="1141.44702108202182" x2="147.070484373296949" y2="1147.903238855360314" gradientTransform="translate(361.35180340353827 1368.730710559476847) rotate(-15.614070734869957) scale(1 -1)" gradientUnits="userSpaceOnUse">
      <stop offset="0" stop-color="#e07e98"/>
      <stop offset="1" stop-color="#e07e98" stop-opacity="0"/>
    </linearGradient>
    <linearGradient id="linear-gradient-6" x1="74.225248936002572" y1="1265.443648877964733" x2="163.503870013638164" y2="1265.443648877964733" gradientTransform="translate(16.2295846156632 1382.463102810562305) scale(1 -1)" gradientUnits="userSpaceOnUse">
      <stop offset="0" stop-color="#d37e48"/>
      <stop offset="1" stop-color="#de8650"/>
    </linearGradient>
    <linearGradient id="linear-gradient-7" x1="74.225248936000753" y1="1244.125699082740539" x2="163.503870013637993" y2="1244.125699082740539" gradientTransform="translate(21.967446791206072 1381.67639583645564) scale(1 -1)" xlink:href="#linear-gradient-6"/>
    <linearGradient id="linear-gradient-8" x1="74.225248936000298" y1="1222.807745890284423" x2="163.503870013637538" y2="1222.807745890284423" gradientTransform="translate(27.705308525716163 1380.889688608119968) scale(1 -1)" xlink:href="#linear-gradient-6"/>
    <linearGradient id="linear-gradient-9" x1="73.774266682766211" y1="1201.490509513314464" x2="131.604602596333308" y2="1201.490509513314464" gradientTransform="translate(34.086918749651396 1384.799601397892502) scale(1 -1)" xlink:href="#linear-gradient-6"/>
  </defs>
  <circle cx="139.999999999998636" cy="143.102244770122525" r="133.591606472249396" fill="url(#radial-gradient)" stroke-width="0"/>
  <a xlink:href="https://www.notion.so/dmmnotes/semantic-constructions-2477648bf2934c578347c35b7291e8b9?pvs=4">
    <g>
      <g>
        <path d="M99.004439143628588,234.671881654517165c3.177282717126218,11.368967855209121,14.968961813675378,18.009130625458965,26.337445433594439,14.831983237454551l115.628739895230865-32.314736179309875-48.029977628360029-171.861090232856441c-3.177186249406077-11.368622673969185-14.969308859443117-18.009034518510816-26.33758308031247-14.831945651209026L33.498887201504658,67.694685097884758l-.589684073540411.164798866465389.002723041379795.009743599371177c.194024887245178-.061177482457424.389690771293317-.119411393390692.586961032160616-.174542465836566,9.65144088740908-2.69728586776273,19.662182025800576,2.940236249675763,22.359487095670374,12.591745846149934l43.146064846453555,154.385450710482473Z" fill="none" stroke="#000" stroke-linecap="round" stroke-linejoin="round" stroke-width="23"/>
        <path d="M99.004439143628588,234.671881654517165c3.177282717126218,11.368967855209121,14.968961813675378,18.009130625458965,26.337445433594439,14.831983237454551l115.628739895230865-32.314736179309875-48.029977628360029-171.861090232856441c-3.177186249406077-11.368622673969185-14.969308859443117-18.009034518510816-26.33758308031247-14.831945651209026L33.498887201504658,67.694685097884758l-.589684073540411.164798866465389.002723041379795.009743599371177c.194024887245178-.061177482457424.389690771293317-.119411393390692.586961032160616-.174542465836566,9.65144088740908-2.69728586776273,19.662182025800576,2.940236249675763,22.359487095670374,12.591745846149934l43.146064846453555,154.385450710482473Z" fill="none" stroke="#000" stroke-linecap="round" stroke-linejoin="round" stroke-width="23"/>
        <path d="M99.004439143628588,234.671881654517165c3.177282717126218,11.368967855209121,14.968961813675378,18.009130625458965,26.337445433594439,14.831983237454551l115.628739895230865-32.314736179309875-48.029977628360029-171.861090232856441c-3.177186249406077-11.368622673969185-14.969308859443117-18.009034518510816-26.33758308031247-14.831945651209026L33.498887201504658,67.694685097884758l-.589684073540411.164798866465389.002723041379795.009743599371177c.194024887245178-.061177482457424.389690771293317-.119411393390692.586961032160616-.174542465836566,9.65144088740908-2.69728586776273,19.662182025800576,2.940236249675763,22.359487095670374,12.591745846149934l43.146064846453555,154.385450710482473Z" fill="none" stroke="#000" stroke-linecap="round" stroke-linejoin="round" stroke-width="23"/>
        <path d="M99.004439143628588,234.671881654517165c3.177282717126218,11.368967855209121,14.968961813675378,18.009130625458965,26.337445433594439,14.831983237454551l115.628739895230865-32.314736179309875-48.029977628360029-171.861090232856441c-3.177186249406077-11.368622673969185-14.969308859443117-18.009034518510816-26.33758308031247-14.831945651209026L33.498887201504658,67.694685097884758l-.589684073540411.164798866465389.002723041379795.009743599371177c.194024887245178-.061177482457424.389690771293317-.119411393390692.586961032160616-.174542465836566,9.65144088740908-2.69728586776273,19.662182025800576,2.940236249675763,22.359487095670374,12.591745846149934l43.146064846453555,154.385450710482473Z" fill="none" stroke="#000" stroke-linecap="round" stroke-linejoin="round" stroke-width="23"/>
        <path d="M99.004439143628588,234.671881654517165c3.177282717126218,11.368967855209121,14.968961813675378,18.009130625458965,26.337445433594439,14.831983237454551l115.628739895230865-32.314736179309875-48.029977628360029-171.861090232856441c-3.177186249406077-11.368622673969185-14.969308859443117-18.009034518510816-26.33758308031247-14.831945651209026L33.498887201504658,67.694685097884758l-.589684073540411.164798866465389.002723041379795.009743599371177c.194024887245178-.061177482457424.389690771293317-.119411393390692.586961032160616-.174542465836566,9.65144088740908-2.69728586776273,19.662182025800576,2.940236249675763,22.359487095670374,12.591745846149934l43.146064846453555,154.385450710482473Z" fill="none" stroke="#000" stroke-linecap="round" stroke-linejoin="round" stroke-width="23"/>
        <path d="M33.498887201504658,67.694685097884758c-9.651440887414537,2.697285867766368-15.288964508606114,12.708024780858977-12.591659438738134,22.359534377333148l1.351317969997581,4.835292270420723c.105890465634729.378897758609128.498935471679943.600241462960184.877900303424212.494332252412278l34.264988394029388-9.576028080419746-1.543060133042673-5.521384973596469c-2.697305069869799-9.65150959647417-12.708046208261294-15.289031713912664-22.359487095670374-12.591745846149934Z" fill="none" stroke="#000" stroke-linecap="round" stroke-linejoin="round" stroke-width="23"/>
        <g>
          <path d="M146.394007469855751,222.468768324096345c-.946902487141415.264630610759014-1.500819863353172,1.247202449499127-1.235995402774279,2.194798570979401l.023583842578773.084387815637456-.027912284356717.003370220836587c2.54823177210892,11.06096404186701-4.343720531863255,20.429679770944858-15.388820043444866,23.516451079828585l113.094069139904605-31.606372351822756c10.444013005606394-2.918785807362838,16.544392262539986-13.751434250487364,13.625606455178058-24.195447256091938-.109495889458231-.391798702973574-.515092897104296-.620209657608939-.90689160007696-.510713768148889l-109.183640107008614,30.513525688781556Z" fill="none" stroke="#000" stroke-linecap="round" stroke-linejoin="round" stroke-width="23"/>
          <path d="M146.394007469855751,222.468768324096345c-.946902487141415.264630610759014-1.500819863353172,1.247202449499127-1.235995402774279,2.194798570979401l.023583842578773.084387815637456-.027912284356717.003370220836587c2.54823177210892,11.06096404186701-4.343720531863255,20.429679770944858-15.388820043444866,23.516451079828585l113.094069139904605-31.606372351822756c10.444013005606394-2.918785807362838,16.544392262539986-13.751434250487364,13.625606455178058-24.195447256091938-.109495889458231-.391798702973574-.515092897104296-.620209657608939-.90689160007696-.510713768148889l-109.183640107008614,30.513525688781556Z" fill="none" stroke="#000" stroke-linecap="round" stroke-linejoin="round" stroke-width="23"/>
        </g>
        <rect x="89.174560474651926" y="113.415451775130563" width="99.07482533767255" height="7.208004343572867" rx="3.603998785932199" ry="3.603998785932199" transform="translate(-26.377570892962638 41.653635798162213) rotate(-15.614070741927845)" fill="none" stroke="#000" stroke-linecap="round" stroke-linejoin="round" stroke-width="23"/>
        <rect x="94.912421991592481" y="133.946694544342535" width="99.074825283653865" height="7.208004305921065" rx="3.603998749744505" ry="3.603998749744505" transform="translate(-31.69193794001086 43.955692331548349) rotate(-15.614070710143631)" fill="none" stroke="#000" stroke-linecap="round" stroke-linejoin="round" stroke-width="23"/>
        <rect x="100.6502843517071" y="154.477937162639137" width="99.074825339702798" height="7.208011138400025" rx="3.603998791411029" ry="3.603998791411029" transform="translate(-37.006305939673211 46.25774941991628) rotate(-15.614070740887591)" fill="none" stroke="#000" stroke-linecap="round" stroke-linejoin="round" stroke-width="23"/>
        <rect x="107.031894626863263" y="179.705086326305235" width="64.176198092618066" height="7.208011154031794" rx="3.603998670490869" ry="3.603998670490869" transform="translate(-44.204790286604947 44.209777023107847) rotate(-15.61407074337996)" fill="none" stroke="#000" stroke-linecap="round" stroke-linejoin="round" stroke-width="23"/>
      </g>
      <g>
        <path d="M99.004439143628588,234.671881654517165c3.177282717126218,11.368967855209121,14.968961813675378,18.009130625458965,26.337445433594439,14.831983237454551l115.628739895230865-32.314736179309875-48.029977628360029-171.861090232856441c-3.177186249406077-11.368622673969185-14.969308859443117-18.009034518510816-26.33758308031247-14.831945651209026L33.498887201504658,67.694685097884758l-.589684073540411.164798866465389.002723041379795.009743599371177c.194024887245178-.061177482457424.389690771293317-.119411393390692.586961032160616-.174542465836566,9.65144088740908-2.69728586776273,19.662182025800576,2.940236249675763,22.359487095670374,12.591745846149934l43.146064846453555,154.385450710482473Z" fill="url(#linear-gradient)" stroke-width="0"/>
        <path d="M99.004439143628588,234.671881654517165c3.177282717126218,11.368967855209121,14.968961813675378,18.009130625458965,26.337445433594439,14.831983237454551l115.628739895230865-32.314736179309875-48.029977628360029-171.861090232856441c-3.177186249406077-11.368622673969185-14.969308859443117-18.009034518510816-26.33758308031247-14.831945651209026L33.498887201504658,67.694685097884758l-.589684073540411.164798866465389.002723041379795.009743599371177c.194024887245178-.061177482457424.389690771293317-.119411393390692.586961032160616-.174542465836566,9.65144088740908-2.69728586776273,19.662182025800576,2.940236249675763,22.359487095670374,12.591745846149934l43.146064846453555,154.385450710482473Z" fill="url(#linear-gradient-2)" stroke-width="0"/>
        <path d="M99.004439143628588,234.671881654517165c3.177282717126218,11.368967855209121,14.968961813675378,18.009130625458965,26.337445433594439,14.831983237454551l115.628739895230865-32.314736179309875-48.029977628360029-171.861090232856441c-3.177186249406077-11.368622673969185-14.969308859443117-18.009034518510816-26.33758308031247-14.831945651209026L33.498887201504658,67.694685097884758l-.589684073540411.164798866465389.002723041379795.009743599371177c.194024887245178-.061177482457424.389690771293317-.119411393390692.586961032160616-.174542465836566,9.65144088740908-2.69728586776273,19.662182025800576,2.940236249675763,22.359487095670374,12.591745846149934l43.146064846453555,154.385450710482473Z" fill="url(#linear-gradient-3)" stroke-width="0"/>
        <path d="M99.004439143628588,234.671881654517165c3.177282717126218,11.368967855209121,14.968961813675378,18.009130625458965,26.337445433594439,14.831983237454551l115.628739895230865-32.314736179309875-48.029977628360029-171.861090232856441c-3.177186249406077-11.368622673969185-14.969308859443117-18.009034518510816-26.33758308031247-14.831945651209026L33.498887201504658,67.694685097884758l-.589684073540411.164798866465389.002723041379795.009743599371177c.194024887245178-.061177482457424.389690771293317-.119411393390692.586961032160616-.174542465836566,9.65144088740908-2.69728586776273,19.662182025800576,2.940236249675763,22.359487095670374,12.591745846149934l43.146064846453555,154.385450710482473Z" fill="url(#radial-gradient-2)" stroke-width="0"/>
        <path d="M99.004439143628588,234.671881654517165c3.177282717126218,11.368967855209121,14.968961813675378,18.009130625458965,26.337445433594439,14.831983237454551l115.628739895230865-32.314736179309875-48.029977628360029-171.861090232856441c-3.177186249406077-11.368622673969185-14.969308859443117-18.009034518510816-26.33758308031247-14.831945651209026L33.498887201504658,67.694685097884758l-.589684073540411.164798866465389.002723041379795.009743599371177c.194024887245178-.061177482457424.389690771293317-.119411393390692.586961032160616-.174542465836566,9.65144088740908-2.69728586776273,19.662182025800576,2.940236249675763,22.359487095670374,12.591745846149934l43.146064846453555,154.385450710482473Z" fill="url(#radial-gradient-3)" stroke-width="0"/>
        <path d="M33.498887201504658,67.694685097884758c-9.651440887414537,2.697285867766368-15.288964508606114,12.708024780858977-12.591659438738134,22.359534377333148l1.351317969997581,4.835292270420723c.105890465634729.378897758609128.498935471679943.600241462960184.877900303424212.494332252412278l34.264988394029388-9.576028080419746-1.543060133042673-5.521384973596469c-2.697305069869799-9.65150959647417-12.708046208261294-15.289031713912664-22.359487095670374-12.591745846149934Z" fill="url(#radial-gradient-4)" stroke-width="0"/>
        <g>
          <path d="M146.394007469855751,222.468768324096345c-.946902487141415.264630610759014-1.500819863353172,1.247202449499127-1.235995402774279,2.194798570979401l.023583842578773.084387815637456-.027912284356717.003370220836587c2.54823177210892,11.06096404186701-4.343720531863255,20.429679770944858-15.388820043444866,23.516451079828585l113.094069139904605-31.606372351822756c10.444013005606394-2.918785807362838,16.544392262539986-13.751434250487364,13.625606455178058-24.195447256091938-.109495889458231-.391798702973574-.515092897104296-.620209657608939-.90689160007696-.510713768148889l-109.183640107008614,30.513525688781556Z" fill="url(#linear-gradient-4)" stroke-width="0"/>
          <path d="M146.394007469855751,222.468768324096345c-.946902487141415.264630610759014-1.500819863353172,1.247202449499127-1.235995402774279,2.194798570979401l.023583842578773.084387815637456-.027912284356717.003370220836587c2.54823177210892,11.06096404186701-4.343720531863255,20.429679770944858-15.388820043444866,23.516451079828585l113.094069139904605-31.606372351822756c10.444013005606394-2.918785807362838,16.544392262539986-13.751434250487364,13.625606455178058-24.195447256091938-.109495889458231-.391798702973574-.515092897104296-.620209657608939-.90689160007696-.510713768148889l-109.183640107008614,30.513525688781556Z" fill="url(#linear-gradient-5)" stroke-width="0"/>
        </g>
        <rect x="89.174560474651926" y="113.415451775130563" width="99.07482533767255" height="7.208004343572867" rx="3.603998785932199" ry="3.603998785932199" transform="translate(-26.377570892962638 41.653635798162213) rotate(-15.614070741927845)" fill="url(#linear-gradient-6)" stroke-width="0"/>
        <rect x="94.912421991592481" y="133.946694544342535" width="99.074825283653865" height="7.208004305921065" rx="3.603998749744505" ry="3.603998749744505" transform="translate(-31.69193794001086 43.955692331548349) rotate(-15.614070710143631)" fill="url(#linear-gradient-7)" stroke-width="0"/>
        <rect x="100.6502843517071" y="154.477937162639137" width="99.074825339702798" height="7.208011138400025" rx="3.603998791411029" ry="3.603998791411029" transform="translate(-37.006305939673211 46.25774941991628) rotate(-15.614070740887591)" fill="url(#linear-gradient-8)" stroke-width="0"/>
        <rect x="107.031894626863263" y="179.705086326305235" width="64.176198092618066" height="7.208011154031794" rx="3.603998670490869" ry="3.603998670490869" transform="translate(-44.204790286604947 44.209777023107847) rotate(-15.61407074337996)" fill="url(#linear-gradient-9)" stroke-width="0"/>
      </g>
    </g>
  </a>
  <circle cx="50.926711381885525" cy="172.037492585300015" r="4.844656492729768" fill="#000" stroke-width="0"/>
  <circle cx="228.333472081005766" cy="48.743538570650799" r="3.368836264448418" fill="#000" stroke-width="0"/>
  <circle cx="247.418401731767517" cy="67.710322224153288" r="9.557636136988439" fill="#000" stroke-width="0"/>
  <circle cx="35.579850574535612" cy="214.076447019984471" r="15.346860807349342" fill="#000" stroke-width="0"/>
</svg>