<?xml version="1.0" encoding="UTF-8"?>
<svg id="Genral_2" data-name="Genral 2" xmlns="http://www.w3.org/2000/svg" xmlns:xlink="http://www.w3.org/1999/xlink" viewBox="0 0 280 280">
  <defs>
    <linearGradient id="linear-gradient" x1="93.105920150773272" y1="1425.681919833645225" x2="205.057647743276618" y2="1386.997978247086621" gradientTransform="translate(384.115768951121481 1534.760089292793054) rotate(-15.614070734869957) scale(1 -1)" gradientUnits="userSpaceOnUse">
      <stop offset="0" stop-color="#fcbf83"/>
      <stop offset=".736387023925781" stop-color="#ffd8a4"/>
    </linearGradient>
    <linearGradient id="linear-gradient-2" x1="136.674896884717782" y1="1507.296309494937304" x2="136.674896884717782" y2="1459.539809621752738" gradientTransform="translate(384.115768951121481 1534.760089292793054) rotate(-15.614070734869957) scale(1 -1)" gradientUnits="userSpaceOnUse">
      <stop offset="0" stop-color="#ffd27d"/>
      <stop offset="1" stop-color="#ffd27d" stop-opacity="0"/>
    </linearGradient>
    <linearGradient id="linear-gradient-3" x1="136.674896884717782" y1="1509.4113619069376" x2="136.674896884717782" y2="1496.943475109602559" gradientTransform="translate(384.115768951121481 1534.760089292793054) rotate(-15.614070734869957) scale(1 -1)" gradientUnits="userSpaceOnUse">
      <stop offset="0" stop-color="#f8b76c"/>
      <stop offset="1" stop-color="#fec574" stop-opacity="0"/>
    </linearGradient>
    <radialGradient id="radial-gradient" cx="4736.919892424263708" cy="2095.775902211631546" fx="4736.919892424263708" fy="2095.775902211631546" r="7.124507226653463" gradientTransform="translate(14426.901459771583177 11627.358820656059834) rotate(-105.614070734869969) scale(3.125940084457397 -5.106249809265138)" gradientUnits="userSpaceOnUse">
      <stop offset="0" stop-color="#ffda8d"/>
      <stop offset="1" stop-color="#ffda8d" stop-opacity="0"/>
    </radialGradient>
    <radialGradient id="radial-gradient-2" cx="4747.527347724750143" cy="1412.103461339525893" fx="4747.527347724750143" fy="1412.103461339525893" r="7.124507226653368" gradientTransform="translate(32219.102175474479736 4916.519069739078986) rotate(-105.614070734869969) scale(2.769520044326782 -20.941400527954102)" gradientUnits="userSpaceOnUse">
      <stop offset="0" stop-color="#ffdd93"/>
      <stop offset="1" stop-color="#ffdd93" stop-opacity="0"/>
    </radialGradient>
    <radialGradient id="radial-gradient-3" cx="3500.296128358628266" cy="1244.939131415563679" fx="3500.296128358628266" fy="1244.939131415563679" r="7.124507226650497" gradientTransform="translate(-11154.917399171292345 10893.43106330422961) rotate(-15.614070734869957) scale(3.90625 -5.936769962310791)" gradientUnits="userSpaceOnUse">
      <stop offset="0" stop-color="#ec9261"/>
      <stop offset="1" stop-color="#c46242"/>
    </radialGradient>
    <linearGradient id="linear-gradient-4" x1="169.834449920880161" y1="1327.847494109784748" x2="169.834449920880161" y2="1307.476399815337572" gradientTransform="translate(384.115768951121481 1534.760089292793054) rotate(-15.614070734869957) scale(1 -1)" gradientUnits="userSpaceOnUse">
      <stop offset="0" stop-color="#e58f4f"/>
      <stop offset="1" stop-color="#ee9880"/>
    </linearGradient>
    <linearGradient id="linear-gradient-5" x1="169.834449920880161" y1="1307.476399815337572" x2="169.834449920880161" y2="1313.932617588676067" gradientTransform="translate(384.115768951121481 1534.760089292793054) rotate(-15.614070734869957) scale(1 -1)" gradientUnits="userSpaceOnUse">
      <stop offset="0" stop-color="#e07e98"/>
      <stop offset="1" stop-color="#e07e98" stop-opacity="0"/>
    </linearGradient>
    <linearGradient id="linear-gradient-6" x1="96.989214483585783" y1="1431.473027611278667" x2="186.267835561221375" y2="1431.473027611278667" gradientTransform="translate(-6.534380775976786 1548.492481552855907) scale(1 -1)" gradientUnits="userSpaceOnUse">
      <stop offset="0" stop-color="#d37e48"/>
      <stop offset="1" stop-color="#de8650"/>
    </linearGradient>
    <linearGradient id="linear-gradient-7" x1="96.989214483583964" y1="1410.155077816056291" x2="186.267835561221204" y2="1410.155077816056291" gradientTransform="translate(-.796518964430291 1547.705774551855484) scale(1 -1)" xlink:href="#linear-gradient-6"/>
    <linearGradient id="linear-gradient-8" x1="96.989214483583964" y1="1388.837124623601994" x2="186.267835561220778" y2="1388.837124623601994" gradientTransform="translate(4.941343084862936 1546.919067353099763) scale(1 -1)" xlink:href="#linear-gradient-6"/>
    <linearGradient id="linear-gradient-9" x1="96.538232230349422" y1="1367.519888246632036" x2="154.368568143916917" y2="1367.519888246632036" gradientTransform="translate(11.322954203650802 1550.828980224805946) scale(1 -1)" xlink:href="#linear-gradient-6"/>
  </defs>
  <a xlink:href="https://www.notion.so/dmmnotes/semantic-constructions-2477648bf2934c578347c35b7291e8b9?pvs=4">
    <g>
      <g>
        <g>
          <path d="M99.004439143628588,234.671881654517165c3.177282717126218,11.368967855209121,14.968961813675378,18.009130625458965,26.337445433594439,14.831983237454551l115.628739895230865-32.314736179309875-48.029977628360029-171.861090232856441c-3.177186249406077-11.368622673969185-14.969308859443117-18.009034518510816-26.33758308031247-14.831945651209026L33.498887201504658,67.694685097884758l-.589684073540411.164798866465389.002723041379795.009743599371177c.194024887245178-.061177482457424.389690771293317-.119411393390692.586961032160616-.174542465836566,9.65144088740908-2.69728586776273,19.662182025800576,2.940236249675763,22.359487095670374,12.591745846149934l43.146064846453555,154.385450710482473Z" fill="none" stroke="#000" stroke-linecap="round" stroke-linejoin="round" stroke-width="23"/>
          <path d="M99.004439143628588,234.671881654517165c3.177282717126218,11.368967855209121,14.968961813675378,18.009130625458965,26.337445433594439,14.831983237454551l115.628739895230865-32.314736179309875-48.029977628360029-171.861090232856441c-3.177186249406077-11.368622673969185-14.969308859443117-18.009034518510816-26.33758308031247-14.831945651209026L33.498887201504658,67.694685097884758l-.589684073540411.164798866465389.002723041379795.009743599371177c.194024887245178-.061177482457424.389690771293317-.119411393390692.586961032160616-.174542465836566,9.65144088740908-2.69728586776273,19.662182025800576,2.940236249675763,22.359487095670374,12.591745846149934l43.146064846453555,154.385450710482473Z" fill="none" stroke="#000" stroke-linecap="round" stroke-linejoin="round" stroke-width="23"/>
          <path d="M99.004439143628588,234.671881654517165c3.177282717126218,11.368967855209121,14.968961813675378,18.009130625458965,26.337445433594439,14.831983237454551l115.628739895230865-32.314736179309875-48.029977628360029-171.861090232856441c-3.177186249406077-11.368622673969185-14.969308859443117-18.009034518510816-26.33758308031247-14.831945651209026L33.498887201504658,67.694685097884758l-.589684073540411.164798866465389.002723041379795.009743599371177c.194024887245178-.061177482457424.389690771293317-.119411393390692.586961032160616-.174542465836566,9.65144088740908-2.69728586776273,19.662182025800576,2.940236249675763,22.359487095670374,12.591745846149934l43.146064846453555,154.385450710482473Z" fill="none" stroke="#000" stroke-linecap="round" stroke-linejoin="round" stroke-width="23"/>
          <path d="M99.004439143628588,234.671881654517165c3.177282717126218,11.368967855209121,14.968961813675378,18.009130625458965,26.337445433594439,14.831983237454551l115.628739895230865-32.314736179309875-48.029977628360029-171.861090232856441c-3.177186249406077-11.368622673969185-14.969308859443117-18.009034518510816-26.33758308031247-14.831945651209026L33.498887201504658,67.694685097884758l-.589684073540411.164798866465389.002723041379795.009743599371177c.194024887245178-.061177482457424.389690771293317-.119411393390692.586961032160616-.174542465836566,9.65144088740908-2.69728586776273,19.662182025800576,2.940236249675763,22.359487095670374,12.591745846149934l43.146064846453555,154.385450710482473Z" fill="none" stroke="#000" stroke-linecap="round" stroke-linejoin="round" stroke-width="23"/>
          <path d="M99.004439143628588,234.671881654517165c3.177282717126218,11.368967855209121,14.968961813675378,18.009130625458965,26.337445433594439,14.831983237454551l115.628739895230865-32.314736179309875-48.029977628360029-171.861090232856441c-3.177186249406077-11.368622673969185-14.969308859443117-18.009034518510816-26.33758308031247-14.831945651209026L33.498887201504658,67.694685097884758l-.589684073540411.164798866465389.002723041379795.009743599371177c.194024887245178-.061177482457424.389690771293317-.119411393390692.586961032160616-.174542465836566,9.65144088740908-2.69728586776273,19.662182025800576,2.940236249675763,22.359487095670374,12.591745846149934l43.146064846453555,154.385450710482473Z" fill="none" stroke="#000" stroke-linecap="round" stroke-linejoin="round" stroke-width="23"/>
        </g>
        <path d="M33.498887201504658,67.694685097884758c-9.651440887414537,2.697285867766368-15.288964508606114,12.708024780858977-12.591659438738134,22.359534377333148l1.351317969997581,4.835292270420723c.105890465634729.378897758609128.498935471679943.600241462960184.877900303424212.494332252412278l34.264988394029388-9.576028080419746-1.543060133042673-5.521384973596469c-2.697305069869799-9.65150959647417-12.708046208261294-15.289031713912664-22.359487095670374-12.591745846149934Z" fill="none" stroke="#000" stroke-linecap="round" stroke-linejoin="round" stroke-width="23"/>
        <g>
          <path d="M146.394007469855751,222.468768324096345c-.946902487141415.264630610759014-1.500819863353172,1.247202449499127-1.235995402774279,2.194798570979401l.023583842578773.084387815637456-.027912284356717.003370220836587c2.54823177210892,11.06096404186701-4.343720531863255,20.429679770944858-15.388820043444866,23.516451079828585l113.094069139904605-31.606372351822756c10.444013005606394-2.918785807362838,16.544392262540896-13.751434250487364,13.625606455178058-24.195447256091938-.109495889458231-.391798702973574-.515092897104296-.620209657608939-.90689160007696-.510713768148889l-109.183640107008614,30.513525688781556Z" fill="none" stroke="#000" stroke-linecap="round" stroke-linejoin="round" stroke-width="23"/>
          <path d="M146.394007469855751,222.468768324096345c-.946902487141415.264630610759014-1.500819863353172,1.247202449499127-1.235995402774279,2.194798570979401l.023583842578773.084387815637456-.027912284356717.003370220836587c2.54823177210892,11.06096404186701-4.343720531863255,20.429679770944858-15.388820043444866,23.516451079828585l113.094069139904605-31.606372351822756c10.444013005606394-2.918785807362838,16.544392262540896-13.751434250487364,13.625606455178058-24.195447256091938-.109495889458231-.391798702973574-.515092897104296-.620209657608939-.90689160007696-.510713768148889l-109.183640107008614,30.513525688781556Z" fill="none" stroke="#000" stroke-linecap="round" stroke-linejoin="round" stroke-width="23"/>
        </g>
        <rect x="89.174560496597692" y="113.415451744100807" width="99.074825337672323" height="7.208004379042166" rx="3.603998143230603" ry="3.603998143230603" transform="translate(-26.377570879141501 41.653635782915728) rotate(-15.614070734756703)" fill="none" stroke="#000" stroke-linecap="round" stroke-linejoin="round" stroke-width="23"/>
        <rect x="94.912422016794238" y="133.946694522520829" width="99.074825225576006" height="7.208004354243258" rx="3.603998725746923" ry="3.603998725746923" transform="translate(-31.691937959379089 43.955692365600555) rotate(-15.614070721528083)" fill="none" stroke="#000" stroke-linecap="round" stroke-linejoin="round" stroke-width="23"/>
        <rect x="100.650284347867142" y="154.477937149782122" width="99.074825339702045" height="7.208011168767513" rx="3.603998795414033" ry="3.603998795414033" transform="translate(-37.006305930482682 46.257749402297918) rotate(-15.614070735785116)" fill="none" stroke="#000" stroke-linecap="round" stroke-linejoin="round" stroke-width="23"/>
        <rect x="107.031894623022268" y="179.705086333052265" width="64.176198092617582" height="7.208011145191023" rx="3.603998667209594" ry="3.603998667209594" transform="translate(-44.204790183036465 44.20977688465041) rotate(-15.614070700403198)" fill="none" stroke="#000" stroke-linecap="round" stroke-linejoin="round" stroke-width="23"/>
      </g>
      <g>
        <g>
          <path d="M99.004439143628588,234.671881654517165c3.177282717126218,11.368967855209121,14.968961813675378,18.009130625458965,26.337445433594439,14.831983237454551l115.628739895230865-32.314736179309875-48.029977628360029-171.861090232856441c-3.177186249406077-11.368622673969185-14.969308859443117-18.009034518510816-26.33758308031247-14.831945651209026L33.498887201504658,67.694685097884758l-.589684073540411.164798866465389.002723041379795.009743599371177c.194024887245178-.061177482457424.389690771293317-.119411393390692.586961032160616-.174542465836566,9.65144088740908-2.69728586776273,19.662182025800576,2.940236249675763,22.359487095670374,12.591745846149934l43.146064846453555,154.385450710482473Z" fill="url(#linear-gradient)" stroke-width="0"/>
          <path d="M99.004439143628588,234.671881654517165c3.177282717126218,11.368967855209121,14.968961813675378,18.009130625458965,26.337445433594439,14.831983237454551l115.628739895230865-32.314736179309875-48.029977628360029-171.861090232856441c-3.177186249406077-11.368622673969185-14.969308859443117-18.009034518510816-26.33758308031247-14.831945651209026L33.498887201504658,67.694685097884758l-.589684073540411.164798866465389.002723041379795.009743599371177c.194024887245178-.061177482457424.389690771293317-.119411393390692.586961032160616-.174542465836566,9.65144088740908-2.69728586776273,19.662182025800576,2.940236249675763,22.359487095670374,12.591745846149934l43.146064846453555,154.385450710482473Z" fill="url(#linear-gradient-2)" stroke-width="0"/>
          <path d="M99.004439143628588,234.671881654517165c3.177282717126218,11.368967855209121,14.968961813675378,18.009130625458965,26.337445433594439,14.831983237454551l115.628739895230865-32.314736179309875-48.029977628360029-171.861090232856441c-3.177186249406077-11.368622673969185-14.969308859443117-18.009034518510816-26.33758308031247-14.831945651209026L33.498887201504658,67.694685097884758l-.589684073540411.164798866465389.002723041379795.009743599371177c.194024887245178-.061177482457424.389690771293317-.119411393390692.586961032160616-.174542465836566,9.65144088740908-2.69728586776273,19.662182025800576,2.940236249675763,22.359487095670374,12.591745846149934l43.146064846453555,154.385450710482473Z" fill="url(#linear-gradient-3)" stroke-width="0"/>
          <path d="M99.004439143628588,234.671881654517165c3.177282717126218,11.368967855209121,14.968961813675378,18.009130625458965,26.337445433594439,14.831983237454551l115.628739895230865-32.314736179309875-48.029977628360029-171.861090232856441c-3.177186249406077-11.368622673969185-14.969308859443117-18.009034518510816-26.33758308031247-14.831945651209026L33.498887201504658,67.694685097884758l-.589684073540411.164798866465389.002723041379795.009743599371177c.194024887245178-.061177482457424.389690771293317-.119411393390692.586961032160616-.174542465836566,9.65144088740908-2.69728586776273,19.662182025800576,2.940236249675763,22.359487095670374,12.591745846149934l43.146064846453555,154.385450710482473Z" fill="url(#radial-gradient)" stroke-width="0"/>
          <path d="M99.004439143628588,234.671881654517165c3.177282717126218,11.368967855209121,14.968961813675378,18.009130625458965,26.337445433594439,14.831983237454551l115.628739895230865-32.314736179309875-48.029977628360029-171.861090232856441c-3.177186249406077-11.368622673969185-14.969308859443117-18.009034518510816-26.33758308031247-14.831945651209026L33.498887201504658,67.694685097884758l-.589684073540411.164798866465389.002723041379795.009743599371177c.194024887245178-.061177482457424.389690771293317-.119411393390692.586961032160616-.174542465836566,9.65144088740908-2.69728586776273,19.662182025800576,2.940236249675763,22.359487095670374,12.591745846149934l43.146064846453555,154.385450710482473Z" fill="url(#radial-gradient-2)" stroke-width="0"/>
        </g>
        <path d="M33.498887201504658,67.694685097884758c-9.651440887414537,2.697285867766368-15.288964508606114,12.708024780858977-12.591659438738134,22.359534377333148l1.351317969997581,4.835292270420723c.105890465634729.378897758609128.498935471679943.600241462960184.877900303424212.494332252412278l34.264988394029388-9.576028080419746-1.543060133042673-5.521384973596469c-2.697305069869799-9.65150959647417-12.708046208261294-15.289031713912664-22.359487095670374-12.591745846149934Z" fill="url(#radial-gradient-3)" stroke-width="0"/>
        <g>
          <path d="M146.394007469855751,222.468768324096345c-.946902487141415.264630610759014-1.500819863353172,1.247202449499127-1.235995402774279,2.194798570979401l.023583842578773.084387815637456-.027912284356717.003370220836587c2.54823177210892,11.06096404186701-4.343720531863255,20.429679770944858-15.388820043444866,23.516451079828585l113.094069139904605-31.606372351822756c10.444013005606394-2.918785807362838,16.544392262540896-13.751434250487364,13.625606455178058-24.195447256091938-.109495889458231-.391798702973574-.515092897104296-.620209657608939-.90689160007696-.510713768148889l-109.183640107008614,30.513525688781556Z" fill="url(#linear-gradient-4)" stroke-width="0"/>
          <path d="M146.394007469855751,222.468768324096345c-.946902487141415.264630610759014-1.500819863353172,1.247202449499127-1.235995402774279,2.194798570979401l.023583842578773.084387815637456-.027912284356717.003370220836587c2.54823177210892,11.06096404186701-4.343720531863255,20.429679770944858-15.388820043444866,23.516451079828585l113.094069139904605-31.606372351822756c10.444013005606394-2.918785807362838,16.544392262540896-13.751434250487364,13.625606455178058-24.195447256091938-.109495889458231-.391798702973574-.515092897104296-.620209657608939-.90689160007696-.510713768148889l-109.183640107008614,30.513525688781556Z" fill="url(#linear-gradient-5)" stroke-width="0"/>
        </g>
        <rect x="89.174560496597692" y="113.415451744100807" width="99.074825337672323" height="7.208004379042166" rx="3.603998143230603" ry="3.603998143230603" transform="translate(-26.377570879141501 41.653635782915728) rotate(-15.614070734756703)" fill="url(#linear-gradient-6)" stroke-width="0"/>
        <rect x="94.912422016794238" y="133.946694522520829" width="99.074825225576006" height="7.208004354243258" rx="3.603998725746923" ry="3.603998725746923" transform="translate(-31.691937959379089 43.955692365600555) rotate(-15.614070721528083)" fill="url(#linear-gradient-7)" stroke-width="0"/>
        <rect x="100.650284347867142" y="154.477937149782122" width="99.074825339702045" height="7.208011168767513" rx="3.603998795414033" ry="3.603998795414033" transform="translate(-37.006305930482682 46.257749402297918) rotate(-15.614070735785116)" fill="url(#linear-gradient-8)" stroke-width="0"/>
        <rect x="107.031894623022268" y="179.705086333052265" width="64.176198092617582" height="7.208011145191023" rx="3.603998667209594" ry="3.603998667209594" transform="translate(-44.204790183036465 44.20977688465041) rotate(-15.614070700403198)" fill="url(#linear-gradient-9)" stroke-width="0"/>
      </g>
    </g>
  </a>
  <circle cx="50.92671138188598" cy="172.037492585300015" r="4.844656492729995" fill="#000" stroke-width="0"/>
  <circle cx="228.333472081006221" cy="48.743538570650799" r="3.368836264448646" fill="#000" stroke-width="0"/>
  <circle cx="247.418401731767517" cy="67.710322224153288" r="9.557636136988439" fill="#000" stroke-width="0"/>
  <circle cx="35.579850574536067" cy="214.076447019984471" r="15.346860807349572" fill="#000" stroke-width="0"/>
</svg>