<?xml version="1.0" encoding="UTF-8"?>
<svg id="Genral_2" data-name="Genral 2" xmlns="http://www.w3.org/2000/svg" xmlns:xlink="http://www.w3.org/1999/xlink" viewBox="0 0 280 280">
  <defs>
    <radialGradient id="radial-gradient" cx="139.999999999998181" cy="143.102244770122525" fx="139.999999999998181" fy="143.102244770122525" r="133.591606472249651" gradientUnits="userSpaceOnUse">
      <stop offset=".251207729468599" stop-color="#91a23d"/>
      <stop offset=".334296230443132" stop-color="rgba(145, 162, 61, .887053962673577)" stop-opacity=".887053962673577"/>
      <stop offset="1" stop-color="#91a23d" stop-opacity="0"/>
    </radialGradient>
    <linearGradient id="linear-gradient" x1="59.487613414939915" y1="1180.486214816894062" x2="171.439341007443261" y2="1141.802273230335459" gradientTransform="translate(350.49746221528676 1289.564384276041437) rotate(-15.614070734869957) scale(1 -1)" gradientUnits="userSpaceOnUse">
      <stop offset="0" stop-color="#fcbf83"/>
      <stop offset=".736387023925781" stop-color="#ffd8a4"/>
    </linearGradient>
    <linearGradient id="linear-gradient-2" x1="103.056590148883515" y1="1262.100604478184323" x2="103.056590148883515" y2="1214.344104605000211" gradientTransform="translate(350.49746221528676 1289.564384276041437) rotate(-15.614070734869957) scale(1 -1)" gradientUnits="userSpaceOnUse">
      <stop offset="0" stop-color="#ffd27d"/>
      <stop offset="1" stop-color="#ffd27d" stop-opacity="0"/>
    </linearGradient>
    <linearGradient id="linear-gradient-3" x1="103.056590148883515" y1="1264.215656890184619" x2="103.056590148883515" y2="1251.747770092849805" gradientTransform="translate(350.49746221528676 1289.564384276041437) rotate(-15.614070734869957) scale(1 -1)" gradientUnits="userSpaceOnUse">
      <stop offset="0" stop-color="#f8b76c"/>
      <stop offset="1" stop-color="#fec574" stop-opacity="0"/>
    </linearGradient>
    <radialGradient id="radial-gradient-2" cx="3747.502139994501704" cy="1923.955006360340121" fx="3747.502139994501704" fy="1923.955006360340121" r="7.124507226653492" gradientTransform="translate(12749.45565351867117 8884.782725676001064) rotate(-105.614070734869969) scale(3.125940084457397 -5.106249809265138)" gradientUnits="userSpaceOnUse">
      <stop offset="0" stop-color="#ffda8d"/>
      <stop offset="1" stop-color="#ffda8d" stop-opacity="0"/>
    </radialGradient>
    <radialGradient id="radial-gradient-3" cx="3748.01497910676153" cy="1370.207485208547951" fx="3748.01497910676153" fy="1370.207485208547951" r="7.124507226653368" gradientTransform="translate(30629.049032243492547 2486.651809676990524) rotate(-105.614070734869969) scale(2.769520044326782 -20.941400527954102)" gradientUnits="userSpaceOnUse">
      <stop offset="0" stop-color="#ffdd93"/>
      <stop offset="1" stop-color="#ffdd93" stop-opacity="0"/>
    </radialGradient>
    <radialGradient id="radial-gradient-4" cx="2813.921671621489622" cy="1203.637934540265633" fx="2813.921671621489622" fy="1203.637934540265633" r="7.124507226649889" gradientTransform="translate(-8638.706994964528349 9935.635340582542995) rotate(-15.614070734869957) scale(3.90625 -5.936769962310791)" gradientUnits="userSpaceOnUse">
      <stop offset="0" stop-color="#ec9261"/>
      <stop offset="1" stop-color="#c46242"/>
    </radialGradient>
    <linearGradient id="linear-gradient-4" x1="136.21614318504453" y1="1082.651789093033585" x2="136.21614318504453" y2="1062.280694798584591" gradientTransform="translate(350.49746221528676 1289.564384276041437) rotate(-15.614070734869957) scale(1 -1)" gradientUnits="userSpaceOnUse">
      <stop offset="0" stop-color="#e58f4f"/>
      <stop offset="1" stop-color="#ee9880"/>
    </linearGradient>
    <linearGradient id="linear-gradient-5" x1="136.216143185046349" y1="1062.28069479858641" x2="136.216143185046349" y2="1068.736912571924904" gradientTransform="translate(350.49746221528676 1289.564384276041437) rotate(-15.614070734869957) scale(1 -1)" gradientUnits="userSpaceOnUse">
      <stop offset="0" stop-color="#e07e98"/>
      <stop offset="1" stop-color="#e07e98" stop-opacity="0"/>
    </linearGradient>
    <linearGradient id="linear-gradient-6" x1="63.370907747750607" y1="1186.277322594527504" x2="152.649528825387421" y2="1186.277322594527504" gradientTransform="translate(27.083925956612021 1303.296776542833868) scale(1 -1)" gradientUnits="userSpaceOnUse">
      <stop offset="0" stop-color="#d37e48"/>
      <stop offset="1" stop-color="#de8650"/>
    </linearGradient>
    <linearGradient id="linear-gradient-7" x1="63.370907747748788" y1="1164.959372799305129" x2="152.649528825385602" y2="1164.959372799305129" gradientTransform="translate(32.821787326519072 1302.510069497168615) scale(1 -1)" xlink:href="#linear-gradient-6"/>
    <linearGradient id="linear-gradient-8" x1="63.370907747748788" y1="1143.641419606850832" x2="152.649528825385602" y2="1143.641419606850832" gradientTransform="translate(38.559649920146654 1301.723362342457449) scale(1 -1)" xlink:href="#linear-gradient-6"/>
    <linearGradient id="linear-gradient-9" x1="62.919925494514246" y1="1122.324183229880873" x2="120.750261408081343" y2="1122.324183229880873" gradientTransform="translate(44.94126065611124 1305.633275172652475) scale(1 -1)" xlink:href="#linear-gradient-6"/>
  </defs>
  <circle cx="139.999999999999091" cy="143.102244770122525" r="133.591606472249595" fill="url(#radial-gradient)" stroke-width="0"/>
  <a xlink:href="https://www.notion.so/dmmnotes/semantic-constructions-2477648bf2934c578347c35b7291e8b9?pvs=4">
    <g>
      <g>
        <path d="M99.004439143628588,234.671881654517165c3.177282717126218,11.368967855209121,14.968961813675378,18.009130625458965,26.337445433594439,14.831983237454551l115.628739895230865-32.314736179309875-48.029977628360029-171.861090232856441c-3.177186249406077-11.368622673969185-14.969308859443117-18.009034518510816-26.33758308031247-14.831945651209026L33.498887201504658,67.694685097884758l-.589684073540411.164798866465389.002723041379795.009743599371177c.194024887245178-.061177482457424.389690771293317-.119411393390692.586961032160616-.174542465836566,9.65144088740908-2.69728586776273,19.662182025800576,2.940236249675763,22.359487095670374,12.591745846149934l43.146064846453555,154.385450710482473Z" fill="none" stroke="#000" stroke-linecap="round" stroke-linejoin="round" stroke-width="23"/>
        <path d="M99.004439143628588,234.671881654517165c3.177282717126218,11.368967855209121,14.968961813675378,18.009130625458965,26.337445433594439,14.831983237454551l115.628739895230865-32.314736179309875-48.029977628360029-171.861090232856441c-3.177186249406077-11.368622673969185-14.969308859443117-18.009034518510816-26.33758308031247-14.831945651209026L33.498887201504658,67.694685097884758l-.589684073540411.164798866465389.002723041379795.009743599371177c.194024887245178-.061177482457424.389690771293317-.119411393390692.586961032160616-.174542465836566,9.65144088740908-2.69728586776273,19.662182025800576,2.940236249675763,22.359487095670374,12.591745846149934l43.146064846453555,154.385450710482473Z" fill="none" stroke="#000" stroke-linecap="round" stroke-linejoin="round" stroke-width="23"/>
        <path d="M99.004439143628588,234.671881654517165c3.177282717126218,11.368967855209121,14.968961813675378,18.009130625458965,26.337445433594439,14.831983237454551l115.628739895230865-32.314736179309875-48.029977628360029-171.861090232856441c-3.177186249406077-11.368622673969185-14.969308859443117-18.009034518510816-26.33758308031247-14.831945651209026L33.498887201504658,67.694685097884758l-.589684073540411.164798866465389.002723041379795.009743599371177c.194024887245178-.061177482457424.389690771293317-.119411393390692.586961032160616-.174542465836566,9.65144088740908-2.69728586776273,19.662182025800576,2.940236249675763,22.359487095670374,12.591745846149934l43.146064846453555,154.385450710482473Z" fill="none" stroke="#000" stroke-linecap="round" stroke-linejoin="round" stroke-width="23"/>
        <path d="M99.004439143628588,234.671881654517165c3.177282717126218,11.368967855209121,14.968961813675378,18.009130625458965,26.337445433594439,14.831983237454551l115.628739895230865-32.314736179309875-48.029977628360029-171.861090232856441c-3.177186249406077-11.368622673969185-14.969308859443117-18.009034518510816-26.33758308031247-14.831945651209026L33.498887201504658,67.694685097884758l-.589684073540411.164798866465389.002723041379795.009743599371177c.194024887245178-.061177482457424.389690771293317-.119411393390692.586961032160616-.174542465836566,9.65144088740908-2.69728586776273,19.662182025800576,2.940236249675763,22.359487095670374,12.591745846149934l43.146064846453555,154.385450710482473Z" fill="none" stroke="#000" stroke-linecap="round" stroke-linejoin="round" stroke-width="23"/>
        <path d="M99.004439143628588,234.671881654517165c3.177282717126218,11.368967855209121,14.968961813675378,18.009130625458965,26.337445433594439,14.831983237454551l115.628739895230865-32.314736179309875-48.029977628360029-171.861090232856441c-3.177186249406077-11.368622673969185-14.969308859443117-18.009034518510816-26.33758308031247-14.831945651209026L33.498887201504658,67.694685097884758l-.589684073540411.164798866465389.002723041379795.009743599371177c.194024887245178-.061177482457424.389690771293317-.119411393390692.586961032160616-.174542465836566,9.65144088740908-2.69728586776273,19.662182025800576,2.940236249675763,22.359487095670374,12.591745846149934l43.146064846453555,154.385450710482473Z" fill="none" stroke="#000" stroke-linecap="round" stroke-linejoin="round" stroke-width="23"/>
        <path d="M33.498887201504658,67.694685097884758c-9.651440887414537,2.697285867766368-15.288964508606114,12.708024780858977-12.591659438738134,22.359534377333148l1.351317969997581,4.835292270420723c.105890465634729.378897758609128.498935471679943.600241462960184.877900303424212.494332252412278l34.264988394029388-9.576028080419746-1.543060133042673-5.521384973596469c-2.697305069869799-9.65150959647417-12.708046208261294-15.289031713912664-22.359487095670374-12.591745846149934Z" fill="none" stroke="#000" stroke-linecap="round" stroke-linejoin="round" stroke-width="23"/>
        <g>
          <path d="M146.394007469855751,222.468768324096345c-.946902487141415.264630610759014-1.500819863353172,1.247202449499127-1.235995402774279,2.194798570979401l.023583842578773.084387815637456-.027912284356717.003370220836587c2.54823177210892,11.06096404186701-4.343720531863255,20.429679770944858-15.388820043444866,23.516451079828585l113.094069139904605-31.606372351822756c10.444013005606394-2.918785807362838,16.544392262539986-13.751434250487364,13.625606455178058-24.195447256091938-.109495889458231-.391798702973574-.515092897104296-.620209657608939-.90689160007696-.510713768148889l-109.183640107008614,30.513525688781556Z" fill="none" stroke="#000" stroke-linecap="round" stroke-linejoin="round" stroke-width="23"/>
          <path d="M146.394007469855751,222.468768324096345c-.946902487141415.264630610759014-1.500819863353172,1.247202449499127-1.235995402774279,2.194798570979401l.023583842578773.084387815637456-.027912284356717.003370220836587c2.54823177210892,11.06096404186701-4.343720531863255,20.429679770944858-15.388820043444866,23.516451079828585l113.094069139904605-31.606372351822756c10.444013005606394-2.918785807362838,16.544392262539986-13.751434250487364,13.625606455178058-24.195447256091938-.109495889458231-.391798702973574-.515092897104296-.620209657608939-.90689160007696-.510713768148889l-109.183640107008614,30.513525688781556Z" fill="none" stroke="#000" stroke-linecap="round" stroke-linejoin="round" stroke-width="23"/>
        </g>
        <rect x="89.174560529444463" y="113.415451768089753" width="99.074825221517258" height="7.208004361694236" rx="3.60399873112818" ry="3.60399873112818" transform="translate(-26.377570884572862 41.653635777518218) rotate(-15.614070735044159)" fill="none" stroke="#000" stroke-linecap="round" stroke-linejoin="round" stroke-width="23"/>
        <rect x="94.912421933479351" y="133.946694530801352" width="99.074825341731582" height="7.208004368260987" rx="3.603998813454885" ry="3.603998813454885" transform="translate(-31.691937995837122 43.955692418487132) rotate(-15.61407074075716)" fill="none" stroke="#000" stroke-linecap="round" stroke-linejoin="round" stroke-width="23"/>
        <rect x="100.650284375826004" y="154.477937156344865" width="99.074825310663527" height="7.208011139342602" rx="3.603998447594807" ry="3.603998447594807" transform="translate(-37.006305918286102 46.257749389699626) rotate(-15.61407073091392)" fill="none" stroke="#000" stroke-linecap="round" stroke-linejoin="round" stroke-width="23"/>
        <rect x="107.031894650985848" y="179.705086324444068" width="64.176198063578695" height="7.208011146133515" rx="3.603998732965293" ry="3.603998732965293" transform="translate(-44.204790196980383 44.209776909886273) rotate(-15.614070707253232)" fill="none" stroke="#000" stroke-linecap="round" stroke-linejoin="round" stroke-width="23"/>
      </g>
      <g>
        <path d="M99.004439143628588,234.671881654517165c3.177282717126218,11.368967855209121,14.968961813675378,18.009130625458965,26.337445433594439,14.831983237454551l115.628739895230865-32.314736179309875-48.029977628360029-171.861090232856441c-3.177186249406077-11.368622673969185-14.969308859443117-18.009034518510816-26.33758308031247-14.831945651209026L33.498887201504658,67.694685097884758l-.589684073540411.164798866465389.002723041379795.009743599371177c.194024887245178-.061177482457424.389690771293317-.119411393390692.586961032160616-.174542465836566,9.65144088740908-2.69728586776273,19.662182025800576,2.940236249675763,22.359487095670374,12.591745846149934l43.146064846453555,154.385450710482473Z" fill="url(#linear-gradient)" stroke-width="0"/>
        <path d="M99.004439143628588,234.671881654517165c3.177282717126218,11.368967855209121,14.968961813675378,18.009130625458965,26.337445433594439,14.831983237454551l115.628739895230865-32.314736179309875-48.029977628360029-171.861090232856441c-3.177186249406077-11.368622673969185-14.969308859443117-18.009034518510816-26.33758308031247-14.831945651209026L33.498887201504658,67.694685097884758l-.589684073540411.164798866465389.002723041379795.009743599371177c.194024887245178-.061177482457424.389690771293317-.119411393390692.586961032160616-.174542465836566,9.65144088740908-2.69728586776273,19.662182025800576,2.940236249675763,22.359487095670374,12.591745846149934l43.146064846453555,154.385450710482473Z" fill="url(#linear-gradient-2)" stroke-width="0"/>
        <path d="M99.004439143628588,234.671881654517165c3.177282717126218,11.368967855209121,14.968961813675378,18.009130625458965,26.337445433594439,14.831983237454551l115.628739895230865-32.314736179309875-48.029977628360029-171.861090232856441c-3.177186249406077-11.368622673969185-14.969308859443117-18.009034518510816-26.33758308031247-14.831945651209026L33.498887201504658,67.694685097884758l-.589684073540411.164798866465389.002723041379795.009743599371177c.194024887245178-.061177482457424.389690771293317-.119411393390692.586961032160616-.174542465836566,9.65144088740908-2.69728586776273,19.662182025800576,2.940236249675763,22.359487095670374,12.591745846149934l43.146064846453555,154.385450710482473Z" fill="url(#linear-gradient-3)" stroke-width="0"/>
        <path d="M99.004439143628588,234.671881654517165c3.177282717126218,11.368967855209121,14.968961813675378,18.009130625458965,26.337445433594439,14.831983237454551l115.628739895230865-32.314736179309875-48.029977628360029-171.861090232856441c-3.177186249406077-11.368622673969185-14.969308859443117-18.009034518510816-26.33758308031247-14.831945651209026L33.498887201504658,67.694685097884758l-.589684073540411.164798866465389.002723041379795.009743599371177c.194024887245178-.061177482457424.389690771293317-.119411393390692.586961032160616-.174542465836566,9.65144088740908-2.69728586776273,19.662182025800576,2.940236249675763,22.359487095670374,12.591745846149934l43.146064846453555,154.385450710482473Z" fill="url(#radial-gradient-2)" stroke-width="0"/>
        <path d="M99.004439143628588,234.671881654517165c3.177282717126218,11.368967855209121,14.968961813675378,18.009130625458965,26.337445433594439,14.831983237454551l115.628739895230865-32.314736179309875-48.029977628360029-171.861090232856441c-3.177186249406077-11.368622673969185-14.969308859443117-18.009034518510816-26.33758308031247-14.831945651209026L33.498887201504658,67.694685097884758l-.589684073540411.164798866465389.002723041379795.009743599371177c.194024887245178-.061177482457424.389690771293317-.119411393390692.586961032160616-.174542465836566,9.65144088740908-2.69728586776273,19.662182025800576,2.940236249675763,22.359487095670374,12.591745846149934l43.146064846453555,154.385450710482473Z" fill="url(#radial-gradient-3)" stroke-width="0"/>
        <path d="M33.498887201504658,67.694685097884758c-9.651440887414537,2.697285867766368-15.288964508606114,12.708024780858977-12.591659438738134,22.359534377333148l1.351317969997581,4.835292270420723c.105890465634729.378897758609128.498935471679943.600241462960184.877900303424212.494332252412278l34.264988394029388-9.576028080419746-1.543060133042673-5.521384973596469c-2.697305069869799-9.65150959647417-12.708046208261294-15.289031713912664-22.359487095670374-12.591745846149934Z" fill="url(#radial-gradient-4)" stroke-width="0"/>
        <g>
          <path d="M146.394007469855751,222.468768324096345c-.946902487141415.264630610759014-1.500819863353172,1.247202449499127-1.235995402774279,2.194798570979401l.023583842578773.084387815637456-.027912284356717.003370220836587c2.54823177210892,11.06096404186701-4.343720531863255,20.429679770944858-15.388820043444866,23.516451079828585l113.094069139904605-31.606372351822756c10.444013005606394-2.918785807362838,16.544392262539986-13.751434250487364,13.625606455178058-24.195447256091938-.109495889458231-.391798702973574-.515092897104296-.620209657608939-.90689160007696-.510713768148889l-109.183640107008614,30.513525688781556Z" fill="url(#linear-gradient-4)" stroke-width="0"/>
          <path d="M146.394007469855751,222.468768324096345c-.946902487141415.264630610759014-1.500819863353172,1.247202449499127-1.235995402774279,2.194798570979401l.023583842578773.084387815637456-.027912284356717.003370220836587c2.54823177210892,11.06096404186701-4.343720531863255,20.429679770944858-15.388820043444866,23.516451079828585l113.094069139904605-31.606372351822756c10.444013005606394-2.918785807362838,16.544392262539986-13.751434250487364,13.625606455178058-24.195447256091938-.109495889458231-.391798702973574-.515092897104296-.620209657608939-.90689160007696-.510713768148889l-109.183640107008614,30.513525688781556Z" fill="url(#linear-gradient-5)" stroke-width="0"/>
        </g>
        <rect x="89.174560529444463" y="113.415451768089753" width="99.074825221517258" height="7.208004361694236" rx="3.60399873112818" ry="3.60399873112818" transform="translate(-26.377570884572862 41.653635777518218) rotate(-15.614070735044159)" fill="url(#linear-gradient-6)" stroke-width="0"/>
        <rect x="94.912421933479351" y="133.946694530801352" width="99.074825341731582" height="7.208004368260987" rx="3.603998813454885" ry="3.603998813454885" transform="translate(-31.691937995837122 43.955692418487132) rotate(-15.61407074075716)" fill="url(#linear-gradient-7)" stroke-width="0"/>
        <rect x="100.650284375826004" y="154.477937156344865" width="99.074825310663527" height="7.208011139342602" rx="3.603998447594807" ry="3.603998447594807" transform="translate(-37.006305918286102 46.257749389699626) rotate(-15.61407073091392)" fill="url(#linear-gradient-8)" stroke-width="0"/>
        <rect x="107.031894650985848" y="179.705086324444068" width="64.176198063578695" height="7.208011146133515" rx="3.603998732965293" ry="3.603998732965293" transform="translate(-44.204790196980383 44.209776909886273) rotate(-15.614070707253232)" fill="url(#linear-gradient-9)" stroke-width="0"/>
      </g>
    </g>
  </a>
  <circle cx="50.926711381885525" cy="172.037492585300015" r="4.844656492729768" fill="#000" stroke-width="0"/>
  <circle cx="228.333472081006221" cy="48.743538570650799" r="3.368836264448646" fill="#000" stroke-width="0"/>
  <circle cx="247.418401731767517" cy="67.710322224153288" r="9.557636136988439" fill="#000" stroke-width="0"/>
  <circle cx="35.579850574535158" cy="214.076447019984471" r="15.346860807349117" fill="#000" stroke-width="0"/>
</svg>