<?xml version="1.0" encoding="UTF-8"?>
<svg xmlns="http://www.w3.org/2000/svg" xmlns:xlink="http://www.w3.org/1999/xlink" viewBox="0 0 280 280">
  <defs>
    <linearGradient id="B3" x1="134.450542017610132" y1="86.400253269675886" x2="155.310514490033654" y2="57.460713994557295" gradientUnits="userSpaceOnUse">
      <stop offset="0" stop-color="#008693"/>
      <stop offset=".5" stop-color="#008c8d"/>
      <stop offset="1" stop-color="#008f82"/>
    </linearGradient>
    <linearGradient id="C3" x1="189.315176862769022" y1="156.65742778054846" x2="238.494987688831344" y2="79.813973364837267" gradientUnits="userSpaceOnUse">
      <stop offset="0" stop-color="#679a5a"/>
      <stop offset=".203304411159916" stop-color="#6c9a56"/>
      <stop offset=".454423858001689" stop-color="#7b9d4d"/>
      <stop offset=".487179487179487" stop-color="#7e9e4c"/>
      <stop offset="1" stop-color="#91a23d"/>
    </linearGradient>
    <linearGradient id="C1" x1="183.736905656588533" y1="78.886225593170821" x2="209.00239641840875" y2="39.408896277832483" gradientUnits="userSpaceOnUse">
      <stop offset="0" stop-color="#1f9276"/>
      <stop offset=".5" stop-color="#4b9669"/>
      <stop offset="1" stop-color="#679a5a"/>
    </linearGradient>
    <linearGradient id="C7" x1="213.433983706110212" y1="217.802596240400817" x2="241.004906628404399" y2="174.72302917432242" gradientUnits="userSpaceOnUse">
      <stop offset="0" stop-color="#c48a57"/>
      <stop offset=".514957264957265" stop-color="#d3805f"/>
      <stop offset=".799864386739867" stop-color="#d97a61"/>
      <stop offset="1" stop-color="#e17465"/>
    </linearGradient>
    <linearGradient id="A4" x1="86.15532557298684" y1="158.936266355514817" x2="135.925261559530497" y2="96.598164715811166" gradientUnits="userSpaceOnUse">
      <stop offset="0" stop-color="#7d67a2"/>
      <stop offset=".385181145631382" stop-color="#895ea4"/>
      <stop offset=".489316239316239" stop-color="#8e5ba6"/>
      <stop offset=".841924594895194" stop-color="#9a5c9d"/>
      <stop offset="1" stop-color="#a25d99"/>
    </linearGradient>
    <linearGradient id="A7" x1="59.307022982562557" y1="238.2381036327115" x2="94.051387816415314" y2="194.719909295365881" gradientUnits="userSpaceOnUse">
      <stop offset="0" stop-color="#b6608e"/>
      <stop offset=".5" stop-color="#c96282"/>
      <stop offset="1" stop-color="#dc6476"/>
    </linearGradient>
    <linearGradient id="A1" x1="35.590730057654582" y1="116.871218956395751" x2="66.436219527262267" y2="78.236464469215079" gradientUnits="userSpaceOnUse">
      <stop offset="0" stop-color="#6a70a0"/>
      <stop offset=".5" stop-color="#52789c"/>
      <stop offset=".718915170605863" stop-color="#4f789b"/>
      <stop offset=".841614944399044" stop-color="#47799a"/>
      <stop offset=".940237931979561" stop-color="#397c99"/>
      <stop offset="1" stop-color="#2d7f98"/>
    </linearGradient>
    <linearGradient id="AC78" x1="100.286524012798509" y1="236.953298976914084" x2="182.524434395213973" y2="174.185141229211183" gradientUnits="userSpaceOnUse">
      <stop offset="0" stop-color="#dc6476"/>
      <stop offset=".5" stop-color="#f1666a"/>
      <stop offset="1" stop-color="#e17465"/>
    </linearGradient>
  </defs>
  <g id="General">
    <a xlink:href="https://www.notion.so/dmmnotes/major-strategies-3fa9d56be0d24b57bb3cf996db249b1b?pvs=4"/>
  </g>
  <g id="Pattern_circles_mini" data-name="Pattern circles mini">
    <a xlink:href="https://www.notion.so/dmmnotes/patterns-017f25ab38164ae597bb02f2bf65a9a1?pvs=4">
      <g id="Specific_patterns" data-name="Specific patterns">
        <g id="B">
          <path d="M145.182436643319306,103.894451394577118c-17.85595703125,0-32.3828125-14.52734375-32.3828125-32.3828125s14.52685546875-32.3828125,32.3828125-32.3828125,32.3828125,14.52734375,32.3828125,32.3828125-14.52685546875,32.3828125-32.3828125,32.3828125Z" fill="url(#B3)" stroke-width="0"/>
          <path d="M145.182680783944306,46.629009500045868c13.7421875,0,24.8828125,11.140472412109375,24.8828125,24.882904052734375,0,13.74237060546875-11.140625,24.882843017578125-24.8828125,24.882843017578125-13.74267578125,0-24.8828125-11.140472412109375-24.8828125-24.882843017578125,0-13.742431640625,11.14013671875-24.882904052734375,24.8828125-24.882904052734375M145.182680783944306,31.629009500045868c-21.9912109375,0-39.8828125,17.89141845703125-39.8828125,39.882904052734375,0,21.991455078125,17.8916015625,39.882843017578125,39.8828125,39.882843017578125s39.8828125-17.891387939453125,39.8828125-39.882843017578125c0-21.991485595703125-17.8916015625-39.882904052734375-39.8828125-39.882904052734375h0Z" fill="#000" stroke-width="0"/>
        </g>
        <g id="C">
          <path d="M213.249233441111755,156.901931191094263c-20.755615234375,0-37.641357421875-16.8857421875-37.641357421875-37.6416015625s16.8857421875-37.6416015625,37.641357421875-37.6416015625,37.6416015625,16.8857421875,37.6416015625,37.6416015625-16.885986328125,37.6416015625-37.6416015625,37.6416015625Z" fill="url(#C3)" stroke-width="0"/>
          <path d="M213.249233441111755,89.118789101250513c16.646728515625,0,30.1416015625,13.494873046875,30.1416015625,30.14154052734375,0,16.646728515625-13.494873046875,30.1416015625-30.1416015625,30.1416015625-16.646484375-.00006103515625-30.141357421875-13.494873046875-30.141357421875-30.1416015625,0-16.64666748046875,13.494873046875-30.14154052734375,30.141357421875-30.14154052734375M213.249233441111755,74.118789101250513c-24.89111328125,0-45.141357421875,20.250396728515625-45.141357421875,45.14154052734375,0,24.891082763671875,20.250244140625,45.14154052734375,45.141357421875,45.1416015625,24.89111328125,0,45.1416015625-20.250457763671875,45.1416015625-45.1416015625s-20.25048828125-45.14154052734375-45.1416015625-45.14154052734375h0Z" fill="#000" stroke-width="0"/>
        </g>
        <g id="C-2" data-name="C">
          <path d="M196.032753973437593,79.011853223095386c-10.662841796875,0-19.337890625-8.6748046875-19.337890625-19.337890625s8.675048828125-19.337890625,19.337890625-19.337890625,19.337890625,8.6748046875,19.337890625,19.337890625-8.675048828125,19.337890625-19.337890625,19.337890625Z" fill="url(#C1)" stroke-width="0"/>
          <path d="M196.032753973437593,47.836316113720386c6.537841796875,0,11.837890625,5.299957275390625,11.837890625,11.837799072265625s-5.300048828125,11.837799072265625-11.837890625,11.837799072265625-11.837890625-5.300018310546875-11.837890625-11.837799072265625c0-6.537841796875,5.300048828125-11.837799072265625,11.837890625-11.837799072265625M196.032753973437593,32.836316113720386c-14.79833984375,0-26.837646484375,12.03936767578125-26.837646484375,26.837799072265625s12.039306640625,26.837799072265625,26.837646484375,26.837799072265625,26.837890625-12.03936767578125,26.837890625-26.837799072265625-12.03955078125-26.837799072265625-26.837890625-26.837799072265625h0Z" fill="#000" stroke-width="0"/>
        </g>
        <g id="C-3" data-name="C">
          <path d="M226.851698114358442,217.939774599424709c-11.6357421875,0-21.102294921875-9.466796875-21.102294921875-21.1025390625s9.466552734375-21.1025390625,21.102294921875-21.1025390625c11.635986328125,0,21.1025390625,9.466796875,21.1025390625,21.1025390625s-9.466552734375,21.1025390625-21.1025390625,21.1025390625Z" fill="url(#C7)" stroke-width="0"/>
          <path d="M226.851698114358442,183.234910097471584c7.512451171875,0,13.6025390625,6.089996337890625,13.6025390625,13.602447509765625,0,7.51239013671875-6.090087890625,13.60235595703125-13.6025390625,13.60235595703125s-13.602294921875-6.0899658203125-13.602294921875-13.60235595703125c0-7.512451171875,6.08984375-13.602447509765625,13.602294921875-13.602447509765625M226.851698114358442,168.234910097471584c-15.771484375,0-28.602294921875,12.831024169921875-28.602294921875,28.602447509765625s12.830810546875,28.60235595703125,28.602294921875,28.60235595703125,28.6025390625-12.8309326171875,28.6025390625-28.60235595703125-12.8310546875-28.602447509765625-28.6025390625-28.602447509765625h0Z" fill="#000" stroke-width="0"/>
        </g>
        <g id="A-2" data-name="A">
          <path d="M112.600445932062939,162.715249373579354c-16.031005859375,0-30.13232421875-10.25-35.08935546875-25.5068359375-3.046142578125-9.375-2.25927734375-19.3740234375,2.2158203125-28.1572265625,4.474853515625-8.7822265625,12.102294921875-15.2958984375,21.47705078125-18.341796875,3.704345703125-1.2041015625,7.543212890625-1.814453125,11.40966796875-1.814453125,16.031005859375,0,30.13232421875,10.25,35.08935546875,25.5068359375,3.046142578125,9.3740234375,2.25927734375,19.3740234375-2.2158203125,28.15625-4.47509765625,8.783203125-12.102294921875,15.296875-21.47705078125,18.3427734375-3.704345703125,1.2041015625-7.543212890625,1.814453125-11.40966796875,1.814453125Z" fill="url(#A4)" stroke-width="0"/>
          <path d="M112.612897103937939,96.394753768110604c12.39453125-.0003662109375,23.919921875,7.898956298828125,27.95751953125,20.324371337890625,5.017578125,15.443634033203125-3.43408203125,32.03106689453125-18.87744140625,37.048980712890625-3.01806640625.980682373046875-6.0810546875,1.446990966796875-9.091796875,1.446990966796875-12.39453125,0-23.919921875-7.898956298828125-27.95751953125-20.324371337890625-5.017578125-15.443634033203125,3.43408203125-32.031036376953125,18.87744140625-37.04901123046875,3.01806640625-.98065185546875,6.0810546875-1.446868896484375,9.091796875-1.44696044921875M112.613873666437939,81.394784285688729h-.00048828125c-4.6552734375.0001220703125-9.2734375.73394775390625-13.7275390625,2.18109130859375-23.28466796875,7.5657958984375-36.0732421875,32.664764404296875-28.50830078125,55.949798583984375,5.96484375,18.356475830078125,22.93310546875,30.689422607421875,42.2236328125,30.689422607421875,4.654296875,0,9.2724609375-.73382568359375,13.72705078125-2.18115234375,23.28466796875-7.565765380859375,36.0732421875-32.664703369140625,28.50830078125-55.94976806640625-5.96484375-18.3564453125-22.9326171875-30.68939208984375-42.22265625-30.68939208984375h0Z" fill="#000" stroke-width="0"/>
        </g>
        <g id="A-3" data-name="A">
          <path d="M77.762830926858442,240.871415224424709c-11.19189453125,0-21.03662109375-7.15625-24.4970703125-17.806640625-4.3896484375-13.5087890625,3.030029296875-28.0712890625,16.53955078125-32.4619140625,2.585693359375-.83984375,5.26513671875-1.265625,7.96484375-1.265625,11.1923828125,0,21.037353515625,7.15625,24.497802734375,17.806640625,2.126220703125,6.5439453125,1.57666015625,13.5244140625-1.54736328125,19.65625-3.1240234375,6.130859375-8.44873046875,10.6787109375-14.9931640625,12.8046875-2.584716796875.83984375-5.2646484375,1.2666015625-7.964599609375,1.2666015625Z" fill="url(#A7)" stroke-width="0"/>
          <path d="M77.770399286233442,196.837357607237209c7.6982421875-.000244140625,14.8564453125,4.90606689453125,17.3642578125,12.62353515625,3.11669921875,9.5921630859375-2.1328125,19.8946533203125-11.724609375,23.0113525390625-1.87451171875.60906982421875-3.77685546875.898681640625-5.64697265625.898681640625-7.6982421875,0-14.8564453125-4.90606689453125-17.3642578125-12.62353515625-3.11669921875-9.5921630859375,2.13232421875-19.8946533203125,11.724609375-23.0113525390625,1.87451171875-.60906982421875,3.77685546875-.89862060546875,5.64697265625-.898681640625M77.770887567483442,181.837357607237209h-.00048828125c-3.48828125.000091552734375-6.94775390625.5494384765625-10.2822265625,1.63287353515625-8.44970703125,2.745452880859375-15.32470703125,8.617156982421875-19.35791015625,16.53350830078125-4.03369140625,7.9161376953125-4.74267578125,16.92926025390625-1.9970703125,25.37896728515625,4.46728515625,13.75,17.1787109375,22.98822021484375,31.6298828125,22.98822021484375,3.48828125,0,6.94775390625-.54937744140625,10.2822265625-1.63287353515625,17.44287109375-5.667724609375,27.02294921875-24.4696044921875,21.35498046875-41.9124755859375-4.46728515625-13.749969482421875-17.17822265625-22.98822021484375-31.62939453125-22.98822021484375h0Z" fill="#000" stroke-width="0"/>
        </g>
        <g id="A-4" data-name="A">
          <path d="M51.981341980714205,119.213359653253065c-9.9365234375,0-18.6767578125-6.353515625-21.748779296875-15.80859375-1.8876953125-5.8095703125-1.39990234375-12.0068359375,1.37353515625-17.4501953125s7.500732421875-9.48046875,13.310791015625-11.3681640625c2.2939453125-.74609375,4.67333984375-1.1240234375,7.071044921875-1.1240234375,9.935791015625,0,18.67578125,6.3525390625,21.747802734375,15.8076171875,1.887939453125,5.810546875,1.400146484375,12.0078125-1.373291015625,17.451171875s-7.50048828125,9.48046875-13.310791015625,11.3681640625c-2.29443359375.7451171875-4.673095703125,1.1240234375-7.0703125,1.1240234375Z" fill="url(#A1)" stroke-width="0"/>
          <path d="M51.987445496339205,80.96247464348744c6.4794921875-.000213623046875,12.5048828125,4.12945556640625,14.61572265625,10.625244140625,2.623046875,8.07366943359375-1.79541015625,16.745269775390625-9.869140625,19.368560791015625-1.578125.5126953125-3.17919921875.7564697265625-4.7529296875.7564697265625-6.4794921875,0-12.5048828125-4.129425048828125-14.61572265625-10.625244140625-2.623046875-8.07366943359375,1.79541015625-16.7452392578125,9.869140625-19.36859130859375,1.578125-.512664794921875,3.17919921875-.75640869140625,4.7529296875-.756439208984375M51.987933777589205,65.96247464348744h-.00048828125c-3.185546875.00006103515625-6.34423828125.501556396484375-9.38818359375,1.490570068359375-15.9267578125,5.174957275390625-24.67431640625,22.342529296875-19.5,38.269378662109375,4.080078125,12.55523681640625,15.6865234375,20.990325927734375,28.8818359375,20.990325927734375,3.18505859375,0,6.34375-.501495361328125,9.38818359375-1.490570068359375,15.9267578125-5.174896240234375,24.67431640625-22.342437744140625,19.5-38.269287109375-4.080078125-12.55535888671875-15.68603515625-20.99041748046875-28.88134765625-20.99041748046875h0Z" fill="#000" stroke-width="0"/>
        </g>
        <g id="_" data-name="+">
          <path d="M152.846301826856688,239.543091292487588c-23.548095703125,0-42.7060546875-19.158203125-42.7060546875-42.7060546875s19.157958984375-42.7060546875,42.7060546875-42.7060546875,42.705810546875,19.158203125,42.705810546875,42.7060546875-19.15771484375,42.7060546875-42.705810546875,42.7060546875Z" fill="url(#AC78)" stroke-width="0"/>
          <path d="M152.846057686231688,162.631409163581338c18.8916015625,0,34.2060546875,15.31451416015625,34.2060546875,34.205963134765625,0,18.891387939453125-15.314453125,34.205841064453125-34.2060546875,34.205841064453125-18.89111328125,0-34.20556640625-15.314453125-34.20556640625-34.205841064453125,0-18.891448974609375,15.314453125-34.205963134765625,34.20556640625-34.205963134765625M152.846057686231688,145.631409163581338c-28.23486328125,0-51.20556640625,22.970916748046875-51.20556640625,51.205963134765625,0,28.235015869140625,22.970703125,51.205841064453125,51.20556640625,51.205841064453125,28.235107421875,0,51.2060546875-22.9708251953125,51.2060546875-51.205841064453125,0-28.23504638671875-22.970947265625-51.205963134765625-51.2060546875-51.205963134765625h0Z" fill="#000" stroke-width="0"/>
        </g>
      </g>
    </a>
    <circle cx="63.115030324550389" cy="40.785602173904863" r="9.469173630105386" fill="#000" stroke-width="0"/>
    <circle cx="213.249346341500313" cy="244.651528124110882" r="16.496864701175809" fill="#000" stroke-width="0"/>
    <circle cx="36.609106123990387" cy="155.215095854922765" r="14.863200974814845" fill="#000" stroke-width="0"/>
    <circle cx="240.454167632010012" cy="52.812947342164534" r="7.431600487408559" fill="#000" stroke-width="0"/>
  </g>
</svg>