<?xml version="1.0" encoding="UTF-8"?>
<svg id="Pattern" xmlns="http://www.w3.org/2000/svg" xmlns:xlink="http://www.w3.org/1999/xlink" viewBox="0 0 280 280">
  <defs>
    <linearGradient id="linear-gradient" x1="65.63628515056098" y1="279.469861577872507" x2="225.087177941534407" y2="92.645424960144112" gradientUnits="userSpaceOnUse">
      <stop offset="0" stop-color="#7e9e4c"/>
      <stop offset=".487868088942308" stop-color="#91a23d"/>
      <stop offset=".713373248351595" stop-color="#9d9c43"/>
      <stop offset="1" stop-color="#b4924e"/>
    </linearGradient>
  </defs>
  <a xlink:href="https://www.notion.so/dmmnotes/Type-C-162696deae144fea8a7d2776d67b5fc9?pvs=4">
    <g id="C">
      <a xlink:href="https://www.notion.so/dmmnotes/Type-C-162696deae144fea8a7d2776d67b5fc9?pvs=4">
        <g id="C-2" data-name="C">
          <path d="M140,259.388671875c-36.970458984375,0-67.048583984375-30.078125-67.048828125-67.048828125,0-36.970703125,30.077880859375-67.048828125,67.048828125-67.048828125,36.970458984375,0,67.048583984375,30.078125,67.048828125,67.048828125,0,36.970703125-30.077880859375,67.048828125-67.048828125,67.048828125Z" fill="url(#linear-gradient)" stroke-width="0"/>
          <path d="M140,133.791000366210938c32.3330078125,0,58.548828125,26.21502685546875,58.548828125,58.548660278320312,0,32.335556030273438-26.21337890625,58.548721313476562-58.548828125,58.548782348632812-.001953125,0,.001953125,0,0,0-32.3330078125,0-58.548828125-26.215087890625-58.548828125-58.548660278320312,0-32.335556030273438,26.21337890625-58.548721313476562,58.548828125-58.548782348632812.001953125,0-.001953125,0,0,0M140,116.791000366210938h0c-41.65771484375.000053405761719-75.548828125,33.89111328125-75.548828125,75.548782348632812,0,41.65765380859375,33.89111328125,75.548675537109375,75.548828125,75.548675537109375,41.65771484375-.00006103515625,75.548828125-33.891128540039062,75.548828125-75.548797607421875,0-41.65765380859375-33.89111328125-75.548660278320312-75.548828125-75.548660278320312h0Z" fill="#000" stroke-width="0"/>
        </g>
      </a>
      <a xlink:href="https://www.notion.so/dmmnotes/Type-C-162696deae144fea8a7d2776d67b5fc9?pvs=4">
        <g>
          <path d="M154.916015625,87.92919921875c.10302734375-3.0341796875-.39208984375-5.310546875-1.4912109375-6.8291015625-1.09912109375-1.5166015625-2.48779296875-2.4580078125-4.16064453125-2.826171875-1.67529296875-.365234375-3.48095703125-.181640625-5.41650390625.5498046875-1.93798828125.7333984375-3.689453125,1.7802734375-5.25927734375,3.1396484375-3.6650390625,3.1396484375-6.62109375,7.1435546875-8.87060546875,12.0107421875-2.251953125,4.8662109375-3.76806640625,9.96875-4.55322265625,15.3076171875-.78466796875,5.337890625-.8388671875,10.6513671875-.15673828125,15.935546875.67919921875,5.2861328125,2.1708984375,9.8662109375,4.474609375,13.7373046875,1.46435546875,2.51171875,3.21826171875,4.37109375,5.25927734375,5.5732421875,2.041015625,1.2041015625,4.2119140625,1.8837890625,6.515625,2.041015625,2.30078125.1572265625,4.57763671875-.208984375,6.82958984375-1.0986328125,2.24951171875-.888671875,4.26318359375-2.22265625,6.04443359375-4.00390625,2.72021484375-2.720703125,4.91845703125-4.65625,6.59375-5.80859375,1.67333984375-1.1513671875,3.55712890625-1.779296875,5.65234375-1.884765625,5.9658203125,0,9.91552734375,1.67578125,11.853515625,5.0244140625,1.93505859375,3.3505859375,2.0654296875,7.4326171875.39208984375,12.24560546875-1.361328125,3.767578125-3.42919921875,7.064453125-6.201171875,9.890625-2.7744140625,2.826171875-5.9931640625,5.103515625-9.65576171875,6.830078125-3.6650390625,1.7265625-7.58984375,2.931640625-11.77490234375,3.611328125-4.1875.6796875-8.32080078125.86328125-12.40283203125.548828125s-7.95556640625-1.177734375-11.6181640625-2.58984375c-3.6650390625-1.4140625-6.80517578125-3.322265625-9.419921875-5.73046875-2.931640625-2.720703125-5.4951171875-5.833984375-7.69287109375-9.341796875-2.1982421875-3.505859375-4.03076171875-7.22216796875-5.4951171875-11.14697265625-1.46728515625-3.9248046875-2.56591796875-8.0068359375-3.296875-12.24609375-.73388671875-4.2392578125-1.09912109375-8.501953125-1.09912109375-12.794921875.20849609375-9.62890625,2.24951171875-18.943359375,6.123046875-27.9462890625,3.87109375-9.0009765625,9.00048828125-16.8505859375,15.3857421875-23.5498046875,2.92919921875-3.03515625,6.41015625-5.625,10.4404296875-7.771484375,4.0283203125-2.14453125,8.1640625-3.533203125,12.4033203125-4.1611328125,4.23876953125-.6279296875,8.3994140625-.4169921875,12.4814453125.6279296875,4.08203125,1.0478515625,7.69287109375,3.24609375,10.8330078125,6.5947265625,2.40625,2.51171875,4.341796875,5.3916015625,5.80908203125,8.634765625,1.46435546875,3.2451171875,2.5634765625,6.4912109375,3.296875,9.7333984375.4169921875,2.095703125.60107421875,4.08203125.54931640625,5.966796875-.0537109375,1.8837890625-.498046875,3.6650390625-1.33447265625,5.337890625-1.15283203125,2.0947265625-2.93115234375,3.5859375-5.337890625,4.474609375-2.4091796875.890625-4.78857421875,1.1767578125-7.1435546875.86328125-2.35498046875-.314453125-4.39599609375-1.2294921875-6.123046875-2.748046875-1.72705078125-1.515625-2.5390625-3.583984375-2.43359375-6.201171875Z" fill="none" stroke="#000" stroke-linecap="round" stroke-linejoin="round" stroke-width="33"/>
          <path d="M154.916015625,87.92919921875c.10302734375-3.0341796875-.39208984375-5.310546875-1.4912109375-6.8291015625-1.09912109375-1.5166015625-2.48779296875-2.4580078125-4.16064453125-2.826171875-1.67529296875-.365234375-3.48095703125-.181640625-5.41650390625.5498046875-1.93798828125.7333984375-3.689453125,1.7802734375-5.25927734375,3.1396484375-3.6650390625,3.1396484375-6.62109375,7.1435546875-8.87060546875,12.0107421875-2.251953125,4.8662109375-3.76806640625,9.96875-4.55322265625,15.3076171875-.78466796875,5.337890625-.8388671875,10.6513671875-.15673828125,15.935546875.67919921875,5.2861328125,2.1708984375,9.8662109375,4.474609375,13.7373046875,1.46435546875,2.51171875,3.21826171875,4.37109375,5.25927734375,5.5732421875,2.041015625,1.2041015625,4.2119140625,1.8837890625,6.515625,2.041015625,2.30078125.1572265625,4.57763671875-.208984375,6.82958984375-1.0986328125,2.24951171875-.888671875,4.26318359375-2.22265625,6.04443359375-4.00390625,2.72021484375-2.720703125,4.91845703125-4.65625,6.59375-5.80859375,1.67333984375-1.1513671875,3.55712890625-1.779296875,5.65234375-1.884765625,5.9658203125,0,9.91552734375,1.67578125,11.853515625,5.0244140625,1.93505859375,3.3505859375,2.0654296875,7.4326171875.39208984375,12.24560546875-1.361328125,3.767578125-3.42919921875,7.064453125-6.201171875,9.890625-2.7744140625,2.826171875-5.9931640625,5.103515625-9.65576171875,6.830078125-3.6650390625,1.7265625-7.58984375,2.931640625-11.77490234375,3.611328125-4.1875.6796875-8.32080078125.86328125-12.40283203125.548828125s-7.95556640625-1.177734375-11.6181640625-2.58984375c-3.6650390625-1.4140625-6.80517578125-3.322265625-9.419921875-5.73046875-2.931640625-2.720703125-5.4951171875-5.833984375-7.69287109375-9.341796875-2.1982421875-3.505859375-4.03076171875-7.22216796875-5.4951171875-11.14697265625-1.46728515625-3.9248046875-2.56591796875-8.0068359375-3.296875-12.24609375-.73388671875-4.2392578125-1.09912109375-8.501953125-1.09912109375-12.794921875.20849609375-9.62890625,2.24951171875-18.943359375,6.123046875-27.9462890625,3.87109375-9.0009765625,9.00048828125-16.8505859375,15.3857421875-23.5498046875,2.92919921875-3.03515625,6.41015625-5.625,10.4404296875-7.771484375,4.0283203125-2.14453125,8.1640625-3.533203125,12.4033203125-4.1611328125,4.23876953125-.6279296875,8.3994140625-.4169921875,12.4814453125.6279296875,4.08203125,1.0478515625,7.69287109375,3.24609375,10.8330078125,6.5947265625,2.40625,2.51171875,4.341796875,5.3916015625,5.80908203125,8.634765625,1.46435546875,3.2451171875,2.5634765625,6.4912109375,3.296875,9.7333984375.4169921875,2.095703125.60107421875,4.08203125.54931640625,5.966796875-.0537109375,1.8837890625-.498046875,3.6650390625-1.33447265625,5.337890625-1.15283203125,2.0947265625-2.93115234375,3.5859375-5.337890625,4.474609375-2.4091796875.890625-4.78857421875,1.1767578125-7.1435546875.86328125-2.35498046875-.314453125-4.39599609375-1.2294921875-6.123046875-2.748046875-1.72705078125-1.515625-2.5390625-3.583984375-2.43359375-6.201171875Z" fill="#fbf9f9" stroke-width="0"/>
        </g>
      </a>
    </g>
  </a>
</svg>