<?xml version="1.0" encoding="UTF-8"?>
<svg id="Pattern" xmlns="http://www.w3.org/2000/svg" xmlns:xlink="http://www.w3.org/1999/xlink" viewBox="0 0 280 280">
  <defs>
    <linearGradient id="linear-gradient" x1="91.938894217884808" y1="252.537447768581842" x2="182.368122113838268" y2="139.272556262552939" gradientUnits="userSpaceOnUse">
      <stop offset="0" stop-color="#7d67a2"/>
      <stop offset=".206039270413564" stop-color="#89639e"/>
      <stop offset=".489316239316239" stop-color="#a25d99"/>
      <stop offset=".695423804837873" stop-color="#ae5e91"/>
      <stop offset="1" stop-color="#c96282"/>
    </linearGradient>
  </defs>
  <a xlink:href="https://www.notion.so/dmmnotes/Compulsive-Type-A-e4331303bb644ca4a481c9e5d536687c?pvs=4">
    <g id="A_" data-name="A+">
      <a xlink:href="https://www.notion.so/dmmnotes/Compulsive-Type-A-e4331303bb644ca4a481c9e5d536687c?pvs=4">
        <g id="A_-2" data-name="A+">
          <path d="M139.9876708984375,259.404296875c-29.1268310546875,0-54.7479248046875-18.625-63.7547607421875-46.3447265625-5.5343017578125-17.033203125-4.1044921875-35.201171875,4.0262451171875-51.1591796875,8.1307373046875-15.95751953125,21.9888916015625-27.79345703125,39.0216064453125-33.32763671875,6.7340087890625-2.18798828125,13.708984375-3.29736328125,20.731201171875-3.29736328125,29.1270751953125,0,54.748291015625,18.62451171875,63.755126953125,46.3447265625,5.5343017578125,17.033203125,4.1044921875,35.201171875-4.0262451171875,51.1591796875-8.1307373046875,15.95703125-21.9888916015625,27.79296875-39.0216064453125,33.3271484375-6.734130859375,2.1884765625-13.709228515625,3.2978515625-20.7315673828125,3.2978515625Z" fill="url(#linear-gradient)" stroke-width="0"/>
          <path d="M140.01171875,133.775161743164062c24.68115234375-.000778198242188,47.6318359375,15.729217529296875,55.67138671875,40.471969604492188,9.9921875,30.753005981445312-6.83740234375,63.783477783203125-37.59033203125,73.775711059570312-6.01025390625,1.952835083007812-12.109375,2.88140869140625-18.1044921875,2.88140869140625-24.68115234375,0-47.6318359375-15.729248046875-55.67138671875-40.472000122070312-9.9921875-30.752944946289062,6.83740234375-63.783416748046875,37.59033203125-73.775711059570312,6.01025390625-1.95281982421875,12.109375-2.881195068359375,18.1044921875-2.881378173828125M140.013671875,116.775131225585938h-.00244140625c-7.916015625.000297546386719-15.7744140625,1.249710083007812-23.357421875,3.713470458984375-39.61865234375,12.872940063476562-61.3779296875,55.578125-48.5048828125,95.196884155273438,5.02880859375,15.477890014648438,14.6689453125,28.649642944335938,27.876953125,38.091232299804688,12.9296875,9.242294311523438,28.13134765625,14.127517700195312,43.96240234375,14.127517700195312,7.91552734375,0,15.77392578125-1.2493896484375,23.35791015625-3.713470458984375,39.61865234375-12.872802734375,61.3779296875-55.577987670898438,48.5048828125-95.196868896484375-5.02880859375-15.47711181640625-14.66845703125-28.648590087890625-27.87646484375-38.090469360351562-12.9296875-9.242820739746094-28.130859375-14.1282958984375-43.9609375-14.1282958984375h0Z" fill="#000" stroke-width="0"/>
        </g>
      </a>
      <a xlink:href="https://www.notion.so/dmmnotes/Compulsive-Type-A-e4331303bb644ca4a481c9e5d536687c?pvs=4">
        <g>
          <g>
            <path d="M117.62841796875,57.78564453125c3.9765625,2.302734375,7.37890625,5.12890625,10.205078125,8.4775390625,2.82568359375,3.3515625,5.20556640625,7.013671875,7.1435546875,10.990234375,1.935546875,3.978515625,3.478515625,8.1904296875,4.63134765625,12.638671875,1.150390625,4.44921875,2.041015625,8.923828125,2.6689453125,13.4228515625,1.46435546875,8.8974609375,2.30126953125,17.8984375,2.51220703125,27.00390625.20849609375,9.1064453125.05126953125,18.2666015625-.47119140625,27.47607421875-.2109375,2.6171875-.41943359375,4.763671875-.6279296875,6.435546875-.2109375,1.67578125-.603515625,3.037109375-1.177734375,4.08203125-.576171875,1.048828125-1.38818359375,1.884765625-2.43310546875,2.513671875-1.0478515625.626953125-2.51220703125,1.201171875-4.39599609375,1.7265625-1.78125.208984375-3.63818359375.365234375-5.57373046875.470703125-1.93798828125.103515625-3.74365234375-.419921875-5.41650390625-1.5703125-1.56982421875-1.044921875-2.8798828125-2.826171875-3.9248046875-5.337890625-1.0478515625-2.51171875-1.6240234375-6.123046875-1.72705078125-10.83203125v-1.5703125c-2.61767578125-.314453125-5.73046875-.57421875-9.341796875-.78515625-3.61083984375-.208984375-7.30029296875-.33984375-11.068359375-.392578125s-7.40576171875-.078125-10.91162109375-.078125h-8.8701171875c-.10546875.94140625-.23583984375,2.51171875-.392578125,4.708984375-.1572265625,2.19921875-.498046875,4.396484375-1.0205078125,6.59375-.52490234375,2.19921875-1.2314453125,4.1875-2.11962890625,5.966796875-.890625,1.78125-2.11962890625,2.720703125-3.689453125,2.826171875-1.466796875.103515625-3.14013671875.208984375-5.02392578125.314453125-1.88427734375.1015625-3.716796875-.10546875-5.4951171875-.62890625-1.78076171875-.41796875-3.2724609375-1.255859375-4.474609375-2.51171875-1.20458984375-1.255859375-1.859375-3.244140625-1.96240234375-5.966796875,0-3.2421875.0517578125-6.958984375.1572265625-11.146484375.10302734375-4.18505859375.31396484375-8.73779296875.6279296875-13.65869140625.20849609375-4.08203125.54931640625-8.556640625,1.0205078125-13.423828125.470703125-4.8671875,1.150390625-9.8642578125,2.041015625-14.9931640625.8876953125-5.126953125,2.041015625-10.2568359375,3.45361328125-15.38671875,1.4130859375-5.126953125,3.19189453125-9.9931640625,5.33837890625-14.6005859375,2.14404296875-4.6044921875,4.68310546875-8.84375,7.6142578125-12.716796875,2.92919921875-3.87109375,6.43701171875-7.1162109375,10.51904296875-9.734375,4.81298828125-3.0341796875,10.099609375-4.552734375,15.85693359375-4.552734375,5.75537109375,0,11.19873046875,1.4130859375,16.328125,4.2392578125ZM79.4775390625,129.22021484375c6.59375-.5224609375,13.16064453125-.9150390625,19.703125-1.177734375,6.5400390625-.259765625,13.10986328125-.287109375,19.70361328125-.078125.31396484375-7.4306640625,0-14.076171875-.94189453125-19.939453125-.94189453125-5.8603515625-2.251953125-10.8056640625-3.9248046875-14.8359375-1.67578125-4.0283203125-3.6650390625-7.1162109375-5.96630859375-9.2626953125-2.30322265625-2.14453125-4.658203125-3.21875-7.06494140625-3.21875-2.0947265625,0-4.26611328125,1.07421875-6.515625,3.21875-2.251953125,2.146484375-4.34423828125,5.2861328125-6.27978515625,9.419921875-1.93798828125,4.1357421875-3.689453125,9.23828125-5.25927734375,15.306640625-1.5703125,6.072265625-2.72314453125,12.9287109375-3.4541015625,20.5673828125Z" fill="none" stroke="#000" stroke-linecap="round" stroke-linejoin="round" stroke-width="33"/>
            <path d="M220.46240234375,117.28857421875c.10302734375,1.8837890625.20849609375,3.8212890625.31396484375,5.80859375.10302734375,1.9892578125.0244140625,3.822265625-.23583984375,5.4951171875-.26220703125,1.67578125-.70654296875,3.115234375-1.33447265625,4.3173828125-.6279296875,1.205078125-1.6240234375,1.962890625-2.98291015625,2.2763671875-.7333984375.2109375-2.4873046875.314453125-5.25927734375.314453125-2.77490234375,0-6.0986328125-.103515625-9.9697265625-.314453125.10302734375,2.7236328125.181640625,5.470703125.2353515625,8.2431640625.0517578125,2.7744140625.13037109375,5.57275390625.23583984375,8.39892578125-.2109375.83984375-.57666015625,1.51953125-1.09912109375,2.041015625-.52490234375.525390625-1.283203125.99609375-2.2763671875,1.4140625-.99609375.41796875-2.43359375.732421875-4.31787109375.94140625-1.78076171875.2109375-3.6376953125.392578125-5.5732421875.548828125-1.93798828125.158203125-3.74365234375.158203125-5.41650390625,0-1.67529296875-.15625-3.14013671875-.548828125-4.39599609375-1.177734375-1.255859375-.626953125-2.041015625-1.62109375-2.35498046875-2.982421875-.2109375-.94140625-.3408203125-3.140625-.392578125-6.59423828125-.0537109375-3.4541015625.0244140625-7.5361328125.2353515625-12.24609375-2.51171875-.2080078125-4.86669921875-.365234375-7.06494140625-.470703125-2.19775390625-.1025390625-4.08203125-.2080078125-5.65185546875-.3134765625-1.88427734375-.103515625-3.61083984375-.208984375-5.18115234375-.314453125-.52490234375.10546875-.99609375-.0517578125-1.4130859375-.470703125-.31396484375-.314453125-.6279296875-.8095703125-.94189453125-1.4921875-.31396484375-.6787109375-.470703125-1.7509765625-.470703125-3.2177734375-.10546875-1.46484375-.18408203125-3.1650390625-.23583984375-5.1025390625-.0537109375-1.935546875-.0537109375-3.7685546875,0-5.4951171875.0517578125-1.7275390625.23583984375-3.21875.5498046875-4.474609375s.83642578125-1.935546875,1.56982421875-2.041015625l20.2529296875-.314453125c.20849609375-2.40625.4169921875-4.6044921875.6279296875-6.59375.20849609375-1.9873046875.4169921875-3.7138671875.6279296875-5.1806640625.20849609375-1.7783203125.36572265625-3.400390625.47119140625-4.8671875-.10546875-.4169921875.0517578125-.8369140625.47119140625-1.255859375.31396484375-.314453125.83642578125-.6279296875,1.56982421875-.9423828125.73095703125-.3134765625,1.830078125-.470703125,3.296875-.470703125,1.46484375,0,3.16455078125.02734375,5.1025390625.078125,1.935546875.0546875,3.76806640625.1572265625,5.4951171875.314453125s3.21826171875.4189453125,4.474609375.78515625c1.255859375.3681640625,1.8837890625.9169921875,1.8837890625,1.6484375-.10546875,2.72265625-.18408203125,5.443359375-.2353515625,8.1640625-.05419921875,2.72265625-.07861328125,5.443359375-.07861328125,8.1640625l15.072265625-.1572265625c.73095703125.2109375,1.41259765625.576171875,2.041015625,1.0986328125.5224609375.525390625.9931640625,1.283203125,1.41259765625,2.2763671875.4169921875.99609375.73095703125,2.3828125.9423828125,4.1611328125Z" fill="none" stroke="#000" stroke-linecap="round" stroke-linejoin="round" stroke-width="33"/>
          </g>
          <g>
            <path d="M117.62841796875,57.78564453125c3.9765625,2.302734375,7.37890625,5.12890625,10.205078125,8.4775390625,2.82568359375,3.3515625,5.20556640625,7.013671875,7.1435546875,10.990234375,1.935546875,3.978515625,3.478515625,8.1904296875,4.63134765625,12.638671875,1.150390625,4.44921875,2.041015625,8.923828125,2.6689453125,13.4228515625,1.46435546875,8.8974609375,2.30126953125,17.8984375,2.51220703125,27.00390625.20849609375,9.1064453125.05126953125,18.2666015625-.47119140625,27.47607421875-.2109375,2.6171875-.41943359375,4.763671875-.6279296875,6.435546875-.2109375,1.67578125-.603515625,3.037109375-1.177734375,4.08203125-.576171875,1.048828125-1.38818359375,1.884765625-2.43310546875,2.513671875-1.0478515625.626953125-2.51220703125,1.201171875-4.39599609375,1.7265625-1.78125.208984375-3.63818359375.365234375-5.57373046875.470703125-1.93798828125.103515625-3.74365234375-.419921875-5.41650390625-1.5703125-1.56982421875-1.044921875-2.8798828125-2.826171875-3.9248046875-5.337890625-1.0478515625-2.51171875-1.6240234375-6.123046875-1.72705078125-10.83203125v-1.5703125c-2.61767578125-.314453125-5.73046875-.57421875-9.341796875-.78515625-3.61083984375-.208984375-7.30029296875-.33984375-11.068359375-.392578125s-7.40576171875-.078125-10.91162109375-.078125h-8.8701171875c-.10546875.94140625-.23583984375,2.51171875-.392578125,4.708984375-.1572265625,2.19921875-.498046875,4.396484375-1.0205078125,6.59375-.52490234375,2.19921875-1.2314453125,4.1875-2.11962890625,5.966796875-.890625,1.78125-2.11962890625,2.720703125-3.689453125,2.826171875-1.466796875.103515625-3.14013671875.208984375-5.02392578125.314453125-1.88427734375.1015625-3.716796875-.10546875-5.4951171875-.62890625-1.78076171875-.41796875-3.2724609375-1.255859375-4.474609375-2.51171875-1.20458984375-1.255859375-1.859375-3.244140625-1.96240234375-5.966796875,0-3.2421875.0517578125-6.958984375.1572265625-11.146484375.10302734375-4.18505859375.31396484375-8.73779296875.6279296875-13.65869140625.20849609375-4.08203125.54931640625-8.556640625,1.0205078125-13.423828125.470703125-4.8671875,1.150390625-9.8642578125,2.041015625-14.9931640625.8876953125-5.126953125,2.041015625-10.2568359375,3.45361328125-15.38671875,1.4130859375-5.126953125,3.19189453125-9.9931640625,5.33837890625-14.6005859375,2.14404296875-4.6044921875,4.68310546875-8.84375,7.6142578125-12.716796875,2.92919921875-3.87109375,6.43701171875-7.1162109375,10.51904296875-9.734375,4.81298828125-3.0341796875,10.099609375-4.552734375,15.85693359375-4.552734375,5.75537109375,0,11.19873046875,1.4130859375,16.328125,4.2392578125ZM79.4775390625,129.22021484375c6.59375-.5224609375,13.16064453125-.9150390625,19.703125-1.177734375,6.5400390625-.259765625,13.10986328125-.287109375,19.70361328125-.078125.31396484375-7.4306640625,0-14.076171875-.94189453125-19.939453125-.94189453125-5.8603515625-2.251953125-10.8056640625-3.9248046875-14.8359375-1.67578125-4.0283203125-3.6650390625-7.1162109375-5.96630859375-9.2626953125-2.30322265625-2.14453125-4.658203125-3.21875-7.06494140625-3.21875-2.0947265625,0-4.26611328125,1.07421875-6.515625,3.21875-2.251953125,2.146484375-4.34423828125,5.2861328125-6.27978515625,9.419921875-1.93798828125,4.1357421875-3.689453125,9.23828125-5.25927734375,15.306640625-1.5703125,6.072265625-2.72314453125,12.9287109375-3.4541015625,20.5673828125Z" fill="#fbf9f9" stroke-width="0"/>
            <path d="M220.46240234375,117.28857421875c.10302734375,1.8837890625.20849609375,3.8212890625.31396484375,5.80859375.10302734375,1.9892578125.0244140625,3.822265625-.23583984375,5.4951171875-.26220703125,1.67578125-.70654296875,3.115234375-1.33447265625,4.3173828125-.6279296875,1.205078125-1.6240234375,1.962890625-2.98291015625,2.2763671875-.7333984375.2109375-2.4873046875.314453125-5.25927734375.314453125-2.77490234375,0-6.0986328125-.103515625-9.9697265625-.314453125.10302734375,2.7236328125.181640625,5.470703125.2353515625,8.2431640625.0517578125,2.7744140625.13037109375,5.57275390625.23583984375,8.39892578125-.2109375.83984375-.57666015625,1.51953125-1.09912109375,2.041015625-.52490234375.525390625-1.283203125.99609375-2.2763671875,1.4140625-.99609375.41796875-2.43359375.732421875-4.31787109375.94140625-1.78076171875.2109375-3.6376953125.392578125-5.5732421875.548828125-1.93798828125.158203125-3.74365234375.158203125-5.41650390625,0-1.67529296875-.15625-3.14013671875-.548828125-4.39599609375-1.177734375-1.255859375-.626953125-2.041015625-1.62109375-2.35498046875-2.982421875-.2109375-.94140625-.3408203125-3.140625-.392578125-6.59423828125-.0537109375-3.4541015625.0244140625-7.5361328125.2353515625-12.24609375-2.51171875-.2080078125-4.86669921875-.365234375-7.06494140625-.470703125-2.19775390625-.1025390625-4.08203125-.2080078125-5.65185546875-.3134765625-1.88427734375-.103515625-3.61083984375-.208984375-5.18115234375-.314453125-.52490234375.10546875-.99609375-.0517578125-1.4130859375-.470703125-.31396484375-.314453125-.6279296875-.8095703125-.94189453125-1.4921875-.31396484375-.6787109375-.470703125-1.7509765625-.470703125-3.2177734375-.10546875-1.46484375-.18408203125-3.1650390625-.23583984375-5.1025390625-.0537109375-1.935546875-.0537109375-3.7685546875,0-5.4951171875.0517578125-1.7275390625.23583984375-3.21875.5498046875-4.474609375s.83642578125-1.935546875,1.56982421875-2.041015625l20.2529296875-.314453125c.20849609375-2.40625.4169921875-4.6044921875.6279296875-6.59375.20849609375-1.9873046875.4169921875-3.7138671875.6279296875-5.1806640625.20849609375-1.7783203125.36572265625-3.400390625.47119140625-4.8671875-.10546875-.4169921875.0517578125-.8369140625.47119140625-1.255859375.31396484375-.314453125.83642578125-.6279296875,1.56982421875-.9423828125.73095703125-.3134765625,1.830078125-.470703125,3.296875-.470703125,1.46484375,0,3.16455078125.02734375,5.1025390625.078125,1.935546875.0546875,3.76806640625.1572265625,5.4951171875.314453125s3.21826171875.4189453125,4.474609375.78515625c1.255859375.3681640625,1.8837890625.9169921875,1.8837890625,1.6484375-.10546875,2.72265625-.18408203125,5.443359375-.2353515625,8.1640625-.05419921875,2.72265625-.07861328125,5.443359375-.07861328125,8.1640625l15.072265625-.1572265625c.73095703125.2109375,1.41259765625.576171875,2.041015625,1.0986328125.5224609375.525390625.9931640625,1.283203125,1.41259765625,2.2763671875.4169921875.99609375.73095703125,2.3828125.9423828125,4.1611328125Z" fill="#fbf9f9" stroke-width="0"/>
          </g>
        </g>
      </a>
    </g>
  </a>
</svg>