<?xml version="1.0" encoding="UTF-8"?>
<svg id="Pattern" xmlns="http://www.w3.org/2000/svg" xmlns:xlink="http://www.w3.org/1999/xlink" viewBox="0 0 280 280">
  <defs>
    <linearGradient id="linear-gradient" x1="42.049221696803215" y1="252.537415618973682" x2="132.478426731441402" y2="139.27255274731948" gradientUnits="userSpaceOnUse">
      <stop offset="0" stop-color="#7d67a2"/>
      <stop offset=".385181145631382" stop-color="#895ea4"/>
      <stop offset=".489316239316239" stop-color="#8e5ba6"/>
      <stop offset=".841924594895194" stop-color="#9a5c9d"/>
      <stop offset="1" stop-color="#a25d99"/>
    </linearGradient>
    <linearGradient id="linear-gradient-2" x1="115.54180272868507" y1="279.469861577874326" x2="274.992695519660629" y2="92.645424960143401" gradientUnits="userSpaceOnUse">
      <stop offset="0" stop-color="#7e9e4c"/>
      <stop offset=".487868088942308" stop-color="#91a23d"/>
      <stop offset=".713373248351595" stop-color="#9d9c43"/>
      <stop offset="1" stop-color="#b4924e"/>
    </linearGradient>
  </defs>
  <a xlink:href="https://www.notion.so/dmmnotes/Type-AC-fcafcf3712bd425293abdb7055fe3005?pvs=4">
    <g id="AC">
      <a xlink:href="https://www.notion.so/dmmnotes/Type-AC-fcafcf3712bd425293abdb7055fe3005?pvs=4">
        <g id="A">
          <path d="M90.09814453125,259.404296875c-29.126953125,0-54.748046875-18.625-63.7548828125-46.3447265625-5.534423828125-17.033203125-4.1044921875-35.201171875,4.026123046875-51.1591796875,8.130859375-15.95751953125,21.989013671875-27.79345703125,39.021728515625-33.32763671875,6.734130859375-2.18798828125,13.708984375-3.29736328125,20.731201171875-3.29736328125,29.126953125,0,54.748291015625,18.62451171875,63.755126953125,46.3447265625,5.5341796875,17.033203125,4.1044921875,35.201171875-4.0263671875,51.1591796875-8.130615234375,15.95703125-21.98876953125,27.79296875-39.021484375,33.3271484375-6.734130859375,2.1884765625-13.709228515625,3.2978515625-20.7314453125,3.2978515625Z" fill="url(#linear-gradient)" stroke-width="0"/>
          <path d="M90.1220703125,133.775161743164062c24.68115234375-.000778198242188,47.6318359375,15.729217529296875,55.67138671875,40.471969604492188,9.9921875,30.753005981445312-6.837890625,63.783477783203125-37.5908203125,73.775711059570312-6.01025390625,1.952835083007812-12.109375,2.88140869140625-18.1044921875,2.88140869140625-24.6806640625,0-47.63134765625-15.729248046875-55.6708984375-40.472000122070312-9.9921875-30.752944946289062,6.83740234375-63.783416748046875,37.59033203125-73.775711059570312,6.01025390625-1.95281982421875,12.109375-2.881195068359375,18.1044921875-2.881378173828125M90.1240234375,116.775131225585938h-.00244140625c-7.916015625.000297546386719-15.7744140625,1.249710083007812-23.357421875,3.713470458984375-39.61865234375,12.872940063476562-61.3779296875,55.578125-48.5048828125,95.196884155273438,5.02880859375,15.477890014648438,14.66845703125,28.649581909179688,27.876953125,38.091171264648438,12.92919921875,9.242355346679688,28.13134765625,14.127578735351562,43.9619140625,14.127578735351562,7.91552734375,0,15.77392578125-1.2493896484375,23.35791015625-3.713470458984375,39.61865234375-12.8729248046875,61.37841796875-55.578048706054688,48.50537109375-95.196868896484375-5.02880859375-15.47711181640625-14.66845703125-28.648590087890625-27.87646484375-38.090469360351562-12.9296875-9.242820739746094-28.130859375-14.1282958984375-43.9609375-14.1282958984375h0Z" fill="#000" stroke-width="0"/>
        </g>
      </a>
      <a xlink:href="https://www.notion.so/dmmnotes/Type-AC-fcafcf3712bd425293abdb7055fe3005?pvs=4">
        <g id="C">
          <path d="M189.905517578125,259.388671875c-36.970458984375,0-67.048583984375-30.078125-67.048828125-67.048828125,0-36.970703125,30.077880859375-67.048828125,67.048828125-67.048828125,36.970458984375,0,67.048583984375,30.078125,67.048828125,67.048828125,0,36.970703125-30.077880859375,67.048828125-67.048828125,67.048828125Z" fill="url(#linear-gradient-2)" stroke-width="0"/>
          <path d="M189.9052734375,133.791000366210938c32.33349609375,0,58.548828125,26.21502685546875,58.548828125,58.548660278320312,0,32.335556030273438-26.212890625,58.548721313476562-58.54833984375,58.548782348632812-.001953125,0,.001953125,0,0,0-32.33349609375,0-58.548828125-26.215087890625-58.548828125-58.548660278320312,0-32.335556030273438,26.212890625-58.548721313476562,58.54833984375-58.548782348632812.001953125,0-.001953125,0,0,0M189.9052734375,116.791000366210938h0c-41.6572265625.000053405761719-75.54833984375,33.89111328125-75.54833984375,75.548782348632812,0,41.65765380859375,33.89111328125,75.548675537109375,75.548828125,75.548675537109375,41.6572265625-.00006103515625,75.54833984375-33.891128540039062,75.54833984375-75.548797607421875,0-41.65765380859375-33.89111328125-75.548660278320312-75.548828125-75.548660278320312h0Z" fill="#000" stroke-width="0"/>
        </g>
      </a>
      <a xlink:href="https://www.notion.so/dmmnotes/Type-AC-fcafcf3712bd425293abdb7055fe3005?pvs=4">
        <g id="AC-2" data-name="AC">
          <g>
            <path d="M113.861328125,57.78564453125c3.9765625,2.302734375,7.37890625,5.12890625,10.205078125,8.4775390625,2.82568359375,3.3515625,5.20556640625,7.013671875,7.1435546875,10.990234375,1.935546875,3.978515625,3.478515625,8.1904296875,4.63134765625,12.638671875,1.150390625,4.44921875,2.041015625,8.923828125,2.6689453125,13.4228515625,1.46435546875,8.8974609375,2.30126953125,17.8984375,2.51220703125,27.00390625.20849609375,9.1064453125.05126953125,18.2666015625-.47119140625,27.47607421875-.2109375,2.6171875-.41943359375,4.763671875-.6279296875,6.435546875-.2109375,1.67578125-.603515625,3.037109375-1.177734375,4.08203125-.576171875,1.048828125-1.38818359375,1.884765625-2.43310546875,2.513671875-1.0478515625.626953125-2.51220703125,1.201171875-4.39599609375,1.7265625-1.78125.208984375-3.63818359375.365234375-5.57373046875.470703125-1.93798828125.103515625-3.74365234375-.419921875-5.41650390625-1.5703125-1.56982421875-1.044921875-2.8798828125-2.826171875-3.9248046875-5.337890625-1.0478515625-2.51171875-1.6240234375-6.123046875-1.72705078125-10.83203125v-1.5703125c-2.61767578125-.314453125-5.73046875-.57421875-9.341796875-.78515625-3.61083984375-.208984375-7.30029296875-.33984375-11.068359375-.392578125s-7.40576171875-.078125-10.91162109375-.078125h-8.8701171875c-.10546875.94140625-.23583984375,2.51171875-.392578125,4.708984375-.1572265625,2.19921875-.498046875,4.396484375-1.0205078125,6.59375-.52490234375,2.19921875-1.2314453125,4.1875-2.11962890625,5.966796875-.890625,1.78125-2.11962890625,2.720703125-3.689453125,2.826171875-1.466796875.103515625-3.14013671875.208984375-5.02392578125.314453125-1.88427734375.1015625-3.716796875-.10546875-5.4951171875-.62890625-1.78076171875-.41796875-3.2724609375-1.255859375-4.474609375-2.51171875-1.20458984375-1.255859375-1.859375-3.244140625-1.96240234375-5.966796875,0-3.2421875.0517578125-6.958984375.1572265625-11.146484375.10302734375-4.18505859375.31396484375-8.73779296875.6279296875-13.65869140625.20849609375-4.08203125.54931640625-8.556640625,1.0205078125-13.423828125.470703125-4.8671875,1.150390625-9.8642578125,2.041015625-14.9931640625.8876953125-5.126953125,2.041015625-10.2568359375,3.45361328125-15.38671875,1.4130859375-5.126953125,3.19189453125-9.9931640625,5.33837890625-14.6005859375,2.14404296875-4.6044921875,4.68310546875-8.84375,7.6142578125-12.716796875,2.92919921875-3.87109375,6.43701171875-7.1162109375,10.51904296875-9.734375,4.81298828125-3.0341796875,10.099609375-4.552734375,15.85693359375-4.552734375,5.75537109375,0,11.19873046875,1.4130859375,16.328125,4.2392578125ZM75.71044921875,129.22021484375c6.59375-.5224609375,13.16064453125-.9150390625,19.703125-1.177734375,6.5400390625-.259765625,13.10986328125-.287109375,19.70361328125-.078125.31396484375-7.4306640625,0-14.076171875-.94189453125-19.939453125-.94189453125-5.8603515625-2.251953125-10.8056640625-3.9248046875-14.8359375-1.67578125-4.0283203125-3.6650390625-7.1162109375-5.96630859375-9.2626953125-2.30322265625-2.14453125-4.658203125-3.21875-7.06494140625-3.21875-2.0947265625,0-4.26611328125,1.07421875-6.515625,3.21875-2.251953125,2.146484375-4.34423828125,5.2861328125-6.27978515625,9.419921875-1.93798828125,4.1357421875-3.689453125,9.23828125-5.25927734375,15.306640625-1.5703125,6.072265625-2.72314453125,12.9287109375-3.4541015625,20.5673828125Z" fill="none" stroke="#000" stroke-linecap="round" stroke-linejoin="round" stroke-width="33"/>
            <path d="M202.87890625,87.92919921875c.10302734375-3.0341796875-.39208984375-5.310546875-1.4912109375-6.8291015625-1.09912109375-1.5166015625-2.48779296875-2.4580078125-4.16064453125-2.826171875-1.67529296875-.365234375-3.48095703125-.181640625-5.41650390625.5498046875-1.93798828125.7333984375-3.689453125,1.7802734375-5.25927734375,3.1396484375-3.6650390625,3.1396484375-6.62109375,7.1435546875-8.87060546875,12.0107421875-2.251953125,4.8662109375-3.76806640625,9.96875-4.55322265625,15.3076171875-.78466796875,5.337890625-.8388671875,10.6513671875-.15673828125,15.935546875.67919921875,5.2861328125,2.1708984375,9.8662109375,4.474609375,13.7373046875,1.46435546875,2.51171875,3.21826171875,4.37109375,5.25927734375,5.5732421875,2.041015625,1.2041015625,4.2119140625,1.8837890625,6.515625,2.041015625,2.30078125.1572265625,4.57763671875-.208984375,6.82958984375-1.0986328125,2.24951171875-.888671875,4.26318359375-2.22265625,6.04443359375-4.00390625,2.72021484375-2.720703125,4.91845703125-4.65625,6.59375-5.80859375,1.67333984375-1.1513671875,3.55712890625-1.779296875,5.65234375-1.884765625,5.9658203125,0,9.91552734375,1.67578125,11.853515625,5.0244140625,1.93505859375,3.3505859375,2.0654296875,7.4326171875.39208984375,12.24560546875-1.361328125,3.767578125-3.42919921875,7.064453125-6.201171875,9.890625-2.7744140625,2.826171875-5.9931640625,5.103515625-9.65576171875,6.830078125-3.6650390625,1.7265625-7.58984375,2.931640625-11.77490234375,3.611328125-4.1875.6796875-8.32080078125.86328125-12.40283203125.548828125s-7.95556640625-1.177734375-11.6181640625-2.58984375c-3.6650390625-1.4140625-6.80517578125-3.322265625-9.419921875-5.73046875-2.931640625-2.720703125-5.4951171875-5.833984375-7.69287109375-9.341796875-2.1982421875-3.505859375-4.03076171875-7.22216796875-5.4951171875-11.14697265625-1.46728515625-3.9248046875-2.56591796875-8.0068359375-3.296875-12.24609375-.73388671875-4.2392578125-1.09912109375-8.501953125-1.09912109375-12.794921875.20849609375-9.62890625,2.24951171875-18.943359375,6.123046875-27.9462890625,3.87109375-9.0009765625,9.00048828125-16.8505859375,15.3857421875-23.5498046875,2.92919921875-3.03515625,6.41015625-5.625,10.4404296875-7.771484375,4.0283203125-2.14453125,8.1640625-3.533203125,12.4033203125-4.1611328125,4.23876953125-.6279296875,8.3994140625-.4169921875,12.4814453125.6279296875,4.08203125,1.0478515625,7.69287109375,3.24609375,10.8330078125,6.5947265625,2.40625,2.51171875,4.341796875,5.3916015625,5.80908203125,8.634765625,1.46435546875,3.2451171875,2.5634765625,6.4912109375,3.296875,9.7333984375.4169921875,2.095703125.60107421875,4.08203125.54931640625,5.966796875-.0537109375,1.8837890625-.498046875,3.6650390625-1.33447265625,5.337890625-1.15283203125,2.0947265625-2.93115234375,3.5859375-5.337890625,4.474609375-2.4091796875.890625-4.78857421875,1.1767578125-7.1435546875.86328125-2.35498046875-.314453125-4.39599609375-1.2294921875-6.123046875-2.748046875-1.72705078125-1.515625-2.5390625-3.583984375-2.43359375-6.201171875Z" fill="none" stroke="#000" stroke-linecap="round" stroke-linejoin="round" stroke-width="33"/>
          </g>
          <g>
            <path d="M113.861328125,57.78564453125c3.9765625,2.302734375,7.37890625,5.12890625,10.205078125,8.4775390625,2.82568359375,3.3515625,5.20556640625,7.013671875,7.1435546875,10.990234375,1.935546875,3.978515625,3.478515625,8.1904296875,4.63134765625,12.638671875,1.150390625,4.44921875,2.041015625,8.923828125,2.6689453125,13.4228515625,1.46435546875,8.8974609375,2.30126953125,17.8984375,2.51220703125,27.00390625.20849609375,9.1064453125.05126953125,18.2666015625-.47119140625,27.47607421875-.2109375,2.6171875-.41943359375,4.763671875-.6279296875,6.435546875-.2109375,1.67578125-.603515625,3.037109375-1.177734375,4.08203125-.576171875,1.048828125-1.38818359375,1.884765625-2.43310546875,2.513671875-1.0478515625.626953125-2.51220703125,1.201171875-4.39599609375,1.7265625-1.78125.208984375-3.63818359375.365234375-5.57373046875.470703125-1.93798828125.103515625-3.74365234375-.419921875-5.41650390625-1.5703125-1.56982421875-1.044921875-2.8798828125-2.826171875-3.9248046875-5.337890625-1.0478515625-2.51171875-1.6240234375-6.123046875-1.72705078125-10.83203125v-1.5703125c-2.61767578125-.314453125-5.73046875-.57421875-9.341796875-.78515625-3.61083984375-.208984375-7.30029296875-.33984375-11.068359375-.392578125s-7.40576171875-.078125-10.91162109375-.078125h-8.8701171875c-.10546875.94140625-.23583984375,2.51171875-.392578125,4.708984375-.1572265625,2.19921875-.498046875,4.396484375-1.0205078125,6.59375-.52490234375,2.19921875-1.2314453125,4.1875-2.11962890625,5.966796875-.890625,1.78125-2.11962890625,2.720703125-3.689453125,2.826171875-1.466796875.103515625-3.14013671875.208984375-5.02392578125.314453125-1.88427734375.1015625-3.716796875-.10546875-5.4951171875-.62890625-1.78076171875-.41796875-3.2724609375-1.255859375-4.474609375-2.51171875-1.20458984375-1.255859375-1.859375-3.244140625-1.96240234375-5.966796875,0-3.2421875.0517578125-6.958984375.1572265625-11.146484375.10302734375-4.18505859375.31396484375-8.73779296875.6279296875-13.65869140625.20849609375-4.08203125.54931640625-8.556640625,1.0205078125-13.423828125.470703125-4.8671875,1.150390625-9.8642578125,2.041015625-14.9931640625.8876953125-5.126953125,2.041015625-10.2568359375,3.45361328125-15.38671875,1.4130859375-5.126953125,3.19189453125-9.9931640625,5.33837890625-14.6005859375,2.14404296875-4.6044921875,4.68310546875-8.84375,7.6142578125-12.716796875,2.92919921875-3.87109375,6.43701171875-7.1162109375,10.51904296875-9.734375,4.81298828125-3.0341796875,10.099609375-4.552734375,15.85693359375-4.552734375,5.75537109375,0,11.19873046875,1.4130859375,16.328125,4.2392578125ZM75.71044921875,129.22021484375c6.59375-.5224609375,13.16064453125-.9150390625,19.703125-1.177734375,6.5400390625-.259765625,13.10986328125-.287109375,19.70361328125-.078125.31396484375-7.4306640625,0-14.076171875-.94189453125-19.939453125-.94189453125-5.8603515625-2.251953125-10.8056640625-3.9248046875-14.8359375-1.67578125-4.0283203125-3.6650390625-7.1162109375-5.96630859375-9.2626953125-2.30322265625-2.14453125-4.658203125-3.21875-7.06494140625-3.21875-2.0947265625,0-4.26611328125,1.07421875-6.515625,3.21875-2.251953125,2.146484375-4.34423828125,5.2861328125-6.27978515625,9.419921875-1.93798828125,4.1357421875-3.689453125,9.23828125-5.25927734375,15.306640625-1.5703125,6.072265625-2.72314453125,12.9287109375-3.4541015625,20.5673828125Z" fill="#fbf9f9" stroke-width="0"/>
            <path d="M202.87890625,87.92919921875c.10302734375-3.0341796875-.39208984375-5.310546875-1.4912109375-6.8291015625-1.09912109375-1.5166015625-2.48779296875-2.4580078125-4.16064453125-2.826171875-1.67529296875-.365234375-3.48095703125-.181640625-5.41650390625.5498046875-1.93798828125.7333984375-3.689453125,1.7802734375-5.25927734375,3.1396484375-3.6650390625,3.1396484375-6.62109375,7.1435546875-8.87060546875,12.0107421875-2.251953125,4.8662109375-3.76806640625,9.96875-4.55322265625,15.3076171875-.78466796875,5.337890625-.8388671875,10.6513671875-.15673828125,15.935546875.67919921875,5.2861328125,2.1708984375,9.8662109375,4.474609375,13.7373046875,1.46435546875,2.51171875,3.21826171875,4.37109375,5.25927734375,5.5732421875,2.041015625,1.2041015625,4.2119140625,1.8837890625,6.515625,2.041015625,2.30078125.1572265625,4.57763671875-.208984375,6.82958984375-1.0986328125,2.24951171875-.888671875,4.26318359375-2.22265625,6.04443359375-4.00390625,2.72021484375-2.720703125,4.91845703125-4.65625,6.59375-5.80859375,1.67333984375-1.1513671875,3.55712890625-1.779296875,5.65234375-1.884765625,5.9658203125,0,9.91552734375,1.67578125,11.853515625,5.0244140625,1.93505859375,3.3505859375,2.0654296875,7.4326171875.39208984375,12.24560546875-1.361328125,3.767578125-3.42919921875,7.064453125-6.201171875,9.890625-2.7744140625,2.826171875-5.9931640625,5.103515625-9.65576171875,6.830078125-3.6650390625,1.7265625-7.58984375,2.931640625-11.77490234375,3.611328125-4.1875.6796875-8.32080078125.86328125-12.40283203125.548828125s-7.95556640625-1.177734375-11.6181640625-2.58984375c-3.6650390625-1.4140625-6.80517578125-3.322265625-9.419921875-5.73046875-2.931640625-2.720703125-5.4951171875-5.833984375-7.69287109375-9.341796875-2.1982421875-3.505859375-4.03076171875-7.22216796875-5.4951171875-11.14697265625-1.46728515625-3.9248046875-2.56591796875-8.0068359375-3.296875-12.24609375-.73388671875-4.2392578125-1.09912109375-8.501953125-1.09912109375-12.794921875.20849609375-9.62890625,2.24951171875-18.943359375,6.123046875-27.9462890625,3.87109375-9.0009765625,9.00048828125-16.8505859375,15.3857421875-23.5498046875,2.92919921875-3.03515625,6.41015625-5.625,10.4404296875-7.771484375,4.0283203125-2.14453125,8.1640625-3.533203125,12.4033203125-4.1611328125,4.23876953125-.6279296875,8.3994140625-.4169921875,12.4814453125.6279296875,4.08203125,1.0478515625,7.69287109375,3.24609375,10.8330078125,6.5947265625,2.40625,2.51171875,4.341796875,5.3916015625,5.80908203125,8.634765625,1.46435546875,3.2451171875,2.5634765625,6.4912109375,3.296875,9.7333984375.4169921875,2.095703125.60107421875,4.08203125.54931640625,5.966796875-.0537109375,1.8837890625-.498046875,3.6650390625-1.33447265625,5.337890625-1.15283203125,2.0947265625-2.93115234375,3.5859375-5.337890625,4.474609375-2.4091796875.890625-4.78857421875,1.1767578125-7.1435546875.86328125-2.35498046875-.314453125-4.39599609375-1.2294921875-6.123046875-2.748046875-1.72705078125-1.515625-2.5390625-3.583984375-2.43359375-6.201171875Z" fill="#fbf9f9" stroke-width="0"/>
          </g>
        </g>
      </a>
    </g>
  </a>
</svg>