<?xml version="1.0" encoding="UTF-8"?><svg id="uuid-add62958-eb09-40f0-9f28-d6444f5c81c9" xmlns="http://www.w3.org/2000/svg" width="280" height="280" xmlns:xlink="http://www.w3.org/1999/xlink" viewBox="0 0 280 280"><defs><linearGradient id="uuid-8a805fb3-d8ad-4ddc-b0e9-e095d224f588" x1="18.890413" y1="269.84401" x2="245.846526" y2="28.878261" gradientUnits="userSpaceOnUse"><stop offset="0" stop-color="#52789c"/><stop offset=".485043" stop-color="#6a70a0"/><stop offset="1" stop-color="#7d67a2"/></linearGradient></defs><path d="M140.266602,243.995117c-8.973145,0-17.956055-1.188477-26.699707-3.53125-54.824219-14.69043-87.475586-71.244141-72.785645-126.067383,12.040039-44.933105,52.901367-76.31543,99.367188-76.31543,8.973145,0,17.956543,1.187988,26.700195,3.530762,54.82373,14.689941,87.475098,71.243652,72.785156,126.067871-12.040039,44.933594-52.901367,76.31543-99.367188,76.31543Z" fill="url(#uuid-8a805fb3-d8ad-4ddc-b0e9-e095d224f588)" stroke-width="0"/><path d="M140.148315,46.581184c8.091919-.000416,16.312256,1.04718,24.500427,3.241173,50.377014,13.498466,80.272949,65.2798,66.774414,115.65686-11.304443,42.188904-49.463196,70.01564-91.156372,70.01564-8.091919,0-16.312256-1.047165-24.500427-3.241165-50.377014-13.498474-80.272949-65.2798-66.774475-115.656799,11.304504-42.18895,49.463257-70.013561,91.156433-70.015709M140.152893,29.581158v17l-.001282-17c-50.310364.002666-94.547302,33.975536-107.580505,82.615803-7.703735,28.750732-3.750183,58.780594,11.132263,84.5578,14.882507,25.777191,38.912354,44.215927,67.663086,51.919662,9.46106,2.535065,19.184509,3.820465,28.90033,3.820465,50.30603,0,94.543335-33.972794,107.577148-82.615723,7.703735-28.750748,3.750244-58.780678-11.132202-84.557877-14.882507-25.777199-38.912354-44.215931-67.663086-51.919662-9.46106-2.535069-19.182922-3.820469-28.895752-3.820469h0Z" stroke-width="0"/></svg>