<?xml version="1.0" encoding="UTF-8"?><svg id="uuid-a441e84d-6500-4370-9dab-3164208b6c3e" xmlns="http://www.w3.org/2000/svg" width="280" height="280" xmlns:xlink="http://www.w3.org/1999/xlink" viewBox="0 0 280 280"><defs><linearGradient id="uuid-2b70fc5f-3e34-42e8-9cc4-52e3e2953b02" x1="58.633333" y1="223.905494" x2="219.023649" y2="60.713601" gradientUnits="userSpaceOnUse"><stop offset="0" stop-color="#6a70a0"/><stop offset="1" stop-color="#679a5a"/></linearGradient></defs><circle cx="140.078125" cy="141.038086" r="102.933594" fill="url(#uuid-2b70fc5f-3e34-42e8-9cc4-52e3e2953b02)" stroke-width="0"/><path d="M140.078613,46.604626c52.153809,0,94.433105,42.279263,94.433105,94.433399s-42.279297,94.433395-94.433105,94.433395c-52.154297,0-94.433594-42.279266-94.433594-94.433395s42.279297-94.433399,94.433594-94.433399M140.078613,29.604626c-29.765137,0-57.748535,11.591064-78.79541,32.638065-21.046875,21.046997-32.638184,49.030403-32.638184,78.795334s11.591309,57.748337,32.638184,78.795334,49.030273,32.638062,78.79541,32.638062c29.764648,0,57.748047-11.591064,78.794922-32.638062,21.047363-21.047073,32.638184-49.030396,32.638184-78.795334s-11.59082-57.748268-32.638184-78.795334c-21.046875-21.047001-49.030273-32.638065-78.794922-32.638065h0Z" stroke-width="0"/></svg>