<?xml version="1.0" encoding="UTF-8"?><svg id="uuid-e99f513d-cd8f-403b-97c7-01b18493ab42" xmlns="http://www.w3.org/2000/svg" width="280" height="280" xmlns:xlink="http://www.w3.org/1999/xlink" viewBox="0 0 280 280"><defs><linearGradient id="uuid-0f4617a8-0515-49d0-9ab7-3e92774ae04d" x1="45.7962" y1="213.0289" x2="223.3507" y2="77.4991" gradientTransform="translate(256.8834 -19.8542) rotate(80.7825)" gradientUnits="userSpaceOnUse"><stop offset="0" stop-color="#af5f91"/><stop offset="1" stop-color="#b4924e"/></linearGradient></defs><circle cx="140.1096" cy="141.0381" r="102.9336" transform="translate(-21.5504 256.7467) rotate(-80.7825)" fill="url(#uuid-0f4617a8-0515-49d0-9ab7-3e92774ae04d)" stroke-width="0"/><path d="M140.1099,46.6046c52.1538,0,94.4331,42.2793,94.4331,94.4334s-42.2793,94.4334-94.4331,94.4334-94.4336-42.2793-94.4336-94.4334,42.2793-94.4334,94.4336-94.4334M140.1099,29.6046c-29.7651,0-57.7485,11.5911-78.7954,32.6381-21.0469,21.047-32.6382,49.0304-32.6382,78.7953s11.5913,57.7483,32.6382,78.7953,49.0303,32.6381,78.7954,32.6381,57.748-11.5911,78.7949-32.6381c21.0474-21.0471,32.6382-49.0304,32.6382-78.7953s-11.5908-57.7483-32.6382-78.7953c-21.0469-21.047-49.0303-32.6381-78.7949-32.6381h0Z" stroke-width="0"/></svg>