<?xml version="1.0" encoding="UTF-8"?><svg id="uuid-75e742b3-dbd6-4d29-b389-71b1c98edc83" xmlns="http://www.w3.org/2000/svg" width="280" height="280" xmlns:xlink="http://www.w3.org/1999/xlink" viewBox="0 0 280 280"><defs><linearGradient id="uuid-06156e4b-f168-4441-8372-564d542d3486" x1="32.95505" y1="253.088957" x2="215.057722" y2="62.581546" gradientUnits="userSpaceOnUse"><stop offset="0" stop-color="#2d7f98"/><stop offset="1" stop-color="#1f9276"/></linearGradient></defs><circle cx="140.0625" cy="141.038086" r="102.933594" fill="url(#uuid-06156e4b-f168-4441-8372-564d542d3486)" stroke-width="0"/><path d="M140.0625,46.604626c52.154297,0,94.433594,42.279263,94.433594,94.433399s-42.279297,94.433395-94.433594,94.433395c-52.153809,0-94.433105-42.279266-94.433105-94.433395s42.279297-94.433399,94.433105-94.433399M140.0625,29.604626c-29.764648,0-57.748047,11.591064-78.794922,32.638065-21.047363,21.047066-32.638184,49.030403-32.638184,78.795334s11.59082,57.74826,32.638184,78.795334c21.046875,21.046997,49.030273,32.638062,78.794922,32.638062,29.765137,0,57.748535-11.591064,78.79541-32.638062s32.638184-49.030396,32.638184-78.795334-11.591309-57.748337-32.638184-78.795334c-21.046875-21.047001-49.030273-32.638065-78.79541-32.638065h0Z" stroke-width="0"/></svg>