<?xml version="1.0" encoding="UTF-8"?><svg id="uuid-8fd905d5-6053-46b4-ac87-d4733f102ebc" xmlns="http://www.w3.org/2000/svg" width="280" height="280" xmlns:xlink="http://www.w3.org/1999/xlink" viewBox="0 0 280 280"><defs><linearGradient id="uuid-aa476305-74eb-46ad-a098-2918137f63f5" x1="83.487564" y1="245.510201" x2="195.885172" y2="38.572548" gradientUnits="userSpaceOnUse"><stop offset="0" stop-color="#2d7f98"/><stop offset=".5" stop-color="#008693"/><stop offset="1" stop-color="#008c8d"/></linearGradient></defs><path d="M140.318848,243.987305c-36.705566,0-70.896973-19.727539-89.230469-51.482422-13.74707-23.811523-17.399414-51.550293-10.283203-78.10791s24.148438-48.754395,47.959473-62.501953c15.644043-9.032227,33.410645-13.806152,51.378418-13.806152,36.706055,0,70.897461,19.727051,89.231445,51.482422,13.74707,23.811035,17.398926,51.550293,10.282715,78.108398-7.116211,26.557617-24.148438,48.753906-47.959473,62.500977-15.644043,9.032227-33.410645,13.806641-51.378906,13.806641Z" fill="url(#uuid-aa476305-74eb-46ad-a098-2918137f63f5)" stroke-width="0"/><path d="M140.143066,46.58886c32.638199-.001751,64.378021,16.935638,81.869904,47.232452,26.077072,45.166786,10.601791,102.921425-34.565002,128.998421-14.869972,8.58519-31.109375,12.667465-47.128525,12.667465-32.638195,0-64.378019-16.935654-81.869903-47.232452-26.077071-45.166794-10.601786-102.921364,34.565001-128.998436,14.869972-8.585186,31.109375-12.666592,47.128525-12.66745M140.148186,29.588882v17l-.001434-17c-19.463928.001072-38.699638,5.16893-55.63221,14.945-25.777216,14.8825-44.21593,38.912354-51.919716,67.663071-7.703714,28.75071-3.750214,58.780571,11.132286,84.557793,9.961786,17.254272,24.352715,31.528564,41.617073,41.279633,16.740284,9.455078,35.750427,14.452789,54.975281,14.452789,19.458076,0,38.694069-5.167923,55.628502-14.944992,25.777222-14.882431,44.215927-38.912292,51.919708-67.663086,7.70372-28.750702,3.750229-58.780563-11.132278-84.557777-9.961288-17.253502-24.351288-31.527359-41.614288-41.278645-16.739929-9.455715-35.749283-14.453785-54.972923-14.453785h0Z" stroke-width="0"/></svg>