<?xml version="1.0" encoding="UTF-8"?><svg id="uuid-c24de7cf-64ac-4d37-a7c0-ff2777f066a7" xmlns="http://www.w3.org/2000/svg" width="280" height="280" xmlns:xlink="http://www.w3.org/1999/xlink" viewBox="0 0 280 280"><defs><linearGradient id="uuid-508660ee-f12f-4079-827e-8ecbe8da3951" x1="101.464555" y1="188.169951" x2="171.02542" y2="103.669839" gradientUnits="userSpaceOnUse"><stop offset="0" stop-color="#008c8d"/><stop offset=".5" stop-color="#008f82"/><stop offset="1" stop-color="#1f9276"/></linearGradient></defs><path d="M140.318848,243.987305c-36.706055-.001953-70.896973-19.728516-89.230469-51.482422-28.378418-49.15332-11.477051-112.230957,37.67627-140.609863,15.644043-9.032227,33.410645-13.806152,51.378906-13.806152,36.705566,0,70.896484,19.727051,89.230469,51.482422,13.74707,23.811035,17.399414,51.550293,10.283203,78.108398-7.116211,26.557617-24.148438,48.753906-47.958984,62.500977-15.643555,9.03125-33.410645,13.806641-51.375977,13.806641h-.003418Z" fill="url(#uuid-508660ee-f12f-4079-827e-8ecbe8da3951)" stroke-width="0"/><path d="M140.14325,46.58886c32.635071,0,64.379639,16.938393,81.869934,47.232452,26.077148,45.166786,10.601746,102.921425-34.565125,128.998421-14.872681,8.586792-31.106445,12.667465-47.128418,12.667465-32.635071,0-64.379639-16.9384-81.869934-47.232452-26.077148-45.166794-10.601807-102.921364,34.565002-128.998436,14.872742-8.586781,31.106506-12.66745,47.12854-12.66745M140.14325,29.588882c-19.458069,0-38.694153,5.167927-55.62854,14.945-25.777222,14.8825-44.216003,38.912354-51.919678,67.663071-7.703796,28.75071-3.750244,58.780647,11.132263,84.557793,9.960999,17.25293,24.352173,31.526855,41.617676,41.278641,16.741394,9.455704,35.751343,14.453781,54.974609,14.453781,19.458069,0,38.694153-5.167923,55.628479-14.944992,25.777222-14.882431,44.216003-38.912292,51.9198-67.663086,7.703735-28.750702,3.750244-58.78064-11.132263-84.557777-9.960999-17.25293-24.352173-31.526859-41.617676-41.278645-16.741455-9.455715-35.751404-14.453785-54.97467-14.453785h0Z" stroke-width="0"/></svg>