<?xml version="1.0" encoding="UTF-8"?><svg id="uuid-e23a8870-3673-4451-b8bb-677acf087a67" xmlns="http://www.w3.org/2000/svg" width="280" height="280" xmlns:xlink="http://www.w3.org/1999/xlink" viewBox="0 0 280 280"><defs><linearGradient id="uuid-19c7c598-ceba-487c-8a6b-69c24841c73e" x1="92.120598" y1="196.830397" x2="188.805158" y2="84.732356" gradientUnits="userSpaceOnUse"><stop offset="0" stop-color="#008f82"/><stop offset=".5" stop-color="#1f9276"/><stop offset=".940171" stop-color="#4b9669"/></linearGradient></defs><path d="M140.326172,243.981445c-34.321289-.00293-66.254883-16.96875-85.420898-45.383789-31.738281-47.053711-19.277344-111.156738,27.776367-142.895508,17.077148-11.518555,36.951172-17.606934,57.473633-17.606934,34.320312,0,66.253906,16.965332,85.421875,45.383301,31.738281,47.054199,19.27832,111.157227-27.776367,142.895508-17.077148,11.518555-36.949219,17.607422-57.464844,17.607422h-.009766Z" fill="url(#uuid-19c7c598-ceba-487c-8a6b-69c24841c73e)" stroke-width="0"/><path d="M140.15509,46.595043c30.336121,0,60.134705,14.594437,78.374817,41.636478,29.164307,43.237717,17.755371,101.931152-25.4823,131.095367-16.195679,10.924118-34.551941,16.154114-52.720459,16.154114-30.336182,0-60.134766-14.594437-78.374817-41.636475-29.164307-43.237717-17.755554-101.931145,25.4823-131.09536,16.195679-10.924122,34.551941-16.154125,52.720459-16.154125M140.15509,29.595024c-22.222351,0-43.73999,6.591-62.226746,19.060501-24.67627,16.644356-41.393921,41.901932-47.073303,71.120003-5.679443,29.218063.359253,58.899063,17.003601,83.575287,20.750427,30.763779,55.318115,49.130203,92.468506,49.130203,22.222351,0,43.73999-6.590988,62.226685-19.060486,24.67627-16.644363,41.393921-41.901932,47.073364-71.12001,5.679443-29.21814-.359375-58.899071-17.003662-83.575279-20.750488-30.76379-55.317993-49.130219-92.468445-49.130219h0Z" stroke-width="0"/></svg>