<?xml version="1.0" encoding="UTF-8"?><svg id="uuid-f11fe204-984b-48e0-9f93-9e5d7b9bc305" xmlns="http://www.w3.org/2000/svg" width="280" height="280" xmlns:xlink="http://www.w3.org/1999/xlink" viewBox="0 0 280 280"><defs><linearGradient id="uuid-a24adce0-061a-465b-80a9-17d78f64365e" x1="92.1206" y1="196.8304" x2="188.8052" y2="84.7324" gradientUnits="userSpaceOnUse"><stop offset="0" stop-color="#008f82"/><stop offset=".5" stop-color="#1f9276"/><stop offset=".9402" stop-color="#4b9669"/></linearGradient></defs><path d="M140.3262,243.9814c-34.3213-.0029-66.2549-16.9688-85.4209-45.3838-31.7383-47.0537-19.2773-111.1567,27.7764-142.8955,17.0771-11.5186,36.9512-17.6069,57.4736-17.6069,34.3203,0,66.2539,16.9653,85.4219,45.3833,31.7383,47.0542,19.2783,111.1572-27.7764,142.8955-17.0771,11.5186-36.9492,17.6074-57.4648,17.6074h-.0098Z" fill="url(#uuid-a24adce0-061a-465b-80a9-17d78f64365e)" stroke-width="0"/><path d="M140.1551,46.595c30.3361,0,60.1347,14.5944,78.3748,41.6365,29.1643,43.2377,17.7554,101.9312-25.4823,131.0954-16.1957,10.9241-34.5519,16.1541-52.7205,16.1541-30.3362,0-60.1348-14.5944-78.3748-41.6365-29.1643-43.2377-17.7556-101.9311,25.4823-131.0954,16.1957-10.9241,34.5519-16.1541,52.7205-16.1541M140.1551,29.595c-22.2224,0-43.74,6.591-62.2267,19.0605-24.6763,16.6444-41.3939,41.9019-47.0733,71.12-5.6794,29.2181.3593,58.8991,17.0036,83.5753,20.7504,30.7638,55.3181,49.1302,92.4685,49.1302,22.2224,0,43.74-6.591,62.2267-19.0605,24.6763-16.6444,41.3939-41.9019,47.0734-71.12,5.6794-29.2181-.3594-58.8991-17.0037-83.5753-20.7505-30.7638-55.318-49.1302-92.4684-49.1302h0Z" stroke-width="0"/></svg>