<?xml version="1.0" encoding="UTF-8"?><svg id="uuid-bb321c60-e03d-48af-8174-3169ff990761" xmlns="http://www.w3.org/2000/svg" width="280" height="280" xmlns:xlink="http://www.w3.org/1999/xlink" viewBox="0 0 280 280"><defs><linearGradient id="uuid-3c755f4d-f6ab-43af-86ec-7db5035346e8" x1="140" y1="38.104492" x2="140" y2="243.97168" gradientUnits="userSpaceOnUse"><stop offset="0" stop-color="#008c8d"/><stop offset="1" stop-color="#f1666a"/></linearGradient></defs><circle cx="140" cy="141.038086" r="102.933594" fill="url(#uuid-3c755f4d-f6ab-43af-86ec-7db5035346e8)" stroke-width="0"/><path d="M140,46.604626c52.154297,0,94.433594,42.279263,94.433594,94.433399s-42.279297,94.433395-94.433594,94.433395-94.433594-42.279266-94.433594-94.433395,42.279297-94.433399,94.433594-94.433399M140,29.604626c-29.765137,0-57.748535,11.591064-78.79541,32.638065-21.046875,21.046997-32.638184,49.030403-32.638184,78.795334s11.591309,57.748337,32.638184,78.795334,49.030273,32.638062,78.79541,32.638062,57.748535-11.591064,78.79541-32.638062,32.638184-49.030396,32.638184-78.795334-11.591309-57.748337-32.638184-78.795334c-21.046875-21.047001-49.030273-32.638065-78.79541-32.638065h0Z" stroke-width="0"/></svg>