<?xml version="1.0" encoding="UTF-8"?><svg id="uuid-9a4db449-a756-4fdc-b400-95070710c9bf" xmlns="http://www.w3.org/2000/svg" width="280" height="280" xmlns:xlink="http://www.w3.org/1999/xlink" viewBox="0 0 280 280"><defs><linearGradient id="uuid-48ab72c8-e36f-4b85-b9f5-023692060315" x1="105.9338" y1="188.3639" x2="172.2406" y2="96.375" gradientUnits="userSpaceOnUse"><stop offset="0" stop-color="#008693"/><stop offset=".5" stop-color="#008c8d"/><stop offset="1" stop-color="#008f82"/></linearGradient></defs><circle cx="140.0469" cy="141.0381" r="102.9336" fill="url(#uuid-48ab72c8-e36f-4b85-b9f5-023692060315)" stroke-width="0"/><path d="M140.0469,46.6046c52.1543,0,94.4336,42.2793,94.4336,94.4334s-42.2793,94.4334-94.4336,94.4334-94.4331-42.2793-94.4331-94.4334,42.2793-94.4334,94.4331-94.4334M140.0469,29.6046c-29.7646,0-57.748,11.5911-78.7949,32.6381-21.0474,21.0471-32.6382,49.0304-32.6382,78.7953s11.5908,57.7483,32.6382,78.7953c21.0469,21.047,49.0303,32.6381,78.7949,32.6381s57.7485-11.5911,78.7954-32.6381,32.6382-49.0304,32.6382-78.7953-11.5913-57.7483-32.6382-78.7953c-21.0469-21.047-49.0303-32.6381-78.7954-32.6381h0Z" stroke-width="0"/><path d="M160.2861,46.0474c9.1553.9561,17.8965,3.3994,26.2266,7.3232,8.3252,3.9277,14.9727,9.7729,19.9395,17.5312,2.7373,4.3901,4.8018,9.0786,6.1934,14.0654,1.3877,4.9897,2.0127,9.9854,1.8789,14.9819-.1377,5.001-1.1221,9.8799-2.9531,14.6338-1.834,4.7573-4.5137,9.1797-8.0439,13.2695-3.8691,4.6001-7.9922,8.6113-12.373,12.0283-4.3857,3.4199-8.8965,6.6655-13.5342,9.7461-4.6416,3.0811-9.3623,6.1621-14.1719,9.2441-4.8066,3.082-9.4854,6.6709-14.0322,10.7676-3.2012,2.9053-5.4717,5.6719-6.8076,8.3057-1.3408,2.6377-1.998,5.3105-1.9795,8.0186-.1523,2.8838-1.1582,4.542-3.0176,4.9756-1.8633.4375-3.9785.6621-6.3486.6777-3.9004.0264-7.4619-.542-10.6865-1.708-3.2285-1.1621-5.9072-2.8389-8.0391-5.0293-2.1348-2.1855-3.6338-4.8877-4.501-8.1035-.8711-3.2109-.8965-6.9395-.0742-11.1826,1.9785-8.1455,5.4502-14.7334,10.415-19.7656,4.9629-5.0283,10.6484-9.8555,17.0596-14.4722,2.5322-1.5425,5.6953-3.6357,9.4893-6.29,3.7949-2.6504,7.6289-5.5151,11.5078-8.5908,3.875-3.0757,7.4541-6.2764,10.7363-9.6021,3.2832-3.3262,5.5879-6.6021,6.9248-9.8311,1.835-4.0786,2.3643-7.5972,1.582-10.5581-.7822-2.957-2.3672-5.4048-4.751-7.3389-2.3877-1.9297-5.3594-3.3081-8.9238-4.1348-3.5625-.8218-7.3369-1.1343-11.3154-.9414-3.9814.1973-7.8721.9023-11.6768,2.1108-3.8047,1.2129-7.1416,2.8433-10.0068,4.896-2.8691,2.0522-5.4795,4.2739-7.835,6.6602-2.3584,2.3896-4.1611,4.9434-5.4121,7.6602-1.2529,2.7202-1.8281,5.7305-1.7197,9.0337.1055,3.3037,1.2725,6.8145,3.501,10.5244,1.7109,3.0386,1.7324,6.1758.0625,9.4038-1.6738,3.2319-4.1533,5.9165-7.4443,8.0557-3.2891,2.1416-6.9668,3.394-11.0312,3.7578-4.0645.3687-7.6299-.7949-10.6973-3.4868-3.9219-3.3618-6.7002-7.3662-8.3398-12.0176-1.6436-4.6475-2.3945-9.4712-2.2568-14.4717.1338-4.9971.9893-10.0459,2.5684-15.1396,1.5742-5.0928,3.6201-9.7651,6.1338-14.019,3.5176-6.1235,8.1416-11.3198,13.875-15.5952,5.7295-4.272,12.0215-7.7046,18.8662-10.292,6.8447-2.5869,13.8223-4.2852,20.9336-5.0952,7.1113-.8096,13.8027-.8105,20.0791-.0059ZM144.6592,218.7236c.0322,4.916-2.0166,9.1631-6.1436,12.748-4.1299,3.585-8.9863,5.3955-14.5781,5.4326-5.9326.04-10.8994-1.7061-14.9014-5.2373-4.0068-3.5312-6.0244-7.751-6.0566-12.667-.0352-5.25,1.9248-9.6719,5.8848-13.2559,3.9541-3.585,8.8975-5.3975,14.8301-5.4365,5.5918-.0371,10.4717,1.71,14.6494,5.2412,4.1738,3.5303,6.2803,7.9248,6.3154,13.1748Z" fill="none" stroke="#000" stroke-width="29"/><path d="M160.2861,46.0474c9.1553.9561,17.8965,3.3994,26.2266,7.3232,8.3252,3.9277,14.9727,9.7729,19.9395,17.5312,2.7373,4.3901,4.8018,9.0786,6.1934,14.0654,1.3877,4.9897,2.0127,9.9854,1.8789,14.9819-.1377,5.001-1.1221,9.8799-2.9531,14.6338-1.834,4.7573-4.5137,9.1797-8.0439,13.2695-3.8691,4.6001-7.9922,8.6113-12.373,12.0283-4.3857,3.4199-8.8965,6.6655-13.5342,9.7461-4.6416,3.0811-9.3623,6.1621-14.1719,9.2441-4.8066,3.082-9.4854,6.6709-14.0322,10.7676-3.2012,2.9053-5.4717,5.6719-6.8076,8.3057-1.3408,2.6377-1.998,5.3105-1.9795,8.0186-.1523,2.8838-1.1582,4.542-3.0176,4.9756-1.8633.4375-3.9785.6621-6.3486.6777-3.9004.0264-7.4619-.542-10.6865-1.708-3.2285-1.1621-5.9072-2.8389-8.0391-5.0293-2.1348-2.1855-3.6338-4.8877-4.501-8.1035-.8711-3.2109-.8965-6.9395-.0742-11.1826,1.9785-8.1455,5.4502-14.7334,10.415-19.7656,4.9629-5.0283,10.6484-9.8555,17.0596-14.4722,2.5322-1.5425,5.6953-3.6357,9.4893-6.29,3.7949-2.6504,7.6289-5.5151,11.5078-8.5908,3.875-3.0757,7.4541-6.2764,10.7363-9.6021,3.2832-3.3262,5.5879-6.6021,6.9248-9.8311,1.835-4.0786,2.3643-7.5972,1.582-10.5581-.7822-2.957-2.3672-5.4048-4.751-7.3389-2.3877-1.9297-5.3594-3.3081-8.9238-4.1348-3.5625-.8218-7.3369-1.1343-11.3154-.9414-3.9814.1973-7.8721.9023-11.6768,2.1108-3.8047,1.2129-7.1416,2.8433-10.0068,4.896-2.8691,2.0522-5.4795,4.2739-7.835,6.6602-2.3584,2.3896-4.1611,4.9434-5.4121,7.6602-1.2529,2.7202-1.8281,5.7305-1.7197,9.0337.1055,3.3037,1.2725,6.8145,3.501,10.5244,1.7109,3.0386,1.7324,6.1758.0625,9.4038-1.6738,3.2319-4.1533,5.9165-7.4443,8.0557-3.2891,2.1416-6.9668,3.394-11.0312,3.7578-4.0645.3687-7.6299-.7949-10.6973-3.4868-3.9219-3.3618-6.7002-7.3662-8.3398-12.0176-1.6436-4.6475-2.3945-9.4712-2.2568-14.4717.1338-4.9971.9893-10.0459,2.5684-15.1396,1.5742-5.0928,3.6201-9.7651,6.1338-14.019,3.5176-6.1235,8.1416-11.3198,13.875-15.5952,5.7295-4.272,12.0215-7.7046,18.8662-10.292,6.8447-2.5869,13.8223-4.2852,20.9336-5.0952,7.1113-.8096,13.8027-.8105,20.0791-.0059ZM144.6592,218.7236c.0322,4.916-2.0166,9.1631-6.1436,12.748-4.1299,3.585-8.9863,5.3955-14.5781,5.4326-5.9326.04-10.8994-1.7061-14.9014-5.2373-4.0068-3.5312-6.0244-7.751-6.0566-12.667-.0352-5.25,1.9248-9.6719,5.8848-13.2559,3.9541-3.585,8.8975-5.3975,14.8301-5.4365,5.5918-.0371,10.4717,1.71,14.6494,5.2412,4.1738,3.5303,6.2803,7.9248,6.3154,13.1748Z" fill="#e6e7e8" stroke-width="0"/></svg>