<?xml version="1.0" encoding="UTF-8"?><svg id="uuid-0c6b8907-5dc4-4e66-8104-fc1c8126f757" xmlns="http://www.w3.org/2000/svg" width="280" height="280" xmlns:xlink="http://www.w3.org/1999/xlink" viewBox="0 0 280 280"><defs><linearGradient id="uuid-53e4672f-576f-448f-8ca5-0f8ef8c92f63" x1="92.291184" y1="192.375109" x2="191.795558" y2="85.863384" gradientUnits="userSpaceOnUse"><stop offset="0" stop-color="#1f9276"/><stop offset=".5" stop-color="#4b9669"/><stop offset="1" stop-color="#679a5a"/></linearGradient></defs><path d="M140.163086,243.987305c-17.969727-.000977-35.736328-4.775391-51.378906-13.806641-23.810547-13.74707-40.84375-35.943359-47.959961-62.500977-7.116211-26.558105-3.463867-54.297363,10.283203-78.108398,18.333984-31.755371,52.525391-51.482422,89.231445-51.482422,17.967773,0,35.734375,4.773926,51.378906,13.806152,49.15332,28.379395,66.054688,91.456543,37.675781,140.609863-18.333984,31.755859-52.522461,51.482422-89.224609,51.482422h-.005859Z" fill="url(#uuid-53e4672f-576f-448f-8ca5-0f8ef8c92f63)" stroke-width="0"/><path d="M140.338867,46.58886c16.019165,0,32.258545,4.082264,47.12854,12.66745,45.16687,26.077072,60.642212,83.831642,34.565063,128.998436-17.491821,30.296799-49.231689,47.232452-81.869873,47.232452-16.019165,0-32.258545-4.082275-47.12854-12.667465-45.16687-26.076996-60.64209-83.831635-34.565063-128.998421,17.491943-30.296814,49.231812-47.232452,81.869873-47.232452M140.338989,29.588882c-19.224854,0-38.234985,4.997715-54.97522,14.452785-17.264404,9.751072-31.655396,24.025356-41.617188,41.279644-14.882446,25.777214-18.835938,55.807076-11.132324,84.557777,7.703735,28.750793,26.142578,52.780655,51.9198,67.663086,16.934326,9.777069,36.17041,14.944992,55.62854,14.944992,19.224854,0,38.234985-4.997711,54.97522-14.452789,17.264404-9.751068,31.655273-24.02536,41.617065-41.279633,14.882446-25.777145,18.83606-55.807083,11.132324-84.557793-7.703735-28.750717-26.142578-52.780643-51.9198-67.663071-16.934326-9.777073-36.170288-14.945-55.628418-14.945h0Z" stroke-width="0"/></svg>