<?xml version="1.0" encoding="UTF-8"?><svg id="uuid-2b2b335c-b0a9-410f-a670-94069a1580f8" xmlns="http://www.w3.org/2000/svg" width="280" height="280" xmlns:xlink="http://www.w3.org/1999/xlink" viewBox="0 0 280 280"><defs><linearGradient id="uuid-b61104dd-0fc4-4522-80f5-26a1bf2e2c6e" x1="33.239403" y1="300.950311" x2="243.370117" y2="-13.195107" gradientUnits="userSpaceOnUse"><stop offset="0" stop-color="#91a23d"/><stop offset=".035609" stop-color="#979f40"/><stop offset=".159034" stop-color="#a79747"/><stop offset=".297511" stop-color="#b0934c"/><stop offset=".480769" stop-color="#b4924e"/><stop offset=".748268" stop-color="#b7904f"/><stop offset=".956524" stop-color="#c08b55"/><stop offset="1" stop-color="#c48a57"/></linearGradient></defs><path d="M140.204102,243.97168c-56.757812,0-102.933594-46.175781-102.933594-102.933594s46.175781-102.933594,102.933594-102.933594c56.756836,0,102.932617,46.175781,102.933594,102.933594,0,56.757812-46.175781,102.933594-102.933594,102.933594Z" fill="url(#uuid-b61104dd-0fc4-4522-80f5-26a1bf2e2c6e)" stroke-width="0"/><path d="M140.204102,46.604626c52.149414,0,94.433105,42.282383,94.433105,94.433338,0,52.154129-42.279297,94.433456-94.43335,94.433456-.003174,0,.003174,0,0,0-52.149658,0-94.43335-42.282379-94.43335-94.433334-.000244-52.154129,42.279053-94.43346,94.43335-94.43346.003174,0-.00293,0,.000244,0M140.204102,29.604626c-.000732,0,.000244,0-.000244,0-29.764893,0-57.748535,11.591133-78.79541,32.638134-21.047119,21.046997-32.638184,49.030396-32.637939,78.795403,0,29.763199,11.591553,57.746201,32.639648,78.794067,21.047852,21.047729,49.030762,32.639191,78.793701,32.639191,29.764893,0,57.748291-11.591125,78.795166-32.638123,21.047119-21.047012,32.638184-49.030411,32.638184-78.795334,0-29.763275-11.591553-57.746269-32.639648-78.794136-21.047852-21.047737-49.030762-32.639202-78.793457-32.639202h0Z" stroke-width="0"/></svg>