<?xml version="1.0" encoding="UTF-8"?><svg id="uuid-a1fd35b1-a695-4d1b-a209-4fc1690263b2" xmlns="http://www.w3.org/2000/svg" width="280" height="280" xmlns:xlink="http://www.w3.org/1999/xlink" viewBox="0 0 280 280"><defs><linearGradient id="uuid-96b72613-2eb2-4366-9fba-bf076e57d06d" x1="235.661401" y1="10.152249" x2="73.164067" y2="232.885664" gradientTransform="translate(64.643143 -42.905846) rotate(22.500068)" gradientUnits="userSpaceOnUse"><stop offset="0" stop-color="#c48a57"/><stop offset=".514957" stop-color="#d3805f"/><stop offset=".799864" stop-color="#d97a61"/><stop offset="1" stop-color="#e17465"/></linearGradient></defs><circle cx="140.172363" cy="141.038086" r="102.933004" transform="translate(-43.303044 64.377744) rotate(-22.500068)" fill="url(#uuid-96b72613-2eb2-4366-9fba-bf076e57d06d)" stroke-width="0"/><path d="M140.172607,46.604626c52.149658,0,94.433105,42.282314,94.43335,94.433262,0,52.154205-42.279297,94.433472-94.43335,94.433533-.003174,0,.003174,0,0,0-52.150146,0-94.433594-42.282318-94.433594-94.433258,0-52.154137,42.279297-94.433472,94.43335-94.433537.003174,0-.003174,0,.000244,0M140.172607,29.604626c-.000732,0,.000244,0-.000244,0-29.764893.000067-57.748291,11.591198-78.795166,32.638203-21.047119,21.046997-32.638184,49.030396-32.638184,78.795334,0,29.763336,11.591797,57.746262,32.639648,78.794128,21.048096,21.047668,49.030762,32.63913,78.793945,32.63913,29.764893-.000061,57.748291-11.591125,78.795166-32.638123,21.047119-21.047012,32.638184-49.030472,32.638184-78.79541-.000244-29.763329-11.592041-57.746262-32.639893-78.794128-21.047852-21.047668-49.030762-32.639133-78.793457-32.639133h0Z" stroke-width="0"/></svg>