<?xml version="1.0" encoding="UTF-8"?><svg id="uuid-b290d309-9519-409c-a04b-62d7a2dd5d93" xmlns="http://www.w3.org/2000/svg" width="280" height="280" xmlns:xlink="http://www.w3.org/1999/xlink" viewBox="0 0 280 280"><defs><linearGradient id="uuid-70b02a7c-942b-42e6-8f05-62295e010aa3" x1="151.1911" y1="167.0623" x2="151.1911" y2="33.1438" gradientTransform="translate(7.8537 -10.6709) rotate(4.0756)" gradientUnits="userSpaceOnUse"><stop offset="0" stop-color="#2d7f98"/><stop offset=".5" stop-color="#008c8d"/><stop offset="1" stop-color="#1f9276"/></linearGradient><linearGradient id="uuid-ab1ae8cf-60a4-4cc1-84ba-2a3d593b7f92" x1="381.8029" y1="51.836" x2="381.8029" y2="-69.0194" gradientTransform="translate(-304.2205 224.2325) rotate(-5.4817)" gradientUnits="userSpaceOnUse"><stop offset="0" stop-color="#7d67a2"/><stop offset=".5" stop-color="#8e5ba6"/><stop offset="1" stop-color="#a25d99"/></linearGradient><linearGradient id="uuid-4515e3f6-138f-4756-b101-8d51d68a12ba" x1="1012.7941" y1="-200.8851" x2="1012.7941" y2="-306.2169" gradientTransform="translate(-820.8464 314.6088) rotate(6.0842) skewX(1)" gradientUnits="userSpaceOnUse"><stop offset="0" stop-color="#7e9e4c"/><stop offset=".5" stop-color="#91a23d"/><stop offset="1" stop-color="#b4924e"/></linearGradient></defs><path d="M181.729,99.1523c4.8838,4.3633,8.377,9.6025,10.4824,15.7139,2.1021,6.1143,2.458,12.3076,1.0669,18.585-1.5684,7.0928-4.8169,12.9131-9.7461,17.4609-4.9297,4.5508-10.6089,8.0117-17.0356,10.3887-6.4297,2.375-13.2881,3.7773-20.5806,4.2012-7.292.4248-14.0854.0586-20.3794-1.0977-.606.1924-1.145.3008-1.6177.3281-.4751.0234-1.0098.0742-1.6045.1504-2.123-.0342-4.2988-.1895-6.521-.4648-2.2241-.2764-4.2241-.8037-5.998-1.5781-1.7773-.7734-3.2573-1.9424-4.4443-3.5049-1.1895-1.5605-1.8037-3.6992-1.8452-6.4199-.1445-1.3076-.0161-3.9258.3828-7.8545.396-3.9268.8555-8.707,1.376-14.3379.644-5.7383,1.2959-11.9795,1.9541-18.7236.6577-6.7432,1.2866-13.5166,1.8906-20.3232.752-8.9189,1.5107-17.8984,2.2734-26.9385.7603-9.0371,1.0566-18.1689.8892-27.3916-.1616-1.0742.0239-2.0039.5537-2.7939.2842-.6885.8608-1.3252,1.73-1.9141.8667-.5859,2.1318-.9385,3.7954-1.0576,1.1812-.0322,2.4878-.1162,3.9146-.2529,1.4268-.1338,2.9067-.2051,4.4434-.2139,1.5337-.0078,3.0044.0977,4.4058.3135,1.4014.2188,2.6187.54,3.6509.9688,6.0498-.3936,12.3359.0234,18.8628,1.2549,6.5234,1.2344,12.6113,3.2324,18.2598,5.9951,5.6475,2.7656,10.4736,6.2676,14.4834,10.5088,4.0073,4.2422,6.5161,9.2314,7.5239,14.9707.4106,2.5098.5791,5.1201.5049,7.8301-.0771,2.7119-.5679,5.4805-1.4775,8.3076-.9102,2.8301-2.269,5.7451-4.0771,8.7432-1.8076,3.001-4.1807,6.0508-7.1167,9.1465ZM133.5371,136.6338c6.2944,1.1572,11.6602,1.2461,16.1001.2617,4.437-.9814,7.8232-2.5117,10.1572-4.5898,2.3315-2.0752,3.6187-4.4053,3.8638-6.9863.2417-2.5791-.6265-4.8857-2.6074-6.917-1.981-2.0283-5.1235-3.5225-9.4224-4.4795-4.3022-.9541-9.7964-.9023-16.4839.1543l-1.6074,22.5566ZM136.6499,85.4902c5.6226.6377,10.4229.3887,14.4009-.7461,3.9771-1.1338,7.0166-2.7764,9.1187-4.9297,2.1021-2.1523,3.2183-4.5801,3.3535-7.2881.1313-2.7061-.7236-5.1885-2.5693-7.4453-1.8481-2.2578-4.7295-4.085-8.6426-5.4873-3.9155-1.3994-8.9585-1.9053-15.124-1.5195.0254,4.6064-.0322,9.1494-.1743,13.625-.1416,4.4795-.2646,9.0762-.3628,13.791Z" fill="none" stroke="#000" stroke-miterlimit="10" stroke-width="41"/><path d="M181.729,99.1523c4.8838,4.3633,8.377,9.6025,10.4824,15.7139,2.1021,6.1143,2.458,12.3076,1.0669,18.585-1.5684,7.0928-4.8169,12.9131-9.7461,17.4609-4.9297,4.5508-10.6089,8.0117-17.0356,10.3887-6.4297,2.375-13.2881,3.7773-20.5806,4.2012-7.292.4248-14.0854.0586-20.3794-1.0977-.606.1924-1.145.3008-1.6177.3281-.4751.0234-1.0098.0742-1.6045.1504-2.123-.0342-4.2988-.1895-6.521-.4648-2.2241-.2764-4.2241-.8037-5.998-1.5781-1.7773-.7734-3.2573-1.9424-4.4443-3.5049-1.1895-1.5605-1.8037-3.6992-1.8452-6.4199-.1445-1.3076-.0161-3.9258.3828-7.8545.396-3.9268.8555-8.707,1.376-14.3379.644-5.7383,1.2959-11.9795,1.9541-18.7236.6577-6.7432,1.2866-13.5166,1.8906-20.3232.752-8.9189,1.5107-17.8984,2.2734-26.9385.7603-9.0371,1.0566-18.1689.8892-27.3916-.1616-1.0742.0239-2.0039.5537-2.7939.2842-.6885.8608-1.3252,1.73-1.9141.8667-.5859,2.1318-.9385,3.7954-1.0576,1.1812-.0322,2.4878-.1162,3.9146-.2529,1.4268-.1338,2.9067-.2051,4.4434-.2139,1.5337-.0078,3.0044.0977,4.4058.3135,1.4014.2188,2.6187.54,3.6509.9688,6.0498-.3936,12.3359.0234,18.8628,1.2549,6.5234,1.2344,12.6113,3.2324,18.2598,5.9951,5.6475,2.7656,10.4736,6.2676,14.4834,10.5088,4.0073,4.2422,6.5161,9.2314,7.5239,14.9707.4106,2.5098.5791,5.1201.5049,7.8301-.0771,2.7119-.5679,5.4805-1.4775,8.3076-.9102,2.8301-2.269,5.7451-4.0771,8.7432-1.8076,3.001-4.1807,6.0508-7.1167,9.1465ZM133.5371,136.6338c6.2944,1.1572,11.6602,1.2461,16.1001.2617,4.437-.9814,7.8232-2.5117,10.1572-4.5898,2.3315-2.0752,3.6187-4.4053,3.8638-6.9863.2417-2.5791-.6265-4.8857-2.6074-6.917-1.981-2.0283-5.1235-3.5225-9.4224-4.4795-4.3022-.9541-9.7964-.9023-16.4839.1543l-1.6074,22.5566ZM136.6499,85.4902c5.6226.6377,10.4229.3887,14.4009-.7461,3.9771-1.1338,7.0166-2.7764,9.1187-4.9297,2.1021-2.1523,3.2183-4.5801,3.3535-7.2881.1313-2.7061-.7236-5.1885-2.5693-7.4453-1.8481-2.2578-4.7295-4.085-8.6426-5.4873-3.9155-1.3994-8.9585-1.9053-15.124-1.5195.0254,4.6064-.0322,9.1494-.1743,13.625-.1416,4.4795-.2646,9.0762-.3628,13.791Z" fill="url(#uuid-70b02a7c-942b-42e6-8f05-62295e010aa3)" stroke-width="0"/><path d="M87.627,121.5986c4.2263,1.9351,7.9253,4.4521,11.094,7.5498,3.1687,3.1001,5.9182,6.5576,8.2539,10.3745,2.333,3.8188,4.2937,7.9097,5.884,12.2769,1.5884,4.3691,2.9172,8.7881,3.9844,13.2568,2.3342,8.8174,4.0459,17.7969,5.1382,26.9463,1.0898,9.1475,1.8169,18.3838,2.1807,27.707.0403,2.6543.0378,4.8369-.0105,6.54-.0505,1.708-.3142,3.1172-.7913,4.2246-.479,1.1104-1.2158,2.0303-2.207,2.7637-.9941.7334-2.4131,1.4531-4.2593,2.1631-1.7729.3828-3.6274.7197-5.5659,1.0137-1.9412.291-3.8096-.0605-5.6052-1.0576-1.6814-.9004-3.1724-2.5674-4.467-4.9951-1.2974-2.4277-2.2268-6.0078-2.7856-10.7393l-.1516-1.5811c-2.6658-.0635-5.825-.0244-9.481.1123-3.6558.1396-7.3831.3643-11.1819.6738-3.7983.3125-7.4636.6367-10.9932.9756-3.532.3389-6.5081.625-8.9309.8574-.0151.958.0059,2.5518.0601,4.7793.0542,2.2285-.0767,4.4746-.3904,6.7373-.3159,2.2637-.8352,4.3359-1.5574,6.2119-.7244,1.8789-1.8713,2.9434-3.4417,3.2012-1.467.2451-3.1416.5137-5.0278.8018-1.887.2861-3.752.2529-5.593-.1016-1.8335-.248-3.4163-.9482-4.7476-2.0957-1.334-1.1484-2.1858-3.085-2.5525-5.8174-.3135-3.2646-.6206-7.0117-.9189-11.2383-.3005-4.2236-.5281-8.8271-.6877-13.8125-.1843-4.1299-.2732-8.668-.2693-13.6143.0039-4.9443.2053-10.042.6062-15.292.3987-5.248,1.064-10.5234,1.991-15.8252.9272-5.2979,2.2473-10.3691,3.9634-15.2148,1.7139-4.8438,3.8604-9.3574,6.4375-13.5391,2.575-4.1816,5.793-7.7871,9.6501-10.8174,4.5525-3.5205,9.7283-5.5596,15.5249-6.1157,5.7944-.5562,11.4114.3408,16.8484,2.6899ZM56.1189,197.2061c6.5884-1.1641,13.1624-2.1934,19.7239-3.0889,6.5593-.8945,13.1709-1.5557,19.8301-1.9834-.4019-7.5117-1.3601-14.1709-2.8752-19.9834-1.5146-5.8096-3.3113-10.6621-5.385-14.5586-2.0762-3.8926-4.3779-6.8115-6.9016-8.7485-2.5266-1.9365-5.0015-2.791-7.4241-2.5586-2.1094.2021-4.1917,1.4941-6.249,3.8706-2.0596,2.3779-3.8633,5.7422-5.4126,10.0898-1.5513,4.3516-2.822,9.6572-3.8162,15.9199-.9941,6.2646-1.4924,13.2793-1.4902,21.041Z" fill="none" stroke="#000" stroke-miterlimit="10" stroke-width="41"/><path d="M87.627,121.5986c4.2263,1.9351,7.9253,4.4521,11.094,7.5498,3.1687,3.1001,5.9182,6.5576,8.2539,10.3745,2.333,3.8188,4.2937,7.9097,5.884,12.2769,1.5884,4.3691,2.9172,8.7881,3.9844,13.2568,2.3342,8.8174,4.0459,17.7969,5.1382,26.9463,1.0898,9.1475,1.8169,18.3838,2.1807,27.707.0403,2.6543.0378,4.8369-.0105,6.54-.0505,1.708-.3142,3.1172-.7913,4.2246-.479,1.1104-1.2158,2.0303-2.207,2.7637-.9941.7334-2.4131,1.4531-4.2593,2.1631-1.7729.3828-3.6274.7197-5.5659,1.0137-1.9412.291-3.8096-.0605-5.6052-1.0576-1.6814-.9004-3.1724-2.5674-4.467-4.9951-1.2974-2.4277-2.2268-6.0078-2.7856-10.7393l-.1516-1.5811c-2.6658-.0635-5.825-.0244-9.481.1123-3.6558.1396-7.3831.3643-11.1819.6738-3.7983.3125-7.4636.6367-10.9932.9756-3.532.3389-6.5081.625-8.9309.8574-.0151.958.0059,2.5518.0601,4.7793.0542,2.2285-.0767,4.4746-.3904,6.7373-.3159,2.2637-.8352,4.3359-1.5574,6.2119-.7244,1.8789-1.8713,2.9434-3.4417,3.2012-1.467.2451-3.1416.5137-5.0278.8018-1.887.2861-3.752.2529-5.593-.1016-1.8335-.248-3.4163-.9482-4.7476-2.0957-1.334-1.1484-2.1858-3.085-2.5525-5.8174-.3135-3.2646-.6206-7.0117-.9189-11.2383-.3005-4.2236-.5281-8.8271-.6877-13.8125-.1843-4.1299-.2732-8.668-.2693-13.6143.0039-4.9443.2053-10.042.6062-15.292.3987-5.248,1.064-10.5234,1.991-15.8252.9272-5.2979,2.2473-10.3691,3.9634-15.2148,1.7139-4.8438,3.8604-9.3574,6.4375-13.5391,2.575-4.1816,5.793-7.7871,9.6501-10.8174,4.5525-3.5205,9.7283-5.5596,15.5249-6.1157,5.7944-.5562,11.4114.3408,16.8484,2.6899ZM56.1189,197.2061c6.5884-1.1641,13.1624-2.1934,19.7239-3.0889,6.5593-.8945,13.1709-1.5557,19.8301-1.9834-.4019-7.5117-1.3601-14.1709-2.8752-19.9834-1.5146-5.8096-3.3113-10.6621-5.385-14.5586-2.0762-3.8926-4.3779-6.8115-6.9016-8.7485-2.5266-1.9365-5.0015-2.791-7.4241-2.5586-2.1094.2021-4.1917,1.4941-6.249,3.8706-2.0596,2.3779-3.8633,5.7422-5.4126,10.0898-1.5513,4.3516-2.822,9.6572-3.8162,15.9199-.9941,6.2646-1.4924,13.2793-1.4902,21.041Z" fill="url(#uuid-ab1ae8cf-60a4-4cc1-84ba-2a3d593b7f92)" stroke-width="0"/><path d="M226.7371,149.4287c.6455-2.6543.6248-4.7588-.0664-6.3154-.6917-1.5547-1.7434-2.6611-3.1514-3.3174-1.4102-.6548-3.0352-.8511-4.8755-.5913-1.8423.2612-3.5779.8369-5.2104,1.7231-3.8052,2.0396-7.1426,4.9814-10.0166,8.8252-2.8745,3.8428-5.144,8.0391-6.8125,12.5879-1.6677,4.5498-2.6865,9.2227-3.0515,14.0146-.3674,4.7949.1101,9.1279,1.4329,12.998.8318,2.5039,2.0376,4.4922,3.6172,5.957,1.5796,1.4668,3.3696,2.4961,5.3711,3.0928,1.9995.5947,4.0732.7246,6.2214.3867,2.1458-.3359,4.1653-1.1123,6.0605-2.3281,2.896-1.8574,5.1877-3.127,6.8757-3.8115,1.6851-.6816,3.4609-.8604,5.3267-.5371,5.2593,1.1846,8.4351,3.4453,9.5312,6.7812,1.0933,3.3379.4619,6.9619-1.8928,10.8721-1.8892,3.0508-4.3152,5.5469-7.2751,7.4873-2.9631,1.9395-6.2168,3.3066-9.7615,4.1025-3.5461.7939-7.2263,1.0762-11.0408.8438-3.8154-.2314-7.4932-.8906-11.0344-1.9785-3.5408-1.0869-6.7979-2.6172-9.7678-4.5908-2.9731-1.9727-5.3921-4.2783-7.2571-6.9209-2.0872-2.9805-3.7781-6.2334-5.074-9.7607-1.2969-3.5273-2.2329-7.167-2.8066-10.917-.5752-3.751-.7974-7.5674-.667-11.4492.1284-3.8818.5854-7.7129,1.3701-11.4961,1.9446-8.4453,5.447-16.251,10.5076-23.4165,5.0583-7.165,11.0154-13.0654,17.8699-17.7026,3.1372-2.0928,6.6792-3.6851,10.625-4.7769,3.9434-1.0898,7.8433-1.4927,11.6948-1.2041,3.8521.2881,7.481,1.3003,10.8887,3.0317,3.4075,1.7344,6.1882,4.3887,8.3445,7.9639,1.6619,2.6924,2.842,5.6147,3.5417,8.7642.6982,3.1519,1.0737,6.231,1.127,9.2349-.0151,1.9297-.2163,3.7168-.6062,5.3672-.3918,1.6504-1.1091,3.1318-2.1523,4.4404-1.3992,1.6182-3.2402,2.5791-5.5242,2.8848-2.2861.3057-4.4365.0869-6.4551-.6582-2.019-.7441-3.6509-1.9561-4.8958-3.6377-1.2449-1.6797-1.583-3.6631-1.011-5.9492Z" fill="none" stroke="#000" stroke-miterlimit="10" stroke-width="42"/><path d="M226.7371,149.4287c.6455-2.6543.6248-4.7588-.0664-6.3154-.6917-1.5547-1.7434-2.6611-3.1514-3.3174-1.4102-.6548-3.0352-.8511-4.8755-.5913-1.8423.2612-3.5779.8369-5.2104,1.7231-3.8052,2.0396-7.1426,4.9814-10.0166,8.8252-2.8745,3.8428-5.144,8.0391-6.8125,12.5879-1.6677,4.5498-2.6865,9.2227-3.0515,14.0146-.3674,4.7949.1101,9.1279,1.4329,12.998.8318,2.5039,2.0376,4.4922,3.6172,5.957,1.5796,1.4668,3.3696,2.4961,5.3711,3.0928,1.9995.5947,4.0732.7246,6.2214.3867,2.1458-.3359,4.1653-1.1123,6.0605-2.3281,2.896-1.8574,5.1877-3.127,6.8757-3.8115,1.6851-.6816,3.4609-.8604,5.3267-.5371,5.2593,1.1846,8.4351,3.4453,9.5312,6.7812,1.0933,3.3379.4619,6.9619-1.8928,10.8721-1.8892,3.0508-4.3152,5.5469-7.2751,7.4873-2.9631,1.9395-6.2168,3.3066-9.7615,4.1025-3.5461.7939-7.2263,1.0762-11.0408.8438-3.8154-.2314-7.4932-.8906-11.0344-1.9785-3.5408-1.0869-6.7979-2.6172-9.7678-4.5908-2.9731-1.9727-5.3921-4.2783-7.2571-6.9209-2.0872-2.9805-3.7781-6.2334-5.074-9.7607-1.2969-3.5273-2.2329-7.167-2.8066-10.917-.5752-3.751-.7974-7.5674-.667-11.4492.1284-3.8818.5854-7.7129,1.3701-11.4961,1.9446-8.4453,5.447-16.251,10.5076-23.4165,5.0583-7.165,11.0154-13.0654,17.8699-17.7026,3.1372-2.0928,6.6792-3.6851,10.625-4.7769,3.9434-1.0898,7.8433-1.4927,11.6948-1.2041,3.8521.2881,7.481,1.3003,10.8887,3.0317,3.4075,1.7344,6.1882,4.3887,8.3445,7.9639,1.6619,2.6924,2.842,5.6147,3.5417,8.7642.6982,3.1519,1.0737,6.231,1.127,9.2349-.0151,1.9297-.2163,3.7168-.6062,5.3672-.3918,1.6504-1.1091,3.1318-2.1523,4.4404-1.3992,1.6182-3.2402,2.5791-5.5242,2.8848-2.2861.3057-4.4365.0869-6.4551-.6582-2.019-.7441-3.6509-1.9561-4.8958-3.6377-1.2449-1.6797-1.583-3.6631-1.011-5.9492Z" fill="url(#uuid-4515e3f6-138f-4756-b101-8d51d68a12ba)" stroke-width="0"/></svg>