<?xml version="1.0" encoding="UTF-8"?><svg id="uuid-faf1fda1-7ae4-4ff8-b925-619231bb5593" xmlns="http://www.w3.org/2000/svg" width="280" height="280" xmlns:xlink="http://www.w3.org/1999/xlink" viewBox="0 0 280 280"><defs><linearGradient id="uuid-165d7e02-c57d-4177-9b22-ae7896afcd72" x1="151.191057" y1="167.062279" x2="151.191057" y2="33.14382" gradientTransform="translate(7.853683 -10.670882) rotate(4.07556)" gradientUnits="userSpaceOnUse"><stop offset="0" stop-color="#2d7f98"/><stop offset=".5" stop-color="#008c8d"/><stop offset="1" stop-color="#1f9276"/></linearGradient><linearGradient id="uuid-ef941fe0-874b-4018-bee6-c29d583227ef" x1="381.802894" y1="51.836003" x2="381.802894" y2="-69.019443" gradientTransform="translate(-304.220481 224.232515) rotate(-5.48168)" gradientUnits="userSpaceOnUse"><stop offset="0" stop-color="#7d67a2"/><stop offset=".5" stop-color="#8e5ba6"/><stop offset="1" stop-color="#a25d99"/></linearGradient><linearGradient id="uuid-eb21c16b-8b78-4157-8fb6-0182daab0b89" x1="1012.794086" y1="-200.885114" x2="1012.794086" y2="-306.216857" gradientTransform="translate(-820.846406 314.608803) rotate(6.084169) skewX(1)" gradientUnits="userSpaceOnUse"><stop offset="0" stop-color="#7e9e4c"/><stop offset=".5" stop-color="#91a23d"/><stop offset="1" stop-color="#b4924e"/></linearGradient></defs><path d="M181.729004,99.152344c4.883789,4.363281,8.376953,9.602539,10.482422,15.713867,2.102051,6.114258,2.458008,12.307617,1.066895,18.584961-1.568359,7.092773-4.816895,12.913086-9.746094,17.460938-4.929688,4.550781-10.608887,8.011719-17.035645,10.388672-6.429688,2.375-13.288086,3.777344-20.580566,4.201172-7.291992.424805-14.085449.058594-20.379395-1.097656-.605957.192383-1.14502.300781-1.617676.328125-.475098.023438-1.009766.074219-1.604492.150391-2.123047-.03418-4.298828-.189453-6.520996-.464844-2.224121-.276367-4.224121-.803711-5.998047-1.578125-1.777344-.773438-3.257324-1.942383-4.444336-3.504883-1.189453-1.560547-1.803711-3.699219-1.845215-6.419922-.144531-1.307617-.016113-3.925781.382812-7.854492.395996-3.926758.855469-8.707031,1.375977-14.337891.644043-5.738281,1.295898-11.979492,1.954102-18.723633.657715-6.743164,1.286621-13.516602,1.890625-20.323242.751953-8.918945,1.510742-17.898438,2.273438-26.938477.760254-9.037109,1.056641-18.168945.88916-27.391602-.161621-1.074219.023926-2.003906.553711-2.793945.28418-.688477.86084-1.325195,1.72998-1.914062.866699-.585938,2.131836-.938477,3.79541-1.057617,1.181152-.032227,2.487793-.116211,3.914551-.25293,1.426758-.133789,2.906738-.205078,4.443359-.213867,1.533691-.007812,3.004395.097656,4.405762.313477,1.401367.21875,2.618652.540039,3.650879.96875,6.049805-.393555,12.335938.023438,18.862793,1.254883,6.523438,1.234375,12.611328,3.232422,18.259766,5.995117,5.647461,2.765625,10.473633,6.267578,14.483398,10.508789,4.007324,4.242188,6.516113,9.231445,7.523926,14.970703.410645,2.509766.579102,5.120117.504883,7.830078-.077148,2.711914-.567871,5.480469-1.477539,8.307617-.910156,2.830078-2.269043,5.745117-4.077148,8.743164-1.807617,3.000977-4.180664,6.050781-7.116699,9.146484ZM133.537109,136.633789c6.294434,1.157227,11.660156,1.246094,16.100098.261719,4.437012-.981445,7.823242-2.511719,10.157227-4.589844,2.331543-2.075195,3.618652-4.405273,3.86377-6.986328.241699-2.579102-.626465-4.885742-2.607422-6.916992-1.980957-2.02832-5.123535-3.522461-9.422363-4.479492-4.302246-.954102-9.796387-.902344-16.483887.154297l-1.607422,22.556641ZM136.649902,85.490234c5.622559.637695,10.422852.388672,14.400879-.746094,3.977051-1.133789,7.016602-2.776367,9.118652-4.929688,2.102051-2.152344,3.218262-4.580078,3.353516-7.288086.131348-2.706055-.723633-5.188477-2.569336-7.445312-1.848145-2.257812-4.729492-4.084961-8.642578-5.487305-3.915527-1.399414-8.958496-1.905273-15.124023-1.519531.025391,4.606445-.032227,9.149414-.174316,13.625-.141602,4.479492-.264648,9.076172-.362793,13.791016Z" fill="none" stroke="#000" stroke-miterlimit="10" stroke-width="41"/><path d="M181.729004,99.152344c4.883789,4.363281,8.376953,9.602539,10.482422,15.713867,2.102051,6.114258,2.458008,12.307617,1.066895,18.584961-1.568359,7.092773-4.816895,12.913086-9.746094,17.460938-4.929688,4.550781-10.608887,8.011719-17.035645,10.388672-6.429688,2.375-13.288086,3.777344-20.580566,4.201172-7.291992.424805-14.085449.058594-20.379395-1.097656-.605957.192383-1.14502.300781-1.617676.328125-.475098.023438-1.009766.074219-1.604492.150391-2.123047-.03418-4.298828-.189453-6.520996-.464844-2.224121-.276367-4.224121-.803711-5.998047-1.578125-1.777344-.773438-3.257324-1.942383-4.444336-3.504883-1.189453-1.560547-1.803711-3.699219-1.845215-6.419922-.144531-1.307617-.016113-3.925781.382812-7.854492.395996-3.926758.855469-8.707031,1.375977-14.337891.644043-5.738281,1.295898-11.979492,1.954102-18.723633.657715-6.743164,1.286621-13.516602,1.890625-20.323242.751953-8.918945,1.510742-17.898438,2.273438-26.938477.760254-9.037109,1.056641-18.168945.88916-27.391602-.161621-1.074219.023926-2.003906.553711-2.793945.28418-.688477.86084-1.325195,1.72998-1.914062.866699-.585938,2.131836-.938477,3.79541-1.057617,1.181152-.032227,2.487793-.116211,3.914551-.25293,1.426758-.133789,2.906738-.205078,4.443359-.213867,1.533691-.007812,3.004395.097656,4.405762.313477,1.401367.21875,2.618652.540039,3.650879.96875,6.049805-.393555,12.335938.023438,18.862793,1.254883,6.523438,1.234375,12.611328,3.232422,18.259766,5.995117,5.647461,2.765625,10.473633,6.267578,14.483398,10.508789,4.007324,4.242188,6.516113,9.231445,7.523926,14.970703.410645,2.509766.579102,5.120117.504883,7.830078-.077148,2.711914-.567871,5.480469-1.477539,8.307617-.910156,2.830078-2.269043,5.745117-4.077148,8.743164-1.807617,3.000977-4.180664,6.050781-7.116699,9.146484ZM133.537109,136.633789c6.294434,1.157227,11.660156,1.246094,16.100098.261719,4.437012-.981445,7.823242-2.511719,10.157227-4.589844,2.331543-2.075195,3.618652-4.405273,3.86377-6.986328.241699-2.579102-.626465-4.885742-2.607422-6.916992-1.980957-2.02832-5.123535-3.522461-9.422363-4.479492-4.302246-.954102-9.796387-.902344-16.483887.154297l-1.607422,22.556641ZM136.649902,85.490234c5.622559.637695,10.422852.388672,14.400879-.746094,3.977051-1.133789,7.016602-2.776367,9.118652-4.929688,2.102051-2.152344,3.218262-4.580078,3.353516-7.288086.131348-2.706055-.723633-5.188477-2.569336-7.445312-1.848145-2.257812-4.729492-4.084961-8.642578-5.487305-3.915527-1.399414-8.958496-1.905273-15.124023-1.519531.025391,4.606445-.032227,9.149414-.174316,13.625-.141602,4.479492-.264648,9.076172-.362793,13.791016Z" fill="url(#uuid-165d7e02-c57d-4177-9b22-ae7896afcd72)" stroke-width="0"/><path d="M87.626953,121.598633c4.226318,1.935059,7.925293,4.452148,11.093994,7.549805,3.168701,3.100098,5.918213,6.557617,8.253906,10.374512,2.333008,3.818848,4.293701,7.909668,5.884033,12.276855,1.588379,4.369141,2.917236,8.788086,3.984375,13.256836,2.334229,8.817383,4.045898,17.796875,5.138184,26.946289,1.089844,9.147461,1.816895,18.383789,2.180664,27.707031.040283,2.654297.037842,4.836914-.010498,6.540039-.050537,1.708008-.314209,3.117188-.79126,4.224609-.479004,1.110352-1.21582,2.030273-2.207031,2.763672-.994141.733398-2.413086,1.453125-4.259277,2.163086-1.772949.382812-3.627441.719727-5.565918,1.013672-1.941162.291016-3.80957-.060547-5.605225-1.057617-1.681396-.900391-3.172363-2.567383-4.467041-4.995117-1.297363-2.427734-2.226807-6.007812-2.785645-10.739258l-.151611-1.581055c-2.665771-.063477-5.824951-.024414-9.480957.112305-3.655762.139648-7.383057.364258-11.181885.673828-3.79834.3125-7.463623.636719-10.993164.975586-3.531982.338867-6.508057.625-8.930908.857422-.015137.958008.005859,2.551758.060059,4.779297.054199,2.228516-.07666,4.474609-.390381,6.737305-.315918,2.263672-.835205,4.335938-1.557373,6.211914-.724365,1.878906-1.871338,2.943359-3.44165,3.201172-1.467041.245117-3.141602.513672-5.027832.801758-1.886963.286133-3.751953.25293-5.593018-.101562-1.833496-.248047-3.41626-.948242-4.747559-2.095703-1.333984-1.148438-2.185791-3.084961-2.55249-5.817383-.313477-3.264648-.620605-7.011719-.918945-11.238281-.300537-4.223633-.528076-8.827148-.687744-13.8125-.184326-4.129883-.273193-8.667969-.269287-13.614258.003906-4.944336.205322-10.041992.606201-15.291992.398682-5.248047,1.063965-10.523438,1.990967-15.825195.927246-5.297852,2.247314-10.369141,3.963379-15.214844,1.713867-4.84375,3.860352-9.357422,6.4375-13.539062,2.574951-4.181641,5.792969-7.787109,9.650146-10.817383,4.55249-3.520508,9.728271-5.55957,15.524902-6.115723,5.794434-.556152,11.411377.34082,16.848389,2.689941ZM56.118896,197.206055c6.588379-1.164062,13.162354-2.193359,19.723877-3.088867,6.559326-.894531,13.170898-1.555664,19.830078-1.983398-.401855-7.511719-1.360107-14.170898-2.875244-19.983398-1.514648-5.80957-3.311279-10.662109-5.38501-14.558594-2.076172-3.892578-4.37793-6.811523-6.901611-8.748535-2.526611-1.936523-5.001465-2.791016-7.424072-2.558594-2.109375.202148-4.19165,1.494141-6.249023,3.870605-2.05957,2.37793-3.863281,5.742188-5.412598,10.089844-1.55127,4.351562-2.822021,9.657227-3.816162,15.919922-.994141,6.264648-1.492432,13.279297-1.490234,21.041016Z" fill="none" stroke="#000" stroke-miterlimit="10" stroke-width="41"/><path d="M87.626953,121.598633c4.226318,1.935059,7.925293,4.452148,11.093994,7.549805,3.168701,3.100098,5.918213,6.557617,8.253906,10.374512,2.333008,3.818848,4.293701,7.909668,5.884033,12.276855,1.588379,4.369141,2.917236,8.788086,3.984375,13.256836,2.334229,8.817383,4.045898,17.796875,5.138184,26.946289,1.089844,9.147461,1.816895,18.383789,2.180664,27.707031.040283,2.654297.037842,4.836914-.010498,6.540039-.050537,1.708008-.314209,3.117188-.79126,4.224609-.479004,1.110352-1.21582,2.030273-2.207031,2.763672-.994141.733398-2.413086,1.453125-4.259277,2.163086-1.772949.382812-3.627441.719727-5.565918,1.013672-1.941162.291016-3.80957-.060547-5.605225-1.057617-1.681396-.900391-3.172363-2.567383-4.467041-4.995117-1.297363-2.427734-2.226807-6.007812-2.785645-10.739258l-.151611-1.581055c-2.665771-.063477-5.824951-.024414-9.480957.112305-3.655762.139648-7.383057.364258-11.181885.673828-3.79834.3125-7.463623.636719-10.993164.975586-3.531982.338867-6.508057.625-8.930908.857422-.015137.958008.005859,2.551758.060059,4.779297.054199,2.228516-.07666,4.474609-.390381,6.737305-.315918,2.263672-.835205,4.335938-1.557373,6.211914-.724365,1.878906-1.871338,2.943359-3.44165,3.201172-1.467041.245117-3.141602.513672-5.027832.801758-1.886963.286133-3.751953.25293-5.593018-.101562-1.833496-.248047-3.41626-.948242-4.747559-2.095703-1.333984-1.148438-2.185791-3.084961-2.55249-5.817383-.313477-3.264648-.620605-7.011719-.918945-11.238281-.300537-4.223633-.528076-8.827148-.687744-13.8125-.184326-4.129883-.273193-8.667969-.269287-13.614258.003906-4.944336.205322-10.041992.606201-15.291992.398682-5.248047,1.063965-10.523438,1.990967-15.825195.927246-5.297852,2.247314-10.369141,3.963379-15.214844,1.713867-4.84375,3.860352-9.357422,6.4375-13.539062,2.574951-4.181641,5.792969-7.787109,9.650146-10.817383,4.55249-3.520508,9.728271-5.55957,15.524902-6.115723,5.794434-.556152,11.411377.34082,16.848389,2.689941ZM56.118896,197.206055c6.588379-1.164062,13.162354-2.193359,19.723877-3.088867,6.559326-.894531,13.170898-1.555664,19.830078-1.983398-.401855-7.511719-1.360107-14.170898-2.875244-19.983398-1.514648-5.80957-3.311279-10.662109-5.38501-14.558594-2.076172-3.892578-4.37793-6.811523-6.901611-8.748535-2.526611-1.936523-5.001465-2.791016-7.424072-2.558594-2.109375.202148-4.19165,1.494141-6.249023,3.870605-2.05957,2.37793-3.863281,5.742188-5.412598,10.089844-1.55127,4.351562-2.822021,9.657227-3.816162,15.919922-.994141,6.264648-1.492432,13.279297-1.490234,21.041016Z" fill="url(#uuid-ef941fe0-874b-4018-bee6-c29d583227ef)" stroke-width="0"/><path d="M226.737061,149.428711c.645508-2.654297.624756-4.758789-.066406-6.31543-.69165-1.554688-1.743408-2.661133-3.151367-3.317383-1.410156-.654785-3.035156-.851074-4.875488-.591309-1.842285.26123-3.577881.836914-5.210449,1.723145-3.805176,2.039551-7.142578,4.981445-10.016602,8.825195-2.874512,3.842773-5.144043,8.039062-6.8125,12.587891-1.667725,4.549805-2.686523,9.222656-3.051514,14.014648-.367432,4.794922.110107,9.12793,1.432861,12.998047.831787,2.503906,2.037598,4.492188,3.617188,5.957031,1.57959,1.466797,3.369629,2.496094,5.371094,3.092773,1.999512.594727,4.073242.724609,6.221436.386719,2.145752-.335938,4.165283-1.112305,6.060547-2.328125,2.895996-1.857422,5.187744-3.126953,6.875732-3.811523,1.685059-.681641,3.460938-.860352,5.32666-.537109,5.259277,1.18457,8.435059,3.445312,9.53125,6.78125,1.093262,3.337891.461914,6.961914-1.892822,10.87207-1.88916,3.050781-4.315186,5.546875-7.275146,7.487305-2.963135,1.939453-6.216797,3.306641-9.761475,4.102539-3.546143.793945-7.226318,1.076172-11.040771.84375-3.81543-.231445-7.493164-.890625-11.034424-1.978516-3.540771-1.086914-6.797852-2.617188-9.767822-4.59082-2.973145-1.972656-5.39209-4.27832-7.25708-6.920898-2.087158-2.980469-3.778076-6.233398-5.073975-9.760742-1.296875-3.527344-2.23291-7.166992-2.806641-10.916992-.575195-3.750977-.797363-7.567383-.666992-11.449219.128418-3.881836.585449-7.712891,1.370117-11.496094,1.94458-8.445312,5.447021-16.250977,10.507568-23.416504,5.05835-7.165039,11.015381-13.06543,17.869873-17.702637,3.137207-2.092773,6.679199-3.685059,10.625-4.776855,3.943359-1.089844,7.843262-1.492676,11.694824-1.204102,3.852051.288086,7.480957,1.300293,10.888672,3.031738,3.407471,1.734375,6.188232,4.388672,8.344482,7.963867,1.661865,2.692383,2.842041,5.614746,3.541748,8.76416.698242,3.151855,1.07373,6.230957,1.126953,9.234863-.015137,1.929688-.216309,3.716797-.606201,5.367188-.391846,1.650391-1.109131,3.131836-2.152344,4.44043-1.39917,1.618164-3.240234,2.579102-5.52417,2.884766-2.286133.305664-4.436523.086914-6.455078-.658203-2.019043-.744141-3.650879-1.956055-4.895752-3.637695-1.244873-1.679688-1.583008-3.663086-1.010986-5.949219Z" fill="none" stroke="#000" stroke-miterlimit="10" stroke-width="42"/><path d="M226.737061,149.428711c.645508-2.654297.624756-4.758789-.066406-6.31543-.69165-1.554688-1.743408-2.661133-3.151367-3.317383-1.410156-.654785-3.035156-.851074-4.875488-.591309-1.842285.26123-3.577881.836914-5.210449,1.723145-3.805176,2.039551-7.142578,4.981445-10.016602,8.825195-2.874512,3.842773-5.144043,8.039062-6.8125,12.587891-1.667725,4.549805-2.686523,9.222656-3.051514,14.014648-.367432,4.794922.110107,9.12793,1.432861,12.998047.831787,2.503906,2.037598,4.492188,3.617188,5.957031,1.57959,1.466797,3.369629,2.496094,5.371094,3.092773,1.999512.594727,4.073242.724609,6.221436.386719,2.145752-.335938,4.165283-1.112305,6.060547-2.328125,2.895996-1.857422,5.187744-3.126953,6.875732-3.811523,1.685059-.681641,3.460938-.860352,5.32666-.537109,5.259277,1.18457,8.435059,3.445312,9.53125,6.78125,1.093262,3.337891.461914,6.961914-1.892822,10.87207-1.88916,3.050781-4.315186,5.546875-7.275146,7.487305-2.963135,1.939453-6.216797,3.306641-9.761475,4.102539-3.546143.793945-7.226318,1.076172-11.040771.84375-3.81543-.231445-7.493164-.890625-11.034424-1.978516-3.540771-1.086914-6.797852-2.617188-9.767822-4.59082-2.973145-1.972656-5.39209-4.27832-7.25708-6.920898-2.087158-2.980469-3.778076-6.233398-5.073975-9.760742-1.296875-3.527344-2.23291-7.166992-2.806641-10.916992-.575195-3.750977-.797363-7.567383-.666992-11.449219.128418-3.881836.585449-7.712891,1.370117-11.496094,1.94458-8.445312,5.447021-16.250977,10.507568-23.416504,5.05835-7.165039,11.015381-13.06543,17.869873-17.702637,3.137207-2.092773,6.679199-3.685059,10.625-4.776855,3.943359-1.089844,7.843262-1.492676,11.694824-1.204102,3.852051.288086,7.480957,1.300293,10.888672,3.031738,3.407471,1.734375,6.188232,4.388672,8.344482,7.963867,1.661865,2.692383,2.842041,5.614746,3.541748,8.76416.698242,3.151855,1.07373,6.230957,1.126953,9.234863-.015137,1.929688-.216309,3.716797-.606201,5.367188-.391846,1.650391-1.109131,3.131836-2.152344,4.44043-1.39917,1.618164-3.240234,2.579102-5.52417,2.884766-2.286133.305664-4.436523.086914-6.455078-.658203-2.019043-.744141-3.650879-1.956055-4.895752-3.637695-1.244873-1.679688-1.583008-3.663086-1.010986-5.949219Z" fill="url(#uuid-eb21c16b-8b78-4157-8fb6-0182daab0b89)" stroke-width="0"/></svg>