<?xml version="1.0" encoding="UTF-8"?><svg id="uuid-e4f39c7a-18d5-47e5-9963-42961b3a6c99" xmlns="http://www.w3.org/2000/svg" width="280" height="280" xmlns:xlink="http://www.w3.org/1999/xlink" viewBox="0 0 280 280"><defs><linearGradient id="uuid-49e7f4b8-1d91-4a16-8d50-818f24d33924" x1="106.89625" y1="135.395463" x2="150.018606" y2="75.570785" gradientTransform="translate(10.936911 -12.210226) rotate(5.654955)" gradientUnits="userSpaceOnUse"><stop offset="0" stop-color="#008693"/><stop offset=".5" stop-color="#008c8d"/><stop offset="1" stop-color="#008f82"/></linearGradient><linearGradient id="uuid-2bf2dacc-fb64-407d-898d-923e25ee27a7" x1="179.904654" y1="199.981444" x2="247.321095" y2="94.643255" gradientTransform="translate(345.977777 -74.004222) rotate(85.934964)" gradientUnits="userSpaceOnUse"><stop offset="0" stop-color="#679a5a"/><stop offset=".203304" stop-color="#6c9a56"/><stop offset=".454424" stop-color="#7b9d4d"/><stop offset=".487179" stop-color="#7e9e4c"/><stop offset="1" stop-color="#91a23d"/></linearGradient><linearGradient id="uuid-f71abeee-1372-49eb-b939-074126a4d39d" x1="41.995468" y1="238.279121" x2="115.739088" y2="145.913375" gradientUnits="userSpaceOnUse"><stop offset="0" stop-color="#7d67a2"/><stop offset=".385181" stop-color="#895ea4"/><stop offset=".489316" stop-color="#8e5ba6"/><stop offset=".841925" stop-color="#9a5c9d"/><stop offset="1" stop-color="#a25d99"/></linearGradient><linearGradient id="uuid-1ed120f4-050b-4008-9610-cb66688dbdae" x1="110.271577" y1="247.737157" x2="185.160657" y2="190.578" gradientUnits="userSpaceOnUse"><stop offset="0" stop-color="#dc6476"/><stop offset=".5" stop-color="#f1666a"/><stop offset="1" stop-color="#e17465"/></linearGradient></defs><circle cx="129.081536" cy="104.617258" r="66.942691" transform="translate(-9.68052 13.228498) rotate(-5.654955)" fill="url(#uuid-49e7f4b8-1d91-4a16-8d50-818f24d33924)" stroke-width="0"/><path d="M129.081719,45.174387c32.829102,0,59.442627,26.613434,59.442627,59.44281s-26.613525,59.442719-59.442627,59.442719c-32.82959,0-59.442871-26.613403-59.442871-59.442719s26.613281-59.44281,59.442871-59.44281M129.081719,30.174387c-41.047852,0-74.442871,33.394897-74.442871,74.44281s33.39502,74.442719,74.442871,74.442719,74.442627-33.394897,74.442627-74.442719S170.129571,30.174387,129.081719,30.174387h0Z" stroke-width="0"/><circle cx="212.713972" cy="148.71697" r="51.599607" transform="translate(49.292113 350.353443) rotate(-85.934964)" fill="url(#uuid-2bf2dacc-fb64-407d-898d-923e25ee27a7)" stroke-width="0"/><path d="M212.714033,104.617147c24.355713,0,44.099854,19.744232,44.099854,44.099945s-19.744141,44.099915-44.099854,44.099915-44.100098-19.744202-44.100098-44.099976c0-24.355652,19.744385-44.099884,44.100098-44.099884M212.714033,89.617147c-32.587891,0-59.100098,26.512085-59.100098,59.099884s26.512207,59.099976,59.100098,59.099976c32.587646,0,59.099854-26.512115,59.099854-59.099915s-26.512207-59.099945-59.099854-59.099945h0Z" stroke-width="0"/><path d="M81.178955,243.879322c-23.752686,0-44.646484-15.188477-51.991455-37.794922-9.316406-28.672852,6.431641-59.580078,35.10498-68.896484,5.491211-1.78418,11.179199-2.689453,16.905762-2.689453,23.752441,0,44.64624,15.188477,51.991211,37.793945,9.31665,28.672852-6.431396,59.581055-35.104736,68.897461-5.490967,1.78418-11.178955,2.689453-16.905762,2.689453Z" fill="url(#uuid-f71abeee-1372-49eb-b939-074126a4d39d)" stroke-width="0"/><path d="M81.198242,141.998768c19.887207-.000641,38.380859,12.674225,44.858398,32.611328,8.051758,24.780029-5.509277,51.395264-30.289551,59.446777-4.842773,1.573547-9.757324,2.321777-14.587891,2.321777-19.887207,0-38.380859-12.674316-44.858887-32.611389-8.05127-24.78006,5.509766-51.395264,30.289551-59.446747,4.842773-1.573547,9.757324-2.321594,14.588379-2.321747M81.199707,126.998768h-.001953c-6.515625.000183-12.98291,1.028351-19.223145,3.055878-32.606445,10.594513-50.51416,45.74115-39.92041,78.347748,8.352539,25.705505,32.112793,42.976196,59.125,42.976196,6.514648,0,12.982422-1.028137,19.223145-3.055908,15.79541-5.132141,28.646973-16.108154,36.186523-30.906189,7.540039-14.797974,8.865723-31.646423,3.733398-47.441772-8.351562-25.705109-32.111328-42.975952-59.122559-42.975952h0Z" stroke-width="0"/><circle cx="158.134521" cy="211.205722" r="38.889771" fill="url(#uuid-1ed120f4-050b-4008-9610-cb66688dbdae)" stroke-width="0"/><path d="M158.134521,180.816165c16.783936,0,30.389893,13.605927,30.389893,30.38974s-13.605957,30.389771-30.389893,30.389771-30.389893-13.605957-30.389893-30.389771,13.605957-30.38974,30.389893-30.38974M158.134521,163.816165c-26.131104,0-47.389893,21.258942-47.389893,47.38974s21.258789,47.389771,47.389893,47.389771c26.130859,0,47.389893-21.258972,47.389893-47.389771s-21.259033-47.38974-47.389893-47.38974h0Z" stroke-width="0"/></svg>