<?xml version="1.0" encoding="UTF-8"?><svg id="uuid-c5c1977b-5612-49df-bc4c-98f40cbc0377" xmlns="http://www.w3.org/2000/svg" width="280" height="280" xmlns:xlink="http://www.w3.org/1999/xlink" viewBox="0 0 280 280"><defs><linearGradient id="uuid-6aaad44e-83da-4c99-b00b-d35c7ae6e575" x1="106.8963" y1="135.3955" x2="150.0186" y2="75.5708" gradientTransform="translate(10.9369 -12.2102) rotate(5.655)" gradientUnits="userSpaceOnUse"><stop offset="0" stop-color="#008693"/><stop offset=".5" stop-color="#008c8d"/><stop offset="1" stop-color="#008f82"/></linearGradient><linearGradient id="uuid-a3cc8d7a-f94a-48e2-ade0-815bd4f3f2eb" x1="179.9047" y1="199.9814" x2="247.3211" y2="94.6433" gradientTransform="translate(345.9778 -74.0042) rotate(85.935)" gradientUnits="userSpaceOnUse"><stop offset="0" stop-color="#679a5a"/><stop offset=".2033" stop-color="#6c9a56"/><stop offset=".4544" stop-color="#7b9d4d"/><stop offset=".4872" stop-color="#7e9e4c"/><stop offset="1" stop-color="#91a23d"/></linearGradient><linearGradient id="uuid-92d9e7ee-a6c2-46cf-85a9-f4580e3379b5" x1="41.9955" y1="238.2791" x2="115.7391" y2="145.9134" gradientUnits="userSpaceOnUse"><stop offset="0" stop-color="#7d67a2"/><stop offset=".3852" stop-color="#895ea4"/><stop offset=".4893" stop-color="#8e5ba6"/><stop offset=".8419" stop-color="#9a5c9d"/><stop offset="1" stop-color="#a25d99"/></linearGradient><linearGradient id="uuid-9e5c755d-5bdb-4924-82fc-976c1ff121a5" x1="110.2716" y1="247.7372" x2="185.1607" y2="190.578" gradientUnits="userSpaceOnUse"><stop offset="0" stop-color="#dc6476"/><stop offset=".5" stop-color="#f1666a"/><stop offset="1" stop-color="#e17465"/></linearGradient></defs><circle cx="129.0815" cy="104.6173" r="66.9427" transform="translate(-9.6805 13.2285) rotate(-5.655)" fill="url(#uuid-6aaad44e-83da-4c99-b00b-d35c7ae6e575)" stroke-width="0"/><path d="M129.0817,45.1744c32.8291,0,59.4426,26.6134,59.4426,59.4428s-26.6135,59.4427-59.4426,59.4427-59.4429-26.6134-59.4429-59.4427,26.6133-59.4428,59.4429-59.4428M129.0817,30.1744c-41.0479,0-74.4429,33.3949-74.4429,74.4428s33.395,74.4427,74.4429,74.4427,74.4426-33.3949,74.4426-74.4427S170.1296,30.1744,129.0817,30.1744h0Z" stroke-width="0"/><circle cx="212.714" cy="148.717" r="51.5996" transform="translate(49.2921 350.3534) rotate(-85.935)" fill="url(#uuid-a3cc8d7a-f94a-48e2-ade0-815bd4f3f2eb)" stroke-width="0"/><path d="M212.714,104.6171c24.3557,0,44.0999,19.7442,44.0999,44.0999s-19.7441,44.0999-44.0999,44.0999-44.1001-19.7442-44.1001-44.1,19.7444-44.0999,44.1001-44.0999M212.714,89.6171c-32.5879,0-59.1001,26.5121-59.1001,59.0999s26.5122,59.1,59.1001,59.1,59.0999-26.5121,59.0999-59.0999-26.5122-59.0999-59.0999-59.0999h0Z" stroke-width="0"/><path d="M81.179,243.8793c-23.7527,0-44.6465-15.1885-51.9915-37.7949-9.3164-28.6729,6.4316-59.5801,35.105-68.8965,5.4912-1.7842,11.1792-2.6895,16.9058-2.6895,23.7524,0,44.6462,15.1885,51.9912,37.7939,9.3167,28.6729-6.4314,59.5811-35.1047,68.8975-5.491,1.7842-11.179,2.6895-16.9058,2.6895Z" fill="url(#uuid-92d9e7ee-a6c2-46cf-85a9-f4580e3379b5)" stroke-width="0"/><path d="M81.1982,141.9988c19.8872-.0006,38.3809,12.6742,44.8584,32.6113,8.0518,24.78-5.5093,51.3953-30.2896,59.4468-4.8428,1.5735-9.7573,2.3218-14.5879,2.3218-19.8872,0-38.3809-12.6743-44.8589-32.6114-8.0513-24.7801,5.5098-51.3953,30.2896-59.4467,4.8428-1.5735,9.7573-2.3216,14.5884-2.3217M81.1997,126.9988h-.002c-6.5156.0002-12.9829,1.0284-19.2231,3.0559-32.6064,10.5945-50.5142,45.7411-39.9204,78.3477,8.3525,25.7055,32.1128,42.9762,59.125,42.9762,6.5146,0,12.9824-1.0281,19.2231-3.0559,15.7954-5.1321,28.647-16.1082,36.1865-30.9062,7.54-14.798,8.8657-31.6464,3.7334-47.4418-8.3516-25.7051-32.1113-42.976-59.1226-42.976h0Z" stroke-width="0"/><circle cx="158.1345" cy="211.2057" r="38.8898" fill="url(#uuid-9e5c755d-5bdb-4924-82fc-976c1ff121a5)" stroke-width="0"/><path d="M158.1345,180.8162c16.7839,0,30.3899,13.6059,30.3899,30.3897s-13.606,30.3898-30.3899,30.3898-30.3899-13.606-30.3899-30.3898,13.606-30.3897,30.3899-30.3897M158.1345,163.8162c-26.1311,0-47.3899,21.2589-47.3899,47.3897s21.2588,47.3898,47.3899,47.3898,47.3899-21.259,47.3899-47.3898-21.259-47.3897-47.3899-47.3897h0Z" stroke-width="0"/></svg>