<?xml version="1.0" encoding="UTF-8"?><svg id="uuid-068a005e-d1df-43be-a1ea-790a1434a644" xmlns="http://www.w3.org/2000/svg" width="280" height="280" xmlns:xlink="http://www.w3.org/1999/xlink" viewBox="0 0 280 280"><defs><linearGradient id="uuid-eaf54687-1f4f-44e5-9b09-53884e7ab4b9" x1="829.379927" y1="-203.444582" x2="829.379927" y2="-404.928724" gradientTransform="translate(-608.065513 541.975779) rotate(-6.623066) skewX(1)" gradientUnits="userSpaceOnUse"><stop offset="0" stop-color="#7e9e4c"/><stop offset=".5" stop-color="#91a23d"/><stop offset="1" stop-color="#b4924e"/></linearGradient></defs><path d="M200.661133,99.994141c.087891-5.224609-.835938-9.143555-2.780762-11.756836-1.944824-2.611328-4.373047-4.232422-7.275879-4.864258-2.907227-.629883-6.022461-.311523-9.34668.948242-3.328125,1.263672-6.324707,3.067383-8.998047,5.407227-6.242188,5.408203-11.23291,12.301758-14.976562,20.682617-3.748535,8.380859-6.217773,17.165039-7.416016,26.355469-1.198242,9.192383-1.133789,18.339844.202148,27.4375,1.331543,9.099609,4.04541,16.985352,8.142578,23.649414,2.606445,4.324219,5.693359,7.524414,9.256836,9.59375,3.563965,2.072266,7.337402,3.242188,11.323242,3.510742,3.982422.269531,7.906738-.360352,11.772949-1.893555,3.862305-1.530273,7.303711-3.829102,10.32959-6.895508,4.621582-4.685547,8.36377-8.018555,11.225586-10.004883,2.85791-1.981445,6.096191-3.0625,9.714355-3.245117,10.312988-.00293,17.189941,2.880859,20.638672,8.644531,3.445312,5.768555,3.791992,12.795898,1.04248,21.083984-2.241211,6.487305-5.718262,12.165039-10.425781,17.03125-4.711914,4.867188-10.208008,8.788086-16.487793,11.762695-6.283691,2.974609-13.032715,5.049805-20.24707,6.22168-7.217773,1.170898-14.357422,1.489258-21.422852.951172-7.065918-.539062-13.787109-2.024414-20.160156-4.456055-6.376953-2.430664-11.861816-5.71582-16.453613-9.861328-5.147949-4.683594-9.671387-10.041992-13.575684-16.081055-3.90332-6.03418-7.181152-12.432617-9.82959-19.189453-2.652344-6.756836-4.67334-13.785156-6.062988-21.083008-1.393555-7.297852-2.151855-14.636719-2.279297-22.02832.074219-16.578125,3.325195-32.615234,9.753906-48.117188,6.423828-15.49707,15.057617-29.013672,25.896484-40.552734,4.972656-5.224609,10.913086-9.686523,17.816406-13.383789,6.899414-3.692383,14.007324-6.085938,21.316406-7.166992,7.308594-1.083008,14.506836-.72168,21.59375,1.075195,7.087402,1.801758,13.394531,5.584961,18.921875,11.348633,4.234375,4.324219,7.666016,9.28125,10.297852,14.864258,2.62793,5.586914,4.624512,11.175781,5.988281,16.757812.783203,3.606445,1.160156,7.02832,1.127441,10.271484-.037598,3.244141-.751953,6.30957-2.148438,9.191406-1.930664,3.606445-4.960938,6.175781-9.094238,7.706055-4.137695,1.533203-8.242676,2.02832-12.322754,1.488281-4.080078-.539062-7.635254-2.113281-10.666016-4.727539-3.029785-2.609375-4.495117-6.169922-4.390625-10.675781Z" fill="none" stroke="#000" stroke-miterlimit="10" stroke-width="41"/><path d="M200.661133,99.994141c.087891-5.224609-.835938-9.143555-2.780762-11.756836-1.944824-2.611328-4.373047-4.232422-7.275879-4.864258-2.907227-.629883-6.022461-.311523-9.34668.948242-3.328125,1.263672-6.324707,3.067383-8.998047,5.407227-6.242188,5.408203-11.23291,12.301758-14.976562,20.682617-3.748535,8.380859-6.217773,17.165039-7.416016,26.355469-1.198242,9.192383-1.133789,18.339844.202148,27.4375,1.331543,9.099609,4.04541,16.985352,8.142578,23.649414,2.606445,4.324219,5.693359,7.524414,9.256836,9.59375,3.563965,2.072266,7.337402,3.242188,11.323242,3.510742,3.982422.269531,7.906738-.360352,11.772949-1.893555,3.862305-1.530273,7.303711-3.829102,10.32959-6.895508,4.621582-4.685547,8.36377-8.018555,11.225586-10.004883,2.85791-1.981445,6.096191-3.0625,9.714355-3.245117,10.312988-.00293,17.189941,2.880859,20.638672,8.644531,3.445312,5.768555,3.791992,12.795898,1.04248,21.083984-2.241211,6.487305-5.718262,12.165039-10.425781,17.03125-4.711914,4.867188-10.208008,8.788086-16.487793,11.762695-6.283691,2.974609-13.032715,5.049805-20.24707,6.22168-7.217773,1.170898-14.357422,1.489258-21.422852.951172-7.065918-.539062-13.787109-2.024414-20.160156-4.456055-6.376953-2.430664-11.861816-5.71582-16.453613-9.861328-5.147949-4.683594-9.671387-10.041992-13.575684-16.081055-3.90332-6.03418-7.181152-12.432617-9.82959-19.189453-2.652344-6.756836-4.67334-13.785156-6.062988-21.083008-1.393555-7.297852-2.151855-14.636719-2.279297-22.02832.074219-16.578125,3.325195-32.615234,9.753906-48.117188,6.423828-15.49707,15.057617-29.013672,25.896484-40.552734,4.972656-5.224609,10.913086-9.686523,17.816406-13.383789,6.899414-3.692383,14.007324-6.085938,21.316406-7.166992,7.308594-1.083008,14.506836-.72168,21.59375,1.075195,7.087402,1.801758,13.394531,5.584961,18.921875,11.348633,4.234375,4.324219,7.666016,9.28125,10.297852,14.864258,2.62793,5.586914,4.624512,11.175781,5.988281,16.757812.783203,3.606445,1.160156,7.02832,1.127441,10.271484-.037598,3.244141-.751953,6.30957-2.148438,9.191406-1.930664,3.606445-4.960938,6.175781-9.094238,7.706055-4.137695,1.533203-8.242676,2.02832-12.322754,1.488281-4.080078-.539062-7.635254-2.113281-10.666016-4.727539-3.029785-2.609375-4.495117-6.169922-4.390625-10.675781Z" fill="url(#uuid-eaf54687-1f4f-44e5-9b09-53884e7ab4b9)" stroke-width="0"/></svg>