<?xml version="1.0" encoding="UTF-8"?><svg id="uuid-2e4f362e-2cb8-45a3-8e19-2081e0fa864b" xmlns="http://www.w3.org/2000/svg" width="280" height="280" xmlns:xlink="http://www.w3.org/1999/xlink" viewBox="0 0 280 280"><defs><linearGradient id="uuid-0f44fc42-e9b9-47d6-bfbd-55480c9cdba3" x1="98.470426" y1="237.69458" x2="98.470426" y2="51.759766" gradientUnits="userSpaceOnUse"><stop offset="0" stop-color="#7d67a2"/><stop offset=".5" stop-color="#8e5ba6"/><stop offset="1" stop-color="#a25d99"/></linearGradient><linearGradient id="uuid-3be566e3-9ab6-4ded-89cf-a321332fa2c9" x1="839.084284" y1="-138.989322" x2="839.084284" y2="-322.512177" gradientTransform="translate(-612.069665 472.773549) rotate(-6.623066) skewX(1)" gradientUnits="userSpaceOnUse"><stop offset="0" stop-color="#7e9e4c"/><stop offset=".5" stop-color="#91a23d"/><stop offset="1" stop-color="#b4924e"/></linearGradient></defs><path d="M126.251709,58.355957c6.187744,3.584473,11.482422,7.981934,15.879883,13.192383,4.397461,5.214355,8.100098,10.913574,11.115723,17.101562,3.011963,6.191406,5.413086,12.745605,7.207031,19.666504,1.790283,6.924316,3.176025,13.887207,4.15332,20.887695,2.278809,13.845215,3.580566,27.850586,3.908691,42.020508.324463,14.168945.080322,28.422852-.73291,42.75293-.328125,4.073242-.652588,7.413086-.977051,10.016602-.328369,2.607422-.939209,4.725586-1.832275,6.351562-.897217,1.629883-2.160645,2.931641-3.786865,3.90918-1.629883.976562-3.908936,1.870117-6.840576,2.6875-2.77124.324219-5.660889.568359-8.672607.732422-3.015625.160156-5.825195-.652344-8.428711-2.443359-2.442871-1.625977-4.481445-4.397461-6.107422-8.305664-1.630127-3.90918-2.5271-9.52832-2.6875-16.857422v-2.442383c-4.072998-.489258-8.916992-.893555-14.536133-1.22168-5.618896-.325195-11.360107-.527344-17.223389-.611328-5.863281-.080078-11.524414-.12207-16.979248-.12207h-13.803223c-.164062,1.46582-.366455,3.90918-.610596,7.329102-.244385,3.420898-.774902,6.84082-1.588135,10.260742-.816895,3.420898-1.91626,6.516602-3.298096,9.28418-1.385498,2.770508-3.298096,4.233398-5.740967,4.397461-2.282715.160156-4.88623.324219-7.817871.488281-2.931641.160156-5.783203-.164062-8.550537-.977539-2.771484-.648438-5.092285-1.954102-6.962891-3.908203-1.874268-1.955078-2.893311-5.046875-3.053711-9.28418,0-5.045898.080078-10.829102.244385-17.345703.160156-6.511719.488525-13.59668.977051-21.253906.324463-6.352539.855225-13.314453,1.588135-20.888672.73291-7.573242,1.790283-15.348145,3.176025-23.330078,1.381836-7.978027,3.175781-15.959961,5.374512-23.941895,2.19873-7.978027,4.966309-15.551758,8.306396-22.720215,3.336426-7.165039,7.287109-13.76123,11.848877-19.789062,4.557617-6.023438,10.016357-11.07373,16.368408-15.146484,7.489258-4.722168,15.715576-7.084961,24.674561-7.084961,8.955322,0,17.425781,2.19873,25.407715,6.596191ZM66.885742,169.513672c10.260742-.8125,20.479736-1.423828,30.660156-1.832031,10.177002-.404297,20.399414-.446289,30.6604-.12207.488525-11.5625,0-21.902832-1.46582-31.026367-1.46582-9.119141-3.504395-16.814941-6.107666-23.086426-2.607178-6.268066-5.703125-11.074219-9.283691-14.414062-3.584229-3.336426-7.249023-5.008301-10.993652-5.008301-3.26001,0-6.638184,1.671875-10.138672,5.008301-3.50415,3.339844-6.760254,8.226074-9.772217,14.658203-3.015625,6.436035-5.740967,14.375977-8.184082,23.819824-2.443115,9.447754-4.237061,20.116211-5.374756,32.00293Z" fill="none" stroke="#000" stroke-miterlimit="10" stroke-width="41"/><path d="M126.251709,58.355957c6.187744,3.584473,11.482422,7.981934,15.879883,13.192383,4.397461,5.214355,8.100098,10.913574,11.115723,17.101562,3.011963,6.191406,5.413086,12.745605,7.207031,19.666504,1.790283,6.924316,3.176025,13.887207,4.15332,20.887695,2.278809,13.845215,3.580566,27.850586,3.908691,42.020508.324463,14.168945.080322,28.422852-.73291,42.75293-.328125,4.073242-.652588,7.413086-.977051,10.016602-.328369,2.607422-.939209,4.725586-1.832275,6.351562-.897217,1.629883-2.160645,2.931641-3.786865,3.90918-1.629883.976562-3.908936,1.870117-6.840576,2.6875-2.77124.324219-5.660889.568359-8.672607.732422-3.015625.160156-5.825195-.652344-8.428711-2.443359-2.442871-1.625977-4.481445-4.397461-6.107422-8.305664-1.630127-3.90918-2.5271-9.52832-2.6875-16.857422v-2.442383c-4.072998-.489258-8.916992-.893555-14.536133-1.22168-5.618896-.325195-11.360107-.527344-17.223389-.611328-5.863281-.080078-11.524414-.12207-16.979248-.12207h-13.803223c-.164062,1.46582-.366455,3.90918-.610596,7.329102-.244385,3.420898-.774902,6.84082-1.588135,10.260742-.816895,3.420898-1.91626,6.516602-3.298096,9.28418-1.385498,2.770508-3.298096,4.233398-5.740967,4.397461-2.282715.160156-4.88623.324219-7.817871.488281-2.931641.160156-5.783203-.164062-8.550537-.977539-2.771484-.648438-5.092285-1.954102-6.962891-3.908203-1.874268-1.955078-2.893311-5.046875-3.053711-9.28418,0-5.045898.080078-10.829102.244385-17.345703.160156-6.511719.488525-13.59668.977051-21.253906.324463-6.352539.855225-13.314453,1.588135-20.888672.73291-7.573242,1.790283-15.348145,3.176025-23.330078,1.381836-7.978027,3.175781-15.959961,5.374512-23.941895,2.19873-7.978027,4.966309-15.551758,8.306396-22.720215,3.336426-7.165039,7.287109-13.76123,11.848877-19.789062,4.557617-6.023438,10.016357-11.07373,16.368408-15.146484,7.489258-4.722168,15.715576-7.084961,24.674561-7.084961,8.955322,0,17.425781,2.19873,25.407715,6.596191ZM66.885742,169.513672c10.260742-.8125,20.479736-1.423828,30.660156-1.832031,10.177002-.404297,20.399414-.446289,30.6604-.12207.488525-11.5625,0-21.902832-1.46582-31.026367-1.46582-9.119141-3.504395-16.814941-6.107666-23.086426-2.607178-6.268066-5.703125-11.074219-9.283691-14.414062-3.584229-3.336426-7.249023-5.008301-10.993652-5.008301-3.26001,0-6.638184,1.671875-10.138672,5.008301-3.50415,3.339844-6.760254,8.226074-9.772217,14.658203-3.015625,6.436035-5.740967,14.375977-8.184082,23.819824-2.443115,9.447754-4.237061,20.116211-5.374756,32.00293Z" fill="url(#uuid-0f44fc42-e9b9-47d6-bfbd-55480c9cdba3)" stroke-width="0"/><path d="M213.790039,106.462891c.080078-4.758301-.761963-8.328613-2.533203-10.709473-1.771484-2.376953-3.98291-3.853516-6.627197-4.430176-2.647949-.572266-5.485596-.283203-8.513428.86377-3.031494,1.150879-5.760986,2.794434-8.196045,4.925781-5.685547,4.925781-10.231689,11.205078-13.641602,18.838379-3.414062,7.633301-5.662842,15.63623-6.754639,24.006836-1.091553,8.371582-1.032715,16.704102.184082,24.990234,1.212891,8.289062,3.685303,15.47168,7.416748,21.541016,2.373779,3.938477,5.185791,6.854492,8.431885,8.739258,3.246094,1.886719,6.682617,2.953125,10.313721,3.198242,3.627441.245117,7.20166-.329102,10.723389-1.726562,3.517822-1.392578,6.652588-3.486328,9.408691-6.280273,4.209717-4.266602,7.618164-7.302734,10.225098-9.112305,2.603027-1.804688,5.55249-2.790039,8.8479-2.957031,9.393555-.001953,15.657471,2.625,18.799316,7.875,3.138184,5.253906,3.453369,11.655273.949463,19.204102-2.041748,5.90918-5.20874,11.080078-9.496826,15.513672-4.291748,4.432617-9.297607,8.003906-15.017578,10.713867-5.723633,2.709961-11.871094,4.599609-18.442139,5.666016-6.574707,1.068359-13.077881,1.357422-19.513672.867188-6.435303-.491211-12.557617-1.84375-18.362549-4.058594-5.808594-2.214844-10.804199-5.206055-14.986816-8.983398-4.688965-4.264648-8.80957-9.145508-12.365234-14.646484-3.555664-5.49707-6.54126-11.324219-8.953369-17.478516-2.416016-6.154297-4.25708-12.555664-5.522705-19.203125-1.269287-6.647461-1.960449-13.333008-2.076416-20.06543.067627-15.099121,3.029297-29.70752,8.884521-43.827637,5.851318-14.115234,13.715332-26.427734,23.588135-36.936035,4.529541-4.760254,9.940186-8.824219,16.228271-12.191895,6.28418-3.36377,12.758545-5.54248,19.415771-6.528809,6.657471-.98584,13.213867-.657227,19.669189.980469,6.455322,1.641113,12.200439,5.086426,17.235107,10.336914,3.856689,3.938477,6.982178,8.454102,9.379883,13.539062,2.393311,5.088867,4.21167,10.179199,5.454102,15.26416.713623,3.285156,1.056885,6.401367,1.026855,9.355469-.03418,2.95459-.684814,5.747559-1.956787,8.37207-1.758789,3.285156-4.518555,5.625-8.283691,7.019043-3.768555,1.396484-7.507324,1.847656-11.223877,1.356445-3.716553-.491699-6.954834-1.925781-9.715088-4.307129-2.760254-2.376465-4.094727-5.619141-3.999268-9.724121Z" fill="none" stroke="#000" stroke-miterlimit="10" stroke-width="41"/><path d="M213.790039,106.462891c.080078-4.758301-.761963-8.328613-2.533203-10.709473-1.771484-2.376953-3.98291-3.853516-6.627197-4.430176-2.647949-.572266-5.485596-.283203-8.513428.86377-3.031494,1.150879-5.760986,2.794434-8.196045,4.925781-5.685547,4.925781-10.231689,11.205078-13.641602,18.838379-3.414062,7.633301-5.662842,15.63623-6.754639,24.006836-1.091553,8.371582-1.032715,16.704102.184082,24.990234,1.212891,8.289062,3.685303,15.47168,7.416748,21.541016,2.373779,3.938477,5.185791,6.854492,8.431885,8.739258,3.246094,1.886719,6.682617,2.953125,10.313721,3.198242,3.627441.245117,7.20166-.329102,10.723389-1.726562,3.517822-1.392578,6.652588-3.486328,9.408691-6.280273,4.209717-4.266602,7.618164-7.302734,10.225098-9.112305,2.603027-1.804688,5.55249-2.790039,8.8479-2.957031,9.393555-.001953,15.657471,2.625,18.799316,7.875,3.138184,5.253906,3.453369,11.655273.949463,19.204102-2.041748,5.90918-5.20874,11.080078-9.496826,15.513672-4.291748,4.432617-9.297607,8.003906-15.017578,10.713867-5.723633,2.709961-11.871094,4.599609-18.442139,5.666016-6.574707,1.068359-13.077881,1.357422-19.513672.867188-6.435303-.491211-12.557617-1.84375-18.362549-4.058594-5.808594-2.214844-10.804199-5.206055-14.986816-8.983398-4.688965-4.264648-8.80957-9.145508-12.365234-14.646484-3.555664-5.49707-6.54126-11.324219-8.953369-17.478516-2.416016-6.154297-4.25708-12.555664-5.522705-19.203125-1.269287-6.647461-1.960449-13.333008-2.076416-20.06543.067627-15.099121,3.029297-29.70752,8.884521-43.827637,5.851318-14.115234,13.715332-26.427734,23.588135-36.936035,4.529541-4.760254,9.940186-8.824219,16.228271-12.191895,6.28418-3.36377,12.758545-5.54248,19.415771-6.528809,6.657471-.98584,13.213867-.657227,19.669189.980469,6.455322,1.641113,12.200439,5.086426,17.235107,10.336914,3.856689,3.938477,6.982178,8.454102,9.379883,13.539062,2.393311,5.088867,4.21167,10.179199,5.454102,15.26416.713623,3.285156,1.056885,6.401367,1.026855,9.355469-.03418,2.95459-.684814,5.747559-1.956787,8.37207-1.758789,3.285156-4.518555,5.625-8.283691,7.019043-3.768555,1.396484-7.507324,1.847656-11.223877,1.356445-3.716553-.491699-6.954834-1.925781-9.715088-4.307129-2.760254-2.376465-4.094727-5.619141-3.999268-9.724121Z" fill="url(#uuid-3be566e3-9ab6-4ded-89cf-a321332fa2c9)" stroke-width="0"/></svg>