<?xml version="1.0" encoding="UTF-8"?><svg id="uuid-88174bee-e1dd-498a-90a5-59ca1a7e7a7f" xmlns="http://www.w3.org/2000/svg" width="280" height="280" xmlns:xlink="http://www.w3.org/1999/xlink" viewBox="0 0 280 280"><defs><linearGradient id="uuid-d6d7ca3c-80bf-4274-8fe3-0d728d4ef210" x1="833.056733" y1="-159.872411" x2="833.056733" y2="-361.356578" gradientTransform="translate(-610.067589 507.374664) rotate(-6.623066) skewX(1)" gradientUnits="userSpaceOnUse"><stop offset="0" stop-color="#7e9e4c"/><stop offset=".5" stop-color="#91a23d"/><stop offset="1" stop-color="#b4924e"/></linearGradient></defs><path d="M208.092285,108.162598c.087891-5.224609-.835938-9.143555-2.780762-11.756836-1.944824-2.611328-4.373047-4.232422-7.275879-4.864258-2.907227-.629883-6.022461-.311523-9.34668.948242-3.328125,1.263672-6.324707,3.067383-8.998047,5.407227-6.242188,5.408203-11.23291,12.301758-14.976562,20.682617-3.748535,8.380859-6.217773,17.165039-7.416016,26.355469-1.198242,9.191895-1.133789,18.340332.202148,27.437988,1.331543,9.099609,4.04541,16.984375,8.142578,23.648438,2.606445,4.324219,5.693359,7.525391,9.256836,9.59375,3.563965,2.072266,7.337402,3.242188,11.323242,3.511719,3.982422.269531,7.906738-.361328,11.772949-1.894531,3.862305-1.529297,7.303711-3.828125,10.32959-6.894531,4.621582-4.685547,8.36377-8.019531,11.225586-10.005859,2.85791-1.980469,6.096191-3.0625,9.714355-3.244141,10.312988-.003906,17.189941,2.880859,20.638672,8.644531,3.445312,5.767578,3.791992,12.794922,1.04248,21.083984-2.241211,6.486328-5.718262,12.164062-10.425781,17.03125-4.711914,4.867188-10.208008,8.787109-16.487793,11.761719-6.283691,2.974609-13.032715,5.050781-20.24707,6.222656-7.217773,1.169922-14.357422,1.488281-21.422852.951172-7.065918-.539062-13.787109-2.025391-20.160156-4.457031-6.376953-2.429688-11.861816-5.714844-16.453613-9.861328-5.147949-4.683594-9.671387-10.041016-13.575684-16.080078-3.90332-6.035156-7.181152-12.433594-9.82959-19.189453-2.652344-6.757812-4.67334-13.785156-6.062988-21.083984-1.393555-7.296875-2.151855-14.636719-2.279297-22.027344.074219-16.578613,3.325195-32.615723,9.753906-48.117676,6.423828-15.49707,15.057617-29.013672,25.896484-40.552734,4.972656-5.224609,10.913086-9.686523,17.816406-13.383789,6.899414-3.692383,14.007324-6.085938,21.316406-7.166992,7.308594-1.083008,14.506836-.72168,21.59375,1.075195,7.087402,1.801758,13.394531,5.584961,18.921875,11.348633,4.234375,4.324219,7.666016,9.28125,10.297852,14.864258,2.62793,5.586914,4.624512,11.175781,5.988281,16.757812.783203,3.606445,1.160156,7.02832,1.127441,10.271484-.037598,3.244141-.751953,6.30957-2.148438,9.191406-1.930664,3.606445-4.960938,6.175781-9.094238,7.706055-4.137695,1.533203-8.242676,2.02832-12.322754,1.488281-4.080078-.539062-7.635254-2.113281-10.666016-4.727539-3.029785-2.609375-4.495117-6.169922-4.390625-10.675781Z" fill="none" stroke="#000" stroke-miterlimit="10" stroke-width="41"/><path d="M208.092285,108.162598c.087891-5.224609-.835938-9.143555-2.780762-11.756836-1.944824-2.611328-4.373047-4.232422-7.275879-4.864258-2.907227-.629883-6.022461-.311523-9.34668.948242-3.328125,1.263672-6.324707,3.067383-8.998047,5.407227-6.242188,5.408203-11.23291,12.301758-14.976562,20.682617-3.748535,8.380859-6.217773,17.165039-7.416016,26.355469-1.198242,9.191895-1.133789,18.340332.202148,27.437988,1.331543,9.099609,4.04541,16.984375,8.142578,23.648438,2.606445,4.324219,5.693359,7.525391,9.256836,9.59375,3.563965,2.072266,7.337402,3.242188,11.323242,3.511719,3.982422.269531,7.906738-.361328,11.772949-1.894531,3.862305-1.529297,7.303711-3.828125,10.32959-6.894531,4.621582-4.685547,8.36377-8.019531,11.225586-10.005859,2.85791-1.980469,6.096191-3.0625,9.714355-3.244141,10.312988-.003906,17.189941,2.880859,20.638672,8.644531,3.445312,5.767578,3.791992,12.794922,1.04248,21.083984-2.241211,6.486328-5.718262,12.164062-10.425781,17.03125-4.711914,4.867188-10.208008,8.787109-16.487793,11.761719-6.283691,2.974609-13.032715,5.050781-20.24707,6.222656-7.217773,1.169922-14.357422,1.488281-21.422852.951172-7.065918-.539062-13.787109-2.025391-20.160156-4.457031-6.376953-2.429688-11.861816-5.714844-16.453613-9.861328-5.147949-4.683594-9.671387-10.041016-13.575684-16.080078-3.90332-6.035156-7.181152-12.433594-9.82959-19.189453-2.652344-6.757812-4.67334-13.785156-6.062988-21.083984-1.393555-7.296875-2.151855-14.636719-2.279297-22.027344.074219-16.578613,3.325195-32.615723,9.753906-48.117676,6.423828-15.49707,15.057617-29.013672,25.896484-40.552734,4.972656-5.224609,10.913086-9.686523,17.816406-13.383789,6.899414-3.692383,14.007324-6.085938,21.316406-7.166992,7.308594-1.083008,14.506836-.72168,21.59375,1.075195,7.087402,1.801758,13.394531,5.584961,18.921875,11.348633,4.234375,4.324219,7.666016,9.28125,10.297852,14.864258,2.62793,5.586914,4.624512,11.175781,5.988281,16.757812.783203,3.606445,1.160156,7.02832,1.127441,10.271484-.037598,3.244141-.751953,6.30957-2.148438,9.191406-1.930664,3.606445-4.960938,6.175781-9.094238,7.706055-4.137695,1.533203-8.242676,2.02832-12.322754,1.488281-4.080078-.539062-7.635254-2.113281-10.666016-4.727539-3.029785-2.609375-4.495117-6.169922-4.390625-10.675781Z" fill="url(#uuid-d6d7ca3c-80bf-4274-8fe3-0d728d4ef210)" stroke-width="0"/><path d="M140.189453,69.657715c.111328,2.038574.225586,4.135742.339844,6.286133.111328,2.152832.026367,4.135742-.254883,5.946289-.28418,1.812988-.764648,3.371094-1.444336,4.671875-.679688,1.303711-1.757812,2.124023-3.227539,2.463379-.793945.228516-2.692383.339844-5.692383.339844-3.001953,0-6.598633-.111328-10.788086-.339844.111328,2.946777.196289,5.919922.254883,8.919434.055664,3.002441.140625,6.03125.254883,9.089355-.228516.908203-.624023,1.643555-1.189453,2.208984-.567383.567871-1.387695,1.077637-2.462891,1.528809-1.078125.454102-2.633789.793945-4.671875,1.019531-1.927734.228027-3.9375.424805-6.03125.594727-2.097656.169922-4.050781.169922-5.861328,0-1.813477-.169922-3.398438-.594727-4.757812-1.274414-1.358398-.679688-2.208008-1.754883-2.547852-3.228027-.228516-1.019531-.369141-3.397949-.424805-7.135254-.058594-3.737793.026367-8.155273.254883-13.251953-2.71875-.225586-5.266602-.395508-7.645508-.509766-2.37793-.111328-4.416992-.225586-6.116211-.339844-2.038086-.111328-3.907227-.225586-5.606445-.339844-.568359.114258-1.077148-.055664-1.529297-.509277-.338867-.339844-.678711-.875977-1.018555-1.614258-.339844-.735352-.509766-1.895508-.509766-3.48291-.114258-1.584473-.199219-3.424316-.254883-5.521484-.058594-2.094238-.058594-4.077148,0-5.946289.055664-1.868652.254883-3.48291.594727-4.841797.339844-1.359375.905273-2.094727,1.698242-2.208496l21.916992-.339844c.225586-2.604492.451172-4.98291.679688-7.135742.225586-2.150391.451172-4.019043.678711-5.606445.225586-1.924316.395508-3.679199.509766-5.266602-.114258-.451172.055664-.905273.509766-1.359375.339844-.339844.905273-.679199,1.699219-1.019043.791016-.339844,1.980469-.509766,3.567383-.509766,1.584961,0,3.424805.029297,5.521484.084961,2.094727.058105,4.078125.169922,5.946289.339844,1.869141.169922,3.483398.453613,4.842773.849121,1.358398.398438,2.038086.993164,2.038086,1.78418-.114258,2.946289-.199219,5.890625-.254883,8.834473-.057617,2.946289-.084961,5.890625-.084961,8.834473l16.310547-.169922c.791016.228027,1.52832.623535,2.208008,1.188965.56543.568359,1.075195,1.388672,1.529297,2.463867.451172,1.077637.791016,2.577637,1.019531,4.501953Z" fill="none" stroke="#000" stroke-miterlimit="10" stroke-width="41"/><path d="M140.189453,69.657715c.111328,2.038574.225586,4.135742.339844,6.286133.111328,2.152832.026367,4.135742-.254883,5.946289-.28418,1.812988-.764648,3.371094-1.444336,4.671875-.679688,1.303711-1.757812,2.124023-3.227539,2.463379-.793945.228516-2.692383.339844-5.692383.339844-3.001953,0-6.598633-.111328-10.788086-.339844.111328,2.946777.196289,5.919922.254883,8.919434.055664,3.002441.140625,6.03125.254883,9.089355-.228516.908203-.624023,1.643555-1.189453,2.208984-.567383.567871-1.387695,1.077637-2.462891,1.528809-1.078125.454102-2.633789.793945-4.671875,1.019531-1.927734.228027-3.9375.424805-6.03125.594727-2.097656.169922-4.050781.169922-5.861328,0-1.813477-.169922-3.398438-.594727-4.757812-1.274414-1.358398-.679688-2.208008-1.754883-2.547852-3.228027-.228516-1.019531-.369141-3.397949-.424805-7.135254-.058594-3.737793.026367-8.155273.254883-13.251953-2.71875-.225586-5.266602-.395508-7.645508-.509766-2.37793-.111328-4.416992-.225586-6.116211-.339844-2.038086-.111328-3.907227-.225586-5.606445-.339844-.568359.114258-1.077148-.055664-1.529297-.509277-.338867-.339844-.678711-.875977-1.018555-1.614258-.339844-.735352-.509766-1.895508-.509766-3.48291-.114258-1.584473-.199219-3.424316-.254883-5.521484-.058594-2.094238-.058594-4.077148,0-5.946289.055664-1.868652.254883-3.48291.594727-4.841797.339844-1.359375.905273-2.094727,1.698242-2.208496l21.916992-.339844c.225586-2.604492.451172-4.98291.679688-7.135742.225586-2.150391.451172-4.019043.678711-5.606445.225586-1.924316.395508-3.679199.509766-5.266602-.114258-.451172.055664-.905273.509766-1.359375.339844-.339844.905273-.679199,1.699219-1.019043.791016-.339844,1.980469-.509766,3.567383-.509766,1.584961,0,3.424805.029297,5.521484.084961,2.094727.058105,4.078125.169922,5.946289.339844,1.869141.169922,3.483398.453613,4.842773.849121,1.358398.398438,2.038086.993164,2.038086,1.78418-.114258,2.946289-.199219,5.890625-.254883,8.834473-.057617,2.946289-.084961,5.890625-.084961,8.834473l16.310547-.169922c.791016.228027,1.52832.623535,2.208008,1.188965.56543.568359,1.075195,1.388672,1.529297,2.463867.451172,1.077637.791016,2.577637,1.019531,4.501953Z" fill="#f05356" stroke-width="0"/></svg>