<?xml version="1.0" encoding="UTF-8"?><svg id="uuid-2f3b7f7f-d72b-4d5e-b939-3d2ef9ddd78b" xmlns="http://www.w3.org/2000/svg" width="280" height="280" xmlns:xlink="http://www.w3.org/1999/xlink" viewBox="0 0 280 280"><defs><linearGradient id="uuid-f864b48f-539f-46dc-9e72-3ddb5f9fc0cc" x1="86.0936" y1="222.4717" x2="198.9132" y2="52.1911" gradientUnits="userSpaceOnUse"><stop offset="0" stop-color="#8e5ba6"/><stop offset=".4384" stop-color="#a25d99"/><stop offset="1" stop-color="#b6608e"/></linearGradient></defs><path d="M140.0479,243.9717c-26.8115,0-52.2017-10.2598-71.4932-28.8896-19.7778-19.0996-30.9341-44.7578-31.4141-72.2476-.4795-27.4902,9.7744-53.522,28.874-73.3003,19.5723-20.2676,45.8716-31.4297,74.0537-31.4297,26.812,0,52.2021,10.2598,71.4937,28.8896,40.8281,39.4268,41.9678,104.7188,2.5405,145.5469-19.5728,20.2686-45.8726,31.4307-74.0547,31.4307Z" fill="url(#uuid-f864b48f-539f-46dc-9e72-3ddb5f9fc0cc)" stroke-width="0"/><path d="M140.0688,46.6045c23.6165-.0009,47.2585,8.8026,65.5886,26.5038,37.5164,36.2293,38.5601,96.0121,2.3306,133.5287-18.5281,19.1865-43.22,28.8345-67.9399,28.8345-23.6165,0-47.2585-8.8027-65.5886-26.5038-37.5166-36.2293-38.5601-96.0121-2.3308-133.5287,18.5281-19.1865,43.22-28.8337,67.9402-28.8346M140.072,29.6045v17l-.001-17c-14.7986.0005-29.2031,2.8683-42.8162,8.5235-14.1038,5.8591-26.6719,14.4392-37.355,25.5019-20.6765,21.4111-31.7773,49.5925-31.2581,79.3529.5195,29.7604,12.5972,57.5373,34.0083,78.2137,20.8848,20.168,48.3718,31.275,77.3979,31.275,14.7957,0,29.2004-2.8676,42.814-8.5232,14.1035-5.8591,26.6716-14.4393,37.3547-25.5021,20.6765-21.4111,31.7776-49.5925,31.2581-79.353-.5195-29.7603-12.5972-57.5372-34.0083-78.2137-20.8845-20.1681-48.3706-31.2751-77.3945-31.2751h0Z" stroke-width="0"/><path d="M94.0684,125.5889c28.9668-1.0391,58.0234-1.2319,87.1709-.5786,1.0186.1631,1.9512.666,2.8066,1.5059.8516.8438,1.5371,1.9819,2.0557,3.416.5176,1.438.8691,3.5132,1.0576,6.2197.1846,2.541.2891,5.2095.3076,8.0044.0186,2.7959-.2178,5.3828-.7109,7.7568-.4922,2.3789-1.2422,4.373-2.248,5.9883-1.0059,1.6191-2.4404,2.6846-4.2988,3.2051-1.0156.1777-2.9658.2344-5.8447.166-2.8838-.0635-6.3555-.2119-10.4238-.4385-4.0674-.2275-8.5605-.4922-13.4746-.7998-4.918-.3057-9.916-.6104-15.002-.917-4.918-.3057-9.7051-.5723-14.3652-.7949-4.6631-.2227-8.8584-.4893-12.585-.8057-4.4092-.1377-8.4766-.2822-12.2021-.4277-.6787.1748-1.3584.0088-2.0371-.4951-.5107-.334-.9844-1.0498-1.4121-2.1504-.4326-1.0977-.7412-2.6641-.9209-4.6963-.1836-2.0322-.3701-4.4014-.5557-7.1133-.1885-2.7065-.2891-5.335-.3057-7.877-.0176-2.541.2227-4.7031.7188-6.4854.4971-1.7817,1.2529-2.6758,2.2695-2.6826Z" fill="none" stroke="#000" stroke-width="32"/><path d="M94.0684,125.5889c28.9668-1.0391,58.0234-1.2319,87.1709-.5786,1.0186.1631,1.9512.666,2.8066,1.5059.8516.8438,1.5371,1.9819,2.0557,3.416.5176,1.438.8691,3.5132,1.0576,6.2197.1846,2.541.2891,5.2095.3076,8.0044.0186,2.7959-.2178,5.3828-.7109,7.7568-.4922,2.3789-1.2422,4.373-2.248,5.9883-1.0059,1.6191-2.4404,2.6846-4.2988,3.2051-1.0156.1777-2.9658.2344-5.8447.166-2.8838-.0635-6.3555-.2119-10.4238-.4385-4.0674-.2275-8.5605-.4922-13.4746-.7998-4.918-.3057-9.916-.6104-15.002-.917-4.918-.3057-9.7051-.5723-14.3652-.7949-4.6631-.2227-8.8584-.4893-12.585-.8057-4.4092-.1377-8.4766-.2822-12.2021-.4277-.6787.1748-1.3584.0088-2.0371-.4951-.5107-.334-.9844-1.0498-1.4121-2.1504-.4326-1.0977-.7412-2.6641-.9209-4.6963-.1836-2.0322-.3701-4.4014-.5557-7.1133-.1885-2.7065-.2891-5.335-.3057-7.877-.0176-2.541.2227-4.7031.7188-6.4854.4971-1.7817,1.2529-2.6758,2.2695-2.6826Z" fill="#e6e7e8" stroke-width="0"/></svg>